<?xml version="1.0" encoding="UTF-8" standalone="no"?>
<!DOCTYPE svg PUBLIC "-//W3C//DTD SVG 1.1//EN"
 "http://www.w3.org/Graphics/SVG/1.1/DTD/svg11.dtd">
<!-- Generated by graphviz version 2.43.0 (0)
 -->
<!-- Title: dependency&#45;cruiser output Pages: 1 -->
<svg width="148pt" height="264pt"
 viewBox="0.00 0.00 148.00 264.00" xmlns="http://www.w3.org/2000/svg" xmlns:xlink="http://www.w3.org/1999/xlink">
<g id="graph0" class="graph" transform="scale(1 1) rotate(0) translate(4 260)">
<title>dependency&#45;cruiser output</title>
<polygon fill="white" stroke="transparent" points="-4,4 -4,-260 144,-260 144,4 -4,4"/>
<g id="clust1" class="cluster">
<title>cluster_packages</title>
<path fill="#ffffff" stroke="black" stroke-width="2" d="M20,-8C20,-8 120,-8 120,-8 126,-8 132,-14 132,-20 132,-20 132,-236 132,-236 132,-242 126,-248 120,-248 120,-248 20,-248 20,-248 14,-248 8,-242 8,-236 8,-236 8,-20 8,-20 8,-14 14,-8 20,-8"/>
<text text-anchor="middle" x="70" y="-236.8" font-family="Helvetica,sans-Serif" font-weight="bold" font-size="9.00">packages</text>
</g>
<g id="clust2" class="cluster">
<title>cluster_packages/util</title>
<path fill="#ffffff" stroke="black" stroke-width="2" d="M28,-16C28,-16 112,-16 112,-16 118,-16 124,-22 124,-28 124,-28 124,-210 124,-210 124,-216 118,-222 112,-222 112,-222 28,-222 28,-222 22,-222 16,-216 16,-210 16,-210 16,-28 16,-28 16,-22 22,-16 28,-16"/>
<text text-anchor="middle" x="70" y="-210.8" font-family="Helvetica,sans-Serif" font-weight="bold" font-size="9.00">util</text>
</g>
<g id="clust3" class="cluster">
<title>cluster_packages/util/stdlib</title>
<path fill="#ffffff" stroke="black" stroke-width="2" d="M36,-24C36,-24 104,-24 104,-24 110,-24 116,-30 116,-36 116,-36 116,-184 116,-184 116,-190 110,-196 104,-196 104,-196 36,-196 36,-196 30,-196 24,-190 24,-184 24,-184 24,-36 24,-36 24,-30 30,-24 36,-24"/>
<text text-anchor="middle" x="70" y="-184.8" font-family="Helvetica,sans-Serif" font-weight="bold" font-size="9.00">stdlib</text>
</g>
<g id="clust4" class="cluster">
<title>cluster_packages/util/stdlib/dist</title>
<path fill="#ffffff" stroke="black" stroke-width="2" d="M44,-88C44,-88 96,-88 96,-88 102,-88 108,-94 108,-100 108,-100 108,-158 108,-158 108,-164 102,-170 96,-170 96,-170 44,-170 44,-170 38,-170 32,-164 32,-158 32,-158 32,-100 32,-100 32,-94 38,-88 44,-88"/>
<text text-anchor="middle" x="70" y="-158.8" font-family="Helvetica,sans-Serif" font-weight="bold" font-size="9.00">dist</text>
</g>
<!-- packages/util/stdlib/dist/index.js -->
<g id="node1" class="node">
<title>packages/util/stdlib/dist/index.js</title>
<g id="a_node1"><a xlink:href="packages/util/stdlib/dist/index.js" xlink:title="no&#45;orphans">
<path fill="#ccffcc" stroke="orange" d="M91,-144C91,-144 49,-144 49,-144 46,-144 43,-141 43,-138 43,-138 43,-132 43,-132 43,-129 46,-126 49,-126 49,-126 91,-126 91,-126 94,-126 97,-129 97,-132 97,-132 97,-138 97,-138 97,-141 94,-144 91,-144"/>
<text text-anchor="start" x="52.5" y="-132.8" font-family="Helvetica,sans-Serif" font-size="9.00" fill="orange">index.js</text>
</a>
</g>
</g>
<!-- packages/util/stdlib/dist/index.mjs -->
<g id="node2" class="node">
<title>packages/util/stdlib/dist/index.mjs</title>
<g id="a_node2"><a xlink:href="packages/util/stdlib/dist/index.mjs" xlink:title="no&#45;orphans">
<path fill="#ccffcc" stroke="orange" d="M94,-114C94,-114 46,-114 46,-114 43,-114 40,-111 40,-108 40,-108 40,-102 40,-102 40,-99 43,-96 46,-96 46,-96 94,-96 94,-96 97,-96 100,-99 100,-102 100,-102 100,-108 100,-108 100,-111 97,-114 94,-114"/>
<text text-anchor="start" x="48" y="-102.8" font-family="Helvetica,sans-Serif" font-size="9.00" fill="orange">index.mjs</text>
</a>
</g>
</g>
<!-- packages/util/stdlib/index.test.ts -->
<g id="node3" class="node">
<title>packages/util/stdlib/index.test.ts</title>
<g id="a_node3"><a xlink:href="packages/util/stdlib/index.test.ts" xlink:title="no&#45;orphans">
<path fill="#ccffcc" stroke="orange" d="M100.5,-80C100.5,-80 39.5,-80 39.5,-80 36.5,-80 33.5,-77 33.5,-74 33.5,-74 33.5,-68 33.5,-68 33.5,-65 36.5,-62 39.5,-62 39.5,-62 100.5,-62 100.5,-62 103.5,-62 106.5,-65 106.5,-68 106.5,-68 106.5,-74 106.5,-74 106.5,-77 103.5,-80 100.5,-80"/>
<text text-anchor="start" x="41.5" y="-68.8" font-family="Helvetica,sans-Serif" font-size="9.00" fill="orange">index.test.ts</text>
</a>
</g>
</g>
<!-- packages/util/stdlib/index.ts -->
<g id="node4" class="node">
<title>packages/util/stdlib/index.ts</title>
<g id="a_node4"><a xlink:href="packages/util/stdlib/index.ts" xlink:title="no&#45;orphans">
<path fill="#ccffcc" stroke="orange" d="M91,-50C91,-50 49,-50 49,-50 46,-50 43,-47 43,-44 43,-44 43,-38 43,-38 43,-35 46,-32 49,-32 49,-32 91,-32 91,-32 94,-32 97,-35 97,-38 97,-38 97,-44 97,-44 97,-47 94,-50 91,-50"/>
<text text-anchor="start" x="51.5" y="-38.8" font-family="Helvetica,sans-Serif" font-size="9.00" fill="orange">index.ts</text>
</a>
</g>
</g>
</g>
</svg>
