<?xml version="1.0" encoding="UTF-8" standalone="no"?>
<!DOCTYPE svg PUBLIC "-//W3C//DTD SVG 1.1//EN"
 "http://www.w3.org/Graphics/SVG/1.1/DTD/svg11.dtd">
<!-- Generated by graphviz version 2.43.0 (0)
 -->
<!-- Title: dependency&#45;cruiser output Pages: 1 -->
<svg width="301pt" height="278pt"
 viewBox="0.00 0.00 301.00 278.00" xmlns="http://www.w3.org/2000/svg" xmlns:xlink="http://www.w3.org/1999/xlink">
<g id="graph0" class="graph" transform="scale(1 1) rotate(0) translate(4 274)">
<title>dependency&#45;cruiser output</title>
<polygon fill="white" stroke="transparent" points="-4,4 -4,-274 297,-274 297,4 -4,4"/>
<g id="clust1" class="cluster">
<title>cluster_packages</title>
<path fill="#ffffff" stroke="black" stroke-width="2" d="M12,0C12,0 281,0 281,0 287,0 293,-6 293,-12 293,-12 293,-258 293,-258 293,-264 287,-270 281,-270 281,-270 12,-270 12,-270 6,-270 0,-264 0,-258 0,-258 0,-12 0,-12 0,-6 6,0 12,0"/>
<text text-anchor="middle" x="146.5" y="-258.8" font-family="Helvetica,sans-Serif" font-weight="bold" font-size="9.00">packages</text>
</g>
<!-- packages/util/stdlib/index.test.ts -->
<g id="node1" class="node">
<title>packages/util/stdlib/index.test.ts</title>
<g id="a_node1"><a xlink:href="packages/util/stdlib/index.test.ts" xlink:title="no&#45;orphans">
<path fill="#ccffcc" stroke="orange" d="M274,-108C274,-108 213,-108 213,-108 210,-108 207,-105 207,-102 207,-102 207,-96 207,-96 207,-93 210,-90 213,-90 213,-90 274,-90 274,-90 277,-90 280,-93 280,-96 280,-96 280,-102 280,-102 280,-105 277,-108 274,-108"/>
<text text-anchor="start" x="215" y="-96.8" font-family="Helvetica,sans-Serif" font-size="9.00" fill="orange">index.test.ts</text>
</a>
</g>
</g>
<!-- packages/util/stdlib/src/array&#45;of&#45;array/array&#45;of&#45;array.ts -->
<g id="node2" class="node">
<title>packages/util/stdlib/src/array&#45;of&#45;array/array&#45;of&#45;array.ts</title>
<g id="a_node2"><a xlink:href="packages/util/stdlib/src/array-of-array/array-of-array.ts" xlink:title="array&#45;of&#45;array.ts">
<path fill="#ddfeff" stroke="black" d="M208,-156.4C208,-156.4 132,-156.4 132,-156.4 129,-156.4 126,-153.4 126,-150.4 126,-150.4 126,-144.4 126,-144.4 126,-141.4 129,-138.4 132,-138.4 132,-138.4 208,-138.4 208,-138.4 211,-138.4 214,-141.4 214,-144.4 214,-144.4 214,-150.4 214,-150.4 214,-153.4 211,-156.4 208,-156.4"/>
<text text-anchor="start" x="134" y="-145.2" font-family="Helvetica,sans-Serif" font-size="9.00">array&#45;of&#45;array.ts</text>
</a>
</g>
</g>
<!-- packages/util/stdlib/src/array&#45;of&#45;array/to&#45;array.ts -->
<g id="node3" class="node">
<title>packages/util/stdlib/src/array&#45;of&#45;array/to&#45;array.ts</title>
<g id="a_node3"><a xlink:href="packages/util/stdlib/src/array-of-array/to-array.ts" xlink:title="to&#45;array.ts">
<path fill="#ddfeff" stroke="black" d="M278.01,-144C278.01,-144 228.01,-144 228.01,-144 225.01,-144 222.01,-141 222.01,-138 222.01,-138 222.01,-132 222.01,-132 222.01,-129 225.01,-126 228.01,-126 228.01,-126 278.01,-126 278.01,-126 281.01,-126 284.01,-129 284.01,-132 284.01,-132 284.01,-138 284.01,-138 284.01,-141 281.01,-144 278.01,-144"/>
<text text-anchor="start" x="230.01" y="-132.8" font-family="Helvetica,sans-Serif" font-size="9.00">to&#45;array.ts</text>
</a>
</g>
</g>
<!-- packages/util/stdlib/src/array&#45;of&#45;array/to&#45;array.ts&#45;&gt;packages/util/stdlib/src/array&#45;of&#45;array/array&#45;of&#45;array.ts -->
<g id="edge1" class="edge">
<title>packages/util/stdlib/src/array&#45;of&#45;array/to&#45;array.ts&#45;&gt;packages/util/stdlib/src/array&#45;of&#45;array/array&#45;of&#45;array.ts</title>
<path fill="none" stroke="#000000" stroke-width="2" stroke-opacity="0.200000" d="M221.63,-139.69C221.16,-139.76 220.69,-139.83 220.23,-139.9"/>
<polygon fill="#000000" fill-opacity="0.200000" stroke="#000000" stroke-width="2" stroke-opacity="0.200000" points="219.7,-137.85 214.07,-140.82 220.32,-142.01 219.7,-137.85"/>
</g>
<!-- packages/util/stdlib/src/assertion/assertion.ts -->
<g id="node4" class="node">
<title>packages/util/stdlib/src/assertion/assertion.ts</title>
<g id="a_node4"><a xlink:href="packages/util/stdlib/src/assertion/assertion.ts" xlink:title="no&#45;orphans">
<path fill="#ccffcc" stroke="orange" d="M287,-270C287,-270 231,-270 231,-270 228,-270 225,-267 225,-264 225,-264 225,-258 225,-258 225,-255 228,-252 231,-252 231,-252 287,-252 287,-252 290,-252 293,-255 293,-258 293,-258 293,-264 293,-264 293,-267 290,-270 287,-270"/>
<text text-anchor="start" x="233" y="-258.8" font-family="Helvetica,sans-Serif" font-size="9.00" fill="orange">assertion.ts</text>
</a>
</g>
</g>
<!-- packages/util/stdlib/src/assertion/not&#45;nan.ts -->
<g id="node5" class="node">
<title>packages/util/stdlib/src/assertion/not&#45;nan.ts</title>
<g id="a_node5"><a xlink:href="packages/util/stdlib/src/assertion/not-nan.ts" xlink:title="not&#45;nan.ts">
<path fill="#ddfeff" stroke="black" d="M94.74,-173.36C94.74,-173.36 43.74,-173.36 43.74,-173.36 40.74,-173.36 37.74,-170.36 37.74,-167.36 37.74,-167.36 37.74,-161.36 37.74,-161.36 37.74,-158.36 40.74,-155.36 43.74,-155.36 43.74,-155.36 94.74,-155.36 94.74,-155.36 97.74,-155.36 100.74,-158.36 100.74,-161.36 100.74,-161.36 100.74,-167.36 100.74,-167.36 100.74,-170.36 97.74,-173.36 94.74,-173.36"/>
<text text-anchor="start" x="45.74" y="-162.16" font-family="Helvetica,sans-Serif" font-size="9.00">not&#45;nan.ts</text>
</a>
</g>
</g>
<!-- packages/util/stdlib/src/error/throw&#45;function.ts -->
<g id="node6" class="node">
<title>packages/util/stdlib/src/error/throw&#45;function.ts</title>
<g id="a_node6"><a xlink:href="packages/util/stdlib/src/error/throw-function.ts" xlink:title="throw&#45;function.ts">
<path fill="#ddfeff" stroke="black" d="M123.5,-112.69C123.5,-112.69 40.5,-112.69 40.5,-112.69 37.5,-112.69 34.5,-109.69 34.5,-106.69 34.5,-106.69 34.5,-100.69 34.5,-100.69 34.5,-97.69 37.5,-94.69 40.5,-94.69 40.5,-94.69 123.5,-94.69 123.5,-94.69 126.5,-94.69 129.5,-97.69 129.5,-100.69 129.5,-100.69 129.5,-106.69 129.5,-106.69 129.5,-109.69 126.5,-112.69 123.5,-112.69"/>
<text text-anchor="start" x="42.5" y="-101.49" font-family="Helvetica,sans-Serif" font-size="9.00">throw&#45;function.ts</text>
</a>
</g>
</g>
<!-- packages/util/stdlib/src/assertion/not&#45;nan.ts&#45;&gt;packages/util/stdlib/src/error/throw&#45;function.ts -->
<g id="edge2" class="edge">
<title>packages/util/stdlib/src/assertion/not&#45;nan.ts&#45;&gt;packages/util/stdlib/src/error/throw&#45;function.ts</title>
<path fill="none" stroke="#000000" stroke-width="2" stroke-opacity="0.200000" d="M71.17,-155.14C73.2,-145.52 76.4,-130.27 78.8,-118.87"/>
<polygon fill="#000000" fill-opacity="0.200000" stroke="#000000" stroke-width="2" stroke-opacity="0.200000" points="80.86,-119.29 80.04,-112.99 76.75,-118.43 80.86,-119.29"/>
</g>
<!-- packages/util/stdlib/src/assertion/not&#45;null&#45;like.ts -->
<g id="node7" class="node">
<title>packages/util/stdlib/src/assertion/not&#45;null&#45;like.ts</title>
<g id="a_node7"><a xlink:href="packages/util/stdlib/src/assertion/not-null-like.ts" xlink:title="not&#45;null&#45;like.ts">
<path fill="#ddfeff" stroke="black" d="M137,-18C137,-18 69,-18 69,-18 66,-18 63,-15 63,-12 63,-12 63,-6 63,-6 63,-3 66,0 69,0 69,0 137,0 137,0 140,0 143,-3 143,-6 143,-6 143,-12 143,-12 143,-15 140,-18 137,-18"/>
<text text-anchor="start" x="71" y="-6.8" font-family="Helvetica,sans-Serif" font-size="9.00">not&#45;null&#45;like.ts</text>
</a>
</g>
</g>
<!-- packages/util/stdlib/src/assertion/not&#45;null.ts -->
<g id="node8" class="node">
<title>packages/util/stdlib/src/assertion/not&#45;null.ts</title>
<g id="a_node8"><a xlink:href="packages/util/stdlib/src/assertion/not-null.ts" xlink:title="not&#45;null.ts">
<path fill="#ddfeff" stroke="black" d="M75.01,-55.74C75.01,-55.74 25.01,-55.74 25.01,-55.74 22.01,-55.74 19.01,-52.74 19.01,-49.74 19.01,-49.74 19.01,-43.74 19.01,-43.74 19.01,-40.74 22.01,-37.74 25.01,-37.74 25.01,-37.74 75.01,-37.74 75.01,-37.74 78.01,-37.74 81.01,-40.74 81.01,-43.74 81.01,-43.74 81.01,-49.74 81.01,-49.74 81.01,-52.74 78.01,-55.74 75.01,-55.74"/>
<text text-anchor="start" x="27.01" y="-44.54" font-family="Helvetica,sans-Serif" font-size="9.00">not&#45;null.ts</text>
</a>
</g>
</g>
<!-- packages/util/stdlib/src/assertion/not&#45;null&#45;like.ts&#45;&gt;packages/util/stdlib/src/assertion/not&#45;null.ts -->
<g id="edge3" class="edge">
<title>packages/util/stdlib/src/assertion/not&#45;null&#45;like.ts&#45;&gt;packages/util/stdlib/src/assertion/not&#45;null.ts</title>
<path fill="none" stroke="#000000" stroke-width="2" stroke-opacity="0.200000" d="M90.18,-18.14C83.41,-22.96 75,-28.95 67.63,-34.2"/>
<polygon fill="#000000" fill-opacity="0.200000" stroke="#000000" stroke-width="2" stroke-opacity="0.200000" points="66.39,-32.5 62.72,-37.69 68.83,-35.92 66.39,-32.5"/>
</g>
<!-- packages/util/stdlib/src/assertion/not&#45;undefined.ts -->
<g id="node9" class="node">
<title>packages/util/stdlib/src/assertion/not&#45;undefined.ts</title>
<g id="a_node9"><a xlink:href="packages/util/stdlib/src/assertion/not-undefined.ts" xlink:title="not&#45;undefined.ts">
<path fill="#ddfeff" stroke="black" d="M175.02,-74.71C175.02,-74.71 95.02,-74.71 95.02,-74.71 92.02,-74.71 89.02,-71.71 89.02,-68.71 89.02,-68.71 89.02,-62.71 89.02,-62.71 89.02,-59.71 92.02,-56.71 95.02,-56.71 95.02,-56.71 175.02,-56.71 175.02,-56.71 178.02,-56.71 181.02,-59.71 181.02,-62.71 181.02,-62.71 181.02,-68.71 181.02,-68.71 181.02,-71.71 178.02,-74.71 175.02,-74.71"/>
<text text-anchor="start" x="97.02" y="-63.51" font-family="Helvetica,sans-Serif" font-size="9.00">not&#45;undefined.ts</text>
</a>
</g>
</g>
<!-- packages/util/stdlib/src/assertion/not&#45;null&#45;like.ts&#45;&gt;packages/util/stdlib/src/assertion/not&#45;undefined.ts -->
<g id="edge4" class="edge">
<title>packages/util/stdlib/src/assertion/not&#45;null&#45;like.ts&#45;&gt;packages/util/stdlib/src/assertion/not&#45;undefined.ts</title>
<path fill="none" stroke="#000000" stroke-width="2" stroke-opacity="0.200000" d="M108.15,-18.11C113.16,-26.99 120.86,-40.63 126.74,-51.03"/>
<polygon fill="#000000" fill-opacity="0.200000" stroke="#000000" stroke-width="2" stroke-opacity="0.200000" points="125.01,-52.24 129.78,-56.43 128.66,-50.17 125.01,-52.24"/>
</g>
<!-- packages/util/stdlib/src/assertion/not&#45;null.ts&#45;&gt;packages/util/stdlib/src/error/throw&#45;function.ts -->
<g id="edge5" class="edge">
<title>packages/util/stdlib/src/assertion/not&#45;null.ts&#45;&gt;packages/util/stdlib/src/error/throw&#45;function.ts</title>
<path fill="none" stroke="#000000" stroke-width="2" stroke-opacity="0.200000" d="M55.15,-55.89C60.16,-64.8 67.85,-78.5 73.72,-88.95"/>
<polygon fill="#000000" fill-opacity="0.200000" stroke="#000000" stroke-width="2" stroke-opacity="0.200000" points="72,-90.17 76.76,-94.37 75.66,-88.11 72,-90.17"/>
</g>
<!-- packages/util/stdlib/src/assertion/not&#45;undefined.ts&#45;&gt;packages/util/stdlib/src/error/throw&#45;function.ts -->
<g id="edge6" class="edge">
<title>packages/util/stdlib/src/assertion/not&#45;undefined.ts&#45;&gt;packages/util/stdlib/src/error/throw&#45;function.ts</title>
<path fill="none" stroke="#000000" stroke-width="2" stroke-opacity="0.200000" d="M122.46,-74.71C115.69,-79.56 107.22,-85.62 99.79,-90.94"/>
<polygon fill="#000000" fill-opacity="0.200000" stroke="#000000" stroke-width="2" stroke-opacity="0.200000" points="98.5,-89.29 94.84,-94.49 100.94,-92.7 98.5,-89.29"/>
</g>
<!-- packages/util/stdlib/src/console/green.ts -->
<g id="node10" class="node">
<title>packages/util/stdlib/src/console/green.ts</title>
<g id="a_node10"><a xlink:href="packages/util/stdlib/src/console/green.ts" xlink:title="no&#45;orphans">
<path fill="#ccffcc" stroke="orange" d="M165,-234C165,-234 123,-234 123,-234 120,-234 117,-231 117,-228 117,-228 117,-222 117,-222 117,-219 120,-216 123,-216 123,-216 165,-216 165,-216 168,-216 171,-219 171,-222 171,-222 171,-228 171,-228 171,-231 168,-234 165,-234"/>
<text text-anchor="start" x="125" y="-222.8" font-family="Helvetica,sans-Serif" font-size="9.00" fill="orange">green.ts</text>
</a>
</g>
</g>
<!-- packages/util/stdlib/src/console/reset.ts -->
<g id="node11" class="node">
<title>packages/util/stdlib/src/console/reset.ts</title>
<g id="a_node11"><a xlink:href="packages/util/stdlib/src/console/reset.ts" xlink:title="no&#45;orphans">
<path fill="#ccffcc" stroke="orange" d="M120,-270C120,-270 78,-270 78,-270 75,-270 72,-267 72,-264 72,-264 72,-258 72,-258 72,-255 75,-252 78,-252 78,-252 120,-252 120,-252 123,-252 126,-255 126,-258 126,-258 126,-264 126,-264 126,-267 123,-270 120,-270"/>
<text text-anchor="start" x="82" y="-258.8" font-family="Helvetica,sans-Serif" font-size="9.00" fill="orange">reset.ts</text>
</a>
</g>
</g>
<!-- packages/util/stdlib/src/deep&#45;equal.ts -->
<g id="node12" class="node">
<title>packages/util/stdlib/src/deep&#45;equal.ts</title>
<g id="a_node12"><a xlink:href="packages/util/stdlib/src/deep-equal.ts" xlink:title="no&#45;orphans">
<path fill="#ccffcc" stroke="orange" d="M279,-72C279,-72 213,-72 213,-72 210,-72 207,-69 207,-66 207,-66 207,-60 207,-60 207,-57 210,-54 213,-54 213,-54 279,-54 279,-54 282,-54 285,-57 285,-60 285,-60 285,-66 285,-66 285,-69 282,-72 279,-72"/>
<text text-anchor="start" x="215" y="-60.8" font-family="Helvetica,sans-Serif" font-size="9.00" fill="orange">deep&#45;equal.ts</text>
</a>
</g>
</g>
<!-- packages/util/stdlib/src/error/not&#45;implemented&#45;error.ts -->
<g id="node13" class="node">
<title>packages/util/stdlib/src/error/not&#45;implemented&#45;error.ts</title>
<g id="a_node13"><a xlink:href="packages/util/stdlib/src/error/not-implemented-error.ts" xlink:title="no&#45;orphans">
<path fill="#ccffcc" stroke="orange" d="M277,-198C277,-198 159,-198 159,-198 156,-198 153,-195 153,-192 153,-192 153,-186 153,-186 153,-183 156,-180 159,-180 159,-180 277,-180 277,-180 280,-180 283,-183 283,-186 283,-186 283,-192 283,-192 283,-195 280,-198 277,-198"/>
<text text-anchor="start" x="161" y="-186.8" font-family="Helvetica,sans-Serif" font-size="9.00" fill="orange">not&#45;implemented&#45;error.ts</text>
</a>
</g>
</g>
<!-- packages/util/stdlib/src/string/cast&#45;to&#45;number.ts -->
<g id="node14" class="node">
<title>packages/util/stdlib/src/string/cast&#45;to&#45;number.ts</title>
<g id="a_node14"><a xlink:href="packages/util/stdlib/src/string/cast-to-number.ts" xlink:title="cast&#45;to&#45;number.ts">
<path fill="#ddfeff" stroke="black" d="M92,-229.9C92,-229.9 6,-229.9 6,-229.9 3,-229.9 0,-226.9 0,-223.9 0,-223.9 0,-217.9 0,-217.9 0,-214.9 3,-211.9 6,-211.9 6,-211.9 92,-211.9 92,-211.9 95,-211.9 98,-214.9 98,-217.9 98,-217.9 98,-223.9 98,-223.9 98,-226.9 95,-229.9 92,-229.9"/>
<text text-anchor="start" x="8" y="-218.7" font-family="Helvetica,sans-Serif" font-size="9.00">cast&#45;to&#45;number.ts</text>
</a>
</g>
</g>
<!-- packages/util/stdlib/src/string/cast&#45;to&#45;number.ts&#45;&gt;packages/util/stdlib/src/assertion/not&#45;nan.ts -->
<g id="edge7" class="edge">
<title>packages/util/stdlib/src/string/cast&#45;to&#45;number.ts&#45;&gt;packages/util/stdlib/src/assertion/not&#45;nan.ts</title>
<path fill="none" stroke="#000000" stroke-width="2" stroke-opacity="0.200000" d="M52.25,-211.82C55.39,-203.05 60.2,-189.62 63.9,-179.28"/>
<polygon fill="#000000" fill-opacity="0.200000" stroke="#000000" stroke-width="2" stroke-opacity="0.200000" points="65.88,-179.97 65.92,-173.61 61.93,-178.55 65.88,-179.97"/>
</g>
<!-- packages/util/stdlib/src/string/get&#45;capital&#45;case.ts -->
<g id="node15" class="node">
<title>packages/util/stdlib/src/string/get&#45;capital&#45;case.ts</title>
<g id="a_node15"><a xlink:href="packages/util/stdlib/src/string/get-capital-case.ts" xlink:title="no&#45;orphans">
<path fill="#ccffcc" stroke="orange" d="M282,-234C282,-234 195,-234 195,-234 192,-234 189,-231 189,-228 189,-228 189,-222 189,-222 189,-219 192,-216 195,-216 195,-216 282,-216 282,-216 285,-216 288,-219 288,-222 288,-222 288,-228 288,-228 288,-231 285,-234 282,-234"/>
<text text-anchor="start" x="197" y="-222.8" font-family="Helvetica,sans-Serif" font-size="9.00" fill="orange">get&#45;capital&#45;case.ts</text>
</a>
</g>
</g>
<!-- packages/util/stdlib/src/string/get&#45;lower&#45;case.ts -->
<g id="node16" class="node">
<title>packages/util/stdlib/src/string/get&#45;lower&#45;case.ts</title>
<g id="a_node16"><a xlink:href="packages/util/stdlib/src/string/get-lower-case.ts" xlink:title="no&#45;orphans">
<path fill="#ccffcc" stroke="orange" d="M248,-36C248,-36 168,-36 168,-36 165,-36 162,-33 162,-30 162,-30 162,-24 162,-24 162,-21 165,-18 168,-18 168,-18 248,-18 248,-18 251,-18 254,-21 254,-24 254,-24 254,-30 254,-30 254,-33 251,-36 248,-36"/>
<text text-anchor="start" x="170" y="-24.8" font-family="Helvetica,sans-Serif" font-size="9.00" fill="orange">get&#45;lower&#45;case.ts</text>
</a>
</g>
</g>
<!-- packages/util/stdlib/src/unique.ts -->
<g id="node17" class="node">
<title>packages/util/stdlib/src/unique.ts</title>
<g id="a_node17"><a xlink:href="packages/util/stdlib/src/unique.ts" xlink:title="no&#45;orphans">
<path fill="#ccffcc" stroke="orange" d="M197,-270C197,-270 150,-270 150,-270 147,-270 144,-267 144,-264 144,-264 144,-258 144,-258 144,-255 147,-252 150,-252 150,-252 197,-252 197,-252 200,-252 203,-255 203,-258 203,-258 203,-264 203,-264 203,-267 200,-270 197,-270"/>
<text text-anchor="start" x="152" y="-258.8" font-family="Helvetica,sans-Serif" font-size="9.00" fill="orange">unique.ts</text>
</a>
</g>
</g>
</g>
</svg>
