<?xml version="1.0" encoding="UTF-8" standalone="no"?>
<!DOCTYPE svg PUBLIC "-//W3C//DTD SVG 1.1//EN"
 "http://www.w3.org/Graphics/SVG/1.1/DTD/svg11.dtd">
<!-- Generated by graphviz version 2.43.0 (0)
 -->
<!-- Title: dependency&#45;cruiser output Pages: 1 -->
<svg width="132pt" height="66pt"
 viewBox="0.00 0.00 132.00 66.00" xmlns="http://www.w3.org/2000/svg" xmlns:xlink="http://www.w3.org/1999/xlink">
<g id="graph0" class="graph" transform="scale(1 1) rotate(0) translate(4 62)">
<title>dependency&#45;cruiser output</title>
<polygon fill="white" stroke="transparent" points="-4,4 -4,-62 128,-62 128,4 -4,4"/>
<g id="clust1" class="cluster">
<title>cluster_packages</title>
<path fill="#ffffff" stroke="black" stroke-width="2" d="M12,0C12,0 112,0 112,0 118,0 124,-6 124,-12 124,-12 124,-46 124,-46 124,-52 118,-58 112,-58 112,-58 12,-58 12,-58 6,-58 0,-52 0,-46 0,-46 0,-12 0,-12 0,-6 6,0 12,0"/>
<text text-anchor="middle" x="62" y="-46.8" font-family="Helvetica,sans-Serif" font-weight="bold" font-size="9.00">packages</text>
</g>
<!-- packages/util/stdlib/index.test.ts -->
<g id="node1" class="node">
<title>packages/util/stdlib/index.test.ts</title>
<g id="a_node1"><a xlink:href="packages/util/stdlib/index.test.ts" xlink:title="no&#45;orphans">
<path fill="#ccffcc" stroke="orange" d="M67,-18C67,-18 6,-18 6,-18 3,-18 0,-15 0,-12 0,-12 0,-6 0,-6 0,-3 3,0 6,0 6,0 67,0 67,0 70,0 73,-3 73,-6 73,-6 73,-12 73,-12 73,-15 70,-18 67,-18"/>
<text text-anchor="start" x="8" y="-6.8" font-family="Helvetica,sans-Serif" font-size="9.00" fill="orange">index.test.ts</text>
</a>
</g>
</g>
<!-- packages/util/stdlib/index.ts -->
<g id="node2" class="node">
<title>packages/util/stdlib/index.ts</title>
<g id="a_node2"><a xlink:href="packages/util/stdlib/index.ts" xlink:title="no&#45;orphans">
<path fill="#ccffcc" stroke="orange" d="M118,-58C118,-58 76,-58 76,-58 73,-58 70,-55 70,-52 70,-52 70,-46 70,-46 70,-43 73,-40 76,-40 76,-40 118,-40 118,-40 121,-40 124,-43 124,-46 124,-46 124,-52 124,-52 124,-55 121,-58 118,-58"/>
<text text-anchor="start" x="78.5" y="-46.8" font-family="Helvetica,sans-Serif" font-size="9.00" fill="orange">index.ts</text>
</a>
</g>
</g>
</g>
</svg>
