<?xml version="1.0" encoding="UTF-8" standalone="no"?>
<!DOCTYPE svg PUBLIC "-//W3C//DTD SVG 1.1//EN"
 "http://www.w3.org/Graphics/SVG/1.1/DTD/svg11.dtd">
<!-- Generated by graphviz version 2.43.0 (0)
 -->
<!-- Title: dependency&#45;cruiser output Pages: 1 -->
<svg width="864pt" height="484pt"
 viewBox="0.00 0.00 864.00 484.00" xmlns="http://www.w3.org/2000/svg" xmlns:xlink="http://www.w3.org/1999/xlink">
<g id="graph0" class="graph" transform="scale(1 1) rotate(0) translate(4 480)">
<title>dependency&#45;cruiser output</title>
<polygon fill="white" stroke="transparent" points="-4,4 -4,-480 860,-480 860,4 -4,4"/>
<g id="clust1" class="cluster">
<title>cluster_packages</title>
<path fill="#ffffff" stroke="black" stroke-width="2" d="M20,-8C20,-8 836,-8 836,-8 842,-8 848,-14 848,-20 848,-20 848,-456 848,-456 848,-462 842,-468 836,-468 836,-468 20,-468 20,-468 14,-468 8,-462 8,-456 8,-456 8,-20 8,-20 8,-14 14,-8 20,-8"/>
<text text-anchor="middle" x="428" y="-456.8" font-family="Helvetica,sans-Serif" font-weight="bold" font-size="9.00">packages</text>
</g>
<g id="clust2" class="cluster">
<title>cluster_packages/util</title>
<path fill="#ffffff" stroke="black" stroke-width="2" d="M28,-16C28,-16 828,-16 828,-16 834,-16 840,-22 840,-28 840,-28 840,-430 840,-430 840,-436 834,-442 828,-442 828,-442 28,-442 28,-442 22,-442 16,-436 16,-430 16,-430 16,-28 16,-28 16,-22 22,-16 28,-16"/>
<text text-anchor="middle" x="428" y="-430.8" font-family="Helvetica,sans-Serif" font-weight="bold" font-size="9.00">util</text>
</g>
<g id="clust3" class="cluster">
<title>cluster_packages/util/stdlib</title>
<path fill="#ffffff" stroke="black" stroke-width="2" d="M36,-24C36,-24 820,-24 820,-24 826,-24 832,-30 832,-36 832,-36 832,-404 832,-404 832,-410 826,-416 820,-416 820,-416 36,-416 36,-416 30,-416 24,-410 24,-404 24,-404 24,-36 24,-36 24,-30 30,-24 36,-24"/>
<text text-anchor="middle" x="428" y="-404.8" font-family="Helvetica,sans-Serif" font-weight="bold" font-size="9.00">stdlib</text>
</g>
<g id="clust4" class="cluster">
<title>cluster_packages/util/stdlib/src</title>
<path fill="#ffffff" stroke="black" stroke-width="2" d="M125,-38C125,-38 812,-38 812,-38 818,-38 824,-44 824,-50 824,-50 824,-378 824,-378 824,-384 818,-390 812,-390 812,-390 125,-390 125,-390 119,-390 113,-384 113,-378 113,-378 113,-50 113,-50 113,-44 119,-38 125,-38"/>
<text text-anchor="middle" x="468.5" y="-378.8" font-family="Helvetica,sans-Serif" font-weight="bold" font-size="9.00">src</text>
</g>
<g id="clust5" class="cluster">
<title>cluster_packages/util/stdlib/src/array&#45;of&#45;array</title>
<path fill="#ffffff" stroke="black" stroke-width="2" d="M133,-312C133,-312 301.5,-312 301.5,-312 307.5,-312 313.5,-318 313.5,-324 313.5,-324 313.5,-352 313.5,-352 313.5,-358 307.5,-364 301.5,-364 301.5,-364 133,-364 133,-364 127,-364 121,-358 121,-352 121,-352 121,-324 121,-324 121,-318 127,-312 133,-312"/>
<text text-anchor="middle" x="217.25" y="-352.8" font-family="Helvetica,sans-Serif" font-weight="bold" font-size="9.00">array&#45;of&#45;array</text>
</g>
<g id="clust6" class="cluster">
<title>cluster_packages/util/stdlib/src/assertion</title>
<path fill="#ffffff" stroke="black" stroke-width="2" d="M339,-87C339,-87 583,-87 583,-87 589,-87 595,-93 595,-99 595,-99 595,-187 595,-187 595,-193 589,-199 583,-199 583,-199 339,-199 339,-199 333,-199 327,-193 327,-187 327,-187 327,-99 327,-99 327,-93 333,-87 339,-87"/>
<text text-anchor="middle" x="461" y="-187.8" font-family="Helvetica,sans-Serif" font-weight="bold" font-size="9.00">assertion</text>
</g>
<g id="clust7" class="cluster">
<title>cluster_packages/util/stdlib/src/console</title>
<path fill="#ffffff" stroke="black" stroke-width="2" d="M137,-222C137,-222 183,-222 183,-222 189,-222 195,-228 195,-234 195,-234 195,-292 195,-292 195,-298 189,-304 183,-304 183,-304 137,-304 137,-304 131,-304 125,-298 125,-292 125,-292 125,-234 125,-234 125,-228 131,-222 137,-222"/>
<text text-anchor="middle" x="160" y="-292.8" font-family="Helvetica,sans-Serif" font-weight="bold" font-size="9.00">console</text>
</g>
<g id="clust8" class="cluster">
<title>cluster_packages/util/stdlib/src/error</title>
<path fill="#ffffff" stroke="black" stroke-width="2" d="M615,-132C615,-132 804,-132 804,-132 810,-132 816,-138 816,-144 816,-144 816,-202 816,-202 816,-208 810,-214 804,-214 804,-214 615,-214 615,-214 609,-214 603,-208 603,-202 603,-202 603,-144 603,-144 603,-138 609,-132 615,-132"/>
<text text-anchor="middle" x="709.5" y="-202.8" font-family="Helvetica,sans-Serif" font-weight="bold" font-size="9.00">error</text>
</g>
<g id="clust9" class="cluster">
<title>cluster_packages/util/stdlib/src/string</title>
<path fill="#ffffff" stroke="black" stroke-width="2" d="M137,-102C137,-102 307,-102 307,-102 313,-102 319,-108 319,-114 319,-114 319,-202 319,-202 319,-208 313,-214 307,-214 307,-214 137,-214 137,-214 131,-214 125,-208 125,-202 125,-202 125,-114 125,-114 125,-108 131,-102 137,-102"/>
<text text-anchor="middle" x="222" y="-202.8" font-family="Helvetica,sans-Serif" font-weight="bold" font-size="9.00">string</text>
</g>
<!-- packages/util/stdlib/index.test.ts -->
<g id="node1" class="node">
<title>packages/util/stdlib/index.test.ts</title>
<g id="a_node1"><a xlink:href="packages/util/stdlib/index.test.ts" xlink:title="no&#45;orphans">
<path fill="#ccffcc" stroke="orange" d="M99,-257C99,-257 38,-257 38,-257 35,-257 32,-254 32,-251 32,-251 32,-245 32,-245 32,-242 35,-239 38,-239 38,-239 99,-239 99,-239 102,-239 105,-242 105,-245 105,-245 105,-251 105,-251 105,-254 102,-257 99,-257"/>
<text text-anchor="start" x="40" y="-245.8" font-family="Helvetica,sans-Serif" font-size="9.00" fill="orange">index.test.ts</text>
</a>
</g>
</g>
<!-- packages/util/stdlib/index.ts -->
<g id="node2" class="node">
<title>packages/util/stdlib/index.ts</title>
<g id="a_node2"><a xlink:href="packages/util/stdlib/index.ts" xlink:title="index.ts">
<path fill="#ddfeff" stroke="black" d="M89.5,-94C89.5,-94 47.5,-94 47.5,-94 44.5,-94 41.5,-91 41.5,-88 41.5,-88 41.5,-82 41.5,-82 41.5,-79 44.5,-76 47.5,-76 47.5,-76 89.5,-76 89.5,-76 92.5,-76 95.5,-79 95.5,-82 95.5,-82 95.5,-88 95.5,-88 95.5,-91 92.5,-94 89.5,-94"/>
<text text-anchor="start" x="50" y="-82.8" font-family="Helvetica,sans-Serif" font-size="9.00">index.ts</text>
</a>
</g>
</g>
<!-- packages/util/stdlib/src/assertion/index.ts -->
<g id="node3" class="node">
<title>packages/util/stdlib/src/assertion/index.ts</title>
<g id="a_node3"><a xlink:href="packages/util/stdlib/src/assertion/index.ts" xlink:title="index.ts">
<path fill="#ddfeff" stroke="black" d="M383,-128C383,-128 341,-128 341,-128 338,-128 335,-125 335,-122 335,-122 335,-116 335,-116 335,-113 338,-110 341,-110 341,-110 383,-110 383,-110 386,-110 389,-113 389,-116 389,-116 389,-122 389,-122 389,-125 386,-128 383,-128"/>
<text text-anchor="start" x="343.5" y="-116.8" font-family="Helvetica,sans-Serif" font-size="9.00">index.ts</text>
</a>
</g>
</g>
<!-- packages/util/stdlib/index.ts&#45;&gt;packages/util/stdlib/src/assertion/index.ts -->
<g id="edge1" class="edge">
<title>packages/util/stdlib/index.ts&#45;&gt;packages/util/stdlib/src/assertion/index.ts</title>
<path fill="none" stroke="#000000" stroke-width="2" stroke-opacity="0.200000" d="M77.89,-75.94C90.53,-62.28 113,-38 113,-38 113,-38 199,-38 199,-38 199,-38 292.22,-84.61 337.23,-107.12"/>
<polygon fill="#000000" fill-opacity="0.200000" stroke="#000000" stroke-width="2" stroke-opacity="0.200000" points="341.79,-111.74 337.36,-107.18 343.67,-107.99 341.79,-111.74"/>
</g>
<!-- packages/util/stdlib/src/deep&#45;equal.ts -->
<g id="node4" class="node">
<title>packages/util/stdlib/src/deep&#45;equal.ts</title>
<g id="a_node4"><a xlink:href="packages/util/stdlib/src/deep-equal.ts" xlink:title="deep&#45;equal.ts">
<path fill="#ddfeff" stroke="black" d="M193,-94C193,-94 127,-94 127,-94 124,-94 121,-91 121,-88 121,-88 121,-82 121,-82 121,-79 124,-76 127,-76 127,-76 193,-76 193,-76 196,-76 199,-79 199,-82 199,-82 199,-88 199,-88 199,-91 196,-94 193,-94"/>
<text text-anchor="start" x="129" y="-82.8" font-family="Helvetica,sans-Serif" font-size="9.00">deep&#45;equal.ts</text>
</a>
</g>
</g>
<!-- packages/util/stdlib/index.ts&#45;&gt;packages/util/stdlib/src/deep&#45;equal.ts -->
<g id="edge2" class="edge">
<title>packages/util/stdlib/index.ts&#45;&gt;packages/util/stdlib/src/deep&#45;equal.ts</title>
<path fill="none" stroke="#000000" stroke-width="2" stroke-opacity="0.200000" d="M95.87,-85C101.75,-85 108.14,-85 114.52,-85"/>
<polygon fill="#000000" fill-opacity="0.200000" stroke="#000000" stroke-width="2" stroke-opacity="0.200000" points="120.88,-87.1 114.88,-85 120.88,-82.9 120.88,-87.1"/>
</g>
<!-- packages/util/stdlib/src/error/index.ts -->
<g id="node5" class="node">
<title>packages/util/stdlib/src/error/index.ts</title>
<g id="a_node5"><a xlink:href="packages/util/stdlib/src/error/index.ts" xlink:title="index.ts">
<path fill="#ddfeff" stroke="black" d="M659,-173C659,-173 617,-173 617,-173 614,-173 611,-170 611,-167 611,-167 611,-161 611,-161 611,-158 614,-155 617,-155 617,-155 659,-155 659,-155 662,-155 665,-158 665,-161 665,-161 665,-167 665,-167 665,-170 662,-173 659,-173"/>
<text text-anchor="start" x="619.5" y="-161.8" font-family="Helvetica,sans-Serif" font-size="9.00">index.ts</text>
</a>
</g>
</g>
<!-- packages/util/stdlib/index.ts&#45;&gt;packages/util/stdlib/src/error/index.ts -->
<g id="edge3" class="edge">
<title>packages/util/stdlib/index.ts&#45;&gt;packages/util/stdlib/src/error/index.ts</title>
<path fill="none" stroke="#000000" stroke-width="2" stroke-opacity="0.200000" d="M71.72,-94.26C79.49,-126.66 105,-233 105,-233 105,-233 113,-367 113,-367 113,-367 260.5,-373 260.5,-373 260.5,-373 260.5,-373 443,-373 443,-373 581.21,-224.1 624.32,-177.66"/>
<polygon fill="#000000" fill-opacity="0.200000" stroke="#000000" stroke-width="2" stroke-opacity="0.200000" points="629.95,-174.68 624.33,-177.65 626.87,-171.82 629.95,-174.68"/>
</g>
<!-- packages/util/stdlib/src/string/index.ts -->
<g id="node6" class="node">
<title>packages/util/stdlib/src/string/index.ts</title>
<g id="a_node6"><a xlink:href="packages/util/stdlib/src/string/index.ts" xlink:title="index.ts">
<path fill="#ddfeff" stroke="black" d="M181,-143C181,-143 139,-143 139,-143 136,-143 133,-140 133,-137 133,-137 133,-131 133,-131 133,-128 136,-125 139,-125 139,-125 181,-125 181,-125 184,-125 187,-128 187,-131 187,-131 187,-137 187,-137 187,-140 184,-143 181,-143"/>
<text text-anchor="start" x="141.5" y="-131.8" font-family="Helvetica,sans-Serif" font-size="9.00">index.ts</text>
</a>
</g>
</g>
<!-- packages/util/stdlib/index.ts&#45;&gt;packages/util/stdlib/src/string/index.ts -->
<g id="edge4" class="edge">
<title>packages/util/stdlib/index.ts&#45;&gt;packages/util/stdlib/src/string/index.ts</title>
<path fill="none" stroke="#000000" stroke-width="2" stroke-opacity="0.200000" d="M80.48,-94.08C93.36,-104.75 113,-121 113,-121 113,-121 119,-122.69 126.66,-124.86"/>
<polygon fill="#000000" fill-opacity="0.200000" stroke="#000000" stroke-width="2" stroke-opacity="0.200000" points="132.2,-128.61 127,-124.96 133.35,-124.57 132.2,-128.61"/>
</g>
<!-- packages/util/stdlib/src/unique.ts -->
<g id="node7" class="node">
<title>packages/util/stdlib/src/unique.ts</title>
<g id="a_node7"><a xlink:href="packages/util/stdlib/src/unique.ts" xlink:title="unique.ts">
<path fill="#ddfeff" stroke="black" d="M183.5,-64C183.5,-64 136.5,-64 136.5,-64 133.5,-64 130.5,-61 130.5,-58 130.5,-58 130.5,-52 130.5,-52 130.5,-49 133.5,-46 136.5,-46 136.5,-46 183.5,-46 183.5,-46 186.5,-46 189.5,-49 189.5,-52 189.5,-52 189.5,-58 189.5,-58 189.5,-61 186.5,-64 183.5,-64"/>
<text text-anchor="start" x="138.5" y="-52.8" font-family="Helvetica,sans-Serif" font-size="9.00">unique.ts</text>
</a>
</g>
</g>
<!-- packages/util/stdlib/index.ts&#45;&gt;packages/util/stdlib/src/unique.ts -->
<g id="edge5" class="edge">
<title>packages/util/stdlib/index.ts&#45;&gt;packages/util/stdlib/src/unique.ts</title>
<path fill="none" stroke="#000000" stroke-width="2" stroke-opacity="0.200000" d="M95.81,-75.93C104.97,-72.77 113,-70 113,-70 113,-70 118.18,-68.31 125.07,-66.06"/>
<polygon fill="#000000" fill-opacity="0.200000" stroke="#000000" stroke-width="2" stroke-opacity="0.200000" points="131.83,-66.07 125.48,-65.93 130.53,-62.08 131.83,-66.07"/>
</g>
<!-- packages/util/stdlib/src/assertion/assertion.ts -->
<g id="node10" class="node">
<title>packages/util/stdlib/src/assertion/assertion.ts</title>
<g id="a_node10"><a xlink:href="packages/util/stdlib/src/assertion/assertion.ts" xlink:title="assertion.ts">
<path fill="#ddfeff" stroke="black" d="M470,-113C470,-113 414,-113 414,-113 411,-113 408,-110 408,-107 408,-107 408,-101 408,-101 408,-98 411,-95 414,-95 414,-95 470,-95 470,-95 473,-95 476,-98 476,-101 476,-101 476,-107 476,-107 476,-110 473,-113 470,-113"/>
<text text-anchor="start" x="416" y="-101.8" font-family="Helvetica,sans-Serif" font-size="9.00">assertion.ts</text>
</a>
</g>
</g>
<!-- packages/util/stdlib/src/assertion/index.ts&#45;&gt;packages/util/stdlib/src/assertion/assertion.ts -->
<g id="edge7" class="edge">
<title>packages/util/stdlib/src/assertion/index.ts&#45;&gt;packages/util/stdlib/src/assertion/assertion.ts</title>
<path fill="none" stroke="#000000" stroke-width="2" stroke-opacity="0.200000" d="M389.41,-113.92C393.39,-113.16 397.56,-112.35 401.74,-111.55"/>
<polygon fill="#000000" fill-opacity="0.200000" stroke="#000000" stroke-width="2" stroke-opacity="0.200000" points="408.24,-112.44 401.95,-111.51 407.45,-108.31 408.24,-112.44"/>
</g>
<!-- packages/util/stdlib/src/assertion/not&#45;nan.ts -->
<g id="node11" class="node">
<title>packages/util/stdlib/src/assertion/not&#45;nan.ts</title>
<g id="a_node11"><a xlink:href="packages/util/stdlib/src/assertion/not-nan.ts" xlink:title="not&#45;nan.ts">
<path fill="#ddfeff" stroke="black" d="M467.5,-173C467.5,-173 416.5,-173 416.5,-173 413.5,-173 410.5,-170 410.5,-167 410.5,-167 410.5,-161 410.5,-161 410.5,-158 413.5,-155 416.5,-155 416.5,-155 467.5,-155 467.5,-155 470.5,-155 473.5,-158 473.5,-161 473.5,-161 473.5,-167 473.5,-167 473.5,-170 470.5,-173 467.5,-173"/>
<text text-anchor="start" x="418.5" y="-161.8" font-family="Helvetica,sans-Serif" font-size="9.00">not&#45;nan.ts</text>
</a>
</g>
</g>
<!-- packages/util/stdlib/src/assertion/index.ts&#45;&gt;packages/util/stdlib/src/assertion/not&#45;nan.ts -->
<g id="edge8" class="edge">
<title>packages/util/stdlib/src/assertion/index.ts&#45;&gt;packages/util/stdlib/src/assertion/not&#45;nan.ts</title>
<path fill="none" stroke="#000000" stroke-width="2" stroke-opacity="0.200000" d="M381.06,-128.03C385.49,-130.25 389,-132 389,-132 389,-132 402,-149 402,-149 402,-149 406.05,-150.56 411.54,-152.67"/>
<polygon fill="#000000" fill-opacity="0.200000" stroke="#000000" stroke-width="2" stroke-opacity="0.200000" points="416.66,-156.89 411.81,-152.77 418.17,-152.97 416.66,-156.89"/>
</g>
<!-- packages/util/stdlib/src/assertion/not&#45;null&#45;like.ts -->
<g id="node12" class="node">
<title>packages/util/stdlib/src/assertion/not&#45;null&#45;like.ts</title>
<g id="a_node12"><a xlink:href="packages/util/stdlib/src/assertion/not-null-like.ts" xlink:title="not&#45;null&#45;like.ts">
<path fill="#ddfeff" stroke="black" d="M476,-143C476,-143 408,-143 408,-143 405,-143 402,-140 402,-137 402,-137 402,-131 402,-131 402,-128 405,-125 408,-125 408,-125 476,-125 476,-125 479,-125 482,-128 482,-131 482,-131 482,-137 482,-137 482,-140 479,-143 476,-143"/>
<text text-anchor="start" x="410" y="-131.8" font-family="Helvetica,sans-Serif" font-size="9.00">not&#45;null&#45;like.ts</text>
</a>
</g>
</g>
<!-- packages/util/stdlib/src/assertion/index.ts&#45;&gt;packages/util/stdlib/src/assertion/not&#45;null&#45;like.ts -->
<g id="edge9" class="edge">
<title>packages/util/stdlib/src/assertion/index.ts&#45;&gt;packages/util/stdlib/src/assertion/not&#45;null&#45;like.ts</title>
<path fill="none" stroke="#000000" stroke-width="2" stroke-opacity="0.200000" d="M389.41,-124.08C391.4,-124.46 393.43,-124.85 395.5,-125.25"/>
<polygon fill="#000000" fill-opacity="0.200000" stroke="#000000" stroke-width="2" stroke-opacity="0.200000" points="401.34,-128.51 395.84,-125.32 402.13,-124.39 401.34,-128.51"/>
</g>
<!-- packages/util/stdlib/src/error/not&#45;implemented&#45;error.ts -->
<g id="node17" class="node">
<title>packages/util/stdlib/src/error/not&#45;implemented&#45;error.ts</title>
<g id="a_node17"><a xlink:href="packages/util/stdlib/src/error/not-implemented-error.ts" xlink:title="not&#45;implemented&#45;error.ts">
<path fill="#ddfeff" stroke="black" d="M802,-158C802,-158 684,-158 684,-158 681,-158 678,-155 678,-152 678,-152 678,-146 678,-146 678,-143 681,-140 684,-140 684,-140 802,-140 802,-140 805,-140 808,-143 808,-146 808,-146 808,-152 808,-152 808,-155 805,-158 802,-158"/>
<text text-anchor="start" x="686" y="-146.8" font-family="Helvetica,sans-Serif" font-size="9.00">not&#45;implemented&#45;error.ts</text>
</a>
</g>
</g>
<!-- packages/util/stdlib/src/error/index.ts&#45;&gt;packages/util/stdlib/src/error/not&#45;implemented&#45;error.ts -->
<g id="edge15" class="edge">
<title>packages/util/stdlib/src/error/index.ts&#45;&gt;packages/util/stdlib/src/error/not&#45;implemented&#45;error.ts</title>
<path fill="none" stroke="#000000" stroke-width="2" stroke-opacity="0.200000" d="M665.26,-160.18C668.02,-159.77 670.91,-159.35 673.88,-158.92"/>
<polygon fill="#000000" fill-opacity="0.200000" stroke="#000000" stroke-width="2" stroke-opacity="0.200000" points="680.38,-160.1 674.14,-158.88 679.78,-155.94 680.38,-160.1"/>
</g>
<!-- packages/util/stdlib/src/error/throw&#45;function.ts -->
<g id="node18" class="node">
<title>packages/util/stdlib/src/error/throw&#45;function.ts</title>
<g id="a_node18"><a xlink:href="packages/util/stdlib/src/error/throw-function.ts" xlink:title="throw&#45;function.ts">
<path fill="#ddfeff" stroke="black" d="M784.5,-188C784.5,-188 701.5,-188 701.5,-188 698.5,-188 695.5,-185 695.5,-182 695.5,-182 695.5,-176 695.5,-176 695.5,-173 698.5,-170 701.5,-170 701.5,-170 784.5,-170 784.5,-170 787.5,-170 790.5,-173 790.5,-176 790.5,-176 790.5,-182 790.5,-182 790.5,-185 787.5,-188 784.5,-188"/>
<text text-anchor="start" x="703.5" y="-176.8" font-family="Helvetica,sans-Serif" font-size="9.00">throw&#45;function.ts</text>
</a>
</g>
</g>
<!-- packages/util/stdlib/src/error/index.ts&#45;&gt;packages/util/stdlib/src/error/throw&#45;function.ts -->
<g id="edge16" class="edge">
<title>packages/util/stdlib/src/error/index.ts&#45;&gt;packages/util/stdlib/src/error/throw&#45;function.ts</title>
<path fill="none" stroke="#000000" stroke-width="2" stroke-opacity="0.200000" d="M665.26,-167.82C672.57,-168.89 680.79,-170.09 689.06,-171.29"/>
<polygon fill="#000000" fill-opacity="0.200000" stroke="#000000" stroke-width="2" stroke-opacity="0.200000" points="695.07,-174.29 689.43,-171.34 695.67,-170.13 695.07,-174.29"/>
</g>
<!-- packages/util/stdlib/src/string/cast&#45;to&#45;number.ts -->
<g id="node19" class="node">
<title>packages/util/stdlib/src/string/cast&#45;to&#45;number.ts</title>
<g id="a_node19"><a xlink:href="packages/util/stdlib/src/string/cast-to-number.ts" xlink:title="cast&#45;to&#45;number.ts">
<path fill="#ddfeff" stroke="black" d="M304.5,-128C304.5,-128 218.5,-128 218.5,-128 215.5,-128 212.5,-125 212.5,-122 212.5,-122 212.5,-116 212.5,-116 212.5,-113 215.5,-110 218.5,-110 218.5,-110 304.5,-110 304.5,-110 307.5,-110 310.5,-113 310.5,-116 310.5,-116 310.5,-122 310.5,-122 310.5,-125 307.5,-128 304.5,-128"/>
<text text-anchor="start" x="220.5" y="-116.8" font-family="Helvetica,sans-Serif" font-size="9.00">cast&#45;to&#45;number.ts</text>
</a>
</g>
</g>
<!-- packages/util/stdlib/src/string/index.ts&#45;&gt;packages/util/stdlib/src/string/cast&#45;to&#45;number.ts -->
<g id="edge18" class="edge">
<title>packages/util/stdlib/src/string/index.ts&#45;&gt;packages/util/stdlib/src/string/cast&#45;to&#45;number.ts</title>
<path fill="none" stroke="#000000" stroke-width="2" stroke-opacity="0.200000" d="M187.14,-130.06C193.05,-129.17 199.53,-128.19 206.13,-127.2"/>
<polygon fill="#000000" fill-opacity="0.200000" stroke="#000000" stroke-width="2" stroke-opacity="0.200000" points="212.52,-128.36 206.27,-127.18 211.89,-124.2 212.52,-128.36"/>
</g>
<!-- packages/util/stdlib/src/string/get&#45;capital&#45;case.ts -->
<g id="node20" class="node">
<title>packages/util/stdlib/src/string/get&#45;capital&#45;case.ts</title>
<g id="a_node20"><a xlink:href="packages/util/stdlib/src/string/get-capital-case.ts" xlink:title="get&#45;capital&#45;case.ts">
<path fill="#ddfeff" stroke="black" d="M305,-158C305,-158 218,-158 218,-158 215,-158 212,-155 212,-152 212,-152 212,-146 212,-146 212,-143 215,-140 218,-140 218,-140 305,-140 305,-140 308,-140 311,-143 311,-146 311,-146 311,-152 311,-152 311,-155 308,-158 305,-158"/>
<text text-anchor="start" x="220" y="-146.8" font-family="Helvetica,sans-Serif" font-size="9.00">get&#45;capital&#45;case.ts</text>
</a>
</g>
</g>
<!-- packages/util/stdlib/src/string/index.ts&#45;&gt;packages/util/stdlib/src/string/get&#45;capital&#45;case.ts -->
<g id="edge19" class="edge">
<title>packages/util/stdlib/src/string/index.ts&#45;&gt;packages/util/stdlib/src/string/get&#45;capital&#45;case.ts</title>
<path fill="none" stroke="#000000" stroke-width="2" stroke-opacity="0.200000" d="M187.14,-137.94C192.96,-138.82 199.34,-139.78 205.83,-140.76"/>
<polygon fill="#000000" fill-opacity="0.200000" stroke="#000000" stroke-width="2" stroke-opacity="0.200000" points="211.5,-143.74 205.88,-140.77 212.13,-139.58 211.5,-143.74"/>
</g>
<!-- packages/util/stdlib/src/string/get&#45;lower&#45;case.ts -->
<g id="node21" class="node">
<title>packages/util/stdlib/src/string/get&#45;lower&#45;case.ts</title>
<g id="a_node21"><a xlink:href="packages/util/stdlib/src/string/get-lower-case.ts" xlink:title="get&#45;lower&#45;case.ts">
<path fill="#ddfeff" stroke="black" d="M301.5,-188C301.5,-188 221.5,-188 221.5,-188 218.5,-188 215.5,-185 215.5,-182 215.5,-182 215.5,-176 215.5,-176 215.5,-173 218.5,-170 221.5,-170 221.5,-170 301.5,-170 301.5,-170 304.5,-170 307.5,-173 307.5,-176 307.5,-176 307.5,-182 307.5,-182 307.5,-185 304.5,-188 301.5,-188"/>
<text text-anchor="start" x="223.5" y="-176.8" font-family="Helvetica,sans-Serif" font-size="9.00">get&#45;lower&#45;case.ts</text>
</a>
</g>
</g>
<!-- packages/util/stdlib/src/string/index.ts&#45;&gt;packages/util/stdlib/src/string/get&#45;lower&#45;case.ts -->
<g id="edge20" class="edge">
<title>packages/util/stdlib/src/string/index.ts&#45;&gt;packages/util/stdlib/src/string/get&#45;lower&#45;case.ts</title>
<path fill="none" stroke="#000000" stroke-width="2" stroke-opacity="0.200000" d="M176.3,-143C191.32,-151.84 212,-164 212,-164 212,-164 217.69,-165.76 225.16,-168.07"/>
<polygon fill="#000000" fill-opacity="0.200000" stroke="#000000" stroke-width="2" stroke-opacity="0.200000" points="230.55,-171.93 225.44,-168.16 231.79,-167.92 230.55,-171.93"/>
</g>
<!-- packages/util/stdlib/src/array&#45;of&#45;array/array&#45;of&#45;array.ts -->
<g id="node8" class="node">
<title>packages/util/stdlib/src/array&#45;of&#45;array/array&#45;of&#45;array.ts</title>
<g id="a_node8"><a xlink:href="packages/util/stdlib/src/array-of-array/array-of-array.ts" xlink:title="array&#45;of&#45;array.ts">
<path fill="#ddfeff" stroke="black" d="M299.5,-338C299.5,-338 223.5,-338 223.5,-338 220.5,-338 217.5,-335 217.5,-332 217.5,-332 217.5,-326 217.5,-326 217.5,-323 220.5,-320 223.5,-320 223.5,-320 299.5,-320 299.5,-320 302.5,-320 305.5,-323 305.5,-326 305.5,-326 305.5,-332 305.5,-332 305.5,-335 302.5,-338 299.5,-338"/>
<text text-anchor="start" x="225.5" y="-326.8" font-family="Helvetica,sans-Serif" font-size="9.00">array&#45;of&#45;array.ts</text>
</a>
</g>
</g>
<!-- packages/util/stdlib/src/array&#45;of&#45;array/to&#45;array.ts -->
<g id="node9" class="node">
<title>packages/util/stdlib/src/array&#45;of&#45;array/to&#45;array.ts</title>
<g id="a_node9"><a xlink:href="packages/util/stdlib/src/array-of-array/to-array.ts" xlink:title="to&#45;array.ts">
<path fill="#ddfeff" stroke="black" d="M185,-338C185,-338 135,-338 135,-338 132,-338 129,-335 129,-332 129,-332 129,-326 129,-326 129,-323 132,-320 135,-320 135,-320 185,-320 185,-320 188,-320 191,-323 191,-326 191,-326 191,-332 191,-332 191,-335 188,-338 185,-338"/>
<text text-anchor="start" x="137" y="-326.8" font-family="Helvetica,sans-Serif" font-size="9.00">to&#45;array.ts</text>
</a>
</g>
</g>
<!-- packages/util/stdlib/src/array&#45;of&#45;array/to&#45;array.ts&#45;&gt;packages/util/stdlib/src/array&#45;of&#45;array/array&#45;of&#45;array.ts -->
<g id="edge6" class="edge">
<title>packages/util/stdlib/src/array&#45;of&#45;array/to&#45;array.ts&#45;&gt;packages/util/stdlib/src/array&#45;of&#45;array/array&#45;of&#45;array.ts</title>
<path fill="none" stroke="#000000" stroke-width="2" stroke-opacity="0.200000" d="M191.12,-329C197.43,-329 204.24,-329 211.04,-329"/>
<polygon fill="#000000" fill-opacity="0.200000" stroke="#000000" stroke-width="2" stroke-opacity="0.200000" points="211.26,-331.1 217.26,-329 211.26,-326.9 211.26,-331.1"/>
</g>
<!-- packages/util/stdlib/src/assertion/not&#45;nan.ts&#45;&gt;packages/util/stdlib/src/error/index.ts -->
<g id="edge10" class="edge">
<title>packages/util/stdlib/src/assertion/not&#45;nan.ts&#45;&gt;packages/util/stdlib/src/error/index.ts</title>
<path fill="none" stroke="#000000" stroke-width="2" stroke-opacity="0.200000" d="M473.55,-166.35C484.87,-167.22 495,-168 495,-168 495,-168 595,-168 595,-168 595,-168 599.05,-167.61 604.64,-167.08"/>
<polygon fill="#000000" fill-opacity="0.200000" stroke="#000000" stroke-width="2" stroke-opacity="0.200000" points="604.87,-169.17 610.64,-166.51 604.47,-164.99 604.87,-169.17"/>
</g>
<!-- packages/util/stdlib/src/assertion/not&#45;null.ts -->
<g id="node13" class="node">
<title>packages/util/stdlib/src/assertion/not&#45;null.ts</title>
<g id="a_node13"><a xlink:href="packages/util/stdlib/src/assertion/not-null.ts" xlink:title="not&#45;null.ts">
<path fill="#ddfeff" stroke="black" d="M566,-132C566,-132 516,-132 516,-132 513,-132 510,-129 510,-126 510,-126 510,-120 510,-120 510,-117 513,-114 516,-114 516,-114 566,-114 566,-114 569,-114 572,-117 572,-120 572,-120 572,-126 572,-126 572,-129 569,-132 566,-132"/>
<text text-anchor="start" x="518" y="-120.8" font-family="Helvetica,sans-Serif" font-size="9.00">not&#45;null.ts</text>
</a>
</g>
</g>
<!-- packages/util/stdlib/src/assertion/not&#45;null&#45;like.ts&#45;&gt;packages/util/stdlib/src/assertion/not&#45;null.ts -->
<g id="edge11" class="edge">
<title>packages/util/stdlib/src/assertion/not&#45;null&#45;like.ts&#45;&gt;packages/util/stdlib/src/assertion/not&#45;null.ts</title>
<path fill="none" stroke="#000000" stroke-width="2" stroke-opacity="0.200000" d="M482.17,-129.56C489.26,-128.75 496.62,-127.92 503.62,-127.13"/>
<polygon fill="#000000" fill-opacity="0.200000" stroke="#000000" stroke-width="2" stroke-opacity="0.200000" points="504.21,-129.17 509.93,-126.41 503.73,-125 504.21,-129.17"/>
</g>
<!-- packages/util/stdlib/src/assertion/not&#45;undefined.ts -->
<g id="node14" class="node">
<title>packages/util/stdlib/src/assertion/not&#45;undefined.ts</title>
<g id="a_node14"><a xlink:href="packages/util/stdlib/src/assertion/not-undefined.ts" xlink:title="not&#45;undefined.ts">
<path fill="#ddfeff" stroke="black" d="M581,-162C581,-162 501,-162 501,-162 498,-162 495,-159 495,-156 495,-156 495,-150 495,-150 495,-147 498,-144 501,-144 501,-144 581,-144 581,-144 584,-144 587,-147 587,-150 587,-150 587,-156 587,-156 587,-159 584,-162 581,-162"/>
<text text-anchor="start" x="503" y="-150.8" font-family="Helvetica,sans-Serif" font-size="9.00">not&#45;undefined.ts</text>
</a>
</g>
</g>
<!-- packages/util/stdlib/src/assertion/not&#45;null&#45;like.ts&#45;&gt;packages/util/stdlib/src/assertion/not&#45;undefined.ts -->
<g id="edge12" class="edge">
<title>packages/util/stdlib/src/assertion/not&#45;null&#45;like.ts&#45;&gt;packages/util/stdlib/src/assertion/not&#45;undefined.ts</title>
<path fill="none" stroke="#000000" stroke-width="2" stroke-opacity="0.200000" d="M482.17,-141.67C484.41,-142.11 486.67,-142.55 488.94,-143"/>
<polygon fill="#000000" fill-opacity="0.200000" stroke="#000000" stroke-width="2" stroke-opacity="0.200000" points="488.66,-145.08 494.95,-144.18 489.47,-140.96 488.66,-145.08"/>
</g>
<!-- packages/util/stdlib/src/assertion/not&#45;null.ts&#45;&gt;packages/util/stdlib/src/error/index.ts -->
<g id="edge13" class="edge">
<title>packages/util/stdlib/src/assertion/not&#45;null.ts&#45;&gt;packages/util/stdlib/src/error/index.ts</title>
<path fill="none" stroke="#000000" stroke-width="2" stroke-opacity="0.200000" d="M572.22,-131.55C584.12,-134.92 595,-138 595,-138 595,-138 606.22,-144.95 617.07,-151.66"/>
<polygon fill="#000000" fill-opacity="0.200000" stroke="#000000" stroke-width="2" stroke-opacity="0.200000" points="616.1,-153.53 622.31,-154.91 618.31,-149.96 616.1,-153.53"/>
</g>
<!-- packages/util/stdlib/src/assertion/not&#45;undefined.ts&#45;&gt;packages/util/stdlib/src/error/index.ts -->
<g id="edge14" class="edge">
<title>packages/util/stdlib/src/assertion/not&#45;undefined.ts&#45;&gt;packages/util/stdlib/src/error/index.ts</title>
<path fill="none" stroke="#000000" stroke-width="2" stroke-opacity="0.200000" d="M587.27,-158.24C593.24,-158.93 599.25,-159.63 604.94,-160.29"/>
<polygon fill="#000000" fill-opacity="0.200000" stroke="#000000" stroke-width="2" stroke-opacity="0.200000" points="604.75,-162.38 610.95,-160.98 605.24,-158.21 604.75,-162.38"/>
</g>
<!-- packages/util/stdlib/src/console/green.ts -->
<g id="node15" class="node">
<title>packages/util/stdlib/src/console/green.ts</title>
<g id="a_node15"><a xlink:href="packages/util/stdlib/src/console/green.ts" xlink:title="no&#45;orphans">
<path fill="#ccffcc" stroke="orange" d="M181,-278C181,-278 139,-278 139,-278 136,-278 133,-275 133,-272 133,-272 133,-266 133,-266 133,-263 136,-260 139,-260 139,-260 181,-260 181,-260 184,-260 187,-263 187,-266 187,-266 187,-272 187,-272 187,-275 184,-278 181,-278"/>
<text text-anchor="start" x="141" y="-266.8" font-family="Helvetica,sans-Serif" font-size="9.00" fill="orange">green.ts</text>
</a>
</g>
</g>
<!-- packages/util/stdlib/src/console/reset.ts -->
<g id="node16" class="node">
<title>packages/util/stdlib/src/console/reset.ts</title>
<g id="a_node16"><a xlink:href="packages/util/stdlib/src/console/reset.ts" xlink:title="no&#45;orphans">
<path fill="#ccffcc" stroke="orange" d="M181,-248C181,-248 139,-248 139,-248 136,-248 133,-245 133,-242 133,-242 133,-236 133,-236 133,-233 136,-230 139,-230 139,-230 181,-230 181,-230 184,-230 187,-233 187,-236 187,-236 187,-242 187,-242 187,-245 184,-248 181,-248"/>
<text text-anchor="start" x="143" y="-236.8" font-family="Helvetica,sans-Serif" font-size="9.00" fill="orange">reset.ts</text>
</a>
</g>
</g>
<!-- packages/util/stdlib/src/string/cast&#45;to&#45;number.ts&#45;&gt;packages/util/stdlib/src/assertion/index.ts -->
<g id="edge17" class="edge">
<title>packages/util/stdlib/src/string/cast&#45;to&#45;number.ts&#45;&gt;packages/util/stdlib/src/assertion/index.ts</title>
<path fill="none" stroke="#000000" stroke-width="2" stroke-opacity="0.200000" d="M310.6,-119C316.76,-119 322.96,-119 328.79,-119"/>
<polygon fill="#000000" fill-opacity="0.200000" stroke="#000000" stroke-width="2" stroke-opacity="0.200000" points="328.95,-121.1 334.95,-119 328.95,-116.9 328.95,-121.1"/>
</g>
</g>
</svg>
