<?xml version="1.0" encoding="UTF-8" standalone="no"?>
<!DOCTYPE svg PUBLIC "-//W3C//DTD SVG 1.1//EN"
 "http://www.w3.org/Graphics/SVG/1.1/DTD/svg11.dtd">
<!-- Generated by graphviz version 2.43.0 (0)
 -->
<!-- Title: dependency&#45;cruiser output Pages: 1 -->
<svg width="654pt" height="608pt"
 viewBox="0.00 0.00 654.00 608.00" xmlns="http://www.w3.org/2000/svg" xmlns:xlink="http://www.w3.org/1999/xlink">
<g id="graph0" class="graph" transform="scale(1 1) rotate(0) translate(4 604)">
<title>dependency&#45;cruiser output</title>
<polygon fill="white" stroke="transparent" points="-4,4 -4,-604 650,-604 650,4 -4,4"/>
<g id="clust1" class="cluster">
<title>cluster_packages</title>
<path fill="#ffffff" stroke="black" stroke-width="2" d="M20,-8C20,-8 626,-8 626,-8 632,-8 638,-14 638,-20 638,-20 638,-580 638,-580 638,-586 632,-592 626,-592 626,-592 20,-592 20,-592 14,-592 8,-586 8,-580 8,-580 8,-20 8,-20 8,-14 14,-8 20,-8"/>
<text text-anchor="middle" x="323" y="-580.8" font-family="Helvetica,sans-Serif" font-weight="bold" font-size="9.00">packages</text>
</g>
<g id="clust2" class="cluster">
<title>cluster_packages/util</title>
<path fill="#ffffff" stroke="black" stroke-width="2" d="M28,-16C28,-16 618,-16 618,-16 624,-16 630,-22 630,-28 630,-28 630,-554 630,-554 630,-560 624,-566 618,-566 618,-566 28,-566 28,-566 22,-566 16,-560 16,-554 16,-554 16,-28 16,-28 16,-22 22,-16 28,-16"/>
<text text-anchor="middle" x="323" y="-554.8" font-family="Helvetica,sans-Serif" font-weight="bold" font-size="9.00">util</text>
</g>
<g id="clust3" class="cluster">
<title>cluster_packages/util/stdlib</title>
<path fill="#ffffff" stroke="black" stroke-width="2" d="M36,-24C36,-24 610,-24 610,-24 616,-24 622,-30 622,-36 622,-36 622,-528 622,-528 622,-534 616,-540 610,-540 610,-540 36,-540 36,-540 30,-540 24,-534 24,-528 24,-528 24,-36 24,-36 24,-30 30,-24 36,-24"/>
<text text-anchor="middle" x="323" y="-528.8" font-family="Helvetica,sans-Serif" font-weight="bold" font-size="9.00">stdlib</text>
</g>
<g id="clust4" class="cluster">
<title>cluster_packages/util/stdlib/src</title>
<path fill="#ffffff" stroke="black" stroke-width="2" d="M125,-38C125,-38 602,-38 602,-38 608,-38 614,-44 614,-50 614,-50 614,-498 614,-498 614,-504 608,-510 602,-510 602,-510 125,-510 125,-510 119,-510 113,-504 113,-498 113,-498 113,-50 113,-50 113,-44 119,-38 125,-38"/>
<text text-anchor="middle" x="363.5" y="-498.8" font-family="Helvetica,sans-Serif" font-weight="bold" font-size="9.00">src</text>
</g>
<g id="clust5" class="cluster">
<title>cluster_packages/util/stdlib/src/array&#45;of&#45;array</title>
<path fill="#ffffff" stroke="black" stroke-width="2" d="M151.5,-312C151.5,-312 332,-312 332,-312 338,-312 344,-318 344,-324 344,-324 344,-352 344,-352 344,-358 338,-364 332,-364 332,-364 151.5,-364 151.5,-364 145.5,-364 139.5,-358 139.5,-352 139.5,-352 139.5,-324 139.5,-324 139.5,-318 145.5,-312 151.5,-312"/>
<text text-anchor="middle" x="241.75" y="-352.8" font-family="Helvetica,sans-Serif" font-weight="bold" font-size="9.00">array&#45;of&#45;array</text>
</g>
<g id="clust6" class="cluster">
<title>cluster_packages/util/stdlib/src/assertion</title>
<path fill="#ffffff" stroke="black" stroke-width="2" d="M256,-372C256,-372 440,-372 440,-372 446,-372 452,-378 452,-384 452,-384 452,-472 452,-472 452,-478 446,-484 440,-484 440,-484 256,-484 256,-484 250,-484 244,-478 244,-472 244,-472 244,-384 244,-384 244,-378 250,-372 256,-372"/>
<text text-anchor="middle" x="348" y="-472.8" font-family="Helvetica,sans-Serif" font-weight="bold" font-size="9.00">assertion</text>
</g>
<g id="clust7" class="cluster">
<title>cluster_packages/util/stdlib/src/console</title>
<path fill="#ffffff" stroke="black" stroke-width="2" d="M155.5,-222C155.5,-222 201.5,-222 201.5,-222 207.5,-222 213.5,-228 213.5,-234 213.5,-234 213.5,-292 213.5,-292 213.5,-298 207.5,-304 201.5,-304 201.5,-304 155.5,-304 155.5,-304 149.5,-304 143.5,-298 143.5,-292 143.5,-292 143.5,-234 143.5,-234 143.5,-228 149.5,-222 155.5,-222"/>
<text text-anchor="middle" x="178.5" y="-292.8" font-family="Helvetica,sans-Serif" font-weight="bold" font-size="9.00">console</text>
</g>
<g id="clust8" class="cluster">
<title>cluster_packages/util/stdlib/src/error</title>
<path fill="#ffffff" stroke="black" stroke-width="2" d="M472,-402C472,-402 594,-402 594,-402 600,-402 606,-408 606,-414 606,-414 606,-472 606,-472 606,-478 600,-484 594,-484 594,-484 472,-484 472,-484 466,-484 460,-478 460,-472 460,-472 460,-414 460,-414 460,-408 466,-402 472,-402"/>
<text text-anchor="middle" x="533" y="-472.8" font-family="Helvetica,sans-Serif" font-weight="bold" font-size="9.00">error</text>
</g>
<g id="clust9" class="cluster">
<title>cluster_packages/util/stdlib/src/string</title>
<path fill="#ffffff" stroke="black" stroke-width="2" d="M133,-102C133,-102 224,-102 224,-102 230,-102 236,-108 236,-114 236,-114 236,-202 236,-202 236,-208 230,-214 224,-214 224,-214 133,-214 133,-214 127,-214 121,-208 121,-202 121,-202 121,-114 121,-114 121,-108 127,-102 133,-102"/>
<text text-anchor="middle" x="178.5" y="-202.8" font-family="Helvetica,sans-Serif" font-weight="bold" font-size="9.00">string</text>
</g>
<!-- packages/util/stdlib/index.test.ts -->
<g id="node1" class="node">
<title>packages/util/stdlib/index.test.ts</title>
<g id="a_node1"><a xlink:href="packages/util/stdlib/index.test.ts" xlink:title="no&#45;orphans">
<path fill="#ccffcc" stroke="orange" d="M99,-441C99,-441 38,-441 38,-441 35,-441 32,-438 32,-435 32,-435 32,-429 32,-429 32,-426 35,-423 38,-423 38,-423 99,-423 99,-423 102,-423 105,-426 105,-429 105,-429 105,-435 105,-435 105,-438 102,-441 99,-441"/>
<text text-anchor="start" x="40" y="-429.8" font-family="Helvetica,sans-Serif" font-size="9.00" fill="orange">index.test.ts</text>
</a>
</g>
</g>
<!-- packages/util/stdlib/index.ts -->
<g id="node2" class="node">
<title>packages/util/stdlib/index.ts</title>
<g id="a_node2"><a xlink:href="packages/util/stdlib/index.ts" xlink:title="index.ts">
<path fill="#ddfeff" stroke="black" d="M89.5,-308C89.5,-308 47.5,-308 47.5,-308 44.5,-308 41.5,-305 41.5,-302 41.5,-302 41.5,-296 41.5,-296 41.5,-293 44.5,-290 47.5,-290 47.5,-290 89.5,-290 89.5,-290 92.5,-290 95.5,-293 95.5,-296 95.5,-296 95.5,-302 95.5,-302 95.5,-305 92.5,-308 89.5,-308"/>
<text text-anchor="start" x="50" y="-296.8" font-family="Helvetica,sans-Serif" font-size="9.00">index.ts</text>
</a>
</g>
</g>
<!-- packages/util/stdlib/src/array&#45;of&#45;array/array&#45;of&#45;array.ts -->
<g id="node3" class="node">
<title>packages/util/stdlib/src/array&#45;of&#45;array/array&#45;of&#45;array.ts</title>
<g id="a_node3"><a xlink:href="packages/util/stdlib/src/array-of-array/array-of-array.ts" xlink:title="array&#45;of&#45;array.ts">
<path fill="#ddfeff" stroke="black" d="M330,-338C330,-338 254,-338 254,-338 251,-338 248,-335 248,-332 248,-332 248,-326 248,-326 248,-323 251,-320 254,-320 254,-320 330,-320 330,-320 333,-320 336,-323 336,-326 336,-326 336,-332 336,-332 336,-335 333,-338 330,-338"/>
<text text-anchor="start" x="256" y="-326.8" font-family="Helvetica,sans-Serif" font-size="9.00">array&#45;of&#45;array.ts</text>
</a>
</g>
</g>
<!-- packages/util/stdlib/index.ts&#45;&gt;packages/util/stdlib/src/array&#45;of&#45;array/array&#45;of&#45;array.ts -->
<g id="edge1" class="edge">
<title>packages/util/stdlib/index.ts&#45;&gt;packages/util/stdlib/src/array&#45;of&#45;array/array&#45;of&#45;array.ts</title>
<path fill="none" stroke="#000000" stroke-width="2" stroke-opacity="0.200000" d="M95.91,-302.68C132.16,-307.55 196.73,-316.21 241.84,-322.27"/>
<polygon fill="#000000" fill-opacity="0.200000" stroke="#000000" stroke-width="2" stroke-opacity="0.200000" points="247.51,-325.15 241.85,-322.27 248.07,-320.98 247.51,-325.15"/>
</g>
<!-- packages/util/stdlib/src/array&#45;of&#45;array/to&#45;array.ts -->
<g id="node4" class="node">
<title>packages/util/stdlib/src/array&#45;of&#45;array/to&#45;array.ts</title>
<g id="a_node4"><a xlink:href="packages/util/stdlib/src/array-of-array/to-array.ts" xlink:title="to&#45;array.ts">
<path fill="#ddfeff" stroke="black" d="M203.5,-338C203.5,-338 153.5,-338 153.5,-338 150.5,-338 147.5,-335 147.5,-332 147.5,-332 147.5,-326 147.5,-326 147.5,-323 150.5,-320 153.5,-320 153.5,-320 203.5,-320 203.5,-320 206.5,-320 209.5,-323 209.5,-326 209.5,-326 209.5,-332 209.5,-332 209.5,-335 206.5,-338 203.5,-338"/>
<text text-anchor="start" x="155.5" y="-326.8" font-family="Helvetica,sans-Serif" font-size="9.00">to&#45;array.ts</text>
</a>
</g>
</g>
<!-- packages/util/stdlib/index.ts&#45;&gt;packages/util/stdlib/src/array&#45;of&#45;array/to&#45;array.ts -->
<g id="edge2" class="edge">
<title>packages/util/stdlib/index.ts&#45;&gt;packages/util/stdlib/src/array&#45;of&#45;array/to&#45;array.ts</title>
<path fill="none" stroke="#000000" stroke-width="2" stroke-opacity="0.200000" d="M95.64,-306.26C109.42,-310.09 126.53,-314.84 141.54,-319.01"/>
<polygon fill="#000000" fill-opacity="0.200000" stroke="#000000" stroke-width="2" stroke-opacity="0.200000" points="146.83,-322.66 141.61,-319.03 147.96,-318.61 146.83,-322.66"/>
</g>
<!-- packages/util/stdlib/src/assertion/assertion.ts -->
<g id="node5" class="node">
<title>packages/util/stdlib/src/assertion/assertion.ts</title>
<g id="a_node5"><a xlink:href="packages/util/stdlib/src/assertion/assertion.ts" xlink:title="assertion.ts">
<path fill="#ddfeff" stroke="black" d="M320,-458C320,-458 264,-458 264,-458 261,-458 258,-455 258,-452 258,-452 258,-446 258,-446 258,-443 261,-440 264,-440 264,-440 320,-440 320,-440 323,-440 326,-443 326,-446 326,-446 326,-452 326,-452 326,-455 323,-458 320,-458"/>
<text text-anchor="start" x="266" y="-446.8" font-family="Helvetica,sans-Serif" font-size="9.00">assertion.ts</text>
</a>
</g>
</g>
<!-- packages/util/stdlib/index.ts&#45;&gt;packages/util/stdlib/src/assertion/assertion.ts -->
<g id="edge3" class="edge">
<title>packages/util/stdlib/index.ts&#45;&gt;packages/util/stdlib/src/assertion/assertion.ts</title>
<path fill="none" stroke="#000000" stroke-width="2" stroke-opacity="0.200000" d="M82.14,-308.16C120.58,-333.95 229.77,-407.24 273.53,-436.6"/>
<polygon fill="#000000" fill-opacity="0.200000" stroke="#000000" stroke-width="2" stroke-opacity="0.200000" points="277.36,-441.71 273.55,-436.62 279.7,-438.22 277.36,-441.71"/>
</g>
<!-- packages/util/stdlib/src/assertion/not&#45;nan.ts -->
<g id="node6" class="node">
<title>packages/util/stdlib/src/assertion/not&#45;nan.ts</title>
<g id="a_node6"><a xlink:href="packages/util/stdlib/src/assertion/not-nan.ts" xlink:title="not&#45;nan.ts">
<path fill="#ddfeff" stroke="black" d="M317.5,-398C317.5,-398 266.5,-398 266.5,-398 263.5,-398 260.5,-395 260.5,-392 260.5,-392 260.5,-386 260.5,-386 260.5,-383 263.5,-380 266.5,-380 266.5,-380 317.5,-380 317.5,-380 320.5,-380 323.5,-383 323.5,-386 323.5,-386 323.5,-392 323.5,-392 323.5,-395 320.5,-398 317.5,-398"/>
<text text-anchor="start" x="268.5" y="-386.8" font-family="Helvetica,sans-Serif" font-size="9.00">not&#45;nan.ts</text>
</a>
</g>
</g>
<!-- packages/util/stdlib/index.ts&#45;&gt;packages/util/stdlib/src/assertion/not&#45;nan.ts -->
<g id="edge4" class="edge">
<title>packages/util/stdlib/index.ts&#45;&gt;packages/util/stdlib/src/assertion/not&#45;nan.ts</title>
<path fill="none" stroke="#000000" stroke-width="2" stroke-opacity="0.200000" d="M91.16,-308.12C132.26,-324.68 219,-359.6 263.83,-377.66"/>
<polygon fill="#000000" fill-opacity="0.200000" stroke="#000000" stroke-width="2" stroke-opacity="0.200000" points="268.83,-381.93 264.05,-377.74 270.4,-378.04 268.83,-381.93"/>
</g>
<!-- packages/util/stdlib/src/assertion/not&#45;null.ts -->
<g id="node7" class="node">
<title>packages/util/stdlib/src/assertion/not&#45;null.ts</title>
<g id="a_node7"><a xlink:href="packages/util/stdlib/src/assertion/not-null.ts" xlink:title="not&#45;null.ts">
<path fill="#ddfeff" stroke="black" d="M423,-428C423,-428 373,-428 373,-428 370,-428 367,-425 367,-422 367,-422 367,-416 367,-416 367,-413 370,-410 373,-410 373,-410 423,-410 423,-410 426,-410 429,-413 429,-416 429,-416 429,-422 429,-422 429,-425 426,-428 423,-428"/>
<text text-anchor="start" x="375" y="-416.8" font-family="Helvetica,sans-Serif" font-size="9.00">not&#45;null.ts</text>
</a>
</g>
</g>
<!-- packages/util/stdlib/index.ts&#45;&gt;packages/util/stdlib/src/assertion/not&#45;null.ts -->
<g id="edge5" class="edge">
<title>packages/util/stdlib/index.ts&#45;&gt;packages/util/stdlib/src/assertion/not&#45;null.ts</title>
<path fill="none" stroke="#000000" stroke-width="2" stroke-opacity="0.200000" d="M93.27,-308.02C152.42,-329.56 301.85,-383.98 366.92,-407.68"/>
<polygon fill="#000000" fill-opacity="0.200000" stroke="#000000" stroke-width="2" stroke-opacity="0.200000" points="372.23,-411.85 367.31,-407.82 373.67,-407.9 372.23,-411.85"/>
</g>
<!-- packages/util/stdlib/src/assertion/not&#45;null&#45;like.ts -->
<g id="node8" class="node">
<title>packages/util/stdlib/src/assertion/not&#45;null&#45;like.ts</title>
<g id="a_node8"><a xlink:href="packages/util/stdlib/src/assertion/not-null-like.ts" xlink:title="not&#45;null&#45;like.ts">
<path fill="#ddfeff" stroke="black" d="M326,-428C326,-428 258,-428 258,-428 255,-428 252,-425 252,-422 252,-422 252,-416 252,-416 252,-413 255,-410 258,-410 258,-410 326,-410 326,-410 329,-410 332,-413 332,-416 332,-416 332,-422 332,-422 332,-425 329,-428 326,-428"/>
<text text-anchor="start" x="260" y="-416.8" font-family="Helvetica,sans-Serif" font-size="9.00">not&#45;null&#45;like.ts</text>
</a>
</g>
</g>
<!-- packages/util/stdlib/index.ts&#45;&gt;packages/util/stdlib/src/assertion/not&#45;null&#45;like.ts -->
<g id="edge6" class="edge">
<title>packages/util/stdlib/index.ts&#45;&gt;packages/util/stdlib/src/assertion/not&#45;null&#45;like.ts</title>
<path fill="none" stroke="#000000" stroke-width="2" stroke-opacity="0.200000" d="M85.3,-308.02C125.02,-329.35 224.74,-382.89 269.57,-406.95"/>
<polygon fill="#000000" fill-opacity="0.200000" stroke="#000000" stroke-width="2" stroke-opacity="0.200000" points="274.01,-411.73 269.72,-407.04 276,-408.03 274.01,-411.73"/>
</g>
<!-- packages/util/stdlib/src/assertion/not&#45;undefined.ts -->
<g id="node9" class="node">
<title>packages/util/stdlib/src/assertion/not&#45;undefined.ts</title>
<g id="a_node9"><a xlink:href="packages/util/stdlib/src/assertion/not-undefined.ts" xlink:title="not&#45;undefined.ts">
<path fill="#ddfeff" stroke="black" d="M438,-458C438,-458 358,-458 358,-458 355,-458 352,-455 352,-452 352,-452 352,-446 352,-446 352,-443 355,-440 358,-440 358,-440 438,-440 438,-440 441,-440 444,-443 444,-446 444,-446 444,-452 444,-452 444,-455 441,-458 438,-458"/>
<text text-anchor="start" x="360" y="-446.8" font-family="Helvetica,sans-Serif" font-size="9.00">not&#45;undefined.ts</text>
</a>
</g>
</g>
<!-- packages/util/stdlib/index.ts&#45;&gt;packages/util/stdlib/src/assertion/not&#45;undefined.ts -->
<g id="edge7" class="edge">
<title>packages/util/stdlib/index.ts&#45;&gt;packages/util/stdlib/src/assertion/not&#45;undefined.ts</title>
<path fill="none" stroke="#000000" stroke-width="2" stroke-opacity="0.200000" d="M88.62,-308.16C145.74,-334.16 308.89,-408.43 372.33,-437.31"/>
<polygon fill="#000000" fill-opacity="0.200000" stroke="#000000" stroke-width="2" stroke-opacity="0.200000" points="377.28,-441.87 372.69,-437.48 379.02,-438.05 377.28,-441.87"/>
</g>
<!-- packages/util/stdlib/src/console/green.ts -->
<g id="node10" class="node">
<title>packages/util/stdlib/src/console/green.ts</title>
<g id="a_node10"><a xlink:href="packages/util/stdlib/src/console/green.ts" xlink:title="green.ts">
<path fill="#ddfeff" stroke="black" d="M199.5,-278C199.5,-278 157.5,-278 157.5,-278 154.5,-278 151.5,-275 151.5,-272 151.5,-272 151.5,-266 151.5,-266 151.5,-263 154.5,-260 157.5,-260 157.5,-260 199.5,-260 199.5,-260 202.5,-260 205.5,-263 205.5,-266 205.5,-266 205.5,-272 205.5,-272 205.5,-275 202.5,-278 199.5,-278"/>
<text text-anchor="start" x="159.5" y="-266.8" font-family="Helvetica,sans-Serif" font-size="9.00">green.ts</text>
</a>
</g>
</g>
<!-- packages/util/stdlib/index.ts&#45;&gt;packages/util/stdlib/src/console/green.ts -->
<g id="edge8" class="edge">
<title>packages/util/stdlib/index.ts&#45;&gt;packages/util/stdlib/src/console/green.ts</title>
<path fill="none" stroke="#000000" stroke-width="2" stroke-opacity="0.200000" d="M95.64,-291.74C110.52,-287.6 129.29,-282.39 145.1,-278"/>
<polygon fill="#000000" fill-opacity="0.200000" stroke="#000000" stroke-width="2" stroke-opacity="0.200000" points="151.78,-278.32 145.44,-277.91 150.66,-274.28 151.78,-278.32"/>
</g>
<!-- packages/util/stdlib/src/console/reset.ts -->
<g id="node11" class="node">
<title>packages/util/stdlib/src/console/reset.ts</title>
<g id="a_node11"><a xlink:href="packages/util/stdlib/src/console/reset.ts" xlink:title="reset.ts">
<path fill="#ddfeff" stroke="black" d="M199.5,-248C199.5,-248 157.5,-248 157.5,-248 154.5,-248 151.5,-245 151.5,-242 151.5,-242 151.5,-236 151.5,-236 151.5,-233 154.5,-230 157.5,-230 157.5,-230 199.5,-230 199.5,-230 202.5,-230 205.5,-233 205.5,-236 205.5,-236 205.5,-242 205.5,-242 205.5,-245 202.5,-248 199.5,-248"/>
<text text-anchor="start" x="161.5" y="-236.8" font-family="Helvetica,sans-Serif" font-size="9.00">reset.ts</text>
</a>
</g>
</g>
<!-- packages/util/stdlib/index.ts&#45;&gt;packages/util/stdlib/src/console/reset.ts -->
<g id="edge9" class="edge">
<title>packages/util/stdlib/index.ts&#45;&gt;packages/util/stdlib/src/console/reset.ts</title>
<path fill="none" stroke="#000000" stroke-width="2" stroke-opacity="0.200000" d="M85.9,-289.89C104.65,-279.47 135.38,-262.4 156.02,-250.93"/>
<polygon fill="#000000" fill-opacity="0.200000" stroke="#000000" stroke-width="2" stroke-opacity="0.200000" points="162.32,-249.84 156.05,-250.92 160.28,-246.17 162.32,-249.84"/>
</g>
<!-- packages/util/stdlib/src/deep&#45;equal.ts -->
<g id="node12" class="node">
<title>packages/util/stdlib/src/deep&#45;equal.ts</title>
<g id="a_node12"><a xlink:href="packages/util/stdlib/src/deep-equal.ts" xlink:title="deep&#45;equal.ts">
<path fill="#ddfeff" stroke="black" d="M211.5,-94C211.5,-94 145.5,-94 145.5,-94 142.5,-94 139.5,-91 139.5,-88 139.5,-88 139.5,-82 139.5,-82 139.5,-79 142.5,-76 145.5,-76 145.5,-76 211.5,-76 211.5,-76 214.5,-76 217.5,-79 217.5,-82 217.5,-82 217.5,-88 217.5,-88 217.5,-91 214.5,-94 211.5,-94"/>
<text text-anchor="start" x="147.5" y="-82.8" font-family="Helvetica,sans-Serif" font-size="9.00">deep&#45;equal.ts</text>
</a>
</g>
</g>
<!-- packages/util/stdlib/index.ts&#45;&gt;packages/util/stdlib/src/deep&#45;equal.ts -->
<g id="edge10" class="edge">
<title>packages/util/stdlib/index.ts&#45;&gt;packages/util/stdlib/src/deep&#45;equal.ts</title>
<path fill="none" stroke="#000000" stroke-width="2" stroke-opacity="0.200000" d="M74.14,-289.8C91,-256.41 149.08,-141.31 169.95,-99.95"/>
<polygon fill="#000000" fill-opacity="0.200000" stroke="#000000" stroke-width="2" stroke-opacity="0.200000" points="174.63,-95.35 170.05,-99.76 170.88,-93.46 174.63,-95.35"/>
</g>
<!-- packages/util/stdlib/src/error/not&#45;implemented&#45;error.ts -->
<g id="node13" class="node">
<title>packages/util/stdlib/src/error/not&#45;implemented&#45;error.ts</title>
<g id="a_node13"><a xlink:href="packages/util/stdlib/src/error/not-implemented-error.ts" xlink:title="not&#45;implemented&#45;error.ts">
<path fill="#ddfeff" stroke="black" d="M592,-458C592,-458 474,-458 474,-458 471,-458 468,-455 468,-452 468,-452 468,-446 468,-446 468,-443 471,-440 474,-440 474,-440 592,-440 592,-440 595,-440 598,-443 598,-446 598,-446 598,-452 598,-452 598,-455 595,-458 592,-458"/>
<text text-anchor="start" x="476" y="-446.8" font-family="Helvetica,sans-Serif" font-size="9.00">not&#45;implemented&#45;error.ts</text>
</a>
</g>
</g>
<!-- packages/util/stdlib/index.ts&#45;&gt;packages/util/stdlib/src/error/not&#45;implemented&#45;error.ts -->
<g id="edge11" class="edge">
<title>packages/util/stdlib/index.ts&#45;&gt;packages/util/stdlib/src/error/not&#45;implemented&#45;error.ts</title>
<path fill="none" stroke="#000000" stroke-width="2" stroke-opacity="0.200000" d="M95.82,-307.82C176.14,-333.76 411.35,-409.72 499.3,-438.12"/>
<polygon fill="#000000" fill-opacity="0.200000" stroke="#000000" stroke-width="2" stroke-opacity="0.200000" points="504.48,-442 499.42,-438.15 505.77,-438 504.48,-442"/>
</g>
<!-- packages/util/stdlib/src/error/throw&#45;function.ts -->
<g id="node14" class="node">
<title>packages/util/stdlib/src/error/throw&#45;function.ts</title>
<g id="a_node14"><a xlink:href="packages/util/stdlib/src/error/throw-function.ts" xlink:title="throw&#45;function.ts">
<path fill="#ddfeff" stroke="black" d="M574.5,-428C574.5,-428 491.5,-428 491.5,-428 488.5,-428 485.5,-425 485.5,-422 485.5,-422 485.5,-416 485.5,-416 485.5,-413 488.5,-410 491.5,-410 491.5,-410 574.5,-410 574.5,-410 577.5,-410 580.5,-413 580.5,-416 580.5,-416 580.5,-422 580.5,-422 580.5,-425 577.5,-428 574.5,-428"/>
<text text-anchor="start" x="493.5" y="-416.8" font-family="Helvetica,sans-Serif" font-size="9.00">throw&#45;function.ts</text>
</a>
</g>
</g>
<!-- packages/util/stdlib/index.ts&#45;&gt;packages/util/stdlib/src/error/throw&#45;function.ts -->
<g id="edge12" class="edge">
<title>packages/util/stdlib/index.ts&#45;&gt;packages/util/stdlib/src/error/throw&#45;function.ts</title>
<path fill="none" stroke="#000000" stroke-width="2" stroke-opacity="0.200000" d="M95.82,-306.06C174.03,-326.26 399.11,-384.41 492.08,-408.43"/>
<polygon fill="#000000" fill-opacity="0.200000" stroke="#000000" stroke-width="2" stroke-opacity="0.200000" points="497.48,-411.99 492.2,-408.46 498.53,-407.93 497.48,-411.99"/>
</g>
<!-- packages/util/stdlib/src/string/cast&#45;to&#45;number.ts -->
<g id="node15" class="node">
<title>packages/util/stdlib/src/string/cast&#45;to&#45;number.ts</title>
<g id="a_node15"><a xlink:href="packages/util/stdlib/src/string/cast-to-number.ts" xlink:title="cast&#45;to&#45;number.ts">
<path fill="#ddfeff" stroke="black" d="M221.5,-188C221.5,-188 135.5,-188 135.5,-188 132.5,-188 129.5,-185 129.5,-182 129.5,-182 129.5,-176 129.5,-176 129.5,-173 132.5,-170 135.5,-170 135.5,-170 221.5,-170 221.5,-170 224.5,-170 227.5,-173 227.5,-176 227.5,-176 227.5,-182 227.5,-182 227.5,-185 224.5,-188 221.5,-188"/>
<text text-anchor="start" x="137.5" y="-176.8" font-family="Helvetica,sans-Serif" font-size="9.00">cast&#45;to&#45;number.ts</text>
</a>
</g>
</g>
<!-- packages/util/stdlib/index.ts&#45;&gt;packages/util/stdlib/src/string/cast&#45;to&#45;number.ts -->
<g id="edge13" class="edge">
<title>packages/util/stdlib/index.ts&#45;&gt;packages/util/stdlib/src/string/cast&#45;to&#45;number.ts</title>
<path fill="none" stroke="#000000" stroke-width="2" stroke-opacity="0.200000" d="M77.62,-289.98C96.38,-269.13 142.86,-217.49 165.16,-192.71"/>
<polygon fill="#000000" fill-opacity="0.200000" stroke="#000000" stroke-width="2" stroke-opacity="0.200000" points="170.85,-189.53 165.27,-192.58 167.73,-186.72 170.85,-189.53"/>
</g>
<!-- packages/util/stdlib/src/string/get&#45;capital&#45;case.ts -->
<g id="node16" class="node">
<title>packages/util/stdlib/src/string/get&#45;capital&#45;case.ts</title>
<g id="a_node16"><a xlink:href="packages/util/stdlib/src/string/get-capital-case.ts" xlink:title="get&#45;capital&#45;case.ts">
<path fill="#ddfeff" stroke="black" d="M222,-158C222,-158 135,-158 135,-158 132,-158 129,-155 129,-152 129,-152 129,-146 129,-146 129,-143 132,-140 135,-140 135,-140 222,-140 222,-140 225,-140 228,-143 228,-146 228,-146 228,-152 228,-152 228,-155 225,-158 222,-158"/>
<text text-anchor="start" x="137" y="-146.8" font-family="Helvetica,sans-Serif" font-size="9.00">get&#45;capital&#45;case.ts</text>
</a>
</g>
</g>
<!-- packages/util/stdlib/index.ts&#45;&gt;packages/util/stdlib/src/string/get&#45;capital&#45;case.ts -->
<g id="edge14" class="edge">
<title>packages/util/stdlib/index.ts&#45;&gt;packages/util/stdlib/src/string/get&#45;capital&#45;case.ts</title>
<path fill="none" stroke="#000000" stroke-width="2" stroke-opacity="0.200000" d="M76.26,-289.62C94.51,-264.26 144.95,-194.21 166.98,-163.61"/>
<polygon fill="#000000" fill-opacity="0.200000" stroke="#000000" stroke-width="2" stroke-opacity="0.200000" points="172.45,-159.61 167.24,-163.25 169.04,-157.15 172.45,-159.61"/>
</g>
<!-- packages/util/stdlib/src/string/get&#45;lower&#45;case.ts -->
<g id="node17" class="node">
<title>packages/util/stdlib/src/string/get&#45;lower&#45;case.ts</title>
<g id="a_node17"><a xlink:href="packages/util/stdlib/src/string/get-lower-case.ts" xlink:title="get&#45;lower&#45;case.ts">
<path fill="#ddfeff" stroke="black" d="M218.5,-128C218.5,-128 138.5,-128 138.5,-128 135.5,-128 132.5,-125 132.5,-122 132.5,-122 132.5,-116 132.5,-116 132.5,-113 135.5,-110 138.5,-110 138.5,-110 218.5,-110 218.5,-110 221.5,-110 224.5,-113 224.5,-116 224.5,-116 224.5,-122 224.5,-122 224.5,-125 221.5,-128 218.5,-128"/>
<text text-anchor="start" x="140.5" y="-116.8" font-family="Helvetica,sans-Serif" font-size="9.00">get&#45;lower&#45;case.ts</text>
</a>
</g>
</g>
<!-- packages/util/stdlib/index.ts&#45;&gt;packages/util/stdlib/src/string/get&#45;lower&#45;case.ts -->
<g id="edge15" class="edge">
<title>packages/util/stdlib/index.ts&#45;&gt;packages/util/stdlib/src/string/get&#45;lower&#45;case.ts</title>
<path fill="none" stroke="#000000" stroke-width="2" stroke-opacity="0.200000" d="M75,-289.83C92.55,-260.58 147.26,-169.4 168.73,-133.62"/>
<polygon fill="#000000" fill-opacity="0.200000" stroke="#000000" stroke-width="2" stroke-opacity="0.200000" points="173.68,-129.45 168.79,-133.52 170.08,-127.29 173.68,-129.45"/>
</g>
<!-- packages/util/stdlib/src/unique.ts -->
<g id="node18" class="node">
<title>packages/util/stdlib/src/unique.ts</title>
<g id="a_node18"><a xlink:href="packages/util/stdlib/src/unique.ts" xlink:title="unique.ts">
<path fill="#ddfeff" stroke="black" d="M202,-64C202,-64 155,-64 155,-64 152,-64 149,-61 149,-58 149,-58 149,-52 149,-52 149,-49 152,-46 155,-46 155,-46 202,-46 202,-46 205,-46 208,-49 208,-52 208,-52 208,-58 208,-58 208,-61 205,-64 202,-64"/>
<text text-anchor="start" x="157" y="-52.8" font-family="Helvetica,sans-Serif" font-size="9.00">unique.ts</text>
</a>
</g>
</g>
<!-- packages/util/stdlib/index.ts&#45;&gt;packages/util/stdlib/src/unique.ts -->
<g id="edge16" class="edge">
<title>packages/util/stdlib/index.ts&#45;&gt;packages/util/stdlib/src/unique.ts</title>
<path fill="none" stroke="#000000" stroke-width="2" stroke-opacity="0.200000" d="M73.6,-289.73C90.01,-252.66 151.01,-114.85 171.06,-69.54"/>
<polygon fill="#000000" fill-opacity="0.200000" stroke="#000000" stroke-width="2" stroke-opacity="0.200000" points="175.43,-64.87 171.08,-69.5 171.59,-63.17 175.43,-64.87"/>
</g>
<!-- packages/util/stdlib/src/array&#45;of&#45;array/to&#45;array.ts&#45;&gt;packages/util/stdlib/src/array&#45;of&#45;array/array&#45;of&#45;array.ts -->
<g id="edge17" class="edge">
<title>packages/util/stdlib/src/array&#45;of&#45;array/to&#45;array.ts&#45;&gt;packages/util/stdlib/src/array&#45;of&#45;array/array&#45;of&#45;array.ts</title>
<path fill="none" stroke="#000000" stroke-width="2" stroke-opacity="0.200000" d="M209.67,-329C219.58,-329 230.86,-329 241.79,-329"/>
<polygon fill="#000000" fill-opacity="0.200000" stroke="#000000" stroke-width="2" stroke-opacity="0.200000" points="241.83,-331.1 247.83,-329 241.83,-326.9 241.83,-331.1"/>
</g>
<!-- packages/util/stdlib/src/assertion/not&#45;nan.ts&#45;&gt;packages/util/stdlib/src/error/throw&#45;function.ts -->
<g id="edge18" class="edge">
<title>packages/util/stdlib/src/assertion/not&#45;nan.ts&#45;&gt;packages/util/stdlib/src/error/throw&#45;function.ts</title>
<path fill="none" stroke="#000000" stroke-width="2" stroke-opacity="0.200000" d="M323.51,-392.92C363.03,-397.84 431.41,-406.35 479.26,-412.31"/>
<polygon fill="#000000" fill-opacity="0.200000" stroke="#000000" stroke-width="2" stroke-opacity="0.200000" points="479.07,-414.4 485.28,-413.06 479.59,-410.23 479.07,-414.4"/>
</g>
<!-- packages/util/stdlib/src/assertion/not&#45;null.ts&#45;&gt;packages/util/stdlib/src/error/throw&#45;function.ts -->
<g id="edge21" class="edge">
<title>packages/util/stdlib/src/assertion/not&#45;null.ts&#45;&gt;packages/util/stdlib/src/error/throw&#45;function.ts</title>
<path fill="none" stroke="#000000" stroke-width="2" stroke-opacity="0.200000" d="M429.18,-419C443.99,-419 462.27,-419 479.29,-419"/>
<polygon fill="#000000" fill-opacity="0.200000" stroke="#000000" stroke-width="2" stroke-opacity="0.200000" points="479.5,-421.1 485.5,-419 479.5,-416.9 479.5,-421.1"/>
</g>
<!-- packages/util/stdlib/src/assertion/not&#45;null&#45;like.ts&#45;&gt;packages/util/stdlib/src/assertion/not&#45;null.ts -->
<g id="edge19" class="edge">
<title>packages/util/stdlib/src/assertion/not&#45;null&#45;like.ts&#45;&gt;packages/util/stdlib/src/assertion/not&#45;null.ts</title>
<path fill="none" stroke="#000000" stroke-width="2" stroke-opacity="0.200000" d="M332.02,-419C341.39,-419 351.35,-419 360.6,-419"/>
<polygon fill="#000000" fill-opacity="0.200000" stroke="#000000" stroke-width="2" stroke-opacity="0.200000" points="360.86,-421.1 366.86,-419 360.86,-416.9 360.86,-421.1"/>
</g>
<!-- packages/util/stdlib/src/assertion/not&#45;null&#45;like.ts&#45;&gt;packages/util/stdlib/src/assertion/not&#45;undefined.ts -->
<g id="edge20" class="edge">
<title>packages/util/stdlib/src/assertion/not&#45;null&#45;like.ts&#45;&gt;packages/util/stdlib/src/assertion/not&#45;undefined.ts</title>
<path fill="none" stroke="#000000" stroke-width="2" stroke-opacity="0.200000" d="M324.2,-428C335.31,-431.2 347.93,-434.85 359.51,-438.19"/>
<polygon fill="#000000" fill-opacity="0.200000" stroke="#000000" stroke-width="2" stroke-opacity="0.200000" points="359.11,-440.26 365.46,-439.9 360.28,-436.22 359.11,-440.26"/>
</g>
<!-- packages/util/stdlib/src/assertion/not&#45;undefined.ts&#45;&gt;packages/util/stdlib/src/error/throw&#45;function.ts -->
<g id="edge22" class="edge">
<title>packages/util/stdlib/src/assertion/not&#45;undefined.ts&#45;&gt;packages/util/stdlib/src/error/throw&#45;function.ts</title>
<path fill="none" stroke="#000000" stroke-width="2" stroke-opacity="0.200000" d="M438.9,-440C453.63,-436.68 470.44,-432.89 485.68,-429.45"/>
<polygon fill="#000000" fill-opacity="0.200000" stroke="#000000" stroke-width="2" stroke-opacity="0.200000" points="486.27,-431.47 491.66,-428.1 485.35,-427.37 486.27,-431.47"/>
</g>
<!-- packages/util/stdlib/src/string/cast&#45;to&#45;number.ts&#45;&gt;packages/util/stdlib/src/assertion/not&#45;nan.ts -->
<g id="edge23" class="edge">
<title>packages/util/stdlib/src/string/cast&#45;to&#45;number.ts&#45;&gt;packages/util/stdlib/src/assertion/not&#45;nan.ts</title>
<path fill="none" stroke="#000000" stroke-width="2" stroke-opacity="0.200000" d="M184.29,-188.02C201.69,-220.8 261.66,-333.74 283.21,-374.33"/>
<polygon fill="#000000" fill-opacity="0.200000" stroke="#000000" stroke-width="2" stroke-opacity="0.200000" points="281.43,-375.46 286.1,-379.77 285.14,-373.49 281.43,-375.46"/>
</g>
</g>
</svg>
