<?xml version="1.0" encoding="UTF-8" standalone="no"?>
<!DOCTYPE svg PUBLIC "-//W3C//DTD SVG 1.1//EN"
 "http://www.w3.org/Graphics/SVG/1.1/DTD/svg11.dtd">
<!-- Generated by graphviz version 2.43.0 (0)
 -->
<!-- Title: dependency&#45;cruiser output Pages: 1 -->
<svg width="529pt" height="466pt"
 viewBox="0.00 0.00 529.00 466.00" xmlns="http://www.w3.org/2000/svg" xmlns:xlink="http://www.w3.org/1999/xlink">
<g id="graph0" class="graph" transform="scale(1 1) rotate(0) translate(4 462)">
<title>dependency&#45;cruiser output</title>
<polygon fill="white" stroke="transparent" points="-4,4 -4,-462 525,-462 525,4 -4,4"/>
<g id="clust1" class="cluster">
<title>cluster_packages</title>
<path fill="#ffffff" stroke="black" stroke-width="2" d="M20,-8C20,-8 509,-8 509,-8 515,-8 521,-14 521,-20 521,-20 521,-438 521,-438 521,-444 515,-450 509,-450 509,-450 20,-450 20,-450 14,-450 8,-444 8,-438 8,-438 8,-20 8,-20 8,-14 14,-8 20,-8"/>
<text text-anchor="middle" x="264.5" y="-438.8" font-family="Helvetica,sans-Serif" font-weight="bold" font-size="9.00">packages</text>
</g>
<g id="clust2" class="cluster">
<title>cluster_packages/UI</title>
<path fill="#ffffff" stroke="black" stroke-width="2" d="M28,-16C28,-16 486,-16 486,-16 492,-16 498,-22 498,-28 498,-28 498,-284 498,-284 498,-290 492,-296 486,-296 486,-296 28,-296 28,-296 22,-296 16,-290 16,-284 16,-284 16,-28 16,-28 16,-22 22,-16 28,-16"/>
<text text-anchor="middle" x="257" y="-284.8" font-family="Helvetica,sans-Serif" font-weight="bold" font-size="9.00">UI</text>
</g>
<g id="clust3" class="cluster">
<title>cluster_packages/UI/controllers</title>
<path fill="#ffffff" stroke="black" stroke-width="2" d="M36,-24C36,-24 477,-24 477,-24 483,-24 489,-30 489,-36 489,-36 489,-164 489,-164 489,-170 483,-176 477,-176 477,-176 36,-176 36,-176 30,-176 24,-170 24,-164 24,-164 24,-36 24,-36 24,-30 30,-24 36,-24"/>
<text text-anchor="middle" x="256.5" y="-164.8" font-family="Helvetica,sans-Serif" font-weight="bold" font-size="9.00">controllers</text>
</g>
<g id="clust4" class="cluster">
<title>cluster_packages/UI/controllers/src</title>
<path fill="#ffffff" stroke="black" stroke-width="2" d="M106,-38C106,-38 469,-38 469,-38 475,-38 481,-44 481,-50 481,-50 481,-138 481,-138 481,-144 475,-150 469,-150 469,-150 106,-150 106,-150 100,-150 94,-144 94,-138 94,-138 94,-50 94,-50 94,-44 100,-38 106,-38"/>
<text text-anchor="middle" x="287.5" y="-138.8" font-family="Helvetica,sans-Serif" font-weight="bold" font-size="9.00">src</text>
</g>
<g id="clust5" class="cluster">
<title>cluster_packages/UI/view&#45;parameters</title>
<path fill="#ffffff" stroke="black" stroke-width="2" d="M399,-184C399,-184 478,-184 478,-184 484,-184 490,-190 490,-196 490,-196 490,-258 490,-258 490,-264 484,-270 478,-270 478,-270 399,-270 399,-270 393,-270 387,-264 387,-258 387,-258 387,-196 387,-196 387,-190 393,-184 399,-184"/>
<text text-anchor="middle" x="438.5" y="-258.8" font-family="Helvetica,sans-Serif" font-weight="bold" font-size="9.00">view&#45;parameters</text>
</g>
<g id="clust6" class="cluster">
<title>cluster_packages/UI/view&#45;parameters/dist</title>
<path fill="#ffffff" stroke="black" stroke-width="2" d="M415,-192C415,-192 461,-192 461,-192 467,-192 473,-198 473,-204 473,-204 473,-232 473,-232 473,-238 467,-244 461,-244 461,-244 415,-244 415,-244 409,-244 403,-238 403,-232 403,-232 403,-204 403,-204 403,-198 409,-192 415,-192"/>
<text text-anchor="middle" x="438" y="-232.8" font-family="Helvetica,sans-Serif" font-weight="bold" font-size="9.00">dist</text>
</g>
<g id="clust7" class="cluster">
<title>cluster_packages/cognitive&#45;theory&#45;of&#45;music</title>
<path fill="#ffffff" stroke="black" stroke-width="2" d="M376,-304C376,-304 501,-304 501,-304 507,-304 513,-310 513,-316 513,-316 513,-412 513,-412 513,-418 507,-424 501,-424 501,-424 376,-424 376,-424 370,-424 364,-418 364,-412 364,-412 364,-316 364,-316 364,-310 370,-304 376,-304"/>
<text text-anchor="middle" x="438.5" y="-412.8" font-family="Helvetica,sans-Serif" font-weight="bold" font-size="9.00">cognitive&#45;theory&#45;of&#45;music</text>
</g>
<g id="clust8" class="cluster">
<title>cluster_packages/cognitive&#45;theory&#45;of&#45;music/irm</title>
<path fill="#ffffff" stroke="black" stroke-width="2" d="M407,-312C407,-312 469,-312 469,-312 475,-312 481,-318 481,-324 481,-324 481,-386 481,-386 481,-392 475,-398 469,-398 469,-398 407,-398 407,-398 401,-398 395,-392 395,-386 395,-386 395,-324 395,-324 395,-318 401,-312 407,-312"/>
<text text-anchor="middle" x="438" y="-386.8" font-family="Helvetica,sans-Serif" font-weight="bold" font-size="9.00">irm</text>
</g>
<g id="clust9" class="cluster">
<title>cluster_packages/cognitive&#45;theory&#45;of&#45;music/irm/dist</title>
<path fill="#ffffff" stroke="black" stroke-width="2" d="M415,-320C415,-320 461,-320 461,-320 467,-320 473,-326 473,-332 473,-332 473,-360 473,-360 473,-366 467,-372 461,-372 461,-372 415,-372 415,-372 409,-372 403,-366 403,-360 403,-360 403,-332 403,-332 403,-326 409,-320 415,-320"/>
<text text-anchor="middle" x="438" y="-360.8" font-family="Helvetica,sans-Serif" font-weight="bold" font-size="9.00">dist</text>
</g>
<!-- packages/UI/controllers/index.ts -->
<g id="node1" class="node">
<title>packages/UI/controllers/index.ts</title>
<g id="a_node1"><a xlink:href="packages/UI/controllers/index.ts" xlink:title="index.ts">
<path fill="#ddfeff" stroke="black" d="M80,-87C80,-87 38,-87 38,-87 35,-87 32,-84 32,-81 32,-81 32,-75 32,-75 32,-72 35,-69 38,-69 38,-69 80,-69 80,-69 83,-69 86,-72 86,-75 86,-75 86,-81 86,-81 86,-84 83,-87 80,-87"/>
<text text-anchor="start" x="40.5" y="-75.8" font-family="Helvetica,sans-Serif" font-size="9.00">index.ts</text>
</a>
</g>
</g>
<!-- packages/UI/controllers/src/color&#45;selector.ts -->
<g id="node2" class="node">
<title>packages/UI/controllers/src/color&#45;selector.ts</title>
<g id="a_node2"><a xlink:href="packages/UI/controllers/src/color-selector.ts" xlink:title="color&#45;selector.ts">
<path fill="#ddfeff" stroke="black" d="M326,-64C326,-64 252,-64 252,-64 249,-64 246,-61 246,-58 246,-58 246,-52 246,-52 246,-49 249,-46 252,-46 252,-46 326,-46 326,-46 329,-46 332,-49 332,-52 332,-52 332,-58 332,-58 332,-61 329,-64 326,-64"/>
<text text-anchor="start" x="254" y="-52.8" font-family="Helvetica,sans-Serif" font-size="9.00">color&#45;selector.ts</text>
</a>
</g>
</g>
<!-- packages/UI/controllers/index.ts&#45;&gt;packages/UI/controllers/src/color&#45;selector.ts -->
<g id="edge1" class="edge">
<title>packages/UI/controllers/index.ts&#45;&gt;packages/UI/controllers/src/color&#45;selector.ts</title>
<path fill="none" stroke="#000000" stroke-width="2" stroke-opacity="0.200000" d="M80.56,-68.93C87.72,-65.77 94,-63 94,-63 94,-63 182.3,-59.36 239.75,-56.99"/>
<polygon fill="#000000" fill-opacity="0.200000" stroke="#000000" stroke-width="2" stroke-opacity="0.200000" points="245.99,-58.83 239.91,-56.98 245.82,-54.64 245.99,-58.83"/>
</g>
<!-- packages/UI/controllers/src/controller.ts -->
<g id="node3" class="node">
<title>packages/UI/controllers/src/controller.ts</title>
<g id="a_node3"><a xlink:href="packages/UI/controllers/src/controller.ts" xlink:title="controller.ts">
<path fill="#ddfeff" stroke="black" d="M467,-79C467,-79 409,-79 409,-79 406,-79 403,-76 403,-73 403,-73 403,-67 403,-67 403,-64 406,-61 409,-61 409,-61 467,-61 467,-61 470,-61 473,-64 473,-67 473,-67 473,-73 473,-73 473,-76 470,-79 467,-79"/>
<text text-anchor="start" x="411" y="-67.8" font-family="Helvetica,sans-Serif" font-size="9.00">controller.ts</text>
</a>
</g>
</g>
<!-- packages/UI/controllers/index.ts&#45;&gt;packages/UI/controllers/src/controller.ts -->
<g id="edge2" class="edge">
<title>packages/UI/controllers/index.ts&#45;&gt;packages/UI/controllers/src/controller.ts</title>
<path fill="none" stroke="#000000" stroke-width="2" stroke-opacity="0.200000" d="M73.05,-68.79C82.64,-62.02 94,-54 94,-54 94,-54 246,-40 246,-40 246,-40 332,-40 332,-40 332,-40 369.41,-50.69 399.57,-59.31"/>
<polygon fill="#000000" fill-opacity="0.200000" stroke="#000000" stroke-width="2" stroke-opacity="0.200000" points="404.92,-63.02 399.73,-59.35 406.07,-58.98 404.92,-63.02"/>
</g>
<!-- packages/UI/controllers/src/melody&#45;beep&#45;controller.ts -->
<g id="node4" class="node">
<title>packages/UI/controllers/src/melody&#45;beep&#45;controller.ts</title>
<g id="a_node4"><a xlink:href="packages/UI/controllers/src/melody-beep-controller.ts" xlink:title="melody&#45;beep&#45;controller.ts">
<path fill="#ddfeff" stroke="black" d="M227,-87C227,-87 108,-87 108,-87 105,-87 102,-84 102,-81 102,-81 102,-75 102,-75 102,-72 105,-69 108,-69 108,-69 227,-69 227,-69 230,-69 233,-72 233,-75 233,-75 233,-81 233,-81 233,-84 230,-87 227,-87"/>
<text text-anchor="start" x="110" y="-75.8" font-family="Helvetica,sans-Serif" font-size="9.00">melody&#45;beep&#45;controller.ts</text>
</a>
</g>
</g>
<!-- packages/UI/controllers/index.ts&#45;&gt;packages/UI/controllers/src/melody&#45;beep&#45;controller.ts -->
<g id="edge3" class="edge">
<title>packages/UI/controllers/index.ts&#45;&gt;packages/UI/controllers/src/melody&#45;beep&#45;controller.ts</title>
<path fill="none" stroke="#000000" stroke-width="2" stroke-opacity="0.200000" d="M86.05,-78C89.13,-78 92.38,-78 95.73,-78"/>
<polygon fill="#000000" fill-opacity="0.200000" stroke="#000000" stroke-width="2" stroke-opacity="0.200000" points="101.85,-80.1 95.85,-78 101.85,-75.9 101.85,-80.1"/>
</g>
<!-- packages/UI/controllers/src/slider.ts -->
<g id="node5" class="node">
<title>packages/UI/controllers/src/slider.ts</title>
<g id="a_node5"><a xlink:href="packages/UI/controllers/src/slider.ts" xlink:title="slider.ts">
<path fill="#ddfeff" stroke="black" d="M310,-124C310,-124 268,-124 268,-124 265,-124 262,-121 262,-118 262,-118 262,-112 262,-112 262,-109 265,-106 268,-106 268,-106 310,-106 310,-106 313,-106 316,-109 316,-112 316,-112 316,-118 316,-118 316,-121 313,-124 310,-124"/>
<text text-anchor="start" x="271.5" y="-112.8" font-family="Helvetica,sans-Serif" font-size="9.00">slider.ts</text>
</a>
</g>
</g>
<!-- packages/UI/controllers/index.ts&#45;&gt;packages/UI/controllers/src/slider.ts -->
<g id="edge4" class="edge">
<title>packages/UI/controllers/index.ts&#45;&gt;packages/UI/controllers/src/slider.ts</title>
<path fill="none" stroke="#000000" stroke-width="2" stroke-opacity="0.200000" d="M76.2,-87.05C84.96,-91.95 94,-97 94,-97 94,-97 200.51,-106.88 255.69,-112"/>
<polygon fill="#000000" fill-opacity="0.200000" stroke="#000000" stroke-width="2" stroke-opacity="0.200000" points="261.64,-114.66 255.86,-112.02 262.03,-110.48 261.64,-114.66"/>
</g>
<!-- packages/UI/controllers/src/switcher.ts -->
<g id="node6" class="node">
<title>packages/UI/controllers/src/switcher.ts</title>
<g id="a_node6"><a xlink:href="packages/UI/controllers/src/switcher.ts" xlink:title="switcher.ts">
<path fill="#ddfeff" stroke="black" d="M315.5,-94C315.5,-94 262.5,-94 262.5,-94 259.5,-94 256.5,-91 256.5,-88 256.5,-88 256.5,-82 256.5,-82 256.5,-79 259.5,-76 262.5,-76 262.5,-76 315.5,-76 315.5,-76 318.5,-76 321.5,-79 321.5,-82 321.5,-82 321.5,-88 321.5,-88 321.5,-91 318.5,-94 315.5,-94"/>
<text text-anchor="start" x="264.5" y="-82.8" font-family="Helvetica,sans-Serif" font-size="9.00">switcher.ts</text>
</a>
</g>
</g>
<!-- packages/UI/controllers/index.ts&#45;&gt;packages/UI/controllers/src/switcher.ts -->
<g id="edge5" class="edge">
<title>packages/UI/controllers/index.ts&#45;&gt;packages/UI/controllers/src/switcher.ts</title>
<path fill="none" stroke="#000000" stroke-width="2" stroke-opacity="0.200000" d="M80.56,-87.07C87.72,-90.23 94,-93 94,-93 94,-93 233,-93 233,-93 233,-93 240.61,-91.89 250.17,-90.5"/>
<polygon fill="#000000" fill-opacity="0.200000" stroke="#000000" stroke-width="2" stroke-opacity="0.200000" points="256.63,-91.69 250.39,-90.47 256.02,-87.53 256.63,-91.69"/>
</g>
<!-- packages/UI/controllers/src/color&#45;selector.ts&#45;&gt;packages/UI/controllers/src/controller.ts -->
<g id="edge6" class="edge">
<title>packages/UI/controllers/src/color&#45;selector.ts&#45;&gt;packages/UI/controllers/src/controller.ts</title>
<path fill="none" stroke="#000000" stroke-width="2" stroke-opacity="0.200000" d="M332.12,-59.3C352.42,-61.37 376.65,-63.84 396.7,-65.89"/>
<polygon fill="#000000" fill-opacity="0.200000" stroke="#000000" stroke-width="2" stroke-opacity="0.200000" points="396.6,-67.99 402.78,-66.51 397.03,-63.81 396.6,-67.99"/>
</g>
<!-- packages/cognitive&#45;theory&#45;of&#45;music/irm/dist/index.js -->
<g id="node7" class="node">
<title>packages/cognitive&#45;theory&#45;of&#45;music/irm/dist/index.js</title>
<g id="a_node7"><a xlink:href="packages/cognitive-theory-of-music/irm/dist/index.js" xlink:title="index.js">
<polygon fill="#ffffcc" stroke="black" points="465,-346 463.5,-348 453,-348 451.5,-346 411,-346 411,-328 465,-328 465,-346"/>
<text text-anchor="start" x="420.5" y="-334.8" font-family="Helvetica,sans-Serif" font-size="9.00">index.js</text>
</a>
</g>
</g>
<!-- packages/UI/controllers/src/color&#45;selector.ts&#45;&gt;packages/cognitive&#45;theory&#45;of&#45;music/irm/dist/index.js -->
<g id="edge7" class="edge">
<title>packages/UI/controllers/src/color&#45;selector.ts&#45;&gt;packages/cognitive&#45;theory&#45;of&#45;music/irm/dist/index.js</title>
<path fill="none" stroke="#000000" stroke-width="2" stroke-opacity="0.200000" d="M315.4,-64.07C324.25,-67.23 332,-70 332,-70 332,-70 364,-247 364,-247 364,-247 405.14,-297.72 425.65,-323.01"/>
<polygon fill="#000000" fill-opacity="0.200000" stroke="#000000" stroke-width="2" stroke-opacity="0.200000" points="424.05,-324.37 429.46,-327.71 427.31,-321.72 424.05,-324.37"/>
</g>
<!-- packages/UI/controllers/src/melody&#45;beep&#45;controller.ts&#45;&gt;packages/UI/controllers/src/slider.ts -->
<g id="edge8" class="edge">
<title>packages/UI/controllers/src/melody&#45;beep&#45;controller.ts&#45;&gt;packages/UI/controllers/src/slider.ts</title>
<path fill="none" stroke="#000000" stroke-width="2" stroke-opacity="0.200000" d="M213.3,-87.03C224.3,-89.25 233,-91 233,-91 233,-91 246,-100 246,-100 246,-100 250.55,-101.62 256.65,-103.8"/>
<polygon fill="#000000" fill-opacity="0.200000" stroke="#000000" stroke-width="2" stroke-opacity="0.200000" points="256.24,-105.89 262.6,-105.93 257.66,-101.93 256.24,-105.89"/>
</g>
<!-- packages/UI/controllers/src/melody&#45;beep&#45;controller.ts&#45;&gt;packages/UI/controllers/src/switcher.ts -->
<g id="edge9" class="edge">
<title>packages/UI/controllers/src/melody&#45;beep&#45;controller.ts&#45;&gt;packages/UI/controllers/src/switcher.ts</title>
<path fill="none" stroke="#000000" stroke-width="2" stroke-opacity="0.200000" d="M233.15,-81.79C238.92,-82.12 244.63,-82.46 250.06,-82.78"/>
<polygon fill="#000000" fill-opacity="0.200000" stroke="#000000" stroke-width="2" stroke-opacity="0.200000" points="250.18,-84.89 256.29,-83.14 250.43,-80.7 250.18,-84.89"/>
</g>
<!-- packages/UI/controllers/src/slider.ts&#45;&gt;packages/UI/controllers/src/controller.ts -->
<g id="edge10" class="edge">
<title>packages/UI/controllers/src/slider.ts&#45;&gt;packages/UI/controllers/src/controller.ts</title>
<path fill="none" stroke="#000000" stroke-width="2" stroke-opacity="0.200000" d="M316.28,-106.95C340.08,-99.67 375.34,-88.88 401.61,-80.83"/>
<polygon fill="#000000" fill-opacity="0.200000" stroke="#000000" stroke-width="2" stroke-opacity="0.200000" points="402.29,-82.82 407.41,-79.06 401.06,-78.81 402.29,-82.82"/>
</g>
<!-- packages/UI/view&#45;parameters/dist/index.js -->
<g id="node8" class="node">
<title>packages/UI/view&#45;parameters/dist/index.js</title>
<g id="a_node8"><a xlink:href="packages/UI/view-parameters/dist/index.js" xlink:title="index.js">
<polygon fill="#ffffcc" stroke="black" points="465,-218 463.5,-220 453,-220 451.5,-218 411,-218 411,-200 465,-200 465,-218"/>
<text text-anchor="start" x="420.5" y="-206.8" font-family="Helvetica,sans-Serif" font-size="9.00">index.js</text>
</a>
</g>
</g>
<!-- packages/UI/controllers/src/slider.ts&#45;&gt;packages/UI/view&#45;parameters/dist/index.js -->
<g id="edge11" class="edge">
<title>packages/UI/controllers/src/slider.ts&#45;&gt;packages/UI/view&#45;parameters/dist/index.js</title>
<path fill="none" stroke="#000000" stroke-width="2" stroke-opacity="0.200000" d="M304.09,-124.01C330.48,-140.88 387.37,-177.26 417.44,-196.49"/>
<polygon fill="#000000" fill-opacity="0.200000" stroke="#000000" stroke-width="2" stroke-opacity="0.200000" points="416.55,-198.41 422.73,-199.88 418.81,-194.87 416.55,-198.41"/>
</g>
<!-- packages/UI/controllers/src/switcher.ts&#45;&gt;packages/UI/controllers/src/controller.ts -->
<g id="edge12" class="edge">
<title>packages/UI/controllers/src/switcher.ts&#45;&gt;packages/UI/controllers/src/controller.ts</title>
<path fill="none" stroke="#000000" stroke-width="2" stroke-opacity="0.200000" d="M321.54,-81.78C343.53,-79.54 373.06,-76.52 396.75,-74.11"/>
<polygon fill="#000000" fill-opacity="0.200000" stroke="#000000" stroke-width="2" stroke-opacity="0.200000" points="397.2,-76.17 402.95,-73.47 396.77,-71.99 397.2,-76.17"/>
</g>
</g>
</svg>
