<?xml version="1.0" encoding="UTF-8" standalone="no"?>
<!DOCTYPE svg PUBLIC "-//W3C//DTD SVG 1.1//EN"
 "http://www.w3.org/Graphics/SVG/1.1/DTD/svg11.dtd">
<!-- Generated by graphviz version 2.43.0 (0)
 -->
<!-- Title: dependency&#45;cruiser output Pages: 1 -->
<svg width="750pt" height="718pt"
 viewBox="0.00 0.00 750.16 718.25" xmlns="http://www.w3.org/2000/svg" xmlns:xlink="http://www.w3.org/1999/xlink">
<g id="graph0" class="graph" transform="scale(1 1) rotate(0) translate(4 714.25)">
<title>dependency&#45;cruiser output</title>
<polygon fill="white" stroke="transparent" points="-4,4 -4,-714.25 746.16,-714.25 746.16,4 -4,4"/>
<g id="clust1" class="cluster">
<title>cluster_packages</title>
<path fill="#ffffff" stroke="black" stroke-width="2" d="M12,0C12,0 730.16,0 730.16,0 736.16,0 742.16,-6 742.16,-12 742.16,-12 742.16,-698.25 742.16,-698.25 742.16,-704.25 736.16,-710.25 730.16,-710.25 730.16,-710.25 12,-710.25 12,-710.25 6,-710.25 0,-704.25 0,-698.25 0,-698.25 0,-12 0,-12 0,-6 6,0 12,0"/>
<text text-anchor="middle" x="371.08" y="-699.05" font-family="Helvetica,sans-Serif" font-weight="bold" font-size="9.00">packages</text>
</g>
<!-- packages/UI/controllers/index.ts -->
<g id="node1" class="node">
<title>packages/UI/controllers/index.ts</title>
<g id="a_node1"><a xlink:href="packages/UI/controllers/index.ts" xlink:title="index.ts">
<path fill="#ddfeff" stroke="black" d="M302.01,-380.75C302.01,-380.75 260.01,-380.75 260.01,-380.75 257.01,-380.75 254.01,-377.75 254.01,-374.75 254.01,-374.75 254.01,-368.75 254.01,-368.75 254.01,-365.75 257.01,-362.75 260.01,-362.75 260.01,-362.75 302.01,-362.75 302.01,-362.75 305.01,-362.75 308.01,-365.75 308.01,-368.75 308.01,-368.75 308.01,-374.75 308.01,-374.75 308.01,-377.75 305.01,-380.75 302.01,-380.75"/>
<text text-anchor="start" x="262.51" y="-369.55" font-family="Helvetica,sans-Serif" font-size="9.00">index.ts</text>
</a>
</g>
</g>
<!-- packages/UI/controllers/src/index.ts -->
<g id="node2" class="node">
<title>packages/UI/controllers/src/index.ts</title>
<g id="a_node2"><a xlink:href="packages/UI/controllers/src/index.ts" xlink:title="index.ts">
<path fill="#ddfeff" stroke="black" d="M413.54,-443.45C413.54,-443.45 371.54,-443.45 371.54,-443.45 368.54,-443.45 365.54,-440.45 365.54,-437.45 365.54,-437.45 365.54,-431.45 365.54,-431.45 365.54,-428.45 368.54,-425.45 371.54,-425.45 371.54,-425.45 413.54,-425.45 413.54,-425.45 416.54,-425.45 419.54,-428.45 419.54,-431.45 419.54,-431.45 419.54,-437.45 419.54,-437.45 419.54,-440.45 416.54,-443.45 413.54,-443.45"/>
<text text-anchor="start" x="374.04" y="-432.25" font-family="Helvetica,sans-Serif" font-size="9.00">index.ts</text>
</a>
</g>
</g>
<!-- packages/UI/controllers/index.ts&#45;&gt;packages/UI/controllers/src/index.ts -->
<g id="edge1" class="edge">
<title>packages/UI/controllers/index.ts&#45;&gt;packages/UI/controllers/src/index.ts</title>
<path fill="none" stroke="#000000" stroke-width="2" stroke-opacity="0.200000" d="M297.47,-381C316.93,-391.94 349.41,-410.2 370.9,-422.28"/>
<polygon fill="#000000" fill-opacity="0.200000" stroke="#000000" stroke-width="2" stroke-opacity="0.200000" points="375.35,-427.19 371.15,-422.42 377.41,-423.53 375.35,-427.19"/>
</g>
<!-- packages/UI/controllers/src/controller/index.ts -->
<g id="node4" class="node">
<title>packages/UI/controllers/src/controller/index.ts</title>
<g id="a_node4"><a xlink:href="packages/UI/controllers/src/controller/index.ts" xlink:title="index.ts">
<path fill="#ddfeff" stroke="black" d="M474.41,-364.64C474.41,-364.64 432.41,-364.64 432.41,-364.64 429.41,-364.64 426.41,-361.64 426.41,-358.64 426.41,-358.64 426.41,-352.64 426.41,-352.64 426.41,-349.64 429.41,-346.64 432.41,-346.64 432.41,-346.64 474.41,-346.64 474.41,-346.64 477.41,-346.64 480.41,-349.64 480.41,-352.64 480.41,-352.64 480.41,-358.64 480.41,-358.64 480.41,-361.64 477.41,-364.64 474.41,-364.64"/>
<text text-anchor="start" x="434.91" y="-353.44" font-family="Helvetica,sans-Serif" font-size="9.00">index.ts</text>
</a>
</g>
</g>
<!-- packages/UI/controllers/src/index.ts&#45;&gt;packages/UI/controllers/src/controller/index.ts -->
<g id="edge15" class="edge">
<title>packages/UI/controllers/src/index.ts&#45;&gt;packages/UI/controllers/src/controller/index.ts</title>
<path fill="none" stroke="#000000" stroke-width="2" stroke-opacity="0.200000" d="M399.52,-425.41C409.96,-411.9 429.73,-386.3 442.21,-370.15"/>
<polygon fill="#000000" fill-opacity="0.200000" stroke="#000000" stroke-width="2" stroke-opacity="0.200000" points="447.8,-366.35 442.47,-369.82 444.47,-363.78 447.8,-366.35"/>
</g>
<!-- packages/UI/controllers/src/color&#45;selector.ts/index.ts -->
<g id="node5" class="node">
<title>packages/UI/controllers/src/color&#45;selector.ts/index.ts</title>
<g id="a_node5"><a xlink:href="packages/UI/controllers/src/color-selector.ts/index.ts" xlink:title="index.ts">
<path fill="#ddfeff" stroke="black" d="M361.17,-279.35C361.17,-279.35 319.17,-279.35 319.17,-279.35 316.17,-279.35 313.17,-276.35 313.17,-273.35 313.17,-273.35 313.17,-267.35 313.17,-267.35 313.17,-264.35 316.17,-261.35 319.17,-261.35 319.17,-261.35 361.17,-261.35 361.17,-261.35 364.17,-261.35 367.17,-264.35 367.17,-267.35 367.17,-267.35 367.17,-273.35 367.17,-273.35 367.17,-276.35 364.17,-279.35 361.17,-279.35"/>
<text text-anchor="start" x="321.67" y="-268.15" font-family="Helvetica,sans-Serif" font-size="9.00">index.ts</text>
</a>
</g>
</g>
<!-- packages/UI/controllers/src/index.ts&#45;&gt;packages/UI/controllers/src/color&#45;selector.ts/index.ts -->
<g id="edge14" class="edge">
<title>packages/UI/controllers/src/index.ts&#45;&gt;packages/UI/controllers/src/color&#45;selector.ts/index.ts</title>
<path fill="none" stroke="#000000" stroke-width="2" stroke-opacity="0.200000" d="M389.58,-425.15C380.93,-398.08 355.71,-319.05 345.03,-285.59"/>
<polygon fill="#000000" fill-opacity="0.200000" stroke="#000000" stroke-width="2" stroke-opacity="0.200000" points="345.1,-278.9 344.92,-285.25 341.1,-280.18 345.1,-278.9"/>
</g>
<!-- packages/UI/controllers/src/melody&#45;beep&#45;controller/index.ts -->
<g id="node12" class="node">
<title>packages/UI/controllers/src/melody&#45;beep&#45;controller/index.ts</title>
<g id="a_node12"><a xlink:href="packages/UI/controllers/src/melody-beep-controller/index.ts" xlink:title="index.ts">
<path fill="#ddfeff" stroke="black" d="M424.7,-590.49C424.7,-590.49 382.7,-590.49 382.7,-590.49 379.7,-590.49 376.7,-587.49 376.7,-584.49 376.7,-584.49 376.7,-578.49 376.7,-578.49 376.7,-575.49 379.7,-572.49 382.7,-572.49 382.7,-572.49 424.7,-572.49 424.7,-572.49 427.7,-572.49 430.7,-575.49 430.7,-578.49 430.7,-578.49 430.7,-584.49 430.7,-584.49 430.7,-587.49 427.7,-590.49 424.7,-590.49"/>
<text text-anchor="start" x="385.2" y="-579.29" font-family="Helvetica,sans-Serif" font-size="9.00">index.ts</text>
</a>
</g>
</g>
<!-- packages/UI/controllers/src/index.ts&#45;&gt;packages/UI/controllers/src/melody&#45;beep&#45;controller/index.ts -->
<g id="edge16" class="edge">
<title>packages/UI/controllers/src/index.ts&#45;&gt;packages/UI/controllers/src/melody&#45;beep&#45;controller/index.ts</title>
<path fill="none" stroke="#000000" stroke-width="2" stroke-opacity="0.200000" d="M393.24,-443.65C395.1,-468.2 400.21,-535.47 402.53,-566.03"/>
<polygon fill="#000000" fill-opacity="0.200000" stroke="#000000" stroke-width="2" stroke-opacity="0.200000" points="400.91,-572.46 402.55,-566.32 405.1,-572.14 400.91,-572.46"/>
</g>
<!-- packages/UI/controllers/src/slider/index.ts -->
<g id="node13" class="node">
<title>packages/UI/controllers/src/slider/index.ts</title>
<g id="a_node13"><a xlink:href="packages/UI/controllers/src/slider/index.ts" xlink:title="index.ts">
<path fill="#ddfeff" stroke="black" d="M296.54,-534.59C296.54,-534.59 254.54,-534.59 254.54,-534.59 251.54,-534.59 248.54,-531.59 248.54,-528.59 248.54,-528.59 248.54,-522.59 248.54,-522.59 248.54,-519.59 251.54,-516.59 254.54,-516.59 254.54,-516.59 296.54,-516.59 296.54,-516.59 299.54,-516.59 302.54,-519.59 302.54,-522.59 302.54,-522.59 302.54,-528.59 302.54,-528.59 302.54,-531.59 299.54,-534.59 296.54,-534.59"/>
<text text-anchor="start" x="257.04" y="-523.39" font-family="Helvetica,sans-Serif" font-size="9.00">index.ts</text>
</a>
</g>
</g>
<!-- packages/UI/controllers/src/index.ts&#45;&gt;packages/UI/controllers/src/slider/index.ts -->
<g id="edge17" class="edge">
<title>packages/UI/controllers/src/index.ts&#45;&gt;packages/UI/controllers/src/slider/index.ts</title>
<path fill="none" stroke="#000000" stroke-width="2" stroke-opacity="0.200000" d="M380.89,-443.52C359.96,-459.83 315.91,-494.14 291.93,-512.82"/>
<polygon fill="#000000" fill-opacity="0.200000" stroke="#000000" stroke-width="2" stroke-opacity="0.200000" points="285.84,-514.9 291.87,-512.87 288.43,-518.22 285.84,-514.9"/>
</g>
<!-- packages/UI/controllers/src/switcher/index.ts -->
<g id="node14" class="node">
<title>packages/UI/controllers/src/switcher/index.ts</title>
<g id="a_node14"><a xlink:href="packages/UI/controllers/src/switcher/index.ts" xlink:title="index.ts">
<path fill="#ddfeff" stroke="black" d="M545.61,-519.33C545.61,-519.33 503.61,-519.33 503.61,-519.33 500.61,-519.33 497.61,-516.33 497.61,-513.33 497.61,-513.33 497.61,-507.33 497.61,-507.33 497.61,-504.33 500.61,-501.33 503.61,-501.33 503.61,-501.33 545.61,-501.33 545.61,-501.33 548.61,-501.33 551.61,-504.33 551.61,-507.33 551.61,-507.33 551.61,-513.33 551.61,-513.33 551.61,-516.33 548.61,-519.33 545.61,-519.33"/>
<text text-anchor="start" x="506.11" y="-508.13" font-family="Helvetica,sans-Serif" font-size="9.00">index.ts</text>
</a>
</g>
</g>
<!-- packages/UI/controllers/src/index.ts&#45;&gt;packages/UI/controllers/src/switcher/index.ts -->
<g id="edge18" class="edge">
<title>packages/UI/controllers/src/index.ts&#45;&gt;packages/UI/controllers/src/switcher/index.ts</title>
<path fill="none" stroke="#000000" stroke-width="2" stroke-opacity="0.200000" d="M408.21,-443.45C431.81,-457.01 476.55,-482.72 503.16,-498.01"/>
<polygon fill="#000000" fill-opacity="0.200000" stroke="#000000" stroke-width="2" stroke-opacity="0.200000" points="507.5,-502.92 503.35,-498.11 509.59,-499.28 507.5,-502.92"/>
</g>
<!-- packages/UI/controllers/src/color&#45;selector.ts/color&#45;selector.ts -->
<g id="node3" class="node">
<title>packages/UI/controllers/src/color&#45;selector.ts/color&#45;selector.ts</title>
<g id="a_node3"><a xlink:href="packages/UI/controllers/src/color-selector.ts/color-selector.ts" xlink:title="color&#45;selector.ts">
<path fill="#ddfeff" stroke="black" d="M471.19,-229.73C471.19,-229.73 397.19,-229.73 397.19,-229.73 394.19,-229.73 391.19,-226.73 391.19,-223.73 391.19,-223.73 391.19,-217.73 391.19,-217.73 391.19,-214.73 394.19,-211.73 397.19,-211.73 397.19,-211.73 471.19,-211.73 471.19,-211.73 474.19,-211.73 477.19,-214.73 477.19,-217.73 477.19,-217.73 477.19,-223.73 477.19,-223.73 477.19,-226.73 474.19,-229.73 471.19,-229.73"/>
<text text-anchor="middle" x="434.19" y="-218.53" font-family="Helvetica,sans-Serif" font-size="9.00">color&#45;selector.ts</text>
</a>
</g>
</g>
<!-- packages/UI/controllers/src/color&#45;selector.ts/color&#45;selector.ts&#45;&gt;packages/UI/controllers/src/controller/index.ts -->
<g id="edge2" class="edge">
<title>packages/UI/controllers/src/color&#45;selector.ts/color&#45;selector.ts&#45;&gt;packages/UI/controllers/src/controller/index.ts</title>
<path fill="none" stroke="#000000" stroke-width="2" stroke-opacity="0.200000" d="M435.51,-230.01C438.76,-252.82 447.18,-311.88 451.2,-340.14"/>
<polygon fill="#000000" fill-opacity="0.200000" stroke="#000000" stroke-width="2" stroke-opacity="0.200000" points="449.16,-340.66 452.08,-346.31 453.31,-340.07 449.16,-340.66"/>
</g>
<!-- packages/UI/controllers/src/controller/controller.ts -->
<g id="node11" class="node">
<title>packages/UI/controllers/src/controller/controller.ts</title>
<g id="a_node11"><a xlink:href="packages/UI/controllers/src/controller/controller.ts" xlink:title="controller.ts">
<path fill="#ddfeff" stroke="black" d="M606.53,-278.94C606.53,-278.94 548.53,-278.94 548.53,-278.94 545.53,-278.94 542.53,-275.94 542.53,-272.94 542.53,-272.94 542.53,-266.94 542.53,-266.94 542.53,-263.94 545.53,-260.94 548.53,-260.94 548.53,-260.94 606.53,-260.94 606.53,-260.94 609.53,-260.94 612.53,-263.94 612.53,-266.94 612.53,-266.94 612.53,-272.94 612.53,-272.94 612.53,-275.94 609.53,-278.94 606.53,-278.94"/>
<text text-anchor="start" x="550.53" y="-267.74" font-family="Helvetica,sans-Serif" font-size="9.00">controller.ts</text>
</a>
</g>
</g>
<!-- packages/UI/controllers/src/controller/index.ts&#45;&gt;packages/UI/controllers/src/controller/controller.ts -->
<g id="edge13" class="edge">
<title>packages/UI/controllers/src/controller/index.ts&#45;&gt;packages/UI/controllers/src/controller/controller.ts</title>
<path fill="none" stroke="#000000" stroke-width="2" stroke-opacity="0.200000" d="M466.69,-346.47C489,-331.07 534,-299.99 559.26,-282.55"/>
<polygon fill="#000000" fill-opacity="0.200000" stroke="#000000" stroke-width="2" stroke-opacity="0.200000" points="565.53,-280.77 559.4,-282.45 563.15,-277.31 565.53,-280.77"/>
</g>
<!-- packages/UI/controllers/src/color&#45;selector.ts/index.ts&#45;&gt;packages/UI/controllers/src/color&#45;selector.ts/color&#45;selector.ts -->
<g id="edge3" class="edge">
<title>packages/UI/controllers/src/color&#45;selector.ts/index.ts&#45;&gt;packages/UI/controllers/src/color&#45;selector.ts/color&#45;selector.ts</title>
<path fill="none" stroke="#000000" stroke-width="2" stroke-opacity="0.200000" d="M357.41,-261.25C372.65,-253.2 394.99,-241.42 411.64,-232.63"/>
<polygon fill="#000000" fill-opacity="0.200000" stroke="#000000" stroke-width="2" stroke-opacity="0.200000" points="418.04,-231.63 411.75,-232.58 416.08,-227.92 418.04,-231.63"/>
</g>
<!-- packages/UI/controllers/src/color&#45;selector.ts/irm&#45;color&#45;selector.ts -->
<g id="node6" class="node">
<title>packages/UI/controllers/src/color&#45;selector.ts/irm&#45;color&#45;selector.ts</title>
<g id="a_node6"><a xlink:href="packages/UI/controllers/src/color-selector.ts/irm-color-selector.ts" xlink:title="irm&#45;color&#45;selector.ts">
<path fill="#ddfeff" stroke="black" d="M400.43,-146.77C400.43,-146.77 308.43,-146.77 308.43,-146.77 305.43,-146.77 302.43,-143.77 302.43,-140.77 302.43,-140.77 302.43,-134.77 302.43,-134.77 302.43,-131.77 305.43,-128.77 308.43,-128.77 308.43,-128.77 400.43,-128.77 400.43,-128.77 403.43,-128.77 406.43,-131.77 406.43,-134.77 406.43,-134.77 406.43,-140.77 406.43,-140.77 406.43,-143.77 403.43,-146.77 400.43,-146.77"/>
<text text-anchor="start" x="310.43" y="-135.57" font-family="Helvetica,sans-Serif" font-size="9.00">irm&#45;color&#45;selector.ts</text>
</a>
</g>
</g>
<!-- packages/UI/controllers/src/color&#45;selector.ts/index.ts&#45;&gt;packages/UI/controllers/src/color&#45;selector.ts/irm&#45;color&#45;selector.ts -->
<g id="edge4" class="edge">
<title>packages/UI/controllers/src/color&#45;selector.ts/index.ts&#45;&gt;packages/UI/controllers/src/color&#45;selector.ts/irm&#45;color&#45;selector.ts</title>
<path fill="none" stroke="#000000" stroke-width="2" stroke-opacity="0.200000" d="M341.15,-261.23C343.56,-238.81 349.8,-180.77 352.79,-153"/>
<polygon fill="#000000" fill-opacity="0.200000" stroke="#000000" stroke-width="2" stroke-opacity="0.200000" points="355.53,-147.17 352.8,-152.91 351.35,-146.72 355.53,-147.17"/>
</g>
<!-- packages/UI/controllers/src/color&#45;selector.ts/melody&#45;color&#45;controller.ts -->
<g id="node7" class="node">
<title>packages/UI/controllers/src/color&#45;selector.ts/melody&#45;color&#45;controller.ts</title>
<g id="a_node7"><a xlink:href="packages/UI/controllers/src/color-selector.ts/melody-color-controller.ts" xlink:title="melody&#45;color&#45;controller.ts">
<path fill="#ddfeff" stroke="black" d="M304.37,-172.77C304.37,-172.77 186.37,-172.77 186.37,-172.77 183.37,-172.77 180.37,-169.77 180.37,-166.77 180.37,-166.77 180.37,-160.77 180.37,-160.77 180.37,-157.77 183.37,-154.77 186.37,-154.77 186.37,-154.77 304.37,-154.77 304.37,-154.77 307.37,-154.77 310.37,-157.77 310.37,-160.77 310.37,-160.77 310.37,-166.77 310.37,-166.77 310.37,-169.77 307.37,-172.77 304.37,-172.77"/>
<text text-anchor="start" x="188.37" y="-161.57" font-family="Helvetica,sans-Serif" font-size="9.00">melody&#45;color&#45;controller.ts</text>
</a>
</g>
</g>
<!-- packages/UI/controllers/src/color&#45;selector.ts/index.ts&#45;&gt;packages/UI/controllers/src/color&#45;selector.ts/melody&#45;color&#45;controller.ts -->
<g id="edge5" class="edge">
<title>packages/UI/controllers/src/color&#45;selector.ts/index.ts&#45;&gt;packages/UI/controllers/src/color&#45;selector.ts/melody&#45;color&#45;controller.ts</title>
<path fill="none" stroke="#000000" stroke-width="2" stroke-opacity="0.200000" d="M332.08,-261.26C315.43,-242.54 277.23,-199.58 257.56,-177.47"/>
<polygon fill="#000000" fill-opacity="0.200000" stroke="#000000" stroke-width="2" stroke-opacity="0.200000" points="255,-171.44 257.42,-177.32 251.86,-174.23 255,-171.44"/>
</g>
<!-- packages/UI/controllers/src/color&#45;selector.ts/irm&#45;color&#45;selector.ts&#45;&gt;packages/UI/controllers/src/color&#45;selector.ts/color&#45;selector.ts -->
<g id="edge6" class="edge">
<title>packages/UI/controllers/src/color&#45;selector.ts/irm&#45;color&#45;selector.ts&#45;&gt;packages/UI/controllers/src/color&#45;selector.ts/color&#45;selector.ts</title>
<path fill="none" stroke="#000000" stroke-width="2" stroke-opacity="0.200000" d="M363.27,-146.96C377.28,-161.54 404.68,-190.04 421.02,-207.03"/>
<polygon fill="#000000" fill-opacity="0.200000" stroke="#000000" stroke-width="2" stroke-opacity="0.200000" points="419.64,-208.63 425.31,-211.5 422.67,-205.72 419.64,-208.63"/>
</g>
<!-- packages/cognitive&#45;theory&#45;of&#45;music/irm/dist/index.js -->
<g id="node8" class="node">
<title>packages/cognitive&#45;theory&#45;of&#45;music/irm/dist/index.js</title>
<g id="a_node8"><a xlink:href="packages/cognitive-theory-of-music/irm/dist/index.js" xlink:title="index.js">
<polygon fill="#ffffcc" stroke="black" points="407.01,-18 405.51,-20 395.01,-20 393.51,-18 353.01,-18 353.01,0 407.01,0 407.01,-18"/>
<text text-anchor="start" x="362.51" y="-6.8" font-family="Helvetica,sans-Serif" font-size="9.00">index.js</text>
</a>
</g>
</g>
<!-- packages/UI/controllers/src/color&#45;selector.ts/irm&#45;color&#45;selector.ts&#45;&gt;packages/cognitive&#45;theory&#45;of&#45;music/irm/dist/index.js -->
<g id="edge7" class="edge">
<title>packages/UI/controllers/src/color&#45;selector.ts/irm&#45;color&#45;selector.ts&#45;&gt;packages/cognitive&#45;theory&#45;of&#45;music/irm/dist/index.js</title>
<path fill="none" stroke="#000000" stroke-width="2" stroke-opacity="0.200000" d="M356.27,-128.51C360.64,-106.51 371.67,-50.96 377.01,-24.06"/>
<polygon fill="#000000" fill-opacity="0.200000" stroke="#000000" stroke-width="2" stroke-opacity="0.200000" points="379.07,-24.47 378.18,-18.18 374.95,-23.65 379.07,-24.47"/>
</g>
<!-- packages/UI/controllers/src/color&#45;selector.ts/melody&#45;color&#45;controller.ts&#45;&gt;packages/UI/controllers/src/color&#45;selector.ts/irm&#45;color&#45;selector.ts -->
<g id="edge8" class="edge">
<title>packages/UI/controllers/src/color&#45;selector.ts/melody&#45;color&#45;controller.ts&#45;&gt;packages/UI/controllers/src/color&#45;selector.ts/irm&#45;color&#45;selector.ts</title>
<path fill="none" stroke="#000000" stroke-width="2" stroke-opacity="0.200000" d="M283.21,-154.75C292.09,-152.63 301.63,-150.36 310.74,-148.18"/>
<polygon fill="#000000" fill-opacity="0.200000" stroke="#000000" stroke-width="2" stroke-opacity="0.200000" points="311.31,-150.21 316.66,-146.77 310.33,-146.12 311.31,-150.21"/>
</g>
<!-- packages/UI/controllers/src/color&#45;selector.ts/melody&#45;color&#45;selector.ts -->
<g id="node9" class="node">
<title>packages/UI/controllers/src/color&#45;selector.ts/melody&#45;color&#45;selector.ts</title>
<g id="a_node9"><a xlink:href="packages/UI/controllers/src/color-selector.ts/melody-color-selector.ts" xlink:title="melody&#45;color&#45;selector.ts">
<path fill="#ddfeff" stroke="black" d="M326.24,-49.85C326.24,-49.85 216.24,-49.85 216.24,-49.85 213.24,-49.85 210.24,-46.85 210.24,-43.85 210.24,-43.85 210.24,-37.85 210.24,-37.85 210.24,-34.85 213.24,-31.85 216.24,-31.85 216.24,-31.85 326.24,-31.85 326.24,-31.85 329.24,-31.85 332.24,-34.85 332.24,-37.85 332.24,-37.85 332.24,-43.85 332.24,-43.85 332.24,-46.85 329.24,-49.85 326.24,-49.85"/>
<text text-anchor="start" x="218.24" y="-38.65" font-family="Helvetica,sans-Serif" font-size="9.00">melody&#45;color&#45;selector.ts</text>
</a>
</g>
</g>
<!-- packages/UI/controllers/src/color&#45;selector.ts/melody&#45;color&#45;controller.ts&#45;&gt;packages/UI/controllers/src/color&#45;selector.ts/melody&#45;color&#45;selector.ts -->
<g id="edge9" class="edge">
<title>packages/UI/controllers/src/color&#45;selector.ts/melody&#45;color&#45;controller.ts&#45;&gt;packages/UI/controllers/src/color&#45;selector.ts/melody&#45;color&#45;selector.ts</title>
<path fill="none" stroke="#000000" stroke-width="2" stroke-opacity="0.200000" d="M247.32,-154.53C251.76,-133.43 262.68,-81.53 268.09,-55.8"/>
<polygon fill="#000000" fill-opacity="0.200000" stroke="#000000" stroke-width="2" stroke-opacity="0.200000" points="270.16,-56.16 269.34,-49.86 266.05,-55.3 270.16,-56.16"/>
</g>
<!-- packages/UI/controllers/src/color&#45;selector.ts/melody&#45;color&#45;selector.ts&#45;&gt;packages/UI/controllers/src/color&#45;selector.ts/irm&#45;color&#45;selector.ts -->
<g id="edge10" class="edge">
<title>packages/UI/controllers/src/color&#45;selector.ts/melody&#45;color&#45;selector.ts&#45;&gt;packages/UI/controllers/src/color&#45;selector.ts/irm&#45;color&#45;selector.ts</title>
<path fill="none" stroke="#000000" stroke-width="2" stroke-opacity="0.200000" d="M279.21,-50.14C293.91,-67.26 325.33,-103.87 342.54,-123.92"/>
<polygon fill="#000000" fill-opacity="0.200000" stroke="#000000" stroke-width="2" stroke-opacity="0.200000" points="341.09,-125.46 346.6,-128.64 344.28,-122.72 341.09,-125.46"/>
</g>
<!-- packages/UI/controllers/src/color&#45;selector.ts/melody&#45;color&#45;selector.ts&#45;&gt;packages/cognitive&#45;theory&#45;of&#45;music/irm/dist/index.js -->
<g id="edge11" class="edge">
<title>packages/UI/controllers/src/color&#45;selector.ts/melody&#45;color&#45;selector.ts&#45;&gt;packages/cognitive&#45;theory&#45;of&#45;music/irm/dist/index.js</title>
<path fill="none" stroke="#000000" stroke-width="2" stroke-opacity="0.200000" d="M302.11,-31.81C316.07,-27.72 332.59,-22.88 346.81,-18.72"/>
<polygon fill="#000000" fill-opacity="0.200000" stroke="#000000" stroke-width="2" stroke-opacity="0.200000" points="347.59,-20.68 352.76,-16.98 346.41,-16.65 347.59,-20.68"/>
</g>
<!-- packages/UI/controllers/src/controller/controller&#45;view.ts -->
<g id="node10" class="node">
<title>packages/UI/controllers/src/controller/controller&#45;view.ts</title>
<g id="a_node10"><a xlink:href="packages/UI/controllers/src/controller/controller-view.ts" xlink:title="controller&#45;view.ts">
<path fill="#ddfeff" stroke="black" d="M736.16,-208.36C736.16,-208.36 656.16,-208.36 656.16,-208.36 653.16,-208.36 650.16,-205.36 650.16,-202.36 650.16,-202.36 650.16,-196.36 650.16,-196.36 650.16,-193.36 653.16,-190.36 656.16,-190.36 656.16,-190.36 736.16,-190.36 736.16,-190.36 739.16,-190.36 742.16,-193.36 742.16,-196.36 742.16,-196.36 742.16,-202.36 742.16,-202.36 742.16,-205.36 739.16,-208.36 736.16,-208.36"/>
<text text-anchor="start" x="658.16" y="-197.16" font-family="Helvetica,sans-Serif" font-size="9.00">controller&#45;view.ts</text>
</a>
</g>
</g>
<!-- packages/UI/controllers/src/controller/controller.ts&#45;&gt;packages/UI/controllers/src/controller/controller&#45;view.ts -->
<g id="edge12" class="edge">
<title>packages/UI/controllers/src/controller/controller.ts&#45;&gt;packages/UI/controllers/src/controller/controller&#45;view.ts</title>
<path fill="none" stroke="#000000" stroke-width="2" stroke-opacity="0.200000" d="M593.04,-260.71C614.2,-248.12 652.18,-225.53 675.67,-211.55"/>
<polygon fill="#000000" fill-opacity="0.200000" stroke="#000000" stroke-width="2" stroke-opacity="0.200000" points="676.94,-213.24 681.03,-208.37 674.8,-209.63 676.94,-213.24"/>
</g>
<!-- packages/UI/controllers/src/melody&#45;beep&#45;controller/melody&#45;beep&#45;controller.ts -->
<g id="node15" class="node">
<title>packages/UI/controllers/src/melody&#45;beep&#45;controller/melody&#45;beep&#45;controller.ts</title>
<g id="a_node15"><a xlink:href="packages/UI/controllers/src/melody-beep-controller/melody-beep-controller.ts" xlink:title="melody&#45;beep&#45;controller.ts">
<path fill="#ddfeff" stroke="black" d="M469.59,-710.25C469.59,-710.25 350.59,-710.25 350.59,-710.25 347.59,-710.25 344.59,-707.25 344.59,-704.25 344.59,-704.25 344.59,-698.25 344.59,-698.25 344.59,-695.25 347.59,-692.25 350.59,-692.25 350.59,-692.25 469.59,-692.25 469.59,-692.25 472.59,-692.25 475.59,-695.25 475.59,-698.25 475.59,-698.25 475.59,-704.25 475.59,-704.25 475.59,-707.25 472.59,-710.25 469.59,-710.25"/>
<text text-anchor="start" x="352.59" y="-699.05" font-family="Helvetica,sans-Serif" font-size="9.00">melody&#45;beep&#45;controller.ts</text>
</a>
</g>
</g>
<!-- packages/UI/controllers/src/melody&#45;beep&#45;controller/index.ts&#45;&gt;packages/UI/controllers/src/melody&#45;beep&#45;controller/melody&#45;beep&#45;controller.ts -->
<g id="edge19" class="edge">
<title>packages/UI/controllers/src/melody&#45;beep&#45;controller/index.ts&#45;&gt;packages/UI/controllers/src/melody&#45;beep&#45;controller/melody&#45;beep&#45;controller.ts</title>
<path fill="none" stroke="#000000" stroke-width="2" stroke-opacity="0.200000" d="M404.18,-590.49C405.27,-610.87 407.93,-660.7 409.28,-685.99"/>
<polygon fill="#000000" fill-opacity="0.200000" stroke="#000000" stroke-width="2" stroke-opacity="0.200000" points="407.51,-692.25 409.29,-686.15 411.7,-692.03 407.51,-692.25"/>
</g>
<!-- packages/UI/controllers/src/melody&#45;beep&#45;controller/melody&#45;beep&#45;switcher.ts -->
<g id="node16" class="node">
<title>packages/UI/controllers/src/melody&#45;beep&#45;controller/melody&#45;beep&#45;switcher.ts</title>
<g id="a_node16"><a xlink:href="packages/UI/controllers/src/melody-beep-controller/melody-beep-switcher.ts" xlink:title="melody&#45;beep&#45;switcher.ts">
<path fill="#ddfeff" stroke="black" d="M575.59,-659.72C575.59,-659.72 460.59,-659.72 460.59,-659.72 457.59,-659.72 454.59,-656.72 454.59,-653.72 454.59,-653.72 454.59,-647.72 454.59,-647.72 454.59,-644.72 457.59,-641.72 460.59,-641.72 460.59,-641.72 575.59,-641.72 575.59,-641.72 578.59,-641.72 581.59,-644.72 581.59,-647.72 581.59,-647.72 581.59,-653.72 581.59,-653.72 581.59,-656.72 578.59,-659.72 575.59,-659.72"/>
<text text-anchor="start" x="462.59" y="-648.52" font-family="Helvetica,sans-Serif" font-size="9.00">melody&#45;beep&#45;switcher.ts</text>
</a>
</g>
</g>
<!-- packages/UI/controllers/src/melody&#45;beep&#45;controller/index.ts&#45;&gt;packages/UI/controllers/src/melody&#45;beep&#45;controller/melody&#45;beep&#45;switcher.ts -->
<g id="edge20" class="edge">
<title>packages/UI/controllers/src/melody&#45;beep&#45;controller/index.ts&#45;&gt;packages/UI/controllers/src/melody&#45;beep&#45;controller/melody&#45;beep&#45;switcher.ts</title>
<path fill="none" stroke="#000000" stroke-width="2" stroke-opacity="0.200000" d="M418.66,-590.54C438.95,-602.83 475.28,-624.81 497.96,-638.53"/>
<polygon fill="#000000" fill-opacity="0.200000" stroke="#000000" stroke-width="2" stroke-opacity="0.200000" points="502.05,-643.46 498,-638.56 504.22,-639.87 502.05,-643.46"/>
</g>
<!-- packages/UI/controllers/src/melody&#45;beep&#45;controller/melody&#45;beep&#45;volume.ts -->
<g id="node17" class="node">
<title>packages/UI/controllers/src/melody&#45;beep&#45;controller/melody&#45;beep&#45;volume.ts</title>
<g id="a_node17"><a xlink:href="packages/UI/controllers/src/melody-beep-controller/melody-beep-volume.ts" xlink:title="melody&#45;beep&#45;volume.ts">
<path fill="#ddfeff" stroke="black" d="M352.41,-669.83C352.41,-669.83 242.41,-669.83 242.41,-669.83 239.41,-669.83 236.41,-666.83 236.41,-663.83 236.41,-663.83 236.41,-657.83 236.41,-657.83 236.41,-654.83 239.41,-651.83 242.41,-651.83 242.41,-651.83 352.41,-651.83 352.41,-651.83 355.41,-651.83 358.41,-654.83 358.41,-657.83 358.41,-657.83 358.41,-663.83 358.41,-663.83 358.41,-666.83 355.41,-669.83 352.41,-669.83"/>
<text text-anchor="start" x="244.41" y="-658.63" font-family="Helvetica,sans-Serif" font-size="9.00">melody&#45;beep&#45;volume.ts</text>
</a>
</g>
</g>
<!-- packages/UI/controllers/src/melody&#45;beep&#45;controller/index.ts&#45;&gt;packages/UI/controllers/src/melody&#45;beep&#45;controller/melody&#45;beep&#45;volume.ts -->
<g id="edge21" class="edge">
<title>packages/UI/controllers/src/melody&#45;beep&#45;controller/index.ts&#45;&gt;packages/UI/controllers/src/melody&#45;beep&#45;controller/melody&#45;beep&#45;volume.ts</title>
<path fill="none" stroke="#000000" stroke-width="2" stroke-opacity="0.200000" d="M391.51,-590.59C372.63,-604.69 336.25,-631.84 314.68,-647.94"/>
<polygon fill="#000000" fill-opacity="0.200000" stroke="#000000" stroke-width="2" stroke-opacity="0.200000" points="308.53,-649.9 314.6,-648 311.04,-653.27 308.53,-649.9"/>
</g>
<!-- packages/UI/controllers/src/slider/abstract&#45;slider.ts -->
<g id="node18" class="node">
<title>packages/UI/controllers/src/slider/abstract&#45;slider.ts</title>
<g id="a_node18"><a xlink:href="packages/UI/controllers/src/slider/abstract-slider.ts" xlink:title="abstract&#45;slider.ts">
<path fill="#ddfeff" stroke="black" d="M329.1,-442.15C329.1,-442.15 249.1,-442.15 249.1,-442.15 246.1,-442.15 243.1,-439.15 243.1,-436.15 243.1,-436.15 243.1,-430.15 243.1,-430.15 243.1,-427.15 246.1,-424.15 249.1,-424.15 249.1,-424.15 329.1,-424.15 329.1,-424.15 332.1,-424.15 335.1,-427.15 335.1,-430.15 335.1,-430.15 335.1,-436.15 335.1,-436.15 335.1,-439.15 332.1,-442.15 329.1,-442.15"/>
<text text-anchor="start" x="251.1" y="-430.95" font-family="Helvetica,sans-Serif" font-size="9.00">abstract&#45;slider.ts</text>
</a>
</g>
</g>
<!-- packages/UI/controllers/src/slider/index.ts&#45;&gt;packages/UI/controllers/src/slider/abstract&#45;slider.ts -->
<g id="edge28" class="edge">
<title>packages/UI/controllers/src/slider/index.ts&#45;&gt;packages/UI/controllers/src/slider/abstract&#45;slider.ts</title>
<path fill="none" stroke="#000000" stroke-width="2" stroke-opacity="0.200000" d="M276.89,-516.39C279.22,-500.47 284.04,-467.64 286.88,-448.31"/>
<polygon fill="#000000" fill-opacity="0.200000" stroke="#000000" stroke-width="2" stroke-opacity="0.200000" points="289.83,-442.62 286.88,-448.25 285.68,-442.01 289.83,-442.62"/>
</g>
<!-- packages/UI/controllers/src/slider/hierarchy&#45;level.ts -->
<g id="node19" class="node">
<title>packages/UI/controllers/src/slider/hierarchy&#45;level.ts</title>
<g id="a_node19"><a xlink:href="packages/UI/controllers/src/slider/hierarchy-level.ts" xlink:title="hierarchy&#45;level.ts">
<path fill="#ddfeff" stroke="black" d="M211.06,-448.5C211.06,-448.5 129.06,-448.5 129.06,-448.5 126.06,-448.5 123.06,-445.5 123.06,-442.5 123.06,-442.5 123.06,-436.5 123.06,-436.5 123.06,-433.5 126.06,-430.5 129.06,-430.5 129.06,-430.5 211.06,-430.5 211.06,-430.5 214.06,-430.5 217.06,-433.5 217.06,-436.5 217.06,-436.5 217.06,-442.5 217.06,-442.5 217.06,-445.5 214.06,-448.5 211.06,-448.5"/>
<text text-anchor="start" x="131.06" y="-437.3" font-family="Helvetica,sans-Serif" font-size="9.00">hierarchy&#45;level.ts</text>
</a>
</g>
</g>
<!-- packages/UI/controllers/src/slider/index.ts&#45;&gt;packages/UI/controllers/src/slider/hierarchy&#45;level.ts -->
<g id="edge29" class="edge">
<title>packages/UI/controllers/src/slider/index.ts&#45;&gt;packages/UI/controllers/src/slider/hierarchy&#45;level.ts</title>
<path fill="none" stroke="#000000" stroke-width="2" stroke-opacity="0.200000" d="M264.25,-516.38C245.45,-501.04 207.69,-470.21 186.12,-452.61"/>
<polygon fill="#000000" fill-opacity="0.200000" stroke="#000000" stroke-width="2" stroke-opacity="0.200000" points="182.6,-447.02 185.92,-452.44 179.94,-450.28 182.6,-447.02"/>
</g>
<!-- packages/UI/controllers/src/slider/time&#45;range&#45;slider.ts -->
<g id="node20" class="node">
<title>packages/UI/controllers/src/slider/time&#45;range&#45;slider.ts</title>
<g id="a_node20"><a xlink:href="packages/UI/controllers/src/slider/time-range-slider.ts" xlink:title="time&#45;range&#45;slider.ts">
<path fill="#ddfeff" stroke="black" d="M216.02,-543.5C216.02,-543.5 124.02,-543.5 124.02,-543.5 121.02,-543.5 118.02,-540.5 118.02,-537.5 118.02,-537.5 118.02,-531.5 118.02,-531.5 118.02,-528.5 121.02,-525.5 124.02,-525.5 124.02,-525.5 216.02,-525.5 216.02,-525.5 219.02,-525.5 222.02,-528.5 222.02,-531.5 222.02,-531.5 222.02,-537.5 222.02,-537.5 222.02,-540.5 219.02,-543.5 216.02,-543.5"/>
<text text-anchor="start" x="126.02" y="-532.3" font-family="Helvetica,sans-Serif" font-size="9.00">time&#45;range&#45;slider.ts</text>
</a>
</g>
</g>
<!-- packages/UI/controllers/src/slider/index.ts&#45;&gt;packages/UI/controllers/src/slider/time&#45;range&#45;slider.ts -->
<g id="edge30" class="edge">
<title>packages/UI/controllers/src/slider/index.ts&#45;&gt;packages/UI/controllers/src/slider/time&#45;range&#45;slider.ts</title>
<path fill="none" stroke="#000000" stroke-width="2" stroke-opacity="0.200000" d="M248.36,-527.89C242.19,-528.41 235.4,-528.98 228.48,-529.57"/>
<polygon fill="#000000" fill-opacity="0.200000" stroke="#000000" stroke-width="2" stroke-opacity="0.200000" points="221.93,-528.01 228.08,-529.6 222.28,-532.2 221.93,-528.01"/>
</g>
<!-- packages/UI/controllers/src/switcher/abstract&#45;switcher.ts -->
<g id="node22" class="node">
<title>packages/UI/controllers/src/switcher/abstract&#45;switcher.ts</title>
<g id="a_node22"><a xlink:href="packages/UI/controllers/src/switcher/abstract-switcher.ts" xlink:title="abstract&#45;switcher.ts">
<path fill="#ddfeff" stroke="black" d="M622.21,-432.37C622.21,-432.37 528.21,-432.37 528.21,-432.37 525.21,-432.37 522.21,-429.37 522.21,-426.37 522.21,-426.37 522.21,-420.37 522.21,-420.37 522.21,-417.37 525.21,-414.37 528.21,-414.37 528.21,-414.37 622.21,-414.37 622.21,-414.37 625.21,-414.37 628.21,-417.37 628.21,-420.37 628.21,-420.37 628.21,-426.37 628.21,-426.37 628.21,-429.37 625.21,-432.37 622.21,-432.37"/>
<text text-anchor="start" x="530.21" y="-421.17" font-family="Helvetica,sans-Serif" font-size="9.00">abstract&#45;switcher.ts</text>
</a>
</g>
</g>
<!-- packages/UI/controllers/src/switcher/index.ts&#45;&gt;packages/UI/controllers/src/switcher/abstract&#45;switcher.ts -->
<g id="edge36" class="edge">
<title>packages/UI/controllers/src/switcher/index.ts&#45;&gt;packages/UI/controllers/src/switcher/abstract&#45;switcher.ts</title>
<path fill="none" stroke="#000000" stroke-width="2" stroke-opacity="0.200000" d="M530.02,-501.02C538.77,-485.99 556.09,-456.22 566.56,-438.22"/>
<polygon fill="#000000" fill-opacity="0.200000" stroke="#000000" stroke-width="2" stroke-opacity="0.200000" points="571.65,-433.66 566.81,-437.79 568.02,-431.55 571.65,-433.66"/>
</g>
<!-- packages/UI/controllers/src/switcher/d&#45;melody&#45;switcher.ts -->
<g id="node23" class="node">
<title>packages/UI/controllers/src/switcher/d&#45;melody&#45;switcher.ts</title>
<g id="a_node23"><a xlink:href="packages/UI/controllers/src/switcher/d-melody-switcher.ts" xlink:title="d&#45;melody&#45;switcher.ts">
<path fill="#ddfeff" stroke="black" d="M687.46,-550.9C687.46,-550.9 589.46,-550.9 589.46,-550.9 586.46,-550.9 583.46,-547.9 583.46,-544.9 583.46,-544.9 583.46,-538.9 583.46,-538.9 583.46,-535.9 586.46,-532.9 589.46,-532.9 589.46,-532.9 687.46,-532.9 687.46,-532.9 690.46,-532.9 693.46,-535.9 693.46,-538.9 693.46,-538.9 693.46,-544.9 693.46,-544.9 693.46,-547.9 690.46,-550.9 687.46,-550.9"/>
<text text-anchor="start" x="591.46" y="-539.7" font-family="Helvetica,sans-Serif" font-size="9.00">d&#45;melody&#45;switcher.ts</text>
</a>
</g>
</g>
<!-- packages/UI/controllers/src/switcher/index.ts&#45;&gt;packages/UI/controllers/src/switcher/d&#45;melody&#45;switcher.ts -->
<g id="edge37" class="edge">
<title>packages/UI/controllers/src/switcher/index.ts&#45;&gt;packages/UI/controllers/src/switcher/d&#45;melody&#45;switcher.ts</title>
<path fill="none" stroke="#000000" stroke-width="2" stroke-opacity="0.200000" d="M551.88,-517.89C566.16,-521.85 583.91,-526.77 599.61,-531.13"/>
<polygon fill="#000000" fill-opacity="0.200000" stroke="#000000" stroke-width="2" stroke-opacity="0.200000" points="605.18,-534.85 599.96,-531.22 606.3,-530.8 605.18,-534.85"/>
</g>
<!-- packages/UI/controllers/src/switcher/gravity&#45;switcher.ts -->
<g id="node24" class="node">
<title>packages/UI/controllers/src/switcher/gravity&#45;switcher.ts</title>
<g id="a_node24"><a xlink:href="packages/UI/controllers/src/switcher/gravity-switcher.ts" xlink:title="gravity&#45;switcher.ts">
<path fill="#ddfeff" stroke="black" d="M709.45,-476.36C709.45,-476.36 621.45,-476.36 621.45,-476.36 618.45,-476.36 615.45,-473.36 615.45,-470.36 615.45,-470.36 615.45,-464.36 615.45,-464.36 615.45,-461.36 618.45,-458.36 621.45,-458.36 621.45,-458.36 709.45,-458.36 709.45,-458.36 712.45,-458.36 715.45,-461.36 715.45,-464.36 715.45,-464.36 715.45,-470.36 715.45,-470.36 715.45,-473.36 712.45,-476.36 709.45,-476.36"/>
<text text-anchor="start" x="623.45" y="-465.16" font-family="Helvetica,sans-Serif" font-size="9.00">gravity&#45;switcher.ts</text>
</a>
</g>
</g>
<!-- packages/UI/controllers/src/switcher/index.ts&#45;&gt;packages/UI/controllers/src/switcher/gravity&#45;switcher.ts -->
<g id="edge38" class="edge">
<title>packages/UI/controllers/src/switcher/index.ts&#45;&gt;packages/UI/controllers/src/switcher/gravity&#45;switcher.ts</title>
<path fill="none" stroke="#000000" stroke-width="2" stroke-opacity="0.200000" d="M551.76,-502.05C574.02,-495.26 605.69,-485.59 629.95,-478.19"/>
<polygon fill="#000000" fill-opacity="0.200000" stroke="#000000" stroke-width="2" stroke-opacity="0.200000" points="636.56,-478.37 630.21,-478.11 635.34,-474.35 636.56,-478.37"/>
</g>
<!-- packages/UI/controllers/src/melody&#45;beep&#45;controller/melody&#45;beep&#45;controller.ts&#45;&gt;packages/UI/controllers/src/melody&#45;beep&#45;controller/melody&#45;beep&#45;switcher.ts -->
<g id="edge22" class="edge">
<title>packages/UI/controllers/src/melody&#45;beep&#45;controller/melody&#45;beep&#45;controller.ts&#45;&gt;packages/UI/controllers/src/melody&#45;beep&#45;controller/melody&#45;beep&#45;switcher.ts</title>
<path fill="none" stroke="#000000" stroke-width="2" stroke-opacity="0.200000" d="M429.4,-692.21C447.11,-683.93 473.44,-671.61 492.81,-662.54"/>
<polygon fill="#000000" fill-opacity="0.200000" stroke="#000000" stroke-width="2" stroke-opacity="0.200000" points="494.04,-664.29 498.59,-659.84 492.26,-660.48 494.04,-664.29"/>
</g>
<!-- packages/UI/controllers/src/melody&#45;beep&#45;controller/melody&#45;beep&#45;controller.ts&#45;&gt;packages/UI/controllers/src/melody&#45;beep&#45;controller/melody&#45;beep&#45;volume.ts -->
<g id="edge23" class="edge">
<title>packages/UI/controllers/src/melody&#45;beep&#45;controller/melody&#45;beep&#45;controller.ts&#45;&gt;packages/UI/controllers/src/melody&#45;beep&#45;controller/melody&#45;beep&#45;volume.ts</title>
<path fill="none" stroke="#000000" stroke-width="2" stroke-opacity="0.200000" d="M384.8,-692.18C368.13,-686.19 346.18,-678.32 328.45,-671.96"/>
<polygon fill="#000000" fill-opacity="0.200000" stroke="#000000" stroke-width="2" stroke-opacity="0.200000" points="328.97,-669.92 322.61,-669.87 327.55,-673.87 328.97,-669.92"/>
</g>
<!-- packages/UI/controllers/src/melody&#45;beep&#45;controller/melody&#45;beep&#45;switcher.ts&#45;&gt;packages/UI/controllers/src/switcher/index.ts -->
<g id="edge24" class="edge">
<title>packages/UI/controllers/src/melody&#45;beep&#45;controller/melody&#45;beep&#45;switcher.ts&#45;&gt;packages/UI/controllers/src/switcher/index.ts</title>
<path fill="none" stroke="#000000" stroke-width="2" stroke-opacity="0.200000" d="M518.52,-641.51C519.61,-617.9 522.53,-555.04 523.89,-525.75"/>
<polygon fill="#000000" fill-opacity="0.200000" stroke="#000000" stroke-width="2" stroke-opacity="0.200000" points="526.01,-525.48 524.19,-519.39 521.81,-525.29 526.01,-525.48"/>
</g>
<!-- packages/UI/controllers/src/melody&#45;beep&#45;controller/melody&#45;beep&#45;volume.ts&#45;&gt;packages/UI/controllers/src/slider/index.ts -->
<g id="edge25" class="edge">
<title>packages/UI/controllers/src/melody&#45;beep&#45;controller/melody&#45;beep&#45;volume.ts&#45;&gt;packages/UI/controllers/src/slider/index.ts</title>
<path fill="none" stroke="#000000" stroke-width="2" stroke-opacity="0.200000" d="M295.91,-651.53C292.19,-628.55 282.54,-568.89 277.98,-540.73"/>
<polygon fill="#000000" fill-opacity="0.200000" stroke="#000000" stroke-width="2" stroke-opacity="0.200000" points="280.02,-540.19 276.99,-534.6 275.88,-540.86 280.02,-540.19"/>
</g>
<!-- packages/UI/controllers/src/slider/abstract&#45;slider.ts&#45;&gt;packages/UI/controllers/src/controller/index.ts -->
<g id="edge26" class="edge">
<title>packages/UI/controllers/src/slider/abstract&#45;slider.ts&#45;&gt;packages/UI/controllers/src/controller/index.ts</title>
<path fill="none" stroke="#000000" stroke-width="2" stroke-opacity="0.200000" d="M308.27,-424.1C338.12,-410.02 395.69,-382.87 428.65,-367.33"/>
<polygon fill="#000000" fill-opacity="0.200000" stroke="#000000" stroke-width="2" stroke-opacity="0.200000" points="429.58,-369.21 434.11,-364.75 427.79,-365.41 429.58,-369.21"/>
</g>
<!-- packages/UI/controllers/src/slider/hierarchy&#45;level.ts&#45;&gt;packages/UI/controllers/src/slider/abstract&#45;slider.ts -->
<g id="edge27" class="edge">
<title>packages/UI/controllers/src/slider/hierarchy&#45;level.ts&#45;&gt;packages/UI/controllers/src/slider/abstract&#45;slider.ts</title>
<path fill="none" stroke="#000000" stroke-width="2" stroke-opacity="0.200000" d="M217.11,-436.99C223.45,-436.65 229.98,-436.3 236.41,-435.96"/>
<polygon fill="#000000" fill-opacity="0.200000" stroke="#000000" stroke-width="2" stroke-opacity="0.200000" points="236.91,-438.04 242.78,-435.62 236.68,-433.84 236.91,-438.04"/>
</g>
<!-- packages/UI/controllers/src/slider/time&#45;range&#45;slider.ts&#45;&gt;packages/UI/controllers/src/slider/abstract&#45;slider.ts -->
<g id="edge31" class="edge">
<title>packages/UI/controllers/src/slider/time&#45;range&#45;slider.ts&#45;&gt;packages/UI/controllers/src/slider/abstract&#45;slider.ts</title>
<path fill="none" stroke="#000000" stroke-width="2" stroke-opacity="0.200000" d="M181.01,-525.15C202.29,-507.03 249.2,-467.11 273.63,-446.32"/>
<polygon fill="#000000" fill-opacity="0.200000" stroke="#000000" stroke-width="2" stroke-opacity="0.200000" points="275.27,-447.67 278.48,-442.18 272.55,-444.47 275.27,-447.67"/>
</g>
<!-- packages/UI/view&#45;parameters/src/piano&#45;roll/piano&#45;roll&#45;ratio.ts -->
<g id="node21" class="node">
<title>packages/UI/view&#45;parameters/src/piano&#45;roll/piano&#45;roll&#45;ratio.ts</title>
<g id="a_node21"><a xlink:href="packages/UI/view-parameters/src/piano-roll/piano-roll-ratio.ts" xlink:title="piano&#45;roll&#45;ratio.ts">
<path fill="#ddfeff" stroke="black" d="M87,-594.14C87,-594.14 6,-594.14 6,-594.14 3,-594.14 0,-591.14 0,-588.14 0,-588.14 0,-582.14 0,-582.14 0,-579.14 3,-576.14 6,-576.14 6,-576.14 87,-576.14 87,-576.14 90,-576.14 93,-579.14 93,-582.14 93,-582.14 93,-588.14 93,-588.14 93,-591.14 90,-594.14 87,-594.14"/>
<text text-anchor="start" x="8" y="-582.94" font-family="Helvetica,sans-Serif" font-size="9.00">piano&#45;roll&#45;ratio.ts</text>
</a>
</g>
</g>
<!-- packages/UI/controllers/src/slider/time&#45;range&#45;slider.ts&#45;&gt;packages/UI/view&#45;parameters/src/piano&#45;roll/piano&#45;roll&#45;ratio.ts -->
<g id="edge32" class="edge">
<title>packages/UI/controllers/src/slider/time&#45;range&#45;slider.ts&#45;&gt;packages/UI/view&#45;parameters/src/piano&#45;roll/piano&#45;roll&#45;ratio.ts</title>
<path fill="none" stroke="#000000" stroke-width="2" stroke-opacity="0.200000" d="M147.94,-543.55C127.42,-551.96 96.79,-564.52 74.55,-573.63"/>
<polygon fill="#000000" fill-opacity="0.200000" stroke="#000000" stroke-width="2" stroke-opacity="0.200000" points="73.56,-571.77 68.81,-575.99 75.16,-575.66 73.56,-571.77"/>
</g>
<!-- packages/UI/controllers/src/switcher/abstract&#45;switcher.ts&#45;&gt;packages/UI/controllers/src/controller/index.ts -->
<g id="edge33" class="edge">
<title>packages/UI/controllers/src/switcher/abstract&#45;switcher.ts&#45;&gt;packages/UI/controllers/src/controller/index.ts</title>
<path fill="none" stroke="#000000" stroke-width="2" stroke-opacity="0.200000" d="M558.78,-414.23C537.26,-402.27 499.45,-381.24 475.45,-367.9"/>
<polygon fill="#000000" fill-opacity="0.200000" stroke="#000000" stroke-width="2" stroke-opacity="0.200000" points="476.23,-365.93 469.97,-364.85 474.19,-369.6 476.23,-365.93"/>
</g>
<!-- packages/UI/controllers/src/switcher/d&#45;melody&#45;switcher.ts&#45;&gt;packages/UI/controllers/src/switcher/abstract&#45;switcher.ts -->
<g id="edge34" class="edge">
<title>packages/UI/controllers/src/switcher/d&#45;melody&#45;switcher.ts&#45;&gt;packages/UI/controllers/src/switcher/abstract&#45;switcher.ts</title>
<path fill="none" stroke="#000000" stroke-width="2" stroke-opacity="0.200000" d="M633.5,-532.6C622.55,-512.08 596.26,-462.82 583.06,-438.08"/>
<polygon fill="#000000" fill-opacity="0.200000" stroke="#000000" stroke-width="2" stroke-opacity="0.200000" points="584.82,-436.93 580.15,-432.63 581.12,-438.91 584.82,-436.93"/>
</g>
<!-- packages/UI/controllers/src/switcher/gravity&#45;switcher.ts&#45;&gt;packages/UI/controllers/src/switcher/abstract&#45;switcher.ts -->
<g id="edge35" class="edge">
<title>packages/UI/controllers/src/switcher/gravity&#45;switcher.ts&#45;&gt;packages/UI/controllers/src/switcher/abstract&#45;switcher.ts</title>
<path fill="none" stroke="#000000" stroke-width="2" stroke-opacity="0.200000" d="M646.75,-458.25C633.08,-451.58 614.41,-442.48 599.57,-435.24"/>
<polygon fill="#000000" fill-opacity="0.200000" stroke="#000000" stroke-width="2" stroke-opacity="0.200000" points="600.2,-433.21 593.88,-432.47 598.36,-436.99 600.2,-433.21"/>
</g>
</g>
</svg>
