<?xml version="1.0" encoding="UTF-8" standalone="no"?>
<!DOCTYPE svg PUBLIC "-//W3C//DTD SVG 1.1//EN"
 "http://www.w3.org/Graphics/SVG/1.1/DTD/svg11.dtd">
<!-- Generated by graphviz version 2.43.0 (0)
 -->
<!-- Title: dependency&#45;cruiser output Pages: 1 -->
<svg width="731pt" height="718pt"
 viewBox="0.00 0.00 730.66 718.25" xmlns="http://www.w3.org/2000/svg" xmlns:xlink="http://www.w3.org/1999/xlink">
<g id="graph0" class="graph" transform="scale(1 1) rotate(0) translate(4 714.25)">
<title>dependency&#45;cruiser output</title>
<polygon fill="white" stroke="transparent" points="-4,4 -4,-714.25 726.66,-714.25 726.66,4 -4,4"/>
<g id="clust1" class="cluster">
<title>cluster_packages</title>
<path fill="#ffffff" stroke="black" stroke-width="2" d="M12,0C12,0 710.66,0 710.66,0 716.66,0 722.66,-6 722.66,-12 722.66,-12 722.66,-698.25 722.66,-698.25 722.66,-704.25 716.66,-710.25 710.66,-710.25 710.66,-710.25 12,-710.25 12,-710.25 6,-710.25 0,-704.25 0,-698.25 0,-698.25 0,-12 0,-12 0,-6 6,0 12,0"/>
<text text-anchor="middle" x="361.33" y="-699.05" font-family="Helvetica,sans-Serif" font-weight="bold" font-size="9.00">packages</text>
</g>
<!-- packages/UI/controllers/index.ts -->
<g id="node1" class="node">
<title>packages/UI/controllers/index.ts</title>
<g id="a_node1"><a xlink:href="packages/UI/controllers/index.ts" xlink:title="index.ts">
<path fill="#ddfeff" stroke="black" d="M282.51,-380.75C282.51,-380.75 240.51,-380.75 240.51,-380.75 237.51,-380.75 234.51,-377.75 234.51,-374.75 234.51,-374.75 234.51,-368.75 234.51,-368.75 234.51,-365.75 237.51,-362.75 240.51,-362.75 240.51,-362.75 282.51,-362.75 282.51,-362.75 285.51,-362.75 288.51,-365.75 288.51,-368.75 288.51,-368.75 288.51,-374.75 288.51,-374.75 288.51,-377.75 285.51,-380.75 282.51,-380.75"/>
<text text-anchor="start" x="243.01" y="-369.55" font-family="Helvetica,sans-Serif" font-size="9.00">index.ts</text>
</a>
</g>
</g>
<!-- packages/UI/controllers/src/index.ts -->
<g id="node2" class="node">
<title>packages/UI/controllers/src/index.ts</title>
<g id="a_node2"><a xlink:href="packages/UI/controllers/src/index.ts" xlink:title="index.ts">
<path fill="#ddfeff" stroke="black" d="M394.04,-443.45C394.04,-443.45 352.04,-443.45 352.04,-443.45 349.04,-443.45 346.04,-440.45 346.04,-437.45 346.04,-437.45 346.04,-431.45 346.04,-431.45 346.04,-428.45 349.04,-425.45 352.04,-425.45 352.04,-425.45 394.04,-425.45 394.04,-425.45 397.04,-425.45 400.04,-428.45 400.04,-431.45 400.04,-431.45 400.04,-437.45 400.04,-437.45 400.04,-440.45 397.04,-443.45 394.04,-443.45"/>
<text text-anchor="start" x="354.54" y="-432.25" font-family="Helvetica,sans-Serif" font-size="9.00">index.ts</text>
</a>
</g>
</g>
<!-- packages/UI/controllers/index.ts&#45;&gt;packages/UI/controllers/src/index.ts -->
<g id="edge1" class="edge">
<title>packages/UI/controllers/index.ts&#45;&gt;packages/UI/controllers/src/index.ts</title>
<path fill="none" stroke="#000000" stroke-width="2" stroke-opacity="0.200000" d="M277.97,-381C297.43,-391.94 329.91,-410.2 351.4,-422.28"/>
<polygon fill="#000000" fill-opacity="0.200000" stroke="#000000" stroke-width="2" stroke-opacity="0.200000" points="355.85,-427.19 351.65,-422.42 357.91,-423.53 355.85,-427.19"/>
</g>
<!-- packages/UI/controllers/src/controller/index.ts -->
<g id="node4" class="node">
<title>packages/UI/controllers/src/controller/index.ts</title>
<g id="a_node4"><a xlink:href="packages/UI/controllers/src/controller/index.ts" xlink:title="index.ts">
<path fill="#ddfeff" stroke="black" d="M454.91,-364.64C454.91,-364.64 412.91,-364.64 412.91,-364.64 409.91,-364.64 406.91,-361.64 406.91,-358.64 406.91,-358.64 406.91,-352.64 406.91,-352.64 406.91,-349.64 409.91,-346.64 412.91,-346.64 412.91,-346.64 454.91,-346.64 454.91,-346.64 457.91,-346.64 460.91,-349.64 460.91,-352.64 460.91,-352.64 460.91,-358.64 460.91,-358.64 460.91,-361.64 457.91,-364.64 454.91,-364.64"/>
<text text-anchor="start" x="415.41" y="-353.44" font-family="Helvetica,sans-Serif" font-size="9.00">index.ts</text>
</a>
</g>
</g>
<!-- packages/UI/controllers/src/index.ts&#45;&gt;packages/UI/controllers/src/controller/index.ts -->
<g id="edge15" class="edge">
<title>packages/UI/controllers/src/index.ts&#45;&gt;packages/UI/controllers/src/controller/index.ts</title>
<path fill="none" stroke="#000000" stroke-width="2" stroke-opacity="0.200000" d="M380.02,-425.41C390.46,-411.9 410.23,-386.3 422.71,-370.15"/>
<polygon fill="#000000" fill-opacity="0.200000" stroke="#000000" stroke-width="2" stroke-opacity="0.200000" points="428.3,-366.35 422.97,-369.82 424.97,-363.78 428.3,-366.35"/>
</g>
<!-- packages/UI/controllers/src/color&#45;selector.ts/index.ts -->
<g id="node5" class="node">
<title>packages/UI/controllers/src/color&#45;selector.ts/index.ts</title>
<g id="a_node5"><a xlink:href="packages/UI/controllers/src/color-selector.ts/index.ts" xlink:title="index.ts">
<path fill="#ddfeff" stroke="black" d="M341.67,-279.35C341.67,-279.35 299.67,-279.35 299.67,-279.35 296.67,-279.35 293.67,-276.35 293.67,-273.35 293.67,-273.35 293.67,-267.35 293.67,-267.35 293.67,-264.35 296.67,-261.35 299.67,-261.35 299.67,-261.35 341.67,-261.35 341.67,-261.35 344.67,-261.35 347.67,-264.35 347.67,-267.35 347.67,-267.35 347.67,-273.35 347.67,-273.35 347.67,-276.35 344.67,-279.35 341.67,-279.35"/>
<text text-anchor="start" x="302.17" y="-268.15" font-family="Helvetica,sans-Serif" font-size="9.00">index.ts</text>
</a>
</g>
</g>
<!-- packages/UI/controllers/src/index.ts&#45;&gt;packages/UI/controllers/src/color&#45;selector.ts/index.ts -->
<g id="edge14" class="edge">
<title>packages/UI/controllers/src/index.ts&#45;&gt;packages/UI/controllers/src/color&#45;selector.ts/index.ts</title>
<path fill="none" stroke="#000000" stroke-width="2" stroke-opacity="0.200000" d="M370.08,-425.15C361.43,-398.08 336.21,-319.05 325.53,-285.59"/>
<polygon fill="#000000" fill-opacity="0.200000" stroke="#000000" stroke-width="2" stroke-opacity="0.200000" points="325.6,-278.9 325.42,-285.25 321.6,-280.18 325.6,-278.9"/>
</g>
<!-- packages/UI/controllers/src/melody&#45;beep&#45;controller/index.ts -->
<g id="node12" class="node">
<title>packages/UI/controllers/src/melody&#45;beep&#45;controller/index.ts</title>
<g id="a_node12"><a xlink:href="packages/UI/controllers/src/melody-beep-controller/index.ts" xlink:title="index.ts">
<path fill="#ddfeff" stroke="black" d="M405.2,-590.49C405.2,-590.49 363.2,-590.49 363.2,-590.49 360.2,-590.49 357.2,-587.49 357.2,-584.49 357.2,-584.49 357.2,-578.49 357.2,-578.49 357.2,-575.49 360.2,-572.49 363.2,-572.49 363.2,-572.49 405.2,-572.49 405.2,-572.49 408.2,-572.49 411.2,-575.49 411.2,-578.49 411.2,-578.49 411.2,-584.49 411.2,-584.49 411.2,-587.49 408.2,-590.49 405.2,-590.49"/>
<text text-anchor="start" x="365.7" y="-579.29" font-family="Helvetica,sans-Serif" font-size="9.00">index.ts</text>
</a>
</g>
</g>
<!-- packages/UI/controllers/src/index.ts&#45;&gt;packages/UI/controllers/src/melody&#45;beep&#45;controller/index.ts -->
<g id="edge16" class="edge">
<title>packages/UI/controllers/src/index.ts&#45;&gt;packages/UI/controllers/src/melody&#45;beep&#45;controller/index.ts</title>
<path fill="none" stroke="#000000" stroke-width="2" stroke-opacity="0.200000" d="M373.74,-443.65C375.6,-468.2 380.71,-535.47 383.03,-566.03"/>
<polygon fill="#000000" fill-opacity="0.200000" stroke="#000000" stroke-width="2" stroke-opacity="0.200000" points="381.41,-572.46 383.05,-566.32 385.6,-572.14 381.41,-572.46"/>
</g>
<!-- packages/UI/controllers/src/slider/index.ts -->
<g id="node13" class="node">
<title>packages/UI/controllers/src/slider/index.ts</title>
<g id="a_node13"><a xlink:href="packages/UI/controllers/src/slider/index.ts" xlink:title="index.ts">
<path fill="#ddfeff" stroke="black" d="M277.04,-534.59C277.04,-534.59 235.04,-534.59 235.04,-534.59 232.04,-534.59 229.04,-531.59 229.04,-528.59 229.04,-528.59 229.04,-522.59 229.04,-522.59 229.04,-519.59 232.04,-516.59 235.04,-516.59 235.04,-516.59 277.04,-516.59 277.04,-516.59 280.04,-516.59 283.04,-519.59 283.04,-522.59 283.04,-522.59 283.04,-528.59 283.04,-528.59 283.04,-531.59 280.04,-534.59 277.04,-534.59"/>
<text text-anchor="start" x="237.54" y="-523.39" font-family="Helvetica,sans-Serif" font-size="9.00">index.ts</text>
</a>
</g>
</g>
<!-- packages/UI/controllers/src/index.ts&#45;&gt;packages/UI/controllers/src/slider/index.ts -->
<g id="edge17" class="edge">
<title>packages/UI/controllers/src/index.ts&#45;&gt;packages/UI/controllers/src/slider/index.ts</title>
<path fill="none" stroke="#000000" stroke-width="2" stroke-opacity="0.200000" d="M361.39,-443.52C340.46,-459.83 296.41,-494.14 272.43,-512.82"/>
<polygon fill="#000000" fill-opacity="0.200000" stroke="#000000" stroke-width="2" stroke-opacity="0.200000" points="266.34,-514.9 272.37,-512.87 268.93,-518.22 266.34,-514.9"/>
</g>
<!-- packages/UI/controllers/src/switcher/index.ts -->
<g id="node14" class="node">
<title>packages/UI/controllers/src/switcher/index.ts</title>
<g id="a_node14"><a xlink:href="packages/UI/controllers/src/switcher/index.ts" xlink:title="index.ts">
<path fill="#ddfeff" stroke="black" d="M526.11,-519.33C526.11,-519.33 484.11,-519.33 484.11,-519.33 481.11,-519.33 478.11,-516.33 478.11,-513.33 478.11,-513.33 478.11,-507.33 478.11,-507.33 478.11,-504.33 481.11,-501.33 484.11,-501.33 484.11,-501.33 526.11,-501.33 526.11,-501.33 529.11,-501.33 532.11,-504.33 532.11,-507.33 532.11,-507.33 532.11,-513.33 532.11,-513.33 532.11,-516.33 529.11,-519.33 526.11,-519.33"/>
<text text-anchor="start" x="486.61" y="-508.13" font-family="Helvetica,sans-Serif" font-size="9.00">index.ts</text>
</a>
</g>
</g>
<!-- packages/UI/controllers/src/index.ts&#45;&gt;packages/UI/controllers/src/switcher/index.ts -->
<g id="edge18" class="edge">
<title>packages/UI/controllers/src/index.ts&#45;&gt;packages/UI/controllers/src/switcher/index.ts</title>
<path fill="none" stroke="#000000" stroke-width="2" stroke-opacity="0.200000" d="M388.71,-443.45C412.31,-457.01 457.05,-482.72 483.66,-498.01"/>
<polygon fill="#000000" fill-opacity="0.200000" stroke="#000000" stroke-width="2" stroke-opacity="0.200000" points="488,-502.92 483.85,-498.11 490.09,-499.28 488,-502.92"/>
</g>
<!-- packages/UI/controllers/src/color&#45;selector.ts/color&#45;selector.ts -->
<g id="node3" class="node">
<title>packages/UI/controllers/src/color&#45;selector.ts/color&#45;selector.ts</title>
<g id="a_node3"><a xlink:href="packages/UI/controllers/src/color-selector.ts/color-selector.ts" xlink:title="color&#45;selector.ts">
<path fill="#ddfeff" stroke="black" d="M451.69,-229.73C451.69,-229.73 377.69,-229.73 377.69,-229.73 374.69,-229.73 371.69,-226.73 371.69,-223.73 371.69,-223.73 371.69,-217.73 371.69,-217.73 371.69,-214.73 374.69,-211.73 377.69,-211.73 377.69,-211.73 451.69,-211.73 451.69,-211.73 454.69,-211.73 457.69,-214.73 457.69,-217.73 457.69,-217.73 457.69,-223.73 457.69,-223.73 457.69,-226.73 454.69,-229.73 451.69,-229.73"/>
<text text-anchor="middle" x="414.69" y="-218.53" font-family="Helvetica,sans-Serif" font-size="9.00">color&#45;selector.ts</text>
</a>
</g>
</g>
<!-- packages/UI/controllers/src/color&#45;selector.ts/color&#45;selector.ts&#45;&gt;packages/UI/controllers/src/controller/index.ts -->
<g id="edge2" class="edge">
<title>packages/UI/controllers/src/color&#45;selector.ts/color&#45;selector.ts&#45;&gt;packages/UI/controllers/src/controller/index.ts</title>
<path fill="none" stroke="#000000" stroke-width="2" stroke-opacity="0.200000" d="M416.01,-230.01C419.26,-252.82 427.68,-311.88 431.7,-340.14"/>
<polygon fill="#000000" fill-opacity="0.200000" stroke="#000000" stroke-width="2" stroke-opacity="0.200000" points="429.66,-340.66 432.58,-346.31 433.81,-340.07 429.66,-340.66"/>
</g>
<!-- packages/UI/controllers/src/controller/controller.ts -->
<g id="node11" class="node">
<title>packages/UI/controllers/src/controller/controller.ts</title>
<g id="a_node11"><a xlink:href="packages/UI/controllers/src/controller/controller.ts" xlink:title="controller.ts">
<path fill="#ddfeff" stroke="black" d="M587.03,-278.94C587.03,-278.94 529.03,-278.94 529.03,-278.94 526.03,-278.94 523.03,-275.94 523.03,-272.94 523.03,-272.94 523.03,-266.94 523.03,-266.94 523.03,-263.94 526.03,-260.94 529.03,-260.94 529.03,-260.94 587.03,-260.94 587.03,-260.94 590.03,-260.94 593.03,-263.94 593.03,-266.94 593.03,-266.94 593.03,-272.94 593.03,-272.94 593.03,-275.94 590.03,-278.94 587.03,-278.94"/>
<text text-anchor="start" x="531.03" y="-267.74" font-family="Helvetica,sans-Serif" font-size="9.00">controller.ts</text>
</a>
</g>
</g>
<!-- packages/UI/controllers/src/controller/index.ts&#45;&gt;packages/UI/controllers/src/controller/controller.ts -->
<g id="edge13" class="edge">
<title>packages/UI/controllers/src/controller/index.ts&#45;&gt;packages/UI/controllers/src/controller/controller.ts</title>
<path fill="none" stroke="#000000" stroke-width="2" stroke-opacity="0.200000" d="M447.19,-346.47C469.5,-331.07 514.5,-299.99 539.76,-282.55"/>
<polygon fill="#000000" fill-opacity="0.200000" stroke="#000000" stroke-width="2" stroke-opacity="0.200000" points="546.03,-280.77 539.9,-282.45 543.65,-277.31 546.03,-280.77"/>
</g>
<!-- packages/UI/controllers/src/color&#45;selector.ts/index.ts&#45;&gt;packages/UI/controllers/src/color&#45;selector.ts/color&#45;selector.ts -->
<g id="edge3" class="edge">
<title>packages/UI/controllers/src/color&#45;selector.ts/index.ts&#45;&gt;packages/UI/controllers/src/color&#45;selector.ts/color&#45;selector.ts</title>
<path fill="none" stroke="#000000" stroke-width="2" stroke-opacity="0.200000" d="M337.91,-261.25C353.15,-253.2 375.49,-241.42 392.14,-232.63"/>
<polygon fill="#000000" fill-opacity="0.200000" stroke="#000000" stroke-width="2" stroke-opacity="0.200000" points="398.54,-231.63 392.25,-232.58 396.58,-227.92 398.54,-231.63"/>
</g>
<!-- packages/UI/controllers/src/color&#45;selector.ts/irm&#45;color&#45;selector.ts -->
<g id="node6" class="node">
<title>packages/UI/controllers/src/color&#45;selector.ts/irm&#45;color&#45;selector.ts</title>
<g id="a_node6"><a xlink:href="packages/UI/controllers/src/color-selector.ts/irm-color-selector.ts" xlink:title="irm&#45;color&#45;selector.ts">
<path fill="#ddfeff" stroke="black" d="M380.93,-146.77C380.93,-146.77 288.93,-146.77 288.93,-146.77 285.93,-146.77 282.93,-143.77 282.93,-140.77 282.93,-140.77 282.93,-134.77 282.93,-134.77 282.93,-131.77 285.93,-128.77 288.93,-128.77 288.93,-128.77 380.93,-128.77 380.93,-128.77 383.93,-128.77 386.93,-131.77 386.93,-134.77 386.93,-134.77 386.93,-140.77 386.93,-140.77 386.93,-143.77 383.93,-146.77 380.93,-146.77"/>
<text text-anchor="start" x="290.93" y="-135.57" font-family="Helvetica,sans-Serif" font-size="9.00">irm&#45;color&#45;selector.ts</text>
</a>
</g>
</g>
<!-- packages/UI/controllers/src/color&#45;selector.ts/index.ts&#45;&gt;packages/UI/controllers/src/color&#45;selector.ts/irm&#45;color&#45;selector.ts -->
<g id="edge4" class="edge">
<title>packages/UI/controllers/src/color&#45;selector.ts/index.ts&#45;&gt;packages/UI/controllers/src/color&#45;selector.ts/irm&#45;color&#45;selector.ts</title>
<path fill="none" stroke="#000000" stroke-width="2" stroke-opacity="0.200000" d="M321.65,-261.23C324.06,-238.81 330.3,-180.77 333.29,-153"/>
<polygon fill="#000000" fill-opacity="0.200000" stroke="#000000" stroke-width="2" stroke-opacity="0.200000" points="336.03,-147.17 333.3,-152.91 331.85,-146.72 336.03,-147.17"/>
</g>
<!-- packages/UI/controllers/src/color&#45;selector.ts/melody&#45;color&#45;controller.ts -->
<g id="node7" class="node">
<title>packages/UI/controllers/src/color&#45;selector.ts/melody&#45;color&#45;controller.ts</title>
<g id="a_node7"><a xlink:href="packages/UI/controllers/src/color-selector.ts/melody-color-controller.ts" xlink:title="melody&#45;color&#45;controller.ts">
<path fill="#ddfeff" stroke="black" d="M284.87,-172.77C284.87,-172.77 166.87,-172.77 166.87,-172.77 163.87,-172.77 160.87,-169.77 160.87,-166.77 160.87,-166.77 160.87,-160.77 160.87,-160.77 160.87,-157.77 163.87,-154.77 166.87,-154.77 166.87,-154.77 284.87,-154.77 284.87,-154.77 287.87,-154.77 290.87,-157.77 290.87,-160.77 290.87,-160.77 290.87,-166.77 290.87,-166.77 290.87,-169.77 287.87,-172.77 284.87,-172.77"/>
<text text-anchor="start" x="168.87" y="-161.57" font-family="Helvetica,sans-Serif" font-size="9.00">melody&#45;color&#45;controller.ts</text>
</a>
</g>
</g>
<!-- packages/UI/controllers/src/color&#45;selector.ts/index.ts&#45;&gt;packages/UI/controllers/src/color&#45;selector.ts/melody&#45;color&#45;controller.ts -->
<g id="edge5" class="edge">
<title>packages/UI/controllers/src/color&#45;selector.ts/index.ts&#45;&gt;packages/UI/controllers/src/color&#45;selector.ts/melody&#45;color&#45;controller.ts</title>
<path fill="none" stroke="#000000" stroke-width="2" stroke-opacity="0.200000" d="M312.58,-261.26C295.93,-242.54 257.73,-199.58 238.06,-177.47"/>
<polygon fill="#000000" fill-opacity="0.200000" stroke="#000000" stroke-width="2" stroke-opacity="0.200000" points="235.5,-171.44 237.92,-177.32 232.36,-174.23 235.5,-171.44"/>
</g>
<!-- packages/UI/controllers/src/color&#45;selector.ts/irm&#45;color&#45;selector.ts&#45;&gt;packages/UI/controllers/src/color&#45;selector.ts/color&#45;selector.ts -->
<g id="edge6" class="edge">
<title>packages/UI/controllers/src/color&#45;selector.ts/irm&#45;color&#45;selector.ts&#45;&gt;packages/UI/controllers/src/color&#45;selector.ts/color&#45;selector.ts</title>
<path fill="none" stroke="#000000" stroke-width="2" stroke-opacity="0.200000" d="M343.77,-146.96C357.78,-161.54 385.18,-190.04 401.52,-207.03"/>
<polygon fill="#000000" fill-opacity="0.200000" stroke="#000000" stroke-width="2" stroke-opacity="0.200000" points="400.14,-208.63 405.81,-211.5 403.17,-205.72 400.14,-208.63"/>
</g>
<!-- packages/cognitive&#45;theory&#45;of&#45;music/irm/dist/index.js -->
<g id="node8" class="node">
<title>packages/cognitive&#45;theory&#45;of&#45;music/irm/dist/index.js</title>
<g id="a_node8"><a xlink:href="packages/cognitive-theory-of-music/irm/dist/index.js" xlink:title="index.js">
<polygon fill="#ffffcc" stroke="black" points="387.51,-18 386.01,-20 375.51,-20 374.01,-18 333.51,-18 333.51,0 387.51,0 387.51,-18"/>
<text text-anchor="start" x="343.01" y="-6.8" font-family="Helvetica,sans-Serif" font-size="9.00">index.js</text>
</a>
</g>
</g>
<!-- packages/UI/controllers/src/color&#45;selector.ts/irm&#45;color&#45;selector.ts&#45;&gt;packages/cognitive&#45;theory&#45;of&#45;music/irm/dist/index.js -->
<g id="edge7" class="edge">
<title>packages/UI/controllers/src/color&#45;selector.ts/irm&#45;color&#45;selector.ts&#45;&gt;packages/cognitive&#45;theory&#45;of&#45;music/irm/dist/index.js</title>
<path fill="none" stroke="#000000" stroke-width="2" stroke-opacity="0.200000" d="M336.77,-128.51C341.14,-106.51 352.17,-50.96 357.51,-24.06"/>
<polygon fill="#000000" fill-opacity="0.200000" stroke="#000000" stroke-width="2" stroke-opacity="0.200000" points="359.57,-24.47 358.68,-18.18 355.45,-23.65 359.57,-24.47"/>
</g>
<!-- packages/UI/controllers/src/color&#45;selector.ts/melody&#45;color&#45;controller.ts&#45;&gt;packages/UI/controllers/src/color&#45;selector.ts/irm&#45;color&#45;selector.ts -->
<g id="edge8" class="edge">
<title>packages/UI/controllers/src/color&#45;selector.ts/melody&#45;color&#45;controller.ts&#45;&gt;packages/UI/controllers/src/color&#45;selector.ts/irm&#45;color&#45;selector.ts</title>
<path fill="none" stroke="#000000" stroke-width="2" stroke-opacity="0.200000" d="M263.71,-154.75C272.59,-152.63 282.13,-150.36 291.24,-148.18"/>
<polygon fill="#000000" fill-opacity="0.200000" stroke="#000000" stroke-width="2" stroke-opacity="0.200000" points="291.81,-150.21 297.16,-146.77 290.83,-146.12 291.81,-150.21"/>
</g>
<!-- packages/UI/controllers/src/color&#45;selector.ts/melody&#45;color&#45;selector.ts -->
<g id="node9" class="node">
<title>packages/UI/controllers/src/color&#45;selector.ts/melody&#45;color&#45;selector.ts</title>
<g id="a_node9"><a xlink:href="packages/UI/controllers/src/color-selector.ts/melody-color-selector.ts" xlink:title="melody&#45;color&#45;selector.ts">
<path fill="#ddfeff" stroke="black" d="M306.74,-49.85C306.74,-49.85 196.74,-49.85 196.74,-49.85 193.74,-49.85 190.74,-46.85 190.74,-43.85 190.74,-43.85 190.74,-37.85 190.74,-37.85 190.74,-34.85 193.74,-31.85 196.74,-31.85 196.74,-31.85 306.74,-31.85 306.74,-31.85 309.74,-31.85 312.74,-34.85 312.74,-37.85 312.74,-37.85 312.74,-43.85 312.74,-43.85 312.74,-46.85 309.74,-49.85 306.74,-49.85"/>
<text text-anchor="start" x="198.74" y="-38.65" font-family="Helvetica,sans-Serif" font-size="9.00">melody&#45;color&#45;selector.ts</text>
</a>
</g>
</g>
<!-- packages/UI/controllers/src/color&#45;selector.ts/melody&#45;color&#45;controller.ts&#45;&gt;packages/UI/controllers/src/color&#45;selector.ts/melody&#45;color&#45;selector.ts -->
<g id="edge9" class="edge">
<title>packages/UI/controllers/src/color&#45;selector.ts/melody&#45;color&#45;controller.ts&#45;&gt;packages/UI/controllers/src/color&#45;selector.ts/melody&#45;color&#45;selector.ts</title>
<path fill="none" stroke="#000000" stroke-width="2" stroke-opacity="0.200000" d="M227.82,-154.53C232.26,-133.43 243.18,-81.53 248.59,-55.8"/>
<polygon fill="#000000" fill-opacity="0.200000" stroke="#000000" stroke-width="2" stroke-opacity="0.200000" points="250.66,-56.16 249.84,-49.86 246.55,-55.3 250.66,-56.16"/>
</g>
<!-- packages/UI/controllers/src/color&#45;selector.ts/melody&#45;color&#45;selector.ts&#45;&gt;packages/UI/controllers/src/color&#45;selector.ts/irm&#45;color&#45;selector.ts -->
<g id="edge10" class="edge">
<title>packages/UI/controllers/src/color&#45;selector.ts/melody&#45;color&#45;selector.ts&#45;&gt;packages/UI/controllers/src/color&#45;selector.ts/irm&#45;color&#45;selector.ts</title>
<path fill="none" stroke="#000000" stroke-width="2" stroke-opacity="0.200000" d="M259.71,-50.14C274.41,-67.26 305.83,-103.87 323.04,-123.92"/>
<polygon fill="#000000" fill-opacity="0.200000" stroke="#000000" stroke-width="2" stroke-opacity="0.200000" points="321.59,-125.46 327.1,-128.64 324.78,-122.72 321.59,-125.46"/>
</g>
<!-- packages/UI/controllers/src/color&#45;selector.ts/melody&#45;color&#45;selector.ts&#45;&gt;packages/cognitive&#45;theory&#45;of&#45;music/irm/dist/index.js -->
<g id="edge11" class="edge">
<title>packages/UI/controllers/src/color&#45;selector.ts/melody&#45;color&#45;selector.ts&#45;&gt;packages/cognitive&#45;theory&#45;of&#45;music/irm/dist/index.js</title>
<path fill="none" stroke="#000000" stroke-width="2" stroke-opacity="0.200000" d="M282.61,-31.81C296.57,-27.72 313.09,-22.88 327.31,-18.72"/>
<polygon fill="#000000" fill-opacity="0.200000" stroke="#000000" stroke-width="2" stroke-opacity="0.200000" points="328.09,-20.68 333.26,-16.98 326.91,-16.65 328.09,-20.68"/>
</g>
<!-- packages/UI/controllers/src/controller/controller&#45;view.ts -->
<g id="node10" class="node">
<title>packages/UI/controllers/src/controller/controller&#45;view.ts</title>
<g id="a_node10"><a xlink:href="packages/UI/controllers/src/controller/controller-view.ts" xlink:title="controller&#45;view.ts">
<path fill="#ddfeff" stroke="black" d="M716.66,-208.36C716.66,-208.36 636.66,-208.36 636.66,-208.36 633.66,-208.36 630.66,-205.36 630.66,-202.36 630.66,-202.36 630.66,-196.36 630.66,-196.36 630.66,-193.36 633.66,-190.36 636.66,-190.36 636.66,-190.36 716.66,-190.36 716.66,-190.36 719.66,-190.36 722.66,-193.36 722.66,-196.36 722.66,-196.36 722.66,-202.36 722.66,-202.36 722.66,-205.36 719.66,-208.36 716.66,-208.36"/>
<text text-anchor="start" x="638.66" y="-197.16" font-family="Helvetica,sans-Serif" font-size="9.00">controller&#45;view.ts</text>
</a>
</g>
</g>
<!-- packages/UI/controllers/src/controller/controller.ts&#45;&gt;packages/UI/controllers/src/controller/controller&#45;view.ts -->
<g id="edge12" class="edge">
<title>packages/UI/controllers/src/controller/controller.ts&#45;&gt;packages/UI/controllers/src/controller/controller&#45;view.ts</title>
<path fill="none" stroke="#000000" stroke-width="2" stroke-opacity="0.200000" d="M573.54,-260.71C594.7,-248.12 632.68,-225.53 656.17,-211.55"/>
<polygon fill="#000000" fill-opacity="0.200000" stroke="#000000" stroke-width="2" stroke-opacity="0.200000" points="657.44,-213.24 661.53,-208.37 655.3,-209.63 657.44,-213.24"/>
</g>
<!-- packages/UI/controllers/src/melody&#45;beep&#45;controller/melody&#45;beep&#45;controller.ts -->
<g id="node15" class="node">
<title>packages/UI/controllers/src/melody&#45;beep&#45;controller/melody&#45;beep&#45;controller.ts</title>
<g id="a_node15"><a xlink:href="packages/UI/controllers/src/melody-beep-controller/melody-beep-controller.ts" xlink:title="melody&#45;beep&#45;controller.ts">
<path fill="#ddfeff" stroke="black" d="M450.09,-710.25C450.09,-710.25 331.09,-710.25 331.09,-710.25 328.09,-710.25 325.09,-707.25 325.09,-704.25 325.09,-704.25 325.09,-698.25 325.09,-698.25 325.09,-695.25 328.09,-692.25 331.09,-692.25 331.09,-692.25 450.09,-692.25 450.09,-692.25 453.09,-692.25 456.09,-695.25 456.09,-698.25 456.09,-698.25 456.09,-704.25 456.09,-704.25 456.09,-707.25 453.09,-710.25 450.09,-710.25"/>
<text text-anchor="start" x="333.09" y="-699.05" font-family="Helvetica,sans-Serif" font-size="9.00">melody&#45;beep&#45;controller.ts</text>
</a>
</g>
</g>
<!-- packages/UI/controllers/src/melody&#45;beep&#45;controller/index.ts&#45;&gt;packages/UI/controllers/src/melody&#45;beep&#45;controller/melody&#45;beep&#45;controller.ts -->
<g id="edge19" class="edge">
<title>packages/UI/controllers/src/melody&#45;beep&#45;controller/index.ts&#45;&gt;packages/UI/controllers/src/melody&#45;beep&#45;controller/melody&#45;beep&#45;controller.ts</title>
<path fill="none" stroke="#000000" stroke-width="2" stroke-opacity="0.200000" d="M384.68,-590.49C385.77,-610.87 388.43,-660.7 389.78,-685.99"/>
<polygon fill="#000000" fill-opacity="0.200000" stroke="#000000" stroke-width="2" stroke-opacity="0.200000" points="388.01,-692.25 389.79,-686.15 392.2,-692.03 388.01,-692.25"/>
</g>
<!-- packages/UI/controllers/src/melody&#45;beep&#45;controller/melody&#45;beep&#45;switcher.ts -->
<g id="node16" class="node">
<title>packages/UI/controllers/src/melody&#45;beep&#45;controller/melody&#45;beep&#45;switcher.ts</title>
<g id="a_node16"><a xlink:href="packages/UI/controllers/src/melody-beep-controller/melody-beep-switcher.ts" xlink:title="melody&#45;beep&#45;switcher.ts">
<path fill="#ddfeff" stroke="black" d="M556.09,-659.72C556.09,-659.72 441.09,-659.72 441.09,-659.72 438.09,-659.72 435.09,-656.72 435.09,-653.72 435.09,-653.72 435.09,-647.72 435.09,-647.72 435.09,-644.72 438.09,-641.72 441.09,-641.72 441.09,-641.72 556.09,-641.72 556.09,-641.72 559.09,-641.72 562.09,-644.72 562.09,-647.72 562.09,-647.72 562.09,-653.72 562.09,-653.72 562.09,-656.72 559.09,-659.72 556.09,-659.72"/>
<text text-anchor="start" x="443.09" y="-648.52" font-family="Helvetica,sans-Serif" font-size="9.00">melody&#45;beep&#45;switcher.ts</text>
</a>
</g>
</g>
<!-- packages/UI/controllers/src/melody&#45;beep&#45;controller/index.ts&#45;&gt;packages/UI/controllers/src/melody&#45;beep&#45;controller/melody&#45;beep&#45;switcher.ts -->
<g id="edge20" class="edge">
<title>packages/UI/controllers/src/melody&#45;beep&#45;controller/index.ts&#45;&gt;packages/UI/controllers/src/melody&#45;beep&#45;controller/melody&#45;beep&#45;switcher.ts</title>
<path fill="none" stroke="#000000" stroke-width="2" stroke-opacity="0.200000" d="M399.16,-590.54C419.45,-602.83 455.78,-624.81 478.46,-638.53"/>
<polygon fill="#000000" fill-opacity="0.200000" stroke="#000000" stroke-width="2" stroke-opacity="0.200000" points="482.55,-643.46 478.5,-638.56 484.72,-639.87 482.55,-643.46"/>
</g>
<!-- packages/UI/controllers/src/melody&#45;beep&#45;controller/melody&#45;beep&#45;volume.ts -->
<g id="node17" class="node">
<title>packages/UI/controllers/src/melody&#45;beep&#45;controller/melody&#45;beep&#45;volume.ts</title>
<g id="a_node17"><a xlink:href="packages/UI/controllers/src/melody-beep-controller/melody-beep-volume.ts" xlink:title="melody&#45;beep&#45;volume.ts">
<path fill="#ddfeff" stroke="black" d="M332.91,-669.83C332.91,-669.83 222.91,-669.83 222.91,-669.83 219.91,-669.83 216.91,-666.83 216.91,-663.83 216.91,-663.83 216.91,-657.83 216.91,-657.83 216.91,-654.83 219.91,-651.83 222.91,-651.83 222.91,-651.83 332.91,-651.83 332.91,-651.83 335.91,-651.83 338.91,-654.83 338.91,-657.83 338.91,-657.83 338.91,-663.83 338.91,-663.83 338.91,-666.83 335.91,-669.83 332.91,-669.83"/>
<text text-anchor="start" x="224.91" y="-658.63" font-family="Helvetica,sans-Serif" font-size="9.00">melody&#45;beep&#45;volume.ts</text>
</a>
</g>
</g>
<!-- packages/UI/controllers/src/melody&#45;beep&#45;controller/index.ts&#45;&gt;packages/UI/controllers/src/melody&#45;beep&#45;controller/melody&#45;beep&#45;volume.ts -->
<g id="edge21" class="edge">
<title>packages/UI/controllers/src/melody&#45;beep&#45;controller/index.ts&#45;&gt;packages/UI/controllers/src/melody&#45;beep&#45;controller/melody&#45;beep&#45;volume.ts</title>
<path fill="none" stroke="#000000" stroke-width="2" stroke-opacity="0.200000" d="M372.01,-590.59C353.13,-604.69 316.75,-631.84 295.18,-647.94"/>
<polygon fill="#000000" fill-opacity="0.200000" stroke="#000000" stroke-width="2" stroke-opacity="0.200000" points="289.03,-649.9 295.1,-648 291.54,-653.27 289.03,-649.9"/>
</g>
<!-- packages/UI/controllers/src/slider/abstract&#45;slider.ts -->
<g id="node18" class="node">
<title>packages/UI/controllers/src/slider/abstract&#45;slider.ts</title>
<g id="a_node18"><a xlink:href="packages/UI/controllers/src/slider/abstract-slider.ts" xlink:title="abstract&#45;slider.ts">
<path fill="#ddfeff" stroke="black" d="M309.6,-442.15C309.6,-442.15 229.6,-442.15 229.6,-442.15 226.6,-442.15 223.6,-439.15 223.6,-436.15 223.6,-436.15 223.6,-430.15 223.6,-430.15 223.6,-427.15 226.6,-424.15 229.6,-424.15 229.6,-424.15 309.6,-424.15 309.6,-424.15 312.6,-424.15 315.6,-427.15 315.6,-430.15 315.6,-430.15 315.6,-436.15 315.6,-436.15 315.6,-439.15 312.6,-442.15 309.6,-442.15"/>
<text text-anchor="start" x="231.6" y="-430.95" font-family="Helvetica,sans-Serif" font-size="9.00">abstract&#45;slider.ts</text>
</a>
</g>
</g>
<!-- packages/UI/controllers/src/slider/index.ts&#45;&gt;packages/UI/controllers/src/slider/abstract&#45;slider.ts -->
<g id="edge28" class="edge">
<title>packages/UI/controllers/src/slider/index.ts&#45;&gt;packages/UI/controllers/src/slider/abstract&#45;slider.ts</title>
<path fill="none" stroke="#000000" stroke-width="2" stroke-opacity="0.200000" d="M257.39,-516.39C259.72,-500.47 264.54,-467.64 267.38,-448.31"/>
<polygon fill="#000000" fill-opacity="0.200000" stroke="#000000" stroke-width="2" stroke-opacity="0.200000" points="270.33,-442.62 267.38,-448.25 266.18,-442.01 270.33,-442.62"/>
</g>
<!-- packages/UI/controllers/src/slider/hierarchy&#45;level.ts -->
<g id="node19" class="node">
<title>packages/UI/controllers/src/slider/hierarchy&#45;level.ts</title>
<g id="a_node19"><a xlink:href="packages/UI/controllers/src/slider/hierarchy-level.ts" xlink:title="hierarchy&#45;level.ts">
<path fill="#ddfeff" stroke="black" d="M191.56,-448.5C191.56,-448.5 109.56,-448.5 109.56,-448.5 106.56,-448.5 103.56,-445.5 103.56,-442.5 103.56,-442.5 103.56,-436.5 103.56,-436.5 103.56,-433.5 106.56,-430.5 109.56,-430.5 109.56,-430.5 191.56,-430.5 191.56,-430.5 194.56,-430.5 197.56,-433.5 197.56,-436.5 197.56,-436.5 197.56,-442.5 197.56,-442.5 197.56,-445.5 194.56,-448.5 191.56,-448.5"/>
<text text-anchor="start" x="111.56" y="-437.3" font-family="Helvetica,sans-Serif" font-size="9.00">hierarchy&#45;level.ts</text>
</a>
</g>
</g>
<!-- packages/UI/controllers/src/slider/index.ts&#45;&gt;packages/UI/controllers/src/slider/hierarchy&#45;level.ts -->
<g id="edge29" class="edge">
<title>packages/UI/controllers/src/slider/index.ts&#45;&gt;packages/UI/controllers/src/slider/hierarchy&#45;level.ts</title>
<path fill="none" stroke="#000000" stroke-width="2" stroke-opacity="0.200000" d="M244.75,-516.38C225.95,-501.04 188.19,-470.21 166.62,-452.61"/>
<polygon fill="#000000" fill-opacity="0.200000" stroke="#000000" stroke-width="2" stroke-opacity="0.200000" points="163.1,-447.02 166.42,-452.44 160.44,-450.28 163.1,-447.02"/>
</g>
<!-- packages/UI/controllers/src/slider/time&#45;range&#45;slider.ts -->
<g id="node20" class="node">
<title>packages/UI/controllers/src/slider/time&#45;range&#45;slider.ts</title>
<g id="a_node20"><a xlink:href="packages/UI/controllers/src/slider/time-range-slider.ts" xlink:title="time&#45;range&#45;slider.ts">
<path fill="#ddfeff" stroke="black" d="M196.52,-543.5C196.52,-543.5 104.52,-543.5 104.52,-543.5 101.52,-543.5 98.52,-540.5 98.52,-537.5 98.52,-537.5 98.52,-531.5 98.52,-531.5 98.52,-528.5 101.52,-525.5 104.52,-525.5 104.52,-525.5 196.52,-525.5 196.52,-525.5 199.52,-525.5 202.52,-528.5 202.52,-531.5 202.52,-531.5 202.52,-537.5 202.52,-537.5 202.52,-540.5 199.52,-543.5 196.52,-543.5"/>
<text text-anchor="start" x="106.52" y="-532.3" font-family="Helvetica,sans-Serif" font-size="9.00">time&#45;range&#45;slider.ts</text>
</a>
</g>
</g>
<!-- packages/UI/controllers/src/slider/index.ts&#45;&gt;packages/UI/controllers/src/slider/time&#45;range&#45;slider.ts -->
<g id="edge30" class="edge">
<title>packages/UI/controllers/src/slider/index.ts&#45;&gt;packages/UI/controllers/src/slider/time&#45;range&#45;slider.ts</title>
<path fill="none" stroke="#000000" stroke-width="2" stroke-opacity="0.200000" d="M228.86,-527.89C222.69,-528.41 215.9,-528.98 208.98,-529.57"/>
<polygon fill="#000000" fill-opacity="0.200000" stroke="#000000" stroke-width="2" stroke-opacity="0.200000" points="202.43,-528.01 208.58,-529.6 202.78,-532.2 202.43,-528.01"/>
</g>
<!-- packages/UI/controllers/src/switcher/abstract&#45;switcher.ts -->
<g id="node22" class="node">
<title>packages/UI/controllers/src/switcher/abstract&#45;switcher.ts</title>
<g id="a_node22"><a xlink:href="packages/UI/controllers/src/switcher/abstract-switcher.ts" xlink:title="abstract&#45;switcher.ts">
<path fill="#ddfeff" stroke="black" d="M602.71,-432.37C602.71,-432.37 508.71,-432.37 508.71,-432.37 505.71,-432.37 502.71,-429.37 502.71,-426.37 502.71,-426.37 502.71,-420.37 502.71,-420.37 502.71,-417.37 505.71,-414.37 508.71,-414.37 508.71,-414.37 602.71,-414.37 602.71,-414.37 605.71,-414.37 608.71,-417.37 608.71,-420.37 608.71,-420.37 608.71,-426.37 608.71,-426.37 608.71,-429.37 605.71,-432.37 602.71,-432.37"/>
<text text-anchor="start" x="510.71" y="-421.17" font-family="Helvetica,sans-Serif" font-size="9.00">abstract&#45;switcher.ts</text>
</a>
</g>
</g>
<!-- packages/UI/controllers/src/switcher/index.ts&#45;&gt;packages/UI/controllers/src/switcher/abstract&#45;switcher.ts -->
<g id="edge36" class="edge">
<title>packages/UI/controllers/src/switcher/index.ts&#45;&gt;packages/UI/controllers/src/switcher/abstract&#45;switcher.ts</title>
<path fill="none" stroke="#000000" stroke-width="2" stroke-opacity="0.200000" d="M510.52,-501.02C519.27,-485.99 536.59,-456.22 547.06,-438.22"/>
<polygon fill="#000000" fill-opacity="0.200000" stroke="#000000" stroke-width="2" stroke-opacity="0.200000" points="552.15,-433.66 547.31,-437.79 548.52,-431.55 552.15,-433.66"/>
</g>
<!-- packages/UI/controllers/src/switcher/d&#45;melody&#45;switcher.ts -->
<g id="node23" class="node">
<title>packages/UI/controllers/src/switcher/d&#45;melody&#45;switcher.ts</title>
<g id="a_node23"><a xlink:href="packages/UI/controllers/src/switcher/d-melody-switcher.ts" xlink:title="d&#45;melody&#45;switcher.ts">
<path fill="#ddfeff" stroke="black" d="M667.96,-550.9C667.96,-550.9 569.96,-550.9 569.96,-550.9 566.96,-550.9 563.96,-547.9 563.96,-544.9 563.96,-544.9 563.96,-538.9 563.96,-538.9 563.96,-535.9 566.96,-532.9 569.96,-532.9 569.96,-532.9 667.96,-532.9 667.96,-532.9 670.96,-532.9 673.96,-535.9 673.96,-538.9 673.96,-538.9 673.96,-544.9 673.96,-544.9 673.96,-547.9 670.96,-550.9 667.96,-550.9"/>
<text text-anchor="start" x="571.96" y="-539.7" font-family="Helvetica,sans-Serif" font-size="9.00">d&#45;melody&#45;switcher.ts</text>
</a>
</g>
</g>
<!-- packages/UI/controllers/src/switcher/index.ts&#45;&gt;packages/UI/controllers/src/switcher/d&#45;melody&#45;switcher.ts -->
<g id="edge37" class="edge">
<title>packages/UI/controllers/src/switcher/index.ts&#45;&gt;packages/UI/controllers/src/switcher/d&#45;melody&#45;switcher.ts</title>
<path fill="none" stroke="#000000" stroke-width="2" stroke-opacity="0.200000" d="M532.38,-517.89C546.66,-521.85 564.41,-526.77 580.11,-531.13"/>
<polygon fill="#000000" fill-opacity="0.200000" stroke="#000000" stroke-width="2" stroke-opacity="0.200000" points="585.68,-534.85 580.46,-531.22 586.8,-530.8 585.68,-534.85"/>
</g>
<!-- packages/UI/controllers/src/switcher/gravity&#45;switcher.ts -->
<g id="node24" class="node">
<title>packages/UI/controllers/src/switcher/gravity&#45;switcher.ts</title>
<g id="a_node24"><a xlink:href="packages/UI/controllers/src/switcher/gravity-switcher.ts" xlink:title="gravity&#45;switcher.ts">
<path fill="#ddfeff" stroke="black" d="M689.95,-476.36C689.95,-476.36 601.95,-476.36 601.95,-476.36 598.95,-476.36 595.95,-473.36 595.95,-470.36 595.95,-470.36 595.95,-464.36 595.95,-464.36 595.95,-461.36 598.95,-458.36 601.95,-458.36 601.95,-458.36 689.95,-458.36 689.95,-458.36 692.95,-458.36 695.95,-461.36 695.95,-464.36 695.95,-464.36 695.95,-470.36 695.95,-470.36 695.95,-473.36 692.95,-476.36 689.95,-476.36"/>
<text text-anchor="start" x="603.95" y="-465.16" font-family="Helvetica,sans-Serif" font-size="9.00">gravity&#45;switcher.ts</text>
</a>
</g>
</g>
<!-- packages/UI/controllers/src/switcher/index.ts&#45;&gt;packages/UI/controllers/src/switcher/gravity&#45;switcher.ts -->
<g id="edge38" class="edge">
<title>packages/UI/controllers/src/switcher/index.ts&#45;&gt;packages/UI/controllers/src/switcher/gravity&#45;switcher.ts</title>
<path fill="none" stroke="#000000" stroke-width="2" stroke-opacity="0.200000" d="M532.26,-502.05C554.52,-495.26 586.19,-485.59 610.45,-478.19"/>
<polygon fill="#000000" fill-opacity="0.200000" stroke="#000000" stroke-width="2" stroke-opacity="0.200000" points="617.06,-478.37 610.71,-478.11 615.84,-474.35 617.06,-478.37"/>
</g>
<!-- packages/UI/controllers/src/melody&#45;beep&#45;controller/melody&#45;beep&#45;controller.ts&#45;&gt;packages/UI/controllers/src/melody&#45;beep&#45;controller/melody&#45;beep&#45;switcher.ts -->
<g id="edge22" class="edge">
<title>packages/UI/controllers/src/melody&#45;beep&#45;controller/melody&#45;beep&#45;controller.ts&#45;&gt;packages/UI/controllers/src/melody&#45;beep&#45;controller/melody&#45;beep&#45;switcher.ts</title>
<path fill="none" stroke="#000000" stroke-width="2" stroke-opacity="0.200000" d="M409.9,-692.21C427.61,-683.93 453.94,-671.61 473.31,-662.54"/>
<polygon fill="#000000" fill-opacity="0.200000" stroke="#000000" stroke-width="2" stroke-opacity="0.200000" points="474.54,-664.29 479.09,-659.84 472.76,-660.48 474.54,-664.29"/>
</g>
<!-- packages/UI/controllers/src/melody&#45;beep&#45;controller/melody&#45;beep&#45;controller.ts&#45;&gt;packages/UI/controllers/src/melody&#45;beep&#45;controller/melody&#45;beep&#45;volume.ts -->
<g id="edge23" class="edge">
<title>packages/UI/controllers/src/melody&#45;beep&#45;controller/melody&#45;beep&#45;controller.ts&#45;&gt;packages/UI/controllers/src/melody&#45;beep&#45;controller/melody&#45;beep&#45;volume.ts</title>
<path fill="none" stroke="#000000" stroke-width="2" stroke-opacity="0.200000" d="M365.3,-692.18C348.63,-686.19 326.68,-678.32 308.95,-671.96"/>
<polygon fill="#000000" fill-opacity="0.200000" stroke="#000000" stroke-width="2" stroke-opacity="0.200000" points="309.47,-669.92 303.11,-669.87 308.05,-673.87 309.47,-669.92"/>
</g>
<!-- packages/UI/controllers/src/melody&#45;beep&#45;controller/melody&#45;beep&#45;switcher.ts&#45;&gt;packages/UI/controllers/src/switcher/index.ts -->
<g id="edge24" class="edge">
<title>packages/UI/controllers/src/melody&#45;beep&#45;controller/melody&#45;beep&#45;switcher.ts&#45;&gt;packages/UI/controllers/src/switcher/index.ts</title>
<path fill="none" stroke="#000000" stroke-width="2" stroke-opacity="0.200000" d="M499.02,-641.51C500.11,-617.9 503.03,-555.04 504.39,-525.75"/>
<polygon fill="#000000" fill-opacity="0.200000" stroke="#000000" stroke-width="2" stroke-opacity="0.200000" points="506.51,-525.48 504.69,-519.39 502.31,-525.29 506.51,-525.48"/>
</g>
<!-- packages/UI/controllers/src/melody&#45;beep&#45;controller/melody&#45;beep&#45;volume.ts&#45;&gt;packages/UI/controllers/src/slider/index.ts -->
<g id="edge25" class="edge">
<title>packages/UI/controllers/src/melody&#45;beep&#45;controller/melody&#45;beep&#45;volume.ts&#45;&gt;packages/UI/controllers/src/slider/index.ts</title>
<path fill="none" stroke="#000000" stroke-width="2" stroke-opacity="0.200000" d="M276.41,-651.53C272.69,-628.55 263.04,-568.89 258.48,-540.73"/>
<polygon fill="#000000" fill-opacity="0.200000" stroke="#000000" stroke-width="2" stroke-opacity="0.200000" points="260.52,-540.19 257.49,-534.6 256.38,-540.86 260.52,-540.19"/>
</g>
<!-- packages/UI/controllers/src/slider/abstract&#45;slider.ts&#45;&gt;packages/UI/controllers/src/controller/index.ts -->
<g id="edge26" class="edge">
<title>packages/UI/controllers/src/slider/abstract&#45;slider.ts&#45;&gt;packages/UI/controllers/src/controller/index.ts</title>
<path fill="none" stroke="#000000" stroke-width="2" stroke-opacity="0.200000" d="M288.77,-424.1C318.62,-410.02 376.19,-382.87 409.15,-367.33"/>
<polygon fill="#000000" fill-opacity="0.200000" stroke="#000000" stroke-width="2" stroke-opacity="0.200000" points="410.08,-369.21 414.61,-364.75 408.29,-365.41 410.08,-369.21"/>
</g>
<!-- packages/UI/controllers/src/slider/hierarchy&#45;level.ts&#45;&gt;packages/UI/controllers/src/slider/abstract&#45;slider.ts -->
<g id="edge27" class="edge">
<title>packages/UI/controllers/src/slider/hierarchy&#45;level.ts&#45;&gt;packages/UI/controllers/src/slider/abstract&#45;slider.ts</title>
<path fill="none" stroke="#000000" stroke-width="2" stroke-opacity="0.200000" d="M197.61,-436.99C203.95,-436.65 210.48,-436.3 216.91,-435.96"/>
<polygon fill="#000000" fill-opacity="0.200000" stroke="#000000" stroke-width="2" stroke-opacity="0.200000" points="217.41,-438.04 223.28,-435.62 217.18,-433.84 217.41,-438.04"/>
</g>
<!-- packages/UI/controllers/src/slider/time&#45;range&#45;slider.ts&#45;&gt;packages/UI/controllers/src/slider/abstract&#45;slider.ts -->
<g id="edge31" class="edge">
<title>packages/UI/controllers/src/slider/time&#45;range&#45;slider.ts&#45;&gt;packages/UI/controllers/src/slider/abstract&#45;slider.ts</title>
<path fill="none" stroke="#000000" stroke-width="2" stroke-opacity="0.200000" d="M161.51,-525.15C182.79,-507.03 229.7,-467.11 254.13,-446.32"/>
<polygon fill="#000000" fill-opacity="0.200000" stroke="#000000" stroke-width="2" stroke-opacity="0.200000" points="255.77,-447.67 258.98,-442.18 253.05,-444.47 255.77,-447.67"/>
</g>
<!-- packages/UI/view&#45;parameters/dist/index.js -->
<g id="node21" class="node">
<title>packages/UI/view&#45;parameters/dist/index.js</title>
<g id="a_node21"><a xlink:href="packages/UI/view-parameters/dist/index.js" xlink:title="index.js">
<polygon fill="#ffffcc" stroke="black" points="54,-594.14 52.5,-596.14 42,-596.14 40.5,-594.14 0,-594.14 0,-576.14 54,-576.14 54,-594.14"/>
<text text-anchor="start" x="9.5" y="-582.94" font-family="Helvetica,sans-Serif" font-size="9.00">index.js</text>
</a>
</g>
</g>
<!-- packages/UI/controllers/src/slider/time&#45;range&#45;slider.ts&#45;&gt;packages/UI/view&#45;parameters/dist/index.js -->
<g id="edge32" class="edge">
<title>packages/UI/controllers/src/slider/time&#45;range&#45;slider.ts&#45;&gt;packages/UI/view&#45;parameters/dist/index.js</title>
<path fill="none" stroke="#000000" stroke-width="2" stroke-opacity="0.200000" d="M128.44,-543.55C107.92,-551.96 77.29,-564.52 55.05,-573.63"/>
<polygon fill="#000000" fill-opacity="0.200000" stroke="#000000" stroke-width="2" stroke-opacity="0.200000" points="54.06,-571.77 49.31,-575.99 55.66,-575.66 54.06,-571.77"/>
</g>
<!-- packages/UI/controllers/src/switcher/abstract&#45;switcher.ts&#45;&gt;packages/UI/controllers/src/controller/index.ts -->
<g id="edge33" class="edge">
<title>packages/UI/controllers/src/switcher/abstract&#45;switcher.ts&#45;&gt;packages/UI/controllers/src/controller/index.ts</title>
<path fill="none" stroke="#000000" stroke-width="2" stroke-opacity="0.200000" d="M539.28,-414.23C517.76,-402.27 479.95,-381.24 455.95,-367.9"/>
<polygon fill="#000000" fill-opacity="0.200000" stroke="#000000" stroke-width="2" stroke-opacity="0.200000" points="456.73,-365.93 450.47,-364.85 454.69,-369.6 456.73,-365.93"/>
</g>
<!-- packages/UI/controllers/src/switcher/d&#45;melody&#45;switcher.ts&#45;&gt;packages/UI/controllers/src/switcher/abstract&#45;switcher.ts -->
<g id="edge34" class="edge">
<title>packages/UI/controllers/src/switcher/d&#45;melody&#45;switcher.ts&#45;&gt;packages/UI/controllers/src/switcher/abstract&#45;switcher.ts</title>
<path fill="none" stroke="#000000" stroke-width="2" stroke-opacity="0.200000" d="M614,-532.6C603.05,-512.08 576.76,-462.82 563.56,-438.08"/>
<polygon fill="#000000" fill-opacity="0.200000" stroke="#000000" stroke-width="2" stroke-opacity="0.200000" points="565.32,-436.93 560.65,-432.63 561.62,-438.91 565.32,-436.93"/>
</g>
<!-- packages/UI/controllers/src/switcher/gravity&#45;switcher.ts&#45;&gt;packages/UI/controllers/src/switcher/abstract&#45;switcher.ts -->
<g id="edge35" class="edge">
<title>packages/UI/controllers/src/switcher/gravity&#45;switcher.ts&#45;&gt;packages/UI/controllers/src/switcher/abstract&#45;switcher.ts</title>
<path fill="none" stroke="#000000" stroke-width="2" stroke-opacity="0.200000" d="M627.25,-458.25C613.58,-451.58 594.91,-442.48 580.07,-435.24"/>
<polygon fill="#000000" fill-opacity="0.200000" stroke="#000000" stroke-width="2" stroke-opacity="0.200000" points="580.7,-433.21 574.38,-432.47 578.86,-436.99 580.7,-433.21"/>
</g>
</g>
</svg>
