<?xml version="1.0" encoding="UTF-8" standalone="no"?>
<!DOCTYPE svg PUBLIC "-//W3C//DTD SVG 1.1//EN"
 "http://www.w3.org/Graphics/SVG/1.1/DTD/svg11.dtd">
<!-- Generated by graphviz version 2.43.0 (0)
 -->
<!-- Title: dependency&#45;cruiser output Pages: 1 -->
<svg width="1286pt" height="680pt"
 viewBox="0.00 0.00 1285.50 680.00" xmlns="http://www.w3.org/2000/svg" xmlns:xlink="http://www.w3.org/1999/xlink">
<g id="graph0" class="graph" transform="scale(1 1) rotate(0) translate(4 676)">
<title>dependency&#45;cruiser output</title>
<polygon fill="white" stroke="transparent" points="-4,4 -4,-676 1281.5,-676 1281.5,4 -4,4"/>
<g id="clust1" class="cluster">
<title>cluster_packages</title>
<path fill="#ffffff" stroke="black" stroke-width="2" d="M20,-8C20,-8 1257.5,-8 1257.5,-8 1263.5,-8 1269.5,-14 1269.5,-20 1269.5,-20 1269.5,-652 1269.5,-652 1269.5,-658 1263.5,-664 1257.5,-664 1257.5,-664 20,-664 20,-664 14,-664 8,-658 8,-652 8,-652 8,-20 8,-20 8,-14 14,-8 20,-8"/>
<text text-anchor="middle" x="638.75" y="-652.8" font-family="Helvetica,sans-Serif" font-weight="bold" font-size="9.00">packages</text>
</g>
<g id="clust2" class="cluster">
<title>cluster_packages/UI</title>
<path fill="#ffffff" stroke="black" stroke-width="2" d="M28,-16C28,-16 1249.5,-16 1249.5,-16 1255.5,-16 1261.5,-22 1261.5,-28 1261.5,-28 1261.5,-498 1261.5,-498 1261.5,-504 1255.5,-510 1249.5,-510 1249.5,-510 28,-510 28,-510 22,-510 16,-504 16,-498 16,-498 16,-28 16,-28 16,-22 22,-16 28,-16"/>
<text text-anchor="middle" x="638.75" y="-498.8" font-family="Helvetica,sans-Serif" font-weight="bold" font-size="9.00">UI</text>
</g>
<g id="clust3" class="cluster">
<title>cluster_packages/UI/controllers</title>
<path fill="#ffffff" stroke="black" stroke-width="2" d="M36,-24C36,-24 1241.5,-24 1241.5,-24 1247.5,-24 1253.5,-30 1253.5,-36 1253.5,-36 1253.5,-378 1253.5,-378 1253.5,-384 1247.5,-390 1241.5,-390 1241.5,-390 36,-390 36,-390 30,-390 24,-384 24,-378 24,-378 24,-36 24,-36 24,-30 30,-24 36,-24"/>
<text text-anchor="middle" x="638.75" y="-378.8" font-family="Helvetica,sans-Serif" font-weight="bold" font-size="9.00">controllers</text>
</g>
<g id="clust4" class="cluster">
<title>cluster_packages/UI/controllers/src</title>
<path fill="#ffffff" stroke="black" stroke-width="2" d="M106,-32C106,-32 1233.5,-32 1233.5,-32 1239.5,-32 1245.5,-38 1245.5,-44 1245.5,-44 1245.5,-352 1245.5,-352 1245.5,-358 1239.5,-364 1233.5,-364 1233.5,-364 106,-364 106,-364 100,-364 94,-358 94,-352 94,-352 94,-44 94,-44 94,-38 100,-32 106,-32"/>
<text text-anchor="middle" x="669.75" y="-352.8" font-family="Helvetica,sans-Serif" font-weight="bold" font-size="9.00">src</text>
</g>
<g id="clust5" class="cluster">
<title>cluster_packages/UI/controllers/src/color&#45;selector.ts</title>
<path fill="#ffffff" stroke="black" stroke-width="2" d="M281.5,-258C281.5,-258 920.5,-258 920.5,-258 926.5,-258 932.5,-264 932.5,-270 932.5,-270 932.5,-326 932.5,-326 932.5,-332 926.5,-338 920.5,-338 920.5,-338 281.5,-338 281.5,-338 275.5,-338 269.5,-332 269.5,-326 269.5,-326 269.5,-270 269.5,-270 269.5,-264 275.5,-258 281.5,-258"/>
<text text-anchor="middle" x="601" y="-326.8" font-family="Helvetica,sans-Serif" font-weight="bold" font-size="9.00">color&#45;selector.ts</text>
</g>
<g id="clust6" class="cluster">
<title>cluster_packages/UI/controllers/src/controller</title>
<path fill="#ffffff" stroke="black" stroke-width="2" d="M991.5,-127C991.5,-127 1225.5,-127 1225.5,-127 1231.5,-127 1237.5,-133 1237.5,-139 1237.5,-139 1237.5,-167 1237.5,-167 1237.5,-173 1231.5,-179 1225.5,-179 1225.5,-179 991.5,-179 991.5,-179 985.5,-179 979.5,-173 979.5,-167 979.5,-167 979.5,-139 979.5,-139 979.5,-133 985.5,-127 991.5,-127"/>
<text text-anchor="middle" x="1108.5" y="-167.8" font-family="Helvetica,sans-Serif" font-weight="bold" font-size="9.00">controller</text>
</g>
<g id="clust7" class="cluster">
<title>cluster_packages/UI/controllers/src/melody&#45;beep&#45;controller</title>
<path fill="#ffffff" stroke="black" stroke-width="2" d="M176,-100C176,-100 507.5,-100 507.5,-100 513.5,-100 519.5,-106 519.5,-112 519.5,-112 519.5,-170 519.5,-170 519.5,-176 513.5,-182 507.5,-182 507.5,-182 176,-182 176,-182 170,-182 164,-176 164,-170 164,-170 164,-112 164,-112 164,-106 170,-100 176,-100"/>
<text text-anchor="middle" x="341.75" y="-170.8" font-family="Helvetica,sans-Serif" font-weight="bold" font-size="9.00">melody&#45;beep&#45;controller</text>
</g>
<g id="clust8" class="cluster">
<title>cluster_packages/UI/controllers/src/slider</title>
<path fill="#ffffff" stroke="black" stroke-width="2" d="M565.5,-154C565.5,-154 923.5,-154 923.5,-154 929.5,-154 935.5,-160 935.5,-166 935.5,-166 935.5,-238 935.5,-238 935.5,-244 929.5,-250 923.5,-250 923.5,-250 565.5,-250 565.5,-250 559.5,-250 553.5,-244 553.5,-238 553.5,-238 553.5,-166 553.5,-166 553.5,-160 559.5,-154 565.5,-154"/>
<text text-anchor="middle" x="744.5" y="-238.8" font-family="Helvetica,sans-Serif" font-weight="bold" font-size="9.00">slider</text>
</g>
<g id="clust9" class="cluster">
<title>cluster_packages/UI/controllers/src/switcher</title>
<path fill="#ffffff" stroke="black" stroke-width="2" d="M565.5,-50C565.5,-50 930.5,-50 930.5,-50 936.5,-50 942.5,-56 942.5,-62 942.5,-62 942.5,-134 942.5,-134 942.5,-140 936.5,-146 930.5,-146 930.5,-146 565.5,-146 565.5,-146 559.5,-146 553.5,-140 553.5,-134 553.5,-134 553.5,-62 553.5,-62 553.5,-56 559.5,-50 565.5,-50"/>
<text text-anchor="middle" x="748" y="-134.8" font-family="Helvetica,sans-Serif" font-weight="bold" font-size="9.00">switcher</text>
</g>
<g id="clust10" class="cluster">
<title>cluster_packages/UI/view&#45;parameters</title>
<path fill="#ffffff" stroke="black" stroke-width="2" d="M842.5,-398C842.5,-398 921.5,-398 921.5,-398 927.5,-398 933.5,-404 933.5,-410 933.5,-410 933.5,-472 933.5,-472 933.5,-478 927.5,-484 921.5,-484 921.5,-484 842.5,-484 842.5,-484 836.5,-484 830.5,-478 830.5,-472 830.5,-472 830.5,-410 830.5,-410 830.5,-404 836.5,-398 842.5,-398"/>
<text text-anchor="middle" x="882" y="-472.8" font-family="Helvetica,sans-Serif" font-weight="bold" font-size="9.00">view&#45;parameters</text>
</g>
<g id="clust11" class="cluster">
<title>cluster_packages/UI/view&#45;parameters/dist</title>
<path fill="#ffffff" stroke="black" stroke-width="2" d="M858.5,-406C858.5,-406 904.5,-406 904.5,-406 910.5,-406 916.5,-412 916.5,-418 916.5,-418 916.5,-446 916.5,-446 916.5,-452 910.5,-458 904.5,-458 904.5,-458 858.5,-458 858.5,-458 852.5,-458 846.5,-452 846.5,-446 846.5,-446 846.5,-418 846.5,-418 846.5,-412 852.5,-406 858.5,-406"/>
<text text-anchor="middle" x="881.5" y="-446.8" font-family="Helvetica,sans-Serif" font-weight="bold" font-size="9.00">dist</text>
</g>
<g id="clust12" class="cluster">
<title>cluster_packages/cognitive&#45;theory&#45;of&#45;music</title>
<path fill="#ffffff" stroke="black" stroke-width="2" d="M819.5,-518C819.5,-518 944.5,-518 944.5,-518 950.5,-518 956.5,-524 956.5,-530 956.5,-530 956.5,-626 956.5,-626 956.5,-632 950.5,-638 944.5,-638 944.5,-638 819.5,-638 819.5,-638 813.5,-638 807.5,-632 807.5,-626 807.5,-626 807.5,-530 807.5,-530 807.5,-524 813.5,-518 819.5,-518"/>
<text text-anchor="middle" x="882" y="-626.8" font-family="Helvetica,sans-Serif" font-weight="bold" font-size="9.00">cognitive&#45;theory&#45;of&#45;music</text>
</g>
<g id="clust13" class="cluster">
<title>cluster_packages/cognitive&#45;theory&#45;of&#45;music/irm</title>
<path fill="#ffffff" stroke="black" stroke-width="2" d="M850.5,-526C850.5,-526 912.5,-526 912.5,-526 918.5,-526 924.5,-532 924.5,-538 924.5,-538 924.5,-600 924.5,-600 924.5,-606 918.5,-612 912.5,-612 912.5,-612 850.5,-612 850.5,-612 844.5,-612 838.5,-606 838.5,-600 838.5,-600 838.5,-538 838.5,-538 838.5,-532 844.5,-526 850.5,-526"/>
<text text-anchor="middle" x="881.5" y="-600.8" font-family="Helvetica,sans-Serif" font-weight="bold" font-size="9.00">irm</text>
</g>
<g id="clust14" class="cluster">
<title>cluster_packages/cognitive&#45;theory&#45;of&#45;music/irm/dist</title>
<path fill="#ffffff" stroke="black" stroke-width="2" d="M858.5,-534C858.5,-534 904.5,-534 904.5,-534 910.5,-534 916.5,-540 916.5,-546 916.5,-546 916.5,-574 916.5,-574 916.5,-580 910.5,-586 904.5,-586 904.5,-586 858.5,-586 858.5,-586 852.5,-586 846.5,-580 846.5,-574 846.5,-574 846.5,-546 846.5,-546 846.5,-540 852.5,-534 858.5,-534"/>
<text text-anchor="middle" x="881.5" y="-574.8" font-family="Helvetica,sans-Serif" font-weight="bold" font-size="9.00">dist</text>
</g>
<!-- packages/UI/controllers/index.ts -->
<g id="node1" class="node">
<title>packages/UI/controllers/index.ts</title>
<g id="a_node1"><a xlink:href="packages/UI/controllers/index.ts" xlink:title="index.ts">
<path fill="#ddfeff" stroke="black" d="M80,-141C80,-141 38,-141 38,-141 35,-141 32,-138 32,-135 32,-135 32,-129 32,-129 32,-126 35,-123 38,-123 38,-123 80,-123 80,-123 83,-123 86,-126 86,-129 86,-129 86,-135 86,-135 86,-138 83,-141 80,-141"/>
<text text-anchor="start" x="40.5" y="-129.8" font-family="Helvetica,sans-Serif" font-size="9.00">index.ts</text>
</a>
</g>
</g>
<!-- packages/UI/controllers/src/index.ts -->
<g id="node2" class="node">
<title>packages/UI/controllers/src/index.ts</title>
<g id="a_node2"><a xlink:href="packages/UI/controllers/src/index.ts" xlink:title="index.ts">
<path fill="#ddfeff" stroke="black" d="M150,-141C150,-141 108,-141 108,-141 105,-141 102,-138 102,-135 102,-135 102,-129 102,-129 102,-126 105,-123 108,-123 108,-123 150,-123 150,-123 153,-123 156,-126 156,-129 156,-129 156,-135 156,-135 156,-138 153,-141 150,-141"/>
<text text-anchor="start" x="110.5" y="-129.8" font-family="Helvetica,sans-Serif" font-size="9.00">index.ts</text>
</a>
</g>
</g>
<!-- packages/UI/controllers/index.ts&#45;&gt;packages/UI/controllers/src/index.ts -->
<g id="edge1" class="edge">
<title>packages/UI/controllers/index.ts&#45;&gt;packages/UI/controllers/src/index.ts</title>
<path fill="none" stroke="#000000" stroke-width="2" stroke-opacity="0.200000" d="M86.1,-132C89.12,-132 92.23,-132 95.33,-132"/>
<polygon fill="#000000" fill-opacity="0.200000" stroke="#000000" stroke-width="2" stroke-opacity="0.200000" points="101.64,-134.1 95.64,-132 101.64,-129.9 101.64,-134.1"/>
</g>
<!-- packages/UI/controllers/src/controller/index.ts -->
<g id="node4" class="node">
<title>packages/UI/controllers/src/controller/index.ts</title>
<g id="a_node4"><a xlink:href="packages/UI/controllers/src/controller/index.ts" xlink:title="index.ts">
<path fill="#ddfeff" stroke="black" d="M1035.5,-153C1035.5,-153 993.5,-153 993.5,-153 990.5,-153 987.5,-150 987.5,-147 987.5,-147 987.5,-141 987.5,-141 987.5,-138 990.5,-135 993.5,-135 993.5,-135 1035.5,-135 1035.5,-135 1038.5,-135 1041.5,-138 1041.5,-141 1041.5,-141 1041.5,-147 1041.5,-147 1041.5,-150 1038.5,-153 1035.5,-153"/>
<text text-anchor="start" x="996" y="-141.8" font-family="Helvetica,sans-Serif" font-size="9.00">index.ts</text>
</a>
</g>
</g>
<!-- packages/UI/controllers/src/index.ts&#45;&gt;packages/UI/controllers/src/controller/index.ts -->
<g id="edge14" class="edge">
<title>packages/UI/controllers/src/index.ts&#45;&gt;packages/UI/controllers/src/controller/index.ts</title>
<path fill="none" stroke="#000000" stroke-width="2" stroke-opacity="0.200000" d="M156.47,-132.37C286.49,-134.13 839.57,-141.63 981.3,-143.55"/>
<polygon fill="#000000" fill-opacity="0.200000" stroke="#000000" stroke-width="2" stroke-opacity="0.200000" points="987.32,-145.73 981.35,-143.55 987.38,-141.53 987.32,-145.73"/>
</g>
<!-- packages/UI/controllers/src/color&#45;selector.ts/index.ts -->
<g id="node5" class="node">
<title>packages/UI/controllers/src/color&#45;selector.ts/index.ts</title>
<g id="a_node5"><a xlink:href="packages/UI/controllers/src/color-selector.ts/index.ts" xlink:title="index.ts">
<path fill="#ddfeff" stroke="black" d="M325.5,-287C325.5,-287 283.5,-287 283.5,-287 280.5,-287 277.5,-284 277.5,-281 277.5,-281 277.5,-275 277.5,-275 277.5,-272 280.5,-269 283.5,-269 283.5,-269 325.5,-269 325.5,-269 328.5,-269 331.5,-272 331.5,-275 331.5,-275 331.5,-281 331.5,-281 331.5,-284 328.5,-287 325.5,-287"/>
<text text-anchor="start" x="286" y="-275.8" font-family="Helvetica,sans-Serif" font-size="9.00">index.ts</text>
</a>
</g>
</g>
<!-- packages/UI/controllers/src/index.ts&#45;&gt;packages/UI/controllers/src/color&#45;selector.ts/index.ts -->
<g id="edge13" class="edge">
<title>packages/UI/controllers/src/index.ts&#45;&gt;packages/UI/controllers/src/color&#45;selector.ts/index.ts</title>
<path fill="none" stroke="#000000" stroke-width="2" stroke-opacity="0.200000" d="M139.98,-141.13C170.02,-166.12 253.66,-235.7 288.72,-264.87"/>
<polygon fill="#000000" fill-opacity="0.200000" stroke="#000000" stroke-width="2" stroke-opacity="0.200000" points="292.18,-270.48 288.91,-265.03 294.87,-267.26 292.18,-270.48"/>
</g>
<!-- packages/UI/controllers/src/melody&#45;beep&#45;controller/index.ts -->
<g id="node12" class="node">
<title>packages/UI/controllers/src/melody&#45;beep&#45;controller/index.ts</title>
<g id="a_node12"><a xlink:href="packages/UI/controllers/src/melody-beep-controller/index.ts" xlink:title="index.ts">
<path fill="#ddfeff" stroke="black" d="M220,-141C220,-141 178,-141 178,-141 175,-141 172,-138 172,-135 172,-135 172,-129 172,-129 172,-126 175,-123 178,-123 178,-123 220,-123 220,-123 223,-123 226,-126 226,-129 226,-129 226,-135 226,-135 226,-138 223,-141 220,-141"/>
<text text-anchor="start" x="180.5" y="-129.8" font-family="Helvetica,sans-Serif" font-size="9.00">index.ts</text>
</a>
</g>
</g>
<!-- packages/UI/controllers/src/index.ts&#45;&gt;packages/UI/controllers/src/melody&#45;beep&#45;controller/index.ts -->
<g id="edge15" class="edge">
<title>packages/UI/controllers/src/index.ts&#45;&gt;packages/UI/controllers/src/melody&#45;beep&#45;controller/index.ts</title>
<path fill="none" stroke="#000000" stroke-width="2" stroke-opacity="0.200000" d="M156.1,-132C159.12,-132 162.23,-132 165.33,-132"/>
<polygon fill="#000000" fill-opacity="0.200000" stroke="#000000" stroke-width="2" stroke-opacity="0.200000" points="171.64,-134.1 165.64,-132 171.64,-129.9 171.64,-134.1"/>
</g>
<!-- packages/UI/controllers/src/slider/index.ts -->
<g id="node13" class="node">
<title>packages/UI/controllers/src/slider/index.ts</title>
<g id="a_node13"><a xlink:href="packages/UI/controllers/src/slider/index.ts" xlink:title="index.ts">
<path fill="#ddfeff" stroke="black" d="M609.5,-194C609.5,-194 567.5,-194 567.5,-194 564.5,-194 561.5,-191 561.5,-188 561.5,-188 561.5,-182 561.5,-182 561.5,-179 564.5,-176 567.5,-176 567.5,-176 609.5,-176 609.5,-176 612.5,-176 615.5,-179 615.5,-182 615.5,-182 615.5,-188 615.5,-188 615.5,-191 612.5,-194 609.5,-194"/>
<text text-anchor="start" x="570" y="-182.8" font-family="Helvetica,sans-Serif" font-size="9.00">index.ts</text>
</a>
</g>
</g>
<!-- packages/UI/controllers/src/index.ts&#45;&gt;packages/UI/controllers/src/slider/index.ts -->
<g id="edge16" class="edge">
<title>packages/UI/controllers/src/index.ts&#45;&gt;packages/UI/controllers/src/slider/index.ts</title>
<path fill="none" stroke="#000000" stroke-width="2" stroke-opacity="0.200000" d="M156.03,-135.12C235.5,-144.28 468.25,-171.13 555.21,-181.16"/>
<polygon fill="#000000" fill-opacity="0.200000" stroke="#000000" stroke-width="2" stroke-opacity="0.200000" points="560.98,-183.94 555.26,-181.17 561.46,-179.77 560.98,-183.94"/>
</g>
<!-- packages/UI/controllers/src/switcher/index.ts -->
<g id="node14" class="node">
<title>packages/UI/controllers/src/switcher/index.ts</title>
<g id="a_node14"><a xlink:href="packages/UI/controllers/src/switcher/index.ts" xlink:title="index.ts">
<path fill="#ddfeff" stroke="black" d="M609.5,-106C609.5,-106 567.5,-106 567.5,-106 564.5,-106 561.5,-103 561.5,-100 561.5,-100 561.5,-94 561.5,-94 561.5,-91 564.5,-88 567.5,-88 567.5,-88 609.5,-88 609.5,-88 612.5,-88 615.5,-91 615.5,-94 615.5,-94 615.5,-100 615.5,-100 615.5,-103 612.5,-106 609.5,-106"/>
<text text-anchor="start" x="570" y="-94.8" font-family="Helvetica,sans-Serif" font-size="9.00">index.ts</text>
</a>
</g>
</g>
<!-- packages/UI/controllers/src/index.ts&#45;&gt;packages/UI/controllers/src/switcher/index.ts -->
<g id="edge17" class="edge">
<title>packages/UI/controllers/src/index.ts&#45;&gt;packages/UI/controllers/src/switcher/index.ts</title>
<path fill="none" stroke="#000000" stroke-width="2" stroke-opacity="0.200000" d="M156.03,-129.94C235.5,-123.89 468.25,-106.16 555.21,-99.54"/>
<polygon fill="#000000" fill-opacity="0.200000" stroke="#000000" stroke-width="2" stroke-opacity="0.200000" points="561.38,-101.17 555.23,-99.53 561.06,-96.98 561.38,-101.17"/>
</g>
<!-- packages/UI/controllers/src/color&#45;selector.ts/color&#45;selector.ts -->
<g id="node3" class="node">
<title>packages/UI/controllers/src/color&#45;selector.ts/color&#45;selector.ts</title>
<g id="a_node3"><a xlink:href="packages/UI/controllers/src/color-selector.ts/color-selector.ts" xlink:title="color&#45;selector.ts">
<path fill="#ddfeff" stroke="black" d="M918.5,-284C918.5,-284 844.5,-284 844.5,-284 841.5,-284 838.5,-281 838.5,-278 838.5,-278 838.5,-272 838.5,-272 838.5,-269 841.5,-266 844.5,-266 844.5,-266 918.5,-266 918.5,-266 921.5,-266 924.5,-269 924.5,-272 924.5,-272 924.5,-278 924.5,-278 924.5,-281 921.5,-284 918.5,-284"/>
<text text-anchor="middle" x="881.5" y="-272.8" font-family="Helvetica,sans-Serif" font-size="9.00">color&#45;selector.ts</text>
</a>
</g>
</g>
<!-- packages/UI/controllers/src/color&#45;selector.ts/color&#45;selector.ts&#45;&gt;packages/UI/controllers/src/controller/index.ts -->
<g id="edge2" class="edge">
<title>packages/UI/controllers/src/color&#45;selector.ts/color&#45;selector.ts&#45;&gt;packages/UI/controllers/src/controller/index.ts</title>
<path fill="none" stroke="#000000" stroke-width="2" stroke-opacity="0.200000" d="M891.5,-266C914.13,-243.37 973.44,-184.06 1000.14,-157.36"/>
<polygon fill="#000000" fill-opacity="0.200000" stroke="#000000" stroke-width="2" stroke-opacity="0.200000" points="1001.68,-158.79 1004.43,-153.07 998.71,-155.82 1001.68,-158.79"/>
</g>
<!-- packages/UI/controllers/src/controller/controller.ts -->
<g id="node11" class="node">
<title>packages/UI/controllers/src/controller/controller.ts</title>
<g id="a_node11"><a xlink:href="packages/UI/controllers/src/controller/controller.ts" xlink:title="controller.ts">
<path fill="#ddfeff" stroke="black" d="M1118.5,-153C1118.5,-153 1060.5,-153 1060.5,-153 1057.5,-153 1054.5,-150 1054.5,-147 1054.5,-147 1054.5,-141 1054.5,-141 1054.5,-138 1057.5,-135 1060.5,-135 1060.5,-135 1118.5,-135 1118.5,-135 1121.5,-135 1124.5,-138 1124.5,-141 1124.5,-141 1124.5,-147 1124.5,-147 1124.5,-150 1121.5,-153 1118.5,-153"/>
<text text-anchor="start" x="1062.5" y="-141.8" font-family="Helvetica,sans-Serif" font-size="9.00">controller.ts</text>
</a>
</g>
</g>
<!-- packages/UI/controllers/src/controller/index.ts&#45;&gt;packages/UI/controllers/src/controller/controller.ts -->
<g id="edge12" class="edge">
<title>packages/UI/controllers/src/controller/index.ts&#45;&gt;packages/UI/controllers/src/controller/controller.ts</title>
<path fill="none" stroke="#000000" stroke-width="2" stroke-opacity="0.200000" d="M1041.85,-144C1043.9,-144 1045.98,-144 1048.09,-144"/>
<polygon fill="#000000" fill-opacity="0.200000" stroke="#000000" stroke-width="2" stroke-opacity="0.200000" points="1054.43,-146.1 1048.43,-144 1054.43,-141.9 1054.43,-146.1"/>
</g>
<!-- packages/UI/controllers/src/color&#45;selector.ts/index.ts&#45;&gt;packages/UI/controllers/src/color&#45;selector.ts/color&#45;selector.ts -->
<g id="edge3" class="edge">
<title>packages/UI/controllers/src/color&#45;selector.ts/index.ts&#45;&gt;packages/UI/controllers/src/color&#45;selector.ts/color&#45;selector.ts</title>
<path fill="none" stroke="#000000" stroke-width="2" stroke-opacity="0.200000" d="M331.56,-277.86C422.07,-277.39 715.15,-275.86 832.38,-275.26"/>
<polygon fill="#000000" fill-opacity="0.200000" stroke="#000000" stroke-width="2" stroke-opacity="0.200000" points="838.51,-277.32 832.5,-275.25 838.49,-273.12 838.51,-277.32"/>
</g>
<!-- packages/UI/controllers/src/color&#45;selector.ts/irm&#45;color&#45;selector.ts -->
<g id="node6" class="node">
<title>packages/UI/controllers/src/color&#45;selector.ts/irm&#45;color&#45;selector.ts</title>
<g id="a_node6"><a xlink:href="packages/UI/controllers/src/color-selector.ts/irm-color-selector.ts" xlink:title="irm&#45;color&#45;selector.ts">
<path fill="#ddfeff" stroke="black" d="M763.5,-305C763.5,-305 671.5,-305 671.5,-305 668.5,-305 665.5,-302 665.5,-299 665.5,-299 665.5,-293 665.5,-293 665.5,-290 668.5,-287 671.5,-287 671.5,-287 763.5,-287 763.5,-287 766.5,-287 769.5,-290 769.5,-293 769.5,-293 769.5,-299 769.5,-299 769.5,-302 766.5,-305 763.5,-305"/>
<text text-anchor="start" x="673.5" y="-293.8" font-family="Helvetica,sans-Serif" font-size="9.00">irm&#45;color&#45;selector.ts</text>
</a>
</g>
</g>
<!-- packages/UI/controllers/src/color&#45;selector.ts/index.ts&#45;&gt;packages/UI/controllers/src/color&#45;selector.ts/irm&#45;color&#45;selector.ts -->
<g id="edge4" class="edge">
<title>packages/UI/controllers/src/color&#45;selector.ts/index.ts&#45;&gt;packages/UI/controllers/src/color&#45;selector.ts/irm&#45;color&#45;selector.ts</title>
<path fill="none" stroke="#000000" stroke-width="2" stroke-opacity="0.200000" d="M331.6,-279.18C397.73,-282.06 568.6,-289.51 659.16,-293.46"/>
<polygon fill="#000000" fill-opacity="0.200000" stroke="#000000" stroke-width="2" stroke-opacity="0.200000" points="665.18,-295.82 659.28,-293.46 665.36,-291.63 665.18,-295.82"/>
</g>
<!-- packages/UI/controllers/src/color&#45;selector.ts/melody&#45;color&#45;controller.ts -->
<g id="node7" class="node">
<title>packages/UI/controllers/src/color&#45;selector.ts/melody&#45;color&#45;controller.ts</title>
<g id="a_node7"><a xlink:href="packages/UI/controllers/src/color-selector.ts/melody-color-controller.ts" xlink:title="melody&#45;color&#45;controller.ts">
<path fill="#ddfeff" stroke="black" d="M507,-312C507,-312 389,-312 389,-312 386,-312 383,-309 383,-306 383,-306 383,-300 383,-300 383,-297 386,-294 389,-294 389,-294 507,-294 507,-294 510,-294 513,-297 513,-300 513,-300 513,-306 513,-306 513,-309 510,-312 507,-312"/>
<text text-anchor="start" x="391" y="-300.8" font-family="Helvetica,sans-Serif" font-size="9.00">melody&#45;color&#45;controller.ts</text>
</a>
</g>
</g>
<!-- packages/UI/controllers/src/color&#45;selector.ts/index.ts&#45;&gt;packages/UI/controllers/src/color&#45;selector.ts/melody&#45;color&#45;controller.ts -->
<g id="edge5" class="edge">
<title>packages/UI/controllers/src/color&#45;selector.ts/index.ts&#45;&gt;packages/UI/controllers/src/color&#45;selector.ts/melody&#45;color&#45;controller.ts</title>
<path fill="none" stroke="#000000" stroke-width="2" stroke-opacity="0.200000" d="M331.78,-282.64C348.15,-285.54 369.86,-289.37 390.01,-292.93"/>
<polygon fill="#000000" fill-opacity="0.200000" stroke="#000000" stroke-width="2" stroke-opacity="0.200000" points="395.56,-296.05 390.02,-292.93 396.3,-291.91 395.56,-296.05"/>
</g>
<!-- packages/UI/controllers/src/color&#45;selector.ts/irm&#45;color&#45;selector.ts&#45;&gt;packages/UI/controllers/src/color&#45;selector.ts/color&#45;selector.ts -->
<g id="edge6" class="edge">
<title>packages/UI/controllers/src/color&#45;selector.ts/irm&#45;color&#45;selector.ts&#45;&gt;packages/UI/controllers/src/color&#45;selector.ts/color&#45;selector.ts</title>
<path fill="none" stroke="#000000" stroke-width="2" stroke-opacity="0.200000" d="M769.76,-289.36C789.75,-286.76 812.55,-283.81 832.25,-281.25"/>
<polygon fill="#000000" fill-opacity="0.200000" stroke="#000000" stroke-width="2" stroke-opacity="0.200000" points="832.57,-283.33 838.25,-280.48 832.03,-279.17 832.57,-283.33"/>
</g>
<!-- packages/cognitive&#45;theory&#45;of&#45;music/irm/dist/index.js -->
<g id="node8" class="node">
<title>packages/cognitive&#45;theory&#45;of&#45;music/irm/dist/index.js</title>
<g id="a_node8"><a xlink:href="packages/cognitive-theory-of-music/irm/dist/index.js" xlink:title="index.js">
<polygon fill="#ffffcc" stroke="black" points="908.5,-560 907,-562 896.5,-562 895,-560 854.5,-560 854.5,-542 908.5,-542 908.5,-560"/>
<text text-anchor="start" x="864" y="-548.8" font-family="Helvetica,sans-Serif" font-size="9.00">index.js</text>
</a>
</g>
</g>
<!-- packages/UI/controllers/src/color&#45;selector.ts/irm&#45;color&#45;selector.ts&#45;&gt;packages/cognitive&#45;theory&#45;of&#45;music/irm/dist/index.js -->
<g id="edge7" class="edge">
<title>packages/UI/controllers/src/color&#45;selector.ts/irm&#45;color&#45;selector.ts&#45;&gt;packages/cognitive&#45;theory&#45;of&#45;music/irm/dist/index.js</title>
<path fill="none" stroke="#000000" stroke-width="2" stroke-opacity="0.200000" d="M724.27,-305.08C748.42,-343.1 841.61,-489.78 871.33,-536.57"/>
<polygon fill="#000000" fill-opacity="0.200000" stroke="#000000" stroke-width="2" stroke-opacity="0.200000" points="869.64,-537.83 874.63,-541.77 873.19,-535.58 869.64,-537.83"/>
</g>
<!-- packages/UI/controllers/src/color&#45;selector.ts/melody&#45;color&#45;selector.ts -->
<g id="node9" class="node">
<title>packages/UI/controllers/src/color&#45;selector.ts/melody&#45;color&#45;selector.ts</title>
<g id="a_node9"><a xlink:href="packages/UI/controllers/src/color-selector.ts/melody-color-selector.ts" xlink:title="melody&#45;color&#45;selector.ts">
<path fill="#ddfeff" stroke="black" d="M643.5,-312C643.5,-312 533.5,-312 533.5,-312 530.5,-312 527.5,-309 527.5,-306 527.5,-306 527.5,-300 527.5,-300 527.5,-297 530.5,-294 533.5,-294 533.5,-294 643.5,-294 643.5,-294 646.5,-294 649.5,-297 649.5,-300 649.5,-300 649.5,-306 649.5,-306 649.5,-309 646.5,-312 643.5,-312"/>
<text text-anchor="start" x="535.5" y="-300.8" font-family="Helvetica,sans-Serif" font-size="9.00">melody&#45;color&#45;selector.ts</text>
</a>
</g>
</g>
<!-- packages/UI/controllers/src/color&#45;selector.ts/melody&#45;color&#45;controller.ts&#45;&gt;packages/UI/controllers/src/color&#45;selector.ts/melody&#45;color&#45;selector.ts -->
<g id="edge8" class="edge">
<title>packages/UI/controllers/src/color&#45;selector.ts/melody&#45;color&#45;controller.ts&#45;&gt;packages/UI/controllers/src/color&#45;selector.ts/melody&#45;color&#45;selector.ts</title>
<path fill="none" stroke="#000000" stroke-width="2" stroke-opacity="0.200000" d="M513.38,-303C516.01,-303 518.64,-303 521.27,-303"/>
<polygon fill="#000000" fill-opacity="0.200000" stroke="#000000" stroke-width="2" stroke-opacity="0.200000" points="521.38,-305.1 527.38,-303 521.37,-300.9 521.38,-305.1"/>
</g>
<!-- packages/UI/controllers/src/color&#45;selector.ts/melody&#45;color&#45;selector.ts&#45;&gt;packages/UI/controllers/src/color&#45;selector.ts/irm&#45;color&#45;selector.ts -->
<g id="edge9" class="edge">
<title>packages/UI/controllers/src/color&#45;selector.ts/melody&#45;color&#45;selector.ts&#45;&gt;packages/UI/controllers/src/color&#45;selector.ts/irm&#45;color&#45;selector.ts</title>
<path fill="none" stroke="#000000" stroke-width="2" stroke-opacity="0.200000" d="M649.65,-299.68C652.77,-299.51 655.91,-299.34 659.02,-299.17"/>
<polygon fill="#000000" fill-opacity="0.200000" stroke="#000000" stroke-width="2" stroke-opacity="0.200000" points="659.5,-301.25 665.37,-298.82 659.27,-297.05 659.5,-301.25"/>
</g>
<!-- packages/UI/controllers/src/color&#45;selector.ts/melody&#45;color&#45;selector.ts&#45;&gt;packages/cognitive&#45;theory&#45;of&#45;music/irm/dist/index.js -->
<g id="edge10" class="edge">
<title>packages/UI/controllers/src/color&#45;selector.ts/melody&#45;color&#45;selector.ts&#45;&gt;packages/cognitive&#45;theory&#45;of&#45;music/irm/dist/index.js</title>
<path fill="none" stroke="#000000" stroke-width="2" stroke-opacity="0.200000" d="M599.28,-312.12C643.78,-349.79 813.42,-493.38 865.92,-537.81"/>
<polygon fill="#000000" fill-opacity="0.200000" stroke="#000000" stroke-width="2" stroke-opacity="0.200000" points="864.69,-539.52 870.63,-541.8 867.4,-536.32 864.69,-539.52"/>
</g>
<!-- packages/UI/controllers/src/controller/controller&#45;view.ts -->
<g id="node10" class="node">
<title>packages/UI/controllers/src/controller/controller&#45;view.ts</title>
<g id="a_node10"><a xlink:href="packages/UI/controllers/src/controller/controller-view.ts" xlink:title="controller&#45;view.ts">
<path fill="#ddfeff" stroke="black" d="M1223.5,-153C1223.5,-153 1143.5,-153 1143.5,-153 1140.5,-153 1137.5,-150 1137.5,-147 1137.5,-147 1137.5,-141 1137.5,-141 1137.5,-138 1140.5,-135 1143.5,-135 1143.5,-135 1223.5,-135 1223.5,-135 1226.5,-135 1229.5,-138 1229.5,-141 1229.5,-141 1229.5,-147 1229.5,-147 1229.5,-150 1226.5,-153 1223.5,-153"/>
<text text-anchor="start" x="1145.5" y="-141.8" font-family="Helvetica,sans-Serif" font-size="9.00">controller&#45;view.ts</text>
</a>
</g>
</g>
<!-- packages/UI/controllers/src/controller/controller.ts&#45;&gt;packages/UI/controllers/src/controller/controller&#45;view.ts -->
<g id="edge11" class="edge">
<title>packages/UI/controllers/src/controller/controller.ts&#45;&gt;packages/UI/controllers/src/controller/controller&#45;view.ts</title>
<path fill="none" stroke="#000000" stroke-width="2" stroke-opacity="0.200000" d="M1124.76,-144C1126.8,-144 1128.88,-144 1130.97,-144"/>
<polygon fill="#000000" fill-opacity="0.200000" stroke="#000000" stroke-width="2" stroke-opacity="0.200000" points="1131.27,-146.1 1137.27,-144 1131.27,-141.9 1131.27,-146.1"/>
</g>
<!-- packages/UI/controllers/src/melody&#45;beep&#45;controller/melody&#45;beep&#45;controller.ts -->
<g id="node15" class="node">
<title>packages/UI/controllers/src/melody&#45;beep&#45;controller/melody&#45;beep&#45;controller.ts</title>
<g id="a_node15"><a xlink:href="packages/UI/controllers/src/melody-beep-controller/melody-beep-controller.ts" xlink:title="melody&#45;beep&#45;controller.ts">
<path fill="#ddfeff" stroke="black" d="M364,-141C364,-141 245,-141 245,-141 242,-141 239,-138 239,-135 239,-135 239,-129 239,-129 239,-126 242,-123 245,-123 245,-123 364,-123 364,-123 367,-123 370,-126 370,-129 370,-129 370,-135 370,-135 370,-138 367,-141 364,-141"/>
<text text-anchor="start" x="247" y="-129.8" font-family="Helvetica,sans-Serif" font-size="9.00">melody&#45;beep&#45;controller.ts</text>
</a>
</g>
</g>
<!-- packages/UI/controllers/src/melody&#45;beep&#45;controller/index.ts&#45;&gt;packages/UI/controllers/src/melody&#45;beep&#45;controller/melody&#45;beep&#45;controller.ts -->
<g id="edge18" class="edge">
<title>packages/UI/controllers/src/melody&#45;beep&#45;controller/index.ts&#45;&gt;packages/UI/controllers/src/melody&#45;beep&#45;controller/melody&#45;beep&#45;controller.ts</title>
<path fill="none" stroke="#000000" stroke-width="2" stroke-opacity="0.200000" d="M226.12,-132C228.22,-132 230.39,-132 232.62,-132"/>
<polygon fill="#000000" fill-opacity="0.200000" stroke="#000000" stroke-width="2" stroke-opacity="0.200000" points="238.64,-134.1 232.64,-132 238.64,-129.9 238.64,-134.1"/>
</g>
<!-- packages/UI/controllers/src/melody&#45;beep&#45;controller/melody&#45;beep&#45;switcher.ts -->
<g id="node16" class="node">
<title>packages/UI/controllers/src/melody&#45;beep&#45;controller/melody&#45;beep&#45;switcher.ts</title>
<g id="a_node16"><a xlink:href="packages/UI/controllers/src/melody-beep-controller/melody-beep-switcher.ts" xlink:title="melody&#45;beep&#45;switcher.ts">
<path fill="#ddfeff" stroke="black" d="M505.5,-126C505.5,-126 390.5,-126 390.5,-126 387.5,-126 384.5,-123 384.5,-120 384.5,-120 384.5,-114 384.5,-114 384.5,-111 387.5,-108 390.5,-108 390.5,-108 505.5,-108 505.5,-108 508.5,-108 511.5,-111 511.5,-114 511.5,-114 511.5,-120 511.5,-120 511.5,-123 508.5,-126 505.5,-126"/>
<text text-anchor="start" x="392.5" y="-114.8" font-family="Helvetica,sans-Serif" font-size="9.00">melody&#45;beep&#45;switcher.ts</text>
</a>
</g>
</g>
<!-- packages/UI/controllers/src/melody&#45;beep&#45;controller/index.ts&#45;&gt;packages/UI/controllers/src/melody&#45;beep&#45;controller/melody&#45;beep&#45;switcher.ts -->
<g id="edge19" class="edge">
<title>packages/UI/controllers/src/melody&#45;beep&#45;controller/index.ts&#45;&gt;packages/UI/controllers/src/melody&#45;beep&#45;controller/melody&#45;beep&#45;switcher.ts</title>
<path fill="none" stroke="#000000" stroke-width="2" stroke-opacity="0.200000" d="M226.12,-130.37C262.34,-128.18 327.78,-124.24 378.24,-121.2"/>
<polygon fill="#000000" fill-opacity="0.200000" stroke="#000000" stroke-width="2" stroke-opacity="0.200000" points="384.44,-122.93 378.33,-121.2 384.19,-118.74 384.44,-122.93"/>
</g>
<!-- packages/UI/controllers/src/melody&#45;beep&#45;controller/melody&#45;beep&#45;volume.ts -->
<g id="node17" class="node">
<title>packages/UI/controllers/src/melody&#45;beep&#45;controller/melody&#45;beep&#45;volume.ts</title>
<g id="a_node17"><a xlink:href="packages/UI/controllers/src/melody-beep-controller/melody-beep-volume.ts" xlink:title="melody&#45;beep&#45;volume.ts">
<path fill="#ddfeff" stroke="black" d="M503,-156C503,-156 393,-156 393,-156 390,-156 387,-153 387,-150 387,-150 387,-144 387,-144 387,-141 390,-138 393,-138 393,-138 503,-138 503,-138 506,-138 509,-141 509,-144 509,-144 509,-150 509,-150 509,-153 506,-156 503,-156"/>
<text text-anchor="start" x="395" y="-144.8" font-family="Helvetica,sans-Serif" font-size="9.00">melody&#45;beep&#45;volume.ts</text>
</a>
</g>
</g>
<!-- packages/UI/controllers/src/melody&#45;beep&#45;controller/index.ts&#45;&gt;packages/UI/controllers/src/melody&#45;beep&#45;controller/melody&#45;beep&#45;volume.ts -->
<g id="edge20" class="edge">
<title>packages/UI/controllers/src/melody&#45;beep&#45;controller/index.ts&#45;&gt;packages/UI/controllers/src/melody&#45;beep&#45;controller/melody&#45;beep&#45;volume.ts</title>
<path fill="none" stroke="#000000" stroke-width="2" stroke-opacity="0.200000" d="M226.12,-133.63C262.94,-135.85 329.98,-139.89 380.76,-142.95"/>
<polygon fill="#000000" fill-opacity="0.200000" stroke="#000000" stroke-width="2" stroke-opacity="0.200000" points="386.74,-145.41 380.88,-142.96 386.99,-141.22 386.74,-145.41"/>
</g>
<!-- packages/UI/controllers/src/slider/abstract&#45;slider.ts -->
<g id="node18" class="node">
<title>packages/UI/controllers/src/slider/abstract&#45;slider.ts</title>
<g id="a_node18"><a xlink:href="packages/UI/controllers/src/slider/abstract-slider.ts" xlink:title="abstract&#45;slider.ts">
<path fill="#ddfeff" stroke="black" d="M921.5,-187C921.5,-187 841.5,-187 841.5,-187 838.5,-187 835.5,-184 835.5,-181 835.5,-181 835.5,-175 835.5,-175 835.5,-172 838.5,-169 841.5,-169 841.5,-169 921.5,-169 921.5,-169 924.5,-169 927.5,-172 927.5,-175 927.5,-175 927.5,-181 927.5,-181 927.5,-184 924.5,-187 921.5,-187"/>
<text text-anchor="start" x="843.5" y="-175.8" font-family="Helvetica,sans-Serif" font-size="9.00">abstract&#45;slider.ts</text>
</a>
</g>
</g>
<!-- packages/UI/controllers/src/slider/index.ts&#45;&gt;packages/UI/controllers/src/slider/abstract&#45;slider.ts -->
<g id="edge27" class="edge">
<title>packages/UI/controllers/src/slider/index.ts&#45;&gt;packages/UI/controllers/src/slider/abstract&#45;slider.ts</title>
<path fill="none" stroke="#000000" stroke-width="2" stroke-opacity="0.200000" d="M615.54,-184.35C664.03,-183.2 766.53,-180.75 829.17,-179.25"/>
<polygon fill="#000000" fill-opacity="0.200000" stroke="#000000" stroke-width="2" stroke-opacity="0.200000" points="835.53,-181.2 829.48,-179.24 835.43,-177 835.53,-181.2"/>
</g>
<!-- packages/UI/controllers/src/slider/hierarchy&#45;level.ts -->
<g id="node19" class="node">
<title>packages/UI/controllers/src/slider/hierarchy&#45;level.ts</title>
<g id="a_node19"><a xlink:href="packages/UI/controllers/src/slider/hierarchy-level.ts" xlink:title="hierarchy&#45;level.ts">
<path fill="#ddfeff" stroke="black" d="M758.5,-194C758.5,-194 676.5,-194 676.5,-194 673.5,-194 670.5,-191 670.5,-188 670.5,-188 670.5,-182 670.5,-182 670.5,-179 673.5,-176 676.5,-176 676.5,-176 758.5,-176 758.5,-176 761.5,-176 764.5,-179 764.5,-182 764.5,-182 764.5,-188 764.5,-188 764.5,-191 761.5,-194 758.5,-194"/>
<text text-anchor="start" x="678.5" y="-182.8" font-family="Helvetica,sans-Serif" font-size="9.00">hierarchy&#45;level.ts</text>
</a>
</g>
</g>
<!-- packages/UI/controllers/src/slider/index.ts&#45;&gt;packages/UI/controllers/src/slider/hierarchy&#45;level.ts -->
<g id="edge28" class="edge">
<title>packages/UI/controllers/src/slider/index.ts&#45;&gt;packages/UI/controllers/src/slider/hierarchy&#45;level.ts</title>
<path fill="none" stroke="#000000" stroke-width="2" stroke-opacity="0.200000" d="M615.51,-185C629.6,-185 647.52,-185 664.35,-185"/>
<polygon fill="#000000" fill-opacity="0.200000" stroke="#000000" stroke-width="2" stroke-opacity="0.200000" points="670.49,-187.1 664.49,-185 670.49,-182.9 670.49,-187.1"/>
</g>
<!-- packages/UI/controllers/src/slider/time&#45;range&#45;slider.ts -->
<g id="node20" class="node">
<title>packages/UI/controllers/src/slider/time&#45;range&#45;slider.ts</title>
<g id="a_node20"><a xlink:href="packages/UI/controllers/src/slider/time-range-slider.ts" xlink:title="time&#45;range&#45;slider.ts">
<path fill="#ddfeff" stroke="black" d="M763.5,-224C763.5,-224 671.5,-224 671.5,-224 668.5,-224 665.5,-221 665.5,-218 665.5,-218 665.5,-212 665.5,-212 665.5,-209 668.5,-206 671.5,-206 671.5,-206 763.5,-206 763.5,-206 766.5,-206 769.5,-209 769.5,-212 769.5,-212 769.5,-218 769.5,-218 769.5,-221 766.5,-224 763.5,-224"/>
<text text-anchor="start" x="673.5" y="-212.8" font-family="Helvetica,sans-Serif" font-size="9.00">time&#45;range&#45;slider.ts</text>
</a>
</g>
</g>
<!-- packages/UI/controllers/src/slider/index.ts&#45;&gt;packages/UI/controllers/src/slider/time&#45;range&#45;slider.ts -->
<g id="edge29" class="edge">
<title>packages/UI/controllers/src/slider/index.ts&#45;&gt;packages/UI/controllers/src/slider/time&#45;range&#45;slider.ts</title>
<path fill="none" stroke="#000000" stroke-width="2" stroke-opacity="0.200000" d="M615.51,-191.14C631.68,-194.96 652.9,-199.98 671.71,-204.42"/>
<polygon fill="#000000" fill-opacity="0.200000" stroke="#000000" stroke-width="2" stroke-opacity="0.200000" points="677.51,-207.95 672.15,-204.52 678.47,-203.86 677.51,-207.95"/>
</g>
<!-- packages/UI/controllers/src/switcher/abstract&#45;switcher.ts -->
<g id="node22" class="node">
<title>packages/UI/controllers/src/switcher/abstract&#45;switcher.ts</title>
<g id="a_node22"><a xlink:href="packages/UI/controllers/src/switcher/abstract-switcher.ts" xlink:title="abstract&#45;switcher.ts">
<path fill="#ddfeff" stroke="black" d="M928.5,-113C928.5,-113 834.5,-113 834.5,-113 831.5,-113 828.5,-110 828.5,-107 828.5,-107 828.5,-101 828.5,-101 828.5,-98 831.5,-95 834.5,-95 834.5,-95 928.5,-95 928.5,-95 931.5,-95 934.5,-98 934.5,-101 934.5,-101 934.5,-107 934.5,-107 934.5,-110 931.5,-113 928.5,-113"/>
<text text-anchor="start" x="836.5" y="-101.8" font-family="Helvetica,sans-Serif" font-size="9.00">abstract&#45;switcher.ts</text>
</a>
</g>
</g>
<!-- packages/UI/controllers/src/switcher/index.ts&#45;&gt;packages/UI/controllers/src/switcher/abstract&#45;switcher.ts -->
<g id="edge35" class="edge">
<title>packages/UI/controllers/src/switcher/index.ts&#45;&gt;packages/UI/controllers/src/switcher/abstract&#45;switcher.ts</title>
<path fill="none" stroke="#000000" stroke-width="2" stroke-opacity="0.200000" d="M615.54,-97.65C662.24,-98.76 759.07,-101.08 822.11,-102.58"/>
<polygon fill="#000000" fill-opacity="0.200000" stroke="#000000" stroke-width="2" stroke-opacity="0.200000" points="828.43,-104.83 822.48,-102.59 828.53,-100.63 828.43,-104.83"/>
</g>
<!-- packages/UI/controllers/src/switcher/d&#45;melody&#45;switcher.ts -->
<g id="node23" class="node">
<title>packages/UI/controllers/src/switcher/d&#45;melody&#45;switcher.ts</title>
<g id="a_node23"><a xlink:href="packages/UI/controllers/src/switcher/d-melody-switcher.ts" xlink:title="d&#45;melody&#45;switcher.ts">
<path fill="#ddfeff" stroke="black" d="M766.5,-76C766.5,-76 668.5,-76 668.5,-76 665.5,-76 662.5,-73 662.5,-70 662.5,-70 662.5,-64 662.5,-64 662.5,-61 665.5,-58 668.5,-58 668.5,-58 766.5,-58 766.5,-58 769.5,-58 772.5,-61 772.5,-64 772.5,-64 772.5,-70 772.5,-70 772.5,-73 769.5,-76 766.5,-76"/>
<text text-anchor="start" x="670.5" y="-64.8" font-family="Helvetica,sans-Serif" font-size="9.00">d&#45;melody&#45;switcher.ts</text>
</a>
</g>
</g>
<!-- packages/UI/controllers/src/switcher/index.ts&#45;&gt;packages/UI/controllers/src/switcher/d&#45;melody&#45;switcher.ts -->
<g id="edge36" class="edge">
<title>packages/UI/controllers/src/switcher/index.ts&#45;&gt;packages/UI/controllers/src/switcher/d&#45;melody&#45;switcher.ts</title>
<path fill="none" stroke="#000000" stroke-width="2" stroke-opacity="0.200000" d="M615.51,-90.86C631.68,-87.04 652.9,-82.02 671.71,-77.58"/>
<polygon fill="#000000" fill-opacity="0.200000" stroke="#000000" stroke-width="2" stroke-opacity="0.200000" points="678.47,-78.14 672.15,-77.48 677.51,-74.05 678.47,-78.14"/>
</g>
<!-- packages/UI/controllers/src/switcher/gravity&#45;switcher.ts -->
<g id="node24" class="node">
<title>packages/UI/controllers/src/switcher/gravity&#45;switcher.ts</title>
<g id="a_node24"><a xlink:href="packages/UI/controllers/src/switcher/gravity-switcher.ts" xlink:title="gravity&#45;switcher.ts">
<path fill="#ddfeff" stroke="black" d="M761.5,-106C761.5,-106 673.5,-106 673.5,-106 670.5,-106 667.5,-103 667.5,-100 667.5,-100 667.5,-94 667.5,-94 667.5,-91 670.5,-88 673.5,-88 673.5,-88 761.5,-88 761.5,-88 764.5,-88 767.5,-91 767.5,-94 767.5,-94 767.5,-100 767.5,-100 767.5,-103 764.5,-106 761.5,-106"/>
<text text-anchor="start" x="675.5" y="-94.8" font-family="Helvetica,sans-Serif" font-size="9.00">gravity&#45;switcher.ts</text>
</a>
</g>
</g>
<!-- packages/UI/controllers/src/switcher/index.ts&#45;&gt;packages/UI/controllers/src/switcher/gravity&#45;switcher.ts -->
<g id="edge37" class="edge">
<title>packages/UI/controllers/src/switcher/index.ts&#45;&gt;packages/UI/controllers/src/switcher/gravity&#45;switcher.ts</title>
<path fill="none" stroke="#000000" stroke-width="2" stroke-opacity="0.200000" d="M615.51,-97C628.7,-97 645.27,-97 661.14,-97"/>
<polygon fill="#000000" fill-opacity="0.200000" stroke="#000000" stroke-width="2" stroke-opacity="0.200000" points="667.42,-99.1 661.42,-97 667.42,-94.9 667.42,-99.1"/>
</g>
<!-- packages/UI/controllers/src/melody&#45;beep&#45;controller/melody&#45;beep&#45;controller.ts&#45;&gt;packages/UI/controllers/src/melody&#45;beep&#45;controller/melody&#45;beep&#45;switcher.ts -->
<g id="edge21" class="edge">
<title>packages/UI/controllers/src/melody&#45;beep&#45;controller/melody&#45;beep&#45;controller.ts&#45;&gt;packages/UI/controllers/src/melody&#45;beep&#45;controller/melody&#45;beep&#45;switcher.ts</title>
<path fill="none" stroke="#000000" stroke-width="2" stroke-opacity="0.200000" d="M370.04,-125.16C372.74,-124.87 375.46,-124.58 378.18,-124.3"/>
<polygon fill="#000000" fill-opacity="0.200000" stroke="#000000" stroke-width="2" stroke-opacity="0.200000" points="378.75,-126.35 384.5,-123.63 378.31,-122.17 378.75,-126.35"/>
</g>
<!-- packages/UI/controllers/src/melody&#45;beep&#45;controller/melody&#45;beep&#45;controller.ts&#45;&gt;packages/UI/controllers/src/melody&#45;beep&#45;controller/melody&#45;beep&#45;volume.ts -->
<g id="edge22" class="edge">
<title>packages/UI/controllers/src/melody&#45;beep&#45;controller/melody&#45;beep&#45;controller.ts&#45;&gt;packages/UI/controllers/src/melody&#45;beep&#45;controller/melody&#45;beep&#45;volume.ts</title>
<path fill="none" stroke="#000000" stroke-width="2" stroke-opacity="0.200000" d="M370.04,-138.84C373.5,-139.21 376.98,-139.58 380.45,-139.95"/>
<polygon fill="#000000" fill-opacity="0.200000" stroke="#000000" stroke-width="2" stroke-opacity="0.200000" points="380.49,-142.06 386.67,-140.61 380.93,-137.88 380.49,-142.06"/>
</g>
<!-- packages/UI/controllers/src/melody&#45;beep&#45;controller/melody&#45;beep&#45;switcher.ts&#45;&gt;packages/UI/controllers/src/switcher/index.ts -->
<g id="edge23" class="edge">
<title>packages/UI/controllers/src/melody&#45;beep&#45;controller/melody&#45;beep&#45;switcher.ts&#45;&gt;packages/UI/controllers/src/switcher/index.ts</title>
<path fill="none" stroke="#000000" stroke-width="2" stroke-opacity="0.200000" d="M511.36,-107.99C526.42,-105.82 541.91,-103.58 554.96,-101.7"/>
<polygon fill="#000000" fill-opacity="0.200000" stroke="#000000" stroke-width="2" stroke-opacity="0.200000" points="555.52,-103.74 561.16,-100.8 554.92,-99.58 555.52,-103.74"/>
</g>
<!-- packages/UI/controllers/src/melody&#45;beep&#45;controller/melody&#45;beep&#45;volume.ts&#45;&gt;packages/UI/controllers/src/slider/index.ts -->
<g id="edge24" class="edge">
<title>packages/UI/controllers/src/melody&#45;beep&#45;controller/melody&#45;beep&#45;volume.ts&#45;&gt;packages/UI/controllers/src/slider/index.ts</title>
<path fill="none" stroke="#000000" stroke-width="2" stroke-opacity="0.200000" d="M481.82,-156.01C504.05,-162.1 533.28,-170.12 555.36,-176.18"/>
<polygon fill="#000000" fill-opacity="0.200000" stroke="#000000" stroke-width="2" stroke-opacity="0.200000" points="555.05,-178.27 561.39,-177.84 556.16,-174.22 555.05,-178.27"/>
</g>
<!-- packages/UI/controllers/src/slider/abstract&#45;slider.ts&#45;&gt;packages/UI/controllers/src/controller/index.ts -->
<g id="edge25" class="edge">
<title>packages/UI/controllers/src/slider/abstract&#45;slider.ts&#45;&gt;packages/UI/controllers/src/controller/index.ts</title>
<path fill="none" stroke="#000000" stroke-width="2" stroke-opacity="0.200000" d="M917.26,-168.98C937.18,-163.81 962.01,-157.36 981.46,-152.32"/>
<polygon fill="#000000" fill-opacity="0.200000" stroke="#000000" stroke-width="2" stroke-opacity="0.200000" points="982.03,-154.34 987.31,-150.8 980.97,-150.27 982.03,-154.34"/>
</g>
<!-- packages/UI/controllers/src/slider/hierarchy&#45;level.ts&#45;&gt;packages/UI/controllers/src/slider/abstract&#45;slider.ts -->
<g id="edge26" class="edge">
<title>packages/UI/controllers/src/slider/hierarchy&#45;level.ts&#45;&gt;packages/UI/controllers/src/slider/abstract&#45;slider.ts</title>
<path fill="none" stroke="#000000" stroke-width="2" stroke-opacity="0.200000" d="M764.92,-182.99C785.09,-182.12 808.78,-181.1 829.44,-180.21"/>
<polygon fill="#000000" fill-opacity="0.200000" stroke="#000000" stroke-width="2" stroke-opacity="0.200000" points="829.56,-182.3 835.47,-179.95 829.38,-178.11 829.56,-182.3"/>
</g>
<!-- packages/UI/controllers/src/slider/time&#45;range&#45;slider.ts&#45;&gt;packages/UI/controllers/src/slider/abstract&#45;slider.ts -->
<g id="edge30" class="edge">
<title>packages/UI/controllers/src/slider/time&#45;range&#45;slider.ts&#45;&gt;packages/UI/controllers/src/slider/abstract&#45;slider.ts</title>
<path fill="none" stroke="#000000" stroke-width="2" stroke-opacity="0.200000" d="M758.13,-205.95C781.36,-200.64 810.79,-193.92 834.97,-188.4"/>
<polygon fill="#000000" fill-opacity="0.200000" stroke="#000000" stroke-width="2" stroke-opacity="0.200000" points="835.62,-190.41 841,-187.02 834.68,-186.31 835.62,-190.41"/>
</g>
<!-- packages/UI/view&#45;parameters/dist/index.js -->
<g id="node21" class="node">
<title>packages/UI/view&#45;parameters/dist/index.js</title>
<g id="a_node21"><a xlink:href="packages/UI/view-parameters/dist/index.js" xlink:title="index.js">
<polygon fill="#ffffcc" stroke="black" points="908.5,-432 907,-434 896.5,-434 895,-432 854.5,-432 854.5,-414 908.5,-414 908.5,-432"/>
<text text-anchor="start" x="864" y="-420.8" font-family="Helvetica,sans-Serif" font-size="9.00">index.js</text>
</a>
</g>
</g>
<!-- packages/UI/controllers/src/slider/time&#45;range&#45;slider.ts&#45;&gt;packages/UI/view&#45;parameters/dist/index.js -->
<g id="edge31" class="edge">
<title>packages/UI/controllers/src/slider/time&#45;range&#45;slider.ts&#45;&gt;packages/UI/view&#45;parameters/dist/index.js</title>
<path fill="none" stroke="#000000" stroke-width="2" stroke-opacity="0.200000" d="M725.67,-224.21C751.34,-257.16 838.76,-369.4 869.61,-409.02"/>
<polygon fill="#000000" fill-opacity="0.200000" stroke="#000000" stroke-width="2" stroke-opacity="0.200000" points="868.07,-410.46 873.41,-413.9 871.38,-407.88 868.07,-410.46"/>
</g>
<!-- packages/UI/controllers/src/switcher/abstract&#45;switcher.ts&#45;&gt;packages/UI/controllers/src/controller/index.ts -->
<g id="edge32" class="edge">
<title>packages/UI/controllers/src/switcher/abstract&#45;switcher.ts&#45;&gt;packages/UI/controllers/src/controller/index.ts</title>
<path fill="none" stroke="#000000" stroke-width="2" stroke-opacity="0.200000" d="M912.23,-113.08C932.93,-119.4 960.5,-127.82 981.65,-134.28"/>
<polygon fill="#000000" fill-opacity="0.200000" stroke="#000000" stroke-width="2" stroke-opacity="0.200000" points="981.09,-136.3 987.44,-136.04 982.31,-132.28 981.09,-136.3"/>
</g>
<!-- packages/UI/controllers/src/switcher/d&#45;melody&#45;switcher.ts&#45;&gt;packages/UI/controllers/src/switcher/abstract&#45;switcher.ts -->
<g id="edge33" class="edge">
<title>packages/UI/controllers/src/switcher/d&#45;melody&#45;switcher.ts&#45;&gt;packages/UI/controllers/src/switcher/abstract&#45;switcher.ts</title>
<path fill="none" stroke="#000000" stroke-width="2" stroke-opacity="0.200000" d="M758.13,-76.05C781.36,-81.36 810.79,-88.08 834.97,-93.6"/>
<polygon fill="#000000" fill-opacity="0.200000" stroke="#000000" stroke-width="2" stroke-opacity="0.200000" points="834.68,-95.69 841,-94.98 835.62,-91.59 834.68,-95.69"/>
</g>
<!-- packages/UI/controllers/src/switcher/gravity&#45;switcher.ts&#45;&gt;packages/UI/controllers/src/switcher/abstract&#45;switcher.ts -->
<g id="edge34" class="edge">
<title>packages/UI/controllers/src/switcher/gravity&#45;switcher.ts&#45;&gt;packages/UI/controllers/src/switcher/abstract&#45;switcher.ts</title>
<path fill="none" stroke="#000000" stroke-width="2" stroke-opacity="0.200000" d="M767.54,-99.12C784.78,-99.86 804.32,-100.71 822.23,-101.48"/>
<polygon fill="#000000" fill-opacity="0.200000" stroke="#000000" stroke-width="2" stroke-opacity="0.200000" points="822.16,-103.58 828.24,-101.74 822.34,-99.38 822.16,-103.58"/>
</g>
</g>
</svg>
