<?xml version="1.0" encoding="UTF-8" standalone="no"?>
<!DOCTYPE svg PUBLIC "-//W3C//DTD SVG 1.1//EN"
 "http://www.w3.org/Graphics/SVG/1.1/DTD/svg11.dtd">
<!-- Generated by graphviz version 2.43.0 (0)
 -->
<!-- Title: dependency&#45;cruiser output Pages: 1 -->
<svg width="305pt" height="328pt"
 viewBox="0.00 0.00 305.00 328.00" xmlns="http://www.w3.org/2000/svg" xmlns:xlink="http://www.w3.org/1999/xlink">
<g id="graph0" class="graph" transform="scale(1 1) rotate(0) translate(4 324)">
<title>dependency&#45;cruiser output</title>
<polygon fill="white" stroke="transparent" points="-4,4 -4,-324 301,-324 301,4 -4,4"/>
<g id="clust1" class="cluster">
<title>cluster_node_modules</title>
<path fill="#ffffff" stroke="black" stroke-width="2" d="M197,-8C197,-8 263,-8 263,-8 269,-8 275,-14 275,-20 275,-20 275,-48 275,-48 275,-54 269,-60 263,-60 263,-60 197,-60 197,-60 191,-60 185,-54 185,-48 185,-48 185,-20 185,-20 185,-14 191,-8 197,-8"/>
<text text-anchor="middle" x="230" y="-48.8" font-family="Helvetica,sans-Serif" font-weight="bold" font-size="9.00">node_modules</text>
</g>
<g id="clust2" class="cluster">
<title>cluster_packages</title>
<path fill="#ffffff" stroke="black" stroke-width="2" d="M20,-68C20,-68 277,-68 277,-68 283,-68 289,-74 289,-80 289,-80 289,-300 289,-300 289,-306 283,-312 277,-312 277,-312 20,-312 20,-312 14,-312 8,-306 8,-300 8,-300 8,-80 8,-80 8,-74 14,-68 20,-68"/>
<text text-anchor="middle" x="148.5" y="-300.8" font-family="Helvetica,sans-Serif" font-weight="bold" font-size="9.00">packages</text>
</g>
<g id="clust3" class="cluster">
<title>cluster_packages/cli</title>
<path fill="#ffffff" stroke="black" stroke-width="2" d="M28,-76C28,-76 269,-76 269,-76 275,-76 281,-82 281,-88 281,-88 281,-274 281,-274 281,-280 275,-286 269,-286 269,-286 28,-286 28,-286 22,-286 16,-280 16,-274 16,-274 16,-88 16,-88 16,-82 22,-76 28,-76"/>
<text text-anchor="middle" x="148.5" y="-274.8" font-family="Helvetica,sans-Serif" font-weight="bold" font-size="9.00">cli</text>
</g>
<g id="clust4" class="cluster">
<title>cluster_packages/cli/post&#45;f0&#45;util</title>
<path fill="#ffffff" stroke="black" stroke-width="2" d="M36,-84C36,-84 261,-84 261,-84 267,-84 273,-90 273,-96 273,-96 273,-248 273,-248 273,-254 267,-260 261,-260 261,-260 36,-260 36,-260 30,-260 24,-254 24,-248 24,-248 24,-96 24,-96 24,-90 30,-84 36,-84"/>
<text text-anchor="middle" x="148.5" y="-248.8" font-family="Helvetica,sans-Serif" font-weight="bold" font-size="9.00">post&#45;f0&#45;util</text>
</g>
<g id="clust5" class="cluster">
<title>cluster_packages/cli/post&#45;f0&#45;util/src</title>
<path fill="#ffffff" stroke="black" stroke-width="2" d="M44,-92C44,-92 253,-92 253,-92 259,-92 265,-98 265,-104 265,-104 265,-222 265,-222 265,-228 259,-234 253,-234 253,-234 44,-234 44,-234 38,-234 32,-228 32,-222 32,-222 32,-104 32,-104 32,-98 38,-92 44,-92"/>
<text text-anchor="middle" x="148.5" y="-222.8" font-family="Helvetica,sans-Serif" font-weight="bold" font-size="9.00">src</text>
</g>
<!-- node_modules/wavefile -->
<g id="node1" class="node">
<title>node_modules/wavefile</title>
<g id="a_node1"><a xlink:href="https://www.npmjs.com/package/wavefile" xlink:title="wavefile">
<polygon fill="#c40b0a" fill-opacity="0.101961" stroke="black" points="257,-34 205,-34 203,-32 203,-16 255,-16 257,-18 257,-34"/>
<polyline fill="none" stroke="black" points="255,-32 203,-32 "/>
<polyline fill="none" stroke="black" points="255,-32 255,-16 "/>
<polyline fill="none" stroke="black" points="255,-32 257,-34 "/>
<text text-anchor="start" x="211.5" y="-22.8" font-family="Helvetica,sans-Serif" font-size="9.00" fill="#c40b0a">wavefile</text>
</a>
</g>
</g>
<!-- packages/cli/post&#45;f0&#45;util/src/get&#45;bandpass&#45;frequency.ts -->
<g id="node2" class="node">
<title>packages/cli/post&#45;f0&#45;util/src/get&#45;bandpass&#45;frequency.ts</title>
<g id="a_node2"><a xlink:href="packages/cli/post-f0-util/src/get-bandpass-frequency.ts" xlink:title="get&#45;bandpass&#45;frequency.ts">
<path fill="#ddfeff" stroke="black" d="M171,-208C171,-208 46,-208 46,-208 43,-208 40,-205 40,-202 40,-202 40,-196 40,-196 40,-193 43,-190 46,-190 46,-190 171,-190 171,-190 174,-190 177,-193 177,-196 177,-196 177,-202 177,-202 177,-205 174,-208 171,-208"/>
<text text-anchor="start" x="48" y="-196.8" font-family="Helvetica,sans-Serif" font-size="9.00">get&#45;bandpass&#45;frequency.ts</text>
</a>
</g>
</g>
<!-- packages/cli/post&#45;f0&#45;util/src/util.ts -->
<g id="node3" class="node">
<title>packages/cli/post&#45;f0&#45;util/src/util.ts</title>
<g id="a_node3"><a xlink:href="packages/cli/post-f0-util/src/util.ts" xlink:title="util.ts">
<path fill="#ddfeff" stroke="black" d="M251,-208C251,-208 209,-208 209,-208 206,-208 203,-205 203,-202 203,-202 203,-196 203,-196 203,-193 206,-190 209,-190 209,-190 251,-190 251,-190 254,-190 257,-193 257,-196 257,-196 257,-202 257,-202 257,-205 254,-208 251,-208"/>
<text text-anchor="start" x="217" y="-196.8" font-family="Helvetica,sans-Serif" font-size="9.00">util.ts</text>
</a>
</g>
</g>
<!-- packages/cli/post&#45;f0&#45;util/src/get&#45;bandpass&#45;frequency.ts&#45;&gt;packages/cli/post&#45;f0&#45;util/src/util.ts -->
<g id="edge1" class="edge">
<title>packages/cli/post&#45;f0&#45;util/src/get&#45;bandpass&#45;frequency.ts&#45;&gt;packages/cli/post&#45;f0&#45;util/src/util.ts</title>
<path fill="none" stroke="#000000" stroke-width="2" stroke-opacity="0.200000" d="M177.28,-199C183.93,-199 190.45,-199 196.5,-199"/>
<polygon fill="#000000" fill-opacity="0.200000" stroke="#000000" stroke-width="2" stroke-opacity="0.200000" points="196.86,-201.1 202.86,-199 196.86,-196.9 196.86,-201.1"/>
</g>
<!-- packages/cli/post&#45;f0&#45;util/src/get&#45;freq&#45;from&#45;phase.ts -->
<g id="node4" class="node">
<title>packages/cli/post&#45;f0&#45;util/src/get&#45;freq&#45;from&#45;phase.ts</title>
<g id="a_node4"><a xlink:href="packages/cli/post-f0-util/src/get-freq-from-phase.ts" xlink:title="no&#45;orphans">
<path fill="#ccffcc" stroke="orange" d="M161.5,-178C161.5,-178 55.5,-178 55.5,-178 52.5,-178 49.5,-175 49.5,-172 49.5,-172 49.5,-166 49.5,-166 49.5,-163 52.5,-160 55.5,-160 55.5,-160 161.5,-160 161.5,-160 164.5,-160 167.5,-163 167.5,-166 167.5,-166 167.5,-172 167.5,-172 167.5,-175 164.5,-178 161.5,-178"/>
<text text-anchor="start" x="57.5" y="-166.8" font-family="Helvetica,sans-Serif" font-size="9.00" fill="orange">get&#45;freq&#45;from&#45;phase.ts</text>
</a>
</g>
</g>
<!-- packages/cli/post&#45;f0&#45;util/src/get&#45;frequency.ts -->
<g id="node5" class="node">
<title>packages/cli/post&#45;f0&#45;util/src/get&#45;frequency.ts</title>
<g id="a_node5"><a xlink:href="packages/cli/post-f0-util/src/get-frequency.ts" xlink:title="no&#45;orphans">
<path fill="#ccffcc" stroke="orange" d="M147.5,-148C147.5,-148 69.5,-148 69.5,-148 66.5,-148 63.5,-145 63.5,-142 63.5,-142 63.5,-136 63.5,-136 63.5,-133 66.5,-130 69.5,-130 69.5,-130 147.5,-130 147.5,-130 150.5,-130 153.5,-133 153.5,-136 153.5,-136 153.5,-142 153.5,-142 153.5,-145 150.5,-148 147.5,-148"/>
<text text-anchor="start" x="71.5" y="-136.8" font-family="Helvetica,sans-Serif" font-size="9.00" fill="orange">get&#45;frequency.ts</text>
</a>
</g>
</g>
<!-- packages/cli/post&#45;f0&#45;util/src/get&#45;wav.ts -->
<g id="node6" class="node">
<title>packages/cli/post&#45;f0&#45;util/src/get&#45;wav.ts</title>
<g id="a_node6"><a xlink:href="packages/cli/post-f0-util/src/get-wav.ts" xlink:title="get&#45;wav.ts">
<path fill="#ddfeff" stroke="black" d="M134,-118C134,-118 83,-118 83,-118 80,-118 77,-115 77,-112 77,-112 77,-106 77,-106 77,-103 80,-100 83,-100 83,-100 134,-100 134,-100 137,-100 140,-103 140,-106 140,-106 140,-112 140,-112 140,-115 137,-118 134,-118"/>
<text text-anchor="start" x="85" y="-106.8" font-family="Helvetica,sans-Serif" font-size="9.00">get&#45;wav.ts</text>
</a>
</g>
</g>
<!-- packages/cli/post&#45;f0&#45;util/src/get&#45;wav.ts&#45;&gt;node_modules/wavefile -->
<g id="edge2" class="edge">
<title>packages/cli/post&#45;f0&#45;util/src/get&#45;wav.ts&#45;&gt;node_modules/wavefile</title>
<path fill="none" stroke="#000000" stroke-opacity="0.200000" d="M122.75,-99.69C144.21,-84.6 186.64,-54.77 210.89,-37.73"/>
<polygon fill="#000000" fill-opacity="0.200000" stroke="#000000" stroke-opacity="0.200000" points="212.36,-39.27 216.06,-34.1 209.94,-35.83 212.36,-39.27"/>
</g>
</g>
</svg>
