<?xml version="1.0" encoding="UTF-8" standalone="no"?>
<!DOCTYPE svg PUBLIC "-//W3C//DTD SVG 1.1//EN"
 "http://www.w3.org/Graphics/SVG/1.1/DTD/svg11.dtd">
<!-- Generated by graphviz version 2.43.0 (0)
 -->
<!-- Title: dependency&#45;cruiser output Pages: 1 -->
<svg width="243pt" height="271pt"
 viewBox="0.00 0.00 243.39 271.30" xmlns="http://www.w3.org/2000/svg" xmlns:xlink="http://www.w3.org/1999/xlink">
<g id="graph0" class="graph" transform="scale(1 1) rotate(0) translate(4 267.3)">
<title>dependency&#45;cruiser output</title>
<polygon fill="white" stroke="transparent" points="-4,4 -4,-267.3 239.39,-267.3 239.39,4 -4,4"/>
<g id="clust1" class="cluster">
<title>cluster_node_modules</title>
<path fill="#ffffff" stroke="black" stroke-width="2" d="M99.61,0C99.61,0 141.61,0 141.61,0 144.61,0 147.61,-3 147.61,-6 147.61,-6 147.61,-12 147.61,-12 147.61,-15 144.61,-18 141.61,-18 141.61,-18 99.61,-18 99.61,-18 96.61,-18 93.61,-15 93.61,-12 93.61,-12 93.61,-6 93.61,-6 93.61,-3 96.61,0 99.61,0"/>
<text text-anchor="middle" x="120.61" y="-6.8" font-family="Helvetica,sans-Serif" font-weight="bold" font-size="9.00">node_modules</text>
</g>
<g id="clust2" class="cluster">
<title>cluster_packages</title>
<path fill="#ffffff" stroke="black" stroke-width="2" d="M12,-78.06C12,-78.06 223.39,-78.06 223.39,-78.06 229.39,-78.06 235.39,-84.06 235.39,-90.06 235.39,-90.06 235.39,-251.3 235.39,-251.3 235.39,-257.3 229.39,-263.3 223.39,-263.3 223.39,-263.3 12,-263.3 12,-263.3 6,-263.3 0,-257.3 0,-251.3 0,-251.3 0,-90.06 0,-90.06 0,-84.06 6,-78.06 12,-78.06"/>
<text text-anchor="middle" x="117.7" y="-252.1" font-family="Helvetica,sans-Serif" font-weight="bold" font-size="9.00">packages</text>
</g>
<!-- node_modules/wavefile -->
<g id="node1" class="node">
<title>node_modules/wavefile</title>
<g id="a_node1"><a xlink:href="https://www.npmjs.com/package/wavefile" xlink:title="wavefile">
<polygon fill="#c40b0a" fill-opacity="0.101961" stroke="black" points="147.61,-18 95.61,-18 93.61,-16 93.61,0 145.61,0 147.61,-2 147.61,-18"/>
<polyline fill="none" stroke="black" points="145.61,-16 93.61,-16 "/>
<polyline fill="none" stroke="black" points="145.61,-16 145.61,0 "/>
<polyline fill="none" stroke="black" points="145.61,-16 147.61,-18 "/>
<text text-anchor="start" x="102.11" y="-6.8" font-family="Helvetica,sans-Serif" font-size="9.00" fill="#c40b0a">wavefile</text>
</a>
</g>
</g>
<!-- packages/cli/post&#45;f0&#45;util/index.ts -->
<g id="node2" class="node">
<title>packages/cli/post&#45;f0&#45;util/index.ts</title>
<g id="a_node2"><a xlink:href="packages/cli/post-f0-util/index.ts" xlink:title="index.ts">
<path fill="#ddfeff" stroke="black" d="M229.39,-152.27C229.39,-152.27 187.39,-152.27 187.39,-152.27 184.39,-152.27 181.39,-149.27 181.39,-146.27 181.39,-146.27 181.39,-140.27 181.39,-140.27 181.39,-137.27 184.39,-134.27 187.39,-134.27 187.39,-134.27 229.39,-134.27 229.39,-134.27 232.39,-134.27 235.39,-137.27 235.39,-140.27 235.39,-140.27 235.39,-146.27 235.39,-146.27 235.39,-149.27 232.39,-152.27 229.39,-152.27"/>
<text text-anchor="start" x="189.89" y="-141.07" font-family="Helvetica,sans-Serif" font-size="9.00">index.ts</text>
</a>
</g>
</g>
<!-- packages/cli/post&#45;f0&#45;util/src/index.ts -->
<g id="node3" class="node">
<title>packages/cli/post&#45;f0&#45;util/src/index.ts</title>
<g id="a_node3"><a xlink:href="packages/cli/post-f0-util/src/index.ts" xlink:title="index.ts">
<path fill="#ddfeff" stroke="black" d="M148.9,-181.31C148.9,-181.31 106.9,-181.31 106.9,-181.31 103.9,-181.31 100.9,-178.31 100.9,-175.31 100.9,-175.31 100.9,-169.31 100.9,-169.31 100.9,-166.31 103.9,-163.31 106.9,-163.31 106.9,-163.31 148.9,-163.31 148.9,-163.31 151.9,-163.31 154.9,-166.31 154.9,-169.31 154.9,-169.31 154.9,-175.31 154.9,-175.31 154.9,-178.31 151.9,-181.31 148.9,-181.31"/>
<text text-anchor="start" x="109.4" y="-170.11" font-family="Helvetica,sans-Serif" font-size="9.00">index.ts</text>
</a>
</g>
</g>
<!-- packages/cli/post&#45;f0&#45;util/index.ts&#45;&gt;packages/cli/post&#45;f0&#45;util/src/index.ts -->
<g id="edge1" class="edge">
<title>packages/cli/post&#45;f0&#45;util/index.ts&#45;&gt;packages/cli/post&#45;f0&#45;util/src/index.ts</title>
<path fill="none" stroke="#000000" stroke-width="2" stroke-opacity="0.200000" d="M183.36,-152.3C175.64,-155.08 167.04,-158.19 158.96,-161.1"/>
<polygon fill="#000000" fill-opacity="0.200000" stroke="#000000" stroke-width="2" stroke-opacity="0.200000" points="152.2,-161.31 158.55,-161.25 153.62,-165.26 152.2,-161.31"/>
</g>
<!-- packages/cli/post&#45;f0&#45;util/src/get&#45;bandpass&#45;frequency.ts -->
<g id="node4" class="node">
<title>packages/cli/post&#45;f0&#45;util/src/get&#45;bandpass&#45;frequency.ts</title>
<g id="a_node4"><a xlink:href="packages/cli/post-f0-util/src/get-bandpass-frequency.ts" xlink:title="get&#45;bandpass&#45;frequency.ts">
<path fill="#ddfeff" stroke="black" d="M201.91,-263.3C201.91,-263.3 76.91,-263.3 76.91,-263.3 73.91,-263.3 70.91,-260.3 70.91,-257.3 70.91,-257.3 70.91,-251.3 70.91,-251.3 70.91,-248.3 73.91,-245.3 76.91,-245.3 76.91,-245.3 201.91,-245.3 201.91,-245.3 204.91,-245.3 207.91,-248.3 207.91,-251.3 207.91,-251.3 207.91,-257.3 207.91,-257.3 207.91,-260.3 204.91,-263.3 201.91,-263.3"/>
<text text-anchor="start" x="78.91" y="-252.1" font-family="Helvetica,sans-Serif" font-size="9.00">get&#45;bandpass&#45;frequency.ts</text>
</a>
</g>
</g>
<!-- packages/cli/post&#45;f0&#45;util/src/index.ts&#45;&gt;packages/cli/post&#45;f0&#45;util/src/get&#45;bandpass&#45;frequency.ts -->
<g id="edge4" class="edge">
<title>packages/cli/post&#45;f0&#45;util/src/index.ts&#45;&gt;packages/cli/post&#45;f0&#45;util/src/get&#45;bandpass&#45;frequency.ts</title>
<path fill="none" stroke="#000000" stroke-width="2" stroke-opacity="0.200000" d="M129.17,-181.4C131.13,-195.31 134.89,-222.06 137.26,-239"/>
<polygon fill="#000000" fill-opacity="0.200000" stroke="#000000" stroke-width="2" stroke-opacity="0.200000" points="136.05,-245.46 137.3,-239.23 140.21,-244.88 136.05,-245.46"/>
</g>
<!-- packages/cli/post&#45;f0&#45;util/src/util.ts -->
<g id="node5" class="node">
<title>packages/cli/post&#45;f0&#45;util/src/util.ts</title>
<g id="a_node5"><a xlink:href="packages/cli/post-f0-util/src/util.ts" xlink:title="util.ts">
<path fill="#ddfeff" stroke="black" d="M213.63,-233.82C213.63,-233.82 171.63,-233.82 171.63,-233.82 168.63,-233.82 165.63,-230.82 165.63,-227.82 165.63,-227.82 165.63,-221.82 165.63,-221.82 165.63,-218.82 168.63,-215.82 171.63,-215.82 171.63,-215.82 213.63,-215.82 213.63,-215.82 216.63,-215.82 219.63,-218.82 219.63,-221.82 219.63,-221.82 219.63,-227.82 219.63,-227.82 219.63,-230.82 216.63,-233.82 213.63,-233.82"/>
<text text-anchor="start" x="179.63" y="-222.62" font-family="Helvetica,sans-Serif" font-size="9.00">util.ts</text>
</a>
</g>
</g>
<!-- packages/cli/post&#45;f0&#45;util/src/index.ts&#45;&gt;packages/cli/post&#45;f0&#45;util/src/util.ts -->
<g id="edge8" class="edge">
<title>packages/cli/post&#45;f0&#45;util/src/index.ts&#45;&gt;packages/cli/post&#45;f0&#45;util/src/util.ts</title>
<path fill="none" stroke="#000000" stroke-width="2" stroke-opacity="0.200000" d="M139.17,-181.46C149.57,-189.89 165.11,-202.5 176.75,-211.95"/>
<polygon fill="#000000" fill-opacity="0.200000" stroke="#000000" stroke-width="2" stroke-opacity="0.200000" points="180.16,-217.41 176.82,-212 182.8,-214.15 180.16,-217.41"/>
</g>
<!-- packages/cli/post&#45;f0&#45;util/src/get&#45;freq&#45;from&#45;phase.ts -->
<g id="node6" class="node">
<title>packages/cli/post&#45;f0&#45;util/src/get&#45;freq&#45;from&#45;phase.ts</title>
<g id="a_node6"><a xlink:href="packages/cli/post-f0-util/src/get-freq-from-phase.ts" xlink:title="get&#45;freq&#45;from&#45;phase.ts">
<path fill="#ddfeff" stroke="black" d="M112,-233.3C112,-233.3 6,-233.3 6,-233.3 3,-233.3 0,-230.3 0,-227.3 0,-227.3 0,-221.3 0,-221.3 0,-218.3 3,-215.3 6,-215.3 6,-215.3 112,-215.3 112,-215.3 115,-215.3 118,-218.3 118,-221.3 118,-221.3 118,-227.3 118,-227.3 118,-230.3 115,-233.3 112,-233.3"/>
<text text-anchor="start" x="8" y="-222.1" font-family="Helvetica,sans-Serif" font-size="9.00">get&#45;freq&#45;from&#45;phase.ts</text>
</a>
</g>
</g>
<!-- packages/cli/post&#45;f0&#45;util/src/index.ts&#45;&gt;packages/cli/post&#45;f0&#45;util/src/get&#45;freq&#45;from&#45;phase.ts -->
<g id="edge5" class="edge">
<title>packages/cli/post&#45;f0&#45;util/src/index.ts&#45;&gt;packages/cli/post&#45;f0&#45;util/src/get&#45;freq&#45;from&#45;phase.ts</title>
<path fill="none" stroke="#000000" stroke-width="2" stroke-opacity="0.200000" d="M115.9,-181.37C104.97,-189.61 88.7,-201.89 76.35,-211.21"/>
<polygon fill="#000000" fill-opacity="0.200000" stroke="#000000" stroke-width="2" stroke-opacity="0.200000" points="70.06,-213.32 76.12,-211.38 72.59,-216.67 70.06,-213.32"/>
</g>
<!-- packages/cli/post&#45;f0&#45;util/src/get&#45;frequency.ts -->
<g id="node7" class="node">
<title>packages/cli/post&#45;f0&#45;util/src/get&#45;frequency.ts</title>
<g id="a_node7"><a xlink:href="packages/cli/post-f0-util/src/get-frequency.ts" xlink:title="get&#45;frequency.ts">
<path fill="#ddfeff" stroke="black" d="M86.89,-156.1C86.89,-156.1 8.89,-156.1 8.89,-156.1 5.89,-156.1 2.89,-153.1 2.89,-150.1 2.89,-150.1 2.89,-144.1 2.89,-144.1 2.89,-141.1 5.89,-138.1 8.89,-138.1 8.89,-138.1 86.89,-138.1 86.89,-138.1 89.89,-138.1 92.89,-141.1 92.89,-144.1 92.89,-144.1 92.89,-150.1 92.89,-150.1 92.89,-153.1 89.89,-156.1 86.89,-156.1"/>
<text text-anchor="start" x="10.89" y="-144.9" font-family="Helvetica,sans-Serif" font-size="9.00">get&#45;frequency.ts</text>
</a>
</g>
</g>
<!-- packages/cli/post&#45;f0&#45;util/src/index.ts&#45;&gt;packages/cli/post&#45;f0&#45;util/src/get&#45;frequency.ts -->
<g id="edge6" class="edge">
<title>packages/cli/post&#45;f0&#45;util/src/index.ts&#45;&gt;packages/cli/post&#45;f0&#45;util/src/get&#45;frequency.ts</title>
<path fill="none" stroke="#000000" stroke-width="2" stroke-opacity="0.200000" d="M100.81,-163.78C94.96,-161.93 88.7,-159.96 82.61,-158.04"/>
<polygon fill="#000000" fill-opacity="0.200000" stroke="#000000" stroke-width="2" stroke-opacity="0.200000" points="77.22,-154.14 82.31,-157.95 75.96,-158.15 77.22,-154.14"/>
</g>
<!-- packages/cli/post&#45;f0&#45;util/src/get&#45;wav.ts -->
<g id="node8" class="node">
<title>packages/cli/post&#45;f0&#45;util/src/get&#45;wav.ts</title>
<g id="a_node8"><a xlink:href="packages/cli/post-f0-util/src/get-wav.ts" xlink:title="get&#45;wav.ts">
<path fill="#ddfeff" stroke="black" d="M152.77,-96.06C152.77,-96.06 101.77,-96.06 101.77,-96.06 98.77,-96.06 95.77,-93.06 95.77,-90.06 95.77,-90.06 95.77,-84.06 95.77,-84.06 95.77,-81.06 98.77,-78.06 101.77,-78.06 101.77,-78.06 152.77,-78.06 152.77,-78.06 155.77,-78.06 158.77,-81.06 158.77,-84.06 158.77,-84.06 158.77,-90.06 158.77,-90.06 158.77,-93.06 155.77,-96.06 152.77,-96.06"/>
<text text-anchor="start" x="103.77" y="-84.86" font-family="Helvetica,sans-Serif" font-size="9.00">get&#45;wav.ts</text>
</a>
</g>
</g>
<!-- packages/cli/post&#45;f0&#45;util/src/index.ts&#45;&gt;packages/cli/post&#45;f0&#45;util/src/get&#45;wav.ts -->
<g id="edge7" class="edge">
<title>packages/cli/post&#45;f0&#45;util/src/index.ts&#45;&gt;packages/cli/post&#45;f0&#45;util/src/get&#45;wav.ts</title>
<path fill="none" stroke="#000000" stroke-width="2" stroke-opacity="0.200000" d="M127.83,-163.19C127.72,-148.7 127.51,-120.27 127.38,-102.55"/>
<polygon fill="#000000" fill-opacity="0.200000" stroke="#000000" stroke-width="2" stroke-opacity="0.200000" points="129.44,-96.11 127.38,-102.12 125.24,-96.14 129.44,-96.11"/>
</g>
<!-- packages/cli/post&#45;f0&#45;util/src/get&#45;bandpass&#45;frequency.ts&#45;&gt;packages/cli/post&#45;f0&#45;util/src/util.ts -->
<g id="edge2" class="edge">
<title>packages/cli/post&#45;f0&#45;util/src/get&#45;bandpass&#45;frequency.ts&#45;&gt;packages/cli/post&#45;f0&#45;util/src/util.ts</title>
<path fill="none" stroke="#000000" stroke-width="2" stroke-opacity="0.200000" d="M155.67,-245.29C160.43,-242.66 165.71,-239.73 170.76,-236.94"/>
<polygon fill="#000000" fill-opacity="0.200000" stroke="#000000" stroke-width="2" stroke-opacity="0.200000" points="171.87,-238.72 176.1,-233.98 169.84,-235.05 171.87,-238.72"/>
</g>
<!-- packages/cli/post&#45;f0&#45;util/src/get&#45;wav.ts&#45;&gt;node_modules/wavefile -->
<g id="edge3" class="edge">
<title>packages/cli/post&#45;f0&#45;util/src/get&#45;wav.ts&#45;&gt;node_modules/wavefile</title>
<path fill="none" stroke="#000000" stroke-opacity="0.200000" d="M126.48,-77.8C125.36,-64.66 123.29,-40.42 121.94,-24.5"/>
<polygon fill="#000000" fill-opacity="0.200000" stroke="#000000" stroke-opacity="0.200000" points="124,-24.05 121.4,-18.25 119.82,-24.41 124,-24.05"/>
</g>
</g>
</svg>
