<?xml version="1.0" encoding="UTF-8" standalone="no"?>
<!DOCTYPE svg PUBLIC "-//W3C//DTD SVG 1.1//EN"
 "http://www.w3.org/Graphics/SVG/1.1/DTD/svg11.dtd">
<!-- Generated by graphviz version 2.43.0 (0)
 -->
<!-- Title: dependency&#45;cruiser output Pages: 1 -->
<svg width="384pt" height="176pt"
 viewBox="0.00 0.00 384.01 176.00" xmlns="http://www.w3.org/2000/svg" xmlns:xlink="http://www.w3.org/1999/xlink">
<g id="graph0" class="graph" transform="scale(1 1) rotate(0) translate(4 172)">
<title>dependency&#45;cruiser output</title>
<polygon fill="white" stroke="transparent" points="-4,4 -4,-172 380.01,-172 380.01,4 -4,4"/>
<g id="clust1" class="cluster">
<title>cluster_node_modules</title>
<path fill="#ffffff" stroke="black" stroke-width="2" d="M216,-9.94C216,-9.94 258,-9.94 258,-9.94 261,-9.94 264,-12.94 264,-15.94 264,-15.94 264,-21.94 264,-21.94 264,-24.94 261,-27.94 258,-27.94 258,-27.94 216,-27.94 216,-27.94 213,-27.94 210,-24.94 210,-21.94 210,-21.94 210,-15.94 210,-15.94 210,-12.94 213,-9.94 216,-9.94"/>
<text text-anchor="middle" x="237" y="-16.74" font-family="Helvetica,sans-Serif" font-weight="bold" font-size="9.00">node_modules</text>
</g>
<g id="clust2" class="cluster">
<title>cluster_packages</title>
<path fill="#ffffff" stroke="black" stroke-width="2" d="M12,0C12,0 364.01,0 364.01,0 370.01,0 376.01,-6 376.01,-12 376.01,-12 376.01,-156 376.01,-156 376.01,-162 370.01,-168 364.01,-168 364.01,-168 12,-168 12,-168 6,-168 0,-162 0,-156 0,-156 0,-12 0,-12 0,-6 6,0 12,0"/>
<text text-anchor="middle" x="188.01" y="-156.8" font-family="Helvetica,sans-Serif" font-weight="bold" font-size="9.00">packages</text>
</g>
<!-- node_modules/wavefile -->
<g id="node1" class="node">
<title>node_modules/wavefile</title>
<g id="a_node1"><a xlink:href="https://www.npmjs.com/package/wavefile" xlink:title="wavefile">
<polygon fill="#c40b0a" fill-opacity="0.101961" stroke="black" points="264,-27.94 212,-27.94 210,-25.94 210,-9.94 262,-9.94 264,-11.94 264,-27.94"/>
<polyline fill="none" stroke="black" points="262,-25.94 210,-25.94 "/>
<polyline fill="none" stroke="black" points="262,-25.94 262,-9.94 "/>
<polyline fill="none" stroke="black" points="262,-25.94 264,-27.94 "/>
<text text-anchor="start" x="218.5" y="-16.74" font-family="Helvetica,sans-Serif" font-size="9.00" fill="#c40b0a">wavefile</text>
</a>
</g>
</g>
<!-- packages/cli/post&#45;f0&#45;util/src/get&#45;bandpass&#45;frequency.ts -->
<g id="node2" class="node">
<title>packages/cli/post&#45;f0&#45;util/src/get&#45;bandpass&#45;frequency.ts</title>
<g id="a_node2"><a xlink:href="packages/cli/post-f0-util/src/get-bandpass-frequency.ts" xlink:title="get&#45;bandpass&#45;frequency.ts">
<path fill="#ddfeff" stroke="black" d="M291,-124.74C291,-124.74 166,-124.74 166,-124.74 163,-124.74 160,-121.74 160,-118.74 160,-118.74 160,-112.74 160,-112.74 160,-109.74 163,-106.74 166,-106.74 166,-106.74 291,-106.74 291,-106.74 294,-106.74 297,-109.74 297,-112.74 297,-112.74 297,-118.74 297,-118.74 297,-121.74 294,-124.74 291,-124.74"/>
<text text-anchor="start" x="168" y="-113.54" font-family="Helvetica,sans-Serif" font-size="9.00">get&#45;bandpass&#45;frequency.ts</text>
</a>
</g>
</g>
<!-- packages/cli/post&#45;f0&#45;util/src/util/bandpass.ts -->
<g id="node3" class="node">
<title>packages/cli/post&#45;f0&#45;util/src/util/bandpass.ts</title>
<g id="a_node3"><a xlink:href="packages/cli/post-f0-util/src/util/bandpass.ts" xlink:title="bandpass.ts">
<path fill="#ddfeff" stroke="black" d="M370.01,-108C370.01,-108 311.01,-108 311.01,-108 308.01,-108 305.01,-105 305.01,-102 305.01,-102 305.01,-96 305.01,-96 305.01,-93 308.01,-90 311.01,-90 311.01,-90 370.01,-90 370.01,-90 373.01,-90 376.01,-93 376.01,-96 376.01,-96 376.01,-102 376.01,-102 376.01,-105 373.01,-108 370.01,-108"/>
<text text-anchor="start" x="313.01" y="-96.8" font-family="Helvetica,sans-Serif" font-size="9.00">bandpass.ts</text>
</a>
</g>
</g>
<!-- packages/cli/post&#45;f0&#45;util/src/get&#45;bandpass&#45;frequency.ts&#45;&gt;packages/cli/post&#45;f0&#45;util/src/util/bandpass.ts -->
<g id="edge1" class="edge">
<title>packages/cli/post&#45;f0&#45;util/src/get&#45;bandpass&#45;frequency.ts&#45;&gt;packages/cli/post&#45;f0&#45;util/src/util/bandpass.ts</title>
<path fill="none" stroke="#000000" stroke-width="2" stroke-opacity="0.200000" d="M288.77,-106.73C292.11,-106.23 295.44,-105.73 298.69,-105.25"/>
<polygon fill="#000000" fill-opacity="0.200000" stroke="#000000" stroke-width="2" stroke-opacity="0.200000" points="299.23,-107.29 304.86,-104.33 298.61,-103.14 299.23,-107.29"/>
</g>
<!-- packages/cli/post&#45;f0&#45;util/src/get&#45;freq&#45;from&#45;phase.ts -->
<g id="node4" class="node">
<title>packages/cli/post&#45;f0&#45;util/src/get&#45;freq&#45;from&#45;phase.ts</title>
<g id="a_node4"><a xlink:href="packages/cli/post-f0-util/src/get-freq-from-phase.ts" xlink:title="no&#45;orphans">
<path fill="#ccffcc" stroke="orange" d="M182,-18C182,-18 76,-18 76,-18 73,-18 70,-15 70,-12 70,-12 70,-6 70,-6 70,-3 73,0 76,0 76,0 182,0 182,0 185,0 188,-3 188,-6 188,-6 188,-12 188,-12 188,-15 185,-18 182,-18"/>
<text text-anchor="start" x="78" y="-6.8" font-family="Helvetica,sans-Serif" font-size="9.00" fill="orange">get&#45;freq&#45;from&#45;phase.ts</text>
</a>
</g>
</g>
<!-- packages/cli/post&#45;f0&#45;util/src/get&#45;frequency.ts -->
<g id="node5" class="node">
<title>packages/cli/post&#45;f0&#45;util/src/get&#45;frequency.ts</title>
<g id="a_node5"><a xlink:href="packages/cli/post-f0-util/src/get-frequency.ts" xlink:title="no&#45;orphans">
<path fill="#ccffcc" stroke="orange" d="M304,-168C304,-168 226,-168 226,-168 223,-168 220,-165 220,-162 220,-162 220,-156 220,-156 220,-153 223,-150 226,-150 226,-150 304,-150 304,-150 307,-150 310,-153 310,-156 310,-156 310,-162 310,-162 310,-165 307,-168 304,-168"/>
<text text-anchor="start" x="228" y="-156.8" font-family="Helvetica,sans-Serif" font-size="9.00" fill="orange">get&#45;frequency.ts</text>
</a>
</g>
</g>
<!-- packages/cli/post&#45;f0&#45;util/src/get&#45;wav.ts -->
<g id="node6" class="node">
<title>packages/cli/post&#45;f0&#45;util/src/get&#45;wav.ts</title>
<g id="a_node6"><a xlink:href="packages/cli/post-f0-util/src/get-wav.ts" xlink:title="get&#45;wav.ts">
<path fill="#ddfeff" stroke="black" d="M329.01,-18C329.01,-18 278.01,-18 278.01,-18 275.01,-18 272.01,-15 272.01,-12 272.01,-12 272.01,-6 272.01,-6 272.01,-3 275.01,0 278.01,0 278.01,0 329.01,0 329.01,0 332.01,0 335.01,-3 335.01,-6 335.01,-6 335.01,-12 335.01,-12 335.01,-15 332.01,-18 329.01,-18"/>
<text text-anchor="start" x="280.01" y="-6.8" font-family="Helvetica,sans-Serif" font-size="9.00">get&#45;wav.ts</text>
</a>
</g>
</g>
<!-- packages/cli/post&#45;f0&#45;util/src/get&#45;wav.ts&#45;&gt;node_modules/wavefile -->
<g id="edge2" class="edge">
<title>packages/cli/post&#45;f0&#45;util/src/get&#45;wav.ts&#45;&gt;node_modules/wavefile</title>
<path fill="none" stroke="#000000" stroke-opacity="0.200000" d="M271.81,-13.74C271.33,-13.81 270.86,-13.88 270.38,-13.95"/>
<polygon fill="#000000" fill-opacity="0.200000" stroke="#000000" stroke-opacity="0.200000" points="269.83,-11.91 264.21,-14.87 270.45,-16.06 269.83,-11.91"/>
</g>
<!-- packages/cli/post&#45;f0&#45;util/src/util/freq&#45;to&#45;midi.ts -->
<g id="node7" class="node">
<title>packages/cli/post&#45;f0&#45;util/src/util/freq&#45;to&#45;midi.ts</title>
<g id="a_node7"><a xlink:href="packages/cli/post-f0-util/src/util/freq-to-midi.ts" xlink:title="freq&#45;to&#45;midi.ts">
<path fill="#ddfeff" stroke="black" d="M75,-70.9C75,-70.9 6,-70.9 6,-70.9 3,-70.9 0,-67.9 0,-64.9 0,-64.9 0,-58.9 0,-58.9 0,-55.9 3,-52.9 6,-52.9 6,-52.9 75,-52.9 75,-52.9 78,-52.9 81,-55.9 81,-58.9 81,-58.9 81,-64.9 81,-64.9 81,-67.9 78,-70.9 75,-70.9"/>
<text text-anchor="start" x="8" y="-59.7" font-family="Helvetica,sans-Serif" font-size="9.00">freq&#45;to&#45;midi.ts</text>
</a>
</g>
</g>
<!-- packages/cli/post&#45;f0&#45;util/src/util/midi&#45;to&#45;freq.ts -->
<g id="node8" class="node">
<title>packages/cli/post&#45;f0&#45;util/src/util/midi&#45;to&#45;freq.ts</title>
<g id="a_node8"><a xlink:href="packages/cli/post-f0-util/src/util/midi-to-freq.ts" xlink:title="midi&#45;to&#45;freq.ts">
<path fill="#ddfeff" stroke="black" d="M264.63,-74.76C264.63,-74.76 195.63,-74.76 195.63,-74.76 192.63,-74.76 189.63,-71.76 189.63,-68.76 189.63,-68.76 189.63,-62.76 189.63,-62.76 189.63,-59.76 192.63,-56.76 195.63,-56.76 195.63,-56.76 264.63,-56.76 264.63,-56.76 267.63,-56.76 270.63,-59.76 270.63,-62.76 270.63,-62.76 270.63,-68.76 270.63,-68.76 270.63,-71.76 267.63,-74.76 264.63,-74.76"/>
<text text-anchor="start" x="197.63" y="-63.56" font-family="Helvetica,sans-Serif" font-size="9.00">midi&#45;to&#45;freq.ts</text>
</a>
</g>
</g>
<!-- packages/cli/post&#45;f0&#45;util/src/util/round&#45;on&#45;midi.ts -->
<g id="node9" class="node">
<title>packages/cli/post&#45;f0&#45;util/src/util/round&#45;on&#45;midi.ts</title>
<g id="a_node9"><a xlink:href="packages/cli/post-f0-util/src/util/round-on-midi.ts" xlink:title="round&#45;on&#45;midi.ts">
<path fill="#ddfeff" stroke="black" d="M175.62,-58C175.62,-58 95.62,-58 95.62,-58 92.62,-58 89.62,-55 89.62,-52 89.62,-52 89.62,-46 89.62,-46 89.62,-43 92.62,-40 95.62,-40 95.62,-40 175.62,-40 175.62,-40 178.62,-40 181.62,-43 181.62,-46 181.62,-46 181.62,-52 181.62,-52 181.62,-55 178.62,-58 175.62,-58"/>
<text text-anchor="start" x="97.62" y="-46.8" font-family="Helvetica,sans-Serif" font-size="9.00">round&#45;on&#45;midi.ts</text>
</a>
</g>
</g>
<!-- packages/cli/post&#45;f0&#45;util/src/util/round&#45;on&#45;midi.ts&#45;&gt;packages/cli/post&#45;f0&#45;util/src/util/freq&#45;to&#45;midi.ts -->
<g id="edge3" class="edge">
<title>packages/cli/post&#45;f0&#45;util/src/util/round&#45;on&#45;midi.ts&#45;&gt;packages/cli/post&#45;f0&#45;util/src/util/freq&#45;to&#45;midi.ts</title>
<path fill="none" stroke="#000000" stroke-width="2" stroke-opacity="0.200000" d="M89.45,-55.26C88.77,-55.36 88.08,-55.45 87.39,-55.54"/>
<polygon fill="#000000" fill-opacity="0.200000" stroke="#000000" stroke-width="2" stroke-opacity="0.200000" points="86.9,-53.49 81.24,-56.38 87.46,-57.65 86.9,-53.49"/>
</g>
<!-- packages/cli/post&#45;f0&#45;util/src/util/round&#45;on&#45;midi.ts&#45;&gt;packages/cli/post&#45;f0&#45;util/src/util/midi&#45;to&#45;freq.ts -->
<g id="edge4" class="edge">
<title>packages/cli/post&#45;f0&#45;util/src/util/round&#45;on&#45;midi.ts&#45;&gt;packages/cli/post&#45;f0&#45;util/src/util/midi&#45;to&#45;freq.ts</title>
<path fill="none" stroke="#000000" stroke-width="2" stroke-opacity="0.200000" d="M181.77,-57.18C182.26,-57.27 182.75,-57.36 183.24,-57.45"/>
<polygon fill="#000000" fill-opacity="0.200000" stroke="#000000" stroke-width="2" stroke-opacity="0.200000" points="183.35,-59.6 189.62,-58.58 184.08,-55.46 183.35,-59.6"/>
</g>
</g>
</svg>
