<?xml version="1.0" encoding="UTF-8" standalone="no"?>
<!DOCTYPE svg PUBLIC "-//W3C//DTD SVG 1.1//EN"
 "http://www.w3.org/Graphics/SVG/1.1/DTD/svg11.dtd">
<!-- Generated by graphviz version 2.43.0 (0)
 -->
<!-- Title: dependency&#45;cruiser output Pages: 1 -->
<svg width="434pt" height="342pt"
 viewBox="0.00 0.00 434.00 342.00" xmlns="http://www.w3.org/2000/svg" xmlns:xlink="http://www.w3.org/1999/xlink">
<g id="graph0" class="graph" transform="scale(1 1) rotate(0) translate(4 338)">
<title>dependency&#45;cruiser output</title>
<polygon fill="white" stroke="transparent" points="-4,4 -4,-338 430,-338 430,4 -4,4"/>
<g id="clust1" class="cluster">
<title>cluster_node_modules</title>
<path fill="#ffffff" stroke="black" stroke-width="2" d="M326,-8C326,-8 392,-8 392,-8 398,-8 404,-14 404,-20 404,-20 404,-48 404,-48 404,-54 398,-60 392,-60 392,-60 326,-60 326,-60 320,-60 314,-54 314,-48 314,-48 314,-20 314,-20 314,-14 320,-8 326,-8"/>
<text text-anchor="middle" x="359" y="-48.8" font-family="Helvetica,sans-Serif" font-weight="bold" font-size="9.00">node_modules</text>
</g>
<g id="clust2" class="cluster">
<title>cluster_packages</title>
<path fill="#ffffff" stroke="black" stroke-width="2" d="M20,-68C20,-68 406,-68 406,-68 412,-68 418,-74 418,-80 418,-80 418,-314 418,-314 418,-320 412,-326 406,-326 406,-326 20,-326 20,-326 14,-326 8,-320 8,-314 8,-314 8,-80 8,-80 8,-74 14,-68 20,-68"/>
<text text-anchor="middle" x="213" y="-314.8" font-family="Helvetica,sans-Serif" font-weight="bold" font-size="9.00">packages</text>
</g>
<g id="clust3" class="cluster">
<title>cluster_packages/cli</title>
<path fill="#ffffff" stroke="black" stroke-width="2" d="M28,-76C28,-76 398,-76 398,-76 404,-76 410,-82 410,-88 410,-88 410,-288 410,-288 410,-294 404,-300 398,-300 398,-300 28,-300 28,-300 22,-300 16,-294 16,-288 16,-288 16,-88 16,-88 16,-82 22,-76 28,-76"/>
<text text-anchor="middle" x="213" y="-288.8" font-family="Helvetica,sans-Serif" font-weight="bold" font-size="9.00">cli</text>
</g>
<g id="clust4" class="cluster">
<title>cluster_packages/cli/post&#45;f0&#45;util</title>
<path fill="#ffffff" stroke="black" stroke-width="2" d="M36,-84C36,-84 390,-84 390,-84 396,-84 402,-90 402,-96 402,-96 402,-262 402,-262 402,-268 396,-274 390,-274 390,-274 36,-274 36,-274 30,-274 24,-268 24,-262 24,-262 24,-96 24,-96 24,-90 30,-84 36,-84"/>
<text text-anchor="middle" x="213" y="-262.8" font-family="Helvetica,sans-Serif" font-weight="bold" font-size="9.00">post&#45;f0&#45;util</text>
</g>
<g id="clust5" class="cluster">
<title>cluster_packages/cli/post&#45;f0&#45;util/src</title>
<path fill="#ffffff" stroke="black" stroke-width="2" d="M106,-92C106,-92 382,-92 382,-92 388,-92 394,-98 394,-104 394,-104 394,-236 394,-236 394,-242 388,-248 382,-248 382,-248 106,-248 106,-248 100,-248 94,-242 94,-236 94,-236 94,-104 94,-104 94,-98 100,-92 106,-92"/>
<text text-anchor="middle" x="244" y="-236.8" font-family="Helvetica,sans-Serif" font-weight="bold" font-size="9.00">src</text>
</g>
<!-- node_modules/wavefile -->
<g id="node1" class="node">
<title>node_modules/wavefile</title>
<g id="a_node1"><a xlink:href="https://www.npmjs.com/package/wavefile" xlink:title="wavefile">
<polygon fill="#c40b0a" fill-opacity="0.101961" stroke="black" points="386,-34 334,-34 332,-32 332,-16 384,-16 386,-18 386,-34"/>
<polyline fill="none" stroke="black" points="384,-32 332,-32 "/>
<polyline fill="none" stroke="black" points="384,-32 384,-16 "/>
<polyline fill="none" stroke="black" points="384,-32 386,-34 "/>
<text text-anchor="start" x="340.5" y="-22.8" font-family="Helvetica,sans-Serif" font-size="9.00" fill="#c40b0a">wavefile</text>
</a>
</g>
</g>
<!-- packages/cli/post&#45;f0&#45;util/index.ts -->
<g id="node2" class="node">
<title>packages/cli/post&#45;f0&#45;util/index.ts</title>
<g id="a_node2"><a xlink:href="packages/cli/post-f0-util/index.ts" xlink:title="index.ts">
<path fill="#ddfeff" stroke="black" d="M80,-162C80,-162 38,-162 38,-162 35,-162 32,-159 32,-156 32,-156 32,-150 32,-150 32,-147 35,-144 38,-144 38,-144 80,-144 80,-144 83,-144 86,-147 86,-150 86,-150 86,-156 86,-156 86,-159 83,-162 80,-162"/>
<text text-anchor="start" x="40.5" y="-150.8" font-family="Helvetica,sans-Serif" font-size="9.00">index.ts</text>
</a>
</g>
</g>
<!-- packages/cli/post&#45;f0&#45;util/src/index.ts -->
<g id="node3" class="node">
<title>packages/cli/post&#45;f0&#45;util/src/index.ts</title>
<g id="a_node3"><a xlink:href="packages/cli/post-f0-util/src/index.ts" xlink:title="index.ts">
<path fill="#ddfeff" stroke="black" d="M150,-162C150,-162 108,-162 108,-162 105,-162 102,-159 102,-156 102,-156 102,-150 102,-150 102,-147 105,-144 108,-144 108,-144 150,-144 150,-144 153,-144 156,-147 156,-150 156,-150 156,-156 156,-156 156,-159 153,-162 150,-162"/>
<text text-anchor="start" x="110.5" y="-150.8" font-family="Helvetica,sans-Serif" font-size="9.00">index.ts</text>
</a>
</g>
</g>
<!-- packages/cli/post&#45;f0&#45;util/index.ts&#45;&gt;packages/cli/post&#45;f0&#45;util/src/index.ts -->
<g id="edge1" class="edge">
<title>packages/cli/post&#45;f0&#45;util/index.ts&#45;&gt;packages/cli/post&#45;f0&#45;util/src/index.ts</title>
<path fill="none" stroke="#000000" stroke-width="2" stroke-opacity="0.200000" d="M86.1,-153C89.12,-153 92.23,-153 95.33,-153"/>
<polygon fill="#000000" fill-opacity="0.200000" stroke="#000000" stroke-width="2" stroke-opacity="0.200000" points="101.64,-155.1 95.64,-153 101.64,-150.9 101.64,-155.1"/>
</g>
<!-- packages/cli/post&#45;f0&#45;util/src/get&#45;bandpass&#45;frequency.ts -->
<g id="node4" class="node">
<title>packages/cli/post&#45;f0&#45;util/src/get&#45;bandpass&#45;frequency.ts</title>
<g id="a_node4"><a xlink:href="packages/cli/post-f0-util/src/get-bandpass-frequency.ts" xlink:title="get&#45;bandpass&#45;frequency.ts">
<path fill="#ddfeff" stroke="black" d="M300,-222C300,-222 175,-222 175,-222 172,-222 169,-219 169,-216 169,-216 169,-210 169,-210 169,-207 172,-204 175,-204 175,-204 300,-204 300,-204 303,-204 306,-207 306,-210 306,-210 306,-216 306,-216 306,-219 303,-222 300,-222"/>
<text text-anchor="start" x="177" y="-210.8" font-family="Helvetica,sans-Serif" font-size="9.00">get&#45;bandpass&#45;frequency.ts</text>
</a>
</g>
</g>
<!-- packages/cli/post&#45;f0&#45;util/src/index.ts&#45;&gt;packages/cli/post&#45;f0&#45;util/src/get&#45;bandpass&#45;frequency.ts -->
<g id="edge4" class="edge">
<title>packages/cli/post&#45;f0&#45;util/src/index.ts&#45;&gt;packages/cli/post&#45;f0&#45;util/src/get&#45;bandpass&#45;frequency.ts</title>
<path fill="none" stroke="#000000" stroke-width="2" stroke-opacity="0.200000" d="M135.37,-162.14C141.95,-172.5 154.08,-189.1 169,-198 171.2,-199.31 173.51,-200.51 175.89,-201.61"/>
<polygon fill="#000000" fill-opacity="0.200000" stroke="#000000" stroke-width="2" stroke-opacity="0.200000" points="180.73,-205.91 176.01,-201.66 182.35,-202.04 180.73,-205.91"/>
</g>
<!-- packages/cli/post&#45;f0&#45;util/src/util.ts -->
<g id="node5" class="node">
<title>packages/cli/post&#45;f0&#45;util/src/util.ts</title>
<g id="a_node5"><a xlink:href="packages/cli/post-f0-util/src/util.ts" xlink:title="util.ts">
<path fill="#ddfeff" stroke="black" d="M380,-181C380,-181 338,-181 338,-181 335,-181 332,-178 332,-175 332,-175 332,-169 332,-169 332,-166 335,-163 338,-163 338,-163 380,-163 380,-163 383,-163 386,-166 386,-169 386,-169 386,-175 386,-175 386,-178 383,-181 380,-181"/>
<text text-anchor="start" x="346" y="-169.8" font-family="Helvetica,sans-Serif" font-size="9.00">util.ts</text>
</a>
</g>
</g>
<!-- packages/cli/post&#45;f0&#45;util/src/index.ts&#45;&gt;packages/cli/post&#45;f0&#45;util/src/util.ts -->
<g id="edge8" class="edge">
<title>packages/cli/post&#45;f0&#45;util/src/index.ts&#45;&gt;packages/cli/post&#45;f0&#45;util/src/util.ts</title>
<path fill="none" stroke="#000000" stroke-width="2" stroke-opacity="0.200000" d="M149.43,-143.92C155.56,-141.5 162.44,-139.22 169,-138 228.87,-126.88 247.65,-120.62 306,-138 319.73,-142.09 333.22,-151.09 343.01,-158.8"/>
<polygon fill="#000000" fill-opacity="0.200000" stroke="#000000" stroke-width="2" stroke-opacity="0.200000" points="346.45,-164.32 343.13,-158.9 349.1,-161.06 346.45,-164.32"/>
</g>
<!-- packages/cli/post&#45;f0&#45;util/src/get&#45;freq&#45;from&#45;phase.ts -->
<g id="node6" class="node">
<title>packages/cli/post&#45;f0&#45;util/src/get&#45;freq&#45;from&#45;phase.ts</title>
<g id="a_node6"><a xlink:href="packages/cli/post-f0-util/src/get-freq-from-phase.ts" xlink:title="get&#45;freq&#45;from&#45;phase.ts">
<path fill="#ddfeff" stroke="black" d="M290.5,-162C290.5,-162 184.5,-162 184.5,-162 181.5,-162 178.5,-159 178.5,-156 178.5,-156 178.5,-150 178.5,-150 178.5,-147 181.5,-144 184.5,-144 184.5,-144 290.5,-144 290.5,-144 293.5,-144 296.5,-147 296.5,-150 296.5,-150 296.5,-156 296.5,-156 296.5,-159 293.5,-162 290.5,-162"/>
<text text-anchor="start" x="186.5" y="-150.8" font-family="Helvetica,sans-Serif" font-size="9.00">get&#45;freq&#45;from&#45;phase.ts</text>
</a>
</g>
</g>
<!-- packages/cli/post&#45;f0&#45;util/src/index.ts&#45;&gt;packages/cli/post&#45;f0&#45;util/src/get&#45;freq&#45;from&#45;phase.ts -->
<g id="edge5" class="edge">
<title>packages/cli/post&#45;f0&#45;util/src/index.ts&#45;&gt;packages/cli/post&#45;f0&#45;util/src/get&#45;freq&#45;from&#45;phase.ts</title>
<path fill="none" stroke="#000000" stroke-width="2" stroke-opacity="0.200000" d="M156.05,-153C161.03,-153 166.43,-153 172.01,-153"/>
<polygon fill="#000000" fill-opacity="0.200000" stroke="#000000" stroke-width="2" stroke-opacity="0.200000" points="178.12,-155.1 172.12,-153 178.12,-150.9 178.12,-155.1"/>
</g>
<!-- packages/cli/post&#45;f0&#45;util/src/get&#45;frequency.ts -->
<g id="node7" class="node">
<title>packages/cli/post&#45;f0&#45;util/src/get&#45;frequency.ts</title>
<g id="a_node7"><a xlink:href="packages/cli/post-f0-util/src/get-frequency.ts" xlink:title="get&#45;frequency.ts">
<path fill="#ddfeff" stroke="black" d="M276.5,-192C276.5,-192 198.5,-192 198.5,-192 195.5,-192 192.5,-189 192.5,-186 192.5,-186 192.5,-180 192.5,-180 192.5,-177 195.5,-174 198.5,-174 198.5,-174 276.5,-174 276.5,-174 279.5,-174 282.5,-177 282.5,-180 282.5,-180 282.5,-186 282.5,-186 282.5,-189 279.5,-192 276.5,-192"/>
<text text-anchor="start" x="200.5" y="-180.8" font-family="Helvetica,sans-Serif" font-size="9.00">get&#45;frequency.ts</text>
</a>
</g>
</g>
<!-- packages/cli/post&#45;f0&#45;util/src/index.ts&#45;&gt;packages/cli/post&#45;f0&#45;util/src/get&#45;frequency.ts -->
<g id="edge6" class="edge">
<title>packages/cli/post&#45;f0&#45;util/src/index.ts&#45;&gt;packages/cli/post&#45;f0&#45;util/src/get&#45;frequency.ts</title>
<path fill="none" stroke="#000000" stroke-width="2" stroke-opacity="0.200000" d="M152.08,-162.14C157.55,-164.23 163.44,-166.32 169,-168 174.6,-169.69 180.52,-171.28 186.43,-172.75"/>
<polygon fill="#000000" fill-opacity="0.200000" stroke="#000000" stroke-width="2" stroke-opacity="0.200000" points="191.83,-176.21 186.49,-172.76 192.81,-172.13 191.83,-176.21"/>
</g>
<!-- packages/cli/post&#45;f0&#45;util/src/get&#45;wav.ts -->
<g id="node8" class="node">
<title>packages/cli/post&#45;f0&#45;util/src/get&#45;wav.ts</title>
<g id="a_node8"><a xlink:href="packages/cli/post-f0-util/src/get-wav.ts" xlink:title="get&#45;wav.ts">
<path fill="#ddfeff" stroke="black" d="M263,-118C263,-118 212,-118 212,-118 209,-118 206,-115 206,-112 206,-112 206,-106 206,-106 206,-103 209,-100 212,-100 212,-100 263,-100 263,-100 266,-100 269,-103 269,-106 269,-106 269,-112 269,-112 269,-115 266,-118 263,-118"/>
<text text-anchor="start" x="214" y="-106.8" font-family="Helvetica,sans-Serif" font-size="9.00">get&#45;wav.ts</text>
</a>
</g>
</g>
<!-- packages/cli/post&#45;f0&#45;util/src/index.ts&#45;&gt;packages/cli/post&#45;f0&#45;util/src/get&#45;wav.ts -->
<g id="edge7" class="edge">
<title>packages/cli/post&#45;f0&#45;util/src/index.ts&#45;&gt;packages/cli/post&#45;f0&#45;util/src/get&#45;wav.ts</title>
<path fill="none" stroke="#000000" stroke-width="2" stroke-opacity="0.200000" d="M141.36,-143.97C148.84,-138.4 159.06,-131.49 169,-127 178.7,-122.62 189.69,-119.12 199.93,-116.43"/>
<polygon fill="#000000" fill-opacity="0.200000" stroke="#000000" stroke-width="2" stroke-opacity="0.200000" points="206.38,-116.96 200.05,-116.4 205.35,-112.89 206.38,-116.96"/>
</g>
<!-- packages/cli/post&#45;f0&#45;util/src/get&#45;bandpass&#45;frequency.ts&#45;&gt;packages/cli/post&#45;f0&#45;util/src/util.ts -->
<g id="edge2" class="edge">
<title>packages/cli/post&#45;f0&#45;util/src/get&#45;bandpass&#45;frequency.ts&#45;&gt;packages/cli/post&#45;f0&#45;util/src/util.ts</title>
<path fill="none" stroke="#000000" stroke-width="2" stroke-opacity="0.200000" d="M286.12,-203.96C292.87,-202.23 299.66,-200.25 306,-198 316.55,-194.25 327.73,-188.87 337,-183.97"/>
<polygon fill="#000000" fill-opacity="0.200000" stroke="#000000" stroke-width="2" stroke-opacity="0.200000" points="338.23,-185.7 342.51,-181 336.23,-182 338.23,-185.7"/>
</g>
<!-- packages/cli/post&#45;f0&#45;util/src/get&#45;wav.ts&#45;&gt;node_modules/wavefile -->
<g id="edge3" class="edge">
<title>packages/cli/post&#45;f0&#45;util/src/get&#45;wav.ts&#45;&gt;node_modules/wavefile</title>
<path fill="none" stroke="#000000" stroke-opacity="0.200000" d="M251.75,-99.69C273.21,-84.6 315.64,-54.77 339.89,-37.73"/>
<polygon fill="#000000" fill-opacity="0.200000" stroke="#000000" stroke-opacity="0.200000" points="341.36,-39.27 345.06,-34.1 338.94,-35.83 341.36,-39.27"/>
</g>
</g>
</svg>
