<?xml version="1.0" encoding="UTF-8" standalone="no"?>
<!DOCTYPE svg PUBLIC "-//W3C//DTD SVG 1.1//EN"
 "http://www.w3.org/Graphics/SVG/1.1/DTD/svg11.dtd">
<!-- Generated by graphviz version 2.43.0 (0)
 -->
<!-- Title: dependency&#45;cruiser output Pages: 1 -->
<svg width="369pt" height="266pt"
 viewBox="0.00 0.00 369.00 266.00" xmlns="http://www.w3.org/2000/svg" xmlns:xlink="http://www.w3.org/1999/xlink">
<g id="graph0" class="graph" transform="scale(1 1) rotate(0) translate(4 262)">
<title>dependency&#45;cruiser output</title>
<polygon fill="white" stroke="transparent" points="-4,4 -4,-262 365,-262 365,4 -4,4"/>
<g id="clust1" class="cluster">
<title>cluster_packages</title>
<path fill="#ffffff" stroke="black" stroke-width="2" d="M12,0C12,0 349,0 349,0 355,0 361,-6 361,-12 361,-12 361,-246 361,-246 361,-252 355,-258 349,-258 349,-258 12,-258 12,-258 6,-258 0,-252 0,-246 0,-246 0,-12 0,-12 0,-6 6,0 12,0"/>
<text text-anchor="middle" x="180.5" y="-246.8" font-family="Helvetica,sans-Serif" font-weight="bold" font-size="9.00">packages</text>
</g>
<!-- packages/util/html/index.test.ts -->
<g id="node1" class="node">
<title>packages/util/html/index.test.ts</title>
<g id="a_node1"><a xlink:href="packages/util/html/index.test.ts" xlink:title="no&#45;orphans">
<path fill="#ccffcc" stroke="orange" d="M355,-258C355,-258 294,-258 294,-258 291,-258 288,-255 288,-252 288,-252 288,-246 288,-246 288,-243 291,-240 294,-240 294,-240 355,-240 355,-240 358,-240 361,-243 361,-246 361,-246 361,-252 361,-252 361,-255 358,-258 355,-258"/>
<text text-anchor="start" x="296" y="-246.8" font-family="Helvetica,sans-Serif" font-size="9.00" fill="orange">index.test.ts</text>
</a>
</g>
</g>
<!-- packages/util/html/index.ts -->
<g id="node2" class="node">
<title>packages/util/html/index.ts</title>
<g id="a_node2"><a xlink:href="packages/util/html/index.ts" xlink:title="index.ts">
<path fill="#ddfeff" stroke="black" d="M48,-242.16C48,-242.16 6,-242.16 6,-242.16 3,-242.16 0,-239.16 0,-236.16 0,-236.16 0,-230.16 0,-230.16 0,-227.16 3,-224.16 6,-224.16 6,-224.16 48,-224.16 48,-224.16 51,-224.16 54,-227.16 54,-230.16 54,-230.16 54,-236.16 54,-236.16 54,-239.16 51,-242.16 48,-242.16"/>
<text text-anchor="start" x="8.5" y="-230.96" font-family="Helvetica,sans-Serif" font-size="9.00">index.ts</text>
</a>
</g>
</g>
<!-- packages/util/html/src/html.ts -->
<g id="node3" class="node">
<title>packages/util/html/src/html.ts</title>
<g id="a_node3"><a xlink:href="packages/util/html/src/html.ts" xlink:title="html.ts">
<path fill="#ddfeff" stroke="black" d="M173.49,-257.86C173.49,-257.86 131.49,-257.86 131.49,-257.86 128.49,-257.86 125.49,-254.86 125.49,-251.86 125.49,-251.86 125.49,-245.86 125.49,-245.86 125.49,-242.86 128.49,-239.86 131.49,-239.86 131.49,-239.86 173.49,-239.86 173.49,-239.86 176.49,-239.86 179.49,-242.86 179.49,-245.86 179.49,-245.86 179.49,-251.86 179.49,-251.86 179.49,-254.86 176.49,-257.86 173.49,-257.86"/>
<text text-anchor="start" x="135.99" y="-246.66" font-family="Helvetica,sans-Serif" font-size="9.00">html.ts</text>
</a>
</g>
</g>
<!-- packages/util/html/index.ts&#45;&gt;packages/util/html/src/html.ts -->
<g id="edge1" class="edge">
<title>packages/util/html/index.ts&#45;&gt;packages/util/html/src/html.ts</title>
<path fill="none" stroke="#000000" stroke-width="2" stroke-opacity="0.200000" d="M54.23,-236.57C73.3,-238.95 98.91,-242.16 119.2,-244.7"/>
<polygon fill="#000000" fill-opacity="0.200000" stroke="#000000" stroke-width="2" stroke-opacity="0.200000" points="125.05,-247.55 119.36,-244.72 125.57,-243.38 125.05,-247.55"/>
</g>
<!-- packages/util/html/src/svg.ts -->
<g id="node4" class="node">
<title>packages/util/html/src/svg.ts</title>
<g id="a_node4"><a xlink:href="packages/util/html/src/svg.ts" xlink:title="svg.ts">
<path fill="#ddfeff" stroke="black" d="M92.87,-120.72C92.87,-120.72 50.87,-120.72 50.87,-120.72 47.87,-120.72 44.87,-117.72 44.87,-114.72 44.87,-114.72 44.87,-108.72 44.87,-108.72 44.87,-105.72 47.87,-102.72 50.87,-102.72 50.87,-102.72 92.87,-102.72 92.87,-102.72 95.87,-102.72 98.87,-105.72 98.87,-108.72 98.87,-108.72 98.87,-114.72 98.87,-114.72 98.87,-117.72 95.87,-120.72 92.87,-120.72"/>
<text text-anchor="start" x="57.87" y="-109.52" font-family="Helvetica,sans-Serif" font-size="9.00">svg.ts</text>
</a>
</g>
</g>
<!-- packages/util/html/index.ts&#45;&gt;packages/util/html/src/svg.ts -->
<g id="edge2" class="edge">
<title>packages/util/html/index.ts&#45;&gt;packages/util/html/src/svg.ts</title>
<path fill="none" stroke="#000000" stroke-width="2" stroke-opacity="0.200000" d="M30.37,-224.03C38.04,-203.28 56.83,-152.41 66.27,-126.86"/>
<polygon fill="#000000" fill-opacity="0.200000" stroke="#000000" stroke-width="2" stroke-opacity="0.200000" points="70.43,-121.68 66.38,-126.58 66.49,-120.22 70.43,-121.68"/>
</g>
<!-- packages/util/html/src/attribute.ts -->
<g id="node5" class="node">
<title>packages/util/html/src/attribute.ts</title>
<g id="a_node5"><a xlink:href="packages/util/html/src/attribute.ts" xlink:title="attribute.ts">
<path fill="#ddfeff" stroke="black" d="M190.31,-157.69C190.31,-157.69 134.31,-157.69 134.31,-157.69 131.31,-157.69 128.31,-154.69 128.31,-151.69 128.31,-151.69 128.31,-145.69 128.31,-145.69 128.31,-142.69 131.31,-139.69 134.31,-139.69 134.31,-139.69 190.31,-139.69 190.31,-139.69 193.31,-139.69 196.31,-142.69 196.31,-145.69 196.31,-145.69 196.31,-151.69 196.31,-151.69 196.31,-154.69 193.31,-157.69 190.31,-157.69"/>
<text text-anchor="start" x="136.31" y="-146.49" font-family="Helvetica,sans-Serif" font-size="9.00">attribute.ts</text>
</a>
</g>
</g>
<!-- packages/util/html/src/html.ts&#45;&gt;packages/util/html/src/attribute.ts -->
<g id="edge6" class="edge">
<title>packages/util/html/src/html.ts&#45;&gt;packages/util/html/src/attribute.ts</title>
<path fill="none" stroke="#000000" stroke-width="2" stroke-opacity="0.200000" d="M153.39,-239.62C155.08,-222.4 158.72,-185.25 160.79,-164.16"/>
<polygon fill="#000000" fill-opacity="0.200000" stroke="#000000" stroke-width="2" stroke-opacity="0.200000" points="162.91,-164.09 161.4,-157.92 158.73,-163.68 162.91,-164.09"/>
</g>
<!-- packages/util/html/src/html&#45;element.ts -->
<g id="node6" class="node">
<title>packages/util/html/src/html&#45;element.ts</title>
<g id="a_node6"><a xlink:href="packages/util/html/src/html-element.ts" xlink:title="html&#45;element.ts">
<path fill="#ddfeff" stroke="black" d="M285.2,-204.36C285.2,-204.36 208.2,-204.36 208.2,-204.36 205.2,-204.36 202.2,-201.36 202.2,-198.36 202.2,-198.36 202.2,-192.36 202.2,-192.36 202.2,-189.36 205.2,-186.36 208.2,-186.36 208.2,-186.36 285.2,-186.36 285.2,-186.36 288.2,-186.36 291.2,-189.36 291.2,-192.36 291.2,-192.36 291.2,-198.36 291.2,-198.36 291.2,-201.36 288.2,-204.36 285.2,-204.36"/>
<text text-anchor="start" x="210.2" y="-193.16" font-family="Helvetica,sans-Serif" font-size="9.00">html&#45;element.ts</text>
</a>
</g>
</g>
<!-- packages/util/html/src/html.ts&#45;&gt;packages/util/html/src/html&#45;element.ts -->
<g id="edge7" class="edge">
<title>packages/util/html/src/html.ts&#45;&gt;packages/util/html/src/html&#45;element.ts</title>
<path fill="none" stroke="#000000" stroke-width="2" stroke-opacity="0.200000" d="M168.47,-239.79C184.03,-230.95 207.8,-217.45 225.06,-207.65"/>
<polygon fill="#000000" fill-opacity="0.200000" stroke="#000000" stroke-width="2" stroke-opacity="0.200000" points="226.46,-209.27 230.64,-204.48 224.38,-205.62 226.46,-209.27"/>
</g>
<!-- packages/util/stdlib/src/array&#45;of&#45;array/array&#45;of&#45;array.ts -->
<g id="node8" class="node">
<title>packages/util/stdlib/src/array&#45;of&#45;array/array&#45;of&#45;array.ts</title>
<g id="a_node8"><a xlink:href="packages/util/stdlib/src/array-of-array/array-of-array.ts" xlink:title="array&#45;of&#45;array.ts">
<path fill="#ddfeff" stroke="black" d="M243.36,-131.6C243.36,-131.6 167.36,-131.6 167.36,-131.6 164.36,-131.6 161.36,-128.6 161.36,-125.6 161.36,-125.6 161.36,-119.6 161.36,-119.6 161.36,-116.6 164.36,-113.6 167.36,-113.6 167.36,-113.6 243.36,-113.6 243.36,-113.6 246.36,-113.6 249.36,-116.6 249.36,-119.6 249.36,-119.6 249.36,-125.6 249.36,-125.6 249.36,-128.6 246.36,-131.6 243.36,-131.6"/>
<text text-anchor="start" x="169.36" y="-120.4" font-family="Helvetica,sans-Serif" font-size="9.00">array&#45;of&#45;array.ts</text>
</a>
</g>
</g>
<!-- packages/util/html/src/html.ts&#45;&gt;packages/util/stdlib/src/array&#45;of&#45;array/array&#45;of&#45;array.ts -->
<g id="edge8" class="edge">
<title>packages/util/html/src/html.ts&#45;&gt;packages/util/stdlib/src/array&#45;of&#45;array/array&#45;of&#45;array.ts</title>
<path fill="none" stroke="#000000" stroke-width="2" stroke-opacity="0.200000" d="M156.29,-239.78C165.28,-218.32 187.91,-164.28 199.01,-137.76"/>
<polygon fill="#000000" fill-opacity="0.200000" stroke="#000000" stroke-width="2" stroke-opacity="0.200000" points="201.07,-138.29 201.45,-131.94 197.19,-136.66 201.07,-138.29"/>
</g>
<!-- packages/util/html/src/svg.ts&#45;&gt;packages/util/html/src/attribute.ts -->
<g id="edge20" class="edge">
<title>packages/util/html/src/svg.ts&#45;&gt;packages/util/html/src/attribute.ts</title>
<path fill="none" stroke="#000000" stroke-width="2" stroke-opacity="0.200000" d="M94.22,-120.86C106.38,-125.83 121.53,-132.02 134.45,-137.3"/>
<polygon fill="#000000" fill-opacity="0.200000" stroke="#000000" stroke-width="2" stroke-opacity="0.200000" points="133.86,-139.33 140.21,-139.66 135.45,-135.44 133.86,-139.33"/>
</g>
<!-- packages/util/html/src/svg.ts&#45;&gt;packages/util/stdlib/src/array&#45;of&#45;array/array&#45;of&#45;array.ts -->
<g id="edge22" class="edge">
<title>packages/util/html/src/svg.ts&#45;&gt;packages/util/stdlib/src/array&#45;of&#45;array/array&#45;of&#45;array.ts</title>
<path fill="none" stroke="#000000" stroke-width="2" stroke-opacity="0.200000" d="M98.88,-113.92C114.97,-115.23 135.89,-116.94 154.93,-118.49"/>
<polygon fill="#000000" fill-opacity="0.200000" stroke="#000000" stroke-width="2" stroke-opacity="0.200000" points="155.15,-120.61 161.3,-119.01 155.49,-116.43 155.15,-120.61"/>
</g>
<!-- packages/util/html/src/svg&#45;element.ts -->
<g id="node10" class="node">
<title>packages/util/html/src/svg&#45;element.ts</title>
<g id="a_node10"><a xlink:href="packages/util/html/src/svg-element.ts" xlink:title="svg&#45;element.ts">
<path fill="#ddfeff" stroke="black" d="M234.04,-62.04C234.04,-62.04 163.04,-62.04 163.04,-62.04 160.04,-62.04 157.04,-59.04 157.04,-56.04 157.04,-56.04 157.04,-50.04 157.04,-50.04 157.04,-47.04 160.04,-44.04 163.04,-44.04 163.04,-44.04 234.04,-44.04 234.04,-44.04 237.04,-44.04 240.04,-47.04 240.04,-50.04 240.04,-50.04 240.04,-56.04 240.04,-56.04 240.04,-59.04 237.04,-62.04 234.04,-62.04"/>
<text text-anchor="start" x="165.04" y="-50.84" font-family="Helvetica,sans-Serif" font-size="9.00">svg&#45;element.ts</text>
</a>
</g>
</g>
<!-- packages/util/html/src/svg.ts&#45;&gt;packages/util/html/src/svg&#45;element.ts -->
<g id="edge21" class="edge">
<title>packages/util/html/src/svg.ts&#45;&gt;packages/util/html/src/svg&#45;element.ts</title>
<path fill="none" stroke="#000000" stroke-width="2" stroke-opacity="0.200000" d="M91.38,-102.68C113.36,-92.5 149.13,-75.93 173.24,-64.76"/>
<polygon fill="#000000" fill-opacity="0.200000" stroke="#000000" stroke-width="2" stroke-opacity="0.200000" points="174.24,-66.61 178.8,-62.19 172.47,-62.8 174.24,-66.61"/>
</g>
<!-- packages/util/html/src/html&#45;element.ts&#45;&gt;packages/util/html/src/attribute.ts -->
<g id="edge3" class="edge">
<title>packages/util/html/src/html&#45;element.ts&#45;&gt;packages/util/html/src/attribute.ts</title>
<path fill="none" stroke="#000000" stroke-width="2" stroke-opacity="0.200000" d="M230.02,-186.14C216.88,-178.87 198.44,-168.67 184.12,-160.76"/>
<polygon fill="#000000" fill-opacity="0.200000" stroke="#000000" stroke-width="2" stroke-opacity="0.200000" points="184.93,-158.8 178.66,-157.74 182.89,-162.48 184.93,-158.8"/>
</g>
<!-- packages/util/html/src/set&#45;components&#45;to&#45;element.ts -->
<g id="node7" class="node">
<title>packages/util/html/src/set&#45;components&#45;to&#45;element.ts</title>
<g id="a_node7"><a xlink:href="packages/util/html/src/set-components-to-element.ts" xlink:title="set&#45;components&#45;to&#45;element.ts">
<path fill="#ddfeff" stroke="black" d="M232.01,-36.04C232.01,-36.04 91.01,-36.04 91.01,-36.04 88.01,-36.04 85.01,-33.04 85.01,-30.04 85.01,-30.04 85.01,-24.04 85.01,-24.04 85.01,-21.04 88.01,-18.04 91.01,-18.04 91.01,-18.04 232.01,-18.04 232.01,-18.04 235.01,-18.04 238.01,-21.04 238.01,-24.04 238.01,-24.04 238.01,-30.04 238.01,-30.04 238.01,-33.04 235.01,-36.04 232.01,-36.04"/>
<text text-anchor="start" x="93.01" y="-24.84" font-family="Helvetica,sans-Serif" font-size="9.00">set&#45;components&#45;to&#45;element.ts</text>
</a>
</g>
</g>
<!-- packages/util/html/src/html&#45;element.ts&#45;&gt;packages/util/html/src/set&#45;components&#45;to&#45;element.ts -->
<g id="edge4" class="edge">
<title>packages/util/html/src/html&#45;element.ts&#45;&gt;packages/util/html/src/set&#45;components&#45;to&#45;element.ts</title>
<path fill="none" stroke="#000000" stroke-width="2" stroke-opacity="0.200000" d="M242.12,-186.31C228.19,-158.8 186.27,-75.95 169.04,-41.9"/>
<polygon fill="#000000" fill-opacity="0.200000" stroke="#000000" stroke-width="2" stroke-opacity="0.200000" points="170.7,-40.54 166.12,-36.13 166.95,-42.43 170.7,-40.54"/>
</g>
<!-- packages/util/html/src/html&#45;element.ts&#45;&gt;packages/util/stdlib/src/array&#45;of&#45;array/array&#45;of&#45;array.ts -->
<g id="edge5" class="edge">
<title>packages/util/html/src/html&#45;element.ts&#45;&gt;packages/util/stdlib/src/array&#45;of&#45;array/array&#45;of&#45;array.ts</title>
<path fill="none" stroke="#000000" stroke-width="2" stroke-opacity="0.200000" d="M241.46,-186.14C234.48,-173.86 222.04,-151.96 213.74,-137.36"/>
<polygon fill="#000000" fill-opacity="0.200000" stroke="#000000" stroke-width="2" stroke-opacity="0.200000" points="215.47,-136.15 210.68,-131.97 211.82,-138.23 215.47,-136.15"/>
</g>
<!-- packages/util/html/src/set&#45;components&#45;to&#45;element.ts&#45;&gt;packages/util/html/src/attribute.ts -->
<g id="edge14" class="edge">
<title>packages/util/html/src/set&#45;components&#45;to&#45;element.ts&#45;&gt;packages/util/html/src/attribute.ts</title>
<path fill="none" stroke="#000000" stroke-width="2" stroke-opacity="0.200000" d="M161.57,-36.18C161.71,-56.88 162.04,-107.5 162.21,-133.19"/>
<polygon fill="#000000" fill-opacity="0.200000" stroke="#000000" stroke-width="2" stroke-opacity="0.200000" points="160.11,-133.46 162.25,-139.44 164.31,-133.43 160.11,-133.46"/>
</g>
<!-- packages/util/html/src/set&#45;components&#45;to&#45;element.ts&#45;&gt;packages/util/stdlib/src/array&#45;of&#45;array/array&#45;of&#45;array.ts -->
<g id="edge15" class="edge">
<title>packages/util/html/src/set&#45;components&#45;to&#45;element.ts&#45;&gt;packages/util/stdlib/src/array&#45;of&#45;array/array&#45;of&#45;array.ts</title>
<path fill="none" stroke="#000000" stroke-width="2" stroke-opacity="0.200000" d="M165.72,-36.2C173.29,-52.71 189.3,-87.6 198.49,-107.62"/>
<polygon fill="#000000" fill-opacity="0.200000" stroke="#000000" stroke-width="2" stroke-opacity="0.200000" points="196.69,-108.75 201.1,-113.33 200.51,-107 196.69,-108.75"/>
</g>
<!-- packages/util/stdlib/src/array&#45;of&#45;array/to&#45;array.ts -->
<g id="node11" class="node">
<title>packages/util/stdlib/src/array&#45;of&#45;array/to&#45;array.ts</title>
<g id="a_node11"><a xlink:href="packages/util/stdlib/src/array-of-array/to-array.ts" xlink:title="to&#45;array.ts">
<path fill="#ddfeff" stroke="black" d="M308.32,-18C308.32,-18 258.32,-18 258.32,-18 255.32,-18 252.32,-15 252.32,-12 252.32,-12 252.32,-6 252.32,-6 252.32,-3 255.32,0 258.32,0 258.32,0 308.32,0 308.32,0 311.32,0 314.32,-3 314.32,-6 314.32,-6 314.32,-12 314.32,-12 314.32,-15 311.32,-18 308.32,-18"/>
<text text-anchor="start" x="260.32" y="-6.8" font-family="Helvetica,sans-Serif" font-size="9.00">to&#45;array.ts</text>
</a>
</g>
</g>
<!-- packages/util/html/src/set&#45;components&#45;to&#45;element.ts&#45;&gt;packages/util/stdlib/src/array&#45;of&#45;array/to&#45;array.ts -->
<g id="edge16" class="edge">
<title>packages/util/html/src/set&#45;components&#45;to&#45;element.ts&#45;&gt;packages/util/stdlib/src/array&#45;of&#45;array/to&#45;array.ts</title>
<path fill="none" stroke="#000000" stroke-width="2" stroke-opacity="0.200000" d="M222.42,-18.02C230.5,-16.82 238.59,-15.62 246.1,-14.51"/>
<polygon fill="#000000" fill-opacity="0.200000" stroke="#000000" stroke-width="2" stroke-opacity="0.200000" points="246.64,-16.55 252.27,-13.6 246.02,-12.4 246.64,-16.55"/>
</g>
<!-- packages/util/html/src/index.ts -->
<g id="node9" class="node">
<title>packages/util/html/src/index.ts</title>
<g id="a_node9"><a xlink:href="packages/util/html/src/index.ts" xlink:title="index.ts">
<path fill="#ddfeff" stroke="black" d="M323.77,-122.44C323.77,-122.44 281.77,-122.44 281.77,-122.44 278.77,-122.44 275.77,-119.44 275.77,-116.44 275.77,-116.44 275.77,-110.44 275.77,-110.44 275.77,-107.44 278.77,-104.44 281.77,-104.44 281.77,-104.44 323.77,-104.44 323.77,-104.44 326.77,-104.44 329.77,-107.44 329.77,-110.44 329.77,-110.44 329.77,-116.44 329.77,-116.44 329.77,-119.44 326.77,-122.44 323.77,-122.44"/>
<text text-anchor="start" x="284.27" y="-111.24" font-family="Helvetica,sans-Serif" font-size="9.00">index.ts</text>
</a>
</g>
</g>
<!-- packages/util/html/src/index.ts&#45;&gt;packages/util/html/src/attribute.ts -->
<g id="edge9" class="edge">
<title>packages/util/html/src/index.ts&#45;&gt;packages/util/html/src/attribute.ts</title>
<path fill="none" stroke="#000000" stroke-width="2" stroke-opacity="0.200000" d="M275.69,-120.24C254.89,-125.46 225.85,-132.75 202.37,-138.64"/>
<polygon fill="#000000" fill-opacity="0.200000" stroke="#000000" stroke-width="2" stroke-opacity="0.200000" points="201.83,-136.61 196.52,-140.11 202.85,-140.68 201.83,-136.61"/>
</g>
<!-- packages/util/html/src/index.ts&#45;&gt;packages/util/html/src/html&#45;element.ts -->
<g id="edge10" class="edge">
<title>packages/util/html/src/index.ts&#45;&gt;packages/util/html/src/html&#45;element.ts</title>
<path fill="none" stroke="#000000" stroke-width="2" stroke-opacity="0.200000" d="M296.56,-122.52C286.87,-136.67 268.1,-164.09 256.55,-180.96"/>
<polygon fill="#000000" fill-opacity="0.200000" stroke="#000000" stroke-width="2" stroke-opacity="0.200000" points="251.21,-185.05 256.33,-181.29 254.67,-187.42 251.21,-185.05"/>
</g>
<!-- packages/util/html/src/index.ts&#45;&gt;packages/util/stdlib/src/array&#45;of&#45;array/array&#45;of&#45;array.ts -->
<g id="edge12" class="edge">
<title>packages/util/html/src/index.ts&#45;&gt;packages/util/stdlib/src/array&#45;of&#45;array/array&#45;of&#45;array.ts</title>
<path fill="none" stroke="#000000" stroke-width="2" stroke-opacity="0.200000" d="M275.64,-115.99C269.43,-116.58 262.64,-117.21 255.8,-117.86"/>
<polygon fill="#000000" fill-opacity="0.200000" stroke="#000000" stroke-width="2" stroke-opacity="0.200000" points="255.3,-115.8 249.52,-118.45 255.69,-119.98 255.3,-115.8"/>
</g>
<!-- packages/util/html/src/index.ts&#45;&gt;packages/util/html/src/svg&#45;element.ts -->
<g id="edge11" class="edge">
<title>packages/util/html/src/index.ts&#45;&gt;packages/util/html/src/svg&#45;element.ts</title>
<path fill="none" stroke="#000000" stroke-width="2" stroke-opacity="0.200000" d="M286.94,-104.27C268.93,-93.83 239.44,-76.74 219.53,-65.2"/>
<polygon fill="#000000" fill-opacity="0.200000" stroke="#000000" stroke-width="2" stroke-opacity="0.200000" points="215.23,-60.28 219.37,-65.11 213.13,-63.92 215.23,-60.28"/>
</g>
<!-- packages/util/html/src/index.ts&#45;&gt;packages/util/stdlib/src/array&#45;of&#45;array/to&#45;array.ts -->
<g id="edge13" class="edge">
<title>packages/util/html/src/index.ts&#45;&gt;packages/util/stdlib/src/array&#45;of&#45;array/to&#45;array.ts</title>
<path fill="none" stroke="#000000" stroke-width="2" stroke-opacity="0.200000" d="M301.04,-104.17C297.68,-86.09 290.2,-45.95 286.12,-24.02"/>
<polygon fill="#000000" fill-opacity="0.200000" stroke="#000000" stroke-width="2" stroke-opacity="0.200000" points="288.18,-23.61 285.01,-18.1 284.05,-24.38 288.18,-23.61"/>
</g>
<!-- packages/util/html/src/svg&#45;element.ts&#45;&gt;packages/util/html/src/attribute.ts -->
<g id="edge17" class="edge">
<title>packages/util/html/src/svg&#45;element.ts&#45;&gt;packages/util/html/src/attribute.ts</title>
<path fill="none" stroke="#000000" stroke-width="2" stroke-opacity="0.200000" d="M195.07,-62.21C188.78,-78.82 175.44,-114.02 167.87,-134.01"/>
<polygon fill="#000000" fill-opacity="0.200000" stroke="#000000" stroke-width="2" stroke-opacity="0.200000" points="165.88,-133.33 165.72,-139.69 169.81,-134.82 165.88,-133.33"/>
</g>
<!-- packages/util/html/src/svg&#45;element.ts&#45;&gt;packages/util/html/src/set&#45;components&#45;to&#45;element.ts -->
<g id="edge18" class="edge">
<title>packages/util/html/src/svg&#45;element.ts&#45;&gt;packages/util/html/src/set&#45;components&#45;to&#45;element.ts</title>
<path fill="none" stroke="#000000" stroke-width="2" stroke-opacity="0.200000" d="M185.59,-43.94C183.69,-42.61 181.69,-41.21 179.71,-39.81"/>
<polygon fill="#000000" fill-opacity="0.200000" stroke="#000000" stroke-width="2" stroke-opacity="0.200000" points="180.64,-37.9 174.52,-36.17 178.22,-41.34 180.64,-37.9"/>
</g>
<!-- packages/util/html/src/svg&#45;element.ts&#45;&gt;packages/util/stdlib/src/array&#45;of&#45;array/array&#45;of&#45;array.ts -->
<g id="edge19" class="edge">
<title>packages/util/html/src/svg&#45;element.ts&#45;&gt;packages/util/stdlib/src/array&#45;of&#45;array/array&#45;of&#45;array.ts</title>
<path fill="none" stroke="#000000" stroke-width="2" stroke-opacity="0.200000" d="M199.43,-62.13C200.55,-73.53 202.48,-93.23 203.83,-107.04"/>
<polygon fill="#000000" fill-opacity="0.200000" stroke="#000000" stroke-width="2" stroke-opacity="0.200000" points="201.77,-107.52 204.45,-113.28 205.95,-107.11 201.77,-107.52"/>
</g>
<!-- packages/util/stdlib/src/array&#45;of&#45;array/to&#45;array.ts&#45;&gt;packages/util/stdlib/src/array&#45;of&#45;array/array&#45;of&#45;array.ts -->
<g id="edge23" class="edge">
<title>packages/util/stdlib/src/array&#45;of&#45;array/to&#45;array.ts&#45;&gt;packages/util/stdlib/src/array&#45;of&#45;array/array&#45;of&#45;array.ts</title>
<path fill="none" stroke="#000000" stroke-width="2" stroke-opacity="0.200000" d="M276.94,-18.3C263.34,-38.12 231.41,-84.64 215.19,-108.28"/>
<polygon fill="#000000" fill-opacity="0.200000" stroke="#000000" stroke-width="2" stroke-opacity="0.200000" points="213.27,-107.36 211.61,-113.49 216.73,-109.74 213.27,-107.36"/>
</g>
</g>
</svg>
