<?xml version="1.0" encoding="UTF-8" standalone="no"?>
<!DOCTYPE svg PUBLIC "-//W3C//DTD SVG 1.1//EN"
 "http://www.w3.org/Graphics/SVG/1.1/DTD/svg11.dtd">
<!-- Generated by graphviz version 2.43.0 (0)
 -->
<!-- Title: dependency&#45;cruiser output Pages: 1 -->
<svg width="708pt" height="402pt"
 viewBox="0.00 0.00 708.00 402.00" xmlns="http://www.w3.org/2000/svg" xmlns:xlink="http://www.w3.org/1999/xlink">
<g id="graph0" class="graph" transform="scale(1 1) rotate(0) translate(4 398)">
<title>dependency&#45;cruiser output</title>
<polygon fill="white" stroke="transparent" points="-4,4 -4,-398 704,-398 704,4 -4,4"/>
<g id="clust1" class="cluster">
<title>cluster_packages</title>
<path fill="#ffffff" stroke="black" stroke-width="2" d="M20,-8C20,-8 680,-8 680,-8 686,-8 692,-14 692,-20 692,-20 692,-374 692,-374 692,-380 686,-386 680,-386 680,-386 20,-386 20,-386 14,-386 8,-380 8,-374 8,-374 8,-20 8,-20 8,-14 14,-8 20,-8"/>
<text text-anchor="middle" x="350" y="-374.8" font-family="Helvetica,sans-Serif" font-weight="bold" font-size="9.00">packages</text>
</g>
<g id="clust2" class="cluster">
<title>cluster_packages/util</title>
<path fill="#ffffff" stroke="black" stroke-width="2" d="M28,-16C28,-16 672,-16 672,-16 678,-16 684,-22 684,-28 684,-28 684,-348 684,-348 684,-354 678,-360 672,-360 672,-360 28,-360 28,-360 22,-360 16,-354 16,-348 16,-348 16,-28 16,-28 16,-22 22,-16 28,-16"/>
<text text-anchor="middle" x="350" y="-348.8" font-family="Helvetica,sans-Serif" font-weight="bold" font-size="9.00">util</text>
</g>
<g id="clust3" class="cluster">
<title>cluster_packages/util/html</title>
<path fill="#ffffff" stroke="black" stroke-width="2" d="M36,-48C36,-48 544,-48 544,-48 550,-48 556,-54 556,-60 556,-60 556,-194 556,-194 556,-200 550,-206 544,-206 544,-206 36,-206 36,-206 30,-206 24,-200 24,-194 24,-194 24,-60 24,-60 24,-54 30,-48 36,-48"/>
<text text-anchor="middle" x="290" y="-194.8" font-family="Helvetica,sans-Serif" font-weight="bold" font-size="9.00">html</text>
</g>
<g id="clust4" class="cluster">
<title>cluster_packages/util/html/src</title>
<path fill="#ffffff" stroke="black" stroke-width="2" d="M125,-56C125,-56 536,-56 536,-56 542,-56 548,-62 548,-68 548,-68 548,-168 548,-168 548,-174 542,-180 536,-180 536,-180 125,-180 125,-180 119,-180 113,-174 113,-168 113,-168 113,-68 113,-68 113,-62 119,-56 125,-56"/>
<text text-anchor="middle" x="330.5" y="-168.8" font-family="Helvetica,sans-Serif" font-weight="bold" font-size="9.00">src</text>
</g>
<g id="clust5" class="cluster">
<title>cluster_packages/util/stdlib</title>
<path fill="#ffffff" stroke="black" stroke-width="2" d="M463,-214C463,-214 664,-214 664,-214 670,-214 676,-220 676,-226 676,-226 676,-322 676,-322 676,-328 670,-334 664,-334 664,-334 463,-334 463,-334 457,-334 451,-328 451,-322 451,-322 451,-226 451,-226 451,-220 457,-214 463,-214"/>
<text text-anchor="middle" x="563.5" y="-322.8" font-family="Helvetica,sans-Serif" font-weight="bold" font-size="9.00">stdlib</text>
</g>
<g id="clust6" class="cluster">
<title>cluster_packages/util/stdlib/src</title>
<path fill="#ffffff" stroke="black" stroke-width="2" d="M471,-222C471,-222 656,-222 656,-222 662,-222 668,-228 668,-234 668,-234 668,-296 668,-296 668,-302 662,-308 656,-308 656,-308 471,-308 471,-308 465,-308 459,-302 459,-296 459,-296 459,-234 459,-234 459,-228 465,-222 471,-222"/>
<text text-anchor="middle" x="563.5" y="-296.8" font-family="Helvetica,sans-Serif" font-weight="bold" font-size="9.00">src</text>
</g>
<g id="clust7" class="cluster">
<title>cluster_packages/util/stdlib/src/array&#45;of&#45;array</title>
<path fill="#ffffff" stroke="black" stroke-width="2" d="M479,-230C479,-230 648,-230 648,-230 654,-230 660,-236 660,-242 660,-242 660,-270 660,-270 660,-276 654,-282 648,-282 648,-282 479,-282 479,-282 473,-282 467,-276 467,-270 467,-270 467,-242 467,-242 467,-236 473,-230 479,-230"/>
<text text-anchor="middle" x="563.5" y="-270.8" font-family="Helvetica,sans-Serif" font-weight="bold" font-size="9.00">array&#45;of&#45;array</text>
</g>
<!-- packages/util/html/index.test.ts -->
<g id="node1" class="node">
<title>packages/util/html/index.test.ts</title>
<g id="a_node1"><a xlink:href="packages/util/html/index.test.ts" xlink:title="no&#45;orphans">
<path fill="#ccffcc" stroke="orange" d="M99,-166C99,-166 38,-166 38,-166 35,-166 32,-163 32,-160 32,-160 32,-154 32,-154 32,-151 35,-148 38,-148 38,-148 99,-148 99,-148 102,-148 105,-151 105,-154 105,-154 105,-160 105,-160 105,-163 102,-166 99,-166"/>
<text text-anchor="start" x="40" y="-154.8" font-family="Helvetica,sans-Serif" font-size="9.00" fill="orange">index.test.ts</text>
</a>
</g>
</g>
<!-- packages/util/html/index.ts -->
<g id="node2" class="node">
<title>packages/util/html/index.ts</title>
<g id="a_node2"><a xlink:href="packages/util/html/index.ts" xlink:title="index.ts">
<path fill="#ddfeff" stroke="black" d="M89.5,-102C89.5,-102 47.5,-102 47.5,-102 44.5,-102 41.5,-99 41.5,-96 41.5,-96 41.5,-90 41.5,-90 41.5,-87 44.5,-84 47.5,-84 47.5,-84 89.5,-84 89.5,-84 92.5,-84 95.5,-87 95.5,-90 95.5,-90 95.5,-96 95.5,-96 95.5,-99 92.5,-102 89.5,-102"/>
<text text-anchor="start" x="50" y="-90.8" font-family="Helvetica,sans-Serif" font-size="9.00">index.ts</text>
</a>
</g>
</g>
<!-- packages/util/html/src/html.ts -->
<g id="node3" class="node">
<title>packages/util/html/src/html.ts</title>
<g id="a_node3"><a xlink:href="packages/util/html/src/html.ts" xlink:title="html.ts">
<path fill="#ddfeff" stroke="black" d="M169,-88C169,-88 127,-88 127,-88 124,-88 121,-85 121,-82 121,-82 121,-76 121,-76 121,-73 124,-70 127,-70 127,-70 169,-70 169,-70 172,-70 175,-73 175,-76 175,-76 175,-82 175,-82 175,-85 172,-88 169,-88"/>
<text text-anchor="start" x="131.5" y="-76.8" font-family="Helvetica,sans-Serif" font-size="9.00">html.ts</text>
</a>
</g>
</g>
<!-- packages/util/html/index.ts&#45;&gt;packages/util/html/src/html.ts -->
<g id="edge1" class="edge">
<title>packages/util/html/index.ts&#45;&gt;packages/util/html/src/html.ts</title>
<path fill="none" stroke="#000000" stroke-width="2" stroke-opacity="0.200000" d="M95.74,-88.26C101.8,-87.17 108.32,-85.99 114.6,-84.85"/>
<polygon fill="#000000" fill-opacity="0.200000" stroke="#000000" stroke-width="2" stroke-opacity="0.200000" points="121.16,-85.8 114.88,-84.8 120.42,-81.67 121.16,-85.8"/>
</g>
<!-- packages/util/html/src/svg.ts -->
<g id="node4" class="node">
<title>packages/util/html/src/svg.ts</title>
<g id="a_node4"><a xlink:href="packages/util/html/src/svg.ts" xlink:title="svg.ts">
<path fill="#ddfeff" stroke="black" d="M169,-154C169,-154 127,-154 127,-154 124,-154 121,-151 121,-148 121,-148 121,-142 121,-142 121,-139 124,-136 127,-136 127,-136 169,-136 169,-136 172,-136 175,-139 175,-142 175,-142 175,-148 175,-148 175,-151 172,-154 169,-154"/>
<text text-anchor="start" x="134" y="-142.8" font-family="Helvetica,sans-Serif" font-size="9.00">svg.ts</text>
</a>
</g>
</g>
<!-- packages/util/html/index.ts&#45;&gt;packages/util/html/src/svg.ts -->
<g id="edge2" class="edge">
<title>packages/util/html/index.ts&#45;&gt;packages/util/html/src/svg.ts</title>
<path fill="none" stroke="#000000" stroke-width="2" stroke-opacity="0.200000" d="M80.48,-102.34C93.36,-113.3 113,-130 113,-130 113,-130 116.24,-131.43 120.73,-133.41"/>
<polygon fill="#000000" fill-opacity="0.200000" stroke="#000000" stroke-width="2" stroke-opacity="0.200000" points="125.59,-137.85 120.95,-133.51 127.29,-134.01 125.59,-137.85"/>
</g>
<!-- packages/util/html/src/attribute.ts -->
<g id="node5" class="node">
<title>packages/util/html/src/attribute.ts</title>
<g id="a_node5"><a xlink:href="packages/util/html/src/attribute.ts" xlink:title="attribute.ts">
<path fill="#ddfeff" stroke="black" d="M534,-137C534,-137 478,-137 478,-137 475,-137 472,-134 472,-131 472,-131 472,-125 472,-125 472,-122 475,-119 478,-119 478,-119 534,-119 534,-119 537,-119 540,-122 540,-125 540,-125 540,-131 540,-131 540,-134 537,-137 534,-137"/>
<text text-anchor="start" x="480" y="-125.8" font-family="Helvetica,sans-Serif" font-size="9.00">attribute.ts</text>
</a>
</g>
</g>
<!-- packages/util/html/src/html.ts&#45;&gt;packages/util/html/src/attribute.ts -->
<g id="edge6" class="edge">
<title>packages/util/html/src/html.ts&#45;&gt;packages/util/html/src/attribute.ts</title>
<path fill="none" stroke="#000000" stroke-width="2" stroke-opacity="0.200000" d="M175.23,-74.29C182.28,-73.03 188,-72 188,-72 188,-72 277,-72 277,-72 277,-72 443,-85 443,-85 443,-85 468.61,-102.76 486.91,-115.45"/>
<polygon fill="#000000" fill-opacity="0.200000" stroke="#000000" stroke-width="2" stroke-opacity="0.200000" points="485.72,-117.19 491.85,-118.88 488.12,-113.74 485.72,-117.19"/>
</g>
<!-- packages/util/html/src/html&#45;element.ts -->
<g id="node6" class="node">
<title>packages/util/html/src/html&#45;element.ts</title>
<g id="a_node6"><a xlink:href="packages/util/html/src/html-element.ts" xlink:title="html&#45;element.ts">
<path fill="#ddfeff" stroke="black" d="M271,-96C271,-96 194,-96 194,-96 191,-96 188,-93 188,-90 188,-90 188,-84 188,-84 188,-81 191,-78 194,-78 194,-78 271,-78 271,-78 274,-78 277,-81 277,-84 277,-84 277,-90 277,-90 277,-93 274,-96 271,-96"/>
<text text-anchor="start" x="196" y="-84.8" font-family="Helvetica,sans-Serif" font-size="9.00">html&#45;element.ts</text>
</a>
</g>
</g>
<!-- packages/util/html/src/html.ts&#45;&gt;packages/util/html/src/html&#45;element.ts -->
<g id="edge7" class="edge">
<title>packages/util/html/src/html.ts&#45;&gt;packages/util/html/src/html&#45;element.ts</title>
<path fill="none" stroke="#000000" stroke-width="2" stroke-opacity="0.200000" d="M175.1,-81.53C177.26,-81.74 179.48,-81.96 181.74,-82.17"/>
<polygon fill="#000000" fill-opacity="0.200000" stroke="#000000" stroke-width="2" stroke-opacity="0.200000" points="181.6,-84.27 187.77,-82.76 182,-80.09 181.6,-84.27"/>
</g>
<!-- packages/util/stdlib/src/array&#45;of&#45;array/array&#45;of&#45;array.ts -->
<g id="node8" class="node">
<title>packages/util/stdlib/src/array&#45;of&#45;array/array&#45;of&#45;array.ts</title>
<g id="a_node8"><a xlink:href="packages/util/stdlib/src/array-of-array/array-of-array.ts" xlink:title="array&#45;of&#45;array.ts">
<path fill="#ddfeff" stroke="black" d="M646,-256C646,-256 570,-256 570,-256 567,-256 564,-253 564,-250 564,-250 564,-244 564,-244 564,-241 567,-238 570,-238 570,-238 646,-238 646,-238 649,-238 652,-241 652,-244 652,-244 652,-250 652,-250 652,-253 649,-256 646,-256"/>
<text text-anchor="start" x="572" y="-244.8" font-family="Helvetica,sans-Serif" font-size="9.00">array&#45;of&#45;array.ts</text>
</a>
</g>
</g>
<!-- packages/util/html/src/html.ts&#45;&gt;packages/util/stdlib/src/array&#45;of&#45;array/array&#45;of&#45;array.ts -->
<g id="edge8" class="edge">
<title>packages/util/html/src/html.ts&#45;&gt;packages/util/stdlib/src/array&#45;of&#45;array/array&#45;of&#45;array.ts</title>
<path fill="none" stroke="#000000" stroke-width="2" stroke-opacity="0.200000" d="M175.23,-72.27C182.28,-70.47 188,-69 188,-69 188,-69 277,-69 277,-69 277,-69 556,-92 556,-92 556,-92 589.05,-192.44 601.94,-231.62"/>
<polygon fill="#000000" fill-opacity="0.200000" stroke="#000000" stroke-width="2" stroke-opacity="0.200000" points="600.09,-232.73 603.96,-237.77 604.08,-231.41 600.09,-232.73"/>
</g>
<!-- packages/util/html/src/svg.ts&#45;&gt;packages/util/html/src/attribute.ts -->
<g id="edge20" class="edge">
<title>packages/util/html/src/svg.ts&#45;&gt;packages/util/html/src/attribute.ts</title>
<path fill="none" stroke="#000000" stroke-width="2" stroke-opacity="0.200000" d="M175.23,-145.67C182.28,-145.85 188,-146 188,-146 188,-146 277,-146 277,-146 277,-146 443,-136 443,-136 443,-136 453.4,-134.66 465.68,-133.07"/>
<polygon fill="#000000" fill-opacity="0.200000" stroke="#000000" stroke-width="2" stroke-opacity="0.200000" points="466.14,-135.13 471.82,-132.28 465.6,-130.97 466.14,-135.13"/>
</g>
<!-- packages/util/html/src/svg.ts&#45;&gt;packages/util/stdlib/src/array&#45;of&#45;array/array&#45;of&#45;array.ts -->
<g id="edge22" class="edge">
<title>packages/util/html/src/svg.ts&#45;&gt;packages/util/stdlib/src/array&#45;of&#45;array/array&#45;of&#45;array.ts</title>
<path fill="none" stroke="#000000" stroke-width="2" stroke-opacity="0.200000" d="M151.8,-154.21C160.75,-183.55 188,-273 188,-273 188,-273 556,-273 556,-273 556,-273 570.13,-265.8 583.52,-258.97"/>
<polygon fill="#000000" fill-opacity="0.200000" stroke="#000000" stroke-width="2" stroke-opacity="0.200000" points="584.77,-260.69 589.16,-256.09 582.86,-256.95 584.77,-260.69"/>
</g>
<!-- packages/util/html/src/svg&#45;element.ts -->
<g id="node10" class="node">
<title>packages/util/html/src/svg&#45;element.ts</title>
<g id="a_node10"><a xlink:href="packages/util/html/src/svg-element.ts" xlink:title="svg&#45;element.ts">
<path fill="#ddfeff" stroke="black" d="M268,-140C268,-140 197,-140 197,-140 194,-140 191,-137 191,-134 191,-134 191,-128 191,-128 191,-125 194,-122 197,-122 197,-122 268,-122 268,-122 271,-122 274,-125 274,-128 274,-128 274,-134 274,-134 274,-137 271,-140 268,-140"/>
<text text-anchor="start" x="199" y="-128.8" font-family="Helvetica,sans-Serif" font-size="9.00">svg&#45;element.ts</text>
</a>
</g>
</g>
<!-- packages/util/html/src/svg.ts&#45;&gt;packages/util/html/src/svg&#45;element.ts -->
<g id="edge21" class="edge">
<title>packages/util/html/src/svg.ts&#45;&gt;packages/util/html/src/svg&#45;element.ts</title>
<path fill="none" stroke="#000000" stroke-width="2" stroke-opacity="0.200000" d="M175.1,-140.57C178.23,-140.04 181.49,-139.49 184.8,-138.92"/>
<polygon fill="#000000" fill-opacity="0.200000" stroke="#000000" stroke-width="2" stroke-opacity="0.200000" points="185.23,-140.98 190.79,-137.91 184.53,-136.84 185.23,-140.98"/>
</g>
<!-- packages/util/html/src/html&#45;element.ts&#45;&gt;packages/util/html/src/attribute.ts -->
<g id="edge3" class="edge">
<title>packages/util/html/src/html&#45;element.ts&#45;&gt;packages/util/html/src/attribute.ts</title>
<path fill="none" stroke="#000000" stroke-width="2" stroke-opacity="0.200000" d="M277.16,-87.83C338.56,-89.01 443,-91 443,-91 443,-91 466.25,-104.88 484.28,-115.63"/>
<polygon fill="#000000" fill-opacity="0.200000" stroke="#000000" stroke-width="2" stroke-opacity="0.200000" points="483.45,-117.58 489.67,-118.85 485.6,-113.98 483.45,-117.58"/>
</g>
<!-- packages/util/html/src/set&#45;components&#45;to&#45;element.ts -->
<g id="node7" class="node">
<title>packages/util/html/src/set&#45;components&#45;to&#45;element.ts</title>
<g id="a_node7"><a xlink:href="packages/util/html/src/set-components-to-element.ts" xlink:title="set&#45;components&#45;to&#45;element.ts">
<path fill="#ddfeff" stroke="black" d="M437,-126C437,-126 296,-126 296,-126 293,-126 290,-123 290,-120 290,-120 290,-114 290,-114 290,-111 293,-108 296,-108 296,-108 437,-108 437,-108 440,-108 443,-111 443,-114 443,-114 443,-120 443,-120 443,-123 440,-126 437,-126"/>
<text text-anchor="start" x="298" y="-114.8" font-family="Helvetica,sans-Serif" font-size="9.00">set&#45;components&#45;to&#45;element.ts</text>
</a>
</g>
</g>
<!-- packages/util/html/src/html&#45;element.ts&#45;&gt;packages/util/html/src/set&#45;components&#45;to&#45;element.ts -->
<g id="edge4" class="edge">
<title>packages/util/html/src/html&#45;element.ts&#45;&gt;packages/util/html/src/set&#45;components&#45;to&#45;element.ts</title>
<path fill="none" stroke="#000000" stroke-width="2" stroke-opacity="0.200000" d="M273.1,-96C287.72,-99.32 304.4,-103.11 319.53,-106.55"/>
<polygon fill="#000000" fill-opacity="0.200000" stroke="#000000" stroke-width="2" stroke-opacity="0.200000" points="319.15,-108.62 325.47,-107.9 320.08,-104.52 319.15,-108.62"/>
</g>
<!-- packages/util/html/src/html&#45;element.ts&#45;&gt;packages/util/stdlib/src/array&#45;of&#45;array/array&#45;of&#45;array.ts -->
<g id="edge5" class="edge">
<title>packages/util/html/src/html&#45;element.ts&#45;&gt;packages/util/stdlib/src/array&#45;of&#45;array/array&#45;of&#45;array.ts</title>
<path fill="none" stroke="#000000" stroke-width="2" stroke-opacity="0.200000" d="M277.33,-88.63C365.51,-91.91 556,-99 556,-99 556,-99 588.75,-194.03 601.76,-231.79"/>
<polygon fill="#000000" fill-opacity="0.200000" stroke="#000000" stroke-width="2" stroke-opacity="0.200000" points="599.87,-232.75 603.81,-237.74 603.84,-231.39 599.87,-232.75"/>
</g>
<!-- packages/util/html/src/set&#45;components&#45;to&#45;element.ts&#45;&gt;packages/util/html/src/attribute.ts -->
<g id="edge14" class="edge">
<title>packages/util/html/src/set&#45;components&#45;to&#45;element.ts&#45;&gt;packages/util/html/src/attribute.ts</title>
<path fill="none" stroke="#000000" stroke-width="2" stroke-opacity="0.200000" d="M443.09,-123.05C450.83,-123.67 458.45,-124.28 465.56,-124.84"/>
<polygon fill="#000000" fill-opacity="0.200000" stroke="#000000" stroke-width="2" stroke-opacity="0.200000" points="465.78,-126.97 471.93,-125.35 466.12,-122.78 465.78,-126.97"/>
</g>
<!-- packages/util/html/src/set&#45;components&#45;to&#45;element.ts&#45;&gt;packages/util/stdlib/src/array&#45;of&#45;array/array&#45;of&#45;array.ts -->
<g id="edge15" class="edge">
<title>packages/util/html/src/set&#45;components&#45;to&#45;element.ts&#45;&gt;packages/util/stdlib/src/array&#45;of&#45;array/array&#45;of&#45;array.ts</title>
<path fill="none" stroke="#000000" stroke-width="2" stroke-opacity="0.200000" d="M443.29,-113.37C448.06,-113.14 451,-113 451,-113 451,-113 556,-113 556,-113 556,-113 587.88,-196.76 601.23,-231.84"/>
<polygon fill="#000000" fill-opacity="0.200000" stroke="#000000" stroke-width="2" stroke-opacity="0.200000" points="599.4,-232.93 603.49,-237.79 603.32,-231.44 599.4,-232.93"/>
</g>
<!-- packages/util/stdlib/src/array&#45;of&#45;array/to&#45;array.ts -->
<g id="node11" class="node">
<title>packages/util/stdlib/src/array&#45;of&#45;array/to&#45;array.ts</title>
<g id="a_node11"><a xlink:href="packages/util/stdlib/src/array-of-array/to-array.ts" xlink:title="to&#45;array.ts">
<path fill="#ddfeff" stroke="black" d="M531,-256C531,-256 481,-256 481,-256 478,-256 475,-253 475,-250 475,-250 475,-244 475,-244 475,-241 478,-238 481,-238 481,-238 531,-238 531,-238 534,-238 537,-241 537,-244 537,-244 537,-250 537,-250 537,-253 534,-256 531,-256"/>
<text text-anchor="start" x="483" y="-244.8" font-family="Helvetica,sans-Serif" font-size="9.00">to&#45;array.ts</text>
</a>
</g>
</g>
<!-- packages/util/html/src/set&#45;components&#45;to&#45;element.ts&#45;&gt;packages/util/stdlib/src/array&#45;of&#45;array/to&#45;array.ts -->
<g id="edge16" class="edge">
<title>packages/util/html/src/set&#45;components&#45;to&#45;element.ts&#45;&gt;packages/util/stdlib/src/array&#45;of&#45;array/to&#45;array.ts</title>
<path fill="none" stroke="#000000" stroke-width="2" stroke-opacity="0.200000" d="M377.39,-126.35C401.37,-149.02 462.71,-207.01 490.69,-233.47"/>
<polygon fill="#000000" fill-opacity="0.200000" stroke="#000000" stroke-width="2" stroke-opacity="0.200000" points="489.4,-235.14 495.2,-237.74 492.28,-232.09 489.4,-235.14"/>
</g>
<!-- packages/util/html/src/index.ts -->
<g id="node9" class="node">
<title>packages/util/html/src/index.ts</title>
<g id="a_node9"><a xlink:href="packages/util/html/src/index.ts" xlink:title="index.ts">
<path fill="#ddfeff" stroke="black" d="M169,-124C169,-124 127,-124 127,-124 124,-124 121,-121 121,-118 121,-118 121,-112 121,-112 121,-109 124,-106 127,-106 127,-106 169,-106 169,-106 172,-106 175,-109 175,-112 175,-112 175,-118 175,-118 175,-121 172,-124 169,-124"/>
<text text-anchor="start" x="129.5" y="-112.8" font-family="Helvetica,sans-Serif" font-size="9.00">index.ts</text>
</a>
</g>
</g>
<!-- packages/util/html/src/index.ts&#45;&gt;packages/util/html/src/attribute.ts -->
<g id="edge9" class="edge">
<title>packages/util/html/src/index.ts&#45;&gt;packages/util/html/src/attribute.ts</title>
<path fill="none" stroke="#000000" stroke-width="2" stroke-opacity="0.200000" d="M175.19,-112.59C215.97,-108.83 290,-102 290,-102 290,-102 443,-102 443,-102 443,-102 461.11,-109.59 477.76,-116.57"/>
<polygon fill="#000000" fill-opacity="0.200000" stroke="#000000" stroke-width="2" stroke-opacity="0.200000" points="476.97,-118.52 483.32,-118.91 478.59,-114.65 476.97,-118.52"/>
</g>
<!-- packages/util/html/src/index.ts&#45;&gt;packages/util/html/src/html&#45;element.ts -->
<g id="edge10" class="edge">
<title>packages/util/html/src/index.ts&#45;&gt;packages/util/html/src/html&#45;element.ts</title>
<path fill="none" stroke="#000000" stroke-width="2" stroke-opacity="0.200000" d="M175.1,-106.14C182.63,-103.59 190.93,-100.77 198.8,-98.1"/>
<polygon fill="#000000" fill-opacity="0.200000" stroke="#000000" stroke-width="2" stroke-opacity="0.200000" points="205.39,-98.08 199.03,-98.02 204.04,-94.1 205.39,-98.08"/>
</g>
<!-- packages/util/html/src/index.ts&#45;&gt;packages/util/stdlib/src/array&#45;of&#45;array/array&#45;of&#45;array.ts -->
<g id="edge12" class="edge">
<title>packages/util/html/src/index.ts&#45;&gt;packages/util/stdlib/src/array&#45;of&#45;array/array&#45;of&#45;array.ts</title>
<path fill="none" stroke="#000000" stroke-width="2" stroke-opacity="0.200000" d="M164.72,-124.07C170.2,-127.23 175,-130 175,-130 175,-130 188,-163 188,-163 188,-163 290,-207 290,-207 290,-207 451,-262 451,-262 451,-262 556,-262 556,-262 556,-262 562.22,-260.17 570.31,-257.79"/>
<polygon fill="#000000" fill-opacity="0.200000" stroke="#000000" stroke-width="2" stroke-opacity="0.200000" points="570.99,-259.78 576.16,-256.07 569.81,-255.75 570.99,-259.78"/>
</g>
<!-- packages/util/html/src/index.ts&#45;&gt;packages/util/html/src/svg&#45;element.ts -->
<g id="edge11" class="edge">
<title>packages/util/html/src/index.ts&#45;&gt;packages/util/html/src/svg&#45;element.ts</title>
<path fill="none" stroke="#000000" stroke-width="2" stroke-opacity="0.200000" d="M175.1,-120.06C178.23,-120.67 181.49,-121.3 184.8,-121.94"/>
<polygon fill="#000000" fill-opacity="0.200000" stroke="#000000" stroke-width="2" stroke-opacity="0.200000" points="190.39,-125.17 184.9,-121.96 191.19,-121.04 190.39,-125.17"/>
</g>
<!-- packages/util/html/src/index.ts&#45;&gt;packages/util/stdlib/src/array&#45;of&#45;array/to&#45;array.ts -->
<g id="edge13" class="edge">
<title>packages/util/html/src/index.ts&#45;&gt;packages/util/stdlib/src/array&#45;of&#45;array/to&#45;array.ts</title>
<path fill="none" stroke="#000000" stroke-width="2" stroke-opacity="0.200000" d="M164.72,-124.07C170.2,-127.23 175,-130 175,-130 175,-130 188,-146 188,-146 188,-146 388.21,-209.79 470.41,-235.98"/>
<polygon fill="#000000" fill-opacity="0.200000" stroke="#000000" stroke-width="2" stroke-opacity="0.200000" points="470.24,-238.13 476.59,-237.95 471.51,-234.13 470.24,-238.13"/>
</g>
<!-- packages/util/html/src/svg&#45;element.ts&#45;&gt;packages/util/html/src/attribute.ts -->
<g id="edge17" class="edge">
<title>packages/util/html/src/svg&#45;element.ts&#45;&gt;packages/util/html/src/attribute.ts</title>
<path fill="none" stroke="#000000" stroke-width="2" stroke-opacity="0.200000" d="M274.26,-131.72C283.17,-131.88 290,-132 290,-132 290,-132 443,-132 443,-132 443,-132 453.4,-131.33 465.68,-130.54"/>
<polygon fill="#000000" fill-opacity="0.200000" stroke="#000000" stroke-width="2" stroke-opacity="0.200000" points="465.97,-132.62 471.82,-130.14 465.7,-128.43 465.97,-132.62"/>
</g>
<!-- packages/util/html/src/svg&#45;element.ts&#45;&gt;packages/util/html/src/set&#45;components&#45;to&#45;element.ts -->
<g id="edge18" class="edge">
<title>packages/util/html/src/svg&#45;element.ts&#45;&gt;packages/util/html/src/set&#45;components&#45;to&#45;element.ts</title>
<path fill="none" stroke="#000000" stroke-width="2" stroke-opacity="0.200000" d="M274.18,-126.69C277.15,-126.37 280.2,-126.05 283.3,-125.72"/>
<polygon fill="#000000" fill-opacity="0.200000" stroke="#000000" stroke-width="2" stroke-opacity="0.200000" points="283.98,-127.76 289.72,-125.04 283.54,-123.58 283.98,-127.76"/>
</g>
<!-- packages/util/html/src/svg&#45;element.ts&#45;&gt;packages/util/stdlib/src/array&#45;of&#45;array/array&#45;of&#45;array.ts -->
<g id="edge19" class="edge">
<title>packages/util/html/src/svg&#45;element.ts&#45;&gt;packages/util/stdlib/src/array&#45;of&#45;array/array&#45;of&#45;array.ts</title>
<path fill="none" stroke="#000000" stroke-width="2" stroke-opacity="0.200000" d="M251.07,-121.98C267.65,-113.47 290,-102 290,-102 290,-102 443,-102 443,-102 443,-102 556,-110 556,-110 556,-110 588.15,-196.35 601.39,-231.94"/>
<polygon fill="#000000" fill-opacity="0.200000" stroke="#000000" stroke-width="2" stroke-opacity="0.200000" points="599.43,-232.69 603.49,-237.58 603.37,-231.23 599.43,-232.69"/>
</g>
<!-- packages/util/stdlib/src/array&#45;of&#45;array/to&#45;array.ts&#45;&gt;packages/util/stdlib/src/array&#45;of&#45;array/array&#45;of&#45;array.ts -->
<g id="edge23" class="edge">
<title>packages/util/stdlib/src/array&#45;of&#45;array/to&#45;array.ts&#45;&gt;packages/util/stdlib/src/array&#45;of&#45;array/array&#45;of&#45;array.ts</title>
<path fill="none" stroke="#000000" stroke-width="2" stroke-opacity="0.200000" d="M537,-247C543.43,-247 550.39,-247 557.34,-247"/>
<polygon fill="#000000" fill-opacity="0.200000" stroke="#000000" stroke-width="2" stroke-opacity="0.200000" points="557.71,-249.1 563.71,-247 557.71,-244.9 557.71,-249.1"/>
</g>
</g>
</svg>
