<?xml version="1.0" encoding="UTF-8" standalone="no"?>
<!DOCTYPE svg PUBLIC "-//W3C//DTD SVG 1.1//EN"
 "http://www.w3.org/Graphics/SVG/1.1/DTD/svg11.dtd">
<!-- Generated by graphviz version 2.43.0 (0)
 -->
<!-- Title: dependency&#45;cruiser output Pages: 1 -->
<svg width="576pt" height="344pt"
 viewBox="0.00 0.00 576.00 344.00" xmlns="http://www.w3.org/2000/svg" xmlns:xlink="http://www.w3.org/1999/xlink">
<g id="graph0" class="graph" transform="scale(1 1) rotate(0) translate(4 340)">
<title>dependency&#45;cruiser output</title>
<polygon fill="white" stroke="transparent" points="-4,4 -4,-340 572,-340 572,4 -4,4"/>
<g id="clust1" class="cluster">
<title>cluster_packages</title>
<path fill="#ffffff" stroke="black" stroke-width="2" d="M20,-8C20,-8 548,-8 548,-8 554,-8 560,-14 560,-20 560,-20 560,-316 560,-316 560,-322 554,-328 548,-328 548,-328 20,-328 20,-328 14,-328 8,-322 8,-316 8,-316 8,-20 8,-20 8,-14 14,-8 20,-8"/>
<text text-anchor="middle" x="284" y="-316.8" font-family="Helvetica,sans-Serif" font-weight="bold" font-size="9.00">packages</text>
</g>
<g id="clust2" class="cluster">
<title>cluster_packages/util</title>
<path fill="#ffffff" stroke="black" stroke-width="2" d="M28,-16C28,-16 540,-16 540,-16 546,-16 552,-22 552,-28 552,-28 552,-290 552,-290 552,-296 546,-302 540,-302 540,-302 28,-302 28,-302 22,-302 16,-296 16,-290 16,-290 16,-28 16,-28 16,-22 22,-16 28,-16"/>
<text text-anchor="middle" x="284" y="-290.8" font-family="Helvetica,sans-Serif" font-weight="bold" font-size="9.00">util</text>
</g>
<g id="clust3" class="cluster">
<title>cluster_packages/util/html</title>
<path fill="#ffffff" stroke="black" stroke-width="2" d="M36,-24C36,-24 532,-24 532,-24 538,-24 544,-30 544,-36 544,-36 544,-170 544,-170 544,-176 538,-182 532,-182 532,-182 36,-182 36,-182 30,-182 24,-176 24,-170 24,-170 24,-36 24,-36 24,-30 30,-24 36,-24"/>
<text text-anchor="middle" x="284" y="-170.8" font-family="Helvetica,sans-Serif" font-weight="bold" font-size="9.00">html</text>
</g>
<g id="clust4" class="cluster">
<title>cluster_packages/util/html/src</title>
<path fill="#ffffff" stroke="black" stroke-width="2" d="M125,-32C125,-32 524,-32 524,-32 530,-32 536,-38 536,-44 536,-44 536,-144 536,-144 536,-150 530,-156 524,-156 524,-156 125,-156 125,-156 119,-156 113,-150 113,-144 113,-144 113,-44 113,-44 113,-38 119,-32 125,-32"/>
<text text-anchor="middle" x="324.5" y="-144.8" font-family="Helvetica,sans-Serif" font-weight="bold" font-size="9.00">src</text>
</g>
<g id="clust5" class="cluster">
<title>cluster_packages/util/stdlib</title>
<path fill="#ffffff" stroke="black" stroke-width="2" d="M463,-190C463,-190 525,-190 525,-190 531,-190 537,-196 537,-202 537,-202 537,-264 537,-264 537,-270 531,-276 525,-276 525,-276 463,-276 463,-276 457,-276 451,-270 451,-264 451,-264 451,-202 451,-202 451,-196 457,-190 463,-190"/>
<text text-anchor="middle" x="494" y="-264.8" font-family="Helvetica,sans-Serif" font-weight="bold" font-size="9.00">stdlib</text>
</g>
<g id="clust6" class="cluster">
<title>cluster_packages/util/stdlib/dist</title>
<path fill="#ffffff" stroke="black" stroke-width="2" d="M471,-198C471,-198 517,-198 517,-198 523,-198 529,-204 529,-210 529,-210 529,-238 529,-238 529,-244 523,-250 517,-250 517,-250 471,-250 471,-250 465,-250 459,-244 459,-238 459,-238 459,-210 459,-210 459,-204 465,-198 471,-198"/>
<text text-anchor="middle" x="494" y="-238.8" font-family="Helvetica,sans-Serif" font-weight="bold" font-size="9.00">dist</text>
</g>
<!-- packages/util/html/index.test.ts -->
<g id="node1" class="node">
<title>packages/util/html/index.test.ts</title>
<g id="a_node1"><a xlink:href="packages/util/html/index.test.ts" xlink:title="no&#45;orphans">
<path fill="#ccffcc" stroke="orange" d="M99,-142C99,-142 38,-142 38,-142 35,-142 32,-139 32,-136 32,-136 32,-130 32,-130 32,-127 35,-124 38,-124 38,-124 99,-124 99,-124 102,-124 105,-127 105,-130 105,-130 105,-136 105,-136 105,-139 102,-142 99,-142"/>
<text text-anchor="start" x="40" y="-130.8" font-family="Helvetica,sans-Serif" font-size="9.00" fill="orange">index.test.ts</text>
</a>
</g>
</g>
<!-- packages/util/html/index.ts -->
<g id="node2" class="node">
<title>packages/util/html/index.ts</title>
<g id="a_node2"><a xlink:href="packages/util/html/index.ts" xlink:title="index.ts">
<path fill="#ddfeff" stroke="black" d="M89.5,-84C89.5,-84 47.5,-84 47.5,-84 44.5,-84 41.5,-81 41.5,-78 41.5,-78 41.5,-72 41.5,-72 41.5,-69 44.5,-66 47.5,-66 47.5,-66 89.5,-66 89.5,-66 92.5,-66 95.5,-69 95.5,-72 95.5,-72 95.5,-78 95.5,-78 95.5,-81 92.5,-84 89.5,-84"/>
<text text-anchor="start" x="50" y="-72.8" font-family="Helvetica,sans-Serif" font-size="9.00">index.ts</text>
</a>
</g>
</g>
<!-- packages/util/html/src/html.ts -->
<g id="node3" class="node">
<title>packages/util/html/src/html.ts</title>
<g id="a_node3"><a xlink:href="packages/util/html/src/html.ts" xlink:title="html.ts">
<path fill="#ddfeff" stroke="black" d="M169,-70C169,-70 127,-70 127,-70 124,-70 121,-67 121,-64 121,-64 121,-58 121,-58 121,-55 124,-52 127,-52 127,-52 169,-52 169,-52 172,-52 175,-55 175,-58 175,-58 175,-64 175,-64 175,-67 172,-70 169,-70"/>
<text text-anchor="start" x="131.5" y="-58.8" font-family="Helvetica,sans-Serif" font-size="9.00">html.ts</text>
</a>
</g>
</g>
<!-- packages/util/html/index.ts&#45;&gt;packages/util/html/src/html.ts -->
<g id="edge1" class="edge">
<title>packages/util/html/index.ts&#45;&gt;packages/util/html/src/html.ts</title>
<path fill="none" stroke="#000000" stroke-width="2" stroke-opacity="0.200000" d="M95.74,-70.26C101.8,-69.17 108.32,-67.99 114.6,-66.85"/>
<polygon fill="#000000" fill-opacity="0.200000" stroke="#000000" stroke-width="2" stroke-opacity="0.200000" points="121.16,-67.8 114.88,-66.8 120.42,-63.67 121.16,-67.8"/>
</g>
<!-- packages/util/html/src/svg.ts -->
<g id="node4" class="node">
<title>packages/util/html/src/svg.ts</title>
<g id="a_node4"><a xlink:href="packages/util/html/src/svg.ts" xlink:title="svg.ts">
<path fill="#ddfeff" stroke="black" d="M169,-130C169,-130 127,-130 127,-130 124,-130 121,-127 121,-124 121,-124 121,-118 121,-118 121,-115 124,-112 127,-112 127,-112 169,-112 169,-112 172,-112 175,-115 175,-118 175,-118 175,-124 175,-124 175,-127 172,-130 169,-130"/>
<text text-anchor="start" x="134" y="-118.8" font-family="Helvetica,sans-Serif" font-size="9.00">svg.ts</text>
</a>
</g>
</g>
<!-- packages/util/html/index.ts&#45;&gt;packages/util/html/src/svg.ts -->
<g id="edge2" class="edge">
<title>packages/util/html/index.ts&#45;&gt;packages/util/html/src/svg.ts</title>
<path fill="none" stroke="#000000" stroke-width="2" stroke-opacity="0.200000" d="M80.89,-84.09C89.42,-90.66 101.55,-99.49 113,-106 114.97,-107.12 117.03,-108.21 119.13,-109.27"/>
<polygon fill="#000000" fill-opacity="0.200000" stroke="#000000" stroke-width="2" stroke-opacity="0.200000" points="123.82,-113.85 119.32,-109.36 125.64,-110.06 123.82,-113.85"/>
</g>
<!-- packages/util/html/src/attribute.ts -->
<g id="node5" class="node">
<title>packages/util/html/src/attribute.ts</title>
<g id="a_node5"><a xlink:href="packages/util/html/src/attribute.ts" xlink:title="attribute.ts">
<path fill="#ddfeff" stroke="black" d="M522,-90C522,-90 466,-90 466,-90 463,-90 460,-87 460,-84 460,-84 460,-78 460,-78 460,-75 463,-72 466,-72 466,-72 522,-72 522,-72 525,-72 528,-75 528,-78 528,-78 528,-84 528,-84 528,-87 525,-90 522,-90"/>
<text text-anchor="start" x="468" y="-78.8" font-family="Helvetica,sans-Serif" font-size="9.00">attribute.ts</text>
</a>
</g>
</g>
<!-- packages/util/html/src/html.ts&#45;&gt;packages/util/html/src/attribute.ts -->
<g id="edge6" class="edge">
<title>packages/util/html/src/html.ts&#45;&gt;packages/util/html/src/attribute.ts</title>
<path fill="none" stroke="#000000" stroke-width="2" stroke-opacity="0.200000" d="M175.26,-53.31C179.49,-52.35 183.84,-51.52 188,-51 226.04,-46.2 415.89,-44.62 443,-52 454.98,-55.26 467.06,-62.14 476.34,-68.39"/>
<polygon fill="#000000" fill-opacity="0.200000" stroke="#000000" stroke-width="2" stroke-opacity="0.200000" points="475.34,-70.25 481.46,-71.95 477.74,-66.8 475.34,-70.25"/>
</g>
<!-- packages/util/html/src/html&#45;element.ts -->
<g id="node6" class="node">
<title>packages/util/html/src/html&#45;element.ts</title>
<g id="a_node6"><a xlink:href="packages/util/html/src/html-element.ts" xlink:title="html&#45;element.ts">
<path fill="#ddfeff" stroke="black" d="M271,-86C271,-86 194,-86 194,-86 191,-86 188,-83 188,-80 188,-80 188,-74 188,-74 188,-71 191,-68 194,-68 194,-68 271,-68 271,-68 274,-68 277,-71 277,-74 277,-74 277,-80 277,-80 277,-83 274,-86 271,-86"/>
<text text-anchor="start" x="196" y="-74.8" font-family="Helvetica,sans-Serif" font-size="9.00">html&#45;element.ts</text>
</a>
</g>
</g>
<!-- packages/util/html/src/html.ts&#45;&gt;packages/util/html/src/html&#45;element.ts -->
<g id="edge7" class="edge">
<title>packages/util/html/src/html.ts&#45;&gt;packages/util/html/src/html&#45;element.ts</title>
<path fill="none" stroke="#000000" stroke-width="2" stroke-opacity="0.200000" d="M175.1,-66.06C177.26,-66.48 179.48,-66.91 181.74,-67.35"/>
<polygon fill="#000000" fill-opacity="0.200000" stroke="#000000" stroke-width="2" stroke-opacity="0.200000" points="181.48,-69.44 187.77,-68.52 182.28,-65.32 181.48,-69.44"/>
</g>
<!-- packages/util/stdlib/dist/index.js -->
<g id="node8" class="node">
<title>packages/util/stdlib/dist/index.js</title>
<g id="a_node8"><a xlink:href="packages/util/stdlib/dist/index.js" xlink:title="index.js">
<polygon fill="#ffffcc" stroke="black" points="521,-224 519.5,-226 509,-226 507.5,-224 467,-224 467,-206 521,-206 521,-224"/>
<text text-anchor="start" x="476.5" y="-212.8" font-family="Helvetica,sans-Serif" font-size="9.00">index.js</text>
</a>
</g>
</g>
<!-- packages/util/html/src/html.ts&#45;&gt;packages/util/stdlib/dist/index.js -->
<g id="edge8" class="edge">
<title>packages/util/html/src/html.ts&#45;&gt;packages/util/stdlib/dist/index.js</title>
<path fill="none" stroke="#000000" stroke-width="2" stroke-opacity="0.200000" d="M168.79,-70.13C171.12,-71.83 173.27,-73.78 175,-76 188.05,-92.76 174.39,-105.69 188,-122 263.83,-212.91 328.07,-170.61 443,-199 448.91,-200.46 455.13,-202.24 461.11,-204.09"/>
<polygon fill="#000000" fill-opacity="0.200000" stroke="#000000" stroke-width="2" stroke-opacity="0.200000" points="460.63,-206.14 466.98,-205.94 461.89,-202.13 460.63,-206.14"/>
</g>
<!-- packages/util/html/src/svg.ts&#45;&gt;packages/util/html/src/attribute.ts -->
<g id="edge18" class="edge">
<title>packages/util/html/src/svg.ts&#45;&gt;packages/util/html/src/attribute.ts</title>
<path fill="none" stroke="#000000" stroke-width="2" stroke-opacity="0.200000" d="M175.05,-125.67C227.44,-133.98 348.62,-147.64 443,-116 456.52,-111.47 469.64,-102.03 479.04,-94.1"/>
<polygon fill="#000000" fill-opacity="0.200000" stroke="#000000" stroke-width="2" stroke-opacity="0.200000" points="480.46,-95.65 483.61,-90.12 477.7,-92.48 480.46,-95.65"/>
</g>
<!-- packages/util/html/src/svg.ts&#45;&gt;packages/util/stdlib/dist/index.js -->
<g id="edge20" class="edge">
<title>packages/util/html/src/svg.ts&#45;&gt;packages/util/stdlib/dist/index.js</title>
<path fill="none" stroke="#000000" stroke-width="2" stroke-opacity="0.200000" d="M150.22,-130.25C153.12,-148.09 162.23,-186.98 188,-204 272.63,-259.91 401.23,-238.35 460.73,-223.92"/>
<polygon fill="#000000" fill-opacity="0.200000" stroke="#000000" stroke-width="2" stroke-opacity="0.200000" points="461.29,-225.95 466.61,-222.47 460.28,-221.87 461.29,-225.95"/>
</g>
<!-- packages/util/html/src/svg&#45;element.ts -->
<g id="node10" class="node">
<title>packages/util/html/src/svg&#45;element.ts</title>
<g id="a_node10"><a xlink:href="packages/util/html/src/svg-element.ts" xlink:title="svg&#45;element.ts">
<path fill="#ddfeff" stroke="black" d="M268,-116C268,-116 197,-116 197,-116 194,-116 191,-113 191,-110 191,-110 191,-104 191,-104 191,-101 194,-98 197,-98 197,-98 268,-98 268,-98 271,-98 274,-101 274,-104 274,-104 274,-110 274,-110 274,-113 271,-116 268,-116"/>
<text text-anchor="start" x="199" y="-104.8" font-family="Helvetica,sans-Serif" font-size="9.00">svg&#45;element.ts</text>
</a>
</g>
</g>
<!-- packages/util/html/src/svg.ts&#45;&gt;packages/util/html/src/svg&#45;element.ts -->
<g id="edge19" class="edge">
<title>packages/util/html/src/svg.ts&#45;&gt;packages/util/html/src/svg&#45;element.ts</title>
<path fill="none" stroke="#000000" stroke-width="2" stroke-opacity="0.200000" d="M175.1,-116.57C178.23,-116.04 181.49,-115.49 184.8,-114.92"/>
<polygon fill="#000000" fill-opacity="0.200000" stroke="#000000" stroke-width="2" stroke-opacity="0.200000" points="185.23,-116.98 190.79,-113.91 184.53,-112.84 185.23,-116.98"/>
</g>
<!-- packages/util/html/src/html&#45;element.ts&#45;&gt;packages/util/html/src/attribute.ts -->
<g id="edge3" class="edge">
<title>packages/util/html/src/html&#45;element.ts&#45;&gt;packages/util/html/src/attribute.ts</title>
<path fill="none" stroke="#000000" stroke-width="2" stroke-opacity="0.200000" d="M277.26,-75.98C319.65,-75.24 385.76,-74.71 443,-77 446.51,-77.14 450.16,-77.34 453.81,-77.57"/>
<polygon fill="#000000" fill-opacity="0.200000" stroke="#000000" stroke-width="2" stroke-opacity="0.200000" points="453.81,-79.67 459.94,-77.98 454.1,-75.48 453.81,-79.67"/>
</g>
<!-- packages/util/html/src/set&#45;components&#45;to&#45;element.ts -->
<g id="node7" class="node">
<title>packages/util/html/src/set&#45;components&#45;to&#45;element.ts</title>
<g id="a_node7"><a xlink:href="packages/util/html/src/set-components-to-element.ts" xlink:title="set&#45;components&#45;to&#45;element.ts">
<path fill="#ddfeff" stroke="black" d="M437,-101C437,-101 296,-101 296,-101 293,-101 290,-98 290,-95 290,-95 290,-89 290,-89 290,-86 293,-83 296,-83 296,-83 437,-83 437,-83 440,-83 443,-86 443,-89 443,-89 443,-95 443,-95 443,-98 440,-101 437,-101"/>
<text text-anchor="start" x="298" y="-89.8" font-family="Helvetica,sans-Serif" font-size="9.00">set&#45;components&#45;to&#45;element.ts</text>
</a>
</g>
</g>
<!-- packages/util/html/src/html&#45;element.ts&#45;&gt;packages/util/html/src/set&#45;components&#45;to&#45;element.ts -->
<g id="edge4" class="edge">
<title>packages/util/html/src/html&#45;element.ts&#45;&gt;packages/util/html/src/set&#45;components&#45;to&#45;element.ts</title>
<path fill="none" stroke="#000000" stroke-width="2" stroke-opacity="0.200000" d="M277.09,-81.95C279.12,-82.18 281.17,-82.42 283.26,-82.65"/>
<polygon fill="#000000" fill-opacity="0.200000" stroke="#000000" stroke-width="2" stroke-opacity="0.200000" points="283.37,-84.78 289.57,-83.37 283.84,-80.61 283.37,-84.78"/>
</g>
<!-- packages/util/html/src/html&#45;element.ts&#45;&gt;packages/util/stdlib/dist/index.js -->
<g id="edge5" class="edge">
<title>packages/util/html/src/html&#45;element.ts&#45;&gt;packages/util/stdlib/dist/index.js</title>
<path fill="none" stroke="#000000" stroke-width="2" stroke-opacity="0.200000" d="M266.24,-86.16C270.01,-87.83 273.69,-89.76 277,-92 284.31,-96.94 282.64,-102.14 290,-107 349.59,-146.33 383.62,-116.34 443,-156 460.39,-167.61 475.13,-186.94 484,-200.29"/>
<polygon fill="#000000" fill-opacity="0.200000" stroke="#000000" stroke-width="2" stroke-opacity="0.200000" points="482.42,-201.7 487.44,-205.6 485.95,-199.42 482.42,-201.7"/>
</g>
<!-- packages/util/html/src/set&#45;components&#45;to&#45;element.ts&#45;&gt;packages/util/html/src/attribute.ts -->
<g id="edge13" class="edge">
<title>packages/util/html/src/set&#45;components&#45;to&#45;element.ts&#45;&gt;packages/util/html/src/attribute.ts</title>
<path fill="none" stroke="#000000" stroke-width="2" stroke-opacity="0.200000" d="M443.04,-85.38C446.67,-85.06 450.25,-84.75 453.71,-84.44"/>
<polygon fill="#000000" fill-opacity="0.200000" stroke="#000000" stroke-width="2" stroke-opacity="0.200000" points="454.02,-86.52 459.81,-83.91 453.65,-82.34 454.02,-86.52"/>
</g>
<!-- packages/util/html/src/set&#45;components&#45;to&#45;element.ts&#45;&gt;packages/util/stdlib/dist/index.js -->
<g id="edge14" class="edge">
<title>packages/util/html/src/set&#45;components&#45;to&#45;element.ts&#45;&gt;packages/util/stdlib/dist/index.js</title>
<path fill="none" stroke="#000000" stroke-width="2" stroke-opacity="0.200000" d="M383.21,-101.13C399.41,-111.05 424.81,-128.04 443,-147 447.44,-151.63 447.3,-153.77 451,-159 461.35,-173.63 473.71,-189.98 482.33,-201.22"/>
<polygon fill="#000000" fill-opacity="0.200000" stroke="#000000" stroke-width="2" stroke-opacity="0.200000" points="480.68,-202.52 486,-206 484.01,-199.96 480.68,-202.52"/>
</g>
<!-- packages/util/html/src/index.ts -->
<g id="node9" class="node">
<title>packages/util/html/src/index.ts</title>
<g id="a_node9"><a xlink:href="packages/util/html/src/index.ts" xlink:title="index.ts">
<path fill="#ddfeff" stroke="black" d="M169,-100C169,-100 127,-100 127,-100 124,-100 121,-97 121,-94 121,-94 121,-88 121,-88 121,-85 124,-82 127,-82 127,-82 169,-82 169,-82 172,-82 175,-85 175,-88 175,-88 175,-94 175,-94 175,-97 172,-100 169,-100"/>
<text text-anchor="start" x="129.5" y="-88.8" font-family="Helvetica,sans-Serif" font-size="9.00">index.ts</text>
</a>
</g>
</g>
<!-- packages/util/html/src/index.ts&#45;&gt;packages/util/html/src/attribute.ts -->
<g id="edge9" class="edge">
<title>packages/util/html/src/index.ts&#45;&gt;packages/util/html/src/attribute.ts</title>
<path fill="none" stroke="#000000" stroke-width="2" stroke-opacity="0.200000" d="M166.54,-81.85C169.46,-80.06 172.39,-78.08 175,-76 181.64,-70.71 180.22,-65.39 188,-62 234.56,-41.7 382.09,-62.39 453.51,-74.12"/>
<polygon fill="#000000" fill-opacity="0.200000" stroke="#000000" stroke-width="2" stroke-opacity="0.200000" points="453.5,-76.24 459.76,-75.15 454.18,-72.1 453.5,-76.24"/>
</g>
<!-- packages/util/html/src/index.ts&#45;&gt;packages/util/html/src/html&#45;element.ts -->
<g id="edge10" class="edge">
<title>packages/util/html/src/index.ts&#45;&gt;packages/util/html/src/html&#45;element.ts</title>
<path fill="none" stroke="#000000" stroke-width="2" stroke-opacity="0.200000" d="M175.1,-86.57C177.26,-86.2 179.48,-85.83 181.74,-85.44"/>
<polygon fill="#000000" fill-opacity="0.200000" stroke="#000000" stroke-width="2" stroke-opacity="0.200000" points="188.13,-86.49 181.86,-85.42 187.42,-82.35 188.13,-86.49"/>
</g>
<!-- packages/util/html/src/index.ts&#45;&gt;packages/util/stdlib/dist/index.js -->
<g id="edge12" class="edge">
<title>packages/util/html/src/index.ts&#45;&gt;packages/util/stdlib/dist/index.js</title>
<path fill="none" stroke="#000000" stroke-width="2" stroke-opacity="0.200000" d="M169.3,-100.14C171.48,-101.82 173.47,-103.77 175,-106 196.13,-136.79 160.69,-163.54 188,-189 197.88,-198.21 384.39,-209.19 460.78,-213.32"/>
<polygon fill="#000000" fill-opacity="0.200000" stroke="#000000" stroke-width="2" stroke-opacity="0.200000" points="460.86,-215.42 466.96,-213.65 461.08,-211.23 460.86,-215.42"/>
</g>
<!-- packages/util/html/src/index.ts&#45;&gt;packages/util/html/src/svg&#45;element.ts -->
<g id="edge11" class="edge">
<title>packages/util/html/src/index.ts&#45;&gt;packages/util/html/src/svg&#45;element.ts</title>
<path fill="none" stroke="#000000" stroke-width="2" stroke-opacity="0.200000" d="M175.1,-96.06C178.23,-96.67 181.49,-97.3 184.8,-97.94"/>
<polygon fill="#000000" fill-opacity="0.200000" stroke="#000000" stroke-width="2" stroke-opacity="0.200000" points="190.39,-101.17 184.9,-97.96 191.19,-97.04 190.39,-101.17"/>
</g>
<!-- packages/util/html/src/svg&#45;element.ts&#45;&gt;packages/util/html/src/attribute.ts -->
<g id="edge15" class="edge">
<title>packages/util/html/src/svg&#45;element.ts&#45;&gt;packages/util/html/src/attribute.ts</title>
<path fill="none" stroke="#000000" stroke-width="2" stroke-opacity="0.200000" d="M274.34,-112.66C317.07,-117.28 385.76,-120.99 443,-107 454.02,-104.31 465.31,-98.72 474.37,-93.41"/>
<polygon fill="#000000" fill-opacity="0.200000" stroke="#000000" stroke-width="2" stroke-opacity="0.200000" points="475.66,-95.08 479.7,-90.17 473.48,-91.5 475.66,-95.08"/>
</g>
<!-- packages/util/html/src/svg&#45;element.ts&#45;&gt;packages/util/html/src/set&#45;components&#45;to&#45;element.ts -->
<g id="edge16" class="edge">
<title>packages/util/html/src/svg&#45;element.ts&#45;&gt;packages/util/html/src/set&#45;components&#45;to&#45;element.ts</title>
<path fill="none" stroke="#000000" stroke-width="2" stroke-opacity="0.200000" d="M274.18,-102.38C277.15,-102.04 280.2,-101.69 283.3,-101.34"/>
<polygon fill="#000000" fill-opacity="0.200000" stroke="#000000" stroke-width="2" stroke-opacity="0.200000" points="284,-103.38 289.72,-100.61 283.52,-99.2 284,-103.38"/>
</g>
<!-- packages/util/html/src/svg&#45;element.ts&#45;&gt;packages/util/stdlib/dist/index.js -->
<g id="edge17" class="edge">
<title>packages/util/html/src/svg&#45;element.ts&#45;&gt;packages/util/stdlib/dist/index.js</title>
<path fill="none" stroke="#000000" stroke-width="2" stroke-opacity="0.200000" d="M241.28,-116.09C251.33,-127.19 269.94,-145.65 290,-155 352.51,-184.15 379.02,-155.24 443,-181 455.65,-186.09 468.34,-194.78 477.77,-202.09"/>
<polygon fill="#000000" fill-opacity="0.200000" stroke="#000000" stroke-width="2" stroke-opacity="0.200000" points="476.65,-203.89 482.65,-205.98 479.27,-200.6 476.65,-203.89"/>
</g>
</g>
</svg>
