<?xml version="1.0" encoding="UTF-8" standalone="no"?>
<!DOCTYPE svg PUBLIC "-//W3C//DTD SVG 1.1//EN"
 "http://www.w3.org/Graphics/SVG/1.1/DTD/svg11.dtd">
<!-- Generated by graphviz version 2.43.0 (0)
 -->
<!-- Title: dependency&#45;cruiser output Pages: 1 -->
<svg width="579pt" height="358pt"
 viewBox="0.00 0.00 579.00 358.00" xmlns="http://www.w3.org/2000/svg" xmlns:xlink="http://www.w3.org/1999/xlink">
<g id="graph0" class="graph" transform="scale(1 1) rotate(0) translate(4 354)">
<title>dependency&#45;cruiser output</title>
<polygon fill="white" stroke="transparent" points="-4,4 -4,-354 575,-354 575,4 -4,4"/>
<g id="clust1" class="cluster">
<title>cluster_packages</title>
<path fill="#ffffff" stroke="black" stroke-width="2" d="M20,-8C20,-8 551,-8 551,-8 557,-8 563,-14 563,-20 563,-20 563,-330 563,-330 563,-336 557,-342 551,-342 551,-342 20,-342 20,-342 14,-342 8,-336 8,-330 8,-330 8,-20 8,-20 8,-14 14,-8 20,-8"/>
<text text-anchor="middle" x="285.5" y="-330.8" font-family="Helvetica,sans-Serif" font-weight="bold" font-size="9.00">packages</text>
</g>
<g id="clust2" class="cluster">
<title>cluster_packages/util</title>
<path fill="#ffffff" stroke="black" stroke-width="2" d="M28,-16C28,-16 543,-16 543,-16 549,-16 555,-22 555,-28 555,-28 555,-304 555,-304 555,-310 549,-316 543,-316 543,-316 28,-316 28,-316 22,-316 16,-310 16,-304 16,-304 16,-28 16,-28 16,-22 22,-16 28,-16"/>
<text text-anchor="middle" x="285.5" y="-304.8" font-family="Helvetica,sans-Serif" font-weight="bold" font-size="9.00">util</text>
</g>
<g id="clust3" class="cluster">
<title>cluster_packages/util/html</title>
<path fill="#ffffff" stroke="black" stroke-width="2" d="M36,-24C36,-24 535,-24 535,-24 541,-24 547,-30 547,-36 547,-36 547,-184 547,-184 547,-190 541,-196 535,-196 535,-196 36,-196 36,-196 30,-196 24,-190 24,-184 24,-184 24,-36 24,-36 24,-30 30,-24 36,-24"/>
<text text-anchor="middle" x="285.5" y="-184.8" font-family="Helvetica,sans-Serif" font-weight="bold" font-size="9.00">html</text>
</g>
<g id="clust4" class="cluster">
<title>cluster_packages/util/html/dist</title>
<path fill="#ffffff" stroke="black" stroke-width="2" d="M44,-88C44,-88 96,-88 96,-88 102,-88 108,-94 108,-100 108,-100 108,-158 108,-158 108,-164 102,-170 96,-170 96,-170 44,-170 44,-170 38,-170 32,-164 32,-158 32,-158 32,-100 32,-100 32,-94 38,-88 44,-88"/>
<text text-anchor="middle" x="70" y="-158.8" font-family="Helvetica,sans-Serif" font-weight="bold" font-size="9.00">dist</text>
</g>
<g id="clust5" class="cluster">
<title>cluster_packages/util/html/src</title>
<path fill="#ffffff" stroke="black" stroke-width="2" d="M128,-46C128,-46 527,-46 527,-46 533,-46 539,-52 539,-58 539,-58 539,-158 539,-158 539,-164 533,-170 527,-170 527,-170 128,-170 128,-170 122,-170 116,-164 116,-158 116,-158 116,-58 116,-58 116,-52 122,-46 128,-46"/>
<text text-anchor="middle" x="327.5" y="-158.8" font-family="Helvetica,sans-Serif" font-weight="bold" font-size="9.00">src</text>
</g>
<g id="clust6" class="cluster">
<title>cluster_packages/util/stdlib</title>
<path fill="#ffffff" stroke="black" stroke-width="2" d="M466,-204C466,-204 528,-204 528,-204 534,-204 540,-210 540,-216 540,-216 540,-278 540,-278 540,-284 534,-290 528,-290 528,-290 466,-290 466,-290 460,-290 454,-284 454,-278 454,-278 454,-216 454,-216 454,-210 460,-204 466,-204"/>
<text text-anchor="middle" x="497" y="-278.8" font-family="Helvetica,sans-Serif" font-weight="bold" font-size="9.00">stdlib</text>
</g>
<g id="clust7" class="cluster">
<title>cluster_packages/util/stdlib/dist</title>
<path fill="#ffffff" stroke="black" stroke-width="2" d="M474,-212C474,-212 520,-212 520,-212 526,-212 532,-218 532,-224 532,-224 532,-252 532,-252 532,-258 526,-264 520,-264 520,-264 474,-264 474,-264 468,-264 462,-258 462,-252 462,-252 462,-224 462,-224 462,-218 468,-212 474,-212"/>
<text text-anchor="middle" x="497" y="-252.8" font-family="Helvetica,sans-Serif" font-weight="bold" font-size="9.00">dist</text>
</g>
<!-- packages/util/html/dist/index.js -->
<g id="node1" class="node">
<title>packages/util/html/dist/index.js</title>
<g id="a_node1"><a xlink:href="packages/util/html/dist/index.js" xlink:title="index.js">
<path fill="#ffffcc" stroke="black" d="M91,-144C91,-144 49,-144 49,-144 46,-144 43,-141 43,-138 43,-138 43,-132 43,-132 43,-129 46,-126 49,-126 49,-126 91,-126 91,-126 94,-126 97,-129 97,-132 97,-132 97,-138 97,-138 97,-141 94,-144 91,-144"/>
<text text-anchor="start" x="52.5" y="-132.8" font-family="Helvetica,sans-Serif" font-size="9.00">index.js</text>
</a>
</g>
</g>
<!-- packages/util/stdlib/dist/index.js -->
<g id="node2" class="node">
<title>packages/util/stdlib/dist/index.js</title>
<g id="a_node2"><a xlink:href="packages/util/stdlib/dist/index.js" xlink:title="index.js">
<path fill="#ffffcc" stroke="black" d="M518,-238C518,-238 476,-238 476,-238 473,-238 470,-235 470,-232 470,-232 470,-226 470,-226 470,-223 473,-220 476,-220 476,-220 518,-220 518,-220 521,-220 524,-223 524,-226 524,-226 524,-232 524,-232 524,-235 521,-238 518,-238"/>
<text text-anchor="start" x="479.5" y="-226.8" font-family="Helvetica,sans-Serif" font-size="9.00">index.js</text>
</a>
</g>
</g>
<!-- packages/util/html/dist/index.js&#45;&gt;packages/util/stdlib/dist/index.js -->
<g id="edge1" class="edge">
<title>packages/util/html/dist/index.js&#45;&gt;packages/util/stdlib/dist/index.js</title>
<path fill="none" stroke="#000000" stroke-width="2" stroke-opacity="0.200000" d="M72.1,-144.24C75.04,-164.24 85.09,-211.35 116,-231 226.52,-301.26 394.13,-261.35 463.84,-239.89"/>
<polygon fill="#000000" fill-opacity="0.200000" stroke="#000000" stroke-width="2" stroke-opacity="0.200000" points="464.78,-241.79 469.88,-238 463.52,-237.78 464.78,-241.79"/>
</g>
<!-- packages/util/html/dist/index.mjs -->
<g id="node3" class="node">
<title>packages/util/html/dist/index.mjs</title>
<g id="a_node3"><a xlink:href="packages/util/html/dist/index.mjs" xlink:title="index.mjs">
<path fill="#ffffcc" stroke="black" d="M94,-114C94,-114 46,-114 46,-114 43,-114 40,-111 40,-108 40,-108 40,-102 40,-102 40,-99 43,-96 46,-96 46,-96 94,-96 94,-96 97,-96 100,-99 100,-102 100,-102 100,-108 100,-108 100,-111 97,-114 94,-114"/>
<text text-anchor="start" x="48" y="-102.8" font-family="Helvetica,sans-Serif" font-size="9.00">index.mjs</text>
</a>
</g>
</g>
<!-- packages/util/html/dist/index.mjs&#45;&gt;packages/util/stdlib/dist/index.js -->
<g id="edge2" class="edge">
<title>packages/util/html/dist/index.mjs&#45;&gt;packages/util/stdlib/dist/index.js</title>
<path fill="none" stroke="#000000" stroke-width="2" stroke-opacity="0.200000" d="M100.15,-113.22C103.13,-115.05 105.85,-117.28 108,-120 122.75,-138.71 102.55,-153.34 116,-173 137.7,-204.71 154.18,-205.03 191,-216 286.86,-244.57 407.14,-238.08 463.74,-232.7"/>
<polygon fill="#000000" fill-opacity="0.200000" stroke="#000000" stroke-width="2" stroke-opacity="0.200000" points="464.23,-234.76 470,-232.08 463.82,-230.58 464.23,-234.76"/>
</g>
<!-- packages/util/html/index.test.ts -->
<g id="node4" class="node">
<title>packages/util/html/index.test.ts</title>
<g id="a_node4"><a xlink:href="packages/util/html/index.test.ts" xlink:title="no&#45;orphans">
<path fill="#ccffcc" stroke="orange" d="M100.5,-80C100.5,-80 39.5,-80 39.5,-80 36.5,-80 33.5,-77 33.5,-74 33.5,-74 33.5,-68 33.5,-68 33.5,-65 36.5,-62 39.5,-62 39.5,-62 100.5,-62 100.5,-62 103.5,-62 106.5,-65 106.5,-68 106.5,-68 106.5,-74 106.5,-74 106.5,-77 103.5,-80 100.5,-80"/>
<text text-anchor="start" x="41.5" y="-68.8" font-family="Helvetica,sans-Serif" font-size="9.00" fill="orange">index.test.ts</text>
</a>
</g>
</g>
<!-- packages/util/html/index.ts -->
<g id="node5" class="node">
<title>packages/util/html/index.ts</title>
<g id="a_node5"><a xlink:href="packages/util/html/index.ts" xlink:title="index.ts">
<path fill="#ddfeff" stroke="black" d="M91,-50C91,-50 49,-50 49,-50 46,-50 43,-47 43,-44 43,-44 43,-38 43,-38 43,-35 46,-32 49,-32 49,-32 91,-32 91,-32 94,-32 97,-35 97,-38 97,-38 97,-44 97,-44 97,-47 94,-50 91,-50"/>
<text text-anchor="start" x="51.5" y="-38.8" font-family="Helvetica,sans-Serif" font-size="9.00">index.ts</text>
</a>
</g>
</g>
<!-- packages/util/html/src/html.ts -->
<g id="node6" class="node">
<title>packages/util/html/src/html.ts</title>
<g id="a_node6"><a xlink:href="packages/util/html/src/html.ts" xlink:title="html.ts">
<path fill="#ddfeff" stroke="black" d="M172,-78C172,-78 130,-78 130,-78 127,-78 124,-75 124,-72 124,-72 124,-66 124,-66 124,-63 127,-60 130,-60 130,-60 172,-60 172,-60 175,-60 178,-63 178,-66 178,-66 178,-72 178,-72 178,-75 175,-78 172,-78"/>
<text text-anchor="start" x="134.5" y="-66.8" font-family="Helvetica,sans-Serif" font-size="9.00">html.ts</text>
</a>
</g>
</g>
<!-- packages/util/html/index.ts&#45;&gt;packages/util/html/src/html.ts -->
<g id="edge3" class="edge">
<title>packages/util/html/index.ts&#45;&gt;packages/util/html/src/html.ts</title>
<path fill="none" stroke="#000000" stroke-width="2" stroke-opacity="0.200000" d="M96.43,-50.01C103.41,-52.49 111.06,-55.2 118.34,-57.78"/>
<polygon fill="#000000" fill-opacity="0.200000" stroke="#000000" stroke-width="2" stroke-opacity="0.200000" points="123.64,-61.89 118.69,-57.9 125.05,-57.93 123.64,-61.89"/>
</g>
<!-- packages/util/html/src/svg.ts -->
<g id="node7" class="node">
<title>packages/util/html/src/svg.ts</title>
<g id="a_node7"><a xlink:href="packages/util/html/src/svg.ts" xlink:title="svg.ts">
<path fill="#ddfeff" stroke="black" d="M172,-142C172,-142 130,-142 130,-142 127,-142 124,-139 124,-136 124,-136 124,-130 124,-130 124,-127 127,-124 130,-124 130,-124 172,-124 172,-124 175,-124 178,-127 178,-130 178,-130 178,-136 178,-136 178,-139 175,-142 172,-142"/>
<text text-anchor="start" x="137" y="-130.8" font-family="Helvetica,sans-Serif" font-size="9.00">svg.ts</text>
</a>
</g>
</g>
<!-- packages/util/html/index.ts&#45;&gt;packages/util/html/src/svg.ts -->
<g id="edge4" class="edge">
<title>packages/util/html/index.ts&#45;&gt;packages/util/html/src/svg.ts</title>
<path fill="none" stroke="#000000" stroke-width="2" stroke-opacity="0.200000" d="M97.27,-47.54C101.39,-49.63 105.2,-52.38 108,-56 124.72,-77.63 99.88,-94.92 116,-117 116.78,-118.07 117.65,-119.07 118.59,-120"/>
<polygon fill="#000000" fill-opacity="0.200000" stroke="#000000" stroke-width="2" stroke-opacity="0.200000" points="122.47,-125.79 119.09,-120.4 125.09,-122.51 122.47,-125.79"/>
</g>
<!-- packages/util/html/src/html.ts&#45;&gt;packages/util/stdlib/dist/index.js -->
<g id="edge10" class="edge">
<title>packages/util/html/src/html.ts&#45;&gt;packages/util/stdlib/dist/index.js</title>
<path fill="none" stroke="#000000" stroke-width="2" stroke-opacity="0.200000" d="M168.93,-78.12C172.34,-80.61 175.6,-83.59 178,-87 190.95,-105.44 175.93,-119.25 191,-136 269.21,-222.96 335.71,-162.06 446,-201 456.98,-204.88 468.37,-211.06 477.5,-216.63"/>
<polygon fill="#000000" fill-opacity="0.200000" stroke="#000000" stroke-width="2" stroke-opacity="0.200000" points="476.4,-218.42 482.6,-219.82 478.62,-214.86 476.4,-218.42"/>
</g>
<!-- packages/util/html/src/attribute.ts -->
<g id="node8" class="node">
<title>packages/util/html/src/attribute.ts</title>
<g id="a_node8"><a xlink:href="packages/util/html/src/attribute.ts" xlink:title="attribute.ts">
<path fill="#ddfeff" stroke="black" d="M525,-104C525,-104 469,-104 469,-104 466,-104 463,-101 463,-98 463,-98 463,-92 463,-92 463,-89 466,-86 469,-86 469,-86 525,-86 525,-86 528,-86 531,-89 531,-92 531,-92 531,-98 531,-98 531,-101 528,-104 525,-104"/>
<text text-anchor="start" x="471" y="-92.8" font-family="Helvetica,sans-Serif" font-size="9.00">attribute.ts</text>
</a>
</g>
</g>
<!-- packages/util/html/src/html.ts&#45;&gt;packages/util/html/src/attribute.ts -->
<g id="edge8" class="edge">
<title>packages/util/html/src/html.ts&#45;&gt;packages/util/html/src/attribute.ts</title>
<path fill="none" stroke="#000000" stroke-width="2" stroke-opacity="0.200000" d="M178.35,-62.52C230.78,-50.85 351.27,-30.14 446,-60 459.6,-64.29 472.71,-73.73 482.1,-81.74"/>
<polygon fill="#000000" fill-opacity="0.200000" stroke="#000000" stroke-width="2" stroke-opacity="0.200000" points="480.76,-83.36 486.65,-85.75 483.54,-80.21 480.76,-83.36"/>
</g>
<!-- packages/util/html/src/html&#45;element.ts -->
<g id="node9" class="node">
<title>packages/util/html/src/html&#45;element.ts</title>
<g id="a_node9"><a xlink:href="packages/util/html/src/html-element.ts" xlink:title="html&#45;element.ts">
<path fill="#ddfeff" stroke="black" d="M274,-100C274,-100 197,-100 197,-100 194,-100 191,-97 191,-94 191,-94 191,-88 191,-88 191,-85 194,-82 197,-82 197,-82 274,-82 274,-82 277,-82 280,-85 280,-88 280,-88 280,-94 280,-94 280,-97 277,-100 274,-100"/>
<text text-anchor="start" x="199" y="-88.8" font-family="Helvetica,sans-Serif" font-size="9.00">html&#45;element.ts</text>
</a>
</g>
</g>
<!-- packages/util/html/src/html.ts&#45;&gt;packages/util/html/src/html&#45;element.ts -->
<g id="edge9" class="edge">
<title>packages/util/html/src/html.ts&#45;&gt;packages/util/html/src/html&#45;element.ts</title>
<path fill="none" stroke="#000000" stroke-width="2" stroke-opacity="0.200000" d="M178.1,-75.96C183.37,-77.37 189.03,-78.87 194.64,-80.37"/>
<polygon fill="#000000" fill-opacity="0.200000" stroke="#000000" stroke-width="2" stroke-opacity="0.200000" points="194.37,-82.47 200.71,-81.99 195.45,-78.41 194.37,-82.47"/>
</g>
<!-- packages/util/html/src/svg.ts&#45;&gt;packages/util/stdlib/dist/index.js -->
<g id="edge22" class="edge">
<title>packages/util/html/src/svg.ts&#45;&gt;packages/util/stdlib/dist/index.js</title>
<path fill="none" stroke="#000000" stroke-width="2" stroke-opacity="0.200000" d="M154.13,-142.2C158.27,-157.75 168.99,-188.88 191,-203 238.84,-233.69 389.44,-217.39 446,-223 451.69,-223.56 457.73,-224.23 463.57,-224.91"/>
<polygon fill="#000000" fill-opacity="0.200000" stroke="#000000" stroke-width="2" stroke-opacity="0.200000" points="463.61,-227.03 469.81,-225.65 464.1,-222.86 463.61,-227.03"/>
</g>
<!-- packages/util/html/src/svg.ts&#45;&gt;packages/util/html/src/attribute.ts -->
<g id="edge20" class="edge">
<title>packages/util/html/src/svg.ts&#45;&gt;packages/util/html/src/attribute.ts</title>
<path fill="none" stroke="#000000" stroke-width="2" stroke-opacity="0.200000" d="M178.05,-137.96C230.44,-146.82 351.62,-161.63 446,-130 459.52,-125.47 472.64,-116.03 482.04,-108.1"/>
<polygon fill="#000000" fill-opacity="0.200000" stroke="#000000" stroke-width="2" stroke-opacity="0.200000" points="483.46,-109.65 486.61,-104.12 480.7,-106.48 483.46,-109.65"/>
</g>
<!-- packages/util/html/src/svg&#45;element.ts -->
<g id="node12" class="node">
<title>packages/util/html/src/svg&#45;element.ts</title>
<g id="a_node12"><a xlink:href="packages/util/html/src/svg-element.ts" xlink:title="svg&#45;element.ts">
<path fill="#ddfeff" stroke="black" d="M271,-130C271,-130 200,-130 200,-130 197,-130 194,-127 194,-124 194,-124 194,-118 194,-118 194,-115 197,-112 200,-112 200,-112 271,-112 271,-112 274,-112 277,-115 277,-118 277,-118 277,-124 277,-124 277,-127 274,-130 271,-130"/>
<text text-anchor="start" x="202" y="-118.8" font-family="Helvetica,sans-Serif" font-size="9.00">svg&#45;element.ts</text>
</a>
</g>
</g>
<!-- packages/util/html/src/svg.ts&#45;&gt;packages/util/html/src/svg&#45;element.ts -->
<g id="edge21" class="edge">
<title>packages/util/html/src/svg.ts&#45;&gt;packages/util/html/src/svg&#45;element.ts</title>
<path fill="none" stroke="#000000" stroke-width="2" stroke-opacity="0.200000" d="M178.1,-129.2C181.23,-128.75 184.49,-128.27 187.8,-127.79"/>
<polygon fill="#000000" fill-opacity="0.200000" stroke="#000000" stroke-width="2" stroke-opacity="0.200000" points="188.16,-129.86 193.79,-126.92 187.55,-125.71 188.16,-129.86"/>
</g>
<!-- packages/util/html/src/html&#45;element.ts&#45;&gt;packages/util/stdlib/dist/index.js -->
<g id="edge7" class="edge">
<title>packages/util/html/src/html&#45;element.ts&#45;&gt;packages/util/stdlib/dist/index.js</title>
<path fill="none" stroke="#000000" stroke-width="2" stroke-opacity="0.200000" d="M269.24,-100.16C273.01,-101.83 276.69,-103.76 280,-106 287.31,-110.94 285.52,-116.32 293,-121 352.67,-158.35 387.97,-122.14 446,-162 450.98,-165.42 450.41,-168.14 454,-173 464.64,-187.41 476.96,-203.8 485.49,-215.1"/>
<polygon fill="#000000" fill-opacity="0.200000" stroke="#000000" stroke-width="2" stroke-opacity="0.200000" points="483.83,-216.39 489.12,-219.91 487.18,-213.86 483.83,-216.39"/>
</g>
<!-- packages/util/html/src/html&#45;element.ts&#45;&gt;packages/util/html/src/attribute.ts -->
<g id="edge5" class="edge">
<title>packages/util/html/src/html&#45;element.ts&#45;&gt;packages/util/html/src/attribute.ts</title>
<path fill="none" stroke="#000000" stroke-width="2" stroke-opacity="0.200000" d="M280.26,-89.98C322.65,-89.24 388.76,-88.71 446,-91 449.51,-91.14 453.16,-91.34 456.81,-91.57"/>
<polygon fill="#000000" fill-opacity="0.200000" stroke="#000000" stroke-width="2" stroke-opacity="0.200000" points="456.81,-93.67 462.94,-91.98 457.1,-89.48 456.81,-93.67"/>
</g>
<!-- packages/util/html/src/set&#45;components&#45;to&#45;element.ts -->
<g id="node10" class="node">
<title>packages/util/html/src/set&#45;components&#45;to&#45;element.ts</title>
<g id="a_node10"><a xlink:href="packages/util/html/src/set-components-to-element.ts" xlink:title="set&#45;components&#45;to&#45;element.ts">
<path fill="#ddfeff" stroke="black" d="M440,-115C440,-115 299,-115 299,-115 296,-115 293,-112 293,-109 293,-109 293,-103 293,-103 293,-100 296,-97 299,-97 299,-97 440,-97 440,-97 443,-97 446,-100 446,-103 446,-103 446,-109 446,-109 446,-112 443,-115 440,-115"/>
<text text-anchor="start" x="301" y="-103.8" font-family="Helvetica,sans-Serif" font-size="9.00">set&#45;components&#45;to&#45;element.ts</text>
</a>
</g>
</g>
<!-- packages/util/html/src/html&#45;element.ts&#45;&gt;packages/util/html/src/set&#45;components&#45;to&#45;element.ts -->
<g id="edge6" class="edge">
<title>packages/util/html/src/html&#45;element.ts&#45;&gt;packages/util/html/src/set&#45;components&#45;to&#45;element.ts</title>
<path fill="none" stroke="#000000" stroke-width="2" stroke-opacity="0.200000" d="M280.09,-95.95C282.12,-96.18 284.17,-96.42 286.26,-96.65"/>
<polygon fill="#000000" fill-opacity="0.200000" stroke="#000000" stroke-width="2" stroke-opacity="0.200000" points="286.37,-98.78 292.57,-97.37 286.84,-94.61 286.37,-98.78"/>
</g>
<!-- packages/util/html/src/set&#45;components&#45;to&#45;element.ts&#45;&gt;packages/util/stdlib/dist/index.js -->
<g id="edge16" class="edge">
<title>packages/util/html/src/set&#45;components&#45;to&#45;element.ts&#45;&gt;packages/util/stdlib/dist/index.js</title>
<path fill="none" stroke="#000000" stroke-width="2" stroke-opacity="0.200000" d="M392.32,-115C409,-122.86 431.53,-135.72 446,-153 452.15,-160.34 449.31,-164.65 454,-173 462.57,-188.25 474.78,-204.06 483.83,-214.97"/>
<polygon fill="#000000" fill-opacity="0.200000" stroke="#000000" stroke-width="2" stroke-opacity="0.200000" points="482.27,-216.38 487.74,-219.62 485.49,-213.68 482.27,-216.38"/>
</g>
<!-- packages/util/html/src/set&#45;components&#45;to&#45;element.ts&#45;&gt;packages/util/html/src/attribute.ts -->
<g id="edge15" class="edge">
<title>packages/util/html/src/set&#45;components&#45;to&#45;element.ts&#45;&gt;packages/util/html/src/attribute.ts</title>
<path fill="none" stroke="#000000" stroke-width="2" stroke-opacity="0.200000" d="M446.04,-99.38C449.67,-99.06 453.25,-98.75 456.71,-98.44"/>
<polygon fill="#000000" fill-opacity="0.200000" stroke="#000000" stroke-width="2" stroke-opacity="0.200000" points="457.02,-100.52 462.81,-97.91 456.65,-96.34 457.02,-100.52"/>
</g>
<!-- packages/util/html/src/index.ts -->
<g id="node11" class="node">
<title>packages/util/html/src/index.ts</title>
<g id="a_node11"><a xlink:href="packages/util/html/src/index.ts" xlink:title="index.ts">
<path fill="#ddfeff" stroke="black" d="M172,-111C172,-111 130,-111 130,-111 127,-111 124,-108 124,-105 124,-105 124,-99 124,-99 124,-96 127,-93 130,-93 130,-93 172,-93 172,-93 175,-93 178,-96 178,-99 178,-99 178,-105 178,-105 178,-108 175,-111 172,-111"/>
<text text-anchor="start" x="132.5" y="-99.8" font-family="Helvetica,sans-Serif" font-size="9.00">index.ts</text>
</a>
</g>
</g>
<!-- packages/util/html/src/index.ts&#45;&gt;packages/util/stdlib/dist/index.js -->
<g id="edge14" class="edge">
<title>packages/util/html/src/index.ts&#45;&gt;packages/util/stdlib/dist/index.js</title>
<path fill="none" stroke="#000000" stroke-width="2" stroke-opacity="0.200000" d="M171.23,-111.16C173.82,-113.1 176.2,-115.38 178,-118 196.12,-144.47 167.56,-167.1 191,-189 201.42,-198.73 431.94,-215.66 446,-218 451.85,-218.97 458.05,-220.19 464.02,-221.45"/>
<polygon fill="#000000" fill-opacity="0.200000" stroke="#000000" stroke-width="2" stroke-opacity="0.200000" points="463.58,-223.5 469.89,-222.72 464.47,-219.4 463.58,-223.5"/>
</g>
<!-- packages/util/html/src/index.ts&#45;&gt;packages/util/html/src/attribute.ts -->
<g id="edge11" class="edge">
<title>packages/util/html/src/index.ts&#45;&gt;packages/util/html/src/attribute.ts</title>
<path fill="none" stroke="#000000" stroke-width="2" stroke-opacity="0.200000" d="M165.35,-92.84C176.05,-85.53 189.52,-76.45 191,-76 284.03,-47.83 400.11,-69.71 458.61,-84.43"/>
<polygon fill="#000000" fill-opacity="0.200000" stroke="#000000" stroke-width="2" stroke-opacity="0.200000" points="458.1,-86.47 464.43,-85.92 459.14,-82.4 458.1,-86.47"/>
</g>
<!-- packages/util/html/src/index.ts&#45;&gt;packages/util/html/src/html&#45;element.ts -->
<g id="edge12" class="edge">
<title>packages/util/html/src/index.ts&#45;&gt;packages/util/html/src/html&#45;element.ts</title>
<path fill="none" stroke="#000000" stroke-width="2" stroke-opacity="0.200000" d="M178.1,-98.52C180.26,-98.23 182.48,-97.94 184.74,-97.63"/>
<polygon fill="#000000" fill-opacity="0.200000" stroke="#000000" stroke-width="2" stroke-opacity="0.200000" points="191.05,-98.91 184.83,-97.62 190.5,-94.75 191.05,-98.91"/>
</g>
<!-- packages/util/html/src/index.ts&#45;&gt;packages/util/html/src/svg&#45;element.ts -->
<g id="edge13" class="edge">
<title>packages/util/html/src/index.ts&#45;&gt;packages/util/html/src/svg&#45;element.ts</title>
<path fill="none" stroke="#000000" stroke-width="2" stroke-opacity="0.200000" d="M178.1,-108.01C181.7,-108.84 185.47,-109.71 189.29,-110.59"/>
<polygon fill="#000000" fill-opacity="0.200000" stroke="#000000" stroke-width="2" stroke-opacity="0.200000" points="194.83,-114.02 189.46,-110.63 195.78,-109.93 194.83,-114.02"/>
</g>
<!-- packages/util/html/src/svg&#45;element.ts&#45;&gt;packages/util/stdlib/dist/index.js -->
<g id="edge19" class="edge">
<title>packages/util/html/src/svg&#45;element.ts&#45;&gt;packages/util/stdlib/dist/index.js</title>
<path fill="none" stroke="#000000" stroke-width="2" stroke-opacity="0.200000" d="M246.03,-130C256.62,-139.42 274.65,-153.82 293,-161 356.86,-185.99 384.17,-151.33 446,-181 462.18,-188.77 476.48,-203.78 485.6,-214.95"/>
<polygon fill="#000000" fill-opacity="0.200000" stroke="#000000" stroke-width="2" stroke-opacity="0.200000" points="484.04,-216.37 489.41,-219.78 487.34,-213.77 484.04,-216.37"/>
</g>
<!-- packages/util/html/src/svg&#45;element.ts&#45;&gt;packages/util/html/src/attribute.ts -->
<g id="edge17" class="edge">
<title>packages/util/html/src/svg&#45;element.ts&#45;&gt;packages/util/html/src/attribute.ts</title>
<path fill="none" stroke="#000000" stroke-width="2" stroke-opacity="0.200000" d="M277.34,-126.66C320.07,-131.28 388.76,-134.99 446,-121 457.02,-118.31 468.31,-112.72 477.37,-107.41"/>
<polygon fill="#000000" fill-opacity="0.200000" stroke="#000000" stroke-width="2" stroke-opacity="0.200000" points="478.66,-109.08 482.7,-104.17 476.48,-105.5 478.66,-109.08"/>
</g>
<!-- packages/util/html/src/svg&#45;element.ts&#45;&gt;packages/util/html/src/set&#45;components&#45;to&#45;element.ts -->
<g id="edge18" class="edge">
<title>packages/util/html/src/svg&#45;element.ts&#45;&gt;packages/util/html/src/set&#45;components&#45;to&#45;element.ts</title>
<path fill="none" stroke="#000000" stroke-width="2" stroke-opacity="0.200000" d="M277.18,-116.38C280.15,-116.04 283.2,-115.69 286.3,-115.34"/>
<polygon fill="#000000" fill-opacity="0.200000" stroke="#000000" stroke-width="2" stroke-opacity="0.200000" points="287,-117.38 292.72,-114.61 286.52,-113.2 287,-117.38"/>
</g>
</g>
</svg>
