<?xml version="1.0" encoding="UTF-8" standalone="no"?>
<!DOCTYPE svg PUBLIC "-//W3C//DTD SVG 1.1//EN"
 "http://www.w3.org/Graphics/SVG/1.1/DTD/svg11.dtd">
<!-- Generated by graphviz version 2.43.0 (0)
 -->
<!-- Title: dependency&#45;cruiser output Pages: 1 -->
<svg width="134pt" height="200pt"
 viewBox="0.00 0.00 134.00 200.00" xmlns="http://www.w3.org/2000/svg" xmlns:xlink="http://www.w3.org/1999/xlink">
<g id="graph0" class="graph" transform="scale(1 1) rotate(0) translate(4 196)">
<title>dependency&#45;cruiser output</title>
<polygon fill="white" stroke="transparent" points="-4,4 -4,-196 130,-196 130,4 -4,4"/>
<g id="clust1" class="cluster">
<title>cluster_packages</title>
<path fill="#ffffff" stroke="black" stroke-width="2" d="M12,-8C12,-8 114,-8 114,-8 120,-8 126,-14 126,-20 126,-20 126,-172 126,-172 126,-178 120,-184 114,-184 114,-184 12,-184 12,-184 6,-184 0,-178 0,-172 0,-172 0,-20 0,-20 0,-14 6,-8 12,-8"/>
<text text-anchor="middle" x="63" y="-172.8" font-family="Helvetica,sans-Serif" font-weight="bold" font-size="9.00">packages</text>
</g>
<g id="clust2" class="cluster">
<title>cluster_packages/_packagetemplate</title>
<path fill="#ffffff" stroke="black" stroke-width="2" d="M20,-16C20,-16 106,-16 106,-16 112,-16 118,-22 118,-28 118,-28 118,-146 118,-146 118,-152 112,-158 106,-158 106,-158 20,-158 20,-158 14,-158 8,-152 8,-146 8,-146 8,-28 8,-28 8,-22 14,-16 20,-16"/>
<text text-anchor="middle" x="63" y="-146.8" font-family="Helvetica,sans-Serif" font-weight="bold" font-size="9.00">_packagetemplate</text>
</g>
<g id="clust3" class="cluster">
<title>cluster_packages/_packagetemplate/dist</title>
<path fill="#ffffff" stroke="black" stroke-width="2" d="M37,-50C37,-50 89,-50 89,-50 95,-50 101,-56 101,-62 101,-62 101,-120 101,-120 101,-126 95,-132 89,-132 89,-132 37,-132 37,-132 31,-132 25,-126 25,-120 25,-120 25,-62 25,-62 25,-56 31,-50 37,-50"/>
<text text-anchor="middle" x="63" y="-120.8" font-family="Helvetica,sans-Serif" font-weight="bold" font-size="9.00">dist</text>
</g>
<!-- packages/_packagetemplate/dist/index.js -->
<g id="node1" class="node">
<title>packages/_packagetemplate/dist/index.js</title>
<g id="a_node1"><a xlink:href="packages/_packagetemplate/dist/index.js" xlink:title="no&#45;orphans">
<path fill="#ccffcc" stroke="orange" d="M84,-106C84,-106 42,-106 42,-106 39,-106 36,-103 36,-100 36,-100 36,-94 36,-94 36,-91 39,-88 42,-88 42,-88 84,-88 84,-88 87,-88 90,-91 90,-94 90,-94 90,-100 90,-100 90,-103 87,-106 84,-106"/>
<text text-anchor="start" x="45.5" y="-94.8" font-family="Helvetica,sans-Serif" font-size="9.00" fill="orange">index.js</text>
</a>
</g>
</g>
<!-- packages/_packagetemplate/dist/index.mjs -->
<g id="node2" class="node">
<title>packages/_packagetemplate/dist/index.mjs</title>
<g id="a_node2"><a xlink:href="packages/_packagetemplate/dist/index.mjs" xlink:title="no&#45;orphans">
<path fill="#ccffcc" stroke="orange" d="M87,-76C87,-76 39,-76 39,-76 36,-76 33,-73 33,-70 33,-70 33,-64 33,-64 33,-61 36,-58 39,-58 39,-58 87,-58 87,-58 90,-58 93,-61 93,-64 93,-64 93,-70 93,-70 93,-73 90,-76 87,-76"/>
<text text-anchor="start" x="41" y="-64.8" font-family="Helvetica,sans-Serif" font-size="9.00" fill="orange">index.mjs</text>
</a>
</g>
</g>
<!-- packages/_packagetemplate/index.ts -->
<g id="node3" class="node">
<title>packages/_packagetemplate/index.ts</title>
<g id="a_node3"><a xlink:href="packages/_packagetemplate/index.ts" xlink:title="no&#45;orphans">
<path fill="#ccffcc" stroke="orange" d="M84,-42C84,-42 42,-42 42,-42 39,-42 36,-39 36,-36 36,-36 36,-30 36,-30 36,-27 39,-24 42,-24 42,-24 84,-24 84,-24 87,-24 90,-27 90,-30 90,-30 90,-36 90,-36 90,-39 87,-42 84,-42"/>
<text text-anchor="start" x="44.5" y="-30.8" font-family="Helvetica,sans-Serif" font-size="9.00" fill="orange">index.ts</text>
</a>
</g>
</g>
</g>
</svg>
