<?xml version="1.0" encoding="UTF-8" standalone="no"?>
<!DOCTYPE svg PUBLIC "-//W3C//DTD SVG 1.1//EN"
 "http://www.w3.org/Graphics/SVG/1.1/DTD/svg11.dtd">
<!-- Generated by graphviz version 2.43.0 (0)
 -->
<!-- Title: dependency&#45;cruiser output Pages: 1 -->
<svg width="355pt" height="358pt"
 viewBox="0.00 0.00 355.00 358.00" xmlns="http://www.w3.org/2000/svg" xmlns:xlink="http://www.w3.org/1999/xlink">
<g id="graph0" class="graph" transform="scale(1 1) rotate(0) translate(4 354)">
<title>dependency&#45;cruiser output</title>
<polygon fill="white" stroke="transparent" points="-4,4 -4,-354 351,-354 351,4 -4,4"/>
<g id="clust1" class="cluster">
<title>cluster_packages</title>
<path fill="#ffffff" stroke="black" stroke-width="2" d="M20,-26C20,-26 329,-26 329,-26 335,-26 341,-32 341,-38 341,-38 341,-330 341,-330 341,-336 335,-342 329,-342 329,-342 20,-342 20,-342 14,-342 8,-336 8,-330 8,-330 8,-38 8,-38 8,-32 14,-26 20,-26"/>
<text text-anchor="middle" x="174.5" y="-330.8" font-family="Helvetica,sans-Serif" font-weight="bold" font-size="9.00">packages</text>
</g>
<g id="clust2" class="cluster">
<title>cluster_packages/cli</title>
<path fill="#ffffff" stroke="black" stroke-width="2" d="M28,-34C28,-34 184,-34 184,-34 190,-34 196,-40 196,-46 196,-46 196,-176 196,-176 196,-182 190,-188 184,-188 184,-188 28,-188 28,-188 22,-188 16,-182 16,-176 16,-176 16,-46 16,-46 16,-40 22,-34 28,-34"/>
<text text-anchor="middle" x="106" y="-176.8" font-family="Helvetica,sans-Serif" font-weight="bold" font-size="9.00">cli</text>
</g>
<g id="clust3" class="cluster">
<title>cluster_packages/cli/chord&#45;analyze&#45;cli</title>
<path fill="#ffffff" stroke="black" stroke-width="2" d="M36,-42C36,-42 176,-42 176,-42 182,-42 188,-48 188,-54 188,-54 188,-150 188,-150 188,-156 182,-162 176,-162 176,-162 36,-162 36,-162 30,-162 24,-156 24,-150 24,-150 24,-54 24,-54 24,-48 30,-42 36,-42"/>
<text text-anchor="middle" x="106" y="-150.8" font-family="Helvetica,sans-Serif" font-weight="bold" font-size="9.00">chord&#45;analyze&#45;cli</text>
</g>
<g id="clust4" class="cluster">
<title>cluster_packages/cli/chord&#45;analyze&#45;cli/src</title>
<path fill="#ffffff" stroke="black" stroke-width="2" d="M106,-50C106,-50 168,-50 168,-50 174,-50 180,-56 180,-62 180,-62 180,-124 180,-124 180,-130 174,-136 168,-136 168,-136 106,-136 106,-136 100,-136 94,-130 94,-124 94,-124 94,-62 94,-62 94,-56 100,-50 106,-50"/>
<text text-anchor="middle" x="137" y="-124.8" font-family="Helvetica,sans-Serif" font-weight="bold" font-size="9.00">src</text>
</g>
<g id="clust5" class="cluster">
<title>cluster_packages/cli/chord&#45;analyze&#45;cli/src/facade</title>
<path fill="#ffffff" stroke="black" stroke-width="2" d="M114,-58C114,-58 160,-58 160,-58 166,-58 172,-64 172,-70 172,-70 172,-98 172,-98 172,-104 166,-110 160,-110 160,-110 114,-110 114,-110 108,-110 102,-104 102,-98 102,-98 102,-70 102,-70 102,-64 108,-58 114,-58"/>
<text text-anchor="middle" x="137" y="-98.8" font-family="Helvetica,sans-Serif" font-weight="bold" font-size="9.00">facade</text>
</g>
<g id="clust6" class="cluster">
<title>cluster_packages/music&#45;structure</title>
<path fill="#ffffff" stroke="black" stroke-width="2" d="M224,-34C224,-34 321,-34 321,-34 327,-34 333,-40 333,-46 333,-46 333,-176 333,-176 333,-182 327,-188 321,-188 321,-188 224,-188 224,-188 218,-188 212,-182 212,-176 212,-176 212,-46 212,-46 212,-40 218,-34 224,-34"/>
<text text-anchor="middle" x="272.5" y="-176.8" font-family="Helvetica,sans-Serif" font-weight="bold" font-size="9.00">music&#45;structure</text>
</g>
<g id="clust7" class="cluster">
<title>cluster_packages/music&#45;structure/chord</title>
<path fill="#ffffff" stroke="black" stroke-width="2" d="M232,-42C232,-42 313,-42 313,-42 319,-42 325,-48 325,-54 325,-54 325,-150 325,-150 325,-156 319,-162 313,-162 313,-162 232,-162 232,-162 226,-162 220,-156 220,-150 220,-150 220,-54 220,-54 220,-48 226,-42 232,-42"/>
<text text-anchor="middle" x="272.5" y="-150.8" font-family="Helvetica,sans-Serif" font-weight="bold" font-size="9.00">chord</text>
</g>
<g id="clust8" class="cluster">
<title>cluster_packages/music&#45;structure/chord/chord&#45;analyze</title>
<path fill="#ffffff" stroke="black" stroke-width="2" d="M240,-50C240,-50 305,-50 305,-50 311,-50 317,-56 317,-62 317,-62 317,-124 317,-124 317,-130 311,-136 305,-136 305,-136 240,-136 240,-136 234,-136 228,-130 228,-124 228,-124 228,-62 228,-62 228,-56 234,-50 240,-50"/>
<text text-anchor="middle" x="272.5" y="-124.8" font-family="Helvetica,sans-Serif" font-weight="bold" font-size="9.00">chord&#45;analyze</text>
</g>
<g id="clust9" class="cluster">
<title>cluster_packages/music&#45;structure/chord/chord&#45;analyze/dist</title>
<path fill="#ffffff" stroke="black" stroke-width="2" d="M249,-58C249,-58 295,-58 295,-58 301,-58 307,-64 307,-70 307,-70 307,-98 307,-98 307,-104 301,-110 295,-110 295,-110 249,-110 249,-110 243,-110 237,-104 237,-98 237,-98 237,-70 237,-70 237,-64 243,-58 249,-58"/>
<text text-anchor="middle" x="272" y="-98.8" font-family="Helvetica,sans-Serif" font-weight="bold" font-size="9.00">dist</text>
</g>
<g id="clust10" class="cluster">
<title>cluster_packages/util</title>
<path fill="#ffffff" stroke="black" stroke-width="2" d="M233,-196C233,-196 311,-196 311,-196 317,-196 323,-202 323,-208 323,-208 323,-304 323,-304 323,-310 317,-316 311,-316 311,-316 233,-316 233,-316 227,-316 221,-310 221,-304 221,-304 221,-208 221,-208 221,-202 227,-196 233,-196"/>
<text text-anchor="middle" x="272" y="-304.8" font-family="Helvetica,sans-Serif" font-weight="bold" font-size="9.00">util</text>
</g>
<g id="clust11" class="cluster">
<title>cluster_packages/util/time&#45;and</title>
<path fill="#ffffff" stroke="black" stroke-width="2" d="M241,-204C241,-204 303,-204 303,-204 309,-204 315,-210 315,-216 315,-216 315,-278 315,-278 315,-284 309,-290 303,-290 303,-290 241,-290 241,-290 235,-290 229,-284 229,-278 229,-278 229,-216 229,-216 229,-210 235,-204 241,-204"/>
<text text-anchor="middle" x="272" y="-278.8" font-family="Helvetica,sans-Serif" font-weight="bold" font-size="9.00">time&#45;and</text>
</g>
<g id="clust12" class="cluster">
<title>cluster_packages/util/time&#45;and/dist</title>
<path fill="#ffffff" stroke="black" stroke-width="2" d="M249,-212C249,-212 295,-212 295,-212 301,-212 307,-218 307,-224 307,-224 307,-252 307,-252 307,-258 301,-264 295,-264 295,-264 249,-264 249,-264 243,-264 237,-258 237,-252 237,-252 237,-224 237,-224 237,-218 243,-212 249,-212"/>
<text text-anchor="middle" x="272" y="-252.8" font-family="Helvetica,sans-Serif" font-weight="bold" font-size="9.00">dist</text>
</g>
<!-- packages/cli/chord&#45;analyze&#45;cli/index.ts -->
<g id="node1" class="node">
<title>packages/cli/chord&#45;analyze&#45;cli/index.ts</title>
<g id="a_node1"><a xlink:href="packages/cli/chord-analyze-cli/index.ts" xlink:title="index.ts">
<path fill="#ddfeff" stroke="black" d="M80,-76C80,-76 38,-76 38,-76 35,-76 32,-73 32,-70 32,-70 32,-64 32,-64 32,-61 35,-58 38,-58 38,-58 80,-58 80,-58 83,-58 86,-61 86,-64 86,-64 86,-70 86,-70 86,-73 83,-76 80,-76"/>
<text text-anchor="start" x="40.5" y="-64.8" font-family="Helvetica,sans-Serif" font-size="9.00">index.ts</text>
</a>
</g>
</g>
<!-- packages/cli/chord&#45;analyze&#45;cli/src/facade/index.ts -->
<g id="node2" class="node">
<title>packages/cli/chord&#45;analyze&#45;cli/src/facade/index.ts</title>
<g id="a_node2"><a xlink:href="packages/cli/chord-analyze-cli/src/facade/index.ts" xlink:title="index.ts">
<path fill="#ddfeff" stroke="black" d="M158,-84C158,-84 116,-84 116,-84 113,-84 110,-81 110,-78 110,-78 110,-72 110,-72 110,-69 113,-66 116,-66 116,-66 158,-66 158,-66 161,-66 164,-69 164,-72 164,-72 164,-78 164,-78 164,-81 161,-84 158,-84"/>
<text text-anchor="start" x="118.5" y="-72.8" font-family="Helvetica,sans-Serif" font-size="9.00">index.ts</text>
</a>
</g>
</g>
<!-- packages/cli/chord&#45;analyze&#45;cli/index.ts&#45;&gt;packages/cli/chord&#45;analyze&#45;cli/src/facade/index.ts -->
<g id="edge1" class="edge">
<title>packages/cli/chord&#45;analyze&#45;cli/index.ts&#45;&gt;packages/cli/chord&#45;analyze&#45;cli/src/facade/index.ts</title>
<path fill="none" stroke="#000000" stroke-width="2" stroke-opacity="0.200000" d="M86.15,-69.75C91.77,-70.34 97.76,-70.98 103.58,-71.59"/>
<polygon fill="#000000" fill-opacity="0.200000" stroke="#000000" stroke-width="2" stroke-opacity="0.200000" points="103.61,-73.7 109.8,-72.24 104.05,-69.53 103.61,-73.7"/>
</g>
<!-- readline -->
<g id="node3" class="node">
<title>readline</title>
<g id="a_node3"><a xlink:href="https://nodejs.org/api/readline.html" xlink:title="readline">
<path fill="#ffffcc" stroke="grey" d="M158,-18C158,-18 116,-18 116,-18 113,-18 110,-15 110,-12 110,-12 110,-6 110,-6 110,-3 113,0 116,0 116,0 158,0 158,0 161,0 164,-3 164,-6 164,-6 164,-12 164,-12 164,-15 161,-18 158,-18"/>
<text text-anchor="middle" x="137" y="-6.8" font-family="Helvetica,sans-Serif" font-size="9.00" fill="grey">readline</text>
</a>
</g>
</g>
<!-- packages/cli/chord&#45;analyze&#45;cli/index.ts&#45;&gt;readline -->
<g id="edge2" class="edge">
<title>packages/cli/chord&#45;analyze&#45;cli/index.ts&#45;&gt;readline</title>
<path fill="none" stroke="#000000" stroke-dasharray="5,2" stroke-opacity="0.200000" d="M71.88,-57.94C84.52,-48.29 104.64,-32.94 118.96,-22"/>
<polygon fill="#000000" fill-opacity="0.200000" stroke="#000000" stroke-opacity="0.200000" points="120.46,-23.5 123.96,-18.19 117.91,-20.16 120.46,-23.5"/>
</g>
<!-- packages/music&#45;structure/chord/chord&#45;analyze/dist/index.js -->
<g id="node4" class="node">
<title>packages/music&#45;structure/chord/chord&#45;analyze/dist/index.js</title>
<g id="a_node4"><a xlink:href="packages/music-structure/chord/chord-analyze/dist/index.js" xlink:title="index.js">
<polygon fill="#ffffcc" stroke="black" points="299,-84 297.5,-86 287,-86 285.5,-84 245,-84 245,-66 299,-66 299,-84"/>
<text text-anchor="start" x="254.5" y="-72.8" font-family="Helvetica,sans-Serif" font-size="9.00">index.js</text>
</a>
</g>
</g>
<!-- packages/cli/chord&#45;analyze&#45;cli/src/facade/index.ts&#45;&gt;packages/music&#45;structure/chord/chord&#45;analyze/dist/index.js -->
<g id="edge3" class="edge">
<title>packages/cli/chord&#45;analyze&#45;cli/src/facade/index.ts&#45;&gt;packages/music&#45;structure/chord/chord&#45;analyze/dist/index.js</title>
<path fill="none" stroke="#000000" stroke-width="2" stroke-opacity="0.200000" d="M164.28,-75C185.59,-75 215.73,-75 238.55,-75"/>
<polygon fill="#000000" fill-opacity="0.200000" stroke="#000000" stroke-width="2" stroke-opacity="0.200000" points="244.78,-77.1 238.78,-75 244.78,-72.9 244.78,-77.1"/>
</g>
<!-- packages/util/time&#45;and/dist/index.js -->
<g id="node5" class="node">
<title>packages/util/time&#45;and/dist/index.js</title>
<g id="a_node5"><a xlink:href="packages/util/time-and/dist/index.js" xlink:title="index.js">
<polygon fill="#ffffcc" stroke="black" points="299,-238 297.5,-240 287,-240 285.5,-238 245,-238 245,-220 299,-220 299,-238"/>
<text text-anchor="start" x="254.5" y="-226.8" font-family="Helvetica,sans-Serif" font-size="9.00">index.js</text>
</a>
</g>
</g>
<!-- packages/cli/chord&#45;analyze&#45;cli/src/facade/index.ts&#45;&gt;packages/util/time&#45;and/dist/index.js -->
<g id="edge4" class="edge">
<title>packages/cli/chord&#45;analyze&#45;cli/src/facade/index.ts&#45;&gt;packages/util/time&#45;and/dist/index.js</title>
<path fill="none" stroke="#000000" stroke-width="2" stroke-opacity="0.200000" d="M145.92,-84.17C168.32,-110.11 232.23,-184.11 258.99,-215.09"/>
<polygon fill="#000000" fill-opacity="0.200000" stroke="#000000" stroke-width="2" stroke-opacity="0.200000" points="261.36,-221.05 259.03,-215.14 264.54,-218.31 261.36,-221.05"/>
</g>
</g>
</svg>
