<?xml version="1.0" encoding="UTF-8" standalone="no"?>
<!DOCTYPE svg PUBLIC "-//W3C//DTD SVG 1.1//EN"
 "http://www.w3.org/Graphics/SVG/1.1/DTD/svg11.dtd">
<!-- Generated by graphviz version 2.43.0 (0)
 -->
<!-- Title: dependency&#45;cruiser output Pages: 1 -->
<svg width="295pt" height="358pt"
 viewBox="0.00 0.00 295.00 358.00" xmlns="http://www.w3.org/2000/svg" xmlns:xlink="http://www.w3.org/1999/xlink">
<g id="graph0" class="graph" transform="scale(1 1) rotate(0) translate(4 354)">
<title>dependency&#45;cruiser output</title>
<polygon fill="white" stroke="transparent" points="-4,4 -4,-354 291,-354 291,4 -4,4"/>
<g id="clust1" class="cluster">
<title>cluster_packages</title>
<path fill="#ffffff" stroke="black" stroke-width="2" d="M12,-26C12,-26 269,-26 269,-26 275,-26 281,-32 281,-38 281,-38 281,-330 281,-330 281,-336 275,-342 269,-342 269,-342 12,-342 12,-342 6,-342 0,-336 0,-330 0,-330 0,-38 0,-38 0,-32 6,-26 12,-26"/>
<text text-anchor="middle" x="140.5" y="-330.8" font-family="Helvetica,sans-Serif" font-weight="bold" font-size="9.00">packages</text>
</g>
<g id="clust2" class="cluster">
<title>cluster_packages/cli</title>
<path fill="#ffffff" stroke="black" stroke-width="2" d="M20,-50C20,-50 116,-50 116,-50 122,-50 128,-56 128,-62 128,-62 128,-124 128,-124 128,-130 122,-136 116,-136 116,-136 20,-136 20,-136 14,-136 8,-130 8,-124 8,-124 8,-62 8,-62 8,-56 14,-50 20,-50"/>
<text text-anchor="middle" x="68" y="-124.8" font-family="Helvetica,sans-Serif" font-weight="bold" font-size="9.00">cli</text>
</g>
<g id="clust3" class="cluster">
<title>cluster_packages/cli/chord&#45;analyze&#45;cli</title>
<path fill="#ffffff" stroke="black" stroke-width="2" d="M28,-58C28,-58 108,-58 108,-58 114,-58 120,-64 120,-70 120,-70 120,-98 120,-98 120,-104 114,-110 108,-110 108,-110 28,-110 28,-110 22,-110 16,-104 16,-98 16,-98 16,-70 16,-70 16,-64 22,-58 28,-58"/>
<text text-anchor="middle" x="68" y="-98.8" font-family="Helvetica,sans-Serif" font-weight="bold" font-size="9.00">chord&#45;analyze&#45;cli</text>
</g>
<g id="clust4" class="cluster">
<title>cluster_packages/music&#45;structure</title>
<path fill="#ffffff" stroke="black" stroke-width="2" d="M164,-34C164,-34 261,-34 261,-34 267,-34 273,-40 273,-46 273,-46 273,-176 273,-176 273,-182 267,-188 261,-188 261,-188 164,-188 164,-188 158,-188 152,-182 152,-176 152,-176 152,-46 152,-46 152,-40 158,-34 164,-34"/>
<text text-anchor="middle" x="212.5" y="-176.8" font-family="Helvetica,sans-Serif" font-weight="bold" font-size="9.00">music&#45;structure</text>
</g>
<g id="clust5" class="cluster">
<title>cluster_packages/music&#45;structure/chord</title>
<path fill="#ffffff" stroke="black" stroke-width="2" d="M172,-42C172,-42 253,-42 253,-42 259,-42 265,-48 265,-54 265,-54 265,-150 265,-150 265,-156 259,-162 253,-162 253,-162 172,-162 172,-162 166,-162 160,-156 160,-150 160,-150 160,-54 160,-54 160,-48 166,-42 172,-42"/>
<text text-anchor="middle" x="212.5" y="-150.8" font-family="Helvetica,sans-Serif" font-weight="bold" font-size="9.00">chord</text>
</g>
<g id="clust6" class="cluster">
<title>cluster_packages/music&#45;structure/chord/chord&#45;analyze</title>
<path fill="#ffffff" stroke="black" stroke-width="2" d="M180,-50C180,-50 245,-50 245,-50 251,-50 257,-56 257,-62 257,-62 257,-124 257,-124 257,-130 251,-136 245,-136 245,-136 180,-136 180,-136 174,-136 168,-130 168,-124 168,-124 168,-62 168,-62 168,-56 174,-50 180,-50"/>
<text text-anchor="middle" x="212.5" y="-124.8" font-family="Helvetica,sans-Serif" font-weight="bold" font-size="9.00">chord&#45;analyze</text>
</g>
<g id="clust7" class="cluster">
<title>cluster_packages/music&#45;structure/chord/chord&#45;analyze/dist</title>
<path fill="#ffffff" stroke="black" stroke-width="2" d="M189,-58C189,-58 235,-58 235,-58 241,-58 247,-64 247,-70 247,-70 247,-98 247,-98 247,-104 241,-110 235,-110 235,-110 189,-110 189,-110 183,-110 177,-104 177,-98 177,-98 177,-70 177,-70 177,-64 183,-58 189,-58"/>
<text text-anchor="middle" x="212" y="-98.8" font-family="Helvetica,sans-Serif" font-weight="bold" font-size="9.00">dist</text>
</g>
<g id="clust8" class="cluster">
<title>cluster_packages/util</title>
<path fill="#ffffff" stroke="black" stroke-width="2" d="M173,-196C173,-196 251,-196 251,-196 257,-196 263,-202 263,-208 263,-208 263,-304 263,-304 263,-310 257,-316 251,-316 251,-316 173,-316 173,-316 167,-316 161,-310 161,-304 161,-304 161,-208 161,-208 161,-202 167,-196 173,-196"/>
<text text-anchor="middle" x="212" y="-304.8" font-family="Helvetica,sans-Serif" font-weight="bold" font-size="9.00">util</text>
</g>
<g id="clust9" class="cluster">
<title>cluster_packages/util/time&#45;and</title>
<path fill="#ffffff" stroke="black" stroke-width="2" d="M181,-204C181,-204 243,-204 243,-204 249,-204 255,-210 255,-216 255,-216 255,-278 255,-278 255,-284 249,-290 243,-290 243,-290 181,-290 181,-290 175,-290 169,-284 169,-278 169,-278 169,-216 169,-216 169,-210 175,-204 181,-204"/>
<text text-anchor="middle" x="212" y="-278.8" font-family="Helvetica,sans-Serif" font-weight="bold" font-size="9.00">time&#45;and</text>
</g>
<g id="clust10" class="cluster">
<title>cluster_packages/util/time&#45;and/dist</title>
<path fill="#ffffff" stroke="black" stroke-width="2" d="M189,-212C189,-212 235,-212 235,-212 241,-212 247,-218 247,-224 247,-224 247,-252 247,-252 247,-258 241,-264 235,-264 235,-264 189,-264 189,-264 183,-264 177,-258 177,-252 177,-252 177,-224 177,-224 177,-218 183,-212 189,-212"/>
<text text-anchor="middle" x="212" y="-252.8" font-family="Helvetica,sans-Serif" font-weight="bold" font-size="9.00">dist</text>
</g>
<!-- packages/cli/chord&#45;analyze&#45;cli/index.ts -->
<g id="node1" class="node">
<title>packages/cli/chord&#45;analyze&#45;cli/index.ts</title>
<g id="a_node1"><a xlink:href="packages/cli/chord-analyze-cli/index.ts" xlink:title="index.ts">
<path fill="#ddfeff" stroke="black" d="M89,-84C89,-84 47,-84 47,-84 44,-84 41,-81 41,-78 41,-78 41,-72 41,-72 41,-69 44,-66 47,-66 47,-66 89,-66 89,-66 92,-66 95,-69 95,-72 95,-72 95,-78 95,-78 95,-81 92,-84 89,-84"/>
<text text-anchor="start" x="49.5" y="-72.8" font-family="Helvetica,sans-Serif" font-size="9.00">index.ts</text>
</a>
</g>
</g>
<!-- packages/music&#45;structure/chord/chord&#45;analyze/dist/index.js -->
<g id="node2" class="node">
<title>packages/music&#45;structure/chord/chord&#45;analyze/dist/index.js</title>
<g id="a_node2"><a xlink:href="packages/music-structure/chord/chord-analyze/dist/index.js" xlink:title="index.js">
<polygon fill="#ffffcc" stroke="black" points="239,-84 237.5,-86 227,-86 225.5,-84 185,-84 185,-66 239,-66 239,-84"/>
<text text-anchor="start" x="194.5" y="-72.8" font-family="Helvetica,sans-Serif" font-size="9.00">index.js</text>
</a>
</g>
</g>
<!-- packages/cli/chord&#45;analyze&#45;cli/index.ts&#45;&gt;packages/music&#45;structure/chord/chord&#45;analyze/dist/index.js -->
<g id="edge1" class="edge">
<title>packages/cli/chord&#45;analyze&#45;cli/index.ts&#45;&gt;packages/music&#45;structure/chord/chord&#45;analyze/dist/index.js</title>
<path fill="none" stroke="#000000" stroke-width="2" stroke-opacity="0.200000" d="M95.04,-75C118.52,-75 153.12,-75 178.42,-75"/>
<polygon fill="#000000" fill-opacity="0.200000" stroke="#000000" stroke-width="2" stroke-opacity="0.200000" points="178.64,-77.1 184.64,-75 178.64,-72.9 178.64,-77.1"/>
</g>
<!-- packages/util/time&#45;and/dist/index.js -->
<g id="node3" class="node">
<title>packages/util/time&#45;and/dist/index.js</title>
<g id="a_node3"><a xlink:href="packages/util/time-and/dist/index.js" xlink:title="index.js">
<polygon fill="#ffffcc" stroke="black" points="239,-238 237.5,-240 227,-240 225.5,-238 185,-238 185,-220 239,-220 239,-238"/>
<text text-anchor="start" x="194.5" y="-226.8" font-family="Helvetica,sans-Serif" font-size="9.00">index.js</text>
</a>
</g>
</g>
<!-- packages/cli/chord&#45;analyze&#45;cli/index.ts&#45;&gt;packages/util/time&#45;and/dist/index.js -->
<g id="edge2" class="edge">
<title>packages/cli/chord&#45;analyze&#45;cli/index.ts&#45;&gt;packages/util/time&#45;and/dist/index.js</title>
<path fill="none" stroke="#000000" stroke-width="2" stroke-opacity="0.200000" d="M77.46,-84.17C101.37,-110.11 169.61,-184.11 198.18,-215.09"/>
<polygon fill="#000000" fill-opacity="0.200000" stroke="#000000" stroke-width="2" stroke-opacity="0.200000" points="196.8,-216.69 202.41,-219.68 199.88,-213.85 196.8,-216.69"/>
</g>
<!-- readline -->
<g id="node4" class="node">
<title>readline</title>
<g id="a_node4"><a xlink:href="https://nodejs.org/api/readline.html" xlink:title="readline">
<path fill="#ffffcc" stroke="grey" d="M233,-18C233,-18 191,-18 191,-18 188,-18 185,-15 185,-12 185,-12 185,-6 185,-6 185,-3 188,0 191,0 191,0 233,0 233,0 236,0 239,-3 239,-6 239,-6 239,-12 239,-12 239,-15 236,-18 233,-18"/>
<text text-anchor="middle" x="212" y="-6.8" font-family="Helvetica,sans-Serif" font-size="9.00" fill="grey">readline</text>
</a>
</g>
</g>
<!-- packages/cli/chord&#45;analyze&#45;cli/index.ts&#45;&gt;readline -->
<g id="edge3" class="edge">
<title>packages/cli/chord&#45;analyze&#45;cli/index.ts&#45;&gt;readline</title>
<path fill="none" stroke="#000000" stroke-dasharray="5,2" stroke-opacity="0.200000" d="M88.45,-65.96C113.69,-54.23 157.8,-33.73 185.65,-20.78"/>
<polygon fill="#000000" fill-opacity="0.200000" stroke="#000000" stroke-opacity="0.200000" points="186.78,-22.57 191.33,-18.14 185.01,-18.77 186.78,-22.57"/>
</g>
</g>
</svg>
