<?xml version="1.0" encoding="UTF-8" standalone="no"?>
<!DOCTYPE svg PUBLIC "-//W3C//DTD SVG 1.1//EN"
 "http://www.w3.org/Graphics/SVG/1.1/DTD/svg11.dtd">
<!-- Generated by graphviz version 2.43.0 (0)
 -->
<!-- Title: dependency&#45;cruiser output Pages: 1 -->
<svg width="163pt" height="134pt"
 viewBox="0.00 0.00 163.13 133.62" xmlns="http://www.w3.org/2000/svg" xmlns:xlink="http://www.w3.org/1999/xlink">
<g id="graph0" class="graph" transform="scale(1 1) rotate(0) translate(4 129.62)">
<title>dependency&#45;cruiser output</title>
<polygon fill="white" stroke="transparent" points="-4,4 -4,-129.62 159.13,-129.62 159.13,4 -4,4"/>
<g id="clust1" class="cluster">
<title>cluster_packages</title>
<path fill="#ffffff" stroke="black" stroke-width="2" d="M28.76,0C28.76,0 143.13,0 143.13,0 149.13,0 155.13,-6 155.13,-12 155.13,-12 155.13,-74.22 155.13,-74.22 155.13,-80.22 149.13,-86.22 143.13,-86.22 143.13,-86.22 28.76,-86.22 28.76,-86.22 22.76,-86.22 16.76,-80.22 16.76,-74.22 16.76,-74.22 16.76,-12 16.76,-12 16.76,-6 22.76,0 28.76,0"/>
<text text-anchor="middle" x="85.94" y="-75.02" font-family="Helvetica,sans-Serif" font-weight="bold" font-size="9.00">packages</text>
</g>
<!-- packages/cli/chord&#45;analyze&#45;cli/index.ts -->
<g id="node1" class="node">
<title>packages/cli/chord&#45;analyze&#45;cli/index.ts</title>
<g id="a_node1"><a xlink:href="packages/cli/chord-analyze-cli/index.ts" xlink:title="index.ts">
<path fill="#ddfeff" stroke="black" d="M87.13,-76.6C87.13,-76.6 45.13,-76.6 45.13,-76.6 42.13,-76.6 39.13,-73.6 39.13,-70.6 39.13,-70.6 39.13,-64.6 39.13,-64.6 39.13,-61.6 42.13,-58.6 45.13,-58.6 45.13,-58.6 87.13,-58.6 87.13,-58.6 90.13,-58.6 93.13,-61.6 93.13,-64.6 93.13,-64.6 93.13,-70.6 93.13,-70.6 93.13,-73.6 90.13,-76.6 87.13,-76.6"/>
<text text-anchor="start" x="47.63" y="-65.4" font-family="Helvetica,sans-Serif" font-size="9.00">index.ts</text>
</a>
</g>
</g>
<!-- packages/music&#45;structure/chord/chord&#45;analyze/dist/index.js -->
<g id="node2" class="node">
<title>packages/music&#45;structure/chord/chord&#45;analyze/dist/index.js</title>
<g id="a_node2"><a xlink:href="packages/music-structure/chord/chord-analyze/dist/index.js" xlink:title="index.js">
<polygon fill="#ffffcc" stroke="black" points="155.13,-86.22 153.63,-88.22 143.13,-88.22 141.63,-86.22 101.13,-86.22 101.13,-68.22 155.13,-68.22 155.13,-86.22"/>
<text text-anchor="start" x="110.63" y="-75.02" font-family="Helvetica,sans-Serif" font-size="9.00">index.js</text>
</a>
</g>
</g>
<!-- packages/cli/chord&#45;analyze&#45;cli/index.ts&#45;&gt;packages/music&#45;structure/chord/chord&#45;analyze/dist/index.js -->
<g id="edge1" class="edge">
<title>packages/cli/chord&#45;analyze&#45;cli/index.ts&#45;&gt;packages/music&#45;structure/chord/chord&#45;analyze/dist/index.js</title>
<path fill="none" stroke="#000000" stroke-width="2" stroke-opacity="0.200000" d="M93.14,-71.79C93.63,-71.87 94.12,-71.94 94.62,-72.02"/>
<polygon fill="#000000" fill-opacity="0.200000" stroke="#000000" stroke-width="2" stroke-opacity="0.200000" points="94.76,-74.17 101.01,-73.01 95.41,-70.02 94.76,-74.17"/>
</g>
<!-- packages/util/time&#45;and/dist/index.js -->
<g id="node3" class="node">
<title>packages/util/time&#45;and/dist/index.js</title>
<g id="a_node3"><a xlink:href="packages/util/time-and/dist/index.js" xlink:title="index.js">
<polygon fill="#ffffcc" stroke="black" points="70.76,-18 69.26,-20 58.76,-20 57.26,-18 16.76,-18 16.76,0 70.76,0 70.76,-18"/>
<text text-anchor="start" x="26.26" y="-6.8" font-family="Helvetica,sans-Serif" font-size="9.00">index.js</text>
</a>
</g>
</g>
<!-- packages/cli/chord&#45;analyze&#45;cli/index.ts&#45;&gt;packages/util/time&#45;and/dist/index.js -->
<g id="edge2" class="edge">
<title>packages/cli/chord&#45;analyze&#45;cli/index.ts&#45;&gt;packages/util/time&#45;and/dist/index.js</title>
<path fill="none" stroke="#000000" stroke-width="2" stroke-opacity="0.200000" d="M62.63,-58.44C59.11,-49.21 53.61,-34.8 49.45,-23.91"/>
<polygon fill="#000000" fill-opacity="0.200000" stroke="#000000" stroke-width="2" stroke-opacity="0.200000" points="51.4,-23.14 47.3,-18.29 47.48,-24.64 51.4,-23.14"/>
</g>
<!-- readline -->
<g id="node4" class="node">
<title>readline</title>
<g id="a_node4"><a xlink:href="https://nodejs.org/api/readline.html" xlink:title="readline">
<path fill="#ffffcc" stroke="grey" d="M48,-125.62C48,-125.62 6,-125.62 6,-125.62 3,-125.62 0,-122.62 0,-119.62 0,-119.62 0,-113.62 0,-113.62 0,-110.62 3,-107.62 6,-107.62 6,-107.62 48,-107.62 48,-107.62 51,-107.62 54,-110.62 54,-113.62 54,-113.62 54,-119.62 54,-119.62 54,-122.62 51,-125.62 48,-125.62"/>
<text text-anchor="middle" x="27" y="-114.42" font-family="Helvetica,sans-Serif" font-size="9.00" fill="grey">readline</text>
</a>
</g>
</g>
<!-- packages/cli/chord&#45;analyze&#45;cli/index.ts&#45;&gt;readline -->
<g id="edge3" class="edge">
<title>packages/cli/chord&#45;analyze&#45;cli/index.ts&#45;&gt;readline</title>
<path fill="none" stroke="#000000" stroke-dasharray="5,2" stroke-opacity="0.200000" d="M58.58,-77.05C52.77,-84.33 44.65,-94.51 38.1,-102.71"/>
<polygon fill="#000000" fill-opacity="0.200000" stroke="#000000" stroke-opacity="0.200000" points="36.36,-101.53 34.26,-107.53 39.64,-104.15 36.36,-101.53"/>
</g>
</g>
</svg>
