<?xml version="1.0" encoding="UTF-8" standalone="no"?>
<!DOCTYPE svg PUBLIC "-//W3C//DTD SVG 1.1//EN"
 "http://www.w3.org/Graphics/SVG/1.1/DTD/svg11.dtd">
<!-- Generated by graphviz version 2.43.0 (0)
 -->
<!-- Title: dependency&#45;cruiser output Pages: 1 -->
<svg width="1013pt" height="1110pt"
 viewBox="0.00 0.00 1013.00 1110.00" xmlns="http://www.w3.org/2000/svg" xmlns:xlink="http://www.w3.org/1999/xlink">
<g id="graph0" class="graph" transform="scale(1 1) rotate(0) translate(4 1106)">
<title>dependency&#45;cruiser output</title>
<polygon fill="white" stroke="transparent" points="-4,4 -4,-1106 1009,-1106 1009,4 -4,4"/>
<g id="clust1" class="cluster">
<title>cluster_packages</title>
<path fill="#ffffff" stroke="black" stroke-width="2" d="M12,-26C12,-26 985,-26 985,-26 991,-26 997,-32 997,-38 997,-38 997,-1082 997,-1082 997,-1088 991,-1094 985,-1094 985,-1094 12,-1094 12,-1094 6,-1094 0,-1088 0,-1082 0,-1082 0,-38 0,-38 0,-32 6,-26 12,-26"/>
<text text-anchor="middle" x="498.5" y="-1082.8" font-family="Helvetica,sans-Serif" font-weight="bold" font-size="9.00">packages</text>
</g>
<g id="clust2" class="cluster">
<title>cluster_packages/cli</title>
<path fill="#ffffff" stroke="black" stroke-width="2" d="M20,-692C20,-692 116,-692 116,-692 122,-692 128,-698 128,-704 128,-704 128,-766 128,-766 128,-772 122,-778 116,-778 116,-778 20,-778 20,-778 14,-778 8,-772 8,-766 8,-766 8,-704 8,-704 8,-698 14,-692 20,-692"/>
<text text-anchor="middle" x="68" y="-766.8" font-family="Helvetica,sans-Serif" font-weight="bold" font-size="9.00">cli</text>
</g>
<g id="clust3" class="cluster">
<title>cluster_packages/cli/chord&#45;analyze&#45;cli</title>
<path fill="#ffffff" stroke="black" stroke-width="2" d="M28,-700C28,-700 108,-700 108,-700 114,-700 120,-706 120,-712 120,-712 120,-740 120,-740 120,-746 114,-752 108,-752 108,-752 28,-752 28,-752 22,-752 16,-746 16,-740 16,-740 16,-712 16,-712 16,-706 22,-700 28,-700"/>
<text text-anchor="middle" x="68" y="-740.8" font-family="Helvetica,sans-Serif" font-weight="bold" font-size="9.00">chord&#45;analyze&#45;cli</text>
</g>
<g id="clust4" class="cluster">
<title>cluster_packages/cognitive&#45;theory&#45;of&#45;music</title>
<path fill="#ffffff" stroke="black" stroke-width="2" d="M528,-478C528,-478 653,-478 653,-478 659,-478 665,-484 665,-490 665,-490 665,-586 665,-586 665,-592 659,-598 653,-598 653,-598 528,-598 528,-598 522,-598 516,-592 516,-586 516,-586 516,-490 516,-490 516,-484 522,-478 528,-478"/>
<text text-anchor="middle" x="590.5" y="-586.8" font-family="Helvetica,sans-Serif" font-weight="bold" font-size="9.00">cognitive&#45;theory&#45;of&#45;music</text>
</g>
<g id="clust5" class="cluster">
<title>cluster_packages/cognitive&#45;theory&#45;of&#45;music/tonal&#45;pitch&#45;space</title>
<path fill="#ffffff" stroke="black" stroke-width="2" d="M549,-486C549,-486 631,-486 631,-486 637,-486 643,-492 643,-498 643,-498 643,-560 643,-560 643,-566 637,-572 631,-572 631,-572 549,-572 549,-572 543,-572 537,-566 537,-560 537,-560 537,-498 537,-498 537,-492 543,-486 549,-486"/>
<text text-anchor="middle" x="590" y="-560.8" font-family="Helvetica,sans-Serif" font-weight="bold" font-size="9.00">tonal&#45;pitch&#45;space</text>
</g>
<g id="clust6" class="cluster">
<title>cluster_packages/cognitive&#45;theory&#45;of&#45;music/tonal&#45;pitch&#45;space/dist</title>
<path fill="#ffffff" stroke="black" stroke-width="2" d="M567,-494C567,-494 613,-494 613,-494 619,-494 625,-500 625,-506 625,-506 625,-534 625,-534 625,-540 619,-546 613,-546 613,-546 567,-546 567,-546 561,-546 555,-540 555,-534 555,-534 555,-506 555,-506 555,-500 561,-494 567,-494"/>
<text text-anchor="middle" x="590" y="-534.8" font-family="Helvetica,sans-Serif" font-weight="bold" font-size="9.00">dist</text>
</g>
<g id="clust7" class="cluster">
<title>cluster_packages/music&#45;structure</title>
<path fill="#ffffff" stroke="black" stroke-width="2" d="M156,-606C156,-606 846,-606 846,-606 852,-606 858,-612 858,-618 858,-618 858,-1056 858,-1056 858,-1062 852,-1068 846,-1068 846,-1068 156,-1068 156,-1068 150,-1068 144,-1062 144,-1056 144,-1056 144,-618 144,-618 144,-612 150,-606 156,-606"/>
<text text-anchor="middle" x="501" y="-1056.8" font-family="Helvetica,sans-Serif" font-weight="bold" font-size="9.00">music&#45;structure</text>
</g>
<g id="clust8" class="cluster">
<title>cluster_packages/music&#45;structure/chord</title>
<path fill="#ffffff" stroke="black" stroke-width="2" d="M164,-614C164,-614 838,-614 838,-614 844,-614 850,-620 850,-626 850,-626 850,-1030 850,-1030 850,-1036 844,-1042 838,-1042 838,-1042 164,-1042 164,-1042 158,-1042 152,-1036 152,-1030 152,-1030 152,-626 152,-626 152,-620 158,-614 164,-614"/>
<text text-anchor="middle" x="501" y="-1030.8" font-family="Helvetica,sans-Serif" font-weight="bold" font-size="9.00">chord</text>
</g>
<g id="clust9" class="cluster">
<title>cluster_packages/music&#45;structure/chord/chord&#45;analyze</title>
<path fill="#ffffff" stroke="black" stroke-width="2" d="M172,-622C172,-622 830,-622 830,-622 836,-622 842,-628 842,-634 842,-634 842,-910 842,-910 842,-916 836,-922 830,-922 830,-922 172,-922 172,-922 166,-922 160,-916 160,-910 160,-910 160,-634 160,-634 160,-628 166,-622 172,-622"/>
<text text-anchor="middle" x="501" y="-910.8" font-family="Helvetica,sans-Serif" font-weight="bold" font-size="9.00">chord&#45;analyze</text>
</g>
<g id="clust10" class="cluster">
<title>cluster_packages/music&#45;structure/chord/chord&#45;analyze/src</title>
<path fill="#ffffff" stroke="black" stroke-width="2" d="M180,-630C180,-630 822,-630 822,-630 828,-630 834,-636 834,-642 834,-642 834,-884 834,-884 834,-890 828,-896 822,-896 822,-896 180,-896 180,-896 174,-896 168,-890 168,-884 168,-884 168,-642 168,-642 168,-636 174,-630 180,-630"/>
<text text-anchor="middle" x="501" y="-884.8" font-family="Helvetica,sans-Serif" font-weight="bold" font-size="9.00">src</text>
</g>
<g id="clust11" class="cluster">
<title>cluster_packages/music&#45;structure/chord/chord&#45;analyze/src/chord&#45;analyze</title>
<path fill="#ffffff" stroke="black" stroke-width="2" d="M188,-638C188,-638 472,-638 472,-638 478,-638 484,-644 484,-650 484,-650 484,-798 484,-798 484,-804 478,-810 472,-810 472,-810 188,-810 188,-810 182,-810 176,-804 176,-798 176,-798 176,-650 176,-650 176,-644 182,-638 188,-638"/>
<text text-anchor="middle" x="330" y="-798.8" font-family="Helvetica,sans-Serif" font-weight="bold" font-size="9.00">chord&#45;analyze</text>
</g>
<g id="clust12" class="cluster">
<title>cluster_packages/music&#45;structure/chord/chord&#45;analyze/src/key&#45;estimation</title>
<path fill="#ffffff" stroke="black" stroke-width="2" d="M351,-818C351,-818 814,-818 814,-818 820,-818 826,-824 826,-830 826,-830 826,-858 826,-858 826,-864 820,-870 814,-870 814,-870 351,-870 351,-870 345,-870 339,-864 339,-858 339,-858 339,-830 339,-830 339,-824 345,-818 351,-818"/>
<text text-anchor="middle" x="582.5" y="-858.8" font-family="Helvetica,sans-Serif" font-weight="bold" font-size="9.00">key&#45;estimation</text>
</g>
<g id="clust13" class="cluster">
<title>cluster_packages/music&#45;structure/chord/roman&#45;chord</title>
<path fill="#ffffff" stroke="black" stroke-width="2" d="M559,-930C559,-930 621,-930 621,-930 627,-930 633,-936 633,-942 633,-942 633,-1004 633,-1004 633,-1010 627,-1016 621,-1016 621,-1016 559,-1016 559,-1016 553,-1016 547,-1010 547,-1004 547,-1004 547,-942 547,-942 547,-936 553,-930 559,-930"/>
<text text-anchor="middle" x="590" y="-1004.8" font-family="Helvetica,sans-Serif" font-weight="bold" font-size="9.00">roman&#45;chord</text>
</g>
<g id="clust14" class="cluster">
<title>cluster_packages/music&#45;structure/chord/roman&#45;chord/dist</title>
<path fill="#ffffff" stroke="black" stroke-width="2" d="M567,-938C567,-938 613,-938 613,-938 619,-938 625,-944 625,-950 625,-950 625,-978 625,-978 625,-984 619,-990 613,-990 613,-990 567,-990 567,-990 561,-990 555,-984 555,-978 555,-978 555,-950 555,-950 555,-944 561,-938 567,-938"/>
<text text-anchor="middle" x="590" y="-978.8" font-family="Helvetica,sans-Serif" font-weight="bold" font-size="9.00">dist</text>
</g>
<g id="clust15" class="cluster">
<title>cluster_packages/tonal&#45;objects</title>
<path fill="#ffffff" stroke="black" stroke-width="2" d="M732,-512C732,-512 794,-512 794,-512 800,-512 806,-518 806,-524 806,-524 806,-586 806,-586 806,-592 800,-598 794,-598 794,-598 732,-598 732,-598 726,-598 720,-592 720,-586 720,-586 720,-524 720,-524 720,-518 726,-512 732,-512"/>
<text text-anchor="middle" x="763" y="-586.8" font-family="Helvetica,sans-Serif" font-weight="bold" font-size="9.00">tonal&#45;objects</text>
</g>
<g id="clust16" class="cluster">
<title>cluster_packages/tonal&#45;objects/dist</title>
<path fill="#ffffff" stroke="black" stroke-width="2" d="M740,-520C740,-520 786,-520 786,-520 792,-520 798,-526 798,-532 798,-532 798,-560 798,-560 798,-566 792,-572 786,-572 786,-572 740,-572 740,-572 734,-572 728,-566 728,-560 728,-560 728,-532 728,-532 728,-526 734,-520 740,-520"/>
<text text-anchor="middle" x="763" y="-560.8" font-family="Helvetica,sans-Serif" font-weight="bold" font-size="9.00">dist</text>
</g>
<g id="clust17" class="cluster">
<title>cluster_packages/util</title>
<path fill="#ffffff" stroke="black" stroke-width="2" d="M709,-34C709,-34 977,-34 977,-34 983,-34 989,-40 989,-46 989,-46 989,-492 989,-492 989,-498 983,-504 977,-504 977,-504 709,-504 709,-504 703,-504 697,-498 697,-492 697,-492 697,-46 697,-46 697,-40 703,-34 709,-34"/>
<text text-anchor="middle" x="843" y="-492.8" font-family="Helvetica,sans-Serif" font-weight="bold" font-size="9.00">util</text>
</g>
<g id="clust18" class="cluster">
<title>cluster_packages/util/graph</title>
<path fill="#ffffff" stroke="black" stroke-width="2" d="M732,-136C732,-136 794,-136 794,-136 800,-136 806,-142 806,-148 806,-148 806,-210 806,-210 806,-216 800,-222 794,-222 794,-222 732,-222 732,-222 726,-222 720,-216 720,-210 720,-210 720,-148 720,-148 720,-142 726,-136 732,-136"/>
<text text-anchor="middle" x="763" y="-210.8" font-family="Helvetica,sans-Serif" font-weight="bold" font-size="9.00">graph</text>
</g>
<g id="clust19" class="cluster">
<title>cluster_packages/util/graph/dist</title>
<path fill="#ffffff" stroke="black" stroke-width="2" d="M740,-144C740,-144 786,-144 786,-144 792,-144 798,-150 798,-156 798,-156 798,-184 798,-184 798,-190 792,-196 786,-196 786,-196 740,-196 740,-196 734,-196 728,-190 728,-184 728,-184 728,-156 728,-156 728,-150 734,-144 740,-144"/>
<text text-anchor="middle" x="763" y="-184.8" font-family="Helvetica,sans-Serif" font-weight="bold" font-size="9.00">dist</text>
</g>
<g id="clust20" class="cluster">
<title>cluster_packages/util/math</title>
<path fill="#ffffff" stroke="black" stroke-width="2" d="M717,-230C717,-230 969,-230 969,-230 975,-230 981,-236 981,-242 981,-242 981,-338 981,-338 981,-344 975,-350 969,-350 969,-350 717,-350 717,-350 711,-350 705,-344 705,-338 705,-338 705,-242 705,-242 705,-236 711,-230 717,-230"/>
<text text-anchor="middle" x="843" y="-338.8" font-family="Helvetica,sans-Serif" font-weight="bold" font-size="9.00">math</text>
</g>
<g id="clust21" class="cluster">
<title>cluster_packages/util/math/src</title>
<path fill="#ffffff" stroke="black" stroke-width="2" d="M725,-238C725,-238 961,-238 961,-238 967,-238 973,-244 973,-250 973,-250 973,-312 973,-312 973,-318 967,-324 961,-324 961,-324 725,-324 725,-324 719,-324 713,-318 713,-312 713,-312 713,-250 713,-250 713,-244 719,-238 725,-238"/>
<text text-anchor="middle" x="843" y="-312.8" font-family="Helvetica,sans-Serif" font-weight="bold" font-size="9.00">src</text>
</g>
<g id="clust22" class="cluster">
<title>cluster_packages/util/math/src/reduction</title>
<path fill="#ffffff" stroke="black" stroke-width="2" d="M733,-246C733,-246 953,-246 953,-246 959,-246 965,-252 965,-258 965,-258 965,-286 965,-286 965,-292 959,-298 953,-298 953,-298 733,-298 733,-298 727,-298 721,-292 721,-286 721,-286 721,-258 721,-258 721,-252 727,-246 733,-246"/>
<text text-anchor="middle" x="843" y="-286.8" font-family="Helvetica,sans-Serif" font-weight="bold" font-size="9.00">reduction</text>
</g>
<g id="clust23" class="cluster">
<title>cluster_packages/util/stdlib</title>
<path fill="#ffffff" stroke="black" stroke-width="2" d="M717,-358C717,-358 809,-358 809,-358 815,-358 821,-364 821,-370 821,-370 821,-466 821,-466 821,-472 815,-478 809,-478 809,-478 717,-478 717,-478 711,-478 705,-472 705,-466 705,-466 705,-370 705,-370 705,-364 711,-358 717,-358"/>
<text text-anchor="middle" x="763" y="-466.8" font-family="Helvetica,sans-Serif" font-weight="bold" font-size="9.00">stdlib</text>
</g>
<g id="clust24" class="cluster">
<title>cluster_packages/util/stdlib/src</title>
<path fill="#ffffff" stroke="black" stroke-width="2" d="M725,-366C725,-366 801,-366 801,-366 807,-366 813,-372 813,-378 813,-378 813,-440 813,-440 813,-446 807,-452 801,-452 801,-452 725,-452 725,-452 719,-452 713,-446 713,-440 713,-440 713,-378 713,-378 713,-372 719,-366 725,-366"/>
<text text-anchor="middle" x="763" y="-440.8" font-family="Helvetica,sans-Serif" font-weight="bold" font-size="9.00">src</text>
</g>
<g id="clust25" class="cluster">
<title>cluster_packages/util/stdlib/src/assertion</title>
<path fill="#ffffff" stroke="black" stroke-width="2" d="M733,-374C733,-374 793,-374 793,-374 799,-374 805,-380 805,-386 805,-386 805,-414 805,-414 805,-420 799,-426 793,-426 793,-426 733,-426 733,-426 727,-426 721,-420 721,-414 721,-414 721,-386 721,-386 721,-380 727,-374 733,-374"/>
<text text-anchor="middle" x="763" y="-414.8" font-family="Helvetica,sans-Serif" font-weight="bold" font-size="9.00">assertion</text>
</g>
<g id="clust26" class="cluster">
<title>cluster_packages/util/time&#45;and</title>
<path fill="#ffffff" stroke="black" stroke-width="2" d="M732,-42C732,-42 794,-42 794,-42 800,-42 806,-48 806,-54 806,-54 806,-116 806,-116 806,-122 800,-128 794,-128 794,-128 732,-128 732,-128 726,-128 720,-122 720,-116 720,-116 720,-54 720,-54 720,-48 726,-42 732,-42"/>
<text text-anchor="middle" x="763" y="-116.8" font-family="Helvetica,sans-Serif" font-weight="bold" font-size="9.00">time&#45;and</text>
</g>
<g id="clust27" class="cluster">
<title>cluster_packages/util/time&#45;and/dist</title>
<path fill="#ffffff" stroke="black" stroke-width="2" d="M740,-50C740,-50 786,-50 786,-50 792,-50 798,-56 798,-62 798,-62 798,-90 798,-90 798,-96 792,-102 786,-102 786,-102 740,-102 740,-102 734,-102 728,-96 728,-90 728,-90 728,-62 728,-62 728,-56 734,-50 740,-50"/>
<text text-anchor="middle" x="763" y="-90.8" font-family="Helvetica,sans-Serif" font-weight="bold" font-size="9.00">dist</text>
</g>
<!-- packages/cli/chord&#45;analyze&#45;cli/index.ts -->
<g id="node1" class="node">
<title>packages/cli/chord&#45;analyze&#45;cli/index.ts</title>
<g id="a_node1"><a xlink:href="packages/cli/chord-analyze-cli/index.ts" xlink:title="index.ts">
<path fill="#ddfeff" stroke="black" d="M89,-726C89,-726 47,-726 47,-726 44,-726 41,-723 41,-720 41,-720 41,-714 41,-714 41,-711 44,-708 47,-708 47,-708 89,-708 89,-708 92,-708 95,-711 95,-714 95,-714 95,-720 95,-720 95,-723 92,-726 89,-726"/>
<text text-anchor="start" x="49.5" y="-714.8" font-family="Helvetica,sans-Serif" font-size="9.00">index.ts</text>
</a>
</g>
</g>
<!-- packages/music&#45;structure/chord/chord&#45;analyze/src/chord&#45;analyze/calc&#45;chord&#45;progression.ts -->
<g id="node2" class="node">
<title>packages/music&#45;structure/chord/chord&#45;analyze/src/chord&#45;analyze/calc&#45;chord&#45;progression.ts</title>
<g id="a_node2"><a xlink:href="packages/music-structure/chord/chord-analyze/src/chord-analyze/calc-chord-progression.ts" xlink:title="calc&#45;chord&#45;progression.ts">
<path fill="#ddfeff" stroke="black" d="M309,-726C309,-726 190,-726 190,-726 187,-726 184,-723 184,-720 184,-720 184,-714 184,-714 184,-711 187,-708 190,-708 190,-708 309,-708 309,-708 312,-708 315,-711 315,-714 315,-714 315,-720 315,-720 315,-723 312,-726 309,-726"/>
<text text-anchor="start" x="192" y="-714.8" font-family="Helvetica,sans-Serif" font-size="9.00">calc&#45;chord&#45;progression.ts</text>
</a>
</g>
</g>
<!-- packages/cli/chord&#45;analyze&#45;cli/index.ts&#45;&gt;packages/music&#45;structure/chord/chord&#45;analyze/src/chord&#45;analyze/calc&#45;chord&#45;progression.ts -->
<g id="edge1" class="edge">
<title>packages/cli/chord&#45;analyze&#45;cli/index.ts&#45;&gt;packages/music&#45;structure/chord/chord&#45;analyze/src/chord&#45;analyze/calc&#45;chord&#45;progression.ts</title>
<path fill="none" stroke="#000000" stroke-width="2" stroke-opacity="0.200000" d="M95.1,-717C116.8,-717 148.72,-717 177.83,-717"/>
<polygon fill="#000000" fill-opacity="0.200000" stroke="#000000" stroke-width="2" stroke-opacity="0.200000" points="177.99,-719.1 183.99,-717 177.99,-714.9 177.99,-719.1"/>
</g>
<!-- packages/music&#45;structure/chord/chord&#45;analyze/src/chord&#45;analyze/time&#45;and&#45;chord.ts -->
<g id="node3" class="node">
<title>packages/music&#45;structure/chord/chord&#45;analyze/src/chord&#45;analyze/time&#45;and&#45;chord.ts</title>
<g id="a_node3"><a xlink:href="packages/music-structure/chord/chord-analyze/src/chord-analyze/time-and-chord.ts" xlink:title="time&#45;and&#45;chord.ts">
<path fill="#ddfeff" stroke="black" d="M445,-784C445,-784 359,-784 359,-784 356,-784 353,-781 353,-778 353,-778 353,-772 353,-772 353,-769 356,-766 359,-766 359,-766 445,-766 445,-766 448,-766 451,-769 451,-772 451,-772 451,-778 451,-778 451,-781 448,-784 445,-784"/>
<text text-anchor="start" x="361" y="-772.8" font-family="Helvetica,sans-Serif" font-size="9.00">time&#45;and&#45;chord.ts</text>
</a>
</g>
</g>
<!-- packages/cli/chord&#45;analyze&#45;cli/index.ts&#45;&gt;packages/music&#45;structure/chord/chord&#45;analyze/src/chord&#45;analyze/time&#45;and&#45;chord.ts -->
<g id="edge2" class="edge">
<title>packages/cli/chord&#45;analyze&#45;cli/index.ts&#45;&gt;packages/music&#45;structure/chord/chord&#45;analyze/src/chord&#45;analyze/time&#45;and&#45;chord.ts</title>
<path fill="none" stroke="#000000" stroke-width="2" stroke-opacity="0.200000" d="M95.05,-721.7C149.73,-731.19 274.37,-752.84 346.89,-765.43"/>
<polygon fill="#000000" fill-opacity="0.200000" stroke="#000000" stroke-width="2" stroke-opacity="0.200000" points="346.6,-767.51 352.88,-766.47 347.32,-763.37 346.6,-767.51"/>
</g>
<!-- packages/music&#45;structure/chord/chord&#45;analyze/src/chord&#45;analyze/time&#45;and&#45;roman&#45;analysis.ts -->
<g id="node4" class="node">
<title>packages/music&#45;structure/chord/chord&#45;analyze/src/chord&#45;analyze/time&#45;and&#45;roman&#45;analysis.ts</title>
<g id="a_node4"><a xlink:href="packages/music-structure/chord/chord-analyze/src/chord-analyze/time-and-roman-analysis.ts" xlink:title="time&#45;and&#45;roman&#45;analysis.ts">
<path fill="#ddfeff" stroke="black" d="M465.5,-754C465.5,-754 338.5,-754 338.5,-754 335.5,-754 332.5,-751 332.5,-748 332.5,-748 332.5,-742 332.5,-742 332.5,-739 335.5,-736 338.5,-736 338.5,-736 465.5,-736 465.5,-736 468.5,-736 471.5,-739 471.5,-742 471.5,-742 471.5,-748 471.5,-748 471.5,-751 468.5,-754 465.5,-754"/>
<text text-anchor="start" x="340.5" y="-742.8" font-family="Helvetica,sans-Serif" font-size="9.00">time&#45;and&#45;roman&#45;analysis.ts</text>
</a>
</g>
</g>
<!-- packages/cli/chord&#45;analyze&#45;cli/index.ts&#45;&gt;packages/music&#45;structure/chord/chord&#45;analyze/src/chord&#45;analyze/time&#45;and&#45;roman&#45;analysis.ts -->
<g id="edge3" class="edge">
<title>packages/cli/chord&#45;analyze&#45;cli/index.ts&#45;&gt;packages/music&#45;structure/chord/chord&#45;analyze/src/chord&#45;analyze/time&#45;and&#45;roman&#45;analysis.ts</title>
<path fill="none" stroke="#000000" stroke-width="2" stroke-opacity="0.200000" d="M95.05,-719.27C144.82,-723.44 252.55,-732.47 326.18,-738.64"/>
<polygon fill="#000000" fill-opacity="0.200000" stroke="#000000" stroke-width="2" stroke-opacity="0.200000" points="326.15,-740.75 332.31,-739.16 326.51,-736.56 326.15,-740.75"/>
</g>
<!-- packages/util/time&#45;and/dist/index.js -->
<g id="node5" class="node">
<title>packages/util/time&#45;and/dist/index.js</title>
<g id="a_node5"><a xlink:href="packages/util/time-and/dist/index.js" xlink:title="index.js">
<polygon fill="#ffffcc" stroke="black" points="790,-76 788.5,-78 778,-78 776.5,-76 736,-76 736,-58 790,-58 790,-76"/>
<text text-anchor="start" x="745.5" y="-64.8" font-family="Helvetica,sans-Serif" font-size="9.00">index.js</text>
</a>
</g>
</g>
<!-- packages/cli/chord&#45;analyze&#45;cli/index.ts&#45;&gt;packages/util/time&#45;and/dist/index.js -->
<g id="edge4" class="edge">
<title>packages/cli/chord&#45;analyze&#45;cli/index.ts&#45;&gt;packages/util/time&#45;and/dist/index.js</title>
<path fill="none" stroke="#000000" stroke-width="2" stroke-opacity="0.200000" d="M77.82,-707.81C154.49,-636.11 656.39,-166.71 748.49,-80.57"/>
<polygon fill="#000000" fill-opacity="0.200000" stroke="#000000" stroke-width="2" stroke-opacity="0.200000" points="750.09,-81.95 753.04,-76.32 747.22,-78.88 750.09,-81.95"/>
</g>
<!-- readline -->
<g id="node6" class="node">
<title>readline</title>
<g id="a_node6"><a xlink:href="https://nodejs.org/api/readline.html" xlink:title="readline">
<path fill="#ffffcc" stroke="grey" d="M270.5,-18C270.5,-18 228.5,-18 228.5,-18 225.5,-18 222.5,-15 222.5,-12 222.5,-12 222.5,-6 222.5,-6 222.5,-3 225.5,0 228.5,0 228.5,0 270.5,0 270.5,0 273.5,0 276.5,-3 276.5,-6 276.5,-6 276.5,-12 276.5,-12 276.5,-15 273.5,-18 270.5,-18"/>
<text text-anchor="middle" x="249.5" y="-6.8" font-family="Helvetica,sans-Serif" font-size="9.00" fill="grey">readline</text>
</a>
</g>
</g>
<!-- packages/cli/chord&#45;analyze&#45;cli/index.ts&#45;&gt;readline -->
<g id="edge5" class="edge">
<title>packages/cli/chord&#45;analyze&#45;cli/index.ts&#45;&gt;readline</title>
<path fill="none" stroke="#000000" stroke-dasharray="5,2" stroke-opacity="0.200000" d="M71.34,-707.79C90.42,-632.53 220.6,-119.05 244.68,-24.09"/>
<polygon fill="#000000" fill-opacity="0.200000" stroke="#000000" stroke-opacity="0.200000" points="246.72,-24.55 246.16,-18.21 242.65,-23.51 246.72,-24.55"/>
</g>
<!-- packages/music&#45;structure/chord/chord&#45;analyze/src/chord&#45;analyze/calc&#45;chord&#45;progression.ts&#45;&gt;packages/music&#45;structure/chord/chord&#45;analyze/src/chord&#45;analyze/time&#45;and&#45;chord.ts -->
<g id="edge10" class="edge">
<title>packages/music&#45;structure/chord/chord&#45;analyze/src/chord&#45;analyze/calc&#45;chord&#45;progression.ts&#45;&gt;packages/music&#45;structure/chord/chord&#45;analyze/src/chord&#45;analyze/time&#45;and&#45;chord.ts</title>
<path fill="none" stroke="#000000" stroke-width="2" stroke-opacity="0.200000" d="M274.02,-726.06C300.26,-736.18 342.77,-752.56 371.29,-763.55"/>
<polygon fill="#000000" fill-opacity="0.200000" stroke="#000000" stroke-width="2" stroke-opacity="0.200000" points="370.8,-765.61 377.15,-765.81 372.31,-761.69 370.8,-765.61"/>
</g>
<!-- packages/music&#45;structure/chord/chord&#45;analyze/src/chord&#45;analyze/calc&#45;chord&#45;progression.ts&#45;&gt;packages/music&#45;structure/chord/chord&#45;analyze/src/chord&#45;analyze/time&#45;and&#45;roman&#45;analysis.ts -->
<g id="edge11" class="edge">
<title>packages/music&#45;structure/chord/chord&#45;analyze/src/chord&#45;analyze/calc&#45;chord&#45;progression.ts&#45;&gt;packages/music&#45;structure/chord/chord&#45;analyze/src/chord&#45;analyze/time&#45;and&#45;roman&#45;analysis.ts</title>
<path fill="none" stroke="#000000" stroke-width="2" stroke-opacity="0.200000" d="M298.95,-726.01C314.04,-728.82 330.8,-731.94 346.29,-734.82"/>
<polygon fill="#000000" fill-opacity="0.200000" stroke="#000000" stroke-width="2" stroke-opacity="0.200000" points="346.1,-736.92 352.39,-735.96 346.87,-732.79 346.1,-736.92"/>
</g>
<!-- packages/music&#45;structure/chord/chord&#45;analyze/src/key&#45;estimation/chord&#45;progression.ts -->
<g id="node8" class="node">
<title>packages/music&#45;structure/chord/chord&#45;analyze/src/key&#45;estimation/chord&#45;progression.ts</title>
<g id="a_node8"><a xlink:href="packages/music-structure/chord/chord-analyze/src/key-estimation/chord-progression.ts" xlink:title="chord&#45;progression.ts">
<path fill="#ddfeff" stroke="black" d="M451,-844C451,-844 353,-844 353,-844 350,-844 347,-841 347,-838 347,-838 347,-832 347,-832 347,-829 350,-826 353,-826 353,-826 451,-826 451,-826 454,-826 457,-829 457,-832 457,-832 457,-838 457,-838 457,-841 454,-844 451,-844"/>
<text text-anchor="start" x="355" y="-832.8" font-family="Helvetica,sans-Serif" font-size="9.00">chord&#45;progression.ts</text>
</a>
</g>
</g>
<!-- packages/music&#45;structure/chord/chord&#45;analyze/src/chord&#45;analyze/calc&#45;chord&#45;progression.ts&#45;&gt;packages/music&#45;structure/chord/chord&#45;analyze/src/key&#45;estimation/chord&#45;progression.ts -->
<g id="edge6" class="edge">
<title>packages/music&#45;structure/chord/chord&#45;analyze/src/chord&#45;analyze/calc&#45;chord&#45;progression.ts&#45;&gt;packages/music&#45;structure/chord/chord&#45;analyze/src/key&#45;estimation/chord&#45;progression.ts</title>
<path fill="none" stroke="#000000" stroke-width="2" stroke-opacity="0.200000" d="M262.31,-726.26C288.9,-747.11 353.56,-797.8 384.27,-821.88"/>
<polygon fill="#000000" fill-opacity="0.200000" stroke="#000000" stroke-width="2" stroke-opacity="0.200000" points="383.23,-823.73 389.25,-825.78 385.82,-820.43 383.23,-823.73"/>
</g>
<!-- packages/music&#45;structure/chord/chord&#45;analyze/src/chord&#45;analyze/remove&#45;item.ts -->
<g id="node9" class="node">
<title>packages/music&#45;structure/chord/chord&#45;analyze/src/chord&#45;analyze/remove&#45;item.ts</title>
<g id="a_node9"><a xlink:href="packages/music-structure/chord/chord-analyze/src/chord-analyze/remove-item.ts" xlink:title="remove&#45;item.ts">
<path fill="#ddfeff" stroke="black" d="M438.5,-694C438.5,-694 365.5,-694 365.5,-694 362.5,-694 359.5,-691 359.5,-688 359.5,-688 359.5,-682 359.5,-682 359.5,-679 362.5,-676 365.5,-676 365.5,-676 438.5,-676 438.5,-676 441.5,-676 444.5,-679 444.5,-682 444.5,-682 444.5,-688 444.5,-688 444.5,-691 441.5,-694 438.5,-694"/>
<text text-anchor="start" x="367.5" y="-682.8" font-family="Helvetica,sans-Serif" font-size="9.00">remove&#45;item.ts</text>
</a>
</g>
</g>
<!-- packages/music&#45;structure/chord/chord&#45;analyze/src/chord&#45;analyze/calc&#45;chord&#45;progression.ts&#45;&gt;packages/music&#45;structure/chord/chord&#45;analyze/src/chord&#45;analyze/remove&#45;item.ts -->
<g id="edge7" class="edge">
<title>packages/music&#45;structure/chord/chord&#45;analyze/src/chord&#45;analyze/calc&#45;chord&#45;progression.ts&#45;&gt;packages/music&#45;structure/chord/chord&#45;analyze/src/chord&#45;analyze/remove&#45;item.ts</title>
<path fill="none" stroke="#000000" stroke-width="2" stroke-opacity="0.200000" d="M293.22,-707.92C312.05,-703.91 334.23,-699.2 353.57,-695.09"/>
<polygon fill="#000000" fill-opacity="0.200000" stroke="#000000" stroke-width="2" stroke-opacity="0.200000" points="354.04,-697.13 359.47,-693.83 353.16,-693.02 354.04,-697.13"/>
</g>
<!-- packages/music&#45;structure/chord/chord&#45;analyze/src/chord&#45;analyze/select&#45;suitable&#45;progression.ts -->
<g id="node10" class="node">
<title>packages/music&#45;structure/chord/chord&#45;analyze/src/chord&#45;analyze/select&#45;suitable&#45;progression.ts</title>
<g id="a_node10"><a xlink:href="packages/music-structure/chord/chord-analyze/src/chord-analyze/select-suitable-progression.ts" xlink:title="select&#45;suitable&#45;progression.ts">
<path fill="#ddfeff" stroke="black" d="M470,-664C470,-664 334,-664 334,-664 331,-664 328,-661 328,-658 328,-658 328,-652 328,-652 328,-649 331,-646 334,-646 334,-646 470,-646 470,-646 473,-646 476,-649 476,-652 476,-652 476,-658 476,-658 476,-661 473,-664 470,-664"/>
<text text-anchor="start" x="336" y="-652.8" font-family="Helvetica,sans-Serif" font-size="9.00">select&#45;suitable&#45;progression.ts</text>
</a>
</g>
</g>
<!-- packages/music&#45;structure/chord/chord&#45;analyze/src/chord&#45;analyze/calc&#45;chord&#45;progression.ts&#45;&gt;packages/music&#45;structure/chord/chord&#45;analyze/src/chord&#45;analyze/select&#45;suitable&#45;progression.ts -->
<g id="edge8" class="edge">
<title>packages/music&#45;structure/chord/chord&#45;analyze/src/chord&#45;analyze/calc&#45;chord&#45;progression.ts&#45;&gt;packages/music&#45;structure/chord/chord&#45;analyze/src/chord&#45;analyze/select&#45;suitable&#45;progression.ts</title>
<path fill="none" stroke="#000000" stroke-width="2" stroke-opacity="0.200000" d="M272.38,-707.98C299.13,-696.96 344.42,-678.31 373.5,-666.33"/>
<polygon fill="#000000" fill-opacity="0.200000" stroke="#000000" stroke-width="2" stroke-opacity="0.200000" points="374.34,-668.25 379.09,-664.03 372.74,-664.37 374.34,-668.25"/>
</g>
<!-- packages/music&#45;structure/chord/chord&#45;analyze/src/chord&#45;analyze/split&#45;array.ts -->
<g id="node11" class="node">
<title>packages/music&#45;structure/chord/chord&#45;analyze/src/chord&#45;analyze/split&#45;array.ts</title>
<g id="a_node11"><a xlink:href="packages/music-structure/chord/chord-analyze/src/chord-analyze/split-array.ts" xlink:title="split&#45;array.ts">
<path fill="#ddfeff" stroke="black" d="M431.5,-724C431.5,-724 372.5,-724 372.5,-724 369.5,-724 366.5,-721 366.5,-718 366.5,-718 366.5,-712 366.5,-712 366.5,-709 369.5,-706 372.5,-706 372.5,-706 431.5,-706 431.5,-706 434.5,-706 437.5,-709 437.5,-712 437.5,-712 437.5,-718 437.5,-718 437.5,-721 434.5,-724 431.5,-724"/>
<text text-anchor="start" x="374.5" y="-712.8" font-family="Helvetica,sans-Serif" font-size="9.00">split&#45;array.ts</text>
</a>
</g>
</g>
<!-- packages/music&#45;structure/chord/chord&#45;analyze/src/chord&#45;analyze/calc&#45;chord&#45;progression.ts&#45;&gt;packages/music&#45;structure/chord/chord&#45;analyze/src/chord&#45;analyze/split&#45;array.ts -->
<g id="edge9" class="edge">
<title>packages/music&#45;structure/chord/chord&#45;analyze/src/chord&#45;analyze/calc&#45;chord&#45;progression.ts&#45;&gt;packages/music&#45;structure/chord/chord&#45;analyze/src/chord&#45;analyze/split&#45;array.ts</title>
<path fill="none" stroke="#000000" stroke-width="2" stroke-opacity="0.200000" d="M315.2,-716.14C330.4,-715.94 346.18,-715.73 360.01,-715.54"/>
<polygon fill="#000000" fill-opacity="0.200000" stroke="#000000" stroke-width="2" stroke-opacity="0.200000" points="360.24,-717.64 366.21,-715.46 360.18,-713.44 360.24,-717.64"/>
</g>
<!-- packages/music&#45;structure/chord/chord&#45;analyze/src/chord&#45;analyze/time&#45;and&#45;chord.ts&#45;&gt;packages/util/time&#45;and/dist/index.js -->
<g id="edge13" class="edge">
<title>packages/music&#45;structure/chord/chord&#45;analyze/src/chord&#45;analyze/time&#45;and&#45;chord.ts&#45;&gt;packages/util/time&#45;and/dist/index.js</title>
<path fill="none" stroke="#000000" stroke-width="2" stroke-opacity="0.200000" d="M406.7,-765.79C445.11,-690.45 707.41,-176.02 755.45,-81.8"/>
<polygon fill="#000000" fill-opacity="0.200000" stroke="#000000" stroke-width="2" stroke-opacity="0.200000" points="757.45,-82.51 758.3,-76.21 753.71,-80.61 757.45,-82.51"/>
</g>
<!-- packages/music&#45;structure/chord/chord&#45;analyze/src/chord&#45;analyze/time&#45;and&#45;roman&#45;analysis.ts&#45;&gt;packages/util/time&#45;and/dist/index.js -->
<g id="edge14" class="edge">
<title>packages/music&#45;structure/chord/chord&#45;analyze/src/chord&#45;analyze/time&#45;and&#45;roman&#45;analysis.ts&#45;&gt;packages/util/time&#45;and/dist/index.js</title>
<path fill="none" stroke="#000000" stroke-width="2" stroke-opacity="0.200000" d="M406.83,-735.93C445.64,-663.04 706.42,-173.26 755.16,-81.72"/>
<polygon fill="#000000" fill-opacity="0.200000" stroke="#000000" stroke-width="2" stroke-opacity="0.200000" points="757.09,-82.56 758.06,-76.28 753.39,-80.59 757.09,-82.56"/>
</g>
<!-- packages/cognitive&#45;theory&#45;of&#45;music/tonal&#45;pitch&#45;space/dist/index.js -->
<g id="node7" class="node">
<title>packages/cognitive&#45;theory&#45;of&#45;music/tonal&#45;pitch&#45;space/dist/index.js</title>
<g id="a_node7"><a xlink:href="packages/cognitive-theory-of-music/tonal-pitch-space/dist/index.js" xlink:title="index.js">
<polygon fill="#ffffcc" stroke="black" points="617,-520 615.5,-522 605,-522 603.5,-520 563,-520 563,-502 617,-502 617,-520"/>
<text text-anchor="start" x="572.5" y="-508.8" font-family="Helvetica,sans-Serif" font-size="9.00">index.js</text>
</a>
</g>
</g>
<!-- packages/music&#45;structure/chord/chord&#45;analyze/src/key&#45;estimation/chord&#45;progression.ts&#45;&gt;packages/cognitive&#45;theory&#45;of&#45;music/tonal&#45;pitch&#45;space/dist/index.js -->
<g id="edge20" class="edge">
<title>packages/music&#45;structure/chord/chord&#45;analyze/src/key&#45;estimation/chord&#45;progression.ts&#45;&gt;packages/cognitive&#45;theory&#45;of&#45;music/tonal&#45;pitch&#45;space/dist/index.js</title>
<path fill="none" stroke="#000000" stroke-width="2" stroke-opacity="0.200000" d="M408.17,-826C433.93,-781.13 548.46,-581.62 580.59,-525.65"/>
<polygon fill="#000000" fill-opacity="0.200000" stroke="#000000" stroke-width="2" stroke-opacity="0.200000" points="582.6,-526.36 583.77,-520.11 578.96,-524.27 582.6,-526.36"/>
</g>
<!-- packages/music&#45;structure/chord/roman&#45;chord/dist/index.js -->
<g id="node12" class="node">
<title>packages/music&#45;structure/chord/roman&#45;chord/dist/index.js</title>
<g id="a_node12"><a xlink:href="packages/music-structure/chord/roman-chord/dist/index.js" xlink:title="index.js">
<polygon fill="#ffffcc" stroke="black" points="617,-964 615.5,-966 605,-966 603.5,-964 563,-964 563,-946 617,-946 617,-964"/>
<text text-anchor="start" x="572.5" y="-952.8" font-family="Helvetica,sans-Serif" font-size="9.00">index.js</text>
</a>
</g>
</g>
<!-- packages/music&#45;structure/chord/chord&#45;analyze/src/key&#45;estimation/chord&#45;progression.ts&#45;&gt;packages/music&#45;structure/chord/roman&#45;chord/dist/index.js -->
<g id="edge18" class="edge">
<title>packages/music&#45;structure/chord/chord&#45;analyze/src/key&#45;estimation/chord&#45;progression.ts&#45;&gt;packages/music&#45;structure/chord/roman&#45;chord/dist/index.js</title>
<path fill="none" stroke="#000000" stroke-width="2" stroke-opacity="0.200000" d="M416.98,-844.02C449.83,-865.22 532.02,-918.24 569.64,-942.51"/>
<polygon fill="#000000" fill-opacity="0.200000" stroke="#000000" stroke-width="2" stroke-opacity="0.200000" points="568.68,-944.39 574.86,-945.88 570.95,-940.86 568.68,-944.39"/>
</g>
<!-- packages/music&#45;structure/chord/chord&#45;analyze/src/key&#45;estimation/get&#45;chord.ts -->
<g id="node13" class="node">
<title>packages/music&#45;structure/chord/chord&#45;analyze/src/key&#45;estimation/get&#45;chord.ts</title>
<g id="a_node13"><a xlink:href="packages/music-structure/chord/chord-analyze/src/key-estimation/get-chord.ts" xlink:title="get&#45;chord.ts">
<path fill="#ddfeff" stroke="black" d="M620,-844C620,-844 560,-844 560,-844 557,-844 554,-841 554,-838 554,-838 554,-832 554,-832 554,-829 557,-826 560,-826 560,-826 620,-826 620,-826 623,-826 626,-829 626,-832 626,-832 626,-838 626,-838 626,-841 623,-844 620,-844"/>
<text text-anchor="start" x="562" y="-832.8" font-family="Helvetica,sans-Serif" font-size="9.00">get&#45;chord.ts</text>
</a>
</g>
</g>
<!-- packages/music&#45;structure/chord/chord&#45;analyze/src/key&#45;estimation/chord&#45;progression.ts&#45;&gt;packages/music&#45;structure/chord/chord&#45;analyze/src/key&#45;estimation/get&#45;chord.ts -->
<g id="edge15" class="edge">
<title>packages/music&#45;structure/chord/chord&#45;analyze/src/key&#45;estimation/chord&#45;progression.ts&#45;&gt;packages/music&#45;structure/chord/chord&#45;analyze/src/key&#45;estimation/get&#45;chord.ts</title>
<path fill="none" stroke="#000000" stroke-width="2" stroke-opacity="0.200000" d="M457.05,-835C485.94,-835 520.96,-835 547.66,-835"/>
<polygon fill="#000000" fill-opacity="0.200000" stroke="#000000" stroke-width="2" stroke-opacity="0.200000" points="547.92,-837.1 553.92,-835 547.92,-832.9 547.92,-837.1"/>
</g>
<!-- packages/util/graph/dist/index.js -->
<g id="node14" class="node">
<title>packages/util/graph/dist/index.js</title>
<g id="a_node14"><a xlink:href="packages/util/graph/dist/index.js" xlink:title="index.js">
<polygon fill="#ffffcc" stroke="black" points="790,-170 788.5,-172 778,-172 776.5,-170 736,-170 736,-152 790,-152 790,-170"/>
<text text-anchor="start" x="745.5" y="-158.8" font-family="Helvetica,sans-Serif" font-size="9.00">index.js</text>
</a>
</g>
</g>
<!-- packages/music&#45;structure/chord/chord&#45;analyze/src/key&#45;estimation/chord&#45;progression.ts&#45;&gt;packages/util/graph/dist/index.js -->
<g id="edge16" class="edge">
<title>packages/music&#45;structure/chord/chord&#45;analyze/src/key&#45;estimation/chord&#45;progression.ts&#45;&gt;packages/util/graph/dist/index.js</title>
<path fill="none" stroke="#000000" stroke-width="2" stroke-opacity="0.200000" d="M406.83,-825.98C445.64,-753.53 706.42,-266.63 755.16,-175.63"/>
<polygon fill="#000000" fill-opacity="0.200000" stroke="#000000" stroke-width="2" stroke-opacity="0.200000" points="757.08,-176.5 758.06,-170.22 753.38,-174.52 757.08,-176.5"/>
</g>
<!-- packages/util/math/src/reduction/compare.ts -->
<g id="node15" class="node">
<title>packages/util/math/src/reduction/compare.ts</title>
<g id="a_node15"><a xlink:href="packages/util/math/src/reduction/compare.ts" xlink:title="compare.ts">
<path fill="#ddfeff" stroke="black" d="M791,-272C791,-272 735,-272 735,-272 732,-272 729,-269 729,-266 729,-266 729,-260 729,-260 729,-257 732,-254 735,-254 735,-254 791,-254 791,-254 794,-254 797,-257 797,-260 797,-260 797,-266 797,-266 797,-269 794,-272 791,-272"/>
<text text-anchor="start" x="737" y="-260.8" font-family="Helvetica,sans-Serif" font-size="9.00">compare.ts</text>
</a>
</g>
</g>
<!-- packages/music&#45;structure/chord/chord&#45;analyze/src/key&#45;estimation/chord&#45;progression.ts&#45;&gt;packages/util/math/src/reduction/compare.ts -->
<g id="edge17" class="edge">
<title>packages/music&#45;structure/chord/chord&#45;analyze/src/key&#45;estimation/chord&#45;progression.ts&#45;&gt;packages/util/math/src/reduction/compare.ts</title>
<path fill="none" stroke="#000000" stroke-width="2" stroke-opacity="0.200000" d="M407.96,-825.55C450.04,-758.88 702,-359.66 753.72,-277.7"/>
<polygon fill="#000000" fill-opacity="0.200000" stroke="#000000" stroke-width="2" stroke-opacity="0.200000" points="755.67,-278.55 757.09,-272.36 752.12,-276.31 755.67,-278.55"/>
</g>
<!-- packages/tonal&#45;objects/dist/index.js -->
<g id="node16" class="node">
<title>packages/tonal&#45;objects/dist/index.js</title>
<g id="a_node16"><a xlink:href="packages/tonal-objects/dist/index.js" xlink:title="index.js">
<polygon fill="#ffffcc" stroke="black" points="790,-546 788.5,-548 778,-548 776.5,-546 736,-546 736,-528 790,-528 790,-546"/>
<text text-anchor="start" x="745.5" y="-534.8" font-family="Helvetica,sans-Serif" font-size="9.00">index.js</text>
</a>
</g>
</g>
<!-- packages/music&#45;structure/chord/chord&#45;analyze/src/key&#45;estimation/chord&#45;progression.ts&#45;&gt;packages/tonal&#45;objects/dist/index.js -->
<g id="edge19" class="edge">
<title>packages/music&#45;structure/chord/chord&#45;analyze/src/key&#45;estimation/chord&#45;progression.ts&#45;&gt;packages/tonal&#45;objects/dist/index.js</title>
<path fill="none" stroke="#000000" stroke-width="2" stroke-opacity="0.200000" d="M413.2,-825.75C465.52,-782.56 685.9,-600.64 747.15,-550.08"/>
<polygon fill="#000000" fill-opacity="0.200000" stroke="#000000" stroke-width="2" stroke-opacity="0.200000" points="748.64,-551.58 751.93,-546.14 745.97,-548.34 748.64,-551.58"/>
</g>
<!-- packages/music&#45;structure/chord/chord&#45;analyze/src/chord&#45;analyze/select&#45;suitable&#45;progression.ts&#45;&gt;packages/music&#45;structure/chord/roman&#45;chord/dist/index.js -->
<g id="edge12" class="edge">
<title>packages/music&#45;structure/chord/chord&#45;analyze/src/chord&#45;analyze/select&#45;suitable&#45;progression.ts&#45;&gt;packages/music&#45;structure/chord/roman&#45;chord/dist/index.js</title>
<path fill="none" stroke="#000000" stroke-width="2" stroke-opacity="0.200000" d="M408.77,-664.31C435.51,-707.44 547.46,-888 580.06,-940.58"/>
<polygon fill="#000000" fill-opacity="0.200000" stroke="#000000" stroke-width="2" stroke-opacity="0.200000" points="578.35,-941.81 583.3,-945.8 581.92,-939.6 578.35,-941.81"/>
</g>
<!-- packages/music&#45;structure/chord/chord&#45;analyze/src/key&#45;estimation/get&#45;chord.ts&#45;&gt;packages/tonal&#45;objects/dist/index.js -->
<g id="edge23" class="edge">
<title>packages/music&#45;structure/chord/chord&#45;analyze/src/key&#45;estimation/get&#45;chord.ts&#45;&gt;packages/tonal&#45;objects/dist/index.js</title>
<path fill="none" stroke="#000000" stroke-width="2" stroke-opacity="0.200000" d="M596.31,-825.75C620.84,-783 723.39,-604.28 753.6,-551.65"/>
<polygon fill="#000000" fill-opacity="0.200000" stroke="#000000" stroke-width="2" stroke-opacity="0.200000" points="755.59,-552.39 756.76,-546.14 751.95,-550.3 755.59,-552.39"/>
</g>
<!-- packages/music&#45;structure/chord/chord&#45;analyze/src/key&#45;estimation/get&#45;body&#45;and&#45;root.ts -->
<g id="node17" class="node">
<title>packages/music&#45;structure/chord/chord&#45;analyze/src/key&#45;estimation/get&#45;body&#45;and&#45;root.ts</title>
<g id="a_node17"><a xlink:href="packages/music-structure/chord/chord-analyze/src/key-estimation/get-body-and-root.ts" xlink:title="get&#45;body&#45;and&#45;root.ts">
<path fill="#ddfeff" stroke="black" d="M812,-844C812,-844 714,-844 714,-844 711,-844 708,-841 708,-838 708,-838 708,-832 708,-832 708,-829 711,-826 714,-826 714,-826 812,-826 812,-826 815,-826 818,-829 818,-832 818,-832 818,-838 818,-838 818,-841 815,-844 812,-844"/>
<text text-anchor="start" x="716" y="-832.8" font-family="Helvetica,sans-Serif" font-size="9.00">get&#45;body&#45;and&#45;root.ts</text>
</a>
</g>
</g>
<!-- packages/music&#45;structure/chord/chord&#45;analyze/src/key&#45;estimation/get&#45;chord.ts&#45;&gt;packages/music&#45;structure/chord/chord&#45;analyze/src/key&#45;estimation/get&#45;body&#45;and&#45;root.ts -->
<g id="edge21" class="edge">
<title>packages/music&#45;structure/chord/chord&#45;analyze/src/key&#45;estimation/get&#45;chord.ts&#45;&gt;packages/music&#45;structure/chord/chord&#45;analyze/src/key&#45;estimation/get&#45;body&#45;and&#45;root.ts</title>
<path fill="none" stroke="#000000" stroke-width="2" stroke-opacity="0.200000" d="M626.02,-835C647.82,-835 676.44,-835 701.8,-835"/>
<polygon fill="#000000" fill-opacity="0.200000" stroke="#000000" stroke-width="2" stroke-opacity="0.200000" points="701.83,-837.1 707.83,-835 701.83,-832.9 701.83,-837.1"/>
</g>
<!-- packages/util/stdlib/src/assertion/assertion.ts -->
<g id="node18" class="node">
<title>packages/util/stdlib/src/assertion/assertion.ts</title>
<g id="a_node18"><a xlink:href="packages/util/stdlib/src/assertion/assertion.ts" xlink:title="assertion.ts">
<path fill="#ddfeff" stroke="black" d="M791,-400C791,-400 735,-400 735,-400 732,-400 729,-397 729,-394 729,-394 729,-388 729,-388 729,-385 732,-382 735,-382 735,-382 791,-382 791,-382 794,-382 797,-385 797,-388 797,-388 797,-394 797,-394 797,-397 794,-400 791,-400"/>
<text text-anchor="start" x="737" y="-388.8" font-family="Helvetica,sans-Serif" font-size="9.00">assertion.ts</text>
</a>
</g>
</g>
<!-- packages/music&#45;structure/chord/chord&#45;analyze/src/key&#45;estimation/get&#45;chord.ts&#45;&gt;packages/util/stdlib/src/assertion/assertion.ts -->
<g id="edge22" class="edge">
<title>packages/music&#45;structure/chord/chord&#45;analyze/src/key&#45;estimation/get&#45;chord.ts&#45;&gt;packages/util/stdlib/src/assertion/assertion.ts</title>
<path fill="none" stroke="#000000" stroke-width="2" stroke-opacity="0.200000" d="M594.57,-825.73C616.17,-769.64 729.34,-475.81 756.25,-405.93"/>
<polygon fill="#000000" fill-opacity="0.200000" stroke="#000000" stroke-width="2" stroke-opacity="0.200000" points="758.25,-406.58 758.45,-400.22 754.33,-405.07 758.25,-406.58"/>
</g>
<!-- packages/util/math/src/reduction/compare&#45;func.ts -->
<g id="node19" class="node">
<title>packages/util/math/src/reduction/compare&#45;func.ts</title>
<g id="a_node19"><a xlink:href="packages/util/math/src/reduction/compare-func.ts" xlink:title="compare&#45;func.ts">
<path fill="#ddfeff" stroke="black" d="M951,-272C951,-272 872,-272 872,-272 869,-272 866,-269 866,-266 866,-266 866,-260 866,-260 866,-257 869,-254 872,-254 872,-254 951,-254 951,-254 954,-254 957,-257 957,-260 957,-260 957,-266 957,-266 957,-269 954,-272 951,-272"/>
<text text-anchor="start" x="874" y="-260.8" font-family="Helvetica,sans-Serif" font-size="9.00">compare&#45;func.ts</text>
</a>
</g>
</g>
<!-- packages/util/math/src/reduction/compare.ts&#45;&gt;packages/util/math/src/reduction/compare&#45;func.ts -->
<g id="edge24" class="edge">
<title>packages/util/math/src/reduction/compare.ts&#45;&gt;packages/util/math/src/reduction/compare&#45;func.ts</title>
<path fill="none" stroke="#000000" stroke-width="2" stroke-opacity="0.200000" d="M797.24,-263C815.76,-263 839.2,-263 859.94,-263"/>
<polygon fill="#000000" fill-opacity="0.200000" stroke="#000000" stroke-width="2" stroke-opacity="0.200000" points="860,-265.1 866,-263 860,-260.9 860,-265.1"/>
</g>
</g>
</svg>
