<?xml version="1.0" encoding="UTF-8" standalone="no"?>
<!DOCTYPE svg PUBLIC "-//W3C//DTD SVG 1.1//EN"
 "http://www.w3.org/Graphics/SVG/1.1/DTD/svg11.dtd">
<!-- Generated by graphviz version 2.43.0 (0)
 -->
<!-- Title: dependency&#45;cruiser output Pages: 1 -->
<svg width="326pt" height="272pt"
 viewBox="0.00 0.00 326.00 272.00" xmlns="http://www.w3.org/2000/svg" xmlns:xlink="http://www.w3.org/1999/xlink">
<g id="graph0" class="graph" transform="scale(1 1) rotate(0) translate(4 268)">
<title>dependency&#45;cruiser output</title>
<polygon fill="white" stroke="transparent" points="-4,4 -4,-268 322,-268 322,4 -4,4"/>
<g id="clust1" class="cluster">
<title>cluster_packages</title>
<path fill="#ffffff" stroke="black" stroke-width="2" d="M20,-8C20,-8 298,-8 298,-8 304,-8 310,-14 310,-20 310,-20 310,-244 310,-244 310,-250 304,-256 298,-256 298,-256 20,-256 20,-256 14,-256 8,-250 8,-244 8,-244 8,-20 8,-20 8,-14 14,-8 20,-8"/>
<text text-anchor="middle" x="159" y="-244.8" font-family="Helvetica,sans-Serif" font-weight="bold" font-size="9.00">packages</text>
</g>
<g id="clust2" class="cluster">
<title>cluster_packages/cognitive&#45;theory&#45;of&#45;music</title>
<path fill="#ffffff" stroke="black" stroke-width="2" d="M28,-24C28,-24 180,-24 180,-24 186,-24 192,-30 192,-36 192,-36 192,-218 192,-218 192,-224 186,-230 180,-230 180,-230 28,-230 28,-230 22,-230 16,-224 16,-218 16,-218 16,-36 16,-36 16,-30 22,-24 28,-24"/>
<text text-anchor="middle" x="104" y="-218.8" font-family="Helvetica,sans-Serif" font-weight="bold" font-size="9.00">cognitive&#45;theory&#45;of&#45;music</text>
</g>
<g id="clust3" class="cluster">
<title>cluster_packages/cognitive&#45;theory&#45;of&#45;music/irm</title>
<path fill="#ffffff" stroke="black" stroke-width="2" d="M36,-32C36,-32 172,-32 172,-32 178,-32 184,-38 184,-44 184,-44 184,-192 184,-192 184,-198 178,-204 172,-204 172,-204 36,-204 36,-204 30,-204 24,-198 24,-192 24,-192 24,-44 24,-44 24,-38 30,-32 36,-32"/>
<text text-anchor="middle" x="104" y="-192.8" font-family="Helvetica,sans-Serif" font-weight="bold" font-size="9.00">irm</text>
</g>
<g id="clust4" class="cluster">
<title>cluster_packages/cognitive&#45;theory&#45;of&#45;music/irm/test</title>
<path fill="#ffffff" stroke="black" stroke-width="2" d="M44,-96C44,-96 164,-96 164,-96 170,-96 176,-102 176,-108 176,-108 176,-166 176,-166 176,-172 170,-178 164,-178 164,-178 44,-178 44,-178 38,-178 32,-172 32,-166 32,-166 32,-108 32,-108 32,-102 38,-96 44,-96"/>
<text text-anchor="middle" x="104" y="-166.8" font-family="Helvetica,sans-Serif" font-weight="bold" font-size="9.00">test</text>
</g>
<g id="clust5" class="cluster">
<title>cluster_packages/tonal&#45;objects</title>
<path fill="#ffffff" stroke="black" stroke-width="2" d="M220,-144C220,-144 282,-144 282,-144 288,-144 294,-150 294,-156 294,-156 294,-218 294,-218 294,-224 288,-230 282,-230 282,-230 220,-230 220,-230 214,-230 208,-224 208,-218 208,-218 208,-156 208,-156 208,-150 214,-144 220,-144"/>
<text text-anchor="middle" x="251" y="-218.8" font-family="Helvetica,sans-Serif" font-weight="bold" font-size="9.00">tonal&#45;objects</text>
</g>
<g id="clust6" class="cluster">
<title>cluster_packages/tonal&#45;objects/dist</title>
<path fill="#ffffff" stroke="black" stroke-width="2" d="M228,-152C228,-152 274,-152 274,-152 280,-152 286,-158 286,-164 286,-164 286,-192 286,-192 286,-198 280,-204 274,-204 274,-204 228,-204 228,-204 222,-204 216,-198 216,-192 216,-192 216,-164 216,-164 216,-158 222,-152 228,-152"/>
<text text-anchor="middle" x="251" y="-192.8" font-family="Helvetica,sans-Serif" font-weight="bold" font-size="9.00">dist</text>
</g>
<g id="clust7" class="cluster">
<title>cluster_packages/util</title>
<path fill="#ffffff" stroke="black" stroke-width="2" d="M212,-16C212,-16 290,-16 290,-16 296,-16 302,-22 302,-28 302,-28 302,-124 302,-124 302,-130 296,-136 290,-136 290,-136 212,-136 212,-136 206,-136 200,-130 200,-124 200,-124 200,-28 200,-28 200,-22 206,-16 212,-16"/>
<text text-anchor="middle" x="251" y="-124.8" font-family="Helvetica,sans-Serif" font-weight="bold" font-size="9.00">util</text>
</g>
<g id="clust8" class="cluster">
<title>cluster_packages/util/color</title>
<path fill="#ffffff" stroke="black" stroke-width="2" d="M220,-24C220,-24 282,-24 282,-24 288,-24 294,-30 294,-36 294,-36 294,-98 294,-98 294,-104 288,-110 282,-110 282,-110 220,-110 220,-110 214,-110 208,-104 208,-98 208,-98 208,-36 208,-36 208,-30 214,-24 220,-24"/>
<text text-anchor="middle" x="251" y="-98.8" font-family="Helvetica,sans-Serif" font-weight="bold" font-size="9.00">color</text>
</g>
<g id="clust9" class="cluster">
<title>cluster_packages/util/color/dist</title>
<path fill="#ffffff" stroke="black" stroke-width="2" d="M228,-32C228,-32 274,-32 274,-32 280,-32 286,-38 286,-44 286,-44 286,-72 286,-72 286,-78 280,-84 274,-84 274,-84 228,-84 228,-84 222,-84 216,-78 216,-72 216,-72 216,-44 216,-44 216,-38 222,-32 228,-32"/>
<text text-anchor="middle" x="251" y="-72.8" font-family="Helvetica,sans-Serif" font-weight="bold" font-size="9.00">dist</text>
</g>
<!-- packages/cognitive&#45;theory&#45;of&#45;music/irm/index.test.ts -->
<g id="node1" class="node">
<title>packages/cognitive&#45;theory&#45;of&#45;music/irm/index.test.ts</title>
<g id="a_node1"><a xlink:href="packages/cognitive-theory-of-music/irm/index.test.ts" xlink:title="no&#45;orphans">
<path fill="#ccffcc" stroke="orange" d="M134.5,-88C134.5,-88 73.5,-88 73.5,-88 70.5,-88 67.5,-85 67.5,-82 67.5,-82 67.5,-76 67.5,-76 67.5,-73 70.5,-70 73.5,-70 73.5,-70 134.5,-70 134.5,-70 137.5,-70 140.5,-73 140.5,-76 140.5,-76 140.5,-82 140.5,-82 140.5,-85 137.5,-88 134.5,-88"/>
<text text-anchor="start" x="75.5" y="-76.8" font-family="Helvetica,sans-Serif" font-size="9.00" fill="orange">index.test.ts</text>
</a>
</g>
</g>
<!-- packages/cognitive&#45;theory&#45;of&#45;music/irm/index.ts -->
<g id="node2" class="node">
<title>packages/cognitive&#45;theory&#45;of&#45;music/irm/index.ts</title>
<g id="a_node2"><a xlink:href="packages/cognitive-theory-of-music/irm/index.ts" xlink:title="index.ts">
<path fill="#ddfeff" stroke="black" d="M125,-58C125,-58 83,-58 83,-58 80,-58 77,-55 77,-52 77,-52 77,-46 77,-46 77,-43 80,-40 83,-40 83,-40 125,-40 125,-40 128,-40 131,-43 131,-46 131,-46 131,-52 131,-52 131,-55 128,-58 125,-58"/>
<text text-anchor="start" x="85.5" y="-46.8" font-family="Helvetica,sans-Serif" font-size="9.00">index.ts</text>
</a>
</g>
</g>
<!-- packages/util/color/dist/index.js -->
<g id="node3" class="node">
<title>packages/util/color/dist/index.js</title>
<g id="a_node3"><a xlink:href="packages/util/color/dist/index.js" xlink:title="index.js">
<polygon fill="#ffffcc" stroke="black" points="278,-58 276.5,-60 266,-60 264.5,-58 224,-58 224,-40 278,-40 278,-58"/>
<text text-anchor="start" x="233.5" y="-46.8" font-family="Helvetica,sans-Serif" font-size="9.00">index.js</text>
</a>
</g>
</g>
<!-- packages/cognitive&#45;theory&#45;of&#45;music/irm/index.ts&#45;&gt;packages/util/color/dist/index.js -->
<g id="edge1" class="edge">
<title>packages/cognitive&#45;theory&#45;of&#45;music/irm/index.ts&#45;&gt;packages/util/color/dist/index.js</title>
<path fill="none" stroke="#000000" stroke-width="2" stroke-opacity="0.200000" d="M131.26,-49C155.59,-49 191.84,-49 217.88,-49"/>
<polygon fill="#000000" fill-opacity="0.200000" stroke="#000000" stroke-width="2" stroke-opacity="0.200000" points="217.94,-51.1 223.94,-49 217.94,-46.9 217.94,-51.1"/>
</g>
<!-- packages/tonal&#45;objects/dist/index.js -->
<g id="node4" class="node">
<title>packages/tonal&#45;objects/dist/index.js</title>
<g id="a_node4"><a xlink:href="packages/tonal-objects/dist/index.js" xlink:title="index.js">
<polygon fill="#ffffcc" stroke="black" points="278,-178 276.5,-180 266,-180 264.5,-178 224,-178 224,-160 278,-160 278,-178"/>
<text text-anchor="start" x="233.5" y="-166.8" font-family="Helvetica,sans-Serif" font-size="9.00">index.js</text>
</a>
</g>
</g>
<!-- packages/cognitive&#45;theory&#45;of&#45;music/irm/index.ts&#45;&gt;packages/tonal&#45;objects/dist/index.js -->
<g id="edge2" class="edge">
<title>packages/cognitive&#45;theory&#45;of&#45;music/irm/index.ts&#45;&gt;packages/tonal&#45;objects/dist/index.js</title>
<path fill="none" stroke="#000000" stroke-width="2" stroke-opacity="0.200000" d="M131.1,-53.5C156.73,-57.92 192,-64 192,-64 192,-64 200,-87 200,-87 200,-87 226.95,-131.19 241.28,-154.69"/>
<polygon fill="#000000" fill-opacity="0.200000" stroke="#000000" stroke-width="2" stroke-opacity="0.200000" points="239.54,-155.88 244.46,-159.91 243.13,-153.7 239.54,-155.88"/>
</g>
<!-- packages/cognitive&#45;theory&#45;of&#45;music/irm/test/MelodicArchetype.test.ts -->
<g id="node5" class="node">
<title>packages/cognitive&#45;theory&#45;of&#45;music/irm/test/MelodicArchetype.test.ts</title>
<g id="a_node5"><a xlink:href="packages/cognitive-theory-of-music/irm/test/MelodicArchetype.test.ts" xlink:title="no&#45;orphans">
<path fill="#ccffcc" stroke="orange" d="M162,-152C162,-152 46,-152 46,-152 43,-152 40,-149 40,-146 40,-146 40,-140 40,-140 40,-137 43,-134 46,-134 46,-134 162,-134 162,-134 165,-134 168,-137 168,-140 168,-140 168,-146 168,-146 168,-149 165,-152 162,-152"/>
<text text-anchor="start" x="48" y="-140.8" font-family="Helvetica,sans-Serif" font-size="9.00" fill="orange">MelodicArchetype.test.ts</text>
</a>
</g>
</g>
<!-- packages/cognitive&#45;theory&#45;of&#45;music/irm/test/MelodyMotion.test.ts -->
<g id="node6" class="node">
<title>packages/cognitive&#45;theory&#45;of&#45;music/irm/test/MelodyMotion.test.ts</title>
<g id="a_node6"><a xlink:href="packages/cognitive-theory-of-music/irm/test/MelodyMotion.test.ts" xlink:title="no&#45;orphans">
<path fill="#ccffcc" stroke="orange" d="M153,-122C153,-122 55,-122 55,-122 52,-122 49,-119 49,-116 49,-116 49,-110 49,-110 49,-107 52,-104 55,-104 55,-104 153,-104 153,-104 156,-104 159,-107 159,-110 159,-110 159,-116 159,-116 159,-119 156,-122 153,-122"/>
<text text-anchor="start" x="57" y="-110.8" font-family="Helvetica,sans-Serif" font-size="9.00" fill="orange">MelodyMotion.test.ts</text>
</a>
</g>
</g>
</g>
</svg>
