<?xml version="1.0" encoding="UTF-8" standalone="no"?>
<!DOCTYPE svg PUBLIC "-//W3C//DTD SVG 1.1//EN"
 "http://www.w3.org/Graphics/SVG/1.1/DTD/svg11.dtd">
<!-- Generated by graphviz version 2.43.0 (0)
 -->
<!-- Title: dependency&#45;cruiser output Pages: 1 -->
<svg width="757pt" height="659pt"
 viewBox="0.00 0.00 757.03 658.54" xmlns="http://www.w3.org/2000/svg" xmlns:xlink="http://www.w3.org/1999/xlink">
<g id="graph0" class="graph" transform="scale(1 1) rotate(0) translate(4 654.54)">
<title>dependency&#45;cruiser output</title>
<polygon fill="white" stroke="transparent" points="-4,4 -4,-654.54 753.03,-654.54 753.03,4 -4,4"/>
<g id="clust1" class="cluster">
<title>cluster_packages</title>
<path fill="#ffffff" stroke="black" stroke-width="2" d="M12,0C12,0 737.03,0 737.03,0 743.03,0 749.03,-6 749.03,-12 749.03,-12 749.03,-638.54 749.03,-638.54 749.03,-644.54 743.03,-650.54 737.03,-650.54 737.03,-650.54 12,-650.54 12,-650.54 6,-650.54 0,-644.54 0,-638.54 0,-638.54 0,-12 0,-12 0,-6 6,0 12,0"/>
<text text-anchor="middle" x="374.51" y="-639.34" font-family="Helvetica,sans-Serif" font-weight="bold" font-size="9.00">packages</text>
</g>
<!-- packages/UI/svg&#45;objects/index.test.ts -->
<g id="node1" class="node">
<title>packages/UI/svg&#45;objects/index.test.ts</title>
<g id="a_node1"><a xlink:href="packages/UI/svg-objects/index.test.ts" xlink:title="no&#45;orphans">
<path fill="#ccffcc" stroke="orange" d="M283,-180C283,-180 222,-180 222,-180 219,-180 216,-177 216,-174 216,-174 216,-168 216,-168 216,-165 219,-162 222,-162 222,-162 283,-162 283,-162 286,-162 289,-165 289,-168 289,-168 289,-174 289,-174 289,-177 286,-180 283,-180"/>
<text text-anchor="start" x="224" y="-168.8" font-family="Helvetica,sans-Serif" font-size="9.00" fill="orange">index.test.ts</text>
</a>
</g>
</g>
<!-- packages/UI/svg&#45;objects/index.ts -->
<g id="node2" class="node">
<title>packages/UI/svg&#45;objects/index.ts</title>
<g id="a_node2"><a xlink:href="packages/UI/svg-objects/index.ts" xlink:title="index.ts">
<path fill="#ddfeff" stroke="black" d="M48,-597.22C48,-597.22 6,-597.22 6,-597.22 3,-597.22 0,-594.22 0,-591.22 0,-591.22 0,-585.22 0,-585.22 0,-582.22 3,-579.22 6,-579.22 6,-579.22 48,-579.22 48,-579.22 51,-579.22 54,-582.22 54,-585.22 54,-585.22 54,-591.22 54,-591.22 54,-594.22 51,-597.22 48,-597.22"/>
<text text-anchor="start" x="8.5" y="-586.02" font-family="Helvetica,sans-Serif" font-size="9.00">index.ts</text>
</a>
</g>
</g>
<!-- packages/UI/svg&#45;objects/src/index.ts -->
<g id="node3" class="node">
<title>packages/UI/svg&#45;objects/src/index.ts</title>
<g id="a_node3"><a xlink:href="packages/UI/svg-objects/src/index.ts" xlink:title="index.ts">
<path fill="#ddfeff" stroke="black" d="M204.5,-550.86C204.5,-550.86 162.5,-550.86 162.5,-550.86 159.5,-550.86 156.5,-547.86 156.5,-544.86 156.5,-544.86 156.5,-538.86 156.5,-538.86 156.5,-535.86 159.5,-532.86 162.5,-532.86 162.5,-532.86 204.5,-532.86 204.5,-532.86 207.5,-532.86 210.5,-535.86 210.5,-538.86 210.5,-538.86 210.5,-544.86 210.5,-544.86 210.5,-547.86 207.5,-550.86 204.5,-550.86"/>
<text text-anchor="start" x="165" y="-539.66" font-family="Helvetica,sans-Serif" font-size="9.00">index.ts</text>
</a>
</g>
</g>
<!-- packages/UI/svg&#45;objects/index.ts&#45;&gt;packages/UI/svg&#45;objects/src/index.ts -->
<g id="edge1" class="edge">
<title>packages/UI/svg&#45;objects/index.ts&#45;&gt;packages/UI/svg&#45;objects/src/index.ts</title>
<path fill="none" stroke="#000000" stroke-width="2" stroke-opacity="0.200000" d="M54.26,-580.15C81,-572.23 121.8,-560.14 150.39,-551.67"/>
<polygon fill="#000000" fill-opacity="0.200000" stroke="#000000" stroke-width="2" stroke-opacity="0.200000" points="156.89,-551.93 150.54,-551.62 155.7,-547.91 156.89,-551.93"/>
</g>
<!-- packages/UI/svg&#45;objects/src/current&#45;time&#45;line.ts -->
<g id="node12" class="node">
<title>packages/UI/svg&#45;objects/src/current&#45;time&#45;line.ts</title>
<g id="a_node12"><a xlink:href="packages/UI/svg-objects/src/current-time-line.ts" xlink:title="current&#45;time&#45;line.ts">
<path fill="#ddfeff" stroke="black" d="M330.66,-398.86C330.66,-398.86 238.66,-398.86 238.66,-398.86 235.66,-398.86 232.66,-395.86 232.66,-392.86 232.66,-392.86 232.66,-386.86 232.66,-386.86 232.66,-383.86 235.66,-380.86 238.66,-380.86 238.66,-380.86 330.66,-380.86 330.66,-380.86 333.66,-380.86 336.66,-383.86 336.66,-386.86 336.66,-386.86 336.66,-392.86 336.66,-392.86 336.66,-395.86 333.66,-398.86 330.66,-398.86"/>
<text text-anchor="start" x="240.66" y="-387.66" font-family="Helvetica,sans-Serif" font-size="9.00">current&#45;time&#45;line.ts</text>
</a>
</g>
</g>
<!-- packages/UI/svg&#45;objects/src/index.ts&#45;&gt;packages/UI/svg&#45;objects/src/current&#45;time&#45;line.ts -->
<g id="edge17" class="edge">
<title>packages/UI/svg&#45;objects/src/index.ts&#45;&gt;packages/UI/svg&#45;objects/src/current&#45;time&#45;line.ts</title>
<path fill="none" stroke="#000000" stroke-width="2" stroke-opacity="0.200000" d="M189.53,-532.8C206.43,-507.41 254.38,-435.36 275.02,-404.35"/>
<polygon fill="#000000" fill-opacity="0.200000" stroke="#000000" stroke-width="2" stroke-opacity="0.200000" points="280.29,-400.22 275.22,-404.05 276.79,-397.89 280.29,-400.22"/>
</g>
<!-- packages/UI/svg&#45;objects/src/octave/index.ts -->
<g id="node13" class="node">
<title>packages/UI/svg&#45;objects/src/octave/index.ts</title>
<g id="a_node13"><a xlink:href="packages/UI/svg-objects/src/octave/index.ts" xlink:title="index.ts">
<path fill="#ddfeff" stroke="black" d="M345.95,-650.54C345.95,-650.54 303.95,-650.54 303.95,-650.54 300.95,-650.54 297.95,-647.54 297.95,-644.54 297.95,-644.54 297.95,-638.54 297.95,-638.54 297.95,-635.54 300.95,-632.54 303.95,-632.54 303.95,-632.54 345.95,-632.54 345.95,-632.54 348.95,-632.54 351.95,-635.54 351.95,-638.54 351.95,-638.54 351.95,-644.54 351.95,-644.54 351.95,-647.54 348.95,-650.54 345.95,-650.54"/>
<text text-anchor="start" x="306.45" y="-639.34" font-family="Helvetica,sans-Serif" font-size="9.00">index.ts</text>
</a>
</g>
</g>
<!-- packages/UI/svg&#45;objects/src/index.ts&#45;&gt;packages/UI/svg&#45;objects/src/octave/index.ts -->
<g id="edge18" class="edge">
<title>packages/UI/svg&#45;objects/src/index.ts&#45;&gt;packages/UI/svg&#45;objects/src/octave/index.ts</title>
<path fill="none" stroke="#000000" stroke-width="2" stroke-opacity="0.200000" d="M196.56,-551.06C221.92,-568.93 277.92,-608.4 306.86,-628.79"/>
<polygon fill="#000000" fill-opacity="0.200000" stroke="#000000" stroke-width="2" stroke-opacity="0.200000" points="310.72,-634.08 307.03,-628.91 313.14,-630.65 310.72,-634.08"/>
</g>
<!-- packages/UI/svg&#45;objects/src/components/black&#45;bg.ts -->
<g id="node4" class="node">
<title>packages/UI/svg&#45;objects/src/components/black&#45;bg.ts</title>
<g id="a_node4"><a xlink:href="packages/UI/svg-objects/src/components/black-bg.ts" xlink:title="black&#45;bg.ts">
<path fill="#ddfeff" stroke="black" d="M512.48,-189.78C512.48,-189.78 457.48,-189.78 457.48,-189.78 454.48,-189.78 451.48,-186.78 451.48,-183.78 451.48,-183.78 451.48,-177.78 451.48,-177.78 451.48,-174.78 454.48,-171.78 457.48,-171.78 457.48,-171.78 512.48,-171.78 512.48,-171.78 515.48,-171.78 518.48,-174.78 518.48,-177.78 518.48,-177.78 518.48,-183.78 518.48,-183.78 518.48,-186.78 515.48,-189.78 512.48,-189.78"/>
<text text-anchor="start" x="459.48" y="-178.58" font-family="Helvetica,sans-Serif" font-size="9.00">black&#45;bg.ts</text>
</a>
</g>
</g>
<!-- packages/UI/view/dist/index.js -->
<g id="node5" class="node">
<title>packages/UI/view/dist/index.js</title>
<g id="a_node5"><a xlink:href="packages/UI/view/dist/index.js" xlink:title="index.js">
<polygon fill="#ffffcc" stroke="black" points="532.82,-368.95 531.32,-370.95 520.82,-370.95 519.32,-368.95 478.82,-368.95 478.82,-350.95 532.82,-350.95 532.82,-368.95"/>
<text text-anchor="start" x="488.32" y="-357.75" font-family="Helvetica,sans-Serif" font-size="9.00">index.js</text>
</a>
</g>
</g>
<!-- packages/UI/svg&#45;objects/src/components/black&#45;bg.ts&#45;&gt;packages/UI/view/dist/index.js -->
<g id="edge2" class="edge">
<title>packages/UI/svg&#45;objects/src/components/black&#45;bg.ts&#45;&gt;packages/UI/view/dist/index.js</title>
<path fill="none" stroke="#000000" stroke-width="2" stroke-opacity="0.200000" d="M486.05,-189.91C489.4,-218.78 499.82,-308.29 504.03,-344.5"/>
<polygon fill="#000000" fill-opacity="0.200000" stroke="#000000" stroke-width="2" stroke-opacity="0.200000" points="501.96,-344.9 504.74,-350.62 506.13,-344.42 501.96,-344.9"/>
</g>
<!-- packages/UI/view&#45;parameters/dist/index.js -->
<g id="node6" class="node">
<title>packages/UI/view&#45;parameters/dist/index.js</title>
<g id="a_node6"><a xlink:href="packages/UI/view-parameters/dist/index.js" xlink:title="index.js">
<polygon fill="#ffffcc" stroke="black" points="465.25,-333.47 463.75,-335.47 453.25,-335.47 451.75,-333.47 411.25,-333.47 411.25,-315.47 465.25,-315.47 465.25,-333.47"/>
<text text-anchor="start" x="420.75" y="-322.27" font-family="Helvetica,sans-Serif" font-size="9.00">index.js</text>
</a>
</g>
</g>
<!-- packages/UI/svg&#45;objects/src/components/black&#45;bg.ts&#45;&gt;packages/UI/view&#45;parameters/dist/index.js -->
<g id="edge3" class="edge">
<title>packages/UI/svg&#45;objects/src/components/black&#45;bg.ts&#45;&gt;packages/UI/view&#45;parameters/dist/index.js</title>
<path fill="none" stroke="#000000" stroke-width="2" stroke-opacity="0.200000" d="M481.92,-190.21C473.99,-214.58 452.78,-279.8 443.14,-309.44"/>
<polygon fill="#000000" fill-opacity="0.200000" stroke="#000000" stroke-width="2" stroke-opacity="0.200000" points="441.12,-308.84 441.27,-315.2 445.12,-310.14 441.12,-308.84"/>
</g>
<!-- packages/UI/svg&#45;objects/src/components/black&#45;key.ts -->
<g id="node7" class="node">
<title>packages/UI/svg&#45;objects/src/components/black&#45;key.ts</title>
<g id="a_node7"><a xlink:href="packages/UI/svg-objects/src/components/black-key.ts" xlink:title="black&#45;key.ts">
<path fill="#ddfeff" stroke="black" d="M437.48,-200.59C437.48,-200.59 380.48,-200.59 380.48,-200.59 377.48,-200.59 374.48,-197.59 374.48,-194.59 374.48,-194.59 374.48,-188.59 374.48,-188.59 374.48,-185.59 377.48,-182.59 380.48,-182.59 380.48,-182.59 437.48,-182.59 437.48,-182.59 440.48,-182.59 443.48,-185.59 443.48,-188.59 443.48,-188.59 443.48,-194.59 443.48,-194.59 443.48,-197.59 440.48,-200.59 437.48,-200.59"/>
<text text-anchor="start" x="382.48" y="-189.39" font-family="Helvetica,sans-Serif" font-size="9.00">black&#45;key.ts</text>
</a>
</g>
</g>
<!-- packages/UI/svg&#45;objects/src/components/black&#45;key.ts&#45;&gt;packages/UI/view/dist/index.js -->
<g id="edge4" class="edge">
<title>packages/UI/svg&#45;objects/src/components/black&#45;key.ts&#45;&gt;packages/UI/view/dist/index.js</title>
<path fill="none" stroke="#000000" stroke-width="2" stroke-opacity="0.200000" d="M414.18,-200.64C430.08,-228.28 478.08,-311.71 497.52,-345.5"/>
<polygon fill="#000000" fill-opacity="0.200000" stroke="#000000" stroke-width="2" stroke-opacity="0.200000" points="495.78,-346.7 500.59,-350.85 499.42,-344.6 495.78,-346.7"/>
</g>
<!-- packages/UI/svg&#45;objects/src/components/black&#45;key.ts&#45;&gt;packages/UI/view&#45;parameters/dist/index.js -->
<g id="edge5" class="edge">
<title>packages/UI/svg&#45;objects/src/components/black&#45;key.ts&#45;&gt;packages/UI/view&#45;parameters/dist/index.js</title>
<path fill="none" stroke="#000000" stroke-width="2" stroke-opacity="0.200000" d="M410.99,-200.73C415.94,-223.2 428.75,-281.37 434.88,-309.2"/>
<polygon fill="#000000" fill-opacity="0.200000" stroke="#000000" stroke-width="2" stroke-opacity="0.200000" points="432.88,-309.87 436.22,-315.28 436.98,-308.97 432.88,-309.87"/>
</g>
<!-- packages/UI/svg&#45;objects/src/components/index.ts -->
<g id="node8" class="node">
<title>packages/UI/svg&#45;objects/src/components/index.ts</title>
<g id="a_node8"><a xlink:href="packages/UI/svg-objects/src/components/index.ts" xlink:title="index.ts">
<path fill="#ddfeff" stroke="black" d="M606.11,-271.32C606.11,-271.32 564.11,-271.32 564.11,-271.32 561.11,-271.32 558.11,-268.32 558.11,-265.32 558.11,-265.32 558.11,-259.32 558.11,-259.32 558.11,-256.32 561.11,-253.32 564.11,-253.32 564.11,-253.32 606.11,-253.32 606.11,-253.32 609.11,-253.32 612.11,-256.32 612.11,-259.32 612.11,-259.32 612.11,-265.32 612.11,-265.32 612.11,-268.32 609.11,-271.32 606.11,-271.32"/>
<text text-anchor="start" x="566.61" y="-260.12" font-family="Helvetica,sans-Serif" font-size="9.00">index.ts</text>
</a>
</g>
</g>
<!-- packages/UI/svg&#45;objects/src/components/index.ts&#45;&gt;packages/UI/svg&#45;objects/src/components/black&#45;bg.ts -->
<g id="edge6" class="edge">
<title>packages/UI/svg&#45;objects/src/components/index.ts&#45;&gt;packages/UI/svg&#45;objects/src/components/black&#45;bg.ts</title>
<path fill="none" stroke="#000000" stroke-width="2" stroke-opacity="0.200000" d="M574.01,-253.28C556.27,-238.83 521.44,-210.47 501,-193.83"/>
<polygon fill="#000000" fill-opacity="0.200000" stroke="#000000" stroke-width="2" stroke-opacity="0.200000" points="497.46,-188.23 500.78,-193.65 494.81,-191.49 497.46,-188.23"/>
</g>
<!-- packages/UI/svg&#45;objects/src/components/index.ts&#45;&gt;packages/UI/svg&#45;objects/src/components/black&#45;key.ts -->
<g id="edge7" class="edge">
<title>packages/UI/svg&#45;objects/src/components/index.ts&#45;&gt;packages/UI/svg&#45;objects/src/components/black&#45;key.ts</title>
<path fill="none" stroke="#000000" stroke-width="2" stroke-opacity="0.200000" d="M562.44,-253.22C530.47,-240.38 472.16,-216.96 437.35,-202.99"/>
<polygon fill="#000000" fill-opacity="0.200000" stroke="#000000" stroke-width="2" stroke-opacity="0.200000" points="432.34,-198.71 437.12,-202.9 430.77,-202.61 432.34,-198.71"/>
</g>
<!-- packages/UI/svg&#45;objects/src/components/white&#45;bg.ts -->
<g id="node9" class="node">
<title>packages/UI/svg&#45;objects/src/components/white&#45;bg.ts</title>
<g id="a_node9"><a xlink:href="packages/UI/svg-objects/src/components/white-bg.ts" xlink:title="white&#45;bg.ts">
<path fill="#ddfeff" stroke="black" d="M687.33,-296.33C687.33,-296.33 631.33,-296.33 631.33,-296.33 628.33,-296.33 625.33,-293.33 625.33,-290.33 625.33,-290.33 625.33,-284.33 625.33,-284.33 625.33,-281.33 628.33,-278.33 631.33,-278.33 631.33,-278.33 687.33,-278.33 687.33,-278.33 690.33,-278.33 693.33,-281.33 693.33,-284.33 693.33,-284.33 693.33,-290.33 693.33,-290.33 693.33,-293.33 690.33,-296.33 687.33,-296.33"/>
<text text-anchor="start" x="633.33" y="-285.13" font-family="Helvetica,sans-Serif" font-size="9.00">white&#45;bg.ts</text>
</a>
</g>
</g>
<!-- packages/UI/svg&#45;objects/src/components/index.ts&#45;&gt;packages/UI/svg&#45;objects/src/components/white&#45;bg.ts -->
<g id="edge8" class="edge">
<title>packages/UI/svg&#45;objects/src/components/index.ts&#45;&gt;packages/UI/svg&#45;objects/src/components/white&#45;bg.ts</title>
<path fill="none" stroke="#000000" stroke-width="2" stroke-opacity="0.200000" d="M611.9,-271.35C616.68,-272.96 621.7,-274.65 626.62,-276.31"/>
<polygon fill="#000000" fill-opacity="0.200000" stroke="#000000" stroke-width="2" stroke-opacity="0.200000" points="631.66,-280.22 626.64,-276.31 633,-276.24 631.66,-280.22"/>
</g>
<!-- packages/UI/svg&#45;objects/src/components/white&#45;key.ts -->
<g id="node10" class="node">
<title>packages/UI/svg&#45;objects/src/components/white&#45;key.ts</title>
<g id="a_node10"><a xlink:href="packages/UI/svg-objects/src/components/white-key.ts" xlink:title="white&#45;key.ts">
<path fill="#ddfeff" stroke="black" d="M594.97,-176.86C594.97,-176.86 536.97,-176.86 536.97,-176.86 533.97,-176.86 530.97,-173.86 530.97,-170.86 530.97,-170.86 530.97,-164.86 530.97,-164.86 530.97,-161.86 533.97,-158.86 536.97,-158.86 536.97,-158.86 594.97,-158.86 594.97,-158.86 597.97,-158.86 600.97,-161.86 600.97,-164.86 600.97,-164.86 600.97,-170.86 600.97,-170.86 600.97,-173.86 597.97,-176.86 594.97,-176.86"/>
<text text-anchor="start" x="538.97" y="-165.66" font-family="Helvetica,sans-Serif" font-size="9.00">white&#45;key.ts</text>
</a>
</g>
</g>
<!-- packages/UI/svg&#45;objects/src/components/index.ts&#45;&gt;packages/UI/svg&#45;objects/src/components/white&#45;key.ts -->
<g id="edge9" class="edge">
<title>packages/UI/svg&#45;objects/src/components/index.ts&#45;&gt;packages/UI/svg&#45;objects/src/components/white&#45;key.ts</title>
<path fill="none" stroke="#000000" stroke-width="2" stroke-opacity="0.200000" d="M583.27,-253.26C579.98,-237.01 573.04,-202.75 569.02,-182.92"/>
<polygon fill="#000000" fill-opacity="0.200000" stroke="#000000" stroke-width="2" stroke-opacity="0.200000" points="569.89,-176.61 569.02,-182.91 565.77,-177.45 569.89,-176.61"/>
</g>
<!-- packages/UI/svg&#45;objects/src/components/white&#45;bg.ts&#45;&gt;packages/UI/view/dist/index.js -->
<g id="edge10" class="edge">
<title>packages/UI/svg&#45;objects/src/components/white&#45;bg.ts&#45;&gt;packages/UI/view/dist/index.js</title>
<path fill="none" stroke="#000000" stroke-width="2" stroke-opacity="0.200000" d="M640.2,-296.38C612.51,-309.48 561.23,-333.73 530.66,-348.2"/>
<polygon fill="#000000" fill-opacity="0.200000" stroke="#000000" stroke-width="2" stroke-opacity="0.200000" points="529.72,-346.32 525.2,-350.78 531.52,-350.11 529.72,-346.32"/>
</g>
<!-- packages/UI/svg&#45;objects/src/components/white&#45;bg.ts&#45;&gt;packages/UI/view&#45;parameters/dist/index.js -->
<g id="edge11" class="edge">
<title>packages/UI/svg&#45;objects/src/components/white&#45;bg.ts&#45;&gt;packages/UI/view&#45;parameters/dist/index.js</title>
<path fill="none" stroke="#000000" stroke-width="2" stroke-opacity="0.200000" d="M625.27,-293.05C583.45,-300.08 512.98,-311.92 471.52,-318.88"/>
<polygon fill="#000000" fill-opacity="0.200000" stroke="#000000" stroke-width="2" stroke-opacity="0.200000" points="470.95,-316.85 465.38,-319.92 471.64,-320.99 470.95,-316.85"/>
</g>
<!-- packages/UI/svg&#45;objects/src/components/white&#45;key.ts&#45;&gt;packages/UI/view/dist/index.js -->
<g id="edge13" class="edge">
<title>packages/UI/svg&#45;objects/src/components/white&#45;key.ts&#45;&gt;packages/UI/view/dist/index.js</title>
<path fill="none" stroke="#000000" stroke-width="2" stroke-opacity="0.200000" d="M563.15,-176.87C553.62,-207.3 522.56,-306.51 510.59,-344.74"/>
<polygon fill="#000000" fill-opacity="0.200000" stroke="#000000" stroke-width="2" stroke-opacity="0.200000" points="508.5,-344.38 508.71,-350.74 512.51,-345.64 508.5,-344.38"/>
</g>
<!-- packages/UI/svg&#45;objects/src/components/white&#45;key.ts&#45;&gt;packages/UI/view&#45;parameters/dist/index.js -->
<g id="edge14" class="edge">
<title>packages/UI/svg&#45;objects/src/components/white&#45;key.ts&#45;&gt;packages/UI/view&#45;parameters/dist/index.js</title>
<path fill="none" stroke="#000000" stroke-width="2" stroke-opacity="0.200000" d="M558.37,-177.19C536.84,-203.58 475.4,-278.91 449.74,-310.39"/>
<polygon fill="#000000" fill-opacity="0.200000" stroke="#000000" stroke-width="2" stroke-opacity="0.200000" points="447.82,-309.42 445.66,-315.39 451.08,-312.07 447.82,-309.42"/>
</g>
<!-- packages/util/math/dist/index.js -->
<g id="node11" class="node">
<title>packages/util/math/dist/index.js</title>
<g id="a_node11"><a xlink:href="packages/util/math/dist/index.js" xlink:title="index.js">
<polygon fill="#ffffcc" stroke="black" points="658.74,-18 657.24,-20 646.74,-20 645.24,-18 604.74,-18 604.74,0 658.74,0 658.74,-18"/>
<text text-anchor="start" x="614.24" y="-6.8" font-family="Helvetica,sans-Serif" font-size="9.00">index.js</text>
</a>
</g>
</g>
<!-- packages/UI/svg&#45;objects/src/components/white&#45;key.ts&#45;&gt;packages/util/math/dist/index.js -->
<g id="edge12" class="edge">
<title>packages/UI/svg&#45;objects/src/components/white&#45;key.ts&#45;&gt;packages/util/math/dist/index.js</title>
<path fill="none" stroke="#000000" stroke-width="2" stroke-opacity="0.200000" d="M569.89,-158.4C580.88,-131.85 612.08,-56.47 625.49,-24.09"/>
<polygon fill="#000000" fill-opacity="0.200000" stroke="#000000" stroke-width="2" stroke-opacity="0.200000" points="627.57,-24.56 627.92,-18.21 623.69,-22.95 627.57,-24.56"/>
</g>
<!-- packages/UI/svg&#45;objects/src/current&#45;time&#45;line.ts&#45;&gt;packages/UI/view/dist/index.js -->
<g id="edge15" class="edge">
<title>packages/UI/svg&#45;objects/src/current&#45;time&#45;line.ts&#45;&gt;packages/UI/view/dist/index.js</title>
<path fill="none" stroke="#000000" stroke-width="2" stroke-opacity="0.200000" d="M336.79,-382.81C378.81,-377.12 436.61,-369.31 472.57,-364.44"/>
<polygon fill="#000000" fill-opacity="0.200000" stroke="#000000" stroke-width="2" stroke-opacity="0.200000" points="472.92,-366.52 478.59,-363.63 472.36,-362.35 472.92,-366.52"/>
</g>
<!-- packages/UI/svg&#45;objects/src/current&#45;time&#45;line.ts&#45;&gt;packages/UI/view&#45;parameters/dist/index.js -->
<g id="edge16" class="edge">
<title>packages/UI/svg&#45;objects/src/current&#45;time&#45;line.ts&#45;&gt;packages/UI/view&#45;parameters/dist/index.js</title>
<path fill="none" stroke="#000000" stroke-width="2" stroke-opacity="0.200000" d="M306.02,-380.77C333.53,-369.05 381.36,-348.69 411.33,-335.93"/>
<polygon fill="#000000" fill-opacity="0.200000" stroke="#000000" stroke-width="2" stroke-opacity="0.200000" points="412.38,-337.77 417.07,-333.49 410.73,-333.91 412.38,-337.77"/>
</g>
<!-- packages/UI/svg&#45;objects/src/octave/octave&#45;bgs.ts -->
<g id="node14" class="node">
<title>packages/UI/svg&#45;objects/src/octave/octave&#45;bgs.ts</title>
<g id="a_node14"><a xlink:href="packages/UI/svg-objects/src/octave/octave-bgs.ts" xlink:title="octave&#45;bgs.ts">
<path fill="#ddfeff" stroke="black" d="M506.54,-548.58C506.54,-548.58 441.54,-548.58 441.54,-548.58 438.54,-548.58 435.54,-545.58 435.54,-542.58 435.54,-542.58 435.54,-536.58 435.54,-536.58 435.54,-533.58 438.54,-530.58 441.54,-530.58 441.54,-530.58 506.54,-530.58 506.54,-530.58 509.54,-530.58 512.54,-533.58 512.54,-536.58 512.54,-536.58 512.54,-542.58 512.54,-542.58 512.54,-545.58 509.54,-548.58 506.54,-548.58"/>
<text text-anchor="start" x="443.54" y="-537.38" font-family="Helvetica,sans-Serif" font-size="9.00">octave&#45;bgs.ts</text>
</a>
</g>
</g>
<!-- packages/UI/svg&#45;objects/src/octave/index.ts&#45;&gt;packages/UI/svg&#45;objects/src/octave/octave&#45;bgs.ts -->
<g id="edge19" class="edge">
<title>packages/UI/svg&#45;objects/src/octave/index.ts&#45;&gt;packages/UI/svg&#45;objects/src/octave/octave&#45;bgs.ts</title>
<path fill="none" stroke="#000000" stroke-width="2" stroke-opacity="0.200000" d="M338.18,-632.49C364.86,-614.25 425.16,-573.01 455.65,-552.16"/>
<polygon fill="#000000" fill-opacity="0.200000" stroke="#000000" stroke-width="2" stroke-opacity="0.200000" points="461.81,-550.49 455.68,-552.14 459.44,-547.02 461.81,-550.49"/>
</g>
<!-- packages/UI/svg&#45;objects/src/octave/octave&#45;keys.ts -->
<g id="node15" class="node">
<title>packages/UI/svg&#45;objects/src/octave/octave&#45;keys.ts</title>
<g id="a_node15"><a xlink:href="packages/UI/svg-objects/src/octave/octave-keys.ts" xlink:title="octave&#45;keys.ts">
<path fill="#ddfeff" stroke="black" d="M429.07,-511.31C429.07,-511.31 360.07,-511.31 360.07,-511.31 357.07,-511.31 354.07,-508.31 354.07,-505.31 354.07,-505.31 354.07,-499.31 354.07,-499.31 354.07,-496.31 357.07,-493.31 360.07,-493.31 360.07,-493.31 429.07,-493.31 429.07,-493.31 432.07,-493.31 435.07,-496.31 435.07,-499.31 435.07,-499.31 435.07,-505.31 435.07,-505.31 435.07,-508.31 432.07,-511.31 429.07,-511.31"/>
<text text-anchor="start" x="362.07" y="-500.11" font-family="Helvetica,sans-Serif" font-size="9.00">octave&#45;keys.ts</text>
</a>
</g>
</g>
<!-- packages/UI/svg&#45;objects/src/octave/index.ts&#45;&gt;packages/UI/svg&#45;objects/src/octave/octave&#45;keys.ts -->
<g id="edge20" class="edge">
<title>packages/UI/svg&#45;objects/src/octave/index.ts&#45;&gt;packages/UI/svg&#45;objects/src/octave/octave&#45;keys.ts</title>
<path fill="none" stroke="#000000" stroke-width="2" stroke-opacity="0.200000" d="M329.52,-632.41C341.27,-608.91 372.62,-546.21 387.07,-517.29"/>
<polygon fill="#000000" fill-opacity="0.200000" stroke="#000000" stroke-width="2" stroke-opacity="0.200000" points="391.77,-512.6 387.21,-517.03 388.01,-510.72 391.77,-512.6"/>
</g>
<!-- packages/UI/svg&#45;objects/src/octave/octave&#45;bgs.ts&#45;&gt;packages/UI/view/dist/index.js -->
<g id="edge25" class="edge">
<title>packages/UI/svg&#45;objects/src/octave/octave&#45;bgs.ts&#45;&gt;packages/UI/view/dist/index.js</title>
<path fill="none" stroke="#000000" stroke-width="2" stroke-opacity="0.200000" d="M475.66,-530.42C480.78,-501.48 496.66,-411.74 503.08,-375.43"/>
<polygon fill="#000000" fill-opacity="0.200000" stroke="#000000" stroke-width="2" stroke-opacity="0.200000" points="505.19,-375.57 504.17,-369.3 501.06,-374.84 505.19,-375.57"/>
</g>
<!-- packages/UI/svg&#45;objects/src/octave/octave&#45;bgs.ts&#45;&gt;packages/UI/view&#45;parameters/dist/index.js -->
<g id="edge26" class="edge">
<title>packages/UI/svg&#45;objects/src/octave/octave&#45;bgs.ts&#45;&gt;packages/UI/view&#45;parameters/dist/index.js</title>
<path fill="none" stroke="#000000" stroke-width="2" stroke-opacity="0.200000" d="M472.51,-530.34C466.94,-496.9 447.83,-382.02 440.83,-340.02"/>
<polygon fill="#000000" fill-opacity="0.200000" stroke="#000000" stroke-width="2" stroke-opacity="0.200000" points="442.88,-339.5 439.82,-333.93 438.73,-340.19 442.88,-339.5"/>
</g>
<!-- packages/UI/svg&#45;objects/src/octave/octave&#45;bg.ts -->
<g id="node16" class="node">
<title>packages/UI/svg&#45;objects/src/octave/octave&#45;bg.ts</title>
<g id="a_node16"><a xlink:href="packages/UI/svg-objects/src/octave/octave-bg.ts" xlink:title="octave&#45;bg.ts">
<path fill="#ddfeff" stroke="black" d="M648.91,-532.18C648.91,-532.18 587.91,-532.18 587.91,-532.18 584.91,-532.18 581.91,-529.18 581.91,-526.18 581.91,-526.18 581.91,-520.18 581.91,-520.18 581.91,-517.18 584.91,-514.18 587.91,-514.18 587.91,-514.18 648.91,-514.18 648.91,-514.18 651.91,-514.18 654.91,-517.18 654.91,-520.18 654.91,-520.18 654.91,-526.18 654.91,-526.18 654.91,-529.18 651.91,-532.18 648.91,-532.18"/>
<text text-anchor="start" x="589.91" y="-520.98" font-family="Helvetica,sans-Serif" font-size="9.00">octave&#45;bg.ts</text>
</a>
</g>
</g>
<!-- packages/UI/svg&#45;objects/src/octave/octave&#45;bgs.ts&#45;&gt;packages/UI/svg&#45;objects/src/octave/octave&#45;bg.ts -->
<g id="edge24" class="edge">
<title>packages/UI/svg&#45;objects/src/octave/octave&#45;bgs.ts&#45;&gt;packages/UI/svg&#45;objects/src/octave/octave&#45;bg.ts</title>
<path fill="none" stroke="#000000" stroke-width="2" stroke-opacity="0.200000" d="M512.73,-535.18C532.11,-532.98 555.62,-530.31 575.55,-528.05"/>
<polygon fill="#000000" fill-opacity="0.200000" stroke="#000000" stroke-width="2" stroke-opacity="0.200000" points="575.88,-530.13 581.61,-527.36 575.41,-525.95 575.88,-530.13"/>
</g>
<!-- packages/UI/svg&#45;objects/src/octave/octave&#45;keys.ts&#45;&gt;packages/UI/view/dist/index.js -->
<g id="edge35" class="edge">
<title>packages/UI/svg&#45;objects/src/octave/octave&#45;keys.ts&#45;&gt;packages/UI/view/dist/index.js</title>
<path fill="none" stroke="#000000" stroke-width="2" stroke-opacity="0.200000" d="M401.87,-492.97C420.89,-468.63 472.08,-403.13 494.75,-374.11"/>
<polygon fill="#000000" fill-opacity="0.200000" stroke="#000000" stroke-width="2" stroke-opacity="0.200000" points="496.6,-375.16 498.64,-369.14 493.29,-372.57 496.6,-375.16"/>
</g>
<!-- packages/UI/svg&#45;objects/src/octave/octave&#45;keys.ts&#45;&gt;packages/UI/view&#45;parameters/dist/index.js -->
<g id="edge36" class="edge">
<title>packages/UI/svg&#45;objects/src/octave/octave&#45;keys.ts&#45;&gt;packages/UI/view&#45;parameters/dist/index.js</title>
<path fill="none" stroke="#000000" stroke-width="2" stroke-opacity="0.200000" d="M396.79,-493.25C403.83,-464.6 425.65,-375.75 434.48,-339.8"/>
<polygon fill="#000000" fill-opacity="0.200000" stroke="#000000" stroke-width="2" stroke-opacity="0.200000" points="436.58,-340.06 435.97,-333.73 432.5,-339.06 436.58,-340.06"/>
</g>
<!-- packages/UI/svg&#45;objects/src/octave/octave&#45;key.ts -->
<g id="node20" class="node">
<title>packages/UI/svg&#45;objects/src/octave/octave&#45;key.ts</title>
<g id="a_node20"><a xlink:href="packages/UI/svg-objects/src/octave/octave-key.ts" xlink:title="octave&#45;key.ts">
<path fill="#ddfeff" stroke="black" d="M413.7,-410.24C413.7,-410.24 350.7,-410.24 350.7,-410.24 347.7,-410.24 344.7,-407.24 344.7,-404.24 344.7,-404.24 344.7,-398.24 344.7,-398.24 344.7,-395.24 347.7,-392.24 350.7,-392.24 350.7,-392.24 413.7,-392.24 413.7,-392.24 416.7,-392.24 419.7,-395.24 419.7,-398.24 419.7,-398.24 419.7,-404.24 419.7,-404.24 419.7,-407.24 416.7,-410.24 413.7,-410.24"/>
<text text-anchor="start" x="352.7" y="-399.04" font-family="Helvetica,sans-Serif" font-size="9.00">octave&#45;key.ts</text>
</a>
</g>
</g>
<!-- packages/UI/svg&#45;objects/src/octave/octave&#45;keys.ts&#45;&gt;packages/UI/svg&#45;objects/src/octave/octave&#45;key.ts -->
<g id="edge34" class="edge">
<title>packages/UI/svg&#45;objects/src/octave/octave&#45;keys.ts&#45;&gt;packages/UI/svg&#45;objects/src/octave/octave&#45;key.ts</title>
<path fill="none" stroke="#000000" stroke-width="2" stroke-opacity="0.200000" d="M393.42,-492.99C391.28,-475.45 386.63,-437.42 384.03,-416.25"/>
<polygon fill="#000000" fill-opacity="0.200000" stroke="#000000" stroke-width="2" stroke-opacity="0.200000" points="386.12,-415.96 383.3,-410.26 381.95,-416.47 386.12,-415.96"/>
</g>
<!-- packages/UI/svg&#45;objects/src/octave/octave&#45;bg.ts&#45;&gt;packages/UI/view/dist/index.js -->
<g id="edge23" class="edge">
<title>packages/UI/svg&#45;objects/src/octave/octave&#45;bg.ts&#45;&gt;packages/UI/view/dist/index.js</title>
<path fill="none" stroke="#000000" stroke-width="2" stroke-opacity="0.200000" d="M612.03,-513.94C593.3,-486.78 538.33,-407.08 515.72,-374.29"/>
<polygon fill="#000000" fill-opacity="0.200000" stroke="#000000" stroke-width="2" stroke-opacity="0.200000" points="517.27,-372.84 512.13,-369.09 513.81,-375.22 517.27,-372.84"/>
</g>
<!-- packages/UI/svg&#45;objects/src/octave/octave&#45;black&#45;bg.ts -->
<g id="node17" class="node">
<title>packages/UI/svg&#45;objects/src/octave/octave&#45;black&#45;bg.ts</title>
<g id="a_node17"><a xlink:href="packages/UI/svg-objects/src/octave/octave-black-bg.ts" xlink:title="octave&#45;black&#45;bg.ts">
<path fill="#ddfeff" stroke="black" d="M722.37,-438.11C722.37,-438.11 634.37,-438.11 634.37,-438.11 631.37,-438.11 628.37,-435.11 628.37,-432.11 628.37,-432.11 628.37,-426.11 628.37,-426.11 628.37,-423.11 631.37,-420.11 634.37,-420.11 634.37,-420.11 722.37,-420.11 722.37,-420.11 725.37,-420.11 728.37,-423.11 728.37,-426.11 728.37,-426.11 728.37,-432.11 728.37,-432.11 728.37,-435.11 725.37,-438.11 722.37,-438.11"/>
<text text-anchor="start" x="636.37" y="-426.91" font-family="Helvetica,sans-Serif" font-size="9.00">octave&#45;black&#45;bg.ts</text>
</a>
</g>
</g>
<!-- packages/UI/svg&#45;objects/src/octave/octave&#45;bg.ts&#45;&gt;packages/UI/svg&#45;objects/src/octave/octave&#45;black&#45;bg.ts -->
<g id="edge21" class="edge">
<title>packages/UI/svg&#45;objects/src/octave/octave&#45;bg.ts&#45;&gt;packages/UI/svg&#45;objects/src/octave/octave&#45;black&#45;bg.ts</title>
<path fill="none" stroke="#000000" stroke-width="2" stroke-opacity="0.200000" d="M624.16,-514.16C634.61,-497.77 656.79,-462.97 669.29,-443.35"/>
<polygon fill="#000000" fill-opacity="0.200000" stroke="#000000" stroke-width="2" stroke-opacity="0.200000" points="671.09,-444.43 672.55,-438.24 667.55,-442.17 671.09,-444.43"/>
</g>
<!-- packages/UI/svg&#45;objects/src/octave/octave&#45;white&#45;bg.ts -->
<g id="node18" class="node">
<title>packages/UI/svg&#45;objects/src/octave/octave&#45;white&#45;bg.ts</title>
<g id="a_node18"><a xlink:href="packages/UI/svg-objects/src/octave/octave-white-bg.ts" xlink:title="octave&#45;white&#45;bg.ts">
<path fill="#ddfeff" stroke="black" d="M743.03,-385.25C743.03,-385.25 654.03,-385.25 654.03,-385.25 651.03,-385.25 648.03,-382.25 648.03,-379.25 648.03,-379.25 648.03,-373.25 648.03,-373.25 648.03,-370.25 651.03,-367.25 654.03,-367.25 654.03,-367.25 743.03,-367.25 743.03,-367.25 746.03,-367.25 749.03,-370.25 749.03,-373.25 749.03,-373.25 749.03,-379.25 749.03,-379.25 749.03,-382.25 746.03,-385.25 743.03,-385.25"/>
<text text-anchor="start" x="656.03" y="-374.05" font-family="Helvetica,sans-Serif" font-size="9.00">octave&#45;white&#45;bg.ts</text>
</a>
</g>
</g>
<!-- packages/UI/svg&#45;objects/src/octave/octave&#45;bg.ts&#45;&gt;packages/UI/svg&#45;objects/src/octave/octave&#45;white&#45;bg.ts -->
<g id="edge22" class="edge">
<title>packages/UI/svg&#45;objects/src/octave/octave&#45;bg.ts&#45;&gt;packages/UI/svg&#45;objects/src/octave/octave&#45;white&#45;bg.ts</title>
<path fill="none" stroke="#000000" stroke-width="2" stroke-opacity="0.200000" d="M623.42,-513.99C636.91,-489.25 674.07,-421.1 690.52,-390.94"/>
<polygon fill="#000000" fill-opacity="0.200000" stroke="#000000" stroke-width="2" stroke-opacity="0.200000" points="692.49,-391.71 693.52,-385.44 688.8,-389.7 692.49,-391.71"/>
</g>
<!-- packages/UI/svg&#45;objects/src/octave/octave&#45;black&#45;bg.ts&#45;&gt;packages/UI/view/dist/index.js -->
<g id="edge28" class="edge">
<title>packages/UI/svg&#45;objects/src/octave/octave&#45;black&#45;bg.ts&#45;&gt;packages/UI/view/dist/index.js</title>
<path fill="none" stroke="#000000" stroke-width="2" stroke-opacity="0.200000" d="M655.81,-420.07C624.55,-407.54 568.08,-384.9 534.06,-371.26"/>
<polygon fill="#000000" fill-opacity="0.200000" stroke="#000000" stroke-width="2" stroke-opacity="0.200000" points="534.74,-369.27 528.39,-368.99 533.17,-373.17 534.74,-369.27"/>
</g>
<!-- packages/UI/svg&#45;objects/src/octave/octave&#45;black&#45;bg.ts&#45;&gt;packages/UI/svg&#45;objects/src/components/index.ts -->
<g id="edge27" class="edge">
<title>packages/UI/svg&#45;objects/src/octave/octave&#45;black&#45;bg.ts&#45;&gt;packages/UI/svg&#45;objects/src/components/index.ts</title>
<path fill="none" stroke="#000000" stroke-width="2" stroke-opacity="0.200000" d="M673.09,-419.67C657.57,-391.91 612.03,-310.48 593.3,-276.97"/>
<polygon fill="#000000" fill-opacity="0.200000" stroke="#000000" stroke-width="2" stroke-opacity="0.200000" points="595.09,-275.87 590.33,-271.66 591.42,-277.92 595.09,-275.87"/>
</g>
<!-- packages/UI/svg&#45;objects/src/octave/octave&#45;white&#45;bg.ts&#45;&gt;packages/UI/view/dist/index.js -->
<g id="edge38" class="edge">
<title>packages/UI/svg&#45;objects/src/octave/octave&#45;white&#45;bg.ts&#45;&gt;packages/UI/view/dist/index.js</title>
<path fill="none" stroke="#000000" stroke-width="2" stroke-opacity="0.200000" d="M647.9,-371.97C613.54,-369.06 569.09,-365.3 539.13,-362.76"/>
<polygon fill="#000000" fill-opacity="0.200000" stroke="#000000" stroke-width="2" stroke-opacity="0.200000" points="539.12,-360.66 532.97,-362.24 538.77,-364.84 539.12,-360.66"/>
</g>
<!-- packages/UI/svg&#45;objects/src/octave/octave&#45;white&#45;bg.ts&#45;&gt;packages/UI/svg&#45;objects/src/components/index.ts -->
<g id="edge37" class="edge">
<title>packages/UI/svg&#45;objects/src/octave/octave&#45;white&#45;bg.ts&#45;&gt;packages/UI/svg&#45;objects/src/components/index.ts</title>
<path fill="none" stroke="#000000" stroke-width="2" stroke-opacity="0.200000" d="M689.25,-366.93C669.21,-346.8 621.83,-299.21 598.52,-275.8"/>
<polygon fill="#000000" fill-opacity="0.200000" stroke="#000000" stroke-width="2" stroke-opacity="0.200000" points="599.92,-274.22 594.2,-271.45 596.94,-277.19 599.92,-274.22"/>
</g>
<!-- packages/UI/svg&#45;objects/src/octave/octave&#45;black&#45;key.ts -->
<g id="node19" class="node">
<title>packages/UI/svg&#45;objects/src/octave/octave&#45;black&#45;key.ts</title>
<g id="a_node19"><a xlink:href="packages/UI/svg-objects/src/octave/octave-black-key.ts" xlink:title="octave&#45;black&#45;key.ts">
<path fill="#ddfeff" stroke="black" d="M600.66,-459.39C600.66,-459.39 510.66,-459.39 510.66,-459.39 507.66,-459.39 504.66,-456.39 504.66,-453.39 504.66,-453.39 504.66,-447.39 504.66,-447.39 504.66,-444.39 507.66,-441.39 510.66,-441.39 510.66,-441.39 600.66,-441.39 600.66,-441.39 603.66,-441.39 606.66,-444.39 606.66,-447.39 606.66,-447.39 606.66,-453.39 606.66,-453.39 606.66,-456.39 603.66,-459.39 600.66,-459.39"/>
<text text-anchor="start" x="512.66" y="-448.19" font-family="Helvetica,sans-Serif" font-size="9.00">octave&#45;black&#45;key.ts</text>
</a>
</g>
</g>
<!-- packages/UI/svg&#45;objects/src/octave/octave&#45;black&#45;key.ts&#45;&gt;packages/UI/view/dist/index.js -->
<g id="edge30" class="edge">
<title>packages/UI/svg&#45;objects/src/octave/octave&#45;black&#45;key.ts&#45;&gt;packages/UI/view/dist/index.js</title>
<path fill="none" stroke="#000000" stroke-width="2" stroke-opacity="0.200000" d="M550.7,-441.38C542.09,-425.75 524.29,-393.47 513.89,-374.58"/>
<polygon fill="#000000" fill-opacity="0.200000" stroke="#000000" stroke-width="2" stroke-opacity="0.200000" points="515.65,-373.42 510.91,-369.18 511.97,-375.45 515.65,-373.42"/>
</g>
<!-- packages/UI/svg&#45;objects/src/octave/octave&#45;black&#45;key.ts&#45;&gt;packages/UI/svg&#45;objects/src/components/index.ts -->
<g id="edge29" class="edge">
<title>packages/UI/svg&#45;objects/src/octave/octave&#45;black&#45;key.ts&#45;&gt;packages/UI/svg&#45;objects/src/components/index.ts</title>
<path fill="none" stroke="#000000" stroke-width="2" stroke-opacity="0.200000" d="M557.08,-441.31C561.75,-411.47 576.68,-316.11 582.63,-278.13"/>
<polygon fill="#000000" fill-opacity="0.200000" stroke="#000000" stroke-width="2" stroke-opacity="0.200000" points="584.78,-277.99 583.63,-271.74 580.63,-277.34 584.78,-277.99"/>
</g>
<!-- packages/UI/svg&#45;objects/src/octave/octave&#45;key.ts&#45;&gt;packages/UI/view/dist/index.js -->
<g id="edge33" class="edge">
<title>packages/UI/svg&#45;objects/src/octave/octave&#45;key.ts&#45;&gt;packages/UI/view/dist/index.js</title>
<path fill="none" stroke="#000000" stroke-width="2" stroke-opacity="0.200000" d="M409.33,-392.18C428.09,-385.91 453.15,-377.54 473.03,-370.9"/>
<polygon fill="#000000" fill-opacity="0.200000" stroke="#000000" stroke-width="2" stroke-opacity="0.200000" points="473.73,-372.88 478.76,-368.99 472.4,-368.9 473.73,-372.88"/>
</g>
<!-- packages/UI/svg&#45;objects/src/octave/octave&#45;key.ts&#45;&gt;packages/UI/svg&#45;objects/src/octave/octave&#45;black&#45;key.ts -->
<g id="edge31" class="edge">
<title>packages/UI/svg&#45;objects/src/octave/octave&#45;key.ts&#45;&gt;packages/UI/svg&#45;objects/src/octave/octave&#45;black&#45;key.ts</title>
<path fill="none" stroke="#000000" stroke-width="2" stroke-opacity="0.200000" d="M414.01,-410.26C443.26,-418.54 486.67,-430.84 517.71,-439.64"/>
<polygon fill="#000000" fill-opacity="0.200000" stroke="#000000" stroke-width="2" stroke-opacity="0.200000" points="517.41,-441.73 523.75,-441.35 518.55,-437.69 517.41,-441.73"/>
</g>
<!-- packages/UI/svg&#45;objects/src/octave/octave&#45;white&#45;key.ts -->
<g id="node21" class="node">
<title>packages/UI/svg&#45;objects/src/octave/octave&#45;white&#45;key.ts</title>
<g id="a_node21"><a xlink:href="packages/UI/svg-objects/src/octave/octave-white-key.ts" xlink:title="octave&#45;white&#45;key.ts">
<path fill="#ddfeff" stroke="black" d="M415.9,-266.66C415.9,-266.66 324.9,-266.66 324.9,-266.66 321.9,-266.66 318.9,-263.66 318.9,-260.66 318.9,-260.66 318.9,-254.66 318.9,-254.66 318.9,-251.66 321.9,-248.66 324.9,-248.66 324.9,-248.66 415.9,-248.66 415.9,-248.66 418.9,-248.66 421.9,-251.66 421.9,-254.66 421.9,-254.66 421.9,-260.66 421.9,-260.66 421.9,-263.66 418.9,-266.66 415.9,-266.66"/>
<text text-anchor="start" x="326.9" y="-255.46" font-family="Helvetica,sans-Serif" font-size="9.00">octave&#45;white&#45;key.ts</text>
</a>
</g>
</g>
<!-- packages/UI/svg&#45;objects/src/octave/octave&#45;key.ts&#45;&gt;packages/UI/svg&#45;objects/src/octave/octave&#45;white&#45;key.ts -->
<g id="edge32" class="edge">
<title>packages/UI/svg&#45;objects/src/octave/octave&#45;key.ts&#45;&gt;packages/UI/svg&#45;objects/src/octave/octave&#45;white&#45;key.ts</title>
<path fill="none" stroke="#000000" stroke-width="2" stroke-opacity="0.200000" d="M381.42,-391.82C379.43,-367.58 374.12,-302.84 371.67,-273.05"/>
<polygon fill="#000000" fill-opacity="0.200000" stroke="#000000" stroke-width="2" stroke-opacity="0.200000" points="373.75,-272.73 371.16,-266.93 369.56,-273.08 373.75,-272.73"/>
</g>
<!-- packages/UI/svg&#45;objects/src/octave/octave&#45;white&#45;key.ts&#45;&gt;packages/UI/view/dist/index.js -->
<g id="edge40" class="edge">
<title>packages/UI/svg&#45;objects/src/octave/octave&#45;white&#45;key.ts&#45;&gt;packages/UI/view/dist/index.js</title>
<path fill="none" stroke="#000000" stroke-width="2" stroke-opacity="0.200000" d="M382.42,-266.73C406.55,-284.96 460.97,-326.06 488.77,-347.06"/>
<polygon fill="#000000" fill-opacity="0.200000" stroke="#000000" stroke-width="2" stroke-opacity="0.200000" points="487.58,-348.8 493.64,-350.74 490.12,-345.45 487.58,-348.8"/>
</g>
<!-- packages/UI/svg&#45;objects/src/octave/octave&#45;white&#45;key.ts&#45;&gt;packages/UI/svg&#45;objects/src/components/index.ts -->
<g id="edge39" class="edge">
<title>packages/UI/svg&#45;objects/src/octave/octave&#45;white&#45;key.ts&#45;&gt;packages/UI/svg&#45;objects/src/components/index.ts</title>
<path fill="none" stroke="#000000" stroke-width="2" stroke-opacity="0.200000" d="M422.1,-258.78C462.4,-259.65 517.17,-260.84 551.83,-261.6"/>
<polygon fill="#000000" fill-opacity="0.200000" stroke="#000000" stroke-width="2" stroke-opacity="0.200000" points="552.01,-263.7 558.06,-261.73 552.1,-259.5 552.01,-263.7"/>
</g>
</g>
</svg>
