<?xml version="1.0" encoding="UTF-8" standalone="no"?>
<!DOCTYPE svg PUBLIC "-//W3C//DTD SVG 1.1//EN"
 "http://www.w3.org/Graphics/SVG/1.1/DTD/svg11.dtd">
<!-- Generated by graphviz version 2.43.0 (0)
 -->
<!-- Title: dependency&#45;cruiser output Pages: 1 -->
<svg width="926pt" height="522pt"
 viewBox="0.00 0.00 926.00 522.00" xmlns="http://www.w3.org/2000/svg" xmlns:xlink="http://www.w3.org/1999/xlink">
<g id="graph0" class="graph" transform="scale(1 1) rotate(0) translate(4 518)">
<title>dependency&#45;cruiser output</title>
<polygon fill="white" stroke="transparent" points="-4,4 -4,-518 922,-518 922,4 -4,4"/>
<g id="clust1" class="cluster">
<title>cluster_packages</title>
<path fill="#ffffff" stroke="black" stroke-width="2" d="M20,-8C20,-8 906,-8 906,-8 912,-8 918,-14 918,-20 918,-20 918,-494 918,-494 918,-500 912,-506 906,-506 906,-506 20,-506 20,-506 14,-506 8,-500 8,-494 8,-494 8,-20 8,-20 8,-14 14,-8 20,-8"/>
<text text-anchor="middle" x="463" y="-494.8" font-family="Helvetica,sans-Serif" font-weight="bold" font-size="9.00">packages</text>
</g>
<g id="clust2" class="cluster">
<title>cluster_packages/UI</title>
<path fill="#ffffff" stroke="black" stroke-width="2" d="M28,-16C28,-16 898,-16 898,-16 904,-16 910,-22 910,-28 910,-28 910,-340 910,-340 910,-346 904,-352 898,-352 898,-352 28,-352 28,-352 22,-352 16,-346 16,-340 16,-340 16,-28 16,-28 16,-22 22,-16 28,-16"/>
<text text-anchor="middle" x="463" y="-340.8" font-family="Helvetica,sans-Serif" font-weight="bold" font-size="9.00">UI</text>
</g>
<g id="clust3" class="cluster">
<title>cluster_packages/UI/svg&#45;objects</title>
<path fill="#ffffff" stroke="black" stroke-width="2" d="M36,-46C36,-46 763,-46 763,-46 769,-46 775,-52 775,-58 775,-58 775,-270 775,-270 775,-276 769,-282 763,-282 763,-282 36,-282 36,-282 30,-282 24,-276 24,-270 24,-270 24,-58 24,-58 24,-52 30,-46 36,-46"/>
<text text-anchor="middle" x="399.5" y="-270.8" font-family="Helvetica,sans-Serif" font-weight="bold" font-size="9.00">svg&#45;objects</text>
</g>
<g id="clust4" class="cluster">
<title>cluster_packages/UI/svg&#45;objects/src</title>
<path fill="#ffffff" stroke="black" stroke-width="2" d="M125,-54C125,-54 755,-54 755,-54 761,-54 767,-60 767,-66 767,-66 767,-244 767,-244 767,-250 761,-256 755,-256 755,-256 125,-256 125,-256 119,-256 113,-250 113,-244 113,-244 113,-66 113,-66 113,-60 119,-54 125,-54"/>
<text text-anchor="middle" x="440" y="-244.8" font-family="Helvetica,sans-Serif" font-weight="bold" font-size="9.00">src</text>
</g>
<g id="clust5" class="cluster">
<title>cluster_packages/UI/svg&#45;objects/src/components</title>
<path fill="#ffffff" stroke="black" stroke-width="2" d="M618,-62C618,-62 747,-62 747,-62 753,-62 759,-68 759,-74 759,-74 759,-192 759,-192 759,-198 753,-204 747,-204 747,-204 618,-204 618,-204 612,-204 606,-198 606,-192 606,-192 606,-74 606,-74 606,-68 612,-62 618,-62"/>
<text text-anchor="middle" x="682.5" y="-192.8" font-family="Helvetica,sans-Serif" font-weight="bold" font-size="9.00">components</text>
</g>
<g id="clust6" class="cluster">
<title>cluster_packages/UI/svg&#45;objects/src/octave</title>
<path fill="#ffffff" stroke="black" stroke-width="2" d="M217,-88C217,-88 586,-88 586,-88 592,-88 598,-94 598,-100 598,-100 598,-218 598,-218 598,-224 592,-230 586,-230 586,-230 217,-230 217,-230 211,-230 205,-224 205,-218 205,-218 205,-100 205,-100 205,-94 211,-88 217,-88"/>
<text text-anchor="middle" x="401.5" y="-218.8" font-family="Helvetica,sans-Serif" font-weight="bold" font-size="9.00">octave</text>
</g>
<g id="clust7" class="cluster">
<title>cluster_packages/UI/view&#45;parameters</title>
<path fill="#ffffff" stroke="black" stroke-width="2" d="M811,-54C811,-54 890,-54 890,-54 896,-54 902,-60 902,-66 902,-66 902,-128 902,-128 902,-134 896,-140 890,-140 890,-140 811,-140 811,-140 805,-140 799,-134 799,-128 799,-128 799,-66 799,-66 799,-60 805,-54 811,-54"/>
<text text-anchor="middle" x="850.5" y="-128.8" font-family="Helvetica,sans-Serif" font-weight="bold" font-size="9.00">view&#45;parameters</text>
</g>
<g id="clust8" class="cluster">
<title>cluster_packages/UI/view&#45;parameters/dist</title>
<path fill="#ffffff" stroke="black" stroke-width="2" d="M827,-62C827,-62 873,-62 873,-62 879,-62 885,-68 885,-74 885,-74 885,-102 885,-102 885,-108 879,-114 873,-114 873,-114 827,-114 827,-114 821,-114 815,-108 815,-102 815,-102 815,-74 815,-74 815,-68 821,-62 827,-62"/>
<text text-anchor="middle" x="850" y="-102.8" font-family="Helvetica,sans-Serif" font-weight="bold" font-size="9.00">dist</text>
</g>
<g id="clust9" class="cluster">
<title>cluster_packages/UI/view</title>
<path fill="#ffffff" stroke="black" stroke-width="2" d="M819,-216C819,-216 881,-216 881,-216 887,-216 893,-222 893,-228 893,-228 893,-290 893,-290 893,-296 887,-302 881,-302 881,-302 819,-302 819,-302 813,-302 807,-296 807,-290 807,-290 807,-228 807,-228 807,-222 813,-216 819,-216"/>
<text text-anchor="middle" x="850" y="-290.8" font-family="Helvetica,sans-Serif" font-weight="bold" font-size="9.00">view</text>
</g>
<g id="clust10" class="cluster">
<title>cluster_packages/UI/view/dist</title>
<path fill="#ffffff" stroke="black" stroke-width="2" d="M827,-224C827,-224 873,-224 873,-224 879,-224 885,-230 885,-236 885,-236 885,-264 885,-264 885,-270 879,-276 873,-276 873,-276 827,-276 827,-276 821,-276 815,-270 815,-264 815,-264 815,-236 815,-236 815,-230 821,-224 827,-224"/>
<text text-anchor="middle" x="850" y="-264.8" font-family="Helvetica,sans-Serif" font-weight="bold" font-size="9.00">dist</text>
</g>
<g id="clust11" class="cluster">
<title>cluster_packages/util</title>
<path fill="#ffffff" stroke="black" stroke-width="2" d="M811,-360C811,-360 889,-360 889,-360 895,-360 901,-366 901,-372 901,-372 901,-468 901,-468 901,-474 895,-480 889,-480 889,-480 811,-480 811,-480 805,-480 799,-474 799,-468 799,-468 799,-372 799,-372 799,-366 805,-360 811,-360"/>
<text text-anchor="middle" x="850" y="-468.8" font-family="Helvetica,sans-Serif" font-weight="bold" font-size="9.00">util</text>
</g>
<g id="clust12" class="cluster">
<title>cluster_packages/util/math</title>
<path fill="#ffffff" stroke="black" stroke-width="2" d="M819,-368C819,-368 881,-368 881,-368 887,-368 893,-374 893,-380 893,-380 893,-442 893,-442 893,-448 887,-454 881,-454 881,-454 819,-454 819,-454 813,-454 807,-448 807,-442 807,-442 807,-380 807,-380 807,-374 813,-368 819,-368"/>
<text text-anchor="middle" x="850" y="-442.8" font-family="Helvetica,sans-Serif" font-weight="bold" font-size="9.00">math</text>
</g>
<g id="clust13" class="cluster">
<title>cluster_packages/util/math/dist</title>
<path fill="#ffffff" stroke="black" stroke-width="2" d="M827,-376C827,-376 873,-376 873,-376 879,-376 885,-382 885,-388 885,-388 885,-416 885,-416 885,-422 879,-428 873,-428 873,-428 827,-428 827,-428 821,-428 815,-422 815,-416 815,-416 815,-388 815,-388 815,-382 821,-376 827,-376"/>
<text text-anchor="middle" x="850" y="-416.8" font-family="Helvetica,sans-Serif" font-weight="bold" font-size="9.00">dist</text>
</g>
<!-- packages/UI/svg&#45;objects/index.test.ts -->
<g id="node1" class="node">
<title>packages/UI/svg&#45;objects/index.test.ts</title>
<g id="a_node1"><a xlink:href="packages/UI/svg-objects/index.test.ts" xlink:title="no&#45;orphans">
<path fill="#ccffcc" stroke="orange" d="M99,-215C99,-215 38,-215 38,-215 35,-215 32,-212 32,-209 32,-209 32,-203 32,-203 32,-200 35,-197 38,-197 38,-197 99,-197 99,-197 102,-197 105,-200 105,-203 105,-203 105,-209 105,-209 105,-212 102,-215 99,-215"/>
<text text-anchor="start" x="40" y="-203.8" font-family="Helvetica,sans-Serif" font-size="9.00" fill="orange">index.test.ts</text>
</a>
</g>
</g>
<!-- packages/UI/svg&#45;objects/index.ts -->
<g id="node2" class="node">
<title>packages/UI/svg&#45;objects/index.ts</title>
<g id="a_node2"><a xlink:href="packages/UI/svg-objects/index.ts" xlink:title="index.ts">
<path fill="#ddfeff" stroke="black" d="M89.5,-112C89.5,-112 47.5,-112 47.5,-112 44.5,-112 41.5,-109 41.5,-106 41.5,-106 41.5,-100 41.5,-100 41.5,-97 44.5,-94 47.5,-94 47.5,-94 89.5,-94 89.5,-94 92.5,-94 95.5,-97 95.5,-100 95.5,-100 95.5,-106 95.5,-106 95.5,-109 92.5,-112 89.5,-112"/>
<text text-anchor="start" x="50" y="-100.8" font-family="Helvetica,sans-Serif" font-size="9.00">index.ts</text>
</a>
</g>
</g>
<!-- packages/UI/svg&#45;objects/src/index.ts -->
<g id="node3" class="node">
<title>packages/UI/svg&#45;objects/src/index.ts</title>
<g id="a_node3"><a xlink:href="packages/UI/svg-objects/src/index.ts" xlink:title="index.ts">
<path fill="#ddfeff" stroke="black" d="M169,-112C169,-112 127,-112 127,-112 124,-112 121,-109 121,-106 121,-106 121,-100 121,-100 121,-97 124,-94 127,-94 127,-94 169,-94 169,-94 172,-94 175,-97 175,-100 175,-100 175,-106 175,-106 175,-109 172,-112 169,-112"/>
<text text-anchor="start" x="129.5" y="-100.8" font-family="Helvetica,sans-Serif" font-size="9.00">index.ts</text>
</a>
</g>
</g>
<!-- packages/UI/svg&#45;objects/index.ts&#45;&gt;packages/UI/svg&#45;objects/src/index.ts -->
<g id="edge1" class="edge">
<title>packages/UI/svg&#45;objects/index.ts&#45;&gt;packages/UI/svg&#45;objects/src/index.ts</title>
<path fill="none" stroke="#000000" stroke-width="2" stroke-opacity="0.200000" d="M95.74,-103C101.8,-103 108.32,-103 114.6,-103"/>
<polygon fill="#000000" fill-opacity="0.200000" stroke="#000000" stroke-width="2" stroke-opacity="0.200000" points="120.79,-105.1 114.79,-103 120.79,-100.9 120.79,-105.1"/>
</g>
<!-- packages/UI/svg&#45;objects/src/current&#45;time&#45;line.ts -->
<g id="node12" class="node">
<title>packages/UI/svg&#45;objects/src/current&#45;time&#45;line.ts</title>
<g id="a_node12"><a xlink:href="packages/UI/svg-objects/src/current-time-line.ts" xlink:title="current&#45;time&#45;line.ts">
<path fill="#ddfeff" stroke="black" d="M286,-80C286,-80 194,-80 194,-80 191,-80 188,-77 188,-74 188,-74 188,-68 188,-68 188,-65 191,-62 194,-62 194,-62 286,-62 286,-62 289,-62 292,-65 292,-68 292,-68 292,-74 292,-74 292,-77 289,-80 286,-80"/>
<text text-anchor="start" x="196" y="-68.8" font-family="Helvetica,sans-Serif" font-size="9.00">current&#45;time&#45;line.ts</text>
</a>
</g>
</g>
<!-- packages/UI/svg&#45;objects/src/index.ts&#45;&gt;packages/UI/svg&#45;objects/src/current&#45;time&#45;line.ts -->
<g id="edge17" class="edge">
<title>packages/UI/svg&#45;objects/src/index.ts&#45;&gt;packages/UI/svg&#45;objects/src/current&#45;time&#45;line.ts</title>
<path fill="none" stroke="#000000" stroke-width="2" stroke-opacity="0.200000" d="M166.99,-93.94C173.51,-90.86 181,-87.56 188,-85 191.02,-83.9 194.17,-82.83 197.35,-81.82"/>
<polygon fill="#000000" fill-opacity="0.200000" stroke="#000000" stroke-width="2" stroke-opacity="0.200000" points="203.71,-82.06 197.36,-81.82 202.48,-78.05 203.71,-82.06"/>
</g>
<!-- packages/UI/svg&#45;objects/src/octave/index.ts -->
<g id="node13" class="node">
<title>packages/UI/svg&#45;objects/src/octave/index.ts</title>
<g id="a_node13"><a xlink:href="packages/UI/svg-objects/src/octave/index.ts" xlink:title="index.ts">
<path fill="#ddfeff" stroke="black" d="M261,-144C261,-144 219,-144 219,-144 216,-144 213,-141 213,-138 213,-138 213,-132 213,-132 213,-129 216,-126 219,-126 219,-126 261,-126 261,-126 264,-126 267,-129 267,-132 267,-132 267,-138 267,-138 267,-141 264,-144 261,-144"/>
<text text-anchor="start" x="221.5" y="-132.8" font-family="Helvetica,sans-Serif" font-size="9.00">index.ts</text>
</a>
</g>
</g>
<!-- packages/UI/svg&#45;objects/src/index.ts&#45;&gt;packages/UI/svg&#45;objects/src/octave/index.ts -->
<g id="edge18" class="edge">
<title>packages/UI/svg&#45;objects/src/index.ts&#45;&gt;packages/UI/svg&#45;objects/src/octave/index.ts</title>
<path fill="none" stroke="#000000" stroke-width="2" stroke-opacity="0.200000" d="M165.76,-112.09C172.53,-115.52 180.5,-119.25 188,-122 193.92,-124.17 200.35,-126.12 206.59,-127.8"/>
<polygon fill="#000000" fill-opacity="0.200000" stroke="#000000" stroke-width="2" stroke-opacity="0.200000" points="212.22,-131.43 206.94,-127.89 213.27,-127.36 212.22,-131.43"/>
</g>
<!-- packages/UI/svg&#45;objects/src/components/black&#45;bg.ts -->
<g id="node4" class="node">
<title>packages/UI/svg&#45;objects/src/components/black&#45;bg.ts</title>
<g id="a_node4"><a xlink:href="packages/UI/svg-objects/src/components/black-bg.ts" xlink:title="black&#45;bg.ts">
<path fill="#ddfeff" stroke="black" d="M743.5,-118C743.5,-118 688.5,-118 688.5,-118 685.5,-118 682.5,-115 682.5,-112 682.5,-112 682.5,-106 682.5,-106 682.5,-103 685.5,-100 688.5,-100 688.5,-100 743.5,-100 743.5,-100 746.5,-100 749.5,-103 749.5,-106 749.5,-106 749.5,-112 749.5,-112 749.5,-115 746.5,-118 743.5,-118"/>
<text text-anchor="start" x="690.5" y="-106.8" font-family="Helvetica,sans-Serif" font-size="9.00">black&#45;bg.ts</text>
</a>
</g>
</g>
<!-- packages/UI/view/dist/index.js -->
<g id="node5" class="node">
<title>packages/UI/view/dist/index.js</title>
<g id="a_node5"><a xlink:href="packages/UI/view/dist/index.js" xlink:title="index.js">
<polygon fill="#ffffcc" stroke="black" points="877,-250 875.5,-252 865,-252 863.5,-250 823,-250 823,-232 877,-232 877,-250"/>
<text text-anchor="start" x="832.5" y="-238.8" font-family="Helvetica,sans-Serif" font-size="9.00">index.js</text>
</a>
</g>
</g>
<!-- packages/UI/svg&#45;objects/src/components/black&#45;bg.ts&#45;&gt;packages/UI/view/dist/index.js -->
<g id="edge2" class="edge">
<title>packages/UI/svg&#45;objects/src/components/black&#45;bg.ts&#45;&gt;packages/UI/view/dist/index.js</title>
<path fill="none" stroke="#000000" stroke-width="2" stroke-opacity="0.200000" d="M749.6,-112.93C758.44,-115.15 767.6,-118.61 775,-124 811.34,-150.5 834.1,-200.78 843.71,-225.91"/>
<polygon fill="#000000" fill-opacity="0.200000" stroke="#000000" stroke-width="2" stroke-opacity="0.200000" points="841.81,-226.83 845.87,-231.73 845.75,-225.37 841.81,-226.83"/>
</g>
<!-- packages/UI/view&#45;parameters/dist/index.js -->
<g id="node6" class="node">
<title>packages/UI/view&#45;parameters/dist/index.js</title>
<g id="a_node6"><a xlink:href="packages/UI/view-parameters/dist/index.js" xlink:title="index.js">
<polygon fill="#ffffcc" stroke="black" points="877,-88 875.5,-90 865,-90 863.5,-88 823,-88 823,-70 877,-70 877,-88"/>
<text text-anchor="start" x="832.5" y="-76.8" font-family="Helvetica,sans-Serif" font-size="9.00">index.js</text>
</a>
</g>
</g>
<!-- packages/UI/svg&#45;objects/src/components/black&#45;bg.ts&#45;&gt;packages/UI/view&#45;parameters/dist/index.js -->
<g id="edge3" class="edge">
<title>packages/UI/svg&#45;objects/src/components/black&#45;bg.ts&#45;&gt;packages/UI/view&#45;parameters/dist/index.js</title>
<path fill="none" stroke="#000000" stroke-width="2" stroke-opacity="0.200000" d="M749.63,-101.58C770.2,-96.91 796.63,-90.9 817.07,-86.26"/>
<polygon fill="#000000" fill-opacity="0.200000" stroke="#000000" stroke-width="2" stroke-opacity="0.200000" points="817.55,-88.3 822.93,-84.92 816.61,-84.21 817.55,-88.3"/>
</g>
<!-- packages/UI/svg&#45;objects/src/components/black&#45;key.ts -->
<g id="node7" class="node">
<title>packages/UI/svg&#45;objects/src/components/black&#45;key.ts</title>
<g id="a_node7"><a xlink:href="packages/UI/svg-objects/src/components/black-key.ts" xlink:title="black&#45;key.ts">
<path fill="#ddfeff" stroke="black" d="M744.5,-148C744.5,-148 687.5,-148 687.5,-148 684.5,-148 681.5,-145 681.5,-142 681.5,-142 681.5,-136 681.5,-136 681.5,-133 684.5,-130 687.5,-130 687.5,-130 744.5,-130 744.5,-130 747.5,-130 750.5,-133 750.5,-136 750.5,-136 750.5,-142 750.5,-142 750.5,-145 747.5,-148 744.5,-148"/>
<text text-anchor="start" x="689.5" y="-136.8" font-family="Helvetica,sans-Serif" font-size="9.00">black&#45;key.ts</text>
</a>
</g>
</g>
<!-- packages/UI/svg&#45;objects/src/components/black&#45;key.ts&#45;&gt;packages/UI/view/dist/index.js -->
<g id="edge4" class="edge">
<title>packages/UI/svg&#45;objects/src/components/black&#45;key.ts&#45;&gt;packages/UI/view/dist/index.js</title>
<path fill="none" stroke="#000000" stroke-width="2" stroke-opacity="0.200000" d="M750.64,-144.01C759.01,-146.23 767.68,-149.42 775,-154 804.55,-172.5 828.41,-206.63 840.46,-226.19"/>
<polygon fill="#000000" fill-opacity="0.200000" stroke="#000000" stroke-width="2" stroke-opacity="0.200000" points="838.92,-227.7 843.82,-231.76 842.52,-225.53 838.92,-227.7"/>
</g>
<!-- packages/UI/svg&#45;objects/src/components/black&#45;key.ts&#45;&gt;packages/UI/view&#45;parameters/dist/index.js -->
<g id="edge5" class="edge">
<title>packages/UI/svg&#45;objects/src/components/black&#45;key.ts&#45;&gt;packages/UI/view&#45;parameters/dist/index.js</title>
<path fill="none" stroke="#000000" stroke-width="2" stroke-opacity="0.200000" d="M750.68,-132.07C758.8,-129.92 767.34,-127.24 775,-124 795.48,-115.35 816.98,-101.68 831.5,-91.68"/>
<polygon fill="#000000" fill-opacity="0.200000" stroke="#000000" stroke-width="2" stroke-opacity="0.200000" points="832.8,-93.33 836.52,-88.17 830.4,-89.89 832.8,-93.33"/>
</g>
<!-- packages/UI/svg&#45;objects/src/components/index.ts -->
<g id="node8" class="node">
<title>packages/UI/svg&#45;objects/src/components/index.ts</title>
<g id="a_node8"><a xlink:href="packages/UI/svg-objects/src/components/index.ts" xlink:title="index.ts">
<path fill="#ddfeff" stroke="black" d="M662,-146C662,-146 620,-146 620,-146 617,-146 614,-143 614,-140 614,-140 614,-134 614,-134 614,-131 617,-128 620,-128 620,-128 662,-128 662,-128 665,-128 668,-131 668,-134 668,-134 668,-140 668,-140 668,-143 665,-146 662,-146"/>
<text text-anchor="start" x="622.5" y="-134.8" font-family="Helvetica,sans-Serif" font-size="9.00">index.ts</text>
</a>
</g>
</g>
<!-- packages/UI/svg&#45;objects/src/components/index.ts&#45;&gt;packages/UI/svg&#45;objects/src/components/black&#45;bg.ts -->
<g id="edge6" class="edge">
<title>packages/UI/svg&#45;objects/src/components/index.ts&#45;&gt;packages/UI/svg&#45;objects/src/components/black&#45;bg.ts</title>
<path fill="none" stroke="#000000" stroke-width="2" stroke-opacity="0.200000" d="M665.5,-127.99C671.82,-125.56 678.73,-122.91 685.34,-120.38"/>
<polygon fill="#000000" fill-opacity="0.200000" stroke="#000000" stroke-width="2" stroke-opacity="0.200000" points="692.05,-120.05 685.69,-120.24 690.54,-116.13 692.05,-120.05"/>
</g>
<!-- packages/UI/svg&#45;objects/src/components/index.ts&#45;&gt;packages/UI/svg&#45;objects/src/components/black&#45;key.ts -->
<g id="edge7" class="edge">
<title>packages/UI/svg&#45;objects/src/components/index.ts&#45;&gt;packages/UI/svg&#45;objects/src/components/black&#45;key.ts</title>
<path fill="none" stroke="#000000" stroke-width="2" stroke-opacity="0.200000" d="M668.35,-137.72C670.61,-137.78 672.92,-137.85 675.25,-137.91"/>
<polygon fill="#000000" fill-opacity="0.200000" stroke="#000000" stroke-width="2" stroke-opacity="0.200000" points="681.38,-140.18 675.44,-137.92 681.5,-135.98 681.38,-140.18"/>
</g>
<!-- packages/UI/svg&#45;objects/src/components/white&#45;bg.ts -->
<g id="node9" class="node">
<title>packages/UI/svg&#45;objects/src/components/white&#45;bg.ts</title>
<g id="a_node9"><a xlink:href="packages/UI/svg-objects/src/components/white-bg.ts" xlink:title="white&#45;bg.ts">
<path fill="#ddfeff" stroke="black" d="M744,-88C744,-88 688,-88 688,-88 685,-88 682,-85 682,-82 682,-82 682,-76 682,-76 682,-73 685,-70 688,-70 688,-70 744,-70 744,-70 747,-70 750,-73 750,-76 750,-76 750,-82 750,-82 750,-85 747,-88 744,-88"/>
<text text-anchor="start" x="690" y="-76.8" font-family="Helvetica,sans-Serif" font-size="9.00">white&#45;bg.ts</text>
</a>
</g>
</g>
<!-- packages/UI/svg&#45;objects/src/components/index.ts&#45;&gt;packages/UI/svg&#45;objects/src/components/white&#45;bg.ts -->
<g id="edge8" class="edge">
<title>packages/UI/svg&#45;objects/src/components/index.ts&#45;&gt;packages/UI/svg&#45;objects/src/components/white&#45;bg.ts</title>
<path fill="none" stroke="#000000" stroke-width="2" stroke-opacity="0.200000" d="M648.56,-127.73C655.66,-118.23 667.76,-103.55 681,-94 682.42,-92.97 683.93,-92 685.48,-91.07"/>
<polygon fill="#000000" fill-opacity="0.200000" stroke="#000000" stroke-width="2" stroke-opacity="0.200000" points="691.9,-89.95 685.63,-90.99 689.88,-86.27 691.9,-89.95"/>
</g>
<!-- packages/UI/svg&#45;objects/src/components/white&#45;key.ts -->
<g id="node10" class="node">
<title>packages/UI/svg&#45;objects/src/components/white&#45;key.ts</title>
<g id="a_node10"><a xlink:href="packages/UI/svg-objects/src/components/white-key.ts" xlink:title="white&#45;key.ts">
<path fill="#ddfeff" stroke="black" d="M745,-178C745,-178 687,-178 687,-178 684,-178 681,-175 681,-172 681,-172 681,-166 681,-166 681,-163 684,-160 687,-160 687,-160 745,-160 745,-160 748,-160 751,-163 751,-166 751,-166 751,-172 751,-172 751,-175 748,-178 745,-178"/>
<text text-anchor="start" x="689" y="-166.8" font-family="Helvetica,sans-Serif" font-size="9.00">white&#45;key.ts</text>
</a>
</g>
</g>
<!-- packages/UI/svg&#45;objects/src/components/index.ts&#45;&gt;packages/UI/svg&#45;objects/src/components/white&#45;key.ts -->
<g id="edge9" class="edge">
<title>packages/UI/svg&#45;objects/src/components/index.ts&#45;&gt;packages/UI/svg&#45;objects/src/components/white&#45;key.ts</title>
<path fill="none" stroke="#000000" stroke-width="2" stroke-opacity="0.200000" d="M662.72,-146.08C670.74,-149.6 680.01,-153.66 688.5,-157.38"/>
<polygon fill="#000000" fill-opacity="0.200000" stroke="#000000" stroke-width="2" stroke-opacity="0.200000" points="693.38,-161.82 688.73,-157.48 695.07,-157.97 693.38,-161.82"/>
</g>
<!-- packages/UI/svg&#45;objects/src/components/white&#45;bg.ts&#45;&gt;packages/UI/view/dist/index.js -->
<g id="edge10" class="edge">
<title>packages/UI/svg&#45;objects/src/components/white&#45;bg.ts&#45;&gt;packages/UI/view/dist/index.js</title>
<path fill="none" stroke="#000000" stroke-width="2" stroke-opacity="0.200000" d="M750.25,-82.55C759,-84.77 767.96,-88.32 775,-94 818.21,-128.85 838.46,-195.48 845.71,-225.58"/>
<polygon fill="#000000" fill-opacity="0.200000" stroke="#000000" stroke-width="2" stroke-opacity="0.200000" points="843.74,-226.37 847.13,-231.75 847.83,-225.43 843.74,-226.37"/>
</g>
<!-- packages/UI/svg&#45;objects/src/components/white&#45;bg.ts&#45;&gt;packages/UI/view&#45;parameters/dist/index.js -->
<g id="edge11" class="edge">
<title>packages/UI/svg&#45;objects/src/components/white&#45;bg.ts&#45;&gt;packages/UI/view&#45;parameters/dist/index.js</title>
<path fill="none" stroke="#000000" stroke-width="2" stroke-opacity="0.200000" d="M750.31,-79C770.66,-79 796.55,-79 816.71,-79"/>
<polygon fill="#000000" fill-opacity="0.200000" stroke="#000000" stroke-width="2" stroke-opacity="0.200000" points="816.77,-81.1 822.77,-79 816.77,-76.9 816.77,-81.1"/>
</g>
<!-- packages/UI/svg&#45;objects/src/components/white&#45;key.ts&#45;&gt;packages/UI/view/dist/index.js -->
<g id="edge13" class="edge">
<title>packages/UI/svg&#45;objects/src/components/white&#45;key.ts&#45;&gt;packages/UI/view/dist/index.js</title>
<path fill="none" stroke="#000000" stroke-width="2" stroke-opacity="0.200000" d="M733.72,-178.12C757.42,-191.05 800.83,-214.73 827.09,-229.05"/>
<polygon fill="#000000" fill-opacity="0.200000" stroke="#000000" stroke-width="2" stroke-opacity="0.200000" points="826.14,-230.93 832.42,-231.96 828.16,-227.24 826.14,-230.93"/>
</g>
<!-- packages/UI/svg&#45;objects/src/components/white&#45;key.ts&#45;&gt;packages/UI/view&#45;parameters/dist/index.js -->
<g id="edge14" class="edge">
<title>packages/UI/svg&#45;objects/src/components/white&#45;key.ts&#45;&gt;packages/UI/view&#45;parameters/dist/index.js</title>
<path fill="none" stroke="#000000" stroke-width="2" stroke-opacity="0.200000" d="M751.02,-163.45C759.21,-161.25 767.7,-158.2 775,-154 802.15,-138.36 826.1,-110.08 838.97,-93.07"/>
<polygon fill="#000000" fill-opacity="0.200000" stroke="#000000" stroke-width="2" stroke-opacity="0.200000" points="840.71,-94.25 842.6,-88.18 837.34,-91.74 840.71,-94.25"/>
</g>
<!-- packages/util/math/dist/index.js -->
<g id="node11" class="node">
<title>packages/util/math/dist/index.js</title>
<g id="a_node11"><a xlink:href="packages/util/math/dist/index.js" xlink:title="index.js">
<polygon fill="#ffffcc" stroke="black" points="877,-402 875.5,-404 865,-404 863.5,-402 823,-402 823,-384 877,-384 877,-402"/>
<text text-anchor="start" x="832.5" y="-390.8" font-family="Helvetica,sans-Serif" font-size="9.00">index.js</text>
</a>
</g>
</g>
<!-- packages/UI/svg&#45;objects/src/components/white&#45;key.ts&#45;&gt;packages/util/math/dist/index.js -->
<g id="edge12" class="edge">
<title>packages/UI/svg&#45;objects/src/components/white&#45;key.ts&#45;&gt;packages/util/math/dist/index.js</title>
<path fill="none" stroke="#000000" stroke-width="2" stroke-opacity="0.200000" d="M722.34,-178.06C742.65,-212.52 815.23,-335.69 840.36,-378.34"/>
<polygon fill="#000000" fill-opacity="0.200000" stroke="#000000" stroke-width="2" stroke-opacity="0.200000" points="838.59,-379.48 843.45,-383.58 842.21,-377.34 838.59,-379.48"/>
</g>
<!-- packages/UI/svg&#45;objects/src/current&#45;time&#45;line.ts&#45;&gt;packages/UI/view/dist/index.js -->
<g id="edge15" class="edge">
<title>packages/UI/svg&#45;objects/src/current&#45;time&#45;line.ts&#45;&gt;packages/UI/view/dist/index.js</title>
<path fill="none" stroke="#000000" stroke-width="2" stroke-opacity="0.200000" d="M286.83,-80.16C288.73,-81.56 290.47,-83.17 292,-85 313.15,-110.35 289.94,-203.62 305,-233 337.36,-296.15 364.54,-325 435.5,-325 435.5,-325 435.5,-325 642,-325 701.44,-325 721,-335.85 775,-311 802.14,-298.51 825.68,-272.03 838.56,-255.46"/>
<polygon fill="#000000" fill-opacity="0.200000" stroke="#000000" stroke-width="2" stroke-opacity="0.200000" points="840.55,-256.3 842.5,-250.25 837.2,-253.76 840.55,-256.3"/>
</g>
<!-- packages/UI/svg&#45;objects/src/current&#45;time&#45;line.ts&#45;&gt;packages/UI/view&#45;parameters/dist/index.js -->
<g id="edge16" class="edge">
<title>packages/UI/svg&#45;objects/src/current&#45;time&#45;line.ts&#45;&gt;packages/UI/view&#45;parameters/dist/index.js</title>
<path fill="none" stroke="#000000" stroke-width="2" stroke-opacity="0.200000" d="M263.94,-61.91C299.9,-48.51 372,-25 435.5,-25 435.5,-25 435.5,-25 642,-25 701.31,-25 718.41,-18.22 775,-36 796.21,-42.66 817.91,-56.23 832.27,-66.35"/>
<polygon fill="#000000" fill-opacity="0.200000" stroke="#000000" stroke-width="2" stroke-opacity="0.200000" points="831.12,-68.11 837.22,-69.9 833.57,-64.7 831.12,-68.11"/>
</g>
<!-- packages/UI/svg&#45;objects/src/octave/octave&#45;bgs.ts -->
<g id="node14" class="node">
<title>packages/UI/svg&#45;objects/src/octave/octave&#45;bgs.ts</title>
<g id="a_node14"><a xlink:href="packages/UI/svg-objects/src/octave/octave-bgs.ts" xlink:title="octave&#45;bgs.ts">
<path fill="#ddfeff" stroke="black" d="M378,-144C378,-144 313,-144 313,-144 310,-144 307,-141 307,-138 307,-138 307,-132 307,-132 307,-129 310,-126 313,-126 313,-126 378,-126 378,-126 381,-126 384,-129 384,-132 384,-132 384,-138 384,-138 384,-141 381,-144 378,-144"/>
<text text-anchor="start" x="315" y="-132.8" font-family="Helvetica,sans-Serif" font-size="9.00">octave&#45;bgs.ts</text>
</a>
</g>
</g>
<!-- packages/UI/svg&#45;objects/src/octave/index.ts&#45;&gt;packages/UI/svg&#45;objects/src/octave/octave&#45;bgs.ts -->
<g id="edge19" class="edge">
<title>packages/UI/svg&#45;objects/src/octave/index.ts&#45;&gt;packages/UI/svg&#45;objects/src/octave/octave&#45;bgs.ts</title>
<path fill="none" stroke="#000000" stroke-width="2" stroke-opacity="0.200000" d="M267.12,-135C277.22,-135 289.07,-135 300.42,-135"/>
<polygon fill="#000000" fill-opacity="0.200000" stroke="#000000" stroke-width="2" stroke-opacity="0.200000" points="306.66,-137.1 300.66,-135 306.66,-132.9 306.66,-137.1"/>
</g>
<!-- packages/UI/svg&#45;objects/src/octave/octave&#45;keys.ts -->
<g id="node15" class="node">
<title>packages/UI/svg&#45;objects/src/octave/octave&#45;keys.ts</title>
<g id="a_node15"><a xlink:href="packages/UI/svg-objects/src/octave/octave-keys.ts" xlink:title="octave&#45;keys.ts">
<path fill="#ddfeff" stroke="black" d="M380,-174C380,-174 311,-174 311,-174 308,-174 305,-171 305,-168 305,-168 305,-162 305,-162 305,-159 308,-156 311,-156 311,-156 380,-156 380,-156 383,-156 386,-159 386,-162 386,-162 386,-168 386,-168 386,-171 383,-174 380,-174"/>
<text text-anchor="start" x="313" y="-162.8" font-family="Helvetica,sans-Serif" font-size="9.00">octave&#45;keys.ts</text>
</a>
</g>
</g>
<!-- packages/UI/svg&#45;objects/src/octave/index.ts&#45;&gt;packages/UI/svg&#45;objects/src/octave/octave&#45;keys.ts -->
<g id="edge20" class="edge">
<title>packages/UI/svg&#45;objects/src/octave/index.ts&#45;&gt;packages/UI/svg&#45;objects/src/octave/octave&#45;keys.ts</title>
<path fill="none" stroke="#000000" stroke-width="2" stroke-opacity="0.200000" d="M267.12,-142.57C279.27,-146.09 293.94,-150.35 307.23,-154.2"/>
<polygon fill="#000000" fill-opacity="0.200000" stroke="#000000" stroke-width="2" stroke-opacity="0.200000" points="312.64,-157.95 307.46,-154.26 313.81,-153.92 312.64,-157.95"/>
</g>
<!-- packages/UI/svg&#45;objects/src/octave/octave&#45;bgs.ts&#45;&gt;packages/UI/view/dist/index.js -->
<g id="edge25" class="edge">
<title>packages/UI/svg&#45;objects/src/octave/octave&#45;bgs.ts&#45;&gt;packages/UI/view/dist/index.js</title>
<path fill="none" stroke="#000000" stroke-width="2" stroke-opacity="0.200000" d="M378.78,-144.17C381.45,-145.81 383.91,-147.73 386,-150 400.11,-165.31 388.52,-177.01 399,-195 437.49,-261.05 461.05,-297 537.5,-297 537.5,-297 537.5,-297 642,-297 701.44,-297 718.41,-301.16 775,-283 795.8,-276.33 817.25,-263.35 831.67,-253.58"/>
<polygon fill="#000000" fill-opacity="0.200000" stroke="#000000" stroke-width="2" stroke-opacity="0.200000" points="832.91,-255.28 836.65,-250.14 830.52,-251.82 832.91,-255.28"/>
</g>
<!-- packages/UI/svg&#45;objects/src/octave/octave&#45;bgs.ts&#45;&gt;packages/UI/view&#45;parameters/dist/index.js -->
<g id="edge26" class="edge">
<title>packages/UI/svg&#45;objects/src/octave/octave&#45;bgs.ts&#45;&gt;packages/UI/view&#45;parameters/dist/index.js</title>
<path fill="none" stroke="#000000" stroke-width="2" stroke-opacity="0.200000" d="M348.98,-125.98C354.5,-107.78 369.72,-66.84 399,-49 451.7,-16.88 475.78,-39 537.5,-39 537.5,-39 537.5,-39 642,-39 701.28,-39 717.28,-35.48 775,-49 792.64,-53.13 811.55,-60.86 825.83,-67.44"/>
<polygon fill="#000000" fill-opacity="0.200000" stroke="#000000" stroke-width="2" stroke-opacity="0.200000" points="824.94,-69.34 831.27,-69.99 826.73,-65.54 824.94,-69.34"/>
</g>
<!-- packages/UI/svg&#45;objects/src/octave/octave&#45;bg.ts -->
<g id="node16" class="node">
<title>packages/UI/svg&#45;objects/src/octave/octave&#45;bg.ts</title>
<g id="a_node16"><a xlink:href="packages/UI/svg-objects/src/octave/octave-bg.ts" xlink:title="octave&#45;bg.ts">
<path fill="#ddfeff" stroke="black" d="M467,-144C467,-144 406,-144 406,-144 403,-144 400,-141 400,-138 400,-138 400,-132 400,-132 400,-129 403,-126 406,-126 406,-126 467,-126 467,-126 470,-126 473,-129 473,-132 473,-132 473,-138 473,-138 473,-141 470,-144 467,-144"/>
<text text-anchor="start" x="408" y="-132.8" font-family="Helvetica,sans-Serif" font-size="9.00">octave&#45;bg.ts</text>
</a>
</g>
</g>
<!-- packages/UI/svg&#45;objects/src/octave/octave&#45;bgs.ts&#45;&gt;packages/UI/svg&#45;objects/src/octave/octave&#45;bg.ts -->
<g id="edge24" class="edge">
<title>packages/UI/svg&#45;objects/src/octave/octave&#45;bgs.ts&#45;&gt;packages/UI/svg&#45;objects/src/octave/octave&#45;bg.ts</title>
<path fill="none" stroke="#000000" stroke-width="2" stroke-opacity="0.200000" d="M384.24,-135C387.34,-135 390.48,-135 393.6,-135"/>
<polygon fill="#000000" fill-opacity="0.200000" stroke="#000000" stroke-width="2" stroke-opacity="0.200000" points="393.96,-137.1 399.96,-135 393.96,-132.9 393.96,-137.1"/>
</g>
<!-- packages/UI/svg&#45;objects/src/octave/octave&#45;keys.ts&#45;&gt;packages/UI/view/dist/index.js -->
<g id="edge35" class="edge">
<title>packages/UI/svg&#45;objects/src/octave/octave&#45;keys.ts&#45;&gt;packages/UI/view/dist/index.js</title>
<path fill="none" stroke="#000000" stroke-width="2" stroke-opacity="0.200000" d="M346.88,-174.25C348.47,-199.47 356.69,-269.68 399,-301 448.6,-337.72 475.78,-311 537.5,-311 537.5,-311 537.5,-311 642,-311 701.28,-311 719.91,-322.89 775,-301 800.13,-291.01 823.35,-269.31 836.85,-254.92"/>
<polygon fill="#000000" fill-opacity="0.200000" stroke="#000000" stroke-width="2" stroke-opacity="0.200000" points="838.53,-256.2 841.04,-250.36 835.43,-253.36 838.53,-256.2"/>
</g>
<!-- packages/UI/svg&#45;objects/src/octave/octave&#45;keys.ts&#45;&gt;packages/UI/view&#45;parameters/dist/index.js -->
<g id="edge36" class="edge">
<title>packages/UI/svg&#45;objects/src/octave/octave&#45;keys.ts&#45;&gt;packages/UI/view&#45;parameters/dist/index.js</title>
<path fill="none" stroke="#000000" stroke-width="2" stroke-opacity="0.200000" d="M377.71,-155.98C380.72,-154.31 383.56,-152.33 386,-150 396.51,-139.96 388.94,-130.49 399,-120 446.33,-70.65 469.12,-53 537.5,-53 537.5,-53 537.5,-53 642,-53 701.17,-53 716.53,-49.89 775,-59 789.03,-61.18 804.21,-65.02 817.15,-68.75"/>
<polygon fill="#000000" fill-opacity="0.200000" stroke="#000000" stroke-width="2" stroke-opacity="0.200000" points="816.58,-70.77 822.93,-70.45 817.77,-66.74 816.58,-70.77"/>
</g>
<!-- packages/UI/svg&#45;objects/src/octave/octave&#45;key.ts -->
<g id="node20" class="node">
<title>packages/UI/svg&#45;objects/src/octave/octave&#45;key.ts</title>
<g id="a_node20"><a xlink:href="packages/UI/svg-objects/src/octave/octave-key.ts" xlink:title="octave&#45;key.ts">
<path fill="#ddfeff" stroke="black" d="M468,-189C468,-189 405,-189 405,-189 402,-189 399,-186 399,-183 399,-183 399,-177 399,-177 399,-174 402,-171 405,-171 405,-171 468,-171 468,-171 471,-171 474,-174 474,-177 474,-177 474,-183 474,-183 474,-186 471,-189 468,-189"/>
<text text-anchor="start" x="407" y="-177.8" font-family="Helvetica,sans-Serif" font-size="9.00">octave&#45;key.ts</text>
</a>
</g>
</g>
<!-- packages/UI/svg&#45;objects/src/octave/octave&#45;keys.ts&#45;&gt;packages/UI/svg&#45;objects/src/octave/octave&#45;key.ts -->
<g id="edge34" class="edge">
<title>packages/UI/svg&#45;objects/src/octave/octave&#45;keys.ts&#45;&gt;packages/UI/svg&#45;objects/src/octave/octave&#45;key.ts</title>
<path fill="none" stroke="#000000" stroke-width="2" stroke-opacity="0.200000" d="M386.05,-171.67C388.32,-172.05 390.61,-172.43 392.89,-172.82"/>
<polygon fill="#000000" fill-opacity="0.200000" stroke="#000000" stroke-width="2" stroke-opacity="0.200000" points="392.63,-174.9 398.89,-173.83 393.33,-170.76 392.63,-174.9"/>
</g>
<!-- packages/UI/svg&#45;objects/src/octave/octave&#45;bg.ts&#45;&gt;packages/UI/view/dist/index.js -->
<g id="edge23" class="edge">
<title>packages/UI/svg&#45;objects/src/octave/octave&#45;bg.ts&#45;&gt;packages/UI/view/dist/index.js</title>
<path fill="none" stroke="#000000" stroke-width="2" stroke-opacity="0.200000" d="M452.51,-144.18C459.95,-149.44 468.5,-156.64 474,-165 485.44,-182.39 472.88,-194.7 487,-210 525.35,-251.56 550.83,-242.62 606,-255 679.34,-271.45 700.5,-270.89 775,-261 789.07,-259.13 804.26,-255.35 817.2,-251.57"/>
<polygon fill="#000000" fill-opacity="0.200000" stroke="#000000" stroke-width="2" stroke-opacity="0.200000" points="817.83,-253.57 822.97,-249.84 816.62,-249.55 817.83,-253.57"/>
</g>
<!-- packages/UI/svg&#45;objects/src/octave/octave&#45;black&#45;bg.ts -->
<g id="node17" class="node">
<title>packages/UI/svg&#45;objects/src/octave/octave&#45;black&#45;bg.ts</title>
<g id="a_node17"><a xlink:href="packages/UI/svg-objects/src/octave/octave-black-bg.ts" xlink:title="octave&#45;black&#45;bg.ts">
<path fill="#ddfeff" stroke="black" d="M582.5,-114C582.5,-114 494.5,-114 494.5,-114 491.5,-114 488.5,-111 488.5,-108 488.5,-108 488.5,-102 488.5,-102 488.5,-99 491.5,-96 494.5,-96 494.5,-96 582.5,-96 582.5,-96 585.5,-96 588.5,-99 588.5,-102 588.5,-102 588.5,-108 588.5,-108 588.5,-111 585.5,-114 582.5,-114"/>
<text text-anchor="start" x="496.5" y="-102.8" font-family="Helvetica,sans-Serif" font-size="9.00">octave&#45;black&#45;bg.ts</text>
</a>
</g>
</g>
<!-- packages/UI/svg&#45;objects/src/octave/octave&#45;bg.ts&#45;&gt;packages/UI/svg&#45;objects/src/octave/octave&#45;black&#45;bg.ts -->
<g id="edge21" class="edge">
<title>packages/UI/svg&#45;objects/src/octave/octave&#45;bg.ts&#45;&gt;packages/UI/svg&#45;objects/src/octave/octave&#45;black&#45;bg.ts</title>
<path fill="none" stroke="#000000" stroke-width="2" stroke-opacity="0.200000" d="M467.33,-125.93C473.81,-123.97 480.64,-121.91 487,-120 491.56,-118.63 496.35,-117.2 501.09,-115.79"/>
<polygon fill="#000000" fill-opacity="0.200000" stroke="#000000" stroke-width="2" stroke-opacity="0.200000" points="501.9,-117.74 507.05,-114.02 500.7,-113.71 501.9,-117.74"/>
</g>
<!-- packages/UI/svg&#45;objects/src/octave/octave&#45;white&#45;bg.ts -->
<g id="node18" class="node">
<title>packages/UI/svg&#45;objects/src/octave/octave&#45;white&#45;bg.ts</title>
<g id="a_node18"><a xlink:href="packages/UI/svg-objects/src/octave/octave-white-bg.ts" xlink:title="octave&#45;white&#45;bg.ts">
<path fill="#ddfeff" stroke="black" d="M583,-144C583,-144 494,-144 494,-144 491,-144 488,-141 488,-138 488,-138 488,-132 488,-132 488,-129 491,-126 494,-126 494,-126 583,-126 583,-126 586,-126 589,-129 589,-132 589,-132 589,-138 589,-138 589,-141 586,-144 583,-144"/>
<text text-anchor="start" x="496" y="-132.8" font-family="Helvetica,sans-Serif" font-size="9.00">octave&#45;white&#45;bg.ts</text>
</a>
</g>
</g>
<!-- packages/UI/svg&#45;objects/src/octave/octave&#45;bg.ts&#45;&gt;packages/UI/svg&#45;objects/src/octave/octave&#45;white&#45;bg.ts -->
<g id="edge22" class="edge">
<title>packages/UI/svg&#45;objects/src/octave/octave&#45;bg.ts&#45;&gt;packages/UI/svg&#45;objects/src/octave/octave&#45;white&#45;bg.ts</title>
<path fill="none" stroke="#000000" stroke-width="2" stroke-opacity="0.200000" d="M473.04,-135C475.9,-135 478.84,-135 481.8,-135"/>
<polygon fill="#000000" fill-opacity="0.200000" stroke="#000000" stroke-width="2" stroke-opacity="0.200000" points="481.91,-137.1 487.91,-135 481.91,-132.9 481.91,-137.1"/>
</g>
<!-- packages/UI/svg&#45;objects/src/octave/octave&#45;black&#45;bg.ts&#45;&gt;packages/UI/view/dist/index.js -->
<g id="edge28" class="edge">
<title>packages/UI/svg&#45;objects/src/octave/octave&#45;black&#45;bg.ts&#45;&gt;packages/UI/view/dist/index.js</title>
<path fill="none" stroke="#000000" stroke-width="2" stroke-opacity="0.200000" d="M588.62,-112.35C592.15,-114.38 595.35,-116.89 598,-120 610.59,-134.78 592.37,-193.17 606,-207 612.63,-213.72 765.68,-223.5 775,-225 788.72,-227.21 803.72,-230.32 816.61,-233.21"/>
<polygon fill="#000000" fill-opacity="0.200000" stroke="#000000" stroke-width="2" stroke-opacity="0.200000" points="816.44,-235.33 822.76,-234.61 817.37,-231.23 816.44,-235.33"/>
</g>
<!-- packages/UI/svg&#45;objects/src/octave/octave&#45;black&#45;bg.ts&#45;&gt;packages/UI/svg&#45;objects/src/components/index.ts -->
<g id="edge27" class="edge">
<title>packages/UI/svg&#45;objects/src/octave/octave&#45;black&#45;bg.ts&#45;&gt;packages/UI/svg&#45;objects/src/components/index.ts</title>
<path fill="none" stroke="#000000" stroke-width="2" stroke-opacity="0.200000" d="M577.79,-114.03C584.57,-115.86 591.53,-117.87 598,-120 603.05,-121.66 608.36,-123.63 613.44,-125.63"/>
<polygon fill="#000000" fill-opacity="0.200000" stroke="#000000" stroke-width="2" stroke-opacity="0.200000" points="612.92,-127.68 619.27,-127.97 614.48,-123.78 612.92,-127.68"/>
</g>
<!-- packages/UI/svg&#45;objects/src/octave/octave&#45;white&#45;bg.ts&#45;&gt;packages/UI/view/dist/index.js -->
<g id="edge38" class="edge">
<title>packages/UI/svg&#45;objects/src/octave/octave&#45;white&#45;bg.ts&#45;&gt;packages/UI/view/dist/index.js</title>
<path fill="none" stroke="#000000" stroke-width="2" stroke-opacity="0.200000" d="M589.08,-142.74C592.4,-144.69 595.44,-147.08 598,-150 617.76,-172.56 584.58,-196.01 606,-217 613.43,-224.28 752.16,-234.49 816.6,-238.87"/>
<polygon fill="#000000" fill-opacity="0.200000" stroke="#000000" stroke-width="2" stroke-opacity="0.200000" points="816.47,-240.97 822.6,-239.28 816.76,-236.78 816.47,-240.97"/>
</g>
<!-- packages/UI/svg&#45;objects/src/octave/octave&#45;white&#45;bg.ts&#45;&gt;packages/UI/svg&#45;objects/src/components/index.ts -->
<g id="edge37" class="edge">
<title>packages/UI/svg&#45;objects/src/octave/octave&#45;white&#45;bg.ts&#45;&gt;packages/UI/svg&#45;objects/src/components/index.ts</title>
<path fill="none" stroke="#000000" stroke-width="2" stroke-opacity="0.200000" d="M589.16,-135.99C595.41,-136.11 601.67,-136.24 607.55,-136.35"/>
<polygon fill="#000000" fill-opacity="0.200000" stroke="#000000" stroke-width="2" stroke-opacity="0.200000" points="607.73,-138.46 613.77,-136.48 607.81,-134.26 607.73,-138.46"/>
</g>
<!-- packages/UI/svg&#45;objects/src/octave/octave&#45;black&#45;key.ts -->
<g id="node19" class="node">
<title>packages/UI/svg&#45;objects/src/octave/octave&#45;black&#45;key.ts</title>
<g id="a_node19"><a xlink:href="packages/UI/svg-objects/src/octave/octave-black-key.ts" xlink:title="octave&#45;black&#45;key.ts">
<path fill="#ddfeff" stroke="black" d="M583.5,-174C583.5,-174 493.5,-174 493.5,-174 490.5,-174 487.5,-171 487.5,-168 487.5,-168 487.5,-162 487.5,-162 487.5,-159 490.5,-156 493.5,-156 493.5,-156 583.5,-156 583.5,-156 586.5,-156 589.5,-159 589.5,-162 589.5,-162 589.5,-168 589.5,-168 589.5,-171 586.5,-174 583.5,-174"/>
<text text-anchor="start" x="495.5" y="-162.8" font-family="Helvetica,sans-Serif" font-size="9.00">octave&#45;black&#45;key.ts</text>
</a>
</g>
</g>
<!-- packages/UI/svg&#45;objects/src/octave/octave&#45;black&#45;key.ts&#45;&gt;packages/UI/view/dist/index.js -->
<g id="edge30" class="edge">
<title>packages/UI/svg&#45;objects/src/octave/octave&#45;black&#45;key.ts&#45;&gt;packages/UI/view/dist/index.js</title>
<path fill="none" stroke="#000000" stroke-width="2" stroke-opacity="0.200000" d="M589.5,-173.16C592.65,-175.03 595.53,-177.28 598,-180 613.43,-196.98 588.87,-215.73 606,-231 621.35,-244.69 754.05,-243.33 816.62,-241.9"/>
<polygon fill="#000000" fill-opacity="0.200000" stroke="#000000" stroke-width="2" stroke-opacity="0.200000" points="816.86,-244 822.81,-241.76 816.76,-239.8 816.86,-244"/>
</g>
<!-- packages/UI/svg&#45;objects/src/octave/octave&#45;black&#45;key.ts&#45;&gt;packages/UI/svg&#45;objects/src/components/index.ts -->
<g id="edge29" class="edge">
<title>packages/UI/svg&#45;objects/src/octave/octave&#45;black&#45;key.ts&#45;&gt;packages/UI/svg&#45;objects/src/components/index.ts</title>
<path fill="none" stroke="#000000" stroke-width="2" stroke-opacity="0.200000" d="M575.77,-155.99C583.15,-154.08 590.84,-152.03 598,-150 601.21,-149.09 604.56,-148.11 607.89,-147.12"/>
<polygon fill="#000000" fill-opacity="0.200000" stroke="#000000" stroke-width="2" stroke-opacity="0.200000" points="608.71,-149.06 613.85,-145.31 607.49,-145.04 608.71,-149.06"/>
</g>
<!-- packages/UI/svg&#45;objects/src/octave/octave&#45;key.ts&#45;&gt;packages/UI/view/dist/index.js -->
<g id="edge33" class="edge">
<title>packages/UI/svg&#45;objects/src/octave/octave&#45;key.ts&#45;&gt;packages/UI/view/dist/index.js</title>
<path fill="none" stroke="#000000" stroke-width="2" stroke-opacity="0.200000" d="M439.19,-189.29C443.32,-208.92 455.95,-254.35 487,-273 541.87,-305.95 712.33,-285.97 775,-273 793.63,-269.14 813.35,-260.36 827.74,-252.97"/>
<polygon fill="#000000" fill-opacity="0.200000" stroke="#000000" stroke-width="2" stroke-opacity="0.200000" points="828.84,-254.76 833.17,-250.11 826.88,-251.04 828.84,-254.76"/>
</g>
<!-- packages/UI/svg&#45;objects/src/octave/octave&#45;key.ts&#45;&gt;packages/UI/svg&#45;objects/src/octave/octave&#45;black&#45;key.ts -->
<g id="edge31" class="edge">
<title>packages/UI/svg&#45;objects/src/octave/octave&#45;key.ts&#45;&gt;packages/UI/svg&#45;objects/src/octave/octave&#45;black&#45;key.ts</title>
<path fill="none" stroke="#000000" stroke-width="2" stroke-opacity="0.200000" d="M474.17,-174.5C476.42,-174.16 478.71,-173.82 481.02,-173.47"/>
<polygon fill="#000000" fill-opacity="0.200000" stroke="#000000" stroke-width="2" stroke-opacity="0.200000" points="481.53,-175.52 487.16,-172.55 480.91,-171.36 481.53,-175.52"/>
</g>
<!-- packages/UI/svg&#45;objects/src/octave/octave&#45;white&#45;key.ts -->
<g id="node21" class="node">
<title>packages/UI/svg&#45;objects/src/octave/octave&#45;white&#45;key.ts</title>
<g id="a_node21"><a xlink:href="packages/UI/svg-objects/src/octave/octave-white-key.ts" xlink:title="octave&#45;white&#45;key.ts">
<path fill="#ddfeff" stroke="black" d="M584,-204C584,-204 493,-204 493,-204 490,-204 487,-201 487,-198 487,-198 487,-192 487,-192 487,-189 490,-186 493,-186 493,-186 584,-186 584,-186 587,-186 590,-189 590,-192 590,-192 590,-198 590,-198 590,-201 587,-204 584,-204"/>
<text text-anchor="start" x="495" y="-192.8" font-family="Helvetica,sans-Serif" font-size="9.00">octave&#45;white&#45;key.ts</text>
</a>
</g>
</g>
<!-- packages/UI/svg&#45;objects/src/octave/octave&#45;key.ts&#45;&gt;packages/UI/svg&#45;objects/src/octave/octave&#45;white&#45;key.ts -->
<g id="edge32" class="edge">
<title>packages/UI/svg&#45;objects/src/octave/octave&#45;key.ts&#45;&gt;packages/UI/svg&#45;objects/src/octave/octave&#45;white&#45;key.ts</title>
<path fill="none" stroke="#000000" stroke-width="2" stroke-opacity="0.200000" d="M474.17,-185.5C476.36,-185.83 478.59,-186.16 480.83,-186.5"/>
<polygon fill="#000000" fill-opacity="0.200000" stroke="#000000" stroke-width="2" stroke-opacity="0.200000" points="480.57,-188.58 486.81,-187.4 481.19,-184.43 480.57,-188.58"/>
</g>
<!-- packages/UI/svg&#45;objects/src/octave/octave&#45;white&#45;key.ts&#45;&gt;packages/UI/view/dist/index.js -->
<g id="edge40" class="edge">
<title>packages/UI/svg&#45;objects/src/octave/octave&#45;white&#45;key.ts&#45;&gt;packages/UI/view/dist/index.js</title>
<path fill="none" stroke="#000000" stroke-width="2" stroke-opacity="0.200000" d="M547.86,-204.24C559.5,-216.33 581.89,-236.95 606,-245 678.2,-269.11 769.31,-257.26 816.83,-248.15"/>
<polygon fill="#000000" fill-opacity="0.200000" stroke="#000000" stroke-width="2" stroke-opacity="0.200000" points="817.48,-250.16 822.96,-246.94 816.67,-246.04 817.48,-250.16"/>
</g>
<!-- packages/UI/svg&#45;objects/src/octave/octave&#45;white&#45;key.ts&#45;&gt;packages/UI/svg&#45;objects/src/components/index.ts -->
<g id="edge39" class="edge">
<title>packages/UI/svg&#45;objects/src/octave/octave&#45;white&#45;key.ts&#45;&gt;packages/UI/svg&#45;objects/src/components/index.ts</title>
<path fill="none" stroke="#000000" stroke-width="2" stroke-opacity="0.200000" d="M585.19,-185.93C589.66,-184.27 594.01,-182.31 598,-180 610.5,-172.77 621.76,-160.8 629.47,-151.32"/>
<polygon fill="#000000" fill-opacity="0.200000" stroke="#000000" stroke-width="2" stroke-opacity="0.200000" points="631.31,-152.37 633.37,-146.35 628.01,-149.77 631.31,-152.37"/>
</g>
</g>
</svg>
