<?xml version="1.0" encoding="UTF-8" standalone="no"?>
<!DOCTYPE svg PUBLIC "-//W3C//DTD SVG 1.1//EN"
 "http://www.w3.org/Graphics/SVG/1.1/DTD/svg11.dtd">
<!-- Generated by graphviz version 2.43.0 (0)
 -->
<!-- Title: dependency&#45;cruiser output Pages: 1 -->
<svg width="926pt" height="522pt"
 viewBox="0.00 0.00 926.00 522.00" xmlns="http://www.w3.org/2000/svg" xmlns:xlink="http://www.w3.org/1999/xlink">
<g id="graph0" class="graph" transform="scale(1 1) rotate(0) translate(4 518)">
<title>dependency&#45;cruiser output</title>
<polygon fill="white" stroke="transparent" points="-4,4 -4,-518 922,-518 922,4 -4,4"/>
<g id="clust1" class="cluster">
<title>cluster_packages</title>
<path fill="#ffffff" stroke="black" stroke-width="2" d="M20,-8C20,-8 906,-8 906,-8 912,-8 918,-14 918,-20 918,-20 918,-494 918,-494 918,-500 912,-506 906,-506 906,-506 20,-506 20,-506 14,-506 8,-500 8,-494 8,-494 8,-20 8,-20 8,-14 14,-8 20,-8"/>
<text text-anchor="middle" x="463" y="-494.8" font-family="Helvetica,sans-Serif" font-weight="bold" font-size="9.00">packages</text>
</g>
<g id="clust2" class="cluster">
<title>cluster_packages/UI</title>
<path fill="#ffffff" stroke="black" stroke-width="2" d="M28,-16C28,-16 898,-16 898,-16 904,-16 910,-22 910,-28 910,-28 910,-340 910,-340 910,-346 904,-352 898,-352 898,-352 28,-352 28,-352 22,-352 16,-346 16,-340 16,-340 16,-28 16,-28 16,-22 22,-16 28,-16"/>
<text text-anchor="middle" x="463" y="-340.8" font-family="Helvetica,sans-Serif" font-weight="bold" font-size="9.00">UI</text>
</g>
<g id="clust3" class="cluster">
<title>cluster_packages/UI/svg&#45;objects</title>
<path fill="#ffffff" stroke="black" stroke-width="2" d="M36,-46C36,-46 763,-46 763,-46 769,-46 775,-52 775,-58 775,-58 775,-270 775,-270 775,-276 769,-282 763,-282 763,-282 36,-282 36,-282 30,-282 24,-276 24,-270 24,-270 24,-58 24,-58 24,-52 30,-46 36,-46"/>
<text text-anchor="middle" x="399.5" y="-270.8" font-family="Helvetica,sans-Serif" font-weight="bold" font-size="9.00">svg&#45;objects</text>
</g>
<g id="clust4" class="cluster">
<title>cluster_packages/UI/svg&#45;objects/src</title>
<path fill="#ffffff" stroke="black" stroke-width="2" d="M125,-54C125,-54 755,-54 755,-54 761,-54 767,-60 767,-66 767,-66 767,-244 767,-244 767,-250 761,-256 755,-256 755,-256 125,-256 125,-256 119,-256 113,-250 113,-244 113,-244 113,-66 113,-66 113,-60 119,-54 125,-54"/>
<text text-anchor="middle" x="440" y="-244.8" font-family="Helvetica,sans-Serif" font-weight="bold" font-size="9.00">src</text>
</g>
<g id="clust5" class="cluster">
<title>cluster_packages/UI/svg&#45;objects/src/components</title>
<path fill="#ffffff" stroke="black" stroke-width="2" d="M618,-62C618,-62 747,-62 747,-62 753,-62 759,-68 759,-74 759,-74 759,-192 759,-192 759,-198 753,-204 747,-204 747,-204 618,-204 618,-204 612,-204 606,-198 606,-192 606,-192 606,-74 606,-74 606,-68 612,-62 618,-62"/>
<text text-anchor="middle" x="682.5" y="-192.8" font-family="Helvetica,sans-Serif" font-weight="bold" font-size="9.00">components</text>
</g>
<g id="clust6" class="cluster">
<title>cluster_packages/UI/svg&#45;objects/src/octave</title>
<path fill="#ffffff" stroke="black" stroke-width="2" d="M217,-88C217,-88 586,-88 586,-88 592,-88 598,-94 598,-100 598,-100 598,-218 598,-218 598,-224 592,-230 586,-230 586,-230 217,-230 217,-230 211,-230 205,-224 205,-218 205,-218 205,-100 205,-100 205,-94 211,-88 217,-88"/>
<text text-anchor="middle" x="401.5" y="-218.8" font-family="Helvetica,sans-Serif" font-weight="bold" font-size="9.00">octave</text>
</g>
<g id="clust7" class="cluster">
<title>cluster_packages/UI/view&#45;parameters</title>
<path fill="#ffffff" stroke="black" stroke-width="2" d="M811,-54C811,-54 890,-54 890,-54 896,-54 902,-60 902,-66 902,-66 902,-128 902,-128 902,-134 896,-140 890,-140 890,-140 811,-140 811,-140 805,-140 799,-134 799,-128 799,-128 799,-66 799,-66 799,-60 805,-54 811,-54"/>
<text text-anchor="middle" x="850.5" y="-128.8" font-family="Helvetica,sans-Serif" font-weight="bold" font-size="9.00">view&#45;parameters</text>
</g>
<g id="clust8" class="cluster">
<title>cluster_packages/UI/view&#45;parameters/dist</title>
<path fill="#ffffff" stroke="black" stroke-width="2" d="M827,-62C827,-62 873,-62 873,-62 879,-62 885,-68 885,-74 885,-74 885,-102 885,-102 885,-108 879,-114 873,-114 873,-114 827,-114 827,-114 821,-114 815,-108 815,-102 815,-102 815,-74 815,-74 815,-68 821,-62 827,-62"/>
<text text-anchor="middle" x="850" y="-102.8" font-family="Helvetica,sans-Serif" font-weight="bold" font-size="9.00">dist</text>
</g>
<g id="clust9" class="cluster">
<title>cluster_packages/UI/view</title>
<path fill="#ffffff" stroke="black" stroke-width="2" d="M819,-216C819,-216 881,-216 881,-216 887,-216 893,-222 893,-228 893,-228 893,-290 893,-290 893,-296 887,-302 881,-302 881,-302 819,-302 819,-302 813,-302 807,-296 807,-290 807,-290 807,-228 807,-228 807,-222 813,-216 819,-216"/>
<text text-anchor="middle" x="850" y="-290.8" font-family="Helvetica,sans-Serif" font-weight="bold" font-size="9.00">view</text>
</g>
<g id="clust10" class="cluster">
<title>cluster_packages/UI/view/dist</title>
<path fill="#ffffff" stroke="black" stroke-width="2" d="M827,-224C827,-224 873,-224 873,-224 879,-224 885,-230 885,-236 885,-236 885,-264 885,-264 885,-270 879,-276 873,-276 873,-276 827,-276 827,-276 821,-276 815,-270 815,-264 815,-264 815,-236 815,-236 815,-230 821,-224 827,-224"/>
<text text-anchor="middle" x="850" y="-264.8" font-family="Helvetica,sans-Serif" font-weight="bold" font-size="9.00">dist</text>
</g>
<g id="clust11" class="cluster">
<title>cluster_packages/util</title>
<path fill="#ffffff" stroke="black" stroke-width="2" d="M811,-360C811,-360 889,-360 889,-360 895,-360 901,-366 901,-372 901,-372 901,-468 901,-468 901,-474 895,-480 889,-480 889,-480 811,-480 811,-480 805,-480 799,-474 799,-468 799,-468 799,-372 799,-372 799,-366 805,-360 811,-360"/>
<text text-anchor="middle" x="850" y="-468.8" font-family="Helvetica,sans-Serif" font-weight="bold" font-size="9.00">util</text>
</g>
<g id="clust12" class="cluster">
<title>cluster_packages/util/math</title>
<path fill="#ffffff" stroke="black" stroke-width="2" d="M819,-368C819,-368 881,-368 881,-368 887,-368 893,-374 893,-380 893,-380 893,-442 893,-442 893,-448 887,-454 881,-454 881,-454 819,-454 819,-454 813,-454 807,-448 807,-442 807,-442 807,-380 807,-380 807,-374 813,-368 819,-368"/>
<text text-anchor="middle" x="850" y="-442.8" font-family="Helvetica,sans-Serif" font-weight="bold" font-size="9.00">math</text>
</g>
<g id="clust13" class="cluster">
<title>cluster_packages/util/math/dist</title>
<path fill="#ffffff" stroke="black" stroke-width="2" d="M827,-376C827,-376 873,-376 873,-376 879,-376 885,-382 885,-388 885,-388 885,-416 885,-416 885,-422 879,-428 873,-428 873,-428 827,-428 827,-428 821,-428 815,-422 815,-416 815,-416 815,-388 815,-388 815,-382 821,-376 827,-376"/>
<text text-anchor="middle" x="850" y="-416.8" font-family="Helvetica,sans-Serif" font-weight="bold" font-size="9.00">dist</text>
</g>
<!-- packages/UI/svg&#45;objects/index.test.ts -->
<g id="node1" class="node">
<title>packages/UI/svg&#45;objects/index.test.ts</title>
<g id="a_node1"><a xlink:href="packages/UI/svg-objects/index.test.ts" xlink:title="no&#45;orphans">
<path fill="#ccffcc" stroke="orange" d="M99,-215C99,-215 38,-215 38,-215 35,-215 32,-212 32,-209 32,-209 32,-203 32,-203 32,-200 35,-197 38,-197 38,-197 99,-197 99,-197 102,-197 105,-200 105,-203 105,-203 105,-209 105,-209 105,-212 102,-215 99,-215"/>
<text text-anchor="start" x="40" y="-203.8" font-family="Helvetica,sans-Serif" font-size="9.00" fill="orange">index.test.ts</text>
</a>
</g>
</g>
<!-- packages/UI/svg&#45;objects/index.ts -->
<g id="node2" class="node">
<title>packages/UI/svg&#45;objects/index.ts</title>
<g id="a_node2"><a xlink:href="packages/UI/svg-objects/index.ts" xlink:title="index.ts">
<path fill="#ddfeff" stroke="black" d="M89.5,-112C89.5,-112 47.5,-112 47.5,-112 44.5,-112 41.5,-109 41.5,-106 41.5,-106 41.5,-100 41.5,-100 41.5,-97 44.5,-94 47.5,-94 47.5,-94 89.5,-94 89.5,-94 92.5,-94 95.5,-97 95.5,-100 95.5,-100 95.5,-106 95.5,-106 95.5,-109 92.5,-112 89.5,-112"/>
<text text-anchor="start" x="50" y="-100.8" font-family="Helvetica,sans-Serif" font-size="9.00">index.ts</text>
</a>
</g>
</g>
<!-- packages/UI/svg&#45;objects/src/index.ts -->
<g id="node3" class="node">
<title>packages/UI/svg&#45;objects/src/index.ts</title>
<g id="a_node3"><a xlink:href="packages/UI/svg-objects/src/index.ts" xlink:title="index.ts">
<path fill="#ddfeff" stroke="black" d="M169,-112C169,-112 127,-112 127,-112 124,-112 121,-109 121,-106 121,-106 121,-100 121,-100 121,-97 124,-94 127,-94 127,-94 169,-94 169,-94 172,-94 175,-97 175,-100 175,-100 175,-106 175,-106 175,-109 172,-112 169,-112"/>
<text text-anchor="start" x="129.5" y="-100.8" font-family="Helvetica,sans-Serif" font-size="9.00">index.ts</text>
</a>
</g>
</g>
<!-- packages/UI/svg&#45;objects/index.ts&#45;&gt;packages/UI/svg&#45;objects/src/index.ts -->
<g id="edge1" class="edge">
<title>packages/UI/svg&#45;objects/index.ts&#45;&gt;packages/UI/svg&#45;objects/src/index.ts</title>
<path fill="none" stroke="#000000" stroke-opacity="0.200000" d="M95.74,-103C102.18,-103 109.13,-103 115.78,-103"/>
<polygon fill="#000000" fill-opacity="0.200000" stroke="#000000" stroke-opacity="0.200000" points="120.79,-104.75 115.79,-103 120.79,-101.25 120.79,-104.75"/>
</g>
<!-- packages/UI/svg&#45;objects/src/current&#45;time&#45;line.ts -->
<g id="node12" class="node">
<title>packages/UI/svg&#45;objects/src/current&#45;time&#45;line.ts</title>
<g id="a_node12"><a xlink:href="packages/UI/svg-objects/src/current-time-line.ts" xlink:title="current&#45;time&#45;line.ts">
<path fill="#ddfeff" stroke="black" d="M286,-80C286,-80 194,-80 194,-80 191,-80 188,-77 188,-74 188,-74 188,-68 188,-68 188,-65 191,-62 194,-62 194,-62 286,-62 286,-62 289,-62 292,-65 292,-68 292,-68 292,-74 292,-74 292,-77 289,-80 286,-80"/>
<text text-anchor="start" x="196" y="-68.8" font-family="Helvetica,sans-Serif" font-size="9.00">current&#45;time&#45;line.ts</text>
</a>
</g>
</g>
<!-- packages/UI/svg&#45;objects/src/index.ts&#45;&gt;packages/UI/svg&#45;objects/src/current&#45;time&#45;line.ts -->
<g id="edge17" class="edge">
<title>packages/UI/svg&#45;objects/src/index.ts&#45;&gt;packages/UI/svg&#45;objects/src/current&#45;time&#45;line.ts</title>
<path fill="none" stroke="#000000" stroke-opacity="0.200000" d="M168.96,-93.79C178.55,-89.36 188,-85 188,-85 188,-85 193.66,-83.45 201.21,-81.37"/>
<polygon fill="#000000" fill-opacity="0.200000" stroke="#000000" stroke-opacity="0.200000" points="206.59,-81.71 201.3,-81.35 205.66,-78.34 206.59,-81.71"/>
</g>
<!-- packages/UI/svg&#45;objects/src/octave/index.ts -->
<g id="node13" class="node">
<title>packages/UI/svg&#45;objects/src/octave/index.ts</title>
<g id="a_node13"><a xlink:href="packages/UI/svg-objects/src/octave/index.ts" xlink:title="index.ts">
<path fill="#ddfeff" stroke="black" d="M261,-144C261,-144 219,-144 219,-144 216,-144 213,-141 213,-138 213,-138 213,-132 213,-132 213,-129 216,-126 219,-126 219,-126 261,-126 261,-126 264,-126 267,-129 267,-132 267,-132 267,-138 267,-138 267,-141 264,-144 261,-144"/>
<text text-anchor="start" x="221.5" y="-132.8" font-family="Helvetica,sans-Serif" font-size="9.00">index.ts</text>
</a>
</g>
</g>
<!-- packages/UI/svg&#45;objects/src/index.ts&#45;&gt;packages/UI/svg&#45;objects/src/octave/index.ts -->
<g id="edge18" class="edge">
<title>packages/UI/svg&#45;objects/src/index.ts&#45;&gt;packages/UI/svg&#45;objects/src/octave/index.ts</title>
<path fill="none" stroke="#000000" stroke-opacity="0.200000" d="M167.59,-112.05C177.63,-116.95 188,-122 188,-122 188,-122 197.29,-124.37 207.94,-127.08"/>
<polygon fill="#000000" fill-opacity="0.200000" stroke="#000000" stroke-opacity="0.200000" points="212.47,-130.04 208.06,-127.11 213.33,-126.65 212.47,-130.04"/>
</g>
<!-- packages/UI/svg&#45;objects/src/components/black&#45;bg.ts -->
<g id="node4" class="node">
<title>packages/UI/svg&#45;objects/src/components/black&#45;bg.ts</title>
<g id="a_node4"><a xlink:href="packages/UI/svg-objects/src/components/black-bg.ts" xlink:title="black&#45;bg.ts">
<path fill="#ddfeff" stroke="black" d="M743.5,-118C743.5,-118 688.5,-118 688.5,-118 685.5,-118 682.5,-115 682.5,-112 682.5,-112 682.5,-106 682.5,-106 682.5,-103 685.5,-100 688.5,-100 688.5,-100 743.5,-100 743.5,-100 746.5,-100 749.5,-103 749.5,-106 749.5,-106 749.5,-112 749.5,-112 749.5,-115 746.5,-118 743.5,-118"/>
<text text-anchor="start" x="690.5" y="-106.8" font-family="Helvetica,sans-Serif" font-size="9.00">black&#45;bg.ts</text>
</a>
</g>
</g>
<!-- packages/UI/view/dist/index.js -->
<g id="node5" class="node">
<title>packages/UI/view/dist/index.js</title>
<g id="a_node5"><a xlink:href="packages/UI/view/dist/index.js" xlink:title="index.js">
<polygon fill="#ffffcc" stroke="black" points="877,-250 875.5,-252 865,-252 863.5,-250 823,-250 823,-232 877,-232 877,-250"/>
<text text-anchor="start" x="832.5" y="-238.8" font-family="Helvetica,sans-Serif" font-size="9.00">index.js</text>
</a>
</g>
</g>
<!-- packages/UI/svg&#45;objects/src/components/black&#45;bg.ts&#45;&gt;packages/UI/view/dist/index.js -->
<g id="edge2" class="edge">
<title>packages/UI/svg&#45;objects/src/components/black&#45;bg.ts&#45;&gt;packages/UI/view/dist/index.js</title>
<path fill="none" stroke="#000000" stroke-opacity="0.200000" d="M749.73,-117.46C762.89,-120.87 775,-124 775,-124 775,-124 820.73,-196.3 840.29,-227.23"/>
<polygon fill="#000000" fill-opacity="0.200000" stroke="#000000" stroke-opacity="0.200000" points="843.19,-231.82 838.62,-228.8 841.86,-229.71 840.52,-227.59 840.52,-227.59 840.52,-227.59 841.86,-229.71 842.42,-226.39 843.19,-231.82 843.19,-231.82"/>
</g>
<!-- packages/UI/view&#45;parameters/dist/index.js -->
<g id="node6" class="node">
<title>packages/UI/view&#45;parameters/dist/index.js</title>
<g id="a_node6"><a xlink:href="packages/UI/view-parameters/dist/index.js" xlink:title="index.js">
<polygon fill="#ffffcc" stroke="black" points="877,-88 875.5,-90 865,-90 863.5,-88 823,-88 823,-70 877,-70 877,-88"/>
<text text-anchor="start" x="832.5" y="-76.8" font-family="Helvetica,sans-Serif" font-size="9.00">index.js</text>
</a>
</g>
</g>
<!-- packages/UI/svg&#45;objects/src/components/black&#45;bg.ts&#45;&gt;packages/UI/view&#45;parameters/dist/index.js -->
<g id="edge3" class="edge">
<title>packages/UI/svg&#45;objects/src/components/black&#45;bg.ts&#45;&gt;packages/UI/view&#45;parameters/dist/index.js</title>
<path fill="none" stroke="#000000" stroke-opacity="0.200000" d="M749.63,-101.58C770.46,-96.85 797.31,-90.75 817.85,-86.08"/>
<polygon fill="#000000" fill-opacity="0.200000" stroke="#000000" stroke-opacity="0.200000" points="822.93,-84.92 818.55,-88.23 820.49,-85.48 818.06,-86.03 818.06,-86.03 818.06,-86.03 820.49,-85.48 817.56,-83.84 822.93,-84.92 822.93,-84.92"/>
</g>
<!-- packages/UI/svg&#45;objects/src/components/black&#45;key.ts -->
<g id="node7" class="node">
<title>packages/UI/svg&#45;objects/src/components/black&#45;key.ts</title>
<g id="a_node7"><a xlink:href="packages/UI/svg-objects/src/components/black-key.ts" xlink:title="black&#45;key.ts">
<path fill="#ddfeff" stroke="black" d="M744.5,-148C744.5,-148 687.5,-148 687.5,-148 684.5,-148 681.5,-145 681.5,-142 681.5,-142 681.5,-136 681.5,-136 681.5,-133 684.5,-130 687.5,-130 687.5,-130 744.5,-130 744.5,-130 747.5,-130 750.5,-133 750.5,-136 750.5,-136 750.5,-142 750.5,-142 750.5,-145 747.5,-148 744.5,-148"/>
<text text-anchor="start" x="689.5" y="-136.8" font-family="Helvetica,sans-Serif" font-size="9.00">black&#45;key.ts</text>
</a>
</g>
</g>
<!-- packages/UI/svg&#45;objects/src/components/black&#45;key.ts&#45;&gt;packages/UI/view/dist/index.js -->
<g id="edge4" class="edge">
<title>packages/UI/svg&#45;objects/src/components/black&#45;key.ts&#45;&gt;packages/UI/view/dist/index.js</title>
<path fill="none" stroke="#000000" stroke-opacity="0.200000" d="M750.74,-147.73C763.5,-151.03 775,-154 775,-154 775,-154 816.99,-203.37 837.71,-227.73"/>
<polygon fill="#000000" fill-opacity="0.200000" stroke="#000000" stroke-opacity="0.200000" points="841.08,-231.69 836.13,-229.34 839.46,-229.79 837.84,-227.88 837.84,-227.88 837.84,-227.88 839.46,-229.79 839.56,-226.42 841.08,-231.69 841.08,-231.69"/>
</g>
<!-- packages/UI/svg&#45;objects/src/components/black&#45;key.ts&#45;&gt;packages/UI/view&#45;parameters/dist/index.js -->
<g id="edge5" class="edge">
<title>packages/UI/svg&#45;objects/src/components/black&#45;key.ts&#45;&gt;packages/UI/view&#45;parameters/dist/index.js</title>
<path fill="none" stroke="#000000" stroke-opacity="0.200000" d="M750.74,-130.27C763.5,-126.97 775,-124 775,-124 775,-124 807.6,-104.18 829.52,-90.84"/>
<polygon fill="#000000" fill-opacity="0.200000" stroke="#000000" stroke-opacity="0.200000" points="834.02,-88.11 830.92,-92.63 831.89,-89.41 829.75,-90.7 829.75,-90.7 829.75,-90.7 831.89,-89.41 828.58,-88.78 834.02,-88.11 834.02,-88.11"/>
</g>
<!-- packages/UI/svg&#45;objects/src/components/index.ts -->
<g id="node8" class="node">
<title>packages/UI/svg&#45;objects/src/components/index.ts</title>
<g id="a_node8"><a xlink:href="packages/UI/svg-objects/src/components/index.ts" xlink:title="index.ts">
<path fill="#ddfeff" stroke="black" d="M662,-146C662,-146 620,-146 620,-146 617,-146 614,-143 614,-140 614,-140 614,-134 614,-134 614,-131 617,-128 620,-128 620,-128 662,-128 662,-128 665,-128 668,-131 668,-134 668,-134 668,-140 668,-140 668,-143 665,-146 662,-146"/>
<text text-anchor="start" x="622.5" y="-134.8" font-family="Helvetica,sans-Serif" font-size="9.00">index.ts</text>
</a>
</g>
</g>
<!-- packages/UI/svg&#45;objects/src/components/index.ts&#45;&gt;packages/UI/svg&#45;objects/src/components/black&#45;bg.ts -->
<g id="edge6" class="edge">
<title>packages/UI/svg&#45;objects/src/components/index.ts&#45;&gt;packages/UI/svg&#45;objects/src/components/black&#45;bg.ts</title>
<path fill="none" stroke="#000000" stroke-opacity="0.200000" d="M665.5,-127.99C672.2,-125.41 679.58,-122.58 686.55,-119.91"/>
<polygon fill="#000000" fill-opacity="0.200000" stroke="#000000" stroke-opacity="0.200000" points="691.92,-119.73 686.63,-119.88 690.67,-116.46 691.92,-119.73"/>
</g>
<!-- packages/UI/svg&#45;objects/src/components/index.ts&#45;&gt;packages/UI/svg&#45;objects/src/components/black&#45;key.ts -->
<g id="edge7" class="edge">
<title>packages/UI/svg&#45;objects/src/components/index.ts&#45;&gt;packages/UI/svg&#45;objects/src/components/black&#45;key.ts</title>
<path fill="none" stroke="#000000" stroke-opacity="0.200000" d="M668.35,-137.72C670.88,-137.79 673.47,-137.86 676.08,-137.93"/>
<polygon fill="#000000" fill-opacity="0.200000" stroke="#000000" stroke-opacity="0.200000" points="681.39,-139.83 676.44,-137.94 681.49,-136.33 681.39,-139.83"/>
</g>
<!-- packages/UI/svg&#45;objects/src/components/white&#45;bg.ts -->
<g id="node9" class="node">
<title>packages/UI/svg&#45;objects/src/components/white&#45;bg.ts</title>
<g id="a_node9"><a xlink:href="packages/UI/svg-objects/src/components/white-bg.ts" xlink:title="white&#45;bg.ts">
<path fill="#ddfeff" stroke="black" d="M744,-88C744,-88 688,-88 688,-88 685,-88 682,-85 682,-82 682,-82 682,-76 682,-76 682,-73 685,-70 688,-70 688,-70 744,-70 744,-70 747,-70 750,-73 750,-76 750,-76 750,-82 750,-82 750,-85 747,-88 744,-88"/>
<text text-anchor="start" x="690" y="-76.8" font-family="Helvetica,sans-Serif" font-size="9.00">white&#45;bg.ts</text>
</a>
</g>
</g>
<!-- packages/UI/svg&#45;objects/src/components/index.ts&#45;&gt;packages/UI/svg&#45;objects/src/components/white&#45;bg.ts -->
<g id="edge8" class="edge">
<title>packages/UI/svg&#45;objects/src/components/index.ts&#45;&gt;packages/UI/svg&#45;objects/src/components/white&#45;bg.ts</title>
<path fill="none" stroke="#000000" stroke-opacity="0.200000" d="M650.27,-127.88C661.72,-115.26 681,-94 681,-94 681,-94 684.68,-92.38 689.62,-90.2"/>
<polygon fill="#000000" fill-opacity="0.200000" stroke="#000000" stroke-opacity="0.200000" points="695.14,-89.67 689.86,-90.09 693.73,-86.47 695.14,-89.67"/>
</g>
<!-- packages/UI/svg&#45;objects/src/components/white&#45;key.ts -->
<g id="node10" class="node">
<title>packages/UI/svg&#45;objects/src/components/white&#45;key.ts</title>
<g id="a_node10"><a xlink:href="packages/UI/svg-objects/src/components/white-key.ts" xlink:title="white&#45;key.ts">
<path fill="#ddfeff" stroke="black" d="M745,-178C745,-178 687,-178 687,-178 684,-178 681,-175 681,-172 681,-172 681,-166 681,-166 681,-163 684,-160 687,-160 687,-160 745,-160 745,-160 748,-160 751,-163 751,-166 751,-166 751,-172 751,-172 751,-175 748,-178 745,-178"/>
<text text-anchor="start" x="689" y="-166.8" font-family="Helvetica,sans-Serif" font-size="9.00">white&#45;key.ts</text>
</a>
</g>
</g>
<!-- packages/UI/svg&#45;objects/src/components/index.ts&#45;&gt;packages/UI/svg&#45;objects/src/components/white&#45;key.ts -->
<g id="edge9" class="edge">
<title>packages/UI/svg&#45;objects/src/components/index.ts&#45;&gt;packages/UI/svg&#45;objects/src/components/white&#45;key.ts</title>
<path fill="none" stroke="#000000" stroke-opacity="0.200000" d="M662.72,-146.08C671.05,-149.73 680.72,-153.97 689.47,-157.81"/>
<polygon fill="#000000" fill-opacity="0.200000" stroke="#000000" stroke-opacity="0.200000" points="693.52,-161.5 689.65,-157.89 694.93,-158.29 693.52,-161.5"/>
</g>
<!-- packages/UI/svg&#45;objects/src/components/white&#45;bg.ts&#45;&gt;packages/UI/view/dist/index.js -->
<g id="edge10" class="edge">
<title>packages/UI/svg&#45;objects/src/components/white&#45;bg.ts&#45;&gt;packages/UI/view/dist/index.js</title>
<path fill="none" stroke="#000000" stroke-opacity="0.200000" d="M750.07,-87.55C763.09,-90.92 775,-94 775,-94 775,-94 823.7,-190.74 842.09,-227.26"/>
<polygon fill="#000000" fill-opacity="0.200000" stroke="#000000" stroke-opacity="0.200000" points="844.37,-231.8 840.11,-228.35 843.25,-229.57 842.12,-227.34 842.12,-227.34 842.12,-227.34 843.25,-229.57 844.13,-226.33 844.37,-231.8 844.37,-231.8"/>
</g>
<!-- packages/UI/svg&#45;objects/src/components/white&#45;bg.ts&#45;&gt;packages/UI/view&#45;parameters/dist/index.js -->
<g id="edge11" class="edge">
<title>packages/UI/svg&#45;objects/src/components/white&#45;bg.ts&#45;&gt;packages/UI/view&#45;parameters/dist/index.js</title>
<path fill="none" stroke="#000000" stroke-opacity="0.200000" d="M750.31,-79C771.01,-79 797.45,-79 817.75,-79"/>
<polygon fill="#000000" fill-opacity="0.200000" stroke="#000000" stroke-opacity="0.200000" points="822.77,-79 817.77,-81.25 820.27,-79 817.77,-79 817.77,-79 817.77,-79 820.27,-79 817.77,-76.75 822.77,-79 822.77,-79"/>
</g>
<!-- packages/UI/svg&#45;objects/src/components/white&#45;key.ts&#45;&gt;packages/UI/view/dist/index.js -->
<g id="edge13" class="edge">
<title>packages/UI/svg&#45;objects/src/components/white&#45;key.ts&#45;&gt;packages/UI/view/dist/index.js</title>
<path fill="none" stroke="#000000" stroke-opacity="0.200000" d="M733.72,-178.12C757.62,-191.16 801.56,-215.12 827.74,-229.41"/>
<polygon fill="#000000" fill-opacity="0.200000" stroke="#000000" stroke-opacity="0.200000" points="832.42,-231.96 826.95,-231.54 830.22,-230.76 828.03,-229.56 828.03,-229.56 828.03,-229.56 830.22,-230.76 829.11,-227.59 832.42,-231.96 832.42,-231.96"/>
</g>
<!-- packages/UI/svg&#45;objects/src/components/white&#45;key.ts&#45;&gt;packages/UI/view&#45;parameters/dist/index.js -->
<g id="edge14" class="edge">
<title>packages/UI/svg&#45;objects/src/components/white&#45;key.ts&#45;&gt;packages/UI/view&#45;parameters/dist/index.js</title>
<path fill="none" stroke="#000000" stroke-opacity="0.200000" d="M751.07,-160.19C763.7,-156.92 775,-154 775,-154 775,-154 815.03,-113.43 836.21,-91.97"/>
<polygon fill="#000000" fill-opacity="0.200000" stroke="#000000" stroke-opacity="0.200000" points="839.93,-88.2 838.02,-93.34 838.17,-89.98 836.41,-91.76 836.41,-91.76 836.41,-91.76 838.17,-89.98 834.81,-90.18 839.93,-88.2 839.93,-88.2"/>
</g>
<!-- packages/util/math/dist/index.js -->
<g id="node11" class="node">
<title>packages/util/math/dist/index.js</title>
<g id="a_node11"><a xlink:href="packages/util/math/dist/index.js" xlink:title="index.js">
<polygon fill="#ffffcc" stroke="black" points="877,-402 875.5,-404 865,-404 863.5,-402 823,-402 823,-384 877,-384 877,-402"/>
<text text-anchor="start" x="832.5" y="-390.8" font-family="Helvetica,sans-Serif" font-size="9.00">index.js</text>
</a>
</g>
</g>
<!-- packages/UI/svg&#45;objects/src/components/white&#45;key.ts&#45;&gt;packages/util/math/dist/index.js -->
<g id="edge12" class="edge">
<title>packages/UI/svg&#45;objects/src/components/white&#45;key.ts&#45;&gt;packages/util/math/dist/index.js</title>
<path fill="none" stroke="#000000" stroke-opacity="0.200000" d="M722.34,-178.06C742.77,-212.74 816.12,-337.2 840.82,-379.11"/>
<polygon fill="#000000" fill-opacity="0.200000" stroke="#000000" stroke-opacity="0.200000" points="843.45,-383.58 838.97,-380.41 842.18,-381.43 840.91,-379.27 840.91,-379.27 840.91,-379.27 842.18,-381.43 842.85,-378.13 843.45,-383.58 843.45,-383.58"/>
</g>
<!-- packages/UI/svg&#45;objects/src/current&#45;time&#45;line.ts&#45;&gt;packages/UI/view/dist/index.js -->
<g id="edge15" class="edge">
<title>packages/UI/svg&#45;objects/src/current&#45;time&#45;line.ts&#45;&gt;packages/UI/view/dist/index.js</title>
<path fill="none" stroke="#000000" stroke-opacity="0.200000" d="M273.88,-80.02C283.74,-82.73 292,-85 292,-85 292,-85 305,-233 305,-233 305,-233 399,-307 399,-307 399,-307 435.5,-325 435.5,-325 435.5,-325 435.5,-325 642,-325 642,-325 775,-308 775,-308 775,-308 813.84,-272.84 835.24,-253.46"/>
<polygon fill="#000000" fill-opacity="0.200000" stroke="#000000" stroke-opacity="0.200000" points="839.02,-250.04 836.82,-255.06 837.17,-251.71 835.31,-253.39 835.31,-253.39 835.31,-253.39 837.17,-251.71 833.8,-251.72 839.02,-250.04 839.02,-250.04"/>
</g>
<!-- packages/UI/svg&#45;objects/src/current&#45;time&#45;line.ts&#45;&gt;packages/UI/view&#45;parameters/dist/index.js -->
<g id="edge16" class="edge">
<title>packages/UI/svg&#45;objects/src/current&#45;time&#45;line.ts&#45;&gt;packages/UI/view&#45;parameters/dist/index.js</title>
<path fill="none" stroke="#000000" stroke-opacity="0.200000" d="M279.43,-61.91C336.11,-48.51 435.5,-25 435.5,-25 435.5,-25 435.5,-25 642,-25 642,-25 775,-39 775,-39 775,-39 805.83,-55.67 827.69,-67.48"/>
<polygon fill="#000000" fill-opacity="0.200000" stroke="#000000" stroke-opacity="0.200000" points="832.21,-69.92 826.74,-69.53 830.01,-68.73 827.81,-67.55 827.81,-67.55 827.81,-67.55 830.01,-68.73 828.88,-65.57 832.21,-69.92 832.21,-69.92"/>
</g>
<!-- packages/UI/svg&#45;objects/src/octave/octave&#45;bgs.ts -->
<g id="node14" class="node">
<title>packages/UI/svg&#45;objects/src/octave/octave&#45;bgs.ts</title>
<g id="a_node14"><a xlink:href="packages/UI/svg-objects/src/octave/octave-bgs.ts" xlink:title="octave&#45;bgs.ts">
<path fill="#ddfeff" stroke="black" d="M378,-144C378,-144 313,-144 313,-144 310,-144 307,-141 307,-138 307,-138 307,-132 307,-132 307,-129 310,-126 313,-126 313,-126 378,-126 378,-126 381,-126 384,-129 384,-132 384,-132 384,-138 384,-138 384,-141 381,-144 378,-144"/>
<text text-anchor="start" x="315" y="-132.8" font-family="Helvetica,sans-Serif" font-size="9.00">octave&#45;bgs.ts</text>
</a>
</g>
</g>
<!-- packages/UI/svg&#45;objects/src/octave/index.ts&#45;&gt;packages/UI/svg&#45;objects/src/octave/octave&#45;bgs.ts -->
<g id="edge19" class="edge">
<title>packages/UI/svg&#45;objects/src/octave/index.ts&#45;&gt;packages/UI/svg&#45;objects/src/octave/octave&#45;bgs.ts</title>
<path fill="none" stroke="#000000" stroke-opacity="0.200000" d="M267.12,-135C277.5,-135 289.73,-135 301.36,-135"/>
<polygon fill="#000000" fill-opacity="0.200000" stroke="#000000" stroke-opacity="0.200000" points="306.66,-136.75 301.66,-135 306.66,-133.25 306.66,-136.75"/>
</g>
<!-- packages/UI/svg&#45;objects/src/octave/octave&#45;keys.ts -->
<g id="node15" class="node">
<title>packages/UI/svg&#45;objects/src/octave/octave&#45;keys.ts</title>
<g id="a_node15"><a xlink:href="packages/UI/svg-objects/src/octave/octave-keys.ts" xlink:title="octave&#45;keys.ts">
<path fill="#ddfeff" stroke="black" d="M380,-174C380,-174 311,-174 311,-174 308,-174 305,-171 305,-168 305,-168 305,-162 305,-162 305,-159 308,-156 311,-156 311,-156 380,-156 380,-156 383,-156 386,-159 386,-162 386,-162 386,-168 386,-168 386,-171 383,-174 380,-174"/>
<text text-anchor="start" x="313" y="-162.8" font-family="Helvetica,sans-Serif" font-size="9.00">octave&#45;keys.ts</text>
</a>
</g>
</g>
<!-- packages/UI/svg&#45;objects/src/octave/index.ts&#45;&gt;packages/UI/svg&#45;objects/src/octave/octave&#45;keys.ts -->
<g id="edge20" class="edge">
<title>packages/UI/svg&#45;objects/src/octave/index.ts&#45;&gt;packages/UI/svg&#45;objects/src/octave/octave&#45;keys.ts</title>
<path fill="none" stroke="#000000" stroke-opacity="0.200000" d="M267.12,-142.57C279.6,-146.19 294.74,-150.58 308.31,-154.51"/>
<polygon fill="#000000" fill-opacity="0.200000" stroke="#000000" stroke-opacity="0.200000" points="312.74,-157.62 308.42,-154.54 313.71,-154.25 312.74,-157.62"/>
</g>
<!-- packages/UI/svg&#45;objects/src/octave/octave&#45;bgs.ts&#45;&gt;packages/UI/view/dist/index.js -->
<g id="edge25" class="edge">
<title>packages/UI/svg&#45;objects/src/octave/octave&#45;bgs.ts&#45;&gt;packages/UI/view/dist/index.js</title>
<path fill="none" stroke="#000000" stroke-opacity="0.200000" d="M370.39,-144.07C378.71,-147.23 386,-150 386,-150 386,-150 399,-195 399,-195 399,-195 487,-277 487,-277 487,-277 537.5,-297 537.5,-297 537.5,-297 537.5,-297 642,-297 642,-297 775,-277 775,-277 775,-277 804.12,-262.84 825.82,-252.28"/>
<polygon fill="#000000" fill-opacity="0.200000" stroke="#000000" stroke-opacity="0.200000" points="830.33,-250.08 826.81,-254.29 828.08,-251.18 825.83,-252.27 825.83,-252.27 825.83,-252.27 828.08,-251.18 824.85,-250.25 830.33,-250.08 830.33,-250.08"/>
</g>
<!-- packages/UI/svg&#45;objects/src/octave/octave&#45;bgs.ts&#45;&gt;packages/UI/view&#45;parameters/dist/index.js -->
<g id="edge26" class="edge">
<title>packages/UI/svg&#45;objects/src/octave/octave&#45;bgs.ts&#45;&gt;packages/UI/view&#45;parameters/dist/index.js</title>
<path fill="none" stroke="#000000" stroke-opacity="0.200000" d="M352.12,-125.8C365.66,-103.61 399,-49 399,-49 399,-49 537.5,-39 537.5,-39 537.5,-39 537.5,-39 642,-39 642,-39 775,-49 775,-49 775,-49 800.93,-59.51 822.09,-68.09"/>
<polygon fill="#000000" fill-opacity="0.200000" stroke="#000000" stroke-opacity="0.200000" points="826.8,-70 821.32,-70.21 824.48,-69.06 822.16,-68.12 822.16,-68.12 822.16,-68.12 824.48,-69.06 823.01,-66.04 826.8,-70 826.8,-70"/>
</g>
<!-- packages/UI/svg&#45;objects/src/octave/octave&#45;bg.ts -->
<g id="node16" class="node">
<title>packages/UI/svg&#45;objects/src/octave/octave&#45;bg.ts</title>
<g id="a_node16"><a xlink:href="packages/UI/svg-objects/src/octave/octave-bg.ts" xlink:title="octave&#45;bg.ts">
<path fill="#ddfeff" stroke="black" d="M467,-144C467,-144 406,-144 406,-144 403,-144 400,-141 400,-138 400,-138 400,-132 400,-132 400,-129 403,-126 406,-126 406,-126 467,-126 467,-126 470,-126 473,-129 473,-132 473,-132 473,-138 473,-138 473,-141 470,-144 467,-144"/>
<text text-anchor="start" x="408" y="-132.8" font-family="Helvetica,sans-Serif" font-size="9.00">octave&#45;bg.ts</text>
</a>
</g>
</g>
<!-- packages/UI/svg&#45;objects/src/octave/octave&#45;bgs.ts&#45;&gt;packages/UI/svg&#45;objects/src/octave/octave&#45;bg.ts -->
<g id="edge24" class="edge">
<title>packages/UI/svg&#45;objects/src/octave/octave&#45;bgs.ts&#45;&gt;packages/UI/svg&#45;objects/src/octave/octave&#45;bg.ts</title>
<path fill="none" stroke="#000000" stroke-opacity="0.200000" d="M384.24,-135C387.66,-135 391.14,-135 394.58,-135"/>
<polygon fill="#000000" fill-opacity="0.200000" stroke="#000000" stroke-opacity="0.200000" points="399.96,-135 394.96,-137.25 397.46,-135 394.96,-135 394.96,-135 394.96,-135 397.46,-135 394.96,-132.75 399.96,-135 399.96,-135"/>
</g>
<!-- packages/UI/svg&#45;objects/src/octave/octave&#45;keys.ts&#45;&gt;packages/UI/view/dist/index.js -->
<g id="edge35" class="edge">
<title>packages/UI/svg&#45;objects/src/octave/octave&#45;keys.ts&#45;&gt;packages/UI/view/dist/index.js</title>
<path fill="none" stroke="#000000" stroke-opacity="0.200000" d="M350.11,-174.35C361.97,-205.07 399,-301 399,-301 399,-301 537.5,-311 537.5,-311 537.5,-311 537.5,-311 642,-311 642,-311 775,-301 775,-301 775,-301 811.97,-271.03 833.64,-253.45"/>
<polygon fill="#000000" fill-opacity="0.200000" stroke="#000000" stroke-opacity="0.200000" points="837.76,-250.11 835.29,-255.01 835.82,-251.69 833.88,-253.26 833.88,-253.26 833.88,-253.26 835.82,-251.69 832.46,-251.51 837.76,-250.11 837.76,-250.11"/>
</g>
<!-- packages/UI/svg&#45;objects/src/octave/octave&#45;keys.ts&#45;&gt;packages/UI/view&#45;parameters/dist/index.js -->
<g id="edge36" class="edge">
<title>packages/UI/svg&#45;objects/src/octave/octave&#45;keys.ts&#45;&gt;packages/UI/view&#45;parameters/dist/index.js</title>
<path fill="none" stroke="#000000" stroke-opacity="0.200000" d="M370.39,-155.93C378.71,-152.77 386,-150 386,-150 386,-150 399,-120 399,-120 399,-120 537.5,-53 537.5,-53 537.5,-53 537.5,-53 642,-53 642,-53 775,-59 775,-59 775,-59 797.46,-65.07 817.64,-70.52"/>
<polygon fill="#000000" fill-opacity="0.200000" stroke="#000000" stroke-opacity="0.200000" points="822.7,-71.89 817.29,-72.76 820.29,-71.24 817.88,-70.59 817.88,-70.59 817.88,-70.59 820.29,-71.24 818.46,-68.42 822.7,-71.89 822.7,-71.89"/>
</g>
<!-- packages/UI/svg&#45;objects/src/octave/octave&#45;key.ts -->
<g id="node20" class="node">
<title>packages/UI/svg&#45;objects/src/octave/octave&#45;key.ts</title>
<g id="a_node20"><a xlink:href="packages/UI/svg-objects/src/octave/octave-key.ts" xlink:title="octave&#45;key.ts">
<path fill="#ddfeff" stroke="black" d="M468,-189C468,-189 405,-189 405,-189 402,-189 399,-186 399,-183 399,-183 399,-177 399,-177 399,-174 402,-171 405,-171 405,-171 468,-171 468,-171 471,-171 474,-174 474,-177 474,-177 474,-183 474,-183 474,-186 471,-189 468,-189"/>
<text text-anchor="start" x="407" y="-177.8" font-family="Helvetica,sans-Serif" font-size="9.00">octave&#45;key.ts</text>
</a>
</g>
</g>
<!-- packages/UI/svg&#45;objects/src/octave/octave&#45;keys.ts&#45;&gt;packages/UI/svg&#45;objects/src/octave/octave&#45;key.ts -->
<g id="edge34" class="edge">
<title>packages/UI/svg&#45;objects/src/octave/octave&#45;keys.ts&#45;&gt;packages/UI/svg&#45;objects/src/octave/octave&#45;key.ts</title>
<path fill="none" stroke="#000000" stroke-opacity="0.200000" d="M386.05,-171.67C388.59,-172.09 391.15,-172.53 393.69,-172.95"/>
<polygon fill="#000000" fill-opacity="0.200000" stroke="#000000" stroke-opacity="0.200000" points="398.89,-173.83 393.59,-175.22 396.43,-173.41 393.96,-173 393.96,-173 393.96,-173 396.43,-173.41 394.34,-170.78 398.89,-173.83 398.89,-173.83"/>
</g>
<!-- packages/UI/svg&#45;objects/src/octave/octave&#45;bg.ts&#45;&gt;packages/UI/view/dist/index.js -->
<g id="edge23" class="edge">
<title>packages/UI/svg&#45;objects/src/octave/octave&#45;bg.ts&#45;&gt;packages/UI/view/dist/index.js</title>
<path fill="none" stroke="#000000" stroke-opacity="0.200000" d="M448.65,-144.16C459.38,-152.99 474,-165 474,-165 474,-165 487,-210 487,-210 487,-210 606,-249 606,-249 606,-249 775,-249 775,-249 775,-249 797.46,-246.57 817.64,-244.39"/>
<polygon fill="#000000" fill-opacity="0.200000" stroke="#000000" stroke-opacity="0.200000" points="822.7,-243.84 817.97,-246.62 820.22,-244.11 817.73,-244.38 817.73,-244.38 817.73,-244.38 820.22,-244.11 817.49,-242.14 822.7,-243.84 822.7,-243.84"/>
</g>
<!-- packages/UI/svg&#45;objects/src/octave/octave&#45;black&#45;bg.ts -->
<g id="node17" class="node">
<title>packages/UI/svg&#45;objects/src/octave/octave&#45;black&#45;bg.ts</title>
<g id="a_node17"><a xlink:href="packages/UI/svg-objects/src/octave/octave-black-bg.ts" xlink:title="octave&#45;black&#45;bg.ts">
<path fill="#ddfeff" stroke="black" d="M582.5,-114C582.5,-114 494.5,-114 494.5,-114 491.5,-114 488.5,-111 488.5,-108 488.5,-108 488.5,-102 488.5,-102 488.5,-99 491.5,-96 494.5,-96 494.5,-96 582.5,-96 582.5,-96 585.5,-96 588.5,-99 588.5,-102 588.5,-102 588.5,-108 588.5,-108 588.5,-111 585.5,-114 582.5,-114"/>
<text text-anchor="start" x="496.5" y="-102.8" font-family="Helvetica,sans-Serif" font-size="9.00">octave&#45;black&#45;bg.ts</text>
</a>
</g>
</g>
<!-- packages/UI/svg&#45;objects/src/octave/octave&#45;bg.ts&#45;&gt;packages/UI/svg&#45;objects/src/octave/octave&#45;black&#45;bg.ts -->
<g id="edge21" class="edge">
<title>packages/UI/svg&#45;objects/src/octave/octave&#45;bg.ts&#45;&gt;packages/UI/svg&#45;objects/src/octave/octave&#45;black&#45;bg.ts</title>
<path fill="none" stroke="#000000" stroke-opacity="0.200000" d="M467.44,-125.93C477.86,-122.77 487,-120 487,-120 487,-120 493.64,-118.03 502.1,-115.51"/>
<polygon fill="#000000" fill-opacity="0.200000" stroke="#000000" stroke-opacity="0.200000" points="506.96,-114.07 502.81,-117.65 504.56,-114.78 502.17,-115.5 502.17,-115.5 502.17,-115.5 504.56,-114.78 501.53,-113.34 506.96,-114.07 506.96,-114.07"/>
</g>
<!-- packages/UI/svg&#45;objects/src/octave/octave&#45;white&#45;bg.ts -->
<g id="node18" class="node">
<title>packages/UI/svg&#45;objects/src/octave/octave&#45;white&#45;bg.ts</title>
<g id="a_node18"><a xlink:href="packages/UI/svg-objects/src/octave/octave-white-bg.ts" xlink:title="octave&#45;white&#45;bg.ts">
<path fill="#ddfeff" stroke="black" d="M583,-144C583,-144 494,-144 494,-144 491,-144 488,-141 488,-138 488,-138 488,-132 488,-132 488,-129 491,-126 494,-126 494,-126 583,-126 583,-126 586,-126 589,-129 589,-132 589,-132 589,-138 589,-138 589,-141 586,-144 583,-144"/>
<text text-anchor="start" x="496" y="-132.8" font-family="Helvetica,sans-Serif" font-size="9.00">octave&#45;white&#45;bg.ts</text>
</a>
</g>
</g>
<!-- packages/UI/svg&#45;objects/src/octave/octave&#45;bg.ts&#45;&gt;packages/UI/svg&#45;objects/src/octave/octave&#45;white&#45;bg.ts -->
<g id="edge22" class="edge">
<title>packages/UI/svg&#45;objects/src/octave/octave&#45;bg.ts&#45;&gt;packages/UI/svg&#45;objects/src/octave/octave&#45;white&#45;bg.ts</title>
<path fill="none" stroke="#000000" stroke-opacity="0.200000" d="M473.04,-135C476.21,-135 479.46,-135 482.74,-135"/>
<polygon fill="#000000" fill-opacity="0.200000" stroke="#000000" stroke-opacity="0.200000" points="487.91,-135 482.91,-137.25 485.41,-135 482.91,-135 482.91,-135 482.91,-135 485.41,-135 482.91,-132.75 487.91,-135 487.91,-135"/>
</g>
<!-- packages/UI/svg&#45;objects/src/octave/octave&#45;black&#45;bg.ts&#45;&gt;packages/UI/view/dist/index.js -->
<g id="edge28" class="edge">
<title>packages/UI/svg&#45;objects/src/octave/octave&#45;black&#45;bg.ts&#45;&gt;packages/UI/view/dist/index.js</title>
<path fill="none" stroke="#000000" stroke-opacity="0.200000" d="M574.88,-114.07C587.2,-117.23 598,-120 598,-120 598,-120 606,-207 606,-207 606,-207 775,-220 775,-220 775,-220 797.46,-226.37 817.64,-232.1"/>
<polygon fill="#000000" fill-opacity="0.200000" stroke="#000000" stroke-opacity="0.200000" points="822.7,-233.54 817.28,-234.34 820.3,-232.85 817.89,-232.17 817.89,-232.17 817.89,-232.17 820.3,-232.85 818.51,-230.01 822.7,-233.54 822.7,-233.54"/>
</g>
<!-- packages/UI/svg&#45;objects/src/octave/octave&#45;black&#45;bg.ts&#45;&gt;packages/UI/svg&#45;objects/src/components/index.ts -->
<g id="edge27" class="edge">
<title>packages/UI/svg&#45;objects/src/octave/octave&#45;black&#45;bg.ts&#45;&gt;packages/UI/svg&#45;objects/src/components/index.ts</title>
<path fill="none" stroke="#000000" stroke-opacity="0.200000" d="M574.88,-114.07C587.2,-117.23 598,-120 598,-120 598,-120 604.54,-122.65 612.46,-125.85"/>
<polygon fill="#000000" fill-opacity="0.200000" stroke="#000000" stroke-opacity="0.200000" points="617.52,-127.9 612.05,-128.11 615.21,-126.96 612.89,-126.03 612.89,-126.03 612.89,-126.03 615.21,-126.96 613.73,-123.94 617.52,-127.9 617.52,-127.9"/>
</g>
<!-- packages/UI/svg&#45;objects/src/octave/octave&#45;white&#45;bg.ts&#45;&gt;packages/UI/view/dist/index.js -->
<g id="edge38" class="edge">
<title>packages/UI/svg&#45;objects/src/octave/octave&#45;white&#45;bg.ts&#45;&gt;packages/UI/view/dist/index.js</title>
<path fill="none" stroke="#000000" stroke-opacity="0.200000" d="M574.88,-144.07C587.2,-147.23 598,-150 598,-150 598,-150 606,-217 606,-217 606,-217 775,-232 775,-232 775,-232 797.46,-234.73 817.64,-237.19"/>
<polygon fill="#000000" fill-opacity="0.200000" stroke="#000000" stroke-opacity="0.200000" points="822.7,-237.8 817.47,-239.43 820.22,-237.5 817.74,-237.2 817.74,-237.2 817.74,-237.2 820.22,-237.5 818.01,-234.96 822.7,-237.8 822.7,-237.8"/>
</g>
<!-- packages/UI/svg&#45;objects/src/octave/octave&#45;white&#45;bg.ts&#45;&gt;packages/UI/svg&#45;objects/src/components/index.ts -->
<g id="edge37" class="edge">
<title>packages/UI/svg&#45;objects/src/octave/octave&#45;white&#45;bg.ts&#45;&gt;packages/UI/svg&#45;objects/src/components/index.ts</title>
<path fill="none" stroke="#000000" stroke-opacity="0.200000" d="M589.16,-135.99C595.81,-136.12 602.47,-136.25 608.67,-136.38"/>
<polygon fill="#000000" fill-opacity="0.200000" stroke="#000000" stroke-opacity="0.200000" points="613.77,-136.48 608.73,-138.63 611.27,-136.43 608.77,-136.38 608.77,-136.38 608.77,-136.38 611.27,-136.43 608.82,-134.13 613.77,-136.48 613.77,-136.48"/>
</g>
<!-- packages/UI/svg&#45;objects/src/octave/octave&#45;black&#45;key.ts -->
<g id="node19" class="node">
<title>packages/UI/svg&#45;objects/src/octave/octave&#45;black&#45;key.ts</title>
<g id="a_node19"><a xlink:href="packages/UI/svg-objects/src/octave/octave-black-key.ts" xlink:title="octave&#45;black&#45;key.ts">
<path fill="#ddfeff" stroke="black" d="M583.5,-174C583.5,-174 493.5,-174 493.5,-174 490.5,-174 487.5,-171 487.5,-168 487.5,-168 487.5,-162 487.5,-162 487.5,-159 490.5,-156 493.5,-156 493.5,-156 583.5,-156 583.5,-156 586.5,-156 589.5,-159 589.5,-162 589.5,-162 589.5,-168 589.5,-168 589.5,-171 586.5,-174 583.5,-174"/>
<text text-anchor="start" x="495.5" y="-162.8" font-family="Helvetica,sans-Serif" font-size="9.00">octave&#45;black&#45;key.ts</text>
</a>
</g>
</g>
<!-- packages/UI/svg&#45;objects/src/octave/octave&#45;black&#45;key.ts&#45;&gt;packages/UI/view/dist/index.js -->
<g id="edge30" class="edge">
<title>packages/UI/svg&#45;objects/src/octave/octave&#45;black&#45;key.ts&#45;&gt;packages/UI/view/dist/index.js</title>
<path fill="none" stroke="#000000" stroke-opacity="0.200000" d="M574.88,-174.07C587.2,-177.23 598,-180 598,-180 598,-180 606,-231 606,-231 606,-231 751.98,-237.01 817.65,-239.71"/>
<polygon fill="#000000" fill-opacity="0.200000" stroke="#000000" stroke-opacity="0.200000" points="822.99,-239.93 817.91,-241.97 820.5,-239.83 818,-239.72 818,-239.72 818,-239.72 820.5,-239.83 818.09,-237.48 822.99,-239.93 822.99,-239.93"/>
</g>
<!-- packages/UI/svg&#45;objects/src/octave/octave&#45;black&#45;key.ts&#45;&gt;packages/UI/svg&#45;objects/src/components/index.ts -->
<g id="edge29" class="edge">
<title>packages/UI/svg&#45;objects/src/octave/octave&#45;black&#45;key.ts&#45;&gt;packages/UI/svg&#45;objects/src/components/index.ts</title>
<path fill="none" stroke="#000000" stroke-opacity="0.200000" d="M574.88,-155.93C587.2,-152.77 598,-150 598,-150 598,-150 602.57,-148.58 608.7,-146.69"/>
<polygon fill="#000000" fill-opacity="0.200000" stroke="#000000" stroke-opacity="0.200000" points="613.64,-145.16 609.53,-148.79 611.25,-145.9 608.86,-146.64 608.86,-146.64 608.86,-146.64 611.25,-145.9 608.2,-144.49 613.64,-145.16 613.64,-145.16"/>
</g>
<!-- packages/UI/svg&#45;objects/src/octave/octave&#45;key.ts&#45;&gt;packages/UI/view/dist/index.js -->
<g id="edge33" class="edge">
<title>packages/UI/svg&#45;objects/src/octave/octave&#45;key.ts&#45;&gt;packages/UI/view/dist/index.js</title>
<path fill="none" stroke="#000000" stroke-opacity="0.200000" d="M442.43,-189.26C454.95,-212.78 487,-273 487,-273 487,-273 775,-273 775,-273 775,-273 801.89,-261.37 823.25,-252.13"/>
<polygon fill="#000000" fill-opacity="0.200000" stroke="#000000" stroke-opacity="0.200000" points="827.99,-250.08 824.3,-254.13 825.7,-251.08 823.4,-252.07 823.4,-252.07 823.4,-252.07 825.7,-251.08 822.51,-250 827.99,-250.08 827.99,-250.08"/>
</g>
<!-- packages/UI/svg&#45;objects/src/octave/octave&#45;key.ts&#45;&gt;packages/UI/svg&#45;objects/src/octave/octave&#45;black&#45;key.ts -->
<g id="edge31" class="edge">
<title>packages/UI/svg&#45;objects/src/octave/octave&#45;key.ts&#45;&gt;packages/UI/svg&#45;objects/src/octave/octave&#45;black&#45;key.ts</title>
<path fill="none" stroke="#000000" stroke-opacity="0.200000" d="M474.17,-174.5C476.68,-174.12 479.25,-173.74 481.83,-173.35"/>
<polygon fill="#000000" fill-opacity="0.200000" stroke="#000000" stroke-opacity="0.200000" points="487.16,-172.55 482.55,-175.52 484.68,-172.92 482.21,-173.29 482.21,-173.29 482.21,-173.29 484.68,-172.92 481.88,-171.07 487.16,-172.55 487.16,-172.55"/>
</g>
<!-- packages/UI/svg&#45;objects/src/octave/octave&#45;white&#45;key.ts -->
<g id="node21" class="node">
<title>packages/UI/svg&#45;objects/src/octave/octave&#45;white&#45;key.ts</title>
<g id="a_node21"><a xlink:href="packages/UI/svg-objects/src/octave/octave-white-key.ts" xlink:title="octave&#45;white&#45;key.ts">
<path fill="#ddfeff" stroke="black" d="M584,-204C584,-204 493,-204 493,-204 490,-204 487,-201 487,-198 487,-198 487,-192 487,-192 487,-189 490,-186 493,-186 493,-186 584,-186 584,-186 587,-186 590,-189 590,-192 590,-192 590,-198 590,-198 590,-201 587,-204 584,-204"/>
<text text-anchor="start" x="495" y="-192.8" font-family="Helvetica,sans-Serif" font-size="9.00">octave&#45;white&#45;key.ts</text>
</a>
</g>
</g>
<!-- packages/UI/svg&#45;objects/src/octave/octave&#45;key.ts&#45;&gt;packages/UI/svg&#45;objects/src/octave/octave&#45;white&#45;key.ts -->
<g id="edge32" class="edge">
<title>packages/UI/svg&#45;objects/src/octave/octave&#45;key.ts&#45;&gt;packages/UI/svg&#45;objects/src/octave/octave&#45;white&#45;key.ts</title>
<path fill="none" stroke="#000000" stroke-opacity="0.200000" d="M474.17,-185.5C476.62,-185.87 479.11,-186.24 481.63,-186.62"/>
<polygon fill="#000000" fill-opacity="0.200000" stroke="#000000" stroke-opacity="0.200000" points="486.81,-187.4 481.53,-188.88 484.34,-187.03 481.87,-186.65 481.87,-186.65 481.87,-186.65 484.34,-187.03 482.2,-184.43 486.81,-187.4 486.81,-187.4"/>
</g>
<!-- packages/UI/svg&#45;objects/src/octave/octave&#45;white&#45;key.ts&#45;&gt;packages/UI/view/dist/index.js -->
<g id="edge40" class="edge">
<title>packages/UI/svg&#45;objects/src/octave/octave&#45;white&#45;key.ts&#45;&gt;packages/UI/view/dist/index.js</title>
<path fill="none" stroke="#000000" stroke-opacity="0.200000" d="M551.7,-204.17C570.9,-218.61 606,-245 606,-245 606,-245 775,-245 775,-245 775,-245 797.46,-243.79 817.64,-242.7"/>
<polygon fill="#000000" fill-opacity="0.200000" stroke="#000000" stroke-opacity="0.200000" points="822.7,-242.42 817.83,-244.94 820.21,-242.56 817.71,-242.69 817.71,-242.69 817.71,-242.69 820.21,-242.56 817.59,-240.44 822.7,-242.42 822.7,-242.42"/>
</g>
<!-- packages/UI/svg&#45;objects/src/octave/octave&#45;white&#45;key.ts&#45;&gt;packages/UI/svg&#45;objects/src/components/index.ts -->
<g id="edge39" class="edge">
<title>packages/UI/svg&#45;objects/src/octave/octave&#45;white&#45;key.ts&#45;&gt;packages/UI/svg&#45;objects/src/components/index.ts</title>
<path fill="none" stroke="#000000" stroke-opacity="0.200000" d="M574.88,-185.93C587.2,-182.77 598,-180 598,-180 598,-180 615.05,-162.54 627.43,-149.87"/>
<polygon fill="#000000" fill-opacity="0.200000" stroke="#000000" stroke-opacity="0.200000" points="631.09,-146.12 629.21,-151.27 629.35,-147.91 627.6,-149.7 627.6,-149.7 627.6,-149.7 629.35,-147.91 625.99,-148.12 631.09,-146.12 631.09,-146.12"/>
</g>
</g>
</svg>
