<?xml version="1.0" encoding="UTF-8" standalone="no"?>
<!DOCTYPE svg PUBLIC "-//W3C//DTD SVG 1.1//EN"
 "http://www.w3.org/Graphics/SVG/1.1/DTD/svg11.dtd">
<!-- Generated by graphviz version 2.43.0 (0)
 -->
<!-- Title: dependency&#45;cruiser output Pages: 1 -->
<svg width="617pt" height="358pt"
 viewBox="0.00 0.00 617.00 358.00" xmlns="http://www.w3.org/2000/svg" xmlns:xlink="http://www.w3.org/1999/xlink">
<g id="graph0" class="graph" transform="scale(1 1) rotate(0) translate(4 354)">
<title>dependency&#45;cruiser output</title>
<polygon fill="white" stroke="transparent" points="-4,4 -4,-354 613,-354 613,4 -4,4"/>
<g id="clust1" class="cluster">
<title>cluster_node_modules</title>
<path fill="#ffffff" stroke="black" stroke-width="2" d="M124.5,-8C124.5,-8 190.5,-8 190.5,-8 196.5,-8 202.5,-14 202.5,-20 202.5,-20 202.5,-48 202.5,-48 202.5,-54 196.5,-60 190.5,-60 190.5,-60 124.5,-60 124.5,-60 118.5,-60 112.5,-54 112.5,-48 112.5,-48 112.5,-20 112.5,-20 112.5,-14 118.5,-8 124.5,-8"/>
<text text-anchor="middle" x="157.5" y="-48.8" font-family="Helvetica,sans-Serif" font-weight="bold" font-size="9.00">node_modules</text>
</g>
<g id="clust2" class="cluster">
<title>cluster_packages</title>
<path fill="#ffffff" stroke="black" stroke-width="2" d="M20,-94C20,-94 589,-94 589,-94 595,-94 601,-100 601,-106 601,-106 601,-330 601,-330 601,-336 595,-342 589,-342 589,-342 20,-342 20,-342 14,-342 8,-336 8,-330 8,-330 8,-106 8,-106 8,-100 14,-94 20,-94"/>
<text text-anchor="middle" x="304.5" y="-330.8" font-family="Helvetica,sans-Serif" font-weight="bold" font-size="9.00">packages</text>
</g>
<g id="clust3" class="cluster">
<title>cluster_packages/cli</title>
<path fill="#ffffff" stroke="black" stroke-width="2" d="M28,-102C28,-102 447,-102 447,-102 453,-102 459,-108 459,-114 459,-114 459,-304 459,-304 459,-310 453,-316 447,-316 447,-316 28,-316 28,-316 22,-316 16,-310 16,-304 16,-304 16,-114 16,-114 16,-108 22,-102 28,-102"/>
<text text-anchor="middle" x="237.5" y="-304.8" font-family="Helvetica,sans-Serif" font-weight="bold" font-size="9.00">cli</text>
</g>
<g id="clust4" class="cluster">
<title>cluster_packages/cli/post&#45;crepe</title>
<path fill="#ffffff" stroke="black" stroke-width="2" d="M36,-110C36,-110 439,-110 439,-110 445,-110 451,-116 451,-122 451,-122 451,-184 451,-184 451,-190 445,-196 439,-196 439,-196 36,-196 36,-196 30,-196 24,-190 24,-184 24,-184 24,-122 24,-122 24,-116 30,-110 36,-110"/>
<text text-anchor="middle" x="237.5" y="-184.8" font-family="Helvetica,sans-Serif" font-weight="bold" font-size="9.00">post&#45;crepe</text>
</g>
<g id="clust5" class="cluster">
<title>cluster_packages/cli/post&#45;crepe/src</title>
<path fill="#ffffff" stroke="black" stroke-width="2" d="M134,-118C134,-118 431,-118 431,-118 437,-118 443,-124 443,-130 443,-130 443,-158 443,-158 443,-164 437,-170 431,-170 431,-170 134,-170 134,-170 128,-170 122,-164 122,-158 122,-158 122,-130 122,-130 122,-124 128,-118 134,-118"/>
<text text-anchor="middle" x="282.5" y="-158.8" font-family="Helvetica,sans-Serif" font-weight="bold" font-size="9.00">src</text>
</g>
<g id="clust6" class="cluster">
<title>cluster_packages/cli/post&#45;f0&#45;util</title>
<path fill="#ffffff" stroke="black" stroke-width="2" d="M126,-204C126,-204 188,-204 188,-204 194,-204 200,-210 200,-216 200,-216 200,-278 200,-278 200,-284 194,-290 188,-290 188,-290 126,-290 126,-290 120,-290 114,-284 114,-278 114,-278 114,-216 114,-216 114,-210 120,-204 126,-204"/>
<text text-anchor="middle" x="157" y="-278.8" font-family="Helvetica,sans-Serif" font-weight="bold" font-size="9.00">post&#45;f0&#45;util</text>
</g>
<g id="clust7" class="cluster">
<title>cluster_packages/cli/post&#45;f0&#45;util/dist</title>
<path fill="#ffffff" stroke="black" stroke-width="2" d="M134,-212C134,-212 180,-212 180,-212 186,-212 192,-218 192,-224 192,-224 192,-252 192,-252 192,-258 186,-264 180,-264 180,-264 134,-264 134,-264 128,-264 122,-258 122,-252 122,-252 122,-224 122,-224 122,-218 128,-212 134,-212"/>
<text text-anchor="middle" x="157" y="-252.8" font-family="Helvetica,sans-Serif" font-weight="bold" font-size="9.00">dist</text>
</g>
<g id="clust8" class="cluster">
<title>cluster_packages/util</title>
<path fill="#ffffff" stroke="black" stroke-width="2" d="M479,-102C479,-102 581,-102 581,-102 587,-102 593,-108 593,-114 593,-114 593,-304 593,-304 593,-310 587,-316 581,-316 581,-316 479,-316 479,-316 473,-316 467,-310 467,-304 467,-304 467,-114 467,-114 467,-108 473,-102 479,-102"/>
<text text-anchor="middle" x="530" y="-304.8" font-family="Helvetica,sans-Serif" font-weight="bold" font-size="9.00">util</text>
</g>
<g id="clust9" class="cluster">
<title>cluster_packages/util/math</title>
<path fill="#ffffff" stroke="black" stroke-width="2" d="M487,-110C487,-110 573,-110 573,-110 579,-110 585,-116 585,-122 585,-122 585,-278 585,-278 585,-284 579,-290 573,-290 573,-290 487,-290 487,-290 481,-290 475,-284 475,-278 475,-278 475,-122 475,-122 475,-116 481,-110 487,-110"/>
<text text-anchor="middle" x="530" y="-278.8" font-family="Helvetica,sans-Serif" font-weight="bold" font-size="9.00">math</text>
</g>
<g id="clust10" class="cluster">
<title>cluster_packages/util/math/src</title>
<path fill="#ffffff" stroke="black" stroke-width="2" d="M495,-118C495,-118 565,-118 565,-118 571,-118 577,-124 577,-130 577,-130 577,-252 577,-252 577,-258 571,-264 565,-264 565,-264 495,-264 495,-264 489,-264 483,-258 483,-252 483,-252 483,-130 483,-130 483,-124 489,-118 495,-118"/>
<text text-anchor="middle" x="530" y="-252.8" font-family="Helvetica,sans-Serif" font-weight="bold" font-size="9.00">src</text>
</g>
<g id="clust11" class="cluster">
<title>cluster_packages/util/math/src/array</title>
<path fill="#ffffff" stroke="black" stroke-width="2" d="M507,-186C507,-186 553,-186 553,-186 559,-186 565,-192 565,-198 565,-198 565,-226 565,-226 565,-232 559,-238 553,-238 553,-238 507,-238 507,-238 501,-238 495,-232 495,-226 495,-226 495,-198 495,-198 495,-192 501,-186 507,-186"/>
<text text-anchor="middle" x="530" y="-226.8" font-family="Helvetica,sans-Serif" font-weight="bold" font-size="9.00">array</text>
</g>
<g id="clust12" class="cluster">
<title>cluster_packages/util/math/src/stochastic</title>
<path fill="#ffffff" stroke="black" stroke-width="2" d="M503,-126C503,-126 557,-126 557,-126 563,-126 569,-132 569,-138 569,-138 569,-166 569,-166 569,-172 563,-178 557,-178 557,-178 503,-178 503,-178 497,-178 491,-172 491,-166 491,-166 491,-138 491,-138 491,-132 497,-126 503,-126"/>
<text text-anchor="middle" x="530" y="-166.8" font-family="Helvetica,sans-Serif" font-weight="bold" font-size="9.00">stochastic</text>
</g>
<!-- fs -->
<g id="node1" class="node">
<title>fs</title>
<g id="a_node1"><a xlink:href="https://nodejs.org/api/fs.html" xlink:title="fs">
<path fill="#ffffcc" stroke="grey" d="M178,-86C178,-86 136,-86 136,-86 133,-86 130,-83 130,-80 130,-80 130,-74 130,-74 130,-71 133,-68 136,-68 136,-68 178,-68 178,-68 181,-68 184,-71 184,-74 184,-74 184,-80 184,-80 184,-83 181,-86 178,-86"/>
<text text-anchor="middle" x="157" y="-74.8" font-family="Helvetica,sans-Serif" font-size="9.00" fill="grey">fs</text>
</a>
</g>
</g>
<!-- node_modules/csv&#45;parse -->
<g id="node2" class="node">
<title>node_modules/csv&#45;parse</title>
<g id="a_node2"><a xlink:href="https://www.npmjs.com/package/csv-parse" xlink:title="csv&#45;parse">
<polygon fill="#c40b0a" fill-opacity="0.101961" stroke="black" points="186.5,-34 129.5,-34 127.5,-32 127.5,-16 184.5,-16 186.5,-18 186.5,-34"/>
<polyline fill="none" stroke="black" points="184.5,-32 127.5,-32 "/>
<polyline fill="none" stroke="black" points="184.5,-32 184.5,-16 "/>
<polyline fill="none" stroke="black" points="184.5,-32 186.5,-34 "/>
<text text-anchor="start" x="135.5" y="-22.8" font-family="Helvetica,sans-Serif" font-size="9.00" fill="#c40b0a">csv&#45;parse</text>
</a>
</g>
</g>
<!-- packages/cli/post&#45;crepe/index.test.ts -->
<g id="node3" class="node">
<title>packages/cli/post&#45;crepe/index.test.ts</title>
<g id="a_node3"><a xlink:href="packages/cli/post-crepe/index.test.ts" xlink:title="no&#45;orphans">
<path fill="#ccffcc" stroke="orange" d="M99,-169C99,-169 38,-169 38,-169 35,-169 32,-166 32,-163 32,-163 32,-157 32,-157 32,-154 35,-151 38,-151 38,-151 99,-151 99,-151 102,-151 105,-154 105,-157 105,-157 105,-163 105,-163 105,-166 102,-169 99,-169"/>
<text text-anchor="start" x="40" y="-157.8" font-family="Helvetica,sans-Serif" font-size="9.00" fill="orange">index.test.ts</text>
</a>
</g>
</g>
<!-- packages/cli/post&#45;crepe/index.ts -->
<g id="node4" class="node">
<title>packages/cli/post&#45;crepe/index.ts</title>
<g id="a_node4"><a xlink:href="packages/cli/post-crepe/index.ts" xlink:title="index.ts">
<path fill="#ddfeff" stroke="black" d="M89.5,-138C89.5,-138 47.5,-138 47.5,-138 44.5,-138 41.5,-135 41.5,-132 41.5,-132 41.5,-126 41.5,-126 41.5,-123 44.5,-120 47.5,-120 47.5,-120 89.5,-120 89.5,-120 92.5,-120 95.5,-123 95.5,-126 95.5,-126 95.5,-132 95.5,-132 95.5,-135 92.5,-138 89.5,-138"/>
<text text-anchor="start" x="50" y="-126.8" font-family="Helvetica,sans-Serif" font-size="9.00">index.ts</text>
</a>
</g>
</g>
<!-- packages/cli/post&#45;crepe/index.ts&#45;&gt;fs -->
<g id="edge4" class="edge">
<title>packages/cli/post&#45;crepe/index.ts&#45;&gt;fs</title>
<path fill="none" stroke="#000000" stroke-dasharray="5,2" stroke-opacity="0.200000" d="M84.57,-119.94C98.62,-111.49 119.71,-98.82 135.33,-89.43"/>
<polygon fill="#000000" fill-opacity="0.200000" stroke="#000000" stroke-opacity="0.200000" points="136.75,-91.02 140.82,-86.13 134.59,-87.42 136.75,-91.02"/>
</g>
<!-- packages/cli/post&#45;crepe/index.ts&#45;&gt;node_modules/csv&#45;parse -->
<g id="edge3" class="edge">
<title>packages/cli/post&#45;crepe/index.ts&#45;&gt;node_modules/csv&#45;parse</title>
<path fill="none" stroke="#000000" stroke-opacity="0.200000" d="M77.18,-119.77C92.41,-101.45 126.54,-60.42 144.48,-38.85"/>
<polygon fill="#000000" fill-opacity="0.200000" stroke="#000000" stroke-opacity="0.200000" points="146.24,-40.02 148.46,-34.06 143.01,-37.33 146.24,-40.02"/>
</g>
<!-- packages/cli/post&#45;crepe/src/index.ts -->
<g id="node5" class="node">
<title>packages/cli/post&#45;crepe/src/index.ts</title>
<g id="a_node5"><a xlink:href="packages/cli/post-crepe/src/index.ts" xlink:title="index.ts">
<path fill="#ddfeff" stroke="black" d="M178,-144C178,-144 136,-144 136,-144 133,-144 130,-141 130,-138 130,-138 130,-132 130,-132 130,-129 133,-126 136,-126 136,-126 178,-126 178,-126 181,-126 184,-129 184,-132 184,-132 184,-138 184,-138 184,-141 181,-144 178,-144"/>
<text text-anchor="start" x="138.5" y="-132.8" font-family="Helvetica,sans-Serif" font-size="9.00">index.ts</text>
</a>
</g>
</g>
<!-- packages/cli/post&#45;crepe/index.ts&#45;&gt;packages/cli/post&#45;crepe/src/index.ts -->
<g id="edge1" class="edge">
<title>packages/cli/post&#45;crepe/index.ts&#45;&gt;packages/cli/post&#45;crepe/src/index.ts</title>
<path fill="none" stroke="#000000" stroke-width="2" stroke-opacity="0.200000" d="M95.92,-130.83C104.64,-131.44 114.44,-132.12 123.56,-132.75"/>
<polygon fill="#000000" fill-opacity="0.200000" stroke="#000000" stroke-width="2" stroke-opacity="0.200000" points="123.61,-134.86 129.74,-133.18 123.9,-130.67 123.61,-134.86"/>
</g>
<!-- packages/cli/post&#45;f0&#45;util/dist/index.js -->
<g id="node6" class="node">
<title>packages/cli/post&#45;f0&#45;util/dist/index.js</title>
<g id="a_node6"><a xlink:href="packages/cli/post-f0-util/dist/index.js" xlink:title="index.js">
<polygon fill="#ffffcc" stroke="black" points="184,-238 182.5,-240 172,-240 170.5,-238 130,-238 130,-220 184,-220 184,-238"/>
<text text-anchor="start" x="139.5" y="-226.8" font-family="Helvetica,sans-Serif" font-size="9.00">index.js</text>
</a>
</g>
</g>
<!-- packages/cli/post&#45;crepe/index.ts&#45;&gt;packages/cli/post&#45;f0&#45;util/dist/index.js -->
<g id="edge2" class="edge">
<title>packages/cli/post&#45;crepe/index.ts&#45;&gt;packages/cli/post&#45;f0&#45;util/dist/index.js</title>
<path fill="none" stroke="#000000" stroke-width="2" stroke-opacity="0.200000" d="M77.48,-138.23C92.74,-155.87 126.11,-194.44 144.04,-215.17"/>
<polygon fill="#000000" fill-opacity="0.200000" stroke="#000000" stroke-width="2" stroke-opacity="0.200000" points="142.52,-216.63 148.04,-219.79 145.7,-213.88 142.52,-216.63"/>
</g>
<!-- packages/cli/post&#45;crepe/src/get&#45;median&#45;frequency.ts -->
<g id="node7" class="node">
<title>packages/cli/post&#45;crepe/src/get&#45;median&#45;frequency.ts</title>
<g id="a_node7"><a xlink:href="packages/cli/post-crepe/src/get-median-frequency.ts" xlink:title="get&#45;median&#45;frequency.ts">
<path fill="#ddfeff" stroke="black" d="M331,-144C331,-144 216,-144 216,-144 213,-144 210,-141 210,-138 210,-138 210,-132 210,-132 210,-129 213,-126 216,-126 216,-126 331,-126 331,-126 334,-126 337,-129 337,-132 337,-132 337,-138 337,-138 337,-141 334,-144 331,-144"/>
<text text-anchor="start" x="218" y="-132.8" font-family="Helvetica,sans-Serif" font-size="9.00">get&#45;median&#45;frequency.ts</text>
</a>
</g>
</g>
<!-- packages/cli/post&#45;crepe/src/index.ts&#45;&gt;packages/cli/post&#45;crepe/src/get&#45;median&#45;frequency.ts -->
<g id="edge7" class="edge">
<title>packages/cli/post&#45;crepe/src/index.ts&#45;&gt;packages/cli/post&#45;crepe/src/get&#45;median&#45;frequency.ts</title>
<path fill="none" stroke="#000000" stroke-width="2" stroke-opacity="0.200000" d="M184.27,-135C190.13,-135 196.62,-135 203.33,-135"/>
<polygon fill="#000000" fill-opacity="0.200000" stroke="#000000" stroke-width="2" stroke-opacity="0.200000" points="209.55,-137.1 203.55,-135 209.55,-132.9 209.55,-137.1"/>
</g>
<!-- packages/cli/post&#45;crepe/src/median&#45;filter.ts -->
<g id="node8" class="node">
<title>packages/cli/post&#45;crepe/src/median&#45;filter.ts</title>
<g id="a_node8"><a xlink:href="packages/cli/post-crepe/src/median-filter.ts" xlink:title="median&#45;filter.ts">
<path fill="#ddfeff" stroke="black" d="M429,-144C429,-144 356,-144 356,-144 353,-144 350,-141 350,-138 350,-138 350,-132 350,-132 350,-129 353,-126 356,-126 356,-126 429,-126 429,-126 432,-126 435,-129 435,-132 435,-132 435,-138 435,-138 435,-141 432,-144 429,-144"/>
<text text-anchor="start" x="358" y="-132.8" font-family="Helvetica,sans-Serif" font-size="9.00">median&#45;filter.ts</text>
</a>
</g>
</g>
<!-- packages/cli/post&#45;crepe/src/get&#45;median&#45;frequency.ts&#45;&gt;packages/cli/post&#45;crepe/src/median&#45;filter.ts -->
<g id="edge5" class="edge">
<title>packages/cli/post&#45;crepe/src/get&#45;median&#45;frequency.ts&#45;&gt;packages/cli/post&#45;crepe/src/median&#45;filter.ts</title>
<path fill="none" stroke="#000000" stroke-width="2" stroke-opacity="0.200000" d="M337.11,-135C339.28,-135 341.45,-135 343.6,-135"/>
<polygon fill="#000000" fill-opacity="0.200000" stroke="#000000" stroke-width="2" stroke-opacity="0.200000" points="343.96,-137.1 349.96,-135 343.96,-132.9 343.96,-137.1"/>
</g>
<!-- packages/util/math/src/array/range.ts -->
<g id="node9" class="node">
<title>packages/util/math/src/array/range.ts</title>
<g id="a_node9"><a xlink:href="packages/util/math/src/array/range.ts" xlink:title="range.ts">
<path fill="#ddfeff" stroke="black" d="M551,-212C551,-212 509,-212 509,-212 506,-212 503,-209 503,-206 503,-206 503,-200 503,-200 503,-197 506,-194 509,-194 509,-194 551,-194 551,-194 554,-194 557,-197 557,-200 557,-200 557,-206 557,-206 557,-209 554,-212 551,-212"/>
<text text-anchor="start" x="511" y="-200.8" font-family="Helvetica,sans-Serif" font-size="9.00">range.ts</text>
</a>
</g>
</g>
<!-- packages/cli/post&#45;crepe/src/get&#45;median&#45;frequency.ts&#45;&gt;packages/util/math/src/array/range.ts -->
<g id="edge6" class="edge">
<title>packages/cli/post&#45;crepe/src/get&#45;median&#45;frequency.ts&#45;&gt;packages/util/math/src/array/range.ts</title>
<path fill="none" stroke="#000000" stroke-width="2" stroke-opacity="0.200000" d="M307.56,-144.03C356.96,-157.13 447.91,-181.24 496.81,-194.2"/>
<polygon fill="#000000" fill-opacity="0.200000" stroke="#000000" stroke-width="2" stroke-opacity="0.200000" points="496.51,-196.3 502.85,-195.8 497.59,-192.24 496.51,-196.3"/>
</g>
<!-- packages/util/math/src/stochastic/median.ts -->
<g id="node10" class="node">
<title>packages/util/math/src/stochastic/median.ts</title>
<g id="a_node10"><a xlink:href="packages/util/math/src/stochastic/median.ts" xlink:title="median.ts">
<path fill="#ddfeff" stroke="black" d="M555,-152C555,-152 505,-152 505,-152 502,-152 499,-149 499,-146 499,-146 499,-140 499,-140 499,-137 502,-134 505,-134 505,-134 555,-134 555,-134 558,-134 561,-137 561,-140 561,-140 561,-146 561,-146 561,-149 558,-152 555,-152"/>
<text text-anchor="start" x="507" y="-140.8" font-family="Helvetica,sans-Serif" font-size="9.00">median.ts</text>
</a>
</g>
</g>
<!-- packages/cli/post&#45;crepe/src/median&#45;filter.ts&#45;&gt;packages/util/math/src/stochastic/median.ts -->
<g id="edge8" class="edge">
<title>packages/cli/post&#45;crepe/src/median&#45;filter.ts&#45;&gt;packages/util/math/src/stochastic/median.ts</title>
<path fill="none" stroke="#000000" stroke-width="2" stroke-opacity="0.200000" d="M435.26,-137.47C453.54,-138.54 474.8,-139.8 492.45,-140.84"/>
<polygon fill="#000000" fill-opacity="0.200000" stroke="#000000" stroke-width="2" stroke-opacity="0.200000" points="492.66,-142.96 498.78,-141.22 492.91,-138.77 492.66,-142.96"/>
</g>
</g>
</svg>
