<?xml version="1.0" encoding="UTF-8" standalone="no"?>
<!DOCTYPE svg PUBLIC "-//W3C//DTD SVG 1.1//EN"
 "http://www.w3.org/Graphics/SVG/1.1/DTD/svg11.dtd">
<!-- Generated by graphviz version 2.43.0 (0)
 -->
<!-- Title: dependency&#45;cruiser output Pages: 1 -->
<svg width="687pt" height="448pt"
 viewBox="0.00 0.00 687.00 448.00" xmlns="http://www.w3.org/2000/svg" xmlns:xlink="http://www.w3.org/1999/xlink">
<g id="graph0" class="graph" transform="scale(1 1) rotate(0) translate(4 444)">
<title>dependency&#45;cruiser output</title>
<polygon fill="white" stroke="transparent" points="-4,4 -4,-444 683,-444 683,4 -4,4"/>
<g id="clust1" class="cluster">
<title>cluster_node_modules</title>
<path fill="#ffffff" stroke="black" stroke-width="2" d="M241,-8C241,-8 307,-8 307,-8 313,-8 319,-14 319,-20 319,-20 319,-78 319,-78 319,-84 313,-90 307,-90 307,-90 241,-90 241,-90 235,-90 229,-84 229,-78 229,-78 229,-20 229,-20 229,-14 235,-8 241,-8"/>
<text text-anchor="middle" x="274" y="-78.8" font-family="Helvetica,sans-Serif" font-weight="bold" font-size="9.00">node_modules</text>
</g>
<g id="clust2" class="cluster">
<title>cluster_packages</title>
<path fill="#ffffff" stroke="black" stroke-width="2" d="M20,-98C20,-98 659,-98 659,-98 665,-98 671,-104 671,-110 671,-110 671,-420 671,-420 671,-426 665,-432 659,-432 659,-432 20,-432 20,-432 14,-432 8,-426 8,-420 8,-420 8,-110 8,-110 8,-104 14,-98 20,-98"/>
<text text-anchor="middle" x="339.5" y="-420.8" font-family="Helvetica,sans-Serif" font-weight="bold" font-size="9.00">packages</text>
</g>
<g id="clust3" class="cluster">
<title>cluster_packages/cli</title>
<path fill="#ffffff" stroke="black" stroke-width="2" d="M28,-106C28,-106 447,-106 447,-106 453,-106 459,-112 459,-118 459,-118 459,-394 459,-394 459,-400 453,-406 447,-406 447,-406 28,-406 28,-406 22,-406 16,-400 16,-394 16,-394 16,-118 16,-118 16,-112 22,-106 28,-106"/>
<text text-anchor="middle" x="237.5" y="-394.8" font-family="Helvetica,sans-Serif" font-weight="bold" font-size="9.00">cli</text>
</g>
<g id="clust4" class="cluster">
<title>cluster_packages/cli/post&#45;crepe</title>
<path fill="#ffffff" stroke="black" stroke-width="2" d="M36,-208C36,-208 439,-208 439,-208 445,-208 451,-214 451,-220 451,-220 451,-368 451,-368 451,-374 445,-380 439,-380 439,-380 36,-380 36,-380 30,-380 24,-374 24,-368 24,-368 24,-220 24,-220 24,-214 30,-208 36,-208"/>
<text text-anchor="middle" x="237.5" y="-368.8" font-family="Helvetica,sans-Serif" font-weight="bold" font-size="9.00">post&#45;crepe</text>
</g>
<g id="clust5" class="cluster">
<title>cluster_packages/cli/post&#45;crepe/dist</title>
<path fill="#ffffff" stroke="black" stroke-width="2" d="M44,-272C44,-272 96,-272 96,-272 102,-272 108,-278 108,-284 108,-284 108,-342 108,-342 108,-348 102,-354 96,-354 96,-354 44,-354 44,-354 38,-354 32,-348 32,-342 32,-342 32,-284 32,-284 32,-278 38,-272 44,-272"/>
<text text-anchor="middle" x="70" y="-342.8" font-family="Helvetica,sans-Serif" font-weight="bold" font-size="9.00">dist</text>
</g>
<g id="clust6" class="cluster">
<title>cluster_packages/cli/post&#45;crepe/src</title>
<path fill="#ffffff" stroke="black" stroke-width="2" d="M136,-228C136,-228 431,-228 431,-228 437,-228 443,-234 443,-240 443,-240 443,-268 443,-268 443,-274 437,-280 431,-280 431,-280 136,-280 136,-280 130,-280 124,-274 124,-268 124,-268 124,-240 124,-240 124,-234 130,-228 136,-228"/>
<text text-anchor="middle" x="283.5" y="-268.8" font-family="Helvetica,sans-Serif" font-weight="bold" font-size="9.00">src</text>
</g>
<g id="clust7" class="cluster">
<title>cluster_packages/cli/post&#45;f0&#45;util</title>
<path fill="#ffffff" stroke="black" stroke-width="2" d="M128,-114C128,-114 190,-114 190,-114 196,-114 202,-120 202,-126 202,-126 202,-188 202,-188 202,-194 196,-200 190,-200 190,-200 128,-200 128,-200 122,-200 116,-194 116,-188 116,-188 116,-126 116,-126 116,-120 122,-114 128,-114"/>
<text text-anchor="middle" x="159" y="-188.8" font-family="Helvetica,sans-Serif" font-weight="bold" font-size="9.00">post&#45;f0&#45;util</text>
</g>
<g id="clust8" class="cluster">
<title>cluster_packages/cli/post&#45;f0&#45;util/dist</title>
<path fill="#ffffff" stroke="black" stroke-width="2" d="M136,-122C136,-122 182,-122 182,-122 188,-122 194,-128 194,-134 194,-134 194,-162 194,-162 194,-168 188,-174 182,-174 182,-174 136,-174 136,-174 130,-174 124,-168 124,-162 124,-162 124,-134 124,-134 124,-128 130,-122 136,-122"/>
<text text-anchor="middle" x="159" y="-162.8" font-family="Helvetica,sans-Serif" font-weight="bold" font-size="9.00">dist</text>
</g>
<g id="clust9" class="cluster">
<title>cluster_packages/util</title>
<path fill="#ffffff" stroke="black" stroke-width="2" d="M479,-247C479,-247 651,-247 651,-247 657,-247 663,-253 663,-259 663,-259 663,-355 663,-355 663,-361 657,-367 651,-367 651,-367 479,-367 479,-367 473,-367 467,-361 467,-355 467,-355 467,-259 467,-259 467,-253 473,-247 479,-247"/>
<text text-anchor="middle" x="565" y="-355.8" font-family="Helvetica,sans-Serif" font-weight="bold" font-size="9.00">util</text>
</g>
<g id="clust10" class="cluster">
<title>cluster_packages/util/math</title>
<path fill="#ffffff" stroke="black" stroke-width="2" d="M487,-255C487,-255 549,-255 549,-255 555,-255 561,-261 561,-267 561,-267 561,-329 561,-329 561,-335 555,-341 549,-341 549,-341 487,-341 487,-341 481,-341 475,-335 475,-329 475,-329 475,-267 475,-267 475,-261 481,-255 487,-255"/>
<text text-anchor="middle" x="518" y="-329.8" font-family="Helvetica,sans-Serif" font-weight="bold" font-size="9.00">math</text>
</g>
<g id="clust11" class="cluster">
<title>cluster_packages/util/math/dist</title>
<path fill="#ffffff" stroke="black" stroke-width="2" d="M495,-263C495,-263 541,-263 541,-263 547,-263 553,-269 553,-275 553,-275 553,-303 553,-303 553,-309 547,-315 541,-315 541,-315 495,-315 495,-315 489,-315 483,-309 483,-303 483,-303 483,-275 483,-275 483,-269 489,-263 495,-263"/>
<text text-anchor="middle" x="518" y="-303.8" font-family="Helvetica,sans-Serif" font-weight="bold" font-size="9.00">dist</text>
</g>
<g id="clust12" class="cluster">
<title>cluster_packages/util/stdlib</title>
<path fill="#ffffff" stroke="black" stroke-width="2" d="M581,-255C581,-255 643,-255 643,-255 649,-255 655,-261 655,-267 655,-267 655,-329 655,-329 655,-335 649,-341 643,-341 643,-341 581,-341 581,-341 575,-341 569,-335 569,-329 569,-329 569,-267 569,-267 569,-261 575,-255 581,-255"/>
<text text-anchor="middle" x="612" y="-329.8" font-family="Helvetica,sans-Serif" font-weight="bold" font-size="9.00">stdlib</text>
</g>
<g id="clust13" class="cluster">
<title>cluster_packages/util/stdlib/dist</title>
<path fill="#ffffff" stroke="black" stroke-width="2" d="M589,-263C589,-263 635,-263 635,-263 641,-263 647,-269 647,-275 647,-275 647,-303 647,-303 647,-309 641,-315 635,-315 635,-315 589,-315 589,-315 583,-315 577,-309 577,-303 577,-303 577,-275 577,-275 577,-269 583,-263 589,-263"/>
<text text-anchor="middle" x="612" y="-303.8" font-family="Helvetica,sans-Serif" font-weight="bold" font-size="9.00">dist</text>
</g>
<!-- fs -->
<g id="node1" class="node">
<title>fs</title>
<g id="a_node1"><a xlink:href="https://nodejs.org/api/fs.html" xlink:title="fs">
<path fill="#ffffcc" stroke="grey" d="M180,-54C180,-54 138,-54 138,-54 135,-54 132,-51 132,-48 132,-48 132,-42 132,-42 132,-39 135,-36 138,-36 138,-36 180,-36 180,-36 183,-36 186,-39 186,-42 186,-42 186,-48 186,-48 186,-51 183,-54 180,-54"/>
<text text-anchor="middle" x="159" y="-42.8" font-family="Helvetica,sans-Serif" font-size="9.00" fill="grey">fs</text>
</a>
</g>
</g>
<!-- node_modules/csv&#45;parse -->
<g id="node2" class="node">
<title>node_modules/csv&#45;parse</title>
<g id="a_node2"><a xlink:href="https://www.npmjs.com/package/csv-parse" xlink:title="csv&#45;parse">
<polygon fill="#c40b0a" fill-opacity="0.101961" stroke="black" points="303,-34 246,-34 244,-32 244,-16 301,-16 303,-18 303,-34"/>
<polyline fill="none" stroke="black" points="301,-32 244,-32 "/>
<polyline fill="none" stroke="black" points="301,-32 301,-16 "/>
<polyline fill="none" stroke="black" points="301,-32 303,-34 "/>
<text text-anchor="start" x="252" y="-22.8" font-family="Helvetica,sans-Serif" font-size="9.00" fill="#c40b0a">csv&#45;parse</text>
</a>
</g>
</g>
<!-- node_modules/wavefile -->
<g id="node3" class="node">
<title>node_modules/wavefile</title>
<g id="a_node3"><a xlink:href="https://www.npmjs.com/package/wavefile" xlink:title="wavefile">
<polygon fill="#c40b0a" fill-opacity="0.101961" stroke="black" points="300.5,-64 248.5,-64 246.5,-62 246.5,-46 298.5,-46 300.5,-48 300.5,-64"/>
<polyline fill="none" stroke="black" points="298.5,-62 246.5,-62 "/>
<polyline fill="none" stroke="black" points="298.5,-62 298.5,-46 "/>
<polyline fill="none" stroke="black" points="298.5,-62 300.5,-64 "/>
<text text-anchor="start" x="255" y="-52.8" font-family="Helvetica,sans-Serif" font-size="9.00" fill="#c40b0a">wavefile</text>
</a>
</g>
</g>
<!-- packages/cli/post&#45;crepe/dist/index.js -->
<g id="node4" class="node">
<title>packages/cli/post&#45;crepe/dist/index.js</title>
<g id="a_node4"><a xlink:href="packages/cli/post-crepe/dist/index.js" xlink:title="index.js">
<path fill="#ffffcc" stroke="black" d="M91,-298C91,-298 49,-298 49,-298 46,-298 43,-295 43,-292 43,-292 43,-286 43,-286 43,-283 46,-280 49,-280 49,-280 91,-280 91,-280 94,-280 97,-283 97,-286 97,-286 97,-292 97,-292 97,-295 94,-298 91,-298"/>
<text text-anchor="start" x="52.5" y="-286.8" font-family="Helvetica,sans-Serif" font-size="9.00">index.js</text>
</a>
</g>
</g>
<!-- packages/cli/post&#45;crepe/dist/index.js&#45;&gt;fs -->
<g id="edge4" class="edge">
<title>packages/cli/post&#45;crepe/dist/index.js&#45;&gt;fs</title>
<path fill="none" stroke="#000000" stroke-dasharray="5,2" stroke-opacity="0.200000" d="M97.11,-284.29C101.35,-282.39 105.25,-279.73 108,-276 122.05,-256.94 102.59,-82.52 116,-63 118.59,-59.22 122.15,-56.23 126.11,-53.87"/>
<polygon fill="#000000" fill-opacity="0.200000" stroke="#000000" stroke-opacity="0.200000" points="127.32,-55.61 131.71,-51.02 125.41,-51.87 127.32,-55.61"/>
</g>
<!-- packages/cli/post&#45;crepe/dist/index.js&#45;&gt;node_modules/csv&#45;parse -->
<g id="edge3" class="edge">
<title>packages/cli/post&#45;crepe/dist/index.js&#45;&gt;node_modules/csv&#45;parse</title>
<path fill="none" stroke="#000000" stroke-opacity="0.200000" d="M97.09,-284.28C101.34,-282.38 105.24,-279.72 108,-276 120.38,-259.29 103.51,-105.63 116,-89 140.22,-56.75 172.7,-87.72 202,-60 208.95,-53.42 202.76,-46.26 210,-40 217.69,-33.35 227.82,-29.54 237.68,-27.38"/>
<polygon fill="#000000" fill-opacity="0.200000" stroke="#000000" stroke-opacity="0.200000" points="238.25,-29.41 243.76,-26.24 237.48,-25.28 238.25,-29.41"/>
</g>
<!-- packages/util/math/dist/index.js -->
<g id="node5" class="node">
<title>packages/util/math/dist/index.js</title>
<g id="a_node5"><a xlink:href="packages/util/math/dist/index.js" xlink:title="index.js">
<path fill="#ffffcc" stroke="black" d="M539,-289C539,-289 497,-289 497,-289 494,-289 491,-286 491,-283 491,-283 491,-277 491,-277 491,-274 494,-271 497,-271 497,-271 539,-271 539,-271 542,-271 545,-274 545,-277 545,-277 545,-283 545,-283 545,-286 542,-289 539,-289"/>
<text text-anchor="start" x="500.5" y="-277.8" font-family="Helvetica,sans-Serif" font-size="9.00">index.js</text>
</a>
</g>
</g>
<!-- packages/cli/post&#45;crepe/dist/index.js&#45;&gt;packages/util/math/dist/index.js -->
<g id="edge1" class="edge">
<title>packages/cli/post&#45;crepe/dist/index.js&#45;&gt;packages/util/math/dist/index.js</title>
<path fill="none" stroke="#000000" stroke-width="2" stroke-opacity="0.200000" d="M97.35,-288.92C160.04,-288.66 322.99,-287.57 459,-283 467.27,-282.72 476.2,-282.31 484.52,-281.89"/>
<polygon fill="#000000" fill-opacity="0.200000" stroke="#000000" stroke-width="2" stroke-opacity="0.200000" points="484.85,-283.97 490.73,-281.56 484.63,-279.78 484.85,-283.97"/>
</g>
<!-- packages/cli/post&#45;f0&#45;util/dist/index.js -->
<g id="node6" class="node">
<title>packages/cli/post&#45;f0&#45;util/dist/index.js</title>
<g id="a_node6"><a xlink:href="packages/cli/post-f0-util/dist/index.js" xlink:title="index.js">
<path fill="#ffffcc" stroke="black" d="M180,-148C180,-148 138,-148 138,-148 135,-148 132,-145 132,-142 132,-142 132,-136 132,-136 132,-133 135,-130 138,-130 138,-130 180,-130 180,-130 183,-130 186,-133 186,-136 186,-136 186,-142 186,-142 186,-145 183,-148 180,-148"/>
<text text-anchor="start" x="141.5" y="-136.8" font-family="Helvetica,sans-Serif" font-size="9.00">index.js</text>
</a>
</g>
</g>
<!-- packages/cli/post&#45;crepe/dist/index.js&#45;&gt;packages/cli/post&#45;f0&#45;util/dist/index.js -->
<g id="edge2" class="edge">
<title>packages/cli/post&#45;crepe/dist/index.js&#45;&gt;packages/cli/post&#45;f0&#45;util/dist/index.js</title>
<path fill="none" stroke="#000000" stroke-width="2" stroke-opacity="0.200000" d="M97.14,-283.85C101.27,-281.99 105.12,-279.45 108,-276 122.68,-258.37 109.11,-246.89 116,-225 124.26,-198.74 139.42,-170.46 149.09,-153.76"/>
<polygon fill="#000000" fill-opacity="0.200000" stroke="#000000" stroke-width="2" stroke-opacity="0.200000" points="151.15,-154.4 152.38,-148.16 147.53,-152.27 151.15,-154.4"/>
</g>
<!-- packages/util/stdlib/dist/index.js -->
<g id="node13" class="node">
<title>packages/util/stdlib/dist/index.js</title>
<g id="a_node13"><a xlink:href="packages/util/stdlib/dist/index.js" xlink:title="index.js">
<path fill="#ffffcc" stroke="black" d="M633,-289C633,-289 591,-289 591,-289 588,-289 585,-286 585,-283 585,-283 585,-277 585,-277 585,-274 588,-271 591,-271 591,-271 633,-271 633,-271 636,-271 639,-274 639,-277 639,-277 639,-283 639,-283 639,-286 636,-289 633,-289"/>
<text text-anchor="start" x="594.5" y="-277.8" font-family="Helvetica,sans-Serif" font-size="9.00">index.js</text>
</a>
</g>
</g>
<!-- packages/util/math/dist/index.js&#45;&gt;packages/util/stdlib/dist/index.js -->
<g id="edge18" class="edge">
<title>packages/util/math/dist/index.js&#45;&gt;packages/util/stdlib/dist/index.js</title>
<path fill="none" stroke="#000000" stroke-width="2" stroke-opacity="0.200000" d="M545.12,-280C555.51,-280 567.58,-280 578.52,-280"/>
<polygon fill="#000000" fill-opacity="0.200000" stroke="#000000" stroke-width="2" stroke-opacity="0.200000" points="578.82,-282.1 584.82,-280 578.82,-277.9 578.82,-282.1"/>
</g>
<!-- packages/cli/post&#45;f0&#45;util/dist/index.js&#45;&gt;node_modules/wavefile -->
<g id="edge17" class="edge">
<title>packages/cli/post&#45;f0&#45;util/dist/index.js&#45;&gt;node_modules/wavefile</title>
<path fill="none" stroke="#000000" stroke-opacity="0.200000" d="M172.95,-129.92C181.29,-124.03 192.35,-116.14 202,-109 220.55,-95.28 241.5,-79.15 255.7,-68.12"/>
<polygon fill="#000000" fill-opacity="0.200000" stroke="#000000" stroke-opacity="0.200000" points="257.17,-69.64 260.62,-64.29 254.59,-66.32 257.17,-69.64"/>
</g>
<!-- packages/cli/post&#45;crepe/dist/index.mjs -->
<g id="node7" class="node">
<title>packages/cli/post&#45;crepe/dist/index.mjs</title>
<g id="a_node7"><a xlink:href="packages/cli/post-crepe/dist/index.mjs" xlink:title="index.mjs">
<path fill="#ffffcc" stroke="black" d="M94,-328C94,-328 46,-328 46,-328 43,-328 40,-325 40,-322 40,-322 40,-316 40,-316 40,-313 43,-310 46,-310 46,-310 94,-310 94,-310 97,-310 100,-313 100,-316 100,-316 100,-322 100,-322 100,-325 97,-328 94,-328"/>
<text text-anchor="start" x="48" y="-316.8" font-family="Helvetica,sans-Serif" font-size="9.00">index.mjs</text>
</a>
</g>
</g>
<!-- packages/cli/post&#45;crepe/dist/index.mjs&#45;&gt;fs -->
<g id="edge8" class="edge">
<title>packages/cli/post&#45;crepe/dist/index.mjs&#45;&gt;fs</title>
<path fill="none" stroke="#000000" stroke-dasharray="5,2" stroke-opacity="0.200000" d="M100.1,-311.23C103.18,-309.32 105.93,-306.95 108,-304 121.72,-284.43 106.7,-111.02 116,-89 121.13,-76.85 131.25,-66.09 140.27,-58.24"/>
<polygon fill="#000000" fill-opacity="0.200000" stroke="#000000" stroke-opacity="0.200000" points="141.86,-59.65 145.13,-54.2 139.17,-56.42 141.86,-59.65"/>
</g>
<!-- packages/cli/post&#45;crepe/dist/index.mjs&#45;&gt;node_modules/csv&#45;parse -->
<g id="edge7" class="edge">
<title>packages/cli/post&#45;crepe/dist/index.mjs&#45;&gt;node_modules/csv&#45;parse</title>
<path fill="none" stroke="#000000" stroke-opacity="0.200000" d="M100.08,-311.22C103.16,-309.31 105.92,-306.95 108,-304 131.72,-270.38 92.3,-152.64 116,-119 139.77,-85.27 175.99,-116.03 202,-84 214.53,-68.57 196.34,-54.44 210,-40 217.24,-32.34 227.65,-28.29 237.9,-26.23"/>
<polygon fill="#000000" fill-opacity="0.200000" stroke="#000000" stroke-opacity="0.200000" points="238.32,-28.29 243.89,-25.24 237.63,-24.15 238.32,-28.29"/>
</g>
<!-- packages/cli/post&#45;crepe/dist/index.mjs&#45;&gt;packages/util/math/dist/index.js -->
<g id="edge5" class="edge">
<title>packages/cli/post&#45;crepe/dist/index.mjs&#45;&gt;packages/util/math/dist/index.js</title>
<path fill="none" stroke="#000000" stroke-width="2" stroke-opacity="0.200000" d="M100.26,-317.24C165.01,-313.21 325.31,-302.55 459,-288 467.29,-287.1 476.23,-285.95 484.55,-284.81"/>
<polygon fill="#000000" fill-opacity="0.200000" stroke="#000000" stroke-width="2" stroke-opacity="0.200000" points="485.11,-286.85 490.77,-283.94 484.53,-282.69 485.11,-286.85"/>
</g>
<!-- packages/cli/post&#45;crepe/dist/index.mjs&#45;&gt;packages/cli/post&#45;f0&#45;util/dist/index.js -->
<g id="edge6" class="edge">
<title>packages/cli/post&#45;crepe/dist/index.mjs&#45;&gt;packages/cli/post&#45;f0&#45;util/dist/index.js</title>
<path fill="none" stroke="#000000" stroke-width="2" stroke-opacity="0.200000" d="M100.28,-310.88C103.24,-309.04 105.92,-306.77 108,-304 118.58,-289.88 111.16,-241.97 116,-225 123.61,-198.3 139.18,-169.81 149.08,-153.25"/>
<polygon fill="#000000" fill-opacity="0.200000" stroke="#000000" stroke-width="2" stroke-opacity="0.200000" points="150.88,-154.33 152.2,-148.11 147.29,-152.15 150.88,-154.33"/>
</g>
<!-- packages/cli/post&#45;crepe/index.test.ts -->
<g id="node8" class="node">
<title>packages/cli/post&#45;crepe/index.test.ts</title>
<g id="a_node8"><a xlink:href="packages/cli/post-crepe/index.test.ts" xlink:title="no&#45;orphans">
<path fill="#ccffcc" stroke="orange" d="M100.5,-264C100.5,-264 39.5,-264 39.5,-264 36.5,-264 33.5,-261 33.5,-258 33.5,-258 33.5,-252 33.5,-252 33.5,-249 36.5,-246 39.5,-246 39.5,-246 100.5,-246 100.5,-246 103.5,-246 106.5,-249 106.5,-252 106.5,-252 106.5,-258 106.5,-258 106.5,-261 103.5,-264 100.5,-264"/>
<text text-anchor="start" x="41.5" y="-252.8" font-family="Helvetica,sans-Serif" font-size="9.00" fill="orange">index.test.ts</text>
</a>
</g>
</g>
<!-- packages/cli/post&#45;crepe/index.ts -->
<g id="node9" class="node">
<title>packages/cli/post&#45;crepe/index.ts</title>
<g id="a_node9"><a xlink:href="packages/cli/post-crepe/index.ts" xlink:title="index.ts">
<path fill="#ddfeff" stroke="black" d="M91,-234C91,-234 49,-234 49,-234 46,-234 43,-231 43,-228 43,-228 43,-222 43,-222 43,-219 46,-216 49,-216 49,-216 91,-216 91,-216 94,-216 97,-219 97,-222 97,-222 97,-228 97,-228 97,-231 94,-234 91,-234"/>
<text text-anchor="start" x="51.5" y="-222.8" font-family="Helvetica,sans-Serif" font-size="9.00">index.ts</text>
</a>
</g>
</g>
<!-- packages/cli/post&#45;crepe/index.ts&#45;&gt;fs -->
<g id="edge12" class="edge">
<title>packages/cli/post&#45;crepe/index.ts&#45;&gt;fs</title>
<path fill="none" stroke="#000000" stroke-dasharray="5,2" stroke-opacity="0.200000" d="M70.93,-215.66C71.22,-188.6 75.65,-109.15 116,-63 118.87,-59.72 122.45,-57.01 126.29,-54.79"/>
<polygon fill="#000000" fill-opacity="0.200000" stroke="#000000" stroke-opacity="0.200000" points="127.27,-56.65 131.66,-52.05 125.37,-52.91 127.27,-56.65"/>
</g>
<!-- packages/cli/post&#45;crepe/index.ts&#45;&gt;node_modules/csv&#45;parse -->
<g id="edge11" class="edge">
<title>packages/cli/post&#45;crepe/index.ts&#45;&gt;node_modules/csv&#45;parse</title>
<path fill="none" stroke="#000000" stroke-opacity="0.200000" d="M71.67,-215.96C74.46,-180.84 86.47,-54.27 116,-30 149.85,-2.18 203.11,-7.41 237.92,-15.1"/>
<polygon fill="#000000" fill-opacity="0.200000" stroke="#000000" stroke-opacity="0.200000" points="237.45,-17.15 243.77,-16.45 238.4,-13.05 237.45,-17.15"/>
</g>
<!-- packages/cli/post&#45;crepe/index.ts&#45;&gt;packages/cli/post&#45;f0&#45;util/dist/index.js -->
<g id="edge10" class="edge">
<title>packages/cli/post&#45;crepe/index.ts&#45;&gt;packages/cli/post&#45;f0&#45;util/dist/index.js</title>
<path fill="none" stroke="#000000" stroke-width="2" stroke-opacity="0.200000" d="M80.31,-215.8C95.62,-200.67 126.18,-170.46 144.07,-152.77"/>
<polygon fill="#000000" fill-opacity="0.200000" stroke="#000000" stroke-width="2" stroke-opacity="0.200000" points="145.97,-153.85 148.76,-148.14 143.01,-150.86 145.97,-153.85"/>
</g>
<!-- packages/cli/post&#45;crepe/src/index.ts -->
<g id="node10" class="node">
<title>packages/cli/post&#45;crepe/src/index.ts</title>
<g id="a_node10"><a xlink:href="packages/cli/post-crepe/src/index.ts" xlink:title="index.ts">
<path fill="#ddfeff" stroke="black" d="M180,-254C180,-254 138,-254 138,-254 135,-254 132,-251 132,-248 132,-248 132,-242 132,-242 132,-239 135,-236 138,-236 138,-236 180,-236 180,-236 183,-236 186,-239 186,-242 186,-242 186,-248 186,-248 186,-251 183,-254 180,-254"/>
<text text-anchor="start" x="140.5" y="-242.8" font-family="Helvetica,sans-Serif" font-size="9.00">index.ts</text>
</a>
</g>
</g>
<!-- packages/cli/post&#45;crepe/index.ts&#45;&gt;packages/cli/post&#45;crepe/src/index.ts -->
<g id="edge9" class="edge">
<title>packages/cli/post&#45;crepe/index.ts&#45;&gt;packages/cli/post&#45;crepe/src/index.ts</title>
<path fill="none" stroke="#000000" stroke-width="2" stroke-opacity="0.200000" d="M97.1,-231C106.14,-233.08 116.37,-235.43 125.83,-237.6"/>
<polygon fill="#000000" fill-opacity="0.200000" stroke="#000000" stroke-width="2" stroke-opacity="0.200000" points="125.6,-239.71 131.92,-239 126.54,-235.61 125.6,-239.71"/>
</g>
<!-- packages/cli/post&#45;crepe/src/get&#45;median&#45;frequency.ts -->
<g id="node11" class="node">
<title>packages/cli/post&#45;crepe/src/get&#45;median&#45;frequency.ts</title>
<g id="a_node11"><a xlink:href="packages/cli/post-crepe/src/get-median-frequency.ts" xlink:title="get&#45;median&#45;frequency.ts">
<path fill="#ddfeff" stroke="black" d="M331,-254C331,-254 216,-254 216,-254 213,-254 210,-251 210,-248 210,-248 210,-242 210,-242 210,-239 213,-236 216,-236 216,-236 331,-236 331,-236 334,-236 337,-239 337,-242 337,-242 337,-248 337,-248 337,-251 334,-254 331,-254"/>
<text text-anchor="start" x="218" y="-242.8" font-family="Helvetica,sans-Serif" font-size="9.00">get&#45;median&#45;frequency.ts</text>
</a>
</g>
</g>
<!-- packages/cli/post&#45;crepe/src/index.ts&#45;&gt;packages/cli/post&#45;crepe/src/get&#45;median&#45;frequency.ts -->
<g id="edge15" class="edge">
<title>packages/cli/post&#45;crepe/src/index.ts&#45;&gt;packages/cli/post&#45;crepe/src/get&#45;median&#45;frequency.ts</title>
<path fill="none" stroke="#000000" stroke-width="2" stroke-opacity="0.200000" d="M186.09,-245C191.54,-245 197.53,-245 203.74,-245"/>
<polygon fill="#000000" fill-opacity="0.200000" stroke="#000000" stroke-width="2" stroke-opacity="0.200000" points="210,-247.1 204,-245 210,-242.9 210,-247.1"/>
</g>
<!-- packages/cli/post&#45;crepe/src/get&#45;median&#45;frequency.ts&#45;&gt;packages/util/math/dist/index.js -->
<g id="edge14" class="edge">
<title>packages/cli/post&#45;crepe/src/get&#45;median&#45;frequency.ts&#45;&gt;packages/util/math/dist/index.js</title>
<path fill="none" stroke="#000000" stroke-width="2" stroke-opacity="0.200000" d="M317.12,-254.06C327.83,-256.17 339.31,-258.3 350,-260 396.7,-267.42 451.13,-273.46 484.83,-276.89"/>
<polygon fill="#000000" fill-opacity="0.200000" stroke="#000000" stroke-width="2" stroke-opacity="0.200000" points="484.7,-278.99 490.88,-277.5 485.12,-274.81 484.7,-278.99"/>
</g>
<!-- packages/cli/post&#45;crepe/src/median&#45;filter.ts -->
<g id="node12" class="node">
<title>packages/cli/post&#45;crepe/src/median&#45;filter.ts</title>
<g id="a_node12"><a xlink:href="packages/cli/post-crepe/src/median-filter.ts" xlink:title="median&#45;filter.ts">
<path fill="#ddfeff" stroke="black" d="M429,-254C429,-254 356,-254 356,-254 353,-254 350,-251 350,-248 350,-248 350,-242 350,-242 350,-239 353,-236 356,-236 356,-236 429,-236 429,-236 432,-236 435,-239 435,-242 435,-242 435,-248 435,-248 435,-251 432,-254 429,-254"/>
<text text-anchor="start" x="358" y="-242.8" font-family="Helvetica,sans-Serif" font-size="9.00">median&#45;filter.ts</text>
</a>
</g>
</g>
<!-- packages/cli/post&#45;crepe/src/get&#45;median&#45;frequency.ts&#45;&gt;packages/cli/post&#45;crepe/src/median&#45;filter.ts -->
<g id="edge13" class="edge">
<title>packages/cli/post&#45;crepe/src/get&#45;median&#45;frequency.ts&#45;&gt;packages/cli/post&#45;crepe/src/median&#45;filter.ts</title>
<path fill="none" stroke="#000000" stroke-width="2" stroke-opacity="0.200000" d="M337.11,-245C339.28,-245 341.45,-245 343.6,-245"/>
<polygon fill="#000000" fill-opacity="0.200000" stroke="#000000" stroke-width="2" stroke-opacity="0.200000" points="343.96,-247.1 349.96,-245 343.96,-242.9 343.96,-247.1"/>
</g>
<!-- packages/cli/post&#45;crepe/src/median&#45;filter.ts&#45;&gt;packages/util/math/dist/index.js -->
<g id="edge16" class="edge">
<title>packages/cli/post&#45;crepe/src/median&#45;filter.ts&#45;&gt;packages/util/math/dist/index.js</title>
<path fill="none" stroke="#000000" stroke-width="2" stroke-opacity="0.200000" d="M425.3,-254.01C443.54,-259.18 466.37,-265.65 484.69,-270.84"/>
<polygon fill="#000000" fill-opacity="0.200000" stroke="#000000" stroke-width="2" stroke-opacity="0.200000" points="484.37,-272.94 490.72,-272.55 485.52,-268.9 484.37,-272.94"/>
</g>
</g>
</svg>
