<?xml version="1.0" encoding="UTF-8" standalone="no"?>
<!DOCTYPE svg PUBLIC "-//W3C//DTD SVG 1.1//EN"
 "http://www.w3.org/Graphics/SVG/1.1/DTD/svg11.dtd">
<!-- Generated by graphviz version 2.43.0 (0)
 -->
<!-- Title: dependency&#45;cruiser output Pages: 1 -->
<svg width="482pt" height="647pt"
 viewBox="0.00 0.00 481.52 647.35" xmlns="http://www.w3.org/2000/svg" xmlns:xlink="http://www.w3.org/1999/xlink">
<g id="graph0" class="graph" transform="scale(1 1) rotate(0) translate(4 643.35)">
<title>dependency&#45;cruiser output</title>
<polygon fill="white" stroke="transparent" points="-4,4 -4,-643.35 477.52,-643.35 477.52,4 -4,4"/>
<g id="clust1" class="cluster">
<title>cluster_node_modules</title>
<path fill="#ffffff" stroke="black" stroke-width="2" d="M168.35,0C168.35,0 369.2,0 369.2,0 375.2,0 381.2,-6 381.2,-12 381.2,-12 381.2,-284.96 381.2,-284.96 381.2,-290.96 375.2,-296.96 369.2,-296.96 369.2,-296.96 168.35,-296.96 168.35,-296.96 162.35,-296.96 156.35,-290.96 156.35,-284.96 156.35,-284.96 156.35,-12 156.35,-12 156.35,-6 162.35,0 168.35,0"/>
<text text-anchor="middle" x="268.77" y="-285.76" font-family="Helvetica,sans-Serif" font-weight="bold" font-size="9.00">node_modules</text>
</g>
<g id="clust2" class="cluster">
<title>cluster_packages</title>
<path fill="#ffffff" stroke="black" stroke-width="2" d="M12,-37.63C12,-37.63 461.52,-37.63 461.52,-37.63 467.52,-37.63 473.52,-43.63 473.52,-49.63 473.52,-49.63 473.52,-627.35 473.52,-627.35 473.52,-633.35 467.52,-639.35 461.52,-639.35 461.52,-639.35 12,-639.35 12,-639.35 6,-639.35 0,-633.35 0,-627.35 0,-627.35 0,-49.63 0,-49.63 0,-43.63 6,-37.63 12,-37.63"/>
<text text-anchor="middle" x="236.76" y="-628.15" font-family="Helvetica,sans-Serif" font-weight="bold" font-size="9.00">packages</text>
</g>
<!-- fs -->
<g id="node1" class="node">
<title>fs</title>
<g id="a_node1"><a xlink:href="https://nodejs.org/api/fs.html" xlink:title="fs">
<path fill="#ffffcc" stroke="grey" d="M225.27,-303.04C225.27,-303.04 183.27,-303.04 183.27,-303.04 180.27,-303.04 177.27,-300.04 177.27,-297.04 177.27,-297.04 177.27,-291.04 177.27,-291.04 177.27,-288.04 180.27,-285.04 183.27,-285.04 183.27,-285.04 225.27,-285.04 225.27,-285.04 228.27,-285.04 231.27,-288.04 231.27,-291.04 231.27,-291.04 231.27,-297.04 231.27,-297.04 231.27,-300.04 228.27,-303.04 225.27,-303.04"/>
<text text-anchor="middle" x="204.27" y="-291.84" font-family="Helvetica,sans-Serif" font-size="9.00" fill="grey">fs</text>
</a>
</g>
</g>
<!-- node_modules/csv&#45;parse -->
<g id="node2" class="node">
<title>node_modules/csv&#45;parse</title>
<g id="a_node2"><a xlink:href="https://www.npmjs.com/package/csv-parse" xlink:title="csv&#45;parse">
<polygon fill="#c40b0a" fill-opacity="0.101961" stroke="black" points="381.2,-296.96 324.2,-296.96 322.2,-294.96 322.2,-278.96 379.2,-278.96 381.2,-280.96 381.2,-296.96"/>
<polyline fill="none" stroke="black" points="379.2,-294.96 322.2,-294.96 "/>
<polyline fill="none" stroke="black" points="379.2,-294.96 379.2,-278.96 "/>
<polyline fill="none" stroke="black" points="379.2,-294.96 381.2,-296.96 "/>
<text text-anchor="start" x="330.2" y="-285.76" font-family="Helvetica,sans-Serif" font-size="9.00" fill="#c40b0a">csv&#45;parse</text>
</a>
</g>
</g>
<!-- node_modules/wavefile -->
<g id="node3" class="node">
<title>node_modules/wavefile</title>
<g id="a_node3"><a xlink:href="https://www.npmjs.com/package/wavefile" xlink:title="wavefile">
<polygon fill="#c40b0a" fill-opacity="0.101961" stroke="black" points="210.35,-18 158.35,-18 156.35,-16 156.35,0 208.35,0 210.35,-2 210.35,-18"/>
<polyline fill="none" stroke="black" points="208.35,-16 156.35,-16 "/>
<polyline fill="none" stroke="black" points="208.35,-16 208.35,0 "/>
<polyline fill="none" stroke="black" points="208.35,-16 210.35,-18 "/>
<text text-anchor="start" x="164.85" y="-6.8" font-family="Helvetica,sans-Serif" font-size="9.00" fill="#c40b0a">wavefile</text>
</a>
</g>
</g>
<!-- packages/cli/post&#45;crepe/index.test.ts -->
<g id="node4" class="node">
<title>packages/cli/post&#45;crepe/index.test.ts</title>
<g id="a_node4"><a xlink:href="packages/cli/post-crepe/index.test.ts" xlink:title="no&#45;orphans">
<path fill="#ccffcc" stroke="orange" d="M454,-405C454,-405 393,-405 393,-405 390,-405 387,-402 387,-399 387,-399 387,-393 387,-393 387,-390 390,-387 393,-387 393,-387 454,-387 454,-387 457,-387 460,-390 460,-393 460,-393 460,-399 460,-399 460,-402 457,-405 454,-405"/>
<text text-anchor="start" x="395" y="-393.8" font-family="Helvetica,sans-Serif" font-size="9.00" fill="orange">index.test.ts</text>
</a>
</g>
</g>
<!-- packages/cli/post&#45;crepe/index.ts -->
<g id="node5" class="node">
<title>packages/cli/post&#45;crepe/index.ts</title>
<g id="a_node5"><a xlink:href="packages/cli/post-crepe/index.ts" xlink:title="index.ts">
<path fill="#ddfeff" stroke="black" d="M298.34,-233.07C298.34,-233.07 256.34,-233.07 256.34,-233.07 253.34,-233.07 250.34,-230.07 250.34,-227.07 250.34,-227.07 250.34,-221.07 250.34,-221.07 250.34,-218.07 253.34,-215.07 256.34,-215.07 256.34,-215.07 298.34,-215.07 298.34,-215.07 301.34,-215.07 304.34,-218.07 304.34,-221.07 304.34,-221.07 304.34,-227.07 304.34,-227.07 304.34,-230.07 301.34,-233.07 298.34,-233.07"/>
<text text-anchor="start" x="258.84" y="-221.87" font-family="Helvetica,sans-Serif" font-size="9.00">index.ts</text>
</a>
</g>
</g>
<!-- packages/cli/post&#45;crepe/index.ts&#45;&gt;fs -->
<g id="edge9" class="edge">
<title>packages/cli/post&#45;crepe/index.ts&#45;&gt;fs</title>
<path fill="none" stroke="#000000" stroke-dasharray="5,2" stroke-opacity="0.200000" d="M267.78,-233.22C255.27,-245.2 233.22,-266.32 218.68,-280.24"/>
<polygon fill="#000000" fill-opacity="0.200000" stroke="#000000" stroke-opacity="0.200000" points="216.94,-279 214.06,-284.67 219.84,-282.04 216.94,-279"/>
</g>
<!-- packages/cli/post&#45;crepe/index.ts&#45;&gt;node_modules/csv&#45;parse -->
<g id="edge8" class="edge">
<title>packages/cli/post&#45;crepe/index.ts&#45;&gt;node_modules/csv&#45;parse</title>
<path fill="none" stroke="#000000" stroke-opacity="0.200000" d="M287.99,-233.22C300.69,-244.14 322.01,-262.45 336.45,-274.86"/>
<polygon fill="#000000" fill-opacity="0.200000" stroke="#000000" stroke-opacity="0.200000" points="335.15,-276.51 341.07,-278.82 337.88,-273.32 335.15,-276.51"/>
</g>
<!-- packages/cli/post&#45;crepe/src/index.ts -->
<g id="node6" class="node">
<title>packages/cli/post&#45;crepe/src/index.ts</title>
<g id="a_node6"><a xlink:href="packages/cli/post-crepe/src/index.ts" xlink:title="index.ts">
<path fill="#ddfeff" stroke="black" d="M307.53,-363.6C307.53,-363.6 265.53,-363.6 265.53,-363.6 262.53,-363.6 259.53,-360.6 259.53,-357.6 259.53,-357.6 259.53,-351.6 259.53,-351.6 259.53,-348.6 262.53,-345.6 265.53,-345.6 265.53,-345.6 307.53,-345.6 307.53,-345.6 310.53,-345.6 313.53,-348.6 313.53,-351.6 313.53,-351.6 313.53,-357.6 313.53,-357.6 313.53,-360.6 310.53,-363.6 307.53,-363.6"/>
<text text-anchor="start" x="268.03" y="-352.4" font-family="Helvetica,sans-Serif" font-size="9.00">index.ts</text>
</a>
</g>
</g>
<!-- packages/cli/post&#45;crepe/index.ts&#45;&gt;packages/cli/post&#45;crepe/src/index.ts -->
<g id="edge1" class="edge">
<title>packages/cli/post&#45;crepe/index.ts&#45;&gt;packages/cli/post&#45;crepe/src/index.ts</title>
<path fill="none" stroke="#000000" stroke-width="2" stroke-opacity="0.200000" d="M278,-233.46C279.56,-255.66 283.5,-311.59 285.43,-338.99"/>
<polygon fill="#000000" fill-opacity="0.200000" stroke="#000000" stroke-width="2" stroke-opacity="0.200000" points="283.36,-339.46 285.87,-345.3 287.55,-339.17 283.36,-339.46"/>
</g>
<!-- packages/cli/post&#45;f0&#45;util/src/get&#45;bandpass&#45;frequency.ts -->
<g id="node7" class="node">
<title>packages/cli/post&#45;f0&#45;util/src/get&#45;bandpass&#45;frequency.ts</title>
<g id="a_node7"><a xlink:href="packages/cli/post-f0-util/src/get-bandpass-frequency.ts" xlink:title="get&#45;bandpass&#45;frequency.ts">
<path fill="#ddfeff" stroke="black" d="M210.01,-243.64C210.01,-243.64 85.01,-243.64 85.01,-243.64 82.01,-243.64 79.01,-240.64 79.01,-237.64 79.01,-237.64 79.01,-231.64 79.01,-231.64 79.01,-228.64 82.01,-225.64 85.01,-225.64 85.01,-225.64 210.01,-225.64 210.01,-225.64 213.01,-225.64 216.01,-228.64 216.01,-231.64 216.01,-231.64 216.01,-237.64 216.01,-237.64 216.01,-240.64 213.01,-243.64 210.01,-243.64"/>
<text text-anchor="start" x="87.01" y="-232.44" font-family="Helvetica,sans-Serif" font-size="9.00">get&#45;bandpass&#45;frequency.ts</text>
</a>
</g>
</g>
<!-- packages/cli/post&#45;crepe/index.ts&#45;&gt;packages/cli/post&#45;f0&#45;util/src/get&#45;bandpass&#45;frequency.ts -->
<g id="edge2" class="edge">
<title>packages/cli/post&#45;crepe/index.ts&#45;&gt;packages/cli/post&#45;f0&#45;util/src/get&#45;bandpass&#45;frequency.ts</title>
<path fill="none" stroke="#000000" stroke-width="2" stroke-opacity="0.200000" d="M250.12,-226.29C241.81,-226.96 232.23,-227.74 222.34,-228.55"/>
<polygon fill="#000000" fill-opacity="0.200000" stroke="#000000" stroke-width="2" stroke-opacity="0.200000" points="221.96,-226.47 216.15,-229.05 222.31,-230.66 221.96,-226.47"/>
</g>
<!-- packages/cli/post&#45;f0&#45;util/src/get&#45;freq&#45;from&#45;phase.ts -->
<g id="node8" class="node">
<title>packages/cli/post&#45;f0&#45;util/src/get&#45;freq&#45;from&#45;phase.ts</title>
<g id="a_node8"><a xlink:href="packages/cli/post-f0-util/src/get-freq-from-phase.ts" xlink:title="get&#45;freq&#45;from&#45;phase.ts">
<path fill="#ddfeff" stroke="black" d="M248.93,-183.53C248.93,-183.53 142.93,-183.53 142.93,-183.53 139.93,-183.53 136.93,-180.53 136.93,-177.53 136.93,-177.53 136.93,-171.53 136.93,-171.53 136.93,-168.53 139.93,-165.53 142.93,-165.53 142.93,-165.53 248.93,-165.53 248.93,-165.53 251.93,-165.53 254.93,-168.53 254.93,-171.53 254.93,-171.53 254.93,-177.53 254.93,-177.53 254.93,-180.53 251.93,-183.53 248.93,-183.53"/>
<text text-anchor="start" x="144.93" y="-172.33" font-family="Helvetica,sans-Serif" font-size="9.00">get&#45;freq&#45;from&#45;phase.ts</text>
</a>
</g>
</g>
<!-- packages/cli/post&#45;crepe/index.ts&#45;&gt;packages/cli/post&#45;f0&#45;util/src/get&#45;freq&#45;from&#45;phase.ts -->
<g id="edge3" class="edge">
<title>packages/cli/post&#45;crepe/index.ts&#45;&gt;packages/cli/post&#45;f0&#45;util/src/get&#45;freq&#45;from&#45;phase.ts</title>
<path fill="none" stroke="#000000" stroke-width="2" stroke-opacity="0.200000" d="M262.4,-214.98C249.44,-207.09 230.54,-195.6 216.21,-186.87"/>
<polygon fill="#000000" fill-opacity="0.200000" stroke="#000000" stroke-width="2" stroke-opacity="0.200000" points="216.98,-184.89 210.77,-183.56 214.8,-188.48 216.98,-184.89"/>
</g>
<!-- packages/cli/post&#45;f0&#45;util/src/get&#45;frequency.ts -->
<g id="node9" class="node">
<title>packages/cli/post&#45;f0&#45;util/src/get&#45;frequency.ts</title>
<g id="a_node9"><a xlink:href="packages/cli/post-f0-util/src/get-frequency.ts" xlink:title="get&#45;frequency.ts">
<path fill="#ddfeff" stroke="black" d="M437.51,-249.24C437.51,-249.24 359.51,-249.24 359.51,-249.24 356.51,-249.24 353.51,-246.24 353.51,-243.24 353.51,-243.24 353.51,-237.24 353.51,-237.24 353.51,-234.24 356.51,-231.24 359.51,-231.24 359.51,-231.24 437.51,-231.24 437.51,-231.24 440.51,-231.24 443.51,-234.24 443.51,-237.24 443.51,-237.24 443.51,-243.24 443.51,-243.24 443.51,-246.24 440.51,-249.24 437.51,-249.24"/>
<text text-anchor="start" x="361.51" y="-238.04" font-family="Helvetica,sans-Serif" font-size="9.00">get&#45;frequency.ts</text>
</a>
</g>
</g>
<!-- packages/cli/post&#45;crepe/index.ts&#45;&gt;packages/cli/post&#45;f0&#45;util/src/get&#45;frequency.ts -->
<g id="edge4" class="edge">
<title>packages/cli/post&#45;crepe/index.ts&#45;&gt;packages/cli/post&#45;f0&#45;util/src/get&#45;frequency.ts</title>
<path fill="none" stroke="#000000" stroke-width="2" stroke-opacity="0.200000" d="M304.53,-227.7C317.11,-229.38 332.48,-231.43 347.11,-233.38"/>
<polygon fill="#000000" fill-opacity="0.200000" stroke="#000000" stroke-width="2" stroke-opacity="0.200000" points="347.11,-235.5 353.33,-234.21 347.66,-231.33 347.11,-235.5"/>
</g>
<!-- packages/cli/post&#45;f0&#45;util/src/get&#45;wav.ts -->
<g id="node10" class="node">
<title>packages/cli/post&#45;f0&#45;util/src/get&#45;wav.ts</title>
<g id="a_node10"><a xlink:href="packages/cli/post-f0-util/src/get-wav.ts" xlink:title="get&#45;wav.ts">
<path fill="#ddfeff" stroke="black" d="M259.86,-117.54C259.86,-117.54 208.86,-117.54 208.86,-117.54 205.86,-117.54 202.86,-114.54 202.86,-111.54 202.86,-111.54 202.86,-105.54 202.86,-105.54 202.86,-102.54 205.86,-99.54 208.86,-99.54 208.86,-99.54 259.86,-99.54 259.86,-99.54 262.86,-99.54 265.86,-102.54 265.86,-105.54 265.86,-105.54 265.86,-111.54 265.86,-111.54 265.86,-114.54 262.86,-117.54 259.86,-117.54"/>
<text text-anchor="start" x="210.86" y="-106.34" font-family="Helvetica,sans-Serif" font-size="9.00">get&#45;wav.ts</text>
</a>
</g>
</g>
<!-- packages/cli/post&#45;crepe/index.ts&#45;&gt;packages/cli/post&#45;f0&#45;util/src/get&#45;wav.ts -->
<g id="edge5" class="edge">
<title>packages/cli/post&#45;crepe/index.ts&#45;&gt;packages/cli/post&#45;f0&#45;util/src/get&#45;wav.ts</title>
<path fill="none" stroke="#000000" stroke-width="2" stroke-opacity="0.200000" d="M273.96,-215C266.59,-195.18 248.96,-147.81 239.92,-123.49"/>
<polygon fill="#000000" fill-opacity="0.200000" stroke="#000000" stroke-width="2" stroke-opacity="0.200000" points="241.78,-122.46 237.72,-117.57 237.84,-123.92 241.78,-122.46"/>
</g>
<!-- packages/cli/post&#45;f0&#45;util/src/util/freq&#45;to&#45;midi.ts -->
<g id="node11" class="node">
<title>packages/cli/post&#45;f0&#45;util/src/util/freq&#45;to&#45;midi.ts</title>
<g id="a_node11"><a xlink:href="packages/cli/post-f0-util/src/util/freq-to-midi.ts" xlink:title="freq&#45;to&#45;midi.ts">
<path fill="#ddfeff" stroke="black" d="M405.68,-187.58C405.68,-187.58 336.68,-187.58 336.68,-187.58 333.68,-187.58 330.68,-184.58 330.68,-181.58 330.68,-181.58 330.68,-175.58 330.68,-175.58 330.68,-172.58 333.68,-169.58 336.68,-169.58 336.68,-169.58 405.68,-169.58 405.68,-169.58 408.68,-169.58 411.68,-172.58 411.68,-175.58 411.68,-175.58 411.68,-181.58 411.68,-181.58 411.68,-184.58 408.68,-187.58 405.68,-187.58"/>
<text text-anchor="start" x="338.68" y="-176.38" font-family="Helvetica,sans-Serif" font-size="9.00">freq&#45;to&#45;midi.ts</text>
</a>
</g>
</g>
<!-- packages/cli/post&#45;crepe/index.ts&#45;&gt;packages/cli/post&#45;f0&#45;util/src/util/freq&#45;to&#45;midi.ts -->
<g id="edge6" class="edge">
<title>packages/cli/post&#45;crepe/index.ts&#45;&gt;packages/cli/post&#45;f0&#45;util/src/util/freq&#45;to&#45;midi.ts</title>
<path fill="none" stroke="#000000" stroke-width="2" stroke-opacity="0.200000" d="M296.33,-214.87C310.92,-207.79 331.19,-197.97 346.95,-190.33"/>
<polygon fill="#000000" fill-opacity="0.200000" stroke="#000000" stroke-width="2" stroke-opacity="0.200000" points="348.06,-192.13 352.54,-187.62 346.22,-188.35 348.06,-192.13"/>
</g>
<!-- packages/cli/post&#45;f0&#45;util/src/util/round&#45;on&#45;midi.ts -->
<g id="node12" class="node">
<title>packages/cli/post&#45;f0&#45;util/src/util/round&#45;on&#45;midi.ts</title>
<g id="a_node12"><a xlink:href="packages/cli/post-f0-util/src/util/round-on-midi.ts" xlink:title="round&#45;on&#45;midi.ts">
<path fill="#ddfeff" stroke="black" d="M383.89,-126.69C383.89,-126.69 303.89,-126.69 303.89,-126.69 300.89,-126.69 297.89,-123.69 297.89,-120.69 297.89,-120.69 297.89,-114.69 297.89,-114.69 297.89,-111.69 300.89,-108.69 303.89,-108.69 303.89,-108.69 383.89,-108.69 383.89,-108.69 386.89,-108.69 389.89,-111.69 389.89,-114.69 389.89,-114.69 389.89,-120.69 389.89,-120.69 389.89,-123.69 386.89,-126.69 383.89,-126.69"/>
<text text-anchor="start" x="305.89" y="-115.49" font-family="Helvetica,sans-Serif" font-size="9.00">round&#45;on&#45;midi.ts</text>
</a>
</g>
</g>
<!-- packages/cli/post&#45;crepe/index.ts&#45;&gt;packages/cli/post&#45;f0&#45;util/src/util/round&#45;on&#45;midi.ts -->
<g id="edge7" class="edge">
<title>packages/cli/post&#45;crepe/index.ts&#45;&gt;packages/cli/post&#45;f0&#45;util/src/util/round&#45;on&#45;midi.ts</title>
<path fill="none" stroke="#000000" stroke-width="2" stroke-opacity="0.200000" d="M283.01,-215C294.6,-196.47 321.07,-154.16 334.98,-131.93"/>
<polygon fill="#000000" fill-opacity="0.200000" stroke="#000000" stroke-width="2" stroke-opacity="0.200000" points="336.83,-132.94 338.23,-126.74 333.27,-130.71 336.83,-132.94"/>
</g>
<!-- packages/cli/post&#45;crepe/src/get&#45;median&#45;frequency.ts -->
<g id="node13" class="node">
<title>packages/cli/post&#45;crepe/src/get&#45;median&#45;frequency.ts</title>
<g id="a_node13"><a xlink:href="packages/cli/post-crepe/src/get-median-frequency.ts" xlink:title="get&#45;median&#45;frequency.ts">
<path fill="#ddfeff" stroke="black" d="M357.51,-478.66C357.51,-478.66 242.51,-478.66 242.51,-478.66 239.51,-478.66 236.51,-475.66 236.51,-472.66 236.51,-472.66 236.51,-466.66 236.51,-466.66 236.51,-463.66 239.51,-460.66 242.51,-460.66 242.51,-460.66 357.51,-460.66 357.51,-460.66 360.51,-460.66 363.51,-463.66 363.51,-466.66 363.51,-466.66 363.51,-472.66 363.51,-472.66 363.51,-475.66 360.51,-478.66 357.51,-478.66"/>
<text text-anchor="start" x="244.51" y="-467.46" font-family="Helvetica,sans-Serif" font-size="9.00">get&#45;median&#45;frequency.ts</text>
</a>
</g>
</g>
<!-- packages/cli/post&#45;crepe/src/index.ts&#45;&gt;packages/cli/post&#45;crepe/src/get&#45;median&#45;frequency.ts -->
<g id="edge12" class="edge">
<title>packages/cli/post&#45;crepe/src/index.ts&#45;&gt;packages/cli/post&#45;crepe/src/get&#45;median&#45;frequency.ts</title>
<path fill="none" stroke="#000000" stroke-width="2" stroke-opacity="0.200000" d="M287.59,-363.63C289.88,-383.19 295.33,-429.69 298.19,-454.09"/>
<polygon fill="#000000" fill-opacity="0.200000" stroke="#000000" stroke-width="2" stroke-opacity="0.200000" points="296.84,-460.59 298.23,-454.39 301.01,-460.1 296.84,-460.59"/>
</g>
<!-- packages/cli/post&#45;f0&#45;util/src/util/bandpass.ts -->
<g id="node17" class="node">
<title>packages/cli/post&#45;f0&#45;util/src/util/bandpass.ts</title>
<g id="a_node17"><a xlink:href="packages/cli/post-f0-util/src/util/bandpass.ts" xlink:title="bandpass.ts">
<path fill="#ddfeff" stroke="black" d="M65,-234.38C65,-234.38 6,-234.38 6,-234.38 3,-234.38 0,-231.38 0,-228.38 0,-228.38 0,-222.38 0,-222.38 0,-219.38 3,-216.38 6,-216.38 6,-216.38 65,-216.38 65,-216.38 68,-216.38 71,-219.38 71,-222.38 71,-222.38 71,-228.38 71,-228.38 71,-231.38 68,-234.38 65,-234.38"/>
<text text-anchor="start" x="8" y="-223.18" font-family="Helvetica,sans-Serif" font-size="9.00">bandpass.ts</text>
</a>
</g>
</g>
<!-- packages/cli/post&#45;f0&#45;util/src/get&#45;bandpass&#45;frequency.ts&#45;&gt;packages/cli/post&#45;f0&#45;util/src/util/bandpass.ts -->
<g id="edge14" class="edge">
<title>packages/cli/post&#45;f0&#45;util/src/get&#45;bandpass&#45;frequency.ts&#45;&gt;packages/cli/post&#45;f0&#45;util/src/util/bandpass.ts</title>
<path fill="none" stroke="#000000" stroke-width="2" stroke-opacity="0.200000" d="M78.81,-228.96C78.31,-228.92 77.82,-228.88 77.33,-228.84"/>
<polygon fill="#000000" fill-opacity="0.200000" stroke="#000000" stroke-width="2" stroke-opacity="0.200000" points="77.22,-226.72 71.07,-228.32 76.88,-230.91 77.22,-226.72"/>
</g>
<!-- packages/cli/post&#45;f0&#45;util/src/get&#45;wav.ts&#45;&gt;node_modules/wavefile -->
<g id="edge15" class="edge">
<title>packages/cli/post&#45;f0&#45;util/src/get&#45;wav.ts&#45;&gt;node_modules/wavefile</title>
<path fill="none" stroke="#000000" stroke-opacity="0.200000" d="M229.65,-99.36C220.77,-82.02 201.47,-44.37 190.81,-23.56"/>
<polygon fill="#000000" fill-opacity="0.200000" stroke="#000000" stroke-opacity="0.200000" points="192.65,-22.55 188.04,-18.16 188.91,-24.46 192.65,-22.55"/>
</g>
<!-- packages/cli/post&#45;f0&#45;util/src/util/round&#45;on&#45;midi.ts&#45;&gt;packages/cli/post&#45;f0&#45;util/src/util/freq&#45;to&#45;midi.ts -->
<g id="edge16" class="edge">
<title>packages/cli/post&#45;f0&#45;util/src/util/round&#45;on&#45;midi.ts&#45;&gt;packages/cli/post&#45;f0&#45;util/src/util/freq&#45;to&#45;midi.ts</title>
<path fill="none" stroke="#000000" stroke-width="2" stroke-opacity="0.200000" d="M348.03,-126.94C352.4,-136.68 359.35,-152.18 364.49,-163.66"/>
<polygon fill="#000000" fill-opacity="0.200000" stroke="#000000" stroke-width="2" stroke-opacity="0.200000" points="362.63,-164.63 367,-169.25 366.46,-162.91 362.63,-164.63"/>
</g>
<!-- packages/cli/post&#45;f0&#45;util/src/util/midi&#45;to&#45;freq.ts -->
<g id="node18" class="node">
<title>packages/cli/post&#45;f0&#45;util/src/util/midi&#45;to&#45;freq.ts</title>
<g id="a_node18"><a xlink:href="packages/cli/post-f0-util/src/util/midi-to-freq.ts" xlink:title="midi&#45;to&#45;freq.ts">
<path fill="#ddfeff" stroke="black" d="M466.85,-55.63C466.85,-55.63 397.85,-55.63 397.85,-55.63 394.85,-55.63 391.85,-52.63 391.85,-49.63 391.85,-49.63 391.85,-43.63 391.85,-43.63 391.85,-40.63 394.85,-37.63 397.85,-37.63 397.85,-37.63 466.85,-37.63 466.85,-37.63 469.85,-37.63 472.85,-40.63 472.85,-43.63 472.85,-43.63 472.85,-49.63 472.85,-49.63 472.85,-52.63 469.85,-55.63 466.85,-55.63"/>
<text text-anchor="start" x="399.85" y="-44.43" font-family="Helvetica,sans-Serif" font-size="9.00">midi&#45;to&#45;freq.ts</text>
</a>
</g>
</g>
<!-- packages/cli/post&#45;f0&#45;util/src/util/round&#45;on&#45;midi.ts&#45;&gt;packages/cli/post&#45;f0&#45;util/src/util/midi&#45;to&#45;freq.ts -->
<g id="edge17" class="edge">
<title>packages/cli/post&#45;f0&#45;util/src/util/round&#45;on&#45;midi.ts&#45;&gt;packages/cli/post&#45;f0&#45;util/src/util/midi&#45;to&#45;freq.ts</title>
<path fill="none" stroke="#000000" stroke-width="2" stroke-opacity="0.200000" d="M355.45,-108.4C370.9,-95.99 398.36,-73.93 415.94,-59.81"/>
<polygon fill="#000000" fill-opacity="0.200000" stroke="#000000" stroke-width="2" stroke-opacity="0.200000" points="417.7,-61.09 421.06,-55.7 415.07,-57.82 417.7,-61.09"/>
</g>
<!-- packages/cli/post&#45;crepe/src/median&#45;filter.ts -->
<g id="node14" class="node">
<title>packages/cli/post&#45;crepe/src/median&#45;filter.ts</title>
<g id="a_node14"><a xlink:href="packages/cli/post-crepe/src/median-filter.ts" xlink:title="median&#45;filter.ts">
<path fill="#ddfeff" stroke="black" d="M421.61,-552.39C421.61,-552.39 348.61,-552.39 348.61,-552.39 345.61,-552.39 342.61,-549.39 342.61,-546.39 342.61,-546.39 342.61,-540.39 342.61,-540.39 342.61,-537.39 345.61,-534.39 348.61,-534.39 348.61,-534.39 421.61,-534.39 421.61,-534.39 424.61,-534.39 427.61,-537.39 427.61,-540.39 427.61,-540.39 427.61,-546.39 427.61,-546.39 427.61,-549.39 424.61,-552.39 421.61,-552.39"/>
<text text-anchor="start" x="350.61" y="-541.19" font-family="Helvetica,sans-Serif" font-size="9.00">median&#45;filter.ts</text>
</a>
</g>
</g>
<!-- packages/cli/post&#45;crepe/src/get&#45;median&#45;frequency.ts&#45;&gt;packages/cli/post&#45;crepe/src/median&#45;filter.ts -->
<g id="edge10" class="edge">
<title>packages/cli/post&#45;crepe/src/get&#45;median&#45;frequency.ts&#45;&gt;packages/cli/post&#45;crepe/src/median&#45;filter.ts</title>
<path fill="none" stroke="#000000" stroke-width="2" stroke-opacity="0.200000" d="M310.45,-478.7C325.38,-491.63 352.92,-515.5 370.05,-530.34"/>
<polygon fill="#000000" fill-opacity="0.200000" stroke="#000000" stroke-width="2" stroke-opacity="0.200000" points="368.68,-531.94 374.59,-534.28 371.43,-528.76 368.68,-531.94"/>
</g>
<!-- packages/util/math/src/array/range.ts -->
<g id="node15" class="node">
<title>packages/util/math/src/array/range.ts</title>
<g id="a_node15"><a xlink:href="packages/util/math/src/array/range.ts" xlink:title="range.ts">
<path fill="#ddfeff" stroke="black" d="M238.31,-557.51C238.31,-557.51 196.31,-557.51 196.31,-557.51 193.31,-557.51 190.31,-554.51 190.31,-551.51 190.31,-551.51 190.31,-545.51 190.31,-545.51 190.31,-542.51 193.31,-539.51 196.31,-539.51 196.31,-539.51 238.31,-539.51 238.31,-539.51 241.31,-539.51 244.31,-542.51 244.31,-545.51 244.31,-545.51 244.31,-551.51 244.31,-551.51 244.31,-554.51 241.31,-557.51 238.31,-557.51"/>
<text text-anchor="start" x="198.31" y="-546.31" font-family="Helvetica,sans-Serif" font-size="9.00">range.ts</text>
</a>
</g>
</g>
<!-- packages/cli/post&#45;crepe/src/get&#45;median&#45;frequency.ts&#45;&gt;packages/util/math/src/array/range.ts -->
<g id="edge11" class="edge">
<title>packages/cli/post&#45;crepe/src/get&#45;median&#45;frequency.ts&#45;&gt;packages/util/math/src/array/range.ts</title>
<path fill="none" stroke="#000000" stroke-width="2" stroke-opacity="0.200000" d="M290.53,-478.7C276.02,-492.53 248.25,-519.02 231.39,-535.09"/>
<polygon fill="#000000" fill-opacity="0.200000" stroke="#000000" stroke-width="2" stroke-opacity="0.200000" points="229.84,-533.67 226.94,-539.33 232.74,-536.71 229.84,-533.67"/>
</g>
<!-- packages/util/math/src/stochastic/median.ts -->
<g id="node16" class="node">
<title>packages/util/math/src/stochastic/median.ts</title>
<g id="a_node16"><a xlink:href="packages/util/math/src/stochastic/median.ts" xlink:title="median.ts">
<path fill="#ddfeff" stroke="black" d="M467.52,-639.35C467.52,-639.35 417.52,-639.35 417.52,-639.35 414.52,-639.35 411.52,-636.35 411.52,-633.35 411.52,-633.35 411.52,-627.35 411.52,-627.35 411.52,-624.35 414.52,-621.35 417.52,-621.35 417.52,-621.35 467.52,-621.35 467.52,-621.35 470.52,-621.35 473.52,-624.35 473.52,-627.35 473.52,-627.35 473.52,-633.35 473.52,-633.35 473.52,-636.35 470.52,-639.35 467.52,-639.35"/>
<text text-anchor="start" x="419.52" y="-628.15" font-family="Helvetica,sans-Serif" font-size="9.00">median.ts</text>
</a>
</g>
</g>
<!-- packages/cli/post&#45;crepe/src/median&#45;filter.ts&#45;&gt;packages/util/math/src/stochastic/median.ts -->
<g id="edge13" class="edge">
<title>packages/cli/post&#45;crepe/src/median&#45;filter.ts&#45;&gt;packages/util/math/src/stochastic/median.ts</title>
<path fill="none" stroke="#000000" stroke-width="2" stroke-opacity="0.200000" d="M391.26,-552.7C401.27,-567.87 421.18,-598.03 433.02,-615.97"/>
<polygon fill="#000000" fill-opacity="0.200000" stroke="#000000" stroke-width="2" stroke-opacity="0.200000" points="431.36,-617.26 436.42,-621.12 434.86,-614.95 431.36,-617.26"/>
</g>
</g>
</svg>
