<?xml version="1.0" encoding="UTF-8" standalone="no"?>
<!DOCTYPE svg PUBLIC "-//W3C//DTD SVG 1.1//EN"
 "http://www.w3.org/Graphics/SVG/1.1/DTD/svg11.dtd">
<!-- Generated by graphviz version 2.43.0 (0)
 -->
<!-- Title: dependency&#45;cruiser output Pages: 1 -->
<svg width="686pt" height="452pt"
 viewBox="0.00 0.00 686.00 452.00" xmlns="http://www.w3.org/2000/svg" xmlns:xlink="http://www.w3.org/1999/xlink">
<g id="graph0" class="graph" transform="scale(1 1) rotate(0) translate(4 448)">
<title>dependency&#45;cruiser output</title>
<polygon fill="white" stroke="transparent" points="-4,4 -4,-448 682,-448 682,4 -4,4"/>
<g id="clust1" class="cluster">
<title>cluster_node_modules</title>
<path fill="#ffffff" stroke="black" stroke-width="2" d="M310,-8C310,-8 376,-8 376,-8 382,-8 388,-14 388,-20 388,-20 388,-78 388,-78 388,-84 382,-90 376,-90 376,-90 310,-90 310,-90 304,-90 298,-84 298,-78 298,-78 298,-20 298,-20 298,-14 304,-8 310,-8"/>
<text text-anchor="middle" x="343" y="-78.8" font-family="Helvetica,sans-Serif" font-weight="bold" font-size="9.00">node_modules</text>
</g>
<g id="clust2" class="cluster">
<title>cluster_packages</title>
<path fill="#ffffff" stroke="black" stroke-width="2" d="M20,-98C20,-98 658,-98 658,-98 664,-98 670,-104 670,-110 670,-110 670,-424 670,-424 670,-430 664,-436 658,-436 658,-436 20,-436 20,-436 14,-436 8,-430 8,-424 8,-424 8,-110 8,-110 8,-104 14,-98 20,-98"/>
<text text-anchor="middle" x="339" y="-424.8" font-family="Helvetica,sans-Serif" font-weight="bold" font-size="9.00">packages</text>
</g>
<g id="clust3" class="cluster">
<title>cluster_packages/cli</title>
<path fill="#ffffff" stroke="black" stroke-width="2" d="M28,-106C28,-106 516,-106 516,-106 522,-106 528,-112 528,-118 528,-118 528,-398 528,-398 528,-404 522,-410 516,-410 516,-410 28,-410 28,-410 22,-410 16,-404 16,-398 16,-398 16,-118 16,-118 16,-112 22,-106 28,-106"/>
<text text-anchor="middle" x="272" y="-398.8" font-family="Helvetica,sans-Serif" font-weight="bold" font-size="9.00">cli</text>
</g>
<g id="clust4" class="cluster">
<title>cluster_packages/cli/post&#45;crepe</title>
<path fill="#ffffff" stroke="black" stroke-width="2" d="M36,-114C36,-114 508,-114 508,-114 514,-114 520,-120 520,-126 520,-126 520,-188 520,-188 520,-194 514,-200 508,-200 508,-200 36,-200 36,-200 30,-200 24,-194 24,-188 24,-188 24,-126 24,-126 24,-120 30,-114 36,-114"/>
<text text-anchor="middle" x="272" y="-188.8" font-family="Helvetica,sans-Serif" font-weight="bold" font-size="9.00">post&#45;crepe</text>
</g>
<g id="clust5" class="cluster">
<title>cluster_packages/cli/post&#45;crepe/src</title>
<path fill="#ffffff" stroke="black" stroke-width="2" d="M174.5,-122C174.5,-122 500,-122 500,-122 506,-122 512,-128 512,-134 512,-134 512,-162 512,-162 512,-168 506,-174 500,-174 500,-174 174.5,-174 174.5,-174 168.5,-174 162.5,-168 162.5,-162 162.5,-162 162.5,-134 162.5,-134 162.5,-128 168.5,-122 174.5,-122"/>
<text text-anchor="middle" x="337.25" y="-162.8" font-family="Helvetica,sans-Serif" font-weight="bold" font-size="9.00">src</text>
</g>
<g id="clust6" class="cluster">
<title>cluster_packages/cli/post&#45;f0&#45;util</title>
<path fill="#ffffff" stroke="black" stroke-width="2" d="M125,-208C125,-208 373.5,-208 373.5,-208 379.5,-208 385.5,-214 385.5,-220 385.5,-220 385.5,-372 385.5,-372 385.5,-378 379.5,-384 373.5,-384 373.5,-384 125,-384 125,-384 119,-384 113,-378 113,-372 113,-372 113,-220 113,-220 113,-214 119,-208 125,-208"/>
<text text-anchor="middle" x="249.25" y="-372.8" font-family="Helvetica,sans-Serif" font-weight="bold" font-size="9.00">post&#45;f0&#45;util</text>
</g>
<g id="clust7" class="cluster">
<title>cluster_packages/cli/post&#45;f0&#45;util/src</title>
<path fill="#ffffff" stroke="black" stroke-width="2" d="M133,-216C133,-216 365.5,-216 365.5,-216 371.5,-216 377.5,-222 377.5,-228 377.5,-228 377.5,-346 377.5,-346 377.5,-352 371.5,-358 365.5,-358 365.5,-358 133,-358 133,-358 127,-358 121,-352 121,-346 121,-346 121,-228 121,-228 121,-222 127,-216 133,-216"/>
<text text-anchor="middle" x="249.25" y="-346.8" font-family="Helvetica,sans-Serif" font-weight="bold" font-size="9.00">src</text>
</g>
<g id="clust8" class="cluster">
<title>cluster_packages/util</title>
<path fill="#ffffff" stroke="black" stroke-width="2" d="M548,-106C548,-106 650,-106 650,-106 656,-106 662,-112 662,-118 662,-118 662,-308 662,-308 662,-314 656,-320 650,-320 650,-320 548,-320 548,-320 542,-320 536,-314 536,-308 536,-308 536,-118 536,-118 536,-112 542,-106 548,-106"/>
<text text-anchor="middle" x="599" y="-308.8" font-family="Helvetica,sans-Serif" font-weight="bold" font-size="9.00">util</text>
</g>
<g id="clust9" class="cluster">
<title>cluster_packages/util/math</title>
<path fill="#ffffff" stroke="black" stroke-width="2" d="M556,-114C556,-114 642,-114 642,-114 648,-114 654,-120 654,-126 654,-126 654,-282 654,-282 654,-288 648,-294 642,-294 642,-294 556,-294 556,-294 550,-294 544,-288 544,-282 544,-282 544,-126 544,-126 544,-120 550,-114 556,-114"/>
<text text-anchor="middle" x="599" y="-282.8" font-family="Helvetica,sans-Serif" font-weight="bold" font-size="9.00">math</text>
</g>
<g id="clust10" class="cluster">
<title>cluster_packages/util/math/src</title>
<path fill="#ffffff" stroke="black" stroke-width="2" d="M564,-122C564,-122 634,-122 634,-122 640,-122 646,-128 646,-134 646,-134 646,-256 646,-256 646,-262 640,-268 634,-268 634,-268 564,-268 564,-268 558,-268 552,-262 552,-256 552,-256 552,-134 552,-134 552,-128 558,-122 564,-122"/>
<text text-anchor="middle" x="599" y="-256.8" font-family="Helvetica,sans-Serif" font-weight="bold" font-size="9.00">src</text>
</g>
<g id="clust11" class="cluster">
<title>cluster_packages/util/math/src/array</title>
<path fill="#ffffff" stroke="black" stroke-width="2" d="M576,-190C576,-190 622,-190 622,-190 628,-190 634,-196 634,-202 634,-202 634,-230 634,-230 634,-236 628,-242 622,-242 622,-242 576,-242 576,-242 570,-242 564,-236 564,-230 564,-230 564,-202 564,-202 564,-196 570,-190 576,-190"/>
<text text-anchor="middle" x="599" y="-230.8" font-family="Helvetica,sans-Serif" font-weight="bold" font-size="9.00">array</text>
</g>
<g id="clust12" class="cluster">
<title>cluster_packages/util/math/src/stochastic</title>
<path fill="#ffffff" stroke="black" stroke-width="2" d="M572,-130C572,-130 626,-130 626,-130 632,-130 638,-136 638,-142 638,-142 638,-170 638,-170 638,-176 632,-182 626,-182 626,-182 572,-182 572,-182 566,-182 560,-176 560,-170 560,-170 560,-142 560,-142 560,-136 566,-130 572,-130"/>
<text text-anchor="middle" x="599" y="-170.8" font-family="Helvetica,sans-Serif" font-weight="bold" font-size="9.00">stochastic</text>
</g>
<!-- fs -->
<g id="node1" class="node">
<title>fs</title>
<g id="a_node1"><a xlink:href="https://nodejs.org/api/fs.html" xlink:title="fs">
<path fill="#ffffcc" stroke="grey" d="M218.5,-90C218.5,-90 176.5,-90 176.5,-90 173.5,-90 170.5,-87 170.5,-84 170.5,-84 170.5,-78 170.5,-78 170.5,-75 173.5,-72 176.5,-72 176.5,-72 218.5,-72 218.5,-72 221.5,-72 224.5,-75 224.5,-78 224.5,-78 224.5,-84 224.5,-84 224.5,-87 221.5,-90 218.5,-90"/>
<text text-anchor="middle" x="197.5" y="-78.8" font-family="Helvetica,sans-Serif" font-size="9.00" fill="grey">fs</text>
</a>
</g>
</g>
<!-- node_modules/csv&#45;parse -->
<g id="node2" class="node">
<title>node_modules/csv&#45;parse</title>
<g id="a_node2"><a xlink:href="https://www.npmjs.com/package/csv-parse" xlink:title="csv&#45;parse">
<polygon fill="#c40b0a" fill-opacity="0.101961" stroke="black" points="372,-34 315,-34 313,-32 313,-16 370,-16 372,-18 372,-34"/>
<polyline fill="none" stroke="black" points="370,-32 313,-32 "/>
<polyline fill="none" stroke="black" points="370,-32 370,-16 "/>
<polyline fill="none" stroke="black" points="370,-32 372,-34 "/>
<text text-anchor="start" x="321" y="-22.8" font-family="Helvetica,sans-Serif" font-size="9.00" fill="#c40b0a">csv&#45;parse</text>
</a>
</g>
</g>
<!-- node_modules/wavefile -->
<g id="node3" class="node">
<title>node_modules/wavefile</title>
<g id="a_node3"><a xlink:href="https://www.npmjs.com/package/wavefile" xlink:title="wavefile">
<polygon fill="#c40b0a" fill-opacity="0.101961" stroke="black" points="369.5,-64 317.5,-64 315.5,-62 315.5,-46 367.5,-46 369.5,-48 369.5,-64"/>
<polyline fill="none" stroke="black" points="367.5,-62 315.5,-62 "/>
<polyline fill="none" stroke="black" points="367.5,-62 367.5,-46 "/>
<polyline fill="none" stroke="black" points="367.5,-62 369.5,-64 "/>
<text text-anchor="start" x="324" y="-52.8" font-family="Helvetica,sans-Serif" font-size="9.00" fill="#c40b0a">wavefile</text>
</a>
</g>
</g>
<!-- packages/cli/post&#45;crepe/index.test.ts -->
<g id="node4" class="node">
<title>packages/cli/post&#45;crepe/index.test.ts</title>
<g id="a_node4"><a xlink:href="packages/cli/post-crepe/index.test.ts" xlink:title="no&#45;orphans">
<path fill="#ccffcc" stroke="orange" d="M99,-174C99,-174 38,-174 38,-174 35,-174 32,-171 32,-168 32,-168 32,-162 32,-162 32,-159 35,-156 38,-156 38,-156 99,-156 99,-156 102,-156 105,-159 105,-162 105,-162 105,-168 105,-168 105,-171 102,-174 99,-174"/>
<text text-anchor="start" x="40" y="-162.8" font-family="Helvetica,sans-Serif" font-size="9.00" fill="orange">index.test.ts</text>
</a>
</g>
</g>
<!-- packages/cli/post&#45;crepe/index.ts -->
<g id="node5" class="node">
<title>packages/cli/post&#45;crepe/index.ts</title>
<g id="a_node5"><a xlink:href="packages/cli/post-crepe/index.ts" xlink:title="index.ts">
<path fill="#ddfeff" stroke="black" d="M89.5,-144C89.5,-144 47.5,-144 47.5,-144 44.5,-144 41.5,-141 41.5,-138 41.5,-138 41.5,-132 41.5,-132 41.5,-129 44.5,-126 47.5,-126 47.5,-126 89.5,-126 89.5,-126 92.5,-126 95.5,-129 95.5,-132 95.5,-132 95.5,-138 95.5,-138 95.5,-141 92.5,-144 89.5,-144"/>
<text text-anchor="start" x="50" y="-132.8" font-family="Helvetica,sans-Serif" font-size="9.00">index.ts</text>
</a>
</g>
</g>
<!-- packages/cli/post&#45;crepe/index.ts&#45;&gt;fs -->
<g id="edge8" class="edge">
<title>packages/cli/post&#45;crepe/index.ts&#45;&gt;fs</title>
<path fill="none" stroke="#000000" stroke-dasharray="5,2" stroke-opacity="0.200000" d="M90.76,-125.96C112.37,-116.77 145.93,-102.5 169.43,-92.51"/>
<polygon fill="#000000" fill-opacity="0.200000" stroke="#000000" stroke-opacity="0.200000" points="170.47,-94.35 175.17,-90.07 168.83,-90.48 170.47,-94.35"/>
</g>
<!-- packages/cli/post&#45;crepe/index.ts&#45;&gt;node_modules/csv&#45;parse -->
<g id="edge7" class="edge">
<title>packages/cli/post&#45;crepe/index.ts&#45;&gt;node_modules/csv&#45;parse</title>
<path fill="none" stroke="#000000" stroke-opacity="0.200000" d="M90.92,-126C140.5,-106.1 259.34,-58.39 314.05,-36.42"/>
<polygon fill="#000000" fill-opacity="0.200000" stroke="#000000" stroke-opacity="0.200000" points="314.98,-38.31 319.77,-34.13 313.42,-34.41 314.98,-38.31"/>
</g>
<!-- packages/cli/post&#45;crepe/src/index.ts -->
<g id="node6" class="node">
<title>packages/cli/post&#45;crepe/src/index.ts</title>
<g id="a_node6"><a xlink:href="packages/cli/post-crepe/src/index.ts" xlink:title="index.ts">
<path fill="#ddfeff" stroke="black" d="M218.5,-148C218.5,-148 176.5,-148 176.5,-148 173.5,-148 170.5,-145 170.5,-142 170.5,-142 170.5,-136 170.5,-136 170.5,-133 173.5,-130 176.5,-130 176.5,-130 218.5,-130 218.5,-130 221.5,-130 224.5,-133 224.5,-136 224.5,-136 224.5,-142 224.5,-142 224.5,-145 221.5,-148 218.5,-148"/>
<text text-anchor="start" x="179" y="-136.8" font-family="Helvetica,sans-Serif" font-size="9.00">index.ts</text>
</a>
</g>
</g>
<!-- packages/cli/post&#45;crepe/index.ts&#45;&gt;packages/cli/post&#45;crepe/src/index.ts -->
<g id="edge1" class="edge">
<title>packages/cli/post&#45;crepe/index.ts&#45;&gt;packages/cli/post&#45;crepe/src/index.ts</title>
<path fill="none" stroke="#000000" stroke-width="2" stroke-opacity="0.200000" d="M95.51,-135.82C115.32,-136.44 142.72,-137.31 163.99,-137.98"/>
<polygon fill="#000000" fill-opacity="0.200000" stroke="#000000" stroke-width="2" stroke-opacity="0.200000" points="164.03,-140.08 170.09,-138.17 164.16,-135.88 164.03,-140.08"/>
</g>
<!-- packages/cli/post&#45;f0&#45;util/src/get&#45;bandpass&#45;frequency.ts -->
<g id="node7" class="node">
<title>packages/cli/post&#45;f0&#45;util/src/get&#45;bandpass&#45;frequency.ts</title>
<g id="a_node7"><a xlink:href="packages/cli/post-f0-util/src/get-bandpass-frequency.ts" xlink:title="get&#45;bandpass&#45;frequency.ts">
<path fill="#ddfeff" stroke="black" d="M260,-332C260,-332 135,-332 135,-332 132,-332 129,-329 129,-326 129,-326 129,-320 129,-320 129,-317 132,-314 135,-314 135,-314 260,-314 260,-314 263,-314 266,-317 266,-320 266,-320 266,-326 266,-326 266,-329 263,-332 260,-332"/>
<text text-anchor="start" x="137" y="-320.8" font-family="Helvetica,sans-Serif" font-size="9.00">get&#45;bandpass&#45;frequency.ts</text>
</a>
</g>
</g>
<!-- packages/cli/post&#45;crepe/index.ts&#45;&gt;packages/cli/post&#45;f0&#45;util/src/get&#45;bandpass&#45;frequency.ts -->
<g id="edge2" class="edge">
<title>packages/cli/post&#45;crepe/index.ts&#45;&gt;packages/cli/post&#45;f0&#45;util/src/get&#45;bandpass&#45;frequency.ts</title>
<path fill="none" stroke="#000000" stroke-width="2" stroke-opacity="0.200000" d="M75.63,-144.07C96.03,-174.27 161.79,-271.62 186.76,-308.58"/>
<polygon fill="#000000" fill-opacity="0.200000" stroke="#000000" stroke-width="2" stroke-opacity="0.200000" points="185.04,-309.78 190.14,-313.58 188.52,-307.43 185.04,-309.78"/>
</g>
<!-- packages/cli/post&#45;f0&#45;util/src/get&#45;freq&#45;from&#45;phase.ts -->
<g id="node8" class="node">
<title>packages/cli/post&#45;f0&#45;util/src/get&#45;freq&#45;from&#45;phase.ts</title>
<g id="a_node8"><a xlink:href="packages/cli/post-f0-util/src/get-freq-from-phase.ts" xlink:title="get&#45;freq&#45;from&#45;phase.ts">
<path fill="#ddfeff" stroke="black" d="M250.5,-302C250.5,-302 144.5,-302 144.5,-302 141.5,-302 138.5,-299 138.5,-296 138.5,-296 138.5,-290 138.5,-290 138.5,-287 141.5,-284 144.5,-284 144.5,-284 250.5,-284 250.5,-284 253.5,-284 256.5,-287 256.5,-290 256.5,-290 256.5,-296 256.5,-296 256.5,-299 253.5,-302 250.5,-302"/>
<text text-anchor="start" x="146.5" y="-290.8" font-family="Helvetica,sans-Serif" font-size="9.00">get&#45;freq&#45;from&#45;phase.ts</text>
</a>
</g>
</g>
<!-- packages/cli/post&#45;crepe/index.ts&#45;&gt;packages/cli/post&#45;f0&#45;util/src/get&#45;freq&#45;from&#45;phase.ts -->
<g id="edge3" class="edge">
<title>packages/cli/post&#45;crepe/index.ts&#45;&gt;packages/cli/post&#45;f0&#45;util/src/get&#45;freq&#45;from&#45;phase.ts</title>
<path fill="none" stroke="#000000" stroke-width="2" stroke-opacity="0.200000" d="M77.06,-144.41C98.47,-171.04 159.55,-247.04 185.08,-278.79"/>
<polygon fill="#000000" fill-opacity="0.200000" stroke="#000000" stroke-width="2" stroke-opacity="0.200000" points="183.74,-280.48 189.13,-283.84 187.01,-277.84 183.74,-280.48"/>
</g>
<!-- packages/cli/post&#45;f0&#45;util/src/get&#45;frequency.ts -->
<g id="node9" class="node">
<title>packages/cli/post&#45;f0&#45;util/src/get&#45;frequency.ts</title>
<g id="a_node9"><a xlink:href="packages/cli/post-f0-util/src/get-frequency.ts" xlink:title="get&#45;frequency.ts">
<path fill="#ddfeff" stroke="black" d="M236.5,-272C236.5,-272 158.5,-272 158.5,-272 155.5,-272 152.5,-269 152.5,-266 152.5,-266 152.5,-260 152.5,-260 152.5,-257 155.5,-254 158.5,-254 158.5,-254 236.5,-254 236.5,-254 239.5,-254 242.5,-257 242.5,-260 242.5,-260 242.5,-266 242.5,-266 242.5,-269 239.5,-272 236.5,-272"/>
<text text-anchor="start" x="160.5" y="-260.8" font-family="Helvetica,sans-Serif" font-size="9.00">get&#45;frequency.ts</text>
</a>
</g>
</g>
<!-- packages/cli/post&#45;crepe/index.ts&#45;&gt;packages/cli/post&#45;f0&#45;util/src/get&#45;frequency.ts -->
<g id="edge4" class="edge">
<title>packages/cli/post&#45;crepe/index.ts&#45;&gt;packages/cli/post&#45;f0&#45;util/src/get&#45;frequency.ts</title>
<path fill="none" stroke="#000000" stroke-width="2" stroke-opacity="0.200000" d="M78.63,-144.21C100.69,-166.44 156.97,-223.16 182.96,-249.36"/>
<polygon fill="#000000" fill-opacity="0.200000" stroke="#000000" stroke-width="2" stroke-opacity="0.200000" points="181.73,-251.1 187.45,-253.88 184.71,-248.14 181.73,-251.1"/>
</g>
<!-- packages/cli/post&#45;f0&#45;util/src/get&#45;wav.ts -->
<g id="node10" class="node">
<title>packages/cli/post&#45;f0&#45;util/src/get&#45;wav.ts</title>
<g id="a_node10"><a xlink:href="packages/cli/post-f0-util/src/get-wav.ts" xlink:title="get&#45;wav.ts">
<path fill="#ddfeff" stroke="black" d="M223,-242C223,-242 172,-242 172,-242 169,-242 166,-239 166,-236 166,-236 166,-230 166,-230 166,-227 169,-224 172,-224 172,-224 223,-224 223,-224 226,-224 229,-227 229,-230 229,-230 229,-236 229,-236 229,-239 226,-242 223,-242"/>
<text text-anchor="start" x="174" y="-230.8" font-family="Helvetica,sans-Serif" font-size="9.00">get&#45;wav.ts</text>
</a>
</g>
</g>
<!-- packages/cli/post&#45;crepe/index.ts&#45;&gt;packages/cli/post&#45;f0&#45;util/src/get&#45;wav.ts -->
<g id="edge5" class="edge">
<title>packages/cli/post&#45;crepe/index.ts&#45;&gt;packages/cli/post&#45;f0&#45;util/src/get&#45;wav.ts</title>
<path fill="none" stroke="#000000" stroke-width="2" stroke-opacity="0.200000" d="M81.22,-144.04C103.9,-161.55 153.86,-200.09 179.93,-220.21"/>
<polygon fill="#000000" fill-opacity="0.200000" stroke="#000000" stroke-width="2" stroke-opacity="0.200000" points="178.77,-221.97 184.81,-223.98 181.34,-218.65 178.77,-221.97"/>
</g>
<!-- packages/cli/post&#45;f0&#45;util/src/util.ts -->
<g id="node11" class="node">
<title>packages/cli/post&#45;f0&#45;util/src/util.ts</title>
<g id="a_node11"><a xlink:href="packages/cli/post-f0-util/src/util.ts" xlink:title="util.ts">
<path fill="#ddfeff" stroke="black" d="M363.5,-332C363.5,-332 321.5,-332 321.5,-332 318.5,-332 315.5,-329 315.5,-326 315.5,-326 315.5,-320 315.5,-320 315.5,-317 318.5,-314 321.5,-314 321.5,-314 363.5,-314 363.5,-314 366.5,-314 369.5,-317 369.5,-320 369.5,-320 369.5,-326 369.5,-326 369.5,-329 366.5,-332 363.5,-332"/>
<text text-anchor="start" x="329.5" y="-320.8" font-family="Helvetica,sans-Serif" font-size="9.00">util.ts</text>
</a>
</g>
</g>
<!-- packages/cli/post&#45;crepe/index.ts&#45;&gt;packages/cli/post&#45;f0&#45;util/src/util.ts -->
<g id="edge6" class="edge">
<title>packages/cli/post&#45;crepe/index.ts&#45;&gt;packages/cli/post&#45;f0&#45;util/src/util.ts</title>
<path fill="none" stroke="#000000" stroke-width="2" stroke-opacity="0.200000" d="M81.72,-144.07C126.47,-174.77 272.37,-274.88 324.11,-310.38"/>
<polygon fill="#000000" fill-opacity="0.200000" stroke="#000000" stroke-width="2" stroke-opacity="0.200000" points="322.96,-312.14 329.1,-313.8 325.34,-308.68 322.96,-312.14"/>
</g>
<!-- packages/cli/post&#45;crepe/src/get&#45;median&#45;frequency.ts -->
<g id="node12" class="node">
<title>packages/cli/post&#45;crepe/src/get&#45;median&#45;frequency.ts</title>
<g id="a_node12"><a xlink:href="packages/cli/post-crepe/src/get-median-frequency.ts" xlink:title="get&#45;median&#45;frequency.ts">
<path fill="#ddfeff" stroke="black" d="M400,-148C400,-148 285,-148 285,-148 282,-148 279,-145 279,-142 279,-142 279,-136 279,-136 279,-133 282,-130 285,-130 285,-130 400,-130 400,-130 403,-130 406,-133 406,-136 406,-136 406,-142 406,-142 406,-145 403,-148 400,-148"/>
<text text-anchor="start" x="287" y="-136.8" font-family="Helvetica,sans-Serif" font-size="9.00">get&#45;median&#45;frequency.ts</text>
</a>
</g>
</g>
<!-- packages/cli/post&#45;crepe/src/index.ts&#45;&gt;packages/cli/post&#45;crepe/src/get&#45;median&#45;frequency.ts -->
<g id="edge11" class="edge">
<title>packages/cli/post&#45;crepe/src/index.ts&#45;&gt;packages/cli/post&#45;crepe/src/get&#45;median&#45;frequency.ts</title>
<path fill="none" stroke="#000000" stroke-width="2" stroke-opacity="0.200000" d="M224.73,-139C238.3,-139 255.57,-139 272.64,-139"/>
<polygon fill="#000000" fill-opacity="0.200000" stroke="#000000" stroke-width="2" stroke-opacity="0.200000" points="278.91,-141.1 272.91,-139 278.91,-136.9 278.91,-141.1"/>
</g>
<!-- packages/cli/post&#45;f0&#45;util/src/get&#45;bandpass&#45;frequency.ts&#45;&gt;packages/cli/post&#45;f0&#45;util/src/util.ts -->
<g id="edge13" class="edge">
<title>packages/cli/post&#45;f0&#45;util/src/get&#45;bandpass&#45;frequency.ts&#45;&gt;packages/cli/post&#45;f0&#45;util/src/util.ts</title>
<path fill="none" stroke="#000000" stroke-width="2" stroke-opacity="0.200000" d="M266.23,-323C281.24,-323 296.48,-323 309.28,-323"/>
<polygon fill="#000000" fill-opacity="0.200000" stroke="#000000" stroke-width="2" stroke-opacity="0.200000" points="309.36,-325.1 315.36,-323 309.36,-320.9 309.36,-325.1"/>
</g>
<!-- packages/cli/post&#45;f0&#45;util/src/get&#45;wav.ts&#45;&gt;node_modules/wavefile -->
<g id="edge14" class="edge">
<title>packages/cli/post&#45;f0&#45;util/src/get&#45;wav.ts&#45;&gt;node_modules/wavefile</title>
<path fill="none" stroke="#000000" stroke-opacity="0.200000" d="M205.79,-223.93C229.11,-194.89 302.06,-104.1 330.23,-69.02"/>
<polygon fill="#000000" fill-opacity="0.200000" stroke="#000000" stroke-opacity="0.200000" points="331.93,-70.26 334.06,-64.27 328.66,-67.63 331.93,-70.26"/>
</g>
<!-- packages/cli/post&#45;crepe/src/median&#45;filter.ts -->
<g id="node13" class="node">
<title>packages/cli/post&#45;crepe/src/median&#45;filter.ts</title>
<g id="a_node13"><a xlink:href="packages/cli/post-crepe/src/median-filter.ts" xlink:title="median&#45;filter.ts">
<path fill="#ddfeff" stroke="black" d="M498,-148C498,-148 425,-148 425,-148 422,-148 419,-145 419,-142 419,-142 419,-136 419,-136 419,-133 422,-130 425,-130 425,-130 498,-130 498,-130 501,-130 504,-133 504,-136 504,-136 504,-142 504,-142 504,-145 501,-148 498,-148"/>
<text text-anchor="start" x="427" y="-136.8" font-family="Helvetica,sans-Serif" font-size="9.00">median&#45;filter.ts</text>
</a>
</g>
</g>
<!-- packages/cli/post&#45;crepe/src/get&#45;median&#45;frequency.ts&#45;&gt;packages/cli/post&#45;crepe/src/median&#45;filter.ts -->
<g id="edge9" class="edge">
<title>packages/cli/post&#45;crepe/src/get&#45;median&#45;frequency.ts&#45;&gt;packages/cli/post&#45;crepe/src/median&#45;filter.ts</title>
<path fill="none" stroke="#000000" stroke-width="2" stroke-opacity="0.200000" d="M406.11,-139C408.28,-139 410.45,-139 412.6,-139"/>
<polygon fill="#000000" fill-opacity="0.200000" stroke="#000000" stroke-width="2" stroke-opacity="0.200000" points="412.96,-141.1 418.96,-139 412.96,-136.9 412.96,-141.1"/>
</g>
<!-- packages/util/math/src/array/range.ts -->
<g id="node14" class="node">
<title>packages/util/math/src/array/range.ts</title>
<g id="a_node14"><a xlink:href="packages/util/math/src/array/range.ts" xlink:title="range.ts">
<path fill="#ddfeff" stroke="black" d="M620,-216C620,-216 578,-216 578,-216 575,-216 572,-213 572,-210 572,-210 572,-204 572,-204 572,-201 575,-198 578,-198 578,-198 620,-198 620,-198 623,-198 626,-201 626,-204 626,-204 626,-210 626,-210 626,-213 623,-216 620,-216"/>
<text text-anchor="start" x="580" y="-204.8" font-family="Helvetica,sans-Serif" font-size="9.00">range.ts</text>
</a>
</g>
</g>
<!-- packages/cli/post&#45;crepe/src/get&#45;median&#45;frequency.ts&#45;&gt;packages/util/math/src/array/range.ts -->
<g id="edge10" class="edge">
<title>packages/cli/post&#45;crepe/src/get&#45;median&#45;frequency.ts&#45;&gt;packages/util/math/src/array/range.ts</title>
<path fill="none" stroke="#000000" stroke-width="2" stroke-opacity="0.200000" d="M376.56,-148.03C425.96,-161.13 516.91,-185.24 565.81,-198.2"/>
<polygon fill="#000000" fill-opacity="0.200000" stroke="#000000" stroke-width="2" stroke-opacity="0.200000" points="565.51,-200.3 571.85,-199.8 566.59,-196.24 565.51,-200.3"/>
</g>
<!-- packages/util/math/src/stochastic/median.ts -->
<g id="node15" class="node">
<title>packages/util/math/src/stochastic/median.ts</title>
<g id="a_node15"><a xlink:href="packages/util/math/src/stochastic/median.ts" xlink:title="median.ts">
<path fill="#ddfeff" stroke="black" d="M624,-156C624,-156 574,-156 574,-156 571,-156 568,-153 568,-150 568,-150 568,-144 568,-144 568,-141 571,-138 574,-138 574,-138 624,-138 624,-138 627,-138 630,-141 630,-144 630,-144 630,-150 630,-150 630,-153 627,-156 624,-156"/>
<text text-anchor="start" x="576" y="-144.8" font-family="Helvetica,sans-Serif" font-size="9.00">median.ts</text>
</a>
</g>
</g>
<!-- packages/cli/post&#45;crepe/src/median&#45;filter.ts&#45;&gt;packages/util/math/src/stochastic/median.ts -->
<g id="edge12" class="edge">
<title>packages/cli/post&#45;crepe/src/median&#45;filter.ts&#45;&gt;packages/util/math/src/stochastic/median.ts</title>
<path fill="none" stroke="#000000" stroke-width="2" stroke-opacity="0.200000" d="M504.26,-141.47C522.54,-142.54 543.8,-143.8 561.45,-144.84"/>
<polygon fill="#000000" fill-opacity="0.200000" stroke="#000000" stroke-width="2" stroke-opacity="0.200000" points="561.66,-146.96 567.78,-145.22 561.91,-142.77 561.66,-146.96"/>
</g>
</g>
</svg>
