<?xml version="1.0" encoding="UTF-8" standalone="no"?>
<!DOCTYPE svg PUBLIC "-//W3C//DTD SVG 1.1//EN"
 "http://www.w3.org/Graphics/SVG/1.1/DTD/svg11.dtd">
<!-- Generated by graphviz version 2.43.0 (0)
 -->
<!-- Title: dependency&#45;cruiser output Pages: 1 -->
<svg width="664pt" height="426pt"
 viewBox="0.00 0.00 664.00 426.00" xmlns="http://www.w3.org/2000/svg" xmlns:xlink="http://www.w3.org/1999/xlink">
<g id="graph0" class="graph" transform="scale(1 1) rotate(0) translate(4 422)">
<title>dependency&#45;cruiser output</title>
<polygon fill="white" stroke="transparent" points="-4,4 -4,-422 660,-422 660,4 -4,4"/>
<g id="clust1" class="cluster">
<title>cluster_node_modules</title>
<path fill="#ffffff" stroke="black" stroke-width="2" d="M125,-8C125,-8 191,-8 191,-8 197,-8 203,-14 203,-20 203,-20 203,-48 203,-48 203,-54 197,-60 191,-60 191,-60 125,-60 125,-60 119,-60 113,-54 113,-48 113,-48 113,-20 113,-20 113,-14 119,-8 125,-8"/>
<text text-anchor="middle" x="158" y="-48.8" font-family="Helvetica,sans-Serif" font-weight="bold" font-size="9.00">node_modules</text>
</g>
<g id="clust2" class="cluster">
<title>cluster_packages</title>
<path fill="#ffffff" stroke="black" stroke-width="2" d="M20,-94C20,-94 636,-94 636,-94 642,-94 648,-100 648,-106 648,-106 648,-398 648,-398 648,-404 642,-410 636,-410 636,-410 20,-410 20,-410 14,-410 8,-404 8,-398 8,-398 8,-106 8,-106 8,-100 14,-94 20,-94"/>
<text text-anchor="middle" x="328" y="-398.8" font-family="Helvetica,sans-Serif" font-weight="bold" font-size="9.00">packages</text>
</g>
<g id="clust3" class="cluster">
<title>cluster_packages/cli</title>
<path fill="#ffffff" stroke="black" stroke-width="2" d="M28,-102C28,-102 628,-102 628,-102 634,-102 640,-108 640,-114 640,-114 640,-244 640,-244 640,-250 634,-256 628,-256 628,-256 28,-256 28,-256 22,-256 16,-250 16,-244 16,-244 16,-114 16,-114 16,-108 22,-102 28,-102"/>
<text text-anchor="middle" x="328" y="-244.8" font-family="Helvetica,sans-Serif" font-weight="bold" font-size="9.00">cli</text>
</g>
<g id="clust4" class="cluster">
<title>cluster_packages/cli/post&#45;crepe</title>
<path fill="#ffffff" stroke="black" stroke-width="2" d="M36,-110C36,-110 518,-110 518,-110 524,-110 530,-116 530,-122 530,-122 530,-218 530,-218 530,-224 524,-230 518,-230 518,-230 36,-230 36,-230 30,-230 24,-224 24,-218 24,-218 24,-122 24,-122 24,-116 30,-110 36,-110"/>
<text text-anchor="middle" x="277" y="-218.8" font-family="Helvetica,sans-Serif" font-weight="bold" font-size="9.00">post&#45;crepe</text>
</g>
<g id="clust5" class="cluster">
<title>cluster_packages/cli/post&#45;crepe/src</title>
<path fill="#ffffff" stroke="black" stroke-width="2" d="M134.5,-118C134.5,-118 510,-118 510,-118 516,-118 522,-124 522,-130 522,-130 522,-192 522,-192 522,-198 516,-204 510,-204 510,-204 134.5,-204 134.5,-204 128.5,-204 122.5,-198 122.5,-192 122.5,-192 122.5,-130 122.5,-130 122.5,-124 128.5,-118 134.5,-118"/>
<text text-anchor="middle" x="322.25" y="-192.8" font-family="Helvetica,sans-Serif" font-weight="bold" font-size="9.00">src</text>
</g>
<g id="clust6" class="cluster">
<title>cluster_packages/cli/post&#45;crepe/src/facade</title>
<path fill="#ffffff" stroke="black" stroke-width="2" d="M456,-126C456,-126 502,-126 502,-126 508,-126 514,-132 514,-138 514,-138 514,-166 514,-166 514,-172 508,-178 502,-178 502,-178 456,-178 456,-178 450,-178 444,-172 444,-166 444,-166 444,-138 444,-138 444,-132 450,-126 456,-126"/>
<text text-anchor="middle" x="479" y="-166.8" font-family="Helvetica,sans-Serif" font-weight="bold" font-size="9.00">facade</text>
</g>
<g id="clust7" class="cluster">
<title>cluster_packages/cli/post&#45;f0&#45;util</title>
<path fill="#ffffff" stroke="black" stroke-width="2" d="M558,-118C558,-118 620,-118 620,-118 626,-118 632,-124 632,-130 632,-130 632,-192 632,-192 632,-198 626,-204 620,-204 620,-204 558,-204 558,-204 552,-204 546,-198 546,-192 546,-192 546,-130 546,-130 546,-124 552,-118 558,-118"/>
<text text-anchor="middle" x="589" y="-192.8" font-family="Helvetica,sans-Serif" font-weight="bold" font-size="9.00">post&#45;f0&#45;util</text>
</g>
<g id="clust8" class="cluster">
<title>cluster_packages/cli/post&#45;f0&#45;util/dist</title>
<path fill="#ffffff" stroke="black" stroke-width="2" d="M566,-126C566,-126 612,-126 612,-126 618,-126 624,-132 624,-138 624,-138 624,-166 624,-166 624,-172 618,-178 612,-178 612,-178 566,-178 566,-178 560,-178 554,-172 554,-166 554,-166 554,-138 554,-138 554,-132 560,-126 566,-126"/>
<text text-anchor="middle" x="589" y="-166.8" font-family="Helvetica,sans-Serif" font-weight="bold" font-size="9.00">dist</text>
</g>
<g id="clust9" class="cluster">
<title>cluster_packages/util</title>
<path fill="#ffffff" stroke="black" stroke-width="2" d="M550,-264C550,-264 628,-264 628,-264 634,-264 640,-270 640,-276 640,-276 640,-372 640,-372 640,-378 634,-384 628,-384 628,-384 550,-384 550,-384 544,-384 538,-378 538,-372 538,-372 538,-276 538,-276 538,-270 544,-264 550,-264"/>
<text text-anchor="middle" x="589" y="-372.8" font-family="Helvetica,sans-Serif" font-weight="bold" font-size="9.00">util</text>
</g>
<g id="clust10" class="cluster">
<title>cluster_packages/util/math</title>
<path fill="#ffffff" stroke="black" stroke-width="2" d="M558,-272C558,-272 620,-272 620,-272 626,-272 632,-278 632,-284 632,-284 632,-346 632,-346 632,-352 626,-358 620,-358 620,-358 558,-358 558,-358 552,-358 546,-352 546,-346 546,-346 546,-284 546,-284 546,-278 552,-272 558,-272"/>
<text text-anchor="middle" x="589" y="-346.8" font-family="Helvetica,sans-Serif" font-weight="bold" font-size="9.00">math</text>
</g>
<g id="clust11" class="cluster">
<title>cluster_packages/util/math/dist</title>
<path fill="#ffffff" stroke="black" stroke-width="2" d="M566,-280C566,-280 612,-280 612,-280 618,-280 624,-286 624,-292 624,-292 624,-320 624,-320 624,-326 618,-332 612,-332 612,-332 566,-332 566,-332 560,-332 554,-326 554,-320 554,-320 554,-292 554,-292 554,-286 560,-280 566,-280"/>
<text text-anchor="middle" x="589" y="-320.8" font-family="Helvetica,sans-Serif" font-weight="bold" font-size="9.00">dist</text>
</g>
<!-- fs -->
<g id="node1" class="node">
<title>fs</title>
<g id="a_node1"><a xlink:href="https://nodejs.org/api/fs.html" xlink:title="fs">
<path fill="#ffffcc" stroke="grey" d="M178.5,-86C178.5,-86 136.5,-86 136.5,-86 133.5,-86 130.5,-83 130.5,-80 130.5,-80 130.5,-74 130.5,-74 130.5,-71 133.5,-68 136.5,-68 136.5,-68 178.5,-68 178.5,-68 181.5,-68 184.5,-71 184.5,-74 184.5,-74 184.5,-80 184.5,-80 184.5,-83 181.5,-86 178.5,-86"/>
<text text-anchor="middle" x="157.5" y="-74.8" font-family="Helvetica,sans-Serif" font-size="9.00" fill="grey">fs</text>
</a>
</g>
</g>
<!-- node_modules/csv&#45;parse -->
<g id="node2" class="node">
<title>node_modules/csv&#45;parse</title>
<g id="a_node2"><a xlink:href="https://www.npmjs.com/package/csv-parse" xlink:title="csv&#45;parse">
<polygon fill="#c40b0a" fill-opacity="0.101961" stroke="black" points="187,-34 130,-34 128,-32 128,-16 185,-16 187,-18 187,-34"/>
<polyline fill="none" stroke="black" points="185,-32 128,-32 "/>
<polyline fill="none" stroke="black" points="185,-32 185,-16 "/>
<polyline fill="none" stroke="black" points="185,-32 187,-34 "/>
<text text-anchor="start" x="136" y="-22.8" font-family="Helvetica,sans-Serif" font-size="9.00" fill="#c40b0a">csv&#45;parse</text>
</a>
</g>
</g>
<!-- packages/cli/post&#45;crepe/index.test.ts -->
<g id="node3" class="node">
<title>packages/cli/post&#45;crepe/index.test.ts</title>
<g id="a_node3"><a xlink:href="packages/cli/post-crepe/index.test.ts" xlink:title="no&#45;orphans">
<path fill="#ccffcc" stroke="orange" d="M99,-187C99,-187 38,-187 38,-187 35,-187 32,-184 32,-181 32,-181 32,-175 32,-175 32,-172 35,-169 38,-169 38,-169 99,-169 99,-169 102,-169 105,-172 105,-175 105,-175 105,-181 105,-181 105,-184 102,-187 99,-187"/>
<text text-anchor="start" x="40" y="-175.8" font-family="Helvetica,sans-Serif" font-size="9.00" fill="orange">index.test.ts</text>
</a>
</g>
</g>
<!-- packages/cli/post&#45;crepe/index.ts -->
<g id="node4" class="node">
<title>packages/cli/post&#45;crepe/index.ts</title>
<g id="a_node4"><a xlink:href="packages/cli/post-crepe/index.ts" xlink:title="index.ts">
<path fill="#ddfeff" stroke="black" d="M89.5,-140C89.5,-140 47.5,-140 47.5,-140 44.5,-140 41.5,-137 41.5,-134 41.5,-134 41.5,-128 41.5,-128 41.5,-125 44.5,-122 47.5,-122 47.5,-122 89.5,-122 89.5,-122 92.5,-122 95.5,-125 95.5,-128 95.5,-128 95.5,-134 95.5,-134 95.5,-137 92.5,-140 89.5,-140"/>
<text text-anchor="start" x="50" y="-128.8" font-family="Helvetica,sans-Serif" font-size="9.00">index.ts</text>
</a>
</g>
</g>
<!-- packages/cli/post&#45;crepe/index.ts&#45;&gt;fs -->
<g id="edge4" class="edge">
<title>packages/cli/post&#45;crepe/index.ts&#45;&gt;fs</title>
<path fill="none" stroke="#000000" stroke-dasharray="5,2" stroke-opacity="0.200000" d="M84.26,-121.84C98.72,-112.86 120.85,-99.13 136.81,-89.22"/>
<polygon fill="#000000" fill-opacity="0.200000" stroke="#000000" stroke-opacity="0.200000" points="137.97,-90.97 141.96,-86.03 135.75,-87.41 137.97,-90.97"/>
</g>
<!-- packages/cli/post&#45;crepe/index.ts&#45;&gt;node_modules/csv&#45;parse -->
<g id="edge3" class="edge">
<title>packages/cli/post&#45;crepe/index.ts&#45;&gt;node_modules/csv&#45;parse</title>
<path fill="none" stroke="#000000" stroke-opacity="0.200000" d="M75.19,-121.98C86.98,-103.28 113,-62 113,-62 113,-62 128.3,-48.98 140.76,-38.39"/>
<polygon fill="#000000" fill-opacity="0.200000" stroke="#000000" stroke-opacity="0.200000" points="142.31,-39.82 145.52,-34.34 139.59,-36.62 142.31,-39.82"/>
</g>
<!-- packages/cli/post&#45;crepe/src/index.ts -->
<g id="node5" class="node">
<title>packages/cli/post&#45;crepe/src/index.ts</title>
<g id="a_node5"><a xlink:href="packages/cli/post-crepe/src/index.ts" xlink:title="index.ts">
<path fill="#ddfeff" stroke="black" d="M178.5,-144C178.5,-144 136.5,-144 136.5,-144 133.5,-144 130.5,-141 130.5,-138 130.5,-138 130.5,-132 130.5,-132 130.5,-129 133.5,-126 136.5,-126 136.5,-126 178.5,-126 178.5,-126 181.5,-126 184.5,-129 184.5,-132 184.5,-132 184.5,-138 184.5,-138 184.5,-141 181.5,-144 178.5,-144"/>
<text text-anchor="start" x="139" y="-132.8" font-family="Helvetica,sans-Serif" font-size="9.00">index.ts</text>
</a>
</g>
</g>
<!-- packages/cli/post&#45;crepe/index.ts&#45;&gt;packages/cli/post&#45;crepe/src/index.ts -->
<g id="edge1" class="edge">
<title>packages/cli/post&#45;crepe/index.ts&#45;&gt;packages/cli/post&#45;crepe/src/index.ts</title>
<path fill="none" stroke="#000000" stroke-width="2" stroke-opacity="0.200000" d="M95.6,-132.2C104.64,-132.62 114.87,-133.09 124.33,-133.52"/>
<polygon fill="#000000" fill-opacity="0.200000" stroke="#000000" stroke-width="2" stroke-opacity="0.200000" points="124.33,-135.62 130.42,-133.8 124.52,-131.43 124.33,-135.62"/>
</g>
<!-- packages/cli/post&#45;crepe/src/facade/index.ts -->
<g id="node6" class="node">
<title>packages/cli/post&#45;crepe/src/facade/index.ts</title>
<g id="a_node6"><a xlink:href="packages/cli/post-crepe/src/facade/index.ts" xlink:title="index.ts">
<path fill="#ddfeff" stroke="black" d="M500,-152C500,-152 458,-152 458,-152 455,-152 452,-149 452,-146 452,-146 452,-140 452,-140 452,-137 455,-134 458,-134 458,-134 500,-134 500,-134 503,-134 506,-137 506,-140 506,-140 506,-146 506,-146 506,-149 503,-152 500,-152"/>
<text text-anchor="start" x="460.5" y="-140.8" font-family="Helvetica,sans-Serif" font-size="9.00">index.ts</text>
</a>
</g>
</g>
<!-- packages/cli/post&#45;crepe/index.ts&#45;&gt;packages/cli/post&#45;crepe/src/facade/index.ts -->
<g id="edge2" class="edge">
<title>packages/cli/post&#45;crepe/index.ts&#45;&gt;packages/cli/post&#45;crepe/src/facade/index.ts</title>
<path fill="none" stroke="#000000" stroke-width="2" stroke-opacity="0.200000" d="M80.93,-140.2C93.82,-150.57 113,-166 113,-166 113,-166 436,-166 436,-166 436,-166 445.91,-160.58 456.1,-154.99"/>
<polygon fill="#000000" fill-opacity="0.200000" stroke="#000000" stroke-width="2" stroke-opacity="0.200000" points="457.15,-156.81 461.4,-152.09 455.13,-153.13 457.15,-156.81"/>
</g>
<!-- packages/cli/post&#45;crepe/src/get&#45;median&#45;frequency.ts -->
<g id="node9" class="node">
<title>packages/cli/post&#45;crepe/src/get&#45;median&#45;frequency.ts</title>
<g id="a_node9"><a xlink:href="packages/cli/post-crepe/src/get-median-frequency.ts" xlink:title="get&#45;median&#45;frequency.ts">
<path fill="#ddfeff" stroke="black" d="M332,-144C332,-144 217,-144 217,-144 214,-144 211,-141 211,-138 211,-138 211,-132 211,-132 211,-129 214,-126 217,-126 217,-126 332,-126 332,-126 335,-126 338,-129 338,-132 338,-132 338,-138 338,-138 338,-141 335,-144 332,-144"/>
<text text-anchor="start" x="219" y="-132.8" font-family="Helvetica,sans-Serif" font-size="9.00">get&#45;median&#45;frequency.ts</text>
</a>
</g>
</g>
<!-- packages/cli/post&#45;crepe/src/index.ts&#45;&gt;packages/cli/post&#45;crepe/src/get&#45;median&#45;frequency.ts -->
<g id="edge9" class="edge">
<title>packages/cli/post&#45;crepe/src/index.ts&#45;&gt;packages/cli/post&#45;crepe/src/get&#45;median&#45;frequency.ts</title>
<path fill="none" stroke="#000000" stroke-width="2" stroke-opacity="0.200000" d="M184.6,-135C190.81,-135 197.73,-135 204.88,-135"/>
<polygon fill="#000000" fill-opacity="0.200000" stroke="#000000" stroke-width="2" stroke-opacity="0.200000" points="210.94,-137.1 204.94,-135 210.94,-132.9 210.94,-137.1"/>
</g>
<!-- packages/util/math/dist/index.js -->
<g id="node7" class="node">
<title>packages/util/math/dist/index.js</title>
<g id="a_node7"><a xlink:href="packages/util/math/dist/index.js" xlink:title="index.js">
<polygon fill="#ffffcc" stroke="black" points="616,-306 614.5,-308 604,-308 602.5,-306 562,-306 562,-288 616,-288 616,-306"/>
<text text-anchor="start" x="571.5" y="-294.8" font-family="Helvetica,sans-Serif" font-size="9.00">index.js</text>
</a>
</g>
</g>
<!-- packages/cli/post&#45;crepe/src/facade/index.ts&#45;&gt;packages/util/math/dist/index.js -->
<g id="edge5" class="edge">
<title>packages/cli/post&#45;crepe/src/facade/index.ts&#45;&gt;packages/util/math/dist/index.js</title>
<path fill="none" stroke="#000000" stroke-width="2" stroke-opacity="0.200000" d="M486.43,-152.17C504.55,-178 556.09,-251.5 577.98,-282.71"/>
<polygon fill="#000000" fill-opacity="0.200000" stroke="#000000" stroke-width="2" stroke-opacity="0.200000" points="579.75,-288.89 578.02,-282.77 583.18,-286.48 579.75,-288.89"/>
</g>
<!-- packages/cli/post&#45;f0&#45;util/dist/index.js -->
<g id="node8" class="node">
<title>packages/cli/post&#45;f0&#45;util/dist/index.js</title>
<g id="a_node8"><a xlink:href="packages/cli/post-f0-util/dist/index.js" xlink:title="index.js">
<polygon fill="#ffffcc" stroke="black" points="616,-152 614.5,-154 604,-154 602.5,-152 562,-152 562,-134 616,-134 616,-152"/>
<text text-anchor="start" x="571.5" y="-140.8" font-family="Helvetica,sans-Serif" font-size="9.00">index.js</text>
</a>
</g>
</g>
<!-- packages/cli/post&#45;crepe/src/facade/index.ts&#45;&gt;packages/cli/post&#45;f0&#45;util/dist/index.js -->
<g id="edge6" class="edge">
<title>packages/cli/post&#45;crepe/src/facade/index.ts&#45;&gt;packages/cli/post&#45;f0&#45;util/dist/index.js</title>
<path fill="none" stroke="#000000" stroke-width="2" stroke-opacity="0.200000" d="M506.14,-143C521.02,-143 539.79,-143 555.6,-143"/>
<polygon fill="#000000" fill-opacity="0.200000" stroke="#000000" stroke-width="2" stroke-opacity="0.200000" points="561.72,-145.1 555.72,-143 561.72,-140.9 561.72,-145.1"/>
</g>
<!-- packages/cli/post&#45;crepe/src/get&#45;median&#45;frequency.ts&#45;&gt;packages/cli/post&#45;crepe/src/facade/index.ts -->
<g id="edge7" class="edge">
<title>packages/cli/post&#45;crepe/src/get&#45;median&#45;frequency.ts&#45;&gt;packages/cli/post&#45;crepe/src/facade/index.ts</title>
<path fill="none" stroke="#000000" stroke-width="2" stroke-opacity="0.200000" d="M338.19,-134.17C345.83,-134.07 351,-134 351,-134 351,-134 436,-134 436,-134 436,-134 440.05,-134.87 445.64,-136.06"/>
<polygon fill="#000000" fill-opacity="0.200000" stroke="#000000" stroke-width="2" stroke-opacity="0.200000" points="445.33,-138.15 451.64,-137.35 446.21,-134.04 445.33,-138.15"/>
</g>
<!-- packages/cli/post&#45;crepe/src/median&#45;filter.ts -->
<g id="node10" class="node">
<title>packages/cli/post&#45;crepe/src/median&#45;filter.ts</title>
<g id="a_node10"><a xlink:href="packages/cli/post-crepe/src/median-filter.ts" xlink:title="median&#45;filter.ts">
<path fill="#ddfeff" stroke="black" d="M430,-158C430,-158 357,-158 357,-158 354,-158 351,-155 351,-152 351,-152 351,-146 351,-146 351,-143 354,-140 357,-140 357,-140 430,-140 430,-140 433,-140 436,-143 436,-146 436,-146 436,-152 436,-152 436,-155 433,-158 430,-158"/>
<text text-anchor="start" x="359" y="-146.8" font-family="Helvetica,sans-Serif" font-size="9.00">median&#45;filter.ts</text>
</a>
</g>
</g>
<!-- packages/cli/post&#45;crepe/src/get&#45;median&#45;frequency.ts&#45;&gt;packages/cli/post&#45;crepe/src/median&#45;filter.ts -->
<g id="edge8" class="edge">
<title>packages/cli/post&#45;crepe/src/get&#45;median&#45;frequency.ts&#45;&gt;packages/cli/post&#45;crepe/src/median&#45;filter.ts</title>
<path fill="none" stroke="#000000" stroke-width="2" stroke-opacity="0.200000" d="M338.11,-142.49C340.42,-142.77 342.72,-143.04 345,-143.32"/>
<polygon fill="#000000" fill-opacity="0.200000" stroke="#000000" stroke-width="2" stroke-opacity="0.200000" points="344.75,-145.4 350.96,-144.03 345.25,-141.23 344.75,-145.4"/>
</g>
<!-- packages/cli/post&#45;crepe/src/median&#45;filter.ts&#45;&gt;packages/cli/post&#45;crepe/src/facade/index.ts -->
<g id="edge10" class="edge">
<title>packages/cli/post&#45;crepe/src/median&#45;filter.ts&#45;&gt;packages/cli/post&#45;crepe/src/facade/index.ts</title>
<path fill="none" stroke="#000000" stroke-width="2" stroke-opacity="0.200000" d="M436.25,-146C439.35,-145.78 442.45,-145.55 445.48,-145.34"/>
<polygon fill="#000000" fill-opacity="0.200000" stroke="#000000" stroke-width="2" stroke-opacity="0.200000" points="445.75,-147.42 451.58,-144.9 445.44,-143.23 445.75,-147.42"/>
</g>
</g>
</svg>
