<?xml version="1.0" encoding="UTF-8" standalone="no"?>
<!DOCTYPE svg PUBLIC "-//W3C//DTD SVG 1.1//EN"
 "http://www.w3.org/Graphics/SVG/1.1/DTD/svg11.dtd">
<!-- Generated by graphviz version 2.43.0 (0)
 -->
<!-- Title: dependency&#45;cruiser output Pages: 1 -->
<svg width="593pt" height="358pt"
 viewBox="0.00 0.00 593.00 358.00" xmlns="http://www.w3.org/2000/svg" xmlns:xlink="http://www.w3.org/1999/xlink">
<g id="graph0" class="graph" transform="scale(1 1) rotate(0) translate(4 354)">
<title>dependency&#45;cruiser output</title>
<polygon fill="white" stroke="transparent" points="-4,4 -4,-354 589,-354 589,4 -4,4"/>
<g id="clust1" class="cluster">
<title>cluster_node_modules</title>
<path fill="#ffffff" stroke="black" stroke-width="2" d="M124.5,-8C124.5,-8 190.5,-8 190.5,-8 196.5,-8 202.5,-14 202.5,-20 202.5,-20 202.5,-48 202.5,-48 202.5,-54 196.5,-60 190.5,-60 190.5,-60 124.5,-60 124.5,-60 118.5,-60 112.5,-54 112.5,-48 112.5,-48 112.5,-20 112.5,-20 112.5,-14 118.5,-8 124.5,-8"/>
<text text-anchor="middle" x="157.5" y="-48.8" font-family="Helvetica,sans-Serif" font-weight="bold" font-size="9.00">node_modules</text>
</g>
<g id="clust2" class="cluster">
<title>cluster_packages</title>
<path fill="#ffffff" stroke="black" stroke-width="2" d="M20,-94C20,-94 565,-94 565,-94 571,-94 577,-100 577,-106 577,-106 577,-330 577,-330 577,-336 571,-342 565,-342 565,-342 20,-342 20,-342 14,-342 8,-336 8,-330 8,-330 8,-106 8,-106 8,-100 14,-94 20,-94"/>
<text text-anchor="middle" x="292.5" y="-330.8" font-family="Helvetica,sans-Serif" font-weight="bold" font-size="9.00">packages</text>
</g>
<g id="clust3" class="cluster">
<title>cluster_packages/cli</title>
<path fill="#ffffff" stroke="black" stroke-width="2" d="M28,-102C28,-102 447,-102 447,-102 453,-102 459,-108 459,-114 459,-114 459,-304 459,-304 459,-310 453,-316 447,-316 447,-316 28,-316 28,-316 22,-316 16,-310 16,-304 16,-304 16,-114 16,-114 16,-108 22,-102 28,-102"/>
<text text-anchor="middle" x="237.5" y="-304.8" font-family="Helvetica,sans-Serif" font-weight="bold" font-size="9.00">cli</text>
</g>
<g id="clust4" class="cluster">
<title>cluster_packages/cli/post&#45;crepe</title>
<path fill="#ffffff" stroke="black" stroke-width="2" d="M36,-110C36,-110 439,-110 439,-110 445,-110 451,-116 451,-122 451,-122 451,-184 451,-184 451,-190 445,-196 439,-196 439,-196 36,-196 36,-196 30,-196 24,-190 24,-184 24,-184 24,-122 24,-122 24,-116 30,-110 36,-110"/>
<text text-anchor="middle" x="237.5" y="-184.8" font-family="Helvetica,sans-Serif" font-weight="bold" font-size="9.00">post&#45;crepe</text>
</g>
<g id="clust5" class="cluster">
<title>cluster_packages/cli/post&#45;crepe/src</title>
<path fill="#ffffff" stroke="black" stroke-width="2" d="M134,-118C134,-118 431,-118 431,-118 437,-118 443,-124 443,-130 443,-130 443,-158 443,-158 443,-164 437,-170 431,-170 431,-170 134,-170 134,-170 128,-170 122,-164 122,-158 122,-158 122,-130 122,-130 122,-124 128,-118 134,-118"/>
<text text-anchor="middle" x="282.5" y="-158.8" font-family="Helvetica,sans-Serif" font-weight="bold" font-size="9.00">src</text>
</g>
<g id="clust6" class="cluster">
<title>cluster_packages/cli/post&#45;f0&#45;util</title>
<path fill="#ffffff" stroke="black" stroke-width="2" d="M126,-204C126,-204 188,-204 188,-204 194,-204 200,-210 200,-216 200,-216 200,-278 200,-278 200,-284 194,-290 188,-290 188,-290 126,-290 126,-290 120,-290 114,-284 114,-278 114,-278 114,-216 114,-216 114,-210 120,-204 126,-204"/>
<text text-anchor="middle" x="157" y="-278.8" font-family="Helvetica,sans-Serif" font-weight="bold" font-size="9.00">post&#45;f0&#45;util</text>
</g>
<g id="clust7" class="cluster">
<title>cluster_packages/cli/post&#45;f0&#45;util/dist</title>
<path fill="#ffffff" stroke="black" stroke-width="2" d="M134,-212C134,-212 180,-212 180,-212 186,-212 192,-218 192,-224 192,-224 192,-252 192,-252 192,-258 186,-264 180,-264 180,-264 134,-264 134,-264 128,-264 122,-258 122,-252 122,-252 122,-224 122,-224 122,-218 128,-212 134,-212"/>
<text text-anchor="middle" x="157" y="-252.8" font-family="Helvetica,sans-Serif" font-weight="bold" font-size="9.00">dist</text>
</g>
<g id="clust8" class="cluster">
<title>cluster_packages/util</title>
<path fill="#ffffff" stroke="black" stroke-width="2" d="M479,-113C479,-113 557,-113 557,-113 563,-113 569,-119 569,-125 569,-125 569,-221 569,-221 569,-227 563,-233 557,-233 557,-233 479,-233 479,-233 473,-233 467,-227 467,-221 467,-221 467,-125 467,-125 467,-119 473,-113 479,-113"/>
<text text-anchor="middle" x="518" y="-221.8" font-family="Helvetica,sans-Serif" font-weight="bold" font-size="9.00">util</text>
</g>
<g id="clust9" class="cluster">
<title>cluster_packages/util/math</title>
<path fill="#ffffff" stroke="black" stroke-width="2" d="M487,-121C487,-121 549,-121 549,-121 555,-121 561,-127 561,-133 561,-133 561,-195 561,-195 561,-201 555,-207 549,-207 549,-207 487,-207 487,-207 481,-207 475,-201 475,-195 475,-195 475,-133 475,-133 475,-127 481,-121 487,-121"/>
<text text-anchor="middle" x="518" y="-195.8" font-family="Helvetica,sans-Serif" font-weight="bold" font-size="9.00">math</text>
</g>
<g id="clust10" class="cluster">
<title>cluster_packages/util/math/dist</title>
<path fill="#ffffff" stroke="black" stroke-width="2" d="M495,-129C495,-129 541,-129 541,-129 547,-129 553,-135 553,-141 553,-141 553,-169 553,-169 553,-175 547,-181 541,-181 541,-181 495,-181 495,-181 489,-181 483,-175 483,-169 483,-169 483,-141 483,-141 483,-135 489,-129 495,-129"/>
<text text-anchor="middle" x="518" y="-169.8" font-family="Helvetica,sans-Serif" font-weight="bold" font-size="9.00">dist</text>
</g>
<!-- fs -->
<g id="node1" class="node">
<title>fs</title>
<g id="a_node1"><a xlink:href="https://nodejs.org/api/fs.html" xlink:title="fs">
<path fill="#ffffcc" stroke="white" d="M178,-86C178,-86 136,-86 136,-86 133,-86 130,-83 130,-80 130,-80 130,-74 130,-74 130,-71 133,-68 136,-68 136,-68 178,-68 178,-68 181,-68 184,-71 184,-74 184,-74 184,-80 184,-80 184,-83 181,-86 178,-86"/>
<text text-anchor="middle" x="157" y="-74.8" font-family="Helvetica,sans-Serif" font-size="9.00" fill="grey">fs</text>
</a>
</g>
</g>
<!-- node_modules/csv&#45;parse -->
<g id="node2" class="node">
<title>node_modules/csv&#45;parse</title>
<g id="a_node2"><a xlink:href="https://www.npmjs.com/package/csv-parse" xlink:title="csv&#45;parse">
<polygon fill="#c40b0a" fill-opacity="0.101961" stroke="black" points="186.5,-34 129.5,-34 127.5,-32 127.5,-16 184.5,-16 186.5,-18 186.5,-34"/>
<polyline fill="none" stroke="black" points="184.5,-32 127.5,-32 "/>
<polyline fill="none" stroke="black" points="184.5,-32 184.5,-16 "/>
<polyline fill="none" stroke="black" points="184.5,-32 186.5,-34 "/>
<text text-anchor="start" x="135.5" y="-22.8" font-family="Helvetica,sans-Serif" font-size="9.00" fill="#c40b0a">csv&#45;parse</text>
</a>
</g>
</g>
<!-- packages/cli/post&#45;crepe/index.test.ts -->
<g id="node3" class="node">
<title>packages/cli/post&#45;crepe/index.test.ts</title>
<g id="a_node3"><a xlink:href="packages/cli/post-crepe/index.test.ts" xlink:title="no&#45;orphans">
<path fill="#ccffcc" stroke="orange" d="M99,-169C99,-169 38,-169 38,-169 35,-169 32,-166 32,-163 32,-163 32,-157 32,-157 32,-154 35,-151 38,-151 38,-151 99,-151 99,-151 102,-151 105,-154 105,-157 105,-157 105,-163 105,-163 105,-166 102,-169 99,-169"/>
<text text-anchor="start" x="40" y="-157.8" font-family="Helvetica,sans-Serif" font-size="9.00" fill="orange">index.test.ts</text>
</a>
</g>
</g>
<!-- packages/cli/post&#45;crepe/index.ts -->
<g id="node4" class="node">
<title>packages/cli/post&#45;crepe/index.ts</title>
<g id="a_node4"><a xlink:href="packages/cli/post-crepe/index.ts" xlink:title="index.ts">
<path fill="#ddfeff" stroke="black" d="M89.5,-138C89.5,-138 47.5,-138 47.5,-138 44.5,-138 41.5,-135 41.5,-132 41.5,-132 41.5,-126 41.5,-126 41.5,-123 44.5,-120 47.5,-120 47.5,-120 89.5,-120 89.5,-120 92.5,-120 95.5,-123 95.5,-126 95.5,-126 95.5,-132 95.5,-132 95.5,-135 92.5,-138 89.5,-138"/>
<text text-anchor="start" x="50" y="-126.8" font-family="Helvetica,sans-Serif" font-size="9.00">index.ts</text>
</a>
</g>
</g>
<!-- packages/cli/post&#45;crepe/index.ts&#45;&gt;fs -->
<g id="edge4" class="edge">
<title>packages/cli/post&#45;crepe/index.ts&#45;&gt;fs</title>
<path fill="none" stroke="#000000" stroke-dasharray="5,2" stroke-opacity="0.200000" d="M84.57,-119.94C98.87,-111.35 120.45,-98.37 136.15,-88.93"/>
<polygon fill="#000000" fill-opacity="0.200000" stroke="#000000" stroke-opacity="0.200000" points="140.82,-86.13 137.69,-90.63 138.67,-87.42 136.53,-88.7 136.53,-88.7 136.53,-88.7 138.67,-87.42 135.37,-86.78 140.82,-86.13 140.82,-86.13"/>
</g>
<!-- packages/cli/post&#45;crepe/index.ts&#45;&gt;node_modules/csv&#45;parse -->
<g id="edge3" class="edge">
<title>packages/cli/post&#45;crepe/index.ts&#45;&gt;node_modules/csv&#45;parse</title>
<path fill="none" stroke="#000000" stroke-opacity="0.200000" d="M75.3,-119.96C87.04,-101.68 112.5,-62 112.5,-62 112.5,-62 128.35,-48.52 140.92,-37.83"/>
<polygon fill="#000000" fill-opacity="0.200000" stroke="#000000" stroke-opacity="0.200000" points="145.02,-34.34 142.67,-39.29 143.12,-35.96 141.21,-37.58 141.21,-37.58 141.21,-37.58 143.12,-35.96 139.76,-35.86 145.02,-34.34 145.02,-34.34"/>
</g>
<!-- packages/cli/post&#45;crepe/src/index.ts -->
<g id="node5" class="node">
<title>packages/cli/post&#45;crepe/src/index.ts</title>
<g id="a_node5"><a xlink:href="packages/cli/post-crepe/src/index.ts" xlink:title="index.ts">
<path fill="#ddfeff" stroke="black" d="M178,-144C178,-144 136,-144 136,-144 133,-144 130,-141 130,-138 130,-138 130,-132 130,-132 130,-129 133,-126 136,-126 136,-126 178,-126 178,-126 181,-126 184,-129 184,-132 184,-132 184,-138 184,-138 184,-141 181,-144 178,-144"/>
<text text-anchor="start" x="138.5" y="-132.8" font-family="Helvetica,sans-Serif" font-size="9.00">index.ts</text>
</a>
</g>
</g>
<!-- packages/cli/post&#45;crepe/index.ts&#45;&gt;packages/cli/post&#45;crepe/src/index.ts -->
<g id="edge1" class="edge">
<title>packages/cli/post&#45;crepe/index.ts&#45;&gt;packages/cli/post&#45;crepe/src/index.ts</title>
<path fill="none" stroke="#000000" stroke-opacity="0.200000" d="M95.92,-130.83C104.98,-131.46 115.2,-132.17 124.61,-132.82"/>
<polygon fill="#000000" fill-opacity="0.200000" stroke="#000000" stroke-opacity="0.200000" points="129.74,-133.18 124.6,-135.08 127.24,-133.01 124.75,-132.83 124.75,-132.83 124.75,-132.83 127.24,-133.01 124.91,-130.59 129.74,-133.18 129.74,-133.18"/>
</g>
<!-- packages/cli/post&#45;f0&#45;util/dist/index.js -->
<g id="node6" class="node">
<title>packages/cli/post&#45;f0&#45;util/dist/index.js</title>
<g id="a_node6"><a xlink:href="packages/cli/post-f0-util/dist/index.js" xlink:title="index.js">
<polygon fill="#ffffcc" stroke="black" points="184,-238 182.5,-240 172,-240 170.5,-238 130,-238 130,-220 184,-220 184,-238"/>
<text text-anchor="start" x="139.5" y="-226.8" font-family="Helvetica,sans-Serif" font-size="9.00">index.js</text>
</a>
</g>
</g>
<!-- packages/cli/post&#45;crepe/index.ts&#45;&gt;packages/cli/post&#45;f0&#45;util/dist/index.js -->
<g id="edge2" class="edge">
<title>packages/cli/post&#45;crepe/index.ts&#45;&gt;packages/cli/post&#45;f0&#45;util/dist/index.js</title>
<path fill="none" stroke="#000000" stroke-opacity="0.200000" d="M89.74,-138.12C97.71,-141.71 105,-145 105,-145 105,-145 112.5,-173 112.5,-173 112.5,-173 132.86,-199.22 145.73,-215.77"/>
<polygon fill="#000000" fill-opacity="0.200000" stroke="#000000" stroke-opacity="0.200000" points="148.82,-219.75 143.97,-217.18 147.28,-217.78 145.75,-215.8 145.75,-215.8 145.75,-215.8 147.28,-217.78 147.53,-214.42 148.82,-219.75 148.82,-219.75"/>
</g>
<!-- packages/cli/post&#45;crepe/src/get&#45;median&#45;frequency.ts -->
<g id="node7" class="node">
<title>packages/cli/post&#45;crepe/src/get&#45;median&#45;frequency.ts</title>
<g id="a_node7"><a xlink:href="packages/cli/post-crepe/src/get-median-frequency.ts" xlink:title="get&#45;median&#45;frequency.ts">
<path fill="#ddfeff" stroke="black" d="M331,-144C331,-144 216,-144 216,-144 213,-144 210,-141 210,-138 210,-138 210,-132 210,-132 210,-129 213,-126 216,-126 216,-126 331,-126 331,-126 334,-126 337,-129 337,-132 337,-132 337,-138 337,-138 337,-141 334,-144 331,-144"/>
<text text-anchor="start" x="218" y="-132.8" font-family="Helvetica,sans-Serif" font-size="9.00">get&#45;median&#45;frequency.ts</text>
</a>
</g>
</g>
<!-- packages/cli/post&#45;crepe/src/index.ts&#45;&gt;packages/cli/post&#45;crepe/src/get&#45;median&#45;frequency.ts -->
<g id="edge7" class="edge">
<title>packages/cli/post&#45;crepe/src/index.ts&#45;&gt;packages/cli/post&#45;crepe/src/get&#45;median&#45;frequency.ts</title>
<path fill="none" stroke="#000000" stroke-opacity="0.200000" d="M184.27,-135C190.37,-135 197.15,-135 204.15,-135"/>
<polygon fill="#000000" fill-opacity="0.200000" stroke="#000000" stroke-opacity="0.200000" points="209.55,-136.75 204.55,-135 209.55,-133.25 209.55,-136.75"/>
</g>
<!-- packages/cli/post&#45;crepe/src/median&#45;filter.ts -->
<g id="node8" class="node">
<title>packages/cli/post&#45;crepe/src/median&#45;filter.ts</title>
<g id="a_node8"><a xlink:href="packages/cli/post-crepe/src/median-filter.ts" xlink:title="median&#45;filter.ts">
<path fill="#ddfeff" stroke="black" d="M429,-144C429,-144 356,-144 356,-144 353,-144 350,-141 350,-138 350,-138 350,-132 350,-132 350,-129 353,-126 356,-126 356,-126 429,-126 429,-126 432,-126 435,-129 435,-132 435,-132 435,-138 435,-138 435,-141 432,-144 429,-144"/>
<text text-anchor="start" x="358" y="-132.8" font-family="Helvetica,sans-Serif" font-size="9.00">median&#45;filter.ts</text>
</a>
</g>
</g>
<!-- packages/cli/post&#45;crepe/src/get&#45;median&#45;frequency.ts&#45;&gt;packages/cli/post&#45;crepe/src/median&#45;filter.ts -->
<g id="edge5" class="edge">
<title>packages/cli/post&#45;crepe/src/get&#45;median&#45;frequency.ts&#45;&gt;packages/cli/post&#45;crepe/src/median&#45;filter.ts</title>
<path fill="none" stroke="#000000" stroke-opacity="0.200000" d="M337.11,-135C339.69,-135 342.26,-135 344.8,-135"/>
<polygon fill="#000000" fill-opacity="0.200000" stroke="#000000" stroke-opacity="0.200000" points="349.96,-135 344.96,-137.25 347.46,-135 344.96,-135 344.96,-135 344.96,-135 347.46,-135 344.96,-132.75 349.96,-135 349.96,-135"/>
</g>
<!-- packages/util/math/dist/index.js -->
<g id="node9" class="node">
<title>packages/util/math/dist/index.js</title>
<g id="a_node9"><a xlink:href="packages/util/math/dist/index.js" xlink:title="index.js">
<polygon fill="#ffffcc" stroke="black" points="545,-155 543.5,-157 533,-157 531.5,-155 491,-155 491,-137 545,-137 545,-155"/>
<text text-anchor="start" x="500.5" y="-143.8" font-family="Helvetica,sans-Serif" font-size="9.00">index.js</text>
</a>
</g>
</g>
<!-- packages/cli/post&#45;crepe/src/get&#45;median&#45;frequency.ts&#45;&gt;packages/util/math/dist/index.js -->
<g id="edge6" class="edge">
<title>packages/cli/post&#45;crepe/src/get&#45;median&#45;frequency.ts&#45;&gt;packages/util/math/dist/index.js</title>
<path fill="none" stroke="#000000" stroke-opacity="0.200000" d="M320.16,-144.07C336.06,-147.23 350,-150 350,-150 350,-150 459,-150 459,-150 459,-150 471.98,-149.1 485.67,-148.16"/>
<polygon fill="#000000" fill-opacity="0.200000" stroke="#000000" stroke-opacity="0.200000" points="490.72,-147.81 485.88,-150.4 488.22,-147.98 485.73,-148.16 485.73,-148.16 485.73,-148.16 488.22,-147.98 485.57,-145.91 490.72,-147.81 490.72,-147.81"/>
</g>
<!-- packages/cli/post&#45;crepe/src/median&#45;filter.ts&#45;&gt;packages/util/math/dist/index.js -->
<g id="edge8" class="edge">
<title>packages/cli/post&#45;crepe/src/median&#45;filter.ts&#45;&gt;packages/util/math/dist/index.js</title>
<path fill="none" stroke="#000000" stroke-opacity="0.200000" d="M435.31,-138.72C451.78,-140.19 470.38,-141.85 485.66,-143.21"/>
<polygon fill="#000000" fill-opacity="0.200000" stroke="#000000" stroke-opacity="0.200000" points="490.7,-143.66 485.52,-145.46 488.21,-143.44 485.72,-143.21 485.72,-143.21 485.72,-143.21 488.21,-143.44 485.92,-140.97 490.7,-143.66 490.7,-143.66"/>
</g>
</g>
</svg>
