<?xml version="1.0" encoding="UTF-8" standalone="no"?>
<!DOCTYPE svg PUBLIC "-//W3C//DTD SVG 1.1//EN"
 "http://www.w3.org/Graphics/SVG/1.1/DTD/svg11.dtd">
<!-- Generated by graphviz version 2.43.0 (0)
 -->
<!-- Title: dependency&#45;cruiser output Pages: 1 -->
<svg width="581pt" height="818pt"
 viewBox="0.00 0.00 581.00 818.00" xmlns="http://www.w3.org/2000/svg" xmlns:xlink="http://www.w3.org/1999/xlink">
<g id="graph0" class="graph" transform="scale(1 1) rotate(0) translate(4 814)">
<title>dependency&#45;cruiser output</title>
<polygon fill="white" stroke="transparent" points="-4,4 -4,-814 577,-814 577,4 -4,4"/>
<g id="clust1" class="cluster">
<title>cluster_packages</title>
<path fill="#ffffff" stroke="black" stroke-width="2" d="M20,-8C20,-8 561,-8 561,-8 567,-8 573,-14 573,-20 573,-20 573,-790 573,-790 573,-796 567,-802 561,-802 561,-802 20,-802 20,-802 14,-802 8,-796 8,-790 8,-790 8,-20 8,-20 8,-14 14,-8 20,-8"/>
<text text-anchor="middle" x="290.5" y="-790.8" font-family="Helvetica,sans-Serif" font-weight="bold" font-size="9.00">packages</text>
</g>
<g id="clust2" class="cluster">
<title>cluster_packages/cognitive&#45;theory&#45;of&#45;music</title>
<path fill="#ffffff" stroke="black" stroke-width="2" d="M428,-528C428,-528 553,-528 553,-528 559,-528 565,-534 565,-540 565,-540 565,-636 565,-636 565,-642 559,-648 553,-648 553,-648 428,-648 428,-648 422,-648 416,-642 416,-636 416,-636 416,-540 416,-540 416,-534 422,-528 428,-528"/>
<text text-anchor="middle" x="490.5" y="-636.8" font-family="Helvetica,sans-Serif" font-weight="bold" font-size="9.00">cognitive&#45;theory&#45;of&#45;music</text>
</g>
<g id="clust3" class="cluster">
<title>cluster_packages/cognitive&#45;theory&#45;of&#45;music/gttm</title>
<path fill="#ffffff" stroke="black" stroke-width="2" d="M459,-536C459,-536 521,-536 521,-536 527,-536 533,-542 533,-548 533,-548 533,-610 533,-610 533,-616 527,-622 521,-622 521,-622 459,-622 459,-622 453,-622 447,-616 447,-610 447,-610 447,-548 447,-548 447,-542 453,-536 459,-536"/>
<text text-anchor="middle" x="490" y="-610.8" font-family="Helvetica,sans-Serif" font-weight="bold" font-size="9.00">gttm</text>
</g>
<g id="clust4" class="cluster">
<title>cluster_packages/cognitive&#45;theory&#45;of&#45;music/gttm/dist</title>
<path fill="#ffffff" stroke="black" stroke-width="2" d="M467,-544C467,-544 513,-544 513,-544 519,-544 525,-550 525,-556 525,-556 525,-584 525,-584 525,-590 519,-596 513,-596 513,-596 467,-596 467,-596 461,-596 455,-590 455,-584 455,-584 455,-556 455,-556 455,-550 461,-544 467,-544"/>
<text text-anchor="middle" x="490" y="-584.8" font-family="Helvetica,sans-Serif" font-weight="bold" font-size="9.00">dist</text>
</g>
<g id="clust5" class="cluster">
<title>cluster_packages/data&#45;type</title>
<path fill="#ffffff" stroke="black" stroke-width="2" d="M451,-656C451,-656 529,-656 529,-656 535,-656 541,-662 541,-668 541,-668 541,-764 541,-764 541,-770 535,-776 529,-776 529,-776 451,-776 451,-776 445,-776 439,-770 439,-764 439,-764 439,-668 439,-668 439,-662 445,-656 451,-656"/>
<text text-anchor="middle" x="490" y="-764.8" font-family="Helvetica,sans-Serif" font-weight="bold" font-size="9.00">data&#45;type</text>
</g>
<g id="clust6" class="cluster">
<title>cluster_packages/data&#45;type/music&#45;xml</title>
<path fill="#ffffff" stroke="black" stroke-width="2" d="M459,-664C459,-664 521,-664 521,-664 527,-664 533,-670 533,-676 533,-676 533,-738 533,-738 533,-744 527,-750 521,-750 521,-750 459,-750 459,-750 453,-750 447,-744 447,-738 447,-738 447,-676 447,-676 447,-670 453,-664 459,-664"/>
<text text-anchor="middle" x="490" y="-738.8" font-family="Helvetica,sans-Serif" font-weight="bold" font-size="9.00">music&#45;xml</text>
</g>
<g id="clust7" class="cluster">
<title>cluster_packages/data&#45;type/music&#45;xml/dist</title>
<path fill="#ffffff" stroke="black" stroke-width="2" d="M467,-672C467,-672 513,-672 513,-672 519,-672 525,-678 525,-684 525,-684 525,-712 525,-712 525,-718 519,-724 513,-724 513,-724 467,-724 467,-724 461,-724 455,-718 455,-712 455,-712 455,-684 455,-684 455,-678 461,-672 467,-672"/>
<text text-anchor="middle" x="490" y="-712.8" font-family="Helvetica,sans-Serif" font-weight="bold" font-size="9.00">dist</text>
</g>
<g id="clust8" class="cluster">
<title>cluster_packages/music&#45;structure</title>
<path fill="#ffffff" stroke="black" stroke-width="2" d="M28,-238C28,-238 543,-238 543,-238 549,-238 555,-244 555,-250 555,-250 555,-508 555,-508 555,-514 549,-520 543,-520 543,-520 28,-520 28,-520 22,-520 16,-514 16,-508 16,-508 16,-250 16,-250 16,-244 22,-238 28,-238"/>
<text text-anchor="middle" x="285.5" y="-508.8" font-family="Helvetica,sans-Serif" font-weight="bold" font-size="9.00">music&#45;structure</text>
</g>
<g id="clust9" class="cluster">
<title>cluster_packages/music&#45;structure/chord</title>
<path fill="#ffffff" stroke="black" stroke-width="2" d="M283.5,-374C283.5,-374 364.5,-374 364.5,-374 370.5,-374 376.5,-380 376.5,-386 376.5,-386 376.5,-482 376.5,-482 376.5,-488 370.5,-494 364.5,-494 364.5,-494 283.5,-494 283.5,-494 277.5,-494 271.5,-488 271.5,-482 271.5,-482 271.5,-386 271.5,-386 271.5,-380 277.5,-374 283.5,-374"/>
<text text-anchor="middle" x="324" y="-482.8" font-family="Helvetica,sans-Serif" font-weight="bold" font-size="9.00">chord</text>
</g>
<g id="clust10" class="cluster">
<title>cluster_packages/music&#45;structure/chord/chord&#45;analyze</title>
<path fill="#ffffff" stroke="black" stroke-width="2" d="M291.5,-382C291.5,-382 356.5,-382 356.5,-382 362.5,-382 368.5,-388 368.5,-394 368.5,-394 368.5,-456 368.5,-456 368.5,-462 362.5,-468 356.5,-468 356.5,-468 291.5,-468 291.5,-468 285.5,-468 279.5,-462 279.5,-456 279.5,-456 279.5,-394 279.5,-394 279.5,-388 285.5,-382 291.5,-382"/>
<text text-anchor="middle" x="324" y="-456.8" font-family="Helvetica,sans-Serif" font-weight="bold" font-size="9.00">chord&#45;analyze</text>
</g>
<g id="clust11" class="cluster">
<title>cluster_packages/music&#45;structure/chord/chord&#45;analyze/dist</title>
<path fill="#ffffff" stroke="black" stroke-width="2" d="M300.5,-390C300.5,-390 346.5,-390 346.5,-390 352.5,-390 358.5,-396 358.5,-402 358.5,-402 358.5,-430 358.5,-430 358.5,-436 352.5,-442 346.5,-442 346.5,-442 300.5,-442 300.5,-442 294.5,-442 288.5,-436 288.5,-430 288.5,-430 288.5,-402 288.5,-402 288.5,-396 294.5,-390 300.5,-390"/>
<text text-anchor="middle" x="323.5" y="-430.8" font-family="Helvetica,sans-Serif" font-weight="bold" font-size="9.00">dist</text>
</g>
<g id="clust12" class="cluster">
<title>cluster_packages/music&#45;structure/melody</title>
<path fill="#ffffff" stroke="black" stroke-width="2" d="M36,-246C36,-246 535,-246 535,-246 541,-246 547,-252 547,-258 547,-258 547,-354 547,-354 547,-360 541,-366 535,-366 535,-366 36,-366 36,-366 30,-366 24,-360 24,-354 24,-354 24,-258 24,-258 24,-252 30,-246 36,-246"/>
<text text-anchor="middle" x="285.5" y="-354.8" font-family="Helvetica,sans-Serif" font-weight="bold" font-size="9.00">melody</text>
</g>
<g id="clust13" class="cluster">
<title>cluster_packages/music&#45;structure/melody/melody&#45;analyze</title>
<path fill="#ffffff" stroke="black" stroke-width="2" d="M454,-254C454,-254 527,-254 527,-254 533,-254 539,-260 539,-266 539,-266 539,-328 539,-328 539,-334 533,-340 527,-340 527,-340 454,-340 454,-340 448,-340 442,-334 442,-328 442,-328 442,-266 442,-266 442,-260 448,-254 454,-254"/>
<text text-anchor="middle" x="490.5" y="-328.8" font-family="Helvetica,sans-Serif" font-weight="bold" font-size="9.00">melody&#45;analyze</text>
</g>
<g id="clust14" class="cluster">
<title>cluster_packages/music&#45;structure/melody/melody&#45;analyze/dist</title>
<path fill="#ffffff" stroke="black" stroke-width="2" d="M467,-262C467,-262 513,-262 513,-262 519,-262 525,-268 525,-274 525,-274 525,-302 525,-302 525,-308 519,-314 513,-314 513,-314 467,-314 467,-314 461,-314 455,-308 455,-302 455,-302 455,-274 455,-274 455,-268 461,-262 467,-262"/>
<text text-anchor="middle" x="490" y="-302.8" font-family="Helvetica,sans-Serif" font-weight="bold" font-size="9.00">dist</text>
</g>
<g id="clust15" class="cluster">
<title>cluster_packages/music&#45;structure/melody/melody&#45;hierarchical&#45;analysis</title>
<path fill="#ffffff" stroke="black" stroke-width="2" d="M44,-254C44,-254 388,-254 388,-254 394,-254 400,-260 400,-266 400,-266 400,-328 400,-328 400,-334 394,-340 388,-340 388,-340 44,-340 44,-340 38,-340 32,-334 32,-328 32,-328 32,-266 32,-266 32,-260 38,-254 44,-254"/>
<text text-anchor="middle" x="216" y="-328.8" font-family="Helvetica,sans-Serif" font-weight="bold" font-size="9.00">melody&#45;hierarchical&#45;analysis</text>
</g>
<g id="clust16" class="cluster">
<title>cluster_packages/music&#45;structure/melody/melody&#45;hierarchical&#45;analysis/src</title>
<path fill="#ffffff" stroke="black" stroke-width="2" d="M114,-262C114,-262 380,-262 380,-262 386,-262 392,-268 392,-274 392,-274 392,-302 392,-302 392,-308 386,-314 380,-314 380,-314 114,-314 114,-314 108,-314 102,-308 102,-302 102,-302 102,-274 102,-274 102,-268 108,-262 114,-262"/>
<text text-anchor="middle" x="247" y="-302.8" font-family="Helvetica,sans-Serif" font-weight="bold" font-size="9.00">src</text>
</g>
<g id="clust17" class="cluster">
<title>cluster_packages/tonal&#45;objects</title>
<path fill="#ffffff" stroke="black" stroke-width="2" d="M459,-144C459,-144 521,-144 521,-144 527,-144 533,-150 533,-156 533,-156 533,-218 533,-218 533,-224 527,-230 521,-230 521,-230 459,-230 459,-230 453,-230 447,-224 447,-218 447,-218 447,-156 447,-156 447,-150 453,-144 459,-144"/>
<text text-anchor="middle" x="490" y="-218.8" font-family="Helvetica,sans-Serif" font-weight="bold" font-size="9.00">tonal&#45;objects</text>
</g>
<g id="clust18" class="cluster">
<title>cluster_packages/tonal&#45;objects/dist</title>
<path fill="#ffffff" stroke="black" stroke-width="2" d="M467,-152C467,-152 513,-152 513,-152 519,-152 525,-158 525,-164 525,-164 525,-192 525,-192 525,-198 519,-204 513,-204 513,-204 467,-204 467,-204 461,-204 455,-198 455,-192 455,-192 455,-164 455,-164 455,-158 461,-152 467,-152"/>
<text text-anchor="middle" x="490" y="-192.8" font-family="Helvetica,sans-Serif" font-weight="bold" font-size="9.00">dist</text>
</g>
<g id="clust19" class="cluster">
<title>cluster_packages/util</title>
<path fill="#ffffff" stroke="black" stroke-width="2" d="M451,-16C451,-16 529,-16 529,-16 535,-16 541,-22 541,-28 541,-28 541,-124 541,-124 541,-130 535,-136 529,-136 529,-136 451,-136 451,-136 445,-136 439,-130 439,-124 439,-124 439,-28 439,-28 439,-22 445,-16 451,-16"/>
<text text-anchor="middle" x="490" y="-124.8" font-family="Helvetica,sans-Serif" font-weight="bold" font-size="9.00">util</text>
</g>
<g id="clust20" class="cluster">
<title>cluster_packages/util/time&#45;and</title>
<path fill="#ffffff" stroke="black" stroke-width="2" d="M459,-24C459,-24 521,-24 521,-24 527,-24 533,-30 533,-36 533,-36 533,-98 533,-98 533,-104 527,-110 521,-110 521,-110 459,-110 459,-110 453,-110 447,-104 447,-98 447,-98 447,-36 447,-36 447,-30 453,-24 459,-24"/>
<text text-anchor="middle" x="490" y="-98.8" font-family="Helvetica,sans-Serif" font-weight="bold" font-size="9.00">time&#45;and</text>
</g>
<g id="clust21" class="cluster">
<title>cluster_packages/util/time&#45;and/dist</title>
<path fill="#ffffff" stroke="black" stroke-width="2" d="M467,-32C467,-32 513,-32 513,-32 519,-32 525,-38 525,-44 525,-44 525,-72 525,-72 525,-78 519,-84 513,-84 513,-84 467,-84 467,-84 461,-84 455,-78 455,-72 455,-72 455,-44 455,-44 455,-38 461,-32 467,-32"/>
<text text-anchor="middle" x="490" y="-72.8" font-family="Helvetica,sans-Serif" font-weight="bold" font-size="9.00">dist</text>
</g>
<!-- packages/cognitive&#45;theory&#45;of&#45;music/gttm/dist/index.js -->
<g id="node1" class="node">
<title>packages/cognitive&#45;theory&#45;of&#45;music/gttm/dist/index.js</title>
<g id="a_node1"><a xlink:href="packages/cognitive-theory-of-music/gttm/dist/index.js" xlink:title="index.js">
<polygon fill="#ffffcc" stroke="black" points="517,-570 515.5,-572 505,-572 503.5,-570 463,-570 463,-552 517,-552 517,-570"/>
<text text-anchor="start" x="472.5" y="-558.8" font-family="Helvetica,sans-Serif" font-size="9.00">index.js</text>
</a>
</g>
</g>
<!-- packages/data&#45;type/music&#45;xml/dist/index.js -->
<g id="node2" class="node">
<title>packages/data&#45;type/music&#45;xml/dist/index.js</title>
<g id="a_node2"><a xlink:href="packages/data-type/music-xml/dist/index.js" xlink:title="index.js">
<polygon fill="#ffffcc" stroke="black" points="517,-698 515.5,-700 505,-700 503.5,-698 463,-698 463,-680 517,-680 517,-698"/>
<text text-anchor="start" x="472.5" y="-686.8" font-family="Helvetica,sans-Serif" font-size="9.00">index.js</text>
</a>
</g>
</g>
<!-- packages/music&#45;structure/chord/chord&#45;analyze/dist/index.js -->
<g id="node3" class="node">
<title>packages/music&#45;structure/chord/chord&#45;analyze/dist/index.js</title>
<g id="a_node3"><a xlink:href="packages/music-structure/chord/chord-analyze/dist/index.js" xlink:title="index.js">
<polygon fill="#ffffcc" stroke="black" points="350.5,-416 349,-418 338.5,-418 337,-416 296.5,-416 296.5,-398 350.5,-398 350.5,-416"/>
<text text-anchor="start" x="306" y="-404.8" font-family="Helvetica,sans-Serif" font-size="9.00">index.js</text>
</a>
</g>
</g>
<!-- packages/music&#45;structure/melody/melody&#45;analyze/dist/index.js -->
<g id="node4" class="node">
<title>packages/music&#45;structure/melody/melody&#45;analyze/dist/index.js</title>
<g id="a_node4"><a xlink:href="packages/music-structure/melody/melody-analyze/dist/index.js" xlink:title="index.js">
<polygon fill="#ffffcc" stroke="black" points="517,-288 515.5,-290 505,-290 503.5,-288 463,-288 463,-270 517,-270 517,-288"/>
<text text-anchor="start" x="472.5" y="-276.8" font-family="Helvetica,sans-Serif" font-size="9.00">index.js</text>
</a>
</g>
</g>
<!-- packages/music&#45;structure/melody/melody&#45;hierarchical&#45;analysis/index.ts -->
<g id="node5" class="node">
<title>packages/music&#45;structure/melody/melody&#45;hierarchical&#45;analysis/index.ts</title>
<g id="a_node5"><a xlink:href="packages/music-structure/melody/melody-hierarchical-analysis/index.ts" xlink:title="index.ts">
<path fill="#ddfeff" stroke="black" d="M88,-288C88,-288 46,-288 46,-288 43,-288 40,-285 40,-282 40,-282 40,-276 40,-276 40,-273 43,-270 46,-270 46,-270 88,-270 88,-270 91,-270 94,-273 94,-276 94,-276 94,-282 94,-282 94,-285 91,-288 88,-288"/>
<text text-anchor="start" x="48.5" y="-276.8" font-family="Helvetica,sans-Serif" font-size="9.00">index.ts</text>
</a>
</g>
</g>
<!-- packages/music&#45;structure/melody/melody&#45;hierarchical&#45;analysis/src/get&#45;hierarchical&#45;melody.ts -->
<g id="node6" class="node">
<title>packages/music&#45;structure/melody/melody&#45;hierarchical&#45;analysis/src/get&#45;hierarchical&#45;melody.ts</title>
<g id="a_node6"><a xlink:href="packages/music-structure/melody/melody-hierarchical-analysis/src/get-hierarchical-melody.ts" xlink:title="get&#45;hierarchical&#45;melody.ts">
<path fill="#ddfeff" stroke="black" d="M237,-288C237,-288 116,-288 116,-288 113,-288 110,-285 110,-282 110,-282 110,-276 110,-276 110,-273 113,-270 116,-270 116,-270 237,-270 237,-270 240,-270 243,-273 243,-276 243,-276 243,-282 243,-282 243,-285 240,-288 237,-288"/>
<text text-anchor="start" x="118" y="-276.8" font-family="Helvetica,sans-Serif" font-size="9.00">get&#45;hierarchical&#45;melody.ts</text>
</a>
</g>
</g>
<!-- packages/music&#45;structure/melody/melody&#45;hierarchical&#45;analysis/index.ts&#45;&gt;packages/music&#45;structure/melody/melody&#45;hierarchical&#45;analysis/src/get&#45;hierarchical&#45;melody.ts -->
<g id="edge1" class="edge">
<title>packages/music&#45;structure/melody/melody&#45;hierarchical&#45;analysis/index.ts&#45;&gt;packages/music&#45;structure/melody/melody&#45;hierarchical&#45;analysis/src/get&#45;hierarchical&#45;melody.ts</title>
<path fill="none" stroke="#000000" stroke-width="2" stroke-opacity="0.200000" d="M94.02,-279C97.13,-279 100.41,-279 103.79,-279"/>
<polygon fill="#000000" fill-opacity="0.200000" stroke="#000000" stroke-width="2" stroke-opacity="0.200000" points="109.99,-281.1 103.99,-279 109.99,-276.9 109.99,-281.1"/>
</g>
<!-- packages/music&#45;structure/melody/melody&#45;hierarchical&#45;analysis/src/get&#45;hierarchical&#45;melody.ts&#45;&gt;packages/cognitive&#45;theory&#45;of&#45;music/gttm/dist/index.js -->
<g id="edge4" class="edge">
<title>packages/music&#45;structure/melody/melody&#45;hierarchical&#45;analysis/src/get&#45;hierarchical&#45;melody.ts&#45;&gt;packages/cognitive&#45;theory&#45;of&#45;music/gttm/dist/index.js</title>
<path fill="none" stroke="#000000" stroke-width="2" stroke-opacity="0.200000" d="M186.58,-288.06C232.36,-329.24 420.88,-498.82 475.25,-547.74"/>
<polygon fill="#000000" fill-opacity="0.200000" stroke="#000000" stroke-width="2" stroke-opacity="0.200000" points="473.94,-549.38 479.8,-551.83 476.75,-546.25 473.94,-549.38"/>
</g>
<!-- packages/music&#45;structure/melody/melody&#45;hierarchical&#45;analysis/src/get&#45;hierarchical&#45;melody.ts&#45;&gt;packages/data&#45;type/music&#45;xml/dist/index.js -->
<g id="edge6" class="edge">
<title>packages/music&#45;structure/melody/melody&#45;hierarchical&#45;analysis/src/get&#45;hierarchical&#45;melody.ts&#45;&gt;packages/data&#45;type/music&#45;xml/dist/index.js</title>
<path fill="none" stroke="#000000" stroke-width="2" stroke-opacity="0.200000" d="M183.64,-288.33C224.59,-341.9 429.65,-610.07 479.21,-674.88"/>
<polygon fill="#000000" fill-opacity="0.200000" stroke="#000000" stroke-width="2" stroke-opacity="0.200000" points="477.7,-676.37 483.01,-679.86 481.03,-673.82 477.7,-676.37"/>
</g>
<!-- packages/music&#45;structure/melody/melody&#45;hierarchical&#45;analysis/src/get&#45;hierarchical&#45;melody.ts&#45;&gt;packages/music&#45;structure/chord/chord&#45;analyze/dist/index.js -->
<g id="edge3" class="edge">
<title>packages/music&#45;structure/melody/melody&#45;hierarchical&#45;analysis/src/get&#45;hierarchical&#45;melody.ts&#45;&gt;packages/music&#45;structure/chord/chord&#45;analyze/dist/index.js</title>
<path fill="none" stroke="#000000" stroke-width="2" stroke-opacity="0.200000" d="M187.93,-288.21C213.22,-310.53 277.9,-367.63 307.41,-393.68"/>
<polygon fill="#000000" fill-opacity="0.200000" stroke="#000000" stroke-width="2" stroke-opacity="0.200000" points="306.28,-395.48 312.17,-397.88 309.06,-392.33 306.28,-395.48"/>
</g>
<!-- packages/music&#45;structure/melody/melody&#45;hierarchical&#45;analysis/src/get&#45;hierarchical&#45;melody.ts&#45;&gt;packages/music&#45;structure/melody/melody&#45;analyze/dist/index.js -->
<g id="edge5" class="edge">
<title>packages/music&#45;structure/melody/melody&#45;hierarchical&#45;analysis/src/get&#45;hierarchical&#45;melody.ts&#45;&gt;packages/music&#45;structure/melody/melody&#45;analyze/dist/index.js</title>
<path fill="none" stroke="#000000" stroke-width="2" stroke-opacity="0.200000" d="M243.37,-279C308.9,-279 406.09,-279 456.67,-279"/>
<polygon fill="#000000" fill-opacity="0.200000" stroke="#000000" stroke-width="2" stroke-opacity="0.200000" points="456.9,-281.1 462.9,-279 456.9,-276.9 456.9,-281.1"/>
</g>
<!-- packages/music&#45;structure/melody/melody&#45;hierarchical&#45;analysis/src/get&#45;time&#45;and&#45;melody.ts -->
<g id="node7" class="node">
<title>packages/music&#45;structure/melody/melody&#45;hierarchical&#45;analysis/src/get&#45;time&#45;and&#45;melody.ts</title>
<g id="a_node7"><a xlink:href="packages/music-structure/melody/melody-hierarchical-analysis/src/get-time-and-melody.ts" xlink:title="get&#45;time&#45;and&#45;melody.ts">
<path fill="#ddfeff" stroke="black" d="M378,-288C378,-288 269,-288 269,-288 266,-288 263,-285 263,-282 263,-282 263,-276 263,-276 263,-273 266,-270 269,-270 269,-270 378,-270 378,-270 381,-270 384,-273 384,-276 384,-276 384,-282 384,-282 384,-285 381,-288 378,-288"/>
<text text-anchor="start" x="271" y="-276.8" font-family="Helvetica,sans-Serif" font-size="9.00">get&#45;time&#45;and&#45;melody.ts</text>
</a>
</g>
</g>
<!-- packages/music&#45;structure/melody/melody&#45;hierarchical&#45;analysis/src/get&#45;hierarchical&#45;melody.ts&#45;&gt;packages/music&#45;structure/melody/melody&#45;hierarchical&#45;analysis/src/get&#45;time&#45;and&#45;melody.ts -->
<g id="edge2" class="edge">
<title>packages/music&#45;structure/melody/melody&#45;hierarchical&#45;analysis/src/get&#45;hierarchical&#45;melody.ts&#45;&gt;packages/music&#45;structure/melody/melody&#45;hierarchical&#45;analysis/src/get&#45;time&#45;and&#45;melody.ts</title>
<path fill="none" stroke="#000000" stroke-width="2" stroke-opacity="0.200000" d="M243.21,-279C247.75,-279 252.31,-279 256.85,-279"/>
<polygon fill="#000000" fill-opacity="0.200000" stroke="#000000" stroke-width="2" stroke-opacity="0.200000" points="257,-281.1 263,-279 257,-276.9 257,-281.1"/>
</g>
<!-- packages/music&#45;structure/melody/melody&#45;hierarchical&#45;analysis/src/get&#45;time&#45;and&#45;melody.ts&#45;&gt;packages/cognitive&#45;theory&#45;of&#45;music/gttm/dist/index.js -->
<g id="edge7" class="edge">
<title>packages/music&#45;structure/melody/melody&#45;hierarchical&#45;analysis/src/get&#45;time&#45;and&#45;melody.ts&#45;&gt;packages/cognitive&#45;theory&#45;of&#45;music/gttm/dist/index.js</title>
<path fill="none" stroke="#000000" stroke-width="2" stroke-opacity="0.200000" d="M329.79,-288.06C353.62,-328.91 451.14,-496.1 480.56,-546.53"/>
<polygon fill="#000000" fill-opacity="0.200000" stroke="#000000" stroke-width="2" stroke-opacity="0.200000" points="478.81,-547.7 483.65,-551.83 482.44,-545.59 478.81,-547.7"/>
</g>
<!-- packages/music&#45;structure/melody/melody&#45;hierarchical&#45;analysis/src/get&#45;time&#45;and&#45;melody.ts&#45;&gt;packages/data&#45;type/music&#45;xml/dist/index.js -->
<g id="edge9" class="edge">
<title>packages/music&#45;structure/melody/melody&#45;hierarchical&#45;analysis/src/get&#45;time&#45;and&#45;melody.ts&#45;&gt;packages/data&#45;type/music&#45;xml/dist/index.js</title>
<path fill="none" stroke="#000000" stroke-width="2" stroke-opacity="0.200000" d="M328.24,-288.33C349.65,-341.68 456.47,-607.92 483.02,-674.09"/>
<polygon fill="#000000" fill-opacity="0.200000" stroke="#000000" stroke-width="2" stroke-opacity="0.200000" points="481.15,-675.07 485.33,-679.86 485.05,-673.51 481.15,-675.07"/>
</g>
<!-- packages/music&#45;structure/melody/melody&#45;hierarchical&#45;analysis/src/get&#45;time&#45;and&#45;melody.ts&#45;&gt;packages/music&#45;structure/melody/melody&#45;analyze/dist/index.js -->
<g id="edge8" class="edge">
<title>packages/music&#45;structure/melody/melody&#45;hierarchical&#45;analysis/src/get&#45;time&#45;and&#45;melody.ts&#45;&gt;packages/music&#45;structure/melody/melody&#45;analyze/dist/index.js</title>
<path fill="none" stroke="#000000" stroke-width="2" stroke-opacity="0.200000" d="M384.35,-279C408.83,-279 436.17,-279 456.77,-279"/>
<polygon fill="#000000" fill-opacity="0.200000" stroke="#000000" stroke-width="2" stroke-opacity="0.200000" points="456.93,-281.1 462.93,-279 456.93,-276.9 456.93,-281.1"/>
</g>
<!-- packages/util/time&#45;and/dist/index.js -->
<g id="node8" class="node">
<title>packages/util/time&#45;and/dist/index.js</title>
<g id="a_node8"><a xlink:href="packages/util/time-and/dist/index.js" xlink:title="index.js">
<polygon fill="#ffffcc" stroke="black" points="517,-58 515.5,-60 505,-60 503.5,-58 463,-58 463,-40 517,-40 517,-58"/>
<text text-anchor="start" x="472.5" y="-46.8" font-family="Helvetica,sans-Serif" font-size="9.00">index.js</text>
</a>
</g>
</g>
<!-- packages/music&#45;structure/melody/melody&#45;hierarchical&#45;analysis/src/get&#45;time&#45;and&#45;melody.ts&#45;&gt;packages/util/time&#45;and/dist/index.js -->
<g id="edge10" class="edge">
<title>packages/music&#45;structure/melody/melody&#45;hierarchical&#45;analysis/src/get&#45;time&#45;and&#45;melody.ts&#45;&gt;packages/util/time&#45;and/dist/index.js</title>
<path fill="none" stroke="#000000" stroke-width="2" stroke-opacity="0.200000" d="M330.95,-269.98C356.13,-234.78 447.94,-106.41 478.8,-63.26"/>
<polygon fill="#000000" fill-opacity="0.200000" stroke="#000000" stroke-width="2" stroke-opacity="0.200000" points="480.63,-64.31 482.42,-58.2 477.22,-61.86 480.63,-64.31"/>
</g>
<!-- packages/tonal&#45;objects/dist/index.js -->
<g id="node9" class="node">
<title>packages/tonal&#45;objects/dist/index.js</title>
<g id="a_node9"><a xlink:href="packages/tonal-objects/dist/index.js" xlink:title="index.js">
<polygon fill="#ffffcc" stroke="black" points="517,-178 515.5,-180 505,-180 503.5,-178 463,-178 463,-160 517,-160 517,-178"/>
<text text-anchor="start" x="472.5" y="-166.8" font-family="Helvetica,sans-Serif" font-size="9.00">index.js</text>
</a>
</g>
</g>
<!-- packages/music&#45;structure/melody/melody&#45;hierarchical&#45;analysis/src/get&#45;time&#45;and&#45;melody.ts&#45;&gt;packages/tonal&#45;objects/dist/index.js -->
<g id="edge11" class="edge">
<title>packages/music&#45;structure/melody/melody&#45;hierarchical&#45;analysis/src/get&#45;time&#45;and&#45;melody.ts&#45;&gt;packages/tonal&#45;objects/dist/index.js</title>
<path fill="none" stroke="#000000" stroke-width="2" stroke-opacity="0.200000" d="M337.96,-270C367.24,-250.42 436.77,-203.92 470.29,-181.51"/>
<polygon fill="#000000" fill-opacity="0.200000" stroke="#000000" stroke-width="2" stroke-opacity="0.200000" points="471.53,-183.21 475.35,-178.13 469.2,-179.72 471.53,-183.21"/>
</g>
</g>
</svg>
