<?xml version="1.0" encoding="UTF-8" standalone="no"?>
<!DOCTYPE svg PUBLIC "-//W3C//DTD SVG 1.1//EN"
 "http://www.w3.org/Graphics/SVG/1.1/DTD/svg11.dtd">
<!-- Generated by graphviz version 2.43.0 (0)
 -->
<!-- Title: dependency&#45;cruiser output Pages: 1 -->
<svg width="652pt" height="852pt"
 viewBox="0.00 0.00 652.00 852.00" xmlns="http://www.w3.org/2000/svg" xmlns:xlink="http://www.w3.org/1999/xlink">
<g id="graph0" class="graph" transform="scale(1 1) rotate(0) translate(4 848)">
<title>dependency&#45;cruiser output</title>
<polygon fill="white" stroke="transparent" points="-4,4 -4,-848 648,-848 648,4 -4,4"/>
<g id="clust1" class="cluster">
<title>cluster_packages</title>
<path fill="#ffffff" stroke="black" stroke-width="2" d="M20,-8C20,-8 632,-8 632,-8 638,-8 644,-14 644,-20 644,-20 644,-824 644,-824 644,-830 638,-836 632,-836 632,-836 20,-836 20,-836 14,-836 8,-830 8,-824 8,-824 8,-20 8,-20 8,-14 14,-8 20,-8"/>
<text text-anchor="middle" x="326" y="-824.8" font-family="Helvetica,sans-Serif" font-weight="bold" font-size="9.00">packages</text>
</g>
<g id="clust2" class="cluster">
<title>cluster_packages/cognitive&#45;theory&#45;of&#45;music</title>
<path fill="#ffffff" stroke="black" stroke-width="2" d="M499,-340C499,-340 624,-340 624,-340 630,-340 636,-346 636,-352 636,-352 636,-448 636,-448 636,-454 630,-460 624,-460 624,-460 499,-460 499,-460 493,-460 487,-454 487,-448 487,-448 487,-352 487,-352 487,-346 493,-340 499,-340"/>
<text text-anchor="middle" x="561.5" y="-448.8" font-family="Helvetica,sans-Serif" font-weight="bold" font-size="9.00">cognitive&#45;theory&#45;of&#45;music</text>
</g>
<g id="clust3" class="cluster">
<title>cluster_packages/cognitive&#45;theory&#45;of&#45;music/gttm</title>
<path fill="#ffffff" stroke="black" stroke-width="2" d="M530,-348C530,-348 592,-348 592,-348 598,-348 604,-354 604,-360 604,-360 604,-422 604,-422 604,-428 598,-434 592,-434 592,-434 530,-434 530,-434 524,-434 518,-428 518,-422 518,-422 518,-360 518,-360 518,-354 524,-348 530,-348"/>
<text text-anchor="middle" x="561" y="-422.8" font-family="Helvetica,sans-Serif" font-weight="bold" font-size="9.00">gttm</text>
</g>
<g id="clust4" class="cluster">
<title>cluster_packages/cognitive&#45;theory&#45;of&#45;music/gttm/dist</title>
<path fill="#ffffff" stroke="black" stroke-width="2" d="M538,-356C538,-356 584,-356 584,-356 590,-356 596,-362 596,-368 596,-368 596,-396 596,-396 596,-402 590,-408 584,-408 584,-408 538,-408 538,-408 532,-408 526,-402 526,-396 526,-396 526,-368 526,-368 526,-362 532,-356 538,-356"/>
<text text-anchor="middle" x="561" y="-396.8" font-family="Helvetica,sans-Serif" font-weight="bold" font-size="9.00">dist</text>
</g>
<g id="clust5" class="cluster">
<title>cluster_packages/data&#45;type</title>
<path fill="#ffffff" stroke="black" stroke-width="2" d="M522,-468C522,-468 600,-468 600,-468 606,-468 612,-474 612,-480 612,-480 612,-576 612,-576 612,-582 606,-588 600,-588 600,-588 522,-588 522,-588 516,-588 510,-582 510,-576 510,-576 510,-480 510,-480 510,-474 516,-468 522,-468"/>
<text text-anchor="middle" x="561" y="-576.8" font-family="Helvetica,sans-Serif" font-weight="bold" font-size="9.00">data&#45;type</text>
</g>
<g id="clust6" class="cluster">
<title>cluster_packages/data&#45;type/music&#45;xml</title>
<path fill="#ffffff" stroke="black" stroke-width="2" d="M530,-476C530,-476 592,-476 592,-476 598,-476 604,-482 604,-488 604,-488 604,-550 604,-550 604,-556 598,-562 592,-562 592,-562 530,-562 530,-562 524,-562 518,-556 518,-550 518,-550 518,-488 518,-488 518,-482 524,-476 530,-476"/>
<text text-anchor="middle" x="561" y="-550.8" font-family="Helvetica,sans-Serif" font-weight="bold" font-size="9.00">music&#45;xml</text>
</g>
<g id="clust7" class="cluster">
<title>cluster_packages/data&#45;type/music&#45;xml/dist</title>
<path fill="#ffffff" stroke="black" stroke-width="2" d="M538,-484C538,-484 584,-484 584,-484 590,-484 596,-490 596,-496 596,-496 596,-524 596,-524 596,-530 590,-536 584,-536 584,-536 538,-536 538,-536 532,-536 526,-530 526,-524 526,-524 526,-496 526,-496 526,-490 532,-484 538,-484"/>
<text text-anchor="middle" x="561" y="-524.8" font-family="Helvetica,sans-Serif" font-weight="bold" font-size="9.00">dist</text>
</g>
<g id="clust8" class="cluster">
<title>cluster_packages/music&#45;structure</title>
<path fill="#ffffff" stroke="black" stroke-width="2" d="M28,-16C28,-16 614,-16 614,-16 620,-16 626,-22 626,-28 626,-28 626,-320 626,-320 626,-326 620,-332 614,-332 614,-332 28,-332 28,-332 22,-332 16,-326 16,-320 16,-320 16,-28 16,-28 16,-22 22,-16 28,-16"/>
<text text-anchor="middle" x="321" y="-320.8" font-family="Helvetica,sans-Serif" font-weight="bold" font-size="9.00">music&#45;structure</text>
</g>
<g id="clust9" class="cluster">
<title>cluster_packages/music&#45;structure/chord</title>
<path fill="#ffffff" stroke="black" stroke-width="2" d="M521,-186C521,-186 602,-186 602,-186 608,-186 614,-192 614,-198 614,-198 614,-294 614,-294 614,-300 608,-306 602,-306 602,-306 521,-306 521,-306 515,-306 509,-300 509,-294 509,-294 509,-198 509,-198 509,-192 515,-186 521,-186"/>
<text text-anchor="middle" x="561.5" y="-294.8" font-family="Helvetica,sans-Serif" font-weight="bold" font-size="9.00">chord</text>
</g>
<g id="clust10" class="cluster">
<title>cluster_packages/music&#45;structure/chord/chord&#45;analyze</title>
<path fill="#ffffff" stroke="black" stroke-width="2" d="M529,-194C529,-194 594,-194 594,-194 600,-194 606,-200 606,-206 606,-206 606,-268 606,-268 606,-274 600,-280 594,-280 594,-280 529,-280 529,-280 523,-280 517,-274 517,-268 517,-268 517,-206 517,-206 517,-200 523,-194 529,-194"/>
<text text-anchor="middle" x="561.5" y="-268.8" font-family="Helvetica,sans-Serif" font-weight="bold" font-size="9.00">chord&#45;analyze</text>
</g>
<g id="clust11" class="cluster">
<title>cluster_packages/music&#45;structure/chord/chord&#45;analyze/dist</title>
<path fill="#ffffff" stroke="black" stroke-width="2" d="M538,-202C538,-202 584,-202 584,-202 590,-202 596,-208 596,-214 596,-214 596,-242 596,-242 596,-248 590,-254 584,-254 584,-254 538,-254 538,-254 532,-254 526,-248 526,-242 526,-242 526,-214 526,-214 526,-208 532,-202 538,-202"/>
<text text-anchor="middle" x="561" y="-242.8" font-family="Helvetica,sans-Serif" font-weight="bold" font-size="9.00">dist</text>
</g>
<g id="clust12" class="cluster">
<title>cluster_packages/music&#45;structure/melody</title>
<path fill="#ffffff" stroke="black" stroke-width="2" d="M36,-24C36,-24 606,-24 606,-24 612,-24 618,-30 618,-36 618,-36 618,-166 618,-166 618,-172 612,-178 606,-178 606,-178 36,-178 36,-178 30,-178 24,-172 24,-166 24,-166 24,-36 24,-36 24,-30 30,-24 36,-24"/>
<text text-anchor="middle" x="321" y="-166.8" font-family="Helvetica,sans-Serif" font-weight="bold" font-size="9.00">melody</text>
</g>
<g id="clust13" class="cluster">
<title>cluster_packages/music&#45;structure/melody/melody&#45;analyze</title>
<path fill="#ffffff" stroke="black" stroke-width="2" d="M525,-40C525,-40 598,-40 598,-40 604,-40 610,-46 610,-52 610,-52 610,-114 610,-114 610,-120 604,-126 598,-126 598,-126 525,-126 525,-126 519,-126 513,-120 513,-114 513,-114 513,-52 513,-52 513,-46 519,-40 525,-40"/>
<text text-anchor="middle" x="561.5" y="-114.8" font-family="Helvetica,sans-Serif" font-weight="bold" font-size="9.00">melody&#45;analyze</text>
</g>
<g id="clust14" class="cluster">
<title>cluster_packages/music&#45;structure/melody/melody&#45;analyze/dist</title>
<path fill="#ffffff" stroke="black" stroke-width="2" d="M538,-48C538,-48 584,-48 584,-48 590,-48 596,-54 596,-60 596,-60 596,-88 596,-88 596,-94 590,-100 584,-100 584,-100 538,-100 538,-100 532,-100 526,-94 526,-88 526,-88 526,-60 526,-60 526,-54 532,-48 538,-48"/>
<text text-anchor="middle" x="561" y="-88.8" font-family="Helvetica,sans-Serif" font-weight="bold" font-size="9.00">dist</text>
</g>
<g id="clust15" class="cluster">
<title>cluster_packages/music&#45;structure/melody/melody&#45;hierarchical&#45;analysis</title>
<path fill="#ffffff" stroke="black" stroke-width="2" d="M44,-32C44,-32 459,-32 459,-32 465,-32 471,-38 471,-44 471,-44 471,-140 471,-140 471,-146 465,-152 459,-152 459,-152 44,-152 44,-152 38,-152 32,-146 32,-140 32,-140 32,-44 32,-44 32,-38 38,-32 44,-32"/>
<text text-anchor="middle" x="251.5" y="-140.8" font-family="Helvetica,sans-Serif" font-weight="bold" font-size="9.00">melody&#45;hierarchical&#45;analysis</text>
</g>
<g id="clust16" class="cluster">
<title>cluster_packages/music&#45;structure/melody/melody&#45;hierarchical&#45;analysis/src</title>
<path fill="#ffffff" stroke="black" stroke-width="2" d="M114,-40C114,-40 451,-40 451,-40 457,-40 463,-46 463,-52 463,-52 463,-114 463,-114 463,-120 457,-126 451,-126 451,-126 114,-126 114,-126 108,-126 102,-120 102,-114 102,-114 102,-52 102,-52 102,-46 108,-40 114,-40"/>
<text text-anchor="middle" x="282.5" y="-114.8" font-family="Helvetica,sans-Serif" font-weight="bold" font-size="9.00">src</text>
</g>
<g id="clust17" class="cluster">
<title>cluster_packages/music&#45;structure/melody/melody&#45;hierarchical&#45;analysis/src/facade</title>
<path fill="#ffffff" stroke="black" stroke-width="2" d="M397,-48C397,-48 443,-48 443,-48 449,-48 455,-54 455,-60 455,-60 455,-88 455,-88 455,-94 449,-100 443,-100 443,-100 397,-100 397,-100 391,-100 385,-94 385,-88 385,-88 385,-60 385,-60 385,-54 391,-48 397,-48"/>
<text text-anchor="middle" x="420" y="-88.8" font-family="Helvetica,sans-Serif" font-weight="bold" font-size="9.00">facade</text>
</g>
<g id="clust18" class="cluster">
<title>cluster_packages/tonal&#45;objects</title>
<path fill="#ffffff" stroke="black" stroke-width="2" d="M530,-724C530,-724 592,-724 592,-724 598,-724 604,-730 604,-736 604,-736 604,-798 604,-798 604,-804 598,-810 592,-810 592,-810 530,-810 530,-810 524,-810 518,-804 518,-798 518,-798 518,-736 518,-736 518,-730 524,-724 530,-724"/>
<text text-anchor="middle" x="561" y="-798.8" font-family="Helvetica,sans-Serif" font-weight="bold" font-size="9.00">tonal&#45;objects</text>
</g>
<g id="clust19" class="cluster">
<title>cluster_packages/tonal&#45;objects/dist</title>
<path fill="#ffffff" stroke="black" stroke-width="2" d="M538,-732C538,-732 584,-732 584,-732 590,-732 596,-738 596,-744 596,-744 596,-772 596,-772 596,-778 590,-784 584,-784 584,-784 538,-784 538,-784 532,-784 526,-778 526,-772 526,-772 526,-744 526,-744 526,-738 532,-732 538,-732"/>
<text text-anchor="middle" x="561" y="-772.8" font-family="Helvetica,sans-Serif" font-weight="bold" font-size="9.00">dist</text>
</g>
<g id="clust20" class="cluster">
<title>cluster_packages/util</title>
<path fill="#ffffff" stroke="black" stroke-width="2" d="M522,-596C522,-596 600,-596 600,-596 606,-596 612,-602 612,-608 612,-608 612,-704 612,-704 612,-710 606,-716 600,-716 600,-716 522,-716 522,-716 516,-716 510,-710 510,-704 510,-704 510,-608 510,-608 510,-602 516,-596 522,-596"/>
<text text-anchor="middle" x="561" y="-704.8" font-family="Helvetica,sans-Serif" font-weight="bold" font-size="9.00">util</text>
</g>
<g id="clust21" class="cluster">
<title>cluster_packages/util/time&#45;and</title>
<path fill="#ffffff" stroke="black" stroke-width="2" d="M530,-604C530,-604 592,-604 592,-604 598,-604 604,-610 604,-616 604,-616 604,-678 604,-678 604,-684 598,-690 592,-690 592,-690 530,-690 530,-690 524,-690 518,-684 518,-678 518,-678 518,-616 518,-616 518,-610 524,-604 530,-604"/>
<text text-anchor="middle" x="561" y="-678.8" font-family="Helvetica,sans-Serif" font-weight="bold" font-size="9.00">time&#45;and</text>
</g>
<g id="clust22" class="cluster">
<title>cluster_packages/util/time&#45;and/dist</title>
<path fill="#ffffff" stroke="black" stroke-width="2" d="M538,-612C538,-612 584,-612 584,-612 590,-612 596,-618 596,-624 596,-624 596,-652 596,-652 596,-658 590,-664 584,-664 584,-664 538,-664 538,-664 532,-664 526,-658 526,-652 526,-652 526,-624 526,-624 526,-618 532,-612 538,-612"/>
<text text-anchor="middle" x="561" y="-652.8" font-family="Helvetica,sans-Serif" font-weight="bold" font-size="9.00">dist</text>
</g>
<!-- packages/cognitive&#45;theory&#45;of&#45;music/gttm/dist/index.js -->
<g id="node1" class="node">
<title>packages/cognitive&#45;theory&#45;of&#45;music/gttm/dist/index.js</title>
<g id="a_node1"><a xlink:href="packages/cognitive-theory-of-music/gttm/dist/index.js" xlink:title="index.js">
<polygon fill="#ffffcc" stroke="black" points="588,-382 586.5,-384 576,-384 574.5,-382 534,-382 534,-364 588,-364 588,-382"/>
<text text-anchor="start" x="543.5" y="-370.8" font-family="Helvetica,sans-Serif" font-size="9.00">index.js</text>
</a>
</g>
</g>
<!-- packages/data&#45;type/music&#45;xml/dist/index.js -->
<g id="node2" class="node">
<title>packages/data&#45;type/music&#45;xml/dist/index.js</title>
<g id="a_node2"><a xlink:href="packages/data-type/music-xml/dist/index.js" xlink:title="index.js">
<polygon fill="#ffffcc" stroke="black" points="588,-510 586.5,-512 576,-512 574.5,-510 534,-510 534,-492 588,-492 588,-510"/>
<text text-anchor="start" x="543.5" y="-498.8" font-family="Helvetica,sans-Serif" font-size="9.00">index.js</text>
</a>
</g>
</g>
<!-- packages/music&#45;structure/chord/chord&#45;analyze/dist/index.js -->
<g id="node3" class="node">
<title>packages/music&#45;structure/chord/chord&#45;analyze/dist/index.js</title>
<g id="a_node3"><a xlink:href="packages/music-structure/chord/chord-analyze/dist/index.js" xlink:title="index.js">
<polygon fill="#ffffcc" stroke="black" points="588,-228 586.5,-230 576,-230 574.5,-228 534,-228 534,-210 588,-210 588,-228"/>
<text text-anchor="start" x="543.5" y="-216.8" font-family="Helvetica,sans-Serif" font-size="9.00">index.js</text>
</a>
</g>
</g>
<!-- packages/music&#45;structure/melody/melody&#45;analyze/dist/index.js -->
<g id="node4" class="node">
<title>packages/music&#45;structure/melody/melody&#45;analyze/dist/index.js</title>
<g id="a_node4"><a xlink:href="packages/music-structure/melody/melody-analyze/dist/index.js" xlink:title="index.js">
<polygon fill="#ffffcc" stroke="black" points="588,-74 586.5,-76 576,-76 574.5,-74 534,-74 534,-56 588,-56 588,-74"/>
<text text-anchor="start" x="543.5" y="-62.8" font-family="Helvetica,sans-Serif" font-size="9.00">index.js</text>
</a>
</g>
</g>
<!-- packages/music&#45;structure/melody/melody&#45;hierarchical&#45;analysis/index.ts -->
<g id="node5" class="node">
<title>packages/music&#45;structure/melody/melody&#45;hierarchical&#45;analysis/index.ts</title>
<g id="a_node5"><a xlink:href="packages/music-structure/melody/melody-hierarchical-analysis/index.ts" xlink:title="index.ts">
<path fill="#ddfeff" stroke="black" d="M88,-73C88,-73 46,-73 46,-73 43,-73 40,-70 40,-67 40,-67 40,-61 40,-61 40,-58 43,-55 46,-55 46,-55 88,-55 88,-55 91,-55 94,-58 94,-61 94,-61 94,-67 94,-67 94,-70 91,-73 88,-73"/>
<text text-anchor="start" x="48.5" y="-61.8" font-family="Helvetica,sans-Serif" font-size="9.00">index.ts</text>
</a>
</g>
</g>
<!-- packages/music&#45;structure/melody/melody&#45;hierarchical&#45;analysis/src/get&#45;hierarchical&#45;melody.ts -->
<g id="node6" class="node">
<title>packages/music&#45;structure/melody/melody&#45;hierarchical&#45;analysis/src/get&#45;hierarchical&#45;melody.ts</title>
<g id="a_node6"><a xlink:href="packages/music-structure/melody/melody-hierarchical-analysis/src/get-hierarchical-melody.ts" xlink:title="get&#45;hierarchical&#45;melody.ts">
<path fill="#ddfeff" stroke="black" d="M237,-73C237,-73 116,-73 116,-73 113,-73 110,-70 110,-67 110,-67 110,-61 110,-61 110,-58 113,-55 116,-55 116,-55 237,-55 237,-55 240,-55 243,-58 243,-61 243,-61 243,-67 243,-67 243,-70 240,-73 237,-73"/>
<text text-anchor="start" x="118" y="-61.8" font-family="Helvetica,sans-Serif" font-size="9.00">get&#45;hierarchical&#45;melody.ts</text>
</a>
</g>
</g>
<!-- packages/music&#45;structure/melody/melody&#45;hierarchical&#45;analysis/index.ts&#45;&gt;packages/music&#45;structure/melody/melody&#45;hierarchical&#45;analysis/src/get&#45;hierarchical&#45;melody.ts -->
<g id="edge1" class="edge">
<title>packages/music&#45;structure/melody/melody&#45;hierarchical&#45;analysis/index.ts&#45;&gt;packages/music&#45;structure/melody/melody&#45;hierarchical&#45;analysis/src/get&#45;hierarchical&#45;melody.ts</title>
<path fill="none" stroke="#000000" stroke-width="2" stroke-opacity="0.200000" d="M94.02,-64C97.13,-64 100.41,-64 103.79,-64"/>
<polygon fill="#000000" fill-opacity="0.200000" stroke="#000000" stroke-width="2" stroke-opacity="0.200000" points="109.99,-66.1 103.99,-64 109.99,-61.9 109.99,-66.1"/>
</g>
<!-- packages/music&#45;structure/melody/melody&#45;hierarchical&#45;analysis/src/facade/index.ts -->
<g id="node7" class="node">
<title>packages/music&#45;structure/melody/melody&#45;hierarchical&#45;analysis/src/facade/index.ts</title>
<g id="a_node7"><a xlink:href="packages/music-structure/melody/melody-hierarchical-analysis/src/facade/index.ts" xlink:title="index.ts">
<path fill="#ddfeff" stroke="black" d="M441,-74C441,-74 399,-74 399,-74 396,-74 393,-71 393,-68 393,-68 393,-62 393,-62 393,-59 396,-56 399,-56 399,-56 441,-56 441,-56 444,-56 447,-59 447,-62 447,-62 447,-68 447,-68 447,-71 444,-74 441,-74"/>
<text text-anchor="start" x="401.5" y="-62.8" font-family="Helvetica,sans-Serif" font-size="9.00">index.ts</text>
</a>
</g>
</g>
<!-- packages/music&#45;structure/melody/melody&#45;hierarchical&#45;analysis/src/get&#45;hierarchical&#45;melody.ts&#45;&gt;packages/music&#45;structure/melody/melody&#45;hierarchical&#45;analysis/src/facade/index.ts -->
<g id="edge8" class="edge">
<title>packages/music&#45;structure/melody/melody&#45;hierarchical&#45;analysis/src/get&#45;hierarchical&#45;melody.ts&#45;&gt;packages/music&#45;structure/melody/melody&#45;hierarchical&#45;analysis/src/facade/index.ts</title>
<path fill="none" stroke="#000000" stroke-width="2" stroke-opacity="0.200000" d="M243.04,-63.17C250.78,-63.07 256,-63 256,-63 256,-63 377,-63 377,-63 377,-63 381.05,-63.19 386.64,-63.46"/>
<polygon fill="#000000" fill-opacity="0.200000" stroke="#000000" stroke-width="2" stroke-opacity="0.200000" points="386.55,-65.56 392.64,-63.74 386.75,-61.36 386.55,-65.56"/>
</g>
<!-- packages/music&#45;structure/melody/melody&#45;hierarchical&#45;analysis/src/get&#45;time&#45;and&#45;melody.ts -->
<g id="node10" class="node">
<title>packages/music&#45;structure/melody/melody&#45;hierarchical&#45;analysis/src/get&#45;time&#45;and&#45;melody.ts</title>
<g id="a_node10"><a xlink:href="packages/music-structure/melody/melody-hierarchical-analysis/src/get-time-and-melody.ts" xlink:title="get&#45;time&#45;and&#45;melody.ts">
<path fill="#ddfeff" stroke="black" d="M371,-87C371,-87 262,-87 262,-87 259,-87 256,-84 256,-81 256,-81 256,-75 256,-75 256,-72 259,-69 262,-69 262,-69 371,-69 371,-69 374,-69 377,-72 377,-75 377,-75 377,-81 377,-81 377,-84 374,-87 371,-87"/>
<text text-anchor="start" x="264" y="-75.8" font-family="Helvetica,sans-Serif" font-size="9.00">get&#45;time&#45;and&#45;melody.ts</text>
</a>
</g>
</g>
<!-- packages/music&#45;structure/melody/melody&#45;hierarchical&#45;analysis/src/get&#45;hierarchical&#45;melody.ts&#45;&gt;packages/music&#45;structure/melody/melody&#45;hierarchical&#45;analysis/src/get&#45;time&#45;and&#45;melody.ts -->
<g id="edge9" class="edge">
<title>packages/music&#45;structure/melody/melody&#45;hierarchical&#45;analysis/src/get&#45;hierarchical&#45;melody.ts&#45;&gt;packages/music&#45;structure/melody/melody&#45;hierarchical&#45;analysis/src/get&#45;time&#45;and&#45;melody.ts</title>
<path fill="none" stroke="#000000" stroke-width="2" stroke-opacity="0.200000" d="M243.27,-70.67C245.35,-70.88 247.44,-71.09 249.52,-71.31"/>
<polygon fill="#000000" fill-opacity="0.200000" stroke="#000000" stroke-width="2" stroke-opacity="0.200000" points="249.57,-73.42 255.75,-71.94 249.99,-69.24 249.57,-73.42"/>
</g>
<!-- packages/music&#45;structure/melody/melody&#45;hierarchical&#45;analysis/src/facade/index.ts&#45;&gt;packages/cognitive&#45;theory&#45;of&#45;music/gttm/dist/index.js -->
<g id="edge3" class="edge">
<title>packages/music&#45;structure/melody/melody&#45;hierarchical&#45;analysis/src/facade/index.ts&#45;&gt;packages/cognitive&#45;theory&#45;of&#45;music/gttm/dist/index.js</title>
<path fill="none" stroke="#000000" stroke-width="2" stroke-opacity="0.200000" d="M424.09,-74C437.14,-111.96 487,-257 487,-257 487,-257 531.37,-327.5 550.93,-358.58"/>
<polygon fill="#000000" fill-opacity="0.200000" stroke="#000000" stroke-width="2" stroke-opacity="0.200000" points="552.49,-365.02 551.08,-358.82 556.05,-362.78 552.49,-365.02"/>
</g>
<!-- packages/music&#45;structure/melody/melody&#45;hierarchical&#45;analysis/src/facade/index.ts&#45;&gt;packages/data&#45;type/music&#45;xml/dist/index.js -->
<g id="edge5" class="edge">
<title>packages/music&#45;structure/melody/melody&#45;hierarchical&#45;analysis/src/facade/index.ts&#45;&gt;packages/data&#45;type/music&#45;xml/dist/index.js</title>
<path fill="none" stroke="#000000" stroke-width="2" stroke-opacity="0.200000" d="M422.77,-74.25C433.26,-129.28 487,-411 487,-411 487,-411 528.14,-461.72 548.65,-487.01"/>
<polygon fill="#000000" fill-opacity="0.200000" stroke="#000000" stroke-width="2" stroke-opacity="0.200000" points="550.83,-493.03 548.68,-487.05 554.09,-490.38 550.83,-493.03"/>
</g>
<!-- packages/music&#45;structure/melody/melody&#45;hierarchical&#45;analysis/src/facade/index.ts&#45;&gt;packages/music&#45;structure/chord/chord&#45;analyze/dist/index.js -->
<g id="edge2" class="edge">
<title>packages/music&#45;structure/melody/melody&#45;hierarchical&#45;analysis/src/facade/index.ts&#45;&gt;packages/music&#45;structure/chord/chord&#45;analyze/dist/index.js</title>
<path fill="none" stroke="#000000" stroke-width="2" stroke-opacity="0.200000" d="M429.28,-74.17C452.69,-100.11 519.48,-174.11 547.45,-205.09"/>
<polygon fill="#000000" fill-opacity="0.200000" stroke="#000000" stroke-width="2" stroke-opacity="0.200000" points="550.03,-211.09 547.57,-205.23 553.15,-208.27 550.03,-211.09"/>
</g>
<!-- packages/music&#45;structure/melody/melody&#45;hierarchical&#45;analysis/src/facade/index.ts&#45;&gt;packages/music&#45;structure/melody/melody&#45;analyze/dist/index.js -->
<g id="edge4" class="edge">
<title>packages/music&#45;structure/melody/melody&#45;hierarchical&#45;analysis/src/facade/index.ts&#45;&gt;packages/music&#45;structure/melody/melody&#45;analyze/dist/index.js</title>
<path fill="none" stroke="#000000" stroke-width="2" stroke-opacity="0.200000" d="M447.14,-65C470.05,-65 503.43,-65 527.94,-65"/>
<polygon fill="#000000" fill-opacity="0.200000" stroke="#000000" stroke-width="2" stroke-opacity="0.200000" points="533.97,-67.1 527.97,-65 533.97,-62.9 533.97,-67.1"/>
</g>
<!-- packages/util/time&#45;and/dist/index.js -->
<g id="node8" class="node">
<title>packages/util/time&#45;and/dist/index.js</title>
<g id="a_node8"><a xlink:href="packages/util/time-and/dist/index.js" xlink:title="index.js">
<polygon fill="#ffffcc" stroke="black" points="588,-638 586.5,-640 576,-640 574.5,-638 534,-638 534,-620 588,-620 588,-638"/>
<text text-anchor="start" x="543.5" y="-626.8" font-family="Helvetica,sans-Serif" font-size="9.00">index.js</text>
</a>
</g>
</g>
<!-- packages/music&#45;structure/melody/melody&#45;hierarchical&#45;analysis/src/facade/index.ts&#45;&gt;packages/util/time&#45;and/dist/index.js -->
<g id="edge6" class="edge">
<title>packages/music&#45;structure/melody/melody&#45;hierarchical&#45;analysis/src/facade/index.ts&#45;&gt;packages/util/time&#45;and/dist/index.js</title>
<path fill="none" stroke="#000000" stroke-width="2" stroke-opacity="0.200000" d="M422.26,-74.05C431.38,-139.58 487,-539 487,-539 487,-539 528.14,-589.72 548.65,-615.01"/>
<polygon fill="#000000" fill-opacity="0.200000" stroke="#000000" stroke-width="2" stroke-opacity="0.200000" points="550.83,-621.03 548.68,-615.05 554.09,-618.38 550.83,-621.03"/>
</g>
<!-- packages/tonal&#45;objects/dist/index.js -->
<g id="node9" class="node">
<title>packages/tonal&#45;objects/dist/index.js</title>
<g id="a_node9"><a xlink:href="packages/tonal-objects/dist/index.js" xlink:title="index.js">
<polygon fill="#ffffcc" stroke="black" points="588,-758 586.5,-760 576,-760 574.5,-758 534,-758 534,-740 588,-740 588,-758"/>
<text text-anchor="start" x="543.5" y="-746.8" font-family="Helvetica,sans-Serif" font-size="9.00">index.js</text>
</a>
</g>
</g>
<!-- packages/music&#45;structure/melody/melody&#45;hierarchical&#45;analysis/src/facade/index.ts&#45;&gt;packages/tonal&#45;objects/dist/index.js -->
<g id="edge7" class="edge">
<title>packages/music&#45;structure/melody/melody&#45;hierarchical&#45;analysis/src/facade/index.ts&#45;&gt;packages/tonal&#45;objects/dist/index.js</title>
<path fill="none" stroke="#000000" stroke-width="2" stroke-opacity="0.200000" d="M422.04,-74.46C430.43,-151.04 487,-667 487,-667 487,-667 527.01,-711.94 547.79,-735.28"/>
<polygon fill="#000000" fill-opacity="0.200000" stroke="#000000" stroke-width="2" stroke-opacity="0.200000" points="550.34,-741.31 547.92,-735.43 553.48,-738.51 550.34,-741.31"/>
</g>
<!-- packages/music&#45;structure/melody/melody&#45;hierarchical&#45;analysis/src/get&#45;time&#45;and&#45;melody.ts&#45;&gt;packages/music&#45;structure/melody/melody&#45;hierarchical&#45;analysis/src/facade/index.ts -->
<g id="edge10" class="edge">
<title>packages/music&#45;structure/melody/melody&#45;hierarchical&#45;analysis/src/get&#45;time&#45;and&#45;melody.ts&#45;&gt;packages/music&#45;structure/melody/melody&#45;hierarchical&#45;analysis/src/facade/index.ts</title>
<path fill="none" stroke="#000000" stroke-width="2" stroke-opacity="0.200000" d="M377.13,-70.36C380.41,-69.94 383.64,-69.53 386.76,-69.13"/>
<polygon fill="#000000" fill-opacity="0.200000" stroke="#000000" stroke-width="2" stroke-opacity="0.200000" points="387.31,-71.18 392.99,-68.33 386.77,-67.01 387.31,-71.18"/>
</g>
</g>
</svg>
