<?xml version="1.0" encoding="UTF-8" standalone="no"?>
<!DOCTYPE svg PUBLIC "-//W3C//DTD SVG 1.1//EN"
 "http://www.w3.org/Graphics/SVG/1.1/DTD/svg11.dtd">
<!-- Generated by graphviz version 2.43.0 (0)
 -->
<!-- Title: dependency&#45;cruiser output Pages: 1 -->
<svg width="961pt" height="1098pt"
 viewBox="0.00 0.00 961.00 1098.00" xmlns="http://www.w3.org/2000/svg" xmlns:xlink="http://www.w3.org/1999/xlink">
<g id="graph0" class="graph" transform="scale(1 1) rotate(0) translate(4 1094)">
<title>dependency&#45;cruiser output</title>
<polygon fill="white" stroke="transparent" points="-4,4 -4,-1094 957,-1094 957,4 -4,4"/>
<g id="clust1" class="cluster">
<title>cluster_packages</title>
<path fill="#ffffff" stroke="black" stroke-width="2" d="M20,-8C20,-8 941,-8 941,-8 947,-8 953,-14 953,-20 953,-20 953,-1070 953,-1070 953,-1076 947,-1082 941,-1082 941,-1082 20,-1082 20,-1082 14,-1082 8,-1076 8,-1070 8,-1070 8,-20 8,-20 8,-14 14,-8 20,-8"/>
<text text-anchor="middle" x="480.5" y="-1070.8" font-family="Helvetica,sans-Serif" font-weight="bold" font-size="9.00">packages</text>
</g>
<g id="clust2" class="cluster">
<title>cluster_packages/cognitive&#45;theory&#45;of&#45;music</title>
<path fill="#ffffff" stroke="black" stroke-width="2" d="M808,-842C808,-842 933,-842 933,-842 939,-842 945,-848 945,-854 945,-854 945,-1044 945,-1044 945,-1050 939,-1056 933,-1056 933,-1056 808,-1056 808,-1056 802,-1056 796,-1050 796,-1044 796,-1044 796,-854 796,-854 796,-848 802,-842 808,-842"/>
<text text-anchor="middle" x="870.5" y="-1044.8" font-family="Helvetica,sans-Serif" font-weight="bold" font-size="9.00">cognitive&#45;theory&#45;of&#45;music</text>
</g>
<g id="clust3" class="cluster">
<title>cluster_packages/cognitive&#45;theory&#45;of&#45;music/gttm</title>
<path fill="#ffffff" stroke="black" stroke-width="2" d="M839,-944C839,-944 901,-944 901,-944 907,-944 913,-950 913,-956 913,-956 913,-1018 913,-1018 913,-1024 907,-1030 901,-1030 901,-1030 839,-1030 839,-1030 833,-1030 827,-1024 827,-1018 827,-1018 827,-956 827,-956 827,-950 833,-944 839,-944"/>
<text text-anchor="middle" x="870" y="-1018.8" font-family="Helvetica,sans-Serif" font-weight="bold" font-size="9.00">gttm</text>
</g>
<g id="clust4" class="cluster">
<title>cluster_packages/cognitive&#45;theory&#45;of&#45;music/gttm/dist</title>
<path fill="#ffffff" stroke="black" stroke-width="2" d="M847,-952C847,-952 893,-952 893,-952 899,-952 905,-958 905,-964 905,-964 905,-992 905,-992 905,-998 899,-1004 893,-1004 893,-1004 847,-1004 847,-1004 841,-1004 835,-998 835,-992 835,-992 835,-964 835,-964 835,-958 841,-952 847,-952"/>
<text text-anchor="middle" x="870" y="-992.8" font-family="Helvetica,sans-Serif" font-weight="bold" font-size="9.00">dist</text>
</g>
<g id="clust5" class="cluster">
<title>cluster_packages/cognitive&#45;theory&#45;of&#45;music/irm</title>
<path fill="#ffffff" stroke="black" stroke-width="2" d="M839,-850C839,-850 901,-850 901,-850 907,-850 913,-856 913,-862 913,-862 913,-924 913,-924 913,-930 907,-936 901,-936 901,-936 839,-936 839,-936 833,-936 827,-930 827,-924 827,-924 827,-862 827,-862 827,-856 833,-850 839,-850"/>
<text text-anchor="middle" x="870" y="-924.8" font-family="Helvetica,sans-Serif" font-weight="bold" font-size="9.00">irm</text>
</g>
<g id="clust6" class="cluster">
<title>cluster_packages/cognitive&#45;theory&#45;of&#45;music/irm/dist</title>
<path fill="#ffffff" stroke="black" stroke-width="2" d="M847,-858C847,-858 893,-858 893,-858 899,-858 905,-864 905,-870 905,-870 905,-898 905,-898 905,-904 899,-910 893,-910 893,-910 847,-910 847,-910 841,-910 835,-904 835,-898 835,-898 835,-870 835,-870 835,-864 841,-858 847,-858"/>
<text text-anchor="middle" x="870" y="-898.8" font-family="Helvetica,sans-Serif" font-weight="bold" font-size="9.00">dist</text>
</g>
<g id="clust7" class="cluster">
<title>cluster_packages/data&#45;type</title>
<path fill="#ffffff" stroke="black" stroke-width="2" d="M530.5,-598C530.5,-598 608.5,-598 608.5,-598 614.5,-598 620.5,-604 620.5,-610 620.5,-610 620.5,-706 620.5,-706 620.5,-712 614.5,-718 608.5,-718 608.5,-718 530.5,-718 530.5,-718 524.5,-718 518.5,-712 518.5,-706 518.5,-706 518.5,-610 518.5,-610 518.5,-604 524.5,-598 530.5,-598"/>
<text text-anchor="middle" x="569.5" y="-706.8" font-family="Helvetica,sans-Serif" font-weight="bold" font-size="9.00">data&#45;type</text>
</g>
<g id="clust8" class="cluster">
<title>cluster_packages/data&#45;type/music&#45;xml</title>
<path fill="#ffffff" stroke="black" stroke-width="2" d="M538.5,-606C538.5,-606 600.5,-606 600.5,-606 606.5,-606 612.5,-612 612.5,-618 612.5,-618 612.5,-680 612.5,-680 612.5,-686 606.5,-692 600.5,-692 600.5,-692 538.5,-692 538.5,-692 532.5,-692 526.5,-686 526.5,-680 526.5,-680 526.5,-618 526.5,-618 526.5,-612 532.5,-606 538.5,-606"/>
<text text-anchor="middle" x="569.5" y="-680.8" font-family="Helvetica,sans-Serif" font-weight="bold" font-size="9.00">music&#45;xml</text>
</g>
<g id="clust9" class="cluster">
<title>cluster_packages/data&#45;type/music&#45;xml/dist</title>
<path fill="#ffffff" stroke="black" stroke-width="2" d="M546.5,-614C546.5,-614 592.5,-614 592.5,-614 598.5,-614 604.5,-620 604.5,-626 604.5,-626 604.5,-654 604.5,-654 604.5,-660 598.5,-666 592.5,-666 592.5,-666 546.5,-666 546.5,-666 540.5,-666 534.5,-660 534.5,-654 534.5,-654 534.5,-626 534.5,-626 534.5,-620 540.5,-614 546.5,-614"/>
<text text-anchor="middle" x="569.5" y="-654.8" font-family="Helvetica,sans-Serif" font-weight="bold" font-size="9.00">dist</text>
</g>
<g id="clust10" class="cluster">
<title>cluster_packages/music&#45;structure</title>
<path fill="#ffffff" stroke="black" stroke-width="2" d="M28,-110C28,-110 919,-110 919,-110 925,-110 931,-116 931,-122 931,-122 931,-566 931,-566 931,-572 925,-578 919,-578 919,-578 28,-578 28,-578 22,-578 16,-572 16,-566 16,-566 16,-122 16,-122 16,-116 22,-110 28,-110"/>
<text text-anchor="middle" x="473.5" y="-566.8" font-family="Helvetica,sans-Serif" font-weight="bold" font-size="9.00">music&#45;structure</text>
</g>
<g id="clust11" class="cluster">
<title>cluster_packages/music&#45;structure/chord</title>
<path fill="#ffffff" stroke="black" stroke-width="2" d="M480,-398C480,-398 659,-398 659,-398 665,-398 671,-404 671,-410 671,-410 671,-540 671,-540 671,-546 665,-552 659,-552 659,-552 480,-552 480,-552 474,-552 468,-546 468,-540 468,-540 468,-410 468,-410 468,-404 474,-398 480,-398"/>
<text text-anchor="middle" x="569.5" y="-540.8" font-family="Helvetica,sans-Serif" font-weight="bold" font-size="9.00">chord</text>
</g>
<g id="clust12" class="cluster">
<title>cluster_packages/music&#45;structure/chord/chord&#45;analyze</title>
<path fill="#ffffff" stroke="black" stroke-width="2" d="M488,-406C488,-406 651,-406 651,-406 657,-406 663,-412 663,-418 663,-418 663,-514 663,-514 663,-520 657,-526 651,-526 651,-526 488,-526 488,-526 482,-526 476,-520 476,-514 476,-514 476,-418 476,-418 476,-412 482,-406 488,-406"/>
<text text-anchor="middle" x="569.5" y="-514.8" font-family="Helvetica,sans-Serif" font-weight="bold" font-size="9.00">chord&#45;analyze</text>
</g>
<g id="clust13" class="cluster">
<title>cluster_packages/music&#45;structure/chord/chord&#45;analyze/src</title>
<path fill="#ffffff" stroke="black" stroke-width="2" d="M496,-414C496,-414 643,-414 643,-414 649,-414 655,-420 655,-426 655,-426 655,-488 655,-488 655,-494 649,-500 643,-500 643,-500 496,-500 496,-500 490,-500 484,-494 484,-488 484,-488 484,-426 484,-426 484,-420 490,-414 496,-414"/>
<text text-anchor="middle" x="569.5" y="-488.8" font-family="Helvetica,sans-Serif" font-weight="bold" font-size="9.00">src</text>
</g>
<g id="clust14" class="cluster">
<title>cluster_packages/music&#45;structure/chord/chord&#45;analyze/src/chord&#45;analyze</title>
<path fill="#ffffff" stroke="black" stroke-width="2" d="M504,-422C504,-422 635,-422 635,-422 641,-422 647,-428 647,-434 647,-434 647,-462 647,-462 647,-468 641,-474 635,-474 635,-474 504,-474 504,-474 498,-474 492,-468 492,-462 492,-462 492,-434 492,-434 492,-428 498,-422 504,-422"/>
<text text-anchor="middle" x="569.5" y="-462.8" font-family="Helvetica,sans-Serif" font-weight="bold" font-size="9.00">chord&#45;analyze</text>
</g>
<g id="clust15" class="cluster">
<title>cluster_packages/music&#45;structure/melody</title>
<path fill="#ffffff" stroke="black" stroke-width="2" d="M36,-118C36,-118 911,-118 911,-118 917,-118 923,-124 923,-130 923,-130 923,-378 923,-378 923,-384 917,-390 911,-390 911,-390 36,-390 36,-390 30,-390 24,-384 24,-378 24,-378 24,-130 24,-130 24,-124 30,-118 36,-118"/>
<text text-anchor="middle" x="473.5" y="-378.8" font-family="Helvetica,sans-Serif" font-weight="bold" font-size="9.00">melody</text>
</g>
<g id="clust16" class="cluster">
<title>cluster_packages/music&#45;structure/melody/melody&#45;analyze</title>
<path fill="#ffffff" stroke="black" stroke-width="2" d="M331.5,-126C331.5,-126 903,-126 903,-126 909,-126 915,-132 915,-138 915,-138 915,-258 915,-258 915,-264 909,-270 903,-270 903,-270 331.5,-270 331.5,-270 325.5,-270 319.5,-264 319.5,-258 319.5,-258 319.5,-138 319.5,-138 319.5,-132 325.5,-126 331.5,-126"/>
<text text-anchor="middle" x="617.25" y="-258.8" font-family="Helvetica,sans-Serif" font-weight="bold" font-size="9.00">melody&#45;analyze</text>
</g>
<g id="clust17" class="cluster">
<title>cluster_packages/music&#45;structure/melody/melody&#45;analyze/src</title>
<path fill="#ffffff" stroke="black" stroke-width="2" d="M339.5,-134C339.5,-134 895,-134 895,-134 901,-134 907,-140 907,-146 907,-146 907,-232 907,-232 907,-238 901,-244 895,-244 895,-244 339.5,-244 339.5,-244 333.5,-244 327.5,-238 327.5,-232 327.5,-232 327.5,-146 327.5,-146 327.5,-140 333.5,-134 339.5,-134"/>
<text text-anchor="middle" x="617.25" y="-232.8" font-family="Helvetica,sans-Serif" font-weight="bold" font-size="9.00">src</text>
</g>
<g id="clust18" class="cluster">
<title>cluster_packages/music&#45;structure/melody/melody&#45;hierarchical&#45;analysis</title>
<path fill="#ffffff" stroke="black" stroke-width="2" d="M44,-278C44,-278 448,-278 448,-278 454,-278 460,-284 460,-290 460,-290 460,-352 460,-352 460,-358 454,-364 448,-364 448,-364 44,-364 44,-364 38,-364 32,-358 32,-352 32,-352 32,-290 32,-290 32,-284 38,-278 44,-278"/>
<text text-anchor="middle" x="246" y="-352.8" font-family="Helvetica,sans-Serif" font-weight="bold" font-size="9.00">melody&#45;hierarchical&#45;analysis</text>
</g>
<g id="clust19" class="cluster">
<title>cluster_packages/music&#45;structure/melody/melody&#45;hierarchical&#45;analysis/src</title>
<path fill="#ffffff" stroke="black" stroke-width="2" d="M114,-286C114,-286 440,-286 440,-286 446,-286 452,-292 452,-298 452,-298 452,-326 452,-326 452,-332 446,-338 440,-338 440,-338 114,-338 114,-338 108,-338 102,-332 102,-326 102,-326 102,-298 102,-298 102,-292 108,-286 114,-286"/>
<text text-anchor="middle" x="277" y="-326.8" font-family="Helvetica,sans-Serif" font-weight="bold" font-size="9.00">src</text>
</g>
<g id="clust20" class="cluster">
<title>cluster_packages/tonal&#45;objects</title>
<path fill="#ffffff" stroke="black" stroke-width="2" d="M839,-16C839,-16 901,-16 901,-16 907,-16 913,-22 913,-28 913,-28 913,-90 913,-90 913,-96 907,-102 901,-102 901,-102 839,-102 839,-102 833,-102 827,-96 827,-90 827,-90 827,-28 827,-28 827,-22 833,-16 839,-16"/>
<text text-anchor="middle" x="870" y="-90.8" font-family="Helvetica,sans-Serif" font-weight="bold" font-size="9.00">tonal&#45;objects</text>
</g>
<g id="clust21" class="cluster">
<title>cluster_packages/tonal&#45;objects/dist</title>
<path fill="#ffffff" stroke="black" stroke-width="2" d="M847,-24C847,-24 893,-24 893,-24 899,-24 905,-30 905,-36 905,-36 905,-64 905,-64 905,-70 899,-76 893,-76 893,-76 847,-76 847,-76 841,-76 835,-70 835,-64 835,-64 835,-36 835,-36 835,-30 841,-24 847,-24"/>
<text text-anchor="middle" x="870" y="-64.8" font-family="Helvetica,sans-Serif" font-weight="bold" font-size="9.00">dist</text>
</g>
<g id="clust22" class="cluster">
<title>cluster_packages/util</title>
<path fill="#ffffff" stroke="black" stroke-width="2" d="M814,-586C814,-586 927,-586 927,-586 933,-586 939,-592 939,-598 939,-598 939,-822 939,-822 939,-828 933,-834 927,-834 927,-834 814,-834 814,-834 808,-834 802,-828 802,-822 802,-822 802,-598 802,-598 802,-592 808,-586 814,-586"/>
<text text-anchor="middle" x="870.5" y="-822.8" font-family="Helvetica,sans-Serif" font-weight="bold" font-size="9.00">util</text>
</g>
<g id="clust23" class="cluster">
<title>cluster_packages/util/math</title>
<path fill="#ffffff" stroke="black" stroke-width="2" d="M822,-594C822,-594 919,-594 919,-594 925,-594 931,-600 931,-606 931,-606 931,-702 931,-702 931,-708 925,-714 919,-714 919,-714 822,-714 822,-714 816,-714 810,-708 810,-702 810,-702 810,-606 810,-606 810,-600 816,-594 822,-594"/>
<text text-anchor="middle" x="870.5" y="-702.8" font-family="Helvetica,sans-Serif" font-weight="bold" font-size="9.00">math</text>
</g>
<g id="clust24" class="cluster">
<title>cluster_packages/util/math/src</title>
<path fill="#ffffff" stroke="black" stroke-width="2" d="M830,-602C830,-602 911,-602 911,-602 917,-602 923,-608 923,-614 923,-614 923,-676 923,-676 923,-682 917,-688 911,-688 911,-688 830,-688 830,-688 824,-688 818,-682 818,-676 818,-676 818,-614 818,-614 818,-608 824,-602 830,-602"/>
<text text-anchor="middle" x="870.5" y="-676.8" font-family="Helvetica,sans-Serif" font-weight="bold" font-size="9.00">src</text>
</g>
<g id="clust25" class="cluster">
<title>cluster_packages/util/math/src/basic&#45;function</title>
<path fill="#ffffff" stroke="black" stroke-width="2" d="M838,-610C838,-610 903,-610 903,-610 909,-610 915,-616 915,-622 915,-622 915,-650 915,-650 915,-656 909,-662 903,-662 903,-662 838,-662 838,-662 832,-662 826,-656 826,-650 826,-650 826,-622 826,-622 826,-616 832,-610 838,-610"/>
<text text-anchor="middle" x="870.5" y="-650.8" font-family="Helvetica,sans-Serif" font-weight="bold" font-size="9.00">basic&#45;function</text>
</g>
<g id="clust26" class="cluster">
<title>cluster_packages/util/time&#45;and</title>
<path fill="#ffffff" stroke="black" stroke-width="2" d="M839,-722C839,-722 901,-722 901,-722 907,-722 913,-728 913,-734 913,-734 913,-796 913,-796 913,-802 907,-808 901,-808 901,-808 839,-808 839,-808 833,-808 827,-802 827,-796 827,-796 827,-734 827,-734 827,-728 833,-722 839,-722"/>
<text text-anchor="middle" x="870" y="-796.8" font-family="Helvetica,sans-Serif" font-weight="bold" font-size="9.00">time&#45;and</text>
</g>
<g id="clust27" class="cluster">
<title>cluster_packages/util/time&#45;and/dist</title>
<path fill="#ffffff" stroke="black" stroke-width="2" d="M847,-730C847,-730 893,-730 893,-730 899,-730 905,-736 905,-742 905,-742 905,-770 905,-770 905,-776 899,-782 893,-782 893,-782 847,-782 847,-782 841,-782 835,-776 835,-770 835,-770 835,-742 835,-742 835,-736 841,-730 847,-730"/>
<text text-anchor="middle" x="870" y="-770.8" font-family="Helvetica,sans-Serif" font-weight="bold" font-size="9.00">dist</text>
</g>
<!-- packages/cognitive&#45;theory&#45;of&#45;music/gttm/dist/index.js -->
<g id="node1" class="node">
<title>packages/cognitive&#45;theory&#45;of&#45;music/gttm/dist/index.js</title>
<g id="a_node1"><a xlink:href="packages/cognitive-theory-of-music/gttm/dist/index.js" xlink:title="index.js">
<polygon fill="#ffffcc" stroke="black" points="897,-978 895.5,-980 885,-980 883.5,-978 843,-978 843,-960 897,-960 897,-978"/>
<text text-anchor="start" x="852.5" y="-966.8" font-family="Helvetica,sans-Serif" font-size="9.00">index.js</text>
</a>
</g>
</g>
<!-- packages/cognitive&#45;theory&#45;of&#45;music/irm/dist/index.js -->
<g id="node2" class="node">
<title>packages/cognitive&#45;theory&#45;of&#45;music/irm/dist/index.js</title>
<g id="a_node2"><a xlink:href="packages/cognitive-theory-of-music/irm/dist/index.js" xlink:title="index.js">
<polygon fill="#ffffcc" stroke="black" points="897,-884 895.5,-886 885,-886 883.5,-884 843,-884 843,-866 897,-866 897,-884"/>
<text text-anchor="start" x="852.5" y="-872.8" font-family="Helvetica,sans-Serif" font-size="9.00">index.js</text>
</a>
</g>
</g>
<!-- packages/data&#45;type/music&#45;xml/dist/index.js -->
<g id="node3" class="node">
<title>packages/data&#45;type/music&#45;xml/dist/index.js</title>
<g id="a_node3"><a xlink:href="packages/data-type/music-xml/dist/index.js" xlink:title="index.js">
<polygon fill="#ffffcc" stroke="black" points="596.5,-640 595,-642 584.5,-642 583,-640 542.5,-640 542.5,-622 596.5,-622 596.5,-640"/>
<text text-anchor="start" x="552" y="-628.8" font-family="Helvetica,sans-Serif" font-size="9.00">index.js</text>
</a>
</g>
</g>
<!-- packages/music&#45;structure/chord/chord&#45;analyze/src/chord&#45;analyze/time&#45;and&#45;roman&#45;analysis.ts -->
<g id="node4" class="node">
<title>packages/music&#45;structure/chord/chord&#45;analyze/src/chord&#45;analyze/time&#45;and&#45;roman&#45;analysis.ts</title>
<g id="a_node4"><a xlink:href="packages/music-structure/chord/chord-analyze/src/chord-analyze/time-and-roman-analysis.ts" xlink:title="time&#45;and&#45;roman&#45;analysis.ts">
<path fill="#ddfeff" stroke="black" d="M633,-448C633,-448 506,-448 506,-448 503,-448 500,-445 500,-442 500,-442 500,-436 500,-436 500,-433 503,-430 506,-430 506,-430 633,-430 633,-430 636,-430 639,-433 639,-436 639,-436 639,-442 639,-442 639,-445 636,-448 633,-448"/>
<text text-anchor="start" x="508" y="-436.8" font-family="Helvetica,sans-Serif" font-size="9.00">time&#45;and&#45;roman&#45;analysis.ts</text>
</a>
</g>
</g>
<!-- packages/util/time&#45;and/dist/index.js -->
<g id="node5" class="node">
<title>packages/util/time&#45;and/dist/index.js</title>
<g id="a_node5"><a xlink:href="packages/util/time-and/dist/index.js" xlink:title="index.js">
<polygon fill="#ffffcc" stroke="black" points="897,-756 895.5,-758 885,-758 883.5,-756 843,-756 843,-738 897,-738 897,-756"/>
<text text-anchor="start" x="852.5" y="-744.8" font-family="Helvetica,sans-Serif" font-size="9.00">index.js</text>
</a>
</g>
</g>
<!-- packages/music&#45;structure/chord/chord&#45;analyze/src/chord&#45;analyze/time&#45;and&#45;roman&#45;analysis.ts&#45;&gt;packages/util/time&#45;and/dist/index.js -->
<g id="edge1" class="edge">
<title>packages/music&#45;structure/chord/chord&#45;analyze/src/chord&#45;analyze/time&#45;and&#45;roman&#45;analysis.ts&#45;&gt;packages/util/time&#45;and/dist/index.js</title>
<path fill="none" stroke="#000000" stroke-width="2" stroke-opacity="0.200000" d="M578.49,-448.22C621.44,-492.23 805.64,-681.03 856.78,-733.45"/>
<polygon fill="#000000" fill-opacity="0.200000" stroke="#000000" stroke-width="2" stroke-opacity="0.200000" points="855.35,-734.99 861.04,-737.82 858.35,-732.06 855.35,-734.99"/>
</g>
<!-- packages/music&#45;structure/melody/melody&#45;analyze/src/analyze&#45;melody.ts -->
<g id="node6" class="node">
<title>packages/music&#45;structure/melody/melody&#45;analyze/src/analyze&#45;melody.ts</title>
<g id="a_node6"><a xlink:href="packages/music-structure/melody/melody-analyze/src/analyze-melody.ts" xlink:title="analyze&#45;melody.ts">
<path fill="#ddfeff" stroke="black" d="M425.5,-218C425.5,-218 341.5,-218 341.5,-218 338.5,-218 335.5,-215 335.5,-212 335.5,-212 335.5,-206 335.5,-206 335.5,-203 338.5,-200 341.5,-200 341.5,-200 425.5,-200 425.5,-200 428.5,-200 431.5,-203 431.5,-206 431.5,-206 431.5,-212 431.5,-212 431.5,-215 428.5,-218 425.5,-218"/>
<text text-anchor="start" x="343.5" y="-206.8" font-family="Helvetica,sans-Serif" font-size="9.00">analyze&#45;melody.ts</text>
</a>
</g>
</g>
<!-- packages/music&#45;structure/melody/melody&#45;analyze/src/analyze&#45;melody.ts&#45;&gt;packages/cognitive&#45;theory&#45;of&#45;music/irm/dist/index.js -->
<g id="edge7" class="edge">
<title>packages/music&#45;structure/melody/melody&#45;analyze/src/analyze&#45;melody.ts&#45;&gt;packages/cognitive&#45;theory&#45;of&#45;music/irm/dist/index.js</title>
<path fill="none" stroke="#000000" stroke-width="2" stroke-opacity="0.200000" d="M390.38,-218.41C444,-291.82 794.76,-771.99 859.67,-860.86"/>
<polygon fill="#000000" fill-opacity="0.200000" stroke="#000000" stroke-width="2" stroke-opacity="0.200000" points="858.14,-862.32 863.37,-865.93 861.53,-859.84 858.14,-862.32"/>
</g>
<!-- packages/music&#45;structure/melody/melody&#45;analyze/src/analyze&#45;melody.ts&#45;&gt;packages/music&#45;structure/chord/chord&#45;analyze/src/chord&#45;analyze/time&#45;and&#45;roman&#45;analysis.ts -->
<g id="edge6" class="edge">
<title>packages/music&#45;structure/melody/melody&#45;analyze/src/analyze&#45;melody.ts&#45;&gt;packages/music&#45;structure/chord/chord&#45;analyze/src/chord&#45;analyze/time&#45;and&#45;roman&#45;analysis.ts</title>
<path fill="none" stroke="#000000" stroke-width="2" stroke-opacity="0.200000" d="M391.71,-218.02C419.93,-253.29 522.99,-382.12 557.3,-425"/>
<polygon fill="#000000" fill-opacity="0.200000" stroke="#000000" stroke-width="2" stroke-opacity="0.200000" points="555.75,-426.42 561.14,-429.8 559.03,-423.8 555.75,-426.42"/>
</g>
<!-- packages/music&#45;structure/melody/melody&#45;analyze/src/melody&#45;analysis.ts -->
<g id="node7" class="node">
<title>packages/music&#45;structure/melody/melody&#45;analyze/src/melody&#45;analysis.ts</title>
<g id="a_node7"><a xlink:href="packages/music-structure/melody/melody-analyze/src/melody-analysis.ts" xlink:title="melody&#45;analysis.ts">
<path fill="#ddfeff" stroke="black" d="M772,-193C772,-193 685,-193 685,-193 682,-193 679,-190 679,-187 679,-187 679,-181 679,-181 679,-178 682,-175 685,-175 685,-175 772,-175 772,-175 775,-175 778,-178 778,-181 778,-181 778,-187 778,-187 778,-190 775,-193 772,-193"/>
<text text-anchor="start" x="687" y="-181.8" font-family="Helvetica,sans-Serif" font-size="9.00">melody&#45;analysis.ts</text>
</a>
</g>
</g>
<!-- packages/music&#45;structure/melody/melody&#45;analyze/src/analyze&#45;melody.ts&#45;&gt;packages/music&#45;structure/melody/melody&#45;analyze/src/melody&#45;analysis.ts -->
<g id="edge2" class="edge">
<title>packages/music&#45;structure/melody/melody&#45;analyze/src/analyze&#45;melody.ts&#45;&gt;packages/music&#45;structure/melody/melody&#45;analyze/src/melody&#45;analysis.ts</title>
<path fill="none" stroke="#000000" stroke-width="2" stroke-opacity="0.200000" d="M431.83,-205.5C495.07,-200.92 605.67,-192.9 672.49,-188.06"/>
<polygon fill="#000000" fill-opacity="0.200000" stroke="#000000" stroke-width="2" stroke-opacity="0.200000" points="672.98,-190.13 678.82,-187.6 672.68,-185.94 672.98,-190.13"/>
</g>
<!-- packages/music&#45;structure/melody/melody&#45;analyze/src/register&#45;gravity.ts -->
<g id="node8" class="node">
<title>packages/music&#45;structure/melody/melody&#45;analyze/src/register&#45;gravity.ts</title>
<g id="a_node8"><a xlink:href="packages/music-structure/melody/melody-analyze/src/register-gravity.ts" xlink:title="register&#45;gravity.ts">
<path fill="#ddfeff" stroke="black" d="M770,-160C770,-160 687,-160 687,-160 684,-160 681,-157 681,-154 681,-154 681,-148 681,-148 681,-145 684,-142 687,-142 687,-142 770,-142 770,-142 773,-142 776,-145 776,-148 776,-148 776,-154 776,-154 776,-157 773,-160 770,-160"/>
<text text-anchor="start" x="689" y="-148.8" font-family="Helvetica,sans-Serif" font-size="9.00">register&#45;gravity.ts</text>
</a>
</g>
</g>
<!-- packages/music&#45;structure/melody/melody&#45;analyze/src/analyze&#45;melody.ts&#45;&gt;packages/music&#45;structure/melody/melody&#45;analyze/src/register&#45;gravity.ts -->
<g id="edge3" class="edge">
<title>packages/music&#45;structure/melody/melody&#45;analyze/src/analyze&#45;melody.ts&#45;&gt;packages/music&#45;structure/melody/melody&#45;analyze/src/register&#45;gravity.ts</title>
<path fill="none" stroke="#000000" stroke-width="2" stroke-opacity="0.200000" d="M431.83,-200.87C495.7,-190.14 607.87,-171.28 674.47,-160.08"/>
<polygon fill="#000000" fill-opacity="0.200000" stroke="#000000" stroke-width="2" stroke-opacity="0.200000" points="675.2,-162.09 680.77,-159.02 674.51,-157.95 675.2,-162.09"/>
</g>
<!-- packages/music&#45;structure/melody/melody&#45;analyze/src/time&#45;and&#45;analyzed&#45;melody.ts -->
<g id="node9" class="node">
<title>packages/music&#45;structure/melody/melody&#45;analyze/src/time&#45;and&#45;analyzed&#45;melody.ts</title>
<g id="a_node9"><a xlink:href="packages/music-structure/melody/melody-analyze/src/time-and-analyzed-melody.ts" xlink:title="time&#45;and&#45;analyzed&#45;melody.ts">
<path fill="#ddfeff" stroke="black" d="M636.5,-174C636.5,-174 502.5,-174 502.5,-174 499.5,-174 496.5,-171 496.5,-168 496.5,-168 496.5,-162 496.5,-162 496.5,-159 499.5,-156 502.5,-156 502.5,-156 636.5,-156 636.5,-156 639.5,-156 642.5,-159 642.5,-162 642.5,-162 642.5,-168 642.5,-168 642.5,-171 639.5,-174 636.5,-174"/>
<text text-anchor="start" x="504.5" y="-162.8" font-family="Helvetica,sans-Serif" font-size="9.00">time&#45;and&#45;analyzed&#45;melody.ts</text>
</a>
</g>
</g>
<!-- packages/music&#45;structure/melody/melody&#45;analyze/src/analyze&#45;melody.ts&#45;&gt;packages/music&#45;structure/melody/melody&#45;analyze/src/time&#45;and&#45;analyzed&#45;melody.ts -->
<g id="edge4" class="edge">
<title>packages/music&#45;structure/melody/melody&#45;analyze/src/analyze&#45;melody.ts&#45;&gt;packages/music&#45;structure/melody/melody&#45;analyze/src/time&#45;and&#45;analyzed&#45;melody.ts</title>
<path fill="none" stroke="#000000" stroke-width="2" stroke-opacity="0.200000" d="M422.18,-199.99C451.85,-192.89 493.26,-182.99 524.46,-175.53"/>
<polygon fill="#000000" fill-opacity="0.200000" stroke="#000000" stroke-width="2" stroke-opacity="0.200000" points="525.21,-177.51 530.56,-174.07 524.23,-173.43 525.21,-177.51"/>
</g>
<!-- packages/music&#45;structure/melody/melody&#45;analyze/src/time&#45;and&#45;melody.ts -->
<g id="node10" class="node">
<title>packages/music&#45;structure/melody/melody&#45;analyze/src/time&#45;and&#45;melody.ts</title>
<g id="a_node10"><a xlink:href="packages/music-structure/melody/melody-analyze/src/time-and-melody.ts" xlink:title="time&#45;and&#45;melody.ts">
<path fill="#ddfeff" stroke="black" d="M615,-218C615,-218 524,-218 524,-218 521,-218 518,-215 518,-212 518,-212 518,-206 518,-206 518,-203 521,-200 524,-200 524,-200 615,-200 615,-200 618,-200 621,-203 621,-206 621,-206 621,-212 621,-212 621,-215 618,-218 615,-218"/>
<text text-anchor="start" x="526" y="-206.8" font-family="Helvetica,sans-Serif" font-size="9.00">time&#45;and&#45;melody.ts</text>
</a>
</g>
</g>
<!-- packages/music&#45;structure/melody/melody&#45;analyze/src/analyze&#45;melody.ts&#45;&gt;packages/music&#45;structure/melody/melody&#45;analyze/src/time&#45;and&#45;melody.ts -->
<g id="edge5" class="edge">
<title>packages/music&#45;structure/melody/melody&#45;analyze/src/analyze&#45;melody.ts&#45;&gt;packages/music&#45;structure/melody/melody&#45;analyze/src/time&#45;and&#45;melody.ts</title>
<path fill="none" stroke="#000000" stroke-width="2" stroke-opacity="0.200000" d="M431.88,-209C456.23,-209 486.08,-209 511.66,-209"/>
<polygon fill="#000000" fill-opacity="0.200000" stroke="#000000" stroke-width="2" stroke-opacity="0.200000" points="511.73,-211.1 517.73,-209 511.73,-206.9 511.73,-211.1"/>
</g>
<!-- packages/tonal&#45;objects/dist/index.js -->
<g id="node11" class="node">
<title>packages/tonal&#45;objects/dist/index.js</title>
<g id="a_node11"><a xlink:href="packages/tonal-objects/dist/index.js" xlink:title="index.js">
<polygon fill="#ffffcc" stroke="black" points="897,-50 895.5,-52 885,-52 883.5,-50 843,-50 843,-32 897,-32 897,-50"/>
<text text-anchor="start" x="852.5" y="-38.8" font-family="Helvetica,sans-Serif" font-size="9.00">index.js</text>
</a>
</g>
</g>
<!-- packages/music&#45;structure/melody/melody&#45;analyze/src/analyze&#45;melody.ts&#45;&gt;packages/tonal&#45;objects/dist/index.js -->
<g id="edge8" class="edge">
<title>packages/music&#45;structure/melody/melody&#45;analyze/src/analyze&#45;melody.ts&#45;&gt;packages/tonal&#45;objects/dist/index.js</title>
<path fill="none" stroke="#000000" stroke-width="2" stroke-opacity="0.200000" d="M409.66,-199.97C492.31,-171.42 747.76,-83.21 838.01,-52.05"/>
<polygon fill="#000000" fill-opacity="0.200000" stroke="#000000" stroke-width="2" stroke-opacity="0.200000" points="838.73,-54.02 843.71,-50.08 837.36,-50.05 838.73,-54.02"/>
</g>
<!-- packages/music&#45;structure/melody/melody&#45;analyze/src/melody&#45;analysis.ts&#45;&gt;packages/cognitive&#45;theory&#45;of&#45;music/irm/dist/index.js -->
<g id="edge10" class="edge">
<title>packages/music&#45;structure/melody/melody&#45;analyze/src/melody&#45;analysis.ts&#45;&gt;packages/cognitive&#45;theory&#45;of&#45;music/irm/dist/index.js</title>
<path fill="none" stroke="#000000" stroke-width="2" stroke-opacity="0.200000" d="M731.37,-193.25C746.33,-267.38 846.73,-764.71 865.86,-859.43"/>
<polygon fill="#000000" fill-opacity="0.200000" stroke="#000000" stroke-width="2" stroke-opacity="0.200000" points="863.85,-860.08 867.09,-865.55 867.96,-859.25 863.85,-860.08"/>
</g>
<!-- packages/music&#45;structure/melody/melody&#45;analyze/src/gravity.ts -->
<g id="node12" class="node">
<title>packages/music&#45;structure/melody/melody&#45;analyze/src/gravity.ts</title>
<g id="a_node12"><a xlink:href="packages/music-structure/melody/melody-analyze/src/gravity.ts" xlink:title="gravity.ts">
<path fill="#ddfeff" stroke="black" d="M893,-176C893,-176 847,-176 847,-176 844,-176 841,-173 841,-170 841,-170 841,-164 841,-164 841,-161 844,-158 847,-158 847,-158 893,-158 893,-158 896,-158 899,-161 899,-164 899,-164 899,-170 899,-170 899,-173 896,-176 893,-176"/>
<text text-anchor="start" x="849" y="-164.8" font-family="Helvetica,sans-Serif" font-size="9.00">gravity.ts</text>
</a>
</g>
</g>
<!-- packages/music&#45;structure/melody/melody&#45;analyze/src/melody&#45;analysis.ts&#45;&gt;packages/music&#45;structure/melody/melody&#45;analyze/src/gravity.ts -->
<g id="edge9" class="edge">
<title>packages/music&#45;structure/melody/melody&#45;analyze/src/melody&#45;analysis.ts&#45;&gt;packages/music&#45;structure/melody/melody&#45;analyze/src/gravity.ts</title>
<path fill="none" stroke="#000000" stroke-width="2" stroke-opacity="0.200000" d="M778.29,-178.05C796.9,-175.79 817.71,-173.25 834.7,-171.18"/>
<polygon fill="#000000" fill-opacity="0.200000" stroke="#000000" stroke-width="2" stroke-opacity="0.200000" points="835.07,-173.25 840.78,-170.44 834.57,-169.08 835.07,-173.25"/>
</g>
<!-- packages/music&#45;structure/melody/melody&#45;analyze/src/register&#45;gravity.ts&#45;&gt;packages/tonal&#45;objects/dist/index.js -->
<g id="edge13" class="edge">
<title>packages/music&#45;structure/melody/melody&#45;analyze/src/register&#45;gravity.ts&#45;&gt;packages/tonal&#45;objects/dist/index.js</title>
<path fill="none" stroke="#000000" stroke-width="2" stroke-opacity="0.200000" d="M740.92,-142C765.54,-122.58 823.74,-76.69 852.43,-54.07"/>
<polygon fill="#000000" fill-opacity="0.200000" stroke="#000000" stroke-width="2" stroke-opacity="0.200000" points="854.02,-55.49 857.43,-50.13 851.41,-52.19 854.02,-55.49"/>
</g>
<!-- packages/music&#45;structure/melody/melody&#45;analyze/src/register&#45;gravity.ts&#45;&gt;packages/music&#45;structure/melody/melody&#45;analyze/src/gravity.ts -->
<g id="edge11" class="edge">
<title>packages/music&#45;structure/melody/melody&#45;analyze/src/register&#45;gravity.ts&#45;&gt;packages/music&#45;structure/melody/melody&#45;analyze/src/gravity.ts</title>
<path fill="none" stroke="#000000" stroke-width="2" stroke-opacity="0.200000" d="M776.34,-156.37C795.37,-158.56 816.97,-161.03 834.52,-163.05"/>
<polygon fill="#000000" fill-opacity="0.200000" stroke="#000000" stroke-width="2" stroke-opacity="0.200000" points="834.59,-165.17 840.79,-163.76 835.07,-160.99 834.59,-165.17"/>
</g>
<!-- packages/util/math/src/basic&#45;function/mod.ts -->
<g id="node13" class="node">
<title>packages/util/math/src/basic&#45;function/mod.ts</title>
<g id="a_node13"><a xlink:href="packages/util/math/src/basic-function/mod.ts" xlink:title="mod.ts">
<path fill="#ddfeff" stroke="black" d="M891,-636C891,-636 849,-636 849,-636 846,-636 843,-633 843,-630 843,-630 843,-624 843,-624 843,-621 846,-618 849,-618 849,-618 891,-618 891,-618 894,-618 897,-621 897,-624 897,-624 897,-630 897,-630 897,-633 894,-636 891,-636"/>
<text text-anchor="start" x="854" y="-624.8" font-family="Helvetica,sans-Serif" font-size="9.00">mod.ts</text>
</a>
</g>
</g>
<!-- packages/music&#45;structure/melody/melody&#45;analyze/src/register&#45;gravity.ts&#45;&gt;packages/util/math/src/basic&#45;function/mod.ts -->
<g id="edge12" class="edge">
<title>packages/music&#45;structure/melody/melody&#45;analyze/src/register&#45;gravity.ts&#45;&gt;packages/util/math/src/basic&#45;function/mod.ts</title>
<path fill="none" stroke="#000000" stroke-width="2" stroke-opacity="0.200000" d="M732.16,-160.08C749.2,-218.22 842.94,-538.09 864.55,-611.83"/>
<polygon fill="#000000" fill-opacity="0.200000" stroke="#000000" stroke-width="2" stroke-opacity="0.200000" points="862.61,-612.65 866.31,-617.82 866.64,-611.47 862.61,-612.65"/>
</g>
<!-- packages/music&#45;structure/melody/melody&#45;analyze/src/time&#45;and&#45;analyzed&#45;melody.ts&#45;&gt;packages/util/time&#45;and/dist/index.js -->
<g id="edge15" class="edge">
<title>packages/music&#45;structure/melody/melody&#45;analyze/src/time&#45;and&#45;analyzed&#45;melody.ts&#45;&gt;packages/util/time&#45;and/dist/index.js</title>
<path fill="none" stroke="#000000" stroke-width="2" stroke-opacity="0.200000" d="M574.22,-174.14C608.56,-240.66 819.91,-649.99 862.52,-732.51"/>
<polygon fill="#000000" fill-opacity="0.200000" stroke="#000000" stroke-width="2" stroke-opacity="0.200000" points="860.67,-733.51 865.29,-737.88 864.4,-731.58 860.67,-733.51"/>
</g>
<!-- packages/music&#45;structure/melody/melody&#45;analyze/src/time&#45;and&#45;analyzed&#45;melody.ts&#45;&gt;packages/music&#45;structure/melody/melody&#45;analyze/src/melody&#45;analysis.ts -->
<g id="edge14" class="edge">
<title>packages/music&#45;structure/melody/melody&#45;analyze/src/time&#45;and&#45;analyzed&#45;melody.ts&#45;&gt;packages/music&#45;structure/melody/melody&#45;analyze/src/melody&#45;analysis.ts</title>
<path fill="none" stroke="#000000" stroke-width="2" stroke-opacity="0.200000" d="M642.57,-173.72C652.71,-174.95 663.01,-176.19 672.76,-177.37"/>
<polygon fill="#000000" fill-opacity="0.200000" stroke="#000000" stroke-width="2" stroke-opacity="0.200000" points="672.54,-179.46 678.75,-178.1 673.05,-175.29 672.54,-179.46"/>
</g>
<!-- packages/music&#45;structure/melody/melody&#45;analyze/src/time&#45;and&#45;melody.ts&#45;&gt;packages/util/time&#45;and/dist/index.js -->
<g id="edge16" class="edge">
<title>packages/music&#45;structure/melody/melody&#45;analyze/src/time&#45;and&#45;melody.ts&#45;&gt;packages/util/time&#45;and/dist/index.js</title>
<path fill="none" stroke="#000000" stroke-width="2" stroke-opacity="0.200000" d="M574.72,-218.34C610.34,-282.12 817.7,-653.37 861.77,-732.26"/>
<polygon fill="#000000" fill-opacity="0.200000" stroke="#000000" stroke-width="2" stroke-opacity="0.200000" points="860.12,-733.61 864.88,-737.82 863.78,-731.56 860.12,-733.61"/>
</g>
<!-- packages/music&#45;structure/melody/melody&#45;hierarchical&#45;analysis/index.ts -->
<g id="node14" class="node">
<title>packages/music&#45;structure/melody/melody&#45;hierarchical&#45;analysis/index.ts</title>
<g id="a_node14"><a xlink:href="packages/music-structure/melody/melody-hierarchical-analysis/index.ts" xlink:title="index.ts">
<path fill="#ddfeff" stroke="black" d="M88,-312C88,-312 46,-312 46,-312 43,-312 40,-309 40,-306 40,-306 40,-300 40,-300 40,-297 43,-294 46,-294 46,-294 88,-294 88,-294 91,-294 94,-297 94,-300 94,-300 94,-306 94,-306 94,-309 91,-312 88,-312"/>
<text text-anchor="start" x="48.5" y="-300.8" font-family="Helvetica,sans-Serif" font-size="9.00">index.ts</text>
</a>
</g>
</g>
<!-- packages/music&#45;structure/melody/melody&#45;hierarchical&#45;analysis/src/index.ts -->
<g id="node15" class="node">
<title>packages/music&#45;structure/melody/melody&#45;hierarchical&#45;analysis/src/index.ts</title>
<g id="a_node15"><a xlink:href="packages/music-structure/melody/melody-hierarchical-analysis/src/index.ts" xlink:title="index.ts">
<path fill="#ddfeff" stroke="black" d="M158,-312C158,-312 116,-312 116,-312 113,-312 110,-309 110,-306 110,-306 110,-300 110,-300 110,-297 113,-294 116,-294 116,-294 158,-294 158,-294 161,-294 164,-297 164,-300 164,-300 164,-306 164,-306 164,-309 161,-312 158,-312"/>
<text text-anchor="start" x="118.5" y="-300.8" font-family="Helvetica,sans-Serif" font-size="9.00">index.ts</text>
</a>
</g>
</g>
<!-- packages/music&#45;structure/melody/melody&#45;hierarchical&#45;analysis/index.ts&#45;&gt;packages/music&#45;structure/melody/melody&#45;hierarchical&#45;analysis/src/index.ts -->
<g id="edge17" class="edge">
<title>packages/music&#45;structure/melody/melody&#45;hierarchical&#45;analysis/index.ts&#45;&gt;packages/music&#45;structure/melody/melody&#45;hierarchical&#45;analysis/src/index.ts</title>
<path fill="none" stroke="#000000" stroke-width="2" stroke-opacity="0.200000" d="M94.1,-303C97.12,-303 100.23,-303 103.33,-303"/>
<polygon fill="#000000" fill-opacity="0.200000" stroke="#000000" stroke-width="2" stroke-opacity="0.200000" points="109.64,-305.1 103.64,-303 109.64,-300.9 109.64,-305.1"/>
</g>
<!-- packages/music&#45;structure/melody/melody&#45;hierarchical&#45;analysis/src/get&#45;hierarchical&#45;melody.ts -->
<g id="node16" class="node">
<title>packages/music&#45;structure/melody/melody&#45;hierarchical&#45;analysis/src/get&#45;hierarchical&#45;melody.ts</title>
<g id="a_node16"><a xlink:href="packages/music-structure/melody/melody-hierarchical-analysis/src/get-hierarchical-melody.ts" xlink:title="get&#45;hierarchical&#45;melody.ts">
<path fill="#ddfeff" stroke="black" d="M304,-312C304,-312 183,-312 183,-312 180,-312 177,-309 177,-306 177,-306 177,-300 177,-300 177,-297 180,-294 183,-294 183,-294 304,-294 304,-294 307,-294 310,-297 310,-300 310,-300 310,-306 310,-306 310,-309 307,-312 304,-312"/>
<text text-anchor="start" x="185" y="-300.8" font-family="Helvetica,sans-Serif" font-size="9.00">get&#45;hierarchical&#45;melody.ts</text>
</a>
</g>
</g>
<!-- packages/music&#45;structure/melody/melody&#45;hierarchical&#45;analysis/src/index.ts&#45;&gt;packages/music&#45;structure/melody/melody&#45;hierarchical&#45;analysis/src/get&#45;hierarchical&#45;melody.ts -->
<g id="edge30" class="edge">
<title>packages/music&#45;structure/melody/melody&#45;hierarchical&#45;analysis/src/index.ts&#45;&gt;packages/music&#45;structure/melody/melody&#45;hierarchical&#45;analysis/src/get&#45;hierarchical&#45;melody.ts</title>
<path fill="none" stroke="#000000" stroke-width="2" stroke-opacity="0.200000" d="M164.1,-303C166.22,-303 168.42,-303 170.67,-303"/>
<polygon fill="#000000" fill-opacity="0.200000" stroke="#000000" stroke-width="2" stroke-opacity="0.200000" points="176.76,-305.1 170.76,-303 176.76,-300.9 176.76,-305.1"/>
</g>
<!-- packages/music&#45;structure/melody/melody&#45;hierarchical&#45;analysis/src/get&#45;hierarchical&#45;melody.ts&#45;&gt;packages/cognitive&#45;theory&#45;of&#45;music/gttm/dist/index.js -->
<g id="edge20" class="edge">
<title>packages/music&#45;structure/melody/melody&#45;hierarchical&#45;analysis/src/get&#45;hierarchical&#45;melody.ts&#45;&gt;packages/cognitive&#45;theory&#45;of&#45;music/gttm/dist/index.js</title>
<path fill="none" stroke="#000000" stroke-width="2" stroke-opacity="0.200000" d="M252.36,-312.41C321.54,-385.97 774.91,-867.91 857.2,-955.39"/>
<polygon fill="#000000" fill-opacity="0.200000" stroke="#000000" stroke-width="2" stroke-opacity="0.200000" points="855.82,-956.99 861.46,-959.93 858.88,-954.12 855.82,-956.99"/>
</g>
<!-- packages/music&#45;structure/melody/melody&#45;hierarchical&#45;analysis/src/get&#45;hierarchical&#45;melody.ts&#45;&gt;packages/data&#45;type/music&#45;xml/dist/index.js -->
<g id="edge24" class="edge">
<title>packages/music&#45;structure/melody/melody&#45;hierarchical&#45;analysis/src/get&#45;hierarchical&#45;melody.ts&#45;&gt;packages/data&#45;type/music&#45;xml/dist/index.js</title>
<path fill="none" stroke="#000000" stroke-width="2" stroke-opacity="0.200000" d="M252.56,-312.11C297.98,-357.81 500.89,-561.97 555.77,-617.19"/>
<polygon fill="#000000" fill-opacity="0.200000" stroke="#000000" stroke-width="2" stroke-opacity="0.200000" points="554.61,-619 560.33,-621.77 557.59,-616.04 554.61,-619"/>
</g>
<!-- packages/music&#45;structure/melody/melody&#45;hierarchical&#45;analysis/src/get&#45;hierarchical&#45;melody.ts&#45;&gt;packages/music&#45;structure/chord/chord&#45;analyze/src/chord&#45;analyze/time&#45;and&#45;roman&#45;analysis.ts -->
<g id="edge19" class="edge">
<title>packages/music&#45;structure/melody/melody&#45;hierarchical&#45;analysis/src/get&#45;hierarchical&#45;melody.ts&#45;&gt;packages/music&#45;structure/chord/chord&#45;analyze/src/chord&#45;analyze/time&#45;and&#45;roman&#45;analysis.ts</title>
<path fill="none" stroke="#000000" stroke-width="2" stroke-opacity="0.200000" d="M265.14,-312.03C322.45,-335.94 478.11,-400.87 541.78,-427.44"/>
<polygon fill="#000000" fill-opacity="0.200000" stroke="#000000" stroke-width="2" stroke-opacity="0.200000" points="541.31,-429.51 547.65,-429.89 542.92,-425.64 541.31,-429.51"/>
</g>
<!-- packages/music&#45;structure/melody/melody&#45;hierarchical&#45;analysis/src/get&#45;hierarchical&#45;melody.ts&#45;&gt;packages/music&#45;structure/melody/melody&#45;analyze/src/analyze&#45;melody.ts -->
<g id="edge21" class="edge">
<title>packages/music&#45;structure/melody/melody&#45;hierarchical&#45;analysis/src/get&#45;hierarchical&#45;melody.ts&#45;&gt;packages/music&#45;structure/melody/melody&#45;analyze/src/analyze&#45;melody.ts</title>
<path fill="none" stroke="#000000" stroke-width="2" stroke-opacity="0.200000" d="M257.73,-293.99C282.5,-277.12 335.9,-240.74 364.14,-221.51"/>
<polygon fill="#000000" fill-opacity="0.200000" stroke="#000000" stroke-width="2" stroke-opacity="0.200000" points="365.33,-223.24 369.11,-218.12 362.96,-219.77 365.33,-223.24"/>
</g>
<!-- packages/music&#45;structure/melody/melody&#45;hierarchical&#45;analysis/src/get&#45;hierarchical&#45;melody.ts&#45;&gt;packages/music&#45;structure/melody/melody&#45;analyze/src/time&#45;and&#45;analyzed&#45;melody.ts -->
<g id="edge22" class="edge">
<title>packages/music&#45;structure/melody/melody&#45;hierarchical&#45;analysis/src/get&#45;hierarchical&#45;melody.ts&#45;&gt;packages/music&#45;structure/melody/melody&#45;analyze/src/time&#45;and&#45;analyzed&#45;melody.ts</title>
<path fill="none" stroke="#000000" stroke-width="2" stroke-opacity="0.200000" d="M264.89,-293.95C322.11,-269.72 478.66,-203.45 542.18,-176.56"/>
<polygon fill="#000000" fill-opacity="0.200000" stroke="#000000" stroke-width="2" stroke-opacity="0.200000" points="543.32,-178.36 548.03,-174.09 541.69,-174.49 543.32,-178.36"/>
</g>
<!-- packages/music&#45;structure/melody/melody&#45;hierarchical&#45;analysis/src/get&#45;hierarchical&#45;melody.ts&#45;&gt;packages/music&#45;structure/melody/melody&#45;analyze/src/time&#45;and&#45;melody.ts -->
<g id="edge23" class="edge">
<title>packages/music&#45;structure/melody/melody&#45;hierarchical&#45;analysis/src/get&#45;hierarchical&#45;melody.ts&#45;&gt;packages/music&#45;structure/melody/melody&#45;analyze/src/time&#45;and&#45;melody.ts</title>
<path fill="none" stroke="#000000" stroke-width="2" stroke-opacity="0.200000" d="M274.76,-293.99C334.97,-276.63 466.81,-238.61 531.78,-219.88"/>
<polygon fill="#000000" fill-opacity="0.200000" stroke="#000000" stroke-width="2" stroke-opacity="0.200000" points="532.67,-221.8 537.86,-218.12 531.51,-217.77 532.67,-221.8"/>
</g>
<!-- packages/music&#45;structure/melody/melody&#45;hierarchical&#45;analysis/src/get&#45;time&#45;and&#45;melody.ts -->
<g id="node17" class="node">
<title>packages/music&#45;structure/melody/melody&#45;hierarchical&#45;analysis/src/get&#45;time&#45;and&#45;melody.ts</title>
<g id="a_node17"><a xlink:href="packages/music-structure/melody/melody-hierarchical-analysis/src/get-time-and-melody.ts" xlink:title="get&#45;time&#45;and&#45;melody.ts">
<path fill="#ddfeff" stroke="black" d="M438,-312C438,-312 329,-312 329,-312 326,-312 323,-309 323,-306 323,-306 323,-300 323,-300 323,-297 326,-294 329,-294 329,-294 438,-294 438,-294 441,-294 444,-297 444,-300 444,-300 444,-306 444,-306 444,-309 441,-312 438,-312"/>
<text text-anchor="start" x="331" y="-300.8" font-family="Helvetica,sans-Serif" font-size="9.00">get&#45;time&#45;and&#45;melody.ts</text>
</a>
</g>
</g>
<!-- packages/music&#45;structure/melody/melody&#45;hierarchical&#45;analysis/src/get&#45;hierarchical&#45;melody.ts&#45;&gt;packages/music&#45;structure/melody/melody&#45;hierarchical&#45;analysis/src/get&#45;time&#45;and&#45;melody.ts -->
<g id="edge18" class="edge">
<title>packages/music&#45;structure/melody/melody&#45;hierarchical&#45;analysis/src/get&#45;hierarchical&#45;melody.ts&#45;&gt;packages/music&#45;structure/melody/melody&#45;hierarchical&#45;analysis/src/get&#45;time&#45;and&#45;melody.ts</title>
<path fill="none" stroke="#000000" stroke-width="2" stroke-opacity="0.200000" d="M310.27,-303C312.35,-303 314.44,-303 316.52,-303"/>
<polygon fill="#000000" fill-opacity="0.200000" stroke="#000000" stroke-width="2" stroke-opacity="0.200000" points="316.75,-305.1 322.75,-303 316.75,-300.9 316.75,-305.1"/>
</g>
<!-- packages/music&#45;structure/melody/melody&#45;hierarchical&#45;analysis/src/get&#45;time&#45;and&#45;melody.ts&#45;&gt;packages/cognitive&#45;theory&#45;of&#45;music/gttm/dist/index.js -->
<g id="edge25" class="edge">
<title>packages/music&#45;structure/melody/melody&#45;hierarchical&#45;analysis/src/get&#45;time&#45;and&#45;melody.ts&#45;&gt;packages/cognitive&#45;theory&#45;of&#45;music/gttm/dist/index.js</title>
<path fill="none" stroke="#000000" stroke-width="2" stroke-opacity="0.200000" d="M390.38,-312.41C444,-385.82 794.76,-865.99 859.67,-954.86"/>
<polygon fill="#000000" fill-opacity="0.200000" stroke="#000000" stroke-width="2" stroke-opacity="0.200000" points="858.14,-956.32 863.37,-959.93 861.53,-953.84 858.14,-956.32"/>
</g>
<!-- packages/music&#45;structure/melody/melody&#45;hierarchical&#45;analysis/src/get&#45;time&#45;and&#45;melody.ts&#45;&gt;packages/data&#45;type/music&#45;xml/dist/index.js -->
<g id="edge27" class="edge">
<title>packages/music&#45;structure/melody/melody&#45;hierarchical&#45;analysis/src/get&#45;time&#45;and&#45;melody.ts&#45;&gt;packages/data&#45;type/music&#45;xml/dist/index.js</title>
<path fill="none" stroke="#000000" stroke-width="2" stroke-opacity="0.200000" d="M389.61,-312.11C415.15,-357.63 528.85,-560.32 560.37,-616.52"/>
<polygon fill="#000000" fill-opacity="0.200000" stroke="#000000" stroke-width="2" stroke-opacity="0.200000" points="558.56,-617.57 563.32,-621.77 562.22,-615.51 558.56,-617.57"/>
</g>
<!-- packages/music&#45;structure/melody/melody&#45;hierarchical&#45;analysis/src/get&#45;time&#45;and&#45;melody.ts&#45;&gt;packages/util/time&#45;and/dist/index.js -->
<g id="edge28" class="edge">
<title>packages/music&#45;structure/melody/melody&#45;hierarchical&#45;analysis/src/get&#45;time&#45;and&#45;melody.ts&#45;&gt;packages/util/time&#45;and/dist/index.js</title>
<path fill="none" stroke="#000000" stroke-width="2" stroke-opacity="0.200000" d="M393.66,-312.27C455.61,-368.81 782.27,-666.94 855.45,-733.72"/>
<polygon fill="#000000" fill-opacity="0.200000" stroke="#000000" stroke-width="2" stroke-opacity="0.200000" points="854.05,-735.28 859.89,-737.78 856.88,-732.18 854.05,-735.28"/>
</g>
<!-- packages/music&#45;structure/melody/melody&#45;hierarchical&#45;analysis/src/get&#45;time&#45;and&#45;melody.ts&#45;&gt;packages/music&#45;structure/melody/melody&#45;analyze/src/time&#45;and&#45;melody.ts -->
<g id="edge26" class="edge">
<title>packages/music&#45;structure/melody/melody&#45;hierarchical&#45;analysis/src/get&#45;time&#45;and&#45;melody.ts&#45;&gt;packages/music&#45;structure/melody/melody&#45;analyze/src/time&#45;and&#45;melody.ts</title>
<path fill="none" stroke="#000000" stroke-width="2" stroke-opacity="0.200000" d="M402.14,-293.99C435.44,-276.98 507.56,-240.13 544.95,-221.03"/>
<polygon fill="#000000" fill-opacity="0.200000" stroke="#000000" stroke-width="2" stroke-opacity="0.200000" points="546.25,-222.72 550.64,-218.12 544.34,-218.98 546.25,-222.72"/>
</g>
<!-- packages/music&#45;structure/melody/melody&#45;hierarchical&#45;analysis/src/get&#45;time&#45;and&#45;melody.ts&#45;&gt;packages/tonal&#45;objects/dist/index.js -->
<g id="edge29" class="edge">
<title>packages/music&#45;structure/melody/melody&#45;hierarchical&#45;analysis/src/get&#45;time&#45;and&#45;melody.ts&#45;&gt;packages/tonal&#45;objects/dist/index.js</title>
<path fill="none" stroke="#000000" stroke-width="2" stroke-opacity="0.200000" d="M400.25,-293.98C473.26,-254.66 763.86,-98.16 847.42,-53.16"/>
<polygon fill="#000000" fill-opacity="0.200000" stroke="#000000" stroke-width="2" stroke-opacity="0.200000" points="848.79,-54.81 853.07,-50.12 846.79,-51.11 848.79,-54.81"/>
</g>
</g>
</svg>
