<?xml version="1.0" encoding="UTF-8" standalone="no"?>
<!DOCTYPE svg PUBLIC "-//W3C//DTD SVG 1.1//EN"
 "http://www.w3.org/Graphics/SVG/1.1/DTD/svg11.dtd">
<!-- Generated by graphviz version 2.43.0 (0)
 -->
<!-- Title: dependency&#45;cruiser output Pages: 1 -->
<svg width="648pt" height="818pt"
 viewBox="0.00 0.00 648.00 818.00" xmlns="http://www.w3.org/2000/svg" xmlns:xlink="http://www.w3.org/1999/xlink">
<g id="graph0" class="graph" transform="scale(1 1) rotate(0) translate(4 814)">
<title>dependency&#45;cruiser output</title>
<polygon fill="white" stroke="transparent" points="-4,4 -4,-814 644,-814 644,4 -4,4"/>
<g id="clust1" class="cluster">
<title>cluster_packages</title>
<path fill="#ffffff" stroke="black" stroke-width="2" d="M20,-8C20,-8 628,-8 628,-8 634,-8 640,-14 640,-20 640,-20 640,-790 640,-790 640,-796 634,-802 628,-802 628,-802 20,-802 20,-802 14,-802 8,-796 8,-790 8,-790 8,-20 8,-20 8,-14 14,-8 20,-8"/>
<text text-anchor="middle" x="324" y="-790.8" font-family="Helvetica,sans-Serif" font-weight="bold" font-size="9.00">packages</text>
</g>
<g id="clust2" class="cluster">
<title>cluster_packages/cognitive&#45;theory&#45;of&#45;music</title>
<path fill="#ffffff" stroke="black" stroke-width="2" d="M495,-528C495,-528 620,-528 620,-528 626,-528 632,-534 632,-540 632,-540 632,-636 632,-636 632,-642 626,-648 620,-648 620,-648 495,-648 495,-648 489,-648 483,-642 483,-636 483,-636 483,-540 483,-540 483,-534 489,-528 495,-528"/>
<text text-anchor="middle" x="557.5" y="-636.8" font-family="Helvetica,sans-Serif" font-weight="bold" font-size="9.00">cognitive&#45;theory&#45;of&#45;music</text>
</g>
<g id="clust3" class="cluster">
<title>cluster_packages/cognitive&#45;theory&#45;of&#45;music/gttm</title>
<path fill="#ffffff" stroke="black" stroke-width="2" d="M526,-536C526,-536 588,-536 588,-536 594,-536 600,-542 600,-548 600,-548 600,-610 600,-610 600,-616 594,-622 588,-622 588,-622 526,-622 526,-622 520,-622 514,-616 514,-610 514,-610 514,-548 514,-548 514,-542 520,-536 526,-536"/>
<text text-anchor="middle" x="557" y="-610.8" font-family="Helvetica,sans-Serif" font-weight="bold" font-size="9.00">gttm</text>
</g>
<g id="clust4" class="cluster">
<title>cluster_packages/cognitive&#45;theory&#45;of&#45;music/gttm/dist</title>
<path fill="#ffffff" stroke="black" stroke-width="2" d="M534,-544C534,-544 580,-544 580,-544 586,-544 592,-550 592,-556 592,-556 592,-584 592,-584 592,-590 586,-596 580,-596 580,-596 534,-596 534,-596 528,-596 522,-590 522,-584 522,-584 522,-556 522,-556 522,-550 528,-544 534,-544"/>
<text text-anchor="middle" x="557" y="-584.8" font-family="Helvetica,sans-Serif" font-weight="bold" font-size="9.00">dist</text>
</g>
<g id="clust5" class="cluster">
<title>cluster_packages/data&#45;type</title>
<path fill="#ffffff" stroke="black" stroke-width="2" d="M518,-656C518,-656 596,-656 596,-656 602,-656 608,-662 608,-668 608,-668 608,-764 608,-764 608,-770 602,-776 596,-776 596,-776 518,-776 518,-776 512,-776 506,-770 506,-764 506,-764 506,-668 506,-668 506,-662 512,-656 518,-656"/>
<text text-anchor="middle" x="557" y="-764.8" font-family="Helvetica,sans-Serif" font-weight="bold" font-size="9.00">data&#45;type</text>
</g>
<g id="clust6" class="cluster">
<title>cluster_packages/data&#45;type/music&#45;xml</title>
<path fill="#ffffff" stroke="black" stroke-width="2" d="M526,-664C526,-664 588,-664 588,-664 594,-664 600,-670 600,-676 600,-676 600,-738 600,-738 600,-744 594,-750 588,-750 588,-750 526,-750 526,-750 520,-750 514,-744 514,-738 514,-738 514,-676 514,-676 514,-670 520,-664 526,-664"/>
<text text-anchor="middle" x="557" y="-738.8" font-family="Helvetica,sans-Serif" font-weight="bold" font-size="9.00">music&#45;xml</text>
</g>
<g id="clust7" class="cluster">
<title>cluster_packages/data&#45;type/music&#45;xml/dist</title>
<path fill="#ffffff" stroke="black" stroke-width="2" d="M534,-672C534,-672 580,-672 580,-672 586,-672 592,-678 592,-684 592,-684 592,-712 592,-712 592,-718 586,-724 580,-724 580,-724 534,-724 534,-724 528,-724 522,-718 522,-712 522,-712 522,-684 522,-684 522,-678 528,-672 534,-672"/>
<text text-anchor="middle" x="557" y="-712.8" font-family="Helvetica,sans-Serif" font-weight="bold" font-size="9.00">dist</text>
</g>
<g id="clust8" class="cluster">
<title>cluster_packages/music&#45;structure</title>
<path fill="#ffffff" stroke="black" stroke-width="2" d="M28,-238C28,-238 610,-238 610,-238 616,-238 622,-244 622,-250 622,-250 622,-508 622,-508 622,-514 616,-520 610,-520 610,-520 28,-520 28,-520 22,-520 16,-514 16,-508 16,-508 16,-250 16,-250 16,-244 22,-238 28,-238"/>
<text text-anchor="middle" x="319" y="-508.8" font-family="Helvetica,sans-Serif" font-weight="bold" font-size="9.00">music&#45;structure</text>
</g>
<g id="clust9" class="cluster">
<title>cluster_packages/music&#45;structure/chord</title>
<path fill="#ffffff" stroke="black" stroke-width="2" d="M350.5,-374C350.5,-374 431.5,-374 431.5,-374 437.5,-374 443.5,-380 443.5,-386 443.5,-386 443.5,-482 443.5,-482 443.5,-488 437.5,-494 431.5,-494 431.5,-494 350.5,-494 350.5,-494 344.5,-494 338.5,-488 338.5,-482 338.5,-482 338.5,-386 338.5,-386 338.5,-380 344.5,-374 350.5,-374"/>
<text text-anchor="middle" x="391" y="-482.8" font-family="Helvetica,sans-Serif" font-weight="bold" font-size="9.00">chord</text>
</g>
<g id="clust10" class="cluster">
<title>cluster_packages/music&#45;structure/chord/chord&#45;analyze</title>
<path fill="#ffffff" stroke="black" stroke-width="2" d="M358.5,-382C358.5,-382 423.5,-382 423.5,-382 429.5,-382 435.5,-388 435.5,-394 435.5,-394 435.5,-456 435.5,-456 435.5,-462 429.5,-468 423.5,-468 423.5,-468 358.5,-468 358.5,-468 352.5,-468 346.5,-462 346.5,-456 346.5,-456 346.5,-394 346.5,-394 346.5,-388 352.5,-382 358.5,-382"/>
<text text-anchor="middle" x="391" y="-456.8" font-family="Helvetica,sans-Serif" font-weight="bold" font-size="9.00">chord&#45;analyze</text>
</g>
<g id="clust11" class="cluster">
<title>cluster_packages/music&#45;structure/chord/chord&#45;analyze/dist</title>
<path fill="#ffffff" stroke="black" stroke-width="2" d="M367.5,-390C367.5,-390 413.5,-390 413.5,-390 419.5,-390 425.5,-396 425.5,-402 425.5,-402 425.5,-430 425.5,-430 425.5,-436 419.5,-442 413.5,-442 413.5,-442 367.5,-442 367.5,-442 361.5,-442 355.5,-436 355.5,-430 355.5,-430 355.5,-402 355.5,-402 355.5,-396 361.5,-390 367.5,-390"/>
<text text-anchor="middle" x="390.5" y="-430.8" font-family="Helvetica,sans-Serif" font-weight="bold" font-size="9.00">dist</text>
</g>
<g id="clust12" class="cluster">
<title>cluster_packages/music&#45;structure/melody</title>
<path fill="#ffffff" stroke="black" stroke-width="2" d="M36,-246C36,-246 602,-246 602,-246 608,-246 614,-252 614,-258 614,-258 614,-354 614,-354 614,-360 608,-366 602,-366 602,-366 36,-366 36,-366 30,-366 24,-360 24,-354 24,-354 24,-258 24,-258 24,-252 30,-246 36,-246"/>
<text text-anchor="middle" x="319" y="-354.8" font-family="Helvetica,sans-Serif" font-weight="bold" font-size="9.00">melody</text>
</g>
<g id="clust13" class="cluster">
<title>cluster_packages/music&#45;structure/melody/melody&#45;analyze</title>
<path fill="#ffffff" stroke="black" stroke-width="2" d="M521,-254C521,-254 594,-254 594,-254 600,-254 606,-260 606,-266 606,-266 606,-328 606,-328 606,-334 600,-340 594,-340 594,-340 521,-340 521,-340 515,-340 509,-334 509,-328 509,-328 509,-266 509,-266 509,-260 515,-254 521,-254"/>
<text text-anchor="middle" x="557.5" y="-328.8" font-family="Helvetica,sans-Serif" font-weight="bold" font-size="9.00">melody&#45;analyze</text>
</g>
<g id="clust14" class="cluster">
<title>cluster_packages/music&#45;structure/melody/melody&#45;analyze/dist</title>
<path fill="#ffffff" stroke="black" stroke-width="2" d="M534,-262C534,-262 580,-262 580,-262 586,-262 592,-268 592,-274 592,-274 592,-302 592,-302 592,-308 586,-314 580,-314 580,-314 534,-314 534,-314 528,-314 522,-308 522,-302 522,-302 522,-274 522,-274 522,-268 528,-262 534,-262"/>
<text text-anchor="middle" x="557" y="-302.8" font-family="Helvetica,sans-Serif" font-weight="bold" font-size="9.00">dist</text>
</g>
<g id="clust15" class="cluster">
<title>cluster_packages/music&#45;structure/melody/melody&#45;hierarchical&#45;analysis</title>
<path fill="#ffffff" stroke="black" stroke-width="2" d="M44,-254C44,-254 455,-254 455,-254 461,-254 467,-260 467,-266 467,-266 467,-328 467,-328 467,-334 461,-340 455,-340 455,-340 44,-340 44,-340 38,-340 32,-334 32,-328 32,-328 32,-266 32,-266 32,-260 38,-254 44,-254"/>
<text text-anchor="middle" x="249.5" y="-328.8" font-family="Helvetica,sans-Serif" font-weight="bold" font-size="9.00">melody&#45;hierarchical&#45;analysis</text>
</g>
<g id="clust16" class="cluster">
<title>cluster_packages/music&#45;structure/melody/melody&#45;hierarchical&#45;analysis/src</title>
<path fill="#ffffff" stroke="black" stroke-width="2" d="M114,-262C114,-262 447,-262 447,-262 453,-262 459,-268 459,-274 459,-274 459,-302 459,-302 459,-308 453,-314 447,-314 447,-314 114,-314 114,-314 108,-314 102,-308 102,-302 102,-302 102,-274 102,-274 102,-268 108,-262 114,-262"/>
<text text-anchor="middle" x="280.5" y="-302.8" font-family="Helvetica,sans-Serif" font-weight="bold" font-size="9.00">src</text>
</g>
<g id="clust17" class="cluster">
<title>cluster_packages/tonal&#45;objects</title>
<path fill="#ffffff" stroke="black" stroke-width="2" d="M526,-144C526,-144 588,-144 588,-144 594,-144 600,-150 600,-156 600,-156 600,-218 600,-218 600,-224 594,-230 588,-230 588,-230 526,-230 526,-230 520,-230 514,-224 514,-218 514,-218 514,-156 514,-156 514,-150 520,-144 526,-144"/>
<text text-anchor="middle" x="557" y="-218.8" font-family="Helvetica,sans-Serif" font-weight="bold" font-size="9.00">tonal&#45;objects</text>
</g>
<g id="clust18" class="cluster">
<title>cluster_packages/tonal&#45;objects/dist</title>
<path fill="#ffffff" stroke="black" stroke-width="2" d="M534,-152C534,-152 580,-152 580,-152 586,-152 592,-158 592,-164 592,-164 592,-192 592,-192 592,-198 586,-204 580,-204 580,-204 534,-204 534,-204 528,-204 522,-198 522,-192 522,-192 522,-164 522,-164 522,-158 528,-152 534,-152"/>
<text text-anchor="middle" x="557" y="-192.8" font-family="Helvetica,sans-Serif" font-weight="bold" font-size="9.00">dist</text>
</g>
<g id="clust19" class="cluster">
<title>cluster_packages/util</title>
<path fill="#ffffff" stroke="black" stroke-width="2" d="M518,-16C518,-16 596,-16 596,-16 602,-16 608,-22 608,-28 608,-28 608,-124 608,-124 608,-130 602,-136 596,-136 596,-136 518,-136 518,-136 512,-136 506,-130 506,-124 506,-124 506,-28 506,-28 506,-22 512,-16 518,-16"/>
<text text-anchor="middle" x="557" y="-124.8" font-family="Helvetica,sans-Serif" font-weight="bold" font-size="9.00">util</text>
</g>
<g id="clust20" class="cluster">
<title>cluster_packages/util/time&#45;and</title>
<path fill="#ffffff" stroke="black" stroke-width="2" d="M526,-24C526,-24 588,-24 588,-24 594,-24 600,-30 600,-36 600,-36 600,-98 600,-98 600,-104 594,-110 588,-110 588,-110 526,-110 526,-110 520,-110 514,-104 514,-98 514,-98 514,-36 514,-36 514,-30 520,-24 526,-24"/>
<text text-anchor="middle" x="557" y="-98.8" font-family="Helvetica,sans-Serif" font-weight="bold" font-size="9.00">time&#45;and</text>
</g>
<g id="clust21" class="cluster">
<title>cluster_packages/util/time&#45;and/dist</title>
<path fill="#ffffff" stroke="black" stroke-width="2" d="M534,-32C534,-32 580,-32 580,-32 586,-32 592,-38 592,-44 592,-44 592,-72 592,-72 592,-78 586,-84 580,-84 580,-84 534,-84 534,-84 528,-84 522,-78 522,-72 522,-72 522,-44 522,-44 522,-38 528,-32 534,-32"/>
<text text-anchor="middle" x="557" y="-72.8" font-family="Helvetica,sans-Serif" font-weight="bold" font-size="9.00">dist</text>
</g>
<!-- packages/cognitive&#45;theory&#45;of&#45;music/gttm/dist/index.js -->
<g id="node1" class="node">
<title>packages/cognitive&#45;theory&#45;of&#45;music/gttm/dist/index.js</title>
<g id="a_node1"><a xlink:href="packages/cognitive-theory-of-music/gttm/dist/index.js" xlink:title="index.js">
<polygon fill="#ffffcc" stroke="black" points="584,-570 582.5,-572 572,-572 570.5,-570 530,-570 530,-552 584,-552 584,-570"/>
<text text-anchor="start" x="539.5" y="-558.8" font-family="Helvetica,sans-Serif" font-size="9.00">index.js</text>
</a>
</g>
</g>
<!-- packages/data&#45;type/music&#45;xml/dist/index.js -->
<g id="node2" class="node">
<title>packages/data&#45;type/music&#45;xml/dist/index.js</title>
<g id="a_node2"><a xlink:href="packages/data-type/music-xml/dist/index.js" xlink:title="index.js">
<polygon fill="#ffffcc" stroke="black" points="584,-698 582.5,-700 572,-700 570.5,-698 530,-698 530,-680 584,-680 584,-698"/>
<text text-anchor="start" x="539.5" y="-686.8" font-family="Helvetica,sans-Serif" font-size="9.00">index.js</text>
</a>
</g>
</g>
<!-- packages/music&#45;structure/chord/chord&#45;analyze/dist/index.js -->
<g id="node3" class="node">
<title>packages/music&#45;structure/chord/chord&#45;analyze/dist/index.js</title>
<g id="a_node3"><a xlink:href="packages/music-structure/chord/chord-analyze/dist/index.js" xlink:title="index.js">
<polygon fill="#ffffcc" stroke="black" points="417.5,-416 416,-418 405.5,-418 404,-416 363.5,-416 363.5,-398 417.5,-398 417.5,-416"/>
<text text-anchor="start" x="373" y="-404.8" font-family="Helvetica,sans-Serif" font-size="9.00">index.js</text>
</a>
</g>
</g>
<!-- packages/music&#45;structure/melody/melody&#45;analyze/dist/index.js -->
<g id="node4" class="node">
<title>packages/music&#45;structure/melody/melody&#45;analyze/dist/index.js</title>
<g id="a_node4"><a xlink:href="packages/music-structure/melody/melody-analyze/dist/index.js" xlink:title="index.js">
<polygon fill="#ffffcc" stroke="black" points="584,-288 582.5,-290 572,-290 570.5,-288 530,-288 530,-270 584,-270 584,-288"/>
<text text-anchor="start" x="539.5" y="-276.8" font-family="Helvetica,sans-Serif" font-size="9.00">index.js</text>
</a>
</g>
</g>
<!-- packages/music&#45;structure/melody/melody&#45;hierarchical&#45;analysis/index.ts -->
<g id="node5" class="node">
<title>packages/music&#45;structure/melody/melody&#45;hierarchical&#45;analysis/index.ts</title>
<g id="a_node5"><a xlink:href="packages/music-structure/melody/melody-hierarchical-analysis/index.ts" xlink:title="index.ts">
<path fill="#ddfeff" stroke="black" d="M88,-288C88,-288 46,-288 46,-288 43,-288 40,-285 40,-282 40,-282 40,-276 40,-276 40,-273 43,-270 46,-270 46,-270 88,-270 88,-270 91,-270 94,-273 94,-276 94,-276 94,-282 94,-282 94,-285 91,-288 88,-288"/>
<text text-anchor="start" x="48.5" y="-276.8" font-family="Helvetica,sans-Serif" font-size="9.00">index.ts</text>
</a>
</g>
</g>
<!-- packages/music&#45;structure/melody/melody&#45;hierarchical&#45;analysis/src/index.ts -->
<g id="node6" class="node">
<title>packages/music&#45;structure/melody/melody&#45;hierarchical&#45;analysis/src/index.ts</title>
<g id="a_node6"><a xlink:href="packages/music-structure/melody/melody-hierarchical-analysis/src/index.ts" xlink:title="index.ts">
<path fill="#ddfeff" stroke="black" d="M158,-288C158,-288 116,-288 116,-288 113,-288 110,-285 110,-282 110,-282 110,-276 110,-276 110,-273 113,-270 116,-270 116,-270 158,-270 158,-270 161,-270 164,-273 164,-276 164,-276 164,-282 164,-282 164,-285 161,-288 158,-288"/>
<text text-anchor="start" x="118.5" y="-276.8" font-family="Helvetica,sans-Serif" font-size="9.00">index.ts</text>
</a>
</g>
</g>
<!-- packages/music&#45;structure/melody/melody&#45;hierarchical&#45;analysis/index.ts&#45;&gt;packages/music&#45;structure/melody/melody&#45;hierarchical&#45;analysis/src/index.ts -->
<g id="edge1" class="edge">
<title>packages/music&#45;structure/melody/melody&#45;hierarchical&#45;analysis/index.ts&#45;&gt;packages/music&#45;structure/melody/melody&#45;hierarchical&#45;analysis/src/index.ts</title>
<path fill="none" stroke="#000000" stroke-width="2" stroke-opacity="0.200000" d="M94.1,-279C97.12,-279 100.23,-279 103.33,-279"/>
<polygon fill="#000000" fill-opacity="0.200000" stroke="#000000" stroke-width="2" stroke-opacity="0.200000" points="109.64,-281.1 103.64,-279 109.64,-276.9 109.64,-281.1"/>
</g>
<!-- packages/music&#45;structure/melody/melody&#45;hierarchical&#45;analysis/src/get&#45;hierarchical&#45;melody.ts -->
<g id="node7" class="node">
<title>packages/music&#45;structure/melody/melody&#45;hierarchical&#45;analysis/src/get&#45;hierarchical&#45;melody.ts</title>
<g id="a_node7"><a xlink:href="packages/music-structure/melody/melody-hierarchical-analysis/src/get-hierarchical-melody.ts" xlink:title="get&#45;hierarchical&#45;melody.ts">
<path fill="#ddfeff" stroke="black" d="M304,-288C304,-288 183,-288 183,-288 180,-288 177,-285 177,-282 177,-282 177,-276 177,-276 177,-273 180,-270 183,-270 183,-270 304,-270 304,-270 307,-270 310,-273 310,-276 310,-276 310,-282 310,-282 310,-285 307,-288 304,-288"/>
<text text-anchor="start" x="185" y="-276.8" font-family="Helvetica,sans-Serif" font-size="9.00">get&#45;hierarchical&#45;melody.ts</text>
</a>
</g>
</g>
<!-- packages/music&#45;structure/melody/melody&#45;hierarchical&#45;analysis/src/index.ts&#45;&gt;packages/music&#45;structure/melody/melody&#45;hierarchical&#45;analysis/src/get&#45;hierarchical&#45;melody.ts -->
<g id="edge12" class="edge">
<title>packages/music&#45;structure/melody/melody&#45;hierarchical&#45;analysis/src/index.ts&#45;&gt;packages/music&#45;structure/melody/melody&#45;hierarchical&#45;analysis/src/get&#45;hierarchical&#45;melody.ts</title>
<path fill="none" stroke="#000000" stroke-width="2" stroke-opacity="0.200000" d="M164.1,-279C166.22,-279 168.42,-279 170.67,-279"/>
<polygon fill="#000000" fill-opacity="0.200000" stroke="#000000" stroke-width="2" stroke-opacity="0.200000" points="176.76,-281.1 170.76,-279 176.76,-276.9 176.76,-281.1"/>
</g>
<!-- packages/music&#45;structure/melody/melody&#45;hierarchical&#45;analysis/src/get&#45;hierarchical&#45;melody.ts&#45;&gt;packages/cognitive&#45;theory&#45;of&#45;music/gttm/dist/index.js -->
<g id="edge4" class="edge">
<title>packages/music&#45;structure/melody/melody&#45;hierarchical&#45;analysis/src/get&#45;hierarchical&#45;melody.ts&#45;&gt;packages/cognitive&#45;theory&#45;of&#45;music/gttm/dist/index.js</title>
<path fill="none" stroke="#000000" stroke-width="2" stroke-opacity="0.200000" d="M253.58,-288.06C299.36,-329.24 487.88,-498.82 542.25,-547.74"/>
<polygon fill="#000000" fill-opacity="0.200000" stroke="#000000" stroke-width="2" stroke-opacity="0.200000" points="540.94,-549.38 546.8,-551.83 543.75,-546.25 540.94,-549.38"/>
</g>
<!-- packages/music&#45;structure/melody/melody&#45;hierarchical&#45;analysis/src/get&#45;hierarchical&#45;melody.ts&#45;&gt;packages/data&#45;type/music&#45;xml/dist/index.js -->
<g id="edge6" class="edge">
<title>packages/music&#45;structure/melody/melody&#45;hierarchical&#45;analysis/src/get&#45;hierarchical&#45;melody.ts&#45;&gt;packages/data&#45;type/music&#45;xml/dist/index.js</title>
<path fill="none" stroke="#000000" stroke-width="2" stroke-opacity="0.200000" d="M250.64,-288.33C291.59,-341.9 496.65,-610.07 546.21,-674.88"/>
<polygon fill="#000000" fill-opacity="0.200000" stroke="#000000" stroke-width="2" stroke-opacity="0.200000" points="544.7,-676.37 550.01,-679.86 548.03,-673.82 544.7,-676.37"/>
</g>
<!-- packages/music&#45;structure/melody/melody&#45;hierarchical&#45;analysis/src/get&#45;hierarchical&#45;melody.ts&#45;&gt;packages/music&#45;structure/chord/chord&#45;analyze/dist/index.js -->
<g id="edge3" class="edge">
<title>packages/music&#45;structure/melody/melody&#45;hierarchical&#45;analysis/src/get&#45;hierarchical&#45;melody.ts&#45;&gt;packages/music&#45;structure/chord/chord&#45;analyze/dist/index.js</title>
<path fill="none" stroke="#000000" stroke-width="2" stroke-opacity="0.200000" d="M254.93,-288.21C280.22,-310.53 344.9,-367.63 374.41,-393.68"/>
<polygon fill="#000000" fill-opacity="0.200000" stroke="#000000" stroke-width="2" stroke-opacity="0.200000" points="373.28,-395.48 379.17,-397.88 376.06,-392.33 373.28,-395.48"/>
</g>
<!-- packages/music&#45;structure/melody/melody&#45;hierarchical&#45;analysis/src/get&#45;hierarchical&#45;melody.ts&#45;&gt;packages/music&#45;structure/melody/melody&#45;analyze/dist/index.js -->
<g id="edge5" class="edge">
<title>packages/music&#45;structure/melody/melody&#45;hierarchical&#45;analysis/src/get&#45;hierarchical&#45;melody.ts&#45;&gt;packages/music&#45;structure/melody/melody&#45;analyze/dist/index.js</title>
<path fill="none" stroke="#000000" stroke-width="2" stroke-opacity="0.200000" d="M310.37,-279C375.9,-279 473.09,-279 523.67,-279"/>
<polygon fill="#000000" fill-opacity="0.200000" stroke="#000000" stroke-width="2" stroke-opacity="0.200000" points="523.9,-281.1 529.9,-279 523.9,-276.9 523.9,-281.1"/>
</g>
<!-- packages/music&#45;structure/melody/melody&#45;hierarchical&#45;analysis/src/get&#45;time&#45;and&#45;melody.ts -->
<g id="node8" class="node">
<title>packages/music&#45;structure/melody/melody&#45;hierarchical&#45;analysis/src/get&#45;time&#45;and&#45;melody.ts</title>
<g id="a_node8"><a xlink:href="packages/music-structure/melody/melody-hierarchical-analysis/src/get-time-and-melody.ts" xlink:title="get&#45;time&#45;and&#45;melody.ts">
<path fill="#ddfeff" stroke="black" d="M445,-288C445,-288 336,-288 336,-288 333,-288 330,-285 330,-282 330,-282 330,-276 330,-276 330,-273 333,-270 336,-270 336,-270 445,-270 445,-270 448,-270 451,-273 451,-276 451,-276 451,-282 451,-282 451,-285 448,-288 445,-288"/>
<text text-anchor="start" x="338" y="-276.8" font-family="Helvetica,sans-Serif" font-size="9.00">get&#45;time&#45;and&#45;melody.ts</text>
</a>
</g>
</g>
<!-- packages/music&#45;structure/melody/melody&#45;hierarchical&#45;analysis/src/get&#45;hierarchical&#45;melody.ts&#45;&gt;packages/music&#45;structure/melody/melody&#45;hierarchical&#45;analysis/src/get&#45;time&#45;and&#45;melody.ts -->
<g id="edge2" class="edge">
<title>packages/music&#45;structure/melody/melody&#45;hierarchical&#45;analysis/src/get&#45;hierarchical&#45;melody.ts&#45;&gt;packages/music&#45;structure/melody/melody&#45;hierarchical&#45;analysis/src/get&#45;time&#45;and&#45;melody.ts</title>
<path fill="none" stroke="#000000" stroke-width="2" stroke-opacity="0.200000" d="M310.21,-279C314.75,-279 319.31,-279 323.85,-279"/>
<polygon fill="#000000" fill-opacity="0.200000" stroke="#000000" stroke-width="2" stroke-opacity="0.200000" points="324,-281.1 330,-279 324,-276.9 324,-281.1"/>
</g>
<!-- packages/music&#45;structure/melody/melody&#45;hierarchical&#45;analysis/src/get&#45;time&#45;and&#45;melody.ts&#45;&gt;packages/cognitive&#45;theory&#45;of&#45;music/gttm/dist/index.js -->
<g id="edge7" class="edge">
<title>packages/music&#45;structure/melody/melody&#45;hierarchical&#45;analysis/src/get&#45;time&#45;and&#45;melody.ts&#45;&gt;packages/cognitive&#45;theory&#45;of&#45;music/gttm/dist/index.js</title>
<path fill="none" stroke="#000000" stroke-width="2" stroke-opacity="0.200000" d="M396.79,-288.06C420.62,-328.91 518.14,-496.1 547.56,-546.53"/>
<polygon fill="#000000" fill-opacity="0.200000" stroke="#000000" stroke-width="2" stroke-opacity="0.200000" points="545.81,-547.7 550.65,-551.83 549.44,-545.59 545.81,-547.7"/>
</g>
<!-- packages/music&#45;structure/melody/melody&#45;hierarchical&#45;analysis/src/get&#45;time&#45;and&#45;melody.ts&#45;&gt;packages/data&#45;type/music&#45;xml/dist/index.js -->
<g id="edge9" class="edge">
<title>packages/music&#45;structure/melody/melody&#45;hierarchical&#45;analysis/src/get&#45;time&#45;and&#45;melody.ts&#45;&gt;packages/data&#45;type/music&#45;xml/dist/index.js</title>
<path fill="none" stroke="#000000" stroke-width="2" stroke-opacity="0.200000" d="M395.24,-288.33C416.65,-341.68 523.47,-607.92 550.02,-674.09"/>
<polygon fill="#000000" fill-opacity="0.200000" stroke="#000000" stroke-width="2" stroke-opacity="0.200000" points="548.15,-675.07 552.33,-679.86 552.05,-673.51 548.15,-675.07"/>
</g>
<!-- packages/music&#45;structure/melody/melody&#45;hierarchical&#45;analysis/src/get&#45;time&#45;and&#45;melody.ts&#45;&gt;packages/music&#45;structure/melody/melody&#45;analyze/dist/index.js -->
<g id="edge8" class="edge">
<title>packages/music&#45;structure/melody/melody&#45;hierarchical&#45;analysis/src/get&#45;time&#45;and&#45;melody.ts&#45;&gt;packages/music&#45;structure/melody/melody&#45;analyze/dist/index.js</title>
<path fill="none" stroke="#000000" stroke-width="2" stroke-opacity="0.200000" d="M451.35,-279C475.83,-279 503.17,-279 523.77,-279"/>
<polygon fill="#000000" fill-opacity="0.200000" stroke="#000000" stroke-width="2" stroke-opacity="0.200000" points="523.93,-281.1 529.93,-279 523.93,-276.9 523.93,-281.1"/>
</g>
<!-- packages/util/time&#45;and/dist/index.js -->
<g id="node9" class="node">
<title>packages/util/time&#45;and/dist/index.js</title>
<g id="a_node9"><a xlink:href="packages/util/time-and/dist/index.js" xlink:title="index.js">
<polygon fill="#ffffcc" stroke="black" points="584,-58 582.5,-60 572,-60 570.5,-58 530,-58 530,-40 584,-40 584,-58"/>
<text text-anchor="start" x="539.5" y="-46.8" font-family="Helvetica,sans-Serif" font-size="9.00">index.js</text>
</a>
</g>
</g>
<!-- packages/music&#45;structure/melody/melody&#45;hierarchical&#45;analysis/src/get&#45;time&#45;and&#45;melody.ts&#45;&gt;packages/util/time&#45;and/dist/index.js -->
<g id="edge10" class="edge">
<title>packages/music&#45;structure/melody/melody&#45;hierarchical&#45;analysis/src/get&#45;time&#45;and&#45;melody.ts&#45;&gt;packages/util/time&#45;and/dist/index.js</title>
<path fill="none" stroke="#000000" stroke-width="2" stroke-opacity="0.200000" d="M397.95,-269.98C423.13,-234.78 514.94,-106.41 545.8,-63.26"/>
<polygon fill="#000000" fill-opacity="0.200000" stroke="#000000" stroke-width="2" stroke-opacity="0.200000" points="547.63,-64.31 549.42,-58.2 544.22,-61.86 547.63,-64.31"/>
</g>
<!-- packages/tonal&#45;objects/dist/index.js -->
<g id="node10" class="node">
<title>packages/tonal&#45;objects/dist/index.js</title>
<g id="a_node10"><a xlink:href="packages/tonal-objects/dist/index.js" xlink:title="index.js">
<polygon fill="#ffffcc" stroke="black" points="584,-178 582.5,-180 572,-180 570.5,-178 530,-178 530,-160 584,-160 584,-178"/>
<text text-anchor="start" x="539.5" y="-166.8" font-family="Helvetica,sans-Serif" font-size="9.00">index.js</text>
</a>
</g>
</g>
<!-- packages/music&#45;structure/melody/melody&#45;hierarchical&#45;analysis/src/get&#45;time&#45;and&#45;melody.ts&#45;&gt;packages/tonal&#45;objects/dist/index.js -->
<g id="edge11" class="edge">
<title>packages/music&#45;structure/melody/melody&#45;hierarchical&#45;analysis/src/get&#45;time&#45;and&#45;melody.ts&#45;&gt;packages/tonal&#45;objects/dist/index.js</title>
<path fill="none" stroke="#000000" stroke-width="2" stroke-opacity="0.200000" d="M404.96,-270C434.24,-250.42 503.77,-203.92 537.29,-181.51"/>
<polygon fill="#000000" fill-opacity="0.200000" stroke="#000000" stroke-width="2" stroke-opacity="0.200000" points="538.53,-183.21 542.35,-178.13 536.2,-179.72 538.53,-183.21"/>
</g>
</g>
</svg>
