<?xml version="1.0" encoding="UTF-8" standalone="no"?>
<!DOCTYPE svg PUBLIC "-//W3C//DTD SVG 1.1//EN"
 "http://www.w3.org/Graphics/SVG/1.1/DTD/svg11.dtd">
<!-- Generated by graphviz version 2.43.0 (0)
 -->
<!-- Title: dependency&#45;cruiser output Pages: 1 -->
<svg width="959pt" height="1064pt"
 viewBox="0.00 0.00 959.00 1064.00" xmlns="http://www.w3.org/2000/svg" xmlns:xlink="http://www.w3.org/1999/xlink">
<g id="graph0" class="graph" transform="scale(1 1) rotate(0) translate(4 1060)">
<title>dependency&#45;cruiser output</title>
<polygon fill="white" stroke="transparent" points="-4,4 -4,-1060 955,-1060 955,4 -4,4"/>
<g id="clust1" class="cluster">
<title>cluster_packages</title>
<path fill="#ffffff" stroke="black" stroke-width="2" d="M20,-8C20,-8 939,-8 939,-8 945,-8 951,-14 951,-20 951,-20 951,-1036 951,-1036 951,-1042 945,-1048 939,-1048 939,-1048 20,-1048 20,-1048 14,-1048 8,-1042 8,-1036 8,-1036 8,-20 8,-20 8,-14 14,-8 20,-8"/>
<text text-anchor="middle" x="479.5" y="-1036.8" font-family="Helvetica,sans-Serif" font-weight="bold" font-size="9.00">packages</text>
</g>
<g id="clust2" class="cluster">
<title>cluster_packages/cognitive&#45;theory&#45;of&#45;music</title>
<path fill="#ffffff" stroke="black" stroke-width="2" d="M806,-808C806,-808 931,-808 931,-808 937,-808 943,-814 943,-820 943,-820 943,-1010 943,-1010 943,-1016 937,-1022 931,-1022 931,-1022 806,-1022 806,-1022 800,-1022 794,-1016 794,-1010 794,-1010 794,-820 794,-820 794,-814 800,-808 806,-808"/>
<text text-anchor="middle" x="868.5" y="-1010.8" font-family="Helvetica,sans-Serif" font-weight="bold" font-size="9.00">cognitive&#45;theory&#45;of&#45;music</text>
</g>
<g id="clust3" class="cluster">
<title>cluster_packages/cognitive&#45;theory&#45;of&#45;music/gttm</title>
<path fill="#ffffff" stroke="black" stroke-width="2" d="M837,-910C837,-910 899,-910 899,-910 905,-910 911,-916 911,-922 911,-922 911,-984 911,-984 911,-990 905,-996 899,-996 899,-996 837,-996 837,-996 831,-996 825,-990 825,-984 825,-984 825,-922 825,-922 825,-916 831,-910 837,-910"/>
<text text-anchor="middle" x="868" y="-984.8" font-family="Helvetica,sans-Serif" font-weight="bold" font-size="9.00">gttm</text>
</g>
<g id="clust4" class="cluster">
<title>cluster_packages/cognitive&#45;theory&#45;of&#45;music/gttm/dist</title>
<path fill="#ffffff" stroke="black" stroke-width="2" d="M845,-918C845,-918 891,-918 891,-918 897,-918 903,-924 903,-930 903,-930 903,-958 903,-958 903,-964 897,-970 891,-970 891,-970 845,-970 845,-970 839,-970 833,-964 833,-958 833,-958 833,-930 833,-930 833,-924 839,-918 845,-918"/>
<text text-anchor="middle" x="868" y="-958.8" font-family="Helvetica,sans-Serif" font-weight="bold" font-size="9.00">dist</text>
</g>
<g id="clust5" class="cluster">
<title>cluster_packages/cognitive&#45;theory&#45;of&#45;music/irm</title>
<path fill="#ffffff" stroke="black" stroke-width="2" d="M837,-816C837,-816 899,-816 899,-816 905,-816 911,-822 911,-828 911,-828 911,-890 911,-890 911,-896 905,-902 899,-902 899,-902 837,-902 837,-902 831,-902 825,-896 825,-890 825,-890 825,-828 825,-828 825,-822 831,-816 837,-816"/>
<text text-anchor="middle" x="868" y="-890.8" font-family="Helvetica,sans-Serif" font-weight="bold" font-size="9.00">irm</text>
</g>
<g id="clust6" class="cluster">
<title>cluster_packages/cognitive&#45;theory&#45;of&#45;music/irm/dist</title>
<path fill="#ffffff" stroke="black" stroke-width="2" d="M845,-824C845,-824 891,-824 891,-824 897,-824 903,-830 903,-836 903,-836 903,-864 903,-864 903,-870 897,-876 891,-876 891,-876 845,-876 845,-876 839,-876 833,-870 833,-864 833,-864 833,-836 833,-836 833,-830 839,-824 845,-824"/>
<text text-anchor="middle" x="868" y="-864.8" font-family="Helvetica,sans-Serif" font-weight="bold" font-size="9.00">dist</text>
</g>
<g id="clust7" class="cluster">
<title>cluster_packages/data&#45;type</title>
<path fill="#ffffff" stroke="black" stroke-width="2" d="M530.5,-598C530.5,-598 608.5,-598 608.5,-598 614.5,-598 620.5,-604 620.5,-610 620.5,-610 620.5,-706 620.5,-706 620.5,-712 614.5,-718 608.5,-718 608.5,-718 530.5,-718 530.5,-718 524.5,-718 518.5,-712 518.5,-706 518.5,-706 518.5,-610 518.5,-610 518.5,-604 524.5,-598 530.5,-598"/>
<text text-anchor="middle" x="569.5" y="-706.8" font-family="Helvetica,sans-Serif" font-weight="bold" font-size="9.00">data&#45;type</text>
</g>
<g id="clust8" class="cluster">
<title>cluster_packages/data&#45;type/music&#45;xml</title>
<path fill="#ffffff" stroke="black" stroke-width="2" d="M538.5,-606C538.5,-606 600.5,-606 600.5,-606 606.5,-606 612.5,-612 612.5,-618 612.5,-618 612.5,-680 612.5,-680 612.5,-686 606.5,-692 600.5,-692 600.5,-692 538.5,-692 538.5,-692 532.5,-692 526.5,-686 526.5,-680 526.5,-680 526.5,-618 526.5,-618 526.5,-612 532.5,-606 538.5,-606"/>
<text text-anchor="middle" x="569.5" y="-680.8" font-family="Helvetica,sans-Serif" font-weight="bold" font-size="9.00">music&#45;xml</text>
</g>
<g id="clust9" class="cluster">
<title>cluster_packages/data&#45;type/music&#45;xml/dist</title>
<path fill="#ffffff" stroke="black" stroke-width="2" d="M546.5,-614C546.5,-614 592.5,-614 592.5,-614 598.5,-614 604.5,-620 604.5,-626 604.5,-626 604.5,-654 604.5,-654 604.5,-660 598.5,-666 592.5,-666 592.5,-666 546.5,-666 546.5,-666 540.5,-666 534.5,-660 534.5,-654 534.5,-654 534.5,-626 534.5,-626 534.5,-620 540.5,-614 546.5,-614"/>
<text text-anchor="middle" x="569.5" y="-654.8" font-family="Helvetica,sans-Serif" font-weight="bold" font-size="9.00">dist</text>
</g>
<g id="clust10" class="cluster">
<title>cluster_packages/music&#45;structure</title>
<path fill="#ffffff" stroke="black" stroke-width="2" d="M28,-110C28,-110 917,-110 917,-110 923,-110 929,-116 929,-122 929,-122 929,-566 929,-566 929,-572 923,-578 917,-578 917,-578 28,-578 28,-578 22,-578 16,-572 16,-566 16,-566 16,-122 16,-122 16,-116 22,-110 28,-110"/>
<text text-anchor="middle" x="472.5" y="-566.8" font-family="Helvetica,sans-Serif" font-weight="bold" font-size="9.00">music&#45;structure</text>
</g>
<g id="clust11" class="cluster">
<title>cluster_packages/music&#45;structure/chord</title>
<path fill="#ffffff" stroke="black" stroke-width="2" d="M480,-398C480,-398 659,-398 659,-398 665,-398 671,-404 671,-410 671,-410 671,-540 671,-540 671,-546 665,-552 659,-552 659,-552 480,-552 480,-552 474,-552 468,-546 468,-540 468,-540 468,-410 468,-410 468,-404 474,-398 480,-398"/>
<text text-anchor="middle" x="569.5" y="-540.8" font-family="Helvetica,sans-Serif" font-weight="bold" font-size="9.00">chord</text>
</g>
<g id="clust12" class="cluster">
<title>cluster_packages/music&#45;structure/chord/chord&#45;analyze</title>
<path fill="#ffffff" stroke="black" stroke-width="2" d="M488,-406C488,-406 651,-406 651,-406 657,-406 663,-412 663,-418 663,-418 663,-514 663,-514 663,-520 657,-526 651,-526 651,-526 488,-526 488,-526 482,-526 476,-520 476,-514 476,-514 476,-418 476,-418 476,-412 482,-406 488,-406"/>
<text text-anchor="middle" x="569.5" y="-514.8" font-family="Helvetica,sans-Serif" font-weight="bold" font-size="9.00">chord&#45;analyze</text>
</g>
<g id="clust13" class="cluster">
<title>cluster_packages/music&#45;structure/chord/chord&#45;analyze/src</title>
<path fill="#ffffff" stroke="black" stroke-width="2" d="M496,-414C496,-414 643,-414 643,-414 649,-414 655,-420 655,-426 655,-426 655,-488 655,-488 655,-494 649,-500 643,-500 643,-500 496,-500 496,-500 490,-500 484,-494 484,-488 484,-488 484,-426 484,-426 484,-420 490,-414 496,-414"/>
<text text-anchor="middle" x="569.5" y="-488.8" font-family="Helvetica,sans-Serif" font-weight="bold" font-size="9.00">src</text>
</g>
<g id="clust14" class="cluster">
<title>cluster_packages/music&#45;structure/chord/chord&#45;analyze/src/chord&#45;analyze</title>
<path fill="#ffffff" stroke="black" stroke-width="2" d="M504,-422C504,-422 635,-422 635,-422 641,-422 647,-428 647,-434 647,-434 647,-462 647,-462 647,-468 641,-474 635,-474 635,-474 504,-474 504,-474 498,-474 492,-468 492,-462 492,-462 492,-434 492,-434 492,-428 498,-422 504,-422"/>
<text text-anchor="middle" x="569.5" y="-462.8" font-family="Helvetica,sans-Serif" font-weight="bold" font-size="9.00">chord&#45;analyze</text>
</g>
<g id="clust15" class="cluster">
<title>cluster_packages/music&#45;structure/melody</title>
<path fill="#ffffff" stroke="black" stroke-width="2" d="M36,-118C36,-118 909,-118 909,-118 915,-118 921,-124 921,-130 921,-130 921,-378 921,-378 921,-384 915,-390 909,-390 909,-390 36,-390 36,-390 30,-390 24,-384 24,-378 24,-378 24,-130 24,-130 24,-124 30,-118 36,-118"/>
<text text-anchor="middle" x="472.5" y="-378.8" font-family="Helvetica,sans-Serif" font-weight="bold" font-size="9.00">melody</text>
</g>
<g id="clust16" class="cluster">
<title>cluster_packages/music&#45;structure/melody/melody&#45;analyze</title>
<path fill="#ffffff" stroke="black" stroke-width="2" d="M331.5,-126C331.5,-126 901,-126 901,-126 907,-126 913,-132 913,-138 913,-138 913,-258 913,-258 913,-264 907,-270 901,-270 901,-270 331.5,-270 331.5,-270 325.5,-270 319.5,-264 319.5,-258 319.5,-258 319.5,-138 319.5,-138 319.5,-132 325.5,-126 331.5,-126"/>
<text text-anchor="middle" x="616.25" y="-258.8" font-family="Helvetica,sans-Serif" font-weight="bold" font-size="9.00">melody&#45;analyze</text>
</g>
<g id="clust17" class="cluster">
<title>cluster_packages/music&#45;structure/melody/melody&#45;analyze/src</title>
<path fill="#ffffff" stroke="black" stroke-width="2" d="M339.5,-134C339.5,-134 893,-134 893,-134 899,-134 905,-140 905,-146 905,-146 905,-232 905,-232 905,-238 899,-244 893,-244 893,-244 339.5,-244 339.5,-244 333.5,-244 327.5,-238 327.5,-232 327.5,-232 327.5,-146 327.5,-146 327.5,-140 333.5,-134 339.5,-134"/>
<text text-anchor="middle" x="616.25" y="-232.8" font-family="Helvetica,sans-Serif" font-weight="bold" font-size="9.00">src</text>
</g>
<g id="clust18" class="cluster">
<title>cluster_packages/music&#45;structure/melody/melody&#45;hierarchical&#45;analysis</title>
<path fill="#ffffff" stroke="black" stroke-width="2" d="M44,-278C44,-278 448,-278 448,-278 454,-278 460,-284 460,-290 460,-290 460,-352 460,-352 460,-358 454,-364 448,-364 448,-364 44,-364 44,-364 38,-364 32,-358 32,-352 32,-352 32,-290 32,-290 32,-284 38,-278 44,-278"/>
<text text-anchor="middle" x="246" y="-352.8" font-family="Helvetica,sans-Serif" font-weight="bold" font-size="9.00">melody&#45;hierarchical&#45;analysis</text>
</g>
<g id="clust19" class="cluster">
<title>cluster_packages/music&#45;structure/melody/melody&#45;hierarchical&#45;analysis/src</title>
<path fill="#ffffff" stroke="black" stroke-width="2" d="M114,-286C114,-286 440,-286 440,-286 446,-286 452,-292 452,-298 452,-298 452,-326 452,-326 452,-332 446,-338 440,-338 440,-338 114,-338 114,-338 108,-338 102,-332 102,-326 102,-326 102,-298 102,-298 102,-292 108,-286 114,-286"/>
<text text-anchor="middle" x="277" y="-326.8" font-family="Helvetica,sans-Serif" font-weight="bold" font-size="9.00">src</text>
</g>
<g id="clust20" class="cluster">
<title>cluster_packages/tonal&#45;objects</title>
<path fill="#ffffff" stroke="black" stroke-width="2" d="M837,-16C837,-16 899,-16 899,-16 905,-16 911,-22 911,-28 911,-28 911,-90 911,-90 911,-96 905,-102 899,-102 899,-102 837,-102 837,-102 831,-102 825,-96 825,-90 825,-90 825,-28 825,-28 825,-22 831,-16 837,-16"/>
<text text-anchor="middle" x="868" y="-90.8" font-family="Helvetica,sans-Serif" font-weight="bold" font-size="9.00">tonal&#45;objects</text>
</g>
<g id="clust21" class="cluster">
<title>cluster_packages/tonal&#45;objects/dist</title>
<path fill="#ffffff" stroke="black" stroke-width="2" d="M845,-24C845,-24 891,-24 891,-24 897,-24 903,-30 903,-36 903,-36 903,-64 903,-64 903,-70 897,-76 891,-76 891,-76 845,-76 845,-76 839,-76 833,-70 833,-64 833,-64 833,-36 833,-36 833,-30 839,-24 845,-24"/>
<text text-anchor="middle" x="868" y="-64.8" font-family="Helvetica,sans-Serif" font-weight="bold" font-size="9.00">dist</text>
</g>
<g id="clust22" class="cluster">
<title>cluster_packages/util</title>
<path fill="#ffffff" stroke="black" stroke-width="2" d="M829,-586C829,-586 907,-586 907,-586 913,-586 919,-592 919,-598 919,-598 919,-788 919,-788 919,-794 913,-800 907,-800 907,-800 829,-800 829,-800 823,-800 817,-794 817,-788 817,-788 817,-598 817,-598 817,-592 823,-586 829,-586"/>
<text text-anchor="middle" x="868" y="-788.8" font-family="Helvetica,sans-Serif" font-weight="bold" font-size="9.00">util</text>
</g>
<g id="clust23" class="cluster">
<title>cluster_packages/util/math</title>
<path fill="#ffffff" stroke="black" stroke-width="2" d="M837,-594C837,-594 899,-594 899,-594 905,-594 911,-600 911,-606 911,-606 911,-668 911,-668 911,-674 905,-680 899,-680 899,-680 837,-680 837,-680 831,-680 825,-674 825,-668 825,-668 825,-606 825,-606 825,-600 831,-594 837,-594"/>
<text text-anchor="middle" x="868" y="-668.8" font-family="Helvetica,sans-Serif" font-weight="bold" font-size="9.00">math</text>
</g>
<g id="clust24" class="cluster">
<title>cluster_packages/util/math/dist</title>
<path fill="#ffffff" stroke="black" stroke-width="2" d="M845,-602C845,-602 891,-602 891,-602 897,-602 903,-608 903,-614 903,-614 903,-642 903,-642 903,-648 897,-654 891,-654 891,-654 845,-654 845,-654 839,-654 833,-648 833,-642 833,-642 833,-614 833,-614 833,-608 839,-602 845,-602"/>
<text text-anchor="middle" x="868" y="-642.8" font-family="Helvetica,sans-Serif" font-weight="bold" font-size="9.00">dist</text>
</g>
<g id="clust25" class="cluster">
<title>cluster_packages/util/time&#45;and</title>
<path fill="#ffffff" stroke="black" stroke-width="2" d="M837,-688C837,-688 899,-688 899,-688 905,-688 911,-694 911,-700 911,-700 911,-762 911,-762 911,-768 905,-774 899,-774 899,-774 837,-774 837,-774 831,-774 825,-768 825,-762 825,-762 825,-700 825,-700 825,-694 831,-688 837,-688"/>
<text text-anchor="middle" x="868" y="-762.8" font-family="Helvetica,sans-Serif" font-weight="bold" font-size="9.00">time&#45;and</text>
</g>
<g id="clust26" class="cluster">
<title>cluster_packages/util/time&#45;and/dist</title>
<path fill="#ffffff" stroke="black" stroke-width="2" d="M845,-696C845,-696 891,-696 891,-696 897,-696 903,-702 903,-708 903,-708 903,-736 903,-736 903,-742 897,-748 891,-748 891,-748 845,-748 845,-748 839,-748 833,-742 833,-736 833,-736 833,-708 833,-708 833,-702 839,-696 845,-696"/>
<text text-anchor="middle" x="868" y="-736.8" font-family="Helvetica,sans-Serif" font-weight="bold" font-size="9.00">dist</text>
</g>
<!-- packages/cognitive&#45;theory&#45;of&#45;music/gttm/dist/index.js -->
<g id="node1" class="node">
<title>packages/cognitive&#45;theory&#45;of&#45;music/gttm/dist/index.js</title>
<g id="a_node1"><a xlink:href="packages/cognitive-theory-of-music/gttm/dist/index.js" xlink:title="index.js">
<polygon fill="#ffffcc" stroke="black" points="895,-944 893.5,-946 883,-946 881.5,-944 841,-944 841,-926 895,-926 895,-944"/>
<text text-anchor="start" x="850.5" y="-932.8" font-family="Helvetica,sans-Serif" font-size="9.00">index.js</text>
</a>
</g>
</g>
<!-- packages/cognitive&#45;theory&#45;of&#45;music/irm/dist/index.js -->
<g id="node2" class="node">
<title>packages/cognitive&#45;theory&#45;of&#45;music/irm/dist/index.js</title>
<g id="a_node2"><a xlink:href="packages/cognitive-theory-of-music/irm/dist/index.js" xlink:title="index.js">
<polygon fill="#ffffcc" stroke="black" points="895,-850 893.5,-852 883,-852 881.5,-850 841,-850 841,-832 895,-832 895,-850"/>
<text text-anchor="start" x="850.5" y="-838.8" font-family="Helvetica,sans-Serif" font-size="9.00">index.js</text>
</a>
</g>
</g>
<!-- packages/data&#45;type/music&#45;xml/dist/index.js -->
<g id="node3" class="node">
<title>packages/data&#45;type/music&#45;xml/dist/index.js</title>
<g id="a_node3"><a xlink:href="packages/data-type/music-xml/dist/index.js" xlink:title="index.js">
<polygon fill="#ffffcc" stroke="black" points="596.5,-640 595,-642 584.5,-642 583,-640 542.5,-640 542.5,-622 596.5,-622 596.5,-640"/>
<text text-anchor="start" x="552" y="-628.8" font-family="Helvetica,sans-Serif" font-size="9.00">index.js</text>
</a>
</g>
</g>
<!-- packages/music&#45;structure/chord/chord&#45;analyze/src/chord&#45;analyze/time&#45;and&#45;roman&#45;analysis.ts -->
<g id="node4" class="node">
<title>packages/music&#45;structure/chord/chord&#45;analyze/src/chord&#45;analyze/time&#45;and&#45;roman&#45;analysis.ts</title>
<g id="a_node4"><a xlink:href="packages/music-structure/chord/chord-analyze/src/chord-analyze/time-and-roman-analysis.ts" xlink:title="time&#45;and&#45;roman&#45;analysis.ts">
<path fill="#ddfeff" stroke="black" d="M633,-448C633,-448 506,-448 506,-448 503,-448 500,-445 500,-442 500,-442 500,-436 500,-436 500,-433 503,-430 506,-430 506,-430 633,-430 633,-430 636,-430 639,-433 639,-436 639,-436 639,-442 639,-442 639,-445 636,-448 633,-448"/>
<text text-anchor="start" x="508" y="-436.8" font-family="Helvetica,sans-Serif" font-size="9.00">time&#45;and&#45;roman&#45;analysis.ts</text>
</a>
</g>
</g>
<!-- packages/util/time&#45;and/dist/index.js -->
<g id="node5" class="node">
<title>packages/util/time&#45;and/dist/index.js</title>
<g id="a_node5"><a xlink:href="packages/util/time-and/dist/index.js" xlink:title="index.js">
<polygon fill="#ffffcc" stroke="black" points="895,-722 893.5,-724 883,-724 881.5,-722 841,-722 841,-704 895,-704 895,-722"/>
<text text-anchor="start" x="850.5" y="-710.8" font-family="Helvetica,sans-Serif" font-size="9.00">index.js</text>
</a>
</g>
</g>
<!-- packages/music&#45;structure/chord/chord&#45;analyze/src/chord&#45;analyze/time&#45;and&#45;roman&#45;analysis.ts&#45;&gt;packages/util/time&#45;and/dist/index.js -->
<g id="edge1" class="edge">
<title>packages/music&#45;structure/chord/chord&#45;analyze/src/chord&#45;analyze/time&#45;and&#45;roman&#45;analysis.ts&#45;&gt;packages/util/time&#45;and/dist/index.js</title>
<path fill="none" stroke="#000000" stroke-width="2" stroke-opacity="0.200000" d="M579.43,-448.12C623.43,-488.51 800.94,-651.45 853.36,-699.56"/>
<polygon fill="#000000" fill-opacity="0.200000" stroke="#000000" stroke-width="2" stroke-opacity="0.200000" points="852.19,-701.34 858.03,-703.85 855.03,-698.24 852.19,-701.34"/>
</g>
<!-- packages/music&#45;structure/melody/melody&#45;analyze/src/analyze&#45;melody.ts -->
<g id="node6" class="node">
<title>packages/music&#45;structure/melody/melody&#45;analyze/src/analyze&#45;melody.ts</title>
<g id="a_node6"><a xlink:href="packages/music-structure/melody/melody-analyze/src/analyze-melody.ts" xlink:title="analyze&#45;melody.ts">
<path fill="#ddfeff" stroke="black" d="M425.5,-218C425.5,-218 341.5,-218 341.5,-218 338.5,-218 335.5,-215 335.5,-212 335.5,-212 335.5,-206 335.5,-206 335.5,-203 338.5,-200 341.5,-200 341.5,-200 425.5,-200 425.5,-200 428.5,-200 431.5,-203 431.5,-206 431.5,-206 431.5,-212 431.5,-212 431.5,-215 428.5,-218 425.5,-218"/>
<text text-anchor="start" x="343.5" y="-206.8" font-family="Helvetica,sans-Serif" font-size="9.00">analyze&#45;melody.ts</text>
</a>
</g>
</g>
<!-- packages/music&#45;structure/melody/melody&#45;analyze/src/analyze&#45;melody.ts&#45;&gt;packages/cognitive&#45;theory&#45;of&#45;music/irm/dist/index.js -->
<g id="edge7" class="edge">
<title>packages/music&#45;structure/melody/melody&#45;analyze/src/analyze&#45;melody.ts&#45;&gt;packages/cognitive&#45;theory&#45;of&#45;music/irm/dist/index.js</title>
<path fill="none" stroke="#000000" stroke-width="2" stroke-opacity="0.200000" d="M390.54,-218.18C444.45,-288.5 791.75,-741.53 857.33,-827.08"/>
<polygon fill="#000000" fill-opacity="0.200000" stroke="#000000" stroke-width="2" stroke-opacity="0.200000" points="855.75,-828.48 861.07,-831.96 859.09,-825.92 855.75,-828.48"/>
</g>
<!-- packages/music&#45;structure/melody/melody&#45;analyze/src/analyze&#45;melody.ts&#45;&gt;packages/music&#45;structure/chord/chord&#45;analyze/src/chord&#45;analyze/time&#45;and&#45;roman&#45;analysis.ts -->
<g id="edge6" class="edge">
<title>packages/music&#45;structure/melody/melody&#45;analyze/src/analyze&#45;melody.ts&#45;&gt;packages/music&#45;structure/chord/chord&#45;analyze/src/chord&#45;analyze/time&#45;and&#45;roman&#45;analysis.ts</title>
<path fill="none" stroke="#000000" stroke-width="2" stroke-opacity="0.200000" d="M391.71,-218.02C419.93,-253.29 522.99,-382.12 557.3,-425"/>
<polygon fill="#000000" fill-opacity="0.200000" stroke="#000000" stroke-width="2" stroke-opacity="0.200000" points="555.75,-426.42 561.14,-429.8 559.03,-423.8 555.75,-426.42"/>
</g>
<!-- packages/music&#45;structure/melody/melody&#45;analyze/src/melody&#45;analysis.ts -->
<g id="node7" class="node">
<title>packages/music&#45;structure/melody/melody&#45;analyze/src/melody&#45;analysis.ts</title>
<g id="a_node7"><a xlink:href="packages/music-structure/melody/melody-analyze/src/melody-analysis.ts" xlink:title="melody&#45;analysis.ts">
<path fill="#ddfeff" stroke="black" d="M772,-193C772,-193 685,-193 685,-193 682,-193 679,-190 679,-187 679,-187 679,-181 679,-181 679,-178 682,-175 685,-175 685,-175 772,-175 772,-175 775,-175 778,-178 778,-181 778,-181 778,-187 778,-187 778,-190 775,-193 772,-193"/>
<text text-anchor="start" x="687" y="-181.8" font-family="Helvetica,sans-Serif" font-size="9.00">melody&#45;analysis.ts</text>
</a>
</g>
</g>
<!-- packages/music&#45;structure/melody/melody&#45;analyze/src/analyze&#45;melody.ts&#45;&gt;packages/music&#45;structure/melody/melody&#45;analyze/src/melody&#45;analysis.ts -->
<g id="edge2" class="edge">
<title>packages/music&#45;structure/melody/melody&#45;analyze/src/analyze&#45;melody.ts&#45;&gt;packages/music&#45;structure/melody/melody&#45;analyze/src/melody&#45;analysis.ts</title>
<path fill="none" stroke="#000000" stroke-width="2" stroke-opacity="0.200000" d="M431.83,-205.5C495.07,-200.92 605.67,-192.9 672.49,-188.06"/>
<polygon fill="#000000" fill-opacity="0.200000" stroke="#000000" stroke-width="2" stroke-opacity="0.200000" points="672.98,-190.13 678.82,-187.6 672.68,-185.94 672.98,-190.13"/>
</g>
<!-- packages/music&#45;structure/melody/melody&#45;analyze/src/register&#45;gravity.ts -->
<g id="node8" class="node">
<title>packages/music&#45;structure/melody/melody&#45;analyze/src/register&#45;gravity.ts</title>
<g id="a_node8"><a xlink:href="packages/music-structure/melody/melody-analyze/src/register-gravity.ts" xlink:title="register&#45;gravity.ts">
<path fill="#ddfeff" stroke="black" d="M770,-160C770,-160 687,-160 687,-160 684,-160 681,-157 681,-154 681,-154 681,-148 681,-148 681,-145 684,-142 687,-142 687,-142 770,-142 770,-142 773,-142 776,-145 776,-148 776,-148 776,-154 776,-154 776,-157 773,-160 770,-160"/>
<text text-anchor="start" x="689" y="-148.8" font-family="Helvetica,sans-Serif" font-size="9.00">register&#45;gravity.ts</text>
</a>
</g>
</g>
<!-- packages/music&#45;structure/melody/melody&#45;analyze/src/analyze&#45;melody.ts&#45;&gt;packages/music&#45;structure/melody/melody&#45;analyze/src/register&#45;gravity.ts -->
<g id="edge3" class="edge">
<title>packages/music&#45;structure/melody/melody&#45;analyze/src/analyze&#45;melody.ts&#45;&gt;packages/music&#45;structure/melody/melody&#45;analyze/src/register&#45;gravity.ts</title>
<path fill="none" stroke="#000000" stroke-width="2" stroke-opacity="0.200000" d="M431.83,-200.87C495.7,-190.14 607.87,-171.28 674.47,-160.08"/>
<polygon fill="#000000" fill-opacity="0.200000" stroke="#000000" stroke-width="2" stroke-opacity="0.200000" points="675.2,-162.09 680.77,-159.02 674.51,-157.95 675.2,-162.09"/>
</g>
<!-- packages/music&#45;structure/melody/melody&#45;analyze/src/time&#45;and&#45;analyzed&#45;melody.ts -->
<g id="node9" class="node">
<title>packages/music&#45;structure/melody/melody&#45;analyze/src/time&#45;and&#45;analyzed&#45;melody.ts</title>
<g id="a_node9"><a xlink:href="packages/music-structure/melody/melody-analyze/src/time-and-analyzed-melody.ts" xlink:title="time&#45;and&#45;analyzed&#45;melody.ts">
<path fill="#ddfeff" stroke="black" d="M636.5,-174C636.5,-174 502.5,-174 502.5,-174 499.5,-174 496.5,-171 496.5,-168 496.5,-168 496.5,-162 496.5,-162 496.5,-159 499.5,-156 502.5,-156 502.5,-156 636.5,-156 636.5,-156 639.5,-156 642.5,-159 642.5,-162 642.5,-162 642.5,-168 642.5,-168 642.5,-171 639.5,-174 636.5,-174"/>
<text text-anchor="start" x="504.5" y="-162.8" font-family="Helvetica,sans-Serif" font-size="9.00">time&#45;and&#45;analyzed&#45;melody.ts</text>
</a>
</g>
</g>
<!-- packages/music&#45;structure/melody/melody&#45;analyze/src/analyze&#45;melody.ts&#45;&gt;packages/music&#45;structure/melody/melody&#45;analyze/src/time&#45;and&#45;analyzed&#45;melody.ts -->
<g id="edge4" class="edge">
<title>packages/music&#45;structure/melody/melody&#45;analyze/src/analyze&#45;melody.ts&#45;&gt;packages/music&#45;structure/melody/melody&#45;analyze/src/time&#45;and&#45;analyzed&#45;melody.ts</title>
<path fill="none" stroke="#000000" stroke-width="2" stroke-opacity="0.200000" d="M422.18,-199.99C451.85,-192.89 493.26,-182.99 524.46,-175.53"/>
<polygon fill="#000000" fill-opacity="0.200000" stroke="#000000" stroke-width="2" stroke-opacity="0.200000" points="525.21,-177.51 530.56,-174.07 524.23,-173.43 525.21,-177.51"/>
</g>
<!-- packages/music&#45;structure/melody/melody&#45;analyze/src/time&#45;and&#45;melody.ts -->
<g id="node10" class="node">
<title>packages/music&#45;structure/melody/melody&#45;analyze/src/time&#45;and&#45;melody.ts</title>
<g id="a_node10"><a xlink:href="packages/music-structure/melody/melody-analyze/src/time-and-melody.ts" xlink:title="time&#45;and&#45;melody.ts">
<path fill="#ddfeff" stroke="black" d="M615,-218C615,-218 524,-218 524,-218 521,-218 518,-215 518,-212 518,-212 518,-206 518,-206 518,-203 521,-200 524,-200 524,-200 615,-200 615,-200 618,-200 621,-203 621,-206 621,-206 621,-212 621,-212 621,-215 618,-218 615,-218"/>
<text text-anchor="start" x="526" y="-206.8" font-family="Helvetica,sans-Serif" font-size="9.00">time&#45;and&#45;melody.ts</text>
</a>
</g>
</g>
<!-- packages/music&#45;structure/melody/melody&#45;analyze/src/analyze&#45;melody.ts&#45;&gt;packages/music&#45;structure/melody/melody&#45;analyze/src/time&#45;and&#45;melody.ts -->
<g id="edge5" class="edge">
<title>packages/music&#45;structure/melody/melody&#45;analyze/src/analyze&#45;melody.ts&#45;&gt;packages/music&#45;structure/melody/melody&#45;analyze/src/time&#45;and&#45;melody.ts</title>
<path fill="none" stroke="#000000" stroke-width="2" stroke-opacity="0.200000" d="M431.88,-209C456.23,-209 486.08,-209 511.66,-209"/>
<polygon fill="#000000" fill-opacity="0.200000" stroke="#000000" stroke-width="2" stroke-opacity="0.200000" points="511.73,-211.1 517.73,-209 511.73,-206.9 511.73,-211.1"/>
</g>
<!-- packages/tonal&#45;objects/dist/index.js -->
<g id="node11" class="node">
<title>packages/tonal&#45;objects/dist/index.js</title>
<g id="a_node11"><a xlink:href="packages/tonal-objects/dist/index.js" xlink:title="index.js">
<polygon fill="#ffffcc" stroke="black" points="895,-50 893.5,-52 883,-52 881.5,-50 841,-50 841,-32 895,-32 895,-50"/>
<text text-anchor="start" x="850.5" y="-38.8" font-family="Helvetica,sans-Serif" font-size="9.00">index.js</text>
</a>
</g>
</g>
<!-- packages/music&#45;structure/melody/melody&#45;analyze/src/analyze&#45;melody.ts&#45;&gt;packages/tonal&#45;objects/dist/index.js -->
<g id="edge8" class="edge">
<title>packages/music&#45;structure/melody/melody&#45;analyze/src/analyze&#45;melody.ts&#45;&gt;packages/tonal&#45;objects/dist/index.js</title>
<path fill="none" stroke="#000000" stroke-width="2" stroke-opacity="0.200000" d="M409.55,-199.97C491.87,-171.42 746.26,-83.21 836.14,-52.05"/>
<polygon fill="#000000" fill-opacity="0.200000" stroke="#000000" stroke-width="2" stroke-opacity="0.200000" points="836.84,-54.03 841.82,-50.08 835.47,-50.06 836.84,-54.03"/>
</g>
<!-- packages/music&#45;structure/melody/melody&#45;analyze/src/melody&#45;analysis.ts&#45;&gt;packages/cognitive&#45;theory&#45;of&#45;music/irm/dist/index.js -->
<g id="edge10" class="edge">
<title>packages/music&#45;structure/melody/melody&#45;analyze/src/melody&#45;analysis.ts&#45;&gt;packages/cognitive&#45;theory&#45;of&#45;music/irm/dist/index.js</title>
<path fill="none" stroke="#000000" stroke-width="2" stroke-opacity="0.200000" d="M731.44,-193.29C746.52,-265.33 844.73,-734.57 863.8,-825.69"/>
<polygon fill="#000000" fill-opacity="0.200000" stroke="#000000" stroke-width="2" stroke-opacity="0.200000" points="861.74,-826.14 865.03,-831.58 865.86,-825.28 861.74,-826.14"/>
</g>
<!-- packages/music&#45;structure/melody/melody&#45;analyze/src/gravity.ts -->
<g id="node12" class="node">
<title>packages/music&#45;structure/melody/melody&#45;analyze/src/gravity.ts</title>
<g id="a_node12"><a xlink:href="packages/music-structure/melody/melody-analyze/src/gravity.ts" xlink:title="gravity.ts">
<path fill="#ddfeff" stroke="black" d="M891,-176C891,-176 845,-176 845,-176 842,-176 839,-173 839,-170 839,-170 839,-164 839,-164 839,-161 842,-158 845,-158 845,-158 891,-158 891,-158 894,-158 897,-161 897,-164 897,-164 897,-170 897,-170 897,-173 894,-176 891,-176"/>
<text text-anchor="start" x="847" y="-164.8" font-family="Helvetica,sans-Serif" font-size="9.00">gravity.ts</text>
</a>
</g>
</g>
<!-- packages/music&#45;structure/melody/melody&#45;analyze/src/melody&#45;analysis.ts&#45;&gt;packages/music&#45;structure/melody/melody&#45;analyze/src/gravity.ts -->
<g id="edge9" class="edge">
<title>packages/music&#45;structure/melody/melody&#45;analyze/src/melody&#45;analysis.ts&#45;&gt;packages/music&#45;structure/melody/melody&#45;analyze/src/gravity.ts</title>
<path fill="none" stroke="#000000" stroke-width="2" stroke-opacity="0.200000" d="M778.36,-177.96C796.22,-175.75 816.03,-173.3 832.39,-171.28"/>
<polygon fill="#000000" fill-opacity="0.200000" stroke="#000000" stroke-width="2" stroke-opacity="0.200000" points="833.01,-173.32 838.71,-170.5 832.49,-169.15 833.01,-173.32"/>
</g>
<!-- packages/music&#45;structure/melody/melody&#45;analyze/src/register&#45;gravity.ts&#45;&gt;packages/tonal&#45;objects/dist/index.js -->
<g id="edge13" class="edge">
<title>packages/music&#45;structure/melody/melody&#45;analyze/src/register&#45;gravity.ts&#45;&gt;packages/tonal&#45;objects/dist/index.js</title>
<path fill="none" stroke="#000000" stroke-width="2" stroke-opacity="0.200000" d="M740.75,-142C765.03,-122.58 822.39,-76.69 850.67,-54.07"/>
<polygon fill="#000000" fill-opacity="0.200000" stroke="#000000" stroke-width="2" stroke-opacity="0.200000" points="852.22,-55.51 855.59,-50.13 849.6,-52.23 852.22,-55.51"/>
</g>
<!-- packages/music&#45;structure/melody/melody&#45;analyze/src/register&#45;gravity.ts&#45;&gt;packages/music&#45;structure/melody/melody&#45;analyze/src/gravity.ts -->
<g id="edge11" class="edge">
<title>packages/music&#45;structure/melody/melody&#45;analyze/src/register&#45;gravity.ts&#45;&gt;packages/music&#45;structure/melody/melody&#45;analyze/src/gravity.ts</title>
<path fill="none" stroke="#000000" stroke-width="2" stroke-opacity="0.200000" d="M776.05,-156.42C794.65,-158.58 815.67,-161.03 832.82,-163.02"/>
<polygon fill="#000000" fill-opacity="0.200000" stroke="#000000" stroke-width="2" stroke-opacity="0.200000" points="832.74,-165.13 838.95,-163.74 833.23,-160.96 832.74,-165.13"/>
</g>
<!-- packages/util/math/dist/index.js -->
<g id="node13" class="node">
<title>packages/util/math/dist/index.js</title>
<g id="a_node13"><a xlink:href="packages/util/math/dist/index.js" xlink:title="index.js">
<polygon fill="#ffffcc" stroke="black" points="895,-628 893.5,-630 883,-630 881.5,-628 841,-628 841,-610 895,-610 895,-628"/>
<text text-anchor="start" x="850.5" y="-616.8" font-family="Helvetica,sans-Serif" font-size="9.00">index.js</text>
</a>
</g>
</g>
<!-- packages/music&#45;structure/melody/melody&#45;analyze/src/register&#45;gravity.ts&#45;&gt;packages/util/math/dist/index.js -->
<g id="edge12" class="edge">
<title>packages/music&#45;structure/melody/melody&#45;analyze/src/register&#45;gravity.ts&#45;&gt;packages/util/math/dist/index.js</title>
<path fill="none" stroke="#000000" stroke-width="2" stroke-opacity="0.200000" d="M732.25,-160.35C749.33,-218.5 841.02,-530.59 862.5,-603.68"/>
<polygon fill="#000000" fill-opacity="0.200000" stroke="#000000" stroke-width="2" stroke-opacity="0.200000" points="860.54,-604.46 864.25,-609.63 864.57,-603.28 860.54,-604.46"/>
</g>
<!-- packages/music&#45;structure/melody/melody&#45;analyze/src/time&#45;and&#45;analyzed&#45;melody.ts&#45;&gt;packages/util/time&#45;and/dist/index.js -->
<g id="edge15" class="edge">
<title>packages/music&#45;structure/melody/melody&#45;analyze/src/time&#45;and&#45;analyzed&#45;melody.ts&#45;&gt;packages/util/time&#45;and/dist/index.js</title>
<path fill="none" stroke="#000000" stroke-width="2" stroke-opacity="0.200000" d="M574.43,-174.05C609.08,-237.66 815.84,-617.25 859.79,-697.93"/>
<polygon fill="#000000" fill-opacity="0.200000" stroke="#000000" stroke-width="2" stroke-opacity="0.200000" points="858.17,-699.35 862.89,-703.62 861.86,-697.34 858.17,-699.35"/>
</g>
<!-- packages/music&#45;structure/melody/melody&#45;analyze/src/time&#45;and&#45;analyzed&#45;melody.ts&#45;&gt;packages/music&#45;structure/melody/melody&#45;analyze/src/melody&#45;analysis.ts -->
<g id="edge14" class="edge">
<title>packages/music&#45;structure/melody/melody&#45;analyze/src/time&#45;and&#45;analyzed&#45;melody.ts&#45;&gt;packages/music&#45;structure/melody/melody&#45;analyze/src/melody&#45;analysis.ts</title>
<path fill="none" stroke="#000000" stroke-width="2" stroke-opacity="0.200000" d="M642.57,-173.72C652.71,-174.95 663.01,-176.19 672.76,-177.37"/>
<polygon fill="#000000" fill-opacity="0.200000" stroke="#000000" stroke-width="2" stroke-opacity="0.200000" points="672.54,-179.46 678.75,-178.1 673.05,-175.29 672.54,-179.46"/>
</g>
<!-- packages/music&#45;structure/melody/melody&#45;analyze/src/time&#45;and&#45;melody.ts&#45;&gt;packages/util/time&#45;and/dist/index.js -->
<g id="edge16" class="edge">
<title>packages/music&#45;structure/melody/melody&#45;analyze/src/time&#45;and&#45;melody.ts&#45;&gt;packages/util/time&#45;and/dist/index.js</title>
<path fill="none" stroke="#000000" stroke-width="2" stroke-opacity="0.200000" d="M574.94,-218.18C610.9,-278.9 814.51,-622.69 859.29,-698.3"/>
<polygon fill="#000000" fill-opacity="0.200000" stroke="#000000" stroke-width="2" stroke-opacity="0.200000" points="857.6,-699.56 862.46,-703.65 861.21,-697.42 857.6,-699.56"/>
</g>
<!-- packages/music&#45;structure/melody/melody&#45;hierarchical&#45;analysis/index.ts -->
<g id="node14" class="node">
<title>packages/music&#45;structure/melody/melody&#45;hierarchical&#45;analysis/index.ts</title>
<g id="a_node14"><a xlink:href="packages/music-structure/melody/melody-hierarchical-analysis/index.ts" xlink:title="index.ts">
<path fill="#ddfeff" stroke="black" d="M88,-312C88,-312 46,-312 46,-312 43,-312 40,-309 40,-306 40,-306 40,-300 40,-300 40,-297 43,-294 46,-294 46,-294 88,-294 88,-294 91,-294 94,-297 94,-300 94,-300 94,-306 94,-306 94,-309 91,-312 88,-312"/>
<text text-anchor="start" x="48.5" y="-300.8" font-family="Helvetica,sans-Serif" font-size="9.00">index.ts</text>
</a>
</g>
</g>
<!-- packages/music&#45;structure/melody/melody&#45;hierarchical&#45;analysis/src/index.ts -->
<g id="node15" class="node">
<title>packages/music&#45;structure/melody/melody&#45;hierarchical&#45;analysis/src/index.ts</title>
<g id="a_node15"><a xlink:href="packages/music-structure/melody/melody-hierarchical-analysis/src/index.ts" xlink:title="index.ts">
<path fill="#ddfeff" stroke="black" d="M158,-312C158,-312 116,-312 116,-312 113,-312 110,-309 110,-306 110,-306 110,-300 110,-300 110,-297 113,-294 116,-294 116,-294 158,-294 158,-294 161,-294 164,-297 164,-300 164,-300 164,-306 164,-306 164,-309 161,-312 158,-312"/>
<text text-anchor="start" x="118.5" y="-300.8" font-family="Helvetica,sans-Serif" font-size="9.00">index.ts</text>
</a>
</g>
</g>
<!-- packages/music&#45;structure/melody/melody&#45;hierarchical&#45;analysis/index.ts&#45;&gt;packages/music&#45;structure/melody/melody&#45;hierarchical&#45;analysis/src/index.ts -->
<g id="edge17" class="edge">
<title>packages/music&#45;structure/melody/melody&#45;hierarchical&#45;analysis/index.ts&#45;&gt;packages/music&#45;structure/melody/melody&#45;hierarchical&#45;analysis/src/index.ts</title>
<path fill="none" stroke="#000000" stroke-width="2" stroke-opacity="0.200000" d="M94.1,-303C97.12,-303 100.23,-303 103.33,-303"/>
<polygon fill="#000000" fill-opacity="0.200000" stroke="#000000" stroke-width="2" stroke-opacity="0.200000" points="109.64,-305.1 103.64,-303 109.64,-300.9 109.64,-305.1"/>
</g>
<!-- packages/music&#45;structure/melody/melody&#45;hierarchical&#45;analysis/src/get&#45;hierarchical&#45;melody.ts -->
<g id="node16" class="node">
<title>packages/music&#45;structure/melody/melody&#45;hierarchical&#45;analysis/src/get&#45;hierarchical&#45;melody.ts</title>
<g id="a_node16"><a xlink:href="packages/music-structure/melody/melody-hierarchical-analysis/src/get-hierarchical-melody.ts" xlink:title="get&#45;hierarchical&#45;melody.ts">
<path fill="#ddfeff" stroke="black" d="M304,-312C304,-312 183,-312 183,-312 180,-312 177,-309 177,-306 177,-306 177,-300 177,-300 177,-297 180,-294 183,-294 183,-294 304,-294 304,-294 307,-294 310,-297 310,-300 310,-300 310,-306 310,-306 310,-309 307,-312 304,-312"/>
<text text-anchor="start" x="185" y="-300.8" font-family="Helvetica,sans-Serif" font-size="9.00">get&#45;hierarchical&#45;melody.ts</text>
</a>
</g>
</g>
<!-- packages/music&#45;structure/melody/melody&#45;hierarchical&#45;analysis/src/index.ts&#45;&gt;packages/music&#45;structure/melody/melody&#45;hierarchical&#45;analysis/src/get&#45;hierarchical&#45;melody.ts -->
<g id="edge30" class="edge">
<title>packages/music&#45;structure/melody/melody&#45;hierarchical&#45;analysis/src/index.ts&#45;&gt;packages/music&#45;structure/melody/melody&#45;hierarchical&#45;analysis/src/get&#45;hierarchical&#45;melody.ts</title>
<path fill="none" stroke="#000000" stroke-width="2" stroke-opacity="0.200000" d="M164.1,-303C166.22,-303 168.42,-303 170.67,-303"/>
<polygon fill="#000000" fill-opacity="0.200000" stroke="#000000" stroke-width="2" stroke-opacity="0.200000" points="176.76,-305.1 170.76,-303 176.76,-300.9 176.76,-305.1"/>
</g>
<!-- packages/music&#45;structure/melody/melody&#45;hierarchical&#45;analysis/src/get&#45;hierarchical&#45;melody.ts&#45;&gt;packages/cognitive&#45;theory&#45;of&#45;music/gttm/dist/index.js -->
<g id="edge20" class="edge">
<title>packages/music&#45;structure/melody/melody&#45;hierarchical&#45;analysis/src/get&#45;hierarchical&#45;melody.ts&#45;&gt;packages/cognitive&#45;theory&#45;of&#45;music/gttm/dist/index.js</title>
<path fill="none" stroke="#000000" stroke-width="2" stroke-opacity="0.200000" d="M252.57,-312.18C322.2,-382.65 771.5,-837.34 854.74,-921.58"/>
<polygon fill="#000000" fill-opacity="0.200000" stroke="#000000" stroke-width="2" stroke-opacity="0.200000" points="853.36,-923.17 859.07,-925.96 856.34,-920.22 853.36,-923.17"/>
</g>
<!-- packages/music&#45;structure/melody/melody&#45;hierarchical&#45;analysis/src/get&#45;hierarchical&#45;melody.ts&#45;&gt;packages/data&#45;type/music&#45;xml/dist/index.js -->
<g id="edge24" class="edge">
<title>packages/music&#45;structure/melody/melody&#45;hierarchical&#45;analysis/src/get&#45;hierarchical&#45;melody.ts&#45;&gt;packages/data&#45;type/music&#45;xml/dist/index.js</title>
<path fill="none" stroke="#000000" stroke-width="2" stroke-opacity="0.200000" d="M252.56,-312.11C297.98,-357.81 500.89,-561.97 555.77,-617.19"/>
<polygon fill="#000000" fill-opacity="0.200000" stroke="#000000" stroke-width="2" stroke-opacity="0.200000" points="554.61,-619 560.33,-621.77 557.59,-616.04 554.61,-619"/>
</g>
<!-- packages/music&#45;structure/melody/melody&#45;hierarchical&#45;analysis/src/get&#45;hierarchical&#45;melody.ts&#45;&gt;packages/music&#45;structure/chord/chord&#45;analyze/src/chord&#45;analyze/time&#45;and&#45;roman&#45;analysis.ts -->
<g id="edge19" class="edge">
<title>packages/music&#45;structure/melody/melody&#45;hierarchical&#45;analysis/src/get&#45;hierarchical&#45;melody.ts&#45;&gt;packages/music&#45;structure/chord/chord&#45;analyze/src/chord&#45;analyze/time&#45;and&#45;roman&#45;analysis.ts</title>
<path fill="none" stroke="#000000" stroke-width="2" stroke-opacity="0.200000" d="M265.14,-312.03C322.45,-335.94 478.11,-400.87 541.78,-427.44"/>
<polygon fill="#000000" fill-opacity="0.200000" stroke="#000000" stroke-width="2" stroke-opacity="0.200000" points="541.31,-429.51 547.65,-429.89 542.92,-425.64 541.31,-429.51"/>
</g>
<!-- packages/music&#45;structure/melody/melody&#45;hierarchical&#45;analysis/src/get&#45;hierarchical&#45;melody.ts&#45;&gt;packages/music&#45;structure/melody/melody&#45;analyze/src/analyze&#45;melody.ts -->
<g id="edge21" class="edge">
<title>packages/music&#45;structure/melody/melody&#45;hierarchical&#45;analysis/src/get&#45;hierarchical&#45;melody.ts&#45;&gt;packages/music&#45;structure/melody/melody&#45;analyze/src/analyze&#45;melody.ts</title>
<path fill="none" stroke="#000000" stroke-width="2" stroke-opacity="0.200000" d="M257.73,-293.99C282.5,-277.12 335.9,-240.74 364.14,-221.51"/>
<polygon fill="#000000" fill-opacity="0.200000" stroke="#000000" stroke-width="2" stroke-opacity="0.200000" points="365.33,-223.24 369.11,-218.12 362.96,-219.77 365.33,-223.24"/>
</g>
<!-- packages/music&#45;structure/melody/melody&#45;hierarchical&#45;analysis/src/get&#45;hierarchical&#45;melody.ts&#45;&gt;packages/music&#45;structure/melody/melody&#45;analyze/src/time&#45;and&#45;analyzed&#45;melody.ts -->
<g id="edge22" class="edge">
<title>packages/music&#45;structure/melody/melody&#45;hierarchical&#45;analysis/src/get&#45;hierarchical&#45;melody.ts&#45;&gt;packages/music&#45;structure/melody/melody&#45;analyze/src/time&#45;and&#45;analyzed&#45;melody.ts</title>
<path fill="none" stroke="#000000" stroke-width="2" stroke-opacity="0.200000" d="M264.89,-293.95C322.11,-269.72 478.66,-203.45 542.18,-176.56"/>
<polygon fill="#000000" fill-opacity="0.200000" stroke="#000000" stroke-width="2" stroke-opacity="0.200000" points="543.32,-178.36 548.03,-174.09 541.69,-174.49 543.32,-178.36"/>
</g>
<!-- packages/music&#45;structure/melody/melody&#45;hierarchical&#45;analysis/src/get&#45;hierarchical&#45;melody.ts&#45;&gt;packages/music&#45;structure/melody/melody&#45;analyze/src/time&#45;and&#45;melody.ts -->
<g id="edge23" class="edge">
<title>packages/music&#45;structure/melody/melody&#45;hierarchical&#45;analysis/src/get&#45;hierarchical&#45;melody.ts&#45;&gt;packages/music&#45;structure/melody/melody&#45;analyze/src/time&#45;and&#45;melody.ts</title>
<path fill="none" stroke="#000000" stroke-width="2" stroke-opacity="0.200000" d="M274.76,-293.99C334.97,-276.63 466.81,-238.61 531.78,-219.88"/>
<polygon fill="#000000" fill-opacity="0.200000" stroke="#000000" stroke-width="2" stroke-opacity="0.200000" points="532.67,-221.8 537.86,-218.12 531.51,-217.77 532.67,-221.8"/>
</g>
<!-- packages/music&#45;structure/melody/melody&#45;hierarchical&#45;analysis/src/get&#45;time&#45;and&#45;melody.ts -->
<g id="node17" class="node">
<title>packages/music&#45;structure/melody/melody&#45;hierarchical&#45;analysis/src/get&#45;time&#45;and&#45;melody.ts</title>
<g id="a_node17"><a xlink:href="packages/music-structure/melody/melody-hierarchical-analysis/src/get-time-and-melody.ts" xlink:title="get&#45;time&#45;and&#45;melody.ts">
<path fill="#ddfeff" stroke="black" d="M438,-312C438,-312 329,-312 329,-312 326,-312 323,-309 323,-306 323,-306 323,-300 323,-300 323,-297 326,-294 329,-294 329,-294 438,-294 438,-294 441,-294 444,-297 444,-300 444,-300 444,-306 444,-306 444,-309 441,-312 438,-312"/>
<text text-anchor="start" x="331" y="-300.8" font-family="Helvetica,sans-Serif" font-size="9.00">get&#45;time&#45;and&#45;melody.ts</text>
</a>
</g>
</g>
<!-- packages/music&#45;structure/melody/melody&#45;hierarchical&#45;analysis/src/get&#45;hierarchical&#45;melody.ts&#45;&gt;packages/music&#45;structure/melody/melody&#45;hierarchical&#45;analysis/src/get&#45;time&#45;and&#45;melody.ts -->
<g id="edge18" class="edge">
<title>packages/music&#45;structure/melody/melody&#45;hierarchical&#45;analysis/src/get&#45;hierarchical&#45;melody.ts&#45;&gt;packages/music&#45;structure/melody/melody&#45;hierarchical&#45;analysis/src/get&#45;time&#45;and&#45;melody.ts</title>
<path fill="none" stroke="#000000" stroke-width="2" stroke-opacity="0.200000" d="M310.27,-303C312.35,-303 314.44,-303 316.52,-303"/>
<polygon fill="#000000" fill-opacity="0.200000" stroke="#000000" stroke-width="2" stroke-opacity="0.200000" points="316.75,-305.1 322.75,-303 316.75,-300.9 316.75,-305.1"/>
</g>
<!-- packages/music&#45;structure/melody/melody&#45;hierarchical&#45;analysis/src/get&#45;time&#45;and&#45;melody.ts&#45;&gt;packages/cognitive&#45;theory&#45;of&#45;music/gttm/dist/index.js -->
<g id="edge25" class="edge">
<title>packages/music&#45;structure/melody/melody&#45;hierarchical&#45;analysis/src/get&#45;time&#45;and&#45;melody.ts&#45;&gt;packages/cognitive&#45;theory&#45;of&#45;music/gttm/dist/index.js</title>
<path fill="none" stroke="#000000" stroke-width="2" stroke-opacity="0.200000" d="M390.54,-312.18C444.45,-382.5 791.75,-835.53 857.33,-921.08"/>
<polygon fill="#000000" fill-opacity="0.200000" stroke="#000000" stroke-width="2" stroke-opacity="0.200000" points="855.75,-922.48 861.07,-925.96 859.09,-919.92 855.75,-922.48"/>
</g>
<!-- packages/music&#45;structure/melody/melody&#45;hierarchical&#45;analysis/src/get&#45;time&#45;and&#45;melody.ts&#45;&gt;packages/data&#45;type/music&#45;xml/dist/index.js -->
<g id="edge27" class="edge">
<title>packages/music&#45;structure/melody/melody&#45;hierarchical&#45;analysis/src/get&#45;time&#45;and&#45;melody.ts&#45;&gt;packages/data&#45;type/music&#45;xml/dist/index.js</title>
<path fill="none" stroke="#000000" stroke-width="2" stroke-opacity="0.200000" d="M389.61,-312.11C415.15,-357.63 528.85,-560.32 560.37,-616.52"/>
<polygon fill="#000000" fill-opacity="0.200000" stroke="#000000" stroke-width="2" stroke-opacity="0.200000" points="558.56,-617.57 563.32,-621.77 562.22,-615.51 558.56,-617.57"/>
</g>
<!-- packages/music&#45;structure/melody/melody&#45;hierarchical&#45;analysis/src/get&#45;time&#45;and&#45;melody.ts&#45;&gt;packages/util/time&#45;and/dist/index.js -->
<g id="edge28" class="edge">
<title>packages/music&#45;structure/melody/melody&#45;hierarchical&#45;analysis/src/get&#45;time&#45;and&#45;melody.ts&#45;&gt;packages/util/time&#45;and/dist/index.js</title>
<path fill="none" stroke="#000000" stroke-width="2" stroke-opacity="0.200000" d="M394.53,-312.33C458.08,-366.11 777.28,-636.23 852.23,-699.66"/>
<polygon fill="#000000" fill-opacity="0.200000" stroke="#000000" stroke-width="2" stroke-opacity="0.200000" points="851.26,-701.59 857.2,-703.86 853.97,-698.38 851.26,-701.59"/>
</g>
<!-- packages/music&#45;structure/melody/melody&#45;hierarchical&#45;analysis/src/get&#45;time&#45;and&#45;melody.ts&#45;&gt;packages/music&#45;structure/melody/melody&#45;analyze/src/time&#45;and&#45;melody.ts -->
<g id="edge26" class="edge">
<title>packages/music&#45;structure/melody/melody&#45;hierarchical&#45;analysis/src/get&#45;time&#45;and&#45;melody.ts&#45;&gt;packages/music&#45;structure/melody/melody&#45;analyze/src/time&#45;and&#45;melody.ts</title>
<path fill="none" stroke="#000000" stroke-width="2" stroke-opacity="0.200000" d="M402.14,-293.99C435.44,-276.98 507.56,-240.13 544.95,-221.03"/>
<polygon fill="#000000" fill-opacity="0.200000" stroke="#000000" stroke-width="2" stroke-opacity="0.200000" points="546.25,-222.72 550.64,-218.12 544.34,-218.98 546.25,-222.72"/>
</g>
<!-- packages/music&#45;structure/melody/melody&#45;hierarchical&#45;analysis/src/get&#45;time&#45;and&#45;melody.ts&#45;&gt;packages/tonal&#45;objects/dist/index.js -->
<g id="edge29" class="edge">
<title>packages/music&#45;structure/melody/melody&#45;hierarchical&#45;analysis/src/get&#45;time&#45;and&#45;melody.ts&#45;&gt;packages/tonal&#45;objects/dist/index.js</title>
<path fill="none" stroke="#000000" stroke-width="2" stroke-opacity="0.200000" d="M400.18,-293.98C472.89,-254.66 762.3,-98.16 845.51,-53.16"/>
<polygon fill="#000000" fill-opacity="0.200000" stroke="#000000" stroke-width="2" stroke-opacity="0.200000" points="846.86,-54.82 851.14,-50.12 844.87,-51.12 846.86,-54.82"/>
</g>
</g>
</svg>
