<?xml version="1.0" encoding="UTF-8" standalone="no"?>
<!DOCTYPE svg PUBLIC "-//W3C//DTD SVG 1.1//EN"
 "http://www.w3.org/Graphics/SVG/1.1/DTD/svg11.dtd">
<!-- Generated by graphviz version 2.43.0 (0)
 -->
<!-- Title: dependency&#45;cruiser output Pages: 1 -->
<svg width="392pt" height="818pt"
 viewBox="0.00 0.00 392.00 818.00" xmlns="http://www.w3.org/2000/svg" xmlns:xlink="http://www.w3.org/1999/xlink">
<g id="graph0" class="graph" transform="scale(1 1) rotate(0) translate(4 814)">
<title>dependency&#45;cruiser output</title>
<polygon fill="white" stroke="transparent" points="-4,4 -4,-814 388,-814 388,4 -4,4"/>
<g id="clust1" class="cluster">
<title>cluster_packages</title>
<path fill="#ffffff" stroke="black" stroke-width="2" d="M12,-8C12,-8 372,-8 372,-8 378,-8 384,-14 384,-20 384,-20 384,-790 384,-790 384,-796 378,-802 372,-802 372,-802 12,-802 12,-802 6,-802 0,-796 0,-790 0,-790 0,-20 0,-20 0,-14 6,-8 12,-8"/>
<text text-anchor="middle" x="192" y="-790.8" font-family="Helvetica,sans-Serif" font-weight="bold" font-size="9.00">packages</text>
</g>
<g id="clust2" class="cluster">
<title>cluster_packages/cognitive&#45;theory&#45;of&#45;music</title>
<path fill="#ffffff" stroke="black" stroke-width="2" d="M239,-306C239,-306 364,-306 364,-306 370,-306 376,-312 376,-318 376,-318 376,-414 376,-414 376,-420 370,-426 364,-426 364,-426 239,-426 239,-426 233,-426 227,-420 227,-414 227,-414 227,-318 227,-318 227,-312 233,-306 239,-306"/>
<text text-anchor="middle" x="301.5" y="-414.8" font-family="Helvetica,sans-Serif" font-weight="bold" font-size="9.00">cognitive&#45;theory&#45;of&#45;music</text>
</g>
<g id="clust3" class="cluster">
<title>cluster_packages/cognitive&#45;theory&#45;of&#45;music/gttm</title>
<path fill="#ffffff" stroke="black" stroke-width="2" d="M270,-314C270,-314 332,-314 332,-314 338,-314 344,-320 344,-326 344,-326 344,-388 344,-388 344,-394 338,-400 332,-400 332,-400 270,-400 270,-400 264,-400 258,-394 258,-388 258,-388 258,-326 258,-326 258,-320 264,-314 270,-314"/>
<text text-anchor="middle" x="301" y="-388.8" font-family="Helvetica,sans-Serif" font-weight="bold" font-size="9.00">gttm</text>
</g>
<g id="clust4" class="cluster">
<title>cluster_packages/cognitive&#45;theory&#45;of&#45;music/gttm/dist</title>
<path fill="#ffffff" stroke="black" stroke-width="2" d="M278,-322C278,-322 324,-322 324,-322 330,-322 336,-328 336,-334 336,-334 336,-362 336,-362 336,-368 330,-374 324,-374 324,-374 278,-374 278,-374 272,-374 266,-368 266,-362 266,-362 266,-334 266,-334 266,-328 272,-322 278,-322"/>
<text text-anchor="middle" x="301" y="-362.8" font-family="Helvetica,sans-Serif" font-weight="bold" font-size="9.00">dist</text>
</g>
<g id="clust5" class="cluster">
<title>cluster_packages/data&#45;type</title>
<path fill="#ffffff" stroke="black" stroke-width="2" d="M262,-434C262,-434 340,-434 340,-434 346,-434 352,-440 352,-446 352,-446 352,-542 352,-542 352,-548 346,-554 340,-554 340,-554 262,-554 262,-554 256,-554 250,-548 250,-542 250,-542 250,-446 250,-446 250,-440 256,-434 262,-434"/>
<text text-anchor="middle" x="301" y="-542.8" font-family="Helvetica,sans-Serif" font-weight="bold" font-size="9.00">data&#45;type</text>
</g>
<g id="clust6" class="cluster">
<title>cluster_packages/data&#45;type/music&#45;xml</title>
<path fill="#ffffff" stroke="black" stroke-width="2" d="M270,-442C270,-442 332,-442 332,-442 338,-442 344,-448 344,-454 344,-454 344,-516 344,-516 344,-522 338,-528 332,-528 332,-528 270,-528 270,-528 264,-528 258,-522 258,-516 258,-516 258,-454 258,-454 258,-448 264,-442 270,-442"/>
<text text-anchor="middle" x="301" y="-516.8" font-family="Helvetica,sans-Serif" font-weight="bold" font-size="9.00">music&#45;xml</text>
</g>
<g id="clust7" class="cluster">
<title>cluster_packages/data&#45;type/music&#45;xml/dist</title>
<path fill="#ffffff" stroke="black" stroke-width="2" d="M278,-450C278,-450 324,-450 324,-450 330,-450 336,-456 336,-462 336,-462 336,-490 336,-490 336,-496 330,-502 324,-502 324,-502 278,-502 278,-502 272,-502 266,-496 266,-490 266,-490 266,-462 266,-462 266,-456 272,-450 278,-450"/>
<text text-anchor="middle" x="301" y="-490.8" font-family="Helvetica,sans-Serif" font-weight="bold" font-size="9.00">dist</text>
</g>
<g id="clust8" class="cluster">
<title>cluster_packages/music&#45;structure</title>
<path fill="#ffffff" stroke="black" stroke-width="2" d="M20,-16C20,-16 354,-16 354,-16 360,-16 366,-22 366,-28 366,-28 366,-286 366,-286 366,-292 360,-298 354,-298 354,-298 20,-298 20,-298 14,-298 8,-292 8,-286 8,-286 8,-28 8,-28 8,-22 14,-16 20,-16"/>
<text text-anchor="middle" x="187" y="-286.8" font-family="Helvetica,sans-Serif" font-weight="bold" font-size="9.00">music&#45;structure</text>
</g>
<g id="clust9" class="cluster">
<title>cluster_packages/music&#45;structure/chord</title>
<path fill="#ffffff" stroke="black" stroke-width="2" d="M261,-152C261,-152 342,-152 342,-152 348,-152 354,-158 354,-164 354,-164 354,-260 354,-260 354,-266 348,-272 342,-272 342,-272 261,-272 261,-272 255,-272 249,-266 249,-260 249,-260 249,-164 249,-164 249,-158 255,-152 261,-152"/>
<text text-anchor="middle" x="301.5" y="-260.8" font-family="Helvetica,sans-Serif" font-weight="bold" font-size="9.00">chord</text>
</g>
<g id="clust10" class="cluster">
<title>cluster_packages/music&#45;structure/chord/chord&#45;analyze</title>
<path fill="#ffffff" stroke="black" stroke-width="2" d="M269,-160C269,-160 334,-160 334,-160 340,-160 346,-166 346,-172 346,-172 346,-234 346,-234 346,-240 340,-246 334,-246 334,-246 269,-246 269,-246 263,-246 257,-240 257,-234 257,-234 257,-172 257,-172 257,-166 263,-160 269,-160"/>
<text text-anchor="middle" x="301.5" y="-234.8" font-family="Helvetica,sans-Serif" font-weight="bold" font-size="9.00">chord&#45;analyze</text>
</g>
<g id="clust11" class="cluster">
<title>cluster_packages/music&#45;structure/chord/chord&#45;analyze/dist</title>
<path fill="#ffffff" stroke="black" stroke-width="2" d="M278,-168C278,-168 324,-168 324,-168 330,-168 336,-174 336,-180 336,-180 336,-208 336,-208 336,-214 330,-220 324,-220 324,-220 278,-220 278,-220 272,-220 266,-214 266,-208 266,-208 266,-180 266,-180 266,-174 272,-168 278,-168"/>
<text text-anchor="middle" x="301" y="-208.8" font-family="Helvetica,sans-Serif" font-weight="bold" font-size="9.00">dist</text>
</g>
<g id="clust12" class="cluster">
<title>cluster_packages/music&#45;structure/melody</title>
<path fill="#ffffff" stroke="black" stroke-width="2" d="M28,-24C28,-24 346,-24 346,-24 352,-24 358,-30 358,-36 358,-36 358,-132 358,-132 358,-138 352,-144 346,-144 346,-144 28,-144 28,-144 22,-144 16,-138 16,-132 16,-132 16,-36 16,-36 16,-30 22,-24 28,-24"/>
<text text-anchor="middle" x="187" y="-132.8" font-family="Helvetica,sans-Serif" font-weight="bold" font-size="9.00">melody</text>
</g>
<g id="clust13" class="cluster">
<title>cluster_packages/music&#45;structure/melody/melody&#45;analyze</title>
<path fill="#ffffff" stroke="black" stroke-width="2" d="M265,-32C265,-32 338,-32 338,-32 344,-32 350,-38 350,-44 350,-44 350,-106 350,-106 350,-112 344,-118 338,-118 338,-118 265,-118 265,-118 259,-118 253,-112 253,-106 253,-106 253,-44 253,-44 253,-38 259,-32 265,-32"/>
<text text-anchor="middle" x="301.5" y="-106.8" font-family="Helvetica,sans-Serif" font-weight="bold" font-size="9.00">melody&#45;analyze</text>
</g>
<g id="clust14" class="cluster">
<title>cluster_packages/music&#45;structure/melody/melody&#45;analyze/dist</title>
<path fill="#ffffff" stroke="black" stroke-width="2" d="M278,-40C278,-40 324,-40 324,-40 330,-40 336,-46 336,-52 336,-52 336,-80 336,-80 336,-86 330,-92 324,-92 324,-92 278,-92 278,-92 272,-92 266,-86 266,-80 266,-80 266,-52 266,-52 266,-46 272,-40 278,-40"/>
<text text-anchor="middle" x="301" y="-80.8" font-family="Helvetica,sans-Serif" font-weight="bold" font-size="9.00">dist</text>
</g>
<g id="clust15" class="cluster">
<title>cluster_packages/music&#45;structure/melody/melody&#45;hierarchical&#45;analysis</title>
<path fill="#ffffff" stroke="black" stroke-width="2" d="M36,-66C36,-66 175,-66 175,-66 181,-66 187,-72 187,-78 187,-78 187,-106 187,-106 187,-112 181,-118 175,-118 175,-118 36,-118 36,-118 30,-118 24,-112 24,-106 24,-106 24,-78 24,-78 24,-72 30,-66 36,-66"/>
<text text-anchor="middle" x="105.5" y="-106.8" font-family="Helvetica,sans-Serif" font-weight="bold" font-size="9.00">melody&#45;hierarchical&#45;analysis</text>
</g>
<g id="clust16" class="cluster">
<title>cluster_packages/tonal&#45;objects</title>
<path fill="#ffffff" stroke="black" stroke-width="2" d="M270,-690C270,-690 332,-690 332,-690 338,-690 344,-696 344,-702 344,-702 344,-764 344,-764 344,-770 338,-776 332,-776 332,-776 270,-776 270,-776 264,-776 258,-770 258,-764 258,-764 258,-702 258,-702 258,-696 264,-690 270,-690"/>
<text text-anchor="middle" x="301" y="-764.8" font-family="Helvetica,sans-Serif" font-weight="bold" font-size="9.00">tonal&#45;objects</text>
</g>
<g id="clust17" class="cluster">
<title>cluster_packages/tonal&#45;objects/dist</title>
<path fill="#ffffff" stroke="black" stroke-width="2" d="M278,-698C278,-698 324,-698 324,-698 330,-698 336,-704 336,-710 336,-710 336,-738 336,-738 336,-744 330,-750 324,-750 324,-750 278,-750 278,-750 272,-750 266,-744 266,-738 266,-738 266,-710 266,-710 266,-704 272,-698 278,-698"/>
<text text-anchor="middle" x="301" y="-738.8" font-family="Helvetica,sans-Serif" font-weight="bold" font-size="9.00">dist</text>
</g>
<g id="clust18" class="cluster">
<title>cluster_packages/util</title>
<path fill="#ffffff" stroke="black" stroke-width="2" d="M262,-562C262,-562 340,-562 340,-562 346,-562 352,-568 352,-574 352,-574 352,-670 352,-670 352,-676 346,-682 340,-682 340,-682 262,-682 262,-682 256,-682 250,-676 250,-670 250,-670 250,-574 250,-574 250,-568 256,-562 262,-562"/>
<text text-anchor="middle" x="301" y="-670.8" font-family="Helvetica,sans-Serif" font-weight="bold" font-size="9.00">util</text>
</g>
<g id="clust19" class="cluster">
<title>cluster_packages/util/time&#45;and</title>
<path fill="#ffffff" stroke="black" stroke-width="2" d="M270,-570C270,-570 332,-570 332,-570 338,-570 344,-576 344,-582 344,-582 344,-644 344,-644 344,-650 338,-656 332,-656 332,-656 270,-656 270,-656 264,-656 258,-650 258,-644 258,-644 258,-582 258,-582 258,-576 264,-570 270,-570"/>
<text text-anchor="middle" x="301" y="-644.8" font-family="Helvetica,sans-Serif" font-weight="bold" font-size="9.00">time&#45;and</text>
</g>
<g id="clust20" class="cluster">
<title>cluster_packages/util/time&#45;and/dist</title>
<path fill="#ffffff" stroke="black" stroke-width="2" d="M278,-578C278,-578 324,-578 324,-578 330,-578 336,-584 336,-590 336,-590 336,-618 336,-618 336,-624 330,-630 324,-630 324,-630 278,-630 278,-630 272,-630 266,-624 266,-618 266,-618 266,-590 266,-590 266,-584 272,-578 278,-578"/>
<text text-anchor="middle" x="301" y="-618.8" font-family="Helvetica,sans-Serif" font-weight="bold" font-size="9.00">dist</text>
</g>
<!-- packages/cognitive&#45;theory&#45;of&#45;music/gttm/dist/index.js -->
<g id="node1" class="node">
<title>packages/cognitive&#45;theory&#45;of&#45;music/gttm/dist/index.js</title>
<g id="a_node1"><a xlink:href="packages/cognitive-theory-of-music/gttm/dist/index.js" xlink:title="index.js">
<polygon fill="#ffffcc" stroke="black" points="328,-348 326.5,-350 316,-350 314.5,-348 274,-348 274,-330 328,-330 328,-348"/>
<text text-anchor="start" x="283.5" y="-336.8" font-family="Helvetica,sans-Serif" font-size="9.00">index.js</text>
</a>
</g>
</g>
<!-- packages/data&#45;type/music&#45;xml/dist/index.js -->
<g id="node2" class="node">
<title>packages/data&#45;type/music&#45;xml/dist/index.js</title>
<g id="a_node2"><a xlink:href="packages/data-type/music-xml/dist/index.js" xlink:title="index.js">
<polygon fill="#ffffcc" stroke="black" points="328,-476 326.5,-478 316,-478 314.5,-476 274,-476 274,-458 328,-458 328,-476"/>
<text text-anchor="start" x="283.5" y="-464.8" font-family="Helvetica,sans-Serif" font-size="9.00">index.js</text>
</a>
</g>
</g>
<!-- packages/music&#45;structure/chord/chord&#45;analyze/dist/index.js -->
<g id="node3" class="node">
<title>packages/music&#45;structure/chord/chord&#45;analyze/dist/index.js</title>
<g id="a_node3"><a xlink:href="packages/music-structure/chord/chord-analyze/dist/index.js" xlink:title="index.js">
<polygon fill="#ffffcc" stroke="black" points="328,-194 326.5,-196 316,-196 314.5,-194 274,-194 274,-176 328,-176 328,-194"/>
<text text-anchor="start" x="283.5" y="-182.8" font-family="Helvetica,sans-Serif" font-size="9.00">index.js</text>
</a>
</g>
</g>
<!-- packages/music&#45;structure/melody/melody&#45;analyze/dist/index.js -->
<g id="node4" class="node">
<title>packages/music&#45;structure/melody/melody&#45;analyze/dist/index.js</title>
<g id="a_node4"><a xlink:href="packages/music-structure/melody/melody-analyze/dist/index.js" xlink:title="index.js">
<polygon fill="#ffffcc" stroke="black" points="328,-66 326.5,-68 316,-68 314.5,-66 274,-66 274,-48 328,-48 328,-66"/>
<text text-anchor="start" x="283.5" y="-54.8" font-family="Helvetica,sans-Serif" font-size="9.00">index.js</text>
</a>
</g>
</g>
<!-- packages/music&#45;structure/melody/melody&#45;hierarchical&#45;analysis/index.ts -->
<g id="node5" class="node">
<title>packages/music&#45;structure/melody/melody&#45;hierarchical&#45;analysis/index.ts</title>
<g id="a_node5"><a xlink:href="packages/music-structure/melody/melody-hierarchical-analysis/index.ts" xlink:title="index.ts">
<path fill="#ddfeff" stroke="black" d="M126,-92C126,-92 84,-92 84,-92 81,-92 78,-89 78,-86 78,-86 78,-80 78,-80 78,-77 81,-74 84,-74 84,-74 126,-74 126,-74 129,-74 132,-77 132,-80 132,-80 132,-86 132,-86 132,-89 129,-92 126,-92"/>
<text text-anchor="start" x="86.5" y="-80.8" font-family="Helvetica,sans-Serif" font-size="9.00">index.ts</text>
</a>
</g>
</g>
<!-- packages/music&#45;structure/melody/melody&#45;hierarchical&#45;analysis/index.ts&#45;&gt;packages/cognitive&#45;theory&#45;of&#45;music/gttm/dist/index.js -->
<g id="edge2" class="edge">
<title>packages/music&#45;structure/melody/melody&#45;hierarchical&#45;analysis/index.ts&#45;&gt;packages/cognitive&#45;theory&#45;of&#45;music/gttm/dist/index.js</title>
<path fill="none" stroke="#000000" stroke-width="2" stroke-opacity="0.200000" d="M112.9,-92.11C141.96,-130.45 254.38,-278.8 289.47,-325.11"/>
<polygon fill="#000000" fill-opacity="0.200000" stroke="#000000" stroke-width="2" stroke-opacity="0.200000" points="287.88,-326.48 293.18,-330 291.23,-323.95 287.88,-326.48"/>
</g>
<!-- packages/music&#45;structure/melody/melody&#45;hierarchical&#45;analysis/index.ts&#45;&gt;packages/data&#45;type/music&#45;xml/dist/index.js -->
<g id="edge4" class="edge">
<title>packages/music&#45;structure/melody/melody&#45;hierarchical&#45;analysis/index.ts&#45;&gt;packages/data&#45;type/music&#45;xml/dist/index.js</title>
<path fill="none" stroke="#000000" stroke-width="2" stroke-opacity="0.200000" d="M109.75,-92.12C130.18,-141.75 227,-377 227,-377 227,-377 268.14,-427.72 288.65,-453.01"/>
<polygon fill="#000000" fill-opacity="0.200000" stroke="#000000" stroke-width="2" stroke-opacity="0.200000" points="287.05,-454.37 292.46,-457.71 290.31,-451.72 287.05,-454.37"/>
</g>
<!-- packages/music&#45;structure/melody/melody&#45;hierarchical&#45;analysis/index.ts&#45;&gt;packages/music&#45;structure/chord/chord&#45;analyze/dist/index.js -->
<g id="edge1" class="edge">
<title>packages/music&#45;structure/melody/melody&#45;hierarchical&#45;analysis/index.ts&#45;&gt;packages/music&#45;structure/chord/chord&#45;analyze/dist/index.js</title>
<path fill="none" stroke="#000000" stroke-width="2" stroke-opacity="0.200000" d="M123.22,-92.05C158.31,-110.5 238.09,-152.45 277.34,-173.08"/>
<polygon fill="#000000" fill-opacity="0.200000" stroke="#000000" stroke-width="2" stroke-opacity="0.200000" points="276.53,-175.03 282.82,-175.97 278.49,-171.32 276.53,-175.03"/>
</g>
<!-- packages/music&#45;structure/melody/melody&#45;hierarchical&#45;analysis/index.ts&#45;&gt;packages/music&#45;structure/melody/melody&#45;analyze/dist/index.js -->
<g id="edge3" class="edge">
<title>packages/music&#45;structure/melody/melody&#45;hierarchical&#45;analysis/index.ts&#45;&gt;packages/music&#45;structure/melody/melody&#45;analyze/dist/index.js</title>
<path fill="none" stroke="#000000" stroke-width="2" stroke-opacity="0.200000" d="M132.16,-79.49C167.26,-74.79 229.57,-66.44 267.6,-61.34"/>
<polygon fill="#000000" fill-opacity="0.200000" stroke="#000000" stroke-width="2" stroke-opacity="0.200000" points="268.27,-63.37 273.94,-60.49 267.72,-59.21 268.27,-63.37"/>
</g>
<!-- packages/util/time&#45;and/dist/index.js -->
<g id="node6" class="node">
<title>packages/util/time&#45;and/dist/index.js</title>
<g id="a_node6"><a xlink:href="packages/util/time-and/dist/index.js" xlink:title="index.js">
<polygon fill="#ffffcc" stroke="black" points="328,-604 326.5,-606 316,-606 314.5,-604 274,-604 274,-586 328,-586 328,-604"/>
<text text-anchor="start" x="283.5" y="-592.8" font-family="Helvetica,sans-Serif" font-size="9.00">index.js</text>
</a>
</g>
</g>
<!-- packages/music&#45;structure/melody/melody&#45;hierarchical&#45;analysis/index.ts&#45;&gt;packages/util/time&#45;and/dist/index.js -->
<g id="edge5" class="edge">
<title>packages/music&#45;structure/melody/melody&#45;hierarchical&#45;analysis/index.ts&#45;&gt;packages/util/time&#45;and/dist/index.js</title>
<path fill="none" stroke="#000000" stroke-width="2" stroke-opacity="0.200000" d="M108.64,-92.21C126.33,-153.92 227,-505 227,-505 227,-505 268.14,-555.72 288.65,-581.01"/>
<polygon fill="#000000" fill-opacity="0.200000" stroke="#000000" stroke-width="2" stroke-opacity="0.200000" points="287.05,-582.37 292.46,-585.71 290.31,-579.72 287.05,-582.37"/>
</g>
<!-- packages/tonal&#45;objects/dist/index.js -->
<g id="node7" class="node">
<title>packages/tonal&#45;objects/dist/index.js</title>
<g id="a_node7"><a xlink:href="packages/tonal-objects/dist/index.js" xlink:title="index.js">
<polygon fill="#ffffcc" stroke="black" points="328,-724 326.5,-726 316,-726 314.5,-724 274,-724 274,-706 328,-706 328,-724"/>
<text text-anchor="start" x="283.5" y="-712.8" font-family="Helvetica,sans-Serif" font-size="9.00">index.js</text>
</a>
</g>
</g>
<!-- packages/music&#45;structure/melody/melody&#45;hierarchical&#45;analysis/index.ts&#45;&gt;packages/tonal&#45;objects/dist/index.js -->
<g id="edge6" class="edge">
<title>packages/music&#45;structure/melody/melody&#45;hierarchical&#45;analysis/index.ts&#45;&gt;packages/tonal&#45;objects/dist/index.js</title>
<path fill="none" stroke="#000000" stroke-width="2" stroke-opacity="0.200000" d="M108,-92.09C123.73,-163.6 227,-633 227,-633 227,-633 267.01,-677.94 287.79,-701.28"/>
<polygon fill="#000000" fill-opacity="0.200000" stroke="#000000" stroke-width="2" stroke-opacity="0.200000" points="286.35,-702.83 291.91,-705.91 289.49,-700.03 286.35,-702.83"/>
</g>
</g>
</svg>
