<?xml version="1.0" encoding="UTF-8" standalone="no"?>
<!DOCTYPE svg PUBLIC "-//W3C//DTD SVG 1.1//EN"
 "http://www.w3.org/Graphics/SVG/1.1/DTD/svg11.dtd">
<!-- Generated by graphviz version 2.43.0 (0)
 -->
<!-- Title: dependency&#45;cruiser output Pages: 1 -->
<svg width="907pt" height="1030pt"
 viewBox="0.00 0.00 907.00 1030.00" xmlns="http://www.w3.org/2000/svg" xmlns:xlink="http://www.w3.org/1999/xlink">
<g id="graph0" class="graph" transform="scale(1 1) rotate(0) translate(4 1026)">
<title>dependency&#45;cruiser output</title>
<polygon fill="white" stroke="transparent" points="-4,4 -4,-1026 903,-1026 903,4 -4,4"/>
<g id="clust1" class="cluster">
<title>cluster_packages</title>
<path fill="#ffffff" stroke="black" stroke-width="2" d="M20,-8C20,-8 887,-8 887,-8 893,-8 899,-14 899,-20 899,-20 899,-1002 899,-1002 899,-1008 893,-1014 887,-1014 887,-1014 20,-1014 20,-1014 14,-1014 8,-1008 8,-1002 8,-1002 8,-20 8,-20 8,-14 14,-8 20,-8"/>
<text text-anchor="middle" x="453.5" y="-1002.8" font-family="Helvetica,sans-Serif" font-weight="bold" font-size="9.00">packages</text>
</g>
<g id="clust2" class="cluster">
<title>cluster_packages/cognitive&#45;theory&#45;of&#45;music</title>
<path fill="#ffffff" stroke="black" stroke-width="2" d="M754,-774C754,-774 879,-774 879,-774 885,-774 891,-780 891,-786 891,-786 891,-976 891,-976 891,-982 885,-988 879,-988 879,-988 754,-988 754,-988 748,-988 742,-982 742,-976 742,-976 742,-786 742,-786 742,-780 748,-774 754,-774"/>
<text text-anchor="middle" x="816.5" y="-976.8" font-family="Helvetica,sans-Serif" font-weight="bold" font-size="9.00">cognitive&#45;theory&#45;of&#45;music</text>
</g>
<g id="clust3" class="cluster">
<title>cluster_packages/cognitive&#45;theory&#45;of&#45;music/gttm</title>
<path fill="#ffffff" stroke="black" stroke-width="2" d="M785,-876C785,-876 847,-876 847,-876 853,-876 859,-882 859,-888 859,-888 859,-950 859,-950 859,-956 853,-962 847,-962 847,-962 785,-962 785,-962 779,-962 773,-956 773,-950 773,-950 773,-888 773,-888 773,-882 779,-876 785,-876"/>
<text text-anchor="middle" x="816" y="-950.8" font-family="Helvetica,sans-Serif" font-weight="bold" font-size="9.00">gttm</text>
</g>
<g id="clust4" class="cluster">
<title>cluster_packages/cognitive&#45;theory&#45;of&#45;music/gttm/dist</title>
<path fill="#ffffff" stroke="black" stroke-width="2" d="M793,-884C793,-884 839,-884 839,-884 845,-884 851,-890 851,-896 851,-896 851,-924 851,-924 851,-930 845,-936 839,-936 839,-936 793,-936 793,-936 787,-936 781,-930 781,-924 781,-924 781,-896 781,-896 781,-890 787,-884 793,-884"/>
<text text-anchor="middle" x="816" y="-924.8" font-family="Helvetica,sans-Serif" font-weight="bold" font-size="9.00">dist</text>
</g>
<g id="clust5" class="cluster">
<title>cluster_packages/cognitive&#45;theory&#45;of&#45;music/irm</title>
<path fill="#ffffff" stroke="black" stroke-width="2" d="M785,-782C785,-782 847,-782 847,-782 853,-782 859,-788 859,-794 859,-794 859,-856 859,-856 859,-862 853,-868 847,-868 847,-868 785,-868 785,-868 779,-868 773,-862 773,-856 773,-856 773,-794 773,-794 773,-788 779,-782 785,-782"/>
<text text-anchor="middle" x="816" y="-856.8" font-family="Helvetica,sans-Serif" font-weight="bold" font-size="9.00">irm</text>
</g>
<g id="clust6" class="cluster">
<title>cluster_packages/cognitive&#45;theory&#45;of&#45;music/irm/dist</title>
<path fill="#ffffff" stroke="black" stroke-width="2" d="M793,-790C793,-790 839,-790 839,-790 845,-790 851,-796 851,-802 851,-802 851,-830 851,-830 851,-836 845,-842 839,-842 839,-842 793,-842 793,-842 787,-842 781,-836 781,-830 781,-830 781,-802 781,-802 781,-796 787,-790 793,-790"/>
<text text-anchor="middle" x="816" y="-830.8" font-family="Helvetica,sans-Serif" font-weight="bold" font-size="9.00">dist</text>
</g>
<g id="clust7" class="cluster">
<title>cluster_packages/data&#45;type</title>
<path fill="#ffffff" stroke="black" stroke-width="2" d="M502,-564C502,-564 580,-564 580,-564 586,-564 592,-570 592,-576 592,-576 592,-672 592,-672 592,-678 586,-684 580,-684 580,-684 502,-684 502,-684 496,-684 490,-678 490,-672 490,-672 490,-576 490,-576 490,-570 496,-564 502,-564"/>
<text text-anchor="middle" x="541" y="-672.8" font-family="Helvetica,sans-Serif" font-weight="bold" font-size="9.00">data&#45;type</text>
</g>
<g id="clust8" class="cluster">
<title>cluster_packages/data&#45;type/music&#45;xml</title>
<path fill="#ffffff" stroke="black" stroke-width="2" d="M510,-572C510,-572 572,-572 572,-572 578,-572 584,-578 584,-584 584,-584 584,-646 584,-646 584,-652 578,-658 572,-658 572,-658 510,-658 510,-658 504,-658 498,-652 498,-646 498,-646 498,-584 498,-584 498,-578 504,-572 510,-572"/>
<text text-anchor="middle" x="541" y="-646.8" font-family="Helvetica,sans-Serif" font-weight="bold" font-size="9.00">music&#45;xml</text>
</g>
<g id="clust9" class="cluster">
<title>cluster_packages/data&#45;type/music&#45;xml/dist</title>
<path fill="#ffffff" stroke="black" stroke-width="2" d="M518,-580C518,-580 564,-580 564,-580 570,-580 576,-586 576,-592 576,-592 576,-620 576,-620 576,-626 570,-632 564,-632 564,-632 518,-632 518,-632 512,-632 506,-626 506,-620 506,-620 506,-592 506,-592 506,-586 512,-580 518,-580"/>
<text text-anchor="middle" x="541" y="-620.8" font-family="Helvetica,sans-Serif" font-weight="bold" font-size="9.00">dist</text>
</g>
<g id="clust10" class="cluster">
<title>cluster_packages/music&#45;structure</title>
<path fill="#ffffff" stroke="black" stroke-width="2" d="M28,-110C28,-110 865,-110 865,-110 871,-110 877,-116 877,-122 877,-122 877,-532 877,-532 877,-538 871,-544 865,-544 865,-544 28,-544 28,-544 22,-544 16,-538 16,-532 16,-532 16,-122 16,-122 16,-116 22,-110 28,-110"/>
<text text-anchor="middle" x="446.5" y="-532.8" font-family="Helvetica,sans-Serif" font-weight="bold" font-size="9.00">music&#45;structure</text>
</g>
<g id="clust11" class="cluster">
<title>cluster_packages/music&#45;structure/chord</title>
<path fill="#ffffff" stroke="black" stroke-width="2" d="M501,-398C501,-398 582,-398 582,-398 588,-398 594,-404 594,-410 594,-410 594,-506 594,-506 594,-512 588,-518 582,-518 582,-518 501,-518 501,-518 495,-518 489,-512 489,-506 489,-506 489,-410 489,-410 489,-404 495,-398 501,-398"/>
<text text-anchor="middle" x="541.5" y="-506.8" font-family="Helvetica,sans-Serif" font-weight="bold" font-size="9.00">chord</text>
</g>
<g id="clust12" class="cluster">
<title>cluster_packages/music&#45;structure/chord/chord&#45;analyze</title>
<path fill="#ffffff" stroke="black" stroke-width="2" d="M509,-406C509,-406 574,-406 574,-406 580,-406 586,-412 586,-418 586,-418 586,-480 586,-480 586,-486 580,-492 574,-492 574,-492 509,-492 509,-492 503,-492 497,-486 497,-480 497,-480 497,-418 497,-418 497,-412 503,-406 509,-406"/>
<text text-anchor="middle" x="541.5" y="-480.8" font-family="Helvetica,sans-Serif" font-weight="bold" font-size="9.00">chord&#45;analyze</text>
</g>
<g id="clust13" class="cluster">
<title>cluster_packages/music&#45;structure/chord/chord&#45;analyze/dist</title>
<path fill="#ffffff" stroke="black" stroke-width="2" d="M518,-414C518,-414 564,-414 564,-414 570,-414 576,-420 576,-426 576,-426 576,-454 576,-454 576,-460 570,-466 564,-466 564,-466 518,-466 518,-466 512,-466 506,-460 506,-454 506,-454 506,-426 506,-426 506,-420 512,-414 518,-414"/>
<text text-anchor="middle" x="541" y="-454.8" font-family="Helvetica,sans-Serif" font-weight="bold" font-size="9.00">dist</text>
</g>
<g id="clust14" class="cluster">
<title>cluster_packages/music&#45;structure/melody</title>
<path fill="#ffffff" stroke="black" stroke-width="2" d="M36,-118C36,-118 857,-118 857,-118 863,-118 869,-124 869,-130 869,-130 869,-378 869,-378 869,-384 863,-390 857,-390 857,-390 36,-390 36,-390 30,-390 24,-384 24,-378 24,-378 24,-130 24,-130 24,-124 30,-118 36,-118"/>
<text text-anchor="middle" x="446.5" y="-378.8" font-family="Helvetica,sans-Serif" font-weight="bold" font-size="9.00">melody</text>
</g>
<g id="clust15" class="cluster">
<title>cluster_packages/music&#45;structure/melody/melody&#45;analyze</title>
<path fill="#ffffff" stroke="black" stroke-width="2" d="M331.5,-126C331.5,-126 849,-126 849,-126 855,-126 861,-132 861,-138 861,-138 861,-258 861,-258 861,-264 855,-270 849,-270 849,-270 331.5,-270 331.5,-270 325.5,-270 319.5,-264 319.5,-258 319.5,-258 319.5,-138 319.5,-138 319.5,-132 325.5,-126 331.5,-126"/>
<text text-anchor="middle" x="590.25" y="-258.8" font-family="Helvetica,sans-Serif" font-weight="bold" font-size="9.00">melody&#45;analyze</text>
</g>
<g id="clust16" class="cluster">
<title>cluster_packages/music&#45;structure/melody/melody&#45;analyze/src</title>
<path fill="#ffffff" stroke="black" stroke-width="2" d="M339.5,-134C339.5,-134 841,-134 841,-134 847,-134 853,-140 853,-146 853,-146 853,-232 853,-232 853,-238 847,-244 841,-244 841,-244 339.5,-244 339.5,-244 333.5,-244 327.5,-238 327.5,-232 327.5,-232 327.5,-146 327.5,-146 327.5,-140 333.5,-134 339.5,-134"/>
<text text-anchor="middle" x="590.25" y="-232.8" font-family="Helvetica,sans-Serif" font-weight="bold" font-size="9.00">src</text>
</g>
<g id="clust17" class="cluster">
<title>cluster_packages/music&#45;structure/melody/melody&#45;hierarchical&#45;analysis</title>
<path fill="#ffffff" stroke="black" stroke-width="2" d="M44,-278C44,-278 448,-278 448,-278 454,-278 460,-284 460,-290 460,-290 460,-352 460,-352 460,-358 454,-364 448,-364 448,-364 44,-364 44,-364 38,-364 32,-358 32,-352 32,-352 32,-290 32,-290 32,-284 38,-278 44,-278"/>
<text text-anchor="middle" x="246" y="-352.8" font-family="Helvetica,sans-Serif" font-weight="bold" font-size="9.00">melody&#45;hierarchical&#45;analysis</text>
</g>
<g id="clust18" class="cluster">
<title>cluster_packages/music&#45;structure/melody/melody&#45;hierarchical&#45;analysis/src</title>
<path fill="#ffffff" stroke="black" stroke-width="2" d="M114,-286C114,-286 440,-286 440,-286 446,-286 452,-292 452,-298 452,-298 452,-326 452,-326 452,-332 446,-338 440,-338 440,-338 114,-338 114,-338 108,-338 102,-332 102,-326 102,-326 102,-298 102,-298 102,-292 108,-286 114,-286"/>
<text text-anchor="middle" x="277" y="-326.8" font-family="Helvetica,sans-Serif" font-weight="bold" font-size="9.00">src</text>
</g>
<g id="clust19" class="cluster">
<title>cluster_packages/tonal&#45;objects</title>
<path fill="#ffffff" stroke="black" stroke-width="2" d="M785,-16C785,-16 847,-16 847,-16 853,-16 859,-22 859,-28 859,-28 859,-90 859,-90 859,-96 853,-102 847,-102 847,-102 785,-102 785,-102 779,-102 773,-96 773,-90 773,-90 773,-28 773,-28 773,-22 779,-16 785,-16"/>
<text text-anchor="middle" x="816" y="-90.8" font-family="Helvetica,sans-Serif" font-weight="bold" font-size="9.00">tonal&#45;objects</text>
</g>
<g id="clust20" class="cluster">
<title>cluster_packages/tonal&#45;objects/dist</title>
<path fill="#ffffff" stroke="black" stroke-width="2" d="M793,-24C793,-24 839,-24 839,-24 845,-24 851,-30 851,-36 851,-36 851,-64 851,-64 851,-70 845,-76 839,-76 839,-76 793,-76 793,-76 787,-76 781,-70 781,-64 781,-64 781,-36 781,-36 781,-30 787,-24 793,-24"/>
<text text-anchor="middle" x="816" y="-64.8" font-family="Helvetica,sans-Serif" font-weight="bold" font-size="9.00">dist</text>
</g>
<g id="clust21" class="cluster">
<title>cluster_packages/util</title>
<path fill="#ffffff" stroke="black" stroke-width="2" d="M777,-552C777,-552 855,-552 855,-552 861,-552 867,-558 867,-564 867,-564 867,-754 867,-754 867,-760 861,-766 855,-766 855,-766 777,-766 777,-766 771,-766 765,-760 765,-754 765,-754 765,-564 765,-564 765,-558 771,-552 777,-552"/>
<text text-anchor="middle" x="816" y="-754.8" font-family="Helvetica,sans-Serif" font-weight="bold" font-size="9.00">util</text>
</g>
<g id="clust22" class="cluster">
<title>cluster_packages/util/math</title>
<path fill="#ffffff" stroke="black" stroke-width="2" d="M785,-560C785,-560 847,-560 847,-560 853,-560 859,-566 859,-572 859,-572 859,-634 859,-634 859,-640 853,-646 847,-646 847,-646 785,-646 785,-646 779,-646 773,-640 773,-634 773,-634 773,-572 773,-572 773,-566 779,-560 785,-560"/>
<text text-anchor="middle" x="816" y="-634.8" font-family="Helvetica,sans-Serif" font-weight="bold" font-size="9.00">math</text>
</g>
<g id="clust23" class="cluster">
<title>cluster_packages/util/math/dist</title>
<path fill="#ffffff" stroke="black" stroke-width="2" d="M793,-568C793,-568 839,-568 839,-568 845,-568 851,-574 851,-580 851,-580 851,-608 851,-608 851,-614 845,-620 839,-620 839,-620 793,-620 793,-620 787,-620 781,-614 781,-608 781,-608 781,-580 781,-580 781,-574 787,-568 793,-568"/>
<text text-anchor="middle" x="816" y="-608.8" font-family="Helvetica,sans-Serif" font-weight="bold" font-size="9.00">dist</text>
</g>
<g id="clust24" class="cluster">
<title>cluster_packages/util/time&#45;and</title>
<path fill="#ffffff" stroke="black" stroke-width="2" d="M785,-654C785,-654 847,-654 847,-654 853,-654 859,-660 859,-666 859,-666 859,-728 859,-728 859,-734 853,-740 847,-740 847,-740 785,-740 785,-740 779,-740 773,-734 773,-728 773,-728 773,-666 773,-666 773,-660 779,-654 785,-654"/>
<text text-anchor="middle" x="816" y="-728.8" font-family="Helvetica,sans-Serif" font-weight="bold" font-size="9.00">time&#45;and</text>
</g>
<g id="clust25" class="cluster">
<title>cluster_packages/util/time&#45;and/dist</title>
<path fill="#ffffff" stroke="black" stroke-width="2" d="M793,-662C793,-662 839,-662 839,-662 845,-662 851,-668 851,-674 851,-674 851,-702 851,-702 851,-708 845,-714 839,-714 839,-714 793,-714 793,-714 787,-714 781,-708 781,-702 781,-702 781,-674 781,-674 781,-668 787,-662 793,-662"/>
<text text-anchor="middle" x="816" y="-702.8" font-family="Helvetica,sans-Serif" font-weight="bold" font-size="9.00">dist</text>
</g>
<!-- packages/cognitive&#45;theory&#45;of&#45;music/gttm/dist/index.js -->
<g id="node1" class="node">
<title>packages/cognitive&#45;theory&#45;of&#45;music/gttm/dist/index.js</title>
<g id="a_node1"><a xlink:href="packages/cognitive-theory-of-music/gttm/dist/index.js" xlink:title="index.js">
<polygon fill="#ffffcc" stroke="black" points="843,-910 841.5,-912 831,-912 829.5,-910 789,-910 789,-892 843,-892 843,-910"/>
<text text-anchor="start" x="798.5" y="-898.8" font-family="Helvetica,sans-Serif" font-size="9.00">index.js</text>
</a>
</g>
</g>
<!-- packages/cognitive&#45;theory&#45;of&#45;music/irm/dist/index.js -->
<g id="node2" class="node">
<title>packages/cognitive&#45;theory&#45;of&#45;music/irm/dist/index.js</title>
<g id="a_node2"><a xlink:href="packages/cognitive-theory-of-music/irm/dist/index.js" xlink:title="index.js">
<polygon fill="#ffffcc" stroke="black" points="843,-816 841.5,-818 831,-818 829.5,-816 789,-816 789,-798 843,-798 843,-816"/>
<text text-anchor="start" x="798.5" y="-804.8" font-family="Helvetica,sans-Serif" font-size="9.00">index.js</text>
</a>
</g>
</g>
<!-- packages/data&#45;type/music&#45;xml/dist/index.js -->
<g id="node3" class="node">
<title>packages/data&#45;type/music&#45;xml/dist/index.js</title>
<g id="a_node3"><a xlink:href="packages/data-type/music-xml/dist/index.js" xlink:title="index.js">
<polygon fill="#ffffcc" stroke="black" points="568,-606 566.5,-608 556,-608 554.5,-606 514,-606 514,-588 568,-588 568,-606"/>
<text text-anchor="start" x="523.5" y="-594.8" font-family="Helvetica,sans-Serif" font-size="9.00">index.js</text>
</a>
</g>
</g>
<!-- packages/music&#45;structure/chord/chord&#45;analyze/dist/index.js -->
<g id="node4" class="node">
<title>packages/music&#45;structure/chord/chord&#45;analyze/dist/index.js</title>
<g id="a_node4"><a xlink:href="packages/music-structure/chord/chord-analyze/dist/index.js" xlink:title="index.js">
<polygon fill="#ffffcc" stroke="black" points="568,-440 566.5,-442 556,-442 554.5,-440 514,-440 514,-422 568,-422 568,-440"/>
<text text-anchor="start" x="523.5" y="-428.8" font-family="Helvetica,sans-Serif" font-size="9.00">index.js</text>
</a>
</g>
</g>
<!-- packages/music&#45;structure/melody/melody&#45;analyze/src/analyze&#45;melody.ts -->
<g id="node5" class="node">
<title>packages/music&#45;structure/melody/melody&#45;analyze/src/analyze&#45;melody.ts</title>
<g id="a_node5"><a xlink:href="packages/music-structure/melody/melody-analyze/src/analyze-melody.ts" xlink:title="analyze&#45;melody.ts">
<path fill="#ddfeff" stroke="black" d="M425.5,-218C425.5,-218 341.5,-218 341.5,-218 338.5,-218 335.5,-215 335.5,-212 335.5,-212 335.5,-206 335.5,-206 335.5,-203 338.5,-200 341.5,-200 341.5,-200 425.5,-200 425.5,-200 428.5,-200 431.5,-203 431.5,-206 431.5,-206 431.5,-212 431.5,-212 431.5,-215 428.5,-218 425.5,-218"/>
<text text-anchor="start" x="343.5" y="-206.8" font-family="Helvetica,sans-Serif" font-size="9.00">analyze&#45;melody.ts</text>
</a>
</g>
</g>
<!-- packages/music&#45;structure/melody/melody&#45;analyze/src/analyze&#45;melody.ts&#45;&gt;packages/cognitive&#45;theory&#45;of&#45;music/irm/dist/index.js -->
<g id="edge6" class="edge">
<title>packages/music&#45;structure/melody/melody&#45;analyze/src/analyze&#45;melody.ts&#45;&gt;packages/cognitive&#45;theory&#45;of&#45;music/irm/dist/index.js</title>
<path fill="none" stroke="#000000" stroke-width="2" stroke-opacity="0.200000" d="M390.29,-218.39C439.82,-286.88 745.13,-709.01 805.6,-792.62"/>
<polygon fill="#000000" fill-opacity="0.200000" stroke="#000000" stroke-width="2" stroke-opacity="0.200000" points="804,-794 809.22,-797.63 807.41,-791.54 804,-794"/>
</g>
<!-- packages/music&#45;structure/melody/melody&#45;analyze/src/analyze&#45;melody.ts&#45;&gt;packages/music&#45;structure/chord/chord&#45;analyze/dist/index.js -->
<g id="edge5" class="edge">
<title>packages/music&#45;structure/melody/melody&#45;analyze/src/analyze&#45;melody.ts&#45;&gt;packages/music&#45;structure/chord/chord&#45;analyze/dist/index.js</title>
<path fill="none" stroke="#000000" stroke-width="2" stroke-opacity="0.200000" d="M390.98,-218.26C415.24,-252.88 500.72,-374.93 530.04,-416.79"/>
<polygon fill="#000000" fill-opacity="0.200000" stroke="#000000" stroke-width="2" stroke-opacity="0.200000" points="528.33,-417.99 533.49,-421.7 531.77,-415.58 528.33,-417.99"/>
</g>
<!-- packages/music&#45;structure/melody/melody&#45;analyze/src/melody&#45;analysis.ts -->
<g id="node6" class="node">
<title>packages/music&#45;structure/melody/melody&#45;analyze/src/melody&#45;analysis.ts</title>
<g id="a_node6"><a xlink:href="packages/music-structure/melody/melody-analyze/src/melody-analysis.ts" xlink:title="melody&#45;analysis.ts">
<path fill="#ddfeff" stroke="black" d="M720,-193C720,-193 633,-193 633,-193 630,-193 627,-190 627,-187 627,-187 627,-181 627,-181 627,-178 630,-175 633,-175 633,-175 720,-175 720,-175 723,-175 726,-178 726,-181 726,-181 726,-187 726,-187 726,-190 723,-193 720,-193"/>
<text text-anchor="start" x="635" y="-181.8" font-family="Helvetica,sans-Serif" font-size="9.00">melody&#45;analysis.ts</text>
</a>
</g>
</g>
<!-- packages/music&#45;structure/melody/melody&#45;analyze/src/analyze&#45;melody.ts&#45;&gt;packages/music&#45;structure/melody/melody&#45;analyze/src/melody&#45;analysis.ts -->
<g id="edge1" class="edge">
<title>packages/music&#45;structure/melody/melody&#45;analyze/src/analyze&#45;melody.ts&#45;&gt;packages/music&#45;structure/melody/melody&#45;analyze/src/melody&#45;analysis.ts</title>
<path fill="none" stroke="#000000" stroke-width="2" stroke-opacity="0.200000" d="M431.55,-204.9C483.45,-200.47 566.04,-193.43 620.75,-188.76"/>
<polygon fill="#000000" fill-opacity="0.200000" stroke="#000000" stroke-width="2" stroke-opacity="0.200000" points="621.15,-190.83 626.95,-188.23 620.79,-186.65 621.15,-190.83"/>
</g>
<!-- packages/music&#45;structure/melody/melody&#45;analyze/src/register&#45;gravity.ts -->
<g id="node7" class="node">
<title>packages/music&#45;structure/melody/melody&#45;analyze/src/register&#45;gravity.ts</title>
<g id="a_node7"><a xlink:href="packages/music-structure/melody/melody-analyze/src/register-gravity.ts" xlink:title="register&#45;gravity.ts">
<path fill="#ddfeff" stroke="black" d="M718,-161C718,-161 635,-161 635,-161 632,-161 629,-158 629,-155 629,-155 629,-149 629,-149 629,-146 632,-143 635,-143 635,-143 718,-143 718,-143 721,-143 724,-146 724,-149 724,-149 724,-155 724,-155 724,-158 721,-161 718,-161"/>
<text text-anchor="start" x="637" y="-149.8" font-family="Helvetica,sans-Serif" font-size="9.00">register&#45;gravity.ts</text>
</a>
</g>
</g>
<!-- packages/music&#45;structure/melody/melody&#45;analyze/src/analyze&#45;melody.ts&#45;&gt;packages/music&#45;structure/melody/melody&#45;analyze/src/register&#45;gravity.ts -->
<g id="edge2" class="edge">
<title>packages/music&#45;structure/melody/melody&#45;analyze/src/analyze&#45;melody.ts&#45;&gt;packages/music&#45;structure/melody/melody&#45;analyze/src/register&#45;gravity.ts</title>
<path fill="none" stroke="#000000" stroke-width="2" stroke-opacity="0.200000" d="M429.93,-199.97C482.71,-189.7 568.68,-172.98 623.9,-162.23"/>
<polygon fill="#000000" fill-opacity="0.200000" stroke="#000000" stroke-width="2" stroke-opacity="0.200000" points="624.32,-164.29 629.81,-161.08 623.52,-160.17 624.32,-164.29"/>
</g>
<!-- packages/music&#45;structure/melody/melody&#45;analyze/src/time&#45;and&#45;analyzed&#45;melody.ts -->
<g id="node8" class="node">
<title>packages/music&#45;structure/melody/melody&#45;analyze/src/time&#45;and&#45;analyzed&#45;melody.ts</title>
<g id="a_node8"><a xlink:href="packages/music-structure/melody/melody-analyze/src/time-and-analyzed-melody.ts" xlink:title="time&#45;and&#45;analyzed&#45;melody.ts">
<path fill="#ddfeff" stroke="black" d="M608,-174C608,-174 474,-174 474,-174 471,-174 468,-171 468,-168 468,-168 468,-162 468,-162 468,-159 471,-156 474,-156 474,-156 608,-156 608,-156 611,-156 614,-159 614,-162 614,-162 614,-168 614,-168 614,-171 611,-174 608,-174"/>
<text text-anchor="start" x="476" y="-162.8" font-family="Helvetica,sans-Serif" font-size="9.00">time&#45;and&#45;analyzed&#45;melody.ts</text>
</a>
</g>
</g>
<!-- packages/music&#45;structure/melody/melody&#45;analyze/src/analyze&#45;melody.ts&#45;&gt;packages/music&#45;structure/melody/melody&#45;analyze/src/time&#45;and&#45;analyzed&#45;melody.ts -->
<g id="edge3" class="edge">
<title>packages/music&#45;structure/melody/melody&#45;analyze/src/analyze&#45;melody.ts&#45;&gt;packages/music&#45;structure/melody/melody&#45;analyze/src/time&#45;and&#45;analyzed&#45;melody.ts</title>
<path fill="none" stroke="#000000" stroke-width="2" stroke-opacity="0.200000" d="M416.34,-199.99C441.21,-192.95 475.83,-183.16 502.12,-175.72"/>
<polygon fill="#000000" fill-opacity="0.200000" stroke="#000000" stroke-width="2" stroke-opacity="0.200000" points="502.73,-177.73 507.93,-174.07 501.59,-173.69 502.73,-177.73"/>
</g>
<!-- packages/music&#45;structure/melody/melody&#45;analyze/src/time&#45;and&#45;melody.ts -->
<g id="node9" class="node">
<title>packages/music&#45;structure/melody/melody&#45;analyze/src/time&#45;and&#45;melody.ts</title>
<g id="a_node9"><a xlink:href="packages/music-structure/melody/melody-analyze/src/time-and-melody.ts" xlink:title="time&#45;and&#45;melody.ts">
<path fill="#ddfeff" stroke="black" d="M586.5,-218C586.5,-218 495.5,-218 495.5,-218 492.5,-218 489.5,-215 489.5,-212 489.5,-212 489.5,-206 489.5,-206 489.5,-203 492.5,-200 495.5,-200 495.5,-200 586.5,-200 586.5,-200 589.5,-200 592.5,-203 592.5,-206 592.5,-206 592.5,-212 592.5,-212 592.5,-215 589.5,-218 586.5,-218"/>
<text text-anchor="start" x="497.5" y="-206.8" font-family="Helvetica,sans-Serif" font-size="9.00">time&#45;and&#45;melody.ts</text>
</a>
</g>
</g>
<!-- packages/music&#45;structure/melody/melody&#45;analyze/src/analyze&#45;melody.ts&#45;&gt;packages/music&#45;structure/melody/melody&#45;analyze/src/time&#45;and&#45;melody.ts -->
<g id="edge4" class="edge">
<title>packages/music&#45;structure/melody/melody&#45;analyze/src/analyze&#45;melody.ts&#45;&gt;packages/music&#45;structure/melody/melody&#45;analyze/src/time&#45;and&#45;melody.ts</title>
<path fill="none" stroke="#000000" stroke-width="2" stroke-opacity="0.200000" d="M431.58,-209C447.82,-209 466.19,-209 483.13,-209"/>
<polygon fill="#000000" fill-opacity="0.200000" stroke="#000000" stroke-width="2" stroke-opacity="0.200000" points="483.3,-211.1 489.3,-209 483.3,-206.9 483.3,-211.1"/>
</g>
<!-- packages/tonal&#45;objects/dist/index.js -->
<g id="node10" class="node">
<title>packages/tonal&#45;objects/dist/index.js</title>
<g id="a_node10"><a xlink:href="packages/tonal-objects/dist/index.js" xlink:title="index.js">
<polygon fill="#ffffcc" stroke="black" points="843,-50 841.5,-52 831,-52 829.5,-50 789,-50 789,-32 843,-32 843,-50"/>
<text text-anchor="start" x="798.5" y="-38.8" font-family="Helvetica,sans-Serif" font-size="9.00">index.js</text>
</a>
</g>
</g>
<!-- packages/music&#45;structure/melody/melody&#45;analyze/src/analyze&#45;melody.ts&#45;&gt;packages/tonal&#45;objects/dist/index.js -->
<g id="edge7" class="edge">
<title>packages/music&#45;structure/melody/melody&#45;analyze/src/analyze&#45;melody.ts&#45;&gt;packages/tonal&#45;objects/dist/index.js</title>
<path fill="none" stroke="#000000" stroke-width="2" stroke-opacity="0.200000" d="M406.75,-199.97C479.94,-171.54 705.52,-83.92 786.59,-52.42"/>
<polygon fill="#000000" fill-opacity="0.200000" stroke="#000000" stroke-width="2" stroke-opacity="0.200000" points="787.8,-54.21 792.63,-50.08 786.28,-50.29 787.8,-54.21"/>
</g>
<!-- packages/music&#45;structure/melody/melody&#45;analyze/src/melody&#45;analysis.ts&#45;&gt;packages/cognitive&#45;theory&#45;of&#45;music/irm/dist/index.js -->
<g id="edge9" class="edge">
<title>packages/music&#45;structure/melody/melody&#45;analyze/src/melody&#45;analysis.ts&#45;&gt;packages/cognitive&#45;theory&#45;of&#45;music/irm/dist/index.js</title>
<path fill="none" stroke="#000000" stroke-width="2" stroke-opacity="0.200000" d="M679.55,-193.29C694.93,-262.99 792.21,-703.73 811.63,-791.72"/>
<polygon fill="#000000" fill-opacity="0.200000" stroke="#000000" stroke-width="2" stroke-opacity="0.200000" points="809.59,-792.25 812.94,-797.66 813.7,-791.34 809.59,-792.25"/>
</g>
<!-- packages/music&#45;structure/melody/melody&#45;analyze/src/gravity.ts -->
<g id="node11" class="node">
<title>packages/music&#45;structure/melody/melody&#45;analyze/src/gravity.ts</title>
<g id="a_node11"><a xlink:href="packages/music-structure/melody/melody-analyze/src/gravity.ts" xlink:title="gravity.ts">
<path fill="#ddfeff" stroke="black" d="M839,-161C839,-161 793,-161 793,-161 790,-161 787,-158 787,-155 787,-155 787,-149 787,-149 787,-146 790,-143 793,-143 793,-143 839,-143 839,-143 842,-143 845,-146 845,-149 845,-149 845,-155 845,-155 845,-158 842,-161 839,-161"/>
<text text-anchor="start" x="795" y="-149.8" font-family="Helvetica,sans-Serif" font-size="9.00">gravity.ts</text>
</a>
</g>
</g>
<!-- packages/music&#45;structure/melody/melody&#45;analyze/src/melody&#45;analysis.ts&#45;&gt;packages/music&#45;structure/melody/melody&#45;analyze/src/gravity.ts -->
<g id="edge8" class="edge">
<title>packages/music&#45;structure/melody/melody&#45;analyze/src/melody&#45;analysis.ts&#45;&gt;packages/music&#45;structure/melody/melody&#45;analyze/src/gravity.ts</title>
<path fill="none" stroke="#000000" stroke-width="2" stroke-opacity="0.200000" d="M716.53,-174.92C736.82,-170.19 761.39,-164.48 780.91,-159.93"/>
<polygon fill="#000000" fill-opacity="0.200000" stroke="#000000" stroke-width="2" stroke-opacity="0.200000" points="781.43,-161.97 786.8,-158.56 780.48,-157.88 781.43,-161.97"/>
</g>
<!-- packages/music&#45;structure/melody/melody&#45;analyze/src/register&#45;gravity.ts&#45;&gt;packages/tonal&#45;objects/dist/index.js -->
<g id="edge12" class="edge">
<title>packages/music&#45;structure/melody/melody&#45;analyze/src/register&#45;gravity.ts&#45;&gt;packages/tonal&#45;objects/dist/index.js</title>
<path fill="none" stroke="#000000" stroke-width="2" stroke-opacity="0.200000" d="M688.75,-142.92C713.03,-123.32 770.39,-77.01 798.67,-54.19"/>
<polygon fill="#000000" fill-opacity="0.200000" stroke="#000000" stroke-width="2" stroke-opacity="0.200000" points="800.24,-55.61 803.59,-50.21 797.6,-52.34 800.24,-55.61"/>
</g>
<!-- packages/music&#45;structure/melody/melody&#45;analyze/src/register&#45;gravity.ts&#45;&gt;packages/music&#45;structure/melody/melody&#45;analyze/src/gravity.ts -->
<g id="edge10" class="edge">
<title>packages/music&#45;structure/melody/melody&#45;analyze/src/register&#45;gravity.ts&#45;&gt;packages/music&#45;structure/melody/melody&#45;analyze/src/gravity.ts</title>
<path fill="none" stroke="#000000" stroke-width="2" stroke-opacity="0.200000" d="M724.05,-152C742.65,-152 763.67,-152 780.82,-152"/>
<polygon fill="#000000" fill-opacity="0.200000" stroke="#000000" stroke-width="2" stroke-opacity="0.200000" points="780.95,-154.1 786.95,-152 780.95,-149.9 780.95,-154.1"/>
</g>
<!-- packages/util/math/dist/index.js -->
<g id="node12" class="node">
<title>packages/util/math/dist/index.js</title>
<g id="a_node12"><a xlink:href="packages/util/math/dist/index.js" xlink:title="index.js">
<polygon fill="#ffffcc" stroke="black" points="843,-594 841.5,-596 831,-596 829.5,-594 789,-594 789,-576 843,-576 843,-594"/>
<text text-anchor="start" x="798.5" y="-582.8" font-family="Helvetica,sans-Serif" font-size="9.00">index.js</text>
</a>
</g>
</g>
<!-- packages/music&#45;structure/melody/melody&#45;analyze/src/register&#45;gravity.ts&#45;&gt;packages/util/math/dist/index.js -->
<g id="edge11" class="edge">
<title>packages/music&#45;structure/melody/melody&#45;analyze/src/register&#45;gravity.ts&#45;&gt;packages/util/math/dist/index.js</title>
<path fill="none" stroke="#000000" stroke-width="2" stroke-opacity="0.200000" d="M680.37,-161.04C697.67,-215.52 787.98,-499.91 810.1,-569.58"/>
<polygon fill="#000000" fill-opacity="0.200000" stroke="#000000" stroke-width="2" stroke-opacity="0.200000" points="808.21,-570.56 812.03,-575.64 812.21,-569.28 808.21,-570.56"/>
</g>
<!-- packages/music&#45;structure/melody/melody&#45;analyze/src/time&#45;and&#45;analyzed&#45;melody.ts&#45;&gt;packages/music&#45;structure/melody/melody&#45;analyze/src/melody&#45;analysis.ts -->
<g id="edge13" class="edge">
<title>packages/music&#45;structure/melody/melody&#45;analyze/src/time&#45;and&#45;analyzed&#45;melody.ts&#45;&gt;packages/music&#45;structure/melody/melody&#45;analyze/src/melody&#45;analysis.ts</title>
<path fill="none" stroke="#000000" stroke-width="2" stroke-opacity="0.200000" d="M605.62,-174.05C610.63,-174.77 615.66,-175.48 620.6,-176.19"/>
<polygon fill="#000000" fill-opacity="0.200000" stroke="#000000" stroke-width="2" stroke-opacity="0.200000" points="620.56,-178.3 626.8,-177.07 621.15,-174.14 620.56,-178.3"/>
</g>
<!-- packages/util/time&#45;and/dist/index.js -->
<g id="node13" class="node">
<title>packages/util/time&#45;and/dist/index.js</title>
<g id="a_node13"><a xlink:href="packages/util/time-and/dist/index.js" xlink:title="index.js">
<polygon fill="#ffffcc" stroke="black" points="843,-688 841.5,-690 831,-690 829.5,-688 789,-688 789,-670 843,-670 843,-688"/>
<text text-anchor="start" x="798.5" y="-676.8" font-family="Helvetica,sans-Serif" font-size="9.00">index.js</text>
</a>
</g>
</g>
<!-- packages/music&#45;structure/melody/melody&#45;analyze/src/time&#45;and&#45;analyzed&#45;melody.ts&#45;&gt;packages/util/time&#45;and/dist/index.js -->
<g id="edge14" class="edge">
<title>packages/music&#45;structure/melody/melody&#45;analyze/src/time&#45;and&#45;analyzed&#45;melody.ts&#45;&gt;packages/util/time&#45;and/dist/index.js</title>
<path fill="none" stroke="#000000" stroke-width="2" stroke-opacity="0.200000" d="M546.01,-174.36C579.21,-236.42 767.53,-588.4 808.24,-664.5"/>
<polygon fill="#000000" fill-opacity="0.200000" stroke="#000000" stroke-width="2" stroke-opacity="0.200000" points="806.43,-665.57 811.12,-669.87 810.14,-663.59 806.43,-665.57"/>
</g>
<!-- packages/music&#45;structure/melody/melody&#45;analyze/src/time&#45;and&#45;melody.ts&#45;&gt;packages/util/time&#45;and/dist/index.js -->
<g id="edge15" class="edge">
<title>packages/music&#45;structure/melody/melody&#45;analyze/src/time&#45;and&#45;melody.ts&#45;&gt;packages/util/time&#45;and/dist/index.js</title>
<path fill="none" stroke="#000000" stroke-width="2" stroke-opacity="0.200000" d="M546.49,-218.39C580.8,-277.03 765.58,-592.83 807.53,-664.52"/>
<polygon fill="#000000" fill-opacity="0.200000" stroke="#000000" stroke-width="2" stroke-opacity="0.200000" points="805.88,-665.86 810.72,-669.97 809.5,-663.73 805.88,-665.86"/>
</g>
<!-- packages/music&#45;structure/melody/melody&#45;hierarchical&#45;analysis/index.ts -->
<g id="node14" class="node">
<title>packages/music&#45;structure/melody/melody&#45;hierarchical&#45;analysis/index.ts</title>
<g id="a_node14"><a xlink:href="packages/music-structure/melody/melody-hierarchical-analysis/index.ts" xlink:title="index.ts">
<path fill="#ddfeff" stroke="black" d="M88,-312C88,-312 46,-312 46,-312 43,-312 40,-309 40,-306 40,-306 40,-300 40,-300 40,-297 43,-294 46,-294 46,-294 88,-294 88,-294 91,-294 94,-297 94,-300 94,-300 94,-306 94,-306 94,-309 91,-312 88,-312"/>
<text text-anchor="start" x="48.5" y="-300.8" font-family="Helvetica,sans-Serif" font-size="9.00">index.ts</text>
</a>
</g>
</g>
<!-- packages/music&#45;structure/melody/melody&#45;hierarchical&#45;analysis/src/index.ts -->
<g id="node15" class="node">
<title>packages/music&#45;structure/melody/melody&#45;hierarchical&#45;analysis/src/index.ts</title>
<g id="a_node15"><a xlink:href="packages/music-structure/melody/melody-hierarchical-analysis/src/index.ts" xlink:title="index.ts">
<path fill="#ddfeff" stroke="black" d="M158,-312C158,-312 116,-312 116,-312 113,-312 110,-309 110,-306 110,-306 110,-300 110,-300 110,-297 113,-294 116,-294 116,-294 158,-294 158,-294 161,-294 164,-297 164,-300 164,-300 164,-306 164,-306 164,-309 161,-312 158,-312"/>
<text text-anchor="start" x="118.5" y="-300.8" font-family="Helvetica,sans-Serif" font-size="9.00">index.ts</text>
</a>
</g>
</g>
<!-- packages/music&#45;structure/melody/melody&#45;hierarchical&#45;analysis/index.ts&#45;&gt;packages/music&#45;structure/melody/melody&#45;hierarchical&#45;analysis/src/index.ts -->
<g id="edge16" class="edge">
<title>packages/music&#45;structure/melody/melody&#45;hierarchical&#45;analysis/index.ts&#45;&gt;packages/music&#45;structure/melody/melody&#45;hierarchical&#45;analysis/src/index.ts</title>
<path fill="none" stroke="#000000" stroke-width="2" stroke-opacity="0.200000" d="M94.1,-303C97.12,-303 100.23,-303 103.33,-303"/>
<polygon fill="#000000" fill-opacity="0.200000" stroke="#000000" stroke-width="2" stroke-opacity="0.200000" points="109.64,-305.1 103.64,-303 109.64,-300.9 109.64,-305.1"/>
</g>
<!-- packages/music&#45;structure/melody/melody&#45;hierarchical&#45;analysis/src/get&#45;hierarchical&#45;melody.ts -->
<g id="node16" class="node">
<title>packages/music&#45;structure/melody/melody&#45;hierarchical&#45;analysis/src/get&#45;hierarchical&#45;melody.ts</title>
<g id="a_node16"><a xlink:href="packages/music-structure/melody/melody-hierarchical-analysis/src/get-hierarchical-melody.ts" xlink:title="get&#45;hierarchical&#45;melody.ts">
<path fill="#ddfeff" stroke="black" d="M304,-312C304,-312 183,-312 183,-312 180,-312 177,-309 177,-306 177,-306 177,-300 177,-300 177,-297 180,-294 183,-294 183,-294 304,-294 304,-294 307,-294 310,-297 310,-300 310,-300 310,-306 310,-306 310,-309 307,-312 304,-312"/>
<text text-anchor="start" x="185" y="-300.8" font-family="Helvetica,sans-Serif" font-size="9.00">get&#45;hierarchical&#45;melody.ts</text>
</a>
</g>
</g>
<!-- packages/music&#45;structure/melody/melody&#45;hierarchical&#45;analysis/src/index.ts&#45;&gt;packages/music&#45;structure/melody/melody&#45;hierarchical&#45;analysis/src/get&#45;hierarchical&#45;melody.ts -->
<g id="edge29" class="edge">
<title>packages/music&#45;structure/melody/melody&#45;hierarchical&#45;analysis/src/index.ts&#45;&gt;packages/music&#45;structure/melody/melody&#45;hierarchical&#45;analysis/src/get&#45;hierarchical&#45;melody.ts</title>
<path fill="none" stroke="#000000" stroke-width="2" stroke-opacity="0.200000" d="M164.1,-303C166.22,-303 168.42,-303 170.67,-303"/>
<polygon fill="#000000" fill-opacity="0.200000" stroke="#000000" stroke-width="2" stroke-opacity="0.200000" points="176.76,-305.1 170.76,-303 176.76,-300.9 176.76,-305.1"/>
</g>
<!-- packages/music&#45;structure/melody/melody&#45;hierarchical&#45;analysis/src/get&#45;hierarchical&#45;melody.ts&#45;&gt;packages/cognitive&#45;theory&#45;of&#45;music/gttm/dist/index.js -->
<g id="edge19" class="edge">
<title>packages/music&#45;structure/melody/melody&#45;hierarchical&#45;analysis/src/get&#45;hierarchical&#45;melody.ts&#45;&gt;packages/cognitive&#45;theory&#45;of&#45;music/gttm/dist/index.js</title>
<path fill="none" stroke="#000000" stroke-width="2" stroke-opacity="0.200000" d="M252.49,-312.39C318.19,-381.01 723.8,-804.69 802.71,-887.11"/>
<polygon fill="#000000" fill-opacity="0.200000" stroke="#000000" stroke-width="2" stroke-opacity="0.200000" points="801.36,-888.75 807.03,-891.63 804.39,-885.84 801.36,-888.75"/>
</g>
<!-- packages/music&#45;structure/melody/melody&#45;hierarchical&#45;analysis/src/get&#45;hierarchical&#45;melody.ts&#45;&gt;packages/data&#45;type/music&#45;xml/dist/index.js -->
<g id="edge23" class="edge">
<title>packages/music&#45;structure/melody/melody&#45;hierarchical&#45;analysis/src/get&#45;hierarchical&#45;melody.ts&#45;&gt;packages/data&#45;type/music&#45;xml/dist/index.js</title>
<path fill="none" stroke="#000000" stroke-width="2" stroke-opacity="0.200000" d="M252.73,-312.12C295.67,-354.56 476.01,-532.77 527.32,-583.48"/>
<polygon fill="#000000" fill-opacity="0.200000" stroke="#000000" stroke-width="2" stroke-opacity="0.200000" points="526.13,-585.26 531.88,-587.99 529.09,-582.27 526.13,-585.26"/>
</g>
<!-- packages/music&#45;structure/melody/melody&#45;hierarchical&#45;analysis/src/get&#45;hierarchical&#45;melody.ts&#45;&gt;packages/music&#45;structure/chord/chord&#45;analyze/dist/index.js -->
<g id="edge18" class="edge">
<title>packages/music&#45;structure/melody/melody&#45;hierarchical&#45;analysis/src/get&#45;hierarchical&#45;melody.ts&#45;&gt;packages/music&#45;structure/chord/chord&#45;analyze/dist/index.js</title>
<path fill="none" stroke="#000000" stroke-width="2" stroke-opacity="0.200000" d="M264.42,-312C317.1,-334.67 455.21,-394.09 513.94,-419.36"/>
<polygon fill="#000000" fill-opacity="0.200000" stroke="#000000" stroke-width="2" stroke-opacity="0.200000" points="513.36,-421.4 519.71,-421.84 515.02,-417.54 513.36,-421.4"/>
</g>
<!-- packages/music&#45;structure/melody/melody&#45;hierarchical&#45;analysis/src/get&#45;hierarchical&#45;melody.ts&#45;&gt;packages/music&#45;structure/melody/melody&#45;analyze/src/analyze&#45;melody.ts -->
<g id="edge20" class="edge">
<title>packages/music&#45;structure/melody/melody&#45;hierarchical&#45;analysis/src/get&#45;hierarchical&#45;melody.ts&#45;&gt;packages/music&#45;structure/melody/melody&#45;analyze/src/analyze&#45;melody.ts</title>
<path fill="none" stroke="#000000" stroke-width="2" stroke-opacity="0.200000" d="M257.73,-293.99C282.5,-277.12 335.9,-240.74 364.14,-221.51"/>
<polygon fill="#000000" fill-opacity="0.200000" stroke="#000000" stroke-width="2" stroke-opacity="0.200000" points="365.33,-223.24 369.11,-218.12 362.96,-219.77 365.33,-223.24"/>
</g>
<!-- packages/music&#45;structure/melody/melody&#45;hierarchical&#45;analysis/src/get&#45;hierarchical&#45;melody.ts&#45;&gt;packages/music&#45;structure/melody/melody&#45;analyze/src/time&#45;and&#45;analyzed&#45;melody.ts -->
<g id="edge21" class="edge">
<title>packages/music&#45;structure/melody/melody&#45;hierarchical&#45;analysis/src/get&#45;hierarchical&#45;melody.ts&#45;&gt;packages/music&#45;structure/melody/melody&#45;analyze/src/time&#45;and&#45;analyzed&#45;melody.ts</title>
<path fill="none" stroke="#000000" stroke-width="2" stroke-opacity="0.200000" d="M263.02,-293.95C315.14,-269.77 457.53,-203.72 515.72,-176.73"/>
<polygon fill="#000000" fill-opacity="0.200000" stroke="#000000" stroke-width="2" stroke-opacity="0.200000" points="516.85,-178.52 521.41,-174.09 515.08,-174.71 516.85,-178.52"/>
</g>
<!-- packages/music&#45;structure/melody/melody&#45;hierarchical&#45;analysis/src/get&#45;hierarchical&#45;melody.ts&#45;&gt;packages/music&#45;structure/melody/melody&#45;analyze/src/time&#45;and&#45;melody.ts -->
<g id="edge22" class="edge">
<title>packages/music&#45;structure/melody/melody&#45;hierarchical&#45;analysis/src/get&#45;hierarchical&#45;melody.ts&#45;&gt;packages/music&#45;structure/melody/melody&#45;analyze/src/time&#45;and&#45;melody.ts</title>
<path fill="none" stroke="#000000" stroke-width="2" stroke-opacity="0.200000" d="M272.03,-293.99C326.86,-276.66 446.8,-238.76 506.22,-219.99"/>
<polygon fill="#000000" fill-opacity="0.200000" stroke="#000000" stroke-width="2" stroke-opacity="0.200000" points="507.04,-221.93 512.12,-218.12 505.77,-217.93 507.04,-221.93"/>
</g>
<!-- packages/music&#45;structure/melody/melody&#45;hierarchical&#45;analysis/src/get&#45;time&#45;and&#45;melody.ts -->
<g id="node17" class="node">
<title>packages/music&#45;structure/melody/melody&#45;hierarchical&#45;analysis/src/get&#45;time&#45;and&#45;melody.ts</title>
<g id="a_node17"><a xlink:href="packages/music-structure/melody/melody-hierarchical-analysis/src/get-time-and-melody.ts" xlink:title="get&#45;time&#45;and&#45;melody.ts">
<path fill="#ddfeff" stroke="black" d="M438,-312C438,-312 329,-312 329,-312 326,-312 323,-309 323,-306 323,-306 323,-300 323,-300 323,-297 326,-294 329,-294 329,-294 438,-294 438,-294 441,-294 444,-297 444,-300 444,-300 444,-306 444,-306 444,-309 441,-312 438,-312"/>
<text text-anchor="start" x="331" y="-300.8" font-family="Helvetica,sans-Serif" font-size="9.00">get&#45;time&#45;and&#45;melody.ts</text>
</a>
</g>
</g>
<!-- packages/music&#45;structure/melody/melody&#45;hierarchical&#45;analysis/src/get&#45;hierarchical&#45;melody.ts&#45;&gt;packages/music&#45;structure/melody/melody&#45;hierarchical&#45;analysis/src/get&#45;time&#45;and&#45;melody.ts -->
<g id="edge17" class="edge">
<title>packages/music&#45;structure/melody/melody&#45;hierarchical&#45;analysis/src/get&#45;hierarchical&#45;melody.ts&#45;&gt;packages/music&#45;structure/melody/melody&#45;hierarchical&#45;analysis/src/get&#45;time&#45;and&#45;melody.ts</title>
<path fill="none" stroke="#000000" stroke-width="2" stroke-opacity="0.200000" d="M310.27,-303C312.35,-303 314.44,-303 316.52,-303"/>
<polygon fill="#000000" fill-opacity="0.200000" stroke="#000000" stroke-width="2" stroke-opacity="0.200000" points="316.75,-305.1 322.75,-303 316.75,-300.9 316.75,-305.1"/>
</g>
<!-- packages/music&#45;structure/melody/melody&#45;hierarchical&#45;analysis/src/get&#45;time&#45;and&#45;melody.ts&#45;&gt;packages/cognitive&#45;theory&#45;of&#45;music/gttm/dist/index.js -->
<g id="edge24" class="edge">
<title>packages/music&#45;structure/melody/melody&#45;hierarchical&#45;analysis/src/get&#45;time&#45;and&#45;melody.ts&#45;&gt;packages/cognitive&#45;theory&#45;of&#45;music/gttm/dist/index.js</title>
<path fill="none" stroke="#000000" stroke-width="2" stroke-opacity="0.200000" d="M390.29,-312.39C439.82,-380.88 745.13,-803.01 805.6,-886.62"/>
<polygon fill="#000000" fill-opacity="0.200000" stroke="#000000" stroke-width="2" stroke-opacity="0.200000" points="804,-888 809.22,-891.63 807.41,-885.54 804,-888"/>
</g>
<!-- packages/music&#45;structure/melody/melody&#45;hierarchical&#45;analysis/src/get&#45;time&#45;and&#45;melody.ts&#45;&gt;packages/data&#45;type/music&#45;xml/dist/index.js -->
<g id="edge26" class="edge">
<title>packages/music&#45;structure/melody/melody&#45;hierarchical&#45;analysis/src/get&#45;time&#45;and&#45;melody.ts&#45;&gt;packages/data&#45;type/music&#45;xml/dist/index.js</title>
<path fill="none" stroke="#000000" stroke-width="2" stroke-opacity="0.200000" d="M389.32,-312.12C411.64,-354.3 504.89,-530.62 532.36,-582.55"/>
<polygon fill="#000000" fill-opacity="0.200000" stroke="#000000" stroke-width="2" stroke-opacity="0.200000" points="530.57,-583.66 535.23,-587.99 534.28,-581.7 530.57,-583.66"/>
</g>
<!-- packages/music&#45;structure/melody/melody&#45;hierarchical&#45;analysis/src/get&#45;time&#45;and&#45;melody.ts&#45;&gt;packages/music&#45;structure/melody/melody&#45;analyze/src/time&#45;and&#45;melody.ts -->
<g id="edge25" class="edge">
<title>packages/music&#45;structure/melody/melody&#45;hierarchical&#45;analysis/src/get&#45;time&#45;and&#45;melody.ts&#45;&gt;packages/music&#45;structure/melody/melody&#45;analyze/src/time&#45;and&#45;melody.ts</title>
<path fill="none" stroke="#000000" stroke-width="2" stroke-opacity="0.200000" d="M399.41,-293.99C427.44,-277.05 488,-240.44 519.7,-221.27"/>
<polygon fill="#000000" fill-opacity="0.200000" stroke="#000000" stroke-width="2" stroke-opacity="0.200000" points="520.86,-223.03 524.91,-218.12 518.69,-219.43 520.86,-223.03"/>
</g>
<!-- packages/music&#45;structure/melody/melody&#45;hierarchical&#45;analysis/src/get&#45;time&#45;and&#45;melody.ts&#45;&gt;packages/tonal&#45;objects/dist/index.js -->
<g id="edge28" class="edge">
<title>packages/music&#45;structure/melody/melody&#45;hierarchical&#45;analysis/src/get&#45;time&#45;and&#45;melody.ts&#45;&gt;packages/tonal&#45;objects/dist/index.js</title>
<path fill="none" stroke="#000000" stroke-width="2" stroke-opacity="0.200000" d="M398.39,-293.98C463.1,-254.78 720.04,-99.13 795.23,-53.58"/>
<polygon fill="#000000" fill-opacity="0.200000" stroke="#000000" stroke-width="2" stroke-opacity="0.200000" points="796.68,-55.16 800.73,-50.25 794.51,-51.56 796.68,-55.16"/>
</g>
<!-- packages/music&#45;structure/melody/melody&#45;hierarchical&#45;analysis/src/get&#45;time&#45;and&#45;melody.ts&#45;&gt;packages/util/time&#45;and/dist/index.js -->
<g id="edge27" class="edge">
<title>packages/music&#45;structure/melody/melody&#45;hierarchical&#45;analysis/src/get&#45;time&#45;and&#45;melody.ts&#45;&gt;packages/util/time&#45;and/dist/index.js</title>
<path fill="none" stroke="#000000" stroke-width="2" stroke-opacity="0.200000" d="M394.19,-312.29C452.5,-362.99 732.01,-605.98 800.72,-665.71"/>
<polygon fill="#000000" fill-opacity="0.200000" stroke="#000000" stroke-width="2" stroke-opacity="0.200000" points="799.39,-667.34 805.3,-669.69 802.15,-664.17 799.39,-667.34"/>
</g>
</g>
</svg>
