<?xml version="1.0" encoding="UTF-8" standalone="no"?>
<!DOCTYPE svg PUBLIC "-//W3C//DTD SVG 1.1//EN"
 "http://www.w3.org/Graphics/SVG/1.1/DTD/svg11.dtd">
<!-- Generated by graphviz version 2.43.0 (0)
 -->
<!-- Title: dependency&#45;cruiser output Pages: 1 -->
<svg width="1224pt" height="664pt"
 viewBox="0.00 0.00 1224.00 664.00" xmlns="http://www.w3.org/2000/svg" xmlns:xlink="http://www.w3.org/1999/xlink">
<g id="graph0" class="graph" transform="scale(1 1) rotate(0) translate(4 660)">
<title>dependency&#45;cruiser output</title>
<polygon fill="white" stroke="transparent" points="-4,4 -4,-660 1220,-660 1220,4 -4,4"/>
<g id="clust1" class="cluster">
<title>cluster_packages</title>
<path fill="#ffffff" stroke="black" stroke-width="2" d="M20,-8C20,-8 1196,-8 1196,-8 1202,-8 1208,-14 1208,-20 1208,-20 1208,-636 1208,-636 1208,-642 1202,-648 1196,-648 1196,-648 20,-648 20,-648 14,-648 8,-642 8,-636 8,-636 8,-20 8,-20 8,-14 14,-8 20,-8"/>
<text text-anchor="middle" x="608" y="-636.8" font-family="Helvetica,sans-Serif" font-weight="bold" font-size="9.00">packages</text>
</g>
<g id="clust2" class="cluster">
<title>cluster_packages/UI</title>
<path fill="#ffffff" stroke="black" stroke-width="2" d="M28,-16C28,-16 896,-16 896,-16 902,-16 908,-22 908,-28 908,-28 908,-330 908,-330 908,-336 902,-342 896,-342 896,-342 28,-342 28,-342 22,-342 16,-336 16,-330 16,-330 16,-28 16,-28 16,-22 22,-16 28,-16"/>
<text text-anchor="middle" x="462" y="-330.8" font-family="Helvetica,sans-Serif" font-weight="bold" font-size="9.00">UI</text>
</g>
<g id="clust3" class="cluster">
<title>cluster_packages/UI/spectrogram</title>
<path fill="#ffffff" stroke="black" stroke-width="2" d="M36,-24C36,-24 888,-24 888,-24 894,-24 900,-30 900,-36 900,-36 900,-176 900,-176 900,-182 894,-188 888,-188 888,-188 36,-188 36,-188 30,-188 24,-182 24,-176 24,-176 24,-36 24,-36 24,-30 30,-24 36,-24"/>
<text text-anchor="middle" x="462" y="-176.8" font-family="Helvetica,sans-Serif" font-weight="bold" font-size="9.00">spectrogram</text>
</g>
<g id="clust4" class="cluster">
<title>cluster_packages/UI/spectrogram/src</title>
<path fill="#ffffff" stroke="black" stroke-width="2" d="M106,-32C106,-32 880,-32 880,-32 886,-32 892,-38 892,-44 892,-44 892,-150 892,-150 892,-156 886,-162 880,-162 880,-162 106,-162 106,-162 100,-162 94,-156 94,-150 94,-150 94,-44 94,-44 94,-38 100,-32 106,-32"/>
<text text-anchor="middle" x="493" y="-150.8" font-family="Helvetica,sans-Serif" font-weight="bold" font-size="9.00">src</text>
</g>
<g id="clust5" class="cluster">
<title>cluster_packages/UI/spectrogram/src/audio&#45;analyzer</title>
<path fill="#ffffff" stroke="black" stroke-width="2" d="M448.5,-40C448.5,-40 872,-40 872,-40 878,-40 884,-46 884,-52 884,-52 884,-124 884,-124 884,-130 878,-136 872,-136 872,-136 448.5,-136 448.5,-136 442.5,-136 436.5,-130 436.5,-124 436.5,-124 436.5,-52 436.5,-52 436.5,-46 442.5,-40 448.5,-40"/>
<text text-anchor="middle" x="660.25" y="-124.8" font-family="Helvetica,sans-Serif" font-weight="bold" font-size="9.00">audio&#45;analyzer</text>
</g>
<g id="clust6" class="cluster">
<title>cluster_packages/UI/view</title>
<path fill="#ffffff" stroke="black" stroke-width="2" d="M274,-196C274,-196 555,-196 555,-196 561,-196 567,-202 567,-208 567,-208 567,-304 567,-304 567,-310 561,-316 555,-316 555,-316 274,-316 274,-316 268,-316 262,-310 262,-304 262,-304 262,-208 262,-208 262,-202 268,-196 274,-196"/>
<text text-anchor="middle" x="414.5" y="-304.8" font-family="Helvetica,sans-Serif" font-weight="bold" font-size="9.00">view</text>
</g>
<g id="clust7" class="cluster">
<title>cluster_packages/UI/view/src</title>
<path fill="#ffffff" stroke="black" stroke-width="2" d="M282,-204C282,-204 547,-204 547,-204 553,-204 559,-210 559,-216 559,-216 559,-278 559,-278 559,-284 553,-290 547,-290 547,-290 282,-290 282,-290 276,-290 270,-284 270,-278 270,-278 270,-216 270,-216 270,-210 276,-204 282,-204"/>
<text text-anchor="middle" x="414.5" y="-278.8" font-family="Helvetica,sans-Serif" font-weight="bold" font-size="9.00">src</text>
</g>
<g id="clust8" class="cluster">
<title>cluster_packages/UI/view/src/reflectable</title>
<path fill="#ffffff" stroke="black" stroke-width="2" d="M290,-212C290,-212 539,-212 539,-212 545,-212 551,-218 551,-224 551,-224 551,-252 551,-252 551,-258 545,-264 539,-264 539,-264 290,-264 290,-264 284,-264 278,-258 278,-252 278,-252 278,-224 278,-224 278,-218 284,-212 290,-212"/>
<text text-anchor="middle" x="414.5" y="-252.8" font-family="Helvetica,sans-Serif" font-weight="bold" font-size="9.00">reflectable</text>
</g>
<g id="clust9" class="cluster">
<title>cluster_packages/util</title>
<path fill="#ffffff" stroke="black" stroke-width="2" d="M766,-350C766,-350 1188,-350 1188,-350 1194,-350 1200,-356 1200,-362 1200,-362 1200,-610 1200,-610 1200,-616 1194,-622 1188,-622 1188,-622 766,-622 766,-622 760,-622 754,-616 754,-610 754,-610 754,-362 754,-362 754,-356 760,-350 766,-350"/>
<text text-anchor="middle" x="977" y="-610.8" font-family="Helvetica,sans-Serif" font-weight="bold" font-size="9.00">util</text>
</g>
<g id="clust10" class="cluster">
<title>cluster_packages/util/math</title>
<path fill="#ffffff" stroke="black" stroke-width="2" d="M774,-358C774,-358 1180,-358 1180,-358 1186,-358 1192,-364 1192,-370 1192,-370 1192,-584 1192,-584 1192,-590 1186,-596 1180,-596 1180,-596 774,-596 774,-596 768,-596 762,-590 762,-584 762,-584 762,-370 762,-370 762,-364 768,-358 774,-358"/>
<text text-anchor="middle" x="977" y="-584.8" font-family="Helvetica,sans-Serif" font-weight="bold" font-size="9.00">math</text>
</g>
<g id="clust11" class="cluster">
<title>cluster_packages/util/math/src</title>
<path fill="#ffffff" stroke="black" stroke-width="2" d="M782,-366C782,-366 1172,-366 1172,-366 1178,-366 1184,-372 1184,-378 1184,-378 1184,-558 1184,-558 1184,-564 1178,-570 1172,-570 1172,-570 782,-570 782,-570 776,-570 770,-564 770,-558 770,-558 770,-378 770,-378 770,-372 776,-366 782,-366"/>
<text text-anchor="middle" x="977" y="-558.8" font-family="Helvetica,sans-Serif" font-weight="bold" font-size="9.00">src</text>
</g>
<g id="clust12" class="cluster">
<title>cluster_packages/util/math/src/fft</title>
<path fill="#ffffff" stroke="black" stroke-width="2" d="M790,-374C790,-374 1164,-374 1164,-374 1170,-374 1176,-380 1176,-386 1176,-386 1176,-532 1176,-532 1176,-538 1170,-544 1164,-544 1164,-544 790,-544 790,-544 784,-544 778,-538 778,-532 778,-532 778,-386 778,-386 778,-380 784,-374 790,-374"/>
<text text-anchor="middle" x="977" y="-532.8" font-family="Helvetica,sans-Serif" font-weight="bold" font-size="9.00">fft</text>
</g>
<g id="clust13" class="cluster">
<title>cluster_packages/util/math/src/fft/array</title>
<path fill="#ffffff" stroke="black" stroke-width="2" d="M798,-382C798,-382 1069,-382 1069,-382 1075,-382 1081,-388 1081,-394 1081,-394 1081,-452 1081,-452 1081,-458 1075,-464 1069,-464 1069,-464 798,-464 798,-464 792,-464 786,-458 786,-452 786,-452 786,-394 786,-394 786,-388 792,-382 798,-382"/>
<text text-anchor="middle" x="933.5" y="-452.8" font-family="Helvetica,sans-Serif" font-weight="bold" font-size="9.00">array</text>
</g>
<!-- packages/UI/spectrogram/index.ts -->
<g id="node1" class="node">
<title>packages/UI/spectrogram/index.ts</title>
<g id="a_node1"><a xlink:href="packages/UI/spectrogram/index.ts" xlink:title="index.ts">
<path fill="#ddfeff" stroke="black" d="M80,-121C80,-121 38,-121 38,-121 35,-121 32,-118 32,-115 32,-115 32,-109 32,-109 32,-106 35,-103 38,-103 38,-103 80,-103 80,-103 83,-103 86,-106 86,-109 86,-109 86,-115 86,-115 86,-118 83,-121 80,-121"/>
<text text-anchor="start" x="40.5" y="-109.8" font-family="Helvetica,sans-Serif" font-size="9.00">index.ts</text>
</a>
</g>
</g>
<!-- packages/UI/spectrogram/src/index.ts -->
<g id="node2" class="node">
<title>packages/UI/spectrogram/src/index.ts</title>
<g id="a_node2"><a xlink:href="packages/UI/spectrogram/src/index.ts" xlink:title="index.ts">
<path fill="#ddfeff" stroke="black" d="M150,-121C150,-121 108,-121 108,-121 105,-121 102,-118 102,-115 102,-115 102,-109 102,-109 102,-106 105,-103 108,-103 108,-103 150,-103 150,-103 153,-103 156,-106 156,-109 156,-109 156,-115 156,-115 156,-118 153,-121 150,-121"/>
<text text-anchor="start" x="110.5" y="-109.8" font-family="Helvetica,sans-Serif" font-size="9.00">index.ts</text>
</a>
</g>
</g>
<!-- packages/UI/spectrogram/index.ts&#45;&gt;packages/UI/spectrogram/src/index.ts -->
<g id="edge1" class="edge">
<title>packages/UI/spectrogram/index.ts&#45;&gt;packages/UI/spectrogram/src/index.ts</title>
<path fill="none" stroke="#000000" stroke-width="2" stroke-opacity="0.200000" d="M86.1,-112C89.12,-112 92.23,-112 95.33,-112"/>
<polygon fill="#000000" fill-opacity="0.200000" stroke="#000000" stroke-width="2" stroke-opacity="0.200000" points="101.64,-114.1 95.64,-112 101.64,-109.9 101.64,-114.1"/>
</g>
<!-- packages/UI/spectrogram/src/audio&#45;viewer.ts -->
<g id="node10" class="node">
<title>packages/UI/spectrogram/src/audio&#45;viewer.ts</title>
<g id="a_node10"><a xlink:href="packages/UI/spectrogram/src/audio-viewer.ts" xlink:title="audio&#45;viewer.ts">
<path fill="#ddfeff" stroke="black" d="M248,-121C248,-121 175,-121 175,-121 172,-121 169,-118 169,-115 169,-115 169,-109 169,-109 169,-106 172,-103 175,-103 175,-103 248,-103 248,-103 251,-103 254,-106 254,-109 254,-109 254,-115 254,-115 254,-118 251,-121 248,-121"/>
<text text-anchor="start" x="177" y="-109.8" font-family="Helvetica,sans-Serif" font-size="9.00">audio&#45;viewer.ts</text>
</a>
</g>
</g>
<!-- packages/UI/spectrogram/src/index.ts&#45;&gt;packages/UI/spectrogram/src/audio&#45;viewer.ts -->
<g id="edge17" class="edge">
<title>packages/UI/spectrogram/src/index.ts&#45;&gt;packages/UI/spectrogram/src/audio&#45;viewer.ts</title>
<path fill="none" stroke="#000000" stroke-width="2" stroke-opacity="0.200000" d="M156.36,-112C158.38,-112 160.45,-112 162.55,-112"/>
<polygon fill="#000000" fill-opacity="0.200000" stroke="#000000" stroke-width="2" stroke-opacity="0.200000" points="168.91,-114.1 162.91,-112 168.91,-109.9 168.91,-114.1"/>
</g>
<!-- packages/UI/spectrogram/src/audio&#45;analyzer/audio&#45;analyzer.ts -->
<g id="node3" class="node">
<title>packages/UI/spectrogram/src/audio&#45;analyzer/audio&#45;analyzer.ts</title>
<g id="a_node3"><a xlink:href="packages/UI/spectrogram/src/audio-analyzer/audio-analyzer.ts" xlink:title="audio&#45;analyzer.ts">
<path fill="#ddfeff" stroke="black" d="M662,-84C662,-84 581,-84 581,-84 578,-84 575,-81 575,-78 575,-78 575,-72 575,-72 575,-69 578,-66 581,-66 581,-66 662,-66 662,-66 665,-66 668,-69 668,-72 668,-72 668,-78 668,-78 668,-81 665,-84 662,-84"/>
<text text-anchor="start" x="583" y="-72.8" font-family="Helvetica,sans-Serif" font-size="9.00">audio&#45;analyzer.ts</text>
</a>
</g>
</g>
<!-- packages/UI/spectrogram/src/audio&#45;analyzer/connect.ts -->
<g id="node4" class="node">
<title>packages/UI/spectrogram/src/audio&#45;analyzer/connect.ts</title>
<g id="a_node4"><a xlink:href="packages/UI/spectrogram/src/audio-analyzer/connect.ts" xlink:title="connect.ts">
<path fill="#ddfeff" stroke="black" d="M740,-66C740,-66 687,-66 687,-66 684,-66 681,-63 681,-60 681,-60 681,-54 681,-54 681,-51 684,-48 687,-48 687,-48 740,-48 740,-48 743,-48 746,-51 746,-54 746,-54 746,-60 746,-60 746,-63 743,-66 740,-66"/>
<text text-anchor="start" x="689" y="-54.8" font-family="Helvetica,sans-Serif" font-size="9.00">connect.ts</text>
</a>
</g>
</g>
<!-- packages/UI/spectrogram/src/audio&#45;analyzer/audio&#45;analyzer.ts&#45;&gt;packages/UI/spectrogram/src/audio&#45;analyzer/connect.ts -->
<g id="edge2" class="edge">
<title>packages/UI/spectrogram/src/audio&#45;analyzer/audio&#45;analyzer.ts&#45;&gt;packages/UI/spectrogram/src/audio&#45;analyzer/connect.ts</title>
<path fill="none" stroke="#000000" stroke-width="2" stroke-opacity="0.200000" d="M667.76,-65.95C670.14,-65.47 672.51,-65 674.85,-64.53"/>
<polygon fill="#000000" fill-opacity="0.200000" stroke="#000000" stroke-width="2" stroke-opacity="0.200000" points="675.5,-66.54 680.97,-63.31 674.68,-62.42 675.5,-66.54"/>
</g>
<!-- packages/UI/spectrogram/src/audio&#45;analyzer/get&#45;data&#45;on&#45;buffer.ts -->
<g id="node5" class="node">
<title>packages/UI/spectrogram/src/audio&#45;analyzer/get&#45;data&#45;on&#45;buffer.ts</title>
<g id="a_node5"><a xlink:href="packages/UI/spectrogram/src/audio-analyzer/get-data-on-buffer.ts" xlink:title="get&#45;data&#45;on&#45;buffer.ts">
<path fill="#ddfeff" stroke="black" d="M870,-99C870,-99 772,-99 772,-99 769,-99 766,-96 766,-93 766,-93 766,-87 766,-87 766,-84 769,-81 772,-81 772,-81 870,-81 870,-81 873,-81 876,-84 876,-87 876,-87 876,-93 876,-93 876,-96 873,-99 870,-99"/>
<text text-anchor="start" x="774" y="-87.8" font-family="Helvetica,sans-Serif" font-size="9.00">get&#45;data&#45;on&#45;buffer.ts</text>
</a>
</g>
</g>
<!-- packages/UI/spectrogram/src/audio&#45;analyzer/audio&#45;analyzer.ts&#45;&gt;packages/UI/spectrogram/src/audio&#45;analyzer/get&#45;data&#45;on&#45;buffer.ts -->
<g id="edge3" class="edge">
<title>packages/UI/spectrogram/src/audio&#45;analyzer/audio&#45;analyzer.ts&#45;&gt;packages/UI/spectrogram/src/audio&#45;analyzer/get&#45;data&#45;on&#45;buffer.ts</title>
<path fill="none" stroke="#000000" stroke-width="2" stroke-opacity="0.200000" d="M668.02,-78.5C695.33,-80.55 730.15,-83.17 759.68,-85.39"/>
<polygon fill="#000000" fill-opacity="0.200000" stroke="#000000" stroke-width="2" stroke-opacity="0.200000" points="759.75,-87.5 765.89,-85.86 760.07,-83.31 759.75,-87.5"/>
</g>
<!-- packages/UI/spectrogram/src/audio&#45;analyzer/get&#45;fft.ts -->
<g id="node6" class="node">
<title>packages/UI/spectrogram/src/audio&#45;analyzer/get&#45;fft.ts</title>
<g id="a_node6"><a xlink:href="packages/UI/spectrogram/src/audio-analyzer/get-fft.ts" xlink:title="get&#45;fft.ts">
<path fill="#ddfeff" stroke="black" d="M735.5,-110C735.5,-110 691.5,-110 691.5,-110 688.5,-110 685.5,-107 685.5,-104 685.5,-104 685.5,-98 685.5,-98 685.5,-95 688.5,-92 691.5,-92 691.5,-92 735.5,-92 735.5,-92 738.5,-92 741.5,-95 741.5,-98 741.5,-98 741.5,-104 741.5,-104 741.5,-107 738.5,-110 735.5,-110"/>
<text text-anchor="start" x="693.5" y="-98.8" font-family="Helvetica,sans-Serif" font-size="9.00">get&#45;fft.ts</text>
</a>
</g>
</g>
<!-- packages/UI/spectrogram/src/audio&#45;analyzer/audio&#45;analyzer.ts&#45;&gt;packages/UI/spectrogram/src/audio&#45;analyzer/get&#45;fft.ts -->
<g id="edge4" class="edge">
<title>packages/UI/spectrogram/src/audio&#45;analyzer/audio&#45;analyzer.ts&#45;&gt;packages/UI/spectrogram/src/audio&#45;analyzer/get&#45;fft.ts</title>
<path fill="none" stroke="#000000" stroke-width="2" stroke-opacity="0.200000" d="M653.73,-84.02C661.9,-86.38 670.74,-88.94 679.02,-91.33"/>
<polygon fill="#000000" fill-opacity="0.200000" stroke="#000000" stroke-width="2" stroke-opacity="0.200000" points="678.88,-93.47 685.23,-93.12 680.05,-89.44 678.88,-93.47"/>
</g>
<!-- packages/UI/spectrogram/src/audio&#45;analyzer/get&#45;fft.ts&#45;&gt;packages/UI/spectrogram/src/audio&#45;analyzer/get&#45;data&#45;on&#45;buffer.ts -->
<g id="edge5" class="edge">
<title>packages/UI/spectrogram/src/audio&#45;analyzer/get&#45;fft.ts&#45;&gt;packages/UI/spectrogram/src/audio&#45;analyzer/get&#45;data&#45;on&#45;buffer.ts</title>
<path fill="none" stroke="#000000" stroke-width="2" stroke-opacity="0.200000" d="M741.67,-98.17C747.26,-97.58 753.35,-96.95 759.58,-96.3"/>
<polygon fill="#000000" fill-opacity="0.200000" stroke="#000000" stroke-width="2" stroke-opacity="0.200000" points="760.11,-98.36 765.86,-95.65 759.67,-94.18 760.11,-98.36"/>
</g>
<!-- packages/util/math/src/fft/array/index.ts -->
<g id="node8" class="node">
<title>packages/util/math/src/fft/array/index.ts</title>
<g id="a_node8"><a xlink:href="packages/util/math/src/fft/array/index.ts" xlink:title="index.ts">
<path fill="#ddfeff" stroke="black" d="M842,-408C842,-408 800,-408 800,-408 797,-408 794,-405 794,-402 794,-402 794,-396 794,-396 794,-393 797,-390 800,-390 800,-390 842,-390 842,-390 845,-390 848,-393 848,-396 848,-396 848,-402 848,-402 848,-405 845,-408 842,-408"/>
<text text-anchor="start" x="802.5" y="-396.8" font-family="Helvetica,sans-Serif" font-size="9.00">index.ts</text>
</a>
</g>
</g>
<!-- packages/UI/spectrogram/src/audio&#45;analyzer/get&#45;fft.ts&#45;&gt;packages/util/math/src/fft/array/index.ts -->
<g id="edge6" class="edge">
<title>packages/UI/spectrogram/src/audio&#45;analyzer/get&#45;fft.ts&#45;&gt;packages/util/math/src/fft/array/index.ts</title>
<path fill="none" stroke="#000000" stroke-width="2" stroke-opacity="0.200000" d="M717.77,-110.25C732.88,-152.92 795.92,-330.99 814.7,-384.03"/>
<polygon fill="#000000" fill-opacity="0.200000" stroke="#000000" stroke-width="2" stroke-opacity="0.200000" points="812.78,-384.91 816.77,-389.86 816.74,-383.51 812.78,-384.91"/>
</g>
<!-- packages/UI/spectrogram/src/audio&#45;analyzer/cosine&#45;window.ts -->
<g id="node7" class="node">
<title>packages/UI/spectrogram/src/audio&#45;analyzer/cosine&#45;window.ts</title>
<g id="a_node7"><a xlink:href="packages/UI/spectrogram/src/audio-analyzer/cosine-window.ts" xlink:title="no&#45;orphans">
<path fill="#ccffcc" stroke="orange" d="M531.5,-110C531.5,-110 450.5,-110 450.5,-110 447.5,-110 444.5,-107 444.5,-104 444.5,-104 444.5,-98 444.5,-98 444.5,-95 447.5,-92 450.5,-92 450.5,-92 531.5,-92 531.5,-92 534.5,-92 537.5,-95 537.5,-98 537.5,-98 537.5,-104 537.5,-104 537.5,-107 534.5,-110 531.5,-110"/>
<text text-anchor="start" x="452.5" y="-98.8" font-family="Helvetica,sans-Serif" font-size="9.00" fill="orange">cosine&#45;window.ts</text>
</a>
</g>
</g>
<!-- packages/util/math/src/fft/array/complex.ts -->
<g id="node18" class="node">
<title>packages/util/math/src/fft/array/complex.ts</title>
<g id="a_node18"><a xlink:href="packages/util/math/src/fft/array/complex.ts" xlink:title="complex.ts">
<path fill="#ddfeff" stroke="black" d="M1058.5,-408C1058.5,-408 1004.5,-408 1004.5,-408 1001.5,-408 998.5,-405 998.5,-402 998.5,-402 998.5,-396 998.5,-396 998.5,-393 1001.5,-390 1004.5,-390 1004.5,-390 1058.5,-390 1058.5,-390 1061.5,-390 1064.5,-393 1064.5,-396 1064.5,-396 1064.5,-402 1064.5,-402 1064.5,-405 1061.5,-408 1058.5,-408"/>
<text text-anchor="start" x="1006.5" y="-396.8" font-family="Helvetica,sans-Serif" font-size="9.00">complex.ts</text>
</a>
</g>
</g>
<!-- packages/util/math/src/fft/array/index.ts&#45;&gt;packages/util/math/src/fft/array/complex.ts -->
<g id="edge29" class="edge">
<title>packages/util/math/src/fft/array/index.ts&#45;&gt;packages/util/math/src/fft/array/complex.ts</title>
<path fill="none" stroke="#000000" stroke-width="2" stroke-opacity="0.200000" d="M848.09,-399C884.71,-399 950.25,-399 992.26,-399"/>
<polygon fill="#000000" fill-opacity="0.200000" stroke="#000000" stroke-width="2" stroke-opacity="0.200000" points="992.28,-401.1 998.28,-399 992.28,-396.9 992.28,-401.1"/>
</g>
<!-- packages/util/math/src/fft/array/ftt&#45;core.ts -->
<g id="node20" class="node">
<title>packages/util/math/src/fft/array/ftt&#45;core.ts</title>
<g id="a_node20"><a xlink:href="packages/util/math/src/fft/array/ftt-core.ts" xlink:title="ftt&#45;core.ts">
<path fill="#ddfeff" stroke="black" d="M971,-434C971,-434 922,-434 922,-434 919,-434 916,-431 916,-428 916,-428 916,-422 916,-422 916,-419 919,-416 922,-416 922,-416 971,-416 971,-416 974,-416 977,-419 977,-422 977,-422 977,-428 977,-428 977,-431 974,-434 971,-434"/>
<text text-anchor="start" x="924" y="-422.8" font-family="Helvetica,sans-Serif" font-size="9.00">ftt&#45;core.ts</text>
</a>
</g>
</g>
<!-- packages/util/math/src/fft/array/index.ts&#45;&gt;packages/util/math/src/fft/array/ftt&#45;core.ts -->
<g id="edge30" class="edge">
<title>packages/util/math/src/fft/array/index.ts&#45;&gt;packages/util/math/src/fft/array/ftt&#45;core.ts</title>
<path fill="none" stroke="#000000" stroke-width="2" stroke-opacity="0.200000" d="M848.19,-404.51C866.16,-408.3 890.22,-413.36 909.92,-417.51"/>
<polygon fill="#000000" fill-opacity="0.200000" stroke="#000000" stroke-width="2" stroke-opacity="0.200000" points="909.58,-419.58 915.88,-418.76 910.44,-415.47 909.58,-419.58"/>
</g>
<!-- packages/UI/spectrogram/src/audio&#45;analyzer/index.ts -->
<g id="node9" class="node">
<title>packages/UI/spectrogram/src/audio&#45;analyzer/index.ts</title>
<g id="a_node9"><a xlink:href="packages/UI/spectrogram/src/audio-analyzer/index.ts" xlink:title="index.ts">
<path fill="#ddfeff" stroke="black" d="M512,-80C512,-80 470,-80 470,-80 467,-80 464,-77 464,-74 464,-74 464,-68 464,-68 464,-65 467,-62 470,-62 470,-62 512,-62 512,-62 515,-62 518,-65 518,-68 518,-68 518,-74 518,-74 518,-77 515,-80 512,-80"/>
<text text-anchor="start" x="472.5" y="-68.8" font-family="Helvetica,sans-Serif" font-size="9.00">index.ts</text>
</a>
</g>
</g>
<!-- packages/UI/spectrogram/src/audio&#45;analyzer/index.ts&#45;&gt;packages/UI/spectrogram/src/audio&#45;analyzer/audio&#45;analyzer.ts -->
<g id="edge7" class="edge">
<title>packages/UI/spectrogram/src/audio&#45;analyzer/index.ts&#45;&gt;packages/UI/spectrogram/src/audio&#45;analyzer/audio&#45;analyzer.ts</title>
<path fill="none" stroke="#000000" stroke-width="2" stroke-opacity="0.200000" d="M518,-71.81C532.5,-72.26 551.09,-72.84 568.44,-73.38"/>
<polygon fill="#000000" fill-opacity="0.200000" stroke="#000000" stroke-width="2" stroke-opacity="0.200000" points="574.71,-75.68 568.77,-73.39 574.84,-71.48 574.71,-75.68"/>
</g>
<!-- packages/UI/spectrogram/src/audio&#45;viewer.ts&#45;&gt;packages/UI/spectrogram/src/audio&#45;analyzer/index.ts -->
<g id="edge8" class="edge">
<title>packages/UI/spectrogram/src/audio&#45;viewer.ts&#45;&gt;packages/UI/spectrogram/src/audio&#45;analyzer/index.ts</title>
<path fill="none" stroke="#000000" stroke-width="2" stroke-opacity="0.200000" d="M254.25,-105.73C310.24,-97.52 407.21,-83.29 457.93,-75.85"/>
<polygon fill="#000000" fill-opacity="0.200000" stroke="#000000" stroke-width="2" stroke-opacity="0.200000" points="458.25,-77.93 463.88,-74.98 457.64,-73.77 458.25,-77.93"/>
</g>
<!-- packages/UI/spectrogram/src/fft&#45;viewer.ts -->
<g id="node11" class="node">
<title>packages/UI/spectrogram/src/fft&#45;viewer.ts</title>
<g id="a_node11"><a xlink:href="packages/UI/spectrogram/src/fft-viewer.ts" xlink:title="fft&#45;viewer.ts">
<path fill="#ddfeff" stroke="black" d="M384.5,-106C384.5,-106 327.5,-106 327.5,-106 324.5,-106 321.5,-103 321.5,-100 321.5,-100 321.5,-94 321.5,-94 321.5,-91 324.5,-88 327.5,-88 327.5,-88 384.5,-88 384.5,-88 387.5,-88 390.5,-91 390.5,-94 390.5,-94 390.5,-100 390.5,-100 390.5,-103 387.5,-106 384.5,-106"/>
<text text-anchor="start" x="329.5" y="-94.8" font-family="Helvetica,sans-Serif" font-size="9.00">fft&#45;viewer.ts</text>
</a>
</g>
</g>
<!-- packages/UI/spectrogram/src/audio&#45;viewer.ts&#45;&gt;packages/UI/spectrogram/src/fft&#45;viewer.ts -->
<g id="edge9" class="edge">
<title>packages/UI/spectrogram/src/audio&#45;viewer.ts&#45;&gt;packages/UI/spectrogram/src/fft&#45;viewer.ts</title>
<path fill="none" stroke="#000000" stroke-width="2" stroke-opacity="0.200000" d="M254.1,-107.62C273.29,-105.6 295.97,-103.21 314.97,-101.21"/>
<polygon fill="#000000" fill-opacity="0.200000" stroke="#000000" stroke-width="2" stroke-opacity="0.200000" points="315.51,-103.27 321.25,-100.55 315.07,-99.09 315.51,-103.27"/>
</g>
<!-- packages/UI/spectrogram/src/spectrogram&#45;viewer.ts -->
<g id="node12" class="node">
<title>packages/UI/spectrogram/src/spectrogram&#45;viewer.ts</title>
<g id="a_node12"><a xlink:href="packages/UI/spectrogram/src/spectrogram-viewer.ts" xlink:title="spectrogram&#45;viewer.ts">
<path fill="#ddfeff" stroke="black" d="M408.5,-76C408.5,-76 303.5,-76 303.5,-76 300.5,-76 297.5,-73 297.5,-70 297.5,-70 297.5,-64 297.5,-64 297.5,-61 300.5,-58 303.5,-58 303.5,-58 408.5,-58 408.5,-58 411.5,-58 414.5,-61 414.5,-64 414.5,-64 414.5,-70 414.5,-70 414.5,-73 411.5,-76 408.5,-76"/>
<text text-anchor="start" x="305.5" y="-64.8" font-family="Helvetica,sans-Serif" font-size="9.00">spectrogram&#45;viewer.ts</text>
</a>
</g>
</g>
<!-- packages/UI/spectrogram/src/audio&#45;viewer.ts&#45;&gt;packages/UI/spectrogram/src/spectrogram&#45;viewer.ts -->
<g id="edge10" class="edge">
<title>packages/UI/spectrogram/src/audio&#45;viewer.ts&#45;&gt;packages/UI/spectrogram/src/spectrogram&#45;viewer.ts</title>
<path fill="none" stroke="#000000" stroke-width="2" stroke-opacity="0.200000" d="M241.34,-102.89C264.13,-95.7 296.02,-85.62 320.23,-77.98"/>
<polygon fill="#000000" fill-opacity="0.200000" stroke="#000000" stroke-width="2" stroke-opacity="0.200000" points="321.12,-79.9 326.21,-76.09 319.85,-75.9 321.12,-79.9"/>
</g>
<!-- packages/UI/spectrogram/src/wave&#45;viewer.ts -->
<g id="node13" class="node">
<title>packages/UI/spectrogram/src/wave&#45;viewer.ts</title>
<g id="a_node13"><a xlink:href="packages/UI/spectrogram/src/wave-viewer.ts" xlink:title="wave&#45;viewer.ts">
<path fill="#ddfeff" stroke="black" d="M391.5,-136C391.5,-136 320.5,-136 320.5,-136 317.5,-136 314.5,-133 314.5,-130 314.5,-130 314.5,-124 314.5,-124 314.5,-121 317.5,-118 320.5,-118 320.5,-118 391.5,-118 391.5,-118 394.5,-118 397.5,-121 397.5,-124 397.5,-124 397.5,-130 397.5,-130 397.5,-133 394.5,-136 391.5,-136"/>
<text text-anchor="start" x="322.5" y="-124.8" font-family="Helvetica,sans-Serif" font-size="9.00">wave&#45;viewer.ts</text>
</a>
</g>
</g>
<!-- packages/UI/spectrogram/src/audio&#45;viewer.ts&#45;&gt;packages/UI/spectrogram/src/wave&#45;viewer.ts -->
<g id="edge11" class="edge">
<title>packages/UI/spectrogram/src/audio&#45;viewer.ts&#45;&gt;packages/UI/spectrogram/src/wave&#45;viewer.ts</title>
<path fill="none" stroke="#000000" stroke-width="2" stroke-opacity="0.200000" d="M254.1,-116.38C270.93,-118.15 290.44,-120.2 307.8,-122.03"/>
<polygon fill="#000000" fill-opacity="0.200000" stroke="#000000" stroke-width="2" stroke-opacity="0.200000" points="307.9,-124.15 314.09,-122.69 308.34,-119.98 307.9,-124.15"/>
</g>
<!-- packages/UI/view/src/reflectable/audio&#45;reflectable.ts -->
<g id="node14" class="node">
<title>packages/UI/view/src/reflectable/audio&#45;reflectable.ts</title>
<g id="a_node14"><a xlink:href="packages/UI/view/src/reflectable/audio-reflectable.ts" xlink:title="audio&#45;reflectable.ts">
<path fill="#ddfeff" stroke="black" d="M537,-238C537,-238 445,-238 445,-238 442,-238 439,-235 439,-232 439,-232 439,-226 439,-226 439,-223 442,-220 445,-220 445,-220 537,-220 537,-220 540,-220 543,-223 543,-226 543,-226 543,-232 543,-232 543,-235 540,-238 537,-238"/>
<text text-anchor="start" x="447" y="-226.8" font-family="Helvetica,sans-Serif" font-size="9.00">audio&#45;reflectable.ts</text>
</a>
</g>
</g>
<!-- packages/UI/spectrogram/src/audio&#45;viewer.ts&#45;&gt;packages/UI/view/src/reflectable/audio&#45;reflectable.ts -->
<g id="edge12" class="edge">
<title>packages/UI/spectrogram/src/audio&#45;viewer.ts&#45;&gt;packages/UI/view/src/reflectable/audio&#45;reflectable.ts</title>
<path fill="none" stroke="#000000" stroke-width="2" stroke-opacity="0.200000" d="M233.43,-121.18C283.84,-142.28 407.89,-194.21 463.38,-217.44"/>
<polygon fill="#000000" fill-opacity="0.200000" stroke="#000000" stroke-width="2" stroke-opacity="0.200000" points="462.82,-219.48 469.17,-219.86 464.45,-215.61 462.82,-219.48"/>
</g>
<!-- packages/UI/view/src/reflectable/audio&#45;reflectable&#45;registry.ts -->
<g id="node15" class="node">
<title>packages/UI/view/src/reflectable/audio&#45;reflectable&#45;registry.ts</title>
<g id="a_node15"><a xlink:href="packages/UI/view/src/reflectable/audio-reflectable-registry.ts" xlink:title="audio&#45;reflectable&#45;registry.ts">
<path fill="#ddfeff" stroke="black" d="M420,-238C420,-238 292,-238 292,-238 289,-238 286,-235 286,-232 286,-232 286,-226 286,-226 286,-223 289,-220 292,-220 292,-220 420,-220 420,-220 423,-220 426,-223 426,-226 426,-226 426,-232 426,-232 426,-235 423,-238 420,-238"/>
<text text-anchor="start" x="294" y="-226.8" font-family="Helvetica,sans-Serif" font-size="9.00">audio&#45;reflectable&#45;registry.ts</text>
</a>
</g>
</g>
<!-- packages/UI/spectrogram/src/audio&#45;viewer.ts&#45;&gt;packages/UI/view/src/reflectable/audio&#45;reflectable&#45;registry.ts -->
<g id="edge13" class="edge">
<title>packages/UI/spectrogram/src/audio&#45;viewer.ts&#45;&gt;packages/UI/view/src/reflectable/audio&#45;reflectable&#45;registry.ts</title>
<path fill="none" stroke="#000000" stroke-width="2" stroke-opacity="0.200000" d="M223.68,-121.18C248.86,-141.86 310.08,-192.12 339.16,-215.99"/>
<polygon fill="#000000" fill-opacity="0.200000" stroke="#000000" stroke-width="2" stroke-opacity="0.200000" points="337.9,-217.68 343.87,-219.86 340.57,-214.43 337.9,-217.68"/>
</g>
<!-- packages/UI/spectrogram/src/fft&#45;viewer.ts&#45;&gt;packages/UI/spectrogram/src/audio&#45;analyzer/index.ts -->
<g id="edge14" class="edge">
<title>packages/UI/spectrogram/src/fft&#45;viewer.ts&#45;&gt;packages/UI/spectrogram/src/audio&#45;analyzer/index.ts</title>
<path fill="none" stroke="#000000" stroke-width="2" stroke-opacity="0.200000" d="M390.56,-90.44C411.06,-86.43 437.16,-81.33 457.47,-77.36"/>
<polygon fill="#000000" fill-opacity="0.200000" stroke="#000000" stroke-width="2" stroke-opacity="0.200000" points="458.09,-79.38 463.57,-76.17 457.28,-75.26 458.09,-79.38"/>
</g>
<!-- packages/UI/spectrogram/src/fft&#45;viewer.ts&#45;&gt;packages/UI/view/src/reflectable/audio&#45;reflectable.ts -->
<g id="edge16" class="edge">
<title>packages/UI/spectrogram/src/fft&#45;viewer.ts&#45;&gt;packages/UI/view/src/reflectable/audio&#45;reflectable.ts</title>
<path fill="none" stroke="#000000" stroke-width="2" stroke-opacity="0.200000" d="M366.14,-106.07C389.11,-128.87 449.33,-188.64 476.44,-215.54"/>
<polygon fill="#000000" fill-opacity="0.200000" stroke="#000000" stroke-width="2" stroke-opacity="0.200000" points="475.06,-217.13 480.79,-219.86 478.02,-214.15 475.06,-217.13"/>
</g>
<!-- packages/util/math/src/fft/complex.ts -->
<g id="node16" class="node">
<title>packages/util/math/src/fft/complex.ts</title>
<g id="a_node16"><a xlink:href="packages/util/math/src/fft/complex.ts" xlink:title="complex.ts">
<path fill="#ddfeff" stroke="black" d="M1155.5,-496C1155.5,-496 1101.5,-496 1101.5,-496 1098.5,-496 1095.5,-493 1095.5,-490 1095.5,-490 1095.5,-484 1095.5,-484 1095.5,-481 1098.5,-478 1101.5,-478 1101.5,-478 1155.5,-478 1155.5,-478 1158.5,-478 1161.5,-481 1161.5,-484 1161.5,-484 1161.5,-490 1161.5,-490 1161.5,-493 1158.5,-496 1155.5,-496"/>
<text text-anchor="start" x="1103.5" y="-484.8" font-family="Helvetica,sans-Serif" font-size="9.00">complex.ts</text>
</a>
</g>
</g>
<!-- packages/UI/spectrogram/src/fft&#45;viewer.ts&#45;&gt;packages/util/math/src/fft/complex.ts -->
<g id="edge15" class="edge">
<title>packages/UI/spectrogram/src/fft&#45;viewer.ts&#45;&gt;packages/util/math/src/fft/complex.ts</title>
<path fill="none" stroke="#000000" stroke-width="2" stroke-opacity="0.200000" d="M373.96,-106.07C476.66,-157.91 989.06,-416.6 1105.11,-475.19"/>
<polygon fill="#000000" fill-opacity="0.200000" stroke="#000000" stroke-width="2" stroke-opacity="0.200000" points="1104.34,-477.15 1110.64,-477.98 1106.23,-473.4 1104.34,-477.15"/>
</g>
<!-- packages/UI/spectrogram/src/spectrogram&#45;viewer.ts&#45;&gt;packages/UI/spectrogram/src/audio&#45;analyzer/index.ts -->
<g id="edge18" class="edge">
<title>packages/UI/spectrogram/src/spectrogram&#45;viewer.ts&#45;&gt;packages/UI/spectrogram/src/audio&#45;analyzer/index.ts</title>
<path fill="none" stroke="#000000" stroke-width="2" stroke-opacity="0.200000" d="M414.56,-68.73C429.28,-69.17 444.6,-69.63 457.55,-70.02"/>
<polygon fill="#000000" fill-opacity="0.200000" stroke="#000000" stroke-width="2" stroke-opacity="0.200000" points="457.65,-72.13 463.71,-70.21 457.78,-67.93 457.65,-72.13"/>
</g>
<!-- packages/UI/spectrogram/src/spectrogram&#45;viewer.ts&#45;&gt;packages/UI/view/src/reflectable/audio&#45;reflectable.ts -->
<g id="edge19" class="edge">
<title>packages/UI/spectrogram/src/spectrogram&#45;viewer.ts&#45;&gt;packages/UI/view/src/reflectable/audio&#45;reflectable.ts</title>
<path fill="none" stroke="#000000" stroke-width="2" stroke-opacity="0.200000" d="M364.53,-76.17C386.75,-103.24 452.14,-182.88 478.64,-215.17"/>
<polygon fill="#000000" fill-opacity="0.200000" stroke="#000000" stroke-width="2" stroke-opacity="0.200000" points="477.12,-216.62 482.55,-219.93 480.37,-213.96 477.12,-216.62"/>
</g>
<!-- packages/UI/spectrogram/src/wave&#45;viewer.ts&#45;&gt;packages/UI/spectrogram/src/audio&#45;analyzer/index.ts -->
<g id="edge20" class="edge">
<title>packages/UI/spectrogram/src/wave&#45;viewer.ts&#45;&gt;packages/UI/spectrogram/src/audio&#45;analyzer/index.ts</title>
<path fill="none" stroke="#000000" stroke-width="2" stroke-opacity="0.200000" d="M378.66,-117.88C401.56,-108.24 437.73,-93.01 462.6,-82.54"/>
<polygon fill="#000000" fill-opacity="0.200000" stroke="#000000" stroke-width="2" stroke-opacity="0.200000" points="463.63,-84.38 468.34,-80.12 462,-80.51 463.63,-84.38"/>
</g>
<!-- packages/UI/spectrogram/src/wave&#45;viewer.ts&#45;&gt;packages/UI/view/src/reflectable/audio&#45;reflectable.ts -->
<g id="edge23" class="edge">
<title>packages/UI/spectrogram/src/wave&#45;viewer.ts&#45;&gt;packages/UI/view/src/reflectable/audio&#45;reflectable.ts</title>
<path fill="none" stroke="#000000" stroke-width="2" stroke-opacity="0.200000" d="M368.8,-136.05C392.5,-154.23 445.94,-195.21 473.25,-216.15"/>
<polygon fill="#000000" fill-opacity="0.200000" stroke="#000000" stroke-width="2" stroke-opacity="0.200000" points="471.99,-217.84 478.03,-219.82 474.55,-214.5 471.99,-217.84"/>
</g>
<!-- packages/UI/spectrogram/src/wave&#45;viewer.ts&#45;&gt;packages/util/math/src/fft/complex.ts -->
<g id="edge22" class="edge">
<title>packages/UI/spectrogram/src/wave&#45;viewer.ts&#45;&gt;packages/util/math/src/fft/complex.ts</title>
<path fill="none" stroke="#000000" stroke-width="2" stroke-opacity="0.200000" d="M375.48,-136.08C481.11,-185.3 984.68,-419.98 1103.39,-475.3"/>
<polygon fill="#000000" fill-opacity="0.200000" stroke="#000000" stroke-width="2" stroke-opacity="0.200000" points="1102.75,-477.31 1109.07,-477.95 1104.52,-473.51 1102.75,-477.31"/>
</g>
<!-- packages/util/math/src/fft/index.ts -->
<g id="node17" class="node">
<title>packages/util/math/src/fft/index.ts</title>
<g id="a_node17"><a xlink:href="packages/util/math/src/fft/index.ts" xlink:title="index.ts">
<path fill="#ddfeff" stroke="black" d="M842,-497C842,-497 800,-497 800,-497 797,-497 794,-494 794,-491 794,-491 794,-485 794,-485 794,-482 797,-479 800,-479 800,-479 842,-479 842,-479 845,-479 848,-482 848,-485 848,-485 848,-491 848,-491 848,-494 845,-497 842,-497"/>
<text text-anchor="start" x="802.5" y="-485.8" font-family="Helvetica,sans-Serif" font-size="9.00">index.ts</text>
</a>
</g>
</g>
<!-- packages/UI/spectrogram/src/wave&#45;viewer.ts&#45;&gt;packages/util/math/src/fft/index.ts -->
<g id="edge21" class="edge">
<title>packages/UI/spectrogram/src/wave&#45;viewer.ts&#45;&gt;packages/util/math/src/fft/index.ts</title>
<path fill="none" stroke="#000000" stroke-width="2" stroke-opacity="0.200000" d="M367.96,-136.29C431.54,-185.65 729.76,-417.17 804.15,-474.92"/>
<polygon fill="#000000" fill-opacity="0.200000" stroke="#000000" stroke-width="2" stroke-opacity="0.200000" points="803.09,-476.75 809.12,-478.77 805.67,-473.44 803.09,-476.75"/>
</g>
<!-- packages/UI/view/src/reflectable/audio&#45;reflectable&#45;registry.ts&#45;&gt;packages/UI/view/src/reflectable/audio&#45;reflectable.ts -->
<g id="edge24" class="edge">
<title>packages/UI/view/src/reflectable/audio&#45;reflectable&#45;registry.ts&#45;&gt;packages/UI/view/src/reflectable/audio&#45;reflectable.ts</title>
<path fill="none" stroke="#000000" stroke-width="2" stroke-opacity="0.200000" d="M426.23,-229C428.37,-229 430.52,-229 432.64,-229"/>
<polygon fill="#000000" fill-opacity="0.200000" stroke="#000000" stroke-width="2" stroke-opacity="0.200000" points="432.99,-231.1 438.99,-229 432.99,-226.9 432.99,-231.1"/>
</g>
<!-- packages/util/math/src/fft/index.ts&#45;&gt;packages/util/math/src/fft/complex.ts -->
<g id="edge33" class="edge">
<title>packages/util/math/src/fft/index.ts&#45;&gt;packages/util/math/src/fft/complex.ts</title>
<path fill="none" stroke="#000000" stroke-width="2" stroke-opacity="0.200000" d="M848.02,-487.91C902.43,-487.74 1025.4,-487.34 1088.9,-487.13"/>
<polygon fill="#000000" fill-opacity="0.200000" stroke="#000000" stroke-width="2" stroke-opacity="0.200000" points="1089.23,-489.23 1095.23,-487.11 1089.22,-485.03 1089.23,-489.23"/>
</g>
<!-- packages/util/math/src/fft/ftt&#45;core.ts -->
<g id="node22" class="node">
<title>packages/util/math/src/fft/ftt&#45;core.ts</title>
<g id="a_node22"><a xlink:href="packages/util/math/src/fft/ftt-core.ts" xlink:title="ftt&#45;core.ts">
<path fill="#ddfeff" stroke="black" d="M971,-504C971,-504 922,-504 922,-504 919,-504 916,-501 916,-498 916,-498 916,-492 916,-492 916,-489 919,-486 922,-486 922,-486 971,-486 971,-486 974,-486 977,-489 977,-492 977,-492 977,-498 977,-498 977,-501 974,-504 971,-504"/>
<text text-anchor="start" x="924" y="-492.8" font-family="Helvetica,sans-Serif" font-size="9.00">ftt&#45;core.ts</text>
</a>
</g>
</g>
<!-- packages/util/math/src/fft/index.ts&#45;&gt;packages/util/math/src/fft/ftt&#45;core.ts -->
<g id="edge34" class="edge">
<title>packages/util/math/src/fft/index.ts&#45;&gt;packages/util/math/src/fft/ftt&#45;core.ts</title>
<path fill="none" stroke="#000000" stroke-width="2" stroke-opacity="0.200000" d="M848.19,-489.48C866.08,-490.5 890.01,-491.85 909.66,-492.97"/>
<polygon fill="#000000" fill-opacity="0.200000" stroke="#000000" stroke-width="2" stroke-opacity="0.200000" points="909.77,-495.08 915.88,-493.32 910.01,-490.88 909.77,-495.08"/>
</g>
<!-- packages/util/math/src/fft/root&#45;of&#45;unity.ts -->
<g id="node23" class="node">
<title>packages/util/math/src/fft/root&#45;of&#45;unity.ts</title>
<g id="a_node23"><a xlink:href="packages/util/math/src/fft/root-of-unity.ts" xlink:title="root&#45;of&#45;unity.ts">
<path fill="#ddfeff" stroke="black" d="M1067,-518C1067,-518 996,-518 996,-518 993,-518 990,-515 990,-512 990,-512 990,-506 990,-506 990,-503 993,-500 996,-500 996,-500 1067,-500 1067,-500 1070,-500 1073,-503 1073,-506 1073,-506 1073,-512 1073,-512 1073,-515 1070,-518 1067,-518"/>
<text text-anchor="start" x="998" y="-506.8" font-family="Helvetica,sans-Serif" font-size="9.00">root&#45;of&#45;unity.ts</text>
</a>
</g>
</g>
<!-- packages/util/math/src/fft/index.ts&#45;&gt;packages/util/math/src/fft/root&#45;of&#45;unity.ts -->
<g id="edge35" class="edge">
<title>packages/util/math/src/fft/index.ts&#45;&gt;packages/util/math/src/fft/root&#45;of&#45;unity.ts</title>
<path fill="none" stroke="#000000" stroke-width="2" stroke-opacity="0.200000" d="M848.09,-490.7C882.27,-494.11 941.66,-500.04 983.58,-504.22"/>
<polygon fill="#000000" fill-opacity="0.200000" stroke="#000000" stroke-width="2" stroke-opacity="0.200000" points="983.46,-506.32 989.64,-504.82 983.87,-502.14 983.46,-506.32"/>
</g>
<!-- packages/util/math/src/fft/typed&#45;array.ts -->
<g id="node19" class="node">
<title>packages/util/math/src/fft/typed&#45;array.ts</title>
<g id="a_node19"><a xlink:href="packages/util/math/src/fft/typed-array.ts" xlink:title="typed&#45;array.ts">
<path fill="#ddfeff" stroke="black" d="M1162,-434C1162,-434 1095,-434 1095,-434 1092,-434 1089,-431 1089,-428 1089,-428 1089,-422 1089,-422 1089,-419 1092,-416 1095,-416 1095,-416 1162,-416 1162,-416 1165,-416 1168,-419 1168,-422 1168,-422 1168,-428 1168,-428 1168,-431 1165,-434 1162,-434"/>
<text text-anchor="start" x="1097" y="-422.8" font-family="Helvetica,sans-Serif" font-size="9.00">typed&#45;array.ts</text>
</a>
</g>
</g>
<!-- packages/util/math/src/fft/array/complex.ts&#45;&gt;packages/util/math/src/fft/typed&#45;array.ts -->
<g id="edge25" class="edge">
<title>packages/util/math/src/fft/array/complex.ts&#45;&gt;packages/util/math/src/fft/typed&#45;array.ts</title>
<path fill="none" stroke="#000000" stroke-width="2" stroke-opacity="0.200000" d="M1064.66,-407.8C1072.3,-409.89 1080.53,-412.14 1088.43,-414.31"/>
<polygon fill="#000000" fill-opacity="0.200000" stroke="#000000" stroke-width="2" stroke-opacity="0.200000" points="1088.06,-416.38 1094.4,-415.94 1089.17,-412.33 1088.06,-416.38"/>
</g>
<!-- packages/util/math/src/fft/array/ftt&#45;core.ts&#45;&gt;packages/util/math/src/fft/array/complex.ts -->
<g id="edge27" class="edge">
<title>packages/util/math/src/fft/array/ftt&#45;core.ts&#45;&gt;packages/util/math/src/fft/array/complex.ts</title>
<path fill="none" stroke="#000000" stroke-width="2" stroke-opacity="0.200000" d="M976.53,-415.91C982.76,-413.96 989.4,-411.88 995.81,-409.87"/>
<polygon fill="#000000" fill-opacity="0.200000" stroke="#000000" stroke-width="2" stroke-opacity="0.200000" points="996.53,-411.84 1001.63,-408.04 995.27,-407.83 996.53,-411.84"/>
</g>
<!-- packages/util/math/src/fft/array/ftt&#45;core.ts&#45;&gt;packages/util/math/src/fft/typed&#45;array.ts -->
<g id="edge26" class="edge">
<title>packages/util/math/src/fft/array/ftt&#45;core.ts&#45;&gt;packages/util/math/src/fft/typed&#45;array.ts</title>
<path fill="none" stroke="#000000" stroke-width="2" stroke-opacity="0.200000" d="M977.37,-425C1006.3,-425 1049.9,-425 1082.85,-425"/>
<polygon fill="#000000" fill-opacity="0.200000" stroke="#000000" stroke-width="2" stroke-opacity="0.200000" points="1082.87,-427.1 1088.87,-425 1082.87,-422.9 1082.87,-427.1"/>
</g>
<!-- packages/util/math/src/fft/array/root&#45;of&#45;unity.ts -->
<g id="node21" class="node">
<title>packages/util/math/src/fft/array/root&#45;of&#45;unity.ts</title>
<g id="a_node21"><a xlink:href="packages/util/math/src/fft/array/root-of-unity.ts" xlink:title="root&#45;of&#45;unity.ts">
<path fill="#ddfeff" stroke="black" d="M1067,-438C1067,-438 996,-438 996,-438 993,-438 990,-435 990,-432 990,-432 990,-426 990,-426 990,-423 993,-420 996,-420 996,-420 1067,-420 1067,-420 1070,-420 1073,-423 1073,-426 1073,-426 1073,-432 1073,-432 1073,-435 1070,-438 1067,-438"/>
<text text-anchor="start" x="998" y="-426.8" font-family="Helvetica,sans-Serif" font-size="9.00">root&#45;of&#45;unity.ts</text>
</a>
</g>
</g>
<!-- packages/util/math/src/fft/array/ftt&#45;core.ts&#45;&gt;packages/util/math/src/fft/array/root&#45;of&#45;unity.ts -->
<g id="edge28" class="edge">
<title>packages/util/math/src/fft/array/ftt&#45;core.ts&#45;&gt;packages/util/math/src/fft/array/root&#45;of&#45;unity.ts</title>
<path fill="none" stroke="#000000" stroke-width="2" stroke-opacity="0.200000" d="M977.46,-426.44C979.46,-426.54 981.5,-426.64 983.55,-426.74"/>
<polygon fill="#000000" fill-opacity="0.200000" stroke="#000000" stroke-width="2" stroke-opacity="0.200000" points="983.65,-428.84 989.74,-427.04 983.85,-424.65 983.65,-428.84"/>
</g>
<!-- packages/util/math/src/fft/ftt&#45;core.ts&#45;&gt;packages/util/math/src/fft/complex.ts -->
<g id="edge31" class="edge">
<title>packages/util/math/src/fft/ftt&#45;core.ts&#45;&gt;packages/util/math/src/fft/complex.ts</title>
<path fill="none" stroke="#000000" stroke-width="2" stroke-opacity="0.200000" d="M977.37,-493.64C1008.21,-492.29 1055.72,-490.2 1089.23,-488.73"/>
<polygon fill="#000000" fill-opacity="0.200000" stroke="#000000" stroke-width="2" stroke-opacity="0.200000" points="1089.41,-490.82 1095.32,-488.46 1089.23,-486.62 1089.41,-490.82"/>
</g>
<!-- packages/util/math/src/fft/ftt&#45;core.ts&#45;&gt;packages/util/math/src/fft/root&#45;of&#45;unity.ts -->
<g id="edge32" class="edge">
<title>packages/util/math/src/fft/ftt&#45;core.ts&#45;&gt;packages/util/math/src/fft/root&#45;of&#45;unity.ts</title>
<path fill="none" stroke="#000000" stroke-width="2" stroke-opacity="0.200000" d="M977.46,-500.05C979.46,-500.39 981.5,-500.73 983.55,-501.08"/>
<polygon fill="#000000" fill-opacity="0.200000" stroke="#000000" stroke-width="2" stroke-opacity="0.200000" points="983.48,-503.2 989.74,-502.13 984.18,-499.06 983.48,-503.2"/>
</g>
<!-- packages/util/math/src/fft/root&#45;of&#45;unity.ts&#45;&gt;packages/util/math/src/fft/complex.ts -->
<g id="edge36" class="edge">
<title>packages/util/math/src/fft/root&#45;of&#45;unity.ts&#45;&gt;packages/util/math/src/fft/complex.ts</title>
<path fill="none" stroke="#000000" stroke-width="2" stroke-opacity="0.200000" d="M1071.41,-499.99C1077.41,-498.6 1083.59,-497.17 1089.57,-495.78"/>
<polygon fill="#000000" fill-opacity="0.200000" stroke="#000000" stroke-width="2" stroke-opacity="0.200000" points="1090.08,-497.82 1095.46,-494.42 1089.14,-493.73 1090.08,-497.82"/>
</g>
</g>
</svg>
