<?xml version="1.0" encoding="UTF-8" standalone="no"?>
<!DOCTYPE svg PUBLIC "-//W3C//DTD SVG 1.1//EN"
 "http://www.w3.org/Graphics/SVG/1.1/DTD/svg11.dtd">
<!-- Generated by graphviz version 2.43.0 (0)
 -->
<!-- Title: dependency&#45;cruiser output Pages: 1 -->
<svg width="1136pt" height="790pt"
 viewBox="0.00 0.00 1136.00 790.00" xmlns="http://www.w3.org/2000/svg" xmlns:xlink="http://www.w3.org/1999/xlink">
<g id="graph0" class="graph" transform="scale(1 1) rotate(0) translate(4 786)">
<title>dependency&#45;cruiser output</title>
<polygon fill="white" stroke="transparent" points="-4,4 -4,-786 1132,-786 1132,4 -4,4"/>
<g id="clust1" class="cluster">
<title>cluster_packages</title>
<path fill="#ffffff" stroke="black" stroke-width="2" d="M20,-8C20,-8 1108,-8 1108,-8 1114,-8 1120,-14 1120,-20 1120,-20 1120,-762 1120,-762 1120,-768 1114,-774 1108,-774 1108,-774 20,-774 20,-774 14,-774 8,-768 8,-762 8,-762 8,-20 8,-20 8,-14 14,-8 20,-8"/>
<text text-anchor="middle" x="564" y="-762.8" font-family="Helvetica,sans-Serif" font-weight="bold" font-size="9.00">packages</text>
</g>
<g id="clust2" class="cluster">
<title>cluster_packages/UI</title>
<path fill="#ffffff" stroke="black" stroke-width="2" d="M28,-16C28,-16 883,-16 883,-16 889,-16 895,-22 895,-28 895,-28 895,-296 895,-296 895,-302 889,-308 883,-308 883,-308 28,-308 28,-308 22,-308 16,-302 16,-296 16,-296 16,-28 16,-28 16,-22 22,-16 28,-16"/>
<text text-anchor="middle" x="455.5" y="-296.8" font-family="Helvetica,sans-Serif" font-weight="bold" font-size="9.00">UI</text>
</g>
<g id="clust3" class="cluster">
<title>cluster_packages/UI/spectrogram</title>
<path fill="#ffffff" stroke="black" stroke-width="2" d="M36,-24C36,-24 875,-24 875,-24 881,-24 887,-30 887,-36 887,-36 887,-176 887,-176 887,-182 881,-188 875,-188 875,-188 36,-188 36,-188 30,-188 24,-182 24,-176 24,-176 24,-36 24,-36 24,-30 30,-24 36,-24"/>
<text text-anchor="middle" x="455.5" y="-176.8" font-family="Helvetica,sans-Serif" font-weight="bold" font-size="9.00">spectrogram</text>
</g>
<g id="clust4" class="cluster">
<title>cluster_packages/UI/spectrogram/dist</title>
<path fill="#ffffff" stroke="black" stroke-width="2" d="M44,-80C44,-80 96,-80 96,-80 102,-80 108,-86 108,-92 108,-92 108,-150 108,-150 108,-156 102,-162 96,-162 96,-162 44,-162 44,-162 38,-162 32,-156 32,-150 32,-150 32,-92 32,-92 32,-86 38,-80 44,-80"/>
<text text-anchor="middle" x="70" y="-150.8" font-family="Helvetica,sans-Serif" font-weight="bold" font-size="9.00">dist</text>
</g>
<g id="clust5" class="cluster">
<title>cluster_packages/UI/spectrogram/src</title>
<path fill="#ffffff" stroke="black" stroke-width="2" d="M128,-32C128,-32 867,-32 867,-32 873,-32 879,-38 879,-44 879,-44 879,-150 879,-150 879,-156 873,-162 867,-162 867,-162 128,-162 128,-162 122,-162 116,-156 116,-150 116,-150 116,-44 116,-44 116,-38 122,-32 128,-32"/>
<text text-anchor="middle" x="497.5" y="-150.8" font-family="Helvetica,sans-Serif" font-weight="bold" font-size="9.00">src</text>
</g>
<g id="clust6" class="cluster">
<title>cluster_packages/UI/spectrogram/src/audio&#45;analyzer</title>
<path fill="#ffffff" stroke="black" stroke-width="2" d="M426,-40C426,-40 859,-40 859,-40 865,-40 871,-46 871,-52 871,-52 871,-124 871,-124 871,-130 865,-136 859,-136 859,-136 426,-136 426,-136 420,-136 414,-130 414,-124 414,-124 414,-52 414,-52 414,-46 420,-40 426,-40"/>
<text text-anchor="middle" x="642.5" y="-124.8" font-family="Helvetica,sans-Serif" font-weight="bold" font-size="9.00">audio&#45;analyzer</text>
</g>
<g id="clust7" class="cluster">
<title>cluster_packages/UI/view&#45;parameters</title>
<path fill="#ffffff" stroke="black" stroke-width="2" d="M555.5,-196C555.5,-196 634.5,-196 634.5,-196 640.5,-196 646.5,-202 646.5,-208 646.5,-208 646.5,-270 646.5,-270 646.5,-276 640.5,-282 634.5,-282 634.5,-282 555.5,-282 555.5,-282 549.5,-282 543.5,-276 543.5,-270 543.5,-270 543.5,-208 543.5,-208 543.5,-202 549.5,-196 555.5,-196"/>
<text text-anchor="middle" x="595" y="-270.8" font-family="Helvetica,sans-Serif" font-weight="bold" font-size="9.00">view&#45;parameters</text>
</g>
<g id="clust8" class="cluster">
<title>cluster_packages/UI/view&#45;parameters/dist</title>
<path fill="#ffffff" stroke="black" stroke-width="2" d="M571.5,-204C571.5,-204 617.5,-204 617.5,-204 623.5,-204 629.5,-210 629.5,-216 629.5,-216 629.5,-244 629.5,-244 629.5,-250 623.5,-256 617.5,-256 617.5,-256 571.5,-256 571.5,-256 565.5,-256 559.5,-250 559.5,-244 559.5,-244 559.5,-216 559.5,-216 559.5,-210 565.5,-204 571.5,-204"/>
<text text-anchor="middle" x="594.5" y="-244.8" font-family="Helvetica,sans-Serif" font-weight="bold" font-size="9.00">dist</text>
</g>
<g id="clust9" class="cluster">
<title>cluster_packages/UI/view</title>
<path fill="#ffffff" stroke="black" stroke-width="2" d="M437.5,-196C437.5,-196 499.5,-196 499.5,-196 505.5,-196 511.5,-202 511.5,-208 511.5,-208 511.5,-270 511.5,-270 511.5,-276 505.5,-282 499.5,-282 499.5,-282 437.5,-282 437.5,-282 431.5,-282 425.5,-276 425.5,-270 425.5,-270 425.5,-208 425.5,-208 425.5,-202 431.5,-196 437.5,-196"/>
<text text-anchor="middle" x="468.5" y="-270.8" font-family="Helvetica,sans-Serif" font-weight="bold" font-size="9.00">view</text>
</g>
<g id="clust10" class="cluster">
<title>cluster_packages/UI/view/dist</title>
<path fill="#ffffff" stroke="black" stroke-width="2" d="M445.5,-204C445.5,-204 491.5,-204 491.5,-204 497.5,-204 503.5,-210 503.5,-216 503.5,-216 503.5,-244 503.5,-244 503.5,-250 497.5,-256 491.5,-256 491.5,-256 445.5,-256 445.5,-256 439.5,-256 433.5,-250 433.5,-244 433.5,-244 433.5,-216 433.5,-216 433.5,-210 439.5,-204 445.5,-204"/>
<text text-anchor="middle" x="468.5" y="-244.8" font-family="Helvetica,sans-Serif" font-weight="bold" font-size="9.00">dist</text>
</g>
<g id="clust11" class="cluster">
<title>cluster_packages/util</title>
<path fill="#ffffff" stroke="black" stroke-width="2" d="M761,-316C761,-316 1100,-316 1100,-316 1106,-316 1112,-322 1112,-328 1112,-328 1112,-736 1112,-736 1112,-742 1106,-748 1100,-748 1100,-748 761,-748 761,-748 755,-748 749,-742 749,-736 749,-736 749,-328 749,-328 749,-322 755,-316 761,-316"/>
<text text-anchor="middle" x="930.5" y="-736.8" font-family="Helvetica,sans-Serif" font-weight="bold" font-size="9.00">util</text>
</g>
<g id="clust12" class="cluster">
<title>cluster_packages/util/math</title>
<path fill="#ffffff" stroke="black" stroke-width="2" d="M769,-418C769,-418 1092,-418 1092,-418 1098,-418 1104,-424 1104,-430 1104,-430 1104,-616 1104,-616 1104,-622 1098,-628 1092,-628 1092,-628 769,-628 769,-628 763,-628 757,-622 757,-616 757,-616 757,-430 757,-430 757,-424 763,-418 769,-418"/>
<text text-anchor="middle" x="930.5" y="-616.8" font-family="Helvetica,sans-Serif" font-weight="bold" font-size="9.00">math</text>
</g>
<g id="clust13" class="cluster">
<title>cluster_packages/util/math/dist</title>
<path fill="#ffffff" stroke="black" stroke-width="2" d="M785,-550C785,-550 831,-550 831,-550 837,-550 843,-556 843,-562 843,-562 843,-590 843,-590 843,-596 837,-602 831,-602 831,-602 785,-602 785,-602 779,-602 773,-596 773,-590 773,-590 773,-562 773,-562 773,-556 779,-550 785,-550"/>
<text text-anchor="middle" x="808" y="-590.8" font-family="Helvetica,sans-Serif" font-weight="bold" font-size="9.00">dist</text>
</g>
<g id="clust14" class="cluster">
<title>cluster_packages/util/math/fft</title>
<path fill="#ffffff" stroke="black" stroke-width="2" d="M777,-426C777,-426 1084,-426 1084,-426 1090,-426 1096,-432 1096,-438 1096,-438 1096,-530 1096,-530 1096,-536 1090,-542 1084,-542 1084,-542 777,-542 777,-542 771,-542 765,-536 765,-530 765,-530 765,-438 765,-438 765,-432 771,-426 777,-426"/>
<text text-anchor="middle" x="930.5" y="-530.8" font-family="Helvetica,sans-Serif" font-weight="bold" font-size="9.00">fft</text>
</g>
<g id="clust15" class="cluster">
<title>cluster_packages/util/math/fft/array</title>
<path fill="#ffffff" stroke="black" stroke-width="2" d="M785,-434C785,-434 1076,-434 1076,-434 1082,-434 1088,-440 1088,-446 1088,-446 1088,-504 1088,-504 1088,-510 1082,-516 1076,-516 1076,-516 785,-516 785,-516 779,-516 773,-510 773,-504 773,-504 773,-446 773,-446 773,-440 779,-434 785,-434"/>
<text text-anchor="middle" x="930.5" y="-504.8" font-family="Helvetica,sans-Serif" font-weight="bold" font-size="9.00">array</text>
</g>
<g id="clust16" class="cluster">
<title>cluster_packages/util/stdlib</title>
<path fill="#ffffff" stroke="black" stroke-width="2" d="M915,-636C915,-636 977,-636 977,-636 983,-636 989,-642 989,-648 989,-648 989,-710 989,-710 989,-716 983,-722 977,-722 977,-722 915,-722 915,-722 909,-722 903,-716 903,-710 903,-710 903,-648 903,-648 903,-642 909,-636 915,-636"/>
<text text-anchor="middle" x="946" y="-710.8" font-family="Helvetica,sans-Serif" font-weight="bold" font-size="9.00">stdlib</text>
</g>
<g id="clust17" class="cluster">
<title>cluster_packages/util/stdlib/dist</title>
<path fill="#ffffff" stroke="black" stroke-width="2" d="M923,-644C923,-644 969,-644 969,-644 975,-644 981,-650 981,-656 981,-656 981,-684 981,-684 981,-690 975,-696 969,-696 969,-696 923,-696 923,-696 917,-696 911,-690 911,-684 911,-684 911,-656 911,-656 911,-650 917,-644 923,-644"/>
<text text-anchor="middle" x="946" y="-684.8" font-family="Helvetica,sans-Serif" font-weight="bold" font-size="9.00">dist</text>
</g>
<g id="clust18" class="cluster">
<title>cluster_packages/util/time&#45;and</title>
<path fill="#ffffff" stroke="black" stroke-width="2" d="M777,-324C777,-324 839,-324 839,-324 845,-324 851,-330 851,-336 851,-336 851,-398 851,-398 851,-404 845,-410 839,-410 839,-410 777,-410 777,-410 771,-410 765,-404 765,-398 765,-398 765,-336 765,-336 765,-330 771,-324 777,-324"/>
<text text-anchor="middle" x="808" y="-398.8" font-family="Helvetica,sans-Serif" font-weight="bold" font-size="9.00">time&#45;and</text>
</g>
<g id="clust19" class="cluster">
<title>cluster_packages/util/time&#45;and/dist</title>
<path fill="#ffffff" stroke="black" stroke-width="2" d="M785,-332C785,-332 831,-332 831,-332 837,-332 843,-338 843,-344 843,-344 843,-372 843,-372 843,-378 837,-384 831,-384 831,-384 785,-384 785,-384 779,-384 773,-378 773,-372 773,-372 773,-344 773,-344 773,-338 779,-332 785,-332"/>
<text text-anchor="middle" x="808" y="-372.8" font-family="Helvetica,sans-Serif" font-weight="bold" font-size="9.00">dist</text>
</g>
<!-- packages/UI/spectrogram/dist/index.js -->
<g id="node1" class="node">
<title>packages/UI/spectrogram/dist/index.js</title>
<g id="a_node1"><a xlink:href="packages/UI/spectrogram/dist/index.js" xlink:title="index.js">
<path fill="#ffffcc" stroke="black" d="M91,-106C91,-106 49,-106 49,-106 46,-106 43,-103 43,-100 43,-100 43,-94 43,-94 43,-91 46,-88 49,-88 49,-88 91,-88 91,-88 94,-88 97,-91 97,-94 97,-94 97,-100 97,-100 97,-103 94,-106 91,-106"/>
<text text-anchor="start" x="52.5" y="-94.8" font-family="Helvetica,sans-Serif" font-size="9.00">index.js</text>
</a>
</g>
</g>
<!-- packages/util/math/dist/index.js -->
<g id="node2" class="node">
<title>packages/util/math/dist/index.js</title>
<g id="a_node2"><a xlink:href="packages/util/math/dist/index.js" xlink:title="index.js">
<path fill="#ffffcc" stroke="black" d="M829,-576C829,-576 787,-576 787,-576 784,-576 781,-573 781,-570 781,-570 781,-564 781,-564 781,-561 784,-558 787,-558 787,-558 829,-558 829,-558 832,-558 835,-561 835,-564 835,-564 835,-570 835,-570 835,-573 832,-576 829,-576"/>
<text text-anchor="start" x="790.5" y="-564.8" font-family="Helvetica,sans-Serif" font-size="9.00">index.js</text>
</a>
</g>
</g>
<!-- packages/UI/spectrogram/dist/index.js&#45;&gt;packages/util/math/dist/index.js -->
<g id="edge1" class="edge">
<title>packages/UI/spectrogram/dist/index.js&#45;&gt;packages/util/math/dist/index.js</title>
<path fill="none" stroke="#000000" stroke-width="2" stroke-opacity="0.200000" d="M97.11,-103.19C101.36,-105.31 105.25,-108.17 108,-112 125.89,-136.97 105.02,-221.31 116,-250 135.11,-299.91 147.57,-312.84 191,-344 216.39,-362.22 652.24,-513.53 775.04,-555.97"/>
<polygon fill="#000000" fill-opacity="0.200000" stroke="#000000" stroke-width="2" stroke-opacity="0.200000" points="774.63,-558.05 780.98,-558.03 776,-554.08 774.63,-558.05"/>
</g>
<!-- packages/util/math/fft/array/index.ts -->
<g id="node3" class="node">
<title>packages/util/math/fft/array/index.ts</title>
<g id="a_node3"><a xlink:href="packages/util/math/fft/array/index.ts" xlink:title="index.ts">
<path fill="#ddfeff" stroke="black" d="M829,-460C829,-460 787,-460 787,-460 784,-460 781,-457 781,-454 781,-454 781,-448 781,-448 781,-445 784,-442 787,-442 787,-442 829,-442 829,-442 832,-442 835,-445 835,-448 835,-448 835,-454 835,-454 835,-457 832,-460 829,-460"/>
<text text-anchor="start" x="789.5" y="-448.8" font-family="Helvetica,sans-Serif" font-size="9.00">index.ts</text>
</a>
</g>
</g>
<!-- packages/UI/spectrogram/dist/index.js&#45;&gt;packages/util/math/fft/array/index.ts -->
<g id="edge2" class="edge">
<title>packages/UI/spectrogram/dist/index.js&#45;&gt;packages/util/math/fft/array/index.ts</title>
<path fill="none" stroke="#000000" stroke-width="2" stroke-opacity="0.200000" d="M97.21,-103.59C101.34,-105.67 105.17,-108.41 108,-112 122.75,-130.71 107.53,-142.73 116,-165 149.74,-253.72 137.58,-344 232.5,-344 232.5,-344 232.5,-344 595.5,-344 677.53,-344 760.05,-408.87 792.56,-437.59"/>
<polygon fill="#000000" fill-opacity="0.200000" stroke="#000000" stroke-width="2" stroke-opacity="0.200000" points="791.47,-439.44 797.34,-441.88 794.27,-436.31 791.47,-439.44"/>
</g>
<!-- packages/util/stdlib/dist/index.js -->
<g id="node20" class="node">
<title>packages/util/stdlib/dist/index.js</title>
<g id="a_node20"><a xlink:href="packages/util/stdlib/dist/index.js" xlink:title="index.js">
<path fill="#ffffcc" stroke="black" d="M967,-670C967,-670 925,-670 925,-670 922,-670 919,-667 919,-664 919,-664 919,-658 919,-658 919,-655 922,-652 925,-652 925,-652 967,-652 967,-652 970,-652 973,-655 973,-658 973,-658 973,-664 973,-664 973,-667 970,-670 967,-670"/>
<text text-anchor="start" x="928.5" y="-658.8" font-family="Helvetica,sans-Serif" font-size="9.00">index.js</text>
</a>
</g>
</g>
<!-- packages/util/math/dist/index.js&#45;&gt;packages/util/stdlib/dist/index.js -->
<g id="edge29" class="edge">
<title>packages/util/math/dist/index.js&#45;&gt;packages/util/stdlib/dist/index.js</title>
<path fill="none" stroke="#000000" stroke-width="2" stroke-opacity="0.200000" d="M822.04,-576.01C846.35,-592.81 898.64,-628.96 926.56,-648.25"/>
<polygon fill="#000000" fill-opacity="0.200000" stroke="#000000" stroke-width="2" stroke-opacity="0.200000" points="925.67,-650.19 931.8,-651.88 928.06,-646.74 925.67,-650.19"/>
</g>
<!-- packages/util/math/fft/array/complex.ts -->
<g id="node21" class="node">
<title>packages/util/math/fft/array/complex.ts</title>
<g id="a_node21"><a xlink:href="packages/util/math/fft/array/complex.ts" xlink:title="complex.ts">
<path fill="#ddfeff" stroke="black" d="M1065.5,-490C1065.5,-490 1011.5,-490 1011.5,-490 1008.5,-490 1005.5,-487 1005.5,-484 1005.5,-484 1005.5,-478 1005.5,-478 1005.5,-475 1008.5,-472 1011.5,-472 1011.5,-472 1065.5,-472 1065.5,-472 1068.5,-472 1071.5,-475 1071.5,-478 1071.5,-478 1071.5,-484 1071.5,-484 1071.5,-487 1068.5,-490 1065.5,-490"/>
<text text-anchor="start" x="1013.5" y="-478.8" font-family="Helvetica,sans-Serif" font-size="9.00">complex.ts</text>
</a>
</g>
</g>
<!-- packages/util/math/fft/array/index.ts&#45;&gt;packages/util/math/fft/array/complex.ts -->
<g id="edge32" class="edge">
<title>packages/util/math/fft/array/index.ts&#45;&gt;packages/util/math/fft/array/complex.ts</title>
<path fill="none" stroke="#000000" stroke-width="2" stroke-opacity="0.200000" d="M835.29,-455.54C854.11,-458.7 880.07,-462.89 903,-466 935.33,-470.38 972.16,-474.42 999.1,-477.2"/>
<polygon fill="#000000" fill-opacity="0.200000" stroke="#000000" stroke-width="2" stroke-opacity="0.200000" points="999.2,-479.32 1005.38,-477.85 999.63,-475.15 999.2,-479.32"/>
</g>
<!-- packages/util/math/fft/array/ftt&#45;core.ts -->
<g id="node22" class="node">
<title>packages/util/math/fft/array/ftt&#45;core.ts</title>
<g id="a_node22"><a xlink:href="packages/util/math/fft/array/ftt-core.ts" xlink:title="ftt&#45;core.ts">
<path fill="#ddfeff" stroke="black" d="M970.5,-460C970.5,-460 921.5,-460 921.5,-460 918.5,-460 915.5,-457 915.5,-454 915.5,-454 915.5,-448 915.5,-448 915.5,-445 918.5,-442 921.5,-442 921.5,-442 970.5,-442 970.5,-442 973.5,-442 976.5,-445 976.5,-448 976.5,-448 976.5,-454 976.5,-454 976.5,-457 973.5,-460 970.5,-460"/>
<text text-anchor="start" x="923.5" y="-448.8" font-family="Helvetica,sans-Serif" font-size="9.00">ftt&#45;core.ts</text>
</a>
</g>
</g>
<!-- packages/util/math/fft/array/index.ts&#45;&gt;packages/util/math/fft/array/ftt&#45;core.ts -->
<g id="edge33" class="edge">
<title>packages/util/math/fft/array/index.ts&#45;&gt;packages/util/math/fft/array/ftt&#45;core.ts</title>
<path fill="none" stroke="#000000" stroke-width="2" stroke-opacity="0.200000" d="M835.22,-451C856.2,-451 885.83,-451 909.02,-451"/>
<polygon fill="#000000" fill-opacity="0.200000" stroke="#000000" stroke-width="2" stroke-opacity="0.200000" points="909.07,-453.1 915.07,-451 909.07,-448.9 909.07,-453.1"/>
</g>
<!-- packages/UI/spectrogram/dist/index.mjs -->
<g id="node4" class="node">
<title>packages/UI/spectrogram/dist/index.mjs</title>
<g id="a_node4"><a xlink:href="packages/UI/spectrogram/dist/index.mjs" xlink:title="index.mjs">
<path fill="#ffffcc" stroke="black" d="M94,-136C94,-136 46,-136 46,-136 43,-136 40,-133 40,-130 40,-130 40,-124 40,-124 40,-121 43,-118 46,-118 46,-118 94,-118 94,-118 97,-118 100,-121 100,-124 100,-124 100,-130 100,-130 100,-133 97,-136 94,-136"/>
<text text-anchor="start" x="48" y="-124.8" font-family="Helvetica,sans-Serif" font-size="9.00">index.mjs</text>
</a>
</g>
</g>
<!-- packages/UI/spectrogram/dist/index.mjs&#45;&gt;packages/util/math/dist/index.js -->
<g id="edge3" class="edge">
<title>packages/UI/spectrogram/dist/index.mjs&#45;&gt;packages/util/math/dist/index.js</title>
<path fill="none" stroke="#000000" stroke-width="2" stroke-opacity="0.200000" d="M71.45,-136.06C73.87,-181.66 86.2,-386.06 116,-441 148.81,-501.49 163.68,-543 232.5,-543 232.5,-543 232.5,-543 595.5,-543 659.3,-543 733.23,-553.91 774.62,-561.02"/>
<polygon fill="#000000" fill-opacity="0.200000" stroke="#000000" stroke-width="2" stroke-opacity="0.200000" points="774.46,-563.13 780.73,-562.09 775.18,-558.99 774.46,-563.13"/>
</g>
<!-- packages/UI/spectrogram/dist/index.mjs&#45;&gt;packages/util/math/fft/array/index.ts -->
<g id="edge4" class="edge">
<title>packages/UI/spectrogram/dist/index.mjs&#45;&gt;packages/util/math/fft/array/index.ts</title>
<path fill="none" stroke="#000000" stroke-width="2" stroke-opacity="0.200000" d="M70.92,-136.13C70.71,-182.03 72.28,-386.95 116,-428 153.88,-463.58 180.53,-438 232.5,-438 232.5,-438 232.5,-438 595.5,-438 659.76,-438 675.93,-438.08 740,-443 751.43,-443.88 763.92,-445.25 774.98,-446.62"/>
<polygon fill="#000000" fill-opacity="0.200000" stroke="#000000" stroke-width="2" stroke-opacity="0.200000" points="774.74,-448.71 780.96,-447.37 775.27,-444.54 774.74,-448.71"/>
</g>
<!-- packages/UI/spectrogram/index.ts -->
<g id="node5" class="node">
<title>packages/UI/spectrogram/index.ts</title>
<g id="a_node5"><a xlink:href="packages/UI/spectrogram/index.ts" xlink:title="index.ts">
<path fill="#ddfeff" stroke="black" d="M91,-72C91,-72 49,-72 49,-72 46,-72 43,-69 43,-66 43,-66 43,-60 43,-60 43,-57 46,-54 49,-54 49,-54 91,-54 91,-54 94,-54 97,-57 97,-60 97,-60 97,-66 97,-66 97,-69 94,-72 91,-72"/>
<text text-anchor="start" x="51.5" y="-60.8" font-family="Helvetica,sans-Serif" font-size="9.00">index.ts</text>
</a>
</g>
</g>
<!-- packages/UI/spectrogram/src/index.ts -->
<g id="node6" class="node">
<title>packages/UI/spectrogram/src/index.ts</title>
<g id="a_node6"><a xlink:href="packages/UI/spectrogram/src/index.ts" xlink:title="index.ts">
<path fill="#ddfeff" stroke="black" d="M172,-89C172,-89 130,-89 130,-89 127,-89 124,-86 124,-83 124,-83 124,-77 124,-77 124,-74 127,-71 130,-71 130,-71 172,-71 172,-71 175,-71 178,-74 178,-77 178,-77 178,-83 178,-83 178,-86 175,-89 172,-89"/>
<text text-anchor="start" x="132.5" y="-77.8" font-family="Helvetica,sans-Serif" font-size="9.00">index.ts</text>
</a>
</g>
</g>
<!-- packages/UI/spectrogram/index.ts&#45;&gt;packages/UI/spectrogram/src/index.ts -->
<g id="edge5" class="edge">
<title>packages/UI/spectrogram/index.ts&#45;&gt;packages/UI/spectrogram/src/index.ts</title>
<path fill="none" stroke="#000000" stroke-width="2" stroke-opacity="0.200000" d="M97.31,-68.66C103.84,-70.07 110.91,-71.59 117.69,-73.05"/>
<polygon fill="#000000" fill-opacity="0.200000" stroke="#000000" stroke-width="2" stroke-opacity="0.200000" points="123.37,-76.42 117.94,-73.1 124.25,-72.31 123.37,-76.42"/>
</g>
<!-- packages/UI/spectrogram/src/audio&#45;viewer.ts -->
<g id="node13" class="node">
<title>packages/UI/spectrogram/src/audio&#45;viewer.ts</title>
<g id="a_node13"><a xlink:href="packages/UI/spectrogram/src/audio-viewer.ts" xlink:title="audio&#45;viewer.ts">
<path fill="#ddfeff" stroke="black" d="M270,-91C270,-91 197,-91 197,-91 194,-91 191,-88 191,-85 191,-85 191,-79 191,-79 191,-76 194,-73 197,-73 197,-73 270,-73 270,-73 273,-73 276,-76 276,-79 276,-79 276,-85 276,-85 276,-88 273,-91 270,-91"/>
<text text-anchor="start" x="199" y="-79.8" font-family="Helvetica,sans-Serif" font-size="9.00">audio&#45;viewer.ts</text>
</a>
</g>
</g>
<!-- packages/UI/spectrogram/src/index.ts&#45;&gt;packages/UI/spectrogram/src/audio&#45;viewer.ts -->
<g id="edge20" class="edge">
<title>packages/UI/spectrogram/src/index.ts&#45;&gt;packages/UI/spectrogram/src/audio&#45;viewer.ts</title>
<path fill="none" stroke="#000000" stroke-width="2" stroke-opacity="0.200000" d="M178.36,-80.65C180.38,-80.71 182.45,-80.76 184.55,-80.81"/>
<polygon fill="#000000" fill-opacity="0.200000" stroke="#000000" stroke-width="2" stroke-opacity="0.200000" points="190.86,-83.07 184.91,-80.82 190.96,-78.87 190.86,-83.07"/>
</g>
<!-- packages/UI/spectrogram/src/audio&#45;analyzer/audio&#45;analyzer.ts -->
<g id="node7" class="node">
<title>packages/UI/spectrogram/src/audio&#45;analyzer/audio&#45;analyzer.ts</title>
<g id="a_node7"><a xlink:href="packages/UI/spectrogram/src/audio-analyzer/audio-analyzer.ts" xlink:title="audio&#45;analyzer.ts">
<path fill="#ddfeff" stroke="black" d="M635,-84C635,-84 554,-84 554,-84 551,-84 548,-81 548,-78 548,-78 548,-72 548,-72 548,-69 551,-66 554,-66 554,-66 635,-66 635,-66 638,-66 641,-69 641,-72 641,-72 641,-78 641,-78 641,-81 638,-84 635,-84"/>
<text text-anchor="start" x="556" y="-72.8" font-family="Helvetica,sans-Serif" font-size="9.00">audio&#45;analyzer.ts</text>
</a>
</g>
</g>
<!-- packages/UI/spectrogram/src/audio&#45;analyzer/connect.ts -->
<g id="node8" class="node">
<title>packages/UI/spectrogram/src/audio&#45;analyzer/connect.ts</title>
<g id="a_node8"><a xlink:href="packages/UI/spectrogram/src/audio-analyzer/connect.ts" xlink:title="connect.ts">
<path fill="#ddfeff" stroke="black" d="M734,-66C734,-66 681,-66 681,-66 678,-66 675,-63 675,-60 675,-60 675,-54 675,-54 675,-51 678,-48 681,-48 681,-48 734,-48 734,-48 737,-48 740,-51 740,-54 740,-54 740,-60 740,-60 740,-63 737,-66 734,-66"/>
<text text-anchor="start" x="683" y="-54.8" font-family="Helvetica,sans-Serif" font-size="9.00">connect.ts</text>
</a>
</g>
</g>
<!-- packages/UI/spectrogram/src/audio&#45;analyzer/audio&#45;analyzer.ts&#45;&gt;packages/UI/spectrogram/src/audio&#45;analyzer/connect.ts -->
<g id="edge6" class="edge">
<title>packages/UI/spectrogram/src/audio&#45;analyzer/audio&#45;analyzer.ts&#45;&gt;packages/UI/spectrogram/src/audio&#45;analyzer/connect.ts</title>
<path fill="none" stroke="#000000" stroke-width="2" stroke-opacity="0.200000" d="M641.29,-67.57C650.41,-66.1 659.89,-64.56 668.71,-63.13"/>
<polygon fill="#000000" fill-opacity="0.200000" stroke="#000000" stroke-width="2" stroke-opacity="0.200000" points="669.11,-65.19 674.7,-62.16 668.44,-61.04 669.11,-65.19"/>
</g>
<!-- packages/UI/spectrogram/src/audio&#45;analyzer/get&#45;data&#45;on&#45;buffer.ts -->
<g id="node9" class="node">
<title>packages/UI/spectrogram/src/audio&#45;analyzer/get&#45;data&#45;on&#45;buffer.ts</title>
<g id="a_node9"><a xlink:href="packages/UI/spectrogram/src/audio-analyzer/get-data-on-buffer.ts" xlink:title="get&#45;data&#45;on&#45;buffer.ts">
<path fill="#ddfeff" stroke="black" d="M857,-99C857,-99 759,-99 759,-99 756,-99 753,-96 753,-93 753,-93 753,-87 753,-87 753,-84 756,-81 759,-81 759,-81 857,-81 857,-81 860,-81 863,-84 863,-87 863,-87 863,-93 863,-93 863,-96 860,-99 857,-99"/>
<text text-anchor="start" x="761" y="-87.8" font-family="Helvetica,sans-Serif" font-size="9.00">get&#45;data&#45;on&#45;buffer.ts</text>
</a>
</g>
</g>
<!-- packages/UI/spectrogram/src/audio&#45;analyzer/audio&#45;analyzer.ts&#45;&gt;packages/UI/spectrogram/src/audio&#45;analyzer/get&#45;data&#45;on&#45;buffer.ts -->
<g id="edge7" class="edge">
<title>packages/UI/spectrogram/src/audio&#45;analyzer/audio&#45;analyzer.ts&#45;&gt;packages/UI/spectrogram/src/audio&#45;analyzer/get&#45;data&#45;on&#45;buffer.ts</title>
<path fill="none" stroke="#000000" stroke-width="2" stroke-opacity="0.200000" d="M641.13,-78.24C672,-80.43 713.1,-83.34 746.66,-85.72"/>
<polygon fill="#000000" fill-opacity="0.200000" stroke="#000000" stroke-width="2" stroke-opacity="0.200000" points="746.7,-87.83 752.84,-86.16 747,-83.64 746.7,-87.83"/>
</g>
<!-- packages/UI/spectrogram/src/audio&#45;analyzer/get&#45;fft.ts -->
<g id="node10" class="node">
<title>packages/UI/spectrogram/src/audio&#45;analyzer/get&#45;fft.ts</title>
<g id="a_node10"><a xlink:href="packages/UI/spectrogram/src/audio-analyzer/get-fft.ts" xlink:title="get&#45;fft.ts">
<path fill="#ddfeff" stroke="black" d="M729.5,-110C729.5,-110 685.5,-110 685.5,-110 682.5,-110 679.5,-107 679.5,-104 679.5,-104 679.5,-98 679.5,-98 679.5,-95 682.5,-92 685.5,-92 685.5,-92 729.5,-92 729.5,-92 732.5,-92 735.5,-95 735.5,-98 735.5,-98 735.5,-104 735.5,-104 735.5,-107 732.5,-110 729.5,-110"/>
<text text-anchor="start" x="687.5" y="-98.8" font-family="Helvetica,sans-Serif" font-size="9.00">get&#45;fft.ts</text>
</a>
</g>
</g>
<!-- packages/UI/spectrogram/src/audio&#45;analyzer/audio&#45;analyzer.ts&#45;&gt;packages/UI/spectrogram/src/audio&#45;analyzer/get&#45;fft.ts -->
<g id="edge8" class="edge">
<title>packages/UI/spectrogram/src/audio&#45;analyzer/audio&#45;analyzer.ts&#45;&gt;packages/UI/spectrogram/src/audio&#45;analyzer/get&#45;fft.ts</title>
<path fill="none" stroke="#000000" stroke-width="2" stroke-opacity="0.200000" d="M634.01,-84.02C646.82,-87.02 660.96,-90.33 673.33,-93.23"/>
<polygon fill="#000000" fill-opacity="0.200000" stroke="#000000" stroke-width="2" stroke-opacity="0.200000" points="672.92,-95.29 679.24,-94.62 673.88,-91.2 672.92,-95.29"/>
</g>
<!-- packages/UI/spectrogram/src/audio&#45;analyzer/get&#45;fft.ts&#45;&gt;packages/util/math/fft/array/index.ts -->
<g id="edge10" class="edge">
<title>packages/UI/spectrogram/src/audio&#45;analyzer/get&#45;fft.ts&#45;&gt;packages/util/math/fft/array/index.ts</title>
<path fill="none" stroke="#000000" stroke-width="2" stroke-opacity="0.200000" d="M709.63,-110.05C715.55,-157.31 742.93,-374.06 749,-387 758.64,-407.56 777.16,-426.18 790.69,-437.97"/>
<polygon fill="#000000" fill-opacity="0.200000" stroke="#000000" stroke-width="2" stroke-opacity="0.200000" points="789.49,-439.71 795.43,-442 792.22,-436.51 789.49,-439.71"/>
</g>
<!-- packages/UI/spectrogram/src/audio&#45;analyzer/get&#45;fft.ts&#45;&gt;packages/UI/spectrogram/src/audio&#45;analyzer/get&#45;data&#45;on&#45;buffer.ts -->
<g id="edge9" class="edge">
<title>packages/UI/spectrogram/src/audio&#45;analyzer/get&#45;fft.ts&#45;&gt;packages/UI/spectrogram/src/audio&#45;analyzer/get&#45;data&#45;on&#45;buffer.ts</title>
<path fill="none" stroke="#000000" stroke-width="2" stroke-opacity="0.200000" d="M735.68,-97.97C739.19,-97.57 742.89,-97.16 746.68,-96.74"/>
<polygon fill="#000000" fill-opacity="0.200000" stroke="#000000" stroke-width="2" stroke-opacity="0.200000" points="746.98,-98.82 752.71,-96.06 746.51,-94.64 746.98,-98.82"/>
</g>
<!-- packages/UI/spectrogram/src/audio&#45;analyzer/cosine&#45;window.ts -->
<g id="node11" class="node">
<title>packages/UI/spectrogram/src/audio&#45;analyzer/cosine&#45;window.ts</title>
<g id="a_node11"><a xlink:href="packages/UI/spectrogram/src/audio-analyzer/cosine-window.ts" xlink:title="no&#45;orphans">
<path fill="#ccffcc" stroke="orange" d="M509,-110C509,-110 428,-110 428,-110 425,-110 422,-107 422,-104 422,-104 422,-98 422,-98 422,-95 425,-92 428,-92 428,-92 509,-92 509,-92 512,-92 515,-95 515,-98 515,-98 515,-104 515,-104 515,-107 512,-110 509,-110"/>
<text text-anchor="start" x="430" y="-98.8" font-family="Helvetica,sans-Serif" font-size="9.00" fill="orange">cosine&#45;window.ts</text>
</a>
</g>
</g>
<!-- packages/UI/spectrogram/src/audio&#45;analyzer/index.ts -->
<g id="node12" class="node">
<title>packages/UI/spectrogram/src/audio&#45;analyzer/index.ts</title>
<g id="a_node12"><a xlink:href="packages/UI/spectrogram/src/audio-analyzer/index.ts" xlink:title="index.ts">
<path fill="#ddfeff" stroke="black" d="M489.5,-80C489.5,-80 447.5,-80 447.5,-80 444.5,-80 441.5,-77 441.5,-74 441.5,-74 441.5,-68 441.5,-68 441.5,-65 444.5,-62 447.5,-62 447.5,-62 489.5,-62 489.5,-62 492.5,-62 495.5,-65 495.5,-68 495.5,-68 495.5,-74 495.5,-74 495.5,-77 492.5,-80 489.5,-80"/>
<text text-anchor="start" x="450" y="-68.8" font-family="Helvetica,sans-Serif" font-size="9.00">index.ts</text>
</a>
</g>
</g>
<!-- packages/UI/spectrogram/src/audio&#45;analyzer/index.ts&#45;&gt;packages/UI/spectrogram/src/audio&#45;analyzer/audio&#45;analyzer.ts -->
<g id="edge11" class="edge">
<title>packages/UI/spectrogram/src/audio&#45;analyzer/index.ts&#45;&gt;packages/UI/spectrogram/src/audio&#45;analyzer/audio&#45;analyzer.ts</title>
<path fill="none" stroke="#000000" stroke-width="2" stroke-opacity="0.200000" d="M495.8,-71.85C509.1,-72.28 525.74,-72.81 541.49,-73.32"/>
<polygon fill="#000000" fill-opacity="0.200000" stroke="#000000" stroke-width="2" stroke-opacity="0.200000" points="547.63,-75.62 541.7,-73.33 547.77,-71.42 547.63,-75.62"/>
</g>
<!-- packages/UI/spectrogram/src/audio&#45;viewer.ts&#45;&gt;packages/UI/spectrogram/src/audio&#45;analyzer/index.ts -->
<g id="edge12" class="edge">
<title>packages/UI/spectrogram/src/audio&#45;viewer.ts&#45;&gt;packages/UI/spectrogram/src/audio&#45;analyzer/index.ts</title>
<path fill="none" stroke="#000000" stroke-width="2" stroke-opacity="0.200000" d="M246.72,-72.9C257.29,-65.64 273.31,-56.03 289,-52 339.36,-39.05 354.58,-44.24 406,-52 416.71,-53.62 428.14,-56.74 438.19,-59.99"/>
<polygon fill="#000000" fill-opacity="0.200000" stroke="#000000" stroke-width="2" stroke-opacity="0.200000" points="437.58,-62 443.94,-61.9 438.91,-58.01 437.58,-62"/>
</g>
<!-- packages/UI/spectrogram/src/fft&#45;viewer.ts -->
<g id="node14" class="node">
<title>packages/UI/spectrogram/src/fft&#45;viewer.ts</title>
<g id="a_node14"><a xlink:href="packages/UI/spectrogram/src/fft-viewer.ts" xlink:title="fft&#45;viewer.ts">
<path fill="#ddfeff" stroke="black" d="M376,-106C376,-106 319,-106 319,-106 316,-106 313,-103 313,-100 313,-100 313,-94 313,-94 313,-91 316,-88 319,-88 319,-88 376,-88 376,-88 379,-88 382,-91 382,-94 382,-94 382,-100 382,-100 382,-103 379,-106 376,-106"/>
<text text-anchor="start" x="321" y="-94.8" font-family="Helvetica,sans-Serif" font-size="9.00">fft&#45;viewer.ts</text>
</a>
</g>
</g>
<!-- packages/UI/spectrogram/src/audio&#45;viewer.ts&#45;&gt;packages/UI/spectrogram/src/fft&#45;viewer.ts -->
<g id="edge13" class="edge">
<title>packages/UI/spectrogram/src/audio&#45;viewer.ts&#45;&gt;packages/UI/spectrogram/src/fft&#45;viewer.ts</title>
<path fill="none" stroke="#000000" stroke-width="2" stroke-opacity="0.200000" d="M276.2,-87.59C286.2,-88.92 296.84,-90.35 306.74,-91.68"/>
<polygon fill="#000000" fill-opacity="0.200000" stroke="#000000" stroke-width="2" stroke-opacity="0.200000" points="306.57,-93.77 312.8,-92.49 307.13,-89.61 306.57,-93.77"/>
</g>
<!-- packages/UI/spectrogram/src/spectrogram&#45;viewer.ts -->
<g id="node15" class="node">
<title>packages/UI/spectrogram/src/spectrogram&#45;viewer.ts</title>
<g id="a_node15"><a xlink:href="packages/UI/spectrogram/src/spectrogram-viewer.ts" xlink:title="spectrogram&#45;viewer.ts">
<path fill="#ddfeff" stroke="black" d="M400,-76C400,-76 295,-76 295,-76 292,-76 289,-73 289,-70 289,-70 289,-64 289,-64 289,-61 292,-58 295,-58 295,-58 400,-58 400,-58 403,-58 406,-61 406,-64 406,-64 406,-70 406,-70 406,-73 403,-76 400,-76"/>
<text text-anchor="start" x="297" y="-64.8" font-family="Helvetica,sans-Serif" font-size="9.00">spectrogram&#45;viewer.ts</text>
</a>
</g>
</g>
<!-- packages/UI/spectrogram/src/audio&#45;viewer.ts&#45;&gt;packages/UI/spectrogram/src/spectrogram&#45;viewer.ts -->
<g id="edge14" class="edge">
<title>packages/UI/spectrogram/src/audio&#45;viewer.ts&#45;&gt;packages/UI/spectrogram/src/spectrogram&#45;viewer.ts</title>
<path fill="none" stroke="#000000" stroke-width="2" stroke-opacity="0.200000" d="M276.2,-76.41C278.26,-76.14 280.34,-75.86 282.43,-75.58"/>
<polygon fill="#000000" fill-opacity="0.200000" stroke="#000000" stroke-width="2" stroke-opacity="0.200000" points="283.08,-77.61 288.75,-74.73 282.53,-73.45 283.08,-77.61"/>
</g>
<!-- packages/UI/spectrogram/src/wave&#45;viewer.ts -->
<g id="node16" class="node">
<title>packages/UI/spectrogram/src/wave&#45;viewer.ts</title>
<g id="a_node16"><a xlink:href="packages/UI/spectrogram/src/wave-viewer.ts" xlink:title="wave&#45;viewer.ts">
<path fill="#ddfeff" stroke="black" d="M383,-136C383,-136 312,-136 312,-136 309,-136 306,-133 306,-130 306,-130 306,-124 306,-124 306,-121 309,-118 312,-118 312,-118 383,-118 383,-118 386,-118 389,-121 389,-124 389,-124 389,-130 389,-130 389,-133 386,-136 383,-136"/>
<text text-anchor="start" x="314" y="-124.8" font-family="Helvetica,sans-Serif" font-size="9.00">wave&#45;viewer.ts</text>
</a>
</g>
</g>
<!-- packages/UI/spectrogram/src/audio&#45;viewer.ts&#45;&gt;packages/UI/spectrogram/src/wave&#45;viewer.ts -->
<g id="edge15" class="edge">
<title>packages/UI/spectrogram/src/audio&#45;viewer.ts&#45;&gt;packages/UI/spectrogram/src/wave&#45;viewer.ts</title>
<path fill="none" stroke="#000000" stroke-width="2" stroke-opacity="0.200000" d="M248.82,-91.17C259.54,-97.71 274.75,-106.32 289,-112 292.73,-113.49 296.66,-114.87 300.64,-116.15"/>
<polygon fill="#000000" fill-opacity="0.200000" stroke="#000000" stroke-width="2" stroke-opacity="0.200000" points="300.14,-118.19 306.49,-117.94 301.37,-114.17 300.14,-118.19"/>
</g>
<!-- packages/UI/view/dist/index.js -->
<g id="node17" class="node">
<title>packages/UI/view/dist/index.js</title>
<g id="a_node17"><a xlink:href="packages/UI/view/dist/index.js" xlink:title="index.js">
<path fill="#ffffcc" stroke="black" d="M489.5,-230C489.5,-230 447.5,-230 447.5,-230 444.5,-230 441.5,-227 441.5,-224 441.5,-224 441.5,-218 441.5,-218 441.5,-215 444.5,-212 447.5,-212 447.5,-212 489.5,-212 489.5,-212 492.5,-212 495.5,-215 495.5,-218 495.5,-218 495.5,-224 495.5,-224 495.5,-227 492.5,-230 489.5,-230"/>
<text text-anchor="start" x="451" y="-218.8" font-family="Helvetica,sans-Serif" font-size="9.00">index.js</text>
</a>
</g>
</g>
<!-- packages/UI/spectrogram/src/audio&#45;viewer.ts&#45;&gt;packages/UI/view/dist/index.js -->
<g id="edge16" class="edge">
<title>packages/UI/spectrogram/src/audio&#45;viewer.ts&#45;&gt;packages/UI/view/dist/index.js</title>
<path fill="none" stroke="#000000" stroke-width="2" stroke-opacity="0.200000" d="M240.94,-91.23C250.27,-104.06 268.69,-127.34 289,-142 335.3,-175.41 397.98,-199.06 435.42,-211.33"/>
<polygon fill="#000000" fill-opacity="0.200000" stroke="#000000" stroke-width="2" stroke-opacity="0.200000" points="434.85,-213.35 441.2,-213.2 436.14,-209.36 434.85,-213.35"/>
</g>
<!-- packages/UI/spectrogram/src/fft&#45;viewer.ts&#45;&gt;packages/util/math/dist/index.js -->
<g id="edge18" class="edge">
<title>packages/UI/spectrogram/src/fft&#45;viewer.ts&#45;&gt;packages/util/math/dist/index.js</title>
<path fill="none" stroke="#000000" stroke-width="2" stroke-opacity="0.200000" d="M382.27,-98.67C391.27,-100.82 400.13,-104.81 406,-112 426.7,-137.34 396.61,-231.29 414,-259 501.96,-399.2 648.03,-301.4 740,-439 759.88,-468.75 731.98,-487.53 749,-519 757.16,-534.09 772.2,-546.32 784.92,-554.66"/>
<polygon fill="#000000" fill-opacity="0.200000" stroke="#000000" stroke-width="2" stroke-opacity="0.200000" points="784,-556.57 790.2,-558 786.25,-553.02 784,-556.57"/>
</g>
<!-- packages/UI/spectrogram/src/fft&#45;viewer.ts&#45;&gt;packages/UI/spectrogram/src/audio&#45;analyzer/index.ts -->
<g id="edge17" class="edge">
<title>packages/UI/spectrogram/src/fft&#45;viewer.ts&#45;&gt;packages/UI/spectrogram/src/audio&#45;analyzer/index.ts</title>
<path fill="none" stroke="#000000" stroke-width="2" stroke-opacity="0.200000" d="M382.28,-89.62C398.93,-85.98 418.9,-81.62 435.32,-78.03"/>
<polygon fill="#000000" fill-opacity="0.200000" stroke="#000000" stroke-width="2" stroke-opacity="0.200000" points="435.79,-80.08 441.2,-76.75 434.89,-75.98 435.79,-80.08"/>
</g>
<!-- packages/UI/spectrogram/src/fft&#45;viewer.ts&#45;&gt;packages/UI/view/dist/index.js -->
<g id="edge19" class="edge">
<title>packages/UI/spectrogram/src/fft&#45;viewer.ts&#45;&gt;packages/UI/view/dist/index.js</title>
<path fill="none" stroke="#000000" stroke-width="2" stroke-opacity="0.200000" d="M382.16,-99.82C390.84,-102.03 399.55,-105.76 406,-112 414.99,-120.7 408.75,-127.64 414,-139 425.79,-164.51 444.66,-191.26 456.55,-207.02"/>
<polygon fill="#000000" fill-opacity="0.200000" stroke="#000000" stroke-width="2" stroke-opacity="0.200000" points="454.99,-208.43 460.3,-211.93 458.33,-205.88 454.99,-208.43"/>
</g>
<!-- packages/UI/spectrogram/src/spectrogram&#45;viewer.ts&#45;&gt;packages/UI/spectrogram/src/audio&#45;analyzer/index.ts -->
<g id="edge21" class="edge">
<title>packages/UI/spectrogram/src/spectrogram&#45;viewer.ts&#45;&gt;packages/UI/spectrogram/src/audio&#45;analyzer/index.ts</title>
<path fill="none" stroke="#000000" stroke-width="2" stroke-opacity="0.200000" d="M406.26,-68.94C416.26,-69.28 426.34,-69.62 435.34,-69.92"/>
<polygon fill="#000000" fill-opacity="0.200000" stroke="#000000" stroke-width="2" stroke-opacity="0.200000" points="435.33,-72.02 441.39,-70.12 435.47,-67.82 435.33,-72.02"/>
</g>
<!-- packages/UI/spectrogram/src/spectrogram&#45;viewer.ts&#45;&gt;packages/UI/view/dist/index.js -->
<g id="edge22" class="edge">
<title>packages/UI/spectrogram/src/spectrogram&#45;viewer.ts&#45;&gt;packages/UI/view/dist/index.js</title>
<path fill="none" stroke="#000000" stroke-width="2" stroke-opacity="0.200000" d="M399,-76.03C401.58,-77.71 403.94,-79.69 406,-82 423.01,-101.1 405.02,-115.05 414,-139 423.76,-165.03 442.88,-191.26 455.42,-206.82"/>
<polygon fill="#000000" fill-opacity="0.200000" stroke="#000000" stroke-width="2" stroke-opacity="0.200000" points="453.97,-208.36 459.4,-211.67 457.22,-205.7 453.97,-208.36"/>
</g>
<!-- packages/UI/spectrogram/src/wave&#45;viewer.ts&#45;&gt;packages/util/math/dist/index.js -->
<g id="edge24" class="edge">
<title>packages/UI/spectrogram/src/wave&#45;viewer.ts&#45;&gt;packages/util/math/dist/index.js</title>
<path fill="none" stroke="#000000" stroke-width="2" stroke-opacity="0.200000" d="M348.77,-136.19C350.17,-167.89 358.95,-274.01 414,-334 498.88,-426.5 556.88,-399.49 675,-442 703.44,-452.23 720.2,-439.17 740,-462 756.8,-481.38 736.3,-496.72 749,-519 757.49,-533.9 772.52,-546.14 785.16,-554.53"/>
<polygon fill="#000000" fill-opacity="0.200000" stroke="#000000" stroke-width="2" stroke-opacity="0.200000" points="784.21,-556.42 790.4,-557.89 786.48,-552.88 784.21,-556.42"/>
</g>
<!-- packages/UI/spectrogram/src/wave&#45;viewer.ts&#45;&gt;packages/UI/spectrogram/src/audio&#45;analyzer/index.ts -->
<g id="edge23" class="edge">
<title>packages/UI/spectrogram/src/wave&#45;viewer.ts&#45;&gt;packages/UI/spectrogram/src/audio&#45;analyzer/index.ts</title>
<path fill="none" stroke="#000000" stroke-width="2" stroke-opacity="0.200000" d="M389.26,-121.94C395.44,-119.69 401.31,-116.5 406,-112 414.73,-103.64 405.34,-94.44 414,-86 419.83,-80.31 427.64,-76.74 435.49,-74.52"/>
<polygon fill="#000000" fill-opacity="0.200000" stroke="#000000" stroke-width="2" stroke-opacity="0.200000" points="436.13,-76.52 441.46,-73.06 435.13,-72.44 436.13,-76.52"/>
</g>
<!-- packages/UI/spectrogram/src/wave&#45;viewer.ts&#45;&gt;packages/UI/view/dist/index.js -->
<g id="edge25" class="edge">
<title>packages/UI/spectrogram/src/wave&#45;viewer.ts&#45;&gt;packages/UI/view/dist/index.js</title>
<path fill="none" stroke="#000000" stroke-width="2" stroke-opacity="0.200000" d="M359.91,-136.01C381.09,-152.74 426.56,-188.66 451.06,-208.01"/>
<polygon fill="#000000" fill-opacity="0.200000" stroke="#000000" stroke-width="2" stroke-opacity="0.200000" points="449.94,-209.8 455.95,-211.88 452.54,-206.51 449.94,-209.8"/>
</g>
<!-- packages/UI/view&#45;parameters/dist/index.js -->
<g id="node18" class="node">
<title>packages/UI/view&#45;parameters/dist/index.js</title>
<g id="a_node18"><a xlink:href="packages/UI/view-parameters/dist/index.js" xlink:title="index.js">
<path fill="#ffffcc" stroke="black" d="M615.5,-230C615.5,-230 573.5,-230 573.5,-230 570.5,-230 567.5,-227 567.5,-224 567.5,-224 567.5,-218 567.5,-218 567.5,-215 570.5,-212 573.5,-212 573.5,-212 615.5,-212 615.5,-212 618.5,-212 621.5,-215 621.5,-218 621.5,-218 621.5,-224 621.5,-224 621.5,-227 618.5,-230 615.5,-230"/>
<text text-anchor="start" x="577" y="-218.8" font-family="Helvetica,sans-Serif" font-size="9.00">index.js</text>
</a>
</g>
</g>
<!-- packages/UI/view/dist/index.js&#45;&gt;packages/UI/view&#45;parameters/dist/index.js -->
<g id="edge28" class="edge">
<title>packages/UI/view/dist/index.js&#45;&gt;packages/UI/view&#45;parameters/dist/index.js</title>
<path fill="none" stroke="#000000" stroke-width="2" stroke-opacity="0.200000" d="M495.8,-221C514.87,-221 540.77,-221 561.12,-221"/>
<polygon fill="#000000" fill-opacity="0.200000" stroke="#000000" stroke-width="2" stroke-opacity="0.200000" points="561.24,-223.1 567.24,-221 561.24,-218.9 561.24,-223.1"/>
</g>
<!-- packages/util/time&#45;and/dist/index.js -->
<g id="node19" class="node">
<title>packages/util/time&#45;and/dist/index.js</title>
<g id="a_node19"><a xlink:href="packages/util/time-and/dist/index.js" xlink:title="index.js">
<path fill="#ffffcc" stroke="black" d="M829,-358C829,-358 787,-358 787,-358 784,-358 781,-355 781,-352 781,-352 781,-346 781,-346 781,-343 784,-340 787,-340 787,-340 829,-340 829,-340 832,-340 835,-343 835,-346 835,-346 835,-352 835,-352 835,-355 832,-358 829,-358"/>
<text text-anchor="start" x="790.5" y="-346.8" font-family="Helvetica,sans-Serif" font-size="9.00">index.js</text>
</a>
</g>
</g>
<!-- packages/UI/view/dist/index.js&#45;&gt;packages/util/time&#45;and/dist/index.js -->
<g id="edge27" class="edge">
<title>packages/UI/view/dist/index.js&#45;&gt;packages/util/time&#45;and/dist/index.js</title>
<path fill="none" stroke="#000000" stroke-width="2" stroke-opacity="0.200000" d="M485.63,-230.15C500.41,-238.32 523.03,-250.3 543.5,-259 624.95,-293.6 724.65,-324.74 774.85,-339.67"/>
<polygon fill="#000000" fill-opacity="0.200000" stroke="#000000" stroke-width="2" stroke-opacity="0.200000" points="774.37,-341.72 780.72,-341.41 775.57,-337.69 774.37,-341.72"/>
</g>
<!-- packages/UI/view&#45;parameters/dist/index.js&#45;&gt;packages/util/math/dist/index.js -->
<g id="edge26" class="edge">
<title>packages/UI/view&#45;parameters/dist/index.js&#45;&gt;packages/util/math/dist/index.js</title>
<path fill="none" stroke="#000000" stroke-width="2" stroke-opacity="0.200000" d="M609.96,-230.25C640.52,-250.72 711.23,-303.25 740,-368 753.65,-398.72 733.79,-489.02 749,-519 756.71,-534.2 771.61,-546.36 784.38,-554.65"/>
<polygon fill="#000000" fill-opacity="0.200000" stroke="#000000" stroke-width="2" stroke-opacity="0.200000" points="783.49,-556.57 789.69,-557.96 785.71,-553 783.49,-556.57"/>
</g>
<!-- packages/util/math/fft/array/ftt&#45;core.ts&#45;&gt;packages/util/math/fft/array/complex.ts -->
<g id="edge30" class="edge">
<title>packages/util/math/fft/array/ftt&#45;core.ts&#45;&gt;packages/util/math/fft/array/complex.ts</title>
<path fill="none" stroke="#000000" stroke-width="2" stroke-opacity="0.200000" d="M974.15,-460C983.64,-463.15 994.4,-466.71 1004.32,-470"/>
<polygon fill="#000000" fill-opacity="0.200000" stroke="#000000" stroke-width="2" stroke-opacity="0.200000" points="1003.7,-472.01 1010.05,-471.9 1005.02,-468.02 1003.7,-472.01"/>
</g>
<!-- packages/util/math/fft/array/root&#45;of&#45;unity.ts -->
<g id="node23" class="node">
<title>packages/util/math/fft/array/root&#45;of&#45;unity.ts</title>
<g id="a_node23"><a xlink:href="packages/util/math/fft/array/root-of-unity.ts" xlink:title="root&#45;of&#45;unity.ts">
<path fill="#ddfeff" stroke="black" d="M1074,-460C1074,-460 1003,-460 1003,-460 1000,-460 997,-457 997,-454 997,-454 997,-448 997,-448 997,-445 1000,-442 1003,-442 1003,-442 1074,-442 1074,-442 1077,-442 1080,-445 1080,-448 1080,-448 1080,-454 1080,-454 1080,-457 1077,-460 1074,-460"/>
<text text-anchor="start" x="1005" y="-448.8" font-family="Helvetica,sans-Serif" font-size="9.00">root&#45;of&#45;unity.ts</text>
</a>
</g>
</g>
<!-- packages/util/math/fft/array/ftt&#45;core.ts&#45;&gt;packages/util/math/fft/array/root&#45;of&#45;unity.ts -->
<g id="edge31" class="edge">
<title>packages/util/math/fft/array/ftt&#45;core.ts&#45;&gt;packages/util/math/fft/array/root&#45;of&#45;unity.ts</title>
<path fill="none" stroke="#000000" stroke-width="2" stroke-opacity="0.200000" d="M976.63,-451C981.2,-451 986.01,-451 990.84,-451"/>
<polygon fill="#000000" fill-opacity="0.200000" stroke="#000000" stroke-width="2" stroke-opacity="0.200000" points="990.95,-453.1 996.95,-451 990.95,-448.9 990.95,-453.1"/>
</g>
</g>
</svg>
