<?xml version="1.0" encoding="UTF-8" standalone="no"?>
<!DOCTYPE svg PUBLIC "-//W3C//DTD SVG 1.1//EN"
 "http://www.w3.org/Graphics/SVG/1.1/DTD/svg11.dtd">
<!-- Generated by graphviz version 2.43.0 (0)
 -->
<!-- Title: dependency&#45;cruiser output Pages: 1 -->
<svg width="1028pt" height="744pt"
 viewBox="0.00 0.00 1027.50 744.00" xmlns="http://www.w3.org/2000/svg" xmlns:xlink="http://www.w3.org/1999/xlink">
<g id="graph0" class="graph" transform="scale(1 1) rotate(0) translate(4 740)">
<title>dependency&#45;cruiser output</title>
<polygon fill="white" stroke="transparent" points="-4,4 -4,-740 1023.5,-740 1023.5,4 -4,4"/>
<g id="clust1" class="cluster">
<title>cluster_packages</title>
<path fill="#ffffff" stroke="black" stroke-width="2" d="M20,-8C20,-8 999.5,-8 999.5,-8 1005.5,-8 1011.5,-14 1011.5,-20 1011.5,-20 1011.5,-716 1011.5,-716 1011.5,-722 1005.5,-728 999.5,-728 999.5,-728 20,-728 20,-728 14,-728 8,-722 8,-716 8,-716 8,-20 8,-20 8,-14 14,-8 20,-8"/>
<text text-anchor="middle" x="509.75" y="-716.8" font-family="Helvetica,sans-Serif" font-weight="bold" font-size="9.00">packages</text>
</g>
<g id="clust2" class="cluster">
<title>cluster_packages/UI</title>
<path fill="#ffffff" stroke="black" stroke-width="2" d="M28,-16C28,-16 691.5,-16 691.5,-16 697.5,-16 703.5,-22 703.5,-28 703.5,-28 703.5,-410 703.5,-410 703.5,-416 697.5,-422 691.5,-422 691.5,-422 28,-422 28,-422 22,-422 16,-416 16,-410 16,-410 16,-28 16,-28 16,-22 22,-16 28,-16"/>
<text text-anchor="middle" x="359.75" y="-410.8" font-family="Helvetica,sans-Serif" font-weight="bold" font-size="9.00">UI</text>
</g>
<g id="clust3" class="cluster">
<title>cluster_packages/UI/spectrogram</title>
<path fill="#ffffff" stroke="black" stroke-width="2" d="M36,-24C36,-24 683.5,-24 683.5,-24 689.5,-24 695.5,-30 695.5,-36 695.5,-36 695.5,-256 695.5,-256 695.5,-262 689.5,-268 683.5,-268 683.5,-268 36,-268 36,-268 30,-268 24,-262 24,-256 24,-256 24,-36 24,-36 24,-30 30,-24 36,-24"/>
<text text-anchor="middle" x="359.75" y="-256.8" font-family="Helvetica,sans-Serif" font-weight="bold" font-size="9.00">spectrogram</text>
</g>
<g id="clust4" class="cluster">
<title>cluster_packages/UI/spectrogram/src</title>
<path fill="#ffffff" stroke="black" stroke-width="2" d="M44,-32C44,-32 675.5,-32 675.5,-32 681.5,-32 687.5,-38 687.5,-44 687.5,-44 687.5,-230 687.5,-230 687.5,-236 681.5,-242 675.5,-242 675.5,-242 44,-242 44,-242 38,-242 32,-236 32,-230 32,-230 32,-44 32,-44 32,-38 38,-32 44,-32"/>
<text text-anchor="middle" x="359.75" y="-230.8" font-family="Helvetica,sans-Serif" font-weight="bold" font-size="9.00">src</text>
</g>
<g id="clust5" class="cluster">
<title>cluster_packages/UI/spectrogram/src/audio&#45;analyzer</title>
<path fill="#ffffff" stroke="black" stroke-width="2" d="M319.5,-40C319.5,-40 667.5,-40 667.5,-40 673.5,-40 679.5,-46 679.5,-52 679.5,-52 679.5,-204 679.5,-204 679.5,-210 673.5,-216 667.5,-216 667.5,-216 319.5,-216 319.5,-216 313.5,-216 307.5,-210 307.5,-204 307.5,-204 307.5,-52 307.5,-52 307.5,-46 313.5,-40 319.5,-40"/>
<text text-anchor="middle" x="493.5" y="-204.8" font-family="Helvetica,sans-Serif" font-weight="bold" font-size="9.00">audio&#45;analyzer</text>
</g>
<g id="clust6" class="cluster">
<title>cluster_packages/UI/spectrogram/src/audio&#45;analyzer/get&#45;data&#45;on&#45;buffer</title>
<path fill="#ffffff" stroke="black" stroke-width="2" d="M570.5,-48C570.5,-48 659.5,-48 659.5,-48 665.5,-48 671.5,-54 671.5,-60 671.5,-60 671.5,-178 671.5,-178 671.5,-184 665.5,-190 659.5,-190 659.5,-190 570.5,-190 570.5,-190 564.5,-190 558.5,-184 558.5,-178 558.5,-178 558.5,-60 558.5,-60 558.5,-54 564.5,-48 570.5,-48"/>
<text text-anchor="middle" x="615" y="-178.8" font-family="Helvetica,sans-Serif" font-weight="bold" font-size="9.00">get&#45;data&#45;on&#45;buffer</text>
</g>
<g id="clust7" class="cluster">
<title>cluster_packages/UI/view</title>
<path fill="#ffffff" stroke="black" stroke-width="2" d="M145,-276C145,-276 426,-276 426,-276 432,-276 438,-282 438,-288 438,-288 438,-384 438,-384 438,-390 432,-396 426,-396 426,-396 145,-396 145,-396 139,-396 133,-390 133,-384 133,-384 133,-288 133,-288 133,-282 139,-276 145,-276"/>
<text text-anchor="middle" x="285.5" y="-384.8" font-family="Helvetica,sans-Serif" font-weight="bold" font-size="9.00">view</text>
</g>
<g id="clust8" class="cluster">
<title>cluster_packages/UI/view/src</title>
<path fill="#ffffff" stroke="black" stroke-width="2" d="M153,-284C153,-284 418,-284 418,-284 424,-284 430,-290 430,-296 430,-296 430,-358 430,-358 430,-364 424,-370 418,-370 418,-370 153,-370 153,-370 147,-370 141,-364 141,-358 141,-358 141,-296 141,-296 141,-290 147,-284 153,-284"/>
<text text-anchor="middle" x="285.5" y="-358.8" font-family="Helvetica,sans-Serif" font-weight="bold" font-size="9.00">src</text>
</g>
<g id="clust9" class="cluster">
<title>cluster_packages/UI/view/src/reflectable</title>
<path fill="#ffffff" stroke="black" stroke-width="2" d="M161,-292C161,-292 410,-292 410,-292 416,-292 422,-298 422,-304 422,-304 422,-332 422,-332 422,-338 416,-344 410,-344 410,-344 161,-344 161,-344 155,-344 149,-338 149,-332 149,-332 149,-304 149,-304 149,-298 155,-292 161,-292"/>
<text text-anchor="middle" x="285.5" y="-332.8" font-family="Helvetica,sans-Serif" font-weight="bold" font-size="9.00">reflectable</text>
</g>
<g id="clust10" class="cluster">
<title>cluster_packages/util</title>
<path fill="#ffffff" stroke="black" stroke-width="2" d="M560,-430C560,-430 991.5,-430 991.5,-430 997.5,-430 1003.5,-436 1003.5,-442 1003.5,-442 1003.5,-690 1003.5,-690 1003.5,-696 997.5,-702 991.5,-702 991.5,-702 560,-702 560,-702 554,-702 548,-696 548,-690 548,-690 548,-442 548,-442 548,-436 554,-430 560,-430"/>
<text text-anchor="middle" x="775.75" y="-690.8" font-family="Helvetica,sans-Serif" font-weight="bold" font-size="9.00">util</text>
</g>
<g id="clust11" class="cluster">
<title>cluster_packages/util/math</title>
<path fill="#ffffff" stroke="black" stroke-width="2" d="M568,-438C568,-438 983.5,-438 983.5,-438 989.5,-438 995.5,-444 995.5,-450 995.5,-450 995.5,-664 995.5,-664 995.5,-670 989.5,-676 983.5,-676 983.5,-676 568,-676 568,-676 562,-676 556,-670 556,-664 556,-664 556,-450 556,-450 556,-444 562,-438 568,-438"/>
<text text-anchor="middle" x="775.75" y="-664.8" font-family="Helvetica,sans-Serif" font-weight="bold" font-size="9.00">math</text>
</g>
<g id="clust12" class="cluster">
<title>cluster_packages/util/math/src</title>
<path fill="#ffffff" stroke="black" stroke-width="2" d="M576,-446C576,-446 975.5,-446 975.5,-446 981.5,-446 987.5,-452 987.5,-458 987.5,-458 987.5,-638 987.5,-638 987.5,-644 981.5,-650 975.5,-650 975.5,-650 576,-650 576,-650 570,-650 564,-644 564,-638 564,-638 564,-458 564,-458 564,-452 570,-446 576,-446"/>
<text text-anchor="middle" x="775.75" y="-638.8" font-family="Helvetica,sans-Serif" font-weight="bold" font-size="9.00">src</text>
</g>
<g id="clust13" class="cluster">
<title>cluster_packages/util/math/src/fft</title>
<path fill="#ffffff" stroke="black" stroke-width="2" d="M584,-454C584,-454 967.5,-454 967.5,-454 973.5,-454 979.5,-460 979.5,-466 979.5,-466 979.5,-612 979.5,-612 979.5,-618 973.5,-624 967.5,-624 967.5,-624 584,-624 584,-624 578,-624 572,-618 572,-612 572,-612 572,-466 572,-466 572,-460 578,-454 584,-454"/>
<text text-anchor="middle" x="775.75" y="-612.8" font-family="Helvetica,sans-Serif" font-weight="bold" font-size="9.00">fft</text>
</g>
<g id="clust14" class="cluster">
<title>cluster_packages/util/math/src/fft/array</title>
<path fill="#ffffff" stroke="black" stroke-width="2" d="M592,-462C592,-462 872.5,-462 872.5,-462 878.5,-462 884.5,-468 884.5,-474 884.5,-474 884.5,-532 884.5,-532 884.5,-538 878.5,-544 872.5,-544 872.5,-544 592,-544 592,-544 586,-544 580,-538 580,-532 580,-532 580,-474 580,-474 580,-468 586,-462 592,-462"/>
<text text-anchor="middle" x="732.25" y="-532.8" font-family="Helvetica,sans-Serif" font-weight="bold" font-size="9.00">array</text>
</g>
<!-- packages/UI/spectrogram/src/audio&#45;analyzer/audio&#45;analyzer.ts -->
<g id="node1" class="node">
<title>packages/UI/spectrogram/src/audio&#45;analyzer/audio&#45;analyzer.ts</title>
<g id="a_node1"><a xlink:href="packages/UI/spectrogram/src/audio-analyzer/audio-analyzer.ts" xlink:title="audio&#45;analyzer.ts">
<path fill="#ddfeff" stroke="black" d="M402.5,-151C402.5,-151 321.5,-151 321.5,-151 318.5,-151 315.5,-148 315.5,-145 315.5,-145 315.5,-139 315.5,-139 315.5,-136 318.5,-133 321.5,-133 321.5,-133 402.5,-133 402.5,-133 405.5,-133 408.5,-136 408.5,-139 408.5,-139 408.5,-145 408.5,-145 408.5,-148 405.5,-151 402.5,-151"/>
<text text-anchor="start" x="323.5" y="-139.8" font-family="Helvetica,sans-Serif" font-size="9.00">audio&#45;analyzer.ts</text>
</a>
</g>
</g>
<!-- packages/UI/spectrogram/src/audio&#45;analyzer/connect.ts -->
<g id="node2" class="node">
<title>packages/UI/spectrogram/src/audio&#45;analyzer/connect.ts</title>
<g id="a_node2"><a xlink:href="packages/UI/spectrogram/src/audio-analyzer/connect.ts" xlink:title="connect.ts">
<path fill="#ddfeff" stroke="black" d="M505,-96C505,-96 452,-96 452,-96 449,-96 446,-93 446,-90 446,-90 446,-84 446,-84 446,-81 449,-78 452,-78 452,-78 505,-78 505,-78 508,-78 511,-81 511,-84 511,-84 511,-90 511,-90 511,-93 508,-96 505,-96"/>
<text text-anchor="start" x="454" y="-84.8" font-family="Helvetica,sans-Serif" font-size="9.00">connect.ts</text>
</a>
</g>
</g>
<!-- packages/UI/spectrogram/src/audio&#45;analyzer/audio&#45;analyzer.ts&#45;&gt;packages/UI/spectrogram/src/audio&#45;analyzer/connect.ts -->
<g id="edge1" class="edge">
<title>packages/UI/spectrogram/src/audio&#45;analyzer/audio&#45;analyzer.ts&#45;&gt;packages/UI/spectrogram/src/audio&#45;analyzer/connect.ts</title>
<path fill="none" stroke="#000000" stroke-width="2" stroke-opacity="0.200000" d="M381.91,-132.92C401.38,-123.56 431.81,-108.95 453.09,-98.72"/>
<polygon fill="#000000" fill-opacity="0.200000" stroke="#000000" stroke-width="2" stroke-opacity="0.200000" points="454.07,-100.59 458.56,-96.1 452.25,-96.8 454.07,-100.59"/>
</g>
<!-- packages/UI/spectrogram/src/audio&#45;analyzer/get&#45;data&#45;on&#45;buffer/byte&#45;frequency.ts -->
<g id="node3" class="node">
<title>packages/UI/spectrogram/src/audio&#45;analyzer/get&#45;data&#45;on&#45;buffer/byte&#45;frequency.ts</title>
<g id="a_node3"><a xlink:href="packages/UI/spectrogram/src/audio-analyzer/get-data-on-buffer/byte-frequency.ts" xlink:title="byte&#45;frequency.ts">
<path fill="#ddfeff" stroke="black" d="M656.5,-74C656.5,-74 573.5,-74 573.5,-74 570.5,-74 567.5,-71 567.5,-68 567.5,-68 567.5,-62 567.5,-62 567.5,-59 570.5,-56 573.5,-56 573.5,-56 656.5,-56 656.5,-56 659.5,-56 662.5,-59 662.5,-62 662.5,-62 662.5,-68 662.5,-68 662.5,-71 659.5,-74 656.5,-74"/>
<text text-anchor="start" x="575.5" y="-62.8" font-family="Helvetica,sans-Serif" font-size="9.00">byte&#45;frequency.ts</text>
</a>
</g>
</g>
<!-- packages/UI/spectrogram/src/audio&#45;analyzer/audio&#45;analyzer.ts&#45;&gt;packages/UI/spectrogram/src/audio&#45;analyzer/get&#45;data&#45;on&#45;buffer/byte&#45;frequency.ts -->
<g id="edge2" class="edge">
<title>packages/UI/spectrogram/src/audio&#45;analyzer/audio&#45;analyzer.ts&#45;&gt;packages/UI/spectrogram/src/audio&#45;analyzer/get&#45;data&#45;on&#45;buffer/byte&#45;frequency.ts</title>
<path fill="none" stroke="#000000" stroke-width="2" stroke-opacity="0.200000" d="M392.02,-132.86C438.93,-118.59 529.44,-91.04 579.51,-75.8"/>
<polygon fill="#000000" fill-opacity="0.200000" stroke="#000000" stroke-width="2" stroke-opacity="0.200000" points="580.29,-77.76 585.41,-74 579.06,-73.74 580.29,-77.76"/>
</g>
<!-- packages/UI/spectrogram/src/audio&#45;analyzer/get&#45;data&#45;on&#45;buffer/byte&#45;time.ts -->
<g id="node4" class="node">
<title>packages/UI/spectrogram/src/audio&#45;analyzer/get&#45;data&#45;on&#45;buffer/byte&#45;time.ts</title>
<g id="a_node4"><a xlink:href="packages/UI/spectrogram/src/audio-analyzer/get-data-on-buffer/byte-time.ts" xlink:title="byte&#45;time.ts">
<path fill="#ddfeff" stroke="black" d="M644.5,-104C644.5,-104 585.5,-104 585.5,-104 582.5,-104 579.5,-101 579.5,-98 579.5,-98 579.5,-92 579.5,-92 579.5,-89 582.5,-86 585.5,-86 585.5,-86 644.5,-86 644.5,-86 647.5,-86 650.5,-89 650.5,-92 650.5,-92 650.5,-98 650.5,-98 650.5,-101 647.5,-104 644.5,-104"/>
<text text-anchor="start" x="587.5" y="-92.8" font-family="Helvetica,sans-Serif" font-size="9.00">byte&#45;time.ts</text>
</a>
</g>
</g>
<!-- packages/UI/spectrogram/src/audio&#45;analyzer/audio&#45;analyzer.ts&#45;&gt;packages/UI/spectrogram/src/audio&#45;analyzer/get&#45;data&#45;on&#45;buffer/byte&#45;time.ts -->
<g id="edge3" class="edge">
<title>packages/UI/spectrogram/src/audio&#45;analyzer/audio&#45;analyzer.ts&#45;&gt;packages/UI/spectrogram/src/audio&#45;analyzer/get&#45;data&#45;on&#45;buffer/byte&#45;time.ts</title>
<path fill="none" stroke="#000000" stroke-width="2" stroke-opacity="0.200000" d="M408.7,-133.32C455.84,-124.57 527.97,-111.17 573.26,-102.75"/>
<polygon fill="#000000" fill-opacity="0.200000" stroke="#000000" stroke-width="2" stroke-opacity="0.200000" points="573.68,-104.81 579.2,-101.65 572.91,-100.68 573.68,-104.81"/>
</g>
<!-- packages/UI/spectrogram/src/audio&#45;analyzer/get&#45;data&#45;on&#45;buffer/float&#45;frequency.ts -->
<g id="node5" class="node">
<title>packages/UI/spectrogram/src/audio&#45;analyzer/get&#45;data&#45;on&#45;buffer/float&#45;frequency.ts</title>
<g id="a_node5"><a xlink:href="packages/UI/spectrogram/src/audio-analyzer/get-data-on-buffer/float-frequency.ts" xlink:title="float&#45;frequency.ts">
<path fill="#ddfeff" stroke="black" d="M656.5,-134C656.5,-134 573.5,-134 573.5,-134 570.5,-134 567.5,-131 567.5,-128 567.5,-128 567.5,-122 567.5,-122 567.5,-119 570.5,-116 573.5,-116 573.5,-116 656.5,-116 656.5,-116 659.5,-116 662.5,-119 662.5,-122 662.5,-122 662.5,-128 662.5,-128 662.5,-131 659.5,-134 656.5,-134"/>
<text text-anchor="start" x="575.5" y="-122.8" font-family="Helvetica,sans-Serif" font-size="9.00">float&#45;frequency.ts</text>
</a>
</g>
</g>
<!-- packages/UI/spectrogram/src/audio&#45;analyzer/audio&#45;analyzer.ts&#45;&gt;packages/UI/spectrogram/src/audio&#45;analyzer/get&#45;data&#45;on&#45;buffer/float&#45;frequency.ts -->
<g id="edge4" class="edge">
<title>packages/UI/spectrogram/src/audio&#45;analyzer/audio&#45;analyzer.ts&#45;&gt;packages/UI/spectrogram/src/audio&#45;analyzer/get&#45;data&#45;on&#45;buffer/float&#45;frequency.ts</title>
<path fill="none" stroke="#000000" stroke-width="2" stroke-opacity="0.200000" d="M408.7,-138.86C451.79,-135.97 515.76,-131.67 561.03,-128.63"/>
<polygon fill="#000000" fill-opacity="0.200000" stroke="#000000" stroke-width="2" stroke-opacity="0.200000" points="561.44,-130.7 567.28,-128.21 561.16,-126.51 561.44,-130.7"/>
</g>
<!-- packages/UI/spectrogram/src/audio&#45;analyzer/get&#45;data&#45;on&#45;buffer/float&#45;time.ts -->
<g id="node6" class="node">
<title>packages/UI/spectrogram/src/audio&#45;analyzer/get&#45;data&#45;on&#45;buffer/float&#45;time.ts</title>
<g id="a_node6"><a xlink:href="packages/UI/spectrogram/src/audio-analyzer/get-data-on-buffer/float-time.ts" xlink:title="float&#45;time.ts">
<path fill="#ddfeff" stroke="black" d="M644.5,-164C644.5,-164 585.5,-164 585.5,-164 582.5,-164 579.5,-161 579.5,-158 579.5,-158 579.5,-152 579.5,-152 579.5,-149 582.5,-146 585.5,-146 585.5,-146 644.5,-146 644.5,-146 647.5,-146 650.5,-149 650.5,-152 650.5,-152 650.5,-158 650.5,-158 650.5,-161 647.5,-164 644.5,-164"/>
<text text-anchor="start" x="587.5" y="-152.8" font-family="Helvetica,sans-Serif" font-size="9.00">float&#45;time.ts</text>
</a>
</g>
</g>
<!-- packages/UI/spectrogram/src/audio&#45;analyzer/audio&#45;analyzer.ts&#45;&gt;packages/UI/spectrogram/src/audio&#45;analyzer/get&#45;data&#45;on&#45;buffer/float&#45;time.ts -->
<g id="edge5" class="edge">
<title>packages/UI/spectrogram/src/audio&#45;analyzer/audio&#45;analyzer.ts&#45;&gt;packages/UI/spectrogram/src/audio&#45;analyzer/get&#45;data&#45;on&#45;buffer/float&#45;time.ts</title>
<path fill="none" stroke="#000000" stroke-width="2" stroke-opacity="0.200000" d="M408.7,-144.4C455.74,-146.82 527.68,-150.51 572.98,-152.84"/>
<polygon fill="#000000" fill-opacity="0.200000" stroke="#000000" stroke-width="2" stroke-opacity="0.200000" points="573.1,-154.95 579.2,-153.16 573.31,-150.76 573.1,-154.95"/>
</g>
<!-- packages/UI/spectrogram/src/audio&#45;analyzer/get&#45;fft.ts -->
<g id="node7" class="node">
<title>packages/UI/spectrogram/src/audio&#45;analyzer/get&#45;fft.ts</title>
<g id="a_node7"><a xlink:href="packages/UI/spectrogram/src/audio-analyzer/get-fft.ts" xlink:title="get&#45;fft.ts">
<path fill="#ddfeff" stroke="black" d="M500.5,-182C500.5,-182 456.5,-182 456.5,-182 453.5,-182 450.5,-179 450.5,-176 450.5,-176 450.5,-170 450.5,-170 450.5,-167 453.5,-164 456.5,-164 456.5,-164 500.5,-164 500.5,-164 503.5,-164 506.5,-167 506.5,-170 506.5,-170 506.5,-176 506.5,-176 506.5,-179 503.5,-182 500.5,-182"/>
<text text-anchor="start" x="458.5" y="-170.8" font-family="Helvetica,sans-Serif" font-size="9.00">get&#45;fft.ts</text>
</a>
</g>
</g>
<!-- packages/UI/spectrogram/src/audio&#45;analyzer/audio&#45;analyzer.ts&#45;&gt;packages/UI/spectrogram/src/audio&#45;analyzer/get&#45;fft.ts -->
<g id="edge6" class="edge">
<title>packages/UI/spectrogram/src/audio&#45;analyzer/audio&#45;analyzer.ts&#45;&gt;packages/UI/spectrogram/src/audio&#45;analyzer/get&#45;fft.ts</title>
<path fill="none" stroke="#000000" stroke-width="2" stroke-opacity="0.200000" d="M396.43,-151.05C411.58,-155.15 429.44,-159.99 444.53,-164.07"/>
<polygon fill="#000000" fill-opacity="0.200000" stroke="#000000" stroke-width="2" stroke-opacity="0.200000" points="444.05,-166.12 450.39,-165.66 445.14,-162.06 444.05,-166.12"/>
</g>
<!-- packages/UI/spectrogram/src/audio&#45;analyzer/get&#45;fft.ts&#45;&gt;packages/UI/spectrogram/src/audio&#45;analyzer/get&#45;data&#45;on&#45;buffer/float&#45;time.ts -->
<g id="edge7" class="edge">
<title>packages/UI/spectrogram/src/audio&#45;analyzer/get&#45;fft.ts&#45;&gt;packages/UI/spectrogram/src/audio&#45;analyzer/get&#45;data&#45;on&#45;buffer/float&#45;time.ts</title>
<path fill="none" stroke="#000000" stroke-width="2" stroke-opacity="0.200000" d="M506.72,-169.36C525.8,-166.8 551.65,-163.34 573.19,-160.46"/>
<polygon fill="#000000" fill-opacity="0.200000" stroke="#000000" stroke-width="2" stroke-opacity="0.200000" points="573.48,-162.54 579.14,-159.66 572.92,-158.38 573.48,-162.54"/>
</g>
<!-- packages/util/math/src/fft/array/index.ts -->
<g id="node9" class="node">
<title>packages/util/math/src/fft/array/index.ts</title>
<g id="a_node9"><a xlink:href="packages/util/math/src/fft/array/index.ts" xlink:title="index.ts">
<path fill="#ddfeff" stroke="black" d="M636,-488C636,-488 594,-488 594,-488 591,-488 588,-485 588,-482 588,-482 588,-476 588,-476 588,-473 591,-470 594,-470 594,-470 636,-470 636,-470 639,-470 642,-473 642,-476 642,-476 642,-482 642,-482 642,-485 639,-488 636,-488"/>
<text text-anchor="start" x="596.5" y="-476.8" font-family="Helvetica,sans-Serif" font-size="9.00">index.ts</text>
</a>
</g>
</g>
<!-- packages/UI/spectrogram/src/audio&#45;analyzer/get&#45;fft.ts&#45;&gt;packages/util/math/src/fft/array/index.ts -->
<g id="edge8" class="edge">
<title>packages/UI/spectrogram/src/audio&#45;analyzer/get&#45;fft.ts&#45;&gt;packages/util/math/src/fft/array/index.ts</title>
<path fill="none" stroke="#000000" stroke-width="2" stroke-opacity="0.200000" d="M483.53,-182.16C502.59,-225.53 583.87,-410.45 607.52,-464.26"/>
<polygon fill="#000000" fill-opacity="0.200000" stroke="#000000" stroke-width="2" stroke-opacity="0.200000" points="605.65,-465.23 609.99,-469.88 609.5,-463.54 605.65,-465.23"/>
</g>
<!-- packages/UI/spectrogram/src/audio&#45;analyzer/cosine&#45;window.ts -->
<g id="node8" class="node">
<title>packages/UI/spectrogram/src/audio&#45;analyzer/cosine&#45;window.ts</title>
<g id="a_node8"><a xlink:href="packages/UI/spectrogram/src/audio-analyzer/cosine-window.ts" xlink:title="no&#45;orphans">
<path fill="#ccffcc" stroke="orange" d="M402.5,-91C402.5,-91 321.5,-91 321.5,-91 318.5,-91 315.5,-88 315.5,-85 315.5,-85 315.5,-79 315.5,-79 315.5,-76 318.5,-73 321.5,-73 321.5,-73 402.5,-73 402.5,-73 405.5,-73 408.5,-76 408.5,-79 408.5,-79 408.5,-85 408.5,-85 408.5,-88 405.5,-91 402.5,-91"/>
<text text-anchor="start" x="323.5" y="-79.8" font-family="Helvetica,sans-Serif" font-size="9.00" fill="orange">cosine&#45;window.ts</text>
</a>
</g>
</g>
<!-- packages/util/math/src/fft/array/complex.ts -->
<g id="node18" class="node">
<title>packages/util/math/src/fft/array/complex.ts</title>
<g id="a_node18"><a xlink:href="packages/util/math/src/fft/array/complex.ts" xlink:title="complex.ts">
<path fill="#ddfeff" stroke="black" d="M862,-488C862,-488 808,-488 808,-488 805,-488 802,-485 802,-482 802,-482 802,-476 802,-476 802,-473 805,-470 808,-470 808,-470 862,-470 862,-470 865,-470 868,-473 868,-476 868,-476 868,-482 868,-482 868,-485 865,-488 862,-488"/>
<text text-anchor="start" x="810" y="-476.8" font-family="Helvetica,sans-Serif" font-size="9.00">complex.ts</text>
</a>
</g>
</g>
<!-- packages/util/math/src/fft/array/index.ts&#45;&gt;packages/util/math/src/fft/array/complex.ts -->
<g id="edge29" class="edge">
<title>packages/util/math/src/fft/array/index.ts&#45;&gt;packages/util/math/src/fft/array/complex.ts</title>
<path fill="none" stroke="#000000" stroke-width="2" stroke-opacity="0.200000" d="M642.42,-479C681.03,-479 751.64,-479 795.79,-479"/>
<polygon fill="#000000" fill-opacity="0.200000" stroke="#000000" stroke-width="2" stroke-opacity="0.200000" points="795.84,-481.1 801.84,-479 795.84,-476.9 795.84,-481.1"/>
</g>
<!-- packages/util/math/src/fft/array/ftt&#45;core.ts -->
<g id="node20" class="node">
<title>packages/util/math/src/fft/array/ftt&#45;core.ts</title>
<g id="a_node20"><a xlink:href="packages/util/math/src/fft/array/ftt-core.ts" xlink:title="ftt&#45;core.ts">
<path fill="#ddfeff" stroke="black" d="M774.5,-514C774.5,-514 725.5,-514 725.5,-514 722.5,-514 719.5,-511 719.5,-508 719.5,-508 719.5,-502 719.5,-502 719.5,-499 722.5,-496 725.5,-496 725.5,-496 774.5,-496 774.5,-496 777.5,-496 780.5,-499 780.5,-502 780.5,-502 780.5,-508 780.5,-508 780.5,-511 777.5,-514 774.5,-514"/>
<text text-anchor="start" x="727.5" y="-502.8" font-family="Helvetica,sans-Serif" font-size="9.00">ftt&#45;core.ts</text>
</a>
</g>
</g>
<!-- packages/util/math/src/fft/array/index.ts&#45;&gt;packages/util/math/src/fft/array/ftt&#45;core.ts -->
<g id="edge30" class="edge">
<title>packages/util/math/src/fft/array/index.ts&#45;&gt;packages/util/math/src/fft/array/ftt&#45;core.ts</title>
<path fill="none" stroke="#000000" stroke-width="2" stroke-opacity="0.200000" d="M642.28,-484.14C662.48,-488.09 690.62,-493.59 712.94,-497.95"/>
<polygon fill="#000000" fill-opacity="0.200000" stroke="#000000" stroke-width="2" stroke-opacity="0.200000" points="712.77,-500.06 719.06,-499.15 713.58,-495.94 712.77,-500.06"/>
</g>
<!-- packages/UI/spectrogram/src/audio&#45;viewer.ts -->
<g id="node10" class="node">
<title>packages/UI/spectrogram/src/audio&#45;viewer.ts</title>
<g id="a_node10"><a xlink:href="packages/UI/spectrogram/src/audio-viewer.ts" xlink:title="audio&#45;viewer.ts">
<path fill="#ddfeff" stroke="black" d="M119,-201C119,-201 46,-201 46,-201 43,-201 40,-198 40,-195 40,-195 40,-189 40,-189 40,-186 43,-183 46,-183 46,-183 119,-183 119,-183 122,-183 125,-186 125,-189 125,-189 125,-195 125,-195 125,-198 122,-201 119,-201"/>
<text text-anchor="start" x="48" y="-189.8" font-family="Helvetica,sans-Serif" font-size="9.00">audio&#45;viewer.ts</text>
</a>
</g>
</g>
<!-- packages/UI/spectrogram/src/audio&#45;viewer.ts&#45;&gt;packages/UI/spectrogram/src/audio&#45;analyzer/audio&#45;analyzer.ts -->
<g id="edge9" class="edge">
<title>packages/UI/spectrogram/src/audio&#45;viewer.ts&#45;&gt;packages/UI/spectrogram/src/audio&#45;analyzer/audio&#45;analyzer.ts</title>
<path fill="none" stroke="#000000" stroke-width="2" stroke-opacity="0.200000" d="M125.25,-184.35C174.58,-175.53 255.72,-161.01 309.01,-151.48"/>
<polygon fill="#000000" fill-opacity="0.200000" stroke="#000000" stroke-width="2" stroke-opacity="0.200000" points="309.51,-153.52 315.05,-150.4 308.77,-149.39 309.51,-153.52"/>
</g>
<!-- packages/UI/spectrogram/src/fft&#45;viewer.ts -->
<g id="node11" class="node">
<title>packages/UI/spectrogram/src/fft&#45;viewer.ts</title>
<g id="a_node11"><a xlink:href="packages/UI/spectrogram/src/fft-viewer.ts" xlink:title="fft&#45;viewer.ts">
<path fill="#ddfeff" stroke="black" d="M255.5,-186C255.5,-186 198.5,-186 198.5,-186 195.5,-186 192.5,-183 192.5,-180 192.5,-180 192.5,-174 192.5,-174 192.5,-171 195.5,-168 198.5,-168 198.5,-168 255.5,-168 255.5,-168 258.5,-168 261.5,-171 261.5,-174 261.5,-174 261.5,-180 261.5,-180 261.5,-183 258.5,-186 255.5,-186"/>
<text text-anchor="start" x="200.5" y="-174.8" font-family="Helvetica,sans-Serif" font-size="9.00">fft&#45;viewer.ts</text>
</a>
</g>
</g>
<!-- packages/UI/spectrogram/src/audio&#45;viewer.ts&#45;&gt;packages/UI/spectrogram/src/fft&#45;viewer.ts -->
<g id="edge10" class="edge">
<title>packages/UI/spectrogram/src/audio&#45;viewer.ts&#45;&gt;packages/UI/spectrogram/src/fft&#45;viewer.ts</title>
<path fill="none" stroke="#000000" stroke-width="2" stroke-opacity="0.200000" d="M125.1,-187.62C144.29,-185.6 166.97,-183.21 185.97,-181.21"/>
<polygon fill="#000000" fill-opacity="0.200000" stroke="#000000" stroke-width="2" stroke-opacity="0.200000" points="186.51,-183.27 192.25,-180.55 186.07,-179.09 186.51,-183.27"/>
</g>
<!-- packages/UI/spectrogram/src/spectrogram&#45;viewer.ts -->
<g id="node12" class="node">
<title>packages/UI/spectrogram/src/spectrogram&#45;viewer.ts</title>
<g id="a_node12"><a xlink:href="packages/UI/spectrogram/src/spectrogram-viewer.ts" xlink:title="spectrogram&#45;viewer.ts">
<path fill="#ddfeff" stroke="black" d="M279.5,-156C279.5,-156 174.5,-156 174.5,-156 171.5,-156 168.5,-153 168.5,-150 168.5,-150 168.5,-144 168.5,-144 168.5,-141 171.5,-138 174.5,-138 174.5,-138 279.5,-138 279.5,-138 282.5,-138 285.5,-141 285.5,-144 285.5,-144 285.5,-150 285.5,-150 285.5,-153 282.5,-156 279.5,-156"/>
<text text-anchor="start" x="176.5" y="-144.8" font-family="Helvetica,sans-Serif" font-size="9.00">spectrogram&#45;viewer.ts</text>
</a>
</g>
</g>
<!-- packages/UI/spectrogram/src/audio&#45;viewer.ts&#45;&gt;packages/UI/spectrogram/src/spectrogram&#45;viewer.ts -->
<g id="edge11" class="edge">
<title>packages/UI/spectrogram/src/audio&#45;viewer.ts&#45;&gt;packages/UI/spectrogram/src/spectrogram&#45;viewer.ts</title>
<path fill="none" stroke="#000000" stroke-width="2" stroke-opacity="0.200000" d="M112.34,-182.89C135.13,-175.7 167.02,-165.62 191.23,-157.98"/>
<polygon fill="#000000" fill-opacity="0.200000" stroke="#000000" stroke-width="2" stroke-opacity="0.200000" points="192.12,-159.9 197.21,-156.09 190.85,-155.9 192.12,-159.9"/>
</g>
<!-- packages/UI/spectrogram/src/wave&#45;viewer.ts -->
<g id="node13" class="node">
<title>packages/UI/spectrogram/src/wave&#45;viewer.ts</title>
<g id="a_node13"><a xlink:href="packages/UI/spectrogram/src/wave-viewer.ts" xlink:title="wave&#45;viewer.ts">
<path fill="#ddfeff" stroke="black" d="M262.5,-216C262.5,-216 191.5,-216 191.5,-216 188.5,-216 185.5,-213 185.5,-210 185.5,-210 185.5,-204 185.5,-204 185.5,-201 188.5,-198 191.5,-198 191.5,-198 262.5,-198 262.5,-198 265.5,-198 268.5,-201 268.5,-204 268.5,-204 268.5,-210 268.5,-210 268.5,-213 265.5,-216 262.5,-216"/>
<text text-anchor="start" x="193.5" y="-204.8" font-family="Helvetica,sans-Serif" font-size="9.00">wave&#45;viewer.ts</text>
</a>
</g>
</g>
<!-- packages/UI/spectrogram/src/audio&#45;viewer.ts&#45;&gt;packages/UI/spectrogram/src/wave&#45;viewer.ts -->
<g id="edge12" class="edge">
<title>packages/UI/spectrogram/src/audio&#45;viewer.ts&#45;&gt;packages/UI/spectrogram/src/wave&#45;viewer.ts</title>
<path fill="none" stroke="#000000" stroke-width="2" stroke-opacity="0.200000" d="M125.1,-196.38C141.93,-198.15 161.44,-200.2 178.8,-202.03"/>
<polygon fill="#000000" fill-opacity="0.200000" stroke="#000000" stroke-width="2" stroke-opacity="0.200000" points="178.9,-204.15 185.09,-202.69 179.34,-199.98 178.9,-204.15"/>
</g>
<!-- packages/UI/view/src/reflectable/audio&#45;reflectable.ts -->
<g id="node14" class="node">
<title>packages/UI/view/src/reflectable/audio&#45;reflectable.ts</title>
<g id="a_node14"><a xlink:href="packages/UI/view/src/reflectable/audio-reflectable.ts" xlink:title="audio&#45;reflectable.ts">
<path fill="#ddfeff" stroke="black" d="M408,-318C408,-318 316,-318 316,-318 313,-318 310,-315 310,-312 310,-312 310,-306 310,-306 310,-303 313,-300 316,-300 316,-300 408,-300 408,-300 411,-300 414,-303 414,-306 414,-306 414,-312 414,-312 414,-315 411,-318 408,-318"/>
<text text-anchor="start" x="318" y="-306.8" font-family="Helvetica,sans-Serif" font-size="9.00">audio&#45;reflectable.ts</text>
</a>
</g>
</g>
<!-- packages/UI/spectrogram/src/audio&#45;viewer.ts&#45;&gt;packages/UI/view/src/reflectable/audio&#45;reflectable.ts -->
<g id="edge13" class="edge">
<title>packages/UI/spectrogram/src/audio&#45;viewer.ts&#45;&gt;packages/UI/view/src/reflectable/audio&#45;reflectable.ts</title>
<path fill="none" stroke="#000000" stroke-width="2" stroke-opacity="0.200000" d="M104.43,-201.18C154.84,-222.28 278.89,-274.21 334.38,-297.44"/>
<polygon fill="#000000" fill-opacity="0.200000" stroke="#000000" stroke-width="2" stroke-opacity="0.200000" points="333.82,-299.48 340.17,-299.86 335.45,-295.61 333.82,-299.48"/>
</g>
<!-- packages/UI/view/src/reflectable/audio&#45;reflectable&#45;registry.ts -->
<g id="node15" class="node">
<title>packages/UI/view/src/reflectable/audio&#45;reflectable&#45;registry.ts</title>
<g id="a_node15"><a xlink:href="packages/UI/view/src/reflectable/audio-reflectable-registry.ts" xlink:title="audio&#45;reflectable&#45;registry.ts">
<path fill="#ddfeff" stroke="black" d="M291,-318C291,-318 163,-318 163,-318 160,-318 157,-315 157,-312 157,-312 157,-306 157,-306 157,-303 160,-300 163,-300 163,-300 291,-300 291,-300 294,-300 297,-303 297,-306 297,-306 297,-312 297,-312 297,-315 294,-318 291,-318"/>
<text text-anchor="start" x="165" y="-306.8" font-family="Helvetica,sans-Serif" font-size="9.00">audio&#45;reflectable&#45;registry.ts</text>
</a>
</g>
</g>
<!-- packages/UI/spectrogram/src/audio&#45;viewer.ts&#45;&gt;packages/UI/view/src/reflectable/audio&#45;reflectable&#45;registry.ts -->
<g id="edge14" class="edge">
<title>packages/UI/spectrogram/src/audio&#45;viewer.ts&#45;&gt;packages/UI/view/src/reflectable/audio&#45;reflectable&#45;registry.ts</title>
<path fill="none" stroke="#000000" stroke-width="2" stroke-opacity="0.200000" d="M94.68,-201.18C119.86,-221.86 181.08,-272.12 210.16,-295.99"/>
<polygon fill="#000000" fill-opacity="0.200000" stroke="#000000" stroke-width="2" stroke-opacity="0.200000" points="208.9,-297.68 214.87,-299.86 211.57,-294.43 208.9,-297.68"/>
</g>
<!-- packages/UI/spectrogram/src/fft&#45;viewer.ts&#45;&gt;packages/UI/spectrogram/src/audio&#45;analyzer/audio&#45;analyzer.ts -->
<g id="edge15" class="edge">
<title>packages/UI/spectrogram/src/fft&#45;viewer.ts&#45;&gt;packages/UI/spectrogram/src/audio&#45;analyzer/audio&#45;analyzer.ts</title>
<path fill="none" stroke="#000000" stroke-width="2" stroke-opacity="0.200000" d="M261.56,-168.17C279.4,-163.47 301.47,-157.67 320.28,-152.72"/>
<polygon fill="#000000" fill-opacity="0.200000" stroke="#000000" stroke-width="2" stroke-opacity="0.200000" points="321.25,-154.63 326.52,-151.07 320.19,-150.57 321.25,-154.63"/>
</g>
<!-- packages/UI/spectrogram/src/fft&#45;viewer.ts&#45;&gt;packages/UI/view/src/reflectable/audio&#45;reflectable.ts -->
<g id="edge17" class="edge">
<title>packages/UI/spectrogram/src/fft&#45;viewer.ts&#45;&gt;packages/UI/view/src/reflectable/audio&#45;reflectable.ts</title>
<path fill="none" stroke="#000000" stroke-width="2" stroke-opacity="0.200000" d="M237.14,-186.07C260.11,-208.87 320.33,-268.64 347.44,-295.54"/>
<polygon fill="#000000" fill-opacity="0.200000" stroke="#000000" stroke-width="2" stroke-opacity="0.200000" points="346.06,-297.13 351.79,-299.86 349.02,-294.15 346.06,-297.13"/>
</g>
<!-- packages/util/math/src/fft/complex.ts -->
<g id="node16" class="node">
<title>packages/util/math/src/fft/complex.ts</title>
<g id="a_node16"><a xlink:href="packages/util/math/src/fft/complex.ts" xlink:title="complex.ts">
<path fill="#ddfeff" stroke="black" d="M959,-576C959,-576 905,-576 905,-576 902,-576 899,-573 899,-570 899,-570 899,-564 899,-564 899,-561 902,-558 905,-558 905,-558 959,-558 959,-558 962,-558 965,-561 965,-564 965,-564 965,-570 965,-570 965,-573 962,-576 959,-576"/>
<text text-anchor="start" x="907" y="-564.8" font-family="Helvetica,sans-Serif" font-size="9.00">complex.ts</text>
</a>
</g>
</g>
<!-- packages/UI/spectrogram/src/fft&#45;viewer.ts&#45;&gt;packages/util/math/src/fft/complex.ts -->
<g id="edge16" class="edge">
<title>packages/UI/spectrogram/src/fft&#45;viewer.ts&#45;&gt;packages/util/math/src/fft/complex.ts</title>
<path fill="none" stroke="#000000" stroke-width="2" stroke-opacity="0.200000" d="M243.39,-186.07C337.02,-237.86 803.81,-496.09 910.33,-555.01"/>
<polygon fill="#000000" fill-opacity="0.200000" stroke="#000000" stroke-width="2" stroke-opacity="0.200000" points="909.43,-556.92 915.7,-557.98 911.47,-553.24 909.43,-556.92"/>
</g>
<!-- packages/UI/spectrogram/src/spectrogram&#45;viewer.ts&#45;&gt;packages/UI/spectrogram/src/audio&#45;analyzer/audio&#45;analyzer.ts -->
<g id="edge18" class="edge">
<title>packages/UI/spectrogram/src/spectrogram&#45;viewer.ts&#45;&gt;packages/UI/spectrogram/src/audio&#45;analyzer/audio&#45;analyzer.ts</title>
<path fill="none" stroke="#000000" stroke-width="2" stroke-opacity="0.200000" d="M285.56,-144.84C293.35,-144.54 301.31,-144.24 308.99,-143.96"/>
<polygon fill="#000000" fill-opacity="0.200000" stroke="#000000" stroke-width="2" stroke-opacity="0.200000" points="309.45,-146.04 315.37,-143.72 309.3,-141.84 309.45,-146.04"/>
</g>
<!-- packages/UI/spectrogram/src/spectrogram&#45;viewer.ts&#45;&gt;packages/UI/view/src/reflectable/audio&#45;reflectable.ts -->
<g id="edge19" class="edge">
<title>packages/UI/spectrogram/src/spectrogram&#45;viewer.ts&#45;&gt;packages/UI/view/src/reflectable/audio&#45;reflectable.ts</title>
<path fill="none" stroke="#000000" stroke-width="2" stroke-opacity="0.200000" d="M235.53,-156.17C257.75,-183.24 323.14,-262.88 349.64,-295.17"/>
<polygon fill="#000000" fill-opacity="0.200000" stroke="#000000" stroke-width="2" stroke-opacity="0.200000" points="348.12,-296.62 353.55,-299.93 351.37,-293.96 348.12,-296.62"/>
</g>
<!-- packages/UI/spectrogram/src/wave&#45;viewer.ts&#45;&gt;packages/UI/spectrogram/src/audio&#45;analyzer/audio&#45;analyzer.ts -->
<g id="edge20" class="edge">
<title>packages/UI/spectrogram/src/wave&#45;viewer.ts&#45;&gt;packages/UI/spectrogram/src/audio&#45;analyzer/audio&#45;analyzer.ts</title>
<path fill="none" stroke="#000000" stroke-width="2" stroke-opacity="0.200000" d="M246.49,-197.96C269.98,-186.48 310.59,-166.64 336.6,-153.93"/>
<polygon fill="#000000" fill-opacity="0.200000" stroke="#000000" stroke-width="2" stroke-opacity="0.200000" points="337.77,-155.69 342.24,-151.17 335.92,-151.92 337.77,-155.69"/>
</g>
<!-- packages/UI/spectrogram/src/wave&#45;viewer.ts&#45;&gt;packages/UI/view/src/reflectable/audio&#45;reflectable.ts -->
<g id="edge23" class="edge">
<title>packages/UI/spectrogram/src/wave&#45;viewer.ts&#45;&gt;packages/UI/view/src/reflectable/audio&#45;reflectable.ts</title>
<path fill="none" stroke="#000000" stroke-width="2" stroke-opacity="0.200000" d="M239.8,-216.05C263.5,-234.23 316.94,-275.21 344.25,-296.15"/>
<polygon fill="#000000" fill-opacity="0.200000" stroke="#000000" stroke-width="2" stroke-opacity="0.200000" points="342.99,-297.84 349.03,-299.82 345.55,-294.5 342.99,-297.84"/>
</g>
<!-- packages/UI/spectrogram/src/wave&#45;viewer.ts&#45;&gt;packages/util/math/src/fft/complex.ts -->
<g id="edge22" class="edge">
<title>packages/UI/spectrogram/src/wave&#45;viewer.ts&#45;&gt;packages/util/math/src/fft/complex.ts</title>
<path fill="none" stroke="#000000" stroke-width="2" stroke-opacity="0.200000" d="M244.78,-216.08C341.08,-265.25 799.84,-499.51 908.76,-555.13"/>
<polygon fill="#000000" fill-opacity="0.200000" stroke="#000000" stroke-width="2" stroke-opacity="0.200000" points="907.97,-557.09 914.27,-557.95 909.88,-553.35 907.97,-557.09"/>
</g>
<!-- packages/util/math/src/fft/index.ts -->
<g id="node17" class="node">
<title>packages/util/math/src/fft/index.ts</title>
<g id="a_node17"><a xlink:href="packages/util/math/src/fft/index.ts" xlink:title="index.ts">
<path fill="#ddfeff" stroke="black" d="M636,-577C636,-577 594,-577 594,-577 591,-577 588,-574 588,-571 588,-571 588,-565 588,-565 588,-562 591,-559 594,-559 594,-559 636,-559 636,-559 639,-559 642,-562 642,-565 642,-565 642,-571 642,-571 642,-574 639,-577 636,-577"/>
<text text-anchor="start" x="596.5" y="-565.8" font-family="Helvetica,sans-Serif" font-size="9.00">index.ts</text>
</a>
</g>
</g>
<!-- packages/UI/spectrogram/src/wave&#45;viewer.ts&#45;&gt;packages/util/math/src/fft/index.ts -->
<g id="edge21" class="edge">
<title>packages/UI/spectrogram/src/wave&#45;viewer.ts&#45;&gt;packages/util/math/src/fft/index.ts</title>
<path fill="none" stroke="#000000" stroke-width="2" stroke-opacity="0.200000" d="M236.98,-216.29C289.93,-265.55 537.87,-496.24 600.57,-554.57"/>
<polygon fill="#000000" fill-opacity="0.200000" stroke="#000000" stroke-width="2" stroke-opacity="0.200000" points="599.26,-556.23 605.09,-558.77 602.12,-553.15 599.26,-556.23"/>
</g>
<!-- packages/UI/view/src/reflectable/audio&#45;reflectable&#45;registry.ts&#45;&gt;packages/UI/view/src/reflectable/audio&#45;reflectable.ts -->
<g id="edge24" class="edge">
<title>packages/UI/view/src/reflectable/audio&#45;reflectable&#45;registry.ts&#45;&gt;packages/UI/view/src/reflectable/audio&#45;reflectable.ts</title>
<path fill="none" stroke="#000000" stroke-width="2" stroke-opacity="0.200000" d="M297.23,-309C299.37,-309 301.52,-309 303.64,-309"/>
<polygon fill="#000000" fill-opacity="0.200000" stroke="#000000" stroke-width="2" stroke-opacity="0.200000" points="303.99,-311.1 309.99,-309 303.99,-306.9 303.99,-311.1"/>
</g>
<!-- packages/util/math/src/fft/index.ts&#45;&gt;packages/util/math/src/fft/complex.ts -->
<g id="edge33" class="edge">
<title>packages/util/math/src/fft/index.ts&#45;&gt;packages/util/math/src/fft/complex.ts</title>
<path fill="none" stroke="#000000" stroke-width="2" stroke-opacity="0.200000" d="M642.03,-567.91C698.16,-567.74 827.56,-567.33 892.84,-567.12"/>
<polygon fill="#000000" fill-opacity="0.200000" stroke="#000000" stroke-width="2" stroke-opacity="0.200000" points="892.96,-569.22 898.95,-567.1 892.94,-565.02 892.96,-569.22"/>
</g>
<!-- packages/util/math/src/fft/ftt&#45;core.ts -->
<g id="node22" class="node">
<title>packages/util/math/src/fft/ftt&#45;core.ts</title>
<g id="a_node22"><a xlink:href="packages/util/math/src/fft/ftt-core.ts" xlink:title="ftt&#45;core.ts">
<path fill="#ddfeff" stroke="black" d="M774.5,-584C774.5,-584 725.5,-584 725.5,-584 722.5,-584 719.5,-581 719.5,-578 719.5,-578 719.5,-572 719.5,-572 719.5,-569 722.5,-566 725.5,-566 725.5,-566 774.5,-566 774.5,-566 777.5,-566 780.5,-569 780.5,-572 780.5,-572 780.5,-578 780.5,-578 780.5,-581 777.5,-584 774.5,-584"/>
<text text-anchor="start" x="727.5" y="-572.8" font-family="Helvetica,sans-Serif" font-size="9.00">ftt&#45;core.ts</text>
</a>
</g>
</g>
<!-- packages/util/math/src/fft/index.ts&#45;&gt;packages/util/math/src/fft/ftt&#45;core.ts -->
<g id="edge34" class="edge">
<title>packages/util/math/src/fft/index.ts&#45;&gt;packages/util/math/src/fft/ftt&#45;core.ts</title>
<path fill="none" stroke="#000000" stroke-width="2" stroke-opacity="0.200000" d="M642.28,-569.38C662.48,-570.45 690.62,-571.93 712.94,-573.1"/>
<polygon fill="#000000" fill-opacity="0.200000" stroke="#000000" stroke-width="2" stroke-opacity="0.200000" points="712.96,-575.21 719.06,-573.42 713.18,-571.01 712.96,-575.21"/>
</g>
<!-- packages/util/math/src/fft/root&#45;of&#45;unity.ts -->
<g id="node23" class="node">
<title>packages/util/math/src/fft/root&#45;of&#45;unity.ts</title>
<g id="a_node23"><a xlink:href="packages/util/math/src/fft/root-of-unity.ts" xlink:title="root&#45;of&#45;unity.ts">
<path fill="#ddfeff" stroke="black" d="M870.5,-598C870.5,-598 799.5,-598 799.5,-598 796.5,-598 793.5,-595 793.5,-592 793.5,-592 793.5,-586 793.5,-586 793.5,-583 796.5,-580 799.5,-580 799.5,-580 870.5,-580 870.5,-580 873.5,-580 876.5,-583 876.5,-586 876.5,-586 876.5,-592 876.5,-592 876.5,-595 873.5,-598 870.5,-598"/>
<text text-anchor="start" x="801.5" y="-586.8" font-family="Helvetica,sans-Serif" font-size="9.00">root&#45;of&#45;unity.ts</text>
</a>
</g>
</g>
<!-- packages/util/math/src/fft/index.ts&#45;&gt;packages/util/math/src/fft/root&#45;of&#45;unity.ts -->
<g id="edge35" class="edge">
<title>packages/util/math/src/fft/index.ts&#45;&gt;packages/util/math/src/fft/root&#45;of&#45;unity.ts</title>
<path fill="none" stroke="#000000" stroke-width="2" stroke-opacity="0.200000" d="M642.42,-570.62C678.61,-574.07 742.92,-580.21 787.19,-584.44"/>
<polygon fill="#000000" fill-opacity="0.200000" stroke="#000000" stroke-width="2" stroke-opacity="0.200000" points="787.13,-586.54 793.3,-585.02 787.53,-582.36 787.13,-586.54"/>
</g>
<!-- packages/util/math/src/fft/typed&#45;array.ts -->
<g id="node19" class="node">
<title>packages/util/math/src/fft/typed&#45;array.ts</title>
<g id="a_node19"><a xlink:href="packages/util/math/src/fft/typed-array.ts" xlink:title="typed&#45;array.ts">
<path fill="#ddfeff" stroke="black" d="M965.5,-514C965.5,-514 898.5,-514 898.5,-514 895.5,-514 892.5,-511 892.5,-508 892.5,-508 892.5,-502 892.5,-502 892.5,-499 895.5,-496 898.5,-496 898.5,-496 965.5,-496 965.5,-496 968.5,-496 971.5,-499 971.5,-502 971.5,-502 971.5,-508 971.5,-508 971.5,-511 968.5,-514 965.5,-514"/>
<text text-anchor="start" x="900.5" y="-502.8" font-family="Helvetica,sans-Serif" font-size="9.00">typed&#45;array.ts</text>
</a>
</g>
</g>
<!-- packages/util/math/src/fft/array/complex.ts&#45;&gt;packages/util/math/src/fft/typed&#45;array.ts -->
<g id="edge25" class="edge">
<title>packages/util/math/src/fft/array/complex.ts&#45;&gt;packages/util/math/src/fft/typed&#45;array.ts</title>
<path fill="none" stroke="#000000" stroke-width="2" stroke-opacity="0.200000" d="M868.16,-487.8C875.8,-489.89 884.03,-492.14 891.93,-494.31"/>
<polygon fill="#000000" fill-opacity="0.200000" stroke="#000000" stroke-width="2" stroke-opacity="0.200000" points="891.56,-496.38 897.9,-495.94 892.67,-492.33 891.56,-496.38"/>
</g>
<!-- packages/util/math/src/fft/array/ftt&#45;core.ts&#45;&gt;packages/util/math/src/fft/array/complex.ts -->
<g id="edge27" class="edge">
<title>packages/util/math/src/fft/array/ftt&#45;core.ts&#45;&gt;packages/util/math/src/fft/array/complex.ts</title>
<path fill="none" stroke="#000000" stroke-width="2" stroke-opacity="0.200000" d="M780.03,-495.91C786.26,-493.96 792.9,-491.88 799.31,-489.87"/>
<polygon fill="#000000" fill-opacity="0.200000" stroke="#000000" stroke-width="2" stroke-opacity="0.200000" points="800.03,-491.84 805.13,-488.04 798.77,-487.83 800.03,-491.84"/>
</g>
<!-- packages/util/math/src/fft/array/ftt&#45;core.ts&#45;&gt;packages/util/math/src/fft/typed&#45;array.ts -->
<g id="edge26" class="edge">
<title>packages/util/math/src/fft/array/ftt&#45;core.ts&#45;&gt;packages/util/math/src/fft/typed&#45;array.ts</title>
<path fill="none" stroke="#000000" stroke-width="2" stroke-opacity="0.200000" d="M780.87,-505C809.8,-505 853.4,-505 886.35,-505"/>
<polygon fill="#000000" fill-opacity="0.200000" stroke="#000000" stroke-width="2" stroke-opacity="0.200000" points="886.37,-507.1 892.37,-505 886.37,-502.9 886.37,-507.1"/>
</g>
<!-- packages/util/math/src/fft/array/root&#45;of&#45;unity.ts -->
<g id="node21" class="node">
<title>packages/util/math/src/fft/array/root&#45;of&#45;unity.ts</title>
<g id="a_node21"><a xlink:href="packages/util/math/src/fft/array/root-of-unity.ts" xlink:title="root&#45;of&#45;unity.ts">
<path fill="#ddfeff" stroke="black" d="M870.5,-518C870.5,-518 799.5,-518 799.5,-518 796.5,-518 793.5,-515 793.5,-512 793.5,-512 793.5,-506 793.5,-506 793.5,-503 796.5,-500 799.5,-500 799.5,-500 870.5,-500 870.5,-500 873.5,-500 876.5,-503 876.5,-506 876.5,-506 876.5,-512 876.5,-512 876.5,-515 873.5,-518 870.5,-518"/>
<text text-anchor="start" x="801.5" y="-506.8" font-family="Helvetica,sans-Serif" font-size="9.00">root&#45;of&#45;unity.ts</text>
</a>
</g>
</g>
<!-- packages/util/math/src/fft/array/ftt&#45;core.ts&#45;&gt;packages/util/math/src/fft/array/root&#45;of&#45;unity.ts -->
<g id="edge28" class="edge">
<title>packages/util/math/src/fft/array/ftt&#45;core.ts&#45;&gt;packages/util/math/src/fft/array/root&#45;of&#45;unity.ts</title>
<path fill="none" stroke="#000000" stroke-width="2" stroke-opacity="0.200000" d="M780.96,-506.44C782.96,-506.54 785,-506.64 787.05,-506.74"/>
<polygon fill="#000000" fill-opacity="0.200000" stroke="#000000" stroke-width="2" stroke-opacity="0.200000" points="787.15,-508.84 793.24,-507.04 787.35,-504.65 787.15,-508.84"/>
</g>
<!-- packages/util/math/src/fft/ftt&#45;core.ts&#45;&gt;packages/util/math/src/fft/complex.ts -->
<g id="edge31" class="edge">
<title>packages/util/math/src/fft/ftt&#45;core.ts&#45;&gt;packages/util/math/src/fft/complex.ts</title>
<path fill="none" stroke="#000000" stroke-width="2" stroke-opacity="0.200000" d="M780.87,-573.64C811.71,-572.29 859.22,-570.2 892.73,-568.73"/>
<polygon fill="#000000" fill-opacity="0.200000" stroke="#000000" stroke-width="2" stroke-opacity="0.200000" points="892.91,-570.82 898.82,-568.46 892.73,-566.62 892.91,-570.82"/>
</g>
<!-- packages/util/math/src/fft/ftt&#45;core.ts&#45;&gt;packages/util/math/src/fft/root&#45;of&#45;unity.ts -->
<g id="edge32" class="edge">
<title>packages/util/math/src/fft/ftt&#45;core.ts&#45;&gt;packages/util/math/src/fft/root&#45;of&#45;unity.ts</title>
<path fill="none" stroke="#000000" stroke-width="2" stroke-opacity="0.200000" d="M780.96,-580.05C782.96,-580.39 785,-580.73 787.05,-581.08"/>
<polygon fill="#000000" fill-opacity="0.200000" stroke="#000000" stroke-width="2" stroke-opacity="0.200000" points="786.98,-583.2 793.24,-582.13 787.68,-579.06 786.98,-583.2"/>
</g>
<!-- packages/util/math/src/fft/root&#45;of&#45;unity.ts&#45;&gt;packages/util/math/src/fft/complex.ts -->
<g id="edge36" class="edge">
<title>packages/util/math/src/fft/root&#45;of&#45;unity.ts&#45;&gt;packages/util/math/src/fft/complex.ts</title>
<path fill="none" stroke="#000000" stroke-width="2" stroke-opacity="0.200000" d="M874.91,-579.99C880.91,-578.6 887.09,-577.17 893.07,-575.78"/>
<polygon fill="#000000" fill-opacity="0.200000" stroke="#000000" stroke-width="2" stroke-opacity="0.200000" points="893.58,-577.82 898.96,-574.42 892.64,-573.73 893.58,-577.82"/>
</g>
</g>
</svg>
