<?xml version="1.0" encoding="UTF-8" standalone="no"?>
<!DOCTYPE svg PUBLIC "-//W3C//DTD SVG 1.1//EN"
 "http://www.w3.org/Graphics/SVG/1.1/DTD/svg11.dtd">
<!-- Generated by graphviz version 2.43.0 (0)
 -->
<!-- Title: dependency&#45;cruiser output Pages: 1 -->
<svg width="1265pt" height="742pt"
 viewBox="0.00 0.00 1265.00 742.00" xmlns="http://www.w3.org/2000/svg" xmlns:xlink="http://www.w3.org/1999/xlink">
<g id="graph0" class="graph" transform="scale(1 1) rotate(0) translate(4 738)">
<title>dependency&#45;cruiser output</title>
<polygon fill="white" stroke="transparent" points="-4,4 -4,-738 1261,-738 1261,4 -4,4"/>
<g id="clust1" class="cluster">
<title>cluster_packages</title>
<path fill="#ffffff" stroke="black" stroke-width="2" d="M20,-8C20,-8 1237,-8 1237,-8 1243,-8 1249,-14 1249,-20 1249,-20 1249,-714 1249,-714 1249,-720 1243,-726 1237,-726 1237,-726 20,-726 20,-726 14,-726 8,-720 8,-714 8,-714 8,-20 8,-20 8,-14 14,-8 20,-8"/>
<text text-anchor="middle" x="628.5" y="-714.8" font-family="Helvetica,sans-Serif" font-weight="bold" font-size="9.00">packages</text>
</g>
<g id="clust2" class="cluster">
<title>cluster_packages/UI</title>
<path fill="#ffffff" stroke="black" stroke-width="2" d="M28,-16C28,-16 937,-16 937,-16 943,-16 949,-22 949,-28 949,-28 949,-402 949,-402 949,-408 943,-414 937,-414 937,-414 28,-414 28,-414 22,-414 16,-408 16,-402 16,-402 16,-28 16,-28 16,-22 22,-16 28,-16"/>
<text text-anchor="middle" x="482.5" y="-402.8" font-family="Helvetica,sans-Serif" font-weight="bold" font-size="9.00">UI</text>
</g>
<g id="clust3" class="cluster">
<title>cluster_packages/UI/spectrogram</title>
<path fill="#ffffff" stroke="black" stroke-width="2" d="M36,-24C36,-24 811,-24 811,-24 817,-24 823,-30 823,-36 823,-36 823,-376 823,-376 823,-382 817,-388 811,-388 811,-388 36,-388 36,-388 30,-388 24,-382 24,-376 24,-376 24,-36 24,-36 24,-30 30,-24 36,-24"/>
<text text-anchor="middle" x="423.5" y="-376.8" font-family="Helvetica,sans-Serif" font-weight="bold" font-size="9.00">spectrogram</text>
</g>
<g id="clust4" class="cluster">
<title>cluster_packages/UI/spectrogram/src</title>
<path fill="#ffffff" stroke="black" stroke-width="2" d="M106,-32C106,-32 803,-32 803,-32 809,-32 815,-38 815,-44 815,-44 815,-350 815,-350 815,-356 809,-362 803,-362 803,-362 106,-362 106,-362 100,-362 94,-356 94,-350 94,-350 94,-44 94,-44 94,-38 100,-32 106,-32"/>
<text text-anchor="middle" x="454.5" y="-350.8" font-family="Helvetica,sans-Serif" font-weight="bold" font-size="9.00">src</text>
</g>
<g id="clust5" class="cluster">
<title>cluster_packages/UI/spectrogram/src/audio&#45;analyzer</title>
<path fill="#ffffff" stroke="black" stroke-width="2" d="M337,-100C337,-100 795,-100 795,-100 801,-100 807,-106 807,-112 807,-112 807,-324 807,-324 807,-330 801,-336 795,-336 795,-336 337,-336 337,-336 331,-336 325,-330 325,-324 325,-324 325,-112 325,-112 325,-106 331,-100 337,-100"/>
<text text-anchor="middle" x="566" y="-324.8" font-family="Helvetica,sans-Serif" font-weight="bold" font-size="9.00">audio&#45;analyzer</text>
</g>
<g id="clust6" class="cluster">
<title>cluster_packages/UI/spectrogram/src/audio&#45;analyzer/facade</title>
<path fill="#ffffff" stroke="black" stroke-width="2" d="M630,-108C630,-108 676,-108 676,-108 682,-108 688,-114 688,-120 688,-120 688,-148 688,-148 688,-154 682,-160 676,-160 676,-160 630,-160 630,-160 624,-160 618,-154 618,-148 618,-148 618,-120 618,-120 618,-114 624,-108 630,-108"/>
<text text-anchor="middle" x="653" y="-148.8" font-family="Helvetica,sans-Serif" font-weight="bold" font-size="9.00">facade</text>
</g>
<g id="clust7" class="cluster">
<title>cluster_packages/UI/spectrogram/src/audio&#45;analyzer/get&#45;data&#45;on&#45;buffer</title>
<path fill="#ffffff" stroke="black" stroke-width="2" d="M630,-168C630,-168 787,-168 787,-168 793,-168 799,-174 799,-180 799,-180 799,-298 799,-298 799,-304 793,-310 787,-310 787,-310 630,-310 630,-310 624,-310 618,-304 618,-298 618,-298 618,-180 618,-180 618,-174 624,-168 630,-168"/>
<text text-anchor="middle" x="708.5" y="-298.8" font-family="Helvetica,sans-Serif" font-weight="bold" font-size="9.00">get&#45;data&#45;on&#45;buffer</text>
</g>
<g id="clust8" class="cluster">
<title>cluster_packages/UI/spectrogram/src/facade</title>
<path fill="#ffffff" stroke="black" stroke-width="2" d="M720.5,-40C720.5,-40 766.5,-40 766.5,-40 772.5,-40 778.5,-46 778.5,-52 778.5,-52 778.5,-80 778.5,-80 778.5,-86 772.5,-92 766.5,-92 766.5,-92 720.5,-92 720.5,-92 714.5,-92 708.5,-86 708.5,-80 708.5,-80 708.5,-52 708.5,-52 708.5,-46 714.5,-40 720.5,-40"/>
<text text-anchor="middle" x="743.5" y="-80.8" font-family="Helvetica,sans-Serif" font-weight="bold" font-size="9.00">facade</text>
</g>
<g id="clust9" class="cluster">
<title>cluster_packages/UI/view</title>
<path fill="#ffffff" stroke="black" stroke-width="2" d="M867,-28C867,-28 929,-28 929,-28 935,-28 941,-34 941,-40 941,-40 941,-102 941,-102 941,-108 935,-114 929,-114 929,-114 867,-114 867,-114 861,-114 855,-108 855,-102 855,-102 855,-40 855,-40 855,-34 861,-28 867,-28"/>
<text text-anchor="middle" x="898" y="-102.8" font-family="Helvetica,sans-Serif" font-weight="bold" font-size="9.00">view</text>
</g>
<g id="clust10" class="cluster">
<title>cluster_packages/UI/view/dist</title>
<path fill="#ffffff" stroke="black" stroke-width="2" d="M875,-36C875,-36 921,-36 921,-36 927,-36 933,-42 933,-48 933,-48 933,-76 933,-76 933,-82 927,-88 921,-88 921,-88 875,-88 875,-88 869,-88 863,-82 863,-76 863,-76 863,-48 863,-48 863,-42 869,-36 875,-36"/>
<text text-anchor="middle" x="898" y="-76.8" font-family="Helvetica,sans-Serif" font-weight="bold" font-size="9.00">dist</text>
</g>
<g id="clust11" class="cluster">
<title>cluster_packages/util</title>
<path fill="#ffffff" stroke="black" stroke-width="2" d="M843,-422C843,-422 1229,-422 1229,-422 1235,-422 1241,-428 1241,-434 1241,-434 1241,-688 1241,-688 1241,-694 1235,-700 1229,-700 1229,-700 843,-700 843,-700 837,-700 831,-694 831,-688 831,-688 831,-434 831,-434 831,-428 837,-422 843,-422"/>
<text text-anchor="middle" x="1036" y="-688.8" font-family="Helvetica,sans-Serif" font-weight="bold" font-size="9.00">util</text>
</g>
<g id="clust12" class="cluster">
<title>cluster_packages/util/math</title>
<path fill="#ffffff" stroke="black" stroke-width="2" d="M851,-430C851,-430 1221,-430 1221,-430 1227,-430 1233,-436 1233,-442 1233,-442 1233,-662 1233,-662 1233,-668 1227,-674 1221,-674 1221,-674 851,-674 851,-674 845,-674 839,-668 839,-662 839,-662 839,-442 839,-442 839,-436 845,-430 851,-430"/>
<text text-anchor="middle" x="1036" y="-662.8" font-family="Helvetica,sans-Serif" font-weight="bold" font-size="9.00">math</text>
</g>
<g id="clust13" class="cluster">
<title>cluster_packages/util/math/dist</title>
<path fill="#ffffff" stroke="black" stroke-width="2" d="M875,-596C875,-596 921,-596 921,-596 927,-596 933,-602 933,-608 933,-608 933,-636 933,-636 933,-642 927,-648 921,-648 921,-648 875,-648 875,-648 869,-648 863,-642 863,-636 863,-636 863,-608 863,-608 863,-602 869,-596 875,-596"/>
<text text-anchor="middle" x="898" y="-636.8" font-family="Helvetica,sans-Serif" font-weight="bold" font-size="9.00">dist</text>
</g>
<g id="clust14" class="cluster">
<title>cluster_packages/util/math/src</title>
<path fill="#ffffff" stroke="black" stroke-width="2" d="M859,-438C859,-438 1213,-438 1213,-438 1219,-438 1225,-444 1225,-450 1225,-450 1225,-576 1225,-576 1225,-582 1219,-588 1213,-588 1213,-588 859,-588 859,-588 853,-588 847,-582 847,-576 847,-576 847,-450 847,-450 847,-444 853,-438 859,-438"/>
<text text-anchor="middle" x="1036" y="-576.8" font-family="Helvetica,sans-Serif" font-weight="bold" font-size="9.00">src</text>
</g>
<g id="clust15" class="cluster">
<title>cluster_packages/util/math/src/fft</title>
<path fill="#ffffff" stroke="black" stroke-width="2" d="M867,-446C867,-446 1205,-446 1205,-446 1211,-446 1217,-452 1217,-458 1217,-458 1217,-550 1217,-550 1217,-556 1211,-562 1205,-562 1205,-562 867,-562 867,-562 861,-562 855,-556 855,-550 855,-550 855,-458 855,-458 855,-452 861,-446 867,-446"/>
<text text-anchor="middle" x="1036" y="-550.8" font-family="Helvetica,sans-Serif" font-weight="bold" font-size="9.00">fft</text>
</g>
<g id="clust16" class="cluster">
<title>cluster_packages/util/math/src/fft/array</title>
<path fill="#ffffff" stroke="black" stroke-width="2" d="M875,-454C875,-454 1110,-454 1110,-454 1116,-454 1122,-460 1122,-466 1122,-466 1122,-524 1122,-524 1122,-530 1116,-536 1110,-536 1110,-536 875,-536 875,-536 869,-536 863,-530 863,-524 863,-524 863,-466 863,-466 863,-460 869,-454 875,-454"/>
<text text-anchor="middle" x="992.5" y="-524.8" font-family="Helvetica,sans-Serif" font-weight="bold" font-size="9.00">array</text>
</g>
<!-- packages/UI/spectrogram/index.ts -->
<g id="node1" class="node">
<title>packages/UI/spectrogram/index.ts</title>
<g id="a_node1"><a xlink:href="packages/UI/spectrogram/index.ts" xlink:title="index.ts">
<path fill="#ddfeff" stroke="black" d="M80,-102C80,-102 38,-102 38,-102 35,-102 32,-99 32,-96 32,-96 32,-90 32,-90 32,-87 35,-84 38,-84 38,-84 80,-84 80,-84 83,-84 86,-87 86,-90 86,-90 86,-96 86,-96 86,-99 83,-102 80,-102"/>
<text text-anchor="start" x="40.5" y="-90.8" font-family="Helvetica,sans-Serif" font-size="9.00">index.ts</text>
</a>
</g>
</g>
<!-- packages/UI/spectrogram/src/audio&#45;viewer.ts -->
<g id="node2" class="node">
<title>packages/UI/spectrogram/src/audio&#45;viewer.ts</title>
<g id="a_node2"><a xlink:href="packages/UI/spectrogram/src/audio-viewer.ts" xlink:title="audio&#45;viewer.ts">
<path fill="#ddfeff" stroke="black" d="M181,-102C181,-102 108,-102 108,-102 105,-102 102,-99 102,-96 102,-96 102,-90 102,-90 102,-87 105,-84 108,-84 108,-84 181,-84 181,-84 184,-84 187,-87 187,-90 187,-90 187,-96 187,-96 187,-99 184,-102 181,-102"/>
<text text-anchor="start" x="110" y="-90.8" font-family="Helvetica,sans-Serif" font-size="9.00">audio&#45;viewer.ts</text>
</a>
</g>
</g>
<!-- packages/UI/spectrogram/index.ts&#45;&gt;packages/UI/spectrogram/src/audio&#45;viewer.ts -->
<g id="edge1" class="edge">
<title>packages/UI/spectrogram/index.ts&#45;&gt;packages/UI/spectrogram/src/audio&#45;viewer.ts</title>
<path fill="none" stroke="#000000" stroke-width="2" stroke-opacity="0.200000" d="M86.42,-93C89.37,-93 92.44,-93 95.56,-93"/>
<polygon fill="#000000" fill-opacity="0.200000" stroke="#000000" stroke-width="2" stroke-opacity="0.200000" points="101.99,-95.1 95.99,-93 101.99,-90.9 101.99,-95.1"/>
</g>
<!-- packages/UI/spectrogram/src/facade/index.ts -->
<g id="node9" class="node">
<title>packages/UI/spectrogram/src/facade/index.ts</title>
<g id="a_node9"><a xlink:href="packages/UI/spectrogram/src/facade/index.ts" xlink:title="index.ts">
<path fill="#ddfeff" stroke="black" d="M764.5,-66C764.5,-66 722.5,-66 722.5,-66 719.5,-66 716.5,-63 716.5,-60 716.5,-60 716.5,-54 716.5,-54 716.5,-51 719.5,-48 722.5,-48 722.5,-48 764.5,-48 764.5,-48 767.5,-48 770.5,-51 770.5,-54 770.5,-54 770.5,-60 770.5,-60 770.5,-63 767.5,-66 764.5,-66"/>
<text text-anchor="start" x="725" y="-54.8" font-family="Helvetica,sans-Serif" font-size="9.00">index.ts</text>
</a>
</g>
</g>
<!-- packages/UI/spectrogram/src/audio&#45;viewer.ts&#45;&gt;packages/UI/spectrogram/src/facade/index.ts -->
<g id="edge14" class="edge">
<title>packages/UI/spectrogram/src/audio&#45;viewer.ts&#45;&gt;packages/UI/spectrogram/src/facade/index.ts</title>
<path fill="none" stroke="#000000" stroke-width="2" stroke-opacity="0.200000" d="M178.46,-83.93C189.94,-80.77 200,-78 200,-78 200,-78 484.5,-63 484.5,-63 484.5,-63 484.5,-63 578.5,-63 578.5,-63 662.11,-59.94 709.94,-58.19"/>
<polygon fill="#000000" fill-opacity="0.200000" stroke="#000000" stroke-width="2" stroke-opacity="0.200000" points="710.23,-60.28 716.15,-57.96 710.08,-56.08 710.23,-60.28"/>
</g>
<!-- packages/UI/spectrogram/src/audio&#45;analyzer/index.ts -->
<g id="node14" class="node">
<title>packages/UI/spectrogram/src/audio&#45;analyzer/index.ts</title>
<g id="a_node14"><a xlink:href="packages/UI/spectrogram/src/audio-analyzer/index.ts" xlink:title="index.ts">
<path fill="#ddfeff" stroke="black" d="M400.5,-132C400.5,-132 358.5,-132 358.5,-132 355.5,-132 352.5,-129 352.5,-126 352.5,-126 352.5,-120 352.5,-120 352.5,-117 355.5,-114 358.5,-114 358.5,-114 400.5,-114 400.5,-114 403.5,-114 406.5,-117 406.5,-120 406.5,-120 406.5,-126 406.5,-126 406.5,-129 403.5,-132 400.5,-132"/>
<text text-anchor="start" x="361" y="-120.8" font-family="Helvetica,sans-Serif" font-size="9.00">index.ts</text>
</a>
</g>
</g>
<!-- packages/UI/spectrogram/src/audio&#45;viewer.ts&#45;&gt;packages/UI/spectrogram/src/audio&#45;analyzer/index.ts -->
<g id="edge13" class="edge">
<title>packages/UI/spectrogram/src/audio&#45;viewer.ts&#45;&gt;packages/UI/spectrogram/src/audio&#45;analyzer/index.ts</title>
<path fill="none" stroke="#000000" stroke-width="2" stroke-opacity="0.200000" d="M156.53,-102.11C172.45,-115.26 200,-138 200,-138 200,-138 317,-138 317,-138 317,-138 331.54,-134.45 346.48,-130.81"/>
<polygon fill="#000000" fill-opacity="0.200000" stroke="#000000" stroke-width="2" stroke-opacity="0.200000" points="347.09,-132.82 352.42,-129.36 346.09,-128.74 347.09,-132.82"/>
</g>
<!-- packages/UI/spectrogram/src/fft&#45;viewer.ts -->
<g id="node15" class="node">
<title>packages/UI/spectrogram/src/fft&#45;viewer.ts</title>
<g id="a_node15"><a xlink:href="packages/UI/spectrogram/src/fft-viewer.ts" xlink:title="fft&#45;viewer.ts">
<path fill="#ddfeff" stroke="black" d="M287,-102C287,-102 230,-102 230,-102 227,-102 224,-99 224,-96 224,-96 224,-90 224,-90 224,-87 227,-84 230,-84 230,-84 287,-84 287,-84 290,-84 293,-87 293,-90 293,-90 293,-96 293,-96 293,-99 290,-102 287,-102"/>
<text text-anchor="start" x="232" y="-90.8" font-family="Helvetica,sans-Serif" font-size="9.00">fft&#45;viewer.ts</text>
</a>
</g>
</g>
<!-- packages/UI/spectrogram/src/audio&#45;viewer.ts&#45;&gt;packages/UI/spectrogram/src/fft&#45;viewer.ts -->
<g id="edge15" class="edge">
<title>packages/UI/spectrogram/src/audio&#45;viewer.ts&#45;&gt;packages/UI/spectrogram/src/fft&#45;viewer.ts</title>
<path fill="none" stroke="#000000" stroke-width="2" stroke-opacity="0.200000" d="M187.2,-93C197.2,-93 207.84,-93 217.74,-93"/>
<polygon fill="#000000" fill-opacity="0.200000" stroke="#000000" stroke-width="2" stroke-opacity="0.200000" points="217.8,-95.1 223.8,-93 217.8,-90.9 217.8,-95.1"/>
</g>
<!-- packages/UI/spectrogram/src/spectrogram&#45;viewer.ts -->
<g id="node16" class="node">
<title>packages/UI/spectrogram/src/spectrogram&#45;viewer.ts</title>
<g id="a_node16"><a xlink:href="packages/UI/spectrogram/src/spectrogram-viewer.ts" xlink:title="spectrogram&#45;viewer.ts">
<path fill="#ddfeff" stroke="black" d="M311,-58C311,-58 206,-58 206,-58 203,-58 200,-55 200,-52 200,-52 200,-46 200,-46 200,-43 203,-40 206,-40 206,-40 311,-40 311,-40 314,-40 317,-43 317,-46 317,-46 317,-52 317,-52 317,-55 314,-58 311,-58"/>
<text text-anchor="start" x="208" y="-46.8" font-family="Helvetica,sans-Serif" font-size="9.00">spectrogram&#45;viewer.ts</text>
</a>
</g>
</g>
<!-- packages/UI/spectrogram/src/audio&#45;viewer.ts&#45;&gt;packages/UI/spectrogram/src/spectrogram&#45;viewer.ts -->
<g id="edge16" class="edge">
<title>packages/UI/spectrogram/src/audio&#45;viewer.ts&#45;&gt;packages/UI/spectrogram/src/spectrogram&#45;viewer.ts</title>
<path fill="none" stroke="#000000" stroke-width="2" stroke-opacity="0.200000" d="M164.56,-83.91C180.28,-76.41 200,-67 200,-67 200,-67 210.45,-63.73 222.44,-59.97"/>
<polygon fill="#000000" fill-opacity="0.200000" stroke="#000000" stroke-width="2" stroke-opacity="0.200000" points="223.31,-61.9 228.41,-58.11 222.06,-57.89 223.31,-61.9"/>
</g>
<!-- packages/UI/spectrogram/src/wave&#45;viewer.ts -->
<g id="node17" class="node">
<title>packages/UI/spectrogram/src/wave&#45;viewer.ts</title>
<g id="a_node17"><a xlink:href="packages/UI/spectrogram/src/wave-viewer.ts" xlink:title="wave&#45;viewer.ts">
<path fill="#ddfeff" stroke="black" d="M294,-132C294,-132 223,-132 223,-132 220,-132 217,-129 217,-126 217,-126 217,-120 217,-120 217,-117 220,-114 223,-114 223,-114 294,-114 294,-114 297,-114 300,-117 300,-120 300,-120 300,-126 300,-126 300,-129 297,-132 294,-132"/>
<text text-anchor="start" x="225" y="-120.8" font-family="Helvetica,sans-Serif" font-size="9.00">wave&#45;viewer.ts</text>
</a>
</g>
</g>
<!-- packages/UI/spectrogram/src/audio&#45;viewer.ts&#45;&gt;packages/UI/spectrogram/src/wave&#45;viewer.ts -->
<g id="edge17" class="edge">
<title>packages/UI/spectrogram/src/audio&#45;viewer.ts&#45;&gt;packages/UI/spectrogram/src/wave&#45;viewer.ts</title>
<path fill="none" stroke="#000000" stroke-width="2" stroke-opacity="0.200000" d="M178.46,-102.07C189.94,-105.23 200,-108 200,-108 200,-108 207.28,-109.9 216.66,-112.35"/>
<polygon fill="#000000" fill-opacity="0.200000" stroke="#000000" stroke-width="2" stroke-opacity="0.200000" points="216.39,-114.45 222.73,-113.93 217.45,-110.38 216.39,-114.45"/>
</g>
<!-- packages/UI/spectrogram/src/audio&#45;analyzer/audio&#45;analyzer.ts -->
<g id="node3" class="node">
<title>packages/UI/spectrogram/src/audio&#45;analyzer/audio&#45;analyzer.ts</title>
<g id="a_node3"><a xlink:href="packages/UI/spectrogram/src/audio-analyzer/audio-analyzer.ts" xlink:title="audio&#45;analyzer.ts">
<path fill="#ddfeff" stroke="black" d="M526,-171C526,-171 445,-171 445,-171 442,-171 439,-168 439,-165 439,-165 439,-159 439,-159 439,-156 442,-153 445,-153 445,-153 526,-153 526,-153 529,-153 532,-156 532,-159 532,-159 532,-165 532,-165 532,-168 529,-171 526,-171"/>
<text text-anchor="start" x="447" y="-159.8" font-family="Helvetica,sans-Serif" font-size="9.00">audio&#45;analyzer.ts</text>
</a>
</g>
</g>
<!-- packages/UI/spectrogram/src/audio&#45;analyzer/connect.ts -->
<g id="node4" class="node">
<title>packages/UI/spectrogram/src/audio&#45;analyzer/connect.ts</title>
<g id="a_node4"><a xlink:href="packages/UI/spectrogram/src/audio-analyzer/connect.ts" xlink:title="connect.ts">
<path fill="#ddfeff" stroke="black" d="M604,-204C604,-204 551,-204 551,-204 548,-204 545,-201 545,-198 545,-198 545,-192 545,-192 545,-189 548,-186 551,-186 551,-186 604,-186 604,-186 607,-186 610,-189 610,-192 610,-192 610,-198 610,-198 610,-201 607,-204 604,-204"/>
<text text-anchor="start" x="553" y="-192.8" font-family="Helvetica,sans-Serif" font-size="9.00">connect.ts</text>
</a>
</g>
</g>
<!-- packages/UI/spectrogram/src/audio&#45;analyzer/audio&#45;analyzer.ts&#45;&gt;packages/UI/spectrogram/src/audio&#45;analyzer/connect.ts -->
<g id="edge2" class="edge">
<title>packages/UI/spectrogram/src/audio&#45;analyzer/audio&#45;analyzer.ts&#45;&gt;packages/UI/spectrogram/src/audio&#45;analyzer/connect.ts</title>
<path fill="none" stroke="#000000" stroke-width="2" stroke-opacity="0.200000" d="M511.09,-171.02C521.91,-174.98 534.72,-179.68 546.12,-183.86"/>
<polygon fill="#000000" fill-opacity="0.200000" stroke="#000000" stroke-width="2" stroke-opacity="0.200000" points="545.58,-185.9 551.94,-185.99 547.03,-181.96 545.58,-185.9"/>
</g>
<!-- packages/UI/spectrogram/src/audio&#45;analyzer/get&#45;data&#45;on&#45;buffer/index.ts -->
<g id="node5" class="node">
<title>packages/UI/spectrogram/src/audio&#45;analyzer/get&#45;data&#45;on&#45;buffer/index.ts</title>
<g id="a_node5"><a xlink:href="packages/UI/spectrogram/src/audio-analyzer/get-data-on-buffer/index.ts" xlink:title="index.ts">
<path fill="#ddfeff" stroke="black" d="M674,-209C674,-209 632,-209 632,-209 629,-209 626,-206 626,-203 626,-203 626,-197 626,-197 626,-194 629,-191 632,-191 632,-191 674,-191 674,-191 677,-191 680,-194 680,-197 680,-197 680,-203 680,-203 680,-206 677,-209 674,-209"/>
<text text-anchor="start" x="634.5" y="-197.8" font-family="Helvetica,sans-Serif" font-size="9.00">index.ts</text>
</a>
</g>
</g>
<!-- packages/UI/spectrogram/src/audio&#45;analyzer/audio&#45;analyzer.ts&#45;&gt;packages/UI/spectrogram/src/audio&#45;analyzer/get&#45;data&#45;on&#45;buffer/index.ts -->
<g id="edge3" class="edge">
<title>packages/UI/spectrogram/src/audio&#45;analyzer/audio&#45;analyzer.ts&#45;&gt;packages/UI/spectrogram/src/audio&#45;analyzer/get&#45;data&#45;on&#45;buffer/index.ts</title>
<path fill="none" stroke="#000000" stroke-width="2" stroke-opacity="0.200000" d="M532.14,-168.65C567.32,-173.78 610,-180 610,-180 610,-180 618.28,-183.94 627.49,-188.33"/>
<polygon fill="#000000" fill-opacity="0.200000" stroke="#000000" stroke-width="2" stroke-opacity="0.200000" points="626.65,-190.25 632.97,-190.94 628.45,-186.46 626.65,-190.25"/>
</g>
<!-- packages/UI/spectrogram/src/audio&#45;analyzer/get&#45;fft.ts -->
<g id="node6" class="node">
<title>packages/UI/spectrogram/src/audio&#45;analyzer/get&#45;fft.ts</title>
<g id="a_node6"><a xlink:href="packages/UI/spectrogram/src/audio-analyzer/get-fft.ts" xlink:title="get&#45;fft.ts">
<path fill="#ddfeff" stroke="black" d="M599.5,-160C599.5,-160 555.5,-160 555.5,-160 552.5,-160 549.5,-157 549.5,-154 549.5,-154 549.5,-148 549.5,-148 549.5,-145 552.5,-142 555.5,-142 555.5,-142 599.5,-142 599.5,-142 602.5,-142 605.5,-145 605.5,-148 605.5,-148 605.5,-154 605.5,-154 605.5,-157 602.5,-160 599.5,-160"/>
<text text-anchor="start" x="557.5" y="-148.8" font-family="Helvetica,sans-Serif" font-size="9.00">get&#45;fft.ts</text>
</a>
</g>
</g>
<!-- packages/UI/spectrogram/src/audio&#45;analyzer/audio&#45;analyzer.ts&#45;&gt;packages/UI/spectrogram/src/audio&#45;analyzer/get&#45;fft.ts -->
<g id="edge4" class="edge">
<title>packages/UI/spectrogram/src/audio&#45;analyzer/audio&#45;analyzer.ts&#45;&gt;packages/UI/spectrogram/src/audio&#45;analyzer/get&#45;fft.ts</title>
<path fill="none" stroke="#000000" stroke-width="2" stroke-opacity="0.200000" d="M532.03,-156.44C535.83,-155.97 539.62,-155.51 543.3,-155.06"/>
<polygon fill="#000000" fill-opacity="0.200000" stroke="#000000" stroke-width="2" stroke-opacity="0.200000" points="543.67,-157.13 549.37,-154.32 543.16,-152.96 543.67,-157.13"/>
</g>
<!-- packages/UI/spectrogram/src/audio&#45;analyzer/get&#45;data&#45;on&#45;buffer/byte&#45;frequency.ts -->
<g id="node10" class="node">
<title>packages/UI/spectrogram/src/audio&#45;analyzer/get&#45;data&#45;on&#45;buffer/byte&#45;frequency.ts</title>
<g id="a_node10"><a xlink:href="packages/UI/spectrogram/src/audio-analyzer/get-data-on-buffer/byte-frequency.ts" xlink:title="byte&#45;frequency.ts">
<path fill="#ddfeff" stroke="black" d="M785,-254C785,-254 702,-254 702,-254 699,-254 696,-251 696,-248 696,-248 696,-242 696,-242 696,-239 699,-236 702,-236 702,-236 785,-236 785,-236 788,-236 791,-239 791,-242 791,-242 791,-248 791,-248 791,-251 788,-254 785,-254"/>
<text text-anchor="start" x="704" y="-242.8" font-family="Helvetica,sans-Serif" font-size="9.00">byte&#45;frequency.ts</text>
</a>
</g>
</g>
<!-- packages/UI/spectrogram/src/audio&#45;analyzer/get&#45;data&#45;on&#45;buffer/index.ts&#45;&gt;packages/UI/spectrogram/src/audio&#45;analyzer/get&#45;data&#45;on&#45;buffer/byte&#45;frequency.ts -->
<g id="edge6" class="edge">
<title>packages/UI/spectrogram/src/audio&#45;analyzer/get&#45;data&#45;on&#45;buffer/index.ts&#45;&gt;packages/UI/spectrogram/src/audio&#45;analyzer/get&#45;data&#45;on&#45;buffer/byte&#45;frequency.ts</title>
<path fill="none" stroke="#000000" stroke-width="2" stroke-opacity="0.200000" d="M666.83,-209.16C679.18,-217.99 696,-230 696,-230 696,-230 701.45,-231.76 708.62,-234.07"/>
<polygon fill="#000000" fill-opacity="0.200000" stroke="#000000" stroke-width="2" stroke-opacity="0.200000" points="713.73,-237.93 708.67,-234.09 715.02,-233.93 713.73,-237.93"/>
</g>
<!-- packages/UI/spectrogram/src/audio&#45;analyzer/get&#45;data&#45;on&#45;buffer/byte&#45;time.ts -->
<g id="node11" class="node">
<title>packages/UI/spectrogram/src/audio&#45;analyzer/get&#45;data&#45;on&#45;buffer/byte&#45;time.ts</title>
<g id="a_node11"><a xlink:href="packages/UI/spectrogram/src/audio-analyzer/get-data-on-buffer/byte-time.ts" xlink:title="byte&#45;time.ts">
<path fill="#ddfeff" stroke="black" d="M773,-284C773,-284 714,-284 714,-284 711,-284 708,-281 708,-278 708,-278 708,-272 708,-272 708,-269 711,-266 714,-266 714,-266 773,-266 773,-266 776,-266 779,-269 779,-272 779,-272 779,-278 779,-278 779,-281 776,-284 773,-284"/>
<text text-anchor="start" x="716" y="-272.8" font-family="Helvetica,sans-Serif" font-size="9.00">byte&#45;time.ts</text>
</a>
</g>
</g>
<!-- packages/UI/spectrogram/src/audio&#45;analyzer/get&#45;data&#45;on&#45;buffer/index.ts&#45;&gt;packages/UI/spectrogram/src/audio&#45;analyzer/get&#45;data&#45;on&#45;buffer/byte&#45;time.ts -->
<g id="edge7" class="edge">
<title>packages/UI/spectrogram/src/audio&#45;analyzer/get&#45;data&#45;on&#45;buffer/index.ts&#45;&gt;packages/UI/spectrogram/src/audio&#45;analyzer/get&#45;data&#45;on&#45;buffer/byte&#45;time.ts</title>
<path fill="none" stroke="#000000" stroke-width="2" stroke-opacity="0.200000" d="M660.38,-209.11C672.13,-225.9 696,-260 696,-260 696,-260 701.45,-261.76 708.62,-264.07"/>
<polygon fill="#000000" fill-opacity="0.200000" stroke="#000000" stroke-width="2" stroke-opacity="0.200000" points="713.73,-267.93 708.67,-264.09 715.02,-263.93 713.73,-267.93"/>
</g>
<!-- packages/UI/spectrogram/src/audio&#45;analyzer/get&#45;data&#45;on&#45;buffer/float&#45;frequency.ts -->
<g id="node12" class="node">
<title>packages/UI/spectrogram/src/audio&#45;analyzer/get&#45;data&#45;on&#45;buffer/float&#45;frequency.ts</title>
<g id="a_node12"><a xlink:href="packages/UI/spectrogram/src/audio-analyzer/get-data-on-buffer/float-frequency.ts" xlink:title="float&#45;frequency.ts">
<path fill="#ddfeff" stroke="black" d="M785,-194C785,-194 702,-194 702,-194 699,-194 696,-191 696,-188 696,-188 696,-182 696,-182 696,-179 699,-176 702,-176 702,-176 785,-176 785,-176 788,-176 791,-179 791,-182 791,-182 791,-188 791,-188 791,-191 788,-194 785,-194"/>
<text text-anchor="start" x="704" y="-182.8" font-family="Helvetica,sans-Serif" font-size="9.00">float&#45;frequency.ts</text>
</a>
</g>
</g>
<!-- packages/UI/spectrogram/src/audio&#45;analyzer/get&#45;data&#45;on&#45;buffer/index.ts&#45;&gt;packages/UI/spectrogram/src/audio&#45;analyzer/get&#45;data&#45;on&#45;buffer/float&#45;frequency.ts -->
<g id="edge8" class="edge">
<title>packages/UI/spectrogram/src/audio&#45;analyzer/get&#45;data&#45;on&#45;buffer/index.ts&#45;&gt;packages/UI/spectrogram/src/audio&#45;analyzer/get&#45;data&#45;on&#45;buffer/float&#45;frequency.ts</title>
<path fill="none" stroke="#000000" stroke-width="2" stroke-opacity="0.200000" d="M680.07,-195.58C683.2,-195.05 686.47,-194.5 689.8,-193.93"/>
<polygon fill="#000000" fill-opacity="0.200000" stroke="#000000" stroke-width="2" stroke-opacity="0.200000" points="696.21,-194.98 689.95,-193.91 695.51,-190.83 696.21,-194.98"/>
</g>
<!-- packages/UI/spectrogram/src/audio&#45;analyzer/get&#45;data&#45;on&#45;buffer/float&#45;time.ts -->
<g id="node13" class="node">
<title>packages/UI/spectrogram/src/audio&#45;analyzer/get&#45;data&#45;on&#45;buffer/float&#45;time.ts</title>
<g id="a_node13"><a xlink:href="packages/UI/spectrogram/src/audio-analyzer/get-data-on-buffer/float-time.ts" xlink:title="float&#45;time.ts">
<path fill="#ddfeff" stroke="black" d="M773,-224C773,-224 714,-224 714,-224 711,-224 708,-221 708,-218 708,-218 708,-212 708,-212 708,-209 711,-206 714,-206 714,-206 773,-206 773,-206 776,-206 779,-209 779,-212 779,-212 779,-218 779,-218 779,-221 776,-224 773,-224"/>
<text text-anchor="start" x="716" y="-212.8" font-family="Helvetica,sans-Serif" font-size="9.00">float&#45;time.ts</text>
</a>
</g>
</g>
<!-- packages/UI/spectrogram/src/audio&#45;analyzer/get&#45;data&#45;on&#45;buffer/index.ts&#45;&gt;packages/UI/spectrogram/src/audio&#45;analyzer/get&#45;data&#45;on&#45;buffer/float&#45;time.ts -->
<g id="edge9" class="edge">
<title>packages/UI/spectrogram/src/audio&#45;analyzer/get&#45;data&#45;on&#45;buffer/index.ts&#45;&gt;packages/UI/spectrogram/src/audio&#45;analyzer/get&#45;data&#45;on&#45;buffer/float&#45;time.ts</title>
<path fill="none" stroke="#000000" stroke-width="2" stroke-opacity="0.200000" d="M680.07,-204.42C686.85,-205.57 694.31,-206.83 701.64,-208.07"/>
<polygon fill="#000000" fill-opacity="0.200000" stroke="#000000" stroke-width="2" stroke-opacity="0.200000" points="707.4,-211.18 701.84,-208.11 708.1,-207.04 707.4,-211.18"/>
</g>
<!-- packages/UI/spectrogram/src/audio&#45;analyzer/get&#45;fft.ts&#45;&gt;packages/UI/spectrogram/src/audio&#45;analyzer/get&#45;data&#45;on&#45;buffer/index.ts -->
<g id="edge11" class="edge">
<title>packages/UI/spectrogram/src/audio&#45;analyzer/get&#45;fft.ts&#45;&gt;packages/UI/spectrogram/src/audio&#45;analyzer/get&#45;data&#45;on&#45;buffer/index.ts</title>
<path fill="none" stroke="#000000" stroke-width="2" stroke-opacity="0.200000" d="M594.62,-160.21C602.37,-164.64 610,-169 610,-169 610,-169 623.2,-178.74 634.8,-187.3"/>
<polygon fill="#000000" fill-opacity="0.200000" stroke="#000000" stroke-width="2" stroke-opacity="0.200000" points="633.55,-188.99 639.63,-190.87 636.05,-185.61 633.55,-188.99"/>
</g>
<!-- packages/UI/spectrogram/src/audio&#45;analyzer/facade/index.ts -->
<g id="node8" class="node">
<title>packages/UI/spectrogram/src/audio&#45;analyzer/facade/index.ts</title>
<g id="a_node8"><a xlink:href="packages/UI/spectrogram/src/audio-analyzer/facade/index.ts" xlink:title="index.ts">
<path fill="#ddfeff" stroke="black" d="M674,-134C674,-134 632,-134 632,-134 629,-134 626,-131 626,-128 626,-128 626,-122 626,-122 626,-119 629,-116 632,-116 632,-116 674,-116 674,-116 677,-116 680,-119 680,-122 680,-122 680,-128 680,-128 680,-131 677,-134 674,-134"/>
<text text-anchor="start" x="634.5" y="-122.8" font-family="Helvetica,sans-Serif" font-size="9.00">index.ts</text>
</a>
</g>
</g>
<!-- packages/UI/spectrogram/src/audio&#45;analyzer/get&#45;fft.ts&#45;&gt;packages/UI/spectrogram/src/audio&#45;analyzer/facade/index.ts -->
<g id="edge10" class="edge">
<title>packages/UI/spectrogram/src/audio&#45;analyzer/get&#45;fft.ts&#45;&gt;packages/UI/spectrogram/src/audio&#45;analyzer/facade/index.ts</title>
<path fill="none" stroke="#000000" stroke-width="2" stroke-opacity="0.200000" d="M604.21,-141.91C609.44,-140.06 614.99,-138.09 620.4,-136.18"/>
<polygon fill="#000000" fill-opacity="0.200000" stroke="#000000" stroke-width="2" stroke-opacity="0.200000" points="621.23,-138.11 626.18,-134.13 619.83,-134.15 621.23,-138.11"/>
</g>
<!-- packages/UI/spectrogram/src/audio&#45;analyzer/cosine&#45;window.ts -->
<g id="node7" class="node">
<title>packages/UI/spectrogram/src/audio&#45;analyzer/cosine&#45;window.ts</title>
<g id="a_node7"><a xlink:href="packages/UI/spectrogram/src/audio-analyzer/cosine-window.ts" xlink:title="no&#45;orphans">
<path fill="#ccffcc" stroke="orange" d="M420,-236C420,-236 339,-236 339,-236 336,-236 333,-233 333,-230 333,-230 333,-224 333,-224 333,-221 336,-218 339,-218 339,-218 420,-218 420,-218 423,-218 426,-221 426,-224 426,-224 426,-230 426,-230 426,-233 423,-236 420,-236"/>
<text text-anchor="start" x="341" y="-224.8" font-family="Helvetica,sans-Serif" font-size="9.00" fill="orange">cosine&#45;window.ts</text>
</a>
</g>
</g>
<!-- packages/UI/spectrogram/src/audio&#45;analyzer/facade/index.ts&#45;&gt;packages/UI/spectrogram/src/facade/index.ts -->
<g id="edge5" class="edge">
<title>packages/UI/spectrogram/src/audio&#45;analyzer/facade/index.ts&#45;&gt;packages/UI/spectrogram/src/facade/index.ts</title>
<path fill="none" stroke="#000000" stroke-width="2" stroke-opacity="0.200000" d="M677.61,-115.97C683.42,-113.75 688,-112 688,-112 688,-112 713.08,-86.69 729.22,-70.41"/>
<polygon fill="#000000" fill-opacity="0.200000" stroke="#000000" stroke-width="2" stroke-opacity="0.200000" points="734.99,-67.56 729.28,-70.34 732.01,-64.6 734.99,-67.56"/>
</g>
<!-- packages/util/math/dist/index.js -->
<g id="node18" class="node">
<title>packages/util/math/dist/index.js</title>
<g id="a_node18"><a xlink:href="packages/util/math/dist/index.js" xlink:title="index.js">
<polygon fill="#ffffcc" stroke="black" points="925,-622 923.5,-624 913,-624 911.5,-622 871,-622 871,-604 925,-604 925,-622"/>
<text text-anchor="start" x="880.5" y="-610.8" font-family="Helvetica,sans-Serif" font-size="9.00">index.js</text>
</a>
</g>
</g>
<!-- packages/UI/spectrogram/src/facade/index.ts&#45;&gt;packages/util/math/dist/index.js -->
<g id="edge18" class="edge">
<title>packages/UI/spectrogram/src/facade/index.ts&#45;&gt;packages/util/math/dist/index.js</title>
<path fill="none" stroke="#000000" stroke-width="2" stroke-opacity="0.200000" d="M751.19,-66.21C770.18,-92.33 823,-165 823,-165 823,-165 831,-539 831,-539 831,-539 865.82,-578.04 884.88,-599.41"/>
<polygon fill="#000000" fill-opacity="0.200000" stroke="#000000" stroke-width="2" stroke-opacity="0.200000" points="887.34,-605.32 884.91,-599.45 890.47,-602.53 887.34,-605.32"/>
</g>
<!-- packages/util/math/src/fft/array/index.ts -->
<g id="node19" class="node">
<title>packages/util/math/src/fft/array/index.ts</title>
<g id="a_node19"><a xlink:href="packages/util/math/src/fft/array/index.ts" xlink:title="index.ts">
<path fill="#ddfeff" stroke="black" d="M919,-480C919,-480 877,-480 877,-480 874,-480 871,-477 871,-474 871,-474 871,-468 871,-468 871,-465 874,-462 877,-462 877,-462 919,-462 919,-462 922,-462 925,-465 925,-468 925,-468 925,-474 925,-474 925,-477 922,-480 919,-480"/>
<text text-anchor="start" x="879.5" y="-468.8" font-family="Helvetica,sans-Serif" font-size="9.00">index.ts</text>
</a>
</g>
</g>
<!-- packages/UI/spectrogram/src/facade/index.ts&#45;&gt;packages/util/math/src/fft/array/index.ts -->
<g id="edge19" class="edge">
<title>packages/UI/spectrogram/src/facade/index.ts&#45;&gt;packages/util/math/src/fft/array/index.ts</title>
<path fill="none" stroke="#000000" stroke-width="2" stroke-opacity="0.200000" d="M751.19,-66.21C770.18,-92.33 823,-165 823,-165 823,-165 878.36,-393.94 893.32,-455.77"/>
<polygon fill="#000000" fill-opacity="0.200000" stroke="#000000" stroke-width="2" stroke-opacity="0.200000" points="892.74,-462.34 893.37,-456.01 896.83,-461.35 892.74,-462.34"/>
</g>
<!-- packages/UI/view/dist/index.js -->
<g id="node20" class="node">
<title>packages/UI/view/dist/index.js</title>
<g id="a_node20"><a xlink:href="packages/UI/view/dist/index.js" xlink:title="index.js">
<polygon fill="#ffffcc" stroke="black" points="925,-62 923.5,-64 913,-64 911.5,-62 871,-62 871,-44 925,-44 925,-62"/>
<text text-anchor="start" x="880.5" y="-50.8" font-family="Helvetica,sans-Serif" font-size="9.00">index.js</text>
</a>
</g>
</g>
<!-- packages/UI/spectrogram/src/facade/index.ts&#45;&gt;packages/UI/view/dist/index.js -->
<g id="edge20" class="edge">
<title>packages/UI/spectrogram/src/facade/index.ts&#45;&gt;packages/UI/view/dist/index.js</title>
<path fill="none" stroke="#000000" stroke-width="2" stroke-opacity="0.200000" d="M770.72,-56.31C796.76,-55.63 836.76,-54.58 864.74,-53.85"/>
<polygon fill="#000000" fill-opacity="0.200000" stroke="#000000" stroke-width="2" stroke-opacity="0.200000" points="870.93,-55.78 864.87,-53.84 870.82,-51.59 870.93,-55.78"/>
</g>
<!-- packages/UI/spectrogram/src/audio&#45;analyzer/index.ts&#45;&gt;packages/UI/spectrogram/src/audio&#45;analyzer/audio&#45;analyzer.ts -->
<g id="edge12" class="edge">
<title>packages/UI/spectrogram/src/audio&#45;analyzer/index.ts&#45;&gt;packages/UI/spectrogram/src/audio&#45;analyzer/audio&#45;analyzer.ts</title>
<path fill="none" stroke="#000000" stroke-width="2" stroke-opacity="0.200000" d="M400.96,-132.09C417.83,-139.59 439,-149 439,-149 439,-149 442.17,-149.91 446.83,-151.24"/>
<polygon fill="#000000" fill-opacity="0.200000" stroke="#000000" stroke-width="2" stroke-opacity="0.200000" points="452.32,-154.99 447.13,-151.32 453.48,-150.95 452.32,-154.99"/>
</g>
<!-- packages/UI/spectrogram/src/fft&#45;viewer.ts&#45;&gt;packages/UI/spectrogram/src/facade/index.ts -->
<g id="edge22" class="edge">
<title>packages/UI/spectrogram/src/fft&#45;viewer.ts&#45;&gt;packages/UI/spectrogram/src/facade/index.ts</title>
<path fill="none" stroke="#000000" stroke-width="2" stroke-opacity="0.200000" d="M293.02,-89.93C309.13,-88.45 325,-87 325,-87 325,-87 484.5,-77 484.5,-77 484.5,-77 484.5,-77 578.5,-77 578.5,-77 688,-67 688,-67 688,-67 698.35,-65.1 710.03,-62.96"/>
<polygon fill="#000000" fill-opacity="0.200000" stroke="#000000" stroke-width="2" stroke-opacity="0.200000" points="710.69,-64.97 716.21,-61.82 709.93,-60.84 710.69,-64.97"/>
</g>
<!-- packages/UI/spectrogram/src/fft&#45;viewer.ts&#45;&gt;packages/UI/spectrogram/src/audio&#45;analyzer/index.ts -->
<g id="edge21" class="edge">
<title>packages/UI/spectrogram/src/fft&#45;viewer.ts&#45;&gt;packages/UI/spectrogram/src/audio&#45;analyzer/index.ts</title>
<path fill="none" stroke="#000000" stroke-width="2" stroke-opacity="0.200000" d="M293.02,-101.7C309.13,-105.88 325,-110 325,-110 325,-110 335,-112.43 346.36,-115.19"/>
<polygon fill="#000000" fill-opacity="0.200000" stroke="#000000" stroke-width="2" stroke-opacity="0.200000" points="346.05,-117.28 352.38,-116.65 347.04,-113.19 346.05,-117.28"/>
</g>
<!-- packages/UI/spectrogram/src/spectrogram&#45;viewer.ts&#45;&gt;packages/UI/spectrogram/src/audio&#45;analyzer/index.ts -->
<g id="edge23" class="edge">
<title>packages/UI/spectrogram/src/spectrogram&#45;viewer.ts&#45;&gt;packages/UI/spectrogram/src/audio&#45;analyzer/index.ts</title>
<path fill="none" stroke="#000000" stroke-width="2" stroke-opacity="0.200000" d="M277.38,-58.02C294.26,-66.53 317,-78 317,-78 317,-78 342.97,-97 361.16,-110.31"/>
<polygon fill="#000000" fill-opacity="0.200000" stroke="#000000" stroke-width="2" stroke-opacity="0.200000" points="359.97,-112.05 366.05,-113.89 362.45,-108.66 359.97,-112.05"/>
</g>
<!-- packages/UI/spectrogram/src/spectrogram&#45;viewer.ts&#45;&gt;packages/UI/view/dist/index.js -->
<g id="edge24" class="edge">
<title>packages/UI/spectrogram/src/spectrogram&#45;viewer.ts&#45;&gt;packages/UI/view/dist/index.js</title>
<path fill="none" stroke="#000000" stroke-opacity="0.200000" d="M317.15,-44.39C383.82,-39.05 484.5,-31 484.5,-31 484.5,-31 484.5,-31 654,-31 654,-31 823,-37 823,-37 823,-37 844.71,-41.69 864.61,-46"/>
<polygon fill="none" stroke="#000000" stroke-opacity="0.200000" points="864.39,-48.1 870.7,-47.31 865.28,-43.99 864.39,-48.1"/>
</g>
<!-- packages/UI/spectrogram/src/wave&#45;viewer.ts&#45;&gt;packages/UI/spectrogram/src/facade/index.ts -->
<g id="edge26" class="edge">
<title>packages/UI/spectrogram/src/wave&#45;viewer.ts&#45;&gt;packages/UI/spectrogram/src/facade/index.ts</title>
<path fill="none" stroke="#000000" stroke-width="2" stroke-opacity="0.200000" d="M294.27,-113.93C306.38,-110.77 317,-108 317,-108 317,-108 325,-97 325,-97 325,-97 484.5,-91 484.5,-91 484.5,-91 484.5,-91 578.5,-91 578.5,-91 688,-74 688,-74 688,-74 698.54,-70.71 710.35,-67.03"/>
<polygon fill="#000000" fill-opacity="0.200000" stroke="#000000" stroke-width="2" stroke-opacity="0.200000" points="711.11,-68.99 716.21,-65.2 709.85,-64.98 711.11,-68.99"/>
</g>
<!-- packages/UI/spectrogram/src/wave&#45;viewer.ts&#45;&gt;packages/UI/spectrogram/src/audio&#45;analyzer/index.ts -->
<g id="edge25" class="edge">
<title>packages/UI/spectrogram/src/wave&#45;viewer.ts&#45;&gt;packages/UI/spectrogram/src/audio&#45;analyzer/index.ts</title>
<path fill="none" stroke="#000000" stroke-width="2" stroke-opacity="0.200000" d="M300.12,-123C315.07,-123 331.79,-123 345.93,-123"/>
<polygon fill="#000000" fill-opacity="0.200000" stroke="#000000" stroke-width="2" stroke-opacity="0.200000" points="346.24,-125.1 352.24,-123 346.24,-120.9 346.24,-125.1"/>
</g>
<!-- packages/util/math/src/fft/array/complex.ts -->
<g id="node21" class="node">
<title>packages/util/math/src/fft/array/complex.ts</title>
<g id="a_node21"><a xlink:href="packages/util/math/src/fft/array/complex.ts" xlink:title="complex.ts">
<path fill="#ddfeff" stroke="black" d="M1099.5,-480C1099.5,-480 1045.5,-480 1045.5,-480 1042.5,-480 1039.5,-477 1039.5,-474 1039.5,-474 1039.5,-468 1039.5,-468 1039.5,-465 1042.5,-462 1045.5,-462 1045.5,-462 1099.5,-462 1099.5,-462 1102.5,-462 1105.5,-465 1105.5,-468 1105.5,-468 1105.5,-474 1105.5,-474 1105.5,-477 1102.5,-480 1099.5,-480"/>
<text text-anchor="start" x="1047.5" y="-468.8" font-family="Helvetica,sans-Serif" font-size="9.00">complex.ts</text>
</a>
</g>
</g>
<!-- packages/util/math/src/fft/array/index.ts&#45;&gt;packages/util/math/src/fft/array/complex.ts -->
<g id="edge31" class="edge">
<title>packages/util/math/src/fft/array/index.ts&#45;&gt;packages/util/math/src/fft/array/complex.ts</title>
<path fill="none" stroke="#000000" stroke-width="2" stroke-opacity="0.200000" d="M925.2,-471C953.92,-471 1000.26,-471 1033.09,-471"/>
<polygon fill="#000000" fill-opacity="0.200000" stroke="#000000" stroke-width="2" stroke-opacity="0.200000" points="1033.47,-473.1 1039.47,-471 1033.47,-468.9 1033.47,-473.1"/>
</g>
<!-- packages/util/math/src/fft/array/ftt&#45;core.ts -->
<g id="node23" class="node">
<title>packages/util/math/src/fft/array/ftt&#45;core.ts</title>
<g id="a_node23"><a xlink:href="packages/util/math/src/fft/array/ftt-core.ts" xlink:title="ftt&#45;core.ts">
<path fill="#ddfeff" stroke="black" d="M1012,-506C1012,-506 963,-506 963,-506 960,-506 957,-503 957,-500 957,-500 957,-494 957,-494 957,-491 960,-488 963,-488 963,-488 1012,-488 1012,-488 1015,-488 1018,-491 1018,-494 1018,-494 1018,-500 1018,-500 1018,-503 1015,-506 1012,-506"/>
<text text-anchor="start" x="965" y="-494.8" font-family="Helvetica,sans-Serif" font-size="9.00">ftt&#45;core.ts</text>
</a>
</g>
</g>
<!-- packages/util/math/src/fft/array/index.ts&#45;&gt;packages/util/math/src/fft/array/ftt&#45;core.ts -->
<g id="edge32" class="edge">
<title>packages/util/math/src/fft/array/index.ts&#45;&gt;packages/util/math/src/fft/array/ftt&#45;core.ts</title>
<path fill="none" stroke="#000000" stroke-width="2" stroke-opacity="0.200000" d="M925.25,-478.8C933.35,-481.21 942.41,-483.9 951.02,-486.46"/>
<polygon fill="#000000" fill-opacity="0.200000" stroke="#000000" stroke-width="2" stroke-opacity="0.200000" points="950.54,-488.51 956.89,-488.2 951.74,-484.48 950.54,-488.51"/>
</g>
<!-- packages/util/math/src/fft/typed&#45;array.ts -->
<g id="node22" class="node">
<title>packages/util/math/src/fft/typed&#45;array.ts</title>
<g id="a_node22"><a xlink:href="packages/util/math/src/fft/typed-array.ts" xlink:title="typed&#45;array.ts">
<path fill="#ddfeff" stroke="black" d="M1203,-506C1203,-506 1136,-506 1136,-506 1133,-506 1130,-503 1130,-500 1130,-500 1130,-494 1130,-494 1130,-491 1133,-488 1136,-488 1136,-488 1203,-488 1203,-488 1206,-488 1209,-491 1209,-494 1209,-494 1209,-500 1209,-500 1209,-503 1206,-506 1203,-506"/>
<text text-anchor="start" x="1138" y="-494.8" font-family="Helvetica,sans-Serif" font-size="9.00">typed&#45;array.ts</text>
</a>
</g>
</g>
<!-- packages/util/math/src/fft/array/complex.ts&#45;&gt;packages/util/math/src/fft/typed&#45;array.ts -->
<g id="edge27" class="edge">
<title>packages/util/math/src/fft/array/complex.ts&#45;&gt;packages/util/math/src/fft/typed&#45;array.ts</title>
<path fill="none" stroke="#000000" stroke-width="2" stroke-opacity="0.200000" d="M1105.66,-479.8C1113.3,-481.89 1121.53,-484.14 1129.43,-486.31"/>
<polygon fill="#000000" fill-opacity="0.200000" stroke="#000000" stroke-width="2" stroke-opacity="0.200000" points="1129.06,-488.38 1135.4,-487.94 1130.17,-484.33 1129.06,-488.38"/>
</g>
<!-- packages/util/math/src/fft/array/ftt&#45;core.ts&#45;&gt;packages/util/math/src/fft/array/complex.ts -->
<g id="edge29" class="edge">
<title>packages/util/math/src/fft/array/ftt&#45;core.ts&#45;&gt;packages/util/math/src/fft/array/complex.ts</title>
<path fill="none" stroke="#000000" stroke-width="2" stroke-opacity="0.200000" d="M1017.53,-487.91C1023.76,-485.96 1030.4,-483.88 1036.81,-481.87"/>
<polygon fill="#000000" fill-opacity="0.200000" stroke="#000000" stroke-width="2" stroke-opacity="0.200000" points="1037.53,-483.84 1042.63,-480.04 1036.27,-479.83 1037.53,-483.84"/>
</g>
<!-- packages/util/math/src/fft/array/ftt&#45;core.ts&#45;&gt;packages/util/math/src/fft/typed&#45;array.ts -->
<g id="edge28" class="edge">
<title>packages/util/math/src/fft/array/ftt&#45;core.ts&#45;&gt;packages/util/math/src/fft/typed&#45;array.ts</title>
<path fill="none" stroke="#000000" stroke-width="2" stroke-opacity="0.200000" d="M1008.75,-506.05C1019.7,-510.95 1031,-516 1031,-516 1031,-516 1122,-516 1122,-516 1122,-516 1130.8,-512.4 1140.75,-508.34"/>
<polygon fill="#000000" fill-opacity="0.200000" stroke="#000000" stroke-width="2" stroke-opacity="0.200000" points="1141.58,-510.27 1146.34,-506.05 1139.99,-506.38 1141.58,-510.27"/>
</g>
<!-- packages/util/math/src/fft/array/root&#45;of&#45;unity.ts -->
<g id="node24" class="node">
<title>packages/util/math/src/fft/array/root&#45;of&#45;unity.ts</title>
<g id="a_node24"><a xlink:href="packages/util/math/src/fft/array/root-of-unity.ts" xlink:title="root&#45;of&#45;unity.ts">
<path fill="#ddfeff" stroke="black" d="M1108,-510C1108,-510 1037,-510 1037,-510 1034,-510 1031,-507 1031,-504 1031,-504 1031,-498 1031,-498 1031,-495 1034,-492 1037,-492 1037,-492 1108,-492 1108,-492 1111,-492 1114,-495 1114,-498 1114,-498 1114,-504 1114,-504 1114,-507 1111,-510 1108,-510"/>
<text text-anchor="start" x="1039" y="-498.8" font-family="Helvetica,sans-Serif" font-size="9.00">root&#45;of&#45;unity.ts</text>
</a>
</g>
</g>
<!-- packages/util/math/src/fft/array/ftt&#45;core.ts&#45;&gt;packages/util/math/src/fft/array/root&#45;of&#45;unity.ts -->
<g id="edge30" class="edge">
<title>packages/util/math/src/fft/array/ftt&#45;core.ts&#45;&gt;packages/util/math/src/fft/array/root&#45;of&#45;unity.ts</title>
<path fill="none" stroke="#000000" stroke-width="2" stroke-opacity="0.200000" d="M1018.46,-498.44C1020.46,-498.54 1022.5,-498.64 1024.55,-498.74"/>
<polygon fill="#000000" fill-opacity="0.200000" stroke="#000000" stroke-width="2" stroke-opacity="0.200000" points="1024.65,-500.84 1030.74,-499.04 1024.85,-496.65 1024.65,-500.84"/>
</g>
</g>
</svg>
