<?xml version="1.0" encoding="UTF-8" standalone="no"?>
<!DOCTYPE svg PUBLIC "-//W3C//DTD SVG 1.1//EN"
 "http://www.w3.org/Graphics/SVG/1.1/DTD/svg11.dtd">
<!-- Generated by graphviz version 2.43.0 (0)
 -->
<!-- Title: dependency&#45;cruiser output Pages: 1 -->
<svg width="1105pt" height="716pt"
 viewBox="0.00 0.00 1105.00 716.00" xmlns="http://www.w3.org/2000/svg" xmlns:xlink="http://www.w3.org/1999/xlink">
<g id="graph0" class="graph" transform="scale(1 1) rotate(0) translate(4 712)">
<title>dependency&#45;cruiser output</title>
<polygon fill="white" stroke="transparent" points="-4,4 -4,-712 1101,-712 1101,4 -4,4"/>
<g id="clust1" class="cluster">
<title>cluster_packages</title>
<path fill="#ffffff" stroke="black" stroke-width="2" d="M20,-8C20,-8 1077,-8 1077,-8 1083,-8 1089,-14 1089,-20 1089,-20 1089,-688 1089,-688 1089,-694 1083,-700 1077,-700 1077,-700 20,-700 20,-700 14,-700 8,-694 8,-688 8,-688 8,-20 8,-20 8,-14 14,-8 20,-8"/>
<text text-anchor="middle" x="548.5" y="-688.8" font-family="Helvetica,sans-Serif" font-weight="bold" font-size="9.00">packages</text>
</g>
<g id="clust2" class="cluster">
<title>cluster_packages/UI</title>
<path fill="#ffffff" stroke="black" stroke-width="2" d="M28,-16C28,-16 851,-16 851,-16 857,-16 863,-22 863,-28 863,-28 863,-376 863,-376 863,-382 857,-388 851,-388 851,-388 28,-388 28,-388 22,-388 16,-382 16,-376 16,-376 16,-28 16,-28 16,-22 22,-16 28,-16"/>
<text text-anchor="middle" x="439.5" y="-376.8" font-family="Helvetica,sans-Serif" font-weight="bold" font-size="9.00">UI</text>
</g>
<g id="clust3" class="cluster">
<title>cluster_packages/UI/spectrogram</title>
<path fill="#ffffff" stroke="black" stroke-width="2" d="M36,-24C36,-24 843,-24 843,-24 849,-24 855,-30 855,-36 855,-36 855,-256 855,-256 855,-262 849,-268 843,-268 843,-268 36,-268 36,-268 30,-268 24,-262 24,-256 24,-256 24,-36 24,-36 24,-30 30,-24 36,-24"/>
<text text-anchor="middle" x="439.5" y="-256.8" font-family="Helvetica,sans-Serif" font-weight="bold" font-size="9.00">spectrogram</text>
</g>
<g id="clust4" class="cluster">
<title>cluster_packages/UI/spectrogram/src</title>
<path fill="#ffffff" stroke="black" stroke-width="2" d="M106,-32C106,-32 835,-32 835,-32 841,-32 847,-38 847,-44 847,-44 847,-230 847,-230 847,-236 841,-242 835,-242 835,-242 106,-242 106,-242 100,-242 94,-236 94,-230 94,-230 94,-44 94,-44 94,-38 100,-32 106,-32"/>
<text text-anchor="middle" x="470.5" y="-230.8" font-family="Helvetica,sans-Serif" font-weight="bold" font-size="9.00">src</text>
</g>
<g id="clust5" class="cluster">
<title>cluster_packages/UI/spectrogram/src/audio&#45;analyzer</title>
<path fill="#ffffff" stroke="black" stroke-width="2" d="M337,-40C337,-40 827,-40 827,-40 833,-40 839,-46 839,-52 839,-52 839,-204 839,-204 839,-210 833,-216 827,-216 827,-216 337,-216 337,-216 331,-216 325,-210 325,-204 325,-204 325,-52 325,-52 325,-46 331,-40 337,-40"/>
<text text-anchor="middle" x="582" y="-204.8" font-family="Helvetica,sans-Serif" font-weight="bold" font-size="9.00">audio&#45;analyzer</text>
</g>
<g id="clust6" class="cluster">
<title>cluster_packages/UI/spectrogram/src/audio&#45;analyzer/get&#45;data&#45;on&#45;buffer</title>
<path fill="#ffffff" stroke="black" stroke-width="2" d="M662,-48C662,-48 819,-48 819,-48 825,-48 831,-54 831,-60 831,-60 831,-178 831,-178 831,-184 825,-190 819,-190 819,-190 662,-190 662,-190 656,-190 650,-184 650,-178 650,-178 650,-60 650,-60 650,-54 656,-48 662,-48"/>
<text text-anchor="middle" x="740.5" y="-178.8" font-family="Helvetica,sans-Serif" font-weight="bold" font-size="9.00">get&#45;data&#45;on&#45;buffer</text>
</g>
<g id="clust7" class="cluster">
<title>cluster_packages/UI/view</title>
<path fill="#ffffff" stroke="black" stroke-width="2" d="M348.5,-276C348.5,-276 410.5,-276 410.5,-276 416.5,-276 422.5,-282 422.5,-288 422.5,-288 422.5,-350 422.5,-350 422.5,-356 416.5,-362 410.5,-362 410.5,-362 348.5,-362 348.5,-362 342.5,-362 336.5,-356 336.5,-350 336.5,-350 336.5,-288 336.5,-288 336.5,-282 342.5,-276 348.5,-276"/>
<text text-anchor="middle" x="379.5" y="-350.8" font-family="Helvetica,sans-Serif" font-weight="bold" font-size="9.00">view</text>
</g>
<g id="clust8" class="cluster">
<title>cluster_packages/UI/view/dist</title>
<path fill="#ffffff" stroke="black" stroke-width="2" d="M356.5,-284C356.5,-284 402.5,-284 402.5,-284 408.5,-284 414.5,-290 414.5,-296 414.5,-296 414.5,-324 414.5,-324 414.5,-330 408.5,-336 402.5,-336 402.5,-336 356.5,-336 356.5,-336 350.5,-336 344.5,-330 344.5,-324 344.5,-324 344.5,-296 344.5,-296 344.5,-290 350.5,-284 356.5,-284"/>
<text text-anchor="middle" x="379.5" y="-324.8" font-family="Helvetica,sans-Serif" font-weight="bold" font-size="9.00">dist</text>
</g>
<g id="clust9" class="cluster">
<title>cluster_packages/util</title>
<path fill="#ffffff" stroke="black" stroke-width="2" d="M630,-396C630,-396 1069,-396 1069,-396 1075,-396 1081,-402 1081,-408 1081,-408 1081,-662 1081,-662 1081,-668 1075,-674 1069,-674 1069,-674 630,-674 630,-674 624,-674 618,-668 618,-662 618,-662 618,-408 618,-408 618,-402 624,-396 630,-396"/>
<text text-anchor="middle" x="849.5" y="-662.8" font-family="Helvetica,sans-Serif" font-weight="bold" font-size="9.00">util</text>
</g>
<g id="clust10" class="cluster">
<title>cluster_packages/util/math</title>
<path fill="#ffffff" stroke="black" stroke-width="2" d="M638,-404C638,-404 1061,-404 1061,-404 1067,-404 1073,-410 1073,-416 1073,-416 1073,-636 1073,-636 1073,-642 1067,-648 1061,-648 1061,-648 638,-648 638,-648 632,-648 626,-642 626,-636 626,-636 626,-416 626,-416 626,-410 632,-404 638,-404"/>
<text text-anchor="middle" x="849.5" y="-636.8" font-family="Helvetica,sans-Serif" font-weight="bold" font-size="9.00">math</text>
</g>
<g id="clust11" class="cluster">
<title>cluster_packages/util/math/dist</title>
<path fill="#ffffff" stroke="black" stroke-width="2" d="M662,-570C662,-570 708,-570 708,-570 714,-570 720,-576 720,-582 720,-582 720,-610 720,-610 720,-616 714,-622 708,-622 708,-622 662,-622 662,-622 656,-622 650,-616 650,-610 650,-610 650,-582 650,-582 650,-576 656,-570 662,-570"/>
<text text-anchor="middle" x="685" y="-610.8" font-family="Helvetica,sans-Serif" font-weight="bold" font-size="9.00">dist</text>
</g>
<g id="clust12" class="cluster">
<title>cluster_packages/util/math/src</title>
<path fill="#ffffff" stroke="black" stroke-width="2" d="M646,-412C646,-412 1053,-412 1053,-412 1059,-412 1065,-418 1065,-424 1065,-424 1065,-550 1065,-550 1065,-556 1059,-562 1053,-562 1053,-562 646,-562 646,-562 640,-562 634,-556 634,-550 634,-550 634,-424 634,-424 634,-418 640,-412 646,-412"/>
<text text-anchor="middle" x="849.5" y="-550.8" font-family="Helvetica,sans-Serif" font-weight="bold" font-size="9.00">src</text>
</g>
<g id="clust13" class="cluster">
<title>cluster_packages/util/math/src/fft</title>
<path fill="#ffffff" stroke="black" stroke-width="2" d="M654,-420C654,-420 1045,-420 1045,-420 1051,-420 1057,-426 1057,-432 1057,-432 1057,-524 1057,-524 1057,-530 1051,-536 1045,-536 1045,-536 654,-536 654,-536 648,-536 642,-530 642,-524 642,-524 642,-432 642,-432 642,-426 648,-420 654,-420"/>
<text text-anchor="middle" x="849.5" y="-524.8" font-family="Helvetica,sans-Serif" font-weight="bold" font-size="9.00">fft</text>
</g>
<g id="clust14" class="cluster">
<title>cluster_packages/util/math/src/fft/array</title>
<path fill="#ffffff" stroke="black" stroke-width="2" d="M662,-428C662,-428 950,-428 950,-428 956,-428 962,-434 962,-440 962,-440 962,-498 962,-498 962,-504 956,-510 950,-510 950,-510 662,-510 662,-510 656,-510 650,-504 650,-498 650,-498 650,-440 650,-440 650,-434 656,-428 662,-428"/>
<text text-anchor="middle" x="806" y="-498.8" font-family="Helvetica,sans-Serif" font-weight="bold" font-size="9.00">array</text>
</g>
<!-- packages/UI/spectrogram/index.ts -->
<g id="node1" class="node">
<title>packages/UI/spectrogram/index.ts</title>
<g id="a_node1"><a xlink:href="packages/UI/spectrogram/index.ts" xlink:title="index.ts">
<path fill="#ddfeff" stroke="black" d="M80,-186C80,-186 38,-186 38,-186 35,-186 32,-183 32,-180 32,-180 32,-174 32,-174 32,-171 35,-168 38,-168 38,-168 80,-168 80,-168 83,-168 86,-171 86,-174 86,-174 86,-180 86,-180 86,-183 83,-186 80,-186"/>
<text text-anchor="start" x="40.5" y="-174.8" font-family="Helvetica,sans-Serif" font-size="9.00">index.ts</text>
</a>
</g>
</g>
<!-- packages/UI/spectrogram/src/audio&#45;viewer.ts -->
<g id="node2" class="node">
<title>packages/UI/spectrogram/src/audio&#45;viewer.ts</title>
<g id="a_node2"><a xlink:href="packages/UI/spectrogram/src/audio-viewer.ts" xlink:title="audio&#45;viewer.ts">
<path fill="#ddfeff" stroke="black" d="M181,-186C181,-186 108,-186 108,-186 105,-186 102,-183 102,-180 102,-180 102,-174 102,-174 102,-171 105,-168 108,-168 108,-168 181,-168 181,-168 184,-168 187,-171 187,-174 187,-174 187,-180 187,-180 187,-183 184,-186 181,-186"/>
<text text-anchor="start" x="110" y="-174.8" font-family="Helvetica,sans-Serif" font-size="9.00">audio&#45;viewer.ts</text>
</a>
</g>
</g>
<!-- packages/UI/spectrogram/index.ts&#45;&gt;packages/UI/spectrogram/src/audio&#45;viewer.ts -->
<g id="edge1" class="edge">
<title>packages/UI/spectrogram/index.ts&#45;&gt;packages/UI/spectrogram/src/audio&#45;viewer.ts</title>
<path fill="none" stroke="#000000" stroke-width="2" stroke-opacity="0.200000" d="M86.42,-177C89.37,-177 92.44,-177 95.56,-177"/>
<polygon fill="#000000" fill-opacity="0.200000" stroke="#000000" stroke-width="2" stroke-opacity="0.200000" points="101.99,-179.1 95.99,-177 101.99,-174.9 101.99,-179.1"/>
</g>
<!-- packages/UI/spectrogram/src/audio&#45;analyzer/index.ts -->
<g id="node13" class="node">
<title>packages/UI/spectrogram/src/audio&#45;analyzer/index.ts</title>
<g id="a_node13"><a xlink:href="packages/UI/spectrogram/src/audio-analyzer/index.ts" xlink:title="index.ts">
<path fill="#ddfeff" stroke="black" d="M400.5,-156C400.5,-156 358.5,-156 358.5,-156 355.5,-156 352.5,-153 352.5,-150 352.5,-150 352.5,-144 352.5,-144 352.5,-141 355.5,-138 358.5,-138 358.5,-138 400.5,-138 400.5,-138 403.5,-138 406.5,-141 406.5,-144 406.5,-144 406.5,-150 406.5,-150 406.5,-153 403.5,-156 400.5,-156"/>
<text text-anchor="start" x="361" y="-144.8" font-family="Helvetica,sans-Serif" font-size="9.00">index.ts</text>
</a>
</g>
</g>
<!-- packages/UI/spectrogram/src/audio&#45;viewer.ts&#45;&gt;packages/UI/spectrogram/src/audio&#45;analyzer/index.ts -->
<g id="edge12" class="edge">
<title>packages/UI/spectrogram/src/audio&#45;viewer.ts&#45;&gt;packages/UI/spectrogram/src/audio&#45;analyzer/index.ts</title>
<path fill="none" stroke="#000000" stroke-width="2" stroke-opacity="0.200000" d="M156.53,-167.89C172.45,-154.74 200,-132 200,-132 200,-132 317,-132 317,-132 317,-132 331.54,-135.55 346.48,-139.19"/>
<polygon fill="#000000" fill-opacity="0.200000" stroke="#000000" stroke-width="2" stroke-opacity="0.200000" points="346.09,-141.26 352.42,-140.64 347.09,-137.18 346.09,-141.26"/>
</g>
<!-- packages/UI/spectrogram/src/fft&#45;viewer.ts -->
<g id="node14" class="node">
<title>packages/UI/spectrogram/src/fft&#45;viewer.ts</title>
<g id="a_node14"><a xlink:href="packages/UI/spectrogram/src/fft-viewer.ts" xlink:title="fft&#45;viewer.ts">
<path fill="#ddfeff" stroke="black" d="M287,-186C287,-186 230,-186 230,-186 227,-186 224,-183 224,-180 224,-180 224,-174 224,-174 224,-171 227,-168 230,-168 230,-168 287,-168 287,-168 290,-168 293,-171 293,-174 293,-174 293,-180 293,-180 293,-183 290,-186 287,-186"/>
<text text-anchor="start" x="232" y="-174.8" font-family="Helvetica,sans-Serif" font-size="9.00">fft&#45;viewer.ts</text>
</a>
</g>
</g>
<!-- packages/UI/spectrogram/src/audio&#45;viewer.ts&#45;&gt;packages/UI/spectrogram/src/fft&#45;viewer.ts -->
<g id="edge13" class="edge">
<title>packages/UI/spectrogram/src/audio&#45;viewer.ts&#45;&gt;packages/UI/spectrogram/src/fft&#45;viewer.ts</title>
<path fill="none" stroke="#000000" stroke-width="2" stroke-opacity="0.200000" d="M187.2,-177C197.2,-177 207.84,-177 217.74,-177"/>
<polygon fill="#000000" fill-opacity="0.200000" stroke="#000000" stroke-width="2" stroke-opacity="0.200000" points="217.8,-179.1 223.8,-177 217.8,-174.9 217.8,-179.1"/>
</g>
<!-- packages/UI/spectrogram/src/spectrogram&#45;viewer.ts -->
<g id="node15" class="node">
<title>packages/UI/spectrogram/src/spectrogram&#45;viewer.ts</title>
<g id="a_node15"><a xlink:href="packages/UI/spectrogram/src/spectrogram-viewer.ts" xlink:title="spectrogram&#45;viewer.ts">
<path fill="#ddfeff" stroke="black" d="M311,-156C311,-156 206,-156 206,-156 203,-156 200,-153 200,-150 200,-150 200,-144 200,-144 200,-141 203,-138 206,-138 206,-138 311,-138 311,-138 314,-138 317,-141 317,-144 317,-144 317,-150 317,-150 317,-153 314,-156 311,-156"/>
<text text-anchor="start" x="208" y="-144.8" font-family="Helvetica,sans-Serif" font-size="9.00">spectrogram&#45;viewer.ts</text>
</a>
</g>
</g>
<!-- packages/UI/spectrogram/src/audio&#45;viewer.ts&#45;&gt;packages/UI/spectrogram/src/spectrogram&#45;viewer.ts -->
<g id="edge14" class="edge">
<title>packages/UI/spectrogram/src/audio&#45;viewer.ts&#45;&gt;packages/UI/spectrogram/src/spectrogram&#45;viewer.ts</title>
<path fill="none" stroke="#000000" stroke-width="2" stroke-opacity="0.200000" d="M178.46,-167.93C189.94,-164.77 200,-162 200,-162 200,-162 207.28,-160.1 216.66,-157.65"/>
<polygon fill="#000000" fill-opacity="0.200000" stroke="#000000" stroke-width="2" stroke-opacity="0.200000" points="217.45,-159.62 222.73,-156.07 216.39,-155.55 217.45,-159.62"/>
</g>
<!-- packages/UI/spectrogram/src/wave&#45;viewer.ts -->
<g id="node16" class="node">
<title>packages/UI/spectrogram/src/wave&#45;viewer.ts</title>
<g id="a_node16"><a xlink:href="packages/UI/spectrogram/src/wave-viewer.ts" xlink:title="wave&#45;viewer.ts">
<path fill="#ddfeff" stroke="black" d="M294,-216C294,-216 223,-216 223,-216 220,-216 217,-213 217,-210 217,-210 217,-204 217,-204 217,-201 220,-198 223,-198 223,-198 294,-198 294,-198 297,-198 300,-201 300,-204 300,-204 300,-210 300,-210 300,-213 297,-216 294,-216"/>
<text text-anchor="start" x="225" y="-204.8" font-family="Helvetica,sans-Serif" font-size="9.00">wave&#45;viewer.ts</text>
</a>
</g>
</g>
<!-- packages/UI/spectrogram/src/audio&#45;viewer.ts&#45;&gt;packages/UI/spectrogram/src/wave&#45;viewer.ts -->
<g id="edge15" class="edge">
<title>packages/UI/spectrogram/src/audio&#45;viewer.ts&#45;&gt;packages/UI/spectrogram/src/wave&#45;viewer.ts</title>
<path fill="none" stroke="#000000" stroke-width="2" stroke-opacity="0.200000" d="M178.46,-186.07C189.94,-189.23 200,-192 200,-192 200,-192 207.28,-193.9 216.66,-196.35"/>
<polygon fill="#000000" fill-opacity="0.200000" stroke="#000000" stroke-width="2" stroke-opacity="0.200000" points="216.39,-198.45 222.73,-197.93 217.45,-194.38 216.39,-198.45"/>
</g>
<!-- packages/UI/view/dist/index.js -->
<g id="node17" class="node">
<title>packages/UI/view/dist/index.js</title>
<g id="a_node17"><a xlink:href="packages/UI/view/dist/index.js" xlink:title="index.js">
<polygon fill="#ffffcc" stroke="black" points="406.5,-310 405,-312 394.5,-312 393,-310 352.5,-310 352.5,-292 406.5,-292 406.5,-310"/>
<text text-anchor="start" x="362" y="-298.8" font-family="Helvetica,sans-Serif" font-size="9.00">index.js</text>
</a>
</g>
</g>
<!-- packages/UI/spectrogram/src/audio&#45;viewer.ts&#45;&gt;packages/UI/view/dist/index.js -->
<g id="edge16" class="edge">
<title>packages/UI/spectrogram/src/audio&#45;viewer.ts&#45;&gt;packages/UI/view/dist/index.js</title>
<path fill="none" stroke="#000000" stroke-width="2" stroke-opacity="0.200000" d="M156.53,-186.11C172.45,-199.26 200,-222 200,-222 200,-222 302.62,-267.42 352.25,-289.38"/>
<polygon fill="#000000" fill-opacity="0.200000" stroke="#000000" stroke-width="2" stroke-opacity="0.200000" points="351.69,-291.43 358.02,-291.94 353.39,-287.59 351.69,-291.43"/>
</g>
<!-- packages/UI/spectrogram/src/audio&#45;analyzer/audio&#45;analyzer.ts -->
<g id="node3" class="node">
<title>packages/UI/spectrogram/src/audio&#45;analyzer/audio&#45;analyzer.ts</title>
<g id="a_node3"><a xlink:href="packages/UI/spectrogram/src/audio-analyzer/audio-analyzer.ts" xlink:title="audio&#45;analyzer.ts">
<path fill="#ddfeff" stroke="black" d="M526,-156C526,-156 445,-156 445,-156 442,-156 439,-153 439,-150 439,-150 439,-144 439,-144 439,-141 442,-138 445,-138 445,-138 526,-138 526,-138 529,-138 532,-141 532,-144 532,-144 532,-150 532,-150 532,-153 529,-156 526,-156"/>
<text text-anchor="start" x="447" y="-144.8" font-family="Helvetica,sans-Serif" font-size="9.00">audio&#45;analyzer.ts</text>
</a>
</g>
</g>
<!-- packages/UI/spectrogram/src/audio&#45;analyzer/connect.ts -->
<g id="node4" class="node">
<title>packages/UI/spectrogram/src/audio&#45;analyzer/connect.ts</title>
<g id="a_node4"><a xlink:href="packages/UI/spectrogram/src/audio-analyzer/connect.ts" xlink:title="connect.ts">
<path fill="#ddfeff" stroke="black" d="M604,-186C604,-186 551,-186 551,-186 548,-186 545,-183 545,-180 545,-180 545,-174 545,-174 545,-171 548,-168 551,-168 551,-168 604,-168 604,-168 607,-168 610,-171 610,-174 610,-174 610,-180 610,-180 610,-183 607,-186 604,-186"/>
<text text-anchor="start" x="553" y="-174.8" font-family="Helvetica,sans-Serif" font-size="9.00">connect.ts</text>
</a>
</g>
</g>
<!-- packages/UI/spectrogram/src/audio&#45;analyzer/audio&#45;analyzer.ts&#45;&gt;packages/UI/spectrogram/src/audio&#45;analyzer/connect.ts -->
<g id="edge2" class="edge">
<title>packages/UI/spectrogram/src/audio&#45;analyzer/audio&#45;analyzer.ts&#45;&gt;packages/UI/spectrogram/src/audio&#45;analyzer/connect.ts</title>
<path fill="none" stroke="#000000" stroke-width="2" stroke-opacity="0.200000" d="M513.5,-156C522.94,-159.15 533.64,-162.71 543.51,-166"/>
<polygon fill="#000000" fill-opacity="0.200000" stroke="#000000" stroke-width="2" stroke-opacity="0.200000" points="542.85,-168 549.21,-167.9 544.18,-164.01 542.85,-168"/>
</g>
<!-- packages/UI/spectrogram/src/audio&#45;analyzer/get&#45;data&#45;on&#45;buffer/index.ts -->
<g id="node5" class="node">
<title>packages/UI/spectrogram/src/audio&#45;analyzer/get&#45;data&#45;on&#45;buffer/index.ts</title>
<g id="a_node5"><a xlink:href="packages/UI/spectrogram/src/audio-analyzer/get-data-on-buffer/index.ts" xlink:title="index.ts">
<path fill="#ddfeff" stroke="black" d="M706,-134C706,-134 664,-134 664,-134 661,-134 658,-131 658,-128 658,-128 658,-122 658,-122 658,-119 661,-116 664,-116 664,-116 706,-116 706,-116 709,-116 712,-119 712,-122 712,-122 712,-128 712,-128 712,-131 709,-134 706,-134"/>
<text text-anchor="start" x="666.5" y="-122.8" font-family="Helvetica,sans-Serif" font-size="9.00">index.ts</text>
</a>
</g>
</g>
<!-- packages/UI/spectrogram/src/audio&#45;analyzer/audio&#45;analyzer.ts&#45;&gt;packages/UI/spectrogram/src/audio&#45;analyzer/get&#45;data&#45;on&#45;buffer/index.ts -->
<g id="edge3" class="edge">
<title>packages/UI/spectrogram/src/audio&#45;analyzer/audio&#45;analyzer.ts&#45;&gt;packages/UI/spectrogram/src/audio&#45;analyzer/get&#45;data&#45;on&#45;buffer/index.ts</title>
<path fill="none" stroke="#000000" stroke-width="2" stroke-opacity="0.200000" d="M521.88,-137.93C534.2,-134.77 545,-132 545,-132 545,-132 610.67,-128.69 651.74,-126.62"/>
<polygon fill="#000000" fill-opacity="0.200000" stroke="#000000" stroke-width="2" stroke-opacity="0.200000" points="651.97,-128.72 657.86,-126.32 651.76,-124.52 651.97,-128.72"/>
</g>
<!-- packages/UI/spectrogram/src/audio&#45;analyzer/get&#45;fft.ts -->
<g id="node6" class="node">
<title>packages/UI/spectrogram/src/audio&#45;analyzer/get&#45;fft.ts</title>
<g id="a_node6"><a xlink:href="packages/UI/spectrogram/src/audio-analyzer/get-fft.ts" xlink:title="get&#45;fft.ts">
<path fill="#ddfeff" stroke="black" d="M599.5,-156C599.5,-156 555.5,-156 555.5,-156 552.5,-156 549.5,-153 549.5,-150 549.5,-150 549.5,-144 549.5,-144 549.5,-141 552.5,-138 555.5,-138 555.5,-138 599.5,-138 599.5,-138 602.5,-138 605.5,-141 605.5,-144 605.5,-144 605.5,-150 605.5,-150 605.5,-153 602.5,-156 599.5,-156"/>
<text text-anchor="start" x="557.5" y="-144.8" font-family="Helvetica,sans-Serif" font-size="9.00">get&#45;fft.ts</text>
</a>
</g>
</g>
<!-- packages/UI/spectrogram/src/audio&#45;analyzer/audio&#45;analyzer.ts&#45;&gt;packages/UI/spectrogram/src/audio&#45;analyzer/get&#45;fft.ts -->
<g id="edge4" class="edge">
<title>packages/UI/spectrogram/src/audio&#45;analyzer/audio&#45;analyzer.ts&#45;&gt;packages/UI/spectrogram/src/audio&#45;analyzer/get&#45;fft.ts</title>
<path fill="none" stroke="#000000" stroke-width="2" stroke-opacity="0.200000" d="M532.03,-147C535.83,-147 539.62,-147 543.3,-147"/>
<polygon fill="#000000" fill-opacity="0.200000" stroke="#000000" stroke-width="2" stroke-opacity="0.200000" points="543.37,-149.1 549.37,-147 543.37,-144.9 543.37,-149.1"/>
</g>
<!-- packages/UI/spectrogram/src/audio&#45;analyzer/get&#45;data&#45;on&#45;buffer/byte&#45;frequency.ts -->
<g id="node8" class="node">
<title>packages/UI/spectrogram/src/audio&#45;analyzer/get&#45;data&#45;on&#45;buffer/byte&#45;frequency.ts</title>
<g id="a_node8"><a xlink:href="packages/UI/spectrogram/src/audio-analyzer/get-data-on-buffer/byte-frequency.ts" xlink:title="byte&#45;frequency.ts">
<path fill="#ddfeff" stroke="black" d="M817,-74C817,-74 734,-74 734,-74 731,-74 728,-71 728,-68 728,-68 728,-62 728,-62 728,-59 731,-56 734,-56 734,-56 817,-56 817,-56 820,-56 823,-59 823,-62 823,-62 823,-68 823,-68 823,-71 820,-74 817,-74"/>
<text text-anchor="start" x="736" y="-62.8" font-family="Helvetica,sans-Serif" font-size="9.00">byte&#45;frequency.ts</text>
</a>
</g>
</g>
<!-- packages/UI/spectrogram/src/audio&#45;analyzer/get&#45;data&#45;on&#45;buffer/index.ts&#45;&gt;packages/UI/spectrogram/src/audio&#45;analyzer/get&#45;data&#45;on&#45;buffer/byte&#45;frequency.ts -->
<g id="edge5" class="edge">
<title>packages/UI/spectrogram/src/audio&#45;analyzer/get&#45;data&#45;on&#45;buffer/index.ts&#45;&gt;packages/UI/spectrogram/src/audio&#45;analyzer/get&#45;data&#45;on&#45;buffer/byte&#45;frequency.ts</title>
<path fill="none" stroke="#000000" stroke-width="2" stroke-opacity="0.200000" d="M694.5,-115.89C706.77,-102.74 728,-80 728,-80 728,-80 733.45,-78.24 740.62,-75.93"/>
<polygon fill="#000000" fill-opacity="0.200000" stroke="#000000" stroke-width="2" stroke-opacity="0.200000" points="747.02,-76.07 740.67,-75.91 745.73,-72.07 747.02,-76.07"/>
</g>
<!-- packages/UI/spectrogram/src/audio&#45;analyzer/get&#45;data&#45;on&#45;buffer/byte&#45;time.ts -->
<g id="node9" class="node">
<title>packages/UI/spectrogram/src/audio&#45;analyzer/get&#45;data&#45;on&#45;buffer/byte&#45;time.ts</title>
<g id="a_node9"><a xlink:href="packages/UI/spectrogram/src/audio-analyzer/get-data-on-buffer/byte-time.ts" xlink:title="byte&#45;time.ts">
<path fill="#ddfeff" stroke="black" d="M805,-104C805,-104 746,-104 746,-104 743,-104 740,-101 740,-98 740,-98 740,-92 740,-92 740,-89 743,-86 746,-86 746,-86 805,-86 805,-86 808,-86 811,-89 811,-92 811,-92 811,-98 811,-98 811,-101 808,-104 805,-104"/>
<text text-anchor="start" x="748" y="-92.8" font-family="Helvetica,sans-Serif" font-size="9.00">byte&#45;time.ts</text>
</a>
</g>
</g>
<!-- packages/UI/spectrogram/src/audio&#45;analyzer/get&#45;data&#45;on&#45;buffer/index.ts&#45;&gt;packages/UI/spectrogram/src/audio&#45;analyzer/get&#45;data&#45;on&#45;buffer/byte&#45;time.ts -->
<g id="edge6" class="edge">
<title>packages/UI/spectrogram/src/audio&#45;analyzer/get&#45;data&#45;on&#45;buffer/index.ts&#45;&gt;packages/UI/spectrogram/src/audio&#45;analyzer/get&#45;data&#45;on&#45;buffer/byte&#45;time.ts</title>
<path fill="none" stroke="#000000" stroke-width="2" stroke-opacity="0.200000" d="M711.4,-115.93C720.25,-112.77 728,-110 728,-110 728,-110 733.45,-108.24 740.62,-105.93"/>
<polygon fill="#000000" fill-opacity="0.200000" stroke="#000000" stroke-width="2" stroke-opacity="0.200000" points="747.02,-106.07 740.67,-105.91 745.73,-102.07 747.02,-106.07"/>
</g>
<!-- packages/UI/spectrogram/src/audio&#45;analyzer/get&#45;data&#45;on&#45;buffer/float&#45;frequency.ts -->
<g id="node10" class="node">
<title>packages/UI/spectrogram/src/audio&#45;analyzer/get&#45;data&#45;on&#45;buffer/float&#45;frequency.ts</title>
<g id="a_node10"><a xlink:href="packages/UI/spectrogram/src/audio-analyzer/get-data-on-buffer/float-frequency.ts" xlink:title="float&#45;frequency.ts">
<path fill="#ddfeff" stroke="black" d="M817,-134C817,-134 734,-134 734,-134 731,-134 728,-131 728,-128 728,-128 728,-122 728,-122 728,-119 731,-116 734,-116 734,-116 817,-116 817,-116 820,-116 823,-119 823,-122 823,-122 823,-128 823,-128 823,-131 820,-134 817,-134"/>
<text text-anchor="start" x="736" y="-122.8" font-family="Helvetica,sans-Serif" font-size="9.00">float&#45;frequency.ts</text>
</a>
</g>
</g>
<!-- packages/UI/spectrogram/src/audio&#45;analyzer/get&#45;data&#45;on&#45;buffer/index.ts&#45;&gt;packages/UI/spectrogram/src/audio&#45;analyzer/get&#45;data&#45;on&#45;buffer/float&#45;frequency.ts -->
<g id="edge7" class="edge">
<title>packages/UI/spectrogram/src/audio&#45;analyzer/get&#45;data&#45;on&#45;buffer/index.ts&#45;&gt;packages/UI/spectrogram/src/audio&#45;analyzer/get&#45;data&#45;on&#45;buffer/float&#45;frequency.ts</title>
<path fill="none" stroke="#000000" stroke-width="2" stroke-opacity="0.200000" d="M712.07,-125C715.2,-125 718.47,-125 721.8,-125"/>
<polygon fill="#000000" fill-opacity="0.200000" stroke="#000000" stroke-width="2" stroke-opacity="0.200000" points="727.86,-127.1 721.86,-125 727.86,-122.9 727.86,-127.1"/>
</g>
<!-- packages/UI/spectrogram/src/audio&#45;analyzer/get&#45;data&#45;on&#45;buffer/float&#45;time.ts -->
<g id="node11" class="node">
<title>packages/UI/spectrogram/src/audio&#45;analyzer/get&#45;data&#45;on&#45;buffer/float&#45;time.ts</title>
<g id="a_node11"><a xlink:href="packages/UI/spectrogram/src/audio-analyzer/get-data-on-buffer/float-time.ts" xlink:title="float&#45;time.ts">
<path fill="#ddfeff" stroke="black" d="M805,-164C805,-164 746,-164 746,-164 743,-164 740,-161 740,-158 740,-158 740,-152 740,-152 740,-149 743,-146 746,-146 746,-146 805,-146 805,-146 808,-146 811,-149 811,-152 811,-152 811,-158 811,-158 811,-161 808,-164 805,-164"/>
<text text-anchor="start" x="748" y="-152.8" font-family="Helvetica,sans-Serif" font-size="9.00">float&#45;time.ts</text>
</a>
</g>
</g>
<!-- packages/UI/spectrogram/src/audio&#45;analyzer/get&#45;data&#45;on&#45;buffer/index.ts&#45;&gt;packages/UI/spectrogram/src/audio&#45;analyzer/get&#45;data&#45;on&#45;buffer/float&#45;time.ts -->
<g id="edge8" class="edge">
<title>packages/UI/spectrogram/src/audio&#45;analyzer/get&#45;data&#45;on&#45;buffer/index.ts&#45;&gt;packages/UI/spectrogram/src/audio&#45;analyzer/get&#45;data&#45;on&#45;buffer/float&#45;time.ts</title>
<path fill="none" stroke="#000000" stroke-width="2" stroke-opacity="0.200000" d="M711.4,-134.07C720.25,-137.23 728,-140 728,-140 728,-140 733.45,-141.76 740.62,-144.07"/>
<polygon fill="#000000" fill-opacity="0.200000" stroke="#000000" stroke-width="2" stroke-opacity="0.200000" points="745.73,-147.93 740.67,-144.09 747.02,-143.93 745.73,-147.93"/>
</g>
<!-- packages/UI/spectrogram/src/audio&#45;analyzer/get&#45;fft.ts&#45;&gt;packages/UI/spectrogram/src/audio&#45;analyzer/get&#45;data&#45;on&#45;buffer/index.ts -->
<g id="edge9" class="edge">
<title>packages/UI/spectrogram/src/audio&#45;analyzer/get&#45;fft.ts&#45;&gt;packages/UI/spectrogram/src/audio&#45;analyzer/get&#45;data&#45;on&#45;buffer/index.ts</title>
<path fill="none" stroke="#000000" stroke-width="2" stroke-opacity="0.200000" d="M605.67,-141.33C619.67,-138.42 636.83,-134.84 651.52,-131.77"/>
<polygon fill="#000000" fill-opacity="0.200000" stroke="#000000" stroke-width="2" stroke-opacity="0.200000" points="652.21,-133.78 657.65,-130.49 651.35,-129.66 652.21,-133.78"/>
</g>
<!-- packages/util/math/src/fft/array/index.ts -->
<g id="node12" class="node">
<title>packages/util/math/src/fft/array/index.ts</title>
<g id="a_node12"><a xlink:href="packages/util/math/src/fft/array/index.ts" xlink:title="index.ts">
<path fill="#ddfeff" stroke="black" d="M706,-454C706,-454 664,-454 664,-454 661,-454 658,-451 658,-448 658,-448 658,-442 658,-442 658,-439 661,-436 664,-436 664,-436 706,-436 706,-436 709,-436 712,-439 712,-442 712,-442 712,-448 712,-448 712,-451 709,-454 706,-454"/>
<text text-anchor="start" x="666.5" y="-442.8" font-family="Helvetica,sans-Serif" font-size="9.00">index.ts</text>
</a>
</g>
</g>
<!-- packages/UI/spectrogram/src/audio&#45;analyzer/get&#45;fft.ts&#45;&gt;packages/util/math/src/fft/array/index.ts -->
<g id="edge10" class="edge">
<title>packages/UI/spectrogram/src/audio&#45;analyzer/get&#45;fft.ts&#45;&gt;packages/util/math/src/fft/array/index.ts</title>
<path fill="none" stroke="#000000" stroke-width="2" stroke-opacity="0.200000" d="M597.55,-156.07C604.18,-159.23 610,-162 610,-162 610,-162 618,-193 618,-193 618,-193 665.71,-375.16 680,-429.73"/>
<polygon fill="#000000" fill-opacity="0.200000" stroke="#000000" stroke-width="2" stroke-opacity="0.200000" points="678.02,-430.46 681.57,-435.73 682.08,-429.4 678.02,-430.46"/>
</g>
<!-- packages/UI/spectrogram/src/audio&#45;analyzer/cosine&#45;window.ts -->
<g id="node7" class="node">
<title>packages/UI/spectrogram/src/audio&#45;analyzer/cosine&#45;window.ts</title>
<g id="a_node7"><a xlink:href="packages/UI/spectrogram/src/audio-analyzer/cosine-window.ts" xlink:title="no&#45;orphans">
<path fill="#ccffcc" stroke="orange" d="M420,-188C420,-188 339,-188 339,-188 336,-188 333,-185 333,-182 333,-182 333,-176 333,-176 333,-173 336,-170 339,-170 339,-170 420,-170 420,-170 423,-170 426,-173 426,-176 426,-176 426,-182 426,-182 426,-185 423,-188 420,-188"/>
<text text-anchor="start" x="341" y="-176.8" font-family="Helvetica,sans-Serif" font-size="9.00" fill="orange">cosine&#45;window.ts</text>
</a>
</g>
</g>
<!-- packages/util/math/src/fft/array/complex.ts -->
<g id="node19" class="node">
<title>packages/util/math/src/fft/array/complex.ts</title>
<g id="a_node19"><a xlink:href="packages/util/math/src/fft/array/complex.ts" xlink:title="complex.ts">
<path fill="#ddfeff" stroke="black" d="M939.5,-454C939.5,-454 885.5,-454 885.5,-454 882.5,-454 879.5,-451 879.5,-448 879.5,-448 879.5,-442 879.5,-442 879.5,-439 882.5,-436 885.5,-436 885.5,-436 939.5,-436 939.5,-436 942.5,-436 945.5,-439 945.5,-442 945.5,-442 945.5,-448 945.5,-448 945.5,-451 942.5,-454 939.5,-454"/>
<text text-anchor="start" x="887.5" y="-442.8" font-family="Helvetica,sans-Serif" font-size="9.00">complex.ts</text>
</a>
</g>
</g>
<!-- packages/util/math/src/fft/array/index.ts&#45;&gt;packages/util/math/src/fft/array/complex.ts -->
<g id="edge29" class="edge">
<title>packages/util/math/src/fft/array/index.ts&#45;&gt;packages/util/math/src/fft/array/complex.ts</title>
<path fill="none" stroke="#000000" stroke-width="2" stroke-opacity="0.200000" d="M712.31,-445C751.92,-445 827.11,-445 872.93,-445"/>
<polygon fill="#000000" fill-opacity="0.200000" stroke="#000000" stroke-width="2" stroke-opacity="0.200000" points="873.19,-447.1 879.19,-445 873.19,-442.9 873.19,-447.1"/>
</g>
<!-- packages/util/math/src/fft/array/ftt&#45;core.ts -->
<g id="node21" class="node">
<title>packages/util/math/src/fft/array/ftt&#45;core.ts</title>
<g id="a_node21"><a xlink:href="packages/util/math/src/fft/array/ftt-core.ts" xlink:title="ftt&#45;core.ts">
<path fill="#ddfeff" stroke="black" d="M800,-480C800,-480 751,-480 751,-480 748,-480 745,-477 745,-474 745,-474 745,-468 745,-468 745,-465 748,-462 751,-462 751,-462 800,-462 800,-462 803,-462 806,-465 806,-468 806,-468 806,-474 806,-474 806,-477 803,-480 800,-480"/>
<text text-anchor="start" x="753" y="-468.8" font-family="Helvetica,sans-Serif" font-size="9.00">ftt&#45;core.ts</text>
</a>
</g>
</g>
<!-- packages/util/math/src/fft/array/index.ts&#45;&gt;packages/util/math/src/fft/array/ftt&#45;core.ts -->
<g id="edge30" class="edge">
<title>packages/util/math/src/fft/array/index.ts&#45;&gt;packages/util/math/src/fft/array/ftt&#45;core.ts</title>
<path fill="none" stroke="#000000" stroke-width="2" stroke-opacity="0.200000" d="M712.07,-452.66C720.52,-455.14 730.04,-457.94 739.05,-460.59"/>
<polygon fill="#000000" fill-opacity="0.200000" stroke="#000000" stroke-width="2" stroke-opacity="0.200000" points="738.54,-462.62 744.88,-462.3 739.72,-458.59 738.54,-462.62"/>
</g>
<!-- packages/UI/spectrogram/src/audio&#45;analyzer/index.ts&#45;&gt;packages/UI/spectrogram/src/audio&#45;analyzer/audio&#45;analyzer.ts -->
<g id="edge11" class="edge">
<title>packages/UI/spectrogram/src/audio&#45;analyzer/index.ts&#45;&gt;packages/UI/spectrogram/src/audio&#45;analyzer/audio&#45;analyzer.ts</title>
<path fill="none" stroke="#000000" stroke-width="2" stroke-opacity="0.200000" d="M406.74,-147C414.66,-147 423.65,-147 432.63,-147"/>
<polygon fill="#000000" fill-opacity="0.200000" stroke="#000000" stroke-width="2" stroke-opacity="0.200000" points="438.84,-149.1 432.84,-147 438.84,-144.9 438.84,-149.1"/>
</g>
<!-- packages/UI/spectrogram/src/fft&#45;viewer.ts&#45;&gt;packages/UI/spectrogram/src/audio&#45;analyzer/index.ts -->
<g id="edge17" class="edge">
<title>packages/UI/spectrogram/src/fft&#45;viewer.ts&#45;&gt;packages/UI/spectrogram/src/audio&#45;analyzer/index.ts</title>
<path fill="none" stroke="#000000" stroke-width="2" stroke-opacity="0.200000" d="M293.28,-168.48C309.93,-164.29 329.9,-159.25 346.32,-155.11"/>
<polygon fill="#000000" fill-opacity="0.200000" stroke="#000000" stroke-width="2" stroke-opacity="0.200000" points="346.9,-157.13 352.2,-153.63 345.87,-153.06 346.9,-157.13"/>
</g>
<!-- packages/UI/spectrogram/src/fft&#45;viewer.ts&#45;&gt;packages/UI/view/dist/index.js -->
<g id="edge19" class="edge">
<title>packages/UI/spectrogram/src/fft&#45;viewer.ts&#45;&gt;packages/UI/view/dist/index.js</title>
<path fill="none" stroke="#000000" stroke-width="2" stroke-opacity="0.200000" d="M293.28,-185.81C305.8,-189.08 317,-192 317,-192 317,-192 325,-219 325,-219 325,-219 353.83,-263.19 369.16,-286.69"/>
<polygon fill="#000000" fill-opacity="0.200000" stroke="#000000" stroke-width="2" stroke-opacity="0.200000" points="367.53,-288.03 372.57,-291.91 371.05,-285.74 367.53,-288.03"/>
</g>
<!-- packages/util/math/dist/index.js -->
<g id="node18" class="node">
<title>packages/util/math/dist/index.js</title>
<g id="a_node18"><a xlink:href="packages/util/math/dist/index.js" xlink:title="index.js">
<polygon fill="#ffffcc" stroke="black" points="712,-596 710.5,-598 700,-598 698.5,-596 658,-596 658,-578 712,-578 712,-596"/>
<text text-anchor="start" x="667.5" y="-584.8" font-family="Helvetica,sans-Serif" font-size="9.00">index.js</text>
</a>
</g>
</g>
<!-- packages/UI/spectrogram/src/fft&#45;viewer.ts&#45;&gt;packages/util/math/dist/index.js -->
<g id="edge18" class="edge">
<title>packages/UI/spectrogram/src/fft&#45;viewer.ts&#45;&gt;packages/util/math/dist/index.js</title>
<path fill="none" stroke="#000000" stroke-width="2" stroke-opacity="0.200000" d="M293.28,-185.81C305.8,-189.08 317,-192 317,-192 317,-192 325,-339 325,-339 325,-339 610,-521 610,-521 610,-521 647.49,-554.44 669.1,-573.71"/>
<polygon fill="#000000" fill-opacity="0.200000" stroke="#000000" stroke-width="2" stroke-opacity="0.200000" points="667.84,-575.4 673.71,-577.82 670.63,-572.26 667.84,-575.4"/>
</g>
<!-- packages/UI/spectrogram/src/spectrogram&#45;viewer.ts&#45;&gt;packages/UI/spectrogram/src/audio&#45;analyzer/index.ts -->
<g id="edge20" class="edge">
<title>packages/UI/spectrogram/src/spectrogram&#45;viewer.ts&#45;&gt;packages/UI/spectrogram/src/audio&#45;analyzer/index.ts</title>
<path fill="none" stroke="#000000" stroke-width="2" stroke-opacity="0.200000" d="M317.26,-147C327.26,-147 337.34,-147 346.34,-147"/>
<polygon fill="#000000" fill-opacity="0.200000" stroke="#000000" stroke-width="2" stroke-opacity="0.200000" points="346.39,-149.1 352.39,-147 346.39,-144.9 346.39,-149.1"/>
</g>
<!-- packages/UI/spectrogram/src/spectrogram&#45;viewer.ts&#45;&gt;packages/UI/view/dist/index.js -->
<g id="edge21" class="edge">
<title>packages/UI/spectrogram/src/spectrogram&#45;viewer.ts&#45;&gt;packages/UI/view/dist/index.js</title>
<path fill="none" stroke="#000000" stroke-opacity="0.200000" d="M294.27,-156.07C306.38,-159.23 317,-162 317,-162 317,-162 325,-219 325,-219 325,-219 353.83,-263.19 369.16,-286.69"/>
<polygon fill="none" stroke="#000000" stroke-opacity="0.200000" points="367.53,-288.03 372.57,-291.91 371.05,-285.74 367.53,-288.03"/>
</g>
<!-- packages/UI/spectrogram/src/wave&#45;viewer.ts&#45;&gt;packages/UI/spectrogram/src/audio&#45;analyzer/index.ts -->
<g id="edge22" class="edge">
<title>packages/UI/spectrogram/src/wave&#45;viewer.ts&#45;&gt;packages/UI/spectrogram/src/audio&#45;analyzer/index.ts</title>
<path fill="none" stroke="#000000" stroke-width="2" stroke-opacity="0.200000" d="M294.27,-197.93C306.38,-194.77 317,-192 317,-192 317,-192 325,-164 325,-164 325,-164 335,-160.82 346.36,-157.21"/>
<polygon fill="#000000" fill-opacity="0.200000" stroke="#000000" stroke-width="2" stroke-opacity="0.200000" points="347.29,-159.12 352.38,-155.3 346.02,-155.12 347.29,-159.12"/>
</g>
<!-- packages/UI/spectrogram/src/wave&#45;viewer.ts&#45;&gt;packages/UI/view/dist/index.js -->
<g id="edge24" class="edge">
<title>packages/UI/spectrogram/src/wave&#45;viewer.ts&#45;&gt;packages/UI/view/dist/index.js</title>
<path fill="none" stroke="#000000" stroke-width="2" stroke-opacity="0.200000" d="M270.91,-216.01C292.09,-232.74 337.56,-268.66 362.06,-288.01"/>
<polygon fill="#000000" fill-opacity="0.200000" stroke="#000000" stroke-width="2" stroke-opacity="0.200000" points="360.94,-289.8 366.95,-291.88 363.54,-286.51 360.94,-289.8"/>
</g>
<!-- packages/UI/spectrogram/src/wave&#45;viewer.ts&#45;&gt;packages/util/math/dist/index.js -->
<g id="edge23" class="edge">
<title>packages/UI/spectrogram/src/wave&#45;viewer.ts&#45;&gt;packages/util/math/dist/index.js</title>
<path fill="none" stroke="#000000" stroke-width="2" stroke-opacity="0.200000" d="M262.23,-216.09C274.63,-257.35 325,-425 325,-425 325,-425 576.13,-538.32 658.31,-575.41"/>
<polygon fill="#000000" fill-opacity="0.200000" stroke="#000000" stroke-width="2" stroke-opacity="0.200000" points="657.6,-577.39 663.93,-577.94 659.32,-573.56 657.6,-577.39"/>
</g>
<!-- packages/util/math/src/fft/typed&#45;array.ts -->
<g id="node20" class="node">
<title>packages/util/math/src/fft/typed&#45;array.ts</title>
<g id="a_node20"><a xlink:href="packages/util/math/src/fft/typed-array.ts" xlink:title="typed&#45;array.ts">
<path fill="#ddfeff" stroke="black" d="M1043,-480C1043,-480 976,-480 976,-480 973,-480 970,-477 970,-474 970,-474 970,-468 970,-468 970,-465 973,-462 976,-462 976,-462 1043,-462 1043,-462 1046,-462 1049,-465 1049,-468 1049,-468 1049,-474 1049,-474 1049,-477 1046,-480 1043,-480"/>
<text text-anchor="start" x="978" y="-468.8" font-family="Helvetica,sans-Serif" font-size="9.00">typed&#45;array.ts</text>
</a>
</g>
</g>
<!-- packages/util/math/src/fft/array/complex.ts&#45;&gt;packages/util/math/src/fft/typed&#45;array.ts -->
<g id="edge25" class="edge">
<title>packages/util/math/src/fft/array/complex.ts&#45;&gt;packages/util/math/src/fft/typed&#45;array.ts</title>
<path fill="none" stroke="#000000" stroke-width="2" stroke-opacity="0.200000" d="M945.66,-453.8C953.3,-455.89 961.53,-458.14 969.43,-460.31"/>
<polygon fill="#000000" fill-opacity="0.200000" stroke="#000000" stroke-width="2" stroke-opacity="0.200000" points="969.06,-462.38 975.4,-461.94 970.17,-458.33 969.06,-462.38"/>
</g>
<!-- packages/util/math/src/fft/array/ftt&#45;core.ts&#45;&gt;packages/util/math/src/fft/array/complex.ts -->
<g id="edge27" class="edge">
<title>packages/util/math/src/fft/array/ftt&#45;core.ts&#45;&gt;packages/util/math/src/fft/array/complex.ts</title>
<path fill="none" stroke="#000000" stroke-width="2" stroke-opacity="0.200000" d="M806.13,-465.29C825.77,-461.51 851.73,-456.51 872.97,-452.42"/>
<polygon fill="#000000" fill-opacity="0.200000" stroke="#000000" stroke-width="2" stroke-opacity="0.200000" points="873.61,-454.44 879.11,-451.24 872.82,-450.31 873.61,-454.44"/>
</g>
<!-- packages/util/math/src/fft/array/ftt&#45;core.ts&#45;&gt;packages/util/math/src/fft/typed&#45;array.ts -->
<g id="edge26" class="edge">
<title>packages/util/math/src/fft/array/ftt&#45;core.ts&#45;&gt;packages/util/math/src/fft/typed&#45;array.ts</title>
<path fill="none" stroke="#000000" stroke-width="2" stroke-opacity="0.200000" d="M806.14,-476.96C833.85,-482.53 871,-490 871,-490 871,-490 962,-490 962,-490 962,-490 970.8,-486.4 980.75,-482.34"/>
<polygon fill="#000000" fill-opacity="0.200000" stroke="#000000" stroke-width="2" stroke-opacity="0.200000" points="981.58,-484.27 986.34,-480.05 979.99,-480.38 981.58,-484.27"/>
</g>
<!-- packages/util/math/src/fft/array/root&#45;of&#45;unity.ts -->
<g id="node22" class="node">
<title>packages/util/math/src/fft/array/root&#45;of&#45;unity.ts</title>
<g id="a_node22"><a xlink:href="packages/util/math/src/fft/array/root-of-unity.ts" xlink:title="root&#45;of&#45;unity.ts">
<path fill="#ddfeff" stroke="black" d="M948,-484C948,-484 877,-484 877,-484 874,-484 871,-481 871,-478 871,-478 871,-472 871,-472 871,-469 874,-466 877,-466 877,-466 948,-466 948,-466 951,-466 954,-469 954,-472 954,-472 954,-478 954,-478 954,-481 951,-484 948,-484"/>
<text text-anchor="start" x="879" y="-472.8" font-family="Helvetica,sans-Serif" font-size="9.00">root&#45;of&#45;unity.ts</text>
</a>
</g>
</g>
<!-- packages/util/math/src/fft/array/ftt&#45;core.ts&#45;&gt;packages/util/math/src/fft/array/root&#45;of&#45;unity.ts -->
<g id="edge28" class="edge">
<title>packages/util/math/src/fft/array/ftt&#45;core.ts&#45;&gt;packages/util/math/src/fft/array/root&#45;of&#45;unity.ts</title>
<path fill="none" stroke="#000000" stroke-width="2" stroke-opacity="0.200000" d="M806.13,-471.88C823.29,-472.39 845.27,-473.04 864.72,-473.61"/>
<polygon fill="#000000" fill-opacity="0.200000" stroke="#000000" stroke-width="2" stroke-opacity="0.200000" points="864.87,-475.72 870.93,-473.8 865,-471.52 864.87,-475.72"/>
</g>
</g>
</svg>
