<?xml version="1.0" encoding="UTF-8" standalone="no"?>
<!DOCTYPE svg PUBLIC "-//W3C//DTD SVG 1.1//EN"
 "http://www.w3.org/Graphics/SVG/1.1/DTD/svg11.dtd">
<!-- Generated by graphviz version 2.43.0 (0)
 -->
<!-- Title: dependency&#45;cruiser output Pages: 1 -->
<svg width="774pt" height="1086pt"
 viewBox="0.00 0.00 773.94 1086.03" xmlns="http://www.w3.org/2000/svg" xmlns:xlink="http://www.w3.org/1999/xlink">
<g id="graph0" class="graph" transform="scale(1 1) rotate(0) translate(4 1082.03)">
<title>dependency&#45;cruiser output</title>
<polygon fill="white" stroke="transparent" points="-4,4 -4,-1082.03 769.94,-1082.03 769.94,4 -4,4"/>
<g id="clust1" class="cluster">
<title>cluster_packages</title>
<path fill="#ffffff" stroke="black" stroke-width="2" d="M12,0C12,0 753.94,0 753.94,0 759.94,0 765.94,-6 765.94,-12 765.94,-12 765.94,-1066.03 765.94,-1066.03 765.94,-1072.03 759.94,-1078.03 753.94,-1078.03 753.94,-1078.03 12,-1078.03 12,-1078.03 6,-1078.03 0,-1072.03 0,-1066.03 0,-1066.03 0,-12 0,-12 0,-6 6,0 12,0"/>
<text text-anchor="middle" x="382.97" y="-1066.83" font-family="Helvetica,sans-Serif" font-weight="bold" font-size="9.00">packages</text>
</g>
<!-- packages/UI/spectrogram/index.ts -->
<g id="node1" class="node">
<title>packages/UI/spectrogram/index.ts</title>
<g id="a_node1"><a xlink:href="packages/UI/spectrogram/index.ts" xlink:title="index.ts">
<path fill="#ddfeff" stroke="black" d="M488.86,-1078.03C488.86,-1078.03 446.86,-1078.03 446.86,-1078.03 443.86,-1078.03 440.86,-1075.03 440.86,-1072.03 440.86,-1072.03 440.86,-1066.03 440.86,-1066.03 440.86,-1063.03 443.86,-1060.03 446.86,-1060.03 446.86,-1060.03 488.86,-1060.03 488.86,-1060.03 491.86,-1060.03 494.86,-1063.03 494.86,-1066.03 494.86,-1066.03 494.86,-1072.03 494.86,-1072.03 494.86,-1075.03 491.86,-1078.03 488.86,-1078.03"/>
<text text-anchor="start" x="449.36" y="-1066.83" font-family="Helvetica,sans-Serif" font-size="9.00">index.ts</text>
</a>
</g>
</g>
<!-- packages/UI/spectrogram/src/index.ts -->
<g id="node2" class="node">
<title>packages/UI/spectrogram/src/index.ts</title>
<g id="a_node2"><a xlink:href="packages/UI/spectrogram/src/index.ts" xlink:title="index.ts">
<path fill="#ddfeff" stroke="black" d="M497.7,-931.95C497.7,-931.95 455.7,-931.95 455.7,-931.95 452.7,-931.95 449.7,-928.95 449.7,-925.95 449.7,-925.95 449.7,-919.95 449.7,-919.95 449.7,-916.95 452.7,-913.95 455.7,-913.95 455.7,-913.95 497.7,-913.95 497.7,-913.95 500.7,-913.95 503.7,-916.95 503.7,-919.95 503.7,-919.95 503.7,-925.95 503.7,-925.95 503.7,-928.95 500.7,-931.95 497.7,-931.95"/>
<text text-anchor="start" x="458.2" y="-920.75" font-family="Helvetica,sans-Serif" font-size="9.00">index.ts</text>
</a>
</g>
</g>
<!-- packages/UI/spectrogram/index.ts&#45;&gt;packages/UI/spectrogram/src/index.ts -->
<g id="edge1" class="edge">
<title>packages/UI/spectrogram/index.ts&#45;&gt;packages/UI/spectrogram/src/index.ts</title>
<path fill="none" stroke="#000000" stroke-width="2" stroke-opacity="0.200000" d="M468.41,-1059.89C469.89,-1035.5 473.94,-968.67 475.77,-938.31"/>
<polygon fill="#000000" fill-opacity="0.200000" stroke="#000000" stroke-width="2" stroke-opacity="0.200000" points="478.25,-932.21 475.79,-938.08 474.05,-931.96 478.25,-932.21"/>
</g>
<!-- packages/UI/spectrogram/src/audio&#45;viewer.ts -->
<g id="node10" class="node">
<title>packages/UI/spectrogram/src/audio&#45;viewer.ts</title>
<g id="a_node10"><a xlink:href="packages/UI/spectrogram/src/audio-viewer.ts" xlink:title="audio&#45;viewer.ts">
<path fill="#ddfeff" stroke="black" d="M564.26,-761.47C564.26,-761.47 491.26,-761.47 491.26,-761.47 488.26,-761.47 485.26,-758.47 485.26,-755.47 485.26,-755.47 485.26,-749.47 485.26,-749.47 485.26,-746.47 488.26,-743.47 491.26,-743.47 491.26,-743.47 564.26,-743.47 564.26,-743.47 567.26,-743.47 570.26,-746.47 570.26,-749.47 570.26,-749.47 570.26,-755.47 570.26,-755.47 570.26,-758.47 567.26,-761.47 564.26,-761.47"/>
<text text-anchor="start" x="493.26" y="-750.27" font-family="Helvetica,sans-Serif" font-size="9.00">audio&#45;viewer.ts</text>
</a>
</g>
</g>
<!-- packages/UI/spectrogram/src/index.ts&#45;&gt;packages/UI/spectrogram/src/audio&#45;viewer.ts -->
<g id="edge17" class="edge">
<title>packages/UI/spectrogram/src/index.ts&#45;&gt;packages/UI/spectrogram/src/audio&#45;viewer.ts</title>
<path fill="none" stroke="#000000" stroke-width="2" stroke-opacity="0.200000" d="M479.45,-913.79C487.79,-885.92 512.92,-802.01 523.25,-767.52"/>
<polygon fill="#000000" fill-opacity="0.200000" stroke="#000000" stroke-width="2" stroke-opacity="0.200000" points="527.01,-762.28 523.28,-767.43 522.99,-761.08 527.01,-762.28"/>
</g>
<!-- packages/UI/spectrogram/src/audio&#45;analyzer/audio&#45;analyzer.ts -->
<g id="node3" class="node">
<title>packages/UI/spectrogram/src/audio&#45;analyzer/audio&#45;analyzer.ts</title>
<g id="a_node3"><a xlink:href="packages/UI/spectrogram/src/audio-analyzer/audio-analyzer.ts" xlink:title="audio&#45;analyzer.ts">
<path fill="#ddfeff" stroke="black" d="M299.53,-585.75C299.53,-585.75 218.53,-585.75 218.53,-585.75 215.53,-585.75 212.53,-582.75 212.53,-579.75 212.53,-579.75 212.53,-573.75 212.53,-573.75 212.53,-570.75 215.53,-567.75 218.53,-567.75 218.53,-567.75 299.53,-567.75 299.53,-567.75 302.53,-567.75 305.53,-570.75 305.53,-573.75 305.53,-573.75 305.53,-579.75 305.53,-579.75 305.53,-582.75 302.53,-585.75 299.53,-585.75"/>
<text text-anchor="start" x="220.53" y="-574.55" font-family="Helvetica,sans-Serif" font-size="9.00">audio&#45;analyzer.ts</text>
</a>
</g>
</g>
<!-- packages/UI/spectrogram/src/audio&#45;analyzer/connect.ts -->
<g id="node4" class="node">
<title>packages/UI/spectrogram/src/audio&#45;analyzer/connect.ts</title>
<g id="a_node4"><a xlink:href="packages/UI/spectrogram/src/audio-analyzer/connect.ts" xlink:title="connect.ts">
<path fill="#ddfeff" stroke="black" d="M153.3,-689.42C153.3,-689.42 100.3,-689.42 100.3,-689.42 97.3,-689.42 94.3,-686.42 94.3,-683.42 94.3,-683.42 94.3,-677.42 94.3,-677.42 94.3,-674.42 97.3,-671.42 100.3,-671.42 100.3,-671.42 153.3,-671.42 153.3,-671.42 156.3,-671.42 159.3,-674.42 159.3,-677.42 159.3,-677.42 159.3,-683.42 159.3,-683.42 159.3,-686.42 156.3,-689.42 153.3,-689.42"/>
<text text-anchor="start" x="102.3" y="-678.22" font-family="Helvetica,sans-Serif" font-size="9.00">connect.ts</text>
</a>
</g>
</g>
<!-- packages/UI/spectrogram/src/audio&#45;analyzer/audio&#45;analyzer.ts&#45;&gt;packages/UI/spectrogram/src/audio&#45;analyzer/connect.ts -->
<g id="edge2" class="edge">
<title>packages/UI/spectrogram/src/audio&#45;analyzer/audio&#45;analyzer.ts&#45;&gt;packages/UI/spectrogram/src/audio&#45;analyzer/connect.ts</title>
<path fill="none" stroke="#000000" stroke-width="2" stroke-opacity="0.200000" d="M247.3,-585.95C223.61,-604.51 170.06,-646.5 143.04,-667.69"/>
<polygon fill="#000000" fill-opacity="0.200000" stroke="#000000" stroke-width="2" stroke-opacity="0.200000" points="141.74,-666.04 138.32,-671.39 144.34,-669.34 141.74,-666.04"/>
</g>
<!-- packages/UI/spectrogram/src/audio&#45;analyzer/get&#45;data&#45;on&#45;buffer.ts -->
<g id="node5" class="node">
<title>packages/UI/spectrogram/src/audio&#45;analyzer/get&#45;data&#45;on&#45;buffer.ts</title>
<g id="a_node5"><a xlink:href="packages/UI/spectrogram/src/audio-analyzer/get-data-on-buffer.ts" xlink:title="get&#45;data&#45;on&#45;buffer.ts">
<path fill="#ddfeff" stroke="black" d="M189.51,-531.17C189.51,-531.17 91.51,-531.17 91.51,-531.17 88.51,-531.17 85.51,-528.17 85.51,-525.17 85.51,-525.17 85.51,-519.17 85.51,-519.17 85.51,-516.17 88.51,-513.17 91.51,-513.17 91.51,-513.17 189.51,-513.17 189.51,-513.17 192.51,-513.17 195.51,-516.17 195.51,-519.17 195.51,-519.17 195.51,-525.17 195.51,-525.17 195.51,-528.17 192.51,-531.17 189.51,-531.17"/>
<text text-anchor="start" x="93.51" y="-519.97" font-family="Helvetica,sans-Serif" font-size="9.00">get&#45;data&#45;on&#45;buffer.ts</text>
</a>
</g>
</g>
<!-- packages/UI/spectrogram/src/audio&#45;analyzer/audio&#45;analyzer.ts&#45;&gt;packages/UI/spectrogram/src/audio&#45;analyzer/get&#45;data&#45;on&#45;buffer.ts -->
<g id="edge3" class="edge">
<title>packages/UI/spectrogram/src/audio&#45;analyzer/audio&#45;analyzer.ts&#45;&gt;packages/UI/spectrogram/src/audio&#45;analyzer/get&#45;data&#45;on&#45;buffer.ts</title>
<path fill="none" stroke="#000000" stroke-width="2" stroke-opacity="0.200000" d="M239.46,-567.73C219.3,-558.45 187.8,-543.95 165.77,-533.8"/>
<polygon fill="#000000" fill-opacity="0.200000" stroke="#000000" stroke-width="2" stroke-opacity="0.200000" points="166.44,-531.8 160.11,-531.2 164.68,-535.61 166.44,-531.8"/>
</g>
<!-- packages/UI/spectrogram/src/audio&#45;analyzer/get&#45;fft.ts -->
<g id="node6" class="node">
<title>packages/UI/spectrogram/src/audio&#45;analyzer/get&#45;fft.ts</title>
<g id="a_node6"><a xlink:href="packages/UI/spectrogram/src/audio-analyzer/get-fft.ts" xlink:title="get&#45;fft.ts">
<path fill="#ddfeff" stroke="black" d="M244.18,-432.98C244.18,-432.98 200.18,-432.98 200.18,-432.98 197.18,-432.98 194.18,-429.98 194.18,-426.98 194.18,-426.98 194.18,-420.98 194.18,-420.98 194.18,-417.98 197.18,-414.98 200.18,-414.98 200.18,-414.98 244.18,-414.98 244.18,-414.98 247.18,-414.98 250.18,-417.98 250.18,-420.98 250.18,-420.98 250.18,-426.98 250.18,-426.98 250.18,-429.98 247.18,-432.98 244.18,-432.98"/>
<text text-anchor="start" x="202.18" y="-421.78" font-family="Helvetica,sans-Serif" font-size="9.00">get&#45;fft.ts</text>
</a>
</g>
</g>
<!-- packages/UI/spectrogram/src/audio&#45;analyzer/audio&#45;analyzer.ts&#45;&gt;packages/UI/spectrogram/src/audio&#45;analyzer/get&#45;fft.ts -->
<g id="edge4" class="edge">
<title>packages/UI/spectrogram/src/audio&#45;analyzer/audio&#45;analyzer.ts&#45;&gt;packages/UI/spectrogram/src/audio&#45;analyzer/get&#45;fft.ts</title>
<path fill="none" stroke="#000000" stroke-width="2" stroke-opacity="0.200000" d="M256.84,-567.65C250.73,-542.34 233.5,-470.91 225.88,-439.33"/>
<polygon fill="#000000" fill-opacity="0.200000" stroke="#000000" stroke-width="2" stroke-opacity="0.200000" points="227.86,-438.56 224.41,-433.22 223.77,-439.55 227.86,-438.56"/>
</g>
<!-- packages/UI/spectrogram/src/audio&#45;analyzer/get&#45;fft.ts&#45;&gt;packages/UI/spectrogram/src/audio&#45;analyzer/get&#45;data&#45;on&#45;buffer.ts -->
<g id="edge5" class="edge">
<title>packages/UI/spectrogram/src/audio&#45;analyzer/get&#45;fft.ts&#45;&gt;packages/UI/spectrogram/src/audio&#45;analyzer/get&#45;data&#45;on&#45;buffer.ts</title>
<path fill="none" stroke="#000000" stroke-width="2" stroke-opacity="0.200000" d="M214.64,-433.04C200.3,-450.29 169,-487.92 152.02,-508.33"/>
<polygon fill="#000000" fill-opacity="0.200000" stroke="#000000" stroke-width="2" stroke-opacity="0.200000" points="150.25,-507.18 148.03,-513.13 153.48,-509.86 150.25,-507.18"/>
</g>
<!-- packages/util/math/fft/array/index.ts -->
<g id="node8" class="node">
<title>packages/util/math/fft/array/index.ts</title>
<g id="a_node8"><a xlink:href="packages/util/math/fft/array/index.ts" xlink:title="index.ts">
<path fill="#ddfeff" stroke="black" d="M183.07,-297.84C183.07,-297.84 141.07,-297.84 141.07,-297.84 138.07,-297.84 135.07,-294.84 135.07,-291.84 135.07,-291.84 135.07,-285.84 135.07,-285.84 135.07,-282.84 138.07,-279.84 141.07,-279.84 141.07,-279.84 183.07,-279.84 183.07,-279.84 186.07,-279.84 189.07,-282.84 189.07,-285.84 189.07,-285.84 189.07,-291.84 189.07,-291.84 189.07,-294.84 186.07,-297.84 183.07,-297.84"/>
<text text-anchor="start" x="143.57" y="-286.64" font-family="Helvetica,sans-Serif" font-size="9.00">index.ts</text>
</a>
</g>
</g>
<!-- packages/UI/spectrogram/src/audio&#45;analyzer/get&#45;fft.ts&#45;&gt;packages/util/math/fft/array/index.ts -->
<g id="edge6" class="edge">
<title>packages/UI/spectrogram/src/audio&#45;analyzer/get&#45;fft.ts&#45;&gt;packages/util/math/fft/array/index.ts</title>
<path fill="none" stroke="#000000" stroke-width="2" stroke-opacity="0.200000" d="M218.05,-414.69C207.84,-391.74 181.34,-332.17 168.82,-304.01"/>
<polygon fill="#000000" fill-opacity="0.200000" stroke="#000000" stroke-width="2" stroke-opacity="0.200000" points="170.59,-302.82 166.23,-298.19 166.75,-304.53 170.59,-302.82"/>
</g>
<!-- packages/UI/spectrogram/src/audio&#45;analyzer/cosine&#45;window.ts -->
<g id="node7" class="node">
<title>packages/UI/spectrogram/src/audio&#45;analyzer/cosine&#45;window.ts</title>
<g id="a_node7"><a xlink:href="packages/UI/spectrogram/src/audio-analyzer/cosine-window.ts" xlink:title="no&#45;orphans">
<path fill="#ccffcc" stroke="orange" d="M507,-508C507,-508 426,-508 426,-508 423,-508 420,-505 420,-502 420,-502 420,-496 420,-496 420,-493 423,-490 426,-490 426,-490 507,-490 507,-490 510,-490 513,-493 513,-496 513,-496 513,-502 513,-502 513,-505 510,-508 507,-508"/>
<text text-anchor="start" x="428" y="-496.8" font-family="Helvetica,sans-Serif" font-size="9.00" fill="orange">cosine&#45;window.ts</text>
</a>
</g>
</g>
<!-- packages/util/math/fft/array/complex.ts -->
<g id="node17" class="node">
<title>packages/util/math/fft/array/complex.ts</title>
<g id="a_node17"><a xlink:href="packages/util/math/fft/array/complex.ts" xlink:title="complex.ts">
<path fill="#ddfeff" stroke="black" d="M60,-233.96C60,-233.96 6,-233.96 6,-233.96 3,-233.96 0,-230.96 0,-227.96 0,-227.96 0,-221.96 0,-221.96 0,-218.96 3,-215.96 6,-215.96 6,-215.96 60,-215.96 60,-215.96 63,-215.96 66,-218.96 66,-221.96 66,-221.96 66,-227.96 66,-227.96 66,-230.96 63,-233.96 60,-233.96"/>
<text text-anchor="start" x="8" y="-222.76" font-family="Helvetica,sans-Serif" font-size="9.00">complex.ts</text>
</a>
</g>
</g>
<!-- packages/util/math/fft/array/index.ts&#45;&gt;packages/util/math/fft/array/complex.ts -->
<g id="edge26" class="edge">
<title>packages/util/math/fft/array/index.ts&#45;&gt;packages/util/math/fft/array/complex.ts</title>
<path fill="none" stroke="#000000" stroke-width="2" stroke-opacity="0.200000" d="M143.85,-279.82C121.11,-268.57 82.15,-249.29 57,-236.84"/>
<polygon fill="#000000" fill-opacity="0.200000" stroke="#000000" stroke-width="2" stroke-opacity="0.200000" points="57.85,-234.92 51.54,-234.14 55.99,-238.68 57.85,-234.92"/>
</g>
<!-- packages/util/math/fft/array/ftt&#45;core.ts -->
<g id="node18" class="node">
<title>packages/util/math/fft/array/ftt&#45;core.ts</title>
<g id="a_node18"><a xlink:href="packages/util/math/fft/array/ftt-core.ts" xlink:title="ftt&#45;core.ts">
<path fill="#ddfeff" stroke="black" d="M169.07,-158.68C169.07,-158.68 120.07,-158.68 120.07,-158.68 117.07,-158.68 114.07,-155.68 114.07,-152.68 114.07,-152.68 114.07,-146.68 114.07,-146.68 114.07,-143.68 117.07,-140.68 120.07,-140.68 120.07,-140.68 169.07,-140.68 169.07,-140.68 172.07,-140.68 175.07,-143.68 175.07,-146.68 175.07,-146.68 175.07,-152.68 175.07,-152.68 175.07,-155.68 172.07,-158.68 169.07,-158.68"/>
<text text-anchor="start" x="122.07" y="-147.48" font-family="Helvetica,sans-Serif" font-size="9.00">ftt&#45;core.ts</text>
</a>
</g>
</g>
<!-- packages/util/math/fft/array/index.ts&#45;&gt;packages/util/math/fft/array/ftt&#45;core.ts -->
<g id="edge27" class="edge">
<title>packages/util/math/fft/array/index.ts&#45;&gt;packages/util/math/fft/array/ftt&#45;core.ts</title>
<path fill="none" stroke="#000000" stroke-width="2" stroke-opacity="0.200000" d="M160.92,-279.71C157.98,-256.32 150.15,-194.07 146.49,-165.02"/>
<polygon fill="#000000" fill-opacity="0.200000" stroke="#000000" stroke-width="2" stroke-opacity="0.200000" points="148.57,-164.72 145.74,-159.03 144.41,-165.24 148.57,-164.72"/>
</g>
<!-- packages/UI/spectrogram/src/audio&#45;analyzer/index.ts -->
<g id="node9" class="node">
<title>packages/UI/spectrogram/src/audio&#45;analyzer/index.ts</title>
<g id="a_node9"><a xlink:href="packages/UI/spectrogram/src/audio-analyzer/index.ts" xlink:title="index.ts">
<path fill="#ddfeff" stroke="black" d="M419.14,-651.24C419.14,-651.24 377.14,-651.24 377.14,-651.24 374.14,-651.24 371.14,-648.24 371.14,-645.24 371.14,-645.24 371.14,-639.24 371.14,-639.24 371.14,-636.24 374.14,-633.24 377.14,-633.24 377.14,-633.24 419.14,-633.24 419.14,-633.24 422.14,-633.24 425.14,-636.24 425.14,-639.24 425.14,-639.24 425.14,-645.24 425.14,-645.24 425.14,-648.24 422.14,-651.24 419.14,-651.24"/>
<text text-anchor="start" x="379.64" y="-640.04" font-family="Helvetica,sans-Serif" font-size="9.00">index.ts</text>
</a>
</g>
</g>
<!-- packages/UI/spectrogram/src/audio&#45;analyzer/index.ts&#45;&gt;packages/UI/spectrogram/src/audio&#45;analyzer/audio&#45;analyzer.ts -->
<g id="edge7" class="edge">
<title>packages/UI/spectrogram/src/audio&#45;analyzer/index.ts&#45;&gt;packages/UI/spectrogram/src/audio&#45;analyzer/audio&#45;analyzer.ts</title>
<path fill="none" stroke="#000000" stroke-width="2" stroke-opacity="0.200000" d="M378.8,-633.13C353.99,-621.45 310.92,-601.17 283.75,-588.38"/>
<polygon fill="#000000" fill-opacity="0.200000" stroke="#000000" stroke-width="2" stroke-opacity="0.200000" points="279.1,-583.87 283.64,-588.33 277.32,-587.67 279.1,-583.87"/>
</g>
<!-- packages/UI/spectrogram/src/audio&#45;viewer.ts&#45;&gt;packages/UI/spectrogram/src/audio&#45;analyzer/index.ts -->
<g id="edge8" class="edge">
<title>packages/UI/spectrogram/src/audio&#45;viewer.ts&#45;&gt;packages/UI/spectrogram/src/audio&#45;analyzer/index.ts</title>
<path fill="none" stroke="#000000" stroke-width="2" stroke-opacity="0.200000" d="M517.15,-743.45C494.27,-723.99 440.2,-678 413.54,-655.33"/>
<polygon fill="#000000" fill-opacity="0.200000" stroke="#000000" stroke-width="2" stroke-opacity="0.200000" points="414.83,-653.67 408.9,-651.38 412.11,-656.87 414.83,-653.67"/>
</g>
<!-- packages/UI/spectrogram/src/fft&#45;viewer.ts -->
<g id="node11" class="node">
<title>packages/UI/spectrogram/src/fft&#45;viewer.ts</title>
<g id="a_node11"><a xlink:href="packages/UI/spectrogram/src/fft-viewer.ts" xlink:title="fft&#45;viewer.ts">
<path fill="#ddfeff" stroke="black" d="M538.13,-684.3C538.13,-684.3 481.13,-684.3 481.13,-684.3 478.13,-684.3 475.13,-681.3 475.13,-678.3 475.13,-678.3 475.13,-672.3 475.13,-672.3 475.13,-669.3 478.13,-666.3 481.13,-666.3 481.13,-666.3 538.13,-666.3 538.13,-666.3 541.13,-666.3 544.13,-669.3 544.13,-672.3 544.13,-672.3 544.13,-678.3 544.13,-678.3 544.13,-681.3 541.13,-684.3 538.13,-684.3"/>
<text text-anchor="start" x="483.13" y="-673.1" font-family="Helvetica,sans-Serif" font-size="9.00">fft&#45;viewer.ts</text>
</a>
</g>
</g>
<!-- packages/UI/spectrogram/src/audio&#45;viewer.ts&#45;&gt;packages/UI/spectrogram/src/fft&#45;viewer.ts -->
<g id="edge9" class="edge">
<title>packages/UI/spectrogram/src/audio&#45;viewer.ts&#45;&gt;packages/UI/spectrogram/src/fft&#45;viewer.ts</title>
<path fill="none" stroke="#000000" stroke-width="2" stroke-opacity="0.200000" d="M525.61,-743.31C522.55,-730.32 516.92,-706.36 513.23,-690.62"/>
<polygon fill="#000000" fill-opacity="0.200000" stroke="#000000" stroke-width="2" stroke-opacity="0.200000" points="515.19,-689.8 511.77,-684.44 511.1,-690.76 515.19,-689.8"/>
</g>
<!-- packages/UI/spectrogram/src/spectrogram&#45;viewer.ts -->
<g id="node12" class="node">
<title>packages/UI/spectrogram/src/spectrogram&#45;viewer.ts</title>
<g id="a_node12"><a xlink:href="packages/UI/spectrogram/src/spectrogram-viewer.ts" xlink:title="spectrogram&#45;viewer.ts">
<path fill="#ddfeff" stroke="black" d="M590.89,-592.59C590.89,-592.59 485.89,-592.59 485.89,-592.59 482.89,-592.59 479.89,-589.59 479.89,-586.59 479.89,-586.59 479.89,-580.59 479.89,-580.59 479.89,-577.59 482.89,-574.59 485.89,-574.59 485.89,-574.59 590.89,-574.59 590.89,-574.59 593.89,-574.59 596.89,-577.59 596.89,-580.59 596.89,-580.59 596.89,-586.59 596.89,-586.59 596.89,-589.59 593.89,-592.59 590.89,-592.59"/>
<text text-anchor="start" x="487.89" y="-581.39" font-family="Helvetica,sans-Serif" font-size="9.00">spectrogram&#45;viewer.ts</text>
</a>
</g>
</g>
<!-- packages/UI/spectrogram/src/audio&#45;viewer.ts&#45;&gt;packages/UI/spectrogram/src/spectrogram&#45;viewer.ts -->
<g id="edge10" class="edge">
<title>packages/UI/spectrogram/src/audio&#45;viewer.ts&#45;&gt;packages/UI/spectrogram/src/spectrogram&#45;viewer.ts</title>
<path fill="none" stroke="#000000" stroke-width="2" stroke-opacity="0.200000" d="M528.33,-743.39C530.06,-715.9 535.26,-633.35 537.43,-598.93"/>
<polygon fill="#000000" fill-opacity="0.200000" stroke="#000000" stroke-width="2" stroke-opacity="0.200000" points="539.54,-598.83 537.82,-592.71 535.35,-598.57 539.54,-598.83"/>
</g>
<!-- packages/UI/spectrogram/src/wave&#45;viewer.ts -->
<g id="node13" class="node">
<title>packages/UI/spectrogram/src/wave&#45;viewer.ts</title>
<g id="a_node13"><a xlink:href="packages/UI/spectrogram/src/wave-viewer.ts" xlink:title="wave&#45;viewer.ts">
<path fill="#ddfeff" stroke="black" d="M471.25,-775.82C471.25,-775.82 400.25,-775.82 400.25,-775.82 397.25,-775.82 394.25,-772.82 394.25,-769.82 394.25,-769.82 394.25,-763.82 394.25,-763.82 394.25,-760.82 397.25,-757.82 400.25,-757.82 400.25,-757.82 471.25,-757.82 471.25,-757.82 474.25,-757.82 477.25,-760.82 477.25,-763.82 477.25,-763.82 477.25,-769.82 477.25,-769.82 477.25,-772.82 474.25,-775.82 471.25,-775.82"/>
<text text-anchor="start" x="402.25" y="-764.62" font-family="Helvetica,sans-Serif" font-size="9.00">wave&#45;viewer.ts</text>
</a>
</g>
</g>
<!-- packages/UI/spectrogram/src/audio&#45;viewer.ts&#45;&gt;packages/UI/spectrogram/src/wave&#45;viewer.ts -->
<g id="edge11" class="edge">
<title>packages/UI/spectrogram/src/audio&#45;viewer.ts&#45;&gt;packages/UI/spectrogram/src/wave&#45;viewer.ts</title>
<path fill="none" stroke="#000000" stroke-width="2" stroke-opacity="0.200000" d="M485.25,-759.1C484.59,-759.2 483.93,-759.3 483.27,-759.41"/>
<polygon fill="#000000" fill-opacity="0.200000" stroke="#000000" stroke-width="2" stroke-opacity="0.200000" points="482.94,-757.33 477.33,-760.33 483.58,-761.48 482.94,-757.33"/>
</g>
<!-- packages/UI/view/src/reflectable/audio&#45;reflectable.ts -->
<g id="node14" class="node">
<title>packages/UI/view/src/reflectable/audio&#45;reflectable.ts</title>
<g id="a_node14"><a xlink:href="packages/UI/view/src/reflectable/audio-reflectable.ts" xlink:title="audio&#45;reflectable.ts">
<path fill="#ddfeff" stroke="black" d="M667.03,-692.65C667.03,-692.65 575.03,-692.65 575.03,-692.65 572.03,-692.65 569.03,-689.65 569.03,-686.65 569.03,-686.65 569.03,-680.65 569.03,-680.65 569.03,-677.65 572.03,-674.65 575.03,-674.65 575.03,-674.65 667.03,-674.65 667.03,-674.65 670.03,-674.65 673.03,-677.65 673.03,-680.65 673.03,-680.65 673.03,-686.65 673.03,-686.65 673.03,-689.65 670.03,-692.65 667.03,-692.65"/>
<text text-anchor="start" x="577.03" y="-681.45" font-family="Helvetica,sans-Serif" font-size="9.00">audio&#45;reflectable.ts</text>
</a>
</g>
</g>
<!-- packages/UI/spectrogram/src/audio&#45;viewer.ts&#45;&gt;packages/UI/view/src/reflectable/audio&#45;reflectable.ts -->
<g id="edge12" class="edge">
<title>packages/UI/spectrogram/src/audio&#45;viewer.ts&#45;&gt;packages/UI/view/src/reflectable/audio&#45;reflectable.ts</title>
<path fill="none" stroke="#000000" stroke-width="2" stroke-opacity="0.200000" d="M540.34,-743.19C556.7,-731.11 585.36,-709.97 603.75,-696.39"/>
<polygon fill="#000000" fill-opacity="0.200000" stroke="#000000" stroke-width="2" stroke-opacity="0.200000" points="605.07,-698.03 608.65,-692.78 602.58,-694.65 605.07,-698.03"/>
</g>
<!-- packages/UI/view/src/reflectable/audio&#45;reflectable&#45;registry.ts -->
<g id="node15" class="node">
<title>packages/UI/view/src/reflectable/audio&#45;reflectable&#45;registry.ts</title>
<g id="a_node15"><a xlink:href="packages/UI/view/src/reflectable/audio-reflectable-registry.ts" xlink:title="audio&#45;reflectable&#45;registry.ts">
<path fill="#ddfeff" stroke="black" d="M759.94,-773.76C759.94,-773.76 631.94,-773.76 631.94,-773.76 628.94,-773.76 625.94,-770.76 625.94,-767.76 625.94,-767.76 625.94,-761.76 625.94,-761.76 625.94,-758.76 628.94,-755.76 631.94,-755.76 631.94,-755.76 759.94,-755.76 759.94,-755.76 762.94,-755.76 765.94,-758.76 765.94,-761.76 765.94,-761.76 765.94,-767.76 765.94,-767.76 765.94,-770.76 762.94,-773.76 759.94,-773.76"/>
<text text-anchor="start" x="633.94" y="-762.56" font-family="Helvetica,sans-Serif" font-size="9.00">audio&#45;reflectable&#45;registry.ts</text>
</a>
</g>
</g>
<!-- packages/UI/spectrogram/src/audio&#45;viewer.ts&#45;&gt;packages/UI/view/src/reflectable/audio&#45;reflectable&#45;registry.ts -->
<g id="edge13" class="edge">
<title>packages/UI/spectrogram/src/audio&#45;viewer.ts&#45;&gt;packages/UI/view/src/reflectable/audio&#45;reflectable&#45;registry.ts</title>
<path fill="none" stroke="#000000" stroke-width="2" stroke-opacity="0.200000" d="M570.63,-755.6C585.54,-756.69 602.74,-757.95 619.53,-759.18"/>
<polygon fill="#000000" fill-opacity="0.200000" stroke="#000000" stroke-width="2" stroke-opacity="0.200000" points="619.56,-761.29 625.7,-759.63 619.87,-757.1 619.56,-761.29"/>
</g>
<!-- packages/UI/spectrogram/src/fft&#45;viewer.ts&#45;&gt;packages/UI/spectrogram/src/audio&#45;analyzer/index.ts -->
<g id="edge14" class="edge">
<title>packages/UI/spectrogram/src/fft&#45;viewer.ts&#45;&gt;packages/UI/spectrogram/src/audio&#45;analyzer/index.ts</title>
<path fill="none" stroke="#000000" stroke-width="2" stroke-opacity="0.200000" d="M479.16,-666.26C464.25,-661.84 446.28,-656.51 431.05,-652"/>
<polygon fill="#000000" fill-opacity="0.200000" stroke="#000000" stroke-width="2" stroke-opacity="0.200000" points="431.5,-649.94 425.15,-650.25 430.3,-653.96 431.5,-649.94"/>
</g>
<!-- packages/UI/spectrogram/src/fft&#45;viewer.ts&#45;&gt;packages/UI/view/src/reflectable/audio&#45;reflectable.ts -->
<g id="edge16" class="edge">
<title>packages/UI/spectrogram/src/fft&#45;viewer.ts&#45;&gt;packages/UI/view/src/reflectable/audio&#45;reflectable.ts</title>
<path fill="none" stroke="#000000" stroke-width="2" stroke-opacity="0.200000" d="M544.27,-677.89C550.11,-678.33 556.32,-678.8 562.57,-679.26"/>
<polygon fill="#000000" fill-opacity="0.200000" stroke="#000000" stroke-width="2" stroke-opacity="0.200000" points="562.69,-681.38 568.83,-679.73 563,-677.19 562.69,-681.38"/>
</g>
<!-- packages/util/math/dist/index.js -->
<g id="node16" class="node">
<title>packages/util/math/dist/index.js</title>
<g id="a_node16"><a xlink:href="packages/util/math/dist/index.js" xlink:title="index.js">
<polygon fill="#ffffcc" stroke="black" points="578.67,-862.8 577.17,-864.8 566.67,-864.8 565.17,-862.8 524.67,-862.8 524.67,-844.8 578.67,-844.8 578.67,-862.8"/>
<text text-anchor="start" x="534.17" y="-851.6" font-family="Helvetica,sans-Serif" font-size="9.00">index.js</text>
</a>
</g>
</g>
<!-- packages/UI/spectrogram/src/fft&#45;viewer.ts&#45;&gt;packages/util/math/dist/index.js -->
<g id="edge15" class="edge">
<title>packages/UI/spectrogram/src/fft&#45;viewer.ts&#45;&gt;packages/util/math/dist/index.js</title>
<path fill="none" stroke="#000000" stroke-width="2" stroke-opacity="0.200000" d="M511.77,-684.39C518.54,-713.15 539.55,-802.33 548.05,-838.41"/>
<polygon fill="#000000" fill-opacity="0.200000" stroke="#000000" stroke-width="2" stroke-opacity="0.200000" points="546.06,-839.15 549.48,-844.5 550.15,-838.18 546.06,-839.15"/>
</g>
<!-- packages/UI/spectrogram/src/spectrogram&#45;viewer.ts&#45;&gt;packages/UI/spectrogram/src/audio&#45;analyzer/index.ts -->
<g id="edge18" class="edge">
<title>packages/UI/spectrogram/src/spectrogram&#45;viewer.ts&#45;&gt;packages/UI/spectrogram/src/audio&#45;analyzer/index.ts</title>
<path fill="none" stroke="#000000" stroke-width="2" stroke-opacity="0.200000" d="M516.79,-592.63C492.36,-602.84 452.51,-619.5 425.82,-630.66"/>
<polygon fill="#000000" fill-opacity="0.200000" stroke="#000000" stroke-width="2" stroke-opacity="0.200000" points="424.73,-628.84 420.01,-633.1 426.35,-632.72 424.73,-628.84"/>
</g>
<!-- packages/UI/spectrogram/src/spectrogram&#45;viewer.ts&#45;&gt;packages/UI/view/src/reflectable/audio&#45;reflectable.ts -->
<g id="edge19" class="edge">
<title>packages/UI/spectrogram/src/spectrogram&#45;viewer.ts&#45;&gt;packages/UI/view/src/reflectable/audio&#45;reflectable.ts</title>
<path fill="none" stroke="#000000" stroke-width="2" stroke-opacity="0.200000" d="M546.02,-592.82C560.53,-610.4 592.2,-648.74 609.39,-669.55"/>
<polygon fill="#000000" fill-opacity="0.200000" stroke="#000000" stroke-width="2" stroke-opacity="0.200000" points="607.98,-671.15 613.42,-674.43 611.22,-668.47 607.98,-671.15"/>
</g>
<!-- packages/UI/spectrogram/src/wave&#45;viewer.ts&#45;&gt;packages/UI/spectrogram/src/audio&#45;analyzer/index.ts -->
<g id="edge20" class="edge">
<title>packages/UI/spectrogram/src/wave&#45;viewer.ts&#45;&gt;packages/UI/spectrogram/src/audio&#45;analyzer/index.ts</title>
<path fill="none" stroke="#000000" stroke-width="2" stroke-opacity="0.200000" d="M432.92,-757.45C426.47,-736.06 410.59,-683.47 402.72,-657.39"/>
<polygon fill="#000000" fill-opacity="0.200000" stroke="#000000" stroke-width="2" stroke-opacity="0.200000" points="404.65,-656.51 400.9,-651.37 400.63,-657.72 404.65,-656.51"/>
</g>
<!-- packages/UI/spectrogram/src/wave&#45;viewer.ts&#45;&gt;packages/UI/view/src/reflectable/audio&#45;reflectable.ts -->
<g id="edge22" class="edge">
<title>packages/UI/spectrogram/src/wave&#45;viewer.ts&#45;&gt;packages/UI/view/src/reflectable/audio&#45;reflectable.ts</title>
<path fill="none" stroke="#000000" stroke-width="2" stroke-opacity="0.200000" d="M455.93,-757.76C489.76,-742.57 557.87,-712 595.16,-695.26"/>
<polygon fill="#000000" fill-opacity="0.200000" stroke="#000000" stroke-width="2" stroke-opacity="0.200000" points="596.26,-697.07 600.87,-692.69 594.54,-693.23 596.26,-697.07"/>
</g>
<!-- packages/UI/spectrogram/src/wave&#45;viewer.ts&#45;&gt;packages/util/math/dist/index.js -->
<g id="edge21" class="edge">
<title>packages/UI/spectrogram/src/wave&#45;viewer.ts&#45;&gt;packages/util/math/dist/index.js</title>
<path fill="none" stroke="#000000" stroke-width="2" stroke-opacity="0.200000" d="M448.15,-776.12C468.9,-791.69 510.67,-823.03 534.32,-840.78"/>
<polygon fill="#000000" fill-opacity="0.200000" stroke="#000000" stroke-width="2" stroke-opacity="0.200000" points="533.3,-842.63 539.36,-844.56 535.82,-839.27 533.3,-842.63"/>
</g>
<!-- packages/UI/view/src/reflectable/audio&#45;reflectable&#45;registry.ts&#45;&gt;packages/UI/view/src/reflectable/audio&#45;reflectable.ts -->
<g id="edge23" class="edge">
<title>packages/UI/view/src/reflectable/audio&#45;reflectable&#45;registry.ts&#45;&gt;packages/UI/view/src/reflectable/audio&#45;reflectable.ts</title>
<path fill="none" stroke="#000000" stroke-width="2" stroke-opacity="0.200000" d="M687.34,-755.46C674.25,-741.28 649.21,-714.16 633.93,-697.61"/>
<polygon fill="#000000" fill-opacity="0.200000" stroke="#000000" stroke-width="2" stroke-opacity="0.200000" points="635.14,-695.83 629.52,-692.84 632.05,-698.68 635.14,-695.83"/>
</g>
<!-- packages/util/math/fft/array/ftt&#45;core.ts&#45;&gt;packages/util/math/fft/array/complex.ts -->
<g id="edge24" class="edge">
<title>packages/util/math/fft/array/ftt&#45;core.ts&#45;&gt;packages/util/math/fft/array/complex.ts</title>
<path fill="none" stroke="#000000" stroke-width="2" stroke-opacity="0.200000" d="M130.88,-158.91C110.95,-172.36 73.88,-197.37 51.52,-212.46"/>
<polygon fill="#000000" fill-opacity="0.200000" stroke="#000000" stroke-width="2" stroke-opacity="0.200000" points="50.24,-210.79 46.44,-215.89 52.59,-214.27 50.24,-210.79"/>
</g>
<!-- packages/util/math/fft/array/root&#45;of&#45;unity.ts -->
<g id="node19" class="node">
<title>packages/util/math/fft/array/root&#45;of&#45;unity.ts</title>
<g id="a_node19"><a xlink:href="packages/util/math/fft/array/root-of-unity.ts" xlink:title="root&#45;of&#45;unity.ts">
<path fill="#ddfeff" stroke="black" d="M172.86,-18C172.86,-18 101.86,-18 101.86,-18 98.86,-18 95.86,-15 95.86,-12 95.86,-12 95.86,-6 95.86,-6 95.86,-3 98.86,0 101.86,0 101.86,0 172.86,0 172.86,0 175.86,0 178.86,-3 178.86,-6 178.86,-6 178.86,-12 178.86,-12 178.86,-15 175.86,-18 172.86,-18"/>
<text text-anchor="start" x="103.86" y="-6.8" font-family="Helvetica,sans-Serif" font-size="9.00">root&#45;of&#45;unity.ts</text>
</a>
</g>
</g>
<!-- packages/util/math/fft/array/ftt&#45;core.ts&#45;&gt;packages/util/math/fft/array/root&#45;of&#45;unity.ts -->
<g id="edge25" class="edge">
<title>packages/util/math/fft/array/ftt&#45;core.ts&#45;&gt;packages/util/math/fft/array/root&#45;of&#45;unity.ts</title>
<path fill="none" stroke="#000000" stroke-width="2" stroke-opacity="0.200000" d="M144.09,-140.45C142.88,-116.69 139.63,-53.27 138.13,-24.08"/>
<polygon fill="#000000" fill-opacity="0.200000" stroke="#000000" stroke-width="2" stroke-opacity="0.200000" points="140.23,-23.97 137.83,-18.08 136.03,-24.18 140.23,-23.97"/>
</g>
</g>
</svg>
