<?xml version="1.0" encoding="UTF-8" standalone="no"?>
<!DOCTYPE svg PUBLIC "-//W3C//DTD SVG 1.1//EN"
 "http://www.w3.org/Graphics/SVG/1.1/DTD/svg11.dtd">
<!-- Generated by graphviz version 2.43.0 (0)
 -->
<!-- Title: dependency&#45;cruiser output Pages: 1 -->
<svg width="833pt" height="1095pt"
 viewBox="0.00 0.00 832.76 1095.49" xmlns="http://www.w3.org/2000/svg" xmlns:xlink="http://www.w3.org/1999/xlink">
<g id="graph0" class="graph" transform="scale(1 1) rotate(0) translate(4 1091.49)">
<title>dependency&#45;cruiser output</title>
<polygon fill="white" stroke="transparent" points="-4,4 -4,-1091.49 828.76,-1091.49 828.76,4 -4,4"/>
<g id="clust1" class="cluster">
<title>cluster_packages</title>
<path fill="#ffffff" stroke="black" stroke-width="2" d="M12,0C12,0 812.76,0 812.76,0 818.76,0 824.76,-6 824.76,-12 824.76,-12 824.76,-1075.49 824.76,-1075.49 824.76,-1081.49 818.76,-1087.49 812.76,-1087.49 812.76,-1087.49 12,-1087.49 12,-1087.49 6,-1087.49 0,-1081.49 0,-1075.49 0,-1075.49 0,-12 0,-12 0,-6 6,0 12,0"/>
<text text-anchor="middle" x="412.38" y="-1076.29" font-family="Helvetica,sans-Serif" font-weight="bold" font-size="9.00">packages</text>
</g>
<!-- packages/UI/spectrogram/index.ts -->
<g id="node1" class="node">
<title>packages/UI/spectrogram/index.ts</title>
<g id="a_node1"><a xlink:href="packages/UI/spectrogram/index.ts" xlink:title="index.ts">
<path fill="#ddfeff" stroke="black" d="M591.86,-1087.49C591.86,-1087.49 549.86,-1087.49 549.86,-1087.49 546.86,-1087.49 543.86,-1084.49 543.86,-1081.49 543.86,-1081.49 543.86,-1075.49 543.86,-1075.49 543.86,-1072.49 546.86,-1069.49 549.86,-1069.49 549.86,-1069.49 591.86,-1069.49 591.86,-1069.49 594.86,-1069.49 597.86,-1072.49 597.86,-1075.49 597.86,-1075.49 597.86,-1081.49 597.86,-1081.49 597.86,-1084.49 594.86,-1087.49 591.86,-1087.49"/>
<text text-anchor="start" x="552.36" y="-1076.29" font-family="Helvetica,sans-Serif" font-size="9.00">index.ts</text>
</a>
</g>
</g>
<!-- packages/UI/spectrogram/src/index.ts -->
<g id="node2" class="node">
<title>packages/UI/spectrogram/src/index.ts</title>
<g id="a_node2"><a xlink:href="packages/UI/spectrogram/src/index.ts" xlink:title="index.ts">
<path fill="#ddfeff" stroke="black" d="M576,-933.93C576,-933.93 534,-933.93 534,-933.93 531,-933.93 528,-930.93 528,-927.93 528,-927.93 528,-921.93 528,-921.93 528,-918.93 531,-915.93 534,-915.93 534,-915.93 576,-915.93 576,-915.93 579,-915.93 582,-918.93 582,-921.93 582,-921.93 582,-927.93 582,-927.93 582,-930.93 579,-933.93 576,-933.93"/>
<text text-anchor="start" x="536.5" y="-922.73" font-family="Helvetica,sans-Serif" font-size="9.00">index.ts</text>
</a>
</g>
</g>
<!-- packages/UI/spectrogram/index.ts&#45;&gt;packages/UI/spectrogram/src/index.ts -->
<g id="edge1" class="edge">
<title>packages/UI/spectrogram/index.ts&#45;&gt;packages/UI/spectrogram/src/index.ts</title>
<path fill="none" stroke="#000000" stroke-width="2" stroke-opacity="0.200000" d="M569.92,-1069.35C567.29,-1043.91 559.87,-972.11 556.59,-940.35"/>
<polygon fill="#000000" fill-opacity="0.200000" stroke="#000000" stroke-width="2" stroke-opacity="0.200000" points="558.05,-934 556.58,-940.19 553.87,-934.43 558.05,-934"/>
</g>
<!-- packages/UI/spectrogram/src/audio&#45;viewer.ts -->
<g id="node10" class="node">
<title>packages/UI/spectrogram/src/audio&#45;viewer.ts</title>
<g id="a_node10"><a xlink:href="packages/UI/spectrogram/src/audio-viewer.ts" xlink:title="audio&#45;viewer.ts">
<path fill="#ddfeff" stroke="black" d="M593.31,-761.76C593.31,-761.76 520.31,-761.76 520.31,-761.76 517.31,-761.76 514.31,-758.76 514.31,-755.76 514.31,-755.76 514.31,-749.76 514.31,-749.76 514.31,-746.76 517.31,-743.76 520.31,-743.76 520.31,-743.76 593.31,-743.76 593.31,-743.76 596.31,-743.76 599.31,-746.76 599.31,-749.76 599.31,-749.76 599.31,-755.76 599.31,-755.76 599.31,-758.76 596.31,-761.76 593.31,-761.76"/>
<text text-anchor="start" x="522.31" y="-750.56" font-family="Helvetica,sans-Serif" font-size="9.00">audio&#45;viewer.ts</text>
</a>
</g>
</g>
<!-- packages/UI/spectrogram/src/index.ts&#45;&gt;packages/UI/spectrogram/src/audio&#45;viewer.ts -->
<g id="edge16" class="edge">
<title>packages/UI/spectrogram/src/index.ts&#45;&gt;packages/UI/spectrogram/src/audio&#45;viewer.ts</title>
<path fill="none" stroke="#000000" stroke-width="2" stroke-opacity="0.200000" d="M555.1,-915.67C555.39,-887.64 556.28,-803.49 556.65,-768.4"/>
<polygon fill="#000000" fill-opacity="0.200000" stroke="#000000" stroke-width="2" stroke-opacity="0.200000" points="558.82,-762.08 556.65,-768.06 554.62,-762.04 558.82,-762.08"/>
</g>
<!-- packages/UI/spectrogram/src/audio&#45;analyzer/audio&#45;analyzer.ts -->
<g id="node3" class="node">
<title>packages/UI/spectrogram/src/audio&#45;analyzer/audio&#45;analyzer.ts</title>
<g id="a_node3"><a xlink:href="packages/UI/spectrogram/src/audio-analyzer/audio-analyzer.ts" xlink:title="audio&#45;analyzer.ts">
<path fill="#ddfeff" stroke="black" d="M365.08,-603.94C365.08,-603.94 284.08,-603.94 284.08,-603.94 281.08,-603.94 278.08,-600.94 278.08,-597.94 278.08,-597.94 278.08,-591.94 278.08,-591.94 278.08,-588.94 281.08,-585.94 284.08,-585.94 284.08,-585.94 365.08,-585.94 365.08,-585.94 368.08,-585.94 371.08,-588.94 371.08,-591.94 371.08,-591.94 371.08,-597.94 371.08,-597.94 371.08,-600.94 368.08,-603.94 365.08,-603.94"/>
<text text-anchor="start" x="286.08" y="-592.74" font-family="Helvetica,sans-Serif" font-size="9.00">audio&#45;analyzer.ts</text>
</a>
</g>
</g>
<!-- packages/UI/spectrogram/src/audio&#45;analyzer/connect.ts -->
<g id="node4" class="node">
<title>packages/UI/spectrogram/src/audio&#45;analyzer/connect.ts</title>
<g id="a_node4"><a xlink:href="packages/UI/spectrogram/src/audio-analyzer/connect.ts" xlink:title="connect.ts">
<path fill="#ddfeff" stroke="black" d="M229.88,-734.18C229.88,-734.18 176.88,-734.18 176.88,-734.18 173.88,-734.18 170.88,-731.18 170.88,-728.18 170.88,-728.18 170.88,-722.18 170.88,-722.18 170.88,-719.18 173.88,-716.18 176.88,-716.18 176.88,-716.18 229.88,-716.18 229.88,-716.18 232.88,-716.18 235.88,-719.18 235.88,-722.18 235.88,-722.18 235.88,-728.18 235.88,-728.18 235.88,-731.18 232.88,-734.18 229.88,-734.18"/>
<text text-anchor="start" x="178.88" y="-722.98" font-family="Helvetica,sans-Serif" font-size="9.00">connect.ts</text>
</a>
</g>
</g>
<!-- packages/UI/spectrogram/src/audio&#45;analyzer/audio&#45;analyzer.ts&#45;&gt;packages/UI/spectrogram/src/audio&#45;analyzer/connect.ts -->
<g id="edge2" class="edge">
<title>packages/UI/spectrogram/src/audio&#45;analyzer/audio&#45;analyzer.ts&#45;&gt;packages/UI/spectrogram/src/audio&#45;analyzer/connect.ts</title>
<path fill="none" stroke="#000000" stroke-width="2" stroke-opacity="0.200000" d="M315.87,-604.31C294.81,-626.93 241.11,-684.64 216.3,-711.3"/>
<polygon fill="#000000" fill-opacity="0.200000" stroke="#000000" stroke-width="2" stroke-opacity="0.200000" points="214.57,-710.08 212.02,-715.9 217.64,-712.94 214.57,-710.08"/>
</g>
<!-- packages/UI/spectrogram/src/audio&#45;analyzer/get&#45;data&#45;on&#45;buffer.ts -->
<g id="node5" class="node">
<title>packages/UI/spectrogram/src/audio&#45;analyzer/get&#45;data&#45;on&#45;buffer.ts</title>
<g id="a_node5"><a xlink:href="packages/UI/spectrogram/src/audio-analyzer/get-data-on-buffer.ts" xlink:title="get&#45;data&#45;on&#45;buffer.ts">
<path fill="#ddfeff" stroke="black" d="M239.23,-563.94C239.23,-563.94 141.23,-563.94 141.23,-563.94 138.23,-563.94 135.23,-560.94 135.23,-557.94 135.23,-557.94 135.23,-551.94 135.23,-551.94 135.23,-548.94 138.23,-545.94 141.23,-545.94 141.23,-545.94 239.23,-545.94 239.23,-545.94 242.23,-545.94 245.23,-548.94 245.23,-551.94 245.23,-551.94 245.23,-557.94 245.23,-557.94 245.23,-560.94 242.23,-563.94 239.23,-563.94"/>
<text text-anchor="start" x="143.23" y="-552.74" font-family="Helvetica,sans-Serif" font-size="9.00">get&#45;data&#45;on&#45;buffer.ts</text>
</a>
</g>
</g>
<!-- packages/UI/spectrogram/src/audio&#45;analyzer/audio&#45;analyzer.ts&#45;&gt;packages/UI/spectrogram/src/audio&#45;analyzer/get&#45;data&#45;on&#45;buffer.ts -->
<g id="edge3" class="edge">
<title>packages/UI/spectrogram/src/audio&#45;analyzer/audio&#45;analyzer.ts&#45;&gt;packages/UI/spectrogram/src/audio&#45;analyzer/get&#45;data&#45;on&#45;buffer.ts</title>
<path fill="none" stroke="#000000" stroke-width="2" stroke-opacity="0.200000" d="M294.1,-585.86C274,-579.88 247.58,-572.01 226.41,-565.71"/>
<polygon fill="#000000" fill-opacity="0.200000" stroke="#000000" stroke-width="2" stroke-opacity="0.200000" points="226.94,-563.68 220.59,-563.98 225.74,-567.7 226.94,-563.68"/>
</g>
<!-- packages/UI/spectrogram/src/audio&#45;analyzer/get&#45;fft.ts -->
<g id="node6" class="node">
<title>packages/UI/spectrogram/src/audio&#45;analyzer/get&#45;fft.ts</title>
<g id="a_node6"><a xlink:href="packages/UI/spectrogram/src/audio-analyzer/get-fft.ts" xlink:title="get&#45;fft.ts">
<path fill="#ddfeff" stroke="black" d="M283.42,-447.73C283.42,-447.73 239.42,-447.73 239.42,-447.73 236.42,-447.73 233.42,-444.73 233.42,-441.73 233.42,-441.73 233.42,-435.73 233.42,-435.73 233.42,-432.73 236.42,-429.73 239.42,-429.73 239.42,-429.73 283.42,-429.73 283.42,-429.73 286.42,-429.73 289.42,-432.73 289.42,-435.73 289.42,-435.73 289.42,-441.73 289.42,-441.73 289.42,-444.73 286.42,-447.73 283.42,-447.73"/>
<text text-anchor="start" x="241.42" y="-436.53" font-family="Helvetica,sans-Serif" font-size="9.00">get&#45;fft.ts</text>
</a>
</g>
</g>
<!-- packages/UI/spectrogram/src/audio&#45;analyzer/audio&#45;analyzer.ts&#45;&gt;packages/UI/spectrogram/src/audio&#45;analyzer/get&#45;fft.ts -->
<g id="edge4" class="edge">
<title>packages/UI/spectrogram/src/audio&#45;analyzer/audio&#45;analyzer.ts&#45;&gt;packages/UI/spectrogram/src/audio&#45;analyzer/get&#45;fft.ts</title>
<path fill="none" stroke="#000000" stroke-width="2" stroke-opacity="0.200000" d="M320.82,-585.64C310.26,-559.53 280.3,-485.41 267.42,-453.57"/>
<polygon fill="#000000" fill-opacity="0.200000" stroke="#000000" stroke-width="2" stroke-opacity="0.200000" points="269.28,-452.56 265.08,-447.79 265.39,-454.14 269.28,-452.56"/>
</g>
<!-- packages/UI/spectrogram/src/audio&#45;analyzer/get&#45;fft.ts&#45;&gt;packages/UI/spectrogram/src/audio&#45;analyzer/get&#45;data&#45;on&#45;buffer.ts -->
<g id="edge5" class="edge">
<title>packages/UI/spectrogram/src/audio&#45;analyzer/get&#45;fft.ts&#45;&gt;packages/UI/spectrogram/src/audio&#45;analyzer/get&#45;data&#45;on&#45;buffer.ts</title>
<path fill="none" stroke="#000000" stroke-width="2" stroke-opacity="0.200000" d="M255.84,-447.85C243.51,-467.96 213.92,-516.26 199.06,-540.52"/>
<polygon fill="#000000" fill-opacity="0.200000" stroke="#000000" stroke-width="2" stroke-opacity="0.200000" points="197.13,-539.65 195.79,-545.86 200.71,-541.84 197.13,-539.65"/>
</g>
<!-- packages/util/math/fft/array/index.ts -->
<g id="node8" class="node">
<title>packages/util/math/fft/array/index.ts</title>
<g id="a_node8"><a xlink:href="packages/util/math/fft/array/index.ts" xlink:title="index.ts">
<path fill="#ddfeff" stroke="black" d="M198.44,-313.45C198.44,-313.45 156.44,-313.45 156.44,-313.45 153.44,-313.45 150.44,-310.45 150.44,-307.45 150.44,-307.45 150.44,-301.45 150.44,-301.45 150.44,-298.45 153.44,-295.45 156.44,-295.45 156.44,-295.45 198.44,-295.45 198.44,-295.45 201.44,-295.45 204.44,-298.45 204.44,-301.45 204.44,-301.45 204.44,-307.45 204.44,-307.45 204.44,-310.45 201.44,-313.45 198.44,-313.45"/>
<text text-anchor="start" x="158.94" y="-302.25" font-family="Helvetica,sans-Serif" font-size="9.00">index.ts</text>
</a>
</g>
</g>
<!-- packages/UI/spectrogram/src/audio&#45;analyzer/get&#45;fft.ts&#45;&gt;packages/util/math/fft/array/index.ts -->
<g id="edge6" class="edge">
<title>packages/UI/spectrogram/src/audio&#45;analyzer/get&#45;fft.ts&#45;&gt;packages/util/math/fft/array/index.ts</title>
<path fill="none" stroke="#000000" stroke-width="2" stroke-opacity="0.200000" d="M255.65,-429.5C241.33,-406.6 204.06,-347.01 186.65,-319.17"/>
<polygon fill="#000000" fill-opacity="0.200000" stroke="#000000" stroke-width="2" stroke-opacity="0.200000" points="188.22,-317.71 183.26,-313.74 184.66,-319.94 188.22,-317.71"/>
</g>
<!-- packages/UI/spectrogram/src/audio&#45;analyzer/cosine&#45;window.ts -->
<g id="node7" class="node">
<title>packages/UI/spectrogram/src/audio&#45;analyzer/cosine&#45;window.ts</title>
<g id="a_node7"><a xlink:href="packages/UI/spectrogram/src/audio-analyzer/cosine-window.ts" xlink:title="no&#45;orphans">
<path fill="#ccffcc" stroke="orange" d="M525,-456C525,-456 444,-456 444,-456 441,-456 438,-453 438,-450 438,-450 438,-444 438,-444 438,-441 441,-438 444,-438 444,-438 525,-438 525,-438 528,-438 531,-441 531,-444 531,-444 531,-450 531,-450 531,-453 528,-456 525,-456"/>
<text text-anchor="start" x="446" y="-444.8" font-family="Helvetica,sans-Serif" font-size="9.00" fill="orange">cosine&#45;window.ts</text>
</a>
</g>
</g>
<!-- packages/util/math/fft/array/complex.ts -->
<g id="node16" class="node">
<title>packages/util/math/fft/array/complex.ts</title>
<g id="a_node16"><a xlink:href="packages/util/math/fft/array/complex.ts" xlink:title="complex.ts">
<path fill="#ddfeff" stroke="black" d="M60,-261.5C60,-261.5 6,-261.5 6,-261.5 3,-261.5 0,-258.5 0,-255.5 0,-255.5 0,-249.5 0,-249.5 0,-246.5 3,-243.5 6,-243.5 6,-243.5 60,-243.5 60,-243.5 63,-243.5 66,-246.5 66,-249.5 66,-249.5 66,-255.5 66,-255.5 66,-258.5 63,-261.5 60,-261.5"/>
<text text-anchor="start" x="8" y="-250.3" font-family="Helvetica,sans-Serif" font-size="9.00">complex.ts</text>
</a>
</g>
</g>
<!-- packages/util/math/fft/array/index.ts&#45;&gt;packages/util/math/fft/array/complex.ts -->
<g id="edge24" class="edge">
<title>packages/util/math/fft/array/index.ts&#45;&gt;packages/util/math/fft/array/complex.ts</title>
<path fill="none" stroke="#000000" stroke-width="2" stroke-opacity="0.200000" d="M152.28,-295.4C127.79,-286.59 90.49,-273.18 64.14,-263.7"/>
<polygon fill="#000000" fill-opacity="0.200000" stroke="#000000" stroke-width="2" stroke-opacity="0.200000" points="64.71,-261.67 58.36,-261.62 63.29,-265.63 64.71,-261.67"/>
</g>
<!-- packages/util/math/fft/array/ftt&#45;core.ts -->
<g id="node17" class="node">
<title>packages/util/math/fft/array/ftt&#45;core.ts</title>
<g id="a_node17"><a xlink:href="packages/util/math/fft/array/ftt-core.ts" xlink:title="ftt&#45;core.ts">
<path fill="#ddfeff" stroke="black" d="M165.7,-167.67C165.7,-167.67 116.7,-167.67 116.7,-167.67 113.7,-167.67 110.7,-164.67 110.7,-161.67 110.7,-161.67 110.7,-155.67 110.7,-155.67 110.7,-152.67 113.7,-149.67 116.7,-149.67 116.7,-149.67 165.7,-149.67 165.7,-149.67 168.7,-149.67 171.7,-152.67 171.7,-155.67 171.7,-155.67 171.7,-161.67 171.7,-161.67 171.7,-164.67 168.7,-167.67 165.7,-167.67"/>
<text text-anchor="start" x="118.7" y="-156.47" font-family="Helvetica,sans-Serif" font-size="9.00">ftt&#45;core.ts</text>
</a>
</g>
</g>
<!-- packages/util/math/fft/array/index.ts&#45;&gt;packages/util/math/fft/array/ftt&#45;core.ts -->
<g id="edge25" class="edge">
<title>packages/util/math/fft/array/index.ts&#45;&gt;packages/util/math/fft/array/ftt&#45;core.ts</title>
<path fill="none" stroke="#000000" stroke-width="2" stroke-opacity="0.200000" d="M175.18,-295.33C169.1,-270.89 152.4,-203.73 144.92,-173.62"/>
<polygon fill="#000000" fill-opacity="0.200000" stroke="#000000" stroke-width="2" stroke-opacity="0.200000" points="146.95,-173.11 143.47,-167.79 142.88,-174.12 146.95,-173.11"/>
</g>
<!-- packages/UI/spectrogram/src/audio&#45;analyzer/index.ts -->
<g id="node9" class="node">
<title>packages/UI/spectrogram/src/audio&#45;analyzer/index.ts</title>
<g id="a_node9"><a xlink:href="packages/UI/spectrogram/src/audio-analyzer/index.ts" xlink:title="index.ts">
<path fill="#ddfeff" stroke="black" d="M501.62,-661.91C501.62,-661.91 459.62,-661.91 459.62,-661.91 456.62,-661.91 453.62,-658.91 453.62,-655.91 453.62,-655.91 453.62,-649.91 453.62,-649.91 453.62,-646.91 456.62,-643.91 459.62,-643.91 459.62,-643.91 501.62,-643.91 501.62,-643.91 504.62,-643.91 507.62,-646.91 507.62,-649.91 507.62,-649.91 507.62,-655.91 507.62,-655.91 507.62,-658.91 504.62,-661.91 501.62,-661.91"/>
<text text-anchor="start" x="462.12" y="-650.71" font-family="Helvetica,sans-Serif" font-size="9.00">index.ts</text>
</a>
</g>
</g>
<!-- packages/UI/spectrogram/src/audio&#45;analyzer/index.ts&#45;&gt;packages/UI/spectrogram/src/audio&#45;analyzer/audio&#45;analyzer.ts -->
<g id="edge7" class="edge">
<title>packages/UI/spectrogram/src/audio&#45;analyzer/index.ts&#45;&gt;packages/UI/spectrogram/src/audio&#45;analyzer/audio&#45;analyzer.ts</title>
<path fill="none" stroke="#000000" stroke-width="2" stroke-opacity="0.200000" d="M456.24,-643.85C428.84,-633.67 384.33,-617.14 354.75,-606.15"/>
<polygon fill="#000000" fill-opacity="0.200000" stroke="#000000" stroke-width="2" stroke-opacity="0.200000" points="349.78,-602.06 354.67,-606.12 348.32,-606 349.78,-602.06"/>
</g>
<!-- packages/UI/spectrogram/src/audio&#45;viewer.ts&#45;&gt;packages/UI/spectrogram/src/audio&#45;analyzer/index.ts -->
<g id="edge8" class="edge">
<title>packages/UI/spectrogram/src/audio&#45;viewer.ts&#45;&gt;packages/UI/spectrogram/src/audio&#45;analyzer/index.ts</title>
<path fill="none" stroke="#000000" stroke-width="2" stroke-opacity="0.200000" d="M549.78,-743.55C536.4,-726.01 507.2,-687.74 491.36,-666.98"/>
<polygon fill="#000000" fill-opacity="0.200000" stroke="#000000" stroke-width="2" stroke-opacity="0.200000" points="492.94,-665.6 487.63,-662.1 489.6,-668.14 492.94,-665.6"/>
</g>
<!-- packages/UI/spectrogram/src/fft&#45;viewer.ts -->
<g id="node11" class="node">
<title>packages/UI/spectrogram/src/fft&#45;viewer.ts</title>
<g id="a_node11"><a xlink:href="packages/UI/spectrogram/src/fft-viewer.ts" xlink:title="fft&#45;viewer.ts">
<path fill="#ddfeff" stroke="black" d="M661.97,-666.91C661.97,-666.91 604.97,-666.91 604.97,-666.91 601.97,-666.91 598.97,-663.91 598.97,-660.91 598.97,-660.91 598.97,-654.91 598.97,-654.91 598.97,-651.91 601.97,-648.91 604.97,-648.91 604.97,-648.91 661.97,-648.91 661.97,-648.91 664.97,-648.91 667.97,-651.91 667.97,-654.91 667.97,-654.91 667.97,-660.91 667.97,-660.91 667.97,-663.91 664.97,-666.91 661.97,-666.91"/>
<text text-anchor="start" x="606.97" y="-655.71" font-family="Helvetica,sans-Serif" font-size="9.00">fft&#45;viewer.ts</text>
</a>
</g>
</g>
<!-- packages/UI/spectrogram/src/audio&#45;viewer.ts&#45;&gt;packages/UI/spectrogram/src/fft&#45;viewer.ts -->
<g id="edge9" class="edge">
<title>packages/UI/spectrogram/src/audio&#45;viewer.ts&#45;&gt;packages/UI/spectrogram/src/fft&#45;viewer.ts</title>
<path fill="none" stroke="#000000" stroke-width="2" stroke-opacity="0.200000" d="M564.16,-743.67C577.58,-727.07 606.12,-691.75 622.07,-672.01"/>
<polygon fill="#000000" fill-opacity="0.200000" stroke="#000000" stroke-width="2" stroke-opacity="0.200000" points="623.89,-673.11 626.03,-667.12 620.62,-670.47 623.89,-673.11"/>
</g>
<!-- packages/UI/spectrogram/src/spectrogram&#45;viewer.ts -->
<g id="node12" class="node">
<title>packages/UI/spectrogram/src/spectrogram&#45;viewer.ts</title>
<g id="a_node12"><a xlink:href="packages/UI/spectrogram/src/spectrogram-viewer.ts" xlink:title="spectrogram&#45;viewer.ts">
<path fill="#ddfeff" stroke="black" d="M639.29,-579.16C639.29,-579.16 534.29,-579.16 534.29,-579.16 531.29,-579.16 528.29,-576.16 528.29,-573.16 528.29,-573.16 528.29,-567.16 528.29,-567.16 528.29,-564.16 531.29,-561.16 534.29,-561.16 534.29,-561.16 639.29,-561.16 639.29,-561.16 642.29,-561.16 645.29,-564.16 645.29,-567.16 645.29,-567.16 645.29,-573.16 645.29,-573.16 645.29,-576.16 642.29,-579.16 639.29,-579.16"/>
<text text-anchor="start" x="536.29" y="-567.96" font-family="Helvetica,sans-Serif" font-size="9.00">spectrogram&#45;viewer.ts</text>
</a>
</g>
</g>
<!-- packages/UI/spectrogram/src/audio&#45;viewer.ts&#45;&gt;packages/UI/spectrogram/src/spectrogram&#45;viewer.ts -->
<g id="edge10" class="edge">
<title>packages/UI/spectrogram/src/audio&#45;viewer.ts&#45;&gt;packages/UI/spectrogram/src/spectrogram&#45;viewer.ts</title>
<path fill="none" stroke="#000000" stroke-width="2" stroke-opacity="0.200000" d="M558.34,-743.45C563.19,-713.9 578.28,-621.96 584.29,-585.38"/>
<polygon fill="#000000" fill-opacity="0.200000" stroke="#000000" stroke-width="2" stroke-opacity="0.200000" points="586.4,-585.49 585.3,-579.23 582.25,-584.81 586.4,-585.49"/>
</g>
<!-- packages/UI/spectrogram/src/wave&#45;viewer.ts -->
<g id="node13" class="node">
<title>packages/UI/spectrogram/src/wave&#45;viewer.ts</title>
<g id="a_node13"><a xlink:href="packages/UI/spectrogram/src/wave-viewer.ts" xlink:title="wave&#45;viewer.ts">
<path fill="#ddfeff" stroke="black" d="M684.32,-759.39C684.32,-759.39 613.32,-759.39 613.32,-759.39 610.32,-759.39 607.32,-756.39 607.32,-753.39 607.32,-753.39 607.32,-747.39 607.32,-747.39 607.32,-744.39 610.32,-741.39 613.32,-741.39 613.32,-741.39 684.32,-741.39 684.32,-741.39 687.32,-741.39 690.32,-744.39 690.32,-747.39 690.32,-747.39 690.32,-753.39 690.32,-753.39 690.32,-756.39 687.32,-759.39 684.32,-759.39"/>
<text text-anchor="start" x="615.32" y="-748.19" font-family="Helvetica,sans-Serif" font-size="9.00">wave&#45;viewer.ts</text>
</a>
</g>
</g>
<!-- packages/UI/spectrogram/src/audio&#45;viewer.ts&#45;&gt;packages/UI/spectrogram/src/wave&#45;viewer.ts -->
<g id="edge11" class="edge">
<title>packages/UI/spectrogram/src/audio&#45;viewer.ts&#45;&gt;packages/UI/spectrogram/src/wave&#45;viewer.ts</title>
<path fill="none" stroke="#000000" stroke-width="2" stroke-opacity="0.200000" d="M599.32,-751.66C599.81,-751.65 600.31,-751.64 600.8,-751.63"/>
<polygon fill="#000000" fill-opacity="0.200000" stroke="#000000" stroke-width="2" stroke-opacity="0.200000" points="601.29,-753.71 607.24,-751.46 601.19,-749.52 601.29,-753.71"/>
</g>
<!-- packages/UI/view/dist/index.js -->
<g id="node14" class="node">
<title>packages/UI/view/dist/index.js</title>
<g id="a_node14"><a xlink:href="packages/UI/view/dist/index.js" xlink:title="index.js">
<polygon fill="#ffffcc" stroke="black" points="752.37,-648.03 750.87,-650.03 740.37,-650.03 738.87,-648.03 698.37,-648.03 698.37,-630.03 752.37,-630.03 752.37,-648.03"/>
<text text-anchor="start" x="707.87" y="-636.83" font-family="Helvetica,sans-Serif" font-size="9.00">index.js</text>
</a>
</g>
</g>
<!-- packages/UI/spectrogram/src/audio&#45;viewer.ts&#45;&gt;packages/UI/view/dist/index.js -->
<g id="edge12" class="edge">
<title>packages/UI/spectrogram/src/audio&#45;viewer.ts&#45;&gt;packages/UI/view/dist/index.js</title>
<path fill="none" stroke="#000000" stroke-width="2" stroke-opacity="0.200000" d="M570.32,-743.65C600.28,-723.43 672.34,-674.81 706.63,-651.67"/>
<polygon fill="#000000" fill-opacity="0.200000" stroke="#000000" stroke-width="2" stroke-opacity="0.200000" points="708,-653.28 711.79,-648.18 705.65,-649.8 708,-653.28"/>
</g>
<!-- packages/UI/spectrogram/src/fft&#45;viewer.ts&#45;&gt;packages/UI/spectrogram/src/audio&#45;analyzer/index.ts -->
<g id="edge13" class="edge">
<title>packages/UI/spectrogram/src/fft&#45;viewer.ts&#45;&gt;packages/UI/spectrogram/src/audio&#45;analyzer/index.ts</title>
<path fill="none" stroke="#000000" stroke-width="2" stroke-opacity="0.200000" d="M598.78,-656.78C573.45,-655.95 539.29,-654.83 514.21,-654.01"/>
<polygon fill="#000000" fill-opacity="0.200000" stroke="#000000" stroke-width="2" stroke-opacity="0.200000" points="514.11,-651.9 508.04,-653.8 513.97,-656.1 514.11,-651.9"/>
</g>
<!-- packages/UI/spectrogram/src/fft&#45;viewer.ts&#45;&gt;packages/UI/view/dist/index.js -->
<g id="edge15" class="edge">
<title>packages/UI/spectrogram/src/fft&#45;viewer.ts&#45;&gt;packages/UI/view/dist/index.js</title>
<path fill="none" stroke="#000000" stroke-width="2" stroke-opacity="0.200000" d="M668.21,-650.77C676.15,-649.14 684.56,-647.41 692.43,-645.8"/>
<polygon fill="#000000" fill-opacity="0.200000" stroke="#000000" stroke-width="2" stroke-opacity="0.200000" points="692.86,-647.85 698.31,-644.59 692.01,-643.74 692.86,-647.85"/>
</g>
<!-- packages/util/math/dist/index.js -->
<g id="node15" class="node">
<title>packages/util/math/dist/index.js</title>
<g id="a_node15"><a xlink:href="packages/util/math/dist/index.js" xlink:title="index.js">
<polygon fill="#ffffcc" stroke="black" points="824.76,-752.22 823.26,-754.22 812.76,-754.22 811.26,-752.22 770.76,-752.22 770.76,-734.22 824.76,-734.22 824.76,-752.22"/>
<text text-anchor="start" x="780.26" y="-741.02" font-family="Helvetica,sans-Serif" font-size="9.00">index.js</text>
</a>
</g>
</g>
<!-- packages/UI/spectrogram/src/fft&#45;viewer.ts&#45;&gt;packages/util/math/dist/index.js -->
<g id="edge14" class="edge">
<title>packages/UI/spectrogram/src/fft&#45;viewer.ts&#45;&gt;packages/util/math/dist/index.js</title>
<path fill="none" stroke="#000000" stroke-width="2" stroke-opacity="0.200000" d="M651.05,-667.04C680.94,-682.56 741.65,-714.08 774.83,-731.31"/>
<polygon fill="#000000" fill-opacity="0.200000" stroke="#000000" stroke-width="2" stroke-opacity="0.200000" points="774.01,-733.25 780.3,-734.15 775.95,-729.52 774.01,-733.25"/>
</g>
<!-- packages/UI/spectrogram/src/spectrogram&#45;viewer.ts&#45;&gt;packages/UI/spectrogram/src/audio&#45;analyzer/index.ts -->
<g id="edge17" class="edge">
<title>packages/UI/spectrogram/src/spectrogram&#45;viewer.ts&#45;&gt;packages/UI/spectrogram/src/audio&#45;analyzer/index.ts</title>
<path fill="none" stroke="#000000" stroke-width="2" stroke-opacity="0.200000" d="M575.02,-579.33C556.13,-594.05 518.96,-623.02 497.32,-639.88"/>
<polygon fill="#000000" fill-opacity="0.200000" stroke="#000000" stroke-width="2" stroke-opacity="0.200000" points="495.88,-638.35 492.44,-643.69 498.46,-641.66 495.88,-638.35"/>
</g>
<!-- packages/UI/spectrogram/src/spectrogram&#45;viewer.ts&#45;&gt;packages/UI/view/dist/index.js -->
<g id="edge18" class="edge">
<title>packages/UI/spectrogram/src/spectrogram&#45;viewer.ts&#45;&gt;packages/UI/view/dist/index.js</title>
<path fill="none" stroke="#000000" stroke-width="2" stroke-opacity="0.200000" d="M604.9,-579.16C629.7,-591.48 674.25,-613.62 701.67,-627.25"/>
<polygon fill="#000000" fill-opacity="0.200000" stroke="#000000" stroke-width="2" stroke-opacity="0.200000" points="700.94,-629.23 707.25,-630.02 702.81,-625.47 700.94,-629.23"/>
</g>
<!-- packages/UI/spectrogram/src/wave&#45;viewer.ts&#45;&gt;packages/UI/spectrogram/src/audio&#45;analyzer/index.ts -->
<g id="edge19" class="edge">
<title>packages/UI/spectrogram/src/wave&#45;viewer.ts&#45;&gt;packages/UI/spectrogram/src/audio&#45;analyzer/index.ts</title>
<path fill="none" stroke="#000000" stroke-width="2" stroke-opacity="0.200000" d="M633,-741.22C602.57,-723.58 535.89,-684.94 501.72,-665.13"/>
<polygon fill="#000000" fill-opacity="0.200000" stroke="#000000" stroke-width="2" stroke-opacity="0.200000" points="502.77,-663.32 496.52,-662.12 500.66,-666.95 502.77,-663.32"/>
</g>
<!-- packages/UI/spectrogram/src/wave&#45;viewer.ts&#45;&gt;packages/UI/view/dist/index.js -->
<g id="edge21" class="edge">
<title>packages/UI/spectrogram/src/wave&#45;viewer.ts&#45;&gt;packages/UI/view/dist/index.js</title>
<path fill="none" stroke="#000000" stroke-width="2" stroke-opacity="0.200000" d="M655.09,-741.27C668.37,-721.94 699.48,-676.69 715.48,-653.41"/>
<polygon fill="#000000" fill-opacity="0.200000" stroke="#000000" stroke-width="2" stroke-opacity="0.200000" points="717.35,-654.4 719.02,-648.27 713.89,-652.02 717.35,-654.4"/>
</g>
<!-- packages/UI/spectrogram/src/wave&#45;viewer.ts&#45;&gt;packages/util/math/dist/index.js -->
<g id="edge20" class="edge">
<title>packages/UI/spectrogram/src/wave&#45;viewer.ts&#45;&gt;packages/util/math/dist/index.js</title>
<path fill="none" stroke="#000000" stroke-width="2" stroke-opacity="0.200000" d="M690.71,-748.37C714.04,-747.25 742.7,-745.87 764.48,-744.82"/>
<polygon fill="#000000" fill-opacity="0.200000" stroke="#000000" stroke-width="2" stroke-opacity="0.200000" points="764.83,-746.9 770.72,-744.52 764.63,-742.71 764.83,-746.9"/>
</g>
<!-- packages/util/math/fft/array/ftt&#45;core.ts&#45;&gt;packages/util/math/fft/array/complex.ts -->
<g id="edge22" class="edge">
<title>packages/util/math/fft/array/ftt&#45;core.ts&#45;&gt;packages/util/math/fft/array/complex.ts</title>
<path fill="none" stroke="#000000" stroke-width="2" stroke-opacity="0.200000" d="M130.43,-168.01C111.05,-184.82 70.26,-220.19 48.1,-239.41"/>
<polygon fill="#000000" fill-opacity="0.200000" stroke="#000000" stroke-width="2" stroke-opacity="0.200000" points="46.57,-237.96 43.41,-243.48 49.32,-241.13 46.57,-237.96"/>
</g>
<!-- packages/util/math/fft/array/root&#45;of&#45;unity.ts -->
<g id="node18" class="node">
<title>packages/util/math/fft/array/root&#45;of&#45;unity.ts</title>
<g id="a_node18"><a xlink:href="packages/util/math/fft/array/root-of-unity.ts" xlink:title="root&#45;of&#45;unity.ts">
<path fill="#ddfeff" stroke="black" d="M160.1,-18C160.1,-18 89.1,-18 89.1,-18 86.1,-18 83.1,-15 83.1,-12 83.1,-12 83.1,-6 83.1,-6 83.1,-3 86.1,0 89.1,0 89.1,0 160.1,0 160.1,0 163.1,0 166.1,-3 166.1,-6 166.1,-6 166.1,-12 166.1,-12 166.1,-15 163.1,-18 160.1,-18"/>
<text text-anchor="start" x="91.1" y="-6.8" font-family="Helvetica,sans-Serif" font-size="9.00">root&#45;of&#45;unity.ts</text>
</a>
</g>
</g>
<!-- packages/util/math/fft/array/ftt&#45;core.ts&#45;&gt;packages/util/math/fft/array/root&#45;of&#45;unity.ts -->
<g id="edge23" class="edge">
<title>packages/util/math/fft/array/ftt&#45;core.ts&#45;&gt;packages/util/math/fft/array/root&#45;of&#45;unity.ts</title>
<path fill="none" stroke="#000000" stroke-width="2" stroke-opacity="0.200000" d="M140.16,-149.31C137.38,-124.22 129.73,-55.27 126.3,-24.35"/>
<polygon fill="#000000" fill-opacity="0.200000" stroke="#000000" stroke-width="2" stroke-opacity="0.200000" points="128.39,-24.09 125.64,-18.36 124.21,-24.55 128.39,-24.09"/>
</g>
</g>
</svg>
