<?xml version="1.0" encoding="UTF-8" standalone="no"?>
<!DOCTYPE svg PUBLIC "-//W3C//DTD SVG 1.1//EN"
 "http://www.w3.org/Graphics/SVG/1.1/DTD/svg11.dtd">
<!-- Generated by graphviz version 2.43.0 (0)
 -->
<!-- Title: dependency&#45;cruiser output Pages: 1 -->
<svg width="984pt" height="577pt"
 viewBox="0.00 0.00 983.56 576.52" xmlns="http://www.w3.org/2000/svg" xmlns:xlink="http://www.w3.org/1999/xlink">
<g id="graph0" class="graph" transform="scale(1 1) rotate(0) translate(4 572.52)">
<title>dependency&#45;cruiser output</title>
<polygon fill="white" stroke="transparent" points="-4,4 -4,-572.52 979.56,-572.52 979.56,4 -4,4"/>
<g id="clust1" class="cluster">
<title>cluster_packages</title>
<path fill="#ffffff" stroke="black" stroke-width="2" d="M12,0C12,0 963.56,0 963.56,0 969.56,0 975.56,-6 975.56,-12 975.56,-12 975.56,-556.52 975.56,-556.52 975.56,-562.52 969.56,-568.52 963.56,-568.52 963.56,-568.52 12,-568.52 12,-568.52 6,-568.52 0,-562.52 0,-556.52 0,-556.52 0,-12 0,-12 0,-6 6,0 12,0"/>
<text text-anchor="middle" x="487.78" y="-557.32" font-family="Helvetica,sans-Serif" font-weight="bold" font-size="9.00">packages</text>
</g>
<!-- packages/UI/spectrogram/src/audio&#45;analyzer/audio&#45;analyzer.ts -->
<g id="node1" class="node">
<title>packages/UI/spectrogram/src/audio&#45;analyzer/audio&#45;analyzer.ts</title>
<g id="a_node1"><a xlink:href="packages/UI/spectrogram/src/audio-analyzer/audio-analyzer.ts" xlink:title="audio&#45;analyzer.ts">
<path fill="#ddfeff" stroke="black" d="M664.44,-193.11C664.44,-193.11 583.44,-193.11 583.44,-193.11 580.44,-193.11 577.44,-190.11 577.44,-187.11 577.44,-187.11 577.44,-181.11 577.44,-181.11 577.44,-178.11 580.44,-175.11 583.44,-175.11 583.44,-175.11 664.44,-175.11 664.44,-175.11 667.44,-175.11 670.44,-178.11 670.44,-181.11 670.44,-181.11 670.44,-187.11 670.44,-187.11 670.44,-190.11 667.44,-193.11 664.44,-193.11"/>
<text text-anchor="start" x="585.44" y="-181.91" font-family="Helvetica,sans-Serif" font-size="9.00">audio&#45;analyzer.ts</text>
</a>
</g>
</g>
<!-- packages/UI/spectrogram/src/audio&#45;analyzer/connect.ts -->
<g id="node2" class="node">
<title>packages/UI/spectrogram/src/audio&#45;analyzer/connect.ts</title>
<g id="a_node2"><a xlink:href="packages/UI/spectrogram/src/audio-analyzer/connect.ts" xlink:title="connect.ts">
<path fill="#ddfeff" stroke="black" d="M683.95,-18C683.95,-18 630.95,-18 630.95,-18 627.95,-18 624.95,-15 624.95,-12 624.95,-12 624.95,-6 624.95,-6 624.95,-3 627.95,0 630.95,0 630.95,0 683.95,0 683.95,0 686.95,0 689.95,-3 689.95,-6 689.95,-6 689.95,-12 689.95,-12 689.95,-15 686.95,-18 683.95,-18"/>
<text text-anchor="start" x="632.95" y="-6.8" font-family="Helvetica,sans-Serif" font-size="9.00">connect.ts</text>
</a>
</g>
</g>
<!-- packages/UI/spectrogram/src/audio&#45;analyzer/audio&#45;analyzer.ts&#45;&gt;packages/UI/spectrogram/src/audio&#45;analyzer/connect.ts -->
<g id="edge1" class="edge">
<title>packages/UI/spectrogram/src/audio&#45;analyzer/audio&#45;analyzer.ts&#45;&gt;packages/UI/spectrogram/src/audio&#45;analyzer/connect.ts</title>
<path fill="none" stroke="#000000" stroke-width="2" stroke-opacity="0.200000" d="M625.74,-174.69C631.25,-145.94 647.87,-59.08 654.59,-23.97"/>
<polygon fill="#000000" fill-opacity="0.200000" stroke="#000000" stroke-width="2" stroke-opacity="0.200000" points="656.66,-24.33 655.72,-18.04 652.53,-23.54 656.66,-24.33"/>
</g>
<!-- packages/UI/spectrogram/src/audio&#45;analyzer/get&#45;data&#45;on&#45;buffer/byte&#45;frequency.ts -->
<g id="node3" class="node">
<title>packages/UI/spectrogram/src/audio&#45;analyzer/get&#45;data&#45;on&#45;buffer/byte&#45;frequency.ts</title>
<g id="a_node3"><a xlink:href="packages/UI/spectrogram/src/audio-analyzer/get-data-on-buffer/byte-frequency.ts" xlink:title="byte&#45;frequency.ts">
<path fill="#ddfeff" stroke="black" d="M610.94,-39.1C610.94,-39.1 527.94,-39.1 527.94,-39.1 524.94,-39.1 521.94,-36.1 521.94,-33.1 521.94,-33.1 521.94,-27.1 521.94,-27.1 521.94,-24.1 524.94,-21.1 527.94,-21.1 527.94,-21.1 610.94,-21.1 610.94,-21.1 613.94,-21.1 616.94,-24.1 616.94,-27.1 616.94,-27.1 616.94,-33.1 616.94,-33.1 616.94,-36.1 613.94,-39.1 610.94,-39.1"/>
<text text-anchor="start" x="529.94" y="-27.9" font-family="Helvetica,sans-Serif" font-size="9.00">byte&#45;frequency.ts</text>
</a>
</g>
</g>
<!-- packages/UI/spectrogram/src/audio&#45;analyzer/audio&#45;analyzer.ts&#45;&gt;packages/UI/spectrogram/src/audio&#45;analyzer/get&#45;data&#45;on&#45;buffer/byte&#45;frequency.ts -->
<g id="edge2" class="edge">
<title>packages/UI/spectrogram/src/audio&#45;analyzer/audio&#45;analyzer.ts&#45;&gt;packages/UI/spectrogram/src/audio&#45;analyzer/get&#45;data&#45;on&#45;buffer/byte&#45;frequency.ts</title>
<path fill="none" stroke="#000000" stroke-width="2" stroke-opacity="0.200000" d="M620.7,-174.93C611.63,-149.32 585.97,-76.81 574.78,-45.18"/>
<polygon fill="#000000" fill-opacity="0.200000" stroke="#000000" stroke-width="2" stroke-opacity="0.200000" points="576.72,-44.38 572.74,-39.42 572.76,-45.78 576.72,-44.38"/>
</g>
<!-- packages/UI/spectrogram/src/audio&#45;analyzer/get&#45;data&#45;on&#45;buffer/byte&#45;time.ts -->
<g id="node4" class="node">
<title>packages/UI/spectrogram/src/audio&#45;analyzer/get&#45;data&#45;on&#45;buffer/byte&#45;time.ts</title>
<g id="a_node4"><a xlink:href="packages/UI/spectrogram/src/audio-analyzer/get-data-on-buffer/byte-time.ts" xlink:title="byte&#45;time.ts">
<path fill="#ddfeff" stroke="black" d="M556.77,-293.65C556.77,-293.65 497.77,-293.65 497.77,-293.65 494.77,-293.65 491.77,-290.65 491.77,-287.65 491.77,-287.65 491.77,-281.65 491.77,-281.65 491.77,-278.65 494.77,-275.65 497.77,-275.65 497.77,-275.65 556.77,-275.65 556.77,-275.65 559.77,-275.65 562.77,-278.65 562.77,-281.65 562.77,-281.65 562.77,-287.65 562.77,-287.65 562.77,-290.65 559.77,-293.65 556.77,-293.65"/>
<text text-anchor="start" x="499.77" y="-282.45" font-family="Helvetica,sans-Serif" font-size="9.00">byte&#45;time.ts</text>
</a>
</g>
</g>
<!-- packages/UI/spectrogram/src/audio&#45;analyzer/audio&#45;analyzer.ts&#45;&gt;packages/UI/spectrogram/src/audio&#45;analyzer/get&#45;data&#45;on&#45;buffer/byte&#45;time.ts -->
<g id="edge3" class="edge">
<title>packages/UI/spectrogram/src/audio&#45;analyzer/audio&#45;analyzer.ts&#45;&gt;packages/UI/spectrogram/src/audio&#45;analyzer/get&#45;data&#45;on&#45;buffer/byte&#45;time.ts</title>
<path fill="none" stroke="#000000" stroke-width="2" stroke-opacity="0.200000" d="M615.02,-193.39C597.9,-211.19 560.36,-250.23 540.38,-271.01"/>
<polygon fill="#000000" fill-opacity="0.200000" stroke="#000000" stroke-width="2" stroke-opacity="0.200000" points="538.81,-269.61 536.17,-275.39 541.84,-272.52 538.81,-269.61"/>
</g>
<!-- packages/UI/spectrogram/src/audio&#45;analyzer/get&#45;data&#45;on&#45;buffer/float&#45;frequency.ts -->
<g id="node5" class="node">
<title>packages/UI/spectrogram/src/audio&#45;analyzer/get&#45;data&#45;on&#45;buffer/float&#45;frequency.ts</title>
<g id="a_node5"><a xlink:href="packages/UI/spectrogram/src/audio-analyzer/get-data-on-buffer/float-frequency.ts" xlink:title="float&#45;frequency.ts">
<path fill="#ddfeff" stroke="black" d="M613.24,-352C613.24,-352 530.24,-352 530.24,-352 527.24,-352 524.24,-349 524.24,-346 524.24,-346 524.24,-340 524.24,-340 524.24,-337 527.24,-334 530.24,-334 530.24,-334 613.24,-334 613.24,-334 616.24,-334 619.24,-337 619.24,-340 619.24,-340 619.24,-346 619.24,-346 619.24,-349 616.24,-352 613.24,-352"/>
<text text-anchor="start" x="532.24" y="-340.8" font-family="Helvetica,sans-Serif" font-size="9.00">float&#45;frequency.ts</text>
</a>
</g>
</g>
<!-- packages/UI/spectrogram/src/audio&#45;analyzer/audio&#45;analyzer.ts&#45;&gt;packages/UI/spectrogram/src/audio&#45;analyzer/get&#45;data&#45;on&#45;buffer/float&#45;frequency.ts -->
<g id="edge4" class="edge">
<title>packages/UI/spectrogram/src/audio&#45;analyzer/audio&#45;analyzer.ts&#45;&gt;packages/UI/spectrogram/src/audio&#45;analyzer/get&#45;data&#45;on&#45;buffer/float&#45;frequency.ts</title>
<path fill="none" stroke="#000000" stroke-width="2" stroke-opacity="0.200000" d="M620.83,-193.57C612.11,-220.13 587.34,-295.51 576.69,-327.9"/>
<polygon fill="#000000" fill-opacity="0.200000" stroke="#000000" stroke-width="2" stroke-opacity="0.200000" points="574.64,-327.43 574.76,-333.78 578.63,-328.74 574.64,-327.43"/>
</g>
<!-- packages/UI/spectrogram/src/audio&#45;analyzer/get&#45;data&#45;on&#45;buffer/float&#45;time.ts -->
<g id="node6" class="node">
<title>packages/UI/spectrogram/src/audio&#45;analyzer/get&#45;data&#45;on&#45;buffer/float&#45;time.ts</title>
<g id="a_node6"><a xlink:href="packages/UI/spectrogram/src/audio-analyzer/get-data-on-buffer/float-time.ts" xlink:title="float&#45;time.ts">
<path fill="#ddfeff" stroke="black" d="M538.6,-114.65C538.6,-114.65 479.6,-114.65 479.6,-114.65 476.6,-114.65 473.6,-111.65 473.6,-108.65 473.6,-108.65 473.6,-102.65 473.6,-102.65 473.6,-99.65 476.6,-96.65 479.6,-96.65 479.6,-96.65 538.6,-96.65 538.6,-96.65 541.6,-96.65 544.6,-99.65 544.6,-102.65 544.6,-102.65 544.6,-108.65 544.6,-108.65 544.6,-111.65 541.6,-114.65 538.6,-114.65"/>
<text text-anchor="start" x="481.6" y="-103.45" font-family="Helvetica,sans-Serif" font-size="9.00">float&#45;time.ts</text>
</a>
</g>
</g>
<!-- packages/UI/spectrogram/src/audio&#45;analyzer/audio&#45;analyzer.ts&#45;&gt;packages/UI/spectrogram/src/audio&#45;analyzer/get&#45;data&#45;on&#45;buffer/float&#45;time.ts -->
<g id="edge5" class="edge">
<title>packages/UI/spectrogram/src/audio&#45;analyzer/audio&#45;analyzer.ts&#45;&gt;packages/UI/spectrogram/src/audio&#45;analyzer/get&#45;data&#45;on&#45;buffer/float&#45;time.ts</title>
<path fill="none" stroke="#000000" stroke-width="2" stroke-opacity="0.200000" d="M610.32,-174.8C589.74,-160.75 550.71,-134.08 527.59,-118.28"/>
<polygon fill="#000000" fill-opacity="0.200000" stroke="#000000" stroke-width="2" stroke-opacity="0.200000" points="528.49,-116.36 522.35,-114.71 526.12,-119.82 528.49,-116.36"/>
</g>
<!-- packages/UI/spectrogram/src/audio&#45;analyzer/get&#45;fft.ts -->
<g id="node7" class="node">
<title>packages/UI/spectrogram/src/audio&#45;analyzer/get&#45;fft.ts</title>
<g id="a_node7"><a xlink:href="packages/UI/spectrogram/src/audio-analyzer/get-fft.ts" xlink:title="get&#45;fft.ts">
<path fill="#ddfeff" stroke="black" d="M471.08,-197.7C471.08,-197.7 427.08,-197.7 427.08,-197.7 424.08,-197.7 421.08,-194.7 421.08,-191.7 421.08,-191.7 421.08,-185.7 421.08,-185.7 421.08,-182.7 424.08,-179.7 427.08,-179.7 427.08,-179.7 471.08,-179.7 471.08,-179.7 474.08,-179.7 477.08,-182.7 477.08,-185.7 477.08,-185.7 477.08,-191.7 477.08,-191.7 477.08,-194.7 474.08,-197.7 471.08,-197.7"/>
<text text-anchor="start" x="429.08" y="-186.5" font-family="Helvetica,sans-Serif" font-size="9.00">get&#45;fft.ts</text>
</a>
</g>
</g>
<!-- packages/UI/spectrogram/src/audio&#45;analyzer/audio&#45;analyzer.ts&#45;&gt;packages/UI/spectrogram/src/audio&#45;analyzer/get&#45;fft.ts -->
<g id="edge6" class="edge">
<title>packages/UI/spectrogram/src/audio&#45;analyzer/audio&#45;analyzer.ts&#45;&gt;packages/UI/spectrogram/src/audio&#45;analyzer/get&#45;fft.ts</title>
<path fill="none" stroke="#000000" stroke-width="2" stroke-opacity="0.200000" d="M577.08,-185.34C547.58,-186.11 510.16,-187.09 483.41,-187.79"/>
<polygon fill="#000000" fill-opacity="0.200000" stroke="#000000" stroke-width="2" stroke-opacity="0.200000" points="483.13,-185.7 477.19,-187.96 483.24,-189.9 483.13,-185.7"/>
</g>
<!-- packages/UI/spectrogram/src/audio&#45;analyzer/get&#45;fft.ts&#45;&gt;packages/UI/spectrogram/src/audio&#45;analyzer/get&#45;data&#45;on&#45;buffer/float&#45;time.ts -->
<g id="edge7" class="edge">
<title>packages/UI/spectrogram/src/audio&#45;analyzer/get&#45;fft.ts&#45;&gt;packages/UI/spectrogram/src/audio&#45;analyzer/get&#45;data&#45;on&#45;buffer/float&#45;time.ts</title>
<path fill="none" stroke="#000000" stroke-width="2" stroke-opacity="0.200000" d="M455.73,-179.49C466.18,-165.02 486.54,-136.86 498.87,-119.81"/>
<polygon fill="#000000" fill-opacity="0.200000" stroke="#000000" stroke-width="2" stroke-opacity="0.200000" points="500.6,-120.99 502.41,-114.9 497.2,-118.53 500.6,-120.99"/>
</g>
<!-- packages/util/math/src/fft/array/index.ts -->
<g id="node9" class="node">
<title>packages/util/math/src/fft/array/index.ts</title>
<g id="a_node9"><a xlink:href="packages/util/math/src/fft/array/index.ts" xlink:title="index.ts">
<path fill="#ddfeff" stroke="black" d="M316.11,-192.39C316.11,-192.39 274.11,-192.39 274.11,-192.39 271.11,-192.39 268.11,-189.39 268.11,-186.39 268.11,-186.39 268.11,-180.39 268.11,-180.39 268.11,-177.39 271.11,-174.39 274.11,-174.39 274.11,-174.39 316.11,-174.39 316.11,-174.39 319.11,-174.39 322.11,-177.39 322.11,-180.39 322.11,-180.39 322.11,-186.39 322.11,-186.39 322.11,-189.39 319.11,-192.39 316.11,-192.39"/>
<text text-anchor="start" x="276.61" y="-181.19" font-family="Helvetica,sans-Serif" font-size="9.00">index.ts</text>
</a>
</g>
</g>
<!-- packages/UI/spectrogram/src/audio&#45;analyzer/get&#45;fft.ts&#45;&gt;packages/util/math/src/fft/array/index.ts -->
<g id="edge8" class="edge">
<title>packages/UI/spectrogram/src/audio&#45;analyzer/get&#45;fft.ts&#45;&gt;packages/util/math/src/fft/array/index.ts</title>
<path fill="none" stroke="#000000" stroke-width="2" stroke-opacity="0.200000" d="M420.84,-187.72C394.69,-186.82 355.79,-185.48 328.19,-184.53"/>
<polygon fill="#000000" fill-opacity="0.200000" stroke="#000000" stroke-width="2" stroke-opacity="0.200000" points="328.2,-182.43 322.13,-184.32 328.06,-186.62 328.2,-182.43"/>
</g>
<!-- packages/UI/spectrogram/src/audio&#45;analyzer/cosine&#45;window.ts -->
<g id="node8" class="node">
<title>packages/UI/spectrogram/src/audio&#45;analyzer/cosine&#45;window.ts</title>
<g id="a_node8"><a xlink:href="packages/UI/spectrogram/src/audio-analyzer/cosine-window.ts" xlink:title="no&#45;orphans">
<path fill="#ccffcc" stroke="orange" d="M667,-482C667,-482 586,-482 586,-482 583,-482 580,-479 580,-476 580,-476 580,-470 580,-470 580,-467 583,-464 586,-464 586,-464 667,-464 667,-464 670,-464 673,-467 673,-470 673,-470 673,-476 673,-476 673,-479 670,-482 667,-482"/>
<text text-anchor="start" x="588" y="-470.8" font-family="Helvetica,sans-Serif" font-size="9.00" fill="orange">cosine&#45;window.ts</text>
</a>
</g>
</g>
<!-- packages/util/math/src/fft/array/complex.ts -->
<g id="node18" class="node">
<title>packages/util/math/src/fft/array/complex.ts</title>
<g id="a_node18"><a xlink:href="packages/util/math/src/fft/array/complex.ts" xlink:title="complex.ts">
<path fill="#ddfeff" stroke="black" d="M203.19,-106.46C203.19,-106.46 149.19,-106.46 149.19,-106.46 146.19,-106.46 143.19,-103.46 143.19,-100.46 143.19,-100.46 143.19,-94.46 143.19,-94.46 143.19,-91.46 146.19,-88.46 149.19,-88.46 149.19,-88.46 203.19,-88.46 203.19,-88.46 206.19,-88.46 209.19,-91.46 209.19,-94.46 209.19,-94.46 209.19,-100.46 209.19,-100.46 209.19,-103.46 206.19,-106.46 203.19,-106.46"/>
<text text-anchor="start" x="151.19" y="-95.26" font-family="Helvetica,sans-Serif" font-size="9.00">complex.ts</text>
</a>
</g>
</g>
<!-- packages/util/math/src/fft/array/index.ts&#45;&gt;packages/util/math/src/fft/array/complex.ts -->
<g id="edge29" class="edge">
<title>packages/util/math/src/fft/array/index.ts&#45;&gt;packages/util/math/src/fft/array/complex.ts</title>
<path fill="none" stroke="#000000" stroke-width="2" stroke-opacity="0.200000" d="M282.38,-174.19C261.1,-158.82 218.25,-127.86 193.99,-110.33"/>
<polygon fill="#000000" fill-opacity="0.200000" stroke="#000000" stroke-width="2" stroke-opacity="0.200000" points="194.92,-108.4 188.82,-106.59 192.46,-111.81 194.92,-108.4"/>
</g>
<!-- packages/util/math/src/fft/array/ftt&#45;core.ts -->
<g id="node20" class="node">
<title>packages/util/math/src/fft/array/ftt&#45;core.ts</title>
<g id="a_node20"><a xlink:href="packages/util/math/src/fft/array/ftt-core.ts" xlink:title="ftt&#45;core.ts">
<path fill="#ddfeff" stroke="black" d="M175.17,-232.86C175.17,-232.86 126.17,-232.86 126.17,-232.86 123.17,-232.86 120.17,-229.86 120.17,-226.86 120.17,-226.86 120.17,-220.86 120.17,-220.86 120.17,-217.86 123.17,-214.86 126.17,-214.86 126.17,-214.86 175.17,-214.86 175.17,-214.86 178.17,-214.86 181.17,-217.86 181.17,-220.86 181.17,-220.86 181.17,-226.86 181.17,-226.86 181.17,-229.86 178.17,-232.86 175.17,-232.86"/>
<text text-anchor="start" x="128.17" y="-221.66" font-family="Helvetica,sans-Serif" font-size="9.00">ftt&#45;core.ts</text>
</a>
</g>
</g>
<!-- packages/util/math/src/fft/array/index.ts&#45;&gt;packages/util/math/src/fft/array/ftt&#45;core.ts -->
<g id="edge30" class="edge">
<title>packages/util/math/src/fft/array/index.ts&#45;&gt;packages/util/math/src/fft/array/ftt&#45;core.ts</title>
<path fill="none" stroke="#000000" stroke-width="2" stroke-opacity="0.200000" d="M267.94,-191C245.09,-197.4 212.23,-206.61 187.1,-213.65"/>
<polygon fill="#000000" fill-opacity="0.200000" stroke="#000000" stroke-width="2" stroke-opacity="0.200000" points="186.43,-211.66 181.22,-215.3 187.56,-215.7 186.43,-211.66"/>
</g>
<!-- packages/UI/spectrogram/src/audio&#45;viewer.ts -->
<g id="node10" class="node">
<title>packages/UI/spectrogram/src/audio&#45;viewer.ts</title>
<g id="a_node10"><a xlink:href="packages/UI/spectrogram/src/audio-viewer.ts" xlink:title="audio&#45;viewer.ts">
<path fill="#ddfeff" stroke="black" d="M802.22,-172.58C802.22,-172.58 729.22,-172.58 729.22,-172.58 726.22,-172.58 723.22,-169.58 723.22,-166.58 723.22,-166.58 723.22,-160.58 723.22,-160.58 723.22,-157.58 726.22,-154.58 729.22,-154.58 729.22,-154.58 802.22,-154.58 802.22,-154.58 805.22,-154.58 808.22,-157.58 808.22,-160.58 808.22,-160.58 808.22,-166.58 808.22,-166.58 808.22,-169.58 805.22,-172.58 802.22,-172.58"/>
<text text-anchor="start" x="731.22" y="-161.38" font-family="Helvetica,sans-Serif" font-size="9.00">audio&#45;viewer.ts</text>
</a>
</g>
</g>
<!-- packages/UI/spectrogram/src/audio&#45;viewer.ts&#45;&gt;packages/UI/spectrogram/src/audio&#45;analyzer/audio&#45;analyzer.ts -->
<g id="edge9" class="edge">
<title>packages/UI/spectrogram/src/audio&#45;viewer.ts&#45;&gt;packages/UI/spectrogram/src/audio&#45;analyzer/audio&#45;analyzer.ts</title>
<path fill="none" stroke="#000000" stroke-width="2" stroke-opacity="0.200000" d="M723.18,-169.74C708.56,-171.85 692.02,-174.25 676.69,-176.47"/>
<polygon fill="#000000" fill-opacity="0.200000" stroke="#000000" stroke-width="2" stroke-opacity="0.200000" points="676.29,-174.4 670.66,-177.34 676.9,-178.56 676.29,-174.4"/>
</g>
<!-- packages/UI/spectrogram/src/fft&#45;viewer.ts -->
<g id="node11" class="node">
<title>packages/UI/spectrogram/src/fft&#45;viewer.ts</title>
<g id="a_node11"><a xlink:href="packages/UI/spectrogram/src/fft-viewer.ts" xlink:title="fft&#45;viewer.ts">
<path fill="#ddfeff" stroke="black" d="M793.73,-270.07C793.73,-270.07 736.73,-270.07 736.73,-270.07 733.73,-270.07 730.73,-267.07 730.73,-264.07 730.73,-264.07 730.73,-258.07 730.73,-258.07 730.73,-255.07 733.73,-252.07 736.73,-252.07 736.73,-252.07 793.73,-252.07 793.73,-252.07 796.73,-252.07 799.73,-255.07 799.73,-258.07 799.73,-258.07 799.73,-264.07 799.73,-264.07 799.73,-267.07 796.73,-270.07 793.73,-270.07"/>
<text text-anchor="start" x="738.73" y="-258.87" font-family="Helvetica,sans-Serif" font-size="9.00">fft&#45;viewer.ts</text>
</a>
</g>
</g>
<!-- packages/UI/spectrogram/src/audio&#45;viewer.ts&#45;&gt;packages/UI/spectrogram/src/fft&#45;viewer.ts -->
<g id="edge10" class="edge">
<title>packages/UI/spectrogram/src/audio&#45;viewer.ts&#45;&gt;packages/UI/spectrogram/src/fft&#45;viewer.ts</title>
<path fill="none" stroke="#000000" stroke-width="2" stroke-opacity="0.200000" d="M765.67,-172.92C765.58,-189.78 765.4,-225.42 765.3,-245.84"/>
<polygon fill="#000000" fill-opacity="0.200000" stroke="#000000" stroke-width="2" stroke-opacity="0.200000" points="763.2,-245.88 765.27,-251.89 767.4,-245.9 763.2,-245.88"/>
</g>
<!-- packages/UI/spectrogram/src/spectrogram&#45;viewer.ts -->
<g id="node12" class="node">
<title>packages/UI/spectrogram/src/spectrogram&#45;viewer.ts</title>
<g id="a_node12"><a xlink:href="packages/UI/spectrogram/src/spectrogram-viewer.ts" xlink:title="spectrogram&#45;viewer.ts">
<path fill="#ddfeff" stroke="black" d="M792.83,-82.7C792.83,-82.7 687.83,-82.7 687.83,-82.7 684.83,-82.7 681.83,-79.7 681.83,-76.7 681.83,-76.7 681.83,-70.7 681.83,-70.7 681.83,-67.7 684.83,-64.7 687.83,-64.7 687.83,-64.7 792.83,-64.7 792.83,-64.7 795.83,-64.7 798.83,-67.7 798.83,-70.7 798.83,-70.7 798.83,-76.7 798.83,-76.7 798.83,-79.7 795.83,-82.7 792.83,-82.7"/>
<text text-anchor="start" x="689.83" y="-71.5" font-family="Helvetica,sans-Serif" font-size="9.00">spectrogram&#45;viewer.ts</text>
</a>
</g>
</g>
<!-- packages/UI/spectrogram/src/audio&#45;viewer.ts&#45;&gt;packages/UI/spectrogram/src/spectrogram&#45;viewer.ts -->
<g id="edge11" class="edge">
<title>packages/UI/spectrogram/src/audio&#45;viewer.ts&#45;&gt;packages/UI/spectrogram/src/spectrogram&#45;viewer.ts</title>
<path fill="none" stroke="#000000" stroke-width="2" stroke-opacity="0.200000" d="M763.09,-154.3C758.7,-138.74 749.81,-107.28 744.54,-88.6"/>
<polygon fill="#000000" fill-opacity="0.200000" stroke="#000000" stroke-width="2" stroke-opacity="0.200000" points="746.55,-88 742.9,-82.79 742.51,-89.14 746.55,-88"/>
</g>
<!-- packages/UI/spectrogram/src/wave&#45;viewer.ts -->
<g id="node13" class="node">
<title>packages/UI/spectrogram/src/wave&#45;viewer.ts</title>
<g id="a_node13"><a xlink:href="packages/UI/spectrogram/src/wave-viewer.ts" xlink:title="wave&#45;viewer.ts">
<path fill="#ddfeff" stroke="black" d="M776.68,-311.63C776.68,-311.63 705.68,-311.63 705.68,-311.63 702.68,-311.63 699.68,-308.63 699.68,-305.63 699.68,-305.63 699.68,-299.63 699.68,-299.63 699.68,-296.63 702.68,-293.63 705.68,-293.63 705.68,-293.63 776.68,-293.63 776.68,-293.63 779.68,-293.63 782.68,-296.63 782.68,-299.63 782.68,-299.63 782.68,-305.63 782.68,-305.63 782.68,-308.63 779.68,-311.63 776.68,-311.63"/>
<text text-anchor="start" x="707.68" y="-300.43" font-family="Helvetica,sans-Serif" font-size="9.00">wave&#45;viewer.ts</text>
</a>
</g>
</g>
<!-- packages/UI/spectrogram/src/audio&#45;viewer.ts&#45;&gt;packages/UI/spectrogram/src/wave&#45;viewer.ts -->
<g id="edge12" class="edge">
<title>packages/UI/spectrogram/src/audio&#45;viewer.ts&#45;&gt;packages/UI/spectrogram/src/wave&#45;viewer.ts</title>
<path fill="none" stroke="#000000" stroke-width="2" stroke-opacity="0.200000" d="M764.11,-172.7C759.98,-196.07 749.01,-258.27 743.88,-287.31"/>
<polygon fill="#000000" fill-opacity="0.200000" stroke="#000000" stroke-width="2" stroke-opacity="0.200000" points="741.8,-287.02 742.83,-293.29 745.94,-287.75 741.8,-287.02"/>
</g>
<!-- packages/UI/view/src/reflectable/audio&#45;reflectable.ts -->
<g id="node14" class="node">
<title>packages/UI/view/src/reflectable/audio&#45;reflectable.ts</title>
<g id="a_node14"><a xlink:href="packages/UI/view/src/reflectable/audio-reflectable.ts" xlink:title="audio&#45;reflectable.ts">
<path fill="#ddfeff" stroke="black" d="M919.55,-193.96C919.55,-193.96 827.55,-193.96 827.55,-193.96 824.55,-193.96 821.55,-190.96 821.55,-187.96 821.55,-187.96 821.55,-181.96 821.55,-181.96 821.55,-178.96 824.55,-175.96 827.55,-175.96 827.55,-175.96 919.55,-175.96 919.55,-175.96 922.55,-175.96 925.55,-178.96 925.55,-181.96 925.55,-181.96 925.55,-187.96 925.55,-187.96 925.55,-190.96 922.55,-193.96 919.55,-193.96"/>
<text text-anchor="start" x="829.55" y="-182.76" font-family="Helvetica,sans-Serif" font-size="9.00">audio&#45;reflectable.ts</text>
</a>
</g>
</g>
<!-- packages/UI/spectrogram/src/audio&#45;viewer.ts&#45;&gt;packages/UI/view/src/reflectable/audio&#45;reflectable.ts -->
<g id="edge13" class="edge">
<title>packages/UI/spectrogram/src/audio&#45;viewer.ts&#45;&gt;packages/UI/view/src/reflectable/audio&#45;reflectable.ts</title>
<path fill="none" stroke="#000000" stroke-width="2" stroke-opacity="0.200000" d="M808.33,-172.03C812.79,-172.91 817.35,-173.81 821.88,-174.71"/>
<polygon fill="#000000" fill-opacity="0.200000" stroke="#000000" stroke-width="2" stroke-opacity="0.200000" points="821.75,-176.83 828.05,-175.94 822.57,-172.71 821.75,-176.83"/>
</g>
<!-- packages/UI/view/src/reflectable/audio&#45;reflectable&#45;registry.ts -->
<g id="node15" class="node">
<title>packages/UI/view/src/reflectable/audio&#45;reflectable&#45;registry.ts</title>
<g id="a_node15"><a xlink:href="packages/UI/view/src/reflectable/audio-reflectable-registry.ts" xlink:title="audio&#45;reflectable&#45;registry.ts">
<path fill="#ddfeff" stroke="black" d="M969.56,-73.86C969.56,-73.86 841.56,-73.86 841.56,-73.86 838.56,-73.86 835.56,-70.86 835.56,-67.86 835.56,-67.86 835.56,-61.86 835.56,-61.86 835.56,-58.86 838.56,-55.86 841.56,-55.86 841.56,-55.86 969.56,-55.86 969.56,-55.86 972.56,-55.86 975.56,-58.86 975.56,-61.86 975.56,-61.86 975.56,-67.86 975.56,-67.86 975.56,-70.86 972.56,-73.86 969.56,-73.86"/>
<text text-anchor="start" x="843.56" y="-62.66" font-family="Helvetica,sans-Serif" font-size="9.00">audio&#45;reflectable&#45;registry.ts</text>
</a>
</g>
</g>
<!-- packages/UI/spectrogram/src/audio&#45;viewer.ts&#45;&gt;packages/UI/view/src/reflectable/audio&#45;reflectable&#45;registry.ts -->
<g id="edge14" class="edge">
<title>packages/UI/spectrogram/src/audio&#45;viewer.ts&#45;&gt;packages/UI/view/src/reflectable/audio&#45;reflectable&#45;registry.ts</title>
<path fill="none" stroke="#000000" stroke-width="2" stroke-opacity="0.200000" d="M778.62,-154.47C803.7,-136.76 859.06,-97.68 887.67,-77.49"/>
<polygon fill="#000000" fill-opacity="0.200000" stroke="#000000" stroke-width="2" stroke-opacity="0.200000" points="889,-79.12 892.69,-73.94 886.57,-75.69 889,-79.12"/>
</g>
<!-- packages/UI/spectrogram/src/fft&#45;viewer.ts&#45;&gt;packages/UI/spectrogram/src/audio&#45;analyzer/audio&#45;analyzer.ts -->
<g id="edge15" class="edge">
<title>packages/UI/spectrogram/src/fft&#45;viewer.ts&#45;&gt;packages/UI/spectrogram/src/audio&#45;analyzer/audio&#45;analyzer.ts</title>
<path fill="none" stroke="#000000" stroke-width="2" stroke-opacity="0.200000" d="M748.46,-251.94C722.97,-238.05 674.43,-211.61 646.07,-196.16"/>
<polygon fill="#000000" fill-opacity="0.200000" stroke="#000000" stroke-width="2" stroke-opacity="0.200000" points="646.96,-194.25 640.68,-193.23 644.95,-197.94 646.96,-194.25"/>
</g>
<!-- packages/UI/spectrogram/src/fft&#45;viewer.ts&#45;&gt;packages/UI/view/src/reflectable/audio&#45;reflectable.ts -->
<g id="edge17" class="edge">
<title>packages/UI/spectrogram/src/fft&#45;viewer.ts&#45;&gt;packages/UI/view/src/reflectable/audio&#45;reflectable.ts</title>
<path fill="none" stroke="#000000" stroke-width="2" stroke-opacity="0.200000" d="M778.08,-252.04C797.38,-238.48 833.91,-212.81 855.76,-197.46"/>
<polygon fill="#000000" fill-opacity="0.200000" stroke="#000000" stroke-width="2" stroke-opacity="0.200000" points="857.01,-199.15 860.71,-193.98 854.6,-195.71 857.01,-199.15"/>
</g>
<!-- packages/util/math/src/fft/complex.ts -->
<g id="node16" class="node">
<title>packages/util/math/src/fft/complex.ts</title>
<g id="a_node16"><a xlink:href="packages/util/math/src/fft/complex.ts" xlink:title="complex.ts">
<path fill="#ddfeff" stroke="black" d="M883.47,-401.44C883.47,-401.44 829.47,-401.44 829.47,-401.44 826.47,-401.44 823.47,-398.44 823.47,-395.44 823.47,-395.44 823.47,-389.44 823.47,-389.44 823.47,-386.44 826.47,-383.44 829.47,-383.44 829.47,-383.44 883.47,-383.44 883.47,-383.44 886.47,-383.44 889.47,-386.44 889.47,-389.44 889.47,-389.44 889.47,-395.44 889.47,-395.44 889.47,-398.44 886.47,-401.44 883.47,-401.44"/>
<text text-anchor="start" x="831.47" y="-390.24" font-family="Helvetica,sans-Serif" font-size="9.00">complex.ts</text>
</a>
</g>
</g>
<!-- packages/UI/spectrogram/src/fft&#45;viewer.ts&#45;&gt;packages/util/math/src/fft/complex.ts -->
<g id="edge16" class="edge">
<title>packages/UI/spectrogram/src/fft&#45;viewer.ts&#45;&gt;packages/util/math/src/fft/complex.ts</title>
<path fill="none" stroke="#000000" stroke-width="2" stroke-opacity="0.200000" d="M771.5,-270.1C787.13,-292.6 827.89,-351.29 846.7,-378.37"/>
<polygon fill="#000000" fill-opacity="0.200000" stroke="#000000" stroke-width="2" stroke-opacity="0.200000" points="845.01,-379.62 850.16,-383.35 848.46,-377.22 845.01,-379.62"/>
</g>
<!-- packages/UI/spectrogram/src/spectrogram&#45;viewer.ts&#45;&gt;packages/UI/spectrogram/src/audio&#45;analyzer/audio&#45;analyzer.ts -->
<g id="edge18" class="edge">
<title>packages/UI/spectrogram/src/spectrogram&#45;viewer.ts&#45;&gt;packages/UI/spectrogram/src/audio&#45;analyzer/audio&#45;analyzer.ts</title>
<path fill="none" stroke="#000000" stroke-width="2" stroke-opacity="0.200000" d="M730.8,-82.73C710.34,-102.14 662.1,-147.9 638.07,-170.71"/>
<polygon fill="#000000" fill-opacity="0.200000" stroke="#000000" stroke-width="2" stroke-opacity="0.200000" points="636.51,-169.29 633.6,-174.95 639.4,-172.34 636.51,-169.29"/>
</g>
<!-- packages/UI/spectrogram/src/spectrogram&#45;viewer.ts&#45;&gt;packages/UI/view/src/reflectable/audio&#45;reflectable.ts -->
<g id="edge19" class="edge">
<title>packages/UI/spectrogram/src/spectrogram&#45;viewer.ts&#45;&gt;packages/UI/view/src/reflectable/audio&#45;reflectable.ts</title>
<path fill="none" stroke="#000000" stroke-width="2" stroke-opacity="0.200000" d="M751.23,-82.8C774.75,-102.44 830.33,-148.86 857.72,-171.74"/>
<polygon fill="#000000" fill-opacity="0.200000" stroke="#000000" stroke-width="2" stroke-opacity="0.200000" points="856.54,-173.49 862.5,-175.73 859.24,-170.27 856.54,-173.49"/>
</g>
<!-- packages/UI/spectrogram/src/wave&#45;viewer.ts&#45;&gt;packages/UI/spectrogram/src/audio&#45;analyzer/audio&#45;analyzer.ts -->
<g id="edge20" class="edge">
<title>packages/UI/spectrogram/src/wave&#45;viewer.ts&#45;&gt;packages/UI/spectrogram/src/audio&#45;analyzer/audio&#45;analyzer.ts</title>
<path fill="none" stroke="#000000" stroke-width="2" stroke-opacity="0.200000" d="M731.98,-293.33C711.43,-272.56 661.73,-222.31 637.57,-197.89"/>
<polygon fill="#000000" fill-opacity="0.200000" stroke="#000000" stroke-width="2" stroke-opacity="0.200000" points="638.81,-196.15 633.1,-193.36 635.83,-199.11 638.81,-196.15"/>
</g>
<!-- packages/UI/spectrogram/src/wave&#45;viewer.ts&#45;&gt;packages/UI/view/src/reflectable/audio&#45;reflectable.ts -->
<g id="edge23" class="edge">
<title>packages/UI/spectrogram/src/wave&#45;viewer.ts&#45;&gt;packages/UI/view/src/reflectable/audio&#45;reflectable.ts</title>
<path fill="none" stroke="#000000" stroke-width="2" stroke-opacity="0.200000" d="M751.57,-293.4C774.86,-272.69 831.35,-222.47 858.5,-198.34"/>
<polygon fill="#000000" fill-opacity="0.200000" stroke="#000000" stroke-width="2" stroke-opacity="0.200000" points="860.12,-199.71 863.21,-194.15 857.33,-196.57 860.12,-199.71"/>
</g>
<!-- packages/UI/spectrogram/src/wave&#45;viewer.ts&#45;&gt;packages/util/math/src/fft/complex.ts -->
<g id="edge22" class="edge">
<title>packages/UI/spectrogram/src/wave&#45;viewer.ts&#45;&gt;packages/util/math/src/fft/complex.ts</title>
<path fill="none" stroke="#000000" stroke-width="2" stroke-opacity="0.200000" d="M753.08,-311.9C773.73,-327.99 816.23,-361.09 839.8,-379.45"/>
<polygon fill="#000000" fill-opacity="0.200000" stroke="#000000" stroke-width="2" stroke-opacity="0.200000" points="838.78,-381.32 844.81,-383.35 841.36,-378.01 838.78,-381.32"/>
</g>
<!-- packages/util/math/src/fft/index.ts -->
<g id="node17" class="node">
<title>packages/util/math/src/fft/index.ts</title>
<g id="a_node17"><a xlink:href="packages/util/math/src/fft/index.ts" xlink:title="index.ts">
<path fill="#ddfeff" stroke="black" d="M803.54,-466.19C803.54,-466.19 761.54,-466.19 761.54,-466.19 758.54,-466.19 755.54,-463.19 755.54,-460.19 755.54,-460.19 755.54,-454.19 755.54,-454.19 755.54,-451.19 758.54,-448.19 761.54,-448.19 761.54,-448.19 803.54,-448.19 803.54,-448.19 806.54,-448.19 809.54,-451.19 809.54,-454.19 809.54,-454.19 809.54,-460.19 809.54,-460.19 809.54,-463.19 806.54,-466.19 803.54,-466.19"/>
<text text-anchor="start" x="764.04" y="-454.99" font-family="Helvetica,sans-Serif" font-size="9.00">index.ts</text>
</a>
</g>
</g>
<!-- packages/UI/spectrogram/src/wave&#45;viewer.ts&#45;&gt;packages/util/math/src/fft/index.ts -->
<g id="edge21" class="edge">
<title>packages/UI/spectrogram/src/wave&#45;viewer.ts&#45;&gt;packages/util/math/src/fft/index.ts</title>
<path fill="none" stroke="#000000" stroke-width="2" stroke-opacity="0.200000" d="M743.64,-311.84C750.5,-337.44 769.83,-409.71 778.39,-441.66"/>
<polygon fill="#000000" fill-opacity="0.200000" stroke="#000000" stroke-width="2" stroke-opacity="0.200000" points="776.46,-442.59 780.04,-447.84 780.52,-441.5 776.46,-442.59"/>
</g>
<!-- packages/UI/view/src/reflectable/audio&#45;reflectable&#45;registry.ts&#45;&gt;packages/UI/view/src/reflectable/audio&#45;reflectable.ts -->
<g id="edge24" class="edge">
<title>packages/UI/view/src/reflectable/audio&#45;reflectable&#45;registry.ts&#45;&gt;packages/UI/view/src/reflectable/audio&#45;reflectable.ts</title>
<path fill="none" stroke="#000000" stroke-width="2" stroke-opacity="0.200000" d="M903.16,-73.88C897.69,-94.4 884.27,-144.72 877.54,-169.98"/>
<polygon fill="#000000" fill-opacity="0.200000" stroke="#000000" stroke-width="2" stroke-opacity="0.200000" points="875.5,-169.49 875.98,-175.83 879.56,-170.57 875.5,-169.49"/>
</g>
<!-- packages/util/math/src/fft/index.ts&#45;&gt;packages/util/math/src/fft/complex.ts -->
<g id="edge33" class="edge">
<title>packages/util/math/src/fft/index.ts&#45;&gt;packages/util/math/src/fft/complex.ts</title>
<path fill="none" stroke="#000000" stroke-width="2" stroke-opacity="0.200000" d="M792.82,-448.19C805.37,-437.2 826.7,-418.52 841.18,-405.84"/>
<polygon fill="#000000" fill-opacity="0.200000" stroke="#000000" stroke-width="2" stroke-opacity="0.200000" points="842.67,-407.32 845.8,-401.79 839.91,-404.16 842.67,-407.32"/>
</g>
<!-- packages/util/math/src/fft/ftt&#45;core.ts -->
<g id="node22" class="node">
<title>packages/util/math/src/fft/ftt&#45;core.ts</title>
<g id="a_node22"><a xlink:href="packages/util/math/src/fft/ftt-core.ts" xlink:title="ftt&#45;core.ts">
<path fill="#ddfeff" stroke="black" d="M967.35,-502.7C967.35,-502.7 918.35,-502.7 918.35,-502.7 915.35,-502.7 912.35,-499.7 912.35,-496.7 912.35,-496.7 912.35,-490.7 912.35,-490.7 912.35,-487.7 915.35,-484.7 918.35,-484.7 918.35,-484.7 967.35,-484.7 967.35,-484.7 970.35,-484.7 973.35,-487.7 973.35,-490.7 973.35,-490.7 973.35,-496.7 973.35,-496.7 973.35,-499.7 970.35,-502.7 967.35,-502.7"/>
<text text-anchor="start" x="920.35" y="-491.5" font-family="Helvetica,sans-Serif" font-size="9.00">ftt&#45;core.ts</text>
</a>
</g>
</g>
<!-- packages/util/math/src/fft/index.ts&#45;&gt;packages/util/math/src/fft/ftt&#45;core.ts -->
<g id="edge34" class="edge">
<title>packages/util/math/src/fft/index.ts&#45;&gt;packages/util/math/src/fft/ftt&#45;core.ts</title>
<path fill="none" stroke="#000000" stroke-width="2" stroke-opacity="0.200000" d="M809.74,-463.39C836.26,-469.43 876.78,-478.65 906.14,-485.34"/>
<polygon fill="#000000" fill-opacity="0.200000" stroke="#000000" stroke-width="2" stroke-opacity="0.200000" points="905.91,-487.45 912.23,-486.73 906.85,-483.35 905.91,-487.45"/>
</g>
<!-- packages/util/math/src/fft/root&#45;of&#45;unity.ts -->
<g id="node23" class="node">
<title>packages/util/math/src/fft/root&#45;of&#45;unity.ts</title>
<g id="a_node23"><a xlink:href="packages/util/math/src/fft/root-of-unity.ts" xlink:title="root&#45;of&#45;unity.ts">
<path fill="#ddfeff" stroke="black" d="M887.02,-568.52C887.02,-568.52 816.02,-568.52 816.02,-568.52 813.02,-568.52 810.02,-565.52 810.02,-562.52 810.02,-562.52 810.02,-556.52 810.02,-556.52 810.02,-553.52 813.02,-550.52 816.02,-550.52 816.02,-550.52 887.02,-550.52 887.02,-550.52 890.02,-550.52 893.02,-553.52 893.02,-556.52 893.02,-556.52 893.02,-562.52 893.02,-562.52 893.02,-565.52 890.02,-568.52 887.02,-568.52"/>
<text text-anchor="start" x="818.02" y="-557.32" font-family="Helvetica,sans-Serif" font-size="9.00">root&#45;of&#45;unity.ts</text>
</a>
</g>
</g>
<!-- packages/util/math/src/fft/index.ts&#45;&gt;packages/util/math/src/fft/root&#45;of&#45;unity.ts -->
<g id="edge35" class="edge">
<title>packages/util/math/src/fft/index.ts&#45;&gt;packages/util/math/src/fft/root&#45;of&#45;unity.ts</title>
<path fill="none" stroke="#000000" stroke-width="2" stroke-opacity="0.200000" d="M788.66,-466.27C800.7,-484.13 827.53,-523.93 841.94,-545.3"/>
<polygon fill="#000000" fill-opacity="0.200000" stroke="#000000" stroke-width="2" stroke-opacity="0.200000" points="840.22,-546.51 845.32,-550.31 843.7,-544.16 840.22,-546.51"/>
</g>
<!-- packages/util/math/src/fft/typed&#45;array.ts -->
<g id="node19" class="node">
<title>packages/util/math/src/fft/typed&#45;array.ts</title>
<g id="a_node19"><a xlink:href="packages/util/math/src/fft/typed-array.ts" xlink:title="typed&#45;array.ts">
<path fill="#ddfeff" stroke="black" d="M73,-125.35C73,-125.35 6,-125.35 6,-125.35 3,-125.35 0,-122.35 0,-119.35 0,-119.35 0,-113.35 0,-113.35 0,-110.35 3,-107.35 6,-107.35 6,-107.35 73,-107.35 73,-107.35 76,-107.35 79,-110.35 79,-113.35 79,-113.35 79,-119.35 79,-119.35 79,-122.35 76,-125.35 73,-125.35"/>
<text text-anchor="start" x="8" y="-114.15" font-family="Helvetica,sans-Serif" font-size="9.00">typed&#45;array.ts</text>
</a>
</g>
</g>
<!-- packages/util/math/src/fft/array/complex.ts&#45;&gt;packages/util/math/src/fft/typed&#45;array.ts -->
<g id="edge25" class="edge">
<title>packages/util/math/src/fft/array/complex.ts&#45;&gt;packages/util/math/src/fft/typed&#45;array.ts</title>
<path fill="none" stroke="#000000" stroke-width="2" stroke-opacity="0.200000" d="M143.1,-102.04C125.78,-104.43 104.3,-107.4 85.4,-110.01"/>
<polygon fill="#000000" fill-opacity="0.200000" stroke="#000000" stroke-width="2" stroke-opacity="0.200000" points="84.75,-107.98 79.09,-110.88 85.32,-112.14 84.75,-107.98"/>
</g>
<!-- packages/util/math/src/fft/array/ftt&#45;core.ts&#45;&gt;packages/util/math/src/fft/array/complex.ts -->
<g id="edge27" class="edge">
<title>packages/util/math/src/fft/array/ftt&#45;core.ts&#45;&gt;packages/util/math/src/fft/array/complex.ts</title>
<path fill="none" stroke="#000000" stroke-width="2" stroke-opacity="0.200000" d="M152.51,-214.77C156.85,-193.27 167.78,-139.11 173.14,-112.58"/>
<polygon fill="#000000" fill-opacity="0.200000" stroke="#000000" stroke-width="2" stroke-opacity="0.200000" points="175.24,-112.77 174.37,-106.47 171.12,-111.94 175.24,-112.77"/>
</g>
<!-- packages/util/math/src/fft/array/ftt&#45;core.ts&#45;&gt;packages/util/math/src/fft/typed&#45;array.ts -->
<g id="edge26" class="edge">
<title>packages/util/math/src/fft/array/ftt&#45;core.ts&#45;&gt;packages/util/math/src/fft/typed&#45;array.ts</title>
<path fill="none" stroke="#000000" stroke-width="2" stroke-opacity="0.200000" d="M141.19,-214.69C121.59,-195.73 76.48,-152.11 53.5,-129.9"/>
<polygon fill="#000000" fill-opacity="0.200000" stroke="#000000" stroke-width="2" stroke-opacity="0.200000" points="54.73,-128.16 48.95,-125.5 51.81,-131.18 54.73,-128.16"/>
</g>
<!-- packages/util/math/src/fft/array/root&#45;of&#45;unity.ts -->
<g id="node21" class="node">
<title>packages/util/math/src/fft/array/root&#45;of&#45;unity.ts</title>
<g id="a_node21"><a xlink:href="packages/util/math/src/fft/array/root-of-unity.ts" xlink:title="root&#45;of&#45;unity.ts">
<path fill="#ddfeff" stroke="black" d="M88.57,-348.09C88.57,-348.09 17.57,-348.09 17.57,-348.09 14.57,-348.09 11.57,-345.09 11.57,-342.09 11.57,-342.09 11.57,-336.09 11.57,-336.09 11.57,-333.09 14.57,-330.09 17.57,-330.09 17.57,-330.09 88.57,-330.09 88.57,-330.09 91.57,-330.09 94.57,-333.09 94.57,-336.09 94.57,-336.09 94.57,-342.09 94.57,-342.09 94.57,-345.09 91.57,-348.09 88.57,-348.09"/>
<text text-anchor="start" x="19.57" y="-336.89" font-family="Helvetica,sans-Serif" font-size="9.00">root&#45;of&#45;unity.ts</text>
</a>
</g>
</g>
<!-- packages/util/math/src/fft/array/ftt&#45;core.ts&#45;&gt;packages/util/math/src/fft/array/root&#45;of&#45;unity.ts -->
<g id="edge28" class="edge">
<title>packages/util/math/src/fft/array/ftt&#45;core.ts&#45;&gt;packages/util/math/src/fft/array/root&#45;of&#45;unity.ts</title>
<path fill="none" stroke="#000000" stroke-width="2" stroke-opacity="0.200000" d="M143.01,-232.9C126.06,-252.91 85.28,-301.06 64.97,-325.04"/>
<polygon fill="#000000" fill-opacity="0.200000" stroke="#000000" stroke-width="2" stroke-opacity="0.200000" points="63.24,-323.83 60.96,-329.77 66.44,-326.55 63.24,-323.83"/>
</g>
<!-- packages/util/math/src/fft/ftt&#45;core.ts&#45;&gt;packages/util/math/src/fft/complex.ts -->
<g id="edge31" class="edge">
<title>packages/util/math/src/fft/ftt&#45;core.ts&#45;&gt;packages/util/math/src/fft/complex.ts</title>
<path fill="none" stroke="#000000" stroke-width="2" stroke-opacity="0.200000" d="M934.88,-484.36C919.57,-466.41 885.98,-427.04 868.15,-406.12"/>
<polygon fill="#000000" fill-opacity="0.200000" stroke="#000000" stroke-width="2" stroke-opacity="0.200000" points="869.67,-404.67 864.18,-401.47 866.47,-407.4 869.67,-404.67"/>
</g>
<!-- packages/util/math/src/fft/ftt&#45;core.ts&#45;&gt;packages/util/math/src/fft/root&#45;of&#45;unity.ts -->
<g id="edge32" class="edge">
<title>packages/util/math/src/fft/ftt&#45;core.ts&#45;&gt;packages/util/math/src/fft/root&#45;of&#45;unity.ts</title>
<path fill="none" stroke="#000000" stroke-width="2" stroke-opacity="0.200000" d="M930.15,-502.86C914.34,-514.25 887.23,-533.78 869.35,-546.67"/>
<polygon fill="#000000" fill-opacity="0.200000" stroke="#000000" stroke-width="2" stroke-opacity="0.200000" points="867.75,-545.23 864.11,-550.45 870.21,-548.64 867.75,-545.23"/>
</g>
<!-- packages/util/math/src/fft/root&#45;of&#45;unity.ts&#45;&gt;packages/util/math/src/fft/complex.ts -->
<g id="edge36" class="edge">
<title>packages/util/math/src/fft/root&#45;of&#45;unity.ts&#45;&gt;packages/util/math/src/fft/complex.ts</title>
<path fill="none" stroke="#000000" stroke-width="2" stroke-opacity="0.200000" d="M851.8,-550.06C852.62,-522.49 855,-442.03 856.01,-407.96"/>
<polygon fill="#000000" fill-opacity="0.200000" stroke="#000000" stroke-width="2" stroke-opacity="0.200000" points="858.12,-407.86 856.2,-401.8 853.92,-407.73 858.12,-407.86"/>
</g>
</g>
</svg>
