<?xml version="1.0" encoding="UTF-8" standalone="no"?>
<!DOCTYPE svg PUBLIC "-//W3C//DTD SVG 1.1//EN"
 "http://www.w3.org/Graphics/SVG/1.1/DTD/svg11.dtd">
<!-- Generated by graphviz version 2.43.0 (0)
 -->
<!-- Title: dependency&#45;cruiser output Pages: 1 -->
<svg width="1137pt" height="670pt"
 viewBox="0.00 0.00 1137.00 670.00" xmlns="http://www.w3.org/2000/svg" xmlns:xlink="http://www.w3.org/1999/xlink">
<g id="graph0" class="graph" transform="scale(1 1) rotate(0) translate(4 666)">
<title>dependency&#45;cruiser output</title>
<polygon fill="white" stroke="transparent" points="-4,4 -4,-666 1133,-666 1133,4 -4,4"/>
<g id="clust1" class="cluster">
<title>cluster_packages</title>
<path fill="#ffffff" stroke="black" stroke-width="2" d="M20,-8C20,-8 1109,-8 1109,-8 1115,-8 1121,-14 1121,-20 1121,-20 1121,-642 1121,-642 1121,-648 1115,-654 1109,-654 1109,-654 20,-654 20,-654 14,-654 8,-648 8,-642 8,-642 8,-20 8,-20 8,-14 14,-8 20,-8"/>
<text text-anchor="middle" x="564.5" y="-642.8" font-family="Helvetica,sans-Serif" font-weight="bold" font-size="9.00">packages</text>
</g>
<g id="clust2" class="cluster">
<title>cluster_packages/UI</title>
<path fill="#ffffff" stroke="black" stroke-width="2" d="M28,-16C28,-16 896,-16 896,-16 902,-16 908,-22 908,-28 908,-28 908,-330 908,-330 908,-336 902,-342 896,-342 896,-342 28,-342 28,-342 22,-342 16,-336 16,-330 16,-330 16,-28 16,-28 16,-22 22,-16 28,-16"/>
<text text-anchor="middle" x="462" y="-330.8" font-family="Helvetica,sans-Serif" font-weight="bold" font-size="9.00">UI</text>
</g>
<g id="clust3" class="cluster">
<title>cluster_packages/UI/spectrogram</title>
<path fill="#ffffff" stroke="black" stroke-width="2" d="M36,-24C36,-24 888,-24 888,-24 894,-24 900,-30 900,-36 900,-36 900,-176 900,-176 900,-182 894,-188 888,-188 888,-188 36,-188 36,-188 30,-188 24,-182 24,-176 24,-176 24,-36 24,-36 24,-30 30,-24 36,-24"/>
<text text-anchor="middle" x="462" y="-176.8" font-family="Helvetica,sans-Serif" font-weight="bold" font-size="9.00">spectrogram</text>
</g>
<g id="clust4" class="cluster">
<title>cluster_packages/UI/spectrogram/src</title>
<path fill="#ffffff" stroke="black" stroke-width="2" d="M106,-32C106,-32 880,-32 880,-32 886,-32 892,-38 892,-44 892,-44 892,-150 892,-150 892,-156 886,-162 880,-162 880,-162 106,-162 106,-162 100,-162 94,-156 94,-150 94,-150 94,-44 94,-44 94,-38 100,-32 106,-32"/>
<text text-anchor="middle" x="493" y="-150.8" font-family="Helvetica,sans-Serif" font-weight="bold" font-size="9.00">src</text>
</g>
<g id="clust5" class="cluster">
<title>cluster_packages/UI/spectrogram/src/audio&#45;analyzer</title>
<path fill="#ffffff" stroke="black" stroke-width="2" d="M448.5,-40C448.5,-40 872,-40 872,-40 878,-40 884,-46 884,-52 884,-52 884,-124 884,-124 884,-130 878,-136 872,-136 872,-136 448.5,-136 448.5,-136 442.5,-136 436.5,-130 436.5,-124 436.5,-124 436.5,-52 436.5,-52 436.5,-46 442.5,-40 448.5,-40"/>
<text text-anchor="middle" x="660.25" y="-124.8" font-family="Helvetica,sans-Serif" font-weight="bold" font-size="9.00">audio&#45;analyzer</text>
</g>
<g id="clust6" class="cluster">
<title>cluster_packages/UI/view</title>
<path fill="#ffffff" stroke="black" stroke-width="2" d="M274,-196C274,-196 555,-196 555,-196 561,-196 567,-202 567,-208 567,-208 567,-304 567,-304 567,-310 561,-316 555,-316 555,-316 274,-316 274,-316 268,-316 262,-310 262,-304 262,-304 262,-208 262,-208 262,-202 268,-196 274,-196"/>
<text text-anchor="middle" x="414.5" y="-304.8" font-family="Helvetica,sans-Serif" font-weight="bold" font-size="9.00">view</text>
</g>
<g id="clust7" class="cluster">
<title>cluster_packages/UI/view/src</title>
<path fill="#ffffff" stroke="black" stroke-width="2" d="M282,-204C282,-204 547,-204 547,-204 553,-204 559,-210 559,-216 559,-216 559,-278 559,-278 559,-284 553,-290 547,-290 547,-290 282,-290 282,-290 276,-290 270,-284 270,-278 270,-278 270,-216 270,-216 270,-210 276,-204 282,-204"/>
<text text-anchor="middle" x="414.5" y="-278.8" font-family="Helvetica,sans-Serif" font-weight="bold" font-size="9.00">src</text>
</g>
<g id="clust8" class="cluster">
<title>cluster_packages/UI/view/src/reflectable</title>
<path fill="#ffffff" stroke="black" stroke-width="2" d="M290,-212C290,-212 539,-212 539,-212 545,-212 551,-218 551,-224 551,-224 551,-252 551,-252 551,-258 545,-264 539,-264 539,-264 290,-264 290,-264 284,-264 278,-258 278,-252 278,-252 278,-224 278,-224 278,-218 284,-212 290,-212"/>
<text text-anchor="middle" x="414.5" y="-252.8" font-family="Helvetica,sans-Serif" font-weight="bold" font-size="9.00">reflectable</text>
</g>
<g id="clust9" class="cluster">
<title>cluster_packages/util</title>
<path fill="#ffffff" stroke="black" stroke-width="2" d="M766,-350C766,-350 1101,-350 1101,-350 1107,-350 1113,-356 1113,-362 1113,-362 1113,-616 1113,-616 1113,-622 1107,-628 1101,-628 1101,-628 766,-628 766,-628 760,-628 754,-622 754,-616 754,-616 754,-362 754,-362 754,-356 760,-350 766,-350"/>
<text text-anchor="middle" x="933.5" y="-616.8" font-family="Helvetica,sans-Serif" font-weight="bold" font-size="9.00">util</text>
</g>
<g id="clust10" class="cluster">
<title>cluster_packages/util/math</title>
<path fill="#ffffff" stroke="black" stroke-width="2" d="M774,-358C774,-358 1093,-358 1093,-358 1099,-358 1105,-364 1105,-370 1105,-370 1105,-590 1105,-590 1105,-596 1099,-602 1093,-602 1093,-602 774,-602 774,-602 768,-602 762,-596 762,-590 762,-590 762,-370 762,-370 762,-364 768,-358 774,-358"/>
<text text-anchor="middle" x="933.5" y="-590.8" font-family="Helvetica,sans-Serif" font-weight="bold" font-size="9.00">math</text>
</g>
<g id="clust11" class="cluster">
<title>cluster_packages/util/math/dist</title>
<path fill="#ffffff" stroke="black" stroke-width="2" d="M798,-524C798,-524 844,-524 844,-524 850,-524 856,-530 856,-536 856,-536 856,-564 856,-564 856,-570 850,-576 844,-576 844,-576 798,-576 798,-576 792,-576 786,-570 786,-564 786,-564 786,-536 786,-536 786,-530 792,-524 798,-524"/>
<text text-anchor="middle" x="821" y="-564.8" font-family="Helvetica,sans-Serif" font-weight="bold" font-size="9.00">dist</text>
</g>
<g id="clust12" class="cluster">
<title>cluster_packages/util/math/src</title>
<path fill="#ffffff" stroke="black" stroke-width="2" d="M782,-366C782,-366 1085,-366 1085,-366 1091,-366 1097,-372 1097,-378 1097,-378 1097,-504 1097,-504 1097,-510 1091,-516 1085,-516 1085,-516 782,-516 782,-516 776,-516 770,-510 770,-504 770,-504 770,-378 770,-378 770,-372 776,-366 782,-366"/>
<text text-anchor="middle" x="933.5" y="-504.8" font-family="Helvetica,sans-Serif" font-weight="bold" font-size="9.00">src</text>
</g>
<g id="clust13" class="cluster">
<title>cluster_packages/util/math/src/fft</title>
<path fill="#ffffff" stroke="black" stroke-width="2" d="M790,-374C790,-374 1077,-374 1077,-374 1083,-374 1089,-380 1089,-386 1089,-386 1089,-478 1089,-478 1089,-484 1083,-490 1077,-490 1077,-490 790,-490 790,-490 784,-490 778,-484 778,-478 778,-478 778,-386 778,-386 778,-380 784,-374 790,-374"/>
<text text-anchor="middle" x="933.5" y="-478.8" font-family="Helvetica,sans-Serif" font-weight="bold" font-size="9.00">fft</text>
</g>
<g id="clust14" class="cluster">
<title>cluster_packages/util/math/src/fft/array</title>
<path fill="#ffffff" stroke="black" stroke-width="2" d="M798,-382C798,-382 1069,-382 1069,-382 1075,-382 1081,-388 1081,-394 1081,-394 1081,-452 1081,-452 1081,-458 1075,-464 1069,-464 1069,-464 798,-464 798,-464 792,-464 786,-458 786,-452 786,-452 786,-394 786,-394 786,-388 792,-382 798,-382"/>
<text text-anchor="middle" x="933.5" y="-452.8" font-family="Helvetica,sans-Serif" font-weight="bold" font-size="9.00">array</text>
</g>
<!-- packages/UI/spectrogram/index.ts -->
<g id="node1" class="node">
<title>packages/UI/spectrogram/index.ts</title>
<g id="a_node1"><a xlink:href="packages/UI/spectrogram/index.ts" xlink:title="index.ts">
<path fill="#ddfeff" stroke="black" d="M80,-121C80,-121 38,-121 38,-121 35,-121 32,-118 32,-115 32,-115 32,-109 32,-109 32,-106 35,-103 38,-103 38,-103 80,-103 80,-103 83,-103 86,-106 86,-109 86,-109 86,-115 86,-115 86,-118 83,-121 80,-121"/>
<text text-anchor="start" x="40.5" y="-109.8" font-family="Helvetica,sans-Serif" font-size="9.00">index.ts</text>
</a>
</g>
</g>
<!-- packages/UI/spectrogram/src/index.ts -->
<g id="node2" class="node">
<title>packages/UI/spectrogram/src/index.ts</title>
<g id="a_node2"><a xlink:href="packages/UI/spectrogram/src/index.ts" xlink:title="index.ts">
<path fill="#ddfeff" stroke="black" d="M150,-121C150,-121 108,-121 108,-121 105,-121 102,-118 102,-115 102,-115 102,-109 102,-109 102,-106 105,-103 108,-103 108,-103 150,-103 150,-103 153,-103 156,-106 156,-109 156,-109 156,-115 156,-115 156,-118 153,-121 150,-121"/>
<text text-anchor="start" x="110.5" y="-109.8" font-family="Helvetica,sans-Serif" font-size="9.00">index.ts</text>
</a>
</g>
</g>
<!-- packages/UI/spectrogram/index.ts&#45;&gt;packages/UI/spectrogram/src/index.ts -->
<g id="edge1" class="edge">
<title>packages/UI/spectrogram/index.ts&#45;&gt;packages/UI/spectrogram/src/index.ts</title>
<path fill="none" stroke="#000000" stroke-width="2" stroke-opacity="0.200000" d="M86.1,-112C89.12,-112 92.23,-112 95.33,-112"/>
<polygon fill="#000000" fill-opacity="0.200000" stroke="#000000" stroke-width="2" stroke-opacity="0.200000" points="101.64,-114.1 95.64,-112 101.64,-109.9 101.64,-114.1"/>
</g>
<!-- packages/UI/spectrogram/src/audio&#45;viewer.ts -->
<g id="node10" class="node">
<title>packages/UI/spectrogram/src/audio&#45;viewer.ts</title>
<g id="a_node10"><a xlink:href="packages/UI/spectrogram/src/audio-viewer.ts" xlink:title="audio&#45;viewer.ts">
<path fill="#ddfeff" stroke="black" d="M248,-121C248,-121 175,-121 175,-121 172,-121 169,-118 169,-115 169,-115 169,-109 169,-109 169,-106 172,-103 175,-103 175,-103 248,-103 248,-103 251,-103 254,-106 254,-109 254,-109 254,-115 254,-115 254,-118 251,-121 248,-121"/>
<text text-anchor="start" x="177" y="-109.8" font-family="Helvetica,sans-Serif" font-size="9.00">audio&#45;viewer.ts</text>
</a>
</g>
</g>
<!-- packages/UI/spectrogram/src/index.ts&#45;&gt;packages/UI/spectrogram/src/audio&#45;viewer.ts -->
<g id="edge17" class="edge">
<title>packages/UI/spectrogram/src/index.ts&#45;&gt;packages/UI/spectrogram/src/audio&#45;viewer.ts</title>
<path fill="none" stroke="#000000" stroke-width="2" stroke-opacity="0.200000" d="M156.36,-112C158.38,-112 160.45,-112 162.55,-112"/>
<polygon fill="#000000" fill-opacity="0.200000" stroke="#000000" stroke-width="2" stroke-opacity="0.200000" points="168.91,-114.1 162.91,-112 168.91,-109.9 168.91,-114.1"/>
</g>
<!-- packages/UI/spectrogram/src/audio&#45;analyzer/audio&#45;analyzer.ts -->
<g id="node3" class="node">
<title>packages/UI/spectrogram/src/audio&#45;analyzer/audio&#45;analyzer.ts</title>
<g id="a_node3"><a xlink:href="packages/UI/spectrogram/src/audio-analyzer/audio-analyzer.ts" xlink:title="audio&#45;analyzer.ts">
<path fill="#ddfeff" stroke="black" d="M662,-80C662,-80 581,-80 581,-80 578,-80 575,-77 575,-74 575,-74 575,-68 575,-68 575,-65 578,-62 581,-62 581,-62 662,-62 662,-62 665,-62 668,-65 668,-68 668,-68 668,-74 668,-74 668,-77 665,-80 662,-80"/>
<text text-anchor="start" x="583" y="-68.8" font-family="Helvetica,sans-Serif" font-size="9.00">audio&#45;analyzer.ts</text>
</a>
</g>
</g>
<!-- packages/UI/spectrogram/src/audio&#45;analyzer/connect.ts -->
<g id="node4" class="node">
<title>packages/UI/spectrogram/src/audio&#45;analyzer/connect.ts</title>
<g id="a_node4"><a xlink:href="packages/UI/spectrogram/src/audio-analyzer/connect.ts" xlink:title="connect.ts">
<path fill="#ddfeff" stroke="black" d="M740,-110C740,-110 687,-110 687,-110 684,-110 681,-107 681,-104 681,-104 681,-98 681,-98 681,-95 684,-92 687,-92 687,-92 740,-92 740,-92 743,-92 746,-95 746,-98 746,-98 746,-104 746,-104 746,-107 743,-110 740,-110"/>
<text text-anchor="start" x="689" y="-98.8" font-family="Helvetica,sans-Serif" font-size="9.00">connect.ts</text>
</a>
</g>
</g>
<!-- packages/UI/spectrogram/src/audio&#45;analyzer/audio&#45;analyzer.ts&#45;&gt;packages/UI/spectrogram/src/audio&#45;analyzer/connect.ts -->
<g id="edge2" class="edge">
<title>packages/UI/spectrogram/src/audio&#45;analyzer/audio&#45;analyzer.ts&#45;&gt;packages/UI/spectrogram/src/audio&#45;analyzer/connect.ts</title>
<path fill="none" stroke="#000000" stroke-width="2" stroke-opacity="0.200000" d="M649.5,-80C658.94,-83.15 669.64,-86.71 679.51,-90"/>
<polygon fill="#000000" fill-opacity="0.200000" stroke="#000000" stroke-width="2" stroke-opacity="0.200000" points="678.85,-92 685.21,-91.9 680.18,-88.01 678.85,-92"/>
</g>
<!-- packages/UI/spectrogram/src/audio&#45;analyzer/get&#45;data&#45;on&#45;buffer.ts -->
<g id="node5" class="node">
<title>packages/UI/spectrogram/src/audio&#45;analyzer/get&#45;data&#45;on&#45;buffer.ts</title>
<g id="a_node5"><a xlink:href="packages/UI/spectrogram/src/audio-analyzer/get-data-on-buffer.ts" xlink:title="get&#45;data&#45;on&#45;buffer.ts">
<path fill="#ddfeff" stroke="black" d="M870,-73C870,-73 772,-73 772,-73 769,-73 766,-70 766,-67 766,-67 766,-61 766,-61 766,-58 769,-55 772,-55 772,-55 870,-55 870,-55 873,-55 876,-58 876,-61 876,-61 876,-67 876,-67 876,-70 873,-73 870,-73"/>
<text text-anchor="start" x="774" y="-61.8" font-family="Helvetica,sans-Serif" font-size="9.00">get&#45;data&#45;on&#45;buffer.ts</text>
</a>
</g>
</g>
<!-- packages/UI/spectrogram/src/audio&#45;analyzer/audio&#45;analyzer.ts&#45;&gt;packages/UI/spectrogram/src/audio&#45;analyzer/get&#45;data&#45;on&#45;buffer.ts -->
<g id="edge3" class="edge">
<title>packages/UI/spectrogram/src/audio&#45;analyzer/audio&#45;analyzer.ts&#45;&gt;packages/UI/spectrogram/src/audio&#45;analyzer/get&#45;data&#45;on&#45;buffer.ts</title>
<path fill="none" stroke="#000000" stroke-width="2" stroke-opacity="0.200000" d="M668.02,-69.37C695.33,-68.41 730.15,-67.19 759.68,-66.15"/>
<polygon fill="#000000" fill-opacity="0.200000" stroke="#000000" stroke-width="2" stroke-opacity="0.200000" points="759.97,-68.24 765.89,-65.93 759.82,-64.05 759.97,-68.24"/>
</g>
<!-- packages/UI/spectrogram/src/audio&#45;analyzer/get&#45;fft.ts -->
<g id="node6" class="node">
<title>packages/UI/spectrogram/src/audio&#45;analyzer/get&#45;fft.ts</title>
<g id="a_node6"><a xlink:href="packages/UI/spectrogram/src/audio-analyzer/get-fft.ts" xlink:title="get&#45;fft.ts">
<path fill="#ddfeff" stroke="black" d="M735.5,-80C735.5,-80 691.5,-80 691.5,-80 688.5,-80 685.5,-77 685.5,-74 685.5,-74 685.5,-68 685.5,-68 685.5,-65 688.5,-62 691.5,-62 691.5,-62 735.5,-62 735.5,-62 738.5,-62 741.5,-65 741.5,-68 741.5,-68 741.5,-74 741.5,-74 741.5,-77 738.5,-80 735.5,-80"/>
<text text-anchor="start" x="693.5" y="-68.8" font-family="Helvetica,sans-Serif" font-size="9.00">get&#45;fft.ts</text>
</a>
</g>
</g>
<!-- packages/UI/spectrogram/src/audio&#45;analyzer/audio&#45;analyzer.ts&#45;&gt;packages/UI/spectrogram/src/audio&#45;analyzer/get&#45;fft.ts -->
<g id="edge4" class="edge">
<title>packages/UI/spectrogram/src/audio&#45;analyzer/audio&#45;analyzer.ts&#45;&gt;packages/UI/spectrogram/src/audio&#45;analyzer/get&#45;fft.ts</title>
<path fill="none" stroke="#000000" stroke-width="2" stroke-opacity="0.200000" d="M668.03,-71C671.83,-71 675.62,-71 679.3,-71"/>
<polygon fill="#000000" fill-opacity="0.200000" stroke="#000000" stroke-width="2" stroke-opacity="0.200000" points="679.37,-73.1 685.37,-71 679.37,-68.9 679.37,-73.1"/>
</g>
<!-- packages/UI/spectrogram/src/audio&#45;analyzer/get&#45;fft.ts&#45;&gt;packages/UI/spectrogram/src/audio&#45;analyzer/get&#45;data&#45;on&#45;buffer.ts -->
<g id="edge5" class="edge">
<title>packages/UI/spectrogram/src/audio&#45;analyzer/get&#45;fft.ts&#45;&gt;packages/UI/spectrogram/src/audio&#45;analyzer/get&#45;data&#45;on&#45;buffer.ts</title>
<path fill="none" stroke="#000000" stroke-width="2" stroke-opacity="0.200000" d="M741.67,-69.2C747.26,-68.83 753.35,-68.42 759.58,-68.01"/>
<polygon fill="#000000" fill-opacity="0.200000" stroke="#000000" stroke-width="2" stroke-opacity="0.200000" points="760.01,-70.09 765.86,-67.59 759.73,-65.89 760.01,-70.09"/>
</g>
<!-- packages/util/math/src/fft/array/index.ts -->
<g id="node8" class="node">
<title>packages/util/math/src/fft/array/index.ts</title>
<g id="a_node8"><a xlink:href="packages/util/math/src/fft/array/index.ts" xlink:title="index.ts">
<path fill="#ddfeff" stroke="black" d="M842,-408C842,-408 800,-408 800,-408 797,-408 794,-405 794,-402 794,-402 794,-396 794,-396 794,-393 797,-390 800,-390 800,-390 842,-390 842,-390 845,-390 848,-393 848,-396 848,-396 848,-402 848,-402 848,-405 845,-408 842,-408"/>
<text text-anchor="start" x="802.5" y="-396.8" font-family="Helvetica,sans-Serif" font-size="9.00">index.ts</text>
</a>
</g>
</g>
<!-- packages/UI/spectrogram/src/audio&#45;analyzer/get&#45;fft.ts&#45;&gt;packages/util/math/src/fft/array/index.ts -->
<g id="edge6" class="edge">
<title>packages/UI/spectrogram/src/audio&#45;analyzer/get&#45;fft.ts&#45;&gt;packages/util/math/src/fft/array/index.ts</title>
<path fill="none" stroke="#000000" stroke-width="2" stroke-opacity="0.200000" d="M717.43,-80.11C732.01,-125.44 796.74,-326.69 815.12,-383.83"/>
<polygon fill="#000000" fill-opacity="0.200000" stroke="#000000" stroke-width="2" stroke-opacity="0.200000" points="813.2,-384.7 817.03,-389.77 817.19,-383.42 813.2,-384.7"/>
</g>
<!-- packages/UI/spectrogram/src/audio&#45;analyzer/cosine&#45;window.ts -->
<g id="node7" class="node">
<title>packages/UI/spectrogram/src/audio&#45;analyzer/cosine&#45;window.ts</title>
<g id="a_node7"><a xlink:href="packages/UI/spectrogram/src/audio-analyzer/cosine-window.ts" xlink:title="no&#45;orphans">
<path fill="#ccffcc" stroke="orange" d="M531.5,-110C531.5,-110 450.5,-110 450.5,-110 447.5,-110 444.5,-107 444.5,-104 444.5,-104 444.5,-98 444.5,-98 444.5,-95 447.5,-92 450.5,-92 450.5,-92 531.5,-92 531.5,-92 534.5,-92 537.5,-95 537.5,-98 537.5,-98 537.5,-104 537.5,-104 537.5,-107 534.5,-110 531.5,-110"/>
<text text-anchor="start" x="452.5" y="-98.8" font-family="Helvetica,sans-Serif" font-size="9.00" fill="orange">cosine&#45;window.ts</text>
</a>
</g>
</g>
<!-- packages/util/math/src/fft/array/complex.ts -->
<g id="node17" class="node">
<title>packages/util/math/src/fft/array/complex.ts</title>
<g id="a_node17"><a xlink:href="packages/util/math/src/fft/array/complex.ts" xlink:title="complex.ts">
<path fill="#ddfeff" stroke="black" d="M1058.5,-408C1058.5,-408 1004.5,-408 1004.5,-408 1001.5,-408 998.5,-405 998.5,-402 998.5,-402 998.5,-396 998.5,-396 998.5,-393 1001.5,-390 1004.5,-390 1004.5,-390 1058.5,-390 1058.5,-390 1061.5,-390 1064.5,-393 1064.5,-396 1064.5,-396 1064.5,-402 1064.5,-402 1064.5,-405 1061.5,-408 1058.5,-408"/>
<text text-anchor="start" x="1006.5" y="-396.8" font-family="Helvetica,sans-Serif" font-size="9.00">complex.ts</text>
</a>
</g>
</g>
<!-- packages/util/math/src/fft/array/index.ts&#45;&gt;packages/util/math/src/fft/array/complex.ts -->
<g id="edge26" class="edge">
<title>packages/util/math/src/fft/array/index.ts&#45;&gt;packages/util/math/src/fft/array/complex.ts</title>
<path fill="none" stroke="#000000" stroke-width="2" stroke-opacity="0.200000" d="M848.09,-399C884.71,-399 950.25,-399 992.26,-399"/>
<polygon fill="#000000" fill-opacity="0.200000" stroke="#000000" stroke-width="2" stroke-opacity="0.200000" points="992.28,-401.1 998.28,-399 992.28,-396.9 992.28,-401.1"/>
</g>
<!-- packages/util/math/src/fft/array/ftt&#45;core.ts -->
<g id="node18" class="node">
<title>packages/util/math/src/fft/array/ftt&#45;core.ts</title>
<g id="a_node18"><a xlink:href="packages/util/math/src/fft/array/ftt-core.ts" xlink:title="ftt&#45;core.ts">
<path fill="#ddfeff" stroke="black" d="M971,-430C971,-430 922,-430 922,-430 919,-430 916,-427 916,-424 916,-424 916,-418 916,-418 916,-415 919,-412 922,-412 922,-412 971,-412 971,-412 974,-412 977,-415 977,-418 977,-418 977,-424 977,-424 977,-427 974,-430 971,-430"/>
<text text-anchor="start" x="924" y="-418.8" font-family="Helvetica,sans-Serif" font-size="9.00">ftt&#45;core.ts</text>
</a>
</g>
</g>
<!-- packages/util/math/src/fft/array/index.ts&#45;&gt;packages/util/math/src/fft/array/ftt&#45;core.ts -->
<g id="edge27" class="edge">
<title>packages/util/math/src/fft/array/index.ts&#45;&gt;packages/util/math/src/fft/array/ftt&#45;core.ts</title>
<path fill="none" stroke="#000000" stroke-width="2" stroke-opacity="0.200000" d="M848.19,-403.67C866.16,-406.87 890.22,-411.15 909.92,-414.66"/>
<polygon fill="#000000" fill-opacity="0.200000" stroke="#000000" stroke-width="2" stroke-opacity="0.200000" points="909.6,-416.74 915.88,-415.72 910.34,-412.6 909.6,-416.74"/>
</g>
<!-- packages/UI/spectrogram/src/audio&#45;analyzer/index.ts -->
<g id="node9" class="node">
<title>packages/UI/spectrogram/src/audio&#45;analyzer/index.ts</title>
<g id="a_node9"><a xlink:href="packages/UI/spectrogram/src/audio-analyzer/index.ts" xlink:title="index.ts">
<path fill="#ddfeff" stroke="black" d="M512,-80C512,-80 470,-80 470,-80 467,-80 464,-77 464,-74 464,-74 464,-68 464,-68 464,-65 467,-62 470,-62 470,-62 512,-62 512,-62 515,-62 518,-65 518,-68 518,-68 518,-74 518,-74 518,-77 515,-80 512,-80"/>
<text text-anchor="start" x="472.5" y="-68.8" font-family="Helvetica,sans-Serif" font-size="9.00">index.ts</text>
</a>
</g>
</g>
<!-- packages/UI/spectrogram/src/audio&#45;analyzer/index.ts&#45;&gt;packages/UI/spectrogram/src/audio&#45;analyzer/audio&#45;analyzer.ts -->
<g id="edge7" class="edge">
<title>packages/UI/spectrogram/src/audio&#45;analyzer/index.ts&#45;&gt;packages/UI/spectrogram/src/audio&#45;analyzer/audio&#45;analyzer.ts</title>
<path fill="none" stroke="#000000" stroke-width="2" stroke-opacity="0.200000" d="M518,-71C532.5,-71 551.09,-71 568.44,-71"/>
<polygon fill="#000000" fill-opacity="0.200000" stroke="#000000" stroke-width="2" stroke-opacity="0.200000" points="574.77,-73.1 568.77,-71 574.77,-68.9 574.77,-73.1"/>
</g>
<!-- packages/UI/spectrogram/src/audio&#45;viewer.ts&#45;&gt;packages/UI/spectrogram/src/audio&#45;analyzer/index.ts -->
<g id="edge8" class="edge">
<title>packages/UI/spectrogram/src/audio&#45;viewer.ts&#45;&gt;packages/UI/spectrogram/src/audio&#45;analyzer/index.ts</title>
<path fill="none" stroke="#000000" stroke-width="2" stroke-opacity="0.200000" d="M254.25,-105.73C310.24,-97.52 407.21,-83.29 457.93,-75.85"/>
<polygon fill="#000000" fill-opacity="0.200000" stroke="#000000" stroke-width="2" stroke-opacity="0.200000" points="458.25,-77.93 463.88,-74.98 457.64,-73.77 458.25,-77.93"/>
</g>
<!-- packages/UI/spectrogram/src/fft&#45;viewer.ts -->
<g id="node11" class="node">
<title>packages/UI/spectrogram/src/fft&#45;viewer.ts</title>
<g id="a_node11"><a xlink:href="packages/UI/spectrogram/src/fft-viewer.ts" xlink:title="fft&#45;viewer.ts">
<path fill="#ddfeff" stroke="black" d="M384.5,-106C384.5,-106 327.5,-106 327.5,-106 324.5,-106 321.5,-103 321.5,-100 321.5,-100 321.5,-94 321.5,-94 321.5,-91 324.5,-88 327.5,-88 327.5,-88 384.5,-88 384.5,-88 387.5,-88 390.5,-91 390.5,-94 390.5,-94 390.5,-100 390.5,-100 390.5,-103 387.5,-106 384.5,-106"/>
<text text-anchor="start" x="329.5" y="-94.8" font-family="Helvetica,sans-Serif" font-size="9.00">fft&#45;viewer.ts</text>
</a>
</g>
</g>
<!-- packages/UI/spectrogram/src/audio&#45;viewer.ts&#45;&gt;packages/UI/spectrogram/src/fft&#45;viewer.ts -->
<g id="edge9" class="edge">
<title>packages/UI/spectrogram/src/audio&#45;viewer.ts&#45;&gt;packages/UI/spectrogram/src/fft&#45;viewer.ts</title>
<path fill="none" stroke="#000000" stroke-width="2" stroke-opacity="0.200000" d="M254.1,-107.62C273.29,-105.6 295.97,-103.21 314.97,-101.21"/>
<polygon fill="#000000" fill-opacity="0.200000" stroke="#000000" stroke-width="2" stroke-opacity="0.200000" points="315.51,-103.27 321.25,-100.55 315.07,-99.09 315.51,-103.27"/>
</g>
<!-- packages/UI/spectrogram/src/spectrogram&#45;viewer.ts -->
<g id="node12" class="node">
<title>packages/UI/spectrogram/src/spectrogram&#45;viewer.ts</title>
<g id="a_node12"><a xlink:href="packages/UI/spectrogram/src/spectrogram-viewer.ts" xlink:title="spectrogram&#45;viewer.ts">
<path fill="#ddfeff" stroke="black" d="M408.5,-76C408.5,-76 303.5,-76 303.5,-76 300.5,-76 297.5,-73 297.5,-70 297.5,-70 297.5,-64 297.5,-64 297.5,-61 300.5,-58 303.5,-58 303.5,-58 408.5,-58 408.5,-58 411.5,-58 414.5,-61 414.5,-64 414.5,-64 414.5,-70 414.5,-70 414.5,-73 411.5,-76 408.5,-76"/>
<text text-anchor="start" x="305.5" y="-64.8" font-family="Helvetica,sans-Serif" font-size="9.00">spectrogram&#45;viewer.ts</text>
</a>
</g>
</g>
<!-- packages/UI/spectrogram/src/audio&#45;viewer.ts&#45;&gt;packages/UI/spectrogram/src/spectrogram&#45;viewer.ts -->
<g id="edge10" class="edge">
<title>packages/UI/spectrogram/src/audio&#45;viewer.ts&#45;&gt;packages/UI/spectrogram/src/spectrogram&#45;viewer.ts</title>
<path fill="none" stroke="#000000" stroke-width="2" stroke-opacity="0.200000" d="M241.34,-102.89C264.13,-95.7 296.02,-85.62 320.23,-77.98"/>
<polygon fill="#000000" fill-opacity="0.200000" stroke="#000000" stroke-width="2" stroke-opacity="0.200000" points="321.12,-79.9 326.21,-76.09 319.85,-75.9 321.12,-79.9"/>
</g>
<!-- packages/UI/spectrogram/src/wave&#45;viewer.ts -->
<g id="node13" class="node">
<title>packages/UI/spectrogram/src/wave&#45;viewer.ts</title>
<g id="a_node13"><a xlink:href="packages/UI/spectrogram/src/wave-viewer.ts" xlink:title="wave&#45;viewer.ts">
<path fill="#ddfeff" stroke="black" d="M391.5,-136C391.5,-136 320.5,-136 320.5,-136 317.5,-136 314.5,-133 314.5,-130 314.5,-130 314.5,-124 314.5,-124 314.5,-121 317.5,-118 320.5,-118 320.5,-118 391.5,-118 391.5,-118 394.5,-118 397.5,-121 397.5,-124 397.5,-124 397.5,-130 397.5,-130 397.5,-133 394.5,-136 391.5,-136"/>
<text text-anchor="start" x="322.5" y="-124.8" font-family="Helvetica,sans-Serif" font-size="9.00">wave&#45;viewer.ts</text>
</a>
</g>
</g>
<!-- packages/UI/spectrogram/src/audio&#45;viewer.ts&#45;&gt;packages/UI/spectrogram/src/wave&#45;viewer.ts -->
<g id="edge11" class="edge">
<title>packages/UI/spectrogram/src/audio&#45;viewer.ts&#45;&gt;packages/UI/spectrogram/src/wave&#45;viewer.ts</title>
<path fill="none" stroke="#000000" stroke-width="2" stroke-opacity="0.200000" d="M254.1,-116.38C270.93,-118.15 290.44,-120.2 307.8,-122.03"/>
<polygon fill="#000000" fill-opacity="0.200000" stroke="#000000" stroke-width="2" stroke-opacity="0.200000" points="307.9,-124.15 314.09,-122.69 308.34,-119.98 307.9,-124.15"/>
</g>
<!-- packages/UI/view/src/reflectable/audio&#45;reflectable.ts -->
<g id="node14" class="node">
<title>packages/UI/view/src/reflectable/audio&#45;reflectable.ts</title>
<g id="a_node14"><a xlink:href="packages/UI/view/src/reflectable/audio-reflectable.ts" xlink:title="audio&#45;reflectable.ts">
<path fill="#ddfeff" stroke="black" d="M537,-238C537,-238 445,-238 445,-238 442,-238 439,-235 439,-232 439,-232 439,-226 439,-226 439,-223 442,-220 445,-220 445,-220 537,-220 537,-220 540,-220 543,-223 543,-226 543,-226 543,-232 543,-232 543,-235 540,-238 537,-238"/>
<text text-anchor="start" x="447" y="-226.8" font-family="Helvetica,sans-Serif" font-size="9.00">audio&#45;reflectable.ts</text>
</a>
</g>
</g>
<!-- packages/UI/spectrogram/src/audio&#45;viewer.ts&#45;&gt;packages/UI/view/src/reflectable/audio&#45;reflectable.ts -->
<g id="edge12" class="edge">
<title>packages/UI/spectrogram/src/audio&#45;viewer.ts&#45;&gt;packages/UI/view/src/reflectable/audio&#45;reflectable.ts</title>
<path fill="none" stroke="#000000" stroke-width="2" stroke-opacity="0.200000" d="M233.43,-121.18C283.84,-142.28 407.89,-194.21 463.38,-217.44"/>
<polygon fill="#000000" fill-opacity="0.200000" stroke="#000000" stroke-width="2" stroke-opacity="0.200000" points="462.82,-219.48 469.17,-219.86 464.45,-215.61 462.82,-219.48"/>
</g>
<!-- packages/UI/view/src/reflectable/audio&#45;reflectable&#45;registry.ts -->
<g id="node15" class="node">
<title>packages/UI/view/src/reflectable/audio&#45;reflectable&#45;registry.ts</title>
<g id="a_node15"><a xlink:href="packages/UI/view/src/reflectable/audio-reflectable-registry.ts" xlink:title="audio&#45;reflectable&#45;registry.ts">
<path fill="#ddfeff" stroke="black" d="M420,-238C420,-238 292,-238 292,-238 289,-238 286,-235 286,-232 286,-232 286,-226 286,-226 286,-223 289,-220 292,-220 292,-220 420,-220 420,-220 423,-220 426,-223 426,-226 426,-226 426,-232 426,-232 426,-235 423,-238 420,-238"/>
<text text-anchor="start" x="294" y="-226.8" font-family="Helvetica,sans-Serif" font-size="9.00">audio&#45;reflectable&#45;registry.ts</text>
</a>
</g>
</g>
<!-- packages/UI/spectrogram/src/audio&#45;viewer.ts&#45;&gt;packages/UI/view/src/reflectable/audio&#45;reflectable&#45;registry.ts -->
<g id="edge13" class="edge">
<title>packages/UI/spectrogram/src/audio&#45;viewer.ts&#45;&gt;packages/UI/view/src/reflectable/audio&#45;reflectable&#45;registry.ts</title>
<path fill="none" stroke="#000000" stroke-width="2" stroke-opacity="0.200000" d="M223.68,-121.18C248.86,-141.86 310.08,-192.12 339.16,-215.99"/>
<polygon fill="#000000" fill-opacity="0.200000" stroke="#000000" stroke-width="2" stroke-opacity="0.200000" points="337.9,-217.68 343.87,-219.86 340.57,-214.43 337.9,-217.68"/>
</g>
<!-- packages/UI/spectrogram/src/fft&#45;viewer.ts&#45;&gt;packages/UI/spectrogram/src/audio&#45;analyzer/index.ts -->
<g id="edge14" class="edge">
<title>packages/UI/spectrogram/src/fft&#45;viewer.ts&#45;&gt;packages/UI/spectrogram/src/audio&#45;analyzer/index.ts</title>
<path fill="none" stroke="#000000" stroke-width="2" stroke-opacity="0.200000" d="M390.56,-90.44C411.06,-86.43 437.16,-81.33 457.47,-77.36"/>
<polygon fill="#000000" fill-opacity="0.200000" stroke="#000000" stroke-width="2" stroke-opacity="0.200000" points="458.09,-79.38 463.57,-76.17 457.28,-75.26 458.09,-79.38"/>
</g>
<!-- packages/UI/spectrogram/src/fft&#45;viewer.ts&#45;&gt;packages/UI/view/src/reflectable/audio&#45;reflectable.ts -->
<g id="edge16" class="edge">
<title>packages/UI/spectrogram/src/fft&#45;viewer.ts&#45;&gt;packages/UI/view/src/reflectable/audio&#45;reflectable.ts</title>
<path fill="none" stroke="#000000" stroke-width="2" stroke-opacity="0.200000" d="M366.14,-106.07C389.11,-128.87 449.33,-188.64 476.44,-215.54"/>
<polygon fill="#000000" fill-opacity="0.200000" stroke="#000000" stroke-width="2" stroke-opacity="0.200000" points="475.06,-217.13 480.79,-219.86 478.02,-214.15 475.06,-217.13"/>
</g>
<!-- packages/util/math/dist/index.js -->
<g id="node16" class="node">
<title>packages/util/math/dist/index.js</title>
<g id="a_node16"><a xlink:href="packages/util/math/dist/index.js" xlink:title="index.js">
<polygon fill="#ffffcc" stroke="black" points="848,-550 846.5,-552 836,-552 834.5,-550 794,-550 794,-532 848,-532 848,-550"/>
<text text-anchor="start" x="803.5" y="-538.8" font-family="Helvetica,sans-Serif" font-size="9.00">index.js</text>
</a>
</g>
</g>
<!-- packages/UI/spectrogram/src/fft&#45;viewer.ts&#45;&gt;packages/util/math/dist/index.js -->
<g id="edge15" class="edge">
<title>packages/UI/spectrogram/src/fft&#45;viewer.ts&#45;&gt;packages/util/math/dist/index.js</title>
<path fill="none" stroke="#000000" stroke-width="2" stroke-opacity="0.200000" d="M365.71,-106.27C424.81,-162.7 735.9,-459.75 806.67,-527.32"/>
<polygon fill="#000000" fill-opacity="0.200000" stroke="#000000" stroke-width="2" stroke-opacity="0.200000" points="805.55,-529.15 811.34,-531.78 808.45,-526.12 805.55,-529.15"/>
</g>
<!-- packages/UI/spectrogram/src/spectrogram&#45;viewer.ts&#45;&gt;packages/UI/spectrogram/src/audio&#45;analyzer/index.ts -->
<g id="edge18" class="edge">
<title>packages/UI/spectrogram/src/spectrogram&#45;viewer.ts&#45;&gt;packages/UI/spectrogram/src/audio&#45;analyzer/index.ts</title>
<path fill="none" stroke="#000000" stroke-width="2" stroke-opacity="0.200000" d="M414.56,-68.73C429.28,-69.17 444.6,-69.63 457.55,-70.02"/>
<polygon fill="#000000" fill-opacity="0.200000" stroke="#000000" stroke-width="2" stroke-opacity="0.200000" points="457.65,-72.13 463.71,-70.21 457.78,-67.93 457.65,-72.13"/>
</g>
<!-- packages/UI/spectrogram/src/spectrogram&#45;viewer.ts&#45;&gt;packages/UI/view/src/reflectable/audio&#45;reflectable.ts -->
<g id="edge19" class="edge">
<title>packages/UI/spectrogram/src/spectrogram&#45;viewer.ts&#45;&gt;packages/UI/view/src/reflectable/audio&#45;reflectable.ts</title>
<path fill="none" stroke="#000000" stroke-width="2" stroke-opacity="0.200000" d="M364.53,-76.17C386.75,-103.24 452.14,-182.88 478.64,-215.17"/>
<polygon fill="#000000" fill-opacity="0.200000" stroke="#000000" stroke-width="2" stroke-opacity="0.200000" points="477.12,-216.62 482.55,-219.93 480.37,-213.96 477.12,-216.62"/>
</g>
<!-- packages/UI/spectrogram/src/wave&#45;viewer.ts&#45;&gt;packages/UI/spectrogram/src/audio&#45;analyzer/index.ts -->
<g id="edge20" class="edge">
<title>packages/UI/spectrogram/src/wave&#45;viewer.ts&#45;&gt;packages/UI/spectrogram/src/audio&#45;analyzer/index.ts</title>
<path fill="none" stroke="#000000" stroke-width="2" stroke-opacity="0.200000" d="M378.66,-117.88C401.56,-108.24 437.73,-93.01 462.6,-82.54"/>
<polygon fill="#000000" fill-opacity="0.200000" stroke="#000000" stroke-width="2" stroke-opacity="0.200000" points="463.63,-84.38 468.34,-80.12 462,-80.51 463.63,-84.38"/>
</g>
<!-- packages/UI/spectrogram/src/wave&#45;viewer.ts&#45;&gt;packages/UI/view/src/reflectable/audio&#45;reflectable.ts -->
<g id="edge22" class="edge">
<title>packages/UI/spectrogram/src/wave&#45;viewer.ts&#45;&gt;packages/UI/view/src/reflectable/audio&#45;reflectable.ts</title>
<path fill="none" stroke="#000000" stroke-width="2" stroke-opacity="0.200000" d="M368.8,-136.05C392.5,-154.23 445.94,-195.21 473.25,-216.15"/>
<polygon fill="#000000" fill-opacity="0.200000" stroke="#000000" stroke-width="2" stroke-opacity="0.200000" points="471.99,-217.84 478.03,-219.82 474.55,-214.5 471.99,-217.84"/>
</g>
<!-- packages/UI/spectrogram/src/wave&#45;viewer.ts&#45;&gt;packages/util/math/dist/index.js -->
<g id="edge21" class="edge">
<title>packages/UI/spectrogram/src/wave&#45;viewer.ts&#45;&gt;packages/util/math/dist/index.js</title>
<path fill="none" stroke="#000000" stroke-width="2" stroke-opacity="0.200000" d="M366.14,-136.03C426.07,-189.38 733.58,-463.17 805.8,-527.47"/>
<polygon fill="#000000" fill-opacity="0.200000" stroke="#000000" stroke-width="2" stroke-opacity="0.200000" points="804.71,-529.31 810.59,-531.73 807.5,-526.17 804.71,-529.31"/>
</g>
<!-- packages/UI/view/src/reflectable/audio&#45;reflectable&#45;registry.ts&#45;&gt;packages/UI/view/src/reflectable/audio&#45;reflectable.ts -->
<g id="edge23" class="edge">
<title>packages/UI/view/src/reflectable/audio&#45;reflectable&#45;registry.ts&#45;&gt;packages/UI/view/src/reflectable/audio&#45;reflectable.ts</title>
<path fill="none" stroke="#000000" stroke-width="2" stroke-opacity="0.200000" d="M426.23,-229C428.37,-229 430.52,-229 432.64,-229"/>
<polygon fill="#000000" fill-opacity="0.200000" stroke="#000000" stroke-width="2" stroke-opacity="0.200000" points="432.99,-231.1 438.99,-229 432.99,-226.9 432.99,-231.1"/>
</g>
<!-- packages/util/math/src/fft/array/ftt&#45;core.ts&#45;&gt;packages/util/math/src/fft/array/complex.ts -->
<g id="edge24" class="edge">
<title>packages/util/math/src/fft/array/ftt&#45;core.ts&#45;&gt;packages/util/math/src/fft/array/complex.ts</title>
<path fill="none" stroke="#000000" stroke-width="2" stroke-opacity="0.200000" d="M977.46,-413.06C982.34,-411.77 987.44,-410.41 992.48,-409.08"/>
<polygon fill="#000000" fill-opacity="0.200000" stroke="#000000" stroke-width="2" stroke-opacity="0.200000" points="993.07,-411.09 998.34,-407.53 992,-407.03 993.07,-411.09"/>
</g>
<!-- packages/util/math/src/fft/array/root&#45;of&#45;unity.ts -->
<g id="node19" class="node">
<title>packages/util/math/src/fft/array/root&#45;of&#45;unity.ts</title>
<g id="a_node19"><a xlink:href="packages/util/math/src/fft/array/root-of-unity.ts" xlink:title="root&#45;of&#45;unity.ts">
<path fill="#ddfeff" stroke="black" d="M1067,-438C1067,-438 996,-438 996,-438 993,-438 990,-435 990,-432 990,-432 990,-426 990,-426 990,-423 993,-420 996,-420 996,-420 1067,-420 1067,-420 1070,-420 1073,-423 1073,-426 1073,-426 1073,-432 1073,-432 1073,-435 1070,-438 1067,-438"/>
<text text-anchor="start" x="998" y="-426.8" font-family="Helvetica,sans-Serif" font-size="9.00">root&#45;of&#45;unity.ts</text>
</a>
</g>
</g>
<!-- packages/util/math/src/fft/array/ftt&#45;core.ts&#45;&gt;packages/util/math/src/fft/array/root&#45;of&#45;unity.ts -->
<g id="edge25" class="edge">
<title>packages/util/math/src/fft/array/ftt&#45;core.ts&#45;&gt;packages/util/math/src/fft/array/root&#45;of&#45;unity.ts</title>
<path fill="none" stroke="#000000" stroke-width="2" stroke-opacity="0.200000" d="M977.46,-423.89C979.46,-424.08 981.5,-424.28 983.55,-424.47"/>
<polygon fill="#000000" fill-opacity="0.200000" stroke="#000000" stroke-width="2" stroke-opacity="0.200000" points="983.57,-426.59 989.74,-425.07 983.97,-422.41 983.57,-426.59"/>
</g>
</g>
</svg>
