<?xml version="1.0" encoding="UTF-8" standalone="no"?>
<!DOCTYPE svg PUBLIC "-//W3C//DTD SVG 1.1//EN"
 "http://www.w3.org/Graphics/SVG/1.1/DTD/svg11.dtd">
<!-- Generated by graphviz version 2.43.0 (0)
 -->
<!-- Title: dependency&#45;cruiser output Pages: 1 -->
<svg width="1122pt" height="636pt"
 viewBox="0.00 0.00 1122.00 636.00" xmlns="http://www.w3.org/2000/svg" xmlns:xlink="http://www.w3.org/1999/xlink">
<g id="graph0" class="graph" transform="scale(1 1) rotate(0) translate(4 632)">
<title>dependency&#45;cruiser output</title>
<polygon fill="white" stroke="transparent" points="-4,4 -4,-632 1118,-632 1118,4 -4,4"/>
<g id="clust1" class="cluster">
<title>cluster_packages</title>
<path fill="#ffffff" stroke="black" stroke-width="2" d="M20,-8C20,-8 1094,-8 1094,-8 1100,-8 1106,-14 1106,-20 1106,-20 1106,-608 1106,-608 1106,-614 1100,-620 1094,-620 1094,-620 20,-620 20,-620 14,-620 8,-614 8,-608 8,-608 8,-20 8,-20 8,-14 14,-8 20,-8"/>
<text text-anchor="middle" x="557" y="-608.8" font-family="Helvetica,sans-Serif" font-weight="bold" font-size="9.00">packages</text>
</g>
<g id="clust2" class="cluster">
<title>cluster_packages/UI</title>
<path fill="#ffffff" stroke="black" stroke-width="2" d="M28,-16C28,-16 889,-16 889,-16 895,-16 901,-22 901,-28 901,-28 901,-330 901,-330 901,-336 895,-342 889,-342 889,-342 28,-342 28,-342 22,-342 16,-336 16,-330 16,-330 16,-28 16,-28 16,-22 22,-16 28,-16"/>
<text text-anchor="middle" x="458.5" y="-330.8" font-family="Helvetica,sans-Serif" font-weight="bold" font-size="9.00">UI</text>
</g>
<g id="clust3" class="cluster">
<title>cluster_packages/UI/spectrogram</title>
<path fill="#ffffff" stroke="black" stroke-width="2" d="M36,-24C36,-24 881,-24 881,-24 887,-24 893,-30 893,-36 893,-36 893,-176 893,-176 893,-182 887,-188 881,-188 881,-188 36,-188 36,-188 30,-188 24,-182 24,-176 24,-176 24,-36 24,-36 24,-30 30,-24 36,-24"/>
<text text-anchor="middle" x="458.5" y="-176.8" font-family="Helvetica,sans-Serif" font-weight="bold" font-size="9.00">spectrogram</text>
</g>
<g id="clust4" class="cluster">
<title>cluster_packages/UI/spectrogram/src</title>
<path fill="#ffffff" stroke="black" stroke-width="2" d="M106,-32C106,-32 873,-32 873,-32 879,-32 885,-38 885,-44 885,-44 885,-150 885,-150 885,-156 879,-162 873,-162 873,-162 106,-162 106,-162 100,-162 94,-156 94,-150 94,-150 94,-44 94,-44 94,-38 100,-32 106,-32"/>
<text text-anchor="middle" x="489.5" y="-150.8" font-family="Helvetica,sans-Serif" font-weight="bold" font-size="9.00">src</text>
</g>
<g id="clust5" class="cluster">
<title>cluster_packages/UI/spectrogram/src/audio&#45;analyzer</title>
<path fill="#ffffff" stroke="black" stroke-width="2" d="M448.5,-40C448.5,-40 865,-40 865,-40 871,-40 877,-46 877,-52 877,-52 877,-124 877,-124 877,-130 871,-136 865,-136 865,-136 448.5,-136 448.5,-136 442.5,-136 436.5,-130 436.5,-124 436.5,-124 436.5,-52 436.5,-52 436.5,-46 442.5,-40 448.5,-40"/>
<text text-anchor="middle" x="656.75" y="-124.8" font-family="Helvetica,sans-Serif" font-weight="bold" font-size="9.00">audio&#45;analyzer</text>
</g>
<g id="clust6" class="cluster">
<title>cluster_packages/UI/view</title>
<path fill="#ffffff" stroke="black" stroke-width="2" d="M274,-196C274,-196 555,-196 555,-196 561,-196 567,-202 567,-208 567,-208 567,-304 567,-304 567,-310 561,-316 555,-316 555,-316 274,-316 274,-316 268,-316 262,-310 262,-304 262,-304 262,-208 262,-208 262,-202 268,-196 274,-196"/>
<text text-anchor="middle" x="414.5" y="-304.8" font-family="Helvetica,sans-Serif" font-weight="bold" font-size="9.00">view</text>
</g>
<g id="clust7" class="cluster">
<title>cluster_packages/UI/view/src</title>
<path fill="#ffffff" stroke="black" stroke-width="2" d="M282,-204C282,-204 547,-204 547,-204 553,-204 559,-210 559,-216 559,-216 559,-278 559,-278 559,-284 553,-290 547,-290 547,-290 282,-290 282,-290 276,-290 270,-284 270,-278 270,-278 270,-216 270,-216 270,-210 276,-204 282,-204"/>
<text text-anchor="middle" x="414.5" y="-278.8" font-family="Helvetica,sans-Serif" font-weight="bold" font-size="9.00">src</text>
</g>
<g id="clust8" class="cluster">
<title>cluster_packages/UI/view/src/reflectable</title>
<path fill="#ffffff" stroke="black" stroke-width="2" d="M290,-212C290,-212 539,-212 539,-212 545,-212 551,-218 551,-224 551,-224 551,-252 551,-252 551,-258 545,-264 539,-264 539,-264 290,-264 290,-264 284,-264 278,-258 278,-252 278,-252 278,-224 278,-224 278,-218 284,-212 290,-212"/>
<text text-anchor="middle" x="414.5" y="-252.8" font-family="Helvetica,sans-Serif" font-weight="bold" font-size="9.00">reflectable</text>
</g>
<g id="clust9" class="cluster">
<title>cluster_packages/util</title>
<path fill="#ffffff" stroke="black" stroke-width="2" d="M767,-350C767,-350 1086,-350 1086,-350 1092,-350 1098,-356 1098,-362 1098,-362 1098,-582 1098,-582 1098,-588 1092,-594 1086,-594 1086,-594 767,-594 767,-594 761,-594 755,-588 755,-582 755,-582 755,-362 755,-362 755,-356 761,-350 767,-350"/>
<text text-anchor="middle" x="926.5" y="-582.8" font-family="Helvetica,sans-Serif" font-weight="bold" font-size="9.00">util</text>
</g>
<g id="clust10" class="cluster">
<title>cluster_packages/util/math</title>
<path fill="#ffffff" stroke="black" stroke-width="2" d="M775,-358C775,-358 1078,-358 1078,-358 1084,-358 1090,-364 1090,-370 1090,-370 1090,-556 1090,-556 1090,-562 1084,-568 1078,-568 1078,-568 775,-568 775,-568 769,-568 763,-562 763,-556 763,-556 763,-370 763,-370 763,-364 769,-358 775,-358"/>
<text text-anchor="middle" x="926.5" y="-556.8" font-family="Helvetica,sans-Serif" font-weight="bold" font-size="9.00">math</text>
</g>
<g id="clust11" class="cluster">
<title>cluster_packages/util/math/dist</title>
<path fill="#ffffff" stroke="black" stroke-width="2" d="M791,-490C791,-490 837,-490 837,-490 843,-490 849,-496 849,-502 849,-502 849,-530 849,-530 849,-536 843,-542 837,-542 837,-542 791,-542 791,-542 785,-542 779,-536 779,-530 779,-530 779,-502 779,-502 779,-496 785,-490 791,-490"/>
<text text-anchor="middle" x="814" y="-530.8" font-family="Helvetica,sans-Serif" font-weight="bold" font-size="9.00">dist</text>
</g>
<g id="clust12" class="cluster">
<title>cluster_packages/util/math/fft</title>
<path fill="#ffffff" stroke="black" stroke-width="2" d="M783,-366C783,-366 1070,-366 1070,-366 1076,-366 1082,-372 1082,-378 1082,-378 1082,-470 1082,-470 1082,-476 1076,-482 1070,-482 1070,-482 783,-482 783,-482 777,-482 771,-476 771,-470 771,-470 771,-378 771,-378 771,-372 777,-366 783,-366"/>
<text text-anchor="middle" x="926.5" y="-470.8" font-family="Helvetica,sans-Serif" font-weight="bold" font-size="9.00">fft</text>
</g>
<g id="clust13" class="cluster">
<title>cluster_packages/util/math/fft/array</title>
<path fill="#ffffff" stroke="black" stroke-width="2" d="M791,-374C791,-374 1062,-374 1062,-374 1068,-374 1074,-380 1074,-386 1074,-386 1074,-444 1074,-444 1074,-450 1068,-456 1062,-456 1062,-456 791,-456 791,-456 785,-456 779,-450 779,-444 779,-444 779,-386 779,-386 779,-380 785,-374 791,-374"/>
<text text-anchor="middle" x="926.5" y="-444.8" font-family="Helvetica,sans-Serif" font-weight="bold" font-size="9.00">array</text>
</g>
<!-- packages/UI/spectrogram/index.ts -->
<g id="node1" class="node">
<title>packages/UI/spectrogram/index.ts</title>
<g id="a_node1"><a xlink:href="packages/UI/spectrogram/index.ts" xlink:title="index.ts">
<path fill="#ddfeff" stroke="black" d="M80,-121C80,-121 38,-121 38,-121 35,-121 32,-118 32,-115 32,-115 32,-109 32,-109 32,-106 35,-103 38,-103 38,-103 80,-103 80,-103 83,-103 86,-106 86,-109 86,-109 86,-115 86,-115 86,-118 83,-121 80,-121"/>
<text text-anchor="start" x="40.5" y="-109.8" font-family="Helvetica,sans-Serif" font-size="9.00">index.ts</text>
</a>
</g>
</g>
<!-- packages/UI/spectrogram/src/index.ts -->
<g id="node2" class="node">
<title>packages/UI/spectrogram/src/index.ts</title>
<g id="a_node2"><a xlink:href="packages/UI/spectrogram/src/index.ts" xlink:title="index.ts">
<path fill="#ddfeff" stroke="black" d="M150,-121C150,-121 108,-121 108,-121 105,-121 102,-118 102,-115 102,-115 102,-109 102,-109 102,-106 105,-103 108,-103 108,-103 150,-103 150,-103 153,-103 156,-106 156,-109 156,-109 156,-115 156,-115 156,-118 153,-121 150,-121"/>
<text text-anchor="start" x="110.5" y="-109.8" font-family="Helvetica,sans-Serif" font-size="9.00">index.ts</text>
</a>
</g>
</g>
<!-- packages/UI/spectrogram/index.ts&#45;&gt;packages/UI/spectrogram/src/index.ts -->
<g id="edge1" class="edge">
<title>packages/UI/spectrogram/index.ts&#45;&gt;packages/UI/spectrogram/src/index.ts</title>
<path fill="none" stroke="#000000" stroke-width="2" stroke-opacity="0.200000" d="M86.1,-112C89.12,-112 92.23,-112 95.33,-112"/>
<polygon fill="#000000" fill-opacity="0.200000" stroke="#000000" stroke-width="2" stroke-opacity="0.200000" points="101.64,-114.1 95.64,-112 101.64,-109.9 101.64,-114.1"/>
</g>
<!-- packages/UI/spectrogram/src/audio&#45;viewer.ts -->
<g id="node10" class="node">
<title>packages/UI/spectrogram/src/audio&#45;viewer.ts</title>
<g id="a_node10"><a xlink:href="packages/UI/spectrogram/src/audio-viewer.ts" xlink:title="audio&#45;viewer.ts">
<path fill="#ddfeff" stroke="black" d="M248,-121C248,-121 175,-121 175,-121 172,-121 169,-118 169,-115 169,-115 169,-109 169,-109 169,-106 172,-103 175,-103 175,-103 248,-103 248,-103 251,-103 254,-106 254,-109 254,-109 254,-115 254,-115 254,-118 251,-121 248,-121"/>
<text text-anchor="start" x="177" y="-109.8" font-family="Helvetica,sans-Serif" font-size="9.00">audio&#45;viewer.ts</text>
</a>
</g>
</g>
<!-- packages/UI/spectrogram/src/index.ts&#45;&gt;packages/UI/spectrogram/src/audio&#45;viewer.ts -->
<g id="edge17" class="edge">
<title>packages/UI/spectrogram/src/index.ts&#45;&gt;packages/UI/spectrogram/src/audio&#45;viewer.ts</title>
<path fill="none" stroke="#000000" stroke-width="2" stroke-opacity="0.200000" d="M156.36,-112C158.38,-112 160.45,-112 162.55,-112"/>
<polygon fill="#000000" fill-opacity="0.200000" stroke="#000000" stroke-width="2" stroke-opacity="0.200000" points="168.91,-114.1 162.91,-112 168.91,-109.9 168.91,-114.1"/>
</g>
<!-- packages/UI/spectrogram/src/audio&#45;analyzer/audio&#45;analyzer.ts -->
<g id="node3" class="node">
<title>packages/UI/spectrogram/src/audio&#45;analyzer/audio&#45;analyzer.ts</title>
<g id="a_node3"><a xlink:href="packages/UI/spectrogram/src/audio-analyzer/audio-analyzer.ts" xlink:title="audio&#45;analyzer.ts">
<path fill="#ddfeff" stroke="black" d="M662,-80C662,-80 581,-80 581,-80 578,-80 575,-77 575,-74 575,-74 575,-68 575,-68 575,-65 578,-62 581,-62 581,-62 662,-62 662,-62 665,-62 668,-65 668,-68 668,-68 668,-74 668,-74 668,-77 665,-80 662,-80"/>
<text text-anchor="start" x="583" y="-68.8" font-family="Helvetica,sans-Serif" font-size="9.00">audio&#45;analyzer.ts</text>
</a>
</g>
</g>
<!-- packages/UI/spectrogram/src/audio&#45;analyzer/connect.ts -->
<g id="node4" class="node">
<title>packages/UI/spectrogram/src/audio&#45;analyzer/connect.ts</title>
<g id="a_node4"><a xlink:href="packages/UI/spectrogram/src/audio-analyzer/connect.ts" xlink:title="connect.ts">
<path fill="#ddfeff" stroke="black" d="M740,-110C740,-110 687,-110 687,-110 684,-110 681,-107 681,-104 681,-104 681,-98 681,-98 681,-95 684,-92 687,-92 687,-92 740,-92 740,-92 743,-92 746,-95 746,-98 746,-98 746,-104 746,-104 746,-107 743,-110 740,-110"/>
<text text-anchor="start" x="689" y="-98.8" font-family="Helvetica,sans-Serif" font-size="9.00">connect.ts</text>
</a>
</g>
</g>
<!-- packages/UI/spectrogram/src/audio&#45;analyzer/audio&#45;analyzer.ts&#45;&gt;packages/UI/spectrogram/src/audio&#45;analyzer/connect.ts -->
<g id="edge2" class="edge">
<title>packages/UI/spectrogram/src/audio&#45;analyzer/audio&#45;analyzer.ts&#45;&gt;packages/UI/spectrogram/src/audio&#45;analyzer/connect.ts</title>
<path fill="none" stroke="#000000" stroke-width="2" stroke-opacity="0.200000" d="M649.5,-80C658.94,-83.15 669.64,-86.71 679.51,-90"/>
<polygon fill="#000000" fill-opacity="0.200000" stroke="#000000" stroke-width="2" stroke-opacity="0.200000" points="678.85,-92 685.21,-91.9 680.18,-88.01 678.85,-92"/>
</g>
<!-- packages/UI/spectrogram/src/audio&#45;analyzer/get&#45;data&#45;on&#45;buffer.ts -->
<g id="node5" class="node">
<title>packages/UI/spectrogram/src/audio&#45;analyzer/get&#45;data&#45;on&#45;buffer.ts</title>
<g id="a_node5"><a xlink:href="packages/UI/spectrogram/src/audio-analyzer/get-data-on-buffer.ts" xlink:title="get&#45;data&#45;on&#45;buffer.ts">
<path fill="#ddfeff" stroke="black" d="M863,-73C863,-73 765,-73 765,-73 762,-73 759,-70 759,-67 759,-67 759,-61 759,-61 759,-58 762,-55 765,-55 765,-55 863,-55 863,-55 866,-55 869,-58 869,-61 869,-61 869,-67 869,-67 869,-70 866,-73 863,-73"/>
<text text-anchor="start" x="767" y="-61.8" font-family="Helvetica,sans-Serif" font-size="9.00">get&#45;data&#45;on&#45;buffer.ts</text>
</a>
</g>
</g>
<!-- packages/UI/spectrogram/src/audio&#45;analyzer/audio&#45;analyzer.ts&#45;&gt;packages/UI/spectrogram/src/audio&#45;analyzer/get&#45;data&#45;on&#45;buffer.ts -->
<g id="edge3" class="edge">
<title>packages/UI/spectrogram/src/audio&#45;analyzer/audio&#45;analyzer.ts&#45;&gt;packages/UI/spectrogram/src/audio&#45;analyzer/get&#45;data&#45;on&#45;buffer.ts</title>
<path fill="none" stroke="#000000" stroke-width="2" stroke-opacity="0.200000" d="M668.1,-69.31C693.55,-68.38 725.37,-67.22 752.8,-66.23"/>
<polygon fill="#000000" fill-opacity="0.200000" stroke="#000000" stroke-width="2" stroke-opacity="0.200000" points="753.02,-68.32 758.94,-66 752.87,-64.12 753.02,-68.32"/>
</g>
<!-- packages/UI/spectrogram/src/audio&#45;analyzer/get&#45;fft.ts -->
<g id="node6" class="node">
<title>packages/UI/spectrogram/src/audio&#45;analyzer/get&#45;fft.ts</title>
<g id="a_node6"><a xlink:href="packages/UI/spectrogram/src/audio-analyzer/get-fft.ts" xlink:title="get&#45;fft.ts">
<path fill="#ddfeff" stroke="black" d="M735.5,-80C735.5,-80 691.5,-80 691.5,-80 688.5,-80 685.5,-77 685.5,-74 685.5,-74 685.5,-68 685.5,-68 685.5,-65 688.5,-62 691.5,-62 691.5,-62 735.5,-62 735.5,-62 738.5,-62 741.5,-65 741.5,-68 741.5,-68 741.5,-74 741.5,-74 741.5,-77 738.5,-80 735.5,-80"/>
<text text-anchor="start" x="693.5" y="-68.8" font-family="Helvetica,sans-Serif" font-size="9.00">get&#45;fft.ts</text>
</a>
</g>
</g>
<!-- packages/UI/spectrogram/src/audio&#45;analyzer/audio&#45;analyzer.ts&#45;&gt;packages/UI/spectrogram/src/audio&#45;analyzer/get&#45;fft.ts -->
<g id="edge4" class="edge">
<title>packages/UI/spectrogram/src/audio&#45;analyzer/audio&#45;analyzer.ts&#45;&gt;packages/UI/spectrogram/src/audio&#45;analyzer/get&#45;fft.ts</title>
<path fill="none" stroke="#000000" stroke-width="2" stroke-opacity="0.200000" d="M668.03,-71C671.83,-71 675.62,-71 679.3,-71"/>
<polygon fill="#000000" fill-opacity="0.200000" stroke="#000000" stroke-width="2" stroke-opacity="0.200000" points="679.37,-73.1 685.37,-71 679.37,-68.9 679.37,-73.1"/>
</g>
<!-- packages/UI/spectrogram/src/audio&#45;analyzer/get&#45;fft.ts&#45;&gt;packages/UI/spectrogram/src/audio&#45;analyzer/get&#45;data&#45;on&#45;buffer.ts -->
<g id="edge5" class="edge">
<title>packages/UI/spectrogram/src/audio&#45;analyzer/get&#45;fft.ts&#45;&gt;packages/UI/spectrogram/src/audio&#45;analyzer/get&#45;data&#45;on&#45;buffer.ts</title>
<path fill="none" stroke="#000000" stroke-width="2" stroke-opacity="0.200000" d="M741.68,-69.07C745.19,-68.82 748.89,-68.56 752.68,-68.29"/>
<polygon fill="#000000" fill-opacity="0.200000" stroke="#000000" stroke-width="2" stroke-opacity="0.200000" points="752.87,-70.38 758.71,-67.86 752.58,-66.19 752.87,-70.38"/>
</g>
<!-- packages/util/math/fft/array/index.ts -->
<g id="node8" class="node">
<title>packages/util/math/fft/array/index.ts</title>
<g id="a_node8"><a xlink:href="packages/util/math/fft/array/index.ts" xlink:title="index.ts">
<path fill="#ddfeff" stroke="black" d="M835,-400C835,-400 793,-400 793,-400 790,-400 787,-397 787,-394 787,-394 787,-388 787,-388 787,-385 790,-382 793,-382 793,-382 835,-382 835,-382 838,-382 841,-385 841,-388 841,-388 841,-394 841,-394 841,-397 838,-400 835,-400"/>
<text text-anchor="start" x="795.5" y="-388.8" font-family="Helvetica,sans-Serif" font-size="9.00">index.ts</text>
</a>
</g>
</g>
<!-- packages/UI/spectrogram/src/audio&#45;analyzer/get&#45;fft.ts&#45;&gt;packages/util/math/fft/array/index.ts -->
<g id="edge6" class="edge">
<title>packages/UI/spectrogram/src/audio&#45;analyzer/get&#45;fft.ts&#45;&gt;packages/util/math/fft/array/index.ts</title>
<path fill="none" stroke="#000000" stroke-width="2" stroke-opacity="0.200000" d="M717.34,-80.23C731.13,-125.03 791.11,-319.88 808.35,-375.89"/>
<polygon fill="#000000" fill-opacity="0.200000" stroke="#000000" stroke-width="2" stroke-opacity="0.200000" points="806.37,-376.61 810.15,-381.73 810.39,-375.38 806.37,-376.61"/>
</g>
<!-- packages/UI/spectrogram/src/audio&#45;analyzer/cosine&#45;window.ts -->
<g id="node7" class="node">
<title>packages/UI/spectrogram/src/audio&#45;analyzer/cosine&#45;window.ts</title>
<g id="a_node7"><a xlink:href="packages/UI/spectrogram/src/audio-analyzer/cosine-window.ts" xlink:title="no&#45;orphans">
<path fill="#ccffcc" stroke="orange" d="M531.5,-110C531.5,-110 450.5,-110 450.5,-110 447.5,-110 444.5,-107 444.5,-104 444.5,-104 444.5,-98 444.5,-98 444.5,-95 447.5,-92 450.5,-92 450.5,-92 531.5,-92 531.5,-92 534.5,-92 537.5,-95 537.5,-98 537.5,-98 537.5,-104 537.5,-104 537.5,-107 534.5,-110 531.5,-110"/>
<text text-anchor="start" x="452.5" y="-98.8" font-family="Helvetica,sans-Serif" font-size="9.00" fill="orange">cosine&#45;window.ts</text>
</a>
</g>
</g>
<!-- packages/util/math/fft/array/complex.ts -->
<g id="node17" class="node">
<title>packages/util/math/fft/array/complex.ts</title>
<g id="a_node17"><a xlink:href="packages/util/math/fft/array/complex.ts" xlink:title="complex.ts">
<path fill="#ddfeff" stroke="black" d="M1051.5,-400C1051.5,-400 997.5,-400 997.5,-400 994.5,-400 991.5,-397 991.5,-394 991.5,-394 991.5,-388 991.5,-388 991.5,-385 994.5,-382 997.5,-382 997.5,-382 1051.5,-382 1051.5,-382 1054.5,-382 1057.5,-385 1057.5,-388 1057.5,-388 1057.5,-394 1057.5,-394 1057.5,-397 1054.5,-400 1051.5,-400"/>
<text text-anchor="start" x="999.5" y="-388.8" font-family="Helvetica,sans-Serif" font-size="9.00">complex.ts</text>
</a>
</g>
</g>
<!-- packages/util/math/fft/array/index.ts&#45;&gt;packages/util/math/fft/array/complex.ts -->
<g id="edge26" class="edge">
<title>packages/util/math/fft/array/index.ts&#45;&gt;packages/util/math/fft/array/complex.ts</title>
<path fill="none" stroke="#000000" stroke-width="2" stroke-opacity="0.200000" d="M841.09,-391C877.71,-391 943.25,-391 985.26,-391"/>
<polygon fill="#000000" fill-opacity="0.200000" stroke="#000000" stroke-width="2" stroke-opacity="0.200000" points="985.28,-393.1 991.28,-391 985.28,-388.9 985.28,-393.1"/>
</g>
<!-- packages/util/math/fft/array/ftt&#45;core.ts -->
<g id="node18" class="node">
<title>packages/util/math/fft/array/ftt&#45;core.ts</title>
<g id="a_node18"><a xlink:href="packages/util/math/fft/array/ftt-core.ts" xlink:title="ftt&#45;core.ts">
<path fill="#ddfeff" stroke="black" d="M964,-422C964,-422 915,-422 915,-422 912,-422 909,-419 909,-416 909,-416 909,-410 909,-410 909,-407 912,-404 915,-404 915,-404 964,-404 964,-404 967,-404 970,-407 970,-410 970,-410 970,-416 970,-416 970,-419 967,-422 964,-422"/>
<text text-anchor="start" x="917" y="-410.8" font-family="Helvetica,sans-Serif" font-size="9.00">ftt&#45;core.ts</text>
</a>
</g>
</g>
<!-- packages/util/math/fft/array/index.ts&#45;&gt;packages/util/math/fft/array/ftt&#45;core.ts -->
<g id="edge27" class="edge">
<title>packages/util/math/fft/array/index.ts&#45;&gt;packages/util/math/fft/array/ftt&#45;core.ts</title>
<path fill="none" stroke="#000000" stroke-width="2" stroke-opacity="0.200000" d="M841.19,-395.67C859.16,-398.87 883.22,-403.15 902.92,-406.66"/>
<polygon fill="#000000" fill-opacity="0.200000" stroke="#000000" stroke-width="2" stroke-opacity="0.200000" points="902.6,-408.74 908.88,-407.72 903.34,-404.6 902.6,-408.74"/>
</g>
<!-- packages/UI/spectrogram/src/audio&#45;analyzer/index.ts -->
<g id="node9" class="node">
<title>packages/UI/spectrogram/src/audio&#45;analyzer/index.ts</title>
<g id="a_node9"><a xlink:href="packages/UI/spectrogram/src/audio-analyzer/index.ts" xlink:title="index.ts">
<path fill="#ddfeff" stroke="black" d="M512,-80C512,-80 470,-80 470,-80 467,-80 464,-77 464,-74 464,-74 464,-68 464,-68 464,-65 467,-62 470,-62 470,-62 512,-62 512,-62 515,-62 518,-65 518,-68 518,-68 518,-74 518,-74 518,-77 515,-80 512,-80"/>
<text text-anchor="start" x="472.5" y="-68.8" font-family="Helvetica,sans-Serif" font-size="9.00">index.ts</text>
</a>
</g>
</g>
<!-- packages/UI/spectrogram/src/audio&#45;analyzer/index.ts&#45;&gt;packages/UI/spectrogram/src/audio&#45;analyzer/audio&#45;analyzer.ts -->
<g id="edge7" class="edge">
<title>packages/UI/spectrogram/src/audio&#45;analyzer/index.ts&#45;&gt;packages/UI/spectrogram/src/audio&#45;analyzer/audio&#45;analyzer.ts</title>
<path fill="none" stroke="#000000" stroke-width="2" stroke-opacity="0.200000" d="M518,-71C532.5,-71 551.09,-71 568.44,-71"/>
<polygon fill="#000000" fill-opacity="0.200000" stroke="#000000" stroke-width="2" stroke-opacity="0.200000" points="574.77,-73.1 568.77,-71 574.77,-68.9 574.77,-73.1"/>
</g>
<!-- packages/UI/spectrogram/src/audio&#45;viewer.ts&#45;&gt;packages/UI/spectrogram/src/audio&#45;analyzer/index.ts -->
<g id="edge8" class="edge">
<title>packages/UI/spectrogram/src/audio&#45;viewer.ts&#45;&gt;packages/UI/spectrogram/src/audio&#45;analyzer/index.ts</title>
<path fill="none" stroke="#000000" stroke-width="2" stroke-opacity="0.200000" d="M254.25,-105.73C310.24,-97.52 407.21,-83.29 457.93,-75.85"/>
<polygon fill="#000000" fill-opacity="0.200000" stroke="#000000" stroke-width="2" stroke-opacity="0.200000" points="458.25,-77.93 463.88,-74.98 457.64,-73.77 458.25,-77.93"/>
</g>
<!-- packages/UI/spectrogram/src/fft&#45;viewer.ts -->
<g id="node11" class="node">
<title>packages/UI/spectrogram/src/fft&#45;viewer.ts</title>
<g id="a_node11"><a xlink:href="packages/UI/spectrogram/src/fft-viewer.ts" xlink:title="fft&#45;viewer.ts">
<path fill="#ddfeff" stroke="black" d="M384.5,-106C384.5,-106 327.5,-106 327.5,-106 324.5,-106 321.5,-103 321.5,-100 321.5,-100 321.5,-94 321.5,-94 321.5,-91 324.5,-88 327.5,-88 327.5,-88 384.5,-88 384.5,-88 387.5,-88 390.5,-91 390.5,-94 390.5,-94 390.5,-100 390.5,-100 390.5,-103 387.5,-106 384.5,-106"/>
<text text-anchor="start" x="329.5" y="-94.8" font-family="Helvetica,sans-Serif" font-size="9.00">fft&#45;viewer.ts</text>
</a>
</g>
</g>
<!-- packages/UI/spectrogram/src/audio&#45;viewer.ts&#45;&gt;packages/UI/spectrogram/src/fft&#45;viewer.ts -->
<g id="edge9" class="edge">
<title>packages/UI/spectrogram/src/audio&#45;viewer.ts&#45;&gt;packages/UI/spectrogram/src/fft&#45;viewer.ts</title>
<path fill="none" stroke="#000000" stroke-width="2" stroke-opacity="0.200000" d="M254.1,-107.62C273.29,-105.6 295.97,-103.21 314.97,-101.21"/>
<polygon fill="#000000" fill-opacity="0.200000" stroke="#000000" stroke-width="2" stroke-opacity="0.200000" points="315.51,-103.27 321.25,-100.55 315.07,-99.09 315.51,-103.27"/>
</g>
<!-- packages/UI/spectrogram/src/spectrogram&#45;viewer.ts -->
<g id="node12" class="node">
<title>packages/UI/spectrogram/src/spectrogram&#45;viewer.ts</title>
<g id="a_node12"><a xlink:href="packages/UI/spectrogram/src/spectrogram-viewer.ts" xlink:title="spectrogram&#45;viewer.ts">
<path fill="#ddfeff" stroke="black" d="M408.5,-76C408.5,-76 303.5,-76 303.5,-76 300.5,-76 297.5,-73 297.5,-70 297.5,-70 297.5,-64 297.5,-64 297.5,-61 300.5,-58 303.5,-58 303.5,-58 408.5,-58 408.5,-58 411.5,-58 414.5,-61 414.5,-64 414.5,-64 414.5,-70 414.5,-70 414.5,-73 411.5,-76 408.5,-76"/>
<text text-anchor="start" x="305.5" y="-64.8" font-family="Helvetica,sans-Serif" font-size="9.00">spectrogram&#45;viewer.ts</text>
</a>
</g>
</g>
<!-- packages/UI/spectrogram/src/audio&#45;viewer.ts&#45;&gt;packages/UI/spectrogram/src/spectrogram&#45;viewer.ts -->
<g id="edge10" class="edge">
<title>packages/UI/spectrogram/src/audio&#45;viewer.ts&#45;&gt;packages/UI/spectrogram/src/spectrogram&#45;viewer.ts</title>
<path fill="none" stroke="#000000" stroke-width="2" stroke-opacity="0.200000" d="M241.34,-102.89C264.13,-95.7 296.02,-85.62 320.23,-77.98"/>
<polygon fill="#000000" fill-opacity="0.200000" stroke="#000000" stroke-width="2" stroke-opacity="0.200000" points="321.12,-79.9 326.21,-76.09 319.85,-75.9 321.12,-79.9"/>
</g>
<!-- packages/UI/spectrogram/src/wave&#45;viewer.ts -->
<g id="node13" class="node">
<title>packages/UI/spectrogram/src/wave&#45;viewer.ts</title>
<g id="a_node13"><a xlink:href="packages/UI/spectrogram/src/wave-viewer.ts" xlink:title="wave&#45;viewer.ts">
<path fill="#ddfeff" stroke="black" d="M391.5,-136C391.5,-136 320.5,-136 320.5,-136 317.5,-136 314.5,-133 314.5,-130 314.5,-130 314.5,-124 314.5,-124 314.5,-121 317.5,-118 320.5,-118 320.5,-118 391.5,-118 391.5,-118 394.5,-118 397.5,-121 397.5,-124 397.5,-124 397.5,-130 397.5,-130 397.5,-133 394.5,-136 391.5,-136"/>
<text text-anchor="start" x="322.5" y="-124.8" font-family="Helvetica,sans-Serif" font-size="9.00">wave&#45;viewer.ts</text>
</a>
</g>
</g>
<!-- packages/UI/spectrogram/src/audio&#45;viewer.ts&#45;&gt;packages/UI/spectrogram/src/wave&#45;viewer.ts -->
<g id="edge11" class="edge">
<title>packages/UI/spectrogram/src/audio&#45;viewer.ts&#45;&gt;packages/UI/spectrogram/src/wave&#45;viewer.ts</title>
<path fill="none" stroke="#000000" stroke-width="2" stroke-opacity="0.200000" d="M254.1,-116.38C270.93,-118.15 290.44,-120.2 307.8,-122.03"/>
<polygon fill="#000000" fill-opacity="0.200000" stroke="#000000" stroke-width="2" stroke-opacity="0.200000" points="307.9,-124.15 314.09,-122.69 308.34,-119.98 307.9,-124.15"/>
</g>
<!-- packages/UI/view/src/reflectable/audio&#45;reflectable.ts -->
<g id="node14" class="node">
<title>packages/UI/view/src/reflectable/audio&#45;reflectable.ts</title>
<g id="a_node14"><a xlink:href="packages/UI/view/src/reflectable/audio-reflectable.ts" xlink:title="audio&#45;reflectable.ts">
<path fill="#ddfeff" stroke="black" d="M537,-238C537,-238 445,-238 445,-238 442,-238 439,-235 439,-232 439,-232 439,-226 439,-226 439,-223 442,-220 445,-220 445,-220 537,-220 537,-220 540,-220 543,-223 543,-226 543,-226 543,-232 543,-232 543,-235 540,-238 537,-238"/>
<text text-anchor="start" x="447" y="-226.8" font-family="Helvetica,sans-Serif" font-size="9.00">audio&#45;reflectable.ts</text>
</a>
</g>
</g>
<!-- packages/UI/spectrogram/src/audio&#45;viewer.ts&#45;&gt;packages/UI/view/src/reflectable/audio&#45;reflectable.ts -->
<g id="edge12" class="edge">
<title>packages/UI/spectrogram/src/audio&#45;viewer.ts&#45;&gt;packages/UI/view/src/reflectable/audio&#45;reflectable.ts</title>
<path fill="none" stroke="#000000" stroke-width="2" stroke-opacity="0.200000" d="M233.43,-121.18C283.84,-142.28 407.89,-194.21 463.38,-217.44"/>
<polygon fill="#000000" fill-opacity="0.200000" stroke="#000000" stroke-width="2" stroke-opacity="0.200000" points="462.82,-219.48 469.17,-219.86 464.45,-215.61 462.82,-219.48"/>
</g>
<!-- packages/UI/view/src/reflectable/audio&#45;reflectable&#45;registry.ts -->
<g id="node15" class="node">
<title>packages/UI/view/src/reflectable/audio&#45;reflectable&#45;registry.ts</title>
<g id="a_node15"><a xlink:href="packages/UI/view/src/reflectable/audio-reflectable-registry.ts" xlink:title="audio&#45;reflectable&#45;registry.ts">
<path fill="#ddfeff" stroke="black" d="M420,-238C420,-238 292,-238 292,-238 289,-238 286,-235 286,-232 286,-232 286,-226 286,-226 286,-223 289,-220 292,-220 292,-220 420,-220 420,-220 423,-220 426,-223 426,-226 426,-226 426,-232 426,-232 426,-235 423,-238 420,-238"/>
<text text-anchor="start" x="294" y="-226.8" font-family="Helvetica,sans-Serif" font-size="9.00">audio&#45;reflectable&#45;registry.ts</text>
</a>
</g>
</g>
<!-- packages/UI/spectrogram/src/audio&#45;viewer.ts&#45;&gt;packages/UI/view/src/reflectable/audio&#45;reflectable&#45;registry.ts -->
<g id="edge13" class="edge">
<title>packages/UI/spectrogram/src/audio&#45;viewer.ts&#45;&gt;packages/UI/view/src/reflectable/audio&#45;reflectable&#45;registry.ts</title>
<path fill="none" stroke="#000000" stroke-width="2" stroke-opacity="0.200000" d="M223.68,-121.18C248.86,-141.86 310.08,-192.12 339.16,-215.99"/>
<polygon fill="#000000" fill-opacity="0.200000" stroke="#000000" stroke-width="2" stroke-opacity="0.200000" points="337.9,-217.68 343.87,-219.86 340.57,-214.43 337.9,-217.68"/>
</g>
<!-- packages/UI/spectrogram/src/fft&#45;viewer.ts&#45;&gt;packages/UI/spectrogram/src/audio&#45;analyzer/index.ts -->
<g id="edge14" class="edge">
<title>packages/UI/spectrogram/src/fft&#45;viewer.ts&#45;&gt;packages/UI/spectrogram/src/audio&#45;analyzer/index.ts</title>
<path fill="none" stroke="#000000" stroke-width="2" stroke-opacity="0.200000" d="M390.56,-90.44C411.06,-86.43 437.16,-81.33 457.47,-77.36"/>
<polygon fill="#000000" fill-opacity="0.200000" stroke="#000000" stroke-width="2" stroke-opacity="0.200000" points="458.09,-79.38 463.57,-76.17 457.28,-75.26 458.09,-79.38"/>
</g>
<!-- packages/UI/spectrogram/src/fft&#45;viewer.ts&#45;&gt;packages/UI/view/src/reflectable/audio&#45;reflectable.ts -->
<g id="edge16" class="edge">
<title>packages/UI/spectrogram/src/fft&#45;viewer.ts&#45;&gt;packages/UI/view/src/reflectable/audio&#45;reflectable.ts</title>
<path fill="none" stroke="#000000" stroke-width="2" stroke-opacity="0.200000" d="M366.14,-106.07C389.11,-128.87 449.33,-188.64 476.44,-215.54"/>
<polygon fill="#000000" fill-opacity="0.200000" stroke="#000000" stroke-width="2" stroke-opacity="0.200000" points="475.06,-217.13 480.79,-219.86 478.02,-214.15 475.06,-217.13"/>
</g>
<!-- packages/util/math/dist/index.js -->
<g id="node16" class="node">
<title>packages/util/math/dist/index.js</title>
<g id="a_node16"><a xlink:href="packages/util/math/dist/index.js" xlink:title="index.js">
<polygon fill="#ffffcc" stroke="black" points="841,-516 839.5,-518 829,-518 827.5,-516 787,-516 787,-498 841,-498 841,-516"/>
<text text-anchor="start" x="796.5" y="-504.8" font-family="Helvetica,sans-Serif" font-size="9.00">index.js</text>
</a>
</g>
</g>
<!-- packages/UI/spectrogram/src/fft&#45;viewer.ts&#45;&gt;packages/util/math/dist/index.js -->
<g id="edge15" class="edge">
<title>packages/UI/spectrogram/src/fft&#45;viewer.ts&#45;&gt;packages/util/math/dist/index.js</title>
<path fill="none" stroke="#000000" stroke-width="2" stroke-opacity="0.200000" d="M366.43,-106.33C426.5,-160.11 728.24,-430.23 799.09,-493.66"/>
<polygon fill="#000000" fill-opacity="0.200000" stroke="#000000" stroke-width="2" stroke-opacity="0.200000" points="797.92,-495.42 803.79,-497.86 800.72,-492.29 797.92,-495.42"/>
</g>
<!-- packages/UI/spectrogram/src/spectrogram&#45;viewer.ts&#45;&gt;packages/UI/spectrogram/src/audio&#45;analyzer/index.ts -->
<g id="edge18" class="edge">
<title>packages/UI/spectrogram/src/spectrogram&#45;viewer.ts&#45;&gt;packages/UI/spectrogram/src/audio&#45;analyzer/index.ts</title>
<path fill="none" stroke="#000000" stroke-width="2" stroke-opacity="0.200000" d="M414.56,-68.73C429.28,-69.17 444.6,-69.63 457.55,-70.02"/>
<polygon fill="#000000" fill-opacity="0.200000" stroke="#000000" stroke-width="2" stroke-opacity="0.200000" points="457.65,-72.13 463.71,-70.21 457.78,-67.93 457.65,-72.13"/>
</g>
<!-- packages/UI/spectrogram/src/spectrogram&#45;viewer.ts&#45;&gt;packages/UI/view/src/reflectable/audio&#45;reflectable.ts -->
<g id="edge19" class="edge">
<title>packages/UI/spectrogram/src/spectrogram&#45;viewer.ts&#45;&gt;packages/UI/view/src/reflectable/audio&#45;reflectable.ts</title>
<path fill="none" stroke="#000000" stroke-width="2" stroke-opacity="0.200000" d="M364.53,-76.17C386.75,-103.24 452.14,-182.88 478.64,-215.17"/>
<polygon fill="#000000" fill-opacity="0.200000" stroke="#000000" stroke-width="2" stroke-opacity="0.200000" points="477.12,-216.62 482.55,-219.93 480.37,-213.96 477.12,-216.62"/>
</g>
<!-- packages/UI/spectrogram/src/wave&#45;viewer.ts&#45;&gt;packages/UI/spectrogram/src/audio&#45;analyzer/index.ts -->
<g id="edge20" class="edge">
<title>packages/UI/spectrogram/src/wave&#45;viewer.ts&#45;&gt;packages/UI/spectrogram/src/audio&#45;analyzer/index.ts</title>
<path fill="none" stroke="#000000" stroke-width="2" stroke-opacity="0.200000" d="M378.66,-117.88C401.56,-108.24 437.73,-93.01 462.6,-82.54"/>
<polygon fill="#000000" fill-opacity="0.200000" stroke="#000000" stroke-width="2" stroke-opacity="0.200000" points="463.63,-84.38 468.34,-80.12 462,-80.51 463.63,-84.38"/>
</g>
<!-- packages/UI/spectrogram/src/wave&#45;viewer.ts&#45;&gt;packages/UI/view/src/reflectable/audio&#45;reflectable.ts -->
<g id="edge22" class="edge">
<title>packages/UI/spectrogram/src/wave&#45;viewer.ts&#45;&gt;packages/UI/view/src/reflectable/audio&#45;reflectable.ts</title>
<path fill="none" stroke="#000000" stroke-width="2" stroke-opacity="0.200000" d="M368.8,-136.05C392.5,-154.23 445.94,-195.21 473.25,-216.15"/>
<polygon fill="#000000" fill-opacity="0.200000" stroke="#000000" stroke-width="2" stroke-opacity="0.200000" points="471.99,-217.84 478.03,-219.82 474.55,-214.5 471.99,-217.84"/>
</g>
<!-- packages/UI/spectrogram/src/wave&#45;viewer.ts&#45;&gt;packages/util/math/dist/index.js -->
<g id="edge21" class="edge">
<title>packages/UI/spectrogram/src/wave&#45;viewer.ts&#45;&gt;packages/util/math/dist/index.js</title>
<path fill="none" stroke="#000000" stroke-width="2" stroke-opacity="0.200000" d="M366.87,-136.02C427.72,-186.51 725.99,-433.98 798.22,-493.91"/>
<polygon fill="#000000" fill-opacity="0.200000" stroke="#000000" stroke-width="2" stroke-opacity="0.200000" points="797.07,-495.68 803.03,-497.9 799.75,-492.45 797.07,-495.68"/>
</g>
<!-- packages/UI/view/src/reflectable/audio&#45;reflectable&#45;registry.ts&#45;&gt;packages/UI/view/src/reflectable/audio&#45;reflectable.ts -->
<g id="edge23" class="edge">
<title>packages/UI/view/src/reflectable/audio&#45;reflectable&#45;registry.ts&#45;&gt;packages/UI/view/src/reflectable/audio&#45;reflectable.ts</title>
<path fill="none" stroke="#000000" stroke-width="2" stroke-opacity="0.200000" d="M426.23,-229C428.37,-229 430.52,-229 432.64,-229"/>
<polygon fill="#000000" fill-opacity="0.200000" stroke="#000000" stroke-width="2" stroke-opacity="0.200000" points="432.99,-231.1 438.99,-229 432.99,-226.9 432.99,-231.1"/>
</g>
<!-- packages/util/math/fft/array/ftt&#45;core.ts&#45;&gt;packages/util/math/fft/array/complex.ts -->
<g id="edge24" class="edge">
<title>packages/util/math/fft/array/ftt&#45;core.ts&#45;&gt;packages/util/math/fft/array/complex.ts</title>
<path fill="none" stroke="#000000" stroke-width="2" stroke-opacity="0.200000" d="M970.46,-405.06C975.34,-403.77 980.44,-402.41 985.48,-401.08"/>
<polygon fill="#000000" fill-opacity="0.200000" stroke="#000000" stroke-width="2" stroke-opacity="0.200000" points="986.07,-403.09 991.34,-399.53 985,-399.03 986.07,-403.09"/>
</g>
<!-- packages/util/math/fft/array/root&#45;of&#45;unity.ts -->
<g id="node19" class="node">
<title>packages/util/math/fft/array/root&#45;of&#45;unity.ts</title>
<g id="a_node19"><a xlink:href="packages/util/math/fft/array/root-of-unity.ts" xlink:title="root&#45;of&#45;unity.ts">
<path fill="#ddfeff" stroke="black" d="M1060,-430C1060,-430 989,-430 989,-430 986,-430 983,-427 983,-424 983,-424 983,-418 983,-418 983,-415 986,-412 989,-412 989,-412 1060,-412 1060,-412 1063,-412 1066,-415 1066,-418 1066,-418 1066,-424 1066,-424 1066,-427 1063,-430 1060,-430"/>
<text text-anchor="start" x="991" y="-418.8" font-family="Helvetica,sans-Serif" font-size="9.00">root&#45;of&#45;unity.ts</text>
</a>
</g>
</g>
<!-- packages/util/math/fft/array/ftt&#45;core.ts&#45;&gt;packages/util/math/fft/array/root&#45;of&#45;unity.ts -->
<g id="edge25" class="edge">
<title>packages/util/math/fft/array/ftt&#45;core.ts&#45;&gt;packages/util/math/fft/array/root&#45;of&#45;unity.ts</title>
<path fill="none" stroke="#000000" stroke-width="2" stroke-opacity="0.200000" d="M970.46,-415.89C972.46,-416.08 974.5,-416.28 976.55,-416.47"/>
<polygon fill="#000000" fill-opacity="0.200000" stroke="#000000" stroke-width="2" stroke-opacity="0.200000" points="976.57,-418.59 982.74,-417.07 976.97,-414.41 976.57,-418.59"/>
</g>
</g>
</svg>
