<?xml version="1.0" encoding="UTF-8" standalone="no"?>
<!DOCTYPE svg PUBLIC "-//W3C//DTD SVG 1.1//EN"
 "http://www.w3.org/Graphics/SVG/1.1/DTD/svg11.dtd">
<!-- Generated by graphviz version 2.43.0 (0)
 -->
<!-- Title: dependency&#45;cruiser output Pages: 1 -->
<svg width="989pt" height="664pt"
 viewBox="0.00 0.00 989.00 664.00" xmlns="http://www.w3.org/2000/svg" xmlns:xlink="http://www.w3.org/1999/xlink">
<g id="graph0" class="graph" transform="scale(1 1) rotate(0) translate(4 660)">
<title>dependency&#45;cruiser output</title>
<polygon fill="white" stroke="transparent" points="-4,4 -4,-660 985,-660 985,4 -4,4"/>
<g id="clust1" class="cluster">
<title>cluster_packages</title>
<path fill="#ffffff" stroke="black" stroke-width="2" d="M20,-8C20,-8 961,-8 961,-8 967,-8 973,-14 973,-20 973,-20 973,-636 973,-636 973,-642 967,-648 961,-648 961,-648 20,-648 20,-648 14,-648 8,-642 8,-636 8,-636 8,-20 8,-20 8,-14 14,-8 20,-8"/>
<text text-anchor="middle" x="490.5" y="-636.8" font-family="Helvetica,sans-Serif" font-weight="bold" font-size="9.00">packages</text>
</g>
<g id="clust2" class="cluster">
<title>cluster_packages/UI</title>
<path fill="#ffffff" stroke="black" stroke-width="2" d="M28,-16C28,-16 661,-16 661,-16 667,-16 673,-22 673,-28 673,-28 673,-330 673,-330 673,-336 667,-342 661,-342 661,-342 28,-342 28,-342 22,-342 16,-336 16,-330 16,-330 16,-28 16,-28 16,-22 22,-16 28,-16"/>
<text text-anchor="middle" x="344.5" y="-330.8" font-family="Helvetica,sans-Serif" font-weight="bold" font-size="9.00">UI</text>
</g>
<g id="clust3" class="cluster">
<title>cluster_packages/UI/spectrogram</title>
<path fill="#ffffff" stroke="black" stroke-width="2" d="M36,-24C36,-24 653,-24 653,-24 659,-24 665,-30 665,-36 665,-36 665,-176 665,-176 665,-182 659,-188 653,-188 653,-188 36,-188 36,-188 30,-188 24,-182 24,-176 24,-176 24,-36 24,-36 24,-30 30,-24 36,-24"/>
<text text-anchor="middle" x="344.5" y="-176.8" font-family="Helvetica,sans-Serif" font-weight="bold" font-size="9.00">spectrogram</text>
</g>
<g id="clust4" class="cluster">
<title>cluster_packages/UI/spectrogram/src</title>
<path fill="#ffffff" stroke="black" stroke-width="2" d="M44,-32C44,-32 645,-32 645,-32 651,-32 657,-38 657,-44 657,-44 657,-150 657,-150 657,-156 651,-162 645,-162 645,-162 44,-162 44,-162 38,-162 32,-156 32,-150 32,-150 32,-44 32,-44 32,-38 38,-32 44,-32"/>
<text text-anchor="middle" x="344.5" y="-150.8" font-family="Helvetica,sans-Serif" font-weight="bold" font-size="9.00">src</text>
</g>
<g id="clust5" class="cluster">
<title>cluster_packages/UI/spectrogram/src/audio&#45;analyzer</title>
<path fill="#ffffff" stroke="black" stroke-width="2" d="M319.5,-40C319.5,-40 637,-40 637,-40 643,-40 649,-46 649,-52 649,-52 649,-124 649,-124 649,-130 643,-136 637,-136 637,-136 319.5,-136 319.5,-136 313.5,-136 307.5,-130 307.5,-124 307.5,-124 307.5,-52 307.5,-52 307.5,-46 313.5,-40 319.5,-40"/>
<text text-anchor="middle" x="478.25" y="-124.8" font-family="Helvetica,sans-Serif" font-weight="bold" font-size="9.00">audio&#45;analyzer</text>
</g>
<g id="clust6" class="cluster">
<title>cluster_packages/UI/view</title>
<path fill="#ffffff" stroke="black" stroke-width="2" d="M145,-196C145,-196 426,-196 426,-196 432,-196 438,-202 438,-208 438,-208 438,-304 438,-304 438,-310 432,-316 426,-316 426,-316 145,-316 145,-316 139,-316 133,-310 133,-304 133,-304 133,-208 133,-208 133,-202 139,-196 145,-196"/>
<text text-anchor="middle" x="285.5" y="-304.8" font-family="Helvetica,sans-Serif" font-weight="bold" font-size="9.00">view</text>
</g>
<g id="clust7" class="cluster">
<title>cluster_packages/UI/view/src</title>
<path fill="#ffffff" stroke="black" stroke-width="2" d="M153,-204C153,-204 418,-204 418,-204 424,-204 430,-210 430,-216 430,-216 430,-278 430,-278 430,-284 424,-290 418,-290 418,-290 153,-290 153,-290 147,-290 141,-284 141,-278 141,-278 141,-216 141,-216 141,-210 147,-204 153,-204"/>
<text text-anchor="middle" x="285.5" y="-278.8" font-family="Helvetica,sans-Serif" font-weight="bold" font-size="9.00">src</text>
</g>
<g id="clust8" class="cluster">
<title>cluster_packages/UI/view/src/reflectable</title>
<path fill="#ffffff" stroke="black" stroke-width="2" d="M161,-212C161,-212 410,-212 410,-212 416,-212 422,-218 422,-224 422,-224 422,-252 422,-252 422,-258 416,-264 410,-264 410,-264 161,-264 161,-264 155,-264 149,-258 149,-252 149,-252 149,-224 149,-224 149,-218 155,-212 161,-212"/>
<text text-anchor="middle" x="285.5" y="-252.8" font-family="Helvetica,sans-Serif" font-weight="bold" font-size="9.00">reflectable</text>
</g>
<g id="clust9" class="cluster">
<title>cluster_packages/util</title>
<path fill="#ffffff" stroke="black" stroke-width="2" d="M531,-350C531,-350 953,-350 953,-350 959,-350 965,-356 965,-362 965,-362 965,-610 965,-610 965,-616 959,-622 953,-622 953,-622 531,-622 531,-622 525,-622 519,-616 519,-610 519,-610 519,-362 519,-362 519,-356 525,-350 531,-350"/>
<text text-anchor="middle" x="742" y="-610.8" font-family="Helvetica,sans-Serif" font-weight="bold" font-size="9.00">util</text>
</g>
<g id="clust10" class="cluster">
<title>cluster_packages/util/math</title>
<path fill="#ffffff" stroke="black" stroke-width="2" d="M539,-358C539,-358 945,-358 945,-358 951,-358 957,-364 957,-370 957,-370 957,-584 957,-584 957,-590 951,-596 945,-596 945,-596 539,-596 539,-596 533,-596 527,-590 527,-584 527,-584 527,-370 527,-370 527,-364 533,-358 539,-358"/>
<text text-anchor="middle" x="742" y="-584.8" font-family="Helvetica,sans-Serif" font-weight="bold" font-size="9.00">math</text>
</g>
<g id="clust11" class="cluster">
<title>cluster_packages/util/math/src</title>
<path fill="#ffffff" stroke="black" stroke-width="2" d="M547,-366C547,-366 937,-366 937,-366 943,-366 949,-372 949,-378 949,-378 949,-558 949,-558 949,-564 943,-570 937,-570 937,-570 547,-570 547,-570 541,-570 535,-564 535,-558 535,-558 535,-378 535,-378 535,-372 541,-366 547,-366"/>
<text text-anchor="middle" x="742" y="-558.8" font-family="Helvetica,sans-Serif" font-weight="bold" font-size="9.00">src</text>
</g>
<g id="clust12" class="cluster">
<title>cluster_packages/util/math/src/fft</title>
<path fill="#ffffff" stroke="black" stroke-width="2" d="M555,-374C555,-374 929,-374 929,-374 935,-374 941,-380 941,-386 941,-386 941,-532 941,-532 941,-538 935,-544 929,-544 929,-544 555,-544 555,-544 549,-544 543,-538 543,-532 543,-532 543,-386 543,-386 543,-380 549,-374 555,-374"/>
<text text-anchor="middle" x="742" y="-532.8" font-family="Helvetica,sans-Serif" font-weight="bold" font-size="9.00">fft</text>
</g>
<g id="clust13" class="cluster">
<title>cluster_packages/util/math/src/fft/array</title>
<path fill="#ffffff" stroke="black" stroke-width="2" d="M563,-382C563,-382 834,-382 834,-382 840,-382 846,-388 846,-394 846,-394 846,-452 846,-452 846,-458 840,-464 834,-464 834,-464 563,-464 563,-464 557,-464 551,-458 551,-452 551,-452 551,-394 551,-394 551,-388 557,-382 563,-382"/>
<text text-anchor="middle" x="698.5" y="-452.8" font-family="Helvetica,sans-Serif" font-weight="bold" font-size="9.00">array</text>
</g>
<!-- packages/UI/spectrogram/src/audio&#45;analyzer/audio&#45;analyzer.ts -->
<g id="node1" class="node">
<title>packages/UI/spectrogram/src/audio&#45;analyzer/audio&#45;analyzer.ts</title>
<g id="a_node1"><a xlink:href="packages/UI/spectrogram/src/audio-analyzer/audio-analyzer.ts" xlink:title="audio&#45;analyzer.ts">
<path fill="#ddfeff" stroke="black" d="M402.5,-96C402.5,-96 321.5,-96 321.5,-96 318.5,-96 315.5,-93 315.5,-90 315.5,-90 315.5,-84 315.5,-84 315.5,-81 318.5,-78 321.5,-78 321.5,-78 402.5,-78 402.5,-78 405.5,-78 408.5,-81 408.5,-84 408.5,-84 408.5,-90 408.5,-90 408.5,-93 405.5,-96 402.5,-96"/>
<text text-anchor="start" x="323.5" y="-84.8" font-family="Helvetica,sans-Serif" font-size="9.00">audio&#45;analyzer.ts</text>
</a>
</g>
</g>
<!-- packages/UI/spectrogram/src/audio&#45;analyzer/connect.ts -->
<g id="node2" class="node">
<title>packages/UI/spectrogram/src/audio&#45;analyzer/connect.ts</title>
<g id="a_node2"><a xlink:href="packages/UI/spectrogram/src/audio-analyzer/connect.ts" xlink:title="connect.ts">
<path fill="#ddfeff" stroke="black" d="M505,-66C505,-66 452,-66 452,-66 449,-66 446,-63 446,-60 446,-60 446,-54 446,-54 446,-51 449,-48 452,-48 452,-48 505,-48 505,-48 508,-48 511,-51 511,-54 511,-54 511,-60 511,-60 511,-63 508,-66 505,-66"/>
<text text-anchor="start" x="454" y="-54.8" font-family="Helvetica,sans-Serif" font-size="9.00">connect.ts</text>
</a>
</g>
</g>
<!-- packages/UI/spectrogram/src/audio&#45;analyzer/audio&#45;analyzer.ts&#45;&gt;packages/UI/spectrogram/src/audio&#45;analyzer/connect.ts -->
<g id="edge1" class="edge">
<title>packages/UI/spectrogram/src/audio&#45;analyzer/audio&#45;analyzer.ts&#45;&gt;packages/UI/spectrogram/src/audio&#45;analyzer/connect.ts</title>
<path fill="none" stroke="#000000" stroke-width="2" stroke-opacity="0.200000" d="M397.35,-78C410.72,-74.5 426.08,-70.47 439.76,-66.89"/>
<polygon fill="#000000" fill-opacity="0.200000" stroke="#000000" stroke-width="2" stroke-opacity="0.200000" points="440.64,-68.83 445.91,-65.28 439.57,-64.77 440.64,-68.83"/>
</g>
<!-- packages/UI/spectrogram/src/audio&#45;analyzer/get&#45;data&#45;on&#45;buffer.ts -->
<g id="node3" class="node">
<title>packages/UI/spectrogram/src/audio&#45;analyzer/get&#45;data&#45;on&#45;buffer.ts</title>
<g id="a_node3"><a xlink:href="packages/UI/spectrogram/src/audio-analyzer/get-data-on-buffer.ts" xlink:title="get&#45;data&#45;on&#45;buffer.ts">
<path fill="#ddfeff" stroke="black" d="M635,-99C635,-99 537,-99 537,-99 534,-99 531,-96 531,-93 531,-93 531,-87 531,-87 531,-84 534,-81 537,-81 537,-81 635,-81 635,-81 638,-81 641,-84 641,-87 641,-87 641,-93 641,-93 641,-96 638,-99 635,-99"/>
<text text-anchor="start" x="539" y="-87.8" font-family="Helvetica,sans-Serif" font-size="9.00">get&#45;data&#45;on&#45;buffer.ts</text>
</a>
</g>
</g>
<!-- packages/UI/spectrogram/src/audio&#45;analyzer/audio&#45;analyzer.ts&#45;&gt;packages/UI/spectrogram/src/audio&#45;analyzer/get&#45;data&#45;on&#45;buffer.ts -->
<g id="edge2" class="edge">
<title>packages/UI/spectrogram/src/audio&#45;analyzer/audio&#45;analyzer.ts&#45;&gt;packages/UI/spectrogram/src/audio&#45;analyzer/get&#45;data&#45;on&#45;buffer.ts</title>
<path fill="none" stroke="#000000" stroke-width="2" stroke-opacity="0.200000" d="M408.69,-87.63C442.26,-88.07 487.87,-88.69 524.42,-89.18"/>
<polygon fill="#000000" fill-opacity="0.200000" stroke="#000000" stroke-width="2" stroke-opacity="0.200000" points="524.65,-91.28 530.67,-89.26 524.7,-87.08 524.65,-91.28"/>
</g>
<!-- packages/UI/spectrogram/src/audio&#45;analyzer/get&#45;fft.ts -->
<g id="node4" class="node">
<title>packages/UI/spectrogram/src/audio&#45;analyzer/get&#45;fft.ts</title>
<g id="a_node4"><a xlink:href="packages/UI/spectrogram/src/audio-analyzer/get-fft.ts" xlink:title="get&#45;fft.ts">
<path fill="#ddfeff" stroke="black" d="M500.5,-110C500.5,-110 456.5,-110 456.5,-110 453.5,-110 450.5,-107 450.5,-104 450.5,-104 450.5,-98 450.5,-98 450.5,-95 453.5,-92 456.5,-92 456.5,-92 500.5,-92 500.5,-92 503.5,-92 506.5,-95 506.5,-98 506.5,-98 506.5,-104 506.5,-104 506.5,-107 503.5,-110 500.5,-110"/>
<text text-anchor="start" x="458.5" y="-98.8" font-family="Helvetica,sans-Serif" font-size="9.00">get&#45;fft.ts</text>
</a>
</g>
</g>
<!-- packages/UI/spectrogram/src/audio&#45;analyzer/audio&#45;analyzer.ts&#45;&gt;packages/UI/spectrogram/src/audio&#45;analyzer/get&#45;fft.ts -->
<g id="edge3" class="edge">
<title>packages/UI/spectrogram/src/audio&#45;analyzer/audio&#45;analyzer.ts&#45;&gt;packages/UI/spectrogram/src/audio&#45;analyzer/get&#45;fft.ts</title>
<path fill="none" stroke="#000000" stroke-width="2" stroke-opacity="0.200000" d="M408.58,-92.57C420.47,-94.03 433.07,-95.57 444.19,-96.93"/>
<polygon fill="#000000" fill-opacity="0.200000" stroke="#000000" stroke-width="2" stroke-opacity="0.200000" points="443.99,-99.02 450.21,-97.66 444.5,-94.85 443.99,-99.02"/>
</g>
<!-- packages/UI/spectrogram/src/audio&#45;analyzer/get&#45;fft.ts&#45;&gt;packages/UI/spectrogram/src/audio&#45;analyzer/get&#45;data&#45;on&#45;buffer.ts -->
<g id="edge4" class="edge">
<title>packages/UI/spectrogram/src/audio&#45;analyzer/get&#45;fft.ts&#45;&gt;packages/UI/spectrogram/src/audio&#45;analyzer/get&#45;data&#45;on&#45;buffer.ts</title>
<path fill="none" stroke="#000000" stroke-width="2" stroke-opacity="0.200000" d="M506.67,-98.17C512.26,-97.58 518.35,-96.95 524.58,-96.3"/>
<polygon fill="#000000" fill-opacity="0.200000" stroke="#000000" stroke-width="2" stroke-opacity="0.200000" points="525.11,-98.36 530.86,-95.65 524.67,-94.18 525.11,-98.36"/>
</g>
<!-- packages/util/math/src/fft/array/index.ts -->
<g id="node6" class="node">
<title>packages/util/math/src/fft/array/index.ts</title>
<g id="a_node6"><a xlink:href="packages/util/math/src/fft/array/index.ts" xlink:title="index.ts">
<path fill="#ddfeff" stroke="black" d="M607,-408C607,-408 565,-408 565,-408 562,-408 559,-405 559,-402 559,-402 559,-396 559,-396 559,-393 562,-390 565,-390 565,-390 607,-390 607,-390 610,-390 613,-393 613,-396 613,-396 613,-402 613,-402 613,-405 610,-408 607,-408"/>
<text text-anchor="start" x="567.5" y="-396.8" font-family="Helvetica,sans-Serif" font-size="9.00">index.ts</text>
</a>
</g>
</g>
<!-- packages/UI/spectrogram/src/audio&#45;analyzer/get&#45;fft.ts&#45;&gt;packages/util/math/src/fft/array/index.ts -->
<g id="edge5" class="edge">
<title>packages/UI/spectrogram/src/audio&#45;analyzer/get&#45;fft.ts&#45;&gt;packages/util/math/src/fft/array/index.ts</title>
<path fill="none" stroke="#000000" stroke-width="2" stroke-opacity="0.200000" d="M482.77,-110.25C497.88,-152.92 560.92,-330.99 579.7,-384.03"/>
<polygon fill="#000000" fill-opacity="0.200000" stroke="#000000" stroke-width="2" stroke-opacity="0.200000" points="577.78,-384.91 581.77,-389.86 581.74,-383.51 577.78,-384.91"/>
</g>
<!-- packages/UI/spectrogram/src/audio&#45;analyzer/cosine&#45;window.ts -->
<g id="node5" class="node">
<title>packages/UI/spectrogram/src/audio&#45;analyzer/cosine&#45;window.ts</title>
<g id="a_node5"><a xlink:href="packages/UI/spectrogram/src/audio-analyzer/cosine-window.ts" xlink:title="no&#45;orphans">
<path fill="#ccffcc" stroke="orange" d="M402.5,-66C402.5,-66 321.5,-66 321.5,-66 318.5,-66 315.5,-63 315.5,-60 315.5,-60 315.5,-54 315.5,-54 315.5,-51 318.5,-48 321.5,-48 321.5,-48 402.5,-48 402.5,-48 405.5,-48 408.5,-51 408.5,-54 408.5,-54 408.5,-60 408.5,-60 408.5,-63 405.5,-66 402.5,-66"/>
<text text-anchor="start" x="323.5" y="-54.8" font-family="Helvetica,sans-Serif" font-size="9.00" fill="orange">cosine&#45;window.ts</text>
</a>
</g>
</g>
<!-- packages/util/math/src/fft/array/complex.ts -->
<g id="node15" class="node">
<title>packages/util/math/src/fft/array/complex.ts</title>
<g id="a_node15"><a xlink:href="packages/util/math/src/fft/array/complex.ts" xlink:title="complex.ts">
<path fill="#ddfeff" stroke="black" d="M823.5,-408C823.5,-408 769.5,-408 769.5,-408 766.5,-408 763.5,-405 763.5,-402 763.5,-402 763.5,-396 763.5,-396 763.5,-393 766.5,-390 769.5,-390 769.5,-390 823.5,-390 823.5,-390 826.5,-390 829.5,-393 829.5,-396 829.5,-396 829.5,-402 829.5,-402 829.5,-405 826.5,-408 823.5,-408"/>
<text text-anchor="start" x="771.5" y="-396.8" font-family="Helvetica,sans-Serif" font-size="9.00">complex.ts</text>
</a>
</g>
</g>
<!-- packages/util/math/src/fft/array/index.ts&#45;&gt;packages/util/math/src/fft/array/complex.ts -->
<g id="edge26" class="edge">
<title>packages/util/math/src/fft/array/index.ts&#45;&gt;packages/util/math/src/fft/array/complex.ts</title>
<path fill="none" stroke="#000000" stroke-width="2" stroke-opacity="0.200000" d="M613.09,-399C649.71,-399 715.25,-399 757.26,-399"/>
<polygon fill="#000000" fill-opacity="0.200000" stroke="#000000" stroke-width="2" stroke-opacity="0.200000" points="757.28,-401.1 763.28,-399 757.28,-396.9 757.28,-401.1"/>
</g>
<!-- packages/util/math/src/fft/array/ftt&#45;core.ts -->
<g id="node17" class="node">
<title>packages/util/math/src/fft/array/ftt&#45;core.ts</title>
<g id="a_node17"><a xlink:href="packages/util/math/src/fft/array/ftt-core.ts" xlink:title="ftt&#45;core.ts">
<path fill="#ddfeff" stroke="black" d="M736,-434C736,-434 687,-434 687,-434 684,-434 681,-431 681,-428 681,-428 681,-422 681,-422 681,-419 684,-416 687,-416 687,-416 736,-416 736,-416 739,-416 742,-419 742,-422 742,-422 742,-428 742,-428 742,-431 739,-434 736,-434"/>
<text text-anchor="start" x="689" y="-422.8" font-family="Helvetica,sans-Serif" font-size="9.00">ftt&#45;core.ts</text>
</a>
</g>
</g>
<!-- packages/util/math/src/fft/array/index.ts&#45;&gt;packages/util/math/src/fft/array/ftt&#45;core.ts -->
<g id="edge27" class="edge">
<title>packages/util/math/src/fft/array/index.ts&#45;&gt;packages/util/math/src/fft/array/ftt&#45;core.ts</title>
<path fill="none" stroke="#000000" stroke-width="2" stroke-opacity="0.200000" d="M613.19,-404.51C631.16,-408.3 655.22,-413.36 674.92,-417.51"/>
<polygon fill="#000000" fill-opacity="0.200000" stroke="#000000" stroke-width="2" stroke-opacity="0.200000" points="674.58,-419.58 680.88,-418.76 675.44,-415.47 674.58,-419.58"/>
</g>
<!-- packages/UI/spectrogram/src/audio&#45;viewer.ts -->
<g id="node7" class="node">
<title>packages/UI/spectrogram/src/audio&#45;viewer.ts</title>
<g id="a_node7"><a xlink:href="packages/UI/spectrogram/src/audio-viewer.ts" xlink:title="audio&#45;viewer.ts">
<path fill="#ddfeff" stroke="black" d="M119,-121C119,-121 46,-121 46,-121 43,-121 40,-118 40,-115 40,-115 40,-109 40,-109 40,-106 43,-103 46,-103 46,-103 119,-103 119,-103 122,-103 125,-106 125,-109 125,-109 125,-115 125,-115 125,-118 122,-121 119,-121"/>
<text text-anchor="start" x="48" y="-109.8" font-family="Helvetica,sans-Serif" font-size="9.00">audio&#45;viewer.ts</text>
</a>
</g>
</g>
<!-- packages/UI/spectrogram/src/audio&#45;viewer.ts&#45;&gt;packages/UI/spectrogram/src/audio&#45;analyzer/audio&#45;analyzer.ts -->
<g id="edge6" class="edge">
<title>packages/UI/spectrogram/src/audio&#45;viewer.ts&#45;&gt;packages/UI/spectrogram/src/audio&#45;analyzer/audio&#45;analyzer.ts</title>
<path fill="none" stroke="#000000" stroke-width="2" stroke-opacity="0.200000" d="M125.25,-108.18C174.58,-103.76 255.72,-96.51 309.01,-91.74"/>
<polygon fill="#000000" fill-opacity="0.200000" stroke="#000000" stroke-width="2" stroke-opacity="0.200000" points="309.26,-93.83 315.05,-91.2 308.89,-89.64 309.26,-93.83"/>
</g>
<!-- packages/UI/spectrogram/src/fft&#45;viewer.ts -->
<g id="node8" class="node">
<title>packages/UI/spectrogram/src/fft&#45;viewer.ts</title>
<g id="a_node8"><a xlink:href="packages/UI/spectrogram/src/fft-viewer.ts" xlink:title="fft&#45;viewer.ts">
<path fill="#ddfeff" stroke="black" d="M255.5,-106C255.5,-106 198.5,-106 198.5,-106 195.5,-106 192.5,-103 192.5,-100 192.5,-100 192.5,-94 192.5,-94 192.5,-91 195.5,-88 198.5,-88 198.5,-88 255.5,-88 255.5,-88 258.5,-88 261.5,-91 261.5,-94 261.5,-94 261.5,-100 261.5,-100 261.5,-103 258.5,-106 255.5,-106"/>
<text text-anchor="start" x="200.5" y="-94.8" font-family="Helvetica,sans-Serif" font-size="9.00">fft&#45;viewer.ts</text>
</a>
</g>
</g>
<!-- packages/UI/spectrogram/src/audio&#45;viewer.ts&#45;&gt;packages/UI/spectrogram/src/fft&#45;viewer.ts -->
<g id="edge7" class="edge">
<title>packages/UI/spectrogram/src/audio&#45;viewer.ts&#45;&gt;packages/UI/spectrogram/src/fft&#45;viewer.ts</title>
<path fill="none" stroke="#000000" stroke-width="2" stroke-opacity="0.200000" d="M125.1,-107.62C144.29,-105.6 166.97,-103.21 185.97,-101.21"/>
<polygon fill="#000000" fill-opacity="0.200000" stroke="#000000" stroke-width="2" stroke-opacity="0.200000" points="186.51,-103.27 192.25,-100.55 186.07,-99.09 186.51,-103.27"/>
</g>
<!-- packages/UI/spectrogram/src/spectrogram&#45;viewer.ts -->
<g id="node9" class="node">
<title>packages/UI/spectrogram/src/spectrogram&#45;viewer.ts</title>
<g id="a_node9"><a xlink:href="packages/UI/spectrogram/src/spectrogram-viewer.ts" xlink:title="spectrogram&#45;viewer.ts">
<path fill="#ddfeff" stroke="black" d="M279.5,-76C279.5,-76 174.5,-76 174.5,-76 171.5,-76 168.5,-73 168.5,-70 168.5,-70 168.5,-64 168.5,-64 168.5,-61 171.5,-58 174.5,-58 174.5,-58 279.5,-58 279.5,-58 282.5,-58 285.5,-61 285.5,-64 285.5,-64 285.5,-70 285.5,-70 285.5,-73 282.5,-76 279.5,-76"/>
<text text-anchor="start" x="176.5" y="-64.8" font-family="Helvetica,sans-Serif" font-size="9.00">spectrogram&#45;viewer.ts</text>
</a>
</g>
</g>
<!-- packages/UI/spectrogram/src/audio&#45;viewer.ts&#45;&gt;packages/UI/spectrogram/src/spectrogram&#45;viewer.ts -->
<g id="edge8" class="edge">
<title>packages/UI/spectrogram/src/audio&#45;viewer.ts&#45;&gt;packages/UI/spectrogram/src/spectrogram&#45;viewer.ts</title>
<path fill="none" stroke="#000000" stroke-width="2" stroke-opacity="0.200000" d="M112.34,-102.89C135.13,-95.7 167.02,-85.62 191.23,-77.98"/>
<polygon fill="#000000" fill-opacity="0.200000" stroke="#000000" stroke-width="2" stroke-opacity="0.200000" points="192.12,-79.9 197.21,-76.09 190.85,-75.9 192.12,-79.9"/>
</g>
<!-- packages/UI/spectrogram/src/wave&#45;viewer.ts -->
<g id="node10" class="node">
<title>packages/UI/spectrogram/src/wave&#45;viewer.ts</title>
<g id="a_node10"><a xlink:href="packages/UI/spectrogram/src/wave-viewer.ts" xlink:title="wave&#45;viewer.ts">
<path fill="#ddfeff" stroke="black" d="M262.5,-136C262.5,-136 191.5,-136 191.5,-136 188.5,-136 185.5,-133 185.5,-130 185.5,-130 185.5,-124 185.5,-124 185.5,-121 188.5,-118 191.5,-118 191.5,-118 262.5,-118 262.5,-118 265.5,-118 268.5,-121 268.5,-124 268.5,-124 268.5,-130 268.5,-130 268.5,-133 265.5,-136 262.5,-136"/>
<text text-anchor="start" x="193.5" y="-124.8" font-family="Helvetica,sans-Serif" font-size="9.00">wave&#45;viewer.ts</text>
</a>
</g>
</g>
<!-- packages/UI/spectrogram/src/audio&#45;viewer.ts&#45;&gt;packages/UI/spectrogram/src/wave&#45;viewer.ts -->
<g id="edge9" class="edge">
<title>packages/UI/spectrogram/src/audio&#45;viewer.ts&#45;&gt;packages/UI/spectrogram/src/wave&#45;viewer.ts</title>
<path fill="none" stroke="#000000" stroke-width="2" stroke-opacity="0.200000" d="M125.1,-116.38C141.93,-118.15 161.44,-120.2 178.8,-122.03"/>
<polygon fill="#000000" fill-opacity="0.200000" stroke="#000000" stroke-width="2" stroke-opacity="0.200000" points="178.9,-124.15 185.09,-122.69 179.34,-119.98 178.9,-124.15"/>
</g>
<!-- packages/UI/view/src/reflectable/audio&#45;reflectable.ts -->
<g id="node11" class="node">
<title>packages/UI/view/src/reflectable/audio&#45;reflectable.ts</title>
<g id="a_node11"><a xlink:href="packages/UI/view/src/reflectable/audio-reflectable.ts" xlink:title="audio&#45;reflectable.ts">
<path fill="#ddfeff" stroke="black" d="M408,-238C408,-238 316,-238 316,-238 313,-238 310,-235 310,-232 310,-232 310,-226 310,-226 310,-223 313,-220 316,-220 316,-220 408,-220 408,-220 411,-220 414,-223 414,-226 414,-226 414,-232 414,-232 414,-235 411,-238 408,-238"/>
<text text-anchor="start" x="318" y="-226.8" font-family="Helvetica,sans-Serif" font-size="9.00">audio&#45;reflectable.ts</text>
</a>
</g>
</g>
<!-- packages/UI/spectrogram/src/audio&#45;viewer.ts&#45;&gt;packages/UI/view/src/reflectable/audio&#45;reflectable.ts -->
<g id="edge10" class="edge">
<title>packages/UI/spectrogram/src/audio&#45;viewer.ts&#45;&gt;packages/UI/view/src/reflectable/audio&#45;reflectable.ts</title>
<path fill="none" stroke="#000000" stroke-width="2" stroke-opacity="0.200000" d="M104.43,-121.18C154.84,-142.28 278.89,-194.21 334.38,-217.44"/>
<polygon fill="#000000" fill-opacity="0.200000" stroke="#000000" stroke-width="2" stroke-opacity="0.200000" points="333.82,-219.48 340.17,-219.86 335.45,-215.61 333.82,-219.48"/>
</g>
<!-- packages/UI/view/src/reflectable/audio&#45;reflectable&#45;registry.ts -->
<g id="node12" class="node">
<title>packages/UI/view/src/reflectable/audio&#45;reflectable&#45;registry.ts</title>
<g id="a_node12"><a xlink:href="packages/UI/view/src/reflectable/audio-reflectable-registry.ts" xlink:title="audio&#45;reflectable&#45;registry.ts">
<path fill="#ddfeff" stroke="black" d="M291,-238C291,-238 163,-238 163,-238 160,-238 157,-235 157,-232 157,-232 157,-226 157,-226 157,-223 160,-220 163,-220 163,-220 291,-220 291,-220 294,-220 297,-223 297,-226 297,-226 297,-232 297,-232 297,-235 294,-238 291,-238"/>
<text text-anchor="start" x="165" y="-226.8" font-family="Helvetica,sans-Serif" font-size="9.00">audio&#45;reflectable&#45;registry.ts</text>
</a>
</g>
</g>
<!-- packages/UI/spectrogram/src/audio&#45;viewer.ts&#45;&gt;packages/UI/view/src/reflectable/audio&#45;reflectable&#45;registry.ts -->
<g id="edge11" class="edge">
<title>packages/UI/spectrogram/src/audio&#45;viewer.ts&#45;&gt;packages/UI/view/src/reflectable/audio&#45;reflectable&#45;registry.ts</title>
<path fill="none" stroke="#000000" stroke-width="2" stroke-opacity="0.200000" d="M94.68,-121.18C119.86,-141.86 181.08,-192.12 210.16,-215.99"/>
<polygon fill="#000000" fill-opacity="0.200000" stroke="#000000" stroke-width="2" stroke-opacity="0.200000" points="208.9,-217.68 214.87,-219.86 211.57,-214.43 208.9,-217.68"/>
</g>
<!-- packages/UI/spectrogram/src/fft&#45;viewer.ts&#45;&gt;packages/UI/spectrogram/src/audio&#45;analyzer/audio&#45;analyzer.ts -->
<g id="edge12" class="edge">
<title>packages/UI/spectrogram/src/fft&#45;viewer.ts&#45;&gt;packages/UI/spectrogram/src/audio&#45;analyzer/audio&#45;analyzer.ts</title>
<path fill="none" stroke="#000000" stroke-width="2" stroke-opacity="0.200000" d="M261.56,-94.48C275.96,-93.39 293.12,-92.1 309.1,-90.9"/>
<polygon fill="#000000" fill-opacity="0.200000" stroke="#000000" stroke-width="2" stroke-opacity="0.200000" points="309.57,-92.97 315.39,-90.43 309.25,-88.79 309.57,-92.97"/>
</g>
<!-- packages/UI/spectrogram/src/fft&#45;viewer.ts&#45;&gt;packages/UI/view/src/reflectable/audio&#45;reflectable.ts -->
<g id="edge14" class="edge">
<title>packages/UI/spectrogram/src/fft&#45;viewer.ts&#45;&gt;packages/UI/view/src/reflectable/audio&#45;reflectable.ts</title>
<path fill="none" stroke="#000000" stroke-width="2" stroke-opacity="0.200000" d="M237.14,-106.07C260.11,-128.87 320.33,-188.64 347.44,-215.54"/>
<polygon fill="#000000" fill-opacity="0.200000" stroke="#000000" stroke-width="2" stroke-opacity="0.200000" points="346.06,-217.13 351.79,-219.86 349.02,-214.15 346.06,-217.13"/>
</g>
<!-- packages/util/math/src/fft/complex.ts -->
<g id="node13" class="node">
<title>packages/util/math/src/fft/complex.ts</title>
<g id="a_node13"><a xlink:href="packages/util/math/src/fft/complex.ts" xlink:title="complex.ts">
<path fill="#ddfeff" stroke="black" d="M920.5,-496C920.5,-496 866.5,-496 866.5,-496 863.5,-496 860.5,-493 860.5,-490 860.5,-490 860.5,-484 860.5,-484 860.5,-481 863.5,-478 866.5,-478 866.5,-478 920.5,-478 920.5,-478 923.5,-478 926.5,-481 926.5,-484 926.5,-484 926.5,-490 926.5,-490 926.5,-493 923.5,-496 920.5,-496"/>
<text text-anchor="start" x="868.5" y="-484.8" font-family="Helvetica,sans-Serif" font-size="9.00">complex.ts</text>
</a>
</g>
</g>
<!-- packages/UI/spectrogram/src/fft&#45;viewer.ts&#45;&gt;packages/util/math/src/fft/complex.ts -->
<g id="edge13" class="edge">
<title>packages/UI/spectrogram/src/fft&#45;viewer.ts&#45;&gt;packages/util/math/src/fft/complex.ts</title>
<path fill="none" stroke="#000000" stroke-width="2" stroke-opacity="0.200000" d="M242.49,-106.07C330.93,-157.81 771.44,-415.57 872.72,-474.84"/>
<polygon fill="#000000" fill-opacity="0.200000" stroke="#000000" stroke-width="2" stroke-opacity="0.200000" points="871.85,-476.77 878.09,-477.98 873.97,-473.14 871.85,-476.77"/>
</g>
<!-- packages/UI/spectrogram/src/spectrogram&#45;viewer.ts&#45;&gt;packages/UI/spectrogram/src/audio&#45;analyzer/audio&#45;analyzer.ts -->
<g id="edge15" class="edge">
<title>packages/UI/spectrogram/src/spectrogram&#45;viewer.ts&#45;&gt;packages/UI/spectrogram/src/audio&#45;analyzer/audio&#45;analyzer.ts</title>
<path fill="none" stroke="#000000" stroke-width="2" stroke-opacity="0.200000" d="M285.56,-75.66C293.35,-76.83 301.31,-78.02 308.99,-79.18"/>
<polygon fill="#000000" fill-opacity="0.200000" stroke="#000000" stroke-width="2" stroke-opacity="0.200000" points="309.12,-81.32 315.37,-80.14 309.75,-77.17 309.12,-81.32"/>
</g>
<!-- packages/UI/spectrogram/src/spectrogram&#45;viewer.ts&#45;&gt;packages/UI/view/src/reflectable/audio&#45;reflectable.ts -->
<g id="edge16" class="edge">
<title>packages/UI/spectrogram/src/spectrogram&#45;viewer.ts&#45;&gt;packages/UI/view/src/reflectable/audio&#45;reflectable.ts</title>
<path fill="none" stroke="#000000" stroke-width="2" stroke-opacity="0.200000" d="M235.53,-76.17C257.75,-103.24 323.14,-182.88 349.64,-215.17"/>
<polygon fill="#000000" fill-opacity="0.200000" stroke="#000000" stroke-width="2" stroke-opacity="0.200000" points="348.12,-216.62 353.55,-219.93 351.37,-213.96 348.12,-216.62"/>
</g>
<!-- packages/UI/spectrogram/src/wave&#45;viewer.ts&#45;&gt;packages/UI/spectrogram/src/audio&#45;analyzer/audio&#45;analyzer.ts -->
<g id="edge17" class="edge">
<title>packages/UI/spectrogram/src/wave&#45;viewer.ts&#45;&gt;packages/UI/spectrogram/src/audio&#45;analyzer/audio&#45;analyzer.ts</title>
<path fill="none" stroke="#000000" stroke-width="2" stroke-opacity="0.200000" d="M258.18,-117.92C278.08,-111.94 304.23,-104.07 325.18,-97.77"/>
<polygon fill="#000000" fill-opacity="0.200000" stroke="#000000" stroke-width="2" stroke-opacity="0.200000" points="325.8,-99.78 330.94,-96.04 324.59,-95.76 325.8,-99.78"/>
</g>
<!-- packages/UI/spectrogram/src/wave&#45;viewer.ts&#45;&gt;packages/UI/view/src/reflectable/audio&#45;reflectable.ts -->
<g id="edge20" class="edge">
<title>packages/UI/spectrogram/src/wave&#45;viewer.ts&#45;&gt;packages/UI/view/src/reflectable/audio&#45;reflectable.ts</title>
<path fill="none" stroke="#000000" stroke-width="2" stroke-opacity="0.200000" d="M239.8,-136.05C263.5,-154.23 316.94,-195.21 344.25,-216.15"/>
<polygon fill="#000000" fill-opacity="0.200000" stroke="#000000" stroke-width="2" stroke-opacity="0.200000" points="342.99,-217.84 349.03,-219.82 345.55,-214.5 342.99,-217.84"/>
</g>
<!-- packages/UI/spectrogram/src/wave&#45;viewer.ts&#45;&gt;packages/util/math/src/fft/complex.ts -->
<g id="edge19" class="edge">
<title>packages/UI/spectrogram/src/wave&#45;viewer.ts&#45;&gt;packages/util/math/src/fft/complex.ts</title>
<path fill="none" stroke="#000000" stroke-width="2" stroke-opacity="0.200000" d="M243.81,-136.08C334.76,-185.2 767.69,-419.05 871.22,-474.97"/>
<polygon fill="#000000" fill-opacity="0.200000" stroke="#000000" stroke-width="2" stroke-opacity="0.200000" points="870.46,-476.94 876.74,-477.95 872.46,-473.25 870.46,-476.94"/>
</g>
<!-- packages/util/math/src/fft/index.ts -->
<g id="node14" class="node">
<title>packages/util/math/src/fft/index.ts</title>
<g id="a_node14"><a xlink:href="packages/util/math/src/fft/index.ts" xlink:title="index.ts">
<path fill="#ddfeff" stroke="black" d="M607,-497C607,-497 565,-497 565,-497 562,-497 559,-494 559,-491 559,-491 559,-485 559,-485 559,-482 562,-479 565,-479 565,-479 607,-479 607,-479 610,-479 613,-482 613,-485 613,-485 613,-491 613,-491 613,-494 610,-497 607,-497"/>
<text text-anchor="start" x="567.5" y="-485.8" font-family="Helvetica,sans-Serif" font-size="9.00">index.ts</text>
</a>
</g>
</g>
<!-- packages/UI/spectrogram/src/wave&#45;viewer.ts&#45;&gt;packages/util/math/src/fft/index.ts -->
<g id="edge18" class="edge">
<title>packages/UI/spectrogram/src/wave&#45;viewer.ts&#45;&gt;packages/util/math/src/fft/index.ts</title>
<path fill="none" stroke="#000000" stroke-width="2" stroke-opacity="0.200000" d="M236.23,-136.29C285.13,-185.45 513.72,-415.32 572.3,-474.22"/>
<polygon fill="#000000" fill-opacity="0.200000" stroke="#000000" stroke-width="2" stroke-opacity="0.200000" points="571.11,-476 576.83,-478.77 574.08,-473.04 571.11,-476"/>
</g>
<!-- packages/UI/view/src/reflectable/audio&#45;reflectable&#45;registry.ts&#45;&gt;packages/UI/view/src/reflectable/audio&#45;reflectable.ts -->
<g id="edge21" class="edge">
<title>packages/UI/view/src/reflectable/audio&#45;reflectable&#45;registry.ts&#45;&gt;packages/UI/view/src/reflectable/audio&#45;reflectable.ts</title>
<path fill="none" stroke="#000000" stroke-width="2" stroke-opacity="0.200000" d="M297.23,-229C299.37,-229 301.52,-229 303.64,-229"/>
<polygon fill="#000000" fill-opacity="0.200000" stroke="#000000" stroke-width="2" stroke-opacity="0.200000" points="303.99,-231.1 309.99,-229 303.99,-226.9 303.99,-231.1"/>
</g>
<!-- packages/util/math/src/fft/index.ts&#45;&gt;packages/util/math/src/fft/complex.ts -->
<g id="edge30" class="edge">
<title>packages/util/math/src/fft/index.ts&#45;&gt;packages/util/math/src/fft/complex.ts</title>
<path fill="none" stroke="#000000" stroke-width="2" stroke-opacity="0.200000" d="M613.02,-487.91C667.43,-487.74 790.4,-487.34 853.9,-487.13"/>
<polygon fill="#000000" fill-opacity="0.200000" stroke="#000000" stroke-width="2" stroke-opacity="0.200000" points="854.23,-489.23 860.23,-487.11 854.22,-485.03 854.23,-489.23"/>
</g>
<!-- packages/util/math/src/fft/ftt&#45;core.ts -->
<g id="node19" class="node">
<title>packages/util/math/src/fft/ftt&#45;core.ts</title>
<g id="a_node19"><a xlink:href="packages/util/math/src/fft/ftt-core.ts" xlink:title="ftt&#45;core.ts">
<path fill="#ddfeff" stroke="black" d="M736,-504C736,-504 687,-504 687,-504 684,-504 681,-501 681,-498 681,-498 681,-492 681,-492 681,-489 684,-486 687,-486 687,-486 736,-486 736,-486 739,-486 742,-489 742,-492 742,-492 742,-498 742,-498 742,-501 739,-504 736,-504"/>
<text text-anchor="start" x="689" y="-492.8" font-family="Helvetica,sans-Serif" font-size="9.00">ftt&#45;core.ts</text>
</a>
</g>
</g>
<!-- packages/util/math/src/fft/index.ts&#45;&gt;packages/util/math/src/fft/ftt&#45;core.ts -->
<g id="edge31" class="edge">
<title>packages/util/math/src/fft/index.ts&#45;&gt;packages/util/math/src/fft/ftt&#45;core.ts</title>
<path fill="none" stroke="#000000" stroke-width="2" stroke-opacity="0.200000" d="M613.19,-489.48C631.08,-490.5 655.01,-491.85 674.66,-492.97"/>
<polygon fill="#000000" fill-opacity="0.200000" stroke="#000000" stroke-width="2" stroke-opacity="0.200000" points="674.77,-495.08 680.88,-493.32 675.01,-490.88 674.77,-495.08"/>
</g>
<!-- packages/util/math/src/fft/root&#45;of&#45;unity.ts -->
<g id="node20" class="node">
<title>packages/util/math/src/fft/root&#45;of&#45;unity.ts</title>
<g id="a_node20"><a xlink:href="packages/util/math/src/fft/root-of-unity.ts" xlink:title="root&#45;of&#45;unity.ts">
<path fill="#ddfeff" stroke="black" d="M832,-518C832,-518 761,-518 761,-518 758,-518 755,-515 755,-512 755,-512 755,-506 755,-506 755,-503 758,-500 761,-500 761,-500 832,-500 832,-500 835,-500 838,-503 838,-506 838,-506 838,-512 838,-512 838,-515 835,-518 832,-518"/>
<text text-anchor="start" x="763" y="-506.8" font-family="Helvetica,sans-Serif" font-size="9.00">root&#45;of&#45;unity.ts</text>
</a>
</g>
</g>
<!-- packages/util/math/src/fft/index.ts&#45;&gt;packages/util/math/src/fft/root&#45;of&#45;unity.ts -->
<g id="edge32" class="edge">
<title>packages/util/math/src/fft/index.ts&#45;&gt;packages/util/math/src/fft/root&#45;of&#45;unity.ts</title>
<path fill="none" stroke="#000000" stroke-width="2" stroke-opacity="0.200000" d="M613.09,-490.7C647.27,-494.11 706.66,-500.04 748.58,-504.22"/>
<polygon fill="#000000" fill-opacity="0.200000" stroke="#000000" stroke-width="2" stroke-opacity="0.200000" points="748.46,-506.32 754.64,-504.82 748.87,-502.14 748.46,-506.32"/>
</g>
<!-- packages/util/math/src/fft/typed&#45;array.ts -->
<g id="node16" class="node">
<title>packages/util/math/src/fft/typed&#45;array.ts</title>
<g id="a_node16"><a xlink:href="packages/util/math/src/fft/typed-array.ts" xlink:title="typed&#45;array.ts">
<path fill="#ddfeff" stroke="black" d="M927,-434C927,-434 860,-434 860,-434 857,-434 854,-431 854,-428 854,-428 854,-422 854,-422 854,-419 857,-416 860,-416 860,-416 927,-416 927,-416 930,-416 933,-419 933,-422 933,-422 933,-428 933,-428 933,-431 930,-434 927,-434"/>
<text text-anchor="start" x="862" y="-422.8" font-family="Helvetica,sans-Serif" font-size="9.00">typed&#45;array.ts</text>
</a>
</g>
</g>
<!-- packages/util/math/src/fft/array/complex.ts&#45;&gt;packages/util/math/src/fft/typed&#45;array.ts -->
<g id="edge22" class="edge">
<title>packages/util/math/src/fft/array/complex.ts&#45;&gt;packages/util/math/src/fft/typed&#45;array.ts</title>
<path fill="none" stroke="#000000" stroke-width="2" stroke-opacity="0.200000" d="M829.66,-407.8C837.3,-409.89 845.53,-412.14 853.43,-414.31"/>
<polygon fill="#000000" fill-opacity="0.200000" stroke="#000000" stroke-width="2" stroke-opacity="0.200000" points="853.06,-416.38 859.4,-415.94 854.17,-412.33 853.06,-416.38"/>
</g>
<!-- packages/util/math/src/fft/array/ftt&#45;core.ts&#45;&gt;packages/util/math/src/fft/array/complex.ts -->
<g id="edge24" class="edge">
<title>packages/util/math/src/fft/array/ftt&#45;core.ts&#45;&gt;packages/util/math/src/fft/array/complex.ts</title>
<path fill="none" stroke="#000000" stroke-width="2" stroke-opacity="0.200000" d="M741.53,-415.91C747.76,-413.96 754.4,-411.88 760.81,-409.87"/>
<polygon fill="#000000" fill-opacity="0.200000" stroke="#000000" stroke-width="2" stroke-opacity="0.200000" points="761.53,-411.84 766.63,-408.04 760.27,-407.83 761.53,-411.84"/>
</g>
<!-- packages/util/math/src/fft/array/ftt&#45;core.ts&#45;&gt;packages/util/math/src/fft/typed&#45;array.ts -->
<g id="edge23" class="edge">
<title>packages/util/math/src/fft/array/ftt&#45;core.ts&#45;&gt;packages/util/math/src/fft/typed&#45;array.ts</title>
<path fill="none" stroke="#000000" stroke-width="2" stroke-opacity="0.200000" d="M742.37,-425C771.3,-425 814.9,-425 847.85,-425"/>
<polygon fill="#000000" fill-opacity="0.200000" stroke="#000000" stroke-width="2" stroke-opacity="0.200000" points="847.87,-427.1 853.87,-425 847.87,-422.9 847.87,-427.1"/>
</g>
<!-- packages/util/math/src/fft/array/root&#45;of&#45;unity.ts -->
<g id="node18" class="node">
<title>packages/util/math/src/fft/array/root&#45;of&#45;unity.ts</title>
<g id="a_node18"><a xlink:href="packages/util/math/src/fft/array/root-of-unity.ts" xlink:title="root&#45;of&#45;unity.ts">
<path fill="#ddfeff" stroke="black" d="M832,-438C832,-438 761,-438 761,-438 758,-438 755,-435 755,-432 755,-432 755,-426 755,-426 755,-423 758,-420 761,-420 761,-420 832,-420 832,-420 835,-420 838,-423 838,-426 838,-426 838,-432 838,-432 838,-435 835,-438 832,-438"/>
<text text-anchor="start" x="763" y="-426.8" font-family="Helvetica,sans-Serif" font-size="9.00">root&#45;of&#45;unity.ts</text>
</a>
</g>
</g>
<!-- packages/util/math/src/fft/array/ftt&#45;core.ts&#45;&gt;packages/util/math/src/fft/array/root&#45;of&#45;unity.ts -->
<g id="edge25" class="edge">
<title>packages/util/math/src/fft/array/ftt&#45;core.ts&#45;&gt;packages/util/math/src/fft/array/root&#45;of&#45;unity.ts</title>
<path fill="none" stroke="#000000" stroke-width="2" stroke-opacity="0.200000" d="M742.46,-426.44C744.46,-426.54 746.5,-426.64 748.55,-426.74"/>
<polygon fill="#000000" fill-opacity="0.200000" stroke="#000000" stroke-width="2" stroke-opacity="0.200000" points="748.65,-428.84 754.74,-427.04 748.85,-424.65 748.65,-428.84"/>
</g>
<!-- packages/util/math/src/fft/ftt&#45;core.ts&#45;&gt;packages/util/math/src/fft/complex.ts -->
<g id="edge28" class="edge">
<title>packages/util/math/src/fft/ftt&#45;core.ts&#45;&gt;packages/util/math/src/fft/complex.ts</title>
<path fill="none" stroke="#000000" stroke-width="2" stroke-opacity="0.200000" d="M742.37,-493.64C773.21,-492.29 820.72,-490.2 854.23,-488.73"/>
<polygon fill="#000000" fill-opacity="0.200000" stroke="#000000" stroke-width="2" stroke-opacity="0.200000" points="854.41,-490.82 860.32,-488.46 854.23,-486.62 854.41,-490.82"/>
</g>
<!-- packages/util/math/src/fft/ftt&#45;core.ts&#45;&gt;packages/util/math/src/fft/root&#45;of&#45;unity.ts -->
<g id="edge29" class="edge">
<title>packages/util/math/src/fft/ftt&#45;core.ts&#45;&gt;packages/util/math/src/fft/root&#45;of&#45;unity.ts</title>
<path fill="none" stroke="#000000" stroke-width="2" stroke-opacity="0.200000" d="M742.46,-500.05C744.46,-500.39 746.5,-500.73 748.55,-501.08"/>
<polygon fill="#000000" fill-opacity="0.200000" stroke="#000000" stroke-width="2" stroke-opacity="0.200000" points="748.48,-503.2 754.74,-502.13 749.18,-499.06 748.48,-503.2"/>
</g>
<!-- packages/util/math/src/fft/root&#45;of&#45;unity.ts&#45;&gt;packages/util/math/src/fft/complex.ts -->
<g id="edge33" class="edge">
<title>packages/util/math/src/fft/root&#45;of&#45;unity.ts&#45;&gt;packages/util/math/src/fft/complex.ts</title>
<path fill="none" stroke="#000000" stroke-width="2" stroke-opacity="0.200000" d="M836.41,-499.99C842.41,-498.6 848.59,-497.17 854.57,-495.78"/>
<polygon fill="#000000" fill-opacity="0.200000" stroke="#000000" stroke-width="2" stroke-opacity="0.200000" points="855.08,-497.82 860.46,-494.42 854.14,-493.73 855.08,-497.82"/>
</g>
</g>
</svg>
