<?xml version="1.0" encoding="UTF-8" standalone="no"?>
<!DOCTYPE svg PUBLIC "-//W3C//DTD SVG 1.1//EN"
 "http://www.w3.org/Graphics/SVG/1.1/DTD/svg11.dtd">
<!-- Generated by graphviz version 2.43.0 (0)
 -->
<!-- Title: dependency&#45;cruiser output Pages: 1 -->
<svg width="732pt" height="688pt"
 viewBox="0.00 0.00 732.01 687.96" xmlns="http://www.w3.org/2000/svg" xmlns:xlink="http://www.w3.org/1999/xlink">
<g id="graph0" class="graph" transform="scale(1 1) rotate(0) translate(4 683.96)">
<title>dependency&#45;cruiser output</title>
<polygon fill="white" stroke="transparent" points="-4,4 -4,-683.96 728.01,-683.96 728.01,4 -4,4"/>
<g id="clust1" class="cluster">
<title>cluster_node_modules</title>
<path fill="#ffffff" stroke="black" stroke-width="2" d="M128.18,-106.45C128.18,-106.45 650,-106.45 650,-106.45 656,-106.45 662,-112.45 662,-118.45 662,-118.45 662,-596.01 662,-596.01 662,-602.01 656,-608.01 650,-608.01 650,-608.01 128.18,-608.01 128.18,-608.01 122.18,-608.01 116.18,-602.01 116.18,-596.01 116.18,-596.01 116.18,-118.45 116.18,-118.45 116.18,-112.45 122.18,-106.45 128.18,-106.45"/>
<text text-anchor="middle" x="389.09" y="-596.81" font-family="Helvetica,sans-Serif" font-weight="bold" font-size="9.00">node_modules</text>
</g>
<g id="clust3" class="cluster">
<title>cluster_packages</title>
<path fill="#ffffff" stroke="black" stroke-width="2" d="M12,0C12,0 712.01,0 712.01,0 718.01,0 724.01,-6 724.01,-12 724.01,-12 724.01,-667.96 724.01,-667.96 724.01,-673.96 718.01,-679.96 712.01,-679.96 712.01,-679.96 12,-679.96 12,-679.96 6,-679.96 0,-673.96 0,-667.96 0,-667.96 0,-12 0,-12 0,-6 6,0 12,0"/>
<text text-anchor="middle" x="362" y="-668.76" font-family="Helvetica,sans-Serif" font-weight="bold" font-size="9.00">packages</text>
</g>
<!-- node_modules/@tonaljs/chord -->
<g id="node1" class="node">
<title>node_modules/@tonaljs/chord</title>
<g id="a_node1"><a xlink:href="https://www.npmjs.com/package/@tonaljs/chord" xlink:title="chord">
<polygon fill="#c40b0a" fill-opacity="0.101961" stroke="black" points="568.85,-216.89 516.85,-216.89 514.85,-214.89 514.85,-198.89 566.85,-198.89 568.85,-200.89 568.85,-216.89"/>
<polyline fill="none" stroke="black" points="566.85,-214.89 514.85,-214.89 "/>
<polyline fill="none" stroke="black" points="566.85,-214.89 566.85,-198.89 "/>
<polyline fill="none" stroke="black" points="566.85,-214.89 568.85,-216.89 "/>
<text text-anchor="start" x="528.35" y="-205.69" font-family="Helvetica,sans-Serif" font-size="9.00" fill="#c40b0a">chord</text>
</a>
</g>
</g>
<!-- node_modules/@tonaljs/interval -->
<g id="node2" class="node">
<title>node_modules/@tonaljs/interval</title>
<g id="a_node2"><a xlink:href="https://www.npmjs.com/package/@tonaljs/interval" xlink:title="interval">
<polygon fill="#c40b0a" fill-opacity="0.101961" stroke="black" points="170.18,-448.52 118.18,-448.52 116.18,-446.52 116.18,-430.52 168.18,-430.52 170.18,-432.52 170.18,-448.52"/>
<polyline fill="none" stroke="black" points="168.18,-446.52 116.18,-446.52 "/>
<polyline fill="none" stroke="black" points="168.18,-446.52 168.18,-430.52 "/>
<polyline fill="none" stroke="black" points="168.18,-446.52 170.18,-448.52 "/>
<text text-anchor="start" x="126.18" y="-437.32" font-family="Helvetica,sans-Serif" font-size="9.00" fill="#c40b0a">interval</text>
</a>
</g>
</g>
<!-- node_modules/@tonaljs/key -->
<g id="node3" class="node">
<title>node_modules/@tonaljs/key</title>
<g id="a_node3"><a xlink:href="https://www.npmjs.com/package/@tonaljs/key" xlink:title="key">
<polygon fill="#c40b0a" fill-opacity="0.101961" stroke="black" points="361.35,-168.89 309.35,-168.89 307.35,-166.89 307.35,-150.89 359.35,-150.89 361.35,-152.89 361.35,-168.89"/>
<polyline fill="none" stroke="black" points="359.35,-166.89 307.35,-166.89 "/>
<polyline fill="none" stroke="black" points="359.35,-166.89 359.35,-150.89 "/>
<polyline fill="none" stroke="black" points="359.35,-166.89 361.35,-168.89 "/>
<text text-anchor="start" x="326.35" y="-157.69" font-family="Helvetica,sans-Serif" font-size="9.00" fill="#c40b0a">key</text>
</a>
</g>
</g>
<!-- node_modules/@tonaljs/note -->
<g id="node4" class="node">
<title>node_modules/@tonaljs/note</title>
<g id="a_node4"><a xlink:href="https://www.npmjs.com/package/@tonaljs/note" xlink:title="note">
<polygon fill="#c40b0a" fill-opacity="0.101961" stroke="black" points="479.58,-124.45 427.58,-124.45 425.58,-122.45 425.58,-106.45 477.58,-106.45 479.58,-108.45 479.58,-124.45"/>
<polyline fill="none" stroke="black" points="477.58,-122.45 425.58,-122.45 "/>
<polyline fill="none" stroke="black" points="477.58,-122.45 477.58,-106.45 "/>
<polyline fill="none" stroke="black" points="477.58,-122.45 479.58,-124.45 "/>
<text text-anchor="start" x="442.08" y="-113.25" font-family="Helvetica,sans-Serif" font-size="9.00" fill="#c40b0a">note</text>
</a>
</g>
</g>
<!-- node_modules/@tonaljs/pitch&#45;interval -->
<g id="node5" class="node">
<title>node_modules/@tonaljs/pitch&#45;interval</title>
<g id="a_node5"><a xlink:href="https://www.npmjs.com/package/@tonaljs/pitch-interval" xlink:title="pitch&#45;interval">
<polygon fill="#c40b0a" fill-opacity="0.101961" stroke="black" points="270.93,-608.01 195.93,-608.01 193.93,-606.01 193.93,-590.01 268.93,-590.01 270.93,-592.01 270.93,-608.01"/>
<polyline fill="none" stroke="black" points="268.93,-606.01 193.93,-606.01 "/>
<polyline fill="none" stroke="black" points="268.93,-606.01 268.93,-590.01 "/>
<polyline fill="none" stroke="black" points="268.93,-606.01 270.93,-608.01 "/>
<text text-anchor="start" x="201.93" y="-596.81" font-family="Helvetica,sans-Serif" font-size="9.00" fill="#c40b0a">pitch&#45;interval</text>
</a>
</g>
</g>
<!-- node_modules/@tonaljs/pitch&#45;note -->
<g id="node6" class="node">
<title>node_modules/@tonaljs/pitch&#45;note</title>
<g id="a_node6"><a xlink:href="https://www.npmjs.com/package/@tonaljs/pitch-note" xlink:title="pitch&#45;note">
<polygon fill="#c40b0a" fill-opacity="0.101961" stroke="black" points="335.99,-288.7 274.99,-288.7 272.99,-286.7 272.99,-270.7 333.99,-270.7 335.99,-272.7 335.99,-288.7"/>
<polyline fill="none" stroke="black" points="333.99,-286.7 272.99,-286.7 "/>
<polyline fill="none" stroke="black" points="333.99,-286.7 333.99,-270.7 "/>
<polyline fill="none" stroke="black" points="333.99,-286.7 335.99,-288.7 "/>
<text text-anchor="start" x="280.99" y="-277.5" font-family="Helvetica,sans-Serif" font-size="9.00" fill="#c40b0a">pitch&#45;note</text>
</a>
</g>
</g>
<!-- node_modules/@tonaljs/roman&#45;numeral -->
<g id="node7" class="node">
<title>node_modules/@tonaljs/roman&#45;numeral</title>
<g id="a_node7"><a xlink:href="https://www.npmjs.com/package/@tonaljs/roman-numeral" xlink:title="roman&#45;numeral">
<polygon fill="#c40b0a" fill-opacity="0.101961" stroke="black" points="662,-557.65 578,-557.65 576,-555.65 576,-539.65 660,-539.65 662,-541.65 662,-557.65"/>
<polyline fill="none" stroke="black" points="660,-555.65 576,-555.65 "/>
<polyline fill="none" stroke="black" points="660,-555.65 660,-539.65 "/>
<polyline fill="none" stroke="black" points="660,-555.65 662,-557.65 "/>
<text text-anchor="start" x="584" y="-546.45" font-family="Helvetica,sans-Serif" font-size="9.00" fill="#c40b0a">roman&#45;numeral</text>
</a>
</g>
</g>
<!-- node_modules/@tonaljs/scale -->
<g id="node8" class="node">
<title>node_modules/@tonaljs/scale</title>
<g id="a_node8"><a xlink:href="https://www.npmjs.com/package/@tonaljs/scale" xlink:title="scale">
<polygon fill="#c40b0a" fill-opacity="0.101961" stroke="black" points="232.85,-336.89 180.85,-336.89 178.85,-334.89 178.85,-318.89 230.85,-318.89 232.85,-320.89 232.85,-336.89"/>
<polyline fill="none" stroke="black" points="230.85,-334.89 178.85,-334.89 "/>
<polyline fill="none" stroke="black" points="230.85,-334.89 230.85,-318.89 "/>
<polyline fill="none" stroke="black" points="230.85,-334.89 232.85,-336.89 "/>
<text text-anchor="start" x="194.35" y="-325.69" font-family="Helvetica,sans-Serif" font-size="9.00" fill="#c40b0a">scale</text>
</a>
</g>
</g>
<!-- packages/tonal&#45;objects/index.test.ts -->
<g id="node9" class="node">
<title>packages/tonal&#45;objects/index.test.ts</title>
<g id="a_node9"><a xlink:href="packages/tonal-objects/index.test.ts" xlink:title="no&#45;orphans">
<path fill="#ccffcc" stroke="orange" d="M235,-162C235,-162 174,-162 174,-162 171,-162 168,-159 168,-156 168,-156 168,-150 168,-150 168,-147 171,-144 174,-144 174,-144 235,-144 235,-144 238,-144 241,-147 241,-150 241,-150 241,-156 241,-156 241,-159 238,-162 235,-162"/>
<text text-anchor="start" x="176" y="-150.8" font-family="Helvetica,sans-Serif" font-size="9.00" fill="orange">index.test.ts</text>
</a>
</g>
</g>
<!-- packages/tonal&#45;objects/src/chord/chord&#45;name.ts -->
<g id="node10" class="node">
<title>packages/tonal&#45;objects/src/chord/chord&#45;name.ts</title>
<g id="a_node10"><a xlink:href="packages/tonal-objects/src/chord/chord-name.ts" xlink:title="no&#45;orphans">
<path fill="#ccffcc" stroke="orange" d="M461,-426C461,-426 390,-426 390,-426 387,-426 384,-423 384,-420 384,-420 384,-414 384,-414 384,-411 387,-408 390,-408 390,-408 461,-408 461,-408 464,-408 467,-411 467,-414 467,-414 467,-420 467,-420 467,-423 464,-426 461,-426"/>
<text text-anchor="start" x="392" y="-414.8" font-family="Helvetica,sans-Serif" font-size="9.00" fill="orange">chord&#45;name.ts</text>
</a>
</g>
</g>
<!-- packages/tonal&#45;objects/src/chord/chord.ts -->
<g id="node11" class="node">
<title>packages/tonal&#45;objects/src/chord/chord.ts</title>
<g id="a_node11"><a xlink:href="packages/tonal-objects/src/chord/chord.ts" xlink:title="chord.ts">
<path fill="#ddfeff" stroke="black" d="M582.73,-242.89C582.73,-242.89 540.73,-242.89 540.73,-242.89 537.73,-242.89 534.73,-239.89 534.73,-236.89 534.73,-236.89 534.73,-230.89 534.73,-230.89 534.73,-227.89 537.73,-224.89 540.73,-224.89 540.73,-224.89 582.73,-224.89 582.73,-224.89 585.73,-224.89 588.73,-227.89 588.73,-230.89 588.73,-230.89 588.73,-236.89 588.73,-236.89 588.73,-239.89 585.73,-242.89 582.73,-242.89"/>
<text text-anchor="start" x="542.73" y="-231.69" font-family="Helvetica,sans-Serif" font-size="9.00">chord.ts</text>
</a>
</g>
</g>
<!-- packages/tonal&#45;objects/src/chord/chord.ts&#45;&gt;node_modules/@tonaljs/chord -->
<g id="edge1" class="edge">
<title>packages/tonal&#45;objects/src/chord/chord.ts&#45;&gt;node_modules/@tonaljs/chord</title>
<path fill="none" stroke="#000000" stroke-opacity="0.200000" d="M554.77,-224.8C554.19,-224.03 553.58,-223.24 552.97,-222.44"/>
<polygon fill="none" stroke="#000000" stroke-opacity="0.200000" points="554.28,-220.69 548.97,-217.2 550.94,-223.24 554.28,-220.69"/>
</g>
<!-- packages/tonal&#45;objects/src/chord/get.ts -->
<g id="node12" class="node">
<title>packages/tonal&#45;objects/src/chord/get.ts</title>
<g id="a_node12"><a xlink:href="packages/tonal-objects/src/chord/get.ts" xlink:title="get.ts">
<path fill="#ddfeff" stroke="black" d="M552,-186C552,-186 510,-186 510,-186 507,-186 504,-183 504,-180 504,-180 504,-174 504,-174 504,-171 507,-168 510,-168 510,-168 552,-168 552,-168 555,-168 558,-171 558,-174 558,-174 558,-180 558,-180 558,-183 555,-186 552,-186"/>
<text text-anchor="start" x="517.5" y="-174.8" font-family="Helvetica,sans-Serif" font-size="9.00">get.ts</text>
</a>
</g>
</g>
<!-- packages/tonal&#45;objects/src/chord/get.ts&#45;&gt;node_modules/@tonaljs/chord -->
<g id="edge2" class="edge">
<title>packages/tonal&#45;objects/src/chord/get.ts&#45;&gt;node_modules/@tonaljs/chord</title>
<path fill="none" stroke="#000000" stroke-opacity="0.200000" d="M534.2,-186.1C534.94,-188.22 535.75,-190.53 536.56,-192.83"/>
<polygon fill="#000000" fill-opacity="0.200000" stroke="#000000" stroke-opacity="0.200000" points="536.66,-199.44 536.65,-193.08 540.62,-198.05 536.66,-199.44"/>
</g>
<!-- packages/tonal&#45;objects/src/interval/get.ts -->
<g id="node13" class="node">
<title>packages/tonal&#45;objects/src/interval/get.ts</title>
<g id="a_node13"><a xlink:href="packages/tonal-objects/src/interval/get.ts" xlink:title="get.ts">
<path fill="#ddfeff" stroke="black" d="M110.09,-545.82C110.09,-545.82 68.09,-545.82 68.09,-545.82 65.09,-545.82 62.09,-542.82 62.09,-539.82 62.09,-539.82 62.09,-533.82 62.09,-533.82 62.09,-530.82 65.09,-527.82 68.09,-527.82 68.09,-527.82 110.09,-527.82 110.09,-527.82 113.09,-527.82 116.09,-530.82 116.09,-533.82 116.09,-533.82 116.09,-539.82 116.09,-539.82 116.09,-542.82 113.09,-545.82 110.09,-545.82"/>
<text text-anchor="start" x="75.59" y="-534.62" font-family="Helvetica,sans-Serif" font-size="9.00">get.ts</text>
</a>
</g>
</g>
<!-- packages/tonal&#45;objects/src/interval/get.ts&#45;&gt;node_modules/@tonaljs/interval -->
<g id="edge3" class="edge">
<title>packages/tonal&#45;objects/src/interval/get.ts&#45;&gt;node_modules/@tonaljs/interval</title>
<path fill="none" stroke="#000000" stroke-opacity="0.200000" d="M94.28,-527.49C103.75,-510.45 123.91,-474.18 135.16,-453.94"/>
<polygon fill="#000000" fill-opacity="0.200000" stroke="#000000" stroke-opacity="0.200000" points="139.92,-449.7 135.17,-453.93 136.25,-447.66 139.92,-449.7"/>
</g>
<!-- packages/tonal&#45;objects/src/interval/interval&#45;degree.ts -->
<g id="node14" class="node">
<title>packages/tonal&#45;objects/src/interval/interval&#45;degree.ts</title>
<g id="a_node14"><a xlink:href="packages/tonal-objects/src/interval/interval-degree.ts" xlink:title="interval&#45;degree.ts">
<path fill="#ddfeff" stroke="black" d="M296.49,-414.07C296.49,-414.07 212.49,-414.07 212.49,-414.07 209.49,-414.07 206.49,-411.07 206.49,-408.07 206.49,-408.07 206.49,-402.07 206.49,-402.07 206.49,-399.07 209.49,-396.07 212.49,-396.07 212.49,-396.07 296.49,-396.07 296.49,-396.07 299.49,-396.07 302.49,-399.07 302.49,-402.07 302.49,-402.07 302.49,-408.07 302.49,-408.07 302.49,-411.07 299.49,-414.07 296.49,-414.07"/>
<text text-anchor="start" x="214.49" y="-402.87" font-family="Helvetica,sans-Serif" font-size="9.00">interval&#45;degree.ts</text>
</a>
</g>
</g>
<!-- packages/tonal&#45;objects/src/interval/interval&#45;degree.ts&#45;&gt;node_modules/@tonaljs/interval -->
<g id="edge5" class="edge">
<title>packages/tonal&#45;objects/src/interval/interval&#45;degree.ts&#45;&gt;node_modules/@tonaljs/interval</title>
<path fill="none" stroke="#000000" stroke-opacity="0.200000" d="M225.24,-414.12C210.23,-418.77 191.88,-424.45 176.34,-429.26"/>
<polygon fill="#000000" fill-opacity="0.200000" stroke="#000000" stroke-opacity="0.200000" points="175.43,-427.34 170.32,-431.12 176.67,-431.35 175.43,-427.34"/>
</g>
<!-- packages/tonal&#45;objects/src/interval/interval&#45;degree.ts&#45;&gt;node_modules/@tonaljs/pitch&#45;note -->
<g id="edge6" class="edge">
<title>packages/tonal&#45;objects/src/interval/interval&#45;degree.ts&#45;&gt;node_modules/@tonaljs/pitch&#45;note</title>
<path fill="none" stroke="#000000" stroke-opacity="0.200000" d="M258.09,-396.05C266.59,-374.74 287.99,-321.08 298.49,-294.74"/>
<polygon fill="#000000" fill-opacity="0.200000" stroke="#000000" stroke-opacity="0.200000" points="300.52,-295.32 300.8,-288.97 296.62,-293.76 300.52,-295.32"/>
</g>
<!-- packages/util/stdlib/src/string/cast&#45;to&#45;number.ts -->
<g id="node15" class="node">
<title>packages/util/stdlib/src/string/cast&#45;to&#45;number.ts</title>
<g id="a_node15"><a xlink:href="packages/util/stdlib/src/string/cast-to-number.ts" xlink:title="cast&#45;to&#45;number.ts">
<path fill="#ddfeff" stroke="black" d="M372.8,-515.51C372.8,-515.51 286.8,-515.51 286.8,-515.51 283.8,-515.51 280.8,-512.51 280.8,-509.51 280.8,-509.51 280.8,-503.51 280.8,-503.51 280.8,-500.51 283.8,-497.51 286.8,-497.51 286.8,-497.51 372.8,-497.51 372.8,-497.51 375.8,-497.51 378.8,-500.51 378.8,-503.51 378.8,-503.51 378.8,-509.51 378.8,-509.51 378.8,-512.51 375.8,-515.51 372.8,-515.51"/>
<text text-anchor="start" x="288.8" y="-504.31" font-family="Helvetica,sans-Serif" font-size="9.00">cast&#45;to&#45;number.ts</text>
</a>
</g>
</g>
<!-- packages/tonal&#45;objects/src/interval/interval&#45;degree.ts&#45;&gt;packages/util/stdlib/src/string/cast&#45;to&#45;number.ts -->
<g id="edge4" class="edge">
<title>packages/tonal&#45;objects/src/interval/interval&#45;degree.ts&#45;&gt;packages/util/stdlib/src/string/cast&#45;to&#45;number.ts</title>
<path fill="none" stroke="#000000" stroke-width="2" stroke-opacity="0.200000" d="M261.17,-414.07C274.31,-431.77 303.61,-471.23 319.34,-492.42"/>
<polygon fill="#000000" fill-opacity="0.200000" stroke="#000000" stroke-width="2" stroke-opacity="0.200000" points="317.76,-493.82 323.02,-497.39 321.13,-491.32 317.76,-493.82"/>
</g>
<!-- packages/util/stdlib/src/assertion/not&#45;nan.ts -->
<g id="node33" class="node">
<title>packages/util/stdlib/src/assertion/not&#45;nan.ts</title>
<g id="a_node33"><a xlink:href="packages/util/stdlib/src/assertion/not-nan.ts" xlink:title="not&#45;nan.ts">
<path fill="#ddfeff" stroke="black" d="M465.44,-560.93C465.44,-560.93 414.44,-560.93 414.44,-560.93 411.44,-560.93 408.44,-557.93 408.44,-554.93 408.44,-554.93 408.44,-548.93 408.44,-548.93 408.44,-545.93 411.44,-542.93 414.44,-542.93 414.44,-542.93 465.44,-542.93 465.44,-542.93 468.44,-542.93 471.44,-545.93 471.44,-548.93 471.44,-548.93 471.44,-554.93 471.44,-554.93 471.44,-557.93 468.44,-560.93 465.44,-560.93"/>
<text text-anchor="start" x="416.44" y="-549.73" font-family="Helvetica,sans-Serif" font-size="9.00">not&#45;nan.ts</text>
</a>
</g>
</g>
<!-- packages/util/stdlib/src/string/cast&#45;to&#45;number.ts&#45;&gt;packages/util/stdlib/src/assertion/not&#45;nan.ts -->
<g id="edge29" class="edge">
<title>packages/util/stdlib/src/string/cast&#45;to&#45;number.ts&#45;&gt;packages/util/stdlib/src/assertion/not&#45;nan.ts</title>
<path fill="none" stroke="#000000" stroke-width="2" stroke-opacity="0.200000" d="M351.82,-515.6C369.23,-522.77 393.63,-532.84 412.34,-540.55"/>
<polygon fill="#000000" fill-opacity="0.200000" stroke="#000000" stroke-width="2" stroke-opacity="0.200000" points="411.6,-542.52 417.95,-542.87 413.21,-538.64 411.6,-542.52"/>
</g>
<!-- packages/tonal&#45;objects/src/interval/interval&#45;literal.ts -->
<g id="node16" class="node">
<title>packages/tonal&#45;objects/src/interval/interval&#45;literal.ts</title>
<g id="a_node16"><a xlink:href="packages/tonal-objects/src/interval/interval-literal.ts" xlink:title="interval&#45;literal.ts">
<path fill="#ddfeff" stroke="black" d="M361.94,-622.13C361.94,-622.13 284.94,-622.13 284.94,-622.13 281.94,-622.13 278.94,-619.13 278.94,-616.13 278.94,-616.13 278.94,-610.13 278.94,-610.13 278.94,-607.13 281.94,-604.13 284.94,-604.13 284.94,-604.13 361.94,-604.13 361.94,-604.13 364.94,-604.13 367.94,-607.13 367.94,-610.13 367.94,-610.13 367.94,-616.13 367.94,-616.13 367.94,-619.13 364.94,-622.13 361.94,-622.13"/>
<text text-anchor="start" x="286.94" y="-610.93" font-family="Helvetica,sans-Serif" font-size="9.00">interval&#45;literal.ts</text>
</a>
</g>
</g>
<!-- packages/tonal&#45;objects/src/interval/interval&#45;literal.ts&#45;&gt;node_modules/@tonaljs/pitch&#45;interval -->
<g id="edge7" class="edge">
<title>packages/tonal&#45;objects/src/interval/interval&#45;literal.ts&#45;&gt;node_modules/@tonaljs/pitch&#45;interval</title>
<path fill="none" stroke="#000000" stroke-opacity="0.200000" d="M278.73,-606.2C278.24,-606.12 277.75,-606.04 277.27,-605.97"/>
<polygon fill="none" stroke="#000000" stroke-opacity="0.200000" points="277.19,-603.83 270.93,-604.99 276.54,-607.98 277.19,-603.83"/>
</g>
<!-- packages/tonal&#45;objects/src/interval/interval&#45;name.ts -->
<g id="node17" class="node">
<title>packages/tonal&#45;objects/src/interval/interval&#45;name.ts</title>
<g id="a_node17"><a xlink:href="packages/tonal-objects/src/interval/interval-name.ts" xlink:title="interval&#45;name.ts">
<path fill="#ddfeff" stroke="black" d="M238.59,-522C238.59,-522 160.59,-522 160.59,-522 157.59,-522 154.59,-519 154.59,-516 154.59,-516 154.59,-510 154.59,-510 154.59,-507 157.59,-504 160.59,-504 160.59,-504 238.59,-504 238.59,-504 241.59,-504 244.59,-507 244.59,-510 244.59,-510 244.59,-516 244.59,-516 244.59,-519 241.59,-522 238.59,-522"/>
<text text-anchor="start" x="162.59" y="-510.8" font-family="Helvetica,sans-Serif" font-size="9.00">interval&#45;name.ts</text>
</a>
</g>
</g>
<!-- packages/tonal&#45;objects/src/interval/interval&#45;name.ts&#45;&gt;node_modules/@tonaljs/pitch&#45;interval -->
<g id="edge8" class="edge">
<title>packages/tonal&#45;objects/src/interval/interval&#45;name.ts&#45;&gt;node_modules/@tonaljs/pitch&#45;interval</title>
<path fill="none" stroke="#000000" stroke-opacity="0.200000" d="M203.11,-522.2C208.74,-536.95 219.83,-566.01 226.64,-583.85"/>
<polygon fill="none" stroke="#000000" stroke-opacity="0.200000" points="224.84,-585.01 228.94,-589.87 228.76,-583.52 224.84,-585.01"/>
</g>
<!-- packages/tonal&#45;objects/src/interval/interval.ts -->
<g id="node18" class="node">
<title>packages/tonal&#45;objects/src/interval/interval.ts</title>
<g id="a_node18"><a xlink:href="packages/tonal-objects/src/interval/interval.ts" xlink:title="interval.ts">
<path fill="#ddfeff" stroke="black" d="M200,-679.96C200,-679.96 150,-679.96 150,-679.96 147,-679.96 144,-676.96 144,-673.96 144,-673.96 144,-667.96 144,-667.96 144,-664.96 147,-661.96 150,-661.96 150,-661.96 200,-661.96 200,-661.96 203,-661.96 206,-664.96 206,-667.96 206,-667.96 206,-673.96 206,-673.96 206,-676.96 203,-679.96 200,-679.96"/>
<text text-anchor="start" x="152" y="-668.76" font-family="Helvetica,sans-Serif" font-size="9.00">interval.ts</text>
</a>
</g>
</g>
<!-- packages/tonal&#45;objects/src/interval/interval.ts&#45;&gt;node_modules/@tonaljs/pitch&#45;interval -->
<g id="edge9" class="edge">
<title>packages/tonal&#45;objects/src/interval/interval.ts&#45;&gt;node_modules/@tonaljs/pitch&#45;interval</title>
<path fill="none" stroke="#000000" stroke-opacity="0.200000" d="M182.27,-661.84C192.06,-649.59 209.56,-627.66 221.08,-613.22"/>
<polygon fill="none" stroke="#000000" stroke-opacity="0.200000" points="222.93,-614.27 225.03,-608.27 219.65,-611.65 222.93,-614.27"/>
</g>
<!-- packages/tonal&#45;objects/src/interval/semitones.ts -->
<g id="node19" class="node">
<title>packages/tonal&#45;objects/src/interval/semitones.ts</title>
<g id="a_node19"><a xlink:href="packages/tonal-objects/src/interval/semitones.ts" xlink:title="semitones.ts">
<path fill="#ddfeff" stroke="black" d="M68,-412.13C68,-412.13 6,-412.13 6,-412.13 3,-412.13 0,-409.13 0,-406.13 0,-406.13 0,-400.13 0,-400.13 0,-397.13 3,-394.13 6,-394.13 6,-394.13 68,-394.13 68,-394.13 71,-394.13 74,-397.13 74,-400.13 74,-400.13 74,-406.13 74,-406.13 74,-409.13 71,-412.13 68,-412.13"/>
<text text-anchor="start" x="8" y="-400.93" font-family="Helvetica,sans-Serif" font-size="9.00">semitones.ts</text>
</a>
</g>
</g>
<!-- packages/tonal&#45;objects/src/interval/semitones.ts&#45;&gt;node_modules/@tonaljs/interval -->
<g id="edge10" class="edge">
<title>packages/tonal&#45;objects/src/interval/semitones.ts&#45;&gt;node_modules/@tonaljs/interval</title>
<path fill="none" stroke="#000000" stroke-opacity="0.200000" d="M63.52,-412.22C77.83,-417.12 95.62,-423.22 110.76,-428.41"/>
<polygon fill="#000000" fill-opacity="0.200000" stroke="#000000" stroke-opacity="0.200000" points="115.95,-432.41 110.95,-428.48 117.31,-428.44 115.95,-432.41"/>
</g>
<!-- packages/tonal&#45;objects/src/key/major&#45;key.ts -->
<g id="node20" class="node">
<title>packages/tonal&#45;objects/src/key/major&#45;key.ts</title>
<g id="a_node20"><a xlink:href="packages/tonal-objects/src/key/major-key.ts" xlink:title="major&#45;key.ts">
<path fill="#ddfeff" stroke="black" d="M383.23,-194.89C383.23,-194.89 325.23,-194.89 325.23,-194.89 322.23,-194.89 319.23,-191.89 319.23,-188.89 319.23,-188.89 319.23,-182.89 319.23,-182.89 319.23,-179.89 322.23,-176.89 325.23,-176.89 325.23,-176.89 383.23,-176.89 383.23,-176.89 386.23,-176.89 389.23,-179.89 389.23,-182.89 389.23,-182.89 389.23,-188.89 389.23,-188.89 389.23,-191.89 386.23,-194.89 383.23,-194.89"/>
<text text-anchor="start" x="327.23" y="-183.69" font-family="Helvetica,sans-Serif" font-size="9.00">major&#45;key.ts</text>
</a>
</g>
</g>
<!-- packages/tonal&#45;objects/src/key/major&#45;key.ts&#45;&gt;node_modules/@tonaljs/key -->
<g id="edge11" class="edge">
<title>packages/tonal&#45;objects/src/key/major&#45;key.ts&#45;&gt;node_modules/@tonaljs/key</title>
<path fill="none" stroke="#000000" stroke-opacity="0.200000" d="M347.27,-176.8C346.69,-176.03 346.08,-175.24 345.47,-174.44"/>
<polygon fill="#000000" fill-opacity="0.200000" stroke="#000000" stroke-opacity="0.200000" points="343.13,-167.92 345.11,-173.96 339.8,-170.47 343.13,-167.92"/>
</g>
<!-- packages/tonal&#45;objects/src/key/minor&#45;key.ts -->
<g id="node21" class="node">
<title>packages/tonal&#45;objects/src/key/minor&#45;key.ts</title>
<g id="a_node21"><a xlink:href="packages/tonal-objects/src/key/minor-key.ts" xlink:title="minor&#45;key.ts">
<path fill="#ddfeff" stroke="black" d="M353,-138C353,-138 294,-138 294,-138 291,-138 288,-135 288,-132 288,-132 288,-126 288,-126 288,-123 291,-120 294,-120 294,-120 353,-120 353,-120 356,-120 359,-123 359,-126 359,-126 359,-132 359,-132 359,-135 356,-138 353,-138"/>
<text text-anchor="start" x="296" y="-126.8" font-family="Helvetica,sans-Serif" font-size="9.00">minor&#45;key.ts</text>
</a>
</g>
</g>
<!-- packages/tonal&#45;objects/src/key/minor&#45;key.ts&#45;&gt;node_modules/@tonaljs/key -->
<g id="edge12" class="edge">
<title>packages/tonal&#45;objects/src/key/minor&#45;key.ts&#45;&gt;node_modules/@tonaljs/key</title>
<path fill="none" stroke="#000000" stroke-opacity="0.200000" d="M326.7,-138.1C327.44,-140.22 328.25,-142.53 329.06,-144.83"/>
<polygon fill="#000000" fill-opacity="0.200000" stroke="#000000" stroke-opacity="0.200000" points="329.16,-151.44 329.15,-145.08 333.12,-150.05 329.16,-151.44"/>
</g>
<!-- packages/tonal&#45;objects/src/note/chroma&#45;from&#45;non&#45;null.ts -->
<g id="node22" class="node">
<title>packages/tonal&#45;objects/src/note/chroma&#45;from&#45;non&#45;null.ts</title>
<g id="a_node22"><a xlink:href="packages/tonal-objects/src/note/chroma-from-non-null.ts" xlink:title="chroma&#45;from&#45;non&#45;null.ts">
<path fill="#ddfeff" stroke="black" d="M483,-241.61C483,-241.61 369,-241.61 369,-241.61 366,-241.61 363,-238.61 363,-235.61 363,-235.61 363,-229.61 363,-229.61 363,-226.61 366,-223.61 369,-223.61 369,-223.61 483,-223.61 483,-223.61 486,-223.61 489,-226.61 489,-229.61 489,-229.61 489,-235.61 489,-235.61 489,-238.61 486,-241.61 483,-241.61"/>
<text text-anchor="start" x="371" y="-230.41" font-family="Helvetica,sans-Serif" font-size="9.00">chroma&#45;from&#45;non&#45;null.ts</text>
</a>
</g>
</g>
<!-- packages/tonal&#45;objects/src/note/chroma&#45;from&#45;non&#45;null.ts&#45;&gt;node_modules/@tonaljs/note -->
<g id="edge14" class="edge">
<title>packages/tonal&#45;objects/src/note/chroma&#45;from&#45;non&#45;null.ts&#45;&gt;node_modules/@tonaljs/note</title>
<path fill="none" stroke="#000000" stroke-opacity="0.200000" d="M428.09,-223.41C432.65,-203.31 443.55,-155.27 449.14,-130.61"/>
<polygon fill="#000000" fill-opacity="0.200000" stroke="#000000" stroke-opacity="0.200000" points="451.22,-130.92 450.5,-124.6 447.13,-129.99 451.22,-130.92"/>
</g>
<!-- packages/tonal&#45;objects/src/note/chroma&#45;from&#45;non&#45;null.ts&#45;&gt;node_modules/@tonaljs/pitch&#45;note -->
<g id="edge15" class="edge">
<title>packages/tonal&#45;objects/src/note/chroma&#45;from&#45;non&#45;null.ts&#45;&gt;node_modules/@tonaljs/pitch&#45;note</title>
<path fill="none" stroke="#000000" stroke-opacity="0.200000" d="M402.57,-241.69C382.91,-249.31 354.72,-260.23 333.61,-268.41"/>
<polygon fill="#000000" fill-opacity="0.200000" stroke="#000000" stroke-opacity="0.200000" points="332.69,-266.52 327.85,-270.64 334.2,-270.43 332.69,-266.52"/>
</g>
<!-- packages/util/stdlib/src/assertion/not&#45;null&#45;like.ts -->
<g id="node23" class="node">
<title>packages/util/stdlib/src/assertion/not&#45;null&#45;like.ts</title>
<g id="a_node23"><a xlink:href="packages/util/stdlib/src/assertion/not-null-like.ts" xlink:title="not&#45;null&#45;like.ts">
<path fill="#ddfeff" stroke="black" d="M563.96,-310.63C563.96,-310.63 495.96,-310.63 495.96,-310.63 492.96,-310.63 489.96,-307.63 489.96,-304.63 489.96,-304.63 489.96,-298.63 489.96,-298.63 489.96,-295.63 492.96,-292.63 495.96,-292.63 495.96,-292.63 563.96,-292.63 563.96,-292.63 566.96,-292.63 569.96,-295.63 569.96,-298.63 569.96,-298.63 569.96,-304.63 569.96,-304.63 569.96,-307.63 566.96,-310.63 563.96,-310.63"/>
<text text-anchor="start" x="497.96" y="-299.43" font-family="Helvetica,sans-Serif" font-size="9.00">not&#45;null&#45;like.ts</text>
</a>
</g>
</g>
<!-- packages/tonal&#45;objects/src/note/chroma&#45;from&#45;non&#45;null.ts&#45;&gt;packages/util/stdlib/src/assertion/not&#45;null&#45;like.ts -->
<g id="edge13" class="edge">
<title>packages/tonal&#45;objects/src/note/chroma&#45;from&#45;non&#45;null.ts&#45;&gt;packages/util/stdlib/src/assertion/not&#45;null&#45;like.ts</title>
<path fill="none" stroke="#000000" stroke-width="2" stroke-opacity="0.200000" d="M439.59,-241.63C457.88,-253.77 490.5,-275.43 511.14,-289.13"/>
<polygon fill="#000000" fill-opacity="0.200000" stroke="#000000" stroke-width="2" stroke-opacity="0.200000" points="510.2,-291.03 516.36,-292.6 512.53,-287.53 510.2,-291.03"/>
</g>
<!-- packages/util/stdlib/src/assertion/not&#45;null.ts -->
<g id="node35" class="node">
<title>packages/util/stdlib/src/assertion/not&#45;null.ts</title>
<g id="a_node35"><a xlink:href="packages/util/stdlib/src/assertion/not-null.ts" xlink:title="not&#45;null.ts">
<path fill="#ddfeff" stroke="black" d="M648.48,-397.56C648.48,-397.56 598.48,-397.56 598.48,-397.56 595.48,-397.56 592.48,-394.56 592.48,-391.56 592.48,-391.56 592.48,-385.56 592.48,-385.56 592.48,-382.56 595.48,-379.56 598.48,-379.56 598.48,-379.56 648.48,-379.56 648.48,-379.56 651.48,-379.56 654.48,-382.56 654.48,-385.56 654.48,-385.56 654.48,-391.56 654.48,-391.56 654.48,-394.56 651.48,-397.56 648.48,-397.56"/>
<text text-anchor="start" x="600.48" y="-386.36" font-family="Helvetica,sans-Serif" font-size="9.00">not&#45;null.ts</text>
</a>
</g>
</g>
<!-- packages/util/stdlib/src/assertion/not&#45;null&#45;like.ts&#45;&gt;packages/util/stdlib/src/assertion/not&#45;null.ts -->
<g id="edge25" class="edge">
<title>packages/util/stdlib/src/assertion/not&#45;null&#45;like.ts&#45;&gt;packages/util/stdlib/src/assertion/not&#45;null.ts</title>
<path fill="none" stroke="#000000" stroke-width="2" stroke-opacity="0.200000" d="M539.97,-310.93C556.56,-326.36 589.84,-357.29 609,-375.1"/>
<polygon fill="#000000" fill-opacity="0.200000" stroke="#000000" stroke-width="2" stroke-opacity="0.200000" points="607.72,-376.78 613.55,-379.32 610.58,-373.7 607.72,-376.78"/>
</g>
<!-- packages/util/stdlib/src/assertion/not&#45;undefined.ts -->
<g id="node36" class="node">
<title>packages/util/stdlib/src/assertion/not&#45;undefined.ts</title>
<g id="a_node36"><a xlink:href="packages/util/stdlib/src/assertion/not-undefined.ts" xlink:title="not&#45;undefined.ts">
<path fill="#ddfeff" stroke="black" d="M578.47,-415.01C578.47,-415.01 498.47,-415.01 498.47,-415.01 495.47,-415.01 492.47,-412.01 492.47,-409.01 492.47,-409.01 492.47,-403.01 492.47,-403.01 492.47,-400.01 495.47,-397.01 498.47,-397.01 498.47,-397.01 578.47,-397.01 578.47,-397.01 581.47,-397.01 584.47,-400.01 584.47,-403.01 584.47,-403.01 584.47,-409.01 584.47,-409.01 584.47,-412.01 581.47,-415.01 578.47,-415.01"/>
<text text-anchor="start" x="500.47" y="-403.81" font-family="Helvetica,sans-Serif" font-size="9.00">not&#45;undefined.ts</text>
</a>
</g>
</g>
<!-- packages/util/stdlib/src/assertion/not&#45;null&#45;like.ts&#45;&gt;packages/util/stdlib/src/assertion/not&#45;undefined.ts -->
<g id="edge26" class="edge">
<title>packages/util/stdlib/src/assertion/not&#45;null&#45;like.ts&#45;&gt;packages/util/stdlib/src/assertion/not&#45;undefined.ts</title>
<path fill="none" stroke="#000000" stroke-width="2" stroke-opacity="0.200000" d="M530.71,-310.89C532.18,-328.89 535.43,-368.73 537.23,-390.71"/>
<polygon fill="#000000" fill-opacity="0.200000" stroke="#000000" stroke-width="2" stroke-opacity="0.200000" points="535.15,-391.11 537.73,-396.92 539.34,-390.76 535.15,-391.11"/>
</g>
<!-- packages/tonal&#45;objects/src/note/chroma.ts -->
<g id="node24" class="node">
<title>packages/tonal&#45;objects/src/note/chroma.ts</title>
<g id="a_node24"><a xlink:href="packages/tonal-objects/src/note/chroma.ts" xlink:title="chroma.ts">
<path fill="#ddfeff" stroke="black" d="M587.64,-87.78C587.64,-87.78 537.64,-87.78 537.64,-87.78 534.64,-87.78 531.64,-84.78 531.64,-81.78 531.64,-81.78 531.64,-75.78 531.64,-75.78 531.64,-72.78 534.64,-69.78 537.64,-69.78 537.64,-69.78 587.64,-69.78 587.64,-69.78 590.64,-69.78 593.64,-72.78 593.64,-75.78 593.64,-75.78 593.64,-81.78 593.64,-81.78 593.64,-84.78 590.64,-87.78 587.64,-87.78"/>
<text text-anchor="start" x="539.64" y="-76.58" font-family="Helvetica,sans-Serif" font-size="9.00">chroma.ts</text>
</a>
</g>
</g>
<!-- packages/tonal&#45;objects/src/note/chroma.ts&#45;&gt;node_modules/@tonaljs/note -->
<g id="edge16" class="edge">
<title>packages/tonal&#45;objects/src/note/chroma.ts&#45;&gt;node_modules/@tonaljs/note</title>
<path fill="none" stroke="#000000" stroke-opacity="0.200000" d="M535.44,-87.85C520.35,-92.87 501.49,-99.16 485.57,-104.46"/>
<polygon fill="#000000" fill-opacity="0.200000" stroke="#000000" stroke-opacity="0.200000" points="479.19,-104.37 485.55,-104.47 480.52,-108.36 479.19,-104.37"/>
</g>
<!-- packages/tonal&#45;objects/src/note/from&#45;midi.ts -->
<g id="node25" class="node">
<title>packages/tonal&#45;objects/src/note/from&#45;midi.ts</title>
<g id="a_node25"><a xlink:href="packages/tonal-objects/src/note/from-midi.ts" xlink:title="from&#45;midi.ts">
<path fill="#ddfeff" stroke="black" d="M508.58,-18C508.58,-18 449.58,-18 449.58,-18 446.58,-18 443.58,-15 443.58,-12 443.58,-12 443.58,-6 443.58,-6 443.58,-3 446.58,0 449.58,0 449.58,0 508.58,0 508.58,0 511.58,0 514.58,-3 514.58,-6 514.58,-6 514.58,-12 514.58,-12 514.58,-15 511.58,-18 508.58,-18"/>
<text text-anchor="start" x="451.58" y="-6.8" font-family="Helvetica,sans-Serif" font-size="9.00">from&#45;midi.ts</text>
</a>
</g>
</g>
<!-- packages/tonal&#45;objects/src/note/from&#45;midi.ts&#45;&gt;node_modules/@tonaljs/note -->
<g id="edge17" class="edge">
<title>packages/tonal&#45;objects/src/note/from&#45;midi.ts&#45;&gt;node_modules/@tonaljs/note</title>
<path fill="none" stroke="#000000" stroke-opacity="0.200000" d="M476.82,-18.08C472.27,-36.38 461.93,-77.89 456.34,-100.34"/>
<polygon fill="#000000" fill-opacity="0.200000" stroke="#000000" stroke-opacity="0.200000" points="452.8,-105.89 456.28,-100.58 456.87,-106.9 452.8,-105.89"/>
</g>
<!-- packages/tonal&#45;objects/src/note/get.ts -->
<g id="node26" class="node">
<title>packages/tonal&#45;objects/src/note/get.ts</title>
<g id="a_node26"><a xlink:href="packages/tonal-objects/src/note/get.ts" xlink:title="get.ts">
<path fill="#ddfeff" stroke="black" d="M395.81,-37.81C395.81,-37.81 353.81,-37.81 353.81,-37.81 350.81,-37.81 347.81,-34.81 347.81,-31.81 347.81,-31.81 347.81,-25.81 347.81,-25.81 347.81,-22.81 350.81,-19.81 353.81,-19.81 353.81,-19.81 395.81,-19.81 395.81,-19.81 398.81,-19.81 401.81,-22.81 401.81,-25.81 401.81,-25.81 401.81,-31.81 401.81,-31.81 401.81,-34.81 398.81,-37.81 395.81,-37.81"/>
<text text-anchor="start" x="361.31" y="-26.61" font-family="Helvetica,sans-Serif" font-size="9.00">get.ts</text>
</a>
</g>
</g>
<!-- packages/tonal&#45;objects/src/note/get.ts&#45;&gt;node_modules/@tonaljs/note -->
<g id="edge18" class="edge">
<title>packages/tonal&#45;objects/src/note/get.ts&#45;&gt;node_modules/@tonaljs/note</title>
<path fill="none" stroke="#000000" stroke-opacity="0.200000" d="M383.13,-38.08C396.82,-53.32 424.13,-83.76 440.13,-101.58"/>
<polygon fill="#000000" fill-opacity="0.200000" stroke="#000000" stroke-opacity="0.200000" points="442.75,-107.65 440.31,-101.78 445.88,-104.84 442.75,-107.65"/>
</g>
<!-- packages/tonal&#45;objects/src/note/note&#45;literal.ts -->
<g id="node27" class="node">
<title>packages/tonal&#45;objects/src/note/note&#45;literal.ts</title>
<g id="a_node27"><a xlink:href="packages/tonal-objects/src/note/note-literal.ts" xlink:title="note&#45;literal.ts">
<path fill="#ddfeff" stroke="black" d="M251.5,-220.57C251.5,-220.57 187.5,-220.57 187.5,-220.57 184.5,-220.57 181.5,-217.57 181.5,-214.57 181.5,-214.57 181.5,-208.57 181.5,-208.57 181.5,-205.57 184.5,-202.57 187.5,-202.57 187.5,-202.57 251.5,-202.57 251.5,-202.57 254.5,-202.57 257.5,-205.57 257.5,-208.57 257.5,-208.57 257.5,-214.57 257.5,-214.57 257.5,-217.57 254.5,-220.57 251.5,-220.57"/>
<text text-anchor="start" x="189.5" y="-209.37" font-family="Helvetica,sans-Serif" font-size="9.00">note&#45;literal.ts</text>
</a>
</g>
</g>
<!-- packages/tonal&#45;objects/src/note/note&#45;literal.ts&#45;&gt;node_modules/@tonaljs/pitch&#45;note -->
<g id="edge19" class="edge">
<title>packages/tonal&#45;objects/src/note/note&#45;literal.ts&#45;&gt;node_modules/@tonaljs/pitch&#45;note</title>
<path fill="none" stroke="#000000" stroke-opacity="0.200000" d="M230.96,-220.76C245.75,-232.61 271.55,-253.29 288.32,-266.73"/>
<polygon fill="none" stroke="#000000" stroke-opacity="0.200000" points="287.22,-268.54 293.21,-270.65 289.84,-265.26 287.22,-268.54"/>
</g>
<!-- packages/tonal&#45;objects/src/note/note.ts -->
<g id="node28" class="node">
<title>packages/tonal&#45;objects/src/note/note.ts</title>
<g id="a_node28"><a xlink:href="packages/tonal-objects/src/note/note.ts" xlink:title="note.ts">
<path fill="#ddfeff" stroke="black" d="M357.08,-352.74C357.08,-352.74 315.08,-352.74 315.08,-352.74 312.08,-352.74 309.08,-349.74 309.08,-346.74 309.08,-346.74 309.08,-340.74 309.08,-340.74 309.08,-337.74 312.08,-334.74 315.08,-334.74 315.08,-334.74 357.08,-334.74 357.08,-334.74 360.08,-334.74 363.08,-337.74 363.08,-340.74 363.08,-340.74 363.08,-346.74 363.08,-346.74 363.08,-349.74 360.08,-352.74 357.08,-352.74"/>
<text text-anchor="start" x="320.08" y="-341.54" font-family="Helvetica,sans-Serif" font-size="9.00">note.ts</text>
</a>
</g>
</g>
<!-- packages/tonal&#45;objects/src/note/note.ts&#45;&gt;node_modules/@tonaljs/pitch&#45;note -->
<g id="edge20" class="edge">
<title>packages/tonal&#45;objects/src/note/note.ts&#45;&gt;node_modules/@tonaljs/pitch&#45;note</title>
<path fill="none" stroke="#000000" stroke-opacity="0.200000" d="M331.56,-334.56C326.4,-324.1 317.89,-306.85 311.79,-294.48"/>
<polygon fill="none" stroke="#000000" stroke-opacity="0.200000" points="313.55,-293.31 309.01,-288.85 309.78,-295.16 313.55,-293.31"/>
</g>
<!-- packages/tonal&#45;objects/src/roman&#45;numeral/get.ts -->
<g id="node29" class="node">
<title>packages/tonal&#45;objects/src/roman&#45;numeral/get.ts</title>
<g id="a_node29"><a xlink:href="packages/tonal-objects/src/roman-numeral/get.ts" xlink:title="get.ts">
<path fill="#ddfeff" stroke="black" d="M718.01,-546C718.01,-546 676.01,-546 676.01,-546 673.01,-546 670.01,-543 670.01,-540 670.01,-540 670.01,-534 670.01,-534 670.01,-531 673.01,-528 676.01,-528 676.01,-528 718.01,-528 718.01,-528 721.01,-528 724.01,-531 724.01,-534 724.01,-534 724.01,-540 724.01,-540 724.01,-543 721.01,-546 718.01,-546"/>
<text text-anchor="start" x="683.51" y="-534.8" font-family="Helvetica,sans-Serif" font-size="9.00">get.ts</text>
</a>
</g>
</g>
<!-- packages/tonal&#45;objects/src/roman&#45;numeral/get.ts&#45;&gt;node_modules/@tonaljs/roman&#45;numeral -->
<g id="edge21" class="edge">
<title>packages/tonal&#45;objects/src/roman&#45;numeral/get.ts&#45;&gt;node_modules/@tonaljs/roman&#45;numeral</title>
<path fill="none" stroke="#000000" stroke-opacity="0.200000" d="M669.72,-541.08C669.26,-541.15 668.8,-541.21 668.33,-541.28"/>
<polygon fill="#000000" fill-opacity="0.200000" stroke="#000000" stroke-opacity="0.200000" points="661.87,-540.13 668.12,-541.32 662.49,-544.28 661.87,-540.13"/>
</g>
<!-- packages/tonal&#45;objects/src/scale/get.ts -->
<g id="node30" class="node">
<title>packages/tonal&#45;objects/src/scale/get.ts</title>
<g id="a_node30"><a xlink:href="packages/tonal-objects/src/scale/get.ts" xlink:title="get.ts">
<path fill="#ddfeff" stroke="black" d="M246.73,-362.89C246.73,-362.89 204.73,-362.89 204.73,-362.89 201.73,-362.89 198.73,-359.89 198.73,-356.89 198.73,-356.89 198.73,-350.89 198.73,-350.89 198.73,-347.89 201.73,-344.89 204.73,-344.89 204.73,-344.89 246.73,-344.89 246.73,-344.89 249.73,-344.89 252.73,-347.89 252.73,-350.89 252.73,-350.89 252.73,-356.89 252.73,-356.89 252.73,-359.89 249.73,-362.89 246.73,-362.89"/>
<text text-anchor="start" x="212.23" y="-351.69" font-family="Helvetica,sans-Serif" font-size="9.00">get.ts</text>
</a>
</g>
</g>
<!-- packages/tonal&#45;objects/src/scale/get.ts&#45;&gt;node_modules/@tonaljs/scale -->
<g id="edge22" class="edge">
<title>packages/tonal&#45;objects/src/scale/get.ts&#45;&gt;node_modules/@tonaljs/scale</title>
<path fill="none" stroke="#000000" stroke-opacity="0.200000" d="M218.77,-344.8C218.19,-344.03 217.58,-343.24 216.97,-342.44"/>
<polygon fill="#000000" fill-opacity="0.200000" stroke="#000000" stroke-opacity="0.200000" points="214.63,-335.92 216.61,-341.96 211.3,-338.47 214.63,-335.92"/>
</g>
<!-- packages/tonal&#45;objects/src/scale/scale&#45;name.ts -->
<g id="node31" class="node">
<title>packages/tonal&#45;objects/src/scale/scale&#45;name.ts</title>
<g id="a_node31"><a xlink:href="packages/tonal-objects/src/scale/scale-name.ts" xlink:title="no&#45;orphans">
<path fill="#ccffcc" stroke="orange" d="M193,-90C193,-90 126,-90 126,-90 123,-90 120,-87 120,-84 120,-84 120,-78 120,-78 120,-75 123,-72 126,-72 126,-72 193,-72 193,-72 196,-72 199,-75 199,-78 199,-78 199,-84 199,-84 199,-87 196,-90 193,-90"/>
<text text-anchor="start" x="128" y="-78.8" font-family="Helvetica,sans-Serif" font-size="9.00" fill="orange">scale&#45;name.ts</text>
</a>
</g>
</g>
<!-- packages/tonal&#45;objects/src/scale/scale.ts -->
<g id="node32" class="node">
<title>packages/tonal&#45;objects/src/scale/scale.ts</title>
<g id="a_node32"><a xlink:href="packages/tonal-objects/src/scale/scale.ts" xlink:title="scale.ts">
<path fill="#ddfeff" stroke="black" d="M216,-306C216,-306 174,-306 174,-306 171,-306 168,-303 168,-300 168,-300 168,-294 168,-294 168,-291 171,-288 174,-288 174,-288 216,-288 216,-288 219,-288 222,-291 222,-294 222,-294 222,-300 222,-300 222,-303 219,-306 216,-306"/>
<text text-anchor="start" x="178" y="-294.8" font-family="Helvetica,sans-Serif" font-size="9.00">scale.ts</text>
</a>
</g>
</g>
<!-- packages/tonal&#45;objects/src/scale/scale.ts&#45;&gt;node_modules/@tonaljs/scale -->
<g id="edge23" class="edge">
<title>packages/tonal&#45;objects/src/scale/scale.ts&#45;&gt;node_modules/@tonaljs/scale</title>
<path fill="none" stroke="#000000" stroke-opacity="0.200000" d="M198.2,-306.1C198.94,-308.22 199.75,-310.53 200.56,-312.83"/>
<polygon fill="none" stroke="#000000" stroke-opacity="0.200000" points="198.67,-313.78 202.64,-318.75 202.63,-312.39 198.67,-313.78"/>
</g>
<!-- packages/util/stdlib/src/error/throw&#45;function.ts -->
<g id="node34" class="node">
<title>packages/util/stdlib/src/error/throw&#45;function.ts</title>
<g id="a_node34"><a xlink:href="packages/util/stdlib/src/error/throw-function.ts" xlink:title="throw&#45;function.ts">
<path fill="#ddfeff" stroke="black" d="M591.05,-510.52C591.05,-510.52 508.05,-510.52 508.05,-510.52 505.05,-510.52 502.05,-507.52 502.05,-504.52 502.05,-504.52 502.05,-498.52 502.05,-498.52 502.05,-495.52 505.05,-492.52 508.05,-492.52 508.05,-492.52 591.05,-492.52 591.05,-492.52 594.05,-492.52 597.05,-495.52 597.05,-498.52 597.05,-498.52 597.05,-504.52 597.05,-504.52 597.05,-507.52 594.05,-510.52 591.05,-510.52"/>
<text text-anchor="start" x="510.05" y="-499.32" font-family="Helvetica,sans-Serif" font-size="9.00">throw&#45;function.ts</text>
</a>
</g>
</g>
<!-- packages/util/stdlib/src/assertion/not&#45;nan.ts&#45;&gt;packages/util/stdlib/src/error/throw&#45;function.ts -->
<g id="edge24" class="edge">
<title>packages/util/stdlib/src/assertion/not&#45;nan.ts&#45;&gt;packages/util/stdlib/src/error/throw&#45;function.ts</title>
<path fill="none" stroke="#000000" stroke-width="2" stroke-opacity="0.200000" d="M459.53,-542.92C477.58,-534.62 504.46,-522.25 524.15,-513.2"/>
<polygon fill="#000000" fill-opacity="0.200000" stroke="#000000" stroke-width="2" stroke-opacity="0.200000" points="525.18,-515.04 529.76,-510.62 523.43,-511.22 525.18,-515.04"/>
</g>
<!-- packages/util/stdlib/src/assertion/not&#45;null.ts&#45;&gt;packages/util/stdlib/src/error/throw&#45;function.ts -->
<g id="edge27" class="edge">
<title>packages/util/stdlib/src/assertion/not&#45;null.ts&#45;&gt;packages/util/stdlib/src/error/throw&#45;function.ts</title>
<path fill="none" stroke="#000000" stroke-width="2" stroke-opacity="0.200000" d="M617.43,-397.8C604.53,-417.51 574.26,-463.77 558.88,-487.27"/>
<polygon fill="#000000" fill-opacity="0.200000" stroke="#000000" stroke-width="2" stroke-opacity="0.200000" points="557.01,-486.29 555.48,-492.46 560.52,-488.59 557.01,-486.29"/>
</g>
<!-- packages/util/stdlib/src/assertion/not&#45;undefined.ts&#45;&gt;packages/util/stdlib/src/error/throw&#45;function.ts -->
<g id="edge28" class="edge">
<title>packages/util/stdlib/src/assertion/not&#45;undefined.ts&#45;&gt;packages/util/stdlib/src/error/throw&#45;function.ts</title>
<path fill="none" stroke="#000000" stroke-width="2" stroke-opacity="0.200000" d="M539.54,-415.17C541.43,-431.53 545.43,-465.93 547.76,-486.03"/>
<polygon fill="#000000" fill-opacity="0.200000" stroke="#000000" stroke-width="2" stroke-opacity="0.200000" points="545.7,-486.53 548.48,-492.25 549.87,-486.04 545.7,-486.53"/>
</g>
</g>
</svg>
