<?xml version="1.0" encoding="UTF-8" standalone="no"?>
<!DOCTYPE svg PUBLIC "-//W3C//DTD SVG 1.1//EN"
 "http://www.w3.org/Graphics/SVG/1.1/DTD/svg11.dtd">
<!-- Generated by graphviz version 2.43.0 (0)
 -->
<!-- Title: dependency&#45;cruiser output Pages: 1 -->
<svg width="707pt" height="546pt"
 viewBox="0.00 0.00 707.00 546.00" xmlns="http://www.w3.org/2000/svg" xmlns:xlink="http://www.w3.org/1999/xlink">
<g id="graph0" class="graph" transform="scale(1 1) rotate(0) translate(4 542)">
<title>dependency&#45;cruiser output</title>
<polygon fill="white" stroke="transparent" points="-4,4 -4,-542 703,-542 703,4 -4,4"/>
<g id="clust1" class="cluster">
<title>cluster_node_modules</title>
<path fill="#ffffff" stroke="black" stroke-width="2" d="M225,-8C225,-8 319,-8 319,-8 325,-8 331,-14 331,-20 331,-20 331,-292 331,-292 331,-298 325,-304 319,-304 319,-304 225,-304 225,-304 219,-304 213,-298 213,-292 213,-292 213,-20 213,-20 213,-14 219,-8 225,-8"/>
<text text-anchor="middle" x="272" y="-292.8" font-family="Helvetica,sans-Serif" font-weight="bold" font-size="9.00">node_modules</text>
</g>
<g id="clust2" class="cluster">
<title>cluster_node_modules/@tonaljs</title>
<path fill="#ffffff" stroke="black" stroke-width="2" d="M233,-16C233,-16 311,-16 311,-16 317,-16 323,-22 323,-28 323,-28 323,-266 323,-266 323,-272 317,-278 311,-278 311,-278 233,-278 233,-278 227,-278 221,-272 221,-266 221,-266 221,-28 221,-28 221,-22 227,-16 233,-16"/>
<text text-anchor="middle" x="272" y="-266.8" font-family="Helvetica,sans-Serif" font-weight="bold" font-size="9.00">@tonaljs</text>
</g>
<g id="clust3" class="cluster">
<title>cluster_packages</title>
<path fill="#ffffff" stroke="black" stroke-width="2" d="M20,-312C20,-312 679,-312 679,-312 685,-312 691,-318 691,-324 691,-324 691,-518 691,-518 691,-524 685,-530 679,-530 679,-530 20,-530 20,-530 14,-530 8,-524 8,-518 8,-518 8,-324 8,-324 8,-318 14,-312 20,-312"/>
<text text-anchor="middle" x="349.5" y="-518.8" font-family="Helvetica,sans-Serif" font-weight="bold" font-size="9.00">packages</text>
</g>
<g id="clust4" class="cluster">
<title>cluster_packages/tonal&#45;objects</title>
<path fill="#ffffff" stroke="black" stroke-width="2" d="M28,-320C28,-320 171,-320 171,-320 177,-320 183,-326 183,-332 183,-332 183,-394 183,-394 183,-400 177,-406 171,-406 171,-406 28,-406 28,-406 22,-406 16,-400 16,-394 16,-394 16,-332 16,-332 16,-326 22,-320 28,-320"/>
<text text-anchor="middle" x="99.5" y="-394.8" font-family="Helvetica,sans-Serif" font-weight="bold" font-size="9.00">tonal&#45;objects</text>
</g>
<g id="clust5" class="cluster">
<title>cluster_packages/tonal&#45;objects/src</title>
<path fill="#ffffff" stroke="black" stroke-width="2" d="M117,-328C117,-328 163,-328 163,-328 169,-328 175,-334 175,-340 175,-340 175,-368 175,-368 175,-374 169,-380 163,-380 163,-380 117,-380 117,-380 111,-380 105,-374 105,-368 105,-368 105,-340 105,-340 105,-334 111,-328 117,-328"/>
<text text-anchor="middle" x="140" y="-368.8" font-family="Helvetica,sans-Serif" font-weight="bold" font-size="9.00">src</text>
</g>
<g id="clust6" class="cluster">
<title>cluster_packages/util</title>
<path fill="#ffffff" stroke="black" stroke-width="2" d="M203,-320C203,-320 671,-320 671,-320 677,-320 683,-326 683,-332 683,-332 683,-492 683,-492 683,-498 677,-504 671,-504 671,-504 203,-504 203,-504 197,-504 191,-498 191,-492 191,-492 191,-332 191,-332 191,-326 197,-320 203,-320"/>
<text text-anchor="middle" x="437" y="-492.8" font-family="Helvetica,sans-Serif" font-weight="bold" font-size="9.00">util</text>
</g>
<g id="clust7" class="cluster">
<title>cluster_packages/util/stdlib</title>
<path fill="#ffffff" stroke="black" stroke-width="2" d="M211,-328C211,-328 663,-328 663,-328 669,-328 675,-334 675,-340 675,-340 675,-466 675,-466 675,-472 669,-478 663,-478 663,-478 211,-478 211,-478 205,-478 199,-472 199,-466 199,-466 199,-340 199,-340 199,-334 205,-328 211,-328"/>
<text text-anchor="middle" x="437" y="-466.8" font-family="Helvetica,sans-Serif" font-weight="bold" font-size="9.00">stdlib</text>
</g>
<g id="clust8" class="cluster">
<title>cluster_packages/util/stdlib/src</title>
<path fill="#ffffff" stroke="black" stroke-width="2" d="M219,-336C219,-336 655,-336 655,-336 661,-336 667,-342 667,-348 667,-348 667,-440 667,-440 667,-446 661,-452 655,-452 655,-452 219,-452 219,-452 213,-452 207,-446 207,-440 207,-440 207,-348 207,-348 207,-342 213,-336 219,-336"/>
<text text-anchor="middle" x="437" y="-440.8" font-family="Helvetica,sans-Serif" font-weight="bold" font-size="9.00">src</text>
</g>
<g id="clust9" class="cluster">
<title>cluster_packages/util/stdlib/src/assertion</title>
<path fill="#ffffff" stroke="black" stroke-width="2" d="M351,-344C351,-344 528,-344 528,-344 534,-344 540,-350 540,-356 540,-356 540,-414 540,-414 540,-420 534,-426 528,-426 528,-426 351,-426 351,-426 345,-426 339,-420 339,-414 339,-414 339,-356 339,-356 339,-350 345,-344 351,-344"/>
<text text-anchor="middle" x="439.5" y="-414.8" font-family="Helvetica,sans-Serif" font-weight="bold" font-size="9.00">assertion</text>
</g>
<g id="clust10" class="cluster">
<title>cluster_packages/util/stdlib/src/error</title>
<path fill="#ffffff" stroke="black" stroke-width="2" d="M560,-374C560,-374 647,-374 647,-374 653,-374 659,-380 659,-386 659,-386 659,-414 659,-414 659,-420 653,-426 647,-426 647,-426 560,-426 560,-426 554,-426 548,-420 548,-414 548,-414 548,-386 548,-386 548,-380 554,-374 560,-374"/>
<text text-anchor="middle" x="603.5" y="-414.8" font-family="Helvetica,sans-Serif" font-weight="bold" font-size="9.00">error</text>
</g>
<g id="clust11" class="cluster">
<title>cluster_packages/util/stdlib/src/string</title>
<path fill="#ffffff" stroke="black" stroke-width="2" d="M227,-369C227,-369 317,-369 317,-369 323,-369 329,-375 329,-381 329,-381 329,-409 329,-409 329,-415 323,-421 317,-421 317,-421 227,-421 227,-421 221,-421 215,-415 215,-409 215,-409 215,-381 215,-381 215,-375 221,-369 227,-369"/>
<text text-anchor="middle" x="272" y="-409.8" font-family="Helvetica,sans-Serif" font-weight="bold" font-size="9.00">string</text>
</g>
<!-- node_modules/@tonaljs/chord -->
<g id="node1" class="node">
<title>node_modules/@tonaljs/chord</title>
<g id="a_node1"><a xlink:href="https://www.npmjs.com/package/@tonaljs/chord" xlink:title="chord">
<polygon fill="#c40b0a" fill-opacity="0.101961" stroke="black" points="299,-72 247,-72 245,-70 245,-54 297,-54 299,-56 299,-72"/>
<polyline fill="none" stroke="black" points="297,-70 245,-70 "/>
<polyline fill="none" stroke="black" points="297,-70 297,-54 "/>
<polyline fill="none" stroke="black" points="297,-70 299,-72 "/>
<text text-anchor="start" x="258.5" y="-60.8" font-family="Helvetica,sans-Serif" font-size="9.00" fill="#c40b0a">chord</text>
</a>
</g>
</g>
<!-- node_modules/@tonaljs/interval -->
<g id="node2" class="node">
<title>node_modules/@tonaljs/interval</title>
<g id="a_node2"><a xlink:href="https://www.npmjs.com/package/@tonaljs/interval" xlink:title="interval">
<polygon fill="#c40b0a" fill-opacity="0.101961" stroke="black" points="299,-252 247,-252 245,-250 245,-234 297,-234 299,-236 299,-252"/>
<polyline fill="none" stroke="black" points="297,-250 245,-250 "/>
<polyline fill="none" stroke="black" points="297,-250 297,-234 "/>
<polyline fill="none" stroke="black" points="297,-250 299,-252 "/>
<text text-anchor="start" x="255" y="-240.8" font-family="Helvetica,sans-Serif" font-size="9.00" fill="#c40b0a">interval</text>
</a>
</g>
</g>
<!-- node_modules/@tonaljs/key -->
<g id="node3" class="node">
<title>node_modules/@tonaljs/key</title>
<g id="a_node3"><a xlink:href="https://www.npmjs.com/package/@tonaljs/key" xlink:title="key">
<polygon fill="#c40b0a" fill-opacity="0.101961" stroke="black" points="299,-42 247,-42 245,-40 245,-24 297,-24 299,-26 299,-42"/>
<polyline fill="none" stroke="black" points="297,-40 245,-40 "/>
<polyline fill="none" stroke="black" points="297,-40 297,-24 "/>
<polyline fill="none" stroke="black" points="297,-40 299,-42 "/>
<text text-anchor="start" x="264" y="-30.8" font-family="Helvetica,sans-Serif" font-size="9.00" fill="#c40b0a">key</text>
</a>
</g>
</g>
<!-- node_modules/@tonaljs/note -->
<g id="node4" class="node">
<title>node_modules/@tonaljs/note</title>
<g id="a_node4"><a xlink:href="https://www.npmjs.com/package/@tonaljs/note" xlink:title="note">
<polygon fill="#c40b0a" fill-opacity="0.101961" stroke="black" points="299,-222 247,-222 245,-220 245,-204 297,-204 299,-206 299,-222"/>
<polyline fill="none" stroke="black" points="297,-220 245,-220 "/>
<polyline fill="none" stroke="black" points="297,-220 297,-204 "/>
<polyline fill="none" stroke="black" points="297,-220 299,-222 "/>
<text text-anchor="start" x="261.5" y="-210.8" font-family="Helvetica,sans-Serif" font-size="9.00" fill="#c40b0a">note</text>
</a>
</g>
</g>
<!-- node_modules/@tonaljs/pitch&#45;interval -->
<g id="node5" class="node">
<title>node_modules/@tonaljs/pitch&#45;interval</title>
<g id="a_node5"><a xlink:href="https://www.npmjs.com/package/@tonaljs/pitch-interval" xlink:title="pitch&#45;interval">
<polygon fill="#c40b0a" fill-opacity="0.101961" stroke="black" points="310.5,-162 235.5,-162 233.5,-160 233.5,-144 308.5,-144 310.5,-146 310.5,-162"/>
<polyline fill="none" stroke="black" points="308.5,-160 233.5,-160 "/>
<polyline fill="none" stroke="black" points="308.5,-160 308.5,-144 "/>
<polyline fill="none" stroke="black" points="308.5,-160 310.5,-162 "/>
<text text-anchor="start" x="241.5" y="-150.8" font-family="Helvetica,sans-Serif" font-size="9.00" fill="#c40b0a">pitch&#45;interval</text>
</a>
</g>
</g>
<!-- node_modules/@tonaljs/pitch&#45;note -->
<g id="node6" class="node">
<title>node_modules/@tonaljs/pitch&#45;note</title>
<g id="a_node6"><a xlink:href="https://www.npmjs.com/package/@tonaljs/pitch-note" xlink:title="pitch&#45;note">
<polygon fill="#c40b0a" fill-opacity="0.101961" stroke="black" points="303.5,-192 242.5,-192 240.5,-190 240.5,-174 301.5,-174 303.5,-176 303.5,-192"/>
<polyline fill="none" stroke="black" points="301.5,-190 240.5,-190 "/>
<polyline fill="none" stroke="black" points="301.5,-190 301.5,-174 "/>
<polyline fill="none" stroke="black" points="301.5,-190 303.5,-192 "/>
<text text-anchor="start" x="248.5" y="-180.8" font-family="Helvetica,sans-Serif" font-size="9.00" fill="#c40b0a">pitch&#45;note</text>
</a>
</g>
</g>
<!-- node_modules/@tonaljs/roman&#45;numeral -->
<g id="node7" class="node">
<title>node_modules/@tonaljs/roman&#45;numeral</title>
<g id="a_node7"><a xlink:href="https://www.npmjs.com/package/@tonaljs/roman-numeral" xlink:title="roman&#45;numeral">
<polygon fill="#c40b0a" fill-opacity="0.101961" stroke="black" points="315,-132 231,-132 229,-130 229,-114 313,-114 315,-116 315,-132"/>
<polyline fill="none" stroke="black" points="313,-130 229,-130 "/>
<polyline fill="none" stroke="black" points="313,-130 313,-114 "/>
<polyline fill="none" stroke="black" points="313,-130 315,-132 "/>
<text text-anchor="start" x="237" y="-120.8" font-family="Helvetica,sans-Serif" font-size="9.00" fill="#c40b0a">roman&#45;numeral</text>
</a>
</g>
</g>
<!-- node_modules/@tonaljs/scale -->
<g id="node8" class="node">
<title>node_modules/@tonaljs/scale</title>
<g id="a_node8"><a xlink:href="https://www.npmjs.com/package/@tonaljs/scale" xlink:title="scale">
<polygon fill="#c40b0a" fill-opacity="0.101961" stroke="black" points="299,-102 247,-102 245,-100 245,-84 297,-84 299,-86 299,-102"/>
<polyline fill="none" stroke="black" points="297,-100 245,-100 "/>
<polyline fill="none" stroke="black" points="297,-100 297,-84 "/>
<polyline fill="none" stroke="black" points="297,-100 299,-102 "/>
<text text-anchor="start" x="260.5" y="-90.8" font-family="Helvetica,sans-Serif" font-size="9.00" fill="#c40b0a">scale</text>
</a>
</g>
</g>
<!-- packages/tonal&#45;objects/index.test.ts -->
<g id="node9" class="node">
<title>packages/tonal&#45;objects/index.test.ts</title>
<g id="a_node9"><a xlink:href="packages/tonal-objects/index.test.ts" xlink:title="no&#45;orphans">
<path fill="#ccffcc" stroke="orange" d="M91,-378C91,-378 30,-378 30,-378 27,-378 24,-375 24,-372 24,-372 24,-366 24,-366 24,-363 27,-360 30,-360 30,-360 91,-360 91,-360 94,-360 97,-363 97,-366 97,-366 97,-372 97,-372 97,-375 94,-378 91,-378"/>
<text text-anchor="start" x="32" y="-366.8" font-family="Helvetica,sans-Serif" font-size="9.00" fill="orange">index.test.ts</text>
</a>
</g>
</g>
<!-- packages/tonal&#45;objects/index.ts -->
<g id="node10" class="node">
<title>packages/tonal&#45;objects/index.ts</title>
<g id="a_node10"><a xlink:href="packages/tonal-objects/index.ts" xlink:title="index.ts">
<path fill="#ddfeff" stroke="black" d="M81.5,-346C81.5,-346 39.5,-346 39.5,-346 36.5,-346 33.5,-343 33.5,-340 33.5,-340 33.5,-334 33.5,-334 33.5,-331 36.5,-328 39.5,-328 39.5,-328 81.5,-328 81.5,-328 84.5,-328 87.5,-331 87.5,-334 87.5,-334 87.5,-340 87.5,-340 87.5,-343 84.5,-346 81.5,-346"/>
<text text-anchor="start" x="42" y="-334.8" font-family="Helvetica,sans-Serif" font-size="9.00">index.ts</text>
</a>
</g>
</g>
<!-- packages/tonal&#45;objects/index.ts&#45;&gt;node_modules/@tonaljs/chord -->
<g id="edge2" class="edge">
<title>packages/tonal&#45;objects/index.ts&#45;&gt;node_modules/@tonaljs/chord</title>
<path fill="none" stroke="#000000" stroke-opacity="0.200000" d="M67.54,-327.88C98.59,-287.66 223.47,-125.87 261.17,-77.03"/>
<polygon fill="#000000" fill-opacity="0.200000" stroke="#000000" stroke-opacity="0.200000" points="266.6,-73.43 261.27,-76.9 263.27,-70.87 266.6,-73.43"/>
</g>
<!-- packages/tonal&#45;objects/index.ts&#45;&gt;node_modules/@tonaljs/interval -->
<g id="edge3" class="edge">
<title>packages/tonal&#45;objects/index.ts&#45;&gt;node_modules/@tonaljs/interval</title>
<path fill="none" stroke="#000000" stroke-opacity="0.200000" d="M80.78,-327.99C119.37,-310.84 203.32,-273.53 245.98,-254.56"/>
<polygon fill="#000000" fill-opacity="0.200000" stroke="#000000" stroke-opacity="0.200000" points="252.32,-254.04 245.99,-254.56 250.62,-250.2 252.32,-254.04"/>
</g>
<!-- packages/tonal&#45;objects/index.ts&#45;&gt;node_modules/@tonaljs/key -->
<g id="edge4" class="edge">
<title>packages/tonal&#45;objects/index.ts&#45;&gt;node_modules/@tonaljs/key</title>
<path fill="none" stroke="#000000" stroke-opacity="0.200000" d="M66.83,-327.9C96.93,-284.63 225.66,-99.61 262.26,-47"/>
<polygon fill="#000000" fill-opacity="0.200000" stroke="#000000" stroke-opacity="0.200000" points="267.42,-43.26 262.27,-46.99 263.97,-40.86 267.42,-43.26"/>
</g>
<!-- packages/tonal&#45;objects/index.ts&#45;&gt;node_modules/@tonaljs/note -->
<g id="edge5" class="edge">
<title>packages/tonal&#45;objects/index.ts&#45;&gt;node_modules/@tonaljs/note</title>
<path fill="none" stroke="#000000" stroke-opacity="0.200000" d="M76.05,-327.88C113.48,-305.94 208.63,-250.15 251.04,-225.29"/>
<polygon fill="#000000" fill-opacity="0.200000" stroke="#000000" stroke-opacity="0.200000" points="257.49,-223.94 251.25,-225.17 255.36,-220.32 257.49,-223.94"/>
</g>
<!-- packages/tonal&#45;objects/index.ts&#45;&gt;node_modules/@tonaljs/pitch&#45;interval -->
<g id="edge6" class="edge">
<title>packages/tonal&#45;objects/index.ts&#45;&gt;node_modules/@tonaljs/pitch&#45;interval</title>
<path fill="none" stroke="#000000" stroke-opacity="0.200000" d="M70.99,-327.88C105.59,-297.77 216.22,-201.52 256.85,-166.18"/>
<polygon fill="none" stroke="#000000" stroke-opacity="0.200000" points="258.3,-167.7 261.45,-162.18 255.54,-164.53 258.3,-167.7"/>
</g>
<!-- packages/tonal&#45;objects/index.ts&#45;&gt;node_modules/@tonaljs/pitch&#45;note -->
<g id="edge7" class="edge">
<title>packages/tonal&#45;objects/index.ts&#45;&gt;node_modules/@tonaljs/pitch&#45;note</title>
<path fill="none" stroke="#000000" stroke-opacity="0.200000" d="M73.1,-327.83C109.17,-301.56 212.94,-226 254.49,-195.75"/>
<polygon fill="none" stroke="#000000" stroke-opacity="0.200000" points="255.85,-197.35 259.47,-192.12 253.38,-193.96 255.85,-197.35"/>
</g>
<!-- packages/tonal&#45;objects/index.ts&#45;&gt;node_modules/@tonaljs/roman&#45;numeral -->
<g id="edge8" class="edge">
<title>packages/tonal&#45;objects/index.ts&#45;&gt;node_modules/@tonaljs/roman&#45;numeral</title>
<path fill="none" stroke="#000000" stroke-opacity="0.200000" d="M69.59,-327.8C102.87,-294.13 218.22,-177.42 258.21,-136.95"/>
<polygon fill="#000000" fill-opacity="0.200000" stroke="#000000" stroke-opacity="0.200000" points="264.2,-133.88 258.49,-136.67 261.21,-130.93 264.2,-133.88"/>
</g>
<!-- packages/tonal&#45;objects/index.ts&#45;&gt;node_modules/@tonaljs/scale -->
<g id="edge9" class="edge">
<title>packages/tonal&#45;objects/index.ts&#45;&gt;node_modules/@tonaljs/scale</title>
<path fill="none" stroke="#000000" stroke-opacity="0.200000" d="M68.53,-327.73C100.86,-290.43 221.58,-151.16 260.11,-106.72"/>
<polygon fill="#000000" fill-opacity="0.200000" stroke="#000000" stroke-opacity="0.200000" points="265.77,-103.39 260.25,-106.55 262.6,-100.64 265.77,-103.39"/>
</g>
<!-- packages/tonal&#45;objects/src/index.ts -->
<g id="node11" class="node">
<title>packages/tonal&#45;objects/src/index.ts</title>
<g id="a_node11"><a xlink:href="packages/tonal-objects/src/index.ts" xlink:title="index.ts">
<path fill="#ddfeff" stroke="black" d="M161,-354C161,-354 119,-354 119,-354 116,-354 113,-351 113,-348 113,-348 113,-342 113,-342 113,-339 116,-336 119,-336 119,-336 161,-336 161,-336 164,-336 167,-339 167,-342 167,-342 167,-348 167,-348 167,-351 164,-354 161,-354"/>
<text text-anchor="start" x="121.5" y="-342.8" font-family="Helvetica,sans-Serif" font-size="9.00">index.ts</text>
</a>
</g>
</g>
<!-- packages/tonal&#45;objects/index.ts&#45;&gt;packages/tonal&#45;objects/src/index.ts -->
<g id="edge1" class="edge">
<title>packages/tonal&#45;objects/index.ts&#45;&gt;packages/tonal&#45;objects/src/index.ts</title>
<path fill="none" stroke="#000000" stroke-width="2" stroke-opacity="0.200000" d="M87.74,-339.71C93.8,-340.33 100.32,-341.01 106.6,-341.66"/>
<polygon fill="#000000" fill-opacity="0.200000" stroke="#000000" stroke-width="2" stroke-opacity="0.200000" points="112.57,-344.38 106.82,-341.68 113,-340.21 112.57,-344.38"/>
</g>
<!-- packages/tonal&#45;objects/src/index.ts&#45;&gt;node_modules/@tonaljs/interval -->
<g id="edge12" class="edge">
<title>packages/tonal&#45;objects/src/index.ts&#45;&gt;node_modules/@tonaljs/interval</title>
<path fill="none" stroke="#000000" stroke-opacity="0.200000" d="M152.54,-335.95C175.61,-317.85 227.5,-277.13 254.29,-256.11"/>
<polygon fill="#000000" fill-opacity="0.200000" stroke="#000000" stroke-opacity="0.200000" points="255.88,-257.53 259.3,-252.18 253.29,-254.23 255.88,-257.53"/>
</g>
<!-- packages/tonal&#45;objects/src/index.ts&#45;&gt;node_modules/@tonaljs/note -->
<g id="edge13" class="edge">
<title>packages/tonal&#45;objects/src/index.ts&#45;&gt;node_modules/@tonaljs/note</title>
<path fill="none" stroke="#000000" stroke-opacity="0.200000" d="M149.94,-335.93C172.39,-313.13 231.25,-253.36 257.74,-226.46"/>
<polygon fill="#000000" fill-opacity="0.200000" stroke="#000000" stroke-opacity="0.200000" points="259.29,-227.88 262,-222.14 256.3,-224.94 259.29,-227.88"/>
</g>
<!-- packages/tonal&#45;objects/src/index.ts&#45;&gt;node_modules/@tonaljs/pitch&#45;note -->
<g id="edge14" class="edge">
<title>packages/tonal&#45;objects/src/index.ts&#45;&gt;node_modules/@tonaljs/pitch&#45;note</title>
<path fill="none" stroke="#000000" stroke-opacity="0.200000" d="M148.36,-335.83C170.08,-308.76 233.99,-229.12 259.9,-196.83"/>
<polygon fill="#000000" fill-opacity="0.200000" stroke="#000000" stroke-opacity="0.200000" points="261.6,-198.07 263.72,-192.07 258.33,-195.44 261.6,-198.07"/>
</g>
<!-- packages/util/stdlib/src/assertion/not&#45;null&#45;like.ts -->
<g id="node12" class="node">
<title>packages/util/stdlib/src/assertion/not&#45;null&#45;like.ts</title>
<g id="a_node12"><a xlink:href="packages/util/stdlib/src/assertion/not-null-like.ts" xlink:title="not&#45;null&#45;like.ts">
<path fill="#ddfeff" stroke="black" d="M421,-370C421,-370 353,-370 353,-370 350,-370 347,-367 347,-364 347,-364 347,-358 347,-358 347,-355 350,-352 353,-352 353,-352 421,-352 421,-352 424,-352 427,-355 427,-358 427,-358 427,-364 427,-364 427,-367 424,-370 421,-370"/>
<text text-anchor="start" x="355" y="-358.8" font-family="Helvetica,sans-Serif" font-size="9.00">not&#45;null&#45;like.ts</text>
</a>
</g>
</g>
<!-- packages/tonal&#45;objects/src/index.ts&#45;&gt;packages/util/stdlib/src/assertion/not&#45;null&#45;like.ts -->
<g id="edge10" class="edge">
<title>packages/tonal&#45;objects/src/index.ts&#45;&gt;packages/util/stdlib/src/assertion/not&#45;null&#45;like.ts</title>
<path fill="none" stroke="#000000" stroke-width="2" stroke-opacity="0.200000" d="M167.38,-346.77C209.26,-349.49 289.74,-354.7 340.78,-358.01"/>
<polygon fill="#000000" fill-opacity="0.200000" stroke="#000000" stroke-width="2" stroke-opacity="0.200000" points="340.73,-360.11 346.85,-358.4 341,-355.92 340.73,-360.11"/>
</g>
<!-- packages/util/stdlib/src/string/cast&#45;to&#45;number.ts -->
<g id="node13" class="node">
<title>packages/util/stdlib/src/string/cast&#45;to&#45;number.ts</title>
<g id="a_node13"><a xlink:href="packages/util/stdlib/src/string/cast-to-number.ts" xlink:title="cast&#45;to&#45;number.ts">
<path fill="#ddfeff" stroke="black" d="M315,-395C315,-395 229,-395 229,-395 226,-395 223,-392 223,-389 223,-389 223,-383 223,-383 223,-380 226,-377 229,-377 229,-377 315,-377 315,-377 318,-377 321,-380 321,-383 321,-383 321,-389 321,-389 321,-392 318,-395 315,-395"/>
<text text-anchor="start" x="231" y="-383.8" font-family="Helvetica,sans-Serif" font-size="9.00">cast&#45;to&#45;number.ts</text>
</a>
</g>
</g>
<!-- packages/tonal&#45;objects/src/index.ts&#45;&gt;packages/util/stdlib/src/string/cast&#45;to&#45;number.ts -->
<g id="edge11" class="edge">
<title>packages/tonal&#45;objects/src/index.ts&#45;&gt;packages/util/stdlib/src/string/cast&#45;to&#45;number.ts</title>
<path fill="none" stroke="#000000" stroke-width="2" stroke-opacity="0.200000" d="M167.31,-353.3C187.11,-359.54 214.45,-368.16 236.08,-374.99"/>
<polygon fill="#000000" fill-opacity="0.200000" stroke="#000000" stroke-width="2" stroke-opacity="0.200000" points="235.66,-377.06 242.02,-376.86 236.93,-373.05 235.66,-377.06"/>
</g>
<!-- packages/util/stdlib/src/assertion/not&#45;null.ts -->
<g id="node16" class="node">
<title>packages/util/stdlib/src/assertion/not&#45;null.ts</title>
<g id="a_node16"><a xlink:href="packages/util/stdlib/src/assertion/not-null.ts" xlink:title="not&#45;null.ts">
<path fill="#ddfeff" stroke="black" d="M511,-370C511,-370 461,-370 461,-370 458,-370 455,-367 455,-364 455,-364 455,-358 455,-358 455,-355 458,-352 461,-352 461,-352 511,-352 511,-352 514,-352 517,-355 517,-358 517,-358 517,-364 517,-364 517,-367 514,-370 511,-370"/>
<text text-anchor="start" x="463" y="-358.8" font-family="Helvetica,sans-Serif" font-size="9.00">not&#45;null.ts</text>
</a>
</g>
</g>
<!-- packages/util/stdlib/src/assertion/not&#45;null&#45;like.ts&#45;&gt;packages/util/stdlib/src/assertion/not&#45;null.ts -->
<g id="edge16" class="edge">
<title>packages/util/stdlib/src/assertion/not&#45;null&#45;like.ts&#45;&gt;packages/util/stdlib/src/assertion/not&#45;null.ts</title>
<path fill="none" stroke="#000000" stroke-width="2" stroke-opacity="0.200000" d="M427.17,-361C434.26,-361 441.62,-361 448.62,-361"/>
<polygon fill="#000000" fill-opacity="0.200000" stroke="#000000" stroke-width="2" stroke-opacity="0.200000" points="448.93,-363.1 454.93,-361 448.93,-358.9 448.93,-363.1"/>
</g>
<!-- packages/util/stdlib/src/assertion/not&#45;undefined.ts -->
<g id="node17" class="node">
<title>packages/util/stdlib/src/assertion/not&#45;undefined.ts</title>
<g id="a_node17"><a xlink:href="packages/util/stdlib/src/assertion/not-undefined.ts" xlink:title="not&#45;undefined.ts">
<path fill="#ddfeff" stroke="black" d="M526,-400C526,-400 446,-400 446,-400 443,-400 440,-397 440,-394 440,-394 440,-388 440,-388 440,-385 443,-382 446,-382 446,-382 526,-382 526,-382 529,-382 532,-385 532,-388 532,-388 532,-394 532,-394 532,-397 529,-400 526,-400"/>
<text text-anchor="start" x="448" y="-388.8" font-family="Helvetica,sans-Serif" font-size="9.00">not&#45;undefined.ts</text>
</a>
</g>
</g>
<!-- packages/util/stdlib/src/assertion/not&#45;null&#45;like.ts&#45;&gt;packages/util/stdlib/src/assertion/not&#45;undefined.ts -->
<g id="edge17" class="edge">
<title>packages/util/stdlib/src/assertion/not&#45;null&#45;like.ts&#45;&gt;packages/util/stdlib/src/assertion/not&#45;undefined.ts</title>
<path fill="none" stroke="#000000" stroke-width="2" stroke-opacity="0.200000" d="M417.1,-370C427.37,-373.18 439.02,-376.78 449.74,-380.09"/>
<polygon fill="#000000" fill-opacity="0.200000" stroke="#000000" stroke-width="2" stroke-opacity="0.200000" points="449.23,-382.14 455.58,-381.9 450.47,-378.12 449.23,-382.14"/>
</g>
<!-- packages/util/stdlib/src/assertion/not&#45;nan.ts -->
<g id="node14" class="node">
<title>packages/util/stdlib/src/assertion/not&#45;nan.ts</title>
<g id="a_node14"><a xlink:href="packages/util/stdlib/src/assertion/not-nan.ts" xlink:title="not&#45;nan.ts">
<path fill="#ddfeff" stroke="black" d="M412.5,-400C412.5,-400 361.5,-400 361.5,-400 358.5,-400 355.5,-397 355.5,-394 355.5,-394 355.5,-388 355.5,-388 355.5,-385 358.5,-382 361.5,-382 361.5,-382 412.5,-382 412.5,-382 415.5,-382 418.5,-385 418.5,-388 418.5,-388 418.5,-394 418.5,-394 418.5,-397 415.5,-400 412.5,-400"/>
<text text-anchor="start" x="363.5" y="-388.8" font-family="Helvetica,sans-Serif" font-size="9.00">not&#45;nan.ts</text>
</a>
</g>
</g>
<!-- packages/util/stdlib/src/string/cast&#45;to&#45;number.ts&#45;&gt;packages/util/stdlib/src/assertion/not&#45;nan.ts -->
<g id="edge20" class="edge">
<title>packages/util/stdlib/src/string/cast&#45;to&#45;number.ts&#45;&gt;packages/util/stdlib/src/assertion/not&#45;nan.ts</title>
<path fill="none" stroke="#000000" stroke-width="2" stroke-opacity="0.200000" d="M321.25,-388.13C330.61,-388.55 340.27,-388.98 349.19,-389.37"/>
<polygon fill="#000000" fill-opacity="0.200000" stroke="#000000" stroke-width="2" stroke-opacity="0.200000" points="349.15,-391.47 355.23,-389.64 349.33,-387.28 349.15,-391.47"/>
</g>
<!-- packages/util/stdlib/src/error/throw&#45;function.ts -->
<g id="node15" class="node">
<title>packages/util/stdlib/src/error/throw&#45;function.ts</title>
<g id="a_node15"><a xlink:href="packages/util/stdlib/src/error/throw-function.ts" xlink:title="throw&#45;function.ts">
<path fill="#ddfeff" stroke="black" d="M645,-400C645,-400 562,-400 562,-400 559,-400 556,-397 556,-394 556,-394 556,-388 556,-388 556,-385 559,-382 562,-382 562,-382 645,-382 645,-382 648,-382 651,-385 651,-388 651,-388 651,-394 651,-394 651,-397 648,-400 645,-400"/>
<text text-anchor="start" x="564" y="-388.8" font-family="Helvetica,sans-Serif" font-size="9.00">throw&#45;function.ts</text>
</a>
</g>
</g>
<!-- packages/util/stdlib/src/assertion/not&#45;nan.ts&#45;&gt;packages/util/stdlib/src/error/throw&#45;function.ts -->
<g id="edge15" class="edge">
<title>packages/util/stdlib/src/assertion/not&#45;nan.ts&#45;&gt;packages/util/stdlib/src/error/throw&#45;function.ts</title>
<path fill="none" stroke="#000000" stroke-width="2" stroke-opacity="0.200000" d="M418.95,-391C453.29,-391 508.49,-391 549.59,-391"/>
<polygon fill="#000000" fill-opacity="0.200000" stroke="#000000" stroke-width="2" stroke-opacity="0.200000" points="549.8,-393.1 555.8,-391 549.8,-388.9 549.8,-393.1"/>
</g>
<!-- packages/util/stdlib/src/assertion/not&#45;null.ts&#45;&gt;packages/util/stdlib/src/error/throw&#45;function.ts -->
<g id="edge18" class="edge">
<title>packages/util/stdlib/src/assertion/not&#45;null.ts&#45;&gt;packages/util/stdlib/src/error/throw&#45;function.ts</title>
<path fill="none" stroke="#000000" stroke-width="2" stroke-opacity="0.200000" d="M517.04,-368.8C530.61,-372.33 546.86,-376.55 561.52,-380.36"/>
<polygon fill="#000000" fill-opacity="0.200000" stroke="#000000" stroke-width="2" stroke-opacity="0.200000" points="561.36,-382.48 567.69,-381.96 562.42,-378.42 561.36,-382.48"/>
</g>
<!-- packages/util/stdlib/src/assertion/not&#45;undefined.ts&#45;&gt;packages/util/stdlib/src/error/throw&#45;function.ts -->
<g id="edge19" class="edge">
<title>packages/util/stdlib/src/assertion/not&#45;undefined.ts&#45;&gt;packages/util/stdlib/src/error/throw&#45;function.ts</title>
<path fill="none" stroke="#000000" stroke-width="2" stroke-opacity="0.200000" d="M532.32,-391C537.98,-391 543.81,-391 549.57,-391"/>
<polygon fill="#000000" fill-opacity="0.200000" stroke="#000000" stroke-width="2" stroke-opacity="0.200000" points="549.79,-393.1 555.79,-391 549.79,-388.9 549.79,-393.1"/>
</g>
</g>
</svg>
