<?xml version="1.0" encoding="UTF-8" standalone="no"?>
<!DOCTYPE svg PUBLIC "-//W3C//DTD SVG 1.1//EN"
 "http://www.w3.org/Graphics/SVG/1.1/DTD/svg11.dtd">
<!-- Generated by graphviz version 2.43.0 (0)
 -->
<!-- Title: dependency&#45;cruiser output Pages: 1 -->
<svg width="328pt" height="536pt"
 viewBox="0.00 0.00 328.00 536.00" xmlns="http://www.w3.org/2000/svg" xmlns:xlink="http://www.w3.org/1999/xlink">
<g id="graph0" class="graph" transform="scale(1 1) rotate(0) translate(4 532)">
<title>dependency&#45;cruiser output</title>
<polygon fill="white" stroke="transparent" points="-4,4 -4,-532 324,-532 324,4 -4,4"/>
<g id="clust1" class="cluster">
<title>cluster_node_modules</title>
<path fill="#ffffff" stroke="black" stroke-width="2" d="M206,-8C206,-8 300,-8 300,-8 306,-8 312,-14 312,-20 312,-20 312,-292 312,-292 312,-298 306,-304 300,-304 300,-304 206,-304 206,-304 200,-304 194,-298 194,-292 194,-292 194,-20 194,-20 194,-14 200,-8 206,-8"/>
<text text-anchor="middle" x="253" y="-292.8" font-family="Helvetica,sans-Serif" font-weight="bold" font-size="9.00">node_modules</text>
</g>
<g id="clust2" class="cluster">
<title>cluster_node_modules/@tonaljs</title>
<path fill="#ffffff" stroke="black" stroke-width="2" d="M214,-16C214,-16 292,-16 292,-16 298,-16 304,-22 304,-28 304,-28 304,-266 304,-266 304,-272 298,-278 292,-278 292,-278 214,-278 214,-278 208,-278 202,-272 202,-266 202,-266 202,-28 202,-28 202,-22 208,-16 214,-16"/>
<text text-anchor="middle" x="253" y="-266.8" font-family="Helvetica,sans-Serif" font-weight="bold" font-size="9.00">@tonaljs</text>
</g>
<g id="clust3" class="cluster">
<title>cluster_packages</title>
<path fill="#ffffff" stroke="black" stroke-width="2" d="M20,-314C20,-314 300,-314 300,-314 306,-314 312,-320 312,-326 312,-326 312,-508 312,-508 312,-514 306,-520 300,-520 300,-520 20,-520 20,-520 14,-520 8,-514 8,-508 8,-508 8,-326 8,-326 8,-320 14,-314 20,-314"/>
<text text-anchor="middle" x="160" y="-508.8" font-family="Helvetica,sans-Serif" font-weight="bold" font-size="9.00">packages</text>
</g>
<g id="clust4" class="cluster">
<title>cluster_packages/tonal&#45;objects</title>
<path fill="#ffffff" stroke="black" stroke-width="2" d="M28,-322C28,-322 174,-322 174,-322 180,-322 186,-328 186,-334 186,-334 186,-482 186,-482 186,-488 180,-494 174,-494 174,-494 28,-494 28,-494 22,-494 16,-488 16,-482 16,-482 16,-334 16,-334 16,-328 22,-322 28,-322"/>
<text text-anchor="middle" x="101" y="-482.8" font-family="Helvetica,sans-Serif" font-weight="bold" font-size="9.00">tonal&#45;objects</text>
</g>
<g id="clust5" class="cluster">
<title>cluster_packages/tonal&#45;objects/dist</title>
<path fill="#ffffff" stroke="black" stroke-width="2" d="M36,-386C36,-386 88,-386 88,-386 94,-386 100,-392 100,-398 100,-398 100,-456 100,-456 100,-462 94,-468 88,-468 88,-468 36,-468 36,-468 30,-468 24,-462 24,-456 24,-456 24,-398 24,-398 24,-392 30,-386 36,-386"/>
<text text-anchor="middle" x="62" y="-456.8" font-family="Helvetica,sans-Serif" font-weight="bold" font-size="9.00">dist</text>
</g>
<g id="clust6" class="cluster">
<title>cluster_packages/tonal&#45;objects/src</title>
<path fill="#ffffff" stroke="black" stroke-width="2" d="M120,-416C120,-416 166,-416 166,-416 172,-416 178,-422 178,-428 178,-428 178,-456 178,-456 178,-462 172,-468 166,-468 166,-468 120,-468 120,-468 114,-468 108,-462 108,-456 108,-456 108,-428 108,-428 108,-422 114,-416 120,-416"/>
<text text-anchor="middle" x="143" y="-456.8" font-family="Helvetica,sans-Serif" font-weight="bold" font-size="9.00">src</text>
</g>
<g id="clust7" class="cluster">
<title>cluster_packages/util</title>
<path fill="#ffffff" stroke="black" stroke-width="2" d="M214,-374C214,-374 292,-374 292,-374 298,-374 304,-380 304,-386 304,-386 304,-482 304,-482 304,-488 298,-494 292,-494 292,-494 214,-494 214,-494 208,-494 202,-488 202,-482 202,-482 202,-386 202,-386 202,-380 208,-374 214,-374"/>
<text text-anchor="middle" x="253" y="-482.8" font-family="Helvetica,sans-Serif" font-weight="bold" font-size="9.00">util</text>
</g>
<g id="clust8" class="cluster">
<title>cluster_packages/util/stdlib</title>
<path fill="#ffffff" stroke="black" stroke-width="2" d="M222,-382C222,-382 284,-382 284,-382 290,-382 296,-388 296,-394 296,-394 296,-456 296,-456 296,-462 290,-468 284,-468 284,-468 222,-468 222,-468 216,-468 210,-462 210,-456 210,-456 210,-394 210,-394 210,-388 216,-382 222,-382"/>
<text text-anchor="middle" x="253" y="-456.8" font-family="Helvetica,sans-Serif" font-weight="bold" font-size="9.00">stdlib</text>
</g>
<g id="clust9" class="cluster">
<title>cluster_packages/util/stdlib/dist</title>
<path fill="#ffffff" stroke="black" stroke-width="2" d="M230,-390C230,-390 276,-390 276,-390 282,-390 288,-396 288,-402 288,-402 288,-430 288,-430 288,-436 282,-442 276,-442 276,-442 230,-442 230,-442 224,-442 218,-436 218,-430 218,-430 218,-402 218,-402 218,-396 224,-390 230,-390"/>
<text text-anchor="middle" x="253" y="-430.8" font-family="Helvetica,sans-Serif" font-weight="bold" font-size="9.00">dist</text>
</g>
<!-- node_modules/@tonaljs/chord -->
<g id="node1" class="node">
<title>node_modules/@tonaljs/chord</title>
<g id="a_node1"><a xlink:href="https://www.npmjs.com/package/@tonaljs/chord" xlink:title="chord">
<polygon fill="#c40b0a" fill-opacity="0.101961" stroke="black" points="280,-72 228,-72 226,-70 226,-54 278,-54 280,-56 280,-72"/>
<polyline fill="none" stroke="black" points="278,-70 226,-70 "/>
<polyline fill="none" stroke="black" points="278,-70 278,-54 "/>
<polyline fill="none" stroke="black" points="278,-70 280,-72 "/>
<text text-anchor="start" x="239.5" y="-60.8" font-family="Helvetica,sans-Serif" font-size="9.00" fill="#c40b0a">chord</text>
</a>
</g>
</g>
<!-- node_modules/@tonaljs/interval -->
<g id="node2" class="node">
<title>node_modules/@tonaljs/interval</title>
<g id="a_node2"><a xlink:href="https://www.npmjs.com/package/@tonaljs/interval" xlink:title="interval">
<polygon fill="#c40b0a" fill-opacity="0.101961" stroke="black" points="280,-252 228,-252 226,-250 226,-234 278,-234 280,-236 280,-252"/>
<polyline fill="none" stroke="black" points="278,-250 226,-250 "/>
<polyline fill="none" stroke="black" points="278,-250 278,-234 "/>
<polyline fill="none" stroke="black" points="278,-250 280,-252 "/>
<text text-anchor="start" x="236" y="-240.8" font-family="Helvetica,sans-Serif" font-size="9.00" fill="#c40b0a">interval</text>
</a>
</g>
</g>
<!-- node_modules/@tonaljs/key -->
<g id="node3" class="node">
<title>node_modules/@tonaljs/key</title>
<g id="a_node3"><a xlink:href="https://www.npmjs.com/package/@tonaljs/key" xlink:title="key">
<polygon fill="#c40b0a" fill-opacity="0.101961" stroke="black" points="280,-162 228,-162 226,-160 226,-144 278,-144 280,-146 280,-162"/>
<polyline fill="none" stroke="black" points="278,-160 226,-160 "/>
<polyline fill="none" stroke="black" points="278,-160 278,-144 "/>
<polyline fill="none" stroke="black" points="278,-160 280,-162 "/>
<text text-anchor="start" x="245" y="-150.8" font-family="Helvetica,sans-Serif" font-size="9.00" fill="#c40b0a">key</text>
</a>
</g>
</g>
<!-- node_modules/@tonaljs/note -->
<g id="node4" class="node">
<title>node_modules/@tonaljs/note</title>
<g id="a_node4"><a xlink:href="https://www.npmjs.com/package/@tonaljs/note" xlink:title="note">
<polygon fill="#c40b0a" fill-opacity="0.101961" stroke="black" points="280,-222 228,-222 226,-220 226,-204 278,-204 280,-206 280,-222"/>
<polyline fill="none" stroke="black" points="278,-220 226,-220 "/>
<polyline fill="none" stroke="black" points="278,-220 278,-204 "/>
<polyline fill="none" stroke="black" points="278,-220 280,-222 "/>
<text text-anchor="start" x="242.5" y="-210.8" font-family="Helvetica,sans-Serif" font-size="9.00" fill="#c40b0a">note</text>
</a>
</g>
</g>
<!-- node_modules/@tonaljs/pitch&#45;interval -->
<g id="node5" class="node">
<title>node_modules/@tonaljs/pitch&#45;interval</title>
<g id="a_node5"><a xlink:href="https://www.npmjs.com/package/@tonaljs/pitch-interval" xlink:title="pitch&#45;interval">
<polygon fill="#c40b0a" fill-opacity="0.101961" stroke="black" points="291.5,-42 216.5,-42 214.5,-40 214.5,-24 289.5,-24 291.5,-26 291.5,-42"/>
<polyline fill="none" stroke="black" points="289.5,-40 214.5,-40 "/>
<polyline fill="none" stroke="black" points="289.5,-40 289.5,-24 "/>
<polyline fill="none" stroke="black" points="289.5,-40 291.5,-42 "/>
<text text-anchor="start" x="222.5" y="-30.8" font-family="Helvetica,sans-Serif" font-size="9.00" fill="#c40b0a">pitch&#45;interval</text>
</a>
</g>
</g>
<!-- node_modules/@tonaljs/pitch&#45;note -->
<g id="node6" class="node">
<title>node_modules/@tonaljs/pitch&#45;note</title>
<g id="a_node6"><a xlink:href="https://www.npmjs.com/package/@tonaljs/pitch-note" xlink:title="pitch&#45;note">
<polygon fill="#c40b0a" fill-opacity="0.101961" stroke="black" points="284.5,-192 223.5,-192 221.5,-190 221.5,-174 282.5,-174 284.5,-176 284.5,-192"/>
<polyline fill="none" stroke="black" points="282.5,-190 221.5,-190 "/>
<polyline fill="none" stroke="black" points="282.5,-190 282.5,-174 "/>
<polyline fill="none" stroke="black" points="282.5,-190 284.5,-192 "/>
<text text-anchor="start" x="229.5" y="-180.8" font-family="Helvetica,sans-Serif" font-size="9.00" fill="#c40b0a">pitch&#45;note</text>
</a>
</g>
</g>
<!-- node_modules/@tonaljs/roman&#45;numeral -->
<g id="node7" class="node">
<title>node_modules/@tonaljs/roman&#45;numeral</title>
<g id="a_node7"><a xlink:href="https://www.npmjs.com/package/@tonaljs/roman-numeral" xlink:title="roman&#45;numeral">
<polygon fill="#c40b0a" fill-opacity="0.101961" stroke="black" points="296,-132 212,-132 210,-130 210,-114 294,-114 296,-116 296,-132"/>
<polyline fill="none" stroke="black" points="294,-130 210,-130 "/>
<polyline fill="none" stroke="black" points="294,-130 294,-114 "/>
<polyline fill="none" stroke="black" points="294,-130 296,-132 "/>
<text text-anchor="start" x="218" y="-120.8" font-family="Helvetica,sans-Serif" font-size="9.00" fill="#c40b0a">roman&#45;numeral</text>
</a>
</g>
</g>
<!-- node_modules/@tonaljs/scale -->
<g id="node8" class="node">
<title>node_modules/@tonaljs/scale</title>
<g id="a_node8"><a xlink:href="https://www.npmjs.com/package/@tonaljs/scale" xlink:title="scale">
<polygon fill="#c40b0a" fill-opacity="0.101961" stroke="black" points="280,-102 228,-102 226,-100 226,-84 278,-84 280,-86 280,-102"/>
<polyline fill="none" stroke="black" points="278,-100 226,-100 "/>
<polyline fill="none" stroke="black" points="278,-100 278,-84 "/>
<polyline fill="none" stroke="black" points="278,-100 280,-102 "/>
<text text-anchor="start" x="241.5" y="-90.8" font-family="Helvetica,sans-Serif" font-size="9.00" fill="#c40b0a">scale</text>
</a>
</g>
</g>
<!-- packages/tonal&#45;objects/dist/index.js -->
<g id="node9" class="node">
<title>packages/tonal&#45;objects/dist/index.js</title>
<g id="a_node9"><a xlink:href="packages/tonal-objects/dist/index.js" xlink:title="index.js">
<path fill="#ffffcc" stroke="black" d="M83,-412C83,-412 41,-412 41,-412 38,-412 35,-409 35,-406 35,-406 35,-400 35,-400 35,-397 38,-394 41,-394 41,-394 83,-394 83,-394 86,-394 89,-397 89,-400 89,-400 89,-406 89,-406 89,-409 86,-412 83,-412"/>
<text text-anchor="start" x="44.5" y="-400.8" font-family="Helvetica,sans-Serif" font-size="9.00">index.js</text>
</a>
</g>
</g>
<!-- packages/tonal&#45;objects/dist/index.js&#45;&gt;node_modules/@tonaljs/chord -->
<g id="edge2" class="edge">
<title>packages/tonal&#45;objects/dist/index.js&#45;&gt;node_modules/@tonaljs/chord</title>
<path fill="none" stroke="#000000" stroke-opacity="0.200000" d="M89.14,-398.32C93.39,-396.41 97.27,-393.74 100,-390 119.83,-362.78 85.89,-112.41 108,-87 135.17,-55.77 186.29,-54.62 219.74,-57.88"/>
<polygon fill="#000000" fill-opacity="0.200000" stroke="#000000" stroke-opacity="0.200000" points="219.58,-59.98 225.77,-58.54 220.03,-55.8 219.58,-59.98"/>
</g>
<!-- packages/tonal&#45;objects/dist/index.js&#45;&gt;node_modules/@tonaljs/interval -->
<g id="edge3" class="edge">
<title>packages/tonal&#45;objects/dist/index.js&#45;&gt;node_modules/@tonaljs/interval</title>
<path fill="none" stroke="#000000" stroke-opacity="0.200000" d="M89.21,-394.7C92.9,-393.28 96.59,-391.7 100,-390 141.06,-369.58 152.82,-364.65 186,-333 210.4,-309.73 232.12,-276.52 243.53,-257.62"/>
<polygon fill="#000000" fill-opacity="0.200000" stroke="#000000" stroke-opacity="0.200000" points="245.47,-258.48 246.74,-252.25 241.86,-256.33 245.47,-258.48"/>
</g>
<!-- packages/tonal&#45;objects/dist/index.js&#45;&gt;node_modules/@tonaljs/key -->
<g id="edge4" class="edge">
<title>packages/tonal&#45;objects/dist/index.js&#45;&gt;node_modules/@tonaljs/key</title>
<path fill="none" stroke="#000000" stroke-opacity="0.200000" d="M89.37,-398.03C93.48,-396.15 97.26,-393.56 100,-390 113.99,-371.8 100.09,-308.55 108,-287 130.48,-225.74 140.11,-204.79 194,-168 201.61,-162.81 210.89,-159.41 219.78,-157.19"/>
<polygon fill="#000000" fill-opacity="0.200000" stroke="#000000" stroke-opacity="0.200000" points="220.45,-159.19 225.85,-155.83 219.54,-155.09 220.45,-159.19"/>
</g>
<!-- packages/tonal&#45;objects/dist/index.js&#45;&gt;node_modules/@tonaljs/note -->
<g id="edge5" class="edge">
<title>packages/tonal&#45;objects/dist/index.js&#45;&gt;node_modules/@tonaljs/note</title>
<path fill="none" stroke="#000000" stroke-opacity="0.200000" d="M89.18,-397.89C93.31,-396.02 97.15,-393.47 100,-390 115.95,-370.57 96.39,-356.3 108,-334 129.93,-291.89 162.07,-302.01 186,-261 193.61,-247.96 183.41,-238.75 194,-228 200.82,-221.07 210.4,-217.2 219.81,-215.08"/>
<polygon fill="#000000" fill-opacity="0.200000" stroke="#000000" stroke-opacity="0.200000" points="220.43,-217.1 225.94,-213.93 219.66,-212.98 220.43,-217.1"/>
</g>
<!-- packages/tonal&#45;objects/dist/index.js&#45;&gt;node_modules/@tonaljs/roman&#45;numeral -->
<g id="edge6" class="edge">
<title>packages/tonal&#45;objects/dist/index.js&#45;&gt;node_modules/@tonaljs/roman&#45;numeral</title>
<path fill="none" stroke="#000000" stroke-opacity="0.200000" d="M89.11,-398.3C93.36,-396.39 97.25,-393.73 100,-390 114.44,-370.39 93.84,-190.81 108,-171 129.56,-140.82 170.94,-129.32 203.83,-125.08"/>
<polygon fill="#000000" fill-opacity="0.200000" stroke="#000000" stroke-opacity="0.200000" points="204.15,-127.15 209.86,-124.37 203.66,-122.98 204.15,-127.15"/>
</g>
<!-- packages/tonal&#45;objects/dist/index.js&#45;&gt;node_modules/@tonaljs/scale -->
<g id="edge7" class="edge">
<title>packages/tonal&#45;objects/dist/index.js&#45;&gt;node_modules/@tonaljs/scale</title>
<path fill="none" stroke="#000000" stroke-opacity="0.200000" d="M89.13,-398.31C93.37,-396.41 97.27,-393.74 100,-390 117.39,-366.22 89.22,-147.7 108,-125 134.74,-92.68 186.22,-88.62 219.83,-89.88"/>
<polygon fill="#000000" fill-opacity="0.200000" stroke="#000000" stroke-opacity="0.200000" points="219.79,-91.99 225.88,-90.18 219.99,-87.79 219.79,-91.99"/>
</g>
<!-- packages/util/stdlib/dist/index.js -->
<g id="node10" class="node">
<title>packages/util/stdlib/dist/index.js</title>
<g id="a_node10"><a xlink:href="packages/util/stdlib/dist/index.js" xlink:title="index.js">
<path fill="#ffffcc" stroke="black" d="M274,-416C274,-416 232,-416 232,-416 229,-416 226,-413 226,-410 226,-410 226,-404 226,-404 226,-401 229,-398 232,-398 232,-398 274,-398 274,-398 277,-398 280,-401 280,-404 280,-404 280,-410 280,-410 280,-413 277,-416 274,-416"/>
<text text-anchor="start" x="235.5" y="-404.8" font-family="Helvetica,sans-Serif" font-size="9.00">index.js</text>
</a>
</g>
</g>
<!-- packages/tonal&#45;objects/dist/index.js&#45;&gt;packages/util/stdlib/dist/index.js -->
<g id="edge1" class="edge">
<title>packages/tonal&#45;objects/dist/index.js&#45;&gt;packages/util/stdlib/dist/index.js</title>
<path fill="none" stroke="#000000" stroke-width="2" stroke-opacity="0.200000" d="M89.21,-409.59C93.34,-411.67 97.17,-414.41 100,-418 114.75,-436.71 89.94,-455.46 108,-471 134.28,-493.61 153.87,-484.02 186,-471 210.72,-460.98 231.29,-436.77 242.59,-421.17"/>
<polygon fill="#000000" fill-opacity="0.200000" stroke="#000000" stroke-width="2" stroke-opacity="0.200000" points="244.33,-422.35 246.07,-416.24 240.89,-419.93 244.33,-422.35"/>
</g>
<!-- packages/tonal&#45;objects/dist/index.mjs -->
<g id="node11" class="node">
<title>packages/tonal&#45;objects/dist/index.mjs</title>
<g id="a_node11"><a xlink:href="packages/tonal-objects/dist/index.mjs" xlink:title="index.mjs">
<path fill="#ffffcc" stroke="black" d="M86,-442C86,-442 38,-442 38,-442 35,-442 32,-439 32,-436 32,-436 32,-430 32,-430 32,-427 35,-424 38,-424 38,-424 86,-424 86,-424 89,-424 92,-427 92,-430 92,-430 92,-436 92,-436 92,-439 89,-442 86,-442"/>
<text text-anchor="start" x="40" y="-430.8" font-family="Helvetica,sans-Serif" font-size="9.00">index.mjs</text>
</a>
</g>
</g>
<!-- packages/tonal&#45;objects/dist/index.mjs&#45;&gt;node_modules/@tonaljs/chord -->
<g id="edge9" class="edge">
<title>packages/tonal&#45;objects/dist/index.mjs&#45;&gt;node_modules/@tonaljs/chord</title>
<path fill="none" stroke="#000000" stroke-opacity="0.200000" d="M92.08,-425.22C95.16,-423.31 97.92,-420.95 100,-418 112.05,-400.91 102.25,-250.1 108,-230 129.35,-155.38 132.42,-125.25 194,-78 201.45,-72.29 210.85,-68.74 219.9,-66.54"/>
<polygon fill="#000000" fill-opacity="0.200000" stroke="#000000" stroke-opacity="0.200000" points="220.35,-68.59 225.78,-65.28 219.47,-64.48 220.35,-68.59"/>
</g>
<!-- packages/tonal&#45;objects/dist/index.mjs&#45;&gt;node_modules/@tonaljs/interval -->
<g id="edge10" class="edge">
<title>packages/tonal&#45;objects/dist/index.mjs&#45;&gt;node_modules/@tonaljs/interval</title>
<path fill="none" stroke="#000000" stroke-opacity="0.200000" d="M87.16,-423.91C91.49,-422.08 95.93,-420.08 100,-418 103.73,-416.09 104.23,-414.83 108,-413 141.14,-396.93 158.8,-409.84 186,-385 224.81,-349.55 242.65,-286.63 249.05,-257.97"/>
<polygon fill="#000000" fill-opacity="0.200000" stroke="#000000" stroke-opacity="0.200000" points="251.11,-258.39 250.31,-252.08 247,-257.51 251.11,-258.39"/>
</g>
<!-- packages/tonal&#45;objects/dist/index.mjs&#45;&gt;node_modules/@tonaljs/key -->
<g id="edge11" class="edge">
<title>packages/tonal&#45;objects/dist/index.mjs&#45;&gt;node_modules/@tonaljs/key</title>
<path fill="none" stroke="#000000" stroke-opacity="0.200000" d="M92.36,-424.94C95.31,-423.08 97.96,-420.8 100,-418 114.42,-398.18 93.07,-327.44 108,-308 130.35,-278.91 163.68,-310.11 186,-281 201.32,-261.02 177.89,-187.35 194,-168 200.39,-160.32 210.15,-156.29 219.86,-154.26"/>
<polygon fill="#000000" fill-opacity="0.200000" stroke="#000000" stroke-opacity="0.200000" points="220.3,-156.31 225.86,-153.23 219.59,-152.17 220.3,-156.31"/>
</g>
<!-- packages/tonal&#45;objects/dist/index.mjs&#45;&gt;node_modules/@tonaljs/note -->
<g id="edge12" class="edge">
<title>packages/tonal&#45;objects/dist/index.mjs&#45;&gt;node_modules/@tonaljs/note</title>
<path fill="none" stroke="#000000" stroke-opacity="0.200000" d="M92.26,-424.36C95.15,-422.61 97.82,-420.51 100,-418 109.61,-406.93 100.82,-398.78 108,-386 132.17,-342.99 164.98,-351.64 186,-307 193.52,-291.04 182.51,-241.39 194,-228 200.51,-220.42 210.3,-216.41 219.99,-214.37"/>
<polygon fill="#000000" fill-opacity="0.200000" stroke="#000000" stroke-opacity="0.200000" points="220.43,-216.43 225.98,-213.34 219.71,-212.29 220.43,-216.43"/>
</g>
<!-- packages/tonal&#45;objects/dist/index.mjs&#45;&gt;node_modules/@tonaljs/roman&#45;numeral -->
<g id="edge13" class="edge">
<title>packages/tonal&#45;objects/dist/index.mjs&#45;&gt;node_modules/@tonaljs/roman&#45;numeral</title>
<path fill="none" stroke="#000000" stroke-opacity="0.200000" d="M92.04,-425.18C95.13,-423.29 97.9,-420.93 100,-418 117.64,-393.4 89.72,-306.13 108,-282 130.15,-252.75 163.71,-284.14 186,-255 201.83,-234.3 177.35,-158.05 194,-138 196.88,-134.53 200.44,-131.81 204.38,-129.68"/>
<polygon fill="#000000" fill-opacity="0.200000" stroke="#000000" stroke-opacity="0.200000" points="205.37,-131.54 209.95,-127.13 203.62,-127.72 205.37,-131.54"/>
</g>
<!-- packages/tonal&#45;objects/dist/index.mjs&#45;&gt;node_modules/@tonaljs/scale -->
<g id="edge14" class="edge">
<title>packages/tonal&#45;objects/dist/index.mjs&#45;&gt;node_modules/@tonaljs/scale</title>
<path fill="none" stroke="#000000" stroke-opacity="0.200000" d="M92.06,-425.2C95.15,-423.3 97.91,-420.94 100,-418 120.87,-388.61 86.38,-284.84 108,-256 130.01,-226.65 163.75,-258.16 186,-229 202.35,-207.58 176.81,-128.75 194,-108 200.37,-100.31 210.13,-96.27 219.84,-94.24"/>
<polygon fill="#000000" fill-opacity="0.200000" stroke="#000000" stroke-opacity="0.200000" points="220.28,-96.29 225.84,-93.22 219.57,-92.15 220.28,-96.29"/>
</g>
<!-- packages/tonal&#45;objects/dist/index.mjs&#45;&gt;packages/util/stdlib/dist/index.js -->
<g id="edge8" class="edge">
<title>packages/tonal&#45;objects/dist/index.mjs&#45;&gt;packages/util/stdlib/dist/index.js</title>
<path fill="none" stroke="#000000" stroke-width="2" stroke-opacity="0.200000" d="M68.28,-442.19C75.53,-453.76 89.76,-473.1 108,-481 139.81,-494.78 154.36,-495.17 186,-481 213.1,-468.86 233.65,-439.48 244.16,-421.61"/>
<polygon fill="#000000" fill-opacity="0.200000" stroke="#000000" stroke-width="2" stroke-opacity="0.200000" points="246.2,-422.28 247.34,-416.03 242.55,-420.2 246.2,-422.28"/>
</g>
<!-- packages/tonal&#45;objects/index.test.ts -->
<g id="node12" class="node">
<title>packages/tonal&#45;objects/index.test.ts</title>
<g id="a_node12"><a xlink:href="packages/tonal-objects/index.test.ts" xlink:title="no&#45;orphans">
<path fill="#ccffcc" stroke="orange" d="M92.5,-378C92.5,-378 31.5,-378 31.5,-378 28.5,-378 25.5,-375 25.5,-372 25.5,-372 25.5,-366 25.5,-366 25.5,-363 28.5,-360 31.5,-360 31.5,-360 92.5,-360 92.5,-360 95.5,-360 98.5,-363 98.5,-366 98.5,-366 98.5,-372 98.5,-372 98.5,-375 95.5,-378 92.5,-378"/>
<text text-anchor="start" x="33.5" y="-366.8" font-family="Helvetica,sans-Serif" font-size="9.00" fill="orange">index.test.ts</text>
</a>
</g>
</g>
<!-- packages/tonal&#45;objects/index.ts -->
<g id="node13" class="node">
<title>packages/tonal&#45;objects/index.ts</title>
<g id="a_node13"><a xlink:href="packages/tonal-objects/index.ts" xlink:title="index.ts">
<path fill="#ddfeff" stroke="black" d="M83,-348C83,-348 41,-348 41,-348 38,-348 35,-345 35,-342 35,-342 35,-336 35,-336 35,-333 38,-330 41,-330 41,-330 83,-330 83,-330 86,-330 89,-333 89,-336 89,-336 89,-342 89,-342 89,-345 86,-348 83,-348"/>
<text text-anchor="start" x="43.5" y="-336.8" font-family="Helvetica,sans-Serif" font-size="9.00">index.ts</text>
</a>
</g>
</g>
<!-- packages/tonal&#45;objects/index.ts&#45;&gt;node_modules/@tonaljs/chord -->
<g id="edge16" class="edge">
<title>packages/tonal&#45;objects/index.ts&#45;&gt;node_modules/@tonaljs/chord</title>
<path fill="none" stroke="#000000" stroke-opacity="0.200000" d="M63.26,-329.77C64.64,-288.46 72.36,-121.02 108,-86 137.2,-57.31 186.98,-55.69 219.68,-58.39"/>
<polygon fill="#000000" fill-opacity="0.200000" stroke="#000000" stroke-opacity="0.200000" points="225.78,-61.07 220,-58.42 226.17,-56.89 225.78,-61.07"/>
</g>
<!-- packages/tonal&#45;objects/index.ts&#45;&gt;node_modules/@tonaljs/interval -->
<g id="edge17" class="edge">
<title>packages/tonal&#45;objects/index.ts&#45;&gt;node_modules/@tonaljs/interval</title>
<path fill="none" stroke="#000000" stroke-opacity="0.200000" d="M80.78,-329.97C115.11,-312.53 190.52,-274.23 228.76,-254.8"/>
<polygon fill="#000000" fill-opacity="0.200000" stroke="#000000" stroke-opacity="0.200000" points="235.08,-253.95 228.78,-254.79 233.18,-250.21 235.08,-253.95"/>
</g>
<!-- packages/tonal&#45;objects/index.ts&#45;&gt;node_modules/@tonaljs/key -->
<g id="edge18" class="edge">
<title>packages/tonal&#45;objects/index.ts&#45;&gt;node_modules/@tonaljs/key</title>
<path fill="none" stroke="#000000" stroke-opacity="0.200000" d="M62.77,-329.89C62.63,-303.55 66.01,-226.71 108,-187 138.01,-158.62 187.12,-152.48 219.51,-151.84"/>
<polygon fill="#000000" fill-opacity="0.200000" stroke="#000000" stroke-opacity="0.200000" points="225.77,-153.87 219.75,-151.83 225.73,-149.67 225.77,-153.87"/>
</g>
<!-- packages/tonal&#45;objects/index.ts&#45;&gt;node_modules/@tonaljs/note -->
<g id="edge19" class="edge">
<title>packages/tonal&#45;objects/index.ts&#45;&gt;node_modules/@tonaljs/note</title>
<path fill="none" stroke="#000000" stroke-opacity="0.200000" d="M67.38,-329.85C74.36,-316.06 89.15,-289.78 108,-273 140.24,-244.3 188.15,-228.08 219.72,-219.93"/>
<polygon fill="#000000" fill-opacity="0.200000" stroke="#000000" stroke-opacity="0.200000" points="226.32,-220.44 219.99,-219.86 225.3,-216.36 226.32,-220.44"/>
</g>
<!-- packages/tonal&#45;objects/index.ts&#45;&gt;node_modules/@tonaljs/pitch&#45;interval -->
<g id="edge20" class="edge">
<title>packages/tonal&#45;objects/index.ts&#45;&gt;node_modules/@tonaljs/pitch&#45;interval</title>
<path fill="none" stroke="#000000" stroke-opacity="0.200000" d="M63.05,-329.81C63.49,-285.44 67.74,-93.79 108,-54 133.86,-28.44 176.15,-24.98 208.23,-26.85"/>
<polygon fill="none" stroke="#000000" stroke-opacity="0.200000" points="208.36,-28.97 214.5,-27.29 208.66,-24.78 208.36,-28.97"/>
</g>
<!-- packages/tonal&#45;objects/index.ts&#45;&gt;node_modules/@tonaljs/pitch&#45;note -->
<g id="edge21" class="edge">
<title>packages/tonal&#45;objects/index.ts&#45;&gt;node_modules/@tonaljs/pitch&#45;note</title>
<path fill="none" stroke="#000000" stroke-opacity="0.200000" d="M64.1,-329.72C67.1,-308.47 77.38,-255.93 108,-227 137.13,-199.48 183,-189.14 215.12,-185.28"/>
<polygon fill="none" stroke="#000000" stroke-opacity="0.200000" points="215.62,-187.33 221.35,-184.59 215.16,-183.16 215.62,-187.33"/>
</g>
<!-- packages/tonal&#45;objects/index.ts&#45;&gt;node_modules/@tonaljs/roman&#45;numeral -->
<g id="edge22" class="edge">
<title>packages/tonal&#45;objects/index.ts&#45;&gt;node_modules/@tonaljs/roman&#45;numeral</title>
<path fill="none" stroke="#000000" stroke-opacity="0.200000" d="M63.89,-329.95C67.4,-295.93 81.46,-176.42 108,-151 133.17,-126.88 172.59,-120.55 203.83,-119.88"/>
<polygon fill="#000000" fill-opacity="0.200000" stroke="#000000" stroke-opacity="0.200000" points="209.98,-121.92 203.96,-119.88 209.94,-117.72 209.98,-121.92"/>
</g>
<!-- packages/tonal&#45;objects/index.ts&#45;&gt;node_modules/@tonaljs/scale -->
<g id="edge23" class="edge">
<title>packages/tonal&#45;objects/index.ts&#45;&gt;node_modules/@tonaljs/scale</title>
<path fill="none" stroke="#000000" stroke-opacity="0.200000" d="M63.52,-329.94C65.88,-292.24 76.83,-148.28 108,-118 137.35,-89.49 186.86,-86.98 219.48,-89.02"/>
<polygon fill="#000000" fill-opacity="0.200000" stroke="#000000" stroke-opacity="0.200000" points="225.62,-91.58 219.79,-89.05 225.93,-87.39 225.62,-91.58"/>
</g>
<!-- packages/tonal&#45;objects/src/index.ts -->
<g id="node14" class="node">
<title>packages/tonal&#45;objects/src/index.ts</title>
<g id="a_node14"><a xlink:href="packages/tonal-objects/src/index.ts" xlink:title="index.ts">
<path fill="#ddfeff" stroke="black" d="M164,-442C164,-442 122,-442 122,-442 119,-442 116,-439 116,-436 116,-436 116,-430 116,-430 116,-427 119,-424 122,-424 122,-424 164,-424 164,-424 167,-424 170,-427 170,-430 170,-430 170,-436 170,-436 170,-439 167,-442 164,-442"/>
<text text-anchor="start" x="124.5" y="-430.8" font-family="Helvetica,sans-Serif" font-size="9.00">index.ts</text>
</a>
</g>
</g>
<!-- packages/tonal&#45;objects/index.ts&#45;&gt;packages/tonal&#45;objects/src/index.ts -->
<g id="edge15" class="edge">
<title>packages/tonal&#45;objects/index.ts&#45;&gt;packages/tonal&#45;objects/src/index.ts</title>
<path fill="none" stroke="#000000" stroke-width="2" stroke-opacity="0.200000" d="M89.04,-346.83C92.99,-348.76 96.81,-351.12 100,-354 119.52,-371.6 131.59,-400.45 137.52,-417.99"/>
<polygon fill="#000000" fill-opacity="0.200000" stroke="#000000" stroke-width="2" stroke-opacity="0.200000" points="137.44,-424.54 137.59,-418.19 141.43,-423.25 137.44,-424.54"/>
</g>
<!-- packages/tonal&#45;objects/src/index.ts&#45;&gt;node_modules/@tonaljs/interval -->
<g id="edge25" class="edge">
<title>packages/tonal&#45;objects/src/index.ts&#45;&gt;node_modules/@tonaljs/interval</title>
<path fill="none" stroke="#000000" stroke-opacity="0.200000" d="M168.9,-423.91C175.17,-420.64 181.41,-416.39 186,-411 193.29,-402.44 190.12,-397.55 194,-387 211.56,-339.23 234.78,-283.57 245.75,-257.66"/>
<polygon fill="#000000" fill-opacity="0.200000" stroke="#000000" stroke-opacity="0.200000" points="247.73,-258.37 248.14,-252.02 243.86,-256.73 247.73,-258.37"/>
</g>
<!-- packages/tonal&#45;objects/src/index.ts&#45;&gt;node_modules/@tonaljs/note -->
<g id="edge26" class="edge">
<title>packages/tonal&#45;objects/src/index.ts&#45;&gt;node_modules/@tonaljs/note</title>
<path fill="none" stroke="#000000" stroke-opacity="0.200000" d="M155.64,-423.74C165.7,-414.96 179.6,-400.81 186,-385 192.56,-368.81 182.96,-241.53 194,-228 200.32,-220.26 210.06,-216.21 219.77,-214.18"/>
<polygon fill="#000000" fill-opacity="0.200000" stroke="#000000" stroke-opacity="0.200000" points="220.21,-216.24 225.78,-213.16 219.51,-212.1 220.21,-216.24"/>
</g>
<!-- packages/tonal&#45;objects/src/index.ts&#45;&gt;node_modules/@tonaljs/pitch&#45;note -->
<g id="edge27" class="edge">
<title>packages/tonal&#45;objects/src/index.ts&#45;&gt;node_modules/@tonaljs/pitch&#45;note</title>
<path fill="none" stroke="#000000" stroke-opacity="0.200000" d="M147.98,-423.73C156.61,-403.17 177,-351.99 186,-307 188.38,-295.09 186.22,-207.32 194,-198 199.36,-191.57 207.09,-187.7 215.16,-185.42"/>
<polygon fill="#000000" fill-opacity="0.200000" stroke="#000000" stroke-opacity="0.200000" points="216,-187.38 221.36,-183.97 215.04,-183.29 216,-187.38"/>
</g>
<!-- packages/tonal&#45;objects/src/index.ts&#45;&gt;packages/util/stdlib/dist/index.js -->
<g id="edge24" class="edge">
<title>packages/tonal&#45;objects/src/index.ts&#45;&gt;packages/util/stdlib/dist/index.js</title>
<path fill="none" stroke="#000000" stroke-width="2" stroke-opacity="0.200000" d="M170.14,-426.71C185.02,-423.12 203.79,-418.61 219.6,-414.8"/>
<polygon fill="#000000" fill-opacity="0.200000" stroke="#000000" stroke-width="2" stroke-opacity="0.200000" points="220.38,-416.77 225.72,-413.33 219.4,-412.69 220.38,-416.77"/>
</g>
</g>
</svg>
