<?xml version="1.0" encoding="UTF-8" standalone="no"?>
<!DOCTYPE svg PUBLIC "-//W3C//DTD SVG 1.1//EN"
 "http://www.w3.org/Graphics/SVG/1.1/DTD/svg11.dtd">
<!-- Generated by graphviz version 2.43.0 (0)
 -->
<!-- Title: dependency&#45;cruiser output Pages: 1 -->
<svg width="562pt" height="1228pt"
 viewBox="0.00 0.00 562.00 1228.00" xmlns="http://www.w3.org/2000/svg" xmlns:xlink="http://www.w3.org/1999/xlink">
<g id="graph0" class="graph" transform="scale(1 1) rotate(0) translate(4 1224)">
<title>dependency&#45;cruiser output</title>
<polygon fill="white" stroke="transparent" points="-4,4 -4,-1224 558,-1224 558,4 -4,4"/>
<g id="clust1" class="cluster">
<title>cluster_node_modules</title>
<path fill="#ffffff" stroke="black" stroke-width="2" d="M202,-8C202,-8 296,-8 296,-8 302,-8 308,-14 308,-20 308,-20 308,-292 308,-292 308,-298 302,-304 296,-304 296,-304 202,-304 202,-304 196,-304 190,-298 190,-292 190,-292 190,-20 190,-20 190,-14 196,-8 202,-8"/>
<text text-anchor="middle" x="249" y="-292.8" font-family="Helvetica,sans-Serif" font-weight="bold" font-size="9.00">node_modules</text>
</g>
<g id="clust2" class="cluster">
<title>cluster_node_modules/@tonaljs</title>
<path fill="#ffffff" stroke="black" stroke-width="2" d="M210,-16C210,-16 288,-16 288,-16 294,-16 300,-22 300,-28 300,-28 300,-266 300,-266 300,-272 294,-278 288,-278 288,-278 210,-278 210,-278 204,-278 198,-272 198,-266 198,-266 198,-28 198,-28 198,-22 204,-16 210,-16"/>
<text text-anchor="middle" x="249" y="-266.8" font-family="Helvetica,sans-Serif" font-weight="bold" font-size="9.00">@tonaljs</text>
</g>
<g id="clust3" class="cluster">
<title>cluster_packages</title>
<path fill="#ffffff" stroke="black" stroke-width="2" d="M20,-312C20,-312 534,-312 534,-312 540,-312 546,-318 546,-324 546,-324 546,-1200 546,-1200 546,-1206 540,-1212 534,-1212 534,-1212 20,-1212 20,-1212 14,-1212 8,-1206 8,-1200 8,-1200 8,-324 8,-324 8,-318 14,-312 20,-312"/>
<text text-anchor="middle" x="277" y="-1200.8" font-family="Helvetica,sans-Serif" font-weight="bold" font-size="9.00">packages</text>
</g>
<g id="clust4" class="cluster">
<title>cluster_packages/tonal&#45;objects</title>
<path fill="#ffffff" stroke="black" stroke-width="2" d="M28,-320C28,-320 148,-320 148,-320 154,-320 160,-326 160,-332 160,-332 160,-1174 160,-1174 160,-1180 154,-1186 148,-1186 148,-1186 28,-1186 28,-1186 22,-1186 16,-1180 16,-1174 16,-1174 16,-332 16,-332 16,-326 22,-320 28,-320"/>
<text text-anchor="middle" x="88" y="-1174.8" font-family="Helvetica,sans-Serif" font-weight="bold" font-size="9.00">tonal&#45;objects</text>
</g>
<g id="clust5" class="cluster">
<title>cluster_packages/tonal&#45;objects/src</title>
<path fill="#ffffff" stroke="black" stroke-width="2" d="M36,-354C36,-354 140,-354 140,-354 146,-354 152,-360 152,-366 152,-366 152,-1148 152,-1148 152,-1154 146,-1160 140,-1160 140,-1160 36,-1160 36,-1160 30,-1160 24,-1154 24,-1148 24,-1148 24,-366 24,-366 24,-360 30,-354 36,-354"/>
<text text-anchor="middle" x="88" y="-1148.8" font-family="Helvetica,sans-Serif" font-weight="bold" font-size="9.00">src</text>
</g>
<g id="clust6" class="cluster">
<title>cluster_packages/tonal&#45;objects/src/chord</title>
<path fill="#ffffff" stroke="black" stroke-width="2" d="M50.5,-1022C50.5,-1022 125.5,-1022 125.5,-1022 131.5,-1022 137.5,-1028 137.5,-1034 137.5,-1034 137.5,-1122 137.5,-1122 137.5,-1128 131.5,-1134 125.5,-1134 125.5,-1134 50.5,-1134 50.5,-1134 44.5,-1134 38.5,-1128 38.5,-1122 38.5,-1122 38.5,-1034 38.5,-1034 38.5,-1028 44.5,-1022 50.5,-1022"/>
<text text-anchor="start" x="73" y="-1122.8" font-family="Helvetica,sans-Serif" font-weight="bold" font-size="9.00">chord</text>
</g>
<g id="clust7" class="cluster">
<title>cluster_packages/tonal&#45;objects/src/interval</title>
<path fill="#ffffff" stroke="black" stroke-width="2" d="M44,-722C44,-722 132,-722 132,-722 138,-722 144,-728 144,-734 144,-734 144,-912 144,-912 144,-918 138,-924 132,-924 132,-924 44,-924 44,-924 38,-924 32,-918 32,-912 32,-912 32,-734 32,-734 32,-728 38,-722 44,-722"/>
<text text-anchor="start" x="68" y="-912.8" font-family="Helvetica,sans-Serif" font-weight="bold" font-size="9.00">interval</text>
</g>
<g id="clust8" class="cluster">
<title>cluster_packages/tonal&#45;objects/src/key</title>
<path fill="#ffffff" stroke="black" stroke-width="2" d="M56.5,-932C56.5,-932 119.5,-932 119.5,-932 125.5,-932 131.5,-938 131.5,-944 131.5,-944 131.5,-1002 131.5,-1002 131.5,-1008 125.5,-1014 119.5,-1014 119.5,-1014 56.5,-1014 56.5,-1014 50.5,-1014 44.5,-1008 44.5,-1002 44.5,-1002 44.5,-944 44.5,-944 44.5,-938 50.5,-932 56.5,-932"/>
<text text-anchor="start" x="78.5" y="-1002.8" font-family="Helvetica,sans-Serif" font-weight="bold" font-size="9.00">key</text>
</g>
<g id="clust9" class="cluster">
<title>cluster_packages/tonal&#45;objects/src/note</title>
<path fill="#ffffff" stroke="black" stroke-width="2" d="M54,-542C54,-542 122,-542 122,-542 128,-542 134,-548 134,-554 134,-554 134,-702 134,-702 134,-708 128,-714 122,-714 122,-714 54,-714 54,-714 48,-714 42,-708 42,-702 42,-702 42,-554 42,-554 42,-548 48,-542 54,-542"/>
<text text-anchor="start" x="76" y="-702.8" font-family="Helvetica,sans-Serif" font-weight="bold" font-size="9.00">note</text>
</g>
<g id="clust10" class="cluster">
<title>cluster_packages/tonal&#45;objects/src/roman&#45;numeral</title>
<path fill="#ffffff" stroke="black" stroke-width="2" d="M52,-482C52,-482 124,-482 124,-482 130,-482 136,-488 136,-494 136,-494 136,-522 136,-522 136,-528 130,-534 124,-534 124,-534 52,-534 52,-534 46,-534 40,-528 40,-522 40,-522 40,-494 40,-494 40,-488 46,-482 52,-482"/>
<text text-anchor="start" x="48" y="-522.8" font-family="Helvetica,sans-Serif" font-weight="bold" font-size="9.00">roman&#45;numeral</text>
</g>
<g id="clust11" class="cluster">
<title>cluster_packages/tonal&#45;objects/src/scale</title>
<path fill="#ffffff" stroke="black" stroke-width="2" d="M52.5,-362C52.5,-362 123.5,-362 123.5,-362 129.5,-362 135.5,-368 135.5,-374 135.5,-374 135.5,-462 135.5,-462 135.5,-468 129.5,-474 123.5,-474 123.5,-474 52.5,-474 52.5,-474 46.5,-474 40.5,-468 40.5,-462 40.5,-462 40.5,-374 40.5,-374 40.5,-368 46.5,-362 52.5,-362"/>
<text text-anchor="start" x="75" y="-462.8" font-family="Helvetica,sans-Serif" font-weight="bold" font-size="9.00">scale</text>
</g>
<g id="clust12" class="cluster">
<title>cluster_packages/util</title>
<path fill="#ffffff" stroke="black" stroke-width="2" d="M180,-788C180,-788 526,-788 526,-788 532,-788 538,-794 538,-800 538,-800 538,-930 538,-930 538,-936 532,-942 526,-942 526,-942 180,-942 180,-942 174,-942 168,-936 168,-930 168,-930 168,-800 168,-800 168,-794 174,-788 180,-788"/>
<text text-anchor="middle" x="353" y="-930.8" font-family="Helvetica,sans-Serif" font-weight="bold" font-size="9.00">util</text>
</g>
<g id="clust13" class="cluster">
<title>cluster_packages/util/stdlib</title>
<path fill="#ffffff" stroke="black" stroke-width="2" d="M188,-796C188,-796 518,-796 518,-796 524,-796 530,-802 530,-808 530,-808 530,-904 530,-904 530,-910 524,-916 518,-916 518,-916 188,-916 188,-916 182,-916 176,-910 176,-904 176,-904 176,-808 176,-808 176,-802 182,-796 188,-796"/>
<text text-anchor="middle" x="353" y="-904.8" font-family="Helvetica,sans-Serif" font-weight="bold" font-size="9.00">stdlib</text>
</g>
<g id="clust14" class="cluster">
<title>cluster_packages/util/stdlib/src</title>
<path fill="#ffffff" stroke="black" stroke-width="2" d="M196,-804C196,-804 510,-804 510,-804 516,-804 522,-810 522,-816 522,-816 522,-878 522,-878 522,-884 516,-890 510,-890 510,-890 196,-890 196,-890 190,-890 184,-884 184,-878 184,-878 184,-816 184,-816 184,-810 190,-804 196,-804"/>
<text text-anchor="middle" x="353" y="-878.8" font-family="Helvetica,sans-Serif" font-weight="bold" font-size="9.00">src</text>
</g>
<g id="clust15" class="cluster">
<title>cluster_packages/util/stdlib/src/assertion</title>
<path fill="#ffffff" stroke="black" stroke-width="2" d="M328,-812C328,-812 383,-812 383,-812 389,-812 395,-818 395,-824 395,-824 395,-852 395,-852 395,-858 389,-864 383,-864 383,-864 328,-864 328,-864 322,-864 316,-858 316,-852 316,-852 316,-824 316,-824 316,-818 322,-812 328,-812"/>
<text text-anchor="middle" x="355.5" y="-852.8" font-family="Helvetica,sans-Serif" font-weight="bold" font-size="9.00">assertion</text>
</g>
<g id="clust16" class="cluster">
<title>cluster_packages/util/stdlib/src/error</title>
<path fill="#ffffff" stroke="black" stroke-width="2" d="M415,-812C415,-812 502,-812 502,-812 508,-812 514,-818 514,-824 514,-824 514,-852 514,-852 514,-858 508,-864 502,-864 502,-864 415,-864 415,-864 409,-864 403,-858 403,-852 403,-852 403,-824 403,-824 403,-818 409,-812 415,-812"/>
<text text-anchor="middle" x="458.5" y="-852.8" font-family="Helvetica,sans-Serif" font-weight="bold" font-size="9.00">error</text>
</g>
<g id="clust17" class="cluster">
<title>cluster_packages/util/stdlib/src/string</title>
<path fill="#ffffff" stroke="black" stroke-width="2" d="M204,-812C204,-812 294,-812 294,-812 300,-812 306,-818 306,-824 306,-824 306,-852 306,-852 306,-858 300,-864 294,-864 294,-864 204,-864 204,-864 198,-864 192,-858 192,-852 192,-852 192,-824 192,-824 192,-818 198,-812 204,-812"/>
<text text-anchor="middle" x="249" y="-852.8" font-family="Helvetica,sans-Serif" font-weight="bold" font-size="9.00">string</text>
</g>
<!-- node_modules/@tonaljs/chord -->
<g id="node1" class="node">
<title>node_modules/@tonaljs/chord</title>
<g id="a_node1"><a xlink:href="https://www.npmjs.com/package/@tonaljs/chord" xlink:title="chord">
<polygon fill="#c40b0a" fill-opacity="0.101961" stroke="black" points="276,-252 224,-252 222,-250 222,-234 274,-234 276,-236 276,-252"/>
<polyline fill="none" stroke="black" points="274,-250 222,-250 "/>
<polyline fill="none" stroke="black" points="274,-250 274,-234 "/>
<polyline fill="none" stroke="black" points="274,-250 276,-252 "/>
<text text-anchor="start" x="235.5" y="-240.8" font-family="Helvetica,sans-Serif" font-size="9.00" fill="#c40b0a">chord</text>
</a>
</g>
</g>
<!-- node_modules/@tonaljs/interval -->
<g id="node2" class="node">
<title>node_modules/@tonaljs/interval</title>
<g id="a_node2"><a xlink:href="https://www.npmjs.com/package/@tonaljs/interval" xlink:title="interval">
<polygon fill="#c40b0a" fill-opacity="0.101961" stroke="black" points="276,-192 224,-192 222,-190 222,-174 274,-174 276,-176 276,-192"/>
<polyline fill="none" stroke="black" points="274,-190 222,-190 "/>
<polyline fill="none" stroke="black" points="274,-190 274,-174 "/>
<polyline fill="none" stroke="black" points="274,-190 276,-192 "/>
<text text-anchor="start" x="232" y="-180.8" font-family="Helvetica,sans-Serif" font-size="9.00" fill="#c40b0a">interval</text>
</a>
</g>
</g>
<!-- node_modules/@tonaljs/key -->
<g id="node3" class="node">
<title>node_modules/@tonaljs/key</title>
<g id="a_node3"><a xlink:href="https://www.npmjs.com/package/@tonaljs/key" xlink:title="key">
<polygon fill="#c40b0a" fill-opacity="0.101961" stroke="black" points="276,-222 224,-222 222,-220 222,-204 274,-204 276,-206 276,-222"/>
<polyline fill="none" stroke="black" points="274,-220 222,-220 "/>
<polyline fill="none" stroke="black" points="274,-220 274,-204 "/>
<polyline fill="none" stroke="black" points="274,-220 276,-222 "/>
<text text-anchor="start" x="241" y="-210.8" font-family="Helvetica,sans-Serif" font-size="9.00" fill="#c40b0a">key</text>
</a>
</g>
</g>
<!-- node_modules/@tonaljs/note -->
<g id="node4" class="node">
<title>node_modules/@tonaljs/note</title>
<g id="a_node4"><a xlink:href="https://www.npmjs.com/package/@tonaljs/note" xlink:title="note">
<polygon fill="#c40b0a" fill-opacity="0.101961" stroke="black" points="276,-132 224,-132 222,-130 222,-114 274,-114 276,-116 276,-132"/>
<polyline fill="none" stroke="black" points="274,-130 222,-130 "/>
<polyline fill="none" stroke="black" points="274,-130 274,-114 "/>
<polyline fill="none" stroke="black" points="274,-130 276,-132 "/>
<text text-anchor="start" x="238.5" y="-120.8" font-family="Helvetica,sans-Serif" font-size="9.00" fill="#c40b0a">note</text>
</a>
</g>
</g>
<!-- node_modules/@tonaljs/pitch&#45;interval -->
<g id="node5" class="node">
<title>node_modules/@tonaljs/pitch&#45;interval</title>
<g id="a_node5"><a xlink:href="https://www.npmjs.com/package/@tonaljs/pitch-interval" xlink:title="pitch&#45;interval">
<polygon fill="#c40b0a" fill-opacity="0.101961" stroke="black" points="287.5,-162 212.5,-162 210.5,-160 210.5,-144 285.5,-144 287.5,-146 287.5,-162"/>
<polyline fill="none" stroke="black" points="285.5,-160 210.5,-160 "/>
<polyline fill="none" stroke="black" points="285.5,-160 285.5,-144 "/>
<polyline fill="none" stroke="black" points="285.5,-160 287.5,-162 "/>
<text text-anchor="start" x="218.5" y="-150.8" font-family="Helvetica,sans-Serif" font-size="9.00" fill="#c40b0a">pitch&#45;interval</text>
</a>
</g>
</g>
<!-- node_modules/@tonaljs/pitch&#45;note -->
<g id="node6" class="node">
<title>node_modules/@tonaljs/pitch&#45;note</title>
<g id="a_node6"><a xlink:href="https://www.npmjs.com/package/@tonaljs/pitch-note" xlink:title="pitch&#45;note">
<polygon fill="#c40b0a" fill-opacity="0.101961" stroke="black" points="280.5,-102 219.5,-102 217.5,-100 217.5,-84 278.5,-84 280.5,-86 280.5,-102"/>
<polyline fill="none" stroke="black" points="278.5,-100 217.5,-100 "/>
<polyline fill="none" stroke="black" points="278.5,-100 278.5,-84 "/>
<polyline fill="none" stroke="black" points="278.5,-100 280.5,-102 "/>
<text text-anchor="start" x="225.5" y="-90.8" font-family="Helvetica,sans-Serif" font-size="9.00" fill="#c40b0a">pitch&#45;note</text>
</a>
</g>
</g>
<!-- node_modules/@tonaljs/roman&#45;numeral -->
<g id="node7" class="node">
<title>node_modules/@tonaljs/roman&#45;numeral</title>
<g id="a_node7"><a xlink:href="https://www.npmjs.com/package/@tonaljs/roman-numeral" xlink:title="roman&#45;numeral">
<polygon fill="#c40b0a" fill-opacity="0.101961" stroke="black" points="292,-72 208,-72 206,-70 206,-54 290,-54 292,-56 292,-72"/>
<polyline fill="none" stroke="black" points="290,-70 206,-70 "/>
<polyline fill="none" stroke="black" points="290,-70 290,-54 "/>
<polyline fill="none" stroke="black" points="290,-70 292,-72 "/>
<text text-anchor="start" x="214" y="-60.8" font-family="Helvetica,sans-Serif" font-size="9.00" fill="#c40b0a">roman&#45;numeral</text>
</a>
</g>
</g>
<!-- node_modules/@tonaljs/scale -->
<g id="node8" class="node">
<title>node_modules/@tonaljs/scale</title>
<g id="a_node8"><a xlink:href="https://www.npmjs.com/package/@tonaljs/scale" xlink:title="scale">
<polygon fill="#c40b0a" fill-opacity="0.101961" stroke="black" points="276,-42 224,-42 222,-40 222,-24 274,-24 276,-26 276,-42"/>
<polyline fill="none" stroke="black" points="274,-40 222,-40 "/>
<polyline fill="none" stroke="black" points="274,-40 274,-24 "/>
<polyline fill="none" stroke="black" points="274,-40 276,-42 "/>
<text text-anchor="start" x="237.5" y="-30.8" font-family="Helvetica,sans-Serif" font-size="9.00" fill="#c40b0a">scale</text>
</a>
</g>
</g>
<!-- packages/tonal&#45;objects/index.test.ts -->
<g id="node9" class="node">
<title>packages/tonal&#45;objects/index.test.ts</title>
<g id="a_node9"><a xlink:href="packages/tonal-objects/index.test.ts" xlink:title="no&#45;orphans">
<path fill="#ccffcc" stroke="orange" d="M118.5,-346C118.5,-346 57.5,-346 57.5,-346 54.5,-346 51.5,-343 51.5,-340 51.5,-340 51.5,-334 51.5,-334 51.5,-331 54.5,-328 57.5,-328 57.5,-328 118.5,-328 118.5,-328 121.5,-328 124.5,-331 124.5,-334 124.5,-334 124.5,-340 124.5,-340 124.5,-343 121.5,-346 118.5,-346"/>
<text text-anchor="start" x="59.5" y="-334.8" font-family="Helvetica,sans-Serif" font-size="9.00" fill="orange">index.test.ts</text>
</a>
</g>
</g>
<!-- packages/tonal&#45;objects/src/chord/chord&#45;name.ts -->
<g id="node10" class="node">
<title>packages/tonal&#45;objects/src/chord/chord&#45;name.ts</title>
<g id="a_node10"><a xlink:href="packages/tonal-objects/src/chord/chord-name.ts" xlink:title="no&#45;orphans">
<path fill="#ccffcc" stroke="orange" d="M123.5,-1108C123.5,-1108 52.5,-1108 52.5,-1108 49.5,-1108 46.5,-1105 46.5,-1102 46.5,-1102 46.5,-1096 46.5,-1096 46.5,-1093 49.5,-1090 52.5,-1090 52.5,-1090 123.5,-1090 123.5,-1090 126.5,-1090 129.5,-1093 129.5,-1096 129.5,-1096 129.5,-1102 129.5,-1102 129.5,-1105 126.5,-1108 123.5,-1108"/>
<text text-anchor="start" x="54.5" y="-1096.8" font-family="Helvetica,sans-Serif" font-size="9.00" fill="orange">chord&#45;name.ts</text>
</a>
</g>
</g>
<!-- packages/tonal&#45;objects/src/chord/chord.ts -->
<g id="node11" class="node">
<title>packages/tonal&#45;objects/src/chord/chord.ts</title>
<g id="a_node11"><a xlink:href="packages/tonal-objects/src/chord/chord.ts" xlink:title="chord.ts">
<path fill="#ddfeff" stroke="black" d="M109,-1078C109,-1078 67,-1078 67,-1078 64,-1078 61,-1075 61,-1072 61,-1072 61,-1066 61,-1066 61,-1063 64,-1060 67,-1060 67,-1060 109,-1060 109,-1060 112,-1060 115,-1063 115,-1066 115,-1066 115,-1072 115,-1072 115,-1075 112,-1078 109,-1078"/>
<text text-anchor="start" x="69" y="-1066.8" font-family="Helvetica,sans-Serif" font-size="9.00">chord.ts</text>
</a>
</g>
</g>
<!-- packages/tonal&#45;objects/src/chord/chord.ts&#45;&gt;node_modules/@tonaljs/chord -->
<g id="edge1" class="edge">
<title>packages/tonal&#45;objects/src/chord/chord.ts&#45;&gt;node_modules/@tonaljs/chord</title>
<path fill="none" stroke="#000000" stroke-opacity="0.200000" d="M90.79,-1059.72C106.74,-976.82 224.75,-363.79 245.04,-258.4"/>
<polygon fill="none" stroke="#000000" stroke-opacity="0.200000" points="247.16,-258.49 246.23,-252.21 243.03,-257.7 247.16,-258.49"/>
</g>
<!-- packages/tonal&#45;objects/src/chord/get.ts -->
<g id="node12" class="node">
<title>packages/tonal&#45;objects/src/chord/get.ts</title>
<g id="a_node12"><a xlink:href="packages/tonal-objects/src/chord/get.ts" xlink:title="get.ts">
<path fill="#ddfeff" stroke="black" d="M109,-1048C109,-1048 67,-1048 67,-1048 64,-1048 61,-1045 61,-1042 61,-1042 61,-1036 61,-1036 61,-1033 64,-1030 67,-1030 67,-1030 109,-1030 109,-1030 112,-1030 115,-1033 115,-1036 115,-1036 115,-1042 115,-1042 115,-1045 112,-1048 109,-1048"/>
<text text-anchor="start" x="74.5" y="-1036.8" font-family="Helvetica,sans-Serif" font-size="9.00">get.ts</text>
</a>
</g>
</g>
<!-- packages/tonal&#45;objects/src/chord/get.ts&#45;&gt;node_modules/@tonaljs/chord -->
<g id="edge2" class="edge">
<title>packages/tonal&#45;objects/src/chord/get.ts&#45;&gt;node_modules/@tonaljs/chord</title>
<path fill="none" stroke="#000000" stroke-opacity="0.200000" d="M90.84,-1029.79C107,-948.9 224.55,-360.41 244.98,-258.13"/>
<polygon fill="#000000" fill-opacity="0.200000" stroke="#000000" stroke-opacity="0.200000" points="248.24,-252.52 245,-257.99 244.12,-251.7 248.24,-252.52"/>
</g>
<!-- packages/tonal&#45;objects/src/interval/get.ts -->
<g id="node13" class="node">
<title>packages/tonal&#45;objects/src/interval/get.ts</title>
<g id="a_node13"><a xlink:href="packages/tonal-objects/src/interval/get.ts" xlink:title="get.ts">
<path fill="#ddfeff" stroke="black" d="M109,-898C109,-898 67,-898 67,-898 64,-898 61,-895 61,-892 61,-892 61,-886 61,-886 61,-883 64,-880 67,-880 67,-880 109,-880 109,-880 112,-880 115,-883 115,-886 115,-886 115,-892 115,-892 115,-895 112,-898 109,-898"/>
<text text-anchor="start" x="74.5" y="-886.8" font-family="Helvetica,sans-Serif" font-size="9.00">get.ts</text>
</a>
</g>
</g>
<!-- packages/tonal&#45;objects/src/interval/get.ts&#45;&gt;node_modules/@tonaljs/interval -->
<g id="edge3" class="edge">
<title>packages/tonal&#45;objects/src/interval/get.ts&#45;&gt;node_modules/@tonaljs/interval</title>
<path fill="none" stroke="#000000" stroke-opacity="0.200000" d="M91.07,-879.82C107.97,-804.77 223.29,-292.74 244.61,-198.04"/>
<polygon fill="#000000" fill-opacity="0.200000" stroke="#000000" stroke-opacity="0.200000" points="247.98,-192.65 244.61,-198.04 243.88,-191.73 247.98,-192.65"/>
</g>
<!-- packages/tonal&#45;objects/src/interval/interval&#45;degree.ts -->
<g id="node14" class="node">
<title>packages/tonal&#45;objects/src/interval/interval&#45;degree.ts</title>
<g id="a_node14"><a xlink:href="packages/tonal-objects/src/interval/interval-degree.ts" xlink:title="interval&#45;degree.ts">
<path fill="#ddfeff" stroke="black" d="M130,-838C130,-838 46,-838 46,-838 43,-838 40,-835 40,-832 40,-832 40,-826 40,-826 40,-823 43,-820 46,-820 46,-820 130,-820 130,-820 133,-820 136,-823 136,-826 136,-826 136,-832 136,-832 136,-835 133,-838 130,-838"/>
<text text-anchor="start" x="48" y="-826.8" font-family="Helvetica,sans-Serif" font-size="9.00">interval&#45;degree.ts</text>
</a>
</g>
</g>
<!-- packages/tonal&#45;objects/src/interval/interval&#45;degree.ts&#45;&gt;node_modules/@tonaljs/interval -->
<g id="edge5" class="edge">
<title>packages/tonal&#45;objects/src/interval/interval&#45;degree.ts&#45;&gt;node_modules/@tonaljs/interval</title>
<path fill="none" stroke="#000000" stroke-opacity="0.200000" d="M91.25,-819.87C108.67,-749.1 222.02,-288.57 244.23,-198.33"/>
<polygon fill="#000000" fill-opacity="0.200000" stroke="#000000" stroke-opacity="0.200000" points="246.33,-198.59 245.72,-192.26 242.25,-197.58 246.33,-198.59"/>
</g>
<!-- packages/tonal&#45;objects/src/interval/interval&#45;degree.ts&#45;&gt;node_modules/@tonaljs/pitch&#45;note -->
<g id="edge6" class="edge">
<title>packages/tonal&#45;objects/src/interval/interval&#45;degree.ts&#45;&gt;node_modules/@tonaljs/pitch&#45;note</title>
<path fill="none" stroke="#000000" stroke-opacity="0.200000" d="M90.95,-819.96C107.47,-743.51 223.67,-205.6 244.73,-108.13"/>
<polygon fill="#000000" fill-opacity="0.200000" stroke="#000000" stroke-opacity="0.200000" points="246.82,-108.42 246.03,-102.12 242.71,-107.54 246.82,-108.42"/>
</g>
<!-- packages/util/stdlib/src/string/cast&#45;to&#45;number.ts -->
<g id="node15" class="node">
<title>packages/util/stdlib/src/string/cast&#45;to&#45;number.ts</title>
<g id="a_node15"><a xlink:href="packages/util/stdlib/src/string/cast-to-number.ts" xlink:title="cast&#45;to&#45;number.ts">
<path fill="#ddfeff" stroke="black" d="M292,-838C292,-838 206,-838 206,-838 203,-838 200,-835 200,-832 200,-832 200,-826 200,-826 200,-823 203,-820 206,-820 206,-820 292,-820 292,-820 295,-820 298,-823 298,-826 298,-826 298,-832 298,-832 298,-835 295,-838 292,-838"/>
<text text-anchor="start" x="208" y="-826.8" font-family="Helvetica,sans-Serif" font-size="9.00">cast&#45;to&#45;number.ts</text>
</a>
</g>
</g>
<!-- packages/tonal&#45;objects/src/interval/interval&#45;degree.ts&#45;&gt;packages/util/stdlib/src/string/cast&#45;to&#45;number.ts -->
<g id="edge4" class="edge">
<title>packages/tonal&#45;objects/src/interval/interval&#45;degree.ts&#45;&gt;packages/util/stdlib/src/string/cast&#45;to&#45;number.ts</title>
<path fill="none" stroke="#000000" stroke-width="2" stroke-opacity="0.200000" d="M136.27,-829C154.29,-829 174.95,-829 193.58,-829"/>
<polygon fill="#000000" fill-opacity="0.200000" stroke="#000000" stroke-width="2" stroke-opacity="0.200000" points="193.81,-831.1 199.81,-829 193.81,-826.9 193.81,-831.1"/>
</g>
<!-- packages/util/stdlib/src/assertion/not&#45;nan.ts -->
<g id="node31" class="node">
<title>packages/util/stdlib/src/assertion/not&#45;nan.ts</title>
<g id="a_node31"><a xlink:href="packages/util/stdlib/src/assertion/not-nan.ts" xlink:title="not&#45;nan.ts">
<path fill="#ddfeff" stroke="black" d="M381,-838C381,-838 330,-838 330,-838 327,-838 324,-835 324,-832 324,-832 324,-826 324,-826 324,-823 327,-820 330,-820 330,-820 381,-820 381,-820 384,-820 387,-823 387,-826 387,-826 387,-832 387,-832 387,-835 384,-838 381,-838"/>
<text text-anchor="start" x="332" y="-826.8" font-family="Helvetica,sans-Serif" font-size="9.00">not&#45;nan.ts</text>
</a>
</g>
</g>
<!-- packages/util/stdlib/src/string/cast&#45;to&#45;number.ts&#45;&gt;packages/util/stdlib/src/assertion/not&#45;nan.ts -->
<g id="edge22" class="edge">
<title>packages/util/stdlib/src/string/cast&#45;to&#45;number.ts&#45;&gt;packages/util/stdlib/src/assertion/not&#45;nan.ts</title>
<path fill="none" stroke="#000000" stroke-width="2" stroke-opacity="0.200000" d="M298.27,-829C304.77,-829 311.35,-829 317.61,-829"/>
<polygon fill="#000000" fill-opacity="0.200000" stroke="#000000" stroke-width="2" stroke-opacity="0.200000" points="317.74,-831.1 323.74,-829 317.74,-826.9 317.74,-831.1"/>
</g>
<!-- packages/tonal&#45;objects/src/interval/interval&#45;literal.ts -->
<g id="node16" class="node">
<title>packages/tonal&#45;objects/src/interval/interval&#45;literal.ts</title>
<g id="a_node16"><a xlink:href="packages/tonal-objects/src/interval/interval-literal.ts" xlink:title="interval&#45;literal.ts">
<path fill="#ddfeff" stroke="black" d="M126.5,-748C126.5,-748 49.5,-748 49.5,-748 46.5,-748 43.5,-745 43.5,-742 43.5,-742 43.5,-736 43.5,-736 43.5,-733 46.5,-730 49.5,-730 49.5,-730 126.5,-730 126.5,-730 129.5,-730 132.5,-733 132.5,-736 132.5,-736 132.5,-742 132.5,-742 132.5,-745 129.5,-748 126.5,-748"/>
<text text-anchor="start" x="51.5" y="-736.8" font-family="Helvetica,sans-Serif" font-size="9.00">interval&#45;literal.ts</text>
</a>
</g>
</g>
<!-- packages/tonal&#45;objects/src/interval/interval&#45;literal.ts&#45;&gt;node_modules/@tonaljs/pitch&#45;interval -->
<g id="edge7" class="edge">
<title>packages/tonal&#45;objects/src/interval/interval&#45;literal.ts&#45;&gt;node_modules/@tonaljs/pitch&#45;interval</title>
<path fill="none" stroke="#000000" stroke-opacity="0.200000" d="M91.5,-729.8C109.63,-662.95 221.05,-252.32 243.91,-168.09"/>
<polygon fill="none" stroke="#000000" stroke-opacity="0.200000" points="245.96,-168.52 245.51,-162.18 241.91,-167.43 245.96,-168.52"/>
</g>
<!-- packages/tonal&#45;objects/src/interval/interval&#45;name.ts -->
<g id="node17" class="node">
<title>packages/tonal&#45;objects/src/interval/interval&#45;name.ts</title>
<g id="a_node17"><a xlink:href="packages/tonal-objects/src/interval/interval-name.ts" xlink:title="interval&#45;name.ts">
<path fill="#ddfeff" stroke="black" d="M127,-808C127,-808 49,-808 49,-808 46,-808 43,-805 43,-802 43,-802 43,-796 43,-796 43,-793 46,-790 49,-790 49,-790 127,-790 127,-790 130,-790 133,-793 133,-796 133,-796 133,-802 133,-802 133,-805 130,-808 127,-808"/>
<text text-anchor="start" x="51" y="-796.8" font-family="Helvetica,sans-Serif" font-size="9.00">interval&#45;name.ts</text>
</a>
</g>
</g>
<!-- packages/tonal&#45;objects/src/interval/interval&#45;name.ts&#45;&gt;node_modules/@tonaljs/pitch&#45;interval -->
<g id="edge8" class="edge">
<title>packages/tonal&#45;objects/src/interval/interval&#45;name.ts&#45;&gt;node_modules/@tonaljs/pitch&#45;interval</title>
<path fill="none" stroke="#000000" stroke-opacity="0.200000" d="M91.25,-789.87C108.67,-719.1 222.02,-258.57 244.23,-168.33"/>
<polygon fill="none" stroke="#000000" stroke-opacity="0.200000" points="246.33,-168.59 245.72,-162.26 242.25,-167.58 246.33,-168.59"/>
</g>
<!-- packages/tonal&#45;objects/src/interval/interval.ts -->
<g id="node18" class="node">
<title>packages/tonal&#45;objects/src/interval/interval.ts</title>
<g id="a_node18"><a xlink:href="packages/tonal-objects/src/interval/interval.ts" xlink:title="interval.ts">
<path fill="#ddfeff" stroke="black" d="M113,-778C113,-778 63,-778 63,-778 60,-778 57,-775 57,-772 57,-772 57,-766 57,-766 57,-763 60,-760 63,-760 63,-760 113,-760 113,-760 116,-760 119,-763 119,-766 119,-766 119,-772 119,-772 119,-775 116,-778 113,-778"/>
<text text-anchor="start" x="65" y="-766.8" font-family="Helvetica,sans-Serif" font-size="9.00">interval.ts</text>
</a>
</g>
</g>
<!-- packages/tonal&#45;objects/src/interval/interval.ts&#45;&gt;node_modules/@tonaljs/pitch&#45;interval -->
<g id="edge9" class="edge">
<title>packages/tonal&#45;objects/src/interval/interval.ts&#45;&gt;node_modules/@tonaljs/pitch&#45;interval</title>
<path fill="none" stroke="#000000" stroke-opacity="0.200000" d="M91.37,-759.81C109.16,-690.9 221.64,-255.11 244.1,-168.1"/>
<polygon fill="none" stroke="#000000" stroke-opacity="0.200000" points="246.15,-168.57 245.62,-162.24 242.08,-167.52 246.15,-168.57"/>
</g>
<!-- packages/tonal&#45;objects/src/interval/semitones.ts -->
<g id="node19" class="node">
<title>packages/tonal&#45;objects/src/interval/semitones.ts</title>
<g id="a_node19"><a xlink:href="packages/tonal-objects/src/interval/semitones.ts" xlink:title="semitones.ts">
<path fill="#ddfeff" stroke="black" d="M119,-868C119,-868 57,-868 57,-868 54,-868 51,-865 51,-862 51,-862 51,-856 51,-856 51,-853 54,-850 57,-850 57,-850 119,-850 119,-850 122,-850 125,-853 125,-856 125,-856 125,-862 125,-862 125,-865 122,-868 119,-868"/>
<text text-anchor="start" x="59" y="-856.8" font-family="Helvetica,sans-Serif" font-size="9.00">semitones.ts</text>
</a>
</g>
</g>
<!-- packages/tonal&#45;objects/src/interval/semitones.ts&#45;&gt;node_modules/@tonaljs/interval -->
<g id="edge10" class="edge">
<title>packages/tonal&#45;objects/src/interval/semitones.ts&#45;&gt;node_modules/@tonaljs/interval</title>
<path fill="none" stroke="#000000" stroke-opacity="0.200000" d="M91.13,-849.96C108.19,-777.43 222.62,-290.9 244.42,-198.23"/>
<polygon fill="#000000" fill-opacity="0.200000" stroke="#000000" stroke-opacity="0.200000" points="247.87,-192.73 244.45,-198.09 243.78,-191.77 247.87,-192.73"/>
</g>
<!-- packages/tonal&#45;objects/src/key/major&#45;key.ts -->
<g id="node20" class="node">
<title>packages/tonal&#45;objects/src/key/major&#45;key.ts</title>
<g id="a_node20"><a xlink:href="packages/tonal-objects/src/key/major-key.ts" xlink:title="major&#45;key.ts">
<path fill="#ddfeff" stroke="black" d="M117,-988C117,-988 59,-988 59,-988 56,-988 53,-985 53,-982 53,-982 53,-976 53,-976 53,-973 56,-970 59,-970 59,-970 117,-970 117,-970 120,-970 123,-973 123,-976 123,-976 123,-982 123,-982 123,-985 120,-988 117,-988"/>
<text text-anchor="start" x="61" y="-976.8" font-family="Helvetica,sans-Serif" font-size="9.00">major&#45;key.ts</text>
</a>
</g>
</g>
<!-- packages/tonal&#45;objects/src/key/major&#45;key.ts&#45;&gt;node_modules/@tonaljs/key -->
<g id="edge11" class="edge">
<title>packages/tonal&#45;objects/src/key/major&#45;key.ts&#45;&gt;node_modules/@tonaljs/key</title>
<path fill="none" stroke="#000000" stroke-opacity="0.200000" d="M90.9,-969.86C107.22,-891.24 223.86,-329.3 244.79,-228.47"/>
<polygon fill="#000000" fill-opacity="0.200000" stroke="#000000" stroke-opacity="0.200000" points="248.08,-222.93 244.81,-228.38 243.97,-222.08 248.08,-222.93"/>
</g>
<!-- packages/tonal&#45;objects/src/key/minor&#45;key.ts -->
<g id="node21" class="node">
<title>packages/tonal&#45;objects/src/key/minor&#45;key.ts</title>
<g id="a_node21"><a xlink:href="packages/tonal-objects/src/key/minor-key.ts" xlink:title="minor&#45;key.ts">
<path fill="#ddfeff" stroke="black" d="M117.5,-958C117.5,-958 58.5,-958 58.5,-958 55.5,-958 52.5,-955 52.5,-952 52.5,-952 52.5,-946 52.5,-946 52.5,-943 55.5,-940 58.5,-940 58.5,-940 117.5,-940 117.5,-940 120.5,-940 123.5,-943 123.5,-946 123.5,-946 123.5,-952 123.5,-952 123.5,-955 120.5,-958 117.5,-958"/>
<text text-anchor="start" x="60.5" y="-946.8" font-family="Helvetica,sans-Serif" font-size="9.00">minor&#45;key.ts</text>
</a>
</g>
</g>
<!-- packages/tonal&#45;objects/src/key/minor&#45;key.ts&#45;&gt;node_modules/@tonaljs/key -->
<g id="edge12" class="edge">
<title>packages/tonal&#45;objects/src/key/minor&#45;key.ts&#45;&gt;node_modules/@tonaljs/key</title>
<path fill="none" stroke="#000000" stroke-opacity="0.200000" d="M90.95,-939.96C107.47,-863.51 223.67,-325.6 244.73,-228.13"/>
<polygon fill="#000000" fill-opacity="0.200000" stroke="#000000" stroke-opacity="0.200000" points="248.08,-222.56 244.76,-227.98 243.98,-221.67 248.08,-222.56"/>
</g>
<!-- packages/tonal&#45;objects/src/note/chroma.ts -->
<g id="node22" class="node">
<title>packages/tonal&#45;objects/src/note/chroma.ts</title>
<g id="a_node22"><a xlink:href="packages/tonal-objects/src/note/chroma.ts" xlink:title="chroma.ts">
<path fill="#ddfeff" stroke="black" d="M113,-658C113,-658 63,-658 63,-658 60,-658 57,-655 57,-652 57,-652 57,-646 57,-646 57,-643 60,-640 63,-640 63,-640 113,-640 113,-640 116,-640 119,-643 119,-646 119,-646 119,-652 119,-652 119,-655 116,-658 113,-658"/>
<text text-anchor="start" x="65" y="-646.8" font-family="Helvetica,sans-Serif" font-size="9.00">chroma.ts</text>
</a>
</g>
</g>
<!-- packages/tonal&#45;objects/src/note/chroma.ts&#45;&gt;node_modules/@tonaljs/note -->
<g id="edge13" class="edge">
<title>packages/tonal&#45;objects/src/note/chroma.ts&#45;&gt;node_modules/@tonaljs/note</title>
<path fill="none" stroke="#000000" stroke-opacity="0.200000" d="M91.76,-639.87C110.53,-577.77 219.42,-217.54 243.35,-138.38"/>
<polygon fill="#000000" fill-opacity="0.200000" stroke="#000000" stroke-opacity="0.200000" points="247.17,-132.99 243.43,-138.12 243.15,-131.77 247.17,-132.99"/>
</g>
<!-- packages/tonal&#45;objects/src/note/from&#45;midi.ts -->
<g id="node23" class="node">
<title>packages/tonal&#45;objects/src/note/from&#45;midi.ts</title>
<g id="a_node23"><a xlink:href="packages/tonal-objects/src/note/from-midi.ts" xlink:title="from&#45;midi.ts">
<path fill="#ddfeff" stroke="black" d="M117.5,-628C117.5,-628 58.5,-628 58.5,-628 55.5,-628 52.5,-625 52.5,-622 52.5,-622 52.5,-616 52.5,-616 52.5,-613 55.5,-610 58.5,-610 58.5,-610 117.5,-610 117.5,-610 120.5,-610 123.5,-613 123.5,-616 123.5,-616 123.5,-622 123.5,-622 123.5,-625 120.5,-628 117.5,-628"/>
<text text-anchor="start" x="60.5" y="-616.8" font-family="Helvetica,sans-Serif" font-size="9.00">from&#45;midi.ts</text>
</a>
</g>
</g>
<!-- packages/tonal&#45;objects/src/note/from&#45;midi.ts&#45;&gt;node_modules/@tonaljs/note -->
<g id="edge14" class="edge">
<title>packages/tonal&#45;objects/src/note/from&#45;midi.ts&#45;&gt;node_modules/@tonaljs/note</title>
<path fill="none" stroke="#000000" stroke-opacity="0.200000" d="M91.9,-609.97C111.01,-550.33 219.07,-213.23 243.22,-137.92"/>
<polygon fill="#000000" fill-opacity="0.200000" stroke="#000000" stroke-opacity="0.200000" points="247.05,-132.84 243.22,-137.92 243.05,-131.56 247.05,-132.84"/>
</g>
<!-- packages/tonal&#45;objects/src/note/get.ts -->
<g id="node24" class="node">
<title>packages/tonal&#45;objects/src/note/get.ts</title>
<g id="a_node24"><a xlink:href="packages/tonal-objects/src/note/get.ts" xlink:title="get.ts">
<path fill="#ddfeff" stroke="black" d="M109,-688C109,-688 67,-688 67,-688 64,-688 61,-685 61,-682 61,-682 61,-676 61,-676 61,-673 64,-670 67,-670 67,-670 109,-670 109,-670 112,-670 115,-673 115,-676 115,-676 115,-682 115,-682 115,-685 112,-688 109,-688"/>
<text text-anchor="start" x="74.5" y="-676.8" font-family="Helvetica,sans-Serif" font-size="9.00">get.ts</text>
</a>
</g>
</g>
<!-- packages/tonal&#45;objects/src/note/get.ts&#45;&gt;node_modules/@tonaljs/note -->
<g id="edge15" class="edge">
<title>packages/tonal&#45;objects/src/note/get.ts&#45;&gt;node_modules/@tonaljs/note</title>
<path fill="none" stroke="#000000" stroke-opacity="0.200000" d="M91.63,-669.81C110.09,-605.27 220.24,-220.06 243.64,-138.26"/>
<polygon fill="#000000" fill-opacity="0.200000" stroke="#000000" stroke-opacity="0.200000" points="247.42,-132.67 243.75,-137.86 243.38,-131.52 247.42,-132.67"/>
</g>
<!-- packages/tonal&#45;objects/src/note/note&#45;literal.ts -->
<g id="node25" class="node">
<title>packages/tonal&#45;objects/src/note/note&#45;literal.ts</title>
<g id="a_node25"><a xlink:href="packages/tonal-objects/src/note/note-literal.ts" xlink:title="note&#45;literal.ts">
<path fill="#ddfeff" stroke="black" d="M120,-598C120,-598 56,-598 56,-598 53,-598 50,-595 50,-592 50,-592 50,-586 50,-586 50,-583 53,-580 56,-580 56,-580 120,-580 120,-580 123,-580 126,-583 126,-586 126,-586 126,-592 126,-592 126,-595 123,-598 120,-598"/>
<text text-anchor="start" x="58" y="-586.8" font-family="Helvetica,sans-Serif" font-size="9.00">note&#45;literal.ts</text>
</a>
</g>
</g>
<!-- packages/tonal&#45;objects/src/note/note&#45;literal.ts&#45;&gt;node_modules/@tonaljs/pitch&#45;note -->
<g id="edge16" class="edge">
<title>packages/tonal&#45;objects/src/note/note&#45;literal.ts&#45;&gt;node_modules/@tonaljs/pitch&#45;note</title>
<path fill="none" stroke="#000000" stroke-opacity="0.200000" d="M91.9,-579.97C111.01,-520.33 219.07,-183.23 243.22,-107.92"/>
<polygon fill="none" stroke="#000000" stroke-opacity="0.200000" points="245.22,-108.56 245.05,-102.2 241.22,-107.28 245.22,-108.56"/>
</g>
<!-- packages/tonal&#45;objects/src/note/note.ts -->
<g id="node26" class="node">
<title>packages/tonal&#45;objects/src/note/note.ts</title>
<g id="a_node26"><a xlink:href="packages/tonal-objects/src/note/note.ts" xlink:title="note.ts">
<path fill="#ddfeff" stroke="black" d="M109,-568C109,-568 67,-568 67,-568 64,-568 61,-565 61,-562 61,-562 61,-556 61,-556 61,-553 64,-550 67,-550 67,-550 109,-550 109,-550 112,-550 115,-553 115,-556 115,-556 115,-562 115,-562 115,-565 112,-568 109,-568"/>
<text text-anchor="start" x="72" y="-556.8" font-family="Helvetica,sans-Serif" font-size="9.00">note.ts</text>
</a>
</g>
</g>
<!-- packages/tonal&#45;objects/src/note/note.ts&#45;&gt;node_modules/@tonaljs/pitch&#45;note -->
<g id="edge17" class="edge">
<title>packages/tonal&#45;objects/src/note/note.ts&#45;&gt;node_modules/@tonaljs/pitch&#45;note</title>
<path fill="none" stroke="#000000" stroke-opacity="0.200000" d="M92.18,-549.69C111.93,-491.79 217.96,-181.03 242.79,-108.26"/>
<polygon fill="none" stroke="#000000" stroke-opacity="0.200000" points="244.87,-108.69 244.82,-102.33 240.89,-107.33 244.87,-108.69"/>
</g>
<!-- packages/tonal&#45;objects/src/roman&#45;numeral/get.ts -->
<g id="node27" class="node">
<title>packages/tonal&#45;objects/src/roman&#45;numeral/get.ts</title>
<g id="a_node27"><a xlink:href="packages/tonal-objects/src/roman-numeral/get.ts" xlink:title="get.ts">
<path fill="#ddfeff" stroke="black" d="M109,-508C109,-508 67,-508 67,-508 64,-508 61,-505 61,-502 61,-502 61,-496 61,-496 61,-493 64,-490 67,-490 67,-490 109,-490 109,-490 112,-490 115,-493 115,-496 115,-496 115,-502 115,-502 115,-505 112,-508 109,-508"/>
<text text-anchor="start" x="74.5" y="-496.8" font-family="Helvetica,sans-Serif" font-size="9.00">get.ts</text>
</a>
</g>
</g>
<!-- packages/tonal&#45;objects/src/roman&#45;numeral/get.ts&#45;&gt;node_modules/@tonaljs/roman&#45;numeral -->
<g id="edge18" class="edge">
<title>packages/tonal&#45;objects/src/roman&#45;numeral/get.ts&#45;&gt;node_modules/@tonaljs/roman&#45;numeral</title>
<path fill="none" stroke="#000000" stroke-opacity="0.200000" d="M92.32,-489.89C112.37,-434.93 217.21,-147.44 242.5,-78.07"/>
<polygon fill="#000000" fill-opacity="0.200000" stroke="#000000" stroke-opacity="0.200000" points="246.67,-72.78 242.64,-77.69 242.72,-71.34 246.67,-72.78"/>
</g>
<!-- packages/tonal&#45;objects/src/scale/get.ts -->
<g id="node28" class="node">
<title>packages/tonal&#45;objects/src/scale/get.ts</title>
<g id="a_node28"><a xlink:href="packages/tonal-objects/src/scale/get.ts" xlink:title="get.ts">
<path fill="#ddfeff" stroke="black" d="M109,-448C109,-448 67,-448 67,-448 64,-448 61,-445 61,-442 61,-442 61,-436 61,-436 61,-433 64,-430 67,-430 67,-430 109,-430 109,-430 112,-430 115,-433 115,-436 115,-436 115,-442 115,-442 115,-445 112,-448 109,-448"/>
<text text-anchor="start" x="74.5" y="-436.8" font-family="Helvetica,sans-Serif" font-size="9.00">get.ts</text>
</a>
</g>
</g>
<!-- packages/tonal&#45;objects/src/scale/get.ts&#45;&gt;node_modules/@tonaljs/scale -->
<g id="edge19" class="edge">
<title>packages/tonal&#45;objects/src/scale/get.ts&#45;&gt;node_modules/@tonaljs/scale</title>
<path fill="none" stroke="#000000" stroke-opacity="0.200000" d="M92.62,-429.76C113.31,-376.93 216.56,-113.29 242.22,-47.76"/>
<polygon fill="#000000" fill-opacity="0.200000" stroke="#000000" stroke-opacity="0.200000" points="246.41,-42.82 242.27,-47.64 242.5,-41.29 246.41,-42.82"/>
</g>
<!-- packages/tonal&#45;objects/src/scale/scale&#45;name.ts -->
<g id="node29" class="node">
<title>packages/tonal&#45;objects/src/scale/scale&#45;name.ts</title>
<g id="a_node29"><a xlink:href="packages/tonal-objects/src/scale/scale-name.ts" xlink:title="no&#45;orphans">
<path fill="#ccffcc" stroke="orange" d="M121.5,-418C121.5,-418 54.5,-418 54.5,-418 51.5,-418 48.5,-415 48.5,-412 48.5,-412 48.5,-406 48.5,-406 48.5,-403 51.5,-400 54.5,-400 54.5,-400 121.5,-400 121.5,-400 124.5,-400 127.5,-403 127.5,-406 127.5,-406 127.5,-412 127.5,-412 127.5,-415 124.5,-418 121.5,-418"/>
<text text-anchor="start" x="56.5" y="-406.8" font-family="Helvetica,sans-Serif" font-size="9.00" fill="orange">scale&#45;name.ts</text>
</a>
</g>
</g>
<!-- packages/tonal&#45;objects/src/scale/scale.ts -->
<g id="node30" class="node">
<title>packages/tonal&#45;objects/src/scale/scale.ts</title>
<g id="a_node30"><a xlink:href="packages/tonal-objects/src/scale/scale.ts" xlink:title="scale.ts">
<path fill="#ddfeff" stroke="black" d="M109,-388C109,-388 67,-388 67,-388 64,-388 61,-385 61,-382 61,-382 61,-376 61,-376 61,-373 64,-370 67,-370 67,-370 109,-370 109,-370 112,-370 115,-373 115,-376 115,-376 115,-382 115,-382 115,-385 112,-388 109,-388"/>
<text text-anchor="start" x="71" y="-376.8" font-family="Helvetica,sans-Serif" font-size="9.00">scale.ts</text>
</a>
</g>
</g>
<!-- packages/tonal&#45;objects/src/scale/scale.ts&#45;&gt;node_modules/@tonaljs/scale -->
<g id="edge20" class="edge">
<title>packages/tonal&#45;objects/src/scale/scale.ts&#45;&gt;node_modules/@tonaljs/scale</title>
<path fill="none" stroke="#000000" stroke-opacity="0.200000" d="M93.25,-369.75C115.03,-322.36 214.07,-106.84 241.14,-47.92"/>
<polygon fill="none" stroke="#000000" stroke-opacity="0.200000" points="243.21,-48.45 243.81,-42.12 239.39,-46.7 243.21,-48.45"/>
</g>
<!-- packages/util/stdlib/src/error/throw&#45;function.ts -->
<g id="node32" class="node">
<title>packages/util/stdlib/src/error/throw&#45;function.ts</title>
<g id="a_node32"><a xlink:href="packages/util/stdlib/src/error/throw-function.ts" xlink:title="throw&#45;function.ts">
<path fill="#ddfeff" stroke="black" d="M500,-838C500,-838 417,-838 417,-838 414,-838 411,-835 411,-832 411,-832 411,-826 411,-826 411,-823 414,-820 417,-820 417,-820 500,-820 500,-820 503,-820 506,-823 506,-826 506,-826 506,-832 506,-832 506,-835 503,-838 500,-838"/>
<text text-anchor="start" x="419" y="-826.8" font-family="Helvetica,sans-Serif" font-size="9.00">throw&#45;function.ts</text>
</a>
</g>
</g>
<!-- packages/util/stdlib/src/assertion/not&#45;nan.ts&#45;&gt;packages/util/stdlib/src/error/throw&#45;function.ts -->
<g id="edge21" class="edge">
<title>packages/util/stdlib/src/assertion/not&#45;nan.ts&#45;&gt;packages/util/stdlib/src/error/throw&#45;function.ts</title>
<path fill="none" stroke="#000000" stroke-width="2" stroke-opacity="0.200000" d="M387.08,-829C392.74,-829 398.8,-829 404.9,-829"/>
<polygon fill="#000000" fill-opacity="0.200000" stroke="#000000" stroke-width="2" stroke-opacity="0.200000" points="405,-831.1 411,-829 405,-826.9 405,-831.1"/>
</g>
</g>
</svg>
