<?xml version="1.0" encoding="UTF-8" standalone="no"?>
<!DOCTYPE svg PUBLIC "-//W3C//DTD SVG 1.1//EN"
 "http://www.w3.org/Graphics/SVG/1.1/DTD/svg11.dtd">
<!-- Generated by graphviz version 2.43.0 (0)
 -->
<!-- Title: dependency&#45;cruiser output Pages: 1 -->
<svg width="325pt" height="482pt"
 viewBox="0.00 0.00 325.00 482.00" xmlns="http://www.w3.org/2000/svg" xmlns:xlink="http://www.w3.org/1999/xlink">
<g id="graph0" class="graph" transform="scale(1 1) rotate(0) translate(4 478)">
<title>dependency&#45;cruiser output</title>
<polygon fill="white" stroke="transparent" points="-4,4 -4,-478 321,-478 321,4 -4,4"/>
<g id="clust1" class="cluster">
<title>cluster_node_modules</title>
<path fill="#ffffff" stroke="black" stroke-width="2" d="M203,-8C203,-8 297,-8 297,-8 303,-8 309,-14 309,-20 309,-20 309,-292 309,-292 309,-298 303,-304 297,-304 297,-304 203,-304 203,-304 197,-304 191,-298 191,-292 191,-292 191,-20 191,-20 191,-14 197,-8 203,-8"/>
<text text-anchor="middle" x="250" y="-292.8" font-family="Helvetica,sans-Serif" font-weight="bold" font-size="9.00">node_modules</text>
</g>
<g id="clust2" class="cluster">
<title>cluster_node_modules/@tonaljs</title>
<path fill="#ffffff" stroke="black" stroke-width="2" d="M211,-16C211,-16 289,-16 289,-16 295,-16 301,-22 301,-28 301,-28 301,-266 301,-266 301,-272 295,-278 289,-278 289,-278 211,-278 211,-278 205,-278 199,-272 199,-266 199,-266 199,-28 199,-28 199,-22 205,-16 211,-16"/>
<text text-anchor="middle" x="250" y="-266.8" font-family="Helvetica,sans-Serif" font-weight="bold" font-size="9.00">@tonaljs</text>
</g>
<g id="clust3" class="cluster">
<title>cluster_packages</title>
<path fill="#ffffff" stroke="black" stroke-width="2" d="M20,-312C20,-312 297,-312 297,-312 303,-312 309,-318 309,-324 309,-324 309,-454 309,-454 309,-460 303,-466 297,-466 297,-466 20,-466 20,-466 14,-466 8,-460 8,-454 8,-454 8,-324 8,-324 8,-318 14,-312 20,-312"/>
<text text-anchor="middle" x="158.5" y="-454.8" font-family="Helvetica,sans-Serif" font-weight="bold" font-size="9.00">packages</text>
</g>
<g id="clust4" class="cluster">
<title>cluster_packages/tonal&#45;objects</title>
<path fill="#ffffff" stroke="black" stroke-width="2" d="M28,-320C28,-320 171,-320 171,-320 177,-320 183,-326 183,-332 183,-332 183,-394 183,-394 183,-400 177,-406 171,-406 171,-406 28,-406 28,-406 22,-406 16,-400 16,-394 16,-394 16,-332 16,-332 16,-326 22,-320 28,-320"/>
<text text-anchor="middle" x="99.5" y="-394.8" font-family="Helvetica,sans-Serif" font-weight="bold" font-size="9.00">tonal&#45;objects</text>
</g>
<g id="clust5" class="cluster">
<title>cluster_packages/tonal&#45;objects/src</title>
<path fill="#ffffff" stroke="black" stroke-width="2" d="M117,-328C117,-328 163,-328 163,-328 169,-328 175,-334 175,-340 175,-340 175,-368 175,-368 175,-374 169,-380 163,-380 163,-380 117,-380 117,-380 111,-380 105,-374 105,-368 105,-368 105,-340 105,-340 105,-334 111,-328 117,-328"/>
<text text-anchor="middle" x="140" y="-368.8" font-family="Helvetica,sans-Serif" font-weight="bold" font-size="9.00">src</text>
</g>
<g id="clust6" class="cluster">
<title>cluster_packages/util</title>
<path fill="#ffffff" stroke="black" stroke-width="2" d="M211,-320C211,-320 289,-320 289,-320 295,-320 301,-326 301,-332 301,-332 301,-428 301,-428 301,-434 295,-440 289,-440 289,-440 211,-440 211,-440 205,-440 199,-434 199,-428 199,-428 199,-332 199,-332 199,-326 205,-320 211,-320"/>
<text text-anchor="middle" x="250" y="-428.8" font-family="Helvetica,sans-Serif" font-weight="bold" font-size="9.00">util</text>
</g>
<g id="clust7" class="cluster">
<title>cluster_packages/util/stdlib</title>
<path fill="#ffffff" stroke="black" stroke-width="2" d="M219,-328C219,-328 281,-328 281,-328 287,-328 293,-334 293,-340 293,-340 293,-402 293,-402 293,-408 287,-414 281,-414 281,-414 219,-414 219,-414 213,-414 207,-408 207,-402 207,-402 207,-340 207,-340 207,-334 213,-328 219,-328"/>
<text text-anchor="middle" x="250" y="-402.8" font-family="Helvetica,sans-Serif" font-weight="bold" font-size="9.00">stdlib</text>
</g>
<g id="clust8" class="cluster">
<title>cluster_packages/util/stdlib/dist</title>
<path fill="#ffffff" stroke="black" stroke-width="2" d="M227,-336C227,-336 273,-336 273,-336 279,-336 285,-342 285,-348 285,-348 285,-376 285,-376 285,-382 279,-388 273,-388 273,-388 227,-388 227,-388 221,-388 215,-382 215,-376 215,-376 215,-348 215,-348 215,-342 221,-336 227,-336"/>
<text text-anchor="middle" x="250" y="-376.8" font-family="Helvetica,sans-Serif" font-weight="bold" font-size="9.00">dist</text>
</g>
<!-- node_modules/@tonaljs/chord -->
<g id="node1" class="node">
<title>node_modules/@tonaljs/chord</title>
<g id="a_node1"><a xlink:href="https://www.npmjs.com/package/@tonaljs/chord" xlink:title="chord">
<polygon fill="#c40b0a" fill-opacity="0.101961" stroke="black" points="277,-132 225,-132 223,-130 223,-114 275,-114 277,-116 277,-132"/>
<polyline fill="none" stroke="black" points="275,-130 223,-130 "/>
<polyline fill="none" stroke="black" points="275,-130 275,-114 "/>
<polyline fill="none" stroke="black" points="275,-130 277,-132 "/>
<text text-anchor="start" x="236.5" y="-120.8" font-family="Helvetica,sans-Serif" font-size="9.00" fill="#c40b0a">chord</text>
</a>
</g>
</g>
<!-- node_modules/@tonaljs/interval -->
<g id="node2" class="node">
<title>node_modules/@tonaljs/interval</title>
<g id="a_node2"><a xlink:href="https://www.npmjs.com/package/@tonaljs/interval" xlink:title="interval">
<polygon fill="#c40b0a" fill-opacity="0.101961" stroke="black" points="277,-252 225,-252 223,-250 223,-234 275,-234 277,-236 277,-252"/>
<polyline fill="none" stroke="black" points="275,-250 223,-250 "/>
<polyline fill="none" stroke="black" points="275,-250 275,-234 "/>
<polyline fill="none" stroke="black" points="275,-250 277,-252 "/>
<text text-anchor="start" x="233" y="-240.8" font-family="Helvetica,sans-Serif" font-size="9.00" fill="#c40b0a">interval</text>
</a>
</g>
</g>
<!-- node_modules/@tonaljs/key -->
<g id="node3" class="node">
<title>node_modules/@tonaljs/key</title>
<g id="a_node3"><a xlink:href="https://www.npmjs.com/package/@tonaljs/key" xlink:title="key">
<polygon fill="#c40b0a" fill-opacity="0.101961" stroke="black" points="277,-102 225,-102 223,-100 223,-84 275,-84 277,-86 277,-102"/>
<polyline fill="none" stroke="black" points="275,-100 223,-100 "/>
<polyline fill="none" stroke="black" points="275,-100 275,-84 "/>
<polyline fill="none" stroke="black" points="275,-100 277,-102 "/>
<text text-anchor="start" x="242" y="-90.8" font-family="Helvetica,sans-Serif" font-size="9.00" fill="#c40b0a">key</text>
</a>
</g>
</g>
<!-- node_modules/@tonaljs/note -->
<g id="node4" class="node">
<title>node_modules/@tonaljs/note</title>
<g id="a_node4"><a xlink:href="https://www.npmjs.com/package/@tonaljs/note" xlink:title="note">
<polygon fill="#c40b0a" fill-opacity="0.101961" stroke="black" points="277,-222 225,-222 223,-220 223,-204 275,-204 277,-206 277,-222"/>
<polyline fill="none" stroke="black" points="275,-220 223,-220 "/>
<polyline fill="none" stroke="black" points="275,-220 275,-204 "/>
<polyline fill="none" stroke="black" points="275,-220 277,-222 "/>
<text text-anchor="start" x="239.5" y="-210.8" font-family="Helvetica,sans-Serif" font-size="9.00" fill="#c40b0a">note</text>
</a>
</g>
</g>
<!-- node_modules/@tonaljs/pitch&#45;interval -->
<g id="node5" class="node">
<title>node_modules/@tonaljs/pitch&#45;interval</title>
<g id="a_node5"><a xlink:href="https://www.npmjs.com/package/@tonaljs/pitch-interval" xlink:title="pitch&#45;interval">
<polygon fill="#c40b0a" fill-opacity="0.101961" stroke="black" points="288.5,-72 213.5,-72 211.5,-70 211.5,-54 286.5,-54 288.5,-56 288.5,-72"/>
<polyline fill="none" stroke="black" points="286.5,-70 211.5,-70 "/>
<polyline fill="none" stroke="black" points="286.5,-70 286.5,-54 "/>
<polyline fill="none" stroke="black" points="286.5,-70 288.5,-72 "/>
<text text-anchor="start" x="219.5" y="-60.8" font-family="Helvetica,sans-Serif" font-size="9.00" fill="#c40b0a">pitch&#45;interval</text>
</a>
</g>
</g>
<!-- node_modules/@tonaljs/pitch&#45;note -->
<g id="node6" class="node">
<title>node_modules/@tonaljs/pitch&#45;note</title>
<g id="a_node6"><a xlink:href="https://www.npmjs.com/package/@tonaljs/pitch-note" xlink:title="pitch&#45;note">
<polygon fill="#c40b0a" fill-opacity="0.101961" stroke="black" points="281.5,-192 220.5,-192 218.5,-190 218.5,-174 279.5,-174 281.5,-176 281.5,-192"/>
<polyline fill="none" stroke="black" points="279.5,-190 218.5,-190 "/>
<polyline fill="none" stroke="black" points="279.5,-190 279.5,-174 "/>
<polyline fill="none" stroke="black" points="279.5,-190 281.5,-192 "/>
<text text-anchor="start" x="226.5" y="-180.8" font-family="Helvetica,sans-Serif" font-size="9.00" fill="#c40b0a">pitch&#45;note</text>
</a>
</g>
</g>
<!-- node_modules/@tonaljs/roman&#45;numeral -->
<g id="node7" class="node">
<title>node_modules/@tonaljs/roman&#45;numeral</title>
<g id="a_node7"><a xlink:href="https://www.npmjs.com/package/@tonaljs/roman-numeral" xlink:title="roman&#45;numeral">
<polygon fill="#c40b0a" fill-opacity="0.101961" stroke="black" points="293,-42 209,-42 207,-40 207,-24 291,-24 293,-26 293,-42"/>
<polyline fill="none" stroke="black" points="291,-40 207,-40 "/>
<polyline fill="none" stroke="black" points="291,-40 291,-24 "/>
<polyline fill="none" stroke="black" points="291,-40 293,-42 "/>
<text text-anchor="start" x="215" y="-30.8" font-family="Helvetica,sans-Serif" font-size="9.00" fill="#c40b0a">roman&#45;numeral</text>
</a>
</g>
</g>
<!-- node_modules/@tonaljs/scale -->
<g id="node8" class="node">
<title>node_modules/@tonaljs/scale</title>
<g id="a_node8"><a xlink:href="https://www.npmjs.com/package/@tonaljs/scale" xlink:title="scale">
<polygon fill="#c40b0a" fill-opacity="0.101961" stroke="black" points="277,-162 225,-162 223,-160 223,-144 275,-144 277,-146 277,-162"/>
<polyline fill="none" stroke="black" points="275,-160 223,-160 "/>
<polyline fill="none" stroke="black" points="275,-160 275,-144 "/>
<polyline fill="none" stroke="black" points="275,-160 277,-162 "/>
<text text-anchor="start" x="238.5" y="-150.8" font-family="Helvetica,sans-Serif" font-size="9.00" fill="#c40b0a">scale</text>
</a>
</g>
</g>
<!-- packages/tonal&#45;objects/index.test.ts -->
<g id="node9" class="node">
<title>packages/tonal&#45;objects/index.test.ts</title>
<g id="a_node9"><a xlink:href="packages/tonal-objects/index.test.ts" xlink:title="no&#45;orphans">
<path fill="#ccffcc" stroke="orange" d="M91,-378C91,-378 30,-378 30,-378 27,-378 24,-375 24,-372 24,-372 24,-366 24,-366 24,-363 27,-360 30,-360 30,-360 91,-360 91,-360 94,-360 97,-363 97,-366 97,-366 97,-372 97,-372 97,-375 94,-378 91,-378"/>
<text text-anchor="start" x="32" y="-366.8" font-family="Helvetica,sans-Serif" font-size="9.00" fill="orange">index.test.ts</text>
</a>
</g>
</g>
<!-- packages/tonal&#45;objects/index.ts -->
<g id="node10" class="node">
<title>packages/tonal&#45;objects/index.ts</title>
<g id="a_node10"><a xlink:href="packages/tonal-objects/index.ts" xlink:title="index.ts">
<path fill="#ddfeff" stroke="black" d="M81.5,-346C81.5,-346 39.5,-346 39.5,-346 36.5,-346 33.5,-343 33.5,-340 33.5,-340 33.5,-334 33.5,-334 33.5,-331 36.5,-328 39.5,-328 39.5,-328 81.5,-328 81.5,-328 84.5,-328 87.5,-331 87.5,-334 87.5,-334 87.5,-340 87.5,-340 87.5,-343 84.5,-346 81.5,-346"/>
<text text-anchor="start" x="42" y="-334.8" font-family="Helvetica,sans-Serif" font-size="9.00">index.ts</text>
</a>
</g>
</g>
<!-- packages/tonal&#45;objects/index.ts&#45;&gt;node_modules/@tonaljs/chord -->
<g id="edge2" class="edge">
<title>packages/tonal&#45;objects/index.ts&#45;&gt;node_modules/@tonaljs/chord</title>
<path fill="none" stroke="#000000" stroke-opacity="0.200000" d="M62.37,-327.58C65.73,-293.32 78.96,-176.07 105,-151 134.58,-122.51 184.03,-118.8 216.58,-119.96"/>
<polygon fill="#000000" fill-opacity="0.200000" stroke="#000000" stroke-opacity="0.200000" points="222.76,-122.35 216.86,-119.97 222.95,-118.15 222.76,-122.35"/>
</g>
<!-- packages/tonal&#45;objects/index.ts&#45;&gt;node_modules/@tonaljs/interval -->
<g id="edge3" class="edge">
<title>packages/tonal&#45;objects/index.ts&#45;&gt;node_modules/@tonaljs/interval</title>
<path fill="none" stroke="#000000" stroke-opacity="0.200000" d="M79.48,-327.99C113.41,-310.98 186.9,-274.13 225,-255.03"/>
<polygon fill="#000000" fill-opacity="0.200000" stroke="#000000" stroke-opacity="0.200000" points="231.74,-254 225.44,-254.81 229.86,-250.25 231.74,-254"/>
</g>
<!-- packages/tonal&#45;objects/index.ts&#45;&gt;node_modules/@tonaljs/key -->
<g id="edge4" class="edge">
<title>packages/tonal&#45;objects/index.ts&#45;&gt;node_modules/@tonaljs/key</title>
<path fill="none" stroke="#000000" stroke-opacity="0.200000" d="M62,-327.82C64.21,-290.27 74.5,-148.95 105,-119 134.23,-90.3 183.77,-87.44 216.44,-89.25"/>
<polygon fill="#000000" fill-opacity="0.200000" stroke="#000000" stroke-opacity="0.200000" points="222.59,-91.77 216.75,-89.27 222.87,-87.58 222.59,-91.77"/>
</g>
<!-- packages/tonal&#45;objects/index.ts&#45;&gt;node_modules/@tonaljs/note -->
<g id="edge5" class="edge">
<title>packages/tonal&#45;objects/index.ts&#45;&gt;node_modules/@tonaljs/note</title>
<path fill="none" stroke="#000000" stroke-opacity="0.200000" d="M65.95,-327.68C72.78,-314.19 86.95,-289.09 105,-273 137.22,-244.28 185.14,-228.07 216.71,-219.92"/>
<polygon fill="#000000" fill-opacity="0.200000" stroke="#000000" stroke-opacity="0.200000" points="223.31,-220.43 216.98,-219.85 222.29,-216.36 223.31,-220.43"/>
</g>
<!-- packages/tonal&#45;objects/index.ts&#45;&gt;node_modules/@tonaljs/pitch&#45;interval -->
<g id="edge6" class="edge">
<title>packages/tonal&#45;objects/index.ts&#45;&gt;node_modules/@tonaljs/pitch&#45;interval</title>
<path fill="none" stroke="#000000" stroke-opacity="0.200000" d="M61.73,-327.89C62.94,-287.1 69.99,-121.77 105,-87 130.8,-61.39 172.89,-56.94 204.92,-57.98"/>
<polygon fill="none" stroke="#000000" stroke-opacity="0.200000" points="205.1,-60.09 211.19,-58.26 205.29,-55.9 205.1,-60.09"/>
</g>
<!-- packages/tonal&#45;objects/index.ts&#45;&gt;node_modules/@tonaljs/pitch&#45;note -->
<g id="edge7" class="edge">
<title>packages/tonal&#45;objects/index.ts&#45;&gt;node_modules/@tonaljs/pitch&#45;note</title>
<path fill="none" stroke="#000000" stroke-opacity="0.200000" d="M62.52,-327.89C65.32,-307.03 75.07,-255.43 105,-227 134.05,-199.4 179.94,-189.08 212.09,-185.24"/>
<polygon fill="none" stroke="#000000" stroke-opacity="0.200000" points="212.59,-187.3 218.32,-184.55 212.13,-183.12 212.59,-187.3"/>
</g>
<!-- packages/tonal&#45;objects/index.ts&#45;&gt;node_modules/@tonaljs/roman&#45;numeral -->
<g id="edge8" class="edge">
<title>packages/tonal&#45;objects/index.ts&#45;&gt;node_modules/@tonaljs/roman&#45;numeral</title>
<path fill="none" stroke="#000000" stroke-opacity="0.200000" d="M61.53,-327.96C61.88,-284.27 65.65,-95.54 105,-56 129.53,-31.35 169.19,-26.53 200.68,-27.36"/>
<polygon fill="#000000" fill-opacity="0.200000" stroke="#000000" stroke-opacity="0.200000" points="206.78,-29.69 200.87,-27.37 206.94,-25.5 206.78,-29.69"/>
</g>
<!-- packages/tonal&#45;objects/index.ts&#45;&gt;node_modules/@tonaljs/scale -->
<g id="edge9" class="edge">
<title>packages/tonal&#45;objects/index.ts&#45;&gt;node_modules/@tonaljs/scale</title>
<path fill="none" stroke="#000000" stroke-opacity="0.200000" d="M61.21,-327.64C60.93,-301.32 63.93,-226.05 105,-187 134.93,-158.54 184.07,-152.42 216.48,-151.8"/>
<polygon fill="#000000" fill-opacity="0.200000" stroke="#000000" stroke-opacity="0.200000" points="222.74,-153.85 216.73,-151.8 222.71,-149.65 222.74,-153.85"/>
</g>
<!-- packages/tonal&#45;objects/src/index.ts -->
<g id="node11" class="node">
<title>packages/tonal&#45;objects/src/index.ts</title>
<g id="a_node11"><a xlink:href="packages/tonal-objects/src/index.ts" xlink:title="index.ts">
<path fill="#ddfeff" stroke="black" d="M161,-354C161,-354 119,-354 119,-354 116,-354 113,-351 113,-348 113,-348 113,-342 113,-342 113,-339 116,-336 119,-336 119,-336 161,-336 161,-336 164,-336 167,-339 167,-342 167,-342 167,-348 167,-348 167,-351 164,-354 161,-354"/>
<text text-anchor="start" x="121.5" y="-342.8" font-family="Helvetica,sans-Serif" font-size="9.00">index.ts</text>
</a>
</g>
</g>
<!-- packages/tonal&#45;objects/index.ts&#45;&gt;packages/tonal&#45;objects/src/index.ts -->
<g id="edge1" class="edge">
<title>packages/tonal&#45;objects/index.ts&#45;&gt;packages/tonal&#45;objects/src/index.ts</title>
<path fill="none" stroke="#000000" stroke-width="2" stroke-opacity="0.200000" d="M87.74,-339.71C93.8,-340.33 100.32,-341.01 106.6,-341.66"/>
<polygon fill="#000000" fill-opacity="0.200000" stroke="#000000" stroke-width="2" stroke-opacity="0.200000" points="112.57,-344.38 106.82,-341.68 113,-340.21 112.57,-344.38"/>
</g>
<!-- packages/tonal&#45;objects/src/index.ts&#45;&gt;node_modules/@tonaljs/interval -->
<g id="edge11" class="edge">
<title>packages/tonal&#45;objects/src/index.ts&#45;&gt;node_modules/@tonaljs/interval</title>
<path fill="none" stroke="#000000" stroke-opacity="0.200000" d="M150.58,-335.95C169.67,-317.92 212.51,-277.47 234.84,-256.37"/>
<polygon fill="#000000" fill-opacity="0.200000" stroke="#000000" stroke-opacity="0.200000" points="236.36,-257.82 239.28,-252.18 233.48,-254.77 236.36,-257.82"/>
</g>
<!-- packages/tonal&#45;objects/src/index.ts&#45;&gt;node_modules/@tonaljs/note -->
<g id="edge12" class="edge">
<title>packages/tonal&#45;objects/src/index.ts&#45;&gt;node_modules/@tonaljs/note</title>
<path fill="none" stroke="#000000" stroke-opacity="0.200000" d="M144.68,-335.78C155.48,-308.82 186.58,-231.8 191,-228 198.25,-221.77 207.76,-218.08 216.98,-215.91"/>
<polygon fill="#000000" fill-opacity="0.200000" stroke="#000000" stroke-opacity="0.200000" points="217.52,-217.95 222.98,-214.69 216.68,-213.83 217.52,-217.95"/>
</g>
<!-- packages/tonal&#45;objects/src/index.ts&#45;&gt;node_modules/@tonaljs/pitch&#45;note -->
<g id="edge13" class="edge">
<title>packages/tonal&#45;objects/src/index.ts&#45;&gt;node_modules/@tonaljs/pitch&#45;note</title>
<path fill="none" stroke="#000000" stroke-opacity="0.200000" d="M141.26,-335.83C142.51,-310.05 149.7,-236.32 191,-198 196.89,-192.53 204.52,-189 212.29,-186.73"/>
<polygon fill="#000000" fill-opacity="0.200000" stroke="#000000" stroke-opacity="0.200000" points="212.93,-188.73 218.23,-185.23 211.9,-184.66 212.93,-188.73"/>
</g>
<!-- packages/util/stdlib/dist/index.js -->
<g id="node12" class="node">
<title>packages/util/stdlib/dist/index.js</title>
<g id="a_node12"><a xlink:href="packages/util/stdlib/dist/index.js" xlink:title="index.js">
<polygon fill="#ffffcc" stroke="black" points="277,-362 275.5,-364 265,-364 263.5,-362 223,-362 223,-344 277,-344 277,-362"/>
<text text-anchor="start" x="232.5" y="-350.8" font-family="Helvetica,sans-Serif" font-size="9.00">index.js</text>
</a>
</g>
</g>
<!-- packages/tonal&#45;objects/src/index.ts&#45;&gt;packages/util/stdlib/dist/index.js -->
<g id="edge10" class="edge">
<title>packages/tonal&#45;objects/src/index.ts&#45;&gt;packages/util/stdlib/dist/index.js</title>
<path fill="none" stroke="#000000" stroke-width="2" stroke-opacity="0.200000" d="M167.14,-346.94C182.02,-348.04 200.79,-349.43 216.6,-350.6"/>
<polygon fill="#000000" fill-opacity="0.200000" stroke="#000000" stroke-width="2" stroke-opacity="0.200000" points="216.58,-352.7 222.72,-351.05 216.89,-348.52 216.58,-352.7"/>
</g>
</g>
</svg>
