<?xml version="1.0" encoding="UTF-8" standalone="no"?>
<!DOCTYPE svg PUBLIC "-//W3C//DTD SVG 1.1//EN"
 "http://www.w3.org/Graphics/SVG/1.1/DTD/svg11.dtd">
<!-- Generated by graphviz version 2.43.0 (0)
 -->
<!-- Title: dependency&#45;cruiser output Pages: 1 -->
<svg width="325pt" height="482pt"
 viewBox="0.00 0.00 325.00 482.00" xmlns="http://www.w3.org/2000/svg" xmlns:xlink="http://www.w3.org/1999/xlink">
<g id="graph0" class="graph" transform="scale(1 1) rotate(0) translate(4 478)">
<title>dependency&#45;cruiser output</title>
<polygon fill="white" stroke="transparent" points="-4,4 -4,-478 321,-478 321,4 -4,4"/>
<g id="clust1" class="cluster">
<title>cluster_node_modules</title>
<path fill="#ffffff" stroke="black" stroke-width="2" d="M203,-8C203,-8 297,-8 297,-8 303,-8 309,-14 309,-20 309,-20 309,-292 309,-292 309,-298 303,-304 297,-304 297,-304 203,-304 203,-304 197,-304 191,-298 191,-292 191,-292 191,-20 191,-20 191,-14 197,-8 203,-8"/>
<text text-anchor="middle" x="250" y="-292.8" font-family="Helvetica,sans-Serif" font-weight="bold" font-size="9.00">node_modules</text>
</g>
<g id="clust2" class="cluster">
<title>cluster_node_modules/@tonaljs</title>
<path fill="#ffffff" stroke="black" stroke-width="2" d="M211,-16C211,-16 289,-16 289,-16 295,-16 301,-22 301,-28 301,-28 301,-266 301,-266 301,-272 295,-278 289,-278 289,-278 211,-278 211,-278 205,-278 199,-272 199,-266 199,-266 199,-28 199,-28 199,-22 205,-16 211,-16"/>
<text text-anchor="middle" x="250" y="-266.8" font-family="Helvetica,sans-Serif" font-weight="bold" font-size="9.00">@tonaljs</text>
</g>
<g id="clust3" class="cluster">
<title>cluster_packages</title>
<path fill="#ffffff" stroke="black" stroke-width="2" d="M20,-312C20,-312 297,-312 297,-312 303,-312 309,-318 309,-324 309,-324 309,-454 309,-454 309,-460 303,-466 297,-466 297,-466 20,-466 20,-466 14,-466 8,-460 8,-454 8,-454 8,-324 8,-324 8,-318 14,-312 20,-312"/>
<text text-anchor="middle" x="158.5" y="-454.8" font-family="Helvetica,sans-Serif" font-weight="bold" font-size="9.00">packages</text>
</g>
<g id="clust4" class="cluster">
<title>cluster_packages/tonal&#45;objects</title>
<path fill="#ffffff" stroke="black" stroke-width="2" d="M28,-320C28,-320 171,-320 171,-320 177,-320 183,-326 183,-332 183,-332 183,-394 183,-394 183,-400 177,-406 171,-406 171,-406 28,-406 28,-406 22,-406 16,-400 16,-394 16,-394 16,-332 16,-332 16,-326 22,-320 28,-320"/>
<text text-anchor="middle" x="99.5" y="-394.8" font-family="Helvetica,sans-Serif" font-weight="bold" font-size="9.00">tonal&#45;objects</text>
</g>
<g id="clust5" class="cluster">
<title>cluster_packages/tonal&#45;objects/src</title>
<path fill="#ffffff" stroke="black" stroke-width="2" d="M117,-328C117,-328 163,-328 163,-328 169,-328 175,-334 175,-340 175,-340 175,-368 175,-368 175,-374 169,-380 163,-380 163,-380 117,-380 117,-380 111,-380 105,-374 105,-368 105,-368 105,-340 105,-340 105,-334 111,-328 117,-328"/>
<text text-anchor="middle" x="140" y="-368.8" font-family="Helvetica,sans-Serif" font-weight="bold" font-size="9.00">src</text>
</g>
<g id="clust6" class="cluster">
<title>cluster_packages/util</title>
<path fill="#ffffff" stroke="black" stroke-width="2" d="M211,-320C211,-320 289,-320 289,-320 295,-320 301,-326 301,-332 301,-332 301,-428 301,-428 301,-434 295,-440 289,-440 289,-440 211,-440 211,-440 205,-440 199,-434 199,-428 199,-428 199,-332 199,-332 199,-326 205,-320 211,-320"/>
<text text-anchor="middle" x="250" y="-428.8" font-family="Helvetica,sans-Serif" font-weight="bold" font-size="9.00">util</text>
</g>
<g id="clust7" class="cluster">
<title>cluster_packages/util/stdlib</title>
<path fill="#ffffff" stroke="black" stroke-width="2" d="M219,-328C219,-328 281,-328 281,-328 287,-328 293,-334 293,-340 293,-340 293,-402 293,-402 293,-408 287,-414 281,-414 281,-414 219,-414 219,-414 213,-414 207,-408 207,-402 207,-402 207,-340 207,-340 207,-334 213,-328 219,-328"/>
<text text-anchor="middle" x="250" y="-402.8" font-family="Helvetica,sans-Serif" font-weight="bold" font-size="9.00">stdlib</text>
</g>
<g id="clust8" class="cluster">
<title>cluster_packages/util/stdlib/dist</title>
<path fill="#ffffff" stroke="black" stroke-width="2" d="M227,-336C227,-336 273,-336 273,-336 279,-336 285,-342 285,-348 285,-348 285,-376 285,-376 285,-382 279,-388 273,-388 273,-388 227,-388 227,-388 221,-388 215,-382 215,-376 215,-376 215,-348 215,-348 215,-342 221,-336 227,-336"/>
<text text-anchor="middle" x="250" y="-376.8" font-family="Helvetica,sans-Serif" font-weight="bold" font-size="9.00">dist</text>
</g>
<!-- node_modules/@tonaljs/chord -->
<g id="node1" class="node">
<title>node_modules/@tonaljs/chord</title>
<g id="a_node1"><a xlink:href="https://www.npmjs.com/package/@tonaljs/chord" xlink:title="chord">
<polygon fill="#c40b0a" fill-opacity="0.101961" stroke="black" points="277,-132 225,-132 223,-130 223,-114 275,-114 277,-116 277,-132"/>
<polyline fill="none" stroke="black" points="275,-130 223,-130 "/>
<polyline fill="none" stroke="black" points="275,-130 275,-114 "/>
<polyline fill="none" stroke="black" points="275,-130 277,-132 "/>
<text text-anchor="start" x="236.5" y="-120.8" font-family="Helvetica,sans-Serif" font-size="9.00" fill="#c40b0a">chord</text>
</a>
</g>
</g>
<!-- node_modules/@tonaljs/interval -->
<g id="node2" class="node">
<title>node_modules/@tonaljs/interval</title>
<g id="a_node2"><a xlink:href="https://www.npmjs.com/package/@tonaljs/interval" xlink:title="interval">
<polygon fill="#c40b0a" fill-opacity="0.101961" stroke="black" points="277,-252 225,-252 223,-250 223,-234 275,-234 277,-236 277,-252"/>
<polyline fill="none" stroke="black" points="275,-250 223,-250 "/>
<polyline fill="none" stroke="black" points="275,-250 275,-234 "/>
<polyline fill="none" stroke="black" points="275,-250 277,-252 "/>
<text text-anchor="start" x="233" y="-240.8" font-family="Helvetica,sans-Serif" font-size="9.00" fill="#c40b0a">interval</text>
</a>
</g>
</g>
<!-- node_modules/@tonaljs/key -->
<g id="node3" class="node">
<title>node_modules/@tonaljs/key</title>
<g id="a_node3"><a xlink:href="https://www.npmjs.com/package/@tonaljs/key" xlink:title="key">
<polygon fill="#c40b0a" fill-opacity="0.101961" stroke="black" points="277,-102 225,-102 223,-100 223,-84 275,-84 277,-86 277,-102"/>
<polyline fill="none" stroke="black" points="275,-100 223,-100 "/>
<polyline fill="none" stroke="black" points="275,-100 275,-84 "/>
<polyline fill="none" stroke="black" points="275,-100 277,-102 "/>
<text text-anchor="start" x="242" y="-90.8" font-family="Helvetica,sans-Serif" font-size="9.00" fill="#c40b0a">key</text>
</a>
</g>
</g>
<!-- node_modules/@tonaljs/note -->
<g id="node4" class="node">
<title>node_modules/@tonaljs/note</title>
<g id="a_node4"><a xlink:href="https://www.npmjs.com/package/@tonaljs/note" xlink:title="note">
<polygon fill="#c40b0a" fill-opacity="0.101961" stroke="black" points="277,-222 225,-222 223,-220 223,-204 275,-204 277,-206 277,-222"/>
<polyline fill="none" stroke="black" points="275,-220 223,-220 "/>
<polyline fill="none" stroke="black" points="275,-220 275,-204 "/>
<polyline fill="none" stroke="black" points="275,-220 277,-222 "/>
<text text-anchor="start" x="239.5" y="-210.8" font-family="Helvetica,sans-Serif" font-size="9.00" fill="#c40b0a">note</text>
</a>
</g>
</g>
<!-- node_modules/@tonaljs/pitch&#45;interval -->
<g id="node5" class="node">
<title>node_modules/@tonaljs/pitch&#45;interval</title>
<g id="a_node5"><a xlink:href="https://www.npmjs.com/package/@tonaljs/pitch-interval" xlink:title="pitch&#45;interval">
<polygon fill="#c40b0a" fill-opacity="0.101961" stroke="black" points="288.5,-72 213.5,-72 211.5,-70 211.5,-54 286.5,-54 288.5,-56 288.5,-72"/>
<polyline fill="none" stroke="black" points="286.5,-70 211.5,-70 "/>
<polyline fill="none" stroke="black" points="286.5,-70 286.5,-54 "/>
<polyline fill="none" stroke="black" points="286.5,-70 288.5,-72 "/>
<text text-anchor="start" x="219.5" y="-60.8" font-family="Helvetica,sans-Serif" font-size="9.00" fill="#c40b0a">pitch&#45;interval</text>
</a>
</g>
</g>
<!-- node_modules/@tonaljs/pitch&#45;note -->
<g id="node6" class="node">
<title>node_modules/@tonaljs/pitch&#45;note</title>
<g id="a_node6"><a xlink:href="https://www.npmjs.com/package/@tonaljs/pitch-note" xlink:title="pitch&#45;note">
<polygon fill="#c40b0a" fill-opacity="0.101961" stroke="black" points="281.5,-192 220.5,-192 218.5,-190 218.5,-174 279.5,-174 281.5,-176 281.5,-192"/>
<polyline fill="none" stroke="black" points="279.5,-190 218.5,-190 "/>
<polyline fill="none" stroke="black" points="279.5,-190 279.5,-174 "/>
<polyline fill="none" stroke="black" points="279.5,-190 281.5,-192 "/>
<text text-anchor="start" x="226.5" y="-180.8" font-family="Helvetica,sans-Serif" font-size="9.00" fill="#c40b0a">pitch&#45;note</text>
</a>
</g>
</g>
<!-- node_modules/@tonaljs/roman&#45;numeral -->
<g id="node7" class="node">
<title>node_modules/@tonaljs/roman&#45;numeral</title>
<g id="a_node7"><a xlink:href="https://www.npmjs.com/package/@tonaljs/roman-numeral" xlink:title="roman&#45;numeral">
<polygon fill="#c40b0a" fill-opacity="0.101961" stroke="black" points="293,-42 209,-42 207,-40 207,-24 291,-24 293,-26 293,-42"/>
<polyline fill="none" stroke="black" points="291,-40 207,-40 "/>
<polyline fill="none" stroke="black" points="291,-40 291,-24 "/>
<polyline fill="none" stroke="black" points="291,-40 293,-42 "/>
<text text-anchor="start" x="215" y="-30.8" font-family="Helvetica,sans-Serif" font-size="9.00" fill="#c40b0a">roman&#45;numeral</text>
</a>
</g>
</g>
<!-- node_modules/@tonaljs/scale -->
<g id="node8" class="node">
<title>node_modules/@tonaljs/scale</title>
<g id="a_node8"><a xlink:href="https://www.npmjs.com/package/@tonaljs/scale" xlink:title="scale">
<polygon fill="#c40b0a" fill-opacity="0.101961" stroke="black" points="277,-162 225,-162 223,-160 223,-144 275,-144 277,-146 277,-162"/>
<polyline fill="none" stroke="black" points="275,-160 223,-160 "/>
<polyline fill="none" stroke="black" points="275,-160 275,-144 "/>
<polyline fill="none" stroke="black" points="275,-160 277,-162 "/>
<text text-anchor="start" x="238.5" y="-150.8" font-family="Helvetica,sans-Serif" font-size="9.00" fill="#c40b0a">scale</text>
</a>
</g>
</g>
<!-- packages/tonal&#45;objects/index.test.ts -->
<g id="node9" class="node">
<title>packages/tonal&#45;objects/index.test.ts</title>
<g id="a_node9"><a xlink:href="packages/tonal-objects/index.test.ts" xlink:title="no&#45;orphans">
<path fill="#ccffcc" stroke="orange" d="M91,-378C91,-378 30,-378 30,-378 27,-378 24,-375 24,-372 24,-372 24,-366 24,-366 24,-363 27,-360 30,-360 30,-360 91,-360 91,-360 94,-360 97,-363 97,-366 97,-366 97,-372 97,-372 97,-375 94,-378 91,-378"/>
<text text-anchor="start" x="32" y="-366.8" font-family="Helvetica,sans-Serif" font-size="9.00" fill="orange">index.test.ts</text>
</a>
</g>
</g>
<!-- packages/tonal&#45;objects/index.ts -->
<g id="node10" class="node">
<title>packages/tonal&#45;objects/index.ts</title>
<g id="a_node10"><a xlink:href="packages/tonal-objects/index.ts" xlink:title="index.ts">
<path fill="#ddfeff" stroke="black" d="M81.5,-346C81.5,-346 39.5,-346 39.5,-346 36.5,-346 33.5,-343 33.5,-340 33.5,-340 33.5,-334 33.5,-334 33.5,-331 36.5,-328 39.5,-328 39.5,-328 81.5,-328 81.5,-328 84.5,-328 87.5,-331 87.5,-334 87.5,-334 87.5,-340 87.5,-340 87.5,-343 84.5,-346 81.5,-346"/>
<text text-anchor="start" x="42" y="-334.8" font-family="Helvetica,sans-Serif" font-size="9.00">index.ts</text>
</a>
</g>
</g>
<!-- packages/tonal&#45;objects/index.ts&#45;&gt;node_modules/@tonaljs/chord -->
<g id="edge2" class="edge">
<title>packages/tonal&#45;objects/index.ts&#45;&gt;node_modules/@tonaljs/chord</title>
<path fill="none" stroke="#000000" stroke-opacity="0.200000" d="M63.84,-327.91C72.87,-292.81 105,-168 105,-168 105,-168 191,-138 191,-138 191,-138 203.98,-134.64 217.67,-131.1"/>
<polygon fill="#000000" fill-opacity="0.200000" stroke="#000000" stroke-opacity="0.200000" points="223.15,-131.49 217.87,-131.05 222.28,-128.1 223.15,-131.49"/>
</g>
<!-- packages/tonal&#45;objects/index.ts&#45;&gt;node_modules/@tonaljs/interval -->
<g id="edge3" class="edge">
<title>packages/tonal&#45;objects/index.ts&#45;&gt;node_modules/@tonaljs/interval</title>
<path fill="none" stroke="#000000" stroke-opacity="0.200000" d="M79.48,-327.99C113.69,-310.84 188.11,-273.53 225.93,-254.56"/>
<polygon fill="#000000" fill-opacity="0.200000" stroke="#000000" stroke-opacity="0.200000" points="231.58,-253.69 226.33,-254.36 230.02,-250.56 231.58,-253.69"/>
</g>
<!-- packages/tonal&#45;objects/index.ts&#45;&gt;node_modules/@tonaljs/key -->
<g id="edge4" class="edge">
<title>packages/tonal&#45;objects/index.ts&#45;&gt;node_modules/@tonaljs/key</title>
<path fill="none" stroke="#000000" stroke-opacity="0.200000" d="M63.48,-327.93C71.99,-289 105,-138 105,-138 105,-138 191,-108 191,-108 191,-108 203.98,-104.64 217.67,-101.1"/>
<polygon fill="#000000" fill-opacity="0.200000" stroke="#000000" stroke-opacity="0.200000" points="223.15,-101.49 217.87,-101.05 222.28,-98.1 223.15,-101.49"/>
</g>
<!-- packages/tonal&#45;objects/index.ts&#45;&gt;node_modules/@tonaljs/note -->
<g id="edge5" class="edge">
<title>packages/tonal&#45;objects/index.ts&#45;&gt;node_modules/@tonaljs/note</title>
<path fill="none" stroke="#000000" stroke-opacity="0.200000" d="M67.73,-327.83C79.76,-310.13 105,-273 105,-273 105,-273 191,-228 191,-228 191,-228 203.98,-224.64 217.67,-221.1"/>
<polygon fill="#000000" fill-opacity="0.200000" stroke="#000000" stroke-opacity="0.200000" points="223.15,-221.49 217.87,-221.05 222.28,-218.1 223.15,-221.49"/>
</g>
<!-- packages/tonal&#45;objects/index.ts&#45;&gt;node_modules/@tonaljs/pitch&#45;interval -->
<g id="edge6" class="edge">
<title>packages/tonal&#45;objects/index.ts&#45;&gt;node_modules/@tonaljs/pitch&#45;interval</title>
<path fill="none" stroke="#000000" stroke-opacity="0.200000" d="M63.26,-327.78C71.4,-285.12 105,-109 105,-109 105,-109 191,-78 191,-78 191,-78 198.91,-75.95 208.89,-73.37"/>
<polygon fill="none" stroke="#000000" stroke-opacity="0.200000" points="209.52,-75.02 213.92,-72.07 208.64,-71.63 209.52,-75.02"/>
</g>
<!-- packages/tonal&#45;objects/index.ts&#45;&gt;node_modules/@tonaljs/pitch&#45;note -->
<g id="edge7" class="edge">
<title>packages/tonal&#45;objects/index.ts&#45;&gt;node_modules/@tonaljs/pitch&#45;note</title>
<path fill="none" stroke="#000000" stroke-opacity="0.200000" d="M65.21,-327.79C75.73,-301.67 105,-229 105,-229 105,-229 191,-198 191,-198 191,-198 201.44,-195.3 213.45,-192.19"/>
<polygon fill="none" stroke="#000000" stroke-opacity="0.200000" points="213.9,-193.89 218.3,-190.94 213.02,-190.5 213.9,-193.89"/>
</g>
<!-- packages/tonal&#45;objects/index.ts&#45;&gt;node_modules/@tonaljs/roman&#45;numeral -->
<g id="edge8" class="edge">
<title>packages/tonal&#45;objects/index.ts&#45;&gt;node_modules/@tonaljs/roman&#45;numeral</title>
<path fill="none" stroke="#000000" stroke-opacity="0.200000" d="M63.05,-327.82C70.8,-281.86 105,-79 105,-79 105,-79 191,-48 191,-48 191,-48 198.91,-45.95 208.89,-43.37"/>
<polygon fill="#000000" fill-opacity="0.200000" stroke="#000000" stroke-opacity="0.200000" points="214.36,-43.77 209.08,-43.32 213.48,-40.38 214.36,-43.77"/>
</g>
<!-- packages/tonal&#45;objects/index.ts&#45;&gt;node_modules/@tonaljs/scale -->
<g id="edge9" class="edge">
<title>packages/tonal&#45;objects/index.ts&#45;&gt;node_modules/@tonaljs/scale</title>
<path fill="none" stroke="#000000" stroke-opacity="0.200000" d="M64.35,-327.88C74.03,-296.96 105,-198 105,-198 105,-198 191,-168 191,-168 191,-168 203.98,-164.64 217.67,-161.1"/>
<polygon fill="#000000" fill-opacity="0.200000" stroke="#000000" stroke-opacity="0.200000" points="223.15,-161.49 217.87,-161.05 222.28,-158.1 223.15,-161.49"/>
</g>
<!-- packages/tonal&#45;objects/src/index.ts -->
<g id="node11" class="node">
<title>packages/tonal&#45;objects/src/index.ts</title>
<g id="a_node11"><a xlink:href="packages/tonal-objects/src/index.ts" xlink:title="index.ts">
<path fill="#ddfeff" stroke="black" d="M161,-354C161,-354 119,-354 119,-354 116,-354 113,-351 113,-348 113,-348 113,-342 113,-342 113,-339 116,-336 119,-336 119,-336 161,-336 161,-336 164,-336 167,-339 167,-342 167,-342 167,-348 167,-348 167,-351 164,-354 161,-354"/>
<text text-anchor="start" x="121.5" y="-342.8" font-family="Helvetica,sans-Serif" font-size="9.00">index.ts</text>
</a>
</g>
</g>
<!-- packages/tonal&#45;objects/index.ts&#45;&gt;packages/tonal&#45;objects/src/index.ts -->
<g id="edge1" class="edge">
<title>packages/tonal&#45;objects/index.ts&#45;&gt;packages/tonal&#45;objects/src/index.ts</title>
<path fill="none" stroke="#000000" stroke-opacity="0.200000" d="M87.74,-339.71C94.18,-340.37 101.13,-341.09 107.78,-341.78"/>
<polygon fill="#000000" fill-opacity="0.200000" stroke="#000000" stroke-opacity="0.200000" points="112.61,-344.04 107.82,-341.78 112.97,-340.55 112.61,-344.04"/>
</g>
<!-- packages/tonal&#45;objects/src/index.ts&#45;&gt;node_modules/@tonaljs/interval -->
<g id="edge11" class="edge">
<title>packages/tonal&#45;objects/src/index.ts&#45;&gt;node_modules/@tonaljs/interval</title>
<path fill="none" stroke="#000000" stroke-opacity="0.200000" d="M150.58,-335.95C169.83,-317.77 213.22,-276.79 235.4,-255.85"/>
<polygon fill="#000000" fill-opacity="0.200000" stroke="#000000" stroke-opacity="0.200000" points="239.28,-252.18 237.19,-257.25 237.46,-253.89 235.65,-255.61 235.65,-255.61 235.65,-255.61 237.46,-253.89 234.1,-253.98 239.28,-252.18 239.28,-252.18"/>
</g>
<!-- packages/tonal&#45;objects/src/index.ts&#45;&gt;node_modules/@tonaljs/note -->
<g id="edge12" class="edge">
<title>packages/tonal&#45;objects/src/index.ts&#45;&gt;node_modules/@tonaljs/note</title>
<path fill="none" stroke="#000000" stroke-opacity="0.200000" d="M144.92,-335.82C156.71,-308.24 191,-228 191,-228 191,-228 203.98,-224.64 217.67,-221.1"/>
<polygon fill="#000000" fill-opacity="0.200000" stroke="#000000" stroke-opacity="0.200000" points="222.72,-219.8 218.44,-223.23 220.29,-220.42 217.87,-221.05 217.87,-221.05 217.87,-221.05 220.29,-220.42 217.31,-218.87 222.72,-219.8 222.72,-219.8"/>
</g>
<!-- packages/tonal&#45;objects/src/index.ts&#45;&gt;node_modules/@tonaljs/pitch&#45;note -->
<g id="edge13" class="edge">
<title>packages/tonal&#45;objects/src/index.ts&#45;&gt;node_modules/@tonaljs/pitch&#45;note</title>
<path fill="none" stroke="#000000" stroke-opacity="0.200000" d="M144.13,-335.8C155.07,-303.62 191,-198 191,-198 191,-198 201.44,-195.3 213.45,-192.19"/>
<polygon fill="#000000" fill-opacity="0.200000" stroke="#000000" stroke-opacity="0.200000" points="218.3,-190.94 214.02,-194.37 215.88,-191.57 213.46,-192.19 213.46,-192.19 213.46,-192.19 215.88,-191.57 212.9,-190.01 218.3,-190.94 218.3,-190.94"/>
</g>
<!-- packages/util/stdlib/dist/index.js -->
<g id="node12" class="node">
<title>packages/util/stdlib/dist/index.js</title>
<g id="a_node12"><a xlink:href="packages/util/stdlib/dist/index.js" xlink:title="index.js">
<polygon fill="#ffffcc" stroke="black" points="277,-362 275.5,-364 265,-364 263.5,-362 223,-362 223,-344 277,-344 277,-362"/>
<text text-anchor="start" x="232.5" y="-350.8" font-family="Helvetica,sans-Serif" font-size="9.00">index.js</text>
</a>
</g>
</g>
<!-- packages/tonal&#45;objects/src/index.ts&#45;&gt;packages/util/stdlib/dist/index.js -->
<g id="edge10" class="edge">
<title>packages/tonal&#45;objects/src/index.ts&#45;&gt;packages/util/stdlib/dist/index.js</title>
<path fill="none" stroke="#000000" stroke-opacity="0.200000" d="M167.14,-346.94C182.29,-348.06 201.46,-349.48 217.44,-350.66"/>
<polygon fill="#000000" fill-opacity="0.200000" stroke="#000000" stroke-opacity="0.200000" points="222.72,-351.05 217.57,-352.93 220.23,-350.87 217.74,-350.68 217.74,-350.68 217.74,-350.68 220.23,-350.87 217.9,-348.44 222.72,-351.05 222.72,-351.05"/>
</g>
</g>
</svg>
