<?xml version="1.0" encoding="UTF-8" standalone="no"?>
<!DOCTYPE svg PUBLIC "-//W3C//DTD SVG 1.1//EN"
 "http://www.w3.org/Graphics/SVG/1.1/DTD/svg11.dtd">
<!-- Generated by graphviz version 2.43.0 (0)
 -->
<!-- Title: dependency&#45;cruiser output Pages: 1 -->
<svg width="714pt" height="1258pt"
 viewBox="0.00 0.00 714.00 1258.00" xmlns="http://www.w3.org/2000/svg" xmlns:xlink="http://www.w3.org/1999/xlink">
<g id="graph0" class="graph" transform="scale(1 1) rotate(0) translate(4 1254)">
<title>dependency&#45;cruiser output</title>
<polygon fill="white" stroke="transparent" points="-4,4 -4,-1254 710,-1254 710,4 -4,4"/>
<g id="clust1" class="cluster">
<title>cluster_node_modules</title>
<path fill="#ffffff" stroke="black" stroke-width="2" d="M232,-8C232,-8 326,-8 326,-8 332,-8 338,-14 338,-20 338,-20 338,-292 338,-292 338,-298 332,-304 326,-304 326,-304 232,-304 232,-304 226,-304 220,-298 220,-292 220,-292 220,-20 220,-20 220,-14 226,-8 232,-8"/>
<text text-anchor="middle" x="279" y="-292.8" font-family="Helvetica,sans-Serif" font-weight="bold" font-size="9.00">node_modules</text>
</g>
<g id="clust2" class="cluster">
<title>cluster_node_modules/@tonaljs</title>
<path fill="#ffffff" stroke="black" stroke-width="2" d="M240,-16C240,-16 318,-16 318,-16 324,-16 330,-22 330,-28 330,-28 330,-266 330,-266 330,-272 324,-278 318,-278 318,-278 240,-278 240,-278 234,-278 228,-272 228,-266 228,-266 228,-28 228,-28 228,-22 234,-16 240,-16"/>
<text text-anchor="middle" x="279" y="-266.8" font-family="Helvetica,sans-Serif" font-weight="bold" font-size="9.00">@tonaljs</text>
</g>
<g id="clust3" class="cluster">
<title>cluster_packages</title>
<path fill="#ffffff" stroke="black" stroke-width="2" d="M20,-312C20,-312 686,-312 686,-312 692,-312 698,-318 698,-324 698,-324 698,-1230 698,-1230 698,-1236 692,-1242 686,-1242 686,-1242 20,-1242 20,-1242 14,-1242 8,-1236 8,-1230 8,-1230 8,-324 8,-324 8,-318 14,-312 20,-312"/>
<text text-anchor="middle" x="353" y="-1230.8" font-family="Helvetica,sans-Serif" font-weight="bold" font-size="9.00">packages</text>
</g>
<g id="clust4" class="cluster">
<title>cluster_packages/tonal&#45;objects</title>
<path fill="#ffffff" stroke="black" stroke-width="2" d="M28,-320C28,-320 178,-320 178,-320 184,-320 190,-326 190,-332 190,-332 190,-1204 190,-1204 190,-1210 184,-1216 178,-1216 178,-1216 28,-1216 28,-1216 22,-1216 16,-1210 16,-1204 16,-1204 16,-332 16,-332 16,-326 22,-320 28,-320"/>
<text text-anchor="middle" x="103" y="-1204.8" font-family="Helvetica,sans-Serif" font-weight="bold" font-size="9.00">tonal&#45;objects</text>
</g>
<g id="clust5" class="cluster">
<title>cluster_packages/tonal&#45;objects/src</title>
<path fill="#ffffff" stroke="black" stroke-width="2" d="M36,-354C36,-354 170,-354 170,-354 176,-354 182,-360 182,-366 182,-366 182,-1178 182,-1178 182,-1184 176,-1190 170,-1190 170,-1190 36,-1190 36,-1190 30,-1190 24,-1184 24,-1178 24,-1178 24,-366 24,-366 24,-360 30,-354 36,-354"/>
<text text-anchor="middle" x="103" y="-1178.8" font-family="Helvetica,sans-Serif" font-weight="bold" font-size="9.00">src</text>
</g>
<g id="clust6" class="cluster">
<title>cluster_packages/tonal&#45;objects/src/chord</title>
<path fill="#ffffff" stroke="black" stroke-width="2" d="M65.5,-1052C65.5,-1052 140.5,-1052 140.5,-1052 146.5,-1052 152.5,-1058 152.5,-1064 152.5,-1064 152.5,-1152 152.5,-1152 152.5,-1158 146.5,-1164 140.5,-1164 140.5,-1164 65.5,-1164 65.5,-1164 59.5,-1164 53.5,-1158 53.5,-1152 53.5,-1152 53.5,-1064 53.5,-1064 53.5,-1058 59.5,-1052 65.5,-1052"/>
<text text-anchor="start" x="88" y="-1152.8" font-family="Helvetica,sans-Serif" font-weight="bold" font-size="9.00">chord</text>
</g>
<g id="clust7" class="cluster">
<title>cluster_packages/tonal&#45;objects/src/interval</title>
<path fill="#ffffff" stroke="black" stroke-width="2" d="M59,-842C59,-842 147,-842 147,-842 153,-842 159,-848 159,-854 159,-854 159,-1032 159,-1032 159,-1038 153,-1044 147,-1044 147,-1044 59,-1044 59,-1044 53,-1044 47,-1038 47,-1032 47,-1032 47,-854 47,-854 47,-848 53,-842 59,-842"/>
<text text-anchor="start" x="83" y="-1032.8" font-family="Helvetica,sans-Serif" font-weight="bold" font-size="9.00">interval</text>
</g>
<g id="clust8" class="cluster">
<title>cluster_packages/tonal&#45;objects/src/key</title>
<path fill="#ffffff" stroke="black" stroke-width="2" d="M71.5,-752C71.5,-752 134.5,-752 134.5,-752 140.5,-752 146.5,-758 146.5,-764 146.5,-764 146.5,-822 146.5,-822 146.5,-828 140.5,-834 134.5,-834 134.5,-834 71.5,-834 71.5,-834 65.5,-834 59.5,-828 59.5,-822 59.5,-822 59.5,-764 59.5,-764 59.5,-758 65.5,-752 71.5,-752"/>
<text text-anchor="start" x="93.5" y="-822.8" font-family="Helvetica,sans-Serif" font-weight="bold" font-size="9.00">key</text>
</g>
<g id="clust9" class="cluster">
<title>cluster_packages/tonal&#45;objects/src/note</title>
<path fill="#ffffff" stroke="black" stroke-width="2" d="M44,-542C44,-542 162,-542 162,-542 168,-542 174,-548 174,-554 174,-554 174,-732 174,-732 174,-738 168,-744 162,-744 162,-744 44,-744 44,-744 38,-744 32,-738 32,-732 32,-732 32,-554 32,-554 32,-548 38,-542 44,-542"/>
<text text-anchor="start" x="91" y="-732.8" font-family="Helvetica,sans-Serif" font-weight="bold" font-size="9.00">note</text>
</g>
<g id="clust10" class="cluster">
<title>cluster_packages/tonal&#45;objects/src/roman&#45;numeral</title>
<path fill="#ffffff" stroke="black" stroke-width="2" d="M67,-482C67,-482 139,-482 139,-482 145,-482 151,-488 151,-494 151,-494 151,-522 151,-522 151,-528 145,-534 139,-534 139,-534 67,-534 67,-534 61,-534 55,-528 55,-522 55,-522 55,-494 55,-494 55,-488 61,-482 67,-482"/>
<text text-anchor="start" x="63" y="-522.8" font-family="Helvetica,sans-Serif" font-weight="bold" font-size="9.00">roman&#45;numeral</text>
</g>
<g id="clust11" class="cluster">
<title>cluster_packages/tonal&#45;objects/src/scale</title>
<path fill="#ffffff" stroke="black" stroke-width="2" d="M67.5,-362C67.5,-362 138.5,-362 138.5,-362 144.5,-362 150.5,-368 150.5,-374 150.5,-374 150.5,-462 150.5,-462 150.5,-468 144.5,-474 138.5,-474 138.5,-474 67.5,-474 67.5,-474 61.5,-474 55.5,-468 55.5,-462 55.5,-462 55.5,-374 55.5,-374 55.5,-368 61.5,-362 67.5,-362"/>
<text text-anchor="start" x="90" y="-462.8" font-family="Helvetica,sans-Serif" font-weight="bold" font-size="9.00">scale</text>
</g>
<g id="clust12" class="cluster">
<title>cluster_packages/util</title>
<path fill="#ffffff" stroke="black" stroke-width="2" d="M210,-736C210,-736 678,-736 678,-736 684,-736 690,-742 690,-748 690,-748 690,-908 690,-908 690,-914 684,-920 678,-920 678,-920 210,-920 210,-920 204,-920 198,-914 198,-908 198,-908 198,-748 198,-748 198,-742 204,-736 210,-736"/>
<text text-anchor="middle" x="444" y="-908.8" font-family="Helvetica,sans-Serif" font-weight="bold" font-size="9.00">util</text>
</g>
<g id="clust13" class="cluster">
<title>cluster_packages/util/stdlib</title>
<path fill="#ffffff" stroke="black" stroke-width="2" d="M218,-744C218,-744 670,-744 670,-744 676,-744 682,-750 682,-756 682,-756 682,-882 682,-882 682,-888 676,-894 670,-894 670,-894 218,-894 218,-894 212,-894 206,-888 206,-882 206,-882 206,-756 206,-756 206,-750 212,-744 218,-744"/>
<text text-anchor="middle" x="444" y="-882.8" font-family="Helvetica,sans-Serif" font-weight="bold" font-size="9.00">stdlib</text>
</g>
<g id="clust14" class="cluster">
<title>cluster_packages/util/stdlib/src</title>
<path fill="#ffffff" stroke="black" stroke-width="2" d="M226,-752C226,-752 662,-752 662,-752 668,-752 674,-758 674,-764 674,-764 674,-856 674,-856 674,-862 668,-868 662,-868 662,-868 226,-868 226,-868 220,-868 214,-862 214,-856 214,-856 214,-764 214,-764 214,-758 220,-752 226,-752"/>
<text text-anchor="middle" x="444" y="-856.8" font-family="Helvetica,sans-Serif" font-weight="bold" font-size="9.00">src</text>
</g>
<g id="clust15" class="cluster">
<title>cluster_packages/util/stdlib/src/assertion</title>
<path fill="#ffffff" stroke="black" stroke-width="2" d="M358,-760C358,-760 535,-760 535,-760 541,-760 547,-766 547,-772 547,-772 547,-830 547,-830 547,-836 541,-842 535,-842 535,-842 358,-842 358,-842 352,-842 346,-836 346,-830 346,-830 346,-772 346,-772 346,-766 352,-760 358,-760"/>
<text text-anchor="middle" x="446.5" y="-830.8" font-family="Helvetica,sans-Serif" font-weight="bold" font-size="9.00">assertion</text>
</g>
<g id="clust16" class="cluster">
<title>cluster_packages/util/stdlib/src/error</title>
<path fill="#ffffff" stroke="black" stroke-width="2" d="M567,-790C567,-790 654,-790 654,-790 660,-790 666,-796 666,-802 666,-802 666,-830 666,-830 666,-836 660,-842 654,-842 654,-842 567,-842 567,-842 561,-842 555,-836 555,-830 555,-830 555,-802 555,-802 555,-796 561,-790 567,-790"/>
<text text-anchor="middle" x="610.5" y="-830.8" font-family="Helvetica,sans-Serif" font-weight="bold" font-size="9.00">error</text>
</g>
<g id="clust17" class="cluster">
<title>cluster_packages/util/stdlib/src/string</title>
<path fill="#ffffff" stroke="black" stroke-width="2" d="M234,-775C234,-775 324,-775 324,-775 330,-775 336,-781 336,-787 336,-787 336,-815 336,-815 336,-821 330,-827 324,-827 324,-827 234,-827 234,-827 228,-827 222,-821 222,-815 222,-815 222,-787 222,-787 222,-781 228,-775 234,-775"/>
<text text-anchor="middle" x="279" y="-815.8" font-family="Helvetica,sans-Serif" font-weight="bold" font-size="9.00">string</text>
</g>
<!-- node_modules/@tonaljs/chord -->
<g id="node1" class="node">
<title>node_modules/@tonaljs/chord</title>
<g id="a_node1"><a xlink:href="https://www.npmjs.com/package/@tonaljs/chord" xlink:title="chord">
<polygon fill="#c40b0a" fill-opacity="0.101961" stroke="black" points="306,-252 254,-252 252,-250 252,-234 304,-234 306,-236 306,-252"/>
<polyline fill="none" stroke="black" points="304,-250 252,-250 "/>
<polyline fill="none" stroke="black" points="304,-250 304,-234 "/>
<polyline fill="none" stroke="black" points="304,-250 306,-252 "/>
<text text-anchor="start" x="265.5" y="-240.8" font-family="Helvetica,sans-Serif" font-size="9.00" fill="#c40b0a">chord</text>
</a>
</g>
</g>
<!-- node_modules/@tonaljs/interval -->
<g id="node2" class="node">
<title>node_modules/@tonaljs/interval</title>
<g id="a_node2"><a xlink:href="https://www.npmjs.com/package/@tonaljs/interval" xlink:title="interval">
<polygon fill="#c40b0a" fill-opacity="0.101961" stroke="black" points="306,-222 254,-222 252,-220 252,-204 304,-204 306,-206 306,-222"/>
<polyline fill="none" stroke="black" points="304,-220 252,-220 "/>
<polyline fill="none" stroke="black" points="304,-220 304,-204 "/>
<polyline fill="none" stroke="black" points="304,-220 306,-222 "/>
<text text-anchor="start" x="262" y="-210.8" font-family="Helvetica,sans-Serif" font-size="9.00" fill="#c40b0a">interval</text>
</a>
</g>
</g>
<!-- node_modules/@tonaljs/key -->
<g id="node3" class="node">
<title>node_modules/@tonaljs/key</title>
<g id="a_node3"><a xlink:href="https://www.npmjs.com/package/@tonaljs/key" xlink:title="key">
<polygon fill="#c40b0a" fill-opacity="0.101961" stroke="black" points="306,-162 254,-162 252,-160 252,-144 304,-144 306,-146 306,-162"/>
<polyline fill="none" stroke="black" points="304,-160 252,-160 "/>
<polyline fill="none" stroke="black" points="304,-160 304,-144 "/>
<polyline fill="none" stroke="black" points="304,-160 306,-162 "/>
<text text-anchor="start" x="271" y="-150.8" font-family="Helvetica,sans-Serif" font-size="9.00" fill="#c40b0a">key</text>
</a>
</g>
</g>
<!-- node_modules/@tonaljs/note -->
<g id="node4" class="node">
<title>node_modules/@tonaljs/note</title>
<g id="a_node4"><a xlink:href="https://www.npmjs.com/package/@tonaljs/note" xlink:title="note">
<polygon fill="#c40b0a" fill-opacity="0.101961" stroke="black" points="306,-132 254,-132 252,-130 252,-114 304,-114 306,-116 306,-132"/>
<polyline fill="none" stroke="black" points="304,-130 252,-130 "/>
<polyline fill="none" stroke="black" points="304,-130 304,-114 "/>
<polyline fill="none" stroke="black" points="304,-130 306,-132 "/>
<text text-anchor="start" x="268.5" y="-120.8" font-family="Helvetica,sans-Serif" font-size="9.00" fill="#c40b0a">note</text>
</a>
</g>
</g>
<!-- node_modules/@tonaljs/pitch&#45;interval -->
<g id="node5" class="node">
<title>node_modules/@tonaljs/pitch&#45;interval</title>
<g id="a_node5"><a xlink:href="https://www.npmjs.com/package/@tonaljs/pitch-interval" xlink:title="pitch&#45;interval">
<polygon fill="#c40b0a" fill-opacity="0.101961" stroke="black" points="317.5,-192 242.5,-192 240.5,-190 240.5,-174 315.5,-174 317.5,-176 317.5,-192"/>
<polyline fill="none" stroke="black" points="315.5,-190 240.5,-190 "/>
<polyline fill="none" stroke="black" points="315.5,-190 315.5,-174 "/>
<polyline fill="none" stroke="black" points="315.5,-190 317.5,-192 "/>
<text text-anchor="start" x="248.5" y="-180.8" font-family="Helvetica,sans-Serif" font-size="9.00" fill="#c40b0a">pitch&#45;interval</text>
</a>
</g>
</g>
<!-- node_modules/@tonaljs/pitch&#45;note -->
<g id="node6" class="node">
<title>node_modules/@tonaljs/pitch&#45;note</title>
<g id="a_node6"><a xlink:href="https://www.npmjs.com/package/@tonaljs/pitch-note" xlink:title="pitch&#45;note">
<polygon fill="#c40b0a" fill-opacity="0.101961" stroke="black" points="310.5,-102 249.5,-102 247.5,-100 247.5,-84 308.5,-84 310.5,-86 310.5,-102"/>
<polyline fill="none" stroke="black" points="308.5,-100 247.5,-100 "/>
<polyline fill="none" stroke="black" points="308.5,-100 308.5,-84 "/>
<polyline fill="none" stroke="black" points="308.5,-100 310.5,-102 "/>
<text text-anchor="start" x="255.5" y="-90.8" font-family="Helvetica,sans-Serif" font-size="9.00" fill="#c40b0a">pitch&#45;note</text>
</a>
</g>
</g>
<!-- node_modules/@tonaljs/roman&#45;numeral -->
<g id="node7" class="node">
<title>node_modules/@tonaljs/roman&#45;numeral</title>
<g id="a_node7"><a xlink:href="https://www.npmjs.com/package/@tonaljs/roman-numeral" xlink:title="roman&#45;numeral">
<polygon fill="#c40b0a" fill-opacity="0.101961" stroke="black" points="322,-72 238,-72 236,-70 236,-54 320,-54 322,-56 322,-72"/>
<polyline fill="none" stroke="black" points="320,-70 236,-70 "/>
<polyline fill="none" stroke="black" points="320,-70 320,-54 "/>
<polyline fill="none" stroke="black" points="320,-70 322,-72 "/>
<text text-anchor="start" x="244" y="-60.8" font-family="Helvetica,sans-Serif" font-size="9.00" fill="#c40b0a">roman&#45;numeral</text>
</a>
</g>
</g>
<!-- node_modules/@tonaljs/scale -->
<g id="node8" class="node">
<title>node_modules/@tonaljs/scale</title>
<g id="a_node8"><a xlink:href="https://www.npmjs.com/package/@tonaljs/scale" xlink:title="scale">
<polygon fill="#c40b0a" fill-opacity="0.101961" stroke="black" points="306,-42 254,-42 252,-40 252,-24 304,-24 306,-26 306,-42"/>
<polyline fill="none" stroke="black" points="304,-40 252,-40 "/>
<polyline fill="none" stroke="black" points="304,-40 304,-24 "/>
<polyline fill="none" stroke="black" points="304,-40 306,-42 "/>
<text text-anchor="start" x="267.5" y="-30.8" font-family="Helvetica,sans-Serif" font-size="9.00" fill="#c40b0a">scale</text>
</a>
</g>
</g>
<!-- packages/tonal&#45;objects/index.test.ts -->
<g id="node9" class="node">
<title>packages/tonal&#45;objects/index.test.ts</title>
<g id="a_node9"><a xlink:href="packages/tonal-objects/index.test.ts" xlink:title="no&#45;orphans">
<path fill="#ccffcc" stroke="orange" d="M133.5,-346C133.5,-346 72.5,-346 72.5,-346 69.5,-346 66.5,-343 66.5,-340 66.5,-340 66.5,-334 66.5,-334 66.5,-331 69.5,-328 72.5,-328 72.5,-328 133.5,-328 133.5,-328 136.5,-328 139.5,-331 139.5,-334 139.5,-334 139.5,-340 139.5,-340 139.5,-343 136.5,-346 133.5,-346"/>
<text text-anchor="start" x="74.5" y="-334.8" font-family="Helvetica,sans-Serif" font-size="9.00" fill="orange">index.test.ts</text>
</a>
</g>
</g>
<!-- packages/tonal&#45;objects/src/chord/chord&#45;name.ts -->
<g id="node10" class="node">
<title>packages/tonal&#45;objects/src/chord/chord&#45;name.ts</title>
<g id="a_node10"><a xlink:href="packages/tonal-objects/src/chord/chord-name.ts" xlink:title="no&#45;orphans">
<path fill="#ccffcc" stroke="orange" d="M138.5,-1138C138.5,-1138 67.5,-1138 67.5,-1138 64.5,-1138 61.5,-1135 61.5,-1132 61.5,-1132 61.5,-1126 61.5,-1126 61.5,-1123 64.5,-1120 67.5,-1120 67.5,-1120 138.5,-1120 138.5,-1120 141.5,-1120 144.5,-1123 144.5,-1126 144.5,-1126 144.5,-1132 144.5,-1132 144.5,-1135 141.5,-1138 138.5,-1138"/>
<text text-anchor="start" x="69.5" y="-1126.8" font-family="Helvetica,sans-Serif" font-size="9.00" fill="orange">chord&#45;name.ts</text>
</a>
</g>
</g>
<!-- packages/tonal&#45;objects/src/chord/chord.ts -->
<g id="node11" class="node">
<title>packages/tonal&#45;objects/src/chord/chord.ts</title>
<g id="a_node11"><a xlink:href="packages/tonal-objects/src/chord/chord.ts" xlink:title="chord.ts">
<path fill="#ddfeff" stroke="black" d="M124,-1108C124,-1108 82,-1108 82,-1108 79,-1108 76,-1105 76,-1102 76,-1102 76,-1096 76,-1096 76,-1093 79,-1090 82,-1090 82,-1090 124,-1090 124,-1090 127,-1090 130,-1093 130,-1096 130,-1096 130,-1102 130,-1102 130,-1105 127,-1108 124,-1108"/>
<text text-anchor="start" x="84" y="-1096.8" font-family="Helvetica,sans-Serif" font-size="9.00">chord.ts</text>
</a>
</g>
</g>
<!-- packages/tonal&#45;objects/src/chord/chord.ts&#45;&gt;node_modules/@tonaljs/chord -->
<g id="edge1" class="edge">
<title>packages/tonal&#45;objects/src/chord/chord.ts&#45;&gt;node_modules/@tonaljs/chord</title>
<path fill="none" stroke="#000000" stroke-opacity="0.200000" d="M105.84,-1089.97C122.88,-1006.13 253.26,-364.73 274.95,-258.02"/>
<polygon fill="none" stroke="#000000" stroke-opacity="0.200000" points="277.03,-258.33 276.16,-252.04 272.91,-257.5 277.03,-258.33"/>
</g>
<!-- packages/tonal&#45;objects/src/chord/get.ts -->
<g id="node12" class="node">
<title>packages/tonal&#45;objects/src/chord/get.ts</title>
<g id="a_node12"><a xlink:href="packages/tonal-objects/src/chord/get.ts" xlink:title="get.ts">
<path fill="#ddfeff" stroke="black" d="M124,-1078C124,-1078 82,-1078 82,-1078 79,-1078 76,-1075 76,-1072 76,-1072 76,-1066 76,-1066 76,-1063 79,-1060 82,-1060 82,-1060 124,-1060 124,-1060 127,-1060 130,-1063 130,-1066 130,-1066 130,-1072 130,-1072 130,-1075 127,-1078 124,-1078"/>
<text text-anchor="start" x="89.5" y="-1066.8" font-family="Helvetica,sans-Serif" font-size="9.00">get.ts</text>
</a>
</g>
</g>
<!-- packages/tonal&#45;objects/src/chord/get.ts&#45;&gt;node_modules/@tonaljs/chord -->
<g id="edge2" class="edge">
<title>packages/tonal&#45;objects/src/chord/get.ts&#45;&gt;node_modules/@tonaljs/chord</title>
<path fill="none" stroke="#000000" stroke-opacity="0.200000" d="M105.95,-1059.72C123.43,-976.74 252.81,-362.57 274.82,-258.09"/>
<polygon fill="#000000" fill-opacity="0.200000" stroke="#000000" stroke-opacity="0.200000" points="278.12,-252.64 274.82,-258.08 274.01,-251.77 278.12,-252.64"/>
</g>
<!-- packages/tonal&#45;objects/src/interval/get.ts -->
<g id="node13" class="node">
<title>packages/tonal&#45;objects/src/interval/get.ts</title>
<g id="a_node13"><a xlink:href="packages/tonal-objects/src/interval/get.ts" xlink:title="get.ts">
<path fill="#ddfeff" stroke="black" d="M124,-1018C124,-1018 82,-1018 82,-1018 79,-1018 76,-1015 76,-1012 76,-1012 76,-1006 76,-1006 76,-1003 79,-1000 82,-1000 82,-1000 124,-1000 124,-1000 127,-1000 130,-1003 130,-1006 130,-1006 130,-1012 130,-1012 130,-1015 127,-1018 124,-1018"/>
<text text-anchor="start" x="89.5" y="-1006.8" font-family="Helvetica,sans-Serif" font-size="9.00">get.ts</text>
</a>
</g>
</g>
<!-- packages/tonal&#45;objects/src/interval/get.ts&#45;&gt;node_modules/@tonaljs/interval -->
<g id="edge3" class="edge">
<title>packages/tonal&#45;objects/src/interval/get.ts&#45;&gt;node_modules/@tonaljs/interval</title>
<path fill="none" stroke="#000000" stroke-opacity="0.200000" d="M106.01,-999.79C123.7,-918.9 252.34,-330.41 274.69,-228.13"/>
<polygon fill="#000000" fill-opacity="0.200000" stroke="#000000" stroke-opacity="0.200000" points="278.06,-222.56 274.73,-227.97 273.96,-221.66 278.06,-222.56"/>
</g>
<!-- packages/tonal&#45;objects/src/interval/interval&#45;degree.ts -->
<g id="node14" class="node">
<title>packages/tonal&#45;objects/src/interval/interval&#45;degree.ts</title>
<g id="a_node14"><a xlink:href="packages/tonal-objects/src/interval/interval-degree.ts" xlink:title="interval&#45;degree.ts">
<path fill="#ddfeff" stroke="black" d="M145,-988C145,-988 61,-988 61,-988 58,-988 55,-985 55,-982 55,-982 55,-976 55,-976 55,-973 58,-970 61,-970 61,-970 145,-970 145,-970 148,-970 151,-973 151,-976 151,-976 151,-982 151,-982 151,-985 148,-988 145,-988"/>
<text text-anchor="start" x="63" y="-976.8" font-family="Helvetica,sans-Serif" font-size="9.00">interval&#45;degree.ts</text>
</a>
</g>
</g>
<!-- packages/tonal&#45;objects/src/interval/interval&#45;degree.ts&#45;&gt;node_modules/@tonaljs/interval -->
<g id="edge5" class="edge">
<title>packages/tonal&#45;objects/src/interval/interval&#45;degree.ts&#45;&gt;node_modules/@tonaljs/interval</title>
<path fill="none" stroke="#000000" stroke-opacity="0.200000" d="M106.08,-969.86C123.93,-891.24 251.58,-329.3 274.49,-228.47"/>
<polygon fill="#000000" fill-opacity="0.200000" stroke="#000000" stroke-opacity="0.200000" points="276.56,-228.82 275.84,-222.51 272.46,-227.89 276.56,-228.82"/>
</g>
<!-- packages/tonal&#45;objects/src/interval/interval&#45;degree.ts&#45;&gt;node_modules/@tonaljs/pitch&#45;note -->
<g id="edge6" class="edge">
<title>packages/tonal&#45;objects/src/interval/interval&#45;degree.ts&#45;&gt;node_modules/@tonaljs/pitch&#45;note</title>
<path fill="none" stroke="#000000" stroke-opacity="0.200000" d="M105.78,-969.94C122.6,-884.3 253.48,-217.86 275.01,-108.24"/>
<polygon fill="#000000" fill-opacity="0.200000" stroke="#000000" stroke-opacity="0.200000" points="277.12,-108.39 276.21,-102.09 273,-107.58 277.12,-108.39"/>
</g>
<!-- packages/util/stdlib/src/string/cast&#45;to&#45;number.ts -->
<g id="node15" class="node">
<title>packages/util/stdlib/src/string/cast&#45;to&#45;number.ts</title>
<g id="a_node15"><a xlink:href="packages/util/stdlib/src/string/cast-to-number.ts" xlink:title="cast&#45;to&#45;number.ts">
<path fill="#ddfeff" stroke="black" d="M322,-801C322,-801 236,-801 236,-801 233,-801 230,-798 230,-795 230,-795 230,-789 230,-789 230,-786 233,-783 236,-783 236,-783 322,-783 322,-783 325,-783 328,-786 328,-789 328,-789 328,-795 328,-795 328,-798 325,-801 322,-801"/>
<text text-anchor="start" x="238" y="-789.8" font-family="Helvetica,sans-Serif" font-size="9.00">cast&#45;to&#45;number.ts</text>
</a>
</g>
</g>
<!-- packages/tonal&#45;objects/src/interval/interval&#45;degree.ts&#45;&gt;packages/util/stdlib/src/string/cast&#45;to&#45;number.ts -->
<g id="edge4" class="edge">
<title>packages/tonal&#45;objects/src/interval/interval&#45;degree.ts&#45;&gt;packages/util/stdlib/src/string/cast&#45;to&#45;number.ts</title>
<path fill="none" stroke="#000000" stroke-width="2" stroke-opacity="0.200000" d="M112.39,-969.98C140.46,-939.82 231.18,-842.32 265.07,-805.89"/>
<polygon fill="#000000" fill-opacity="0.200000" stroke="#000000" stroke-width="2" stroke-opacity="0.200000" points="266.73,-807.19 269.28,-801.37 263.66,-804.33 266.73,-807.19"/>
</g>
<!-- packages/util/stdlib/src/assertion/not&#45;nan.ts -->
<g id="node33" class="node">
<title>packages/util/stdlib/src/assertion/not&#45;nan.ts</title>
<g id="a_node33"><a xlink:href="packages/util/stdlib/src/assertion/not-nan.ts" xlink:title="not&#45;nan.ts">
<path fill="#ddfeff" stroke="black" d="M419.5,-816C419.5,-816 368.5,-816 368.5,-816 365.5,-816 362.5,-813 362.5,-810 362.5,-810 362.5,-804 362.5,-804 362.5,-801 365.5,-798 368.5,-798 368.5,-798 419.5,-798 419.5,-798 422.5,-798 425.5,-801 425.5,-804 425.5,-804 425.5,-810 425.5,-810 425.5,-813 422.5,-816 419.5,-816"/>
<text text-anchor="start" x="370.5" y="-804.8" font-family="Helvetica,sans-Serif" font-size="9.00">not&#45;nan.ts</text>
</a>
</g>
</g>
<!-- packages/util/stdlib/src/string/cast&#45;to&#45;number.ts&#45;&gt;packages/util/stdlib/src/assertion/not&#45;nan.ts -->
<g id="edge29" class="edge">
<title>packages/util/stdlib/src/string/cast&#45;to&#45;number.ts&#45;&gt;packages/util/stdlib/src/assertion/not&#45;nan.ts</title>
<path fill="none" stroke="#000000" stroke-width="2" stroke-opacity="0.200000" d="M328.25,-798.4C337.61,-799.65 347.27,-800.93 356.19,-802.11"/>
<polygon fill="#000000" fill-opacity="0.200000" stroke="#000000" stroke-width="2" stroke-opacity="0.200000" points="356.01,-804.21 362.23,-802.92 356.56,-800.04 356.01,-804.21"/>
</g>
<!-- packages/tonal&#45;objects/src/interval/interval&#45;literal.ts -->
<g id="node16" class="node">
<title>packages/tonal&#45;objects/src/interval/interval&#45;literal.ts</title>
<g id="a_node16"><a xlink:href="packages/tonal-objects/src/interval/interval-literal.ts" xlink:title="interval&#45;literal.ts">
<path fill="#ddfeff" stroke="black" d="M141.5,-868C141.5,-868 64.5,-868 64.5,-868 61.5,-868 58.5,-865 58.5,-862 58.5,-862 58.5,-856 58.5,-856 58.5,-853 61.5,-850 64.5,-850 64.5,-850 141.5,-850 141.5,-850 144.5,-850 147.5,-853 147.5,-856 147.5,-856 147.5,-862 147.5,-862 147.5,-865 144.5,-868 141.5,-868"/>
<text text-anchor="start" x="66.5" y="-856.8" font-family="Helvetica,sans-Serif" font-size="9.00">interval&#45;literal.ts</text>
</a>
</g>
</g>
<!-- packages/tonal&#45;objects/src/interval/interval&#45;literal.ts&#45;&gt;node_modules/@tonaljs/pitch&#45;interval -->
<g id="edge7" class="edge">
<title>packages/tonal&#45;objects/src/interval/interval&#45;literal.ts&#45;&gt;node_modules/@tonaljs/pitch&#45;interval</title>
<path fill="none" stroke="#000000" stroke-opacity="0.200000" d="M106.33,-849.96C125,-777.43 250.23,-290.9 274.08,-198.23"/>
<polygon fill="none" stroke="#000000" stroke-opacity="0.200000" points="276.16,-198.58 275.62,-192.25 272.09,-197.54 276.16,-198.58"/>
</g>
<!-- packages/tonal&#45;objects/src/interval/interval&#45;name.ts -->
<g id="node17" class="node">
<title>packages/tonal&#45;objects/src/interval/interval&#45;name.ts</title>
<g id="a_node17"><a xlink:href="packages/tonal-objects/src/interval/interval-name.ts" xlink:title="interval&#45;name.ts">
<path fill="#ddfeff" stroke="black" d="M142,-928C142,-928 64,-928 64,-928 61,-928 58,-925 58,-922 58,-922 58,-916 58,-916 58,-913 61,-910 64,-910 64,-910 142,-910 142,-910 145,-910 148,-913 148,-916 148,-916 148,-922 148,-922 148,-925 145,-928 142,-928"/>
<text text-anchor="start" x="66" y="-916.8" font-family="Helvetica,sans-Serif" font-size="9.00">interval&#45;name.ts</text>
</a>
</g>
</g>
<!-- packages/tonal&#45;objects/src/interval/interval&#45;name.ts&#45;&gt;node_modules/@tonaljs/pitch&#45;interval -->
<g id="edge8" class="edge">
<title>packages/tonal&#45;objects/src/interval/interval&#45;name.ts&#45;&gt;node_modules/@tonaljs/pitch&#45;interval</title>
<path fill="none" stroke="#000000" stroke-opacity="0.200000" d="M106.14,-909.96C124.21,-833.51 251.38,-295.6 274.42,-198.13"/>
<polygon fill="none" stroke="#000000" stroke-opacity="0.200000" points="276.51,-198.44 275.84,-192.12 272.42,-197.47 276.51,-198.44"/>
</g>
<!-- packages/tonal&#45;objects/src/interval/interval.ts -->
<g id="node18" class="node">
<title>packages/tonal&#45;objects/src/interval/interval.ts</title>
<g id="a_node18"><a xlink:href="packages/tonal-objects/src/interval/interval.ts" xlink:title="interval.ts">
<path fill="#ddfeff" stroke="black" d="M128,-898C128,-898 78,-898 78,-898 75,-898 72,-895 72,-892 72,-892 72,-886 72,-886 72,-883 75,-880 78,-880 78,-880 128,-880 128,-880 131,-880 134,-883 134,-886 134,-886 134,-892 134,-892 134,-895 131,-898 128,-898"/>
<text text-anchor="start" x="80" y="-886.8" font-family="Helvetica,sans-Serif" font-size="9.00">interval.ts</text>
</a>
</g>
</g>
<!-- packages/tonal&#45;objects/src/interval/interval.ts&#45;&gt;node_modules/@tonaljs/pitch&#45;interval -->
<g id="edge9" class="edge">
<title>packages/tonal&#45;objects/src/interval/interval.ts&#45;&gt;node_modules/@tonaljs/pitch&#45;interval</title>
<path fill="none" stroke="#000000" stroke-opacity="0.200000" d="M106.26,-879.82C124.76,-804.77 250.95,-292.74 274.29,-198.04"/>
<polygon fill="none" stroke="#000000" stroke-opacity="0.200000" points="276.34,-198.52 275.74,-192.19 272.26,-197.51 276.34,-198.52"/>
</g>
<!-- packages/tonal&#45;objects/src/interval/semitones.ts -->
<g id="node19" class="node">
<title>packages/tonal&#45;objects/src/interval/semitones.ts</title>
<g id="a_node19"><a xlink:href="packages/tonal-objects/src/interval/semitones.ts" xlink:title="semitones.ts">
<path fill="#ddfeff" stroke="black" d="M134,-958C134,-958 72,-958 72,-958 69,-958 66,-955 66,-952 66,-952 66,-946 66,-946 66,-943 69,-940 72,-940 72,-940 134,-940 134,-940 137,-940 140,-943 140,-946 140,-946 140,-952 140,-952 140,-955 137,-958 134,-958"/>
<text text-anchor="start" x="74" y="-946.8" font-family="Helvetica,sans-Serif" font-size="9.00">semitones.ts</text>
</a>
</g>
</g>
<!-- packages/tonal&#45;objects/src/interval/semitones.ts&#45;&gt;node_modules/@tonaljs/interval -->
<g id="edge10" class="edge">
<title>packages/tonal&#45;objects/src/interval/semitones.ts&#45;&gt;node_modules/@tonaljs/interval</title>
<path fill="none" stroke="#000000" stroke-opacity="0.200000" d="M106.14,-939.96C124.21,-863.51 251.38,-325.6 274.42,-228.13"/>
<polygon fill="#000000" fill-opacity="0.200000" stroke="#000000" stroke-opacity="0.200000" points="277.89,-222.6 274.46,-227.96 273.8,-221.63 277.89,-222.6"/>
</g>
<!-- packages/tonal&#45;objects/src/key/major&#45;key.ts -->
<g id="node20" class="node">
<title>packages/tonal&#45;objects/src/key/major&#45;key.ts</title>
<g id="a_node20"><a xlink:href="packages/tonal-objects/src/key/major-key.ts" xlink:title="major&#45;key.ts">
<path fill="#ddfeff" stroke="black" d="M132,-808C132,-808 74,-808 74,-808 71,-808 68,-805 68,-802 68,-802 68,-796 68,-796 68,-793 71,-790 74,-790 74,-790 132,-790 132,-790 135,-790 138,-793 138,-796 138,-796 138,-802 138,-802 138,-805 135,-808 132,-808"/>
<text text-anchor="start" x="76" y="-796.8" font-family="Helvetica,sans-Serif" font-size="9.00">major&#45;key.ts</text>
</a>
</g>
</g>
<!-- packages/tonal&#45;objects/src/key/major&#45;key.ts&#45;&gt;node_modules/@tonaljs/key -->
<g id="edge11" class="edge">
<title>packages/tonal&#45;objects/src/key/major&#45;key.ts&#45;&gt;node_modules/@tonaljs/key</title>
<path fill="none" stroke="#000000" stroke-opacity="0.200000" d="M106.46,-789.87C125.54,-719.03 249.81,-257.65 273.94,-168.06"/>
<polygon fill="#000000" fill-opacity="0.200000" stroke="#000000" stroke-opacity="0.200000" points="277.53,-162.81 273.95,-168.05 273.48,-161.71 277.53,-162.81"/>
</g>
<!-- packages/tonal&#45;objects/src/key/minor&#45;key.ts -->
<g id="node21" class="node">
<title>packages/tonal&#45;objects/src/key/minor&#45;key.ts</title>
<g id="a_node21"><a xlink:href="packages/tonal-objects/src/key/minor-key.ts" xlink:title="minor&#45;key.ts">
<path fill="#ddfeff" stroke="black" d="M132.5,-778C132.5,-778 73.5,-778 73.5,-778 70.5,-778 67.5,-775 67.5,-772 67.5,-772 67.5,-766 67.5,-766 67.5,-763 70.5,-760 73.5,-760 73.5,-760 132.5,-760 132.5,-760 135.5,-760 138.5,-763 138.5,-766 138.5,-766 138.5,-772 138.5,-772 138.5,-775 135.5,-778 132.5,-778"/>
<text text-anchor="start" x="75.5" y="-766.8" font-family="Helvetica,sans-Serif" font-size="9.00">minor&#45;key.ts</text>
</a>
</g>
</g>
<!-- packages/tonal&#45;objects/src/key/minor&#45;key.ts&#45;&gt;node_modules/@tonaljs/key -->
<g id="edge12" class="edge">
<title>packages/tonal&#45;objects/src/key/minor&#45;key.ts&#45;&gt;node_modules/@tonaljs/key</title>
<path fill="none" stroke="#000000" stroke-opacity="0.200000" d="M106.59,-759.81C126.06,-690.9 249.16,-255.11 273.73,-168.1"/>
<polygon fill="#000000" fill-opacity="0.200000" stroke="#000000" stroke-opacity="0.200000" points="277.41,-162.81 273.76,-168.01 273.37,-161.67 277.41,-162.81"/>
</g>
<!-- packages/tonal&#45;objects/src/note/chroma&#45;from&#45;non&#45;null.ts -->
<g id="node22" class="node">
<title>packages/tonal&#45;objects/src/note/chroma&#45;from&#45;non&#45;null.ts</title>
<g id="a_node22"><a xlink:href="packages/tonal-objects/src/note/chroma-from-non-null.ts" xlink:title="chroma&#45;from&#45;non&#45;null.ts">
<path fill="#ddfeff" stroke="black" d="M160,-658C160,-658 46,-658 46,-658 43,-658 40,-655 40,-652 40,-652 40,-646 40,-646 40,-643 43,-640 46,-640 46,-640 160,-640 160,-640 163,-640 166,-643 166,-646 166,-646 166,-652 166,-652 166,-655 163,-658 160,-658"/>
<text text-anchor="start" x="48" y="-646.8" font-family="Helvetica,sans-Serif" font-size="9.00">chroma&#45;from&#45;non&#45;null.ts</text>
</a>
</g>
</g>
<!-- packages/tonal&#45;objects/src/note/chroma&#45;from&#45;non&#45;null.ts&#45;&gt;node_modules/@tonaljs/note -->
<g id="edge14" class="edge">
<title>packages/tonal&#45;objects/src/note/chroma&#45;from&#45;non&#45;null.ts&#45;&gt;node_modules/@tonaljs/note</title>
<path fill="none" stroke="#000000" stroke-opacity="0.200000" d="M107.02,-639.87C127.56,-577.77 246.73,-217.54 272.91,-138.38"/>
<polygon fill="#000000" fill-opacity="0.200000" stroke="#000000" stroke-opacity="0.200000" points="275.01,-138.74 274.9,-132.38 271.02,-137.42 275.01,-138.74"/>
</g>
<!-- packages/tonal&#45;objects/src/note/chroma&#45;from&#45;non&#45;null.ts&#45;&gt;node_modules/@tonaljs/pitch&#45;note -->
<g id="edge15" class="edge">
<title>packages/tonal&#45;objects/src/note/chroma&#45;from&#45;non&#45;null.ts&#45;&gt;node_modules/@tonaljs/pitch&#45;note</title>
<path fill="none" stroke="#000000" stroke-opacity="0.200000" d="M106.87,-639.81C127.07,-575.27 247.63,-190.06 273.22,-108.26"/>
<polygon fill="#000000" fill-opacity="0.200000" stroke="#000000" stroke-opacity="0.200000" points="275.37,-108.45 275.15,-102.1 271.36,-107.19 275.37,-108.45"/>
</g>
<!-- packages/util/stdlib/src/assertion/not&#45;null&#45;like.ts -->
<g id="node23" class="node">
<title>packages/util/stdlib/src/assertion/not&#45;null&#45;like.ts</title>
<g id="a_node23"><a xlink:href="packages/util/stdlib/src/assertion/not-null-like.ts" xlink:title="not&#45;null&#45;like.ts">
<path fill="#ddfeff" stroke="black" d="M428,-786C428,-786 360,-786 360,-786 357,-786 354,-783 354,-780 354,-780 354,-774 354,-774 354,-771 357,-768 360,-768 360,-768 428,-768 428,-768 431,-768 434,-771 434,-774 434,-774 434,-780 434,-780 434,-783 431,-786 428,-786"/>
<text text-anchor="start" x="362" y="-774.8" font-family="Helvetica,sans-Serif" font-size="9.00">not&#45;null&#45;like.ts</text>
</a>
</g>
</g>
<!-- packages/tonal&#45;objects/src/note/chroma&#45;from&#45;non&#45;null.ts&#45;&gt;packages/util/stdlib/src/assertion/not&#45;null&#45;like.ts -->
<g id="edge13" class="edge">
<title>packages/tonal&#45;objects/src/note/chroma&#45;from&#45;non&#45;null.ts&#45;&gt;packages/util/stdlib/src/assertion/not&#45;null&#45;like.ts</title>
<path fill="none" stroke="#000000" stroke-width="2" stroke-opacity="0.200000" d="M123.46,-658C174.99,-680.67 310.08,-740.09 367.53,-765.36"/>
<polygon fill="#000000" fill-opacity="0.200000" stroke="#000000" stroke-width="2" stroke-opacity="0.200000" points="366.83,-767.34 373.17,-767.84 368.52,-763.5 366.83,-767.34"/>
</g>
<!-- packages/util/stdlib/src/assertion/not&#45;null.ts -->
<g id="node35" class="node">
<title>packages/util/stdlib/src/assertion/not&#45;null.ts</title>
<g id="a_node35"><a xlink:href="packages/util/stdlib/src/assertion/not-null.ts" xlink:title="not&#45;null.ts">
<path fill="#ddfeff" stroke="black" d="M518,-816C518,-816 468,-816 468,-816 465,-816 462,-813 462,-810 462,-810 462,-804 462,-804 462,-801 465,-798 468,-798 468,-798 518,-798 518,-798 521,-798 524,-801 524,-804 524,-804 524,-810 524,-810 524,-813 521,-816 518,-816"/>
<text text-anchor="start" x="470" y="-804.8" font-family="Helvetica,sans-Serif" font-size="9.00">not&#45;null.ts</text>
</a>
</g>
</g>
<!-- packages/util/stdlib/src/assertion/not&#45;null&#45;like.ts&#45;&gt;packages/util/stdlib/src/assertion/not&#45;null.ts -->
<g id="edge25" class="edge">
<title>packages/util/stdlib/src/assertion/not&#45;null&#45;like.ts&#45;&gt;packages/util/stdlib/src/assertion/not&#45;null.ts</title>
<path fill="none" stroke="#000000" stroke-width="2" stroke-opacity="0.200000" d="M424.1,-786C434.37,-789.18 446.02,-792.78 456.74,-796.09"/>
<polygon fill="#000000" fill-opacity="0.200000" stroke="#000000" stroke-width="2" stroke-opacity="0.200000" points="456.23,-798.14 462.58,-797.9 457.47,-794.12 456.23,-798.14"/>
</g>
<!-- packages/util/stdlib/src/assertion/not&#45;undefined.ts -->
<g id="node36" class="node">
<title>packages/util/stdlib/src/assertion/not&#45;undefined.ts</title>
<g id="a_node36"><a xlink:href="packages/util/stdlib/src/assertion/not-undefined.ts" xlink:title="not&#45;undefined.ts">
<path fill="#ddfeff" stroke="black" d="M533,-786C533,-786 453,-786 453,-786 450,-786 447,-783 447,-780 447,-780 447,-774 447,-774 447,-771 450,-768 453,-768 453,-768 533,-768 533,-768 536,-768 539,-771 539,-774 539,-774 539,-780 539,-780 539,-783 536,-786 533,-786"/>
<text text-anchor="start" x="455" y="-774.8" font-family="Helvetica,sans-Serif" font-size="9.00">not&#45;undefined.ts</text>
</a>
</g>
</g>
<!-- packages/util/stdlib/src/assertion/not&#45;null&#45;like.ts&#45;&gt;packages/util/stdlib/src/assertion/not&#45;undefined.ts -->
<g id="edge26" class="edge">
<title>packages/util/stdlib/src/assertion/not&#45;null&#45;like.ts&#45;&gt;packages/util/stdlib/src/assertion/not&#45;undefined.ts</title>
<path fill="none" stroke="#000000" stroke-width="2" stroke-opacity="0.200000" d="M434.17,-777C436.41,-777 438.67,-777 440.94,-777"/>
<polygon fill="#000000" fill-opacity="0.200000" stroke="#000000" stroke-width="2" stroke-opacity="0.200000" points="440.95,-779.1 446.95,-777 440.95,-774.9 440.95,-779.1"/>
</g>
<!-- packages/tonal&#45;objects/src/note/chroma.ts -->
<g id="node24" class="node">
<title>packages/tonal&#45;objects/src/note/chroma.ts</title>
<g id="a_node24"><a xlink:href="packages/tonal-objects/src/note/chroma.ts" xlink:title="chroma.ts">
<path fill="#ddfeff" stroke="black" d="M128,-718C128,-718 78,-718 78,-718 75,-718 72,-715 72,-712 72,-712 72,-706 72,-706 72,-703 75,-700 78,-700 78,-700 128,-700 128,-700 131,-700 134,-703 134,-706 134,-706 134,-712 134,-712 134,-715 131,-718 128,-718"/>
<text text-anchor="start" x="80" y="-706.8" font-family="Helvetica,sans-Serif" font-size="9.00">chroma.ts</text>
</a>
</g>
</g>
<!-- packages/tonal&#45;objects/src/note/chroma.ts&#45;&gt;node_modules/@tonaljs/note -->
<g id="edge16" class="edge">
<title>packages/tonal&#45;objects/src/note/chroma.ts&#45;&gt;node_modules/@tonaljs/note</title>
<path fill="none" stroke="#000000" stroke-opacity="0.200000" d="M106.73,-699.8C126.58,-632.95 248.51,-222.32 273.52,-138.09"/>
<polygon fill="#000000" fill-opacity="0.200000" stroke="#000000" stroke-opacity="0.200000" points="277.29,-132.78 273.56,-137.94 273.26,-131.59 277.29,-132.78"/>
</g>
<!-- packages/tonal&#45;objects/src/note/from&#45;midi.ts -->
<g id="node25" class="node">
<title>packages/tonal&#45;objects/src/note/from&#45;midi.ts</title>
<g id="a_node25"><a xlink:href="packages/tonal-objects/src/note/from-midi.ts" xlink:title="from&#45;midi.ts">
<path fill="#ddfeff" stroke="black" d="M132.5,-688C132.5,-688 73.5,-688 73.5,-688 70.5,-688 67.5,-685 67.5,-682 67.5,-682 67.5,-676 67.5,-676 67.5,-673 70.5,-670 73.5,-670 73.5,-670 132.5,-670 132.5,-670 135.5,-670 138.5,-673 138.5,-676 138.5,-676 138.5,-682 138.5,-682 138.5,-685 135.5,-688 132.5,-688"/>
<text text-anchor="start" x="75.5" y="-676.8" font-family="Helvetica,sans-Serif" font-size="9.00">from&#45;midi.ts</text>
</a>
</g>
</g>
<!-- packages/tonal&#45;objects/src/note/from&#45;midi.ts&#45;&gt;node_modules/@tonaljs/note -->
<g id="edge17" class="edge">
<title>packages/tonal&#45;objects/src/note/from&#45;midi.ts&#45;&gt;node_modules/@tonaljs/note</title>
<path fill="none" stroke="#000000" stroke-opacity="0.200000" d="M106.87,-669.81C127.07,-605.27 247.63,-220.06 273.22,-138.26"/>
<polygon fill="#000000" fill-opacity="0.200000" stroke="#000000" stroke-opacity="0.200000" points="277.16,-132.72 273.36,-137.82 273.15,-131.47 277.16,-132.72"/>
</g>
<!-- packages/tonal&#45;objects/src/note/get.ts -->
<g id="node26" class="node">
<title>packages/tonal&#45;objects/src/note/get.ts</title>
<g id="a_node26"><a xlink:href="packages/tonal-objects/src/note/get.ts" xlink:title="get.ts">
<path fill="#ddfeff" stroke="black" d="M124,-628C124,-628 82,-628 82,-628 79,-628 76,-625 76,-622 76,-622 76,-616 76,-616 76,-613 79,-610 82,-610 82,-610 124,-610 124,-610 127,-610 130,-613 130,-616 130,-616 130,-622 130,-622 130,-625 127,-628 124,-628"/>
<text text-anchor="start" x="89.5" y="-616.8" font-family="Helvetica,sans-Serif" font-size="9.00">get.ts</text>
</a>
</g>
</g>
<!-- packages/tonal&#45;objects/src/note/get.ts&#45;&gt;node_modules/@tonaljs/note -->
<g id="edge18" class="edge">
<title>packages/tonal&#45;objects/src/note/get.ts&#45;&gt;node_modules/@tonaljs/note</title>
<path fill="none" stroke="#000000" stroke-opacity="0.200000" d="M107.17,-609.97C128.09,-550.33 246.35,-213.23 272.77,-137.92"/>
<polygon fill="#000000" fill-opacity="0.200000" stroke="#000000" stroke-opacity="0.200000" points="276.75,-132.9 272.79,-137.86 272.79,-131.51 276.75,-132.9"/>
</g>
<!-- packages/tonal&#45;objects/src/note/note&#45;literal.ts -->
<g id="node27" class="node">
<title>packages/tonal&#45;objects/src/note/note&#45;literal.ts</title>
<g id="a_node27"><a xlink:href="packages/tonal-objects/src/note/note-literal.ts" xlink:title="note&#45;literal.ts">
<path fill="#ddfeff" stroke="black" d="M135,-598C135,-598 71,-598 71,-598 68,-598 65,-595 65,-592 65,-592 65,-586 65,-586 65,-583 68,-580 71,-580 71,-580 135,-580 135,-580 138,-580 141,-583 141,-586 141,-586 141,-592 141,-592 141,-595 138,-598 135,-598"/>
<text text-anchor="start" x="73" y="-586.8" font-family="Helvetica,sans-Serif" font-size="9.00">note&#45;literal.ts</text>
</a>
</g>
</g>
<!-- packages/tonal&#45;objects/src/note/note&#45;literal.ts&#45;&gt;node_modules/@tonaljs/pitch&#45;note -->
<g id="edge19" class="edge">
<title>packages/tonal&#45;objects/src/note/note&#45;literal.ts&#45;&gt;node_modules/@tonaljs/pitch&#45;note</title>
<path fill="none" stroke="#000000" stroke-opacity="0.200000" d="M107.17,-579.97C128.09,-520.33 246.35,-183.23 272.77,-107.92"/>
<polygon fill="none" stroke="#000000" stroke-opacity="0.200000" points="274.77,-108.56 274.77,-102.2 270.8,-107.17 274.77,-108.56"/>
</g>
<!-- packages/tonal&#45;objects/src/note/note.ts -->
<g id="node28" class="node">
<title>packages/tonal&#45;objects/src/note/note.ts</title>
<g id="a_node28"><a xlink:href="packages/tonal-objects/src/note/note.ts" xlink:title="note.ts">
<path fill="#ddfeff" stroke="black" d="M124,-568C124,-568 82,-568 82,-568 79,-568 76,-565 76,-562 76,-562 76,-556 76,-556 76,-553 79,-550 82,-550 82,-550 124,-550 124,-550 127,-550 130,-553 130,-556 130,-556 130,-562 130,-562 130,-565 127,-568 124,-568"/>
<text text-anchor="start" x="87" y="-556.8" font-family="Helvetica,sans-Serif" font-size="9.00">note.ts</text>
</a>
</g>
</g>
<!-- packages/tonal&#45;objects/src/note/note.ts&#45;&gt;node_modules/@tonaljs/pitch&#45;note -->
<g id="edge20" class="edge">
<title>packages/tonal&#45;objects/src/note/note.ts&#45;&gt;node_modules/@tonaljs/pitch&#45;note</title>
<path fill="none" stroke="#000000" stroke-opacity="0.200000" d="M107.48,-549.69C129.1,-491.79 245.13,-181.03 272.3,-108.26"/>
<polygon fill="none" stroke="#000000" stroke-opacity="0.200000" points="274.38,-108.69 274.52,-102.33 270.45,-107.22 274.38,-108.69"/>
</g>
<!-- packages/tonal&#45;objects/src/roman&#45;numeral/get.ts -->
<g id="node29" class="node">
<title>packages/tonal&#45;objects/src/roman&#45;numeral/get.ts</title>
<g id="a_node29"><a xlink:href="packages/tonal-objects/src/roman-numeral/get.ts" xlink:title="get.ts">
<path fill="#ddfeff" stroke="black" d="M124,-508C124,-508 82,-508 82,-508 79,-508 76,-505 76,-502 76,-502 76,-496 76,-496 76,-493 79,-490 82,-490 82,-490 124,-490 124,-490 127,-490 130,-493 130,-496 130,-496 130,-502 130,-502 130,-505 127,-508 124,-508"/>
<text text-anchor="start" x="89.5" y="-496.8" font-family="Helvetica,sans-Serif" font-size="9.00">get.ts</text>
</a>
</g>
</g>
<!-- packages/tonal&#45;objects/src/roman&#45;numeral/get.ts&#45;&gt;node_modules/@tonaljs/roman&#45;numeral -->
<g id="edge21" class="edge">
<title>packages/tonal&#45;objects/src/roman&#45;numeral/get.ts&#45;&gt;node_modules/@tonaljs/roman&#45;numeral</title>
<path fill="none" stroke="#000000" stroke-opacity="0.200000" d="M107.63,-489.89C129.62,-434.81 244.76,-146.28 272.15,-77.66"/>
<polygon fill="#000000" fill-opacity="0.200000" stroke="#000000" stroke-opacity="0.200000" points="276.34,-72.83 272.16,-77.63 272.44,-71.28 276.34,-72.83"/>
</g>
<!-- packages/tonal&#45;objects/src/scale/get.ts -->
<g id="node30" class="node">
<title>packages/tonal&#45;objects/src/scale/get.ts</title>
<g id="a_node30"><a xlink:href="packages/tonal-objects/src/scale/get.ts" xlink:title="get.ts">
<path fill="#ddfeff" stroke="black" d="M124,-448C124,-448 82,-448 82,-448 79,-448 76,-445 76,-442 76,-442 76,-436 76,-436 76,-433 79,-430 82,-430 82,-430 124,-430 124,-430 127,-430 130,-433 130,-436 130,-436 130,-442 130,-442 130,-445 127,-448 124,-448"/>
<text text-anchor="start" x="89.5" y="-436.8" font-family="Helvetica,sans-Serif" font-size="9.00">get.ts</text>
</a>
</g>
</g>
<!-- packages/tonal&#45;objects/src/scale/get.ts&#45;&gt;node_modules/@tonaljs/scale -->
<g id="edge22" class="edge">
<title>packages/tonal&#45;objects/src/scale/get.ts&#45;&gt;node_modules/@tonaljs/scale</title>
<path fill="none" stroke="#000000" stroke-opacity="0.200000" d="M107.96,-429.76C130.6,-376.93 243.59,-113.29 271.67,-47.76"/>
<polygon fill="#000000" fill-opacity="0.200000" stroke="#000000" stroke-opacity="0.200000" points="276.05,-42.88 271.76,-47.57 272.19,-41.22 276.05,-42.88"/>
</g>
<!-- packages/tonal&#45;objects/src/scale/scale&#45;name.ts -->
<g id="node31" class="node">
<title>packages/tonal&#45;objects/src/scale/scale&#45;name.ts</title>
<g id="a_node31"><a xlink:href="packages/tonal-objects/src/scale/scale-name.ts" xlink:title="no&#45;orphans">
<path fill="#ccffcc" stroke="orange" d="M136.5,-418C136.5,-418 69.5,-418 69.5,-418 66.5,-418 63.5,-415 63.5,-412 63.5,-412 63.5,-406 63.5,-406 63.5,-403 66.5,-400 69.5,-400 69.5,-400 136.5,-400 136.5,-400 139.5,-400 142.5,-403 142.5,-406 142.5,-406 142.5,-412 142.5,-412 142.5,-415 139.5,-418 136.5,-418"/>
<text text-anchor="start" x="71.5" y="-406.8" font-family="Helvetica,sans-Serif" font-size="9.00" fill="orange">scale&#45;name.ts</text>
</a>
</g>
</g>
<!-- packages/tonal&#45;objects/src/scale/scale.ts -->
<g id="node32" class="node">
<title>packages/tonal&#45;objects/src/scale/scale.ts</title>
<g id="a_node32"><a xlink:href="packages/tonal-objects/src/scale/scale.ts" xlink:title="scale.ts">
<path fill="#ddfeff" stroke="black" d="M124,-388C124,-388 82,-388 82,-388 79,-388 76,-385 76,-382 76,-382 76,-376 76,-376 76,-373 79,-370 82,-370 82,-370 124,-370 124,-370 127,-370 130,-373 130,-376 130,-376 130,-382 130,-382 130,-385 127,-388 124,-388"/>
<text text-anchor="start" x="86" y="-376.8" font-family="Helvetica,sans-Serif" font-size="9.00">scale.ts</text>
</a>
</g>
</g>
<!-- packages/tonal&#45;objects/src/scale/scale.ts&#45;&gt;node_modules/@tonaljs/scale -->
<g id="edge23" class="edge">
<title>packages/tonal&#45;objects/src/scale/scale.ts&#45;&gt;node_modules/@tonaljs/scale</title>
<path fill="none" stroke="#000000" stroke-opacity="0.200000" d="M108.65,-369.75C132.53,-322.26 241.31,-105.97 270.67,-47.57"/>
<polygon fill="none" stroke="#000000" stroke-opacity="0.200000" points="272.59,-48.43 273.41,-42.12 268.84,-46.54 272.59,-48.43"/>
</g>
<!-- packages/util/stdlib/src/error/throw&#45;function.ts -->
<g id="node34" class="node">
<title>packages/util/stdlib/src/error/throw&#45;function.ts</title>
<g id="a_node34"><a xlink:href="packages/util/stdlib/src/error/throw-function.ts" xlink:title="throw&#45;function.ts">
<path fill="#ddfeff" stroke="black" d="M652,-816C652,-816 569,-816 569,-816 566,-816 563,-813 563,-810 563,-810 563,-804 563,-804 563,-801 566,-798 569,-798 569,-798 652,-798 652,-798 655,-798 658,-801 658,-804 658,-804 658,-810 658,-810 658,-813 655,-816 652,-816"/>
<text text-anchor="start" x="571" y="-804.8" font-family="Helvetica,sans-Serif" font-size="9.00">throw&#45;function.ts</text>
</a>
</g>
</g>
<!-- packages/util/stdlib/src/assertion/not&#45;nan.ts&#45;&gt;packages/util/stdlib/src/error/throw&#45;function.ts -->
<g id="edge24" class="edge">
<title>packages/util/stdlib/src/assertion/not&#45;nan.ts&#45;&gt;packages/util/stdlib/src/error/throw&#45;function.ts</title>
<path fill="none" stroke="#000000" stroke-width="2" stroke-opacity="0.200000" d="M425.95,-807C460.29,-807 515.49,-807 556.59,-807"/>
<polygon fill="#000000" fill-opacity="0.200000" stroke="#000000" stroke-width="2" stroke-opacity="0.200000" points="556.8,-809.1 562.8,-807 556.8,-804.9 556.8,-809.1"/>
</g>
<!-- packages/util/stdlib/src/assertion/not&#45;null.ts&#45;&gt;packages/util/stdlib/src/error/throw&#45;function.ts -->
<g id="edge27" class="edge">
<title>packages/util/stdlib/src/assertion/not&#45;null.ts&#45;&gt;packages/util/stdlib/src/error/throw&#45;function.ts</title>
<path fill="none" stroke="#000000" stroke-width="2" stroke-opacity="0.200000" d="M524.04,-807C533.97,-807 545.33,-807 556.45,-807"/>
<polygon fill="#000000" fill-opacity="0.200000" stroke="#000000" stroke-width="2" stroke-opacity="0.200000" points="556.59,-809.1 562.59,-807 556.59,-804.9 556.59,-809.1"/>
</g>
<!-- packages/util/stdlib/src/assertion/not&#45;undefined.ts&#45;&gt;packages/util/stdlib/src/error/throw&#45;function.ts -->
<g id="edge28" class="edge">
<title>packages/util/stdlib/src/assertion/not&#45;undefined.ts&#45;&gt;packages/util/stdlib/src/error/throw&#45;function.ts</title>
<path fill="none" stroke="#000000" stroke-width="2" stroke-opacity="0.200000" d="M528.65,-786C541.22,-789.26 555.52,-792.98 568.57,-796.37"/>
<polygon fill="#000000" fill-opacity="0.200000" stroke="#000000" stroke-width="2" stroke-opacity="0.200000" points="568.14,-798.43 574.47,-797.9 569.19,-794.36 568.14,-798.43"/>
</g>
</g>
</svg>
