<?xml version="1.0" encoding="UTF-8" standalone="no"?>
<!DOCTYPE svg PUBLIC "-//W3C//DTD SVG 1.1//EN"
 "http://www.w3.org/Graphics/SVG/1.1/DTD/svg11.dtd">
<!-- Generated by graphviz version 2.43.0 (0)
 -->
<!-- Title: dependency&#45;cruiser output Pages: 1 -->
<svg width="585pt" height="516pt"
 viewBox="0.00 0.00 585.00 516.00" xmlns="http://www.w3.org/2000/svg" xmlns:xlink="http://www.w3.org/1999/xlink">
<g id="graph0" class="graph" transform="scale(1 1) rotate(0) translate(4 512)">
<title>dependency&#45;cruiser output</title>
<polygon fill="white" stroke="transparent" points="-4,4 -4,-512 581,-512 581,4 -4,4"/>
<g id="clust1" class="cluster">
<title>cluster_node_modules</title>
<path fill="#ffffff" stroke="black" stroke-width="2" d="M225,-8C225,-8 319,-8 319,-8 325,-8 331,-14 331,-20 331,-20 331,-292 331,-292 331,-298 325,-304 319,-304 319,-304 225,-304 225,-304 219,-304 213,-298 213,-292 213,-292 213,-20 213,-20 213,-14 219,-8 225,-8"/>
<text text-anchor="middle" x="272" y="-292.8" font-family="Helvetica,sans-Serif" font-weight="bold" font-size="9.00">node_modules</text>
</g>
<g id="clust2" class="cluster">
<title>cluster_node_modules/@tonaljs</title>
<path fill="#ffffff" stroke="black" stroke-width="2" d="M233,-16C233,-16 311,-16 311,-16 317,-16 323,-22 323,-28 323,-28 323,-266 323,-266 323,-272 317,-278 311,-278 311,-278 233,-278 233,-278 227,-278 221,-272 221,-266 221,-266 221,-28 221,-28 221,-22 227,-16 233,-16"/>
<text text-anchor="middle" x="272" y="-266.8" font-family="Helvetica,sans-Serif" font-weight="bold" font-size="9.00">@tonaljs</text>
</g>
<g id="clust3" class="cluster">
<title>cluster_packages</title>
<path fill="#ffffff" stroke="black" stroke-width="2" d="M20,-312C20,-312 557,-312 557,-312 563,-312 569,-318 569,-324 569,-324 569,-488 569,-488 569,-494 563,-500 557,-500 557,-500 20,-500 20,-500 14,-500 8,-494 8,-488 8,-488 8,-324 8,-324 8,-318 14,-312 20,-312"/>
<text text-anchor="middle" x="288.5" y="-488.8" font-family="Helvetica,sans-Serif" font-weight="bold" font-size="9.00">packages</text>
</g>
<g id="clust4" class="cluster">
<title>cluster_packages/tonal&#45;objects</title>
<path fill="#ffffff" stroke="black" stroke-width="2" d="M28,-320C28,-320 171,-320 171,-320 177,-320 183,-326 183,-332 183,-332 183,-394 183,-394 183,-400 177,-406 171,-406 171,-406 28,-406 28,-406 22,-406 16,-400 16,-394 16,-394 16,-332 16,-332 16,-326 22,-320 28,-320"/>
<text text-anchor="middle" x="99.5" y="-394.8" font-family="Helvetica,sans-Serif" font-weight="bold" font-size="9.00">tonal&#45;objects</text>
</g>
<g id="clust5" class="cluster">
<title>cluster_packages/tonal&#45;objects/src</title>
<path fill="#ffffff" stroke="black" stroke-width="2" d="M117,-328C117,-328 163,-328 163,-328 169,-328 175,-334 175,-340 175,-340 175,-368 175,-368 175,-374 169,-380 163,-380 163,-380 117,-380 117,-380 111,-380 105,-374 105,-368 105,-368 105,-340 105,-340 105,-334 111,-328 117,-328"/>
<text text-anchor="middle" x="140" y="-368.8" font-family="Helvetica,sans-Serif" font-weight="bold" font-size="9.00">src</text>
</g>
<g id="clust6" class="cluster">
<title>cluster_packages/util</title>
<path fill="#ffffff" stroke="black" stroke-width="2" d="M203,-320C203,-320 549,-320 549,-320 555,-320 561,-326 561,-332 561,-332 561,-462 561,-462 561,-468 555,-474 549,-474 549,-474 203,-474 203,-474 197,-474 191,-468 191,-462 191,-462 191,-332 191,-332 191,-326 197,-320 203,-320"/>
<text text-anchor="middle" x="376" y="-462.8" font-family="Helvetica,sans-Serif" font-weight="bold" font-size="9.00">util</text>
</g>
<g id="clust7" class="cluster">
<title>cluster_packages/util/stdlib</title>
<path fill="#ffffff" stroke="black" stroke-width="2" d="M211,-328C211,-328 541,-328 541,-328 547,-328 553,-334 553,-340 553,-340 553,-436 553,-436 553,-442 547,-448 541,-448 541,-448 211,-448 211,-448 205,-448 199,-442 199,-436 199,-436 199,-340 199,-340 199,-334 205,-328 211,-328"/>
<text text-anchor="middle" x="376" y="-436.8" font-family="Helvetica,sans-Serif" font-weight="bold" font-size="9.00">stdlib</text>
</g>
<g id="clust8" class="cluster">
<title>cluster_packages/util/stdlib/src</title>
<path fill="#ffffff" stroke="black" stroke-width="2" d="M219,-336C219,-336 533,-336 533,-336 539,-336 545,-342 545,-348 545,-348 545,-410 545,-410 545,-416 539,-422 533,-422 533,-422 219,-422 219,-422 213,-422 207,-416 207,-410 207,-410 207,-348 207,-348 207,-342 213,-336 219,-336"/>
<text text-anchor="middle" x="376" y="-410.8" font-family="Helvetica,sans-Serif" font-weight="bold" font-size="9.00">src</text>
</g>
<g id="clust9" class="cluster">
<title>cluster_packages/util/stdlib/src/assertion</title>
<path fill="#ffffff" stroke="black" stroke-width="2" d="M351,-344C351,-344 406,-344 406,-344 412,-344 418,-350 418,-356 418,-356 418,-384 418,-384 418,-390 412,-396 406,-396 406,-396 351,-396 351,-396 345,-396 339,-390 339,-384 339,-384 339,-356 339,-356 339,-350 345,-344 351,-344"/>
<text text-anchor="middle" x="378.5" y="-384.8" font-family="Helvetica,sans-Serif" font-weight="bold" font-size="9.00">assertion</text>
</g>
<g id="clust10" class="cluster">
<title>cluster_packages/util/stdlib/src/error</title>
<path fill="#ffffff" stroke="black" stroke-width="2" d="M438,-344C438,-344 525,-344 525,-344 531,-344 537,-350 537,-356 537,-356 537,-384 537,-384 537,-390 531,-396 525,-396 525,-396 438,-396 438,-396 432,-396 426,-390 426,-384 426,-384 426,-356 426,-356 426,-350 432,-344 438,-344"/>
<text text-anchor="middle" x="481.5" y="-384.8" font-family="Helvetica,sans-Serif" font-weight="bold" font-size="9.00">error</text>
</g>
<g id="clust11" class="cluster">
<title>cluster_packages/util/stdlib/src/string</title>
<path fill="#ffffff" stroke="black" stroke-width="2" d="M227,-344C227,-344 317,-344 317,-344 323,-344 329,-350 329,-356 329,-356 329,-384 329,-384 329,-390 323,-396 317,-396 317,-396 227,-396 227,-396 221,-396 215,-390 215,-384 215,-384 215,-356 215,-356 215,-350 221,-344 227,-344"/>
<text text-anchor="middle" x="272" y="-384.8" font-family="Helvetica,sans-Serif" font-weight="bold" font-size="9.00">string</text>
</g>
<!-- node_modules/@tonaljs/chord -->
<g id="node1" class="node">
<title>node_modules/@tonaljs/chord</title>
<g id="a_node1"><a xlink:href="https://www.npmjs.com/package/@tonaljs/chord" xlink:title="chord">
<polygon fill="#c40b0a" fill-opacity="0.101961" stroke="black" points="299,-132 247,-132 245,-130 245,-114 297,-114 299,-116 299,-132"/>
<polyline fill="none" stroke="black" points="297,-130 245,-130 "/>
<polyline fill="none" stroke="black" points="297,-130 297,-114 "/>
<polyline fill="none" stroke="black" points="297,-130 299,-132 "/>
<text text-anchor="start" x="258.5" y="-120.8" font-family="Helvetica,sans-Serif" font-size="9.00" fill="#c40b0a">chord</text>
</a>
</g>
</g>
<!-- node_modules/@tonaljs/interval -->
<g id="node2" class="node">
<title>node_modules/@tonaljs/interval</title>
<g id="a_node2"><a xlink:href="https://www.npmjs.com/package/@tonaljs/interval" xlink:title="interval">
<polygon fill="#c40b0a" fill-opacity="0.101961" stroke="black" points="299,-252 247,-252 245,-250 245,-234 297,-234 299,-236 299,-252"/>
<polyline fill="none" stroke="black" points="297,-250 245,-250 "/>
<polyline fill="none" stroke="black" points="297,-250 297,-234 "/>
<polyline fill="none" stroke="black" points="297,-250 299,-252 "/>
<text text-anchor="start" x="255" y="-240.8" font-family="Helvetica,sans-Serif" font-size="9.00" fill="#c40b0a">interval</text>
</a>
</g>
</g>
<!-- node_modules/@tonaljs/key -->
<g id="node3" class="node">
<title>node_modules/@tonaljs/key</title>
<g id="a_node3"><a xlink:href="https://www.npmjs.com/package/@tonaljs/key" xlink:title="key">
<polygon fill="#c40b0a" fill-opacity="0.101961" stroke="black" points="299,-102 247,-102 245,-100 245,-84 297,-84 299,-86 299,-102"/>
<polyline fill="none" stroke="black" points="297,-100 245,-100 "/>
<polyline fill="none" stroke="black" points="297,-100 297,-84 "/>
<polyline fill="none" stroke="black" points="297,-100 299,-102 "/>
<text text-anchor="start" x="264" y="-90.8" font-family="Helvetica,sans-Serif" font-size="9.00" fill="#c40b0a">key</text>
</a>
</g>
</g>
<!-- node_modules/@tonaljs/note -->
<g id="node4" class="node">
<title>node_modules/@tonaljs/note</title>
<g id="a_node4"><a xlink:href="https://www.npmjs.com/package/@tonaljs/note" xlink:title="note">
<polygon fill="#c40b0a" fill-opacity="0.101961" stroke="black" points="299,-222 247,-222 245,-220 245,-204 297,-204 299,-206 299,-222"/>
<polyline fill="none" stroke="black" points="297,-220 245,-220 "/>
<polyline fill="none" stroke="black" points="297,-220 297,-204 "/>
<polyline fill="none" stroke="black" points="297,-220 299,-222 "/>
<text text-anchor="start" x="261.5" y="-210.8" font-family="Helvetica,sans-Serif" font-size="9.00" fill="#c40b0a">note</text>
</a>
</g>
</g>
<!-- node_modules/@tonaljs/pitch&#45;interval -->
<g id="node5" class="node">
<title>node_modules/@tonaljs/pitch&#45;interval</title>
<g id="a_node5"><a xlink:href="https://www.npmjs.com/package/@tonaljs/pitch-interval" xlink:title="pitch&#45;interval">
<polygon fill="#c40b0a" fill-opacity="0.101961" stroke="black" points="310.5,-72 235.5,-72 233.5,-70 233.5,-54 308.5,-54 310.5,-56 310.5,-72"/>
<polyline fill="none" stroke="black" points="308.5,-70 233.5,-70 "/>
<polyline fill="none" stroke="black" points="308.5,-70 308.5,-54 "/>
<polyline fill="none" stroke="black" points="308.5,-70 310.5,-72 "/>
<text text-anchor="start" x="241.5" y="-60.8" font-family="Helvetica,sans-Serif" font-size="9.00" fill="#c40b0a">pitch&#45;interval</text>
</a>
</g>
</g>
<!-- node_modules/@tonaljs/pitch&#45;note -->
<g id="node6" class="node">
<title>node_modules/@tonaljs/pitch&#45;note</title>
<g id="a_node6"><a xlink:href="https://www.npmjs.com/package/@tonaljs/pitch-note" xlink:title="pitch&#45;note">
<polygon fill="#c40b0a" fill-opacity="0.101961" stroke="black" points="303.5,-192 242.5,-192 240.5,-190 240.5,-174 301.5,-174 303.5,-176 303.5,-192"/>
<polyline fill="none" stroke="black" points="301.5,-190 240.5,-190 "/>
<polyline fill="none" stroke="black" points="301.5,-190 301.5,-174 "/>
<polyline fill="none" stroke="black" points="301.5,-190 303.5,-192 "/>
<text text-anchor="start" x="248.5" y="-180.8" font-family="Helvetica,sans-Serif" font-size="9.00" fill="#c40b0a">pitch&#45;note</text>
</a>
</g>
</g>
<!-- node_modules/@tonaljs/roman&#45;numeral -->
<g id="node7" class="node">
<title>node_modules/@tonaljs/roman&#45;numeral</title>
<g id="a_node7"><a xlink:href="https://www.npmjs.com/package/@tonaljs/roman-numeral" xlink:title="roman&#45;numeral">
<polygon fill="#c40b0a" fill-opacity="0.101961" stroke="black" points="315,-42 231,-42 229,-40 229,-24 313,-24 315,-26 315,-42"/>
<polyline fill="none" stroke="black" points="313,-40 229,-40 "/>
<polyline fill="none" stroke="black" points="313,-40 313,-24 "/>
<polyline fill="none" stroke="black" points="313,-40 315,-42 "/>
<text text-anchor="start" x="237" y="-30.8" font-family="Helvetica,sans-Serif" font-size="9.00" fill="#c40b0a">roman&#45;numeral</text>
</a>
</g>
</g>
<!-- node_modules/@tonaljs/scale -->
<g id="node8" class="node">
<title>node_modules/@tonaljs/scale</title>
<g id="a_node8"><a xlink:href="https://www.npmjs.com/package/@tonaljs/scale" xlink:title="scale">
<polygon fill="#c40b0a" fill-opacity="0.101961" stroke="black" points="299,-162 247,-162 245,-160 245,-144 297,-144 299,-146 299,-162"/>
<polyline fill="none" stroke="black" points="297,-160 245,-160 "/>
<polyline fill="none" stroke="black" points="297,-160 297,-144 "/>
<polyline fill="none" stroke="black" points="297,-160 299,-162 "/>
<text text-anchor="start" x="260.5" y="-150.8" font-family="Helvetica,sans-Serif" font-size="9.00" fill="#c40b0a">scale</text>
</a>
</g>
</g>
<!-- packages/tonal&#45;objects/index.test.ts -->
<g id="node9" class="node">
<title>packages/tonal&#45;objects/index.test.ts</title>
<g id="a_node9"><a xlink:href="packages/tonal-objects/index.test.ts" xlink:title="no&#45;orphans">
<path fill="#ccffcc" stroke="orange" d="M91,-378C91,-378 30,-378 30,-378 27,-378 24,-375 24,-372 24,-372 24,-366 24,-366 24,-363 27,-360 30,-360 30,-360 91,-360 91,-360 94,-360 97,-363 97,-366 97,-366 97,-372 97,-372 97,-375 94,-378 91,-378"/>
<text text-anchor="start" x="32" y="-366.8" font-family="Helvetica,sans-Serif" font-size="9.00" fill="orange">index.test.ts</text>
</a>
</g>
</g>
<!-- packages/tonal&#45;objects/index.ts -->
<g id="node10" class="node">
<title>packages/tonal&#45;objects/index.ts</title>
<g id="a_node10"><a xlink:href="packages/tonal-objects/index.ts" xlink:title="index.ts">
<path fill="#ddfeff" stroke="black" d="M81.5,-346C81.5,-346 39.5,-346 39.5,-346 36.5,-346 33.5,-343 33.5,-340 33.5,-340 33.5,-334 33.5,-334 33.5,-331 36.5,-328 39.5,-328 39.5,-328 81.5,-328 81.5,-328 84.5,-328 87.5,-331 87.5,-334 87.5,-334 87.5,-340 87.5,-340 87.5,-343 84.5,-346 81.5,-346"/>
<text text-anchor="start" x="42" y="-334.8" font-family="Helvetica,sans-Serif" font-size="9.00">index.ts</text>
</a>
</g>
</g>
<!-- packages/tonal&#45;objects/index.ts&#45;&gt;node_modules/@tonaljs/chord -->
<g id="edge2" class="edge">
<title>packages/tonal&#45;objects/index.ts&#45;&gt;node_modules/@tonaljs/chord</title>
<path fill="none" stroke="#000000" stroke-opacity="0.200000" d="M69.59,-327.8C102.87,-294.13 218.22,-177.42 258.21,-136.95"/>
<polygon fill="#000000" fill-opacity="0.200000" stroke="#000000" stroke-opacity="0.200000" points="264.2,-133.88 258.49,-136.67 261.21,-130.93 264.2,-133.88"/>
</g>
<!-- packages/tonal&#45;objects/index.ts&#45;&gt;node_modules/@tonaljs/interval -->
<g id="edge3" class="edge">
<title>packages/tonal&#45;objects/index.ts&#45;&gt;node_modules/@tonaljs/interval</title>
<path fill="none" stroke="#000000" stroke-opacity="0.200000" d="M80.78,-327.99C119.37,-310.84 203.32,-273.53 245.98,-254.56"/>
<polygon fill="#000000" fill-opacity="0.200000" stroke="#000000" stroke-opacity="0.200000" points="252.32,-254.04 245.99,-254.56 250.62,-250.2 252.32,-254.04"/>
</g>
<!-- packages/tonal&#45;objects/index.ts&#45;&gt;node_modules/@tonaljs/key -->
<g id="edge4" class="edge">
<title>packages/tonal&#45;objects/index.ts&#45;&gt;node_modules/@tonaljs/key</title>
<path fill="none" stroke="#000000" stroke-opacity="0.200000" d="M68.53,-327.73C100.86,-290.43 221.58,-151.16 260.11,-106.72"/>
<polygon fill="#000000" fill-opacity="0.200000" stroke="#000000" stroke-opacity="0.200000" points="265.77,-103.39 260.25,-106.55 262.6,-100.64 265.77,-103.39"/>
</g>
<!-- packages/tonal&#45;objects/index.ts&#45;&gt;node_modules/@tonaljs/note -->
<g id="edge5" class="edge">
<title>packages/tonal&#45;objects/index.ts&#45;&gt;node_modules/@tonaljs/note</title>
<path fill="none" stroke="#000000" stroke-opacity="0.200000" d="M76.05,-327.88C113.48,-305.94 208.63,-250.15 251.04,-225.29"/>
<polygon fill="#000000" fill-opacity="0.200000" stroke="#000000" stroke-opacity="0.200000" points="257.49,-223.94 251.25,-225.17 255.36,-220.32 257.49,-223.94"/>
</g>
<!-- packages/tonal&#45;objects/index.ts&#45;&gt;node_modules/@tonaljs/pitch&#45;interval -->
<g id="edge6" class="edge">
<title>packages/tonal&#45;objects/index.ts&#45;&gt;node_modules/@tonaljs/pitch&#45;interval</title>
<path fill="none" stroke="#000000" stroke-opacity="0.200000" d="M67.54,-327.88C98.59,-287.66 223.47,-125.87 261.17,-77.03"/>
<polygon fill="none" stroke="#000000" stroke-opacity="0.200000" points="262.93,-78.18 264.94,-72.15 259.61,-75.62 262.93,-78.18"/>
</g>
<!-- packages/tonal&#45;objects/index.ts&#45;&gt;node_modules/@tonaljs/pitch&#45;note -->
<g id="edge7" class="edge">
<title>packages/tonal&#45;objects/index.ts&#45;&gt;node_modules/@tonaljs/pitch&#45;note</title>
<path fill="none" stroke="#000000" stroke-opacity="0.200000" d="M73.1,-327.83C109.17,-301.56 212.94,-226 254.49,-195.75"/>
<polygon fill="none" stroke="#000000" stroke-opacity="0.200000" points="255.85,-197.35 259.47,-192.12 253.38,-193.96 255.85,-197.35"/>
</g>
<!-- packages/tonal&#45;objects/index.ts&#45;&gt;node_modules/@tonaljs/roman&#45;numeral -->
<g id="edge8" class="edge">
<title>packages/tonal&#45;objects/index.ts&#45;&gt;node_modules/@tonaljs/roman&#45;numeral</title>
<path fill="none" stroke="#000000" stroke-opacity="0.200000" d="M66.83,-327.9C96.93,-284.63 225.66,-99.61 262.26,-47"/>
<polygon fill="#000000" fill-opacity="0.200000" stroke="#000000" stroke-opacity="0.200000" points="267.42,-43.26 262.27,-46.99 263.97,-40.86 267.42,-43.26"/>
</g>
<!-- packages/tonal&#45;objects/index.ts&#45;&gt;node_modules/@tonaljs/scale -->
<g id="edge9" class="edge">
<title>packages/tonal&#45;objects/index.ts&#45;&gt;node_modules/@tonaljs/scale</title>
<path fill="none" stroke="#000000" stroke-opacity="0.200000" d="M70.99,-327.88C105.59,-297.77 216.22,-201.52 256.85,-166.18"/>
<polygon fill="#000000" fill-opacity="0.200000" stroke="#000000" stroke-opacity="0.200000" points="262.83,-163.76 256.92,-166.12 260.07,-160.6 262.83,-163.76"/>
</g>
<!-- packages/tonal&#45;objects/src/index.ts -->
<g id="node11" class="node">
<title>packages/tonal&#45;objects/src/index.ts</title>
<g id="a_node11"><a xlink:href="packages/tonal-objects/src/index.ts" xlink:title="index.ts">
<path fill="#ddfeff" stroke="black" d="M161,-354C161,-354 119,-354 119,-354 116,-354 113,-351 113,-348 113,-348 113,-342 113,-342 113,-339 116,-336 119,-336 119,-336 161,-336 161,-336 164,-336 167,-339 167,-342 167,-342 167,-348 167,-348 167,-351 164,-354 161,-354"/>
<text text-anchor="start" x="121.5" y="-342.8" font-family="Helvetica,sans-Serif" font-size="9.00">index.ts</text>
</a>
</g>
</g>
<!-- packages/tonal&#45;objects/index.ts&#45;&gt;packages/tonal&#45;objects/src/index.ts -->
<g id="edge1" class="edge">
<title>packages/tonal&#45;objects/index.ts&#45;&gt;packages/tonal&#45;objects/src/index.ts</title>
<path fill="none" stroke="#000000" stroke-width="2" stroke-opacity="0.200000" d="M87.74,-339.71C93.8,-340.33 100.32,-341.01 106.6,-341.66"/>
<polygon fill="#000000" fill-opacity="0.200000" stroke="#000000" stroke-width="2" stroke-opacity="0.200000" points="112.57,-344.38 106.82,-341.68 113,-340.21 112.57,-344.38"/>
</g>
<!-- packages/tonal&#45;objects/src/index.ts&#45;&gt;node_modules/@tonaljs/interval -->
<g id="edge12" class="edge">
<title>packages/tonal&#45;objects/src/index.ts&#45;&gt;node_modules/@tonaljs/interval</title>
<path fill="none" stroke="#000000" stroke-opacity="0.200000" d="M152.54,-335.95C175.61,-317.85 227.5,-277.13 254.29,-256.11"/>
<polygon fill="#000000" fill-opacity="0.200000" stroke="#000000" stroke-opacity="0.200000" points="255.88,-257.53 259.3,-252.18 253.29,-254.23 255.88,-257.53"/>
</g>
<!-- packages/tonal&#45;objects/src/index.ts&#45;&gt;node_modules/@tonaljs/note -->
<g id="edge13" class="edge">
<title>packages/tonal&#45;objects/src/index.ts&#45;&gt;node_modules/@tonaljs/note</title>
<path fill="none" stroke="#000000" stroke-opacity="0.200000" d="M149.94,-335.93C172.39,-313.13 231.25,-253.36 257.74,-226.46"/>
<polygon fill="#000000" fill-opacity="0.200000" stroke="#000000" stroke-opacity="0.200000" points="259.29,-227.88 262,-222.14 256.3,-224.94 259.29,-227.88"/>
</g>
<!-- packages/tonal&#45;objects/src/index.ts&#45;&gt;node_modules/@tonaljs/pitch&#45;note -->
<g id="edge14" class="edge">
<title>packages/tonal&#45;objects/src/index.ts&#45;&gt;node_modules/@tonaljs/pitch&#45;note</title>
<path fill="none" stroke="#000000" stroke-opacity="0.200000" d="M148.36,-335.83C170.08,-308.76 233.99,-229.12 259.9,-196.83"/>
<polygon fill="#000000" fill-opacity="0.200000" stroke="#000000" stroke-opacity="0.200000" points="261.6,-198.07 263.72,-192.07 258.33,-195.44 261.6,-198.07"/>
</g>
<!-- packages/util/stdlib/src/string/cast&#45;to&#45;number.ts -->
<g id="node12" class="node">
<title>packages/util/stdlib/src/string/cast&#45;to&#45;number.ts</title>
<g id="a_node12"><a xlink:href="packages/util/stdlib/src/string/cast-to-number.ts" xlink:title="cast&#45;to&#45;number.ts">
<path fill="#ddfeff" stroke="black" d="M315,-370C315,-370 229,-370 229,-370 226,-370 223,-367 223,-364 223,-364 223,-358 223,-358 223,-355 226,-352 229,-352 229,-352 315,-352 315,-352 318,-352 321,-355 321,-358 321,-358 321,-364 321,-364 321,-367 318,-370 315,-370"/>
<text text-anchor="start" x="231" y="-358.8" font-family="Helvetica,sans-Serif" font-size="9.00">cast&#45;to&#45;number.ts</text>
</a>
</g>
</g>
<!-- packages/tonal&#45;objects/src/index.ts&#45;&gt;packages/util/stdlib/src/string/cast&#45;to&#45;number.ts -->
<g id="edge10" class="edge">
<title>packages/tonal&#45;objects/src/index.ts&#45;&gt;packages/util/stdlib/src/string/cast&#45;to&#45;number.ts</title>
<path fill="none" stroke="#000000" stroke-width="2" stroke-opacity="0.200000" d="M167.31,-348.24C181.51,-349.99 199.6,-352.21 216.67,-354.31"/>
<polygon fill="#000000" fill-opacity="0.200000" stroke="#000000" stroke-width="2" stroke-opacity="0.200000" points="216.7,-356.43 222.91,-355.08 217.21,-352.26 216.7,-356.43"/>
</g>
<!-- packages/util/stdlib/src/assertion/not&#45;nan.ts -->
<g id="node13" class="node">
<title>packages/util/stdlib/src/assertion/not&#45;nan.ts</title>
<g id="a_node13"><a xlink:href="packages/util/stdlib/src/assertion/not-nan.ts" xlink:title="not&#45;nan.ts">
<path fill="#ddfeff" stroke="black" d="M404,-370C404,-370 353,-370 353,-370 350,-370 347,-367 347,-364 347,-364 347,-358 347,-358 347,-355 350,-352 353,-352 353,-352 404,-352 404,-352 407,-352 410,-355 410,-358 410,-358 410,-364 410,-364 410,-367 407,-370 404,-370"/>
<text text-anchor="start" x="355" y="-358.8" font-family="Helvetica,sans-Serif" font-size="9.00">not&#45;nan.ts</text>
</a>
</g>
</g>
<!-- packages/util/stdlib/src/string/cast&#45;to&#45;number.ts&#45;&gt;packages/util/stdlib/src/assertion/not&#45;nan.ts -->
<g id="edge15" class="edge">
<title>packages/util/stdlib/src/string/cast&#45;to&#45;number.ts&#45;&gt;packages/util/stdlib/src/assertion/not&#45;nan.ts</title>
<path fill="none" stroke="#000000" stroke-width="2" stroke-opacity="0.200000" d="M321.27,-361C327.77,-361 334.35,-361 340.61,-361"/>
<polygon fill="#000000" fill-opacity="0.200000" stroke="#000000" stroke-width="2" stroke-opacity="0.200000" points="340.74,-363.1 346.74,-361 340.74,-358.9 340.74,-363.1"/>
</g>
<!-- packages/util/stdlib/src/error/throw&#45;function.ts -->
<g id="node14" class="node">
<title>packages/util/stdlib/src/error/throw&#45;function.ts</title>
<g id="a_node14"><a xlink:href="packages/util/stdlib/src/error/throw-function.ts" xlink:title="throw&#45;function.ts">
<path fill="#ddfeff" stroke="black" d="M523,-370C523,-370 440,-370 440,-370 437,-370 434,-367 434,-364 434,-364 434,-358 434,-358 434,-355 437,-352 440,-352 440,-352 523,-352 523,-352 526,-352 529,-355 529,-358 529,-358 529,-364 529,-364 529,-367 526,-370 523,-370"/>
<text text-anchor="start" x="442" y="-358.8" font-family="Helvetica,sans-Serif" font-size="9.00">throw&#45;function.ts</text>
</a>
</g>
</g>
<!-- packages/util/stdlib/src/assertion/not&#45;nan.ts&#45;&gt;packages/util/stdlib/src/error/throw&#45;function.ts -->
<g id="edge14" class="edge">
<title>packages/util/stdlib/src/assertion/not&#45;nan.ts&#45;&gt;packages/util/stdlib/src/error/throw&#45;function.ts</title>
<path fill="none" stroke="#000000" stroke-width="2" stroke-opacity="0.200000" d="M410.08,-361C415.74,-361 421.8,-361 427.9,-361"/>
<polygon fill="#000000" fill-opacity="0.200000" stroke="#000000" stroke-width="2" stroke-opacity="0.200000" points="428,-363.1 434,-361 428,-358.9 428,-363.1"/>
</g>
</g>
</svg>
