<?xml version="1.0" encoding="UTF-8" standalone="no"?>
<!DOCTYPE svg PUBLIC "-//W3C//DTD SVG 1.1//EN"
 "http://www.w3.org/Graphics/SVG/1.1/DTD/svg11.dtd">
<!-- Generated by graphviz version 2.43.0 (0)
 -->
<!-- Title: dependency&#45;cruiser output Pages: 1 -->
<svg width="145pt" height="174pt"
 viewBox="0.00 0.00 145.00 174.00" xmlns="http://www.w3.org/2000/svg" xmlns:xlink="http://www.w3.org/1999/xlink">
<g id="graph0" class="graph" transform="scale(1 1) rotate(0) translate(4 170)">
<title>dependency&#45;cruiser output</title>
<polygon fill="white" stroke="transparent" points="-4,4 -4,-170 141,-170 141,4 -4,4"/>
<g id="clust1" class="cluster">
<title>cluster_packages</title>
<path fill="#ffffff" stroke="black" stroke-width="2" d="M20,-8C20,-8 117,-8 117,-8 123,-8 129,-14 129,-20 129,-20 129,-146 129,-146 129,-152 123,-158 117,-158 117,-158 20,-158 20,-158 14,-158 8,-152 8,-146 8,-146 8,-20 8,-20 8,-14 14,-8 20,-8"/>
<text text-anchor="middle" x="68.5" y="-146.8" font-family="Helvetica,sans-Serif" font-weight="bold" font-size="9.00">packages</text>
</g>
<g id="clust2" class="cluster">
<title>cluster_packages/UI</title>
<path fill="#ffffff" stroke="black" stroke-width="2" d="M28,-16C28,-16 109,-16 109,-16 115,-16 121,-22 121,-28 121,-28 121,-120 121,-120 121,-126 115,-132 109,-132 109,-132 28,-132 28,-132 22,-132 16,-126 16,-120 16,-120 16,-28 16,-28 16,-22 22,-16 28,-16"/>
<text text-anchor="middle" x="68.5" y="-120.8" font-family="Helvetica,sans-Serif" font-weight="bold" font-size="9.00">UI</text>
</g>
<g id="clust3" class="cluster">
<title>cluster_packages/UI/synth</title>
<path fill="#ffffff" stroke="black" stroke-width="2" d="M36,-24C36,-24 101,-24 101,-24 107,-24 113,-30 113,-36 113,-36 113,-94 113,-94 113,-100 107,-106 101,-106 101,-106 36,-106 36,-106 30,-106 24,-100 24,-94 24,-94 24,-36 24,-36 24,-30 30,-24 36,-24"/>
<text text-anchor="middle" x="68.5" y="-94.8" font-family="Helvetica,sans-Serif" font-weight="bold" font-size="9.00">synth</text>
</g>
<!-- packages/UI/synth/index.test.ts -->
<g id="node1" class="node">
<title>packages/UI/synth/index.test.ts</title>
<g id="a_node1"><a xlink:href="packages/UI/synth/index.test.ts" xlink:title="no&#45;orphans">
<path fill="#ccffcc" stroke="orange" d="M99,-80C99,-80 38,-80 38,-80 35,-80 32,-77 32,-74 32,-74 32,-68 32,-68 32,-65 35,-62 38,-62 38,-62 99,-62 99,-62 102,-62 105,-65 105,-68 105,-68 105,-74 105,-74 105,-77 102,-80 99,-80"/>
<text text-anchor="start" x="40" y="-68.8" font-family="Helvetica,sans-Serif" font-size="9.00" fill="orange">index.test.ts</text>
</a>
</g>
</g>
<!-- packages/UI/synth/index.ts -->
<g id="node2" class="node">
<title>packages/UI/synth/index.ts</title>
<g id="a_node2"><a xlink:href="packages/UI/synth/index.ts" xlink:title="no&#45;orphans">
<path fill="#ccffcc" stroke="orange" d="M89.5,-50C89.5,-50 47.5,-50 47.5,-50 44.5,-50 41.5,-47 41.5,-44 41.5,-44 41.5,-38 41.5,-38 41.5,-35 44.5,-32 47.5,-32 47.5,-32 89.5,-32 89.5,-32 92.5,-32 95.5,-35 95.5,-38 95.5,-38 95.5,-44 95.5,-44 95.5,-47 92.5,-50 89.5,-50"/>
<text text-anchor="start" x="50" y="-38.8" font-family="Helvetica,sans-Serif" font-size="9.00" fill="orange">index.ts</text>
</a>
</g>
</g>
</g>
</svg>
