<?xml version="1.0" encoding="UTF-8" standalone="no"?>
<!DOCTYPE svg PUBLIC "-//W3C//DTD SVG 1.1//EN"
 "http://www.w3.org/Graphics/SVG/1.1/DTD/svg11.dtd">
<!-- Generated by graphviz version 2.43.0 (0)
 -->
<!-- Title: dependency&#45;cruiser output Pages: 1 -->
<svg width="341pt" height="234pt"
 viewBox="0.00 0.00 340.50 234.00" xmlns="http://www.w3.org/2000/svg" xmlns:xlink="http://www.w3.org/1999/xlink">
<g id="graph0" class="graph" transform="scale(1 1) rotate(0) translate(4 230)">
<title>dependency&#45;cruiser output</title>
<polygon fill="white" stroke="transparent" points="-4,4 -4,-230 336.5,-230 336.5,4 -4,4"/>
<g id="clust1" class="cluster">
<title>cluster_packages</title>
<path fill="#ffffff" stroke="black" stroke-width="2" d="M20,-8C20,-8 312.5,-8 312.5,-8 318.5,-8 324.5,-14 324.5,-20 324.5,-20 324.5,-206 324.5,-206 324.5,-212 318.5,-218 312.5,-218 312.5,-218 20,-218 20,-218 14,-218 8,-212 8,-206 8,-206 8,-20 8,-20 8,-14 14,-8 20,-8"/>
<text text-anchor="middle" x="166.25" y="-206.8" font-family="Helvetica,sans-Serif" font-weight="bold" font-size="9.00">packages</text>
</g>
<g id="clust2" class="cluster">
<title>cluster_packages/UI</title>
<path fill="#ffffff" stroke="black" stroke-width="2" d="M28,-16C28,-16 304.5,-16 304.5,-16 310.5,-16 316.5,-22 316.5,-28 316.5,-28 316.5,-180 316.5,-180 316.5,-186 310.5,-192 304.5,-192 304.5,-192 28,-192 28,-192 22,-192 16,-186 16,-180 16,-180 16,-28 16,-28 16,-22 22,-16 28,-16"/>
<text text-anchor="middle" x="166.25" y="-180.8" font-family="Helvetica,sans-Serif" font-weight="bold" font-size="9.00">UI</text>
</g>
<g id="clust3" class="cluster">
<title>cluster_packages/UI/synth</title>
<path fill="#ffffff" stroke="black" stroke-width="2" d="M36,-24C36,-24 296.5,-24 296.5,-24 302.5,-24 308.5,-30 308.5,-36 308.5,-36 308.5,-154 308.5,-154 308.5,-160 302.5,-166 296.5,-166 296.5,-166 36,-166 36,-166 30,-166 24,-160 24,-154 24,-154 24,-36 24,-36 24,-30 30,-24 36,-24"/>
<text text-anchor="middle" x="166.25" y="-154.8" font-family="Helvetica,sans-Serif" font-weight="bold" font-size="9.00">synth</text>
</g>
<g id="clust4" class="cluster">
<title>cluster_packages/UI/synth/src</title>
<path fill="#ffffff" stroke="black" stroke-width="2" d="M44,-58C44,-58 288.5,-58 288.5,-58 294.5,-58 300.5,-64 300.5,-70 300.5,-70 300.5,-128 300.5,-128 300.5,-134 294.5,-140 288.5,-140 288.5,-140 44,-140 44,-140 38,-140 32,-134 32,-128 32,-128 32,-70 32,-70 32,-64 38,-58 44,-58"/>
<text text-anchor="middle" x="166.25" y="-128.8" font-family="Helvetica,sans-Serif" font-weight="bold" font-size="9.00">src</text>
</g>
<!-- packages/UI/synth/index.test.ts -->
<g id="node1" class="node">
<title>packages/UI/synth/index.test.ts</title>
<g id="a_node1"><a xlink:href="packages/UI/synth/index.test.ts" xlink:title="no&#45;orphans">
<path fill="#ccffcc" stroke="orange" d="M105.5,-50C105.5,-50 44.5,-50 44.5,-50 41.5,-50 38.5,-47 38.5,-44 38.5,-44 38.5,-38 38.5,-38 38.5,-35 41.5,-32 44.5,-32 44.5,-32 105.5,-32 105.5,-32 108.5,-32 111.5,-35 111.5,-38 111.5,-38 111.5,-44 111.5,-44 111.5,-47 108.5,-50 105.5,-50"/>
<text text-anchor="start" x="46.5" y="-38.8" font-family="Helvetica,sans-Serif" font-size="9.00" fill="orange">index.test.ts</text>
</a>
</g>
</g>
<!-- packages/UI/synth/src/create&#45;gain.ts -->
<g id="node2" class="node">
<title>packages/UI/synth/src/create&#45;gain.ts</title>
<g id="a_node2"><a xlink:href="packages/UI/synth/src/create-gain.ts" xlink:title="create&#45;gain.ts">
<path fill="#ddfeff" stroke="black" d="M275.5,-84C275.5,-84 208.5,-84 208.5,-84 205.5,-84 202.5,-81 202.5,-78 202.5,-78 202.5,-72 202.5,-72 202.5,-69 205.5,-66 208.5,-66 208.5,-66 275.5,-66 275.5,-66 278.5,-66 281.5,-69 281.5,-72 281.5,-72 281.5,-78 281.5,-78 281.5,-81 278.5,-84 275.5,-84"/>
<text text-anchor="start" x="210.5" y="-72.8" font-family="Helvetica,sans-Serif" font-size="9.00">create&#45;gain.ts</text>
</a>
</g>
</g>
<!-- packages/UI/synth/src/create&#45;oscilllator.ts -->
<g id="node3" class="node">
<title>packages/UI/synth/src/create&#45;oscilllator.ts</title>
<g id="a_node3"><a xlink:href="packages/UI/synth/src/create-oscilllator.ts" xlink:title="create&#45;oscilllator.ts">
<path fill="#ddfeff" stroke="black" d="M286.5,-114C286.5,-114 197.5,-114 197.5,-114 194.5,-114 191.5,-111 191.5,-108 191.5,-108 191.5,-102 191.5,-102 191.5,-99 194.5,-96 197.5,-96 197.5,-96 286.5,-96 286.5,-96 289.5,-96 292.5,-99 292.5,-102 292.5,-102 292.5,-108 292.5,-108 292.5,-111 289.5,-114 286.5,-114"/>
<text text-anchor="start" x="199.5" y="-102.8" font-family="Helvetica,sans-Serif" font-size="9.00">create&#45;oscilllator.ts</text>
</a>
</g>
</g>
<!-- packages/UI/synth/src/play&#45;note.ts -->
<g id="node4" class="node">
<title>packages/UI/synth/src/play&#45;note.ts</title>
<g id="a_node4"><a xlink:href="packages/UI/synth/src/play-note.ts" xlink:title="play&#45;note.ts">
<path fill="#ddfeff" stroke="black" d="M104,-99C104,-99 46,-99 46,-99 43,-99 40,-96 40,-93 40,-93 40,-87 40,-87 40,-84 43,-81 46,-81 46,-81 104,-81 104,-81 107,-81 110,-84 110,-87 110,-87 110,-93 110,-93 110,-96 107,-99 104,-99"/>
<text text-anchor="start" x="48" y="-87.8" font-family="Helvetica,sans-Serif" font-size="9.00">play&#45;note.ts</text>
</a>
</g>
</g>
<!-- packages/UI/synth/src/play.ts -->
<g id="node5" class="node">
<title>packages/UI/synth/src/play.ts</title>
<g id="a_node5"><a xlink:href="packages/UI/synth/src/play.ts" xlink:title="play.ts">
<path fill="#ddfeff" stroke="black" d="M172.5,-99C172.5,-99 130.5,-99 130.5,-99 127.5,-99 124.5,-96 124.5,-93 124.5,-93 124.5,-87 124.5,-87 124.5,-84 127.5,-81 130.5,-81 130.5,-81 172.5,-81 172.5,-81 175.5,-81 178.5,-84 178.5,-87 178.5,-87 178.5,-93 178.5,-93 178.5,-96 175.5,-99 172.5,-99"/>
<text text-anchor="start" x="137" y="-87.8" font-family="Helvetica,sans-Serif" font-size="9.00">play.ts</text>
</a>
</g>
</g>
<!-- packages/UI/synth/src/play&#45;note.ts&#45;&gt;packages/UI/synth/src/play.ts -->
<g id="edge1" class="edge">
<title>packages/UI/synth/src/play&#45;note.ts&#45;&gt;packages/UI/synth/src/play.ts</title>
<path fill="none" stroke="#000000" stroke-width="2" stroke-opacity="0.200000" d="M110.2,-90C112.87,-90 115.55,-90 118.21,-90"/>
<polygon fill="#000000" fill-opacity="0.200000" stroke="#000000" stroke-width="2" stroke-opacity="0.200000" points="118.32,-92.1 124.32,-90 118.32,-87.9 118.32,-92.1"/>
</g>
<!-- packages/UI/synth/src/play.ts&#45;&gt;packages/UI/synth/src/create&#45;gain.ts -->
<g id="edge2" class="edge">
<title>packages/UI/synth/src/play.ts&#45;&gt;packages/UI/synth/src/create&#45;gain.ts</title>
<path fill="none" stroke="#000000" stroke-width="2" stroke-opacity="0.200000" d="M178.57,-85.58C184.16,-84.63 190.21,-83.61 196.27,-82.58"/>
<polygon fill="#000000" fill-opacity="0.200000" stroke="#000000" stroke-width="2" stroke-opacity="0.200000" points="196.75,-84.63 202.32,-81.56 196.05,-80.49 196.75,-84.63"/>
</g>
<!-- packages/UI/synth/src/play.ts&#45;&gt;packages/UI/synth/src/create&#45;oscilllator.ts -->
<g id="edge3" class="edge">
<title>packages/UI/synth/src/play.ts&#45;&gt;packages/UI/synth/src/create&#45;oscilllator.ts</title>
<path fill="none" stroke="#000000" stroke-width="2" stroke-opacity="0.200000" d="M178.57,-94.42C180.74,-94.79 182.98,-95.17 185.26,-95.55"/>
<polygon fill="#000000" fill-opacity="0.200000" stroke="#000000" stroke-width="2" stroke-opacity="0.200000" points="185.12,-97.66 191.38,-96.59 185.82,-93.52 185.12,-97.66"/>
</g>
</g>
</svg>
