<?xml version="1.0" encoding="UTF-8" standalone="no"?>
<!DOCTYPE svg PUBLIC "-//W3C//DTD SVG 1.1//EN"
 "http://www.w3.org/Graphics/SVG/1.1/DTD/svg11.dtd">
<!-- Generated by graphviz version 2.43.0 (0)
 -->
<!-- Title: dependency&#45;cruiser output Pages: 1 -->
<svg width="420pt" height="212pt"
 viewBox="0.00 0.00 420.00 212.00" xmlns="http://www.w3.org/2000/svg" xmlns:xlink="http://www.w3.org/1999/xlink">
<g id="graph0" class="graph" transform="scale(1 1) rotate(0) translate(4 208)">
<title>dependency&#45;cruiser output</title>
<polygon fill="white" stroke="transparent" points="-4,4 -4,-208 416,-208 416,4 -4,4"/>
<g id="clust1" class="cluster">
<title>cluster_packages</title>
<path fill="#ffffff" stroke="black" stroke-width="2" d="M20,-8C20,-8 392,-8 392,-8 398,-8 404,-14 404,-20 404,-20 404,-184 404,-184 404,-190 398,-196 392,-196 392,-196 20,-196 20,-196 14,-196 8,-190 8,-184 8,-184 8,-20 8,-20 8,-14 14,-8 20,-8"/>
<text text-anchor="middle" x="206" y="-184.8" font-family="Helvetica,sans-Serif" font-weight="bold" font-size="9.00">packages</text>
</g>
<g id="clust2" class="cluster">
<title>cluster_packages/UI</title>
<path fill="#ffffff" stroke="black" stroke-width="2" d="M28,-16C28,-16 384,-16 384,-16 390,-16 396,-22 396,-28 396,-28 396,-158 396,-158 396,-164 390,-170 384,-170 384,-170 28,-170 28,-170 22,-170 16,-164 16,-158 16,-158 16,-28 16,-28 16,-22 22,-16 28,-16"/>
<text text-anchor="middle" x="206" y="-158.8" font-family="Helvetica,sans-Serif" font-weight="bold" font-size="9.00">UI</text>
</g>
<g id="clust3" class="cluster">
<title>cluster_packages/UI/synth</title>
<path fill="#ffffff" stroke="black" stroke-width="2" d="M36,-24C36,-24 376,-24 376,-24 382,-24 388,-30 388,-36 388,-36 388,-132 388,-132 388,-138 382,-144 376,-144 376,-144 36,-144 36,-144 30,-144 24,-138 24,-132 24,-132 24,-36 24,-36 24,-30 30,-24 36,-24"/>
<text text-anchor="middle" x="206" y="-132.8" font-family="Helvetica,sans-Serif" font-weight="bold" font-size="9.00">synth</text>
</g>
<g id="clust4" class="cluster">
<title>cluster_packages/UI/synth/src</title>
<path fill="#ffffff" stroke="black" stroke-width="2" d="M125,-36C125,-36 368,-36 368,-36 374,-36 380,-42 380,-48 380,-48 380,-106 380,-106 380,-112 374,-118 368,-118 368,-118 125,-118 125,-118 119,-118 113,-112 113,-106 113,-106 113,-48 113,-48 113,-42 119,-36 125,-36"/>
<text text-anchor="middle" x="246.5" y="-106.8" font-family="Helvetica,sans-Serif" font-weight="bold" font-size="9.00">src</text>
</g>
<!-- packages/UI/synth/index.test.ts -->
<g id="node1" class="node">
<title>packages/UI/synth/index.test.ts</title>
<g id="a_node1"><a xlink:href="packages/UI/synth/index.test.ts" xlink:title="no&#45;orphans">
<path fill="#ccffcc" stroke="orange" d="M99,-109C99,-109 38,-109 38,-109 35,-109 32,-106 32,-103 32,-103 32,-97 32,-97 32,-94 35,-91 38,-91 38,-91 99,-91 99,-91 102,-91 105,-94 105,-97 105,-97 105,-103 105,-103 105,-106 102,-109 99,-109"/>
<text text-anchor="start" x="40" y="-97.8" font-family="Helvetica,sans-Serif" font-size="9.00" fill="orange">index.test.ts</text>
</a>
</g>
</g>
<!-- packages/UI/synth/index.ts -->
<g id="node2" class="node">
<title>packages/UI/synth/index.ts</title>
<g id="a_node2"><a xlink:href="packages/UI/synth/index.ts" xlink:title="index.ts">
<path fill="#ddfeff" stroke="black" d="M89.5,-63C89.5,-63 47.5,-63 47.5,-63 44.5,-63 41.5,-60 41.5,-57 41.5,-57 41.5,-51 41.5,-51 41.5,-48 44.5,-45 47.5,-45 47.5,-45 89.5,-45 89.5,-45 92.5,-45 95.5,-48 95.5,-51 95.5,-51 95.5,-57 95.5,-57 95.5,-60 92.5,-63 89.5,-63"/>
<text text-anchor="start" x="50" y="-51.8" font-family="Helvetica,sans-Serif" font-size="9.00">index.ts</text>
</a>
</g>
</g>
<!-- packages/UI/synth/src/create&#45;gain.ts -->
<g id="node3" class="node">
<title>packages/UI/synth/src/create&#45;gain.ts</title>
<g id="a_node3"><a xlink:href="packages/UI/synth/src/create-gain.ts" xlink:title="create&#45;gain.ts">
<path fill="#ddfeff" stroke="black" d="M355,-62C355,-62 288,-62 288,-62 285,-62 282,-59 282,-56 282,-56 282,-50 282,-50 282,-47 285,-44 288,-44 288,-44 355,-44 355,-44 358,-44 361,-47 361,-50 361,-50 361,-56 361,-56 361,-59 358,-62 355,-62"/>
<text text-anchor="start" x="290" y="-50.8" font-family="Helvetica,sans-Serif" font-size="9.00">create&#45;gain.ts</text>
</a>
</g>
</g>
<!-- packages/UI/synth/index.ts&#45;&gt;packages/UI/synth/src/create&#45;gain.ts -->
<g id="edge1" class="edge">
<title>packages/UI/synth/index.ts&#45;&gt;packages/UI/synth/src/create&#45;gain.ts</title>
<path fill="none" stroke="#000000" stroke-width="2" stroke-opacity="0.200000" d="M95.58,-53.89C138.57,-53.72 222.96,-53.39 275.55,-53.18"/>
<polygon fill="#000000" fill-opacity="0.200000" stroke="#000000" stroke-width="2" stroke-opacity="0.200000" points="281.81,-55.26 275.8,-53.18 281.8,-51.06 281.81,-55.26"/>
</g>
<!-- packages/UI/synth/src/create&#45;oscilllator.ts -->
<g id="node4" class="node">
<title>packages/UI/synth/src/create&#45;oscilllator.ts</title>
<g id="a_node4"><a xlink:href="packages/UI/synth/src/create-oscilllator.ts" xlink:title="create&#45;oscilllator.ts">
<path fill="#ddfeff" stroke="black" d="M366,-92C366,-92 277,-92 277,-92 274,-92 271,-89 271,-86 271,-86 271,-80 271,-80 271,-77 274,-74 277,-74 277,-74 366,-74 366,-74 369,-74 372,-77 372,-80 372,-80 372,-86 372,-86 372,-89 369,-92 366,-92"/>
<text text-anchor="start" x="279" y="-80.8" font-family="Helvetica,sans-Serif" font-size="9.00">create&#45;oscilllator.ts</text>
</a>
</g>
</g>
<!-- packages/UI/synth/index.ts&#45;&gt;packages/UI/synth/src/create&#45;oscilllator.ts -->
<g id="edge2" class="edge">
<title>packages/UI/synth/index.ts&#45;&gt;packages/UI/synth/src/create&#45;oscilllator.ts</title>
<path fill="none" stroke="#000000" stroke-width="2" stroke-opacity="0.200000" d="M95.58,-57.1C135.71,-61.7 211.93,-70.44 264.66,-76.49"/>
<polygon fill="#000000" fill-opacity="0.200000" stroke="#000000" stroke-width="2" stroke-opacity="0.200000" points="270.41,-79.26 264.69,-76.49 270.89,-75.09 270.41,-79.26"/>
</g>
<!-- packages/UI/synth/src/play.ts -->
<g id="node5" class="node">
<title>packages/UI/synth/src/play.ts</title>
<g id="a_node5"><a xlink:href="packages/UI/synth/src/play.ts" xlink:title="play.ts">
<path fill="#ddfeff" stroke="black" d="M252,-85C252,-85 210,-85 210,-85 207,-85 204,-82 204,-79 204,-79 204,-73 204,-73 204,-70 207,-67 210,-67 210,-67 252,-67 252,-67 255,-67 258,-70 258,-73 258,-73 258,-79 258,-79 258,-82 255,-85 252,-85"/>
<text text-anchor="start" x="216.5" y="-73.8" font-family="Helvetica,sans-Serif" font-size="9.00">play.ts</text>
</a>
</g>
</g>
<!-- packages/UI/synth/index.ts&#45;&gt;packages/UI/synth/src/play.ts -->
<g id="edge3" class="edge">
<title>packages/UI/synth/index.ts&#45;&gt;packages/UI/synth/src/play.ts</title>
<path fill="none" stroke="#000000" stroke-width="2" stroke-opacity="0.200000" d="M95.7,-57.68C123.79,-61.49 167.65,-67.42 197.77,-71.5"/>
<polygon fill="#000000" fill-opacity="0.200000" stroke="#000000" stroke-width="2" stroke-opacity="0.200000" points="203.7,-74.42 198.04,-71.54 204.27,-70.26 203.7,-74.42"/>
</g>
<!-- packages/UI/synth/src/play&#45;note.ts -->
<g id="node6" class="node">
<title>packages/UI/synth/src/play&#45;note.ts</title>
<g id="a_node6"><a xlink:href="packages/UI/synth/src/play-note.ts" xlink:title="play&#45;note.ts">
<path fill="#ddfeff" stroke="black" d="M185,-92C185,-92 127,-92 127,-92 124,-92 121,-89 121,-86 121,-86 121,-80 121,-80 121,-77 124,-74 127,-74 127,-74 185,-74 185,-74 188,-74 191,-77 191,-80 191,-80 191,-86 191,-86 191,-89 188,-92 185,-92"/>
<text text-anchor="start" x="129" y="-80.8" font-family="Helvetica,sans-Serif" font-size="9.00">play&#45;note.ts</text>
</a>
</g>
</g>
<!-- packages/UI/synth/index.ts&#45;&gt;packages/UI/synth/src/play&#45;note.ts -->
<g id="edge4" class="edge">
<title>packages/UI/synth/index.ts&#45;&gt;packages/UI/synth/src/play&#45;note.ts</title>
<path fill="none" stroke="#000000" stroke-width="2" stroke-opacity="0.200000" d="M95.62,-62.86C104.16,-65.76 113.75,-69.01 122.69,-72.04"/>
<polygon fill="#000000" fill-opacity="0.200000" stroke="#000000" stroke-width="2" stroke-opacity="0.200000" points="127.78,-75.98 122.77,-72.07 129.13,-72.01 127.78,-75.98"/>
</g>
<!-- packages/UI/synth/src/play.ts&#45;&gt;packages/UI/synth/src/create&#45;gain.ts -->
<g id="edge6" class="edge">
<title>packages/UI/synth/src/play.ts&#45;&gt;packages/UI/synth/src/create&#45;gain.ts</title>
<path fill="none" stroke="#000000" stroke-width="2" stroke-opacity="0.200000" d="M258.07,-69.22C264.85,-67.46 272.31,-65.53 279.64,-63.62"/>
<polygon fill="#000000" fill-opacity="0.200000" stroke="#000000" stroke-width="2" stroke-opacity="0.200000" points="280.47,-65.57 285.75,-62.03 279.42,-61.51 280.47,-65.57"/>
</g>
<!-- packages/UI/synth/src/play.ts&#45;&gt;packages/UI/synth/src/create&#45;oscilllator.ts -->
<g id="edge7" class="edge">
<title>packages/UI/synth/src/play.ts&#45;&gt;packages/UI/synth/src/create&#45;oscilllator.ts</title>
<path fill="none" stroke="#000000" stroke-width="2" stroke-opacity="0.200000" d="M258.07,-78.06C260.24,-78.23 262.48,-78.41 264.76,-78.59"/>
<polygon fill="#000000" fill-opacity="0.200000" stroke="#000000" stroke-width="2" stroke-opacity="0.200000" points="264.73,-80.7 270.88,-79.08 265.07,-76.51 264.73,-80.7"/>
</g>
<!-- packages/UI/synth/src/play&#45;note.ts&#45;&gt;packages/UI/synth/src/play.ts -->
<g id="edge5" class="edge">
<title>packages/UI/synth/src/play&#45;note.ts&#45;&gt;packages/UI/synth/src/play.ts</title>
<path fill="none" stroke="#000000" stroke-width="2" stroke-opacity="0.200000" d="M191.36,-79.7C193.43,-79.51 195.51,-79.31 197.58,-79.11"/>
<polygon fill="#000000" fill-opacity="0.200000" stroke="#000000" stroke-width="2" stroke-opacity="0.200000" points="197.91,-81.19 203.68,-78.52 197.51,-77.01 197.91,-81.19"/>
</g>
</g>
</svg>
