<?xml version="1.0" encoding="UTF-8" standalone="no"?>
<!DOCTYPE svg PUBLIC "-//W3C//DTD SVG 1.1//EN"
 "http://www.w3.org/Graphics/SVG/1.1/DTD/svg11.dtd">
<!-- Generated by graphviz version 2.43.0 (0)
 -->
<!-- Title: dependency&#45;cruiser output Pages: 1 -->
<svg width="391pt" height="242pt"
 viewBox="0.00 0.00 391.00 241.90" xmlns="http://www.w3.org/2000/svg" xmlns:xlink="http://www.w3.org/1999/xlink">
<g id="graph0" class="graph" transform="scale(1 1) rotate(0) translate(4 237.9)">
<title>dependency&#45;cruiser output</title>
<polygon fill="white" stroke="transparent" points="-4,4 -4,-237.9 387,-237.9 387,4 -4,4"/>
<g id="clust1" class="cluster">
<title>cluster_packages</title>
<path fill="#ffffff" stroke="black" stroke-width="2" d="M12,0C12,0 371,0 371,0 377,0 383,-6 383,-12 383,-12 383,-221.9 383,-221.9 383,-227.9 377,-233.9 371,-233.9 371,-233.9 12,-233.9 12,-233.9 6,-233.9 0,-227.9 0,-221.9 0,-221.9 0,-12 0,-12 0,-6 6,0 12,0"/>
<text text-anchor="middle" x="191.5" y="-222.7" font-family="Helvetica,sans-Serif" font-weight="bold" font-size="9.00">packages</text>
</g>
<!-- packages/util/time&#45;and/index.ts -->
<g id="node1" class="node">
<title>packages/util/time&#45;and/index.ts</title>
<g id="a_node1"><a xlink:href="packages/util/time-and/index.ts" xlink:title="index.ts">
<path fill="#ddfeff" stroke="black" d="M81.65,-18C81.65,-18 39.65,-18 39.65,-18 36.65,-18 33.65,-15 33.65,-12 33.65,-12 33.65,-6 33.65,-6 33.65,-3 36.65,0 39.65,0 39.65,0 81.65,0 81.65,0 84.65,0 87.65,-3 87.65,-6 87.65,-6 87.65,-12 87.65,-12 87.65,-15 84.65,-18 81.65,-18"/>
<text text-anchor="start" x="42.15" y="-6.8" font-family="Helvetica,sans-Serif" font-size="9.00">index.ts</text>
</a>
</g>
</g>
<!-- packages/util/time&#45;and/src/index.ts -->
<g id="node2" class="node">
<title>packages/util/time&#45;and/src/index.ts</title>
<g id="a_node2"><a xlink:href="packages/util/time-and/src/index.ts" xlink:title="index.ts">
<path fill="#ddfeff" stroke="black" d="M174.09,-118.25C174.09,-118.25 132.09,-118.25 132.09,-118.25 129.09,-118.25 126.09,-115.25 126.09,-112.25 126.09,-112.25 126.09,-106.25 126.09,-106.25 126.09,-103.25 129.09,-100.25 132.09,-100.25 132.09,-100.25 174.09,-100.25 174.09,-100.25 177.09,-100.25 180.09,-103.25 180.09,-106.25 180.09,-106.25 180.09,-112.25 180.09,-112.25 180.09,-115.25 177.09,-118.25 174.09,-118.25"/>
<text text-anchor="start" x="134.59" y="-107.05" font-family="Helvetica,sans-Serif" font-size="9.00">index.ts</text>
</a>
</g>
</g>
<!-- packages/util/time&#45;and/index.ts&#45;&gt;packages/util/time&#45;and/src/index.ts -->
<g id="edge1" class="edge">
<title>packages/util/time&#45;and/index.ts&#45;&gt;packages/util/time&#45;and/src/index.ts</title>
<path fill="none" stroke="#000000" stroke-width="2" stroke-opacity="0.200000" d="M69.18,-18.25C85.48,-35.93 121.14,-74.61 140.31,-95.39"/>
<polygon fill="#000000" fill-opacity="0.200000" stroke="#000000" stroke-width="2" stroke-opacity="0.200000" points="143.04,-101.44 140.51,-95.61 146.12,-98.6 143.04,-101.44"/>
</g>
<!-- packages/util/time&#45;and/src/compress.ts -->
<g id="node4" class="node">
<title>packages/util/time&#45;and/src/compress.ts</title>
<g id="a_node4"><a xlink:href="packages/util/time-and/src/compress.ts" xlink:title="compress.ts">
<path fill="#ddfeff" stroke="black" d="M285.1,-60.86C285.1,-60.86 226.1,-60.86 226.1,-60.86 223.1,-60.86 220.1,-57.86 220.1,-54.86 220.1,-54.86 220.1,-48.86 220.1,-48.86 220.1,-45.86 223.1,-42.86 226.1,-42.86 226.1,-42.86 285.1,-42.86 285.1,-42.86 288.1,-42.86 291.1,-45.86 291.1,-48.86 291.1,-48.86 291.1,-54.86 291.1,-54.86 291.1,-57.86 288.1,-60.86 285.1,-60.86"/>
<text text-anchor="start" x="228.1" y="-49.66" font-family="Helvetica,sans-Serif" font-size="9.00">compress.ts</text>
</a>
</g>
</g>
<!-- packages/util/time&#45;and/src/index.ts&#45;&gt;packages/util/time&#45;and/src/compress.ts -->
<g id="edge3" class="edge">
<title>packages/util/time&#45;and/src/index.ts&#45;&gt;packages/util/time&#45;and/src/compress.ts</title>
<path fill="none" stroke="#000000" stroke-width="2" stroke-opacity="0.200000" d="M169.56,-100.03C187,-90.26 214.61,-74.81 233.83,-64.04"/>
<polygon fill="#000000" fill-opacity="0.200000" stroke="#000000" stroke-width="2" stroke-opacity="0.200000" points="240.53,-62.7 234.27,-63.8 238.48,-59.03 240.53,-62.7"/>
</g>
<!-- packages/util/time&#45;and/src/time.ts -->
<g id="node5" class="node">
<title>packages/util/time&#45;and/src/time.ts</title>
<g id="a_node5"><a xlink:href="packages/util/time-and/src/time.ts" xlink:title="time.ts">
<path fill="#ddfeff" stroke="black" d="M221.05,-207.34C221.05,-207.34 179.05,-207.34 179.05,-207.34 176.05,-207.34 173.05,-204.34 173.05,-201.34 173.05,-201.34 173.05,-195.34 173.05,-195.34 173.05,-192.34 176.05,-189.34 179.05,-189.34 179.05,-189.34 221.05,-189.34 221.05,-189.34 224.05,-189.34 227.05,-192.34 227.05,-195.34 227.05,-195.34 227.05,-201.34 227.05,-201.34 227.05,-204.34 224.05,-207.34 221.05,-207.34"/>
<text text-anchor="start" x="184.05" y="-196.14" font-family="Helvetica,sans-Serif" font-size="9.00">time.ts</text>
</a>
</g>
</g>
<!-- packages/util/time&#45;and/src/index.ts&#45;&gt;packages/util/time&#45;and/src/time.ts -->
<g id="edge6" class="edge">
<title>packages/util/time&#45;and/src/index.ts&#45;&gt;packages/util/time&#45;and/src/time.ts</title>
<path fill="none" stroke="#000000" stroke-width="2" stroke-opacity="0.200000" d="M157.94,-118.45C166.07,-133.87 182.5,-165.05 192.26,-183.57"/>
<polygon fill="#000000" fill-opacity="0.200000" stroke="#000000" stroke-width="2" stroke-opacity="0.200000" points="193.44,-190.3 192.5,-184.01 197.16,-188.34 193.44,-190.3"/>
</g>
<!-- packages/util/time&#45;and/src/search&#45;items&#45;in&#45;range.ts -->
<g id="node6" class="node">
<title>packages/util/time&#45;and/src/search&#45;items&#45;in&#45;range.ts</title>
<g id="a_node6"><a xlink:href="packages/util/time-and/src/search-items-in-range.ts" xlink:title="search&#45;items&#45;in&#45;range.ts">
<path fill="#ddfeff" stroke="black" d="M355.06,-189.41C355.06,-189.41 241.06,-189.41 241.06,-189.41 238.06,-189.41 235.06,-186.41 235.06,-183.41 235.06,-183.41 235.06,-177.41 235.06,-177.41 235.06,-174.41 238.06,-171.41 241.06,-171.41 241.06,-171.41 355.06,-171.41 355.06,-171.41 358.06,-171.41 361.06,-174.41 361.06,-177.41 361.06,-177.41 361.06,-183.41 361.06,-183.41 361.06,-186.41 358.06,-189.41 355.06,-189.41"/>
<text text-anchor="start" x="243.06" y="-178.21" font-family="Helvetica,sans-Serif" font-size="9.00">search&#45;items&#45;in&#45;range.ts</text>
</a>
</g>
</g>
<!-- packages/util/time&#45;and/src/index.ts&#45;&gt;packages/util/time&#45;and/src/search&#45;items&#45;in&#45;range.ts -->
<g id="edge4" class="edge">
<title>packages/util/time&#45;and/src/index.ts&#45;&gt;packages/util/time&#45;and/src/search&#45;items&#45;in&#45;range.ts</title>
<path fill="none" stroke="#000000" stroke-width="2" stroke-opacity="0.200000" d="M171.45,-118.26C197.45,-131.03 245.04,-154.38 273.88,-168.54"/>
<polygon fill="#000000" fill-opacity="0.200000" stroke="#000000" stroke-width="2" stroke-opacity="0.200000" points="278.47,-173.13 274,-168.6 280.32,-169.36 278.47,-173.13"/>
</g>
<!-- packages/util/time&#45;and/src/search&#45;items&#45;overlaps&#45;range.ts -->
<g id="node7" class="node">
<title>packages/util/time&#45;and/src/search&#45;items&#45;overlaps&#45;range.ts</title>
<g id="a_node7"><a xlink:href="packages/util/time-and/src/search-items-overlaps-range.ts" xlink:title="search&#45;items&#45;overlaps&#45;range.ts">
<path fill="#ddfeff" stroke="black" d="M150,-233.9C150,-233.9 6,-233.9 6,-233.9 3,-233.9 0,-230.9 0,-227.9 0,-227.9 0,-221.9 0,-221.9 0,-218.9 3,-215.9 6,-215.9 6,-215.9 150,-215.9 150,-215.9 153,-215.9 156,-218.9 156,-221.9 156,-221.9 156,-227.9 156,-227.9 156,-230.9 153,-233.9 150,-233.9"/>
<text text-anchor="start" x="8" y="-222.7" font-family="Helvetica,sans-Serif" font-size="9.00">search&#45;items&#45;overlaps&#45;range.ts</text>
</a>
</g>
</g>
<!-- packages/util/time&#45;and/src/index.ts&#45;&gt;packages/util/time&#45;and/src/search&#45;items&#45;overlaps&#45;range.ts -->
<g id="edge5" class="edge">
<title>packages/util/time&#45;and/src/index.ts&#45;&gt;packages/util/time&#45;and/src/search&#45;items&#45;overlaps&#45;range.ts</title>
<path fill="none" stroke="#000000" stroke-width="2" stroke-opacity="0.200000" d="M147.2,-118.32C134.2,-138.34 103,-186.4 87.32,-210.55"/>
<polygon fill="#000000" fill-opacity="0.200000" stroke="#000000" stroke-width="2" stroke-opacity="0.200000" points="82.1,-214.72 87.13,-210.83 85.63,-217.01 82.1,-214.72"/>
</g>
<!-- packages/util/time&#45;and/intex.test.ts -->
<g id="node3" class="node">
<title>packages/util/time&#45;and/intex.test.ts</title>
<g id="a_node3"><a xlink:href="packages/util/time-and/intex.test.ts" xlink:title="no&#45;orphans">
<path fill="#ccffcc" stroke="orange" d="M377,-114C377,-114 318,-114 318,-114 315,-114 312,-111 312,-108 312,-108 312,-102 312,-102 312,-99 315,-96 318,-96 318,-96 377,-96 377,-96 380,-96 383,-99 383,-102 383,-102 383,-108 383,-108 383,-111 380,-114 377,-114"/>
<text text-anchor="start" x="320" y="-102.8" font-family="Helvetica,sans-Serif" font-size="9.00" fill="orange">intex.test.ts</text>
</a>
</g>
</g>
<!-- packages/util/time&#45;and/src/compress.ts&#45;&gt;packages/util/time&#45;and/src/time.ts -->
<g id="edge2" class="edge">
<title>packages/util/time&#45;and/src/compress.ts&#45;&gt;packages/util/time&#45;and/src/time.ts</title>
<path fill="none" stroke="#000000" stroke-width="2" stroke-opacity="0.200000" d="M252.12,-61.02C242.81,-85.58 217.22,-153.06 205.75,-183.32"/>
<polygon fill="#000000" fill-opacity="0.200000" stroke="#000000" stroke-width="2" stroke-opacity="0.200000" points="203.69,-182.82 203.52,-189.18 207.61,-184.31 203.69,-182.82"/>
</g>
<!-- packages/util/time&#45;and/src/search&#45;items&#45;in&#45;range.ts&#45;&gt;packages/util/time&#45;and/src/time.ts -->
<g id="edge7" class="edge">
<title>packages/util/time&#45;and/src/search&#45;items&#45;in&#45;range.ts&#45;&gt;packages/util/time&#45;and/src/time.ts</title>
<path fill="none" stroke="#000000" stroke-width="2" stroke-opacity="0.200000" d="M248.77,-189.43C243.54,-190.38 238.31,-191.34 233.33,-192.25"/>
<polygon fill="#000000" fill-opacity="0.200000" stroke="#000000" stroke-width="2" stroke-opacity="0.200000" points="232.69,-190.23 227.17,-193.38 233.45,-194.36 232.69,-190.23"/>
</g>
<!-- packages/util/time&#45;and/src/search&#45;items&#45;overlaps&#45;range.ts&#45;&gt;packages/util/time&#45;and/src/time.ts -->
<g id="edge8" class="edge">
<title>packages/util/time&#45;and/src/search&#45;items&#45;overlaps&#45;range.ts&#45;&gt;packages/util/time&#45;and/src/time.ts</title>
<path fill="none" stroke="#000000" stroke-width="2" stroke-opacity="0.200000" d="M119.66,-215.83C135.01,-212.49 152.18,-208.76 166.7,-205.6"/>
<polygon fill="#000000" fill-opacity="0.200000" stroke="#000000" stroke-width="2" stroke-opacity="0.200000" points="167.33,-207.61 172.75,-204.28 166.44,-203.5 167.33,-207.61"/>
</g>
</g>
</svg>
