<?xml version="1.0" encoding="UTF-8" standalone="no"?>
<!DOCTYPE svg PUBLIC "-//W3C//DTD SVG 1.1//EN"
 "http://www.w3.org/Graphics/SVG/1.1/DTD/svg11.dtd">
<!-- Generated by graphviz version 2.43.0 (0)
 -->
<!-- Title: dependency&#45;cruiser output Pages: 1 -->
<svg width="457pt" height="252pt"
 viewBox="0.00 0.00 457.00 252.00" xmlns="http://www.w3.org/2000/svg" xmlns:xlink="http://www.w3.org/1999/xlink">
<g id="graph0" class="graph" transform="scale(1 1) rotate(0) translate(4 248)">
<title>dependency&#45;cruiser output</title>
<polygon fill="white" stroke="transparent" points="-4,4 -4,-248 453,-248 453,4 -4,4"/>
<g id="clust1" class="cluster">
<title>cluster_packages</title>
<path fill="#ffffff" stroke="black" stroke-width="2" d="M20,-8C20,-8 429,-8 429,-8 435,-8 441,-14 441,-20 441,-20 441,-224 441,-224 441,-230 435,-236 429,-236 429,-236 20,-236 20,-236 14,-236 8,-230 8,-224 8,-224 8,-20 8,-20 8,-14 14,-8 20,-8"/>
<text text-anchor="middle" x="224.5" y="-224.8" font-family="Helvetica,sans-Serif" font-weight="bold" font-size="9.00">packages</text>
</g>
<g id="clust2" class="cluster">
<title>cluster_packages/util</title>
<path fill="#ffffff" stroke="black" stroke-width="2" d="M28,-16C28,-16 421,-16 421,-16 427,-16 433,-22 433,-28 433,-28 433,-198 433,-198 433,-204 427,-210 421,-210 421,-210 28,-210 28,-210 22,-210 16,-204 16,-198 16,-198 16,-28 16,-28 16,-22 22,-16 28,-16"/>
<text text-anchor="middle" x="224.5" y="-198.8" font-family="Helvetica,sans-Serif" font-weight="bold" font-size="9.00">util</text>
</g>
<g id="clust3" class="cluster">
<title>cluster_packages/util/time&#45;and</title>
<path fill="#ffffff" stroke="black" stroke-width="2" d="M36,-24C36,-24 413,-24 413,-24 419,-24 425,-30 425,-36 425,-36 425,-172 425,-172 425,-178 419,-184 413,-184 413,-184 36,-184 36,-184 30,-184 24,-178 24,-172 24,-172 24,-36 24,-36 24,-30 30,-24 36,-24"/>
<text text-anchor="middle" x="224.5" y="-172.8" font-family="Helvetica,sans-Serif" font-weight="bold" font-size="9.00">time&#45;and</text>
</g>
<g id="clust4" class="cluster">
<title>cluster_packages/util/time&#45;and/src</title>
<path fill="#ffffff" stroke="black" stroke-width="2" d="M123,-32C123,-32 405,-32 405,-32 411,-32 417,-38 417,-44 417,-44 417,-146 417,-146 417,-152 411,-158 405,-158 405,-158 123,-158 123,-158 117,-158 111,-152 111,-146 111,-146 111,-44 111,-44 111,-38 117,-32 123,-32"/>
<text text-anchor="middle" x="264" y="-146.8" font-family="Helvetica,sans-Serif" font-weight="bold" font-size="9.00">src</text>
</g>
<!-- packages/util/time&#45;and/index.ts -->
<g id="node1" class="node">
<title>packages/util/time&#45;and/index.ts</title>
<g id="a_node1"><a xlink:href="packages/util/time-and/index.ts" xlink:title="index.ts">
<path fill="#ddfeff" stroke="black" d="M88.5,-96C88.5,-96 46.5,-96 46.5,-96 43.5,-96 40.5,-93 40.5,-90 40.5,-90 40.5,-84 40.5,-84 40.5,-81 43.5,-78 46.5,-78 46.5,-78 88.5,-78 88.5,-78 91.5,-78 94.5,-81 94.5,-84 94.5,-84 94.5,-90 94.5,-90 94.5,-93 91.5,-96 88.5,-96"/>
<text text-anchor="start" x="49" y="-84.8" font-family="Helvetica,sans-Serif" font-size="9.00">index.ts</text>
</a>
</g>
</g>
<!-- packages/util/time&#45;and/src/index.ts -->
<g id="node2" class="node">
<title>packages/util/time&#45;and/src/index.ts</title>
<g id="a_node2"><a xlink:href="packages/util/time-and/src/index.ts" xlink:title="index.ts">
<path fill="#ddfeff" stroke="black" d="M167,-96C167,-96 125,-96 125,-96 122,-96 119,-93 119,-90 119,-90 119,-84 119,-84 119,-81 122,-78 125,-78 125,-78 167,-78 167,-78 170,-78 173,-81 173,-84 173,-84 173,-90 173,-90 173,-93 170,-96 167,-96"/>
<text text-anchor="start" x="127.5" y="-84.8" font-family="Helvetica,sans-Serif" font-size="9.00">index.ts</text>
</a>
</g>
</g>
<!-- packages/util/time&#45;and/index.ts&#45;&gt;packages/util/time&#45;and/src/index.ts -->
<g id="edge1" class="edge">
<title>packages/util/time&#45;and/index.ts&#45;&gt;packages/util/time&#45;and/src/index.ts</title>
<path fill="none" stroke="#000000" stroke-width="2" stroke-opacity="0.200000" d="M94.83,-87C100.54,-87 106.65,-87 112.56,-87"/>
<polygon fill="#000000" fill-opacity="0.200000" stroke="#000000" stroke-width="2" stroke-opacity="0.200000" points="118.88,-89.1 112.88,-87 118.88,-84.9 118.88,-89.1"/>
</g>
<!-- packages/util/time&#45;and/src/compress.ts -->
<g id="node4" class="node">
<title>packages/util/time&#45;and/src/compress.ts</title>
<g id="a_node4"><a xlink:href="packages/util/time-and/src/compress.ts" xlink:title="compress.ts">
<path fill="#ddfeff" stroke="black" d="M293.5,-58C293.5,-58 234.5,-58 234.5,-58 231.5,-58 228.5,-55 228.5,-52 228.5,-52 228.5,-46 228.5,-46 228.5,-43 231.5,-40 234.5,-40 234.5,-40 293.5,-40 293.5,-40 296.5,-40 299.5,-43 299.5,-46 299.5,-46 299.5,-52 299.5,-52 299.5,-55 296.5,-58 293.5,-58"/>
<text text-anchor="start" x="236.5" y="-46.8" font-family="Helvetica,sans-Serif" font-size="9.00">compress.ts</text>
</a>
</g>
</g>
<!-- packages/util/time&#45;and/src/index.ts&#45;&gt;packages/util/time&#45;and/src/compress.ts -->
<g id="edge3" class="edge">
<title>packages/util/time&#45;and/src/index.ts&#45;&gt;packages/util/time&#45;and/src/compress.ts</title>
<path fill="none" stroke="#000000" stroke-width="2" stroke-opacity="0.200000" d="M173.03,-78.47C189.72,-73.01 211.53,-65.86 229.5,-59.97"/>
<polygon fill="#000000" fill-opacity="0.200000" stroke="#000000" stroke-width="2" stroke-opacity="0.200000" points="236.09,-60.02 229.74,-59.9 234.78,-56.03 236.09,-60.02"/>
</g>
<!-- packages/util/time&#45;and/src/time.ts -->
<g id="node5" class="node">
<title>packages/util/time&#45;and/src/time.ts</title>
<g id="a_node5"><a xlink:href="packages/util/time-and/src/time.ts" xlink:title="time.ts">
<path fill="#ddfeff" stroke="black" d="M403,-91C403,-91 361,-91 361,-91 358,-91 355,-88 355,-85 355,-85 355,-79 355,-79 355,-76 358,-73 361,-73 361,-73 403,-73 403,-73 406,-73 409,-76 409,-79 409,-79 409,-85 409,-85 409,-88 406,-91 403,-91"/>
<text text-anchor="start" x="366" y="-79.8" font-family="Helvetica,sans-Serif" font-size="9.00">time.ts</text>
</a>
</g>
</g>
<!-- packages/util/time&#45;and/src/index.ts&#45;&gt;packages/util/time&#45;and/src/time.ts -->
<g id="edge6" class="edge">
<title>packages/util/time&#45;and/src/index.ts&#45;&gt;packages/util/time&#45;and/src/time.ts</title>
<path fill="none" stroke="#000000" stroke-width="2" stroke-opacity="0.200000" d="M173.07,-86.43C216.52,-85.51 301.71,-83.7 348.78,-82.7"/>
<polygon fill="#000000" fill-opacity="0.200000" stroke="#000000" stroke-width="2" stroke-opacity="0.200000" points="354.93,-84.67 348.88,-82.7 354.84,-80.48 354.93,-84.67"/>
</g>
<!-- packages/util/time&#45;and/src/search&#45;items&#45;in&#45;range.ts -->
<g id="node6" class="node">
<title>packages/util/time&#45;and/src/search&#45;items&#45;in&#45;range.ts</title>
<g id="a_node6"><a xlink:href="packages/util/time-and/src/search-items-in-range.ts" xlink:title="search&#45;items&#45;in&#45;range.ts">
<path fill="#ddfeff" stroke="black" d="M321,-102C321,-102 207,-102 207,-102 204,-102 201,-99 201,-96 201,-96 201,-90 201,-90 201,-87 204,-84 207,-84 207,-84 321,-84 321,-84 324,-84 327,-87 327,-90 327,-90 327,-96 327,-96 327,-99 324,-102 321,-102"/>
<text text-anchor="start" x="209" y="-90.8" font-family="Helvetica,sans-Serif" font-size="9.00">search&#45;items&#45;in&#45;range.ts</text>
</a>
</g>
</g>
<!-- packages/util/time&#45;and/src/index.ts&#45;&gt;packages/util/time&#45;and/src/search&#45;items&#45;in&#45;range.ts -->
<g id="edge4" class="edge">
<title>packages/util/time&#45;and/src/index.ts&#45;&gt;packages/util/time&#45;and/src/search&#45;items&#45;in&#45;range.ts</title>
<path fill="none" stroke="#000000" stroke-width="2" stroke-opacity="0.200000" d="M173.03,-88.35C179.5,-88.68 186.75,-89.06 194.24,-89.44"/>
<polygon fill="#000000" fill-opacity="0.200000" stroke="#000000" stroke-width="2" stroke-opacity="0.200000" points="200.47,-91.87 194.59,-89.46 200.69,-87.67 200.47,-91.87"/>
</g>
<!-- packages/util/time&#45;and/src/search&#45;items&#45;overlaps&#45;range.ts -->
<g id="node7" class="node">
<title>packages/util/time&#45;and/src/search&#45;items&#45;overlaps&#45;range.ts</title>
<g id="a_node7"><a xlink:href="packages/util/time-and/src/search-items-overlaps-range.ts" xlink:title="search&#45;items&#45;overlaps&#45;range.ts">
<path fill="#ddfeff" stroke="black" d="M336,-132C336,-132 192,-132 192,-132 189,-132 186,-129 186,-126 186,-126 186,-120 186,-120 186,-117 189,-114 192,-114 192,-114 336,-114 336,-114 339,-114 342,-117 342,-120 342,-120 342,-126 342,-126 342,-129 339,-132 336,-132"/>
<text text-anchor="start" x="194" y="-120.8" font-family="Helvetica,sans-Serif" font-size="9.00">search&#45;items&#45;overlaps&#45;range.ts</text>
</a>
</g>
</g>
<!-- packages/util/time&#45;and/src/index.ts&#45;&gt;packages/util/time&#45;and/src/search&#45;items&#45;overlaps&#45;range.ts -->
<g id="edge5" class="edge">
<title>packages/util/time&#45;and/src/index.ts&#45;&gt;packages/util/time&#45;and/src/search&#45;items&#45;overlaps&#45;range.ts</title>
<path fill="none" stroke="#000000" stroke-width="2" stroke-opacity="0.200000" d="M173.03,-95.08C189.24,-100.11 210.28,-106.64 227.94,-112.12"/>
<polygon fill="#000000" fill-opacity="0.200000" stroke="#000000" stroke-width="2" stroke-opacity="0.200000" points="233.17,-115.94 228.06,-112.16 234.41,-111.93 233.17,-115.94"/>
</g>
<!-- packages/util/time&#45;and/intex.test.ts -->
<g id="node3" class="node">
<title>packages/util/time&#45;and/intex.test.ts</title>
<g id="a_node3"><a xlink:href="packages/util/time-and/intex.test.ts" xlink:title="no&#45;orphans">
<path fill="#ccffcc" stroke="orange" d="M97,-61C97,-61 38,-61 38,-61 35,-61 32,-58 32,-55 32,-55 32,-49 32,-49 32,-46 35,-43 38,-43 38,-43 97,-43 97,-43 100,-43 103,-46 103,-49 103,-49 103,-55 103,-55 103,-58 100,-61 97,-61"/>
<text text-anchor="start" x="40" y="-49.8" font-family="Helvetica,sans-Serif" font-size="9.00" fill="orange">intex.test.ts</text>
</a>
</g>
</g>
<!-- packages/util/time&#45;and/src/compress.ts&#45;&gt;packages/util/time&#45;and/src/time.ts -->
<g id="edge2" class="edge">
<title>packages/util/time&#45;and/src/compress.ts&#45;&gt;packages/util/time&#45;and/src/time.ts</title>
<path fill="none" stroke="#000000" stroke-width="2" stroke-opacity="0.200000" d="M296.7,-58.02C312.95,-62.64 332.69,-68.26 348.99,-72.89"/>
<polygon fill="#000000" fill-opacity="0.200000" stroke="#000000" stroke-width="2" stroke-opacity="0.200000" points="348.48,-74.93 354.82,-74.55 349.63,-70.89 348.48,-74.93"/>
</g>
<!-- packages/util/time&#45;and/src/search&#45;items&#45;in&#45;range.ts&#45;&gt;packages/util/time&#45;and/src/time.ts -->
<g id="edge7" class="edge">
<title>packages/util/time&#45;and/src/search&#45;items&#45;in&#45;range.ts&#45;&gt;packages/util/time&#45;and/src/time.ts</title>
<path fill="none" stroke="#000000" stroke-width="2" stroke-opacity="0.200000" d="M327.08,-87.11C334.58,-86.4 342,-85.7 348.81,-85.05"/>
<polygon fill="#000000" fill-opacity="0.200000" stroke="#000000" stroke-width="2" stroke-opacity="0.200000" points="349.12,-87.13 354.89,-84.48 348.72,-82.95 349.12,-87.13"/>
</g>
<!-- packages/util/time&#45;and/src/search&#45;items&#45;overlaps&#45;range.ts&#45;&gt;packages/util/time&#45;and/src/time.ts -->
<g id="edge8" class="edge">
<title>packages/util/time&#45;and/src/search&#45;items&#45;overlaps&#45;range.ts&#45;&gt;packages/util/time&#45;and/src/time.ts</title>
<path fill="none" stroke="#000000" stroke-width="2" stroke-opacity="0.200000" d="M290.74,-113.9C308.01,-107.8 330.88,-99.71 349.28,-93.21"/>
<polygon fill="#000000" fill-opacity="0.200000" stroke="#000000" stroke-width="2" stroke-opacity="0.200000" points="350.37,-95.05 355.33,-91.07 348.97,-91.09 350.37,-95.05"/>
</g>
</g>
</svg>
