<?xml version="1.0" encoding="UTF-8" standalone="no"?>
<!DOCTYPE svg PUBLIC "-//W3C//DTD SVG 1.1//EN"
 "http://www.w3.org/Graphics/SVG/1.1/DTD/svg11.dtd">
<!-- Generated by graphviz version 2.43.0 (0)
 -->
<!-- Title: dependency&#45;cruiser output Pages: 1 -->
<svg width="311pt" height="264pt"
 viewBox="0.00 0.00 311.00 264.00" xmlns="http://www.w3.org/2000/svg" xmlns:xlink="http://www.w3.org/1999/xlink">
<g id="graph0" class="graph" transform="scale(1 1) rotate(0) translate(4 260)">
<title>dependency&#45;cruiser output</title>
<polygon fill="white" stroke="transparent" points="-4,4 -4,-260 307,-260 307,4 -4,4"/>
<g id="clust1" class="cluster">
<title>cluster_packages</title>
<path fill="#ffffff" stroke="black" stroke-width="2" d="M20,-8C20,-8 283,-8 283,-8 289,-8 295,-14 295,-20 295,-20 295,-236 295,-236 295,-242 289,-248 283,-248 283,-248 20,-248 20,-248 14,-248 8,-242 8,-236 8,-236 8,-20 8,-20 8,-14 14,-8 20,-8"/>
<text text-anchor="middle" x="151.5" y="-236.8" font-family="Helvetica,sans-Serif" font-weight="bold" font-size="9.00">packages</text>
</g>
<g id="clust2" class="cluster">
<title>cluster_packages/util</title>
<path fill="#ffffff" stroke="black" stroke-width="2" d="M28,-16C28,-16 275,-16 275,-16 281,-16 287,-22 287,-28 287,-28 287,-210 287,-210 287,-216 281,-222 275,-222 275,-222 28,-222 28,-222 22,-222 16,-216 16,-210 16,-210 16,-28 16,-28 16,-22 22,-16 28,-16"/>
<text text-anchor="middle" x="151.5" y="-210.8" font-family="Helvetica,sans-Serif" font-weight="bold" font-size="9.00">util</text>
</g>
<g id="clust3" class="cluster">
<title>cluster_packages/util/time&#45;and</title>
<path fill="#ffffff" stroke="black" stroke-width="2" d="M36,-24C36,-24 267,-24 267,-24 273,-24 279,-30 279,-36 279,-36 279,-184 279,-184 279,-190 273,-196 267,-196 267,-196 36,-196 36,-196 30,-196 24,-190 24,-184 24,-184 24,-36 24,-36 24,-30 30,-24 36,-24"/>
<text text-anchor="middle" x="151.5" y="-184.8" font-family="Helvetica,sans-Serif" font-weight="bold" font-size="9.00">time&#45;and</text>
</g>
<g id="clust4" class="cluster">
<title>cluster_packages/util/time&#45;and/src</title>
<path fill="#ffffff" stroke="black" stroke-width="2" d="M44,-58C44,-58 259,-58 259,-58 265,-58 271,-64 271,-70 271,-70 271,-158 271,-158 271,-164 265,-170 259,-170 259,-170 44,-170 44,-170 38,-170 32,-164 32,-158 32,-158 32,-70 32,-70 32,-64 38,-58 44,-58"/>
<text text-anchor="middle" x="151.5" y="-158.8" font-family="Helvetica,sans-Serif" font-weight="bold" font-size="9.00">src</text>
</g>
<!-- packages/util/time&#45;and/intex.test.ts -->
<g id="node1" class="node">
<title>packages/util/time&#45;and/intex.test.ts</title>
<g id="a_node1"><a xlink:href="packages/util/time-and/intex.test.ts" xlink:title="no&#45;orphans">
<path fill="#ccffcc" stroke="orange" d="M147.5,-50C147.5,-50 88.5,-50 88.5,-50 85.5,-50 82.5,-47 82.5,-44 82.5,-44 82.5,-38 82.5,-38 82.5,-35 85.5,-32 88.5,-32 88.5,-32 147.5,-32 147.5,-32 150.5,-32 153.5,-35 153.5,-38 153.5,-38 153.5,-44 153.5,-44 153.5,-47 150.5,-50 147.5,-50"/>
<text text-anchor="start" x="90.5" y="-38.8" font-family="Helvetica,sans-Serif" font-size="9.00" fill="orange">intex.test.ts</text>
</a>
</g>
</g>
<!-- packages/util/time&#45;and/src/compress.ts -->
<g id="node2" class="node">
<title>packages/util/time&#45;and/src/compress.ts</title>
<g id="a_node2"><a xlink:href="packages/util/time-and/src/compress.ts" xlink:title="compress.ts">
<path fill="#ddfeff" stroke="black" d="M147.5,-144C147.5,-144 88.5,-144 88.5,-144 85.5,-144 82.5,-141 82.5,-138 82.5,-138 82.5,-132 82.5,-132 82.5,-129 85.5,-126 88.5,-126 88.5,-126 147.5,-126 147.5,-126 150.5,-126 153.5,-129 153.5,-132 153.5,-132 153.5,-138 153.5,-138 153.5,-141 150.5,-144 147.5,-144"/>
<text text-anchor="start" x="90.5" y="-132.8" font-family="Helvetica,sans-Serif" font-size="9.00">compress.ts</text>
</a>
</g>
</g>
<!-- packages/util/time&#45;and/src/time.ts -->
<g id="node3" class="node">
<title>packages/util/time&#45;and/src/time.ts</title>
<g id="a_node3"><a xlink:href="packages/util/time-and/src/time.ts" xlink:title="time.ts">
<path fill="#ddfeff" stroke="black" d="M257,-114C257,-114 215,-114 215,-114 212,-114 209,-111 209,-108 209,-108 209,-102 209,-102 209,-99 212,-96 215,-96 215,-96 257,-96 257,-96 260,-96 263,-99 263,-102 263,-102 263,-108 263,-108 263,-111 260,-114 257,-114"/>
<text text-anchor="start" x="220" y="-102.8" font-family="Helvetica,sans-Serif" font-size="9.00">time.ts</text>
</a>
</g>
</g>
<!-- packages/util/time&#45;and/src/compress.ts&#45;&gt;packages/util/time&#45;and/src/time.ts -->
<g id="edge1" class="edge">
<title>packages/util/time&#45;and/src/compress.ts&#45;&gt;packages/util/time&#45;and/src/time.ts</title>
<path fill="none" stroke="#000000" stroke-width="2" stroke-opacity="0.200000" d="M153.8,-126C169.36,-121.98 187.58,-117.26 202.81,-113.33"/>
<polygon fill="#000000" fill-opacity="0.200000" stroke="#000000" stroke-width="2" stroke-opacity="0.200000" points="203.42,-115.34 208.7,-111.8 202.37,-111.27 203.42,-115.34"/>
</g>
<!-- packages/util/time&#45;and/src/search&#45;items&#45;in&#45;range.ts -->
<g id="node4" class="node">
<title>packages/util/time&#45;and/src/search&#45;items&#45;in&#45;range.ts</title>
<g id="a_node4"><a xlink:href="packages/util/time-and/src/search-items-in-range.ts" xlink:title="search&#45;items&#45;in&#45;range.ts">
<path fill="#ddfeff" stroke="black" d="M175,-114C175,-114 61,-114 61,-114 58,-114 55,-111 55,-108 55,-108 55,-102 55,-102 55,-99 58,-96 61,-96 61,-96 175,-96 175,-96 178,-96 181,-99 181,-102 181,-102 181,-108 181,-108 181,-111 178,-114 175,-114"/>
<text text-anchor="start" x="63" y="-102.8" font-family="Helvetica,sans-Serif" font-size="9.00">search&#45;items&#45;in&#45;range.ts</text>
</a>
</g>
</g>
<!-- packages/util/time&#45;and/src/search&#45;items&#45;in&#45;range.ts&#45;&gt;packages/util/time&#45;and/src/time.ts -->
<g id="edge2" class="edge">
<title>packages/util/time&#45;and/src/search&#45;items&#45;in&#45;range.ts&#45;&gt;packages/util/time&#45;and/src/time.ts</title>
<path fill="none" stroke="#000000" stroke-width="2" stroke-opacity="0.200000" d="M181.08,-105C188.58,-105 196,-105 202.81,-105"/>
<polygon fill="#000000" fill-opacity="0.200000" stroke="#000000" stroke-width="2" stroke-opacity="0.200000" points="202.89,-107.1 208.89,-105 202.89,-102.9 202.89,-107.1"/>
</g>
<!-- packages/util/time&#45;and/src/search&#45;items&#45;overlaps&#45;range.ts -->
<g id="node5" class="node">
<title>packages/util/time&#45;and/src/search&#45;items&#45;overlaps&#45;range.ts</title>
<g id="a_node5"><a xlink:href="packages/util/time-and/src/search-items-overlaps-range.ts" xlink:title="search&#45;items&#45;overlaps&#45;range.ts">
<path fill="#ddfeff" stroke="black" d="M190,-84C190,-84 46,-84 46,-84 43,-84 40,-81 40,-78 40,-78 40,-72 40,-72 40,-69 43,-66 46,-66 46,-66 190,-66 190,-66 193,-66 196,-69 196,-72 196,-72 196,-78 196,-78 196,-81 193,-84 190,-84"/>
<text text-anchor="start" x="48" y="-72.8" font-family="Helvetica,sans-Serif" font-size="9.00">search&#45;items&#45;overlaps&#45;range.ts</text>
</a>
</g>
</g>
<!-- packages/util/time&#45;and/src/search&#45;items&#45;overlaps&#45;range.ts&#45;&gt;packages/util/time&#45;and/src/time.ts -->
<g id="edge3" class="edge">
<title>packages/util/time&#45;and/src/search&#45;items&#45;overlaps&#45;range.ts&#45;&gt;packages/util/time&#45;and/src/time.ts</title>
<path fill="none" stroke="#000000" stroke-width="2" stroke-opacity="0.200000" d="M153.8,-84C169.36,-88.02 187.58,-92.74 202.81,-96.67"/>
<polygon fill="#000000" fill-opacity="0.200000" stroke="#000000" stroke-width="2" stroke-opacity="0.200000" points="202.37,-98.73 208.7,-98.2 203.42,-94.66 202.37,-98.73"/>
</g>
</g>
</svg>
