<?xml version="1.0" encoding="UTF-8" standalone="no"?>
<!DOCTYPE svg PUBLIC "-//W3C//DTD SVG 1.1//EN"
 "http://www.w3.org/Graphics/SVG/1.1/DTD/svg11.dtd">
<!-- Generated by graphviz version 2.43.0 (0)
 -->
<!-- Title: dependency&#45;cruiser output Pages: 1 -->
<svg width="244pt" height="148pt"
 viewBox="0.00 0.00 244.00 148.32" xmlns="http://www.w3.org/2000/svg" xmlns:xlink="http://www.w3.org/1999/xlink">
<g id="graph0" class="graph" transform="scale(1 1) rotate(0) translate(4 144.32)">
<title>dependency&#45;cruiser output</title>
<polygon fill="white" stroke="transparent" points="-4,4 -4,-144.32 240,-144.32 240,4 -4,4"/>
<g id="clust1" class="cluster">
<title>cluster_packages</title>
<path fill="#ffffff" stroke="black" stroke-width="2" d="M12,0C12,0 224,0 224,0 230,0 236,-6 236,-12 236,-12 236,-128.32 236,-128.32 236,-134.32 230,-140.32 224,-140.32 224,-140.32 12,-140.32 12,-140.32 6,-140.32 0,-134.32 0,-128.32 0,-128.32 0,-12 0,-12 0,-6 6,0 12,0"/>
<text text-anchor="middle" x="118" y="-129.12" font-family="Helvetica,sans-Serif" font-weight="bold" font-size="9.00">packages</text>
</g>
<!-- packages/util/time&#45;and/intex.test.ts -->
<g id="node1" class="node">
<title>packages/util/time&#45;and/intex.test.ts</title>
<g id="a_node1"><a xlink:href="packages/util/time-and/intex.test.ts" xlink:title="no&#45;orphans">
<path fill="#ccffcc" stroke="orange" d="M230,-63C230,-63 171,-63 171,-63 168,-63 165,-60 165,-57 165,-57 165,-51 165,-51 165,-48 168,-45 171,-45 171,-45 230,-45 230,-45 233,-45 236,-48 236,-51 236,-51 236,-57 236,-57 236,-60 233,-63 230,-63"/>
<text text-anchor="start" x="173" y="-51.8" font-family="Helvetica,sans-Serif" font-size="9.00" fill="orange">intex.test.ts</text>
</a>
</g>
</g>
<!-- packages/util/time&#45;and/src/compress.ts -->
<g id="node2" class="node">
<title>packages/util/time&#45;and/src/compress.ts</title>
<g id="a_node2"><a xlink:href="packages/util/time-and/src/compress.ts" xlink:title="compress.ts">
<path fill="#ddfeff" stroke="black" d="M65,-65.94C65,-65.94 6,-65.94 6,-65.94 3,-65.94 0,-62.94 0,-59.94 0,-59.94 0,-53.94 0,-53.94 0,-50.94 3,-47.94 6,-47.94 6,-47.94 65,-47.94 65,-47.94 68,-47.94 71,-50.94 71,-53.94 71,-53.94 71,-59.94 71,-59.94 71,-62.94 68,-65.94 65,-65.94"/>
<text text-anchor="start" x="8" y="-54.74" font-family="Helvetica,sans-Serif" font-size="9.00">compress.ts</text>
</a>
</g>
</g>
<!-- packages/util/time&#45;and/src/time.ts -->
<g id="node3" class="node">
<title>packages/util/time&#45;and/src/time.ts</title>
<g id="a_node3"><a xlink:href="packages/util/time-and/src/time.ts" xlink:title="time.ts">
<path fill="#ddfeff" stroke="black" d="M127.01,-74.77C127.01,-74.77 85.01,-74.77 85.01,-74.77 82.01,-74.77 79.01,-71.77 79.01,-68.77 79.01,-68.77 79.01,-62.77 79.01,-62.77 79.01,-59.77 82.01,-56.77 85.01,-56.77 85.01,-56.77 127.01,-56.77 127.01,-56.77 130.01,-56.77 133.01,-59.77 133.01,-62.77 133.01,-62.77 133.01,-68.77 133.01,-68.77 133.01,-71.77 130.01,-74.77 127.01,-74.77"/>
<text text-anchor="start" x="90.01" y="-63.57" font-family="Helvetica,sans-Serif" font-size="9.00">time.ts</text>
</a>
</g>
</g>
<!-- packages/util/time&#45;and/src/compress.ts&#45;&gt;packages/util/time&#45;and/src/time.ts -->
<g id="edge1" class="edge">
<title>packages/util/time&#45;and/src/compress.ts&#45;&gt;packages/util/time&#45;and/src/time.ts</title>
<path fill="none" stroke="#000000" stroke-width="2" stroke-opacity="0.200000" d="M71.17,-61.4C71.65,-61.47 72.14,-61.53 72.63,-61.59"/>
<polygon fill="#000000" fill-opacity="0.200000" stroke="#000000" stroke-width="2" stroke-opacity="0.200000" points="72.67,-63.71 78.89,-62.37 73.2,-59.54 72.67,-63.71"/>
</g>
<!-- packages/util/time&#45;and/src/search&#45;items&#45;in&#45;range.ts -->
<g id="node4" class="node">
<title>packages/util/time&#45;and/src/search&#45;items&#45;in&#45;range.ts</title>
<g id="a_node4"><a xlink:href="packages/util/time-and/src/search-items-in-range.ts" xlink:title="search&#45;items&#45;in&#45;range.ts">
<path fill="#ddfeff" stroke="black" d="M205.68,-18C205.68,-18 91.68,-18 91.68,-18 88.68,-18 85.68,-15 85.68,-12 85.68,-12 85.68,-6 85.68,-6 85.68,-3 88.68,0 91.68,0 91.68,0 205.68,0 205.68,0 208.68,0 211.68,-3 211.68,-6 211.68,-6 211.68,-12 211.68,-12 211.68,-15 208.68,-18 205.68,-18"/>
<text text-anchor="start" x="93.68" y="-6.8" font-family="Helvetica,sans-Serif" font-size="9.00">search&#45;items&#45;in&#45;range.ts</text>
</a>
</g>
</g>
<!-- packages/util/time&#45;and/src/search&#45;items&#45;in&#45;range.ts&#45;&gt;packages/util/time&#45;and/src/time.ts -->
<g id="edge2" class="edge">
<title>packages/util/time&#45;and/src/search&#45;items&#45;in&#45;range.ts&#45;&gt;packages/util/time&#45;and/src/time.ts</title>
<path fill="none" stroke="#000000" stroke-width="2" stroke-opacity="0.200000" d="M141.83,-18.12C135.02,-27.17 124.5,-41.17 116.62,-51.65"/>
<polygon fill="#000000" fill-opacity="0.200000" stroke="#000000" stroke-width="2" stroke-opacity="0.200000" points="114.92,-50.42 112.99,-56.48 118.27,-52.95 114.92,-50.42"/>
</g>
<!-- packages/util/time&#45;and/src/search&#45;items&#45;overlaps&#45;range.ts -->
<g id="node5" class="node">
<title>packages/util/time&#45;and/src/search&#45;items&#45;overlaps&#45;range.ts</title>
<g id="a_node5"><a xlink:href="packages/util/time-and/src/search-items-overlaps-range.ts" xlink:title="search&#45;items&#45;overlaps&#45;range.ts">
<path fill="#ddfeff" stroke="black" d="M205.33,-140.32C205.33,-140.32 61.33,-140.32 61.33,-140.32 58.33,-140.32 55.33,-137.32 55.33,-134.32 55.33,-134.32 55.33,-128.32 55.33,-128.32 55.33,-125.32 58.33,-122.32 61.33,-122.32 61.33,-122.32 205.33,-122.32 205.33,-122.32 208.33,-122.32 211.33,-125.32 211.33,-128.32 211.33,-128.32 211.33,-134.32 211.33,-134.32 211.33,-137.32 208.33,-140.32 205.33,-140.32"/>
<text text-anchor="start" x="63.33" y="-129.12" font-family="Helvetica,sans-Serif" font-size="9.00">search&#45;items&#45;overlaps&#45;range.ts</text>
</a>
</g>
</g>
<!-- packages/util/time&#45;and/src/search&#45;items&#45;overlaps&#45;range.ts&#45;&gt;packages/util/time&#45;and/src/time.ts -->
<g id="edge3" class="edge">
<title>packages/util/time&#45;and/src/search&#45;items&#45;overlaps&#45;range.ts&#45;&gt;packages/util/time&#45;and/src/time.ts</title>
<path fill="none" stroke="#000000" stroke-width="2" stroke-opacity="0.200000" d="M129.53,-122.21C125.04,-111.44 117.52,-93.39 112.19,-80.6"/>
<polygon fill="#000000" fill-opacity="0.200000" stroke="#000000" stroke-width="2" stroke-opacity="0.200000" points="114.02,-79.53 109.77,-74.8 110.14,-81.15 114.02,-79.53"/>
</g>
</g>
</svg>
