<?xml version="1.0" encoding="UTF-8" standalone="no"?>
<!DOCTYPE svg PUBLIC "-//W3C//DTD SVG 1.1//EN"
 "http://www.w3.org/Graphics/SVG/1.1/DTD/svg11.dtd">
<!-- Generated by graphviz version 2.43.0 (0)
 -->
<!-- Title: dependency&#45;cruiser output Pages: 1 -->
<svg width="462pt" height="264pt"
 viewBox="0.00 0.00 462.00 264.00" xmlns="http://www.w3.org/2000/svg" xmlns:xlink="http://www.w3.org/1999/xlink">
<g id="graph0" class="graph" transform="scale(1 1) rotate(0) translate(4 260)">
<title>dependency&#45;cruiser output</title>
<polygon fill="white" stroke="transparent" points="-4,4 -4,-260 458,-260 458,4 -4,4"/>
<g id="clust1" class="cluster">
<title>cluster_packages</title>
<path fill="#ffffff" stroke="black" stroke-width="2" d="M20,-8C20,-8 434,-8 434,-8 440,-8 446,-14 446,-20 446,-20 446,-236 446,-236 446,-242 440,-248 434,-248 434,-248 20,-248 20,-248 14,-248 8,-242 8,-236 8,-236 8,-20 8,-20 8,-14 14,-8 20,-8"/>
<text text-anchor="middle" x="227" y="-236.8" font-family="Helvetica,sans-Serif" font-weight="bold" font-size="9.00">packages</text>
</g>
<g id="clust2" class="cluster">
<title>cluster_packages/util</title>
<path fill="#ffffff" stroke="black" stroke-width="2" d="M28,-16C28,-16 426,-16 426,-16 432,-16 438,-22 438,-28 438,-28 438,-210 438,-210 438,-216 432,-222 426,-222 426,-222 28,-222 28,-222 22,-222 16,-216 16,-210 16,-210 16,-28 16,-28 16,-22 22,-16 28,-16"/>
<text text-anchor="middle" x="227" y="-210.8" font-family="Helvetica,sans-Serif" font-weight="bold" font-size="9.00">util</text>
</g>
<g id="clust3" class="cluster">
<title>cluster_packages/util/time&#45;and</title>
<path fill="#ffffff" stroke="black" stroke-width="2" d="M36,-24C36,-24 418,-24 418,-24 424,-24 430,-30 430,-36 430,-36 430,-184 430,-184 430,-190 424,-196 418,-196 418,-196 36,-196 36,-196 30,-196 24,-190 24,-184 24,-184 24,-36 24,-36 24,-30 30,-24 36,-24"/>
<text text-anchor="middle" x="227" y="-184.8" font-family="Helvetica,sans-Serif" font-weight="bold" font-size="9.00">time&#45;and</text>
</g>
<g id="clust4" class="cluster">
<title>cluster_packages/util/time&#45;and/dist</title>
<path fill="#ffffff" stroke="black" stroke-width="2" d="M44,-88C44,-88 96,-88 96,-88 102,-88 108,-94 108,-100 108,-100 108,-158 108,-158 108,-164 102,-170 96,-170 96,-170 44,-170 44,-170 38,-170 32,-164 32,-158 32,-158 32,-100 32,-100 32,-94 38,-88 44,-88"/>
<text text-anchor="middle" x="70" y="-158.8" font-family="Helvetica,sans-Serif" font-weight="bold" font-size="9.00">dist</text>
</g>
<g id="clust5" class="cluster">
<title>cluster_packages/util/time&#45;and/src</title>
<path fill="#ffffff" stroke="black" stroke-width="2" d="M128,-32C128,-32 410,-32 410,-32 416,-32 422,-38 422,-44 422,-44 422,-146 422,-146 422,-152 416,-158 410,-158 410,-158 128,-158 128,-158 122,-158 116,-152 116,-146 116,-146 116,-44 116,-44 116,-38 122,-32 128,-32"/>
<text text-anchor="middle" x="269" y="-146.8" font-family="Helvetica,sans-Serif" font-weight="bold" font-size="9.00">src</text>
</g>
<!-- packages/util/time&#45;and/dist/index.js -->
<g id="node1" class="node">
<title>packages/util/time&#45;and/dist/index.js</title>
<g id="a_node1"><a xlink:href="packages/util/time-and/dist/index.js" xlink:title="no&#45;orphans">
<path fill="#ccffcc" stroke="orange" d="M91,-144C91,-144 49,-144 49,-144 46,-144 43,-141 43,-138 43,-138 43,-132 43,-132 43,-129 46,-126 49,-126 49,-126 91,-126 91,-126 94,-126 97,-129 97,-132 97,-132 97,-138 97,-138 97,-141 94,-144 91,-144"/>
<text text-anchor="start" x="52.5" y="-132.8" font-family="Helvetica,sans-Serif" font-size="9.00" fill="orange">index.js</text>
</a>
</g>
</g>
<!-- packages/util/time&#45;and/dist/index.mjs -->
<g id="node2" class="node">
<title>packages/util/time&#45;and/dist/index.mjs</title>
<g id="a_node2"><a xlink:href="packages/util/time-and/dist/index.mjs" xlink:title="no&#45;orphans">
<path fill="#ccffcc" stroke="orange" d="M94,-114C94,-114 46,-114 46,-114 43,-114 40,-111 40,-108 40,-108 40,-102 40,-102 40,-99 43,-96 46,-96 46,-96 94,-96 94,-96 97,-96 100,-99 100,-102 100,-102 100,-108 100,-108 100,-111 97,-114 94,-114"/>
<text text-anchor="start" x="48" y="-102.8" font-family="Helvetica,sans-Serif" font-size="9.00" fill="orange">index.mjs</text>
</a>
</g>
</g>
<!-- packages/util/time&#45;and/index.ts -->
<g id="node3" class="node">
<title>packages/util/time&#45;and/index.ts</title>
<g id="a_node3"><a xlink:href="packages/util/time-and/index.ts" xlink:title="index.ts">
<path fill="#ddfeff" stroke="black" d="M91,-80C91,-80 49,-80 49,-80 46,-80 43,-77 43,-74 43,-74 43,-68 43,-68 43,-65 46,-62 49,-62 49,-62 91,-62 91,-62 94,-62 97,-65 97,-68 97,-68 97,-74 97,-74 97,-77 94,-80 91,-80"/>
<text text-anchor="start" x="51.5" y="-68.8" font-family="Helvetica,sans-Serif" font-size="9.00">index.ts</text>
</a>
</g>
</g>
<!-- packages/util/time&#45;and/src/index.ts -->
<g id="node4" class="node">
<title>packages/util/time&#45;and/src/index.ts</title>
<g id="a_node4"><a xlink:href="packages/util/time-and/src/index.ts" xlink:title="index.ts">
<path fill="#ddfeff" stroke="black" d="M172,-80C172,-80 130,-80 130,-80 127,-80 124,-77 124,-74 124,-74 124,-68 124,-68 124,-65 127,-62 130,-62 130,-62 172,-62 172,-62 175,-62 178,-65 178,-68 178,-68 178,-74 178,-74 178,-77 175,-80 172,-80"/>
<text text-anchor="start" x="132.5" y="-68.8" font-family="Helvetica,sans-Serif" font-size="9.00">index.ts</text>
</a>
</g>
</g>
<!-- packages/util/time&#45;and/index.ts&#45;&gt;packages/util/time&#45;and/src/index.ts -->
<g id="edge1" class="edge">
<title>packages/util/time&#45;and/index.ts&#45;&gt;packages/util/time&#45;and/src/index.ts</title>
<path fill="none" stroke="#000000" stroke-width="2" stroke-opacity="0.200000" d="M97.31,-71C103.84,-71 110.91,-71 117.69,-71"/>
<polygon fill="#000000" fill-opacity="0.200000" stroke="#000000" stroke-width="2" stroke-opacity="0.200000" points="123.81,-73.1 117.81,-71 123.81,-68.9 123.81,-73.1"/>
</g>
<!-- packages/util/time&#45;and/src/compress.ts -->
<g id="node6" class="node">
<title>packages/util/time&#45;and/src/compress.ts</title>
<g id="a_node6"><a xlink:href="packages/util/time-and/src/compress.ts" xlink:title="compress.ts">
<path fill="#ddfeff" stroke="black" d="M298.5,-58C298.5,-58 239.5,-58 239.5,-58 236.5,-58 233.5,-55 233.5,-52 233.5,-52 233.5,-46 233.5,-46 233.5,-43 236.5,-40 239.5,-40 239.5,-40 298.5,-40 298.5,-40 301.5,-40 304.5,-43 304.5,-46 304.5,-46 304.5,-52 304.5,-52 304.5,-55 301.5,-58 298.5,-58"/>
<text text-anchor="start" x="241.5" y="-46.8" font-family="Helvetica,sans-Serif" font-size="9.00">compress.ts</text>
</a>
</g>
</g>
<!-- packages/util/time&#45;and/src/index.ts&#45;&gt;packages/util/time&#45;and/src/compress.ts -->
<g id="edge3" class="edge">
<title>packages/util/time&#45;and/src/index.ts&#45;&gt;packages/util/time&#45;and/src/compress.ts</title>
<path fill="none" stroke="#000000" stroke-width="2" stroke-opacity="0.200000" d="M178.03,-66.06C192.55,-63.31 210.95,-59.82 227.32,-56.71"/>
<polygon fill="#000000" fill-opacity="0.200000" stroke="#000000" stroke-width="2" stroke-opacity="0.200000" points="233.64,-57.65 227.36,-56.71 232.86,-53.53 233.64,-57.65"/>
</g>
<!-- packages/util/time&#45;and/src/time.ts -->
<g id="node7" class="node">
<title>packages/util/time&#45;and/src/time.ts</title>
<g id="a_node7"><a xlink:href="packages/util/time-and/src/time.ts" xlink:title="time.ts">
<path fill="#ddfeff" stroke="black" d="M408,-91C408,-91 366,-91 366,-91 363,-91 360,-88 360,-85 360,-85 360,-79 360,-79 360,-76 363,-73 366,-73 366,-73 408,-73 408,-73 411,-73 414,-76 414,-79 414,-79 414,-85 414,-85 414,-88 411,-91 408,-91"/>
<text text-anchor="start" x="371" y="-79.8" font-family="Helvetica,sans-Serif" font-size="9.00">time.ts</text>
</a>
</g>
</g>
<!-- packages/util/time&#45;and/src/index.ts&#45;&gt;packages/util/time&#45;and/src/time.ts -->
<g id="edge6" class="edge">
<title>packages/util/time&#45;and/src/index.ts&#45;&gt;packages/util/time&#45;and/src/time.ts</title>
<path fill="none" stroke="#000000" stroke-width="2" stroke-opacity="0.200000" d="M178.21,-71.39C215.67,-72.07 286.68,-73.83 347,-78 349.04,-78.14 351.13,-78.3 353.24,-78.48"/>
<polygon fill="#000000" fill-opacity="0.200000" stroke="#000000" stroke-width="2" stroke-opacity="0.200000" points="359.4,-81.14 353.61,-78.51 359.78,-76.96 359.4,-81.14"/>
</g>
<!-- packages/util/time&#45;and/src/search&#45;items&#45;in&#45;range.ts -->
<g id="node8" class="node">
<title>packages/util/time&#45;and/src/search&#45;items&#45;in&#45;range.ts</title>
<g id="a_node8"><a xlink:href="packages/util/time-and/src/search-items-in-range.ts" xlink:title="search&#45;items&#45;in&#45;range.ts">
<path fill="#ddfeff" stroke="black" d="M326,-102C326,-102 212,-102 212,-102 209,-102 206,-99 206,-96 206,-96 206,-90 206,-90 206,-87 209,-84 212,-84 212,-84 326,-84 326,-84 329,-84 332,-87 332,-90 332,-90 332,-96 332,-96 332,-99 329,-102 326,-102"/>
<text text-anchor="start" x="214" y="-90.8" font-family="Helvetica,sans-Serif" font-size="9.00">search&#45;items&#45;in&#45;range.ts</text>
</a>
</g>
</g>
<!-- packages/util/time&#45;and/src/index.ts&#45;&gt;packages/util/time&#45;and/src/search&#45;items&#45;in&#45;range.ts -->
<g id="edge4" class="edge">
<title>packages/util/time&#45;and/src/index.ts&#45;&gt;packages/util/time&#45;and/src/search&#45;items&#45;in&#45;range.ts</title>
<path fill="none" stroke="#000000" stroke-width="2" stroke-opacity="0.200000" d="M178.03,-75.94C188.71,-77.96 201.49,-80.39 214.02,-82.76"/>
<polygon fill="#000000" fill-opacity="0.200000" stroke="#000000" stroke-width="2" stroke-opacity="0.200000" points="219.75,-85.99 214.24,-82.8 220.53,-81.86 219.75,-85.99"/>
</g>
<!-- packages/util/time&#45;and/src/search&#45;items&#45;overlaps&#45;range.ts -->
<g id="node9" class="node">
<title>packages/util/time&#45;and/src/search&#45;items&#45;overlaps&#45;range.ts</title>
<g id="a_node9"><a xlink:href="packages/util/time-and/src/search-items-overlaps-range.ts" xlink:title="search&#45;items&#45;overlaps&#45;range.ts">
<path fill="#ddfeff" stroke="black" d="M341,-132C341,-132 197,-132 197,-132 194,-132 191,-129 191,-126 191,-126 191,-120 191,-120 191,-117 194,-114 197,-114 197,-114 341,-114 341,-114 344,-114 347,-117 347,-120 347,-120 347,-126 347,-126 347,-129 344,-132 341,-132"/>
<text text-anchor="start" x="199" y="-120.8" font-family="Helvetica,sans-Serif" font-size="9.00">search&#45;items&#45;overlaps&#45;range.ts</text>
</a>
</g>
</g>
<!-- packages/util/time&#45;and/src/index.ts&#45;&gt;packages/util/time&#45;and/src/search&#45;items&#45;overlaps&#45;range.ts -->
<g id="edge5" class="edge">
<title>packages/util/time&#45;and/src/index.ts&#45;&gt;packages/util/time&#45;and/src/search&#45;items&#45;overlaps&#45;range.ts</title>
<path fill="none" stroke="#000000" stroke-width="2" stroke-opacity="0.200000" d="M159.01,-80.15C166.11,-88.74 177.89,-101.25 191,-108 193.66,-109.37 196.43,-110.62 199.27,-111.75"/>
<polygon fill="#000000" fill-opacity="0.200000" stroke="#000000" stroke-width="2" stroke-opacity="0.200000" points="204.47,-115.89 199.56,-111.85 205.92,-111.94 204.47,-115.89"/>
</g>
<!-- packages/util/time&#45;and/intex.test.ts -->
<g id="node5" class="node">
<title>packages/util/time&#45;and/intex.test.ts</title>
<g id="a_node5"><a xlink:href="packages/util/time-and/intex.test.ts" xlink:title="no&#45;orphans">
<path fill="#ccffcc" stroke="orange" d="M99.5,-50C99.5,-50 40.5,-50 40.5,-50 37.5,-50 34.5,-47 34.5,-44 34.5,-44 34.5,-38 34.5,-38 34.5,-35 37.5,-32 40.5,-32 40.5,-32 99.5,-32 99.5,-32 102.5,-32 105.5,-35 105.5,-38 105.5,-38 105.5,-44 105.5,-44 105.5,-47 102.5,-50 99.5,-50"/>
<text text-anchor="start" x="42.5" y="-38.8" font-family="Helvetica,sans-Serif" font-size="9.00" fill="orange">intex.test.ts</text>
</a>
</g>
</g>
<!-- packages/util/time&#45;and/src/compress.ts&#45;&gt;packages/util/time&#45;and/src/time.ts -->
<g id="edge2" class="edge">
<title>packages/util/time&#45;and/src/compress.ts&#45;&gt;packages/util/time&#45;and/src/time.ts</title>
<path fill="none" stroke="#000000" stroke-width="2" stroke-opacity="0.200000" d="M304.77,-56.06C318.09,-59.04 333.35,-62.8 347,-67 350.64,-68.12 354.43,-69.41 358.15,-70.76"/>
<polygon fill="#000000" fill-opacity="0.200000" stroke="#000000" stroke-width="2" stroke-opacity="0.200000" points="357.56,-72.78 363.91,-72.9 359.02,-68.84 357.56,-72.78"/>
</g>
<!-- packages/util/time&#45;and/src/search&#45;items&#45;in&#45;range.ts&#45;&gt;packages/util/time&#45;and/src/time.ts -->
<g id="edge7" class="edge">
<title>packages/util/time&#45;and/src/search&#45;items&#45;in&#45;range.ts&#45;&gt;packages/util/time&#45;and/src/time.ts</title>
<path fill="none" stroke="#000000" stroke-width="2" stroke-opacity="0.200000" d="M332.08,-87.11C339.58,-86.4 347,-85.7 353.81,-85.05"/>
<polygon fill="#000000" fill-opacity="0.200000" stroke="#000000" stroke-width="2" stroke-opacity="0.200000" points="354.12,-87.13 359.89,-84.48 353.72,-82.95 354.12,-87.13"/>
</g>
<!-- packages/util/time&#45;and/src/search&#45;items&#45;overlaps&#45;range.ts&#45;&gt;packages/util/time&#45;and/src/time.ts -->
<g id="edge8" class="edge">
<title>packages/util/time&#45;and/src/search&#45;items&#45;overlaps&#45;range.ts&#45;&gt;packages/util/time&#45;and/src/time.ts</title>
<path fill="none" stroke="#000000" stroke-width="2" stroke-opacity="0.200000" d="M329.15,-113.98C335.28,-112.31 341.33,-110.33 347,-108 355.16,-104.65 363.4,-99.47 370.19,-94.62"/>
<polygon fill="#000000" fill-opacity="0.200000" stroke="#000000" stroke-width="2" stroke-opacity="0.200000" points="371.5,-96.26 375.07,-91.01 369,-92.89 371.5,-96.26"/>
</g>
</g>
</svg>
