<?xml version="1.0" encoding="UTF-8" standalone="no"?>
<!DOCTYPE svg PUBLIC "-//W3C//DTD SVG 1.1//EN"
 "http://www.w3.org/Graphics/SVG/1.1/DTD/svg11.dtd">
<!-- Generated by graphviz version 2.43.0 (0)
 -->
<!-- Title: dependency&#45;cruiser output Pages: 1 -->
<svg width="390pt" height="238pt"
 viewBox="0.00 0.00 390.00 238.00" xmlns="http://www.w3.org/2000/svg" xmlns:xlink="http://www.w3.org/1999/xlink">
<g id="graph0" class="graph" transform="scale(1 1) rotate(0) translate(4 234)">
<title>dependency&#45;cruiser output</title>
<polygon fill="white" stroke="transparent" points="-4,4 -4,-234 386,-234 386,4 -4,4"/>
<g id="clust1" class="cluster">
<title>cluster_packages</title>
<path fill="#ffffff" stroke="black" stroke-width="2" d="M20,-8C20,-8 362,-8 362,-8 368,-8 374,-14 374,-20 374,-20 374,-210 374,-210 374,-216 368,-222 362,-222 362,-222 20,-222 20,-222 14,-222 8,-216 8,-210 8,-210 8,-20 8,-20 8,-14 14,-8 20,-8"/>
<text text-anchor="middle" x="191" y="-210.8" font-family="Helvetica,sans-Serif" font-weight="bold" font-size="9.00">packages</text>
</g>
<g id="clust2" class="cluster">
<title>cluster_packages/util</title>
<path fill="#ffffff" stroke="black" stroke-width="2" d="M28,-16C28,-16 354,-16 354,-16 360,-16 366,-22 366,-28 366,-28 366,-184 366,-184 366,-190 360,-196 354,-196 354,-196 28,-196 28,-196 22,-196 16,-190 16,-184 16,-184 16,-28 16,-28 16,-22 22,-16 28,-16"/>
<text text-anchor="middle" x="191" y="-184.8" font-family="Helvetica,sans-Serif" font-weight="bold" font-size="9.00">util</text>
</g>
<g id="clust3" class="cluster">
<title>cluster_packages/util/time&#45;and</title>
<path fill="#ffffff" stroke="black" stroke-width="2" d="M36,-24C36,-24 346,-24 346,-24 352,-24 358,-30 358,-36 358,-36 358,-158 358,-158 358,-164 352,-170 346,-170 346,-170 36,-170 36,-170 30,-170 24,-164 24,-158 24,-158 24,-36 24,-36 24,-30 30,-24 36,-24"/>
<text text-anchor="middle" x="191" y="-158.8" font-family="Helvetica,sans-Serif" font-weight="bold" font-size="9.00">time&#45;and</text>
</g>
<g id="clust4" class="cluster">
<title>cluster_packages/util/time&#45;and/src</title>
<path fill="#ffffff" stroke="black" stroke-width="2" d="M123,-32C123,-32 338,-32 338,-32 344,-32 350,-38 350,-44 350,-44 350,-132 350,-132 350,-138 344,-144 338,-144 338,-144 123,-144 123,-144 117,-144 111,-138 111,-132 111,-132 111,-44 111,-44 111,-38 117,-32 123,-32"/>
<text text-anchor="middle" x="230.5" y="-132.8" font-family="Helvetica,sans-Serif" font-weight="bold" font-size="9.00">src</text>
</g>
<!-- packages/util/time&#45;and/index.ts -->
<g id="node1" class="node">
<title>packages/util/time&#45;and/index.ts</title>
<g id="a_node1"><a xlink:href="packages/util/time-and/index.ts" xlink:title="index.ts">
<path fill="#ddfeff" stroke="black" d="M88.5,-103C88.5,-103 46.5,-103 46.5,-103 43.5,-103 40.5,-100 40.5,-97 40.5,-97 40.5,-91 40.5,-91 40.5,-88 43.5,-85 46.5,-85 46.5,-85 88.5,-85 88.5,-85 91.5,-85 94.5,-88 94.5,-91 94.5,-91 94.5,-97 94.5,-97 94.5,-100 91.5,-103 88.5,-103"/>
<text text-anchor="start" x="49" y="-91.8" font-family="Helvetica,sans-Serif" font-size="9.00">index.ts</text>
</a>
</g>
</g>
<!-- packages/util/time&#45;and/src/compress.ts -->
<g id="node2" class="node">
<title>packages/util/time&#45;and/src/compress.ts</title>
<g id="a_node2"><a xlink:href="packages/util/time-and/src/compress.ts" xlink:title="compress.ts">
<path fill="#ddfeff" stroke="black" d="M226.5,-118C226.5,-118 167.5,-118 167.5,-118 164.5,-118 161.5,-115 161.5,-112 161.5,-112 161.5,-106 161.5,-106 161.5,-103 164.5,-100 167.5,-100 167.5,-100 226.5,-100 226.5,-100 229.5,-100 232.5,-103 232.5,-106 232.5,-106 232.5,-112 232.5,-112 232.5,-115 229.5,-118 226.5,-118"/>
<text text-anchor="start" x="169.5" y="-106.8" font-family="Helvetica,sans-Serif" font-size="9.00">compress.ts</text>
</a>
</g>
</g>
<!-- packages/util/time&#45;and/index.ts&#45;&gt;packages/util/time&#45;and/src/compress.ts -->
<g id="edge1" class="edge">
<title>packages/util/time&#45;and/index.ts&#45;&gt;packages/util/time&#45;and/src/compress.ts</title>
<path fill="none" stroke="#000000" stroke-width="2" stroke-opacity="0.200000" d="M94.61,-97.07C112.04,-99.12 135.32,-101.86 155.18,-104.2"/>
<polygon fill="#000000" fill-opacity="0.200000" stroke="#000000" stroke-width="2" stroke-opacity="0.200000" points="160.97,-106.99 155.26,-104.21 161.46,-102.82 160.97,-106.99"/>
</g>
<!-- packages/util/time&#45;and/src/search&#45;items&#45;in&#45;range.ts -->
<g id="node3" class="node">
<title>packages/util/time&#45;and/src/search&#45;items&#45;in&#45;range.ts</title>
<g id="a_node3"><a xlink:href="packages/util/time-and/src/search-items-in-range.ts" xlink:title="search&#45;items&#45;in&#45;range.ts">
<path fill="#ddfeff" stroke="black" d="M254,-88C254,-88 140,-88 140,-88 137,-88 134,-85 134,-82 134,-82 134,-76 134,-76 134,-73 137,-70 140,-70 140,-70 254,-70 254,-70 257,-70 260,-73 260,-76 260,-76 260,-82 260,-82 260,-85 257,-88 254,-88"/>
<text text-anchor="start" x="142" y="-76.8" font-family="Helvetica,sans-Serif" font-size="9.00">search&#45;items&#45;in&#45;range.ts</text>
</a>
</g>
</g>
<!-- packages/util/time&#45;and/index.ts&#45;&gt;packages/util/time&#45;and/src/search&#45;items&#45;in&#45;range.ts -->
<g id="edge2" class="edge">
<title>packages/util/time&#45;and/index.ts&#45;&gt;packages/util/time&#45;and/src/search&#45;items&#45;in&#45;range.ts</title>
<path fill="none" stroke="#000000" stroke-width="2" stroke-opacity="0.200000" d="M94.61,-90.93C104.35,-89.78 115.92,-88.42 127.69,-87.04"/>
<polygon fill="#000000" fill-opacity="0.200000" stroke="#000000" stroke-width="2" stroke-opacity="0.200000" points="134.11,-88.4 127.9,-87.01 133.61,-84.22 134.11,-88.4"/>
</g>
<!-- packages/util/time&#45;and/src/search&#45;items&#45;overlaps&#45;range.ts -->
<g id="node4" class="node">
<title>packages/util/time&#45;and/src/search&#45;items&#45;overlaps&#45;range.ts</title>
<g id="a_node4"><a xlink:href="packages/util/time-and/src/search-items-overlaps-range.ts" xlink:title="search&#45;items&#45;overlaps&#45;range.ts">
<path fill="#ddfeff" stroke="black" d="M269,-58C269,-58 125,-58 125,-58 122,-58 119,-55 119,-52 119,-52 119,-46 119,-46 119,-43 122,-40 125,-40 125,-40 269,-40 269,-40 272,-40 275,-43 275,-46 275,-46 275,-52 275,-52 275,-55 272,-58 269,-58"/>
<text text-anchor="start" x="127" y="-46.8" font-family="Helvetica,sans-Serif" font-size="9.00">search&#45;items&#45;overlaps&#45;range.ts</text>
</a>
</g>
</g>
<!-- packages/util/time&#45;and/index.ts&#45;&gt;packages/util/time&#45;and/src/search&#45;items&#45;overlaps&#45;range.ts -->
<g id="edge3" class="edge">
<title>packages/util/time&#45;and/index.ts&#45;&gt;packages/util/time&#45;and/src/search&#45;items&#45;overlaps&#45;range.ts</title>
<path fill="none" stroke="#000000" stroke-width="2" stroke-opacity="0.200000" d="M84.94,-84.95C93.83,-80.05 103,-75 103,-75 103,-75 111,-64 111,-64 111,-64 123.23,-61.84 138.41,-59.16"/>
<polygon fill="#000000" fill-opacity="0.200000" stroke="#000000" stroke-width="2" stroke-opacity="0.200000" points="144.96,-60.14 138.69,-59.11 144.23,-56 144.96,-60.14"/>
</g>
<!-- packages/util/time&#45;and/src/time.ts -->
<g id="node5" class="node">
<title>packages/util/time&#45;and/src/time.ts</title>
<g id="a_node5"><a xlink:href="packages/util/time-and/src/time.ts" xlink:title="time.ts">
<path fill="#ddfeff" stroke="black" d="M336,-103C336,-103 294,-103 294,-103 291,-103 288,-100 288,-97 288,-97 288,-91 288,-91 288,-88 291,-85 294,-85 294,-85 336,-85 336,-85 339,-85 342,-88 342,-91 342,-91 342,-97 342,-97 342,-100 339,-103 336,-103"/>
<text text-anchor="start" x="299" y="-91.8" font-family="Helvetica,sans-Serif" font-size="9.00">time.ts</text>
</a>
</g>
</g>
<!-- packages/util/time&#45;and/index.ts&#45;&gt;packages/util/time&#45;and/src/time.ts -->
<g id="edge4" class="edge">
<title>packages/util/time&#45;and/index.ts&#45;&gt;packages/util/time&#45;and/src/time.ts</title>
<path fill="none" stroke="#000000" stroke-width="2" stroke-opacity="0.200000" d="M81.48,-103.16C93.98,-111.99 111,-124 111,-124 111,-124 275,-124 275,-124 275,-124 286.53,-115.13 297.06,-107.03"/>
<polygon fill="#000000" fill-opacity="0.200000" stroke="#000000" stroke-width="2" stroke-opacity="0.200000" points="303.37,-104.83 297.33,-106.82 300.81,-101.5 303.37,-104.83"/>
</g>
<!-- packages/util/time&#45;and/src/compress.ts&#45;&gt;packages/util/time&#45;and/src/time.ts -->
<g id="edge5" class="edge">
<title>packages/util/time&#45;and/src/compress.ts&#45;&gt;packages/util/time&#45;and/src/time.ts</title>
<path fill="none" stroke="#000000" stroke-width="2" stroke-opacity="0.200000" d="M232.8,-104.5C248.22,-102.51 266.25,-100.17 281.4,-98.21"/>
<polygon fill="#000000" fill-opacity="0.200000" stroke="#000000" stroke-width="2" stroke-opacity="0.200000" points="282.02,-100.25 287.7,-97.4 281.49,-96.09 282.02,-100.25"/>
</g>
<!-- packages/util/time&#45;and/src/search&#45;items&#45;in&#45;range.ts&#45;&gt;packages/util/time&#45;and/src/time.ts -->
<g id="edge6" class="edge">
<title>packages/util/time&#45;and/src/search&#45;items&#45;in&#45;range.ts&#45;&gt;packages/util/time&#45;and/src/time.ts</title>
<path fill="none" stroke="#000000" stroke-width="2" stroke-opacity="0.200000" d="M260.08,-87.03C267.58,-88 275,-88.96 281.81,-89.84"/>
<polygon fill="#000000" fill-opacity="0.200000" stroke="#000000" stroke-width="2" stroke-opacity="0.200000" points="281.67,-91.94 287.89,-90.62 282.21,-87.77 281.67,-91.94"/>
</g>
<!-- packages/util/time&#45;and/src/search&#45;items&#45;overlaps&#45;range.ts&#45;&gt;packages/util/time&#45;and/src/time.ts -->
<g id="edge7" class="edge">
<title>packages/util/time&#45;and/src/search&#45;items&#45;overlaps&#45;range.ts&#45;&gt;packages/util/time&#45;and/src/time.ts</title>
<path fill="none" stroke="#000000" stroke-width="2" stroke-opacity="0.200000" d="M244.57,-58.07C260.78,-61.23 275,-64 275,-64 275,-64 286.53,-72.87 297.06,-80.97"/>
<polygon fill="#000000" fill-opacity="0.200000" stroke="#000000" stroke-width="2" stroke-opacity="0.200000" points="296.05,-82.84 302.09,-84.84 298.61,-79.51 296.05,-82.84"/>
</g>
<!-- packages/util/time&#45;and/intex.test.ts -->
<g id="node6" class="node">
<title>packages/util/time&#45;and/intex.test.ts</title>
<g id="a_node6"><a xlink:href="packages/util/time-and/intex.test.ts" xlink:title="no&#45;orphans">
<path fill="#ccffcc" stroke="orange" d="M97,-69C97,-69 38,-69 38,-69 35,-69 32,-66 32,-63 32,-63 32,-57 32,-57 32,-54 35,-51 38,-51 38,-51 97,-51 97,-51 100,-51 103,-54 103,-57 103,-57 103,-63 103,-63 103,-66 100,-69 97,-69"/>
<text text-anchor="start" x="40" y="-57.8" font-family="Helvetica,sans-Serif" font-size="9.00" fill="orange">intex.test.ts</text>
</a>
</g>
</g>
</g>
</svg>
