<?xml version="1.0" encoding="UTF-8" standalone="no"?>
<!DOCTYPE svg PUBLIC "-//W3C//DTD SVG 1.1//EN"
 "http://www.w3.org/Graphics/SVG/1.1/DTD/svg11.dtd">
<!-- Generated by graphviz version 2.43.0 (0)
 -->
<!-- Title: dependency&#45;cruiser output Pages: 1 -->
<svg width="644pt" height="349pt"
 viewBox="0.00 0.00 644.10 349.43" xmlns="http://www.w3.org/2000/svg" xmlns:xlink="http://www.w3.org/1999/xlink">
<g id="graph0" class="graph" transform="scale(1 1) rotate(0) translate(4 345.43)">
<title>dependency&#45;cruiser output</title>
<polygon fill="white" stroke="transparent" points="-4,4 -4,-345.43 640.1,-345.43 640.1,4 -4,4"/>
<g id="clust1" class="cluster">
<title>cluster_node_modules</title>
<path fill="#ffffff" stroke="black" stroke-width="2" d="M34.99,-48.91C34.99,-48.91 76.99,-48.91 76.99,-48.91 79.99,-48.91 82.99,-51.91 82.99,-54.91 82.99,-54.91 82.99,-60.91 82.99,-60.91 82.99,-63.91 79.99,-66.91 76.99,-66.91 76.99,-66.91 34.99,-66.91 34.99,-66.91 31.99,-66.91 28.99,-63.91 28.99,-60.91 28.99,-60.91 28.99,-54.91 28.99,-54.91 28.99,-51.91 31.99,-48.91 34.99,-48.91"/>
<text text-anchor="middle" x="55.99" y="-55.71" font-family="Helvetica,sans-Serif" font-weight="bold" font-size="9.00">node_modules</text>
</g>
<g id="clust2" class="cluster">
<title>cluster_packages</title>
<path fill="#ffffff" stroke="black" stroke-width="2" d="M86.8,0C86.8,0 624.1,0 624.1,0 630.1,0 636.1,-6 636.1,-12 636.1,-12 636.1,-329.43 636.1,-329.43 636.1,-335.43 630.1,-341.43 624.1,-341.43 624.1,-341.43 86.8,-341.43 86.8,-341.43 80.8,-341.43 74.8,-335.43 74.8,-329.43 74.8,-329.43 74.8,-12 74.8,-12 74.8,-6 80.8,0 86.8,0"/>
<text text-anchor="middle" x="355.45" y="-330.23" font-family="Helvetica,sans-Serif" font-weight="bold" font-size="9.00">packages</text>
</g>
<!-- fs -->
<g id="node1" class="node">
<title>fs</title>
<g id="a_node1"><a xlink:href="https://nodejs.org/api/fs.html" xlink:title="fs">
<path fill="#ffffcc" stroke="grey" d="M48,-197.55C48,-197.55 6,-197.55 6,-197.55 3,-197.55 0,-194.55 0,-191.55 0,-191.55 0,-185.55 0,-185.55 0,-182.55 3,-179.55 6,-179.55 6,-179.55 48,-179.55 48,-179.55 51,-179.55 54,-182.55 54,-185.55 54,-185.55 54,-191.55 54,-191.55 54,-194.55 51,-197.55 48,-197.55"/>
<text text-anchor="middle" x="27" y="-186.35" font-family="Helvetica,sans-Serif" font-size="9.00" fill="grey">fs</text>
</a>
</g>
</g>
<!-- node_modules/yargs -->
<g id="node2" class="node">
<title>node_modules/yargs</title>
<g id="a_node2"><a xlink:href="https://www.npmjs.com/package/yargs" xlink:title="yargs">
<polygon fill="#c40b0a" fill-opacity="0.101961" stroke="black" points="82.99,-66.91 30.99,-66.91 28.99,-64.91 28.99,-48.91 80.99,-48.91 82.99,-50.91 82.99,-66.91"/>
<polyline fill="none" stroke="black" points="80.99,-64.91 28.99,-64.91 "/>
<polyline fill="none" stroke="black" points="80.99,-64.91 80.99,-48.91 "/>
<polyline fill="none" stroke="black" points="80.99,-64.91 82.99,-66.91 "/>
<text text-anchor="start" x="43.49" y="-55.71" font-family="Helvetica,sans-Serif" font-size="9.00" fill="#c40b0a">yargs</text>
</a>
</g>
</g>
<!-- packages/cli/melody&#45;analyze&#45;cli/index.ts -->
<g id="node3" class="node">
<title>packages/cli/melody&#45;analyze&#45;cli/index.ts</title>
<g id="a_node3"><a xlink:href="packages/cli/melody-analyze-cli/index.ts" xlink:title="index.ts">
<path fill="#ddfeff" stroke="black" d="M184.2,-160.26C184.2,-160.26 142.2,-160.26 142.2,-160.26 139.2,-160.26 136.2,-157.26 136.2,-154.26 136.2,-154.26 136.2,-148.26 136.2,-148.26 136.2,-145.26 139.2,-142.26 142.2,-142.26 142.2,-142.26 184.2,-142.26 184.2,-142.26 187.2,-142.26 190.2,-145.26 190.2,-148.26 190.2,-148.26 190.2,-154.26 190.2,-154.26 190.2,-157.26 187.2,-160.26 184.2,-160.26"/>
<text text-anchor="start" x="144.7" y="-149.06" font-family="Helvetica,sans-Serif" font-size="9.00">index.ts</text>
</a>
</g>
</g>
<!-- packages/cli/melody&#45;analyze&#45;cli/index.ts&#45;&gt;fs -->
<g id="edge5" class="edge">
<title>packages/cli/melody&#45;analyze&#45;cli/index.ts&#45;&gt;fs</title>
<path fill="none" stroke="#000000" stroke-dasharray="5,2" stroke-opacity="0.200000" d="M135.97,-158.71C114.16,-164.68 83.48,-173.08 60.23,-179.45"/>
<polygon fill="#000000" fill-opacity="0.200000" stroke="#000000" stroke-opacity="0.200000" points="59.42,-177.49 54.19,-181.1 60.53,-181.54 59.42,-177.49"/>
</g>
<!-- packages/cli/melody&#45;analyze&#45;cli/index.ts&#45;&gt;node_modules/yargs -->
<g id="edge6" class="edge">
<title>packages/cli/melody&#45;analyze&#45;cli/index.ts&#45;&gt;node_modules/yargs</title>
<path fill="none" stroke="#000000" stroke-opacity="0.200000" d="M152.53,-141.97C133.42,-125.33 93.32,-90.41 71.29,-71.23"/>
<polygon fill="#000000" fill-opacity="0.200000" stroke="#000000" stroke-opacity="0.200000" points="72.52,-69.52 66.62,-67.16 69.76,-72.69 72.52,-69.52"/>
</g>
<!-- packages/music&#45;structure/chord/chord&#45;analyze/dist/index.js -->
<g id="node4" class="node">
<title>packages/music&#45;structure/chord/chord&#45;analyze/dist/index.js</title>
<g id="a_node4"><a xlink:href="packages/music-structure/chord/chord-analyze/dist/index.js" xlink:title="index.js">
<polygon fill="#ffffcc" stroke="black" points="266.84,-215.28 265.34,-217.28 254.84,-217.28 253.34,-215.28 212.84,-215.28 212.84,-197.28 266.84,-197.28 266.84,-215.28"/>
<text text-anchor="start" x="222.34" y="-204.08" font-family="Helvetica,sans-Serif" font-size="9.00">index.js</text>
</a>
</g>
</g>
<!-- packages/cli/melody&#45;analyze&#45;cli/index.ts&#45;&gt;packages/music&#45;structure/chord/chord&#45;analyze/dist/index.js -->
<g id="edge1" class="edge">
<title>packages/cli/melody&#45;analyze&#45;cli/index.ts&#45;&gt;packages/music&#45;structure/chord/chord&#45;analyze/dist/index.js</title>
<path fill="none" stroke="#000000" stroke-width="2" stroke-opacity="0.200000" d="M175.86,-160.34C188.5,-169.42 208.05,-183.46 222.22,-193.63"/>
<polygon fill="#000000" fill-opacity="0.200000" stroke="#000000" stroke-width="2" stroke-opacity="0.200000" points="221.07,-195.39 227.17,-197.18 223.52,-191.97 221.07,-195.39"/>
</g>
<!-- packages/music&#45;structure/melody/melody&#45;analyze/src/analyze&#45;melody.ts -->
<g id="node5" class="node">
<title>packages/music&#45;structure/melody/melody&#45;analyze/src/analyze&#45;melody.ts</title>
<g id="a_node5"><a xlink:href="packages/music-structure/melody/melody-analyze/src/analyze-melody.ts" xlink:title="analyze&#45;melody.ts">
<path fill="#ddfeff" stroke="black" d="M382.3,-187.47C382.3,-187.47 298.3,-187.47 298.3,-187.47 295.3,-187.47 292.3,-184.47 292.3,-181.47 292.3,-181.47 292.3,-175.47 292.3,-175.47 292.3,-172.47 295.3,-169.47 298.3,-169.47 298.3,-169.47 382.3,-169.47 382.3,-169.47 385.3,-169.47 388.3,-172.47 388.3,-175.47 388.3,-175.47 388.3,-181.47 388.3,-181.47 388.3,-184.47 385.3,-187.47 382.3,-187.47"/>
<text text-anchor="start" x="300.3" y="-176.27" font-family="Helvetica,sans-Serif" font-size="9.00">analyze&#45;melody.ts</text>
</a>
</g>
</g>
<!-- packages/cli/melody&#45;analyze&#45;cli/index.ts&#45;&gt;packages/music&#45;structure/melody/melody&#45;analyze/src/analyze&#45;melody.ts -->
<g id="edge2" class="edge">
<title>packages/cli/melody&#45;analyze&#45;cli/index.ts&#45;&gt;packages/music&#45;structure/melody/melody&#45;analyze/src/analyze&#45;melody.ts</title>
<path fill="none" stroke="#000000" stroke-width="2" stroke-opacity="0.200000" d="M190.49,-155.45C215.86,-159.35 254.41,-165.27 286.05,-170.13"/>
<polygon fill="#000000" fill-opacity="0.200000" stroke="#000000" stroke-width="2" stroke-opacity="0.200000" points="286.03,-172.26 292.28,-171.09 286.67,-168.1 286.03,-172.26"/>
</g>
<!-- packages/music&#45;structure/melody/melody&#45;analyze/src/get&#45;time&#45;and&#45;melody.ts -->
<g id="node6" class="node">
<title>packages/music&#45;structure/melody/melody&#45;analyze/src/get&#45;time&#45;and&#45;melody.ts</title>
<g id="a_node6"><a xlink:href="packages/music-structure/melody/melody-analyze/src/get-time-and-melody.ts" xlink:title="get&#45;time&#45;and&#45;melody.ts">
<path fill="#ddfeff" stroke="black" d="M189.8,-315.12C189.8,-315.12 80.8,-315.12 80.8,-315.12 77.8,-315.12 74.8,-312.12 74.8,-309.12 74.8,-309.12 74.8,-303.12 74.8,-303.12 74.8,-300.12 77.8,-297.12 80.8,-297.12 80.8,-297.12 189.8,-297.12 189.8,-297.12 192.8,-297.12 195.8,-300.12 195.8,-303.12 195.8,-303.12 195.8,-309.12 195.8,-309.12 195.8,-312.12 192.8,-315.12 189.8,-315.12"/>
<text text-anchor="start" x="82.8" y="-303.92" font-family="Helvetica,sans-Serif" font-size="9.00">get&#45;time&#45;and&#45;melody.ts</text>
</a>
</g>
</g>
<!-- packages/cli/melody&#45;analyze&#45;cli/index.ts&#45;&gt;packages/music&#45;structure/melody/melody&#45;analyze/src/get&#45;time&#45;and&#45;melody.ts -->
<g id="edge3" class="edge">
<title>packages/cli/melody&#45;analyze&#45;cli/index.ts&#45;&gt;packages/music&#45;structure/melody/melody&#45;analyze/src/get&#45;time&#45;and&#45;melody.ts</title>
<path fill="none" stroke="#000000" stroke-width="2" stroke-opacity="0.200000" d="M161.54,-160.48C156.92,-186.14 143.88,-258.54 138.11,-290.56"/>
<polygon fill="#000000" fill-opacity="0.200000" stroke="#000000" stroke-width="2" stroke-opacity="0.200000" points="135.99,-290.47 136.99,-296.75 140.12,-291.22 135.99,-290.47"/>
</g>
<!-- packages/music&#45;structure/melody/melody&#45;analyze/src/melody&#45;analysis&#45;data.ts -->
<g id="node7" class="node">
<title>packages/music&#45;structure/melody/melody&#45;analyze/src/melody&#45;analysis&#45;data.ts</title>
<g id="a_node7"><a xlink:href="packages/music-structure/melody/melody-analyze/src/melody-analysis-data.ts" xlink:title="melody&#45;analysis&#45;data.ts">
<path fill="#ddfeff" stroke="black" d="M236.41,-28.86C236.41,-28.86 126.41,-28.86 126.41,-28.86 123.41,-28.86 120.41,-25.86 120.41,-22.86 120.41,-22.86 120.41,-16.86 120.41,-16.86 120.41,-13.86 123.41,-10.86 126.41,-10.86 126.41,-10.86 236.41,-10.86 236.41,-10.86 239.41,-10.86 242.41,-13.86 242.41,-16.86 242.41,-16.86 242.41,-22.86 242.41,-22.86 242.41,-25.86 239.41,-28.86 236.41,-28.86"/>
<text text-anchor="start" x="128.41" y="-17.66" font-family="Helvetica,sans-Serif" font-size="9.00">melody&#45;analysis&#45;data.ts</text>
</a>
</g>
</g>
<!-- packages/cli/melody&#45;analyze&#45;cli/index.ts&#45;&gt;packages/music&#45;structure/melody/melody&#45;analyze/src/melody&#45;analysis&#45;data.ts -->
<g id="edge4" class="edge">
<title>packages/cli/melody&#45;analyze&#45;cli/index.ts&#45;&gt;packages/music&#45;structure/melody/melody&#45;analyze/src/melody&#45;analysis&#45;data.ts</title>
<path fill="none" stroke="#000000" stroke-width="2" stroke-opacity="0.200000" d="M164.45,-142.23C167.53,-120 175.5,-62.48 179.32,-34.96"/>
<polygon fill="#000000" fill-opacity="0.200000" stroke="#000000" stroke-width="2" stroke-opacity="0.200000" points="181.41,-35.18 180.15,-28.95 177.25,-34.61 181.41,-35.18"/>
</g>
<!-- packages/music&#45;structure/melody/melody&#45;analyze/src/analyze&#45;melody.ts&#45;&gt;packages/music&#45;structure/chord/chord&#45;analyze/dist/index.js -->
<g id="edge11" class="edge">
<title>packages/music&#45;structure/melody/melody&#45;analyze/src/analyze&#45;melody.ts&#45;&gt;packages/music&#45;structure/chord/chord&#45;analyze/dist/index.js</title>
<path fill="none" stroke="#000000" stroke-width="2" stroke-opacity="0.200000" d="M307.68,-187.5C296.57,-190.58 284.13,-194.02 272.97,-197.11"/>
<polygon fill="#000000" fill-opacity="0.200000" stroke="#000000" stroke-width="2" stroke-opacity="0.200000" points="272.14,-195.16 266.92,-198.78 273.26,-199.21 272.14,-195.16"/>
</g>
<!-- packages/cognitive&#45;theory&#45;of&#45;music/irm/dist/index.js -->
<g id="node8" class="node">
<title>packages/cognitive&#45;theory&#45;of&#45;music/irm/dist/index.js</title>
<g id="a_node8"><a xlink:href="packages/cognitive-theory-of-music/irm/dist/index.js" xlink:title="index.js">
<polygon fill="#ffffcc" stroke="black" points="389.45,-18 387.95,-20 377.45,-20 375.95,-18 335.45,-18 335.45,0 389.45,0 389.45,-18"/>
<text text-anchor="start" x="344.95" y="-6.8" font-family="Helvetica,sans-Serif" font-size="9.00">index.js</text>
</a>
</g>
</g>
<!-- packages/music&#45;structure/melody/melody&#45;analyze/src/analyze&#45;melody.ts&#45;&gt;packages/cognitive&#45;theory&#45;of&#45;music/irm/dist/index.js -->
<g id="edge12" class="edge">
<title>packages/music&#45;structure/melody/melody&#45;analyze/src/analyze&#45;melody.ts&#45;&gt;packages/cognitive&#45;theory&#45;of&#45;music/irm/dist/index.js</title>
<path fill="none" stroke="#000000" stroke-width="2" stroke-opacity="0.200000" d="M341.49,-169.36C345.1,-141.77 355.92,-58.94 360.44,-24.39"/>
<polygon fill="#000000" fill-opacity="0.200000" stroke="#000000" stroke-width="2" stroke-opacity="0.200000" points="362.56,-24.38 361.26,-18.16 358.4,-23.83 362.56,-24.38"/>
</g>
<!-- packages/music&#45;structure/melody/melody&#45;analyze/src/melody&#45;analysis.ts -->
<g id="node9" class="node">
<title>packages/music&#45;structure/melody/melody&#45;analyze/src/melody&#45;analysis.ts</title>
<g id="a_node9"><a xlink:href="packages/music-structure/melody/melody-analyze/src/melody-analysis.ts" xlink:title="melody&#45;analysis.ts">
<path fill="#ddfeff" stroke="black" d="M450.38,-88.18C450.38,-88.18 363.38,-88.18 363.38,-88.18 360.38,-88.18 357.38,-85.18 357.38,-82.18 357.38,-82.18 357.38,-76.18 357.38,-76.18 357.38,-73.18 360.38,-70.18 363.38,-70.18 363.38,-70.18 450.38,-70.18 450.38,-70.18 453.38,-70.18 456.38,-73.18 456.38,-76.18 456.38,-76.18 456.38,-82.18 456.38,-82.18 456.38,-85.18 453.38,-88.18 450.38,-88.18"/>
<text text-anchor="start" x="365.38" y="-76.98" font-family="Helvetica,sans-Serif" font-size="9.00">melody&#45;analysis.ts</text>
</a>
</g>
</g>
<!-- packages/music&#45;structure/melody/melody&#45;analyze/src/analyze&#45;melody.ts&#45;&gt;packages/music&#45;structure/melody/melody&#45;analyze/src/melody&#45;analysis.ts -->
<g id="edge7" class="edge">
<title>packages/music&#45;structure/melody/melody&#45;analyze/src/analyze&#45;melody.ts&#45;&gt;packages/music&#45;structure/melody/melody&#45;analyze/src/melody&#45;analysis.ts</title>
<path fill="none" stroke="#000000" stroke-width="2" stroke-opacity="0.200000" d="M346.44,-169.31C358.09,-151.94 383.44,-114.13 397.32,-93.43"/>
<polygon fill="#000000" fill-opacity="0.200000" stroke="#000000" stroke-width="2" stroke-opacity="0.200000" points="399.16,-94.47 400.75,-88.32 395.67,-92.13 399.16,-94.47"/>
</g>
<!-- packages/music&#45;structure/melody/melody&#45;analyze/src/register&#45;gravity.ts -->
<g id="node10" class="node">
<title>packages/music&#45;structure/melody/melody&#45;analyze/src/register&#45;gravity.ts</title>
<g id="a_node10"><a xlink:href="packages/music-structure/melody/melody-analyze/src/register-gravity.ts" xlink:title="register&#45;gravity.ts">
<path fill="#ddfeff" stroke="black" d="M527.95,-199.61C527.95,-199.61 444.95,-199.61 444.95,-199.61 441.95,-199.61 438.95,-196.61 438.95,-193.61 438.95,-193.61 438.95,-187.61 438.95,-187.61 438.95,-184.61 441.95,-181.61 444.95,-181.61 444.95,-181.61 527.95,-181.61 527.95,-181.61 530.95,-181.61 533.95,-184.61 533.95,-187.61 533.95,-187.61 533.95,-193.61 533.95,-193.61 533.95,-196.61 530.95,-199.61 527.95,-199.61"/>
<text text-anchor="start" x="446.95" y="-188.41" font-family="Helvetica,sans-Serif" font-size="9.00">register&#45;gravity.ts</text>
</a>
</g>
</g>
<!-- packages/music&#45;structure/melody/melody&#45;analyze/src/analyze&#45;melody.ts&#45;&gt;packages/music&#45;structure/melody/melody&#45;analyze/src/register&#45;gravity.ts -->
<g id="edge8" class="edge">
<title>packages/music&#45;structure/melody/melody&#45;analyze/src/analyze&#45;melody.ts&#45;&gt;packages/music&#45;structure/melody/melody&#45;analyze/src/register&#45;gravity.ts</title>
<path fill="none" stroke="#000000" stroke-width="2" stroke-opacity="0.200000" d="M388.56,-182.48C402.67,-183.65 418.19,-184.94 432.62,-186.14"/>
<polygon fill="#000000" fill-opacity="0.200000" stroke="#000000" stroke-width="2" stroke-opacity="0.200000" points="432.58,-188.24 438.74,-186.65 432.93,-184.06 432.58,-188.24"/>
</g>
<!-- packages/music&#45;structure/melody/melody&#45;analyze/src/time&#45;and&#45;analyzed&#45;melody.ts -->
<g id="node11" class="node">
<title>packages/music&#45;structure/melody/melody&#45;analyze/src/time&#45;and&#45;analyzed&#45;melody.ts</title>
<g id="a_node11"><a xlink:href="packages/music-structure/melody/melody-analyze/src/time-and-analyzed-melody.ts" xlink:title="time&#45;and&#45;analyzed&#45;melody.ts">
<path fill="#ddfeff" stroke="black" d="M349.02,-114.18C349.02,-114.18 215.02,-114.18 215.02,-114.18 212.02,-114.18 209.02,-111.18 209.02,-108.18 209.02,-108.18 209.02,-102.18 209.02,-102.18 209.02,-99.18 212.02,-96.18 215.02,-96.18 215.02,-96.18 349.02,-96.18 349.02,-96.18 352.02,-96.18 355.02,-99.18 355.02,-102.18 355.02,-102.18 355.02,-108.18 355.02,-108.18 355.02,-111.18 352.02,-114.18 349.02,-114.18"/>
<text text-anchor="start" x="217.02" y="-102.98" font-family="Helvetica,sans-Serif" font-size="9.00">time&#45;and&#45;analyzed&#45;melody.ts</text>
</a>
</g>
</g>
<!-- packages/music&#45;structure/melody/melody&#45;analyze/src/analyze&#45;melody.ts&#45;&gt;packages/music&#45;structure/melody/melody&#45;analyze/src/time&#45;and&#45;analyzed&#45;melody.ts -->
<g id="edge9" class="edge">
<title>packages/music&#45;structure/melody/melody&#45;analyze/src/analyze&#45;melody.ts&#45;&gt;packages/music&#45;structure/melody/melody&#45;analyze/src/time&#45;and&#45;analyzed&#45;melody.ts</title>
<path fill="none" stroke="#000000" stroke-width="2" stroke-opacity="0.200000" d="M332.92,-169.19C322.99,-156.7 305.23,-134.36 293.53,-119.66"/>
<polygon fill="#000000" fill-opacity="0.200000" stroke="#000000" stroke-width="2" stroke-opacity="0.200000" points="294.9,-118.01 289.52,-114.62 291.61,-120.62 294.9,-118.01"/>
</g>
<!-- packages/music&#45;structure/melody/melody&#45;analyze/src/time&#45;and&#45;melody.ts -->
<g id="node12" class="node">
<title>packages/music&#45;structure/melody/melody&#45;analyze/src/time&#45;and&#45;melody.ts</title>
<g id="a_node12"><a xlink:href="packages/music-structure/melody/melody-analyze/src/time-and-melody.ts" xlink:title="time&#45;and&#45;melody.ts">
<path fill="#ddfeff" stroke="black" d="M339.35,-341.43C339.35,-341.43 248.35,-341.43 248.35,-341.43 245.35,-341.43 242.35,-338.43 242.35,-335.43 242.35,-335.43 242.35,-329.43 242.35,-329.43 242.35,-326.43 245.35,-323.43 248.35,-323.43 248.35,-323.43 339.35,-323.43 339.35,-323.43 342.35,-323.43 345.35,-326.43 345.35,-329.43 345.35,-329.43 345.35,-335.43 345.35,-335.43 345.35,-338.43 342.35,-341.43 339.35,-341.43"/>
<text text-anchor="start" x="250.35" y="-330.23" font-family="Helvetica,sans-Serif" font-size="9.00">time&#45;and&#45;melody.ts</text>
</a>
</g>
</g>
<!-- packages/music&#45;structure/melody/melody&#45;analyze/src/analyze&#45;melody.ts&#45;&gt;packages/music&#45;structure/melody/melody&#45;analyze/src/time&#45;and&#45;melody.ts -->
<g id="edge10" class="edge">
<title>packages/music&#45;structure/melody/melody&#45;analyze/src/analyze&#45;melody.ts&#45;&gt;packages/music&#45;structure/melody/melody&#45;analyze/src/time&#45;and&#45;melody.ts</title>
<path fill="none" stroke="#000000" stroke-width="2" stroke-opacity="0.200000" d="M337.53,-187.64C329.81,-213.25 307.94,-285.73 298.4,-317.36"/>
<polygon fill="#000000" fill-opacity="0.200000" stroke="#000000" stroke-width="2" stroke-opacity="0.200000" points="296.39,-316.76 296.66,-323.11 300.41,-317.97 296.39,-316.76"/>
</g>
<!-- packages/tonal&#45;objects/dist/index.js -->
<g id="node13" class="node">
<title>packages/tonal&#45;objects/dist/index.js</title>
<g id="a_node13"><a xlink:href="packages/tonal-objects/dist/index.js" xlink:title="index.js">
<polygon fill="#ffffcc" stroke="black" points="458.87,-287.77 457.37,-289.77 446.87,-289.77 445.37,-287.77 404.87,-287.77 404.87,-269.77 458.87,-269.77 458.87,-287.77"/>
<text text-anchor="start" x="414.37" y="-276.57" font-family="Helvetica,sans-Serif" font-size="9.00">index.js</text>
</a>
</g>
</g>
<!-- packages/music&#45;structure/melody/melody&#45;analyze/src/analyze&#45;melody.ts&#45;&gt;packages/tonal&#45;objects/dist/index.js -->
<g id="edge13" class="edge">
<title>packages/music&#45;structure/melody/melody&#45;analyze/src/analyze&#45;melody.ts&#45;&gt;packages/tonal&#45;objects/dist/index.js</title>
<path fill="none" stroke="#000000" stroke-width="2" stroke-opacity="0.200000" d="M348.75,-187.73C364.9,-205.42 400.22,-244.11 419.2,-264.9"/>
<polygon fill="#000000" fill-opacity="0.200000" stroke="#000000" stroke-width="2" stroke-opacity="0.200000" points="417.84,-266.52 423.44,-269.54 420.94,-263.69 417.84,-266.52"/>
</g>
<!-- packages/music&#45;structure/melody/melody&#45;analyze/src/get&#45;time&#45;and&#45;melody.ts&#45;&gt;packages/music&#45;structure/melody/melody&#45;analyze/src/time&#45;and&#45;melody.ts -->
<g id="edge14" class="edge">
<title>packages/music&#45;structure/melody/melody&#45;analyze/src/get&#45;time&#45;and&#45;melody.ts&#45;&gt;packages/music&#45;structure/melody/melody&#45;analyze/src/time&#45;and&#45;melody.ts</title>
<path fill="none" stroke="#000000" stroke-width="2" stroke-opacity="0.200000" d="M189.87,-315.17C204.81,-317.65 221.06,-320.35 236.17,-322.86"/>
<polygon fill="#000000" fill-opacity="0.200000" stroke="#000000" stroke-width="2" stroke-opacity="0.200000" points="235.87,-324.93 242.13,-323.84 236.55,-320.79 235.87,-324.93"/>
</g>
<!-- packages/util/time&#45;and/dist/index.js -->
<g id="node14" class="node">
<title>packages/util/time&#45;and/dist/index.js</title>
<g id="a_node14"><a xlink:href="packages/util/time-and/dist/index.js" xlink:title="index.js">
<polygon fill="#ffffcc" stroke="black" points="248.85,-287.07 247.35,-289.07 236.85,-289.07 235.35,-287.07 194.85,-287.07 194.85,-269.07 248.85,-269.07 248.85,-287.07"/>
<text text-anchor="start" x="204.35" y="-275.87" font-family="Helvetica,sans-Serif" font-size="9.00">index.js</text>
</a>
</g>
</g>
<!-- packages/music&#45;structure/melody/melody&#45;analyze/src/get&#45;time&#45;and&#45;melody.ts&#45;&gt;packages/util/time&#45;and/dist/index.js -->
<g id="edge15" class="edge">
<title>packages/music&#45;structure/melody/melody&#45;analyze/src/get&#45;time&#45;and&#45;melody.ts&#45;&gt;packages/util/time&#45;and/dist/index.js</title>
<path fill="none" stroke="#000000" stroke-width="2" stroke-opacity="0.200000" d="M163.16,-297.09C171.35,-294.44 180.39,-291.51 188.87,-288.76"/>
<polygon fill="#000000" fill-opacity="0.200000" stroke="#000000" stroke-width="2" stroke-opacity="0.200000" points="189.57,-290.74 194.63,-286.89 188.28,-286.74 189.57,-290.74"/>
</g>
<!-- packages/music&#45;structure/melody/melody&#45;analyze/src/melody&#45;analysis&#45;data.ts&#45;&gt;packages/music&#45;structure/melody/melody&#45;analyze/src/time&#45;and&#45;analyzed&#45;melody.ts -->
<g id="edge16" class="edge">
<title>packages/music&#45;structure/melody/melody&#45;analyze/src/melody&#45;analysis&#45;data.ts&#45;&gt;packages/music&#45;structure/melody/melody&#45;analyze/src/time&#45;and&#45;analyzed&#45;melody.ts</title>
<path fill="none" stroke="#000000" stroke-width="2" stroke-opacity="0.200000" d="M192.18,-28.99C210.1,-44.19 246.13,-74.74 266.7,-92.18"/>
<polygon fill="#000000" fill-opacity="0.200000" stroke="#000000" stroke-width="2" stroke-opacity="0.200000" points="265.39,-93.83 271.33,-96.11 268.11,-90.63 265.39,-93.83"/>
</g>
<!-- packages/music&#45;structure/melody/melody&#45;analyze/src/melody&#45;analysis.ts&#45;&gt;packages/cognitive&#45;theory&#45;of&#45;music/irm/dist/index.js -->
<g id="edge18" class="edge">
<title>packages/music&#45;structure/melody/melody&#45;analyze/src/melody&#45;analysis.ts&#45;&gt;packages/cognitive&#45;theory&#45;of&#45;music/irm/dist/index.js</title>
<path fill="none" stroke="#000000" stroke-width="2" stroke-opacity="0.200000" d="M401.07,-70C393.6,-58.19 380.52,-37.54 371.68,-23.57"/>
<polygon fill="#000000" fill-opacity="0.200000" stroke="#000000" stroke-width="2" stroke-opacity="0.200000" points="373.39,-22.35 368.4,-18.4 369.84,-24.59 373.39,-22.35"/>
</g>
<!-- packages/music&#45;structure/melody/melody&#45;analyze/src/gravity.ts -->
<g id="node15" class="node">
<title>packages/music&#45;structure/melody/melody&#45;analyze/src/gravity.ts</title>
<g id="a_node15"><a xlink:href="packages/music-structure/melody/melody-analyze/src/gravity.ts" xlink:title="gravity.ts">
<path fill="#ddfeff" stroke="black" d="M560.54,-76.02C560.54,-76.02 514.54,-76.02 514.54,-76.02 511.54,-76.02 508.54,-73.02 508.54,-70.02 508.54,-70.02 508.54,-64.02 508.54,-64.02 508.54,-61.02 511.54,-58.02 514.54,-58.02 514.54,-58.02 560.54,-58.02 560.54,-58.02 563.54,-58.02 566.54,-61.02 566.54,-64.02 566.54,-64.02 566.54,-70.02 566.54,-70.02 566.54,-73.02 563.54,-76.02 560.54,-76.02"/>
<text text-anchor="start" x="516.54" y="-64.82" font-family="Helvetica,sans-Serif" font-size="9.00">gravity.ts</text>
</a>
</g>
</g>
<!-- packages/music&#45;structure/melody/melody&#45;analyze/src/melody&#45;analysis.ts&#45;&gt;packages/music&#45;structure/melody/melody&#45;analyze/src/gravity.ts -->
<g id="edge17" class="edge">
<title>packages/music&#45;structure/melody/melody&#45;analyze/src/melody&#45;analysis.ts&#45;&gt;packages/music&#45;structure/melody/melody&#45;analyze/src/gravity.ts</title>
<path fill="none" stroke="#000000" stroke-width="2" stroke-opacity="0.200000" d="M456.65,-74.55C471.79,-73.14 488.11,-71.62 502.09,-70.32"/>
<polygon fill="#000000" fill-opacity="0.200000" stroke="#000000" stroke-width="2" stroke-opacity="0.200000" points="502.56,-72.38 508.34,-69.74 502.18,-68.2 502.56,-72.38"/>
</g>
<!-- packages/music&#45;structure/melody/melody&#45;analyze/src/register&#45;gravity.ts&#45;&gt;packages/tonal&#45;objects/dist/index.js -->
<g id="edge21" class="edge">
<title>packages/music&#45;structure/melody/melody&#45;analyze/src/register&#45;gravity.ts&#45;&gt;packages/tonal&#45;objects/dist/index.js</title>
<path fill="none" stroke="#000000" stroke-width="2" stroke-opacity="0.200000" d="M480.81,-199.71C471.33,-215.02 452.13,-246.04 440.8,-264.35"/>
<polygon fill="#000000" fill-opacity="0.200000" stroke="#000000" stroke-width="2" stroke-opacity="0.200000" points="438.93,-263.38 437.55,-269.59 442.5,-265.59 438.93,-263.38"/>
</g>
<!-- packages/music&#45;structure/melody/melody&#45;analyze/src/register&#45;gravity.ts&#45;&gt;packages/music&#45;structure/melody/melody&#45;analyze/src/gravity.ts -->
<g id="edge19" class="edge">
<title>packages/music&#45;structure/melody/melody&#45;analyze/src/register&#45;gravity.ts&#45;&gt;packages/music&#45;structure/melody/melody&#45;analyze/src/gravity.ts</title>
<path fill="none" stroke="#000000" stroke-width="2" stroke-opacity="0.200000" d="M490.29,-181.32C499.1,-160.01 520.82,-107.48 531.46,-81.73"/>
<polygon fill="#000000" fill-opacity="0.200000" stroke="#000000" stroke-width="2" stroke-opacity="0.200000" points="533.45,-82.43 533.8,-76.08 529.56,-80.83 533.45,-82.43"/>
</g>
<!-- packages/util/math/dist/index.js -->
<g id="node16" class="node">
<title>packages/util/math/dist/index.js</title>
<g id="a_node16"><a xlink:href="packages/util/math/dist/index.js" xlink:title="index.js">
<polygon fill="#ffffcc" stroke="black" points="636.1,-261.93 634.6,-263.93 624.1,-263.93 622.6,-261.93 582.1,-261.93 582.1,-243.93 636.1,-243.93 636.1,-261.93"/>
<text text-anchor="start" x="591.6" y="-250.73" font-family="Helvetica,sans-Serif" font-size="9.00">index.js</text>
</a>
</g>
</g>
<!-- packages/music&#45;structure/melody/melody&#45;analyze/src/register&#45;gravity.ts&#45;&gt;packages/util/math/dist/index.js -->
<g id="edge20" class="edge">
<title>packages/music&#45;structure/melody/melody&#45;analyze/src/register&#45;gravity.ts&#45;&gt;packages/util/math/dist/index.js</title>
<path fill="none" stroke="#000000" stroke-width="2" stroke-opacity="0.200000" d="M504.28,-199.67C525.81,-210.61 562.07,-229.04 585.8,-241.09"/>
<polygon fill="#000000" fill-opacity="0.200000" stroke="#000000" stroke-width="2" stroke-opacity="0.200000" points="584.95,-243.01 591.25,-243.86 586.85,-239.27 584.95,-243.01"/>
</g>
<!-- packages/music&#45;structure/melody/melody&#45;analyze/src/time&#45;and&#45;analyzed&#45;melody.ts&#45;&gt;packages/music&#45;structure/melody/melody&#45;analyze/src/melody&#45;analysis.ts -->
<g id="edge22" class="edge">
<title>packages/music&#45;structure/melody/melody&#45;analyze/src/time&#45;and&#45;analyzed&#45;melody.ts&#45;&gt;packages/music&#45;structure/melody/melody&#45;analyze/src/melody&#45;analysis.ts</title>
<path fill="none" stroke="#000000" stroke-width="2" stroke-opacity="0.200000" d="M325.34,-96.16C335.8,-93.98 347.05,-91.63 357.76,-89.41"/>
<polygon fill="#000000" fill-opacity="0.200000" stroke="#000000" stroke-width="2" stroke-opacity="0.200000" points="358.19,-91.46 363.64,-88.18 357.34,-87.35 358.19,-91.46"/>
</g>
<!-- packages/music&#45;structure/melody/melody&#45;analyze/src/time&#45;and&#45;analyzed&#45;melody.ts&#45;&gt;packages/util/time&#45;and/dist/index.js -->
<g id="edge23" class="edge">
<title>packages/music&#45;structure/melody/melody&#45;analyze/src/time&#45;and&#45;analyzed&#45;melody.ts&#45;&gt;packages/util/time&#45;and/dist/index.js</title>
<path fill="none" stroke="#000000" stroke-width="2" stroke-opacity="0.200000" d="M278.78,-114.47C268.95,-142.73 239.33,-227.83 227.16,-262.8"/>
<polygon fill="#000000" fill-opacity="0.200000" stroke="#000000" stroke-width="2" stroke-opacity="0.200000" points="225.09,-262.37 225.1,-268.73 229.06,-263.75 225.09,-262.37"/>
</g>
<!-- packages/music&#45;structure/melody/melody&#45;analyze/src/time&#45;and&#45;melody.ts&#45;&gt;packages/util/time&#45;and/dist/index.js -->
<g id="edge24" class="edge">
<title>packages/music&#45;structure/melody/melody&#45;analyze/src/time&#45;and&#45;melody.ts&#45;&gt;packages/util/time&#45;and/dist/index.js</title>
<path fill="none" stroke="#000000" stroke-width="2" stroke-opacity="0.200000" d="M281.64,-323.21C269.88,-314.33 251.99,-300.82 238.84,-290.9"/>
<polygon fill="#000000" fill-opacity="0.200000" stroke="#000000" stroke-width="2" stroke-opacity="0.200000" points="239.94,-289.09 233.88,-287.15 237.41,-292.44 239.94,-289.09"/>
</g>
</g>
</svg>
