<?xml version="1.0" encoding="UTF-8" standalone="no"?>
<!DOCTYPE svg PUBLIC "-//W3C//DTD SVG 1.1//EN"
 "http://www.w3.org/Graphics/SVG/1.1/DTD/svg11.dtd">
<!-- Generated by graphviz version 2.43.0 (0)
 -->
<!-- Title: dependency&#45;cruiser output Pages: 1 -->
<svg width="130pt" height="94pt"
 viewBox="0.00 0.00 129.93 93.87" xmlns="http://www.w3.org/2000/svg" xmlns:xlink="http://www.w3.org/1999/xlink">
<g id="graph0" class="graph" transform="scale(1 1) rotate(0) translate(4 89.87)">
<title>dependency&#45;cruiser output</title>
<polygon fill="white" stroke="transparent" points="-4,4 -4,-89.87 125.93,-89.87 125.93,4 -4,4"/>
<g id="clust1" class="cluster">
<title>cluster_node_modules</title>
<path fill="#ffffff" stroke="black" stroke-width="2" d="M68.55,0C68.55,0 110.55,0 110.55,0 113.55,0 116.55,-3 116.55,-6 116.55,-6 116.55,-12 116.55,-12 116.55,-15 113.55,-18 110.55,-18 110.55,-18 68.55,-18 68.55,-18 65.55,-18 62.55,-15 62.55,-12 62.55,-12 62.55,-6 62.55,-6 62.55,-3 65.55,0 68.55,0"/>
<text text-anchor="middle" x="89.55" y="-6.8" font-family="Helvetica,sans-Serif" font-weight="bold" font-size="9.00">node_modules</text>
</g>
<g id="clust2" class="cluster">
<title>cluster_packages</title>
<path fill="#ffffff" stroke="black" stroke-width="2" d="M17.92,-33.77C17.92,-33.77 109.93,-33.77 109.93,-33.77 115.93,-33.77 121.93,-39.77 121.93,-45.77 121.93,-45.77 121.93,-73.87 121.93,-73.87 121.93,-79.87 115.93,-85.87 109.93,-85.87 109.93,-85.87 17.92,-85.87 17.92,-85.87 11.92,-85.87 5.92,-79.87 5.92,-73.87 5.92,-73.87 5.92,-45.77 5.92,-45.77 5.92,-39.77 11.92,-33.77 17.92,-33.77"/>
<text text-anchor="middle" x="63.92" y="-74.67" font-family="Helvetica,sans-Serif" font-weight="bold" font-size="9.00">packages</text>
</g>
<!-- fs -->
<g id="node1" class="node">
<title>fs</title>
<g id="a_node1"><a xlink:href="https://nodejs.org/api/fs.html" xlink:title="fs">
<path fill="#ffffcc" stroke="grey" d="M48,-23.65C48,-23.65 6,-23.65 6,-23.65 3,-23.65 0,-20.65 0,-17.65 0,-17.65 0,-11.65 0,-11.65 0,-8.65 3,-5.65 6,-5.65 6,-5.65 48,-5.65 48,-5.65 51,-5.65 54,-8.65 54,-11.65 54,-11.65 54,-17.65 54,-17.65 54,-20.65 51,-23.65 48,-23.65"/>
<text text-anchor="middle" x="27" y="-12.45" font-family="Helvetica,sans-Serif" font-size="9.00" fill="grey">fs</text>
</a>
</g>
</g>
<!-- node_modules/yargs -->
<g id="node2" class="node">
<title>node_modules/yargs</title>
<g id="a_node2"><a xlink:href="https://www.npmjs.com/package/yargs" xlink:title="yargs">
<polygon fill="#c40b0a" fill-opacity="0.101961" stroke="black" points="116.55,-18 64.55,-18 62.55,-16 62.55,0 114.55,0 116.55,-2 116.55,-18"/>
<polyline fill="none" stroke="black" points="114.55,-16 62.55,-16 "/>
<polyline fill="none" stroke="black" points="114.55,-16 114.55,0 "/>
<polyline fill="none" stroke="black" points="114.55,-16 116.55,-18 "/>
<text text-anchor="start" x="77.05" y="-6.8" font-family="Helvetica,sans-Serif" font-size="9.00" fill="#c40b0a">yargs</text>
</a>
</g>
</g>
<!-- packages/cli/melody&#45;analyze&#45;cli/index.ts -->
<g id="node3" class="node">
<title>packages/cli/melody&#45;analyze&#45;cli/index.ts</title>
<g id="a_node3"><a xlink:href="packages/cli/melody-analyze-cli/index.ts" xlink:title="index.ts">
<path fill="#ddfeff" stroke="black" d="M82.08,-51.77C82.08,-51.77 40.08,-51.77 40.08,-51.77 37.08,-51.77 34.08,-48.77 34.08,-45.77 34.08,-45.77 34.08,-39.77 34.08,-39.77 34.08,-36.77 37.08,-33.77 40.08,-33.77 40.08,-33.77 82.08,-33.77 82.08,-33.77 85.08,-33.77 88.08,-36.77 88.08,-39.77 88.08,-39.77 88.08,-45.77 88.08,-45.77 88.08,-48.77 85.08,-51.77 82.08,-51.77"/>
<text text-anchor="start" x="42.58" y="-40.57" font-family="Helvetica,sans-Serif" font-size="9.00">index.ts</text>
</a>
</g>
</g>
<!-- packages/cli/melody&#45;analyze&#45;cli/index.ts&#45;&gt;fs -->
<g id="edge3" class="edge">
<title>packages/cli/melody&#45;analyze&#45;cli/index.ts&#45;&gt;fs</title>
<path fill="none" stroke="#000000" stroke-dasharray="5,2" stroke-opacity="0.200000" d="M49.92,-33.56C47.71,-31.74 45.34,-29.79 43,-27.86"/>
<polygon fill="#000000" fill-opacity="0.200000" stroke="#000000" stroke-opacity="0.200000" points="44.26,-26.17 38.3,-23.97 41.59,-29.41 44.26,-26.17"/>
</g>
<!-- packages/cli/melody&#45;analyze&#45;cli/index.ts&#45;&gt;node_modules/yargs -->
<g id="edge4" class="edge">
<title>packages/cli/melody&#45;analyze&#45;cli/index.ts&#45;&gt;node_modules/yargs</title>
<path fill="none" stroke="#000000" stroke-opacity="0.200000" d="M68.86,-33.55C71.58,-30.32 74.69,-26.63 77.67,-23.1"/>
<polygon fill="#000000" fill-opacity="0.200000" stroke="#000000" stroke-opacity="0.200000" points="79.32,-24.39 81.58,-18.45 76.11,-21.69 79.32,-24.39"/>
</g>
<!-- packages/music&#45;structure/chord/chord&#45;analyze/dist/index.js -->
<g id="node4" class="node">
<title>packages/music&#45;structure/chord/chord&#45;analyze/dist/index.js</title>
<g id="a_node4"><a xlink:href="packages/music-structure/chord/chord-analyze/dist/index.js" xlink:title="index.js">
<polygon fill="#ffffcc" stroke="black" points="59.92,-85.87 58.42,-87.87 47.92,-87.87 46.42,-85.87 5.92,-85.87 5.92,-67.87 59.92,-67.87 59.92,-85.87"/>
<text text-anchor="start" x="15.42" y="-74.67" font-family="Helvetica,sans-Serif" font-size="9.00">index.js</text>
</a>
</g>
</g>
<!-- packages/cli/melody&#45;analyze&#45;cli/index.ts&#45;&gt;packages/music&#45;structure/chord/chord&#45;analyze/dist/index.js -->
<g id="edge1" class="edge">
<title>packages/cli/melody&#45;analyze&#45;cli/index.ts&#45;&gt;packages/music&#45;structure/chord/chord&#45;analyze/dist/index.js</title>
<path fill="none" stroke="#000000" stroke-width="2" stroke-opacity="0.200000" d="M53.38,-52.09C50.61,-55.45 47.41,-59.33 44.38,-62.99"/>
<polygon fill="#000000" fill-opacity="0.200000" stroke="#000000" stroke-width="2" stroke-opacity="0.200000" points="42.61,-61.84 40.41,-67.8 45.85,-64.51 42.61,-61.84"/>
</g>
<!-- packages/music&#45;structure/melody/melody&#45;analyze/dist/index.js -->
<g id="node5" class="node">
<title>packages/music&#45;structure/melody/melody&#45;analyze/dist/index.js</title>
<g id="a_node5"><a xlink:href="packages/music-structure/melody/melody-analyze/dist/index.js" xlink:title="index.js">
<polygon fill="#ffffcc" stroke="black" points="121.93,-80.22 120.43,-82.22 109.93,-82.22 108.43,-80.22 67.93,-80.22 67.93,-62.22 121.93,-62.22 121.93,-80.22"/>
<text text-anchor="start" x="77.43" y="-69.02" font-family="Helvetica,sans-Serif" font-size="9.00">index.js</text>
</a>
</g>
</g>
<!-- packages/cli/melody&#45;analyze&#45;cli/index.ts&#45;&gt;packages/music&#45;structure/melody/melody&#45;analyze/dist/index.js -->
<g id="edge2" class="edge">
<title>packages/cli/melody&#45;analyze&#45;cli/index.ts&#45;&gt;packages/music&#45;structure/melody/melody&#45;analyze/dist/index.js</title>
<path fill="none" stroke="#000000" stroke-width="2" stroke-opacity="0.200000" d="M71.79,-51.78C74.09,-53.71 76.56,-55.79 79.01,-57.85"/>
<polygon fill="#000000" fill-opacity="0.200000" stroke="#000000" stroke-width="2" stroke-opacity="0.200000" points="77.99,-59.73 83.94,-61.99 80.69,-56.52 77.99,-59.73"/>
</g>
</g>
</svg>
