<?xml version="1.0" encoding="UTF-8" standalone="no"?>
<!DOCTYPE svg PUBLIC "-//W3C//DTD SVG 1.1//EN"
 "http://www.w3.org/Graphics/SVG/1.1/DTD/svg11.dtd">
<!-- Generated by graphviz version 2.43.0 (0)
 -->
<!-- Title: dependency&#45;cruiser output Pages: 1 -->
<svg width="316pt" height="426pt"
 viewBox="0.00 0.00 316.00 426.00" xmlns="http://www.w3.org/2000/svg" xmlns:xlink="http://www.w3.org/1999/xlink">
<g id="graph0" class="graph" transform="scale(1 1) rotate(0) translate(4 422)">
<title>dependency&#45;cruiser output</title>
<polygon fill="white" stroke="transparent" points="-4,4 -4,-422 312,-422 312,4 -4,4"/>
<g id="clust1" class="cluster">
<title>cluster_node_modules</title>
<path fill="#ffffff" stroke="black" stroke-width="2" d="M200,-8C200,-8 266,-8 266,-8 272,-8 278,-14 278,-20 278,-20 278,-48 278,-48 278,-54 272,-60 266,-60 266,-60 200,-60 200,-60 194,-60 188,-54 188,-48 188,-48 188,-20 188,-20 188,-14 194,-8 200,-8"/>
<text text-anchor="middle" x="233" y="-48.8" font-family="Helvetica,sans-Serif" font-weight="bold" font-size="9.00">node_modules</text>
</g>
<g id="clust2" class="cluster">
<title>cluster_packages</title>
<path fill="#ffffff" stroke="black" stroke-width="2" d="M12,-94C12,-94 294,-94 294,-94 300,-94 306,-100 306,-106 306,-106 306,-398 306,-398 306,-404 300,-410 294,-410 294,-410 12,-410 12,-410 6,-410 0,-404 0,-398 0,-398 0,-106 0,-106 0,-100 6,-94 12,-94"/>
<text text-anchor="middle" x="153" y="-398.8" font-family="Helvetica,sans-Serif" font-weight="bold" font-size="9.00">packages</text>
</g>
<g id="clust3" class="cluster">
<title>cluster_packages/cli</title>
<path fill="#ffffff" stroke="black" stroke-width="2" d="M20,-110C20,-110 124,-110 124,-110 130,-110 136,-116 136,-122 136,-122 136,-184 136,-184 136,-190 130,-196 124,-196 124,-196 20,-196 20,-196 14,-196 8,-190 8,-184 8,-184 8,-122 8,-122 8,-116 14,-110 20,-110"/>
<text text-anchor="middle" x="72" y="-184.8" font-family="Helvetica,sans-Serif" font-weight="bold" font-size="9.00">cli</text>
</g>
<g id="clust4" class="cluster">
<title>cluster_packages/cli/melody&#45;analyze&#45;cli</title>
<path fill="#ffffff" stroke="black" stroke-width="2" d="M28,-118C28,-118 116,-118 116,-118 122,-118 128,-124 128,-130 128,-130 128,-158 128,-158 128,-164 122,-170 116,-170 116,-170 28,-170 28,-170 22,-170 16,-164 16,-158 16,-158 16,-130 16,-130 16,-124 22,-118 28,-118"/>
<text text-anchor="middle" x="72" y="-158.8" font-family="Helvetica,sans-Serif" font-weight="bold" font-size="9.00">melody&#45;analyze&#45;cli</text>
</g>
<g id="clust5" class="cluster">
<title>cluster_packages/music&#45;structure</title>
<path fill="#ffffff" stroke="black" stroke-width="2" d="M181,-102C181,-102 286,-102 286,-102 292,-102 298,-108 298,-114 298,-114 298,-372 298,-372 298,-378 292,-384 286,-384 286,-384 181,-384 181,-384 175,-384 169,-378 169,-372 169,-372 169,-114 169,-114 169,-108 175,-102 181,-102"/>
<text text-anchor="middle" x="233.5" y="-372.8" font-family="Helvetica,sans-Serif" font-weight="bold" font-size="9.00">music&#45;structure</text>
</g>
<g id="clust6" class="cluster">
<title>cluster_packages/music&#45;structure/chord</title>
<path fill="#ffffff" stroke="black" stroke-width="2" d="M193,-238C193,-238 274,-238 274,-238 280,-238 286,-244 286,-250 286,-250 286,-346 286,-346 286,-352 280,-358 274,-358 274,-358 193,-358 193,-358 187,-358 181,-352 181,-346 181,-346 181,-250 181,-250 181,-244 187,-238 193,-238"/>
<text text-anchor="middle" x="233.5" y="-346.8" font-family="Helvetica,sans-Serif" font-weight="bold" font-size="9.00">chord</text>
</g>
<g id="clust7" class="cluster">
<title>cluster_packages/music&#45;structure/chord/chord&#45;analyze</title>
<path fill="#ffffff" stroke="black" stroke-width="2" d="M201,-246C201,-246 266,-246 266,-246 272,-246 278,-252 278,-258 278,-258 278,-320 278,-320 278,-326 272,-332 266,-332 266,-332 201,-332 201,-332 195,-332 189,-326 189,-320 189,-320 189,-258 189,-258 189,-252 195,-246 201,-246"/>
<text text-anchor="middle" x="233.5" y="-320.8" font-family="Helvetica,sans-Serif" font-weight="bold" font-size="9.00">chord&#45;analyze</text>
</g>
<g id="clust8" class="cluster">
<title>cluster_packages/music&#45;structure/chord/chord&#45;analyze/dist</title>
<path fill="#ffffff" stroke="black" stroke-width="2" d="M210,-254C210,-254 256,-254 256,-254 262,-254 268,-260 268,-266 268,-266 268,-294 268,-294 268,-300 262,-306 256,-306 256,-306 210,-306 210,-306 204,-306 198,-300 198,-294 198,-294 198,-266 198,-266 198,-260 204,-254 210,-254"/>
<text text-anchor="middle" x="233" y="-294.8" font-family="Helvetica,sans-Serif" font-weight="bold" font-size="9.00">dist</text>
</g>
<g id="clust9" class="cluster">
<title>cluster_packages/music&#45;structure/melody</title>
<path fill="#ffffff" stroke="black" stroke-width="2" d="M189,-110C189,-110 278,-110 278,-110 284,-110 290,-116 290,-122 290,-122 290,-218 290,-218 290,-224 284,-230 278,-230 278,-230 189,-230 189,-230 183,-230 177,-224 177,-218 177,-218 177,-122 177,-122 177,-116 183,-110 189,-110"/>
<text text-anchor="middle" x="233.5" y="-218.8" font-family="Helvetica,sans-Serif" font-weight="bold" font-size="9.00">melody</text>
</g>
<g id="clust10" class="cluster">
<title>cluster_packages/music&#45;structure/melody/melody&#45;analyze</title>
<path fill="#ffffff" stroke="black" stroke-width="2" d="M197,-118C197,-118 270,-118 270,-118 276,-118 282,-124 282,-130 282,-130 282,-192 282,-192 282,-198 276,-204 270,-204 270,-204 197,-204 197,-204 191,-204 185,-198 185,-192 185,-192 185,-130 185,-130 185,-124 191,-118 197,-118"/>
<text text-anchor="middle" x="233.5" y="-192.8" font-family="Helvetica,sans-Serif" font-weight="bold" font-size="9.00">melody&#45;analyze</text>
</g>
<g id="clust11" class="cluster">
<title>cluster_packages/music&#45;structure/melody/melody&#45;analyze/dist</title>
<path fill="#ffffff" stroke="black" stroke-width="2" d="M210,-126C210,-126 256,-126 256,-126 262,-126 268,-132 268,-138 268,-138 268,-166 268,-166 268,-172 262,-178 256,-178 256,-178 210,-178 210,-178 204,-178 198,-172 198,-166 198,-166 198,-138 198,-138 198,-132 204,-126 210,-126"/>
<text text-anchor="middle" x="233" y="-166.8" font-family="Helvetica,sans-Serif" font-weight="bold" font-size="9.00">dist</text>
</g>
<!-- fs -->
<g id="node1" class="node">
<title>fs</title>
<g id="a_node1"><a xlink:href="https://nodejs.org/api/fs.html" xlink:title="fs">
<path fill="#ffffcc" stroke="grey" d="M254,-86C254,-86 212,-86 212,-86 209,-86 206,-83 206,-80 206,-80 206,-74 206,-74 206,-71 209,-68 212,-68 212,-68 254,-68 254,-68 257,-68 260,-71 260,-74 260,-74 260,-80 260,-80 260,-83 257,-86 254,-86"/>
<text text-anchor="middle" x="233" y="-74.8" font-family="Helvetica,sans-Serif" font-size="9.00" fill="grey">fs</text>
</a>
</g>
</g>
<!-- node_modules/yargs -->
<g id="node2" class="node">
<title>node_modules/yargs</title>
<g id="a_node2"><a xlink:href="https://www.npmjs.com/package/yargs" xlink:title="yargs">
<polygon fill="#c40b0a" fill-opacity="0.101961" stroke="black" points="260,-34 208,-34 206,-32 206,-16 258,-16 260,-18 260,-34"/>
<polyline fill="none" stroke="black" points="258,-32 206,-32 "/>
<polyline fill="none" stroke="black" points="258,-32 258,-16 "/>
<polyline fill="none" stroke="black" points="258,-32 260,-34 "/>
<text text-anchor="start" x="220.5" y="-22.8" font-family="Helvetica,sans-Serif" font-size="9.00" fill="#c40b0a">yargs</text>
</a>
</g>
</g>
<!-- packages/cli/melody&#45;analyze&#45;cli/index.ts -->
<g id="node3" class="node">
<title>packages/cli/melody&#45;analyze&#45;cli/index.ts</title>
<g id="a_node3"><a xlink:href="packages/cli/melody-analyze-cli/index.ts" xlink:title="index.ts">
<path fill="#ddfeff" stroke="black" d="M93,-144C93,-144 51,-144 51,-144 48,-144 45,-141 45,-138 45,-138 45,-132 45,-132 45,-129 48,-126 51,-126 51,-126 93,-126 93,-126 96,-126 99,-129 99,-132 99,-132 99,-138 99,-138 99,-141 96,-144 93,-144"/>
<text text-anchor="start" x="53.5" y="-132.8" font-family="Helvetica,sans-Serif" font-size="9.00">index.ts</text>
</a>
</g>
</g>
<!-- packages/cli/melody&#45;analyze&#45;cli/index.ts&#45;&gt;fs -->
<g id="edge3" class="edge">
<title>packages/cli/melody&#45;analyze&#45;cli/index.ts&#45;&gt;fs</title>
<path fill="none" stroke="#000000" stroke-dasharray="5,2" stroke-opacity="0.200000" d="M97.84,-125.94C125.77,-115.75 171.12,-99.21 201.25,-88.22"/>
<polygon fill="#000000" fill-opacity="0.200000" stroke="#000000" stroke-opacity="0.200000" points="202.15,-90.12 207.07,-86.09 200.71,-86.18 202.15,-90.12"/>
</g>
<!-- packages/cli/melody&#45;analyze&#45;cli/index.ts&#45;&gt;node_modules/yargs -->
<g id="edge4" class="edge">
<title>packages/cli/melody&#45;analyze&#45;cli/index.ts&#45;&gt;node_modules/yargs</title>
<path fill="none" stroke="#000000" stroke-opacity="0.200000" d="M84.2,-125.78C101.79,-111.47 137.17,-83.34 169,-62 182.25,-53.12 197.68,-44.04 209.96,-37.09"/>
<polygon fill="#000000" fill-opacity="0.200000" stroke="#000000" stroke-opacity="0.200000" points="211.15,-38.83 215.35,-34.06 209.09,-35.17 211.15,-38.83"/>
</g>
<!-- packages/music&#45;structure/chord/chord&#45;analyze/dist/index.js -->
<g id="node4" class="node">
<title>packages/music&#45;structure/chord/chord&#45;analyze/dist/index.js</title>
<g id="a_node4"><a xlink:href="packages/music-structure/chord/chord-analyze/dist/index.js" xlink:title="index.js">
<polygon fill="#ffffcc" stroke="black" points="260,-280 258.5,-282 248,-282 246.5,-280 206,-280 206,-262 260,-262 260,-280"/>
<text text-anchor="start" x="215.5" y="-268.8" font-family="Helvetica,sans-Serif" font-size="9.00">index.js</text>
</a>
</g>
</g>
<!-- packages/cli/melody&#45;analyze&#45;cli/index.ts&#45;&gt;packages/music&#45;structure/chord/chord&#45;analyze/dist/index.js -->
<g id="edge1" class="edge">
<title>packages/cli/melody&#45;analyze&#45;cli/index.ts&#45;&gt;packages/music&#45;structure/chord/chord&#45;analyze/dist/index.js</title>
<path fill="none" stroke="#000000" stroke-width="2" stroke-opacity="0.200000" d="M83.68,-144.13C111.17,-167.65 184.48,-230.36 216.58,-257.81"/>
<polygon fill="#000000" fill-opacity="0.200000" stroke="#000000" stroke-width="2" stroke-opacity="0.200000" points="215.44,-259.6 221.37,-261.91 218.17,-256.41 215.44,-259.6"/>
</g>
<!-- packages/music&#45;structure/melody/melody&#45;analyze/dist/index.js -->
<g id="node5" class="node">
<title>packages/music&#45;structure/melody/melody&#45;analyze/dist/index.js</title>
<g id="a_node5"><a xlink:href="packages/music-structure/melody/melody-analyze/dist/index.js" xlink:title="index.js">
<polygon fill="#ffffcc" stroke="black" points="260,-152 258.5,-154 248,-154 246.5,-152 206,-152 206,-134 260,-134 260,-152"/>
<text text-anchor="start" x="215.5" y="-140.8" font-family="Helvetica,sans-Serif" font-size="9.00">index.js</text>
</a>
</g>
</g>
<!-- packages/cli/melody&#45;analyze&#45;cli/index.ts&#45;&gt;packages/music&#45;structure/melody/melody&#45;analyze/dist/index.js -->
<g id="edge2" class="edge">
<title>packages/cli/melody&#45;analyze&#45;cli/index.ts&#45;&gt;packages/music&#45;structure/melody/melody&#45;analyze/dist/index.js</title>
<path fill="none" stroke="#000000" stroke-width="2" stroke-opacity="0.200000" d="M99.26,-136.32C126.84,-137.71 170.26,-139.89 199.87,-141.38"/>
<polygon fill="#000000" fill-opacity="0.200000" stroke="#000000" stroke-width="2" stroke-opacity="0.200000" points="199.87,-143.49 205.97,-141.69 200.08,-139.29 199.87,-143.49"/>
</g>
</g>
</svg>
