<?xml version="1.0" encoding="UTF-8" standalone="no"?>
<!DOCTYPE svg PUBLIC "-//W3C//DTD SVG 1.1//EN"
 "http://www.w3.org/Graphics/SVG/1.1/DTD/svg11.dtd">
<!-- Generated by graphviz version 2.43.0 (0)
 -->
<!-- Title: dependency&#45;cruiser output Pages: 1 -->
<svg width="370pt" height="426pt"
 viewBox="0.00 0.00 370.00 426.00" xmlns="http://www.w3.org/2000/svg" xmlns:xlink="http://www.w3.org/1999/xlink">
<g id="graph0" class="graph" transform="scale(1 1) rotate(0) translate(4 422)">
<title>dependency&#45;cruiser output</title>
<polygon fill="white" stroke="transparent" points="-4,4 -4,-422 366,-422 366,4 -4,4"/>
<g id="clust1" class="cluster">
<title>cluster_node_modules</title>
<path fill="#ffffff" stroke="black" stroke-width="2" d="M106,-8C106,-8 172,-8 172,-8 178,-8 184,-14 184,-20 184,-20 184,-48 184,-48 184,-54 178,-60 172,-60 172,-60 106,-60 106,-60 100,-60 94,-54 94,-48 94,-48 94,-20 94,-20 94,-14 100,-8 106,-8"/>
<text text-anchor="middle" x="139" y="-48.8" font-family="Helvetica,sans-Serif" font-weight="bold" font-size="9.00">node_modules</text>
</g>
<g id="clust2" class="cluster">
<title>cluster_packages</title>
<path fill="#ffffff" stroke="black" stroke-width="2" d="M20,-94C20,-94 348,-94 348,-94 354,-94 360,-100 360,-106 360,-106 360,-398 360,-398 360,-404 354,-410 348,-410 348,-410 20,-410 20,-410 14,-410 8,-404 8,-398 8,-398 8,-106 8,-106 8,-100 14,-94 20,-94"/>
<text text-anchor="middle" x="184" y="-398.8" font-family="Helvetica,sans-Serif" font-weight="bold" font-size="9.00">packages</text>
</g>
<g id="clust3" class="cluster">
<title>cluster_packages/cli</title>
<path fill="#ffffff" stroke="black" stroke-width="2" d="M28,-102C28,-102 186,-102 186,-102 192,-102 198,-108 198,-114 198,-114 198,-244 198,-244 198,-250 192,-256 186,-256 186,-256 28,-256 28,-256 22,-256 16,-250 16,-244 16,-244 16,-114 16,-114 16,-108 22,-102 28,-102"/>
<text text-anchor="middle" x="107" y="-244.8" font-family="Helvetica,sans-Serif" font-weight="bold" font-size="9.00">cli</text>
</g>
<g id="clust4" class="cluster">
<title>cluster_packages/cli/melody&#45;analyze&#45;cli</title>
<path fill="#ffffff" stroke="black" stroke-width="2" d="M36,-110C36,-110 178,-110 178,-110 184,-110 190,-116 190,-122 190,-122 190,-218 190,-218 190,-224 184,-230 178,-230 178,-230 36,-230 36,-230 30,-230 24,-224 24,-218 24,-218 24,-122 24,-122 24,-116 30,-110 36,-110"/>
<text text-anchor="middle" x="107" y="-218.8" font-family="Helvetica,sans-Serif" font-weight="bold" font-size="9.00">melody&#45;analyze&#45;cli</text>
</g>
<g id="clust5" class="cluster">
<title>cluster_packages/cli/melody&#45;analyze&#45;cli/src</title>
<path fill="#ffffff" stroke="black" stroke-width="2" d="M108,-118C108,-118 170,-118 170,-118 176,-118 182,-124 182,-130 182,-130 182,-192 182,-192 182,-198 176,-204 170,-204 170,-204 108,-204 108,-204 102,-204 96,-198 96,-192 96,-192 96,-130 96,-130 96,-124 102,-118 108,-118"/>
<text text-anchor="middle" x="139" y="-192.8" font-family="Helvetica,sans-Serif" font-weight="bold" font-size="9.00">src</text>
</g>
<g id="clust6" class="cluster">
<title>cluster_packages/cli/melody&#45;analyze&#45;cli/src/facade</title>
<path fill="#ffffff" stroke="black" stroke-width="2" d="M116,-126C116,-126 162,-126 162,-126 168,-126 174,-132 174,-138 174,-138 174,-166 174,-166 174,-172 168,-178 162,-178 162,-178 116,-178 116,-178 110,-178 104,-172 104,-166 104,-166 104,-138 104,-138 104,-132 110,-126 116,-126"/>
<text text-anchor="middle" x="139" y="-166.8" font-family="Helvetica,sans-Serif" font-weight="bold" font-size="9.00">facade</text>
</g>
<g id="clust7" class="cluster">
<title>cluster_packages/music&#45;structure</title>
<path fill="#ffffff" stroke="black" stroke-width="2" d="M235,-102C235,-102 340,-102 340,-102 346,-102 352,-108 352,-114 352,-114 352,-372 352,-372 352,-378 346,-384 340,-384 340,-384 235,-384 235,-384 229,-384 223,-378 223,-372 223,-372 223,-114 223,-114 223,-108 229,-102 235,-102"/>
<text text-anchor="middle" x="287.5" y="-372.8" font-family="Helvetica,sans-Serif" font-weight="bold" font-size="9.00">music&#45;structure</text>
</g>
<g id="clust8" class="cluster">
<title>cluster_packages/music&#45;structure/chord</title>
<path fill="#ffffff" stroke="black" stroke-width="2" d="M247,-238C247,-238 328,-238 328,-238 334,-238 340,-244 340,-250 340,-250 340,-346 340,-346 340,-352 334,-358 328,-358 328,-358 247,-358 247,-358 241,-358 235,-352 235,-346 235,-346 235,-250 235,-250 235,-244 241,-238 247,-238"/>
<text text-anchor="middle" x="287.5" y="-346.8" font-family="Helvetica,sans-Serif" font-weight="bold" font-size="9.00">chord</text>
</g>
<g id="clust9" class="cluster">
<title>cluster_packages/music&#45;structure/chord/chord&#45;analyze</title>
<path fill="#ffffff" stroke="black" stroke-width="2" d="M255,-246C255,-246 320,-246 320,-246 326,-246 332,-252 332,-258 332,-258 332,-320 332,-320 332,-326 326,-332 320,-332 320,-332 255,-332 255,-332 249,-332 243,-326 243,-320 243,-320 243,-258 243,-258 243,-252 249,-246 255,-246"/>
<text text-anchor="middle" x="287.5" y="-320.8" font-family="Helvetica,sans-Serif" font-weight="bold" font-size="9.00">chord&#45;analyze</text>
</g>
<g id="clust10" class="cluster">
<title>cluster_packages/music&#45;structure/chord/chord&#45;analyze/dist</title>
<path fill="#ffffff" stroke="black" stroke-width="2" d="M264,-254C264,-254 310,-254 310,-254 316,-254 322,-260 322,-266 322,-266 322,-294 322,-294 322,-300 316,-306 310,-306 310,-306 264,-306 264,-306 258,-306 252,-300 252,-294 252,-294 252,-266 252,-266 252,-260 258,-254 264,-254"/>
<text text-anchor="middle" x="287" y="-294.8" font-family="Helvetica,sans-Serif" font-weight="bold" font-size="9.00">dist</text>
</g>
<g id="clust11" class="cluster">
<title>cluster_packages/music&#45;structure/melody</title>
<path fill="#ffffff" stroke="black" stroke-width="2" d="M243,-110C243,-110 332,-110 332,-110 338,-110 344,-116 344,-122 344,-122 344,-218 344,-218 344,-224 338,-230 332,-230 332,-230 243,-230 243,-230 237,-230 231,-224 231,-218 231,-218 231,-122 231,-122 231,-116 237,-110 243,-110"/>
<text text-anchor="middle" x="287.5" y="-218.8" font-family="Helvetica,sans-Serif" font-weight="bold" font-size="9.00">melody</text>
</g>
<g id="clust12" class="cluster">
<title>cluster_packages/music&#45;structure/melody/melody&#45;analyze</title>
<path fill="#ffffff" stroke="black" stroke-width="2" d="M251,-118C251,-118 324,-118 324,-118 330,-118 336,-124 336,-130 336,-130 336,-192 336,-192 336,-198 330,-204 324,-204 324,-204 251,-204 251,-204 245,-204 239,-198 239,-192 239,-192 239,-130 239,-130 239,-124 245,-118 251,-118"/>
<text text-anchor="middle" x="287.5" y="-192.8" font-family="Helvetica,sans-Serif" font-weight="bold" font-size="9.00">melody&#45;analyze</text>
</g>
<g id="clust13" class="cluster">
<title>cluster_packages/music&#45;structure/melody/melody&#45;analyze/dist</title>
<path fill="#ffffff" stroke="black" stroke-width="2" d="M264,-126C264,-126 310,-126 310,-126 316,-126 322,-132 322,-138 322,-138 322,-166 322,-166 322,-172 316,-178 310,-178 310,-178 264,-178 264,-178 258,-178 252,-172 252,-166 252,-166 252,-138 252,-138 252,-132 258,-126 264,-126"/>
<text text-anchor="middle" x="287" y="-166.8" font-family="Helvetica,sans-Serif" font-weight="bold" font-size="9.00">dist</text>
</g>
<!-- fs -->
<g id="node1" class="node">
<title>fs</title>
<g id="a_node1"><a xlink:href="https://nodejs.org/api/fs.html" xlink:title="fs">
<path fill="#ffffcc" stroke="grey" d="M160,-86C160,-86 118,-86 118,-86 115,-86 112,-83 112,-80 112,-80 112,-74 112,-74 112,-71 115,-68 118,-68 118,-68 160,-68 160,-68 163,-68 166,-71 166,-74 166,-74 166,-80 166,-80 166,-83 163,-86 160,-86"/>
<text text-anchor="middle" x="139" y="-74.8" font-family="Helvetica,sans-Serif" font-size="9.00" fill="grey">fs</text>
</a>
</g>
</g>
<!-- node_modules/yargs -->
<g id="node2" class="node">
<title>node_modules/yargs</title>
<g id="a_node2"><a xlink:href="https://www.npmjs.com/package/yargs" xlink:title="yargs">
<polygon fill="#c40b0a" fill-opacity="0.101961" stroke="black" points="166,-34 114,-34 112,-32 112,-16 164,-16 166,-18 166,-34"/>
<polyline fill="none" stroke="black" points="164,-32 112,-32 "/>
<polyline fill="none" stroke="black" points="164,-32 164,-16 "/>
<polyline fill="none" stroke="black" points="164,-32 166,-34 "/>
<text text-anchor="start" x="126.5" y="-22.8" font-family="Helvetica,sans-Serif" font-size="9.00" fill="#c40b0a">yargs</text>
</a>
</g>
</g>
<!-- packages/cli/melody&#45;analyze&#45;cli/index.ts -->
<g id="node3" class="node">
<title>packages/cli/melody&#45;analyze&#45;cli/index.ts</title>
<g id="a_node3"><a xlink:href="packages/cli/melody-analyze-cli/index.ts" xlink:title="index.ts">
<path fill="#ddfeff" stroke="black" d="M80,-136C80,-136 38,-136 38,-136 35,-136 32,-133 32,-130 32,-130 32,-124 32,-124 32,-121 35,-118 38,-118 38,-118 80,-118 80,-118 83,-118 86,-121 86,-124 86,-124 86,-130 86,-130 86,-133 83,-136 80,-136"/>
<text text-anchor="start" x="40.5" y="-124.8" font-family="Helvetica,sans-Serif" font-size="9.00">index.ts</text>
</a>
</g>
</g>
<!-- packages/cli/melody&#45;analyze&#45;cli/index.ts&#45;&gt;fs -->
<g id="edge2" class="edge">
<title>packages/cli/melody&#45;analyze&#45;cli/index.ts&#45;&gt;fs</title>
<path fill="none" stroke="#000000" stroke-dasharray="5,2" stroke-opacity="0.200000" d="M74.31,-117.83C86.73,-109.86 104.84,-98.26 118.57,-89.46"/>
<polygon fill="#000000" fill-opacity="0.200000" stroke="#000000" stroke-opacity="0.200000" points="119.87,-91.12 123.78,-86.11 117.6,-87.58 119.87,-91.12"/>
</g>
<!-- packages/cli/melody&#45;analyze&#45;cli/index.ts&#45;&gt;node_modules/yargs -->
<g id="edge3" class="edge">
<title>packages/cli/melody&#45;analyze&#45;cli/index.ts&#45;&gt;node_modules/yargs</title>
<path fill="none" stroke="#000000" stroke-opacity="0.200000" d="M64.73,-117.96C74.07,-100.1 94,-62 94,-62 94,-62 109.48,-48.98 122.08,-38.39"/>
<polygon fill="#000000" fill-opacity="0.200000" stroke="#000000" stroke-opacity="0.200000" points="123.66,-39.81 126.9,-34.34 120.95,-36.59 123.66,-39.81"/>
</g>
<!-- packages/cli/melody&#45;analyze&#45;cli/src/facade/index.ts -->
<g id="node4" class="node">
<title>packages/cli/melody&#45;analyze&#45;cli/src/facade/index.ts</title>
<g id="a_node4"><a xlink:href="packages/cli/melody-analyze-cli/src/facade/index.ts" xlink:title="index.ts">
<path fill="#ddfeff" stroke="black" d="M160,-152C160,-152 118,-152 118,-152 115,-152 112,-149 112,-146 112,-146 112,-140 112,-140 112,-137 115,-134 118,-134 118,-134 160,-134 160,-134 163,-134 166,-137 166,-140 166,-140 166,-146 166,-146 166,-149 163,-152 160,-152"/>
<text text-anchor="start" x="120.5" y="-140.8" font-family="Helvetica,sans-Serif" font-size="9.00">index.ts</text>
</a>
</g>
</g>
<!-- packages/cli/melody&#45;analyze&#45;cli/index.ts&#45;&gt;packages/cli/melody&#45;analyze&#45;cli/src/facade/index.ts -->
<g id="edge1" class="edge">
<title>packages/cli/melody&#45;analyze&#45;cli/index.ts&#45;&gt;packages/cli/melody&#45;analyze&#45;cli/src/facade/index.ts</title>
<path fill="none" stroke="#000000" stroke-width="2" stroke-opacity="0.200000" d="M86.41,-132.42C92.7,-133.71 99.48,-135.1 106,-136.44"/>
<polygon fill="#000000" fill-opacity="0.200000" stroke="#000000" stroke-width="2" stroke-opacity="0.200000" points="105.59,-138.49 111.88,-137.64 106.43,-134.38 105.59,-138.49"/>
</g>
<!-- packages/music&#45;structure/chord/chord&#45;analyze/dist/index.js -->
<g id="node5" class="node">
<title>packages/music&#45;structure/chord/chord&#45;analyze/dist/index.js</title>
<g id="a_node5"><a xlink:href="packages/music-structure/chord/chord-analyze/dist/index.js" xlink:title="index.js">
<polygon fill="#ffffcc" stroke="black" points="314,-280 312.5,-282 302,-282 300.5,-280 260,-280 260,-262 314,-262 314,-280"/>
<text text-anchor="start" x="269.5" y="-268.8" font-family="Helvetica,sans-Serif" font-size="9.00">index.js</text>
</a>
</g>
</g>
<!-- packages/cli/melody&#45;analyze&#45;cli/src/facade/index.ts&#45;&gt;packages/music&#45;structure/chord/chord&#45;analyze/dist/index.js -->
<g id="edge4" class="edge">
<title>packages/cli/melody&#45;analyze&#45;cli/src/facade/index.ts&#45;&gt;packages/music&#45;structure/chord/chord&#45;analyze/dist/index.js</title>
<path fill="none" stroke="#000000" stroke-width="2" stroke-opacity="0.200000" d="M150.5,-152.21C175.96,-174.53 241.09,-231.63 270.81,-257.68"/>
<polygon fill="#000000" fill-opacity="0.200000" stroke="#000000" stroke-width="2" stroke-opacity="0.200000" points="274.21,-263.46 271.08,-257.92 276.98,-260.3 274.21,-263.46"/>
</g>
<!-- packages/music&#45;structure/melody/melody&#45;analyze/dist/index.js -->
<g id="node6" class="node">
<title>packages/music&#45;structure/melody/melody&#45;analyze/dist/index.js</title>
<g id="a_node6"><a xlink:href="packages/music-structure/melody/melody-analyze/dist/index.js" xlink:title="index.js">
<polygon fill="#ffffcc" stroke="black" points="314,-152 312.5,-154 302,-154 300.5,-152 260,-152 260,-134 314,-134 314,-152"/>
<text text-anchor="start" x="269.5" y="-140.8" font-family="Helvetica,sans-Serif" font-size="9.00">index.js</text>
</a>
</g>
</g>
<!-- packages/cli/melody&#45;analyze&#45;cli/src/facade/index.ts&#45;&gt;packages/music&#45;structure/melody/melody&#45;analyze/dist/index.js -->
<g id="edge5" class="edge">
<title>packages/cli/melody&#45;analyze&#45;cli/src/facade/index.ts&#45;&gt;packages/music&#45;structure/melody/melody&#45;analyze/dist/index.js</title>
<path fill="none" stroke="#000000" stroke-width="2" stroke-opacity="0.200000" d="M166.1,-143C190.55,-143 227.18,-143 253.51,-143"/>
<polygon fill="#000000" fill-opacity="0.200000" stroke="#000000" stroke-width="2" stroke-opacity="0.200000" points="259.63,-145.1 253.63,-143 259.63,-140.9 259.63,-145.1"/>
</g>
</g>
</svg>
