<?xml version="1.0" encoding="UTF-8" standalone="no"?>
<!DOCTYPE svg PUBLIC "-//W3C//DTD SVG 1.1//EN"
 "http://www.w3.org/Graphics/SVG/1.1/DTD/svg11.dtd">
<!-- Generated by graphviz version 2.43.0 (0)
 -->
<!-- Title: dependency&#45;cruiser output Pages: 1 -->
<svg width="758pt" height="930pt"
 viewBox="0.00 0.00 758.00 930.00" xmlns="http://www.w3.org/2000/svg" xmlns:xlink="http://www.w3.org/1999/xlink">
<g id="graph0" class="graph" transform="scale(1 1) rotate(0) translate(4 926)">
<title>dependency&#45;cruiser output</title>
<polygon fill="white" stroke="transparent" points="-4,4 -4,-926 754,-926 754,4 -4,4"/>
<g id="clust1" class="cluster">
<title>cluster_node_modules</title>
<path fill="#ffffff" stroke="black" stroke-width="2" d="M212,-8C212,-8 278,-8 278,-8 284,-8 290,-14 290,-20 290,-20 290,-48 290,-48 290,-54 284,-60 278,-60 278,-60 212,-60 212,-60 206,-60 200,-54 200,-48 200,-48 200,-20 200,-20 200,-14 206,-8 212,-8"/>
<text text-anchor="middle" x="245" y="-48.8" font-family="Helvetica,sans-Serif" font-weight="bold" font-size="9.00">node_modules</text>
</g>
<g id="clust2" class="cluster">
<title>cluster_packages</title>
<path fill="#ffffff" stroke="black" stroke-width="2" d="M12,-94C12,-94 738,-94 738,-94 744,-94 750,-100 750,-106 750,-106 750,-902 750,-902 750,-908 744,-914 738,-914 738,-914 12,-914 12,-914 6,-914 0,-908 0,-902 0,-902 0,-106 0,-106 0,-100 6,-94 12,-94"/>
<text text-anchor="middle" x="375" y="-902.8" font-family="Helvetica,sans-Serif" font-weight="bold" font-size="9.00">packages</text>
</g>
<g id="clust3" class="cluster">
<title>cluster_packages/cli</title>
<path fill="#ffffff" stroke="black" stroke-width="2" d="M20,-436C20,-436 124,-436 124,-436 130,-436 136,-442 136,-448 136,-448 136,-510 136,-510 136,-516 130,-522 124,-522 124,-522 20,-522 20,-522 14,-522 8,-516 8,-510 8,-510 8,-448 8,-448 8,-442 14,-436 20,-436"/>
<text text-anchor="middle" x="72" y="-510.8" font-family="Helvetica,sans-Serif" font-weight="bold" font-size="9.00">cli</text>
</g>
<g id="clust4" class="cluster">
<title>cluster_packages/cli/melody&#45;analyze&#45;cli</title>
<path fill="#ffffff" stroke="black" stroke-width="2" d="M28,-444C28,-444 116,-444 116,-444 122,-444 128,-450 128,-456 128,-456 128,-484 128,-484 128,-490 122,-496 116,-496 116,-496 28,-496 28,-496 22,-496 16,-490 16,-484 16,-484 16,-456 16,-456 16,-450 22,-444 28,-444"/>
<text text-anchor="middle" x="72" y="-484.8" font-family="Helvetica,sans-Serif" font-weight="bold" font-size="9.00">melody&#45;analyze&#45;cli</text>
</g>
<g id="clust5" class="cluster">
<title>cluster_packages/cognitive&#45;theory&#45;of&#45;music</title>
<path fill="#ffffff" stroke="black" stroke-width="2" d="M605,-674C605,-674 730,-674 730,-674 736,-674 742,-680 742,-686 742,-686 742,-782 742,-782 742,-788 736,-794 730,-794 730,-794 605,-794 605,-794 599,-794 593,-788 593,-782 593,-782 593,-686 593,-686 593,-680 599,-674 605,-674"/>
<text text-anchor="middle" x="667.5" y="-782.8" font-family="Helvetica,sans-Serif" font-weight="bold" font-size="9.00">cognitive&#45;theory&#45;of&#45;music</text>
</g>
<g id="clust6" class="cluster">
<title>cluster_packages/cognitive&#45;theory&#45;of&#45;music/irm</title>
<path fill="#ffffff" stroke="black" stroke-width="2" d="M636,-682C636,-682 698,-682 698,-682 704,-682 710,-688 710,-694 710,-694 710,-756 710,-756 710,-762 704,-768 698,-768 698,-768 636,-768 636,-768 630,-768 624,-762 624,-756 624,-756 624,-694 624,-694 624,-688 630,-682 636,-682"/>
<text text-anchor="middle" x="667" y="-756.8" font-family="Helvetica,sans-Serif" font-weight="bold" font-size="9.00">irm</text>
</g>
<g id="clust7" class="cluster">
<title>cluster_packages/cognitive&#45;theory&#45;of&#45;music/irm/dist</title>
<path fill="#ffffff" stroke="black" stroke-width="2" d="M644,-690C644,-690 690,-690 690,-690 696,-690 702,-696 702,-702 702,-702 702,-730 702,-730 702,-736 696,-742 690,-742 690,-742 644,-742 644,-742 638,-742 632,-736 632,-730 632,-730 632,-702 632,-702 632,-696 638,-690 644,-690"/>
<text text-anchor="middle" x="667" y="-730.8" font-family="Helvetica,sans-Serif" font-weight="bold" font-size="9.00">dist</text>
</g>
<g id="clust8" class="cluster">
<title>cluster_packages/music&#45;structure</title>
<path fill="#ffffff" stroke="black" stroke-width="2" d="M164,-324C164,-324 716,-324 716,-324 722,-324 728,-330 728,-336 728,-336 728,-654 728,-654 728,-660 722,-666 716,-666 716,-666 164,-666 164,-666 158,-666 152,-660 152,-654 152,-654 152,-336 152,-336 152,-330 158,-324 164,-324"/>
<text text-anchor="middle" x="440" y="-654.8" font-family="Helvetica,sans-Serif" font-weight="bold" font-size="9.00">music&#45;structure</text>
</g>
<g id="clust9" class="cluster">
<title>cluster_packages/music&#45;structure/chord</title>
<path fill="#ffffff" stroke="black" stroke-width="2" d="M352,-332C352,-332 433,-332 433,-332 439,-332 445,-338 445,-344 445,-344 445,-440 445,-440 445,-446 439,-452 433,-452 433,-452 352,-452 352,-452 346,-452 340,-446 340,-440 340,-440 340,-344 340,-344 340,-338 346,-332 352,-332"/>
<text text-anchor="middle" x="392.5" y="-440.8" font-family="Helvetica,sans-Serif" font-weight="bold" font-size="9.00">chord</text>
</g>
<g id="clust10" class="cluster">
<title>cluster_packages/music&#45;structure/chord/chord&#45;analyze</title>
<path fill="#ffffff" stroke="black" stroke-width="2" d="M360,-340C360,-340 425,-340 425,-340 431,-340 437,-346 437,-352 437,-352 437,-414 437,-414 437,-420 431,-426 425,-426 425,-426 360,-426 360,-426 354,-426 348,-420 348,-414 348,-414 348,-352 348,-352 348,-346 354,-340 360,-340"/>
<text text-anchor="middle" x="392.5" y="-414.8" font-family="Helvetica,sans-Serif" font-weight="bold" font-size="9.00">chord&#45;analyze</text>
</g>
<g id="clust11" class="cluster">
<title>cluster_packages/music&#45;structure/chord/chord&#45;analyze/dist</title>
<path fill="#ffffff" stroke="black" stroke-width="2" d="M369,-348C369,-348 415,-348 415,-348 421,-348 427,-354 427,-360 427,-360 427,-388 427,-388 427,-394 421,-400 415,-400 415,-400 369,-400 369,-400 363,-400 357,-394 357,-388 357,-388 357,-360 357,-360 357,-354 363,-348 369,-348"/>
<text text-anchor="middle" x="392" y="-388.8" font-family="Helvetica,sans-Serif" font-weight="bold" font-size="9.00">dist</text>
</g>
<g id="clust12" class="cluster">
<title>cluster_packages/music&#45;structure/melody</title>
<path fill="#ffffff" stroke="black" stroke-width="2" d="M172,-460C172,-460 708,-460 708,-460 714,-460 720,-466 720,-472 720,-472 720,-628 720,-628 720,-634 714,-640 708,-640 708,-640 172,-640 172,-640 166,-640 160,-634 160,-628 160,-628 160,-472 160,-472 160,-466 166,-460 172,-460"/>
<text text-anchor="middle" x="440" y="-628.8" font-family="Helvetica,sans-Serif" font-weight="bold" font-size="9.00">melody</text>
</g>
<g id="clust13" class="cluster">
<title>cluster_packages/music&#45;structure/melody/melody&#45;analyze</title>
<path fill="#ffffff" stroke="black" stroke-width="2" d="M180,-468C180,-468 700,-468 700,-468 706,-468 712,-474 712,-480 712,-480 712,-602 712,-602 712,-608 706,-614 700,-614 700,-614 180,-614 180,-614 174,-614 168,-608 168,-602 168,-602 168,-480 168,-480 168,-474 174,-468 180,-468"/>
<text text-anchor="middle" x="440" y="-602.8" font-family="Helvetica,sans-Serif" font-weight="bold" font-size="9.00">melody&#45;analyze</text>
</g>
<g id="clust14" class="cluster">
<title>cluster_packages/music&#45;structure/melody/melody&#45;analyze/src</title>
<path fill="#ffffff" stroke="black" stroke-width="2" d="M188,-476C188,-476 692,-476 692,-476 698,-476 704,-482 704,-488 704,-488 704,-576 704,-576 704,-582 698,-588 692,-588 692,-588 188,-588 188,-588 182,-588 176,-582 176,-576 176,-576 176,-488 176,-488 176,-482 182,-476 188,-476"/>
<text text-anchor="middle" x="440" y="-576.8" font-family="Helvetica,sans-Serif" font-weight="bold" font-size="9.00">src</text>
</g>
<g id="clust15" class="cluster">
<title>cluster_packages/tonal&#45;objects</title>
<path fill="#ffffff" stroke="black" stroke-width="2" d="M636,-802C636,-802 698,-802 698,-802 704,-802 710,-808 710,-814 710,-814 710,-876 710,-876 710,-882 704,-888 698,-888 698,-888 636,-888 636,-888 630,-888 624,-882 624,-876 624,-876 624,-814 624,-814 624,-808 630,-802 636,-802"/>
<text text-anchor="middle" x="667" y="-876.8" font-family="Helvetica,sans-Serif" font-weight="bold" font-size="9.00">tonal&#45;objects</text>
</g>
<g id="clust16" class="cluster">
<title>cluster_packages/tonal&#45;objects/dist</title>
<path fill="#ffffff" stroke="black" stroke-width="2" d="M644,-810C644,-810 690,-810 690,-810 696,-810 702,-816 702,-822 702,-822 702,-850 702,-850 702,-856 696,-862 690,-862 690,-862 644,-862 644,-862 638,-862 632,-856 632,-850 632,-850 632,-822 632,-822 632,-816 638,-810 644,-810"/>
<text text-anchor="middle" x="667" y="-850.8" font-family="Helvetica,sans-Serif" font-weight="bold" font-size="9.00">dist</text>
</g>
<g id="clust17" class="cluster">
<title>cluster_packages/util</title>
<path fill="#ffffff" stroke="black" stroke-width="2" d="M628,-102C628,-102 706,-102 706,-102 712,-102 718,-108 718,-114 718,-114 718,-304 718,-304 718,-310 712,-316 706,-316 706,-316 628,-316 628,-316 622,-316 616,-310 616,-304 616,-304 616,-114 616,-114 616,-108 622,-102 628,-102"/>
<text text-anchor="middle" x="667" y="-304.8" font-family="Helvetica,sans-Serif" font-weight="bold" font-size="9.00">util</text>
</g>
<g id="clust18" class="cluster">
<title>cluster_packages/util/math</title>
<path fill="#ffffff" stroke="black" stroke-width="2" d="M636,-204C636,-204 698,-204 698,-204 704,-204 710,-210 710,-216 710,-216 710,-278 710,-278 710,-284 704,-290 698,-290 698,-290 636,-290 636,-290 630,-290 624,-284 624,-278 624,-278 624,-216 624,-216 624,-210 630,-204 636,-204"/>
<text text-anchor="middle" x="667" y="-278.8" font-family="Helvetica,sans-Serif" font-weight="bold" font-size="9.00">math</text>
</g>
<g id="clust19" class="cluster">
<title>cluster_packages/util/math/dist</title>
<path fill="#ffffff" stroke="black" stroke-width="2" d="M644,-212C644,-212 690,-212 690,-212 696,-212 702,-218 702,-224 702,-224 702,-252 702,-252 702,-258 696,-264 690,-264 690,-264 644,-264 644,-264 638,-264 632,-258 632,-252 632,-252 632,-224 632,-224 632,-218 638,-212 644,-212"/>
<text text-anchor="middle" x="667" y="-252.8" font-family="Helvetica,sans-Serif" font-weight="bold" font-size="9.00">dist</text>
</g>
<g id="clust20" class="cluster">
<title>cluster_packages/util/time&#45;and</title>
<path fill="#ffffff" stroke="black" stroke-width="2" d="M636,-110C636,-110 698,-110 698,-110 704,-110 710,-116 710,-122 710,-122 710,-184 710,-184 710,-190 704,-196 698,-196 698,-196 636,-196 636,-196 630,-196 624,-190 624,-184 624,-184 624,-122 624,-122 624,-116 630,-110 636,-110"/>
<text text-anchor="middle" x="667" y="-184.8" font-family="Helvetica,sans-Serif" font-weight="bold" font-size="9.00">time&#45;and</text>
</g>
<g id="clust21" class="cluster">
<title>cluster_packages/util/time&#45;and/dist</title>
<path fill="#ffffff" stroke="black" stroke-width="2" d="M644,-118C644,-118 690,-118 690,-118 696,-118 702,-124 702,-130 702,-130 702,-158 702,-158 702,-164 696,-170 690,-170 690,-170 644,-170 644,-170 638,-170 632,-164 632,-158 632,-158 632,-130 632,-130 632,-124 638,-118 644,-118"/>
<text text-anchor="middle" x="667" y="-158.8" font-family="Helvetica,sans-Serif" font-weight="bold" font-size="9.00">dist</text>
</g>
<!-- fs -->
<g id="node1" class="node">
<title>fs</title>
<g id="a_node1"><a xlink:href="https://nodejs.org/api/fs.html" xlink:title="fs">
<path fill="#ffffcc" stroke="grey" d="M266,-86C266,-86 224,-86 224,-86 221,-86 218,-83 218,-80 218,-80 218,-74 218,-74 218,-71 221,-68 224,-68 224,-68 266,-68 266,-68 269,-68 272,-71 272,-74 272,-74 272,-80 272,-80 272,-83 269,-86 266,-86"/>
<text text-anchor="middle" x="245" y="-74.8" font-family="Helvetica,sans-Serif" font-size="9.00" fill="grey">fs</text>
</a>
</g>
</g>
<!-- node_modules/yargs -->
<g id="node2" class="node">
<title>node_modules/yargs</title>
<g id="a_node2"><a xlink:href="https://www.npmjs.com/package/yargs" xlink:title="yargs">
<polygon fill="#c40b0a" fill-opacity="0.101961" stroke="black" points="272,-34 220,-34 218,-32 218,-16 270,-16 272,-18 272,-34"/>
<polyline fill="none" stroke="black" points="270,-32 218,-32 "/>
<polyline fill="none" stroke="black" points="270,-32 270,-16 "/>
<polyline fill="none" stroke="black" points="270,-32 272,-34 "/>
<text text-anchor="start" x="232.5" y="-22.8" font-family="Helvetica,sans-Serif" font-size="9.00" fill="#c40b0a">yargs</text>
</a>
</g>
</g>
<!-- packages/cli/melody&#45;analyze&#45;cli/index.ts -->
<g id="node3" class="node">
<title>packages/cli/melody&#45;analyze&#45;cli/index.ts</title>
<g id="a_node3"><a xlink:href="packages/cli/melody-analyze-cli/index.ts" xlink:title="index.ts">
<path fill="#ddfeff" stroke="black" d="M93,-470C93,-470 51,-470 51,-470 48,-470 45,-467 45,-464 45,-464 45,-458 45,-458 45,-455 48,-452 51,-452 51,-452 93,-452 93,-452 96,-452 99,-455 99,-458 99,-458 99,-464 99,-464 99,-467 96,-470 93,-470"/>
<text text-anchor="start" x="53.5" y="-458.8" font-family="Helvetica,sans-Serif" font-size="9.00">index.ts</text>
</a>
</g>
</g>
<!-- packages/cli/melody&#45;analyze&#45;cli/index.ts&#45;&gt;fs -->
<g id="edge5" class="edge">
<title>packages/cli/melody&#45;analyze&#45;cli/index.ts&#45;&gt;fs</title>
<path fill="none" stroke="#000000" stroke-dasharray="5,2" stroke-opacity="0.200000" d="M77.06,-451.89C99.6,-401.27 209.37,-154.78 237.45,-91.72"/>
<polygon fill="#000000" fill-opacity="0.200000" stroke="#000000" stroke-opacity="0.200000" points="239.38,-92.53 239.9,-86.2 235.54,-90.83 239.38,-92.53"/>
</g>
<!-- packages/cli/melody&#45;analyze&#45;cli/index.ts&#45;&gt;node_modules/yargs -->
<g id="edge6" class="edge">
<title>packages/cli/melody&#45;analyze&#45;cli/index.ts&#45;&gt;node_modules/yargs</title>
<path fill="none" stroke="#000000" stroke-opacity="0.200000" d="M76.57,-451.89C98.17,-396.81 211.34,-108.28 238.25,-39.66"/>
<polygon fill="#000000" fill-opacity="0.200000" stroke="#000000" stroke-opacity="0.200000" points="240.21,-40.41 240.45,-34.06 236.3,-38.88 240.21,-40.41"/>
</g>
<!-- packages/music&#45;structure/chord/chord&#45;analyze/dist/index.js -->
<g id="node4" class="node">
<title>packages/music&#45;structure/chord/chord&#45;analyze/dist/index.js</title>
<g id="a_node4"><a xlink:href="packages/music-structure/chord/chord-analyze/dist/index.js" xlink:title="index.js">
<polygon fill="#ffffcc" stroke="black" points="419,-374 417.5,-376 407,-376 405.5,-374 365,-374 365,-356 419,-356 419,-374"/>
<text text-anchor="start" x="374.5" y="-362.8" font-family="Helvetica,sans-Serif" font-size="9.00">index.js</text>
</a>
</g>
</g>
<!-- packages/cli/melody&#45;analyze&#45;cli/index.ts&#45;&gt;packages/music&#45;structure/chord/chord&#45;analyze/dist/index.js -->
<g id="edge1" class="edge">
<title>packages/cli/melody&#45;analyze&#45;cli/index.ts&#45;&gt;packages/music&#45;structure/chord/chord&#45;analyze/dist/index.js</title>
<path fill="none" stroke="#000000" stroke-width="2" stroke-opacity="0.200000" d="M99.01,-452.9C157.4,-435.38 295.23,-394.03 358.81,-374.96"/>
<polygon fill="#000000" fill-opacity="0.200000" stroke="#000000" stroke-width="2" stroke-opacity="0.200000" points="359.58,-376.92 364.73,-373.18 358.38,-372.9 359.58,-376.92"/>
</g>
<!-- packages/music&#45;structure/melody/melody&#45;analyze/src/analyze&#45;melody.ts -->
<g id="node5" class="node">
<title>packages/music&#45;structure/melody/melody&#45;analyze/src/analyze&#45;melody.ts</title>
<g id="a_node5"><a xlink:href="packages/music-structure/melody/melody-analyze/src/analyze-melody.ts" xlink:title="analyze&#45;melody.ts">
<path fill="#ddfeff" stroke="black" d="M287,-562C287,-562 203,-562 203,-562 200,-562 197,-559 197,-556 197,-556 197,-550 197,-550 197,-547 200,-544 203,-544 203,-544 287,-544 287,-544 290,-544 293,-547 293,-550 293,-550 293,-556 293,-556 293,-559 290,-562 287,-562"/>
<text text-anchor="start" x="205" y="-550.8" font-family="Helvetica,sans-Serif" font-size="9.00">analyze&#45;melody.ts</text>
</a>
</g>
</g>
<!-- packages/cli/melody&#45;analyze&#45;cli/index.ts&#45;&gt;packages/music&#45;structure/melody/melody&#45;analyze/src/analyze&#45;melody.ts -->
<g id="edge2" class="edge">
<title>packages/cli/melody&#45;analyze&#45;cli/index.ts&#45;&gt;packages/music&#45;structure/melody/melody&#45;analyze/src/analyze&#45;melody.ts</title>
<path fill="none" stroke="#000000" stroke-width="2" stroke-opacity="0.200000" d="M90.02,-470.16C121.01,-486.83 186.62,-522.13 221.34,-540.81"/>
<polygon fill="#000000" fill-opacity="0.200000" stroke="#000000" stroke-width="2" stroke-opacity="0.200000" points="220.77,-542.89 227.05,-543.88 222.76,-539.19 220.77,-542.89"/>
</g>
<!-- packages/music&#45;structure/melody/melody&#45;analyze/src/get&#45;time&#45;and&#45;melody.ts -->
<g id="node6" class="node">
<title>packages/music&#45;structure/melody/melody&#45;analyze/src/get&#45;time&#45;and&#45;melody.ts</title>
<g id="a_node6"><a xlink:href="packages/music-structure/melody/melody-analyze/src/get-time-and-melody.ts" xlink:title="get&#45;time&#45;and&#45;melody.ts">
<path fill="#ddfeff" stroke="black" d="M299.5,-502C299.5,-502 190.5,-502 190.5,-502 187.5,-502 184.5,-499 184.5,-496 184.5,-496 184.5,-490 184.5,-490 184.5,-487 187.5,-484 190.5,-484 190.5,-484 299.5,-484 299.5,-484 302.5,-484 305.5,-487 305.5,-490 305.5,-490 305.5,-496 305.5,-496 305.5,-499 302.5,-502 299.5,-502"/>
<text text-anchor="start" x="192.5" y="-490.8" font-family="Helvetica,sans-Serif" font-size="9.00">get&#45;time&#45;and&#45;melody.ts</text>
</a>
</g>
</g>
<!-- packages/cli/melody&#45;analyze&#45;cli/index.ts&#45;&gt;packages/music&#45;structure/melody/melody&#45;analyze/src/get&#45;time&#45;and&#45;melody.ts -->
<g id="edge3" class="edge">
<title>packages/cli/melody&#45;analyze&#45;cli/index.ts&#45;&gt;packages/music&#45;structure/melody/melody&#45;analyze/src/get&#45;time&#45;and&#45;melody.ts</title>
<path fill="none" stroke="#000000" stroke-width="2" stroke-opacity="0.200000" d="M99.34,-465.93C123.32,-470.42 159.47,-477.18 189.64,-482.83"/>
<polygon fill="#000000" fill-opacity="0.200000" stroke="#000000" stroke-width="2" stroke-opacity="0.200000" points="189.3,-484.9 195.58,-483.94 190.07,-480.77 189.3,-484.9"/>
</g>
<!-- packages/music&#45;structure/melody/melody&#45;analyze/src/melody&#45;analysis&#45;data.ts -->
<g id="node7" class="node">
<title>packages/music&#45;structure/melody/melody&#45;analyze/src/melody&#45;analysis&#45;data.ts</title>
<g id="a_node7"><a xlink:href="packages/music-structure/melody/melody-analyze/src/melody-analysis-data.ts" xlink:title="melody&#45;analysis&#45;data.ts">
<path fill="#ddfeff" stroke="black" d="M300,-532C300,-532 190,-532 190,-532 187,-532 184,-529 184,-526 184,-526 184,-520 184,-520 184,-517 187,-514 190,-514 190,-514 300,-514 300,-514 303,-514 306,-517 306,-520 306,-520 306,-526 306,-526 306,-529 303,-532 300,-532"/>
<text text-anchor="start" x="192" y="-520.8" font-family="Helvetica,sans-Serif" font-size="9.00">melody&#45;analysis&#45;data.ts</text>
</a>
</g>
</g>
<!-- packages/cli/melody&#45;analyze&#45;cli/index.ts&#45;&gt;packages/music&#45;structure/melody/melody&#45;analyze/src/melody&#45;analysis&#45;data.ts -->
<g id="edge4" class="edge">
<title>packages/cli/melody&#45;analyze&#45;cli/index.ts&#45;&gt;packages/music&#45;structure/melody/melody&#45;analyze/src/melody&#45;analysis&#45;data.ts</title>
<path fill="none" stroke="#000000" stroke-width="2" stroke-opacity="0.200000" d="M97.86,-470.02C128.39,-481.08 180.14,-499.85 213.17,-511.82"/>
<polygon fill="#000000" fill-opacity="0.200000" stroke="#000000" stroke-width="2" stroke-opacity="0.200000" points="212.75,-513.9 219.11,-513.97 214.18,-509.95 212.75,-513.9"/>
</g>
<!-- packages/music&#45;structure/melody/melody&#45;analyze/src/analyze&#45;melody.ts&#45;&gt;packages/music&#45;structure/chord/chord&#45;analyze/dist/index.js -->
<g id="edge11" class="edge">
<title>packages/music&#45;structure/melody/melody&#45;analyze/src/analyze&#45;melody.ts&#45;&gt;packages/music&#45;structure/chord/chord&#45;analyze/dist/index.js</title>
<path fill="none" stroke="#000000" stroke-width="2" stroke-opacity="0.200000" d="M252.99,-543.93C276.29,-513.73 351.37,-416.38 379.88,-379.42"/>
<polygon fill="#000000" fill-opacity="0.200000" stroke="#000000" stroke-width="2" stroke-opacity="0.200000" points="381.73,-380.45 383.73,-374.42 378.41,-377.89 381.73,-380.45"/>
</g>
<!-- packages/cognitive&#45;theory&#45;of&#45;music/irm/dist/index.js -->
<g id="node8" class="node">
<title>packages/cognitive&#45;theory&#45;of&#45;music/irm/dist/index.js</title>
<g id="a_node8"><a xlink:href="packages/cognitive-theory-of-music/irm/dist/index.js" xlink:title="index.js">
<polygon fill="#ffffcc" stroke="black" points="694,-716 692.5,-718 682,-718 680.5,-716 640,-716 640,-698 694,-698 694,-716"/>
<text text-anchor="start" x="649.5" y="-704.8" font-family="Helvetica,sans-Serif" font-size="9.00">index.js</text>
</a>
</g>
</g>
<!-- packages/music&#45;structure/melody/melody&#45;analyze/src/analyze&#45;melody.ts&#45;&gt;packages/cognitive&#45;theory&#45;of&#45;music/irm/dist/index.js -->
<g id="edge12" class="edge">
<title>packages/music&#45;structure/melody/melody&#45;analyze/src/analyze&#45;melody.ts&#45;&gt;packages/cognitive&#45;theory&#45;of&#45;music/irm/dist/index.js</title>
<path fill="none" stroke="#000000" stroke-width="2" stroke-opacity="0.200000" d="M269.82,-562.06C342.75,-588.67 556.21,-666.57 636.23,-695.77"/>
<polygon fill="#000000" fill-opacity="0.200000" stroke="#000000" stroke-width="2" stroke-opacity="0.200000" points="635.85,-697.87 642.21,-697.95 637.29,-693.92 635.85,-697.87"/>
</g>
<!-- packages/music&#45;structure/melody/melody&#45;analyze/src/melody&#45;analysis.ts -->
<g id="node9" class="node">
<title>packages/music&#45;structure/melody/melody&#45;analyze/src/melody&#45;analysis.ts</title>
<g id="a_node9"><a xlink:href="packages/music-structure/melody/melody-analyze/src/melody-analysis.ts" xlink:title="melody&#45;analysis.ts">
<path fill="#ddfeff" stroke="black" d="M571,-562C571,-562 484,-562 484,-562 481,-562 478,-559 478,-556 478,-556 478,-550 478,-550 478,-547 481,-544 484,-544 484,-544 571,-544 571,-544 574,-544 577,-547 577,-550 577,-550 577,-556 577,-556 577,-559 574,-562 571,-562"/>
<text text-anchor="start" x="486" y="-550.8" font-family="Helvetica,sans-Serif" font-size="9.00">melody&#45;analysis.ts</text>
</a>
</g>
</g>
<!-- packages/music&#45;structure/melody/melody&#45;analyze/src/analyze&#45;melody.ts&#45;&gt;packages/music&#45;structure/melody/melody&#45;analyze/src/melody&#45;analysis.ts -->
<g id="edge7" class="edge">
<title>packages/music&#45;structure/melody/melody&#45;analyze/src/analyze&#45;melody.ts&#45;&gt;packages/music&#45;structure/melody/melody&#45;analyze/src/melody&#45;analysis.ts</title>
<path fill="none" stroke="#000000" stroke-width="2" stroke-opacity="0.200000" d="M293.24,-553C342.61,-553 419.26,-553 471.33,-553"/>
<polygon fill="#000000" fill-opacity="0.200000" stroke="#000000" stroke-width="2" stroke-opacity="0.200000" points="471.55,-555.1 477.55,-553 471.55,-550.9 471.55,-555.1"/>
</g>
<!-- packages/music&#45;structure/melody/melody&#45;analyze/src/register&#45;gravity.ts -->
<g id="node10" class="node">
<title>packages/music&#45;structure/melody/melody&#45;analyze/src/register&#45;gravity.ts</title>
<g id="a_node10"><a xlink:href="packages/music-structure/melody/melody-analyze/src/register-gravity.ts" xlink:title="register&#45;gravity.ts">
<path fill="#ddfeff" stroke="black" d="M569,-532C569,-532 486,-532 486,-532 483,-532 480,-529 480,-526 480,-526 480,-520 480,-520 480,-517 483,-514 486,-514 486,-514 569,-514 569,-514 572,-514 575,-517 575,-520 575,-520 575,-526 575,-526 575,-529 572,-532 569,-532"/>
<text text-anchor="start" x="488" y="-520.8" font-family="Helvetica,sans-Serif" font-size="9.00">register&#45;gravity.ts</text>
</a>
</g>
</g>
<!-- packages/music&#45;structure/melody/melody&#45;analyze/src/analyze&#45;melody.ts&#45;&gt;packages/music&#45;structure/melody/melody&#45;analyze/src/register&#45;gravity.ts -->
<g id="edge8" class="edge">
<title>packages/music&#45;structure/melody/melody&#45;analyze/src/analyze&#45;melody.ts&#45;&gt;packages/music&#45;structure/melody/melody&#45;analyze/src/register&#45;gravity.ts</title>
<path fill="none" stroke="#000000" stroke-width="2" stroke-opacity="0.200000" d="M293.24,-547.88C343.37,-542.55 421.62,-534.24 473.71,-528.71"/>
<polygon fill="#000000" fill-opacity="0.200000" stroke="#000000" stroke-width="2" stroke-opacity="0.200000" points="474.18,-530.77 479.93,-528.05 473.74,-526.6 474.18,-530.77"/>
</g>
<!-- packages/music&#45;structure/melody/melody&#45;analyze/src/time&#45;and&#45;analyzed&#45;melody.ts -->
<g id="node11" class="node">
<title>packages/music&#45;structure/melody/melody&#45;analyze/src/time&#45;and&#45;analyzed&#45;melody.ts</title>
<g id="a_node11"><a xlink:href="packages/music-structure/melody/melody-analyze/src/time-and-analyzed-melody.ts" xlink:title="time&#45;and&#45;analyzed&#45;melody.ts">
<path fill="#ddfeff" stroke="black" d="M459,-532C459,-532 325,-532 325,-532 322,-532 319,-529 319,-526 319,-526 319,-520 319,-520 319,-517 322,-514 325,-514 325,-514 459,-514 459,-514 462,-514 465,-517 465,-520 465,-520 465,-526 465,-526 465,-529 462,-532 459,-532"/>
<text text-anchor="start" x="327" y="-520.8" font-family="Helvetica,sans-Serif" font-size="9.00">time&#45;and&#45;analyzed&#45;melody.ts</text>
</a>
</g>
</g>
<!-- packages/music&#45;structure/melody/melody&#45;analyze/src/analyze&#45;melody.ts&#45;&gt;packages/music&#45;structure/melody/melody&#45;analyze/src/time&#45;and&#45;analyzed&#45;melody.ts -->
<g id="edge9" class="edge">
<title>packages/music&#45;structure/melody/melody&#45;analyze/src/analyze&#45;melody.ts&#45;&gt;packages/music&#45;structure/melody/melody&#45;analyze/src/time&#45;and&#45;analyzed&#45;melody.ts</title>
<path fill="none" stroke="#000000" stroke-width="2" stroke-opacity="0.200000" d="M289.5,-544C305.78,-540.63 324.38,-536.78 341.18,-533.31"/>
<polygon fill="#000000" fill-opacity="0.200000" stroke="#000000" stroke-width="2" stroke-opacity="0.200000" points="341.83,-535.32 347.28,-532.05 340.97,-531.21 341.83,-535.32"/>
</g>
<!-- packages/music&#45;structure/melody/melody&#45;analyze/src/time&#45;and&#45;melody.ts -->
<g id="node12" class="node">
<title>packages/music&#45;structure/melody/melody&#45;analyze/src/time&#45;and&#45;melody.ts</title>
<g id="a_node12"><a xlink:href="packages/music-structure/melody/melody-analyze/src/time-and-melody.ts" xlink:title="time&#45;and&#45;melody.ts">
<path fill="#ddfeff" stroke="black" d="M437.5,-502C437.5,-502 346.5,-502 346.5,-502 343.5,-502 340.5,-499 340.5,-496 340.5,-496 340.5,-490 340.5,-490 340.5,-487 343.5,-484 346.5,-484 346.5,-484 437.5,-484 437.5,-484 440.5,-484 443.5,-487 443.5,-490 443.5,-490 443.5,-496 443.5,-496 443.5,-499 440.5,-502 437.5,-502"/>
<text text-anchor="start" x="348.5" y="-490.8" font-family="Helvetica,sans-Serif" font-size="9.00">time&#45;and&#45;melody.ts</text>
</a>
</g>
</g>
<!-- packages/music&#45;structure/melody/melody&#45;analyze/src/analyze&#45;melody.ts&#45;&gt;packages/music&#45;structure/melody/melody&#45;analyze/src/time&#45;and&#45;melody.ts -->
<g id="edge10" class="edge">
<title>packages/music&#45;structure/melody/melody&#45;analyze/src/analyze&#45;melody.ts&#45;&gt;packages/music&#45;structure/melody/melody&#45;analyze/src/time&#45;and&#45;melody.ts</title>
<path fill="none" stroke="#000000" stroke-width="2" stroke-opacity="0.200000" d="M268.02,-543.89C293.61,-533.3 335.86,-515.81 363.57,-504.35"/>
<polygon fill="#000000" fill-opacity="0.200000" stroke="#000000" stroke-width="2" stroke-opacity="0.200000" points="364.5,-506.24 369.25,-502 362.9,-502.36 364.5,-506.24"/>
</g>
<!-- packages/tonal&#45;objects/dist/index.js -->
<g id="node13" class="node">
<title>packages/tonal&#45;objects/dist/index.js</title>
<g id="a_node13"><a xlink:href="packages/tonal-objects/dist/index.js" xlink:title="index.js">
<polygon fill="#ffffcc" stroke="black" points="694,-836 692.5,-838 682,-838 680.5,-836 640,-836 640,-818 694,-818 694,-836"/>
<text text-anchor="start" x="649.5" y="-824.8" font-family="Helvetica,sans-Serif" font-size="9.00">index.js</text>
</a>
</g>
</g>
<!-- packages/music&#45;structure/melody/melody&#45;analyze/src/analyze&#45;melody.ts&#45;&gt;packages/tonal&#45;objects/dist/index.js -->
<g id="edge13" class="edge">
<title>packages/music&#45;structure/melody/melody&#45;analyze/src/analyze&#45;melody.ts&#45;&gt;packages/tonal&#45;objects/dist/index.js</title>
<path fill="none" stroke="#000000" stroke-width="2" stroke-opacity="0.200000" d="M259.04,-562.12C321.62,-602.75 575.24,-767.42 647.62,-814.42"/>
<polygon fill="#000000" fill-opacity="0.200000" stroke="#000000" stroke-width="2" stroke-opacity="0.200000" points="646.73,-816.34 652.91,-817.85 649.02,-812.82 646.73,-816.34"/>
</g>
<!-- packages/music&#45;structure/melody/melody&#45;analyze/src/get&#45;time&#45;and&#45;melody.ts&#45;&gt;packages/music&#45;structure/melody/melody&#45;analyze/src/time&#45;and&#45;melody.ts -->
<g id="edge14" class="edge">
<title>packages/music&#45;structure/melody/melody&#45;analyze/src/get&#45;time&#45;and&#45;melody.ts&#45;&gt;packages/music&#45;structure/melody/melody&#45;analyze/src/time&#45;and&#45;melody.ts</title>
<path fill="none" stroke="#000000" stroke-width="2" stroke-opacity="0.200000" d="M305.81,-493C315.16,-493 324.79,-493 334.07,-493"/>
<polygon fill="#000000" fill-opacity="0.200000" stroke="#000000" stroke-width="2" stroke-opacity="0.200000" points="334.1,-495.1 340.1,-493 334.1,-490.9 334.1,-495.1"/>
</g>
<!-- packages/util/time&#45;and/dist/index.js -->
<g id="node14" class="node">
<title>packages/util/time&#45;and/dist/index.js</title>
<g id="a_node14"><a xlink:href="packages/util/time-and/dist/index.js" xlink:title="index.js">
<polygon fill="#ffffcc" stroke="black" points="694,-144 692.5,-146 682,-146 680.5,-144 640,-144 640,-126 694,-126 694,-144"/>
<text text-anchor="start" x="649.5" y="-132.8" font-family="Helvetica,sans-Serif" font-size="9.00">index.js</text>
</a>
</g>
</g>
<!-- packages/music&#45;structure/melody/melody&#45;analyze/src/get&#45;time&#45;and&#45;melody.ts&#45;&gt;packages/util/time&#45;and/dist/index.js -->
<g id="edge15" class="edge">
<title>packages/music&#45;structure/melody/melody&#45;analyze/src/get&#45;time&#45;and&#45;melody.ts&#45;&gt;packages/util/time&#45;and/dist/index.js</title>
<path fill="none" stroke="#000000" stroke-width="2" stroke-opacity="0.200000" d="M255.86,-483.79C313.44,-434.94 583.12,-206.16 651.3,-148.32"/>
<polygon fill="#000000" fill-opacity="0.200000" stroke="#000000" stroke-width="2" stroke-opacity="0.200000" points="653,-149.63 656.22,-144.15 650.28,-146.43 653,-149.63"/>
</g>
<!-- packages/music&#45;structure/melody/melody&#45;analyze/src/melody&#45;analysis&#45;data.ts&#45;&gt;packages/music&#45;structure/melody/melody&#45;analyze/src/time&#45;and&#45;analyzed&#45;melody.ts -->
<g id="edge16" class="edge">
<title>packages/music&#45;structure/melody/melody&#45;analyze/src/melody&#45;analysis&#45;data.ts&#45;&gt;packages/music&#45;structure/melody/melody&#45;analyze/src/time&#45;and&#45;analyzed&#45;melody.ts</title>
<path fill="none" stroke="#000000" stroke-width="2" stroke-opacity="0.200000" d="M306.23,-523C308.33,-523 310.45,-523 312.57,-523"/>
<polygon fill="#000000" fill-opacity="0.200000" stroke="#000000" stroke-width="2" stroke-opacity="0.200000" points="312.95,-525.1 318.95,-523 312.95,-520.9 312.95,-525.1"/>
</g>
<!-- packages/music&#45;structure/melody/melody&#45;analyze/src/melody&#45;analysis.ts&#45;&gt;packages/cognitive&#45;theory&#45;of&#45;music/irm/dist/index.js -->
<g id="edge18" class="edge">
<title>packages/music&#45;structure/melody/melody&#45;analyze/src/melody&#45;analysis.ts&#45;&gt;packages/cognitive&#45;theory&#45;of&#45;music/irm/dist/index.js</title>
<path fill="none" stroke="#000000" stroke-width="2" stroke-opacity="0.200000" d="M536.69,-562.17C559.85,-588.11 625.92,-662.11 653.58,-693.09"/>
<polygon fill="#000000" fill-opacity="0.200000" stroke="#000000" stroke-width="2" stroke-opacity="0.200000" points="652.12,-694.6 657.68,-697.68 655.25,-691.81 652.12,-694.6"/>
</g>
<!-- packages/music&#45;structure/melody/melody&#45;analyze/src/gravity.ts -->
<g id="node15" class="node">
<title>packages/music&#45;structure/melody/melody&#45;analyze/src/gravity.ts</title>
<g id="a_node15"><a xlink:href="packages/music-structure/melody/melody-analyze/src/gravity.ts" xlink:title="gravity.ts">
<path fill="#ddfeff" stroke="black" d="M690,-547C690,-547 644,-547 644,-547 641,-547 638,-544 638,-541 638,-541 638,-535 638,-535 638,-532 641,-529 644,-529 644,-529 690,-529 690,-529 693,-529 696,-532 696,-535 696,-535 696,-541 696,-541 696,-544 693,-547 690,-547"/>
<text text-anchor="start" x="646" y="-535.8" font-family="Helvetica,sans-Serif" font-size="9.00">gravity.ts</text>
</a>
</g>
</g>
<!-- packages/music&#45;structure/melody/melody&#45;analyze/src/melody&#45;analysis.ts&#45;&gt;packages/music&#45;structure/melody/melody&#45;analyze/src/gravity.ts -->
<g id="edge17" class="edge">
<title>packages/music&#45;structure/melody/melody&#45;analyze/src/melody&#45;analysis.ts&#45;&gt;packages/music&#45;structure/melody/melody&#45;analyze/src/gravity.ts</title>
<path fill="none" stroke="#000000" stroke-width="2" stroke-opacity="0.200000" d="M577.36,-547.67C595.22,-545.72 615.03,-543.56 631.39,-541.78"/>
<polygon fill="#000000" fill-opacity="0.200000" stroke="#000000" stroke-width="2" stroke-opacity="0.200000" points="631.97,-543.83 637.71,-541.09 631.51,-539.65 631.97,-543.83"/>
</g>
<!-- packages/music&#45;structure/melody/melody&#45;analyze/src/register&#45;gravity.ts&#45;&gt;packages/tonal&#45;objects/dist/index.js -->
<g id="edge21" class="edge">
<title>packages/music&#45;structure/melody/melody&#45;analyze/src/register&#45;gravity.ts&#45;&gt;packages/tonal&#45;objects/dist/index.js</title>
<path fill="none" stroke="#000000" stroke-width="2" stroke-opacity="0.200000" d="M532.62,-532.1C552.11,-575.19 635.2,-758.9 659.37,-812.35"/>
<polygon fill="#000000" fill-opacity="0.200000" stroke="#000000" stroke-width="2" stroke-opacity="0.200000" points="657.51,-813.34 661.9,-817.94 661.34,-811.61 657.51,-813.34"/>
</g>
<!-- packages/music&#45;structure/melody/melody&#45;analyze/src/register&#45;gravity.ts&#45;&gt;packages/music&#45;structure/melody/melody&#45;analyze/src/gravity.ts -->
<g id="edge19" class="edge">
<title>packages/music&#45;structure/melody/melody&#45;analyze/src/register&#45;gravity.ts&#45;&gt;packages/music&#45;structure/melody/melody&#45;analyze/src/gravity.ts</title>
<path fill="none" stroke="#000000" stroke-width="2" stroke-opacity="0.200000" d="M575.05,-528.08C593.65,-530.11 614.67,-532.4 631.82,-534.27"/>
<polygon fill="#000000" fill-opacity="0.200000" stroke="#000000" stroke-width="2" stroke-opacity="0.200000" points="631.75,-536.38 637.95,-534.94 632.21,-532.2 631.75,-536.38"/>
</g>
<!-- packages/util/math/dist/index.js -->
<g id="node16" class="node">
<title>packages/util/math/dist/index.js</title>
<g id="a_node16"><a xlink:href="packages/util/math/dist/index.js" xlink:title="index.js">
<polygon fill="#ffffcc" stroke="black" points="694,-238 692.5,-240 682,-240 680.5,-238 640,-238 640,-220 694,-220 694,-238"/>
<text text-anchor="start" x="649.5" y="-226.8" font-family="Helvetica,sans-Serif" font-size="9.00">index.js</text>
</a>
</g>
</g>
<!-- packages/music&#45;structure/melody/melody&#45;analyze/src/register&#45;gravity.ts&#45;&gt;packages/util/math/dist/index.js -->
<g id="edge20" class="edge">
<title>packages/music&#45;structure/melody/melody&#45;analyze/src/register&#45;gravity.ts&#45;&gt;packages/util/math/dist/index.js</title>
<path fill="none" stroke="#000000" stroke-width="2" stroke-opacity="0.200000" d="M532.77,-513.88C552.45,-471.78 634.62,-296.09 659.09,-243.77"/>
<polygon fill="#000000" fill-opacity="0.200000" stroke="#000000" stroke-width="2" stroke-opacity="0.200000" points="661.14,-244.34 661.78,-238.01 657.34,-242.56 661.14,-244.34"/>
</g>
<!-- packages/music&#45;structure/melody/melody&#45;analyze/src/time&#45;and&#45;analyzed&#45;melody.ts&#45;&gt;packages/music&#45;structure/melody/melody&#45;analyze/src/melody&#45;analysis.ts -->
<g id="edge22" class="edge">
<title>packages/music&#45;structure/melody/melody&#45;analyze/src/time&#45;and&#45;analyzed&#45;melody.ts&#45;&gt;packages/music&#45;structure/melody/melody&#45;analyze/src/melody&#45;analysis.ts</title>
<path fill="none" stroke="#000000" stroke-width="2" stroke-opacity="0.200000" d="M433.05,-532C447.84,-535.32 464.71,-539.11 480.01,-542.55"/>
<polygon fill="#000000" fill-opacity="0.200000" stroke="#000000" stroke-width="2" stroke-opacity="0.200000" points="479.7,-544.63 486.01,-543.9 480.62,-540.54 479.7,-544.63"/>
</g>
<!-- packages/music&#45;structure/melody/melody&#45;analyze/src/time&#45;and&#45;analyzed&#45;melody.ts&#45;&gt;packages/util/time&#45;and/dist/index.js -->
<g id="edge23" class="edge">
<title>packages/music&#45;structure/melody/melody&#45;analyze/src/time&#45;and&#45;analyzed&#45;melody.ts&#45;&gt;packages/util/time&#45;and/dist/index.js</title>
<path fill="none" stroke="#000000" stroke-width="2" stroke-opacity="0.200000" d="M398.53,-513.79C434.85,-462.55 612.01,-212.58 656.73,-149.49"/>
<polygon fill="#000000" fill-opacity="0.200000" stroke="#000000" stroke-width="2" stroke-opacity="0.200000" points="658.66,-150.4 660.41,-144.29 655.23,-147.98 658.66,-150.4"/>
</g>
<!-- packages/music&#45;structure/melody/melody&#45;analyze/src/time&#45;and&#45;melody.ts&#45;&gt;packages/util/time&#45;and/dist/index.js -->
<g id="edge24" class="edge">
<title>packages/music&#45;structure/melody/melody&#45;analyze/src/time&#45;and&#45;melody.ts&#45;&gt;packages/util/time&#45;and/dist/index.js</title>
<path fill="none" stroke="#000000" stroke-width="2" stroke-opacity="0.200000" d="M399.07,-483.79C436.45,-435.13 610.93,-207.99 656.23,-149.02"/>
<polygon fill="#000000" fill-opacity="0.200000" stroke="#000000" stroke-width="2" stroke-opacity="0.200000" points="657.98,-150.19 659.97,-144.15 654.65,-147.63 657.98,-150.19"/>
</g>
</g>
</svg>
