<?xml version="1.0" encoding="UTF-8" standalone="no"?>
<!DOCTYPE svg PUBLIC "-//W3C//DTD SVG 1.1//EN"
 "http://www.w3.org/Graphics/SVG/1.1/DTD/svg11.dtd">
<!-- Generated by graphviz version 2.43.0 (0)
 -->
<!-- Title: dependency&#45;cruiser output Pages: 1 -->
<svg width="805pt" height="964pt"
 viewBox="0.00 0.00 805.00 964.00" xmlns="http://www.w3.org/2000/svg" xmlns:xlink="http://www.w3.org/1999/xlink">
<g id="graph0" class="graph" transform="scale(1 1) rotate(0) translate(4 960)">
<title>dependency&#45;cruiser output</title>
<polygon fill="white" stroke="transparent" points="-4,4 -4,-960 801,-960 801,4 -4,4"/>
<g id="clust1" class="cluster">
<title>cluster_node_modules</title>
<path fill="#ffffff" stroke="black" stroke-width="2" d="M212,-8C212,-8 278,-8 278,-8 284,-8 290,-14 290,-20 290,-20 290,-48 290,-48 290,-54 284,-60 278,-60 278,-60 212,-60 212,-60 206,-60 200,-54 200,-48 200,-48 200,-20 200,-20 200,-14 206,-8 212,-8"/>
<text text-anchor="middle" x="245" y="-48.8" font-family="Helvetica,sans-Serif" font-weight="bold" font-size="9.00">node_modules</text>
</g>
<g id="clust2" class="cluster">
<title>cluster_packages</title>
<path fill="#ffffff" stroke="black" stroke-width="2" d="M12,-94C12,-94 785,-94 785,-94 791,-94 797,-100 797,-106 797,-106 797,-936 797,-936 797,-942 791,-948 785,-948 785,-948 12,-948 12,-948 6,-948 0,-942 0,-936 0,-936 0,-106 0,-106 0,-100 6,-94 12,-94"/>
<text text-anchor="middle" x="398.5" y="-936.8" font-family="Helvetica,sans-Serif" font-weight="bold" font-size="9.00">packages</text>
</g>
<g id="clust3" class="cluster">
<title>cluster_packages/cli</title>
<path fill="#ffffff" stroke="black" stroke-width="2" d="M20,-463C20,-463 124,-463 124,-463 130,-463 136,-469 136,-475 136,-475 136,-537 136,-537 136,-543 130,-549 124,-549 124,-549 20,-549 20,-549 14,-549 8,-543 8,-537 8,-537 8,-475 8,-475 8,-469 14,-463 20,-463"/>
<text text-anchor="middle" x="72" y="-537.8" font-family="Helvetica,sans-Serif" font-weight="bold" font-size="9.00">cli</text>
</g>
<g id="clust4" class="cluster">
<title>cluster_packages/cli/melody&#45;analyze&#45;cli</title>
<path fill="#ffffff" stroke="black" stroke-width="2" d="M28,-471C28,-471 116,-471 116,-471 122,-471 128,-477 128,-483 128,-483 128,-511 128,-511 128,-517 122,-523 116,-523 116,-523 28,-523 28,-523 22,-523 16,-517 16,-511 16,-511 16,-483 16,-483 16,-477 22,-471 28,-471"/>
<text text-anchor="middle" x="72" y="-511.8" font-family="Helvetica,sans-Serif" font-weight="bold" font-size="9.00">melody&#45;analyze&#45;cli</text>
</g>
<g id="clust5" class="cluster">
<title>cluster_packages/cognitive&#45;theory&#45;of&#45;music</title>
<path fill="#ffffff" stroke="black" stroke-width="2" d="M652,-802C652,-802 777,-802 777,-802 783,-802 789,-808 789,-814 789,-814 789,-910 789,-910 789,-916 783,-922 777,-922 777,-922 652,-922 652,-922 646,-922 640,-916 640,-910 640,-910 640,-814 640,-814 640,-808 646,-802 652,-802"/>
<text text-anchor="middle" x="714.5" y="-910.8" font-family="Helvetica,sans-Serif" font-weight="bold" font-size="9.00">cognitive&#45;theory&#45;of&#45;music</text>
</g>
<g id="clust6" class="cluster">
<title>cluster_packages/cognitive&#45;theory&#45;of&#45;music/irm</title>
<path fill="#ffffff" stroke="black" stroke-width="2" d="M683,-810C683,-810 745,-810 745,-810 751,-810 757,-816 757,-822 757,-822 757,-884 757,-884 757,-890 751,-896 745,-896 745,-896 683,-896 683,-896 677,-896 671,-890 671,-884 671,-884 671,-822 671,-822 671,-816 677,-810 683,-810"/>
<text text-anchor="middle" x="714" y="-884.8" font-family="Helvetica,sans-Serif" font-weight="bold" font-size="9.00">irm</text>
</g>
<g id="clust7" class="cluster">
<title>cluster_packages/cognitive&#45;theory&#45;of&#45;music/irm/dist</title>
<path fill="#ffffff" stroke="black" stroke-width="2" d="M691,-818C691,-818 737,-818 737,-818 743,-818 749,-824 749,-830 749,-830 749,-858 749,-858 749,-864 743,-870 737,-870 737,-870 691,-870 691,-870 685,-870 679,-864 679,-858 679,-858 679,-830 679,-830 679,-824 685,-818 691,-818"/>
<text text-anchor="middle" x="714" y="-858.8" font-family="Helvetica,sans-Serif" font-weight="bold" font-size="9.00">dist</text>
</g>
<g id="clust8" class="cluster">
<title>cluster_packages/music&#45;structure</title>
<path fill="#ffffff" stroke="black" stroke-width="2" d="M164,-324C164,-324 763,-324 763,-324 769,-324 775,-330 775,-336 775,-336 775,-688 775,-688 775,-694 769,-700 763,-700 763,-700 164,-700 164,-700 158,-700 152,-694 152,-688 152,-688 152,-336 152,-336 152,-330 158,-324 164,-324"/>
<text text-anchor="middle" x="463.5" y="-688.8" font-family="Helvetica,sans-Serif" font-weight="bold" font-size="9.00">music&#45;structure</text>
</g>
<g id="clust9" class="cluster">
<title>cluster_packages/music&#45;structure/chord</title>
<path fill="#ffffff" stroke="black" stroke-width="2" d="M326,-332C326,-332 505,-332 505,-332 511,-332 517,-338 517,-344 517,-344 517,-474 517,-474 517,-480 511,-486 505,-486 505,-486 326,-486 326,-486 320,-486 314,-480 314,-474 314,-474 314,-344 314,-344 314,-338 320,-332 326,-332"/>
<text text-anchor="middle" x="415.5" y="-474.8" font-family="Helvetica,sans-Serif" font-weight="bold" font-size="9.00">chord</text>
</g>
<g id="clust10" class="cluster">
<title>cluster_packages/music&#45;structure/chord/chord&#45;analyze</title>
<path fill="#ffffff" stroke="black" stroke-width="2" d="M334,-340C334,-340 497,-340 497,-340 503,-340 509,-346 509,-352 509,-352 509,-448 509,-448 509,-454 503,-460 497,-460 497,-460 334,-460 334,-460 328,-460 322,-454 322,-448 322,-448 322,-352 322,-352 322,-346 328,-340 334,-340"/>
<text text-anchor="middle" x="415.5" y="-448.8" font-family="Helvetica,sans-Serif" font-weight="bold" font-size="9.00">chord&#45;analyze</text>
</g>
<g id="clust11" class="cluster">
<title>cluster_packages/music&#45;structure/chord/chord&#45;analyze/src</title>
<path fill="#ffffff" stroke="black" stroke-width="2" d="M342,-348C342,-348 489,-348 489,-348 495,-348 501,-354 501,-360 501,-360 501,-422 501,-422 501,-428 495,-434 489,-434 489,-434 342,-434 342,-434 336,-434 330,-428 330,-422 330,-422 330,-360 330,-360 330,-354 336,-348 342,-348"/>
<text text-anchor="middle" x="415.5" y="-422.8" font-family="Helvetica,sans-Serif" font-weight="bold" font-size="9.00">src</text>
</g>
<g id="clust12" class="cluster">
<title>cluster_packages/music&#45;structure/chord/chord&#45;analyze/src/chord&#45;analyze</title>
<path fill="#ffffff" stroke="black" stroke-width="2" d="M350,-356C350,-356 481,-356 481,-356 487,-356 493,-362 493,-368 493,-368 493,-396 493,-396 493,-402 487,-408 481,-408 481,-408 350,-408 350,-408 344,-408 338,-402 338,-396 338,-396 338,-368 338,-368 338,-362 344,-356 350,-356"/>
<text text-anchor="middle" x="415.5" y="-396.8" font-family="Helvetica,sans-Serif" font-weight="bold" font-size="9.00">chord&#45;analyze</text>
</g>
<g id="clust13" class="cluster">
<title>cluster_packages/music&#45;structure/melody</title>
<path fill="#ffffff" stroke="black" stroke-width="2" d="M172,-494C172,-494 755,-494 755,-494 761,-494 767,-500 767,-506 767,-506 767,-662 767,-662 767,-668 761,-674 755,-674 755,-674 172,-674 172,-674 166,-674 160,-668 160,-662 160,-662 160,-506 160,-506 160,-500 166,-494 172,-494"/>
<text text-anchor="middle" x="463.5" y="-662.8" font-family="Helvetica,sans-Serif" font-weight="bold" font-size="9.00">melody</text>
</g>
<g id="clust14" class="cluster">
<title>cluster_packages/music&#45;structure/melody/melody&#45;analyze</title>
<path fill="#ffffff" stroke="black" stroke-width="2" d="M180,-502C180,-502 747,-502 747,-502 753,-502 759,-508 759,-514 759,-514 759,-636 759,-636 759,-642 753,-648 747,-648 747,-648 180,-648 180,-648 174,-648 168,-642 168,-636 168,-636 168,-514 168,-514 168,-508 174,-502 180,-502"/>
<text text-anchor="middle" x="463.5" y="-636.8" font-family="Helvetica,sans-Serif" font-weight="bold" font-size="9.00">melody&#45;analyze</text>
</g>
<g id="clust15" class="cluster">
<title>cluster_packages/music&#45;structure/melody/melody&#45;analyze/src</title>
<path fill="#ffffff" stroke="black" stroke-width="2" d="M188,-510C188,-510 739,-510 739,-510 745,-510 751,-516 751,-522 751,-522 751,-610 751,-610 751,-616 745,-622 739,-622 739,-622 188,-622 188,-622 182,-622 176,-616 176,-610 176,-610 176,-522 176,-522 176,-516 182,-510 188,-510"/>
<text text-anchor="middle" x="463.5" y="-610.8" font-family="Helvetica,sans-Serif" font-weight="bold" font-size="9.00">src</text>
</g>
<g id="clust16" class="cluster">
<title>cluster_packages/tonal&#45;objects</title>
<path fill="#ffffff" stroke="black" stroke-width="2" d="M683,-708C683,-708 745,-708 745,-708 751,-708 757,-714 757,-720 757,-720 757,-782 757,-782 757,-788 751,-794 745,-794 745,-794 683,-794 683,-794 677,-794 671,-788 671,-782 671,-782 671,-720 671,-720 671,-714 677,-708 683,-708"/>
<text text-anchor="middle" x="714" y="-782.8" font-family="Helvetica,sans-Serif" font-weight="bold" font-size="9.00">tonal&#45;objects</text>
</g>
<g id="clust17" class="cluster">
<title>cluster_packages/tonal&#45;objects/dist</title>
<path fill="#ffffff" stroke="black" stroke-width="2" d="M691,-716C691,-716 737,-716 737,-716 743,-716 749,-722 749,-728 749,-728 749,-756 749,-756 749,-762 743,-768 737,-768 737,-768 691,-768 691,-768 685,-768 679,-762 679,-756 679,-756 679,-728 679,-728 679,-722 685,-716 691,-716"/>
<text text-anchor="middle" x="714" y="-756.8" font-family="Helvetica,sans-Serif" font-weight="bold" font-size="9.00">dist</text>
</g>
<g id="clust18" class="cluster">
<title>cluster_packages/util</title>
<path fill="#ffffff" stroke="black" stroke-width="2" d="M675,-102C675,-102 753,-102 753,-102 759,-102 765,-108 765,-114 765,-114 765,-304 765,-304 765,-310 759,-316 753,-316 753,-316 675,-316 675,-316 669,-316 663,-310 663,-304 663,-304 663,-114 663,-114 663,-108 669,-102 675,-102"/>
<text text-anchor="middle" x="714" y="-304.8" font-family="Helvetica,sans-Serif" font-weight="bold" font-size="9.00">util</text>
</g>
<g id="clust19" class="cluster">
<title>cluster_packages/util/math</title>
<path fill="#ffffff" stroke="black" stroke-width="2" d="M683,-204C683,-204 745,-204 745,-204 751,-204 757,-210 757,-216 757,-216 757,-278 757,-278 757,-284 751,-290 745,-290 745,-290 683,-290 683,-290 677,-290 671,-284 671,-278 671,-278 671,-216 671,-216 671,-210 677,-204 683,-204"/>
<text text-anchor="middle" x="714" y="-278.8" font-family="Helvetica,sans-Serif" font-weight="bold" font-size="9.00">math</text>
</g>
<g id="clust20" class="cluster">
<title>cluster_packages/util/math/dist</title>
<path fill="#ffffff" stroke="black" stroke-width="2" d="M691,-212C691,-212 737,-212 737,-212 743,-212 749,-218 749,-224 749,-224 749,-252 749,-252 749,-258 743,-264 737,-264 737,-264 691,-264 691,-264 685,-264 679,-258 679,-252 679,-252 679,-224 679,-224 679,-218 685,-212 691,-212"/>
<text text-anchor="middle" x="714" y="-252.8" font-family="Helvetica,sans-Serif" font-weight="bold" font-size="9.00">dist</text>
</g>
<g id="clust21" class="cluster">
<title>cluster_packages/util/time&#45;and</title>
<path fill="#ffffff" stroke="black" stroke-width="2" d="M683,-110C683,-110 745,-110 745,-110 751,-110 757,-116 757,-122 757,-122 757,-184 757,-184 757,-190 751,-196 745,-196 745,-196 683,-196 683,-196 677,-196 671,-190 671,-184 671,-184 671,-122 671,-122 671,-116 677,-110 683,-110"/>
<text text-anchor="middle" x="714" y="-184.8" font-family="Helvetica,sans-Serif" font-weight="bold" font-size="9.00">time&#45;and</text>
</g>
<g id="clust22" class="cluster">
<title>cluster_packages/util/time&#45;and/dist</title>
<path fill="#ffffff" stroke="black" stroke-width="2" d="M691,-118C691,-118 737,-118 737,-118 743,-118 749,-124 749,-130 749,-130 749,-158 749,-158 749,-164 743,-170 737,-170 737,-170 691,-170 691,-170 685,-170 679,-164 679,-158 679,-158 679,-130 679,-130 679,-124 685,-118 691,-118"/>
<text text-anchor="middle" x="714" y="-158.8" font-family="Helvetica,sans-Serif" font-weight="bold" font-size="9.00">dist</text>
</g>
<!-- fs -->
<g id="node1" class="node">
<title>fs</title>
<g id="a_node1"><a xlink:href="https://nodejs.org/api/fs.html" xlink:title="fs">
<path fill="#ffffcc" stroke="grey" d="M266,-86C266,-86 224,-86 224,-86 221,-86 218,-83 218,-80 218,-80 218,-74 218,-74 218,-71 221,-68 224,-68 224,-68 266,-68 266,-68 269,-68 272,-71 272,-74 272,-74 272,-80 272,-80 272,-83 269,-86 266,-86"/>
<text text-anchor="middle" x="245" y="-74.8" font-family="Helvetica,sans-Serif" font-size="9.00" fill="grey">fs</text>
</a>
</g>
</g>
<!-- node_modules/yargs -->
<g id="node2" class="node">
<title>node_modules/yargs</title>
<g id="a_node2"><a xlink:href="https://www.npmjs.com/package/yargs" xlink:title="yargs">
<polygon fill="#c40b0a" fill-opacity="0.101961" stroke="black" points="272,-34 220,-34 218,-32 218,-16 270,-16 272,-18 272,-34"/>
<polyline fill="none" stroke="black" points="270,-32 218,-32 "/>
<polyline fill="none" stroke="black" points="270,-32 270,-16 "/>
<polyline fill="none" stroke="black" points="270,-32 272,-34 "/>
<text text-anchor="start" x="232.5" y="-22.8" font-family="Helvetica,sans-Serif" font-size="9.00" fill="#c40b0a">yargs</text>
</a>
</g>
</g>
<!-- packages/cli/melody&#45;analyze&#45;cli/index.ts -->
<g id="node3" class="node">
<title>packages/cli/melody&#45;analyze&#45;cli/index.ts</title>
<g id="a_node3"><a xlink:href="packages/cli/melody-analyze-cli/index.ts" xlink:title="index.ts">
<path fill="#ddfeff" stroke="black" d="M93,-497C93,-497 51,-497 51,-497 48,-497 45,-494 45,-491 45,-491 45,-485 45,-485 45,-482 48,-479 51,-479 51,-479 93,-479 93,-479 96,-479 99,-482 99,-485 99,-485 99,-491 99,-491 99,-494 96,-497 93,-497"/>
<text text-anchor="start" x="53.5" y="-485.8" font-family="Helvetica,sans-Serif" font-size="9.00">index.ts</text>
</a>
</g>
</g>
<!-- packages/cli/melody&#45;analyze&#45;cli/index.ts&#45;&gt;fs -->
<g id="edge5" class="edge">
<title>packages/cli/melody&#45;analyze&#45;cli/index.ts&#45;&gt;fs</title>
<path fill="none" stroke="#000000" stroke-dasharray="5,2" stroke-opacity="0.200000" d="M76.89,-478.64C99.14,-425.17 210.19,-158.27 237.78,-91.94"/>
<polygon fill="#000000" fill-opacity="0.200000" stroke="#000000" stroke-opacity="0.200000" points="239.82,-92.51 240.19,-86.16 235.94,-90.9 239.82,-92.51"/>
</g>
<!-- packages/cli/melody&#45;analyze&#45;cli/index.ts&#45;&gt;node_modules/yargs -->
<g id="edge6" class="edge">
<title>packages/cli/melody&#45;analyze&#45;cli/index.ts&#45;&gt;node_modules/yargs</title>
<path fill="none" stroke="#000000" stroke-opacity="0.200000" d="M76.42,-478.75C97.66,-421.22 211.7,-112.47 238.4,-40.16"/>
<polygon fill="#000000" fill-opacity="0.200000" stroke="#000000" stroke-opacity="0.200000" points="240.47,-40.63 240.58,-34.27 236.53,-39.17 240.47,-40.63"/>
</g>
<!-- packages/music&#45;structure/chord/chord&#45;analyze/src/chord&#45;analyze/time&#45;and&#45;roman&#45;analysis.ts -->
<g id="node4" class="node">
<title>packages/music&#45;structure/chord/chord&#45;analyze/src/chord&#45;analyze/time&#45;and&#45;roman&#45;analysis.ts</title>
<g id="a_node4"><a xlink:href="packages/music-structure/chord/chord-analyze/src/chord-analyze/time-and-roman-analysis.ts" xlink:title="time&#45;and&#45;roman&#45;analysis.ts">
<path fill="#ddfeff" stroke="black" d="M479,-382C479,-382 352,-382 352,-382 349,-382 346,-379 346,-376 346,-376 346,-370 346,-370 346,-367 349,-364 352,-364 352,-364 479,-364 479,-364 482,-364 485,-367 485,-370 485,-370 485,-376 485,-376 485,-379 482,-382 479,-382"/>
<text text-anchor="start" x="354" y="-370.8" font-family="Helvetica,sans-Serif" font-size="9.00">time&#45;and&#45;roman&#45;analysis.ts</text>
</a>
</g>
</g>
<!-- packages/cli/melody&#45;analyze&#45;cli/index.ts&#45;&gt;packages/music&#45;structure/chord/chord&#45;analyze/src/chord&#45;analyze/time&#45;and&#45;roman&#45;analysis.ts -->
<g id="edge1" class="edge">
<title>packages/cli/melody&#45;analyze&#45;cli/index.ts&#45;&gt;packages/music&#45;structure/chord/chord&#45;analyze/src/chord&#45;analyze/time&#45;and&#45;roman&#45;analysis.ts</title>
<path fill="none" stroke="#000000" stroke-width="2" stroke-opacity="0.200000" d="M98.95,-478.98C161.13,-458.16 314.45,-406.83 382.29,-384.12"/>
<polygon fill="#000000" fill-opacity="0.200000" stroke="#000000" stroke-width="2" stroke-opacity="0.200000" points="383.17,-386.04 388.2,-382.14 381.84,-382.05 383.17,-386.04"/>
</g>
<!-- packages/music&#45;structure/melody/melody&#45;analyze/src/analyze&#45;melody.ts -->
<g id="node5" class="node">
<title>packages/music&#45;structure/melody/melody&#45;analyze/src/analyze&#45;melody.ts</title>
<g id="a_node5"><a xlink:href="packages/music-structure/melody/melody-analyze/src/analyze-melody.ts" xlink:title="analyze&#45;melody.ts">
<path fill="#ddfeff" stroke="black" d="M287,-596C287,-596 203,-596 203,-596 200,-596 197,-593 197,-590 197,-590 197,-584 197,-584 197,-581 200,-578 203,-578 203,-578 287,-578 287,-578 290,-578 293,-581 293,-584 293,-584 293,-590 293,-590 293,-593 290,-596 287,-596"/>
<text text-anchor="start" x="205" y="-584.8" font-family="Helvetica,sans-Serif" font-size="9.00">analyze&#45;melody.ts</text>
</a>
</g>
</g>
<!-- packages/cli/melody&#45;analyze&#45;cli/index.ts&#45;&gt;packages/music&#45;structure/melody/melody&#45;analyze/src/analyze&#45;melody.ts -->
<g id="edge2" class="edge">
<title>packages/cli/melody&#45;analyze&#45;cli/index.ts&#45;&gt;packages/music&#45;structure/melody/melody&#45;analyze/src/analyze&#45;melody.ts</title>
<path fill="none" stroke="#000000" stroke-width="2" stroke-opacity="0.200000" d="M88.78,-497.14C119.7,-515.04 188.27,-554.74 222.99,-574.83"/>
<polygon fill="#000000" fill-opacity="0.200000" stroke="#000000" stroke-width="2" stroke-opacity="0.200000" points="222.01,-576.7 228.26,-577.89 224.12,-573.06 222.01,-576.7"/>
</g>
<!-- packages/music&#45;structure/melody/melody&#45;analyze/src/get&#45;time&#45;and&#45;melody.ts -->
<g id="node6" class="node">
<title>packages/music&#45;structure/melody/melody&#45;analyze/src/get&#45;time&#45;and&#45;melody.ts</title>
<g id="a_node6"><a xlink:href="packages/music-structure/melody/melody-analyze/src/get-time-and-melody.ts" xlink:title="get&#45;time&#45;and&#45;melody.ts">
<path fill="#ddfeff" stroke="black" d="M299.5,-536C299.5,-536 190.5,-536 190.5,-536 187.5,-536 184.5,-533 184.5,-530 184.5,-530 184.5,-524 184.5,-524 184.5,-521 187.5,-518 190.5,-518 190.5,-518 299.5,-518 299.5,-518 302.5,-518 305.5,-521 305.5,-524 305.5,-524 305.5,-530 305.5,-530 305.5,-533 302.5,-536 299.5,-536"/>
<text text-anchor="start" x="192.5" y="-524.8" font-family="Helvetica,sans-Serif" font-size="9.00">get&#45;time&#45;and&#45;melody.ts</text>
</a>
</g>
</g>
<!-- packages/cli/melody&#45;analyze&#45;cli/index.ts&#45;&gt;packages/music&#45;structure/melody/melody&#45;analyze/src/get&#45;time&#45;and&#45;melody.ts -->
<g id="edge3" class="edge">
<title>packages/cli/melody&#45;analyze&#45;cli/index.ts&#45;&gt;packages/music&#45;structure/melody/melody&#45;analyze/src/get&#45;time&#45;and&#45;melody.ts</title>
<path fill="none" stroke="#000000" stroke-width="2" stroke-opacity="0.200000" d="M99.34,-494.01C125.61,-500 166.47,-509.32 198.08,-516.53"/>
<polygon fill="#000000" fill-opacity="0.200000" stroke="#000000" stroke-width="2" stroke-opacity="0.200000" points="197.95,-518.65 204.27,-517.94 198.89,-514.56 197.95,-518.65"/>
</g>
<!-- packages/music&#45;structure/melody/melody&#45;analyze/src/melody&#45;analysis&#45;data.ts -->
<g id="node7" class="node">
<title>packages/music&#45;structure/melody/melody&#45;analyze/src/melody&#45;analysis&#45;data.ts</title>
<g id="a_node7"><a xlink:href="packages/music-structure/melody/melody-analyze/src/melody-analysis-data.ts" xlink:title="melody&#45;analysis&#45;data.ts">
<path fill="#ddfeff" stroke="black" d="M300,-566C300,-566 190,-566 190,-566 187,-566 184,-563 184,-560 184,-560 184,-554 184,-554 184,-551 187,-548 190,-548 190,-548 300,-548 300,-548 303,-548 306,-551 306,-554 306,-554 306,-560 306,-560 306,-563 303,-566 300,-566"/>
<text text-anchor="start" x="192" y="-554.8" font-family="Helvetica,sans-Serif" font-size="9.00">melody&#45;analysis&#45;data.ts</text>
</a>
</g>
</g>
<!-- packages/cli/melody&#45;analyze&#45;cli/index.ts&#45;&gt;packages/music&#45;structure/melody/melody&#45;analyze/src/melody&#45;analysis&#45;data.ts -->
<g id="edge4" class="edge">
<title>packages/cli/melody&#45;analyze&#45;cli/index.ts&#45;&gt;packages/music&#45;structure/melody/melody&#45;analyze/src/melody&#45;analysis&#45;data.ts</title>
<path fill="none" stroke="#000000" stroke-width="2" stroke-opacity="0.200000" d="M95.36,-497.02C126.34,-509.52 182.3,-532.11 216.02,-545.71"/>
<polygon fill="#000000" fill-opacity="0.200000" stroke="#000000" stroke-width="2" stroke-opacity="0.200000" points="215.29,-547.68 221.64,-547.98 216.86,-543.78 215.29,-547.68"/>
</g>
<!-- packages/util/time&#45;and/dist/index.js -->
<g id="node9" class="node">
<title>packages/util/time&#45;and/dist/index.js</title>
<g id="a_node9"><a xlink:href="packages/util/time-and/dist/index.js" xlink:title="index.js">
<polygon fill="#ffffcc" stroke="black" points="741,-144 739.5,-146 729,-146 727.5,-144 687,-144 687,-126 741,-126 741,-144"/>
<text text-anchor="start" x="696.5" y="-132.8" font-family="Helvetica,sans-Serif" font-size="9.00">index.js</text>
</a>
</g>
</g>
<!-- packages/music&#45;structure/chord/chord&#45;analyze/src/chord&#45;analyze/time&#45;and&#45;roman&#45;analysis.ts&#45;&gt;packages/util/time&#45;and/dist/index.js -->
<g id="edge7" class="edge">
<title>packages/music&#45;structure/chord/chord&#45;analyze/src/chord&#45;analyze/time&#45;and&#45;roman&#45;analysis.ts&#45;&gt;packages/util/time&#45;and/dist/index.js</title>
<path fill="none" stroke="#000000" stroke-width="2" stroke-opacity="0.200000" d="M426.84,-363.96C472.64,-327.44 644.15,-190.69 697.83,-147.89"/>
<polygon fill="#000000" fill-opacity="0.200000" stroke="#000000" stroke-width="2" stroke-opacity="0.200000" points="699.27,-149.43 702.65,-144.05 696.65,-146.15 699.27,-149.43"/>
</g>
<!-- packages/music&#45;structure/melody/melody&#45;analyze/src/analyze&#45;melody.ts&#45;&gt;packages/music&#45;structure/chord/chord&#45;analyze/src/chord&#45;analyze/time&#45;and&#45;roman&#45;analysis.ts -->
<g id="edge12" class="edge">
<title>packages/music&#45;structure/melody/melody&#45;analyze/src/analyze&#45;melody.ts&#45;&gt;packages/music&#45;structure/chord/chord&#45;analyze/src/chord&#45;analyze/time&#45;and&#45;roman&#45;analysis.ts</title>
<path fill="none" stroke="#000000" stroke-width="2" stroke-opacity="0.200000" d="M253.24,-577.8C279.65,-544.27 370.9,-428.37 403.13,-387.45"/>
<polygon fill="#000000" fill-opacity="0.200000" stroke="#000000" stroke-width="2" stroke-opacity="0.200000" points="405.04,-388.42 407.1,-382.4 401.74,-385.82 405.04,-388.42"/>
</g>
<!-- packages/cognitive&#45;theory&#45;of&#45;music/irm/dist/index.js -->
<g id="node8" class="node">
<title>packages/cognitive&#45;theory&#45;of&#45;music/irm/dist/index.js</title>
<g id="a_node8"><a xlink:href="packages/cognitive-theory-of-music/irm/dist/index.js" xlink:title="index.js">
<polygon fill="#ffffcc" stroke="black" points="741,-844 739.5,-846 729,-846 727.5,-844 687,-844 687,-826 741,-826 741,-844"/>
<text text-anchor="start" x="696.5" y="-832.8" font-family="Helvetica,sans-Serif" font-size="9.00">index.js</text>
</a>
</g>
</g>
<!-- packages/music&#45;structure/melody/melody&#45;analyze/src/analyze&#45;melody.ts&#45;&gt;packages/cognitive&#45;theory&#45;of&#45;music/irm/dist/index.js -->
<g id="edge13" class="edge">
<title>packages/music&#45;structure/melody/melody&#45;analyze/src/analyze&#45;melody.ts&#45;&gt;packages/cognitive&#45;theory&#45;of&#45;music/irm/dist/index.js</title>
<path fill="none" stroke="#000000" stroke-width="2" stroke-opacity="0.200000" d="M262.25,-596.12C334.07,-634.1 609.42,-779.7 691.06,-822.87"/>
<polygon fill="#000000" fill-opacity="0.200000" stroke="#000000" stroke-width="2" stroke-opacity="0.200000" points="690.31,-824.85 696.59,-825.8 692.27,-821.14 690.31,-824.85"/>
</g>
<!-- packages/music&#45;structure/melody/melody&#45;analyze/src/melody&#45;analysis.ts -->
<g id="node10" class="node">
<title>packages/music&#45;structure/melody/melody&#45;analyze/src/melody&#45;analysis.ts</title>
<g id="a_node10"><a xlink:href="packages/music-structure/melody/melody-analyze/src/melody-analysis.ts" xlink:title="melody&#45;analysis.ts">
<path fill="#ddfeff" stroke="black" d="M618,-596C618,-596 531,-596 531,-596 528,-596 525,-593 525,-590 525,-590 525,-584 525,-584 525,-581 528,-578 531,-578 531,-578 618,-578 618,-578 621,-578 624,-581 624,-584 624,-584 624,-590 624,-590 624,-593 621,-596 618,-596"/>
<text text-anchor="start" x="533" y="-584.8" font-family="Helvetica,sans-Serif" font-size="9.00">melody&#45;analysis.ts</text>
</a>
</g>
</g>
<!-- packages/music&#45;structure/melody/melody&#45;analyze/src/analyze&#45;melody.ts&#45;&gt;packages/music&#45;structure/melody/melody&#45;analyze/src/melody&#45;analysis.ts -->
<g id="edge8" class="edge">
<title>packages/music&#45;structure/melody/melody&#45;analyze/src/analyze&#45;melody.ts&#45;&gt;packages/music&#45;structure/melody/melody&#45;analyze/src/melody&#45;analysis.ts</title>
<path fill="none" stroke="#000000" stroke-width="2" stroke-opacity="0.200000" d="M293.27,-587C353.15,-587 455.06,-587 518.37,-587"/>
<polygon fill="#000000" fill-opacity="0.200000" stroke="#000000" stroke-width="2" stroke-opacity="0.200000" points="518.76,-589.1 524.76,-587 518.76,-584.9 518.76,-589.1"/>
</g>
<!-- packages/music&#45;structure/melody/melody&#45;analyze/src/register&#45;gravity.ts -->
<g id="node11" class="node">
<title>packages/music&#45;structure/melody/melody&#45;analyze/src/register&#45;gravity.ts</title>
<g id="a_node11"><a xlink:href="packages/music-structure/melody/melody-analyze/src/register-gravity.ts" xlink:title="register&#45;gravity.ts">
<path fill="#ddfeff" stroke="black" d="M616,-566C616,-566 533,-566 533,-566 530,-566 527,-563 527,-560 527,-560 527,-554 527,-554 527,-551 530,-548 533,-548 533,-548 616,-548 616,-548 619,-548 622,-551 622,-554 622,-554 622,-560 622,-560 622,-563 619,-566 616,-566"/>
<text text-anchor="start" x="535" y="-554.8" font-family="Helvetica,sans-Serif" font-size="9.00">register&#45;gravity.ts</text>
</a>
</g>
</g>
<!-- packages/music&#45;structure/melody/melody&#45;analyze/src/analyze&#45;melody.ts&#45;&gt;packages/music&#45;structure/melody/melody&#45;analyze/src/register&#45;gravity.ts -->
<g id="edge9" class="edge">
<title>packages/music&#45;structure/melody/melody&#45;analyze/src/analyze&#45;melody.ts&#45;&gt;packages/music&#45;structure/melody/melody&#45;analyze/src/register&#45;gravity.ts</title>
<path fill="none" stroke="#000000" stroke-width="2" stroke-opacity="0.200000" d="M293.27,-582.61C353.96,-577.08 457.84,-567.62 520.93,-561.88"/>
<polygon fill="#000000" fill-opacity="0.200000" stroke="#000000" stroke-width="2" stroke-opacity="0.200000" points="521.12,-563.97 526.91,-561.33 520.74,-559.79 521.12,-563.97"/>
</g>
<!-- packages/music&#45;structure/melody/melody&#45;analyze/src/time&#45;and&#45;analyzed&#45;melody.ts -->
<g id="node12" class="node">
<title>packages/music&#45;structure/melody/melody&#45;analyze/src/time&#45;and&#45;analyzed&#45;melody.ts</title>
<g id="a_node12"><a xlink:href="packages/music-structure/melody/melody-analyze/src/time-and-analyzed-melody.ts" xlink:title="time&#45;and&#45;analyzed&#45;melody.ts">
<path fill="#ddfeff" stroke="black" d="M482.5,-566C482.5,-566 348.5,-566 348.5,-566 345.5,-566 342.5,-563 342.5,-560 342.5,-560 342.5,-554 342.5,-554 342.5,-551 345.5,-548 348.5,-548 348.5,-548 482.5,-548 482.5,-548 485.5,-548 488.5,-551 488.5,-554 488.5,-554 488.5,-560 488.5,-560 488.5,-563 485.5,-566 482.5,-566"/>
<text text-anchor="start" x="350.5" y="-554.8" font-family="Helvetica,sans-Serif" font-size="9.00">time&#45;and&#45;analyzed&#45;melody.ts</text>
</a>
</g>
</g>
<!-- packages/music&#45;structure/melody/melody&#45;analyze/src/analyze&#45;melody.ts&#45;&gt;packages/music&#45;structure/melody/melody&#45;analyze/src/time&#45;and&#45;analyzed&#45;melody.ts -->
<g id="edge10" class="edge">
<title>packages/music&#45;structure/melody/melody&#45;analyze/src/analyze&#45;melody.ts&#45;&gt;packages/music&#45;structure/melody/melody&#45;analyze/src/time&#45;and&#45;analyzed&#45;melody.ts</title>
<path fill="none" stroke="#000000" stroke-width="2" stroke-opacity="0.200000" d="M293.39,-578.56C313.41,-575 336.89,-570.82 357.82,-567.09"/>
<polygon fill="#000000" fill-opacity="0.200000" stroke="#000000" stroke-width="2" stroke-opacity="0.200000" points="358.4,-569.12 363.94,-566 357.66,-564.99 358.4,-569.12"/>
</g>
<!-- packages/music&#45;structure/melody/melody&#45;analyze/src/time&#45;and&#45;melody.ts -->
<g id="node13" class="node">
<title>packages/music&#45;structure/melody/melody&#45;analyze/src/time&#45;and&#45;melody.ts</title>
<g id="a_node13"><a xlink:href="packages/music-structure/melody/melody-analyze/src/time-and-melody.ts" xlink:title="time&#45;and&#45;melody.ts">
<path fill="#ddfeff" stroke="black" d="M461,-536C461,-536 370,-536 370,-536 367,-536 364,-533 364,-530 364,-530 364,-524 364,-524 364,-521 367,-518 370,-518 370,-518 461,-518 461,-518 464,-518 467,-521 467,-524 467,-524 467,-530 467,-530 467,-533 464,-536 461,-536"/>
<text text-anchor="start" x="372" y="-524.8" font-family="Helvetica,sans-Serif" font-size="9.00">time&#45;and&#45;melody.ts</text>
</a>
</g>
</g>
<!-- packages/music&#45;structure/melody/melody&#45;analyze/src/analyze&#45;melody.ts&#45;&gt;packages/music&#45;structure/melody/melody&#45;analyze/src/time&#45;and&#45;melody.ts -->
<g id="edge11" class="edge">
<title>packages/music&#45;structure/melody/melody&#45;analyze/src/analyze&#45;melody.ts&#45;&gt;packages/music&#45;structure/melody/melody&#45;analyze/src/time&#45;and&#45;melody.ts</title>
<path fill="none" stroke="#000000" stroke-width="2" stroke-opacity="0.200000" d="M271.59,-577.89C301.58,-567.21 351.25,-549.52 383.42,-538.07"/>
<polygon fill="#000000" fill-opacity="0.200000" stroke="#000000" stroke-width="2" stroke-opacity="0.200000" points="384.27,-539.99 389.22,-536 382.86,-536.04 384.27,-539.99"/>
</g>
<!-- packages/tonal&#45;objects/dist/index.js -->
<g id="node14" class="node">
<title>packages/tonal&#45;objects/dist/index.js</title>
<g id="a_node14"><a xlink:href="packages/tonal-objects/dist/index.js" xlink:title="index.js">
<polygon fill="#ffffcc" stroke="black" points="741,-742 739.5,-744 729,-744 727.5,-742 687,-742 687,-724 741,-724 741,-742"/>
<text text-anchor="start" x="696.5" y="-730.8" font-family="Helvetica,sans-Serif" font-size="9.00">index.js</text>
</a>
</g>
</g>
<!-- packages/music&#45;structure/melody/melody&#45;analyze/src/analyze&#45;melody.ts&#45;&gt;packages/tonal&#45;objects/dist/index.js -->
<g id="edge14" class="edge">
<title>packages/music&#45;structure/melody/melody&#45;analyze/src/analyze&#45;melody.ts&#45;&gt;packages/tonal&#45;objects/dist/index.js</title>
<path fill="none" stroke="#000000" stroke-width="2" stroke-opacity="0.200000" d="M273.98,-596.02C356.76,-621.79 593.87,-695.6 681.2,-722.79"/>
<polygon fill="#000000" fill-opacity="0.200000" stroke="#000000" stroke-width="2" stroke-opacity="0.200000" points="680.62,-724.81 686.98,-724.59 681.87,-720.8 680.62,-724.81"/>
</g>
<!-- packages/music&#45;structure/melody/melody&#45;analyze/src/get&#45;time&#45;and&#45;melody.ts&#45;&gt;packages/util/time&#45;and/dist/index.js -->
<g id="edge16" class="edge">
<title>packages/music&#45;structure/melody/melody&#45;analyze/src/get&#45;time&#45;and&#45;melody.ts&#45;&gt;packages/util/time&#45;and/dist/index.js</title>
<path fill="none" stroke="#000000" stroke-width="2" stroke-opacity="0.200000" d="M256.13,-517.7C318.58,-465.5 625.21,-209.21 698.33,-148.1"/>
<polygon fill="#000000" fill-opacity="0.200000" stroke="#000000" stroke-width="2" stroke-opacity="0.200000" points="699.92,-149.5 703.18,-144.04 697.23,-146.28 699.92,-149.5"/>
</g>
<!-- packages/music&#45;structure/melody/melody&#45;analyze/src/get&#45;time&#45;and&#45;melody.ts&#45;&gt;packages/music&#45;structure/melody/melody&#45;analyze/src/time&#45;and&#45;melody.ts -->
<g id="edge15" class="edge">
<title>packages/music&#45;structure/melody/melody&#45;analyze/src/get&#45;time&#45;and&#45;melody.ts&#45;&gt;packages/music&#45;structure/melody/melody&#45;analyze/src/time&#45;and&#45;melody.ts</title>
<path fill="none" stroke="#000000" stroke-width="2" stroke-opacity="0.200000" d="M305.88,-527C322.73,-527 341,-527 357.67,-527"/>
<polygon fill="#000000" fill-opacity="0.200000" stroke="#000000" stroke-width="2" stroke-opacity="0.200000" points="357.73,-529.1 363.73,-527 357.73,-524.9 357.73,-529.1"/>
</g>
<!-- packages/music&#45;structure/melody/melody&#45;analyze/src/melody&#45;analysis&#45;data.ts&#45;&gt;packages/music&#45;structure/melody/melody&#45;analyze/src/time&#45;and&#45;analyzed&#45;melody.ts -->
<g id="edge17" class="edge">
<title>packages/music&#45;structure/melody/melody&#45;analyze/src/melody&#45;analysis&#45;data.ts&#45;&gt;packages/music&#45;structure/melody/melody&#45;analyze/src/time&#45;and&#45;analyzed&#45;melody.ts</title>
<path fill="none" stroke="#000000" stroke-width="2" stroke-opacity="0.200000" d="M306.36,-557C316.05,-557 326.21,-557 336.25,-557"/>
<polygon fill="#000000" fill-opacity="0.200000" stroke="#000000" stroke-width="2" stroke-opacity="0.200000" points="336.49,-559.1 342.49,-557 336.49,-554.9 336.49,-559.1"/>
</g>
<!-- packages/music&#45;structure/melody/melody&#45;analyze/src/melody&#45;analysis.ts&#45;&gt;packages/cognitive&#45;theory&#45;of&#45;music/irm/dist/index.js -->
<g id="edge19" class="edge">
<title>packages/music&#45;structure/melody/melody&#45;analyze/src/melody&#45;analysis.ts&#45;&gt;packages/cognitive&#45;theory&#45;of&#45;music/irm/dist/index.js</title>
<path fill="none" stroke="#000000" stroke-width="2" stroke-opacity="0.200000" d="M580.56,-596.12C601.23,-633.41 679.45,-774.49 704.93,-820.44"/>
<polygon fill="#000000" fill-opacity="0.200000" stroke="#000000" stroke-width="2" stroke-opacity="0.200000" points="703.15,-821.57 707.9,-825.8 706.82,-819.53 703.15,-821.57"/>
</g>
<!-- packages/music&#45;structure/melody/melody&#45;analyze/src/gravity.ts -->
<g id="node15" class="node">
<title>packages/music&#45;structure/melody/melody&#45;analyze/src/gravity.ts</title>
<g id="a_node15"><a xlink:href="packages/music-structure/melody/melody-analyze/src/gravity.ts" xlink:title="gravity.ts">
<path fill="#ddfeff" stroke="black" d="M737,-581C737,-581 691,-581 691,-581 688,-581 685,-578 685,-575 685,-575 685,-569 685,-569 685,-566 688,-563 691,-563 691,-563 737,-563 737,-563 740,-563 743,-566 743,-569 743,-569 743,-575 743,-575 743,-578 740,-581 737,-581"/>
<text text-anchor="start" x="693" y="-569.8" font-family="Helvetica,sans-Serif" font-size="9.00">gravity.ts</text>
</a>
</g>
</g>
<!-- packages/music&#45;structure/melody/melody&#45;analyze/src/melody&#45;analysis.ts&#45;&gt;packages/music&#45;structure/melody/melody&#45;analyze/src/gravity.ts -->
<g id="edge18" class="edge">
<title>packages/music&#45;structure/melody/melody&#45;analyze/src/melody&#45;analysis.ts&#45;&gt;packages/music&#45;structure/melody/melody&#45;analyze/src/gravity.ts</title>
<path fill="none" stroke="#000000" stroke-width="2" stroke-opacity="0.200000" d="M624.36,-581.67C642.22,-579.72 662.03,-577.56 678.39,-575.78"/>
<polygon fill="#000000" fill-opacity="0.200000" stroke="#000000" stroke-width="2" stroke-opacity="0.200000" points="678.97,-577.83 684.71,-575.09 678.51,-573.65 678.97,-577.83"/>
</g>
<!-- packages/music&#45;structure/melody/melody&#45;analyze/src/register&#45;gravity.ts&#45;&gt;packages/tonal&#45;objects/dist/index.js -->
<g id="edge22" class="edge">
<title>packages/music&#45;structure/melody/melody&#45;analyze/src/register&#45;gravity.ts&#45;&gt;packages/tonal&#45;objects/dist/index.js</title>
<path fill="none" stroke="#000000" stroke-width="2" stroke-opacity="0.200000" d="M582.89,-566.46C605.66,-595.61 674.81,-684.12 701.93,-718.83"/>
<polygon fill="#000000" fill-opacity="0.200000" stroke="#000000" stroke-width="2" stroke-opacity="0.200000" points="700.55,-720.48 705.9,-723.92 703.86,-717.89 700.55,-720.48"/>
</g>
<!-- packages/music&#45;structure/melody/melody&#45;analyze/src/register&#45;gravity.ts&#45;&gt;packages/music&#45;structure/melody/melody&#45;analyze/src/gravity.ts -->
<g id="edge20" class="edge">
<title>packages/music&#45;structure/melody/melody&#45;analyze/src/register&#45;gravity.ts&#45;&gt;packages/music&#45;structure/melody/melody&#45;analyze/src/gravity.ts</title>
<path fill="none" stroke="#000000" stroke-width="2" stroke-opacity="0.200000" d="M622.05,-562.08C640.65,-564.11 661.67,-566.4 678.82,-568.27"/>
<polygon fill="#000000" fill-opacity="0.200000" stroke="#000000" stroke-width="2" stroke-opacity="0.200000" points="678.75,-570.38 684.95,-568.94 679.21,-566.2 678.75,-570.38"/>
</g>
<!-- packages/util/math/dist/index.js -->
<g id="node16" class="node">
<title>packages/util/math/dist/index.js</title>
<g id="a_node16"><a xlink:href="packages/util/math/dist/index.js" xlink:title="index.js">
<polygon fill="#ffffcc" stroke="black" points="741,-238 739.5,-240 729,-240 727.5,-238 687,-238 687,-220 741,-220 741,-238"/>
<text text-anchor="start" x="696.5" y="-226.8" font-family="Helvetica,sans-Serif" font-size="9.00">index.js</text>
</a>
</g>
</g>
<!-- packages/music&#45;structure/melody/melody&#45;analyze/src/register&#45;gravity.ts&#45;&gt;packages/util/math/dist/index.js -->
<g id="edge21" class="edge">
<title>packages/music&#45;structure/melody/melody&#45;analyze/src/register&#45;gravity.ts&#45;&gt;packages/util/math/dist/index.js</title>
<path fill="none" stroke="#000000" stroke-width="2" stroke-opacity="0.200000" d="M579.32,-547.89C598.36,-502.46 683.03,-300.49 706.78,-243.83"/>
<polygon fill="#000000" fill-opacity="0.200000" stroke="#000000" stroke-width="2" stroke-opacity="0.200000" points="708.75,-244.57 709.13,-238.23 704.88,-242.95 708.75,-244.57"/>
</g>
<!-- packages/music&#45;structure/melody/melody&#45;analyze/src/time&#45;and&#45;analyzed&#45;melody.ts&#45;&gt;packages/util/time&#45;and/dist/index.js -->
<g id="edge24" class="edge">
<title>packages/music&#45;structure/melody/melody&#45;analyze/src/time&#45;and&#45;analyzed&#45;melody.ts&#45;&gt;packages/util/time&#45;and/dist/index.js</title>
<path fill="none" stroke="#000000" stroke-width="2" stroke-opacity="0.200000" d="M422.01,-547.79C460.41,-493.51 657.15,-215.36 703.99,-149.16"/>
<polygon fill="#000000" fill-opacity="0.200000" stroke="#000000" stroke-width="2" stroke-opacity="0.200000" points="705.82,-150.2 707.57,-144.09 702.39,-147.77 705.82,-150.2"/>
</g>
<!-- packages/music&#45;structure/melody/melody&#45;analyze/src/time&#45;and&#45;analyzed&#45;melody.ts&#45;&gt;packages/music&#45;structure/melody/melody&#45;analyze/src/melody&#45;analysis.ts -->
<g id="edge23" class="edge">
<title>packages/music&#45;structure/melody/melody&#45;analyze/src/time&#45;and&#45;analyzed&#45;melody.ts&#45;&gt;packages/music&#45;structure/melody/melody&#45;analyze/src/melody&#45;analysis.ts</title>
<path fill="none" stroke="#000000" stroke-width="2" stroke-opacity="0.200000" d="M463.61,-566C481.38,-569.4 501.72,-573.28 520.03,-576.78"/>
<polygon fill="#000000" fill-opacity="0.200000" stroke="#000000" stroke-width="2" stroke-opacity="0.200000" points="519.87,-578.89 526.16,-577.95 520.66,-574.76 519.87,-578.89"/>
</g>
<!-- packages/music&#45;structure/melody/melody&#45;analyze/src/time&#45;and&#45;melody.ts&#45;&gt;packages/util/time&#45;and/dist/index.js -->
<g id="edge25" class="edge">
<title>packages/music&#45;structure/melody/melody&#45;analyze/src/time&#45;and&#45;melody.ts&#45;&gt;packages/util/time&#45;and/dist/index.js</title>
<path fill="none" stroke="#000000" stroke-width="2" stroke-opacity="0.200000" d="M422.58,-517.7C462.17,-465.71 655.93,-211.26 703.46,-148.84"/>
<polygon fill="#000000" fill-opacity="0.200000" stroke="#000000" stroke-width="2" stroke-opacity="0.200000" points="705.15,-150.09 707.11,-144.04 701.81,-147.55 705.15,-150.09"/>
</g>
</g>
</svg>
