<?xml version="1.0" encoding="UTF-8" standalone="no"?>
<!DOCTYPE svg PUBLIC "-//W3C//DTD SVG 1.1//EN"
 "http://www.w3.org/Graphics/SVG/1.1/DTD/svg11.dtd">
<!-- Generated by graphviz version 2.43.0 (0)
 -->
<!-- Title: dependency&#45;cruiser output Pages: 1 -->
<svg width="807pt" height="998pt"
 viewBox="0.00 0.00 807.00 998.00" xmlns="http://www.w3.org/2000/svg" xmlns:xlink="http://www.w3.org/1999/xlink">
<g id="graph0" class="graph" transform="scale(1 1) rotate(0) translate(4 994)">
<title>dependency&#45;cruiser output</title>
<polygon fill="white" stroke="transparent" points="-4,4 -4,-994 803,-994 803,4 -4,4"/>
<g id="clust1" class="cluster">
<title>cluster_node_modules</title>
<path fill="#ffffff" stroke="black" stroke-width="2" d="M212,-8C212,-8 278,-8 278,-8 284,-8 290,-14 290,-20 290,-20 290,-48 290,-48 290,-54 284,-60 278,-60 278,-60 212,-60 212,-60 206,-60 200,-54 200,-48 200,-48 200,-20 200,-20 200,-14 206,-8 212,-8"/>
<text text-anchor="middle" x="245" y="-48.8" font-family="Helvetica,sans-Serif" font-weight="bold" font-size="9.00">node_modules</text>
</g>
<g id="clust2" class="cluster">
<title>cluster_packages</title>
<path fill="#ffffff" stroke="black" stroke-width="2" d="M12,-94C12,-94 787,-94 787,-94 793,-94 799,-100 799,-106 799,-106 799,-970 799,-970 799,-976 793,-982 787,-982 787,-982 12,-982 12,-982 6,-982 0,-976 0,-970 0,-970 0,-106 0,-106 0,-100 6,-94 12,-94"/>
<text text-anchor="middle" x="399.5" y="-970.8" font-family="Helvetica,sans-Serif" font-weight="bold" font-size="9.00">packages</text>
</g>
<g id="clust3" class="cluster">
<title>cluster_packages/cli</title>
<path fill="#ffffff" stroke="black" stroke-width="2" d="M20,-497C20,-497 124,-497 124,-497 130,-497 136,-503 136,-509 136,-509 136,-571 136,-571 136,-577 130,-583 124,-583 124,-583 20,-583 20,-583 14,-583 8,-577 8,-571 8,-571 8,-509 8,-509 8,-503 14,-497 20,-497"/>
<text text-anchor="middle" x="72" y="-571.8" font-family="Helvetica,sans-Serif" font-weight="bold" font-size="9.00">cli</text>
</g>
<g id="clust4" class="cluster">
<title>cluster_packages/cli/melody&#45;analyze&#45;cli</title>
<path fill="#ffffff" stroke="black" stroke-width="2" d="M28,-505C28,-505 116,-505 116,-505 122,-505 128,-511 128,-517 128,-517 128,-545 128,-545 128,-551 122,-557 116,-557 116,-557 28,-557 28,-557 22,-557 16,-551 16,-545 16,-545 16,-517 16,-517 16,-511 22,-505 28,-505"/>
<text text-anchor="middle" x="72" y="-545.8" font-family="Helvetica,sans-Serif" font-weight="bold" font-size="9.00">melody&#45;analyze&#45;cli</text>
</g>
<g id="clust5" class="cluster">
<title>cluster_packages/cognitive&#45;theory&#45;of&#45;music</title>
<path fill="#ffffff" stroke="black" stroke-width="2" d="M654,-836C654,-836 779,-836 779,-836 785,-836 791,-842 791,-848 791,-848 791,-944 791,-944 791,-950 785,-956 779,-956 779,-956 654,-956 654,-956 648,-956 642,-950 642,-944 642,-944 642,-848 642,-848 642,-842 648,-836 654,-836"/>
<text text-anchor="middle" x="716.5" y="-944.8" font-family="Helvetica,sans-Serif" font-weight="bold" font-size="9.00">cognitive&#45;theory&#45;of&#45;music</text>
</g>
<g id="clust6" class="cluster">
<title>cluster_packages/cognitive&#45;theory&#45;of&#45;music/irm</title>
<path fill="#ffffff" stroke="black" stroke-width="2" d="M685,-844C685,-844 747,-844 747,-844 753,-844 759,-850 759,-856 759,-856 759,-918 759,-918 759,-924 753,-930 747,-930 747,-930 685,-930 685,-930 679,-930 673,-924 673,-918 673,-918 673,-856 673,-856 673,-850 679,-844 685,-844"/>
<text text-anchor="middle" x="716" y="-918.8" font-family="Helvetica,sans-Serif" font-weight="bold" font-size="9.00">irm</text>
</g>
<g id="clust7" class="cluster">
<title>cluster_packages/cognitive&#45;theory&#45;of&#45;music/irm/dist</title>
<path fill="#ffffff" stroke="black" stroke-width="2" d="M693,-852C693,-852 739,-852 739,-852 745,-852 751,-858 751,-864 751,-864 751,-892 751,-892 751,-898 745,-904 739,-904 739,-904 693,-904 693,-904 687,-904 681,-898 681,-892 681,-892 681,-864 681,-864 681,-858 687,-852 693,-852"/>
<text text-anchor="middle" x="716" y="-892.8" font-family="Helvetica,sans-Serif" font-weight="bold" font-size="9.00">dist</text>
</g>
<g id="clust8" class="cluster">
<title>cluster_packages/music&#45;structure</title>
<path fill="#ffffff" stroke="black" stroke-width="2" d="M164,-358C164,-358 765,-358 765,-358 771,-358 777,-364 777,-370 777,-370 777,-722 777,-722 777,-728 771,-734 765,-734 765,-734 164,-734 164,-734 158,-734 152,-728 152,-722 152,-722 152,-370 152,-370 152,-364 158,-358 164,-358"/>
<text text-anchor="middle" x="464.5" y="-722.8" font-family="Helvetica,sans-Serif" font-weight="bold" font-size="9.00">music&#45;structure</text>
</g>
<g id="clust9" class="cluster">
<title>cluster_packages/music&#45;structure/chord</title>
<path fill="#ffffff" stroke="black" stroke-width="2" d="M326,-366C326,-366 505,-366 505,-366 511,-366 517,-372 517,-378 517,-378 517,-508 517,-508 517,-514 511,-520 505,-520 505,-520 326,-520 326,-520 320,-520 314,-514 314,-508 314,-508 314,-378 314,-378 314,-372 320,-366 326,-366"/>
<text text-anchor="middle" x="415.5" y="-508.8" font-family="Helvetica,sans-Serif" font-weight="bold" font-size="9.00">chord</text>
</g>
<g id="clust10" class="cluster">
<title>cluster_packages/music&#45;structure/chord/chord&#45;analyze</title>
<path fill="#ffffff" stroke="black" stroke-width="2" d="M334,-374C334,-374 497,-374 497,-374 503,-374 509,-380 509,-386 509,-386 509,-482 509,-482 509,-488 503,-494 497,-494 497,-494 334,-494 334,-494 328,-494 322,-488 322,-482 322,-482 322,-386 322,-386 322,-380 328,-374 334,-374"/>
<text text-anchor="middle" x="415.5" y="-482.8" font-family="Helvetica,sans-Serif" font-weight="bold" font-size="9.00">chord&#45;analyze</text>
</g>
<g id="clust11" class="cluster">
<title>cluster_packages/music&#45;structure/chord/chord&#45;analyze/src</title>
<path fill="#ffffff" stroke="black" stroke-width="2" d="M342,-382C342,-382 489,-382 489,-382 495,-382 501,-388 501,-394 501,-394 501,-456 501,-456 501,-462 495,-468 489,-468 489,-468 342,-468 342,-468 336,-468 330,-462 330,-456 330,-456 330,-394 330,-394 330,-388 336,-382 342,-382"/>
<text text-anchor="middle" x="415.5" y="-456.8" font-family="Helvetica,sans-Serif" font-weight="bold" font-size="9.00">src</text>
</g>
<g id="clust12" class="cluster">
<title>cluster_packages/music&#45;structure/chord/chord&#45;analyze/src/chord&#45;analyze</title>
<path fill="#ffffff" stroke="black" stroke-width="2" d="M350,-390C350,-390 481,-390 481,-390 487,-390 493,-396 493,-402 493,-402 493,-430 493,-430 493,-436 487,-442 481,-442 481,-442 350,-442 350,-442 344,-442 338,-436 338,-430 338,-430 338,-402 338,-402 338,-396 344,-390 350,-390"/>
<text text-anchor="middle" x="415.5" y="-430.8" font-family="Helvetica,sans-Serif" font-weight="bold" font-size="9.00">chord&#45;analyze</text>
</g>
<g id="clust13" class="cluster">
<title>cluster_packages/music&#45;structure/melody</title>
<path fill="#ffffff" stroke="black" stroke-width="2" d="M172,-528C172,-528 757,-528 757,-528 763,-528 769,-534 769,-540 769,-540 769,-696 769,-696 769,-702 763,-708 757,-708 757,-708 172,-708 172,-708 166,-708 160,-702 160,-696 160,-696 160,-540 160,-540 160,-534 166,-528 172,-528"/>
<text text-anchor="middle" x="464.5" y="-696.8" font-family="Helvetica,sans-Serif" font-weight="bold" font-size="9.00">melody</text>
</g>
<g id="clust14" class="cluster">
<title>cluster_packages/music&#45;structure/melody/melody&#45;analyze</title>
<path fill="#ffffff" stroke="black" stroke-width="2" d="M180,-536C180,-536 749,-536 749,-536 755,-536 761,-542 761,-548 761,-548 761,-670 761,-670 761,-676 755,-682 749,-682 749,-682 180,-682 180,-682 174,-682 168,-676 168,-670 168,-670 168,-548 168,-548 168,-542 174,-536 180,-536"/>
<text text-anchor="middle" x="464.5" y="-670.8" font-family="Helvetica,sans-Serif" font-weight="bold" font-size="9.00">melody&#45;analyze</text>
</g>
<g id="clust15" class="cluster">
<title>cluster_packages/music&#45;structure/melody/melody&#45;analyze/src</title>
<path fill="#ffffff" stroke="black" stroke-width="2" d="M188,-544C188,-544 741,-544 741,-544 747,-544 753,-550 753,-556 753,-556 753,-644 753,-644 753,-650 747,-656 741,-656 741,-656 188,-656 188,-656 182,-656 176,-650 176,-644 176,-644 176,-556 176,-556 176,-550 182,-544 188,-544"/>
<text text-anchor="middle" x="464.5" y="-644.8" font-family="Helvetica,sans-Serif" font-weight="bold" font-size="9.00">src</text>
</g>
<g id="clust16" class="cluster">
<title>cluster_packages/tonal&#45;objects</title>
<path fill="#ffffff" stroke="black" stroke-width="2" d="M685,-742C685,-742 747,-742 747,-742 753,-742 759,-748 759,-754 759,-754 759,-816 759,-816 759,-822 753,-828 747,-828 747,-828 685,-828 685,-828 679,-828 673,-822 673,-816 673,-816 673,-754 673,-754 673,-748 679,-742 685,-742"/>
<text text-anchor="middle" x="716" y="-816.8" font-family="Helvetica,sans-Serif" font-weight="bold" font-size="9.00">tonal&#45;objects</text>
</g>
<g id="clust17" class="cluster">
<title>cluster_packages/tonal&#45;objects/dist</title>
<path fill="#ffffff" stroke="black" stroke-width="2" d="M693,-750C693,-750 739,-750 739,-750 745,-750 751,-756 751,-762 751,-762 751,-790 751,-790 751,-796 745,-802 739,-802 739,-802 693,-802 693,-802 687,-802 681,-796 681,-790 681,-790 681,-762 681,-762 681,-756 687,-750 693,-750"/>
<text text-anchor="middle" x="716" y="-790.8" font-family="Helvetica,sans-Serif" font-weight="bold" font-size="9.00">dist</text>
</g>
<g id="clust18" class="cluster">
<title>cluster_packages/util</title>
<path fill="#ffffff" stroke="black" stroke-width="2" d="M660,-102C660,-102 773,-102 773,-102 779,-102 785,-108 785,-114 785,-114 785,-338 785,-338 785,-344 779,-350 773,-350 773,-350 660,-350 660,-350 654,-350 648,-344 648,-338 648,-338 648,-114 648,-114 648,-108 654,-102 660,-102"/>
<text text-anchor="middle" x="716.5" y="-338.8" font-family="Helvetica,sans-Serif" font-weight="bold" font-size="9.00">util</text>
</g>
<g id="clust19" class="cluster">
<title>cluster_packages/util/math</title>
<path fill="#ffffff" stroke="black" stroke-width="2" d="M668,-204C668,-204 765,-204 765,-204 771,-204 777,-210 777,-216 777,-216 777,-312 777,-312 777,-318 771,-324 765,-324 765,-324 668,-324 668,-324 662,-324 656,-318 656,-312 656,-312 656,-216 656,-216 656,-210 662,-204 668,-204"/>
<text text-anchor="middle" x="716.5" y="-312.8" font-family="Helvetica,sans-Serif" font-weight="bold" font-size="9.00">math</text>
</g>
<g id="clust20" class="cluster">
<title>cluster_packages/util/math/src</title>
<path fill="#ffffff" stroke="black" stroke-width="2" d="M676,-212C676,-212 757,-212 757,-212 763,-212 769,-218 769,-224 769,-224 769,-286 769,-286 769,-292 763,-298 757,-298 757,-298 676,-298 676,-298 670,-298 664,-292 664,-286 664,-286 664,-224 664,-224 664,-218 670,-212 676,-212"/>
<text text-anchor="middle" x="716.5" y="-286.8" font-family="Helvetica,sans-Serif" font-weight="bold" font-size="9.00">src</text>
</g>
<g id="clust21" class="cluster">
<title>cluster_packages/util/math/src/basic&#45;function</title>
<path fill="#ffffff" stroke="black" stroke-width="2" d="M684,-220C684,-220 749,-220 749,-220 755,-220 761,-226 761,-232 761,-232 761,-260 761,-260 761,-266 755,-272 749,-272 749,-272 684,-272 684,-272 678,-272 672,-266 672,-260 672,-260 672,-232 672,-232 672,-226 678,-220 684,-220"/>
<text text-anchor="middle" x="716.5" y="-260.8" font-family="Helvetica,sans-Serif" font-weight="bold" font-size="9.00">basic&#45;function</text>
</g>
<g id="clust22" class="cluster">
<title>cluster_packages/util/time&#45;and</title>
<path fill="#ffffff" stroke="black" stroke-width="2" d="M685,-110C685,-110 747,-110 747,-110 753,-110 759,-116 759,-122 759,-122 759,-184 759,-184 759,-190 753,-196 747,-196 747,-196 685,-196 685,-196 679,-196 673,-190 673,-184 673,-184 673,-122 673,-122 673,-116 679,-110 685,-110"/>
<text text-anchor="middle" x="716" y="-184.8" font-family="Helvetica,sans-Serif" font-weight="bold" font-size="9.00">time&#45;and</text>
</g>
<g id="clust23" class="cluster">
<title>cluster_packages/util/time&#45;and/dist</title>
<path fill="#ffffff" stroke="black" stroke-width="2" d="M693,-118C693,-118 739,-118 739,-118 745,-118 751,-124 751,-130 751,-130 751,-158 751,-158 751,-164 745,-170 739,-170 739,-170 693,-170 693,-170 687,-170 681,-164 681,-158 681,-158 681,-130 681,-130 681,-124 687,-118 693,-118"/>
<text text-anchor="middle" x="716" y="-158.8" font-family="Helvetica,sans-Serif" font-weight="bold" font-size="9.00">dist</text>
</g>
<!-- fs -->
<g id="node1" class="node">
<title>fs</title>
<g id="a_node1"><a xlink:href="https://nodejs.org/api/fs.html" xlink:title="fs">
<path fill="#ffffcc" stroke="grey" d="M266,-86C266,-86 224,-86 224,-86 221,-86 218,-83 218,-80 218,-80 218,-74 218,-74 218,-71 221,-68 224,-68 224,-68 266,-68 266,-68 269,-68 272,-71 272,-74 272,-74 272,-80 272,-80 272,-83 269,-86 266,-86"/>
<text text-anchor="middle" x="245" y="-74.8" font-family="Helvetica,sans-Serif" font-size="9.00" fill="grey">fs</text>
</a>
</g>
</g>
<!-- node_modules/yargs -->
<g id="node2" class="node">
<title>node_modules/yargs</title>
<g id="a_node2"><a xlink:href="https://www.npmjs.com/package/yargs" xlink:title="yargs">
<polygon fill="#c40b0a" fill-opacity="0.101961" stroke="black" points="272,-34 220,-34 218,-32 218,-16 270,-16 272,-18 272,-34"/>
<polyline fill="none" stroke="black" points="270,-32 218,-32 "/>
<polyline fill="none" stroke="black" points="270,-32 270,-16 "/>
<polyline fill="none" stroke="black" points="270,-32 272,-34 "/>
<text text-anchor="start" x="232.5" y="-22.8" font-family="Helvetica,sans-Serif" font-size="9.00" fill="#c40b0a">yargs</text>
</a>
</g>
</g>
<!-- packages/cli/melody&#45;analyze&#45;cli/index.ts -->
<g id="node3" class="node">
<title>packages/cli/melody&#45;analyze&#45;cli/index.ts</title>
<g id="a_node3"><a xlink:href="packages/cli/melody-analyze-cli/index.ts" xlink:title="index.ts">
<path fill="#ddfeff" stroke="black" d="M93,-531C93,-531 51,-531 51,-531 48,-531 45,-528 45,-525 45,-525 45,-519 45,-519 45,-516 48,-513 51,-513 51,-513 93,-513 93,-513 96,-513 99,-516 99,-519 99,-519 99,-525 99,-525 99,-528 96,-531 93,-531"/>
<text text-anchor="start" x="53.5" y="-519.8" font-family="Helvetica,sans-Serif" font-size="9.00">index.ts</text>
</a>
</g>
</g>
<!-- packages/cli/melody&#45;analyze&#45;cli/index.ts&#45;&gt;fs -->
<g id="edge5" class="edge">
<title>packages/cli/melody&#45;analyze&#45;cli/index.ts&#45;&gt;fs</title>
<path fill="none" stroke="#000000" stroke-dasharray="5,2" stroke-opacity="0.200000" d="M76.57,-512.71C98.17,-456.49 211.34,-162 238.25,-91.96"/>
<polygon fill="#000000" fill-opacity="0.200000" stroke="#000000" stroke-opacity="0.200000" points="240.26,-92.6 240.45,-86.24 236.34,-91.09 240.26,-92.6"/>
</g>
<!-- packages/cli/melody&#45;analyze&#45;cli/index.ts&#45;&gt;node_modules/yargs -->
<g id="edge6" class="edge">
<title>packages/cli/melody&#45;analyze&#45;cli/index.ts&#45;&gt;node_modules/yargs</title>
<path fill="none" stroke="#000000" stroke-opacity="0.200000" d="M76.11,-512.95C96.68,-453.19 212.89,-115.41 238.86,-39.95"/>
<polygon fill="#000000" fill-opacity="0.200000" stroke="#000000" stroke-opacity="0.200000" points="240.86,-40.58 240.83,-34.22 236.89,-39.21 240.86,-40.58"/>
</g>
<!-- packages/music&#45;structure/chord/chord&#45;analyze/src/chord&#45;analyze/time&#45;and&#45;roman&#45;analysis.ts -->
<g id="node4" class="node">
<title>packages/music&#45;structure/chord/chord&#45;analyze/src/chord&#45;analyze/time&#45;and&#45;roman&#45;analysis.ts</title>
<g id="a_node4"><a xlink:href="packages/music-structure/chord/chord-analyze/src/chord-analyze/time-and-roman-analysis.ts" xlink:title="time&#45;and&#45;roman&#45;analysis.ts">
<path fill="#ddfeff" stroke="black" d="M479,-416C479,-416 352,-416 352,-416 349,-416 346,-413 346,-410 346,-410 346,-404 346,-404 346,-401 349,-398 352,-398 352,-398 479,-398 479,-398 482,-398 485,-401 485,-404 485,-404 485,-410 485,-410 485,-413 482,-416 479,-416"/>
<text text-anchor="start" x="354" y="-404.8" font-family="Helvetica,sans-Serif" font-size="9.00">time&#45;and&#45;roman&#45;analysis.ts</text>
</a>
</g>
</g>
<!-- packages/cli/melody&#45;analyze&#45;cli/index.ts&#45;&gt;packages/music&#45;structure/chord/chord&#45;analyze/src/chord&#45;analyze/time&#45;and&#45;roman&#45;analysis.ts -->
<g id="edge1" class="edge">
<title>packages/cli/melody&#45;analyze&#45;cli/index.ts&#45;&gt;packages/music&#45;structure/chord/chord&#45;analyze/src/chord&#45;analyze/time&#45;and&#45;roman&#45;analysis.ts</title>
<path fill="none" stroke="#000000" stroke-width="2" stroke-opacity="0.200000" d="M98.95,-512.98C161.13,-492.16 314.45,-440.83 382.29,-418.12"/>
<polygon fill="#000000" fill-opacity="0.200000" stroke="#000000" stroke-width="2" stroke-opacity="0.200000" points="383.17,-420.04 388.2,-416.14 381.84,-416.05 383.17,-420.04"/>
</g>
<!-- packages/music&#45;structure/melody/melody&#45;analyze/src/analyze&#45;melody.ts -->
<g id="node5" class="node">
<title>packages/music&#45;structure/melody/melody&#45;analyze/src/analyze&#45;melody.ts</title>
<g id="a_node5"><a xlink:href="packages/music-structure/melody/melody-analyze/src/analyze-melody.ts" xlink:title="analyze&#45;melody.ts">
<path fill="#ddfeff" stroke="black" d="M287,-630C287,-630 203,-630 203,-630 200,-630 197,-627 197,-624 197,-624 197,-618 197,-618 197,-615 200,-612 203,-612 203,-612 287,-612 287,-612 290,-612 293,-615 293,-618 293,-618 293,-624 293,-624 293,-627 290,-630 287,-630"/>
<text text-anchor="start" x="205" y="-618.8" font-family="Helvetica,sans-Serif" font-size="9.00">analyze&#45;melody.ts</text>
</a>
</g>
</g>
<!-- packages/cli/melody&#45;analyze&#45;cli/index.ts&#45;&gt;packages/music&#45;structure/melody/melody&#45;analyze/src/analyze&#45;melody.ts -->
<g id="edge2" class="edge">
<title>packages/cli/melody&#45;analyze&#45;cli/index.ts&#45;&gt;packages/music&#45;structure/melody/melody&#45;analyze/src/analyze&#45;melody.ts</title>
<path fill="none" stroke="#000000" stroke-width="2" stroke-opacity="0.200000" d="M88.78,-531.14C119.7,-549.04 188.27,-588.74 222.99,-608.83"/>
<polygon fill="#000000" fill-opacity="0.200000" stroke="#000000" stroke-width="2" stroke-opacity="0.200000" points="222.01,-610.7 228.26,-611.89 224.12,-607.06 222.01,-610.7"/>
</g>
<!-- packages/music&#45;structure/melody/melody&#45;analyze/src/get&#45;time&#45;and&#45;melody.ts -->
<g id="node6" class="node">
<title>packages/music&#45;structure/melody/melody&#45;analyze/src/get&#45;time&#45;and&#45;melody.ts</title>
<g id="a_node6"><a xlink:href="packages/music-structure/melody/melody-analyze/src/get-time-and-melody.ts" xlink:title="get&#45;time&#45;and&#45;melody.ts">
<path fill="#ddfeff" stroke="black" d="M299.5,-570C299.5,-570 190.5,-570 190.5,-570 187.5,-570 184.5,-567 184.5,-564 184.5,-564 184.5,-558 184.5,-558 184.5,-555 187.5,-552 190.5,-552 190.5,-552 299.5,-552 299.5,-552 302.5,-552 305.5,-555 305.5,-558 305.5,-558 305.5,-564 305.5,-564 305.5,-567 302.5,-570 299.5,-570"/>
<text text-anchor="start" x="192.5" y="-558.8" font-family="Helvetica,sans-Serif" font-size="9.00">get&#45;time&#45;and&#45;melody.ts</text>
</a>
</g>
</g>
<!-- packages/cli/melody&#45;analyze&#45;cli/index.ts&#45;&gt;packages/music&#45;structure/melody/melody&#45;analyze/src/get&#45;time&#45;and&#45;melody.ts -->
<g id="edge3" class="edge">
<title>packages/cli/melody&#45;analyze&#45;cli/index.ts&#45;&gt;packages/music&#45;structure/melody/melody&#45;analyze/src/get&#45;time&#45;and&#45;melody.ts</title>
<path fill="none" stroke="#000000" stroke-width="2" stroke-opacity="0.200000" d="M99.34,-528.01C125.61,-534 166.47,-543.32 198.08,-550.53"/>
<polygon fill="#000000" fill-opacity="0.200000" stroke="#000000" stroke-width="2" stroke-opacity="0.200000" points="197.95,-552.65 204.27,-551.94 198.89,-548.56 197.95,-552.65"/>
</g>
<!-- packages/music&#45;structure/melody/melody&#45;analyze/src/melody&#45;analysis&#45;data.ts -->
<g id="node7" class="node">
<title>packages/music&#45;structure/melody/melody&#45;analyze/src/melody&#45;analysis&#45;data.ts</title>
<g id="a_node7"><a xlink:href="packages/music-structure/melody/melody-analyze/src/melody-analysis-data.ts" xlink:title="melody&#45;analysis&#45;data.ts">
<path fill="#ddfeff" stroke="black" d="M300,-600C300,-600 190,-600 190,-600 187,-600 184,-597 184,-594 184,-594 184,-588 184,-588 184,-585 187,-582 190,-582 190,-582 300,-582 300,-582 303,-582 306,-585 306,-588 306,-588 306,-594 306,-594 306,-597 303,-600 300,-600"/>
<text text-anchor="start" x="192" y="-588.8" font-family="Helvetica,sans-Serif" font-size="9.00">melody&#45;analysis&#45;data.ts</text>
</a>
</g>
</g>
<!-- packages/cli/melody&#45;analyze&#45;cli/index.ts&#45;&gt;packages/music&#45;structure/melody/melody&#45;analyze/src/melody&#45;analysis&#45;data.ts -->
<g id="edge4" class="edge">
<title>packages/cli/melody&#45;analyze&#45;cli/index.ts&#45;&gt;packages/music&#45;structure/melody/melody&#45;analyze/src/melody&#45;analysis&#45;data.ts</title>
<path fill="none" stroke="#000000" stroke-width="2" stroke-opacity="0.200000" d="M95.36,-531.02C126.34,-543.52 182.3,-566.11 216.02,-579.71"/>
<polygon fill="#000000" fill-opacity="0.200000" stroke="#000000" stroke-width="2" stroke-opacity="0.200000" points="215.29,-581.68 221.64,-581.98 216.86,-577.78 215.29,-581.68"/>
</g>
<!-- packages/util/time&#45;and/dist/index.js -->
<g id="node9" class="node">
<title>packages/util/time&#45;and/dist/index.js</title>
<g id="a_node9"><a xlink:href="packages/util/time-and/dist/index.js" xlink:title="index.js">
<polygon fill="#ffffcc" stroke="black" points="743,-144 741.5,-146 731,-146 729.5,-144 689,-144 689,-126 743,-126 743,-144"/>
<text text-anchor="start" x="698.5" y="-132.8" font-family="Helvetica,sans-Serif" font-size="9.00">index.js</text>
</a>
</g>
</g>
<!-- packages/music&#45;structure/chord/chord&#45;analyze/src/chord&#45;analyze/time&#45;and&#45;roman&#45;analysis.ts&#45;&gt;packages/util/time&#45;and/dist/index.js -->
<g id="edge7" class="edge">
<title>packages/music&#45;structure/chord/chord&#45;analyze/src/chord&#45;analyze/time&#45;and&#45;roman&#45;analysis.ts&#45;&gt;packages/util/time&#45;and/dist/index.js</title>
<path fill="none" stroke="#000000" stroke-width="2" stroke-opacity="0.200000" d="M425.5,-397.95C469.79,-357.85 648.49,-196.11 701.26,-148.34"/>
<polygon fill="#000000" fill-opacity="0.200000" stroke="#000000" stroke-width="2" stroke-opacity="0.200000" points="702.93,-149.67 705.96,-144.08 700.11,-146.55 702.93,-149.67"/>
</g>
<!-- packages/music&#45;structure/melody/melody&#45;analyze/src/analyze&#45;melody.ts&#45;&gt;packages/music&#45;structure/chord/chord&#45;analyze/src/chord&#45;analyze/time&#45;and&#45;roman&#45;analysis.ts -->
<g id="edge12" class="edge">
<title>packages/music&#45;structure/melody/melody&#45;analyze/src/analyze&#45;melody.ts&#45;&gt;packages/music&#45;structure/chord/chord&#45;analyze/src/chord&#45;analyze/time&#45;and&#45;roman&#45;analysis.ts</title>
<path fill="none" stroke="#000000" stroke-width="2" stroke-opacity="0.200000" d="M253.24,-611.8C279.65,-578.27 370.9,-462.37 403.13,-421.45"/>
<polygon fill="#000000" fill-opacity="0.200000" stroke="#000000" stroke-width="2" stroke-opacity="0.200000" points="405.04,-422.42 407.1,-416.4 401.74,-419.82 405.04,-422.42"/>
</g>
<!-- packages/cognitive&#45;theory&#45;of&#45;music/irm/dist/index.js -->
<g id="node8" class="node">
<title>packages/cognitive&#45;theory&#45;of&#45;music/irm/dist/index.js</title>
<g id="a_node8"><a xlink:href="packages/cognitive-theory-of-music/irm/dist/index.js" xlink:title="index.js">
<polygon fill="#ffffcc" stroke="black" points="743,-878 741.5,-880 731,-880 729.5,-878 689,-878 689,-860 743,-860 743,-878"/>
<text text-anchor="start" x="698.5" y="-866.8" font-family="Helvetica,sans-Serif" font-size="9.00">index.js</text>
</a>
</g>
</g>
<!-- packages/music&#45;structure/melody/melody&#45;analyze/src/analyze&#45;melody.ts&#45;&gt;packages/cognitive&#45;theory&#45;of&#45;music/irm/dist/index.js -->
<g id="edge13" class="edge">
<title>packages/music&#45;structure/melody/melody&#45;analyze/src/analyze&#45;melody.ts&#45;&gt;packages/cognitive&#45;theory&#45;of&#45;music/irm/dist/index.js</title>
<path fill="none" stroke="#000000" stroke-width="2" stroke-opacity="0.200000" d="M262.32,-630.12C334.45,-668.1 610.97,-813.7 692.96,-856.87"/>
<polygon fill="#000000" fill-opacity="0.200000" stroke="#000000" stroke-width="2" stroke-opacity="0.200000" points="692.23,-858.86 698.52,-859.8 694.19,-855.14 692.23,-858.86"/>
</g>
<!-- packages/music&#45;structure/melody/melody&#45;analyze/src/melody&#45;analysis.ts -->
<g id="node10" class="node">
<title>packages/music&#45;structure/melody/melody&#45;analyze/src/melody&#45;analysis.ts</title>
<g id="a_node10"><a xlink:href="packages/music-structure/melody/melody-analyze/src/melody-analysis.ts" xlink:title="melody&#45;analysis.ts">
<path fill="#ddfeff" stroke="black" d="M618,-630C618,-630 531,-630 531,-630 528,-630 525,-627 525,-624 525,-624 525,-618 525,-618 525,-615 528,-612 531,-612 531,-612 618,-612 618,-612 621,-612 624,-615 624,-618 624,-618 624,-624 624,-624 624,-627 621,-630 618,-630"/>
<text text-anchor="start" x="533" y="-618.8" font-family="Helvetica,sans-Serif" font-size="9.00">melody&#45;analysis.ts</text>
</a>
</g>
</g>
<!-- packages/music&#45;structure/melody/melody&#45;analyze/src/analyze&#45;melody.ts&#45;&gt;packages/music&#45;structure/melody/melody&#45;analyze/src/melody&#45;analysis.ts -->
<g id="edge8" class="edge">
<title>packages/music&#45;structure/melody/melody&#45;analyze/src/analyze&#45;melody.ts&#45;&gt;packages/music&#45;structure/melody/melody&#45;analyze/src/melody&#45;analysis.ts</title>
<path fill="none" stroke="#000000" stroke-width="2" stroke-opacity="0.200000" d="M293.27,-621C353.15,-621 455.06,-621 518.37,-621"/>
<polygon fill="#000000" fill-opacity="0.200000" stroke="#000000" stroke-width="2" stroke-opacity="0.200000" points="518.76,-623.1 524.76,-621 518.76,-618.9 518.76,-623.1"/>
</g>
<!-- packages/music&#45;structure/melody/melody&#45;analyze/src/register&#45;gravity.ts -->
<g id="node11" class="node">
<title>packages/music&#45;structure/melody/melody&#45;analyze/src/register&#45;gravity.ts</title>
<g id="a_node11"><a xlink:href="packages/music-structure/melody/melody-analyze/src/register-gravity.ts" xlink:title="register&#45;gravity.ts">
<path fill="#ddfeff" stroke="black" d="M616,-600C616,-600 533,-600 533,-600 530,-600 527,-597 527,-594 527,-594 527,-588 527,-588 527,-585 530,-582 533,-582 533,-582 616,-582 616,-582 619,-582 622,-585 622,-588 622,-588 622,-594 622,-594 622,-597 619,-600 616,-600"/>
<text text-anchor="start" x="535" y="-588.8" font-family="Helvetica,sans-Serif" font-size="9.00">register&#45;gravity.ts</text>
</a>
</g>
</g>
<!-- packages/music&#45;structure/melody/melody&#45;analyze/src/analyze&#45;melody.ts&#45;&gt;packages/music&#45;structure/melody/melody&#45;analyze/src/register&#45;gravity.ts -->
<g id="edge9" class="edge">
<title>packages/music&#45;structure/melody/melody&#45;analyze/src/analyze&#45;melody.ts&#45;&gt;packages/music&#45;structure/melody/melody&#45;analyze/src/register&#45;gravity.ts</title>
<path fill="none" stroke="#000000" stroke-width="2" stroke-opacity="0.200000" d="M293.27,-616.61C353.96,-611.08 457.84,-601.62 520.93,-595.88"/>
<polygon fill="#000000" fill-opacity="0.200000" stroke="#000000" stroke-width="2" stroke-opacity="0.200000" points="521.12,-597.97 526.91,-595.33 520.74,-593.79 521.12,-597.97"/>
</g>
<!-- packages/music&#45;structure/melody/melody&#45;analyze/src/time&#45;and&#45;analyzed&#45;melody.ts -->
<g id="node12" class="node">
<title>packages/music&#45;structure/melody/melody&#45;analyze/src/time&#45;and&#45;analyzed&#45;melody.ts</title>
<g id="a_node12"><a xlink:href="packages/music-structure/melody/melody-analyze/src/time-and-analyzed-melody.ts" xlink:title="time&#45;and&#45;analyzed&#45;melody.ts">
<path fill="#ddfeff" stroke="black" d="M482.5,-600C482.5,-600 348.5,-600 348.5,-600 345.5,-600 342.5,-597 342.5,-594 342.5,-594 342.5,-588 342.5,-588 342.5,-585 345.5,-582 348.5,-582 348.5,-582 482.5,-582 482.5,-582 485.5,-582 488.5,-585 488.5,-588 488.5,-588 488.5,-594 488.5,-594 488.5,-597 485.5,-600 482.5,-600"/>
<text text-anchor="start" x="350.5" y="-588.8" font-family="Helvetica,sans-Serif" font-size="9.00">time&#45;and&#45;analyzed&#45;melody.ts</text>
</a>
</g>
</g>
<!-- packages/music&#45;structure/melody/melody&#45;analyze/src/analyze&#45;melody.ts&#45;&gt;packages/music&#45;structure/melody/melody&#45;analyze/src/time&#45;and&#45;analyzed&#45;melody.ts -->
<g id="edge10" class="edge">
<title>packages/music&#45;structure/melody/melody&#45;analyze/src/analyze&#45;melody.ts&#45;&gt;packages/music&#45;structure/melody/melody&#45;analyze/src/time&#45;and&#45;analyzed&#45;melody.ts</title>
<path fill="none" stroke="#000000" stroke-width="2" stroke-opacity="0.200000" d="M293.39,-612.56C313.41,-609 336.89,-604.82 357.82,-601.09"/>
<polygon fill="#000000" fill-opacity="0.200000" stroke="#000000" stroke-width="2" stroke-opacity="0.200000" points="358.4,-603.12 363.94,-600 357.66,-598.99 358.4,-603.12"/>
</g>
<!-- packages/music&#45;structure/melody/melody&#45;analyze/src/time&#45;and&#45;melody.ts -->
<g id="node13" class="node">
<title>packages/music&#45;structure/melody/melody&#45;analyze/src/time&#45;and&#45;melody.ts</title>
<g id="a_node13"><a xlink:href="packages/music-structure/melody/melody-analyze/src/time-and-melody.ts" xlink:title="time&#45;and&#45;melody.ts">
<path fill="#ddfeff" stroke="black" d="M461,-570C461,-570 370,-570 370,-570 367,-570 364,-567 364,-564 364,-564 364,-558 364,-558 364,-555 367,-552 370,-552 370,-552 461,-552 461,-552 464,-552 467,-555 467,-558 467,-558 467,-564 467,-564 467,-567 464,-570 461,-570"/>
<text text-anchor="start" x="372" y="-558.8" font-family="Helvetica,sans-Serif" font-size="9.00">time&#45;and&#45;melody.ts</text>
</a>
</g>
</g>
<!-- packages/music&#45;structure/melody/melody&#45;analyze/src/analyze&#45;melody.ts&#45;&gt;packages/music&#45;structure/melody/melody&#45;analyze/src/time&#45;and&#45;melody.ts -->
<g id="edge11" class="edge">
<title>packages/music&#45;structure/melody/melody&#45;analyze/src/analyze&#45;melody.ts&#45;&gt;packages/music&#45;structure/melody/melody&#45;analyze/src/time&#45;and&#45;melody.ts</title>
<path fill="none" stroke="#000000" stroke-width="2" stroke-opacity="0.200000" d="M271.59,-611.89C301.58,-601.21 351.25,-583.52 383.42,-572.07"/>
<polygon fill="#000000" fill-opacity="0.200000" stroke="#000000" stroke-width="2" stroke-opacity="0.200000" points="384.27,-573.99 389.22,-570 382.86,-570.04 384.27,-573.99"/>
</g>
<!-- packages/tonal&#45;objects/dist/index.js -->
<g id="node14" class="node">
<title>packages/tonal&#45;objects/dist/index.js</title>
<g id="a_node14"><a xlink:href="packages/tonal-objects/dist/index.js" xlink:title="index.js">
<polygon fill="#ffffcc" stroke="black" points="743,-776 741.5,-778 731,-778 729.5,-776 689,-776 689,-758 743,-758 743,-776"/>
<text text-anchor="start" x="698.5" y="-764.8" font-family="Helvetica,sans-Serif" font-size="9.00">index.js</text>
</a>
</g>
</g>
<!-- packages/music&#45;structure/melody/melody&#45;analyze/src/analyze&#45;melody.ts&#45;&gt;packages/tonal&#45;objects/dist/index.js -->
<g id="edge14" class="edge">
<title>packages/music&#45;structure/melody/melody&#45;analyze/src/analyze&#45;melody.ts&#45;&gt;packages/tonal&#45;objects/dist/index.js</title>
<path fill="none" stroke="#000000" stroke-width="2" stroke-opacity="0.200000" d="M274.11,-630.02C357.24,-655.79 595.36,-729.6 683.06,-756.79"/>
<polygon fill="#000000" fill-opacity="0.200000" stroke="#000000" stroke-width="2" stroke-opacity="0.200000" points="682.51,-758.82 688.86,-758.59 683.75,-754.81 682.51,-758.82"/>
</g>
<!-- packages/music&#45;structure/melody/melody&#45;analyze/src/get&#45;time&#45;and&#45;melody.ts&#45;&gt;packages/util/time&#45;and/dist/index.js -->
<g id="edge16" class="edge">
<title>packages/music&#45;structure/melody/melody&#45;analyze/src/get&#45;time&#45;and&#45;melody.ts&#45;&gt;packages/util/time&#45;and/dist/index.js</title>
<path fill="none" stroke="#000000" stroke-width="2" stroke-opacity="0.200000" d="M255.28,-551.71C316.1,-496.69 628.8,-213.87 701.08,-148.5"/>
<polygon fill="#000000" fill-opacity="0.200000" stroke="#000000" stroke-width="2" stroke-opacity="0.200000" points="702.82,-149.75 705.86,-144.17 700,-146.64 702.82,-149.75"/>
</g>
<!-- packages/music&#45;structure/melody/melody&#45;analyze/src/get&#45;time&#45;and&#45;melody.ts&#45;&gt;packages/music&#45;structure/melody/melody&#45;analyze/src/time&#45;and&#45;melody.ts -->
<g id="edge15" class="edge">
<title>packages/music&#45;structure/melody/melody&#45;analyze/src/get&#45;time&#45;and&#45;melody.ts&#45;&gt;packages/music&#45;structure/melody/melody&#45;analyze/src/time&#45;and&#45;melody.ts</title>
<path fill="none" stroke="#000000" stroke-width="2" stroke-opacity="0.200000" d="M305.88,-561C322.73,-561 341,-561 357.67,-561"/>
<polygon fill="#000000" fill-opacity="0.200000" stroke="#000000" stroke-width="2" stroke-opacity="0.200000" points="357.73,-563.1 363.73,-561 357.73,-558.9 357.73,-563.1"/>
</g>
<!-- packages/music&#45;structure/melody/melody&#45;analyze/src/melody&#45;analysis&#45;data.ts&#45;&gt;packages/music&#45;structure/melody/melody&#45;analyze/src/time&#45;and&#45;analyzed&#45;melody.ts -->
<g id="edge17" class="edge">
<title>packages/music&#45;structure/melody/melody&#45;analyze/src/melody&#45;analysis&#45;data.ts&#45;&gt;packages/music&#45;structure/melody/melody&#45;analyze/src/time&#45;and&#45;analyzed&#45;melody.ts</title>
<path fill="none" stroke="#000000" stroke-width="2" stroke-opacity="0.200000" d="M306.36,-591C316.05,-591 326.21,-591 336.25,-591"/>
<polygon fill="#000000" fill-opacity="0.200000" stroke="#000000" stroke-width="2" stroke-opacity="0.200000" points="336.49,-593.1 342.49,-591 336.49,-588.9 336.49,-593.1"/>
</g>
<!-- packages/music&#45;structure/melody/melody&#45;analyze/src/melody&#45;analysis.ts&#45;&gt;packages/cognitive&#45;theory&#45;of&#45;music/irm/dist/index.js -->
<g id="edge19" class="edge">
<title>packages/music&#45;structure/melody/melody&#45;analyze/src/melody&#45;analysis.ts&#45;&gt;packages/cognitive&#45;theory&#45;of&#45;music/irm/dist/index.js</title>
<path fill="none" stroke="#000000" stroke-width="2" stroke-opacity="0.200000" d="M580.63,-630.12C601.61,-667.41 680.96,-808.49 706.81,-854.44"/>
<polygon fill="#000000" fill-opacity="0.200000" stroke="#000000" stroke-width="2" stroke-opacity="0.200000" points="705.05,-855.6 709.82,-859.8 708.71,-853.54 705.05,-855.6"/>
</g>
<!-- packages/music&#45;structure/melody/melody&#45;analyze/src/gravity.ts -->
<g id="node15" class="node">
<title>packages/music&#45;structure/melody/melody&#45;analyze/src/gravity.ts</title>
<g id="a_node15"><a xlink:href="packages/music-structure/melody/melody-analyze/src/gravity.ts" xlink:title="gravity.ts">
<path fill="#ddfeff" stroke="black" d="M739,-615C739,-615 693,-615 693,-615 690,-615 687,-612 687,-609 687,-609 687,-603 687,-603 687,-600 690,-597 693,-597 693,-597 739,-597 739,-597 742,-597 745,-600 745,-603 745,-603 745,-609 745,-609 745,-612 742,-615 739,-615"/>
<text text-anchor="start" x="695" y="-603.8" font-family="Helvetica,sans-Serif" font-size="9.00">gravity.ts</text>
</a>
</g>
</g>
<!-- packages/music&#45;structure/melody/melody&#45;analyze/src/melody&#45;analysis.ts&#45;&gt;packages/music&#45;structure/melody/melody&#45;analyze/src/gravity.ts -->
<g id="edge18" class="edge">
<title>packages/music&#45;structure/melody/melody&#45;analyze/src/melody&#45;analysis.ts&#45;&gt;packages/music&#45;structure/melody/melody&#45;analyze/src/gravity.ts</title>
<path fill="none" stroke="#000000" stroke-width="2" stroke-opacity="0.200000" d="M624.29,-615.75C642.9,-613.75 663.71,-611.51 680.7,-609.69"/>
<polygon fill="#000000" fill-opacity="0.200000" stroke="#000000" stroke-width="2" stroke-opacity="0.200000" points="681.03,-611.76 686.78,-609.03 680.59,-607.59 681.03,-611.76"/>
</g>
<!-- packages/music&#45;structure/melody/melody&#45;analyze/src/register&#45;gravity.ts&#45;&gt;packages/tonal&#45;objects/dist/index.js -->
<g id="edge22" class="edge">
<title>packages/music&#45;structure/melody/melody&#45;analyze/src/register&#45;gravity.ts&#45;&gt;packages/tonal&#45;objects/dist/index.js</title>
<path fill="none" stroke="#000000" stroke-width="2" stroke-opacity="0.200000" d="M583,-600.46C606.1,-629.61 676.26,-718.12 703.76,-752.83"/>
<polygon fill="#000000" fill-opacity="0.200000" stroke="#000000" stroke-width="2" stroke-opacity="0.200000" points="702.43,-754.52 707.8,-757.92 705.72,-751.91 702.43,-754.52"/>
</g>
<!-- packages/music&#45;structure/melody/melody&#45;analyze/src/register&#45;gravity.ts&#45;&gt;packages/music&#45;structure/melody/melody&#45;analyze/src/gravity.ts -->
<g id="edge20" class="edge">
<title>packages/music&#45;structure/melody/melody&#45;analyze/src/register&#45;gravity.ts&#45;&gt;packages/music&#45;structure/melody/melody&#45;analyze/src/gravity.ts</title>
<path fill="none" stroke="#000000" stroke-width="2" stroke-opacity="0.200000" d="M622.34,-596.04C641.37,-598.08 662.97,-600.41 680.52,-602.29"/>
<polygon fill="#000000" fill-opacity="0.200000" stroke="#000000" stroke-width="2" stroke-opacity="0.200000" points="680.6,-604.41 686.79,-602.97 681.05,-600.24 680.6,-604.41"/>
</g>
<!-- packages/util/math/src/basic&#45;function/mod.ts -->
<g id="node16" class="node">
<title>packages/util/math/src/basic&#45;function/mod.ts</title>
<g id="a_node16"><a xlink:href="packages/util/math/src/basic-function/mod.ts" xlink:title="mod.ts">
<path fill="#ddfeff" stroke="black" d="M737,-246C737,-246 695,-246 695,-246 692,-246 689,-243 689,-240 689,-240 689,-234 689,-234 689,-231 692,-228 695,-228 695,-228 737,-228 737,-228 740,-228 743,-231 743,-234 743,-234 743,-240 743,-240 743,-243 740,-246 737,-246"/>
<text text-anchor="start" x="700" y="-234.8" font-family="Helvetica,sans-Serif" font-size="9.00">mod.ts</text>
</a>
</g>
</g>
<!-- packages/music&#45;structure/melody/melody&#45;analyze/src/register&#45;gravity.ts&#45;&gt;packages/util/math/src/basic&#45;function/mod.ts -->
<g id="edge21" class="edge">
<title>packages/music&#45;structure/melody/melody&#45;analyze/src/register&#45;gravity.ts&#45;&gt;packages/util/math/src/basic&#45;function/mod.ts</title>
<path fill="none" stroke="#000000" stroke-width="2" stroke-opacity="0.200000" d="M579.09,-581.89C597.93,-534.07 685.49,-311.88 709.11,-251.94"/>
<polygon fill="#000000" fill-opacity="0.200000" stroke="#000000" stroke-width="2" stroke-opacity="0.200000" points="711.19,-252.4 711.44,-246.05 707.28,-250.86 711.19,-252.4"/>
</g>
<!-- packages/music&#45;structure/melody/melody&#45;analyze/src/time&#45;and&#45;analyzed&#45;melody.ts&#45;&gt;packages/util/time&#45;and/dist/index.js -->
<g id="edge24" class="edge">
<title>packages/music&#45;structure/melody/melody&#45;analyze/src/time&#45;and&#45;analyzed&#45;melody.ts&#45;&gt;packages/util/time&#45;and/dist/index.js</title>
<path fill="none" stroke="#000000" stroke-width="2" stroke-opacity="0.200000" d="M421.5,-581.89C458.92,-525.12 660.04,-219.92 706.44,-149.5"/>
<polygon fill="#000000" fill-opacity="0.200000" stroke="#000000" stroke-width="2" stroke-opacity="0.200000" points="708.44,-150.3 709.98,-144.13 704.93,-147.98 708.44,-150.3"/>
</g>
<!-- packages/music&#45;structure/melody/melody&#45;analyze/src/time&#45;and&#45;analyzed&#45;melody.ts&#45;&gt;packages/music&#45;structure/melody/melody&#45;analyze/src/melody&#45;analysis.ts -->
<g id="edge23" class="edge">
<title>packages/music&#45;structure/melody/melody&#45;analyze/src/time&#45;and&#45;analyzed&#45;melody.ts&#45;&gt;packages/music&#45;structure/melody/melody&#45;analyze/src/melody&#45;analysis.ts</title>
<path fill="none" stroke="#000000" stroke-width="2" stroke-opacity="0.200000" d="M463.61,-600C481.38,-603.4 501.72,-607.28 520.03,-610.78"/>
<polygon fill="#000000" fill-opacity="0.200000" stroke="#000000" stroke-width="2" stroke-opacity="0.200000" points="519.87,-612.89 526.16,-611.95 520.66,-608.76 519.87,-612.89"/>
</g>
<!-- packages/music&#45;structure/melody/melody&#45;analyze/src/time&#45;and&#45;melody.ts&#45;&gt;packages/util/time&#45;and/dist/index.js -->
<g id="edge25" class="edge">
<title>packages/music&#45;structure/melody/melody&#45;analyze/src/time&#45;and&#45;melody.ts&#45;&gt;packages/util/time&#45;and/dist/index.js</title>
<path fill="none" stroke="#000000" stroke-width="2" stroke-opacity="0.200000" d="M422.06,-551.71C460.71,-496.91 658.77,-216.13 705.92,-149.29"/>
<polygon fill="#000000" fill-opacity="0.200000" stroke="#000000" stroke-width="2" stroke-opacity="0.200000" points="707.79,-150.28 709.53,-144.17 704.36,-147.86 707.79,-150.28"/>
</g>
</g>
</svg>
