<?xml version="1.0" encoding="UTF-8" standalone="no"?>
<!DOCTYPE svg PUBLIC "-//W3C//DTD SVG 1.1//EN"
 "http://www.w3.org/Graphics/SVG/1.1/DTD/svg11.dtd">
<!-- Generated by graphviz version 2.43.0 (0)
 -->
<!-- Title: dependency&#45;cruiser output Pages: 1 -->
<svg width="1017pt" height="632pt"
 viewBox="0.00 0.00 1017.00 632.00" xmlns="http://www.w3.org/2000/svg" xmlns:xlink="http://www.w3.org/1999/xlink">
<g id="graph0" class="graph" transform="scale(1 1) rotate(0) translate(4 628)">
<title>dependency&#45;cruiser output</title>
<polygon fill="white" stroke="transparent" points="-4,4 -4,-628 1013,-628 1013,4 -4,4"/>
<g id="clust1" class="cluster">
<title>cluster_packages</title>
<path fill="#ffffff" stroke="black" stroke-width="2" d="M20,-8C20,-8 989,-8 989,-8 995,-8 1001,-14 1001,-20 1001,-20 1001,-604 1001,-604 1001,-610 995,-616 989,-616 989,-616 20,-616 20,-616 14,-616 8,-610 8,-604 8,-604 8,-20 8,-20 8,-14 14,-8 20,-8"/>
<text text-anchor="middle" x="504.5" y="-604.8" font-family="Helvetica,sans-Serif" font-weight="bold" font-size="9.00">packages</text>
</g>
<g id="clust2" class="cluster">
<title>cluster_packages/UI</title>
<path fill="#ffffff" stroke="black" stroke-width="2" d="M28,-16C28,-16 981,-16 981,-16 987,-16 993,-22 993,-28 993,-28 993,-450 993,-450 993,-456 987,-462 981,-462 981,-462 28,-462 28,-462 22,-462 16,-456 16,-450 16,-450 16,-28 16,-28 16,-22 22,-16 28,-16"/>
<text text-anchor="middle" x="504.5" y="-450.8" font-family="Helvetica,sans-Serif" font-weight="bold" font-size="9.00">UI</text>
</g>
<g id="clust3" class="cluster">
<title>cluster_packages/UI/controllers</title>
<path fill="#ffffff" stroke="black" stroke-width="2" d="M184.5,-234C184.5,-234 246.5,-234 246.5,-234 252.5,-234 258.5,-240 258.5,-246 258.5,-246 258.5,-308 258.5,-308 258.5,-314 252.5,-320 246.5,-320 246.5,-320 184.5,-320 184.5,-320 178.5,-320 172.5,-314 172.5,-308 172.5,-308 172.5,-246 172.5,-246 172.5,-240 178.5,-234 184.5,-234"/>
<text text-anchor="middle" x="215.5" y="-308.8" font-family="Helvetica,sans-Serif" font-weight="bold" font-size="9.00">controllers</text>
</g>
<g id="clust4" class="cluster">
<title>cluster_packages/UI/controllers/dist</title>
<path fill="#ffffff" stroke="black" stroke-width="2" d="M192.5,-242C192.5,-242 238.5,-242 238.5,-242 244.5,-242 250.5,-248 250.5,-254 250.5,-254 250.5,-282 250.5,-282 250.5,-288 244.5,-294 238.5,-294 238.5,-294 192.5,-294 192.5,-294 186.5,-294 180.5,-288 180.5,-282 180.5,-282 180.5,-254 180.5,-254 180.5,-248 186.5,-242 192.5,-242"/>
<text text-anchor="middle" x="215.5" y="-282.8" font-family="Helvetica,sans-Serif" font-weight="bold" font-size="9.00">dist</text>
</g>
<g id="clust5" class="cluster">
<title>cluster_packages/UI/view&#45;parameters</title>
<path fill="#ffffff" stroke="black" stroke-width="2" d="M448,-234C448,-234 973,-234 973,-234 979,-234 985,-240 985,-246 985,-246 985,-424 985,-424 985,-430 979,-436 973,-436 973,-436 448,-436 448,-436 442,-436 436,-430 436,-424 436,-424 436,-246 436,-246 436,-240 442,-234 448,-234"/>
<text text-anchor="middle" x="710.5" y="-424.8" font-family="Helvetica,sans-Serif" font-weight="bold" font-size="9.00">view&#45;parameters</text>
</g>
<g id="clust6" class="cluster">
<title>cluster_packages/UI/view&#45;parameters/src</title>
<path fill="#ffffff" stroke="black" stroke-width="2" d="M456,-242C456,-242 965,-242 965,-242 971,-242 977,-248 977,-254 977,-254 977,-398 977,-398 977,-404 971,-410 965,-410 965,-410 456,-410 456,-410 450,-410 444,-404 444,-398 444,-398 444,-254 444,-254 444,-248 450,-242 456,-242"/>
<text text-anchor="middle" x="710.5" y="-398.8" font-family="Helvetica,sans-Serif" font-weight="bold" font-size="9.00">src</text>
</g>
<g id="clust7" class="cluster">
<title>cluster_packages/UI/view&#45;parameters/src/piano&#45;roll</title>
<path fill="#ffffff" stroke="black" stroke-width="2" d="M714,-276C714,-276 957,-276 957,-276 963,-276 969,-282 969,-288 969,-288 969,-346 969,-346 969,-352 963,-358 957,-358 957,-358 714,-358 714,-358 708,-358 702,-352 702,-346 702,-346 702,-288 702,-288 702,-282 708,-276 714,-276"/>
<text text-anchor="middle" x="835.5" y="-346.8" font-family="Helvetica,sans-Serif" font-weight="bold" font-size="9.00">piano&#45;roll</text>
</g>
<g id="clust8" class="cluster">
<title>cluster_packages/UI/view</title>
<path fill="#ffffff" stroke="black" stroke-width="2" d="M36,-24C36,-24 581,-24 581,-24 587,-24 593,-30 593,-36 593,-36 593,-214 593,-214 593,-220 587,-226 581,-226 581,-226 36,-226 36,-226 30,-226 24,-220 24,-214 24,-214 24,-36 24,-36 24,-30 30,-24 36,-24"/>
<text text-anchor="middle" x="308.5" y="-214.8" font-family="Helvetica,sans-Serif" font-weight="bold" font-size="9.00">view</text>
</g>
<g id="clust9" class="cluster">
<title>cluster_packages/UI/view/src</title>
<path fill="#ffffff" stroke="black" stroke-width="2" d="M44,-32C44,-32 573,-32 573,-32 579,-32 585,-38 585,-44 585,-44 585,-188 585,-188 585,-194 579,-200 573,-200 573,-200 44,-200 44,-200 38,-200 32,-194 32,-188 32,-188 32,-44 32,-44 32,-38 38,-32 44,-32"/>
<text text-anchor="middle" x="308.5" y="-188.8" font-family="Helvetica,sans-Serif" font-weight="bold" font-size="9.00">src</text>
</g>
<g id="clust10" class="cluster">
<title>cluster_packages/UI/view/src/reflectable</title>
<path fill="#ffffff" stroke="black" stroke-width="2" d="M283,-66C283,-66 565,-66 565,-66 571,-66 577,-72 577,-78 577,-78 577,-136 577,-136 577,-142 571,-148 565,-148 565,-148 283,-148 283,-148 277,-148 271,-142 271,-136 271,-136 271,-78 271,-78 271,-72 277,-66 283,-66"/>
<text text-anchor="middle" x="424" y="-136.8" font-family="Helvetica,sans-Serif" font-weight="bold" font-size="9.00">reflectable</text>
</g>
<g id="clust11" class="cluster">
<title>cluster_packages/util</title>
<path fill="#ffffff" stroke="black" stroke-width="2" d="M473.5,-470C473.5,-470 551.5,-470 551.5,-470 557.5,-470 563.5,-476 563.5,-482 563.5,-482 563.5,-578 563.5,-578 563.5,-584 557.5,-590 551.5,-590 551.5,-590 473.5,-590 473.5,-590 467.5,-590 461.5,-584 461.5,-578 461.5,-578 461.5,-482 461.5,-482 461.5,-476 467.5,-470 473.5,-470"/>
<text text-anchor="middle" x="512.5" y="-578.8" font-family="Helvetica,sans-Serif" font-weight="bold" font-size="9.00">util</text>
</g>
<g id="clust12" class="cluster">
<title>cluster_packages/util/time&#45;and</title>
<path fill="#ffffff" stroke="black" stroke-width="2" d="M481.5,-478C481.5,-478 543.5,-478 543.5,-478 549.5,-478 555.5,-484 555.5,-490 555.5,-490 555.5,-552 555.5,-552 555.5,-558 549.5,-564 543.5,-564 543.5,-564 481.5,-564 481.5,-564 475.5,-564 469.5,-558 469.5,-552 469.5,-552 469.5,-490 469.5,-490 469.5,-484 475.5,-478 481.5,-478"/>
<text text-anchor="middle" x="512.5" y="-552.8" font-family="Helvetica,sans-Serif" font-weight="bold" font-size="9.00">time&#45;and</text>
</g>
<g id="clust13" class="cluster">
<title>cluster_packages/util/time&#45;and/dist</title>
<path fill="#ffffff" stroke="black" stroke-width="2" d="M489.5,-486C489.5,-486 535.5,-486 535.5,-486 541.5,-486 547.5,-492 547.5,-498 547.5,-498 547.5,-526 547.5,-526 547.5,-532 541.5,-538 535.5,-538 535.5,-538 489.5,-538 489.5,-538 483.5,-538 477.5,-532 477.5,-526 477.5,-526 477.5,-498 477.5,-498 477.5,-492 483.5,-486 489.5,-486"/>
<text text-anchor="middle" x="512.5" y="-526.8" font-family="Helvetica,sans-Serif" font-weight="bold" font-size="9.00">dist</text>
</g>
<!-- packages/UI/controllers/dist/index.js -->
<g id="node1" class="node">
<title>packages/UI/controllers/dist/index.js</title>
<g id="a_node1"><a xlink:href="packages/UI/controllers/dist/index.js" xlink:title="index.js">
<polygon fill="#ffffcc" stroke="black" points="242.5,-268 241,-270 230.5,-270 229,-268 188.5,-268 188.5,-250 242.5,-250 242.5,-268"/>
<text text-anchor="start" x="198" y="-256.8" font-family="Helvetica,sans-Serif" font-size="9.00">index.js</text>
</a>
</g>
</g>
<!-- packages/UI/view&#45;parameters/src/current&#45;time&#45;ratio.ts -->
<g id="node2" class="node">
<title>packages/UI/view&#45;parameters/src/current&#45;time&#45;ratio.ts</title>
<g id="a_node2"><a xlink:href="packages/UI/view-parameters/src/current-time-ratio.ts" xlink:title="current&#45;time&#45;ratio.ts">
<path fill="#ddfeff" stroke="black" d="M820.5,-268C820.5,-268 724.5,-268 724.5,-268 721.5,-268 718.5,-265 718.5,-262 718.5,-262 718.5,-256 718.5,-256 718.5,-253 721.5,-250 724.5,-250 724.5,-250 820.5,-250 820.5,-250 823.5,-250 826.5,-253 826.5,-256 826.5,-256 826.5,-262 826.5,-262 826.5,-265 823.5,-268 820.5,-268"/>
<text text-anchor="start" x="726.5" y="-256.8" font-family="Helvetica,sans-Serif" font-size="9.00">current&#45;time&#45;ratio.ts</text>
</a>
</g>
</g>
<!-- packages/UI/view&#45;parameters/src/current&#45;time&#45;x.ts -->
<g id="node3" class="node">
<title>packages/UI/view&#45;parameters/src/current&#45;time&#45;x.ts</title>
<g id="a_node3"><a xlink:href="packages/UI/view-parameters/src/current-time-x.ts" xlink:title="current&#45;time&#45;x.ts">
<path fill="#ddfeff" stroke="black" d="M688,-272C688,-272 607,-272 607,-272 604,-272 601,-269 601,-266 601,-266 601,-260 601,-260 601,-257 604,-254 607,-254 607,-254 688,-254 688,-254 691,-254 694,-257 694,-260 694,-260 694,-266 694,-266 694,-269 691,-272 688,-272"/>
<text text-anchor="start" x="609" y="-260.8" font-family="Helvetica,sans-Serif" font-size="9.00">current&#45;time&#45;x.ts</text>
</a>
</g>
</g>
<!-- packages/UI/view&#45;parameters/src/current&#45;time&#45;x.ts&#45;&gt;packages/UI/view&#45;parameters/src/current&#45;time&#45;ratio.ts -->
<g id="edge1" class="edge">
<title>packages/UI/view&#45;parameters/src/current&#45;time&#45;x.ts&#45;&gt;packages/UI/view&#45;parameters/src/current&#45;time&#45;ratio.ts</title>
<path fill="none" stroke="#000000" stroke-width="2" stroke-opacity="0.200000" d="M694.3,-261.51C700.02,-261.32 705.93,-261.13 711.82,-260.94"/>
<polygon fill="#000000" fill-opacity="0.200000" stroke="#000000" stroke-width="2" stroke-opacity="0.200000" points="712.26,-263.03 718.19,-260.73 712.13,-258.83 712.26,-263.03"/>
</g>
<!-- packages/UI/view&#45;parameters/src/piano&#45;roll/piano&#45;roll&#45;width.ts -->
<g id="node4" class="node">
<title>packages/UI/view&#45;parameters/src/piano&#45;roll/piano&#45;roll&#45;width.ts</title>
<g id="a_node4"><a xlink:href="packages/UI/view-parameters/src/piano-roll/piano-roll-width.ts" xlink:title="piano&#45;roll&#45;width.ts">
<path fill="#ddfeff" stroke="black" d="M815.5,-302C815.5,-302 729.5,-302 729.5,-302 726.5,-302 723.5,-299 723.5,-296 723.5,-296 723.5,-290 723.5,-290 723.5,-287 726.5,-284 729.5,-284 729.5,-284 815.5,-284 815.5,-284 818.5,-284 821.5,-287 821.5,-290 821.5,-290 821.5,-296 821.5,-296 821.5,-299 818.5,-302 815.5,-302"/>
<text text-anchor="start" x="731.5" y="-290.8" font-family="Helvetica,sans-Serif" font-size="9.00">piano&#45;roll&#45;width.ts</text>
</a>
</g>
</g>
<!-- packages/UI/view&#45;parameters/src/current&#45;time&#45;x.ts&#45;&gt;packages/UI/view&#45;parameters/src/piano&#45;roll/piano&#45;roll&#45;width.ts -->
<g id="edge2" class="edge">
<title>packages/UI/view&#45;parameters/src/current&#45;time&#45;x.ts&#45;&gt;packages/UI/view&#45;parameters/src/piano&#45;roll/piano&#45;roll&#45;width.ts</title>
<path fill="none" stroke="#000000" stroke-width="2" stroke-opacity="0.200000" d="M685.4,-272C698.9,-275.29 714.29,-279.05 728.29,-282.46"/>
<polygon fill="#000000" fill-opacity="0.200000" stroke="#000000" stroke-width="2" stroke-opacity="0.200000" points="727.87,-284.52 734.2,-283.9 728.87,-280.44 727.87,-284.52"/>
</g>
<!-- packages/UI/view&#45;parameters/src/piano&#45;roll/windowInnerWidth.ts -->
<g id="node11" class="node">
<title>packages/UI/view&#45;parameters/src/piano&#45;roll/windowInnerWidth.ts</title>
<g id="a_node11"><a xlink:href="packages/UI/view-parameters/src/piano-roll/windowInnerWidth.ts" xlink:title="windowInnerWidth.ts">
<path fill="#ddfeff" stroke="black" d="M955,-302C955,-302 854,-302 854,-302 851,-302 848,-299 848,-296 848,-296 848,-290 848,-290 848,-287 851,-284 854,-284 854,-284 955,-284 955,-284 958,-284 961,-287 961,-290 961,-290 961,-296 961,-296 961,-299 958,-302 955,-302"/>
<text text-anchor="start" x="856" y="-290.8" font-family="Helvetica,sans-Serif" font-size="9.00">windowInnerWidth.ts</text>
</a>
</g>
</g>
<!-- packages/UI/view&#45;parameters/src/piano&#45;roll/piano&#45;roll&#45;width.ts&#45;&gt;packages/UI/view&#45;parameters/src/piano&#45;roll/windowInnerWidth.ts -->
<g id="edge10" class="edge">
<title>packages/UI/view&#45;parameters/src/piano&#45;roll/piano&#45;roll&#45;width.ts&#45;&gt;packages/UI/view&#45;parameters/src/piano&#45;roll/windowInnerWidth.ts</title>
<path fill="none" stroke="#000000" stroke-width="2" stroke-opacity="0.200000" d="M821.54,-293C828.07,-293 834.85,-293 841.59,-293"/>
<polygon fill="#000000" fill-opacity="0.200000" stroke="#000000" stroke-width="2" stroke-opacity="0.200000" points="841.75,-295.1 847.75,-293 841.75,-290.9 841.75,-295.1"/>
</g>
<!-- packages/UI/view&#45;parameters/src/note&#45;size.ts -->
<g id="node5" class="node">
<title>packages/UI/view&#45;parameters/src/note&#45;size.ts</title>
<g id="a_node5"><a xlink:href="packages/UI/view-parameters/src/note-size.ts" xlink:title="note&#45;size.ts">
<path fill="#ddfeff" stroke="black" d="M675.5,-302C675.5,-302 619.5,-302 619.5,-302 616.5,-302 613.5,-299 613.5,-296 613.5,-296 613.5,-290 613.5,-290 613.5,-287 616.5,-284 619.5,-284 619.5,-284 675.5,-284 675.5,-284 678.5,-284 681.5,-287 681.5,-290 681.5,-290 681.5,-296 681.5,-296 681.5,-299 678.5,-302 675.5,-302"/>
<text text-anchor="start" x="621.5" y="-290.8" font-family="Helvetica,sans-Serif" font-size="9.00">note&#45;size.ts</text>
</a>
</g>
</g>
<!-- packages/UI/view&#45;parameters/src/note&#45;size.ts&#45;&gt;packages/UI/view&#45;parameters/src/piano&#45;roll/piano&#45;roll&#45;width.ts -->
<g id="edge4" class="edge">
<title>packages/UI/view&#45;parameters/src/note&#45;size.ts&#45;&gt;packages/UI/view&#45;parameters/src/piano&#45;roll/piano&#45;roll&#45;width.ts</title>
<path fill="none" stroke="#000000" stroke-width="2" stroke-opacity="0.200000" d="M681.79,-293C692.69,-293 705.11,-293 717.15,-293"/>
<polygon fill="#000000" fill-opacity="0.200000" stroke="#000000" stroke-width="2" stroke-opacity="0.200000" points="717.41,-295.1 723.41,-293 717.41,-290.9 717.41,-295.1"/>
</g>
<!-- packages/UI/view&#45;parameters/src/piano&#45;roll/piano&#45;roll&#45;time&#45;length.ts -->
<g id="node6" class="node">
<title>packages/UI/view&#45;parameters/src/piano&#45;roll/piano&#45;roll&#45;time&#45;length.ts</title>
<g id="a_node6"><a xlink:href="packages/UI/view-parameters/src/piano-roll/piano-roll-time-length.ts" xlink:title="piano&#45;roll&#45;time&#45;length.ts">
<path fill="#ddfeff" stroke="black" d="M829,-332C829,-332 716,-332 716,-332 713,-332 710,-329 710,-326 710,-326 710,-320 710,-320 710,-317 713,-314 716,-314 716,-314 829,-314 829,-314 832,-314 835,-317 835,-320 835,-320 835,-326 835,-326 835,-329 832,-332 829,-332"/>
<text text-anchor="start" x="718" y="-320.8" font-family="Helvetica,sans-Serif" font-size="9.00">piano&#45;roll&#45;time&#45;length.ts</text>
</a>
</g>
</g>
<!-- packages/UI/view&#45;parameters/src/note&#45;size.ts&#45;&gt;packages/UI/view&#45;parameters/src/piano&#45;roll/piano&#45;roll&#45;time&#45;length.ts -->
<g id="edge3" class="edge">
<title>packages/UI/view&#45;parameters/src/note&#45;size.ts&#45;&gt;packages/UI/view&#45;parameters/src/piano&#45;roll/piano&#45;roll&#45;time&#45;length.ts</title>
<path fill="none" stroke="#000000" stroke-width="2" stroke-opacity="0.200000" d="M681.79,-301.12C696.11,-304.61 713.03,-308.74 728.3,-312.46"/>
<polygon fill="#000000" fill-opacity="0.200000" stroke="#000000" stroke-width="2" stroke-opacity="0.200000" points="727.96,-314.54 734.29,-313.92 728.95,-310.46 727.96,-314.54"/>
</g>
<!-- packages/UI/view&#45;parameters/src/piano&#45;roll/piano&#45;roll&#45;ratio.ts -->
<g id="node9" class="node">
<title>packages/UI/view&#45;parameters/src/piano&#45;roll/piano&#45;roll&#45;ratio.ts</title>
<g id="a_node9"><a xlink:href="packages/UI/view-parameters/src/piano-roll/piano-roll-ratio.ts" xlink:title="piano&#45;roll&#45;ratio.ts">
<path fill="#ddfeff" stroke="black" d="M945,-332C945,-332 864,-332 864,-332 861,-332 858,-329 858,-326 858,-326 858,-320 858,-320 858,-317 861,-314 864,-314 864,-314 945,-314 945,-314 948,-314 951,-317 951,-320 951,-320 951,-326 951,-326 951,-329 948,-332 945,-332"/>
<text text-anchor="start" x="866" y="-320.8" font-family="Helvetica,sans-Serif" font-size="9.00">piano&#45;roll&#45;ratio.ts</text>
</a>
</g>
</g>
<!-- packages/UI/view&#45;parameters/src/piano&#45;roll/piano&#45;roll&#45;time&#45;length.ts&#45;&gt;packages/UI/view&#45;parameters/src/piano&#45;roll/piano&#45;roll&#45;ratio.ts -->
<g id="edge9" class="edge">
<title>packages/UI/view&#45;parameters/src/piano&#45;roll/piano&#45;roll&#45;time&#45;length.ts&#45;&gt;packages/UI/view&#45;parameters/src/piano&#45;roll/piano&#45;roll&#45;ratio.ts</title>
<path fill="none" stroke="#000000" stroke-width="2" stroke-opacity="0.200000" d="M835.07,-323C840.55,-323 846.05,-323 851.43,-323"/>
<polygon fill="#000000" fill-opacity="0.200000" stroke="#000000" stroke-width="2" stroke-opacity="0.200000" points="851.68,-325.1 857.68,-323 851.68,-320.9 851.68,-325.1"/>
</g>
<!-- packages/UI/view&#45;parameters/src/song&#45;length.ts -->
<g id="node10" class="node">
<title>packages/UI/view&#45;parameters/src/song&#45;length.ts</title>
<g id="a_node10"><a xlink:href="packages/UI/view-parameters/src/song-length.ts" xlink:title="song&#45;length.ts">
<path fill="#ddfeff" stroke="black" d="M939.5,-384C939.5,-384 869.5,-384 869.5,-384 866.5,-384 863.5,-381 863.5,-378 863.5,-378 863.5,-372 863.5,-372 863.5,-369 866.5,-366 869.5,-366 869.5,-366 939.5,-366 939.5,-366 942.5,-366 945.5,-369 945.5,-372 945.5,-372 945.5,-378 945.5,-378 945.5,-381 942.5,-384 939.5,-384"/>
<text text-anchor="start" x="871.5" y="-372.8" font-family="Helvetica,sans-Serif" font-size="9.00">song&#45;length.ts</text>
</a>
</g>
</g>
<!-- packages/UI/view&#45;parameters/src/piano&#45;roll/piano&#45;roll&#45;time&#45;length.ts&#45;&gt;packages/UI/view&#45;parameters/src/song&#45;length.ts -->
<g id="edge8" class="edge">
<title>packages/UI/view&#45;parameters/src/piano&#45;roll/piano&#45;roll&#45;time&#45;length.ts&#45;&gt;packages/UI/view&#45;parameters/src/song&#45;length.ts</title>
<path fill="none" stroke="#000000" stroke-width="2" stroke-opacity="0.200000" d="M796.14,-332.06C818.01,-340.8 851.19,-354.08 874.88,-363.55"/>
<polygon fill="#000000" fill-opacity="0.200000" stroke="#000000" stroke-width="2" stroke-opacity="0.200000" points="874.33,-365.59 880.68,-365.87 875.89,-361.69 874.33,-365.59"/>
</g>
<!-- packages/UI/view&#45;parameters/src/now&#45;at.ts -->
<g id="node7" class="node">
<title>packages/UI/view&#45;parameters/src/now&#45;at.ts</title>
<g id="a_node7"><a xlink:href="packages/UI/view-parameters/src/now-at.ts" xlink:title="now&#45;at.ts">
<path fill="#ddfeff" stroke="black" d="M671,-332C671,-332 624,-332 624,-332 621,-332 618,-329 618,-326 618,-326 618,-320 618,-320 618,-317 621,-314 624,-314 624,-314 671,-314 671,-314 674,-314 677,-317 677,-320 677,-320 677,-326 677,-326 677,-329 674,-332 671,-332"/>
<text text-anchor="start" x="626" y="-320.8" font-family="Helvetica,sans-Serif" font-size="9.00">now&#45;at.ts</text>
</a>
</g>
</g>
<!-- packages/UI/view&#45;parameters/src/piano&#45;roll&#45;translate&#45;x.ts -->
<g id="node8" class="node">
<title>packages/UI/view&#45;parameters/src/piano&#45;roll&#45;translate&#45;x.ts</title>
<g id="a_node8"><a xlink:href="packages/UI/view-parameters/src/piano-roll-translate-x.ts" xlink:title="piano&#45;roll&#45;translate&#45;x.ts">
<path fill="#ddfeff" stroke="black" d="M567,-287C567,-287 458,-287 458,-287 455,-287 452,-284 452,-281 452,-281 452,-275 452,-275 452,-272 455,-269 458,-269 458,-269 567,-269 567,-269 570,-269 573,-272 573,-275 573,-275 573,-281 573,-281 573,-284 570,-287 567,-287"/>
<text text-anchor="start" x="460" y="-275.8" font-family="Helvetica,sans-Serif" font-size="9.00">piano&#45;roll&#45;translate&#45;x.ts</text>
</a>
</g>
</g>
<!-- packages/UI/view&#45;parameters/src/piano&#45;roll&#45;translate&#45;x.ts&#45;&gt;packages/UI/view&#45;parameters/src/current&#45;time&#45;x.ts -->
<g id="edge5" class="edge">
<title>packages/UI/view&#45;parameters/src/piano&#45;roll&#45;translate&#45;x.ts&#45;&gt;packages/UI/view&#45;parameters/src/current&#45;time&#45;x.ts</title>
<path fill="none" stroke="#000000" stroke-width="2" stroke-opacity="0.200000" d="M573.39,-271.25C580.46,-270.45 587.63,-269.64 594.58,-268.86"/>
<polygon fill="#000000" fill-opacity="0.200000" stroke="#000000" stroke-width="2" stroke-opacity="0.200000" points="595.17,-270.9 600.9,-268.14 594.7,-266.73 595.17,-270.9"/>
</g>
<!-- packages/UI/view&#45;parameters/src/piano&#45;roll&#45;translate&#45;x.ts&#45;&gt;packages/UI/view&#45;parameters/src/note&#45;size.ts -->
<g id="edge6" class="edge">
<title>packages/UI/view&#45;parameters/src/piano&#45;roll&#45;translate&#45;x.ts&#45;&gt;packages/UI/view&#45;parameters/src/note&#45;size.ts</title>
<path fill="none" stroke="#000000" stroke-width="2" stroke-opacity="0.200000" d="M573.39,-284.75C584.8,-286.04 596.47,-287.36 607.05,-288.55"/>
<polygon fill="#000000" fill-opacity="0.200000" stroke="#000000" stroke-width="2" stroke-opacity="0.200000" points="606.94,-290.65 613.14,-289.24 607.41,-286.48 606.94,-290.65"/>
</g>
<!-- packages/UI/view&#45;parameters/src/piano&#45;roll&#45;translate&#45;x.ts&#45;&gt;packages/UI/view&#45;parameters/src/now&#45;at.ts -->
<g id="edge7" class="edge">
<title>packages/UI/view&#45;parameters/src/piano&#45;roll&#45;translate&#45;x.ts&#45;&gt;packages/UI/view&#45;parameters/src/now&#45;at.ts</title>
<path fill="none" stroke="#000000" stroke-width="2" stroke-opacity="0.200000" d="M540.41,-287.11C561.6,-294.27 591.2,-304.29 613.76,-311.92"/>
<polygon fill="#000000" fill-opacity="0.200000" stroke="#000000" stroke-width="2" stroke-opacity="0.200000" points="613.27,-313.97 619.63,-313.91 614.62,-309.99 613.27,-313.97"/>
</g>
<!-- packages/UI/view/src/collection&#45;hierarchy.ts -->
<g id="node12" class="node">
<title>packages/UI/view/src/collection&#45;hierarchy.ts</title>
<g id="a_node12"><a xlink:href="packages/UI/view/src/collection-hierarchy.ts" xlink:title="collection&#45;hierarchy.ts">
<path fill="#ddfeff" stroke="black" d="M149,-174C149,-174 46,-174 46,-174 43,-174 40,-171 40,-168 40,-168 40,-162 40,-162 40,-159 43,-156 46,-156 46,-156 149,-156 149,-156 152,-156 155,-159 155,-162 155,-162 155,-168 155,-168 155,-171 152,-174 149,-174"/>
<text text-anchor="start" x="48" y="-162.8" font-family="Helvetica,sans-Serif" font-size="9.00">collection&#45;hierarchy.ts</text>
</a>
</g>
</g>
<!-- packages/UI/view/src/collection&#45;hierarchy.ts&#45;&gt;packages/UI/controllers/dist/index.js -->
<g id="edge13" class="edge">
<title>packages/UI/view/src/collection&#45;hierarchy.ts&#45;&gt;packages/UI/controllers/dist/index.js</title>
<path fill="none" stroke="#000000" stroke-width="2" stroke-opacity="0.200000" d="M109.62,-174.01C130.27,-190.74 174.59,-226.66 198.47,-246.01"/>
<polygon fill="#000000" fill-opacity="0.200000" stroke="#000000" stroke-width="2" stroke-opacity="0.200000" points="197.26,-247.73 203.24,-249.88 199.9,-244.47 197.26,-247.73"/>
</g>
<!-- packages/UI/view/src/collection&#45;layer.ts -->
<g id="node13" class="node">
<title>packages/UI/view/src/collection&#45;layer.ts</title>
<g id="a_node13"><a xlink:href="packages/UI/view/src/collection-layer.ts" xlink:title="collection&#45;layer.ts">
<path fill="#ddfeff" stroke="black" d="M257,-174C257,-174 174,-174 174,-174 171,-174 168,-171 168,-168 168,-168 168,-162 168,-162 168,-159 171,-156 174,-156 174,-156 257,-156 257,-156 260,-156 263,-159 263,-162 263,-162 263,-168 263,-168 263,-171 260,-174 257,-174"/>
<text text-anchor="start" x="176" y="-162.8" font-family="Helvetica,sans-Serif" font-size="9.00">collection&#45;layer.ts</text>
</a>
</g>
</g>
<!-- packages/UI/view/src/collection&#45;hierarchy.ts&#45;&gt;packages/UI/view/src/collection&#45;layer.ts -->
<g id="edge11" class="edge">
<title>packages/UI/view/src/collection&#45;hierarchy.ts&#45;&gt;packages/UI/view/src/collection&#45;layer.ts</title>
<path fill="none" stroke="#000000" stroke-width="2" stroke-opacity="0.200000" d="M155.14,-165C157.27,-165 159.4,-165 161.52,-165"/>
<polygon fill="#000000" fill-opacity="0.200000" stroke="#000000" stroke-width="2" stroke-opacity="0.200000" points="161.85,-167.1 167.85,-165 161.85,-162.9 161.85,-167.1"/>
</g>
<!-- packages/UI/view/src/mvc.ts -->
<g id="node14" class="node">
<title>packages/UI/view/src/mvc.ts</title>
<g id="a_node14"><a xlink:href="packages/UI/view/src/mvc.ts" xlink:title="mvc.ts">
<path fill="#ddfeff" stroke="black" d="M533.5,-58C533.5,-58 491.5,-58 491.5,-58 488.5,-58 485.5,-55 485.5,-52 485.5,-52 485.5,-46 485.5,-46 485.5,-43 488.5,-40 491.5,-40 491.5,-40 533.5,-40 533.5,-40 536.5,-40 539.5,-43 539.5,-46 539.5,-46 539.5,-52 539.5,-52 539.5,-55 536.5,-58 533.5,-58"/>
<text text-anchor="start" x="497" y="-46.8" font-family="Helvetica,sans-Serif" font-size="9.00">mvc.ts</text>
</a>
</g>
</g>
<!-- packages/UI/view/src/collection&#45;hierarchy.ts&#45;&gt;packages/UI/view/src/mvc.ts -->
<g id="edge12" class="edge">
<title>packages/UI/view/src/collection&#45;hierarchy.ts&#45;&gt;packages/UI/view/src/mvc.ts</title>
<path fill="none" stroke="#000000" stroke-width="2" stroke-opacity="0.200000" d="M129.72,-155.99C206.84,-134.44 401.42,-80.05 479.41,-58.25"/>
<polygon fill="#000000" fill-opacity="0.200000" stroke="#000000" stroke-width="2" stroke-opacity="0.200000" points="480.05,-60.25 485.27,-56.61 478.92,-56.21 480.05,-60.25"/>
</g>
<!-- packages/UI/view/src/svg&#45;collection.ts -->
<g id="node15" class="node">
<title>packages/UI/view/src/svg&#45;collection.ts</title>
<g id="a_node15"><a xlink:href="packages/UI/view/src/svg-collection.ts" xlink:title="svg&#45;collection.ts">
<path fill="#ddfeff" stroke="black" d="M392,-174C392,-174 315,-174 315,-174 312,-174 309,-171 309,-168 309,-168 309,-162 309,-162 309,-159 312,-156 315,-156 315,-156 392,-156 392,-156 395,-156 398,-159 398,-162 398,-162 398,-168 398,-168 398,-171 395,-174 392,-174"/>
<text text-anchor="start" x="317" y="-162.8" font-family="Helvetica,sans-Serif" font-size="9.00">svg&#45;collection.ts</text>
</a>
</g>
</g>
<!-- packages/UI/view/src/collection&#45;layer.ts&#45;&gt;packages/UI/view/src/svg&#45;collection.ts -->
<g id="edge14" class="edge">
<title>packages/UI/view/src/collection&#45;layer.ts&#45;&gt;packages/UI/view/src/svg&#45;collection.ts</title>
<path fill="none" stroke="#000000" stroke-width="2" stroke-opacity="0.200000" d="M263.3,-165C275.98,-165 289.75,-165 302.59,-165"/>
<polygon fill="#000000" fill-opacity="0.200000" stroke="#000000" stroke-width="2" stroke-opacity="0.200000" points="302.81,-167.1 308.81,-165 302.81,-162.9 302.81,-167.1"/>
</g>
<!-- packages/UI/view/src/svg&#45;collection.ts&#45;&gt;packages/UI/view&#45;parameters/src/piano&#45;roll&#45;translate&#45;x.ts -->
<g id="edge20" class="edge">
<title>packages/UI/view/src/svg&#45;collection.ts&#45;&gt;packages/UI/view&#45;parameters/src/piano&#45;roll&#45;translate&#45;x.ts</title>
<path fill="none" stroke="#000000" stroke-width="2" stroke-opacity="0.200000" d="M367.08,-174.06C394.87,-194.06 461.56,-242.05 493.65,-265.15"/>
<polygon fill="#000000" fill-opacity="0.200000" stroke="#000000" stroke-width="2" stroke-opacity="0.200000" points="492.76,-267.1 498.86,-268.9 495.21,-263.69 492.76,-267.1"/>
</g>
<!-- packages/UI/view/src/svg&#45;collection.ts&#45;&gt;packages/UI/view/src/mvc.ts -->
<g id="edge17" class="edge">
<title>packages/UI/view/src/svg&#45;collection.ts&#45;&gt;packages/UI/view/src/mvc.ts</title>
<path fill="none" stroke="#000000" stroke-width="2" stroke-opacity="0.200000" d="M366.82,-155.9C394.56,-135.4 462.01,-85.57 494.05,-61.89"/>
<polygon fill="#000000" fill-opacity="0.200000" stroke="#000000" stroke-width="2" stroke-opacity="0.200000" points="495.66,-63.31 499.24,-58.06 493.16,-59.94 495.66,-63.31"/>
</g>
<!-- packages/UI/view/src/reflectable/audio&#45;reflectable.ts -->
<g id="node17" class="node">
<title>packages/UI/view/src/reflectable/audio&#45;reflectable.ts</title>
<g id="a_node17"><a xlink:href="packages/UI/view/src/reflectable/audio-reflectable.ts" xlink:title="audio&#45;reflectable.ts">
<path fill="#ddfeff" stroke="black" d="M558.5,-122C558.5,-122 466.5,-122 466.5,-122 463.5,-122 460.5,-119 460.5,-116 460.5,-116 460.5,-110 460.5,-110 460.5,-107 463.5,-104 466.5,-104 466.5,-104 558.5,-104 558.5,-104 561.5,-104 564.5,-107 564.5,-110 564.5,-110 564.5,-116 564.5,-116 564.5,-119 561.5,-122 558.5,-122"/>
<text text-anchor="start" x="468.5" y="-110.8" font-family="Helvetica,sans-Serif" font-size="9.00">audio&#45;reflectable.ts</text>
</a>
</g>
</g>
<!-- packages/UI/view/src/svg&#45;collection.ts&#45;&gt;packages/UI/view/src/reflectable/audio&#45;reflectable.ts -->
<g id="edge18" class="edge">
<title>packages/UI/view/src/svg&#45;collection.ts&#45;&gt;packages/UI/view/src/reflectable/audio&#45;reflectable.ts</title>
<path fill="none" stroke="#000000" stroke-width="2" stroke-opacity="0.200000" d="M381.85,-155.94C408.67,-147.06 449.6,-133.5 478.28,-124"/>
<polygon fill="#000000" fill-opacity="0.200000" stroke="#000000" stroke-width="2" stroke-opacity="0.200000" points="479.17,-125.92 484.2,-122.04 477.85,-121.93 479.17,-125.92"/>
</g>
<!-- packages/util/time&#45;and/dist/index.js -->
<g id="node20" class="node">
<title>packages/util/time&#45;and/dist/index.js</title>
<g id="a_node20"><a xlink:href="packages/util/time-and/dist/index.js" xlink:title="index.js">
<polygon fill="#ffffcc" stroke="black" points="539.5,-512 538,-514 527.5,-514 526,-512 485.5,-512 485.5,-494 539.5,-494 539.5,-512"/>
<text text-anchor="start" x="495" y="-500.8" font-family="Helvetica,sans-Serif" font-size="9.00">index.js</text>
</a>
</g>
</g>
<!-- packages/UI/view/src/svg&#45;collection.ts&#45;&gt;packages/util/time&#45;and/dist/index.js -->
<g id="edge19" class="edge">
<title>packages/UI/view/src/svg&#45;collection.ts&#45;&gt;packages/util/time&#45;and/dist/index.js</title>
<path fill="none" stroke="#000000" stroke-width="2" stroke-opacity="0.200000" d="M358.7,-174.04C380.15,-220.23 477.57,-429.95 504.55,-488.04"/>
<polygon fill="#000000" fill-opacity="0.200000" stroke="#000000" stroke-width="2" stroke-opacity="0.200000" points="502.78,-489.22 507.21,-493.77 506.59,-487.45 502.78,-489.22"/>
</g>
<!-- packages/UI/view/src/reflectable/audio&#45;reflectable&#45;registry.ts -->
<g id="node16" class="node">
<title>packages/UI/view/src/reflectable/audio&#45;reflectable&#45;registry.ts</title>
<g id="a_node16"><a xlink:href="packages/UI/view/src/reflectable/audio-reflectable-registry.ts" xlink:title="audio&#45;reflectable&#45;registry.ts">
<path fill="#ddfeff" stroke="black" d="M417.5,-122C417.5,-122 289.5,-122 289.5,-122 286.5,-122 283.5,-119 283.5,-116 283.5,-116 283.5,-110 283.5,-110 283.5,-107 286.5,-104 289.5,-104 289.5,-104 417.5,-104 417.5,-104 420.5,-104 423.5,-107 423.5,-110 423.5,-110 423.5,-116 423.5,-116 423.5,-119 420.5,-122 417.5,-122"/>
<text text-anchor="start" x="291.5" y="-110.8" font-family="Helvetica,sans-Serif" font-size="9.00">audio&#45;reflectable&#45;registry.ts</text>
</a>
</g>
</g>
<!-- packages/UI/view/src/reflectable/audio&#45;reflectable&#45;registry.ts&#45;&gt;packages/UI/view/src/reflectable/audio&#45;reflectable.ts -->
<g id="edge15" class="edge">
<title>packages/UI/view/src/reflectable/audio&#45;reflectable&#45;registry.ts&#45;&gt;packages/UI/view/src/reflectable/audio&#45;reflectable.ts</title>
<path fill="none" stroke="#000000" stroke-width="2" stroke-opacity="0.200000" d="M423.82,-113C434.02,-113 444.44,-113 454.36,-113"/>
<polygon fill="#000000" fill-opacity="0.200000" stroke="#000000" stroke-width="2" stroke-opacity="0.200000" points="454.47,-115.1 460.47,-113 454.47,-110.9 454.47,-115.1"/>
</g>
<!-- packages/UI/view/src/reflectable/window&#45;reflectable&#45;registry.ts -->
<g id="node18" class="node">
<title>packages/UI/view/src/reflectable/window&#45;reflectable&#45;registry.ts</title>
<g id="a_node18"><a xlink:href="packages/UI/view/src/reflectable/window-reflectable-registry.ts" xlink:title="window&#45;reflectable&#45;registry.ts">
<path fill="#ddfeff" stroke="black" d="M422,-92C422,-92 285,-92 285,-92 282,-92 279,-89 279,-86 279,-86 279,-80 279,-80 279,-77 282,-74 285,-74 285,-74 422,-74 422,-74 425,-74 428,-77 428,-80 428,-80 428,-86 428,-86 428,-89 425,-92 422,-92"/>
<text text-anchor="start" x="287" y="-80.8" font-family="Helvetica,sans-Serif" font-size="9.00">window&#45;reflectable&#45;registry.ts</text>
</a>
</g>
</g>
<!-- packages/UI/view/src/reflectable/window&#45;reflectable.ts -->
<g id="node19" class="node">
<title>packages/UI/view/src/reflectable/window&#45;reflectable.ts</title>
<g id="a_node19"><a xlink:href="packages/UI/view/src/reflectable/window-reflectable.ts" xlink:title="window&#45;reflectable.ts">
<path fill="#ddfeff" stroke="black" d="M563,-92C563,-92 462,-92 462,-92 459,-92 456,-89 456,-86 456,-86 456,-80 456,-80 456,-77 459,-74 462,-74 462,-74 563,-74 563,-74 566,-74 569,-77 569,-80 569,-80 569,-86 569,-86 569,-89 566,-92 563,-92"/>
<text text-anchor="start" x="464" y="-80.8" font-family="Helvetica,sans-Serif" font-size="9.00">window&#45;reflectable.ts</text>
</a>
</g>
</g>
<!-- packages/UI/view/src/reflectable/window&#45;reflectable&#45;registry.ts&#45;&gt;packages/UI/view/src/reflectable/window&#45;reflectable.ts -->
<g id="edge16" class="edge">
<title>packages/UI/view/src/reflectable/window&#45;reflectable&#45;registry.ts&#45;&gt;packages/UI/view/src/reflectable/window&#45;reflectable.ts</title>
<path fill="none" stroke="#000000" stroke-width="2" stroke-opacity="0.200000" d="M428.4,-83C435.47,-83 442.58,-83 449.51,-83"/>
<polygon fill="#000000" fill-opacity="0.200000" stroke="#000000" stroke-width="2" stroke-opacity="0.200000" points="449.82,-85.1 455.82,-83 449.82,-80.9 449.82,-85.1"/>
</g>
</g>
</svg>
