<?xml version="1.0" encoding="UTF-8" standalone="no"?>
<!DOCTYPE svg PUBLIC "-//W3C//DTD SVG 1.1//EN"
 "http://www.w3.org/Graphics/SVG/1.1/DTD/svg11.dtd">
<!-- Generated by graphviz version 2.43.0 (0)
 -->
<!-- Title: dependency&#45;cruiser output Pages: 1 -->
<svg width="245pt" height="178pt"
 viewBox="0.00 0.00 245.00 178.00" xmlns="http://www.w3.org/2000/svg" xmlns:xlink="http://www.w3.org/1999/xlink">
<g id="graph0" class="graph" transform="scale(1 1) rotate(0) translate(4 174)">
<title>dependency&#45;cruiser output</title>
<polygon fill="white" stroke="transparent" points="-4,4 -4,-174 241,-174 241,4 -4,4"/>
<g id="clust1" class="cluster">
<title>cluster_packages</title>
<path fill="#ffffff" stroke="black" stroke-width="2" d="M20,-8C20,-8 225,-8 225,-8 231,-8 237,-14 237,-20 237,-20 237,-150 237,-150 237,-156 231,-162 225,-162 225,-162 20,-162 20,-162 14,-162 8,-156 8,-150 8,-150 8,-20 8,-20 8,-14 14,-8 20,-8"/>
<text text-anchor="middle" x="122.5" y="-150.8" font-family="Helvetica,sans-Serif" font-weight="bold" font-size="9.00">packages</text>
</g>
<g id="clust2" class="cluster">
<title>cluster_packages/UI</title>
<path fill="#ffffff" stroke="black" stroke-width="2" d="M28,-16C28,-16 217,-16 217,-16 223,-16 229,-22 229,-28 229,-28 229,-124 229,-124 229,-130 223,-136 217,-136 217,-136 28,-136 28,-136 22,-136 16,-130 16,-124 16,-124 16,-28 16,-28 16,-22 22,-16 28,-16"/>
<text text-anchor="middle" x="122.5" y="-124.8" font-family="Helvetica,sans-Serif" font-weight="bold" font-size="9.00">UI</text>
</g>
<g id="clust3" class="cluster">
<title>cluster_packages/UI/view&#45;parameters</title>
<path fill="#ffffff" stroke="black" stroke-width="2" d="M130,-24C130,-24 209,-24 209,-24 215,-24 221,-30 221,-36 221,-36 221,-98 221,-98 221,-104 215,-110 209,-110 209,-110 130,-110 130,-110 124,-110 118,-104 118,-98 118,-98 118,-36 118,-36 118,-30 124,-24 130,-24"/>
<text text-anchor="middle" x="169.5" y="-98.8" font-family="Helvetica,sans-Serif" font-weight="bold" font-size="9.00">view&#45;parameters</text>
</g>
<g id="clust4" class="cluster">
<title>cluster_packages/UI/view&#45;parameters/dist</title>
<path fill="#ffffff" stroke="black" stroke-width="2" d="M146,-32C146,-32 192,-32 192,-32 198,-32 204,-38 204,-44 204,-44 204,-72 204,-72 204,-78 198,-84 192,-84 192,-84 146,-84 146,-84 140,-84 134,-78 134,-72 134,-72 134,-44 134,-44 134,-38 140,-32 146,-32"/>
<text text-anchor="middle" x="169" y="-72.8" font-family="Helvetica,sans-Serif" font-weight="bold" font-size="9.00">dist</text>
</g>
<g id="clust5" class="cluster">
<title>cluster_packages/UI/view</title>
<path fill="#ffffff" stroke="black" stroke-width="2" d="M36,-32C36,-32 82,-32 82,-32 88,-32 94,-38 94,-44 94,-44 94,-72 94,-72 94,-78 88,-84 82,-84 82,-84 36,-84 36,-84 30,-84 24,-78 24,-72 24,-72 24,-44 24,-44 24,-38 30,-32 36,-32"/>
<text text-anchor="middle" x="59" y="-72.8" font-family="Helvetica,sans-Serif" font-weight="bold" font-size="9.00">view</text>
</g>
<!-- packages/UI/view&#45;parameters/dist/index.js -->
<g id="node1" class="node">
<title>packages/UI/view&#45;parameters/dist/index.js</title>
<g id="a_node1"><a xlink:href="packages/UI/view-parameters/dist/index.js" xlink:title="index.js">
<polygon fill="#ffffcc" stroke="black" points="196,-58 194.5,-60 184,-60 182.5,-58 142,-58 142,-40 196,-40 196,-58"/>
<text text-anchor="start" x="151.5" y="-46.8" font-family="Helvetica,sans-Serif" font-size="9.00">index.js</text>
</a>
</g>
</g>
<!-- packages/UI/view/index.ts -->
<g id="node2" class="node">
<title>packages/UI/view/index.ts</title>
<g id="a_node2"><a xlink:href="packages/UI/view/index.ts" xlink:title="index.ts">
<path fill="#ddfeff" stroke="black" d="M80,-58C80,-58 38,-58 38,-58 35,-58 32,-55 32,-52 32,-52 32,-46 32,-46 32,-43 35,-40 38,-40 38,-40 80,-40 80,-40 83,-40 86,-43 86,-46 86,-46 86,-52 86,-52 86,-55 83,-58 80,-58"/>
<text text-anchor="start" x="40.5" y="-46.8" font-family="Helvetica,sans-Serif" font-size="9.00">index.ts</text>
</a>
</g>
</g>
<!-- packages/UI/view/index.ts&#45;&gt;packages/UI/view&#45;parameters/dist/index.js -->
<g id="edge1" class="edge">
<title>packages/UI/view/index.ts&#45;&gt;packages/UI/view&#45;parameters/dist/index.js</title>
<path fill="none" stroke="#000000" stroke-width="2" stroke-opacity="0.200000" d="M86.14,-49C101.02,-49 119.79,-49 135.6,-49"/>
<polygon fill="#000000" fill-opacity="0.200000" stroke="#000000" stroke-width="2" stroke-opacity="0.200000" points="135.72,-51.1 141.72,-49 135.72,-46.9 135.72,-51.1"/>
</g>
</g>
</svg>
