<?xml version="1.0" encoding="UTF-8" standalone="no"?>
<!DOCTYPE svg PUBLIC "-//W3C//DTD SVG 1.1//EN"
 "http://www.w3.org/Graphics/SVG/1.1/DTD/svg11.dtd">
<!-- Generated by graphviz version 2.43.0 (0)
 -->
<!-- Title: dependency&#45;cruiser output Pages: 1 -->
<svg width="245pt" height="306pt"
 viewBox="0.00 0.00 245.00 306.00" xmlns="http://www.w3.org/2000/svg" xmlns:xlink="http://www.w3.org/1999/xlink">
<g id="graph0" class="graph" transform="scale(1 1) rotate(0) translate(4 302)">
<title>dependency&#45;cruiser output</title>
<polygon fill="white" stroke="transparent" points="-4,4 -4,-302 241,-302 241,4 -4,4"/>
<g id="clust1" class="cluster">
<title>cluster_packages</title>
<path fill="#ffffff" stroke="black" stroke-width="2" d="M20,-8C20,-8 225,-8 225,-8 231,-8 237,-14 237,-20 237,-20 237,-278 237,-278 237,-284 231,-290 225,-290 225,-290 20,-290 20,-290 14,-290 8,-284 8,-278 8,-278 8,-20 8,-20 8,-14 14,-8 20,-8"/>
<text text-anchor="middle" x="122.5" y="-278.8" font-family="Helvetica,sans-Serif" font-weight="bold" font-size="9.00">packages</text>
</g>
<g id="clust2" class="cluster">
<title>cluster_packages/UI</title>
<path fill="#ffffff" stroke="black" stroke-width="2" d="M28,-16C28,-16 217,-16 217,-16 223,-16 229,-22 229,-28 229,-28 229,-124 229,-124 229,-130 223,-136 217,-136 217,-136 28,-136 28,-136 22,-136 16,-130 16,-124 16,-124 16,-28 16,-28 16,-22 22,-16 28,-16"/>
<text text-anchor="middle" x="122.5" y="-124.8" font-family="Helvetica,sans-Serif" font-weight="bold" font-size="9.00">UI</text>
</g>
<g id="clust3" class="cluster">
<title>cluster_packages/UI/view&#45;parameters</title>
<path fill="#ffffff" stroke="black" stroke-width="2" d="M130,-24C130,-24 209,-24 209,-24 215,-24 221,-30 221,-36 221,-36 221,-98 221,-98 221,-104 215,-110 209,-110 209,-110 130,-110 130,-110 124,-110 118,-104 118,-98 118,-98 118,-36 118,-36 118,-30 124,-24 130,-24"/>
<text text-anchor="middle" x="169.5" y="-98.8" font-family="Helvetica,sans-Serif" font-weight="bold" font-size="9.00">view&#45;parameters</text>
</g>
<g id="clust4" class="cluster">
<title>cluster_packages/UI/view&#45;parameters/dist</title>
<path fill="#ffffff" stroke="black" stroke-width="2" d="M146,-32C146,-32 192,-32 192,-32 198,-32 204,-38 204,-44 204,-44 204,-72 204,-72 204,-78 198,-84 192,-84 192,-84 146,-84 146,-84 140,-84 134,-78 134,-72 134,-72 134,-44 134,-44 134,-38 140,-32 146,-32"/>
<text text-anchor="middle" x="169" y="-72.8" font-family="Helvetica,sans-Serif" font-weight="bold" font-size="9.00">dist</text>
</g>
<g id="clust5" class="cluster">
<title>cluster_packages/UI/view</title>
<path fill="#ffffff" stroke="black" stroke-width="2" d="M36,-45C36,-45 82,-45 82,-45 88,-45 94,-51 94,-57 94,-57 94,-85 94,-85 94,-91 88,-97 82,-97 82,-97 36,-97 36,-97 30,-97 24,-91 24,-85 24,-85 24,-57 24,-57 24,-51 30,-45 36,-45"/>
<text text-anchor="middle" x="59" y="-85.8" font-family="Helvetica,sans-Serif" font-weight="bold" font-size="9.00">view</text>
</g>
<g id="clust6" class="cluster">
<title>cluster_packages/util</title>
<path fill="#ffffff" stroke="black" stroke-width="2" d="M130,-144C130,-144 208,-144 208,-144 214,-144 220,-150 220,-156 220,-156 220,-252 220,-252 220,-258 214,-264 208,-264 208,-264 130,-264 130,-264 124,-264 118,-258 118,-252 118,-252 118,-156 118,-156 118,-150 124,-144 130,-144"/>
<text text-anchor="middle" x="169" y="-252.8" font-family="Helvetica,sans-Serif" font-weight="bold" font-size="9.00">util</text>
</g>
<g id="clust7" class="cluster">
<title>cluster_packages/util/time&#45;and</title>
<path fill="#ffffff" stroke="black" stroke-width="2" d="M138,-152C138,-152 200,-152 200,-152 206,-152 212,-158 212,-164 212,-164 212,-226 212,-226 212,-232 206,-238 200,-238 200,-238 138,-238 138,-238 132,-238 126,-232 126,-226 126,-226 126,-164 126,-164 126,-158 132,-152 138,-152"/>
<text text-anchor="middle" x="169" y="-226.8" font-family="Helvetica,sans-Serif" font-weight="bold" font-size="9.00">time&#45;and</text>
</g>
<g id="clust8" class="cluster">
<title>cluster_packages/util/time&#45;and/dist</title>
<path fill="#ffffff" stroke="black" stroke-width="2" d="M146,-160C146,-160 192,-160 192,-160 198,-160 204,-166 204,-172 204,-172 204,-200 204,-200 204,-206 198,-212 192,-212 192,-212 146,-212 146,-212 140,-212 134,-206 134,-200 134,-200 134,-172 134,-172 134,-166 140,-160 146,-160"/>
<text text-anchor="middle" x="169" y="-200.8" font-family="Helvetica,sans-Serif" font-weight="bold" font-size="9.00">dist</text>
</g>
<!-- packages/UI/view&#45;parameters/dist/index.js -->
<g id="node1" class="node">
<title>packages/UI/view&#45;parameters/dist/index.js</title>
<g id="a_node1"><a xlink:href="packages/UI/view-parameters/dist/index.js" xlink:title="index.js">
<polygon fill="#ffffcc" stroke="black" points="196,-58 194.5,-60 184,-60 182.5,-58 142,-58 142,-40 196,-40 196,-58"/>
<text text-anchor="start" x="151.5" y="-46.8" font-family="Helvetica,sans-Serif" font-size="9.00">index.js</text>
</a>
</g>
</g>
<!-- packages/UI/view/index.ts -->
<g id="node2" class="node">
<title>packages/UI/view/index.ts</title>
<g id="a_node2"><a xlink:href="packages/UI/view/index.ts" xlink:title="index.ts">
<path fill="#ddfeff" stroke="black" d="M80,-71C80,-71 38,-71 38,-71 35,-71 32,-68 32,-65 32,-65 32,-59 32,-59 32,-56 35,-53 38,-53 38,-53 80,-53 80,-53 83,-53 86,-56 86,-59 86,-59 86,-65 86,-65 86,-68 83,-71 80,-71"/>
<text text-anchor="start" x="40.5" y="-59.8" font-family="Helvetica,sans-Serif" font-size="9.00">index.ts</text>
</a>
</g>
</g>
<!-- packages/UI/view/index.ts&#45;&gt;packages/UI/view&#45;parameters/dist/index.js -->
<g id="edge2" class="edge">
<title>packages/UI/view/index.ts&#45;&gt;packages/UI/view&#45;parameters/dist/index.js</title>
<path fill="none" stroke="#000000" stroke-width="2" stroke-opacity="0.200000" d="M86.14,-58.85C101.02,-57.06 119.79,-54.8 135.6,-52.9"/>
<polygon fill="#000000" fill-opacity="0.200000" stroke="#000000" stroke-width="2" stroke-opacity="0.200000" points="136.02,-54.97 141.72,-52.16 135.51,-50.8 136.02,-54.97"/>
</g>
<!-- packages/util/time&#45;and/dist/index.js -->
<g id="node3" class="node">
<title>packages/util/time&#45;and/dist/index.js</title>
<g id="a_node3"><a xlink:href="packages/util/time-and/dist/index.js" xlink:title="index.js">
<polygon fill="#ffffcc" stroke="black" points="196,-186 194.5,-188 184,-188 182.5,-186 142,-186 142,-168 196,-168 196,-186"/>
<text text-anchor="start" x="151.5" y="-174.8" font-family="Helvetica,sans-Serif" font-size="9.00">index.js</text>
</a>
</g>
</g>
<!-- packages/UI/view/index.ts&#45;&gt;packages/util/time&#45;and/dist/index.js -->
<g id="edge1" class="edge">
<title>packages/UI/view/index.ts&#45;&gt;packages/util/time&#45;and/dist/index.js</title>
<path fill="none" stroke="#000000" stroke-width="2" stroke-opacity="0.200000" d="M68.47,-71.02C87.31,-91.08 132.74,-139.46 155.11,-163.28"/>
<polygon fill="#000000" fill-opacity="0.200000" stroke="#000000" stroke-width="2" stroke-opacity="0.200000" points="153.63,-164.76 159.26,-167.7 156.69,-161.89 153.63,-164.76"/>
</g>
</g>
</svg>
