<?xml version="1.0" encoding="UTF-8" standalone="no"?>
<!DOCTYPE svg PUBLIC "-//W3C//DTD SVG 1.1//EN"
 "http://www.w3.org/Graphics/SVG/1.1/DTD/svg11.dtd">
<!-- Generated by graphviz version 2.43.0 (0)
 -->
<!-- Title: dependency&#45;cruiser output Pages: 1 -->
<svg width="976pt" height="518pt"
 viewBox="0.00 0.00 976.00 518.00" xmlns="http://www.w3.org/2000/svg" xmlns:xlink="http://www.w3.org/1999/xlink">
<g id="graph0" class="graph" transform="scale(1 1) rotate(0) translate(4 514)">
<title>dependency&#45;cruiser output</title>
<polygon fill="white" stroke="transparent" points="-4,4 -4,-514 972,-514 972,4 -4,4"/>
<g id="clust1" class="cluster">
<title>cluster_packages</title>
<path fill="#ffffff" stroke="black" stroke-width="2" d="M20,-8C20,-8 948,-8 948,-8 954,-8 960,-14 960,-20 960,-20 960,-490 960,-490 960,-496 954,-502 948,-502 948,-502 20,-502 20,-502 14,-502 8,-496 8,-490 8,-490 8,-20 8,-20 8,-14 14,-8 20,-8"/>
<text text-anchor="middle" x="484" y="-490.8" font-family="Helvetica,sans-Serif" font-weight="bold" font-size="9.00">packages</text>
</g>
<g id="clust2" class="cluster">
<title>cluster_packages/UI</title>
<path fill="#ffffff" stroke="black" stroke-width="2" d="M28,-16C28,-16 940,-16 940,-16 946,-16 952,-22 952,-28 952,-28 952,-336 952,-336 952,-342 946,-348 940,-348 940,-348 28,-348 28,-348 22,-348 16,-342 16,-336 16,-336 16,-28 16,-28 16,-22 22,-16 28,-16"/>
<text text-anchor="middle" x="484" y="-336.8" font-family="Helvetica,sans-Serif" font-weight="bold" font-size="9.00">UI</text>
</g>
<g id="clust3" class="cluster">
<title>cluster_packages/UI/controllers</title>
<path fill="#ffffff" stroke="black" stroke-width="2" d="M313.5,-236C313.5,-236 375.5,-236 375.5,-236 381.5,-236 387.5,-242 387.5,-248 387.5,-248 387.5,-310 387.5,-310 387.5,-316 381.5,-322 375.5,-322 375.5,-322 313.5,-322 313.5,-322 307.5,-322 301.5,-316 301.5,-310 301.5,-310 301.5,-248 301.5,-248 301.5,-242 307.5,-236 313.5,-236"/>
<text text-anchor="middle" x="344.5" y="-310.8" font-family="Helvetica,sans-Serif" font-weight="bold" font-size="9.00">controllers</text>
</g>
<g id="clust4" class="cluster">
<title>cluster_packages/UI/controllers/dist</title>
<path fill="#ffffff" stroke="black" stroke-width="2" d="M321.5,-244C321.5,-244 367.5,-244 367.5,-244 373.5,-244 379.5,-250 379.5,-256 379.5,-256 379.5,-284 379.5,-284 379.5,-290 373.5,-296 367.5,-296 367.5,-296 321.5,-296 321.5,-296 315.5,-296 309.5,-290 309.5,-284 309.5,-284 309.5,-256 309.5,-256 309.5,-250 315.5,-244 321.5,-244"/>
<text text-anchor="middle" x="344.5" y="-284.8" font-family="Helvetica,sans-Serif" font-weight="bold" font-size="9.00">dist</text>
</g>
<g id="clust5" class="cluster">
<title>cluster_packages/UI/view&#45;parameters</title>
<path fill="#ffffff" stroke="black" stroke-width="2" d="M530,-236C530,-236 609,-236 609,-236 615,-236 621,-242 621,-248 621,-248 621,-310 621,-310 621,-316 615,-322 609,-322 609,-322 530,-322 530,-322 524,-322 518,-316 518,-310 518,-310 518,-248 518,-248 518,-242 524,-236 530,-236"/>
<text text-anchor="middle" x="569.5" y="-310.8" font-family="Helvetica,sans-Serif" font-weight="bold" font-size="9.00">view&#45;parameters</text>
</g>
<g id="clust6" class="cluster">
<title>cluster_packages/UI/view&#45;parameters/dist</title>
<path fill="#ffffff" stroke="black" stroke-width="2" d="M546,-244C546,-244 592,-244 592,-244 598,-244 604,-250 604,-256 604,-256 604,-284 604,-284 604,-290 598,-296 592,-296 592,-296 546,-296 546,-296 540,-296 534,-290 534,-284 534,-284 534,-256 534,-256 534,-250 540,-244 546,-244"/>
<text text-anchor="middle" x="569" y="-284.8" font-family="Helvetica,sans-Serif" font-weight="bold" font-size="9.00">dist</text>
</g>
<g id="clust7" class="cluster">
<title>cluster_packages/UI/view</title>
<path fill="#ffffff" stroke="black" stroke-width="2" d="M36,-24C36,-24 932,-24 932,-24 938,-24 944,-30 944,-36 944,-36 944,-216 944,-216 944,-222 938,-228 932,-228 932,-228 36,-228 36,-228 30,-228 24,-222 24,-216 24,-216 24,-36 24,-36 24,-30 30,-24 36,-24"/>
<text text-anchor="middle" x="484" y="-216.8" font-family="Helvetica,sans-Serif" font-weight="bold" font-size="9.00">view</text>
</g>
<g id="clust8" class="cluster">
<title>cluster_packages/UI/view/src</title>
<path fill="#ffffff" stroke="black" stroke-width="2" d="M106,-32C106,-32 924,-32 924,-32 930,-32 936,-38 936,-44 936,-44 936,-190 936,-190 936,-196 930,-202 924,-202 924,-202 106,-202 106,-202 100,-202 94,-196 94,-190 94,-190 94,-44 94,-44 94,-38 100,-32 106,-32"/>
<text text-anchor="middle" x="515" y="-190.8" font-family="Helvetica,sans-Serif" font-weight="bold" font-size="9.00">src</text>
</g>
<g id="clust9" class="cluster">
<title>cluster_packages/UI/view/src/reflectable</title>
<path fill="#ffffff" stroke="black" stroke-width="2" d="M546,-40C546,-40 916,-40 916,-40 922,-40 928,-46 928,-52 928,-52 928,-138 928,-138 928,-144 922,-150 916,-150 916,-150 546,-150 546,-150 540,-150 534,-144 534,-138 534,-138 534,-52 534,-52 534,-46 540,-40 546,-40"/>
<text text-anchor="middle" x="731" y="-138.8" font-family="Helvetica,sans-Serif" font-weight="bold" font-size="9.00">reflectable</text>
</g>
<g id="clust10" class="cluster">
<title>cluster_packages/util</title>
<path fill="#ffffff" stroke="black" stroke-width="2" d="M530,-356C530,-356 608,-356 608,-356 614,-356 620,-362 620,-368 620,-368 620,-464 620,-464 620,-470 614,-476 608,-476 608,-476 530,-476 530,-476 524,-476 518,-470 518,-464 518,-464 518,-368 518,-368 518,-362 524,-356 530,-356"/>
<text text-anchor="middle" x="569" y="-464.8" font-family="Helvetica,sans-Serif" font-weight="bold" font-size="9.00">util</text>
</g>
<g id="clust11" class="cluster">
<title>cluster_packages/util/time&#45;and</title>
<path fill="#ffffff" stroke="black" stroke-width="2" d="M538,-364C538,-364 600,-364 600,-364 606,-364 612,-370 612,-376 612,-376 612,-438 612,-438 612,-444 606,-450 600,-450 600,-450 538,-450 538,-450 532,-450 526,-444 526,-438 526,-438 526,-376 526,-376 526,-370 532,-364 538,-364"/>
<text text-anchor="middle" x="569" y="-438.8" font-family="Helvetica,sans-Serif" font-weight="bold" font-size="9.00">time&#45;and</text>
</g>
<g id="clust12" class="cluster">
<title>cluster_packages/util/time&#45;and/dist</title>
<path fill="#ffffff" stroke="black" stroke-width="2" d="M546,-372C546,-372 592,-372 592,-372 598,-372 604,-378 604,-384 604,-384 604,-412 604,-412 604,-418 598,-424 592,-424 592,-424 546,-424 546,-424 540,-424 534,-418 534,-412 534,-412 534,-384 534,-384 534,-378 540,-372 546,-372"/>
<text text-anchor="middle" x="569" y="-412.8" font-family="Helvetica,sans-Serif" font-weight="bold" font-size="9.00">dist</text>
</g>
<!-- packages/UI/controllers/dist/index.js -->
<g id="node1" class="node">
<title>packages/UI/controllers/dist/index.js</title>
<g id="a_node1"><a xlink:href="packages/UI/controllers/dist/index.js" xlink:title="index.js">
<polygon fill="#ffffcc" stroke="black" points="371.5,-270 370,-272 359.5,-272 358,-270 317.5,-270 317.5,-252 371.5,-252 371.5,-270"/>
<text text-anchor="start" x="327" y="-258.8" font-family="Helvetica,sans-Serif" font-size="9.00">index.js</text>
</a>
</g>
</g>
<!-- packages/UI/view&#45;parameters/dist/index.js -->
<g id="node2" class="node">
<title>packages/UI/view&#45;parameters/dist/index.js</title>
<g id="a_node2"><a xlink:href="packages/UI/view-parameters/dist/index.js" xlink:title="index.js">
<polygon fill="#ffffcc" stroke="black" points="596,-270 594.5,-272 584,-272 582.5,-270 542,-270 542,-252 596,-252 596,-270"/>
<text text-anchor="start" x="551.5" y="-258.8" font-family="Helvetica,sans-Serif" font-size="9.00">index.js</text>
</a>
</g>
</g>
<!-- packages/UI/view/index.ts -->
<g id="node3" class="node">
<title>packages/UI/view/index.ts</title>
<g id="a_node3"><a xlink:href="packages/UI/view/index.ts" xlink:title="index.ts">
<path fill="#ddfeff" stroke="black" d="M80,-140C80,-140 38,-140 38,-140 35,-140 32,-137 32,-134 32,-134 32,-128 32,-128 32,-125 35,-122 38,-122 38,-122 80,-122 80,-122 83,-122 86,-125 86,-128 86,-128 86,-134 86,-134 86,-137 83,-140 80,-140"/>
<text text-anchor="start" x="40.5" y="-128.8" font-family="Helvetica,sans-Serif" font-size="9.00">index.ts</text>
</a>
</g>
</g>
<!-- packages/UI/view/src/index.ts -->
<g id="node4" class="node">
<title>packages/UI/view/src/index.ts</title>
<g id="a_node4"><a xlink:href="packages/UI/view/src/index.ts" xlink:title="index.ts">
<path fill="#ddfeff" stroke="black" d="M150,-140C150,-140 108,-140 108,-140 105,-140 102,-137 102,-134 102,-134 102,-128 102,-128 102,-125 105,-122 108,-122 108,-122 150,-122 150,-122 153,-122 156,-125 156,-128 156,-128 156,-134 156,-134 156,-137 153,-140 150,-140"/>
<text text-anchor="start" x="110.5" y="-128.8" font-family="Helvetica,sans-Serif" font-size="9.00">index.ts</text>
</a>
</g>
</g>
<!-- packages/UI/view/index.ts&#45;&gt;packages/UI/view/src/index.ts -->
<g id="edge1" class="edge">
<title>packages/UI/view/index.ts&#45;&gt;packages/UI/view/src/index.ts</title>
<path fill="none" stroke="#000000" stroke-opacity="0.200000" d="M86.1,-131C89.44,-131 92.89,-131 96.31,-131"/>
<polygon fill="#000000" fill-opacity="0.200000" stroke="#000000" stroke-opacity="0.200000" points="101.64,-132.75 96.64,-131 101.64,-129.25 101.64,-132.75"/>
</g>
<!-- packages/UI/view/src/collection&#45;hierarchy.ts -->
<g id="node5" class="node">
<title>packages/UI/view/src/collection&#45;hierarchy.ts</title>
<g id="a_node5"><a xlink:href="packages/UI/view/src/collection-hierarchy.ts" xlink:title="collection&#45;hierarchy.ts">
<path fill="#ddfeff" stroke="black" d="M278,-176C278,-176 175,-176 175,-176 172,-176 169,-173 169,-170 169,-170 169,-164 169,-164 169,-161 172,-158 175,-158 175,-158 278,-158 278,-158 281,-158 284,-161 284,-164 284,-164 284,-170 284,-170 284,-173 281,-176 278,-176"/>
<text text-anchor="start" x="177" y="-164.8" font-family="Helvetica,sans-Serif" font-size="9.00">collection&#45;hierarchy.ts</text>
</a>
</g>
</g>
<!-- packages/UI/view/src/index.ts&#45;&gt;packages/UI/view/src/collection&#45;hierarchy.ts -->
<g id="edge6" class="edge">
<title>packages/UI/view/src/index.ts&#45;&gt;packages/UI/view/src/collection&#45;hierarchy.ts</title>
<path fill="none" stroke="#000000" stroke-opacity="0.200000" d="M149.96,-140.21C159.55,-144.64 169,-149 169,-149 169,-149 179.84,-152.45 192.02,-156.33"/>
<polygon fill="#000000" fill-opacity="0.200000" stroke="#000000" stroke-opacity="0.200000" points="196.39,-159.56 192.15,-156.38 197.45,-156.23 196.39,-159.56"/>
</g>
<!-- packages/UI/view/src/collection&#45;layer.ts -->
<g id="node6" class="node">
<title>packages/UI/view/src/collection&#45;layer.ts</title>
<g id="a_node6"><a xlink:href="packages/UI/view/src/collection-layer.ts" xlink:title="collection&#45;layer.ts">
<path fill="#ddfeff" stroke="black" d="M386,-162C386,-162 303,-162 303,-162 300,-162 297,-159 297,-156 297,-156 297,-150 297,-150 297,-147 300,-144 303,-144 303,-144 386,-144 386,-144 389,-144 392,-147 392,-150 392,-150 392,-156 392,-156 392,-159 389,-162 386,-162"/>
<text text-anchor="start" x="305" y="-150.8" font-family="Helvetica,sans-Serif" font-size="9.00">collection&#45;layer.ts</text>
</a>
</g>
</g>
<!-- packages/UI/view/src/index.ts&#45;&gt;packages/UI/view/src/collection&#45;layer.ts -->
<g id="edge7" class="edge">
<title>packages/UI/view/src/index.ts&#45;&gt;packages/UI/view/src/collection&#45;layer.ts</title>
<path fill="none" stroke="#000000" stroke-opacity="0.200000" d="M156.18,-133.7C189.78,-137.16 248.83,-143.24 291.67,-147.66"/>
<polygon fill="#000000" fill-opacity="0.200000" stroke="#000000" stroke-opacity="0.200000" points="296.63,-149.93 291.84,-147.68 296.99,-146.45 296.63,-149.93"/>
</g>
<!-- packages/UI/view/src/mvc.ts -->
<g id="node7" class="node">
<title>packages/UI/view/src/mvc.ts</title>
<g id="a_node7"><a xlink:href="packages/UI/view/src/mvc.ts" xlink:title="mvc.ts">
<path fill="#ddfeff" stroke="black" d="M590,-176C590,-176 548,-176 548,-176 545,-176 542,-173 542,-170 542,-170 542,-164 542,-164 542,-161 545,-158 548,-158 548,-158 590,-158 590,-158 593,-158 596,-161 596,-164 596,-164 596,-170 596,-170 596,-173 593,-176 590,-176"/>
<text text-anchor="start" x="553.5" y="-164.8" font-family="Helvetica,sans-Serif" font-size="9.00">mvc.ts</text>
</a>
</g>
</g>
<!-- packages/UI/view/src/index.ts&#45;&gt;packages/UI/view/src/mvc.ts -->
<g id="edge8" class="edge">
<title>packages/UI/view/src/index.ts&#45;&gt;packages/UI/view/src/mvc.ts</title>
<path fill="none" stroke="#000000" stroke-opacity="0.200000" d="M156.23,-129.65C163.28,-129.29 169,-129 169,-129 169,-129 284,-129 284,-129 284,-129 392,-132 392,-132 392,-132 494,-138 494,-138 494,-138 518,-153 518,-153 518,-153 526.66,-155.43 536.78,-158.26"/>
<polygon fill="#000000" fill-opacity="0.200000" stroke="#000000" stroke-opacity="0.200000" points="541.36,-161.36 537.01,-158.32 542.3,-157.99 541.36,-161.36"/>
</g>
<!-- packages/UI/view/src/svg&#45;collection.ts -->
<g id="node8" class="node">
<title>packages/UI/view/src/svg&#45;collection.ts</title>
<g id="a_node8"><a xlink:href="packages/UI/view/src/svg-collection.ts" xlink:title="svg&#45;collection.ts">
<path fill="#ddfeff" stroke="black" d="M488,-162C488,-162 411,-162 411,-162 408,-162 405,-159 405,-156 405,-156 405,-150 405,-150 405,-147 408,-144 411,-144 411,-144 488,-144 488,-144 491,-144 494,-147 494,-150 494,-150 494,-156 494,-156 494,-159 491,-162 488,-162"/>
<text text-anchor="start" x="413" y="-150.8" font-family="Helvetica,sans-Serif" font-size="9.00">svg&#45;collection.ts</text>
</a>
</g>
</g>
<!-- packages/UI/view/src/index.ts&#45;&gt;packages/UI/view/src/svg&#45;collection.ts -->
<g id="edge10" class="edge">
<title>packages/UI/view/src/index.ts&#45;&gt;packages/UI/view/src/svg&#45;collection.ts</title>
<path fill="none" stroke="#000000" stroke-opacity="0.200000" d="M156.08,-131.7C222.35,-133.47 392,-138 392,-138 392,-138 399.7,-140.05 409.42,-142.63"/>
<polygon fill="#000000" fill-opacity="0.200000" stroke="#000000" stroke-opacity="0.200000" points="413.88,-145.62 409.5,-142.65 414.78,-142.24 413.88,-145.62"/>
</g>
<!-- packages/UI/view/src/reflectable/index.ts -->
<g id="node9" class="node">
<title>packages/UI/view/src/reflectable/index.ts</title>
<g id="a_node9"><a xlink:href="packages/UI/view/src/reflectable/index.ts" xlink:title="index.ts">
<path fill="#ddfeff" stroke="black" d="M590,-105C590,-105 548,-105 548,-105 545,-105 542,-102 542,-99 542,-99 542,-93 542,-93 542,-90 545,-87 548,-87 548,-87 590,-87 590,-87 593,-87 596,-90 596,-93 596,-93 596,-99 596,-99 596,-102 593,-105 590,-105"/>
<text text-anchor="start" x="550.5" y="-93.8" font-family="Helvetica,sans-Serif" font-size="9.00">index.ts</text>
</a>
</g>
</g>
<!-- packages/UI/view/src/index.ts&#45;&gt;packages/UI/view/src/reflectable/index.ts -->
<g id="edge9" class="edge">
<title>packages/UI/view/src/index.ts&#45;&gt;packages/UI/view/src/reflectable/index.ts</title>
<path fill="none" stroke="#000000" stroke-opacity="0.200000" d="M149.96,-121.79C159.55,-117.36 169,-113 169,-113 169,-113 442.61,-101.34 536.68,-97.33"/>
<polygon fill="#000000" fill-opacity="0.200000" stroke="#000000" stroke-opacity="0.200000" points="541.9,-98.86 536.83,-97.33 541.75,-95.37 541.9,-98.86"/>
</g>
<!-- packages/UI/view/src/collection&#45;hierarchy.ts&#45;&gt;packages/UI/controllers/dist/index.js -->
<g id="edge4" class="edge">
<title>packages/UI/view/src/collection&#45;hierarchy.ts&#45;&gt;packages/UI/controllers/dist/index.js</title>
<path fill="none" stroke="#000000" stroke-opacity="0.200000" d="M238.62,-176.01C259.44,-192.88 304.33,-229.26 328.07,-248.49"/>
<polygon fill="#000000" fill-opacity="0.200000" stroke="#000000" stroke-opacity="0.200000" points="332.24,-251.88 326.94,-250.48 330.3,-250.3 328.36,-248.73 328.36,-248.73 328.36,-248.73 330.3,-250.3 329.77,-246.98 332.24,-251.88 332.24,-251.88"/>
</g>
<!-- packages/UI/view/src/collection&#45;hierarchy.ts&#45;&gt;packages/UI/view/src/collection&#45;layer.ts -->
<g id="edge2" class="edge">
<title>packages/UI/view/src/collection&#45;hierarchy.ts&#45;&gt;packages/UI/view/src/collection&#45;layer.ts</title>
<path fill="none" stroke="#000000" stroke-opacity="0.200000" d="M284.14,-160.16C286.67,-159.86 289.2,-159.55 291.71,-159.25"/>
<polygon fill="#000000" fill-opacity="0.200000" stroke="#000000" stroke-opacity="0.200000" points="296.85,-158.63 292.15,-161.46 294.36,-158.93 291.88,-159.23 291.88,-159.23 291.88,-159.23 294.36,-158.93 291.61,-157 296.85,-158.63 296.85,-158.63"/>
</g>
<!-- packages/UI/view/src/collection&#45;hierarchy.ts&#45;&gt;packages/UI/view/src/mvc.ts -->
<g id="edge3" class="edge">
<title>packages/UI/view/src/collection&#45;hierarchy.ts&#45;&gt;packages/UI/view/src/mvc.ts</title>
<path fill="none" stroke="#000000" stroke-opacity="0.200000" d="M284.25,-167.82C291.8,-167.93 297,-168 297,-168 297,-168 494,-168 494,-168 494,-168 516.46,-167.7 536.64,-167.42"/>
<polygon fill="#000000" fill-opacity="0.200000" stroke="#000000" stroke-opacity="0.200000" points="541.7,-167.36 536.73,-169.67 539.2,-167.39 536.7,-167.42 536.7,-167.42 536.7,-167.42 539.2,-167.39 536.67,-165.17 541.7,-167.36 541.7,-167.36"/>
</g>
<!-- packages/UI/view/src/collection&#45;layer.ts&#45;&gt;packages/UI/view/src/svg&#45;collection.ts -->
<g id="edge5" class="edge">
<title>packages/UI/view/src/collection&#45;layer.ts&#45;&gt;packages/UI/view/src/svg&#45;collection.ts</title>
<path fill="none" stroke="#000000" stroke-opacity="0.200000" d="M392.18,-153C394.71,-153 397.25,-153 399.79,-153"/>
<polygon fill="#000000" fill-opacity="0.200000" stroke="#000000" stroke-opacity="0.200000" points="404.97,-153 399.97,-155.25 402.47,-153 399.97,-153 399.97,-153 399.97,-153 402.47,-153 399.97,-150.75 404.97,-153 404.97,-153"/>
</g>
<!-- packages/UI/view/src/svg&#45;collection.ts&#45;&gt;packages/UI/view&#45;parameters/dist/index.js -->
<g id="edge20" class="edge">
<title>packages/UI/view/src/svg&#45;collection.ts&#45;&gt;packages/UI/view&#45;parameters/dist/index.js</title>
<path fill="none" stroke="#000000" stroke-opacity="0.200000" d="M460.52,-162.21C481.5,-181.5 530.11,-226.18 554.1,-248.23"/>
<polygon fill="#000000" fill-opacity="0.200000" stroke="#000000" stroke-opacity="0.200000" points="558.01,-251.82 552.8,-250.09 556.17,-250.12 554.33,-248.43 554.33,-248.43 554.33,-248.43 556.17,-250.12 555.85,-246.78 558.01,-251.82 558.01,-251.82"/>
</g>
<!-- packages/UI/view/src/svg&#45;collection.ts&#45;&gt;packages/UI/view/src/mvc.ts -->
<g id="edge17" class="edge">
<title>packages/UI/view/src/svg&#45;collection.ts&#45;&gt;packages/UI/view/src/mvc.ts</title>
<path fill="none" stroke="#000000" stroke-opacity="0.200000" d="M494.25,-158.21C508.42,-159.9 523.84,-161.74 536.9,-163.29"/>
<polygon fill="#000000" fill-opacity="0.200000" stroke="#000000" stroke-opacity="0.200000" points="541.96,-163.9 536.73,-165.54 539.48,-163.6 537,-163.31 537,-163.31 537,-163.31 539.48,-163.6 537.27,-161.07 541.96,-163.9 541.96,-163.9"/>
</g>
<!-- packages/UI/view/src/svg&#45;collection.ts&#45;&gt;packages/UI/view/src/reflectable/index.ts -->
<g id="edge18" class="edge">
<title>packages/UI/view/src/svg&#45;collection.ts&#45;&gt;packages/UI/view/src/reflectable/index.ts</title>
<path fill="none" stroke="#000000" stroke-opacity="0.200000" d="M464.49,-143.88C484.26,-131 518,-109 518,-109 518,-109 526.66,-106.75 536.78,-104.12"/>
<polygon fill="#000000" fill-opacity="0.200000" stroke="#000000" stroke-opacity="0.200000" points="541.83,-102.8 537.56,-106.24 539.41,-103.43 536.99,-104.06 536.99,-104.06 536.99,-104.06 539.41,-103.43 536.42,-101.89 541.83,-102.8 541.83,-102.8"/>
</g>
<!-- packages/util/time&#45;and/dist/index.js -->
<g id="node14" class="node">
<title>packages/util/time&#45;and/dist/index.js</title>
<g id="a_node14"><a xlink:href="packages/util/time-and/dist/index.js" xlink:title="index.js">
<polygon fill="#ffffcc" stroke="black" points="596,-398 594.5,-400 584,-400 582.5,-398 542,-398 542,-380 596,-380 596,-398"/>
<text text-anchor="start" x="551.5" y="-386.8" font-family="Helvetica,sans-Serif" font-size="9.00">index.js</text>
</a>
</g>
</g>
<!-- packages/UI/view/src/svg&#45;collection.ts&#45;&gt;packages/util/time&#45;and/dist/index.js -->
<g id="edge19" class="edge">
<title>packages/UI/view/src/svg&#45;collection.ts&#45;&gt;packages/util/time&#45;and/dist/index.js</title>
<path fill="none" stroke="#000000" stroke-opacity="0.200000" d="M454.72,-162.13C469.5,-194.1 518,-299 518,-299 518,-299 546.42,-350.15 560.4,-375.33"/>
<polygon fill="#000000" fill-opacity="0.200000" stroke="#000000" stroke-opacity="0.200000" points="562.84,-379.71 558.44,-376.43 561.62,-377.52 560.41,-375.34 560.41,-375.34 560.41,-375.34 561.62,-377.52 562.38,-374.24 562.84,-379.71 562.84,-379.71"/>
</g>
<!-- packages/UI/view/src/reflectable/audio&#45;reflectable&#45;registry.ts -->
<g id="node10" class="node">
<title>packages/UI/view/src/reflectable/audio&#45;reflectable&#45;registry.ts</title>
<g id="a_node10"><a xlink:href="packages/UI/view/src/reflectable/audio-reflectable-registry.ts" xlink:title="audio&#45;reflectable&#45;registry.ts">
<path fill="#ddfeff" stroke="black" d="M783.5,-66C783.5,-66 655.5,-66 655.5,-66 652.5,-66 649.5,-63 649.5,-60 649.5,-60 649.5,-54 649.5,-54 649.5,-51 652.5,-48 655.5,-48 655.5,-48 783.5,-48 783.5,-48 786.5,-48 789.5,-51 789.5,-54 789.5,-54 789.5,-60 789.5,-60 789.5,-63 786.5,-66 783.5,-66"/>
<text text-anchor="start" x="657.5" y="-54.8" font-family="Helvetica,sans-Serif" font-size="9.00">audio&#45;reflectable&#45;registry.ts</text>
</a>
</g>
</g>
<!-- packages/UI/view/src/reflectable/index.ts&#45;&gt;packages/UI/view/src/reflectable/audio&#45;reflectable&#45;registry.ts -->
<g id="edge13" class="edge">
<title>packages/UI/view/src/reflectable/index.ts&#45;&gt;packages/UI/view/src/reflectable/audio&#45;reflectable&#45;registry.ts</title>
<path fill="none" stroke="#000000" stroke-opacity="0.200000" d="M596.23,-88.66C617.86,-82.6 645,-75 645,-75 645,-75 659.86,-71.36 676.21,-67.36"/>
<polygon fill="#000000" fill-opacity="0.200000" stroke="#000000" stroke-opacity="0.200000" points="681.74,-67.81 676.46,-67.29 680.9,-64.41 681.74,-67.81"/>
</g>
<!-- packages/UI/view/src/reflectable/audio&#45;reflectable.ts -->
<g id="node11" class="node">
<title>packages/UI/view/src/reflectable/audio&#45;reflectable.ts</title>
<g id="a_node11"><a xlink:href="packages/UI/view/src/reflectable/audio-reflectable.ts" xlink:title="audio&#45;reflectable.ts">
<path fill="#ddfeff" stroke="black" d="M909.5,-78C909.5,-78 817.5,-78 817.5,-78 814.5,-78 811.5,-75 811.5,-72 811.5,-72 811.5,-66 811.5,-66 811.5,-63 814.5,-60 817.5,-60 817.5,-60 909.5,-60 909.5,-60 912.5,-60 915.5,-63 915.5,-66 915.5,-66 915.5,-72 915.5,-72 915.5,-75 912.5,-78 909.5,-78"/>
<text text-anchor="start" x="819.5" y="-66.8" font-family="Helvetica,sans-Serif" font-size="9.00">audio&#45;reflectable.ts</text>
</a>
</g>
</g>
<!-- packages/UI/view/src/reflectable/index.ts&#45;&gt;packages/UI/view/src/reflectable/audio&#45;reflectable.ts -->
<g id="edge12" class="edge">
<title>packages/UI/view/src/reflectable/index.ts&#45;&gt;packages/UI/view/src/reflectable/audio&#45;reflectable.ts</title>
<path fill="none" stroke="#000000" stroke-opacity="0.200000" d="M596.21,-93.58C643.27,-89.24 743.03,-80.03 806.19,-74.2"/>
<polygon fill="#000000" fill-opacity="0.200000" stroke="#000000" stroke-opacity="0.200000" points="811.59,-75.46 806.45,-74.17 811.27,-71.97 811.59,-75.46"/>
</g>
<!-- packages/UI/view/src/reflectable/window&#45;reflectable.ts -->
<g id="node12" class="node">
<title>packages/UI/view/src/reflectable/window&#45;reflectable.ts</title>
<g id="a_node12"><a xlink:href="packages/UI/view/src/reflectable/window-reflectable.ts" xlink:title="window&#45;reflectable.ts">
<path fill="#ddfeff" stroke="black" d="M914,-111C914,-111 813,-111 813,-111 810,-111 807,-108 807,-105 807,-105 807,-99 807,-99 807,-96 810,-93 813,-93 813,-93 914,-93 914,-93 917,-93 920,-96 920,-99 920,-99 920,-105 920,-105 920,-108 917,-111 914,-111"/>
<text text-anchor="start" x="815" y="-99.8" font-family="Helvetica,sans-Serif" font-size="9.00">window&#45;reflectable.ts</text>
</a>
</g>
</g>
<!-- packages/UI/view/src/reflectable/index.ts&#45;&gt;packages/UI/view/src/reflectable/window&#45;reflectable.ts -->
<g id="edge14" class="edge">
<title>packages/UI/view/src/reflectable/index.ts&#45;&gt;packages/UI/view/src/reflectable/window&#45;reflectable.ts</title>
<path fill="none" stroke="#000000" stroke-opacity="0.200000" d="M596.13,-96.47C655.22,-97.52 794,-100 794,-100 794,-100 796.96,-100.09 801.66,-100.22"/>
<polygon fill="#000000" fill-opacity="0.200000" stroke="#000000" stroke-opacity="0.200000" points="806.83,-102.13 801.89,-100.23 806.94,-98.63 806.83,-102.13"/>
</g>
<!-- packages/UI/view/src/reflectable/window&#45;reflectable&#45;registry.ts -->
<g id="node13" class="node">
<title>packages/UI/view/src/reflectable/window&#45;reflectable&#45;registry.ts</title>
<g id="a_node13"><a xlink:href="packages/UI/view/src/reflectable/window-reflectable-registry.ts" xlink:title="window&#45;reflectable&#45;registry.ts">
<path fill="#ddfeff" stroke="black" d="M788,-124C788,-124 651,-124 651,-124 648,-124 645,-121 645,-118 645,-118 645,-112 645,-112 645,-109 648,-106 651,-106 651,-106 788,-106 788,-106 791,-106 794,-109 794,-112 794,-112 794,-118 794,-118 794,-121 791,-124 788,-124"/>
<text text-anchor="start" x="653" y="-112.8" font-family="Helvetica,sans-Serif" font-size="9.00">window&#45;reflectable&#45;registry.ts</text>
</a>
</g>
</g>
<!-- packages/UI/view/src/reflectable/index.ts&#45;&gt;packages/UI/view/src/reflectable/window&#45;reflectable&#45;registry.ts -->
<g id="edge15" class="edge">
<title>packages/UI/view/src/reflectable/index.ts&#45;&gt;packages/UI/view/src/reflectable/window&#45;reflectable&#45;registry.ts</title>
<path fill="none" stroke="#000000" stroke-opacity="0.200000" d="M596.21,-99.35C609.34,-101.03 625.98,-103.16 642.72,-105.3"/>
<polygon fill="#000000" fill-opacity="0.200000" stroke="#000000" stroke-opacity="0.200000" points="647.7,-107.71 642.96,-105.34 648.14,-104.23 647.7,-107.71"/>
</g>
<!-- packages/UI/view/src/reflectable/audio&#45;reflectable&#45;registry.ts&#45;&gt;packages/UI/view/src/reflectable/audio&#45;reflectable.ts -->
<g id="edge11" class="edge">
<title>packages/UI/view/src/reflectable/audio&#45;reflectable&#45;registry.ts&#45;&gt;packages/UI/view/src/reflectable/audio&#45;reflectable.ts</title>
<path fill="none" stroke="#000000" stroke-opacity="0.200000" d="M789.84,-62.86C795.22,-63.31 800.62,-63.77 805.91,-64.22"/>
<polygon fill="#000000" fill-opacity="0.200000" stroke="#000000" stroke-opacity="0.200000" points="811.15,-64.66 805.98,-66.48 808.66,-64.45 806.17,-64.24 806.17,-64.24 806.17,-64.24 808.66,-64.45 806.36,-62 811.15,-64.66 811.15,-64.66"/>
</g>
<!-- packages/UI/view/src/reflectable/window&#45;reflectable&#45;registry.ts&#45;&gt;packages/UI/view/src/reflectable/window&#45;reflectable.ts -->
<g id="edge16" class="edge">
<title>packages/UI/view/src/reflectable/window&#45;reflectable&#45;registry.ts&#45;&gt;packages/UI/view/src/reflectable/window&#45;reflectable.ts</title>
<path fill="none" stroke="#000000" stroke-opacity="0.200000" d="M794.41,-108.23C796.89,-108.01 799.37,-107.78 801.83,-107.55"/>
<polygon fill="#000000" fill-opacity="0.200000" stroke="#000000" stroke-opacity="0.200000" points="806.85,-107.09 802.07,-109.79 804.36,-107.32 801.87,-107.55 801.87,-107.55 801.87,-107.55 804.36,-107.32 801.66,-105.31 806.85,-107.09 806.85,-107.09"/>
</g>
</g>
</svg>
