<?xml version="1.0" encoding="UTF-8" standalone="no"?>
<!DOCTYPE svg PUBLIC "-//W3C//DTD SVG 1.1//EN"
 "http://www.w3.org/Graphics/SVG/1.1/DTD/svg11.dtd">
<!-- Generated by graphviz version 2.43.0 (0)
 -->
<!-- Title: dependency&#45;cruiser output Pages: 1 -->
<svg width="1157pt" height="632pt"
 viewBox="0.00 0.00 1156.50 632.00" xmlns="http://www.w3.org/2000/svg" xmlns:xlink="http://www.w3.org/1999/xlink">
<g id="graph0" class="graph" transform="scale(1 1) rotate(0) translate(4 628)">
<title>dependency&#45;cruiser output</title>
<polygon fill="white" stroke="transparent" points="-4,4 -4,-628 1152.5,-628 1152.5,4 -4,4"/>
<g id="clust1" class="cluster">
<title>cluster_packages</title>
<path fill="#ffffff" stroke="black" stroke-width="2" d="M20,-8C20,-8 1128.5,-8 1128.5,-8 1134.5,-8 1140.5,-14 1140.5,-20 1140.5,-20 1140.5,-604 1140.5,-604 1140.5,-610 1134.5,-616 1128.5,-616 1128.5,-616 20,-616 20,-616 14,-616 8,-610 8,-604 8,-604 8,-20 8,-20 8,-14 14,-8 20,-8"/>
<text text-anchor="middle" x="574.25" y="-604.8" font-family="Helvetica,sans-Serif" font-weight="bold" font-size="9.00">packages</text>
</g>
<g id="clust2" class="cluster">
<title>cluster_packages/UI</title>
<path fill="#ffffff" stroke="black" stroke-width="2" d="M28,-16C28,-16 1120.5,-16 1120.5,-16 1126.5,-16 1132.5,-22 1132.5,-28 1132.5,-28 1132.5,-450 1132.5,-450 1132.5,-456 1126.5,-462 1120.5,-462 1120.5,-462 28,-462 28,-462 22,-462 16,-456 16,-450 16,-450 16,-28 16,-28 16,-22 22,-16 28,-16"/>
<text text-anchor="middle" x="574.25" y="-450.8" font-family="Helvetica,sans-Serif" font-weight="bold" font-size="9.00">UI</text>
</g>
<g id="clust3" class="cluster">
<title>cluster_packages/UI/controllers</title>
<path fill="#ffffff" stroke="black" stroke-width="2" d="M175,-234C175,-234 358,-234 358,-234 364,-234 370,-240 370,-246 370,-246 370,-376 370,-376 370,-382 364,-388 358,-388 358,-388 175,-388 175,-388 169,-388 163,-382 163,-376 163,-376 163,-246 163,-246 163,-240 169,-234 175,-234"/>
<text text-anchor="middle" x="266.5" y="-376.8" font-family="Helvetica,sans-Serif" font-weight="bold" font-size="9.00">controllers</text>
</g>
<g id="clust4" class="cluster">
<title>cluster_packages/UI/controllers/src</title>
<path fill="#ffffff" stroke="black" stroke-width="2" d="M183,-242C183,-242 350,-242 350,-242 356,-242 362,-248 362,-254 362,-254 362,-350 362,-350 362,-356 356,-362 350,-362 350,-362 183,-362 183,-362 177,-362 171,-356 171,-350 171,-350 171,-254 171,-254 171,-248 177,-242 183,-242"/>
<text text-anchor="middle" x="266.5" y="-350.8" font-family="Helvetica,sans-Serif" font-weight="bold" font-size="9.00">src</text>
</g>
<g id="clust5" class="cluster">
<title>cluster_packages/UI/controllers/src/slider</title>
<path fill="#ffffff" stroke="black" stroke-width="2" d="M191,-250C191,-250 342,-250 342,-250 348,-250 354,-256 354,-262 354,-262 354,-324 354,-324 354,-330 348,-336 342,-336 342,-336 191,-336 191,-336 185,-336 179,-330 179,-324 179,-324 179,-262 179,-262 179,-256 185,-250 191,-250"/>
<text text-anchor="middle" x="266.5" y="-324.8" font-family="Helvetica,sans-Serif" font-weight="bold" font-size="9.00">slider</text>
</g>
<g id="clust6" class="cluster">
<title>cluster_packages/UI/controllers/src/slider/hierarchy&#45;level</title>
<path fill="#ffffff" stroke="black" stroke-width="2" d="M199,-258C199,-258 334,-258 334,-258 340,-258 346,-264 346,-270 346,-270 346,-298 346,-298 346,-304 340,-310 334,-310 334,-310 199,-310 199,-310 193,-310 187,-304 187,-298 187,-298 187,-270 187,-270 187,-264 193,-258 199,-258"/>
<text text-anchor="middle" x="266.5" y="-298.8" font-family="Helvetica,sans-Serif" font-weight="bold" font-size="9.00">hierarchy&#45;level</text>
</g>
<g id="clust7" class="cluster">
<title>cluster_packages/UI/view&#45;parameters</title>
<path fill="#ffffff" stroke="black" stroke-width="2" d="M580.5,-234C580.5,-234 1112.5,-234 1112.5,-234 1118.5,-234 1124.5,-240 1124.5,-246 1124.5,-246 1124.5,-424 1124.5,-424 1124.5,-430 1118.5,-436 1112.5,-436 1112.5,-436 580.5,-436 580.5,-436 574.5,-436 568.5,-430 568.5,-424 568.5,-424 568.5,-246 568.5,-246 568.5,-240 574.5,-234 580.5,-234"/>
<text text-anchor="middle" x="846.5" y="-424.8" font-family="Helvetica,sans-Serif" font-weight="bold" font-size="9.00">view&#45;parameters</text>
</g>
<g id="clust8" class="cluster">
<title>cluster_packages/UI/view&#45;parameters/src</title>
<path fill="#ffffff" stroke="black" stroke-width="2" d="M588.5,-242C588.5,-242 1104.5,-242 1104.5,-242 1110.5,-242 1116.5,-248 1116.5,-254 1116.5,-254 1116.5,-398 1116.5,-398 1116.5,-404 1110.5,-410 1104.5,-410 1104.5,-410 588.5,-410 588.5,-410 582.5,-410 576.5,-404 576.5,-398 576.5,-398 576.5,-254 576.5,-254 576.5,-248 582.5,-242 588.5,-242"/>
<text text-anchor="middle" x="846.5" y="-398.8" font-family="Helvetica,sans-Serif" font-weight="bold" font-size="9.00">src</text>
</g>
<g id="clust9" class="cluster">
<title>cluster_packages/UI/view&#45;parameters/src/piano&#45;roll</title>
<path fill="#ffffff" stroke="black" stroke-width="2" d="M853.5,-276C853.5,-276 1096.5,-276 1096.5,-276 1102.5,-276 1108.5,-282 1108.5,-288 1108.5,-288 1108.5,-346 1108.5,-346 1108.5,-352 1102.5,-358 1096.5,-358 1096.5,-358 853.5,-358 853.5,-358 847.5,-358 841.5,-352 841.5,-346 841.5,-346 841.5,-288 841.5,-288 841.5,-282 847.5,-276 853.5,-276"/>
<text text-anchor="middle" x="975" y="-346.8" font-family="Helvetica,sans-Serif" font-weight="bold" font-size="9.00">piano&#45;roll</text>
</g>
<g id="clust10" class="cluster">
<title>cluster_packages/UI/view</title>
<path fill="#ffffff" stroke="black" stroke-width="2" d="M36,-24C36,-24 713.5,-24 713.5,-24 719.5,-24 725.5,-30 725.5,-36 725.5,-36 725.5,-214 725.5,-214 725.5,-220 719.5,-226 713.5,-226 713.5,-226 36,-226 36,-226 30,-226 24,-220 24,-214 24,-214 24,-36 24,-36 24,-30 30,-24 36,-24"/>
<text text-anchor="middle" x="374.75" y="-214.8" font-family="Helvetica,sans-Serif" font-weight="bold" font-size="9.00">view</text>
</g>
<g id="clust11" class="cluster">
<title>cluster_packages/UI/view/src</title>
<path fill="#ffffff" stroke="black" stroke-width="2" d="M44,-32C44,-32 705.5,-32 705.5,-32 711.5,-32 717.5,-38 717.5,-44 717.5,-44 717.5,-188 717.5,-188 717.5,-194 711.5,-200 705.5,-200 705.5,-200 44,-200 44,-200 38,-200 32,-194 32,-188 32,-188 32,-44 32,-44 32,-38 38,-32 44,-32"/>
<text text-anchor="middle" x="374.75" y="-188.8" font-family="Helvetica,sans-Serif" font-weight="bold" font-size="9.00">src</text>
</g>
<g id="clust12" class="cluster">
<title>cluster_packages/UI/view/src/reflectable</title>
<path fill="#ffffff" stroke="black" stroke-width="2" d="M390,-66C390,-66 697.5,-66 697.5,-66 703.5,-66 709.5,-72 709.5,-78 709.5,-78 709.5,-136 709.5,-136 709.5,-142 703.5,-148 697.5,-148 697.5,-148 390,-148 390,-148 384,-148 378,-142 378,-136 378,-136 378,-78 378,-78 378,-72 384,-66 390,-66"/>
<text text-anchor="middle" x="543.75" y="-136.8" font-family="Helvetica,sans-Serif" font-weight="bold" font-size="9.00">reflectable</text>
</g>
<g id="clust13" class="cluster">
<title>cluster_packages/util</title>
<path fill="#ffffff" stroke="black" stroke-width="2" d="M555,-470C555,-470 821.5,-470 821.5,-470 827.5,-470 833.5,-476 833.5,-482 833.5,-482 833.5,-578 833.5,-578 833.5,-584 827.5,-590 821.5,-590 821.5,-590 555,-590 555,-590 549,-590 543,-584 543,-578 543,-578 543,-482 543,-482 543,-476 549,-470 555,-470"/>
<text text-anchor="middle" x="688.25" y="-578.8" font-family="Helvetica,sans-Serif" font-weight="bold" font-size="9.00">util</text>
</g>
<g id="clust14" class="cluster">
<title>cluster_packages/util/time&#45;and</title>
<path fill="#ffffff" stroke="black" stroke-width="2" d="M563,-478C563,-478 813.5,-478 813.5,-478 819.5,-478 825.5,-484 825.5,-490 825.5,-490 825.5,-552 825.5,-552 825.5,-558 819.5,-564 813.5,-564 813.5,-564 563,-564 563,-564 557,-564 551,-558 551,-552 551,-552 551,-490 551,-490 551,-484 557,-478 563,-478"/>
<text text-anchor="middle" x="688.25" y="-552.8" font-family="Helvetica,sans-Serif" font-weight="bold" font-size="9.00">time&#45;and</text>
</g>
<g id="clust15" class="cluster">
<title>cluster_packages/util/time&#45;and/src</title>
<path fill="#ffffff" stroke="black" stroke-width="2" d="M571,-486C571,-486 805.5,-486 805.5,-486 811.5,-486 817.5,-492 817.5,-498 817.5,-498 817.5,-526 817.5,-526 817.5,-532 811.5,-538 805.5,-538 805.5,-538 571,-538 571,-538 565,-538 559,-532 559,-526 559,-526 559,-498 559,-498 559,-492 565,-486 571,-486"/>
<text text-anchor="middle" x="688.25" y="-526.8" font-family="Helvetica,sans-Serif" font-weight="bold" font-size="9.00">src</text>
</g>
<!-- packages/UI/controllers/src/slider/hierarchy&#45;level/hierarchy&#45;level&#45;subscriber.ts -->
<g id="node1" class="node">
<title>packages/UI/controllers/src/slider/hierarchy&#45;level/hierarchy&#45;level&#45;subscriber.ts</title>
<g id="a_node1"><a xlink:href="packages/UI/controllers/src/slider/hierarchy-level/hierarchy-level-subscriber.ts" xlink:title="hierarchy&#45;level&#45;subscriber.ts">
<path fill="#ddfeff" stroke="black" d="M332,-284C332,-284 201,-284 201,-284 198,-284 195,-281 195,-278 195,-278 195,-272 195,-272 195,-269 198,-266 201,-266 201,-266 332,-266 332,-266 335,-266 338,-269 338,-272 338,-272 338,-278 338,-278 338,-281 335,-284 332,-284"/>
<text text-anchor="start" x="203" y="-272.8" font-family="Helvetica,sans-Serif" font-size="9.00">hierarchy&#45;level&#45;subscriber.ts</text>
</a>
</g>
</g>
<!-- packages/UI/view&#45;parameters/src/current&#45;time&#45;ratio.ts -->
<g id="node2" class="node">
<title>packages/UI/view&#45;parameters/src/current&#45;time&#45;ratio.ts</title>
<g id="a_node2"><a xlink:href="packages/UI/view-parameters/src/current-time-ratio.ts" xlink:title="current&#45;time&#45;ratio.ts">
<path fill="#ddfeff" stroke="black" d="M960,-268C960,-268 864,-268 864,-268 861,-268 858,-265 858,-262 858,-262 858,-256 858,-256 858,-253 861,-250 864,-250 864,-250 960,-250 960,-250 963,-250 966,-253 966,-256 966,-256 966,-262 966,-262 966,-265 963,-268 960,-268"/>
<text text-anchor="start" x="866" y="-256.8" font-family="Helvetica,sans-Serif" font-size="9.00">current&#45;time&#45;ratio.ts</text>
</a>
</g>
</g>
<!-- packages/UI/view&#45;parameters/src/current&#45;time&#45;x.ts -->
<g id="node3" class="node">
<title>packages/UI/view&#45;parameters/src/current&#45;time&#45;x.ts</title>
<g id="a_node3"><a xlink:href="packages/UI/view-parameters/src/current-time-x.ts" xlink:title="current&#45;time&#45;x.ts">
<path fill="#ddfeff" stroke="black" d="M823,-298C823,-298 742,-298 742,-298 739,-298 736,-295 736,-292 736,-292 736,-286 736,-286 736,-283 739,-280 742,-280 742,-280 823,-280 823,-280 826,-280 829,-283 829,-286 829,-286 829,-292 829,-292 829,-295 826,-298 823,-298"/>
<text text-anchor="start" x="744" y="-286.8" font-family="Helvetica,sans-Serif" font-size="9.00">current&#45;time&#45;x.ts</text>
</a>
</g>
</g>
<!-- packages/UI/view&#45;parameters/src/current&#45;time&#45;x.ts&#45;&gt;packages/UI/view&#45;parameters/src/current&#45;time&#45;ratio.ts -->
<g id="edge1" class="edge">
<title>packages/UI/view&#45;parameters/src/current&#45;time&#45;x.ts&#45;&gt;packages/UI/view&#45;parameters/src/current&#45;time&#45;ratio.ts</title>
<path fill="none" stroke="#000000" stroke-width="2" stroke-opacity="0.200000" d="M821.75,-280C835.75,-276.71 851.7,-272.95 866.21,-269.54"/>
<polygon fill="#000000" fill-opacity="0.200000" stroke="#000000" stroke-width="2" stroke-opacity="0.200000" points="866.97,-271.52 872.33,-268.1 866.01,-267.43 866.97,-271.52"/>
</g>
<!-- packages/UI/view&#45;parameters/src/piano&#45;roll/piano&#45;roll&#45;width.ts -->
<g id="node4" class="node">
<title>packages/UI/view&#45;parameters/src/piano&#45;roll/piano&#45;roll&#45;width.ts</title>
<g id="a_node4"><a xlink:href="packages/UI/view-parameters/src/piano-roll/piano-roll-width.ts" xlink:title="piano&#45;roll&#45;width.ts">
<path fill="#ddfeff" stroke="black" d="M955,-302C955,-302 869,-302 869,-302 866,-302 863,-299 863,-296 863,-296 863,-290 863,-290 863,-287 866,-284 869,-284 869,-284 955,-284 955,-284 958,-284 961,-287 961,-290 961,-290 961,-296 961,-296 961,-299 958,-302 955,-302"/>
<text text-anchor="start" x="871" y="-290.8" font-family="Helvetica,sans-Serif" font-size="9.00">piano&#45;roll&#45;width.ts</text>
</a>
</g>
</g>
<!-- packages/UI/view&#45;parameters/src/current&#45;time&#45;x.ts&#45;&gt;packages/UI/view&#45;parameters/src/piano&#45;roll/piano&#45;roll&#45;width.ts -->
<g id="edge2" class="edge">
<title>packages/UI/view&#45;parameters/src/current&#45;time&#45;x.ts&#45;&gt;packages/UI/view&#45;parameters/src/piano&#45;roll/piano&#45;roll&#45;width.ts</title>
<path fill="none" stroke="#000000" stroke-width="2" stroke-opacity="0.200000" d="M829.17,-290.43C837.99,-290.71 847.32,-291 856.4,-291.29"/>
<polygon fill="#000000" fill-opacity="0.200000" stroke="#000000" stroke-width="2" stroke-opacity="0.200000" points="856.57,-293.39 862.63,-291.48 856.7,-289.2 856.57,-293.39"/>
</g>
<!-- packages/UI/view&#45;parameters/src/piano&#45;roll/windowInnerWidth.ts -->
<g id="node11" class="node">
<title>packages/UI/view&#45;parameters/src/piano&#45;roll/windowInnerWidth.ts</title>
<g id="a_node11"><a xlink:href="packages/UI/view-parameters/src/piano-roll/windowInnerWidth.ts" xlink:title="windowInnerWidth.ts">
<path fill="#ddfeff" stroke="black" d="M1094.5,-302C1094.5,-302 993.5,-302 993.5,-302 990.5,-302 987.5,-299 987.5,-296 987.5,-296 987.5,-290 987.5,-290 987.5,-287 990.5,-284 993.5,-284 993.5,-284 1094.5,-284 1094.5,-284 1097.5,-284 1100.5,-287 1100.5,-290 1100.5,-290 1100.5,-296 1100.5,-296 1100.5,-299 1097.5,-302 1094.5,-302"/>
<text text-anchor="start" x="995.5" y="-290.8" font-family="Helvetica,sans-Serif" font-size="9.00">windowInnerWidth.ts</text>
</a>
</g>
</g>
<!-- packages/UI/view&#45;parameters/src/piano&#45;roll/piano&#45;roll&#45;width.ts&#45;&gt;packages/UI/view&#45;parameters/src/piano&#45;roll/windowInnerWidth.ts -->
<g id="edge10" class="edge">
<title>packages/UI/view&#45;parameters/src/piano&#45;roll/piano&#45;roll&#45;width.ts&#45;&gt;packages/UI/view&#45;parameters/src/piano&#45;roll/windowInnerWidth.ts</title>
<path fill="none" stroke="#000000" stroke-width="2" stroke-opacity="0.200000" d="M961.04,-293C967.57,-293 974.35,-293 981.09,-293"/>
<polygon fill="#000000" fill-opacity="0.200000" stroke="#000000" stroke-width="2" stroke-opacity="0.200000" points="981.25,-295.1 987.25,-293 981.25,-290.9 981.25,-295.1"/>
</g>
<!-- packages/UI/view&#45;parameters/src/note&#45;size.ts -->
<g id="node5" class="node">
<title>packages/UI/view&#45;parameters/src/note&#45;size.ts</title>
<g id="a_node5"><a xlink:href="packages/UI/view-parameters/src/note-size.ts" xlink:title="note&#45;size.ts">
<path fill="#ddfeff" stroke="black" d="M810.5,-328C810.5,-328 754.5,-328 754.5,-328 751.5,-328 748.5,-325 748.5,-322 748.5,-322 748.5,-316 748.5,-316 748.5,-313 751.5,-310 754.5,-310 754.5,-310 810.5,-310 810.5,-310 813.5,-310 816.5,-313 816.5,-316 816.5,-316 816.5,-322 816.5,-322 816.5,-325 813.5,-328 810.5,-328"/>
<text text-anchor="start" x="756.5" y="-316.8" font-family="Helvetica,sans-Serif" font-size="9.00">note&#45;size.ts</text>
</a>
</g>
</g>
<!-- packages/UI/view&#45;parameters/src/note&#45;size.ts&#45;&gt;packages/UI/view&#45;parameters/src/piano&#45;roll/piano&#45;roll&#45;width.ts -->
<g id="edge4" class="edge">
<title>packages/UI/view&#45;parameters/src/note&#45;size.ts&#45;&gt;packages/UI/view&#45;parameters/src/piano&#45;roll/piano&#45;roll&#45;width.ts</title>
<path fill="none" stroke="#000000" stroke-width="2" stroke-opacity="0.200000" d="M816.67,-312.24C829.97,-309.52 845.59,-306.34 860.26,-303.35"/>
<polygon fill="#000000" fill-opacity="0.200000" stroke="#000000" stroke-width="2" stroke-opacity="0.200000" points="861.02,-305.34 866.48,-302.08 860.18,-301.22 861.02,-305.34"/>
</g>
<!-- packages/UI/view&#45;parameters/src/piano&#45;roll/piano&#45;roll&#45;time&#45;length.ts -->
<g id="node6" class="node">
<title>packages/UI/view&#45;parameters/src/piano&#45;roll/piano&#45;roll&#45;time&#45;length.ts</title>
<g id="a_node6"><a xlink:href="packages/UI/view-parameters/src/piano-roll/piano-roll-time-length.ts" xlink:title="piano&#45;roll&#45;time&#45;length.ts">
<path fill="#ddfeff" stroke="black" d="M968.5,-332C968.5,-332 855.5,-332 855.5,-332 852.5,-332 849.5,-329 849.5,-326 849.5,-326 849.5,-320 849.5,-320 849.5,-317 852.5,-314 855.5,-314 855.5,-314 968.5,-314 968.5,-314 971.5,-314 974.5,-317 974.5,-320 974.5,-320 974.5,-326 974.5,-326 974.5,-329 971.5,-332 968.5,-332"/>
<text text-anchor="start" x="857.5" y="-320.8" font-family="Helvetica,sans-Serif" font-size="9.00">piano&#45;roll&#45;time&#45;length.ts</text>
</a>
</g>
</g>
<!-- packages/UI/view&#45;parameters/src/note&#45;size.ts&#45;&gt;packages/UI/view&#45;parameters/src/piano&#45;roll/piano&#45;roll&#45;time&#45;length.ts -->
<g id="edge3" class="edge">
<title>packages/UI/view&#45;parameters/src/note&#45;size.ts&#45;&gt;packages/UI/view&#45;parameters/src/piano&#45;roll/piano&#45;roll&#45;time&#45;length.ts</title>
<path fill="none" stroke="#000000" stroke-width="2" stroke-opacity="0.200000" d="M816.67,-320.04C824.9,-320.3 834.02,-320.58 843.26,-320.87"/>
<polygon fill="#000000" fill-opacity="0.200000" stroke="#000000" stroke-width="2" stroke-opacity="0.200000" points="843.27,-322.98 849.33,-321.07 843.4,-318.78 843.27,-322.98"/>
</g>
<!-- packages/UI/view&#45;parameters/src/piano&#45;roll/piano&#45;roll&#45;ratio.ts -->
<g id="node9" class="node">
<title>packages/UI/view&#45;parameters/src/piano&#45;roll/piano&#45;roll&#45;ratio.ts</title>
<g id="a_node9"><a xlink:href="packages/UI/view-parameters/src/piano-roll/piano-roll-ratio.ts" xlink:title="piano&#45;roll&#45;ratio.ts">
<path fill="#ddfeff" stroke="black" d="M1084.5,-332C1084.5,-332 1003.5,-332 1003.5,-332 1000.5,-332 997.5,-329 997.5,-326 997.5,-326 997.5,-320 997.5,-320 997.5,-317 1000.5,-314 1003.5,-314 1003.5,-314 1084.5,-314 1084.5,-314 1087.5,-314 1090.5,-317 1090.5,-320 1090.5,-320 1090.5,-326 1090.5,-326 1090.5,-329 1087.5,-332 1084.5,-332"/>
<text text-anchor="start" x="1005.5" y="-320.8" font-family="Helvetica,sans-Serif" font-size="9.00">piano&#45;roll&#45;ratio.ts</text>
</a>
</g>
</g>
<!-- packages/UI/view&#45;parameters/src/piano&#45;roll/piano&#45;roll&#45;time&#45;length.ts&#45;&gt;packages/UI/view&#45;parameters/src/piano&#45;roll/piano&#45;roll&#45;ratio.ts -->
<g id="edge9" class="edge">
<title>packages/UI/view&#45;parameters/src/piano&#45;roll/piano&#45;roll&#45;time&#45;length.ts&#45;&gt;packages/UI/view&#45;parameters/src/piano&#45;roll/piano&#45;roll&#45;ratio.ts</title>
<path fill="none" stroke="#000000" stroke-width="2" stroke-opacity="0.200000" d="M974.57,-323C980.05,-323 985.55,-323 990.93,-323"/>
<polygon fill="#000000" fill-opacity="0.200000" stroke="#000000" stroke-width="2" stroke-opacity="0.200000" points="991.18,-325.1 997.18,-323 991.18,-320.9 991.18,-325.1"/>
</g>
<!-- packages/UI/view&#45;parameters/src/song&#45;length.ts -->
<g id="node10" class="node">
<title>packages/UI/view&#45;parameters/src/song&#45;length.ts</title>
<g id="a_node10"><a xlink:href="packages/UI/view-parameters/src/song-length.ts" xlink:title="song&#45;length.ts">
<path fill="#ddfeff" stroke="black" d="M1079,-384C1079,-384 1009,-384 1009,-384 1006,-384 1003,-381 1003,-378 1003,-378 1003,-372 1003,-372 1003,-369 1006,-366 1009,-366 1009,-366 1079,-366 1079,-366 1082,-366 1085,-369 1085,-372 1085,-372 1085,-378 1085,-378 1085,-381 1082,-384 1079,-384"/>
<text text-anchor="start" x="1011" y="-372.8" font-family="Helvetica,sans-Serif" font-size="9.00">song&#45;length.ts</text>
</a>
</g>
</g>
<!-- packages/UI/view&#45;parameters/src/piano&#45;roll/piano&#45;roll&#45;time&#45;length.ts&#45;&gt;packages/UI/view&#45;parameters/src/song&#45;length.ts -->
<g id="edge8" class="edge">
<title>packages/UI/view&#45;parameters/src/piano&#45;roll/piano&#45;roll&#45;time&#45;length.ts&#45;&gt;packages/UI/view&#45;parameters/src/song&#45;length.ts</title>
<path fill="none" stroke="#000000" stroke-width="2" stroke-opacity="0.200000" d="M935.64,-332.06C957.51,-340.8 990.69,-354.08 1014.38,-363.55"/>
<polygon fill="#000000" fill-opacity="0.200000" stroke="#000000" stroke-width="2" stroke-opacity="0.200000" points="1013.83,-365.59 1020.18,-365.87 1015.39,-361.69 1013.83,-365.59"/>
</g>
<!-- packages/UI/view&#45;parameters/src/now&#45;at.ts -->
<g id="node7" class="node">
<title>packages/UI/view&#45;parameters/src/now&#45;at.ts</title>
<g id="a_node7"><a xlink:href="packages/UI/view-parameters/src/now-at.ts" xlink:title="now&#45;at.ts">
<path fill="#ddfeff" stroke="black" d="M806,-268C806,-268 759,-268 759,-268 756,-268 753,-265 753,-262 753,-262 753,-256 753,-256 753,-253 756,-250 759,-250 759,-250 806,-250 806,-250 809,-250 812,-253 812,-256 812,-256 812,-262 812,-262 812,-265 809,-268 806,-268"/>
<text text-anchor="start" x="761" y="-256.8" font-family="Helvetica,sans-Serif" font-size="9.00">now&#45;at.ts</text>
</a>
</g>
</g>
<!-- packages/UI/view&#45;parameters/src/piano&#45;roll&#45;translate&#45;x.ts -->
<g id="node8" class="node">
<title>packages/UI/view&#45;parameters/src/piano&#45;roll&#45;translate&#45;x.ts</title>
<g id="a_node8"><a xlink:href="packages/UI/view-parameters/src/piano-roll-translate-x.ts" xlink:title="piano&#45;roll&#45;translate&#45;x.ts">
<path fill="#ddfeff" stroke="black" d="M699.5,-283C699.5,-283 590.5,-283 590.5,-283 587.5,-283 584.5,-280 584.5,-277 584.5,-277 584.5,-271 584.5,-271 584.5,-268 587.5,-265 590.5,-265 590.5,-265 699.5,-265 699.5,-265 702.5,-265 705.5,-268 705.5,-271 705.5,-271 705.5,-277 705.5,-277 705.5,-280 702.5,-283 699.5,-283"/>
<text text-anchor="start" x="592.5" y="-271.8" font-family="Helvetica,sans-Serif" font-size="9.00">piano&#45;roll&#45;translate&#45;x.ts</text>
</a>
</g>
</g>
<!-- packages/UI/view&#45;parameters/src/piano&#45;roll&#45;translate&#45;x.ts&#45;&gt;packages/UI/view&#45;parameters/src/current&#45;time&#45;x.ts -->
<g id="edge5" class="edge">
<title>packages/UI/view&#45;parameters/src/piano&#45;roll&#45;translate&#45;x.ts&#45;&gt;packages/UI/view&#45;parameters/src/current&#45;time&#45;x.ts</title>
<path fill="none" stroke="#000000" stroke-width="2" stroke-opacity="0.200000" d="M705.83,-280.62C713.69,-281.49 721.7,-282.38 729.42,-283.24"/>
<polygon fill="#000000" fill-opacity="0.200000" stroke="#000000" stroke-width="2" stroke-opacity="0.200000" points="729.64,-285.37 735.83,-283.94 730.1,-281.2 729.64,-285.37"/>
</g>
<!-- packages/UI/view&#45;parameters/src/piano&#45;roll&#45;translate&#45;x.ts&#45;&gt;packages/UI/view&#45;parameters/src/note&#45;size.ts -->
<g id="edge6" class="edge">
<title>packages/UI/view&#45;parameters/src/piano&#45;roll&#45;translate&#45;x.ts&#45;&gt;packages/UI/view&#45;parameters/src/note&#45;size.ts</title>
<path fill="none" stroke="#000000" stroke-width="2" stroke-opacity="0.200000" d="M673.42,-283.11C695,-290.27 725.16,-300.29 748.14,-307.92"/>
<polygon fill="#000000" fill-opacity="0.200000" stroke="#000000" stroke-width="2" stroke-opacity="0.200000" points="747.76,-310.01 754.12,-309.91 749.09,-306.02 747.76,-310.01"/>
</g>
<!-- packages/UI/view&#45;parameters/src/piano&#45;roll&#45;translate&#45;x.ts&#45;&gt;packages/UI/view&#45;parameters/src/now&#45;at.ts -->
<g id="edge7" class="edge">
<title>packages/UI/view&#45;parameters/src/piano&#45;roll&#45;translate&#45;x.ts&#45;&gt;packages/UI/view&#45;parameters/src/now&#45;at.ts</title>
<path fill="none" stroke="#000000" stroke-width="2" stroke-opacity="0.200000" d="M705.83,-267.38C719.71,-265.84 734.05,-264.25 746.46,-262.88"/>
<polygon fill="#000000" fill-opacity="0.200000" stroke="#000000" stroke-width="2" stroke-opacity="0.200000" points="747.03,-264.93 752.76,-262.18 746.56,-260.75 747.03,-264.93"/>
</g>
<!-- packages/UI/view/src/collection&#45;hierarchy.ts -->
<g id="node12" class="node">
<title>packages/UI/view/src/collection&#45;hierarchy.ts</title>
<g id="a_node12"><a xlink:href="packages/UI/view/src/collection-hierarchy.ts" xlink:title="collection&#45;hierarchy.ts">
<path fill="#ddfeff" stroke="black" d="M149,-174C149,-174 46,-174 46,-174 43,-174 40,-171 40,-168 40,-168 40,-162 40,-162 40,-159 43,-156 46,-156 46,-156 149,-156 149,-156 152,-156 155,-159 155,-162 155,-162 155,-168 155,-168 155,-171 152,-174 149,-174"/>
<text text-anchor="start" x="48" y="-162.8" font-family="Helvetica,sans-Serif" font-size="9.00">collection&#45;hierarchy.ts</text>
</a>
</g>
</g>
<!-- packages/UI/view/src/collection&#45;hierarchy.ts&#45;&gt;packages/UI/controllers/src/slider/hierarchy&#45;level/hierarchy&#45;level&#45;subscriber.ts -->
<g id="edge13" class="edge">
<title>packages/UI/view/src/collection&#45;hierarchy.ts&#45;&gt;packages/UI/controllers/src/slider/hierarchy&#45;level/hierarchy&#45;level&#45;subscriber.ts</title>
<path fill="none" stroke="#000000" stroke-width="2" stroke-opacity="0.200000" d="M112.17,-174C141.89,-193.58 212.48,-240.08 246.51,-262.49"/>
<polygon fill="#000000" fill-opacity="0.200000" stroke="#000000" stroke-width="2" stroke-opacity="0.200000" points="245.48,-264.33 251.64,-265.87 247.79,-260.82 245.48,-264.33"/>
</g>
<!-- packages/UI/view/src/collection&#45;layer.ts -->
<g id="node13" class="node">
<title>packages/UI/view/src/collection&#45;layer.ts</title>
<g id="a_node13"><a xlink:href="packages/UI/view/src/collection-layer.ts" xlink:title="collection&#45;layer.ts">
<path fill="#ddfeff" stroke="black" d="M308,-174C308,-174 225,-174 225,-174 222,-174 219,-171 219,-168 219,-168 219,-162 219,-162 219,-159 222,-156 225,-156 225,-156 308,-156 308,-156 311,-156 314,-159 314,-162 314,-162 314,-168 314,-168 314,-171 311,-174 308,-174"/>
<text text-anchor="start" x="227" y="-162.8" font-family="Helvetica,sans-Serif" font-size="9.00">collection&#45;layer.ts</text>
</a>
</g>
</g>
<!-- packages/UI/view/src/collection&#45;hierarchy.ts&#45;&gt;packages/UI/view/src/collection&#45;layer.ts -->
<g id="edge11" class="edge">
<title>packages/UI/view/src/collection&#45;hierarchy.ts&#45;&gt;packages/UI/view/src/collection&#45;layer.ts</title>
<path fill="none" stroke="#000000" stroke-width="2" stroke-opacity="0.200000" d="M155.04,-165C173.66,-165 194.28,-165 212.61,-165"/>
<polygon fill="#000000" fill-opacity="0.200000" stroke="#000000" stroke-width="2" stroke-opacity="0.200000" points="212.74,-167.1 218.74,-165 212.74,-162.9 212.74,-167.1"/>
</g>
<!-- packages/UI/view/src/mvc.ts -->
<g id="node14" class="node">
<title>packages/UI/view/src/mvc.ts</title>
<g id="a_node14"><a xlink:href="packages/UI/view/src/mvc.ts" xlink:title="mvc.ts">
<path fill="#ddfeff" stroke="black" d="M666,-58C666,-58 624,-58 624,-58 621,-58 618,-55 618,-52 618,-52 618,-46 618,-46 618,-43 621,-40 624,-40 624,-40 666,-40 666,-40 669,-40 672,-43 672,-46 672,-46 672,-52 672,-52 672,-55 669,-58 666,-58"/>
<text text-anchor="start" x="629.5" y="-46.8" font-family="Helvetica,sans-Serif" font-size="9.00">mvc.ts</text>
</a>
</g>
</g>
<!-- packages/UI/view/src/collection&#45;hierarchy.ts&#45;&gt;packages/UI/view/src/mvc.ts -->
<g id="edge12" class="edge">
<title>packages/UI/view/src/collection&#45;hierarchy.ts&#45;&gt;packages/UI/view/src/mvc.ts</title>
<path fill="none" stroke="#000000" stroke-width="2" stroke-opacity="0.200000" d="M140.01,-155.99C245.47,-133.65 517.46,-76.02 612.02,-55.99"/>
<polygon fill="#000000" fill-opacity="0.200000" stroke="#000000" stroke-width="2" stroke-opacity="0.200000" points="612.55,-58.02 617.99,-54.72 611.68,-53.91 612.55,-58.02"/>
</g>
<!-- packages/UI/view/src/svg&#45;collection.ts -->
<g id="node15" class="node">
<title>packages/UI/view/src/svg&#45;collection.ts</title>
<g id="a_node15"><a xlink:href="packages/UI/view/src/svg-collection.ts" xlink:title="svg&#45;collection.ts">
<path fill="#ddfeff" stroke="black" d="M499,-174C499,-174 422,-174 422,-174 419,-174 416,-171 416,-168 416,-168 416,-162 416,-162 416,-159 419,-156 422,-156 422,-156 499,-156 499,-156 502,-156 505,-159 505,-162 505,-162 505,-168 505,-168 505,-171 502,-174 499,-174"/>
<text text-anchor="start" x="424" y="-162.8" font-family="Helvetica,sans-Serif" font-size="9.00">svg&#45;collection.ts</text>
</a>
</g>
</g>
<!-- packages/UI/view/src/collection&#45;layer.ts&#45;&gt;packages/UI/view/src/svg&#45;collection.ts -->
<g id="edge14" class="edge">
<title>packages/UI/view/src/collection&#45;layer.ts&#45;&gt;packages/UI/view/src/svg&#45;collection.ts</title>
<path fill="none" stroke="#000000" stroke-width="2" stroke-opacity="0.200000" d="M314.47,-165C343.39,-165 380.42,-165 409.82,-165"/>
<polygon fill="#000000" fill-opacity="0.200000" stroke="#000000" stroke-width="2" stroke-opacity="0.200000" points="409.97,-167.1 415.97,-165 409.97,-162.9 409.97,-167.1"/>
</g>
<!-- packages/UI/view/src/svg&#45;collection.ts&#45;&gt;packages/UI/view&#45;parameters/src/piano&#45;roll&#45;translate&#45;x.ts -->
<g id="edge21" class="edge">
<title>packages/UI/view/src/svg&#45;collection.ts&#45;&gt;packages/UI/view&#45;parameters/src/piano&#45;roll&#45;translate&#45;x.ts</title>
<path fill="none" stroke="#000000" stroke-width="2" stroke-opacity="0.200000" d="M476.75,-174.11C509.44,-193.63 586.3,-239.54 623.34,-261.66"/>
<polygon fill="#000000" fill-opacity="0.200000" stroke="#000000" stroke-width="2" stroke-opacity="0.200000" points="622.7,-263.72 628.93,-265 624.85,-260.12 622.7,-263.72"/>
</g>
<!-- packages/UI/view/src/svg&#45;collection.ts&#45;&gt;packages/UI/view/src/mvc.ts -->
<g id="edge17" class="edge">
<title>packages/UI/view/src/svg&#45;collection.ts&#45;&gt;packages/UI/view/src/mvc.ts</title>
<path fill="none" stroke="#000000" stroke-width="2" stroke-opacity="0.200000" d="M475.82,-155.9C508.34,-135.23 587.77,-84.74 624.63,-61.31"/>
<polygon fill="#000000" fill-opacity="0.200000" stroke="#000000" stroke-width="2" stroke-opacity="0.200000" points="625.81,-63.05 629.75,-58.06 623.56,-59.51 625.81,-63.05"/>
</g>
<!-- packages/UI/view/src/reflectable/audio&#45;reflectable.ts -->
<g id="node17" class="node">
<title>packages/UI/view/src/reflectable/audio&#45;reflectable.ts</title>
<g id="a_node17"><a xlink:href="packages/UI/view/src/reflectable/audio-reflectable.ts" xlink:title="audio&#45;reflectable.ts">
<path fill="#ddfeff" stroke="black" d="M691,-122C691,-122 599,-122 599,-122 596,-122 593,-119 593,-116 593,-116 593,-110 593,-110 593,-107 596,-104 599,-104 599,-104 691,-104 691,-104 694,-104 697,-107 697,-110 697,-110 697,-116 697,-116 697,-119 694,-122 691,-122"/>
<text text-anchor="start" x="601" y="-110.8" font-family="Helvetica,sans-Serif" font-size="9.00">audio&#45;reflectable.ts</text>
</a>
</g>
</g>
<!-- packages/UI/view/src/svg&#45;collection.ts&#45;&gt;packages/UI/view/src/reflectable/audio&#45;reflectable.ts -->
<g id="edge18" class="edge">
<title>packages/UI/view/src/svg&#45;collection.ts&#45;&gt;packages/UI/view/src/reflectable/audio&#45;reflectable.ts</title>
<path fill="none" stroke="#000000" stroke-width="2" stroke-opacity="0.200000" d="M493.29,-155.94C524.73,-146.98 572.84,-133.27 606.22,-123.77"/>
<polygon fill="#000000" fill-opacity="0.200000" stroke="#000000" stroke-width="2" stroke-opacity="0.200000" points="607.07,-125.7 612.27,-122.04 605.92,-121.67 607.07,-125.7"/>
</g>
<!-- packages/util/time&#45;and/src/search&#45;items&#45;overlaps&#45;range.ts -->
<g id="node20" class="node">
<title>packages/util/time&#45;and/src/search&#45;items&#45;overlaps&#45;range.ts</title>
<g id="a_node20"><a xlink:href="packages/util/time-and/src/search-items-overlaps-range.ts" xlink:title="search&#45;items&#45;overlaps&#45;range.ts">
<path fill="#ddfeff" stroke="black" d="M717,-512C717,-512 573,-512 573,-512 570,-512 567,-509 567,-506 567,-506 567,-500 567,-500 567,-497 570,-494 573,-494 573,-494 717,-494 717,-494 720,-494 723,-497 723,-500 723,-500 723,-506 723,-506 723,-509 720,-512 717,-512"/>
<text text-anchor="start" x="575" y="-500.8" font-family="Helvetica,sans-Serif" font-size="9.00">search&#45;items&#45;overlaps&#45;range.ts</text>
</a>
</g>
</g>
<!-- packages/UI/view/src/svg&#45;collection.ts&#45;&gt;packages/util/time&#45;and/src/search&#45;items&#45;overlaps&#45;range.ts -->
<g id="edge19" class="edge">
<title>packages/UI/view/src/svg&#45;collection.ts&#45;&gt;packages/util/time&#45;and/src/search&#45;items&#45;overlaps&#45;range.ts</title>
<path fill="none" stroke="#000000" stroke-width="2" stroke-opacity="0.200000" d="M466.38,-174.04C491.37,-220.32 605.01,-430.8 636.11,-488.39"/>
<polygon fill="#000000" fill-opacity="0.200000" stroke="#000000" stroke-width="2" stroke-opacity="0.200000" points="634.32,-489.49 639.02,-493.77 638.02,-487.5 634.32,-489.49"/>
</g>
<!-- packages/util/time&#45;and/src/time.ts -->
<g id="node21" class="node">
<title>packages/util/time&#45;and/src/time.ts</title>
<g id="a_node21"><a xlink:href="packages/util/time-and/src/time.ts" xlink:title="time.ts">
<path fill="#ddfeff" stroke="black" d="M803.5,-512C803.5,-512 761.5,-512 761.5,-512 758.5,-512 755.5,-509 755.5,-506 755.5,-506 755.5,-500 755.5,-500 755.5,-497 758.5,-494 761.5,-494 761.5,-494 803.5,-494 803.5,-494 806.5,-494 809.5,-497 809.5,-500 809.5,-500 809.5,-506 809.5,-506 809.5,-509 806.5,-512 803.5,-512"/>
<text text-anchor="start" x="766.5" y="-500.8" font-family="Helvetica,sans-Serif" font-size="9.00">time.ts</text>
</a>
</g>
</g>
<!-- packages/UI/view/src/svg&#45;collection.ts&#45;&gt;packages/util/time&#45;and/src/time.ts -->
<g id="edge20" class="edge">
<title>packages/UI/view/src/svg&#45;collection.ts&#45;&gt;packages/util/time&#45;and/src/time.ts</title>
<path fill="none" stroke="#000000" stroke-width="2" stroke-opacity="0.200000" d="M469.11,-174.04C513.47,-220.6 716.15,-433.35 769.57,-489.42"/>
<polygon fill="#000000" fill-opacity="0.200000" stroke="#000000" stroke-width="2" stroke-opacity="0.200000" points="768.05,-490.88 773.71,-493.77 771.09,-487.98 768.05,-490.88"/>
</g>
<!-- packages/UI/view/src/reflectable/audio&#45;reflectable&#45;registry.ts -->
<g id="node16" class="node">
<title>packages/UI/view/src/reflectable/audio&#45;reflectable&#45;registry.ts</title>
<g id="a_node16"><a xlink:href="packages/UI/view/src/reflectable/audio-reflectable-registry.ts" xlink:title="audio&#45;reflectable&#45;registry.ts">
<path fill="#ddfeff" stroke="black" d="M524.5,-122C524.5,-122 396.5,-122 396.5,-122 393.5,-122 390.5,-119 390.5,-116 390.5,-116 390.5,-110 390.5,-110 390.5,-107 393.5,-104 396.5,-104 396.5,-104 524.5,-104 524.5,-104 527.5,-104 530.5,-107 530.5,-110 530.5,-110 530.5,-116 530.5,-116 530.5,-119 527.5,-122 524.5,-122"/>
<text text-anchor="start" x="398.5" y="-110.8" font-family="Helvetica,sans-Serif" font-size="9.00">audio&#45;reflectable&#45;registry.ts</text>
</a>
</g>
</g>
<!-- packages/UI/view/src/reflectable/audio&#45;reflectable&#45;registry.ts&#45;&gt;packages/UI/view/src/reflectable/audio&#45;reflectable.ts -->
<g id="edge15" class="edge">
<title>packages/UI/view/src/reflectable/audio&#45;reflectable&#45;registry.ts&#45;&gt;packages/UI/view/src/reflectable/audio&#45;reflectable.ts</title>
<path fill="none" stroke="#000000" stroke-width="2" stroke-opacity="0.200000" d="M530.76,-113C549.17,-113 568.85,-113 586.55,-113"/>
<polygon fill="#000000" fill-opacity="0.200000" stroke="#000000" stroke-width="2" stroke-opacity="0.200000" points="586.98,-115.1 592.98,-113 586.98,-110.9 586.98,-115.1"/>
</g>
<!-- packages/UI/view/src/reflectable/window&#45;reflectable&#45;registry.ts -->
<g id="node18" class="node">
<title>packages/UI/view/src/reflectable/window&#45;reflectable&#45;registry.ts</title>
<g id="a_node18"><a xlink:href="packages/UI/view/src/reflectable/window-reflectable-registry.ts" xlink:title="window&#45;reflectable&#45;registry.ts">
<path fill="#ddfeff" stroke="black" d="M529,-92C529,-92 392,-92 392,-92 389,-92 386,-89 386,-86 386,-86 386,-80 386,-80 386,-77 389,-74 392,-74 392,-74 529,-74 529,-74 532,-74 535,-77 535,-80 535,-80 535,-86 535,-86 535,-89 532,-92 529,-92"/>
<text text-anchor="start" x="394" y="-80.8" font-family="Helvetica,sans-Serif" font-size="9.00">window&#45;reflectable&#45;registry.ts</text>
</a>
</g>
</g>
<!-- packages/UI/view/src/reflectable/window&#45;reflectable.ts -->
<g id="node19" class="node">
<title>packages/UI/view/src/reflectable/window&#45;reflectable.ts</title>
<g id="a_node19"><a xlink:href="packages/UI/view/src/reflectable/window-reflectable.ts" xlink:title="window&#45;reflectable.ts">
<path fill="#ddfeff" stroke="black" d="M695.5,-92C695.5,-92 594.5,-92 594.5,-92 591.5,-92 588.5,-89 588.5,-86 588.5,-86 588.5,-80 588.5,-80 588.5,-77 591.5,-74 594.5,-74 594.5,-74 695.5,-74 695.5,-74 698.5,-74 701.5,-77 701.5,-80 701.5,-80 701.5,-86 701.5,-86 701.5,-89 698.5,-92 695.5,-92"/>
<text text-anchor="start" x="596.5" y="-80.8" font-family="Helvetica,sans-Serif" font-size="9.00">window&#45;reflectable.ts</text>
</a>
</g>
</g>
<!-- packages/UI/view/src/reflectable/window&#45;reflectable&#45;registry.ts&#45;&gt;packages/UI/view/src/reflectable/window&#45;reflectable.ts -->
<g id="edge16" class="edge">
<title>packages/UI/view/src/reflectable/window&#45;reflectable&#45;registry.ts&#45;&gt;packages/UI/view/src/reflectable/window&#45;reflectable.ts</title>
<path fill="none" stroke="#000000" stroke-width="2" stroke-opacity="0.200000" d="M535.2,-83C550.7,-83 566.89,-83 581.91,-83"/>
<polygon fill="#000000" fill-opacity="0.200000" stroke="#000000" stroke-width="2" stroke-opacity="0.200000" points="582.27,-85.1 588.27,-83 582.27,-80.9 582.27,-85.1"/>
</g>
<!-- packages/util/time&#45;and/src/search&#45;items&#45;overlaps&#45;range.ts&#45;&gt;packages/util/time&#45;and/src/time.ts -->
<g id="edge22" class="edge">
<title>packages/util/time&#45;and/src/search&#45;items&#45;overlaps&#45;range.ts&#45;&gt;packages/util/time&#45;and/src/time.ts</title>
<path fill="none" stroke="#000000" stroke-width="2" stroke-opacity="0.200000" d="M723.25,-503C732.26,-503 741.04,-503 748.93,-503"/>
<polygon fill="#000000" fill-opacity="0.200000" stroke="#000000" stroke-width="2" stroke-opacity="0.200000" points="749.34,-505.1 755.34,-503 749.34,-500.9 749.34,-505.1"/>
</g>
</g>
</svg>
