<?xml version="1.0" encoding="UTF-8" standalone="no"?>
<!DOCTYPE svg PUBLIC "-//W3C//DTD SVG 1.1//EN"
 "http://www.w3.org/Graphics/SVG/1.1/DTD/svg11.dtd">
<!-- Generated by graphviz version 2.43.0 (0)
 -->
<!-- Title: dependency&#45;cruiser output Pages: 1 -->
<svg width="1052pt" height="1210pt"
 viewBox="0.00 0.00 1052.01 1210.13" xmlns="http://www.w3.org/2000/svg" xmlns:xlink="http://www.w3.org/1999/xlink">
<g id="graph0" class="graph" transform="scale(1 1) rotate(0) translate(4 1206.13)">
<title>dependency&#45;cruiser output</title>
<polygon fill="white" stroke="transparent" points="-4,4 -4,-1206.13 1048.01,-1206.13 1048.01,4 -4,4"/>
<g id="clust1" class="cluster">
<title>cluster_packages</title>
<path fill="#ffffff" stroke="black" stroke-width="2" d="M12,0C12,0 1032.01,0 1032.01,0 1038.01,0 1044.01,-6 1044.01,-12 1044.01,-12 1044.01,-1190.13 1044.01,-1190.13 1044.01,-1196.13 1038.01,-1202.13 1032.01,-1202.13 1032.01,-1202.13 12,-1202.13 12,-1202.13 6,-1202.13 0,-1196.13 0,-1190.13 0,-1190.13 0,-12 0,-12 0,-6 6,0 12,0"/>
<text text-anchor="middle" x="522.01" y="-1190.93" font-family="Helvetica,sans-Serif" font-weight="bold" font-size="9.00">packages</text>
</g>
<!-- packages/UI/controllers/dist/index.js -->
<g id="node1" class="node">
<title>packages/UI/controllers/dist/index.js</title>
<g id="a_node1"><a xlink:href="packages/UI/controllers/dist/index.js" xlink:title="index.js">
<polygon fill="#ffffcc" stroke="black" points="549.59,-1202.13 548.09,-1204.13 537.59,-1204.13 536.09,-1202.13 495.59,-1202.13 495.59,-1184.13 549.59,-1184.13 549.59,-1202.13"/>
<text text-anchor="start" x="505.09" y="-1190.93" font-family="Helvetica,sans-Serif" font-size="9.00">index.js</text>
</a>
</g>
</g>
<!-- packages/UI/view&#45;parameters/src/current&#45;time&#45;ratio.ts -->
<g id="node2" class="node">
<title>packages/UI/view&#45;parameters/src/current&#45;time&#45;ratio.ts</title>
<g id="a_node2"><a xlink:href="packages/UI/view-parameters/src/current-time-ratio.ts" xlink:title="current&#45;time&#45;ratio.ts">
<path fill="#ddfeff" stroke="black" d="M626.23,-250.84C626.23,-250.84 530.23,-250.84 530.23,-250.84 527.23,-250.84 524.23,-247.84 524.23,-244.84 524.23,-244.84 524.23,-238.84 524.23,-238.84 524.23,-235.84 527.23,-232.84 530.23,-232.84 530.23,-232.84 626.23,-232.84 626.23,-232.84 629.23,-232.84 632.23,-235.84 632.23,-238.84 632.23,-238.84 632.23,-244.84 632.23,-244.84 632.23,-247.84 629.23,-250.84 626.23,-250.84"/>
<text text-anchor="start" x="532.23" y="-239.64" font-family="Helvetica,sans-Serif" font-size="9.00">current&#45;time&#45;ratio.ts</text>
</a>
</g>
</g>
<!-- packages/UI/view&#45;parameters/src/current&#45;time&#45;x.ts -->
<g id="node3" class="node">
<title>packages/UI/view&#45;parameters/src/current&#45;time&#45;x.ts</title>
<g id="a_node3"><a xlink:href="packages/UI/view-parameters/src/current-time-x.ts" xlink:title="current&#45;time&#45;x.ts">
<path fill="#ddfeff" stroke="black" d="M489.67,-405.28C489.67,-405.28 408.67,-405.28 408.67,-405.28 405.67,-405.28 402.67,-402.28 402.67,-399.28 402.67,-399.28 402.67,-393.28 402.67,-393.28 402.67,-390.28 405.67,-387.28 408.67,-387.28 408.67,-387.28 489.67,-387.28 489.67,-387.28 492.67,-387.28 495.67,-390.28 495.67,-393.28 495.67,-393.28 495.67,-399.28 495.67,-399.28 495.67,-402.28 492.67,-405.28 489.67,-405.28"/>
<text text-anchor="start" x="410.67" y="-394.08" font-family="Helvetica,sans-Serif" font-size="9.00">current&#45;time&#45;x.ts</text>
</a>
</g>
</g>
<!-- packages/UI/view&#45;parameters/src/current&#45;time&#45;x.ts&#45;&gt;packages/UI/view&#45;parameters/src/current&#45;time&#45;ratio.ts -->
<g id="edge1" class="edge">
<title>packages/UI/view&#45;parameters/src/current&#45;time&#45;x.ts&#45;&gt;packages/UI/view&#45;parameters/src/current&#45;time&#45;ratio.ts</title>
<path fill="none" stroke="#000000" stroke-width="2" stroke-opacity="0.200000" d="M456.85,-387.08C478.5,-361.17 540.1,-287.47 566.25,-256.18"/>
<polygon fill="#000000" fill-opacity="0.200000" stroke="#000000" stroke-width="2" stroke-opacity="0.200000" points="568.18,-257.14 570.42,-251.19 564.96,-254.45 568.18,-257.14"/>
</g>
<!-- packages/UI/view&#45;parameters/src/piano&#45;roll/piano&#45;roll&#45;width.ts -->
<g id="node4" class="node">
<title>packages/UI/view&#45;parameters/src/piano&#45;roll/piano&#45;roll&#45;width.ts</title>
<g id="a_node4"><a xlink:href="packages/UI/view-parameters/src/piano-roll/piano-roll-width.ts" xlink:title="piano&#45;roll&#45;width.ts">
<path fill="#ddfeff" stroke="black" d="M277.04,-423.77C277.04,-423.77 191.04,-423.77 191.04,-423.77 188.04,-423.77 185.04,-420.77 185.04,-417.77 185.04,-417.77 185.04,-411.77 185.04,-411.77 185.04,-408.77 188.04,-405.77 191.04,-405.77 191.04,-405.77 277.04,-405.77 277.04,-405.77 280.04,-405.77 283.04,-408.77 283.04,-411.77 283.04,-411.77 283.04,-417.77 283.04,-417.77 283.04,-420.77 280.04,-423.77 277.04,-423.77"/>
<text text-anchor="start" x="193.04" y="-412.57" font-family="Helvetica,sans-Serif" font-size="9.00">piano&#45;roll&#45;width.ts</text>
</a>
</g>
</g>
<!-- packages/UI/view&#45;parameters/src/current&#45;time&#45;x.ts&#45;&gt;packages/UI/view&#45;parameters/src/piano&#45;roll/piano&#45;roll&#45;width.ts -->
<g id="edge2" class="edge">
<title>packages/UI/view&#45;parameters/src/current&#45;time&#45;x.ts&#45;&gt;packages/UI/view&#45;parameters/src/piano&#45;roll/piano&#45;roll&#45;width.ts</title>
<path fill="none" stroke="#000000" stroke-width="2" stroke-opacity="0.200000" d="M402.49,-400.29C369.19,-403.15 324.3,-407.01 289.23,-410.02"/>
<polygon fill="#000000" fill-opacity="0.200000" stroke="#000000" stroke-width="2" stroke-opacity="0.200000" points="289.04,-407.93 283.24,-410.54 289.4,-412.12 289.04,-407.93"/>
</g>
<!-- packages/UI/view&#45;parameters/src/piano&#45;roll/windowInnerWidth.ts -->
<g id="node11" class="node">
<title>packages/UI/view&#45;parameters/src/piano&#45;roll/windowInnerWidth.ts</title>
<g id="a_node11"><a xlink:href="packages/UI/view-parameters/src/piano-roll/windowInnerWidth.ts" xlink:title="windowInnerWidth.ts">
<path fill="#ddfeff" stroke="black" d="M107,-440.4C107,-440.4 6,-440.4 6,-440.4 3,-440.4 0,-437.4 0,-434.4 0,-434.4 0,-428.4 0,-428.4 0,-425.4 3,-422.4 6,-422.4 6,-422.4 107,-422.4 107,-422.4 110,-422.4 113,-425.4 113,-428.4 113,-428.4 113,-434.4 113,-434.4 113,-437.4 110,-440.4 107,-440.4"/>
<text text-anchor="start" x="8" y="-429.2" font-family="Helvetica,sans-Serif" font-size="9.00">windowInnerWidth.ts</text>
</a>
</g>
</g>
<!-- packages/UI/view&#45;parameters/src/piano&#45;roll/piano&#45;roll&#45;width.ts&#45;&gt;packages/UI/view&#45;parameters/src/piano&#45;roll/windowInnerWidth.ts -->
<g id="edge10" class="edge">
<title>packages/UI/view&#45;parameters/src/piano&#45;roll/piano&#45;roll&#45;width.ts&#45;&gt;packages/UI/view&#45;parameters/src/piano&#45;roll/windowInnerWidth.ts</title>
<path fill="none" stroke="#000000" stroke-width="2" stroke-opacity="0.200000" d="M184.58,-419.4C164.33,-421.3 140.65,-423.52 119.19,-425.53"/>
<polygon fill="#000000" fill-opacity="0.200000" stroke="#000000" stroke-width="2" stroke-opacity="0.200000" points="118.99,-423.44 113.21,-426.09 119.38,-427.62 118.99,-423.44"/>
</g>
<!-- packages/UI/view&#45;parameters/src/note&#45;size.ts -->
<g id="node5" class="node">
<title>packages/UI/view&#45;parameters/src/note&#45;size.ts</title>
<g id="a_node5"><a xlink:href="packages/UI/view-parameters/src/note-size.ts" xlink:title="note&#45;size.ts">
<path fill="#ddfeff" stroke="black" d="M388.66,-379.65C388.66,-379.65 332.66,-379.65 332.66,-379.65 329.66,-379.65 326.66,-376.65 326.66,-373.65 326.66,-373.65 326.66,-367.65 326.66,-367.65 326.66,-364.65 329.66,-361.65 332.66,-361.65 332.66,-361.65 388.66,-361.65 388.66,-361.65 391.66,-361.65 394.66,-364.65 394.66,-367.65 394.66,-367.65 394.66,-373.65 394.66,-373.65 394.66,-376.65 391.66,-379.65 388.66,-379.65"/>
<text text-anchor="start" x="334.66" y="-368.45" font-family="Helvetica,sans-Serif" font-size="9.00">note&#45;size.ts</text>
</a>
</g>
</g>
<!-- packages/UI/view&#45;parameters/src/note&#45;size.ts&#45;&gt;packages/UI/view&#45;parameters/src/piano&#45;roll/piano&#45;roll&#45;width.ts -->
<g id="edge4" class="edge">
<title>packages/UI/view&#45;parameters/src/note&#45;size.ts&#45;&gt;packages/UI/view&#45;parameters/src/piano&#45;roll/piano&#45;roll&#45;width.ts</title>
<path fill="none" stroke="#000000" stroke-width="2" stroke-opacity="0.200000" d="M334.73,-379.69C314.76,-386.65 287.05,-396.3 265.76,-403.72"/>
<polygon fill="#000000" fill-opacity="0.200000" stroke="#000000" stroke-width="2" stroke-opacity="0.200000" points="264.91,-401.79 259.93,-405.75 266.29,-405.76 264.91,-401.79"/>
</g>
<!-- packages/UI/view&#45;parameters/src/piano&#45;roll/piano&#45;roll&#45;time&#45;length.ts -->
<g id="node6" class="node">
<title>packages/UI/view&#45;parameters/src/piano&#45;roll/piano&#45;roll&#45;time&#45;length.ts</title>
<g id="a_node6"><a xlink:href="packages/UI/view-parameters/src/piano-roll/piano-roll-time-length.ts" xlink:title="piano&#45;roll&#45;time&#45;length.ts">
<path fill="#ddfeff" stroke="black" d="M367.38,-187.78C367.38,-187.78 254.38,-187.78 254.38,-187.78 251.38,-187.78 248.38,-184.78 248.38,-181.78 248.38,-181.78 248.38,-175.78 248.38,-175.78 248.38,-172.78 251.38,-169.78 254.38,-169.78 254.38,-169.78 367.38,-169.78 367.38,-169.78 370.38,-169.78 373.38,-172.78 373.38,-175.78 373.38,-175.78 373.38,-181.78 373.38,-181.78 373.38,-184.78 370.38,-187.78 367.38,-187.78"/>
<text text-anchor="start" x="256.38" y="-176.58" font-family="Helvetica,sans-Serif" font-size="9.00">piano&#45;roll&#45;time&#45;length.ts</text>
</a>
</g>
</g>
<!-- packages/UI/view&#45;parameters/src/note&#45;size.ts&#45;&gt;packages/UI/view&#45;parameters/src/piano&#45;roll/piano&#45;roll&#45;time&#45;length.ts -->
<g id="edge3" class="edge">
<title>packages/UI/view&#45;parameters/src/note&#45;size.ts&#45;&gt;packages/UI/view&#45;parameters/src/piano&#45;roll/piano&#45;roll&#45;time&#45;length.ts</title>
<path fill="none" stroke="#000000" stroke-width="2" stroke-opacity="0.200000" d="M358.26,-361.4C350.29,-330.69 324.67,-231.94 314.81,-193.91"/>
<polygon fill="#000000" fill-opacity="0.200000" stroke="#000000" stroke-width="2" stroke-opacity="0.200000" points="316.8,-193.22 313.26,-187.94 312.74,-194.28 316.8,-193.22"/>
</g>
<!-- packages/UI/view&#45;parameters/src/piano&#45;roll/piano&#45;roll&#45;ratio.ts -->
<g id="node9" class="node">
<title>packages/UI/view&#45;parameters/src/piano&#45;roll/piano&#45;roll&#45;ratio.ts</title>
<g id="a_node9"><a xlink:href="packages/UI/view-parameters/src/piano-roll/piano-roll-ratio.ts" xlink:title="piano&#45;roll&#45;ratio.ts">
<path fill="#ddfeff" stroke="black" d="M193.13,-100.42C193.13,-100.42 112.13,-100.42 112.13,-100.42 109.13,-100.42 106.13,-97.42 106.13,-94.42 106.13,-94.42 106.13,-88.42 106.13,-88.42 106.13,-85.42 109.13,-82.42 112.13,-82.42 112.13,-82.42 193.13,-82.42 193.13,-82.42 196.13,-82.42 199.13,-85.42 199.13,-88.42 199.13,-88.42 199.13,-94.42 199.13,-94.42 199.13,-97.42 196.13,-100.42 193.13,-100.42"/>
<text text-anchor="start" x="114.13" y="-89.22" font-family="Helvetica,sans-Serif" font-size="9.00">piano&#45;roll&#45;ratio.ts</text>
</a>
</g>
</g>
<!-- packages/UI/view&#45;parameters/src/piano&#45;roll/piano&#45;roll&#45;time&#45;length.ts&#45;&gt;packages/UI/view&#45;parameters/src/piano&#45;roll/piano&#45;roll&#45;ratio.ts -->
<g id="edge9" class="edge">
<title>packages/UI/view&#45;parameters/src/piano&#45;roll/piano&#45;roll&#45;time&#45;length.ts&#45;&gt;packages/UI/view&#45;parameters/src/piano&#45;roll/piano&#45;roll&#45;ratio.ts</title>
<path fill="none" stroke="#000000" stroke-width="2" stroke-opacity="0.200000" d="M294.54,-169.76C265.88,-153.94 206.52,-121.17 174.41,-103.44"/>
<polygon fill="#000000" fill-opacity="0.200000" stroke="#000000" stroke-width="2" stroke-opacity="0.200000" points="175.38,-101.58 169.12,-100.52 173.35,-105.26 175.38,-101.58"/>
</g>
<!-- packages/UI/view&#45;parameters/src/song&#45;length.ts -->
<g id="node10" class="node">
<title>packages/UI/view&#45;parameters/src/song&#45;length.ts</title>
<g id="a_node10"><a xlink:href="packages/UI/view-parameters/src/song-length.ts" xlink:title="song&#45;length.ts">
<path fill="#ddfeff" stroke="black" d="M409.34,-18C409.34,-18 339.34,-18 339.34,-18 336.34,-18 333.34,-15 333.34,-12 333.34,-12 333.34,-6 333.34,-6 333.34,-3 336.34,0 339.34,0 339.34,0 409.34,0 409.34,0 412.34,0 415.34,-3 415.34,-6 415.34,-6 415.34,-12 415.34,-12 415.34,-15 412.34,-18 409.34,-18"/>
<text text-anchor="start" x="341.34" y="-6.8" font-family="Helvetica,sans-Serif" font-size="9.00">song&#45;length.ts</text>
</a>
</g>
</g>
<!-- packages/UI/view&#45;parameters/src/piano&#45;roll/piano&#45;roll&#45;time&#45;length.ts&#45;&gt;packages/UI/view&#45;parameters/src/song&#45;length.ts -->
<g id="edge8" class="edge">
<title>packages/UI/view&#45;parameters/src/piano&#45;roll/piano&#45;roll&#45;time&#45;length.ts&#45;&gt;packages/UI/view&#45;parameters/src/song&#45;length.ts</title>
<path fill="none" stroke="#000000" stroke-width="2" stroke-opacity="0.200000" d="M314.3,-169.65C324.67,-141.9 355.9,-58.34 368.74,-23.99"/>
<polygon fill="#000000" fill-opacity="0.200000" stroke="#000000" stroke-width="2" stroke-opacity="0.200000" points="370.78,-24.53 370.91,-18.17 366.84,-23.06 370.78,-24.53"/>
</g>
<!-- packages/UI/view&#45;parameters/src/now&#45;at.ts -->
<g id="node7" class="node">
<title>packages/UI/view&#45;parameters/src/now&#45;at.ts</title>
<g id="a_node7"><a xlink:href="packages/UI/view-parameters/src/now-at.ts" xlink:title="now&#45;at.ts">
<path fill="#ddfeff" stroke="black" d="M708.76,-442.54C708.76,-442.54 661.76,-442.54 661.76,-442.54 658.76,-442.54 655.76,-439.54 655.76,-436.54 655.76,-436.54 655.76,-430.54 655.76,-430.54 655.76,-427.54 658.76,-424.54 661.76,-424.54 661.76,-424.54 708.76,-424.54 708.76,-424.54 711.76,-424.54 714.76,-427.54 714.76,-430.54 714.76,-430.54 714.76,-436.54 714.76,-436.54 714.76,-439.54 711.76,-442.54 708.76,-442.54"/>
<text text-anchor="start" x="663.76" y="-431.34" font-family="Helvetica,sans-Serif" font-size="9.00">now&#45;at.ts</text>
</a>
</g>
</g>
<!-- packages/UI/view&#45;parameters/src/piano&#45;roll&#45;translate&#45;x.ts -->
<g id="node8" class="node">
<title>packages/UI/view&#45;parameters/src/piano&#45;roll&#45;translate&#45;x.ts</title>
<g id="a_node8"><a xlink:href="packages/UI/view-parameters/src/piano-roll-translate-x.ts" xlink:title="piano&#45;roll&#45;translate&#45;x.ts">
<path fill="#ddfeff" stroke="black" d="M569.4,-525.29C569.4,-525.29 460.4,-525.29 460.4,-525.29 457.4,-525.29 454.4,-522.29 454.4,-519.29 454.4,-519.29 454.4,-513.29 454.4,-513.29 454.4,-510.29 457.4,-507.29 460.4,-507.29 460.4,-507.29 569.4,-507.29 569.4,-507.29 572.4,-507.29 575.4,-510.29 575.4,-513.29 575.4,-513.29 575.4,-519.29 575.4,-519.29 575.4,-522.29 572.4,-525.29 569.4,-525.29"/>
<text text-anchor="start" x="462.4" y="-514.09" font-family="Helvetica,sans-Serif" font-size="9.00">piano&#45;roll&#45;translate&#45;x.ts</text>
</a>
</g>
</g>
<!-- packages/UI/view&#45;parameters/src/piano&#45;roll&#45;translate&#45;x.ts&#45;&gt;packages/UI/view&#45;parameters/src/current&#45;time&#45;x.ts -->
<g id="edge5" class="edge">
<title>packages/UI/view&#45;parameters/src/piano&#45;roll&#45;translate&#45;x.ts&#45;&gt;packages/UI/view&#45;parameters/src/current&#45;time&#45;x.ts</title>
<path fill="none" stroke="#000000" stroke-width="2" stroke-opacity="0.200000" d="M509.96,-507.27C498.68,-486.68 470.96,-436.06 457.19,-410.93"/>
<polygon fill="#000000" fill-opacity="0.200000" stroke="#000000" stroke-width="2" stroke-opacity="0.200000" points="458.89,-409.66 454.17,-405.4 455.21,-411.67 458.89,-409.66"/>
</g>
<!-- packages/UI/view&#45;parameters/src/piano&#45;roll&#45;translate&#45;x.ts&#45;&gt;packages/UI/view&#45;parameters/src/note&#45;size.ts -->
<g id="edge6" class="edge">
<title>packages/UI/view&#45;parameters/src/piano&#45;roll&#45;translate&#45;x.ts&#45;&gt;packages/UI/view&#45;parameters/src/note&#45;size.ts</title>
<path fill="none" stroke="#000000" stroke-width="2" stroke-opacity="0.200000" d="M505.25,-507.18C478.96,-482.36 405.94,-413.41 374.91,-384.11"/>
<polygon fill="#000000" fill-opacity="0.200000" stroke="#000000" stroke-width="2" stroke-opacity="0.200000" points="376.11,-382.35 370.3,-379.76 373.22,-385.41 376.11,-382.35"/>
</g>
<!-- packages/UI/view&#45;parameters/src/piano&#45;roll&#45;translate&#45;x.ts&#45;&gt;packages/UI/view&#45;parameters/src/now&#45;at.ts -->
<g id="edge7" class="edge">
<title>packages/UI/view&#45;parameters/src/piano&#45;roll&#45;translate&#45;x.ts&#45;&gt;packages/UI/view&#45;parameters/src/now&#45;at.ts</title>
<path fill="none" stroke="#000000" stroke-width="2" stroke-opacity="0.200000" d="M533.46,-507.28C564.44,-492.23 626.67,-462 661.05,-445.3"/>
<polygon fill="#000000" fill-opacity="0.200000" stroke="#000000" stroke-width="2" stroke-opacity="0.200000" points="662.25,-447.05 666.73,-442.54 660.42,-443.27 662.25,-447.05"/>
</g>
<!-- packages/UI/view/src/collection&#45;hierarchy.ts -->
<g id="node12" class="node">
<title>packages/UI/view/src/collection&#45;hierarchy.ts</title>
<g id="a_node12"><a xlink:href="packages/UI/view/src/collection-hierarchy.ts" xlink:title="collection&#45;hierarchy.ts">
<path fill="#ddfeff" stroke="black" d="M612.14,-1039.49C612.14,-1039.49 509.14,-1039.49 509.14,-1039.49 506.14,-1039.49 503.14,-1036.49 503.14,-1033.49 503.14,-1033.49 503.14,-1027.49 503.14,-1027.49 503.14,-1024.49 506.14,-1021.49 509.14,-1021.49 509.14,-1021.49 612.14,-1021.49 612.14,-1021.49 615.14,-1021.49 618.14,-1024.49 618.14,-1027.49 618.14,-1027.49 618.14,-1033.49 618.14,-1033.49 618.14,-1036.49 615.14,-1039.49 612.14,-1039.49"/>
<text text-anchor="start" x="511.14" y="-1028.29" font-family="Helvetica,sans-Serif" font-size="9.00">collection&#45;hierarchy.ts</text>
</a>
</g>
</g>
<!-- packages/UI/view/src/collection&#45;hierarchy.ts&#45;&gt;packages/UI/controllers/dist/index.js -->
<g id="edge13" class="edge">
<title>packages/UI/view/src/collection&#45;hierarchy.ts&#45;&gt;packages/UI/controllers/dist/index.js</title>
<path fill="none" stroke="#000000" stroke-width="2" stroke-opacity="0.200000" d="M558.48,-1039.7C552.21,-1066.54 533.88,-1144.86 526.13,-1178.02"/>
<polygon fill="#000000" fill-opacity="0.200000" stroke="#000000" stroke-width="2" stroke-opacity="0.200000" points="524.04,-1177.7 524.72,-1184.02 528.13,-1178.66 524.04,-1177.7"/>
</g>
<!-- packages/UI/view/src/collection&#45;layer.ts -->
<g id="node13" class="node">
<title>packages/UI/view/src/collection&#45;layer.ts</title>
<g id="a_node13"><a xlink:href="packages/UI/view/src/collection-layer.ts" xlink:title="collection&#45;layer.ts">
<path fill="#ddfeff" stroke="black" d="M672.23,-877.92C672.23,-877.92 589.23,-877.92 589.23,-877.92 586.23,-877.92 583.23,-874.92 583.23,-871.92 583.23,-871.92 583.23,-865.92 583.23,-865.92 583.23,-862.92 586.23,-859.92 589.23,-859.92 589.23,-859.92 672.23,-859.92 672.23,-859.92 675.23,-859.92 678.23,-862.92 678.23,-865.92 678.23,-865.92 678.23,-871.92 678.23,-871.92 678.23,-874.92 675.23,-877.92 672.23,-877.92"/>
<text text-anchor="start" x="591.23" y="-866.72" font-family="Helvetica,sans-Serif" font-size="9.00">collection&#45;layer.ts</text>
</a>
</g>
</g>
<!-- packages/UI/view/src/collection&#45;hierarchy.ts&#45;&gt;packages/UI/view/src/collection&#45;layer.ts -->
<g id="edge11" class="edge">
<title>packages/UI/view/src/collection&#45;hierarchy.ts&#45;&gt;packages/UI/view/src/collection&#45;layer.ts</title>
<path fill="none" stroke="#000000" stroke-width="2" stroke-opacity="0.200000" d="M564.61,-1021.34C576.22,-994.57 610.21,-916.22 624.4,-883.52"/>
<polygon fill="#000000" fill-opacity="0.200000" stroke="#000000" stroke-width="2" stroke-opacity="0.200000" points="626.34,-884.31 626.8,-877.97 622.49,-882.64 626.34,-884.31"/>
</g>
<!-- packages/UI/view/src/mvc.ts -->
<g id="node14" class="node">
<title>packages/UI/view/src/mvc.ts</title>
<g id="a_node14"><a xlink:href="packages/UI/view/src/mvc.ts" xlink:title="mvc.ts">
<path fill="#ddfeff" stroke="black" d="M519.32,-882.43C519.32,-882.43 477.32,-882.43 477.32,-882.43 474.32,-882.43 471.32,-879.43 471.32,-876.43 471.32,-876.43 471.32,-870.43 471.32,-870.43 471.32,-867.43 474.32,-864.43 477.32,-864.43 477.32,-864.43 519.32,-864.43 519.32,-864.43 522.32,-864.43 525.32,-867.43 525.32,-870.43 525.32,-870.43 525.32,-876.43 525.32,-876.43 525.32,-879.43 522.32,-882.43 519.32,-882.43"/>
<text text-anchor="start" x="482.82" y="-871.23" font-family="Helvetica,sans-Serif" font-size="9.00">mvc.ts</text>
</a>
</g>
</g>
<!-- packages/UI/view/src/collection&#45;hierarchy.ts&#45;&gt;packages/UI/view/src/mvc.ts -->
<g id="edge12" class="edge">
<title>packages/UI/view/src/collection&#45;hierarchy.ts&#45;&gt;packages/UI/view/src/mvc.ts</title>
<path fill="none" stroke="#000000" stroke-width="2" stroke-opacity="0.200000" d="M556.93,-1021.14C546.51,-994.88 516.94,-920.36 504.24,-888.34"/>
<polygon fill="#000000" fill-opacity="0.200000" stroke="#000000" stroke-width="2" stroke-opacity="0.200000" points="506.1,-887.34 501.93,-882.53 502.19,-888.89 506.1,-887.34"/>
</g>
<!-- packages/UI/view/src/svg&#45;collection.ts -->
<g id="node15" class="node">
<title>packages/UI/view/src/svg&#45;collection.ts</title>
<g id="a_node15"><a xlink:href="packages/UI/view/src/svg-collection.ts" xlink:title="svg&#45;collection.ts">
<path fill="#ddfeff" stroke="black" d="M605.91,-709.56C605.91,-709.56 528.91,-709.56 528.91,-709.56 525.91,-709.56 522.91,-706.56 522.91,-703.56 522.91,-703.56 522.91,-697.56 522.91,-697.56 522.91,-694.56 525.91,-691.56 528.91,-691.56 528.91,-691.56 605.91,-691.56 605.91,-691.56 608.91,-691.56 611.91,-694.56 611.91,-697.56 611.91,-697.56 611.91,-703.56 611.91,-703.56 611.91,-706.56 608.91,-709.56 605.91,-709.56"/>
<text text-anchor="start" x="530.91" y="-698.36" font-family="Helvetica,sans-Serif" font-size="9.00">svg&#45;collection.ts</text>
</a>
</g>
</g>
<!-- packages/UI/view/src/collection&#45;layer.ts&#45;&gt;packages/UI/view/src/svg&#45;collection.ts -->
<g id="edge14" class="edge">
<title>packages/UI/view/src/collection&#45;layer.ts&#45;&gt;packages/UI/view/src/svg&#45;collection.ts</title>
<path fill="none" stroke="#000000" stroke-width="2" stroke-opacity="0.200000" d="M627.33,-859.87C616.98,-832.35 585.81,-749.48 573,-715.42"/>
<polygon fill="#000000" fill-opacity="0.200000" stroke="#000000" stroke-width="2" stroke-opacity="0.200000" points="574.91,-714.53 570.83,-709.65 570.98,-716.01 574.91,-714.53"/>
</g>
<!-- packages/UI/view/src/svg&#45;collection.ts&#45;&gt;packages/UI/view&#45;parameters/src/piano&#45;roll&#45;translate&#45;x.ts -->
<g id="edge20" class="edge">
<title>packages/UI/view/src/svg&#45;collection.ts&#45;&gt;packages/UI/view&#45;parameters/src/piano&#45;roll&#45;translate&#45;x.ts</title>
<path fill="none" stroke="#000000" stroke-width="2" stroke-opacity="0.200000" d="M564.8,-691.42C556.35,-661.76 529.64,-568 519.17,-531.27"/>
<polygon fill="#000000" fill-opacity="0.200000" stroke="#000000" stroke-width="2" stroke-opacity="0.200000" points="521.18,-530.68 517.52,-525.49 517.15,-531.83 521.18,-530.68"/>
</g>
<!-- packages/UI/view/src/svg&#45;collection.ts&#45;&gt;packages/UI/view/src/mvc.ts -->
<g id="edge17" class="edge">
<title>packages/UI/view/src/svg&#45;collection.ts&#45;&gt;packages/UI/view/src/mvc.ts</title>
<path fill="none" stroke="#000000" stroke-width="2" stroke-opacity="0.200000" d="M563.69,-709.85C552.4,-738.11 518.39,-823.19 504.42,-858.16"/>
<polygon fill="#000000" fill-opacity="0.200000" stroke="#000000" stroke-width="2" stroke-opacity="0.200000" points="502.33,-857.73 502.05,-864.09 506.23,-859.29 502.33,-857.73"/>
</g>
<!-- packages/UI/view/src/reflectable/audio&#45;reflectable.ts -->
<g id="node17" class="node">
<title>packages/UI/view/src/reflectable/audio&#45;reflectable.ts</title>
<g id="a_node17"><a xlink:href="packages/UI/view/src/reflectable/audio-reflectable.ts" xlink:title="audio&#45;reflectable.ts">
<path fill="#ddfeff" stroke="black" d="M809.31,-706.77C809.31,-706.77 717.31,-706.77 717.31,-706.77 714.31,-706.77 711.31,-703.77 711.31,-700.77 711.31,-700.77 711.31,-694.77 711.31,-694.77 711.31,-691.77 714.31,-688.77 717.31,-688.77 717.31,-688.77 809.31,-688.77 809.31,-688.77 812.31,-688.77 815.31,-691.77 815.31,-694.77 815.31,-694.77 815.31,-700.77 815.31,-700.77 815.31,-703.77 812.31,-706.77 809.31,-706.77"/>
<text text-anchor="start" x="719.31" y="-695.57" font-family="Helvetica,sans-Serif" font-size="9.00">audio&#45;reflectable.ts</text>
</a>
</g>
</g>
<!-- packages/UI/view/src/svg&#45;collection.ts&#45;&gt;packages/UI/view/src/reflectable/audio&#45;reflectable.ts -->
<g id="edge18" class="edge">
<title>packages/UI/view/src/svg&#45;collection.ts&#45;&gt;packages/UI/view/src/reflectable/audio&#45;reflectable.ts</title>
<path fill="none" stroke="#000000" stroke-width="2" stroke-opacity="0.200000" d="M612.35,-699.92C639.88,-699.52 675.4,-699.02 705.07,-698.6"/>
<polygon fill="#000000" fill-opacity="0.200000" stroke="#000000" stroke-width="2" stroke-opacity="0.200000" points="705.33,-700.69 711.3,-698.51 705.27,-696.49 705.33,-700.69"/>
</g>
<!-- packages/util/time&#45;and/dist/index.js -->
<g id="node20" class="node">
<title>packages/util/time&#45;and/dist/index.js</title>
<g id="a_node20"><a xlink:href="packages/util/time-and/dist/index.js" xlink:title="index.js">
<polygon fill="#ffffcc" stroke="black" points="421.2,-766.64 419.7,-768.64 409.2,-768.64 407.7,-766.64 367.2,-766.64 367.2,-748.64 421.2,-748.64 421.2,-766.64"/>
<text text-anchor="start" x="376.7" y="-755.44" font-family="Helvetica,sans-Serif" font-size="9.00">index.js</text>
</a>
</g>
</g>
<!-- packages/UI/view/src/svg&#45;collection.ts&#45;&gt;packages/util/time&#45;and/dist/index.js -->
<g id="edge19" class="edge">
<title>packages/UI/view/src/svg&#45;collection.ts&#45;&gt;packages/util/time&#45;and/dist/index.js</title>
<path fill="none" stroke="#000000" stroke-width="2" stroke-opacity="0.200000" d="M539.96,-709.6C509.34,-719.69 459.81,-736.01 427.13,-746.79"/>
<polygon fill="#000000" fill-opacity="0.200000" stroke="#000000" stroke-width="2" stroke-opacity="0.200000" points="426.27,-744.86 421.23,-748.73 427.58,-748.85 426.27,-744.86"/>
</g>
<!-- packages/UI/view/src/reflectable/audio&#45;reflectable&#45;registry.ts -->
<g id="node16" class="node">
<title>packages/UI/view/src/reflectable/audio&#45;reflectable&#45;registry.ts</title>
<g id="a_node16"><a xlink:href="packages/UI/view/src/reflectable/audio-reflectable-registry.ts" xlink:title="audio&#45;reflectable&#45;registry.ts">
<path fill="#ddfeff" stroke="black" d="M1004.28,-721.82C1004.28,-721.82 876.28,-721.82 876.28,-721.82 873.28,-721.82 870.28,-718.82 870.28,-715.82 870.28,-715.82 870.28,-709.82 870.28,-709.82 870.28,-706.82 873.28,-703.82 876.28,-703.82 876.28,-703.82 1004.28,-703.82 1004.28,-703.82 1007.28,-703.82 1010.28,-706.82 1010.28,-709.82 1010.28,-709.82 1010.28,-715.82 1010.28,-715.82 1010.28,-718.82 1007.28,-721.82 1004.28,-721.82"/>
<text text-anchor="start" x="878.28" y="-710.62" font-family="Helvetica,sans-Serif" font-size="9.00">audio&#45;reflectable&#45;registry.ts</text>
</a>
</g>
</g>
<!-- packages/UI/view/src/reflectable/audio&#45;reflectable&#45;registry.ts&#45;&gt;packages/UI/view/src/reflectable/audio&#45;reflectable.ts -->
<g id="edge15" class="edge">
<title>packages/UI/view/src/reflectable/audio&#45;reflectable&#45;registry.ts&#45;&gt;packages/UI/view/src/reflectable/audio&#45;reflectable.ts</title>
<path fill="none" stroke="#000000" stroke-width="2" stroke-opacity="0.200000" d="M870.08,-706.85C853.98,-705.48 837.04,-704.04 821.51,-702.72"/>
<polygon fill="#000000" fill-opacity="0.200000" stroke="#000000" stroke-width="2" stroke-opacity="0.200000" points="821.56,-700.62 815.4,-702.2 821.2,-704.8 821.56,-700.62"/>
</g>
<!-- packages/UI/view/src/reflectable/window&#45;reflectable&#45;registry.ts -->
<g id="node18" class="node">
<title>packages/UI/view/src/reflectable/window&#45;reflectable&#45;registry.ts</title>
<g id="a_node18"><a xlink:href="packages/UI/view/src/reflectable/window-reflectable-registry.ts" xlink:title="window&#45;reflectable&#45;registry.ts">
<path fill="#ddfeff" stroke="black" d="M917,-554.77C917,-554.77 780,-554.77 780,-554.77 777,-554.77 774,-551.77 774,-548.77 774,-548.77 774,-542.77 774,-542.77 774,-539.77 777,-536.77 780,-536.77 780,-536.77 917,-536.77 917,-536.77 920,-536.77 923,-539.77 923,-542.77 923,-542.77 923,-548.77 923,-548.77 923,-551.77 920,-554.77 917,-554.77"/>
<text text-anchor="start" x="782" y="-543.57" font-family="Helvetica,sans-Serif" font-size="9.00">window&#45;reflectable&#45;registry.ts</text>
</a>
</g>
</g>
<!-- packages/UI/view/src/reflectable/window&#45;reflectable.ts -->
<g id="node19" class="node">
<title>packages/UI/view/src/reflectable/window&#45;reflectable.ts</title>
<g id="a_node19"><a xlink:href="packages/UI/view/src/reflectable/window-reflectable.ts" xlink:title="window&#45;reflectable.ts">
<path fill="#ddfeff" stroke="black" d="M1038.01,-534C1038.01,-534 937.01,-534 937.01,-534 934.01,-534 931.01,-531 931.01,-528 931.01,-528 931.01,-522 931.01,-522 931.01,-519 934.01,-516 937.01,-516 937.01,-516 1038.01,-516 1038.01,-516 1041.01,-516 1044.01,-519 1044.01,-522 1044.01,-522 1044.01,-528 1044.01,-528 1044.01,-531 1041.01,-534 1038.01,-534"/>
<text text-anchor="start" x="939.01" y="-522.8" font-family="Helvetica,sans-Serif" font-size="9.00">window&#45;reflectable.ts</text>
</a>
</g>
</g>
<!-- packages/UI/view/src/reflectable/window&#45;reflectable&#45;registry.ts&#45;&gt;packages/UI/view/src/reflectable/window&#45;reflectable.ts -->
<g id="edge16" class="edge">
<title>packages/UI/view/src/reflectable/window&#45;reflectable&#45;registry.ts&#45;&gt;packages/UI/view/src/reflectable/window&#45;reflectable.ts</title>
<path fill="none" stroke="#000000" stroke-width="2" stroke-opacity="0.200000" d="M909.07,-536.72C914.22,-535.95 919.44,-535.17 924.61,-534.4"/>
<polygon fill="#000000" fill-opacity="0.200000" stroke="#000000" stroke-width="2" stroke-opacity="0.200000" points="925.03,-536.46 930.66,-533.5 924.41,-532.3 925.03,-536.46"/>
</g>
</g>
</svg>
