<?xml version="1.0" encoding="UTF-8" standalone="no"?>
<!DOCTYPE svg PUBLIC "-//W3C//DTD SVG 1.1//EN"
 "http://www.w3.org/Graphics/SVG/1.1/DTD/svg11.dtd">
<!-- Generated by graphviz version 2.43.0 (0)
 -->
<!-- Title: dependency&#45;cruiser output Pages: 1 -->
<svg width="637pt" height="852pt"
 viewBox="0.00 0.00 637.00 852.00" xmlns="http://www.w3.org/2000/svg" xmlns:xlink="http://www.w3.org/1999/xlink">
<g id="graph0" class="graph" transform="scale(1 1) rotate(0) translate(4 848)">
<title>dependency&#45;cruiser output</title>
<polygon fill="white" stroke="transparent" points="-4,4 -4,-848 633,-848 633,4 -4,4"/>
<g id="clust1" class="cluster">
<title>cluster_node_modules</title>
<path fill="#ffffff" stroke="black" stroke-width="2" d="M514,-8C514,-8 580,-8 580,-8 586,-8 592,-14 592,-20 592,-20 592,-112 592,-112 592,-118 586,-124 580,-124 580,-124 514,-124 514,-124 508,-124 502,-118 502,-112 502,-112 502,-20 502,-20 502,-14 508,-8 514,-8"/>
<text text-anchor="middle" x="547" y="-112.8" font-family="Helvetica,sans-Serif" font-weight="bold" font-size="9.00">node_modules</text>
</g>
<g id="clust2" class="cluster">
<title>cluster_node_modules/@tonaljs</title>
<path fill="#ffffff" stroke="black" stroke-width="2" d="M524,-16C524,-16 570,-16 570,-16 576,-16 582,-22 582,-28 582,-28 582,-86 582,-86 582,-92 576,-98 570,-98 570,-98 524,-98 524,-98 518,-98 512,-92 512,-86 512,-86 512,-28 512,-28 512,-22 518,-16 524,-16"/>
<text text-anchor="middle" x="547" y="-86.8" font-family="Helvetica,sans-Serif" font-weight="bold" font-size="9.00">@tonaljs</text>
</g>
<g id="clust3" class="cluster">
<title>cluster_packages</title>
<path fill="#ffffff" stroke="black" stroke-width="2" d="M20,-132C20,-132 612,-132 612,-132 618,-132 624,-138 624,-144 624,-144 624,-824 624,-824 624,-830 618,-836 612,-836 612,-836 20,-836 20,-836 14,-836 8,-830 8,-824 8,-824 8,-144 8,-144 8,-138 14,-132 20,-132"/>
<text text-anchor="middle" x="316" y="-824.8" font-family="Helvetica,sans-Serif" font-weight="bold" font-size="9.00">packages</text>
</g>
<g id="clust4" class="cluster">
<title>cluster_packages/tonal&#45;objects</title>
<path fill="#ffffff" stroke="black" stroke-width="2" d="M361,-140C361,-140 451,-140 451,-140 457,-140 463,-146 463,-152 463,-152 463,-338 463,-338 463,-344 457,-350 451,-350 451,-350 361,-350 361,-350 355,-350 349,-344 349,-338 349,-338 349,-152 349,-152 349,-146 355,-140 361,-140"/>
<text text-anchor="middle" x="406" y="-338.8" font-family="Helvetica,sans-Serif" font-weight="bold" font-size="9.00">tonal&#45;objects</text>
</g>
<g id="clust5" class="cluster">
<title>cluster_packages/tonal&#45;objects/src</title>
<path fill="#ffffff" stroke="black" stroke-width="2" d="M369,-148C369,-148 443,-148 443,-148 449,-148 455,-154 455,-160 455,-160 455,-312 455,-312 455,-318 449,-324 443,-324 443,-324 369,-324 369,-324 363,-324 357,-318 357,-312 357,-312 357,-160 357,-160 357,-154 363,-148 369,-148"/>
<text text-anchor="middle" x="406" y="-312.8" font-family="Helvetica,sans-Serif" font-weight="bold" font-size="9.00">src</text>
</g>
<g id="clust6" class="cluster">
<title>cluster_packages/tonal&#45;objects/src/interval</title>
<path fill="#ffffff" stroke="black" stroke-width="2" d="M377,-216C377,-216 435,-216 435,-216 441,-216 447,-222 447,-228 447,-228 447,-286 447,-286 447,-292 441,-298 435,-298 435,-298 377,-298 377,-298 371,-298 365,-292 365,-286 365,-286 365,-228 365,-228 365,-222 371,-216 377,-216"/>
<text text-anchor="start" x="386" y="-286.8" font-family="Helvetica,sans-Serif" font-weight="bold" font-size="9.00">interval</text>
</g>
<g id="clust7" class="cluster">
<title>cluster_packages/tonal&#45;objects/src/note</title>
<path fill="#ffffff" stroke="black" stroke-width="2" d="M379,-156C379,-156 433,-156 433,-156 439,-156 445,-162 445,-168 445,-168 445,-196 445,-196 445,-202 439,-208 433,-208 433,-208 379,-208 379,-208 373,-208 367,-202 367,-196 367,-196 367,-168 367,-168 367,-162 373,-156 379,-156"/>
<text text-anchor="start" x="394" y="-196.8" font-family="Helvetica,sans-Serif" font-weight="bold" font-size="9.00">note</text>
</g>
<g id="clust8" class="cluster">
<title>cluster_packages/util</title>
<path fill="#ffffff" stroke="black" stroke-width="2" d="M28,-358C28,-358 604,-358 604,-358 610,-358 616,-364 616,-370 616,-370 616,-798 616,-798 616,-804 610,-810 604,-810 604,-810 28,-810 28,-810 22,-810 16,-804 16,-798 16,-798 16,-370 16,-370 16,-364 22,-358 28,-358"/>
<text text-anchor="middle" x="316" y="-798.8" font-family="Helvetica,sans-Serif" font-weight="bold" font-size="9.00">util</text>
</g>
<g id="clust9" class="cluster">
<title>cluster_packages/util/color</title>
<path fill="#ffffff" stroke="black" stroke-width="2" d="M36,-366C36,-366 578,-366 578,-366 584,-366 590,-372 590,-378 590,-378 590,-516 590,-516 590,-522 584,-528 578,-528 578,-528 36,-528 36,-528 30,-528 24,-522 24,-516 24,-516 24,-378 24,-378 24,-372 30,-366 36,-366"/>
<text text-anchor="middle" x="307" y="-516.8" font-family="Helvetica,sans-Serif" font-weight="bold" font-size="9.00">color</text>
</g>
<g id="clust10" class="cluster">
<title>cluster_packages/util/color/src</title>
<path fill="#ffffff" stroke="black" stroke-width="2" d="M125,-374C125,-374 570,-374 570,-374 576,-374 582,-380 582,-386 582,-386 582,-474 582,-474 582,-480 576,-486 570,-486 570,-486 125,-486 125,-486 119,-486 113,-480 113,-474 113,-474 113,-386 113,-386 113,-380 119,-374 125,-374"/>
<text text-anchor="middle" x="347.5" y="-474.8" font-family="Helvetica,sans-Serif" font-weight="bold" font-size="9.00">src</text>
</g>
<g id="clust11" class="cluster">
<title>cluster_packages/util/math</title>
<path fill="#ffffff" stroke="black" stroke-width="2" d="M499,-664C499,-664 596,-664 596,-664 602,-664 608,-670 608,-676 608,-676 608,-772 608,-772 608,-778 602,-784 596,-784 596,-784 499,-784 499,-784 493,-784 487,-778 487,-772 487,-772 487,-676 487,-676 487,-670 493,-664 499,-664"/>
<text text-anchor="middle" x="547.5" y="-772.8" font-family="Helvetica,sans-Serif" font-weight="bold" font-size="9.00">math</text>
</g>
<g id="clust12" class="cluster">
<title>cluster_packages/util/math/src</title>
<path fill="#ffffff" stroke="black" stroke-width="2" d="M507,-672C507,-672 588,-672 588,-672 594,-672 600,-678 600,-684 600,-684 600,-746 600,-746 600,-752 594,-758 588,-758 588,-758 507,-758 507,-758 501,-758 495,-752 495,-746 495,-746 495,-684 495,-684 495,-678 501,-672 507,-672"/>
<text text-anchor="middle" x="547.5" y="-746.8" font-family="Helvetica,sans-Serif" font-weight="bold" font-size="9.00">src</text>
</g>
<g id="clust13" class="cluster">
<title>cluster_packages/util/math/src/basic&#45;function</title>
<path fill="#ffffff" stroke="black" stroke-width="2" d="M515,-680C515,-680 580,-680 580,-680 586,-680 592,-686 592,-692 592,-692 592,-720 592,-720 592,-726 586,-732 580,-732 580,-732 515,-732 515,-732 509,-732 503,-726 503,-720 503,-720 503,-692 503,-692 503,-686 509,-680 515,-680"/>
<text text-anchor="middle" x="547.5" y="-720.8" font-family="Helvetica,sans-Serif" font-weight="bold" font-size="9.00">basic&#45;function</text>
</g>
<g id="clust14" class="cluster">
<title>cluster_packages/util/stdlib</title>
<path fill="#ffffff" stroke="black" stroke-width="2" d="M501,-536C501,-536 593,-536 593,-536 599,-536 605,-542 605,-548 605,-548 605,-644 605,-644 605,-650 599,-656 593,-656 593,-656 501,-656 501,-656 495,-656 489,-650 489,-644 489,-644 489,-548 489,-548 489,-542 495,-536 501,-536"/>
<text text-anchor="middle" x="547" y="-644.8" font-family="Helvetica,sans-Serif" font-weight="bold" font-size="9.00">stdlib</text>
</g>
<g id="clust15" class="cluster">
<title>cluster_packages/util/stdlib/src</title>
<path fill="#ffffff" stroke="black" stroke-width="2" d="M509,-544C509,-544 585,-544 585,-544 591,-544 597,-550 597,-556 597,-556 597,-618 597,-618 597,-624 591,-630 585,-630 585,-630 509,-630 509,-630 503,-630 497,-624 497,-618 497,-618 497,-556 497,-556 497,-550 503,-544 509,-544"/>
<text text-anchor="middle" x="547" y="-618.8" font-family="Helvetica,sans-Serif" font-weight="bold" font-size="9.00">src</text>
</g>
<g id="clust16" class="cluster">
<title>cluster_packages/util/stdlib/src/assertion</title>
<path fill="#ffffff" stroke="black" stroke-width="2" d="M517,-552C517,-552 577,-552 577,-552 583,-552 589,-558 589,-564 589,-564 589,-592 589,-592 589,-598 583,-604 577,-604 577,-604 517,-604 517,-604 511,-604 505,-598 505,-592 505,-592 505,-564 505,-564 505,-558 511,-552 517,-552"/>
<text text-anchor="middle" x="547" y="-592.8" font-family="Helvetica,sans-Serif" font-weight="bold" font-size="9.00">assertion</text>
</g>
<!-- node_modules/@tonaljs/interval -->
<g id="node1" class="node">
<title>node_modules/@tonaljs/interval</title>
<g id="a_node1"><a xlink:href="https://www.npmjs.com/package/@tonaljs/interval" xlink:title="interval">
<polygon fill="#c40b0a" fill-opacity="0.101961" stroke="black" points="574,-72 522,-72 520,-70 520,-54 572,-54 574,-56 574,-72"/>
<polyline fill="none" stroke="black" points="572,-70 520,-70 "/>
<polyline fill="none" stroke="black" points="572,-70 572,-54 "/>
<polyline fill="none" stroke="black" points="572,-70 574,-72 "/>
<text text-anchor="start" x="530" y="-60.8" font-family="Helvetica,sans-Serif" font-size="9.00" fill="#c40b0a">interval</text>
</a>
</g>
</g>
<!-- node_modules/@tonaljs/note -->
<g id="node2" class="node">
<title>node_modules/@tonaljs/note</title>
<g id="a_node2"><a xlink:href="https://www.npmjs.com/package/@tonaljs/note" xlink:title="note">
<polygon fill="#c40b0a" fill-opacity="0.101961" stroke="black" points="574,-42 522,-42 520,-40 520,-24 572,-24 574,-26 574,-42"/>
<polyline fill="none" stroke="black" points="572,-40 520,-40 "/>
<polyline fill="none" stroke="black" points="572,-40 572,-24 "/>
<polyline fill="none" stroke="black" points="572,-40 574,-42 "/>
<text text-anchor="start" x="536.5" y="-30.8" font-family="Helvetica,sans-Serif" font-size="9.00" fill="#c40b0a">note</text>
</a>
</g>
</g>
<!-- packages/tonal&#45;objects/src/interval/distance.ts -->
<g id="node3" class="node">
<title>packages/tonal&#45;objects/src/interval/distance.ts</title>
<g id="a_node3"><a xlink:href="packages/tonal-objects/src/interval/distance.ts" xlink:title="distance.ts">
<polygon fill="#ddfeff" stroke="black" points="439,-272 437.5,-274 427,-274 425.5,-272 373,-272 373,-254 439,-254 439,-272"/>
<text text-anchor="start" x="381" y="-260.8" font-family="Helvetica,sans-Serif" font-size="9.00">distance.ts</text>
</a>
</g>
</g>
<!-- packages/tonal&#45;objects/src/interval/get.ts -->
<g id="node4" class="node">
<title>packages/tonal&#45;objects/src/interval/get.ts</title>
<g id="a_node4"><a xlink:href="packages/tonal-objects/src/interval/get.ts" xlink:title="get.ts">
<path fill="#ddfeff" stroke="black" d="M427,-242C427,-242 385,-242 385,-242 382,-242 379,-239 379,-236 379,-236 379,-230 379,-230 379,-227 382,-224 385,-224 385,-224 427,-224 427,-224 430,-224 433,-227 433,-230 433,-230 433,-236 433,-236 433,-239 430,-242 427,-242"/>
<text text-anchor="start" x="392.5" y="-230.8" font-family="Helvetica,sans-Serif" font-size="9.00">get.ts</text>
</a>
</g>
</g>
<!-- packages/tonal&#45;objects/src/interval/get.ts&#45;&gt;node_modules/@tonaljs/interval -->
<g id="edge1" class="edge">
<title>packages/tonal&#45;objects/src/interval/get.ts&#45;&gt;node_modules/@tonaljs/interval</title>
<path fill="none" stroke="#000000" stroke-opacity="0.200000" d="M414.47,-223.86C437.38,-195.84 506.75,-111.01 534.42,-77.16"/>
<polygon fill="#000000" fill-opacity="0.200000" stroke="#000000" stroke-opacity="0.200000" points="540.12,-73.51 534.69,-76.83 536.86,-70.86 540.12,-73.51"/>
</g>
<!-- packages/tonal&#45;objects/src/note/chroma.ts -->
<g id="node5" class="node">
<title>packages/tonal&#45;objects/src/note/chroma.ts</title>
<g id="a_node5"><a xlink:href="packages/tonal-objects/src/note/chroma.ts" xlink:title="chroma.ts">
<path fill="#ddfeff" stroke="black" d="M431,-182C431,-182 381,-182 381,-182 378,-182 375,-179 375,-176 375,-176 375,-170 375,-170 375,-167 378,-164 381,-164 381,-164 431,-164 431,-164 434,-164 437,-167 437,-170 437,-170 437,-176 437,-176 437,-179 434,-182 431,-182"/>
<text text-anchor="start" x="383" y="-170.8" font-family="Helvetica,sans-Serif" font-size="9.00">chroma.ts</text>
</a>
</g>
</g>
<!-- packages/tonal&#45;objects/src/note/chroma.ts&#45;&gt;node_modules/@tonaljs/note -->
<g id="edge2" class="edge">
<title>packages/tonal&#45;objects/src/note/chroma.ts&#45;&gt;node_modules/@tonaljs/note</title>
<path fill="none" stroke="#000000" stroke-opacity="0.200000" d="M416.12,-163.81C439.99,-139.78 504.37,-74.93 532.52,-46.58"/>
<polygon fill="#000000" fill-opacity="0.200000" stroke="#000000" stroke-opacity="0.200000" points="538.52,-43.52 532.8,-46.3 535.54,-40.56 538.52,-43.52"/>
</g>
<!-- packages/util/color/index.test.ts -->
<g id="node6" class="node">
<title>packages/util/color/index.test.ts</title>
<g id="a_node6"><a xlink:href="packages/util/color/index.test.ts" xlink:title="index.test.ts">
<path fill="#ddfeff" stroke="black" d="M99,-468C99,-468 38,-468 38,-468 35,-468 32,-465 32,-462 32,-462 32,-456 32,-456 32,-453 35,-450 38,-450 38,-450 99,-450 99,-450 102,-450 105,-453 105,-456 105,-456 105,-462 105,-462 105,-465 102,-468 99,-468"/>
<text text-anchor="start" x="40" y="-456.8" font-family="Helvetica,sans-Serif" font-size="9.00">index.test.ts</text>
</a>
</g>
</g>
<!-- packages/util/color/src/fifth&#45;chroma&#45;to&#45;color.ts -->
<g id="node7" class="node">
<title>packages/util/color/src/fifth&#45;chroma&#45;to&#45;color.ts</title>
<g id="a_node7"><a xlink:href="packages/util/color/src/fifth-chroma-to-color.ts" xlink:title="fifth&#45;chroma&#45;to&#45;color.ts">
<path fill="#ddfeff" stroke="black" d="M334.5,-460C334.5,-460 225.5,-460 225.5,-460 222.5,-460 219.5,-457 219.5,-454 219.5,-454 219.5,-448 219.5,-448 219.5,-445 222.5,-442 225.5,-442 225.5,-442 334.5,-442 334.5,-442 337.5,-442 340.5,-445 340.5,-448 340.5,-448 340.5,-454 340.5,-454 340.5,-457 337.5,-460 334.5,-460"/>
<text text-anchor="start" x="227.5" y="-448.8" font-family="Helvetica,sans-Serif" font-size="9.00">fifth&#45;chroma&#45;to&#45;color.ts</text>
</a>
</g>
</g>
<!-- packages/util/color/index.test.ts&#45;&gt;packages/util/color/src/fifth&#45;chroma&#45;to&#45;color.ts -->
<g id="edge3" class="edge">
<title>packages/util/color/index.test.ts&#45;&gt;packages/util/color/src/fifth&#45;chroma&#45;to&#45;color.ts</title>
<path fill="none" stroke="#000000" stroke-width="2" stroke-opacity="0.200000" d="M105.34,-457.61C134.99,-456.49 177.44,-454.88 213.06,-453.53"/>
<polygon fill="#000000" fill-opacity="0.200000" stroke="#000000" stroke-width="2" stroke-opacity="0.200000" points="213.25,-455.63 219.17,-453.3 213.1,-451.43 213.25,-455.63"/>
</g>
<!-- packages/util/color/src/fifth&#45;to&#45;color.ts -->
<g id="node8" class="node">
<title>packages/util/color/src/fifth&#45;to&#45;color.ts</title>
<g id="a_node8"><a xlink:href="packages/util/color/src/fifth-to-color.ts" xlink:title="fifth&#45;to&#45;color.ts">
<path fill="#ddfeff" stroke="black" d="M199,-432C199,-432 128,-432 128,-432 125,-432 122,-429 122,-426 122,-426 122,-420 122,-420 122,-417 125,-414 128,-414 128,-414 199,-414 199,-414 202,-414 205,-417 205,-420 205,-420 205,-426 205,-426 205,-429 202,-432 199,-432"/>
<text text-anchor="start" x="130" y="-420.8" font-family="Helvetica,sans-Serif" font-size="9.00">fifth&#45;to&#45;color.ts</text>
</a>
</g>
</g>
<!-- packages/util/color/index.test.ts&#45;&gt;packages/util/color/src/fifth&#45;to&#45;color.ts -->
<g id="edge4" class="edge">
<title>packages/util/color/index.test.ts&#45;&gt;packages/util/color/src/fifth&#45;to&#45;color.ts</title>
<path fill="none" stroke="#000000" stroke-width="2" stroke-opacity="0.200000" d="M92.97,-449.92C105.19,-445.18 120.26,-439.35 133.24,-434.33"/>
<polygon fill="#000000" fill-opacity="0.200000" stroke="#000000" stroke-width="2" stroke-opacity="0.200000" points="134.2,-436.21 139.04,-432.08 132.69,-432.29 134.2,-436.21"/>
</g>
<!-- packages/util/color/src/hsv2rgb.ts -->
<g id="node9" class="node">
<title>packages/util/color/src/hsv2rgb.ts</title>
<g id="a_node9"><a xlink:href="packages/util/color/src/hsv2rgb.ts" xlink:title="hsv2rgb.ts">
<path fill="#ddfeff" stroke="black" d="M432.5,-430C432.5,-430 379.5,-430 379.5,-430 376.5,-430 373.5,-427 373.5,-424 373.5,-424 373.5,-418 373.5,-418 373.5,-415 376.5,-412 379.5,-412 379.5,-412 432.5,-412 432.5,-412 435.5,-412 438.5,-415 438.5,-418 438.5,-418 438.5,-424 438.5,-424 438.5,-427 435.5,-430 432.5,-430"/>
<text text-anchor="start" x="381.5" y="-418.8" font-family="Helvetica,sans-Serif" font-size="9.00">hsv2rgb.ts</text>
</a>
</g>
</g>
<!-- packages/util/color/index.test.ts&#45;&gt;packages/util/color/src/hsv2rgb.ts -->
<g id="edge5" class="edge">
<title>packages/util/color/index.test.ts&#45;&gt;packages/util/color/src/hsv2rgb.ts</title>
<path fill="none" stroke="#000000" stroke-width="2" stroke-opacity="0.200000" d="M105.26,-454.86C169.48,-447.63 301.49,-432.77 367.15,-425.37"/>
<polygon fill="#000000" fill-opacity="0.200000" stroke="#000000" stroke-width="2" stroke-opacity="0.200000" points="367.56,-427.44 373.29,-424.68 367.09,-423.27 367.56,-427.44"/>
</g>
<!-- packages/util/color/src/note&#45;chroma&#45;to&#45;color.ts -->
<g id="node10" class="node">
<title>packages/util/color/src/note&#45;chroma&#45;to&#45;color.ts</title>
<g id="a_node10"><a xlink:href="packages/util/color/src/note-chroma-to-color.ts" xlink:title="note&#45;chroma&#45;to&#45;color.ts">
<path fill="#ddfeff" stroke="black" d="M335,-430C335,-430 225,-430 225,-430 222,-430 219,-427 219,-424 219,-424 219,-418 219,-418 219,-415 222,-412 225,-412 225,-412 335,-412 335,-412 338,-412 341,-415 341,-418 341,-418 341,-424 341,-424 341,-427 338,-430 335,-430"/>
<text text-anchor="start" x="227" y="-418.8" font-family="Helvetica,sans-Serif" font-size="9.00">note&#45;chroma&#45;to&#45;color.ts</text>
</a>
</g>
</g>
<!-- packages/util/color/index.test.ts&#45;&gt;packages/util/color/src/note&#45;chroma&#45;to&#45;color.ts -->
<g id="edge6" class="edge">
<title>packages/util/color/index.test.ts&#45;&gt;packages/util/color/src/note&#45;chroma&#45;to&#45;color.ts</title>
<path fill="none" stroke="#000000" stroke-width="2" stroke-opacity="0.200000" d="M105.34,-452.38C138.03,-446.51 186.29,-437.84 223.79,-431.1"/>
<polygon fill="#000000" fill-opacity="0.200000" stroke="#000000" stroke-width="2" stroke-opacity="0.200000" points="224.18,-433.16 229.72,-430.03 223.44,-429.03 224.18,-433.16"/>
</g>
<!-- packages/util/color/src/note&#45;to&#45;color.ts -->
<g id="node11" class="node">
<title>packages/util/color/src/note&#45;to&#45;color.ts</title>
<g id="a_node11"><a xlink:href="packages/util/color/src/note-to-color.ts" xlink:title="note&#45;to&#45;color.ts">
<path fill="#ddfeff" stroke="black" d="M200,-402C200,-402 127,-402 127,-402 124,-402 121,-399 121,-396 121,-396 121,-390 121,-390 121,-387 124,-384 127,-384 127,-384 200,-384 200,-384 203,-384 206,-387 206,-390 206,-390 206,-396 206,-396 206,-399 203,-402 200,-402"/>
<text text-anchor="start" x="129" y="-390.8" font-family="Helvetica,sans-Serif" font-size="9.00">note&#45;to&#45;color.ts</text>
</a>
</g>
</g>
<!-- packages/util/color/index.test.ts&#45;&gt;packages/util/color/src/note&#45;to&#45;color.ts -->
<g id="edge7" class="edge">
<title>packages/util/color/index.test.ts&#45;&gt;packages/util/color/src/note&#45;to&#45;color.ts</title>
<path fill="none" stroke="#000000" stroke-width="2" stroke-opacity="0.200000" d="M82.43,-449.82C98.53,-438.4 126.13,-418.81 144.35,-405.88"/>
<polygon fill="#000000" fill-opacity="0.200000" stroke="#000000" stroke-width="2" stroke-opacity="0.200000" points="146,-407.28 149.68,-402.1 143.57,-403.86 146,-407.28"/>
</g>
<!-- packages/util/color/src/rgb&#45;to&#45;string.ts -->
<g id="node12" class="node">
<title>packages/util/color/src/rgb&#45;to&#45;string.ts</title>
<g id="a_node12"><a xlink:href="packages/util/color/src/rgb-to-string.ts" xlink:title="rgb&#45;to&#45;string.ts">
<path fill="#ddfeff" stroke="black" d="M443,-460C443,-460 369,-460 369,-460 366,-460 363,-457 363,-454 363,-454 363,-448 363,-448 363,-445 366,-442 369,-442 369,-442 443,-442 443,-442 446,-442 449,-445 449,-448 449,-448 449,-454 449,-454 449,-457 446,-460 443,-460"/>
<text text-anchor="start" x="371" y="-448.8" font-family="Helvetica,sans-Serif" font-size="9.00">rgb&#45;to&#45;string.ts</text>
</a>
</g>
</g>
<!-- packages/util/color/index.test.ts&#45;&gt;packages/util/color/src/rgb&#45;to&#45;string.ts -->
<g id="edge8" class="edge">
<title>packages/util/color/index.test.ts&#45;&gt;packages/util/color/src/rgb&#45;to&#45;string.ts</title>
<path fill="none" stroke="#000000" stroke-width="2" stroke-opacity="0.200000" d="M105.26,-458.13C166.29,-456.68 288.55,-453.78 356.9,-452.16"/>
<polygon fill="#000000" fill-opacity="0.200000" stroke="#000000" stroke-width="2" stroke-opacity="0.200000" points="356.99,-454.26 362.93,-452.02 356.89,-450.06 356.99,-454.26"/>
</g>
<!-- packages/util/color/src/util.ts -->
<g id="node13" class="node">
<title>packages/util/color/src/util.ts</title>
<g id="a_node13"><a xlink:href="packages/util/color/src/util.ts" xlink:title="util.ts">
<path fill="#ddfeff" stroke="black" d="M568,-445C568,-445 526,-445 526,-445 523,-445 520,-442 520,-439 520,-439 520,-433 520,-433 520,-430 523,-427 526,-427 526,-427 568,-427 568,-427 571,-427 574,-430 574,-433 574,-433 574,-439 574,-439 574,-442 571,-445 568,-445"/>
<text text-anchor="start" x="534" y="-433.8" font-family="Helvetica,sans-Serif" font-size="9.00">util.ts</text>
</a>
</g>
</g>
<!-- packages/util/color/index.test.ts&#45;&gt;packages/util/color/src/util.ts -->
<g id="edge9" class="edge">
<title>packages/util/color/index.test.ts&#45;&gt;packages/util/color/src/util.ts</title>
<path fill="none" stroke="#000000" stroke-width="2" stroke-opacity="0.200000" d="M105.25,-457.23C195.56,-452.89 427.27,-441.76 513.77,-437.6"/>
<polygon fill="#000000" fill-opacity="0.200000" stroke="#000000" stroke-width="2" stroke-opacity="0.200000" points="514.1,-439.68 519.99,-437.3 513.89,-435.49 514.1,-439.68"/>
</g>
<!-- packages/util/color/src/fifth&#45;chroma&#45;to&#45;color.ts&#45;&gt;packages/util/color/src/hsv2rgb.ts -->
<g id="edge11" class="edge">
<title>packages/util/color/src/fifth&#45;chroma&#45;to&#45;color.ts&#45;&gt;packages/util/color/src/hsv2rgb.ts</title>
<path fill="none" stroke="#000000" stroke-width="2" stroke-opacity="0.200000" d="M318.2,-442C333.7,-438.25 351.66,-433.9 367.22,-430.14"/>
<polygon fill="#000000" fill-opacity="0.200000" stroke="#000000" stroke-width="2" stroke-opacity="0.200000" points="367.93,-432.13 373.27,-428.68 366.95,-428.05 367.93,-432.13"/>
</g>
<!-- packages/util/color/src/fifth&#45;chroma&#45;to&#45;color.ts&#45;&gt;packages/util/color/src/rgb&#45;to&#45;string.ts -->
<g id="edge12" class="edge">
<title>packages/util/color/src/fifth&#45;chroma&#45;to&#45;color.ts&#45;&gt;packages/util/color/src/rgb&#45;to&#45;string.ts</title>
<path fill="none" stroke="#000000" stroke-width="2" stroke-opacity="0.200000" d="M340.82,-451C346.16,-451 351.53,-451 356.75,-451"/>
<polygon fill="#000000" fill-opacity="0.200000" stroke="#000000" stroke-width="2" stroke-opacity="0.200000" points="356.81,-453.1 362.81,-451 356.81,-448.9 356.81,-453.1"/>
</g>
<!-- packages/util/color/src/green&#45;hue.ts -->
<g id="node14" class="node">
<title>packages/util/color/src/green&#45;hue.ts</title>
<g id="a_node14"><a xlink:href="packages/util/color/src/green-hue.ts" xlink:title="green&#45;hue.ts">
<path fill="#ddfeff" stroke="black" d="M437,-400C437,-400 375,-400 375,-400 372,-400 369,-397 369,-394 369,-394 369,-388 369,-388 369,-385 372,-382 375,-382 375,-382 437,-382 437,-382 440,-382 443,-385 443,-388 443,-388 443,-394 443,-394 443,-397 440,-400 437,-400"/>
<text text-anchor="start" x="377" y="-388.8" font-family="Helvetica,sans-Serif" font-size="9.00">green&#45;hue.ts</text>
</a>
</g>
</g>
<!-- packages/util/color/src/fifth&#45;chroma&#45;to&#45;color.ts&#45;&gt;packages/util/color/src/green&#45;hue.ts -->
<g id="edge10" class="edge">
<title>packages/util/color/src/fifth&#45;chroma&#45;to&#45;color.ts&#45;&gt;packages/util/color/src/green&#45;hue.ts</title>
<path fill="none" stroke="#000000" stroke-width="2" stroke-opacity="0.200000" d="M299.83,-441.89C321.54,-431.39 357.25,-414.11 380.94,-402.64"/>
<polygon fill="#000000" fill-opacity="0.200000" stroke="#000000" stroke-width="2" stroke-opacity="0.200000" points="381.91,-404.51 386.4,-400 380.08,-400.72 381.91,-404.51"/>
</g>
<!-- packages/util/math/src/basic&#45;function/mod.ts -->
<g id="node15" class="node">
<title>packages/util/math/src/basic&#45;function/mod.ts</title>
<g id="a_node15"><a xlink:href="packages/util/math/src/basic-function/mod.ts" xlink:title="mod.ts">
<path fill="#ddfeff" stroke="black" d="M568,-706C568,-706 526,-706 526,-706 523,-706 520,-703 520,-700 520,-700 520,-694 520,-694 520,-691 523,-688 526,-688 526,-688 568,-688 568,-688 571,-688 574,-691 574,-694 574,-694 574,-700 574,-700 574,-703 571,-706 568,-706"/>
<text text-anchor="start" x="531" y="-694.8" font-family="Helvetica,sans-Serif" font-size="9.00">mod.ts</text>
</a>
</g>
</g>
<!-- packages/util/color/src/fifth&#45;chroma&#45;to&#45;color.ts&#45;&gt;packages/util/math/src/basic&#45;function/mod.ts -->
<g id="edge13" class="edge">
<title>packages/util/color/src/fifth&#45;chroma&#45;to&#45;color.ts&#45;&gt;packages/util/math/src/basic&#45;function/mod.ts</title>
<path fill="none" stroke="#000000" stroke-width="2" stroke-opacity="0.200000" d="M289.82,-460.05C330.3,-497.34 484.34,-639.27 532.51,-683.65"/>
<polygon fill="#000000" fill-opacity="0.200000" stroke="#000000" stroke-width="2" stroke-opacity="0.200000" points="531.26,-685.35 537.09,-687.87 534.1,-682.26 531.26,-685.35"/>
</g>
<!-- packages/util/color/src/fifth&#45;to&#45;color.ts&#45;&gt;packages/tonal&#45;objects/src/note/chroma.ts -->
<g id="edge15" class="edge">
<title>packages/util/color/src/fifth&#45;to&#45;color.ts&#45;&gt;packages/tonal&#45;objects/src/note/chroma.ts</title>
<path fill="none" stroke="#000000" stroke-width="2" stroke-opacity="0.200000" d="M172.42,-413.81C209.19,-375.9 349.15,-231.61 392.87,-186.54"/>
<polygon fill="#000000" fill-opacity="0.200000" stroke="#000000" stroke-width="2" stroke-opacity="0.200000" points="394.59,-187.78 397.26,-182.01 391.57,-184.86 394.59,-187.78"/>
</g>
<!-- packages/util/color/src/fifth&#45;to&#45;color.ts&#45;&gt;packages/util/color/src/fifth&#45;chroma&#45;to&#45;color.ts -->
<g id="edge14" class="edge">
<title>packages/util/color/src/fifth&#45;to&#45;color.ts&#45;&gt;packages/util/color/src/fifth&#45;chroma&#45;to&#45;color.ts</title>
<path fill="none" stroke="#000000" stroke-width="2" stroke-opacity="0.200000" d="M201.36,-432.01C212.38,-434.71 224.56,-437.69 235.95,-440.47"/>
<polygon fill="#000000" fill-opacity="0.200000" stroke="#000000" stroke-width="2" stroke-opacity="0.200000" points="235.49,-442.52 241.82,-441.91 236.49,-438.44 235.49,-442.52"/>
</g>
<!-- packages/util/color/src/hsv2rgb.ts&#45;&gt;packages/util/color/src/util.ts -->
<g id="edge16" class="edge">
<title>packages/util/color/src/hsv2rgb.ts&#45;&gt;packages/util/color/src/util.ts</title>
<path fill="none" stroke="#000000" stroke-width="2" stroke-opacity="0.200000" d="M438.54,-424.4C460.95,-426.82 490.94,-430.06 513.55,-432.5"/>
<polygon fill="#000000" fill-opacity="0.200000" stroke="#000000" stroke-width="2" stroke-opacity="0.200000" points="513.52,-434.61 519.71,-433.16 513.97,-430.43 513.52,-434.61"/>
</g>
<!-- packages/util/color/src/hsv2rgb.ts&#45;&gt;packages/util/math/src/basic&#45;function/mod.ts -->
<g id="edge17" class="edge">
<title>packages/util/color/src/hsv2rgb.ts&#45;&gt;packages/util/math/src/basic&#45;function/mod.ts</title>
<path fill="none" stroke="#000000" stroke-width="2" stroke-opacity="0.200000" d="M411.62,-430.18C431.95,-470.54 513.44,-632.36 538.58,-682.27"/>
<polygon fill="#000000" fill-opacity="0.200000" stroke="#000000" stroke-width="2" stroke-opacity="0.200000" points="536.78,-683.37 541.36,-687.78 540.53,-681.48 536.78,-683.37"/>
</g>
<!-- packages/util/stdlib/src/assertion/assertion.ts -->
<g id="node16" class="node">
<title>packages/util/stdlib/src/assertion/assertion.ts</title>
<g id="a_node16"><a xlink:href="packages/util/stdlib/src/assertion/assertion.ts" xlink:title="assertion.ts">
<path fill="#ddfeff" stroke="black" d="M575,-578C575,-578 519,-578 519,-578 516,-578 513,-575 513,-572 513,-572 513,-566 513,-566 513,-563 516,-560 519,-560 519,-560 575,-560 575,-560 578,-560 581,-563 581,-566 581,-566 581,-572 581,-572 581,-575 578,-578 575,-578"/>
<text text-anchor="start" x="521" y="-566.8" font-family="Helvetica,sans-Serif" font-size="9.00">assertion.ts</text>
</a>
</g>
</g>
<!-- packages/util/color/src/hsv2rgb.ts&#45;&gt;packages/util/stdlib/src/assertion/assertion.ts -->
<g id="edge18" class="edge">
<title>packages/util/color/src/hsv2rgb.ts&#45;&gt;packages/util/stdlib/src/assertion/assertion.ts</title>
<path fill="none" stroke="#000000" stroke-width="2" stroke-opacity="0.200000" d="M415.7,-430.26C439.39,-455.49 505.19,-525.55 533.16,-555.33"/>
<polygon fill="#000000" fill-opacity="0.200000" stroke="#000000" stroke-width="2" stroke-opacity="0.200000" points="531.67,-556.81 537.31,-559.75 534.73,-553.93 531.67,-556.81"/>
</g>
<!-- packages/util/color/src/note&#45;chroma&#45;to&#45;color.ts&#45;&gt;packages/util/color/src/hsv2rgb.ts -->
<g id="edge20" class="edge">
<title>packages/util/color/src/note&#45;chroma&#45;to&#45;color.ts&#45;&gt;packages/util/color/src/hsv2rgb.ts</title>
<path fill="none" stroke="#000000" stroke-width="2" stroke-opacity="0.200000" d="M341.18,-421C350.03,-421 358.94,-421 367.16,-421"/>
<polygon fill="#000000" fill-opacity="0.200000" stroke="#000000" stroke-width="2" stroke-opacity="0.200000" points="367.31,-423.1 373.31,-421 367.31,-418.9 367.31,-423.1"/>
</g>
<!-- packages/util/color/src/note&#45;chroma&#45;to&#45;color.ts&#45;&gt;packages/util/color/src/rgb&#45;to&#45;string.ts -->
<g id="edge21" class="edge">
<title>packages/util/color/src/note&#45;chroma&#45;to&#45;color.ts&#45;&gt;packages/util/color/src/rgb&#45;to&#45;string.ts</title>
<path fill="none" stroke="#000000" stroke-width="2" stroke-opacity="0.200000" d="M318.2,-430C331.81,-433.29 347.33,-437.05 361.44,-440.46"/>
<polygon fill="#000000" fill-opacity="0.200000" stroke="#000000" stroke-width="2" stroke-opacity="0.200000" points="361.07,-442.53 367.39,-441.9 362.06,-438.45 361.07,-442.53"/>
</g>
<!-- packages/util/color/src/note&#45;chroma&#45;to&#45;color.ts&#45;&gt;packages/util/color/src/green&#45;hue.ts -->
<g id="edge19" class="edge">
<title>packages/util/color/src/note&#45;chroma&#45;to&#45;color.ts&#45;&gt;packages/util/color/src/green&#45;hue.ts</title>
<path fill="none" stroke="#000000" stroke-width="2" stroke-opacity="0.200000" d="M318.2,-412C332.19,-408.62 348.18,-404.75 362.6,-401.26"/>
<polygon fill="#000000" fill-opacity="0.200000" stroke="#000000" stroke-width="2" stroke-opacity="0.200000" points="363.34,-403.24 368.68,-399.79 362.35,-399.16 363.34,-403.24"/>
</g>
<!-- packages/util/color/src/note&#45;to&#45;color.ts&#45;&gt;packages/tonal&#45;objects/src/note/chroma.ts -->
<g id="edge23" class="edge">
<title>packages/util/color/src/note&#45;to&#45;color.ts&#45;&gt;packages/tonal&#45;objects/src/note/chroma.ts</title>
<path fill="none" stroke="#000000" stroke-width="2" stroke-opacity="0.200000" d="M173.61,-383.83C211.67,-349.3 346.38,-227.09 391.3,-186.33"/>
<polygon fill="#000000" fill-opacity="0.200000" stroke="#000000" stroke-width="2" stroke-opacity="0.200000" points="392.81,-187.8 395.85,-182.21 389.99,-184.69 392.81,-187.8"/>
</g>
<!-- packages/util/color/src/note&#45;to&#45;color.ts&#45;&gt;packages/util/color/src/note&#45;chroma&#45;to&#45;color.ts -->
<g id="edge22" class="edge">
<title>packages/util/color/src/note&#45;to&#45;color.ts&#45;&gt;packages/util/color/src/note&#45;chroma&#45;to&#45;color.ts</title>
<path fill="none" stroke="#000000" stroke-width="2" stroke-opacity="0.200000" d="M201.36,-402.01C212.38,-404.71 224.56,-407.69 235.95,-410.47"/>
<polygon fill="#000000" fill-opacity="0.200000" stroke="#000000" stroke-width="2" stroke-opacity="0.200000" points="235.49,-412.52 241.82,-411.91 236.49,-408.44 235.49,-412.52"/>
</g>
<!-- packages/util/color/src/third&#45;to&#45;color.ts -->
<g id="node17" class="node">
<title>packages/util/color/src/third&#45;to&#45;color.ts</title>
<g id="a_node17"><a xlink:href="packages/util/color/src/third-to-color.ts" xlink:title="third&#45;to&#45;color.ts">
<path fill="#ddfeff" stroke="black" d="M317,-400C317,-400 243,-400 243,-400 240,-400 237,-397 237,-394 237,-394 237,-388 237,-388 237,-385 240,-382 243,-382 243,-382 317,-382 317,-382 320,-382 323,-385 323,-388 323,-388 323,-394 323,-394 323,-397 320,-400 317,-400"/>
<text text-anchor="start" x="245" y="-388.8" font-family="Helvetica,sans-Serif" font-size="9.00">third&#45;to&#45;color.ts</text>
</a>
</g>
</g>
<!-- packages/util/color/src/third&#45;to&#45;color.ts&#45;&gt;packages/tonal&#45;objects/src/interval/distance.ts -->
<g id="edge28" class="edge">
<title>packages/util/color/src/third&#45;to&#45;color.ts&#45;&gt;packages/tonal&#45;objects/src/interval/distance.ts</title>
<path fill="none" stroke="#000000" stroke-width="2" stroke-opacity="0.200000" d="M289.92,-381.79C311.46,-359.56 366.4,-302.84 391.78,-276.64"/>
<polygon fill="#000000" fill-opacity="0.200000" stroke="#000000" stroke-width="2" stroke-opacity="0.200000" points="393.5,-277.89 396.16,-272.12 390.48,-274.97 393.5,-277.89"/>
</g>
<!-- packages/util/color/src/third&#45;to&#45;color.ts&#45;&gt;packages/tonal&#45;objects/src/interval/get.ts -->
<g id="edge29" class="edge">
<title>packages/util/color/src/third&#45;to&#45;color.ts&#45;&gt;packages/tonal&#45;objects/src/interval/get.ts</title>
<path fill="none" stroke="#000000" stroke-width="2" stroke-opacity="0.200000" d="M288.39,-381.59C309.28,-354.96 368.93,-278.96 393.85,-247.21"/>
<polygon fill="#000000" fill-opacity="0.200000" stroke="#000000" stroke-width="2" stroke-opacity="0.200000" points="395.76,-248.18 397.81,-242.16 392.45,-245.59 395.76,-248.18"/>
</g>
<!-- packages/util/color/src/third&#45;to&#45;color.ts&#45;&gt;packages/tonal&#45;objects/src/note/chroma.ts -->
<g id="edge30" class="edge">
<title>packages/util/color/src/third&#45;to&#45;color.ts&#45;&gt;packages/tonal&#45;objects/src/note/chroma.ts</title>
<path fill="none" stroke="#000000" stroke-width="2" stroke-opacity="0.200000" d="M286.17,-381.91C305.43,-348.05 373.13,-229.04 396.77,-187.46"/>
<polygon fill="#000000" fill-opacity="0.200000" stroke="#000000" stroke-width="2" stroke-opacity="0.200000" points="398.67,-188.38 399.81,-182.13 395.02,-186.31 398.67,-188.38"/>
</g>
<!-- packages/util/color/src/third&#45;to&#45;color.ts&#45;&gt;packages/util/color/src/hsv2rgb.ts -->
<g id="edge25" class="edge">
<title>packages/util/color/src/third&#45;to&#45;color.ts&#45;&gt;packages/util/color/src/hsv2rgb.ts</title>
<path fill="none" stroke="#000000" stroke-width="2" stroke-opacity="0.200000" d="M318.2,-400C333.7,-403.75 351.66,-408.1 367.22,-411.86"/>
<polygon fill="#000000" fill-opacity="0.200000" stroke="#000000" stroke-width="2" stroke-opacity="0.200000" points="366.95,-413.95 373.27,-413.32 367.93,-409.87 366.95,-413.95"/>
</g>
<!-- packages/util/color/src/third&#45;to&#45;color.ts&#45;&gt;packages/util/color/src/rgb&#45;to&#45;string.ts -->
<g id="edge26" class="edge">
<title>packages/util/color/src/third&#45;to&#45;color.ts&#45;&gt;packages/util/color/src/rgb&#45;to&#45;string.ts</title>
<path fill="none" stroke="#000000" stroke-width="2" stroke-opacity="0.200000" d="M299.83,-400.11C321.54,-410.61 357.25,-427.89 380.94,-439.36"/>
<polygon fill="#000000" fill-opacity="0.200000" stroke="#000000" stroke-width="2" stroke-opacity="0.200000" points="380.08,-441.28 386.4,-442 381.91,-437.49 380.08,-441.28"/>
</g>
<!-- packages/util/color/src/third&#45;to&#45;color.ts&#45;&gt;packages/util/color/src/green&#45;hue.ts -->
<g id="edge24" class="edge">
<title>packages/util/color/src/third&#45;to&#45;color.ts&#45;&gt;packages/util/color/src/green&#45;hue.ts</title>
<path fill="none" stroke="#000000" stroke-width="2" stroke-opacity="0.200000" d="M323.33,-391C335.99,-391 349.87,-391 362.54,-391"/>
<polygon fill="#000000" fill-opacity="0.200000" stroke="#000000" stroke-width="2" stroke-opacity="0.200000" points="362.65,-393.1 368.65,-391 362.65,-388.9 362.65,-393.1"/>
</g>
<!-- packages/util/color/src/third&#45;to&#45;color.ts&#45;&gt;packages/util/math/src/basic&#45;function/mod.ts -->
<g id="edge27" class="edge">
<title>packages/util/color/src/third&#45;to&#45;color.ts&#45;&gt;packages/util/math/src/basic&#45;function/mod.ts</title>
<path fill="none" stroke="#000000" stroke-width="2" stroke-opacity="0.200000" d="M287.99,-400.16C326.07,-443.8 489.15,-630.7 534.98,-683.22"/>
<polygon fill="#000000" fill-opacity="0.200000" stroke="#000000" stroke-width="2" stroke-opacity="0.200000" points="533.51,-684.74 539.04,-687.88 536.68,-681.98 533.51,-684.74"/>
</g>
</g>
</svg>
