<?xml version="1.0" encoding="UTF-8" standalone="no"?>
<!DOCTYPE svg PUBLIC "-//W3C//DTD SVG 1.1//EN"
 "http://www.w3.org/Graphics/SVG/1.1/DTD/svg11.dtd">
<!-- Generated by graphviz version 2.43.0 (0)
 -->
<!-- Title: dependency&#45;cruiser output Pages: 1 -->
<svg width="253pt" height="208pt"
 viewBox="0.00 0.00 253.45 208.27" xmlns="http://www.w3.org/2000/svg" xmlns:xlink="http://www.w3.org/1999/xlink">
<g id="graph0" class="graph" transform="scale(1 1) rotate(0) translate(4 204.27)">
<title>dependency&#45;cruiser output</title>
<polygon fill="white" stroke="transparent" points="-4,4 -4,-204.27 249.45,-204.27 249.45,4 -4,4"/>
<g id="clust1" class="cluster">
<title>cluster_packages</title>
<path fill="#ffffff" stroke="black" stroke-width="2" d="M12,0C12,0 233.45,0 233.45,0 239.45,0 245.45,-6 245.45,-12 245.45,-12 245.45,-188.27 245.45,-188.27 245.45,-194.27 239.45,-200.27 233.45,-200.27 233.45,-200.27 12,-200.27 12,-200.27 6,-200.27 0,-194.27 0,-188.27 0,-188.27 0,-12 0,-12 0,-6 6,0 12,0"/>
<text text-anchor="middle" x="122.72" y="-189.07" font-family="Helvetica,sans-Serif" font-weight="bold" font-size="9.00">packages</text>
</g>
<!-- packages/tonal&#45;objects/dist/index.js -->
<g id="node1" class="node">
<title>packages/tonal&#45;objects/dist/index.js</title>
<g id="a_node1"><a xlink:href="packages/tonal-objects/dist/index.js" xlink:title="index.js">
<polygon fill="#ffffcc" stroke="black" points="54,-89.08 52.5,-91.08 42,-91.08 40.5,-89.08 0,-89.08 0,-71.08 54,-71.08 54,-89.08"/>
<text text-anchor="start" x="9.5" y="-77.88" font-family="Helvetica,sans-Serif" font-size="9.00">index.js</text>
</a>
</g>
</g>
<!-- packages/util/color/dist/index.js -->
<g id="node2" class="node">
<title>packages/util/color/dist/index.js</title>
<g id="a_node2"><a xlink:href="packages/util/color/dist/index.js" xlink:title="index.js">
<polygon fill="#ffffcc" stroke="black" points="245.45,-200.27 243.95,-202.27 233.45,-202.27 231.95,-200.27 191.45,-200.27 191.45,-182.27 245.45,-182.27 245.45,-200.27"/>
<text text-anchor="start" x="200.95" y="-189.07" font-family="Helvetica,sans-Serif" font-size="9.00">index.js</text>
</a>
</g>
</g>
<!-- packages/util/color/index.test.ts -->
<g id="node3" class="node">
<title>packages/util/color/index.test.ts</title>
<g id="a_node3"><a xlink:href="packages/util/color/index.test.ts" xlink:title="index.test.ts">
<path fill="#ddfeff" stroke="black" d="M208.79,-173.22C208.79,-173.22 147.79,-173.22 147.79,-173.22 144.79,-173.22 141.79,-170.22 141.79,-167.22 141.79,-167.22 141.79,-161.22 141.79,-161.22 141.79,-158.22 144.79,-155.22 147.79,-155.22 147.79,-155.22 208.79,-155.22 208.79,-155.22 211.79,-155.22 214.79,-158.22 214.79,-161.22 214.79,-161.22 214.79,-167.22 214.79,-167.22 214.79,-170.22 211.79,-173.22 208.79,-173.22"/>
<text text-anchor="start" x="149.79" y="-162.02" font-family="Helvetica,sans-Serif" font-size="9.00">index.test.ts</text>
</a>
</g>
</g>
<!-- packages/util/color/index.test.ts&#45;&gt;packages/util/color/dist/index.js -->
<g id="edge1" class="edge">
<title>packages/util/color/index.test.ts&#45;&gt;packages/util/color/dist/index.js</title>
<path fill="none" stroke="#000000" stroke-width="2" stroke-opacity="0.200000" d="M191.88,-173.38C194.37,-175.05 197,-176.82 199.61,-178.58"/>
<polygon fill="#000000" fill-opacity="0.200000" stroke="#000000" stroke-width="2" stroke-opacity="0.200000" points="198.71,-180.51 204.86,-182.12 201.06,-177.03 198.71,-180.51"/>
</g>
<!-- packages/util/color/src/util.ts -->
<g id="node4" class="node">
<title>packages/util/color/src/util.ts</title>
<g id="a_node4"><a xlink:href="packages/util/color/src/util.ts" xlink:title="util.ts">
<path fill="#ddfeff" stroke="black" d="M163.51,-140.12C163.51,-140.12 121.51,-140.12 121.51,-140.12 118.51,-140.12 115.51,-137.12 115.51,-134.12 115.51,-134.12 115.51,-128.12 115.51,-128.12 115.51,-125.12 118.51,-122.12 121.51,-122.12 121.51,-122.12 163.51,-122.12 163.51,-122.12 166.51,-122.12 169.51,-125.12 169.51,-128.12 169.51,-128.12 169.51,-134.12 169.51,-134.12 169.51,-137.12 166.51,-140.12 163.51,-140.12"/>
<text text-anchor="start" x="129.51" y="-128.92" font-family="Helvetica,sans-Serif" font-size="9.00">util.ts</text>
</a>
</g>
</g>
<!-- packages/util/color/index.test.ts&#45;&gt;packages/util/color/src/util.ts -->
<g id="edge2" class="edge">
<title>packages/util/color/index.test.ts&#45;&gt;packages/util/color/src/util.ts</title>
<path fill="none" stroke="#000000" stroke-width="2" stroke-opacity="0.200000" d="M168.51,-155.17C164.94,-151.87 160.83,-148.06 156.94,-144.47"/>
<polygon fill="#000000" fill-opacity="0.200000" stroke="#000000" stroke-width="2" stroke-opacity="0.200000" points="158.36,-142.92 152.53,-140.38 155.5,-146 158.36,-142.92"/>
</g>
<!-- packages/util/color/index.ts -->
<g id="node5" class="node">
<title>packages/util/color/index.ts</title>
<g id="a_node5"><a xlink:href="packages/util/color/index.ts" xlink:title="index.ts">
<path fill="#ddfeff" stroke="black" d="M96.17,-63.08C96.17,-63.08 54.17,-63.08 54.17,-63.08 51.17,-63.08 48.17,-60.08 48.17,-57.08 48.17,-57.08 48.17,-51.08 48.17,-51.08 48.17,-48.08 51.17,-45.08 54.17,-45.08 54.17,-45.08 96.17,-45.08 96.17,-45.08 99.17,-45.08 102.17,-48.08 102.17,-51.08 102.17,-51.08 102.17,-57.08 102.17,-57.08 102.17,-60.08 99.17,-63.08 96.17,-63.08"/>
<text text-anchor="start" x="56.67" y="-51.88" font-family="Helvetica,sans-Serif" font-size="9.00">index.ts</text>
</a>
</g>
</g>
<!-- packages/util/color/index.ts&#45;&gt;packages/tonal&#45;objects/dist/index.js -->
<g id="edge6" class="edge">
<title>packages/util/color/index.ts&#45;&gt;packages/tonal&#45;objects/dist/index.js</title>
<path fill="none" stroke="#000000" stroke-width="2" stroke-opacity="0.200000" d="M58.33,-63.17C55.41,-64.75 52.34,-66.41 49.3,-68.04"/>
<polygon fill="#000000" fill-opacity="0.200000" stroke="#000000" stroke-width="2" stroke-opacity="0.200000" points="48.2,-66.25 43.92,-70.95 50.2,-69.95 48.2,-66.25"/>
</g>
<!-- packages/util/color/src/index.ts -->
<g id="node6" class="node">
<title>packages/util/color/src/index.ts</title>
<g id="a_node6"><a xlink:href="packages/util/color/src/index.ts" xlink:title="index.ts">
<path fill="#ddfeff" stroke="black" d="M131.16,-102.47C131.16,-102.47 89.16,-102.47 89.16,-102.47 86.16,-102.47 83.16,-99.47 83.16,-96.47 83.16,-96.47 83.16,-90.47 83.16,-90.47 83.16,-87.47 86.16,-84.47 89.16,-84.47 89.16,-84.47 131.16,-84.47 131.16,-84.47 134.16,-84.47 137.16,-87.47 137.16,-90.47 137.16,-90.47 137.16,-96.47 137.16,-96.47 137.16,-99.47 134.16,-102.47 131.16,-102.47"/>
<text text-anchor="start" x="91.66" y="-91.27" font-family="Helvetica,sans-Serif" font-size="9.00">index.ts</text>
</a>
</g>
</g>
<!-- packages/util/color/index.ts&#45;&gt;packages/util/color/src/index.ts -->
<g id="edge3" class="edge">
<title>packages/util/color/index.ts&#45;&gt;packages/util/color/src/index.ts</title>
<path fill="none" stroke="#000000" stroke-width="2" stroke-opacity="0.200000" d="M83.29,-63.21C87.62,-68.09 93.03,-74.18 97.86,-79.62"/>
<polygon fill="#000000" fill-opacity="0.200000" stroke="#000000" stroke-width="2" stroke-opacity="0.200000" points="96.53,-81.29 102.09,-84.38 99.67,-78.5 96.53,-81.29"/>
</g>
<!-- packages/util/math/dist/index.js -->
<g id="node7" class="node">
<title>packages/util/math/dist/index.js</title>
<g id="a_node7"><a xlink:href="packages/util/math/dist/index.js" xlink:title="index.js">
<polygon fill="#ffffcc" stroke="black" points="67.47,-23.99 65.97,-25.99 55.47,-25.99 53.97,-23.99 13.47,-23.99 13.47,-5.99 67.47,-5.99 67.47,-23.99"/>
<text text-anchor="start" x="22.97" y="-12.79" font-family="Helvetica,sans-Serif" font-size="9.00">index.js</text>
</a>
</g>
</g>
<!-- packages/util/color/index.ts&#45;&gt;packages/util/math/dist/index.js -->
<g id="edge4" class="edge">
<title>packages/util/color/index.ts&#45;&gt;packages/util/math/dist/index.js</title>
<path fill="none" stroke="#000000" stroke-width="2" stroke-opacity="0.200000" d="M67.12,-45.01C62.83,-40.18 57.46,-34.13 52.67,-28.73"/>
<polygon fill="#000000" fill-opacity="0.200000" stroke="#000000" stroke-width="2" stroke-opacity="0.200000" points="54.03,-27.1 48.47,-24.01 50.89,-29.89 54.03,-27.1"/>
</g>
<!-- packages/util/stdlib/dist/index.js -->
<g id="node8" class="node">
<title>packages/util/stdlib/dist/index.js</title>
<g id="a_node8"><a xlink:href="packages/util/stdlib/dist/index.js" xlink:title="index.js">
<polygon fill="#ffffcc" stroke="black" points="133.21,-18 131.71,-20 121.21,-20 119.71,-18 79.21,-18 79.21,0 133.21,0 133.21,-18"/>
<text text-anchor="start" x="88.71" y="-6.8" font-family="Helvetica,sans-Serif" font-size="9.00">index.js</text>
</a>
</g>
</g>
<!-- packages/util/color/index.ts&#45;&gt;packages/util/stdlib/dist/index.js -->
<g id="edge5" class="edge">
<title>packages/util/color/index.ts&#45;&gt;packages/util/stdlib/dist/index.js</title>
<path fill="none" stroke="#000000" stroke-width="2" stroke-opacity="0.200000" d="M81.45,-44.96C85.74,-38.72 91.52,-30.34 96.41,-23.24"/>
<polygon fill="#000000" fill-opacity="0.200000" stroke="#000000" stroke-width="2" stroke-opacity="0.200000" points="98.26,-24.24 99.94,-18.11 94.8,-21.86 98.26,-24.24"/>
</g>
<!-- packages/util/color/src/index.ts&#45;&gt;packages/util/color/src/util.ts -->
<g id="edge7" class="edge">
<title>packages/util/color/src/index.ts&#45;&gt;packages/util/color/src/util.ts</title>
<path fill="none" stroke="#000000" stroke-width="2" stroke-opacity="0.200000" d="M117.99,-102.58C121.81,-107.02 126.47,-112.45 130.71,-117.38"/>
<polygon fill="#000000" fill-opacity="0.200000" stroke="#000000" stroke-width="2" stroke-opacity="0.200000" points="133.16,-123.46 130.84,-117.54 136.35,-120.72 133.16,-123.46"/>
</g>
</g>
</svg>
