<?xml version="1.0" encoding="UTF-8" standalone="no"?>
<!DOCTYPE svg PUBLIC "-//W3C//DTD SVG 1.1//EN"
 "http://www.w3.org/Graphics/SVG/1.1/DTD/svg11.dtd">
<!-- Generated by graphviz version 2.43.0 (0)
 -->
<!-- Title: dependency&#45;cruiser output Pages: 1 -->
<svg width="365pt" height="588pt"
 viewBox="0.00 0.00 365.00 588.00" xmlns="http://www.w3.org/2000/svg" xmlns:xlink="http://www.w3.org/1999/xlink">
<g id="graph0" class="graph" transform="scale(1 1) rotate(0) translate(4 584)">
<title>dependency&#45;cruiser output</title>
<polygon fill="white" stroke="transparent" points="-4,4 -4,-584 361,-584 361,4 -4,4"/>
<g id="clust1" class="cluster">
<title>cluster_packages</title>
<path fill="#ffffff" stroke="black" stroke-width="2" d="M20,-8C20,-8 337,-8 337,-8 343,-8 349,-14 349,-20 349,-20 349,-560 349,-560 349,-566 343,-572 337,-572 337,-572 20,-572 20,-572 14,-572 8,-566 8,-560 8,-560 8,-20 8,-20 8,-14 14,-8 20,-8"/>
<text text-anchor="middle" x="178.5" y="-560.8" font-family="Helvetica,sans-Serif" font-weight="bold" font-size="9.00">packages</text>
</g>
<g id="clust2" class="cluster">
<title>cluster_packages/tonal&#45;objects</title>
<path fill="#ffffff" stroke="black" stroke-width="2" d="M139,-460C139,-460 201,-460 201,-460 207,-460 213,-466 213,-472 213,-472 213,-534 213,-534 213,-540 207,-546 201,-546 201,-546 139,-546 139,-546 133,-546 127,-540 127,-534 127,-534 127,-472 127,-472 127,-466 133,-460 139,-460"/>
<text text-anchor="middle" x="170" y="-534.8" font-family="Helvetica,sans-Serif" font-weight="bold" font-size="9.00">tonal&#45;objects</text>
</g>
<g id="clust3" class="cluster">
<title>cluster_packages/tonal&#45;objects/dist</title>
<path fill="#ffffff" stroke="black" stroke-width="2" d="M147,-468C147,-468 193,-468 193,-468 199,-468 205,-474 205,-480 205,-480 205,-508 205,-508 205,-514 199,-520 193,-520 193,-520 147,-520 147,-520 141,-520 135,-514 135,-508 135,-508 135,-480 135,-480 135,-474 141,-468 147,-468"/>
<text text-anchor="middle" x="170" y="-508.8" font-family="Helvetica,sans-Serif" font-weight="bold" font-size="9.00">dist</text>
</g>
<g id="clust4" class="cluster">
<title>cluster_packages/util</title>
<path fill="#ffffff" stroke="black" stroke-width="2" d="M28,-16C28,-16 329,-16 329,-16 335,-16 341,-22 341,-28 341,-28 341,-440 341,-440 341,-446 335,-452 329,-452 329,-452 28,-452 28,-452 22,-452 16,-446 16,-440 16,-440 16,-28 16,-28 16,-22 22,-16 28,-16"/>
<text text-anchor="middle" x="178.5" y="-440.8" font-family="Helvetica,sans-Serif" font-weight="bold" font-size="9.00">util</text>
</g>
<g id="clust5" class="cluster">
<title>cluster_packages/util/color</title>
<path fill="#ffffff" stroke="black" stroke-width="2" d="M36,-24C36,-24 321,-24 321,-24 327,-24 333,-30 333,-36 333,-36 333,-158 333,-158 333,-164 327,-170 321,-170 321,-170 36,-170 36,-170 30,-170 24,-164 24,-158 24,-158 24,-36 24,-36 24,-30 30,-24 36,-24"/>
<text text-anchor="middle" x="178.5" y="-158.8" font-family="Helvetica,sans-Serif" font-weight="bold" font-size="9.00">color</text>
</g>
<g id="clust6" class="cluster">
<title>cluster_packages/util/color/dist</title>
<path fill="#ffffff" stroke="black" stroke-width="2" d="M267,-92C267,-92 313,-92 313,-92 319,-92 325,-98 325,-104 325,-104 325,-132 325,-132 325,-138 319,-144 313,-144 313,-144 267,-144 267,-144 261,-144 255,-138 255,-132 255,-132 255,-104 255,-104 255,-98 261,-92 267,-92"/>
<text text-anchor="middle" x="290" y="-132.8" font-family="Helvetica,sans-Serif" font-weight="bold" font-size="9.00">dist</text>
</g>
<g id="clust7" class="cluster">
<title>cluster_packages/util/color/src</title>
<path fill="#ffffff" stroke="black" stroke-width="2" d="M147,-32C147,-32 313,-32 313,-32 319,-32 325,-38 325,-44 325,-44 325,-72 325,-72 325,-78 319,-84 313,-84 313,-84 147,-84 147,-84 141,-84 135,-78 135,-72 135,-72 135,-44 135,-44 135,-38 141,-32 147,-32"/>
<text text-anchor="middle" x="230" y="-72.8" font-family="Helvetica,sans-Serif" font-weight="bold" font-size="9.00">src</text>
</g>
<g id="clust8" class="cluster">
<title>cluster_packages/util/math</title>
<path fill="#ffffff" stroke="black" stroke-width="2" d="M122,-178C122,-178 219,-178 219,-178 225,-178 231,-184 231,-190 231,-190 231,-286 231,-286 231,-292 225,-298 219,-298 219,-298 122,-298 122,-298 116,-298 110,-292 110,-286 110,-286 110,-190 110,-190 110,-184 116,-178 122,-178"/>
<text text-anchor="middle" x="170.5" y="-286.8" font-family="Helvetica,sans-Serif" font-weight="bold" font-size="9.00">math</text>
</g>
<g id="clust9" class="cluster">
<title>cluster_packages/util/math/src</title>
<path fill="#ffffff" stroke="black" stroke-width="2" d="M130,-186C130,-186 211,-186 211,-186 217,-186 223,-192 223,-198 223,-198 223,-260 223,-260 223,-266 217,-272 211,-272 211,-272 130,-272 130,-272 124,-272 118,-266 118,-260 118,-260 118,-198 118,-198 118,-192 124,-186 130,-186"/>
<text text-anchor="middle" x="170.5" y="-260.8" font-family="Helvetica,sans-Serif" font-weight="bold" font-size="9.00">src</text>
</g>
<g id="clust10" class="cluster">
<title>cluster_packages/util/math/src/basic&#45;function</title>
<path fill="#ffffff" stroke="black" stroke-width="2" d="M138,-194C138,-194 203,-194 203,-194 209,-194 215,-200 215,-206 215,-206 215,-234 215,-234 215,-240 209,-246 203,-246 203,-246 138,-246 138,-246 132,-246 126,-240 126,-234 126,-234 126,-206 126,-206 126,-200 132,-194 138,-194"/>
<text text-anchor="middle" x="170.5" y="-234.8" font-family="Helvetica,sans-Serif" font-weight="bold" font-size="9.00">basic&#45;function</text>
</g>
<g id="clust11" class="cluster">
<title>cluster_packages/util/stdlib</title>
<path fill="#ffffff" stroke="black" stroke-width="2" d="M124,-306C124,-306 216,-306 216,-306 222,-306 228,-312 228,-318 228,-318 228,-414 228,-414 228,-420 222,-426 216,-426 216,-426 124,-426 124,-426 118,-426 112,-420 112,-414 112,-414 112,-318 112,-318 112,-312 118,-306 124,-306"/>
<text text-anchor="middle" x="170" y="-414.8" font-family="Helvetica,sans-Serif" font-weight="bold" font-size="9.00">stdlib</text>
</g>
<g id="clust12" class="cluster">
<title>cluster_packages/util/stdlib/src</title>
<path fill="#ffffff" stroke="black" stroke-width="2" d="M132,-314C132,-314 208,-314 208,-314 214,-314 220,-320 220,-326 220,-326 220,-388 220,-388 220,-394 214,-400 208,-400 208,-400 132,-400 132,-400 126,-400 120,-394 120,-388 120,-388 120,-326 120,-326 120,-320 126,-314 132,-314"/>
<text text-anchor="middle" x="170" y="-388.8" font-family="Helvetica,sans-Serif" font-weight="bold" font-size="9.00">src</text>
</g>
<g id="clust13" class="cluster">
<title>cluster_packages/util/stdlib/src/assertion</title>
<path fill="#ffffff" stroke="black" stroke-width="2" d="M140,-322C140,-322 200,-322 200,-322 206,-322 212,-328 212,-334 212,-334 212,-362 212,-362 212,-368 206,-374 200,-374 200,-374 140,-374 140,-374 134,-374 128,-368 128,-362 128,-362 128,-334 128,-334 128,-328 134,-322 140,-322"/>
<text text-anchor="middle" x="170" y="-362.8" font-family="Helvetica,sans-Serif" font-weight="bold" font-size="9.00">assertion</text>
</g>
<!-- packages/tonal&#45;objects/dist/index.js -->
<g id="node1" class="node">
<title>packages/tonal&#45;objects/dist/index.js</title>
<g id="a_node1"><a xlink:href="packages/tonal-objects/dist/index.js" xlink:title="index.js">
<polygon fill="#ffffcc" stroke="black" points="197,-494 195.5,-496 185,-496 183.5,-494 143,-494 143,-476 197,-476 197,-494"/>
<text text-anchor="start" x="152.5" y="-482.8" font-family="Helvetica,sans-Serif" font-size="9.00">index.js</text>
</a>
</g>
</g>
<!-- packages/util/color/dist/index.js -->
<g id="node2" class="node">
<title>packages/util/color/dist/index.js</title>
<g id="a_node2"><a xlink:href="packages/util/color/dist/index.js" xlink:title="index.js">
<polygon fill="#ffffcc" stroke="black" points="317,-118 315.5,-120 305,-120 303.5,-118 263,-118 263,-100 317,-100 317,-118"/>
<text text-anchor="start" x="272.5" y="-106.8" font-family="Helvetica,sans-Serif" font-size="9.00">index.js</text>
</a>
</g>
</g>
<!-- packages/util/color/index.test.ts -->
<g id="node3" class="node">
<title>packages/util/color/index.test.ts</title>
<g id="a_node3"><a xlink:href="packages/util/color/index.test.ts" xlink:title="index.test.ts">
<path fill="#ddfeff" stroke="black" d="M200.5,-114C200.5,-114 139.5,-114 139.5,-114 136.5,-114 133.5,-111 133.5,-108 133.5,-108 133.5,-102 133.5,-102 133.5,-99 136.5,-96 139.5,-96 139.5,-96 200.5,-96 200.5,-96 203.5,-96 206.5,-99 206.5,-102 206.5,-102 206.5,-108 206.5,-108 206.5,-111 203.5,-114 200.5,-114"/>
<text text-anchor="start" x="141.5" y="-102.8" font-family="Helvetica,sans-Serif" font-size="9.00">index.test.ts</text>
</a>
</g>
</g>
<!-- packages/util/color/index.test.ts&#45;&gt;packages/util/color/dist/index.js -->
<g id="edge1" class="edge">
<title>packages/util/color/index.test.ts&#45;&gt;packages/util/color/dist/index.js</title>
<path fill="none" stroke="#000000" stroke-width="2" stroke-opacity="0.200000" d="M206.72,-106.21C222.51,-106.75 240.95,-107.37 256.36,-107.89"/>
<polygon fill="#000000" fill-opacity="0.200000" stroke="#000000" stroke-width="2" stroke-opacity="0.200000" points="256.7,-110.01 262.77,-108.11 256.84,-105.81 256.7,-110.01"/>
</g>
<!-- packages/util/color/src/util.ts -->
<g id="node4" class="node">
<title>packages/util/color/src/util.ts</title>
<g id="a_node4"><a xlink:href="packages/util/color/src/util.ts" xlink:title="util.ts">
<path fill="#ddfeff" stroke="black" d="M311,-58C311,-58 269,-58 269,-58 266,-58 263,-55 263,-52 263,-52 263,-46 263,-46 263,-43 266,-40 269,-40 269,-40 311,-40 311,-40 314,-40 317,-43 317,-46 317,-46 317,-52 317,-52 317,-55 314,-58 311,-58"/>
<text text-anchor="start" x="277" y="-46.8" font-family="Helvetica,sans-Serif" font-size="9.00">util.ts</text>
</a>
</g>
</g>
<!-- packages/util/color/index.test.ts&#45;&gt;packages/util/color/src/util.ts -->
<g id="edge2" class="edge">
<title>packages/util/color/index.test.ts&#45;&gt;packages/util/color/src/util.ts</title>
<path fill="none" stroke="#000000" stroke-width="2" stroke-opacity="0.200000" d="M190.22,-95.88C210.36,-86.32 242.09,-71.26 264.13,-60.8"/>
<polygon fill="#000000" fill-opacity="0.200000" stroke="#000000" stroke-width="2" stroke-opacity="0.200000" points="265.27,-62.59 269.79,-58.12 263.47,-58.79 265.27,-62.59"/>
</g>
<!-- packages/util/color/index.ts -->
<g id="node5" class="node">
<title>packages/util/color/index.ts</title>
<g id="a_node5"><a xlink:href="packages/util/color/index.ts" xlink:title="index.ts">
<path fill="#ddfeff" stroke="black" d="M80,-144C80,-144 38,-144 38,-144 35,-144 32,-141 32,-138 32,-138 32,-132 32,-132 32,-129 35,-126 38,-126 38,-126 80,-126 80,-126 83,-126 86,-129 86,-132 86,-132 86,-138 86,-138 86,-141 83,-144 80,-144"/>
<text text-anchor="start" x="40.5" y="-132.8" font-family="Helvetica,sans-Serif" font-size="9.00">index.ts</text>
</a>
</g>
</g>
<!-- packages/util/color/index.ts&#45;&gt;packages/tonal&#45;objects/dist/index.js -->
<g id="edge6" class="edge">
<title>packages/util/color/index.ts&#45;&gt;packages/tonal&#45;objects/dist/index.js</title>
<path fill="none" stroke="#000000" stroke-width="2" stroke-opacity="0.200000" d="M62.8,-144C77.5,-191.18 145.64,-410 164.28,-469.84"/>
<polygon fill="#000000" fill-opacity="0.200000" stroke="#000000" stroke-width="2" stroke-opacity="0.200000" points="162.32,-470.63 166.11,-475.73 166.34,-469.38 162.32,-470.63"/>
</g>
<!-- packages/util/color/src/index.ts -->
<g id="node6" class="node">
<title>packages/util/color/src/index.ts</title>
<g id="a_node6"><a xlink:href="packages/util/color/src/index.ts" xlink:title="index.ts">
<path fill="#ddfeff" stroke="black" d="M191,-58C191,-58 149,-58 149,-58 146,-58 143,-55 143,-52 143,-52 143,-46 143,-46 143,-43 146,-40 149,-40 149,-40 191,-40 191,-40 194,-40 197,-43 197,-46 197,-46 197,-52 197,-52 197,-55 194,-58 191,-58"/>
<text text-anchor="start" x="151.5" y="-46.8" font-family="Helvetica,sans-Serif" font-size="9.00">index.ts</text>
</a>
</g>
</g>
<!-- packages/util/color/index.ts&#45;&gt;packages/util/color/src/index.ts -->
<g id="edge3" class="edge">
<title>packages/util/color/index.ts&#45;&gt;packages/util/color/src/index.ts</title>
<path fill="none" stroke="#000000" stroke-width="2" stroke-opacity="0.200000" d="M71.66,-125.8C91.17,-110.41 130.45,-79.42 152.68,-61.87"/>
<polygon fill="#000000" fill-opacity="0.200000" stroke="#000000" stroke-width="2" stroke-opacity="0.200000" points="154.01,-63.5 157.42,-58.14 151.41,-60.21 154.01,-63.5"/>
</g>
<!-- packages/util/math/src/basic&#45;function/mod.ts -->
<g id="node7" class="node">
<title>packages/util/math/src/basic&#45;function/mod.ts</title>
<g id="a_node7"><a xlink:href="packages/util/math/src/basic-function/mod.ts" xlink:title="mod.ts">
<path fill="#ddfeff" stroke="black" d="M191,-220C191,-220 149,-220 149,-220 146,-220 143,-217 143,-214 143,-214 143,-208 143,-208 143,-205 146,-202 149,-202 149,-202 191,-202 191,-202 194,-202 197,-205 197,-208 197,-208 197,-214 197,-214 197,-217 194,-220 191,-220"/>
<text text-anchor="start" x="154" y="-208.8" font-family="Helvetica,sans-Serif" font-size="9.00">mod.ts</text>
</a>
</g>
</g>
<!-- packages/util/color/index.ts&#45;&gt;packages/util/math/src/basic&#45;function/mod.ts -->
<g id="edge4" class="edge">
<title>packages/util/color/index.ts&#45;&gt;packages/util/math/src/basic&#45;function/mod.ts</title>
<path fill="none" stroke="#000000" stroke-width="2" stroke-opacity="0.200000" d="M72.93,-144.02C92.35,-157.56 129.11,-183.19 151.1,-198.52"/>
<polygon fill="#000000" fill-opacity="0.200000" stroke="#000000" stroke-width="2" stroke-opacity="0.200000" points="149.96,-200.29 156.09,-202 152.36,-196.84 149.96,-200.29"/>
</g>
<!-- packages/util/stdlib/src/assertion/assertion.ts -->
<g id="node8" class="node">
<title>packages/util/stdlib/src/assertion/assertion.ts</title>
<g id="a_node8"><a xlink:href="packages/util/stdlib/src/assertion/assertion.ts" xlink:title="assertion.ts">
<path fill="#ddfeff" stroke="black" d="M198,-348C198,-348 142,-348 142,-348 139,-348 136,-345 136,-342 136,-342 136,-336 136,-336 136,-333 139,-330 142,-330 142,-330 198,-330 198,-330 201,-330 204,-333 204,-336 204,-336 204,-342 204,-342 204,-345 201,-348 198,-348"/>
<text text-anchor="start" x="144" y="-336.8" font-family="Helvetica,sans-Serif" font-size="9.00">assertion.ts</text>
</a>
</g>
</g>
<!-- packages/util/color/index.ts&#45;&gt;packages/util/stdlib/src/assertion/assertion.ts -->
<g id="edge5" class="edge">
<title>packages/util/color/index.ts&#45;&gt;packages/util/stdlib/src/assertion/assertion.ts</title>
<path fill="none" stroke="#000000" stroke-width="2" stroke-opacity="0.200000" d="M64.82,-144.03C81.95,-176.07 139.9,-284.54 161.13,-324.27"/>
<polygon fill="#000000" fill-opacity="0.200000" stroke="#000000" stroke-width="2" stroke-opacity="0.200000" points="159.3,-325.31 163.98,-329.61 163.01,-323.33 159.3,-325.31"/>
</g>
<!-- packages/util/color/src/index.ts&#45;&gt;packages/util/color/src/util.ts -->
<g id="edge7" class="edge">
<title>packages/util/color/src/index.ts&#45;&gt;packages/util/color/src/util.ts</title>
<path fill="none" stroke="#000000" stroke-width="2" stroke-opacity="0.200000" d="M197.19,-49C214.76,-49 238.02,-49 256.73,-49"/>
<polygon fill="#000000" fill-opacity="0.200000" stroke="#000000" stroke-width="2" stroke-opacity="0.200000" points="262.89,-51.1 256.89,-49 262.89,-46.9 262.89,-51.1"/>
</g>
</g>
</svg>
