<?xml version="1.0" encoding="UTF-8" standalone="no"?>
<!DOCTYPE svg PUBLIC "-//W3C//DTD SVG 1.1//EN"
 "http://www.w3.org/Graphics/SVG/1.1/DTD/svg11.dtd">
<!-- Generated by graphviz version 2.43.0 (0)
 -->
<!-- Title: dependency&#45;cruiser output Pages: 1 -->
<svg width="618pt" height="613pt"
 viewBox="0.00 0.00 618.32 613.44" xmlns="http://www.w3.org/2000/svg" xmlns:xlink="http://www.w3.org/1999/xlink">
<g id="graph0" class="graph" transform="scale(1 1) rotate(0) translate(4 609.44)">
<title>dependency&#45;cruiser output</title>
<polygon fill="white" stroke="transparent" points="-4,4 -4,-609.44 614.32,-609.44 614.32,4 -4,4"/>
<g id="clust1" class="cluster">
<title>cluster_node_modules</title>
<path fill="#ffffff" stroke="black" stroke-width="2" d="M12,-552.47C12,-552.47 491.51,-552.47 491.51,-552.47 497.51,-552.47 503.51,-558.47 503.51,-564.47 503.51,-564.47 503.51,-593.44 503.51,-593.44 503.51,-599.44 497.51,-605.44 491.51,-605.44 491.51,-605.44 12,-605.44 12,-605.44 6,-605.44 0,-599.44 0,-593.44 0,-593.44 0,-564.47 0,-564.47 0,-558.47 6,-552.47 12,-552.47"/>
<text text-anchor="middle" x="251.76" y="-594.24" font-family="Helvetica,sans-Serif" font-weight="bold" font-size="9.00">node_modules</text>
</g>
<g id="clust3" class="cluster">
<title>cluster_packages</title>
<path fill="#ffffff" stroke="black" stroke-width="2" d="M58.27,0C58.27,0 598.32,0 598.32,0 604.32,0 610.32,-6 610.32,-12 610.32,-12 610.32,-457.75 610.32,-457.75 610.32,-463.75 604.32,-469.75 598.32,-469.75 598.32,-469.75 58.27,-469.75 58.27,-469.75 52.27,-469.75 46.27,-463.75 46.27,-457.75 46.27,-457.75 46.27,-12 46.27,-12 46.27,-6 52.27,0 58.27,0"/>
<text text-anchor="middle" x="328.3" y="-458.55" font-family="Helvetica,sans-Serif" font-weight="bold" font-size="9.00">packages</text>
</g>
<!-- node_modules/@tonaljs/interval -->
<g id="node1" class="node">
<title>node_modules/@tonaljs/interval</title>
<g id="a_node1"><a xlink:href="https://www.npmjs.com/package/@tonaljs/interval" xlink:title="interval">
<polygon fill="#c40b0a" fill-opacity="0.101961" stroke="black" points="54,-570.47 2,-570.47 0,-568.47 0,-552.47 52,-552.47 54,-554.47 54,-570.47"/>
<polyline fill="none" stroke="black" points="52,-568.47 0,-568.47 "/>
<polyline fill="none" stroke="black" points="52,-568.47 52,-552.47 "/>
<polyline fill="none" stroke="black" points="52,-568.47 54,-570.47 "/>
<text text-anchor="start" x="10" y="-559.27" font-family="Helvetica,sans-Serif" font-size="9.00" fill="#c40b0a">interval</text>
</a>
</g>
</g>
<!-- node_modules/@tonaljs/note -->
<g id="node2" class="node">
<title>node_modules/@tonaljs/note</title>
<g id="a_node2"><a xlink:href="https://www.npmjs.com/package/@tonaljs/note" xlink:title="note">
<polygon fill="#c40b0a" fill-opacity="0.101961" stroke="black" points="503.51,-605.44 451.51,-605.44 449.51,-603.44 449.51,-587.44 501.51,-587.44 503.51,-589.44 503.51,-605.44"/>
<polyline fill="none" stroke="black" points="501.51,-603.44 449.51,-603.44 "/>
<polyline fill="none" stroke="black" points="501.51,-603.44 501.51,-587.44 "/>
<polyline fill="none" stroke="black" points="501.51,-603.44 503.51,-605.44 "/>
<text text-anchor="start" x="466.01" y="-594.24" font-family="Helvetica,sans-Serif" font-size="9.00" fill="#c40b0a">note</text>
</a>
</g>
</g>
<!-- packages/tonal&#45;objects/src/interval/distance.ts -->
<g id="node3" class="node">
<title>packages/tonal&#45;objects/src/interval/distance.ts</title>
<g id="a_node3"><a xlink:href="packages/tonal-objects/src/interval/distance.ts" xlink:title="distance.ts">
<polygon fill="#ddfeff" stroke="black" points="112.27,-295.22 110.77,-297.22 100.27,-297.22 98.77,-295.22 46.27,-295.22 46.27,-277.22 112.27,-277.22 112.27,-295.22"/>
<text text-anchor="start" x="54.27" y="-284.02" font-family="Helvetica,sans-Serif" font-size="9.00">distance.ts</text>
</a>
</g>
</g>
<!-- packages/tonal&#45;objects/src/interval/get.ts -->
<g id="node4" class="node">
<title>packages/tonal&#45;objects/src/interval/get.ts</title>
<g id="a_node4"><a xlink:href="packages/tonal-objects/src/interval/get.ts" xlink:title="get.ts">
<path fill="#ddfeff" stroke="black" d="M163.19,-469.75C163.19,-469.75 121.19,-469.75 121.19,-469.75 118.19,-469.75 115.19,-466.75 115.19,-463.75 115.19,-463.75 115.19,-457.75 115.19,-457.75 115.19,-454.75 118.19,-451.75 121.19,-451.75 121.19,-451.75 163.19,-451.75 163.19,-451.75 166.19,-451.75 169.19,-454.75 169.19,-457.75 169.19,-457.75 169.19,-463.75 169.19,-463.75 169.19,-466.75 166.19,-469.75 163.19,-469.75"/>
<text text-anchor="start" x="128.69" y="-458.55" font-family="Helvetica,sans-Serif" font-size="9.00">get.ts</text>
</a>
</g>
</g>
<!-- packages/tonal&#45;objects/src/interval/get.ts&#45;&gt;node_modules/@tonaljs/interval -->
<g id="edge1" class="edge">
<title>packages/tonal&#45;objects/src/interval/get.ts&#45;&gt;node_modules/@tonaljs/interval</title>
<path fill="none" stroke="#000000" stroke-opacity="0.200000" d="M131.56,-470.04C111.07,-487.96 66.05,-527.32 42.33,-548.07"/>
<polygon fill="#000000" fill-opacity="0.200000" stroke="#000000" stroke-opacity="0.200000" points="36.22,-550.62 42.12,-548.25 38.99,-553.78 36.22,-550.62"/>
</g>
<!-- packages/tonal&#45;objects/src/note/chroma.ts -->
<g id="node5" class="node">
<title>packages/tonal&#45;objects/src/note/chroma.ts</title>
<g id="a_node5"><a xlink:href="packages/tonal-objects/src/note/chroma.ts" xlink:title="chroma.ts">
<path fill="#ddfeff" stroke="black" d="M447.48,-451.93C447.48,-451.93 397.48,-451.93 397.48,-451.93 394.48,-451.93 391.48,-448.93 391.48,-445.93 391.48,-445.93 391.48,-439.93 391.48,-439.93 391.48,-436.93 394.48,-433.93 397.48,-433.93 397.48,-433.93 447.48,-433.93 447.48,-433.93 450.48,-433.93 453.48,-436.93 453.48,-439.93 453.48,-439.93 453.48,-445.93 453.48,-445.93 453.48,-448.93 450.48,-451.93 447.48,-451.93"/>
<text text-anchor="start" x="399.48" y="-440.73" font-family="Helvetica,sans-Serif" font-size="9.00">chroma.ts</text>
</a>
</g>
</g>
<!-- packages/tonal&#45;objects/src/note/chroma.ts&#45;&gt;node_modules/@tonaljs/note -->
<g id="edge2" class="edge">
<title>packages/tonal&#45;objects/src/note/chroma.ts&#45;&gt;node_modules/@tonaljs/note</title>
<path fill="none" stroke="#000000" stroke-opacity="0.200000" d="M425.7,-452.07C434.69,-477.61 460.13,-549.88 471.23,-581.41"/>
<polygon fill="#000000" fill-opacity="0.200000" stroke="#000000" stroke-opacity="0.200000" points="471.26,-587.84 471.25,-581.49 475.23,-586.45 471.26,-587.84"/>
</g>
<!-- packages/util/color/index.test.ts -->
<g id="node6" class="node">
<title>packages/util/color/index.test.ts</title>
<g id="a_node6"><a xlink:href="packages/util/color/index.test.ts" xlink:title="index.test.ts">
<path fill="#ddfeff" stroke="black" d="M542.38,-200.13C542.38,-200.13 481.38,-200.13 481.38,-200.13 478.38,-200.13 475.38,-197.13 475.38,-194.13 475.38,-194.13 475.38,-188.13 475.38,-188.13 475.38,-185.13 478.38,-182.13 481.38,-182.13 481.38,-182.13 542.38,-182.13 542.38,-182.13 545.38,-182.13 548.38,-185.13 548.38,-188.13 548.38,-188.13 548.38,-194.13 548.38,-194.13 548.38,-197.13 545.38,-200.13 542.38,-200.13"/>
<text text-anchor="start" x="483.38" y="-188.93" font-family="Helvetica,sans-Serif" font-size="9.00">index.test.ts</text>
</a>
</g>
</g>
<!-- packages/util/color/src/fifth&#45;chroma&#45;to&#45;color.ts -->
<g id="node7" class="node">
<title>packages/util/color/src/fifth&#45;chroma&#45;to&#45;color.ts</title>
<g id="a_node7"><a xlink:href="packages/util/color/src/fifth-chroma-to-color.ts" xlink:title="fifth&#45;chroma&#45;to&#45;color.ts">
<path fill="#ddfeff" stroke="black" d="M483.27,-280.59C483.27,-280.59 374.27,-280.59 374.27,-280.59 371.27,-280.59 368.27,-277.59 368.27,-274.59 368.27,-274.59 368.27,-268.59 368.27,-268.59 368.27,-265.59 371.27,-262.59 374.27,-262.59 374.27,-262.59 483.27,-262.59 483.27,-262.59 486.27,-262.59 489.27,-265.59 489.27,-268.59 489.27,-268.59 489.27,-274.59 489.27,-274.59 489.27,-277.59 486.27,-280.59 483.27,-280.59"/>
<text text-anchor="start" x="376.27" y="-269.39" font-family="Helvetica,sans-Serif" font-size="9.00">fifth&#45;chroma&#45;to&#45;color.ts</text>
</a>
</g>
</g>
<!-- packages/util/color/index.test.ts&#45;&gt;packages/util/color/src/fifth&#45;chroma&#45;to&#45;color.ts -->
<g id="edge3" class="edge">
<title>packages/util/color/index.test.ts&#45;&gt;packages/util/color/src/fifth&#45;chroma&#45;to&#45;color.ts</title>
<path fill="none" stroke="#000000" stroke-width="2" stroke-opacity="0.200000" d="M502.35,-200.36C487.69,-214.55 459.56,-241.78 442.65,-258.16"/>
<polygon fill="#000000" fill-opacity="0.200000" stroke="#000000" stroke-width="2" stroke-opacity="0.200000" points="441.04,-256.78 438.19,-262.47 443.97,-259.8 441.04,-256.78"/>
</g>
<!-- packages/util/color/src/fifth&#45;to&#45;color.ts -->
<g id="node8" class="node">
<title>packages/util/color/src/fifth&#45;to&#45;color.ts</title>
<g id="a_node8"><a xlink:href="packages/util/color/src/fifth-to-color.ts" xlink:title="fifth&#45;to&#45;color.ts">
<path fill="#ddfeff" stroke="black" d="M575.86,-375.54C575.86,-375.54 504.86,-375.54 504.86,-375.54 501.86,-375.54 498.86,-372.54 498.86,-369.54 498.86,-369.54 498.86,-363.54 498.86,-363.54 498.86,-360.54 501.86,-357.54 504.86,-357.54 504.86,-357.54 575.86,-357.54 575.86,-357.54 578.86,-357.54 581.86,-360.54 581.86,-363.54 581.86,-363.54 581.86,-369.54 581.86,-369.54 581.86,-372.54 578.86,-375.54 575.86,-375.54"/>
<text text-anchor="start" x="506.86" y="-364.34" font-family="Helvetica,sans-Serif" font-size="9.00">fifth&#45;to&#45;color.ts</text>
</a>
</g>
</g>
<!-- packages/util/color/index.test.ts&#45;&gt;packages/util/color/src/fifth&#45;to&#45;color.ts -->
<g id="edge4" class="edge">
<title>packages/util/color/index.test.ts&#45;&gt;packages/util/color/src/fifth&#45;to&#45;color.ts</title>
<path fill="none" stroke="#000000" stroke-width="2" stroke-opacity="0.200000" d="M513.41,-200.56C518.09,-229.37 532.21,-316.38 537.92,-351.55"/>
<polygon fill="#000000" fill-opacity="0.200000" stroke="#000000" stroke-width="2" stroke-opacity="0.200000" points="535.85,-351.9 538.89,-357.49 540,-351.23 535.85,-351.9"/>
</g>
<!-- packages/util/color/src/hsv2rgb.ts -->
<g id="node9" class="node">
<title>packages/util/color/src/hsv2rgb.ts</title>
<g id="a_node9"><a xlink:href="packages/util/color/src/hsv2rgb.ts" xlink:title="hsv2rgb.ts">
<path fill="#ddfeff" stroke="black" d="M363.38,-168.04C363.38,-168.04 310.38,-168.04 310.38,-168.04 307.38,-168.04 304.38,-165.04 304.38,-162.04 304.38,-162.04 304.38,-156.04 304.38,-156.04 304.38,-153.04 307.38,-150.04 310.38,-150.04 310.38,-150.04 363.38,-150.04 363.38,-150.04 366.38,-150.04 369.38,-153.04 369.38,-156.04 369.38,-156.04 369.38,-162.04 369.38,-162.04 369.38,-165.04 366.38,-168.04 363.38,-168.04"/>
<text text-anchor="start" x="312.38" y="-156.84" font-family="Helvetica,sans-Serif" font-size="9.00">hsv2rgb.ts</text>
</a>
</g>
</g>
<!-- packages/util/color/index.test.ts&#45;&gt;packages/util/color/src/hsv2rgb.ts -->
<g id="edge5" class="edge">
<title>packages/util/color/index.test.ts&#45;&gt;packages/util/color/src/hsv2rgb.ts</title>
<path fill="none" stroke="#000000" stroke-width="2" stroke-opacity="0.200000" d="M475.19,-184.4C446,-179.05 405.26,-171.58 375.55,-166.13"/>
<polygon fill="#000000" fill-opacity="0.200000" stroke="#000000" stroke-width="2" stroke-opacity="0.200000" points="375.67,-164.02 369.39,-165 374.91,-168.15 375.67,-164.02"/>
</g>
<!-- packages/util/color/src/note&#45;chroma&#45;to&#45;color.ts -->
<g id="node10" class="node">
<title>packages/util/color/src/note&#45;chroma&#45;to&#45;color.ts</title>
<g id="a_node10"><a xlink:href="packages/util/color/src/note-chroma-to-color.ts" xlink:title="note&#45;chroma&#45;to&#45;color.ts">
<path fill="#ddfeff" stroke="black" d="M493.39,-151.5C493.39,-151.5 383.39,-151.5 383.39,-151.5 380.39,-151.5 377.39,-148.5 377.39,-145.5 377.39,-145.5 377.39,-139.5 377.39,-139.5 377.39,-136.5 380.39,-133.5 383.39,-133.5 383.39,-133.5 493.39,-133.5 493.39,-133.5 496.39,-133.5 499.39,-136.5 499.39,-139.5 499.39,-139.5 499.39,-145.5 499.39,-145.5 499.39,-148.5 496.39,-151.5 493.39,-151.5"/>
<text text-anchor="start" x="385.39" y="-140.3" font-family="Helvetica,sans-Serif" font-size="9.00">note&#45;chroma&#45;to&#45;color.ts</text>
</a>
</g>
</g>
<!-- packages/util/color/index.test.ts&#45;&gt;packages/util/color/src/note&#45;chroma&#45;to&#45;color.ts -->
<g id="edge6" class="edge">
<title>packages/util/color/index.test.ts&#45;&gt;packages/util/color/src/note&#45;chroma&#45;to&#45;color.ts</title>
<path fill="none" stroke="#000000" stroke-width="2" stroke-opacity="0.200000" d="M498.06,-181.99C486.56,-174.38 470.08,-163.47 457.35,-155.05"/>
<polygon fill="#000000" fill-opacity="0.200000" stroke="#000000" stroke-width="2" stroke-opacity="0.200000" points="458.31,-153.17 452.15,-151.61 455.99,-156.67 458.31,-153.17"/>
</g>
<!-- packages/util/color/src/note&#45;to&#45;color.ts -->
<g id="node11" class="node">
<title>packages/util/color/src/note&#45;to&#45;color.ts</title>
<g id="a_node11"><a xlink:href="packages/util/color/src/note-to-color.ts" xlink:title="note&#45;to&#45;color.ts">
<path fill="#ddfeff" stroke="black" d="M604.32,-302.43C604.32,-302.43 531.32,-302.43 531.32,-302.43 528.32,-302.43 525.32,-299.43 525.32,-296.43 525.32,-296.43 525.32,-290.43 525.32,-290.43 525.32,-287.43 528.32,-284.43 531.32,-284.43 531.32,-284.43 604.32,-284.43 604.32,-284.43 607.32,-284.43 610.32,-287.43 610.32,-290.43 610.32,-290.43 610.32,-296.43 610.32,-296.43 610.32,-299.43 607.32,-302.43 604.32,-302.43"/>
<text text-anchor="start" x="533.32" y="-291.23" font-family="Helvetica,sans-Serif" font-size="9.00">note&#45;to&#45;color.ts</text>
</a>
</g>
</g>
<!-- packages/util/color/index.test.ts&#45;&gt;packages/util/color/src/note&#45;to&#45;color.ts -->
<g id="edge7" class="edge">
<title>packages/util/color/index.test.ts&#45;&gt;packages/util/color/src/note&#45;to&#45;color.ts</title>
<path fill="none" stroke="#000000" stroke-width="2" stroke-opacity="0.200000" d="M516.85,-200.21C526.57,-217.99 548.18,-257.51 559.9,-278.94"/>
<polygon fill="#000000" fill-opacity="0.200000" stroke="#000000" stroke-width="2" stroke-opacity="0.200000" points="558.07,-279.97 562.79,-284.22 561.75,-277.95 558.07,-279.97"/>
</g>
<!-- packages/util/color/src/rgb&#45;to&#45;string.ts -->
<g id="node12" class="node">
<title>packages/util/color/src/rgb&#45;to&#45;string.ts</title>
<g id="a_node12"><a xlink:href="packages/util/color/src/rgb-to-string.ts" xlink:title="rgb&#45;to&#45;string.ts">
<path fill="#ddfeff" stroke="black" d="M380.63,-247.71C380.63,-247.71 306.63,-247.71 306.63,-247.71 303.63,-247.71 300.63,-244.71 300.63,-241.71 300.63,-241.71 300.63,-235.71 300.63,-235.71 300.63,-232.71 303.63,-229.71 306.63,-229.71 306.63,-229.71 380.63,-229.71 380.63,-229.71 383.63,-229.71 386.63,-232.71 386.63,-235.71 386.63,-235.71 386.63,-241.71 386.63,-241.71 386.63,-244.71 383.63,-247.71 380.63,-247.71"/>
<text text-anchor="start" x="308.63" y="-236.51" font-family="Helvetica,sans-Serif" font-size="9.00">rgb&#45;to&#45;string.ts</text>
</a>
</g>
</g>
<!-- packages/util/color/index.test.ts&#45;&gt;packages/util/color/src/rgb&#45;to&#45;string.ts -->
<g id="edge8" class="edge">
<title>packages/util/color/index.test.ts&#45;&gt;packages/util/color/src/rgb&#45;to&#45;string.ts</title>
<path fill="none" stroke="#000000" stroke-width="2" stroke-opacity="0.200000" d="M479.84,-200.19C451.89,-208.1 411.29,-219.57 381.7,-227.94"/>
<polygon fill="#000000" fill-opacity="0.200000" stroke="#000000" stroke-width="2" stroke-opacity="0.200000" points="380.76,-226.03 375.56,-229.68 381.9,-230.07 380.76,-226.03"/>
</g>
<!-- packages/util/color/src/util.ts -->
<g id="node13" class="node">
<title>packages/util/color/src/util.ts</title>
<g id="a_node13"><a xlink:href="packages/util/color/src/util.ts" xlink:title="util.ts">
<path fill="#ddfeff" stroke="black" d="M497.27,-51.58C497.27,-51.58 455.27,-51.58 455.27,-51.58 452.27,-51.58 449.27,-48.58 449.27,-45.58 449.27,-45.58 449.27,-39.58 449.27,-39.58 449.27,-36.58 452.27,-33.58 455.27,-33.58 455.27,-33.58 497.27,-33.58 497.27,-33.58 500.27,-33.58 503.27,-36.58 503.27,-39.58 503.27,-39.58 503.27,-45.58 503.27,-45.58 503.27,-48.58 500.27,-51.58 497.27,-51.58"/>
<text text-anchor="start" x="463.27" y="-40.38" font-family="Helvetica,sans-Serif" font-size="9.00">util.ts</text>
</a>
</g>
</g>
<!-- packages/util/color/index.test.ts&#45;&gt;packages/util/color/src/util.ts -->
<g id="edge9" class="edge">
<title>packages/util/color/index.test.ts&#45;&gt;packages/util/color/src/util.ts</title>
<path fill="none" stroke="#000000" stroke-width="2" stroke-opacity="0.200000" d="M509.65,-181.84C503.68,-156.93 487.28,-88.5 479.92,-57.82"/>
<polygon fill="#000000" fill-opacity="0.200000" stroke="#000000" stroke-width="2" stroke-opacity="0.200000" points="481.94,-57.22 478.5,-51.87 477.85,-58.19 481.94,-57.22"/>
</g>
<!-- packages/util/color/src/fifth&#45;chroma&#45;to&#45;color.ts&#45;&gt;packages/util/color/src/hsv2rgb.ts -->
<g id="edge11" class="edge">
<title>packages/util/color/src/fifth&#45;chroma&#45;to&#45;color.ts&#45;&gt;packages/util/color/src/hsv2rgb.ts</title>
<path fill="none" stroke="#000000" stroke-width="2" stroke-opacity="0.200000" d="M421.25,-262.38C405.15,-242.66 367.27,-196.26 348.22,-172.94"/>
<polygon fill="#000000" fill-opacity="0.200000" stroke="#000000" stroke-width="2" stroke-opacity="0.200000" points="349.66,-171.39 344.24,-168.07 346.41,-174.04 349.66,-171.39"/>
</g>
<!-- packages/util/color/src/fifth&#45;chroma&#45;to&#45;color.ts&#45;&gt;packages/util/color/src/rgb&#45;to&#45;string.ts -->
<g id="edge12" class="edge">
<title>packages/util/color/src/fifth&#45;chroma&#45;to&#45;color.ts&#45;&gt;packages/util/color/src/rgb&#45;to&#45;string.ts</title>
<path fill="none" stroke="#000000" stroke-width="2" stroke-opacity="0.200000" d="M405.06,-262.43C395.09,-258.58 383.4,-254.07 372.91,-250.01"/>
<polygon fill="#000000" fill-opacity="0.200000" stroke="#000000" stroke-width="2" stroke-opacity="0.200000" points="373.58,-248.02 367.22,-247.82 372.06,-251.94 373.58,-248.02"/>
</g>
<!-- packages/util/color/src/green&#45;hue.ts -->
<g id="node14" class="node">
<title>packages/util/color/src/green&#45;hue.ts</title>
<g id="a_node14"><a xlink:href="packages/util/color/src/green-hue.ts" xlink:title="green&#45;hue.ts">
<path fill="#ddfeff" stroke="black" d="M286.92,-209.45C286.92,-209.45 224.92,-209.45 224.92,-209.45 221.92,-209.45 218.92,-206.45 218.92,-203.45 218.92,-203.45 218.92,-197.45 218.92,-197.45 218.92,-194.45 221.92,-191.45 224.92,-191.45 224.92,-191.45 286.92,-191.45 286.92,-191.45 289.92,-191.45 292.92,-194.45 292.92,-197.45 292.92,-197.45 292.92,-203.45 292.92,-203.45 292.92,-206.45 289.92,-209.45 286.92,-209.45"/>
<text text-anchor="start" x="226.92" y="-198.25" font-family="Helvetica,sans-Serif" font-size="9.00">green&#45;hue.ts</text>
</a>
</g>
</g>
<!-- packages/util/color/src/fifth&#45;chroma&#45;to&#45;color.ts&#45;&gt;packages/util/color/src/green&#45;hue.ts -->
<g id="edge10" class="edge">
<title>packages/util/color/src/fifth&#45;chroma&#45;to&#45;color.ts&#45;&gt;packages/util/color/src/green&#45;hue.ts</title>
<path fill="none" stroke="#000000" stroke-width="2" stroke-opacity="0.200000" d="M406.88,-262.58C375.53,-249.68 317.88,-225.95 283.61,-211.85"/>
<polygon fill="#000000" fill-opacity="0.200000" stroke="#000000" stroke-width="2" stroke-opacity="0.200000" points="284.25,-209.84 277.91,-209.5 282.66,-213.73 284.25,-209.84"/>
</g>
<!-- packages/util/math/src/basic&#45;function/mod.ts -->
<g id="node15" class="node">
<title>packages/util/math/src/basic&#45;function/mod.ts</title>
<g id="a_node15"><a xlink:href="packages/util/math/src/basic-function/mod.ts" xlink:title="mod.ts">
<path fill="#ddfeff" stroke="black" d="M344.35,-351.96C344.35,-351.96 302.35,-351.96 302.35,-351.96 299.35,-351.96 296.35,-348.96 296.35,-345.96 296.35,-345.96 296.35,-339.96 296.35,-339.96 296.35,-336.96 299.35,-333.96 302.35,-333.96 302.35,-333.96 344.35,-333.96 344.35,-333.96 347.35,-333.96 350.35,-336.96 350.35,-339.96 350.35,-339.96 350.35,-345.96 350.35,-345.96 350.35,-348.96 347.35,-351.96 344.35,-351.96"/>
<text text-anchor="start" x="307.35" y="-340.76" font-family="Helvetica,sans-Serif" font-size="9.00">mod.ts</text>
</a>
</g>
</g>
<!-- packages/util/color/src/fifth&#45;chroma&#45;to&#45;color.ts&#45;&gt;packages/util/math/src/basic&#45;function/mod.ts -->
<g id="edge13" class="edge">
<title>packages/util/color/src/fifth&#45;chroma&#45;to&#45;color.ts&#45;&gt;packages/util/math/src/basic&#45;function/mod.ts</title>
<path fill="none" stroke="#000000" stroke-width="2" stroke-opacity="0.200000" d="M415.42,-280.63C396.83,-293.21 363.06,-316.07 341.99,-330.34"/>
<polygon fill="#000000" fill-opacity="0.200000" stroke="#000000" stroke-width="2" stroke-opacity="0.200000" points="340.72,-328.66 336.93,-333.77 343.07,-332.14 340.72,-328.66"/>
</g>
<!-- packages/util/color/src/fifth&#45;to&#45;color.ts&#45;&gt;packages/tonal&#45;objects/src/note/chroma.ts -->
<g id="edge15" class="edge">
<title>packages/util/color/src/fifth&#45;to&#45;color.ts&#45;&gt;packages/tonal&#45;objects/src/note/chroma.ts</title>
<path fill="none" stroke="#000000" stroke-width="2" stroke-opacity="0.200000" d="M526.37,-375.61C505.28,-389.27 465.28,-415.19 441.54,-430.58"/>
<polygon fill="#000000" fill-opacity="0.200000" stroke="#000000" stroke-width="2" stroke-opacity="0.200000" points="440.34,-428.85 436.45,-433.88 442.63,-432.37 440.34,-428.85"/>
</g>
<!-- packages/util/color/src/fifth&#45;to&#45;color.ts&#45;&gt;packages/util/color/src/fifth&#45;chroma&#45;to&#45;color.ts -->
<g id="edge14" class="edge">
<title>packages/util/color/src/fifth&#45;to&#45;color.ts&#45;&gt;packages/util/color/src/fifth&#45;chroma&#45;to&#45;color.ts</title>
<path fill="none" stroke="#000000" stroke-width="2" stroke-opacity="0.200000" d="M529.66,-357.44C509.8,-340.54 467.16,-304.26 444.19,-284.71"/>
<polygon fill="#000000" fill-opacity="0.200000" stroke="#000000" stroke-width="2" stroke-opacity="0.200000" points="445.53,-283.09 439.6,-280.8 442.81,-286.29 445.53,-283.09"/>
</g>
<!-- packages/util/color/src/hsv2rgb.ts&#45;&gt;packages/util/color/src/util.ts -->
<g id="edge16" class="edge">
<title>packages/util/color/src/hsv2rgb.ts&#45;&gt;packages/util/color/src/util.ts</title>
<path fill="none" stroke="#000000" stroke-width="2" stroke-opacity="0.200000" d="M347.81,-149.9C372.45,-129.32 432.33,-79.29 460.77,-55.53"/>
<polygon fill="#000000" fill-opacity="0.200000" stroke="#000000" stroke-width="2" stroke-opacity="0.200000" points="462.12,-57.14 465.38,-51.68 459.43,-53.91 462.12,-57.14"/>
</g>
<!-- packages/util/color/src/hsv2rgb.ts&#45;&gt;packages/util/math/src/basic&#45;function/mod.ts -->
<g id="edge17" class="edge">
<title>packages/util/color/src/hsv2rgb.ts&#45;&gt;packages/util/math/src/basic&#45;function/mod.ts</title>
<path fill="none" stroke="#000000" stroke-width="2" stroke-opacity="0.200000" d="M336.21,-168.16C334.04,-197.64 327.2,-290.57 324.48,-327.55"/>
<polygon fill="#000000" fill-opacity="0.200000" stroke="#000000" stroke-width="2" stroke-opacity="0.200000" points="322.37,-327.64 324.03,-333.78 326.56,-327.95 322.37,-327.64"/>
</g>
<!-- packages/util/stdlib/src/assertion/assertion.ts -->
<g id="node16" class="node">
<title>packages/util/stdlib/src/assertion/assertion.ts</title>
<g id="a_node16"><a xlink:href="packages/util/stdlib/src/assertion/assertion.ts" xlink:title="assertion.ts">
<path fill="#ddfeff" stroke="black" d="M279.39,-18C279.39,-18 223.39,-18 223.39,-18 220.39,-18 217.39,-15 217.39,-12 217.39,-12 217.39,-6 217.39,-6 217.39,-3 220.39,0 223.39,0 223.39,0 279.39,0 279.39,0 282.39,0 285.39,-3 285.39,-6 285.39,-6 285.39,-12 285.39,-12 285.39,-15 282.39,-18 279.39,-18"/>
<text text-anchor="start" x="225.39" y="-6.8" font-family="Helvetica,sans-Serif" font-size="9.00">assertion.ts</text>
</a>
</g>
</g>
<!-- packages/util/color/src/hsv2rgb.ts&#45;&gt;packages/util/stdlib/src/assertion/assertion.ts -->
<g id="edge18" class="edge">
<title>packages/util/color/src/hsv2rgb.ts&#45;&gt;packages/util/stdlib/src/assertion/assertion.ts</title>
<path fill="none" stroke="#000000" stroke-width="2" stroke-opacity="0.200000" d="M331.53,-149.66C317.07,-124.28 277.11,-54.14 259.69,-23.56"/>
<polygon fill="#000000" fill-opacity="0.200000" stroke="#000000" stroke-width="2" stroke-opacity="0.200000" points="261.32,-22.17 256.52,-18 257.67,-24.25 261.32,-22.17"/>
</g>
<!-- packages/util/color/src/note&#45;chroma&#45;to&#45;color.ts&#45;&gt;packages/util/color/src/hsv2rgb.ts -->
<g id="edge20" class="edge">
<title>packages/util/color/src/note&#45;chroma&#45;to&#45;color.ts&#45;&gt;packages/util/color/src/hsv2rgb.ts</title>
<path fill="none" stroke="#000000" stroke-width="2" stroke-opacity="0.200000" d="M382.88,-151.55C380.47,-151.94 378.07,-152.33 375.72,-152.71"/>
<polygon fill="#000000" fill-opacity="0.200000" stroke="#000000" stroke-width="2" stroke-opacity="0.200000" points="375.16,-150.68 369.57,-153.72 375.83,-154.82 375.16,-150.68"/>
</g>
<!-- packages/util/color/src/note&#45;chroma&#45;to&#45;color.ts&#45;&gt;packages/util/color/src/rgb&#45;to&#45;string.ts -->
<g id="edge21" class="edge">
<title>packages/util/color/src/note&#45;chroma&#45;to&#45;color.ts&#45;&gt;packages/util/color/src/rgb&#45;to&#45;string.ts</title>
<path fill="none" stroke="#000000" stroke-width="2" stroke-opacity="0.200000" d="M429.3,-151.73C412.49,-168.79 376.47,-205.37 356.92,-225.22"/>
<polygon fill="#000000" fill-opacity="0.200000" stroke="#000000" stroke-width="2" stroke-opacity="0.200000" points="355.27,-223.9 352.55,-229.65 358.26,-226.85 355.27,-223.9"/>
</g>
<!-- packages/util/color/src/note&#45;chroma&#45;to&#45;color.ts&#45;&gt;packages/util/color/src/green&#45;hue.ts -->
<g id="edge19" class="edge">
<title>packages/util/color/src/note&#45;chroma&#45;to&#45;color.ts&#45;&gt;packages/util/color/src/green&#45;hue.ts</title>
<path fill="none" stroke="#000000" stroke-width="2" stroke-opacity="0.200000" d="M409.88,-151.56C377.57,-161.82 324.91,-178.54 290.34,-189.52"/>
<polygon fill="#000000" fill-opacity="0.200000" stroke="#000000" stroke-width="2" stroke-opacity="0.200000" points="289.61,-187.55 284.53,-191.37 290.88,-191.55 289.61,-187.55"/>
</g>
<!-- packages/util/color/src/note&#45;to&#45;color.ts&#45;&gt;packages/tonal&#45;objects/src/note/chroma.ts -->
<g id="edge23" class="edge">
<title>packages/util/color/src/note&#45;to&#45;color.ts&#45;&gt;packages/tonal&#45;objects/src/note/chroma.ts</title>
<path fill="none" stroke="#000000" stroke-width="2" stroke-opacity="0.200000" d="M558.73,-302.78C533.96,-328.26 465.16,-399.03 435.91,-429.11"/>
<polygon fill="#000000" fill-opacity="0.200000" stroke="#000000" stroke-width="2" stroke-opacity="0.200000" points="434.25,-427.81 431.57,-433.58 437.26,-430.74 434.25,-427.81"/>
</g>
<!-- packages/util/color/src/note&#45;to&#45;color.ts&#45;&gt;packages/util/color/src/note&#45;chroma&#45;to&#45;color.ts -->
<g id="edge22" class="edge">
<title>packages/util/color/src/note&#45;to&#45;color.ts&#45;&gt;packages/util/color/src/note&#45;chroma&#45;to&#45;color.ts</title>
<path fill="none" stroke="#000000" stroke-width="2" stroke-opacity="0.200000" d="M559.73,-283.99C537.65,-258.24 476.31,-186.73 450.3,-156.39"/>
<polygon fill="#000000" fill-opacity="0.200000" stroke="#000000" stroke-width="2" stroke-opacity="0.200000" points="451.65,-154.74 446.15,-151.56 448.46,-157.48 451.65,-154.74"/>
</g>
<!-- packages/util/color/src/third&#45;to&#45;color.ts -->
<g id="node17" class="node">
<title>packages/util/color/src/third&#45;to&#45;color.ts</title>
<g id="a_node17"><a xlink:href="packages/util/color/src/third-to-color.ts" xlink:title="third&#45;to&#45;color.ts">
<path fill="#ddfeff" stroke="black" d="M277.4,-341.75C277.4,-341.75 203.4,-341.75 203.4,-341.75 200.4,-341.75 197.4,-338.75 197.4,-335.75 197.4,-335.75 197.4,-329.75 197.4,-329.75 197.4,-326.75 200.4,-323.75 203.4,-323.75 203.4,-323.75 277.4,-323.75 277.4,-323.75 280.4,-323.75 283.4,-326.75 283.4,-329.75 283.4,-329.75 283.4,-335.75 283.4,-335.75 283.4,-338.75 280.4,-341.75 277.4,-341.75"/>
<text text-anchor="start" x="205.4" y="-330.55" font-family="Helvetica,sans-Serif" font-size="9.00">third&#45;to&#45;color.ts</text>
</a>
</g>
</g>
<!-- packages/util/color/src/third&#45;to&#45;color.ts&#45;&gt;packages/tonal&#45;objects/src/interval/distance.ts -->
<g id="edge28" class="edge">
<title>packages/util/color/src/third&#45;to&#45;color.ts&#45;&gt;packages/tonal&#45;objects/src/interval/distance.ts</title>
<path fill="none" stroke="#000000" stroke-width="2" stroke-opacity="0.200000" d="M208.95,-323.67C182.45,-316.01 144.47,-305.05 116.46,-296.96"/>
<polygon fill="#000000" fill-opacity="0.200000" stroke="#000000" stroke-width="2" stroke-opacity="0.200000" points="116.99,-294.93 110.64,-295.28 115.83,-298.96 116.99,-294.93"/>
</g>
<!-- packages/util/color/src/third&#45;to&#45;color.ts&#45;&gt;packages/tonal&#45;objects/src/interval/get.ts -->
<g id="edge29" class="edge">
<title>packages/util/color/src/third&#45;to&#45;color.ts&#45;&gt;packages/tonal&#45;objects/src/interval/get.ts</title>
<path fill="none" stroke="#000000" stroke-width="2" stroke-opacity="0.200000" d="M233.34,-341.96C216.35,-364.1 173.12,-420.44 152.91,-446.78"/>
<polygon fill="#000000" fill-opacity="0.200000" stroke="#000000" stroke-width="2" stroke-opacity="0.200000" points="151.18,-445.59 149.19,-451.63 154.51,-448.15 151.18,-445.59"/>
</g>
<!-- packages/util/color/src/third&#45;to&#45;color.ts&#45;&gt;packages/tonal&#45;objects/src/note/chroma.ts -->
<g id="edge30" class="edge">
<title>packages/util/color/src/third&#45;to&#45;color.ts&#45;&gt;packages/tonal&#45;objects/src/note/chroma.ts</title>
<path fill="none" stroke="#000000" stroke-width="2" stroke-opacity="0.200000" d="M255.3,-341.77C287.85,-361.46 365.31,-408.33 402.23,-430.67"/>
<polygon fill="#000000" fill-opacity="0.200000" stroke="#000000" stroke-width="2" stroke-opacity="0.200000" points="401.16,-432.48 407.38,-433.78 403.33,-428.88 401.16,-432.48"/>
</g>
<!-- packages/util/color/src/third&#45;to&#45;color.ts&#45;&gt;packages/util/color/src/hsv2rgb.ts -->
<g id="edge25" class="edge">
<title>packages/util/color/src/third&#45;to&#45;color.ts&#45;&gt;packages/util/color/src/hsv2rgb.ts</title>
<path fill="none" stroke="#000000" stroke-width="2" stroke-opacity="0.200000" d="M245.59,-323.41C261.42,-294.9 309.24,-208.81 328.6,-173.94"/>
<polygon fill="#000000" fill-opacity="0.200000" stroke="#000000" stroke-width="2" stroke-opacity="0.200000" points="330.59,-174.69 331.66,-168.43 326.91,-172.65 330.59,-174.69"/>
</g>
<!-- packages/util/color/src/third&#45;to&#45;color.ts&#45;&gt;packages/util/color/src/rgb&#45;to&#45;string.ts -->
<g id="edge26" class="edge">
<title>packages/util/color/src/third&#45;to&#45;color.ts&#45;&gt;packages/util/color/src/rgb&#45;to&#45;string.ts</title>
<path fill="none" stroke="#000000" stroke-width="2" stroke-opacity="0.200000" d="M250.3,-323.73C268.6,-307.06 307.79,-271.36 329.1,-251.95"/>
<polygon fill="#000000" fill-opacity="0.200000" stroke="#000000" stroke-width="2" stroke-opacity="0.200000" points="330.59,-253.43 333.61,-247.83 327.77,-250.32 330.59,-253.43"/>
</g>
<!-- packages/util/color/src/third&#45;to&#45;color.ts&#45;&gt;packages/util/color/src/green&#45;hue.ts -->
<g id="edge24" class="edge">
<title>packages/util/color/src/third&#45;to&#45;color.ts&#45;&gt;packages/util/color/src/green&#45;hue.ts</title>
<path fill="none" stroke="#000000" stroke-width="2" stroke-opacity="0.200000" d="M241.47,-323.66C244.09,-301.28 250.89,-243.36 254.14,-215.66"/>
<polygon fill="#000000" fill-opacity="0.200000" stroke="#000000" stroke-width="2" stroke-opacity="0.200000" points="256.23,-215.81 254.85,-209.61 252.06,-215.32 256.23,-215.81"/>
</g>
<!-- packages/util/color/src/third&#45;to&#45;color.ts&#45;&gt;packages/util/math/src/basic&#45;function/mod.ts -->
<g id="edge27" class="edge">
<title>packages/util/color/src/third&#45;to&#45;color.ts&#45;&gt;packages/util/math/src/basic&#45;function/mod.ts</title>
<path fill="none" stroke="#000000" stroke-width="2" stroke-opacity="0.200000" d="M283.82,-338.09C285.94,-338.35 288.05,-338.61 290.13,-338.87"/>
<polygon fill="#000000" fill-opacity="0.200000" stroke="#000000" stroke-width="2" stroke-opacity="0.200000" points="290.05,-340.98 296.26,-339.62 290.56,-336.81 290.05,-340.98"/>
</g>
</g>
</svg>
