<?xml version="1.0" encoding="UTF-8" standalone="no"?>
<!DOCTYPE svg PUBLIC "-//W3C//DTD SVG 1.1//EN"
 "http://www.w3.org/Graphics/SVG/1.1/DTD/svg11.dtd">
<!-- Generated by graphviz version 2.43.0 (0)
 -->
<!-- Title: dependency&#45;cruiser output Pages: 1 -->
<svg width="375pt" height="836pt"
 viewBox="0.00 0.00 375.00 836.00" xmlns="http://www.w3.org/2000/svg" xmlns:xlink="http://www.w3.org/1999/xlink">
<g id="graph0" class="graph" transform="scale(1 1) rotate(0) translate(4 832)">
<title>dependency&#45;cruiser output</title>
<polygon fill="white" stroke="transparent" points="-4,4 -4,-832 371,-832 371,4 -4,4"/>
<g id="clust1" class="cluster">
<title>cluster_node_modules</title>
<path fill="#ffffff" stroke="black" stroke-width="2" d="M267,-8C267,-8 333,-8 333,-8 339,-8 345,-14 345,-20 345,-20 345,-112 345,-112 345,-118 339,-124 333,-124 333,-124 267,-124 267,-124 261,-124 255,-118 255,-112 255,-112 255,-20 255,-20 255,-14 261,-8 267,-8"/>
<text text-anchor="middle" x="300" y="-112.8" font-family="Helvetica,sans-Serif" font-weight="bold" font-size="9.00">node_modules</text>
</g>
<g id="clust2" class="cluster">
<title>cluster_node_modules/@tonaljs</title>
<path fill="#ffffff" stroke="black" stroke-width="2" d="M277,-16C277,-16 323,-16 323,-16 329,-16 335,-22 335,-28 335,-28 335,-86 335,-86 335,-92 329,-98 323,-98 323,-98 277,-98 277,-98 271,-98 265,-92 265,-86 265,-86 265,-28 265,-28 265,-22 271,-16 277,-16"/>
<text text-anchor="middle" x="300" y="-86.8" font-family="Helvetica,sans-Serif" font-weight="bold" font-size="9.00">@tonaljs</text>
</g>
<g id="clust3" class="cluster">
<title>cluster_packages</title>
<path fill="#ffffff" stroke="black" stroke-width="2" d="M20,-132C20,-132 347,-132 347,-132 353,-132 359,-138 359,-144 359,-144 359,-808 359,-808 359,-814 353,-820 347,-820 347,-820 20,-820 20,-820 14,-820 8,-814 8,-808 8,-808 8,-144 8,-144 8,-138 14,-132 20,-132"/>
<text text-anchor="middle" x="183.5" y="-808.8" font-family="Helvetica,sans-Serif" font-weight="bold" font-size="9.00">packages</text>
</g>
<g id="clust4" class="cluster">
<title>cluster_packages/tonal&#45;objects</title>
<path fill="#ffffff" stroke="black" stroke-width="2" d="M125,-140C125,-140 215,-140 215,-140 221,-140 227,-146 227,-152 227,-152 227,-338 227,-338 227,-344 221,-350 215,-350 215,-350 125,-350 125,-350 119,-350 113,-344 113,-338 113,-338 113,-152 113,-152 113,-146 119,-140 125,-140"/>
<text text-anchor="middle" x="170" y="-338.8" font-family="Helvetica,sans-Serif" font-weight="bold" font-size="9.00">tonal&#45;objects</text>
</g>
<g id="clust5" class="cluster">
<title>cluster_packages/tonal&#45;objects/src</title>
<path fill="#ffffff" stroke="black" stroke-width="2" d="M133,-148C133,-148 207,-148 207,-148 213,-148 219,-154 219,-160 219,-160 219,-312 219,-312 219,-318 213,-324 207,-324 207,-324 133,-324 133,-324 127,-324 121,-318 121,-312 121,-312 121,-160 121,-160 121,-154 127,-148 133,-148"/>
<text text-anchor="middle" x="170" y="-312.8" font-family="Helvetica,sans-Serif" font-weight="bold" font-size="9.00">src</text>
</g>
<g id="clust6" class="cluster">
<title>cluster_packages/tonal&#45;objects/src/interval</title>
<path fill="#ffffff" stroke="black" stroke-width="2" d="M141,-216C141,-216 199,-216 199,-216 205,-216 211,-222 211,-228 211,-228 211,-286 211,-286 211,-292 205,-298 199,-298 199,-298 141,-298 141,-298 135,-298 129,-292 129,-286 129,-286 129,-228 129,-228 129,-222 135,-216 141,-216"/>
<text text-anchor="start" x="150" y="-286.8" font-family="Helvetica,sans-Serif" font-weight="bold" font-size="9.00">interval</text>
</g>
<g id="clust7" class="cluster">
<title>cluster_packages/tonal&#45;objects/src/note</title>
<path fill="#ffffff" stroke="black" stroke-width="2" d="M143,-156C143,-156 197,-156 197,-156 203,-156 209,-162 209,-168 209,-168 209,-196 209,-196 209,-202 203,-208 197,-208 197,-208 143,-208 143,-208 137,-208 131,-202 131,-196 131,-196 131,-168 131,-168 131,-162 137,-156 143,-156"/>
<text text-anchor="start" x="158" y="-196.8" font-family="Helvetica,sans-Serif" font-weight="bold" font-size="9.00">note</text>
</g>
<g id="clust8" class="cluster">
<title>cluster_packages/util</title>
<path fill="#ffffff" stroke="black" stroke-width="2" d="M28,-358C28,-358 339,-358 339,-358 345,-358 351,-364 351,-370 351,-370 351,-782 351,-782 351,-788 345,-794 339,-794 339,-794 28,-794 28,-794 22,-794 16,-788 16,-782 16,-782 16,-370 16,-370 16,-364 22,-358 28,-358"/>
<text text-anchor="middle" x="183.5" y="-782.8" font-family="Helvetica,sans-Serif" font-weight="bold" font-size="9.00">util</text>
</g>
<g id="clust9" class="cluster">
<title>cluster_packages/util/color</title>
<path fill="#ffffff" stroke="black" stroke-width="2" d="M36,-366C36,-366 331,-366 331,-366 337,-366 343,-372 343,-378 343,-378 343,-500 343,-500 343,-506 337,-512 331,-512 331,-512 36,-512 36,-512 30,-512 24,-506 24,-500 24,-500 24,-378 24,-378 24,-372 30,-366 36,-366"/>
<text text-anchor="middle" x="183.5" y="-500.8" font-family="Helvetica,sans-Serif" font-weight="bold" font-size="9.00">color</text>
</g>
<g id="clust10" class="cluster">
<title>cluster_packages/util/color/dist</title>
<path fill="#ffffff" stroke="black" stroke-width="2" d="M277,-434C277,-434 323,-434 323,-434 329,-434 335,-440 335,-446 335,-446 335,-474 335,-474 335,-480 329,-486 323,-486 323,-486 277,-486 277,-486 271,-486 265,-480 265,-474 265,-474 265,-446 265,-446 265,-440 271,-434 277,-434"/>
<text text-anchor="middle" x="300" y="-474.8" font-family="Helvetica,sans-Serif" font-weight="bold" font-size="9.00">dist</text>
</g>
<g id="clust11" class="cluster">
<title>cluster_packages/util/color/src</title>
<path fill="#ffffff" stroke="black" stroke-width="2" d="M147,-374C147,-374 323,-374 323,-374 329,-374 335,-380 335,-386 335,-386 335,-414 335,-414 335,-420 329,-426 323,-426 323,-426 147,-426 147,-426 141,-426 135,-420 135,-414 135,-414 135,-386 135,-386 135,-380 141,-374 147,-374"/>
<text text-anchor="middle" x="235" y="-414.8" font-family="Helvetica,sans-Serif" font-weight="bold" font-size="9.00">src</text>
</g>
<g id="clust12" class="cluster">
<title>cluster_packages/util/math</title>
<path fill="#ffffff" stroke="black" stroke-width="2" d="M122,-520C122,-520 219,-520 219,-520 225,-520 231,-526 231,-532 231,-532 231,-628 231,-628 231,-634 225,-640 219,-640 219,-640 122,-640 122,-640 116,-640 110,-634 110,-628 110,-628 110,-532 110,-532 110,-526 116,-520 122,-520"/>
<text text-anchor="middle" x="170.5" y="-628.8" font-family="Helvetica,sans-Serif" font-weight="bold" font-size="9.00">math</text>
</g>
<g id="clust13" class="cluster">
<title>cluster_packages/util/math/src</title>
<path fill="#ffffff" stroke="black" stroke-width="2" d="M130,-528C130,-528 211,-528 211,-528 217,-528 223,-534 223,-540 223,-540 223,-602 223,-602 223,-608 217,-614 211,-614 211,-614 130,-614 130,-614 124,-614 118,-608 118,-602 118,-602 118,-540 118,-540 118,-534 124,-528 130,-528"/>
<text text-anchor="middle" x="170.5" y="-602.8" font-family="Helvetica,sans-Serif" font-weight="bold" font-size="9.00">src</text>
</g>
<g id="clust14" class="cluster">
<title>cluster_packages/util/math/src/basic&#45;function</title>
<path fill="#ffffff" stroke="black" stroke-width="2" d="M138,-536C138,-536 203,-536 203,-536 209,-536 215,-542 215,-548 215,-548 215,-576 215,-576 215,-582 209,-588 203,-588 203,-588 138,-588 138,-588 132,-588 126,-582 126,-576 126,-576 126,-548 126,-548 126,-542 132,-536 138,-536"/>
<text text-anchor="middle" x="170.5" y="-576.8" font-family="Helvetica,sans-Serif" font-weight="bold" font-size="9.00">basic&#45;function</text>
</g>
<g id="clust15" class="cluster">
<title>cluster_packages/util/stdlib</title>
<path fill="#ffffff" stroke="black" stroke-width="2" d="M124,-648C124,-648 216,-648 216,-648 222,-648 228,-654 228,-660 228,-660 228,-756 228,-756 228,-762 222,-768 216,-768 216,-768 124,-768 124,-768 118,-768 112,-762 112,-756 112,-756 112,-660 112,-660 112,-654 118,-648 124,-648"/>
<text text-anchor="middle" x="170" y="-756.8" font-family="Helvetica,sans-Serif" font-weight="bold" font-size="9.00">stdlib</text>
</g>
<g id="clust16" class="cluster">
<title>cluster_packages/util/stdlib/src</title>
<path fill="#ffffff" stroke="black" stroke-width="2" d="M132,-656C132,-656 208,-656 208,-656 214,-656 220,-662 220,-668 220,-668 220,-730 220,-730 220,-736 214,-742 208,-742 208,-742 132,-742 132,-742 126,-742 120,-736 120,-730 120,-730 120,-668 120,-668 120,-662 126,-656 132,-656"/>
<text text-anchor="middle" x="170" y="-730.8" font-family="Helvetica,sans-Serif" font-weight="bold" font-size="9.00">src</text>
</g>
<g id="clust17" class="cluster">
<title>cluster_packages/util/stdlib/src/assertion</title>
<path fill="#ffffff" stroke="black" stroke-width="2" d="M140,-664C140,-664 200,-664 200,-664 206,-664 212,-670 212,-676 212,-676 212,-704 212,-704 212,-710 206,-716 200,-716 200,-716 140,-716 140,-716 134,-716 128,-710 128,-704 128,-704 128,-676 128,-676 128,-670 134,-664 140,-664"/>
<text text-anchor="middle" x="170" y="-704.8" font-family="Helvetica,sans-Serif" font-weight="bold" font-size="9.00">assertion</text>
</g>
<!-- node_modules/@tonaljs/interval -->
<g id="node1" class="node">
<title>node_modules/@tonaljs/interval</title>
<g id="a_node1"><a xlink:href="https://www.npmjs.com/package/@tonaljs/interval" xlink:title="interval">
<polygon fill="#c40b0a" fill-opacity="0.101961" stroke="black" points="327,-72 275,-72 273,-70 273,-54 325,-54 327,-56 327,-72"/>
<polyline fill="none" stroke="black" points="325,-70 273,-70 "/>
<polyline fill="none" stroke="black" points="325,-70 325,-54 "/>
<polyline fill="none" stroke="black" points="325,-70 327,-72 "/>
<text text-anchor="start" x="283" y="-60.8" font-family="Helvetica,sans-Serif" font-size="9.00" fill="#c40b0a">interval</text>
</a>
</g>
</g>
<!-- node_modules/@tonaljs/note -->
<g id="node2" class="node">
<title>node_modules/@tonaljs/note</title>
<g id="a_node2"><a xlink:href="https://www.npmjs.com/package/@tonaljs/note" xlink:title="note">
<polygon fill="#c40b0a" fill-opacity="0.101961" stroke="black" points="327,-42 275,-42 273,-40 273,-24 325,-24 327,-26 327,-42"/>
<polyline fill="none" stroke="black" points="325,-40 273,-40 "/>
<polyline fill="none" stroke="black" points="325,-40 325,-24 "/>
<polyline fill="none" stroke="black" points="325,-40 327,-42 "/>
<text text-anchor="start" x="289.5" y="-30.8" font-family="Helvetica,sans-Serif" font-size="9.00" fill="#c40b0a">note</text>
</a>
</g>
</g>
<!-- packages/tonal&#45;objects/src/interval/distance.ts -->
<g id="node3" class="node">
<title>packages/tonal&#45;objects/src/interval/distance.ts</title>
<g id="a_node3"><a xlink:href="packages/tonal-objects/src/interval/distance.ts" xlink:title="distance.ts">
<polygon fill="#ddfeff" stroke="black" points="203,-272 201.5,-274 191,-274 189.5,-272 137,-272 137,-254 203,-254 203,-272"/>
<text text-anchor="start" x="145" y="-260.8" font-family="Helvetica,sans-Serif" font-size="9.00">distance.ts</text>
</a>
</g>
</g>
<!-- packages/tonal&#45;objects/src/interval/get.ts -->
<g id="node4" class="node">
<title>packages/tonal&#45;objects/src/interval/get.ts</title>
<g id="a_node4"><a xlink:href="packages/tonal-objects/src/interval/get.ts" xlink:title="get.ts">
<path fill="#ddfeff" stroke="black" d="M191,-242C191,-242 149,-242 149,-242 146,-242 143,-239 143,-236 143,-236 143,-230 143,-230 143,-227 146,-224 149,-224 149,-224 191,-224 191,-224 194,-224 197,-227 197,-230 197,-230 197,-236 197,-236 197,-239 194,-242 191,-242"/>
<text text-anchor="start" x="156.5" y="-230.8" font-family="Helvetica,sans-Serif" font-size="9.00">get.ts</text>
</a>
</g>
</g>
<!-- packages/tonal&#45;objects/src/interval/get.ts&#45;&gt;node_modules/@tonaljs/interval -->
<g id="edge1" class="edge">
<title>packages/tonal&#45;objects/src/interval/get.ts&#45;&gt;node_modules/@tonaljs/interval</title>
<path fill="none" stroke="#000000" stroke-opacity="0.200000" d="M177.88,-223.86C198.98,-195.84 262.85,-111.01 288.34,-77.16"/>
<polygon fill="#000000" fill-opacity="0.200000" stroke="#000000" stroke-opacity="0.200000" points="293.76,-73.45 288.48,-76.98 290.41,-70.92 293.76,-73.45"/>
</g>
<!-- packages/tonal&#45;objects/src/note/chroma.ts -->
<g id="node5" class="node">
<title>packages/tonal&#45;objects/src/note/chroma.ts</title>
<g id="a_node5"><a xlink:href="packages/tonal-objects/src/note/chroma.ts" xlink:title="chroma.ts">
<path fill="#ddfeff" stroke="black" d="M195,-182C195,-182 145,-182 145,-182 142,-182 139,-179 139,-176 139,-176 139,-170 139,-170 139,-167 142,-164 145,-164 145,-164 195,-164 195,-164 198,-164 201,-167 201,-170 201,-170 201,-176 201,-176 201,-179 198,-182 195,-182"/>
<text text-anchor="start" x="147" y="-170.8" font-family="Helvetica,sans-Serif" font-size="9.00">chroma.ts</text>
</a>
</g>
</g>
<!-- packages/tonal&#45;objects/src/note/chroma.ts&#45;&gt;node_modules/@tonaljs/note -->
<g id="edge2" class="edge">
<title>packages/tonal&#45;objects/src/note/chroma.ts&#45;&gt;node_modules/@tonaljs/note</title>
<path fill="none" stroke="#000000" stroke-opacity="0.200000" d="M179.4,-163.81C201.38,-139.78 260.67,-74.93 286.59,-46.58"/>
<polygon fill="#000000" fill-opacity="0.200000" stroke="#000000" stroke-opacity="0.200000" points="292.29,-43.45 286.69,-46.47 289.19,-40.62 292.29,-43.45"/>
</g>
<!-- packages/util/color/dist/index.js -->
<g id="node6" class="node">
<title>packages/util/color/dist/index.js</title>
<g id="a_node6"><a xlink:href="packages/util/color/dist/index.js" xlink:title="index.js">
<polygon fill="#ffffcc" stroke="black" points="327,-460 325.5,-462 315,-462 313.5,-460 273,-460 273,-442 327,-442 327,-460"/>
<text text-anchor="start" x="282.5" y="-448.8" font-family="Helvetica,sans-Serif" font-size="9.00">index.js</text>
</a>
</g>
</g>
<!-- packages/util/color/index.test.ts -->
<g id="node7" class="node">
<title>packages/util/color/index.test.ts</title>
<g id="a_node7"><a xlink:href="packages/util/color/index.test.ts" xlink:title="index.test.ts">
<path fill="#ddfeff" stroke="black" d="M200.5,-456C200.5,-456 139.5,-456 139.5,-456 136.5,-456 133.5,-453 133.5,-450 133.5,-450 133.5,-444 133.5,-444 133.5,-441 136.5,-438 139.5,-438 139.5,-438 200.5,-438 200.5,-438 203.5,-438 206.5,-441 206.5,-444 206.5,-444 206.5,-450 206.5,-450 206.5,-453 203.5,-456 200.5,-456"/>
<text text-anchor="start" x="141.5" y="-444.8" font-family="Helvetica,sans-Serif" font-size="9.00">index.test.ts</text>
</a>
</g>
</g>
<!-- packages/util/color/index.test.ts&#45;&gt;packages/util/color/dist/index.js -->
<g id="edge3" class="edge">
<title>packages/util/color/index.test.ts&#45;&gt;packages/util/color/dist/index.js</title>
<path fill="none" stroke="#000000" stroke-width="2" stroke-opacity="0.200000" d="M206.66,-448.11C225.53,-448.7 248.53,-449.42 266.85,-450"/>
<polygon fill="#000000" fill-opacity="0.200000" stroke="#000000" stroke-width="2" stroke-opacity="0.200000" points="266.81,-452.09 272.87,-450.18 266.94,-447.9 266.81,-452.09"/>
</g>
<!-- packages/util/color/src/util.ts -->
<g id="node8" class="node">
<title>packages/util/color/src/util.ts</title>
<g id="a_node8"><a xlink:href="packages/util/color/src/util.ts" xlink:title="util.ts">
<path fill="#ddfeff" stroke="black" d="M321,-400C321,-400 279,-400 279,-400 276,-400 273,-397 273,-394 273,-394 273,-388 273,-388 273,-385 276,-382 279,-382 279,-382 321,-382 321,-382 324,-382 327,-385 327,-388 327,-388 327,-394 327,-394 327,-397 324,-400 321,-400"/>
<text text-anchor="start" x="287" y="-388.8" font-family="Helvetica,sans-Serif" font-size="9.00">util.ts</text>
</a>
</g>
</g>
<!-- packages/util/color/index.test.ts&#45;&gt;packages/util/color/src/util.ts -->
<g id="edge4" class="edge">
<title>packages/util/color/index.test.ts&#45;&gt;packages/util/color/src/util.ts</title>
<path fill="none" stroke="#000000" stroke-width="2" stroke-opacity="0.200000" d="M191.85,-437.88C213.89,-428.24 248.7,-413.01 272.63,-402.54"/>
<polygon fill="#000000" fill-opacity="0.200000" stroke="#000000" stroke-width="2" stroke-opacity="0.200000" points="273.5,-404.45 278.16,-400.12 271.82,-400.6 273.5,-404.45"/>
</g>
<!-- packages/util/color/index.ts -->
<g id="node9" class="node">
<title>packages/util/color/index.ts</title>
<g id="a_node9"><a xlink:href="packages/util/color/index.ts" xlink:title="index.ts">
<path fill="#ddfeff" stroke="black" d="M80,-396C80,-396 38,-396 38,-396 35,-396 32,-393 32,-390 32,-390 32,-384 32,-384 32,-381 35,-378 38,-378 38,-378 80,-378 80,-378 83,-378 86,-381 86,-384 86,-384 86,-390 86,-390 86,-393 83,-396 80,-396"/>
<text text-anchor="start" x="40.5" y="-384.8" font-family="Helvetica,sans-Serif" font-size="9.00">index.ts</text>
</a>
</g>
</g>
<!-- packages/util/color/index.ts&#45;&gt;packages/tonal&#45;objects/src/interval/distance.ts -->
<g id="edge8" class="edge">
<title>packages/util/color/index.ts&#45;&gt;packages/tonal&#45;objects/src/interval/distance.ts</title>
<path fill="none" stroke="#000000" stroke-width="2" stroke-opacity="0.200000" d="M68.19,-377.68C87.22,-356.03 134.49,-302.25 156.88,-276.79"/>
<polygon fill="#000000" fill-opacity="0.200000" stroke="#000000" stroke-width="2" stroke-opacity="0.200000" points="158.62,-277.98 161.01,-272.09 155.47,-275.21 158.62,-277.98"/>
</g>
<!-- packages/util/color/index.ts&#45;&gt;packages/tonal&#45;objects/src/interval/get.ts -->
<g id="edge9" class="edge">
<title>packages/util/color/index.ts&#45;&gt;packages/tonal&#45;objects/src/interval/get.ts</title>
<path fill="none" stroke="#000000" stroke-width="2" stroke-opacity="0.200000" d="M66.49,-377.83C84.78,-352 136.8,-278.5 158.88,-247.29"/>
<polygon fill="#000000" fill-opacity="0.200000" stroke="#000000" stroke-width="2" stroke-opacity="0.200000" points="160.65,-248.43 162.4,-242.32 157.22,-246 160.65,-248.43"/>
</g>
<!-- packages/util/color/index.ts&#45;&gt;packages/tonal&#45;objects/src/note/chroma.ts -->
<g id="edge10" class="edge">
<title>packages/util/color/index.ts&#45;&gt;packages/tonal&#45;objects/src/note/chroma.ts</title>
<path fill="none" stroke="#000000" stroke-width="2" stroke-opacity="0.200000" d="M64.68,-377.8C81.69,-344.41 140.32,-229.31 161.38,-187.95"/>
<polygon fill="#000000" fill-opacity="0.200000" stroke="#000000" stroke-width="2" stroke-opacity="0.200000" points="163.36,-188.7 164.21,-182.4 159.62,-186.8 163.36,-188.7"/>
</g>
<!-- packages/util/color/src/index.ts -->
<g id="node10" class="node">
<title>packages/util/color/src/index.ts</title>
<g id="a_node10"><a xlink:href="packages/util/color/src/index.ts" xlink:title="index.ts">
<path fill="#ddfeff" stroke="black" d="M191,-400C191,-400 149,-400 149,-400 146,-400 143,-397 143,-394 143,-394 143,-388 143,-388 143,-385 146,-382 149,-382 149,-382 191,-382 191,-382 194,-382 197,-385 197,-388 197,-388 197,-394 197,-394 197,-397 194,-400 191,-400"/>
<text text-anchor="start" x="151.5" y="-388.8" font-family="Helvetica,sans-Serif" font-size="9.00">index.ts</text>
</a>
</g>
</g>
<!-- packages/util/color/index.ts&#45;&gt;packages/util/color/src/index.ts -->
<g id="edge5" class="edge">
<title>packages/util/color/index.ts&#45;&gt;packages/util/color/src/index.ts</title>
<path fill="none" stroke="#000000" stroke-width="2" stroke-opacity="0.200000" d="M86.11,-387.96C101.23,-388.51 120.4,-389.22 136.5,-389.81"/>
<polygon fill="#000000" fill-opacity="0.200000" stroke="#000000" stroke-width="2" stroke-opacity="0.200000" points="136.65,-391.91 142.73,-390.04 136.81,-387.72 136.65,-391.91"/>
</g>
<!-- packages/util/math/src/basic&#45;function/mod.ts -->
<g id="node11" class="node">
<title>packages/util/math/src/basic&#45;function/mod.ts</title>
<g id="a_node11"><a xlink:href="packages/util/math/src/basic-function/mod.ts" xlink:title="mod.ts">
<path fill="#ddfeff" stroke="black" d="M191,-562C191,-562 149,-562 149,-562 146,-562 143,-559 143,-556 143,-556 143,-550 143,-550 143,-547 146,-544 149,-544 149,-544 191,-544 191,-544 194,-544 197,-547 197,-550 197,-550 197,-556 197,-556 197,-559 194,-562 191,-562"/>
<text text-anchor="start" x="154" y="-550.8" font-family="Helvetica,sans-Serif" font-size="9.00">mod.ts</text>
</a>
</g>
</g>
<!-- packages/util/color/index.ts&#45;&gt;packages/util/math/src/basic&#45;function/mod.ts -->
<g id="edge6" class="edge">
<title>packages/util/color/index.ts&#45;&gt;packages/util/math/src/basic&#45;function/mod.ts</title>
<path fill="none" stroke="#000000" stroke-width="2" stroke-opacity="0.200000" d="M66.17,-396.4C84.31,-424.02 137.53,-505.07 159.42,-538.41"/>
<polygon fill="#000000" fill-opacity="0.200000" stroke="#000000" stroke-width="2" stroke-opacity="0.200000" points="157.85,-539.84 162.9,-543.7 161.36,-537.53 157.85,-539.84"/>
</g>
<!-- packages/util/stdlib/src/assertion/assertion.ts -->
<g id="node12" class="node">
<title>packages/util/stdlib/src/assertion/assertion.ts</title>
<g id="a_node12"><a xlink:href="packages/util/stdlib/src/assertion/assertion.ts" xlink:title="assertion.ts">
<path fill="#ddfeff" stroke="black" d="M198,-690C198,-690 142,-690 142,-690 139,-690 136,-687 136,-684 136,-684 136,-678 136,-678 136,-675 139,-672 142,-672 142,-672 198,-672 198,-672 201,-672 204,-675 204,-678 204,-678 204,-684 204,-684 204,-687 201,-690 198,-690"/>
<text text-anchor="start" x="144" y="-678.8" font-family="Helvetica,sans-Serif" font-size="9.00">assertion.ts</text>
</a>
</g>
</g>
<!-- packages/util/color/index.ts&#45;&gt;packages/util/stdlib/src/assertion/assertion.ts -->
<g id="edge7" class="edge">
<title>packages/util/color/index.ts&#45;&gt;packages/util/stdlib/src/assertion/assertion.ts</title>
<path fill="none" stroke="#000000" stroke-width="2" stroke-opacity="0.200000" d="M63.38,-396.12C78.99,-438.22 144.13,-613.91 163.53,-666.23"/>
<polygon fill="#000000" fill-opacity="0.200000" stroke="#000000" stroke-width="2" stroke-opacity="0.200000" points="161.6,-667.09 165.66,-671.99 165.54,-665.63 161.6,-667.09"/>
</g>
<!-- packages/util/color/src/index.ts&#45;&gt;packages/util/color/src/util.ts -->
<g id="edge11" class="edge">
<title>packages/util/color/src/index.ts&#45;&gt;packages/util/color/src/util.ts</title>
<path fill="none" stroke="#000000" stroke-width="2" stroke-opacity="0.200000" d="M197.21,-391C217.32,-391 245.17,-391 266.66,-391"/>
<polygon fill="#000000" fill-opacity="0.200000" stroke="#000000" stroke-width="2" stroke-opacity="0.200000" points="272.82,-393.1 266.82,-391 272.82,-388.9 272.82,-393.1"/>
</g>
</g>
</svg>
