<?xml version="1.0" encoding="UTF-8" standalone="no"?>
<!DOCTYPE svg PUBLIC "-//W3C//DTD SVG 1.1//EN"
 "http://www.w3.org/Graphics/SVG/1.1/DTD/svg11.dtd">
<!-- Generated by graphviz version 2.43.0 (0)
 -->
<!-- Title: dependency&#45;cruiser output Pages: 1 -->
<svg width="298pt" height="520pt"
 viewBox="0.00 0.00 298.00 520.00" xmlns="http://www.w3.org/2000/svg" xmlns:xlink="http://www.w3.org/1999/xlink">
<g id="graph0" class="graph" transform="scale(1 1) rotate(0) translate(4 516)">
<title>dependency&#45;cruiser output</title>
<polygon fill="white" stroke="transparent" points="-4,4 -4,-516 294,-516 294,4 -4,4"/>
<g id="clust1" class="cluster">
<title>cluster_packages</title>
<path fill="#ffffff" stroke="black" stroke-width="2" d="M20,-8C20,-8 270,-8 270,-8 276,-8 282,-14 282,-20 282,-20 282,-492 282,-492 282,-498 276,-504 270,-504 270,-504 20,-504 20,-504 14,-504 8,-498 8,-492 8,-492 8,-20 8,-20 8,-14 14,-8 20,-8"/>
<text text-anchor="middle" x="145" y="-492.8" font-family="Helvetica,sans-Serif" font-weight="bold" font-size="9.00">packages</text>
</g>
<g id="clust2" class="cluster">
<title>cluster_packages/tonal&#45;objects</title>
<path fill="#ffffff" stroke="black" stroke-width="2" d="M106,-392C106,-392 168,-392 168,-392 174,-392 180,-398 180,-404 180,-404 180,-466 180,-466 180,-472 174,-478 168,-478 168,-478 106,-478 106,-478 100,-478 94,-472 94,-466 94,-466 94,-404 94,-404 94,-398 100,-392 106,-392"/>
<text text-anchor="middle" x="137" y="-466.8" font-family="Helvetica,sans-Serif" font-weight="bold" font-size="9.00">tonal&#45;objects</text>
</g>
<g id="clust3" class="cluster">
<title>cluster_packages/tonal&#45;objects/dist</title>
<path fill="#ffffff" stroke="black" stroke-width="2" d="M114,-400C114,-400 160,-400 160,-400 166,-400 172,-406 172,-412 172,-412 172,-440 172,-440 172,-446 166,-452 160,-452 160,-452 114,-452 114,-452 108,-452 102,-446 102,-440 102,-440 102,-412 102,-412 102,-406 108,-400 114,-400"/>
<text text-anchor="middle" x="137" y="-440.8" font-family="Helvetica,sans-Serif" font-weight="bold" font-size="9.00">dist</text>
</g>
<g id="clust4" class="cluster">
<title>cluster_packages/util</title>
<path fill="#ffffff" stroke="black" stroke-width="2" d="M28,-16C28,-16 262,-16 262,-16 268,-16 274,-22 274,-28 274,-28 274,-372 274,-372 274,-378 268,-384 262,-384 262,-384 28,-384 28,-384 22,-384 16,-378 16,-372 16,-372 16,-28 16,-28 16,-22 22,-16 28,-16"/>
<text text-anchor="middle" x="145" y="-372.8" font-family="Helvetica,sans-Serif" font-weight="bold" font-size="9.00">util</text>
</g>
<g id="clust5" class="cluster">
<title>cluster_packages/util/color</title>
<path fill="#ffffff" stroke="black" stroke-width="2" d="M36,-24C36,-24 254,-24 254,-24 260,-24 266,-30 266,-36 266,-36 266,-158 266,-158 266,-164 260,-170 254,-170 254,-170 36,-170 36,-170 30,-170 24,-164 24,-158 24,-158 24,-36 24,-36 24,-30 30,-24 36,-24"/>
<text text-anchor="middle" x="145" y="-158.8" font-family="Helvetica,sans-Serif" font-weight="bold" font-size="9.00">color</text>
</g>
<g id="clust6" class="cluster">
<title>cluster_packages/util/color/dist</title>
<path fill="#ffffff" stroke="black" stroke-width="2" d="M200,-92C200,-92 246,-92 246,-92 252,-92 258,-98 258,-104 258,-104 258,-132 258,-132 258,-138 252,-144 246,-144 246,-144 200,-144 200,-144 194,-144 188,-138 188,-132 188,-132 188,-104 188,-104 188,-98 194,-92 200,-92"/>
<text text-anchor="middle" x="223" y="-132.8" font-family="Helvetica,sans-Serif" font-weight="bold" font-size="9.00">dist</text>
</g>
<g id="clust7" class="cluster">
<title>cluster_packages/util/color/src</title>
<path fill="#ffffff" stroke="black" stroke-width="2" d="M114,-32C114,-32 246,-32 246,-32 252,-32 258,-38 258,-44 258,-44 258,-72 258,-72 258,-78 252,-84 246,-84 246,-84 114,-84 114,-84 108,-84 102,-78 102,-72 102,-72 102,-44 102,-44 102,-38 108,-32 114,-32"/>
<text text-anchor="middle" x="180" y="-72.8" font-family="Helvetica,sans-Serif" font-weight="bold" font-size="9.00">src</text>
</g>
<g id="clust8" class="cluster">
<title>cluster_packages/util/math</title>
<path fill="#ffffff" stroke="black" stroke-width="2" d="M106,-178C106,-178 168,-178 168,-178 174,-178 180,-184 180,-190 180,-190 180,-252 180,-252 180,-258 174,-264 168,-264 168,-264 106,-264 106,-264 100,-264 94,-258 94,-252 94,-252 94,-190 94,-190 94,-184 100,-178 106,-178"/>
<text text-anchor="middle" x="137" y="-252.8" font-family="Helvetica,sans-Serif" font-weight="bold" font-size="9.00">math</text>
</g>
<g id="clust9" class="cluster">
<title>cluster_packages/util/math/dist</title>
<path fill="#ffffff" stroke="black" stroke-width="2" d="M114,-186C114,-186 160,-186 160,-186 166,-186 172,-192 172,-198 172,-198 172,-226 172,-226 172,-232 166,-238 160,-238 160,-238 114,-238 114,-238 108,-238 102,-232 102,-226 102,-226 102,-198 102,-198 102,-192 108,-186 114,-186"/>
<text text-anchor="middle" x="137" y="-226.8" font-family="Helvetica,sans-Serif" font-weight="bold" font-size="9.00">dist</text>
</g>
<g id="clust10" class="cluster">
<title>cluster_packages/util/stdlib</title>
<path fill="#ffffff" stroke="black" stroke-width="2" d="M106,-272C106,-272 168,-272 168,-272 174,-272 180,-278 180,-284 180,-284 180,-346 180,-346 180,-352 174,-358 168,-358 168,-358 106,-358 106,-358 100,-358 94,-352 94,-346 94,-346 94,-284 94,-284 94,-278 100,-272 106,-272"/>
<text text-anchor="middle" x="137" y="-346.8" font-family="Helvetica,sans-Serif" font-weight="bold" font-size="9.00">stdlib</text>
</g>
<g id="clust11" class="cluster">
<title>cluster_packages/util/stdlib/dist</title>
<path fill="#ffffff" stroke="black" stroke-width="2" d="M114,-280C114,-280 160,-280 160,-280 166,-280 172,-286 172,-292 172,-292 172,-320 172,-320 172,-326 166,-332 160,-332 160,-332 114,-332 114,-332 108,-332 102,-326 102,-320 102,-320 102,-292 102,-292 102,-286 108,-280 114,-280"/>
<text text-anchor="middle" x="137" y="-320.8" font-family="Helvetica,sans-Serif" font-weight="bold" font-size="9.00">dist</text>
</g>
<!-- packages/tonal&#45;objects/dist/index.js -->
<g id="node1" class="node">
<title>packages/tonal&#45;objects/dist/index.js</title>
<g id="a_node1"><a xlink:href="packages/tonal-objects/dist/index.js" xlink:title="index.js">
<polygon fill="#ffffcc" stroke="black" points="164,-426 162.5,-428 152,-428 150.5,-426 110,-426 110,-408 164,-408 164,-426"/>
<text text-anchor="start" x="119.5" y="-414.8" font-family="Helvetica,sans-Serif" font-size="9.00">index.js</text>
</a>
</g>
</g>
<!-- packages/util/color/dist/index.js -->
<g id="node2" class="node">
<title>packages/util/color/dist/index.js</title>
<g id="a_node2"><a xlink:href="packages/util/color/dist/index.js" xlink:title="index.js">
<polygon fill="#ffffcc" stroke="black" points="250,-118 248.5,-120 238,-120 236.5,-118 196,-118 196,-100 250,-100 250,-118"/>
<text text-anchor="start" x="205.5" y="-106.8" font-family="Helvetica,sans-Serif" font-size="9.00">index.js</text>
</a>
</g>
</g>
<!-- packages/util/color/index.test.ts -->
<g id="node3" class="node">
<title>packages/util/color/index.test.ts</title>
<g id="a_node3"><a xlink:href="packages/util/color/index.test.ts" xlink:title="index.test.ts">
<path fill="#ddfeff" stroke="black" d="M167.5,-114C167.5,-114 106.5,-114 106.5,-114 103.5,-114 100.5,-111 100.5,-108 100.5,-108 100.5,-102 100.5,-102 100.5,-99 103.5,-96 106.5,-96 106.5,-96 167.5,-96 167.5,-96 170.5,-96 173.5,-99 173.5,-102 173.5,-102 173.5,-108 173.5,-108 173.5,-111 170.5,-114 167.5,-114"/>
<text text-anchor="start" x="108.5" y="-102.8" font-family="Helvetica,sans-Serif" font-size="9.00">index.test.ts</text>
</a>
</g>
</g>
<!-- packages/util/color/index.test.ts&#45;&gt;packages/util/color/dist/index.js -->
<g id="edge1" class="edge">
<title>packages/util/color/index.test.ts&#45;&gt;packages/util/color/dist/index.js</title>
<path fill="none" stroke="#000000" stroke-width="2" stroke-opacity="0.200000" d="M173.62,-106.7C178.96,-106.95 184.43,-107.21 189.7,-107.46"/>
<polygon fill="#000000" fill-opacity="0.200000" stroke="#000000" stroke-width="2" stroke-opacity="0.200000" points="189.66,-109.56 195.75,-107.75 189.86,-105.37 189.66,-109.56"/>
</g>
<!-- packages/util/color/src/util.ts -->
<g id="node4" class="node">
<title>packages/util/color/src/util.ts</title>
<g id="a_node4"><a xlink:href="packages/util/color/src/util.ts" xlink:title="util.ts">
<path fill="#ddfeff" stroke="black" d="M244,-58C244,-58 202,-58 202,-58 199,-58 196,-55 196,-52 196,-52 196,-46 196,-46 196,-43 199,-40 202,-40 202,-40 244,-40 244,-40 247,-40 250,-43 250,-46 250,-46 250,-52 250,-52 250,-55 247,-58 244,-58"/>
<text text-anchor="start" x="210" y="-46.8" font-family="Helvetica,sans-Serif" font-size="9.00">util.ts</text>
</a>
</g>
</g>
<!-- packages/util/color/index.test.ts&#45;&gt;packages/util/color/src/util.ts -->
<g id="edge2" class="edge">
<title>packages/util/color/index.test.ts&#45;&gt;packages/util/color/src/util.ts</title>
<path fill="none" stroke="#000000" stroke-width="2" stroke-opacity="0.200000" d="M151.87,-95.75C165.94,-86.37 187.8,-71.8 203.37,-61.42"/>
<polygon fill="#000000" fill-opacity="0.200000" stroke="#000000" stroke-width="2" stroke-opacity="0.200000" points="204.56,-63.15 208.39,-58.08 202.23,-59.66 204.56,-63.15"/>
</g>
<!-- packages/util/color/index.ts -->
<g id="node5" class="node">
<title>packages/util/color/index.ts</title>
<g id="a_node5"><a xlink:href="packages/util/color/index.ts" xlink:title="index.ts">
<path fill="#ddfeff" stroke="black" d="M80,-144C80,-144 38,-144 38,-144 35,-144 32,-141 32,-138 32,-138 32,-132 32,-132 32,-129 35,-126 38,-126 38,-126 80,-126 80,-126 83,-126 86,-129 86,-132 86,-132 86,-138 86,-138 86,-141 83,-144 80,-144"/>
<text text-anchor="start" x="40.5" y="-132.8" font-family="Helvetica,sans-Serif" font-size="9.00">index.ts</text>
</a>
</g>
</g>
<!-- packages/util/color/index.ts&#45;&gt;packages/tonal&#45;objects/dist/index.js -->
<g id="edge6" class="edge">
<title>packages/util/color/index.ts&#45;&gt;packages/tonal&#45;objects/dist/index.js</title>
<path fill="none" stroke="#000000" stroke-width="2" stroke-opacity="0.200000" d="M62.44,-144.06C73.41,-184.75 118.14,-350.75 131.93,-401.91"/>
<polygon fill="#000000" fill-opacity="0.200000" stroke="#000000" stroke-width="2" stroke-opacity="0.200000" points="129.94,-402.58 133.53,-407.83 133.99,-401.49 129.94,-402.58"/>
</g>
<!-- packages/util/color/src/index.ts -->
<g id="node6" class="node">
<title>packages/util/color/src/index.ts</title>
<g id="a_node6"><a xlink:href="packages/util/color/src/index.ts" xlink:title="index.ts">
<path fill="#ddfeff" stroke="black" d="M158,-58C158,-58 116,-58 116,-58 113,-58 110,-55 110,-52 110,-52 110,-46 110,-46 110,-43 113,-40 116,-40 116,-40 158,-40 158,-40 161,-40 164,-43 164,-46 164,-46 164,-52 164,-52 164,-55 161,-58 158,-58"/>
<text text-anchor="start" x="118.5" y="-46.8" font-family="Helvetica,sans-Serif" font-size="9.00">index.ts</text>
</a>
</g>
</g>
<!-- packages/util/color/index.ts&#45;&gt;packages/util/color/src/index.ts -->
<g id="edge3" class="edge">
<title>packages/util/color/index.ts&#45;&gt;packages/util/color/src/index.ts</title>
<path fill="none" stroke="#000000" stroke-width="2" stroke-opacity="0.200000" d="M68.13,-125.8C81.5,-110.67 108.2,-80.46 123.83,-62.77"/>
<polygon fill="#000000" fill-opacity="0.200000" stroke="#000000" stroke-width="2" stroke-opacity="0.200000" points="125.53,-64.02 127.93,-58.14 122.38,-61.24 125.53,-64.02"/>
</g>
<!-- packages/util/math/dist/index.js -->
<g id="node7" class="node">
<title>packages/util/math/dist/index.js</title>
<g id="a_node7"><a xlink:href="packages/util/math/dist/index.js" xlink:title="index.js">
<polygon fill="#ffffcc" stroke="black" points="164,-212 162.5,-214 152,-214 150.5,-212 110,-212 110,-194 164,-194 164,-212"/>
<text text-anchor="start" x="119.5" y="-200.8" font-family="Helvetica,sans-Serif" font-size="9.00">index.js</text>
</a>
</g>
</g>
<!-- packages/util/color/index.ts&#45;&gt;packages/util/math/dist/index.js -->
<g id="edge4" class="edge">
<title>packages/util/color/index.ts&#45;&gt;packages/util/math/dist/index.js</title>
<path fill="none" stroke="#000000" stroke-width="2" stroke-opacity="0.200000" d="M70.25,-144.17C83.35,-155.9 106.14,-176.28 121.15,-189.71"/>
<polygon fill="#000000" fill-opacity="0.200000" stroke="#000000" stroke-width="2" stroke-opacity="0.200000" points="120.04,-191.54 125.91,-193.97 122.84,-188.41 120.04,-191.54"/>
</g>
<!-- packages/util/stdlib/dist/index.js -->
<g id="node8" class="node">
<title>packages/util/stdlib/dist/index.js</title>
<g id="a_node8"><a xlink:href="packages/util/stdlib/dist/index.js" xlink:title="index.js">
<polygon fill="#ffffcc" stroke="black" points="164,-306 162.5,-308 152,-308 150.5,-306 110,-306 110,-288 164,-288 164,-306"/>
<text text-anchor="start" x="119.5" y="-294.8" font-family="Helvetica,sans-Serif" font-size="9.00">index.js</text>
</a>
</g>
</g>
<!-- packages/util/color/index.ts&#45;&gt;packages/util/stdlib/dist/index.js -->
<g id="edge5" class="edge">
<title>packages/util/color/index.ts&#45;&gt;packages/util/stdlib/dist/index.js</title>
<path fill="none" stroke="#000000" stroke-width="2" stroke-opacity="0.200000" d="M64.3,-144.17C76.9,-171.02 113.75,-249.57 129.13,-282.36"/>
<polygon fill="#000000" fill-opacity="0.200000" stroke="#000000" stroke-width="2" stroke-opacity="0.200000" points="127.29,-283.39 131.74,-287.93 131.1,-281.6 127.29,-283.39"/>
</g>
<!-- packages/util/color/src/index.ts&#45;&gt;packages/util/color/src/util.ts -->
<g id="edge7" class="edge">
<title>packages/util/color/src/index.ts&#45;&gt;packages/util/color/src/util.ts</title>
<path fill="none" stroke="#000000" stroke-width="2" stroke-opacity="0.200000" d="M164.12,-49C172.18,-49 181.15,-49 189.58,-49"/>
<polygon fill="#000000" fill-opacity="0.200000" stroke="#000000" stroke-width="2" stroke-opacity="0.200000" points="195.9,-51.1 189.9,-49 195.9,-46.9 195.9,-51.1"/>
</g>
</g>
</svg>
