<?xml version="1.0" encoding="UTF-8" standalone="no"?>
<!DOCTYPE svg PUBLIC "-//W3C//DTD SVG 1.1//EN"
 "http://www.w3.org/Graphics/SVG/1.1/DTD/svg11.dtd">
<!-- Generated by graphviz version 2.43.0 (0)
 -->
<!-- Title: dependency&#45;cruiser output Pages: 1 -->
<svg width="500pt" height="606pt"
 viewBox="0.00 0.00 500.00 606.00" xmlns="http://www.w3.org/2000/svg" xmlns:xlink="http://www.w3.org/1999/xlink">
<g id="graph0" class="graph" transform="scale(1 1) rotate(0) translate(4 602)">
<title>dependency&#45;cruiser output</title>
<polygon fill="white" stroke="transparent" points="-4,4 -4,-602 496,-602 496,4 -4,4"/>
<g id="clust1" class="cluster">
<title>cluster_node_modules</title>
<path fill="#ffffff" stroke="black" stroke-width="2" d="M378,-8C378,-8 472,-8 472,-8 478,-8 484,-14 484,-20 484,-20 484,-232 484,-232 484,-238 478,-244 472,-244 472,-244 378,-244 378,-244 372,-244 366,-238 366,-232 366,-232 366,-20 366,-20 366,-14 372,-8 378,-8"/>
<text text-anchor="middle" x="425" y="-232.8" font-family="Helvetica,sans-Serif" font-weight="bold" font-size="9.00">node_modules</text>
</g>
<g id="clust2" class="cluster">
<title>cluster_node_modules/@tonaljs</title>
<path fill="#ffffff" stroke="black" stroke-width="2" d="M386,-16C386,-16 464,-16 464,-16 470,-16 476,-22 476,-28 476,-28 476,-206 476,-206 476,-212 470,-218 464,-218 464,-218 386,-218 386,-218 380,-218 374,-212 374,-206 374,-206 374,-28 374,-28 374,-22 380,-16 386,-16"/>
<text text-anchor="middle" x="425" y="-206.8" font-family="Helvetica,sans-Serif" font-weight="bold" font-size="9.00">@tonaljs</text>
</g>
<g id="clust3" class="cluster">
<title>cluster_packages</title>
<path fill="#ffffff" stroke="black" stroke-width="2" d="M20,-252C20,-252 472,-252 472,-252 478,-252 484,-258 484,-264 484,-264 484,-578 484,-578 484,-584 478,-590 472,-590 472,-590 20,-590 20,-590 14,-590 8,-584 8,-578 8,-578 8,-264 8,-264 8,-258 14,-252 20,-252"/>
<text text-anchor="middle" x="246" y="-578.8" font-family="Helvetica,sans-Serif" font-weight="bold" font-size="9.00">packages</text>
</g>
<g id="clust4" class="cluster">
<title>cluster_packages/tonal&#45;objects</title>
<path fill="#ffffff" stroke="black" stroke-width="2" d="M284,-260C284,-260 346,-260 346,-260 352,-260 358,-266 358,-272 358,-272 358,-334 358,-334 358,-340 352,-346 346,-346 346,-346 284,-346 284,-346 278,-346 272,-340 272,-334 272,-334 272,-272 272,-272 272,-266 278,-260 284,-260"/>
<text text-anchor="middle" x="315" y="-334.8" font-family="Helvetica,sans-Serif" font-weight="bold" font-size="9.00">tonal&#45;objects</text>
</g>
<g id="clust5" class="cluster">
<title>cluster_packages/tonal&#45;objects/dist</title>
<path fill="#ffffff" stroke="black" stroke-width="2" d="M292,-268C292,-268 338,-268 338,-268 344,-268 350,-274 350,-280 350,-280 350,-308 350,-308 350,-314 344,-320 338,-320 338,-320 292,-320 292,-320 286,-320 280,-314 280,-308 280,-308 280,-280 280,-280 280,-274 286,-268 292,-268"/>
<text text-anchor="middle" x="315" y="-308.8" font-family="Helvetica,sans-Serif" font-weight="bold" font-size="9.00">dist</text>
</g>
<g id="clust6" class="cluster">
<title>cluster_packages/util</title>
<path fill="#ffffff" stroke="black" stroke-width="2" d="M28,-354C28,-354 464,-354 464,-354 470,-354 476,-360 476,-366 476,-366 476,-552 476,-552 476,-558 470,-564 464,-564 464,-564 28,-564 28,-564 22,-564 16,-558 16,-552 16,-552 16,-366 16,-366 16,-360 22,-354 28,-354"/>
<text text-anchor="middle" x="246" y="-552.8" font-family="Helvetica,sans-Serif" font-weight="bold" font-size="9.00">util</text>
</g>
<g id="clust7" class="cluster">
<title>cluster_packages/util/color</title>
<path fill="#ffffff" stroke="black" stroke-width="2" d="M36,-362C36,-362 252,-362 252,-362 258,-362 264,-368 264,-374 264,-374 264,-526 264,-526 264,-532 258,-538 252,-538 252,-538 36,-538 36,-538 30,-538 24,-532 24,-526 24,-526 24,-374 24,-374 24,-368 30,-362 36,-362"/>
<text text-anchor="middle" x="144" y="-526.8" font-family="Helvetica,sans-Serif" font-weight="bold" font-size="9.00">color</text>
</g>
<g id="clust8" class="cluster">
<title>cluster_packages/util/color/dist</title>
<path fill="#ffffff" stroke="black" stroke-width="2" d="M192,-430C192,-430 244,-430 244,-430 250,-430 256,-436 256,-442 256,-442 256,-500 256,-500 256,-506 250,-512 244,-512 244,-512 192,-512 192,-512 186,-512 180,-506 180,-500 180,-500 180,-442 180,-442 180,-436 186,-430 192,-430"/>
<text text-anchor="middle" x="218" y="-500.8" font-family="Helvetica,sans-Serif" font-weight="bold" font-size="9.00">dist</text>
</g>
<g id="clust9" class="cluster">
<title>cluster_packages/util/color/src</title>
<path fill="#ffffff" stroke="black" stroke-width="2" d="M112.5,-370C112.5,-370 241,-370 241,-370 247,-370 253,-376 253,-382 253,-382 253,-410 253,-410 253,-416 247,-422 241,-422 241,-422 112.5,-422 112.5,-422 106.5,-422 100.5,-416 100.5,-410 100.5,-410 100.5,-382 100.5,-382 100.5,-376 106.5,-370 112.5,-370"/>
<text text-anchor="middle" x="176.75" y="-410.8" font-family="Helvetica,sans-Serif" font-weight="bold" font-size="9.00">src</text>
</g>
<g id="clust10" class="cluster">
<title>cluster_packages/util/math</title>
<path fill="#ffffff" stroke="black" stroke-width="2" d="M284,-442C284,-442 346,-442 346,-442 352,-442 358,-448 358,-454 358,-454 358,-516 358,-516 358,-522 352,-528 346,-528 346,-528 284,-528 284,-528 278,-528 272,-522 272,-516 272,-516 272,-454 272,-454 272,-448 278,-442 284,-442"/>
<text text-anchor="middle" x="315" y="-516.8" font-family="Helvetica,sans-Serif" font-weight="bold" font-size="9.00">math</text>
</g>
<g id="clust11" class="cluster">
<title>cluster_packages/util/math/dist</title>
<path fill="#ffffff" stroke="black" stroke-width="2" d="M292,-450C292,-450 338,-450 338,-450 344,-450 350,-456 350,-462 350,-462 350,-490 350,-490 350,-496 344,-502 338,-502 338,-502 292,-502 292,-502 286,-502 280,-496 280,-490 280,-490 280,-462 280,-462 280,-456 286,-450 292,-450"/>
<text text-anchor="middle" x="315" y="-490.8" font-family="Helvetica,sans-Serif" font-weight="bold" font-size="9.00">dist</text>
</g>
<g id="clust12" class="cluster">
<title>cluster_packages/util/stdlib</title>
<path fill="#ffffff" stroke="black" stroke-width="2" d="M394,-408C394,-408 456,-408 456,-408 462,-408 468,-414 468,-420 468,-420 468,-482 468,-482 468,-488 462,-494 456,-494 456,-494 394,-494 394,-494 388,-494 382,-488 382,-482 382,-482 382,-420 382,-420 382,-414 388,-408 394,-408"/>
<text text-anchor="middle" x="425" y="-482.8" font-family="Helvetica,sans-Serif" font-weight="bold" font-size="9.00">stdlib</text>
</g>
<g id="clust13" class="cluster">
<title>cluster_packages/util/stdlib/dist</title>
<path fill="#ffffff" stroke="black" stroke-width="2" d="M402,-416C402,-416 448,-416 448,-416 454,-416 460,-422 460,-428 460,-428 460,-456 460,-456 460,-462 454,-468 448,-468 448,-468 402,-468 402,-468 396,-468 390,-462 390,-456 390,-456 390,-428 390,-428 390,-422 396,-416 402,-416"/>
<text text-anchor="middle" x="425" y="-456.8" font-family="Helvetica,sans-Serif" font-weight="bold" font-size="9.00">dist</text>
</g>
<!-- node_modules/@tonaljs/chord -->
<g id="node1" class="node">
<title>node_modules/@tonaljs/chord</title>
<g id="a_node1"><a xlink:href="https://www.npmjs.com/package/@tonaljs/chord" xlink:title="chord">
<polygon fill="#c40b0a" fill-opacity="0.101961" stroke="black" points="452,-132 400,-132 398,-130 398,-114 450,-114 452,-116 452,-132"/>
<polyline fill="none" stroke="black" points="450,-130 398,-130 "/>
<polyline fill="none" stroke="black" points="450,-130 450,-114 "/>
<polyline fill="none" stroke="black" points="450,-130 452,-132 "/>
<text text-anchor="start" x="411.5" y="-120.8" font-family="Helvetica,sans-Serif" font-size="9.00" fill="#c40b0a">chord</text>
</a>
</g>
</g>
<!-- node_modules/@tonaljs/interval -->
<g id="node2" class="node">
<title>node_modules/@tonaljs/interval</title>
<g id="a_node2"><a xlink:href="https://www.npmjs.com/package/@tonaljs/interval" xlink:title="interval">
<polygon fill="#c40b0a" fill-opacity="0.101961" stroke="black" points="452,-102 400,-102 398,-100 398,-84 450,-84 452,-86 452,-102"/>
<polyline fill="none" stroke="black" points="450,-100 398,-100 "/>
<polyline fill="none" stroke="black" points="450,-100 450,-84 "/>
<polyline fill="none" stroke="black" points="450,-100 452,-102 "/>
<text text-anchor="start" x="408" y="-90.8" font-family="Helvetica,sans-Serif" font-size="9.00" fill="#c40b0a">interval</text>
</a>
</g>
</g>
<!-- node_modules/@tonaljs/key -->
<g id="node3" class="node">
<title>node_modules/@tonaljs/key</title>
<g id="a_node3"><a xlink:href="https://www.npmjs.com/package/@tonaljs/key" xlink:title="key">
<polygon fill="#c40b0a" fill-opacity="0.101961" stroke="black" points="452,-72 400,-72 398,-70 398,-54 450,-54 452,-56 452,-72"/>
<polyline fill="none" stroke="black" points="450,-70 398,-70 "/>
<polyline fill="none" stroke="black" points="450,-70 450,-54 "/>
<polyline fill="none" stroke="black" points="450,-70 452,-72 "/>
<text text-anchor="start" x="417" y="-60.8" font-family="Helvetica,sans-Serif" font-size="9.00" fill="#c40b0a">key</text>
</a>
</g>
</g>
<!-- node_modules/@tonaljs/note -->
<g id="node4" class="node">
<title>node_modules/@tonaljs/note</title>
<g id="a_node4"><a xlink:href="https://www.npmjs.com/package/@tonaljs/note" xlink:title="note">
<polygon fill="#c40b0a" fill-opacity="0.101961" stroke="black" points="452,-42 400,-42 398,-40 398,-24 450,-24 452,-26 452,-42"/>
<polyline fill="none" stroke="black" points="450,-40 398,-40 "/>
<polyline fill="none" stroke="black" points="450,-40 450,-24 "/>
<polyline fill="none" stroke="black" points="450,-40 452,-42 "/>
<text text-anchor="start" x="414.5" y="-30.8" font-family="Helvetica,sans-Serif" font-size="9.00" fill="#c40b0a">note</text>
</a>
</g>
</g>
<!-- node_modules/@tonaljs/roman&#45;numeral -->
<g id="node5" class="node">
<title>node_modules/@tonaljs/roman&#45;numeral</title>
<g id="a_node5"><a xlink:href="https://www.npmjs.com/package/@tonaljs/roman-numeral" xlink:title="roman&#45;numeral">
<polygon fill="#c40b0a" fill-opacity="0.101961" stroke="black" points="468,-192 384,-192 382,-190 382,-174 466,-174 468,-176 468,-192"/>
<polyline fill="none" stroke="black" points="466,-190 382,-190 "/>
<polyline fill="none" stroke="black" points="466,-190 466,-174 "/>
<polyline fill="none" stroke="black" points="466,-190 468,-192 "/>
<text text-anchor="start" x="390" y="-180.8" font-family="Helvetica,sans-Serif" font-size="9.00" fill="#c40b0a">roman&#45;numeral</text>
</a>
</g>
</g>
<!-- node_modules/@tonaljs/scale -->
<g id="node6" class="node">
<title>node_modules/@tonaljs/scale</title>
<g id="a_node6"><a xlink:href="https://www.npmjs.com/package/@tonaljs/scale" xlink:title="scale">
<polygon fill="#c40b0a" fill-opacity="0.101961" stroke="black" points="452,-162 400,-162 398,-160 398,-144 450,-144 452,-146 452,-162"/>
<polyline fill="none" stroke="black" points="450,-160 398,-160 "/>
<polyline fill="none" stroke="black" points="450,-160 450,-144 "/>
<polyline fill="none" stroke="black" points="450,-160 452,-162 "/>
<text text-anchor="start" x="413.5" y="-150.8" font-family="Helvetica,sans-Serif" font-size="9.00" fill="#c40b0a">scale</text>
</a>
</g>
</g>
<!-- packages/tonal&#45;objects/dist/index.js -->
<g id="node7" class="node">
<title>packages/tonal&#45;objects/dist/index.js</title>
<g id="a_node7"><a xlink:href="packages/tonal-objects/dist/index.js" xlink:title="index.js">
<path fill="#ffffcc" stroke="black" d="M336,-294C336,-294 294,-294 294,-294 291,-294 288,-291 288,-288 288,-288 288,-282 288,-282 288,-279 291,-276 294,-276 294,-276 336,-276 336,-276 339,-276 342,-279 342,-282 342,-282 342,-288 342,-288 342,-291 339,-294 336,-294"/>
<text text-anchor="start" x="297.5" y="-282.8" font-family="Helvetica,sans-Serif" font-size="9.00">index.js</text>
</a>
</g>
</g>
<!-- packages/tonal&#45;objects/dist/index.js&#45;&gt;node_modules/@tonaljs/chord -->
<g id="edge2" class="edge">
<title>packages/tonal&#45;objects/dist/index.js&#45;&gt;node_modules/@tonaljs/chord</title>
<path fill="none" stroke="#000000" stroke-opacity="0.200000" d="M316.26,-275.83C317.51,-250.05 324.7,-176.32 366,-138 373.07,-131.44 382.62,-127.67 391.93,-125.52"/>
<polygon fill="#000000" fill-opacity="0.200000" stroke="#000000" stroke-opacity="0.200000" points="392.51,-127.55 397.99,-124.33 391.7,-123.43 392.51,-127.55"/>
</g>
<!-- packages/tonal&#45;objects/dist/index.js&#45;&gt;node_modules/@tonaljs/interval -->
<g id="edge3" class="edge">
<title>packages/tonal&#45;objects/dist/index.js&#45;&gt;node_modules/@tonaljs/interval</title>
<path fill="none" stroke="#000000" stroke-opacity="0.200000" d="M315.64,-275.72C315.05,-246.51 317.37,-155.56 366,-108 372.89,-101.26 382.4,-97.43 391.72,-95.29"/>
<polygon fill="#000000" fill-opacity="0.200000" stroke="#000000" stroke-opacity="0.200000" points="392.3,-97.32 397.79,-94.12 391.5,-93.2 392.3,-97.32"/>
</g>
<!-- packages/tonal&#45;objects/dist/index.js&#45;&gt;node_modules/@tonaljs/key -->
<g id="edge4" class="edge">
<title>packages/tonal&#45;objects/dist/index.js&#45;&gt;node_modules/@tonaljs/key</title>
<path fill="none" stroke="#000000" stroke-opacity="0.200000" d="M317,-275.59C321.05,-239.03 337.48,-106.99 366,-78 372.82,-71.07 382.4,-67.2 391.81,-65.08"/>
<polygon fill="#000000" fill-opacity="0.200000" stroke="#000000" stroke-opacity="0.200000" points="392.43,-67.1 397.94,-63.92 391.65,-62.97 392.43,-67.1"/>
</g>
<!-- packages/tonal&#45;objects/dist/index.js&#45;&gt;node_modules/@tonaljs/note -->
<g id="edge5" class="edge">
<title>packages/tonal&#45;objects/dist/index.js&#45;&gt;node_modules/@tonaljs/note</title>
<path fill="none" stroke="#000000" stroke-opacity="0.200000" d="M316.66,-275.89C319.71,-236.58 333.6,-81.89 366,-48 372.72,-40.97 382.27,-37.07 391.69,-34.96"/>
<polygon fill="#000000" fill-opacity="0.200000" stroke="#000000" stroke-opacity="0.200000" points="392.31,-36.98 397.82,-33.81 391.54,-32.85 392.31,-36.98"/>
</g>
<!-- packages/tonal&#45;objects/dist/index.js&#45;&gt;node_modules/@tonaljs/roman&#45;numeral -->
<g id="edge6" class="edge">
<title>packages/tonal&#45;objects/dist/index.js&#45;&gt;node_modules/@tonaljs/roman&#45;numeral</title>
<path fill="none" stroke="#000000" stroke-opacity="0.200000" d="M325.58,-275.95C344.67,-257.92 387.51,-217.47 409.84,-196.37"/>
<polygon fill="#000000" fill-opacity="0.200000" stroke="#000000" stroke-opacity="0.200000" points="411.36,-197.82 414.28,-192.18 408.48,-194.77 411.36,-197.82"/>
</g>
<!-- packages/tonal&#45;objects/dist/index.js&#45;&gt;node_modules/@tonaljs/scale -->
<g id="edge7" class="edge">
<title>packages/tonal&#45;objects/dist/index.js&#45;&gt;node_modules/@tonaljs/scale</title>
<path fill="none" stroke="#000000" stroke-opacity="0.200000" d="M317.17,-275.79C320.48,-253.67 331.99,-197.23 366,-168 373.25,-161.77 382.76,-158.08 391.98,-155.91"/>
<polygon fill="#000000" fill-opacity="0.200000" stroke="#000000" stroke-opacity="0.200000" points="392.52,-157.95 397.98,-154.69 391.68,-153.83 392.52,-157.95"/>
</g>
<!-- packages/util/stdlib/dist/index.js -->
<g id="node8" class="node">
<title>packages/util/stdlib/dist/index.js</title>
<g id="a_node8"><a xlink:href="packages/util/stdlib/dist/index.js" xlink:title="index.js">
<path fill="#ffffcc" stroke="black" d="M446,-442C446,-442 404,-442 404,-442 401,-442 398,-439 398,-436 398,-436 398,-430 398,-430 398,-427 401,-424 404,-424 404,-424 446,-424 446,-424 449,-424 452,-427 452,-430 452,-430 452,-436 452,-436 452,-439 449,-442 446,-442"/>
<text text-anchor="start" x="407.5" y="-430.8" font-family="Helvetica,sans-Serif" font-size="9.00">index.js</text>
</a>
</g>
</g>
<!-- packages/tonal&#45;objects/dist/index.js&#45;&gt;packages/util/stdlib/dist/index.js -->
<g id="edge1" class="edge">
<title>packages/tonal&#45;objects/dist/index.js&#45;&gt;packages/util/stdlib/dist/index.js</title>
<path fill="none" stroke="#000000" stroke-width="2" stroke-opacity="0.200000" d="M322.76,-294.26C341.01,-319.28 391.45,-388.4 413.48,-418.58"/>
<polygon fill="#000000" fill-opacity="0.200000" stroke="#000000" stroke-width="2" stroke-opacity="0.200000" points="412.01,-420.14 417.25,-423.75 415.41,-417.66 412.01,-420.14"/>
</g>
<!-- packages/util/color/dist/index.js -->
<g id="node9" class="node">
<title>packages/util/color/dist/index.js</title>
<g id="a_node9"><a xlink:href="packages/util/color/dist/index.js" xlink:title="index.js">
<path fill="#ffffcc" stroke="black" d="M239,-486C239,-486 197,-486 197,-486 194,-486 191,-483 191,-480 191,-480 191,-474 191,-474 191,-471 194,-468 197,-468 197,-468 239,-468 239,-468 242,-468 245,-471 245,-474 245,-474 245,-480 245,-480 245,-483 242,-486 239,-486"/>
<text text-anchor="start" x="200.5" y="-474.8" font-family="Helvetica,sans-Serif" font-size="9.00">index.js</text>
</a>
</g>
</g>
<!-- packages/util/color/dist/index.js&#45;&gt;packages/tonal&#45;objects/dist/index.js -->
<g id="edge10" class="edge">
<title>packages/util/color/dist/index.js&#45;&gt;packages/tonal&#45;objects/dist/index.js</title>
<path fill="none" stroke="#000000" stroke-width="2" stroke-opacity="0.200000" d="M245.37,-472.99C252.24,-470.77 259.1,-467.33 264,-462 274.21,-450.89 268.11,-443.58 272,-429 284.63,-381.68 301.37,-326.17 309.36,-300.04"/>
<polygon fill="#000000" fill-opacity="0.200000" stroke="#000000" stroke-width="2" stroke-opacity="0.200000" points="311.45,-300.41 311.2,-294.06 307.43,-299.18 311.45,-300.41"/>
</g>
<!-- packages/util/color/dist/index.js&#45;&gt;packages/util/stdlib/dist/index.js -->
<g id="edge9" class="edge">
<title>packages/util/color/dist/index.js&#45;&gt;packages/util/stdlib/dist/index.js</title>
<path fill="none" stroke="#000000" stroke-width="2" stroke-opacity="0.200000" d="M245.02,-471.99C251.74,-469.76 258.59,-466.57 264,-462 269.77,-457.13 265.71,-451.18 272,-447 290.94,-434.42 352.77,-432.41 391.49,-432.46"/>
<polygon fill="#000000" fill-opacity="0.200000" stroke="#000000" stroke-width="2" stroke-opacity="0.200000" points="391.95,-434.56 397.96,-432.49 391.97,-430.36 391.95,-434.56"/>
</g>
<!-- packages/util/math/dist/index.js -->
<g id="node10" class="node">
<title>packages/util/math/dist/index.js</title>
<g id="a_node10"><a xlink:href="packages/util/math/dist/index.js" xlink:title="index.js">
<path fill="#ffffcc" stroke="black" d="M336,-476C336,-476 294,-476 294,-476 291,-476 288,-473 288,-470 288,-470 288,-464 288,-464 288,-461 291,-458 294,-458 294,-458 336,-458 336,-458 339,-458 342,-461 342,-464 342,-464 342,-470 342,-470 342,-473 339,-476 336,-476"/>
<text text-anchor="start" x="297.5" y="-464.8" font-family="Helvetica,sans-Serif" font-size="9.00">index.js</text>
</a>
</g>
</g>
<!-- packages/util/color/dist/index.js&#45;&gt;packages/util/math/dist/index.js -->
<g id="edge8" class="edge">
<title>packages/util/color/dist/index.js&#45;&gt;packages/util/math/dist/index.js</title>
<path fill="none" stroke="#000000" stroke-width="2" stroke-opacity="0.200000" d="M245.21,-474.24C256.53,-473.05 269.88,-471.64 281.79,-470.39"/>
<polygon fill="#000000" fill-opacity="0.200000" stroke="#000000" stroke-width="2" stroke-opacity="0.200000" points="282.13,-472.47 287.87,-469.75 281.69,-468.29 282.13,-472.47"/>
</g>
<!-- packages/util/math/dist/index.js&#45;&gt;packages/util/stdlib/dist/index.js -->
<g id="edge21" class="edge">
<title>packages/util/math/dist/index.js&#45;&gt;packages/util/stdlib/dist/index.js</title>
<path fill="none" stroke="#000000" stroke-width="2" stroke-opacity="0.200000" d="M342.14,-458.77C357.02,-454.09 375.79,-448.18 391.6,-443.2"/>
<polygon fill="#000000" fill-opacity="0.200000" stroke="#000000" stroke-width="2" stroke-opacity="0.200000" points="392.63,-445.08 397.72,-441.27 391.37,-441.07 392.63,-445.08"/>
</g>
<!-- packages/util/color/dist/index.mjs -->
<g id="node11" class="node">
<title>packages/util/color/dist/index.mjs</title>
<g id="a_node11"><a xlink:href="packages/util/color/dist/index.mjs" xlink:title="index.mjs">
<path fill="#ffffcc" stroke="black" d="M242,-456C242,-456 194,-456 194,-456 191,-456 188,-453 188,-450 188,-450 188,-444 188,-444 188,-441 191,-438 194,-438 194,-438 242,-438 242,-438 245,-438 248,-441 248,-444 248,-444 248,-450 248,-450 248,-453 245,-456 242,-456"/>
<text text-anchor="start" x="196" y="-444.8" font-family="Helvetica,sans-Serif" font-size="9.00">index.mjs</text>
</a>
</g>
</g>
<!-- packages/util/color/dist/index.mjs&#45;&gt;packages/tonal&#45;objects/dist/index.js -->
<g id="edge13" class="edge">
<title>packages/util/color/dist/index.mjs&#45;&gt;packages/tonal&#45;objects/dist/index.js</title>
<path fill="none" stroke="#000000" stroke-width="2" stroke-opacity="0.200000" d="M246.05,-437.93C252.61,-434.69 259.13,-430.45 264,-425 281.1,-405.88 301.78,-332.06 310.18,-300"/>
<polygon fill="#000000" fill-opacity="0.200000" stroke="#000000" stroke-width="2" stroke-opacity="0.200000" points="312.22,-300.51 311.69,-294.18 308.15,-299.46 312.22,-300.51"/>
</g>
<!-- packages/util/color/dist/index.mjs&#45;&gt;packages/util/stdlib/dist/index.js -->
<g id="edge12" class="edge">
<title>packages/util/color/dist/index.mjs&#45;&gt;packages/util/stdlib/dist/index.js</title>
<path fill="none" stroke="#000000" stroke-width="2" stroke-opacity="0.200000" d="M240.51,-437.91C249.98,-434.38 261.36,-430.76 272,-429 312.85,-422.25 360.7,-425.27 391.64,-428.63"/>
<polygon fill="#000000" fill-opacity="0.200000" stroke="#000000" stroke-width="2" stroke-opacity="0.200000" points="391.78,-430.76 397.98,-429.34 392.25,-426.58 391.78,-430.76"/>
</g>
<!-- packages/util/color/dist/index.mjs&#45;&gt;packages/util/math/dist/index.js -->
<g id="edge11" class="edge">
<title>packages/util/color/dist/index.mjs&#45;&gt;packages/util/math/dist/index.js</title>
<path fill="none" stroke="#000000" stroke-width="2" stroke-opacity="0.200000" d="M248.02,-453.11C258.7,-455.36 270.86,-457.92 281.8,-460.22"/>
<polygon fill="#000000" fill-opacity="0.200000" stroke="#000000" stroke-width="2" stroke-opacity="0.200000" points="281.44,-462.29 287.74,-461.47 282.3,-458.18 281.44,-462.29"/>
</g>
<!-- packages/util/color/index.test.ts -->
<g id="node12" class="node">
<title>packages/util/color/index.test.ts</title>
<g id="a_node12"><a xlink:href="packages/util/color/index.test.ts" xlink:title="index.test.ts">
<path fill="#ddfeff" stroke="black" d="M166,-467C166,-467 105,-467 105,-467 102,-467 99,-464 99,-461 99,-461 99,-455 99,-455 99,-452 102,-449 105,-449 105,-449 166,-449 166,-449 169,-449 172,-452 172,-455 172,-455 172,-461 172,-461 172,-464 169,-467 166,-467"/>
<text text-anchor="start" x="107" y="-455.8" font-family="Helvetica,sans-Serif" font-size="9.00">index.test.ts</text>
</a>
</g>
</g>
<!-- packages/util/color/index.test.ts&#45;&gt;packages/util/color/dist/index.js -->
<g id="edge14" class="edge">
<title>packages/util/color/index.test.ts&#45;&gt;packages/util/color/dist/index.js</title>
<path fill="none" stroke="#000000" stroke-width="2" stroke-opacity="0.200000" d="M172.04,-466.39C176.23,-467.38 180.49,-468.38 184.63,-469.36"/>
<polygon fill="#000000" fill-opacity="0.200000" stroke="#000000" stroke-width="2" stroke-opacity="0.200000" points="184.27,-471.43 190.59,-470.77 185.24,-467.34 184.27,-471.43"/>
</g>
<!-- packages/util/color/src/util.ts -->
<g id="node13" class="node">
<title>packages/util/color/src/util.ts</title>
<g id="a_node13"><a xlink:href="packages/util/color/src/util.ts" xlink:title="util.ts">
<path fill="#ddfeff" stroke="black" d="M239,-396C239,-396 197,-396 197,-396 194,-396 191,-393 191,-390 191,-390 191,-384 191,-384 191,-381 194,-378 197,-378 197,-378 239,-378 239,-378 242,-378 245,-381 245,-384 245,-384 245,-390 245,-390 245,-393 242,-396 239,-396"/>
<text text-anchor="start" x="205" y="-384.8" font-family="Helvetica,sans-Serif" font-size="9.00">util.ts</text>
</a>
</g>
</g>
<!-- packages/util/color/index.test.ts&#45;&gt;packages/util/color/src/util.ts -->
<g id="edge15" class="edge">
<title>packages/util/color/index.test.ts&#45;&gt;packages/util/color/src/util.ts</title>
<path fill="none" stroke="#000000" stroke-width="2" stroke-opacity="0.200000" d="M147.02,-448.72C161.08,-436.32 186.07,-414.28 202.07,-400.17"/>
<polygon fill="#000000" fill-opacity="0.200000" stroke="#000000" stroke-width="2" stroke-opacity="0.200000" points="203.62,-401.6 206.73,-396.06 200.84,-398.45 203.62,-401.6"/>
</g>
<!-- packages/util/color/index.ts -->
<g id="node14" class="node">
<title>packages/util/color/index.ts</title>
<g id="a_node14"><a xlink:href="packages/util/color/index.ts" xlink:title="index.ts">
<path fill="#ddfeff" stroke="black" d="M80,-454C80,-454 38,-454 38,-454 35,-454 32,-451 32,-448 32,-448 32,-442 32,-442 32,-439 35,-436 38,-436 38,-436 80,-436 80,-436 83,-436 86,-439 86,-442 86,-442 86,-448 86,-448 86,-451 83,-454 80,-454"/>
<text text-anchor="start" x="40.5" y="-442.8" font-family="Helvetica,sans-Serif" font-size="9.00">index.ts</text>
</a>
</g>
</g>
<!-- packages/util/color/index.ts&#45;&gt;packages/tonal&#45;objects/dist/index.js -->
<g id="edge19" class="edge">
<title>packages/util/color/index.ts&#45;&gt;packages/tonal&#45;objects/dist/index.js</title>
<path fill="none" stroke="#000000" stroke-width="2" stroke-opacity="0.200000" d="M62.19,-435.97C66.52,-419.92 77.68,-386.31 99,-367 152.03,-318.99 236.08,-298.02 281.79,-289.76"/>
<polygon fill="#000000" fill-opacity="0.200000" stroke="#000000" stroke-width="2" stroke-opacity="0.200000" points="282.44,-291.78 287.98,-288.67 281.71,-287.64 282.44,-291.78"/>
</g>
<!-- packages/util/color/index.ts&#45;&gt;packages/util/stdlib/dist/index.js -->
<g id="edge18" class="edge">
<title>packages/util/color/index.ts&#45;&gt;packages/util/stdlib/dist/index.js</title>
<path fill="none" stroke="#000000" stroke-width="2" stroke-opacity="0.200000" d="M64.52,-454.08C70.74,-465.68 83.01,-485.61 99,-497 159.47,-540.07 190.09,-530.01 264,-523 306.35,-518.98 320.86,-525.73 358,-505 383.01,-491.04 403.75,-464.16 414.97,-447.48"/>
<polygon fill="#000000" fill-opacity="0.200000" stroke="#000000" stroke-width="2" stroke-opacity="0.200000" points="416.86,-448.42 418.4,-442.25 413.35,-446.12 416.86,-448.42"/>
</g>
<!-- packages/util/color/index.ts&#45;&gt;packages/util/math/dist/index.js -->
<g id="edge17" class="edge">
<title>packages/util/color/index.ts&#45;&gt;packages/util/math/dist/index.js</title>
<path fill="none" stroke="#000000" stroke-width="2" stroke-opacity="0.200000" d="M70.62,-454.14C90.47,-470.49 135.24,-504.09 180,-515 216.27,-523.84 229.36,-528.93 264,-515 280.84,-508.22 295.2,-492.76 304.15,-481.2"/>
<polygon fill="#000000" fill-opacity="0.200000" stroke="#000000" stroke-width="2" stroke-opacity="0.200000" points="305.97,-482.28 307.88,-476.21 302.6,-479.77 305.97,-482.28"/>
</g>
<!-- packages/util/color/src/index.ts -->
<g id="node15" class="node">
<title>packages/util/color/src/index.ts</title>
<g id="a_node15"><a xlink:href="packages/util/color/src/index.ts" xlink:title="index.ts">
<path fill="#ddfeff" stroke="black" d="M156.5,-396C156.5,-396 114.5,-396 114.5,-396 111.5,-396 108.5,-393 108.5,-390 108.5,-390 108.5,-384 108.5,-384 108.5,-381 111.5,-378 114.5,-378 114.5,-378 156.5,-378 156.5,-378 159.5,-378 162.5,-381 162.5,-384 162.5,-384 162.5,-390 162.5,-390 162.5,-393 159.5,-396 156.5,-396"/>
<text text-anchor="start" x="117" y="-384.8" font-family="Helvetica,sans-Serif" font-size="9.00">index.ts</text>
</a>
</g>
</g>
<!-- packages/util/color/index.ts&#45;&gt;packages/util/color/src/index.ts -->
<g id="edge16" class="edge">
<title>packages/util/color/index.ts&#45;&gt;packages/util/color/src/index.ts</title>
<path fill="none" stroke="#000000" stroke-width="2" stroke-opacity="0.200000" d="M65.83,-435.84C72.67,-425.77 84.87,-409.74 99,-400 100.14,-399.21 101.34,-398.47 102.57,-397.76"/>
<polygon fill="#000000" fill-opacity="0.200000" stroke="#000000" stroke-width="2" stroke-opacity="0.200000" points="103.76,-399.51 108.15,-394.92 101.85,-395.77 103.76,-399.51"/>
</g>
<!-- packages/util/color/src/index.ts&#45;&gt;packages/util/color/src/util.ts -->
<g id="edge20" class="edge">
<title>packages/util/color/src/index.ts&#45;&gt;packages/util/color/src/util.ts</title>
<path fill="none" stroke="#000000" stroke-width="2" stroke-opacity="0.200000" d="M162.86,-387C169.88,-387 177.54,-387 184.84,-387"/>
<polygon fill="#000000" fill-opacity="0.200000" stroke="#000000" stroke-width="2" stroke-opacity="0.200000" points="190.86,-389.1 184.86,-387 190.86,-384.9 190.86,-389.1"/>
</g>
</g>
</svg>
