<?xml version="1.0" encoding="UTF-8" standalone="no"?>
<!DOCTYPE svg PUBLIC "-//W3C//DTD SVG 1.1//EN"
 "http://www.w3.org/Graphics/SVG/1.1/DTD/svg11.dtd">
<!-- Generated by graphviz version 2.43.0 (0)
 -->
<!-- Title: dependency&#45;cruiser output Pages: 1 -->
<svg width="566pt" height="594pt"
 viewBox="0.00 0.00 566.00 594.00" xmlns="http://www.w3.org/2000/svg" xmlns:xlink="http://www.w3.org/1999/xlink">
<g id="graph0" class="graph" transform="scale(1 1) rotate(0) translate(4 590)">
<title>dependency&#45;cruiser output</title>
<polygon fill="white" stroke="transparent" points="-4,4 -4,-590 562,-590 562,4 -4,4"/>
<g id="clust1" class="cluster">
<title>cluster_packages</title>
<path fill="#ffffff" stroke="black" stroke-width="2" d="M20,-8C20,-8 538,-8 538,-8 544,-8 550,-14 550,-20 550,-20 550,-566 550,-566 550,-572 544,-578 538,-578 538,-578 20,-578 20,-578 14,-578 8,-572 8,-566 8,-566 8,-20 8,-20 8,-14 14,-8 20,-8"/>
<text text-anchor="middle" x="279" y="-566.8" font-family="Helvetica,sans-Serif" font-weight="bold" font-size="9.00">packages</text>
</g>
<g id="clust2" class="cluster">
<title>cluster_packages/tonal&#45;objects</title>
<path fill="#ffffff" stroke="black" stroke-width="2" d="M366,-466C366,-466 428,-466 428,-466 434,-466 440,-472 440,-478 440,-478 440,-540 440,-540 440,-546 434,-552 428,-552 428,-552 366,-552 366,-552 360,-552 354,-546 354,-540 354,-540 354,-478 354,-478 354,-472 360,-466 366,-466"/>
<text text-anchor="middle" x="397" y="-540.8" font-family="Helvetica,sans-Serif" font-weight="bold" font-size="9.00">tonal&#45;objects</text>
</g>
<g id="clust3" class="cluster">
<title>cluster_packages/tonal&#45;objects/dist</title>
<path fill="#ffffff" stroke="black" stroke-width="2" d="M374,-474C374,-474 420,-474 420,-474 426,-474 432,-480 432,-486 432,-486 432,-514 432,-514 432,-520 426,-526 420,-526 420,-526 374,-526 374,-526 368,-526 362,-520 362,-514 362,-514 362,-486 362,-486 362,-480 368,-474 374,-474"/>
<text text-anchor="middle" x="397" y="-514.8" font-family="Helvetica,sans-Serif" font-weight="bold" font-size="9.00">dist</text>
</g>
<g id="clust4" class="cluster">
<title>cluster_packages/util</title>
<path fill="#ffffff" stroke="black" stroke-width="2" d="M28,-16C28,-16 530,-16 530,-16 536,-16 542,-22 542,-28 542,-28 542,-446 542,-446 542,-452 536,-458 530,-458 530,-458 28,-458 28,-458 22,-458 16,-452 16,-446 16,-446 16,-28 16,-28 16,-22 22,-16 28,-16"/>
<text text-anchor="middle" x="279" y="-446.8" font-family="Helvetica,sans-Serif" font-weight="bold" font-size="9.00">util</text>
</g>
<g id="clust5" class="cluster">
<title>cluster_packages/util/color</title>
<path fill="#ffffff" stroke="black" stroke-width="2" d="M36,-24C36,-24 522,-24 522,-24 528,-24 534,-30 534,-36 534,-36 534,-232 534,-232 534,-238 528,-244 522,-244 522,-244 36,-244 36,-244 30,-244 24,-238 24,-232 24,-232 24,-36 24,-36 24,-30 30,-24 36,-24"/>
<text text-anchor="middle" x="279" y="-232.8" font-family="Helvetica,sans-Serif" font-weight="bold" font-size="9.00">color</text>
</g>
<g id="clust6" class="cluster">
<title>cluster_packages/util/color/src</title>
<path fill="#ffffff" stroke="black" stroke-width="2" d="M125,-106C125,-106 514,-106 514,-106 520,-106 526,-112 526,-118 526,-118 526,-206 526,-206 526,-212 520,-218 514,-218 514,-218 125,-218 125,-218 119,-218 113,-212 113,-206 113,-206 113,-118 113,-118 113,-112 119,-106 125,-106"/>
<text text-anchor="middle" x="319.5" y="-206.8" font-family="Helvetica,sans-Serif" font-weight="bold" font-size="9.00">src</text>
</g>
<g id="clust7" class="cluster">
<title>cluster_packages/util/math</title>
<path fill="#ffffff" stroke="black" stroke-width="2" d="M460,-346C460,-346 522,-346 522,-346 528,-346 534,-352 534,-358 534,-358 534,-420 534,-420 534,-426 528,-432 522,-432 522,-432 460,-432 460,-432 454,-432 448,-426 448,-420 448,-420 448,-358 448,-358 448,-352 454,-346 460,-346"/>
<text text-anchor="middle" x="491" y="-420.8" font-family="Helvetica,sans-Serif" font-weight="bold" font-size="9.00">math</text>
</g>
<g id="clust8" class="cluster">
<title>cluster_packages/util/math/dist</title>
<path fill="#ffffff" stroke="black" stroke-width="2" d="M468,-354C468,-354 514,-354 514,-354 520,-354 526,-360 526,-366 526,-366 526,-394 526,-394 526,-400 520,-406 514,-406 514,-406 468,-406 468,-406 462,-406 456,-400 456,-394 456,-394 456,-366 456,-366 456,-360 462,-354 468,-354"/>
<text text-anchor="middle" x="491" y="-394.8" font-family="Helvetica,sans-Serif" font-weight="bold" font-size="9.00">dist</text>
</g>
<g id="clust9" class="cluster">
<title>cluster_packages/util/stdlib</title>
<path fill="#ffffff" stroke="black" stroke-width="2" d="M460,-252C460,-252 522,-252 522,-252 528,-252 534,-258 534,-264 534,-264 534,-326 534,-326 534,-332 528,-338 522,-338 522,-338 460,-338 460,-338 454,-338 448,-332 448,-326 448,-326 448,-264 448,-264 448,-258 454,-252 460,-252"/>
<text text-anchor="middle" x="491" y="-326.8" font-family="Helvetica,sans-Serif" font-weight="bold" font-size="9.00">stdlib</text>
</g>
<g id="clust10" class="cluster">
<title>cluster_packages/util/stdlib/dist</title>
<path fill="#ffffff" stroke="black" stroke-width="2" d="M468,-260C468,-260 514,-260 514,-260 520,-260 526,-266 526,-272 526,-272 526,-300 526,-300 526,-306 520,-312 514,-312 514,-312 468,-312 468,-312 462,-312 456,-306 456,-300 456,-300 456,-272 456,-272 456,-266 462,-260 468,-260"/>
<text text-anchor="middle" x="491" y="-300.8" font-family="Helvetica,sans-Serif" font-weight="bold" font-size="9.00">dist</text>
</g>
<!-- packages/tonal&#45;objects/dist/index.js -->
<g id="node1" class="node">
<title>packages/tonal&#45;objects/dist/index.js</title>
<g id="a_node1"><a xlink:href="packages/tonal-objects/dist/index.js" xlink:title="index.js">
<polygon fill="#ffffcc" stroke="black" points="424,-500 422.5,-502 412,-502 410.5,-500 370,-500 370,-482 424,-482 424,-500"/>
<text text-anchor="start" x="379.5" y="-488.8" font-family="Helvetica,sans-Serif" font-size="9.00">index.js</text>
</a>
</g>
</g>
<!-- packages/util/color/index.test.ts -->
<g id="node2" class="node">
<title>packages/util/color/index.test.ts</title>
<g id="a_node2"><a xlink:href="packages/util/color/index.test.ts" xlink:title="index.test.ts">
<path fill="#ddfeff" stroke="black" d="M99,-84C99,-84 38,-84 38,-84 35,-84 32,-81 32,-78 32,-78 32,-72 32,-72 32,-69 35,-66 38,-66 38,-66 99,-66 99,-66 102,-66 105,-69 105,-72 105,-72 105,-78 105,-78 105,-81 102,-84 99,-84"/>
<text text-anchor="start" x="40" y="-72.8" font-family="Helvetica,sans-Serif" font-size="9.00">index.test.ts</text>
</a>
</g>
</g>
<!-- packages/util/color/src/fifth&#45;chroma&#45;to&#45;color.ts -->
<g id="node3" class="node">
<title>packages/util/color/src/fifth&#45;chroma&#45;to&#45;color.ts</title>
<g id="a_node3"><a xlink:href="packages/util/color/src/fifth-chroma-to-color.ts" xlink:title="fifth&#45;chroma&#45;to&#45;color.ts">
<path fill="#ddfeff" stroke="black" d="M334.5,-162C334.5,-162 225.5,-162 225.5,-162 222.5,-162 219.5,-159 219.5,-156 219.5,-156 219.5,-150 219.5,-150 219.5,-147 222.5,-144 225.5,-144 225.5,-144 334.5,-144 334.5,-144 337.5,-144 340.5,-147 340.5,-150 340.5,-150 340.5,-156 340.5,-156 340.5,-159 337.5,-162 334.5,-162"/>
<text text-anchor="start" x="227.5" y="-150.8" font-family="Helvetica,sans-Serif" font-size="9.00">fifth&#45;chroma&#45;to&#45;color.ts</text>
</a>
</g>
</g>
<!-- packages/util/color/index.test.ts&#45;&gt;packages/util/color/src/fifth&#45;chroma&#45;to&#45;color.ts -->
<g id="edge1" class="edge">
<title>packages/util/color/index.test.ts&#45;&gt;packages/util/color/src/fifth&#45;chroma&#45;to&#45;color.ts</title>
<path fill="none" stroke="#000000" stroke-width="2" stroke-opacity="0.200000" d="M93.18,-84.1C132.1,-98.45 207.64,-126.32 249.77,-141.85"/>
<polygon fill="#000000" fill-opacity="0.200000" stroke="#000000" stroke-width="2" stroke-opacity="0.200000" points="249.13,-143.85 255.48,-143.96 250.58,-139.91 249.13,-143.85"/>
</g>
<!-- packages/util/color/src/fifth&#45;to&#45;color.ts -->
<g id="node4" class="node">
<title>packages/util/color/src/fifth&#45;to&#45;color.ts</title>
<g id="a_node4"><a xlink:href="packages/util/color/src/fifth-to-color.ts" xlink:title="fifth&#45;to&#45;color.ts">
<path fill="#ddfeff" stroke="black" d="M199,-192C199,-192 128,-192 128,-192 125,-192 122,-189 122,-186 122,-186 122,-180 122,-180 122,-177 125,-174 128,-174 128,-174 199,-174 199,-174 202,-174 205,-177 205,-180 205,-180 205,-186 205,-186 205,-189 202,-192 199,-192"/>
<text text-anchor="start" x="130" y="-180.8" font-family="Helvetica,sans-Serif" font-size="9.00">fifth&#45;to&#45;color.ts</text>
</a>
</g>
</g>
<!-- packages/util/color/index.test.ts&#45;&gt;packages/util/color/src/fifth&#45;to&#45;color.ts -->
<g id="edge2" class="edge">
<title>packages/util/color/index.test.ts&#45;&gt;packages/util/color/src/fifth&#45;to&#45;color.ts</title>
<path fill="none" stroke="#000000" stroke-width="2" stroke-opacity="0.200000" d="M77.43,-84.21C93.76,-103.18 131.25,-146.71 150.54,-169.11"/>
<polygon fill="#000000" fill-opacity="0.200000" stroke="#000000" stroke-width="2" stroke-opacity="0.200000" points="149.08,-170.64 154.59,-173.82 152.27,-167.9 149.08,-170.64"/>
</g>
<!-- packages/util/color/src/hsv2rgb.ts -->
<g id="node5" class="node">
<title>packages/util/color/src/hsv2rgb.ts</title>
<g id="a_node5"><a xlink:href="packages/util/color/src/hsv2rgb.ts" xlink:title="hsv2rgb.ts">
<path fill="#ddfeff" stroke="black" d="M423.5,-132C423.5,-132 370.5,-132 370.5,-132 367.5,-132 364.5,-129 364.5,-126 364.5,-126 364.5,-120 364.5,-120 364.5,-117 367.5,-114 370.5,-114 370.5,-114 423.5,-114 423.5,-114 426.5,-114 429.5,-117 429.5,-120 429.5,-120 429.5,-126 429.5,-126 429.5,-129 426.5,-132 423.5,-132"/>
<text text-anchor="start" x="372.5" y="-120.8" font-family="Helvetica,sans-Serif" font-size="9.00">hsv2rgb.ts</text>
</a>
</g>
</g>
<!-- packages/util/color/index.test.ts&#45;&gt;packages/util/color/src/hsv2rgb.ts -->
<g id="edge3" class="edge">
<title>packages/util/color/index.test.ts&#45;&gt;packages/util/color/src/hsv2rgb.ts</title>
<path fill="none" stroke="#000000" stroke-width="2" stroke-opacity="0.200000" d="M105.23,-80.37C167.83,-89.51 294.62,-108.04 358.45,-117.37"/>
<polygon fill="#000000" fill-opacity="0.200000" stroke="#000000" stroke-width="2" stroke-opacity="0.200000" points="358.19,-119.45 364.43,-118.24 358.79,-115.3 358.19,-119.45"/>
</g>
<!-- packages/util/color/src/note&#45;chroma&#45;to&#45;color.ts -->
<g id="node6" class="node">
<title>packages/util/color/src/note&#45;chroma&#45;to&#45;color.ts</title>
<g id="a_node6"><a xlink:href="packages/util/color/src/note-chroma-to-color.ts" xlink:title="note&#45;chroma&#45;to&#45;color.ts">
<path fill="#ddfeff" stroke="black" d="M335,-132C335,-132 225,-132 225,-132 222,-132 219,-129 219,-126 219,-126 219,-120 219,-120 219,-117 222,-114 225,-114 225,-114 335,-114 335,-114 338,-114 341,-117 341,-120 341,-120 341,-126 341,-126 341,-129 338,-132 335,-132"/>
<text text-anchor="start" x="227" y="-120.8" font-family="Helvetica,sans-Serif" font-size="9.00">note&#45;chroma&#45;to&#45;color.ts</text>
</a>
</g>
</g>
<!-- packages/util/color/index.test.ts&#45;&gt;packages/util/color/src/note&#45;chroma&#45;to&#45;color.ts -->
<g id="edge4" class="edge">
<title>packages/util/color/index.test.ts&#45;&gt;packages/util/color/src/note&#45;chroma&#45;to&#45;color.ts</title>
<path fill="none" stroke="#000000" stroke-width="2" stroke-opacity="0.200000" d="M105.34,-83.36C141.07,-91.47 195.37,-103.79 233.94,-112.55"/>
<polygon fill="#000000" fill-opacity="0.200000" stroke="#000000" stroke-width="2" stroke-opacity="0.200000" points="233.67,-114.64 239.99,-113.92 234.6,-110.54 233.67,-114.64"/>
</g>
<!-- packages/util/color/src/note&#45;to&#45;color.ts -->
<g id="node7" class="node">
<title>packages/util/color/src/note&#45;to&#45;color.ts</title>
<g id="a_node7"><a xlink:href="packages/util/color/src/note-to-color.ts" xlink:title="note&#45;to&#45;color.ts">
<path fill="#ddfeff" stroke="black" d="M200,-162C200,-162 127,-162 127,-162 124,-162 121,-159 121,-156 121,-156 121,-150 121,-150 121,-147 124,-144 127,-144 127,-144 200,-144 200,-144 203,-144 206,-147 206,-150 206,-150 206,-156 206,-156 206,-159 203,-162 200,-162"/>
<text text-anchor="start" x="129" y="-150.8" font-family="Helvetica,sans-Serif" font-size="9.00">note&#45;to&#45;color.ts</text>
</a>
</g>
</g>
<!-- packages/util/color/index.test.ts&#45;&gt;packages/util/color/src/note&#45;to&#45;color.ts -->
<g id="edge5" class="edge">
<title>packages/util/color/index.test.ts&#45;&gt;packages/util/color/src/note&#45;to&#45;color.ts</title>
<path fill="none" stroke="#000000" stroke-width="2" stroke-opacity="0.200000" d="M80.53,-84.25C96.98,-98.05 128.01,-124.07 146.81,-139.84"/>
<polygon fill="#000000" fill-opacity="0.200000" stroke="#000000" stroke-width="2" stroke-opacity="0.200000" points="145.82,-141.75 151.77,-144 148.52,-138.53 145.82,-141.75"/>
</g>
<!-- packages/util/color/src/rgb&#45;to&#45;string.ts -->
<g id="node8" class="node">
<title>packages/util/color/src/rgb&#45;to&#45;string.ts</title>
<g id="a_node8"><a xlink:href="packages/util/color/src/rgb-to-string.ts" xlink:title="rgb&#45;to&#45;string.ts">
<path fill="#ddfeff" stroke="black" d="M434,-162C434,-162 360,-162 360,-162 357,-162 354,-159 354,-156 354,-156 354,-150 354,-150 354,-147 357,-144 360,-144 360,-144 434,-144 434,-144 437,-144 440,-147 440,-150 440,-150 440,-156 440,-156 440,-159 437,-162 434,-162"/>
<text text-anchor="start" x="362" y="-150.8" font-family="Helvetica,sans-Serif" font-size="9.00">rgb&#45;to&#45;string.ts</text>
</a>
</g>
</g>
<!-- packages/util/color/index.test.ts&#45;&gt;packages/util/color/src/rgb&#45;to&#45;string.ts -->
<g id="edge6" class="edge">
<title>packages/util/color/index.test.ts&#45;&gt;packages/util/color/src/rgb&#45;to&#45;string.ts</title>
<path fill="none" stroke="#000000" stroke-width="2" stroke-opacity="0.200000" d="M105.23,-83.72C166.05,-98.16 287.45,-126.99 352.84,-142.52"/>
<polygon fill="#000000" fill-opacity="0.200000" stroke="#000000" stroke-width="2" stroke-opacity="0.200000" points="352.67,-144.63 358.99,-143.98 353.64,-140.55 352.67,-144.63"/>
</g>
<!-- packages/util/color/src/util.ts -->
<g id="node9" class="node">
<title>packages/util/color/src/util.ts</title>
<g id="a_node9"><a xlink:href="packages/util/color/src/util.ts" xlink:title="util.ts">
<path fill="#ddfeff" stroke="black" d="M512,-132C512,-132 470,-132 470,-132 467,-132 464,-129 464,-126 464,-126 464,-120 464,-120 464,-117 467,-114 470,-114 470,-114 512,-114 512,-114 515,-114 518,-117 518,-120 518,-120 518,-126 518,-126 518,-129 515,-132 512,-132"/>
<text text-anchor="start" x="478" y="-120.8" font-family="Helvetica,sans-Serif" font-size="9.00">util.ts</text>
</a>
</g>
</g>
<!-- packages/util/color/index.test.ts&#45;&gt;packages/util/color/src/util.ts -->
<g id="edge7" class="edge">
<title>packages/util/color/index.test.ts&#45;&gt;packages/util/color/src/util.ts</title>
<path fill="none" stroke="#000000" stroke-width="2" stroke-opacity="0.200000" d="M105.26,-79.18C186.39,-88.39 379.78,-110.36 457.66,-119.21"/>
<polygon fill="#000000" fill-opacity="0.200000" stroke="#000000" stroke-width="2" stroke-opacity="0.200000" points="457.75,-121.34 463.95,-119.93 458.22,-117.16 457.75,-121.34"/>
</g>
<!-- packages/util/color/src/fifth&#45;chroma&#45;to&#45;color.ts&#45;&gt;packages/util/color/src/hsv2rgb.ts -->
<g id="edge13" class="edge">
<title>packages/util/color/src/fifth&#45;chroma&#45;to&#45;color.ts&#45;&gt;packages/util/color/src/hsv2rgb.ts</title>
<path fill="none" stroke="#000000" stroke-width="2" stroke-opacity="0.200000" d="M315.5,-144C329.05,-140.47 344.64,-136.4 358.46,-132.79"/>
<polygon fill="#000000" fill-opacity="0.200000" stroke="#000000" stroke-width="2" stroke-opacity="0.200000" points="358.99,-134.82 364.27,-131.28 357.93,-130.76 358.99,-134.82"/>
</g>
<!-- packages/util/color/src/fifth&#45;chroma&#45;to&#45;color.ts&#45;&gt;packages/util/color/src/rgb&#45;to&#45;string.ts -->
<g id="edge14" class="edge">
<title>packages/util/color/src/fifth&#45;chroma&#45;to&#45;color.ts&#45;&gt;packages/util/color/src/rgb&#45;to&#45;string.ts</title>
<path fill="none" stroke="#000000" stroke-width="2" stroke-opacity="0.200000" d="M340.52,-153C342.91,-153 345.29,-153 347.65,-153"/>
<polygon fill="#000000" fill-opacity="0.200000" stroke="#000000" stroke-width="2" stroke-opacity="0.200000" points="347.84,-155.1 353.84,-153 347.84,-150.9 347.84,-155.1"/>
</g>
<!-- packages/util/color/src/green&#45;hue.ts -->
<g id="node12" class="node">
<title>packages/util/color/src/green&#45;hue.ts</title>
<g id="a_node12"><a xlink:href="packages/util/color/src/green-hue.ts" xlink:title="green&#45;hue.ts">
<path fill="#ddfeff" stroke="black" d="M428,-192C428,-192 366,-192 366,-192 363,-192 360,-189 360,-186 360,-186 360,-180 360,-180 360,-177 363,-174 366,-174 366,-174 428,-174 428,-174 431,-174 434,-177 434,-180 434,-180 434,-186 434,-186 434,-189 431,-192 428,-192"/>
<text text-anchor="start" x="368" y="-180.8" font-family="Helvetica,sans-Serif" font-size="9.00">green&#45;hue.ts</text>
</a>
</g>
</g>
<!-- packages/util/color/src/fifth&#45;chroma&#45;to&#45;color.ts&#45;&gt;packages/util/color/src/green&#45;hue.ts -->
<g id="edge12" class="edge">
<title>packages/util/color/src/fifth&#45;chroma&#45;to&#45;color.ts&#45;&gt;packages/util/color/src/green&#45;hue.ts</title>
<path fill="none" stroke="#000000" stroke-width="2" stroke-opacity="0.200000" d="M315.5,-162C328.01,-165.26 342.26,-168.98 355.25,-172.37"/>
<polygon fill="#000000" fill-opacity="0.200000" stroke="#000000" stroke-width="2" stroke-opacity="0.200000" points="354.79,-174.42 361.12,-173.9 355.85,-170.36 354.79,-174.42"/>
</g>
<!-- packages/util/math/dist/index.js -->
<g id="node13" class="node">
<title>packages/util/math/dist/index.js</title>
<g id="a_node13"><a xlink:href="packages/util/math/dist/index.js" xlink:title="index.js">
<polygon fill="#ffffcc" stroke="black" points="518,-380 516.5,-382 506,-382 504.5,-380 464,-380 464,-362 518,-362 518,-380"/>
<text text-anchor="start" x="473.5" y="-368.8" font-family="Helvetica,sans-Serif" font-size="9.00">index.js</text>
</a>
</g>
</g>
<!-- packages/util/color/src/fifth&#45;chroma&#45;to&#45;color.ts&#45;&gt;packages/util/math/dist/index.js -->
<g id="edge15" class="edge">
<title>packages/util/color/src/fifth&#45;chroma&#45;to&#45;color.ts&#45;&gt;packages/util/math/dist/index.js</title>
<path fill="none" stroke="#000000" stroke-width="2" stroke-opacity="0.200000" d="M288.8,-162.09C321.77,-196.16 438.18,-316.43 477.73,-357.29"/>
<polygon fill="#000000" fill-opacity="0.200000" stroke="#000000" stroke-width="2" stroke-opacity="0.200000" points="476.48,-359.02 482.16,-361.87 479.5,-356.1 476.48,-359.02"/>
</g>
<!-- packages/util/color/src/fifth&#45;to&#45;color.ts&#45;&gt;packages/tonal&#45;objects/dist/index.js -->
<g id="edge17" class="edge">
<title>packages/util/color/src/fifth&#45;to&#45;color.ts&#45;&gt;packages/tonal&#45;objects/dist/index.js</title>
<path fill="none" stroke="#000000" stroke-width="2" stroke-opacity="0.200000" d="M170.49,-192.22C203.72,-236.05 345.84,-423.51 386.24,-476.81"/>
<polygon fill="#000000" fill-opacity="0.200000" stroke="#000000" stroke-width="2" stroke-opacity="0.200000" points="384.74,-478.31 390.04,-481.82 388.09,-475.77 384.74,-478.31"/>
</g>
<!-- packages/util/color/src/fifth&#45;to&#45;color.ts&#45;&gt;packages/util/color/src/fifth&#45;chroma&#45;to&#45;color.ts -->
<g id="edge16" class="edge">
<title>packages/util/color/src/fifth&#45;to&#45;color.ts&#45;&gt;packages/util/color/src/fifth&#45;chroma&#45;to&#45;color.ts</title>
<path fill="none" stroke="#000000" stroke-width="2" stroke-opacity="0.200000" d="M198.85,-174C211.31,-170.74 225.49,-167.02 238.43,-163.63"/>
<polygon fill="#000000" fill-opacity="0.200000" stroke="#000000" stroke-width="2" stroke-opacity="0.200000" points="239,-165.65 244.27,-162.1 237.94,-161.59 239,-165.65"/>
</g>
<!-- packages/util/color/src/hsv2rgb.ts&#45;&gt;packages/util/color/src/util.ts -->
<g id="edge18" class="edge">
<title>packages/util/color/src/hsv2rgb.ts&#45;&gt;packages/util/color/src/util.ts</title>
<path fill="none" stroke="#000000" stroke-width="2" stroke-opacity="0.200000" d="M429.66,-123C438.7,-123 448.56,-123 457.64,-123"/>
<polygon fill="#000000" fill-opacity="0.200000" stroke="#000000" stroke-width="2" stroke-opacity="0.200000" points="457.78,-125.1 463.78,-123 457.78,-120.9 457.78,-125.1"/>
</g>
<!-- packages/util/color/src/hsv2rgb.ts&#45;&gt;packages/util/math/dist/index.js -->
<g id="edge19" class="edge">
<title>packages/util/color/src/hsv2rgb.ts&#45;&gt;packages/util/math/dist/index.js</title>
<path fill="none" stroke="#000000" stroke-width="2" stroke-opacity="0.200000" d="M401.38,-132.12C415.19,-169.34 467.34,-309.92 484.49,-356.16"/>
<polygon fill="#000000" fill-opacity="0.200000" stroke="#000000" stroke-width="2" stroke-opacity="0.200000" points="482.53,-356.9 486.59,-361.8 486.47,-355.44 482.53,-356.9"/>
</g>
<!-- packages/util/stdlib/dist/index.js -->
<g id="node14" class="node">
<title>packages/util/stdlib/dist/index.js</title>
<g id="a_node14"><a xlink:href="packages/util/stdlib/dist/index.js" xlink:title="index.js">
<polygon fill="#ffffcc" stroke="black" points="518,-286 516.5,-288 506,-288 504.5,-286 464,-286 464,-268 518,-268 518,-286"/>
<text text-anchor="start" x="473.5" y="-274.8" font-family="Helvetica,sans-Serif" font-size="9.00">index.js</text>
</a>
</g>
</g>
<!-- packages/util/color/src/hsv2rgb.ts&#45;&gt;packages/util/stdlib/dist/index.js -->
<g id="edge20" class="edge">
<title>packages/util/color/src/hsv2rgb.ts&#45;&gt;packages/util/stdlib/dist/index.js</title>
<path fill="none" stroke="#000000" stroke-width="2" stroke-opacity="0.200000" d="M403.48,-132.17C418.85,-157.9 462.46,-230.9 481.23,-262.32"/>
<polygon fill="#000000" fill-opacity="0.200000" stroke="#000000" stroke-width="2" stroke-opacity="0.200000" points="479.55,-263.61 484.43,-267.68 483.16,-261.45 479.55,-263.61"/>
</g>
<!-- packages/util/color/src/note&#45;chroma&#45;to&#45;color.ts&#45;&gt;packages/util/color/src/hsv2rgb.ts -->
<g id="edge22" class="edge">
<title>packages/util/color/src/note&#45;chroma&#45;to&#45;color.ts&#45;&gt;packages/util/color/src/hsv2rgb.ts</title>
<path fill="none" stroke="#000000" stroke-width="2" stroke-opacity="0.200000" d="M341.19,-123C346.98,-123 352.72,-123 358.19,-123"/>
<polygon fill="#000000" fill-opacity="0.200000" stroke="#000000" stroke-width="2" stroke-opacity="0.200000" points="358.48,-125.1 364.48,-123 358.48,-120.9 358.48,-125.1"/>
</g>
<!-- packages/util/color/src/note&#45;chroma&#45;to&#45;color.ts&#45;&gt;packages/util/color/src/rgb&#45;to&#45;string.ts -->
<g id="edge23" class="edge">
<title>packages/util/color/src/note&#45;chroma&#45;to&#45;color.ts&#45;&gt;packages/util/color/src/rgb&#45;to&#45;string.ts</title>
<path fill="none" stroke="#000000" stroke-width="2" stroke-opacity="0.200000" d="M315.5,-132C328.01,-135.26 342.26,-138.98 355.25,-142.37"/>
<polygon fill="#000000" fill-opacity="0.200000" stroke="#000000" stroke-width="2" stroke-opacity="0.200000" points="354.79,-144.42 361.12,-143.9 355.85,-140.36 354.79,-144.42"/>
</g>
<!-- packages/util/color/src/note&#45;chroma&#45;to&#45;color.ts&#45;&gt;packages/util/color/src/green&#45;hue.ts -->
<g id="edge21" class="edge">
<title>packages/util/color/src/note&#45;chroma&#45;to&#45;color.ts&#45;&gt;packages/util/color/src/green&#45;hue.ts</title>
<path fill="none" stroke="#000000" stroke-width="2" stroke-opacity="0.200000" d="M298.47,-132.11C318.51,-142.57 351.43,-159.75 373.41,-171.21"/>
<polygon fill="#000000" fill-opacity="0.200000" stroke="#000000" stroke-width="2" stroke-opacity="0.200000" points="372.46,-173.08 378.75,-174 374.4,-169.36 372.46,-173.08"/>
</g>
<!-- packages/util/color/src/note&#45;to&#45;color.ts&#45;&gt;packages/tonal&#45;objects/dist/index.js -->
<g id="edge25" class="edge">
<title>packages/util/color/src/note&#45;to&#45;color.ts&#45;&gt;packages/tonal&#45;objects/dist/index.js</title>
<path fill="none" stroke="#000000" stroke-width="2" stroke-opacity="0.200000" d="M169.75,-162.04C201.78,-208.42 347.71,-419.65 387.15,-476.74"/>
<polygon fill="#000000" fill-opacity="0.200000" stroke="#000000" stroke-width="2" stroke-opacity="0.200000" points="385.49,-478.03 390.63,-481.77 388.94,-475.64 385.49,-478.03"/>
</g>
<!-- packages/util/color/src/note&#45;to&#45;color.ts&#45;&gt;packages/util/color/src/note&#45;chroma&#45;to&#45;color.ts -->
<g id="edge24" class="edge">
<title>packages/util/color/src/note&#45;to&#45;color.ts&#45;&gt;packages/util/color/src/note&#45;chroma&#45;to&#45;color.ts</title>
<path fill="none" stroke="#000000" stroke-width="2" stroke-opacity="0.200000" d="M198.85,-144C211.31,-140.74 225.49,-137.02 238.43,-133.63"/>
<polygon fill="#000000" fill-opacity="0.200000" stroke="#000000" stroke-width="2" stroke-opacity="0.200000" points="239,-135.65 244.27,-132.1 237.94,-131.59 239,-135.65"/>
</g>
<!-- packages/util/color/index.ts -->
<g id="node10" class="node">
<title>packages/util/color/index.ts</title>
<g id="a_node10"><a xlink:href="packages/util/color/index.ts" xlink:title="index.ts">
<path fill="#ddfeff" stroke="black" d="M89.5,-127C89.5,-127 47.5,-127 47.5,-127 44.5,-127 41.5,-124 41.5,-121 41.5,-121 41.5,-115 41.5,-115 41.5,-112 44.5,-109 47.5,-109 47.5,-109 89.5,-109 89.5,-109 92.5,-109 95.5,-112 95.5,-115 95.5,-115 95.5,-121 95.5,-121 95.5,-124 92.5,-127 89.5,-127"/>
<text text-anchor="start" x="50" y="-115.8" font-family="Helvetica,sans-Serif" font-size="9.00">index.ts</text>
</a>
</g>
</g>
<!-- packages/util/color/index.ts&#45;&gt;packages/util/color/src/fifth&#45;to&#45;color.ts -->
<g id="edge8" class="edge">
<title>packages/util/color/index.ts&#45;&gt;packages/util/color/src/fifth&#45;to&#45;color.ts</title>
<path fill="none" stroke="#000000" stroke-width="2" stroke-opacity="0.200000" d="M82.43,-127.04C98.44,-138.23 125.83,-157.37 144.04,-170.1"/>
<polygon fill="#000000" fill-opacity="0.200000" stroke="#000000" stroke-width="2" stroke-opacity="0.200000" points="148.18,-175.55 144.46,-170.39 150.58,-172.11 148.18,-175.55"/>
</g>
<!-- packages/util/color/index.ts&#45;&gt;packages/util/color/src/hsv2rgb.ts -->
<g id="edge9" class="edge">
<title>packages/util/color/index.ts&#45;&gt;packages/util/color/src/hsv2rgb.ts</title>
<path fill="none" stroke="#000000" stroke-width="2" stroke-opacity="0.200000" d="M95.66,-118.41C153.74,-119.3 290.19,-121.37 357.72,-122.4"/>
<polygon fill="#000000" fill-opacity="0.200000" stroke="#000000" stroke-width="2" stroke-opacity="0.200000" points="364.01,-124.6 358.04,-122.41 364.07,-120.4 364.01,-124.6"/>
</g>
<!-- packages/util/color/index.ts&#45;&gt;packages/util/color/src/rgb&#45;to&#45;string.ts -->
<g id="edge10" class="edge">
<title>packages/util/color/index.ts&#45;&gt;packages/util/color/src/rgb&#45;to&#45;string.ts</title>
<path fill="none" stroke="#000000" stroke-width="2" stroke-opacity="0.200000" d="M95.66,-120.89C150.95,-126.78 277.25,-140.24 347.52,-147.73"/>
<polygon fill="#000000" fill-opacity="0.200000" stroke="#000000" stroke-width="2" stroke-opacity="0.200000" points="353.5,-150.48 347.76,-147.75 353.95,-146.3 353.5,-150.48"/>
</g>
<!-- packages/util/color/src/third&#45;to&#45;color.ts -->
<g id="node11" class="node">
<title>packages/util/color/src/third&#45;to&#45;color.ts</title>
<g id="a_node11"><a xlink:href="packages/util/color/src/third-to-color.ts" xlink:title="third&#45;to&#45;color.ts">
<path fill="#ddfeff" stroke="black" d="M317,-192C317,-192 243,-192 243,-192 240,-192 237,-189 237,-186 237,-186 237,-180 237,-180 237,-177 240,-174 243,-174 243,-174 317,-174 317,-174 320,-174 323,-177 323,-180 323,-180 323,-186 323,-186 323,-189 320,-192 317,-192"/>
<text text-anchor="start" x="245" y="-180.8" font-family="Helvetica,sans-Serif" font-size="9.00">third&#45;to&#45;color.ts</text>
</a>
</g>
</g>
<!-- packages/util/color/index.ts&#45;&gt;packages/util/color/src/third&#45;to&#45;color.ts -->
<g id="edge11" class="edge">
<title>packages/util/color/index.ts&#45;&gt;packages/util/color/src/third&#45;to&#45;color.ts</title>
<path fill="none" stroke="#000000" stroke-width="2" stroke-opacity="0.200000" d="M95.72,-126.36C133.68,-138.03 202.58,-159.21 244.52,-172.1"/>
<polygon fill="#000000" fill-opacity="0.200000" stroke="#000000" stroke-width="2" stroke-opacity="0.200000" points="249.89,-175.94 244.77,-172.17 251.13,-171.93 249.89,-175.94"/>
</g>
<!-- packages/util/color/src/third&#45;to&#45;color.ts&#45;&gt;packages/tonal&#45;objects/dist/index.js -->
<g id="edge30" class="edge">
<title>packages/util/color/src/third&#45;to&#45;color.ts&#45;&gt;packages/tonal&#45;objects/dist/index.js</title>
<path fill="none" stroke="#000000" stroke-width="2" stroke-opacity="0.200000" d="M284.44,-192.22C300.74,-235.88 370.24,-422 390.46,-476.16"/>
<polygon fill="#000000" fill-opacity="0.200000" stroke="#000000" stroke-width="2" stroke-opacity="0.200000" points="388.51,-476.93 392.57,-481.82 392.44,-475.46 388.51,-476.93"/>
</g>
<!-- packages/util/color/src/third&#45;to&#45;color.ts&#45;&gt;packages/util/color/src/hsv2rgb.ts -->
<g id="edge27" class="edge">
<title>packages/util/color/src/third&#45;to&#45;color.ts&#45;&gt;packages/util/color/src/hsv2rgb.ts</title>
<path fill="none" stroke="#000000" stroke-width="2" stroke-opacity="0.200000" d="M298.47,-173.89C318.51,-163.43 351.43,-146.25 373.41,-134.79"/>
<polygon fill="#000000" fill-opacity="0.200000" stroke="#000000" stroke-width="2" stroke-opacity="0.200000" points="374.4,-136.64 378.75,-132 372.46,-132.92 374.4,-136.64"/>
</g>
<!-- packages/util/color/src/third&#45;to&#45;color.ts&#45;&gt;packages/util/color/src/rgb&#45;to&#45;string.ts -->
<g id="edge28" class="edge">
<title>packages/util/color/src/third&#45;to&#45;color.ts&#45;&gt;packages/util/color/src/rgb&#45;to&#45;string.ts</title>
<path fill="none" stroke="#000000" stroke-width="2" stroke-opacity="0.200000" d="M315.5,-174C328.01,-170.74 342.26,-167.02 355.25,-163.63"/>
<polygon fill="#000000" fill-opacity="0.200000" stroke="#000000" stroke-width="2" stroke-opacity="0.200000" points="355.85,-165.64 361.12,-162.1 354.79,-161.58 355.85,-165.64"/>
</g>
<!-- packages/util/color/src/third&#45;to&#45;color.ts&#45;&gt;packages/util/color/src/green&#45;hue.ts -->
<g id="edge26" class="edge">
<title>packages/util/color/src/third&#45;to&#45;color.ts&#45;&gt;packages/util/color/src/green&#45;hue.ts</title>
<path fill="none" stroke="#000000" stroke-width="2" stroke-opacity="0.200000" d="M323.17,-183C333.15,-183 343.79,-183 353.78,-183"/>
<polygon fill="#000000" fill-opacity="0.200000" stroke="#000000" stroke-width="2" stroke-opacity="0.200000" points="353.89,-185.1 359.89,-183 353.89,-180.9 353.89,-185.1"/>
</g>
<!-- packages/util/color/src/third&#45;to&#45;color.ts&#45;&gt;packages/util/math/dist/index.js -->
<g id="edge29" class="edge">
<title>packages/util/color/src/third&#45;to&#45;color.ts&#45;&gt;packages/util/math/dist/index.js</title>
<path fill="none" stroke="#000000" stroke-width="2" stroke-opacity="0.200000" d="M290.18,-192.07C324.35,-222.52 435.13,-321.22 475.82,-357.48"/>
<polygon fill="#000000" fill-opacity="0.200000" stroke="#000000" stroke-width="2" stroke-opacity="0.200000" points="474.55,-359.16 480.43,-361.58 477.35,-356.02 474.55,-359.16"/>
</g>
</g>
</svg>
