<?xml version="1.0" encoding="UTF-8" standalone="no"?>
<!DOCTYPE svg PUBLIC "-//W3C//DTD SVG 1.1//EN"
 "http://www.w3.org/Graphics/SVG/1.1/DTD/svg11.dtd">
<!-- Generated by graphviz version 2.43.0 (0)
 -->
<!-- Title: dependency&#45;cruiser output Pages: 1 -->
<svg width="660pt" height="396pt"
 viewBox="0.00 0.00 660.00 396.00" xmlns="http://www.w3.org/2000/svg" xmlns:xlink="http://www.w3.org/1999/xlink">
<g id="graph0" class="graph" transform="scale(1 1) rotate(0) translate(4 392)">
<title>dependency&#45;cruiser output</title>
<polygon fill="white" stroke="transparent" points="-4,4 -4,-392 656,-392 656,4 -4,4"/>
<g id="clust1" class="cluster">
<title>cluster_packages</title>
<path fill="#ffffff" stroke="black" stroke-width="2" d="M20,-8C20,-8 632,-8 632,-8 638,-8 644,-14 644,-20 644,-20 644,-368 644,-368 644,-374 638,-380 632,-380 632,-380 20,-380 20,-380 14,-380 8,-374 8,-368 8,-368 8,-20 8,-20 8,-14 14,-8 20,-8"/>
<text text-anchor="middle" x="326" y="-368.8" font-family="Helvetica,sans-Serif" font-weight="bold" font-size="9.00">packages</text>
</g>
<g id="clust2" class="cluster">
<title>cluster_packages/tonal&#45;objects</title>
<path fill="#ffffff" stroke="black" stroke-width="2" d="M554,-268C554,-268 616,-268 616,-268 622,-268 628,-274 628,-280 628,-280 628,-342 628,-342 628,-348 622,-354 616,-354 616,-354 554,-354 554,-354 548,-354 542,-348 542,-342 542,-342 542,-280 542,-280 542,-274 548,-268 554,-268"/>
<text text-anchor="middle" x="585" y="-342.8" font-family="Helvetica,sans-Serif" font-weight="bold" font-size="9.00">tonal&#45;objects</text>
</g>
<g id="clust3" class="cluster">
<title>cluster_packages/tonal&#45;objects/dist</title>
<path fill="#ffffff" stroke="black" stroke-width="2" d="M562,-276C562,-276 608,-276 608,-276 614,-276 620,-282 620,-288 620,-288 620,-316 620,-316 620,-322 614,-328 608,-328 608,-328 562,-328 562,-328 556,-328 550,-322 550,-316 550,-316 550,-288 550,-288 550,-282 556,-276 562,-276"/>
<text text-anchor="middle" x="585" y="-316.8" font-family="Helvetica,sans-Serif" font-weight="bold" font-size="9.00">dist</text>
</g>
<g id="clust4" class="cluster">
<title>cluster_packages/util</title>
<path fill="#ffffff" stroke="black" stroke-width="2" d="M28,-16C28,-16 624,-16 624,-16 630,-16 636,-22 636,-28 636,-28 636,-248 636,-248 636,-254 630,-260 624,-260 624,-260 28,-260 28,-260 22,-260 16,-254 16,-248 16,-248 16,-28 16,-28 16,-22 22,-16 28,-16"/>
<text text-anchor="middle" x="326" y="-248.8" font-family="Helvetica,sans-Serif" font-weight="bold" font-size="9.00">util</text>
</g>
<g id="clust5" class="cluster">
<title>cluster_packages/util/color</title>
<path fill="#ffffff" stroke="black" stroke-width="2" d="M36,-24C36,-24 522,-24 522,-24 528,-24 534,-30 534,-36 534,-36 534,-222 534,-222 534,-228 528,-234 522,-234 522,-234 36,-234 36,-234 30,-234 24,-228 24,-222 24,-222 24,-36 24,-36 24,-30 30,-24 36,-24"/>
<text text-anchor="middle" x="279" y="-222.8" font-family="Helvetica,sans-Serif" font-weight="bold" font-size="9.00">color</text>
</g>
<g id="clust6" class="cluster">
<title>cluster_packages/util/color/src</title>
<path fill="#ffffff" stroke="black" stroke-width="2" d="M125,-40C125,-40 514,-40 514,-40 520,-40 526,-46 526,-52 526,-52 526,-196 526,-196 526,-202 520,-208 514,-208 514,-208 125,-208 125,-208 119,-208 113,-202 113,-196 113,-196 113,-52 113,-52 113,-46 119,-40 125,-40"/>
<text text-anchor="middle" x="319.5" y="-196.8" font-family="Helvetica,sans-Serif" font-weight="bold" font-size="9.00">src</text>
</g>
<g id="clust7" class="cluster">
<title>cluster_packages/util/color/src/facade</title>
<path fill="#ffffff" stroke="black" stroke-width="2" d="M460,-71C460,-71 506,-71 506,-71 512,-71 518,-77 518,-83 518,-83 518,-111 518,-111 518,-117 512,-123 506,-123 506,-123 460,-123 460,-123 454,-123 448,-117 448,-111 448,-111 448,-83 448,-83 448,-77 454,-71 460,-71"/>
<text text-anchor="middle" x="483" y="-111.8" font-family="Helvetica,sans-Serif" font-weight="bold" font-size="9.00">facade</text>
</g>
<g id="clust8" class="cluster">
<title>cluster_packages/util/math</title>
<path fill="#ffffff" stroke="black" stroke-width="2" d="M554,-38C554,-38 616,-38 616,-38 622,-38 628,-44 628,-50 628,-50 628,-112 628,-112 628,-118 622,-124 616,-124 616,-124 554,-124 554,-124 548,-124 542,-118 542,-112 542,-112 542,-50 542,-50 542,-44 548,-38 554,-38"/>
<text text-anchor="middle" x="585" y="-112.8" font-family="Helvetica,sans-Serif" font-weight="bold" font-size="9.00">math</text>
</g>
<g id="clust9" class="cluster">
<title>cluster_packages/util/math/dist</title>
<path fill="#ffffff" stroke="black" stroke-width="2" d="M562,-46C562,-46 608,-46 608,-46 614,-46 620,-52 620,-58 620,-58 620,-86 620,-86 620,-92 614,-98 608,-98 608,-98 562,-98 562,-98 556,-98 550,-92 550,-86 550,-86 550,-58 550,-58 550,-52 556,-46 562,-46"/>
<text text-anchor="middle" x="585" y="-86.8" font-family="Helvetica,sans-Serif" font-weight="bold" font-size="9.00">dist</text>
</g>
<g id="clust10" class="cluster">
<title>cluster_packages/util/stdlib</title>
<path fill="#ffffff" stroke="black" stroke-width="2" d="M554,-132C554,-132 616,-132 616,-132 622,-132 628,-138 628,-144 628,-144 628,-206 628,-206 628,-212 622,-218 616,-218 616,-218 554,-218 554,-218 548,-218 542,-212 542,-206 542,-206 542,-144 542,-144 542,-138 548,-132 554,-132"/>
<text text-anchor="middle" x="585" y="-206.8" font-family="Helvetica,sans-Serif" font-weight="bold" font-size="9.00">stdlib</text>
</g>
<g id="clust11" class="cluster">
<title>cluster_packages/util/stdlib/dist</title>
<path fill="#ffffff" stroke="black" stroke-width="2" d="M562,-140C562,-140 608,-140 608,-140 614,-140 620,-146 620,-152 620,-152 620,-180 620,-180 620,-186 614,-192 608,-192 608,-192 562,-192 562,-192 556,-192 550,-186 550,-180 550,-180 550,-152 550,-152 550,-146 556,-140 562,-140"/>
<text text-anchor="middle" x="585" y="-180.8" font-family="Helvetica,sans-Serif" font-weight="bold" font-size="9.00">dist</text>
</g>
<!-- packages/tonal&#45;objects/dist/index.js -->
<g id="node1" class="node">
<title>packages/tonal&#45;objects/dist/index.js</title>
<g id="a_node1"><a xlink:href="packages/tonal-objects/dist/index.js" xlink:title="index.js">
<polygon fill="#ffffcc" stroke="black" points="612,-302 610.5,-304 600,-304 598.5,-302 558,-302 558,-284 612,-284 612,-302"/>
<text text-anchor="start" x="567.5" y="-290.8" font-family="Helvetica,sans-Serif" font-size="9.00">index.js</text>
</a>
</g>
</g>
<!-- packages/util/color/index.test.ts -->
<g id="node2" class="node">
<title>packages/util/color/index.test.ts</title>
<g id="a_node2"><a xlink:href="packages/util/color/index.test.ts" xlink:title="index.test.ts">
<path fill="#ddfeff" stroke="black" d="M99,-169C99,-169 38,-169 38,-169 35,-169 32,-166 32,-163 32,-163 32,-157 32,-157 32,-154 35,-151 38,-151 38,-151 99,-151 99,-151 102,-151 105,-154 105,-157 105,-157 105,-163 105,-163 105,-166 102,-169 99,-169"/>
<text text-anchor="start" x="40" y="-157.8" font-family="Helvetica,sans-Serif" font-size="9.00">index.test.ts</text>
</a>
</g>
</g>
<!-- packages/util/color/src/fifth&#45;chroma&#45;to&#45;color.ts -->
<g id="node3" class="node">
<title>packages/util/color/src/fifth&#45;chroma&#45;to&#45;color.ts</title>
<g id="a_node3"><a xlink:href="packages/util/color/src/fifth-chroma-to-color.ts" xlink:title="fifth&#45;chroma&#45;to&#45;color.ts">
<path fill="#ddfeff" stroke="black" d="M334.5,-180C334.5,-180 225.5,-180 225.5,-180 222.5,-180 219.5,-177 219.5,-174 219.5,-174 219.5,-168 219.5,-168 219.5,-165 222.5,-162 225.5,-162 225.5,-162 334.5,-162 334.5,-162 337.5,-162 340.5,-165 340.5,-168 340.5,-168 340.5,-174 340.5,-174 340.5,-177 337.5,-180 334.5,-180"/>
<text text-anchor="start" x="227.5" y="-168.8" font-family="Helvetica,sans-Serif" font-size="9.00">fifth&#45;chroma&#45;to&#45;color.ts</text>
</a>
</g>
</g>
<!-- packages/util/color/index.test.ts&#45;&gt;packages/util/color/src/fifth&#45;chroma&#45;to&#45;color.ts -->
<g id="edge1" class="edge">
<title>packages/util/color/index.test.ts&#45;&gt;packages/util/color/src/fifth&#45;chroma&#45;to&#45;color.ts</title>
<path fill="none" stroke="#000000" stroke-width="2" stroke-opacity="0.200000" d="M105.02,-163.27C109.75,-163.7 113,-164 113,-164 113,-164 166.6,-166.26 212.89,-168.21"/>
<polygon fill="#000000" fill-opacity="0.200000" stroke="#000000" stroke-width="2" stroke-opacity="0.200000" points="212.99,-170.32 219.07,-168.47 213.16,-166.12 212.99,-170.32"/>
</g>
<!-- packages/util/color/src/fifth&#45;to&#45;color.ts -->
<g id="node4" class="node">
<title>packages/util/color/src/fifth&#45;to&#45;color.ts</title>
<g id="a_node4"><a xlink:href="packages/util/color/src/fifth-to-color.ts" xlink:title="fifth&#45;to&#45;color.ts">
<path fill="#ddfeff" stroke="black" d="M199,-117C199,-117 128,-117 128,-117 125,-117 122,-114 122,-111 122,-111 122,-105 122,-105 122,-102 125,-99 128,-99 128,-99 199,-99 199,-99 202,-99 205,-102 205,-105 205,-105 205,-111 205,-111 205,-114 202,-117 199,-117"/>
<text text-anchor="start" x="130" y="-105.8" font-family="Helvetica,sans-Serif" font-size="9.00">fifth&#45;to&#45;color.ts</text>
</a>
</g>
</g>
<!-- packages/util/color/index.test.ts&#45;&gt;packages/util/color/src/fifth&#45;to&#45;color.ts -->
<g id="edge2" class="edge">
<title>packages/util/color/index.test.ts&#45;&gt;packages/util/color/src/fifth&#45;to&#45;color.ts</title>
<path fill="none" stroke="#000000" stroke-width="2" stroke-opacity="0.200000" d="M80.48,-150.66C93.36,-139.7 113,-123 113,-123 113,-123 118.8,-121.24 126.44,-118.93"/>
<polygon fill="#000000" fill-opacity="0.200000" stroke="#000000" stroke-width="2" stroke-opacity="0.200000" points="127.43,-120.82 132.56,-117.07 126.21,-116.8 127.43,-120.82"/>
</g>
<!-- packages/util/color/src/hsv2rgb.ts -->
<g id="node5" class="node">
<title>packages/util/color/src/hsv2rgb.ts</title>
<g id="a_node5"><a xlink:href="packages/util/color/src/hsv2rgb.ts" xlink:title="hsv2rgb.ts">
<path fill="#ddfeff" stroke="black" d="M423.5,-108C423.5,-108 370.5,-108 370.5,-108 367.5,-108 364.5,-105 364.5,-102 364.5,-102 364.5,-96 364.5,-96 364.5,-93 367.5,-90 370.5,-90 370.5,-90 423.5,-90 423.5,-90 426.5,-90 429.5,-93 429.5,-96 429.5,-96 429.5,-102 429.5,-102 429.5,-105 426.5,-108 423.5,-108"/>
<text text-anchor="start" x="372.5" y="-96.8" font-family="Helvetica,sans-Serif" font-size="9.00">hsv2rgb.ts</text>
</a>
</g>
</g>
<!-- packages/util/color/index.test.ts&#45;&gt;packages/util/color/src/hsv2rgb.ts -->
<g id="edge3" class="edge">
<title>packages/util/color/index.test.ts&#45;&gt;packages/util/color/src/hsv2rgb.ts</title>
<path fill="none" stroke="#000000" stroke-width="2" stroke-opacity="0.200000" d="M75.37,-150.96C87.24,-132.68 113,-93 113,-93 113,-93 206,-93 206,-93 206,-93 341,-96 341,-96 341,-96 348.61,-96.42 358.17,-96.94"/>
<polygon fill="#000000" fill-opacity="0.200000" stroke="#000000" stroke-width="2" stroke-opacity="0.200000" points="358.22,-99.04 364.32,-97.27 358.45,-94.85 358.22,-99.04"/>
</g>
<!-- packages/util/color/src/note&#45;chroma&#45;to&#45;color.ts -->
<g id="node6" class="node">
<title>packages/util/color/src/note&#45;chroma&#45;to&#45;color.ts</title>
<g id="a_node6"><a xlink:href="packages/util/color/src/note-chroma-to-color.ts" xlink:title="note&#45;chroma&#45;to&#45;color.ts">
<path fill="#ddfeff" stroke="black" d="M335,-150C335,-150 225,-150 225,-150 222,-150 219,-147 219,-144 219,-144 219,-138 219,-138 219,-135 222,-132 225,-132 225,-132 335,-132 335,-132 338,-132 341,-135 341,-138 341,-138 341,-144 341,-144 341,-147 338,-150 335,-150"/>
<text text-anchor="start" x="227" y="-138.8" font-family="Helvetica,sans-Serif" font-size="9.00">note&#45;chroma&#45;to&#45;color.ts</text>
</a>
</g>
</g>
<!-- packages/util/color/index.test.ts&#45;&gt;packages/util/color/src/note&#45;chroma&#45;to&#45;color.ts -->
<g id="edge4" class="edge">
<title>packages/util/color/index.test.ts&#45;&gt;packages/util/color/src/note&#45;chroma&#45;to&#45;color.ts</title>
<path fill="none" stroke="#000000" stroke-width="2" stroke-opacity="0.200000" d="M105.01,-158.18C145.45,-156.11 206,-153 206,-153 206,-153 210.87,-152.2 218.1,-151.01"/>
<polygon fill="#000000" fill-opacity="0.200000" stroke="#000000" stroke-width="2" stroke-opacity="0.200000" points="218.47,-153.08 224.04,-150.03 217.78,-148.93 218.47,-153.08"/>
</g>
<!-- packages/util/color/src/note&#45;to&#45;color.ts -->
<g id="node7" class="node">
<title>packages/util/color/src/note&#45;to&#45;color.ts</title>
<g id="a_node7"><a xlink:href="packages/util/color/src/note-to-color.ts" xlink:title="note&#45;to&#45;color.ts">
<path fill="#ddfeff" stroke="black" d="M200,-147C200,-147 127,-147 127,-147 124,-147 121,-144 121,-141 121,-141 121,-135 121,-135 121,-132 124,-129 127,-129 127,-129 200,-129 200,-129 203,-129 206,-132 206,-135 206,-135 206,-141 206,-141 206,-144 203,-147 200,-147"/>
<text text-anchor="start" x="129" y="-135.8" font-family="Helvetica,sans-Serif" font-size="9.00">note&#45;to&#45;color.ts</text>
</a>
</g>
</g>
<!-- packages/util/color/index.test.ts&#45;&gt;packages/util/color/src/note&#45;to&#45;color.ts -->
<g id="edge5" class="edge">
<title>packages/util/color/index.test.ts&#45;&gt;packages/util/color/src/note&#45;to&#45;color.ts</title>
<path fill="none" stroke="#000000" stroke-width="2" stroke-opacity="0.200000" d="M105.19,-151.56C109.49,-150.54 113.91,-149.49 118.31,-148.45"/>
<polygon fill="#000000" fill-opacity="0.200000" stroke="#000000" stroke-width="2" stroke-opacity="0.200000" points="118.92,-150.47 124.28,-147.04 117.96,-146.38 118.92,-150.47"/>
</g>
<!-- packages/util/color/src/rgb&#45;to&#45;string.ts -->
<g id="node8" class="node">
<title>packages/util/color/src/rgb&#45;to&#45;string.ts</title>
<g id="a_node8"><a xlink:href="packages/util/color/src/rgb-to-string.ts" xlink:title="rgb&#45;to&#45;string.ts">
<path fill="#ddfeff" stroke="black" d="M434,-138C434,-138 360,-138 360,-138 357,-138 354,-135 354,-132 354,-132 354,-126 354,-126 354,-123 357,-120 360,-120 360,-120 434,-120 434,-120 437,-120 440,-123 440,-126 440,-126 440,-132 440,-132 440,-135 437,-138 434,-138"/>
<text text-anchor="start" x="362" y="-126.8" font-family="Helvetica,sans-Serif" font-size="9.00">rgb&#45;to&#45;string.ts</text>
</a>
</g>
</g>
<!-- packages/util/color/index.test.ts&#45;&gt;packages/util/color/src/rgb&#45;to&#45;string.ts -->
<g id="edge6" class="edge">
<title>packages/util/color/index.test.ts&#45;&gt;packages/util/color/src/rgb&#45;to&#45;string.ts</title>
<path fill="none" stroke="#000000" stroke-width="2" stroke-opacity="0.200000" d="M105.02,-167.35C109.75,-168.33 113,-169 113,-169 113,-169 219,-186 219,-186 219,-186 341,-186 341,-186 341,-186 354,-144 354,-144 354,-144 358.55,-142.38 364.65,-140.2"/>
<polygon fill="#000000" fill-opacity="0.200000" stroke="#000000" stroke-width="2" stroke-opacity="0.200000" points="365.66,-142.07 370.6,-138.07 364.24,-138.11 365.66,-142.07"/>
</g>
<!-- packages/util/color/src/util.ts -->
<g id="node9" class="node">
<title>packages/util/color/src/util.ts</title>
<g id="a_node9"><a xlink:href="packages/util/color/src/util.ts" xlink:title="util.ts">
<path fill="#ddfeff" stroke="black" d="M504,-171C504,-171 462,-171 462,-171 459,-171 456,-168 456,-165 456,-165 456,-159 456,-159 456,-156 459,-153 462,-153 462,-153 504,-153 504,-153 507,-153 510,-156 510,-159 510,-159 510,-165 510,-165 510,-168 507,-171 504,-171"/>
<text text-anchor="start" x="470" y="-159.8" font-family="Helvetica,sans-Serif" font-size="9.00">util.ts</text>
</a>
</g>
</g>
<!-- packages/util/color/index.test.ts&#45;&gt;packages/util/color/src/util.ts -->
<g id="edge7" class="edge">
<title>packages/util/color/index.test.ts&#45;&gt;packages/util/color/src/util.ts</title>
<path fill="none" stroke="#000000" stroke-width="2" stroke-opacity="0.200000" d="M89.21,-169.06C100.72,-174.36 113,-180 113,-180 113,-180 219,-190 219,-190 219,-190 341,-190 341,-190 341,-190 440,-178 440,-178 440,-178 445.26,-175.99 452.06,-173.4"/>
<polygon fill="#000000" fill-opacity="0.200000" stroke="#000000" stroke-width="2" stroke-opacity="0.200000" points="453.2,-175.22 458.06,-171.12 451.7,-171.3 453.2,-175.22"/>
</g>
<!-- packages/util/color/src/fifth&#45;chroma&#45;to&#45;color.ts&#45;&gt;packages/util/color/src/hsv2rgb.ts -->
<g id="edge17" class="edge">
<title>packages/util/color/src/fifth&#45;chroma&#45;to&#45;color.ts&#45;&gt;packages/util/color/src/hsv2rgb.ts</title>
<path fill="none" stroke="#000000" stroke-width="2" stroke-opacity="0.200000" d="M317.29,-161.93C329.92,-158.77 341,-156 341,-156 341,-156 354,-114 354,-114 354,-114 358.55,-112.38 364.65,-110.2"/>
<polygon fill="#000000" fill-opacity="0.200000" stroke="#000000" stroke-width="2" stroke-opacity="0.200000" points="365.66,-112.07 370.6,-108.07 364.24,-108.11 365.66,-112.07"/>
</g>
<!-- packages/util/color/src/fifth&#45;chroma&#45;to&#45;color.ts&#45;&gt;packages/util/color/src/rgb&#45;to&#45;string.ts -->
<g id="edge18" class="edge">
<title>packages/util/color/src/fifth&#45;chroma&#45;to&#45;color.ts&#45;&gt;packages/util/color/src/rgb&#45;to&#45;string.ts</title>
<path fill="none" stroke="#000000" stroke-width="2" stroke-opacity="0.200000" d="M317.29,-161.93C329.92,-158.77 341,-156 341,-156 341,-156 354,-144 354,-144 354,-144 358.55,-142.38 364.65,-140.2"/>
<polygon fill="#000000" fill-opacity="0.200000" stroke="#000000" stroke-width="2" stroke-opacity="0.200000" points="365.66,-142.07 370.6,-138.07 364.24,-138.11 365.66,-142.07"/>
</g>
<!-- packages/util/color/src/facade/index.ts -->
<g id="node12" class="node">
<title>packages/util/color/src/facade/index.ts</title>
<g id="a_node12"><a xlink:href="packages/util/color/src/facade/index.ts" xlink:title="index.ts">
<path fill="#ddfeff" stroke="black" d="M504,-97C504,-97 462,-97 462,-97 459,-97 456,-94 456,-91 456,-91 456,-85 456,-85 456,-82 459,-79 462,-79 462,-79 504,-79 504,-79 507,-79 510,-82 510,-85 510,-85 510,-91 510,-91 510,-94 507,-97 504,-97"/>
<text text-anchor="start" x="464.5" y="-85.8" font-family="Helvetica,sans-Serif" font-size="9.00">index.ts</text>
</a>
</g>
</g>
<!-- packages/util/color/src/fifth&#45;chroma&#45;to&#45;color.ts&#45;&gt;packages/util/color/src/facade/index.ts -->
<g id="edge15" class="edge">
<title>packages/util/color/src/fifth&#45;chroma&#45;to&#45;color.ts&#45;&gt;packages/util/color/src/facade/index.ts</title>
<path fill="none" stroke="#000000" stroke-width="2" stroke-opacity="0.200000" d="M340.61,-173.45C348.54,-173.78 354,-174 354,-174 354,-174 440,-174 440,-174 440,-174 448,-101 448,-101 448,-101 449.79,-100.32 452.55,-99.26"/>
<polygon fill="#000000" fill-opacity="0.200000" stroke="#000000" stroke-width="2" stroke-opacity="0.200000" points="453.53,-101.13 458.39,-97.03 452.03,-97.21 453.53,-101.13"/>
</g>
<!-- packages/util/color/src/green&#45;hue.ts -->
<g id="node15" class="node">
<title>packages/util/color/src/green&#45;hue.ts</title>
<g id="a_node15"><a xlink:href="packages/util/color/src/green-hue.ts" xlink:title="green&#45;hue.ts">
<path fill="#ddfeff" stroke="black" d="M428,-168C428,-168 366,-168 366,-168 363,-168 360,-165 360,-162 360,-162 360,-156 360,-156 360,-153 363,-150 366,-150 366,-150 428,-150 428,-150 431,-150 434,-153 434,-156 434,-156 434,-162 434,-162 434,-165 431,-168 428,-168"/>
<text text-anchor="start" x="368" y="-156.8" font-family="Helvetica,sans-Serif" font-size="9.00">green&#45;hue.ts</text>
</a>
</g>
</g>
<!-- packages/util/color/src/fifth&#45;chroma&#45;to&#45;color.ts&#45;&gt;packages/util/color/src/green&#45;hue.ts -->
<g id="edge16" class="edge">
<title>packages/util/color/src/fifth&#45;chroma&#45;to&#45;color.ts&#45;&gt;packages/util/color/src/green&#45;hue.ts</title>
<path fill="none" stroke="#000000" stroke-width="2" stroke-opacity="0.200000" d="M340.52,-164.79C344.94,-164.33 349.34,-163.87 353.62,-163.42"/>
<polygon fill="#000000" fill-opacity="0.200000" stroke="#000000" stroke-width="2" stroke-opacity="0.200000" points="354.05,-165.49 359.8,-162.78 353.62,-161.31 354.05,-165.49"/>
</g>
<!-- packages/util/color/src/fifth&#45;to&#45;color.ts&#45;&gt;packages/util/color/src/fifth&#45;chroma&#45;to&#45;color.ts -->
<g id="edge20" class="edge">
<title>packages/util/color/src/fifth&#45;to&#45;color.ts&#45;&gt;packages/util/color/src/fifth&#45;chroma&#45;to&#45;color.ts</title>
<path fill="none" stroke="#000000" stroke-width="2" stroke-opacity="0.200000" d="M189.6,-117.07C198.34,-120.23 206,-123 206,-123 206,-123 219,-156 219,-156 219,-156 226.74,-157.94 236.66,-160.42"/>
<polygon fill="#000000" fill-opacity="0.200000" stroke="#000000" stroke-width="2" stroke-opacity="0.200000" points="236.38,-162.51 242.71,-161.93 237.4,-158.44 236.38,-162.51"/>
</g>
<!-- packages/util/color/src/fifth&#45;to&#45;color.ts&#45;&gt;packages/util/color/src/facade/index.ts -->
<g id="edge19" class="edge">
<title>packages/util/color/src/fifth&#45;to&#45;color.ts&#45;&gt;packages/util/color/src/facade/index.ts</title>
<path fill="none" stroke="#000000" stroke-width="2" stroke-opacity="0.200000" d="M186.04,-98.91C201.27,-92.48 219,-85 219,-85 219,-85 354,-59 354,-59 354,-59 440,-59 440,-59 440,-59 452.34,-67.52 463.64,-75.32"/>
<polygon fill="#000000" fill-opacity="0.200000" stroke="#000000" stroke-width="2" stroke-opacity="0.200000" points="462.58,-77.14 468.71,-78.82 464.97,-73.69 462.58,-77.14"/>
</g>
<!-- packages/util/color/src/hsv2rgb.ts&#45;&gt;packages/util/color/src/util.ts -->
<g id="edge22" class="edge">
<title>packages/util/color/src/hsv2rgb.ts&#45;&gt;packages/util/color/src/util.ts</title>
<path fill="none" stroke="#000000" stroke-width="2" stroke-opacity="0.200000" d="M423.4,-108.07C432.25,-111.23 440,-114 440,-114 440,-114 448,-126 448,-126 448,-126 459.54,-138.22 469.18,-148.42"/>
<polygon fill="#000000" fill-opacity="0.200000" stroke="#000000" stroke-width="2" stroke-opacity="0.200000" points="467.77,-150 473.42,-152.92 470.83,-147.11 467.77,-150"/>
</g>
<!-- packages/util/color/src/hsv2rgb.ts&#45;&gt;packages/util/color/src/facade/index.ts -->
<g id="edge21" class="edge">
<title>packages/util/color/src/hsv2rgb.ts&#45;&gt;packages/util/color/src/facade/index.ts</title>
<path fill="none" stroke="#000000" stroke-width="2" stroke-opacity="0.200000" d="M429.76,-94.84C436.37,-93.97 443.35,-93.06 449.98,-92.19"/>
<polygon fill="#000000" fill-opacity="0.200000" stroke="#000000" stroke-width="2" stroke-opacity="0.200000" points="450.27,-94.27 455.94,-91.41 449.72,-90.11 450.27,-94.27"/>
</g>
<!-- packages/util/color/src/note&#45;chroma&#45;to&#45;color.ts&#45;&gt;packages/util/color/src/hsv2rgb.ts -->
<g id="edge24" class="edge">
<title>packages/util/color/src/note&#45;chroma&#45;to&#45;color.ts&#45;&gt;packages/util/color/src/hsv2rgb.ts</title>
<path fill="none" stroke="#000000" stroke-width="2" stroke-opacity="0.200000" d="M317.29,-131.93C329.92,-128.77 341,-126 341,-126 341,-126 354,-114 354,-114 354,-114 358.55,-112.38 364.65,-110.2"/>
<polygon fill="#000000" fill-opacity="0.200000" stroke="#000000" stroke-width="2" stroke-opacity="0.200000" points="365.66,-112.07 370.6,-108.07 364.24,-108.11 365.66,-112.07"/>
</g>
<!-- packages/util/color/src/note&#45;chroma&#45;to&#45;color.ts&#45;&gt;packages/util/color/src/rgb&#45;to&#45;string.ts -->
<g id="edge25" class="edge">
<title>packages/util/color/src/note&#45;chroma&#45;to&#45;color.ts&#45;&gt;packages/util/color/src/rgb&#45;to&#45;string.ts</title>
<path fill="none" stroke="#000000" stroke-width="2" stroke-opacity="0.200000" d="M341.19,-134.72C343.31,-134.5 345.43,-134.28 347.53,-134.06"/>
<polygon fill="#000000" fill-opacity="0.200000" stroke="#000000" stroke-width="2" stroke-opacity="0.200000" points="348.01,-136.12 353.76,-133.41 347.57,-131.94 348.01,-136.12"/>
</g>
<!-- packages/util/color/src/note&#45;chroma&#45;to&#45;color.ts&#45;&gt;packages/util/color/src/green&#45;hue.ts -->
<g id="edge23" class="edge">
<title>packages/util/color/src/note&#45;chroma&#45;to&#45;color.ts&#45;&gt;packages/util/color/src/green&#45;hue.ts</title>
<path fill="none" stroke="#000000" stroke-width="2" stroke-opacity="0.200000" d="M338.84,-150.05C343.87,-150.84 348.9,-151.63 353.77,-152.39"/>
<polygon fill="#000000" fill-opacity="0.200000" stroke="#000000" stroke-width="2" stroke-opacity="0.200000" points="353.6,-154.49 359.85,-153.34 354.25,-150.34 353.6,-154.49"/>
</g>
<!-- packages/util/color/src/note&#45;to&#45;color.ts&#45;&gt;packages/util/color/src/note&#45;chroma&#45;to&#45;color.ts -->
<g id="edge27" class="edge">
<title>packages/util/color/src/note&#45;to&#45;color.ts&#45;&gt;packages/util/color/src/note&#45;chroma&#45;to&#45;color.ts</title>
<path fill="none" stroke="#000000" stroke-width="2" stroke-opacity="0.200000" d="M206.16,-139.09C208.21,-139.15 210.28,-139.2 212.37,-139.25"/>
<polygon fill="#000000" fill-opacity="0.200000" stroke="#000000" stroke-width="2" stroke-opacity="0.200000" points="212.64,-141.36 218.69,-139.42 212.75,-137.16 212.64,-141.36"/>
</g>
<!-- packages/util/color/src/note&#45;to&#45;color.ts&#45;&gt;packages/util/color/src/facade/index.ts -->
<g id="edge26" class="edge">
<title>packages/util/color/src/note&#45;to&#45;color.ts&#45;&gt;packages/util/color/src/facade/index.ts</title>
<path fill="none" stroke="#000000" stroke-width="2" stroke-opacity="0.200000" d="M189.6,-128.93C198.34,-125.77 206,-123 206,-123 206,-123 219,-96 219,-96 219,-96 354,-81 354,-81 354,-81 440,-81 440,-81 440,-81 444.05,-81.68 449.64,-82.61"/>
<polygon fill="#000000" fill-opacity="0.200000" stroke="#000000" stroke-width="2" stroke-opacity="0.200000" points="449.38,-84.69 455.64,-83.61 450.07,-80.55 449.38,-84.69"/>
</g>
<!-- packages/util/color/index.ts -->
<g id="node10" class="node">
<title>packages/util/color/index.ts</title>
<g id="a_node10"><a xlink:href="packages/util/color/index.ts" xlink:title="index.ts">
<path fill="#ddfeff" stroke="black" d="M89.5,-81C89.5,-81 47.5,-81 47.5,-81 44.5,-81 41.5,-78 41.5,-75 41.5,-75 41.5,-69 41.5,-69 41.5,-66 44.5,-63 47.5,-63 47.5,-63 89.5,-63 89.5,-63 92.5,-63 95.5,-66 95.5,-69 95.5,-69 95.5,-75 95.5,-75 95.5,-78 92.5,-81 89.5,-81"/>
<text text-anchor="start" x="50" y="-69.8" font-family="Helvetica,sans-Serif" font-size="9.00">index.ts</text>
</a>
</g>
</g>
<!-- packages/util/color/index.ts&#45;&gt;packages/util/color/src/fifth&#45;to&#45;color.ts -->
<g id="edge8" class="edge">
<title>packages/util/color/index.ts&#45;&gt;packages/util/color/src/fifth&#45;to&#45;color.ts</title>
<path fill="none" stroke="#000000" stroke-width="2" stroke-opacity="0.200000" d="M86.69,-81.09C98.85,-87.52 113,-95 113,-95 113,-95 116.75,-95.99 122.19,-97.41"/>
<polygon fill="#000000" fill-opacity="0.200000" stroke="#000000" stroke-width="2" stroke-opacity="0.200000" points="127.59,-101 122.32,-97.45 128.65,-96.94 127.59,-101"/>
</g>
<!-- packages/util/color/index.ts&#45;&gt;packages/util/color/src/hsv2rgb.ts -->
<g id="edge9" class="edge">
<title>packages/util/color/index.ts&#45;&gt;packages/util/color/src/hsv2rgb.ts</title>
<path fill="none" stroke="#000000" stroke-width="2" stroke-opacity="0.200000" d="M91.5,-62.89C102.29,-58.43 113,-54 113,-54 113,-54 219,-43 219,-43 219,-43 341,-43 341,-43 341,-43 366.31,-68.77 382.59,-85.35"/>
<polygon fill="#000000" fill-opacity="0.200000" stroke="#000000" stroke-width="2" stroke-opacity="0.200000" points="385.42,-91.22 382.71,-85.47 388.42,-88.28 385.42,-91.22"/>
</g>
<!-- packages/util/color/index.ts&#45;&gt;packages/util/color/src/rgb&#45;to&#45;string.ts -->
<g id="edge10" class="edge">
<title>packages/util/color/index.ts&#45;&gt;packages/util/color/src/rgb&#45;to&#45;string.ts</title>
<path fill="none" stroke="#000000" stroke-width="2" stroke-opacity="0.200000" d="M95.82,-72.58C135.48,-73.45 206,-75 206,-75 206,-75 341,-96 341,-96 341,-96 354,-114 354,-114 354,-114 358.55,-115.62 364.65,-117.8"/>
<polygon fill="#000000" fill-opacity="0.200000" stroke="#000000" stroke-width="2" stroke-opacity="0.200000" points="369.89,-121.91 364.95,-117.91 371.31,-117.95 369.89,-121.91"/>
</g>
<!-- packages/util/color/src/third&#45;to&#45;color.ts -->
<g id="node11" class="node">
<title>packages/util/color/src/third&#45;to&#45;color.ts</title>
<g id="a_node11"><a xlink:href="packages/util/color/src/third-to-color.ts" xlink:title="third&#45;to&#45;color.ts">
<path fill="#ddfeff" stroke="black" d="M317,-120C317,-120 243,-120 243,-120 240,-120 237,-117 237,-114 237,-114 237,-108 237,-108 237,-105 240,-102 243,-102 243,-102 317,-102 317,-102 320,-102 323,-105 323,-108 323,-108 323,-114 323,-114 323,-117 320,-120 317,-120"/>
<text text-anchor="start" x="245" y="-108.8" font-family="Helvetica,sans-Serif" font-size="9.00">third&#45;to&#45;color.ts</text>
</a>
</g>
</g>
<!-- packages/util/color/index.ts&#45;&gt;packages/util/color/src/third&#45;to&#45;color.ts -->
<g id="edge11" class="edge">
<title>packages/util/color/index.ts&#45;&gt;packages/util/color/src/third&#45;to&#45;color.ts</title>
<path fill="none" stroke="#000000" stroke-width="2" stroke-opacity="0.200000" d="M95.82,-76.05C135.48,-82.15 206,-93 206,-93 206,-93 219,-98 219,-98 219,-98 224.14,-99.11 231.4,-100.69"/>
<polygon fill="#000000" fill-opacity="0.200000" stroke="#000000" stroke-width="2" stroke-opacity="0.200000" points="236.88,-104.02 231.46,-100.7 237.77,-99.92 236.88,-104.02"/>
</g>
<!-- packages/util/color/src/third&#45;to&#45;color.ts&#45;&gt;packages/util/color/src/hsv2rgb.ts -->
<g id="edge30" class="edge">
<title>packages/util/color/src/third&#45;to&#45;color.ts&#45;&gt;packages/util/color/src/hsv2rgb.ts</title>
<path fill="none" stroke="#000000" stroke-width="2" stroke-opacity="0.200000" d="M323.17,-106.6C334.64,-105.4 346.98,-104.12 358.19,-102.95"/>
<polygon fill="#000000" fill-opacity="0.200000" stroke="#000000" stroke-width="2" stroke-opacity="0.200000" points="358.54,-105.02 364.29,-102.31 358.1,-100.84 358.54,-105.02"/>
</g>
<!-- packages/util/color/src/third&#45;to&#45;color.ts&#45;&gt;packages/util/color/src/rgb&#45;to&#45;string.ts -->
<g id="edge31" class="edge">
<title>packages/util/color/src/third&#45;to&#45;color.ts&#45;&gt;packages/util/color/src/rgb&#45;to&#45;string.ts</title>
<path fill="none" stroke="#000000" stroke-width="2" stroke-opacity="0.200000" d="M323.17,-117.6C331.14,-118.85 339.53,-120.16 347.67,-121.44"/>
<polygon fill="#000000" fill-opacity="0.200000" stroke="#000000" stroke-width="2" stroke-opacity="0.200000" points="347.58,-123.55 353.84,-122.4 348.23,-119.4 347.58,-123.55"/>
</g>
<!-- packages/util/color/src/third&#45;to&#45;color.ts&#45;&gt;packages/util/color/src/facade/index.ts -->
<g id="edge28" class="edge">
<title>packages/util/color/src/third&#45;to&#45;color.ts&#45;&gt;packages/util/color/src/facade/index.ts</title>
<path fill="none" stroke="#000000" stroke-width="2" stroke-opacity="0.200000" d="M311.35,-101.89C326.23,-97.43 341,-93 341,-93 341,-93 354,-84 354,-84 354,-84 440,-84 440,-84 440,-84 444.05,-84.39 449.64,-84.92"/>
<polygon fill="#000000" fill-opacity="0.200000" stroke="#000000" stroke-width="2" stroke-opacity="0.200000" points="449.47,-87.01 455.64,-85.49 449.87,-82.83 449.47,-87.01"/>
</g>
<!-- packages/util/color/src/third&#45;to&#45;color.ts&#45;&gt;packages/util/color/src/green&#45;hue.ts -->
<g id="edge29" class="edge">
<title>packages/util/color/src/third&#45;to&#45;color.ts&#45;&gt;packages/util/color/src/green&#45;hue.ts</title>
<path fill="none" stroke="#000000" stroke-width="2" stroke-opacity="0.200000" d="M317.29,-120.07C329.92,-123.23 341,-126 341,-126 341,-126 354,-144 354,-144 354,-144 358.55,-145.62 364.65,-147.8"/>
<polygon fill="#000000" fill-opacity="0.200000" stroke="#000000" stroke-width="2" stroke-opacity="0.200000" points="364.24,-149.89 370.6,-149.93 365.66,-145.93 364.24,-149.89"/>
</g>
<!-- packages/util/color/src/facade/index.ts&#45;&gt;packages/tonal&#45;objects/dist/index.js -->
<g id="edge14" class="edge">
<title>packages/util/color/src/facade/index.ts&#45;&gt;packages/tonal&#45;objects/dist/index.js</title>
<path fill="none" stroke="#000000" stroke-width="2" stroke-opacity="0.200000" d="M510.17,-94.8C522.27,-97.95 534,-101 534,-101 534,-101 542,-195 542,-195 542,-195 565.96,-250.92 577.69,-278.28"/>
<polygon fill="#000000" fill-opacity="0.200000" stroke="#000000" stroke-width="2" stroke-opacity="0.200000" points="578.19,-284.78 577.76,-278.44 582.05,-283.13 578.19,-284.78"/>
</g>
<!-- packages/util/math/dist/index.js -->
<g id="node13" class="node">
<title>packages/util/math/dist/index.js</title>
<g id="a_node13"><a xlink:href="packages/util/math/dist/index.js" xlink:title="index.js">
<polygon fill="#ffffcc" stroke="black" points="612,-72 610.5,-74 600,-74 598.5,-72 558,-72 558,-54 612,-54 612,-72"/>
<text text-anchor="start" x="567.5" y="-60.8" font-family="Helvetica,sans-Serif" font-size="9.00">index.js</text>
</a>
</g>
</g>
<!-- packages/util/color/src/facade/index.ts&#45;&gt;packages/util/math/dist/index.js -->
<g id="edge12" class="edge">
<title>packages/util/color/src/facade/index.ts&#45;&gt;packages/util/math/dist/index.js</title>
<path fill="none" stroke="#000000" stroke-width="2" stroke-opacity="0.200000" d="M510.01,-81.5C522.76,-78.31 538.23,-74.44 551.73,-71.07"/>
<polygon fill="#000000" fill-opacity="0.200000" stroke="#000000" stroke-width="2" stroke-opacity="0.200000" points="558.28,-71.59 551.95,-71.01 557.26,-67.52 558.28,-71.59"/>
</g>
<!-- packages/util/stdlib/dist/index.js -->
<g id="node14" class="node">
<title>packages/util/stdlib/dist/index.js</title>
<g id="a_node14"><a xlink:href="packages/util/stdlib/dist/index.js" xlink:title="index.js">
<polygon fill="#ffffcc" stroke="black" points="612,-166 610.5,-168 600,-168 598.5,-166 558,-166 558,-148 612,-148 612,-166"/>
<text text-anchor="start" x="567.5" y="-154.8" font-family="Helvetica,sans-Serif" font-size="9.00">index.js</text>
</a>
</g>
</g>
<!-- packages/util/color/src/facade/index.ts&#45;&gt;packages/util/stdlib/dist/index.js -->
<g id="edge13" class="edge">
<title>packages/util/color/src/facade/index.ts&#45;&gt;packages/util/stdlib/dist/index.js</title>
<path fill="none" stroke="#000000" stroke-width="2" stroke-opacity="0.200000" d="M510.17,-94.8C522.27,-97.95 534,-101 534,-101 534,-101 556.62,-126.33 571.43,-142.92"/>
<polygon fill="#000000" fill-opacity="0.200000" stroke="#000000" stroke-width="2" stroke-opacity="0.200000" points="574.18,-149.15 571.75,-143.28 577.31,-146.35 574.18,-149.15"/>
</g>
</g>
</svg>
