<?xml version="1.0" encoding="UTF-8" standalone="no"?>
<!DOCTYPE svg PUBLIC "-//W3C//DTD SVG 1.1//EN"
 "http://www.w3.org/Graphics/SVG/1.1/DTD/svg11.dtd">
<!-- Generated by graphviz version 2.43.0 (0)
 -->
<!-- Title: dependency&#45;cruiser output Pages: 1 -->
<svg width="458pt" height="966pt"
 viewBox="0.00 0.00 458.00 966.00" xmlns="http://www.w3.org/2000/svg" xmlns:xlink="http://www.w3.org/1999/xlink">
<g id="graph0" class="graph" transform="scale(1 1) rotate(0) translate(4 962)">
<title>dependency&#45;cruiser output</title>
<polygon fill="white" stroke="transparent" points="-4,4 -4,-962 454,-962 454,4 -4,4"/>
<g id="clust1" class="cluster">
<title>cluster_node_modules</title>
<path fill="#ffffff" stroke="black" stroke-width="2" d="M335,-8C335,-8 401,-8 401,-8 407,-8 413,-14 413,-20 413,-20 413,-112 413,-112 413,-118 407,-124 401,-124 401,-124 335,-124 335,-124 329,-124 323,-118 323,-112 323,-112 323,-20 323,-20 323,-14 329,-8 335,-8"/>
<text text-anchor="middle" x="368" y="-112.8" font-family="Helvetica,sans-Serif" font-weight="bold" font-size="9.00">node_modules</text>
</g>
<g id="clust2" class="cluster">
<title>cluster_node_modules/@tonaljs</title>
<path fill="#ffffff" stroke="black" stroke-width="2" d="M345,-16C345,-16 391,-16 391,-16 397,-16 403,-22 403,-28 403,-28 403,-86 403,-86 403,-92 397,-98 391,-98 391,-98 345,-98 345,-98 339,-98 333,-92 333,-86 333,-86 333,-28 333,-28 333,-22 339,-16 345,-16"/>
<text text-anchor="middle" x="368" y="-86.8" font-family="Helvetica,sans-Serif" font-weight="bold" font-size="9.00">@tonaljs</text>
</g>
<g id="clust3" class="cluster">
<title>cluster_packages</title>
<path fill="#ffffff" stroke="black" stroke-width="2" d="M20,-132C20,-132 433,-132 433,-132 439,-132 445,-138 445,-144 445,-144 445,-938 445,-938 445,-944 439,-950 433,-950 433,-950 20,-950 20,-950 14,-950 8,-944 8,-938 8,-938 8,-144 8,-144 8,-138 14,-132 20,-132"/>
<text text-anchor="middle" x="226.5" y="-938.8" font-family="Helvetica,sans-Serif" font-weight="bold" font-size="9.00">packages</text>
</g>
<g id="clust4" class="cluster">
<title>cluster_packages/tonal&#45;objects</title>
<path fill="#ffffff" stroke="black" stroke-width="2" d="M182,-140C182,-140 272,-140 272,-140 278,-140 284,-146 284,-152 284,-152 284,-338 284,-338 284,-344 278,-350 272,-350 272,-350 182,-350 182,-350 176,-350 170,-344 170,-338 170,-338 170,-152 170,-152 170,-146 176,-140 182,-140"/>
<text text-anchor="middle" x="227" y="-338.8" font-family="Helvetica,sans-Serif" font-weight="bold" font-size="9.00">tonal&#45;objects</text>
</g>
<g id="clust5" class="cluster">
<title>cluster_packages/tonal&#45;objects/src</title>
<path fill="#ffffff" stroke="black" stroke-width="2" d="M190,-148C190,-148 264,-148 264,-148 270,-148 276,-154 276,-160 276,-160 276,-312 276,-312 276,-318 270,-324 264,-324 264,-324 190,-324 190,-324 184,-324 178,-318 178,-312 178,-312 178,-160 178,-160 178,-154 184,-148 190,-148"/>
<text text-anchor="middle" x="227" y="-312.8" font-family="Helvetica,sans-Serif" font-weight="bold" font-size="9.00">src</text>
</g>
<g id="clust6" class="cluster">
<title>cluster_packages/tonal&#45;objects/src/interval</title>
<path fill="#ffffff" stroke="black" stroke-width="2" d="M198,-216C198,-216 256,-216 256,-216 262,-216 268,-222 268,-228 268,-228 268,-286 268,-286 268,-292 262,-298 256,-298 256,-298 198,-298 198,-298 192,-298 186,-292 186,-286 186,-286 186,-228 186,-228 186,-222 192,-216 198,-216"/>
<text text-anchor="start" x="207" y="-286.8" font-family="Helvetica,sans-Serif" font-weight="bold" font-size="9.00">interval</text>
</g>
<g id="clust7" class="cluster">
<title>cluster_packages/tonal&#45;objects/src/note</title>
<path fill="#ffffff" stroke="black" stroke-width="2" d="M200,-156C200,-156 254,-156 254,-156 260,-156 266,-162 266,-168 266,-168 266,-196 266,-196 266,-202 260,-208 254,-208 254,-208 200,-208 200,-208 194,-208 188,-202 188,-196 188,-196 188,-168 188,-168 188,-162 194,-156 200,-156"/>
<text text-anchor="start" x="215" y="-196.8" font-family="Helvetica,sans-Serif" font-weight="bold" font-size="9.00">note</text>
</g>
<g id="clust8" class="cluster">
<title>cluster_packages/util</title>
<path fill="#ffffff" stroke="black" stroke-width="2" d="M28,-358C28,-358 425,-358 425,-358 431,-358 437,-364 437,-370 437,-370 437,-912 437,-912 437,-918 431,-924 425,-924 425,-924 28,-924 28,-924 22,-924 16,-918 16,-912 16,-912 16,-370 16,-370 16,-364 22,-358 28,-358"/>
<text text-anchor="middle" x="226.5" y="-912.8" font-family="Helvetica,sans-Serif" font-weight="bold" font-size="9.00">util</text>
</g>
<g id="clust9" class="cluster">
<title>cluster_packages/util/color</title>
<path fill="#ffffff" stroke="black" stroke-width="2" d="M36,-366C36,-366 399,-366 399,-366 405,-366 411,-372 411,-378 411,-378 411,-630 411,-630 411,-636 405,-642 399,-642 399,-642 36,-642 36,-642 30,-642 24,-636 24,-630 24,-630 24,-378 24,-378 24,-372 30,-366 36,-366"/>
<text text-anchor="middle" x="217.5" y="-630.8" font-family="Helvetica,sans-Serif" font-weight="bold" font-size="9.00">color</text>
</g>
<g id="clust10" class="cluster">
<title>cluster_packages/util/color/dist</title>
<path fill="#ffffff" stroke="black" stroke-width="2" d="M204,-384C204,-384 250,-384 250,-384 256,-384 262,-390 262,-396 262,-396 262,-424 262,-424 262,-430 256,-436 250,-436 250,-436 204,-436 204,-436 198,-436 192,-430 192,-424 192,-424 192,-396 192,-396 192,-390 198,-384 204,-384"/>
<text text-anchor="middle" x="227" y="-424.8" font-family="Helvetica,sans-Serif" font-weight="bold" font-size="9.00">dist</text>
</g>
<g id="clust11" class="cluster">
<title>cluster_packages/util/color/src</title>
<path fill="#ffffff" stroke="black" stroke-width="2" d="M44,-444C44,-444 391,-444 391,-444 397,-444 403,-450 403,-456 403,-456 403,-604 403,-604 403,-610 397,-616 391,-616 391,-616 44,-616 44,-616 38,-616 32,-610 32,-604 32,-604 32,-456 32,-456 32,-450 38,-444 44,-444"/>
<text text-anchor="middle" x="217.5" y="-604.8" font-family="Helvetica,sans-Serif" font-weight="bold" font-size="9.00">src</text>
</g>
<g id="clust12" class="cluster">
<title>cluster_packages/util/math</title>
<path fill="#ffffff" stroke="black" stroke-width="2" d="M320,-778C320,-778 417,-778 417,-778 423,-778 429,-784 429,-790 429,-790 429,-886 429,-886 429,-892 423,-898 417,-898 417,-898 320,-898 320,-898 314,-898 308,-892 308,-886 308,-886 308,-790 308,-790 308,-784 314,-778 320,-778"/>
<text text-anchor="middle" x="368.5" y="-886.8" font-family="Helvetica,sans-Serif" font-weight="bold" font-size="9.00">math</text>
</g>
<g id="clust13" class="cluster">
<title>cluster_packages/util/math/src</title>
<path fill="#ffffff" stroke="black" stroke-width="2" d="M328,-786C328,-786 409,-786 409,-786 415,-786 421,-792 421,-798 421,-798 421,-860 421,-860 421,-866 415,-872 409,-872 409,-872 328,-872 328,-872 322,-872 316,-866 316,-860 316,-860 316,-798 316,-798 316,-792 322,-786 328,-786"/>
<text text-anchor="middle" x="368.5" y="-860.8" font-family="Helvetica,sans-Serif" font-weight="bold" font-size="9.00">src</text>
</g>
<g id="clust14" class="cluster">
<title>cluster_packages/util/math/src/basic&#45;function</title>
<path fill="#ffffff" stroke="black" stroke-width="2" d="M336,-794C336,-794 401,-794 401,-794 407,-794 413,-800 413,-806 413,-806 413,-834 413,-834 413,-840 407,-846 401,-846 401,-846 336,-846 336,-846 330,-846 324,-840 324,-834 324,-834 324,-806 324,-806 324,-800 330,-794 336,-794"/>
<text text-anchor="middle" x="368.5" y="-834.8" font-family="Helvetica,sans-Serif" font-weight="bold" font-size="9.00">basic&#45;function</text>
</g>
<g id="clust15" class="cluster">
<title>cluster_packages/util/stdlib</title>
<path fill="#ffffff" stroke="black" stroke-width="2" d="M322,-650C322,-650 414,-650 414,-650 420,-650 426,-656 426,-662 426,-662 426,-758 426,-758 426,-764 420,-770 414,-770 414,-770 322,-770 322,-770 316,-770 310,-764 310,-758 310,-758 310,-662 310,-662 310,-656 316,-650 322,-650"/>
<text text-anchor="middle" x="368" y="-758.8" font-family="Helvetica,sans-Serif" font-weight="bold" font-size="9.00">stdlib</text>
</g>
<g id="clust16" class="cluster">
<title>cluster_packages/util/stdlib/src</title>
<path fill="#ffffff" stroke="black" stroke-width="2" d="M330,-658C330,-658 406,-658 406,-658 412,-658 418,-664 418,-670 418,-670 418,-732 418,-732 418,-738 412,-744 406,-744 406,-744 330,-744 330,-744 324,-744 318,-738 318,-732 318,-732 318,-670 318,-670 318,-664 324,-658 330,-658"/>
<text text-anchor="middle" x="368" y="-732.8" font-family="Helvetica,sans-Serif" font-weight="bold" font-size="9.00">src</text>
</g>
<g id="clust17" class="cluster">
<title>cluster_packages/util/stdlib/src/assertion</title>
<path fill="#ffffff" stroke="black" stroke-width="2" d="M338,-666C338,-666 398,-666 398,-666 404,-666 410,-672 410,-678 410,-678 410,-706 410,-706 410,-712 404,-718 398,-718 398,-718 338,-718 338,-718 332,-718 326,-712 326,-706 326,-706 326,-678 326,-678 326,-672 332,-666 338,-666"/>
<text text-anchor="middle" x="368" y="-706.8" font-family="Helvetica,sans-Serif" font-weight="bold" font-size="9.00">assertion</text>
</g>
<!-- node_modules/@tonaljs/interval -->
<g id="node1" class="node">
<title>node_modules/@tonaljs/interval</title>
<g id="a_node1"><a xlink:href="https://www.npmjs.com/package/@tonaljs/interval" xlink:title="interval">
<polygon fill="#c40b0a" fill-opacity="0.101961" stroke="black" points="395,-72 343,-72 341,-70 341,-54 393,-54 395,-56 395,-72"/>
<polyline fill="none" stroke="black" points="393,-70 341,-70 "/>
<polyline fill="none" stroke="black" points="393,-70 393,-54 "/>
<polyline fill="none" stroke="black" points="393,-70 395,-72 "/>
<text text-anchor="start" x="351" y="-60.8" font-family="Helvetica,sans-Serif" font-size="9.00" fill="#c40b0a">interval</text>
</a>
</g>
</g>
<!-- node_modules/@tonaljs/note -->
<g id="node2" class="node">
<title>node_modules/@tonaljs/note</title>
<g id="a_node2"><a xlink:href="https://www.npmjs.com/package/@tonaljs/note" xlink:title="note">
<polygon fill="#c40b0a" fill-opacity="0.101961" stroke="black" points="395,-42 343,-42 341,-40 341,-24 393,-24 395,-26 395,-42"/>
<polyline fill="none" stroke="black" points="393,-40 341,-40 "/>
<polyline fill="none" stroke="black" points="393,-40 393,-24 "/>
<polyline fill="none" stroke="black" points="393,-40 395,-42 "/>
<text text-anchor="start" x="357.5" y="-30.8" font-family="Helvetica,sans-Serif" font-size="9.00" fill="#c40b0a">note</text>
</a>
</g>
</g>
<!-- packages/tonal&#45;objects/src/interval/distance.ts -->
<g id="node3" class="node">
<title>packages/tonal&#45;objects/src/interval/distance.ts</title>
<g id="a_node3"><a xlink:href="packages/tonal-objects/src/interval/distance.ts" xlink:title="distance.ts">
<polygon fill="#ddfeff" stroke="black" points="260,-272 258.5,-274 248,-274 246.5,-272 194,-272 194,-254 260,-254 260,-272"/>
<text text-anchor="start" x="202" y="-260.8" font-family="Helvetica,sans-Serif" font-size="9.00">distance.ts</text>
</a>
</g>
</g>
<!-- packages/tonal&#45;objects/src/interval/get.ts -->
<g id="node4" class="node">
<title>packages/tonal&#45;objects/src/interval/get.ts</title>
<g id="a_node4"><a xlink:href="packages/tonal-objects/src/interval/get.ts" xlink:title="get.ts">
<path fill="#ddfeff" stroke="black" d="M248,-242C248,-242 206,-242 206,-242 203,-242 200,-239 200,-236 200,-236 200,-230 200,-230 200,-227 203,-224 206,-224 206,-224 248,-224 248,-224 251,-224 254,-227 254,-230 254,-230 254,-236 254,-236 254,-239 251,-242 248,-242"/>
<text text-anchor="start" x="213.5" y="-230.8" font-family="Helvetica,sans-Serif" font-size="9.00">get.ts</text>
</a>
</g>
</g>
<!-- packages/tonal&#45;objects/src/interval/get.ts&#45;&gt;node_modules/@tonaljs/interval -->
<g id="edge1" class="edge">
<title>packages/tonal&#45;objects/src/interval/get.ts&#45;&gt;node_modules/@tonaljs/interval</title>
<path fill="none" stroke="#000000" stroke-opacity="0.200000" d="M235.47,-223.86C258.38,-195.84 327.75,-111.01 355.42,-77.16"/>
<polygon fill="#000000" fill-opacity="0.200000" stroke="#000000" stroke-opacity="0.200000" points="361.12,-73.51 355.69,-76.83 357.86,-70.86 361.12,-73.51"/>
</g>
<!-- packages/tonal&#45;objects/src/note/chroma.ts -->
<g id="node5" class="node">
<title>packages/tonal&#45;objects/src/note/chroma.ts</title>
<g id="a_node5"><a xlink:href="packages/tonal-objects/src/note/chroma.ts" xlink:title="chroma.ts">
<path fill="#ddfeff" stroke="black" d="M252,-182C252,-182 202,-182 202,-182 199,-182 196,-179 196,-176 196,-176 196,-170 196,-170 196,-167 199,-164 202,-164 202,-164 252,-164 252,-164 255,-164 258,-167 258,-170 258,-170 258,-176 258,-176 258,-179 255,-182 252,-182"/>
<text text-anchor="start" x="204" y="-170.8" font-family="Helvetica,sans-Serif" font-size="9.00">chroma.ts</text>
</a>
</g>
</g>
<!-- packages/tonal&#45;objects/src/note/chroma.ts&#45;&gt;node_modules/@tonaljs/note -->
<g id="edge2" class="edge">
<title>packages/tonal&#45;objects/src/note/chroma.ts&#45;&gt;node_modules/@tonaljs/note</title>
<path fill="none" stroke="#000000" stroke-opacity="0.200000" d="M237.12,-163.81C260.99,-139.78 325.37,-74.93 353.52,-46.58"/>
<polygon fill="#000000" fill-opacity="0.200000" stroke="#000000" stroke-opacity="0.200000" points="359.52,-43.52 353.8,-46.3 356.54,-40.56 359.52,-43.52"/>
</g>
<!-- packages/util/color/dist/index.js -->
<g id="node6" class="node">
<title>packages/util/color/dist/index.js</title>
<g id="a_node6"><a xlink:href="packages/util/color/dist/index.js" xlink:title="index.js">
<polygon fill="#ffffcc" stroke="black" points="254,-410 252.5,-412 242,-412 240.5,-410 200,-410 200,-392 254,-392 254,-410"/>
<text text-anchor="start" x="209.5" y="-398.8" font-family="Helvetica,sans-Serif" font-size="9.00">index.js</text>
</a>
</g>
</g>
<!-- packages/util/color/index.test.ts -->
<g id="node7" class="node">
<title>packages/util/color/index.test.ts</title>
<g id="a_node7"><a xlink:href="packages/util/color/index.test.ts" xlink:title="index.test.ts">
<path fill="#ddfeff" stroke="black" d="M131.5,-401C131.5,-401 70.5,-401 70.5,-401 67.5,-401 64.5,-398 64.5,-395 64.5,-395 64.5,-389 64.5,-389 64.5,-386 67.5,-383 70.5,-383 70.5,-383 131.5,-383 131.5,-383 134.5,-383 137.5,-386 137.5,-389 137.5,-389 137.5,-395 137.5,-395 137.5,-398 134.5,-401 131.5,-401"/>
<text text-anchor="start" x="72.5" y="-389.8" font-family="Helvetica,sans-Serif" font-size="9.00">index.test.ts</text>
</a>
</g>
</g>
<!-- packages/util/color/index.test.ts&#45;&gt;packages/util/color/dist/index.js -->
<g id="edge3" class="edge">
<title>packages/util/color/index.test.ts&#45;&gt;packages/util/color/dist/index.js</title>
<path fill="none" stroke="#000000" stroke-width="2" stroke-opacity="0.200000" d="M137.53,-394.58C155.25,-395.87 176.52,-397.41 193.77,-398.66"/>
<polygon fill="#000000" fill-opacity="0.200000" stroke="#000000" stroke-width="2" stroke-opacity="0.200000" points="193.79,-400.77 199.92,-399.11 194.09,-396.58 193.79,-400.77"/>
</g>
<!-- packages/util/color/src/util.ts -->
<g id="node8" class="node">
<title>packages/util/color/src/util.ts</title>
<g id="a_node8"><a xlink:href="packages/util/color/src/util.ts" xlink:title="util.ts">
<path fill="#ddfeff" stroke="black" d="M389,-500C389,-500 347,-500 347,-500 344,-500 341,-497 341,-494 341,-494 341,-488 341,-488 341,-485 344,-482 347,-482 347,-482 389,-482 389,-482 392,-482 395,-485 395,-488 395,-488 395,-494 395,-494 395,-497 392,-500 389,-500"/>
<text text-anchor="start" x="355" y="-488.8" font-family="Helvetica,sans-Serif" font-size="9.00">util.ts</text>
</a>
</g>
</g>
<!-- packages/util/color/index.test.ts&#45;&gt;packages/util/color/src/util.ts -->
<g id="edge4" class="edge">
<title>packages/util/color/index.test.ts&#45;&gt;packages/util/color/src/util.ts</title>
<path fill="none" stroke="#000000" stroke-width="2" stroke-opacity="0.200000" d="M125.64,-401.14C174.62,-419.3 284.08,-459.88 337.5,-479.69"/>
<polygon fill="#000000" fill-opacity="0.200000" stroke="#000000" stroke-width="2" stroke-opacity="0.200000" points="337.06,-481.77 343.42,-481.89 338.52,-477.83 337.06,-481.77"/>
</g>
<!-- packages/util/color/src/fifth&#45;chroma&#45;to&#45;color.ts -->
<g id="node9" class="node">
<title>packages/util/color/src/fifth&#45;chroma&#45;to&#45;color.ts</title>
<g id="a_node9"><a xlink:href="packages/util/color/src/fifth-chroma-to-color.ts" xlink:title="fifth&#45;chroma&#45;to&#45;color.ts">
<path fill="#ddfeff" stroke="black" d="M155.5,-590C155.5,-590 46.5,-590 46.5,-590 43.5,-590 40.5,-587 40.5,-584 40.5,-584 40.5,-578 40.5,-578 40.5,-575 43.5,-572 46.5,-572 46.5,-572 155.5,-572 155.5,-572 158.5,-572 161.5,-575 161.5,-578 161.5,-578 161.5,-584 161.5,-584 161.5,-587 158.5,-590 155.5,-590"/>
<text text-anchor="start" x="48.5" y="-578.8" font-family="Helvetica,sans-Serif" font-size="9.00">fifth&#45;chroma&#45;to&#45;color.ts</text>
</a>
</g>
</g>
<!-- packages/util/color/src/fifth&#45;chroma&#45;to&#45;color.ts&#45;&gt;packages/util/color/dist/index.js -->
<g id="edge5" class="edge">
<title>packages/util/color/src/fifth&#45;chroma&#45;to&#45;color.ts&#45;&gt;packages/util/color/dist/index.js</title>
<path fill="none" stroke="#000000" stroke-width="2" stroke-opacity="0.200000" d="M108.32,-571.83C128.46,-542.58 191.28,-451.4 215.93,-415.62"/>
<polygon fill="#000000" fill-opacity="0.200000" stroke="#000000" stroke-width="2" stroke-opacity="0.200000" points="217.87,-416.5 219.54,-410.37 214.41,-414.12 217.87,-416.5"/>
</g>
<!-- packages/util/color/src/green&#45;hue.ts -->
<g id="node10" class="node">
<title>packages/util/color/src/green&#45;hue.ts</title>
<g id="a_node10"><a xlink:href="packages/util/color/src/green-hue.ts" xlink:title="green&#45;hue.ts">
<path fill="#ddfeff" stroke="black" d="M258,-575C258,-575 196,-575 196,-575 193,-575 190,-572 190,-569 190,-569 190,-563 190,-563 190,-560 193,-557 196,-557 196,-557 258,-557 258,-557 261,-557 264,-560 264,-563 264,-563 264,-569 264,-569 264,-572 261,-575 258,-575"/>
<text text-anchor="start" x="198" y="-563.8" font-family="Helvetica,sans-Serif" font-size="9.00">green&#45;hue.ts</text>
</a>
</g>
</g>
<!-- packages/util/color/src/fifth&#45;chroma&#45;to&#45;color.ts&#45;&gt;packages/util/color/src/green&#45;hue.ts -->
<g id="edge6" class="edge">
<title>packages/util/color/src/fifth&#45;chroma&#45;to&#45;color.ts&#45;&gt;packages/util/color/src/green&#45;hue.ts</title>
<path fill="none" stroke="#000000" stroke-width="2" stroke-opacity="0.200000" d="M161.82,-573.76C169.12,-572.88 176.47,-571.99 183.44,-571.15"/>
<polygon fill="#000000" fill-opacity="0.200000" stroke="#000000" stroke-width="2" stroke-opacity="0.200000" points="184.03,-573.19 189.74,-570.39 183.53,-569.02 184.03,-573.19"/>
</g>
<!-- packages/util/math/src/basic&#45;function/mod.ts -->
<g id="node11" class="node">
<title>packages/util/math/src/basic&#45;function/mod.ts</title>
<g id="a_node11"><a xlink:href="packages/util/math/src/basic-function/mod.ts" xlink:title="mod.ts">
<path fill="#ddfeff" stroke="black" d="M389,-820C389,-820 347,-820 347,-820 344,-820 341,-817 341,-814 341,-814 341,-808 341,-808 341,-805 344,-802 347,-802 347,-802 389,-802 389,-802 392,-802 395,-805 395,-808 395,-808 395,-814 395,-814 395,-817 392,-820 389,-820"/>
<text text-anchor="start" x="352" y="-808.8" font-family="Helvetica,sans-Serif" font-size="9.00">mod.ts</text>
</a>
</g>
</g>
<!-- packages/util/color/src/fifth&#45;chroma&#45;to&#45;color.ts&#45;&gt;packages/util/math/src/basic&#45;function/mod.ts -->
<g id="edge7" class="edge">
<title>packages/util/color/src/fifth&#45;chroma&#45;to&#45;color.ts&#45;&gt;packages/util/math/src/basic&#45;function/mod.ts</title>
<path fill="none" stroke="#000000" stroke-width="2" stroke-opacity="0.200000" d="M111.47,-590.02C152.67,-625.51 303.79,-755.69 352.65,-797.78"/>
<polygon fill="#000000" fill-opacity="0.200000" stroke="#000000" stroke-width="2" stroke-opacity="0.200000" points="351.4,-799.47 357.32,-801.8 354.14,-796.29 351.4,-799.47"/>
</g>
<!-- packages/util/color/src/fifth&#45;to&#45;color.ts -->
<g id="node12" class="node">
<title>packages/util/color/src/fifth&#45;to&#45;color.ts</title>
<g id="a_node12"><a xlink:href="packages/util/color/src/fifth-to-color.ts" xlink:title="fifth&#45;to&#45;color.ts">
<path fill="#ddfeff" stroke="black" d="M136.5,-500C136.5,-500 65.5,-500 65.5,-500 62.5,-500 59.5,-497 59.5,-494 59.5,-494 59.5,-488 59.5,-488 59.5,-485 62.5,-482 65.5,-482 65.5,-482 136.5,-482 136.5,-482 139.5,-482 142.5,-485 142.5,-488 142.5,-488 142.5,-494 142.5,-494 142.5,-497 139.5,-500 136.5,-500"/>
<text text-anchor="start" x="67.5" y="-488.8" font-family="Helvetica,sans-Serif" font-size="9.00">fifth&#45;to&#45;color.ts</text>
</a>
</g>
</g>
<!-- packages/util/color/src/fifth&#45;to&#45;color.ts&#45;&gt;packages/tonal&#45;objects/src/note/chroma.ts -->
<g id="edge9" class="edge">
<title>packages/util/color/src/fifth&#45;to&#45;color.ts&#45;&gt;packages/tonal&#45;objects/src/note/chroma.ts</title>
<path fill="none" stroke="#000000" stroke-width="2" stroke-opacity="0.200000" d="M105.58,-481.83C122.94,-437.31 198.44,-243.68 220.14,-188.02"/>
<polygon fill="#000000" fill-opacity="0.200000" stroke="#000000" stroke-width="2" stroke-opacity="0.200000" points="222.18,-188.56 222.41,-182.21 218.27,-187.04 222.18,-188.56"/>
</g>
<!-- packages/util/color/src/fifth&#45;to&#45;color.ts&#45;&gt;packages/util/color/dist/index.js -->
<g id="edge8" class="edge">
<title>packages/util/color/src/fifth&#45;to&#45;color.ts&#45;&gt;packages/util/color/dist/index.js</title>
<path fill="none" stroke="#000000" stroke-width="2" stroke-opacity="0.200000" d="M114.8,-481.71C137.1,-465.52 183.1,-432.14 208.39,-413.78"/>
<polygon fill="#000000" fill-opacity="0.200000" stroke="#000000" stroke-width="2" stroke-opacity="0.200000" points="209.83,-415.33 213.45,-410.11 207.36,-411.93 209.83,-415.33"/>
</g>
<!-- packages/util/color/src/hsv2rgb.ts -->
<g id="node13" class="node">
<title>packages/util/color/src/hsv2rgb.ts</title>
<g id="a_node13"><a xlink:href="packages/util/color/src/hsv2rgb.ts" xlink:title="hsv2rgb.ts">
<path fill="#ddfeff" stroke="black" d="M253.5,-515C253.5,-515 200.5,-515 200.5,-515 197.5,-515 194.5,-512 194.5,-509 194.5,-509 194.5,-503 194.5,-503 194.5,-500 197.5,-497 200.5,-497 200.5,-497 253.5,-497 253.5,-497 256.5,-497 259.5,-500 259.5,-503 259.5,-503 259.5,-509 259.5,-509 259.5,-512 256.5,-515 253.5,-515"/>
<text text-anchor="start" x="202.5" y="-503.8" font-family="Helvetica,sans-Serif" font-size="9.00">hsv2rgb.ts</text>
</a>
</g>
</g>
<!-- packages/util/color/src/hsv2rgb.ts&#45;&gt;packages/util/color/src/util.ts -->
<g id="edge10" class="edge">
<title>packages/util/color/src/hsv2rgb.ts&#45;&gt;packages/util/color/src/util.ts</title>
<path fill="none" stroke="#000000" stroke-width="2" stroke-opacity="0.200000" d="M259.54,-502.6C281.95,-500.18 311.94,-496.94 334.55,-494.5"/>
<polygon fill="#000000" fill-opacity="0.200000" stroke="#000000" stroke-width="2" stroke-opacity="0.200000" points="334.97,-496.57 340.71,-493.84 334.52,-492.39 334.97,-496.57"/>
</g>
<!-- packages/util/color/src/hsv2rgb.ts&#45;&gt;packages/util/math/src/basic&#45;function/mod.ts -->
<g id="edge11" class="edge">
<title>packages/util/color/src/hsv2rgb.ts&#45;&gt;packages/util/math/src/basic&#45;function/mod.ts</title>
<path fill="none" stroke="#000000" stroke-width="2" stroke-opacity="0.200000" d="M232.16,-515.13C251.86,-558.36 335.86,-742.67 360.3,-796.3"/>
<polygon fill="#000000" fill-opacity="0.200000" stroke="#000000" stroke-width="2" stroke-opacity="0.200000" points="358.46,-797.32 362.86,-801.91 362.28,-795.58 358.46,-797.32"/>
</g>
<!-- packages/util/stdlib/src/assertion/assertion.ts -->
<g id="node14" class="node">
<title>packages/util/stdlib/src/assertion/assertion.ts</title>
<g id="a_node14"><a xlink:href="packages/util/stdlib/src/assertion/assertion.ts" xlink:title="assertion.ts">
<path fill="#ddfeff" stroke="black" d="M396,-692C396,-692 340,-692 340,-692 337,-692 334,-689 334,-686 334,-686 334,-680 334,-680 334,-677 337,-674 340,-674 340,-674 396,-674 396,-674 399,-674 402,-677 402,-680 402,-680 402,-686 402,-686 402,-689 399,-692 396,-692"/>
<text text-anchor="start" x="342" y="-680.8" font-family="Helvetica,sans-Serif" font-size="9.00">assertion.ts</text>
</a>
</g>
</g>
<!-- packages/util/color/src/hsv2rgb.ts&#45;&gt;packages/util/stdlib/src/assertion/assertion.ts -->
<g id="edge12" class="edge">
<title>packages/util/color/src/hsv2rgb.ts&#45;&gt;packages/util/stdlib/src/assertion/assertion.ts</title>
<path fill="none" stroke="#000000" stroke-width="2" stroke-opacity="0.200000" d="M235.08,-515.02C257.76,-543.89 328.66,-634.18 356.05,-669.06"/>
<polygon fill="#000000" fill-opacity="0.200000" stroke="#000000" stroke-width="2" stroke-opacity="0.200000" points="354.41,-670.36 359.76,-673.79 357.71,-667.77 354.41,-670.36"/>
</g>
<!-- packages/util/color/src/note&#45;chroma&#45;to&#45;color.ts -->
<g id="node15" class="node">
<title>packages/util/color/src/note&#45;chroma&#45;to&#45;color.ts</title>
<g id="a_node15"><a xlink:href="packages/util/color/src/note-chroma-to-color.ts" xlink:title="note&#45;chroma&#45;to&#45;color.ts">
<path fill="#ddfeff" stroke="black" d="M156,-560C156,-560 46,-560 46,-560 43,-560 40,-557 40,-554 40,-554 40,-548 40,-548 40,-545 43,-542 46,-542 46,-542 156,-542 156,-542 159,-542 162,-545 162,-548 162,-548 162,-554 162,-554 162,-557 159,-560 156,-560"/>
<text text-anchor="start" x="48" y="-548.8" font-family="Helvetica,sans-Serif" font-size="9.00">note&#45;chroma&#45;to&#45;color.ts</text>
</a>
</g>
</g>
<!-- packages/util/color/src/note&#45;chroma&#45;to&#45;color.ts&#45;&gt;packages/util/color/dist/index.js -->
<g id="edge13" class="edge">
<title>packages/util/color/src/note&#45;chroma&#45;to&#45;color.ts&#45;&gt;packages/util/color/dist/index.js</title>
<path fill="none" stroke="#000000" stroke-width="2" stroke-opacity="0.200000" d="M109.76,-541.62C130.81,-516.15 189.11,-445.62 214.23,-415.23"/>
<polygon fill="#000000" fill-opacity="0.200000" stroke="#000000" stroke-width="2" stroke-opacity="0.200000" points="216.04,-416.34 218.25,-410.38 212.8,-413.67 216.04,-416.34"/>
</g>
<!-- packages/util/color/src/note&#45;chroma&#45;to&#45;color.ts&#45;&gt;packages/util/color/src/green&#45;hue.ts -->
<g id="edge14" class="edge">
<title>packages/util/color/src/note&#45;chroma&#45;to&#45;color.ts&#45;&gt;packages/util/color/src/green&#45;hue.ts</title>
<path fill="none" stroke="#000000" stroke-width="2" stroke-opacity="0.200000" d="M162.18,-558.28C169.46,-559.16 176.77,-560.04 183.71,-560.88"/>
<polygon fill="#000000" fill-opacity="0.200000" stroke="#000000" stroke-width="2" stroke-opacity="0.200000" points="183.76,-563.01 189.97,-561.64 184.26,-558.84 183.76,-563.01"/>
</g>
<!-- packages/util/color/src/note&#45;to&#45;color.ts -->
<g id="node16" class="node">
<title>packages/util/color/src/note&#45;to&#45;color.ts</title>
<g id="a_node16"><a xlink:href="packages/util/color/src/note-to-color.ts" xlink:title="note&#45;to&#45;color.ts">
<path fill="#ddfeff" stroke="black" d="M137.5,-470C137.5,-470 64.5,-470 64.5,-470 61.5,-470 58.5,-467 58.5,-464 58.5,-464 58.5,-458 58.5,-458 58.5,-455 61.5,-452 64.5,-452 64.5,-452 137.5,-452 137.5,-452 140.5,-452 143.5,-455 143.5,-458 143.5,-458 143.5,-464 143.5,-464 143.5,-467 140.5,-470 137.5,-470"/>
<text text-anchor="start" x="66.5" y="-458.8" font-family="Helvetica,sans-Serif" font-size="9.00">note&#45;to&#45;color.ts</text>
</a>
</g>
</g>
<!-- packages/util/color/src/note&#45;to&#45;color.ts&#45;&gt;packages/tonal&#45;objects/src/note/chroma.ts -->
<g id="edge16" class="edge">
<title>packages/util/color/src/note&#45;to&#45;color.ts&#45;&gt;packages/tonal&#45;objects/src/note/chroma.ts</title>
<path fill="none" stroke="#000000" stroke-width="2" stroke-opacity="0.200000" d="M105.99,-451.74C123.95,-410.02 197.49,-239.22 219.65,-187.75"/>
<polygon fill="#000000" fill-opacity="0.200000" stroke="#000000" stroke-width="2" stroke-opacity="0.200000" points="221.65,-188.42 222.09,-182.08 217.79,-186.76 221.65,-188.42"/>
</g>
<!-- packages/util/color/src/note&#45;to&#45;color.ts&#45;&gt;packages/util/color/dist/index.js -->
<g id="edge15" class="edge">
<title>packages/util/color/src/note&#45;to&#45;color.ts&#45;&gt;packages/util/color/dist/index.js</title>
<path fill="none" stroke="#000000" stroke-width="2" stroke-opacity="0.200000" d="M120.83,-451.89C142.54,-441.39 178.25,-424.11 201.94,-412.64"/>
<polygon fill="#000000" fill-opacity="0.200000" stroke="#000000" stroke-width="2" stroke-opacity="0.200000" points="202.91,-414.51 207.4,-410 201.08,-410.72 202.91,-414.51"/>
</g>
<!-- packages/util/color/src/rgb&#45;to&#45;string.ts -->
<g id="node17" class="node">
<title>packages/util/color/src/rgb&#45;to&#45;string.ts</title>
<g id="a_node17"><a xlink:href="packages/util/color/src/rgb-to-string.ts" xlink:title="rgb&#45;to&#45;string.ts">
<path fill="#ddfeff" stroke="black" d="M264,-545C264,-545 190,-545 190,-545 187,-545 184,-542 184,-539 184,-539 184,-533 184,-533 184,-530 187,-527 190,-527 190,-527 264,-527 264,-527 267,-527 270,-530 270,-533 270,-533 270,-539 270,-539 270,-542 267,-545 264,-545"/>
<text text-anchor="start" x="192" y="-533.8" font-family="Helvetica,sans-Serif" font-size="9.00">rgb&#45;to&#45;string.ts</text>
</a>
</g>
</g>
<!-- packages/util/color/src/third&#45;to&#45;color.ts -->
<g id="node18" class="node">
<title>packages/util/color/src/third&#45;to&#45;color.ts</title>
<g id="a_node18"><a xlink:href="packages/util/color/src/third-to-color.ts" xlink:title="third&#45;to&#45;color.ts">
<path fill="#ddfeff" stroke="black" d="M138,-530C138,-530 64,-530 64,-530 61,-530 58,-527 58,-524 58,-524 58,-518 58,-518 58,-515 61,-512 64,-512 64,-512 138,-512 138,-512 141,-512 144,-515 144,-518 144,-518 144,-524 144,-524 144,-527 141,-530 138,-530"/>
<text text-anchor="start" x="66" y="-518.8" font-family="Helvetica,sans-Serif" font-size="9.00">third&#45;to&#45;color.ts</text>
</a>
</g>
</g>
<!-- packages/util/color/src/third&#45;to&#45;color.ts&#45;&gt;packages/tonal&#45;objects/src/interval/distance.ts -->
<g id="edge21" class="edge">
<title>packages/util/color/src/third&#45;to&#45;color.ts&#45;&gt;packages/tonal&#45;objects/src/interval/distance.ts</title>
<path fill="none" stroke="#000000" stroke-width="2" stroke-opacity="0.200000" d="M106.41,-511.82C124.91,-473.34 196.26,-324.88 219,-277.57"/>
<polygon fill="#000000" fill-opacity="0.200000" stroke="#000000" stroke-width="2" stroke-opacity="0.200000" points="220.93,-278.39 221.64,-272.07 217.15,-276.57 220.93,-278.39"/>
</g>
<!-- packages/util/color/src/third&#45;to&#45;color.ts&#45;&gt;packages/tonal&#45;objects/src/interval/get.ts -->
<g id="edge22" class="edge">
<title>packages/util/color/src/third&#45;to&#45;color.ts&#45;&gt;packages/tonal&#45;objects/src/interval/get.ts</title>
<path fill="none" stroke="#000000" stroke-width="2" stroke-opacity="0.200000" d="M105.99,-511.74C123.95,-470.02 197.49,-299.22 219.65,-247.75"/>
<polygon fill="#000000" fill-opacity="0.200000" stroke="#000000" stroke-width="2" stroke-opacity="0.200000" points="221.65,-248.42 222.09,-242.08 217.79,-246.76 221.65,-248.42"/>
</g>
<!-- packages/util/color/src/third&#45;to&#45;color.ts&#45;&gt;packages/tonal&#45;objects/src/note/chroma.ts -->
<g id="edge23" class="edge">
<title>packages/util/color/src/third&#45;to&#45;color.ts&#45;&gt;packages/tonal&#45;objects/src/note/chroma.ts</title>
<path fill="none" stroke="#000000" stroke-width="2" stroke-opacity="0.200000" d="M105.32,-511.69C122.3,-464.03 199.54,-247.27 220.65,-188.01"/>
<polygon fill="#000000" fill-opacity="0.200000" stroke="#000000" stroke-width="2" stroke-opacity="0.200000" points="222.69,-188.53 222.73,-182.18 218.74,-187.12 222.69,-188.53"/>
</g>
<!-- packages/util/color/src/third&#45;to&#45;color.ts&#45;&gt;packages/util/color/src/green&#45;hue.ts -->
<g id="edge17" class="edge">
<title>packages/util/color/src/third&#45;to&#45;color.ts&#45;&gt;packages/util/color/src/green&#45;hue.ts</title>
<path fill="none" stroke="#000000" stroke-width="2" stroke-opacity="0.200000" d="M127.09,-530.11C146.76,-537.24 174.21,-547.21 195.21,-554.82"/>
<polygon fill="#000000" fill-opacity="0.200000" stroke="#000000" stroke-width="2" stroke-opacity="0.200000" points="194.59,-556.83 200.94,-556.91 196.02,-552.89 194.59,-556.83"/>
</g>
<!-- packages/util/color/src/third&#45;to&#45;color.ts&#45;&gt;packages/util/math/src/basic&#45;function/mod.ts -->
<g id="edge20" class="edge">
<title>packages/util/color/src/third&#45;to&#45;color.ts&#45;&gt;packages/util/math/src/basic&#45;function/mod.ts</title>
<path fill="none" stroke="#000000" stroke-width="2" stroke-opacity="0.200000" d="M109.58,-530.32C148.58,-572.68 309.2,-747.13 355.47,-797.39"/>
<polygon fill="#000000" fill-opacity="0.200000" stroke="#000000" stroke-width="2" stroke-opacity="0.200000" points="353.97,-798.87 359.58,-801.86 357.06,-796.02 353.97,-798.87"/>
</g>
<!-- packages/util/color/src/third&#45;to&#45;color.ts&#45;&gt;packages/util/color/src/hsv2rgb.ts -->
<g id="edge18" class="edge">
<title>packages/util/color/src/third&#45;to&#45;color.ts&#45;&gt;packages/util/color/src/hsv2rgb.ts</title>
<path fill="none" stroke="#000000" stroke-width="2" stroke-opacity="0.200000" d="M144.33,-515.88C158.56,-514.16 174.34,-512.25 188.21,-510.57"/>
<polygon fill="#000000" fill-opacity="0.200000" stroke="#000000" stroke-width="2" stroke-opacity="0.200000" points="188.73,-512.62 194.43,-509.82 188.22,-508.45 188.73,-512.62"/>
</g>
<!-- packages/util/color/src/third&#45;to&#45;color.ts&#45;&gt;packages/util/color/src/rgb&#45;to&#45;string.ts -->
<g id="edge19" class="edge">
<title>packages/util/color/src/third&#45;to&#45;color.ts&#45;&gt;packages/util/color/src/rgb&#45;to&#45;string.ts</title>
<path fill="none" stroke="#000000" stroke-width="2" stroke-opacity="0.200000" d="M144.33,-526.12C155.1,-527.42 166.76,-528.83 177.8,-530.17"/>
<polygon fill="#000000" fill-opacity="0.200000" stroke="#000000" stroke-width="2" stroke-opacity="0.200000" points="177.66,-532.27 183.86,-530.9 178.16,-528.1 177.66,-532.27"/>
</g>
</g>
</svg>
