<?xml version="1.0" encoding="UTF-8" standalone="no"?>
<!DOCTYPE svg PUBLIC "-//W3C//DTD SVG 1.1//EN"
 "http://www.w3.org/Graphics/SVG/1.1/DTD/svg11.dtd">
<!-- Generated by graphviz version 2.43.0 (0)
 -->
<!-- Title: dependency&#45;cruiser output Pages: 1 -->
<svg width="637pt" height="884pt"
 viewBox="0.00 0.00 637.00 884.00" xmlns="http://www.w3.org/2000/svg" xmlns:xlink="http://www.w3.org/1999/xlink">
<g id="graph0" class="graph" transform="scale(1 1) rotate(0) translate(4 880)">
<title>dependency&#45;cruiser output</title>
<polygon fill="white" stroke="transparent" points="-4,4 -4,-880 633,-880 633,4 -4,4"/>
<g id="clust1" class="cluster">
<title>cluster_node_modules</title>
<path fill="#ffffff" stroke="black" stroke-width="2" d="M514,-8C514,-8 580,-8 580,-8 586,-8 592,-14 592,-20 592,-20 592,-112 592,-112 592,-118 586,-124 580,-124 580,-124 514,-124 514,-124 508,-124 502,-118 502,-112 502,-112 502,-20 502,-20 502,-14 508,-8 514,-8"/>
<text text-anchor="middle" x="547" y="-112.8" font-family="Helvetica,sans-Serif" font-weight="bold" font-size="9.00">node_modules</text>
</g>
<g id="clust2" class="cluster">
<title>cluster_node_modules/@tonaljs</title>
<path fill="#ffffff" stroke="black" stroke-width="2" d="M524,-16C524,-16 570,-16 570,-16 576,-16 582,-22 582,-28 582,-28 582,-86 582,-86 582,-92 576,-98 570,-98 570,-98 524,-98 524,-98 518,-98 512,-92 512,-86 512,-86 512,-28 512,-28 512,-22 518,-16 524,-16"/>
<text text-anchor="middle" x="547" y="-86.8" font-family="Helvetica,sans-Serif" font-weight="bold" font-size="9.00">@tonaljs</text>
</g>
<g id="clust3" class="cluster">
<title>cluster_packages</title>
<path fill="#ffffff" stroke="black" stroke-width="2" d="M20,-132C20,-132 612,-132 612,-132 618,-132 624,-138 624,-144 624,-144 624,-856 624,-856 624,-862 618,-868 612,-868 612,-868 20,-868 20,-868 14,-868 8,-862 8,-856 8,-856 8,-144 8,-144 8,-138 14,-132 20,-132"/>
<text text-anchor="middle" x="316" y="-856.8" font-family="Helvetica,sans-Serif" font-weight="bold" font-size="9.00">packages</text>
</g>
<g id="clust4" class="cluster">
<title>cluster_packages/tonal&#45;objects</title>
<path fill="#ffffff" stroke="black" stroke-width="2" d="M361,-140C361,-140 451,-140 451,-140 457,-140 463,-146 463,-152 463,-152 463,-338 463,-338 463,-344 457,-350 451,-350 451,-350 361,-350 361,-350 355,-350 349,-344 349,-338 349,-338 349,-152 349,-152 349,-146 355,-140 361,-140"/>
<text text-anchor="middle" x="406" y="-338.8" font-family="Helvetica,sans-Serif" font-weight="bold" font-size="9.00">tonal&#45;objects</text>
</g>
<g id="clust5" class="cluster">
<title>cluster_packages/tonal&#45;objects/src</title>
<path fill="#ffffff" stroke="black" stroke-width="2" d="M369,-148C369,-148 443,-148 443,-148 449,-148 455,-154 455,-160 455,-160 455,-312 455,-312 455,-318 449,-324 443,-324 443,-324 369,-324 369,-324 363,-324 357,-318 357,-312 357,-312 357,-160 357,-160 357,-154 363,-148 369,-148"/>
<text text-anchor="middle" x="406" y="-312.8" font-family="Helvetica,sans-Serif" font-weight="bold" font-size="9.00">src</text>
</g>
<g id="clust6" class="cluster">
<title>cluster_packages/tonal&#45;objects/src/interval</title>
<path fill="#ffffff" stroke="black" stroke-width="2" d="M377,-216C377,-216 435,-216 435,-216 441,-216 447,-222 447,-228 447,-228 447,-286 447,-286 447,-292 441,-298 435,-298 435,-298 377,-298 377,-298 371,-298 365,-292 365,-286 365,-286 365,-228 365,-228 365,-222 371,-216 377,-216"/>
<text text-anchor="start" x="386" y="-286.8" font-family="Helvetica,sans-Serif" font-weight="bold" font-size="9.00">interval</text>
</g>
<g id="clust7" class="cluster">
<title>cluster_packages/tonal&#45;objects/src/note</title>
<path fill="#ffffff" stroke="black" stroke-width="2" d="M379,-156C379,-156 433,-156 433,-156 439,-156 445,-162 445,-168 445,-168 445,-196 445,-196 445,-202 439,-208 433,-208 433,-208 379,-208 379,-208 373,-208 367,-202 367,-196 367,-196 367,-168 367,-168 367,-162 373,-156 379,-156"/>
<text text-anchor="start" x="394" y="-196.8" font-family="Helvetica,sans-Serif" font-weight="bold" font-size="9.00">note</text>
</g>
<g id="clust8" class="cluster">
<title>cluster_packages/util</title>
<path fill="#ffffff" stroke="black" stroke-width="2" d="M28,-358C28,-358 604,-358 604,-358 610,-358 616,-364 616,-370 616,-370 616,-830 616,-830 616,-836 610,-842 604,-842 604,-842 28,-842 28,-842 22,-842 16,-836 16,-830 16,-830 16,-370 16,-370 16,-364 22,-358 28,-358"/>
<text text-anchor="middle" x="316" y="-830.8" font-family="Helvetica,sans-Serif" font-weight="bold" font-size="9.00">util</text>
</g>
<g id="clust9" class="cluster">
<title>cluster_packages/util/color</title>
<path fill="#ffffff" stroke="black" stroke-width="2" d="M36,-366C36,-366 578,-366 578,-366 584,-366 590,-372 590,-378 590,-378 590,-548 590,-548 590,-554 584,-560 578,-560 578,-560 36,-560 36,-560 30,-560 24,-554 24,-548 24,-548 24,-378 24,-378 24,-372 30,-366 36,-366"/>
<text text-anchor="middle" x="307" y="-548.8" font-family="Helvetica,sans-Serif" font-weight="bold" font-size="9.00">color</text>
</g>
<g id="clust10" class="cluster">
<title>cluster_packages/util/color/src</title>
<path fill="#ffffff" stroke="black" stroke-width="2" d="M125,-380C125,-380 570,-380 570,-380 576,-380 582,-386 582,-392 582,-392 582,-480 582,-480 582,-486 576,-492 570,-492 570,-492 125,-492 125,-492 119,-492 113,-486 113,-480 113,-480 113,-392 113,-392 113,-386 119,-380 125,-380"/>
<text text-anchor="middle" x="347.5" y="-480.8" font-family="Helvetica,sans-Serif" font-weight="bold" font-size="9.00">src</text>
</g>
<g id="clust11" class="cluster">
<title>cluster_packages/util/math</title>
<path fill="#ffffff" stroke="black" stroke-width="2" d="M499,-696C499,-696 596,-696 596,-696 602,-696 608,-702 608,-708 608,-708 608,-804 608,-804 608,-810 602,-816 596,-816 596,-816 499,-816 499,-816 493,-816 487,-810 487,-804 487,-804 487,-708 487,-708 487,-702 493,-696 499,-696"/>
<text text-anchor="middle" x="547.5" y="-804.8" font-family="Helvetica,sans-Serif" font-weight="bold" font-size="9.00">math</text>
</g>
<g id="clust12" class="cluster">
<title>cluster_packages/util/math/src</title>
<path fill="#ffffff" stroke="black" stroke-width="2" d="M507,-704C507,-704 588,-704 588,-704 594,-704 600,-710 600,-716 600,-716 600,-778 600,-778 600,-784 594,-790 588,-790 588,-790 507,-790 507,-790 501,-790 495,-784 495,-778 495,-778 495,-716 495,-716 495,-710 501,-704 507,-704"/>
<text text-anchor="middle" x="547.5" y="-778.8" font-family="Helvetica,sans-Serif" font-weight="bold" font-size="9.00">src</text>
</g>
<g id="clust13" class="cluster">
<title>cluster_packages/util/math/src/basic&#45;function</title>
<path fill="#ffffff" stroke="black" stroke-width="2" d="M515,-712C515,-712 580,-712 580,-712 586,-712 592,-718 592,-724 592,-724 592,-752 592,-752 592,-758 586,-764 580,-764 580,-764 515,-764 515,-764 509,-764 503,-758 503,-752 503,-752 503,-724 503,-724 503,-718 509,-712 515,-712"/>
<text text-anchor="middle" x="547.5" y="-752.8" font-family="Helvetica,sans-Serif" font-weight="bold" font-size="9.00">basic&#45;function</text>
</g>
<g id="clust14" class="cluster">
<title>cluster_packages/util/stdlib</title>
<path fill="#ffffff" stroke="black" stroke-width="2" d="M501,-568C501,-568 593,-568 593,-568 599,-568 605,-574 605,-580 605,-580 605,-676 605,-676 605,-682 599,-688 593,-688 593,-688 501,-688 501,-688 495,-688 489,-682 489,-676 489,-676 489,-580 489,-580 489,-574 495,-568 501,-568"/>
<text text-anchor="middle" x="547" y="-676.8" font-family="Helvetica,sans-Serif" font-weight="bold" font-size="9.00">stdlib</text>
</g>
<g id="clust15" class="cluster">
<title>cluster_packages/util/stdlib/src</title>
<path fill="#ffffff" stroke="black" stroke-width="2" d="M509,-576C509,-576 585,-576 585,-576 591,-576 597,-582 597,-588 597,-588 597,-650 597,-650 597,-656 591,-662 585,-662 585,-662 509,-662 509,-662 503,-662 497,-656 497,-650 497,-650 497,-588 497,-588 497,-582 503,-576 509,-576"/>
<text text-anchor="middle" x="547" y="-650.8" font-family="Helvetica,sans-Serif" font-weight="bold" font-size="9.00">src</text>
</g>
<g id="clust16" class="cluster">
<title>cluster_packages/util/stdlib/src/assertion</title>
<path fill="#ffffff" stroke="black" stroke-width="2" d="M517,-584C517,-584 577,-584 577,-584 583,-584 589,-590 589,-596 589,-596 589,-624 589,-624 589,-630 583,-636 577,-636 577,-636 517,-636 517,-636 511,-636 505,-630 505,-624 505,-624 505,-596 505,-596 505,-590 511,-584 517,-584"/>
<text text-anchor="middle" x="547" y="-624.8" font-family="Helvetica,sans-Serif" font-weight="bold" font-size="9.00">assertion</text>
</g>
<!-- node_modules/@tonaljs/interval -->
<g id="node1" class="node">
<title>node_modules/@tonaljs/interval</title>
<g id="a_node1"><a xlink:href="https://www.npmjs.com/package/@tonaljs/interval" xlink:title="interval">
<polygon fill="#c40b0a" fill-opacity="0.101961" stroke="black" points="574,-72 522,-72 520,-70 520,-54 572,-54 574,-56 574,-72"/>
<polyline fill="none" stroke="black" points="572,-70 520,-70 "/>
<polyline fill="none" stroke="black" points="572,-70 572,-54 "/>
<polyline fill="none" stroke="black" points="572,-70 574,-72 "/>
<text text-anchor="start" x="530" y="-60.8" font-family="Helvetica,sans-Serif" font-size="9.00" fill="#c40b0a">interval</text>
</a>
</g>
</g>
<!-- node_modules/@tonaljs/note -->
<g id="node2" class="node">
<title>node_modules/@tonaljs/note</title>
<g id="a_node2"><a xlink:href="https://www.npmjs.com/package/@tonaljs/note" xlink:title="note">
<polygon fill="#c40b0a" fill-opacity="0.101961" stroke="black" points="574,-42 522,-42 520,-40 520,-24 572,-24 574,-26 574,-42"/>
<polyline fill="none" stroke="black" points="572,-40 520,-40 "/>
<polyline fill="none" stroke="black" points="572,-40 572,-24 "/>
<polyline fill="none" stroke="black" points="572,-40 574,-42 "/>
<text text-anchor="start" x="536.5" y="-30.8" font-family="Helvetica,sans-Serif" font-size="9.00" fill="#c40b0a">note</text>
</a>
</g>
</g>
<!-- packages/tonal&#45;objects/src/interval/distance.ts -->
<g id="node3" class="node">
<title>packages/tonal&#45;objects/src/interval/distance.ts</title>
<g id="a_node3"><a xlink:href="packages/tonal-objects/src/interval/distance.ts" xlink:title="distance.ts">
<polygon fill="#ddfeff" stroke="black" points="439,-242 437.5,-244 427,-244 425.5,-242 373,-242 373,-224 439,-224 439,-242"/>
<text text-anchor="start" x="381" y="-230.8" font-family="Helvetica,sans-Serif" font-size="9.00">distance.ts</text>
</a>
</g>
</g>
<!-- packages/tonal&#45;objects/src/interval/get.ts -->
<g id="node4" class="node">
<title>packages/tonal&#45;objects/src/interval/get.ts</title>
<g id="a_node4"><a xlink:href="packages/tonal-objects/src/interval/get.ts" xlink:title="get.ts">
<path fill="#ddfeff" stroke="black" d="M427,-272C427,-272 385,-272 385,-272 382,-272 379,-269 379,-266 379,-266 379,-260 379,-260 379,-257 382,-254 385,-254 385,-254 427,-254 427,-254 430,-254 433,-257 433,-260 433,-260 433,-266 433,-266 433,-269 430,-272 427,-272"/>
<text text-anchor="start" x="392.5" y="-260.8" font-family="Helvetica,sans-Serif" font-size="9.00">get.ts</text>
</a>
</g>
</g>
<!-- packages/tonal&#45;objects/src/interval/get.ts&#45;&gt;node_modules/@tonaljs/interval -->
<g id="edge1" class="edge">
<title>packages/tonal&#45;objects/src/interval/get.ts&#45;&gt;node_modules/@tonaljs/interval</title>
<path fill="none" stroke="#000000" stroke-opacity="0.200000" d="M413.33,-253.89C435.4,-222.13 509.04,-116.17 536,-77.39"/>
<polygon fill="#000000" fill-opacity="0.200000" stroke="#000000" stroke-opacity="0.200000" points="541.35,-73.37 536.2,-77.09 537.9,-70.97 541.35,-73.37"/>
</g>
<!-- packages/tonal&#45;objects/src/note/chroma.ts -->
<g id="node5" class="node">
<title>packages/tonal&#45;objects/src/note/chroma.ts</title>
<g id="a_node5"><a xlink:href="packages/tonal-objects/src/note/chroma.ts" xlink:title="chroma.ts">
<path fill="#ddfeff" stroke="black" d="M431,-182C431,-182 381,-182 381,-182 378,-182 375,-179 375,-176 375,-176 375,-170 375,-170 375,-167 378,-164 381,-164 381,-164 431,-164 431,-164 434,-164 437,-167 437,-170 437,-170 437,-176 437,-176 437,-179 434,-182 431,-182"/>
<text text-anchor="start" x="383" y="-170.8" font-family="Helvetica,sans-Serif" font-size="9.00">chroma.ts</text>
</a>
</g>
</g>
<!-- packages/tonal&#45;objects/src/note/chroma.ts&#45;&gt;node_modules/@tonaljs/note -->
<g id="edge2" class="edge">
<title>packages/tonal&#45;objects/src/note/chroma.ts&#45;&gt;node_modules/@tonaljs/note</title>
<path fill="none" stroke="#000000" stroke-opacity="0.200000" d="M416.12,-163.81C439.99,-139.78 504.37,-74.93 532.52,-46.58"/>
<polygon fill="#000000" fill-opacity="0.200000" stroke="#000000" stroke-opacity="0.200000" points="538.52,-43.52 532.8,-46.3 535.54,-40.56 538.52,-43.52"/>
</g>
<!-- packages/util/color/index.test.ts -->
<g id="node6" class="node">
<title>packages/util/color/index.test.ts</title>
<g id="a_node6"><a xlink:href="packages/util/color/index.test.ts" xlink:title="index.test.ts">
<path fill="#ddfeff" stroke="black" d="M99,-458C99,-458 38,-458 38,-458 35,-458 32,-455 32,-452 32,-452 32,-446 32,-446 32,-443 35,-440 38,-440 38,-440 99,-440 99,-440 102,-440 105,-443 105,-446 105,-446 105,-452 105,-452 105,-455 102,-458 99,-458"/>
<text text-anchor="start" x="40" y="-446.8" font-family="Helvetica,sans-Serif" font-size="9.00">index.test.ts</text>
</a>
</g>
</g>
<!-- packages/util/color/src/fifth&#45;chroma&#45;to&#45;color.ts -->
<g id="node7" class="node">
<title>packages/util/color/src/fifth&#45;chroma&#45;to&#45;color.ts</title>
<g id="a_node7"><a xlink:href="packages/util/color/src/fifth-chroma-to-color.ts" xlink:title="fifth&#45;chroma&#45;to&#45;color.ts">
<path fill="#ddfeff" stroke="black" d="M334.5,-466C334.5,-466 225.5,-466 225.5,-466 222.5,-466 219.5,-463 219.5,-460 219.5,-460 219.5,-454 219.5,-454 219.5,-451 222.5,-448 225.5,-448 225.5,-448 334.5,-448 334.5,-448 337.5,-448 340.5,-451 340.5,-454 340.5,-454 340.5,-460 340.5,-460 340.5,-463 337.5,-466 334.5,-466"/>
<text text-anchor="start" x="227.5" y="-454.8" font-family="Helvetica,sans-Serif" font-size="9.00">fifth&#45;chroma&#45;to&#45;color.ts</text>
</a>
</g>
</g>
<!-- packages/util/color/index.test.ts&#45;&gt;packages/util/color/src/fifth&#45;chroma&#45;to&#45;color.ts -->
<g id="edge3" class="edge">
<title>packages/util/color/index.test.ts&#45;&gt;packages/util/color/src/fifth&#45;chroma&#45;to&#45;color.ts</title>
<path fill="none" stroke="#000000" stroke-width="2" stroke-opacity="0.200000" d="M105.34,-450.39C134.99,-451.51 177.44,-453.12 213.06,-454.47"/>
<polygon fill="#000000" fill-opacity="0.200000" stroke="#000000" stroke-width="2" stroke-opacity="0.200000" points="213.1,-456.57 219.17,-454.7 213.25,-452.37 213.1,-456.57"/>
</g>
<!-- packages/util/color/src/fifth&#45;to&#45;color.ts -->
<g id="node8" class="node">
<title>packages/util/color/src/fifth&#45;to&#45;color.ts</title>
<g id="a_node8"><a xlink:href="packages/util/color/src/fifth-to-color.ts" xlink:title="fifth&#45;to&#45;color.ts">
<path fill="#ddfeff" stroke="black" d="M199,-436C199,-436 128,-436 128,-436 125,-436 122,-433 122,-430 122,-430 122,-424 122,-424 122,-421 125,-418 128,-418 128,-418 199,-418 199,-418 202,-418 205,-421 205,-424 205,-424 205,-430 205,-430 205,-433 202,-436 199,-436"/>
<text text-anchor="start" x="130" y="-424.8" font-family="Helvetica,sans-Serif" font-size="9.00">fifth&#45;to&#45;color.ts</text>
</a>
</g>
</g>
<!-- packages/util/color/index.test.ts&#45;&gt;packages/util/color/src/fifth&#45;to&#45;color.ts -->
<g id="edge4" class="edge">
<title>packages/util/color/index.test.ts&#45;&gt;packages/util/color/src/fifth&#45;to&#45;color.ts</title>
<path fill="none" stroke="#000000" stroke-width="2" stroke-opacity="0.200000" d="M105.19,-440.56C109.49,-439.54 113.91,-438.49 118.31,-437.45"/>
<polygon fill="#000000" fill-opacity="0.200000" stroke="#000000" stroke-width="2" stroke-opacity="0.200000" points="118.92,-439.47 124.28,-436.04 117.96,-435.38 118.92,-439.47"/>
</g>
<!-- packages/util/color/src/hsv2rgb.ts -->
<g id="node9" class="node">
<title>packages/util/color/src/hsv2rgb.ts</title>
<g id="a_node9"><a xlink:href="packages/util/color/src/hsv2rgb.ts" xlink:title="hsv2rgb.ts">
<path fill="#ddfeff" stroke="black" d="M432.5,-436C432.5,-436 379.5,-436 379.5,-436 376.5,-436 373.5,-433 373.5,-430 373.5,-430 373.5,-424 373.5,-424 373.5,-421 376.5,-418 379.5,-418 379.5,-418 432.5,-418 432.5,-418 435.5,-418 438.5,-421 438.5,-424 438.5,-424 438.5,-430 438.5,-430 438.5,-433 435.5,-436 432.5,-436"/>
<text text-anchor="start" x="381.5" y="-424.8" font-family="Helvetica,sans-Serif" font-size="9.00">hsv2rgb.ts</text>
</a>
</g>
</g>
<!-- packages/util/color/index.test.ts&#45;&gt;packages/util/color/src/hsv2rgb.ts -->
<g id="edge5" class="edge">
<title>packages/util/color/index.test.ts&#45;&gt;packages/util/color/src/hsv2rgb.ts</title>
<path fill="none" stroke="#000000" stroke-width="2" stroke-opacity="0.200000" d="M105.26,-446.6C169.48,-442.42 301.49,-433.81 367.15,-429.53"/>
<polygon fill="#000000" fill-opacity="0.200000" stroke="#000000" stroke-width="2" stroke-opacity="0.200000" points="367.44,-431.62 373.29,-429.13 367.17,-427.43 367.44,-431.62"/>
</g>
<!-- packages/util/color/src/note&#45;chroma&#45;to&#45;color.ts -->
<g id="node10" class="node">
<title>packages/util/color/src/note&#45;chroma&#45;to&#45;color.ts</title>
<g id="a_node10"><a xlink:href="packages/util/color/src/note-chroma-to-color.ts" xlink:title="note&#45;chroma&#45;to&#45;color.ts">
<path fill="#ddfeff" stroke="black" d="M335,-436C335,-436 225,-436 225,-436 222,-436 219,-433 219,-430 219,-430 219,-424 219,-424 219,-421 222,-418 225,-418 225,-418 335,-418 335,-418 338,-418 341,-421 341,-424 341,-424 341,-430 341,-430 341,-433 338,-436 335,-436"/>
<text text-anchor="start" x="227" y="-424.8" font-family="Helvetica,sans-Serif" font-size="9.00">note&#45;chroma&#45;to&#45;color.ts</text>
</a>
</g>
</g>
<!-- packages/util/color/index.test.ts&#45;&gt;packages/util/color/src/note&#45;chroma&#45;to&#45;color.ts -->
<g id="edge6" class="edge">
<title>packages/util/color/index.test.ts&#45;&gt;packages/util/color/src/note&#45;chroma&#45;to&#45;color.ts</title>
<path fill="none" stroke="#000000" stroke-width="2" stroke-opacity="0.200000" d="M105.34,-445.17C134.88,-442.1 177.12,-437.7 212.66,-434"/>
<polygon fill="#000000" fill-opacity="0.200000" stroke="#000000" stroke-width="2" stroke-opacity="0.200000" points="213,-436.08 218.75,-433.37 212.57,-431.9 213,-436.08"/>
</g>
<!-- packages/util/color/src/note&#45;to&#45;color.ts -->
<g id="node11" class="node">
<title>packages/util/color/src/note&#45;to&#45;color.ts</title>
<g id="a_node11"><a xlink:href="packages/util/color/src/note-to-color.ts" xlink:title="note&#45;to&#45;color.ts">
<path fill="#ddfeff" stroke="black" d="M200,-406C200,-406 127,-406 127,-406 124,-406 121,-403 121,-400 121,-400 121,-394 121,-394 121,-391 124,-388 127,-388 127,-388 200,-388 200,-388 203,-388 206,-391 206,-394 206,-394 206,-400 206,-400 206,-403 203,-406 200,-406"/>
<text text-anchor="start" x="129" y="-394.8" font-family="Helvetica,sans-Serif" font-size="9.00">note&#45;to&#45;color.ts</text>
</a>
</g>
</g>
<!-- packages/util/color/index.test.ts&#45;&gt;packages/util/color/src/note&#45;to&#45;color.ts -->
<g id="edge7" class="edge">
<title>packages/util/color/index.test.ts&#45;&gt;packages/util/color/src/note&#45;to&#45;color.ts</title>
<path fill="none" stroke="#000000" stroke-width="2" stroke-opacity="0.200000" d="M85.7,-439.94C100.94,-431.42 123.88,-418.6 140.72,-409.18"/>
<polygon fill="#000000" fill-opacity="0.200000" stroke="#000000" stroke-width="2" stroke-opacity="0.200000" points="141.96,-410.89 146.17,-406.13 139.91,-407.22 141.96,-410.89"/>
</g>
<!-- packages/util/color/src/rgb&#45;to&#45;string.ts -->
<g id="node12" class="node">
<title>packages/util/color/src/rgb&#45;to&#45;string.ts</title>
<g id="a_node12"><a xlink:href="packages/util/color/src/rgb-to-string.ts" xlink:title="rgb&#45;to&#45;string.ts">
<path fill="#ddfeff" stroke="black" d="M443,-466C443,-466 369,-466 369,-466 366,-466 363,-463 363,-460 363,-460 363,-454 363,-454 363,-451 366,-448 369,-448 369,-448 443,-448 443,-448 446,-448 449,-451 449,-454 449,-454 449,-460 449,-460 449,-463 446,-466 443,-466"/>
<text text-anchor="start" x="371" y="-454.8" font-family="Helvetica,sans-Serif" font-size="9.00">rgb&#45;to&#45;string.ts</text>
</a>
</g>
</g>
<!-- packages/util/color/index.test.ts&#45;&gt;packages/util/color/src/rgb&#45;to&#45;string.ts -->
<g id="edge8" class="edge">
<title>packages/util/color/index.test.ts&#45;&gt;packages/util/color/src/rgb&#45;to&#45;string.ts</title>
<path fill="none" stroke="#000000" stroke-width="2" stroke-opacity="0.200000" d="M105.26,-449.87C166.29,-451.32 288.55,-454.22 356.9,-455.84"/>
<polygon fill="#000000" fill-opacity="0.200000" stroke="#000000" stroke-width="2" stroke-opacity="0.200000" points="356.89,-457.94 362.93,-455.98 356.99,-453.74 356.89,-457.94"/>
</g>
<!-- packages/util/color/src/util.ts -->
<g id="node13" class="node">
<title>packages/util/color/src/util.ts</title>
<g id="a_node13"><a xlink:href="packages/util/color/src/util.ts" xlink:title="util.ts">
<path fill="#ddfeff" stroke="black" d="M568,-421C568,-421 526,-421 526,-421 523,-421 520,-418 520,-415 520,-415 520,-409 520,-409 520,-406 523,-403 526,-403 526,-403 568,-403 568,-403 571,-403 574,-406 574,-409 574,-409 574,-415 574,-415 574,-418 571,-421 568,-421"/>
<text text-anchor="start" x="534" y="-409.8" font-family="Helvetica,sans-Serif" font-size="9.00">util.ts</text>
</a>
</g>
</g>
<!-- packages/util/color/index.test.ts&#45;&gt;packages/util/color/src/util.ts -->
<g id="edge9" class="edge">
<title>packages/util/color/index.test.ts&#45;&gt;packages/util/color/src/util.ts</title>
<path fill="none" stroke="#000000" stroke-width="2" stroke-opacity="0.200000" d="M105.25,-446.16C195.56,-439.17 427.27,-421.26 513.77,-414.57"/>
<polygon fill="#000000" fill-opacity="0.200000" stroke="#000000" stroke-width="2" stroke-opacity="0.200000" points="514.17,-416.65 519.99,-414.09 513.84,-412.46 514.17,-416.65"/>
</g>
<!-- packages/util/color/src/fifth&#45;chroma&#45;to&#45;color.ts&#45;&gt;packages/util/color/src/hsv2rgb.ts -->
<g id="edge15" class="edge">
<title>packages/util/color/src/fifth&#45;chroma&#45;to&#45;color.ts&#45;&gt;packages/util/color/src/hsv2rgb.ts</title>
<path fill="none" stroke="#000000" stroke-width="2" stroke-opacity="0.200000" d="M318.2,-448C333.7,-444.25 351.66,-439.9 367.22,-436.14"/>
<polygon fill="#000000" fill-opacity="0.200000" stroke="#000000" stroke-width="2" stroke-opacity="0.200000" points="367.93,-438.13 373.27,-434.68 366.95,-434.05 367.93,-438.13"/>
</g>
<!-- packages/util/color/src/fifth&#45;chroma&#45;to&#45;color.ts&#45;&gt;packages/util/color/src/rgb&#45;to&#45;string.ts -->
<g id="edge16" class="edge">
<title>packages/util/color/src/fifth&#45;chroma&#45;to&#45;color.ts&#45;&gt;packages/util/color/src/rgb&#45;to&#45;string.ts</title>
<path fill="none" stroke="#000000" stroke-width="2" stroke-opacity="0.200000" d="M340.82,-457C346.16,-457 351.53,-457 356.75,-457"/>
<polygon fill="#000000" fill-opacity="0.200000" stroke="#000000" stroke-width="2" stroke-opacity="0.200000" points="356.81,-459.1 362.81,-457 356.81,-454.9 356.81,-459.1"/>
</g>
<!-- packages/util/color/src/green&#45;hue.ts -->
<g id="node16" class="node">
<title>packages/util/color/src/green&#45;hue.ts</title>
<g id="a_node16"><a xlink:href="packages/util/color/src/green-hue.ts" xlink:title="green&#45;hue.ts">
<path fill="#ddfeff" stroke="black" d="M437,-406C437,-406 375,-406 375,-406 372,-406 369,-403 369,-400 369,-400 369,-394 369,-394 369,-391 372,-388 375,-388 375,-388 437,-388 437,-388 440,-388 443,-391 443,-394 443,-394 443,-400 443,-400 443,-403 440,-406 437,-406"/>
<text text-anchor="start" x="377" y="-394.8" font-family="Helvetica,sans-Serif" font-size="9.00">green&#45;hue.ts</text>
</a>
</g>
</g>
<!-- packages/util/color/src/fifth&#45;chroma&#45;to&#45;color.ts&#45;&gt;packages/util/color/src/green&#45;hue.ts -->
<g id="edge14" class="edge">
<title>packages/util/color/src/fifth&#45;chroma&#45;to&#45;color.ts&#45;&gt;packages/util/color/src/green&#45;hue.ts</title>
<path fill="none" stroke="#000000" stroke-width="2" stroke-opacity="0.200000" d="M299.83,-447.89C321.54,-437.39 357.25,-420.11 380.94,-408.64"/>
<polygon fill="#000000" fill-opacity="0.200000" stroke="#000000" stroke-width="2" stroke-opacity="0.200000" points="381.91,-410.51 386.4,-406 380.08,-406.72 381.91,-410.51"/>
</g>
<!-- packages/util/math/src/basic&#45;function/mod.ts -->
<g id="node17" class="node">
<title>packages/util/math/src/basic&#45;function/mod.ts</title>
<g id="a_node17"><a xlink:href="packages/util/math/src/basic-function/mod.ts" xlink:title="mod.ts">
<path fill="#ddfeff" stroke="black" d="M568,-738C568,-738 526,-738 526,-738 523,-738 520,-735 520,-732 520,-732 520,-726 520,-726 520,-723 523,-720 526,-720 526,-720 568,-720 568,-720 571,-720 574,-723 574,-726 574,-726 574,-732 574,-732 574,-735 571,-738 568,-738"/>
<text text-anchor="start" x="531" y="-726.8" font-family="Helvetica,sans-Serif" font-size="9.00">mod.ts</text>
</a>
</g>
</g>
<!-- packages/util/color/src/fifth&#45;chroma&#45;to&#45;color.ts&#45;&gt;packages/util/math/src/basic&#45;function/mod.ts -->
<g id="edge17" class="edge">
<title>packages/util/color/src/fifth&#45;chroma&#45;to&#45;color.ts&#45;&gt;packages/util/math/src/basic&#45;function/mod.ts</title>
<path fill="none" stroke="#000000" stroke-width="2" stroke-opacity="0.200000" d="M288.88,-466.05C328.16,-506.06 486.38,-667.24 533.62,-715.37"/>
<polygon fill="#000000" fill-opacity="0.200000" stroke="#000000" stroke-width="2" stroke-opacity="0.200000" points="532.38,-717.11 538.08,-719.92 535.38,-714.16 532.38,-717.11"/>
</g>
<!-- packages/util/color/src/fifth&#45;to&#45;color.ts&#45;&gt;packages/tonal&#45;objects/src/note/chroma.ts -->
<g id="edge19" class="edge">
<title>packages/util/color/src/fifth&#45;to&#45;color.ts&#45;&gt;packages/tonal&#45;objects/src/note/chroma.ts</title>
<path fill="none" stroke="#000000" stroke-width="2" stroke-opacity="0.200000" d="M172.13,-417.96C208.44,-379.93 348.92,-232.79 392.82,-186.81"/>
<polygon fill="#000000" fill-opacity="0.200000" stroke="#000000" stroke-width="2" stroke-opacity="0.200000" points="394.59,-187.99 397.22,-182.2 391.56,-185.09 394.59,-187.99"/>
</g>
<!-- packages/util/color/src/fifth&#45;to&#45;color.ts&#45;&gt;packages/util/color/src/fifth&#45;chroma&#45;to&#45;color.ts -->
<g id="edge18" class="edge">
<title>packages/util/color/src/fifth&#45;to&#45;color.ts&#45;&gt;packages/util/color/src/fifth&#45;chroma&#45;to&#45;color.ts</title>
<path fill="none" stroke="#000000" stroke-width="2" stroke-opacity="0.200000" d="M198.85,-436C211.31,-439.26 225.49,-442.98 238.43,-446.37"/>
<polygon fill="#000000" fill-opacity="0.200000" stroke="#000000" stroke-width="2" stroke-opacity="0.200000" points="237.94,-448.41 244.27,-447.9 239,-444.35 237.94,-448.41"/>
</g>
<!-- packages/util/color/src/hsv2rgb.ts&#45;&gt;packages/util/color/src/util.ts -->
<g id="edge20" class="edge">
<title>packages/util/color/src/hsv2rgb.ts&#45;&gt;packages/util/color/src/util.ts</title>
<path fill="none" stroke="#000000" stroke-width="2" stroke-opacity="0.200000" d="M438.54,-423.6C460.95,-421.18 490.94,-417.94 513.55,-415.5"/>
<polygon fill="#000000" fill-opacity="0.200000" stroke="#000000" stroke-width="2" stroke-opacity="0.200000" points="513.97,-417.57 519.71,-414.84 513.52,-413.39 513.97,-417.57"/>
</g>
<!-- packages/util/color/src/hsv2rgb.ts&#45;&gt;packages/util/math/src/basic&#45;function/mod.ts -->
<g id="edge21" class="edge">
<title>packages/util/color/src/hsv2rgb.ts&#45;&gt;packages/util/math/src/basic&#45;function/mod.ts</title>
<path fill="none" stroke="#000000" stroke-width="2" stroke-opacity="0.200000" d="M411.16,-436.04C430.86,-478.85 514.86,-661.34 539.3,-714.45"/>
<polygon fill="#000000" fill-opacity="0.200000" stroke="#000000" stroke-width="2" stroke-opacity="0.200000" points="537.44,-715.42 541.86,-720 541.26,-713.67 537.44,-715.42"/>
</g>
<!-- packages/util/stdlib/src/assertion/assertion.ts -->
<g id="node18" class="node">
<title>packages/util/stdlib/src/assertion/assertion.ts</title>
<g id="a_node18"><a xlink:href="packages/util/stdlib/src/assertion/assertion.ts" xlink:title="assertion.ts">
<path fill="#ddfeff" stroke="black" d="M575,-610C575,-610 519,-610 519,-610 516,-610 513,-607 513,-604 513,-604 513,-598 513,-598 513,-595 516,-592 519,-592 519,-592 575,-592 575,-592 578,-592 581,-595 581,-598 581,-598 581,-604 581,-604 581,-607 578,-610 575,-610"/>
<text text-anchor="start" x="521" y="-598.8" font-family="Helvetica,sans-Serif" font-size="9.00">assertion.ts</text>
</a>
</g>
</g>
<!-- packages/util/color/src/hsv2rgb.ts&#45;&gt;packages/util/stdlib/src/assertion/assertion.ts -->
<g id="edge22" class="edge">
<title>packages/util/color/src/hsv2rgb.ts&#45;&gt;packages/util/stdlib/src/assertion/assertion.ts</title>
<path fill="none" stroke="#000000" stroke-width="2" stroke-opacity="0.200000" d="M414.47,-436.35C437.38,-465.03 506.75,-551.86 534.42,-586.5"/>
<polygon fill="#000000" fill-opacity="0.200000" stroke="#000000" stroke-width="2" stroke-opacity="0.200000" points="533.1,-588.22 538.49,-591.6 536.39,-585.6 533.1,-588.22"/>
</g>
<!-- packages/util/color/src/note&#45;chroma&#45;to&#45;color.ts&#45;&gt;packages/util/color/src/hsv2rgb.ts -->
<g id="edge24" class="edge">
<title>packages/util/color/src/note&#45;chroma&#45;to&#45;color.ts&#45;&gt;packages/util/color/src/hsv2rgb.ts</title>
<path fill="none" stroke="#000000" stroke-width="2" stroke-opacity="0.200000" d="M341.18,-427C350.03,-427 358.94,-427 367.16,-427"/>
<polygon fill="#000000" fill-opacity="0.200000" stroke="#000000" stroke-width="2" stroke-opacity="0.200000" points="367.31,-429.1 373.31,-427 367.31,-424.9 367.31,-429.1"/>
</g>
<!-- packages/util/color/src/note&#45;chroma&#45;to&#45;color.ts&#45;&gt;packages/util/color/src/rgb&#45;to&#45;string.ts -->
<g id="edge25" class="edge">
<title>packages/util/color/src/note&#45;chroma&#45;to&#45;color.ts&#45;&gt;packages/util/color/src/rgb&#45;to&#45;string.ts</title>
<path fill="none" stroke="#000000" stroke-width="2" stroke-opacity="0.200000" d="M318.2,-436C331.81,-439.29 347.33,-443.05 361.44,-446.46"/>
<polygon fill="#000000" fill-opacity="0.200000" stroke="#000000" stroke-width="2" stroke-opacity="0.200000" points="361.07,-448.53 367.39,-447.9 362.06,-444.45 361.07,-448.53"/>
</g>
<!-- packages/util/color/src/note&#45;chroma&#45;to&#45;color.ts&#45;&gt;packages/util/color/src/green&#45;hue.ts -->
<g id="edge23" class="edge">
<title>packages/util/color/src/note&#45;chroma&#45;to&#45;color.ts&#45;&gt;packages/util/color/src/green&#45;hue.ts</title>
<path fill="none" stroke="#000000" stroke-width="2" stroke-opacity="0.200000" d="M318.2,-418C332.19,-414.62 348.18,-410.75 362.6,-407.26"/>
<polygon fill="#000000" fill-opacity="0.200000" stroke="#000000" stroke-width="2" stroke-opacity="0.200000" points="363.34,-409.24 368.68,-405.79 362.35,-405.16 363.34,-409.24"/>
</g>
<!-- packages/util/color/src/note&#45;to&#45;color.ts&#45;&gt;packages/tonal&#45;objects/src/note/chroma.ts -->
<g id="edge27" class="edge">
<title>packages/util/color/src/note&#45;to&#45;color.ts&#45;&gt;packages/tonal&#45;objects/src/note/chroma.ts</title>
<path fill="none" stroke="#000000" stroke-width="2" stroke-opacity="0.200000" d="M173.31,-387.94C211.01,-353.11 346.75,-227.73 391.55,-186.35"/>
<polygon fill="#000000" fill-opacity="0.200000" stroke="#000000" stroke-width="2" stroke-opacity="0.200000" points="393.09,-187.79 396.07,-182.17 390.24,-184.7 393.09,-187.79"/>
</g>
<!-- packages/util/color/src/note&#45;to&#45;color.ts&#45;&gt;packages/util/color/src/note&#45;chroma&#45;to&#45;color.ts -->
<g id="edge26" class="edge">
<title>packages/util/color/src/note&#45;to&#45;color.ts&#45;&gt;packages/util/color/src/note&#45;chroma&#45;to&#45;color.ts</title>
<path fill="none" stroke="#000000" stroke-width="2" stroke-opacity="0.200000" d="M198.85,-406C211.31,-409.26 225.49,-412.98 238.43,-416.37"/>
<polygon fill="#000000" fill-opacity="0.200000" stroke="#000000" stroke-width="2" stroke-opacity="0.200000" points="237.94,-418.41 244.27,-417.9 239,-414.35 237.94,-418.41"/>
</g>
<!-- packages/util/color/index.ts -->
<g id="node14" class="node">
<title>packages/util/color/index.ts</title>
<g id="a_node14"><a xlink:href="packages/util/color/index.ts" xlink:title="index.ts">
<path fill="#ddfeff" stroke="black" d="M89.5,-521C89.5,-521 47.5,-521 47.5,-521 44.5,-521 41.5,-518 41.5,-515 41.5,-515 41.5,-509 41.5,-509 41.5,-506 44.5,-503 47.5,-503 47.5,-503 89.5,-503 89.5,-503 92.5,-503 95.5,-506 95.5,-509 95.5,-509 95.5,-515 95.5,-515 95.5,-518 92.5,-521 89.5,-521"/>
<text text-anchor="start" x="50" y="-509.8" font-family="Helvetica,sans-Serif" font-size="9.00">index.ts</text>
</a>
</g>
</g>
<!-- packages/util/color/index.ts&#45;&gt;packages/util/color/src/fifth&#45;to&#45;color.ts -->
<g id="edge10" class="edge">
<title>packages/util/color/index.ts&#45;&gt;packages/util/color/src/fifth&#45;to&#45;color.ts</title>
<path fill="none" stroke="#000000" stroke-width="2" stroke-opacity="0.200000" d="M79.45,-502.9C95.95,-487.82 129.04,-457.58 148.1,-440.16"/>
<polygon fill="#000000" fill-opacity="0.200000" stroke="#000000" stroke-width="2" stroke-opacity="0.200000" points="154.04,-437.58 148.19,-440.08 151.2,-434.48 154.04,-437.58"/>
</g>
<!-- packages/util/color/index.ts&#45;&gt;packages/util/color/src/hsv2rgb.ts -->
<g id="edge11" class="edge">
<title>packages/util/color/index.ts&#45;&gt;packages/util/color/src/hsv2rgb.ts</title>
<path fill="none" stroke="#000000" stroke-width="2" stroke-opacity="0.200000" d="M95.55,-505.19C155.22,-490.16 298.32,-454.12 367.4,-436.72"/>
<polygon fill="#000000" fill-opacity="0.200000" stroke="#000000" stroke-width="2" stroke-opacity="0.200000" points="373.96,-437.24 367.63,-436.66 372.93,-433.16 373.96,-437.24"/>
</g>
<!-- packages/util/color/index.ts&#45;&gt;packages/util/color/src/rgb&#45;to&#45;string.ts -->
<g id="edge12" class="edge">
<title>packages/util/color/index.ts&#45;&gt;packages/util/color/src/rgb&#45;to&#45;string.ts</title>
<path fill="none" stroke="#000000" stroke-width="2" stroke-opacity="0.200000" d="M95.55,-507.59C152.37,-498.33 284.86,-476.74 357.02,-464.98"/>
<polygon fill="#000000" fill-opacity="0.200000" stroke="#000000" stroke-width="2" stroke-opacity="0.200000" points="363.3,-466.09 357.04,-464.98 362.63,-461.94 363.3,-466.09"/>
</g>
<!-- packages/util/color/src/third&#45;to&#45;color.ts -->
<g id="node15" class="node">
<title>packages/util/color/src/third&#45;to&#45;color.ts</title>
<g id="a_node15"><a xlink:href="packages/util/color/src/third-to-color.ts" xlink:title="third&#45;to&#45;color.ts">
<path fill="#ddfeff" stroke="black" d="M317,-406C317,-406 243,-406 243,-406 240,-406 237,-403 237,-400 237,-400 237,-394 237,-394 237,-391 240,-388 243,-388 243,-388 317,-388 317,-388 320,-388 323,-391 323,-394 323,-394 323,-400 323,-400 323,-403 320,-406 317,-406"/>
<text text-anchor="start" x="245" y="-394.8" font-family="Helvetica,sans-Serif" font-size="9.00">third&#45;to&#45;color.ts</text>
</a>
</g>
</g>
<!-- packages/util/color/index.ts&#45;&gt;packages/util/color/src/third&#45;to&#45;color.ts -->
<g id="edge13" class="edge">
<title>packages/util/color/index.ts&#45;&gt;packages/util/color/src/third&#45;to&#45;color.ts</title>
<path fill="none" stroke="#000000" stroke-width="2" stroke-opacity="0.200000" d="M85.1,-502.98C122.84,-482.45 215.14,-432.27 257.76,-409.09"/>
<polygon fill="#000000" fill-opacity="0.200000" stroke="#000000" stroke-width="2" stroke-opacity="0.200000" points="264.19,-407.99 257.92,-409.01 262.19,-404.3 264.19,-407.99"/>
</g>
<!-- packages/util/color/src/third&#45;to&#45;color.ts&#45;&gt;packages/tonal&#45;objects/src/interval/distance.ts -->
<g id="edge32" class="edge">
<title>packages/util/color/src/third&#45;to&#45;color.ts&#45;&gt;packages/tonal&#45;objects/src/interval/distance.ts</title>
<path fill="none" stroke="#000000" stroke-width="2" stroke-opacity="0.200000" d="M288.02,-387.71C308.74,-360.31 369.7,-279.69 394.41,-247"/>
<polygon fill="#000000" fill-opacity="0.200000" stroke="#000000" stroke-width="2" stroke-opacity="0.200000" points="396.11,-248.24 398.05,-242.19 392.76,-245.7 396.11,-248.24"/>
</g>
<!-- packages/util/color/src/third&#45;to&#45;color.ts&#45;&gt;packages/tonal&#45;objects/src/interval/get.ts -->
<g id="edge33" class="edge">
<title>packages/util/color/src/third&#45;to&#45;color.ts&#45;&gt;packages/tonal&#45;objects/src/interval/get.ts</title>
<path fill="none" stroke="#000000" stroke-width="2" stroke-opacity="0.200000" d="M289.52,-387.79C310.85,-364.74 366.62,-304.47 392.04,-277.01"/>
<polygon fill="#000000" fill-opacity="0.200000" stroke="#000000" stroke-width="2" stroke-opacity="0.200000" points="393.88,-278.1 396.42,-272.27 390.8,-275.25 393.88,-278.1"/>
</g>
<!-- packages/util/color/src/third&#45;to&#45;color.ts&#45;&gt;packages/tonal&#45;objects/src/note/chroma.ts -->
<g id="edge34" class="edge">
<title>packages/util/color/src/third&#45;to&#45;color.ts&#45;&gt;packages/tonal&#45;objects/src/note/chroma.ts</title>
<path fill="none" stroke="#000000" stroke-width="2" stroke-opacity="0.200000" d="M286.01,-387.94C305.06,-353.55 373,-230.81 396.74,-187.92"/>
<polygon fill="#000000" fill-opacity="0.200000" stroke="#000000" stroke-width="2" stroke-opacity="0.200000" points="398.72,-188.69 399.79,-182.42 395.04,-186.65 398.72,-188.69"/>
</g>
<!-- packages/util/color/src/third&#45;to&#45;color.ts&#45;&gt;packages/util/color/src/hsv2rgb.ts -->
<g id="edge29" class="edge">
<title>packages/util/color/src/third&#45;to&#45;color.ts&#45;&gt;packages/util/color/src/hsv2rgb.ts</title>
<path fill="none" stroke="#000000" stroke-width="2" stroke-opacity="0.200000" d="M318.2,-406C333.7,-409.75 351.66,-414.1 367.22,-417.86"/>
<polygon fill="#000000" fill-opacity="0.200000" stroke="#000000" stroke-width="2" stroke-opacity="0.200000" points="366.95,-419.95 373.27,-419.32 367.93,-415.87 366.95,-419.95"/>
</g>
<!-- packages/util/color/src/third&#45;to&#45;color.ts&#45;&gt;packages/util/color/src/rgb&#45;to&#45;string.ts -->
<g id="edge30" class="edge">
<title>packages/util/color/src/third&#45;to&#45;color.ts&#45;&gt;packages/util/color/src/rgb&#45;to&#45;string.ts</title>
<path fill="none" stroke="#000000" stroke-width="2" stroke-opacity="0.200000" d="M299.83,-406.11C321.54,-416.61 357.25,-433.89 380.94,-445.36"/>
<polygon fill="#000000" fill-opacity="0.200000" stroke="#000000" stroke-width="2" stroke-opacity="0.200000" points="380.08,-447.28 386.4,-448 381.91,-443.49 380.08,-447.28"/>
</g>
<!-- packages/util/color/src/third&#45;to&#45;color.ts&#45;&gt;packages/util/color/src/green&#45;hue.ts -->
<g id="edge28" class="edge">
<title>packages/util/color/src/third&#45;to&#45;color.ts&#45;&gt;packages/util/color/src/green&#45;hue.ts</title>
<path fill="none" stroke="#000000" stroke-width="2" stroke-opacity="0.200000" d="M323.33,-397C335.99,-397 349.87,-397 362.54,-397"/>
<polygon fill="#000000" fill-opacity="0.200000" stroke="#000000" stroke-width="2" stroke-opacity="0.200000" points="362.65,-399.1 368.65,-397 362.65,-394.9 362.65,-399.1"/>
</g>
<!-- packages/util/color/src/third&#45;to&#45;color.ts&#45;&gt;packages/util/math/src/basic&#45;function/mod.ts -->
<g id="edge31" class="edge">
<title>packages/util/color/src/third&#45;to&#45;color.ts&#45;&gt;packages/util/math/src/basic&#45;function/mod.ts</title>
<path fill="none" stroke="#000000" stroke-width="2" stroke-opacity="0.200000" d="M287.42,-406.23C324.63,-452.49 490.86,-659.2 535.78,-715.05"/>
<polygon fill="#000000" fill-opacity="0.200000" stroke="#000000" stroke-width="2" stroke-opacity="0.200000" points="534.34,-716.62 539.74,-719.97 537.62,-713.98 534.34,-716.62"/>
</g>
</g>
</svg>
