<?xml version="1.0" encoding="UTF-8" standalone="no"?>
<!DOCTYPE svg PUBLIC "-//W3C//DTD SVG 1.1//EN"
 "http://www.w3.org/Graphics/SVG/1.1/DTD/svg11.dtd">
<!-- Generated by graphviz version 2.43.0 (0)
 -->
<!-- Title: dependency&#45;cruiser output Pages: 1 -->
<svg width="754pt" height="1100pt"
 viewBox="0.00 0.00 754.00 1100.00" xmlns="http://www.w3.org/2000/svg" xmlns:xlink="http://www.w3.org/1999/xlink">
<g id="graph0" class="graph" transform="scale(1 1) rotate(0) translate(4 1096)">
<title>dependency&#45;cruiser output</title>
<polygon fill="white" stroke="transparent" points="-4,4 -4,-1096 750,-1096 750,4 -4,4"/>
<g id="clust1" class="cluster">
<title>cluster_packages</title>
<path fill="#ffffff" stroke="black" stroke-width="2" d="M20,-8C20,-8 732,-8 732,-8 738,-8 744,-14 744,-20 744,-20 744,-1072 744,-1072 744,-1078 738,-1084 732,-1084 732,-1084 20,-1084 20,-1084 14,-1084 8,-1078 8,-1072 8,-1072 8,-20 8,-20 8,-14 14,-8 20,-8"/>
<text text-anchor="middle" x="376" y="-1072.8" font-family="Helvetica,sans-Serif" font-weight="bold" font-size="9.00">packages</text>
</g>
<g id="clust2" class="cluster">
<title>cluster_packages/UI</title>
<path fill="#ffffff" stroke="black" stroke-width="2" d="M28,-16C28,-16 718,-16 718,-16 724,-16 730,-22 730,-28 730,-28 730,-628 730,-628 730,-634 724,-640 718,-640 718,-640 28,-640 28,-640 22,-640 16,-634 16,-628 16,-628 16,-28 16,-28 16,-22 22,-16 28,-16"/>
<text text-anchor="middle" x="373" y="-628.8" font-family="Helvetica,sans-Serif" font-weight="bold" font-size="9.00">UI</text>
</g>
<g id="clust3" class="cluster">
<title>cluster_packages/UI/piano&#45;roll</title>
<path fill="#ffffff" stroke="black" stroke-width="2" d="M36,-24C36,-24 710,-24 710,-24 716,-24 722,-30 722,-36 722,-36 722,-320 722,-320 722,-326 716,-332 710,-332 710,-332 36,-332 36,-332 30,-332 24,-326 24,-320 24,-320 24,-36 24,-36 24,-30 30,-24 36,-24"/>
<text text-anchor="middle" x="373" y="-320.8" font-family="Helvetica,sans-Serif" font-weight="bold" font-size="9.00">piano&#45;roll</text>
</g>
<g id="clust4" class="cluster">
<title>cluster_packages/UI/piano&#45;roll/beat&#45;view</title>
<path fill="#ffffff" stroke="black" stroke-width="2" d="M640,-32C640,-32 702,-32 702,-32 708,-32 714,-38 714,-44 714,-44 714,-106 714,-106 714,-112 708,-118 702,-118 702,-118 640,-118 640,-118 634,-118 628,-112 628,-106 628,-106 628,-44 628,-44 628,-38 634,-32 640,-32"/>
<text text-anchor="middle" x="671" y="-106.8" font-family="Helvetica,sans-Serif" font-weight="bold" font-size="9.00">beat&#45;view</text>
</g>
<g id="clust5" class="cluster">
<title>cluster_packages/UI/piano&#45;roll/beat&#45;view/dist</title>
<path fill="#ffffff" stroke="black" stroke-width="2" d="M648,-40C648,-40 694,-40 694,-40 700,-40 706,-46 706,-52 706,-52 706,-80 706,-80 706,-86 700,-92 694,-92 694,-92 648,-92 648,-92 642,-92 636,-86 636,-80 636,-80 636,-52 636,-52 636,-46 642,-40 648,-40"/>
<text text-anchor="middle" x="671" y="-80.8" font-family="Helvetica,sans-Serif" font-weight="bold" font-size="9.00">dist</text>
</g>
<g id="clust6" class="cluster">
<title>cluster_packages/UI/piano&#45;roll/chord&#45;view</title>
<path fill="#ffffff" stroke="black" stroke-width="2" d="M640,-220C640,-220 702,-220 702,-220 708,-220 714,-226 714,-232 714,-232 714,-294 714,-294 714,-300 708,-306 702,-306 702,-306 640,-306 640,-306 634,-306 628,-300 628,-294 628,-294 628,-232 628,-232 628,-226 634,-220 640,-220"/>
<text text-anchor="middle" x="671" y="-294.8" font-family="Helvetica,sans-Serif" font-weight="bold" font-size="9.00">chord&#45;view</text>
</g>
<g id="clust7" class="cluster">
<title>cluster_packages/UI/piano&#45;roll/chord&#45;view/dist</title>
<path fill="#ffffff" stroke="black" stroke-width="2" d="M648,-228C648,-228 694,-228 694,-228 700,-228 706,-234 706,-240 706,-240 706,-268 706,-268 706,-274 700,-280 694,-280 694,-280 648,-280 648,-280 642,-280 636,-274 636,-268 636,-268 636,-240 636,-240 636,-234 642,-228 648,-228"/>
<text text-anchor="middle" x="671" y="-268.8" font-family="Helvetica,sans-Serif" font-weight="bold" font-size="9.00">dist</text>
</g>
<g id="clust8" class="cluster">
<title>cluster_packages/UI/piano&#45;roll/melody&#45;view</title>
<path fill="#ffffff" stroke="black" stroke-width="2" d="M640,-126C640,-126 702,-126 702,-126 708,-126 714,-132 714,-138 714,-138 714,-200 714,-200 714,-206 708,-212 702,-212 702,-212 640,-212 640,-212 634,-212 628,-206 628,-200 628,-200 628,-138 628,-138 628,-132 634,-126 640,-126"/>
<text text-anchor="middle" x="671" y="-200.8" font-family="Helvetica,sans-Serif" font-weight="bold" font-size="9.00">melody&#45;view</text>
</g>
<g id="clust9" class="cluster">
<title>cluster_packages/UI/piano&#45;roll/melody&#45;view/dist</title>
<path fill="#ffffff" stroke="black" stroke-width="2" d="M648,-134C648,-134 694,-134 694,-134 700,-134 706,-140 706,-146 706,-146 706,-174 706,-174 706,-180 700,-186 694,-186 694,-186 648,-186 648,-186 642,-186 636,-180 636,-174 636,-174 636,-146 636,-146 636,-140 642,-134 648,-134"/>
<text text-anchor="middle" x="671" y="-174.8" font-family="Helvetica,sans-Serif" font-weight="bold" font-size="9.00">dist</text>
</g>
<g id="clust10" class="cluster">
<title>cluster_packages/UI/piano&#45;roll/piano&#45;roll</title>
<path fill="#ffffff" stroke="black" stroke-width="2" d="M44,-192C44,-192 556,-192 556,-192 562,-192 568,-198 568,-204 568,-204 568,-294 568,-294 568,-300 562,-306 556,-306 556,-306 44,-306 44,-306 38,-306 32,-300 32,-294 32,-294 32,-204 32,-204 32,-198 38,-192 44,-192"/>
<text text-anchor="middle" x="300" y="-294.8" font-family="Helvetica,sans-Serif" font-weight="bold" font-size="9.00">piano&#45;roll</text>
</g>
<g id="clust11" class="cluster">
<title>cluster_packages/UI/piano&#45;roll/piano&#45;roll/src</title>
<path fill="#ffffff" stroke="black" stroke-width="2" d="M114,-200C114,-200 548,-200 548,-200 554,-200 560,-206 560,-212 560,-212 560,-268 560,-268 560,-274 554,-280 548,-280 548,-280 114,-280 114,-280 108,-280 102,-274 102,-268 102,-268 102,-212 102,-212 102,-206 108,-200 114,-200"/>
<text text-anchor="middle" x="331" y="-268.8" font-family="Helvetica,sans-Serif" font-weight="bold" font-size="9.00">src</text>
</g>
<g id="clust12" class="cluster">
<title>cluster_packages/UI/svg&#45;objects</title>
<path fill="#ffffff" stroke="black" stroke-width="2" d="M296,-340C296,-340 358,-340 358,-340 364,-340 370,-346 370,-352 370,-352 370,-414 370,-414 370,-420 364,-426 358,-426 358,-426 296,-426 296,-426 290,-426 284,-420 284,-414 284,-414 284,-352 284,-352 284,-346 290,-340 296,-340"/>
<text text-anchor="middle" x="327" y="-414.8" font-family="Helvetica,sans-Serif" font-weight="bold" font-size="9.00">svg&#45;objects</text>
</g>
<g id="clust13" class="cluster">
<title>cluster_packages/UI/svg&#45;objects/dist</title>
<path fill="#ffffff" stroke="black" stroke-width="2" d="M304,-348C304,-348 350,-348 350,-348 356,-348 362,-354 362,-360 362,-360 362,-388 362,-388 362,-394 356,-400 350,-400 350,-400 304,-400 304,-400 298,-400 292,-394 292,-388 292,-388 292,-360 292,-360 292,-354 298,-348 304,-348"/>
<text text-anchor="middle" x="327" y="-388.8" font-family="Helvetica,sans-Serif" font-weight="bold" font-size="9.00">dist</text>
</g>
<g id="clust14" class="cluster">
<title>cluster_packages/UI/view&#45;parameters</title>
<path fill="#ffffff" stroke="black" stroke-width="2" d="M288,-528C288,-528 367,-528 367,-528 373,-528 379,-534 379,-540 379,-540 379,-602 379,-602 379,-608 373,-614 367,-614 367,-614 288,-614 288,-614 282,-614 276,-608 276,-602 276,-602 276,-540 276,-540 276,-534 282,-528 288,-528"/>
<text text-anchor="middle" x="327.5" y="-602.8" font-family="Helvetica,sans-Serif" font-weight="bold" font-size="9.00">view&#45;parameters</text>
</g>
<g id="clust15" class="cluster">
<title>cluster_packages/UI/view&#45;parameters/dist</title>
<path fill="#ffffff" stroke="black" stroke-width="2" d="M304,-536C304,-536 350,-536 350,-536 356,-536 362,-542 362,-548 362,-548 362,-576 362,-576 362,-582 356,-588 350,-588 350,-588 304,-588 304,-588 298,-588 292,-582 292,-576 292,-576 292,-548 292,-548 292,-542 298,-536 304,-536"/>
<text text-anchor="middle" x="327" y="-576.8" font-family="Helvetica,sans-Serif" font-weight="bold" font-size="9.00">dist</text>
</g>
<g id="clust16" class="cluster">
<title>cluster_packages/UI/view</title>
<path fill="#ffffff" stroke="black" stroke-width="2" d="M296,-434C296,-434 358,-434 358,-434 364,-434 370,-440 370,-446 370,-446 370,-508 370,-508 370,-514 364,-520 358,-520 358,-520 296,-520 296,-520 290,-520 284,-514 284,-508 284,-508 284,-446 284,-446 284,-440 290,-434 296,-434"/>
<text text-anchor="middle" x="327" y="-508.8" font-family="Helvetica,sans-Serif" font-weight="bold" font-size="9.00">view</text>
</g>
<g id="clust17" class="cluster">
<title>cluster_packages/UI/view/dist</title>
<path fill="#ffffff" stroke="black" stroke-width="2" d="M304,-442C304,-442 350,-442 350,-442 356,-442 362,-448 362,-454 362,-454 362,-482 362,-482 362,-488 356,-494 350,-494 350,-494 304,-494 304,-494 298,-494 292,-488 292,-482 292,-482 292,-454 292,-454 292,-448 298,-442 304,-442"/>
<text text-anchor="middle" x="327" y="-482.8" font-family="Helvetica,sans-Serif" font-weight="bold" font-size="9.00">dist</text>
</g>
<g id="clust18" class="cluster">
<title>cluster_packages/music&#45;structure</title>
<path fill="#ffffff" stroke="black" stroke-width="2" d="M618,-648C618,-648 724,-648 724,-648 730,-648 736,-654 736,-660 736,-660 736,-1046 736,-1046 736,-1052 730,-1058 724,-1058 724,-1058 618,-1058 618,-1058 612,-1058 606,-1052 606,-1046 606,-1046 606,-660 606,-660 606,-654 612,-648 618,-648"/>
<text text-anchor="middle" x="671" y="-1046.8" font-family="Helvetica,sans-Serif" font-weight="bold" font-size="9.00">music&#45;structure</text>
</g>
<g id="clust19" class="cluster">
<title>cluster_packages/music&#45;structure/beat</title>
<path fill="#ffffff" stroke="black" stroke-width="2" d="M626,-912C626,-912 716,-912 716,-912 722,-912 728,-918 728,-924 728,-924 728,-1020 728,-1020 728,-1026 722,-1032 716,-1032 716,-1032 626,-1032 626,-1032 620,-1032 614,-1026 614,-1020 614,-1020 614,-924 614,-924 614,-918 620,-912 626,-912"/>
<text text-anchor="middle" x="671" y="-1020.8" font-family="Helvetica,sans-Serif" font-weight="bold" font-size="9.00">beat</text>
</g>
<g id="clust20" class="cluster">
<title>cluster_packages/music&#45;structure/beat/beat&#45;estimation</title>
<path fill="#ffffff" stroke="black" stroke-width="2" d="M634,-920C634,-920 708,-920 708,-920 714,-920 720,-926 720,-932 720,-932 720,-994 720,-994 720,-1000 714,-1006 708,-1006 708,-1006 634,-1006 634,-1006 628,-1006 622,-1000 622,-994 622,-994 622,-932 622,-932 622,-926 628,-920 634,-920"/>
<text text-anchor="middle" x="671" y="-994.8" font-family="Helvetica,sans-Serif" font-weight="bold" font-size="9.00">beat&#45;estimation</text>
</g>
<g id="clust21" class="cluster">
<title>cluster_packages/music&#45;structure/beat/beat&#45;estimation/dist</title>
<path fill="#ffffff" stroke="black" stroke-width="2" d="M648,-928C648,-928 694,-928 694,-928 700,-928 706,-934 706,-940 706,-940 706,-968 706,-968 706,-974 700,-980 694,-980 694,-980 648,-980 648,-980 642,-980 636,-974 636,-968 636,-968 636,-940 636,-940 636,-934 642,-928 648,-928"/>
<text text-anchor="middle" x="671" y="-968.8" font-family="Helvetica,sans-Serif" font-weight="bold" font-size="9.00">dist</text>
</g>
<g id="clust22" class="cluster">
<title>cluster_packages/music&#45;structure/chord</title>
<path fill="#ffffff" stroke="black" stroke-width="2" d="M631,-784C631,-784 712,-784 712,-784 718,-784 724,-790 724,-796 724,-796 724,-892 724,-892 724,-898 718,-904 712,-904 712,-904 631,-904 631,-904 625,-904 619,-898 619,-892 619,-892 619,-796 619,-796 619,-790 625,-784 631,-784"/>
<text text-anchor="middle" x="671.5" y="-892.8" font-family="Helvetica,sans-Serif" font-weight="bold" font-size="9.00">chord</text>
</g>
<g id="clust23" class="cluster">
<title>cluster_packages/music&#45;structure/chord/chord&#45;analyze</title>
<path fill="#ffffff" stroke="black" stroke-width="2" d="M639,-792C639,-792 704,-792 704,-792 710,-792 716,-798 716,-804 716,-804 716,-866 716,-866 716,-872 710,-878 704,-878 704,-878 639,-878 639,-878 633,-878 627,-872 627,-866 627,-866 627,-804 627,-804 627,-798 633,-792 639,-792"/>
<text text-anchor="middle" x="671.5" y="-866.8" font-family="Helvetica,sans-Serif" font-weight="bold" font-size="9.00">chord&#45;analyze</text>
</g>
<g id="clust24" class="cluster">
<title>cluster_packages/music&#45;structure/chord/chord&#45;analyze/dist</title>
<path fill="#ffffff" stroke="black" stroke-width="2" d="M648,-800C648,-800 694,-800 694,-800 700,-800 706,-806 706,-812 706,-812 706,-840 706,-840 706,-846 700,-852 694,-852 694,-852 648,-852 648,-852 642,-852 636,-846 636,-840 636,-840 636,-812 636,-812 636,-806 642,-800 648,-800"/>
<text text-anchor="middle" x="671" y="-840.8" font-family="Helvetica,sans-Serif" font-weight="bold" font-size="9.00">dist</text>
</g>
<g id="clust25" class="cluster">
<title>cluster_packages/music&#45;structure/melody</title>
<path fill="#ffffff" stroke="black" stroke-width="2" d="M627,-656C627,-656 716,-656 716,-656 722,-656 728,-662 728,-668 728,-668 728,-764 728,-764 728,-770 722,-776 716,-776 716,-776 627,-776 627,-776 621,-776 615,-770 615,-764 615,-764 615,-668 615,-668 615,-662 621,-656 627,-656"/>
<text text-anchor="middle" x="671.5" y="-764.8" font-family="Helvetica,sans-Serif" font-weight="bold" font-size="9.00">melody</text>
</g>
<g id="clust26" class="cluster">
<title>cluster_packages/music&#45;structure/melody/melody&#45;analyze</title>
<path fill="#ffffff" stroke="black" stroke-width="2" d="M635,-664C635,-664 708,-664 708,-664 714,-664 720,-670 720,-676 720,-676 720,-738 720,-738 720,-744 714,-750 708,-750 708,-750 635,-750 635,-750 629,-750 623,-744 623,-738 623,-738 623,-676 623,-676 623,-670 629,-664 635,-664"/>
<text text-anchor="middle" x="671.5" y="-738.8" font-family="Helvetica,sans-Serif" font-weight="bold" font-size="9.00">melody&#45;analyze</text>
</g>
<g id="clust27" class="cluster">
<title>cluster_packages/music&#45;structure/melody/melody&#45;analyze/dist</title>
<path fill="#ffffff" stroke="black" stroke-width="2" d="M648,-672C648,-672 694,-672 694,-672 700,-672 706,-678 706,-684 706,-684 706,-712 706,-712 706,-718 700,-724 694,-724 694,-724 648,-724 648,-724 642,-724 636,-718 636,-712 636,-712 636,-684 636,-684 636,-678 642,-672 648,-672"/>
<text text-anchor="middle" x="671" y="-712.8" font-family="Helvetica,sans-Serif" font-weight="bold" font-size="9.00">dist</text>
</g>
<!-- packages/UI/piano&#45;roll/beat&#45;view/dist/index.js -->
<g id="node1" class="node">
<title>packages/UI/piano&#45;roll/beat&#45;view/dist/index.js</title>
<g id="a_node1"><a xlink:href="packages/UI/piano-roll/beat-view/dist/index.js" xlink:title="index.js">
<polygon fill="#ffffcc" stroke="black" points="698,-66 696.5,-68 686,-68 684.5,-66 644,-66 644,-48 698,-48 698,-66"/>
<text text-anchor="start" x="653.5" y="-54.8" font-family="Helvetica,sans-Serif" font-size="9.00">index.js</text>
</a>
</g>
</g>
<!-- packages/UI/piano&#45;roll/chord&#45;view/dist/index.js -->
<g id="node2" class="node">
<title>packages/UI/piano&#45;roll/chord&#45;view/dist/index.js</title>
<g id="a_node2"><a xlink:href="packages/UI/piano-roll/chord-view/dist/index.js" xlink:title="index.js">
<polygon fill="#ffffcc" stroke="black" points="698,-254 696.5,-256 686,-256 684.5,-254 644,-254 644,-236 698,-236 698,-254"/>
<text text-anchor="start" x="653.5" y="-242.8" font-family="Helvetica,sans-Serif" font-size="9.00">index.js</text>
</a>
</g>
</g>
<!-- packages/UI/piano&#45;roll/melody&#45;view/dist/index.js -->
<g id="node3" class="node">
<title>packages/UI/piano&#45;roll/melody&#45;view/dist/index.js</title>
<g id="a_node3"><a xlink:href="packages/UI/piano-roll/melody-view/dist/index.js" xlink:title="index.js">
<polygon fill="#ffffcc" stroke="black" points="698,-160 696.5,-162 686,-162 684.5,-160 644,-160 644,-142 698,-142 698,-160"/>
<text text-anchor="start" x="653.5" y="-148.8" font-family="Helvetica,sans-Serif" font-size="9.00">index.js</text>
</a>
</g>
</g>
<!-- packages/UI/piano&#45;roll/piano&#45;roll/index.ts -->
<g id="node4" class="node">
<title>packages/UI/piano&#45;roll/piano&#45;roll/index.ts</title>
<g id="a_node4"><a xlink:href="packages/UI/piano-roll/piano-roll/index.ts" xlink:title="index.ts">
<path fill="#ddfeff" stroke="black" d="M88,-232C88,-232 46,-232 46,-232 43,-232 40,-229 40,-226 40,-226 40,-220 40,-220 40,-217 43,-214 46,-214 46,-214 88,-214 88,-214 91,-214 94,-217 94,-220 94,-220 94,-226 94,-226 94,-229 91,-232 88,-232"/>
<text text-anchor="start" x="48.5" y="-220.8" font-family="Helvetica,sans-Serif" font-size="9.00">index.ts</text>
</a>
</g>
</g>
<!-- packages/UI/piano&#45;roll/piano&#45;roll/src/index.ts -->
<g id="node5" class="node">
<title>packages/UI/piano&#45;roll/piano&#45;roll/src/index.ts</title>
<g id="a_node5"><a xlink:href="packages/UI/piano-roll/piano-roll/src/index.ts" xlink:title="index.ts">
<path fill="#ddfeff" stroke="black" d="M158,-232C158,-232 116,-232 116,-232 113,-232 110,-229 110,-226 110,-226 110,-220 110,-220 110,-217 113,-214 116,-214 116,-214 158,-214 158,-214 161,-214 164,-217 164,-220 164,-220 164,-226 164,-226 164,-229 161,-232 158,-232"/>
<text text-anchor="start" x="118.5" y="-220.8" font-family="Helvetica,sans-Serif" font-size="9.00">index.ts</text>
</a>
</g>
</g>
<!-- packages/UI/piano&#45;roll/piano&#45;roll/index.ts&#45;&gt;packages/UI/piano&#45;roll/piano&#45;roll/src/index.ts -->
<g id="edge1" class="edge">
<title>packages/UI/piano&#45;roll/piano&#45;roll/index.ts&#45;&gt;packages/UI/piano&#45;roll/piano&#45;roll/src/index.ts</title>
<path fill="none" stroke="#000000" stroke-width="2" stroke-opacity="0.200000" d="M94.1,-223C97.12,-223 100.23,-223 103.33,-223"/>
<polygon fill="#000000" fill-opacity="0.200000" stroke="#000000" stroke-width="2" stroke-opacity="0.200000" points="109.64,-225.1 103.64,-223 109.64,-220.9 109.64,-225.1"/>
</g>
<!-- packages/UI/piano&#45;roll/piano&#45;roll/src/analysis&#45;view.ts -->
<g id="node6" class="node">
<title>packages/UI/piano&#45;roll/piano&#45;roll/src/analysis&#45;view.ts</title>
<g id="a_node6"><a xlink:href="packages/UI/piano-roll/piano-roll/src/analysis-view.ts" xlink:title="analysis&#45;view.ts">
<path fill="#ddfeff" stroke="black" d="M364,-240C364,-240 290,-240 290,-240 287,-240 284,-237 284,-234 284,-234 284,-228 284,-228 284,-225 287,-222 290,-222 290,-222 364,-222 364,-222 367,-222 370,-225 370,-228 370,-228 370,-234 370,-234 370,-237 367,-240 364,-240"/>
<text text-anchor="start" x="292" y="-228.8" font-family="Helvetica,sans-Serif" font-size="9.00">analysis&#45;view.ts</text>
</a>
</g>
</g>
<!-- packages/UI/piano&#45;roll/piano&#45;roll/src/index.ts&#45;&gt;packages/UI/piano&#45;roll/piano&#45;roll/src/analysis&#45;view.ts -->
<g id="edge3" class="edge">
<title>packages/UI/piano&#45;roll/piano&#45;roll/src/index.ts&#45;&gt;packages/UI/piano&#45;roll/piano&#45;roll/src/analysis&#45;view.ts</title>
<path fill="none" stroke="#000000" stroke-width="2" stroke-opacity="0.200000" d="M164.22,-224.15C193.71,-225.39 241.38,-227.39 277.53,-228.92"/>
<polygon fill="#000000" fill-opacity="0.200000" stroke="#000000" stroke-width="2" stroke-opacity="0.200000" points="283.59,-231.27 277.68,-228.92 283.77,-227.08 283.59,-231.27"/>
</g>
<!-- packages/UI/piano&#45;roll/piano&#45;roll/src/music&#45;structure&#45;elements.ts -->
<g id="node7" class="node">
<title>packages/UI/piano&#45;roll/piano&#45;roll/src/music&#45;structure&#45;elements.ts</title>
<g id="a_node7"><a xlink:href="packages/UI/piano-roll/piano-roll/src/music-structure-elements.ts" xlink:title="music&#45;structure&#45;elements.ts">
<path fill="#ddfeff" stroke="black" d="M546,-254C546,-254 414,-254 414,-254 411,-254 408,-251 408,-248 408,-248 408,-242 408,-242 408,-239 411,-236 414,-236 414,-236 546,-236 546,-236 549,-236 552,-239 552,-242 552,-242 552,-248 552,-248 552,-251 549,-254 546,-254"/>
<text text-anchor="start" x="416" y="-242.8" font-family="Helvetica,sans-Serif" font-size="9.00">music&#45;structure&#45;elements.ts</text>
</a>
</g>
</g>
<!-- packages/UI/piano&#45;roll/piano&#45;roll/src/index.ts&#45;&gt;packages/UI/piano&#45;roll/piano&#45;roll/src/music&#45;structure&#45;elements.ts -->
<g id="edge4" class="edge">
<title>packages/UI/piano&#45;roll/piano&#45;roll/src/index.ts&#45;&gt;packages/UI/piano&#45;roll/piano&#45;roll/src/music&#45;structure&#45;elements.ts</title>
<path fill="none" stroke="#000000" stroke-width="2" stroke-opacity="0.200000" d="M164.2,-224.74C214.91,-228 325.59,-235.1 401.47,-239.96"/>
<polygon fill="#000000" fill-opacity="0.200000" stroke="#000000" stroke-width="2" stroke-opacity="0.200000" points="407.65,-242.46 401.8,-239.98 407.92,-238.27 407.65,-242.46"/>
</g>
<!-- packages/UI/piano&#45;roll/piano&#45;roll/src/piano&#45;roll.ts -->
<g id="node8" class="node">
<title>packages/UI/piano&#45;roll/piano&#45;roll/src/piano&#45;roll.ts</title>
<g id="a_node8"><a xlink:href="packages/UI/piano-roll/piano-roll/src/piano-roll.ts" xlink:title="piano&#45;roll.ts">
<path fill="#ddfeff" stroke="black" d="M241,-254C241,-254 183,-254 183,-254 180,-254 177,-251 177,-248 177,-248 177,-242 177,-242 177,-239 180,-236 183,-236 183,-236 241,-236 241,-236 244,-236 247,-239 247,-242 247,-242 247,-248 247,-248 247,-251 244,-254 241,-254"/>
<text text-anchor="start" x="185" y="-242.8" font-family="Helvetica,sans-Serif" font-size="9.00">piano&#45;roll.ts</text>
</a>
</g>
</g>
<!-- packages/UI/piano&#45;roll/piano&#45;roll/src/index.ts&#45;&gt;packages/UI/piano&#45;roll/piano&#45;roll/src/piano&#45;roll.ts -->
<g id="edge5" class="edge">
<title>packages/UI/piano&#45;roll/piano&#45;roll/src/index.ts&#45;&gt;packages/UI/piano&#45;roll/piano&#45;roll/src/piano&#45;roll.ts</title>
<path fill="none" stroke="#000000" stroke-width="2" stroke-opacity="0.200000" d="M164.35,-230.94C167.81,-231.98 171.39,-233.06 174.97,-234.14"/>
<polygon fill="#000000" fill-opacity="0.200000" stroke="#000000" stroke-width="2" stroke-opacity="0.200000" points="180.36,-237.96 175.22,-234.22 181.57,-233.94 180.36,-237.96"/>
</g>
<!-- packages/UI/piano&#45;roll/piano&#45;roll/src/analysis&#45;view.ts&#45;&gt;packages/UI/piano&#45;roll/piano&#45;roll/src/music&#45;structure&#45;elements.ts -->
<g id="edge2" class="edge">
<title>packages/UI/piano&#45;roll/piano&#45;roll/src/analysis&#45;view.ts&#45;&gt;packages/UI/piano&#45;roll/piano&#45;roll/src/music&#45;structure&#45;elements.ts</title>
<path fill="none" stroke="#000000" stroke-width="2" stroke-opacity="0.200000" d="M370.06,-234.9C380,-235.82 390.91,-236.83 401.87,-237.85"/>
<polygon fill="#000000" fill-opacity="0.200000" stroke="#000000" stroke-width="2" stroke-opacity="0.200000" points="401.78,-239.95 407.95,-238.41 402.17,-235.77 401.78,-239.95"/>
</g>
<!-- packages/UI/piano&#45;roll/piano&#45;roll/src/music&#45;structure&#45;elements.ts&#45;&gt;packages/UI/piano&#45;roll/beat&#45;view/dist/index.js -->
<g id="edge7" class="edge">
<title>packages/UI/piano&#45;roll/piano&#45;roll/src/music&#45;structure&#45;elements.ts&#45;&gt;packages/UI/piano&#45;roll/beat&#45;view/dist/index.js</title>
<path fill="none" stroke="#000000" stroke-width="2" stroke-opacity="0.200000" d="M490.12,-235.93C520.6,-205.61 619.15,-107.58 655.96,-70.97"/>
<polygon fill="#000000" fill-opacity="0.200000" stroke="#000000" stroke-width="2" stroke-opacity="0.200000" points="657.76,-72.14 660.53,-66.42 654.8,-69.16 657.76,-72.14"/>
</g>
<!-- packages/UI/piano&#45;roll/piano&#45;roll/src/music&#45;structure&#45;elements.ts&#45;&gt;packages/UI/piano&#45;roll/chord&#45;view/dist/index.js -->
<g id="edge9" class="edge">
<title>packages/UI/piano&#45;roll/piano&#45;roll/src/music&#45;structure&#45;elements.ts&#45;&gt;packages/UI/piano&#45;roll/chord&#45;view/dist/index.js</title>
<path fill="none" stroke="#000000" stroke-width="2" stroke-opacity="0.200000" d="M552.18,-245C581.58,-245 614.18,-245 637.62,-245"/>
<polygon fill="#000000" fill-opacity="0.200000" stroke="#000000" stroke-width="2" stroke-opacity="0.200000" points="637.68,-247.1 643.68,-245 637.68,-242.9 637.68,-247.1"/>
</g>
<!-- packages/UI/piano&#45;roll/piano&#45;roll/src/music&#45;structure&#45;elements.ts&#45;&gt;packages/UI/piano&#45;roll/melody&#45;view/dist/index.js -->
<g id="edge11" class="edge">
<title>packages/UI/piano&#45;roll/piano&#45;roll/src/music&#45;structure&#45;elements.ts&#45;&gt;packages/UI/piano&#45;roll/melody&#45;view/dist/index.js</title>
<path fill="none" stroke="#000000" stroke-width="2" stroke-opacity="0.200000" d="M499.12,-235.99C533.47,-218.91 608.01,-181.83 646.28,-162.8"/>
<polygon fill="#000000" fill-opacity="0.200000" stroke="#000000" stroke-width="2" stroke-opacity="0.200000" points="647.22,-164.68 651.66,-160.12 645.35,-160.92 647.22,-164.68"/>
</g>
<!-- packages/music&#45;structure/beat/beat&#45;estimation/dist/index.js -->
<g id="node9" class="node">
<title>packages/music&#45;structure/beat/beat&#45;estimation/dist/index.js</title>
<g id="a_node9"><a xlink:href="packages/music-structure/beat/beat-estimation/dist/index.js" xlink:title="index.js">
<polygon fill="#ffffcc" stroke="black" points="698,-954 696.5,-956 686,-956 684.5,-954 644,-954 644,-936 698,-936 698,-954"/>
<text text-anchor="start" x="653.5" y="-942.8" font-family="Helvetica,sans-Serif" font-size="9.00">index.js</text>
</a>
</g>
</g>
<!-- packages/UI/piano&#45;roll/piano&#45;roll/src/music&#45;structure&#45;elements.ts&#45;&gt;packages/music&#45;structure/beat/beat&#45;estimation/dist/index.js -->
<g id="edge6" class="edge">
<title>packages/UI/piano&#45;roll/piano&#45;roll/src/music&#45;structure&#45;elements.ts&#45;&gt;packages/music&#45;structure/beat/beat&#45;estimation/dist/index.js</title>
<path fill="none" stroke="#000000" stroke-width="2" stroke-opacity="0.200000" d="M483.46,-254.11C503.55,-328.52 640.62,-836.2 665.97,-930.08"/>
<polygon fill="#000000" fill-opacity="0.200000" stroke="#000000" stroke-width="2" stroke-opacity="0.200000" points="663.95,-930.64 667.54,-935.89 668,-929.55 663.95,-930.64"/>
</g>
<!-- packages/music&#45;structure/chord/chord&#45;analyze/dist/index.js -->
<g id="node10" class="node">
<title>packages/music&#45;structure/chord/chord&#45;analyze/dist/index.js</title>
<g id="a_node10"><a xlink:href="packages/music-structure/chord/chord-analyze/dist/index.js" xlink:title="index.js">
<polygon fill="#ffffcc" stroke="black" points="698,-826 696.5,-828 686,-828 684.5,-826 644,-826 644,-808 698,-808 698,-826"/>
<text text-anchor="start" x="653.5" y="-814.8" font-family="Helvetica,sans-Serif" font-size="9.00">index.js</text>
</a>
</g>
</g>
<!-- packages/UI/piano&#45;roll/piano&#45;roll/src/music&#45;structure&#45;elements.ts&#45;&gt;packages/music&#45;structure/chord/chord&#45;analyze/dist/index.js -->
<g id="edge8" class="edge">
<title>packages/UI/piano&#45;roll/piano&#45;roll/src/music&#45;structure&#45;elements.ts&#45;&gt;packages/music&#45;structure/chord/chord&#45;analyze/dist/index.js</title>
<path fill="none" stroke="#000000" stroke-width="2" stroke-opacity="0.200000" d="M484.12,-254.45C506.11,-320.99 637.53,-718.74 664.98,-801.8"/>
<polygon fill="#000000" fill-opacity="0.200000" stroke="#000000" stroke-width="2" stroke-opacity="0.200000" points="663.03,-802.6 666.91,-807.64 667.02,-801.29 663.03,-802.6"/>
</g>
<!-- packages/music&#45;structure/melody/melody&#45;analyze/dist/index.js -->
<g id="node11" class="node">
<title>packages/music&#45;structure/melody/melody&#45;analyze/dist/index.js</title>
<g id="a_node11"><a xlink:href="packages/music-structure/melody/melody-analyze/dist/index.js" xlink:title="index.js">
<polygon fill="#ffffcc" stroke="black" points="698,-698 696.5,-700 686,-700 684.5,-698 644,-698 644,-680 698,-680 698,-698"/>
<text text-anchor="start" x="653.5" y="-686.8" font-family="Helvetica,sans-Serif" font-size="9.00">index.js</text>
</a>
</g>
</g>
<!-- packages/UI/piano&#45;roll/piano&#45;roll/src/music&#45;structure&#45;elements.ts&#45;&gt;packages/music&#45;structure/melody/melody&#45;analyze/dist/index.js -->
<g id="edge10" class="edge">
<title>packages/UI/piano&#45;roll/piano&#45;roll/src/music&#45;structure&#45;elements.ts&#45;&gt;packages/music&#45;structure/melody/melody&#45;analyze/dist/index.js</title>
<path fill="none" stroke="#000000" stroke-width="2" stroke-opacity="0.200000" d="M484.95,-254.27C508.82,-310.36 633.9,-604.19 663.65,-674.07"/>
<polygon fill="#000000" fill-opacity="0.200000" stroke="#000000" stroke-width="2" stroke-opacity="0.200000" points="661.79,-675.08 666.07,-679.78 665.66,-673.43 661.79,-675.08"/>
</g>
<!-- packages/UI/piano&#45;roll/piano&#45;roll/src/piano&#45;roll.ts&#45;&gt;packages/UI/piano&#45;roll/chord&#45;view/dist/index.js -->
<g id="edge14" class="edge">
<title>packages/UI/piano&#45;roll/piano&#45;roll/src/piano&#45;roll.ts&#45;&gt;packages/UI/piano&#45;roll/chord&#45;view/dist/index.js</title>
<path fill="none" stroke="#000000" stroke-width="2" stroke-opacity="0.200000" d="M247.25,-245C333.47,-245 554.05,-245 637.94,-245"/>
<polygon fill="#000000" fill-opacity="0.200000" stroke="#000000" stroke-width="2" stroke-opacity="0.200000" points="637.98,-247.1 643.98,-245 637.98,-242.9 637.98,-247.1"/>
</g>
<!-- packages/UI/piano&#45;roll/piano&#45;roll/src/piano&#45;roll.ts&#45;&gt;packages/UI/piano&#45;roll/piano&#45;roll/src/analysis&#45;view.ts -->
<g id="edge12" class="edge">
<title>packages/UI/piano&#45;roll/piano&#45;roll/src/piano&#45;roll.ts&#45;&gt;packages/UI/piano&#45;roll/piano&#45;roll/src/analysis&#45;view.ts</title>
<path fill="none" stroke="#000000" stroke-width="2" stroke-opacity="0.200000" d="M247.21,-240.76C256.88,-239.56 267.58,-238.24 277.9,-236.96"/>
<polygon fill="#000000" fill-opacity="0.200000" stroke="#000000" stroke-width="2" stroke-opacity="0.200000" points="278.22,-239.04 283.92,-236.21 277.71,-234.87 278.22,-239.04"/>
</g>
<!-- packages/UI/piano&#45;roll/piano&#45;roll/src/piano&#45;roll.ts&#45;&gt;packages/UI/piano&#45;roll/piano&#45;roll/src/music&#45;structure&#45;elements.ts -->
<g id="edge13" class="edge">
<title>packages/UI/piano&#45;roll/piano&#45;roll/src/piano&#45;roll.ts&#45;&gt;packages/UI/piano&#45;roll/piano&#45;roll/src/music&#45;structure&#45;elements.ts</title>
<path fill="none" stroke="#000000" stroke-width="2" stroke-opacity="0.200000" d="M247.04,-245C286.1,-245 350.51,-245 401.72,-245"/>
<polygon fill="#000000" fill-opacity="0.200000" stroke="#000000" stroke-width="2" stroke-opacity="0.200000" points="401.89,-247.1 407.89,-245 401.89,-242.9 401.89,-247.1"/>
</g>
<!-- packages/UI/svg&#45;objects/dist/index.js -->
<g id="node12" class="node">
<title>packages/UI/svg&#45;objects/dist/index.js</title>
<g id="a_node12"><a xlink:href="packages/UI/svg-objects/dist/index.js" xlink:title="index.js">
<polygon fill="#ffffcc" stroke="black" points="354,-374 352.5,-376 342,-376 340.5,-374 300,-374 300,-356 354,-356 354,-374"/>
<text text-anchor="start" x="309.5" y="-362.8" font-family="Helvetica,sans-Serif" font-size="9.00">index.js</text>
</a>
</g>
</g>
<!-- packages/UI/piano&#45;roll/piano&#45;roll/src/piano&#45;roll.ts&#45;&gt;packages/UI/svg&#45;objects/dist/index.js -->
<g id="edge15" class="edge">
<title>packages/UI/piano&#45;roll/piano&#45;roll/src/piano&#45;roll.ts&#45;&gt;packages/UI/svg&#45;objects/dist/index.js</title>
<path fill="none" stroke="#000000" stroke-width="2" stroke-opacity="0.200000" d="M221.49,-254.02C241.13,-274.87 289.75,-326.51 313.09,-351.29"/>
<polygon fill="#000000" fill-opacity="0.200000" stroke="#000000" stroke-width="2" stroke-opacity="0.200000" points="311.77,-352.95 317.41,-355.88 314.82,-350.07 311.77,-352.95"/>
</g>
<!-- packages/UI/view/dist/index.js -->
<g id="node13" class="node">
<title>packages/UI/view/dist/index.js</title>
<g id="a_node13"><a xlink:href="packages/UI/view/dist/index.js" xlink:title="index.js">
<polygon fill="#ffffcc" stroke="black" points="354,-468 352.5,-470 342,-470 340.5,-468 300,-468 300,-450 354,-450 354,-468"/>
<text text-anchor="start" x="309.5" y="-456.8" font-family="Helvetica,sans-Serif" font-size="9.00">index.js</text>
</a>
</g>
</g>
<!-- packages/UI/piano&#45;roll/piano&#45;roll/src/piano&#45;roll.ts&#45;&gt;packages/UI/view/dist/index.js -->
<g id="edge16" class="edge">
<title>packages/UI/piano&#45;roll/piano&#45;roll/src/piano&#45;roll.ts&#45;&gt;packages/UI/view/dist/index.js</title>
<path fill="none" stroke="#000000" stroke-width="2" stroke-opacity="0.200000" d="M217.86,-254.2C235.49,-287.59 296.26,-402.69 318.11,-444.05"/>
<polygon fill="#000000" fill-opacity="0.200000" stroke="#000000" stroke-width="2" stroke-opacity="0.200000" points="316.38,-445.27 321.04,-449.6 320.09,-443.31 316.38,-445.27"/>
</g>
<!-- packages/UI/view&#45;parameters/dist/index.js -->
<g id="node14" class="node">
<title>packages/UI/view&#45;parameters/dist/index.js</title>
<g id="a_node14"><a xlink:href="packages/UI/view-parameters/dist/index.js" xlink:title="index.js">
<polygon fill="#ffffcc" stroke="black" points="354,-562 352.5,-564 342,-564 340.5,-562 300,-562 300,-544 354,-544 354,-562"/>
<text text-anchor="start" x="309.5" y="-550.8" font-family="Helvetica,sans-Serif" font-size="9.00">index.js</text>
</a>
</g>
</g>
<!-- packages/UI/piano&#45;roll/piano&#45;roll/src/piano&#45;roll.ts&#45;&gt;packages/UI/view&#45;parameters/dist/index.js -->
<g id="edge17" class="edge">
<title>packages/UI/piano&#45;roll/piano&#45;roll/src/piano&#45;roll.ts&#45;&gt;packages/UI/view&#45;parameters/dist/index.js</title>
<path fill="none" stroke="#000000" stroke-width="2" stroke-opacity="0.200000" d="M216.38,-254.22C232.4,-297.88 300.68,-484 320.56,-538.16"/>
<polygon fill="#000000" fill-opacity="0.200000" stroke="#000000" stroke-width="2" stroke-opacity="0.200000" points="318.59,-538.91 322.63,-543.82 322.54,-537.46 318.59,-538.91"/>
</g>
</g>
</svg>
