<?xml version="1.0" encoding="UTF-8" standalone="no"?>
<!DOCTYPE svg PUBLIC "-//W3C//DTD SVG 1.1//EN"
 "http://www.w3.org/Graphics/SVG/1.1/DTD/svg11.dtd">
<!-- Generated by graphviz version 2.43.0 (0)
 -->
<!-- Title: dependency&#45;cruiser output Pages: 1 -->
<svg width="724pt" height="1100pt"
 viewBox="0.00 0.00 724.00 1100.00" xmlns="http://www.w3.org/2000/svg" xmlns:xlink="http://www.w3.org/1999/xlink">
<g id="graph0" class="graph" transform="scale(1 1) rotate(0) translate(4 1096)">
<title>dependency&#45;cruiser output</title>
<polygon fill="white" stroke="transparent" points="-4,4 -4,-1096 720,-1096 720,4 -4,4"/>
<g id="clust1" class="cluster">
<title>cluster_packages</title>
<path fill="#ffffff" stroke="black" stroke-width="2" d="M20,-8C20,-8 702,-8 702,-8 708,-8 714,-14 714,-20 714,-20 714,-1072 714,-1072 714,-1078 708,-1084 702,-1084 702,-1084 20,-1084 20,-1084 14,-1084 8,-1078 8,-1072 8,-1072 8,-20 8,-20 8,-14 14,-8 20,-8"/>
<text text-anchor="middle" x="361" y="-1072.8" font-family="Helvetica,sans-Serif" font-weight="bold" font-size="9.00">packages</text>
</g>
<g id="clust2" class="cluster">
<title>cluster_packages/UI</title>
<path fill="#ffffff" stroke="black" stroke-width="2" d="M28,-16C28,-16 689,-16 689,-16 695,-16 701,-22 701,-28 701,-28 701,-628 701,-628 701,-634 695,-640 689,-640 689,-640 28,-640 28,-640 22,-640 16,-634 16,-628 16,-628 16,-28 16,-28 16,-22 22,-16 28,-16"/>
<text text-anchor="middle" x="358.5" y="-628.8" font-family="Helvetica,sans-Serif" font-weight="bold" font-size="9.00">UI</text>
</g>
<g id="clust3" class="cluster">
<title>cluster_packages/UI/piano&#45;roll</title>
<path fill="#ffffff" stroke="black" stroke-width="2" d="M36,-24C36,-24 680,-24 680,-24 686,-24 692,-30 692,-36 692,-36 692,-320 692,-320 692,-326 686,-332 680,-332 680,-332 36,-332 36,-332 30,-332 24,-326 24,-320 24,-320 24,-36 24,-36 24,-30 30,-24 36,-24"/>
<text text-anchor="middle" x="358" y="-320.8" font-family="Helvetica,sans-Serif" font-weight="bold" font-size="9.00">piano&#45;roll</text>
</g>
<g id="clust4" class="cluster">
<title>cluster_packages/UI/piano&#45;roll/beat&#45;view</title>
<path fill="#ffffff" stroke="black" stroke-width="2" d="M610,-32C610,-32 672,-32 672,-32 678,-32 684,-38 684,-44 684,-44 684,-106 684,-106 684,-112 678,-118 672,-118 672,-118 610,-118 610,-118 604,-118 598,-112 598,-106 598,-106 598,-44 598,-44 598,-38 604,-32 610,-32"/>
<text text-anchor="middle" x="641" y="-106.8" font-family="Helvetica,sans-Serif" font-weight="bold" font-size="9.00">beat&#45;view</text>
</g>
<g id="clust5" class="cluster">
<title>cluster_packages/UI/piano&#45;roll/beat&#45;view/dist</title>
<path fill="#ffffff" stroke="black" stroke-width="2" d="M618,-40C618,-40 664,-40 664,-40 670,-40 676,-46 676,-52 676,-52 676,-80 676,-80 676,-86 670,-92 664,-92 664,-92 618,-92 618,-92 612,-92 606,-86 606,-80 606,-80 606,-52 606,-52 606,-46 612,-40 618,-40"/>
<text text-anchor="middle" x="641" y="-80.8" font-family="Helvetica,sans-Serif" font-weight="bold" font-size="9.00">dist</text>
</g>
<g id="clust6" class="cluster">
<title>cluster_packages/UI/piano&#45;roll/chord&#45;view</title>
<path fill="#ffffff" stroke="black" stroke-width="2" d="M610,-126C610,-126 672,-126 672,-126 678,-126 684,-132 684,-138 684,-138 684,-200 684,-200 684,-206 678,-212 672,-212 672,-212 610,-212 610,-212 604,-212 598,-206 598,-200 598,-200 598,-138 598,-138 598,-132 604,-126 610,-126"/>
<text text-anchor="middle" x="641" y="-200.8" font-family="Helvetica,sans-Serif" font-weight="bold" font-size="9.00">chord&#45;view</text>
</g>
<g id="clust7" class="cluster">
<title>cluster_packages/UI/piano&#45;roll/chord&#45;view/dist</title>
<path fill="#ffffff" stroke="black" stroke-width="2" d="M618,-134C618,-134 664,-134 664,-134 670,-134 676,-140 676,-146 676,-146 676,-174 676,-174 676,-180 670,-186 664,-186 664,-186 618,-186 618,-186 612,-186 606,-180 606,-174 606,-174 606,-146 606,-146 606,-140 612,-134 618,-134"/>
<text text-anchor="middle" x="641" y="-174.8" font-family="Helvetica,sans-Serif" font-weight="bold" font-size="9.00">dist</text>
</g>
<g id="clust8" class="cluster">
<title>cluster_packages/UI/piano&#45;roll/melody&#45;view</title>
<path fill="#ffffff" stroke="black" stroke-width="2" d="M610,-220C610,-220 672,-220 672,-220 678,-220 684,-226 684,-232 684,-232 684,-294 684,-294 684,-300 678,-306 672,-306 672,-306 610,-306 610,-306 604,-306 598,-300 598,-294 598,-294 598,-232 598,-232 598,-226 604,-220 610,-220"/>
<text text-anchor="middle" x="641" y="-294.8" font-family="Helvetica,sans-Serif" font-weight="bold" font-size="9.00">melody&#45;view</text>
</g>
<g id="clust9" class="cluster">
<title>cluster_packages/UI/piano&#45;roll/melody&#45;view/dist</title>
<path fill="#ffffff" stroke="black" stroke-width="2" d="M618,-228C618,-228 664,-228 664,-228 670,-228 676,-234 676,-240 676,-240 676,-268 676,-268 676,-274 670,-280 664,-280 664,-280 618,-280 618,-280 612,-280 606,-274 606,-268 606,-268 606,-240 606,-240 606,-234 612,-228 618,-228"/>
<text text-anchor="middle" x="641" y="-268.8" font-family="Helvetica,sans-Serif" font-weight="bold" font-size="9.00">dist</text>
</g>
<g id="clust10" class="cluster">
<title>cluster_packages/UI/piano&#45;roll/piano&#45;roll</title>
<path fill="#ffffff" stroke="black" stroke-width="2" d="M44,-186C44,-186 518,-186 518,-186 524,-186 530,-192 530,-198 530,-198 530,-294 530,-294 530,-300 524,-306 518,-306 518,-306 44,-306 44,-306 38,-306 32,-300 32,-294 32,-294 32,-198 32,-198 32,-192 38,-186 44,-186"/>
<text text-anchor="middle" x="281" y="-294.8" font-family="Helvetica,sans-Serif" font-weight="bold" font-size="9.00">piano&#45;roll</text>
</g>
<g id="clust11" class="cluster">
<title>cluster_packages/UI/piano&#45;roll/piano&#45;roll/src</title>
<path fill="#ffffff" stroke="black" stroke-width="2" d="M114,-194C114,-194 510,-194 510,-194 516,-194 522,-200 522,-206 522,-206 522,-268 522,-268 522,-274 516,-280 510,-280 510,-280 114,-280 114,-280 108,-280 102,-274 102,-268 102,-268 102,-206 102,-206 102,-200 108,-194 114,-194"/>
<text text-anchor="middle" x="312" y="-268.8" font-family="Helvetica,sans-Serif" font-weight="bold" font-size="9.00">src</text>
</g>
<g id="clust12" class="cluster">
<title>cluster_packages/UI/piano&#45;roll/piano&#45;roll/src/facade</title>
<path fill="#ffffff" stroke="black" stroke-width="2" d="M456,-202C456,-202 502,-202 502,-202 508,-202 514,-208 514,-214 514,-214 514,-242 514,-242 514,-248 508,-254 502,-254 502,-254 456,-254 456,-254 450,-254 444,-248 444,-242 444,-242 444,-214 444,-214 444,-208 450,-202 456,-202"/>
<text text-anchor="middle" x="479" y="-242.8" font-family="Helvetica,sans-Serif" font-weight="bold" font-size="9.00">facade</text>
</g>
<g id="clust13" class="cluster">
<title>cluster_packages/UI/svg&#45;objects</title>
<path fill="#ffffff" stroke="black" stroke-width="2" d="M610,-340C610,-340 672,-340 672,-340 678,-340 684,-346 684,-352 684,-352 684,-414 684,-414 684,-420 678,-426 672,-426 672,-426 610,-426 610,-426 604,-426 598,-420 598,-414 598,-414 598,-352 598,-352 598,-346 604,-340 610,-340"/>
<text text-anchor="middle" x="641" y="-414.8" font-family="Helvetica,sans-Serif" font-weight="bold" font-size="9.00">svg&#45;objects</text>
</g>
<g id="clust14" class="cluster">
<title>cluster_packages/UI/svg&#45;objects/dist</title>
<path fill="#ffffff" stroke="black" stroke-width="2" d="M618,-348C618,-348 664,-348 664,-348 670,-348 676,-354 676,-360 676,-360 676,-388 676,-388 676,-394 670,-400 664,-400 664,-400 618,-400 618,-400 612,-400 606,-394 606,-388 606,-388 606,-360 606,-360 606,-354 612,-348 618,-348"/>
<text text-anchor="middle" x="641" y="-388.8" font-family="Helvetica,sans-Serif" font-weight="bold" font-size="9.00">dist</text>
</g>
<g id="clust15" class="cluster">
<title>cluster_packages/UI/view&#45;parameters</title>
<path fill="#ffffff" stroke="black" stroke-width="2" d="M602,-528C602,-528 681,-528 681,-528 687,-528 693,-534 693,-540 693,-540 693,-602 693,-602 693,-608 687,-614 681,-614 681,-614 602,-614 602,-614 596,-614 590,-608 590,-602 590,-602 590,-540 590,-540 590,-534 596,-528 602,-528"/>
<text text-anchor="middle" x="641.5" y="-602.8" font-family="Helvetica,sans-Serif" font-weight="bold" font-size="9.00">view&#45;parameters</text>
</g>
<g id="clust16" class="cluster">
<title>cluster_packages/UI/view&#45;parameters/dist</title>
<path fill="#ffffff" stroke="black" stroke-width="2" d="M618,-536C618,-536 664,-536 664,-536 670,-536 676,-542 676,-548 676,-548 676,-576 676,-576 676,-582 670,-588 664,-588 664,-588 618,-588 618,-588 612,-588 606,-582 606,-576 606,-576 606,-548 606,-548 606,-542 612,-536 618,-536"/>
<text text-anchor="middle" x="641" y="-576.8" font-family="Helvetica,sans-Serif" font-weight="bold" font-size="9.00">dist</text>
</g>
<g id="clust17" class="cluster">
<title>cluster_packages/UI/view</title>
<path fill="#ffffff" stroke="black" stroke-width="2" d="M610,-434C610,-434 672,-434 672,-434 678,-434 684,-440 684,-446 684,-446 684,-508 684,-508 684,-514 678,-520 672,-520 672,-520 610,-520 610,-520 604,-520 598,-514 598,-508 598,-508 598,-446 598,-446 598,-440 604,-434 610,-434"/>
<text text-anchor="middle" x="641" y="-508.8" font-family="Helvetica,sans-Serif" font-weight="bold" font-size="9.00">view</text>
</g>
<g id="clust18" class="cluster">
<title>cluster_packages/UI/view/dist</title>
<path fill="#ffffff" stroke="black" stroke-width="2" d="M618,-442C618,-442 664,-442 664,-442 670,-442 676,-448 676,-454 676,-454 676,-482 676,-482 676,-488 670,-494 664,-494 664,-494 618,-494 618,-494 612,-494 606,-488 606,-482 606,-482 606,-454 606,-454 606,-448 612,-442 618,-442"/>
<text text-anchor="middle" x="641" y="-482.8" font-family="Helvetica,sans-Serif" font-weight="bold" font-size="9.00">dist</text>
</g>
<g id="clust19" class="cluster">
<title>cluster_packages/music&#45;structure</title>
<path fill="#ffffff" stroke="black" stroke-width="2" d="M588,-648C588,-648 694,-648 694,-648 700,-648 706,-654 706,-660 706,-660 706,-1046 706,-1046 706,-1052 700,-1058 694,-1058 694,-1058 588,-1058 588,-1058 582,-1058 576,-1052 576,-1046 576,-1046 576,-660 576,-660 576,-654 582,-648 588,-648"/>
<text text-anchor="middle" x="641" y="-1046.8" font-family="Helvetica,sans-Serif" font-weight="bold" font-size="9.00">music&#45;structure</text>
</g>
<g id="clust20" class="cluster">
<title>cluster_packages/music&#45;structure/beat</title>
<path fill="#ffffff" stroke="black" stroke-width="2" d="M596,-912C596,-912 686,-912 686,-912 692,-912 698,-918 698,-924 698,-924 698,-1020 698,-1020 698,-1026 692,-1032 686,-1032 686,-1032 596,-1032 596,-1032 590,-1032 584,-1026 584,-1020 584,-1020 584,-924 584,-924 584,-918 590,-912 596,-912"/>
<text text-anchor="middle" x="641" y="-1020.8" font-family="Helvetica,sans-Serif" font-weight="bold" font-size="9.00">beat</text>
</g>
<g id="clust21" class="cluster">
<title>cluster_packages/music&#45;structure/beat/beat&#45;estimation</title>
<path fill="#ffffff" stroke="black" stroke-width="2" d="M604,-920C604,-920 678,-920 678,-920 684,-920 690,-926 690,-932 690,-932 690,-994 690,-994 690,-1000 684,-1006 678,-1006 678,-1006 604,-1006 604,-1006 598,-1006 592,-1000 592,-994 592,-994 592,-932 592,-932 592,-926 598,-920 604,-920"/>
<text text-anchor="middle" x="641" y="-994.8" font-family="Helvetica,sans-Serif" font-weight="bold" font-size="9.00">beat&#45;estimation</text>
</g>
<g id="clust22" class="cluster">
<title>cluster_packages/music&#45;structure/beat/beat&#45;estimation/dist</title>
<path fill="#ffffff" stroke="black" stroke-width="2" d="M618,-928C618,-928 664,-928 664,-928 670,-928 676,-934 676,-940 676,-940 676,-968 676,-968 676,-974 670,-980 664,-980 664,-980 618,-980 618,-980 612,-980 606,-974 606,-968 606,-968 606,-940 606,-940 606,-934 612,-928 618,-928"/>
<text text-anchor="middle" x="641" y="-968.8" font-family="Helvetica,sans-Serif" font-weight="bold" font-size="9.00">dist</text>
</g>
<g id="clust23" class="cluster">
<title>cluster_packages/music&#45;structure/chord</title>
<path fill="#ffffff" stroke="black" stroke-width="2" d="M601,-784C601,-784 682,-784 682,-784 688,-784 694,-790 694,-796 694,-796 694,-892 694,-892 694,-898 688,-904 682,-904 682,-904 601,-904 601,-904 595,-904 589,-898 589,-892 589,-892 589,-796 589,-796 589,-790 595,-784 601,-784"/>
<text text-anchor="middle" x="641.5" y="-892.8" font-family="Helvetica,sans-Serif" font-weight="bold" font-size="9.00">chord</text>
</g>
<g id="clust24" class="cluster">
<title>cluster_packages/music&#45;structure/chord/chord&#45;analyze</title>
<path fill="#ffffff" stroke="black" stroke-width="2" d="M609,-792C609,-792 674,-792 674,-792 680,-792 686,-798 686,-804 686,-804 686,-866 686,-866 686,-872 680,-878 674,-878 674,-878 609,-878 609,-878 603,-878 597,-872 597,-866 597,-866 597,-804 597,-804 597,-798 603,-792 609,-792"/>
<text text-anchor="middle" x="641.5" y="-866.8" font-family="Helvetica,sans-Serif" font-weight="bold" font-size="9.00">chord&#45;analyze</text>
</g>
<g id="clust25" class="cluster">
<title>cluster_packages/music&#45;structure/chord/chord&#45;analyze/dist</title>
<path fill="#ffffff" stroke="black" stroke-width="2" d="M618,-800C618,-800 664,-800 664,-800 670,-800 676,-806 676,-812 676,-812 676,-840 676,-840 676,-846 670,-852 664,-852 664,-852 618,-852 618,-852 612,-852 606,-846 606,-840 606,-840 606,-812 606,-812 606,-806 612,-800 618,-800"/>
<text text-anchor="middle" x="641" y="-840.8" font-family="Helvetica,sans-Serif" font-weight="bold" font-size="9.00">dist</text>
</g>
<g id="clust26" class="cluster">
<title>cluster_packages/music&#45;structure/melody</title>
<path fill="#ffffff" stroke="black" stroke-width="2" d="M597,-656C597,-656 686,-656 686,-656 692,-656 698,-662 698,-668 698,-668 698,-764 698,-764 698,-770 692,-776 686,-776 686,-776 597,-776 597,-776 591,-776 585,-770 585,-764 585,-764 585,-668 585,-668 585,-662 591,-656 597,-656"/>
<text text-anchor="middle" x="641.5" y="-764.8" font-family="Helvetica,sans-Serif" font-weight="bold" font-size="9.00">melody</text>
</g>
<g id="clust27" class="cluster">
<title>cluster_packages/music&#45;structure/melody/melody&#45;analyze</title>
<path fill="#ffffff" stroke="black" stroke-width="2" d="M605,-664C605,-664 678,-664 678,-664 684,-664 690,-670 690,-676 690,-676 690,-738 690,-738 690,-744 684,-750 678,-750 678,-750 605,-750 605,-750 599,-750 593,-744 593,-738 593,-738 593,-676 593,-676 593,-670 599,-664 605,-664"/>
<text text-anchor="middle" x="641.5" y="-738.8" font-family="Helvetica,sans-Serif" font-weight="bold" font-size="9.00">melody&#45;analyze</text>
</g>
<g id="clust28" class="cluster">
<title>cluster_packages/music&#45;structure/melody/melody&#45;analyze/dist</title>
<path fill="#ffffff" stroke="black" stroke-width="2" d="M618,-672C618,-672 664,-672 664,-672 670,-672 676,-678 676,-684 676,-684 676,-712 676,-712 676,-718 670,-724 664,-724 664,-724 618,-724 618,-724 612,-724 606,-718 606,-712 606,-712 606,-684 606,-684 606,-678 612,-672 618,-672"/>
<text text-anchor="middle" x="641" y="-712.8" font-family="Helvetica,sans-Serif" font-weight="bold" font-size="9.00">dist</text>
</g>
<!-- packages/UI/piano&#45;roll/beat&#45;view/dist/index.js -->
<g id="node1" class="node">
<title>packages/UI/piano&#45;roll/beat&#45;view/dist/index.js</title>
<g id="a_node1"><a xlink:href="packages/UI/piano-roll/beat-view/dist/index.js" xlink:title="index.js">
<polygon fill="#ffffcc" stroke="black" points="668,-66 666.5,-68 656,-68 654.5,-66 614,-66 614,-48 668,-48 668,-66"/>
<text text-anchor="start" x="623.5" y="-54.8" font-family="Helvetica,sans-Serif" font-size="9.00">index.js</text>
</a>
</g>
</g>
<!-- packages/UI/piano&#45;roll/chord&#45;view/dist/index.js -->
<g id="node2" class="node">
<title>packages/UI/piano&#45;roll/chord&#45;view/dist/index.js</title>
<g id="a_node2"><a xlink:href="packages/UI/piano-roll/chord-view/dist/index.js" xlink:title="index.js">
<polygon fill="#ffffcc" stroke="black" points="668,-160 666.5,-162 656,-162 654.5,-160 614,-160 614,-142 668,-142 668,-160"/>
<text text-anchor="start" x="623.5" y="-148.8" font-family="Helvetica,sans-Serif" font-size="9.00">index.js</text>
</a>
</g>
</g>
<!-- packages/UI/piano&#45;roll/melody&#45;view/dist/index.js -->
<g id="node3" class="node">
<title>packages/UI/piano&#45;roll/melody&#45;view/dist/index.js</title>
<g id="a_node3"><a xlink:href="packages/UI/piano-roll/melody-view/dist/index.js" xlink:title="index.js">
<polygon fill="#ffffcc" stroke="black" points="668,-254 666.5,-256 656,-256 654.5,-254 614,-254 614,-236 668,-236 668,-254"/>
<text text-anchor="start" x="623.5" y="-242.8" font-family="Helvetica,sans-Serif" font-size="9.00">index.js</text>
</a>
</g>
</g>
<!-- packages/UI/piano&#45;roll/piano&#45;roll/index.ts -->
<g id="node4" class="node">
<title>packages/UI/piano&#45;roll/piano&#45;roll/index.ts</title>
<g id="a_node4"><a xlink:href="packages/UI/piano-roll/piano-roll/index.ts" xlink:title="index.ts">
<path fill="#ddfeff" stroke="black" d="M88,-219C88,-219 46,-219 46,-219 43,-219 40,-216 40,-213 40,-213 40,-207 40,-207 40,-204 43,-201 46,-201 46,-201 88,-201 88,-201 91,-201 94,-204 94,-207 94,-207 94,-213 94,-213 94,-216 91,-219 88,-219"/>
<text text-anchor="start" x="48.5" y="-207.8" font-family="Helvetica,sans-Serif" font-size="9.00">index.ts</text>
</a>
</g>
</g>
<!-- packages/UI/piano&#45;roll/piano&#45;roll/src/music&#45;structure&#45;elements.ts -->
<g id="node5" class="node">
<title>packages/UI/piano&#45;roll/piano&#45;roll/src/music&#45;structure&#45;elements.ts</title>
<g id="a_node5"><a xlink:href="packages/UI/piano-roll/piano-roll/src/music-structure-elements.ts" xlink:title="music&#45;structure&#45;elements.ts">
<path fill="#ddfeff" stroke="black" d="M430,-224C430,-224 298,-224 298,-224 295,-224 292,-221 292,-218 292,-218 292,-212 292,-212 292,-209 295,-206 298,-206 298,-206 430,-206 430,-206 433,-206 436,-209 436,-212 436,-212 436,-218 436,-218 436,-221 433,-224 430,-224"/>
<text text-anchor="start" x="300" y="-212.8" font-family="Helvetica,sans-Serif" font-size="9.00">music&#45;structure&#45;elements.ts</text>
</a>
</g>
</g>
<!-- packages/UI/piano&#45;roll/piano&#45;roll/index.ts&#45;&gt;packages/UI/piano&#45;roll/piano&#45;roll/src/music&#45;structure&#45;elements.ts -->
<g id="edge1" class="edge">
<title>packages/UI/piano&#45;roll/piano&#45;roll/index.ts&#45;&gt;packages/UI/piano&#45;roll/piano&#45;roll/src/music&#45;structure&#45;elements.ts</title>
<path fill="none" stroke="#000000" stroke-width="2" stroke-opacity="0.200000" d="M94.11,-209.23C98.68,-209.1 102,-209 102,-209 102,-209 180,-209 180,-209 180,-209 279,-212 279,-212 279,-212 281.52,-212.09 285.67,-212.24"/>
<polygon fill="#000000" fill-opacity="0.200000" stroke="#000000" stroke-width="2" stroke-opacity="0.200000" points="291.68,-214.55 285.76,-212.24 291.83,-210.36 291.68,-214.55"/>
</g>
<!-- packages/UI/piano&#45;roll/piano&#45;roll/src/piano&#45;roll.ts -->
<g id="node6" class="node">
<title>packages/UI/piano&#45;roll/piano&#45;roll/src/piano&#45;roll.ts</title>
<g id="a_node6"><a xlink:href="packages/UI/piano-roll/piano-roll/src/piano-roll.ts" xlink:title="piano&#45;roll.ts">
<path fill="#ddfeff" stroke="black" d="M174,-233C174,-233 116,-233 116,-233 113,-233 110,-230 110,-227 110,-227 110,-221 110,-221 110,-218 113,-215 116,-215 116,-215 174,-215 174,-215 177,-215 180,-218 180,-221 180,-221 180,-227 180,-227 180,-230 177,-233 174,-233"/>
<text text-anchor="start" x="118" y="-221.8" font-family="Helvetica,sans-Serif" font-size="9.00">piano&#45;roll.ts</text>
</a>
</g>
</g>
<!-- packages/UI/piano&#45;roll/piano&#45;roll/index.ts&#45;&gt;packages/UI/piano&#45;roll/piano&#45;roll/src/piano&#45;roll.ts -->
<g id="edge2" class="edge">
<title>packages/UI/piano&#45;roll/piano&#45;roll/index.ts&#45;&gt;packages/UI/piano&#45;roll/piano&#45;roll/src/piano&#45;roll.ts</title>
<path fill="none" stroke="#000000" stroke-width="2" stroke-opacity="0.200000" d="M94.15,-214.82C97.32,-215.4 100.61,-216.01 103.92,-216.62"/>
<polygon fill="#000000" fill-opacity="0.200000" stroke="#000000" stroke-width="2" stroke-opacity="0.200000" points="109.5,-219.78 103.98,-216.63 110.26,-215.65 109.5,-219.78"/>
</g>
<!-- packages/UI/piano&#45;roll/piano&#45;roll/src/facade/index.ts -->
<g id="node8" class="node">
<title>packages/UI/piano&#45;roll/piano&#45;roll/src/facade/index.ts</title>
<g id="a_node8"><a xlink:href="packages/UI/piano-roll/piano-roll/src/facade/index.ts" xlink:title="index.ts">
<path fill="#ddfeff" stroke="black" d="M500,-228C500,-228 458,-228 458,-228 455,-228 452,-225 452,-222 452,-222 452,-216 452,-216 452,-213 455,-210 458,-210 458,-210 500,-210 500,-210 503,-210 506,-213 506,-216 506,-216 506,-222 506,-222 506,-225 503,-228 500,-228"/>
<text text-anchor="start" x="460.5" y="-216.8" font-family="Helvetica,sans-Serif" font-size="9.00">index.ts</text>
</a>
</g>
</g>
<!-- packages/UI/piano&#45;roll/piano&#45;roll/src/music&#45;structure&#45;elements.ts&#45;&gt;packages/UI/piano&#45;roll/piano&#45;roll/src/facade/index.ts -->
<g id="edge13" class="edge">
<title>packages/UI/piano&#45;roll/piano&#45;roll/src/music&#45;structure&#45;elements.ts&#45;&gt;packages/UI/piano&#45;roll/piano&#45;roll/src/facade/index.ts</title>
<path fill="none" stroke="#000000" stroke-width="2" stroke-opacity="0.200000" d="M436.24,-217.52C439.49,-217.64 442.66,-217.75 445.72,-217.86"/>
<polygon fill="#000000" fill-opacity="0.200000" stroke="#000000" stroke-width="2" stroke-opacity="0.200000" points="445.75,-219.96 451.82,-218.07 445.9,-215.76 445.75,-219.96"/>
</g>
<!-- packages/UI/piano&#45;roll/piano&#45;roll/src/piano&#45;roll.ts&#45;&gt;packages/UI/piano&#45;roll/piano&#45;roll/src/music&#45;structure&#45;elements.ts -->
<g id="edge16" class="edge">
<title>packages/UI/piano&#45;roll/piano&#45;roll/src/piano&#45;roll.ts&#45;&gt;packages/UI/piano&#45;roll/piano&#45;roll/src/music&#45;structure&#45;elements.ts</title>
<path fill="none" stroke="#000000" stroke-width="2" stroke-opacity="0.200000" d="M180.16,-218.19C187.45,-216.95 193,-216 193,-216 193,-216 240.91,-215.72 285.86,-215.45"/>
<polygon fill="#000000" fill-opacity="0.200000" stroke="#000000" stroke-width="2" stroke-opacity="0.200000" points="285.9,-217.55 291.89,-215.42 285.88,-213.35 285.9,-217.55"/>
</g>
<!-- packages/UI/piano&#45;roll/piano&#45;roll/src/analysis&#45;view.ts -->
<g id="node7" class="node">
<title>packages/UI/piano&#45;roll/piano&#45;roll/src/analysis&#45;view.ts</title>
<g id="a_node7"><a xlink:href="packages/UI/piano-roll/piano-roll/src/analysis-view.ts" xlink:title="analysis&#45;view.ts">
<path fill="#ddfeff" stroke="black" d="M273,-240C273,-240 199,-240 199,-240 196,-240 193,-237 193,-234 193,-234 193,-228 193,-228 193,-225 196,-222 199,-222 199,-222 273,-222 273,-222 276,-222 279,-225 279,-228 279,-228 279,-234 279,-234 279,-237 276,-240 273,-240"/>
<text text-anchor="start" x="201" y="-228.8" font-family="Helvetica,sans-Serif" font-size="9.00">analysis&#45;view.ts</text>
</a>
</g>
</g>
<!-- packages/UI/piano&#45;roll/piano&#45;roll/src/piano&#45;roll.ts&#45;&gt;packages/UI/piano&#45;roll/piano&#45;roll/src/analysis&#45;view.ts -->
<g id="edge14" class="edge">
<title>packages/UI/piano&#45;roll/piano&#45;roll/src/piano&#45;roll.ts&#45;&gt;packages/UI/piano&#45;roll/piano&#45;roll/src/analysis&#45;view.ts</title>
<path fill="none" stroke="#000000" stroke-width="2" stroke-opacity="0.200000" d="M180.16,-226.69C182.21,-226.85 184.3,-227.01 186.41,-227.18"/>
<polygon fill="#000000" fill-opacity="0.200000" stroke="#000000" stroke-width="2" stroke-opacity="0.200000" points="186.59,-229.3 192.73,-227.68 186.91,-225.11 186.59,-229.3"/>
</g>
<!-- packages/UI/piano&#45;roll/piano&#45;roll/src/piano&#45;roll.ts&#45;&gt;packages/UI/piano&#45;roll/piano&#45;roll/src/facade/index.ts -->
<g id="edge15" class="edge">
<title>packages/UI/piano&#45;roll/piano&#45;roll/src/piano&#45;roll.ts&#45;&gt;packages/UI/piano&#45;roll/piano&#45;roll/src/facade/index.ts</title>
<path fill="none" stroke="#000000" stroke-width="2" stroke-opacity="0.200000" d="M165.39,-233.08C178.33,-239.14 193,-246 193,-246 193,-246 279,-246 279,-246 279,-246 436,-230 436,-230 436,-230 440.05,-228.94 445.64,-227.48"/>
<polygon fill="#000000" fill-opacity="0.200000" stroke="#000000" stroke-width="2" stroke-opacity="0.200000" points="446.37,-229.46 451.64,-225.9 445.3,-225.39 446.37,-229.46"/>
</g>
<!-- packages/UI/piano&#45;roll/piano&#45;roll/src/analysis&#45;view.ts&#45;&gt;packages/UI/piano&#45;roll/piano&#45;roll/src/music&#45;structure&#45;elements.ts -->
<g id="edge3" class="edge">
<title>packages/UI/piano&#45;roll/piano&#45;roll/src/analysis&#45;view.ts&#45;&gt;packages/UI/piano&#45;roll/piano&#45;roll/src/music&#45;structure&#45;elements.ts</title>
<path fill="none" stroke="#000000" stroke-width="2" stroke-opacity="0.200000" d="M279.31,-225.63C281.51,-225.35 283.75,-225.06 286.02,-224.78"/>
<polygon fill="#000000" fill-opacity="0.200000" stroke="#000000" stroke-width="2" stroke-opacity="0.200000" points="286.38,-226.85 292.07,-224.01 285.85,-222.68 286.38,-226.85"/>
</g>
<!-- packages/UI/piano&#45;roll/piano&#45;roll/src/facade/index.ts&#45;&gt;packages/UI/piano&#45;roll/beat&#45;view/dist/index.js -->
<g id="edge5" class="edge">
<title>packages/UI/piano&#45;roll/piano&#45;roll/src/facade/index.ts&#45;&gt;packages/UI/piano&#45;roll/beat&#45;view/dist/index.js</title>
<path fill="none" stroke="#000000" stroke-width="2" stroke-opacity="0.200000" d="M489.06,-209.83C515.9,-182.65 595.1,-102.46 626.73,-70.44"/>
<polygon fill="#000000" fill-opacity="0.200000" stroke="#000000" stroke-width="2" stroke-opacity="0.200000" points="632.53,-67.55 626.82,-70.34 629.54,-64.6 632.53,-67.55"/>
</g>
<!-- packages/UI/piano&#45;roll/piano&#45;roll/src/facade/index.ts&#45;&gt;packages/UI/piano&#45;roll/chord&#45;view/dist/index.js -->
<g id="edge7" class="edge">
<title>packages/UI/piano&#45;roll/piano&#45;roll/src/facade/index.ts&#45;&gt;packages/UI/piano&#45;roll/chord&#45;view/dist/index.js</title>
<path fill="none" stroke="#000000" stroke-width="2" stroke-opacity="0.200000" d="M501.25,-209.97C530.06,-197.73 581.52,-175.85 613.02,-162.46"/>
<polygon fill="#000000" fill-opacity="0.200000" stroke="#000000" stroke-width="2" stroke-opacity="0.200000" points="619.49,-162 613.14,-162.41 617.84,-158.13 619.49,-162"/>
</g>
<!-- packages/UI/piano&#45;roll/piano&#45;roll/src/facade/index.ts&#45;&gt;packages/UI/piano&#45;roll/melody&#45;view/dist/index.js -->
<g id="edge9" class="edge">
<title>packages/UI/piano&#45;roll/piano&#45;roll/src/facade/index.ts&#45;&gt;packages/UI/piano&#45;roll/melody&#45;view/dist/index.js</title>
<path fill="none" stroke="#000000" stroke-width="2" stroke-opacity="0.200000" d="M506.06,-223.24C533.84,-227.75 577.86,-234.9 607.79,-239.77"/>
<polygon fill="#000000" fill-opacity="0.200000" stroke="#000000" stroke-width="2" stroke-opacity="0.200000" points="613.61,-242.84 608.03,-239.8 614.29,-238.69 613.61,-242.84"/>
</g>
<!-- packages/music&#45;structure/beat/beat&#45;estimation/dist/index.js -->
<g id="node9" class="node">
<title>packages/music&#45;structure/beat/beat&#45;estimation/dist/index.js</title>
<g id="a_node9"><a xlink:href="packages/music-structure/beat/beat-estimation/dist/index.js" xlink:title="index.js">
<polygon fill="#ffffcc" stroke="black" points="668,-954 666.5,-956 656,-956 654.5,-954 614,-954 614,-936 668,-936 668,-954"/>
<text text-anchor="start" x="623.5" y="-942.8" font-family="Helvetica,sans-Serif" font-size="9.00">index.js</text>
</a>
</g>
</g>
<!-- packages/UI/piano&#45;roll/piano&#45;roll/src/facade/index.ts&#45;&gt;packages/music&#45;structure/beat/beat&#45;estimation/dist/index.js -->
<g id="edge4" class="edge">
<title>packages/UI/piano&#45;roll/piano&#45;roll/src/facade/index.ts&#45;&gt;packages/music&#45;structure/beat/beat&#45;estimation/dist/index.js</title>
<path fill="none" stroke="#000000" stroke-opacity="0.200000" d="M481.39,-228.24C493.2,-306.45 576,-855 576,-855 576,-855 611.77,-905.3 629.83,-930.69"/>
<polygon fill="none" stroke="#000000" stroke-opacity="0.200000" points="628.2,-932.03 633.39,-935.71 631.63,-929.6 628.2,-932.03"/>
</g>
<!-- packages/music&#45;structure/chord/chord&#45;analyze/dist/index.js -->
<g id="node10" class="node">
<title>packages/music&#45;structure/chord/chord&#45;analyze/dist/index.js</title>
<g id="a_node10"><a xlink:href="packages/music-structure/chord/chord-analyze/dist/index.js" xlink:title="index.js">
<polygon fill="#ffffcc" stroke="black" points="668,-826 666.5,-828 656,-828 654.5,-826 614,-826 614,-808 668,-808 668,-826"/>
<text text-anchor="start" x="623.5" y="-814.8" font-family="Helvetica,sans-Serif" font-size="9.00">index.js</text>
</a>
</g>
</g>
<!-- packages/UI/piano&#45;roll/piano&#45;roll/src/facade/index.ts&#45;&gt;packages/music&#45;structure/chord/chord&#45;analyze/dist/index.js -->
<g id="edge6" class="edge">
<title>packages/UI/piano&#45;roll/piano&#45;roll/src/facade/index.ts&#45;&gt;packages/music&#45;structure/chord/chord&#45;analyze/dist/index.js</title>
<path fill="none" stroke="#000000" stroke-width="2" stroke-opacity="0.200000" d="M481.75,-228.25C494.76,-297.1 576,-727 576,-727 576,-727 611.77,-777.3 629.83,-802.69"/>
<polygon fill="#000000" fill-opacity="0.200000" stroke="#000000" stroke-width="2" stroke-opacity="0.200000" points="631.68,-808.92 629.91,-802.82 635.1,-806.49 631.68,-808.92"/>
</g>
<!-- packages/music&#45;structure/melody/melody&#45;analyze/dist/index.js -->
<g id="node11" class="node">
<title>packages/music&#45;structure/melody/melody&#45;analyze/dist/index.js</title>
<g id="a_node11"><a xlink:href="packages/music-structure/melody/melody-analyze/dist/index.js" xlink:title="index.js">
<polygon fill="#ffffcc" stroke="black" points="668,-698 666.5,-700 656,-700 654.5,-698 614,-698 614,-680 668,-680 668,-698"/>
<text text-anchor="start" x="623.5" y="-686.8" font-family="Helvetica,sans-Serif" font-size="9.00">index.js</text>
</a>
</g>
</g>
<!-- packages/UI/piano&#45;roll/piano&#45;roll/src/facade/index.ts&#45;&gt;packages/music&#45;structure/melody/melody&#45;analyze/dist/index.js -->
<g id="edge8" class="edge">
<title>packages/UI/piano&#45;roll/piano&#45;roll/src/facade/index.ts&#45;&gt;packages/music&#45;structure/melody/melody&#45;analyze/dist/index.js</title>
<path fill="none" stroke="#000000" stroke-width="2" stroke-opacity="0.200000" d="M482.37,-228.2C497.16,-285.48 576,-591 576,-591 576,-591 612.82,-647.39 630.61,-674.62"/>
<polygon fill="#000000" fill-opacity="0.200000" stroke="#000000" stroke-width="2" stroke-opacity="0.200000" points="632.34,-681.1 630.81,-674.93 635.85,-678.81 632.34,-681.1"/>
</g>
<!-- packages/UI/svg&#45;objects/dist/index.js -->
<g id="node12" class="node">
<title>packages/UI/svg&#45;objects/dist/index.js</title>
<g id="a_node12"><a xlink:href="packages/UI/svg-objects/dist/index.js" xlink:title="index.js">
<polygon fill="#ffffcc" stroke="black" points="668,-374 666.5,-376 656,-376 654.5,-374 614,-374 614,-356 668,-356 668,-374"/>
<text text-anchor="start" x="623.5" y="-362.8" font-family="Helvetica,sans-Serif" font-size="9.00">index.js</text>
</a>
</g>
</g>
<!-- packages/UI/piano&#45;roll/piano&#45;roll/src/facade/index.ts&#45;&gt;packages/UI/svg&#45;objects/dist/index.js -->
<g id="edge10" class="edge">
<title>packages/UI/piano&#45;roll/piano&#45;roll/src/facade/index.ts&#45;&gt;packages/UI/svg&#45;objects/dist/index.js</title>
<path fill="none" stroke="#000000" stroke-width="2" stroke-opacity="0.200000" d="M490.01,-228.13C517.28,-253.02 593.02,-322.13 625.22,-351.51"/>
<polygon fill="#000000" fill-opacity="0.200000" stroke="#000000" stroke-width="2" stroke-opacity="0.200000" points="628.58,-357.42 625.56,-351.83 631.41,-354.32 628.58,-357.42"/>
</g>
<!-- packages/UI/view/dist/index.js -->
<g id="node13" class="node">
<title>packages/UI/view/dist/index.js</title>
<g id="a_node13"><a xlink:href="packages/UI/view/dist/index.js" xlink:title="index.js">
<polygon fill="#ffffcc" stroke="black" points="668,-468 666.5,-470 656,-470 654.5,-468 614,-468 614,-450 668,-450 668,-468"/>
<text text-anchor="start" x="623.5" y="-456.8" font-family="Helvetica,sans-Serif" font-size="9.00">index.js</text>
</a>
</g>
</g>
<!-- packages/UI/piano&#45;roll/piano&#45;roll/src/facade/index.ts&#45;&gt;packages/UI/view/dist/index.js -->
<g id="edge11" class="edge">
<title>packages/UI/piano&#45;roll/piano&#45;roll/src/facade/index.ts&#45;&gt;packages/UI/view/dist/index.js</title>
<path fill="none" stroke="#000000" stroke-width="2" stroke-opacity="0.200000" d="M484.76,-228.12C504.13,-265.25 576,-403 576,-403 576,-403 605.96,-429.22 624.88,-445.77"/>
<polygon fill="#000000" fill-opacity="0.200000" stroke="#000000" stroke-width="2" stroke-opacity="0.200000" points="628.05,-451.33 624.92,-445.8 630.81,-448.17 628.05,-451.33"/>
</g>
<!-- packages/UI/view&#45;parameters/dist/index.js -->
<g id="node14" class="node">
<title>packages/UI/view&#45;parameters/dist/index.js</title>
<g id="a_node14"><a xlink:href="packages/UI/view-parameters/dist/index.js" xlink:title="index.js">
<polygon fill="#ffffcc" stroke="black" points="668,-562 666.5,-564 656,-564 654.5,-562 614,-562 614,-544 668,-544 668,-562"/>
<text text-anchor="start" x="623.5" y="-550.8" font-family="Helvetica,sans-Serif" font-size="9.00">index.js</text>
</a>
</g>
</g>
<!-- packages/UI/piano&#45;roll/piano&#45;roll/src/facade/index.ts&#45;&gt;packages/UI/view&#45;parameters/dist/index.js -->
<g id="edge12" class="edge">
<title>packages/UI/piano&#45;roll/piano&#45;roll/src/facade/index.ts&#45;&gt;packages/UI/view&#45;parameters/dist/index.js</title>
<path fill="none" stroke="#000000" stroke-width="2" stroke-opacity="0.200000" d="M483.19,-228.25C499.85,-276.49 576,-497 576,-497 576,-497 605.96,-523.22 624.88,-539.77"/>
<polygon fill="#000000" fill-opacity="0.200000" stroke="#000000" stroke-width="2" stroke-opacity="0.200000" points="628.05,-545.33 624.92,-539.8 630.81,-542.17 628.05,-545.33"/>
</g>
</g>
</svg>
