<?xml version="1.0" encoding="UTF-8" standalone="no"?>
<!DOCTYPE svg PUBLIC "-//W3C//DTD SVG 1.1//EN"
 "http://www.w3.org/Graphics/SVG/1.1/DTD/svg11.dtd">
<!-- Generated by graphviz version 2.43.0 (0)
 -->
<!-- Title: dependency&#45;cruiser output Pages: 1 -->
<svg width="509pt" height="1006pt"
 viewBox="0.00 0.00 509.00 1006.00" xmlns="http://www.w3.org/2000/svg" xmlns:xlink="http://www.w3.org/1999/xlink">
<g id="graph0" class="graph" transform="scale(1 1) rotate(0) translate(4 1002)">
<title>dependency&#45;cruiser output</title>
<polygon fill="white" stroke="transparent" points="-4,4 -4,-1002 505,-1002 505,4 -4,4"/>
<g id="clust1" class="cluster">
<title>cluster_packages</title>
<path fill="#ffffff" stroke="black" stroke-width="2" d="M20,-8C20,-8 487,-8 487,-8 493,-8 499,-14 499,-20 499,-20 499,-978 499,-978 499,-984 493,-990 487,-990 487,-990 20,-990 20,-990 14,-990 8,-984 8,-978 8,-978 8,-20 8,-20 8,-14 14,-8 20,-8"/>
<text text-anchor="middle" x="253.5" y="-978.8" font-family="Helvetica,sans-Serif" font-weight="bold" font-size="9.00">packages</text>
</g>
<g id="clust2" class="cluster">
<title>cluster_packages/UI</title>
<path fill="#ffffff" stroke="black" stroke-width="2" d="M28,-16C28,-16 473,-16 473,-16 479,-16 485,-22 485,-28 485,-28 485,-534 485,-534 485,-540 479,-546 473,-546 473,-546 28,-546 28,-546 22,-546 16,-540 16,-534 16,-534 16,-28 16,-28 16,-22 22,-16 28,-16"/>
<text text-anchor="middle" x="250.5" y="-534.8" font-family="Helvetica,sans-Serif" font-weight="bold" font-size="9.00">UI</text>
</g>
<g id="clust3" class="cluster">
<title>cluster_packages/UI/piano&#45;roll</title>
<path fill="#ffffff" stroke="black" stroke-width="2" d="M36,-24C36,-24 465,-24 465,-24 471,-24 477,-30 477,-36 477,-36 477,-320 477,-320 477,-326 471,-332 465,-332 465,-332 36,-332 36,-332 30,-332 24,-326 24,-320 24,-320 24,-36 24,-36 24,-30 30,-24 36,-24"/>
<text text-anchor="middle" x="250.5" y="-320.8" font-family="Helvetica,sans-Serif" font-weight="bold" font-size="9.00">piano&#45;roll</text>
</g>
<g id="clust4" class="cluster">
<title>cluster_packages/UI/piano&#45;roll/beat&#45;view</title>
<path fill="#ffffff" stroke="black" stroke-width="2" d="M395,-126C395,-126 457,-126 457,-126 463,-126 469,-132 469,-138 469,-138 469,-200 469,-200 469,-206 463,-212 457,-212 457,-212 395,-212 395,-212 389,-212 383,-206 383,-200 383,-200 383,-138 383,-138 383,-132 389,-126 395,-126"/>
<text text-anchor="middle" x="426" y="-200.8" font-family="Helvetica,sans-Serif" font-weight="bold" font-size="9.00">beat&#45;view</text>
</g>
<g id="clust5" class="cluster">
<title>cluster_packages/UI/piano&#45;roll/beat&#45;view/dist</title>
<path fill="#ffffff" stroke="black" stroke-width="2" d="M403,-134C403,-134 449,-134 449,-134 455,-134 461,-140 461,-146 461,-146 461,-174 461,-174 461,-180 455,-186 449,-186 449,-186 403,-186 403,-186 397,-186 391,-180 391,-174 391,-174 391,-146 391,-146 391,-140 397,-134 403,-134"/>
<text text-anchor="middle" x="426" y="-174.8" font-family="Helvetica,sans-Serif" font-weight="bold" font-size="9.00">dist</text>
</g>
<g id="clust6" class="cluster">
<title>cluster_packages/UI/piano&#45;roll/chord&#45;view</title>
<path fill="#ffffff" stroke="black" stroke-width="2" d="M395,-32C395,-32 457,-32 457,-32 463,-32 469,-38 469,-44 469,-44 469,-106 469,-106 469,-112 463,-118 457,-118 457,-118 395,-118 395,-118 389,-118 383,-112 383,-106 383,-106 383,-44 383,-44 383,-38 389,-32 395,-32"/>
<text text-anchor="middle" x="426" y="-106.8" font-family="Helvetica,sans-Serif" font-weight="bold" font-size="9.00">chord&#45;view</text>
</g>
<g id="clust7" class="cluster">
<title>cluster_packages/UI/piano&#45;roll/chord&#45;view/dist</title>
<path fill="#ffffff" stroke="black" stroke-width="2" d="M403,-40C403,-40 449,-40 449,-40 455,-40 461,-46 461,-52 461,-52 461,-80 461,-80 461,-86 455,-92 449,-92 449,-92 403,-92 403,-92 397,-92 391,-86 391,-80 391,-80 391,-52 391,-52 391,-46 397,-40 403,-40"/>
<text text-anchor="middle" x="426" y="-80.8" font-family="Helvetica,sans-Serif" font-weight="bold" font-size="9.00">dist</text>
</g>
<g id="clust8" class="cluster">
<title>cluster_packages/UI/piano&#45;roll/melody&#45;view</title>
<path fill="#ffffff" stroke="black" stroke-width="2" d="M395,-220C395,-220 457,-220 457,-220 463,-220 469,-226 469,-232 469,-232 469,-294 469,-294 469,-300 463,-306 457,-306 457,-306 395,-306 395,-306 389,-306 383,-300 383,-294 383,-294 383,-232 383,-232 383,-226 389,-220 395,-220"/>
<text text-anchor="middle" x="426" y="-294.8" font-family="Helvetica,sans-Serif" font-weight="bold" font-size="9.00">melody&#45;view</text>
</g>
<g id="clust9" class="cluster">
<title>cluster_packages/UI/piano&#45;roll/melody&#45;view/dist</title>
<path fill="#ffffff" stroke="black" stroke-width="2" d="M403,-228C403,-228 449,-228 449,-228 455,-228 461,-234 461,-240 461,-240 461,-268 461,-268 461,-274 455,-280 449,-280 449,-280 403,-280 403,-280 397,-280 391,-274 391,-268 391,-268 391,-240 391,-240 391,-234 397,-228 403,-228"/>
<text text-anchor="middle" x="426" y="-268.8" font-family="Helvetica,sans-Serif" font-weight="bold" font-size="9.00">dist</text>
</g>
<g id="clust10" class="cluster">
<title>cluster_packages/UI/piano&#45;roll/piano&#45;roll</title>
<path fill="#ffffff" stroke="black" stroke-width="2" d="M44,-214C44,-214 302,-214 302,-214 308,-214 314,-220 314,-226 314,-226 314,-294 314,-294 314,-300 308,-306 302,-306 302,-306 44,-306 44,-306 38,-306 32,-300 32,-294 32,-294 32,-226 32,-226 32,-220 38,-214 44,-214"/>
<text text-anchor="middle" x="173" y="-294.8" font-family="Helvetica,sans-Serif" font-weight="bold" font-size="9.00">piano&#45;roll</text>
</g>
<g id="clust11" class="cluster">
<title>cluster_packages/UI/piano&#45;roll/piano&#45;roll/src</title>
<path fill="#ffffff" stroke="black" stroke-width="2" d="M114,-228C114,-228 294,-228 294,-228 300,-228 306,-234 306,-240 306,-240 306,-268 306,-268 306,-274 300,-280 294,-280 294,-280 114,-280 114,-280 108,-280 102,-274 102,-268 102,-268 102,-240 102,-240 102,-234 108,-228 114,-228"/>
<text text-anchor="middle" x="204" y="-268.8" font-family="Helvetica,sans-Serif" font-weight="bold" font-size="9.00">src</text>
</g>
<g id="clust12" class="cluster">
<title>cluster_packages/UI/view&#45;parameters</title>
<path fill="#ffffff" stroke="black" stroke-width="2" d="M216,-434C216,-434 295,-434 295,-434 301,-434 307,-440 307,-446 307,-446 307,-508 307,-508 307,-514 301,-520 295,-520 295,-520 216,-520 216,-520 210,-520 204,-514 204,-508 204,-508 204,-446 204,-446 204,-440 210,-434 216,-434"/>
<text text-anchor="middle" x="255.5" y="-508.8" font-family="Helvetica,sans-Serif" font-weight="bold" font-size="9.00">view&#45;parameters</text>
</g>
<g id="clust13" class="cluster">
<title>cluster_packages/UI/view&#45;parameters/dist</title>
<path fill="#ffffff" stroke="black" stroke-width="2" d="M232,-442C232,-442 278,-442 278,-442 284,-442 290,-448 290,-454 290,-454 290,-482 290,-482 290,-488 284,-494 278,-494 278,-494 232,-494 232,-494 226,-494 220,-488 220,-482 220,-482 220,-454 220,-454 220,-448 226,-442 232,-442"/>
<text text-anchor="middle" x="255" y="-482.8" font-family="Helvetica,sans-Serif" font-weight="bold" font-size="9.00">dist</text>
</g>
<g id="clust14" class="cluster">
<title>cluster_packages/UI/view</title>
<path fill="#ffffff" stroke="black" stroke-width="2" d="M224,-340C224,-340 286,-340 286,-340 292,-340 298,-346 298,-352 298,-352 298,-414 298,-414 298,-420 292,-426 286,-426 286,-426 224,-426 224,-426 218,-426 212,-420 212,-414 212,-414 212,-352 212,-352 212,-346 218,-340 224,-340"/>
<text text-anchor="middle" x="255" y="-414.8" font-family="Helvetica,sans-Serif" font-weight="bold" font-size="9.00">view</text>
</g>
<g id="clust15" class="cluster">
<title>cluster_packages/UI/view/dist</title>
<path fill="#ffffff" stroke="black" stroke-width="2" d="M232,-348C232,-348 278,-348 278,-348 284,-348 290,-354 290,-360 290,-360 290,-388 290,-388 290,-394 284,-400 278,-400 278,-400 232,-400 232,-400 226,-400 220,-394 220,-388 220,-388 220,-360 220,-360 220,-354 226,-348 232,-348"/>
<text text-anchor="middle" x="255" y="-388.8" font-family="Helvetica,sans-Serif" font-weight="bold" font-size="9.00">dist</text>
</g>
<g id="clust16" class="cluster">
<title>cluster_packages/music&#45;structure</title>
<path fill="#ffffff" stroke="black" stroke-width="2" d="M373,-554C373,-554 479,-554 479,-554 485,-554 491,-560 491,-566 491,-566 491,-952 491,-952 491,-958 485,-964 479,-964 479,-964 373,-964 373,-964 367,-964 361,-958 361,-952 361,-952 361,-566 361,-566 361,-560 367,-554 373,-554"/>
<text text-anchor="middle" x="426" y="-952.8" font-family="Helvetica,sans-Serif" font-weight="bold" font-size="9.00">music&#45;structure</text>
</g>
<g id="clust17" class="cluster">
<title>cluster_packages/music&#45;structure/beat</title>
<path fill="#ffffff" stroke="black" stroke-width="2" d="M381,-818C381,-818 471,-818 471,-818 477,-818 483,-824 483,-830 483,-830 483,-926 483,-926 483,-932 477,-938 471,-938 471,-938 381,-938 381,-938 375,-938 369,-932 369,-926 369,-926 369,-830 369,-830 369,-824 375,-818 381,-818"/>
<text text-anchor="middle" x="426" y="-926.8" font-family="Helvetica,sans-Serif" font-weight="bold" font-size="9.00">beat</text>
</g>
<g id="clust18" class="cluster">
<title>cluster_packages/music&#45;structure/beat/beat&#45;estimation</title>
<path fill="#ffffff" stroke="black" stroke-width="2" d="M389,-826C389,-826 463,-826 463,-826 469,-826 475,-832 475,-838 475,-838 475,-900 475,-900 475,-906 469,-912 463,-912 463,-912 389,-912 389,-912 383,-912 377,-906 377,-900 377,-900 377,-838 377,-838 377,-832 383,-826 389,-826"/>
<text text-anchor="middle" x="426" y="-900.8" font-family="Helvetica,sans-Serif" font-weight="bold" font-size="9.00">beat&#45;estimation</text>
</g>
<g id="clust19" class="cluster">
<title>cluster_packages/music&#45;structure/beat/beat&#45;estimation/dist</title>
<path fill="#ffffff" stroke="black" stroke-width="2" d="M403,-834C403,-834 449,-834 449,-834 455,-834 461,-840 461,-846 461,-846 461,-874 461,-874 461,-880 455,-886 449,-886 449,-886 403,-886 403,-886 397,-886 391,-880 391,-874 391,-874 391,-846 391,-846 391,-840 397,-834 403,-834"/>
<text text-anchor="middle" x="426" y="-874.8" font-family="Helvetica,sans-Serif" font-weight="bold" font-size="9.00">dist</text>
</g>
<g id="clust20" class="cluster">
<title>cluster_packages/music&#45;structure/chord</title>
<path fill="#ffffff" stroke="black" stroke-width="2" d="M386,-690C386,-690 467,-690 467,-690 473,-690 479,-696 479,-702 479,-702 479,-798 479,-798 479,-804 473,-810 467,-810 467,-810 386,-810 386,-810 380,-810 374,-804 374,-798 374,-798 374,-702 374,-702 374,-696 380,-690 386,-690"/>
<text text-anchor="middle" x="426.5" y="-798.8" font-family="Helvetica,sans-Serif" font-weight="bold" font-size="9.00">chord</text>
</g>
<g id="clust21" class="cluster">
<title>cluster_packages/music&#45;structure/chord/chord&#45;analyze</title>
<path fill="#ffffff" stroke="black" stroke-width="2" d="M394,-698C394,-698 459,-698 459,-698 465,-698 471,-704 471,-710 471,-710 471,-772 471,-772 471,-778 465,-784 459,-784 459,-784 394,-784 394,-784 388,-784 382,-778 382,-772 382,-772 382,-710 382,-710 382,-704 388,-698 394,-698"/>
<text text-anchor="middle" x="426.5" y="-772.8" font-family="Helvetica,sans-Serif" font-weight="bold" font-size="9.00">chord&#45;analyze</text>
</g>
<g id="clust22" class="cluster">
<title>cluster_packages/music&#45;structure/chord/chord&#45;analyze/dist</title>
<path fill="#ffffff" stroke="black" stroke-width="2" d="M403,-706C403,-706 449,-706 449,-706 455,-706 461,-712 461,-718 461,-718 461,-746 461,-746 461,-752 455,-758 449,-758 449,-758 403,-758 403,-758 397,-758 391,-752 391,-746 391,-746 391,-718 391,-718 391,-712 397,-706 403,-706"/>
<text text-anchor="middle" x="426" y="-746.8" font-family="Helvetica,sans-Serif" font-weight="bold" font-size="9.00">dist</text>
</g>
<g id="clust23" class="cluster">
<title>cluster_packages/music&#45;structure/melody</title>
<path fill="#ffffff" stroke="black" stroke-width="2" d="M382,-562C382,-562 471,-562 471,-562 477,-562 483,-568 483,-574 483,-574 483,-670 483,-670 483,-676 477,-682 471,-682 471,-682 382,-682 382,-682 376,-682 370,-676 370,-670 370,-670 370,-574 370,-574 370,-568 376,-562 382,-562"/>
<text text-anchor="middle" x="426.5" y="-670.8" font-family="Helvetica,sans-Serif" font-weight="bold" font-size="9.00">melody</text>
</g>
<g id="clust24" class="cluster">
<title>cluster_packages/music&#45;structure/melody/melody&#45;analyze</title>
<path fill="#ffffff" stroke="black" stroke-width="2" d="M390,-570C390,-570 463,-570 463,-570 469,-570 475,-576 475,-582 475,-582 475,-644 475,-644 475,-650 469,-656 463,-656 463,-656 390,-656 390,-656 384,-656 378,-650 378,-644 378,-644 378,-582 378,-582 378,-576 384,-570 390,-570"/>
<text text-anchor="middle" x="426.5" y="-644.8" font-family="Helvetica,sans-Serif" font-weight="bold" font-size="9.00">melody&#45;analyze</text>
</g>
<g id="clust25" class="cluster">
<title>cluster_packages/music&#45;structure/melody/melody&#45;analyze/dist</title>
<path fill="#ffffff" stroke="black" stroke-width="2" d="M403,-578C403,-578 449,-578 449,-578 455,-578 461,-584 461,-590 461,-590 461,-618 461,-618 461,-624 455,-630 449,-630 449,-630 403,-630 403,-630 397,-630 391,-624 391,-618 391,-618 391,-590 391,-590 391,-584 397,-578 403,-578"/>
<text text-anchor="middle" x="426" y="-618.8" font-family="Helvetica,sans-Serif" font-weight="bold" font-size="9.00">dist</text>
</g>
<g id="clust26" class="cluster">
<title>cluster_packages/util</title>
<path fill="#ffffff" stroke="black" stroke-width="2" d="M216,-554C216,-554 294,-554 294,-554 300,-554 306,-560 306,-566 306,-566 306,-662 306,-662 306,-668 300,-674 294,-674 294,-674 216,-674 216,-674 210,-674 204,-668 204,-662 204,-662 204,-566 204,-566 204,-560 210,-554 216,-554"/>
<text text-anchor="middle" x="255" y="-662.8" font-family="Helvetica,sans-Serif" font-weight="bold" font-size="9.00">util</text>
</g>
<g id="clust27" class="cluster">
<title>cluster_packages/util/math</title>
<path fill="#ffffff" stroke="black" stroke-width="2" d="M224,-562C224,-562 286,-562 286,-562 292,-562 298,-568 298,-574 298,-574 298,-636 298,-636 298,-642 292,-648 286,-648 286,-648 224,-648 224,-648 218,-648 212,-642 212,-636 212,-636 212,-574 212,-574 212,-568 218,-562 224,-562"/>
<text text-anchor="middle" x="255" y="-636.8" font-family="Helvetica,sans-Serif" font-weight="bold" font-size="9.00">math</text>
</g>
<g id="clust28" class="cluster">
<title>cluster_packages/util/math/dist</title>
<path fill="#ffffff" stroke="black" stroke-width="2" d="M232,-570C232,-570 278,-570 278,-570 284,-570 290,-576 290,-582 290,-582 290,-610 290,-610 290,-616 284,-622 278,-622 278,-622 232,-622 232,-622 226,-622 220,-616 220,-610 220,-610 220,-582 220,-582 220,-576 226,-570 232,-570"/>
<text text-anchor="middle" x="255" y="-610.8" font-family="Helvetica,sans-Serif" font-weight="bold" font-size="9.00">dist</text>
</g>
<!-- packages/UI/piano&#45;roll/beat&#45;view/dist/index.js -->
<g id="node1" class="node">
<title>packages/UI/piano&#45;roll/beat&#45;view/dist/index.js</title>
<g id="a_node1"><a xlink:href="packages/UI/piano-roll/beat-view/dist/index.js" xlink:title="index.js">
<polygon fill="#ffffcc" stroke="black" points="453,-160 451.5,-162 441,-162 439.5,-160 399,-160 399,-142 453,-142 453,-160"/>
<text text-anchor="start" x="408.5" y="-148.8" font-family="Helvetica,sans-Serif" font-size="9.00">index.js</text>
</a>
</g>
</g>
<!-- packages/UI/piano&#45;roll/chord&#45;view/dist/index.js -->
<g id="node2" class="node">
<title>packages/UI/piano&#45;roll/chord&#45;view/dist/index.js</title>
<g id="a_node2"><a xlink:href="packages/UI/piano-roll/chord-view/dist/index.js" xlink:title="index.js">
<polygon fill="#ffffcc" stroke="black" points="453,-66 451.5,-68 441,-68 439.5,-66 399,-66 399,-48 453,-48 453,-66"/>
<text text-anchor="start" x="408.5" y="-54.8" font-family="Helvetica,sans-Serif" font-size="9.00">index.js</text>
</a>
</g>
</g>
<!-- packages/UI/piano&#45;roll/melody&#45;view/dist/index.js -->
<g id="node3" class="node">
<title>packages/UI/piano&#45;roll/melody&#45;view/dist/index.js</title>
<g id="a_node3"><a xlink:href="packages/UI/piano-roll/melody-view/dist/index.js" xlink:title="index.js">
<polygon fill="#ffffcc" stroke="black" points="453,-254 451.5,-256 441,-256 439.5,-254 399,-254 399,-236 453,-236 453,-254"/>
<text text-anchor="start" x="408.5" y="-242.8" font-family="Helvetica,sans-Serif" font-size="9.00">index.js</text>
</a>
</g>
</g>
<!-- packages/UI/piano&#45;roll/piano&#45;roll/index.ts -->
<g id="node4" class="node">
<title>packages/UI/piano&#45;roll/piano&#45;roll/index.ts</title>
<g id="a_node4"><a xlink:href="packages/UI/piano-roll/piano-roll/index.ts" xlink:title="index.ts">
<path fill="#ddfeff" stroke="black" d="M88,-247C88,-247 46,-247 46,-247 43,-247 40,-244 40,-241 40,-241 40,-235 40,-235 40,-232 43,-229 46,-229 46,-229 88,-229 88,-229 91,-229 94,-232 94,-235 94,-235 94,-241 94,-241 94,-244 91,-247 88,-247"/>
<text text-anchor="start" x="48.5" y="-235.8" font-family="Helvetica,sans-Serif" font-size="9.00">index.ts</text>
</a>
</g>
</g>
<!-- packages/UI/piano&#45;roll/piano&#45;roll/src/analysis&#45;view.ts -->
<g id="node5" class="node">
<title>packages/UI/piano&#45;roll/piano&#45;roll/src/analysis&#45;view.ts</title>
<g id="a_node5"><a xlink:href="packages/UI/piano-roll/piano-roll/src/analysis-view.ts" xlink:title="analysis&#45;view.ts">
<path fill="#ddfeff" stroke="black" d="M292,-254C292,-254 218,-254 218,-254 215,-254 212,-251 212,-248 212,-248 212,-242 212,-242 212,-239 215,-236 218,-236 218,-236 292,-236 292,-236 295,-236 298,-239 298,-242 298,-242 298,-248 298,-248 298,-251 295,-254 292,-254"/>
<text text-anchor="start" x="220" y="-242.8" font-family="Helvetica,sans-Serif" font-size="9.00">analysis&#45;view.ts</text>
</a>
</g>
</g>
<!-- packages/UI/piano&#45;roll/piano&#45;roll/index.ts&#45;&gt;packages/UI/piano&#45;roll/piano&#45;roll/src/analysis&#45;view.ts -->
<g id="edge1" class="edge">
<title>packages/UI/piano&#45;roll/piano&#45;roll/index.ts&#45;&gt;packages/UI/piano&#45;roll/piano&#45;roll/src/analysis&#45;view.ts</title>
<path fill="none" stroke="#000000" stroke-width="2" stroke-opacity="0.200000" d="M94.11,-231.86C98.68,-230.78 102,-230 102,-230 102,-230 180,-230 180,-230 180,-230 191.63,-232.36 205.67,-235.2"/>
<polygon fill="#000000" fill-opacity="0.200000" stroke="#000000" stroke-width="2" stroke-opacity="0.200000" points="211.39,-238.51 205.93,-235.26 212.23,-234.39 211.39,-238.51"/>
</g>
<!-- packages/UI/piano&#45;roll/piano&#45;roll/src/piano&#45;roll.ts -->
<g id="node6" class="node">
<title>packages/UI/piano&#45;roll/piano&#45;roll/src/piano&#45;roll.ts</title>
<g id="a_node6"><a xlink:href="packages/UI/piano-roll/piano-roll/src/piano-roll.ts" xlink:title="piano&#45;roll.ts">
<path fill="#ddfeff" stroke="black" d="M174,-254C174,-254 116,-254 116,-254 113,-254 110,-251 110,-248 110,-248 110,-242 110,-242 110,-239 113,-236 116,-236 116,-236 174,-236 174,-236 177,-236 180,-239 180,-242 180,-242 180,-248 180,-248 180,-251 177,-254 174,-254"/>
<text text-anchor="start" x="118" y="-242.8" font-family="Helvetica,sans-Serif" font-size="9.00">piano&#45;roll.ts</text>
</a>
</g>
</g>
<!-- packages/UI/piano&#45;roll/piano&#45;roll/index.ts&#45;&gt;packages/UI/piano&#45;roll/piano&#45;roll/src/piano&#45;roll.ts -->
<g id="edge2" class="edge">
<title>packages/UI/piano&#45;roll/piano&#45;roll/index.ts&#45;&gt;packages/UI/piano&#45;roll/piano&#45;roll/src/piano&#45;roll.ts</title>
<path fill="none" stroke="#000000" stroke-width="2" stroke-opacity="0.200000" d="M94.15,-240.41C97.16,-240.69 100.28,-240.97 103.42,-241.26"/>
<polygon fill="#000000" fill-opacity="0.200000" stroke="#000000" stroke-width="2" stroke-opacity="0.200000" points="109.69,-243.95 103.9,-241.31 110.07,-239.77 109.69,-243.95"/>
</g>
<!-- packages/UI/piano&#45;roll/piano&#45;roll/src/analysis&#45;view.ts&#45;&gt;packages/UI/piano&#45;roll/beat&#45;view/dist/index.js -->
<g id="edge4" class="edge">
<title>packages/UI/piano&#45;roll/piano&#45;roll/src/analysis&#45;view.ts&#45;&gt;packages/UI/piano&#45;roll/beat&#45;view/dist/index.js</title>
<path fill="none" stroke="#000000" stroke-width="2" stroke-opacity="0.200000" d="M272.2,-235.99C302.66,-219.05 368.48,-182.44 402.94,-163.27"/>
<polygon fill="#000000" fill-opacity="0.200000" stroke="#000000" stroke-width="2" stroke-opacity="0.200000" points="404.37,-164.88 408.6,-160.12 402.33,-161.21 404.37,-164.88"/>
</g>
<!-- packages/UI/piano&#45;roll/piano&#45;roll/src/analysis&#45;view.ts&#45;&gt;packages/UI/piano&#45;roll/chord&#45;view/dist/index.js -->
<g id="edge6" class="edge">
<title>packages/UI/piano&#45;roll/piano&#45;roll/src/analysis&#45;view.ts&#45;&gt;packages/UI/piano&#45;roll/chord&#45;view/dist/index.js</title>
<path fill="none" stroke="#000000" stroke-width="2" stroke-opacity="0.200000" d="M264.15,-235.93C291.41,-205.61 379.53,-107.58 412.44,-70.97"/>
<polygon fill="#000000" fill-opacity="0.200000" stroke="#000000" stroke-width="2" stroke-opacity="0.200000" points="414.08,-72.29 416.53,-66.42 410.96,-69.48 414.08,-72.29"/>
</g>
<!-- packages/UI/piano&#45;roll/piano&#45;roll/src/analysis&#45;view.ts&#45;&gt;packages/UI/piano&#45;roll/melody&#45;view/dist/index.js -->
<g id="edge8" class="edge">
<title>packages/UI/piano&#45;roll/piano&#45;roll/src/analysis&#45;view.ts&#45;&gt;packages/UI/piano&#45;roll/melody&#45;view/dist/index.js</title>
<path fill="none" stroke="#000000" stroke-width="2" stroke-opacity="0.200000" d="M298.21,-245C327.35,-245 365.54,-245 392.36,-245"/>
<polygon fill="#000000" fill-opacity="0.200000" stroke="#000000" stroke-width="2" stroke-opacity="0.200000" points="392.58,-247.1 398.58,-245 392.58,-242.9 392.58,-247.1"/>
</g>
<!-- packages/music&#45;structure/beat/beat&#45;estimation/dist/index.js -->
<g id="node7" class="node">
<title>packages/music&#45;structure/beat/beat&#45;estimation/dist/index.js</title>
<g id="a_node7"><a xlink:href="packages/music-structure/beat/beat-estimation/dist/index.js" xlink:title="index.js">
<polygon fill="#ffffcc" stroke="black" points="453,-860 451.5,-862 441,-862 439.5,-860 399,-860 399,-842 453,-842 453,-860"/>
<text text-anchor="start" x="408.5" y="-848.8" font-family="Helvetica,sans-Serif" font-size="9.00">index.js</text>
</a>
</g>
</g>
<!-- packages/UI/piano&#45;roll/piano&#45;roll/src/analysis&#45;view.ts&#45;&gt;packages/music&#45;structure/beat/beat&#45;estimation/dist/index.js -->
<g id="edge3" class="edge">
<title>packages/UI/piano&#45;roll/piano&#45;roll/src/analysis&#45;view.ts&#45;&gt;packages/music&#45;structure/beat/beat&#45;estimation/dist/index.js</title>
<path fill="none" stroke="#000000" stroke-width="2" stroke-opacity="0.200000" d="M261.35,-254.23C275.71,-278.98 314,-345 314,-345 314,-345 361,-761 361,-761 361,-761 396.77,-811.3 414.83,-836.69"/>
<polygon fill="#000000" fill-opacity="0.200000" stroke="#000000" stroke-width="2" stroke-opacity="0.200000" points="413.2,-838.03 418.39,-841.71 416.63,-835.6 413.2,-838.03"/>
</g>
<!-- packages/music&#45;structure/chord/chord&#45;analyze/dist/index.js -->
<g id="node8" class="node">
<title>packages/music&#45;structure/chord/chord&#45;analyze/dist/index.js</title>
<g id="a_node8"><a xlink:href="packages/music-structure/chord/chord-analyze/dist/index.js" xlink:title="index.js">
<polygon fill="#ffffcc" stroke="black" points="453,-732 451.5,-734 441,-734 439.5,-732 399,-732 399,-714 453,-714 453,-732"/>
<text text-anchor="start" x="408.5" y="-720.8" font-family="Helvetica,sans-Serif" font-size="9.00">index.js</text>
</a>
</g>
</g>
<!-- packages/UI/piano&#45;roll/piano&#45;roll/src/analysis&#45;view.ts&#45;&gt;packages/music&#45;structure/chord/chord&#45;analyze/dist/index.js -->
<g id="edge5" class="edge">
<title>packages/UI/piano&#45;roll/piano&#45;roll/src/analysis&#45;view.ts&#45;&gt;packages/music&#45;structure/chord/chord&#45;analyze/dist/index.js</title>
<path fill="none" stroke="#000000" stroke-width="2" stroke-opacity="0.200000" d="M261.35,-254.23C275.71,-278.98 314,-345 314,-345 314,-345 361,-633 361,-633 361,-633 396.77,-683.3 414.83,-708.69"/>
<polygon fill="#000000" fill-opacity="0.200000" stroke="#000000" stroke-width="2" stroke-opacity="0.200000" points="413.2,-710.03 418.39,-713.71 416.63,-707.6 413.2,-710.03"/>
</g>
<!-- packages/music&#45;structure/melody/melody&#45;analyze/dist/index.js -->
<g id="node9" class="node">
<title>packages/music&#45;structure/melody/melody&#45;analyze/dist/index.js</title>
<g id="a_node9"><a xlink:href="packages/music-structure/melody/melody-analyze/dist/index.js" xlink:title="index.js">
<polygon fill="#ffffcc" stroke="black" points="453,-604 451.5,-606 441,-606 439.5,-604 399,-604 399,-586 453,-586 453,-604"/>
<text text-anchor="start" x="408.5" y="-592.8" font-family="Helvetica,sans-Serif" font-size="9.00">index.js</text>
</a>
</g>
</g>
<!-- packages/UI/piano&#45;roll/piano&#45;roll/src/analysis&#45;view.ts&#45;&gt;packages/music&#45;structure/melody/melody&#45;analyze/dist/index.js -->
<g id="edge7" class="edge">
<title>packages/UI/piano&#45;roll/piano&#45;roll/src/analysis&#45;view.ts&#45;&gt;packages/music&#45;structure/melody/melody&#45;analyze/dist/index.js</title>
<path fill="none" stroke="#000000" stroke-width="2" stroke-opacity="0.200000" d="M261.35,-254.23C275.71,-278.98 314,-345 314,-345 314,-345 394.56,-526.45 418.42,-580.18"/>
<polygon fill="#000000" fill-opacity="0.200000" stroke="#000000" stroke-width="2" stroke-opacity="0.200000" points="416.56,-581.17 420.92,-585.81 420.4,-579.47 416.56,-581.17"/>
</g>
<!-- packages/UI/piano&#45;roll/piano&#45;roll/src/piano&#45;roll.ts&#45;&gt;packages/UI/piano&#45;roll/chord&#45;view/dist/index.js -->
<g id="edge10" class="edge">
<title>packages/UI/piano&#45;roll/piano&#45;roll/src/piano&#45;roll.ts&#45;&gt;packages/UI/piano&#45;roll/chord&#45;view/dist/index.js</title>
<path fill="none" stroke="#000000" stroke-width="2" stroke-opacity="0.200000" d="M159.46,-235.93C205.02,-205.23 353.6,-105.12 406.27,-69.62"/>
<polygon fill="#000000" fill-opacity="0.200000" stroke="#000000" stroke-width="2" stroke-opacity="0.200000" points="407.55,-71.29 411.35,-66.2 405.2,-67.81 407.55,-71.29"/>
</g>
<!-- packages/UI/piano&#45;roll/piano&#45;roll/src/piano&#45;roll.ts&#45;&gt;packages/UI/piano&#45;roll/piano&#45;roll/src/analysis&#45;view.ts -->
<g id="edge9" class="edge">
<title>packages/UI/piano&#45;roll/piano&#45;roll/src/piano&#45;roll.ts&#45;&gt;packages/UI/piano&#45;roll/piano&#45;roll/src/analysis&#45;view.ts</title>
<path fill="none" stroke="#000000" stroke-width="2" stroke-opacity="0.200000" d="M180.17,-245C188.15,-245 196.8,-245 205.27,-245"/>
<polygon fill="#000000" fill-opacity="0.200000" stroke="#000000" stroke-width="2" stroke-opacity="0.200000" points="205.7,-247.1 211.7,-245 205.7,-242.9 205.7,-247.1"/>
</g>
<!-- packages/util/math/dist/index.js -->
<g id="node10" class="node">
<title>packages/util/math/dist/index.js</title>
<g id="a_node10"><a xlink:href="packages/util/math/dist/index.js" xlink:title="index.js">
<polygon fill="#ffffcc" stroke="black" points="282,-596 280.5,-598 270,-598 268.5,-596 228,-596 228,-578 282,-578 282,-596"/>
<text text-anchor="start" x="237.5" y="-584.8" font-family="Helvetica,sans-Serif" font-size="9.00">index.js</text>
</a>
</g>
</g>
<!-- packages/UI/piano&#45;roll/piano&#45;roll/src/piano&#45;roll.ts&#45;&gt;packages/util/math/dist/index.js -->
<g id="edge11" class="edge">
<title>packages/UI/piano&#45;roll/piano&#45;roll/src/piano&#45;roll.ts&#45;&gt;packages/util/math/dist/index.js</title>
<path fill="none" stroke="#000000" stroke-width="2" stroke-opacity="0.200000" d="M148.13,-254.27C158.6,-299.73 204,-497 204,-497 204,-497 231.71,-546.88 245.87,-572.37"/>
<polygon fill="#000000" fill-opacity="0.200000" stroke="#000000" stroke-width="2" stroke-opacity="0.200000" points="244.09,-573.48 248.84,-577.71 247.76,-571.44 244.09,-573.48"/>
</g>
<!-- packages/UI/view/dist/index.js -->
<g id="node11" class="node">
<title>packages/UI/view/dist/index.js</title>
<g id="a_node11"><a xlink:href="packages/UI/view/dist/index.js" xlink:title="index.js">
<polygon fill="#ffffcc" stroke="black" points="282,-374 280.5,-376 270,-376 268.5,-374 228,-374 228,-356 282,-356 282,-374"/>
<text text-anchor="start" x="237.5" y="-362.8" font-family="Helvetica,sans-Serif" font-size="9.00">index.js</text>
</a>
</g>
</g>
<!-- packages/UI/piano&#45;roll/piano&#45;roll/src/piano&#45;roll.ts&#45;&gt;packages/UI/view/dist/index.js -->
<g id="edge12" class="edge">
<title>packages/UI/piano&#45;roll/piano&#45;roll/src/piano&#45;roll.ts&#45;&gt;packages/UI/view/dist/index.js</title>
<path fill="none" stroke="#000000" stroke-width="2" stroke-opacity="0.200000" d="M154.12,-254.02C172.88,-274.87 219.36,-326.51 241.66,-351.29"/>
<polygon fill="#000000" fill-opacity="0.200000" stroke="#000000" stroke-width="2" stroke-opacity="0.200000" points="240.21,-352.82 245.79,-355.88 243.34,-350.01 240.21,-352.82"/>
</g>
<!-- packages/UI/view&#45;parameters/dist/index.js -->
<g id="node12" class="node">
<title>packages/UI/view&#45;parameters/dist/index.js</title>
<g id="a_node12"><a xlink:href="packages/UI/view-parameters/dist/index.js" xlink:title="index.js">
<polygon fill="#ffffcc" stroke="black" points="282,-468 280.5,-470 270,-470 268.5,-468 228,-468 228,-450 282,-450 282,-468"/>
<text text-anchor="start" x="237.5" y="-456.8" font-family="Helvetica,sans-Serif" font-size="9.00">index.js</text>
</a>
</g>
</g>
<!-- packages/UI/piano&#45;roll/piano&#45;roll/src/piano&#45;roll.ts&#45;&gt;packages/UI/view&#45;parameters/dist/index.js -->
<g id="edge13" class="edge">
<title>packages/UI/piano&#45;roll/piano&#45;roll/src/piano&#45;roll.ts&#45;&gt;packages/UI/view&#45;parameters/dist/index.js</title>
<path fill="none" stroke="#000000" stroke-width="2" stroke-opacity="0.200000" d="M149.45,-254.41C161.94,-288.42 204,-403 204,-403 204,-403 226.62,-428.33 241.43,-444.92"/>
<polygon fill="#000000" fill-opacity="0.200000" stroke="#000000" stroke-width="2" stroke-opacity="0.200000" points="240.18,-446.68 245.74,-449.75 243.31,-443.88 240.18,-446.68"/>
</g>
</g>
</svg>
