<?xml version="1.0" encoding="UTF-8" standalone="no"?>
<!DOCTYPE svg PUBLIC "-//W3C//DTD SVG 1.1//EN"
 "http://www.w3.org/Graphics/SVG/1.1/DTD/svg11.dtd">
<!-- Generated by graphviz version 2.43.0 (0)
 -->
<!-- Title: dependency&#45;cruiser output Pages: 1 -->
<svg width="633pt" height="758pt"
 viewBox="0.00 0.00 633.34 757.65" xmlns="http://www.w3.org/2000/svg" xmlns:xlink="http://www.w3.org/1999/xlink">
<g id="graph0" class="graph" transform="scale(1 1) rotate(0) translate(4 753.65)">
<title>dependency&#45;cruiser output</title>
<polygon fill="white" stroke="transparent" points="-4,4 -4,-753.65 629.34,-753.65 629.34,4 -4,4"/>
<g id="clust1" class="cluster">
<title>cluster_packages</title>
<path fill="#ffffff" stroke="black" stroke-width="2" d="M12,0C12,0 613.34,0 613.34,0 619.34,0 625.34,-6 625.34,-12 625.34,-12 625.34,-737.65 625.34,-737.65 625.34,-743.65 619.34,-749.65 613.34,-749.65 613.34,-749.65 12,-749.65 12,-749.65 6,-749.65 0,-743.65 0,-737.65 0,-737.65 0,-12 0,-12 0,-6 6,0 12,0"/>
<text text-anchor="middle" x="312.67" y="-738.45" font-family="Helvetica,sans-Serif" font-weight="bold" font-size="9.00">packages</text>
</g>
<!-- packages/UI/piano&#45;roll/beat&#45;view/dist/index.js -->
<g id="node1" class="node">
<title>packages/UI/piano&#45;roll/beat&#45;view/dist/index.js</title>
<g id="a_node1"><a xlink:href="packages/UI/piano-roll/beat-view/dist/index.js" xlink:title="index.js">
<polygon fill="#ffffcc" stroke="black" points="161.9,-111.38 160.4,-113.38 149.9,-113.38 148.4,-111.38 107.9,-111.38 107.9,-93.38 161.9,-93.38 161.9,-111.38"/>
<text text-anchor="start" x="117.4" y="-100.18" font-family="Helvetica,sans-Serif" font-size="9.00">index.js</text>
</a>
</g>
</g>
<!-- packages/UI/piano&#45;roll/chord&#45;view/dist/index.js -->
<g id="node2" class="node">
<title>packages/UI/piano&#45;roll/chord&#45;view/dist/index.js</title>
<g id="a_node2"><a xlink:href="packages/UI/piano-roll/chord-view/dist/index.js" xlink:title="index.js">
<polygon fill="#ffffcc" stroke="black" points="409.53,-221.58 408.03,-223.58 397.53,-223.58 396.03,-221.58 355.53,-221.58 355.53,-203.58 409.53,-203.58 409.53,-221.58"/>
<text text-anchor="start" x="365.03" y="-210.38" font-family="Helvetica,sans-Serif" font-size="9.00">index.js</text>
</a>
</g>
</g>
<!-- packages/UI/piano&#45;roll/melody&#45;view/dist/index.js -->
<g id="node3" class="node">
<title>packages/UI/piano&#45;roll/melody&#45;view/dist/index.js</title>
<g id="a_node3"><a xlink:href="packages/UI/piano-roll/melody-view/dist/index.js" xlink:title="index.js">
<polygon fill="#ffffcc" stroke="black" points="305.72,-18 304.22,-20 293.72,-20 292.22,-18 251.72,-18 251.72,0 305.72,0 305.72,-18"/>
<text text-anchor="start" x="261.22" y="-6.8" font-family="Helvetica,sans-Serif" font-size="9.00">index.js</text>
</a>
</g>
</g>
<!-- packages/UI/piano&#45;roll/piano&#45;roll/index.ts -->
<g id="node4" class="node">
<title>packages/UI/piano&#45;roll/piano&#45;roll/index.ts</title>
<g id="a_node4"><a xlink:href="packages/UI/piano-roll/piano-roll/index.ts" xlink:title="index.ts">
<path fill="#ddfeff" stroke="black" d="M52.73,-252.1C52.73,-252.1 10.73,-252.1 10.73,-252.1 7.73,-252.1 4.73,-249.1 4.73,-246.1 4.73,-246.1 4.73,-240.1 4.73,-240.1 4.73,-237.1 7.73,-234.1 10.73,-234.1 10.73,-234.1 52.73,-234.1 52.73,-234.1 55.73,-234.1 58.73,-237.1 58.73,-240.1 58.73,-240.1 58.73,-246.1 58.73,-246.1 58.73,-249.1 55.73,-252.1 52.73,-252.1"/>
<text text-anchor="start" x="13.23" y="-240.9" font-family="Helvetica,sans-Serif" font-size="9.00">index.ts</text>
</a>
</g>
</g>
<!-- packages/UI/piano&#45;roll/piano&#45;roll/src/index.ts -->
<g id="node5" class="node">
<title>packages/UI/piano&#45;roll/piano&#45;roll/src/index.ts</title>
<g id="a_node5"><a xlink:href="packages/UI/piano-roll/piano-roll/src/index.ts" xlink:title="index.ts">
<path fill="#ddfeff" stroke="black" d="M203.89,-258.37C203.89,-258.37 161.89,-258.37 161.89,-258.37 158.89,-258.37 155.89,-255.37 155.89,-252.37 155.89,-252.37 155.89,-246.37 155.89,-246.37 155.89,-243.37 158.89,-240.37 161.89,-240.37 161.89,-240.37 203.89,-240.37 203.89,-240.37 206.89,-240.37 209.89,-243.37 209.89,-246.37 209.89,-246.37 209.89,-252.37 209.89,-252.37 209.89,-255.37 206.89,-258.37 203.89,-258.37"/>
<text text-anchor="start" x="164.39" y="-247.17" font-family="Helvetica,sans-Serif" font-size="9.00">index.ts</text>
</a>
</g>
</g>
<!-- packages/UI/piano&#45;roll/piano&#45;roll/index.ts&#45;&gt;packages/UI/piano&#45;roll/piano&#45;roll/src/index.ts -->
<g id="edge1" class="edge">
<title>packages/UI/piano&#45;roll/piano&#45;roll/index.ts&#45;&gt;packages/UI/piano&#45;roll/piano&#45;roll/src/index.ts</title>
<path fill="none" stroke="#000000" stroke-width="2" stroke-opacity="0.200000" d="M58.75,-244.22C84.25,-245.28 122.54,-246.86 149.85,-248"/>
<polygon fill="#000000" fill-opacity="0.200000" stroke="#000000" stroke-width="2" stroke-opacity="0.200000" points="155.76,-250.34 149.85,-248 155.93,-246.15 155.76,-250.34"/>
</g>
<!-- packages/UI/piano&#45;roll/piano&#45;roll/src/analysis&#45;view.ts -->
<g id="node6" class="node">
<title>packages/UI/piano&#45;roll/piano&#45;roll/src/analysis&#45;view.ts</title>
<g id="a_node6"><a xlink:href="packages/UI/piano-roll/piano-roll/src/analysis-view.ts" xlink:title="analysis&#45;view.ts">
<path fill="#ddfeff" stroke="black" d="M297.9,-252.05C297.9,-252.05 223.9,-252.05 223.9,-252.05 220.9,-252.05 217.9,-249.05 217.9,-246.05 217.9,-246.05 217.9,-240.05 217.9,-240.05 217.9,-237.05 220.9,-234.05 223.9,-234.05 223.9,-234.05 297.9,-234.05 297.9,-234.05 300.9,-234.05 303.9,-237.05 303.9,-240.05 303.9,-240.05 303.9,-246.05 303.9,-246.05 303.9,-249.05 300.9,-252.05 297.9,-252.05"/>
<text text-anchor="start" x="225.9" y="-240.85" font-family="Helvetica,sans-Serif" font-size="9.00">analysis&#45;view.ts</text>
</a>
</g>
</g>
<!-- packages/UI/piano&#45;roll/piano&#45;roll/src/index.ts&#45;&gt;packages/UI/piano&#45;roll/piano&#45;roll/src/analysis&#45;view.ts -->
<g id="edge3" class="edge">
<title>packages/UI/piano&#45;roll/piano&#45;roll/src/index.ts&#45;&gt;packages/UI/piano&#45;roll/piano&#45;roll/src/analysis&#45;view.ts</title>
<path fill="none" stroke="#000000" stroke-width="2" stroke-opacity="0.200000" d="M210.17,-247.16C210.63,-247.12 211.1,-247.08 211.56,-247.05"/>
<polygon fill="#000000" fill-opacity="0.200000" stroke="#000000" stroke-width="2" stroke-opacity="0.200000" points="217.88,-248.64 211.73,-247.03 217.55,-244.45 217.88,-248.64"/>
</g>
<!-- packages/UI/piano&#45;roll/piano&#45;roll/src/music&#45;structure&#45;elements.ts -->
<g id="node7" class="node">
<title>packages/UI/piano&#45;roll/piano&#45;roll/src/music&#45;structure&#45;elements.ts</title>
<g id="a_node7"><a xlink:href="packages/UI/piano-roll/piano-roll/src/music-structure-elements.ts" xlink:title="music&#45;structure&#45;elements.ts">
<path fill="#ddfeff" stroke="black" d="M351.46,-159.78C351.46,-159.78 219.46,-159.78 219.46,-159.78 216.46,-159.78 213.46,-156.78 213.46,-153.78 213.46,-153.78 213.46,-147.78 213.46,-147.78 213.46,-144.78 216.46,-141.78 219.46,-141.78 219.46,-141.78 351.46,-141.78 351.46,-141.78 354.46,-141.78 357.46,-144.78 357.46,-147.78 357.46,-147.78 357.46,-153.78 357.46,-153.78 357.46,-156.78 354.46,-159.78 351.46,-159.78"/>
<text text-anchor="start" x="221.46" y="-148.58" font-family="Helvetica,sans-Serif" font-size="9.00">music&#45;structure&#45;elements.ts</text>
</a>
</g>
</g>
<!-- packages/UI/piano&#45;roll/piano&#45;roll/src/index.ts&#45;&gt;packages/UI/piano&#45;roll/piano&#45;roll/src/music&#45;structure&#45;elements.ts -->
<g id="edge4" class="edge">
<title>packages/UI/piano&#45;roll/piano&#45;roll/src/index.ts&#45;&gt;packages/UI/piano&#45;roll/piano&#45;roll/src/music&#45;structure&#45;elements.ts</title>
<path fill="none" stroke="#000000" stroke-width="2" stroke-opacity="0.200000" d="M192.35,-240.27C210.52,-222.81 250.34,-184.53 271.54,-164.15"/>
<polygon fill="#000000" fill-opacity="0.200000" stroke="#000000" stroke-width="2" stroke-opacity="0.200000" points="277.47,-161.37 271.69,-164.01 274.56,-158.34 277.47,-161.37"/>
</g>
<!-- packages/UI/piano&#45;roll/piano&#45;roll/src/piano&#45;roll.ts -->
<g id="node8" class="node">
<title>packages/UI/piano&#45;roll/piano&#45;roll/src/piano&#45;roll.ts</title>
<g id="a_node8"><a xlink:href="packages/UI/piano-roll/piano-roll/src/piano-roll.ts" xlink:title="piano&#45;roll.ts">
<path fill="#ddfeff" stroke="black" d="M350.4,-328.5C350.4,-328.5 292.4,-328.5 292.4,-328.5 289.4,-328.5 286.4,-325.5 286.4,-322.5 286.4,-322.5 286.4,-316.5 286.4,-316.5 286.4,-313.5 289.4,-310.5 292.4,-310.5 292.4,-310.5 350.4,-310.5 350.4,-310.5 353.4,-310.5 356.4,-313.5 356.4,-316.5 356.4,-316.5 356.4,-322.5 356.4,-322.5 356.4,-325.5 353.4,-328.5 350.4,-328.5"/>
<text text-anchor="start" x="294.4" y="-317.3" font-family="Helvetica,sans-Serif" font-size="9.00">piano&#45;roll.ts</text>
</a>
</g>
</g>
<!-- packages/UI/piano&#45;roll/piano&#45;roll/src/index.ts&#45;&gt;packages/UI/piano&#45;roll/piano&#45;roll/src/piano&#45;roll.ts -->
<g id="edge5" class="edge">
<title>packages/UI/piano&#45;roll/piano&#45;roll/src/index.ts&#45;&gt;packages/UI/piano&#45;roll/piano&#45;roll/src/piano&#45;roll.ts</title>
<path fill="none" stroke="#000000" stroke-width="2" stroke-opacity="0.200000" d="M200.71,-258.39C225.41,-270.89 270.08,-293.51 297.6,-307.45"/>
<polygon fill="#000000" fill-opacity="0.200000" stroke="#000000" stroke-width="2" stroke-opacity="0.200000" points="302.25,-312.16 297.85,-307.57 304.15,-308.41 302.25,-312.16"/>
</g>
<!-- packages/UI/piano&#45;roll/piano&#45;roll/src/analysis&#45;view.ts&#45;&gt;packages/UI/piano&#45;roll/piano&#45;roll/src/music&#45;structure&#45;elements.ts -->
<g id="edge2" class="edge">
<title>packages/UI/piano&#45;roll/piano&#45;roll/src/analysis&#45;view.ts&#45;&gt;packages/UI/piano&#45;roll/piano&#45;roll/src/music&#45;structure&#45;elements.ts</title>
<path fill="none" stroke="#000000" stroke-width="2" stroke-opacity="0.200000" d="M263.34,-233.87C267.57,-217.98 276.29,-185.21 281.43,-165.91"/>
<polygon fill="#000000" fill-opacity="0.200000" stroke="#000000" stroke-width="2" stroke-opacity="0.200000" points="283.51,-166.27 283.02,-159.93 279.45,-165.18 283.51,-166.27"/>
</g>
<!-- packages/UI/piano&#45;roll/piano&#45;roll/src/music&#45;structure&#45;elements.ts&#45;&gt;packages/UI/piano&#45;roll/beat&#45;view/dist/index.js -->
<g id="edge7" class="edge">
<title>packages/UI/piano&#45;roll/piano&#45;roll/src/music&#45;structure&#45;elements.ts&#45;&gt;packages/UI/piano&#45;roll/beat&#45;view/dist/index.js</title>
<path fill="none" stroke="#000000" stroke-width="2" stroke-opacity="0.200000" d="M257.14,-141.68C231.8,-133.53 194.63,-121.58 167.94,-113"/>
<polygon fill="#000000" fill-opacity="0.200000" stroke="#000000" stroke-width="2" stroke-opacity="0.200000" points="168.43,-110.95 162.08,-111.12 167.15,-114.95 168.43,-110.95"/>
</g>
<!-- packages/UI/piano&#45;roll/piano&#45;roll/src/music&#45;structure&#45;elements.ts&#45;&gt;packages/UI/piano&#45;roll/chord&#45;view/dist/index.js -->
<g id="edge9" class="edge">
<title>packages/UI/piano&#45;roll/piano&#45;roll/src/music&#45;structure&#45;elements.ts&#45;&gt;packages/UI/piano&#45;roll/chord&#45;view/dist/index.js</title>
<path fill="none" stroke="#000000" stroke-width="2" stroke-opacity="0.200000" d="M299.78,-159.9C316.41,-170.49 343.95,-188.02 362.65,-199.93"/>
<polygon fill="#000000" fill-opacity="0.200000" stroke="#000000" stroke-width="2" stroke-opacity="0.200000" points="361.96,-201.98 368.15,-203.43 364.21,-198.43 361.96,-201.98"/>
</g>
<!-- packages/UI/piano&#45;roll/piano&#45;roll/src/music&#45;structure&#45;elements.ts&#45;&gt;packages/UI/piano&#45;roll/melody&#45;view/dist/index.js -->
<g id="edge11" class="edge">
<title>packages/UI/piano&#45;roll/piano&#45;roll/src/music&#45;structure&#45;elements.ts&#45;&gt;packages/UI/piano&#45;roll/melody&#45;view/dist/index.js</title>
<path fill="none" stroke="#000000" stroke-width="2" stroke-opacity="0.200000" d="M285.01,-141.48C283.88,-117.54 280.84,-53.62 279.44,-24.2"/>
<polygon fill="#000000" fill-opacity="0.200000" stroke="#000000" stroke-width="2" stroke-opacity="0.200000" points="281.54,-24.05 279.16,-18.15 277.34,-24.25 281.54,-24.05"/>
</g>
<!-- packages/music&#45;structure/beat/beat&#45;estimation/dist/index.js -->
<g id="node9" class="node">
<title>packages/music&#45;structure/beat/beat&#45;estimation/dist/index.js</title>
<g id="a_node9"><a xlink:href="packages/music-structure/beat/beat-estimation/dist/index.js" xlink:title="index.js">
<polygon fill="#ffffcc" stroke="black" points="218.88,-46.61 217.38,-48.61 206.88,-48.61 205.38,-46.61 164.88,-46.61 164.88,-28.61 218.88,-28.61 218.88,-46.61"/>
<text text-anchor="start" x="174.38" y="-35.41" font-family="Helvetica,sans-Serif" font-size="9.00">index.js</text>
</a>
</g>
</g>
<!-- packages/UI/piano&#45;roll/piano&#45;roll/src/music&#45;structure&#45;elements.ts&#45;&gt;packages/music&#45;structure/beat/beat&#45;estimation/dist/index.js -->
<g id="edge6" class="edge">
<title>packages/UI/piano&#45;roll/piano&#45;roll/src/music&#45;structure&#45;elements.ts&#45;&gt;packages/music&#45;structure/beat/beat&#45;estimation/dist/index.js</title>
<path fill="none" stroke="#000000" stroke-width="2" stroke-opacity="0.200000" d="M277.8,-141.52C261.4,-121.69 222.83,-75.03 203.43,-51.58"/>
<polygon fill="#000000" fill-opacity="0.200000" stroke="#000000" stroke-width="2" stroke-opacity="0.200000" points="204.82,-49.96 199.38,-46.68 201.59,-52.64 204.82,-49.96"/>
</g>
<!-- packages/music&#45;structure/chord/chord&#45;analyze/dist/index.js -->
<g id="node10" class="node">
<title>packages/music&#45;structure/chord/chord&#45;analyze/dist/index.js</title>
<g id="a_node10"><a xlink:href="packages/music-structure/chord/chord-analyze/dist/index.js" xlink:title="index.js">
<polygon fill="#ffffcc" stroke="black" points="460.91,-89.82 459.41,-91.82 448.91,-91.82 447.41,-89.82 406.91,-89.82 406.91,-71.82 460.91,-71.82 460.91,-89.82"/>
<text text-anchor="start" x="416.41" y="-78.62" font-family="Helvetica,sans-Serif" font-size="9.00">index.js</text>
</a>
</g>
</g>
<!-- packages/UI/piano&#45;roll/piano&#45;roll/src/music&#45;structure&#45;elements.ts&#45;&gt;packages/music&#45;structure/chord/chord&#45;analyze/dist/index.js -->
<g id="edge8" class="edge">
<title>packages/UI/piano&#45;roll/piano&#45;roll/src/music&#45;structure&#45;elements.ts&#45;&gt;packages/music&#45;structure/chord/chord&#45;analyze/dist/index.js</title>
<path fill="none" stroke="#000000" stroke-width="2" stroke-opacity="0.200000" d="M304.56,-141.78C331.14,-129.25 379.31,-106.55 408.78,-92.67"/>
<polygon fill="#000000" fill-opacity="0.200000" stroke="#000000" stroke-width="2" stroke-opacity="0.200000" points="409.88,-94.47 414.41,-90.01 408.09,-90.67 409.88,-94.47"/>
</g>
<!-- packages/music&#45;structure/melody/melody&#45;analyze/dist/index.js -->
<g id="node11" class="node">
<title>packages/music&#45;structure/melody/melody&#45;analyze/dist/index.js</title>
<g id="a_node11"><a xlink:href="packages/music-structure/melody/melody-analyze/dist/index.js" xlink:title="index.js">
<polygon fill="#ffffcc" stroke="black" points="394.82,-35.6 393.32,-37.6 382.82,-37.6 381.32,-35.6 340.82,-35.6 340.82,-17.6 394.82,-17.6 394.82,-35.6"/>
<text text-anchor="start" x="350.32" y="-24.4" font-family="Helvetica,sans-Serif" font-size="9.00">index.js</text>
</a>
</g>
</g>
<!-- packages/UI/piano&#45;roll/piano&#45;roll/src/music&#45;structure&#45;elements.ts&#45;&gt;packages/music&#45;structure/melody/melody&#45;analyze/dist/index.js -->
<g id="edge10" class="edge">
<title>packages/UI/piano&#45;roll/piano&#45;roll/src/music&#45;structure&#45;elements.ts&#45;&gt;packages/music&#45;structure/melody/melody&#45;analyze/dist/index.js</title>
<path fill="none" stroke="#000000" stroke-width="2" stroke-opacity="0.200000" d="M291.65,-141.44C305.97,-119.85 341.45,-66.36 358.45,-40.73"/>
<polygon fill="#000000" fill-opacity="0.200000" stroke="#000000" stroke-width="2" stroke-opacity="0.200000" points="360.22,-41.86 361.79,-35.7 356.72,-39.54 360.22,-41.86"/>
</g>
<!-- packages/UI/piano&#45;roll/piano&#45;roll/src/piano&#45;roll.ts&#45;&gt;packages/UI/piano&#45;roll/chord&#45;view/dist/index.js -->
<g id="edge14" class="edge">
<title>packages/UI/piano&#45;roll/piano&#45;roll/src/piano&#45;roll.ts&#45;&gt;packages/UI/piano&#45;roll/chord&#45;view/dist/index.js</title>
<path fill="none" stroke="#000000" stroke-width="2" stroke-opacity="0.200000" d="M326.61,-310.38C337.26,-291.76 361.57,-249.23 374.35,-226.89"/>
<polygon fill="#000000" fill-opacity="0.200000" stroke="#000000" stroke-width="2" stroke-opacity="0.200000" points="376.18,-227.93 377.33,-221.68 372.53,-225.84 376.18,-227.93"/>
</g>
<!-- packages/UI/piano&#45;roll/piano&#45;roll/src/piano&#45;roll.ts&#45;&gt;packages/UI/piano&#45;roll/piano&#45;roll/src/analysis&#45;view.ts -->
<g id="edge12" class="edge">
<title>packages/UI/piano&#45;roll/piano&#45;roll/src/piano&#45;roll.ts&#45;&gt;packages/UI/piano&#45;roll/piano&#45;roll/src/analysis&#45;view.ts</title>
<path fill="none" stroke="#000000" stroke-width="2" stroke-opacity="0.200000" d="M314.22,-310.43C303.76,-297.21 284.23,-272.54 271.94,-257"/>
<polygon fill="#000000" fill-opacity="0.200000" stroke="#000000" stroke-width="2" stroke-opacity="0.200000" points="273.44,-255.51 268.07,-252.11 270.14,-258.12 273.44,-255.51"/>
</g>
<!-- packages/UI/piano&#45;roll/piano&#45;roll/src/piano&#45;roll.ts&#45;&gt;packages/UI/piano&#45;roll/piano&#45;roll/src/music&#45;structure&#45;elements.ts -->
<g id="edge13" class="edge">
<title>packages/UI/piano&#45;roll/piano&#45;roll/src/piano&#45;roll.ts&#45;&gt;packages/UI/piano&#45;roll/piano&#45;roll/src/music&#45;structure&#45;elements.ts</title>
<path fill="none" stroke="#000000" stroke-width="2" stroke-opacity="0.200000" d="M319.47,-310.42C313.62,-282.96 296.05,-200.49 288.72,-166.1"/>
<polygon fill="#000000" fill-opacity="0.200000" stroke="#000000" stroke-width="2" stroke-opacity="0.200000" points="290.7,-165.33 287.4,-159.89 286.59,-166.2 290.7,-165.33"/>
</g>
<!-- packages/UI/svg&#45;objects/dist/index.js -->
<g id="node12" class="node">
<title>packages/UI/svg&#45;objects/dist/index.js</title>
<g id="a_node12"><a xlink:href="packages/UI/svg-objects/dist/index.js" xlink:title="index.js">
<polygon fill="#ffffcc" stroke="black" points="215.54,-386.88 214.04,-388.88 203.54,-388.88 202.04,-386.88 161.54,-386.88 161.54,-368.88 215.54,-368.88 215.54,-386.88"/>
<text text-anchor="start" x="171.04" y="-375.68" font-family="Helvetica,sans-Serif" font-size="9.00">index.js</text>
</a>
</g>
</g>
<!-- packages/UI/piano&#45;roll/piano&#45;roll/src/piano&#45;roll.ts&#45;&gt;packages/UI/svg&#45;objects/dist/index.js -->
<g id="edge15" class="edge">
<title>packages/UI/piano&#45;roll/piano&#45;roll/src/piano&#45;roll.ts&#45;&gt;packages/UI/svg&#45;objects/dist/index.js</title>
<path fill="none" stroke="#000000" stroke-width="2" stroke-opacity="0.200000" d="M300.64,-328.62C277.53,-338.77 240.14,-355.21 214.96,-366.27"/>
<polygon fill="#000000" fill-opacity="0.200000" stroke="#000000" stroke-width="2" stroke-opacity="0.200000" points="213.8,-364.49 209.15,-368.82 215.49,-368.33 213.8,-364.49"/>
</g>
<!-- packages/UI/view&#45;parameters/src/piano&#45;roll/piano&#45;roll&#45;height.ts -->
<g id="node13" class="node">
<title>packages/UI/view&#45;parameters/src/piano&#45;roll/piano&#45;roll&#45;height.ts</title>
<g id="a_node13"><a xlink:href="packages/UI/view-parameters/src/piano-roll/piano-roll-height.ts" xlink:title="piano&#45;roll&#45;height.ts">
<path fill="#ddfeff" stroke="black" d="M340.87,-486.23C340.87,-486.23 250.87,-486.23 250.87,-486.23 247.87,-486.23 244.87,-483.23 244.87,-480.23 244.87,-480.23 244.87,-474.23 244.87,-474.23 244.87,-471.23 247.87,-468.23 250.87,-468.23 250.87,-468.23 340.87,-468.23 340.87,-468.23 343.87,-468.23 346.87,-471.23 346.87,-474.23 346.87,-474.23 346.87,-480.23 346.87,-480.23 346.87,-483.23 343.87,-486.23 340.87,-486.23"/>
<text text-anchor="start" x="252.87" y="-475.03" font-family="Helvetica,sans-Serif" font-size="9.00">piano&#45;roll&#45;height.ts</text>
</a>
</g>
</g>
<!-- packages/UI/piano&#45;roll/piano&#45;roll/src/piano&#45;roll.ts&#45;&gt;packages/UI/view&#45;parameters/src/piano&#45;roll/piano&#45;roll&#45;height.ts -->
<g id="edge16" class="edge">
<title>packages/UI/piano&#45;roll/piano&#45;roll/src/piano&#45;roll.ts&#45;&gt;packages/UI/view&#45;parameters/src/piano&#45;roll/piano&#45;roll&#45;height.ts</title>
<path fill="none" stroke="#000000" stroke-width="2" stroke-opacity="0.200000" d="M319.88,-328.89C315.63,-355.14 303.6,-429.47 298.36,-461.84"/>
<polygon fill="#000000" fill-opacity="0.200000" stroke="#000000" stroke-width="2" stroke-opacity="0.200000" points="296.24,-461.82 297.35,-468.08 300.39,-462.49 296.24,-461.82"/>
</g>
<!-- packages/UI/view&#45;parameters/src/piano&#45;roll/piano&#45;roll&#45;width.ts -->
<g id="node14" class="node">
<title>packages/UI/view&#45;parameters/src/piano&#45;roll/piano&#45;roll&#45;width.ts</title>
<g id="a_node14"><a xlink:href="packages/UI/view-parameters/src/piano-roll/piano-roll-width.ts" xlink:title="piano&#45;roll&#45;width.ts">
<path fill="#ddfeff" stroke="black" d="M446.89,-447.88C446.89,-447.88 360.89,-447.88 360.89,-447.88 357.89,-447.88 354.89,-444.88 354.89,-441.88 354.89,-441.88 354.89,-435.88 354.89,-435.88 354.89,-432.88 357.89,-429.88 360.89,-429.88 360.89,-429.88 446.89,-429.88 446.89,-429.88 449.89,-429.88 452.89,-432.88 452.89,-435.88 452.89,-435.88 452.89,-441.88 452.89,-441.88 452.89,-444.88 449.89,-447.88 446.89,-447.88"/>
<text text-anchor="start" x="362.89" y="-436.68" font-family="Helvetica,sans-Serif" font-size="9.00">piano&#45;roll&#45;width.ts</text>
</a>
</g>
</g>
<!-- packages/UI/piano&#45;roll/piano&#45;roll/src/piano&#45;roll.ts&#45;&gt;packages/UI/view&#45;parameters/src/piano&#45;roll/piano&#45;roll&#45;width.ts -->
<g id="edge17" class="edge">
<title>packages/UI/piano&#45;roll/piano&#45;roll/src/piano&#45;roll.ts&#45;&gt;packages/UI/view&#45;parameters/src/piano&#45;roll/piano&#45;roll&#45;width.ts</title>
<path fill="none" stroke="#000000" stroke-width="2" stroke-opacity="0.200000" d="M327.87,-328.86C342.21,-349.61 376.72,-399.56 393.87,-424.38"/>
<polygon fill="#000000" fill-opacity="0.200000" stroke="#000000" stroke-width="2" stroke-opacity="0.200000" points="392.3,-425.81 397.44,-429.56 395.76,-423.43 392.3,-425.81"/>
</g>
<!-- packages/UI/view/src/reflectable/window&#45;reflectable.ts -->
<g id="node15" class="node">
<title>packages/UI/view/src/reflectable/window&#45;reflectable.ts</title>
<g id="a_node15"><a xlink:href="packages/UI/view/src/reflectable/window-reflectable.ts" xlink:title="window&#45;reflectable.ts">
<path fill="#ddfeff" stroke="black" d="M514.77,-352.19C514.77,-352.19 413.77,-352.19 413.77,-352.19 410.77,-352.19 407.77,-349.19 407.77,-346.19 407.77,-346.19 407.77,-340.19 407.77,-340.19 407.77,-337.19 410.77,-334.19 413.77,-334.19 413.77,-334.19 514.77,-334.19 514.77,-334.19 517.77,-334.19 520.77,-337.19 520.77,-340.19 520.77,-340.19 520.77,-346.19 520.77,-346.19 520.77,-349.19 517.77,-352.19 514.77,-352.19"/>
<text text-anchor="start" x="415.77" y="-340.99" font-family="Helvetica,sans-Serif" font-size="9.00">window&#45;reflectable.ts</text>
</a>
</g>
</g>
<!-- packages/UI/piano&#45;roll/piano&#45;roll/src/piano&#45;roll.ts&#45;&gt;packages/UI/view/src/reflectable/window&#45;reflectable.ts -->
<g id="edge18" class="edge">
<title>packages/UI/piano&#45;roll/piano&#45;roll/src/piano&#45;roll.ts&#45;&gt;packages/UI/view/src/reflectable/window&#45;reflectable.ts</title>
<path fill="none" stroke="#000000" stroke-width="2" stroke-opacity="0.200000" d="M356.72,-325.35C370.87,-327.7 387.59,-330.47 403.57,-333.12"/>
<polygon fill="#000000" fill-opacity="0.200000" stroke="#000000" stroke-width="2" stroke-opacity="0.200000" points="403.63,-335.26 409.89,-334.17 404.32,-331.12 403.63,-335.26"/>
</g>
<!-- packages/UI/view/src/reflectable/window&#45;reflectable&#45;registry.ts -->
<g id="node16" class="node">
<title>packages/UI/view/src/reflectable/window&#45;reflectable&#45;registry.ts</title>
<g id="a_node16"><a xlink:href="packages/UI/view/src/reflectable/window-reflectable-registry.ts" xlink:title="window&#45;reflectable&#45;registry.ts">
<path fill="#ddfeff" stroke="black" d="M550.49,-277.1C550.49,-277.1 413.49,-277.1 413.49,-277.1 410.49,-277.1 407.49,-274.1 407.49,-271.1 407.49,-271.1 407.49,-265.1 407.49,-265.1 407.49,-262.1 410.49,-259.1 413.49,-259.1 413.49,-259.1 550.49,-259.1 550.49,-259.1 553.49,-259.1 556.49,-262.1 556.49,-265.1 556.49,-265.1 556.49,-271.1 556.49,-271.1 556.49,-274.1 553.49,-277.1 550.49,-277.1"/>
<text text-anchor="start" x="415.49" y="-265.9" font-family="Helvetica,sans-Serif" font-size="9.00">window&#45;reflectable&#45;registry.ts</text>
</a>
</g>
</g>
<!-- packages/UI/piano&#45;roll/piano&#45;roll/src/piano&#45;roll.ts&#45;&gt;packages/UI/view/src/reflectable/window&#45;reflectable&#45;registry.ts -->
<g id="edge19" class="edge">
<title>packages/UI/piano&#45;roll/piano&#45;roll/src/piano&#45;roll.ts&#45;&gt;packages/UI/view/src/reflectable/window&#45;reflectable&#45;registry.ts</title>
<path fill="none" stroke="#000000" stroke-width="2" stroke-opacity="0.200000" d="M349.74,-310.43C377.06,-301.68 418.45,-288.44 447.63,-279.1"/>
<polygon fill="#000000" fill-opacity="0.200000" stroke="#000000" stroke-width="2" stroke-opacity="0.200000" points="448.59,-281 453.66,-277.17 447.31,-277 448.59,-281"/>
</g>
<!-- packages/UI/view&#45;parameters/src/piano&#45;roll/octave&#45;count.ts -->
<g id="node17" class="node">
<title>packages/UI/view&#45;parameters/src/piano&#45;roll/octave&#45;count.ts</title>
<g id="a_node17"><a xlink:href="packages/UI/view-parameters/src/piano-roll/octave-count.ts" xlink:title="octave&#45;count.ts">
<path fill="#ddfeff" stroke="black" d="M221.75,-603.29C221.75,-603.29 146.75,-603.29 146.75,-603.29 143.75,-603.29 140.75,-600.29 140.75,-597.29 140.75,-597.29 140.75,-591.29 140.75,-591.29 140.75,-588.29 143.75,-585.29 146.75,-585.29 146.75,-585.29 221.75,-585.29 221.75,-585.29 224.75,-585.29 227.75,-588.29 227.75,-591.29 227.75,-591.29 227.75,-597.29 227.75,-597.29 227.75,-600.29 224.75,-603.29 221.75,-603.29"/>
<text text-anchor="start" x="148.75" y="-592.09" font-family="Helvetica,sans-Serif" font-size="9.00">octave&#45;count.ts</text>
</a>
</g>
</g>
<!-- packages/UI/view&#45;parameters/src/piano&#45;roll/piano&#45;roll&#45;height.ts&#45;&gt;packages/UI/view&#45;parameters/src/piano&#45;roll/octave&#45;count.ts -->
<g id="edge24" class="edge">
<title>packages/UI/view&#45;parameters/src/piano&#45;roll/piano&#45;roll&#45;height.ts&#45;&gt;packages/UI/view&#45;parameters/src/piano&#45;roll/octave&#45;count.ts</title>
<path fill="none" stroke="#000000" stroke-width="2" stroke-opacity="0.200000" d="M287.12,-486.41C267.55,-506.93 220.23,-556.56 197.23,-580.68"/>
<polygon fill="#000000" fill-opacity="0.200000" stroke="#000000" stroke-width="2" stroke-opacity="0.200000" points="195.59,-579.36 192.97,-585.15 198.63,-582.26 195.59,-579.36"/>
</g>
<!-- packages/UI/view&#45;parameters/src/piano&#45;roll/piano&#45;roll&#45;constants.ts -->
<g id="node20" class="node">
<title>packages/UI/view&#45;parameters/src/piano&#45;roll/piano&#45;roll&#45;constants.ts</title>
<g id="a_node20"><a xlink:href="packages/UI/view-parameters/src/piano-roll/piano-roll-constants.ts" xlink:title="piano&#45;roll&#45;constants.ts">
<path fill="#ddfeff" stroke="black" d="M511.81,-556.87C511.81,-556.87 406.81,-556.87 406.81,-556.87 403.81,-556.87 400.81,-553.87 400.81,-550.87 400.81,-550.87 400.81,-544.87 400.81,-544.87 400.81,-541.87 403.81,-538.87 406.81,-538.87 406.81,-538.87 511.81,-538.87 511.81,-538.87 514.81,-538.87 517.81,-541.87 517.81,-544.87 517.81,-544.87 517.81,-550.87 517.81,-550.87 517.81,-553.87 514.81,-556.87 511.81,-556.87"/>
<text text-anchor="start" x="408.81" y="-545.67" font-family="Helvetica,sans-Serif" font-size="9.00">piano&#45;roll&#45;constants.ts</text>
</a>
</g>
</g>
<!-- packages/UI/view&#45;parameters/src/piano&#45;roll/piano&#45;roll&#45;height.ts&#45;&gt;packages/UI/view&#45;parameters/src/piano&#45;roll/piano&#45;roll&#45;constants.ts -->
<g id="edge25" class="edge">
<title>packages/UI/view&#45;parameters/src/piano&#45;roll/piano&#45;roll&#45;height.ts&#45;&gt;packages/UI/view&#45;parameters/src/piano&#45;roll/piano&#45;roll&#45;constants.ts</title>
<path fill="none" stroke="#000000" stroke-width="2" stroke-opacity="0.200000" d="M316.91,-486.32C346.45,-499.09 400.24,-522.34 432.58,-536.32"/>
<polygon fill="#000000" fill-opacity="0.200000" stroke="#000000" stroke-width="2" stroke-opacity="0.200000" points="432.02,-538.36 438.36,-538.82 433.69,-534.51 432.02,-538.36"/>
</g>
<!-- packages/UI/view&#45;parameters/src/piano&#45;roll/windowInnerWidth.ts -->
<g id="node22" class="node">
<title>packages/UI/view&#45;parameters/src/piano&#45;roll/windowInnerWidth.ts</title>
<g id="a_node22"><a xlink:href="packages/UI/view-parameters/src/piano-roll/windowInnerWidth.ts" xlink:title="windowInnerWidth.ts">
<path fill="#ddfeff" stroke="black" d="M434.66,-602.17C434.66,-602.17 333.66,-602.17 333.66,-602.17 330.66,-602.17 327.66,-599.17 327.66,-596.17 327.66,-596.17 327.66,-590.17 327.66,-590.17 327.66,-587.17 330.66,-584.17 333.66,-584.17 333.66,-584.17 434.66,-584.17 434.66,-584.17 437.66,-584.17 440.66,-587.17 440.66,-590.17 440.66,-590.17 440.66,-596.17 440.66,-596.17 440.66,-599.17 437.66,-602.17 434.66,-602.17"/>
<text text-anchor="start" x="335.66" y="-590.97" font-family="Helvetica,sans-Serif" font-size="9.00">windowInnerWidth.ts</text>
</a>
</g>
</g>
<!-- packages/UI/view&#45;parameters/src/piano&#45;roll/piano&#45;roll&#45;width.ts&#45;&gt;packages/UI/view&#45;parameters/src/piano&#45;roll/windowInnerWidth.ts -->
<g id="edge26" class="edge">
<title>packages/UI/view&#45;parameters/src/piano&#45;roll/piano&#45;roll&#45;width.ts&#45;&gt;packages/UI/view&#45;parameters/src/piano&#45;roll/windowInnerWidth.ts</title>
<path fill="none" stroke="#000000" stroke-width="2" stroke-opacity="0.200000" d="M402.71,-448.07C399.44,-473.63 390.22,-545.77 386.15,-577.67"/>
<polygon fill="#000000" fill-opacity="0.200000" stroke="#000000" stroke-width="2" stroke-opacity="0.200000" points="384.04,-577.62 385.36,-583.84 388.2,-578.15 384.04,-577.62"/>
</g>
<!-- packages/UI/view/src/reflectable/window&#45;reflectable&#45;registry.ts&#45;&gt;packages/UI/view/src/reflectable/window&#45;reflectable.ts -->
<g id="edge27" class="edge">
<title>packages/UI/view/src/reflectable/window&#45;reflectable&#45;registry.ts&#45;&gt;packages/UI/view/src/reflectable/window&#45;reflectable.ts</title>
<path fill="none" stroke="#000000" stroke-width="2" stroke-opacity="0.200000" d="M479.82,-277.31C476.84,-289.92 471.46,-312.73 467.88,-327.91"/>
<polygon fill="#000000" fill-opacity="0.200000" stroke="#000000" stroke-width="2" stroke-opacity="0.200000" points="465.8,-327.58 466.46,-333.91 469.88,-328.55 465.8,-327.58"/>
</g>
<!-- packages/UI/view&#45;parameters/src/piano&#45;roll/piano&#45;roll&#45;begin.ts -->
<g id="node18" class="node">
<title>packages/UI/view&#45;parameters/src/piano&#45;roll/piano&#45;roll&#45;begin.ts</title>
<g id="a_node18"><a xlink:href="packages/UI/view-parameters/src/piano-roll/piano-roll-begin.ts" xlink:title="piano&#45;roll&#45;begin.ts">
<path fill="#ddfeff" stroke="black" d="M231.87,-749.65C231.87,-749.65 145.87,-749.65 145.87,-749.65 142.87,-749.65 139.87,-746.65 139.87,-743.65 139.87,-743.65 139.87,-737.65 139.87,-737.65 139.87,-734.65 142.87,-731.65 145.87,-731.65 145.87,-731.65 231.87,-731.65 231.87,-731.65 234.87,-731.65 237.87,-734.65 237.87,-737.65 237.87,-737.65 237.87,-743.65 237.87,-743.65 237.87,-746.65 234.87,-749.65 231.87,-749.65"/>
<text text-anchor="start" x="147.87" y="-738.45" font-family="Helvetica,sans-Serif" font-size="9.00">piano&#45;roll&#45;begin.ts</text>
</a>
</g>
</g>
<!-- packages/UI/view&#45;parameters/src/piano&#45;roll/octave&#45;count.ts&#45;&gt;packages/UI/view&#45;parameters/src/piano&#45;roll/piano&#45;roll&#45;begin.ts -->
<g id="edge20" class="edge">
<title>packages/UI/view&#45;parameters/src/piano&#45;roll/octave&#45;count.ts&#45;&gt;packages/UI/view&#45;parameters/src/piano&#45;roll/piano&#45;roll&#45;begin.ts</title>
<path fill="none" stroke="#000000" stroke-width="2" stroke-opacity="0.200000" d="M184.54,-603.45C185.31,-627.88 187.42,-694.84 188.38,-725.26"/>
<polygon fill="#000000" fill-opacity="0.200000" stroke="#000000" stroke-width="2" stroke-opacity="0.200000" points="186.29,-725.56 188.58,-731.49 190.49,-725.43 186.29,-725.56"/>
</g>
<!-- packages/UI/view&#45;parameters/src/piano&#45;roll/piano&#45;roll&#45;end.ts -->
<g id="node19" class="node">
<title>packages/UI/view&#45;parameters/src/piano&#45;roll/piano&#45;roll&#45;end.ts</title>
<g id="a_node19"><a xlink:href="packages/UI/view-parameters/src/piano-roll/piano-roll-end.ts" xlink:title="piano&#45;roll&#45;end.ts">
<path fill="#ddfeff" stroke="black" d="M84,-654.8C84,-654.8 6,-654.8 6,-654.8 3,-654.8 0,-651.8 0,-648.8 0,-648.8 0,-642.8 0,-642.8 0,-639.8 3,-636.8 6,-636.8 6,-636.8 84,-636.8 84,-636.8 87,-636.8 90,-639.8 90,-642.8 90,-642.8 90,-648.8 90,-648.8 90,-651.8 87,-654.8 84,-654.8"/>
<text text-anchor="start" x="8" y="-643.6" font-family="Helvetica,sans-Serif" font-size="9.00">piano&#45;roll&#45;end.ts</text>
</a>
</g>
</g>
<!-- packages/UI/view&#45;parameters/src/piano&#45;roll/octave&#45;count.ts&#45;&gt;packages/UI/view&#45;parameters/src/piano&#45;roll/piano&#45;roll&#45;end.ts -->
<g id="edge21" class="edge">
<title>packages/UI/view&#45;parameters/src/piano&#45;roll/octave&#45;count.ts&#45;&gt;packages/UI/view&#45;parameters/src/piano&#45;roll/piano&#45;roll&#45;end.ts</title>
<path fill="none" stroke="#000000" stroke-width="2" stroke-opacity="0.200000" d="M159.68,-603.38C136.26,-612.05 100.92,-625.12 75.67,-634.46"/>
<polygon fill="#000000" fill-opacity="0.200000" stroke="#000000" stroke-width="2" stroke-opacity="0.200000" points="74.7,-632.58 69.8,-636.63 76.15,-636.52 74.7,-632.58"/>
</g>
<!-- packages/UI/view&#45;parameters/src/piano&#45;roll/piano&#45;roll&#45;constants.ts&#45;&gt;packages/UI/view&#45;parameters/src/piano&#45;roll/piano&#45;roll&#45;width.ts -->
<g id="edge23" class="edge">
<title>packages/UI/view&#45;parameters/src/piano&#45;roll/piano&#45;roll&#45;constants.ts&#45;&gt;packages/UI/view&#45;parameters/src/piano&#45;roll/piano&#45;roll&#45;width.ts</title>
<path fill="none" stroke="#000000" stroke-width="2" stroke-opacity="0.200000" d="M454.59,-538.58C444.98,-519.68 423.07,-476.61 411.45,-453.76"/>
<polygon fill="#000000" fill-opacity="0.200000" stroke="#000000" stroke-width="2" stroke-opacity="0.200000" points="413.19,-452.55 408.6,-448.15 409.45,-454.45 413.19,-452.55"/>
</g>
<!-- packages/UI/view&#45;parameters/src/rect&#45;parameter.ts -->
<g id="node21" class="node">
<title>packages/UI/view&#45;parameters/src/rect&#45;parameter.ts</title>
<g id="a_node21"><a xlink:href="packages/UI/view-parameters/src/rect-parameter.ts" xlink:title="rect&#45;parameter.ts">
<path fill="#ddfeff" stroke="black" d="M619.34,-641.23C619.34,-641.23 536.34,-641.23 536.34,-641.23 533.34,-641.23 530.34,-638.23 530.34,-635.23 530.34,-635.23 530.34,-629.23 530.34,-629.23 530.34,-626.23 533.34,-623.23 536.34,-623.23 536.34,-623.23 619.34,-623.23 619.34,-623.23 622.34,-623.23 625.34,-626.23 625.34,-629.23 625.34,-629.23 625.34,-635.23 625.34,-635.23 625.34,-638.23 622.34,-641.23 619.34,-641.23"/>
<text text-anchor="start" x="538.34" y="-630.03" font-family="Helvetica,sans-Serif" font-size="9.00">rect&#45;parameter.ts</text>
</a>
</g>
</g>
<!-- packages/UI/view&#45;parameters/src/piano&#45;roll/piano&#45;roll&#45;constants.ts&#45;&gt;packages/UI/view&#45;parameters/src/rect&#45;parameter.ts -->
<g id="edge22" class="edge">
<title>packages/UI/view&#45;parameters/src/piano&#45;roll/piano&#45;roll&#45;constants.ts&#45;&gt;packages/UI/view&#45;parameters/src/rect&#45;parameter.ts</title>
<path fill="none" stroke="#000000" stroke-width="2" stroke-opacity="0.200000" d="M472,-556.9C493.1,-571.91 535.47,-602.07 559.72,-619.33"/>
<polygon fill="#000000" fill-opacity="0.200000" stroke="#000000" stroke-width="2" stroke-opacity="0.200000" points="558.78,-621.24 564.89,-623.01 561.22,-617.82 558.78,-621.24"/>
</g>
</g>
</svg>
