<?xml version="1.0" encoding="UTF-8" standalone="no"?>
<!DOCTYPE svg PUBLIC "-//W3C//DTD SVG 1.1//EN"
 "http://www.w3.org/Graphics/SVG/1.1/DTD/svg11.dtd">
<!-- Generated by graphviz version 2.43.0 (0)
 -->
<!-- Title: dependency&#45;cruiser output Pages: 1 -->
<svg width="295pt" height="244pt"
 viewBox="0.00 0.00 295.05 244.12" xmlns="http://www.w3.org/2000/svg" xmlns:xlink="http://www.w3.org/1999/xlink">
<g id="graph0" class="graph" transform="scale(1 1) rotate(0) translate(4 240.12)">
<title>dependency&#45;cruiser output</title>
<polygon fill="white" stroke="transparent" points="-4,4 -4,-240.12 291.05,-240.12 291.05,4 -4,4"/>
<g id="clust1" class="cluster">
<title>cluster_packages</title>
<path fill="#ffffff" stroke="black" stroke-width="2" d="M12,0C12,0 275.05,0 275.05,0 281.05,0 287.05,-6 287.05,-12 287.05,-12 287.05,-224.12 287.05,-224.12 287.05,-230.12 281.05,-236.12 275.05,-236.12 275.05,-236.12 12,-236.12 12,-236.12 6,-236.12 0,-230.12 0,-224.12 0,-224.12 0,-12 0,-12 0,-6 6,0 12,0"/>
<text text-anchor="middle" x="143.53" y="-224.92" font-family="Helvetica,sans-Serif" font-weight="bold" font-size="9.00">packages</text>
</g>
<!-- packages/util/math/fft/array/complex.ts -->
<g id="node1" class="node">
<title>packages/util/math/fft/array/complex.ts</title>
<g id="a_node1"><a xlink:href="packages/util/math/fft/array/complex.ts" xlink:title="complex.ts">
<path fill="#ddfeff" stroke="black" d="M172,-196.31C172,-196.31 118,-196.31 118,-196.31 115,-196.31 112,-193.31 112,-190.31 112,-190.31 112,-184.31 112,-184.31 112,-181.31 115,-178.31 118,-178.31 118,-178.31 172,-178.31 172,-178.31 175,-178.31 178,-181.31 178,-184.31 178,-184.31 178,-190.31 178,-190.31 178,-193.31 175,-196.31 172,-196.31"/>
<text text-anchor="start" x="120" y="-185.11" font-family="Helvetica,sans-Serif" font-size="9.00">complex.ts</text>
</a>
</g>
</g>
<!-- packages/util/math/fft/array/ftt&#45;core.ts -->
<g id="node2" class="node">
<title>packages/util/math/fft/array/ftt&#45;core.ts</title>
<g id="a_node2"><a xlink:href="packages/util/math/fft/array/ftt-core.ts" xlink:title="ftt&#45;core.ts">
<path fill="#ddfeff" stroke="black" d="M230.76,-170.3C230.76,-170.3 181.76,-170.3 181.76,-170.3 178.76,-170.3 175.76,-167.3 175.76,-164.3 175.76,-164.3 175.76,-158.3 175.76,-158.3 175.76,-155.3 178.76,-152.3 181.76,-152.3 181.76,-152.3 230.76,-152.3 230.76,-152.3 233.76,-152.3 236.76,-155.3 236.76,-158.3 236.76,-158.3 236.76,-164.3 236.76,-164.3 236.76,-167.3 233.76,-170.3 230.76,-170.3"/>
<text text-anchor="start" x="183.76" y="-159.1" font-family="Helvetica,sans-Serif" font-size="9.00">ftt&#45;core.ts</text>
</a>
</g>
</g>
<!-- packages/util/math/fft/array/ftt&#45;core.ts&#45;&gt;packages/util/math/fft/array/complex.ts -->
<g id="edge1" class="edge">
<title>packages/util/math/fft/array/ftt&#45;core.ts&#45;&gt;packages/util/math/fft/array/complex.ts</title>
<path fill="none" stroke="#000000" stroke-width="2" stroke-opacity="0.200000" d="M184.83,-170.4C180.75,-172.13 176.43,-173.96 172.2,-175.76"/>
<polygon fill="#000000" fill-opacity="0.200000" stroke="#000000" stroke-width="2" stroke-opacity="0.200000" points="171.22,-173.89 166.52,-178.17 172.86,-177.76 171.22,-173.89"/>
</g>
<!-- packages/util/math/fft/array/root&#45;of&#45;unity.ts -->
<g id="node3" class="node">
<title>packages/util/math/fft/array/root&#45;of&#45;unity.ts</title>
<g id="a_node3"><a xlink:href="packages/util/math/fft/array/root-of-unity.ts" xlink:title="root&#45;of&#45;unity.ts">
<path fill="#ddfeff" stroke="black" d="M281.05,-116C281.05,-116 210.05,-116 210.05,-116 207.05,-116 204.05,-113 204.05,-110 204.05,-110 204.05,-104 204.05,-104 204.05,-101 207.05,-98 210.05,-98 210.05,-98 281.05,-98 281.05,-98 284.05,-98 287.05,-101 287.05,-104 287.05,-104 287.05,-110 287.05,-110 287.05,-113 284.05,-116 281.05,-116"/>
<text text-anchor="start" x="212.05" y="-104.8" font-family="Helvetica,sans-Serif" font-size="9.00">root&#45;of&#45;unity.ts</text>
</a>
</g>
</g>
<!-- packages/util/math/fft/array/ftt&#45;core.ts&#45;&gt;packages/util/math/fft/array/root&#45;of&#45;unity.ts -->
<g id="edge2" class="edge">
<title>packages/util/math/fft/array/ftt&#45;core.ts&#45;&gt;packages/util/math/fft/array/root&#45;of&#45;unity.ts</title>
<path fill="none" stroke="#000000" stroke-width="2" stroke-opacity="0.200000" d="M213.1,-151.84C219.19,-143.43 228.18,-131.01 235.15,-121.38"/>
<polygon fill="#000000" fill-opacity="0.200000" stroke="#000000" stroke-width="2" stroke-opacity="0.200000" points="236.97,-122.44 238.79,-116.35 233.57,-119.98 236.97,-122.44"/>
</g>
<!-- packages/util/math/fft/array/index.ts -->
<g id="node4" class="node">
<title>packages/util/math/fft/array/index.ts</title>
<g id="a_node4"><a xlink:href="packages/util/math/fft/array/index.ts" xlink:title="index.ts">
<path fill="#ddfeff" stroke="black" d="M218.17,-236.12C218.17,-236.12 176.17,-236.12 176.17,-236.12 173.17,-236.12 170.17,-233.12 170.17,-230.12 170.17,-230.12 170.17,-224.12 170.17,-224.12 170.17,-221.12 173.17,-218.12 176.17,-218.12 176.17,-218.12 218.17,-218.12 218.17,-218.12 221.17,-218.12 224.17,-221.12 224.17,-224.12 224.17,-224.12 224.17,-230.12 224.17,-230.12 224.17,-233.12 221.17,-236.12 218.17,-236.12"/>
<text text-anchor="start" x="178.67" y="-224.92" font-family="Helvetica,sans-Serif" font-size="9.00">index.ts</text>
</a>
</g>
</g>
<!-- packages/util/math/fft/array/index.ts&#45;&gt;packages/util/math/fft/array/complex.ts -->
<g id="edge3" class="edge">
<title>packages/util/math/fft/array/index.ts&#45;&gt;packages/util/math/fft/array/complex.ts</title>
<path fill="none" stroke="#000000" stroke-width="2" stroke-opacity="0.200000" d="M185.33,-218.09C178.49,-212.87 169.77,-206.21 162.18,-200.42"/>
<polygon fill="#000000" fill-opacity="0.200000" stroke="#000000" stroke-width="2" stroke-opacity="0.200000" points="163.2,-198.55 157.15,-196.58 160.65,-201.89 163.2,-198.55"/>
</g>
<!-- packages/util/math/fft/array/index.ts&#45;&gt;packages/util/math/fft/array/ftt&#45;core.ts -->
<g id="edge4" class="edge">
<title>packages/util/math/fft/array/index.ts&#45;&gt;packages/util/math/fft/array/ftt&#45;core.ts</title>
<path fill="none" stroke="#000000" stroke-width="2" stroke-opacity="0.200000" d="M198.43,-217.97C199.91,-207.26 202.38,-189.37 204.15,-176.55"/>
<polygon fill="#000000" fill-opacity="0.200000" stroke="#000000" stroke-width="2" stroke-opacity="0.200000" points="206.27,-176.61 205.01,-170.38 202.1,-176.03 206.27,-176.61"/>
</g>
<!-- packages/util/math/fft/complex.ts -->
<g id="node5" class="node">
<title>packages/util/math/fft/complex.ts</title>
<g id="a_node5"><a xlink:href="packages/util/math/fft/complex.ts" xlink:title="complex.ts">
<path fill="#ddfeff" stroke="black" d="M60,-47.45C60,-47.45 6,-47.45 6,-47.45 3,-47.45 0,-44.45 0,-41.45 0,-41.45 0,-35.45 0,-35.45 0,-32.45 3,-29.45 6,-29.45 6,-29.45 60,-29.45 60,-29.45 63,-29.45 66,-32.45 66,-35.45 66,-35.45 66,-41.45 66,-41.45 66,-44.45 63,-47.45 60,-47.45"/>
<text text-anchor="start" x="8" y="-36.25" font-family="Helvetica,sans-Serif" font-size="9.00">complex.ts</text>
</a>
</g>
</g>
<!-- packages/util/math/fft/ftt&#45;core.ts -->
<g id="node6" class="node">
<title>packages/util/math/fft/ftt&#45;core.ts</title>
<g id="a_node6"><a xlink:href="packages/util/math/fft/ftt-core.ts" xlink:title="ftt&#45;core.ts">
<path fill="#ddfeff" stroke="black" d="M129.01,-46.86C129.01,-46.86 80.01,-46.86 80.01,-46.86 77.01,-46.86 74.01,-43.86 74.01,-40.86 74.01,-40.86 74.01,-34.86 74.01,-34.86 74.01,-31.86 77.01,-28.86 80.01,-28.86 80.01,-28.86 129.01,-28.86 129.01,-28.86 132.01,-28.86 135.01,-31.86 135.01,-34.86 135.01,-34.86 135.01,-40.86 135.01,-40.86 135.01,-43.86 132.01,-46.86 129.01,-46.86"/>
<text text-anchor="start" x="82.01" y="-35.66" font-family="Helvetica,sans-Serif" font-size="9.00">ftt&#45;core.ts</text>
</a>
</g>
</g>
<!-- packages/util/math/fft/ftt&#45;core.ts&#45;&gt;packages/util/math/fft/complex.ts -->
<g id="edge5" class="edge">
<title>packages/util/math/fft/ftt&#45;core.ts&#45;&gt;packages/util/math/fft/complex.ts</title>
<path fill="none" stroke="#000000" stroke-width="2" stroke-opacity="0.200000" d="M73.77,-38.11C73.46,-38.12 73.16,-38.12 72.86,-38.12"/>
<polygon fill="#000000" fill-opacity="0.200000" stroke="#000000" stroke-width="2" stroke-opacity="0.200000" points="72.43,-36.03 66.45,-38.17 72.47,-40.23 72.43,-36.03"/>
</g>
<!-- packages/util/math/fft/root&#45;of&#45;unity.ts -->
<g id="node7" class="node">
<title>packages/util/math/fft/root&#45;of&#45;unity.ts</title>
<g id="a_node7"><a xlink:href="packages/util/math/fft/root-of-unity.ts" xlink:title="root&#45;of&#45;unity.ts">
<path fill="#ddfeff" stroke="black" d="M103.92,-18C103.92,-18 32.92,-18 32.92,-18 29.92,-18 26.92,-15 26.92,-12 26.92,-12 26.92,-6 26.92,-6 26.92,-3 29.92,0 32.92,0 32.92,0 103.92,0 103.92,0 106.92,0 109.92,-3 109.92,-6 109.92,-6 109.92,-12 109.92,-12 109.92,-15 106.92,-18 103.92,-18"/>
<text text-anchor="start" x="34.92" y="-6.8" font-family="Helvetica,sans-Serif" font-size="9.00">root&#45;of&#45;unity.ts</text>
</a>
</g>
</g>
<!-- packages/util/math/fft/ftt&#45;core.ts&#45;&gt;packages/util/math/fft/root&#45;of&#45;unity.ts -->
<g id="edge6" class="edge">
<title>packages/util/math/fft/ftt&#45;core.ts&#45;&gt;packages/util/math/fft/root&#45;of&#45;unity.ts</title>
<path fill="none" stroke="#000000" stroke-width="2" stroke-opacity="0.200000" d="M93.09,-28.73C90.51,-26.67 87.72,-24.43 84.97,-22.24"/>
<polygon fill="#000000" fill-opacity="0.200000" stroke="#000000" stroke-width="2" stroke-opacity="0.200000" points="86.14,-20.48 80.14,-18.37 83.51,-23.76 86.14,-20.48"/>
</g>
<!-- packages/util/math/fft/root&#45;of&#45;unity.ts&#45;&gt;packages/util/math/fft/complex.ts -->
<g id="edge10" class="edge">
<title>packages/util/math/fft/root&#45;of&#45;unity.ts&#45;&gt;packages/util/math/fft/complex.ts</title>
<path fill="none" stroke="#000000" stroke-width="2" stroke-opacity="0.200000" d="M57.22,-18.32C54.58,-20.51 51.72,-22.89 48.92,-25.21"/>
<polygon fill="#000000" fill-opacity="0.200000" stroke="#000000" stroke-width="2" stroke-opacity="0.200000" points="47.29,-23.84 44.01,-29.29 49.97,-27.07 47.29,-23.84"/>
</g>
<!-- packages/util/math/fft/index.ts -->
<g id="node8" class="node">
<title>packages/util/math/fft/index.ts</title>
<g id="a_node8"><a xlink:href="packages/util/math/fft/index.ts" xlink:title="index.ts">
<path fill="#ddfeff" stroke="black" d="M90.12,-86.18C90.12,-86.18 48.12,-86.18 48.12,-86.18 45.12,-86.18 42.12,-83.18 42.12,-80.18 42.12,-80.18 42.12,-74.18 42.12,-74.18 42.12,-71.18 45.12,-68.18 48.12,-68.18 48.12,-68.18 90.12,-68.18 90.12,-68.18 93.12,-68.18 96.12,-71.18 96.12,-74.18 96.12,-74.18 96.12,-80.18 96.12,-80.18 96.12,-83.18 93.12,-86.18 90.12,-86.18"/>
<text text-anchor="start" x="50.62" y="-74.98" font-family="Helvetica,sans-Serif" font-size="9.00">index.ts</text>
</a>
</g>
</g>
<!-- packages/util/math/fft/index.ts&#45;&gt;packages/util/math/fft/complex.ts -->
<g id="edge7" class="edge">
<title>packages/util/math/fft/index.ts&#45;&gt;packages/util/math/fft/complex.ts</title>
<path fill="none" stroke="#000000" stroke-width="2" stroke-opacity="0.200000" d="M60.38,-67.8C55.96,-63.07 50.53,-57.25 45.67,-52.04"/>
<polygon fill="#000000" fill-opacity="0.200000" stroke="#000000" stroke-width="2" stroke-opacity="0.200000" points="47.04,-50.43 41.41,-47.47 43.97,-53.29 47.04,-50.43"/>
</g>
<!-- packages/util/math/fft/index.ts&#45;&gt;packages/util/math/fft/ftt&#45;core.ts -->
<g id="edge8" class="edge">
<title>packages/util/math/fft/index.ts&#45;&gt;packages/util/math/fft/ftt&#45;core.ts</title>
<path fill="none" stroke="#000000" stroke-width="2" stroke-opacity="0.200000" d="M77.33,-68.06C81.7,-63.2 87.18,-57.11 92.07,-51.68"/>
<polygon fill="#000000" fill-opacity="0.200000" stroke="#000000" stroke-width="2" stroke-opacity="0.200000" points="93.89,-52.8 96.34,-46.93 90.77,-49.99 93.89,-52.8"/>
</g>
<!-- packages/util/math/fft/index.ts&#45;&gt;packages/util/math/fft/root&#45;of&#45;unity.ts -->
<g id="edge9" class="edge">
<title>packages/util/math/fft/index.ts&#45;&gt;packages/util/math/fft/root&#45;of&#45;unity.ts</title>
<path fill="none" stroke="#000000" stroke-width="2" stroke-opacity="0.200000" d="M69.02,-67.98C68.91,-56.74 68.72,-37.55 68.58,-24.12"/>
<polygon fill="#000000" fill-opacity="0.200000" stroke="#000000" stroke-width="2" stroke-opacity="0.200000" points="70.68,-24.03 68.52,-18.05 66.48,-24.07 70.68,-24.03"/>
</g>
<!-- packages/util/math/fft/typed&#45;array.ts -->
<g id="node9" class="node">
<title>packages/util/math/fft/typed&#45;array.ts</title>
<g id="a_node9"><a xlink:href="packages/util/math/fft/typed-array.ts" xlink:title="no&#45;orphans">
<path fill="#ccffcc" stroke="orange" d="M241,-32C241,-32 174,-32 174,-32 171,-32 168,-29 168,-26 168,-26 168,-20 168,-20 168,-17 171,-14 174,-14 174,-14 241,-14 241,-14 244,-14 247,-17 247,-20 247,-20 247,-26 247,-26 247,-29 244,-32 241,-32"/>
<text text-anchor="start" x="176" y="-20.8" font-family="Helvetica,sans-Serif" font-size="9.00" fill="orange">typed&#45;array.ts</text>
</a>
</g>
</g>
<!-- packages/util/math/index.test.ts -->
<g id="node10" class="node">
<title>packages/util/math/index.test.ts</title>
<g id="a_node10"><a xlink:href="packages/util/math/index.test.ts" xlink:title="no&#45;orphans">
<path fill="#ccffcc" stroke="orange" d="M235,-74C235,-74 174,-74 174,-74 171,-74 168,-71 168,-68 168,-68 168,-62 168,-62 168,-59 171,-56 174,-56 174,-56 235,-56 235,-56 238,-56 241,-59 241,-62 241,-62 241,-68 241,-68 241,-71 238,-74 235,-74"/>
<text text-anchor="start" x="176" y="-62.8" font-family="Helvetica,sans-Serif" font-size="9.00" fill="orange">index.test.ts</text>
</a>
</g>
</g>
<!-- packages/util/math/index.ts -->
<g id="node11" class="node">
<title>packages/util/math/index.ts</title>
<g id="a_node11"><a xlink:href="packages/util/math/index.ts" xlink:title="index.ts">
<path fill="#ddfeff" stroke="black" d="M91.87,-146.42C91.87,-146.42 49.87,-146.42 49.87,-146.42 46.87,-146.42 43.87,-143.42 43.87,-140.42 43.87,-140.42 43.87,-134.42 43.87,-134.42 43.87,-131.42 46.87,-128.42 49.87,-128.42 49.87,-128.42 91.87,-128.42 91.87,-128.42 94.87,-128.42 97.87,-131.42 97.87,-134.42 97.87,-134.42 97.87,-140.42 97.87,-140.42 97.87,-143.42 94.87,-146.42 91.87,-146.42"/>
<text text-anchor="start" x="52.37" y="-135.22" font-family="Helvetica,sans-Serif" font-size="9.00">index.ts</text>
</a>
</g>
</g>
<!-- packages/util/math/index.ts&#45;&gt;packages/util/math/fft/index.ts -->
<g id="edge11" class="edge">
<title>packages/util/math/index.ts&#45;&gt;packages/util/math/fft/index.ts</title>
<path fill="none" stroke="#000000" stroke-width="2" stroke-opacity="0.200000" d="M70.6,-128.27C70.33,-118.8 69.89,-103.85 69.57,-92.57"/>
<polygon fill="#000000" fill-opacity="0.200000" stroke="#000000" stroke-width="2" stroke-opacity="0.200000" points="71.49,-86.35 69.56,-92.41 67.29,-86.47 71.49,-86.35"/>
</g>
<!-- packages/util/stdlib/dist/index.js -->
<g id="node12" class="node">
<title>packages/util/stdlib/dist/index.js</title>
<g id="a_node12"><a xlink:href="packages/util/stdlib/dist/index.js" xlink:title="index.js">
<polygon fill="#ffffcc" stroke="black" points="86.84,-203.97 85.34,-205.97 74.84,-205.97 73.34,-203.97 32.84,-203.97 32.84,-185.97 86.84,-185.97 86.84,-203.97"/>
<text text-anchor="start" x="42.34" y="-192.77" font-family="Helvetica,sans-Serif" font-size="9.00">index.js</text>
</a>
</g>
</g>
<!-- packages/util/math/index.ts&#45;&gt;packages/util/stdlib/dist/index.js -->
<g id="edge12" class="edge">
<title>packages/util/math/index.ts&#45;&gt;packages/util/stdlib/dist/index.js</title>
<path fill="none" stroke="#000000" stroke-width="2" stroke-opacity="0.200000" d="M69.09,-146.66C67.38,-155.61 64.75,-169.32 62.73,-179.86"/>
<polygon fill="#000000" fill-opacity="0.200000" stroke="#000000" stroke-width="2" stroke-opacity="0.200000" points="60.64,-179.64 61.57,-185.93 64.76,-180.43 60.64,-179.64"/>
</g>
</g>
</svg>
