<?xml version="1.0" encoding="UTF-8" standalone="no"?>
<!DOCTYPE svg PUBLIC "-//W3C//DTD SVG 1.1//EN"
 "http://www.w3.org/Graphics/SVG/1.1/DTD/svg11.dtd">
<!-- Generated by graphviz version 2.43.0 (0)
 -->
<!-- Title: dependency&#45;cruiser output Pages: 1 -->
<svg width="500pt" height="392pt"
 viewBox="0.00 0.00 500.00 392.00" xmlns="http://www.w3.org/2000/svg" xmlns:xlink="http://www.w3.org/1999/xlink">
<g id="graph0" class="graph" transform="scale(1 1) rotate(0) translate(4 388)">
<title>dependency&#45;cruiser output</title>
<polygon fill="white" stroke="transparent" points="-4,4 -4,-388 496,-388 496,4 -4,4"/>
<g id="clust1" class="cluster">
<title>cluster_packages</title>
<path fill="#ffffff" stroke="black" stroke-width="2" d="M20,-8C20,-8 472,-8 472,-8 478,-8 484,-14 484,-20 484,-20 484,-364 484,-364 484,-370 478,-376 472,-376 472,-376 20,-376 20,-376 14,-376 8,-370 8,-364 8,-364 8,-20 8,-20 8,-14 14,-8 20,-8"/>
<text text-anchor="middle" x="246" y="-364.8" font-family="Helvetica,sans-Serif" font-weight="bold" font-size="9.00">packages</text>
</g>
<g id="clust2" class="cluster">
<title>cluster_packages/util</title>
<path fill="#ffffff" stroke="black" stroke-width="2" d="M28,-16C28,-16 464,-16 464,-16 470,-16 476,-22 476,-28 476,-28 476,-338 476,-338 476,-344 470,-350 464,-350 464,-350 28,-350 28,-350 22,-350 16,-344 16,-338 16,-338 16,-28 16,-28 16,-22 22,-16 28,-16"/>
<text text-anchor="middle" x="246" y="-338.8" font-family="Helvetica,sans-Serif" font-weight="bold" font-size="9.00">util</text>
</g>
<g id="clust3" class="cluster">
<title>cluster_packages/util/math</title>
<path fill="#ffffff" stroke="black" stroke-width="2" d="M36,-24C36,-24 456,-24 456,-24 462,-24 468,-30 468,-36 468,-36 468,-218 468,-218 468,-224 462,-230 456,-230 456,-230 36,-230 36,-230 30,-230 24,-224 24,-218 24,-218 24,-36 24,-36 24,-30 30,-24 36,-24"/>
<text text-anchor="middle" x="246" y="-218.8" font-family="Helvetica,sans-Serif" font-weight="bold" font-size="9.00">math</text>
</g>
<g id="clust4" class="cluster">
<title>cluster_packages/util/math/fft</title>
<path fill="#ffffff" stroke="black" stroke-width="2" d="M125,-32C125,-32 448,-32 448,-32 454,-32 460,-38 460,-44 460,-44 460,-192 460,-192 460,-198 454,-204 448,-204 448,-204 125,-204 125,-204 119,-204 113,-198 113,-192 113,-192 113,-44 113,-44 113,-38 119,-32 125,-32"/>
<text text-anchor="middle" x="286.5" y="-192.8" font-family="Helvetica,sans-Serif" font-weight="bold" font-size="9.00">fft</text>
</g>
<g id="clust5" class="cluster">
<title>cluster_packages/util/math/fft/array</title>
<path fill="#ffffff" stroke="black" stroke-width="2" d="M137.5,-96C137.5,-96 366,-96 366,-96 372,-96 378,-102 378,-108 378,-108 378,-166 378,-166 378,-172 372,-178 366,-178 366,-178 137.5,-178 137.5,-178 131.5,-178 125.5,-172 125.5,-166 125.5,-166 125.5,-108 125.5,-108 125.5,-102 131.5,-96 137.5,-96"/>
<text text-anchor="middle" x="251.75" y="-166.8" font-family="Helvetica,sans-Serif" font-weight="bold" font-size="9.00">array</text>
</g>
<g id="clust6" class="cluster">
<title>cluster_packages/util/stdlib</title>
<path fill="#ffffff" stroke="black" stroke-width="2" d="M129.5,-238C129.5,-238 191.5,-238 191.5,-238 197.5,-238 203.5,-244 203.5,-250 203.5,-250 203.5,-312 203.5,-312 203.5,-318 197.5,-324 191.5,-324 191.5,-324 129.5,-324 129.5,-324 123.5,-324 117.5,-318 117.5,-312 117.5,-312 117.5,-250 117.5,-250 117.5,-244 123.5,-238 129.5,-238"/>
<text text-anchor="middle" x="160.5" y="-312.8" font-family="Helvetica,sans-Serif" font-weight="bold" font-size="9.00">stdlib</text>
</g>
<g id="clust7" class="cluster">
<title>cluster_packages/util/stdlib/dist</title>
<path fill="#ffffff" stroke="black" stroke-width="2" d="M137.5,-246C137.5,-246 183.5,-246 183.5,-246 189.5,-246 195.5,-252 195.5,-258 195.5,-258 195.5,-286 195.5,-286 195.5,-292 189.5,-298 183.5,-298 183.5,-298 137.5,-298 137.5,-298 131.5,-298 125.5,-292 125.5,-286 125.5,-286 125.5,-258 125.5,-258 125.5,-252 131.5,-246 137.5,-246"/>
<text text-anchor="middle" x="160.5" y="-286.8" font-family="Helvetica,sans-Serif" font-weight="bold" font-size="9.00">dist</text>
</g>
<!-- packages/util/math/fft/array/complex.ts -->
<g id="node1" class="node">
<title>packages/util/math/fft/array/complex.ts</title>
<g id="a_node1"><a xlink:href="packages/util/math/fft/array/complex.ts" xlink:title="complex.ts">
<path fill="#ddfeff" stroke="black" d="M355.5,-122C355.5,-122 301.5,-122 301.5,-122 298.5,-122 295.5,-119 295.5,-116 295.5,-116 295.5,-110 295.5,-110 295.5,-107 298.5,-104 301.5,-104 301.5,-104 355.5,-104 355.5,-104 358.5,-104 361.5,-107 361.5,-110 361.5,-110 361.5,-116 361.5,-116 361.5,-119 358.5,-122 355.5,-122"/>
<text text-anchor="start" x="303.5" y="-110.8" font-family="Helvetica,sans-Serif" font-size="9.00">complex.ts</text>
</a>
</g>
</g>
<!-- packages/util/math/fft/array/ftt&#45;core.ts -->
<g id="node2" class="node">
<title>packages/util/math/fft/array/ftt&#45;core.ts</title>
<g id="a_node2"><a xlink:href="packages/util/math/fft/array/ftt-core.ts" xlink:title="ftt&#45;core.ts">
<path fill="#ddfeff" stroke="black" d="M268,-144C268,-144 219,-144 219,-144 216,-144 213,-141 213,-138 213,-138 213,-132 213,-132 213,-129 216,-126 219,-126 219,-126 268,-126 268,-126 271,-126 274,-129 274,-132 274,-132 274,-138 274,-138 274,-141 271,-144 268,-144"/>
<text text-anchor="start" x="221" y="-132.8" font-family="Helvetica,sans-Serif" font-size="9.00">ftt&#45;core.ts</text>
</a>
</g>
</g>
<!-- packages/util/math/fft/array/ftt&#45;core.ts&#45;&gt;packages/util/math/fft/array/complex.ts -->
<g id="edge1" class="edge">
<title>packages/util/math/fft/array/ftt&#45;core.ts&#45;&gt;packages/util/math/fft/array/complex.ts</title>
<path fill="none" stroke="#000000" stroke-width="2" stroke-opacity="0.200000" d="M274.46,-127.06C279.34,-125.77 284.44,-124.41 289.48,-123.08"/>
<polygon fill="#000000" fill-opacity="0.200000" stroke="#000000" stroke-width="2" stroke-opacity="0.200000" points="290.07,-125.09 295.34,-121.53 289,-121.03 290.07,-125.09"/>
</g>
<!-- packages/util/math/fft/array/root&#45;of&#45;unity.ts -->
<g id="node3" class="node">
<title>packages/util/math/fft/array/root&#45;of&#45;unity.ts</title>
<g id="a_node3"><a xlink:href="packages/util/math/fft/array/root-of-unity.ts" xlink:title="root&#45;of&#45;unity.ts">
<path fill="#ddfeff" stroke="black" d="M364,-152C364,-152 293,-152 293,-152 290,-152 287,-149 287,-146 287,-146 287,-140 287,-140 287,-137 290,-134 293,-134 293,-134 364,-134 364,-134 367,-134 370,-137 370,-140 370,-140 370,-146 370,-146 370,-149 367,-152 364,-152"/>
<text text-anchor="start" x="295" y="-140.8" font-family="Helvetica,sans-Serif" font-size="9.00">root&#45;of&#45;unity.ts</text>
</a>
</g>
</g>
<!-- packages/util/math/fft/array/ftt&#45;core.ts&#45;&gt;packages/util/math/fft/array/root&#45;of&#45;unity.ts -->
<g id="edge2" class="edge">
<title>packages/util/math/fft/array/ftt&#45;core.ts&#45;&gt;packages/util/math/fft/array/root&#45;of&#45;unity.ts</title>
<path fill="none" stroke="#000000" stroke-width="2" stroke-opacity="0.200000" d="M274.46,-137.89C276.46,-138.08 278.5,-138.28 280.55,-138.47"/>
<polygon fill="#000000" fill-opacity="0.200000" stroke="#000000" stroke-width="2" stroke-opacity="0.200000" points="280.57,-140.59 286.74,-139.07 280.97,-136.41 280.57,-140.59"/>
</g>
<!-- packages/util/math/fft/array/index.ts -->
<g id="node4" class="node">
<title>packages/util/math/fft/array/index.ts</title>
<g id="a_node4"><a xlink:href="packages/util/math/fft/array/index.ts" xlink:title="index.ts">
<path fill="#ddfeff" stroke="black" d="M181.5,-133C181.5,-133 139.5,-133 139.5,-133 136.5,-133 133.5,-130 133.5,-127 133.5,-127 133.5,-121 133.5,-121 133.5,-118 136.5,-115 139.5,-115 139.5,-115 181.5,-115 181.5,-115 184.5,-115 187.5,-118 187.5,-121 187.5,-121 187.5,-127 187.5,-127 187.5,-130 184.5,-133 181.5,-133"/>
<text text-anchor="start" x="142" y="-121.8" font-family="Helvetica,sans-Serif" font-size="9.00">index.ts</text>
</a>
</g>
</g>
<!-- packages/util/math/fft/array/index.ts&#45;&gt;packages/util/math/fft/array/complex.ts -->
<g id="edge3" class="edge">
<title>packages/util/math/fft/array/index.ts&#45;&gt;packages/util/math/fft/array/complex.ts</title>
<path fill="none" stroke="#000000" stroke-width="2" stroke-opacity="0.200000" d="M187.69,-121.88C195.8,-121.25 204.77,-120.57 213,-120 238.42,-118.24 267.04,-116.49 289.31,-115.18"/>
<polygon fill="#000000" fill-opacity="0.200000" stroke="#000000" stroke-width="2" stroke-opacity="0.200000" points="289.54,-117.27 295.41,-114.82 289.3,-113.07 289.54,-117.27"/>
</g>
<!-- packages/util/math/fft/array/index.ts&#45;&gt;packages/util/math/fft/array/ftt&#45;core.ts -->
<g id="edge4" class="edge">
<title>packages/util/math/fft/array/index.ts&#45;&gt;packages/util/math/fft/array/ftt&#45;core.ts</title>
<path fill="none" stroke="#000000" stroke-width="2" stroke-opacity="0.200000" d="M187.57,-127.54C193.61,-128.36 200.14,-129.25 206.51,-130.11"/>
<polygon fill="#000000" fill-opacity="0.200000" stroke="#000000" stroke-width="2" stroke-opacity="0.200000" points="206.59,-132.24 212.81,-130.97 207.15,-128.08 206.59,-132.24"/>
</g>
<!-- packages/util/math/fft/complex.ts -->
<g id="node5" class="node">
<title>packages/util/math/fft/complex.ts</title>
<g id="a_node5"><a xlink:href="packages/util/math/fft/complex.ts" xlink:title="complex.ts">
<path fill="#ddfeff" stroke="black" d="M446,-66C446,-66 392,-66 392,-66 389,-66 386,-63 386,-60 386,-60 386,-54 386,-54 386,-51 389,-48 392,-48 392,-48 446,-48 446,-48 449,-48 452,-51 452,-54 452,-54 452,-60 452,-60 452,-63 449,-66 446,-66"/>
<text text-anchor="start" x="394" y="-54.8" font-family="Helvetica,sans-Serif" font-size="9.00">complex.ts</text>
</a>
</g>
</g>
<!-- packages/util/math/fft/ftt&#45;core.ts -->
<g id="node6" class="node">
<title>packages/util/math/fft/ftt&#45;core.ts</title>
<g id="a_node6"><a xlink:href="packages/util/math/fft/ftt-core.ts" xlink:title="ftt&#45;core.ts">
<path fill="#ddfeff" stroke="black" d="M268,-74C268,-74 219,-74 219,-74 216,-74 213,-71 213,-68 213,-68 213,-62 213,-62 213,-59 216,-56 219,-56 219,-56 268,-56 268,-56 271,-56 274,-59 274,-62 274,-62 274,-68 274,-68 274,-71 271,-74 268,-74"/>
<text text-anchor="start" x="221" y="-62.8" font-family="Helvetica,sans-Serif" font-size="9.00">ftt&#45;core.ts</text>
</a>
</g>
</g>
<!-- packages/util/math/fft/ftt&#45;core.ts&#45;&gt;packages/util/math/fft/complex.ts -->
<g id="edge5" class="edge">
<title>packages/util/math/fft/ftt&#45;core.ts&#45;&gt;packages/util/math/fft/complex.ts</title>
<path fill="none" stroke="#000000" stroke-width="2" stroke-opacity="0.200000" d="M274.33,-63.62C303.48,-62.28 348,-60.23 379.75,-58.76"/>
<polygon fill="#000000" fill-opacity="0.200000" stroke="#000000" stroke-width="2" stroke-opacity="0.200000" points="380.02,-60.85 385.92,-58.48 379.83,-56.66 380.02,-60.85"/>
</g>
<!-- packages/util/math/fft/root&#45;of&#45;unity.ts -->
<g id="node7" class="node">
<title>packages/util/math/fft/root&#45;of&#45;unity.ts</title>
<g id="a_node7"><a xlink:href="packages/util/math/fft/root-of-unity.ts" xlink:title="root&#45;of&#45;unity.ts">
<path fill="#ddfeff" stroke="black" d="M364,-88C364,-88 293,-88 293,-88 290,-88 287,-85 287,-82 287,-82 287,-76 287,-76 287,-73 290,-70 293,-70 293,-70 364,-70 364,-70 367,-70 370,-73 370,-76 370,-76 370,-82 370,-82 370,-85 367,-88 364,-88"/>
<text text-anchor="start" x="295" y="-76.8" font-family="Helvetica,sans-Serif" font-size="9.00">root&#45;of&#45;unity.ts</text>
</a>
</g>
</g>
<!-- packages/util/math/fft/ftt&#45;core.ts&#45;&gt;packages/util/math/fft/root&#45;of&#45;unity.ts -->
<g id="edge6" class="edge">
<title>packages/util/math/fft/ftt&#45;core.ts&#45;&gt;packages/util/math/fft/root&#45;of&#45;unity.ts</title>
<path fill="none" stroke="#000000" stroke-width="2" stroke-opacity="0.200000" d="M274.46,-70.05C276.46,-70.39 278.5,-70.73 280.55,-71.08"/>
<polygon fill="#000000" fill-opacity="0.200000" stroke="#000000" stroke-width="2" stroke-opacity="0.200000" points="280.48,-73.2 286.74,-72.13 281.18,-69.06 280.48,-73.2"/>
</g>
<!-- packages/util/math/fft/root&#45;of&#45;unity.ts&#45;&gt;packages/util/math/fft/complex.ts -->
<g id="edge10" class="edge">
<title>packages/util/math/fft/root&#45;of&#45;unity.ts&#45;&gt;packages/util/math/fft/complex.ts</title>
<path fill="none" stroke="#000000" stroke-width="2" stroke-opacity="0.200000" d="M365.75,-69.99C370.45,-68.82 375.27,-67.62 380,-66.45"/>
<polygon fill="#000000" fill-opacity="0.200000" stroke="#000000" stroke-width="2" stroke-opacity="0.200000" points="380.6,-68.46 385.92,-64.98 379.59,-64.38 380.6,-68.46"/>
</g>
<!-- packages/util/math/fft/index.ts -->
<g id="node8" class="node">
<title>packages/util/math/fft/index.ts</title>
<g id="a_node8"><a xlink:href="packages/util/math/fft/index.ts" xlink:title="index.ts">
<path fill="#ddfeff" stroke="black" d="M181.5,-88C181.5,-88 139.5,-88 139.5,-88 136.5,-88 133.5,-85 133.5,-82 133.5,-82 133.5,-76 133.5,-76 133.5,-73 136.5,-70 139.5,-70 139.5,-70 181.5,-70 181.5,-70 184.5,-70 187.5,-73 187.5,-76 187.5,-76 187.5,-82 187.5,-82 187.5,-85 184.5,-88 181.5,-88"/>
<text text-anchor="start" x="142" y="-76.8" font-family="Helvetica,sans-Serif" font-size="9.00">index.ts</text>
</a>
</g>
</g>
<!-- packages/util/math/fft/index.ts&#45;&gt;packages/util/math/fft/complex.ts -->
<g id="edge7" class="edge">
<title>packages/util/math/fft/index.ts&#45;&gt;packages/util/math/fft/complex.ts</title>
<path fill="none" stroke="#000000" stroke-width="2" stroke-opacity="0.200000" d="M187.69,-72.52C193.26,-70.39 198.85,-67.6 203.5,-64 209.45,-59.4 206.36,-53.52 213,-50 267.58,-21.07 342.32,-34.56 384.84,-46.27"/>
<polygon fill="#000000" fill-opacity="0.200000" stroke="#000000" stroke-width="2" stroke-opacity="0.200000" points="384.53,-48.36 390.87,-47.98 385.67,-44.32 384.53,-48.36"/>
</g>
<!-- packages/util/math/fft/index.ts&#45;&gt;packages/util/math/fft/ftt&#45;core.ts -->
<g id="edge8" class="edge">
<title>packages/util/math/fft/index.ts&#45;&gt;packages/util/math/fft/ftt&#45;core.ts</title>
<path fill="none" stroke="#000000" stroke-width="2" stroke-opacity="0.200000" d="M187.57,-74.49C193.61,-73.45 200.14,-72.32 206.51,-71.22"/>
<polygon fill="#000000" fill-opacity="0.200000" stroke="#000000" stroke-width="2" stroke-opacity="0.200000" points="207.26,-73.22 212.81,-70.13 206.54,-69.08 207.26,-73.22"/>
</g>
<!-- packages/util/math/fft/index.ts&#45;&gt;packages/util/math/fft/root&#45;of&#45;unity.ts -->
<g id="edge9" class="edge">
<title>packages/util/math/fft/index.ts&#45;&gt;packages/util/math/fft/root&#45;of&#45;unity.ts</title>
<path fill="none" stroke="#000000" stroke-width="2" stroke-opacity="0.200000" d="M187.7,-79.61C195.81,-79.77 204.77,-79.92 213,-80 240.11,-80.26 246.89,-80.25 274,-80 276.22,-79.98 278.49,-79.95 280.79,-79.92"/>
<polygon fill="#000000" fill-opacity="0.200000" stroke="#000000" stroke-width="2" stroke-opacity="0.200000" points="280.93,-82.02 286.9,-79.84 280.87,-77.82 280.93,-82.02"/>
</g>
<!-- packages/util/math/fft/typed&#45;array.ts -->
<g id="node9" class="node">
<title>packages/util/math/fft/typed&#45;array.ts</title>
<g id="a_node9"><a xlink:href="packages/util/math/fft/typed-array.ts" xlink:title="no&#45;orphans">
<path fill="#ccffcc" stroke="orange" d="M194,-58C194,-58 127,-58 127,-58 124,-58 121,-55 121,-52 121,-52 121,-46 121,-46 121,-43 124,-40 127,-40 127,-40 194,-40 194,-40 197,-40 200,-43 200,-46 200,-46 200,-52 200,-52 200,-55 197,-58 194,-58"/>
<text text-anchor="start" x="129" y="-46.8" font-family="Helvetica,sans-Serif" font-size="9.00" fill="orange">typed&#45;array.ts</text>
</a>
</g>
</g>
<!-- packages/util/math/index.test.ts -->
<g id="node10" class="node">
<title>packages/util/math/index.test.ts</title>
<g id="a_node10"><a xlink:href="packages/util/math/index.test.ts" xlink:title="no&#45;orphans">
<path fill="#ccffcc" stroke="orange" d="M99,-182C99,-182 38,-182 38,-182 35,-182 32,-179 32,-176 32,-176 32,-170 32,-170 32,-167 35,-164 38,-164 38,-164 99,-164 99,-164 102,-164 105,-167 105,-170 105,-170 105,-176 105,-176 105,-179 102,-182 99,-182"/>
<text text-anchor="start" x="40" y="-170.8" font-family="Helvetica,sans-Serif" font-size="9.00" fill="orange">index.test.ts</text>
</a>
</g>
</g>
<!-- packages/util/math/index.ts -->
<g id="node11" class="node">
<title>packages/util/math/index.ts</title>
<g id="a_node11"><a xlink:href="packages/util/math/index.ts" xlink:title="index.ts">
<path fill="#ddfeff" stroke="black" d="M89.5,-109C89.5,-109 47.5,-109 47.5,-109 44.5,-109 41.5,-106 41.5,-103 41.5,-103 41.5,-97 41.5,-97 41.5,-94 44.5,-91 47.5,-91 47.5,-91 89.5,-91 89.5,-91 92.5,-91 95.5,-94 95.5,-97 95.5,-97 95.5,-103 95.5,-103 95.5,-106 92.5,-109 89.5,-109"/>
<text text-anchor="start" x="50" y="-97.8" font-family="Helvetica,sans-Serif" font-size="9.00">index.ts</text>
</a>
</g>
</g>
<!-- packages/util/math/index.ts&#45;&gt;packages/util/math/fft/index.ts -->
<g id="edge11" class="edge">
<title>packages/util/math/index.ts&#45;&gt;packages/util/math/fft/index.ts</title>
<path fill="none" stroke="#000000" stroke-width="2" stroke-opacity="0.200000" d="M95.53,-93.93C105.43,-91.62 116.82,-88.96 127.22,-86.53"/>
<polygon fill="#000000" fill-opacity="0.200000" stroke="#000000" stroke-width="2" stroke-opacity="0.200000" points="133.69,-87.18 127.37,-86.5 132.74,-83.09 133.69,-87.18"/>
</g>
<!-- packages/util/stdlib/dist/index.js -->
<g id="node12" class="node">
<title>packages/util/stdlib/dist/index.js</title>
<g id="a_node12"><a xlink:href="packages/util/stdlib/dist/index.js" xlink:title="index.js">
<polygon fill="#ffffcc" stroke="black" points="187.5,-272 186,-274 175.5,-274 174,-272 133.5,-272 133.5,-254 187.5,-254 187.5,-272"/>
<text text-anchor="start" x="143" y="-260.8" font-family="Helvetica,sans-Serif" font-size="9.00">index.js</text>
</a>
</g>
</g>
<!-- packages/util/math/index.ts&#45;&gt;packages/util/stdlib/dist/index.js -->
<g id="edge12" class="edge">
<title>packages/util/math/index.ts&#45;&gt;packages/util/stdlib/dist/index.js</title>
<path fill="none" stroke="#000000" stroke-width="2" stroke-opacity="0.200000" d="M75.92,-109.1C83.58,-120.23 96.42,-139.86 105,-158 109.63,-167.78 108.53,-171.14 113,-181 124.07,-205.43 140.02,-232.18 150.07,-248.28"/>
<polygon fill="#000000" fill-opacity="0.200000" stroke="#000000" stroke-width="2" stroke-opacity="0.200000" points="148.51,-249.74 153.48,-253.7 152.06,-247.5 148.51,-249.74"/>
</g>
</g>
</svg>
