<?xml version="1.0" encoding="UTF-8" standalone="no"?>
<!DOCTYPE svg PUBLIC "-//W3C//DTD SVG 1.1//EN"
 "http://www.w3.org/Graphics/SVG/1.1/DTD/svg11.dtd">
<!-- Generated by graphviz version 2.43.0 (0)
 -->
<!-- Title: dependency&#45;cruiser output Pages: 1 -->
<svg width="503pt" height="392pt"
 viewBox="0.00 0.00 503.00 392.00" xmlns="http://www.w3.org/2000/svg" xmlns:xlink="http://www.w3.org/1999/xlink">
<g id="graph0" class="graph" transform="scale(1 1) rotate(0) translate(4 388)">
<title>dependency&#45;cruiser output</title>
<polygon fill="white" stroke="transparent" points="-4,4 -4,-388 499,-388 499,4 -4,4"/>
<g id="clust1" class="cluster">
<title>cluster_packages</title>
<path fill="#ffffff" stroke="black" stroke-width="2" d="M20,-8C20,-8 475,-8 475,-8 481,-8 487,-14 487,-20 487,-20 487,-364 487,-364 487,-370 481,-376 475,-376 475,-376 20,-376 20,-376 14,-376 8,-370 8,-364 8,-364 8,-20 8,-20 8,-14 14,-8 20,-8"/>
<text text-anchor="middle" x="247.5" y="-364.8" font-family="Helvetica,sans-Serif" font-weight="bold" font-size="9.00">packages</text>
</g>
<g id="clust2" class="cluster">
<title>cluster_packages/util</title>
<path fill="#ffffff" stroke="black" stroke-width="2" d="M28,-16C28,-16 467,-16 467,-16 473,-16 479,-22 479,-28 479,-28 479,-338 479,-338 479,-344 473,-350 467,-350 467,-350 28,-350 28,-350 22,-350 16,-344 16,-338 16,-338 16,-28 16,-28 16,-22 22,-16 28,-16"/>
<text text-anchor="middle" x="247.5" y="-338.8" font-family="Helvetica,sans-Serif" font-weight="bold" font-size="9.00">util</text>
</g>
<g id="clust3" class="cluster">
<title>cluster_packages/util/math</title>
<path fill="#ffffff" stroke="black" stroke-width="2" d="M36,-24C36,-24 459,-24 459,-24 465,-24 471,-30 471,-36 471,-36 471,-218 471,-218 471,-224 465,-230 459,-230 459,-230 36,-230 36,-230 30,-230 24,-224 24,-218 24,-218 24,-36 24,-36 24,-30 30,-24 36,-24"/>
<text text-anchor="middle" x="247.5" y="-218.8" font-family="Helvetica,sans-Serif" font-weight="bold" font-size="9.00">math</text>
</g>
<g id="clust4" class="cluster">
<title>cluster_packages/util/math/dist</title>
<path fill="#ffffff" stroke="black" stroke-width="2" d="M44,-122C44,-122 96,-122 96,-122 102,-122 108,-128 108,-134 108,-134 108,-192 108,-192 108,-198 102,-204 96,-204 96,-204 44,-204 44,-204 38,-204 32,-198 32,-192 32,-192 32,-134 32,-134 32,-128 38,-122 44,-122"/>
<text text-anchor="middle" x="70" y="-192.8" font-family="Helvetica,sans-Serif" font-weight="bold" font-size="9.00">dist</text>
</g>
<g id="clust5" class="cluster">
<title>cluster_packages/util/math/fft</title>
<path fill="#ffffff" stroke="black" stroke-width="2" d="M128,-32C128,-32 451,-32 451,-32 457,-32 463,-38 463,-44 463,-44 463,-192 463,-192 463,-198 457,-204 451,-204 451,-204 128,-204 128,-204 122,-204 116,-198 116,-192 116,-192 116,-44 116,-44 116,-38 122,-32 128,-32"/>
<text text-anchor="middle" x="289.5" y="-192.8" font-family="Helvetica,sans-Serif" font-weight="bold" font-size="9.00">fft</text>
</g>
<g id="clust6" class="cluster">
<title>cluster_packages/util/math/fft/array</title>
<path fill="#ffffff" stroke="black" stroke-width="2" d="M140.5,-96C140.5,-96 369,-96 369,-96 375,-96 381,-102 381,-108 381,-108 381,-166 381,-166 381,-172 375,-178 369,-178 369,-178 140.5,-178 140.5,-178 134.5,-178 128.5,-172 128.5,-166 128.5,-166 128.5,-108 128.5,-108 128.5,-102 134.5,-96 140.5,-96"/>
<text text-anchor="middle" x="254.75" y="-166.8" font-family="Helvetica,sans-Serif" font-weight="bold" font-size="9.00">array</text>
</g>
<g id="clust7" class="cluster">
<title>cluster_packages/util/stdlib</title>
<path fill="#ffffff" stroke="black" stroke-width="2" d="M132.5,-238C132.5,-238 194.5,-238 194.5,-238 200.5,-238 206.5,-244 206.5,-250 206.5,-250 206.5,-312 206.5,-312 206.5,-318 200.5,-324 194.5,-324 194.5,-324 132.5,-324 132.5,-324 126.5,-324 120.5,-318 120.5,-312 120.5,-312 120.5,-250 120.5,-250 120.5,-244 126.5,-238 132.5,-238"/>
<text text-anchor="middle" x="163.5" y="-312.8" font-family="Helvetica,sans-Serif" font-weight="bold" font-size="9.00">stdlib</text>
</g>
<g id="clust8" class="cluster">
<title>cluster_packages/util/stdlib/dist</title>
<path fill="#ffffff" stroke="black" stroke-width="2" d="M140.5,-246C140.5,-246 186.5,-246 186.5,-246 192.5,-246 198.5,-252 198.5,-258 198.5,-258 198.5,-286 198.5,-286 198.5,-292 192.5,-298 186.5,-298 186.5,-298 140.5,-298 140.5,-298 134.5,-298 128.5,-292 128.5,-286 128.5,-286 128.5,-258 128.5,-258 128.5,-252 134.5,-246 140.5,-246"/>
<text text-anchor="middle" x="163.5" y="-286.8" font-family="Helvetica,sans-Serif" font-weight="bold" font-size="9.00">dist</text>
</g>
<!-- packages/util/math/dist/index.js -->
<g id="node1" class="node">
<title>packages/util/math/dist/index.js</title>
<g id="a_node1"><a xlink:href="packages/util/math/dist/index.js" xlink:title="index.js">
<path fill="#ffffcc" stroke="black" d="M91,-178C91,-178 49,-178 49,-178 46,-178 43,-175 43,-172 43,-172 43,-166 43,-166 43,-163 46,-160 49,-160 49,-160 91,-160 91,-160 94,-160 97,-163 97,-166 97,-166 97,-172 97,-172 97,-175 94,-178 91,-178"/>
<text text-anchor="start" x="52.5" y="-166.8" font-family="Helvetica,sans-Serif" font-size="9.00">index.js</text>
</a>
</g>
</g>
<!-- packages/util/stdlib/dist/index.js -->
<g id="node2" class="node">
<title>packages/util/stdlib/dist/index.js</title>
<g id="a_node2"><a xlink:href="packages/util/stdlib/dist/index.js" xlink:title="index.js">
<path fill="#ffffcc" stroke="black" d="M184.5,-272C184.5,-272 142.5,-272 142.5,-272 139.5,-272 136.5,-269 136.5,-266 136.5,-266 136.5,-260 136.5,-260 136.5,-257 139.5,-254 142.5,-254 142.5,-254 184.5,-254 184.5,-254 187.5,-254 190.5,-257 190.5,-260 190.5,-260 190.5,-266 190.5,-266 190.5,-269 187.5,-272 184.5,-272"/>
<text text-anchor="start" x="146" y="-260.8" font-family="Helvetica,sans-Serif" font-size="9.00">index.js</text>
</a>
</g>
</g>
<!-- packages/util/math/dist/index.js&#45;&gt;packages/util/stdlib/dist/index.js -->
<g id="edge1" class="edge">
<title>packages/util/math/dist/index.js&#45;&gt;packages/util/stdlib/dist/index.js</title>
<path fill="none" stroke="#000000" stroke-width="2" stroke-opacity="0.200000" d="M79.77,-178.01C95.86,-194.53 130.14,-229.76 149.14,-249.27"/>
<polygon fill="#000000" fill-opacity="0.200000" stroke="#000000" stroke-width="2" stroke-opacity="0.200000" points="147.93,-251.04 153.62,-253.88 150.94,-248.11 147.93,-251.04"/>
</g>
<!-- packages/util/math/dist/index.mjs -->
<g id="node3" class="node">
<title>packages/util/math/dist/index.mjs</title>
<g id="a_node3"><a xlink:href="packages/util/math/dist/index.mjs" xlink:title="index.mjs">
<path fill="#ffffcc" stroke="black" d="M94,-148C94,-148 46,-148 46,-148 43,-148 40,-145 40,-142 40,-142 40,-136 40,-136 40,-133 43,-130 46,-130 46,-130 94,-130 94,-130 97,-130 100,-133 100,-136 100,-136 100,-142 100,-142 100,-145 97,-148 94,-148"/>
<text text-anchor="start" x="48" y="-136.8" font-family="Helvetica,sans-Serif" font-size="9.00">index.mjs</text>
</a>
</g>
</g>
<!-- packages/util/math/dist/index.mjs&#45;&gt;packages/util/stdlib/dist/index.js -->
<g id="edge2" class="edge">
<title>packages/util/math/dist/index.mjs&#45;&gt;packages/util/stdlib/dist/index.js</title>
<path fill="none" stroke="#000000" stroke-width="2" stroke-opacity="0.200000" d="M100.16,-147.74C103.07,-149.47 105.76,-151.54 108,-154 116.41,-163.27 111.1,-169.48 116,-181 126.49,-205.68 142.61,-232.37 152.84,-248.37"/>
<polygon fill="#000000" fill-opacity="0.200000" stroke="#000000" stroke-width="2" stroke-opacity="0.200000" points="151.31,-249.87 156.33,-253.77 154.84,-247.59 151.31,-249.87"/>
</g>
<!-- packages/util/math/fft/array/complex.ts -->
<g id="node4" class="node">
<title>packages/util/math/fft/array/complex.ts</title>
<g id="a_node4"><a xlink:href="packages/util/math/fft/array/complex.ts" xlink:title="complex.ts">
<path fill="#ddfeff" stroke="black" d="M358.5,-122C358.5,-122 304.5,-122 304.5,-122 301.5,-122 298.5,-119 298.5,-116 298.5,-116 298.5,-110 298.5,-110 298.5,-107 301.5,-104 304.5,-104 304.5,-104 358.5,-104 358.5,-104 361.5,-104 364.5,-107 364.5,-110 364.5,-110 364.5,-116 364.5,-116 364.5,-119 361.5,-122 358.5,-122"/>
<text text-anchor="start" x="306.5" y="-110.8" font-family="Helvetica,sans-Serif" font-size="9.00">complex.ts</text>
</a>
</g>
</g>
<!-- packages/util/math/fft/array/ftt&#45;core.ts -->
<g id="node5" class="node">
<title>packages/util/math/fft/array/ftt&#45;core.ts</title>
<g id="a_node5"><a xlink:href="packages/util/math/fft/array/ftt-core.ts" xlink:title="ftt&#45;core.ts">
<path fill="#ddfeff" stroke="black" d="M271,-144C271,-144 222,-144 222,-144 219,-144 216,-141 216,-138 216,-138 216,-132 216,-132 216,-129 219,-126 222,-126 222,-126 271,-126 271,-126 274,-126 277,-129 277,-132 277,-132 277,-138 277,-138 277,-141 274,-144 271,-144"/>
<text text-anchor="start" x="224" y="-132.8" font-family="Helvetica,sans-Serif" font-size="9.00">ftt&#45;core.ts</text>
</a>
</g>
</g>
<!-- packages/util/math/fft/array/ftt&#45;core.ts&#45;&gt;packages/util/math/fft/array/complex.ts -->
<g id="edge3" class="edge">
<title>packages/util/math/fft/array/ftt&#45;core.ts&#45;&gt;packages/util/math/fft/array/complex.ts</title>
<path fill="none" stroke="#000000" stroke-width="2" stroke-opacity="0.200000" d="M277.46,-127.06C282.34,-125.77 287.44,-124.41 292.48,-123.08"/>
<polygon fill="#000000" fill-opacity="0.200000" stroke="#000000" stroke-width="2" stroke-opacity="0.200000" points="293.07,-125.09 298.34,-121.53 292,-121.03 293.07,-125.09"/>
</g>
<!-- packages/util/math/fft/array/root&#45;of&#45;unity.ts -->
<g id="node6" class="node">
<title>packages/util/math/fft/array/root&#45;of&#45;unity.ts</title>
<g id="a_node6"><a xlink:href="packages/util/math/fft/array/root-of-unity.ts" xlink:title="root&#45;of&#45;unity.ts">
<path fill="#ddfeff" stroke="black" d="M367,-152C367,-152 296,-152 296,-152 293,-152 290,-149 290,-146 290,-146 290,-140 290,-140 290,-137 293,-134 296,-134 296,-134 367,-134 367,-134 370,-134 373,-137 373,-140 373,-140 373,-146 373,-146 373,-149 370,-152 367,-152"/>
<text text-anchor="start" x="298" y="-140.8" font-family="Helvetica,sans-Serif" font-size="9.00">root&#45;of&#45;unity.ts</text>
</a>
</g>
</g>
<!-- packages/util/math/fft/array/ftt&#45;core.ts&#45;&gt;packages/util/math/fft/array/root&#45;of&#45;unity.ts -->
<g id="edge4" class="edge">
<title>packages/util/math/fft/array/ftt&#45;core.ts&#45;&gt;packages/util/math/fft/array/root&#45;of&#45;unity.ts</title>
<path fill="none" stroke="#000000" stroke-width="2" stroke-opacity="0.200000" d="M277.46,-137.89C279.46,-138.08 281.5,-138.28 283.55,-138.47"/>
<polygon fill="#000000" fill-opacity="0.200000" stroke="#000000" stroke-width="2" stroke-opacity="0.200000" points="283.57,-140.59 289.74,-139.07 283.97,-136.41 283.57,-140.59"/>
</g>
<!-- packages/util/math/fft/array/index.ts -->
<g id="node7" class="node">
<title>packages/util/math/fft/array/index.ts</title>
<g id="a_node7"><a xlink:href="packages/util/math/fft/array/index.ts" xlink:title="index.ts">
<path fill="#ddfeff" stroke="black" d="M184.5,-133C184.5,-133 142.5,-133 142.5,-133 139.5,-133 136.5,-130 136.5,-127 136.5,-127 136.5,-121 136.5,-121 136.5,-118 139.5,-115 142.5,-115 142.5,-115 184.5,-115 184.5,-115 187.5,-115 190.5,-118 190.5,-121 190.5,-121 190.5,-127 190.5,-127 190.5,-130 187.5,-133 184.5,-133"/>
<text text-anchor="start" x="145" y="-121.8" font-family="Helvetica,sans-Serif" font-size="9.00">index.ts</text>
</a>
</g>
</g>
<!-- packages/util/math/fft/array/index.ts&#45;&gt;packages/util/math/fft/array/complex.ts -->
<g id="edge5" class="edge">
<title>packages/util/math/fft/array/index.ts&#45;&gt;packages/util/math/fft/array/complex.ts</title>
<path fill="none" stroke="#000000" stroke-width="2" stroke-opacity="0.200000" d="M190.69,-121.88C198.8,-121.25 207.77,-120.57 216,-120 241.42,-118.24 270.04,-116.49 292.31,-115.18"/>
<polygon fill="#000000" fill-opacity="0.200000" stroke="#000000" stroke-width="2" stroke-opacity="0.200000" points="292.54,-117.27 298.41,-114.82 292.3,-113.07 292.54,-117.27"/>
</g>
<!-- packages/util/math/fft/array/index.ts&#45;&gt;packages/util/math/fft/array/ftt&#45;core.ts -->
<g id="edge6" class="edge">
<title>packages/util/math/fft/array/index.ts&#45;&gt;packages/util/math/fft/array/ftt&#45;core.ts</title>
<path fill="none" stroke="#000000" stroke-width="2" stroke-opacity="0.200000" d="M190.57,-127.54C196.61,-128.36 203.14,-129.25 209.51,-130.11"/>
<polygon fill="#000000" fill-opacity="0.200000" stroke="#000000" stroke-width="2" stroke-opacity="0.200000" points="209.59,-132.24 215.81,-130.97 210.15,-128.08 209.59,-132.24"/>
</g>
<!-- packages/util/math/fft/complex.ts -->
<g id="node8" class="node">
<title>packages/util/math/fft/complex.ts</title>
<g id="a_node8"><a xlink:href="packages/util/math/fft/complex.ts" xlink:title="complex.ts">
<path fill="#ddfeff" stroke="black" d="M449,-66C449,-66 395,-66 395,-66 392,-66 389,-63 389,-60 389,-60 389,-54 389,-54 389,-51 392,-48 395,-48 395,-48 449,-48 449,-48 452,-48 455,-51 455,-54 455,-54 455,-60 455,-60 455,-63 452,-66 449,-66"/>
<text text-anchor="start" x="397" y="-54.8" font-family="Helvetica,sans-Serif" font-size="9.00">complex.ts</text>
</a>
</g>
</g>
<!-- packages/util/math/fft/ftt&#45;core.ts -->
<g id="node9" class="node">
<title>packages/util/math/fft/ftt&#45;core.ts</title>
<g id="a_node9"><a xlink:href="packages/util/math/fft/ftt-core.ts" xlink:title="ftt&#45;core.ts">
<path fill="#ddfeff" stroke="black" d="M271,-74C271,-74 222,-74 222,-74 219,-74 216,-71 216,-68 216,-68 216,-62 216,-62 216,-59 219,-56 222,-56 222,-56 271,-56 271,-56 274,-56 277,-59 277,-62 277,-62 277,-68 277,-68 277,-71 274,-74 271,-74"/>
<text text-anchor="start" x="224" y="-62.8" font-family="Helvetica,sans-Serif" font-size="9.00">ftt&#45;core.ts</text>
</a>
</g>
</g>
<!-- packages/util/math/fft/ftt&#45;core.ts&#45;&gt;packages/util/math/fft/complex.ts -->
<g id="edge7" class="edge">
<title>packages/util/math/fft/ftt&#45;core.ts&#45;&gt;packages/util/math/fft/complex.ts</title>
<path fill="none" stroke="#000000" stroke-width="2" stroke-opacity="0.200000" d="M277.33,-63.62C306.48,-62.28 351,-60.23 382.75,-58.76"/>
<polygon fill="#000000" fill-opacity="0.200000" stroke="#000000" stroke-width="2" stroke-opacity="0.200000" points="383.02,-60.85 388.92,-58.48 382.83,-56.66 383.02,-60.85"/>
</g>
<!-- packages/util/math/fft/root&#45;of&#45;unity.ts -->
<g id="node10" class="node">
<title>packages/util/math/fft/root&#45;of&#45;unity.ts</title>
<g id="a_node10"><a xlink:href="packages/util/math/fft/root-of-unity.ts" xlink:title="root&#45;of&#45;unity.ts">
<path fill="#ddfeff" stroke="black" d="M367,-88C367,-88 296,-88 296,-88 293,-88 290,-85 290,-82 290,-82 290,-76 290,-76 290,-73 293,-70 296,-70 296,-70 367,-70 367,-70 370,-70 373,-73 373,-76 373,-76 373,-82 373,-82 373,-85 370,-88 367,-88"/>
<text text-anchor="start" x="298" y="-76.8" font-family="Helvetica,sans-Serif" font-size="9.00">root&#45;of&#45;unity.ts</text>
</a>
</g>
</g>
<!-- packages/util/math/fft/ftt&#45;core.ts&#45;&gt;packages/util/math/fft/root&#45;of&#45;unity.ts -->
<g id="edge8" class="edge">
<title>packages/util/math/fft/ftt&#45;core.ts&#45;&gt;packages/util/math/fft/root&#45;of&#45;unity.ts</title>
<path fill="none" stroke="#000000" stroke-width="2" stroke-opacity="0.200000" d="M277.46,-70.05C279.46,-70.39 281.5,-70.73 283.55,-71.08"/>
<polygon fill="#000000" fill-opacity="0.200000" stroke="#000000" stroke-width="2" stroke-opacity="0.200000" points="283.48,-73.2 289.74,-72.13 284.18,-69.06 283.48,-73.2"/>
</g>
<!-- packages/util/math/fft/root&#45;of&#45;unity.ts&#45;&gt;packages/util/math/fft/complex.ts -->
<g id="edge12" class="edge">
<title>packages/util/math/fft/root&#45;of&#45;unity.ts&#45;&gt;packages/util/math/fft/complex.ts</title>
<path fill="none" stroke="#000000" stroke-width="2" stroke-opacity="0.200000" d="M368.75,-69.99C373.45,-68.82 378.27,-67.62 383,-66.45"/>
<polygon fill="#000000" fill-opacity="0.200000" stroke="#000000" stroke-width="2" stroke-opacity="0.200000" points="383.6,-68.46 388.92,-64.98 382.59,-64.38 383.6,-68.46"/>
</g>
<!-- packages/util/math/fft/index.ts -->
<g id="node11" class="node">
<title>packages/util/math/fft/index.ts</title>
<g id="a_node11"><a xlink:href="packages/util/math/fft/index.ts" xlink:title="index.ts">
<path fill="#ddfeff" stroke="black" d="M184.5,-88C184.5,-88 142.5,-88 142.5,-88 139.5,-88 136.5,-85 136.5,-82 136.5,-82 136.5,-76 136.5,-76 136.5,-73 139.5,-70 142.5,-70 142.5,-70 184.5,-70 184.5,-70 187.5,-70 190.5,-73 190.5,-76 190.5,-76 190.5,-82 190.5,-82 190.5,-85 187.5,-88 184.5,-88"/>
<text text-anchor="start" x="145" y="-76.8" font-family="Helvetica,sans-Serif" font-size="9.00">index.ts</text>
</a>
</g>
</g>
<!-- packages/util/math/fft/index.ts&#45;&gt;packages/util/math/fft/complex.ts -->
<g id="edge9" class="edge">
<title>packages/util/math/fft/index.ts&#45;&gt;packages/util/math/fft/complex.ts</title>
<path fill="none" stroke="#000000" stroke-width="2" stroke-opacity="0.200000" d="M190.69,-72.52C196.26,-70.39 201.85,-67.6 206.5,-64 212.45,-59.4 209.36,-53.52 216,-50 270.58,-21.07 345.32,-34.56 387.84,-46.27"/>
<polygon fill="#000000" fill-opacity="0.200000" stroke="#000000" stroke-width="2" stroke-opacity="0.200000" points="387.53,-48.36 393.87,-47.98 388.67,-44.32 387.53,-48.36"/>
</g>
<!-- packages/util/math/fft/index.ts&#45;&gt;packages/util/math/fft/ftt&#45;core.ts -->
<g id="edge10" class="edge">
<title>packages/util/math/fft/index.ts&#45;&gt;packages/util/math/fft/ftt&#45;core.ts</title>
<path fill="none" stroke="#000000" stroke-width="2" stroke-opacity="0.200000" d="M190.57,-74.49C196.61,-73.45 203.14,-72.32 209.51,-71.22"/>
<polygon fill="#000000" fill-opacity="0.200000" stroke="#000000" stroke-width="2" stroke-opacity="0.200000" points="210.26,-73.22 215.81,-70.13 209.54,-69.08 210.26,-73.22"/>
</g>
<!-- packages/util/math/fft/index.ts&#45;&gt;packages/util/math/fft/root&#45;of&#45;unity.ts -->
<g id="edge11" class="edge">
<title>packages/util/math/fft/index.ts&#45;&gt;packages/util/math/fft/root&#45;of&#45;unity.ts</title>
<path fill="none" stroke="#000000" stroke-width="2" stroke-opacity="0.200000" d="M190.7,-79.61C198.81,-79.77 207.77,-79.92 216,-80 243.11,-80.26 249.89,-80.25 277,-80 279.22,-79.98 281.49,-79.95 283.79,-79.92"/>
<polygon fill="#000000" fill-opacity="0.200000" stroke="#000000" stroke-width="2" stroke-opacity="0.200000" points="283.93,-82.02 289.9,-79.84 283.87,-77.82 283.93,-82.02"/>
</g>
<!-- packages/util/math/fft/typed&#45;array.ts -->
<g id="node12" class="node">
<title>packages/util/math/fft/typed&#45;array.ts</title>
<g id="a_node12"><a xlink:href="packages/util/math/fft/typed-array.ts" xlink:title="no&#45;orphans">
<path fill="#ccffcc" stroke="orange" d="M197,-58C197,-58 130,-58 130,-58 127,-58 124,-55 124,-52 124,-52 124,-46 124,-46 124,-43 127,-40 130,-40 130,-40 197,-40 197,-40 200,-40 203,-43 203,-46 203,-46 203,-52 203,-52 203,-55 200,-58 197,-58"/>
<text text-anchor="start" x="132" y="-46.8" font-family="Helvetica,sans-Serif" font-size="9.00" fill="orange">typed&#45;array.ts</text>
</a>
</g>
</g>
<!-- packages/util/math/index.test.ts -->
<g id="node13" class="node">
<title>packages/util/math/index.test.ts</title>
<g id="a_node13"><a xlink:href="packages/util/math/index.test.ts" xlink:title="no&#45;orphans">
<path fill="#ccffcc" stroke="orange" d="M100.5,-114C100.5,-114 39.5,-114 39.5,-114 36.5,-114 33.5,-111 33.5,-108 33.5,-108 33.5,-102 33.5,-102 33.5,-99 36.5,-96 39.5,-96 39.5,-96 100.5,-96 100.5,-96 103.5,-96 106.5,-99 106.5,-102 106.5,-102 106.5,-108 106.5,-108 106.5,-111 103.5,-114 100.5,-114"/>
<text text-anchor="start" x="41.5" y="-102.8" font-family="Helvetica,sans-Serif" font-size="9.00" fill="orange">index.test.ts</text>
</a>
</g>
</g>
<!-- packages/util/math/index.ts -->
<g id="node14" class="node">
<title>packages/util/math/index.ts</title>
<g id="a_node14"><a xlink:href="packages/util/math/index.ts" xlink:title="index.ts">
<path fill="#ddfeff" stroke="black" d="M91,-84C91,-84 49,-84 49,-84 46,-84 43,-81 43,-78 43,-78 43,-72 43,-72 43,-69 46,-66 49,-66 49,-66 91,-66 91,-66 94,-66 97,-69 97,-72 97,-72 97,-78 97,-78 97,-81 94,-84 91,-84"/>
<text text-anchor="start" x="51.5" y="-72.8" font-family="Helvetica,sans-Serif" font-size="9.00">index.ts</text>
</a>
</g>
</g>
<!-- packages/util/math/index.ts&#45;&gt;packages/util/stdlib/dist/index.js -->
<g id="edge14" class="edge">
<title>packages/util/math/index.ts&#45;&gt;packages/util/stdlib/dist/index.js</title>
<path fill="none" stroke="#000000" stroke-width="2" stroke-opacity="0.200000" d="M97.02,-81.26C101.27,-83.38 105.2,-86.21 108,-90 120.07,-106.32 109.97,-161.62 116,-181 123.95,-206.55 140.72,-232.92 151.79,-248.63"/>
<polygon fill="#000000" fill-opacity="0.200000" stroke="#000000" stroke-width="2" stroke-opacity="0.200000" points="150.11,-249.88 155.31,-253.54 153.52,-247.44 150.11,-249.88"/>
</g>
<!-- packages/util/math/index.ts&#45;&gt;packages/util/math/fft/index.ts -->
<g id="edge13" class="edge">
<title>packages/util/math/index.ts&#45;&gt;packages/util/math/fft/index.ts</title>
<path fill="none" stroke="#000000" stroke-width="2" stroke-opacity="0.200000" d="M97.47,-76.16C107.7,-76.6 119.51,-77.12 130.24,-77.59"/>
<polygon fill="#000000" fill-opacity="0.200000" stroke="#000000" stroke-width="2" stroke-opacity="0.200000" points="136.32,-79.96 130.42,-77.6 136.5,-75.76 136.32,-79.96"/>
</g>
</g>
</svg>
