<?xml version="1.0" encoding="UTF-8" standalone="no"?>
<!DOCTYPE svg PUBLIC "-//W3C//DTD SVG 1.1//EN"
 "http://www.w3.org/Graphics/SVG/1.1/DTD/svg11.dtd">
<!-- Generated by graphviz version 2.43.0 (0)
 -->
<!-- Title: dependency&#45;cruiser output Pages: 1 -->
<svg width="885pt" height="1182pt"
 viewBox="0.00 0.00 885.00 1182.00" xmlns="http://www.w3.org/2000/svg" xmlns:xlink="http://www.w3.org/1999/xlink">
<g id="graph0" class="graph" transform="scale(1 1) rotate(0) translate(4 1178)">
<title>dependency&#45;cruiser output</title>
<polygon fill="white" stroke="transparent" points="-4,4 -4,-1178 881,-1178 881,4 -4,4"/>
<g id="clust1" class="cluster">
<title>cluster_packages</title>
<path fill="#ffffff" stroke="black" stroke-width="2" d="M20,-8C20,-8 857,-8 857,-8 863,-8 869,-14 869,-20 869,-20 869,-1154 869,-1154 869,-1160 863,-1166 857,-1166 857,-1166 20,-1166 20,-1166 14,-1166 8,-1160 8,-1154 8,-1154 8,-20 8,-20 8,-14 14,-8 20,-8"/>
<text text-anchor="middle" x="438.5" y="-1154.8" font-family="Helvetica,sans-Serif" font-weight="bold" font-size="9.00">packages</text>
</g>
<g id="clust2" class="cluster">
<title>cluster_packages/cognitive&#45;theory&#45;of&#45;music</title>
<path fill="#ffffff" stroke="black" stroke-width="2" d="M400,-366C400,-366 525,-366 525,-366 531,-366 537,-372 537,-378 537,-378 537,-474 537,-474 537,-480 531,-486 525,-486 525,-486 400,-486 400,-486 394,-486 388,-480 388,-474 388,-474 388,-378 388,-378 388,-372 394,-366 400,-366"/>
<text text-anchor="middle" x="462.5" y="-474.8" font-family="Helvetica,sans-Serif" font-weight="bold" font-size="9.00">cognitive&#45;theory&#45;of&#45;music</text>
</g>
<g id="clust3" class="cluster">
<title>cluster_packages/cognitive&#45;theory&#45;of&#45;music/tonal&#45;pitch&#45;space</title>
<path fill="#ffffff" stroke="black" stroke-width="2" d="M421,-374C421,-374 503,-374 503,-374 509,-374 515,-380 515,-386 515,-386 515,-448 515,-448 515,-454 509,-460 503,-460 503,-460 421,-460 421,-460 415,-460 409,-454 409,-448 409,-448 409,-386 409,-386 409,-380 415,-374 421,-374"/>
<text text-anchor="middle" x="462" y="-448.8" font-family="Helvetica,sans-Serif" font-weight="bold" font-size="9.00">tonal&#45;pitch&#45;space</text>
</g>
<g id="clust4" class="cluster">
<title>cluster_packages/cognitive&#45;theory&#45;of&#45;music/tonal&#45;pitch&#45;space/dist</title>
<path fill="#ffffff" stroke="black" stroke-width="2" d="M439,-382C439,-382 485,-382 485,-382 491,-382 497,-388 497,-394 497,-394 497,-422 497,-422 497,-428 491,-434 485,-434 485,-434 439,-434 439,-434 433,-434 427,-428 427,-422 427,-422 427,-394 427,-394 427,-388 433,-382 439,-382"/>
<text text-anchor="middle" x="462" y="-422.8" font-family="Helvetica,sans-Serif" font-weight="bold" font-size="9.00">dist</text>
</g>
<g id="clust5" class="cluster">
<title>cluster_packages/music&#45;structure</title>
<path fill="#ffffff" stroke="black" stroke-width="2" d="M28,-494C28,-494 718,-494 718,-494 724,-494 730,-500 730,-506 730,-506 730,-1034 730,-1034 730,-1040 724,-1046 718,-1046 718,-1046 28,-1046 28,-1046 22,-1046 16,-1040 16,-1034 16,-1034 16,-506 16,-506 16,-500 22,-494 28,-494"/>
<text text-anchor="middle" x="373" y="-1034.8" font-family="Helvetica,sans-Serif" font-weight="bold" font-size="9.00">music&#45;structure</text>
</g>
<g id="clust6" class="cluster">
<title>cluster_packages/music&#45;structure/chord</title>
<path fill="#ffffff" stroke="black" stroke-width="2" d="M36,-502C36,-502 710,-502 710,-502 716,-502 722,-508 722,-514 722,-514 722,-1008 722,-1008 722,-1014 716,-1020 710,-1020 710,-1020 36,-1020 36,-1020 30,-1020 24,-1014 24,-1008 24,-1008 24,-514 24,-514 24,-508 30,-502 36,-502"/>
<text text-anchor="middle" x="373" y="-1008.8" font-family="Helvetica,sans-Serif" font-weight="bold" font-size="9.00">chord</text>
</g>
<g id="clust7" class="cluster">
<title>cluster_packages/music&#45;structure/chord/chord&#45;analyze</title>
<path fill="#ffffff" stroke="black" stroke-width="2" d="M44,-510C44,-510 702,-510 702,-510 708,-510 714,-516 714,-522 714,-522 714,-888 714,-888 714,-894 708,-900 702,-900 702,-900 44,-900 44,-900 38,-900 32,-894 32,-888 32,-888 32,-522 32,-522 32,-516 38,-510 44,-510"/>
<text text-anchor="middle" x="373" y="-888.8" font-family="Helvetica,sans-Serif" font-weight="bold" font-size="9.00">chord&#45;analyze</text>
</g>
<g id="clust8" class="cluster">
<title>cluster_packages/music&#45;structure/chord/chord&#45;analyze/src</title>
<path fill="#ffffff" stroke="black" stroke-width="2" d="M52,-518C52,-518 694,-518 694,-518 700,-518 706,-524 706,-530 706,-530 706,-772 706,-772 706,-778 700,-784 694,-784 694,-784 52,-784 52,-784 46,-784 40,-778 40,-772 40,-772 40,-530 40,-530 40,-524 46,-518 52,-518"/>
<text text-anchor="middle" x="373" y="-772.8" font-family="Helvetica,sans-Serif" font-weight="bold" font-size="9.00">src</text>
</g>
<g id="clust9" class="cluster">
<title>cluster_packages/music&#45;structure/chord/chord&#45;analyze/src/chord&#45;analyze</title>
<path fill="#ffffff" stroke="black" stroke-width="2" d="M60,-526C60,-526 344,-526 344,-526 350,-526 356,-532 356,-538 356,-538 356,-686 356,-686 356,-692 350,-698 344,-698 344,-698 60,-698 60,-698 54,-698 48,-692 48,-686 48,-686 48,-538 48,-538 48,-532 54,-526 60,-526"/>
<text text-anchor="middle" x="202" y="-686.8" font-family="Helvetica,sans-Serif" font-weight="bold" font-size="9.00">chord&#45;analyze</text>
</g>
<g id="clust10" class="cluster">
<title>cluster_packages/music&#45;structure/chord/chord&#45;analyze/src/key&#45;estimation</title>
<path fill="#ffffff" stroke="black" stroke-width="2" d="M223,-706C223,-706 686,-706 686,-706 692,-706 698,-712 698,-718 698,-718 698,-746 698,-746 698,-752 692,-758 686,-758 686,-758 223,-758 223,-758 217,-758 211,-752 211,-746 211,-746 211,-718 211,-718 211,-712 217,-706 223,-706"/>
<text text-anchor="middle" x="454.5" y="-746.8" font-family="Helvetica,sans-Serif" font-weight="bold" font-size="9.00">key&#45;estimation</text>
</g>
<g id="clust11" class="cluster">
<title>cluster_packages/music&#45;structure/chord/chord&#45;analyze/test</title>
<path fill="#ffffff" stroke="black" stroke-width="2" d="M68.5,-792C68.5,-792 174.5,-792 174.5,-792 180.5,-792 186.5,-798 186.5,-804 186.5,-804 186.5,-862 186.5,-862 186.5,-868 180.5,-874 174.5,-874 174.5,-874 68.5,-874 68.5,-874 62.5,-874 56.5,-868 56.5,-862 56.5,-862 56.5,-804 56.5,-804 56.5,-798 62.5,-792 68.5,-792"/>
<text text-anchor="middle" x="121.5" y="-862.8" font-family="Helvetica,sans-Serif" font-weight="bold" font-size="9.00">test</text>
</g>
<g id="clust12" class="cluster">
<title>cluster_packages/music&#45;structure/chord/roman&#45;chord</title>
<path fill="#ffffff" stroke="black" stroke-width="2" d="M431,-908C431,-908 493,-908 493,-908 499,-908 505,-914 505,-920 505,-920 505,-982 505,-982 505,-988 499,-994 493,-994 493,-994 431,-994 431,-994 425,-994 419,-988 419,-982 419,-982 419,-920 419,-920 419,-914 425,-908 431,-908"/>
<text text-anchor="middle" x="462" y="-982.8" font-family="Helvetica,sans-Serif" font-weight="bold" font-size="9.00">roman&#45;chord</text>
</g>
<g id="clust13" class="cluster">
<title>cluster_packages/music&#45;structure/chord/roman&#45;chord/dist</title>
<path fill="#ffffff" stroke="black" stroke-width="2" d="M439,-916C439,-916 485,-916 485,-916 491,-916 497,-922 497,-928 497,-928 497,-956 497,-956 497,-962 491,-968 485,-968 485,-968 439,-968 439,-968 433,-968 427,-962 427,-956 427,-956 427,-928 427,-928 427,-922 433,-916 439,-916"/>
<text text-anchor="middle" x="462" y="-956.8" font-family="Helvetica,sans-Serif" font-weight="bold" font-size="9.00">dist</text>
</g>
<g id="clust14" class="cluster">
<title>cluster_packages/tonal&#45;objects</title>
<path fill="#ffffff" stroke="black" stroke-width="2" d="M604,-1054C604,-1054 666,-1054 666,-1054 672,-1054 678,-1060 678,-1066 678,-1066 678,-1128 678,-1128 678,-1134 672,-1140 666,-1140 666,-1140 604,-1140 604,-1140 598,-1140 592,-1134 592,-1128 592,-1128 592,-1066 592,-1066 592,-1060 598,-1054 604,-1054"/>
<text text-anchor="middle" x="635" y="-1128.8" font-family="Helvetica,sans-Serif" font-weight="bold" font-size="9.00">tonal&#45;objects</text>
</g>
<g id="clust15" class="cluster">
<title>cluster_packages/tonal&#45;objects/dist</title>
<path fill="#ffffff" stroke="black" stroke-width="2" d="M612,-1062C612,-1062 658,-1062 658,-1062 664,-1062 670,-1068 670,-1074 670,-1074 670,-1102 670,-1102 670,-1108 664,-1114 658,-1114 658,-1114 612,-1114 612,-1114 606,-1114 600,-1108 600,-1102 600,-1102 600,-1074 600,-1074 600,-1068 606,-1062 612,-1062"/>
<text text-anchor="middle" x="635" y="-1102.8" font-family="Helvetica,sans-Serif" font-weight="bold" font-size="9.00">dist</text>
</g>
<g id="clust16" class="cluster">
<title>cluster_packages/util</title>
<path fill="#ffffff" stroke="black" stroke-width="2" d="M581,-16C581,-16 849,-16 849,-16 855,-16 861,-22 861,-28 861,-28 861,-474 861,-474 861,-480 855,-486 849,-486 849,-486 581,-486 581,-486 575,-486 569,-480 569,-474 569,-474 569,-28 569,-28 569,-22 575,-16 581,-16"/>
<text text-anchor="middle" x="715" y="-474.8" font-family="Helvetica,sans-Serif" font-weight="bold" font-size="9.00">util</text>
</g>
<g id="clust17" class="cluster">
<title>cluster_packages/util/graph</title>
<path fill="#ffffff" stroke="black" stroke-width="2" d="M604,-24C604,-24 666,-24 666,-24 672,-24 678,-30 678,-36 678,-36 678,-98 678,-98 678,-104 672,-110 666,-110 666,-110 604,-110 604,-110 598,-110 592,-104 592,-98 592,-98 592,-36 592,-36 592,-30 598,-24 604,-24"/>
<text text-anchor="middle" x="635" y="-98.8" font-family="Helvetica,sans-Serif" font-weight="bold" font-size="9.00">graph</text>
</g>
<g id="clust18" class="cluster">
<title>cluster_packages/util/graph/dist</title>
<path fill="#ffffff" stroke="black" stroke-width="2" d="M612,-32C612,-32 658,-32 658,-32 664,-32 670,-38 670,-44 670,-44 670,-72 670,-72 670,-78 664,-84 658,-84 658,-84 612,-84 612,-84 606,-84 600,-78 600,-72 600,-72 600,-44 600,-44 600,-38 606,-32 612,-32"/>
<text text-anchor="middle" x="635" y="-72.8" font-family="Helvetica,sans-Serif" font-weight="bold" font-size="9.00">dist</text>
</g>
<g id="clust19" class="cluster">
<title>cluster_packages/util/math</title>
<path fill="#ffffff" stroke="black" stroke-width="2" d="M589,-118C589,-118 841,-118 841,-118 847,-118 853,-124 853,-130 853,-130 853,-226 853,-226 853,-232 847,-238 841,-238 841,-238 589,-238 589,-238 583,-238 577,-232 577,-226 577,-226 577,-130 577,-130 577,-124 583,-118 589,-118"/>
<text text-anchor="middle" x="715" y="-226.8" font-family="Helvetica,sans-Serif" font-weight="bold" font-size="9.00">math</text>
</g>
<g id="clust20" class="cluster">
<title>cluster_packages/util/math/src</title>
<path fill="#ffffff" stroke="black" stroke-width="2" d="M597,-126C597,-126 833,-126 833,-126 839,-126 845,-132 845,-138 845,-138 845,-200 845,-200 845,-206 839,-212 833,-212 833,-212 597,-212 597,-212 591,-212 585,-206 585,-200 585,-200 585,-138 585,-138 585,-132 591,-126 597,-126"/>
<text text-anchor="middle" x="715" y="-200.8" font-family="Helvetica,sans-Serif" font-weight="bold" font-size="9.00">src</text>
</g>
<g id="clust21" class="cluster">
<title>cluster_packages/util/math/src/reduction</title>
<path fill="#ffffff" stroke="black" stroke-width="2" d="M605,-134C605,-134 825,-134 825,-134 831,-134 837,-140 837,-146 837,-146 837,-174 837,-174 837,-180 831,-186 825,-186 825,-186 605,-186 605,-186 599,-186 593,-180 593,-174 593,-174 593,-146 593,-146 593,-140 599,-134 605,-134"/>
<text text-anchor="middle" x="715" y="-174.8" font-family="Helvetica,sans-Serif" font-weight="bold" font-size="9.00">reduction</text>
</g>
<g id="clust22" class="cluster">
<title>cluster_packages/util/stdlib</title>
<path fill="#ffffff" stroke="black" stroke-width="2" d="M589,-340C589,-340 681,-340 681,-340 687,-340 693,-346 693,-352 693,-352 693,-448 693,-448 693,-454 687,-460 681,-460 681,-460 589,-460 589,-460 583,-460 577,-454 577,-448 577,-448 577,-352 577,-352 577,-346 583,-340 589,-340"/>
<text text-anchor="middle" x="635" y="-448.8" font-family="Helvetica,sans-Serif" font-weight="bold" font-size="9.00">stdlib</text>
</g>
<g id="clust23" class="cluster">
<title>cluster_packages/util/stdlib/src</title>
<path fill="#ffffff" stroke="black" stroke-width="2" d="M597,-348C597,-348 673,-348 673,-348 679,-348 685,-354 685,-360 685,-360 685,-422 685,-422 685,-428 679,-434 673,-434 673,-434 597,-434 597,-434 591,-434 585,-428 585,-422 585,-422 585,-360 585,-360 585,-354 591,-348 597,-348"/>
<text text-anchor="middle" x="635" y="-422.8" font-family="Helvetica,sans-Serif" font-weight="bold" font-size="9.00">src</text>
</g>
<g id="clust24" class="cluster">
<title>cluster_packages/util/stdlib/src/assertion</title>
<path fill="#ffffff" stroke="black" stroke-width="2" d="M605,-356C605,-356 665,-356 665,-356 671,-356 677,-362 677,-368 677,-368 677,-396 677,-396 677,-402 671,-408 665,-408 665,-408 605,-408 605,-408 599,-408 593,-402 593,-396 593,-396 593,-368 593,-368 593,-362 599,-356 605,-356"/>
<text text-anchor="middle" x="635" y="-396.8" font-family="Helvetica,sans-Serif" font-weight="bold" font-size="9.00">assertion</text>
</g>
<g id="clust25" class="cluster">
<title>cluster_packages/util/time&#45;and</title>
<path fill="#ffffff" stroke="black" stroke-width="2" d="M604,-246C604,-246 666,-246 666,-246 672,-246 678,-252 678,-258 678,-258 678,-320 678,-320 678,-326 672,-332 666,-332 666,-332 604,-332 604,-332 598,-332 592,-326 592,-320 592,-320 592,-258 592,-258 592,-252 598,-246 604,-246"/>
<text text-anchor="middle" x="635" y="-320.8" font-family="Helvetica,sans-Serif" font-weight="bold" font-size="9.00">time&#45;and</text>
</g>
<g id="clust26" class="cluster">
<title>cluster_packages/util/time&#45;and/dist</title>
<path fill="#ffffff" stroke="black" stroke-width="2" d="M612,-254C612,-254 658,-254 658,-254 664,-254 670,-260 670,-266 670,-266 670,-294 670,-294 670,-300 664,-306 658,-306 658,-306 612,-306 612,-306 606,-306 600,-300 600,-294 600,-294 600,-266 600,-266 600,-260 606,-254 612,-254"/>
<text text-anchor="middle" x="635" y="-294.8" font-family="Helvetica,sans-Serif" font-weight="bold" font-size="9.00">dist</text>
</g>
<!-- packages/cognitive&#45;theory&#45;of&#45;music/tonal&#45;pitch&#45;space/dist/index.js -->
<g id="node1" class="node">
<title>packages/cognitive&#45;theory&#45;of&#45;music/tonal&#45;pitch&#45;space/dist/index.js</title>
<g id="a_node1"><a xlink:href="packages/cognitive-theory-of-music/tonal-pitch-space/dist/index.js" xlink:title="index.js">
<polygon fill="#ffffcc" stroke="black" points="489,-408 487.5,-410 477,-410 475.5,-408 435,-408 435,-390 489,-390 489,-408"/>
<text text-anchor="start" x="444.5" y="-396.8" font-family="Helvetica,sans-Serif" font-size="9.00">index.js</text>
</a>
</g>
</g>
<!-- packages/music&#45;structure/chord/chord&#45;analyze/src/chord&#45;analyze/calc&#45;chord&#45;progression.ts -->
<g id="node2" class="node">
<title>packages/music&#45;structure/chord/chord&#45;analyze/src/chord&#45;analyze/calc&#45;chord&#45;progression.ts</title>
<g id="a_node2"><a xlink:href="packages/music-structure/chord/chord-analyze/src/chord-analyze/calc-chord-progression.ts" xlink:title="calc&#45;chord&#45;progression.ts">
<path fill="#ddfeff" stroke="black" d="M181,-627C181,-627 62,-627 62,-627 59,-627 56,-624 56,-621 56,-621 56,-615 56,-615 56,-612 59,-609 62,-609 62,-609 181,-609 181,-609 184,-609 187,-612 187,-615 187,-615 187,-621 187,-621 187,-624 184,-627 181,-627"/>
<text text-anchor="start" x="64" y="-615.8" font-family="Helvetica,sans-Serif" font-size="9.00">calc&#45;chord&#45;progression.ts</text>
</a>
</g>
</g>
<!-- packages/music&#45;structure/chord/chord&#45;analyze/src/key&#45;estimation/chord&#45;progression.ts -->
<g id="node3" class="node">
<title>packages/music&#45;structure/chord/chord&#45;analyze/src/key&#45;estimation/chord&#45;progression.ts</title>
<g id="a_node3"><a xlink:href="packages/music-structure/chord/chord-analyze/src/key-estimation/chord-progression.ts" xlink:title="chord&#45;progression.ts">
<path fill="#ddfeff" stroke="black" d="M323,-732C323,-732 225,-732 225,-732 222,-732 219,-729 219,-726 219,-726 219,-720 219,-720 219,-717 222,-714 225,-714 225,-714 323,-714 323,-714 326,-714 329,-717 329,-720 329,-720 329,-726 329,-726 329,-729 326,-732 323,-732"/>
<text text-anchor="start" x="227" y="-720.8" font-family="Helvetica,sans-Serif" font-size="9.00">chord&#45;progression.ts</text>
</a>
</g>
</g>
<!-- packages/music&#45;structure/chord/chord&#45;analyze/src/chord&#45;analyze/calc&#45;chord&#45;progression.ts&#45;&gt;packages/music&#45;structure/chord/chord&#45;analyze/src/key&#45;estimation/chord&#45;progression.ts -->
<g id="edge1" class="edge">
<title>packages/music&#45;structure/chord/chord&#45;analyze/src/chord&#45;analyze/calc&#45;chord&#45;progression.ts&#45;&gt;packages/music&#45;structure/chord/chord&#45;analyze/src/key&#45;estimation/chord&#45;progression.ts</title>
<path fill="none" stroke="#000000" stroke-width="2" stroke-opacity="0.200000" d="M135.59,-627.13C162.5,-645.91 224.06,-688.86 254.81,-710.31"/>
<polygon fill="#000000" fill-opacity="0.200000" stroke="#000000" stroke-width="2" stroke-opacity="0.200000" points="253.71,-712.1 259.83,-713.81 256.11,-708.66 253.71,-712.1"/>
</g>
<!-- packages/music&#45;structure/chord/chord&#45;analyze/src/chord&#45;analyze/remove&#45;item.ts -->
<g id="node4" class="node">
<title>packages/music&#45;structure/chord/chord&#45;analyze/src/chord&#45;analyze/remove&#45;item.ts</title>
<g id="a_node4"><a xlink:href="packages/music-structure/chord/chord-analyze/src/chord-analyze/remove-item.ts" xlink:title="remove&#45;item.ts">
<path fill="#ddfeff" stroke="black" d="M310.5,-672C310.5,-672 237.5,-672 237.5,-672 234.5,-672 231.5,-669 231.5,-666 231.5,-666 231.5,-660 231.5,-660 231.5,-657 234.5,-654 237.5,-654 237.5,-654 310.5,-654 310.5,-654 313.5,-654 316.5,-657 316.5,-660 316.5,-660 316.5,-666 316.5,-666 316.5,-669 313.5,-672 310.5,-672"/>
<text text-anchor="start" x="239.5" y="-660.8" font-family="Helvetica,sans-Serif" font-size="9.00">remove&#45;item.ts</text>
</a>
</g>
</g>
<!-- packages/music&#45;structure/chord/chord&#45;analyze/src/chord&#45;analyze/calc&#45;chord&#45;progression.ts&#45;&gt;packages/music&#45;structure/chord/chord&#45;analyze/src/chord&#45;analyze/remove&#45;item.ts -->
<g id="edge2" class="edge">
<title>packages/music&#45;structure/chord/chord&#45;analyze/src/chord&#45;analyze/calc&#45;chord&#45;progression.ts&#45;&gt;packages/music&#45;structure/chord/chord&#45;analyze/src/chord&#45;analyze/remove&#45;item.ts</title>
<path fill="none" stroke="#000000" stroke-width="2" stroke-opacity="0.200000" d="M152.96,-627.11C177.21,-634.36 211.22,-644.53 236.85,-652.19"/>
<polygon fill="#000000" fill-opacity="0.200000" stroke="#000000" stroke-width="2" stroke-opacity="0.200000" points="236.5,-654.28 242.85,-653.98 237.7,-650.25 236.5,-654.28"/>
</g>
<!-- packages/music&#45;structure/chord/chord&#45;analyze/src/chord&#45;analyze/select&#45;suitable&#45;progression.ts -->
<g id="node5" class="node">
<title>packages/music&#45;structure/chord/chord&#45;analyze/src/chord&#45;analyze/select&#45;suitable&#45;progression.ts</title>
<g id="a_node5"><a xlink:href="packages/music-structure/chord/chord-analyze/src/chord-analyze/select-suitable-progression.ts" xlink:title="select&#45;suitable&#45;progression.ts">
<path fill="#ddfeff" stroke="black" d="M342,-642C342,-642 206,-642 206,-642 203,-642 200,-639 200,-636 200,-636 200,-630 200,-630 200,-627 203,-624 206,-624 206,-624 342,-624 342,-624 345,-624 348,-627 348,-630 348,-630 348,-636 348,-636 348,-639 345,-642 342,-642"/>
<text text-anchor="start" x="208" y="-630.8" font-family="Helvetica,sans-Serif" font-size="9.00">select&#45;suitable&#45;progression.ts</text>
</a>
</g>
</g>
<!-- packages/music&#45;structure/chord/chord&#45;analyze/src/chord&#45;analyze/calc&#45;chord&#45;progression.ts&#45;&gt;packages/music&#45;structure/chord/chord&#45;analyze/src/chord&#45;analyze/select&#45;suitable&#45;progression.ts -->
<g id="edge3" class="edge">
<title>packages/music&#45;structure/chord/chord&#45;analyze/src/chord&#45;analyze/calc&#45;chord&#45;progression.ts&#45;&gt;packages/music&#45;structure/chord/chord&#45;analyze/src/chord&#45;analyze/select&#45;suitable&#45;progression.ts</title>
<path fill="none" stroke="#000000" stroke-width="2" stroke-opacity="0.200000" d="M187.2,-624.45C189.27,-624.65 191.35,-624.86 193.44,-625.07"/>
<polygon fill="#000000" fill-opacity="0.200000" stroke="#000000" stroke-width="2" stroke-opacity="0.200000" points="193.53,-627.19 199.71,-625.69 193.94,-623.01 193.53,-627.19"/>
</g>
<!-- packages/music&#45;structure/chord/chord&#45;analyze/src/chord&#45;analyze/split&#45;array.ts -->
<g id="node6" class="node">
<title>packages/music&#45;structure/chord/chord&#45;analyze/src/chord&#45;analyze/split&#45;array.ts</title>
<g id="a_node6"><a xlink:href="packages/music-structure/chord/chord-analyze/src/chord-analyze/split-array.ts" xlink:title="split&#45;array.ts">
<path fill="#ddfeff" stroke="black" d="M303.5,-582C303.5,-582 244.5,-582 244.5,-582 241.5,-582 238.5,-579 238.5,-576 238.5,-576 238.5,-570 238.5,-570 238.5,-567 241.5,-564 244.5,-564 244.5,-564 303.5,-564 303.5,-564 306.5,-564 309.5,-567 309.5,-570 309.5,-570 309.5,-576 309.5,-576 309.5,-579 306.5,-582 303.5,-582"/>
<text text-anchor="start" x="246.5" y="-570.8" font-family="Helvetica,sans-Serif" font-size="9.00">split&#45;array.ts</text>
</a>
</g>
</g>
<!-- packages/music&#45;structure/chord/chord&#45;analyze/src/chord&#45;analyze/calc&#45;chord&#45;progression.ts&#45;&gt;packages/music&#45;structure/chord/chord&#45;analyze/src/chord&#45;analyze/split&#45;array.ts -->
<g id="edge4" class="edge">
<title>packages/music&#45;structure/chord/chord&#45;analyze/src/chord&#45;analyze/calc&#45;chord&#45;progression.ts&#45;&gt;packages/music&#45;structure/chord/chord&#45;analyze/src/chord&#45;analyze/split&#45;array.ts</title>
<path fill="none" stroke="#000000" stroke-width="2" stroke-opacity="0.200000" d="M152.96,-608.89C177.21,-601.64 211.22,-591.47 236.85,-583.81"/>
<polygon fill="#000000" fill-opacity="0.200000" stroke="#000000" stroke-width="2" stroke-opacity="0.200000" points="237.7,-585.75 242.85,-582.02 236.5,-581.72 237.7,-585.75"/>
</g>
<!-- packages/music&#45;structure/chord/chord&#45;analyze/src/chord&#45;analyze/time&#45;and&#45;chord.ts -->
<g id="node7" class="node">
<title>packages/music&#45;structure/chord/chord&#45;analyze/src/chord&#45;analyze/time&#45;and&#45;chord.ts</title>
<g id="a_node7"><a xlink:href="packages/music-structure/chord/chord-analyze/src/chord-analyze/time-and-chord.ts" xlink:title="time&#45;and&#45;chord.ts">
<path fill="#ddfeff" stroke="black" d="M317,-552C317,-552 231,-552 231,-552 228,-552 225,-549 225,-546 225,-546 225,-540 225,-540 225,-537 228,-534 231,-534 231,-534 317,-534 317,-534 320,-534 323,-537 323,-540 323,-540 323,-546 323,-546 323,-549 320,-552 317,-552"/>
<text text-anchor="start" x="233" y="-540.8" font-family="Helvetica,sans-Serif" font-size="9.00">time&#45;and&#45;chord.ts</text>
</a>
</g>
</g>
<!-- packages/music&#45;structure/chord/chord&#45;analyze/src/chord&#45;analyze/calc&#45;chord&#45;progression.ts&#45;&gt;packages/music&#45;structure/chord/chord&#45;analyze/src/chord&#45;analyze/time&#45;and&#45;chord.ts -->
<g id="edge5" class="edge">
<title>packages/music&#45;structure/chord/chord&#45;analyze/src/chord&#45;analyze/calc&#45;chord&#45;progression.ts&#45;&gt;packages/music&#45;structure/chord/chord&#45;analyze/src/chord&#45;analyze/time&#45;and&#45;chord.ts</title>
<path fill="none" stroke="#000000" stroke-width="2" stroke-opacity="0.200000" d="M140.65,-608.95C167.77,-595.44 218.89,-569.96 249.04,-554.94"/>
<polygon fill="#000000" fill-opacity="0.200000" stroke="#000000" stroke-width="2" stroke-opacity="0.200000" points="250.35,-556.63 254.78,-552.08 248.47,-552.88 250.35,-556.63"/>
</g>
<!-- packages/music&#45;structure/chord/chord&#45;analyze/src/chord&#45;analyze/time&#45;and&#45;roman&#45;analysis.ts -->
<g id="node8" class="node">
<title>packages/music&#45;structure/chord/chord&#45;analyze/src/chord&#45;analyze/time&#45;and&#45;roman&#45;analysis.ts</title>
<g id="a_node8"><a xlink:href="packages/music-structure/chord/chord-analyze/src/chord-analyze/time-and-roman-analysis.ts" xlink:title="time&#45;and&#45;roman&#45;analysis.ts">
<path fill="#ddfeff" stroke="black" d="M337.5,-612C337.5,-612 210.5,-612 210.5,-612 207.5,-612 204.5,-609 204.5,-606 204.5,-606 204.5,-600 204.5,-600 204.5,-597 207.5,-594 210.5,-594 210.5,-594 337.5,-594 337.5,-594 340.5,-594 343.5,-597 343.5,-600 343.5,-600 343.5,-606 343.5,-606 343.5,-609 340.5,-612 337.5,-612"/>
<text text-anchor="start" x="212.5" y="-600.8" font-family="Helvetica,sans-Serif" font-size="9.00">time&#45;and&#45;roman&#45;analysis.ts</text>
</a>
</g>
</g>
<!-- packages/music&#45;structure/chord/chord&#45;analyze/src/chord&#45;analyze/calc&#45;chord&#45;progression.ts&#45;&gt;packages/music&#45;structure/chord/chord&#45;analyze/src/chord&#45;analyze/time&#45;and&#45;roman&#45;analysis.ts -->
<g id="edge6" class="edge">
<title>packages/music&#45;structure/chord/chord&#45;analyze/src/chord&#45;analyze/calc&#45;chord&#45;progression.ts&#45;&gt;packages/music&#45;structure/chord/chord&#45;analyze/src/chord&#45;analyze/time&#45;and&#45;roman&#45;analysis.ts</title>
<path fill="none" stroke="#000000" stroke-width="2" stroke-opacity="0.200000" d="M187.2,-611.55C190.77,-611.2 194.38,-610.84 197.98,-610.48"/>
<polygon fill="#000000" fill-opacity="0.200000" stroke="#000000" stroke-width="2" stroke-opacity="0.200000" points="198.28,-612.56 204.04,-609.87 197.86,-608.38 198.28,-612.56"/>
</g>
<!-- packages/music&#45;structure/chord/chord&#45;analyze/src/key&#45;estimation/chord&#45;progression.ts&#45;&gt;packages/cognitive&#45;theory&#45;of&#45;music/tonal&#45;pitch&#45;space/dist/index.js -->
<g id="edge15" class="edge">
<title>packages/music&#45;structure/chord/chord&#45;analyze/src/key&#45;estimation/chord&#45;progression.ts&#45;&gt;packages/cognitive&#45;theory&#45;of&#45;music/tonal&#45;pitch&#45;space/dist/index.js</title>
<path fill="none" stroke="#000000" stroke-width="2" stroke-opacity="0.200000" d="M280.17,-714C305.93,-669.13 420.46,-469.62 452.59,-413.65"/>
<polygon fill="#000000" fill-opacity="0.200000" stroke="#000000" stroke-width="2" stroke-opacity="0.200000" points="454.6,-414.36 455.77,-408.11 450.96,-412.27 454.6,-414.36"/>
</g>
<!-- packages/music&#45;structure/chord/roman&#45;chord/dist/index.js -->
<g id="node9" class="node">
<title>packages/music&#45;structure/chord/roman&#45;chord/dist/index.js</title>
<g id="a_node9"><a xlink:href="packages/music-structure/chord/roman-chord/dist/index.js" xlink:title="index.js">
<polygon fill="#ffffcc" stroke="black" points="489,-942 487.5,-944 477,-944 475.5,-942 435,-942 435,-924 489,-924 489,-942"/>
<text text-anchor="start" x="444.5" y="-930.8" font-family="Helvetica,sans-Serif" font-size="9.00">index.js</text>
</a>
</g>
</g>
<!-- packages/music&#45;structure/chord/chord&#45;analyze/src/key&#45;estimation/chord&#45;progression.ts&#45;&gt;packages/music&#45;structure/chord/roman&#45;chord/dist/index.js -->
<g id="edge13" class="edge">
<title>packages/music&#45;structure/chord/chord&#45;analyze/src/key&#45;estimation/chord&#45;progression.ts&#45;&gt;packages/music&#45;structure/chord/roman&#45;chord/dist/index.js</title>
<path fill="none" stroke="#000000" stroke-width="2" stroke-opacity="0.200000" d="M282.99,-732.02C312.14,-764.93 412.88,-878.67 448.44,-918.82"/>
<polygon fill="#000000" fill-opacity="0.200000" stroke="#000000" stroke-width="2" stroke-opacity="0.200000" points="447.28,-920.67 452.83,-923.77 450.42,-917.89 447.28,-920.67"/>
</g>
<!-- packages/music&#45;structure/chord/chord&#45;analyze/src/key&#45;estimation/get&#45;chord.ts -->
<g id="node11" class="node">
<title>packages/music&#45;structure/chord/chord&#45;analyze/src/key&#45;estimation/get&#45;chord.ts</title>
<g id="a_node11"><a xlink:href="packages/music-structure/chord/chord-analyze/src/key-estimation/get-chord.ts" xlink:title="get&#45;chord.ts">
<path fill="#ddfeff" stroke="black" d="M492,-732C492,-732 432,-732 432,-732 429,-732 426,-729 426,-726 426,-726 426,-720 426,-720 426,-717 429,-714 432,-714 432,-714 492,-714 492,-714 495,-714 498,-717 498,-720 498,-720 498,-726 498,-726 498,-729 495,-732 492,-732"/>
<text text-anchor="start" x="434" y="-720.8" font-family="Helvetica,sans-Serif" font-size="9.00">get&#45;chord.ts</text>
</a>
</g>
</g>
<!-- packages/music&#45;structure/chord/chord&#45;analyze/src/key&#45;estimation/chord&#45;progression.ts&#45;&gt;packages/music&#45;structure/chord/chord&#45;analyze/src/key&#45;estimation/get&#45;chord.ts -->
<g id="edge10" class="edge">
<title>packages/music&#45;structure/chord/chord&#45;analyze/src/key&#45;estimation/chord&#45;progression.ts&#45;&gt;packages/music&#45;structure/chord/chord&#45;analyze/src/key&#45;estimation/get&#45;chord.ts</title>
<path fill="none" stroke="#000000" stroke-width="2" stroke-opacity="0.200000" d="M329.05,-723C357.94,-723 392.96,-723 419.66,-723"/>
<polygon fill="#000000" fill-opacity="0.200000" stroke="#000000" stroke-width="2" stroke-opacity="0.200000" points="419.92,-725.1 425.92,-723 419.92,-720.9 419.92,-725.1"/>
</g>
<!-- packages/util/graph/dist/index.js -->
<g id="node12" class="node">
<title>packages/util/graph/dist/index.js</title>
<g id="a_node12"><a xlink:href="packages/util/graph/dist/index.js" xlink:title="index.js">
<polygon fill="#ffffcc" stroke="black" points="662,-58 660.5,-60 650,-60 648.5,-58 608,-58 608,-40 662,-40 662,-58"/>
<text text-anchor="start" x="617.5" y="-46.8" font-family="Helvetica,sans-Serif" font-size="9.00">index.js</text>
</a>
</g>
</g>
<!-- packages/music&#45;structure/chord/chord&#45;analyze/src/key&#45;estimation/chord&#45;progression.ts&#45;&gt;packages/util/graph/dist/index.js -->
<g id="edge11" class="edge">
<title>packages/music&#45;structure/chord/chord&#45;analyze/src/key&#45;estimation/chord&#45;progression.ts&#45;&gt;packages/util/graph/dist/index.js</title>
<path fill="none" stroke="#000000" stroke-width="2" stroke-opacity="0.200000" d="M278.83,-713.98C317.64,-641.53 578.42,-154.63 627.16,-63.63"/>
<polygon fill="#000000" fill-opacity="0.200000" stroke="#000000" stroke-width="2" stroke-opacity="0.200000" points="629.08,-64.5 630.06,-58.22 625.38,-62.52 629.08,-64.5"/>
</g>
<!-- packages/util/math/src/reduction/compare.ts -->
<g id="node13" class="node">
<title>packages/util/math/src/reduction/compare.ts</title>
<g id="a_node13"><a xlink:href="packages/util/math/src/reduction/compare.ts" xlink:title="compare.ts">
<path fill="#ddfeff" stroke="black" d="M663,-160C663,-160 607,-160 607,-160 604,-160 601,-157 601,-154 601,-154 601,-148 601,-148 601,-145 604,-142 607,-142 607,-142 663,-142 663,-142 666,-142 669,-145 669,-148 669,-148 669,-154 669,-154 669,-157 666,-160 663,-160"/>
<text text-anchor="start" x="609" y="-148.8" font-family="Helvetica,sans-Serif" font-size="9.00">compare.ts</text>
</a>
</g>
</g>
<!-- packages/music&#45;structure/chord/chord&#45;analyze/src/key&#45;estimation/chord&#45;progression.ts&#45;&gt;packages/util/math/src/reduction/compare.ts -->
<g id="edge12" class="edge">
<title>packages/music&#45;structure/chord/chord&#45;analyze/src/key&#45;estimation/chord&#45;progression.ts&#45;&gt;packages/util/math/src/reduction/compare.ts</title>
<path fill="none" stroke="#000000" stroke-width="2" stroke-opacity="0.200000" d="M279.96,-713.55C322.04,-646.88 574,-247.66 625.72,-165.7"/>
<polygon fill="#000000" fill-opacity="0.200000" stroke="#000000" stroke-width="2" stroke-opacity="0.200000" points="627.67,-166.55 629.09,-160.36 624.12,-164.31 627.67,-166.55"/>
</g>
<!-- packages/tonal&#45;objects/dist/index.js -->
<g id="node14" class="node">
<title>packages/tonal&#45;objects/dist/index.js</title>
<g id="a_node14"><a xlink:href="packages/tonal-objects/dist/index.js" xlink:title="index.js">
<polygon fill="#ffffcc" stroke="black" points="662,-1088 660.5,-1090 650,-1090 648.5,-1088 608,-1088 608,-1070 662,-1070 662,-1088"/>
<text text-anchor="start" x="617.5" y="-1076.8" font-family="Helvetica,sans-Serif" font-size="9.00">index.js</text>
</a>
</g>
</g>
<!-- packages/music&#45;structure/chord/chord&#45;analyze/src/key&#45;estimation/chord&#45;progression.ts&#45;&gt;packages/tonal&#45;objects/dist/index.js -->
<g id="edge14" class="edge">
<title>packages/music&#45;structure/chord/chord&#45;analyze/src/key&#45;estimation/chord&#45;progression.ts&#45;&gt;packages/tonal&#45;objects/dist/index.js</title>
<path fill="none" stroke="#000000" stroke-width="2" stroke-opacity="0.200000" d="M283.29,-732.16C332.45,-780.64 562.32,-1007.32 621.22,-1065.41"/>
<polygon fill="#000000" fill-opacity="0.200000" stroke="#000000" stroke-width="2" stroke-opacity="0.200000" points="620.03,-1067.19 625.77,-1069.9 622.98,-1064.19 620.03,-1067.19"/>
</g>
<!-- packages/music&#45;structure/chord/chord&#45;analyze/src/chord&#45;analyze/select&#45;suitable&#45;progression.ts&#45;&gt;packages/music&#45;structure/chord/roman&#45;chord/dist/index.js -->
<g id="edge7" class="edge">
<title>packages/music&#45;structure/chord/chord&#45;analyze/src/chord&#45;analyze/select&#45;suitable&#45;progression.ts&#45;&gt;packages/music&#45;structure/chord/roman&#45;chord/dist/index.js</title>
<path fill="none" stroke="#000000" stroke-width="2" stroke-opacity="0.200000" d="M280.77,-642.31C307.51,-685.44 419.46,-866 452.06,-918.58"/>
<polygon fill="#000000" fill-opacity="0.200000" stroke="#000000" stroke-width="2" stroke-opacity="0.200000" points="450.35,-919.81 455.3,-923.8 453.92,-917.6 450.35,-919.81"/>
</g>
<!-- packages/util/time&#45;and/dist/index.js -->
<g id="node10" class="node">
<title>packages/util/time&#45;and/dist/index.js</title>
<g id="a_node10"><a xlink:href="packages/util/time-and/dist/index.js" xlink:title="index.js">
<polygon fill="#ffffcc" stroke="black" points="662,-280 660.5,-282 650,-282 648.5,-280 608,-280 608,-262 662,-262 662,-280"/>
<text text-anchor="start" x="617.5" y="-268.8" font-family="Helvetica,sans-Serif" font-size="9.00">index.js</text>
</a>
</g>
</g>
<!-- packages/music&#45;structure/chord/chord&#45;analyze/src/chord&#45;analyze/time&#45;and&#45;chord.ts&#45;&gt;packages/util/time&#45;and/dist/index.js -->
<g id="edge8" class="edge">
<title>packages/music&#45;structure/chord/chord&#45;analyze/src/chord&#45;analyze/time&#45;and&#45;chord.ts&#45;&gt;packages/util/time&#45;and/dist/index.js</title>
<path fill="none" stroke="#000000" stroke-width="2" stroke-opacity="0.200000" d="M286.01,-533.95C339.44,-493.69 555.63,-330.8 618.05,-283.77"/>
<polygon fill="#000000" fill-opacity="0.200000" stroke="#000000" stroke-width="2" stroke-opacity="0.200000" points="619.42,-285.37 622.94,-280.08 616.89,-282.02 619.42,-285.37"/>
</g>
<!-- packages/music&#45;structure/chord/chord&#45;analyze/src/chord&#45;analyze/time&#45;and&#45;roman&#45;analysis.ts&#45;&gt;packages/util/time&#45;and/dist/index.js -->
<g id="edge9" class="edge">
<title>packages/music&#45;structure/chord/chord&#45;analyze/src/chord&#45;analyze/time&#45;and&#45;roman&#45;analysis.ts&#45;&gt;packages/util/time&#45;and/dist/index.js</title>
<path fill="none" stroke="#000000" stroke-width="2" stroke-opacity="0.200000" d="M284.03,-593.77C334.54,-547.32 560.92,-339.13 620.56,-284.28"/>
<polygon fill="#000000" fill-opacity="0.200000" stroke="#000000" stroke-width="2" stroke-opacity="0.200000" points="622.19,-285.63 625.19,-280.03 619.35,-282.54 622.19,-285.63"/>
</g>
<!-- packages/music&#45;structure/chord/chord&#45;analyze/src/key&#45;estimation/get&#45;chord.ts&#45;&gt;packages/tonal&#45;objects/dist/index.js -->
<g id="edge18" class="edge">
<title>packages/music&#45;structure/chord/chord&#45;analyze/src/key&#45;estimation/get&#45;chord.ts&#45;&gt;packages/tonal&#45;objects/dist/index.js</title>
<path fill="none" stroke="#000000" stroke-width="2" stroke-opacity="0.200000" d="M467.4,-732.16C490.55,-780.35 598.26,-1004.6 626.96,-1064.34"/>
<polygon fill="#000000" fill-opacity="0.200000" stroke="#000000" stroke-width="2" stroke-opacity="0.200000" points="625.14,-1065.4 629.63,-1069.9 628.93,-1063.59 625.14,-1065.4"/>
</g>
<!-- packages/music&#45;structure/chord/chord&#45;analyze/src/key&#45;estimation/get&#45;body&#45;and&#45;root.ts -->
<g id="node15" class="node">
<title>packages/music&#45;structure/chord/chord&#45;analyze/src/key&#45;estimation/get&#45;body&#45;and&#45;root.ts</title>
<g id="a_node15"><a xlink:href="packages/music-structure/chord/chord-analyze/src/key-estimation/get-body-and-root.ts" xlink:title="get&#45;body&#45;and&#45;root.ts">
<path fill="#ddfeff" stroke="black" d="M684,-732C684,-732 586,-732 586,-732 583,-732 580,-729 580,-726 580,-726 580,-720 580,-720 580,-717 583,-714 586,-714 586,-714 684,-714 684,-714 687,-714 690,-717 690,-720 690,-720 690,-726 690,-726 690,-729 687,-732 684,-732"/>
<text text-anchor="start" x="588" y="-720.8" font-family="Helvetica,sans-Serif" font-size="9.00">get&#45;body&#45;and&#45;root.ts</text>
</a>
</g>
</g>
<!-- packages/music&#45;structure/chord/chord&#45;analyze/src/key&#45;estimation/get&#45;chord.ts&#45;&gt;packages/music&#45;structure/chord/chord&#45;analyze/src/key&#45;estimation/get&#45;body&#45;and&#45;root.ts -->
<g id="edge16" class="edge">
<title>packages/music&#45;structure/chord/chord&#45;analyze/src/key&#45;estimation/get&#45;chord.ts&#45;&gt;packages/music&#45;structure/chord/chord&#45;analyze/src/key&#45;estimation/get&#45;body&#45;and&#45;root.ts</title>
<path fill="none" stroke="#000000" stroke-width="2" stroke-opacity="0.200000" d="M498.02,-723C519.82,-723 548.44,-723 573.8,-723"/>
<polygon fill="#000000" fill-opacity="0.200000" stroke="#000000" stroke-width="2" stroke-opacity="0.200000" points="573.83,-725.1 579.83,-723 573.83,-720.9 573.83,-725.1"/>
</g>
<!-- packages/util/stdlib/src/assertion/assertion.ts -->
<g id="node16" class="node">
<title>packages/util/stdlib/src/assertion/assertion.ts</title>
<g id="a_node16"><a xlink:href="packages/util/stdlib/src/assertion/assertion.ts" xlink:title="assertion.ts">
<path fill="#ddfeff" stroke="black" d="M663,-382C663,-382 607,-382 607,-382 604,-382 601,-379 601,-376 601,-376 601,-370 601,-370 601,-367 604,-364 607,-364 607,-364 663,-364 663,-364 666,-364 669,-367 669,-370 669,-370 669,-376 669,-376 669,-379 666,-382 663,-382"/>
<text text-anchor="start" x="609" y="-370.8" font-family="Helvetica,sans-Serif" font-size="9.00">assertion.ts</text>
</a>
</g>
</g>
<!-- packages/music&#45;structure/chord/chord&#45;analyze/src/key&#45;estimation/get&#45;chord.ts&#45;&gt;packages/util/stdlib/src/assertion/assertion.ts -->
<g id="edge17" class="edge">
<title>packages/music&#45;structure/chord/chord&#45;analyze/src/key&#45;estimation/get&#45;chord.ts&#45;&gt;packages/util/stdlib/src/assertion/assertion.ts</title>
<path fill="none" stroke="#000000" stroke-width="2" stroke-opacity="0.200000" d="M467.4,-714C490.5,-666.72 597.79,-447.11 626.77,-387.8"/>
<polygon fill="#000000" fill-opacity="0.200000" stroke="#000000" stroke-width="2" stroke-opacity="0.200000" points="628.73,-388.58 629.47,-382.27 624.95,-386.74 628.73,-388.58"/>
</g>
<!-- packages/util/math/src/reduction/compare&#45;func.ts -->
<g id="node19" class="node">
<title>packages/util/math/src/reduction/compare&#45;func.ts</title>
<g id="a_node19"><a xlink:href="packages/util/math/src/reduction/compare-func.ts" xlink:title="compare&#45;func.ts">
<path fill="#ddfeff" stroke="black" d="M823,-160C823,-160 744,-160 744,-160 741,-160 738,-157 738,-154 738,-154 738,-148 738,-148 738,-145 741,-142 744,-142 744,-142 823,-142 823,-142 826,-142 829,-145 829,-148 829,-148 829,-154 829,-154 829,-157 826,-160 823,-160"/>
<text text-anchor="start" x="746" y="-148.8" font-family="Helvetica,sans-Serif" font-size="9.00">compare&#45;func.ts</text>
</a>
</g>
</g>
<!-- packages/util/math/src/reduction/compare.ts&#45;&gt;packages/util/math/src/reduction/compare&#45;func.ts -->
<g id="edge22" class="edge">
<title>packages/util/math/src/reduction/compare.ts&#45;&gt;packages/util/math/src/reduction/compare&#45;func.ts</title>
<path fill="none" stroke="#000000" stroke-width="2" stroke-opacity="0.200000" d="M669.24,-151C687.76,-151 711.2,-151 731.94,-151"/>
<polygon fill="#000000" fill-opacity="0.200000" stroke="#000000" stroke-width="2" stroke-opacity="0.200000" points="732,-153.1 738,-151 732,-148.9 732,-153.1"/>
</g>
<!-- packages/music&#45;structure/chord/chord&#45;analyze/test/index.test.ts -->
<g id="node17" class="node">
<title>packages/music&#45;structure/chord/chord&#45;analyze/test/index.test.ts</title>
<g id="a_node17"><a xlink:href="packages/music-structure/chord/chord-analyze/test/index.test.ts" xlink:title="no&#45;orphans">
<path fill="#ccffcc" stroke="orange" d="M152,-848C152,-848 91,-848 91,-848 88,-848 85,-845 85,-842 85,-842 85,-836 85,-836 85,-833 88,-830 91,-830 91,-830 152,-830 152,-830 155,-830 158,-833 158,-836 158,-836 158,-842 158,-842 158,-845 155,-848 152,-848"/>
<text text-anchor="start" x="93" y="-836.8" font-family="Helvetica,sans-Serif" font-size="9.00" fill="orange">index.test.ts</text>
</a>
</g>
</g>
<!-- packages/music&#45;structure/chord/chord&#45;analyze/test/key&#45;estimation.test.ts -->
<g id="node18" class="node">
<title>packages/music&#45;structure/chord/chord&#45;analyze/test/key&#45;estimation.test.ts</title>
<g id="a_node18"><a xlink:href="packages/music-structure/chord/chord-analyze/test/key-estimation.test.ts" xlink:title="key&#45;estimation.test.ts">
<path fill="#ddfeff" stroke="black" d="M172.5,-818C172.5,-818 70.5,-818 70.5,-818 67.5,-818 64.5,-815 64.5,-812 64.5,-812 64.5,-806 64.5,-806 64.5,-803 67.5,-800 70.5,-800 70.5,-800 172.5,-800 172.5,-800 175.5,-800 178.5,-803 178.5,-806 178.5,-806 178.5,-812 178.5,-812 178.5,-815 175.5,-818 172.5,-818"/>
<text text-anchor="start" x="72.5" y="-806.8" font-family="Helvetica,sans-Serif" font-size="9.00">key&#45;estimation.test.ts</text>
</a>
</g>
</g>
<!-- packages/music&#45;structure/chord/chord&#45;analyze/test/key&#45;estimation.test.ts&#45;&gt;packages/music&#45;structure/chord/chord&#45;analyze/src/key&#45;estimation/chord&#45;progression.ts -->
<g id="edge19" class="edge">
<title>packages/music&#45;structure/chord/chord&#45;analyze/test/key&#45;estimation.test.ts&#45;&gt;packages/music&#45;structure/chord/chord&#45;analyze/src/key&#45;estimation/chord&#45;progression.ts</title>
<path fill="none" stroke="#000000" stroke-width="2" stroke-opacity="0.200000" d="M138.32,-799.96C165.46,-784.45 220.92,-752.76 251.52,-735.27"/>
<polygon fill="#000000" fill-opacity="0.200000" stroke="#000000" stroke-width="2" stroke-opacity="0.200000" points="252.77,-736.98 256.94,-732.18 250.69,-733.33 252.77,-736.98"/>
</g>
<!-- packages/music&#45;structure/chord/chord&#45;analyze/test/key&#45;estimation.test.ts&#45;&gt;packages/music&#45;structure/chord/chord&#45;analyze/src/key&#45;estimation/get&#45;chord.ts -->
<g id="edge20" class="edge">
<title>packages/music&#45;structure/chord/chord&#45;analyze/test/key&#45;estimation.test.ts&#45;&gt;packages/music&#45;structure/chord/chord&#45;analyze/src/key&#45;estimation/get&#45;chord.ts</title>
<path fill="none" stroke="#000000" stroke-width="2" stroke-opacity="0.200000" d="M157.3,-799.96C220.78,-783.93 352.73,-750.6 420.24,-733.55"/>
<polygon fill="#000000" fill-opacity="0.200000" stroke="#000000" stroke-width="2" stroke-opacity="0.200000" points="420.87,-735.55 426.17,-732.05 419.84,-731.48 420.87,-735.55"/>
</g>
<!-- packages/music&#45;structure/chord/chord&#45;analyze/test/key&#45;estimation.test.ts&#45;&gt;packages/tonal&#45;objects/dist/index.js -->
<g id="edge21" class="edge">
<title>packages/music&#45;structure/chord/chord&#45;analyze/test/key&#45;estimation.test.ts&#45;&gt;packages/tonal&#45;objects/dist/index.js</title>
<path fill="none" stroke="#000000" stroke-width="2" stroke-opacity="0.200000" d="M138.88,-818.14C215.77,-858.56 525.35,-1021.35 612.23,-1067.03"/>
<polygon fill="#000000" fill-opacity="0.200000" stroke="#000000" stroke-width="2" stroke-opacity="0.200000" points="611.34,-1068.93 617.63,-1069.86 613.29,-1065.21 611.34,-1068.93"/>
</g>
</g>
</svg>
