<?xml version="1.0" encoding="UTF-8" standalone="no"?>
<!DOCTYPE svg PUBLIC "-//W3C//DTD SVG 1.1//EN"
 "http://www.w3.org/Graphics/SVG/1.1/DTD/svg11.dtd">
<!-- Generated by graphviz version 2.43.0 (0)
 -->
<!-- Title: dependency&#45;cruiser output Pages: 1 -->
<svg width="609pt" height="733pt"
 viewBox="0.00 0.00 609.46 732.97" xmlns="http://www.w3.org/2000/svg" xmlns:xlink="http://www.w3.org/1999/xlink">
<g id="graph0" class="graph" transform="scale(1 1) rotate(0) translate(4 728.97)">
<title>dependency&#45;cruiser output</title>
<polygon fill="white" stroke="transparent" points="-4,4 -4,-728.97 605.46,-728.97 605.46,4 -4,4"/>
<g id="clust1" class="cluster">
<title>cluster_packages</title>
<path fill="#ffffff" stroke="black" stroke-width="2" d="M12,0C12,0 589.46,0 589.46,0 595.46,0 601.46,-6 601.46,-12 601.46,-12 601.46,-712.97 601.46,-712.97 601.46,-718.97 595.46,-724.97 589.46,-724.97 589.46,-724.97 12,-724.97 12,-724.97 6,-724.97 0,-718.97 0,-712.97 0,-712.97 0,-12 0,-12 0,-6 6,0 12,0"/>
<text text-anchor="middle" x="300.73" y="-713.77" font-family="Helvetica,sans-Serif" font-weight="bold" font-size="9.00">packages</text>
</g>
<!-- packages/cognitive&#45;theory&#45;of&#45;music/tonal&#45;pitch&#45;space/dist/index.js -->
<g id="node1" class="node">
<title>packages/cognitive&#45;theory&#45;of&#45;music/tonal&#45;pitch&#45;space/dist/index.js</title>
<g id="a_node1"><a xlink:href="packages/cognitive-theory-of-music/tonal-pitch-space/dist/index.js" xlink:title="index.js">
<polygon fill="#ffffcc" stroke="black" points="311.18,-724.97 309.68,-726.97 299.18,-726.97 297.68,-724.97 257.18,-724.97 257.18,-706.97 311.18,-706.97 311.18,-724.97"/>
<text text-anchor="start" x="266.68" y="-713.77" font-family="Helvetica,sans-Serif" font-size="9.00">index.js</text>
</a>
</g>
</g>
<!-- packages/music&#45;structure/chord/chord&#45;analyze/index.ts -->
<g id="node2" class="node">
<title>packages/music&#45;structure/chord/chord&#45;analyze/index.ts</title>
<g id="a_node2"><a xlink:href="packages/music-structure/chord/chord-analyze/index.ts" xlink:title="index.ts">
<path fill="#ddfeff" stroke="black" d="M595.46,-390.75C595.46,-390.75 553.46,-390.75 553.46,-390.75 550.46,-390.75 547.46,-387.75 547.46,-384.75 547.46,-384.75 547.46,-378.75 547.46,-378.75 547.46,-375.75 550.46,-372.75 553.46,-372.75 553.46,-372.75 595.46,-372.75 595.46,-372.75 598.46,-372.75 601.46,-375.75 601.46,-378.75 601.46,-378.75 601.46,-384.75 601.46,-384.75 601.46,-387.75 598.46,-390.75 595.46,-390.75"/>
<text text-anchor="start" x="555.96" y="-379.55" font-family="Helvetica,sans-Serif" font-size="9.00">index.ts</text>
</a>
</g>
</g>
<!-- packages/music&#45;structure/chord/chord&#45;analyze/src/index.ts -->
<g id="node3" class="node">
<title>packages/music&#45;structure/chord/chord&#45;analyze/src/index.ts</title>
<g id="a_node3"><a xlink:href="packages/music-structure/chord/chord-analyze/src/index.ts" xlink:title="index.ts">
<path fill="#ddfeff" stroke="black" d="M444.65,-375.45C444.65,-375.45 402.65,-375.45 402.65,-375.45 399.65,-375.45 396.65,-372.45 396.65,-369.45 396.65,-369.45 396.65,-363.45 396.65,-363.45 396.65,-360.45 399.65,-357.45 402.65,-357.45 402.65,-357.45 444.65,-357.45 444.65,-357.45 447.65,-357.45 450.65,-360.45 450.65,-363.45 450.65,-363.45 450.65,-369.45 450.65,-369.45 450.65,-372.45 447.65,-375.45 444.65,-375.45"/>
<text text-anchor="start" x="405.15" y="-364.25" font-family="Helvetica,sans-Serif" font-size="9.00">index.ts</text>
</a>
</g>
</g>
<!-- packages/music&#45;structure/chord/chord&#45;analyze/index.ts&#45;&gt;packages/music&#45;structure/chord/chord&#45;analyze/src/index.ts -->
<g id="edge1" class="edge">
<title>packages/music&#45;structure/chord/chord&#45;analyze/index.ts&#45;&gt;packages/music&#45;structure/chord/chord&#45;analyze/src/index.ts</title>
<path fill="none" stroke="#000000" stroke-width="2" stroke-opacity="0.200000" d="M547.15,-378.98C521.85,-376.42 484.14,-372.59 457.06,-369.84"/>
<polygon fill="#000000" fill-opacity="0.200000" stroke="#000000" stroke-width="2" stroke-opacity="0.200000" points="450.97,-367.12 456.73,-369.81 450.55,-371.29 450.97,-367.12"/>
</g>
<!-- packages/music&#45;structure/chord/chord&#45;analyze/src/key&#45;estimation/index.ts -->
<g id="node5" class="node">
<title>packages/music&#45;structure/chord/chord&#45;analyze/src/key&#45;estimation/index.ts</title>
<g id="a_node5"><a xlink:href="packages/music-structure/chord/chord-analyze/src/key-estimation/index.ts" xlink:title="index.ts">
<path fill="#ddfeff" stroke="black" d="M318.43,-433.64C318.43,-433.64 276.43,-433.64 276.43,-433.64 273.43,-433.64 270.43,-430.64 270.43,-427.64 270.43,-427.64 270.43,-421.64 270.43,-421.64 270.43,-418.64 273.43,-415.64 276.43,-415.64 276.43,-415.64 318.43,-415.64 318.43,-415.64 321.43,-415.64 324.43,-418.64 324.43,-421.64 324.43,-421.64 324.43,-427.64 324.43,-427.64 324.43,-430.64 321.43,-433.64 318.43,-433.64"/>
<text text-anchor="start" x="278.93" y="-422.44" font-family="Helvetica,sans-Serif" font-size="9.00">index.ts</text>
</a>
</g>
</g>
<!-- packages/music&#45;structure/chord/chord&#45;analyze/src/index.ts&#45;&gt;packages/music&#45;structure/chord/chord&#45;analyze/src/key&#45;estimation/index.ts -->
<g id="edge18" class="edge">
<title>packages/music&#45;structure/chord/chord&#45;analyze/src/index.ts&#45;&gt;packages/music&#45;structure/chord/chord&#45;analyze/src/key&#45;estimation/index.ts</title>
<path fill="none" stroke="#000000" stroke-width="2" stroke-opacity="0.200000" d="M403.93,-375.55C381.98,-385.67 346.45,-402.05 322.53,-413.07"/>
<polygon fill="#000000" fill-opacity="0.200000" stroke="#000000" stroke-width="2" stroke-opacity="0.200000" points="316.13,-413.71 322.46,-413.1 317.89,-417.52 316.13,-413.71"/>
</g>
<!-- packages/music&#45;structure/chord/chord&#45;analyze/src/chord&#45;analyze/index.ts -->
<g id="node11" class="node">
<title>packages/music&#45;structure/chord/chord&#45;analyze/src/chord&#45;analyze/index.ts</title>
<g id="a_node11"><a xlink:href="packages/music-structure/chord/chord-analyze/src/chord-analyze/index.ts" xlink:title="index.ts">
<path fill="#ddfeff" stroke="black" d="M376.83,-232.42C376.83,-232.42 334.83,-232.42 334.83,-232.42 331.83,-232.42 328.83,-229.42 328.83,-226.42 328.83,-226.42 328.83,-220.42 328.83,-220.42 328.83,-217.42 331.83,-214.42 334.83,-214.42 334.83,-214.42 376.83,-214.42 376.83,-214.42 379.83,-214.42 382.83,-217.42 382.83,-220.42 382.83,-220.42 382.83,-226.42 382.83,-226.42 382.83,-229.42 379.83,-232.42 376.83,-232.42"/>
<text text-anchor="start" x="337.33" y="-221.22" font-family="Helvetica,sans-Serif" font-size="9.00">index.ts</text>
</a>
</g>
</g>
<!-- packages/music&#45;structure/chord/chord&#45;analyze/src/index.ts&#45;&gt;packages/music&#45;structure/chord/chord&#45;analyze/src/chord&#45;analyze/index.ts -->
<g id="edge17" class="edge">
<title>packages/music&#45;structure/chord/chord&#45;analyze/src/index.ts&#45;&gt;packages/music&#45;structure/chord/chord&#45;analyze/src/chord&#45;analyze/index.ts</title>
<path fill="none" stroke="#000000" stroke-width="2" stroke-opacity="0.200000" d="M419.2,-357.07C407.7,-332.82 376.92,-267.9 362.93,-238.39"/>
<polygon fill="#000000" fill-opacity="0.200000" stroke="#000000" stroke-width="2" stroke-opacity="0.200000" points="362.11,-231.76 362.78,-238.08 358.32,-233.56 362.11,-231.76"/>
</g>
<!-- packages/music&#45;structure/chord/chord&#45;analyze/src/chord&#45;analyze/calc&#45;chord&#45;progression.ts -->
<g id="node4" class="node">
<title>packages/music&#45;structure/chord/chord&#45;analyze/src/chord&#45;analyze/calc&#45;chord&#45;progression.ts</title>
<g id="a_node4"><a xlink:href="packages/music-structure/chord/chord-analyze/src/chord-analyze/calc-chord-progression.ts" xlink:title="calc&#45;chord&#45;progression.ts">
<path fill="#ddfeff" stroke="black" d="M372.16,-280.34C372.16,-280.34 253.16,-280.34 253.16,-280.34 250.16,-280.34 247.16,-277.34 247.16,-274.34 247.16,-274.34 247.16,-268.34 247.16,-268.34 247.16,-265.34 250.16,-262.34 253.16,-262.34 253.16,-262.34 372.16,-262.34 372.16,-262.34 375.16,-262.34 378.16,-265.34 378.16,-268.34 378.16,-268.34 378.16,-274.34 378.16,-274.34 378.16,-277.34 375.16,-280.34 372.16,-280.34"/>
<text text-anchor="start" x="255.16" y="-269.14" font-family="Helvetica,sans-Serif" font-size="9.00">calc&#45;chord&#45;progression.ts</text>
</a>
</g>
</g>
<!-- packages/music&#45;structure/chord/chord&#45;analyze/src/chord&#45;analyze/calc&#45;chord&#45;progression.ts&#45;&gt;packages/music&#45;structure/chord/chord&#45;analyze/src/key&#45;estimation/index.ts -->
<g id="edge2" class="edge">
<title>packages/music&#45;structure/chord/chord&#45;analyze/src/chord&#45;analyze/calc&#45;chord&#45;progression.ts&#45;&gt;packages/music&#45;structure/chord/chord&#45;analyze/src/key&#45;estimation/index.ts</title>
<path fill="none" stroke="#000000" stroke-width="2" stroke-opacity="0.200000" d="M311.75,-280.47C309.23,-305.86 302.11,-377.54 298.96,-409.24"/>
<polygon fill="#000000" fill-opacity="0.200000" stroke="#000000" stroke-width="2" stroke-opacity="0.200000" points="296.85,-409.19 298.35,-415.37 301.03,-409.6 296.85,-409.19"/>
</g>
<!-- packages/music&#45;structure/chord/chord&#45;analyze/src/chord&#45;analyze/remove&#45;item.ts -->
<g id="node6" class="node">
<title>packages/music&#45;structure/chord/chord&#45;analyze/src/chord&#45;analyze/remove&#45;item.ts</title>
<g id="a_node6"><a xlink:href="packages/music-structure/chord/chord-analyze/src/chord-analyze/remove-item.ts" xlink:title="remove&#45;item.ts">
<path fill="#ddfeff" stroke="black" d="M247.69,-188.13C247.69,-188.13 174.69,-188.13 174.69,-188.13 171.69,-188.13 168.69,-185.13 168.69,-182.13 168.69,-182.13 168.69,-176.13 168.69,-176.13 168.69,-173.13 171.69,-170.13 174.69,-170.13 174.69,-170.13 247.69,-170.13 247.69,-170.13 250.69,-170.13 253.69,-173.13 253.69,-176.13 253.69,-176.13 253.69,-182.13 253.69,-182.13 253.69,-185.13 250.69,-188.13 247.69,-188.13"/>
<text text-anchor="start" x="176.69" y="-176.93" font-family="Helvetica,sans-Serif" font-size="9.00">remove&#45;item.ts</text>
</a>
</g>
</g>
<!-- packages/music&#45;structure/chord/chord&#45;analyze/src/chord&#45;analyze/calc&#45;chord&#45;progression.ts&#45;&gt;packages/music&#45;structure/chord/chord&#45;analyze/src/chord&#45;analyze/remove&#45;item.ts -->
<g id="edge3" class="edge">
<title>packages/music&#45;structure/chord/chord&#45;analyze/src/chord&#45;analyze/calc&#45;chord&#45;progression.ts&#45;&gt;packages/music&#45;structure/chord/chord&#45;analyze/src/chord&#45;analyze/remove&#45;item.ts</title>
<path fill="none" stroke="#000000" stroke-width="2" stroke-opacity="0.200000" d="M302.56,-262.16C284.55,-245.8 246.84,-211.53 225.93,-192.53"/>
<polygon fill="#000000" fill-opacity="0.200000" stroke="#000000" stroke-width="2" stroke-opacity="0.200000" points="227.1,-190.76 221.25,-188.27 224.28,-193.86 227.1,-190.76"/>
</g>
<!-- packages/music&#45;structure/chord/chord&#45;analyze/src/chord&#45;analyze/select&#45;suitable&#45;progression.ts -->
<g id="node7" class="node">
<title>packages/music&#45;structure/chord/chord&#45;analyze/src/chord&#45;analyze/select&#45;suitable&#45;progression.ts</title>
<g id="a_node7"><a xlink:href="packages/music-structure/chord/chord-analyze/src/chord-analyze/select-suitable-progression.ts" xlink:title="select&#45;suitable&#45;progression.ts">
<path fill="#ddfeff" stroke="black" d="M290.16,-308.64C290.16,-308.64 154.16,-308.64 154.16,-308.64 151.16,-308.64 148.16,-305.64 148.16,-302.64 148.16,-302.64 148.16,-296.64 148.16,-296.64 148.16,-293.64 151.16,-290.64 154.16,-290.64 154.16,-290.64 290.16,-290.64 290.16,-290.64 293.16,-290.64 296.16,-293.64 296.16,-296.64 296.16,-296.64 296.16,-302.64 296.16,-302.64 296.16,-305.64 293.16,-308.64 290.16,-308.64"/>
<text text-anchor="start" x="156.16" y="-297.44" font-family="Helvetica,sans-Serif" font-size="9.00">select&#45;suitable&#45;progression.ts</text>
</a>
</g>
</g>
<!-- packages/music&#45;structure/chord/chord&#45;analyze/src/chord&#45;analyze/calc&#45;chord&#45;progression.ts&#45;&gt;packages/music&#45;structure/chord/chord&#45;analyze/src/chord&#45;analyze/select&#45;suitable&#45;progression.ts -->
<g id="edge4" class="edge">
<title>packages/music&#45;structure/chord/chord&#45;analyze/src/chord&#45;analyze/calc&#45;chord&#45;progression.ts&#45;&gt;packages/music&#45;structure/chord/chord&#45;analyze/src/chord&#45;analyze/select&#45;suitable&#45;progression.ts</title>
<path fill="none" stroke="#000000" stroke-width="2" stroke-opacity="0.200000" d="M283.77,-280.37C275.2,-283.05 265.72,-286.01 256.83,-288.8"/>
<polygon fill="#000000" fill-opacity="0.200000" stroke="#000000" stroke-width="2" stroke-opacity="0.200000" points="256.18,-286.8 251.08,-290.6 257.43,-290.81 256.18,-286.8"/>
</g>
<!-- packages/music&#45;structure/chord/chord&#45;analyze/src/chord&#45;analyze/split&#45;array.ts -->
<g id="node8" class="node">
<title>packages/music&#45;structure/chord/chord&#45;analyze/src/chord&#45;analyze/split&#45;array.ts</title>
<g id="a_node8"><a xlink:href="packages/music-structure/chord/chord-analyze/src/chord-analyze/split-array.ts" xlink:title="split&#45;array.ts">
<path fill="#ddfeff" stroke="black" d="M498.46,-248.07C498.46,-248.07 439.46,-248.07 439.46,-248.07 436.46,-248.07 433.46,-245.07 433.46,-242.07 433.46,-242.07 433.46,-236.07 433.46,-236.07 433.46,-233.07 436.46,-230.07 439.46,-230.07 439.46,-230.07 498.46,-230.07 498.46,-230.07 501.46,-230.07 504.46,-233.07 504.46,-236.07 504.46,-236.07 504.46,-242.07 504.46,-242.07 504.46,-245.07 501.46,-248.07 498.46,-248.07"/>
<text text-anchor="start" x="441.46" y="-236.87" font-family="Helvetica,sans-Serif" font-size="9.00">split&#45;array.ts</text>
</a>
</g>
</g>
<!-- packages/music&#45;structure/chord/chord&#45;analyze/src/chord&#45;analyze/calc&#45;chord&#45;progression.ts&#45;&gt;packages/music&#45;structure/chord/chord&#45;analyze/src/chord&#45;analyze/split&#45;array.ts -->
<g id="edge5" class="edge">
<title>packages/music&#45;structure/chord/chord&#45;analyze/src/chord&#45;analyze/calc&#45;chord&#45;progression.ts&#45;&gt;packages/music&#45;structure/chord/chord&#45;analyze/src/chord&#45;analyze/split&#45;array.ts</title>
<path fill="none" stroke="#000000" stroke-width="2" stroke-opacity="0.200000" d="M356.61,-262.26C378.73,-257.69 405.4,-252.19 427.21,-247.69"/>
<polygon fill="#000000" fill-opacity="0.200000" stroke="#000000" stroke-width="2" stroke-opacity="0.200000" points="427.77,-249.71 433.22,-246.44 426.92,-245.6 427.77,-249.71"/>
</g>
<!-- packages/music&#45;structure/chord/chord&#45;analyze/src/chord&#45;analyze/time&#45;and&#45;chord.ts -->
<g id="node9" class="node">
<title>packages/music&#45;structure/chord/chord&#45;analyze/src/chord&#45;analyze/time&#45;and&#45;chord.ts</title>
<g id="a_node9"><a xlink:href="packages/music-structure/chord/chord-analyze/src/chord-analyze/time-and-chord.ts" xlink:title="time&#45;and&#45;chord.ts">
<path fill="#ddfeff" stroke="black" d="M331.04,-131.82C331.04,-131.82 245.04,-131.82 245.04,-131.82 242.04,-131.82 239.04,-128.82 239.04,-125.82 239.04,-125.82 239.04,-119.82 239.04,-119.82 239.04,-116.82 242.04,-113.82 245.04,-113.82 245.04,-113.82 331.04,-113.82 331.04,-113.82 334.04,-113.82 337.04,-116.82 337.04,-119.82 337.04,-119.82 337.04,-125.82 337.04,-125.82 337.04,-128.82 334.04,-131.82 331.04,-131.82"/>
<text text-anchor="start" x="247.04" y="-120.62" font-family="Helvetica,sans-Serif" font-size="9.00">time&#45;and&#45;chord.ts</text>
</a>
</g>
</g>
<!-- packages/music&#45;structure/chord/chord&#45;analyze/src/chord&#45;analyze/calc&#45;chord&#45;progression.ts&#45;&gt;packages/music&#45;structure/chord/chord&#45;analyze/src/chord&#45;analyze/time&#45;and&#45;chord.ts -->
<g id="edge6" class="edge">
<title>packages/music&#45;structure/chord/chord&#45;analyze/src/chord&#45;analyze/calc&#45;chord&#45;progression.ts&#45;&gt;packages/music&#45;structure/chord/chord&#45;analyze/src/chord&#45;analyze/time&#45;and&#45;chord.ts</title>
<path fill="none" stroke="#000000" stroke-width="2" stroke-opacity="0.200000" d="M311.12,-262.04C306.99,-237.14 295.65,-168.73 290.56,-138.05"/>
<polygon fill="#000000" fill-opacity="0.200000" stroke="#000000" stroke-width="2" stroke-opacity="0.200000" points="292.63,-137.68 289.58,-132.11 288.49,-138.37 292.63,-137.68"/>
</g>
<!-- packages/music&#45;structure/chord/chord&#45;analyze/src/chord&#45;analyze/time&#45;and&#45;roman&#45;analysis.ts -->
<g id="node10" class="node">
<title>packages/music&#45;structure/chord/chord&#45;analyze/src/chord&#45;analyze/time&#45;and&#45;roman&#45;analysis.ts</title>
<g id="a_node10"><a xlink:href="packages/music-structure/chord/chord-analyze/src/chord-analyze/time-and-roman-analysis.ts" xlink:title="time&#45;and&#45;roman&#45;analysis.ts">
<path fill="#ddfeff" stroke="black" d="M478.05,-150.53C478.05,-150.53 351.05,-150.53 351.05,-150.53 348.05,-150.53 345.05,-147.53 345.05,-144.53 345.05,-144.53 345.05,-138.53 345.05,-138.53 345.05,-135.53 348.05,-132.53 351.05,-132.53 351.05,-132.53 478.05,-132.53 478.05,-132.53 481.05,-132.53 484.05,-135.53 484.05,-138.53 484.05,-138.53 484.05,-144.53 484.05,-144.53 484.05,-147.53 481.05,-150.53 478.05,-150.53"/>
<text text-anchor="start" x="353.05" y="-139.33" font-family="Helvetica,sans-Serif" font-size="9.00">time&#45;and&#45;roman&#45;analysis.ts</text>
</a>
</g>
</g>
<!-- packages/music&#45;structure/chord/chord&#45;analyze/src/chord&#45;analyze/calc&#45;chord&#45;progression.ts&#45;&gt;packages/music&#45;structure/chord/chord&#45;analyze/src/chord&#45;analyze/time&#45;and&#45;roman&#45;analysis.ts -->
<g id="edge7" class="edge">
<title>packages/music&#45;structure/chord/chord&#45;analyze/src/chord&#45;analyze/calc&#45;chord&#45;progression.ts&#45;&gt;packages/music&#45;structure/chord/chord&#45;analyze/src/chord&#45;analyze/time&#45;and&#45;roman&#45;analysis.ts</title>
<path fill="none" stroke="#000000" stroke-width="2" stroke-opacity="0.200000" d="M319.98,-262C337.61,-239.55 382.46,-182.41 403.43,-155.7"/>
<polygon fill="#000000" fill-opacity="0.200000" stroke="#000000" stroke-width="2" stroke-opacity="0.200000" points="405.24,-156.79 407.29,-150.78 401.93,-154.2 405.24,-156.79"/>
</g>
<!-- packages/music&#45;structure/chord/chord&#45;analyze/src/key&#45;estimation/chord&#45;progression.ts -->
<g id="node14" class="node">
<title>packages/music&#45;structure/chord/chord&#45;analyze/src/key&#45;estimation/chord&#45;progression.ts</title>
<g id="a_node14"><a xlink:href="packages/music-structure/chord/chord-analyze/src/key-estimation/chord-progression.ts" xlink:title="chord&#45;progression.ts">
<path fill="#ddfeff" stroke="black" d="M358.65,-578.6C358.65,-578.6 260.65,-578.6 260.65,-578.6 257.65,-578.6 254.65,-575.6 254.65,-572.6 254.65,-572.6 254.65,-566.6 254.65,-566.6 254.65,-563.6 257.65,-560.6 260.65,-560.6 260.65,-560.6 358.65,-560.6 358.65,-560.6 361.65,-560.6 364.65,-563.6 364.65,-566.6 364.65,-566.6 364.65,-572.6 364.65,-572.6 364.65,-575.6 361.65,-578.6 358.65,-578.6"/>
<text text-anchor="start" x="262.65" y="-567.4" font-family="Helvetica,sans-Serif" font-size="9.00">chord&#45;progression.ts</text>
</a>
</g>
</g>
<!-- packages/music&#45;structure/chord/chord&#45;analyze/src/key&#45;estimation/index.ts&#45;&gt;packages/music&#45;structure/chord/chord&#45;analyze/src/key&#45;estimation/chord&#45;progression.ts -->
<g id="edge28" class="edge">
<title>packages/music&#45;structure/chord/chord&#45;analyze/src/key&#45;estimation/index.ts&#45;&gt;packages/music&#45;structure/chord/chord&#45;analyze/src/key&#45;estimation/chord&#45;progression.ts</title>
<path fill="none" stroke="#000000" stroke-width="2" stroke-opacity="0.200000" d="M298.19,-433.71C300.23,-457.91 305.82,-524.24 308.36,-554.36"/>
<polygon fill="#000000" fill-opacity="0.200000" stroke="#000000" stroke-width="2" stroke-opacity="0.200000" points="306.79,-560.72 308.38,-554.56 310.98,-560.36 306.79,-560.72"/>
</g>
<!-- packages/music&#45;structure/chord/chord&#45;analyze/src/key&#45;estimation/get&#45;chord.ts -->
<g id="node15" class="node">
<title>packages/music&#45;structure/chord/chord&#45;analyze/src/key&#45;estimation/get&#45;chord.ts</title>
<g id="a_node15"><a xlink:href="packages/music-structure/chord/chord-analyze/src/key-estimation/get-chord.ts" xlink:title="get&#45;chord.ts">
<path fill="#ddfeff" stroke="black" d="M189.61,-531.88C189.61,-531.88 129.61,-531.88 129.61,-531.88 126.61,-531.88 123.61,-528.88 123.61,-525.88 123.61,-525.88 123.61,-519.88 123.61,-519.88 123.61,-516.88 126.61,-513.88 129.61,-513.88 129.61,-513.88 189.61,-513.88 189.61,-513.88 192.61,-513.88 195.61,-516.88 195.61,-519.88 195.61,-519.88 195.61,-525.88 195.61,-525.88 195.61,-528.88 192.61,-531.88 189.61,-531.88"/>
<text text-anchor="start" x="131.61" y="-520.68" font-family="Helvetica,sans-Serif" font-size="9.00">get&#45;chord.ts</text>
</a>
</g>
</g>
<!-- packages/music&#45;structure/chord/chord&#45;analyze/src/key&#45;estimation/index.ts&#45;&gt;packages/music&#45;structure/chord/chord&#45;analyze/src/key&#45;estimation/get&#45;chord.ts -->
<g id="edge30" class="edge">
<title>packages/music&#45;structure/chord/chord&#45;analyze/src/key&#45;estimation/index.ts&#45;&gt;packages/music&#45;structure/chord/chord&#45;analyze/src/key&#45;estimation/get&#45;chord.ts</title>
<path fill="none" stroke="#000000" stroke-width="2" stroke-opacity="0.200000" d="M284.71,-433.71C259.99,-451.33 205.43,-490.21 177.24,-510.31"/>
<polygon fill="#000000" fill-opacity="0.200000" stroke="#000000" stroke-width="2" stroke-opacity="0.200000" points="171.08,-512.12 177.18,-510.35 173.51,-515.54 171.08,-512.12"/>
</g>
<!-- packages/music&#45;structure/chord/chord&#45;analyze/src/key&#45;estimation/get&#45;body&#45;and&#45;root.ts -->
<g id="node19" class="node">
<title>packages/music&#45;structure/chord/chord&#45;analyze/src/key&#45;estimation/get&#45;body&#45;and&#45;root.ts</title>
<g id="a_node19"><a xlink:href="packages/music-structure/chord/chord-analyze/src/key-estimation/get-body-and-root.ts" xlink:title="get&#45;body&#45;and&#45;root.ts">
<path fill="#ddfeff" stroke="black" d="M174.79,-419.82C174.79,-419.82 76.79,-419.82 76.79,-419.82 73.79,-419.82 70.79,-416.82 70.79,-413.82 70.79,-413.82 70.79,-407.82 70.79,-407.82 70.79,-404.82 73.79,-401.82 76.79,-401.82 76.79,-401.82 174.79,-401.82 174.79,-401.82 177.79,-401.82 180.79,-404.82 180.79,-407.82 180.79,-407.82 180.79,-413.82 180.79,-413.82 180.79,-416.82 177.79,-419.82 174.79,-419.82"/>
<text text-anchor="start" x="78.79" y="-408.62" font-family="Helvetica,sans-Serif" font-size="9.00">get&#45;body&#45;and&#45;root.ts</text>
</a>
</g>
</g>
<!-- packages/music&#45;structure/chord/chord&#45;analyze/src/key&#45;estimation/index.ts&#45;&gt;packages/music&#45;structure/chord/chord&#45;analyze/src/key&#45;estimation/get&#45;body&#45;and&#45;root.ts -->
<g id="edge29" class="edge">
<title>packages/music&#45;structure/chord/chord&#45;analyze/src/key&#45;estimation/index.ts&#45;&gt;packages/music&#45;structure/chord/chord&#45;analyze/src/key&#45;estimation/get&#45;body&#45;and&#45;root.ts</title>
<path fill="none" stroke="#000000" stroke-width="2" stroke-opacity="0.200000" d="M270.23,-422.45C247.9,-420.66 215.44,-418.04 186.94,-415.75"/>
<polygon fill="#000000" fill-opacity="0.200000" stroke="#000000" stroke-width="2" stroke-opacity="0.200000" points="181.09,-413.17 186.9,-415.74 180.75,-417.35 181.09,-413.17"/>
</g>
<!-- packages/music&#45;structure/chord/roman&#45;chord/dist/index.js -->
<g id="node12" class="node">
<title>packages/music&#45;structure/chord/roman&#45;chord/dist/index.js</title>
<g id="a_node12"><a xlink:href="packages/music-structure/chord/roman-chord/dist/index.js" xlink:title="index.js">
<polygon fill="#ffffcc" stroke="black" points="259.52,-456.29 258.02,-458.29 247.52,-458.29 246.02,-456.29 205.52,-456.29 205.52,-438.29 259.52,-438.29 259.52,-456.29"/>
<text text-anchor="start" x="215.02" y="-445.09" font-family="Helvetica,sans-Serif" font-size="9.00">index.js</text>
</a>
</g>
</g>
<!-- packages/music&#45;structure/chord/chord&#45;analyze/src/chord&#45;analyze/select&#45;suitable&#45;progression.ts&#45;&gt;packages/music&#45;structure/chord/roman&#45;chord/dist/index.js -->
<g id="edge14" class="edge">
<title>packages/music&#45;structure/chord/chord&#45;analyze/src/chord&#45;analyze/select&#45;suitable&#45;progression.ts&#45;&gt;packages/music&#45;structure/chord/roman&#45;chord/dist/index.js</title>
<path fill="none" stroke="#000000" stroke-width="2" stroke-opacity="0.200000" d="M222.81,-308.88C224.54,-333.53 229.27,-401.08 231.43,-431.77"/>
<polygon fill="#000000" fill-opacity="0.200000" stroke="#000000" stroke-width="2" stroke-opacity="0.200000" points="229.35,-432.22 231.87,-438.06 233.54,-431.93 229.35,-432.22"/>
</g>
<!-- packages/util/time&#45;and/dist/index.js -->
<g id="node13" class="node">
<title>packages/util/time&#45;and/dist/index.js</title>
<g id="a_node13"><a xlink:href="packages/util/time-and/dist/index.js" xlink:title="index.js">
<polygon fill="#ffffcc" stroke="black" points="397.07,-18 395.57,-20 385.07,-20 383.57,-18 343.07,-18 343.07,0 397.07,0 397.07,-18"/>
<text text-anchor="start" x="352.57" y="-6.8" font-family="Helvetica,sans-Serif" font-size="9.00">index.js</text>
</a>
</g>
</g>
<!-- packages/music&#45;structure/chord/chord&#45;analyze/src/chord&#45;analyze/time&#45;and&#45;chord.ts&#45;&gt;packages/util/time&#45;and/dist/index.js -->
<g id="edge15" class="edge">
<title>packages/music&#45;structure/chord/chord&#45;analyze/src/chord&#45;analyze/time&#45;and&#45;chord.ts&#45;&gt;packages/util/time&#45;and/dist/index.js</title>
<path fill="none" stroke="#000000" stroke-width="2" stroke-opacity="0.200000" d="M294.75,-113.51C309.12,-93.56 342.94,-46.64 359.94,-23.05"/>
<polygon fill="#000000" fill-opacity="0.200000" stroke="#000000" stroke-width="2" stroke-opacity="0.200000" points="361.69,-24.22 363.5,-18.12 358.28,-21.76 361.69,-24.22"/>
</g>
<!-- packages/music&#45;structure/chord/chord&#45;analyze/src/chord&#45;analyze/time&#45;and&#45;roman&#45;analysis.ts&#45;&gt;packages/util/time&#45;and/dist/index.js -->
<g id="edge16" class="edge">
<title>packages/music&#45;structure/chord/chord&#45;analyze/src/chord&#45;analyze/time&#45;and&#45;roman&#45;analysis.ts&#45;&gt;packages/util/time&#45;and/dist/index.js</title>
<path fill="none" stroke="#000000" stroke-width="2" stroke-opacity="0.200000" d="M411.49,-132.42C403.94,-109.91 384.34,-51.5 375.07,-23.88"/>
<polygon fill="#000000" fill-opacity="0.200000" stroke="#000000" stroke-width="2" stroke-opacity="0.200000" points="377.05,-23.19 373.15,-18.17 373.07,-24.53 377.05,-23.19"/>
</g>
<!-- packages/music&#45;structure/chord/chord&#45;analyze/src/chord&#45;analyze/index.ts&#45;&gt;packages/music&#45;structure/chord/chord&#45;analyze/src/chord&#45;analyze/calc&#45;chord&#45;progression.ts -->
<g id="edge8" class="edge">
<title>packages/music&#45;structure/chord/chord&#45;analyze/src/chord&#45;analyze/index.ts&#45;&gt;packages/music&#45;structure/chord/chord&#45;analyze/src/chord&#45;analyze/calc&#45;chord&#45;progression.ts</title>
<path fill="none" stroke="#000000" stroke-width="2" stroke-opacity="0.200000" d="M347.51,-232.66C341.18,-239.69 332.36,-249.47 325.18,-257.44"/>
<polygon fill="#000000" fill-opacity="0.200000" stroke="#000000" stroke-width="2" stroke-opacity="0.200000" points="319.4,-260.72 324.97,-257.67 322.52,-263.53 319.4,-260.72"/>
</g>
<!-- packages/music&#45;structure/chord/chord&#45;analyze/src/chord&#45;analyze/index.ts&#45;&gt;packages/music&#45;structure/chord/chord&#45;analyze/src/chord&#45;analyze/remove&#45;item.ts -->
<g id="edge9" class="edge">
<title>packages/music&#45;structure/chord/chord&#45;analyze/src/chord&#45;analyze/index.ts&#45;&gt;packages/music&#45;structure/chord/chord&#45;analyze/src/chord&#45;analyze/remove&#45;item.ts</title>
<path fill="none" stroke="#000000" stroke-width="2" stroke-opacity="0.200000" d="M328.63,-215.09C305.44,-208 271.96,-197.74 246.68,-190"/>
<polygon fill="#000000" fill-opacity="0.200000" stroke="#000000" stroke-width="2" stroke-opacity="0.200000" points="241.38,-186.18 246.5,-189.95 240.15,-190.2 241.38,-186.18"/>
</g>
<!-- packages/music&#45;structure/chord/chord&#45;analyze/src/chord&#45;analyze/index.ts&#45;&gt;packages/music&#45;structure/chord/chord&#45;analyze/src/chord&#45;analyze/select&#45;suitable&#45;progression.ts -->
<g id="edge10" class="edge">
<title>packages/music&#45;structure/chord/chord&#45;analyze/src/chord&#45;analyze/index.ts&#45;&gt;packages/music&#45;structure/chord/chord&#45;analyze/src/chord&#45;analyze/select&#45;suitable&#45;progression.ts</title>
<path fill="none" stroke="#000000" stroke-width="2" stroke-opacity="0.200000" d="M339.98,-232.47C315.96,-246.16 270.31,-272.18 243.43,-287.51"/>
<polygon fill="#000000" fill-opacity="0.200000" stroke="#000000" stroke-width="2" stroke-opacity="0.200000" points="236.96,-288.79 243.21,-287.64 239.04,-292.43 236.96,-288.79"/>
</g>
<!-- packages/music&#45;structure/chord/chord&#45;analyze/src/chord&#45;analyze/index.ts&#45;&gt;packages/music&#45;structure/chord/chord&#45;analyze/src/chord&#45;analyze/split&#45;array.ts -->
<g id="edge11" class="edge">
<title>packages/music&#45;structure/chord/chord&#45;analyze/src/chord&#45;analyze/index.ts&#45;&gt;packages/music&#45;structure/chord/chord&#45;analyze/src/chord&#45;analyze/split&#45;array.ts</title>
<path fill="none" stroke="#000000" stroke-width="2" stroke-opacity="0.200000" d="M382.93,-227.17C396.09,-228.99 412.19,-231.22 426.89,-233.25"/>
<polygon fill="#000000" fill-opacity="0.200000" stroke="#000000" stroke-width="2" stroke-opacity="0.200000" points="432.81,-236.19 427.15,-233.29 433.38,-232.03 432.81,-236.19"/>
</g>
<!-- packages/music&#45;structure/chord/chord&#45;analyze/src/chord&#45;analyze/index.ts&#45;&gt;packages/music&#45;structure/chord/chord&#45;analyze/src/chord&#45;analyze/time&#45;and&#45;chord.ts -->
<g id="edge12" class="edge">
<title>packages/music&#45;structure/chord/chord&#45;analyze/src/chord&#45;analyze/index.ts&#45;&gt;packages/music&#45;structure/chord/chord&#45;analyze/src/chord&#45;analyze/time&#45;and&#45;chord.ts</title>
<path fill="none" stroke="#000000" stroke-width="2" stroke-opacity="0.200000" d="M349.58,-214.14C337.72,-196.55 311.91,-158.24 297.77,-137.26"/>
<polygon fill="#000000" fill-opacity="0.200000" stroke="#000000" stroke-width="2" stroke-opacity="0.200000" points="296.02,-130.91 297.63,-137.06 292.54,-133.26 296.02,-130.91"/>
</g>
<!-- packages/music&#45;structure/chord/chord&#45;analyze/src/chord&#45;analyze/index.ts&#45;&gt;packages/music&#45;structure/chord/chord&#45;analyze/src/chord&#45;analyze/time&#45;and&#45;roman&#45;analysis.ts -->
<g id="edge13" class="edge">
<title>packages/music&#45;structure/chord/chord&#45;analyze/src/chord&#45;analyze/index.ts&#45;&gt;packages/music&#45;structure/chord/chord&#45;analyze/src/chord&#45;analyze/time&#45;and&#45;roman&#45;analysis.ts</title>
<path fill="none" stroke="#000000" stroke-width="2" stroke-opacity="0.200000" d="M362.34,-214.35C372.48,-200.2 392.14,-172.78 404.23,-155.92"/>
<polygon fill="#000000" fill-opacity="0.200000" stroke="#000000" stroke-width="2" stroke-opacity="0.200000" points="409.72,-151.87 404.52,-155.52 406.31,-149.42 409.72,-151.87"/>
</g>
<!-- packages/music&#45;structure/chord/chord&#45;analyze/src/key&#45;estimation/chord&#45;progression.ts&#45;&gt;packages/cognitive&#45;theory&#45;of&#45;music/tonal&#45;pitch&#45;space/dist/index.js -->
<g id="edge24" class="edge">
<title>packages/music&#45;structure/chord/chord&#45;analyze/src/key&#45;estimation/chord&#45;progression.ts&#45;&gt;packages/cognitive&#45;theory&#45;of&#45;music/tonal&#45;pitch&#45;space/dist/index.js</title>
<path fill="none" stroke="#000000" stroke-width="2" stroke-opacity="0.200000" d="M308.05,-578.76C303.8,-603.2 292.15,-670.16 286.86,-700.58"/>
<polygon fill="#000000" fill-opacity="0.200000" stroke="#000000" stroke-width="2" stroke-opacity="0.200000" points="284.73,-700.55 285.78,-706.82 288.87,-701.27 284.73,-700.55"/>
</g>
<!-- packages/music&#45;structure/chord/chord&#45;analyze/src/key&#45;estimation/chord&#45;progression.ts&#45;&gt;packages/music&#45;structure/chord/roman&#45;chord/dist/index.js -->
<g id="edge22" class="edge">
<title>packages/music&#45;structure/chord/chord&#45;analyze/src/key&#45;estimation/chord&#45;progression.ts&#45;&gt;packages/music&#45;structure/chord/roman&#45;chord/dist/index.js</title>
<path fill="none" stroke="#000000" stroke-width="2" stroke-opacity="0.200000" d="M303.85,-560.41C290.56,-539.34 257.81,-487.4 241.73,-461.9"/>
<polygon fill="#000000" fill-opacity="0.200000" stroke="#000000" stroke-width="2" stroke-opacity="0.200000" points="243.36,-460.55 238.38,-456.59 239.8,-462.79 243.36,-460.55"/>
</g>
<!-- packages/music&#45;structure/chord/chord&#45;analyze/src/key&#45;estimation/chord&#45;progression.ts&#45;&gt;packages/music&#45;structure/chord/chord&#45;analyze/src/key&#45;estimation/get&#45;chord.ts -->
<g id="edge19" class="edge">
<title>packages/music&#45;structure/chord/chord&#45;analyze/src/key&#45;estimation/chord&#45;progression.ts&#45;&gt;packages/music&#45;structure/chord/chord&#45;analyze/src/key&#45;estimation/get&#45;chord.ts</title>
<path fill="none" stroke="#000000" stroke-width="2" stroke-opacity="0.200000" d="M280.72,-560.6C256.1,-552.93 220.66,-541.89 194.48,-533.74"/>
<polygon fill="#000000" fill-opacity="0.200000" stroke="#000000" stroke-width="2" stroke-opacity="0.200000" points="195.06,-531.72 188.7,-531.94 193.81,-535.73 195.06,-531.72"/>
</g>
<!-- packages/util/graph/dist/index.js -->
<g id="node16" class="node">
<title>packages/util/graph/dist/index.js</title>
<g id="a_node16"><a xlink:href="packages/util/graph/dist/index.js" xlink:title="index.js">
<polygon fill="#ffffcc" stroke="black" points="478.11,-620.07 476.61,-622.07 466.11,-622.07 464.61,-620.07 424.11,-620.07 424.11,-602.07 478.11,-602.07 478.11,-620.07"/>
<text text-anchor="start" x="433.61" y="-608.87" font-family="Helvetica,sans-Serif" font-size="9.00">index.js</text>
</a>
</g>
</g>
<!-- packages/music&#45;structure/chord/chord&#45;analyze/src/key&#45;estimation/chord&#45;progression.ts&#45;&gt;packages/util/graph/dist/index.js -->
<g id="edge20" class="edge">
<title>packages/music&#45;structure/chord/chord&#45;analyze/src/key&#45;estimation/chord&#45;progression.ts&#45;&gt;packages/util/graph/dist/index.js</title>
<path fill="none" stroke="#000000" stroke-width="2" stroke-opacity="0.200000" d="M340.69,-578.71C363.63,-585.43 394.81,-594.57 418.19,-601.42"/>
<polygon fill="#000000" fill-opacity="0.200000" stroke="#000000" stroke-width="2" stroke-opacity="0.200000" points="417.6,-603.44 423.95,-603.11 418.79,-599.41 417.6,-603.44"/>
</g>
<!-- packages/util/math/dist/index.js -->
<g id="node17" class="node">
<title>packages/util/math/dist/index.js</title>
<g id="a_node17"><a xlink:href="packages/util/math/dist/index.js" xlink:title="index.js">
<polygon fill="#ffffcc" stroke="black" points="416.12,-695.03 414.62,-697.03 404.12,-697.03 402.62,-695.03 362.12,-695.03 362.12,-677.03 416.12,-677.03 416.12,-695.03"/>
<text text-anchor="start" x="371.62" y="-683.83" font-family="Helvetica,sans-Serif" font-size="9.00">index.js</text>
</a>
</g>
</g>
<!-- packages/music&#45;structure/chord/chord&#45;analyze/src/key&#45;estimation/chord&#45;progression.ts&#45;&gt;packages/util/math/dist/index.js -->
<g id="edge21" class="edge">
<title>packages/music&#45;structure/chord/chord&#45;analyze/src/key&#45;estimation/chord&#45;progression.ts&#45;&gt;packages/util/math/dist/index.js</title>
<path fill="none" stroke="#000000" stroke-width="2" stroke-opacity="0.200000" d="M315.88,-578.74C329.69,-598.97 362.94,-647.68 379.47,-671.89"/>
<polygon fill="#000000" fill-opacity="0.200000" stroke="#000000" stroke-width="2" stroke-opacity="0.200000" points="377.8,-673.16 382.91,-676.93 381.26,-670.79 377.8,-673.16"/>
</g>
<!-- packages/tonal&#45;objects/dist/index.js -->
<g id="node18" class="node">
<title>packages/tonal&#45;objects/dist/index.js</title>
<g id="a_node18"><a xlink:href="packages/tonal-objects/dist/index.js" xlink:title="index.js">
<polygon fill="#ffffcc" stroke="black" points="213.41,-650.74 211.91,-652.74 201.41,-652.74 199.91,-650.74 159.41,-650.74 159.41,-632.74 213.41,-632.74 213.41,-650.74"/>
<text text-anchor="start" x="168.91" y="-639.54" font-family="Helvetica,sans-Serif" font-size="9.00">index.js</text>
</a>
</g>
</g>
<!-- packages/music&#45;structure/chord/chord&#45;analyze/src/key&#45;estimation/chord&#45;progression.ts&#45;&gt;packages/tonal&#45;objects/dist/index.js -->
<g id="edge23" class="edge">
<title>packages/music&#45;structure/chord/chord&#45;analyze/src/key&#45;estimation/chord&#45;progression.ts&#45;&gt;packages/tonal&#45;objects/dist/index.js</title>
<path fill="none" stroke="#000000" stroke-width="2" stroke-opacity="0.200000" d="M294.04,-578.74C272,-591.64 231.72,-615.22 207.18,-629.58"/>
<polygon fill="#000000" fill-opacity="0.200000" stroke="#000000" stroke-width="2" stroke-opacity="0.200000" points="206.01,-627.83 201.89,-632.68 208.13,-631.46 206.01,-627.83"/>
</g>
<!-- packages/music&#45;structure/chord/chord&#45;analyze/src/key&#45;estimation/get&#45;chord.ts&#45;&gt;packages/tonal&#45;objects/dist/index.js -->
<g id="edge27" class="edge">
<title>packages/music&#45;structure/chord/chord&#45;analyze/src/key&#45;estimation/get&#45;chord.ts&#45;&gt;packages/tonal&#45;objects/dist/index.js</title>
<path fill="none" stroke="#000000" stroke-width="2" stroke-opacity="0.200000" d="M161.71,-532.2C166.31,-552.6 177.3,-601.34 182.94,-626.35"/>
<polygon fill="#000000" fill-opacity="0.200000" stroke="#000000" stroke-width="2" stroke-opacity="0.200000" points="180.95,-627.06 184.32,-632.45 185.05,-626.14 180.95,-627.06"/>
</g>
<!-- packages/music&#45;structure/chord/chord&#45;analyze/src/key&#45;estimation/get&#45;chord.ts&#45;&gt;packages/music&#45;structure/chord/chord&#45;analyze/src/key&#45;estimation/get&#45;body&#45;and&#45;root.ts -->
<g id="edge25" class="edge">
<title>packages/music&#45;structure/chord/chord&#45;analyze/src/key&#45;estimation/get&#45;chord.ts&#45;&gt;packages/music&#45;structure/chord/chord&#45;analyze/src/key&#45;estimation/get&#45;body&#45;and&#45;root.ts</title>
<path fill="none" stroke="#000000" stroke-width="2" stroke-opacity="0.200000" d="M156.84,-513.71C151.02,-494.42 137.46,-449.49 130.34,-425.9"/>
<polygon fill="#000000" fill-opacity="0.200000" stroke="#000000" stroke-width="2" stroke-opacity="0.200000" points="132.34,-425.26 128.6,-420.12 128.32,-426.47 132.34,-425.26"/>
</g>
<!-- packages/util/stdlib/dist/index.js -->
<g id="node20" class="node">
<title>packages/util/stdlib/dist/index.js</title>
<g id="a_node20"><a xlink:href="packages/util/stdlib/dist/index.js" xlink:title="index.js">
<polygon fill="#ffffcc" stroke="black" points="54,-573.98 52.5,-575.98 42,-575.98 40.5,-573.98 0,-573.98 0,-555.98 54,-555.98 54,-573.98"/>
<text text-anchor="start" x="9.5" y="-562.78" font-family="Helvetica,sans-Serif" font-size="9.00">index.js</text>
</a>
</g>
</g>
<!-- packages/music&#45;structure/chord/chord&#45;analyze/src/key&#45;estimation/get&#45;chord.ts&#45;&gt;packages/util/stdlib/dist/index.js -->
<g id="edge26" class="edge">
<title>packages/music&#45;structure/chord/chord&#45;analyze/src/key&#45;estimation/get&#45;chord.ts&#45;&gt;packages/util/stdlib/dist/index.js</title>
<path fill="none" stroke="#000000" stroke-width="2" stroke-opacity="0.200000" d="M131.16,-531.91C110.29,-538.53 81.9,-547.55 60.03,-554.49"/>
<polygon fill="#000000" fill-opacity="0.200000" stroke="#000000" stroke-width="2" stroke-opacity="0.200000" points="59.13,-552.57 54.04,-556.39 60.4,-556.58 59.13,-552.57"/>
</g>
<!-- packages/music&#45;structure/chord/chord&#45;analyze/test/index.test.ts -->
<g id="node21" class="node">
<title>packages/music&#45;structure/chord/chord&#45;analyze/test/index.test.ts</title>
<g id="a_node21"><a xlink:href="packages/music-structure/chord/chord-analyze/test/index.test.ts" xlink:title="no&#45;orphans">
<path fill="#ccffcc" stroke="orange" d="M526,-477C526,-477 465,-477 465,-477 462,-477 459,-474 459,-471 459,-471 459,-465 459,-465 459,-462 462,-459 465,-459 465,-459 526,-459 526,-459 529,-459 532,-462 532,-465 532,-465 532,-471 532,-471 532,-474 529,-477 526,-477"/>
<text text-anchor="start" x="467" y="-465.8" font-family="Helvetica,sans-Serif" font-size="9.00" fill="orange">index.test.ts</text>
</a>
</g>
</g>
<!-- packages/music&#45;structure/chord/chord&#45;analyze/test/key&#45;estimation.test.ts -->
<g id="node22" class="node">
<title>packages/music&#45;structure/chord/chord&#45;analyze/test/key&#45;estimation.test.ts</title>
<g id="a_node22"><a xlink:href="packages/music-structure/chord/chord-analyze/test/key-estimation.test.ts" xlink:title="key&#45;estimation.test.ts">
<path fill="#ddfeff" stroke="black" d="M311.62,-541.75C311.62,-541.75 209.62,-541.75 209.62,-541.75 206.62,-541.75 203.62,-538.75 203.62,-535.75 203.62,-535.75 203.62,-529.75 203.62,-529.75 203.62,-526.75 206.62,-523.75 209.62,-523.75 209.62,-523.75 311.62,-523.75 311.62,-523.75 314.62,-523.75 317.62,-526.75 317.62,-529.75 317.62,-529.75 317.62,-535.75 317.62,-535.75 317.62,-538.75 314.62,-541.75 311.62,-541.75"/>
<text text-anchor="start" x="211.62" y="-530.55" font-family="Helvetica,sans-Serif" font-size="9.00">key&#45;estimation.test.ts</text>
</a>
</g>
</g>
<!-- packages/music&#45;structure/chord/chord&#45;analyze/test/key&#45;estimation.test.ts&#45;&gt;packages/music&#45;structure/chord/chord&#45;analyze/src/key&#45;estimation/index.ts -->
<g id="edge31" class="edge">
<title>packages/music&#45;structure/chord/chord&#45;analyze/test/key&#45;estimation.test.ts&#45;&gt;packages/music&#45;structure/chord/chord&#45;analyze/src/key&#45;estimation/index.ts</title>
<path fill="none" stroke="#000000" stroke-width="2" stroke-opacity="0.200000" d="M263.76,-523.54C270.11,-504.87 284.56,-462.43 292.3,-439.69"/>
<polygon fill="#000000" fill-opacity="0.200000" stroke="#000000" stroke-width="2" stroke-opacity="0.200000" points="294.35,-440.19 294.3,-433.84 290.38,-438.84 294.35,-440.19"/>
</g>
<!-- packages/music&#45;structure/chord/chord&#45;analyze/test/key&#45;estimation.test.ts&#45;&gt;packages/tonal&#45;objects/dist/index.js -->
<g id="edge32" class="edge">
<title>packages/music&#45;structure/chord/chord&#45;analyze/test/key&#45;estimation.test.ts&#45;&gt;packages/tonal&#45;objects/dist/index.js</title>
<path fill="none" stroke="#000000" stroke-width="2" stroke-opacity="0.200000" d="M254.29,-542.05C241.31,-561.11 211.6,-604.75 196.15,-627.44"/>
<polygon fill="#000000" fill-opacity="0.200000" stroke="#000000" stroke-width="2" stroke-opacity="0.200000" points="194.36,-626.33 192.72,-632.47 197.84,-628.69 194.36,-626.33"/>
</g>
</g>
</svg>
