<?xml version="1.0" encoding="UTF-8" standalone="no"?>
<!DOCTYPE svg PUBLIC "-//W3C//DTD SVG 1.1//EN"
 "http://www.w3.org/Graphics/SVG/1.1/DTD/svg11.dtd">
<!-- Generated by graphviz version 2.43.0 (0)
 -->
<!-- Title: dependency&#45;cruiser output Pages: 1 -->
<svg width="623pt" height="562pt"
 viewBox="0.00 0.00 622.50 562.00" xmlns="http://www.w3.org/2000/svg" xmlns:xlink="http://www.w3.org/1999/xlink">
<g id="graph0" class="graph" transform="scale(1 1) rotate(0) translate(4 558)">
<title>dependency&#45;cruiser output</title>
<polygon fill="white" stroke="transparent" points="-4,4 -4,-558 618.5,-558 618.5,4 -4,4"/>
<g id="clust1" class="cluster">
<title>cluster_packages</title>
<path fill="#ffffff" stroke="black" stroke-width="2" d="M16,-8C16,-8 602.5,-8 602.5,-8 608.5,-8 614.5,-14 614.5,-20 614.5,-20 614.5,-534 614.5,-534 614.5,-540 608.5,-546 602.5,-546 602.5,-546 16,-546 16,-546 10,-546 4,-540 4,-534 4,-534 4,-20 4,-20 4,-14 10,-8 16,-8"/>
<text text-anchor="middle" x="309.25" y="-534.8" font-family="Helvetica,sans-Serif" font-weight="bold" font-size="9.00">packages</text>
</g>
<g id="clust2" class="cluster">
<title>cluster_packages/cognitive&#45;theory&#45;of&#45;music</title>
<path fill="#ffffff" stroke="black" stroke-width="2" d="M469.5,-306C469.5,-306 594.5,-306 594.5,-306 600.5,-306 606.5,-312 606.5,-318 606.5,-318 606.5,-414 606.5,-414 606.5,-420 600.5,-426 594.5,-426 594.5,-426 469.5,-426 469.5,-426 463.5,-426 457.5,-420 457.5,-414 457.5,-414 457.5,-318 457.5,-318 457.5,-312 463.5,-306 469.5,-306"/>
<text text-anchor="middle" x="532" y="-414.8" font-family="Helvetica,sans-Serif" font-weight="bold" font-size="9.00">cognitive&#45;theory&#45;of&#45;music</text>
</g>
<g id="clust3" class="cluster">
<title>cluster_packages/cognitive&#45;theory&#45;of&#45;music/irm</title>
<path fill="#ffffff" stroke="black" stroke-width="2" d="M500.5,-314C500.5,-314 562.5,-314 562.5,-314 568.5,-314 574.5,-320 574.5,-326 574.5,-326 574.5,-388 574.5,-388 574.5,-394 568.5,-400 562.5,-400 562.5,-400 500.5,-400 500.5,-400 494.5,-400 488.5,-394 488.5,-388 488.5,-388 488.5,-326 488.5,-326 488.5,-320 494.5,-314 500.5,-314"/>
<text text-anchor="middle" x="531.5" y="-388.8" font-family="Helvetica,sans-Serif" font-weight="bold" font-size="9.00">irm</text>
</g>
<g id="clust4" class="cluster">
<title>cluster_packages/cognitive&#45;theory&#45;of&#45;music/irm/dist</title>
<path fill="#ffffff" stroke="black" stroke-width="2" d="M508.5,-322C508.5,-322 554.5,-322 554.5,-322 560.5,-322 566.5,-328 566.5,-334 566.5,-334 566.5,-362 566.5,-362 566.5,-368 560.5,-374 554.5,-374 554.5,-374 508.5,-374 508.5,-374 502.5,-374 496.5,-368 496.5,-362 496.5,-362 496.5,-334 496.5,-334 496.5,-328 502.5,-322 508.5,-322"/>
<text text-anchor="middle" x="531.5" y="-362.8" font-family="Helvetica,sans-Serif" font-weight="bold" font-size="9.00">dist</text>
</g>
<g id="clust5" class="cluster">
<title>cluster_packages/music&#45;structure</title>
<path fill="#ffffff" stroke="black" stroke-width="2" d="M24,-16C24,-16 580.5,-16 580.5,-16 586.5,-16 592.5,-22 592.5,-28 592.5,-28 592.5,-286 592.5,-286 592.5,-292 586.5,-298 580.5,-298 580.5,-298 24,-298 24,-298 18,-298 12,-292 12,-286 12,-286 12,-28 12,-28 12,-22 18,-16 24,-16"/>
<text text-anchor="middle" x="302.25" y="-286.8" font-family="Helvetica,sans-Serif" font-weight="bold" font-size="9.00">music&#45;structure</text>
</g>
<g id="clust6" class="cluster">
<title>cluster_packages/music&#45;structure/beat</title>
<path fill="#ffffff" stroke="black" stroke-width="2" d="M32,-156C32,-156 122,-156 122,-156 128,-156 134,-162 134,-168 134,-168 134,-260 134,-260 134,-266 128,-272 122,-272 122,-272 32,-272 32,-272 26,-272 20,-266 20,-260 20,-260 20,-168 20,-168 20,-162 26,-156 32,-156"/>
<text text-anchor="middle" x="77" y="-260.8" font-family="Helvetica,sans-Serif" font-weight="bold" font-size="9.00">beat</text>
</g>
<g id="clust7" class="cluster">
<title>cluster_packages/music&#45;structure/beat/beat&#45;estimation</title>
<path fill="#ffffff" stroke="black" stroke-width="2" d="M40,-164C40,-164 114,-164 114,-164 120,-164 126,-170 126,-176 126,-176 126,-234 126,-234 126,-240 120,-246 114,-246 114,-246 40,-246 40,-246 34,-246 28,-240 28,-234 28,-234 28,-176 28,-176 28,-170 34,-164 40,-164"/>
<text text-anchor="middle" x="77" y="-234.8" font-family="Helvetica,sans-Serif" font-weight="bold" font-size="9.00">beat&#45;estimation</text>
</g>
<g id="clust8" class="cluster">
<title>cluster_packages/music&#45;structure/chord</title>
<path fill="#ffffff" stroke="black" stroke-width="2" d="M215,-24C215,-24 296,-24 296,-24 302,-24 308,-30 308,-36 308,-36 308,-132 308,-132 308,-138 302,-144 296,-144 296,-144 215,-144 215,-144 209,-144 203,-138 203,-132 203,-132 203,-36 203,-36 203,-30 209,-24 215,-24"/>
<text text-anchor="middle" x="255.5" y="-132.8" font-family="Helvetica,sans-Serif" font-weight="bold" font-size="9.00">chord</text>
</g>
<g id="clust9" class="cluster">
<title>cluster_packages/music&#45;structure/chord/chord&#45;analyze</title>
<path fill="#ffffff" stroke="black" stroke-width="2" d="M223,-32C223,-32 288,-32 288,-32 294,-32 300,-38 300,-44 300,-44 300,-106 300,-106 300,-112 294,-118 288,-118 288,-118 223,-118 223,-118 217,-118 211,-112 211,-106 211,-106 211,-44 211,-44 211,-38 217,-32 223,-32"/>
<text text-anchor="middle" x="255.5" y="-106.8" font-family="Helvetica,sans-Serif" font-weight="bold" font-size="9.00">chord&#45;analyze</text>
</g>
<g id="clust10" class="cluster">
<title>cluster_packages/music&#45;structure/chord/chord&#45;analyze/dist</title>
<path fill="#ffffff" stroke="black" stroke-width="2" d="M232,-40C232,-40 278,-40 278,-40 284,-40 290,-46 290,-52 290,-52 290,-80 290,-80 290,-86 284,-92 278,-92 278,-92 232,-92 232,-92 226,-92 220,-86 220,-80 220,-80 220,-52 220,-52 220,-46 226,-40 232,-40"/>
<text text-anchor="middle" x="255" y="-80.8" font-family="Helvetica,sans-Serif" font-weight="bold" font-size="9.00">dist</text>
</g>
<g id="clust11" class="cluster">
<title>cluster_packages/music&#45;structure/melody</title>
<path fill="#ffffff" stroke="black" stroke-width="2" d="M170,-152C170,-152 572.5,-152 572.5,-152 578.5,-152 584.5,-158 584.5,-164 584.5,-164 584.5,-260 584.5,-260 584.5,-266 578.5,-272 572.5,-272 572.5,-272 170,-272 170,-272 164,-272 158,-266 158,-260 158,-260 158,-164 158,-164 158,-158 164,-152 170,-152"/>
<text text-anchor="middle" x="371.25" y="-260.8" font-family="Helvetica,sans-Serif" font-weight="bold" font-size="9.00">melody</text>
</g>
<g id="clust12" class="cluster">
<title>cluster_packages/music&#45;structure/melody/melody&#45;analyze</title>
<path fill="#ffffff" stroke="black" stroke-width="2" d="M178,-160C178,-160 564.5,-160 564.5,-160 570.5,-160 576.5,-166 576.5,-172 576.5,-172 576.5,-234 576.5,-234 576.5,-240 570.5,-246 564.5,-246 564.5,-246 178,-246 178,-246 172,-246 166,-240 166,-234 166,-234 166,-172 166,-172 166,-166 172,-160 178,-160"/>
<text text-anchor="middle" x="371.25" y="-234.8" font-family="Helvetica,sans-Serif" font-weight="bold" font-size="9.00">melody&#45;analyze</text>
</g>
<g id="clust13" class="cluster">
<title>cluster_packages/music&#45;structure/melody/melody&#45;analyze/src</title>
<path fill="#ffffff" stroke="black" stroke-width="2" d="M186,-168C186,-168 556.5,-168 556.5,-168 562.5,-168 568.5,-174 568.5,-180 568.5,-180 568.5,-208 568.5,-208 568.5,-214 562.5,-220 556.5,-220 556.5,-220 186,-220 186,-220 180,-220 174,-214 174,-208 174,-208 174,-180 174,-180 174,-174 180,-168 186,-168"/>
<text text-anchor="middle" x="371.25" y="-208.8" font-family="Helvetica,sans-Serif" font-weight="bold" font-size="9.00">src</text>
</g>
<g id="clust14" class="cluster">
<title>cluster_packages/util</title>
<path fill="#ffffff" stroke="black" stroke-width="2" d="M351.5,-306C351.5,-306 429.5,-306 429.5,-306 435.5,-306 441.5,-312 441.5,-318 441.5,-318 441.5,-508 441.5,-508 441.5,-514 435.5,-520 429.5,-520 429.5,-520 351.5,-520 351.5,-520 345.5,-520 339.5,-514 339.5,-508 339.5,-508 339.5,-318 339.5,-318 339.5,-312 345.5,-306 351.5,-306"/>
<text text-anchor="middle" x="390.5" y="-508.8" font-family="Helvetica,sans-Serif" font-weight="bold" font-size="9.00">util</text>
</g>
<g id="clust15" class="cluster">
<title>cluster_packages/util/math</title>
<path fill="#ffffff" stroke="black" stroke-width="2" d="M359.5,-408C359.5,-408 421.5,-408 421.5,-408 427.5,-408 433.5,-414 433.5,-420 433.5,-420 433.5,-482 433.5,-482 433.5,-488 427.5,-494 421.5,-494 421.5,-494 359.5,-494 359.5,-494 353.5,-494 347.5,-488 347.5,-482 347.5,-482 347.5,-420 347.5,-420 347.5,-414 353.5,-408 359.5,-408"/>
<text text-anchor="middle" x="390.5" y="-482.8" font-family="Helvetica,sans-Serif" font-weight="bold" font-size="9.00">math</text>
</g>
<g id="clust16" class="cluster">
<title>cluster_packages/util/math/dist</title>
<path fill="#ffffff" stroke="black" stroke-width="2" d="M367.5,-416C367.5,-416 413.5,-416 413.5,-416 419.5,-416 425.5,-422 425.5,-428 425.5,-428 425.5,-456 425.5,-456 425.5,-462 419.5,-468 413.5,-468 413.5,-468 367.5,-468 367.5,-468 361.5,-468 355.5,-462 355.5,-456 355.5,-456 355.5,-428 355.5,-428 355.5,-422 361.5,-416 367.5,-416"/>
<text text-anchor="middle" x="390.5" y="-456.8" font-family="Helvetica,sans-Serif" font-weight="bold" font-size="9.00">dist</text>
</g>
<g id="clust17" class="cluster">
<title>cluster_packages/util/time&#45;and</title>
<path fill="#ffffff" stroke="black" stroke-width="2" d="M359.5,-314C359.5,-314 421.5,-314 421.5,-314 427.5,-314 433.5,-320 433.5,-326 433.5,-326 433.5,-388 433.5,-388 433.5,-394 427.5,-400 421.5,-400 421.5,-400 359.5,-400 359.5,-400 353.5,-400 347.5,-394 347.5,-388 347.5,-388 347.5,-326 347.5,-326 347.5,-320 353.5,-314 359.5,-314"/>
<text text-anchor="middle" x="390.5" y="-388.8" font-family="Helvetica,sans-Serif" font-weight="bold" font-size="9.00">time&#45;and</text>
</g>
<g id="clust18" class="cluster">
<title>cluster_packages/util/time&#45;and/dist</title>
<path fill="#ffffff" stroke="black" stroke-width="2" d="M367.5,-322C367.5,-322 413.5,-322 413.5,-322 419.5,-322 425.5,-328 425.5,-334 425.5,-334 425.5,-362 425.5,-362 425.5,-368 419.5,-374 413.5,-374 413.5,-374 367.5,-374 367.5,-374 361.5,-374 355.5,-368 355.5,-362 355.5,-362 355.5,-334 355.5,-334 355.5,-328 361.5,-322 367.5,-322"/>
<text text-anchor="middle" x="390.5" y="-362.8" font-family="Helvetica,sans-Serif" font-weight="bold" font-size="9.00">dist</text>
</g>
<!-- packages/cognitive&#45;theory&#45;of&#45;music/irm/dist/index.js -->
<g id="node1" class="node">
<title>packages/cognitive&#45;theory&#45;of&#45;music/irm/dist/index.js</title>
<g id="a_node1"><a xlink:href="packages/cognitive-theory-of-music/irm/dist/index.js" xlink:title="index.js">
<polygon fill="#ffffcc" stroke="black" points="558.5,-348 557,-350 546.5,-350 545,-348 504.5,-348 504.5,-330 558.5,-330 558.5,-348"/>
<text text-anchor="start" x="514" y="-336.8" font-family="Helvetica,sans-Serif" font-size="9.00">index.js</text>
</a>
</g>
</g>
<!-- packages/music&#45;structure/beat/beat&#45;estimation/index.test.ts -->
<g id="node2" class="node">
<title>packages/music&#45;structure/beat/beat&#45;estimation/index.test.ts</title>
<g id="a_node2"><a xlink:href="packages/music-structure/beat/beat-estimation/index.test.ts" xlink:title="no&#45;orphans">
<path fill="#ccffcc" stroke="orange" d="M107,-220C107,-220 46,-220 46,-220 43,-220 40,-217 40,-214 40,-214 40,-208 40,-208 40,-205 43,-202 46,-202 46,-202 107,-202 107,-202 110,-202 113,-205 113,-208 113,-208 113,-214 113,-214 113,-217 110,-220 107,-220"/>
<text text-anchor="start" x="48" y="-208.8" font-family="Helvetica,sans-Serif" font-size="9.00" fill="orange">index.test.ts</text>
</a>
</g>
</g>
<!-- packages/music&#45;structure/beat/beat&#45;estimation/index.ts -->
<g id="node3" class="node">
<title>packages/music&#45;structure/beat/beat&#45;estimation/index.ts</title>
<g id="a_node3"><a xlink:href="packages/music-structure/beat/beat-estimation/index.ts" xlink:title="index.ts">
<path fill="#ddfeff" stroke="black" d="M97.5,-190C97.5,-190 55.5,-190 55.5,-190 52.5,-190 49.5,-187 49.5,-184 49.5,-184 49.5,-178 49.5,-178 49.5,-175 52.5,-172 55.5,-172 55.5,-172 97.5,-172 97.5,-172 100.5,-172 103.5,-175 103.5,-178 103.5,-178 103.5,-184 103.5,-184 103.5,-187 100.5,-190 97.5,-190"/>
<text text-anchor="start" x="58" y="-178.8" font-family="Helvetica,sans-Serif" font-size="9.00">index.ts</text>
</a>
</g>
</g>
<!-- packages/music&#45;structure/chord/chord&#45;analyze/dist/index.js -->
<g id="node4" class="node">
<title>packages/music&#45;structure/chord/chord&#45;analyze/dist/index.js</title>
<g id="a_node4"><a xlink:href="packages/music-structure/chord/chord-analyze/dist/index.js" xlink:title="index.js">
<polygon fill="#ffffcc" stroke="black" points="282,-66 280.5,-68 270,-68 268.5,-66 228,-66 228,-48 282,-48 282,-66"/>
<text text-anchor="start" x="237.5" y="-54.8" font-family="Helvetica,sans-Serif" font-size="9.00">index.js</text>
</a>
</g>
</g>
<!-- packages/music&#45;structure/beat/beat&#45;estimation/index.ts&#45;&gt;packages/music&#45;structure/chord/chord&#45;analyze/dist/index.js -->
<g id="edge1" class="edge">
<title>packages/music&#45;structure/beat/beat&#45;estimation/index.ts&#45;&gt;packages/music&#45;structure/chord/chord&#45;analyze/dist/index.js</title>
<path fill="none" stroke="#000000" stroke-width="2" stroke-opacity="0.200000" d="M90.48,-171.88C121.59,-150.03 200.47,-94.61 236.07,-69.59"/>
<polygon fill="#000000" fill-opacity="0.200000" stroke="#000000" stroke-width="2" stroke-opacity="0.200000" points="237.3,-71.3 241,-66.13 234.89,-67.86 237.3,-71.3"/>
</g>
<!-- packages/util/math/dist/index.js -->
<g id="node5" class="node">
<title>packages/util/math/dist/index.js</title>
<g id="a_node5"><a xlink:href="packages/util/math/dist/index.js" xlink:title="index.js">
<polygon fill="#ffffcc" stroke="black" points="417.5,-442 416,-444 405.5,-444 404,-442 363.5,-442 363.5,-424 417.5,-424 417.5,-442"/>
<text text-anchor="start" x="373" y="-430.8" font-family="Helvetica,sans-Serif" font-size="9.00">index.js</text>
</a>
</g>
</g>
<!-- packages/music&#45;structure/beat/beat&#45;estimation/index.ts&#45;&gt;packages/util/math/dist/index.js -->
<g id="edge2" class="edge">
<title>packages/music&#45;structure/beat/beat&#45;estimation/index.ts&#45;&gt;packages/util/math/dist/index.js</title>
<path fill="none" stroke="#000000" stroke-width="2" stroke-opacity="0.200000" d="M88.05,-190.27C135.85,-228.63 318.36,-375.1 374.18,-419.9"/>
<polygon fill="#000000" fill-opacity="0.200000" stroke="#000000" stroke-width="2" stroke-opacity="0.200000" points="373.18,-421.8 379.18,-423.91 375.81,-418.52 373.18,-421.8"/>
</g>
<!-- packages/music&#45;structure/melody/melody&#45;analyze/src/time&#45;and&#45;analyzed&#45;melody.ts -->
<g id="node6" class="node">
<title>packages/music&#45;structure/melody/melody&#45;analyze/src/time&#45;and&#45;analyzed&#45;melody.ts</title>
<g id="a_node6"><a xlink:href="packages/music-structure/melody/melody-analyze/src/time-and-analyzed-melody.ts" xlink:title="time&#45;and&#45;analyzed&#45;melody.ts">
<path fill="#ddfeff" stroke="black" d="M322,-194C322,-194 188,-194 188,-194 185,-194 182,-191 182,-188 182,-188 182,-182 182,-182 182,-179 185,-176 188,-176 188,-176 322,-176 322,-176 325,-176 328,-179 328,-182 328,-182 328,-188 328,-188 328,-191 325,-194 322,-194"/>
<text text-anchor="start" x="190" y="-182.8" font-family="Helvetica,sans-Serif" font-size="9.00">time&#45;and&#45;analyzed&#45;melody.ts</text>
</a>
</g>
</g>
<!-- packages/music&#45;structure/beat/beat&#45;estimation/index.ts&#45;&gt;packages/music&#45;structure/melody/melody&#45;analyze/src/time&#45;and&#45;analyzed&#45;melody.ts -->
<g id="edge3" class="edge">
<title>packages/music&#45;structure/beat/beat&#45;estimation/index.ts&#45;&gt;packages/music&#45;structure/melody/melody&#45;analyze/src/time&#45;and&#45;analyzed&#45;melody.ts</title>
<path fill="none" stroke="#000000" stroke-width="2" stroke-opacity="0.200000" d="M103.54,-181.59C122.63,-182.02 149.61,-182.63 175.47,-183.22"/>
<polygon fill="#000000" fill-opacity="0.200000" stroke="#000000" stroke-width="2" stroke-opacity="0.200000" points="175.62,-185.32 181.67,-183.36 175.71,-181.13 175.62,-185.32"/>
</g>
<!-- packages/music&#45;structure/melody/melody&#45;analyze/src/melody&#45;analysis.ts -->
<g id="node8" class="node">
<title>packages/music&#45;structure/melody/melody&#45;analyze/src/melody&#45;analysis.ts</title>
<g id="a_node8"><a xlink:href="packages/music-structure/melody/melody-analyze/src/melody-analysis.ts" xlink:title="melody&#45;analysis.ts">
<path fill="#ddfeff" stroke="black" d="M434,-194C434,-194 347,-194 347,-194 344,-194 341,-191 341,-188 341,-188 341,-182 341,-182 341,-179 344,-176 347,-176 347,-176 434,-176 434,-176 437,-176 440,-179 440,-182 440,-182 440,-188 440,-188 440,-191 437,-194 434,-194"/>
<text text-anchor="start" x="349" y="-182.8" font-family="Helvetica,sans-Serif" font-size="9.00">melody&#45;analysis.ts</text>
</a>
</g>
</g>
<!-- packages/music&#45;structure/melody/melody&#45;analyze/src/time&#45;and&#45;analyzed&#45;melody.ts&#45;&gt;packages/music&#45;structure/melody/melody&#45;analyze/src/melody&#45;analysis.ts -->
<g id="edge6" class="edge">
<title>packages/music&#45;structure/melody/melody&#45;analyze/src/time&#45;and&#45;analyzed&#45;melody.ts&#45;&gt;packages/music&#45;structure/melody/melody&#45;analyze/src/melody&#45;analysis.ts</title>
<path fill="none" stroke="#000000" stroke-width="2" stroke-opacity="0.200000" d="M328.22,-185C330.37,-185 332.51,-185 334.64,-185"/>
<polygon fill="#000000" fill-opacity="0.200000" stroke="#000000" stroke-width="2" stroke-opacity="0.200000" points="334.96,-187.1 340.96,-185 334.96,-182.9 334.96,-187.1"/>
</g>
<!-- packages/util/time&#45;and/dist/index.js -->
<g id="node9" class="node">
<title>packages/util/time&#45;and/dist/index.js</title>
<g id="a_node9"><a xlink:href="packages/util/time-and/dist/index.js" xlink:title="index.js">
<polygon fill="#ffffcc" stroke="black" points="417.5,-348 416,-350 405.5,-350 404,-348 363.5,-348 363.5,-330 417.5,-330 417.5,-348"/>
<text text-anchor="start" x="373" y="-336.8" font-family="Helvetica,sans-Serif" font-size="9.00">index.js</text>
</a>
</g>
</g>
<!-- packages/music&#45;structure/melody/melody&#45;analyze/src/time&#45;and&#45;analyzed&#45;melody.ts&#45;&gt;packages/util/time&#45;and/dist/index.js -->
<g id="edge7" class="edge">
<title>packages/music&#45;structure/melody/melody&#45;analyze/src/time&#45;and&#45;analyzed&#45;melody.ts&#45;&gt;packages/util/time&#45;and/dist/index.js</title>
<path fill="none" stroke="#000000" stroke-width="2" stroke-opacity="0.200000" d="M263.95,-194.17C286.44,-220.11 350.59,-294.11 377.44,-325.09"/>
<polygon fill="#000000" fill-opacity="0.200000" stroke="#000000" stroke-width="2" stroke-opacity="0.200000" points="375.9,-326.52 381.42,-329.68 379.08,-323.77 375.9,-326.52"/>
</g>
<!-- packages/music&#45;structure/melody/melody&#45;analyze/src/gravity.ts -->
<g id="node7" class="node">
<title>packages/music&#45;structure/melody/melody&#45;analyze/src/gravity.ts</title>
<g id="a_node7"><a xlink:href="packages/music-structure/melody/melody-analyze/src/gravity.ts" xlink:title="gravity.ts">
<path fill="#ddfeff" stroke="black" d="M554.5,-194C554.5,-194 508.5,-194 508.5,-194 505.5,-194 502.5,-191 502.5,-188 502.5,-188 502.5,-182 502.5,-182 502.5,-179 505.5,-176 508.5,-176 508.5,-176 554.5,-176 554.5,-176 557.5,-176 560.5,-179 560.5,-182 560.5,-182 560.5,-188 560.5,-188 560.5,-191 557.5,-194 554.5,-194"/>
<text text-anchor="start" x="510.5" y="-182.8" font-family="Helvetica,sans-Serif" font-size="9.00">gravity.ts</text>
</a>
</g>
</g>
<!-- packages/music&#45;structure/melody/melody&#45;analyze/src/melody&#45;analysis.ts&#45;&gt;packages/cognitive&#45;theory&#45;of&#45;music/irm/dist/index.js -->
<g id="edge5" class="edge">
<title>packages/music&#45;structure/melody/melody&#45;analyze/src/melody&#45;analysis.ts&#45;&gt;packages/cognitive&#45;theory&#45;of&#45;music/irm/dist/index.js</title>
<path fill="none" stroke="#000000" stroke-width="2" stroke-opacity="0.200000" d="M399.78,-194.17C423.19,-220.11 489.98,-294.11 517.95,-325.09"/>
<polygon fill="#000000" fill-opacity="0.200000" stroke="#000000" stroke-width="2" stroke-opacity="0.200000" points="516.51,-326.63 522.09,-329.68 519.63,-323.82 516.51,-326.63"/>
</g>
<!-- packages/music&#45;structure/melody/melody&#45;analyze/src/melody&#45;analysis.ts&#45;&gt;packages/music&#45;structure/melody/melody&#45;analyze/src/gravity.ts -->
<g id="edge4" class="edge">
<title>packages/music&#45;structure/melody/melody&#45;analyze/src/melody&#45;analysis.ts&#45;&gt;packages/music&#45;structure/melody/melody&#45;analyze/src/gravity.ts</title>
<path fill="none" stroke="#000000" stroke-width="2" stroke-opacity="0.200000" d="M440.12,-185C458.66,-185 479.4,-185 496.32,-185"/>
<polygon fill="#000000" fill-opacity="0.200000" stroke="#000000" stroke-width="2" stroke-opacity="0.200000" points="496.38,-187.1 502.38,-185 496.38,-182.9 496.38,-187.1"/>
</g>
</g>
</svg>
