<?xml version="1.0" encoding="UTF-8" standalone="no"?>
<!DOCTYPE svg PUBLIC "-//W3C//DTD SVG 1.1//EN"
 "http://www.w3.org/Graphics/SVG/1.1/DTD/svg11.dtd">
<!-- Generated by graphviz version 2.43.0 (0)
 -->
<!-- Title: dependency&#45;cruiser output Pages: 1 -->
<svg width="652pt" height="596pt"
 viewBox="0.00 0.00 652.00 596.00" xmlns="http://www.w3.org/2000/svg" xmlns:xlink="http://www.w3.org/1999/xlink">
<g id="graph0" class="graph" transform="scale(1 1) rotate(0) translate(4 592)">
<title>dependency&#45;cruiser output</title>
<polygon fill="white" stroke="transparent" points="-4,4 -4,-592 648,-592 648,4 -4,4"/>
<g id="clust1" class="cluster">
<title>cluster_packages</title>
<path fill="#ffffff" stroke="black" stroke-width="2" d="M16,-8C16,-8 632,-8 632,-8 638,-8 644,-14 644,-20 644,-20 644,-568 644,-568 644,-574 638,-580 632,-580 632,-580 16,-580 16,-580 10,-580 4,-574 4,-568 4,-568 4,-20 4,-20 4,-14 10,-8 16,-8"/>
<text text-anchor="middle" x="324" y="-568.8" font-family="Helvetica,sans-Serif" font-weight="bold" font-size="9.00">packages</text>
</g>
<g id="clust2" class="cluster">
<title>cluster_packages/cognitive&#45;theory&#45;of&#45;music</title>
<path fill="#ffffff" stroke="black" stroke-width="2" d="M499,-340C499,-340 624,-340 624,-340 630,-340 636,-346 636,-352 636,-352 636,-448 636,-448 636,-454 630,-460 624,-460 624,-460 499,-460 499,-460 493,-460 487,-454 487,-448 487,-448 487,-352 487,-352 487,-346 493,-340 499,-340"/>
<text text-anchor="middle" x="561.5" y="-448.8" font-family="Helvetica,sans-Serif" font-weight="bold" font-size="9.00">cognitive&#45;theory&#45;of&#45;music</text>
</g>
<g id="clust3" class="cluster">
<title>cluster_packages/cognitive&#45;theory&#45;of&#45;music/irm</title>
<path fill="#ffffff" stroke="black" stroke-width="2" d="M530,-348C530,-348 592,-348 592,-348 598,-348 604,-354 604,-360 604,-360 604,-422 604,-422 604,-428 598,-434 592,-434 592,-434 530,-434 530,-434 524,-434 518,-428 518,-422 518,-422 518,-360 518,-360 518,-354 524,-348 530,-348"/>
<text text-anchor="middle" x="561" y="-422.8" font-family="Helvetica,sans-Serif" font-weight="bold" font-size="9.00">irm</text>
</g>
<g id="clust4" class="cluster">
<title>cluster_packages/cognitive&#45;theory&#45;of&#45;music/irm/dist</title>
<path fill="#ffffff" stroke="black" stroke-width="2" d="M538,-356C538,-356 584,-356 584,-356 590,-356 596,-362 596,-368 596,-368 596,-396 596,-396 596,-402 590,-408 584,-408 584,-408 538,-408 538,-408 532,-408 526,-402 526,-396 526,-396 526,-368 526,-368 526,-362 532,-356 538,-356"/>
<text text-anchor="middle" x="561" y="-396.8" font-family="Helvetica,sans-Serif" font-weight="bold" font-size="9.00">dist</text>
</g>
<g id="clust5" class="cluster">
<title>cluster_packages/music&#45;structure</title>
<path fill="#ffffff" stroke="black" stroke-width="2" d="M24,-16C24,-16 610,-16 610,-16 616,-16 622,-22 622,-28 622,-28 622,-320 622,-320 622,-326 616,-332 610,-332 610,-332 24,-332 24,-332 18,-332 12,-326 12,-320 12,-320 12,-28 12,-28 12,-22 18,-16 24,-16"/>
<text text-anchor="middle" x="317" y="-320.8" font-family="Helvetica,sans-Serif" font-weight="bold" font-size="9.00">music&#45;structure</text>
</g>
<g id="clust6" class="cluster">
<title>cluster_packages/music&#45;structure/beat</title>
<path fill="#ffffff" stroke="black" stroke-width="2" d="M32,-168C32,-168 122,-168 122,-168 128,-168 134,-174 134,-180 134,-180 134,-272 134,-272 134,-278 128,-284 122,-284 122,-284 32,-284 32,-284 26,-284 20,-278 20,-272 20,-272 20,-180 20,-180 20,-174 26,-168 32,-168"/>
<text text-anchor="middle" x="77" y="-272.8" font-family="Helvetica,sans-Serif" font-weight="bold" font-size="9.00">beat</text>
</g>
<g id="clust7" class="cluster">
<title>cluster_packages/music&#45;structure/beat/beat&#45;estimation</title>
<path fill="#ffffff" stroke="black" stroke-width="2" d="M40,-176C40,-176 114,-176 114,-176 120,-176 126,-182 126,-188 126,-188 126,-246 126,-246 126,-252 120,-258 114,-258 114,-258 40,-258 40,-258 34,-258 28,-252 28,-246 28,-246 28,-188 28,-188 28,-182 34,-176 40,-176"/>
<text text-anchor="middle" x="77" y="-246.8" font-family="Helvetica,sans-Serif" font-weight="bold" font-size="9.00">beat&#45;estimation</text>
</g>
<g id="clust8" class="cluster">
<title>cluster_packages/music&#45;structure/chord</title>
<path fill="#ffffff" stroke="black" stroke-width="2" d="M170,-152C170,-152 349,-152 349,-152 355,-152 361,-158 361,-164 361,-164 361,-294 361,-294 361,-300 355,-306 349,-306 349,-306 170,-306 170,-306 164,-306 158,-300 158,-294 158,-294 158,-164 158,-164 158,-158 164,-152 170,-152"/>
<text text-anchor="middle" x="259.5" y="-294.8" font-family="Helvetica,sans-Serif" font-weight="bold" font-size="9.00">chord</text>
</g>
<g id="clust9" class="cluster">
<title>cluster_packages/music&#45;structure/chord/chord&#45;analyze</title>
<path fill="#ffffff" stroke="black" stroke-width="2" d="M178,-160C178,-160 341,-160 341,-160 347,-160 353,-166 353,-172 353,-172 353,-268 353,-268 353,-274 347,-280 341,-280 341,-280 178,-280 178,-280 172,-280 166,-274 166,-268 166,-268 166,-172 166,-172 166,-166 172,-160 178,-160"/>
<text text-anchor="middle" x="259.5" y="-268.8" font-family="Helvetica,sans-Serif" font-weight="bold" font-size="9.00">chord&#45;analyze</text>
</g>
<g id="clust10" class="cluster">
<title>cluster_packages/music&#45;structure/chord/chord&#45;analyze/src</title>
<path fill="#ffffff" stroke="black" stroke-width="2" d="M186,-168C186,-168 333,-168 333,-168 339,-168 345,-174 345,-180 345,-180 345,-242 345,-242 345,-248 339,-254 333,-254 333,-254 186,-254 186,-254 180,-254 174,-248 174,-242 174,-242 174,-180 174,-180 174,-174 180,-168 186,-168"/>
<text text-anchor="middle" x="259.5" y="-242.8" font-family="Helvetica,sans-Serif" font-weight="bold" font-size="9.00">src</text>
</g>
<g id="clust11" class="cluster">
<title>cluster_packages/music&#45;structure/chord/chord&#45;analyze/src/chord&#45;analyze</title>
<path fill="#ffffff" stroke="black" stroke-width="2" d="M194,-176C194,-176 325,-176 325,-176 331,-176 337,-182 337,-188 337,-188 337,-216 337,-216 337,-222 331,-228 325,-228 325,-228 194,-228 194,-228 188,-228 182,-222 182,-216 182,-216 182,-188 182,-188 182,-182 188,-176 194,-176"/>
<text text-anchor="middle" x="259.5" y="-216.8" font-family="Helvetica,sans-Serif" font-weight="bold" font-size="9.00">chord&#45;analyze</text>
</g>
<g id="clust12" class="cluster">
<title>cluster_packages/music&#45;structure/melody</title>
<path fill="#ffffff" stroke="black" stroke-width="2" d="M174.5,-24C174.5,-24 602,-24 602,-24 608,-24 614,-30 614,-36 614,-36 614,-132 614,-132 614,-138 608,-144 602,-144 602,-144 174.5,-144 174.5,-144 168.5,-144 162.5,-138 162.5,-132 162.5,-132 162.5,-36 162.5,-36 162.5,-30 168.5,-24 174.5,-24"/>
<text text-anchor="middle" x="388.25" y="-132.8" font-family="Helvetica,sans-Serif" font-weight="bold" font-size="9.00">melody</text>
</g>
<g id="clust13" class="cluster">
<title>cluster_packages/music&#45;structure/melody/melody&#45;analyze</title>
<path fill="#ffffff" stroke="black" stroke-width="2" d="M182.5,-32C182.5,-32 594,-32 594,-32 600,-32 606,-38 606,-44 606,-44 606,-106 606,-106 606,-112 600,-118 594,-118 594,-118 182.5,-118 182.5,-118 176.5,-118 170.5,-112 170.5,-106 170.5,-106 170.5,-44 170.5,-44 170.5,-38 176.5,-32 182.5,-32"/>
<text text-anchor="middle" x="388.25" y="-106.8" font-family="Helvetica,sans-Serif" font-weight="bold" font-size="9.00">melody&#45;analyze</text>
</g>
<g id="clust14" class="cluster">
<title>cluster_packages/music&#45;structure/melody/melody&#45;analyze/src</title>
<path fill="#ffffff" stroke="black" stroke-width="2" d="M190.5,-40C190.5,-40 586,-40 586,-40 592,-40 598,-46 598,-52 598,-52 598,-80 598,-80 598,-86 592,-92 586,-92 586,-92 190.5,-92 190.5,-92 184.5,-92 178.5,-86 178.5,-80 178.5,-80 178.5,-52 178.5,-52 178.5,-46 184.5,-40 190.5,-40"/>
<text text-anchor="middle" x="388.25" y="-80.8" font-family="Helvetica,sans-Serif" font-weight="bold" font-size="9.00">src</text>
</g>
<g id="clust15" class="cluster">
<title>cluster_packages/util</title>
<path fill="#ffffff" stroke="black" stroke-width="2" d="M381,-340C381,-340 459,-340 459,-340 465,-340 471,-346 471,-352 471,-352 471,-542 471,-542 471,-548 465,-554 459,-554 459,-554 381,-554 381,-554 375,-554 369,-548 369,-542 369,-542 369,-352 369,-352 369,-346 375,-340 381,-340"/>
<text text-anchor="middle" x="420" y="-542.8" font-family="Helvetica,sans-Serif" font-weight="bold" font-size="9.00">util</text>
</g>
<g id="clust16" class="cluster">
<title>cluster_packages/util/math</title>
<path fill="#ffffff" stroke="black" stroke-width="2" d="M389,-442C389,-442 451,-442 451,-442 457,-442 463,-448 463,-454 463,-454 463,-516 463,-516 463,-522 457,-528 451,-528 451,-528 389,-528 389,-528 383,-528 377,-522 377,-516 377,-516 377,-454 377,-454 377,-448 383,-442 389,-442"/>
<text text-anchor="middle" x="420" y="-516.8" font-family="Helvetica,sans-Serif" font-weight="bold" font-size="9.00">math</text>
</g>
<g id="clust17" class="cluster">
<title>cluster_packages/util/math/dist</title>
<path fill="#ffffff" stroke="black" stroke-width="2" d="M397,-450C397,-450 443,-450 443,-450 449,-450 455,-456 455,-462 455,-462 455,-490 455,-490 455,-496 449,-502 443,-502 443,-502 397,-502 397,-502 391,-502 385,-496 385,-490 385,-490 385,-462 385,-462 385,-456 391,-450 397,-450"/>
<text text-anchor="middle" x="420" y="-490.8" font-family="Helvetica,sans-Serif" font-weight="bold" font-size="9.00">dist</text>
</g>
<g id="clust18" class="cluster">
<title>cluster_packages/util/time&#45;and</title>
<path fill="#ffffff" stroke="black" stroke-width="2" d="M389,-348C389,-348 451,-348 451,-348 457,-348 463,-354 463,-360 463,-360 463,-422 463,-422 463,-428 457,-434 451,-434 451,-434 389,-434 389,-434 383,-434 377,-428 377,-422 377,-422 377,-360 377,-360 377,-354 383,-348 389,-348"/>
<text text-anchor="middle" x="420" y="-422.8" font-family="Helvetica,sans-Serif" font-weight="bold" font-size="9.00">time&#45;and</text>
</g>
<g id="clust19" class="cluster">
<title>cluster_packages/util/time&#45;and/dist</title>
<path fill="#ffffff" stroke="black" stroke-width="2" d="M397,-356C397,-356 443,-356 443,-356 449,-356 455,-362 455,-368 455,-368 455,-396 455,-396 455,-402 449,-408 443,-408 443,-408 397,-408 397,-408 391,-408 385,-402 385,-396 385,-396 385,-368 385,-368 385,-362 391,-356 397,-356"/>
<text text-anchor="middle" x="420" y="-396.8" font-family="Helvetica,sans-Serif" font-weight="bold" font-size="9.00">dist</text>
</g>
<!-- packages/cognitive&#45;theory&#45;of&#45;music/irm/dist/index.js -->
<g id="node1" class="node">
<title>packages/cognitive&#45;theory&#45;of&#45;music/irm/dist/index.js</title>
<g id="a_node1"><a xlink:href="packages/cognitive-theory-of-music/irm/dist/index.js" xlink:title="index.js">
<polygon fill="#ffffcc" stroke="black" points="588,-382 586.5,-384 576,-384 574.5,-382 534,-382 534,-364 588,-364 588,-382"/>
<text text-anchor="start" x="543.5" y="-370.8" font-family="Helvetica,sans-Serif" font-size="9.00">index.js</text>
</a>
</g>
</g>
<!-- packages/music&#45;structure/beat/beat&#45;estimation/index.test.ts -->
<g id="node2" class="node">
<title>packages/music&#45;structure/beat/beat&#45;estimation/index.test.ts</title>
<g id="a_node2"><a xlink:href="packages/music-structure/beat/beat-estimation/index.test.ts" xlink:title="no&#45;orphans">
<path fill="#ccffcc" stroke="orange" d="M107,-232C107,-232 46,-232 46,-232 43,-232 40,-229 40,-226 40,-226 40,-220 40,-220 40,-217 43,-214 46,-214 46,-214 107,-214 107,-214 110,-214 113,-217 113,-220 113,-220 113,-226 113,-226 113,-229 110,-232 107,-232"/>
<text text-anchor="start" x="48" y="-220.8" font-family="Helvetica,sans-Serif" font-size="9.00" fill="orange">index.test.ts</text>
</a>
</g>
</g>
<!-- packages/music&#45;structure/beat/beat&#45;estimation/index.ts -->
<g id="node3" class="node">
<title>packages/music&#45;structure/beat/beat&#45;estimation/index.ts</title>
<g id="a_node3"><a xlink:href="packages/music-structure/beat/beat-estimation/index.ts" xlink:title="index.ts">
<path fill="#ddfeff" stroke="black" d="M97.5,-202C97.5,-202 55.5,-202 55.5,-202 52.5,-202 49.5,-199 49.5,-196 49.5,-196 49.5,-190 49.5,-190 49.5,-187 52.5,-184 55.5,-184 55.5,-184 97.5,-184 97.5,-184 100.5,-184 103.5,-187 103.5,-190 103.5,-190 103.5,-196 103.5,-196 103.5,-199 100.5,-202 97.5,-202"/>
<text text-anchor="start" x="58" y="-190.8" font-family="Helvetica,sans-Serif" font-size="9.00">index.ts</text>
</a>
</g>
</g>
<!-- packages/music&#45;structure/chord/chord&#45;analyze/src/chord&#45;analyze/time&#45;and&#45;roman&#45;analysis.ts -->
<g id="node4" class="node">
<title>packages/music&#45;structure/chord/chord&#45;analyze/src/chord&#45;analyze/time&#45;and&#45;roman&#45;analysis.ts</title>
<g id="a_node4"><a xlink:href="packages/music-structure/chord/chord-analyze/src/chord-analyze/time-and-roman-analysis.ts" xlink:title="time&#45;and&#45;roman&#45;analysis.ts">
<path fill="#ddfeff" stroke="black" d="M323,-202C323,-202 196,-202 196,-202 193,-202 190,-199 190,-196 190,-196 190,-190 190,-190 190,-187 193,-184 196,-184 196,-184 323,-184 323,-184 326,-184 329,-187 329,-190 329,-190 329,-196 329,-196 329,-199 326,-202 323,-202"/>
<text text-anchor="start" x="198" y="-190.8" font-family="Helvetica,sans-Serif" font-size="9.00">time&#45;and&#45;roman&#45;analysis.ts</text>
</a>
</g>
</g>
<!-- packages/music&#45;structure/beat/beat&#45;estimation/index.ts&#45;&gt;packages/music&#45;structure/chord/chord&#45;analyze/src/chord&#45;analyze/time&#45;and&#45;roman&#45;analysis.ts -->
<g id="edge1" class="edge">
<title>packages/music&#45;structure/beat/beat&#45;estimation/index.ts&#45;&gt;packages/music&#45;structure/chord/chord&#45;analyze/src/chord&#45;analyze/time&#45;and&#45;roman&#45;analysis.ts</title>
<path fill="none" stroke="#000000" stroke-width="2" stroke-opacity="0.200000" d="M103.82,-193C124.87,-193 155.47,-193 183.91,-193"/>
<polygon fill="#000000" fill-opacity="0.200000" stroke="#000000" stroke-width="2" stroke-opacity="0.200000" points="183.94,-195.1 189.94,-193 183.94,-190.9 183.94,-195.1"/>
</g>
<!-- packages/util/math/dist/index.js -->
<g id="node5" class="node">
<title>packages/util/math/dist/index.js</title>
<g id="a_node5"><a xlink:href="packages/util/math/dist/index.js" xlink:title="index.js">
<polygon fill="#ffffcc" stroke="black" points="447,-476 445.5,-478 435,-478 433.5,-476 393,-476 393,-458 447,-458 447,-476"/>
<text text-anchor="start" x="402.5" y="-464.8" font-family="Helvetica,sans-Serif" font-size="9.00">index.js</text>
</a>
</g>
</g>
<!-- packages/music&#45;structure/beat/beat&#45;estimation/index.ts&#45;&gt;packages/util/math/dist/index.js -->
<g id="edge2" class="edge">
<title>packages/music&#45;structure/beat/beat&#45;estimation/index.ts&#45;&gt;packages/util/math/dist/index.js</title>
<path fill="none" stroke="#000000" stroke-width="2" stroke-opacity="0.200000" d="M87.93,-202.12C138.67,-242.59 343.66,-406.1 403.51,-453.85"/>
<polygon fill="#000000" fill-opacity="0.200000" stroke="#000000" stroke-width="2" stroke-opacity="0.200000" points="402.53,-455.75 408.53,-457.85 405.15,-452.47 402.53,-455.75"/>
</g>
<!-- packages/music&#45;structure/melody/melody&#45;analyze/src/time&#45;and&#45;analyzed&#45;melody.ts -->
<g id="node6" class="node">
<title>packages/music&#45;structure/melody/melody&#45;analyze/src/time&#45;and&#45;analyzed&#45;melody.ts</title>
<g id="a_node6"><a xlink:href="packages/music-structure/melody/melody-analyze/src/time-and-analyzed-melody.ts" xlink:title="time&#45;and&#45;analyzed&#45;melody.ts">
<path fill="#ddfeff" stroke="black" d="M326.5,-66C326.5,-66 192.5,-66 192.5,-66 189.5,-66 186.5,-63 186.5,-60 186.5,-60 186.5,-54 186.5,-54 186.5,-51 189.5,-48 192.5,-48 192.5,-48 326.5,-48 326.5,-48 329.5,-48 332.5,-51 332.5,-54 332.5,-54 332.5,-60 332.5,-60 332.5,-63 329.5,-66 326.5,-66"/>
<text text-anchor="start" x="194.5" y="-54.8" font-family="Helvetica,sans-Serif" font-size="9.00">time&#45;and&#45;analyzed&#45;melody.ts</text>
</a>
</g>
</g>
<!-- packages/music&#45;structure/beat/beat&#45;estimation/index.ts&#45;&gt;packages/music&#45;structure/melody/melody&#45;analyze/src/time&#45;and&#45;analyzed&#45;melody.ts -->
<g id="edge3" class="edge">
<title>packages/music&#45;structure/beat/beat&#45;estimation/index.ts&#45;&gt;packages/music&#45;structure/melody/melody&#45;analyze/src/time&#45;and&#45;analyzed&#45;melody.ts</title>
<path fill="none" stroke="#000000" stroke-width="2" stroke-opacity="0.200000" d="M89.66,-183.87C121.08,-160.25 205.09,-97.13 241.4,-69.85"/>
<polygon fill="#000000" fill-opacity="0.200000" stroke="#000000" stroke-width="2" stroke-opacity="0.200000" points="242.86,-71.38 246.4,-66.09 240.34,-68.02 242.86,-71.38"/>
</g>
<!-- packages/util/time&#45;and/dist/index.js -->
<g id="node7" class="node">
<title>packages/util/time&#45;and/dist/index.js</title>
<g id="a_node7"><a xlink:href="packages/util/time-and/dist/index.js" xlink:title="index.js">
<polygon fill="#ffffcc" stroke="black" points="447,-382 445.5,-384 435,-384 433.5,-382 393,-382 393,-364 447,-364 447,-382"/>
<text text-anchor="start" x="402.5" y="-370.8" font-family="Helvetica,sans-Serif" font-size="9.00">index.js</text>
</a>
</g>
</g>
<!-- packages/music&#45;structure/chord/chord&#45;analyze/src/chord&#45;analyze/time&#45;and&#45;roman&#45;analysis.ts&#45;&gt;packages/util/time&#45;and/dist/index.js -->
<g id="edge4" class="edge">
<title>packages/music&#45;structure/chord/chord&#45;analyze/src/chord&#45;analyze/time&#45;and&#45;roman&#45;analysis.ts&#45;&gt;packages/util/time&#45;and/dist/index.js</title>
<path fill="none" stroke="#000000" stroke-width="2" stroke-opacity="0.200000" d="M268.58,-202.17C294.43,-231.54 375.28,-323.35 406.51,-358.82"/>
<polygon fill="#000000" fill-opacity="0.200000" stroke="#000000" stroke-width="2" stroke-opacity="0.200000" points="405.21,-360.51 410.75,-363.63 408.36,-357.74 405.21,-360.51"/>
</g>
<!-- packages/music&#45;structure/melody/melody&#45;analyze/src/time&#45;and&#45;analyzed&#45;melody.ts&#45;&gt;packages/util/time&#45;and/dist/index.js -->
<g id="edge8" class="edge">
<title>packages/music&#45;structure/melody/melody&#45;analyze/src/time&#45;and&#45;analyzed&#45;melody.ts&#45;&gt;packages/util/time&#45;and/dist/index.js</title>
<path fill="none" stroke="#000000" stroke-width="2" stroke-opacity="0.200000" d="M265.07,-66.12C287.31,-110.44 384.16,-303.55 411.68,-358.41"/>
<polygon fill="#000000" fill-opacity="0.200000" stroke="#000000" stroke-width="2" stroke-opacity="0.200000" points="409.84,-359.42 414.41,-363.85 413.6,-357.54 409.84,-359.42"/>
</g>
<!-- packages/music&#45;structure/melody/melody&#45;analyze/src/melody&#45;analysis.ts -->
<g id="node9" class="node">
<title>packages/music&#45;structure/melody/melody&#45;analyze/src/melody&#45;analysis.ts</title>
<g id="a_node9"><a xlink:href="packages/music-structure/melody/melody-analyze/src/melody-analysis.ts" xlink:title="melody&#45;analysis.ts">
<path fill="#ddfeff" stroke="black" d="M463.5,-66C463.5,-66 376.5,-66 376.5,-66 373.5,-66 370.5,-63 370.5,-60 370.5,-60 370.5,-54 370.5,-54 370.5,-51 373.5,-48 376.5,-48 376.5,-48 463.5,-48 463.5,-48 466.5,-48 469.5,-51 469.5,-54 469.5,-54 469.5,-60 469.5,-60 469.5,-63 466.5,-66 463.5,-66"/>
<text text-anchor="start" x="378.5" y="-54.8" font-family="Helvetica,sans-Serif" font-size="9.00">melody&#45;analysis.ts</text>
</a>
</g>
</g>
<!-- packages/music&#45;structure/melody/melody&#45;analyze/src/time&#45;and&#45;analyzed&#45;melody.ts&#45;&gt;packages/music&#45;structure/melody/melody&#45;analyze/src/melody&#45;analysis.ts -->
<g id="edge7" class="edge">
<title>packages/music&#45;structure/melody/melody&#45;analyze/src/time&#45;and&#45;analyzed&#45;melody.ts&#45;&gt;packages/music&#45;structure/melody/melody&#45;analyze/src/melody&#45;analysis.ts</title>
<path fill="none" stroke="#000000" stroke-width="2" stroke-opacity="0.200000" d="M332.79,-57C343.34,-57 354.05,-57 364.18,-57"/>
<polygon fill="#000000" fill-opacity="0.200000" stroke="#000000" stroke-width="2" stroke-opacity="0.200000" points="364.4,-59.1 370.4,-57 364.4,-54.9 364.4,-59.1"/>
</g>
<!-- packages/music&#45;structure/melody/melody&#45;analyze/src/gravity.ts -->
<g id="node8" class="node">
<title>packages/music&#45;structure/melody/melody&#45;analyze/src/gravity.ts</title>
<g id="a_node8"><a xlink:href="packages/music-structure/melody/melody-analyze/src/gravity.ts" xlink:title="gravity.ts">
<path fill="#ddfeff" stroke="black" d="M584,-66C584,-66 538,-66 538,-66 535,-66 532,-63 532,-60 532,-60 532,-54 532,-54 532,-51 535,-48 538,-48 538,-48 584,-48 584,-48 587,-48 590,-51 590,-54 590,-54 590,-60 590,-60 590,-63 587,-66 584,-66"/>
<text text-anchor="start" x="540" y="-54.8" font-family="Helvetica,sans-Serif" font-size="9.00">gravity.ts</text>
</a>
</g>
</g>
<!-- packages/music&#45;structure/melody/melody&#45;analyze/src/melody&#45;analysis.ts&#45;&gt;packages/cognitive&#45;theory&#45;of&#45;music/irm/dist/index.js -->
<g id="edge6" class="edge">
<title>packages/music&#45;structure/melody/melody&#45;analyze/src/melody&#45;analysis.ts&#45;&gt;packages/cognitive&#45;theory&#45;of&#45;music/irm/dist/index.js</title>
<path fill="none" stroke="#000000" stroke-width="2" stroke-opacity="0.200000" d="M425.01,-66.12C444.47,-110.35 529.11,-302.77 553.44,-358.08"/>
<polygon fill="#000000" fill-opacity="0.200000" stroke="#000000" stroke-width="2" stroke-opacity="0.200000" points="551.64,-359.2 555.97,-363.85 555.48,-357.51 551.64,-359.2"/>
</g>
<!-- packages/music&#45;structure/melody/melody&#45;analyze/src/melody&#45;analysis.ts&#45;&gt;packages/music&#45;structure/melody/melody&#45;analyze/src/gravity.ts -->
<g id="edge5" class="edge">
<title>packages/music&#45;structure/melody/melody&#45;analyze/src/melody&#45;analysis.ts&#45;&gt;packages/music&#45;structure/melody/melody&#45;analyze/src/gravity.ts</title>
<path fill="none" stroke="#000000" stroke-width="2" stroke-opacity="0.200000" d="M469.62,-57C488.16,-57 508.9,-57 525.82,-57"/>
<polygon fill="#000000" fill-opacity="0.200000" stroke="#000000" stroke-width="2" stroke-opacity="0.200000" points="525.88,-59.1 531.88,-57 525.88,-54.9 525.88,-59.1"/>
</g>
</g>
</svg>
