<?xml version="1.0" encoding="UTF-8" standalone="no"?>
<!DOCTYPE svg PUBLIC "-//W3C//DTD SVG 1.1//EN"
 "http://www.w3.org/Graphics/SVG/1.1/DTD/svg11.dtd">
<!-- Generated by graphviz version 2.43.0 (0)
 -->
<!-- Title: dependency&#45;cruiser output Pages: 1 -->
<svg width="921pt" height="1056pt"
 viewBox="0.00 0.00 921.00 1056.00" xmlns="http://www.w3.org/2000/svg" xmlns:xlink="http://www.w3.org/1999/xlink">
<g id="graph0" class="graph" transform="scale(1 1) rotate(0) translate(4 1052)">
<title>dependency&#45;cruiser output</title>
<polygon fill="white" stroke="transparent" points="-4,4 -4,-1052 917,-1052 917,4 -4,4"/>
<g id="clust1" class="cluster">
<title>cluster_packages</title>
<path fill="#ffffff" stroke="black" stroke-width="2" d="M16,-8C16,-8 893,-8 893,-8 899,-8 905,-14 905,-20 905,-20 905,-1028 905,-1028 905,-1034 899,-1040 893,-1040 893,-1040 16,-1040 16,-1040 10,-1040 4,-1034 4,-1028 4,-1028 4,-20 4,-20 4,-14 10,-8 16,-8"/>
<text text-anchor="middle" x="454.5" y="-1028.8" font-family="Helvetica,sans-Serif" font-weight="bold" font-size="9.00">packages</text>
</g>
<g id="clust2" class="cluster">
<title>cluster_packages/cognitive&#45;theory&#45;of&#45;music</title>
<path fill="#ffffff" stroke="black" stroke-width="2" d="M550,-16C550,-16 675,-16 675,-16 681,-16 687,-22 687,-28 687,-28 687,-124 687,-124 687,-130 681,-136 675,-136 675,-136 550,-136 550,-136 544,-136 538,-130 538,-124 538,-124 538,-28 538,-28 538,-22 544,-16 550,-16"/>
<text text-anchor="middle" x="612.5" y="-124.8" font-family="Helvetica,sans-Serif" font-weight="bold" font-size="9.00">cognitive&#45;theory&#45;of&#45;music</text>
</g>
<g id="clust3" class="cluster">
<title>cluster_packages/cognitive&#45;theory&#45;of&#45;music/irm</title>
<path fill="#ffffff" stroke="black" stroke-width="2" d="M581,-24C581,-24 643,-24 643,-24 649,-24 655,-30 655,-36 655,-36 655,-98 655,-98 655,-104 649,-110 643,-110 643,-110 581,-110 581,-110 575,-110 569,-104 569,-98 569,-98 569,-36 569,-36 569,-30 575,-24 581,-24"/>
<text text-anchor="middle" x="612" y="-98.8" font-family="Helvetica,sans-Serif" font-weight="bold" font-size="9.00">irm</text>
</g>
<g id="clust4" class="cluster">
<title>cluster_packages/cognitive&#45;theory&#45;of&#45;music/irm/dist</title>
<path fill="#ffffff" stroke="black" stroke-width="2" d="M589,-32C589,-32 635,-32 635,-32 641,-32 647,-38 647,-44 647,-44 647,-72 647,-72 647,-78 641,-84 635,-84 635,-84 589,-84 589,-84 583,-84 577,-78 577,-72 577,-72 577,-44 577,-44 577,-38 583,-32 589,-32"/>
<text text-anchor="middle" x="612" y="-72.8" font-family="Helvetica,sans-Serif" font-weight="bold" font-size="9.00">dist</text>
</g>
<g id="clust5" class="cluster">
<title>cluster_packages/music&#45;structure</title>
<path fill="#ffffff" stroke="black" stroke-width="2" d="M24,-144C24,-144 661,-144 661,-144 667,-144 673,-150 673,-156 673,-156 673,-448 673,-448 673,-454 667,-460 661,-460 661,-460 24,-460 24,-460 18,-460 12,-454 12,-448 12,-448 12,-156 12,-156 12,-150 18,-144 24,-144"/>
<text text-anchor="middle" x="342.5" y="-448.8" font-family="Helvetica,sans-Serif" font-weight="bold" font-size="9.00">music&#45;structure</text>
</g>
<g id="clust6" class="cluster">
<title>cluster_packages/music&#45;structure/beat</title>
<path fill="#ffffff" stroke="black" stroke-width="2" d="M32,-318C32,-318 122,-318 122,-318 128,-318 134,-324 134,-330 134,-330 134,-422 134,-422 134,-428 128,-434 122,-434 122,-434 32,-434 32,-434 26,-434 20,-428 20,-422 20,-422 20,-330 20,-330 20,-324 26,-318 32,-318"/>
<text text-anchor="middle" x="77" y="-422.8" font-family="Helvetica,sans-Serif" font-weight="bold" font-size="9.00">beat</text>
</g>
<g id="clust7" class="cluster">
<title>cluster_packages/music&#45;structure/beat/beat&#45;estimation</title>
<path fill="#ffffff" stroke="black" stroke-width="2" d="M40,-326C40,-326 114,-326 114,-326 120,-326 126,-332 126,-338 126,-338 126,-396 126,-396 126,-402 120,-408 114,-408 114,-408 40,-408 40,-408 34,-408 28,-402 28,-396 28,-396 28,-338 28,-338 28,-332 34,-326 40,-326"/>
<text text-anchor="middle" x="77" y="-396.8" font-family="Helvetica,sans-Serif" font-weight="bold" font-size="9.00">beat&#45;estimation</text>
</g>
<g id="clust8" class="cluster">
<title>cluster_packages/music&#45;structure/chord</title>
<path fill="#ffffff" stroke="black" stroke-width="2" d="M170,-280C170,-280 349,-280 349,-280 355,-280 361,-286 361,-292 361,-292 361,-422 361,-422 361,-428 355,-434 349,-434 349,-434 170,-434 170,-434 164,-434 158,-428 158,-422 158,-422 158,-292 158,-292 158,-286 164,-280 170,-280"/>
<text text-anchor="middle" x="259.5" y="-422.8" font-family="Helvetica,sans-Serif" font-weight="bold" font-size="9.00">chord</text>
</g>
<g id="clust9" class="cluster">
<title>cluster_packages/music&#45;structure/chord/chord&#45;analyze</title>
<path fill="#ffffff" stroke="black" stroke-width="2" d="M178,-288C178,-288 341,-288 341,-288 347,-288 353,-294 353,-300 353,-300 353,-396 353,-396 353,-402 347,-408 341,-408 341,-408 178,-408 178,-408 172,-408 166,-402 166,-396 166,-396 166,-300 166,-300 166,-294 172,-288 178,-288"/>
<text text-anchor="middle" x="259.5" y="-396.8" font-family="Helvetica,sans-Serif" font-weight="bold" font-size="9.00">chord&#45;analyze</text>
</g>
<g id="clust10" class="cluster">
<title>cluster_packages/music&#45;structure/chord/chord&#45;analyze/src</title>
<path fill="#ffffff" stroke="black" stroke-width="2" d="M186,-296C186,-296 333,-296 333,-296 339,-296 345,-302 345,-308 345,-308 345,-370 345,-370 345,-376 339,-382 333,-382 333,-382 186,-382 186,-382 180,-382 174,-376 174,-370 174,-370 174,-308 174,-308 174,-302 180,-296 186,-296"/>
<text text-anchor="middle" x="259.5" y="-370.8" font-family="Helvetica,sans-Serif" font-weight="bold" font-size="9.00">src</text>
</g>
<g id="clust11" class="cluster">
<title>cluster_packages/music&#45;structure/chord/chord&#45;analyze/src/chord&#45;analyze</title>
<path fill="#ffffff" stroke="black" stroke-width="2" d="M194,-304C194,-304 325,-304 325,-304 331,-304 337,-310 337,-316 337,-316 337,-344 337,-344 337,-350 331,-356 325,-356 325,-356 194,-356 194,-356 188,-356 182,-350 182,-344 182,-344 182,-316 182,-316 182,-310 188,-304 194,-304"/>
<text text-anchor="middle" x="259.5" y="-344.8" font-family="Helvetica,sans-Serif" font-weight="bold" font-size="9.00">chord&#45;analyze</text>
</g>
<g id="clust12" class="cluster">
<title>cluster_packages/music&#45;structure/melody</title>
<path fill="#ffffff" stroke="black" stroke-width="2" d="M174.5,-152C174.5,-152 653,-152 653,-152 659,-152 665,-158 665,-164 665,-164 665,-260 665,-260 665,-266 659,-272 653,-272 653,-272 174.5,-272 174.5,-272 168.5,-272 162.5,-266 162.5,-260 162.5,-260 162.5,-164 162.5,-164 162.5,-158 168.5,-152 174.5,-152"/>
<text text-anchor="middle" x="413.75" y="-260.8" font-family="Helvetica,sans-Serif" font-weight="bold" font-size="9.00">melody</text>
</g>
<g id="clust13" class="cluster">
<title>cluster_packages/music&#45;structure/melody/melody&#45;analyze</title>
<path fill="#ffffff" stroke="black" stroke-width="2" d="M182.5,-160C182.5,-160 645,-160 645,-160 651,-160 657,-166 657,-172 657,-172 657,-234 657,-234 657,-240 651,-246 645,-246 645,-246 182.5,-246 182.5,-246 176.5,-246 170.5,-240 170.5,-234 170.5,-234 170.5,-172 170.5,-172 170.5,-166 176.5,-160 182.5,-160"/>
<text text-anchor="middle" x="413.75" y="-234.8" font-family="Helvetica,sans-Serif" font-weight="bold" font-size="9.00">melody&#45;analyze</text>
</g>
<g id="clust14" class="cluster">
<title>cluster_packages/music&#45;structure/melody/melody&#45;analyze/src</title>
<path fill="#ffffff" stroke="black" stroke-width="2" d="M190.5,-168C190.5,-168 637,-168 637,-168 643,-168 649,-174 649,-180 649,-180 649,-208 649,-208 649,-214 643,-220 637,-220 637,-220 190.5,-220 190.5,-220 184.5,-220 178.5,-214 178.5,-208 178.5,-208 178.5,-180 178.5,-180 178.5,-174 184.5,-168 190.5,-168"/>
<text text-anchor="middle" x="413.75" y="-208.8" font-family="Helvetica,sans-Serif" font-weight="bold" font-size="9.00">src</text>
</g>
<g id="clust15" class="cluster">
<title>cluster_packages/util</title>
<path fill="#ffffff" stroke="black" stroke-width="2" d="M389,-468C389,-468 885,-468 885,-468 891,-468 897,-474 897,-480 897,-480 897,-1002 897,-1002 897,-1008 891,-1014 885,-1014 885,-1014 389,-1014 389,-1014 383,-1014 377,-1008 377,-1002 377,-1002 377,-480 377,-480 377,-474 383,-468 389,-468"/>
<text text-anchor="middle" x="637" y="-1002.8" font-family="Helvetica,sans-Serif" font-weight="bold" font-size="9.00">util</text>
</g>
<g id="clust16" class="cluster">
<title>cluster_packages/util/math</title>
<path fill="#ffffff" stroke="black" stroke-width="2" d="M397,-570C397,-570 877,-570 877,-570 883,-570 889,-576 889,-582 889,-582 889,-976 889,-976 889,-982 883,-988 877,-988 877,-988 397,-988 397,-988 391,-988 385,-982 385,-976 385,-976 385,-582 385,-582 385,-576 391,-570 397,-570"/>
<text text-anchor="middle" x="637" y="-976.8" font-family="Helvetica,sans-Serif" font-weight="bold" font-size="9.00">math</text>
</g>
<g id="clust17" class="cluster">
<title>cluster_packages/util/math/src</title>
<path fill="#ffffff" stroke="black" stroke-width="2" d="M405,-578C405,-578 869,-578 869,-578 875,-578 881,-584 881,-590 881,-590 881,-950 881,-950 881,-956 875,-962 869,-962 869,-962 405,-962 405,-962 399,-962 393,-956 393,-950 393,-950 393,-590 393,-590 393,-584 399,-578 405,-578"/>
<text text-anchor="middle" x="637" y="-950.8" font-family="Helvetica,sans-Serif" font-weight="bold" font-size="9.00">src</text>
</g>
<g id="clust18" class="cluster">
<title>cluster_packages/util/math/src/array</title>
<path fill="#ffffff" stroke="black" stroke-width="2" d="M422.5,-586C422.5,-586 468.5,-586 468.5,-586 474.5,-586 480.5,-592 480.5,-598 480.5,-598 480.5,-656 480.5,-656 480.5,-662 474.5,-668 468.5,-668 468.5,-668 422.5,-668 422.5,-668 416.5,-668 410.5,-662 410.5,-656 410.5,-656 410.5,-598 410.5,-598 410.5,-592 416.5,-586 422.5,-586"/>
<text text-anchor="middle" x="445.5" y="-656.8" font-family="Helvetica,sans-Serif" font-weight="bold" font-size="9.00">array</text>
</g>
<g id="clust19" class="cluster">
<title>cluster_packages/util/math/src/basic&#45;function</title>
<path fill="#ffffff" stroke="black" stroke-width="2" d="M413,-676C413,-676 478,-676 478,-676 484,-676 490,-682 490,-688 490,-688 490,-746 490,-746 490,-752 484,-758 478,-758 478,-758 413,-758 413,-758 407,-758 401,-752 401,-746 401,-746 401,-688 401,-688 401,-682 407,-676 413,-676"/>
<text text-anchor="middle" x="445.5" y="-746.8" font-family="Helvetica,sans-Serif" font-weight="bold" font-size="9.00">basic&#45;function</text>
</g>
<g id="clust20" class="cluster">
<title>cluster_packages/util/math/src/fft</title>
<path fill="#ffffff" stroke="black" stroke-width="2" d="M422.5,-766C422.5,-766 861,-766 861,-766 867,-766 873,-772 873,-778 873,-778 873,-834 873,-834 873,-840 867,-846 861,-846 861,-846 422.5,-846 422.5,-846 416.5,-846 410.5,-840 410.5,-834 410.5,-834 410.5,-778 410.5,-778 410.5,-772 416.5,-766 422.5,-766"/>
<text text-anchor="middle" x="641.75" y="-834.8" font-family="Helvetica,sans-Serif" font-weight="bold" font-size="9.00">fft</text>
</g>
<g id="clust21" class="cluster">
<title>cluster_packages/util/math/src/reduction</title>
<path fill="#ffffff" stroke="black" stroke-width="2" d="M417,-854C417,-854 474,-854 474,-854 480,-854 486,-860 486,-866 486,-866 486,-924 486,-924 486,-930 480,-936 474,-936 474,-936 417,-936 417,-936 411,-936 405,-930 405,-924 405,-924 405,-866 405,-866 405,-860 411,-854 417,-854"/>
<text text-anchor="middle" x="445.5" y="-924.8" font-family="Helvetica,sans-Serif" font-weight="bold" font-size="9.00">reduction</text>
</g>
<g id="clust22" class="cluster">
<title>cluster_packages/util/time&#45;and</title>
<path fill="#ffffff" stroke="black" stroke-width="2" d="M414.5,-476C414.5,-476 476.5,-476 476.5,-476 482.5,-476 488.5,-482 488.5,-488 488.5,-488 488.5,-550 488.5,-550 488.5,-556 482.5,-562 476.5,-562 476.5,-562 414.5,-562 414.5,-562 408.5,-562 402.5,-556 402.5,-550 402.5,-550 402.5,-488 402.5,-488 402.5,-482 408.5,-476 414.5,-476"/>
<text text-anchor="middle" x="445.5" y="-550.8" font-family="Helvetica,sans-Serif" font-weight="bold" font-size="9.00">time&#45;and</text>
</g>
<g id="clust23" class="cluster">
<title>cluster_packages/util/time&#45;and/dist</title>
<path fill="#ffffff" stroke="black" stroke-width="2" d="M422.5,-484C422.5,-484 468.5,-484 468.5,-484 474.5,-484 480.5,-490 480.5,-496 480.5,-496 480.5,-524 480.5,-524 480.5,-530 474.5,-536 468.5,-536 468.5,-536 422.5,-536 422.5,-536 416.5,-536 410.5,-530 410.5,-524 410.5,-524 410.5,-496 410.5,-496 410.5,-490 416.5,-484 422.5,-484"/>
<text text-anchor="middle" x="445.5" y="-524.8" font-family="Helvetica,sans-Serif" font-weight="bold" font-size="9.00">dist</text>
</g>
<!-- packages/cognitive&#45;theory&#45;of&#45;music/irm/dist/index.js -->
<g id="node1" class="node">
<title>packages/cognitive&#45;theory&#45;of&#45;music/irm/dist/index.js</title>
<g id="a_node1"><a xlink:href="packages/cognitive-theory-of-music/irm/dist/index.js" xlink:title="index.js">
<polygon fill="#ffffcc" stroke="black" points="639,-58 637.5,-60 627,-60 625.5,-58 585,-58 585,-40 639,-40 639,-58"/>
<text text-anchor="start" x="594.5" y="-46.8" font-family="Helvetica,sans-Serif" font-size="9.00">index.js</text>
</a>
</g>
</g>
<!-- packages/music&#45;structure/beat/beat&#45;estimation/index.test.ts -->
<g id="node2" class="node">
<title>packages/music&#45;structure/beat/beat&#45;estimation/index.test.ts</title>
<g id="a_node2"><a xlink:href="packages/music-structure/beat/beat-estimation/index.test.ts" xlink:title="no&#45;orphans">
<path fill="#ccffcc" stroke="orange" d="M107,-382C107,-382 46,-382 46,-382 43,-382 40,-379 40,-376 40,-376 40,-370 40,-370 40,-367 43,-364 46,-364 46,-364 107,-364 107,-364 110,-364 113,-367 113,-370 113,-370 113,-376 113,-376 113,-379 110,-382 107,-382"/>
<text text-anchor="start" x="48" y="-370.8" font-family="Helvetica,sans-Serif" font-size="9.00" fill="orange">index.test.ts</text>
</a>
</g>
</g>
<!-- packages/music&#45;structure/beat/beat&#45;estimation/index.ts -->
<g id="node3" class="node">
<title>packages/music&#45;structure/beat/beat&#45;estimation/index.ts</title>
<g id="a_node3"><a xlink:href="packages/music-structure/beat/beat-estimation/index.ts" xlink:title="index.ts">
<path fill="#ddfeff" stroke="black" d="M97.5,-352C97.5,-352 55.5,-352 55.5,-352 52.5,-352 49.5,-349 49.5,-346 49.5,-346 49.5,-340 49.5,-340 49.5,-337 52.5,-334 55.5,-334 55.5,-334 97.5,-334 97.5,-334 100.5,-334 103.5,-337 103.5,-340 103.5,-340 103.5,-346 103.5,-346 103.5,-349 100.5,-352 97.5,-352"/>
<text text-anchor="start" x="58" y="-340.8" font-family="Helvetica,sans-Serif" font-size="9.00">index.ts</text>
</a>
</g>
</g>
<!-- packages/music&#45;structure/chord/chord&#45;analyze/src/chord&#45;analyze/time&#45;and&#45;roman&#45;analysis.ts -->
<g id="node4" class="node">
<title>packages/music&#45;structure/chord/chord&#45;analyze/src/chord&#45;analyze/time&#45;and&#45;roman&#45;analysis.ts</title>
<g id="a_node4"><a xlink:href="packages/music-structure/chord/chord-analyze/src/chord-analyze/time-and-roman-analysis.ts" xlink:title="time&#45;and&#45;roman&#45;analysis.ts">
<path fill="#ddfeff" stroke="black" d="M323,-330C323,-330 196,-330 196,-330 193,-330 190,-327 190,-324 190,-324 190,-318 190,-318 190,-315 193,-312 196,-312 196,-312 323,-312 323,-312 326,-312 329,-315 329,-318 329,-318 329,-324 329,-324 329,-327 326,-330 323,-330"/>
<text text-anchor="start" x="198" y="-318.8" font-family="Helvetica,sans-Serif" font-size="9.00">time&#45;and&#45;roman&#45;analysis.ts</text>
</a>
</g>
</g>
<!-- packages/music&#45;structure/beat/beat&#45;estimation/index.ts&#45;&gt;packages/music&#45;structure/chord/chord&#45;analyze/src/chord&#45;analyze/time&#45;and&#45;roman&#45;analysis.ts -->
<g id="edge1" class="edge">
<title>packages/music&#45;structure/beat/beat&#45;estimation/index.ts&#45;&gt;packages/music&#45;structure/chord/chord&#45;analyze/src/chord&#45;analyze/time&#45;and&#45;roman&#45;analysis.ts</title>
<path fill="none" stroke="#000000" stroke-width="2" stroke-opacity="0.200000" d="M103.82,-339.8C124.87,-337.24 155.47,-333.52 183.91,-330.07"/>
<polygon fill="#000000" fill-opacity="0.200000" stroke="#000000" stroke-width="2" stroke-opacity="0.200000" points="184.24,-332.14 189.94,-329.33 183.73,-327.97 184.24,-332.14"/>
</g>
<!-- packages/util/math/src/array/range.ts -->
<g id="node5" class="node">
<title>packages/util/math/src/array/range.ts</title>
<g id="a_node5"><a xlink:href="packages/util/math/src/array/range.ts" xlink:title="range.ts">
<path fill="#ddfeff" stroke="black" d="M466.5,-612C466.5,-612 424.5,-612 424.5,-612 421.5,-612 418.5,-609 418.5,-606 418.5,-606 418.5,-600 418.5,-600 418.5,-597 421.5,-594 424.5,-594 424.5,-594 466.5,-594 466.5,-594 469.5,-594 472.5,-597 472.5,-600 472.5,-600 472.5,-606 472.5,-606 472.5,-609 469.5,-612 466.5,-612"/>
<text text-anchor="start" x="426.5" y="-600.8" font-family="Helvetica,sans-Serif" font-size="9.00">range.ts</text>
</a>
</g>
</g>
<!-- packages/music&#45;structure/beat/beat&#45;estimation/index.ts&#45;&gt;packages/util/math/src/array/range.ts -->
<g id="edge2" class="edge">
<title>packages/music&#45;structure/beat/beat&#45;estimation/index.ts&#45;&gt;packages/util/math/src/array/range.ts</title>
<path fill="none" stroke="#000000" stroke-width="2" stroke-opacity="0.200000" d="M89.63,-352.25C145.45,-391.58 363.09,-544.93 427.47,-590.29"/>
<polygon fill="#000000" fill-opacity="0.200000" stroke="#000000" stroke-width="2" stroke-opacity="0.200000" points="426.41,-592.12 432.52,-593.86 428.83,-588.68 426.41,-592.12"/>
</g>
<!-- packages/util/math/src/array/zeros.ts -->
<g id="node6" class="node">
<title>packages/util/math/src/array/zeros.ts</title>
<g id="a_node6"><a xlink:href="packages/util/math/src/array/zeros.ts" xlink:title="zeros.ts">
<path fill="#ddfeff" stroke="black" d="M466.5,-642C466.5,-642 424.5,-642 424.5,-642 421.5,-642 418.5,-639 418.5,-636 418.5,-636 418.5,-630 418.5,-630 418.5,-627 421.5,-624 424.5,-624 424.5,-624 466.5,-624 466.5,-624 469.5,-624 472.5,-627 472.5,-630 472.5,-630 472.5,-636 472.5,-636 472.5,-639 469.5,-642 466.5,-642"/>
<text text-anchor="start" x="428" y="-630.8" font-family="Helvetica,sans-Serif" font-size="9.00">zeros.ts</text>
</a>
</g>
</g>
<!-- packages/music&#45;structure/beat/beat&#45;estimation/index.ts&#45;&gt;packages/util/math/src/array/zeros.ts -->
<g id="edge3" class="edge">
<title>packages/music&#45;structure/beat/beat&#45;estimation/index.ts&#45;&gt;packages/util/math/src/array/zeros.ts</title>
<path fill="none" stroke="#000000" stroke-width="2" stroke-opacity="0.200000" d="M88.36,-352.32C142.47,-394.85 366.02,-570.54 428.95,-619.99"/>
<polygon fill="#000000" fill-opacity="0.200000" stroke="#000000" stroke-width="2" stroke-opacity="0.200000" points="427.85,-621.8 433.87,-623.86 430.45,-618.5 427.85,-621.8"/>
</g>
<!-- packages/util/math/src/basic&#45;function/decimal.ts -->
<g id="node7" class="node">
<title>packages/util/math/src/basic&#45;function/decimal.ts</title>
<g id="a_node7"><a xlink:href="packages/util/math/src/basic-function/decimal.ts" xlink:title="decimal.ts">
<path fill="#ddfeff" stroke="black" d="M471,-702C471,-702 420,-702 420,-702 417,-702 414,-699 414,-696 414,-696 414,-690 414,-690 414,-687 417,-684 420,-684 420,-684 471,-684 471,-684 474,-684 477,-687 477,-690 477,-690 477,-696 477,-696 477,-699 474,-702 471,-702"/>
<text text-anchor="start" x="422" y="-690.8" font-family="Helvetica,sans-Serif" font-size="9.00">decimal.ts</text>
</a>
</g>
</g>
<!-- packages/music&#45;structure/beat/beat&#45;estimation/index.ts&#45;&gt;packages/util/math/src/basic&#45;function/decimal.ts -->
<g id="edge4" class="edge">
<title>packages/music&#45;structure/beat/beat&#45;estimation/index.ts&#45;&gt;packages/util/math/src/basic&#45;function/decimal.ts</title>
<path fill="none" stroke="#000000" stroke-width="2" stroke-opacity="0.200000" d="M85.99,-352C136.14,-399.56 370.18,-621.56 431.02,-679.26"/>
<polygon fill="#000000" fill-opacity="0.200000" stroke="#000000" stroke-width="2" stroke-opacity="0.200000" points="429.93,-681.13 435.73,-683.73 432.82,-678.08 429.93,-681.13"/>
</g>
<!-- packages/util/math/src/basic&#45;function/mod.ts -->
<g id="node8" class="node">
<title>packages/util/math/src/basic&#45;function/mod.ts</title>
<g id="a_node8"><a xlink:href="packages/util/math/src/basic-function/mod.ts" xlink:title="mod.ts">
<path fill="#ddfeff" stroke="black" d="M466.5,-732C466.5,-732 424.5,-732 424.5,-732 421.5,-732 418.5,-729 418.5,-726 418.5,-726 418.5,-720 418.5,-720 418.5,-717 421.5,-714 424.5,-714 424.5,-714 466.5,-714 466.5,-714 469.5,-714 472.5,-717 472.5,-720 472.5,-720 472.5,-726 472.5,-726 472.5,-729 469.5,-732 466.5,-732"/>
<text text-anchor="start" x="429.5" y="-720.8" font-family="Helvetica,sans-Serif" font-size="9.00">mod.ts</text>
</a>
</g>
</g>
<!-- packages/music&#45;structure/beat/beat&#45;estimation/index.ts&#45;&gt;packages/util/math/src/basic&#45;function/mod.ts -->
<g id="edge5" class="edge">
<title>packages/music&#45;structure/beat/beat&#45;estimation/index.ts&#45;&gt;packages/util/math/src/basic&#45;function/mod.ts</title>
<path fill="none" stroke="#000000" stroke-width="2" stroke-opacity="0.200000" d="M85.26,-352.02C134.19,-402.41 373.63,-648.99 432.44,-709.55"/>
<polygon fill="#000000" fill-opacity="0.200000" stroke="#000000" stroke-width="2" stroke-opacity="0.200000" points="430.97,-711.06 436.66,-713.9 433.99,-708.13 430.97,-711.06"/>
</g>
<!-- packages/util/math/src/fft/index.ts -->
<g id="node9" class="node">
<title>packages/util/math/src/fft/index.ts</title>
<g id="a_node9"><a xlink:href="packages/util/math/src/fft/index.ts" xlink:title="index.ts">
<path fill="#ddfeff" stroke="black" d="M466.5,-799C466.5,-799 424.5,-799 424.5,-799 421.5,-799 418.5,-796 418.5,-793 418.5,-793 418.5,-787 418.5,-787 418.5,-784 421.5,-781 424.5,-781 424.5,-781 466.5,-781 466.5,-781 469.5,-781 472.5,-784 472.5,-787 472.5,-787 472.5,-793 472.5,-793 472.5,-796 469.5,-799 466.5,-799"/>
<text text-anchor="start" x="427" y="-787.8" font-family="Helvetica,sans-Serif" font-size="9.00">index.ts</text>
</a>
</g>
</g>
<!-- packages/music&#45;structure/beat/beat&#45;estimation/index.ts&#45;&gt;packages/util/math/src/fft/index.ts -->
<g id="edge6" class="edge">
<title>packages/music&#45;structure/beat/beat&#45;estimation/index.ts&#45;&gt;packages/util/math/src/fft/index.ts</title>
<path fill="none" stroke="#000000" stroke-width="2" stroke-opacity="0.200000" d="M84.21,-352.34C131.01,-409.03 376.99,-707 433.79,-775.81"/>
<polygon fill="#000000" fill-opacity="0.200000" stroke="#000000" stroke-width="2" stroke-opacity="0.200000" points="432.4,-777.42 437.84,-780.72 435.64,-774.75 432.4,-777.42"/>
</g>
<!-- packages/util/math/src/fft/complex.ts -->
<g id="node10" class="node">
<title>packages/util/math/src/fft/complex.ts</title>
<g id="a_node10"><a xlink:href="packages/util/math/src/fft/complex.ts" xlink:title="complex.ts">
<path fill="#ddfeff" stroke="black" d="M859,-809C859,-809 805,-809 805,-809 802,-809 799,-806 799,-803 799,-803 799,-797 799,-797 799,-794 802,-791 805,-791 805,-791 859,-791 859,-791 862,-791 865,-794 865,-797 865,-797 865,-803 865,-803 865,-806 862,-809 859,-809"/>
<text text-anchor="start" x="807" y="-797.8" font-family="Helvetica,sans-Serif" font-size="9.00">complex.ts</text>
</a>
</g>
</g>
<!-- packages/music&#45;structure/beat/beat&#45;estimation/index.ts&#45;&gt;packages/util/math/src/fft/complex.ts -->
<g id="edge7" class="edge">
<title>packages/music&#45;structure/beat/beat&#45;estimation/index.ts&#45;&gt;packages/util/math/src/fft/complex.ts</title>
<path fill="none" stroke="#000000" stroke-width="2" stroke-opacity="0.200000" d="M91.59,-352.13C186.69,-409.65 702.52,-721.68 811.7,-787.72"/>
<polygon fill="#000000" fill-opacity="0.200000" stroke="#000000" stroke-width="2" stroke-opacity="0.200000" points="810.65,-789.54 816.87,-790.85 812.83,-785.95 810.65,-789.54"/>
</g>
<!-- packages/util/math/src/reduction/arg&#45;max.ts -->
<g id="node11" class="node">
<title>packages/util/math/src/reduction/arg&#45;max.ts</title>
<g id="a_node11"><a xlink:href="packages/util/math/src/reduction/arg-max.ts" xlink:title="arg&#45;max.ts">
<path fill="#ddfeff" stroke="black" d="M472,-880C472,-880 419,-880 419,-880 416,-880 413,-877 413,-874 413,-874 413,-868 413,-868 413,-865 416,-862 419,-862 419,-862 472,-862 472,-862 475,-862 478,-865 478,-868 478,-868 478,-874 478,-874 478,-877 475,-880 472,-880"/>
<text text-anchor="start" x="421" y="-868.8" font-family="Helvetica,sans-Serif" font-size="9.00">arg&#45;max.ts</text>
</a>
</g>
</g>
<!-- packages/music&#45;structure/beat/beat&#45;estimation/index.ts&#45;&gt;packages/util/math/src/reduction/arg&#45;max.ts -->
<g id="edge8" class="edge">
<title>packages/music&#45;structure/beat/beat&#45;estimation/index.ts&#45;&gt;packages/util/math/src/reduction/arg&#45;max.ts</title>
<path fill="none" stroke="#000000" stroke-width="2" stroke-opacity="0.200000" d="M82.9,-352.16C126.74,-414.88 382.3,-780.57 435.72,-857"/>
<polygon fill="#000000" fill-opacity="0.200000" stroke="#000000" stroke-width="2" stroke-opacity="0.200000" points="434.05,-858.28 439.21,-862 437.49,-855.87 434.05,-858.28"/>
</g>
<!-- packages/util/math/src/reduction/sum.ts -->
<g id="node12" class="node">
<title>packages/util/math/src/reduction/sum.ts</title>
<g id="a_node12"><a xlink:href="packages/util/math/src/reduction/sum.ts" xlink:title="sum.ts">
<path fill="#ddfeff" stroke="black" d="M466.5,-910C466.5,-910 424.5,-910 424.5,-910 421.5,-910 418.5,-907 418.5,-904 418.5,-904 418.5,-898 418.5,-898 418.5,-895 421.5,-892 424.5,-892 424.5,-892 466.5,-892 466.5,-892 469.5,-892 472.5,-895 472.5,-898 472.5,-898 472.5,-904 472.5,-904 472.5,-907 469.5,-910 466.5,-910"/>
<text text-anchor="start" x="430" y="-898.8" font-family="Helvetica,sans-Serif" font-size="9.00">sum.ts</text>
</a>
</g>
</g>
<!-- packages/music&#45;structure/beat/beat&#45;estimation/index.ts&#45;&gt;packages/util/math/src/reduction/sum.ts -->
<g id="edge9" class="edge">
<title>packages/music&#45;structure/beat/beat&#45;estimation/index.ts&#45;&gt;packages/util/math/src/reduction/sum.ts</title>
<path fill="none" stroke="#000000" stroke-width="2" stroke-opacity="0.200000" d="M82.6,-352.22C125.61,-417.26 383.14,-806.7 436.02,-886.66"/>
<polygon fill="#000000" fill-opacity="0.200000" stroke="#000000" stroke-width="2" stroke-opacity="0.200000" points="434.4,-888.03 439.46,-891.87 437.91,-885.71 434.4,-888.03"/>
</g>
<!-- packages/music&#45;structure/melody/melody&#45;analyze/src/time&#45;and&#45;analyzed&#45;melody.ts -->
<g id="node13" class="node">
<title>packages/music&#45;structure/melody/melody&#45;analyze/src/time&#45;and&#45;analyzed&#45;melody.ts</title>
<g id="a_node13"><a xlink:href="packages/music-structure/melody/melody-analyze/src/time-and-analyzed-melody.ts" xlink:title="time&#45;and&#45;analyzed&#45;melody.ts">
<path fill="#ddfeff" stroke="black" d="M326.5,-194C326.5,-194 192.5,-194 192.5,-194 189.5,-194 186.5,-191 186.5,-188 186.5,-188 186.5,-182 186.5,-182 186.5,-179 189.5,-176 192.5,-176 192.5,-176 326.5,-176 326.5,-176 329.5,-176 332.5,-179 332.5,-182 332.5,-182 332.5,-188 332.5,-188 332.5,-191 329.5,-194 326.5,-194"/>
<text text-anchor="start" x="194.5" y="-182.8" font-family="Helvetica,sans-Serif" font-size="9.00">time&#45;and&#45;analyzed&#45;melody.ts</text>
</a>
</g>
</g>
<!-- packages/music&#45;structure/beat/beat&#45;estimation/index.ts&#45;&gt;packages/music&#45;structure/melody/melody&#45;analyze/src/time&#45;and&#45;analyzed&#45;melody.ts -->
<g id="edge10" class="edge">
<title>packages/music&#45;structure/beat/beat&#45;estimation/index.ts&#45;&gt;packages/music&#45;structure/melody/melody&#45;analyze/src/time&#45;and&#45;analyzed&#45;melody.ts</title>
<path fill="none" stroke="#000000" stroke-width="2" stroke-opacity="0.200000" d="M88.01,-333.82C118.5,-307.21 207.08,-229.89 243.05,-198.49"/>
<polygon fill="#000000" fill-opacity="0.200000" stroke="#000000" stroke-width="2" stroke-opacity="0.200000" points="244.82,-199.73 247.96,-194.2 242.06,-196.57 244.82,-199.73"/>
</g>
<!-- packages/util/time&#45;and/dist/index.js -->
<g id="node14" class="node">
<title>packages/util/time&#45;and/dist/index.js</title>
<g id="a_node14"><a xlink:href="packages/util/time-and/dist/index.js" xlink:title="index.js">
<polygon fill="#ffffcc" stroke="black" points="472.5,-510 471,-512 460.5,-512 459,-510 418.5,-510 418.5,-492 472.5,-492 472.5,-510"/>
<text text-anchor="start" x="428" y="-498.8" font-family="Helvetica,sans-Serif" font-size="9.00">index.js</text>
</a>
</g>
</g>
<!-- packages/music&#45;structure/chord/chord&#45;analyze/src/chord&#45;analyze/time&#45;and&#45;roman&#45;analysis.ts&#45;&gt;packages/util/time&#45;and/dist/index.js -->
<g id="edge11" class="edge">
<title>packages/music&#45;structure/chord/chord&#45;analyze/src/chord&#45;analyze/time&#45;and&#45;roman&#45;analysis.ts&#45;&gt;packages/util/time&#45;and/dist/index.js</title>
<path fill="none" stroke="#000000" stroke-width="2" stroke-opacity="0.200000" d="M269.88,-330.17C300.01,-359.66 394.52,-452.1 430.45,-487.25"/>
<polygon fill="#000000" fill-opacity="0.200000" stroke="#000000" stroke-width="2" stroke-opacity="0.200000" points="429.16,-488.93 434.92,-491.63 432.1,-485.93 429.16,-488.93"/>
</g>
<!-- packages/util/math/src/fft/index.ts&#45;&gt;packages/util/math/src/fft/complex.ts -->
<g id="edge18" class="edge">
<title>packages/util/math/src/fft/index.ts&#45;&gt;packages/util/math/src/fft/complex.ts</title>
<path fill="none" stroke="#000000" stroke-width="2" stroke-opacity="0.200000" d="M472.68,-790.7C539.86,-792.44 713.99,-796.95 792.54,-798.98"/>
<polygon fill="#000000" fill-opacity="0.200000" stroke="#000000" stroke-width="2" stroke-opacity="0.200000" points="792.88,-801.09 798.94,-799.14 792.99,-796.89 792.88,-801.09"/>
</g>
<!-- packages/util/math/src/fft/ftt&#45;core.ts -->
<g id="node17" class="node">
<title>packages/util/math/src/fft/ftt&#45;core.ts</title>
<g id="a_node17"><a xlink:href="packages/util/math/src/fft/ftt-core.ts" xlink:title="ftt&#45;core.ts">
<path fill="#ddfeff" stroke="black" d="M636.5,-806C636.5,-806 587.5,-806 587.5,-806 584.5,-806 581.5,-803 581.5,-800 581.5,-800 581.5,-794 581.5,-794 581.5,-791 584.5,-788 587.5,-788 587.5,-788 636.5,-788 636.5,-788 639.5,-788 642.5,-791 642.5,-794 642.5,-794 642.5,-800 642.5,-800 642.5,-803 639.5,-806 636.5,-806"/>
<text text-anchor="start" x="589.5" y="-794.8" font-family="Helvetica,sans-Serif" font-size="9.00">ftt&#45;core.ts</text>
</a>
</g>
</g>
<!-- packages/util/math/src/fft/index.ts&#45;&gt;packages/util/math/src/fft/ftt&#45;core.ts -->
<g id="edge19" class="edge">
<title>packages/util/math/src/fft/index.ts&#45;&gt;packages/util/math/src/fft/ftt&#45;core.ts</title>
<path fill="none" stroke="#000000" stroke-width="2" stroke-opacity="0.200000" d="M472.57,-791.11C500.34,-792.29 544.48,-794.17 575.44,-795.49"/>
<polygon fill="#000000" fill-opacity="0.200000" stroke="#000000" stroke-width="2" stroke-opacity="0.200000" points="575.36,-797.59 581.44,-795.74 575.54,-793.39 575.36,-797.59"/>
</g>
<!-- packages/util/math/src/fft/root&#45;of&#45;unity.ts -->
<g id="node18" class="node">
<title>packages/util/math/src/fft/root&#45;of&#45;unity.ts</title>
<g id="a_node18"><a xlink:href="packages/util/math/src/fft/root-of-unity.ts" xlink:title="root&#45;of&#45;unity.ts">
<path fill="#ddfeff" stroke="black" d="M780,-820C780,-820 709,-820 709,-820 706,-820 703,-817 703,-814 703,-814 703,-808 703,-808 703,-805 706,-802 709,-802 709,-802 780,-802 780,-802 783,-802 786,-805 786,-808 786,-808 786,-814 786,-814 786,-817 783,-820 780,-820"/>
<text text-anchor="start" x="711" y="-808.8" font-family="Helvetica,sans-Serif" font-size="9.00">root&#45;of&#45;unity.ts</text>
</a>
</g>
</g>
<!-- packages/util/math/src/fft/index.ts&#45;&gt;packages/util/math/src/fft/root&#45;of&#45;unity.ts -->
<g id="edge20" class="edge">
<title>packages/util/math/src/fft/index.ts&#45;&gt;packages/util/math/src/fft/root&#45;of&#45;unity.ts</title>
<path fill="none" stroke="#000000" stroke-width="2" stroke-opacity="0.200000" d="M472.56,-791.9C523.32,-795.47 633.41,-803.2 696.85,-807.65"/>
<polygon fill="#000000" fill-opacity="0.200000" stroke="#000000" stroke-width="2" stroke-opacity="0.200000" points="696.71,-809.75 702.84,-808.07 697,-805.56 696.71,-809.75"/>
</g>
<!-- packages/music&#45;structure/melody/melody&#45;analyze/src/time&#45;and&#45;analyzed&#45;melody.ts&#45;&gt;packages/util/time&#45;and/dist/index.js -->
<g id="edge15" class="edge">
<title>packages/music&#45;structure/melody/melody&#45;analyze/src/time&#45;and&#45;analyzed&#45;melody.ts&#45;&gt;packages/util/time&#45;and/dist/index.js</title>
<path fill="none" stroke="#000000" stroke-width="2" stroke-opacity="0.200000" d="M265.81,-194.12C291.62,-238.44 404.06,-431.55 436.01,-486.41"/>
<polygon fill="#000000" fill-opacity="0.200000" stroke="#000000" stroke-width="2" stroke-opacity="0.200000" points="434.34,-487.72 439.17,-491.85 437.97,-485.6 434.34,-487.72"/>
</g>
<!-- packages/music&#45;structure/melody/melody&#45;analyze/src/melody&#45;analysis.ts -->
<g id="node16" class="node">
<title>packages/music&#45;structure/melody/melody&#45;analyze/src/melody&#45;analysis.ts</title>
<g id="a_node16"><a xlink:href="packages/music-structure/melody/melody-analyze/src/melody-analysis.ts" xlink:title="melody&#45;analysis.ts">
<path fill="#ddfeff" stroke="black" d="M489,-194C489,-194 402,-194 402,-194 399,-194 396,-191 396,-188 396,-188 396,-182 396,-182 396,-179 399,-176 402,-176 402,-176 489,-176 489,-176 492,-176 495,-179 495,-182 495,-182 495,-188 495,-188 495,-191 492,-194 489,-194"/>
<text text-anchor="start" x="404" y="-182.8" font-family="Helvetica,sans-Serif" font-size="9.00">melody&#45;analysis.ts</text>
</a>
</g>
</g>
<!-- packages/music&#45;structure/melody/melody&#45;analyze/src/time&#45;and&#45;analyzed&#45;melody.ts&#45;&gt;packages/music&#45;structure/melody/melody&#45;analyze/src/melody&#45;analysis.ts -->
<g id="edge14" class="edge">
<title>packages/music&#45;structure/melody/melody&#45;analyze/src/time&#45;and&#45;analyzed&#45;melody.ts&#45;&gt;packages/music&#45;structure/melody/melody&#45;analyze/src/melody&#45;analysis.ts</title>
<path fill="none" stroke="#000000" stroke-width="2" stroke-opacity="0.200000" d="M332.69,-185C351.52,-185 371.52,-185 389.31,-185"/>
<polygon fill="#000000" fill-opacity="0.200000" stroke="#000000" stroke-width="2" stroke-opacity="0.200000" points="389.76,-187.1 395.76,-185 389.76,-182.9 389.76,-187.1"/>
</g>
<!-- packages/music&#45;structure/melody/melody&#45;analyze/src/gravity.ts -->
<g id="node15" class="node">
<title>packages/music&#45;structure/melody/melody&#45;analyze/src/gravity.ts</title>
<g id="a_node15"><a xlink:href="packages/music-structure/melody/melody-analyze/src/gravity.ts" xlink:title="gravity.ts">
<path fill="#ddfeff" stroke="black" d="M635,-194C635,-194 589,-194 589,-194 586,-194 583,-191 583,-188 583,-188 583,-182 583,-182 583,-179 586,-176 589,-176 589,-176 635,-176 635,-176 638,-176 641,-179 641,-182 641,-182 641,-188 641,-188 641,-191 638,-194 635,-194"/>
<text text-anchor="start" x="591" y="-182.8" font-family="Helvetica,sans-Serif" font-size="9.00">gravity.ts</text>
</a>
</g>
</g>
<!-- packages/music&#45;structure/melody/melody&#45;analyze/src/melody&#45;analysis.ts&#45;&gt;packages/cognitive&#45;theory&#45;of&#45;music/irm/dist/index.js -->
<g id="edge13" class="edge">
<title>packages/music&#45;structure/melody/melody&#45;analyze/src/melody&#45;analysis.ts&#45;&gt;packages/cognitive&#45;theory&#45;of&#45;music/irm/dist/index.js</title>
<path fill="none" stroke="#000000" stroke-width="2" stroke-opacity="0.200000" d="M457.55,-175.87C485.99,-152.35 561.84,-89.64 595.05,-62.19"/>
<polygon fill="#000000" fill-opacity="0.200000" stroke="#000000" stroke-width="2" stroke-opacity="0.200000" points="596.71,-63.54 600,-58.09 594.04,-60.3 596.71,-63.54"/>
</g>
<!-- packages/music&#45;structure/melody/melody&#45;analyze/src/melody&#45;analysis.ts&#45;&gt;packages/music&#45;structure/melody/melody&#45;analyze/src/gravity.ts -->
<g id="edge12" class="edge">
<title>packages/music&#45;structure/melody/melody&#45;analyze/src/melody&#45;analysis.ts&#45;&gt;packages/music&#45;structure/melody/melody&#45;analyze/src/gravity.ts</title>
<path fill="none" stroke="#000000" stroke-width="2" stroke-opacity="0.200000" d="M495.41,-185C521.49,-185 552.96,-185 576.47,-185"/>
<polygon fill="#000000" fill-opacity="0.200000" stroke="#000000" stroke-width="2" stroke-opacity="0.200000" points="576.57,-187.1 582.57,-185 576.57,-182.9 576.57,-187.1"/>
</g>
<!-- packages/util/math/src/fft/ftt&#45;core.ts&#45;&gt;packages/util/math/src/fft/complex.ts -->
<g id="edge16" class="edge">
<title>packages/util/math/src/fft/ftt&#45;core.ts&#45;&gt;packages/util/math/src/fft/complex.ts</title>
<path fill="none" stroke="#000000" stroke-width="2" stroke-opacity="0.200000" d="M642.59,-797.42C681.75,-797.95 749.66,-798.88 792.64,-799.46"/>
<polygon fill="#000000" fill-opacity="0.200000" stroke="#000000" stroke-width="2" stroke-opacity="0.200000" points="792.77,-801.57 798.8,-799.55 792.82,-797.37 792.77,-801.57"/>
</g>
<!-- packages/util/math/src/fft/ftt&#45;core.ts&#45;&gt;packages/util/math/src/fft/root&#45;of&#45;unity.ts -->
<g id="edge17" class="edge">
<title>packages/util/math/src/fft/ftt&#45;core.ts&#45;&gt;packages/util/math/src/fft/root&#45;of&#45;unity.ts</title>
<path fill="none" stroke="#000000" stroke-width="2" stroke-opacity="0.200000" d="M642.61,-800.18C658.56,-801.89 678.6,-804.04 696.61,-805.97"/>
<polygon fill="#000000" fill-opacity="0.200000" stroke="#000000" stroke-width="2" stroke-opacity="0.200000" points="696.44,-808.06 702.63,-806.62 696.89,-803.89 696.44,-808.06"/>
</g>
<!-- packages/util/math/src/fft/root&#45;of&#45;unity.ts&#45;&gt;packages/util/math/src/fft/complex.ts -->
<g id="edge21" class="edge">
<title>packages/util/math/src/fft/root&#45;of&#45;unity.ts&#45;&gt;packages/util/math/src/fft/complex.ts</title>
<path fill="none" stroke="#000000" stroke-width="2" stroke-opacity="0.200000" d="M786.25,-805.76C788.35,-805.49 790.47,-805.21 792.57,-804.94"/>
<polygon fill="#000000" fill-opacity="0.200000" stroke="#000000" stroke-width="2" stroke-opacity="0.200000" points="793.12,-806.99 798.81,-804.14 792.59,-802.82 793.12,-806.99"/>
</g>
</g>
</svg>
