<?xml version="1.0" encoding="UTF-8" standalone="no"?>
<!DOCTYPE svg PUBLIC "-//W3C//DTD SVG 1.1//EN"
 "http://www.w3.org/Graphics/SVG/1.1/DTD/svg11.dtd">
<!-- Generated by graphviz version 2.43.0 (0)
 -->
<!-- Title: dependency&#45;cruiser output Pages: 1 -->
<svg width="393pt" height="662pt"
 viewBox="0.00 0.00 393.00 662.00" xmlns="http://www.w3.org/2000/svg" xmlns:xlink="http://www.w3.org/1999/xlink">
<g id="graph0" class="graph" transform="scale(1 1) rotate(0) translate(4 658)">
<title>dependency&#45;cruiser output</title>
<polygon fill="white" stroke="transparent" points="-4,4 -4,-658 389,-658 389,4 -4,4"/>
<g id="clust1" class="cluster">
<title>cluster_packages</title>
<path fill="#ffffff" stroke="black" stroke-width="2" d="M20,-8C20,-8 365,-8 365,-8 371,-8 377,-14 377,-20 377,-20 377,-634 377,-634 377,-640 371,-646 365,-646 365,-646 20,-646 20,-646 14,-646 8,-640 8,-634 8,-634 8,-20 8,-20 8,-14 14,-8 20,-8"/>
<text text-anchor="middle" x="192.5" y="-634.8" font-family="Helvetica,sans-Serif" font-weight="bold" font-size="9.00">packages</text>
</g>
<g id="clust2" class="cluster">
<title>cluster_packages/music&#45;structure</title>
<path fill="#ffffff" stroke="black" stroke-width="2" d="M28,-16C28,-16 357,-16 357,-16 363,-16 369,-22 369,-28 369,-28 369,-480 369,-480 369,-486 363,-492 357,-492 357,-492 28,-492 28,-492 22,-492 16,-486 16,-480 16,-480 16,-28 16,-28 16,-22 22,-16 28,-16"/>
<text text-anchor="middle" x="192.5" y="-480.8" font-family="Helvetica,sans-Serif" font-weight="bold" font-size="9.00">music&#45;structure</text>
</g>
<g id="clust3" class="cluster">
<title>cluster_packages/music&#45;structure/beat</title>
<path fill="#ffffff" stroke="black" stroke-width="2" d="M36,-24C36,-24 349,-24 349,-24 355,-24 361,-30 361,-36 361,-36 361,-198 361,-198 361,-204 355,-210 349,-210 349,-210 36,-210 36,-210 30,-210 24,-204 24,-198 24,-198 24,-36 24,-36 24,-30 30,-24 36,-24"/>
<text text-anchor="middle" x="192.5" y="-198.8" font-family="Helvetica,sans-Serif" font-weight="bold" font-size="9.00">beat</text>
</g>
<g id="clust4" class="cluster">
<title>cluster_packages/music&#45;structure/beat/beat&#45;estimation</title>
<path fill="#ffffff" stroke="black" stroke-width="2" d="M44,-32C44,-32 341,-32 341,-32 347,-32 353,-38 353,-44 353,-44 353,-172 353,-172 353,-178 347,-184 341,-184 341,-184 44,-184 44,-184 38,-184 32,-178 32,-172 32,-172 32,-44 32,-44 32,-38 38,-32 44,-32"/>
<text text-anchor="middle" x="192.5" y="-172.8" font-family="Helvetica,sans-Serif" font-weight="bold" font-size="9.00">beat&#45;estimation</text>
</g>
<g id="clust5" class="cluster">
<title>cluster_packages/music&#45;structure/beat/beat&#45;estimation/src</title>
<path fill="#ffffff" stroke="black" stroke-width="2" d="M133,-46C133,-46 333,-46 333,-46 339,-46 345,-52 345,-58 345,-58 345,-146 345,-146 345,-152 339,-158 333,-158 333,-158 133,-158 133,-158 127,-158 121,-152 121,-146 121,-146 121,-58 121,-58 121,-52 127,-46 133,-46"/>
<text text-anchor="middle" x="233" y="-146.8" font-family="Helvetica,sans-Serif" font-weight="bold" font-size="9.00">src</text>
</g>
<g id="clust6" class="cluster">
<title>cluster_packages/music&#45;structure/beat/beat&#45;estimation/src/facade</title>
<path fill="#ffffff" stroke="black" stroke-width="2" d="M145,-80C145,-80 191,-80 191,-80 197,-80 203,-86 203,-92 203,-92 203,-120 203,-120 203,-126 197,-132 191,-132 191,-132 145,-132 145,-132 139,-132 133,-126 133,-120 133,-120 133,-92 133,-92 133,-86 139,-80 145,-80"/>
<text text-anchor="middle" x="168" y="-120.8" font-family="Helvetica,sans-Serif" font-weight="bold" font-size="9.00">facade</text>
</g>
<g id="clust7" class="cluster">
<title>cluster_packages/music&#45;structure/chord</title>
<path fill="#ffffff" stroke="black" stroke-width="2" d="M263,-218C263,-218 344,-218 344,-218 350,-218 356,-224 356,-230 356,-230 356,-326 356,-326 356,-332 350,-338 344,-338 344,-338 263,-338 263,-338 257,-338 251,-332 251,-326 251,-326 251,-230 251,-230 251,-224 257,-218 263,-218"/>
<text text-anchor="middle" x="303.5" y="-326.8" font-family="Helvetica,sans-Serif" font-weight="bold" font-size="9.00">chord</text>
</g>
<g id="clust8" class="cluster">
<title>cluster_packages/music&#45;structure/chord/chord&#45;analyze</title>
<path fill="#ffffff" stroke="black" stroke-width="2" d="M271,-226C271,-226 336,-226 336,-226 342,-226 348,-232 348,-238 348,-238 348,-300 348,-300 348,-306 342,-312 336,-312 336,-312 271,-312 271,-312 265,-312 259,-306 259,-300 259,-300 259,-238 259,-238 259,-232 265,-226 271,-226"/>
<text text-anchor="middle" x="303.5" y="-300.8" font-family="Helvetica,sans-Serif" font-weight="bold" font-size="9.00">chord&#45;analyze</text>
</g>
<g id="clust9" class="cluster">
<title>cluster_packages/music&#45;structure/chord/chord&#45;analyze/dist</title>
<path fill="#ffffff" stroke="black" stroke-width="2" d="M280,-234C280,-234 326,-234 326,-234 332,-234 338,-240 338,-246 338,-246 338,-274 338,-274 338,-280 332,-286 326,-286 326,-286 280,-286 280,-286 274,-286 268,-280 268,-274 268,-274 268,-246 268,-246 268,-240 274,-234 280,-234"/>
<text text-anchor="middle" x="303" y="-274.8" font-family="Helvetica,sans-Serif" font-weight="bold" font-size="9.00">dist</text>
</g>
<g id="clust10" class="cluster">
<title>cluster_packages/music&#45;structure/melody</title>
<path fill="#ffffff" stroke="black" stroke-width="2" d="M259,-346C259,-346 348,-346 348,-346 354,-346 360,-352 360,-358 360,-358 360,-454 360,-454 360,-460 354,-466 348,-466 348,-466 259,-466 259,-466 253,-466 247,-460 247,-454 247,-454 247,-358 247,-358 247,-352 253,-346 259,-346"/>
<text text-anchor="middle" x="303.5" y="-454.8" font-family="Helvetica,sans-Serif" font-weight="bold" font-size="9.00">melody</text>
</g>
<g id="clust11" class="cluster">
<title>cluster_packages/music&#45;structure/melody/melody&#45;analyze</title>
<path fill="#ffffff" stroke="black" stroke-width="2" d="M267,-354C267,-354 340,-354 340,-354 346,-354 352,-360 352,-366 352,-366 352,-428 352,-428 352,-434 346,-440 340,-440 340,-440 267,-440 267,-440 261,-440 255,-434 255,-428 255,-428 255,-366 255,-366 255,-360 261,-354 267,-354"/>
<text text-anchor="middle" x="303.5" y="-428.8" font-family="Helvetica,sans-Serif" font-weight="bold" font-size="9.00">melody&#45;analyze</text>
</g>
<g id="clust12" class="cluster">
<title>cluster_packages/music&#45;structure/melody/melody&#45;analyze/dist</title>
<path fill="#ffffff" stroke="black" stroke-width="2" d="M280,-362C280,-362 326,-362 326,-362 332,-362 338,-368 338,-374 338,-374 338,-402 338,-402 338,-408 332,-414 326,-414 326,-414 280,-414 280,-414 274,-414 268,-408 268,-402 268,-402 268,-374 268,-374 268,-368 274,-362 280,-362"/>
<text text-anchor="middle" x="303" y="-402.8" font-family="Helvetica,sans-Serif" font-weight="bold" font-size="9.00">dist</text>
</g>
<g id="clust13" class="cluster">
<title>cluster_packages/util</title>
<path fill="#ffffff" stroke="black" stroke-width="2" d="M264,-500C264,-500 342,-500 342,-500 348,-500 354,-506 354,-512 354,-512 354,-608 354,-608 354,-614 348,-620 342,-620 342,-620 264,-620 264,-620 258,-620 252,-614 252,-608 252,-608 252,-512 252,-512 252,-506 258,-500 264,-500"/>
<text text-anchor="middle" x="303" y="-608.8" font-family="Helvetica,sans-Serif" font-weight="bold" font-size="9.00">util</text>
</g>
<g id="clust14" class="cluster">
<title>cluster_packages/util/math</title>
<path fill="#ffffff" stroke="black" stroke-width="2" d="M272,-508C272,-508 334,-508 334,-508 340,-508 346,-514 346,-520 346,-520 346,-582 346,-582 346,-588 340,-594 334,-594 334,-594 272,-594 272,-594 266,-594 260,-588 260,-582 260,-582 260,-520 260,-520 260,-514 266,-508 272,-508"/>
<text text-anchor="middle" x="303" y="-582.8" font-family="Helvetica,sans-Serif" font-weight="bold" font-size="9.00">math</text>
</g>
<g id="clust15" class="cluster">
<title>cluster_packages/util/math/dist</title>
<path fill="#ffffff" stroke="black" stroke-width="2" d="M280,-516C280,-516 326,-516 326,-516 332,-516 338,-522 338,-528 338,-528 338,-556 338,-556 338,-562 332,-568 326,-568 326,-568 280,-568 280,-568 274,-568 268,-562 268,-556 268,-556 268,-528 268,-528 268,-522 274,-516 280,-516"/>
<text text-anchor="middle" x="303" y="-556.8" font-family="Helvetica,sans-Serif" font-weight="bold" font-size="9.00">dist</text>
</g>
<!-- packages/music&#45;structure/beat/beat&#45;estimation/index.test.ts -->
<g id="node1" class="node">
<title>packages/music&#45;structure/beat/beat&#45;estimation/index.test.ts</title>
<g id="a_node1"><a xlink:href="packages/music-structure/beat/beat-estimation/index.test.ts" xlink:title="no&#45;orphans">
<path fill="#ccffcc" stroke="orange" d="M107,-126C107,-126 46,-126 46,-126 43,-126 40,-123 40,-120 40,-120 40,-114 40,-114 40,-111 43,-108 46,-108 46,-108 107,-108 107,-108 110,-108 113,-111 113,-114 113,-114 113,-120 113,-120 113,-123 110,-126 107,-126"/>
<text text-anchor="start" x="48" y="-114.8" font-family="Helvetica,sans-Serif" font-size="9.00" fill="orange">index.test.ts</text>
</a>
</g>
</g>
<!-- packages/music&#45;structure/beat/beat&#45;estimation/index.ts -->
<g id="node2" class="node">
<title>packages/music&#45;structure/beat/beat&#45;estimation/index.ts</title>
<g id="a_node2"><a xlink:href="packages/music-structure/beat/beat-estimation/index.ts" xlink:title="index.ts">
<path fill="#ddfeff" stroke="black" d="M97.5,-65C97.5,-65 55.5,-65 55.5,-65 52.5,-65 49.5,-62 49.5,-59 49.5,-59 49.5,-53 49.5,-53 49.5,-50 52.5,-47 55.5,-47 55.5,-47 97.5,-47 97.5,-47 100.5,-47 103.5,-50 103.5,-53 103.5,-53 103.5,-59 103.5,-59 103.5,-62 100.5,-65 97.5,-65"/>
<text text-anchor="start" x="58" y="-53.8" font-family="Helvetica,sans-Serif" font-size="9.00">index.ts</text>
</a>
</g>
</g>
<!-- packages/music&#45;structure/beat/beat&#45;estimation/src/beat&#45;info.ts -->
<g id="node3" class="node">
<title>packages/music&#45;structure/beat/beat&#45;estimation/src/beat&#45;info.ts</title>
<g id="a_node3"><a xlink:href="packages/music-structure/beat/beat-estimation/src/beat-info.ts" xlink:title="beat&#45;info.ts">
<path fill="#ddfeff" stroke="black" d="M331,-72C331,-72 275,-72 275,-72 272,-72 269,-69 269,-66 269,-66 269,-60 269,-60 269,-57 272,-54 275,-54 275,-54 331,-54 331,-54 334,-54 337,-57 337,-60 337,-60 337,-66 337,-66 337,-69 334,-72 331,-72"/>
<text text-anchor="start" x="277" y="-60.8" font-family="Helvetica,sans-Serif" font-size="9.00">beat&#45;info.ts</text>
</a>
</g>
</g>
<!-- packages/music&#45;structure/beat/beat&#45;estimation/index.ts&#45;&gt;packages/music&#45;structure/beat/beat&#45;estimation/src/beat&#45;info.ts -->
<g id="edge1" class="edge">
<title>packages/music&#45;structure/beat/beat&#45;estimation/index.ts&#45;&gt;packages/music&#45;structure/beat/beat&#45;estimation/src/beat&#45;info.ts</title>
<path fill="none" stroke="#000000" stroke-width="2" stroke-opacity="0.200000" d="M103.81,-51.16C112.97,-49.48 121,-48 121,-48 121,-48 207,-48 207,-48 207,-48 236.46,-52.65 262.58,-56.78"/>
<polygon fill="#000000" fill-opacity="0.200000" stroke="#000000" stroke-width="2" stroke-opacity="0.200000" points="268.45,-59.83 262.85,-56.82 269.1,-55.68 268.45,-59.83"/>
</g>
<!-- packages/music&#45;structure/beat/beat&#45;estimation/src/calc&#45;tempo.ts -->
<g id="node4" class="node">
<title>packages/music&#45;structure/beat/beat&#45;estimation/src/calc&#45;tempo.ts</title>
<g id="a_node4"><a xlink:href="packages/music-structure/beat/beat-estimation/src/calc-tempo.ts" xlink:title="calc&#45;tempo.ts">
<path fill="#ddfeff" stroke="black" d="M201,-72C201,-72 135,-72 135,-72 132,-72 129,-69 129,-66 129,-66 129,-60 129,-60 129,-57 132,-54 135,-54 135,-54 201,-54 201,-54 204,-54 207,-57 207,-60 207,-60 207,-66 207,-66 207,-69 204,-72 201,-72"/>
<text text-anchor="start" x="137" y="-60.8" font-family="Helvetica,sans-Serif" font-size="9.00">calc&#45;tempo.ts</text>
</a>
</g>
</g>
<!-- packages/music&#45;structure/beat/beat&#45;estimation/index.ts&#45;&gt;packages/music&#45;structure/beat/beat&#45;estimation/src/calc&#45;tempo.ts -->
<g id="edge2" class="edge">
<title>packages/music&#45;structure/beat/beat&#45;estimation/index.ts&#45;&gt;packages/music&#45;structure/beat/beat&#45;estimation/src/calc&#45;tempo.ts</title>
<path fill="none" stroke="#000000" stroke-width="2" stroke-opacity="0.200000" d="M103.87,-58.06C109.75,-58.52 116.14,-59.02 122.52,-59.52"/>
<polygon fill="#000000" fill-opacity="0.200000" stroke="#000000" stroke-width="2" stroke-opacity="0.200000" points="128.72,-62.11 122.9,-59.55 129.05,-57.93 128.72,-62.11"/>
</g>
<!-- packages/music&#45;structure/beat/beat&#45;estimation/src/calc&#45;tempo.ts&#45;&gt;packages/music&#45;structure/beat/beat&#45;estimation/src/beat&#45;info.ts -->
<g id="edge3" class="edge">
<title>packages/music&#45;structure/beat/beat&#45;estimation/src/calc&#45;tempo.ts&#45;&gt;packages/music&#45;structure/beat/beat&#45;estimation/src/beat&#45;info.ts</title>
<path fill="none" stroke="#000000" stroke-width="2" stroke-opacity="0.200000" d="M207.11,-63C224.48,-63 245.02,-63 262.54,-63"/>
<polygon fill="#000000" fill-opacity="0.200000" stroke="#000000" stroke-width="2" stroke-opacity="0.200000" points="262.85,-65.1 268.85,-63 262.85,-60.9 262.85,-65.1"/>
</g>
<!-- packages/music&#45;structure/chord/chord&#45;analyze/dist/index.js -->
<g id="node5" class="node">
<title>packages/music&#45;structure/chord/chord&#45;analyze/dist/index.js</title>
<g id="a_node5"><a xlink:href="packages/music-structure/chord/chord-analyze/dist/index.js" xlink:title="index.js">
<polygon fill="#ffffcc" stroke="black" points="330,-260 328.5,-262 318,-262 316.5,-260 276,-260 276,-242 330,-242 330,-260"/>
<text text-anchor="start" x="285.5" y="-248.8" font-family="Helvetica,sans-Serif" font-size="9.00">index.js</text>
</a>
</g>
</g>
<!-- packages/music&#45;structure/beat/beat&#45;estimation/src/calc&#45;tempo.ts&#45;&gt;packages/music&#45;structure/chord/chord&#45;analyze/dist/index.js -->
<g id="edge4" class="edge">
<title>packages/music&#45;structure/beat/beat&#45;estimation/src/calc&#45;tempo.ts&#45;&gt;packages/music&#45;structure/chord/chord&#45;analyze/dist/index.js</title>
<path fill="none" stroke="#000000" stroke-width="2" stroke-opacity="0.200000" d="M193.71,-72.1C200.97,-74.78 207,-77 207,-77 207,-77 247,-161 247,-161 247,-161 277.48,-210.88 293.06,-236.37"/>
<polygon fill="#000000" fill-opacity="0.200000" stroke="#000000" stroke-width="2" stroke-opacity="0.200000" points="291.4,-237.68 296.32,-241.71 294.98,-235.49 291.4,-237.68"/>
</g>
<!-- packages/util/math/dist/index.js -->
<g id="node6" class="node">
<title>packages/util/math/dist/index.js</title>
<g id="a_node6"><a xlink:href="packages/util/math/dist/index.js" xlink:title="index.js">
<polygon fill="#ffffcc" stroke="black" points="330,-542 328.5,-544 318,-544 316.5,-542 276,-542 276,-524 330,-524 330,-542"/>
<text text-anchor="start" x="285.5" y="-530.8" font-family="Helvetica,sans-Serif" font-size="9.00">index.js</text>
</a>
</g>
</g>
<!-- packages/music&#45;structure/beat/beat&#45;estimation/src/calc&#45;tempo.ts&#45;&gt;packages/util/math/dist/index.js -->
<g id="edge5" class="edge">
<title>packages/music&#45;structure/beat/beat&#45;estimation/src/calc&#45;tempo.ts&#45;&gt;packages/util/math/dist/index.js</title>
<path fill="none" stroke="#000000" stroke-width="2" stroke-opacity="0.200000" d="M193.71,-72.1C200.97,-74.78 207,-77 207,-77 207,-77 247,-417 247,-417 247,-417 280.15,-486.92 294.98,-518.19"/>
<polygon fill="#000000" fill-opacity="0.200000" stroke="#000000" stroke-width="2" stroke-opacity="0.200000" points="293.22,-519.38 297.68,-523.9 297.01,-517.58 293.22,-519.38"/>
</g>
<!-- packages/music&#45;structure/melody/melody&#45;analyze/dist/index.js -->
<g id="node7" class="node">
<title>packages/music&#45;structure/melody/melody&#45;analyze/dist/index.js</title>
<g id="a_node7"><a xlink:href="packages/music-structure/melody/melody-analyze/dist/index.js" xlink:title="index.js">
<polygon fill="#ffffcc" stroke="black" points="330,-388 328.5,-390 318,-390 316.5,-388 276,-388 276,-370 330,-370 330,-388"/>
<text text-anchor="start" x="285.5" y="-376.8" font-family="Helvetica,sans-Serif" font-size="9.00">index.js</text>
</a>
</g>
</g>
<!-- packages/music&#45;structure/beat/beat&#45;estimation/src/calc&#45;tempo.ts&#45;&gt;packages/music&#45;structure/melody/melody&#45;analyze/dist/index.js -->
<g id="edge6" class="edge">
<title>packages/music&#45;structure/beat/beat&#45;estimation/src/calc&#45;tempo.ts&#45;&gt;packages/music&#45;structure/melody/melody&#45;analyze/dist/index.js</title>
<path fill="none" stroke="#000000" stroke-width="2" stroke-opacity="0.200000" d="M193.71,-72.1C200.97,-74.78 207,-77 207,-77 207,-77 247,-289 247,-289 247,-289 277.48,-338.88 293.06,-364.37"/>
<polygon fill="#000000" fill-opacity="0.200000" stroke="#000000" stroke-width="2" stroke-opacity="0.200000" points="291.4,-365.68 296.32,-369.71 294.98,-363.49 291.4,-365.68"/>
</g>
<!-- packages/music&#45;structure/beat/beat&#45;estimation/src/facade/index.ts -->
<g id="node8" class="node">
<title>packages/music&#45;structure/beat/beat&#45;estimation/src/facade/index.ts</title>
<g id="a_node8"><a xlink:href="packages/music-structure/beat/beat-estimation/src/facade/index.ts" xlink:title="index.ts">
<path fill="#ddfeff" stroke="black" d="M189,-106C189,-106 147,-106 147,-106 144,-106 141,-103 141,-100 141,-100 141,-94 141,-94 141,-91 144,-88 147,-88 147,-88 189,-88 189,-88 192,-88 195,-91 195,-94 195,-94 195,-100 195,-100 195,-103 192,-106 189,-106"/>
<text text-anchor="start" x="149.5" y="-94.8" font-family="Helvetica,sans-Serif" font-size="9.00">index.ts</text>
</a>
</g>
</g>
<!-- packages/music&#45;structure/beat/beat&#45;estimation/src/facade/index.ts&#45;&gt;packages/music&#45;structure/chord/chord&#45;analyze/dist/index.js -->
<g id="edge7" class="edge">
<title>packages/music&#45;structure/beat/beat&#45;estimation/src/facade/index.ts&#45;&gt;packages/music&#45;structure/chord/chord&#45;analyze/dist/index.js</title>
<path fill="none" stroke="#000000" stroke-width="2" stroke-opacity="0.200000" d="M176.92,-106.17C199.32,-132.11 263.23,-206.11 289.99,-237.09"/>
<polygon fill="#000000" fill-opacity="0.200000" stroke="#000000" stroke-width="2" stroke-opacity="0.200000" points="292.36,-243.05 290.03,-237.14 295.54,-240.31 292.36,-243.05"/>
</g>
<!-- packages/music&#45;structure/beat/beat&#45;estimation/src/facade/index.ts&#45;&gt;packages/util/math/dist/index.js -->
<g id="edge8" class="edge">
<title>packages/music&#45;structure/beat/beat&#45;estimation/src/facade/index.ts&#45;&gt;packages/util/math/dist/index.js</title>
<path fill="none" stroke="#000000" stroke-width="2" stroke-opacity="0.200000" d="M171.25,-106.23C184.04,-158.7 247,-417 247,-417 247,-417 280.15,-486.92 294.98,-518.19"/>
<polygon fill="#000000" fill-opacity="0.200000" stroke="#000000" stroke-width="2" stroke-opacity="0.200000" points="295.79,-524.8 295.11,-518.48 299.58,-523 295.79,-524.8"/>
</g>
<!-- packages/music&#45;structure/beat/beat&#45;estimation/src/facade/index.ts&#45;&gt;packages/music&#45;structure/melody/melody&#45;analyze/dist/index.js -->
<g id="edge9" class="edge">
<title>packages/music&#45;structure/beat/beat&#45;estimation/src/facade/index.ts&#45;&gt;packages/music&#45;structure/melody/melody&#45;analyze/dist/index.js</title>
<path fill="none" stroke="#000000" stroke-width="2" stroke-opacity="0.200000" d="M172.66,-106C188.08,-143.96 247,-289 247,-289 247,-289 277.48,-338.88 293.06,-364.37"/>
<polygon fill="#000000" fill-opacity="0.200000" stroke="#000000" stroke-width="2" stroke-opacity="0.200000" points="294.53,-370.8 293.19,-364.59 298.11,-368.61 294.53,-370.8"/>
</g>
</g>
</svg>
