<?xml version="1.0" encoding="UTF-8" standalone="no"?>
<!DOCTYPE svg PUBLIC "-//W3C//DTD SVG 1.1//EN"
 "http://www.w3.org/Graphics/SVG/1.1/DTD/svg11.dtd">
<!-- Generated by graphviz version 2.43.0 (0)
 -->
<!-- Title: dependency&#45;cruiser output Pages: 1 -->
<svg width="492pt" height="468pt"
 viewBox="0.00 0.00 492.00 468.00" xmlns="http://www.w3.org/2000/svg" xmlns:xlink="http://www.w3.org/1999/xlink">
<g id="graph0" class="graph" transform="scale(1 1) rotate(0) translate(4 464)">
<title>dependency&#45;cruiser output</title>
<polygon fill="white" stroke="transparent" points="-4,4 -4,-464 488,-464 488,4 -4,4"/>
<g id="clust1" class="cluster">
<title>cluster_packages</title>
<path fill="#ffffff" stroke="black" stroke-width="2" d="M20,-8C20,-8 470,-8 470,-8 476,-8 482,-14 482,-20 482,-20 482,-440 482,-440 482,-446 476,-452 470,-452 470,-452 20,-452 20,-452 14,-452 8,-446 8,-440 8,-440 8,-20 8,-20 8,-14 14,-8 20,-8"/>
<text text-anchor="middle" x="245" y="-440.8" font-family="Helvetica,sans-Serif" font-weight="bold" font-size="9.00">packages</text>
</g>
<g id="clust2" class="cluster">
<title>cluster_packages/music&#45;structure</title>
<path fill="#ffffff" stroke="black" stroke-width="2" d="M28,-16C28,-16 462,-16 462,-16 468,-16 474,-22 474,-28 474,-28 474,-286 474,-286 474,-292 468,-298 462,-298 462,-298 28,-298 28,-298 22,-298 16,-292 16,-286 16,-286 16,-28 16,-28 16,-22 22,-16 28,-16"/>
<text text-anchor="middle" x="245" y="-286.8" font-family="Helvetica,sans-Serif" font-weight="bold" font-size="9.00">music&#45;structure</text>
</g>
<g id="clust3" class="cluster">
<title>cluster_packages/music&#45;structure/beat</title>
<path fill="#ffffff" stroke="black" stroke-width="2" d="M36,-92C36,-92 301,-92 301,-92 307,-92 313,-98 313,-104 313,-104 313,-260 313,-260 313,-266 307,-272 301,-272 301,-272 36,-272 36,-272 30,-272 24,-266 24,-260 24,-260 24,-104 24,-104 24,-98 30,-92 36,-92"/>
<text text-anchor="middle" x="168.5" y="-260.8" font-family="Helvetica,sans-Serif" font-weight="bold" font-size="9.00">beat</text>
</g>
<g id="clust4" class="cluster">
<title>cluster_packages/music&#45;structure/beat/beat&#45;estimation</title>
<path fill="#ffffff" stroke="black" stroke-width="2" d="M44,-100C44,-100 293,-100 293,-100 299,-100 305,-106 305,-112 305,-112 305,-234 305,-234 305,-240 299,-246 293,-246 293,-246 44,-246 44,-246 38,-246 32,-240 32,-234 32,-234 32,-112 32,-112 32,-106 38,-100 44,-100"/>
<text text-anchor="middle" x="168.5" y="-234.8" font-family="Helvetica,sans-Serif" font-weight="bold" font-size="9.00">beat&#45;estimation</text>
</g>
<g id="clust5" class="cluster">
<title>cluster_packages/music&#45;structure/beat/beat&#45;estimation/src</title>
<path fill="#ffffff" stroke="black" stroke-width="2" d="M133,-108C133,-108 285,-108 285,-108 291,-108 297,-114 297,-120 297,-120 297,-208 297,-208 297,-214 291,-220 285,-220 285,-220 133,-220 133,-220 127,-220 121,-214 121,-208 121,-208 121,-120 121,-120 121,-114 127,-108 133,-108"/>
<text text-anchor="middle" x="209" y="-208.8" font-family="Helvetica,sans-Serif" font-weight="bold" font-size="9.00">src</text>
</g>
<g id="clust6" class="cluster">
<title>cluster_packages/music&#45;structure/beat/beat&#45;estimation/src/facade</title>
<path fill="#ffffff" stroke="black" stroke-width="2" d="M231,-142C231,-142 277,-142 277,-142 283,-142 289,-148 289,-154 289,-154 289,-182 289,-182 289,-188 283,-194 277,-194 277,-194 231,-194 231,-194 225,-194 219,-188 219,-182 219,-182 219,-154 219,-154 219,-148 225,-142 231,-142"/>
<text text-anchor="middle" x="254" y="-182.8" font-family="Helvetica,sans-Serif" font-weight="bold" font-size="9.00">facade</text>
</g>
<g id="clust7" class="cluster">
<title>cluster_packages/music&#45;structure/chord</title>
<path fill="#ffffff" stroke="black" stroke-width="2" d="M369,-24C369,-24 450,-24 450,-24 456,-24 462,-30 462,-36 462,-36 462,-132 462,-132 462,-138 456,-144 450,-144 450,-144 369,-144 369,-144 363,-144 357,-138 357,-132 357,-132 357,-36 357,-36 357,-30 363,-24 369,-24"/>
<text text-anchor="middle" x="409.5" y="-132.8" font-family="Helvetica,sans-Serif" font-weight="bold" font-size="9.00">chord</text>
</g>
<g id="clust8" class="cluster">
<title>cluster_packages/music&#45;structure/chord/chord&#45;analyze</title>
<path fill="#ffffff" stroke="black" stroke-width="2" d="M377,-32C377,-32 442,-32 442,-32 448,-32 454,-38 454,-44 454,-44 454,-106 454,-106 454,-112 448,-118 442,-118 442,-118 377,-118 377,-118 371,-118 365,-112 365,-106 365,-106 365,-44 365,-44 365,-38 371,-32 377,-32"/>
<text text-anchor="middle" x="409.5" y="-106.8" font-family="Helvetica,sans-Serif" font-weight="bold" font-size="9.00">chord&#45;analyze</text>
</g>
<g id="clust9" class="cluster">
<title>cluster_packages/music&#45;structure/chord/chord&#45;analyze/dist</title>
<path fill="#ffffff" stroke="black" stroke-width="2" d="M386,-40C386,-40 432,-40 432,-40 438,-40 444,-46 444,-52 444,-52 444,-80 444,-80 444,-86 438,-92 432,-92 432,-92 386,-92 386,-92 380,-92 374,-86 374,-80 374,-80 374,-52 374,-52 374,-46 380,-40 386,-40"/>
<text text-anchor="middle" x="409" y="-80.8" font-family="Helvetica,sans-Serif" font-weight="bold" font-size="9.00">dist</text>
</g>
<g id="clust10" class="cluster">
<title>cluster_packages/music&#45;structure/melody</title>
<path fill="#ffffff" stroke="black" stroke-width="2" d="M365,-152C365,-152 454,-152 454,-152 460,-152 466,-158 466,-164 466,-164 466,-260 466,-260 466,-266 460,-272 454,-272 454,-272 365,-272 365,-272 359,-272 353,-266 353,-260 353,-260 353,-164 353,-164 353,-158 359,-152 365,-152"/>
<text text-anchor="middle" x="409.5" y="-260.8" font-family="Helvetica,sans-Serif" font-weight="bold" font-size="9.00">melody</text>
</g>
<g id="clust11" class="cluster">
<title>cluster_packages/music&#45;structure/melody/melody&#45;analyze</title>
<path fill="#ffffff" stroke="black" stroke-width="2" d="M373,-160C373,-160 446,-160 446,-160 452,-160 458,-166 458,-172 458,-172 458,-234 458,-234 458,-240 452,-246 446,-246 446,-246 373,-246 373,-246 367,-246 361,-240 361,-234 361,-234 361,-172 361,-172 361,-166 367,-160 373,-160"/>
<text text-anchor="middle" x="409.5" y="-234.8" font-family="Helvetica,sans-Serif" font-weight="bold" font-size="9.00">melody&#45;analyze</text>
</g>
<g id="clust12" class="cluster">
<title>cluster_packages/music&#45;structure/melody/melody&#45;analyze/dist</title>
<path fill="#ffffff" stroke="black" stroke-width="2" d="M386,-168C386,-168 432,-168 432,-168 438,-168 444,-174 444,-180 444,-180 444,-208 444,-208 444,-214 438,-220 432,-220 432,-220 386,-220 386,-220 380,-220 374,-214 374,-208 374,-208 374,-180 374,-180 374,-174 380,-168 386,-168"/>
<text text-anchor="middle" x="409" y="-208.8" font-family="Helvetica,sans-Serif" font-weight="bold" font-size="9.00">dist</text>
</g>
<g id="clust13" class="cluster">
<title>cluster_packages/util</title>
<path fill="#ffffff" stroke="black" stroke-width="2" d="M370,-306C370,-306 448,-306 448,-306 454,-306 460,-312 460,-318 460,-318 460,-414 460,-414 460,-420 454,-426 448,-426 448,-426 370,-426 370,-426 364,-426 358,-420 358,-414 358,-414 358,-318 358,-318 358,-312 364,-306 370,-306"/>
<text text-anchor="middle" x="409" y="-414.8" font-family="Helvetica,sans-Serif" font-weight="bold" font-size="9.00">util</text>
</g>
<g id="clust14" class="cluster">
<title>cluster_packages/util/math</title>
<path fill="#ffffff" stroke="black" stroke-width="2" d="M378,-314C378,-314 440,-314 440,-314 446,-314 452,-320 452,-326 452,-326 452,-388 452,-388 452,-394 446,-400 440,-400 440,-400 378,-400 378,-400 372,-400 366,-394 366,-388 366,-388 366,-326 366,-326 366,-320 372,-314 378,-314"/>
<text text-anchor="middle" x="409" y="-388.8" font-family="Helvetica,sans-Serif" font-weight="bold" font-size="9.00">math</text>
</g>
<g id="clust15" class="cluster">
<title>cluster_packages/util/math/dist</title>
<path fill="#ffffff" stroke="black" stroke-width="2" d="M386,-322C386,-322 432,-322 432,-322 438,-322 444,-328 444,-334 444,-334 444,-362 444,-362 444,-368 438,-374 432,-374 432,-374 386,-374 386,-374 380,-374 374,-368 374,-362 374,-362 374,-334 374,-334 374,-328 380,-322 386,-322"/>
<text text-anchor="middle" x="409" y="-362.8" font-family="Helvetica,sans-Serif" font-weight="bold" font-size="9.00">dist</text>
</g>
<!-- packages/music&#45;structure/beat/beat&#45;estimation/index.test.ts -->
<g id="node1" class="node">
<title>packages/music&#45;structure/beat/beat&#45;estimation/index.test.ts</title>
<g id="a_node1"><a xlink:href="packages/music-structure/beat/beat-estimation/index.test.ts" xlink:title="no&#45;orphans">
<path fill="#ccffcc" stroke="orange" d="M107,-203C107,-203 46,-203 46,-203 43,-203 40,-200 40,-197 40,-197 40,-191 40,-191 40,-188 43,-185 46,-185 46,-185 107,-185 107,-185 110,-185 113,-188 113,-191 113,-191 113,-197 113,-197 113,-200 110,-203 107,-203"/>
<text text-anchor="start" x="48" y="-191.8" font-family="Helvetica,sans-Serif" font-size="9.00" fill="orange">index.test.ts</text>
</a>
</g>
</g>
<!-- packages/music&#45;structure/beat/beat&#45;estimation/index.ts -->
<g id="node2" class="node">
<title>packages/music&#45;structure/beat/beat&#45;estimation/index.ts</title>
<g id="a_node2"><a xlink:href="packages/music-structure/beat/beat-estimation/index.ts" xlink:title="index.ts">
<path fill="#ddfeff" stroke="black" d="M97.5,-145C97.5,-145 55.5,-145 55.5,-145 52.5,-145 49.5,-142 49.5,-139 49.5,-139 49.5,-133 49.5,-133 49.5,-130 52.5,-127 55.5,-127 55.5,-127 97.5,-127 97.5,-127 100.5,-127 103.5,-130 103.5,-133 103.5,-133 103.5,-139 103.5,-139 103.5,-142 100.5,-145 97.5,-145"/>
<text text-anchor="start" x="58" y="-133.8" font-family="Helvetica,sans-Serif" font-size="9.00">index.ts</text>
</a>
</g>
</g>
<!-- packages/music&#45;structure/beat/beat&#45;estimation/src/beat&#45;info.ts -->
<g id="node3" class="node">
<title>packages/music&#45;structure/beat/beat&#45;estimation/src/beat&#45;info.ts</title>
<g id="a_node3"><a xlink:href="packages/music-structure/beat/beat-estimation/src/beat-info.ts" xlink:title="beat&#45;info.ts">
<path fill="#ddfeff" stroke="black" d="M282,-134C282,-134 226,-134 226,-134 223,-134 220,-131 220,-128 220,-128 220,-122 220,-122 220,-119 223,-116 226,-116 226,-116 282,-116 282,-116 285,-116 288,-119 288,-122 288,-122 288,-128 288,-128 288,-131 285,-134 282,-134"/>
<text text-anchor="start" x="228" y="-122.8" font-family="Helvetica,sans-Serif" font-size="9.00">beat&#45;info.ts</text>
</a>
</g>
</g>
<!-- packages/music&#45;structure/beat/beat&#45;estimation/index.ts&#45;&gt;packages/music&#45;structure/beat/beat&#45;estimation/src/beat&#45;info.ts -->
<g id="edge1" class="edge">
<title>packages/music&#45;structure/beat/beat&#45;estimation/index.ts&#45;&gt;packages/music&#45;structure/beat/beat&#45;estimation/src/beat&#45;info.ts</title>
<path fill="none" stroke="#000000" stroke-width="2" stroke-opacity="0.200000" d="M103.81,-133.58C112.97,-132.74 121,-132 121,-132 121,-132 174.69,-129.15 213.59,-127.09"/>
<polygon fill="#000000" fill-opacity="0.200000" stroke="#000000" stroke-width="2" stroke-opacity="0.200000" points="219.8,-128.86 213.7,-127.08 219.58,-124.67 219.8,-128.86"/>
</g>
<!-- packages/music&#45;structure/beat/beat&#45;estimation/src/calc&#45;tempo.ts -->
<g id="node4" class="node">
<title>packages/music&#45;structure/beat/beat&#45;estimation/src/calc&#45;tempo.ts</title>
<g id="a_node4"><a xlink:href="packages/music-structure/beat/beat-estimation/src/calc-tempo.ts" xlink:title="calc&#45;tempo.ts">
<path fill="#ddfeff" stroke="black" d="M201,-156C201,-156 135,-156 135,-156 132,-156 129,-153 129,-150 129,-150 129,-144 129,-144 129,-141 132,-138 135,-138 135,-138 201,-138 201,-138 204,-138 207,-141 207,-144 207,-144 207,-150 207,-150 207,-153 204,-156 201,-156"/>
<text text-anchor="start" x="137" y="-144.8" font-family="Helvetica,sans-Serif" font-size="9.00">calc&#45;tempo.ts</text>
</a>
</g>
</g>
<!-- packages/music&#45;structure/beat/beat&#45;estimation/index.ts&#45;&gt;packages/music&#45;structure/beat/beat&#45;estimation/src/calc&#45;tempo.ts -->
<g id="edge2" class="edge">
<title>packages/music&#45;structure/beat/beat&#45;estimation/index.ts&#45;&gt;packages/music&#45;structure/beat/beat&#45;estimation/src/calc&#45;tempo.ts</title>
<path fill="none" stroke="#000000" stroke-width="2" stroke-opacity="0.200000" d="M103.87,-139.24C109.87,-139.98 116.4,-140.78 122.92,-141.58"/>
<polygon fill="#000000" fill-opacity="0.200000" stroke="#000000" stroke-width="2" stroke-opacity="0.200000" points="128.63,-144.4 122.93,-141.58 129.14,-140.23 128.63,-144.4"/>
</g>
<!-- packages/music&#45;structure/beat/beat&#45;estimation/src/calc&#45;tempo.ts&#45;&gt;packages/music&#45;structure/beat/beat&#45;estimation/src/beat&#45;info.ts -->
<g id="edge3" class="edge">
<title>packages/music&#45;structure/beat/beat&#45;estimation/src/calc&#45;tempo.ts&#45;&gt;packages/music&#45;structure/beat/beat&#45;estimation/src/beat&#45;info.ts</title>
<path fill="none" stroke="#000000" stroke-width="2" stroke-opacity="0.200000" d="M203.65,-137.92C206.98,-137.05 210.38,-136.16 213.75,-135.28"/>
<polygon fill="#000000" fill-opacity="0.200000" stroke="#000000" stroke-width="2" stroke-opacity="0.200000" points="214.51,-137.25 219.78,-133.7 213.44,-133.19 214.51,-137.25"/>
</g>
<!-- packages/music&#45;structure/beat/beat&#45;estimation/src/facade/index.ts -->
<g id="node5" class="node">
<title>packages/music&#45;structure/beat/beat&#45;estimation/src/facade/index.ts</title>
<g id="a_node5"><a xlink:href="packages/music-structure/beat/beat-estimation/src/facade/index.ts" xlink:title="index.ts">
<path fill="#ddfeff" stroke="black" d="M275,-168C275,-168 233,-168 233,-168 230,-168 227,-165 227,-162 227,-162 227,-156 227,-156 227,-153 230,-150 233,-150 233,-150 275,-150 275,-150 278,-150 281,-153 281,-156 281,-156 281,-162 281,-162 281,-165 278,-168 275,-168"/>
<text text-anchor="start" x="235.5" y="-156.8" font-family="Helvetica,sans-Serif" font-size="9.00">index.ts</text>
</a>
</g>
</g>
<!-- packages/music&#45;structure/beat/beat&#45;estimation/src/calc&#45;tempo.ts&#45;&gt;packages/music&#45;structure/beat/beat&#45;estimation/src/facade/index.ts -->
<g id="edge4" class="edge">
<title>packages/music&#45;structure/beat/beat&#45;estimation/src/calc&#45;tempo.ts&#45;&gt;packages/music&#45;structure/beat/beat&#45;estimation/src/facade/index.ts</title>
<path fill="none" stroke="#000000" stroke-width="2" stroke-opacity="0.200000" d="M207.07,-152.44C211.6,-153.09 216.2,-153.74 220.65,-154.38"/>
<polygon fill="#000000" fill-opacity="0.200000" stroke="#000000" stroke-width="2" stroke-opacity="0.200000" points="220.36,-156.46 226.59,-155.23 220.95,-152.3 220.36,-156.46"/>
</g>
<!-- packages/music&#45;structure/chord/chord&#45;analyze/dist/index.js -->
<g id="node6" class="node">
<title>packages/music&#45;structure/chord/chord&#45;analyze/dist/index.js</title>
<g id="a_node6"><a xlink:href="packages/music-structure/chord/chord-analyze/dist/index.js" xlink:title="index.js">
<polygon fill="#ffffcc" stroke="black" points="436,-66 434.5,-68 424,-68 422.5,-66 382,-66 382,-48 436,-48 436,-66"/>
<text text-anchor="start" x="391.5" y="-54.8" font-family="Helvetica,sans-Serif" font-size="9.00">index.js</text>
</a>
</g>
</g>
<!-- packages/music&#45;structure/beat/beat&#45;estimation/src/facade/index.ts&#45;&gt;packages/music&#45;structure/chord/chord&#45;analyze/dist/index.js -->
<g id="edge5" class="edge">
<title>packages/music&#45;structure/beat/beat&#45;estimation/src/facade/index.ts&#45;&gt;packages/music&#45;structure/chord/chord&#45;analyze/dist/index.js</title>
<path fill="none" stroke="#000000" stroke-width="2" stroke-opacity="0.200000" d="M281.28,-153.11C296.63,-149.67 313,-146 313,-146 313,-146 366.99,-95.42 393.57,-70.52"/>
<polygon fill="#000000" fill-opacity="0.200000" stroke="#000000" stroke-width="2" stroke-opacity="0.200000" points="399.63,-67.72 393.81,-70.29 396.76,-64.66 399.63,-67.72"/>
</g>
<!-- packages/util/math/dist/index.js -->
<g id="node7" class="node">
<title>packages/util/math/dist/index.js</title>
<g id="a_node7"><a xlink:href="packages/util/math/dist/index.js" xlink:title="index.js">
<polygon fill="#ffffcc" stroke="black" points="436,-348 434.5,-350 424,-350 422.5,-348 382,-348 382,-330 436,-330 436,-348"/>
<text text-anchor="start" x="391.5" y="-336.8" font-family="Helvetica,sans-Serif" font-size="9.00">index.js</text>
</a>
</g>
</g>
<!-- packages/music&#45;structure/beat/beat&#45;estimation/src/facade/index.ts&#45;&gt;packages/util/math/dist/index.js -->
<g id="edge6" class="edge">
<title>packages/music&#45;structure/beat/beat&#45;estimation/src/facade/index.ts&#45;&gt;packages/util/math/dist/index.js</title>
<path fill="none" stroke="#000000" stroke-width="2" stroke-opacity="0.200000" d="M262.8,-168.17C287.76,-197.54 365.8,-289.35 395.95,-324.82"/>
<polygon fill="#000000" fill-opacity="0.200000" stroke="#000000" stroke-width="2" stroke-opacity="0.200000" points="398.43,-330.99 396.15,-325.06 401.63,-328.27 398.43,-330.99"/>
</g>
<!-- packages/music&#45;structure/melody/melody&#45;analyze/dist/index.js -->
<g id="node8" class="node">
<title>packages/music&#45;structure/melody/melody&#45;analyze/dist/index.js</title>
<g id="a_node8"><a xlink:href="packages/music-structure/melody/melody-analyze/dist/index.js" xlink:title="index.js">
<polygon fill="#ffffcc" stroke="black" points="436,-194 434.5,-196 424,-196 422.5,-194 382,-194 382,-176 436,-176 436,-194"/>
<text text-anchor="start" x="391.5" y="-182.8" font-family="Helvetica,sans-Serif" font-size="9.00">index.js</text>
</a>
</g>
</g>
<!-- packages/music&#45;structure/beat/beat&#45;estimation/src/facade/index.ts&#45;&gt;packages/music&#45;structure/melody/melody&#45;analyze/dist/index.js -->
<g id="edge7" class="edge">
<title>packages/music&#45;structure/beat/beat&#45;estimation/src/facade/index.ts&#45;&gt;packages/music&#45;structure/melody/melody&#45;analyze/dist/index.js</title>
<path fill="none" stroke="#000000" stroke-width="2" stroke-opacity="0.200000" d="M281.3,-163.47C307.43,-167.91 347.56,-174.73 375.63,-179.5"/>
<polygon fill="#000000" fill-opacity="0.200000" stroke="#000000" stroke-width="2" stroke-opacity="0.200000" points="381.43,-182.62 375.87,-179.54 382.14,-178.48 381.43,-182.62"/>
</g>
</g>
</svg>
