<?xml version="1.0" encoding="UTF-8" standalone="no"?>
<!DOCTYPE svg PUBLIC "-//W3C//DTD SVG 1.1//EN"
 "http://www.w3.org/Graphics/SVG/1.1/DTD/svg11.dtd">
<!-- Generated by graphviz version 2.43.0 (0)
 -->
<!-- Title: dependency&#45;cruiser output Pages: 1 -->
<svg width="201pt" height="134pt"
 viewBox="0.00 0.00 201.00 134.00" xmlns="http://www.w3.org/2000/svg" xmlns:xlink="http://www.w3.org/1999/xlink">
<g id="graph0" class="graph" transform="scale(1 1) rotate(0) translate(4 130)">
<title>dependency&#45;cruiser output</title>
<polygon fill="white" stroke="transparent" points="-4,4 -4,-130 197,-130 197,4 -4,4"/>
<g id="clust1" class="cluster">
<title>cluster_packages</title>
<path fill="#ffffff" stroke="black" stroke-width="2" d="M12,0C12,0 181,0 181,0 187,0 193,-6 193,-12 193,-12 193,-114 193,-114 193,-120 187,-126 181,-126 181,-126 12,-126 12,-126 6,-126 0,-120 0,-114 0,-114 0,-12 0,-12 0,-6 6,0 12,0"/>
<text text-anchor="middle" x="96.5" y="-114.8" font-family="Helvetica,sans-Serif" font-weight="bold" font-size="9.00">packages</text>
</g>
<!-- packages/music&#45;structure/beat/beat&#45;estimation/index.test.ts -->
<g id="node1" class="node">
<title>packages/music&#45;structure/beat/beat&#45;estimation/index.test.ts</title>
<g id="a_node1"><a xlink:href="packages/music-structure/beat/beat-estimation/index.test.ts" xlink:title="no&#45;orphans">
<path fill="#ccffcc" stroke="orange" d="M187,-126C187,-126 126,-126 126,-126 123,-126 120,-123 120,-120 120,-120 120,-114 120,-114 120,-111 123,-108 126,-108 126,-108 187,-108 187,-108 190,-108 193,-111 193,-114 193,-114 193,-120 193,-120 193,-123 190,-126 187,-126"/>
<text text-anchor="start" x="128" y="-114.8" font-family="Helvetica,sans-Serif" font-size="9.00" fill="orange">index.test.ts</text>
</a>
</g>
</g>
<!-- packages/music&#45;structure/beat/beat&#45;estimation/index.ts -->
<g id="node2" class="node">
<title>packages/music&#45;structure/beat/beat&#45;estimation/index.ts</title>
<g id="a_node2"><a xlink:href="packages/music-structure/beat/beat-estimation/index.ts" xlink:title="index.ts">
<path fill="#ddfeff" stroke="black" d="M87.13,-76.6C87.13,-76.6 45.13,-76.6 45.13,-76.6 42.13,-76.6 39.13,-73.6 39.13,-70.6 39.13,-70.6 39.13,-64.6 39.13,-64.6 39.13,-61.6 42.13,-58.6 45.13,-58.6 45.13,-58.6 87.13,-58.6 87.13,-58.6 90.13,-58.6 93.13,-61.6 93.13,-64.6 93.13,-64.6 93.13,-70.6 93.13,-70.6 93.13,-73.6 90.13,-76.6 87.13,-76.6"/>
<text text-anchor="start" x="47.63" y="-65.4" font-family="Helvetica,sans-Serif" font-size="9.00">index.ts</text>
</a>
</g>
</g>
<!-- packages/music&#45;structure/chord/chord&#45;analyze/dist/index.js -->
<g id="node3" class="node">
<title>packages/music&#45;structure/chord/chord&#45;analyze/dist/index.js</title>
<g id="a_node3"><a xlink:href="packages/music-structure/chord/chord-analyze/dist/index.js" xlink:title="index.js">
<polygon fill="#ffffcc" stroke="black" points="155.13,-86.22 153.63,-88.22 143.13,-88.22 141.63,-86.22 101.13,-86.22 101.13,-68.22 155.13,-68.22 155.13,-86.22"/>
<text text-anchor="start" x="110.63" y="-75.02" font-family="Helvetica,sans-Serif" font-size="9.00">index.js</text>
</a>
</g>
</g>
<!-- packages/music&#45;structure/beat/beat&#45;estimation/index.ts&#45;&gt;packages/music&#45;structure/chord/chord&#45;analyze/dist/index.js -->
<g id="edge1" class="edge">
<title>packages/music&#45;structure/beat/beat&#45;estimation/index.ts&#45;&gt;packages/music&#45;structure/chord/chord&#45;analyze/dist/index.js</title>
<path fill="none" stroke="#000000" stroke-width="2" stroke-opacity="0.200000" d="M93.14,-71.79C93.63,-71.87 94.12,-71.94 94.62,-72.02"/>
<polygon fill="#000000" fill-opacity="0.200000" stroke="#000000" stroke-width="2" stroke-opacity="0.200000" points="94.76,-74.17 101.01,-73.01 95.41,-70.02 94.76,-74.17"/>
</g>
<!-- packages/util/math/dist/index.js -->
<g id="node4" class="node">
<title>packages/util/math/dist/index.js</title>
<g id="a_node4"><a xlink:href="packages/util/math/dist/index.js" xlink:title="index.js">
<polygon fill="#ffffcc" stroke="black" points="70.76,-18 69.26,-20 58.76,-20 57.26,-18 16.76,-18 16.76,0 70.76,0 70.76,-18"/>
<text text-anchor="start" x="26.26" y="-6.8" font-family="Helvetica,sans-Serif" font-size="9.00">index.js</text>
</a>
</g>
</g>
<!-- packages/music&#45;structure/beat/beat&#45;estimation/index.ts&#45;&gt;packages/util/math/dist/index.js -->
<g id="edge2" class="edge">
<title>packages/music&#45;structure/beat/beat&#45;estimation/index.ts&#45;&gt;packages/util/math/dist/index.js</title>
<path fill="none" stroke="#000000" stroke-width="2" stroke-opacity="0.200000" d="M62.63,-58.44C59.11,-49.21 53.61,-34.8 49.45,-23.91"/>
<polygon fill="#000000" fill-opacity="0.200000" stroke="#000000" stroke-width="2" stroke-opacity="0.200000" points="51.4,-23.14 47.3,-18.29 47.48,-24.64 51.4,-23.14"/>
</g>
<!-- packages/music&#45;structure/melody/melody&#45;analyze/dist/index.js -->
<g id="node5" class="node">
<title>packages/music&#45;structure/melody/melody&#45;analyze/dist/index.js</title>
<g id="a_node5"><a xlink:href="packages/music-structure/melody/melody-analyze/dist/index.js" xlink:title="index.js">
<polygon fill="#ffffcc" stroke="black" points="54,-125.62 52.5,-127.62 42,-127.62 40.5,-125.62 0,-125.62 0,-107.62 54,-107.62 54,-125.62"/>
<text text-anchor="start" x="9.5" y="-114.42" font-family="Helvetica,sans-Serif" font-size="9.00">index.js</text>
</a>
</g>
</g>
<!-- packages/music&#45;structure/beat/beat&#45;estimation/index.ts&#45;&gt;packages/music&#45;structure/melody/melody&#45;analyze/dist/index.js -->
<g id="edge3" class="edge">
<title>packages/music&#45;structure/beat/beat&#45;estimation/index.ts&#45;&gt;packages/music&#45;structure/melody/melody&#45;analyze/dist/index.js</title>
<path fill="none" stroke="#000000" stroke-width="2" stroke-opacity="0.200000" d="M58.58,-77.05C52.77,-84.33 44.65,-94.51 38.1,-102.71"/>
<polygon fill="#000000" fill-opacity="0.200000" stroke="#000000" stroke-width="2" stroke-opacity="0.200000" points="36.36,-101.53 34.26,-107.53 39.64,-104.15 36.36,-101.53"/>
</g>
</g>
</svg>
