<?xml version="1.0" encoding="UTF-8" standalone="no"?>
<!DOCTYPE svg PUBLIC "-//W3C//DTD SVG 1.1//EN"
 "http://www.w3.org/Graphics/SVG/1.1/DTD/svg11.dtd">
<!-- Generated by graphviz version 2.43.0 (0)
 -->
<!-- Title: dependency&#45;cruiser output Pages: 1 -->
<svg width="641pt" height="358pt"
 viewBox="0.00 0.00 641.00 358.00" xmlns="http://www.w3.org/2000/svg" xmlns:xlink="http://www.w3.org/1999/xlink">
<g id="graph0" class="graph" transform="scale(1 1) rotate(0) translate(4 354)">
<title>dependency&#45;cruiser output</title>
<polygon fill="white" stroke="transparent" points="-4,4 -4,-354 637,-354 637,4 -4,4"/>
<g id="clust1" class="cluster">
<title>cluster_packages</title>
<path fill="#ffffff" stroke="black" stroke-width="2" d="M20,-26C20,-26 613,-26 613,-26 619,-26 625,-32 625,-38 625,-38 625,-330 625,-330 625,-336 619,-342 613,-342 613,-342 20,-342 20,-342 14,-342 8,-336 8,-330 8,-330 8,-38 8,-38 8,-32 14,-26 20,-26"/>
<text text-anchor="middle" x="316.5" y="-330.8" font-family="Helvetica,sans-Serif" font-weight="bold" font-size="9.00">packages</text>
</g>
<g id="clust2" class="cluster">
<title>cluster_packages/cli</title>
<path fill="#ffffff" stroke="black" stroke-width="2" d="M28,-34C28,-34 605,-34 605,-34 611,-34 617,-40 617,-46 617,-46 617,-176 617,-176 617,-182 611,-188 605,-188 605,-188 28,-188 28,-188 22,-188 16,-182 16,-176 16,-176 16,-46 16,-46 16,-40 22,-34 28,-34"/>
<text text-anchor="middle" x="316.5" y="-176.8" font-family="Helvetica,sans-Serif" font-weight="bold" font-size="9.00">cli</text>
</g>
<g id="clust3" class="cluster">
<title>cluster_packages/cli/post&#45;f0&#45;util</title>
<path fill="#ffffff" stroke="black" stroke-width="2" d="M535,-50C535,-50 597,-50 597,-50 603,-50 609,-56 609,-62 609,-62 609,-124 609,-124 609,-130 603,-136 597,-136 597,-136 535,-136 535,-136 529,-136 523,-130 523,-124 523,-124 523,-62 523,-62 523,-56 529,-50 535,-50"/>
<text text-anchor="middle" x="566" y="-124.8" font-family="Helvetica,sans-Serif" font-weight="bold" font-size="9.00">post&#45;f0&#45;util</text>
</g>
<g id="clust4" class="cluster">
<title>cluster_packages/cli/post&#45;f0&#45;util/dist</title>
<path fill="#ffffff" stroke="black" stroke-width="2" d="M543,-58C543,-58 589,-58 589,-58 595,-58 601,-64 601,-70 601,-70 601,-98 601,-98 601,-104 595,-110 589,-110 589,-110 543,-110 543,-110 537,-110 531,-104 531,-98 531,-98 531,-70 531,-70 531,-64 537,-58 543,-58"/>
<text text-anchor="middle" x="566" y="-98.8" font-family="Helvetica,sans-Serif" font-weight="bold" font-size="9.00">dist</text>
</g>
<g id="clust5" class="cluster">
<title>cluster_packages/cli/post&#45;pyin</title>
<path fill="#ffffff" stroke="black" stroke-width="2" d="M36,-42C36,-42 495,-42 495,-42 501,-42 507,-48 507,-54 507,-54 507,-150 507,-150 507,-156 501,-162 495,-162 495,-162 36,-162 36,-162 30,-162 24,-156 24,-150 24,-150 24,-54 24,-54 24,-48 30,-42 36,-42"/>
<text text-anchor="middle" x="265.5" y="-150.8" font-family="Helvetica,sans-Serif" font-weight="bold" font-size="9.00">post&#45;pyin</text>
</g>
<g id="clust6" class="cluster">
<title>cluster_packages/cli/post&#45;pyin/src</title>
<path fill="#ffffff" stroke="black" stroke-width="2" d="M125,-50C125,-50 487,-50 487,-50 493,-50 499,-56 499,-62 499,-62 499,-124 499,-124 499,-130 493,-136 487,-136 487,-136 125,-136 125,-136 119,-136 113,-130 113,-124 113,-124 113,-62 113,-62 113,-56 119,-50 125,-50"/>
<text text-anchor="middle" x="306" y="-124.8" font-family="Helvetica,sans-Serif" font-weight="bold" font-size="9.00">src</text>
</g>
<g id="clust7" class="cluster">
<title>cluster_packages/cli/post&#45;pyin/src/facade</title>
<path fill="#ffffff" stroke="black" stroke-width="2" d="M433,-58C433,-58 479,-58 479,-58 485,-58 491,-64 491,-70 491,-70 491,-98 491,-98 491,-104 485,-110 479,-110 479,-110 433,-110 433,-110 427,-110 421,-104 421,-98 421,-98 421,-70 421,-70 421,-64 427,-58 433,-58"/>
<text text-anchor="middle" x="456" y="-98.8" font-family="Helvetica,sans-Serif" font-weight="bold" font-size="9.00">facade</text>
</g>
<g id="clust8" class="cluster">
<title>cluster_packages/util</title>
<path fill="#ffffff" stroke="black" stroke-width="2" d="M527,-196C527,-196 605,-196 605,-196 611,-196 617,-202 617,-208 617,-208 617,-304 617,-304 617,-310 611,-316 605,-316 605,-316 527,-316 527,-316 521,-316 515,-310 515,-304 515,-304 515,-208 515,-208 515,-202 521,-196 527,-196"/>
<text text-anchor="middle" x="566" y="-304.8" font-family="Helvetica,sans-Serif" font-weight="bold" font-size="9.00">util</text>
</g>
<g id="clust9" class="cluster">
<title>cluster_packages/util/math</title>
<path fill="#ffffff" stroke="black" stroke-width="2" d="M535,-204C535,-204 597,-204 597,-204 603,-204 609,-210 609,-216 609,-216 609,-278 609,-278 609,-284 603,-290 597,-290 597,-290 535,-290 535,-290 529,-290 523,-284 523,-278 523,-278 523,-216 523,-216 523,-210 529,-204 535,-204"/>
<text text-anchor="middle" x="566" y="-278.8" font-family="Helvetica,sans-Serif" font-weight="bold" font-size="9.00">math</text>
</g>
<g id="clust10" class="cluster">
<title>cluster_packages/util/math/dist</title>
<path fill="#ffffff" stroke="black" stroke-width="2" d="M543,-212C543,-212 589,-212 589,-212 595,-212 601,-218 601,-224 601,-224 601,-252 601,-252 601,-258 595,-264 589,-264 589,-264 543,-264 543,-264 537,-264 531,-258 531,-252 531,-252 531,-224 531,-224 531,-218 537,-212 543,-212"/>
<text text-anchor="middle" x="566" y="-252.8" font-family="Helvetica,sans-Serif" font-weight="bold" font-size="9.00">dist</text>
</g>
<!-- fs -->
<g id="node1" class="node">
<title>fs</title>
<g id="a_node1"><a xlink:href="https://nodejs.org/api/fs.html" xlink:title="fs">
<path fill="#ffffcc" stroke="grey" d="M169,-18C169,-18 127,-18 127,-18 124,-18 121,-15 121,-12 121,-12 121,-6 121,-6 121,-3 124,0 127,0 127,0 169,0 169,0 172,0 175,-3 175,-6 175,-6 175,-12 175,-12 175,-15 172,-18 169,-18"/>
<text text-anchor="middle" x="148" y="-6.8" font-family="Helvetica,sans-Serif" font-size="9.00" fill="grey">fs</text>
</a>
</g>
</g>
<!-- packages/cli/post&#45;f0&#45;util/dist/index.js -->
<g id="node2" class="node">
<title>packages/cli/post&#45;f0&#45;util/dist/index.js</title>
<g id="a_node2"><a xlink:href="packages/cli/post-f0-util/dist/index.js" xlink:title="index.js">
<polygon fill="#ffffcc" stroke="black" points="593,-84 591.5,-86 581,-86 579.5,-84 539,-84 539,-66 593,-66 593,-84"/>
<text text-anchor="start" x="548.5" y="-72.8" font-family="Helvetica,sans-Serif" font-size="9.00">index.js</text>
</a>
</g>
</g>
<!-- packages/cli/post&#45;pyin/index.test.ts -->
<g id="node3" class="node">
<title>packages/cli/post&#45;pyin/index.test.ts</title>
<g id="a_node3"><a xlink:href="packages/cli/post-pyin/index.test.ts" xlink:title="no&#45;orphans">
<path fill="#ccffcc" stroke="orange" d="M99,-128C99,-128 38,-128 38,-128 35,-128 32,-125 32,-122 32,-122 32,-116 32,-116 32,-113 35,-110 38,-110 38,-110 99,-110 99,-110 102,-110 105,-113 105,-116 105,-116 105,-122 105,-122 105,-125 102,-128 99,-128"/>
<text text-anchor="start" x="40" y="-116.8" font-family="Helvetica,sans-Serif" font-size="9.00" fill="orange">index.test.ts</text>
</a>
</g>
</g>
<!-- packages/cli/post&#45;pyin/index.ts -->
<g id="node4" class="node">
<title>packages/cli/post&#45;pyin/index.ts</title>
<g id="a_node4"><a xlink:href="packages/cli/post-pyin/index.ts" xlink:title="index.ts">
<path fill="#ddfeff" stroke="black" d="M89.5,-83C89.5,-83 47.5,-83 47.5,-83 44.5,-83 41.5,-80 41.5,-77 41.5,-77 41.5,-71 41.5,-71 41.5,-68 44.5,-65 47.5,-65 47.5,-65 89.5,-65 89.5,-65 92.5,-65 95.5,-68 95.5,-71 95.5,-71 95.5,-77 95.5,-77 95.5,-80 92.5,-83 89.5,-83"/>
<text text-anchor="start" x="50" y="-71.8" font-family="Helvetica,sans-Serif" font-size="9.00">index.ts</text>
</a>
</g>
</g>
<!-- packages/cli/post&#45;pyin/index.ts&#45;&gt;fs -->
<g id="edge3" class="edge">
<title>packages/cli/post&#45;pyin/index.ts&#45;&gt;fs</title>
<path fill="none" stroke="#000000" stroke-dasharray="5,2" stroke-opacity="0.200000" d="M80.28,-64.96C93.43,-53.93 115.79,-35.18 130.97,-22.45"/>
<polygon fill="#000000" fill-opacity="0.200000" stroke="#000000" stroke-opacity="0.200000" points="132.57,-23.85 135.81,-18.38 129.87,-20.63 132.57,-23.85"/>
</g>
<!-- packages/cli/post&#45;pyin/src/index.ts -->
<g id="node5" class="node">
<title>packages/cli/post&#45;pyin/src/index.ts</title>
<g id="a_node5"><a xlink:href="packages/cli/post-pyin/src/index.ts" xlink:title="index.ts">
<path fill="#ddfeff" stroke="black" d="M169,-83C169,-83 127,-83 127,-83 124,-83 121,-80 121,-77 121,-77 121,-71 121,-71 121,-68 124,-65 127,-65 127,-65 169,-65 169,-65 172,-65 175,-68 175,-71 175,-71 175,-77 175,-77 175,-80 172,-83 169,-83"/>
<text text-anchor="start" x="129.5" y="-71.8" font-family="Helvetica,sans-Serif" font-size="9.00">index.ts</text>
</a>
</g>
</g>
<!-- packages/cli/post&#45;pyin/index.ts&#45;&gt;packages/cli/post&#45;pyin/src/index.ts -->
<g id="edge1" class="edge">
<title>packages/cli/post&#45;pyin/index.ts&#45;&gt;packages/cli/post&#45;pyin/src/index.ts</title>
<path fill="none" stroke="#000000" stroke-width="2" stroke-opacity="0.200000" d="M95.74,-74C101.8,-74 108.32,-74 114.6,-74"/>
<polygon fill="#000000" fill-opacity="0.200000" stroke="#000000" stroke-width="2" stroke-opacity="0.200000" points="114.79,-76.1 120.79,-74 114.79,-71.9 114.79,-76.1"/>
</g>
<!-- packages/cli/post&#45;pyin/src/facade/index.ts -->
<g id="node6" class="node">
<title>packages/cli/post&#45;pyin/src/facade/index.ts</title>
<g id="a_node6"><a xlink:href="packages/cli/post-pyin/src/facade/index.ts" xlink:title="index.ts">
<path fill="#ddfeff" stroke="black" d="M477,-84C477,-84 435,-84 435,-84 432,-84 429,-81 429,-78 429,-78 429,-72 429,-72 429,-69 432,-66 435,-66 435,-66 477,-66 477,-66 480,-66 483,-69 483,-72 483,-72 483,-78 483,-78 483,-81 480,-84 477,-84"/>
<text text-anchor="start" x="437.5" y="-72.8" font-family="Helvetica,sans-Serif" font-size="9.00">index.ts</text>
</a>
</g>
</g>
<!-- packages/cli/post&#45;pyin/index.ts&#45;&gt;packages/cli/post&#45;pyin/src/facade/index.ts -->
<g id="edge2" class="edge">
<title>packages/cli/post&#45;pyin/index.ts&#45;&gt;packages/cli/post&#45;pyin/src/facade/index.ts</title>
<path fill="none" stroke="#000000" stroke-width="2" stroke-opacity="0.200000" d="M80.34,-83.16C90.78,-91.99 105,-104 105,-104 105,-104 113,-114 113,-114 113,-114 413,-114 413,-114 413,-114 428.47,-99.63 440.63,-88.34"/>
<polygon fill="#000000" fill-opacity="0.200000" stroke="#000000" stroke-width="2" stroke-opacity="0.200000" points="442.29,-89.67 445.26,-84.05 439.43,-86.59 442.29,-89.67"/>
</g>
<!-- packages/cli/post&#45;pyin/src/get&#45;median&#45;frequency.ts -->
<g id="node8" class="node">
<title>packages/cli/post&#45;pyin/src/get&#45;median&#45;frequency.ts</title>
<g id="a_node8"><a xlink:href="packages/cli/post-pyin/src/get-median-frequency.ts" xlink:title="get&#45;median&#45;frequency.ts">
<path fill="#ddfeff" stroke="black" d="M309,-76C309,-76 194,-76 194,-76 191,-76 188,-73 188,-70 188,-70 188,-64 188,-64 188,-61 191,-58 194,-58 194,-58 309,-58 309,-58 312,-58 315,-61 315,-64 315,-64 315,-70 315,-70 315,-73 312,-76 309,-76"/>
<text text-anchor="start" x="196" y="-64.8" font-family="Helvetica,sans-Serif" font-size="9.00">get&#45;median&#45;frequency.ts</text>
</a>
</g>
</g>
<!-- packages/cli/post&#45;pyin/src/index.ts&#45;&gt;packages/cli/post&#45;pyin/src/get&#45;median&#45;frequency.ts -->
<g id="edge7" class="edge">
<title>packages/cli/post&#45;pyin/src/index.ts&#45;&gt;packages/cli/post&#45;pyin/src/get&#45;median&#45;frequency.ts</title>
<path fill="none" stroke="#000000" stroke-width="2" stroke-opacity="0.200000" d="M175.14,-72.2C177.26,-72.05 179.46,-71.9 181.71,-71.74"/>
<polygon fill="#000000" fill-opacity="0.200000" stroke="#000000" stroke-width="2" stroke-opacity="0.200000" points="187.93,-73.42 181.8,-71.74 187.64,-69.23 187.93,-73.42"/>
</g>
<!-- packages/cli/post&#45;pyin/src/pyin&#45;output&#45;type.ts -->
<g id="node10" class="node">
<title>packages/cli/post&#45;pyin/src/pyin&#45;output&#45;type.ts</title>
<g id="a_node10"><a xlink:href="packages/cli/post-pyin/src/pyin-output-type.ts" xlink:title="pyin&#45;output&#45;type.ts">
<path fill="#ddfeff" stroke="black" d="M298,-106C298,-106 205,-106 205,-106 202,-106 199,-103 199,-100 199,-100 199,-94 199,-94 199,-91 202,-88 205,-88 205,-88 298,-88 298,-88 301,-88 304,-91 304,-94 304,-94 304,-100 304,-100 304,-103 301,-106 298,-106"/>
<text text-anchor="start" x="207" y="-94.8" font-family="Helvetica,sans-Serif" font-size="9.00">pyin&#45;output&#45;type.ts</text>
</a>
</g>
</g>
<!-- packages/cli/post&#45;pyin/src/index.ts&#45;&gt;packages/cli/post&#45;pyin/src/pyin&#45;output&#45;type.ts -->
<g id="edge8" class="edge">
<title>packages/cli/post&#45;pyin/src/index.ts&#45;&gt;packages/cli/post&#45;pyin/src/pyin&#45;output&#45;type.ts</title>
<path fill="none" stroke="#000000" stroke-width="2" stroke-opacity="0.200000" d="M175.14,-79.92C184.17,-81.97 194.58,-84.33 204.72,-86.63"/>
<polygon fill="#000000" fill-opacity="0.200000" stroke="#000000" stroke-width="2" stroke-opacity="0.200000" points="210.18,-90.02 204.8,-86.64 211.11,-85.92 210.18,-90.02"/>
</g>
<!-- packages/cli/post&#45;pyin/src/facade/index.ts&#45;&gt;packages/cli/post&#45;f0&#45;util/dist/index.js -->
<g id="edge5" class="edge">
<title>packages/cli/post&#45;pyin/src/facade/index.ts&#45;&gt;packages/cli/post&#45;f0&#45;util/dist/index.js</title>
<path fill="none" stroke="#000000" stroke-width="2" stroke-opacity="0.200000" d="M483.14,-75C498.02,-75 516.79,-75 532.6,-75"/>
<polygon fill="#000000" fill-opacity="0.200000" stroke="#000000" stroke-width="2" stroke-opacity="0.200000" points="538.72,-77.1 532.72,-75 538.72,-72.9 538.72,-77.1"/>
</g>
<!-- packages/util/math/dist/index.js -->
<g id="node7" class="node">
<title>packages/util/math/dist/index.js</title>
<g id="a_node7"><a xlink:href="packages/util/math/dist/index.js" xlink:title="index.js">
<polygon fill="#ffffcc" stroke="black" points="593,-238 591.5,-240 581,-240 579.5,-238 539,-238 539,-220 593,-220 593,-238"/>
<text text-anchor="start" x="548.5" y="-226.8" font-family="Helvetica,sans-Serif" font-size="9.00">index.js</text>
</a>
</g>
</g>
<!-- packages/cli/post&#45;pyin/src/facade/index.ts&#45;&gt;packages/util/math/dist/index.js -->
<g id="edge4" class="edge">
<title>packages/cli/post&#45;pyin/src/facade/index.ts&#45;&gt;packages/util/math/dist/index.js</title>
<path fill="none" stroke="#000000" stroke-width="2" stroke-opacity="0.200000" d="M463.43,-84.17C481.55,-110 533.09,-183.5 554.98,-214.71"/>
<polygon fill="#000000" fill-opacity="0.200000" stroke="#000000" stroke-width="2" stroke-opacity="0.200000" points="556.75,-220.89 555.02,-214.77 560.18,-218.48 556.75,-220.89"/>
</g>
<!-- packages/cli/post&#45;pyin/src/median&#45;filter.ts -->
<g id="node9" class="node">
<title>packages/cli/post&#45;pyin/src/median&#45;filter.ts</title>
<g id="a_node9"><a xlink:href="packages/cli/post-pyin/src/median-filter.ts" xlink:title="median&#45;filter.ts">
<path fill="#ddfeff" stroke="black" d="M407,-80C407,-80 334,-80 334,-80 331,-80 328,-77 328,-74 328,-74 328,-68 328,-68 328,-65 331,-62 334,-62 334,-62 407,-62 407,-62 410,-62 413,-65 413,-68 413,-68 413,-74 413,-74 413,-77 410,-80 407,-80"/>
<text text-anchor="start" x="336" y="-68.8" font-family="Helvetica,sans-Serif" font-size="9.00">median&#45;filter.ts</text>
</a>
</g>
</g>
<!-- packages/cli/post&#45;pyin/src/get&#45;median&#45;frequency.ts&#45;&gt;packages/cli/post&#45;pyin/src/median&#45;filter.ts -->
<g id="edge6" class="edge">
<title>packages/cli/post&#45;pyin/src/get&#45;median&#45;frequency.ts&#45;&gt;packages/cli/post&#45;pyin/src/median&#45;filter.ts</title>
<path fill="none" stroke="#000000" stroke-width="2" stroke-opacity="0.200000" d="M315.11,-69.14C317.28,-69.21 319.45,-69.29 321.6,-69.36"/>
<polygon fill="#000000" fill-opacity="0.200000" stroke="#000000" stroke-width="2" stroke-opacity="0.200000" points="321.89,-71.47 327.96,-69.58 322.04,-67.28 321.89,-71.47"/>
</g>
<!-- packages/cli/post&#45;pyin/src/median&#45;filter.ts&#45;&gt;packages/cli/post&#45;pyin/src/facade/index.ts -->
<g id="edge9" class="edge">
<title>packages/cli/post&#45;pyin/src/median&#45;filter.ts&#45;&gt;packages/cli/post&#45;pyin/src/facade/index.ts</title>
<path fill="none" stroke="#000000" stroke-width="2" stroke-opacity="0.200000" d="M413.25,-73C416.35,-73.15 419.45,-73.3 422.48,-73.44"/>
<polygon fill="#000000" fill-opacity="0.200000" stroke="#000000" stroke-width="2" stroke-opacity="0.200000" points="422.49,-75.54 428.58,-73.73 422.69,-71.35 422.49,-75.54"/>
</g>
</g>
</svg>
