<?xml version="1.0" encoding="UTF-8" standalone="no"?>
<!DOCTYPE svg PUBLIC "-//W3C//DTD SVG 1.1//EN"
 "http://www.w3.org/Graphics/SVG/1.1/DTD/svg11.dtd">
<!-- Generated by graphviz version 2.43.0 (0)
 -->
<!-- Title: dependency&#45;cruiser output Pages: 1 -->
<svg width="692pt" height="452pt"
 viewBox="0.00 0.00 692.00 452.00" xmlns="http://www.w3.org/2000/svg" xmlns:xlink="http://www.w3.org/1999/xlink">
<g id="graph0" class="graph" transform="scale(1 1) rotate(0) translate(4 448)">
<title>dependency&#45;cruiser output</title>
<polygon fill="white" stroke="transparent" points="-4,4 -4,-448 688,-448 688,4 -4,4"/>
<g id="clust1" class="cluster">
<title>cluster_node_modules</title>
<path fill="#ffffff" stroke="black" stroke-width="2" d="M309.5,-8C309.5,-8 375.5,-8 375.5,-8 381.5,-8 387.5,-14 387.5,-20 387.5,-20 387.5,-48 387.5,-48 387.5,-54 381.5,-60 375.5,-60 375.5,-60 309.5,-60 309.5,-60 303.5,-60 297.5,-54 297.5,-48 297.5,-48 297.5,-20 297.5,-20 297.5,-14 303.5,-8 309.5,-8"/>
<text text-anchor="middle" x="342.5" y="-48.8" font-family="Helvetica,sans-Serif" font-weight="bold" font-size="9.00">node_modules</text>
</g>
<g id="clust2" class="cluster">
<title>cluster_packages</title>
<path fill="#ffffff" stroke="black" stroke-width="2" d="M20,-68C20,-68 664,-68 664,-68 670,-68 676,-74 676,-80 676,-80 676,-424 676,-424 676,-430 670,-436 664,-436 664,-436 20,-436 20,-436 14,-436 8,-430 8,-424 8,-424 8,-80 8,-80 8,-74 14,-68 20,-68"/>
<text text-anchor="middle" x="342" y="-424.8" font-family="Helvetica,sans-Serif" font-weight="bold" font-size="9.00">packages</text>
</g>
<g id="clust3" class="cluster">
<title>cluster_packages/cli</title>
<path fill="#ffffff" stroke="black" stroke-width="2" d="M28,-76C28,-76 522,-76 522,-76 528,-76 534,-82 534,-88 534,-88 534,-398 534,-398 534,-404 528,-410 522,-410 522,-410 28,-410 28,-410 22,-410 16,-404 16,-398 16,-398 16,-88 16,-88 16,-82 22,-76 28,-76"/>
<text text-anchor="middle" x="275" y="-398.8" font-family="Helvetica,sans-Serif" font-weight="bold" font-size="9.00">cli</text>
</g>
<g id="clust4" class="cluster">
<title>cluster_packages/cli/post&#45;f0&#45;util</title>
<path fill="#ffffff" stroke="black" stroke-width="2" d="M125,-208C125,-208 514,-208 514,-208 520,-208 526,-214 526,-220 526,-220 526,-372 526,-372 526,-378 520,-384 514,-384 514,-384 125,-384 125,-384 119,-384 113,-378 113,-372 113,-372 113,-220 113,-220 113,-214 119,-208 125,-208"/>
<text text-anchor="middle" x="319.5" y="-372.8" font-family="Helvetica,sans-Serif" font-weight="bold" font-size="9.00">post&#45;f0&#45;util</text>
</g>
<g id="clust5" class="cluster">
<title>cluster_packages/cli/post&#45;f0&#45;util/src</title>
<path fill="#ffffff" stroke="black" stroke-width="2" d="M133,-216C133,-216 506,-216 506,-216 512,-216 518,-222 518,-228 518,-228 518,-346 518,-346 518,-352 512,-358 506,-358 506,-358 133,-358 133,-358 127,-358 121,-352 121,-346 121,-346 121,-228 121,-228 121,-222 127,-216 133,-216"/>
<text text-anchor="middle" x="319.5" y="-346.8" font-family="Helvetica,sans-Serif" font-weight="bold" font-size="9.00">src</text>
</g>
<g id="clust6" class="cluster">
<title>cluster_packages/cli/post&#45;f0&#45;util/src/util</title>
<path fill="#ffffff" stroke="black" stroke-width="2" d="M300.5,-250C300.5,-250 498,-250 498,-250 504,-250 510,-256 510,-262 510,-262 510,-320 510,-320 510,-326 504,-332 498,-332 498,-332 300.5,-332 300.5,-332 294.5,-332 288.5,-326 288.5,-320 288.5,-320 288.5,-262 288.5,-262 288.5,-256 294.5,-250 300.5,-250"/>
<text text-anchor="middle" x="399.25" y="-320.8" font-family="Helvetica,sans-Serif" font-weight="bold" font-size="9.00">util</text>
</g>
<g id="clust7" class="cluster">
<title>cluster_packages/cli/post&#45;pyin</title>
<path fill="#ffffff" stroke="black" stroke-width="2" d="M36,-84C36,-84 508,-84 508,-84 514,-84 520,-90 520,-96 520,-96 520,-188 520,-188 520,-194 514,-200 508,-200 508,-200 36,-200 36,-200 30,-200 24,-194 24,-188 24,-188 24,-96 24,-96 24,-90 30,-84 36,-84"/>
<text text-anchor="middle" x="272" y="-188.8" font-family="Helvetica,sans-Serif" font-weight="bold" font-size="9.00">post&#45;pyin</text>
</g>
<g id="clust8" class="cluster">
<title>cluster_packages/cli/post&#45;pyin/src</title>
<path fill="#ffffff" stroke="black" stroke-width="2" d="M174.5,-92C174.5,-92 500,-92 500,-92 506,-92 512,-98 512,-104 512,-104 512,-162 512,-162 512,-168 506,-174 500,-174 500,-174 174.5,-174 174.5,-174 168.5,-174 162.5,-168 162.5,-162 162.5,-162 162.5,-104 162.5,-104 162.5,-98 168.5,-92 174.5,-92"/>
<text text-anchor="middle" x="337.25" y="-162.8" font-family="Helvetica,sans-Serif" font-weight="bold" font-size="9.00">src</text>
</g>
<g id="clust9" class="cluster">
<title>cluster_packages/util</title>
<path fill="#ffffff" stroke="black" stroke-width="2" d="M554,-76C554,-76 656,-76 656,-76 662,-76 668,-82 668,-88 668,-88 668,-218 668,-218 668,-224 662,-230 656,-230 656,-230 554,-230 554,-230 548,-230 542,-224 542,-218 542,-218 542,-88 542,-88 542,-82 548,-76 554,-76"/>
<text text-anchor="middle" x="605" y="-218.8" font-family="Helvetica,sans-Serif" font-weight="bold" font-size="9.00">util</text>
</g>
<g id="clust10" class="cluster">
<title>cluster_packages/util/math</title>
<path fill="#ffffff" stroke="black" stroke-width="2" d="M562,-84C562,-84 648,-84 648,-84 654,-84 660,-90 660,-96 660,-96 660,-192 660,-192 660,-198 654,-204 648,-204 648,-204 562,-204 562,-204 556,-204 550,-198 550,-192 550,-192 550,-96 550,-96 550,-90 556,-84 562,-84"/>
<text text-anchor="middle" x="605" y="-192.8" font-family="Helvetica,sans-Serif" font-weight="bold" font-size="9.00">math</text>
</g>
<g id="clust11" class="cluster">
<title>cluster_packages/util/math/src</title>
<path fill="#ffffff" stroke="black" stroke-width="2" d="M570,-92C570,-92 640,-92 640,-92 646,-92 652,-98 652,-104 652,-104 652,-166 652,-166 652,-172 646,-178 640,-178 640,-178 570,-178 570,-178 564,-178 558,-172 558,-166 558,-166 558,-104 558,-104 558,-98 564,-92 570,-92"/>
<text text-anchor="middle" x="605" y="-166.8" font-family="Helvetica,sans-Serif" font-weight="bold" font-size="9.00">src</text>
</g>
<g id="clust12" class="cluster">
<title>cluster_packages/util/math/src/stochastic</title>
<path fill="#ffffff" stroke="black" stroke-width="2" d="M578,-100C578,-100 632,-100 632,-100 638,-100 644,-106 644,-112 644,-112 644,-140 644,-140 644,-146 638,-152 632,-152 632,-152 578,-152 578,-152 572,-152 566,-146 566,-140 566,-140 566,-112 566,-112 566,-106 572,-100 578,-100"/>
<text text-anchor="middle" x="605" y="-140.8" font-family="Helvetica,sans-Serif" font-weight="bold" font-size="9.00">stochastic</text>
</g>
<!-- fs -->
<g id="node1" class="node">
<title>fs</title>
<g id="a_node1"><a xlink:href="https://nodejs.org/api/fs.html" xlink:title="fs">
<path fill="#ffffcc" stroke="grey" d="M218.5,-60C218.5,-60 176.5,-60 176.5,-60 173.5,-60 170.5,-57 170.5,-54 170.5,-54 170.5,-48 170.5,-48 170.5,-45 173.5,-42 176.5,-42 176.5,-42 218.5,-42 218.5,-42 221.5,-42 224.5,-45 224.5,-48 224.5,-48 224.5,-54 224.5,-54 224.5,-57 221.5,-60 218.5,-60"/>
<text text-anchor="middle" x="197.5" y="-48.8" font-family="Helvetica,sans-Serif" font-size="9.00" fill="grey">fs</text>
</a>
</g>
</g>
<!-- node_modules/wavefile -->
<g id="node2" class="node">
<title>node_modules/wavefile</title>
<g id="a_node2"><a xlink:href="https://www.npmjs.com/package/wavefile" xlink:title="wavefile">
<polygon fill="#c40b0a" fill-opacity="0.101961" stroke="black" points="369.5,-34 317.5,-34 315.5,-32 315.5,-16 367.5,-16 369.5,-18 369.5,-34"/>
<polyline fill="none" stroke="black" points="367.5,-32 315.5,-32 "/>
<polyline fill="none" stroke="black" points="367.5,-32 367.5,-16 "/>
<polyline fill="none" stroke="black" points="367.5,-32 369.5,-34 "/>
<text text-anchor="start" x="324" y="-22.8" font-family="Helvetica,sans-Serif" font-size="9.00" fill="#c40b0a">wavefile</text>
</a>
</g>
</g>
<!-- packages/cli/post&#45;f0&#45;util/src/get&#45;bandpass&#45;frequency.ts -->
<g id="node3" class="node">
<title>packages/cli/post&#45;f0&#45;util/src/get&#45;bandpass&#45;frequency.ts</title>
<g id="a_node3"><a xlink:href="packages/cli/post-f0-util/src/get-bandpass-frequency.ts" xlink:title="get&#45;bandpass&#45;frequency.ts">
<path fill="#ddfeff" stroke="black" d="M260,-332C260,-332 135,-332 135,-332 132,-332 129,-329 129,-326 129,-326 129,-320 129,-320 129,-317 132,-314 135,-314 135,-314 260,-314 260,-314 263,-314 266,-317 266,-320 266,-320 266,-326 266,-326 266,-329 263,-332 260,-332"/>
<text text-anchor="start" x="137" y="-320.8" font-family="Helvetica,sans-Serif" font-size="9.00">get&#45;bandpass&#45;frequency.ts</text>
</a>
</g>
</g>
<!-- packages/cli/post&#45;f0&#45;util/src/util/bandpass.ts -->
<g id="node4" class="node">
<title>packages/cli/post&#45;f0&#45;util/src/util/bandpass.ts</title>
<g id="a_node4"><a xlink:href="packages/cli/post-f0-util/src/util/bandpass.ts" xlink:title="bandpass.ts">
<path fill="#ddfeff" stroke="black" d="M372,-276C372,-276 313,-276 313,-276 310,-276 307,-273 307,-270 307,-270 307,-264 307,-264 307,-261 310,-258 313,-258 313,-258 372,-258 372,-258 375,-258 378,-261 378,-264 378,-264 378,-270 378,-270 378,-273 375,-276 372,-276"/>
<text text-anchor="start" x="315" y="-264.8" font-family="Helvetica,sans-Serif" font-size="9.00">bandpass.ts</text>
</a>
</g>
</g>
<!-- packages/cli/post&#45;f0&#45;util/src/get&#45;bandpass&#45;frequency.ts&#45;&gt;packages/cli/post&#45;f0&#45;util/src/util/bandpass.ts -->
<g id="edge1" class="edge">
<title>packages/cli/post&#45;f0&#45;util/src/get&#45;bandpass&#45;frequency.ts&#45;&gt;packages/cli/post&#45;f0&#45;util/src/util/bandpass.ts</title>
<path fill="none" stroke="#000000" stroke-width="2" stroke-opacity="0.200000" d="M221.79,-313.88C246.52,-304.2 285.63,-288.88 312.37,-278.41"/>
<polygon fill="#000000" fill-opacity="0.200000" stroke="#000000" stroke-width="2" stroke-opacity="0.200000" points="313.4,-280.26 318.22,-276.12 311.86,-276.35 313.4,-280.26"/>
</g>
<!-- packages/cli/post&#45;f0&#45;util/src/get&#45;freq&#45;from&#45;phase.ts -->
<g id="node5" class="node">
<title>packages/cli/post&#45;f0&#45;util/src/get&#45;freq&#45;from&#45;phase.ts</title>
<g id="a_node5"><a xlink:href="packages/cli/post-f0-util/src/get-freq-from-phase.ts" xlink:title="get&#45;freq&#45;from&#45;phase.ts">
<path fill="#ddfeff" stroke="black" d="M250.5,-302C250.5,-302 144.5,-302 144.5,-302 141.5,-302 138.5,-299 138.5,-296 138.5,-296 138.5,-290 138.5,-290 138.5,-287 141.5,-284 144.5,-284 144.5,-284 250.5,-284 250.5,-284 253.5,-284 256.5,-287 256.5,-290 256.5,-290 256.5,-296 256.5,-296 256.5,-299 253.5,-302 250.5,-302"/>
<text text-anchor="start" x="146.5" y="-290.8" font-family="Helvetica,sans-Serif" font-size="9.00">get&#45;freq&#45;from&#45;phase.ts</text>
</a>
</g>
</g>
<!-- packages/cli/post&#45;f0&#45;util/src/get&#45;frequency.ts -->
<g id="node6" class="node">
<title>packages/cli/post&#45;f0&#45;util/src/get&#45;frequency.ts</title>
<g id="a_node6"><a xlink:href="packages/cli/post-f0-util/src/get-frequency.ts" xlink:title="get&#45;frequency.ts">
<path fill="#ddfeff" stroke="black" d="M236.5,-272C236.5,-272 158.5,-272 158.5,-272 155.5,-272 152.5,-269 152.5,-266 152.5,-266 152.5,-260 152.5,-260 152.5,-257 155.5,-254 158.5,-254 158.5,-254 236.5,-254 236.5,-254 239.5,-254 242.5,-257 242.5,-260 242.5,-260 242.5,-266 242.5,-266 242.5,-269 239.5,-272 236.5,-272"/>
<text text-anchor="start" x="160.5" y="-260.8" font-family="Helvetica,sans-Serif" font-size="9.00">get&#45;frequency.ts</text>
</a>
</g>
</g>
<!-- packages/cli/post&#45;f0&#45;util/src/get&#45;wav.ts -->
<g id="node7" class="node">
<title>packages/cli/post&#45;f0&#45;util/src/get&#45;wav.ts</title>
<g id="a_node7"><a xlink:href="packages/cli/post-f0-util/src/get-wav.ts" xlink:title="get&#45;wav.ts">
<path fill="#ddfeff" stroke="black" d="M223,-242C223,-242 172,-242 172,-242 169,-242 166,-239 166,-236 166,-236 166,-230 166,-230 166,-227 169,-224 172,-224 172,-224 223,-224 223,-224 226,-224 229,-227 229,-230 229,-230 229,-236 229,-236 229,-239 226,-242 223,-242"/>
<text text-anchor="start" x="174" y="-230.8" font-family="Helvetica,sans-Serif" font-size="9.00">get&#45;wav.ts</text>
</a>
</g>
</g>
<!-- packages/cli/post&#45;f0&#45;util/src/get&#45;wav.ts&#45;&gt;node_modules/wavefile -->
<g id="edge2" class="edge">
<title>packages/cli/post&#45;f0&#45;util/src/get&#45;wav.ts&#45;&gt;node_modules/wavefile</title>
<path fill="none" stroke="#000000" stroke-opacity="0.200000" d="M204.83,-223.79C227.39,-190.97 304.02,-79.51 331.55,-39.47"/>
<polygon fill="#000000" fill-opacity="0.200000" stroke="#000000" stroke-opacity="0.200000" points="333.58,-40.23 335.24,-34.1 330.11,-37.85 333.58,-40.23"/>
</g>
<!-- packages/cli/post&#45;f0&#45;util/src/util/freq&#45;to&#45;midi.ts -->
<g id="node8" class="node">
<title>packages/cli/post&#45;f0&#45;util/src/util/freq&#45;to&#45;midi.ts</title>
<g id="a_node8"><a xlink:href="packages/cli/post-f0-util/src/util/freq-to-midi.ts" xlink:title="freq&#45;to&#45;midi.ts">
<path fill="#ddfeff" stroke="black" d="M496,-306C496,-306 427,-306 427,-306 424,-306 421,-303 421,-300 421,-300 421,-294 421,-294 421,-291 424,-288 427,-288 427,-288 496,-288 496,-288 499,-288 502,-291 502,-294 502,-294 502,-300 502,-300 502,-303 499,-306 496,-306"/>
<text text-anchor="start" x="429" y="-294.8" font-family="Helvetica,sans-Serif" font-size="9.00">freq&#45;to&#45;midi.ts</text>
</a>
</g>
</g>
<!-- packages/cli/post&#45;f0&#45;util/src/util/midi&#45;to&#45;freq.ts -->
<g id="node9" class="node">
<title>packages/cli/post&#45;f0&#45;util/src/util/midi&#45;to&#45;freq.ts</title>
<g id="a_node9"><a xlink:href="packages/cli/post-f0-util/src/util/midi-to-freq.ts" xlink:title="midi&#45;to&#45;freq.ts">
<path fill="#ddfeff" stroke="black" d="M496,-276C496,-276 427,-276 427,-276 424,-276 421,-273 421,-270 421,-270 421,-264 421,-264 421,-261 424,-258 427,-258 427,-258 496,-258 496,-258 499,-258 502,-261 502,-264 502,-264 502,-270 502,-270 502,-273 499,-276 496,-276"/>
<text text-anchor="start" x="429" y="-264.8" font-family="Helvetica,sans-Serif" font-size="9.00">midi&#45;to&#45;freq.ts</text>
</a>
</g>
</g>
<!-- packages/cli/post&#45;f0&#45;util/src/util/round&#45;on&#45;midi.ts -->
<g id="node10" class="node">
<title>packages/cli/post&#45;f0&#45;util/src/util/round&#45;on&#45;midi.ts</title>
<g id="a_node10"><a xlink:href="packages/cli/post-f0-util/src/util/round-on-midi.ts" xlink:title="round&#45;on&#45;midi.ts">
<path fill="#ddfeff" stroke="black" d="M382.5,-306C382.5,-306 302.5,-306 302.5,-306 299.5,-306 296.5,-303 296.5,-300 296.5,-300 296.5,-294 296.5,-294 296.5,-291 299.5,-288 302.5,-288 302.5,-288 382.5,-288 382.5,-288 385.5,-288 388.5,-291 388.5,-294 388.5,-294 388.5,-300 388.5,-300 388.5,-303 385.5,-306 382.5,-306"/>
<text text-anchor="start" x="304.5" y="-294.8" font-family="Helvetica,sans-Serif" font-size="9.00">round&#45;on&#45;midi.ts</text>
</a>
</g>
</g>
<!-- packages/cli/post&#45;f0&#45;util/src/util/round&#45;on&#45;midi.ts&#45;&gt;packages/cli/post&#45;f0&#45;util/src/util/freq&#45;to&#45;midi.ts -->
<g id="edge3" class="edge">
<title>packages/cli/post&#45;f0&#45;util/src/util/round&#45;on&#45;midi.ts&#45;&gt;packages/cli/post&#45;f0&#45;util/src/util/freq&#45;to&#45;midi.ts</title>
<path fill="none" stroke="#000000" stroke-width="2" stroke-opacity="0.200000" d="M388.74,-297C397.14,-297 405.93,-297 414.36,-297"/>
<polygon fill="#000000" fill-opacity="0.200000" stroke="#000000" stroke-width="2" stroke-opacity="0.200000" points="414.72,-299.1 420.72,-297 414.72,-294.9 414.72,-299.1"/>
</g>
<!-- packages/cli/post&#45;f0&#45;util/src/util/round&#45;on&#45;midi.ts&#45;&gt;packages/cli/post&#45;f0&#45;util/src/util/midi&#45;to&#45;freq.ts -->
<g id="edge4" class="edge">
<title>packages/cli/post&#45;f0&#45;util/src/util/round&#45;on&#45;midi.ts&#45;&gt;packages/cli/post&#45;f0&#45;util/src/util/midi&#45;to&#45;freq.ts</title>
<path fill="none" stroke="#000000" stroke-width="2" stroke-opacity="0.200000" d="M378.6,-288C391.33,-284.74 405.82,-281.02 419.04,-277.63"/>
<polygon fill="#000000" fill-opacity="0.200000" stroke="#000000" stroke-width="2" stroke-opacity="0.200000" points="419.73,-279.62 425.02,-276.1 418.68,-275.55 419.73,-279.62"/>
</g>
<!-- packages/cli/post&#45;pyin/index.test.ts -->
<g id="node11" class="node">
<title>packages/cli/post&#45;pyin/index.test.ts</title>
<g id="a_node11"><a xlink:href="packages/cli/post-pyin/index.test.ts" xlink:title="no&#45;orphans">
<path fill="#ccffcc" stroke="orange" d="M99,-174C99,-174 38,-174 38,-174 35,-174 32,-171 32,-168 32,-168 32,-162 32,-162 32,-159 35,-156 38,-156 38,-156 99,-156 99,-156 102,-156 105,-159 105,-162 105,-162 105,-168 105,-168 105,-171 102,-174 99,-174"/>
<text text-anchor="start" x="40" y="-162.8" font-family="Helvetica,sans-Serif" font-size="9.00" fill="orange">index.test.ts</text>
</a>
</g>
</g>
<!-- packages/cli/post&#45;pyin/index.ts -->
<g id="node12" class="node">
<title>packages/cli/post&#45;pyin/index.ts</title>
<g id="a_node12"><a xlink:href="packages/cli/post-pyin/index.ts" xlink:title="index.ts">
<path fill="#ddfeff" stroke="black" d="M89.5,-144C89.5,-144 47.5,-144 47.5,-144 44.5,-144 41.5,-141 41.5,-138 41.5,-138 41.5,-132 41.5,-132 41.5,-129 44.5,-126 47.5,-126 47.5,-126 89.5,-126 89.5,-126 92.5,-126 95.5,-129 95.5,-132 95.5,-132 95.5,-138 95.5,-138 95.5,-141 92.5,-144 89.5,-144"/>
<text text-anchor="start" x="50" y="-132.8" font-family="Helvetica,sans-Serif" font-size="9.00">index.ts</text>
</a>
</g>
</g>
<!-- packages/cli/post&#45;pyin/index.ts&#45;&gt;fs -->
<g id="edge12" class="edge">
<title>packages/cli/post&#45;pyin/index.ts&#45;&gt;fs</title>
<path fill="none" stroke="#000000" stroke-dasharray="5,2" stroke-opacity="0.200000" d="M83.58,-125.69C106.49,-110.54 151.86,-80.52 177.57,-63.52"/>
<polygon fill="#000000" fill-opacity="0.200000" stroke="#000000" stroke-opacity="0.200000" points="178.9,-65.16 182.75,-60.1 176.58,-61.66 178.9,-65.16"/>
</g>
<!-- packages/cli/post&#45;pyin/index.ts&#45;&gt;packages/cli/post&#45;f0&#45;util/src/get&#45;bandpass&#45;frequency.ts -->
<g id="edge6" class="edge">
<title>packages/cli/post&#45;pyin/index.ts&#45;&gt;packages/cli/post&#45;f0&#45;util/src/get&#45;bandpass&#45;frequency.ts</title>
<path fill="none" stroke="#000000" stroke-width="2" stroke-opacity="0.200000" d="M75.63,-144.07C96.03,-174.27 161.79,-271.62 186.76,-308.58"/>
<polygon fill="#000000" fill-opacity="0.200000" stroke="#000000" stroke-width="2" stroke-opacity="0.200000" points="185.04,-309.78 190.14,-313.58 188.52,-307.43 185.04,-309.78"/>
</g>
<!-- packages/cli/post&#45;pyin/index.ts&#45;&gt;packages/cli/post&#45;f0&#45;util/src/get&#45;freq&#45;from&#45;phase.ts -->
<g id="edge7" class="edge">
<title>packages/cli/post&#45;pyin/index.ts&#45;&gt;packages/cli/post&#45;f0&#45;util/src/get&#45;freq&#45;from&#45;phase.ts</title>
<path fill="none" stroke="#000000" stroke-width="2" stroke-opacity="0.200000" d="M77.06,-144.41C98.47,-171.04 159.55,-247.04 185.08,-278.79"/>
<polygon fill="#000000" fill-opacity="0.200000" stroke="#000000" stroke-width="2" stroke-opacity="0.200000" points="183.74,-280.48 189.13,-283.84 187.01,-277.84 183.74,-280.48"/>
</g>
<!-- packages/cli/post&#45;pyin/index.ts&#45;&gt;packages/cli/post&#45;f0&#45;util/src/get&#45;frequency.ts -->
<g id="edge8" class="edge">
<title>packages/cli/post&#45;pyin/index.ts&#45;&gt;packages/cli/post&#45;f0&#45;util/src/get&#45;frequency.ts</title>
<path fill="none" stroke="#000000" stroke-width="2" stroke-opacity="0.200000" d="M78.63,-144.21C100.69,-166.44 156.97,-223.16 182.96,-249.36"/>
<polygon fill="#000000" fill-opacity="0.200000" stroke="#000000" stroke-width="2" stroke-opacity="0.200000" points="181.73,-251.1 187.45,-253.88 184.71,-248.14 181.73,-251.1"/>
</g>
<!-- packages/cli/post&#45;pyin/index.ts&#45;&gt;packages/cli/post&#45;f0&#45;util/src/get&#45;wav.ts -->
<g id="edge9" class="edge">
<title>packages/cli/post&#45;pyin/index.ts&#45;&gt;packages/cli/post&#45;f0&#45;util/src/get&#45;wav.ts</title>
<path fill="none" stroke="#000000" stroke-width="2" stroke-opacity="0.200000" d="M81.22,-144.04C103.9,-161.55 153.86,-200.09 179.93,-220.21"/>
<polygon fill="#000000" fill-opacity="0.200000" stroke="#000000" stroke-width="2" stroke-opacity="0.200000" points="178.77,-221.97 184.81,-223.98 181.34,-218.65 178.77,-221.97"/>
</g>
<!-- packages/cli/post&#45;pyin/index.ts&#45;&gt;packages/cli/post&#45;f0&#45;util/src/util/freq&#45;to&#45;midi.ts -->
<g id="edge10" class="edge">
<title>packages/cli/post&#45;pyin/index.ts&#45;&gt;packages/cli/post&#45;f0&#45;util/src/util/freq&#45;to&#45;midi.ts</title>
<path fill="none" stroke="#000000" stroke-width="2" stroke-opacity="0.200000" d="M90.47,-144.06C157.45,-171.67 359.02,-254.76 433.47,-285.45"/>
<polygon fill="#000000" fill-opacity="0.200000" stroke="#000000" stroke-width="2" stroke-opacity="0.200000" points="433.09,-287.56 439.44,-287.91 434.69,-283.68 433.09,-287.56"/>
</g>
<!-- packages/cli/post&#45;pyin/index.ts&#45;&gt;packages/cli/post&#45;f0&#45;util/src/util/round&#45;on&#45;midi.ts -->
<g id="edge11" class="edge">
<title>packages/cli/post&#45;pyin/index.ts&#45;&gt;packages/cli/post&#45;f0&#45;util/src/util/round&#45;on&#45;midi.ts</title>
<path fill="none" stroke="#000000" stroke-width="2" stroke-opacity="0.200000" d="M84.02,-144.17C130.55,-171.69 268.95,-253.52 321.73,-284.72"/>
<polygon fill="#000000" fill-opacity="0.200000" stroke="#000000" stroke-width="2" stroke-opacity="0.200000" points="320.92,-286.68 327.15,-287.93 323.06,-283.07 320.92,-286.68"/>
</g>
<!-- packages/cli/post&#45;pyin/src/index.ts -->
<g id="node13" class="node">
<title>packages/cli/post&#45;pyin/src/index.ts</title>
<g id="a_node13"><a xlink:href="packages/cli/post-pyin/src/index.ts" xlink:title="index.ts">
<path fill="#ddfeff" stroke="black" d="M218.5,-144C218.5,-144 176.5,-144 176.5,-144 173.5,-144 170.5,-141 170.5,-138 170.5,-138 170.5,-132 170.5,-132 170.5,-129 173.5,-126 176.5,-126 176.5,-126 218.5,-126 218.5,-126 221.5,-126 224.5,-129 224.5,-132 224.5,-132 224.5,-138 224.5,-138 224.5,-141 221.5,-144 218.5,-144"/>
<text text-anchor="start" x="179" y="-132.8" font-family="Helvetica,sans-Serif" font-size="9.00">index.ts</text>
</a>
</g>
</g>
<!-- packages/cli/post&#45;pyin/index.ts&#45;&gt;packages/cli/post&#45;pyin/src/index.ts -->
<g id="edge5" class="edge">
<title>packages/cli/post&#45;pyin/index.ts&#45;&gt;packages/cli/post&#45;pyin/src/index.ts</title>
<path fill="none" stroke="#000000" stroke-width="2" stroke-opacity="0.200000" d="M95.51,-135C115.32,-135 142.72,-135 163.99,-135"/>
<polygon fill="#000000" fill-opacity="0.200000" stroke="#000000" stroke-width="2" stroke-opacity="0.200000" points="164.09,-137.1 170.09,-135 164.09,-132.9 164.09,-137.1"/>
</g>
<!-- packages/cli/post&#45;pyin/src/get&#45;median&#45;frequency.ts -->
<g id="node14" class="node">
<title>packages/cli/post&#45;pyin/src/get&#45;median&#45;frequency.ts</title>
<g id="a_node14"><a xlink:href="packages/cli/post-pyin/src/get-median-frequency.ts" xlink:title="get&#45;median&#45;frequency.ts">
<path fill="#ddfeff" stroke="black" d="M400,-118C400,-118 285,-118 285,-118 282,-118 279,-115 279,-112 279,-112 279,-106 279,-106 279,-103 282,-100 285,-100 285,-100 400,-100 400,-100 403,-100 406,-103 406,-106 406,-106 406,-112 406,-112 406,-115 403,-118 400,-118"/>
<text text-anchor="start" x="287" y="-106.8" font-family="Helvetica,sans-Serif" font-size="9.00">get&#45;median&#45;frequency.ts</text>
</a>
</g>
</g>
<!-- packages/cli/post&#45;pyin/src/index.ts&#45;&gt;packages/cli/post&#45;pyin/src/get&#45;median&#45;frequency.ts -->
<g id="edge14" class="edge">
<title>packages/cli/post&#45;pyin/src/index.ts&#45;&gt;packages/cli/post&#45;pyin/src/get&#45;median&#45;frequency.ts</title>
<path fill="none" stroke="#000000" stroke-width="2" stroke-opacity="0.200000" d="M224.73,-130.23C241.75,-127.14 264.6,-122.98 285.56,-119.17"/>
<polygon fill="#000000" fill-opacity="0.200000" stroke="#000000" stroke-width="2" stroke-opacity="0.200000" points="292.09,-120.12 285.81,-119.13 291.34,-115.99 292.09,-120.12"/>
</g>
<!-- packages/cli/post&#45;pyin/src/pyin&#45;output&#45;type.ts -->
<g id="node16" class="node">
<title>packages/cli/post&#45;pyin/src/pyin&#45;output&#45;type.ts</title>
<g id="a_node16"><a xlink:href="packages/cli/post-pyin/src/pyin-output-type.ts" xlink:title="pyin&#45;output&#45;type.ts">
<path fill="#ddfeff" stroke="black" d="M389,-148C389,-148 296,-148 296,-148 293,-148 290,-145 290,-142 290,-142 290,-136 290,-136 290,-133 293,-130 296,-130 296,-130 389,-130 389,-130 392,-130 395,-133 395,-136 395,-136 395,-142 395,-142 395,-145 392,-148 389,-148"/>
<text text-anchor="start" x="298" y="-136.8" font-family="Helvetica,sans-Serif" font-size="9.00">pyin&#45;output&#45;type.ts</text>
</a>
</g>
</g>
<!-- packages/cli/post&#45;pyin/src/index.ts&#45;&gt;packages/cli/post&#45;pyin/src/pyin&#45;output&#45;type.ts -->
<g id="edge15" class="edge">
<title>packages/cli/post&#45;pyin/src/index.ts&#45;&gt;packages/cli/post&#45;pyin/src/pyin&#45;output&#45;type.ts</title>
<path fill="none" stroke="#000000" stroke-width="2" stroke-opacity="0.200000" d="M224.73,-135.73C241.31,-136.2 263.42,-136.82 283.93,-137.39"/>
<polygon fill="#000000" fill-opacity="0.200000" stroke="#000000" stroke-width="2" stroke-opacity="0.200000" points="289.9,-139.66 283.96,-137.39 290.01,-135.46 289.9,-139.66"/>
</g>
<!-- packages/cli/post&#45;pyin/src/median&#45;filter.ts -->
<g id="node15" class="node">
<title>packages/cli/post&#45;pyin/src/median&#45;filter.ts</title>
<g id="a_node15"><a xlink:href="packages/cli/post-pyin/src/median-filter.ts" xlink:title="median&#45;filter.ts">
<path fill="#ddfeff" stroke="black" d="M498,-122C498,-122 425,-122 425,-122 422,-122 419,-119 419,-116 419,-116 419,-110 419,-110 419,-107 422,-104 425,-104 425,-104 498,-104 498,-104 501,-104 504,-107 504,-110 504,-110 504,-116 504,-116 504,-119 501,-122 498,-122"/>
<text text-anchor="start" x="427" y="-110.8" font-family="Helvetica,sans-Serif" font-size="9.00">median&#45;filter.ts</text>
</a>
</g>
</g>
<!-- packages/cli/post&#45;pyin/src/get&#45;median&#45;frequency.ts&#45;&gt;packages/cli/post&#45;pyin/src/median&#45;filter.ts -->
<g id="edge13" class="edge">
<title>packages/cli/post&#45;pyin/src/get&#45;median&#45;frequency.ts&#45;&gt;packages/cli/post&#45;pyin/src/median&#45;filter.ts</title>
<path fill="none" stroke="#000000" stroke-width="2" stroke-opacity="0.200000" d="M406.11,-111.14C408.28,-111.21 410.45,-111.29 412.6,-111.36"/>
<polygon fill="#000000" fill-opacity="0.200000" stroke="#000000" stroke-width="2" stroke-opacity="0.200000" points="412.89,-113.47 418.96,-111.58 413.04,-109.28 412.89,-113.47"/>
</g>
<!-- packages/util/math/src/stochastic/median.ts -->
<g id="node17" class="node">
<title>packages/util/math/src/stochastic/median.ts</title>
<g id="a_node17"><a xlink:href="packages/util/math/src/stochastic/median.ts" xlink:title="median.ts">
<path fill="#ddfeff" stroke="black" d="M630,-126C630,-126 580,-126 580,-126 577,-126 574,-123 574,-120 574,-120 574,-114 574,-114 574,-111 577,-108 580,-108 580,-108 630,-108 630,-108 633,-108 636,-111 636,-114 636,-114 636,-120 636,-120 636,-123 633,-126 630,-126"/>
<text text-anchor="start" x="582" y="-114.8" font-family="Helvetica,sans-Serif" font-size="9.00">median.ts</text>
</a>
</g>
</g>
<!-- packages/cli/post&#45;pyin/src/median&#45;filter.ts&#45;&gt;packages/util/math/src/stochastic/median.ts -->
<g id="edge16" class="edge">
<title>packages/cli/post&#45;pyin/src/median&#45;filter.ts&#45;&gt;packages/util/math/src/stochastic/median.ts</title>
<path fill="none" stroke="#000000" stroke-width="2" stroke-opacity="0.200000" d="M504.19,-114.18C524.34,-114.75 548.31,-115.43 567.7,-115.97"/>
<polygon fill="#000000" fill-opacity="0.200000" stroke="#000000" stroke-width="2" stroke-opacity="0.200000" points="567.77,-118.08 573.83,-116.15 567.89,-113.88 567.77,-118.08"/>
</g>
</g>
</svg>
