<?xml version="1.0" encoding="UTF-8" standalone="no"?>
<!DOCTYPE svg PUBLIC "-//W3C//DTD SVG 1.1//EN"
 "http://www.w3.org/Graphics/SVG/1.1/DTD/svg11.dtd">
<!-- Generated by graphviz version 2.43.0 (0)
 -->
<!-- Title: dependency&#45;cruiser output Pages: 1 -->
<svg width="687pt" height="418pt"
 viewBox="0.00 0.00 687.00 418.00" xmlns="http://www.w3.org/2000/svg" xmlns:xlink="http://www.w3.org/1999/xlink">
<g id="graph0" class="graph" transform="scale(1 1) rotate(0) translate(4 414)">
<title>dependency&#45;cruiser output</title>
<polygon fill="white" stroke="transparent" points="-4,4 -4,-414 683,-414 683,4 -4,4"/>
<g id="clust1" class="cluster">
<title>cluster_node_modules</title>
<path fill="#ffffff" stroke="black" stroke-width="2" d="M240.5,-8C240.5,-8 306.5,-8 306.5,-8 312.5,-8 318.5,-14 318.5,-20 318.5,-20 318.5,-48 318.5,-48 318.5,-54 312.5,-60 306.5,-60 306.5,-60 240.5,-60 240.5,-60 234.5,-60 228.5,-54 228.5,-48 228.5,-48 228.5,-20 228.5,-20 228.5,-14 234.5,-8 240.5,-8"/>
<text text-anchor="middle" x="273.5" y="-48.8" font-family="Helvetica,sans-Serif" font-weight="bold" font-size="9.00">node_modules</text>
</g>
<g id="clust2" class="cluster">
<title>cluster_packages</title>
<path fill="#ffffff" stroke="black" stroke-width="2" d="M20,-68C20,-68 659,-68 659,-68 665,-68 671,-74 671,-80 671,-80 671,-390 671,-390 671,-396 665,-402 659,-402 659,-402 20,-402 20,-402 14,-402 8,-396 8,-390 8,-390 8,-80 8,-80 8,-74 14,-68 20,-68"/>
<text text-anchor="middle" x="339.5" y="-390.8" font-family="Helvetica,sans-Serif" font-weight="bold" font-size="9.00">packages</text>
</g>
<g id="clust3" class="cluster">
<title>cluster_packages/cli</title>
<path fill="#ffffff" stroke="black" stroke-width="2" d="M28,-76C28,-76 447,-76 447,-76 453,-76 459,-82 459,-88 459,-88 459,-364 459,-364 459,-370 453,-376 447,-376 447,-376 28,-376 28,-376 22,-376 16,-370 16,-364 16,-364 16,-88 16,-88 16,-82 22,-76 28,-76"/>
<text text-anchor="middle" x="237.5" y="-364.8" font-family="Helvetica,sans-Serif" font-weight="bold" font-size="9.00">cli</text>
</g>
<g id="clust4" class="cluster">
<title>cluster_packages/cli/post&#45;f0&#45;util</title>
<path fill="#ffffff" stroke="black" stroke-width="2" d="M128,-84C128,-84 190,-84 190,-84 196,-84 202,-90 202,-96 202,-96 202,-158 202,-158 202,-164 196,-170 190,-170 190,-170 128,-170 128,-170 122,-170 116,-164 116,-158 116,-158 116,-96 116,-96 116,-90 122,-84 128,-84"/>
<text text-anchor="middle" x="159" y="-158.8" font-family="Helvetica,sans-Serif" font-weight="bold" font-size="9.00">post&#45;f0&#45;util</text>
</g>
<g id="clust5" class="cluster">
<title>cluster_packages/cli/post&#45;f0&#45;util/dist</title>
<path fill="#ffffff" stroke="black" stroke-width="2" d="M136,-92C136,-92 182,-92 182,-92 188,-92 194,-98 194,-104 194,-104 194,-132 194,-132 194,-138 188,-144 182,-144 182,-144 136,-144 136,-144 130,-144 124,-138 124,-132 124,-132 124,-104 124,-104 124,-98 130,-92 136,-92"/>
<text text-anchor="middle" x="159" y="-132.8" font-family="Helvetica,sans-Serif" font-weight="bold" font-size="9.00">dist</text>
</g>
<g id="clust6" class="cluster">
<title>cluster_packages/cli/post&#45;pyin</title>
<path fill="#ffffff" stroke="black" stroke-width="2" d="M36,-178C36,-178 439,-178 439,-178 445,-178 451,-184 451,-190 451,-190 451,-338 451,-338 451,-344 445,-350 439,-350 439,-350 36,-350 36,-350 30,-350 24,-344 24,-338 24,-338 24,-190 24,-190 24,-184 30,-178 36,-178"/>
<text text-anchor="middle" x="237.5" y="-338.8" font-family="Helvetica,sans-Serif" font-weight="bold" font-size="9.00">post&#45;pyin</text>
</g>
<g id="clust7" class="cluster">
<title>cluster_packages/cli/post&#45;pyin/dist</title>
<path fill="#ffffff" stroke="black" stroke-width="2" d="M44,-242C44,-242 96,-242 96,-242 102,-242 108,-248 108,-254 108,-254 108,-312 108,-312 108,-318 102,-324 96,-324 96,-324 44,-324 44,-324 38,-324 32,-318 32,-312 32,-312 32,-254 32,-254 32,-248 38,-242 44,-242"/>
<text text-anchor="middle" x="70" y="-312.8" font-family="Helvetica,sans-Serif" font-weight="bold" font-size="9.00">dist</text>
</g>
<g id="clust8" class="cluster">
<title>cluster_packages/cli/post&#45;pyin/src</title>
<path fill="#ffffff" stroke="black" stroke-width="2" d="M136,-186C136,-186 431,-186 431,-186 437,-186 443,-192 443,-198 443,-198 443,-256 443,-256 443,-262 437,-268 431,-268 431,-268 136,-268 136,-268 130,-268 124,-262 124,-256 124,-256 124,-198 124,-198 124,-192 130,-186 136,-186"/>
<text text-anchor="middle" x="283.5" y="-256.8" font-family="Helvetica,sans-Serif" font-weight="bold" font-size="9.00">src</text>
</g>
<g id="clust9" class="cluster">
<title>cluster_packages/util</title>
<path fill="#ffffff" stroke="black" stroke-width="2" d="M479,-244C479,-244 651,-244 651,-244 657,-244 663,-250 663,-256 663,-256 663,-352 663,-352 663,-358 657,-364 651,-364 651,-364 479,-364 479,-364 473,-364 467,-358 467,-352 467,-352 467,-256 467,-256 467,-250 473,-244 479,-244"/>
<text text-anchor="middle" x="565" y="-352.8" font-family="Helvetica,sans-Serif" font-weight="bold" font-size="9.00">util</text>
</g>
<g id="clust10" class="cluster">
<title>cluster_packages/util/math</title>
<path fill="#ffffff" stroke="black" stroke-width="2" d="M487,-252C487,-252 549,-252 549,-252 555,-252 561,-258 561,-264 561,-264 561,-326 561,-326 561,-332 555,-338 549,-338 549,-338 487,-338 487,-338 481,-338 475,-332 475,-326 475,-326 475,-264 475,-264 475,-258 481,-252 487,-252"/>
<text text-anchor="middle" x="518" y="-326.8" font-family="Helvetica,sans-Serif" font-weight="bold" font-size="9.00">math</text>
</g>
<g id="clust11" class="cluster">
<title>cluster_packages/util/math/dist</title>
<path fill="#ffffff" stroke="black" stroke-width="2" d="M495,-260C495,-260 541,-260 541,-260 547,-260 553,-266 553,-272 553,-272 553,-300 553,-300 553,-306 547,-312 541,-312 541,-312 495,-312 495,-312 489,-312 483,-306 483,-300 483,-300 483,-272 483,-272 483,-266 489,-260 495,-260"/>
<text text-anchor="middle" x="518" y="-300.8" font-family="Helvetica,sans-Serif" font-weight="bold" font-size="9.00">dist</text>
</g>
<g id="clust12" class="cluster">
<title>cluster_packages/util/stdlib</title>
<path fill="#ffffff" stroke="black" stroke-width="2" d="M581,-252C581,-252 643,-252 643,-252 649,-252 655,-258 655,-264 655,-264 655,-326 655,-326 655,-332 649,-338 643,-338 643,-338 581,-338 581,-338 575,-338 569,-332 569,-326 569,-326 569,-264 569,-264 569,-258 575,-252 581,-252"/>
<text text-anchor="middle" x="612" y="-326.8" font-family="Helvetica,sans-Serif" font-weight="bold" font-size="9.00">stdlib</text>
</g>
<g id="clust13" class="cluster">
<title>cluster_packages/util/stdlib/dist</title>
<path fill="#ffffff" stroke="black" stroke-width="2" d="M589,-260C589,-260 635,-260 635,-260 641,-260 647,-266 647,-272 647,-272 647,-300 647,-300 647,-306 641,-312 635,-312 635,-312 589,-312 589,-312 583,-312 577,-306 577,-300 577,-300 577,-272 577,-272 577,-266 583,-260 589,-260"/>
<text text-anchor="middle" x="612" y="-300.8" font-family="Helvetica,sans-Serif" font-weight="bold" font-size="9.00">dist</text>
</g>
<!-- fs -->
<g id="node1" class="node">
<title>fs</title>
<g id="a_node1"><a xlink:href="https://nodejs.org/api/fs.html" xlink:title="fs">
<path fill="#ffffcc" stroke="grey" d="M180,-60C180,-60 138,-60 138,-60 135,-60 132,-57 132,-54 132,-54 132,-48 132,-48 132,-45 135,-42 138,-42 138,-42 180,-42 180,-42 183,-42 186,-45 186,-48 186,-48 186,-54 186,-54 186,-57 183,-60 180,-60"/>
<text text-anchor="middle" x="159" y="-48.8" font-family="Helvetica,sans-Serif" font-size="9.00" fill="grey">fs</text>
</a>
</g>
</g>
<!-- node_modules/wavefile -->
<g id="node2" class="node">
<title>node_modules/wavefile</title>
<g id="a_node2"><a xlink:href="https://www.npmjs.com/package/wavefile" xlink:title="wavefile">
<polygon fill="#c40b0a" fill-opacity="0.101961" stroke="black" points="300.5,-34 248.5,-34 246.5,-32 246.5,-16 298.5,-16 300.5,-18 300.5,-34"/>
<polyline fill="none" stroke="black" points="298.5,-32 246.5,-32 "/>
<polyline fill="none" stroke="black" points="298.5,-32 298.5,-16 "/>
<polyline fill="none" stroke="black" points="298.5,-32 300.5,-34 "/>
<text text-anchor="start" x="255" y="-22.8" font-family="Helvetica,sans-Serif" font-size="9.00" fill="#c40b0a">wavefile</text>
</a>
</g>
</g>
<!-- packages/cli/post&#45;f0&#45;util/dist/index.js -->
<g id="node3" class="node">
<title>packages/cli/post&#45;f0&#45;util/dist/index.js</title>
<g id="a_node3"><a xlink:href="packages/cli/post-f0-util/dist/index.js" xlink:title="index.js">
<path fill="#ffffcc" stroke="black" d="M180,-118C180,-118 138,-118 138,-118 135,-118 132,-115 132,-112 132,-112 132,-106 132,-106 132,-103 135,-100 138,-100 138,-100 180,-100 180,-100 183,-100 186,-103 186,-106 186,-106 186,-112 186,-112 186,-115 183,-118 180,-118"/>
<text text-anchor="start" x="141.5" y="-106.8" font-family="Helvetica,sans-Serif" font-size="9.00">index.js</text>
</a>
</g>
</g>
<!-- packages/cli/post&#45;f0&#45;util/dist/index.js&#45;&gt;node_modules/wavefile -->
<g id="edge1" class="edge">
<title>packages/cli/post&#45;f0&#45;util/dist/index.js&#45;&gt;node_modules/wavefile</title>
<path fill="none" stroke="#000000" stroke-opacity="0.200000" d="M172.47,-99.69C192.68,-84.6 232.62,-54.77 255.45,-37.73"/>
<polygon fill="#000000" fill-opacity="0.200000" stroke="#000000" stroke-opacity="0.200000" points="256.77,-39.37 260.32,-34.1 254.25,-36 256.77,-39.37"/>
</g>
<!-- packages/cli/post&#45;pyin/dist/index.js -->
<g id="node4" class="node">
<title>packages/cli/post&#45;pyin/dist/index.js</title>
<g id="a_node4"><a xlink:href="packages/cli/post-pyin/dist/index.js" xlink:title="index.js">
<path fill="#ffffcc" stroke="black" d="M91,-268C91,-268 49,-268 49,-268 46,-268 43,-265 43,-262 43,-262 43,-256 43,-256 43,-253 46,-250 49,-250 49,-250 91,-250 91,-250 94,-250 97,-253 97,-256 97,-256 97,-262 97,-262 97,-265 94,-268 91,-268"/>
<text text-anchor="start" x="52.5" y="-256.8" font-family="Helvetica,sans-Serif" font-size="9.00">index.js</text>
</a>
</g>
</g>
<!-- packages/cli/post&#45;pyin/dist/index.js&#45;&gt;fs -->
<g id="edge4" class="edge">
<title>packages/cli/post&#45;pyin/dist/index.js&#45;&gt;fs</title>
<path fill="none" stroke="#000000" stroke-dasharray="5,2" stroke-opacity="0.200000" d="M97.07,-254.26C101.32,-252.36 105.23,-249.71 108,-246 118.46,-232.01 108.51,-104.78 116,-89 120.75,-79 129.45,-70.44 137.7,-63.99"/>
<polygon fill="#000000" fill-opacity="0.200000" stroke="#000000" stroke-opacity="0.200000" points="139.17,-65.52 142.75,-60.26 136.67,-62.14 139.17,-65.52"/>
</g>
<!-- packages/cli/post&#45;pyin/dist/index.js&#45;&gt;packages/cli/post&#45;f0&#45;util/dist/index.js -->
<g id="edge3" class="edge">
<title>packages/cli/post&#45;pyin/dist/index.js&#45;&gt;packages/cli/post&#45;f0&#45;util/dist/index.js</title>
<path fill="none" stroke="#000000" stroke-width="2" stroke-opacity="0.200000" d="M97.22,-253.92C101.35,-252.05 105.18,-249.5 108,-246 125.74,-224.05 107.09,-209.78 116,-183 123.41,-160.73 137.81,-137.59 147.66,-123.25"/>
<polygon fill="#000000" fill-opacity="0.200000" stroke="#000000" stroke-width="2" stroke-opacity="0.200000" points="149.59,-124.14 151.31,-118.02 146.15,-121.73 149.59,-124.14"/>
</g>
<!-- packages/util/math/dist/index.js -->
<g id="node5" class="node">
<title>packages/util/math/dist/index.js</title>
<g id="a_node5"><a xlink:href="packages/util/math/dist/index.js" xlink:title="index.js">
<path fill="#ffffcc" stroke="black" d="M539,-286C539,-286 497,-286 497,-286 494,-286 491,-283 491,-280 491,-280 491,-274 491,-274 491,-271 494,-268 497,-268 497,-268 539,-268 539,-268 542,-268 545,-271 545,-274 545,-274 545,-280 545,-280 545,-283 542,-286 539,-286"/>
<text text-anchor="start" x="500.5" y="-274.8" font-family="Helvetica,sans-Serif" font-size="9.00">index.js</text>
</a>
</g>
</g>
<!-- packages/cli/post&#45;pyin/dist/index.js&#45;&gt;packages/util/math/dist/index.js -->
<g id="edge2" class="edge">
<title>packages/cli/post&#45;pyin/dist/index.js&#45;&gt;packages/util/math/dist/index.js</title>
<path fill="none" stroke="#000000" stroke-width="2" stroke-opacity="0.200000" d="M97.43,-267.2C103.47,-268.76 109.91,-270.16 116,-271 186.91,-280.83 402.65,-278.74 484.79,-277.54"/>
<polygon fill="#000000" fill-opacity="0.200000" stroke="#000000" stroke-width="2" stroke-opacity="0.200000" points="484.96,-279.63 490.93,-277.44 484.9,-275.43 484.96,-279.63"/>
</g>
<!-- packages/util/stdlib/dist/index.js -->
<g id="node13" class="node">
<title>packages/util/stdlib/dist/index.js</title>
<g id="a_node13"><a xlink:href="packages/util/stdlib/dist/index.js" xlink:title="index.js">
<path fill="#ffffcc" stroke="black" d="M633,-286C633,-286 591,-286 591,-286 588,-286 585,-283 585,-280 585,-280 585,-274 585,-274 585,-271 588,-268 591,-268 591,-268 633,-268 633,-268 636,-268 639,-271 639,-274 639,-274 639,-280 639,-280 639,-283 636,-286 633,-286"/>
<text text-anchor="start" x="594.5" y="-274.8" font-family="Helvetica,sans-Serif" font-size="9.00">index.js</text>
</a>
</g>
</g>
<!-- packages/util/math/dist/index.js&#45;&gt;packages/util/stdlib/dist/index.js -->
<g id="edge15" class="edge">
<title>packages/util/math/dist/index.js&#45;&gt;packages/util/stdlib/dist/index.js</title>
<path fill="none" stroke="#000000" stroke-width="2" stroke-opacity="0.200000" d="M545.12,-277C555.51,-277 567.58,-277 578.52,-277"/>
<polygon fill="#000000" fill-opacity="0.200000" stroke="#000000" stroke-width="2" stroke-opacity="0.200000" points="578.82,-279.1 584.82,-277 578.82,-274.9 578.82,-279.1"/>
</g>
<!-- packages/cli/post&#45;pyin/dist/index.mjs -->
<g id="node6" class="node">
<title>packages/cli/post&#45;pyin/dist/index.mjs</title>
<g id="a_node6"><a xlink:href="packages/cli/post-pyin/dist/index.mjs" xlink:title="index.mjs">
<path fill="#ffffcc" stroke="black" d="M94,-298C94,-298 46,-298 46,-298 43,-298 40,-295 40,-292 40,-292 40,-286 40,-286 40,-283 43,-280 46,-280 46,-280 94,-280 94,-280 97,-280 100,-283 100,-286 100,-286 100,-292 100,-292 100,-295 97,-298 94,-298"/>
<text text-anchor="start" x="48" y="-286.8" font-family="Helvetica,sans-Serif" font-size="9.00">index.mjs</text>
</a>
</g>
</g>
<!-- packages/cli/post&#45;pyin/dist/index.mjs&#45;&gt;fs -->
<g id="edge7" class="edge">
<title>packages/cli/post&#45;pyin/dist/index.mjs&#45;&gt;fs</title>
<path fill="none" stroke="#000000" stroke-dasharray="5,2" stroke-opacity="0.200000" d="M100.08,-281.22C103.16,-279.31 105.92,-276.95 108,-274 119.86,-257.19 107.25,-107.62 116,-89 120.71,-78.98 129.4,-70.42 137.67,-63.98"/>
<polygon fill="#000000" fill-opacity="0.200000" stroke="#000000" stroke-opacity="0.200000" points="139.14,-65.5 142.72,-60.24 136.64,-62.12 139.14,-65.5"/>
</g>
<!-- packages/cli/post&#45;pyin/dist/index.mjs&#45;&gt;packages/cli/post&#45;f0&#45;util/dist/index.js -->
<g id="edge6" class="edge">
<title>packages/cli/post&#45;pyin/dist/index.mjs&#45;&gt;packages/cli/post&#45;f0&#45;util/dist/index.js</title>
<path fill="none" stroke="#000000" stroke-width="2" stroke-opacity="0.200000" d="M100.31,-280.91C103.27,-279.06 105.94,-276.79 108,-274 120.07,-257.68 109.96,-202.38 116,-183 122.9,-160.84 137.16,-138 147.14,-123.67"/>
<polygon fill="#000000" fill-opacity="0.200000" stroke="#000000" stroke-width="2" stroke-opacity="0.200000" points="149.09,-124.54 150.86,-118.43 145.67,-122.11 149.09,-124.54"/>
</g>
<!-- packages/cli/post&#45;pyin/dist/index.mjs&#45;&gt;packages/util/math/dist/index.js -->
<g id="edge5" class="edge">
<title>packages/cli/post&#45;pyin/dist/index.mjs&#45;&gt;packages/util/math/dist/index.js</title>
<path fill="none" stroke="#000000" stroke-width="2" stroke-opacity="0.200000" d="M100.22,-288.88C164.9,-288.5 325.06,-287 459,-281 467.28,-280.63 476.21,-280.09 484.52,-279.52"/>
<polygon fill="#000000" fill-opacity="0.200000" stroke="#000000" stroke-width="2" stroke-opacity="0.200000" points="484.9,-281.6 490.74,-279.08 484.61,-277.41 484.9,-281.6"/>
</g>
<!-- packages/cli/post&#45;pyin/index.test.ts -->
<g id="node7" class="node">
<title>packages/cli/post&#45;pyin/index.test.ts</title>
<g id="a_node7"><a xlink:href="packages/cli/post-pyin/index.test.ts" xlink:title="no&#45;orphans">
<path fill="#ccffcc" stroke="orange" d="M100.5,-234C100.5,-234 39.5,-234 39.5,-234 36.5,-234 33.5,-231 33.5,-228 33.5,-228 33.5,-222 33.5,-222 33.5,-219 36.5,-216 39.5,-216 39.5,-216 100.5,-216 100.5,-216 103.5,-216 106.5,-219 106.5,-222 106.5,-222 106.5,-228 106.5,-228 106.5,-231 103.5,-234 100.5,-234"/>
<text text-anchor="start" x="41.5" y="-222.8" font-family="Helvetica,sans-Serif" font-size="9.00" fill="orange">index.test.ts</text>
</a>
</g>
</g>
<!-- packages/cli/post&#45;pyin/index.ts -->
<g id="node8" class="node">
<title>packages/cli/post&#45;pyin/index.ts</title>
<g id="a_node8"><a xlink:href="packages/cli/post-pyin/index.ts" xlink:title="index.ts">
<path fill="#ddfeff" stroke="black" d="M91,-204C91,-204 49,-204 49,-204 46,-204 43,-201 43,-198 43,-198 43,-192 43,-192 43,-189 46,-186 49,-186 49,-186 91,-186 91,-186 94,-186 97,-189 97,-192 97,-192 97,-198 97,-198 97,-201 94,-204 91,-204"/>
<text text-anchor="start" x="51.5" y="-192.8" font-family="Helvetica,sans-Serif" font-size="9.00">index.ts</text>
</a>
</g>
</g>
<!-- packages/cli/post&#45;pyin/index.ts&#45;&gt;fs -->
<g id="edge10" class="edge">
<title>packages/cli/post&#45;pyin/index.ts&#45;&gt;fs</title>
<path fill="none" stroke="#000000" stroke-dasharray="5,2" stroke-opacity="0.200000" d="M73.43,-185.82C78.83,-166.56 93.17,-121.09 116,-89 122.7,-79.58 132.11,-70.79 140.32,-64.05"/>
<polygon fill="#000000" fill-opacity="0.200000" stroke="#000000" stroke-opacity="0.200000" points="141.86,-65.51 145.25,-60.13 139.25,-62.22 141.86,-65.51"/>
</g>
<!-- packages/cli/post&#45;pyin/index.ts&#45;&gt;packages/cli/post&#45;f0&#45;util/dist/index.js -->
<g id="edge9" class="edge">
<title>packages/cli/post&#45;pyin/index.ts&#45;&gt;packages/cli/post&#45;f0&#45;util/dist/index.js</title>
<path fill="none" stroke="#000000" stroke-width="2" stroke-opacity="0.200000" d="M80.31,-185.8C95.62,-170.67 126.18,-140.46 144.07,-122.77"/>
<polygon fill="#000000" fill-opacity="0.200000" stroke="#000000" stroke-width="2" stroke-opacity="0.200000" points="145.97,-123.85 148.76,-118.14 143.01,-120.86 145.97,-123.85"/>
</g>
<!-- packages/cli/post&#45;pyin/src/index.ts -->
<g id="node9" class="node">
<title>packages/cli/post&#45;pyin/src/index.ts</title>
<g id="a_node9"><a xlink:href="packages/cli/post-pyin/src/index.ts" xlink:title="index.ts">
<path fill="#ddfeff" stroke="black" d="M180,-212C180,-212 138,-212 138,-212 135,-212 132,-209 132,-206 132,-206 132,-200 132,-200 132,-197 135,-194 138,-194 138,-194 180,-194 180,-194 183,-194 186,-197 186,-200 186,-200 186,-206 186,-206 186,-209 183,-212 180,-212"/>
<text text-anchor="start" x="140.5" y="-200.8" font-family="Helvetica,sans-Serif" font-size="9.00">index.ts</text>
</a>
</g>
</g>
<!-- packages/cli/post&#45;pyin/index.ts&#45;&gt;packages/cli/post&#45;pyin/src/index.ts -->
<g id="edge8" class="edge">
<title>packages/cli/post&#45;pyin/index.ts&#45;&gt;packages/cli/post&#45;pyin/src/index.ts</title>
<path fill="none" stroke="#000000" stroke-width="2" stroke-opacity="0.200000" d="M97.1,-197.4C106.14,-198.23 116.37,-199.17 125.83,-200.04"/>
<polygon fill="#000000" fill-opacity="0.200000" stroke="#000000" stroke-width="2" stroke-opacity="0.200000" points="125.75,-202.14 131.92,-200.6 126.13,-197.96 125.75,-202.14"/>
</g>
<!-- packages/cli/post&#45;pyin/src/get&#45;median&#45;frequency.ts -->
<g id="node10" class="node">
<title>packages/cli/post&#45;pyin/src/get&#45;median&#45;frequency.ts</title>
<g id="a_node10"><a xlink:href="packages/cli/post-pyin/src/get-median-frequency.ts" xlink:title="get&#45;median&#45;frequency.ts">
<path fill="#ddfeff" stroke="black" d="M331,-242C331,-242 216,-242 216,-242 213,-242 210,-239 210,-236 210,-236 210,-230 210,-230 210,-227 213,-224 216,-224 216,-224 331,-224 331,-224 334,-224 337,-227 337,-230 337,-230 337,-236 337,-236 337,-239 334,-242 331,-242"/>
<text text-anchor="start" x="218" y="-230.8" font-family="Helvetica,sans-Serif" font-size="9.00">get&#45;median&#45;frequency.ts</text>
</a>
</g>
</g>
<!-- packages/cli/post&#45;pyin/src/index.ts&#45;&gt;packages/cli/post&#45;pyin/src/get&#45;median&#45;frequency.ts -->
<g id="edge12" class="edge">
<title>packages/cli/post&#45;pyin/src/index.ts&#45;&gt;packages/cli/post&#45;pyin/src/get&#45;median&#45;frequency.ts</title>
<path fill="none" stroke="#000000" stroke-width="2" stroke-opacity="0.200000" d="M186.13,-211.14C193.8,-213.45 202.21,-215.9 210,-218 215.66,-219.53 221.62,-221.06 227.53,-222.53"/>
<polygon fill="#000000" fill-opacity="0.200000" stroke="#000000" stroke-width="2" stroke-opacity="0.200000" points="232.9,-226.01 227.58,-222.54 233.91,-221.93 232.9,-226.01"/>
</g>
<!-- packages/cli/post&#45;pyin/src/pyin&#45;output&#45;type.ts -->
<g id="node12" class="node">
<title>packages/cli/post&#45;pyin/src/pyin&#45;output&#45;type.ts</title>
<g id="a_node12"><a xlink:href="packages/cli/post-pyin/src/pyin-output-type.ts" xlink:title="pyin&#45;output&#45;type.ts">
<path fill="#ddfeff" stroke="black" d="M320,-212C320,-212 227,-212 227,-212 224,-212 221,-209 221,-206 221,-206 221,-200 221,-200 221,-197 224,-194 227,-194 227,-194 320,-194 320,-194 323,-194 326,-197 326,-200 326,-200 326,-206 326,-206 326,-209 323,-212 320,-212"/>
<text text-anchor="start" x="229" y="-200.8" font-family="Helvetica,sans-Serif" font-size="9.00">pyin&#45;output&#45;type.ts</text>
</a>
</g>
</g>
<!-- packages/cli/post&#45;pyin/src/index.ts&#45;&gt;packages/cli/post&#45;pyin/src/pyin&#45;output&#45;type.ts -->
<g id="edge13" class="edge">
<title>packages/cli/post&#45;pyin/src/index.ts&#45;&gt;packages/cli/post&#45;pyin/src/pyin&#45;output&#45;type.ts</title>
<path fill="none" stroke="#000000" stroke-width="2" stroke-opacity="0.200000" d="M186.09,-203C194.69,-203 204.63,-203 214.63,-203"/>
<polygon fill="#000000" fill-opacity="0.200000" stroke="#000000" stroke-width="2" stroke-opacity="0.200000" points="220.86,-205.1 214.86,-203 220.86,-200.9 220.86,-205.1"/>
</g>
<!-- packages/cli/post&#45;pyin/src/median&#45;filter.ts -->
<g id="node11" class="node">
<title>packages/cli/post&#45;pyin/src/median&#45;filter.ts</title>
<g id="a_node11"><a xlink:href="packages/cli/post-pyin/src/median-filter.ts" xlink:title="median&#45;filter.ts">
<path fill="#ddfeff" stroke="black" d="M429,-242C429,-242 356,-242 356,-242 353,-242 350,-239 350,-236 350,-236 350,-230 350,-230 350,-227 353,-224 356,-224 356,-224 429,-224 429,-224 432,-224 435,-227 435,-230 435,-230 435,-236 435,-236 435,-239 432,-242 429,-242"/>
<text text-anchor="start" x="358" y="-230.8" font-family="Helvetica,sans-Serif" font-size="9.00">median&#45;filter.ts</text>
</a>
</g>
</g>
<!-- packages/cli/post&#45;pyin/src/get&#45;median&#45;frequency.ts&#45;&gt;packages/cli/post&#45;pyin/src/median&#45;filter.ts -->
<g id="edge11" class="edge">
<title>packages/cli/post&#45;pyin/src/get&#45;median&#45;frequency.ts&#45;&gt;packages/cli/post&#45;pyin/src/median&#45;filter.ts</title>
<path fill="none" stroke="#000000" stroke-width="2" stroke-opacity="0.200000" d="M337.11,-233C339.28,-233 341.45,-233 343.6,-233"/>
<polygon fill="#000000" fill-opacity="0.200000" stroke="#000000" stroke-width="2" stroke-opacity="0.200000" points="343.96,-235.1 349.96,-233 343.96,-230.9 343.96,-235.1"/>
</g>
<!-- packages/cli/post&#45;pyin/src/median&#45;filter.ts&#45;&gt;packages/util/math/dist/index.js -->
<g id="edge14" class="edge">
<title>packages/cli/post&#45;pyin/src/median&#45;filter.ts&#45;&gt;packages/util/math/dist/index.js</title>
<path fill="none" stroke="#000000" stroke-width="2" stroke-opacity="0.200000" d="M418.79,-242.01C438.14,-248.9 464.94,-258.45 485.65,-265.83"/>
<polygon fill="#000000" fill-opacity="0.200000" stroke="#000000" stroke-width="2" stroke-opacity="0.200000" points="484.96,-267.82 491.32,-267.85 486.37,-263.86 484.96,-267.82"/>
</g>
</g>
</svg>
