<?xml version="1.0" encoding="UTF-8" standalone="no"?>
<!DOCTYPE svg PUBLIC "-//W3C//DTD SVG 1.1//EN"
 "http://www.w3.org/Graphics/SVG/1.1/DTD/svg11.dtd">
<!-- Generated by graphviz version 2.43.0 (0)
 -->
<!-- Title: dependency&#45;cruiser output Pages: 1 -->
<svg width="325pt" height="287pt"
 viewBox="0.00 0.00 325.10 287.11" xmlns="http://www.w3.org/2000/svg" xmlns:xlink="http://www.w3.org/1999/xlink">
<g id="graph0" class="graph" transform="scale(1 1) rotate(0) translate(4 283.11)">
<title>dependency&#45;cruiser output</title>
<polygon fill="white" stroke="transparent" points="-4,4 -4,-283.11 321.1,-283.11 321.1,4 -4,4"/>
<g id="clust1" class="cluster">
<title>cluster_packages</title>
<path fill="#ffffff" stroke="black" stroke-width="2" d="M12,0C12,0 305.1,0 305.1,0 311.1,0 317.1,-6 317.1,-12 317.1,-12 317.1,-267.11 317.1,-267.11 317.1,-273.11 311.1,-279.11 305.1,-279.11 305.1,-279.11 12,-279.11 12,-279.11 6,-279.11 0,-273.11 0,-267.11 0,-267.11 0,-12 0,-12 0,-6 6,0 12,0"/>
<text text-anchor="middle" x="158.55" y="-267.91" font-family="Helvetica,sans-Serif" font-weight="bold" font-size="9.00">packages</text>
</g>
<!-- fs -->
<g id="node1" class="node">
<title>fs</title>
<g id="a_node1"><a xlink:href="https://nodejs.org/api/fs.html" xlink:title="fs">
<path fill="#ffffcc" stroke="grey" d="M54.64,-47.07C54.64,-47.07 12.64,-47.07 12.64,-47.07 9.64,-47.07 6.64,-44.07 6.64,-41.07 6.64,-41.07 6.64,-35.07 6.64,-35.07 6.64,-32.07 9.64,-29.07 12.64,-29.07 12.64,-29.07 54.64,-29.07 54.64,-29.07 57.64,-29.07 60.64,-32.07 60.64,-35.07 60.64,-35.07 60.64,-41.07 60.64,-41.07 60.64,-44.07 57.64,-47.07 54.64,-47.07"/>
<text text-anchor="middle" x="33.64" y="-35.87" font-family="Helvetica,sans-Serif" font-size="9.00" fill="grey">fs</text>
</a>
</g>
</g>
<!-- packages/cli/post&#45;f0&#45;util/dist/index.js -->
<g id="node2" class="node">
<title>packages/cli/post&#45;f0&#45;util/dist/index.js</title>
<g id="a_node2"><a xlink:href="packages/cli/post-f0-util/dist/index.js" xlink:title="index.js">
<polygon fill="#ffffcc" stroke="black" points="168.55,-18 167.05,-20 156.55,-20 155.05,-18 114.55,-18 114.55,0 168.55,0 168.55,-18"/>
<text text-anchor="start" x="124.05" y="-6.8" font-family="Helvetica,sans-Serif" font-size="9.00">index.js</text>
</a>
</g>
</g>
<!-- packages/cli/post&#45;pyin/index.test.ts -->
<g id="node3" class="node">
<title>packages/cli/post&#45;pyin/index.test.ts</title>
<g id="a_node3"><a xlink:href="packages/cli/post-pyin/index.test.ts" xlink:title="no&#45;orphans">
<path fill="#ccffcc" stroke="orange" d="M259,-138C259,-138 198,-138 198,-138 195,-138 192,-135 192,-132 192,-132 192,-126 192,-126 192,-123 195,-120 198,-120 198,-120 259,-120 259,-120 262,-120 265,-123 265,-126 265,-126 265,-132 265,-132 265,-135 262,-138 259,-138"/>
<text text-anchor="start" x="200" y="-126.8" font-family="Helvetica,sans-Serif" font-size="9.00" fill="orange">index.test.ts</text>
</a>
</g>
</g>
<!-- packages/cli/post&#45;pyin/index.ts -->
<g id="node4" class="node">
<title>packages/cli/post&#45;pyin/index.ts</title>
<g id="a_node4"><a xlink:href="packages/cli/post-pyin/index.ts" xlink:title="index.ts">
<path fill="#ddfeff" stroke="black" d="M121.73,-81.12C121.73,-81.12 79.73,-81.12 79.73,-81.12 76.73,-81.12 73.73,-78.12 73.73,-75.12 73.73,-75.12 73.73,-69.12 73.73,-69.12 73.73,-66.12 76.73,-63.12 79.73,-63.12 79.73,-63.12 121.73,-63.12 121.73,-63.12 124.73,-63.12 127.73,-66.12 127.73,-69.12 127.73,-69.12 127.73,-75.12 127.73,-75.12 127.73,-78.12 124.73,-81.12 121.73,-81.12"/>
<text text-anchor="start" x="82.23" y="-69.92" font-family="Helvetica,sans-Serif" font-size="9.00">index.ts</text>
</a>
</g>
</g>
<!-- packages/cli/post&#45;pyin/index.ts&#45;&gt;fs -->
<g id="edge3" class="edge">
<title>packages/cli/post&#45;pyin/index.ts&#45;&gt;fs</title>
<path fill="none" stroke="#000000" stroke-dasharray="5,2" stroke-opacity="0.200000" d="M82.75,-62.99C74.93,-59.02 65.66,-54.32 57.29,-50.07"/>
<polygon fill="#000000" fill-opacity="0.200000" stroke="#000000" stroke-opacity="0.200000" points="57.97,-48.06 51.67,-47.22 56.07,-51.81 57.97,-48.06"/>
</g>
<!-- packages/cli/post&#45;pyin/index.ts&#45;&gt;packages/cli/post&#45;f0&#45;util/dist/index.js -->
<g id="edge2" class="edge">
<title>packages/cli/post&#45;pyin/index.ts&#45;&gt;packages/cli/post&#45;f0&#45;util/dist/index.js</title>
<path fill="none" stroke="#000000" stroke-width="2" stroke-opacity="0.200000" d="M106.58,-63.07C113.31,-52.67 124.45,-35.45 132.34,-23.24"/>
<polygon fill="#000000" fill-opacity="0.200000" stroke="#000000" stroke-width="2" stroke-opacity="0.200000" points="134.22,-24.21 135.71,-18.03 130.69,-21.92 134.22,-24.21"/>
</g>
<!-- packages/cli/post&#45;pyin/src/index.ts -->
<g id="node5" class="node">
<title>packages/cli/post&#45;pyin/src/index.ts</title>
<g id="a_node5"><a xlink:href="packages/cli/post-pyin/src/index.ts" xlink:title="index.ts">
<path fill="#ddfeff" stroke="black" d="M134.47,-157.64C134.47,-157.64 92.47,-157.64 92.47,-157.64 89.47,-157.64 86.47,-154.64 86.47,-151.64 86.47,-151.64 86.47,-145.64 86.47,-145.64 86.47,-142.64 89.47,-139.64 92.47,-139.64 92.47,-139.64 134.47,-139.64 134.47,-139.64 137.47,-139.64 140.47,-142.64 140.47,-145.64 140.47,-145.64 140.47,-151.64 140.47,-151.64 140.47,-154.64 137.47,-157.64 134.47,-157.64"/>
<text text-anchor="start" x="94.97" y="-146.44" font-family="Helvetica,sans-Serif" font-size="9.00">index.ts</text>
</a>
</g>
</g>
<!-- packages/cli/post&#45;pyin/index.ts&#45;&gt;packages/cli/post&#45;pyin/src/index.ts -->
<g id="edge1" class="edge">
<title>packages/cli/post&#45;pyin/index.ts&#45;&gt;packages/cli/post&#45;pyin/src/index.ts</title>
<path fill="none" stroke="#000000" stroke-width="2" stroke-opacity="0.200000" d="M102.24,-81.2C104.39,-94.08 108.34,-117.84 110.94,-133.44"/>
<polygon fill="#000000" fill-opacity="0.200000" stroke="#000000" stroke-width="2" stroke-opacity="0.200000" points="108.9,-134 111.96,-139.57 113.05,-133.31 108.9,-134"/>
</g>
<!-- packages/cli/post&#45;pyin/src/get&#45;median&#45;frequency.ts -->
<g id="node6" class="node">
<title>packages/cli/post&#45;pyin/src/get&#45;median&#45;frequency.ts</title>
<g id="a_node6"><a xlink:href="packages/cli/post-pyin/src/get-median-frequency.ts" xlink:title="get&#45;median&#45;frequency.ts">
<path fill="#ddfeff" stroke="black" d="M234.01,-197.78C234.01,-197.78 119.01,-197.78 119.01,-197.78 116.01,-197.78 113.01,-194.78 113.01,-191.78 113.01,-191.78 113.01,-185.78 113.01,-185.78 113.01,-182.78 116.01,-179.78 119.01,-179.78 119.01,-179.78 234.01,-179.78 234.01,-179.78 237.01,-179.78 240.01,-182.78 240.01,-185.78 240.01,-185.78 240.01,-191.78 240.01,-191.78 240.01,-194.78 237.01,-197.78 234.01,-197.78"/>
<text text-anchor="start" x="121.01" y="-186.58" font-family="Helvetica,sans-Serif" font-size="9.00">get&#45;median&#45;frequency.ts</text>
</a>
</g>
</g>
<!-- packages/cli/post&#45;pyin/src/index.ts&#45;&gt;packages/cli/post&#45;pyin/src/get&#45;median&#45;frequency.ts -->
<g id="edge5" class="edge">
<title>packages/cli/post&#45;pyin/src/index.ts&#45;&gt;packages/cli/post&#45;pyin/src/get&#45;median&#45;frequency.ts</title>
<path fill="none" stroke="#000000" stroke-width="2" stroke-opacity="0.200000" d="M127.77,-157.75C136.48,-163.29 147.71,-170.44 157.2,-176.49"/>
<polygon fill="#000000" fill-opacity="0.200000" stroke="#000000" stroke-width="2" stroke-opacity="0.200000" points="161.14,-181.48 157.2,-176.49 163.39,-177.94 161.14,-181.48"/>
</g>
<!-- packages/cli/post&#45;pyin/src/pyin&#45;output&#45;type.ts -->
<g id="node8" class="node">
<title>packages/cli/post&#45;pyin/src/pyin&#45;output&#45;type.ts</title>
<g id="a_node8"><a xlink:href="packages/cli/post-pyin/src/pyin-output-type.ts" xlink:title="pyin&#45;output&#45;type.ts">
<path fill="#ddfeff" stroke="black" d="M99,-204.43C99,-204.43 6,-204.43 6,-204.43 3,-204.43 0,-201.43 0,-198.43 0,-198.43 0,-192.43 0,-192.43 0,-189.43 3,-186.43 6,-186.43 6,-186.43 99,-186.43 99,-186.43 102,-186.43 105,-189.43 105,-192.43 105,-192.43 105,-198.43 105,-198.43 105,-201.43 102,-204.43 99,-204.43"/>
<text text-anchor="start" x="8" y="-193.23" font-family="Helvetica,sans-Serif" font-size="9.00">pyin&#45;output&#45;type.ts</text>
</a>
</g>
</g>
<!-- packages/cli/post&#45;pyin/src/index.ts&#45;&gt;packages/cli/post&#45;pyin/src/pyin&#45;output&#45;type.ts -->
<g id="edge6" class="edge">
<title>packages/cli/post&#45;pyin/src/index.ts&#45;&gt;packages/cli/post&#45;pyin/src/pyin&#45;output&#45;type.ts</title>
<path fill="none" stroke="#000000" stroke-width="2" stroke-opacity="0.200000" d="M101.71,-157.66C92.55,-164.69 79.71,-174.55 69.44,-182.43"/>
<polygon fill="#000000" fill-opacity="0.200000" stroke="#000000" stroke-width="2" stroke-opacity="0.200000" points="63.36,-184.45 69.4,-182.47 65.91,-187.78 63.36,-184.45"/>
</g>
<!-- packages/cli/post&#45;pyin/src/median&#45;filter.ts -->
<g id="node7" class="node">
<title>packages/cli/post&#45;pyin/src/median&#45;filter.ts</title>
<g id="a_node7"><a xlink:href="packages/cli/post-pyin/src/median-filter.ts" xlink:title="median&#45;filter.ts">
<path fill="#ddfeff" stroke="black" d="M268.03,-242.06C268.03,-242.06 195.03,-242.06 195.03,-242.06 192.03,-242.06 189.03,-239.06 189.03,-236.06 189.03,-236.06 189.03,-230.06 189.03,-230.06 189.03,-227.06 192.03,-224.06 195.03,-224.06 195.03,-224.06 268.03,-224.06 268.03,-224.06 271.03,-224.06 274.03,-227.06 274.03,-230.06 274.03,-230.06 274.03,-236.06 274.03,-236.06 274.03,-239.06 271.03,-242.06 268.03,-242.06"/>
<text text-anchor="start" x="197.03" y="-230.86" font-family="Helvetica,sans-Serif" font-size="9.00">median&#45;filter.ts</text>
</a>
</g>
</g>
<!-- packages/cli/post&#45;pyin/src/get&#45;median&#45;frequency.ts&#45;&gt;packages/cli/post&#45;pyin/src/median&#45;filter.ts -->
<g id="edge4" class="edge">
<title>packages/cli/post&#45;pyin/src/get&#45;median&#45;frequency.ts&#45;&gt;packages/cli/post&#45;pyin/src/median&#45;filter.ts</title>
<path fill="none" stroke="#000000" stroke-width="2" stroke-opacity="0.200000" d="M187.91,-197.96C195.88,-204.37 206.63,-213.02 215.46,-220.13"/>
<polygon fill="#000000" fill-opacity="0.200000" stroke="#000000" stroke-width="2" stroke-opacity="0.200000" points="214.15,-221.77 220.14,-223.9 216.78,-218.5 214.15,-221.77"/>
</g>
<!-- packages/util/math/dist/index.js -->
<g id="node9" class="node">
<title>packages/util/math/dist/index.js</title>
<g id="a_node9"><a xlink:href="packages/util/math/dist/index.js" xlink:title="index.js">
<polygon fill="#ffffcc" stroke="black" points="317.1,-279.11 315.6,-281.11 305.1,-281.11 303.6,-279.11 263.1,-279.11 263.1,-261.11 317.1,-261.11 317.1,-279.11"/>
<text text-anchor="start" x="272.6" y="-267.91" font-family="Helvetica,sans-Serif" font-size="9.00">index.js</text>
</a>
</g>
</g>
<!-- packages/cli/post&#45;pyin/src/median&#45;filter.ts&#45;&gt;packages/util/math/dist/index.js -->
<g id="edge7" class="edge">
<title>packages/cli/post&#45;pyin/src/median&#45;filter.ts&#45;&gt;packages/util/math/dist/index.js</title>
<path fill="none" stroke="#000000" stroke-width="2" stroke-opacity="0.200000" d="M246.01,-242.22C253.38,-246.88 262.46,-252.62 270.46,-257.68"/>
<polygon fill="#000000" fill-opacity="0.200000" stroke="#000000" stroke-width="2" stroke-opacity="0.200000" points="269.59,-259.62 275.79,-261.05 271.84,-256.07 269.59,-259.62"/>
</g>
</g>
</svg>
