<?xml version="1.0" encoding="UTF-8" standalone="no"?>
<!DOCTYPE svg PUBLIC "-//W3C//DTD SVG 1.1//EN"
 "http://www.w3.org/Graphics/SVG/1.1/DTD/svg11.dtd">
<!-- Generated by graphviz version 2.43.0 (0)
 -->
<!-- Title: dependency&#45;cruiser output Pages: 1 -->
<svg width="614pt" height="320pt"
 viewBox="0.00 0.00 614.00 320.00" xmlns="http://www.w3.org/2000/svg" xmlns:xlink="http://www.w3.org/1999/xlink">
<g id="graph0" class="graph" transform="scale(1 1) rotate(0) translate(4 316)">
<title>dependency&#45;cruiser output</title>
<polygon fill="white" stroke="transparent" points="-4,4 -4,-316 610,-316 610,4 -4,4"/>
<g id="clust1" class="cluster">
<title>cluster_packages</title>
<path fill="#ffffff" stroke="black" stroke-width="2" d="M20,-26C20,-26 586,-26 586,-26 592,-26 598,-32 598,-38 598,-38 598,-292 598,-292 598,-298 592,-304 586,-304 586,-304 20,-304 20,-304 14,-304 8,-298 8,-292 8,-292 8,-38 8,-38 8,-32 14,-26 20,-26"/>
<text text-anchor="middle" x="303" y="-292.8" font-family="Helvetica,sans-Serif" font-weight="bold" font-size="9.00">packages</text>
</g>
<g id="clust2" class="cluster">
<title>cluster_packages/cli</title>
<path fill="#ffffff" stroke="black" stroke-width="2" d="M28,-34C28,-34 444,-34 444,-34 450,-34 456,-40 456,-46 456,-46 456,-266 456,-266 456,-272 450,-278 444,-278 444,-278 28,-278 28,-278 22,-278 16,-272 16,-266 16,-266 16,-46 16,-46 16,-40 22,-34 28,-34"/>
<text text-anchor="middle" x="236" y="-266.8" font-family="Helvetica,sans-Serif" font-weight="bold" font-size="9.00">cli</text>
</g>
<g id="clust3" class="cluster">
<title>cluster_packages/cli/post&#45;f0&#45;util</title>
<path fill="#ffffff" stroke="black" stroke-width="2" d="M125,-166C125,-166 187,-166 187,-166 193,-166 199,-172 199,-178 199,-178 199,-240 199,-240 199,-246 193,-252 187,-252 187,-252 125,-252 125,-252 119,-252 113,-246 113,-240 113,-240 113,-178 113,-178 113,-172 119,-166 125,-166"/>
<text text-anchor="middle" x="156" y="-240.8" font-family="Helvetica,sans-Serif" font-weight="bold" font-size="9.00">post&#45;f0&#45;util</text>
</g>
<g id="clust4" class="cluster">
<title>cluster_packages/cli/post&#45;f0&#45;util/dist</title>
<path fill="#ffffff" stroke="black" stroke-width="2" d="M133,-174C133,-174 179,-174 179,-174 185,-174 191,-180 191,-186 191,-186 191,-214 191,-214 191,-220 185,-226 179,-226 179,-226 133,-226 133,-226 127,-226 121,-220 121,-214 121,-214 121,-186 121,-186 121,-180 127,-174 133,-174"/>
<text text-anchor="middle" x="156" y="-214.8" font-family="Helvetica,sans-Serif" font-weight="bold" font-size="9.00">dist</text>
</g>
<g id="clust5" class="cluster">
<title>cluster_packages/cli/post&#45;pyin</title>
<path fill="#ffffff" stroke="black" stroke-width="2" d="M36,-42C36,-42 436,-42 436,-42 442,-42 448,-48 448,-54 448,-54 448,-146 448,-146 448,-152 442,-158 436,-158 436,-158 36,-158 36,-158 30,-158 24,-152 24,-146 24,-146 24,-54 24,-54 24,-48 30,-42 36,-42"/>
<text text-anchor="middle" x="236" y="-146.8" font-family="Helvetica,sans-Serif" font-weight="bold" font-size="9.00">post&#45;pyin</text>
</g>
<g id="clust6" class="cluster">
<title>cluster_packages/cli/post&#45;pyin/src</title>
<path fill="#ffffff" stroke="black" stroke-width="2" d="M133,-50C133,-50 428,-50 428,-50 434,-50 440,-56 440,-62 440,-62 440,-120 440,-120 440,-126 434,-132 428,-132 428,-132 133,-132 133,-132 127,-132 121,-126 121,-120 121,-120 121,-62 121,-62 121,-56 127,-50 133,-50"/>
<text text-anchor="middle" x="280.5" y="-120.8" font-family="Helvetica,sans-Serif" font-weight="bold" font-size="9.00">src</text>
</g>
<g id="clust7" class="cluster">
<title>cluster_packages/util</title>
<path fill="#ffffff" stroke="black" stroke-width="2" d="M476,-34C476,-34 578,-34 578,-34 584,-34 590,-40 590,-46 590,-46 590,-176 590,-176 590,-182 584,-188 578,-188 578,-188 476,-188 476,-188 470,-188 464,-182 464,-176 464,-176 464,-46 464,-46 464,-40 470,-34 476,-34"/>
<text text-anchor="middle" x="527" y="-176.8" font-family="Helvetica,sans-Serif" font-weight="bold" font-size="9.00">util</text>
</g>
<g id="clust8" class="cluster">
<title>cluster_packages/util/math</title>
<path fill="#ffffff" stroke="black" stroke-width="2" d="M484,-42C484,-42 570,-42 570,-42 576,-42 582,-48 582,-54 582,-54 582,-150 582,-150 582,-156 576,-162 570,-162 570,-162 484,-162 484,-162 478,-162 472,-156 472,-150 472,-150 472,-54 472,-54 472,-48 478,-42 484,-42"/>
<text text-anchor="middle" x="527" y="-150.8" font-family="Helvetica,sans-Serif" font-weight="bold" font-size="9.00">math</text>
</g>
<g id="clust9" class="cluster">
<title>cluster_packages/util/math/src</title>
<path fill="#ffffff" stroke="black" stroke-width="2" d="M492,-50C492,-50 562,-50 562,-50 568,-50 574,-56 574,-62 574,-62 574,-124 574,-124 574,-130 568,-136 562,-136 562,-136 492,-136 492,-136 486,-136 480,-130 480,-124 480,-124 480,-62 480,-62 480,-56 486,-50 492,-50"/>
<text text-anchor="middle" x="527" y="-124.8" font-family="Helvetica,sans-Serif" font-weight="bold" font-size="9.00">src</text>
</g>
<g id="clust10" class="cluster">
<title>cluster_packages/util/math/src/stochastic</title>
<path fill="#ffffff" stroke="black" stroke-width="2" d="M500,-58C500,-58 554,-58 554,-58 560,-58 566,-64 566,-70 566,-70 566,-98 566,-98 566,-104 560,-110 554,-110 554,-110 500,-110 500,-110 494,-110 488,-104 488,-98 488,-98 488,-70 488,-70 488,-64 494,-58 500,-58"/>
<text text-anchor="middle" x="527" y="-98.8" font-family="Helvetica,sans-Serif" font-weight="bold" font-size="9.00">stochastic</text>
</g>
<!-- fs -->
<g id="node1" class="node">
<title>fs</title>
<g id="a_node1"><a xlink:href="https://nodejs.org/api/fs.html" xlink:title="fs">
<path fill="#ffffcc" stroke="grey" d="M177,-18C177,-18 135,-18 135,-18 132,-18 129,-15 129,-12 129,-12 129,-6 129,-6 129,-3 132,0 135,0 135,0 177,0 177,0 180,0 183,-3 183,-6 183,-6 183,-12 183,-12 183,-15 180,-18 177,-18"/>
<text text-anchor="middle" x="156" y="-6.8" font-family="Helvetica,sans-Serif" font-size="9.00" fill="grey">fs</text>
</a>
</g>
</g>
<!-- packages/cli/post&#45;f0&#45;util/dist/index.js -->
<g id="node2" class="node">
<title>packages/cli/post&#45;f0&#45;util/dist/index.js</title>
<g id="a_node2"><a xlink:href="packages/cli/post-f0-util/dist/index.js" xlink:title="index.js">
<polygon fill="#ffffcc" stroke="black" points="183,-200 181.5,-202 171,-202 169.5,-200 129,-200 129,-182 183,-182 183,-200"/>
<text text-anchor="start" x="138.5" y="-188.8" font-family="Helvetica,sans-Serif" font-size="9.00">index.js</text>
</a>
</g>
</g>
<!-- packages/cli/post&#45;pyin/index.test.ts -->
<g id="node3" class="node">
<title>packages/cli/post&#45;pyin/index.test.ts</title>
<g id="a_node3"><a xlink:href="packages/cli/post-pyin/index.test.ts" xlink:title="no&#45;orphans">
<path fill="#ccffcc" stroke="orange" d="M99,-125C99,-125 38,-125 38,-125 35,-125 32,-122 32,-119 32,-119 32,-113 32,-113 32,-110 35,-107 38,-107 38,-107 99,-107 99,-107 102,-107 105,-110 105,-113 105,-113 105,-119 105,-119 105,-122 102,-125 99,-125"/>
<text text-anchor="start" x="40" y="-113.8" font-family="Helvetica,sans-Serif" font-size="9.00" fill="orange">index.test.ts</text>
</a>
</g>
</g>
<!-- packages/cli/post&#45;pyin/index.ts -->
<g id="node4" class="node">
<title>packages/cli/post&#45;pyin/index.ts</title>
<g id="a_node4"><a xlink:href="packages/cli/post-pyin/index.ts" xlink:title="index.ts">
<path fill="#ddfeff" stroke="black" d="M89.5,-82C89.5,-82 47.5,-82 47.5,-82 44.5,-82 41.5,-79 41.5,-76 41.5,-76 41.5,-70 41.5,-70 41.5,-67 44.5,-64 47.5,-64 47.5,-64 89.5,-64 89.5,-64 92.5,-64 95.5,-67 95.5,-70 95.5,-70 95.5,-76 95.5,-76 95.5,-79 92.5,-82 89.5,-82"/>
<text text-anchor="start" x="50" y="-70.8" font-family="Helvetica,sans-Serif" font-size="9.00">index.ts</text>
</a>
</g>
</g>
<!-- packages/cli/post&#45;pyin/index.ts&#45;&gt;fs -->
<g id="edge3" class="edge">
<title>packages/cli/post&#45;pyin/index.ts&#45;&gt;fs</title>
<path fill="none" stroke="#000000" stroke-dasharray="5,2" stroke-opacity="0.200000" d="M81.75,-63.83C96.48,-52.8 121.29,-34.23 137.9,-21.8"/>
<polygon fill="#000000" fill-opacity="0.200000" stroke="#000000" stroke-opacity="0.200000" points="139.23,-23.43 142.77,-18.15 136.71,-20.07 139.23,-23.43"/>
</g>
<!-- packages/cli/post&#45;pyin/index.ts&#45;&gt;packages/cli/post&#45;f0&#45;util/dist/index.js -->
<g id="edge2" class="edge">
<title>packages/cli/post&#45;pyin/index.ts&#45;&gt;packages/cli/post&#45;f0&#45;util/dist/index.js</title>
<path fill="none" stroke="#000000" stroke-width="2" stroke-opacity="0.200000" d="M76.21,-82.26C91.07,-102.77 126.84,-152.14 144.61,-176.67"/>
<polygon fill="#000000" fill-opacity="0.200000" stroke="#000000" stroke-width="2" stroke-opacity="0.200000" points="143.1,-178.16 148.32,-181.78 146.5,-175.69 143.1,-178.16"/>
</g>
<!-- packages/cli/post&#45;pyin/src/index.ts -->
<g id="node5" class="node">
<title>packages/cli/post&#45;pyin/src/index.ts</title>
<g id="a_node5"><a xlink:href="packages/cli/post-pyin/src/index.ts" xlink:title="index.ts">
<path fill="#ddfeff" stroke="black" d="M177,-82C177,-82 135,-82 135,-82 132,-82 129,-79 129,-76 129,-76 129,-70 129,-70 129,-67 132,-64 135,-64 135,-64 177,-64 177,-64 180,-64 183,-67 183,-70 183,-70 183,-76 183,-76 183,-79 180,-82 177,-82"/>
<text text-anchor="start" x="137.5" y="-70.8" font-family="Helvetica,sans-Serif" font-size="9.00">index.ts</text>
</a>
</g>
</g>
<!-- packages/cli/post&#45;pyin/index.ts&#45;&gt;packages/cli/post&#45;pyin/src/index.ts -->
<g id="edge1" class="edge">
<title>packages/cli/post&#45;pyin/index.ts&#45;&gt;packages/cli/post&#45;pyin/src/index.ts</title>
<path fill="none" stroke="#000000" stroke-width="2" stroke-opacity="0.200000" d="M95.62,-73C104.16,-73 113.74,-73 122.68,-73"/>
<polygon fill="#000000" fill-opacity="0.200000" stroke="#000000" stroke-width="2" stroke-opacity="0.200000" points="122.75,-75.1 128.75,-73 122.75,-70.9 122.75,-75.1"/>
</g>
<!-- packages/cli/post&#45;pyin/src/get&#45;median&#45;frequency.ts -->
<g id="node6" class="node">
<title>packages/cli/post&#45;pyin/src/get&#45;median&#45;frequency.ts</title>
<g id="a_node6"><a xlink:href="packages/cli/post-pyin/src/get-median-frequency.ts" xlink:title="get&#45;median&#45;frequency.ts">
<path fill="#ddfeff" stroke="black" d="M328,-76C328,-76 213,-76 213,-76 210,-76 207,-73 207,-70 207,-70 207,-64 207,-64 207,-61 210,-58 213,-58 213,-58 328,-58 328,-58 331,-58 334,-61 334,-64 334,-64 334,-70 334,-70 334,-73 331,-76 328,-76"/>
<text text-anchor="start" x="215" y="-64.8" font-family="Helvetica,sans-Serif" font-size="9.00">get&#45;median&#45;frequency.ts</text>
</a>
</g>
</g>
<!-- packages/cli/post&#45;pyin/src/index.ts&#45;&gt;packages/cli/post&#45;pyin/src/get&#45;median&#45;frequency.ts -->
<g id="edge5" class="edge">
<title>packages/cli/post&#45;pyin/src/index.ts&#45;&gt;packages/cli/post&#45;pyin/src/get&#45;median&#45;frequency.ts</title>
<path fill="none" stroke="#000000" stroke-width="2" stroke-opacity="0.200000" d="M183.09,-71.61C188.54,-71.32 194.53,-71 200.74,-70.67"/>
<polygon fill="#000000" fill-opacity="0.200000" stroke="#000000" stroke-width="2" stroke-opacity="0.200000" points="207.11,-72.43 201.01,-70.65 206.89,-68.24 207.11,-72.43"/>
</g>
<!-- packages/cli/post&#45;pyin/src/pyin&#45;output&#45;type.ts -->
<g id="node8" class="node">
<title>packages/cli/post&#45;pyin/src/pyin&#45;output&#45;type.ts</title>
<g id="a_node8"><a xlink:href="packages/cli/post-pyin/src/pyin-output-type.ts" xlink:title="pyin&#45;output&#45;type.ts">
<path fill="#ddfeff" stroke="black" d="M317,-106C317,-106 224,-106 224,-106 221,-106 218,-103 218,-100 218,-100 218,-94 218,-94 218,-91 221,-88 224,-88 224,-88 317,-88 317,-88 320,-88 323,-91 323,-94 323,-94 323,-100 323,-100 323,-103 320,-106 317,-106"/>
<text text-anchor="start" x="226" y="-94.8" font-family="Helvetica,sans-Serif" font-size="9.00">pyin&#45;output&#45;type.ts</text>
</a>
</g>
</g>
<!-- packages/cli/post&#45;pyin/src/index.ts&#45;&gt;packages/cli/post&#45;pyin/src/pyin&#45;output&#45;type.ts -->
<g id="edge6" class="edge">
<title>packages/cli/post&#45;pyin/src/index.ts&#45;&gt;packages/cli/post&#45;pyin/src/pyin&#45;output&#45;type.ts</title>
<path fill="none" stroke="#000000" stroke-width="2" stroke-opacity="0.200000" d="M183.09,-78.57C194.46,-80.99 208.17,-83.92 221.28,-86.71"/>
<polygon fill="#000000" fill-opacity="0.200000" stroke="#000000" stroke-width="2" stroke-opacity="0.200000" points="226.81,-90.04 221.38,-86.73 227.69,-85.93 226.81,-90.04"/>
</g>
<!-- packages/cli/post&#45;pyin/src/median&#45;filter.ts -->
<g id="node7" class="node">
<title>packages/cli/post&#45;pyin/src/median&#45;filter.ts</title>
<g id="a_node7"><a xlink:href="packages/cli/post-pyin/src/median-filter.ts" xlink:title="median&#45;filter.ts">
<path fill="#ddfeff" stroke="black" d="M426,-80C426,-80 353,-80 353,-80 350,-80 347,-77 347,-74 347,-74 347,-68 347,-68 347,-65 350,-62 353,-62 353,-62 426,-62 426,-62 429,-62 432,-65 432,-68 432,-68 432,-74 432,-74 432,-77 429,-80 426,-80"/>
<text text-anchor="start" x="355" y="-68.8" font-family="Helvetica,sans-Serif" font-size="9.00">median&#45;filter.ts</text>
</a>
</g>
</g>
<!-- packages/cli/post&#45;pyin/src/get&#45;median&#45;frequency.ts&#45;&gt;packages/cli/post&#45;pyin/src/median&#45;filter.ts -->
<g id="edge4" class="edge">
<title>packages/cli/post&#45;pyin/src/get&#45;median&#45;frequency.ts&#45;&gt;packages/cli/post&#45;pyin/src/median&#45;filter.ts</title>
<path fill="none" stroke="#000000" stroke-width="2" stroke-opacity="0.200000" d="M334.11,-69.14C336.28,-69.21 338.45,-69.29 340.6,-69.36"/>
<polygon fill="#000000" fill-opacity="0.200000" stroke="#000000" stroke-width="2" stroke-opacity="0.200000" points="340.89,-71.47 346.96,-69.58 341.04,-67.28 340.89,-71.47"/>
</g>
<!-- packages/util/math/src/stochastic/median.ts -->
<g id="node9" class="node">
<title>packages/util/math/src/stochastic/median.ts</title>
<g id="a_node9"><a xlink:href="packages/util/math/src/stochastic/median.ts" xlink:title="median.ts">
<path fill="#ddfeff" stroke="black" d="M552,-84C552,-84 502,-84 502,-84 499,-84 496,-81 496,-78 496,-78 496,-72 496,-72 496,-69 499,-66 502,-66 502,-66 552,-66 552,-66 555,-66 558,-69 558,-72 558,-72 558,-78 558,-78 558,-81 555,-84 552,-84"/>
<text text-anchor="start" x="504" y="-72.8" font-family="Helvetica,sans-Serif" font-size="9.00">median.ts</text>
</a>
</g>
</g>
<!-- packages/cli/post&#45;pyin/src/median&#45;filter.ts&#45;&gt;packages/util/math/src/stochastic/median.ts -->
<g id="edge7" class="edge">
<title>packages/cli/post&#45;pyin/src/median&#45;filter.ts&#45;&gt;packages/util/math/src/stochastic/median.ts</title>
<path fill="none" stroke="#000000" stroke-width="2" stroke-opacity="0.200000" d="M432.26,-72.23C450.54,-72.77 471.8,-73.4 489.45,-73.92"/>
<polygon fill="#000000" fill-opacity="0.200000" stroke="#000000" stroke-width="2" stroke-opacity="0.200000" points="489.72,-76.03 495.78,-74.11 489.84,-71.83 489.72,-76.03"/>
</g>
</g>
</svg>
