<?xml version="1.0" encoding="UTF-8" standalone="no"?>
<!DOCTYPE svg PUBLIC "-//W3C//DTD SVG 1.1//EN"
 "http://www.w3.org/Graphics/SVG/1.1/DTD/svg11.dtd">
<!-- Generated by graphviz version 2.43.0 (0)
 -->
<!-- Title: dependency&#45;cruiser output Pages: 1 -->
<svg width="523pt" height="590pt"
 viewBox="0.00 0.00 523.27 589.60" xmlns="http://www.w3.org/2000/svg" xmlns:xlink="http://www.w3.org/1999/xlink">
<g id="graph0" class="graph" transform="scale(1 1) rotate(0) translate(4 585.6)">
<title>dependency&#45;cruiser output</title>
<polygon fill="white" stroke="transparent" points="-4,4 -4,-585.6 519.27,-585.6 519.27,4 -4,4"/>
<g id="clust1" class="cluster">
<title>cluster_packages</title>
<path fill="#ffffff" stroke="black" stroke-width="2" d="M12,0C12,0 503.27,0 503.27,0 509.27,0 515.27,-6 515.27,-12 515.27,-12 515.27,-569.6 515.27,-569.6 515.27,-575.6 509.27,-581.6 503.27,-581.6 503.27,-581.6 12,-581.6 12,-581.6 6,-581.6 0,-575.6 0,-569.6 0,-569.6 0,-12 0,-12 0,-6 6,0 12,0"/>
<text text-anchor="middle" x="257.64" y="-570.4" font-family="Helvetica,sans-Serif" font-weight="bold" font-size="9.00">packages</text>
</g>
<!-- packages/UI/controllers/dist/index.js -->
<g id="node1" class="node">
<title>packages/UI/controllers/dist/index.js</title>
<g id="a_node1"><a xlink:href="packages/UI/controllers/dist/index.js" xlink:title="index.js">
<polygon fill="#ffffcc" stroke="black" points="195.66,-172.01 194.16,-174.01 183.66,-174.01 182.16,-172.01 141.66,-172.01 141.66,-154.01 195.66,-154.01 195.66,-172.01"/>
<text text-anchor="start" x="151.16" y="-160.81" font-family="Helvetica,sans-Serif" font-size="9.00">index.js</text>
</a>
</g>
</g>
<!-- packages/UI/piano&#45;roll/beat&#45;view/index.test.ts -->
<g id="node2" class="node">
<title>packages/UI/piano&#45;roll/beat&#45;view/index.test.ts</title>
<g id="a_node2"><a xlink:href="packages/UI/piano-roll/beat-view/index.test.ts" xlink:title="no&#45;orphans">
<path fill="#ccffcc" stroke="orange" d="M411,-405C411,-405 350,-405 350,-405 347,-405 344,-402 344,-399 344,-399 344,-393 344,-393 344,-390 347,-387 350,-387 350,-387 411,-387 411,-387 414,-387 417,-390 417,-393 417,-393 417,-399 417,-399 417,-402 414,-405 411,-405"/>
<text text-anchor="start" x="352" y="-393.8" font-family="Helvetica,sans-Serif" font-size="9.00" fill="orange">index.test.ts</text>
</a>
</g>
</g>
<!-- packages/UI/piano&#45;roll/beat&#45;view/index.ts -->
<g id="node3" class="node">
<title>packages/UI/piano&#45;roll/beat&#45;view/index.ts</title>
<g id="a_node3"><a xlink:href="packages/UI/piano-roll/beat-view/index.ts" xlink:title="index.ts">
<path fill="#ddfeff" stroke="black" d="M161.9,-581.6C161.9,-581.6 119.9,-581.6 119.9,-581.6 116.9,-581.6 113.9,-578.6 113.9,-575.6 113.9,-575.6 113.9,-569.6 113.9,-569.6 113.9,-566.6 116.9,-563.6 119.9,-563.6 119.9,-563.6 161.9,-563.6 161.9,-563.6 164.9,-563.6 167.9,-566.6 167.9,-569.6 167.9,-569.6 167.9,-575.6 167.9,-575.6 167.9,-578.6 164.9,-581.6 161.9,-581.6"/>
<text text-anchor="start" x="122.4" y="-570.4" font-family="Helvetica,sans-Serif" font-size="9.00">index.ts</text>
</a>
</g>
</g>
<!-- packages/UI/piano&#45;roll/beat&#45;view/src/index.ts -->
<g id="node4" class="node">
<title>packages/UI/piano&#45;roll/beat&#45;view/src/index.ts</title>
<g id="a_node4"><a xlink:href="packages/UI/piano-roll/beat-view/src/index.ts" xlink:title="index.ts">
<path fill="#ddfeff" stroke="black" d="M186.55,-451.49C186.55,-451.49 144.55,-451.49 144.55,-451.49 141.55,-451.49 138.55,-448.49 138.55,-445.49 138.55,-445.49 138.55,-439.49 138.55,-439.49 138.55,-436.49 141.55,-433.49 144.55,-433.49 144.55,-433.49 186.55,-433.49 186.55,-433.49 189.55,-433.49 192.55,-436.49 192.55,-439.49 192.55,-439.49 192.55,-445.49 192.55,-445.49 192.55,-448.49 189.55,-451.49 186.55,-451.49"/>
<text text-anchor="start" x="147.05" y="-440.29" font-family="Helvetica,sans-Serif" font-size="9.00">index.ts</text>
</a>
</g>
</g>
<!-- packages/UI/piano&#45;roll/beat&#45;view/index.ts&#45;&gt;packages/UI/piano&#45;roll/beat&#45;view/src/index.ts -->
<g id="edge1" class="edge">
<title>packages/UI/piano&#45;roll/beat&#45;view/index.ts&#45;&gt;packages/UI/piano&#45;roll/beat&#45;view/src/index.ts</title>
<path fill="none" stroke="#000000" stroke-width="2" stroke-opacity="0.200000" d="M142.68,-563.24C146.89,-541.02 157.52,-484.89 162.67,-457.71"/>
<polygon fill="#000000" fill-opacity="0.200000" stroke="#000000" stroke-width="2" stroke-opacity="0.200000" points="165.86,-452.15 162.68,-457.65 161.73,-451.37 165.86,-452.15"/>
</g>
<!-- packages/UI/piano&#45;roll/beat&#45;view/src/beat&#45;bar&#45;series.ts -->
<g id="node5" class="node">
<title>packages/UI/piano&#45;roll/beat&#45;view/src/beat&#45;bar&#45;series.ts</title>
<g id="a_node5"><a xlink:href="packages/UI/piano-roll/beat-view/src/beat-bar-series.ts" xlink:title="beat&#45;bar&#45;series.ts">
<path fill="#ddfeff" stroke="black" d="M219.53,-292.77C219.53,-292.77 137.53,-292.77 137.53,-292.77 134.53,-292.77 131.53,-289.77 131.53,-286.77 131.53,-286.77 131.53,-280.77 131.53,-280.77 131.53,-277.77 134.53,-274.77 137.53,-274.77 137.53,-274.77 219.53,-274.77 219.53,-274.77 222.53,-274.77 225.53,-277.77 225.53,-280.77 225.53,-280.77 225.53,-286.77 225.53,-286.77 225.53,-289.77 222.53,-292.77 219.53,-292.77"/>
<text text-anchor="start" x="139.53" y="-281.57" font-family="Helvetica,sans-Serif" font-size="9.00">beat&#45;bar&#45;series.ts</text>
</a>
</g>
</g>
<!-- packages/UI/piano&#45;roll/beat&#45;view/src/index.ts&#45;&gt;packages/UI/piano&#45;roll/beat&#45;view/src/beat&#45;bar&#45;series.ts -->
<g id="edge24" class="edge">
<title>packages/UI/piano&#45;roll/beat&#45;view/src/index.ts&#45;&gt;packages/UI/piano&#45;roll/beat&#45;view/src/beat&#45;bar&#45;series.ts</title>
<path fill="none" stroke="#000000" stroke-width="2" stroke-opacity="0.200000" d="M166.32,-433.03C168.49,-406.62 174.6,-331.82 177.26,-299.25"/>
<polygon fill="#000000" fill-opacity="0.200000" stroke="#000000" stroke-width="2" stroke-opacity="0.200000" points="179.87,-293.14 177.29,-298.95 175.68,-292.8 179.87,-293.14"/>
</g>
<!-- packages/UI/piano&#45;roll/beat&#45;view/src/beat&#45;elements.ts -->
<g id="node16" class="node">
<title>packages/UI/piano&#45;roll/beat&#45;view/src/beat&#45;elements.ts</title>
<g id="a_node16"><a xlink:href="packages/UI/piano-roll/beat-view/src/beat-elements.ts" xlink:title="beat&#45;elements.ts">
<path fill="#ddfeff" stroke="black" d="M178.8,-353.08C178.8,-353.08 98.8,-353.08 98.8,-353.08 95.8,-353.08 92.8,-350.08 92.8,-347.08 92.8,-347.08 92.8,-341.08 92.8,-341.08 92.8,-338.08 95.8,-335.08 98.8,-335.08 98.8,-335.08 178.8,-335.08 178.8,-335.08 181.8,-335.08 184.8,-338.08 184.8,-341.08 184.8,-341.08 184.8,-347.08 184.8,-347.08 184.8,-350.08 181.8,-353.08 178.8,-353.08"/>
<text text-anchor="start" x="100.8" y="-341.88" font-family="Helvetica,sans-Serif" font-size="9.00">beat&#45;elements.ts</text>
</a>
</g>
</g>
<!-- packages/UI/piano&#45;roll/beat&#45;view/src/index.ts&#45;&gt;packages/UI/piano&#45;roll/beat&#45;view/src/beat&#45;elements.ts -->
<g id="edge25" class="edge">
<title>packages/UI/piano&#45;roll/beat&#45;view/src/index.ts&#45;&gt;packages/UI/piano&#45;roll/beat&#45;view/src/beat&#45;elements.ts</title>
<path fill="none" stroke="#000000" stroke-width="2" stroke-opacity="0.200000" d="M163.08,-433.4C158.46,-416.41 148.48,-379.68 142.85,-359"/>
<polygon fill="#000000" fill-opacity="0.200000" stroke="#000000" stroke-width="2" stroke-opacity="0.200000" points="143.29,-352.59 142.83,-358.93 139.23,-353.69 143.29,-352.59"/>
</g>
<!-- packages/UI/piano&#45;roll/beat&#45;view/src/beat&#45;bar&#45;series.ts&#45;&gt;packages/UI/controllers/dist/index.js -->
<g id="edge4" class="edge">
<title>packages/UI/piano&#45;roll/beat&#45;view/src/beat&#45;bar&#45;series.ts&#45;&gt;packages/UI/controllers/dist/index.js</title>
<path fill="none" stroke="#000000" stroke-width="2" stroke-opacity="0.200000" d="M177.79,-274.69C176.11,-254.15 172,-203.9 169.92,-178.39"/>
<polygon fill="#000000" fill-opacity="0.200000" stroke="#000000" stroke-width="2" stroke-opacity="0.200000" points="171.99,-178 169.41,-172.19 167.81,-178.34 171.99,-178"/>
</g>
<!-- packages/UI/piano&#45;roll/beat&#45;view/src/beat&#45;bar/index.ts -->
<g id="node6" class="node">
<title>packages/UI/piano&#45;roll/beat&#45;view/src/beat&#45;bar/index.ts</title>
<g id="a_node6"><a xlink:href="packages/UI/piano-roll/beat-view/src/beat-bar/index.ts" xlink:title="index.ts">
<path fill="#ddfeff" stroke="black" d="M359.68,-312.14C359.68,-312.14 317.68,-312.14 317.68,-312.14 314.68,-312.14 311.68,-309.14 311.68,-306.14 311.68,-306.14 311.68,-300.14 311.68,-300.14 311.68,-297.14 314.68,-294.14 317.68,-294.14 317.68,-294.14 359.68,-294.14 359.68,-294.14 362.68,-294.14 365.68,-297.14 365.68,-300.14 365.68,-300.14 365.68,-306.14 365.68,-306.14 365.68,-309.14 362.68,-312.14 359.68,-312.14"/>
<text text-anchor="start" x="320.18" y="-300.94" font-family="Helvetica,sans-Serif" font-size="9.00">index.ts</text>
</a>
</g>
</g>
<!-- packages/UI/piano&#45;roll/beat&#45;view/src/beat&#45;bar&#45;series.ts&#45;&gt;packages/UI/piano&#45;roll/beat&#45;view/src/beat&#45;bar/index.ts -->
<g id="edge2" class="edge">
<title>packages/UI/piano&#45;roll/beat&#45;view/src/beat&#45;bar&#45;series.ts&#45;&gt;packages/UI/piano&#45;roll/beat&#45;view/src/beat&#45;bar/index.ts</title>
<path fill="none" stroke="#000000" stroke-width="2" stroke-opacity="0.200000" d="M225.71,-289.47C251.29,-292.57 282.29,-296.32 305.34,-299.11"/>
<polygon fill="#000000" fill-opacity="0.200000" stroke="#000000" stroke-width="2" stroke-opacity="0.200000" points="305.11,-301.19 311.32,-299.83 305.62,-297.02 305.11,-301.19"/>
</g>
<!-- packages/music&#45;structure/beat/beat&#45;estimation/dist/index.js -->
<g id="node7" class="node">
<title>packages/music&#45;structure/beat/beat&#45;estimation/dist/index.js</title>
<g id="a_node7"><a xlink:href="packages/music-structure/beat/beat-estimation/dist/index.js" xlink:title="index.js">
<polygon fill="#ffffcc" stroke="black" points="300.02,-253.7 298.52,-255.7 288.02,-255.7 286.52,-253.7 246.02,-253.7 246.02,-235.7 300.02,-235.7 300.02,-253.7"/>
<text text-anchor="start" x="255.52" y="-242.5" font-family="Helvetica,sans-Serif" font-size="9.00">index.js</text>
</a>
</g>
</g>
<!-- packages/UI/piano&#45;roll/beat&#45;view/src/beat&#45;bar&#45;series.ts&#45;&gt;packages/music&#45;structure/beat/beat&#45;estimation/dist/index.js -->
<g id="edge3" class="edge">
<title>packages/UI/piano&#45;roll/beat&#45;view/src/beat&#45;bar&#45;series.ts&#45;&gt;packages/music&#45;structure/beat/beat&#45;estimation/dist/index.js</title>
<path fill="none" stroke="#000000" stroke-width="2" stroke-opacity="0.200000" d="M200.45,-274.7C213.92,-269.13 231.3,-261.95 245.68,-256"/>
<polygon fill="#000000" fill-opacity="0.200000" stroke="#000000" stroke-width="2" stroke-opacity="0.200000" points="246.48,-257.94 251.23,-253.71 244.88,-254.06 246.48,-257.94"/>
</g>
<!-- packages/music&#45;structure/melody/melody&#45;analyze/dist/index.js -->
<g id="node8" class="node">
<title>packages/music&#45;structure/melody/melody&#45;analyze/dist/index.js</title>
<g id="a_node8"><a xlink:href="packages/music-structure/melody/melody-analyze/dist/index.js" xlink:title="index.js">
<polygon fill="#ffffcc" stroke="black" points="54,-301.07 52.5,-303.07 42,-303.07 40.5,-301.07 0,-301.07 0,-283.07 54,-283.07 54,-301.07"/>
<text text-anchor="start" x="9.5" y="-289.87" font-family="Helvetica,sans-Serif" font-size="9.00">index.js</text>
</a>
</g>
</g>
<!-- packages/UI/piano&#45;roll/beat&#45;view/src/beat&#45;bar&#45;series.ts&#45;&gt;packages/music&#45;structure/melody/melody&#45;analyze/dist/index.js -->
<g id="edge5" class="edge">
<title>packages/UI/piano&#45;roll/beat&#45;view/src/beat&#45;bar&#45;series.ts&#45;&gt;packages/music&#45;structure/melody/melody&#45;analyze/dist/index.js</title>
<path fill="none" stroke="#000000" stroke-width="2" stroke-opacity="0.200000" d="M131.42,-286.35C108.43,-287.61 81.31,-289.1 60.47,-290.24"/>
<polygon fill="#000000" fill-opacity="0.200000" stroke="#000000" stroke-width="2" stroke-opacity="0.200000" points="60.09,-288.16 54.22,-290.58 60.32,-292.35 60.09,-288.16"/>
</g>
<!-- packages/UI/view/dist/index.js -->
<g id="node9" class="node">
<title>packages/UI/view/dist/index.js</title>
<g id="a_node9"><a xlink:href="packages/UI/view/dist/index.js" xlink:title="index.js">
<polygon fill="#ffffcc" stroke="black" points="249.5,-146 248,-148 237.5,-148 236,-146 195.5,-146 195.5,-128 249.5,-128 249.5,-146"/>
<text text-anchor="start" x="205" y="-134.8" font-family="Helvetica,sans-Serif" font-size="9.00">index.js</text>
</a>
</g>
</g>
<!-- packages/UI/piano&#45;roll/beat&#45;view/src/beat&#45;bar&#45;series.ts&#45;&gt;packages/UI/view/dist/index.js -->
<g id="edge6" class="edge">
<title>packages/UI/piano&#45;roll/beat&#45;view/src/beat&#45;bar&#45;series.ts&#45;&gt;packages/UI/view/dist/index.js</title>
<path fill="none" stroke="#000000" stroke-width="2" stroke-opacity="0.200000" d="M181.28,-274.58C188.65,-249.98 208.91,-182.37 217.99,-152.05"/>
<polygon fill="#000000" fill-opacity="0.200000" stroke="#000000" stroke-width="2" stroke-opacity="0.200000" points="220.04,-152.53 219.75,-146.18 216.02,-151.33 220.04,-152.53"/>
</g>
<!-- packages/UI/piano&#45;roll/beat&#45;view/src/beat&#45;bar/beat&#45;bar.ts -->
<g id="node13" class="node">
<title>packages/UI/piano&#45;roll/beat&#45;view/src/beat&#45;bar/beat&#45;bar.ts</title>
<g id="a_node13"><a xlink:href="packages/UI/piano-roll/beat-view/src/beat-bar/beat-bar.ts" xlink:title="beat&#45;bar.ts">
<path fill="#ddfeff" stroke="black" d="M377.15,-162.2C377.15,-162.2 324.15,-162.2 324.15,-162.2 321.15,-162.2 318.15,-159.2 318.15,-156.2 318.15,-156.2 318.15,-150.2 318.15,-150.2 318.15,-147.2 321.15,-144.2 324.15,-144.2 324.15,-144.2 377.15,-144.2 377.15,-144.2 380.15,-144.2 383.15,-147.2 383.15,-150.2 383.15,-150.2 383.15,-156.2 383.15,-156.2 383.15,-159.2 380.15,-162.2 377.15,-162.2"/>
<text text-anchor="start" x="326.15" y="-151" font-family="Helvetica,sans-Serif" font-size="9.00">beat&#45;bar.ts</text>
</a>
</g>
</g>
<!-- packages/UI/piano&#45;roll/beat&#45;view/src/beat&#45;bar/index.ts&#45;&gt;packages/UI/piano&#45;roll/beat&#45;view/src/beat&#45;bar/beat&#45;bar.ts -->
<g id="edge20" class="edge">
<title>packages/UI/piano&#45;roll/beat&#45;view/src/beat&#45;bar/index.ts&#45;&gt;packages/UI/piano&#45;roll/beat&#45;view/src/beat&#45;bar/beat&#45;bar.ts</title>
<path fill="none" stroke="#000000" stroke-width="2" stroke-opacity="0.200000" d="M339.43,-293.76C341.44,-268.62 346.95,-199.54 349.42,-168.57"/>
<polygon fill="#000000" fill-opacity="0.200000" stroke="#000000" stroke-width="2" stroke-opacity="0.200000" points="351.99,-162.74 349.42,-168.55 347.81,-162.41 351.99,-162.74"/>
</g>
<!-- packages/UI/piano&#45;roll/beat&#45;view/src/beat&#45;bar/beat&#45;bar&#45;model.ts -->
<g id="node10" class="node">
<title>packages/UI/piano&#45;roll/beat&#45;view/src/beat&#45;bar/beat&#45;bar&#45;model.ts</title>
<g id="a_node10"><a xlink:href="packages/UI/piano-roll/beat-view/src/beat-bar/beat-bar-model.ts" xlink:title="beat&#45;bar&#45;model.ts">
<path fill="#ddfeff" stroke="black" d="M350.57,-93.74C350.57,-93.74 266.57,-93.74 266.57,-93.74 263.57,-93.74 260.57,-90.74 260.57,-87.74 260.57,-87.74 260.57,-81.74 260.57,-81.74 260.57,-78.74 263.57,-75.74 266.57,-75.74 266.57,-75.74 350.57,-75.74 350.57,-75.74 353.57,-75.74 356.57,-78.74 356.57,-81.74 356.57,-81.74 356.57,-87.74 356.57,-87.74 356.57,-90.74 353.57,-93.74 350.57,-93.74"/>
<text text-anchor="start" x="268.57" y="-82.54" font-family="Helvetica,sans-Serif" font-size="9.00">beat&#45;bar&#45;model.ts</text>
</a>
</g>
</g>
<!-- packages/UI/piano&#45;roll/beat&#45;view/src/beat&#45;bar/beat&#45;bar&#45;model.ts&#45;&gt;packages/music&#45;structure/beat/beat&#45;estimation/dist/index.js -->
<g id="edge7" class="edge">
<title>packages/UI/piano&#45;roll/beat&#45;view/src/beat&#45;bar/beat&#45;bar&#45;model.ts&#45;&gt;packages/music&#45;structure/beat/beat&#45;estimation/dist/index.js</title>
<path fill="none" stroke="#000000" stroke-width="2" stroke-opacity="0.200000" d="M306.56,-93.8C300.72,-120.07 283.73,-196.5 276.43,-229.37"/>
<polygon fill="#000000" fill-opacity="0.200000" stroke="#000000" stroke-width="2" stroke-opacity="0.200000" points="274.35,-229.03 275.1,-235.34 278.45,-229.94 274.35,-229.03"/>
</g>
<!-- packages/UI/piano&#45;roll/beat&#45;view/src/beat&#45;bar/beat&#45;bar&#45;model.ts&#45;&gt;packages/UI/view/dist/index.js -->
<g id="edge9" class="edge">
<title>packages/UI/piano&#45;roll/beat&#45;view/src/beat&#45;bar/beat&#45;bar&#45;model.ts&#45;&gt;packages/UI/view/dist/index.js</title>
<path fill="none" stroke="#000000" stroke-width="2" stroke-opacity="0.200000" d="M293.58,-93.84C279.59,-102.33 258.61,-115.07 243.07,-124.51"/>
<polygon fill="#000000" fill-opacity="0.200000" stroke="#000000" stroke-width="2" stroke-opacity="0.200000" points="241.65,-122.92 237.61,-127.83 243.83,-126.51 241.65,-122.92"/>
</g>
<!-- packages/util/time&#45;and/dist/index.js -->
<g id="node11" class="node">
<title>packages/util/time&#45;and/dist/index.js</title>
<g id="a_node11"><a xlink:href="packages/util/time-and/dist/index.js" xlink:title="index.js">
<polygon fill="#ffffcc" stroke="black" points="426.04,-18 424.54,-20 414.04,-20 412.54,-18 372.04,-18 372.04,0 426.04,0 426.04,-18"/>
<text text-anchor="start" x="381.54" y="-6.8" font-family="Helvetica,sans-Serif" font-size="9.00">index.js</text>
</a>
</g>
</g>
<!-- packages/UI/piano&#45;roll/beat&#45;view/src/beat&#45;bar/beat&#45;bar&#45;model.ts&#45;&gt;packages/util/time&#45;and/dist/index.js -->
<g id="edge8" class="edge">
<title>packages/UI/piano&#45;roll/beat&#45;view/src/beat&#45;bar/beat&#45;bar&#45;model.ts&#45;&gt;packages/util/time&#45;and/dist/index.js</title>
<path fill="none" stroke="#000000" stroke-width="2" stroke-opacity="0.200000" d="M319.66,-75.45C335.62,-62.09 365.13,-37.39 383.33,-22.15"/>
<polygon fill="#000000" fill-opacity="0.200000" stroke="#000000" stroke-width="2" stroke-opacity="0.200000" points="384.89,-23.59 388.14,-18.13 382.19,-20.37 384.89,-23.59"/>
</g>
<!-- packages/UI/piano&#45;roll/beat&#45;view/src/beat&#45;bar/beat&#45;bar&#45;view.ts -->
<g id="node12" class="node">
<title>packages/UI/piano&#45;roll/beat&#45;view/src/beat&#45;bar/beat&#45;bar&#45;view.ts</title>
<g id="a_node12"><a xlink:href="packages/UI/piano-roll/beat-view/src/beat-bar/beat-bar-view.ts" xlink:title="beat&#45;bar&#45;view.ts">
<path fill="#ddfeff" stroke="black" d="M286.71,-29.16C286.71,-29.16 210.71,-29.16 210.71,-29.16 207.71,-29.16 204.71,-26.16 204.71,-23.16 204.71,-23.16 204.71,-17.16 204.71,-17.16 204.71,-14.16 207.71,-11.16 210.71,-11.16 210.71,-11.16 286.71,-11.16 286.71,-11.16 289.71,-11.16 292.71,-14.16 292.71,-17.16 292.71,-17.16 292.71,-23.16 292.71,-23.16 292.71,-26.16 289.71,-29.16 286.71,-29.16"/>
<text text-anchor="start" x="212.71" y="-17.96" font-family="Helvetica,sans-Serif" font-size="9.00">beat&#45;bar&#45;view.ts</text>
</a>
</g>
</g>
<!-- packages/UI/piano&#45;roll/beat&#45;view/src/beat&#45;bar/beat&#45;bar&#45;view.ts&#45;&gt;packages/UI/view/dist/index.js -->
<g id="edge11" class="edge">
<title>packages/UI/piano&#45;roll/beat&#45;view/src/beat&#45;bar/beat&#45;bar&#45;view.ts&#45;&gt;packages/UI/view/dist/index.js</title>
<path fill="none" stroke="#000000" stroke-width="2" stroke-opacity="0.200000" d="M246.65,-29.33C242.16,-49.38 231.41,-97.29 225.89,-121.88"/>
<polygon fill="#000000" fill-opacity="0.200000" stroke="#000000" stroke-width="2" stroke-opacity="0.200000" points="223.81,-121.56 224.55,-127.88 227.91,-122.48 223.81,-121.56"/>
</g>
<!-- packages/UI/piano&#45;roll/beat&#45;view/src/beat&#45;bar/beat&#45;bar&#45;view.ts&#45;&gt;packages/UI/piano&#45;roll/beat&#45;view/src/beat&#45;bar/beat&#45;bar&#45;model.ts -->
<g id="edge10" class="edge">
<title>packages/UI/piano&#45;roll/beat&#45;view/src/beat&#45;bar/beat&#45;bar&#45;view.ts&#45;&gt;packages/UI/piano&#45;roll/beat&#45;view/src/beat&#45;bar/beat&#45;bar&#45;model.ts</title>
<path fill="none" stroke="#000000" stroke-width="2" stroke-opacity="0.200000" d="M257.29,-29.41C267.33,-40.25 284.07,-58.31 295.68,-70.84"/>
<polygon fill="#000000" fill-opacity="0.200000" stroke="#000000" stroke-width="2" stroke-opacity="0.200000" points="294.39,-72.53 300.01,-75.5 297.47,-69.68 294.39,-72.53"/>
</g>
<!-- packages/UI/piano&#45;roll/beat&#45;view/src/beat&#45;bar/beat&#45;bar.ts&#45;&gt;packages/UI/controllers/dist/index.js -->
<g id="edge15" class="edge">
<title>packages/UI/piano&#45;roll/beat&#45;view/src/beat&#45;bar/beat&#45;bar.ts&#45;&gt;packages/UI/controllers/dist/index.js</title>
<path fill="none" stroke="#000000" stroke-width="2" stroke-opacity="0.200000" d="M318.11,-154.95C285.43,-156.71 235.29,-159.41 202.24,-161.2"/>
<polygon fill="#000000" fill-opacity="0.200000" stroke="#000000" stroke-width="2" stroke-opacity="0.200000" points="201.75,-159.12 195.87,-161.54 201.98,-163.31 201.75,-159.12"/>
</g>
<!-- packages/UI/piano&#45;roll/beat&#45;view/src/beat&#45;bar/beat&#45;bar.ts&#45;&gt;packages/music&#45;structure/beat/beat&#45;estimation/dist/index.js -->
<g id="edge14" class="edge">
<title>packages/UI/piano&#45;roll/beat&#45;view/src/beat&#45;bar/beat&#45;bar.ts&#45;&gt;packages/music&#45;structure/beat/beat&#45;estimation/dist/index.js</title>
<path fill="none" stroke="#000000" stroke-width="2" stroke-opacity="0.200000" d="M342.92,-162.3C329.32,-178.34 301.02,-211.69 284.92,-230.68"/>
<polygon fill="#000000" fill-opacity="0.200000" stroke="#000000" stroke-width="2" stroke-opacity="0.200000" points="283,-229.69 280.72,-235.63 286.2,-232.41 283,-229.69"/>
</g>
<!-- packages/UI/piano&#45;roll/beat&#45;view/src/beat&#45;bar/beat&#45;bar.ts&#45;&gt;packages/UI/view/dist/index.js -->
<g id="edge18" class="edge">
<title>packages/UI/piano&#45;roll/beat&#45;view/src/beat&#45;bar/beat&#45;bar.ts&#45;&gt;packages/UI/view/dist/index.js</title>
<path fill="none" stroke="#000000" stroke-width="2" stroke-opacity="0.200000" d="M317.98,-149.07C299.06,-146.68 275.28,-143.67 256.19,-141.26"/>
<polygon fill="#000000" fill-opacity="0.200000" stroke="#000000" stroke-width="2" stroke-opacity="0.200000" points="256.13,-139.14 249.91,-140.47 255.6,-143.3 256.13,-139.14"/>
</g>
<!-- packages/UI/piano&#45;roll/beat&#45;view/src/beat&#45;bar/beat&#45;bar.ts&#45;&gt;packages/UI/piano&#45;roll/beat&#45;view/src/beat&#45;bar/beat&#45;bar&#45;model.ts -->
<g id="edge12" class="edge">
<title>packages/UI/piano&#45;roll/beat&#45;view/src/beat&#45;bar/beat&#45;bar.ts&#45;&gt;packages/UI/piano&#45;roll/beat&#45;view/src/beat&#45;bar/beat&#45;bar&#45;model.ts</title>
<path fill="none" stroke="#000000" stroke-width="2" stroke-opacity="0.200000" d="M344.97,-143.96C337.91,-132.47 325.76,-112.7 317.45,-99.19"/>
<polygon fill="#000000" fill-opacity="0.200000" stroke="#000000" stroke-width="2" stroke-opacity="0.200000" points="319.09,-97.84 314.15,-93.82 315.51,-100.04 319.09,-97.84"/>
</g>
<!-- packages/UI/piano&#45;roll/beat&#45;view/src/beat&#45;bar/beat&#45;bar.ts&#45;&gt;packages/util/time&#45;and/dist/index.js -->
<g id="edge17" class="edge">
<title>packages/UI/piano&#45;roll/beat&#45;view/src/beat&#45;bar/beat&#45;bar.ts&#45;&gt;packages/util/time&#45;and/dist/index.js</title>
<path fill="none" stroke="#000000" stroke-width="2" stroke-opacity="0.200000" d="M353.68,-144.18C361.79,-120 384.08,-53.57 394.08,-23.79"/>
<polygon fill="#000000" fill-opacity="0.200000" stroke="#000000" stroke-width="2" stroke-opacity="0.200000" points="396.1,-24.37 396.01,-18.02 392.11,-23.04 396.1,-24.37"/>
</g>
<!-- packages/UI/piano&#45;roll/beat&#45;view/src/beat&#45;bar/beat&#45;bar.ts&#45;&gt;packages/UI/piano&#45;roll/beat&#45;view/src/beat&#45;bar/beat&#45;bar&#45;view.ts -->
<g id="edge13" class="edge">
<title>packages/UI/piano&#45;roll/beat&#45;view/src/beat&#45;bar/beat&#45;bar.ts&#45;&gt;packages/UI/piano&#45;roll/beat&#45;view/src/beat&#45;bar/beat&#45;bar&#45;view.ts</title>
<path fill="none" stroke="#000000" stroke-width="2" stroke-opacity="0.200000" d="M343.64,-144.05C326.18,-121.27 280.64,-61.83 259.63,-34.41"/>
<polygon fill="#000000" fill-opacity="0.200000" stroke="#000000" stroke-width="2" stroke-opacity="0.200000" points="261.08,-32.86 255.77,-29.37 257.75,-35.41 261.08,-32.86"/>
</g>
<!-- packages/UI/synth/dist/index.js -->
<g id="node14" class="node">
<title>packages/UI/synth/dist/index.js</title>
<g id="a_node14"><a xlink:href="packages/UI/synth/dist/index.js" xlink:title="index.js">
<polygon fill="#ffffcc" stroke="black" points="515.27,-110.6 513.77,-112.6 503.27,-112.6 501.77,-110.6 461.27,-110.6 461.27,-92.6 515.27,-92.6 515.27,-110.6"/>
<text text-anchor="start" x="470.77" y="-99.4" font-family="Helvetica,sans-Serif" font-size="9.00">index.js</text>
</a>
</g>
</g>
<!-- packages/UI/piano&#45;roll/beat&#45;view/src/beat&#45;bar/beat&#45;bar.ts&#45;&gt;packages/UI/synth/dist/index.js -->
<g id="edge16" class="edge">
<title>packages/UI/piano&#45;roll/beat&#45;view/src/beat&#45;bar/beat&#45;bar.ts&#45;&gt;packages/UI/synth/dist/index.js</title>
<path fill="none" stroke="#000000" stroke-width="2" stroke-opacity="0.200000" d="M374.94,-144.09C398.22,-135.36 433.44,-122.16 458.43,-112.79"/>
<polygon fill="#000000" fill-opacity="0.200000" stroke="#000000" stroke-width="2" stroke-opacity="0.200000" points="459.35,-114.68 464.23,-110.61 457.87,-110.75 459.35,-114.68"/>
</g>
<!-- packages/UI/view&#45;parameters/dist/index.js -->
<g id="node15" class="node">
<title>packages/UI/view&#45;parameters/dist/index.js</title>
<g id="a_node15"><a xlink:href="packages/UI/view-parameters/dist/index.js" xlink:title="index.js">
<polygon fill="#ffffcc" stroke="black" points="514.01,-226.44 512.51,-228.44 502.01,-228.44 500.51,-226.44 460.01,-226.44 460.01,-208.44 514.01,-208.44 514.01,-226.44"/>
<text text-anchor="start" x="469.51" y="-215.24" font-family="Helvetica,sans-Serif" font-size="9.00">index.js</text>
</a>
</g>
</g>
<!-- packages/UI/piano&#45;roll/beat&#45;view/src/beat&#45;bar/beat&#45;bar.ts&#45;&gt;packages/UI/view&#45;parameters/dist/index.js -->
<g id="edge19" class="edge">
<title>packages/UI/piano&#45;roll/beat&#45;view/src/beat&#45;bar/beat&#45;bar.ts&#45;&gt;packages/UI/view&#45;parameters/dist/index.js</title>
<path fill="none" stroke="#000000" stroke-width="2" stroke-opacity="0.200000" d="M369.9,-162.26C394.06,-173.65 435.55,-193.19 462.11,-205.7"/>
<polygon fill="#000000" fill-opacity="0.200000" stroke="#000000" stroke-width="2" stroke-opacity="0.200000" points="461.54,-207.76 467.86,-208.42 463.33,-203.96 461.54,-207.76"/>
</g>
<!-- packages/UI/piano&#45;roll/beat&#45;view/src/beat&#45;elements.ts&#45;&gt;packages/UI/piano&#45;roll/beat&#45;view/src/beat&#45;bar&#45;series.ts -->
<g id="edge21" class="edge">
<title>packages/UI/piano&#45;roll/beat&#45;view/src/beat&#45;elements.ts&#45;&gt;packages/UI/piano&#45;roll/beat&#45;view/src/beat&#45;bar&#45;series.ts</title>
<path fill="none" stroke="#000000" stroke-width="2" stroke-opacity="0.200000" d="M144.83,-334.92C151.25,-325.18 161.49,-309.63 169,-298.23"/>
<polygon fill="#000000" fill-opacity="0.200000" stroke="#000000" stroke-width="2" stroke-opacity="0.200000" points="170.89,-299.18 172.44,-293.01 167.38,-296.87 170.89,-299.18"/>
</g>
<!-- packages/UI/piano&#45;roll/beat&#45;view/src/beat&#45;elements.ts&#45;&gt;packages/music&#45;structure/beat/beat&#45;estimation/dist/index.js -->
<g id="edge22" class="edge">
<title>packages/UI/piano&#45;roll/beat&#45;view/src/beat&#45;elements.ts&#45;&gt;packages/music&#45;structure/beat/beat&#45;estimation/dist/index.js</title>
<path fill="none" stroke="#000000" stroke-width="2" stroke-opacity="0.200000" d="M151.18,-334.91C175.16,-317.16 227.95,-278.07 255.51,-257.67"/>
<polygon fill="#000000" fill-opacity="0.200000" stroke="#000000" stroke-width="2" stroke-opacity="0.200000" points="257.09,-259.1 260.67,-253.85 254.59,-255.73 257.09,-259.1"/>
</g>
<!-- packages/UI/piano&#45;roll/beat&#45;view/src/beat&#45;elements.ts&#45;&gt;packages/music&#45;structure/melody/melody&#45;analyze/dist/index.js -->
<g id="edge23" class="edge">
<title>packages/UI/piano&#45;roll/beat&#45;view/src/beat&#45;elements.ts&#45;&gt;packages/music&#45;structure/melody/melody&#45;analyze/dist/index.js</title>
<path fill="none" stroke="#000000" stroke-width="2" stroke-opacity="0.200000" d="M119.32,-335.02C100.68,-326.35 72.47,-313.22 52.14,-303.77"/>
<polygon fill="#000000" fill-opacity="0.200000" stroke="#000000" stroke-width="2" stroke-opacity="0.200000" points="52.95,-301.83 46.63,-301.2 51.18,-305.64 52.95,-301.83"/>
</g>
</g>
</svg>
