<?xml version="1.0" encoding="UTF-8" standalone="no"?>
<!DOCTYPE svg PUBLIC "-//W3C//DTD SVG 1.1//EN"
 "http://www.w3.org/Graphics/SVG/1.1/DTD/svg11.dtd">
<!-- Generated by graphviz version 2.43.0 (0)
 -->
<!-- Title: dependency&#45;cruiser output Pages: 1 -->
<svg width="961pt" height="872pt"
 viewBox="0.00 0.00 961.00 872.00" xmlns="http://www.w3.org/2000/svg" xmlns:xlink="http://www.w3.org/1999/xlink">
<g id="graph0" class="graph" transform="scale(1 1) rotate(0) translate(4 868)">
<title>dependency&#45;cruiser output</title>
<polygon fill="white" stroke="transparent" points="-4,4 -4,-868 957,-868 957,4 -4,4"/>
<g id="clust1" class="cluster">
<title>cluster_packages</title>
<path fill="#ffffff" stroke="black" stroke-width="2" d="M20,-8C20,-8 939,-8 939,-8 945,-8 951,-14 951,-20 951,-20 951,-844 951,-844 951,-850 945,-856 939,-856 939,-856 20,-856 20,-856 14,-856 8,-850 8,-844 8,-844 8,-20 8,-20 8,-14 14,-8 20,-8"/>
<text text-anchor="middle" x="479.5" y="-844.8" font-family="Helvetica,sans-Serif" font-weight="bold" font-size="9.00">packages</text>
</g>
<g id="clust2" class="cluster">
<title>cluster_packages/UI</title>
<path fill="#ffffff" stroke="black" stroke-width="2" d="M28,-144C28,-144 917,-144 917,-144 923,-144 929,-150 929,-156 929,-156 929,-656 929,-656 929,-662 923,-668 917,-668 917,-668 28,-668 28,-668 22,-668 16,-662 16,-656 16,-656 16,-156 16,-156 16,-150 22,-144 28,-144"/>
<text text-anchor="middle" x="472.5" y="-656.8" font-family="Helvetica,sans-Serif" font-weight="bold" font-size="9.00">UI</text>
</g>
<g id="clust3" class="cluster">
<title>cluster_packages/UI/controllers</title>
<path fill="#ffffff" stroke="black" stroke-width="2" d="M847,-330C847,-330 909,-330 909,-330 915,-330 921,-336 921,-342 921,-342 921,-404 921,-404 921,-410 915,-416 909,-416 909,-416 847,-416 847,-416 841,-416 835,-410 835,-404 835,-404 835,-342 835,-342 835,-336 841,-330 847,-330"/>
<text text-anchor="middle" x="878" y="-404.8" font-family="Helvetica,sans-Serif" font-weight="bold" font-size="9.00">controllers</text>
</g>
<g id="clust4" class="cluster">
<title>cluster_packages/UI/controllers/dist</title>
<path fill="#ffffff" stroke="black" stroke-width="2" d="M855,-338C855,-338 901,-338 901,-338 907,-338 913,-344 913,-350 913,-350 913,-378 913,-378 913,-384 907,-390 901,-390 901,-390 855,-390 855,-390 849,-390 843,-384 843,-378 843,-378 843,-350 843,-350 843,-344 849,-338 855,-338"/>
<text text-anchor="middle" x="878" y="-378.8" font-family="Helvetica,sans-Serif" font-weight="bold" font-size="9.00">dist</text>
</g>
<g id="clust5" class="cluster">
<title>cluster_packages/UI/piano&#45;roll</title>
<path fill="#ffffff" stroke="black" stroke-width="2" d="M36,-340C36,-340 785,-340 785,-340 791,-340 797,-346 797,-352 797,-352 797,-630 797,-630 797,-636 791,-642 785,-642 785,-642 36,-642 36,-642 30,-642 24,-636 24,-630 24,-630 24,-352 24,-352 24,-346 30,-340 36,-340"/>
<text text-anchor="middle" x="410.5" y="-630.8" font-family="Helvetica,sans-Serif" font-weight="bold" font-size="9.00">piano&#45;roll</text>
</g>
<g id="clust6" class="cluster">
<title>cluster_packages/UI/piano&#45;roll/beat&#45;view</title>
<path fill="#ffffff" stroke="black" stroke-width="2" d="M44,-348C44,-348 777,-348 777,-348 783,-348 789,-354 789,-360 789,-360 789,-604 789,-604 789,-610 783,-616 777,-616 777,-616 44,-616 44,-616 38,-616 32,-610 32,-604 32,-604 32,-360 32,-360 32,-354 38,-348 44,-348"/>
<text text-anchor="middle" x="410.5" y="-604.8" font-family="Helvetica,sans-Serif" font-weight="bold" font-size="9.00">beat&#45;view</text>
</g>
<g id="clust7" class="cluster">
<title>cluster_packages/UI/piano&#45;roll/beat&#45;view/src</title>
<path fill="#ffffff" stroke="black" stroke-width="2" d="M133,-356C133,-356 769,-356 769,-356 775,-356 781,-362 781,-368 781,-368 781,-578 781,-578 781,-584 775,-590 769,-590 769,-590 133,-590 133,-590 127,-590 121,-584 121,-578 121,-578 121,-368 121,-368 121,-362 127,-356 133,-356"/>
<text text-anchor="middle" x="451" y="-578.8" font-family="Helvetica,sans-Serif" font-weight="bold" font-size="9.00">src</text>
</g>
<g id="clust8" class="cluster">
<title>cluster_packages/UI/piano&#45;roll/beat&#45;view/src/beat&#45;bar</title>
<path fill="#ffffff" stroke="black" stroke-width="2" d="M348,-364C348,-364 761,-364 761,-364 767,-364 773,-370 773,-376 773,-376 773,-418 773,-418 773,-424 767,-430 761,-430 761,-430 348,-430 348,-430 342,-430 336,-424 336,-418 336,-418 336,-376 336,-376 336,-370 342,-364 348,-364"/>
<text text-anchor="middle" x="554.5" y="-418.8" font-family="Helvetica,sans-Serif" font-weight="bold" font-size="9.00">beat&#45;bar</text>
</g>
<g id="clust9" class="cluster">
<title>cluster_packages/UI/piano&#45;roll/beat&#45;view/src/interface</title>
<path fill="#ffffff" stroke="black" stroke-width="2" d="M348,-438C348,-438 501,-438 501,-438 507,-438 513,-444 513,-450 513,-450 513,-478 513,-478 513,-484 507,-490 501,-490 501,-490 348,-490 348,-490 342,-490 336,-484 336,-478 336,-478 336,-450 336,-450 336,-444 342,-438 348,-438"/>
<text text-anchor="middle" x="424.5" y="-478.8" font-family="Helvetica,sans-Serif" font-weight="bold" font-size="9.00">interface</text>
</g>
<g id="clust10" class="cluster">
<title>cluster_packages/UI/piano&#45;roll/beat&#45;view/src/requirement</title>
<path fill="#ffffff" stroke="black" stroke-width="2" d="M348,-498C348,-498 745.5,-498 745.5,-498 751.5,-498 757.5,-504 757.5,-510 757.5,-510 757.5,-552 757.5,-552 757.5,-558 751.5,-564 745.5,-564 745.5,-564 348,-564 348,-564 342,-564 336,-558 336,-552 336,-552 336,-510 336,-510 336,-504 342,-498 348,-498"/>
<text text-anchor="middle" x="546.75" y="-552.8" font-family="Helvetica,sans-Serif" font-weight="bold" font-size="9.00">requirement</text>
</g>
<g id="clust11" class="cluster">
<title>cluster_packages/UI/synth</title>
<path fill="#ffffff" stroke="black" stroke-width="2" d="M557,-152C557,-152 619,-152 619,-152 625,-152 631,-158 631,-164 631,-164 631,-226 631,-226 631,-232 625,-238 619,-238 619,-238 557,-238 557,-238 551,-238 545,-232 545,-226 545,-226 545,-164 545,-164 545,-158 551,-152 557,-152"/>
<text text-anchor="middle" x="588" y="-226.8" font-family="Helvetica,sans-Serif" font-weight="bold" font-size="9.00">synth</text>
</g>
<g id="clust12" class="cluster">
<title>cluster_packages/UI/synth/dist</title>
<path fill="#ffffff" stroke="black" stroke-width="2" d="M565,-160C565,-160 611,-160 611,-160 617,-160 623,-166 623,-172 623,-172 623,-200 623,-200 623,-206 617,-212 611,-212 611,-212 565,-212 565,-212 559,-212 553,-206 553,-200 553,-200 553,-172 553,-172 553,-166 559,-160 565,-160"/>
<text text-anchor="middle" x="588" y="-200.8" font-family="Helvetica,sans-Serif" font-weight="bold" font-size="9.00">dist</text>
</g>
<g id="clust13" class="cluster">
<title>cluster_packages/UI/view&#45;parameters</title>
<path fill="#ffffff" stroke="black" stroke-width="2" d="M549,-246C549,-246 628,-246 628,-246 634,-246 640,-252 640,-258 640,-258 640,-320 640,-320 640,-326 634,-332 628,-332 628,-332 549,-332 549,-332 543,-332 537,-326 537,-320 537,-320 537,-258 537,-258 537,-252 543,-246 549,-246"/>
<text text-anchor="middle" x="588.5" y="-320.8" font-family="Helvetica,sans-Serif" font-weight="bold" font-size="9.00">view&#45;parameters</text>
</g>
<g id="clust14" class="cluster">
<title>cluster_packages/UI/view&#45;parameters/dist</title>
<path fill="#ffffff" stroke="black" stroke-width="2" d="M565,-254C565,-254 611,-254 611,-254 617,-254 623,-260 623,-266 623,-266 623,-294 623,-294 623,-300 617,-306 611,-306 611,-306 565,-306 565,-306 559,-306 553,-300 553,-294 553,-294 553,-266 553,-266 553,-260 559,-254 565,-254"/>
<text text-anchor="middle" x="588" y="-294.8" font-family="Helvetica,sans-Serif" font-weight="bold" font-size="9.00">dist</text>
</g>
<g id="clust15" class="cluster">
<title>cluster_packages/UI/view</title>
<path fill="#ffffff" stroke="black" stroke-width="2" d="M847,-552C847,-552 909,-552 909,-552 915,-552 921,-558 921,-564 921,-564 921,-626 921,-626 921,-632 915,-638 909,-638 909,-638 847,-638 847,-638 841,-638 835,-632 835,-626 835,-626 835,-564 835,-564 835,-558 841,-552 847,-552"/>
<text text-anchor="middle" x="878" y="-626.8" font-family="Helvetica,sans-Serif" font-weight="bold" font-size="9.00">view</text>
</g>
<g id="clust16" class="cluster">
<title>cluster_packages/UI/view/dist</title>
<path fill="#ffffff" stroke="black" stroke-width="2" d="M855,-560C855,-560 901,-560 901,-560 907,-560 913,-566 913,-572 913,-572 913,-600 913,-600 913,-606 907,-612 901,-612 901,-612 855,-612 855,-612 849,-612 843,-606 843,-600 843,-600 843,-572 843,-572 843,-566 849,-560 855,-560"/>
<text text-anchor="middle" x="878" y="-600.8" font-family="Helvetica,sans-Serif" font-weight="bold" font-size="9.00">dist</text>
</g>
<g id="clust17" class="cluster">
<title>cluster_packages/music&#45;structure</title>
<path fill="#ffffff" stroke="black" stroke-width="2" d="M825,-676C825,-676 931,-676 931,-676 937,-676 943,-682 943,-688 943,-688 943,-818 943,-818 943,-824 937,-830 931,-830 931,-830 825,-830 825,-830 819,-830 813,-824 813,-818 813,-818 813,-688 813,-688 813,-682 819,-676 825,-676"/>
<text text-anchor="middle" x="878" y="-818.8" font-family="Helvetica,sans-Serif" font-weight="bold" font-size="9.00">music&#45;structure</text>
</g>
<g id="clust18" class="cluster">
<title>cluster_packages/music&#45;structure/beat</title>
<path fill="#ffffff" stroke="black" stroke-width="2" d="M833,-684C833,-684 923,-684 923,-684 929,-684 935,-690 935,-696 935,-696 935,-792 935,-792 935,-798 929,-804 923,-804 923,-804 833,-804 833,-804 827,-804 821,-798 821,-792 821,-792 821,-696 821,-696 821,-690 827,-684 833,-684"/>
<text text-anchor="middle" x="878" y="-792.8" font-family="Helvetica,sans-Serif" font-weight="bold" font-size="9.00">beat</text>
</g>
<g id="clust19" class="cluster">
<title>cluster_packages/music&#45;structure/beat/beat&#45;estimation</title>
<path fill="#ffffff" stroke="black" stroke-width="2" d="M841,-692C841,-692 915,-692 915,-692 921,-692 927,-698 927,-704 927,-704 927,-766 927,-766 927,-772 921,-778 915,-778 915,-778 841,-778 841,-778 835,-778 829,-772 829,-766 829,-766 829,-704 829,-704 829,-698 835,-692 841,-692"/>
<text text-anchor="middle" x="878" y="-766.8" font-family="Helvetica,sans-Serif" font-weight="bold" font-size="9.00">beat&#45;estimation</text>
</g>
<g id="clust20" class="cluster">
<title>cluster_packages/music&#45;structure/beat/beat&#45;estimation/dist</title>
<path fill="#ffffff" stroke="black" stroke-width="2" d="M855,-700C855,-700 901,-700 901,-700 907,-700 913,-706 913,-712 913,-712 913,-740 913,-740 913,-746 907,-752 901,-752 901,-752 855,-752 855,-752 849,-752 843,-746 843,-740 843,-740 843,-712 843,-712 843,-706 849,-700 855,-700"/>
<text text-anchor="middle" x="878" y="-740.8" font-family="Helvetica,sans-Serif" font-weight="bold" font-size="9.00">dist</text>
</g>
<g id="clust21" class="cluster">
<title>cluster_packages/util</title>
<path fill="#ffffff" stroke="black" stroke-width="2" d="M839,-16C839,-16 917,-16 917,-16 923,-16 929,-22 929,-28 929,-28 929,-124 929,-124 929,-130 923,-136 917,-136 917,-136 839,-136 839,-136 833,-136 827,-130 827,-124 827,-124 827,-28 827,-28 827,-22 833,-16 839,-16"/>
<text text-anchor="middle" x="878" y="-124.8" font-family="Helvetica,sans-Serif" font-weight="bold" font-size="9.00">util</text>
</g>
<g id="clust22" class="cluster">
<title>cluster_packages/util/time&#45;and</title>
<path fill="#ffffff" stroke="black" stroke-width="2" d="M847,-24C847,-24 909,-24 909,-24 915,-24 921,-30 921,-36 921,-36 921,-98 921,-98 921,-104 915,-110 909,-110 909,-110 847,-110 847,-110 841,-110 835,-104 835,-98 835,-98 835,-36 835,-36 835,-30 841,-24 847,-24"/>
<text text-anchor="middle" x="878" y="-98.8" font-family="Helvetica,sans-Serif" font-weight="bold" font-size="9.00">time&#45;and</text>
</g>
<g id="clust23" class="cluster">
<title>cluster_packages/util/time&#45;and/dist</title>
<path fill="#ffffff" stroke="black" stroke-width="2" d="M855,-32C855,-32 901,-32 901,-32 907,-32 913,-38 913,-44 913,-44 913,-72 913,-72 913,-78 907,-84 901,-84 901,-84 855,-84 855,-84 849,-84 843,-78 843,-72 843,-72 843,-44 843,-44 843,-38 849,-32 855,-32"/>
<text text-anchor="middle" x="878" y="-72.8" font-family="Helvetica,sans-Serif" font-weight="bold" font-size="9.00">dist</text>
</g>
<!-- packages/UI/controllers/dist/index.js -->
<g id="node1" class="node">
<title>packages/UI/controllers/dist/index.js</title>
<g id="a_node1"><a xlink:href="packages/UI/controllers/dist/index.js" xlink:title="index.js">
<polygon fill="#ffffcc" stroke="black" points="905,-364 903.5,-366 893,-366 891.5,-364 851,-364 851,-346 905,-346 905,-364"/>
<text text-anchor="start" x="860.5" y="-352.8" font-family="Helvetica,sans-Serif" font-size="9.00">index.js</text>
</a>
</g>
</g>
<!-- packages/UI/piano&#45;roll/beat&#45;view/index.test.ts -->
<g id="node2" class="node">
<title>packages/UI/piano&#45;roll/beat&#45;view/index.test.ts</title>
<g id="a_node2"><a xlink:href="packages/UI/piano-roll/beat-view/index.test.ts" xlink:title="no&#45;orphans">
<path fill="#ccffcc" stroke="orange" d="M107,-581C107,-581 46,-581 46,-581 43,-581 40,-578 40,-575 40,-575 40,-569 40,-569 40,-566 43,-563 46,-563 46,-563 107,-563 107,-563 110,-563 113,-566 113,-569 113,-569 113,-575 113,-575 113,-578 110,-581 107,-581"/>
<text text-anchor="start" x="48" y="-569.8" font-family="Helvetica,sans-Serif" font-size="9.00" fill="orange">index.test.ts</text>
</a>
</g>
</g>
<!-- packages/UI/piano&#45;roll/beat&#45;view/index.ts -->
<g id="node3" class="node">
<title>packages/UI/piano&#45;roll/beat&#45;view/index.ts</title>
<g id="a_node3"><a xlink:href="packages/UI/piano-roll/beat-view/index.ts" xlink:title="index.ts">
<path fill="#ddfeff" stroke="black" d="M97.5,-533C97.5,-533 55.5,-533 55.5,-533 52.5,-533 49.5,-530 49.5,-527 49.5,-527 49.5,-521 49.5,-521 49.5,-518 52.5,-515 55.5,-515 55.5,-515 97.5,-515 97.5,-515 100.5,-515 103.5,-518 103.5,-521 103.5,-521 103.5,-527 103.5,-527 103.5,-530 100.5,-533 97.5,-533"/>
<text text-anchor="start" x="58" y="-521.8" font-family="Helvetica,sans-Serif" font-size="9.00">index.ts</text>
</a>
</g>
</g>
<!-- packages/UI/piano&#45;roll/beat&#45;view/src/beat&#45;elements.ts -->
<g id="node4" class="node">
<title>packages/UI/piano&#45;roll/beat&#45;view/src/beat&#45;elements.ts</title>
<g id="a_node4"><a xlink:href="packages/UI/piano-roll/beat-view/src/beat-elements.ts" xlink:title="beat&#45;elements.ts">
<path fill="#ddfeff" stroke="black" d="M215,-524C215,-524 135,-524 135,-524 132,-524 129,-521 129,-518 129,-518 129,-512 129,-512 129,-509 132,-506 135,-506 135,-506 215,-506 215,-506 218,-506 221,-509 221,-512 221,-512 221,-518 221,-518 221,-521 218,-524 215,-524"/>
<text text-anchor="start" x="137" y="-512.8" font-family="Helvetica,sans-Serif" font-size="9.00">beat&#45;elements.ts</text>
</a>
</g>
</g>
<!-- packages/UI/piano&#45;roll/beat&#45;view/index.ts&#45;&gt;packages/UI/piano&#45;roll/beat&#45;view/src/beat&#45;elements.ts -->
<g id="edge1" class="edge">
<title>packages/UI/piano&#45;roll/beat&#45;view/index.ts&#45;&gt;packages/UI/piano&#45;roll/beat&#45;view/src/beat&#45;elements.ts</title>
<path fill="none" stroke="#000000" stroke-width="2" stroke-opacity="0.200000" d="M103.61,-521.56C109.6,-521.01 116.16,-520.39 122.8,-519.78"/>
<polygon fill="#000000" fill-opacity="0.200000" stroke="#000000" stroke-width="2" stroke-opacity="0.200000" points="129.09,-521.3 122.93,-519.76 128.7,-517.12 129.09,-521.3"/>
</g>
<!-- packages/UI/piano&#45;roll/beat&#45;view/src/requirement/beat&#45;elements.ts -->
<g id="node5" class="node">
<title>packages/UI/piano&#45;roll/beat&#45;view/src/requirement/beat&#45;elements.ts</title>
<g id="a_node5"><a xlink:href="packages/UI/piano-roll/beat-view/src/requirement/beat-elements.ts" xlink:title="beat&#45;elements.ts">
<path fill="#ddfeff" stroke="black" d="M498,-538C498,-538 418,-538 418,-538 415,-538 412,-535 412,-532 412,-532 412,-526 412,-526 412,-523 415,-520 418,-520 418,-520 498,-520 498,-520 501,-520 504,-523 504,-526 504,-526 504,-532 504,-532 504,-535 501,-538 498,-538"/>
<text text-anchor="start" x="420" y="-526.8" font-family="Helvetica,sans-Serif" font-size="9.00">beat&#45;elements.ts</text>
</a>
</g>
</g>
<!-- packages/UI/piano&#45;roll/beat&#45;view/index.ts&#45;&gt;packages/UI/piano&#45;roll/beat&#45;view/src/requirement/beat&#45;elements.ts -->
<g id="edge2" class="edge">
<title>packages/UI/piano&#45;roll/beat&#45;view/index.ts&#45;&gt;packages/UI/piano&#45;roll/beat&#45;view/src/requirement/beat&#45;elements.ts</title>
<path fill="none" stroke="#000000" stroke-width="2" stroke-opacity="0.200000" d="M103.81,-528.84C112.97,-530.52 121,-532 121,-532 121,-532 328,-532 328,-532 328,-532 369.72,-531.03 405.7,-530.19"/>
<polygon fill="#000000" fill-opacity="0.200000" stroke="#000000" stroke-width="2" stroke-opacity="0.200000" points="411.93,-532.15 405.88,-530.19 411.83,-527.95 411.93,-532.15"/>
</g>
<!-- packages/UI/piano&#45;roll/beat&#45;view/src/beat&#45;bar&#45;series.ts -->
<g id="node6" class="node">
<title>packages/UI/piano&#45;roll/beat&#45;view/src/beat&#45;bar&#45;series.ts</title>
<g id="a_node6"><a xlink:href="packages/UI/piano-roll/beat-view/src/beat-bar-series.ts" xlink:title="beat&#45;bar&#45;series.ts">
<path fill="#ddfeff" stroke="black" d="M322,-502C322,-502 240,-502 240,-502 237,-502 234,-499 234,-496 234,-496 234,-490 234,-490 234,-487 237,-484 240,-484 240,-484 322,-484 322,-484 325,-484 328,-487 328,-490 328,-490 328,-496 328,-496 328,-499 325,-502 322,-502"/>
<text text-anchor="start" x="242" y="-490.8" font-family="Helvetica,sans-Serif" font-size="9.00">beat&#45;bar&#45;series.ts</text>
</a>
</g>
</g>
<!-- packages/UI/piano&#45;roll/beat&#45;view/src/beat&#45;elements.ts&#45;&gt;packages/UI/piano&#45;roll/beat&#45;view/src/beat&#45;bar&#45;series.ts -->
<g id="edge23" class="edge">
<title>packages/UI/piano&#45;roll/beat&#45;view/src/beat&#45;elements.ts&#45;&gt;packages/UI/piano&#45;roll/beat&#45;view/src/beat&#45;bar&#45;series.ts</title>
<path fill="none" stroke="#000000" stroke-width="2" stroke-opacity="0.200000" d="M218.6,-505.99C222.75,-505.11 226.97,-504.22 231.18,-503.33"/>
<polygon fill="#000000" fill-opacity="0.200000" stroke="#000000" stroke-width="2" stroke-opacity="0.200000" points="231.86,-505.33 237.3,-502.03 230.99,-501.22 231.86,-505.33"/>
</g>
<!-- packages/UI/piano&#45;roll/beat&#45;view/src/requirement/index.ts -->
<g id="node9" class="node">
<title>packages/UI/piano&#45;roll/beat&#45;view/src/requirement/index.ts</title>
<g id="a_node9"><a xlink:href="packages/UI/piano-roll/beat-view/src/requirement/index.ts" xlink:title="index.ts">
<path fill="#ddfeff" stroke="black" d="M392,-524C392,-524 350,-524 350,-524 347,-524 344,-521 344,-518 344,-518 344,-512 344,-512 344,-509 347,-506 350,-506 350,-506 392,-506 392,-506 395,-506 398,-509 398,-512 398,-512 398,-518 398,-518 398,-521 395,-524 392,-524"/>
<text text-anchor="start" x="352.5" y="-512.8" font-family="Helvetica,sans-Serif" font-size="9.00">index.ts</text>
</a>
</g>
</g>
<!-- packages/UI/piano&#45;roll/beat&#45;view/src/beat&#45;elements.ts&#45;&gt;packages/UI/piano&#45;roll/beat&#45;view/src/requirement/index.ts -->
<g id="edge24" class="edge">
<title>packages/UI/piano&#45;roll/beat&#45;view/src/beat&#45;elements.ts&#45;&gt;packages/UI/piano&#45;roll/beat&#45;view/src/requirement/index.ts</title>
<path fill="none" stroke="#000000" stroke-width="2" stroke-opacity="0.200000" d="M221.48,-515C257.18,-515 305.99,-515 337.75,-515"/>
<polygon fill="#000000" fill-opacity="0.200000" stroke="#000000" stroke-width="2" stroke-opacity="0.200000" points="337.87,-517.1 343.87,-515 337.87,-512.9 337.87,-517.1"/>
</g>
<!-- packages/music&#45;structure/beat/beat&#45;estimation/dist/index.js -->
<g id="node10" class="node">
<title>packages/music&#45;structure/beat/beat&#45;estimation/dist/index.js</title>
<g id="a_node10"><a xlink:href="packages/music-structure/beat/beat-estimation/dist/index.js" xlink:title="index.js">
<polygon fill="#ffffcc" stroke="black" points="905,-726 903.5,-728 893,-728 891.5,-726 851,-726 851,-708 905,-708 905,-726"/>
<text text-anchor="start" x="860.5" y="-714.8" font-family="Helvetica,sans-Serif" font-size="9.00">index.js</text>
</a>
</g>
</g>
<!-- packages/UI/piano&#45;roll/beat&#45;view/src/beat&#45;elements.ts&#45;&gt;packages/music&#45;structure/beat/beat&#45;estimation/dist/index.js -->
<g id="edge25" class="edge">
<title>packages/UI/piano&#45;roll/beat&#45;view/src/beat&#45;elements.ts&#45;&gt;packages/music&#45;structure/beat/beat&#45;estimation/dist/index.js</title>
<path fill="none" stroke="#000000" stroke-width="2" stroke-opacity="0.200000" d="M185.1,-524.1C223.45,-562.45 370,-709 370,-709 370,-709 370,-709 589,-709 589,-709 769.74,-714.02 844.86,-716.11"/>
<polygon fill="#000000" fill-opacity="0.200000" stroke="#000000" stroke-width="2" stroke-opacity="0.200000" points="844.88,-718.21 850.93,-716.28 844.99,-714.01 844.88,-718.21"/>
</g>
<!-- packages/util/time&#45;and/dist/index.js -->
<g id="node11" class="node">
<title>packages/util/time&#45;and/dist/index.js</title>
<g id="a_node11"><a xlink:href="packages/util/time-and/dist/index.js" xlink:title="index.js">
<polygon fill="#ffffcc" stroke="black" points="905,-58 903.5,-60 893,-60 891.5,-58 851,-58 851,-40 905,-40 905,-58"/>
<text text-anchor="start" x="860.5" y="-46.8" font-family="Helvetica,sans-Serif" font-size="9.00">index.js</text>
</a>
</g>
</g>
<!-- packages/UI/piano&#45;roll/beat&#45;view/src/beat&#45;elements.ts&#45;&gt;packages/util/time&#45;and/dist/index.js -->
<g id="edge26" class="edge">
<title>packages/UI/piano&#45;roll/beat&#45;view/src/beat&#45;elements.ts&#45;&gt;packages/util/time&#45;and/dist/index.js</title>
<path fill="none" stroke="#000000" stroke-width="2" stroke-opacity="0.200000" d="M179.88,-505.85C207.22,-441.3 370,-57 370,-57 370,-57 370,-57 589,-57 589,-57 769.74,-51.98 844.86,-49.89"/>
<polygon fill="#000000" fill-opacity="0.200000" stroke="#000000" stroke-width="2" stroke-opacity="0.200000" points="844.99,-51.99 850.93,-49.72 844.88,-47.79 844.99,-51.99"/>
</g>
<!-- packages/UI/piano&#45;roll/beat&#45;view/src/requirement/beat&#45;bar&#45;series.ts -->
<g id="node19" class="node">
<title>packages/UI/piano&#45;roll/beat&#45;view/src/requirement/beat&#45;bar&#45;series.ts</title>
<g id="a_node19"><a xlink:href="packages/UI/piano-roll/beat-view/src/requirement/beat-bar-series.ts" xlink:title="beat&#45;bar&#45;series.ts">
<path fill="#ddfeff" stroke="black" d="M629,-531C629,-531 547,-531 547,-531 544,-531 541,-528 541,-525 541,-525 541,-519 541,-519 541,-516 544,-513 547,-513 547,-513 629,-513 629,-513 632,-513 635,-516 635,-519 635,-519 635,-525 635,-525 635,-528 632,-531 629,-531"/>
<text text-anchor="start" x="549" y="-519.8" font-family="Helvetica,sans-Serif" font-size="9.00">beat&#45;bar&#45;series.ts</text>
</a>
</g>
</g>
<!-- packages/UI/piano&#45;roll/beat&#45;view/src/requirement/beat&#45;elements.ts&#45;&gt;packages/UI/piano&#45;roll/beat&#45;view/src/requirement/beat&#45;bar&#45;series.ts -->
<g id="edge33" class="edge">
<title>packages/UI/piano&#45;roll/beat&#45;view/src/requirement/beat&#45;elements.ts&#45;&gt;packages/UI/piano&#45;roll/beat&#45;view/src/requirement/beat&#45;bar&#45;series.ts</title>
<path fill="none" stroke="#000000" stroke-width="2" stroke-opacity="0.200000" d="M504.13,-526.53C514.02,-525.99 524.58,-525.41 534.73,-524.86"/>
<polygon fill="#000000" fill-opacity="0.200000" stroke="#000000" stroke-width="2" stroke-opacity="0.200000" points="535.11,-526.94 540.98,-524.52 534.88,-522.75 535.11,-526.94"/>
</g>
<!-- packages/UI/piano&#45;roll/beat&#45;view/src/beat&#45;bar/index.ts -->
<g id="node7" class="node">
<title>packages/UI/piano&#45;roll/beat&#45;view/src/beat&#45;bar/index.ts</title>
<g id="a_node7"><a xlink:href="packages/UI/piano-roll/beat-view/src/beat-bar/index.ts" xlink:title="index.ts">
<path fill="#ddfeff" stroke="black" d="M392,-397C392,-397 350,-397 350,-397 347,-397 344,-394 344,-391 344,-391 344,-385 344,-385 344,-382 347,-379 350,-379 350,-379 392,-379 392,-379 395,-379 398,-382 398,-385 398,-385 398,-391 398,-391 398,-394 395,-397 392,-397"/>
<text text-anchor="start" x="352.5" y="-385.8" font-family="Helvetica,sans-Serif" font-size="9.00">index.ts</text>
</a>
</g>
</g>
<!-- packages/UI/piano&#45;roll/beat&#45;view/src/beat&#45;bar&#45;series.ts&#45;&gt;packages/UI/piano&#45;roll/beat&#45;view/src/beat&#45;bar/index.ts -->
<g id="edge3" class="edge">
<title>packages/UI/piano&#45;roll/beat&#45;view/src/beat&#45;bar&#45;series.ts&#45;&gt;packages/UI/piano&#45;roll/beat&#45;view/src/beat&#45;bar/index.ts</title>
<path fill="none" stroke="#000000" stroke-width="2" stroke-opacity="0.200000" d="M289.81,-483.68C305.31,-465.19 340.03,-423.76 358.28,-401.98"/>
<polygon fill="#000000" fill-opacity="0.200000" stroke="#000000" stroke-width="2" stroke-opacity="0.200000" points="360.09,-403.09 362.33,-397.15 356.87,-400.4 360.09,-403.09"/>
</g>
<!-- packages/UI/piano&#45;roll/beat&#45;view/src/interface/index.ts -->
<g id="node8" class="node">
<title>packages/UI/piano&#45;roll/beat&#45;view/src/interface/index.ts</title>
<g id="a_node8"><a xlink:href="packages/UI/piano-roll/beat-view/src/interface/index.ts" xlink:title="index.ts">
<path fill="#ddfeff" stroke="black" d="M392,-464C392,-464 350,-464 350,-464 347,-464 344,-461 344,-458 344,-458 344,-452 344,-452 344,-449 347,-446 350,-446 350,-446 392,-446 392,-446 395,-446 398,-449 398,-452 398,-452 398,-458 398,-458 398,-461 395,-464 392,-464"/>
<text text-anchor="start" x="352.5" y="-452.8" font-family="Helvetica,sans-Serif" font-size="9.00">index.ts</text>
</a>
</g>
</g>
<!-- packages/UI/piano&#45;roll/beat&#45;view/src/beat&#45;bar&#45;series.ts&#45;&gt;packages/UI/piano&#45;roll/beat&#45;view/src/interface/index.ts -->
<g id="edge4" class="edge">
<title>packages/UI/piano&#45;roll/beat&#45;view/src/beat&#45;bar&#45;series.ts&#45;&gt;packages/UI/piano&#45;roll/beat&#45;view/src/interface/index.ts</title>
<path fill="none" stroke="#000000" stroke-width="2" stroke-opacity="0.200000" d="M302.85,-483.99C314.93,-478.78 330.26,-472.16 343.22,-466.56"/>
<polygon fill="#000000" fill-opacity="0.200000" stroke="#000000" stroke-width="2" stroke-opacity="0.200000" points="344.31,-468.38 348.99,-464.07 342.65,-464.52 344.31,-468.38"/>
</g>
<!-- packages/UI/piano&#45;roll/beat&#45;view/src/beat&#45;bar&#45;series.ts&#45;&gt;packages/UI/piano&#45;roll/beat&#45;view/src/requirement/index.ts -->
<g id="edge5" class="edge">
<title>packages/UI/piano&#45;roll/beat&#45;view/src/beat&#45;bar&#45;series.ts&#45;&gt;packages/UI/piano&#45;roll/beat&#45;view/src/requirement/index.ts</title>
<path fill="none" stroke="#000000" stroke-width="2" stroke-opacity="0.200000" d="M318.05,-502.01C324.66,-503.67 331.52,-505.38 338.01,-507"/>
<polygon fill="#000000" fill-opacity="0.200000" stroke="#000000" stroke-width="2" stroke-opacity="0.200000" points="337.51,-509.04 343.84,-508.46 338.53,-504.97 337.51,-509.04"/>
</g>
<!-- packages/UI/piano&#45;roll/beat&#45;view/src/beat&#45;bar&#45;series.ts&#45;&gt;packages/music&#45;structure/beat/beat&#45;estimation/dist/index.js -->
<g id="edge6" class="edge">
<title>packages/UI/piano&#45;roll/beat&#45;view/src/beat&#45;bar&#45;series.ts&#45;&gt;packages/music&#45;structure/beat/beat&#45;estimation/dist/index.js</title>
<path fill="none" stroke="#000000" stroke-width="2" stroke-opacity="0.200000" d="M287.58,-502.29C301.37,-525.29 336,-583 336,-583 336,-583 457,-665 457,-665 457,-665 457,-665 589,-665 589,-665 769.74,-697.63 844.86,-711.2"/>
<polygon fill="#000000" fill-opacity="0.200000" stroke="#000000" stroke-width="2" stroke-opacity="0.200000" points="844.66,-713.29 850.93,-712.29 845.4,-709.16 844.66,-713.29"/>
</g>
<!-- packages/UI/piano&#45;roll/beat&#45;view/src/beat&#45;bar&#45;series.ts&#45;&gt;packages/util/time&#45;and/dist/index.js -->
<g id="edge7" class="edge">
<title>packages/UI/piano&#45;roll/beat&#45;view/src/beat&#45;bar&#45;series.ts&#45;&gt;packages/util/time&#45;and/dist/index.js</title>
<path fill="none" stroke="#000000" stroke-width="2" stroke-opacity="0.200000" d="M285.71,-483.93C297.91,-454.1 336,-361 336,-361 336,-361 457,-104 457,-104 457,-104 457,-104 589,-104 589,-104 769.74,-69.48 844.86,-55.14"/>
<polygon fill="#000000" fill-opacity="0.200000" stroke="#000000" stroke-width="2" stroke-opacity="0.200000" points="845.43,-57.17 850.93,-53.98 844.65,-53.04 845.43,-57.17"/>
</g>
<!-- packages/UI/view/dist/index.js -->
<g id="node12" class="node">
<title>packages/UI/view/dist/index.js</title>
<g id="a_node12"><a xlink:href="packages/UI/view/dist/index.js" xlink:title="index.js">
<polygon fill="#ffffcc" stroke="black" points="905,-586 903.5,-588 893,-588 891.5,-586 851,-586 851,-568 905,-568 905,-586"/>
<text text-anchor="start" x="860.5" y="-574.8" font-family="Helvetica,sans-Serif" font-size="9.00">index.js</text>
</a>
</g>
</g>
<!-- packages/UI/piano&#45;roll/beat&#45;view/src/beat&#45;bar&#45;series.ts&#45;&gt;packages/UI/view/dist/index.js -->
<g id="edge8" class="edge">
<title>packages/UI/piano&#45;roll/beat&#45;view/src/beat&#45;bar&#45;series.ts&#45;&gt;packages/UI/view/dist/index.js</title>
<path fill="none" stroke="#000000" stroke-width="2" stroke-opacity="0.200000" d="M288.62,-502.07C303.04,-521.83 336,-567 336,-567 336,-567 457,-615 457,-615 457,-615 457,-615 589,-615 589,-615 797,-595 797,-595 797,-595 822.68,-589.22 844.94,-584.21"/>
<polygon fill="#000000" fill-opacity="0.200000" stroke="#000000" stroke-width="2" stroke-opacity="0.200000" points="845.41,-586.26 850.81,-582.89 844.49,-582.16 845.41,-586.26"/>
</g>
<!-- packages/UI/piano&#45;roll/beat&#45;view/src/beat&#45;bar/beat&#45;bar.ts -->
<g id="node15" class="node">
<title>packages/UI/piano&#45;roll/beat&#45;view/src/beat&#45;bar/beat&#45;bar.ts</title>
<g id="a_node15"><a xlink:href="packages/UI/piano-roll/beat-view/src/beat-bar/beat-bar.ts" xlink:title="beat&#45;bar.ts">
<path fill="#ddfeff" stroke="black" d="M484.5,-390C484.5,-390 431.5,-390 431.5,-390 428.5,-390 425.5,-387 425.5,-384 425.5,-384 425.5,-378 425.5,-378 425.5,-375 428.5,-372 431.5,-372 431.5,-372 484.5,-372 484.5,-372 487.5,-372 490.5,-375 490.5,-378 490.5,-378 490.5,-384 490.5,-384 490.5,-387 487.5,-390 484.5,-390"/>
<text text-anchor="start" x="433.5" y="-378.8" font-family="Helvetica,sans-Serif" font-size="9.00">beat&#45;bar.ts</text>
</a>
</g>
</g>
<!-- packages/UI/piano&#45;roll/beat&#45;view/src/beat&#45;bar/index.ts&#45;&gt;packages/UI/piano&#45;roll/beat&#45;view/src/beat&#45;bar/beat&#45;bar.ts -->
<g id="edge22" class="edge">
<title>packages/UI/piano&#45;roll/beat&#45;view/src/beat&#45;bar/index.ts&#45;&gt;packages/UI/piano&#45;roll/beat&#45;view/src/beat&#45;bar/beat&#45;bar.ts</title>
<path fill="none" stroke="#000000" stroke-width="2" stroke-opacity="0.200000" d="M398.43,-385.82C404.92,-385.29 412,-384.71 418.92,-384.14"/>
<polygon fill="#000000" fill-opacity="0.200000" stroke="#000000" stroke-width="2" stroke-opacity="0.200000" points="425.38,-385.71 419.23,-384.11 425.04,-381.52 425.38,-385.71"/>
</g>
<!-- packages/UI/piano&#45;roll/beat&#45;view/src/interface/beat&#45;bar&#45;series.ts -->
<g id="node18" class="node">
<title>packages/UI/piano&#45;roll/beat&#45;view/src/interface/beat&#45;bar&#45;series.ts</title>
<g id="a_node18"><a xlink:href="packages/UI/piano-roll/beat-view/src/interface/beat-bar-series.ts" xlink:title="beat&#45;bar&#45;series.ts">
<path fill="#ddfeff" stroke="black" d="M499,-464C499,-464 417,-464 417,-464 414,-464 411,-461 411,-458 411,-458 411,-452 411,-452 411,-449 414,-446 417,-446 417,-446 499,-446 499,-446 502,-446 505,-449 505,-452 505,-452 505,-458 505,-458 505,-461 502,-464 499,-464"/>
<text text-anchor="start" x="419" y="-452.8" font-family="Helvetica,sans-Serif" font-size="9.00">beat&#45;bar&#45;series.ts</text>
</a>
</g>
</g>
<!-- packages/UI/piano&#45;roll/beat&#45;view/src/interface/index.ts&#45;&gt;packages/UI/piano&#45;roll/beat&#45;view/src/interface/beat&#45;bar&#45;series.ts -->
<g id="edge29" class="edge">
<title>packages/UI/piano&#45;roll/beat&#45;view/src/interface/index.ts&#45;&gt;packages/UI/piano&#45;roll/beat&#45;view/src/interface/beat&#45;bar&#45;series.ts</title>
<path fill="none" stroke="#000000" stroke-width="2" stroke-opacity="0.200000" d="M398.43,-455C400.43,-455 402.48,-455 404.57,-455"/>
<polygon fill="#000000" fill-opacity="0.200000" stroke="#000000" stroke-width="2" stroke-opacity="0.200000" points="410.91,-457.1 404.91,-455 410.91,-452.9 410.91,-457.1"/>
</g>
<!-- packages/UI/piano&#45;roll/beat&#45;view/src/requirement/index.ts&#45;&gt;packages/UI/piano&#45;roll/beat&#45;view/src/requirement/beat&#45;elements.ts -->
<g id="edge35" class="edge">
<title>packages/UI/piano&#45;roll/beat&#45;view/src/requirement/index.ts&#45;&gt;packages/UI/piano&#45;roll/beat&#45;view/src/requirement/beat&#45;elements.ts</title>
<path fill="none" stroke="#000000" stroke-width="2" stroke-opacity="0.200000" d="M398.43,-519.35C400.84,-519.75 403.33,-520.16 405.87,-520.58"/>
<polygon fill="#000000" fill-opacity="0.200000" stroke="#000000" stroke-width="2" stroke-opacity="0.200000" points="411.51,-523.64 405.93,-520.59 412.19,-519.49 411.51,-523.64"/>
</g>
<!-- packages/UI/piano&#45;roll/beat&#45;view/src/requirement/index.ts&#45;&gt;packages/UI/piano&#45;roll/beat&#45;view/src/requirement/beat&#45;bar&#45;series.ts -->
<g id="edge34" class="edge">
<title>packages/UI/piano&#45;roll/beat&#45;view/src/requirement/index.ts&#45;&gt;packages/UI/piano&#45;roll/beat&#45;view/src/requirement/beat&#45;bar&#45;series.ts</title>
<path fill="none" stroke="#000000" stroke-width="2" stroke-opacity="0.200000" d="M398.23,-514.33C405.28,-514.15 411,-514 411,-514 411,-514 513,-514 513,-514 513,-514 522.55,-515.03 534.78,-516.35"/>
<polygon fill="#000000" fill-opacity="0.200000" stroke="#000000" stroke-width="2" stroke-opacity="0.200000" points="540.75,-519.11 535.01,-516.38 541.2,-514.94 540.75,-519.11"/>
</g>
<!-- packages/UI/piano&#45;roll/beat&#45;view/src/beat&#45;bar/beat&#45;bar&#45;model.ts -->
<g id="node13" class="node">
<title>packages/UI/piano&#45;roll/beat&#45;view/src/beat&#45;bar/beat&#45;bar&#45;model.ts</title>
<g id="a_node13"><a xlink:href="packages/UI/piano-roll/beat-view/src/beat-bar/beat-bar-model.ts" xlink:title="beat&#45;bar&#45;model.ts">
<path fill="#ddfeff" stroke="black" d="M759,-404C759,-404 675,-404 675,-404 672,-404 669,-401 669,-398 669,-398 669,-392 669,-392 669,-389 672,-386 675,-386 675,-386 759,-386 759,-386 762,-386 765,-389 765,-392 765,-392 765,-398 765,-398 765,-401 762,-404 759,-404"/>
<text text-anchor="start" x="677" y="-392.8" font-family="Helvetica,sans-Serif" font-size="9.00">beat&#45;bar&#45;model.ts</text>
</a>
</g>
</g>
<!-- packages/UI/piano&#45;roll/beat&#45;view/src/beat&#45;bar/beat&#45;bar&#45;model.ts&#45;&gt;packages/music&#45;structure/beat/beat&#45;estimation/dist/index.js -->
<g id="edge9" class="edge">
<title>packages/UI/piano&#45;roll/beat&#45;view/src/beat&#45;bar/beat&#45;bar&#45;model.ts&#45;&gt;packages/music&#45;structure/beat/beat&#45;estimation/dist/index.js</title>
<path fill="none" stroke="#000000" stroke-width="2" stroke-opacity="0.200000" d="M725.29,-404.23C744.85,-428.98 797,-495 797,-495 797,-495 813,-615 813,-615 813,-615 850.49,-674.75 868.08,-702.79"/>
<polygon fill="#000000" fill-opacity="0.200000" stroke="#000000" stroke-width="2" stroke-opacity="0.200000" points="866.35,-703.98 871.32,-707.95 869.91,-701.75 866.35,-703.98"/>
</g>
<!-- packages/UI/piano&#45;roll/beat&#45;view/src/beat&#45;bar/beat&#45;bar&#45;model.ts&#45;&gt;packages/util/time&#45;and/dist/index.js -->
<g id="edge10" class="edge">
<title>packages/UI/piano&#45;roll/beat&#45;view/src/beat&#45;bar/beat&#45;bar&#45;model.ts&#45;&gt;packages/util/time&#45;and/dist/index.js</title>
<path fill="none" stroke="#000000" stroke-width="2" stroke-opacity="0.200000" d="M722.25,-385.75C744.03,-338.36 843.07,-122.84 870.14,-63.92"/>
<polygon fill="#000000" fill-opacity="0.200000" stroke="#000000" stroke-width="2" stroke-opacity="0.200000" points="872.21,-64.45 872.81,-58.12 868.39,-62.7 872.21,-64.45"/>
</g>
<!-- packages/UI/piano&#45;roll/beat&#45;view/src/beat&#45;bar/beat&#45;bar&#45;model.ts&#45;&gt;packages/UI/view/dist/index.js -->
<g id="edge11" class="edge">
<title>packages/UI/piano&#45;roll/beat&#45;view/src/beat&#45;bar/beat&#45;bar&#45;model.ts&#45;&gt;packages/UI/view/dist/index.js</title>
<path fill="none" stroke="#000000" stroke-width="2" stroke-opacity="0.200000" d="M726.1,-404.28C752.16,-434.1 833.9,-527.66 864.91,-563.16"/>
<polygon fill="#000000" fill-opacity="0.200000" stroke="#000000" stroke-width="2" stroke-opacity="0.200000" points="863.57,-564.82 869.1,-567.96 866.74,-562.06 863.57,-564.82"/>
</g>
<!-- packages/UI/piano&#45;roll/beat&#45;view/src/beat&#45;bar/beat&#45;bar&#45;view.ts -->
<g id="node14" class="node">
<title>packages/UI/piano&#45;roll/beat&#45;view/src/beat&#45;bar/beat&#45;bar&#45;view.ts</title>
<g id="a_node14"><a xlink:href="packages/UI/piano-roll/beat-view/src/beat-bar/beat-bar-view.ts" xlink:title="beat&#45;bar&#45;view.ts">
<path fill="#ddfeff" stroke="black" d="M626,-404C626,-404 550,-404 550,-404 547,-404 544,-401 544,-398 544,-398 544,-392 544,-392 544,-389 547,-386 550,-386 550,-386 626,-386 626,-386 629,-386 632,-389 632,-392 632,-392 632,-398 632,-398 632,-401 629,-404 626,-404"/>
<text text-anchor="start" x="552" y="-392.8" font-family="Helvetica,sans-Serif" font-size="9.00">beat&#45;bar&#45;view.ts</text>
</a>
</g>
</g>
<!-- packages/UI/piano&#45;roll/beat&#45;view/src/beat&#45;bar/beat&#45;bar&#45;view.ts&#45;&gt;packages/UI/view/dist/index.js -->
<g id="edge13" class="edge">
<title>packages/UI/piano&#45;roll/beat&#45;view/src/beat&#45;bar/beat&#45;bar&#45;view.ts&#45;&gt;packages/UI/view/dist/index.js</title>
<path fill="none" stroke="#000000" stroke-width="2" stroke-opacity="0.200000" d="M593.71,-404.23C606.33,-428.98 640,-495 640,-495 640,-495 669,-567 669,-567 669,-567 786,-572.63 844.5,-575.44"/>
<polygon fill="#000000" fill-opacity="0.200000" stroke="#000000" stroke-width="2" stroke-opacity="0.200000" points="844.56,-577.54 850.66,-575.73 844.76,-573.35 844.56,-577.54"/>
</g>
<!-- packages/UI/piano&#45;roll/beat&#45;view/src/beat&#45;bar/beat&#45;bar&#45;view.ts&#45;&gt;packages/UI/piano&#45;roll/beat&#45;view/src/beat&#45;bar/beat&#45;bar&#45;model.ts -->
<g id="edge12" class="edge">
<title>packages/UI/piano&#45;roll/beat&#45;view/src/beat&#45;bar/beat&#45;bar&#45;view.ts&#45;&gt;packages/UI/piano&#45;roll/beat&#45;view/src/beat&#45;bar/beat&#45;bar&#45;model.ts</title>
<path fill="none" stroke="#000000" stroke-width="2" stroke-opacity="0.200000" d="M632.35,-395C642.11,-395 652.58,-395 662.69,-395"/>
<polygon fill="#000000" fill-opacity="0.200000" stroke="#000000" stroke-width="2" stroke-opacity="0.200000" points="662.93,-397.1 668.93,-395 662.93,-392.9 662.93,-397.1"/>
</g>
<!-- packages/UI/piano&#45;roll/beat&#45;view/src/beat&#45;bar/beat&#45;bar.ts&#45;&gt;packages/UI/controllers/dist/index.js -->
<g id="edge17" class="edge">
<title>packages/UI/piano&#45;roll/beat&#45;view/src/beat&#45;bar/beat&#45;bar.ts&#45;&gt;packages/UI/controllers/dist/index.js</title>
<path fill="none" stroke="#000000" stroke-width="2" stroke-opacity="0.200000" d="M482.4,-372C505.38,-363.16 537,-351 537,-351 537,-351 797,-351 797,-351 797,-351 822.46,-352.27 844.66,-353.38"/>
<polygon fill="#000000" fill-opacity="0.200000" stroke="#000000" stroke-width="2" stroke-opacity="0.200000" points="844.71,-355.49 850.81,-353.69 844.92,-351.29 844.71,-355.49"/>
</g>
<!-- packages/UI/piano&#45;roll/beat&#45;view/src/beat&#45;bar/beat&#45;bar.ts&#45;&gt;packages/music&#45;structure/beat/beat&#45;estimation/dist/index.js -->
<g id="edge16" class="edge">
<title>packages/UI/piano&#45;roll/beat&#45;view/src/beat&#45;bar/beat&#45;bar.ts&#45;&gt;packages/music&#45;structure/beat/beat&#45;estimation/dist/index.js</title>
<path fill="none" stroke="#000000" stroke-width="2" stroke-opacity="0.200000" d="M468.41,-390.41C483.88,-405.88 513,-435 513,-435 513,-435 537,-573 537,-573 537,-573 797,-661 797,-661 797,-661 835.09,-687.66 858.7,-704.19"/>
<polygon fill="#000000" fill-opacity="0.200000" stroke="#000000" stroke-width="2" stroke-opacity="0.200000" points="857.67,-706.03 863.79,-707.75 860.08,-702.59 857.67,-706.03"/>
</g>
<!-- packages/UI/piano&#45;roll/beat&#45;view/src/beat&#45;bar/beat&#45;bar.ts&#45;&gt;packages/util/time&#45;and/dist/index.js -->
<g id="edge19" class="edge">
<title>packages/UI/piano&#45;roll/beat&#45;view/src/beat&#45;bar/beat&#45;bar.ts&#45;&gt;packages/util/time&#45;and/dist/index.js</title>
<path fill="none" stroke="#000000" stroke-width="2" stroke-opacity="0.200000" d="M462.15,-371.94C476.75,-330.03 537,-157 537,-157 537,-157 797,-108 797,-108 797,-108 835.89,-79.32 859.44,-61.95"/>
<polygon fill="#000000" fill-opacity="0.200000" stroke="#000000" stroke-width="2" stroke-opacity="0.200000" points="860.92,-63.47 864.5,-58.22 858.42,-60.09 860.92,-63.47"/>
</g>
<!-- packages/UI/piano&#45;roll/beat&#45;view/src/beat&#45;bar/beat&#45;bar.ts&#45;&gt;packages/UI/view/dist/index.js -->
<g id="edge20" class="edge">
<title>packages/UI/piano&#45;roll/beat&#45;view/src/beat&#45;bar/beat&#45;bar.ts&#45;&gt;packages/UI/view/dist/index.js</title>
<path fill="none" stroke="#000000" stroke-width="2" stroke-opacity="0.200000" d="M468.41,-390.41C483.88,-405.88 513,-435 513,-435 513,-435 537,-567 537,-567 537,-567 669,-573 669,-573 669,-573 786,-575.25 844.5,-576.38"/>
<polygon fill="#000000" fill-opacity="0.200000" stroke="#000000" stroke-width="2" stroke-opacity="0.200000" points="844.62,-578.48 850.66,-576.49 844.7,-574.28 844.62,-578.48"/>
</g>
<!-- packages/UI/piano&#45;roll/beat&#45;view/src/beat&#45;bar/beat&#45;bar.ts&#45;&gt;packages/UI/piano&#45;roll/beat&#45;view/src/beat&#45;bar/beat&#45;bar&#45;model.ts -->
<g id="edge14" class="edge">
<title>packages/UI/piano&#45;roll/beat&#45;view/src/beat&#45;bar/beat&#45;bar.ts&#45;&gt;packages/UI/piano&#45;roll/beat&#45;view/src/beat&#45;bar/beat&#45;bar&#45;model.ts</title>
<path fill="none" stroke="#000000" stroke-width="2" stroke-opacity="0.200000" d="M490.73,-380.59C512.32,-380.32 537,-380 537,-380 537,-380 640,-380 640,-380 640,-380 650.55,-382.08 663.79,-384.7"/>
<polygon fill="#000000" fill-opacity="0.200000" stroke="#000000" stroke-width="2" stroke-opacity="0.200000" points="663.74,-386.83 670.04,-385.93 664.56,-382.71 663.74,-386.83"/>
</g>
<!-- packages/UI/piano&#45;roll/beat&#45;view/src/beat&#45;bar/beat&#45;bar.ts&#45;&gt;packages/UI/piano&#45;roll/beat&#45;view/src/beat&#45;bar/beat&#45;bar&#45;view.ts -->
<g id="edge15" class="edge">
<title>packages/UI/piano&#45;roll/beat&#45;view/src/beat&#45;bar/beat&#45;bar.ts&#45;&gt;packages/UI/piano&#45;roll/beat&#45;view/src/beat&#45;bar/beat&#45;bar&#45;view.ts</title>
<path fill="none" stroke="#000000" stroke-width="2" stroke-opacity="0.200000" d="M490.64,-384.46C504.76,-386 521.73,-387.86 537.46,-389.58"/>
<polygon fill="#000000" fill-opacity="0.200000" stroke="#000000" stroke-width="2" stroke-opacity="0.200000" points="537.46,-391.69 543.65,-390.26 537.92,-387.52 537.46,-391.69"/>
</g>
<!-- packages/UI/synth/dist/index.js -->
<g id="node16" class="node">
<title>packages/UI/synth/dist/index.js</title>
<g id="a_node16"><a xlink:href="packages/UI/synth/dist/index.js" xlink:title="index.js">
<polygon fill="#ffffcc" stroke="black" points="615,-186 613.5,-188 603,-188 601.5,-186 561,-186 561,-168 615,-168 615,-186"/>
<text text-anchor="start" x="570.5" y="-174.8" font-family="Helvetica,sans-Serif" font-size="9.00">index.js</text>
</a>
</g>
</g>
<!-- packages/UI/piano&#45;roll/beat&#45;view/src/beat&#45;bar/beat&#45;bar.ts&#45;&gt;packages/UI/synth/dist/index.js -->
<g id="edge18" class="edge">
<title>packages/UI/piano&#45;roll/beat&#45;view/src/beat&#45;bar/beat&#45;bar.ts&#45;&gt;packages/UI/synth/dist/index.js</title>
<path fill="none" stroke="#000000" stroke-width="2" stroke-opacity="0.200000" d="M464.61,-371.65C482.49,-341.84 537,-251 537,-251 537,-251 562.94,-212.62 577.45,-191.14"/>
<polygon fill="#000000" fill-opacity="0.200000" stroke="#000000" stroke-width="2" stroke-opacity="0.200000" points="579.25,-192.22 580.87,-186.07 575.77,-189.87 579.25,-192.22"/>
</g>
<!-- packages/UI/view&#45;parameters/dist/index.js -->
<g id="node17" class="node">
<title>packages/UI/view&#45;parameters/dist/index.js</title>
<g id="a_node17"><a xlink:href="packages/UI/view-parameters/dist/index.js" xlink:title="index.js">
<polygon fill="#ffffcc" stroke="black" points="615,-280 613.5,-282 603,-282 601.5,-280 561,-280 561,-262 615,-262 615,-280"/>
<text text-anchor="start" x="570.5" y="-268.8" font-family="Helvetica,sans-Serif" font-size="9.00">index.js</text>
</a>
</g>
</g>
<!-- packages/UI/piano&#45;roll/beat&#45;view/src/beat&#45;bar/beat&#45;bar.ts&#45;&gt;packages/UI/view&#45;parameters/dist/index.js -->
<g id="edge21" class="edge">
<title>packages/UI/piano&#45;roll/beat&#45;view/src/beat&#45;bar/beat&#45;bar.ts&#45;&gt;packages/UI/view&#45;parameters/dist/index.js</title>
<path fill="none" stroke="#000000" stroke-width="2" stroke-opacity="0.200000" d="M469.47,-372C492.07,-352.58 545.47,-306.69 571.79,-284.07"/>
<polygon fill="#000000" fill-opacity="0.200000" stroke="#000000" stroke-width="2" stroke-opacity="0.200000" points="573.2,-285.63 576.38,-280.13 570.46,-282.44 573.2,-285.63"/>
</g>
<!-- packages/UI/piano&#45;roll/beat&#45;view/src/interface/beat&#45;bar&#45;series.ts&#45;&gt;packages/UI/controllers/dist/index.js -->
<g id="edge27" class="edge">
<title>packages/UI/piano&#45;roll/beat&#45;view/src/interface/beat&#45;bar&#45;series.ts&#45;&gt;packages/UI/controllers/dist/index.js</title>
<path fill="none" stroke="#000000" stroke-width="2" stroke-opacity="0.200000" d="M481.28,-445.92C496.15,-439.86 513,-433 513,-433 513,-433 537,-361 537,-361 537,-361 759.97,-357.07 844.78,-355.57"/>
<polygon fill="#000000" fill-opacity="0.200000" stroke="#000000" stroke-width="2" stroke-opacity="0.200000" points="844.92,-357.67 850.89,-355.46 844.85,-353.47 844.92,-357.67"/>
</g>
<!-- packages/UI/piano&#45;roll/beat&#45;view/src/interface/beat&#45;bar&#45;series.ts&#45;&gt;packages/UI/view/dist/index.js -->
<g id="edge28" class="edge">
<title>packages/UI/piano&#45;roll/beat&#45;view/src/interface/beat&#45;bar&#45;series.ts&#45;&gt;packages/UI/view/dist/index.js</title>
<path fill="none" stroke="#000000" stroke-width="2" stroke-opacity="0.200000" d="M471.25,-464.08C487.19,-475.88 513,-495 513,-495 513,-495 537,-591 537,-591 537,-591 797,-591 797,-591 797,-591 822.46,-586.54 844.66,-582.66"/>
<polygon fill="#000000" fill-opacity="0.200000" stroke="#000000" stroke-width="2" stroke-opacity="0.200000" points="845.26,-584.69 850.81,-581.58 844.53,-580.55 845.26,-584.69"/>
</g>
<!-- packages/UI/piano&#45;roll/beat&#45;view/src/requirement/beat&#45;bar.ts -->
<g id="node20" class="node">
<title>packages/UI/piano&#45;roll/beat&#45;view/src/requirement/beat&#45;bar.ts</title>
<g id="a_node20"><a xlink:href="packages/UI/piano-roll/beat-view/src/requirement/beat-bar.ts" xlink:title="beat&#45;bar.ts">
<path fill="#ddfeff" stroke="black" d="M743.5,-531C743.5,-531 690.5,-531 690.5,-531 687.5,-531 684.5,-528 684.5,-525 684.5,-525 684.5,-519 684.5,-519 684.5,-516 687.5,-513 690.5,-513 690.5,-513 743.5,-513 743.5,-513 746.5,-513 749.5,-516 749.5,-519 749.5,-519 749.5,-525 749.5,-525 749.5,-528 746.5,-531 743.5,-531"/>
<text text-anchor="start" x="692.5" y="-519.8" font-family="Helvetica,sans-Serif" font-size="9.00">beat&#45;bar.ts</text>
</a>
</g>
</g>
<!-- packages/UI/piano&#45;roll/beat&#45;view/src/requirement/beat&#45;bar&#45;series.ts&#45;&gt;packages/UI/piano&#45;roll/beat&#45;view/src/requirement/beat&#45;bar.ts -->
<g id="edge30" class="edge">
<title>packages/UI/piano&#45;roll/beat&#45;view/src/requirement/beat&#45;bar&#45;series.ts&#45;&gt;packages/UI/piano&#45;roll/beat&#45;view/src/requirement/beat&#45;bar.ts</title>
<path fill="none" stroke="#000000" stroke-width="2" stroke-opacity="0.200000" d="M635.21,-522C649.35,-522 664.74,-522 678.25,-522"/>
<polygon fill="#000000" fill-opacity="0.200000" stroke="#000000" stroke-width="2" stroke-opacity="0.200000" points="678.32,-524.1 684.32,-522 678.32,-519.9 678.32,-524.1"/>
</g>
<!-- packages/UI/piano&#45;roll/beat&#45;view/src/requirement/beat&#45;bar.ts&#45;&gt;packages/UI/controllers/dist/index.js -->
<g id="edge31" class="edge">
<title>packages/UI/piano&#45;roll/beat&#45;view/src/requirement/beat&#45;bar.ts&#45;&gt;packages/UI/controllers/dist/index.js</title>
<path fill="none" stroke="#000000" stroke-width="2" stroke-opacity="0.200000" d="M727,-512.54C753.68,-484.53 832.38,-401.87 863.81,-368.85"/>
<polygon fill="#000000" fill-opacity="0.200000" stroke="#000000" stroke-width="2" stroke-opacity="0.200000" points="865.48,-370.15 868.09,-364.35 862.44,-367.25 865.48,-370.15"/>
</g>
<!-- packages/UI/piano&#45;roll/beat&#45;view/src/requirement/beat&#45;bar.ts&#45;&gt;packages/UI/view/dist/index.js -->
<g id="edge32" class="edge">
<title>packages/UI/piano&#45;roll/beat&#45;view/src/requirement/beat&#45;bar.ts&#45;&gt;packages/UI/view/dist/index.js</title>
<path fill="none" stroke="#000000" stroke-width="2" stroke-opacity="0.200000" d="M744.26,-531.08C771.96,-540.66 815.62,-555.77 845.24,-566.01"/>
<polygon fill="#000000" fill-opacity="0.200000" stroke="#000000" stroke-width="2" stroke-opacity="0.200000" points="844.61,-568.02 850.97,-568 845.99,-564.05 844.61,-568.02"/>
</g>
</g>
</svg>
