<?xml version="1.0" encoding="UTF-8" standalone="no"?>
<!DOCTYPE svg PUBLIC "-//W3C//DTD SVG 1.1//EN"
 "http://www.w3.org/Graphics/SVG/1.1/DTD/svg11.dtd">
<!-- Generated by graphviz version 2.43.0 (0)
 -->
<!-- Title: dependency&#45;cruiser output Pages: 1 -->
<svg width="961pt" height="882pt"
 viewBox="0.00 0.00 961.00 882.00" xmlns="http://www.w3.org/2000/svg" xmlns:xlink="http://www.w3.org/1999/xlink">
<g id="graph0" class="graph" transform="scale(1 1) rotate(0) translate(4 878)">
<title>dependency&#45;cruiser output</title>
<polygon fill="white" stroke="transparent" points="-4,4 -4,-878 957,-878 957,4 -4,4"/>
<g id="clust1" class="cluster">
<title>cluster_packages</title>
<path fill="#ffffff" stroke="black" stroke-width="2" d="M20,-8C20,-8 939,-8 939,-8 945,-8 951,-14 951,-20 951,-20 951,-854 951,-854 951,-860 945,-866 939,-866 939,-866 20,-866 20,-866 14,-866 8,-860 8,-854 8,-854 8,-20 8,-20 8,-14 14,-8 20,-8"/>
<text text-anchor="middle" x="479.5" y="-854.8" font-family="Helvetica,sans-Serif" font-weight="bold" font-size="9.00">packages</text>
</g>
<g id="clust2" class="cluster">
<title>cluster_packages/UI</title>
<path fill="#ffffff" stroke="black" stroke-width="2" d="M28,-144C28,-144 917,-144 917,-144 923,-144 929,-150 929,-156 929,-156 929,-666 929,-666 929,-672 923,-678 917,-678 917,-678 28,-678 28,-678 22,-678 16,-672 16,-666 16,-666 16,-156 16,-156 16,-150 22,-144 28,-144"/>
<text text-anchor="middle" x="472.5" y="-666.8" font-family="Helvetica,sans-Serif" font-weight="bold" font-size="9.00">UI</text>
</g>
<g id="clust3" class="cluster">
<title>cluster_packages/UI/controllers</title>
<path fill="#ffffff" stroke="black" stroke-width="2" d="M847,-408C847,-408 909,-408 909,-408 915,-408 921,-414 921,-420 921,-420 921,-482 921,-482 921,-488 915,-494 909,-494 909,-494 847,-494 847,-494 841,-494 835,-488 835,-482 835,-482 835,-420 835,-420 835,-414 841,-408 847,-408"/>
<text text-anchor="middle" x="878" y="-482.8" font-family="Helvetica,sans-Serif" font-weight="bold" font-size="9.00">controllers</text>
</g>
<g id="clust4" class="cluster">
<title>cluster_packages/UI/controllers/dist</title>
<path fill="#ffffff" stroke="black" stroke-width="2" d="M855,-416C855,-416 901,-416 901,-416 907,-416 913,-422 913,-428 913,-428 913,-456 913,-456 913,-462 907,-468 901,-468 901,-468 855,-468 855,-468 849,-468 843,-462 843,-456 843,-456 843,-428 843,-428 843,-422 849,-416 855,-416"/>
<text text-anchor="middle" x="878" y="-456.8" font-family="Helvetica,sans-Serif" font-weight="bold" font-size="9.00">dist</text>
</g>
<g id="clust5" class="cluster">
<title>cluster_packages/UI/piano&#45;roll</title>
<path fill="#ffffff" stroke="black" stroke-width="2" d="M36,-246C36,-246 785,-246 785,-246 791,-246 797,-252 797,-258 797,-258 797,-536 797,-536 797,-542 791,-548 785,-548 785,-548 36,-548 36,-548 30,-548 24,-542 24,-536 24,-536 24,-258 24,-258 24,-252 30,-246 36,-246"/>
<text text-anchor="middle" x="410.5" y="-536.8" font-family="Helvetica,sans-Serif" font-weight="bold" font-size="9.00">piano&#45;roll</text>
</g>
<g id="clust6" class="cluster">
<title>cluster_packages/UI/piano&#45;roll/beat&#45;view</title>
<path fill="#ffffff" stroke="black" stroke-width="2" d="M44,-254C44,-254 777,-254 777,-254 783,-254 789,-260 789,-266 789,-266 789,-510 789,-510 789,-516 783,-522 777,-522 777,-522 44,-522 44,-522 38,-522 32,-516 32,-510 32,-510 32,-266 32,-266 32,-260 38,-254 44,-254"/>
<text text-anchor="middle" x="410.5" y="-510.8" font-family="Helvetica,sans-Serif" font-weight="bold" font-size="9.00">beat&#45;view</text>
</g>
<g id="clust7" class="cluster">
<title>cluster_packages/UI/piano&#45;roll/beat&#45;view/src</title>
<path fill="#ffffff" stroke="black" stroke-width="2" d="M133,-262C133,-262 769,-262 769,-262 775,-262 781,-268 781,-274 781,-274 781,-484 781,-484 781,-490 775,-496 769,-496 769,-496 133,-496 133,-496 127,-496 121,-490 121,-484 121,-484 121,-274 121,-274 121,-268 127,-262 133,-262"/>
<text text-anchor="middle" x="451" y="-484.8" font-family="Helvetica,sans-Serif" font-weight="bold" font-size="9.00">src</text>
</g>
<g id="clust8" class="cluster">
<title>cluster_packages/UI/piano&#45;roll/beat&#45;view/src/beat&#45;bar</title>
<path fill="#ffffff" stroke="black" stroke-width="2" d="M348,-330C348,-330 761,-330 761,-330 767,-330 773,-336 773,-342 773,-342 773,-384 773,-384 773,-390 767,-396 761,-396 761,-396 348,-396 348,-396 342,-396 336,-390 336,-384 336,-384 336,-342 336,-342 336,-336 342,-330 348,-330"/>
<text text-anchor="middle" x="554.5" y="-384.8" font-family="Helvetica,sans-Serif" font-weight="bold" font-size="9.00">beat&#45;bar</text>
</g>
<g id="clust9" class="cluster">
<title>cluster_packages/UI/piano&#45;roll/beat&#45;view/src/interface</title>
<path fill="#ffffff" stroke="black" stroke-width="2" d="M348,-270C348,-270 501,-270 501,-270 507,-270 513,-276 513,-282 513,-282 513,-310 513,-310 513,-316 507,-322 501,-322 501,-322 348,-322 348,-322 342,-322 336,-316 336,-310 336,-310 336,-282 336,-282 336,-276 342,-270 348,-270"/>
<text text-anchor="middle" x="424.5" y="-310.8" font-family="Helvetica,sans-Serif" font-weight="bold" font-size="9.00">interface</text>
</g>
<g id="clust10" class="cluster">
<title>cluster_packages/UI/piano&#45;roll/beat&#45;view/src/requirement</title>
<path fill="#ffffff" stroke="black" stroke-width="2" d="M348,-404C348,-404 745.5,-404 745.5,-404 751.5,-404 757.5,-410 757.5,-416 757.5,-416 757.5,-458 757.5,-458 757.5,-464 751.5,-470 745.5,-470 745.5,-470 348,-470 348,-470 342,-470 336,-464 336,-458 336,-458 336,-416 336,-416 336,-410 342,-404 348,-404"/>
<text text-anchor="middle" x="546.75" y="-458.8" font-family="Helvetica,sans-Serif" font-weight="bold" font-size="9.00">requirement</text>
</g>
<g id="clust11" class="cluster">
<title>cluster_packages/UI/synth</title>
<path fill="#ffffff" stroke="black" stroke-width="2" d="M557,-556C557,-556 619,-556 619,-556 625,-556 631,-562 631,-568 631,-568 631,-630 631,-630 631,-636 625,-642 619,-642 619,-642 557,-642 557,-642 551,-642 545,-636 545,-630 545,-630 545,-568 545,-568 545,-562 551,-556 557,-556"/>
<text text-anchor="middle" x="588" y="-630.8" font-family="Helvetica,sans-Serif" font-weight="bold" font-size="9.00">synth</text>
</g>
<g id="clust12" class="cluster">
<title>cluster_packages/UI/synth/dist</title>
<path fill="#ffffff" stroke="black" stroke-width="2" d="M565,-564C565,-564 611,-564 611,-564 617,-564 623,-570 623,-576 623,-576 623,-604 623,-604 623,-610 617,-616 611,-616 611,-616 565,-616 565,-616 559,-616 553,-610 553,-604 553,-604 553,-576 553,-576 553,-570 559,-564 565,-564"/>
<text text-anchor="middle" x="588" y="-604.8" font-family="Helvetica,sans-Serif" font-weight="bold" font-size="9.00">dist</text>
</g>
<g id="clust13" class="cluster">
<title>cluster_packages/UI/view&#45;parameters</title>
<path fill="#ffffff" stroke="black" stroke-width="2" d="M549,-152C549,-152 628,-152 628,-152 634,-152 640,-158 640,-164 640,-164 640,-226 640,-226 640,-232 634,-238 628,-238 628,-238 549,-238 549,-238 543,-238 537,-232 537,-226 537,-226 537,-164 537,-164 537,-158 543,-152 549,-152"/>
<text text-anchor="middle" x="588.5" y="-226.8" font-family="Helvetica,sans-Serif" font-weight="bold" font-size="9.00">view&#45;parameters</text>
</g>
<g id="clust14" class="cluster">
<title>cluster_packages/UI/view&#45;parameters/dist</title>
<path fill="#ffffff" stroke="black" stroke-width="2" d="M565,-160C565,-160 611,-160 611,-160 617,-160 623,-166 623,-172 623,-172 623,-200 623,-200 623,-206 617,-212 611,-212 611,-212 565,-212 565,-212 559,-212 553,-206 553,-200 553,-200 553,-172 553,-172 553,-166 559,-160 565,-160"/>
<text text-anchor="middle" x="588" y="-200.8" font-family="Helvetica,sans-Serif" font-weight="bold" font-size="9.00">dist</text>
</g>
<g id="clust15" class="cluster">
<title>cluster_packages/UI/view</title>
<path fill="#ffffff" stroke="black" stroke-width="2" d="M847,-314C847,-314 909,-314 909,-314 915,-314 921,-320 921,-326 921,-326 921,-388 921,-388 921,-394 915,-400 909,-400 909,-400 847,-400 847,-400 841,-400 835,-394 835,-388 835,-388 835,-326 835,-326 835,-320 841,-314 847,-314"/>
<text text-anchor="middle" x="878" y="-388.8" font-family="Helvetica,sans-Serif" font-weight="bold" font-size="9.00">view</text>
</g>
<g id="clust16" class="cluster">
<title>cluster_packages/UI/view/dist</title>
<path fill="#ffffff" stroke="black" stroke-width="2" d="M855,-322C855,-322 901,-322 901,-322 907,-322 913,-328 913,-334 913,-334 913,-362 913,-362 913,-368 907,-374 901,-374 901,-374 855,-374 855,-374 849,-374 843,-368 843,-362 843,-362 843,-334 843,-334 843,-328 849,-322 855,-322"/>
<text text-anchor="middle" x="878" y="-362.8" font-family="Helvetica,sans-Serif" font-weight="bold" font-size="9.00">dist</text>
</g>
<g id="clust17" class="cluster">
<title>cluster_packages/music&#45;structure</title>
<path fill="#ffffff" stroke="black" stroke-width="2" d="M825,-686C825,-686 931,-686 931,-686 937,-686 943,-692 943,-698 943,-698 943,-828 943,-828 943,-834 937,-840 931,-840 931,-840 825,-840 825,-840 819,-840 813,-834 813,-828 813,-828 813,-698 813,-698 813,-692 819,-686 825,-686"/>
<text text-anchor="middle" x="878" y="-828.8" font-family="Helvetica,sans-Serif" font-weight="bold" font-size="9.00">music&#45;structure</text>
</g>
<g id="clust18" class="cluster">
<title>cluster_packages/music&#45;structure/beat</title>
<path fill="#ffffff" stroke="black" stroke-width="2" d="M833,-694C833,-694 923,-694 923,-694 929,-694 935,-700 935,-706 935,-706 935,-802 935,-802 935,-808 929,-814 923,-814 923,-814 833,-814 833,-814 827,-814 821,-808 821,-802 821,-802 821,-706 821,-706 821,-700 827,-694 833,-694"/>
<text text-anchor="middle" x="878" y="-802.8" font-family="Helvetica,sans-Serif" font-weight="bold" font-size="9.00">beat</text>
</g>
<g id="clust19" class="cluster">
<title>cluster_packages/music&#45;structure/beat/beat&#45;estimation</title>
<path fill="#ffffff" stroke="black" stroke-width="2" d="M841,-702C841,-702 915,-702 915,-702 921,-702 927,-708 927,-714 927,-714 927,-776 927,-776 927,-782 921,-788 915,-788 915,-788 841,-788 841,-788 835,-788 829,-782 829,-776 829,-776 829,-714 829,-714 829,-708 835,-702 841,-702"/>
<text text-anchor="middle" x="878" y="-776.8" font-family="Helvetica,sans-Serif" font-weight="bold" font-size="9.00">beat&#45;estimation</text>
</g>
<g id="clust20" class="cluster">
<title>cluster_packages/music&#45;structure/beat/beat&#45;estimation/dist</title>
<path fill="#ffffff" stroke="black" stroke-width="2" d="M855,-710C855,-710 901,-710 901,-710 907,-710 913,-716 913,-722 913,-722 913,-750 913,-750 913,-756 907,-762 901,-762 901,-762 855,-762 855,-762 849,-762 843,-756 843,-750 843,-750 843,-722 843,-722 843,-716 849,-710 855,-710"/>
<text text-anchor="middle" x="878" y="-750.8" font-family="Helvetica,sans-Serif" font-weight="bold" font-size="9.00">dist</text>
</g>
<g id="clust21" class="cluster">
<title>cluster_packages/util</title>
<path fill="#ffffff" stroke="black" stroke-width="2" d="M839,-16C839,-16 917,-16 917,-16 923,-16 929,-22 929,-28 929,-28 929,-124 929,-124 929,-130 923,-136 917,-136 917,-136 839,-136 839,-136 833,-136 827,-130 827,-124 827,-124 827,-28 827,-28 827,-22 833,-16 839,-16"/>
<text text-anchor="middle" x="878" y="-124.8" font-family="Helvetica,sans-Serif" font-weight="bold" font-size="9.00">util</text>
</g>
<g id="clust22" class="cluster">
<title>cluster_packages/util/time&#45;and</title>
<path fill="#ffffff" stroke="black" stroke-width="2" d="M847,-24C847,-24 909,-24 909,-24 915,-24 921,-30 921,-36 921,-36 921,-98 921,-98 921,-104 915,-110 909,-110 909,-110 847,-110 847,-110 841,-110 835,-104 835,-98 835,-98 835,-36 835,-36 835,-30 841,-24 847,-24"/>
<text text-anchor="middle" x="878" y="-98.8" font-family="Helvetica,sans-Serif" font-weight="bold" font-size="9.00">time&#45;and</text>
</g>
<g id="clust23" class="cluster">
<title>cluster_packages/util/time&#45;and/dist</title>
<path fill="#ffffff" stroke="black" stroke-width="2" d="M855,-32C855,-32 901,-32 901,-32 907,-32 913,-38 913,-44 913,-44 913,-72 913,-72 913,-78 907,-84 901,-84 901,-84 855,-84 855,-84 849,-84 843,-78 843,-72 843,-72 843,-44 843,-44 843,-38 849,-32 855,-32"/>
<text text-anchor="middle" x="878" y="-72.8" font-family="Helvetica,sans-Serif" font-weight="bold" font-size="9.00">dist</text>
</g>
<!-- packages/UI/controllers/dist/index.js -->
<g id="node1" class="node">
<title>packages/UI/controllers/dist/index.js</title>
<g id="a_node1"><a xlink:href="packages/UI/controllers/dist/index.js" xlink:title="index.js">
<polygon fill="#ffffcc" stroke="black" points="905,-442 903.5,-444 893,-444 891.5,-442 851,-442 851,-424 905,-424 905,-442"/>
<text text-anchor="start" x="860.5" y="-430.8" font-family="Helvetica,sans-Serif" font-size="9.00">index.js</text>
</a>
</g>
</g>
<!-- packages/UI/piano&#45;roll/beat&#45;view/index.test.ts -->
<g id="node2" class="node">
<title>packages/UI/piano&#45;roll/beat&#45;view/index.test.ts</title>
<g id="a_node2"><a xlink:href="packages/UI/piano-roll/beat-view/index.test.ts" xlink:title="no&#45;orphans">
<path fill="#ccffcc" stroke="orange" d="M107,-487C107,-487 46,-487 46,-487 43,-487 40,-484 40,-481 40,-481 40,-475 40,-475 40,-472 43,-469 46,-469 46,-469 107,-469 107,-469 110,-469 113,-472 113,-475 113,-475 113,-481 113,-481 113,-484 110,-487 107,-487"/>
<text text-anchor="start" x="48" y="-475.8" font-family="Helvetica,sans-Serif" font-size="9.00" fill="orange">index.test.ts</text>
</a>
</g>
</g>
<!-- packages/UI/piano&#45;roll/beat&#45;view/index.ts -->
<g id="node3" class="node">
<title>packages/UI/piano&#45;roll/beat&#45;view/index.ts</title>
<g id="a_node3"><a xlink:href="packages/UI/piano-roll/beat-view/index.ts" xlink:title="index.ts">
<path fill="#ddfeff" stroke="black" d="M97.5,-439C97.5,-439 55.5,-439 55.5,-439 52.5,-439 49.5,-436 49.5,-433 49.5,-433 49.5,-427 49.5,-427 49.5,-424 52.5,-421 55.5,-421 55.5,-421 97.5,-421 97.5,-421 100.5,-421 103.5,-424 103.5,-427 103.5,-427 103.5,-433 103.5,-433 103.5,-436 100.5,-439 97.5,-439"/>
<text text-anchor="start" x="58" y="-427.8" font-family="Helvetica,sans-Serif" font-size="9.00">index.ts</text>
</a>
</g>
</g>
<!-- packages/UI/piano&#45;roll/beat&#45;view/src/beat&#45;elements.ts -->
<g id="node4" class="node">
<title>packages/UI/piano&#45;roll/beat&#45;view/src/beat&#45;elements.ts</title>
<g id="a_node4"><a xlink:href="packages/UI/piano-roll/beat-view/src/beat-elements.ts" xlink:title="beat&#45;elements.ts">
<path fill="#ddfeff" stroke="black" d="M215,-430C215,-430 135,-430 135,-430 132,-430 129,-427 129,-424 129,-424 129,-418 129,-418 129,-415 132,-412 135,-412 135,-412 215,-412 215,-412 218,-412 221,-415 221,-418 221,-418 221,-424 221,-424 221,-427 218,-430 215,-430"/>
<text text-anchor="start" x="137" y="-418.8" font-family="Helvetica,sans-Serif" font-size="9.00">beat&#45;elements.ts</text>
</a>
</g>
</g>
<!-- packages/UI/piano&#45;roll/beat&#45;view/index.ts&#45;&gt;packages/UI/piano&#45;roll/beat&#45;view/src/beat&#45;elements.ts -->
<g id="edge1" class="edge">
<title>packages/UI/piano&#45;roll/beat&#45;view/index.ts&#45;&gt;packages/UI/piano&#45;roll/beat&#45;view/src/beat&#45;elements.ts</title>
<path fill="none" stroke="#000000" stroke-width="2" stroke-opacity="0.200000" d="M103.61,-427.56C109.6,-427.01 116.16,-426.39 122.8,-425.78"/>
<polygon fill="#000000" fill-opacity="0.200000" stroke="#000000" stroke-width="2" stroke-opacity="0.200000" points="129.09,-427.3 122.93,-425.76 128.7,-423.12 129.09,-427.3"/>
</g>
<!-- packages/UI/piano&#45;roll/beat&#45;view/src/requirement/beat&#45;elements.ts -->
<g id="node5" class="node">
<title>packages/UI/piano&#45;roll/beat&#45;view/src/requirement/beat&#45;elements.ts</title>
<g id="a_node5"><a xlink:href="packages/UI/piano-roll/beat-view/src/requirement/beat-elements.ts" xlink:title="beat&#45;elements.ts">
<path fill="#ddfeff" stroke="black" d="M498,-444C498,-444 418,-444 418,-444 415,-444 412,-441 412,-438 412,-438 412,-432 412,-432 412,-429 415,-426 418,-426 418,-426 498,-426 498,-426 501,-426 504,-429 504,-432 504,-432 504,-438 504,-438 504,-441 501,-444 498,-444"/>
<text text-anchor="start" x="420" y="-432.8" font-family="Helvetica,sans-Serif" font-size="9.00">beat&#45;elements.ts</text>
</a>
</g>
</g>
<!-- packages/UI/piano&#45;roll/beat&#45;view/index.ts&#45;&gt;packages/UI/piano&#45;roll/beat&#45;view/src/requirement/beat&#45;elements.ts -->
<g id="edge2" class="edge">
<title>packages/UI/piano&#45;roll/beat&#45;view/index.ts&#45;&gt;packages/UI/piano&#45;roll/beat&#45;view/src/requirement/beat&#45;elements.ts</title>
<path fill="none" stroke="#000000" stroke-width="2" stroke-opacity="0.200000" d="M103.81,-434.84C112.97,-436.52 121,-438 121,-438 121,-438 328,-438 328,-438 328,-438 369.72,-437.03 405.7,-436.19"/>
<polygon fill="#000000" fill-opacity="0.200000" stroke="#000000" stroke-width="2" stroke-opacity="0.200000" points="411.93,-438.15 405.88,-436.19 411.83,-433.95 411.93,-438.15"/>
</g>
<!-- packages/UI/piano&#45;roll/beat&#45;view/src/beat&#45;bar&#45;series.ts -->
<g id="node6" class="node">
<title>packages/UI/piano&#45;roll/beat&#45;view/src/beat&#45;bar&#45;series.ts</title>
<g id="a_node6"><a xlink:href="packages/UI/piano-roll/beat-view/src/beat-bar-series.ts" xlink:title="beat&#45;bar&#45;series.ts">
<path fill="#ddfeff" stroke="black" d="M322,-408C322,-408 240,-408 240,-408 237,-408 234,-405 234,-402 234,-402 234,-396 234,-396 234,-393 237,-390 240,-390 240,-390 322,-390 322,-390 325,-390 328,-393 328,-396 328,-396 328,-402 328,-402 328,-405 325,-408 322,-408"/>
<text text-anchor="start" x="242" y="-396.8" font-family="Helvetica,sans-Serif" font-size="9.00">beat&#45;bar&#45;series.ts</text>
</a>
</g>
</g>
<!-- packages/UI/piano&#45;roll/beat&#45;view/src/beat&#45;elements.ts&#45;&gt;packages/UI/piano&#45;roll/beat&#45;view/src/beat&#45;bar&#45;series.ts -->
<g id="edge22" class="edge">
<title>packages/UI/piano&#45;roll/beat&#45;view/src/beat&#45;elements.ts&#45;&gt;packages/UI/piano&#45;roll/beat&#45;view/src/beat&#45;bar&#45;series.ts</title>
<path fill="none" stroke="#000000" stroke-width="2" stroke-opacity="0.200000" d="M218.6,-411.99C222.75,-411.11 226.97,-410.22 231.18,-409.33"/>
<polygon fill="#000000" fill-opacity="0.200000" stroke="#000000" stroke-width="2" stroke-opacity="0.200000" points="231.86,-411.33 237.3,-408.03 230.99,-407.22 231.86,-411.33"/>
</g>
<!-- packages/UI/piano&#45;roll/beat&#45;view/src/requirement/index.ts -->
<g id="node9" class="node">
<title>packages/UI/piano&#45;roll/beat&#45;view/src/requirement/index.ts</title>
<g id="a_node9"><a xlink:href="packages/UI/piano-roll/beat-view/src/requirement/index.ts" xlink:title="index.ts">
<path fill="#ddfeff" stroke="black" d="M392,-430C392,-430 350,-430 350,-430 347,-430 344,-427 344,-424 344,-424 344,-418 344,-418 344,-415 347,-412 350,-412 350,-412 392,-412 392,-412 395,-412 398,-415 398,-418 398,-418 398,-424 398,-424 398,-427 395,-430 392,-430"/>
<text text-anchor="start" x="352.5" y="-418.8" font-family="Helvetica,sans-Serif" font-size="9.00">index.ts</text>
</a>
</g>
</g>
<!-- packages/UI/piano&#45;roll/beat&#45;view/src/beat&#45;elements.ts&#45;&gt;packages/UI/piano&#45;roll/beat&#45;view/src/requirement/index.ts -->
<g id="edge23" class="edge">
<title>packages/UI/piano&#45;roll/beat&#45;view/src/beat&#45;elements.ts&#45;&gt;packages/UI/piano&#45;roll/beat&#45;view/src/requirement/index.ts</title>
<path fill="none" stroke="#000000" stroke-width="2" stroke-opacity="0.200000" d="M221.48,-421C257.18,-421 305.99,-421 337.75,-421"/>
<polygon fill="#000000" fill-opacity="0.200000" stroke="#000000" stroke-width="2" stroke-opacity="0.200000" points="337.87,-423.1 343.87,-421 337.87,-418.9 337.87,-423.1"/>
</g>
<!-- packages/music&#45;structure/beat/beat&#45;estimation/dist/index.js -->
<g id="node10" class="node">
<title>packages/music&#45;structure/beat/beat&#45;estimation/dist/index.js</title>
<g id="a_node10"><a xlink:href="packages/music-structure/beat/beat-estimation/dist/index.js" xlink:title="index.js">
<polygon fill="#ffffcc" stroke="black" points="905,-736 903.5,-738 893,-738 891.5,-736 851,-736 851,-718 905,-718 905,-736"/>
<text text-anchor="start" x="860.5" y="-724.8" font-family="Helvetica,sans-Serif" font-size="9.00">index.js</text>
</a>
</g>
</g>
<!-- packages/UI/piano&#45;roll/beat&#45;view/src/beat&#45;elements.ts&#45;&gt;packages/music&#45;structure/beat/beat&#45;estimation/dist/index.js -->
<g id="edge24" class="edge">
<title>packages/UI/piano&#45;roll/beat&#45;view/src/beat&#45;elements.ts&#45;&gt;packages/music&#45;structure/beat/beat&#45;estimation/dist/index.js</title>
<path fill="none" stroke="#000000" stroke-width="2" stroke-opacity="0.200000" d="M181.81,-430.01C214.09,-480.09 370,-722 370,-722 370,-722 370,-722 589,-722 589,-722 769.74,-725.14 844.86,-726.44"/>
<polygon fill="#000000" fill-opacity="0.200000" stroke="#000000" stroke-width="2" stroke-opacity="0.200000" points="844.9,-728.54 850.93,-726.55 844.97,-724.34 844.9,-728.54"/>
</g>
<!-- packages/util/time&#45;and/dist/index.js -->
<g id="node11" class="node">
<title>packages/util/time&#45;and/dist/index.js</title>
<g id="a_node11"><a xlink:href="packages/util/time-and/dist/index.js" xlink:title="index.js">
<polygon fill="#ffffcc" stroke="black" points="905,-58 903.5,-60 893,-60 891.5,-58 851,-58 851,-40 905,-40 905,-58"/>
<text text-anchor="start" x="860.5" y="-46.8" font-family="Helvetica,sans-Serif" font-size="9.00">index.js</text>
</a>
</g>
</g>
<!-- packages/UI/piano&#45;roll/beat&#45;view/src/beat&#45;elements.ts&#45;&gt;packages/util/time&#45;and/dist/index.js -->
<g id="edge25" class="edge">
<title>packages/UI/piano&#45;roll/beat&#45;view/src/beat&#45;elements.ts&#45;&gt;packages/util/time&#45;and/dist/index.js</title>
<path fill="none" stroke="#000000" stroke-width="2" stroke-opacity="0.200000" d="M180.99,-411.64C211.36,-354.66 370,-57 370,-57 370,-57 370,-57 589,-57 589,-57 769.74,-51.98 844.86,-49.89"/>
<polygon fill="#000000" fill-opacity="0.200000" stroke="#000000" stroke-width="2" stroke-opacity="0.200000" points="844.99,-51.99 850.93,-49.72 844.88,-47.79 844.99,-51.99"/>
</g>
<!-- packages/UI/piano&#45;roll/beat&#45;view/src/requirement/beat&#45;bar&#45;series.ts -->
<g id="node19" class="node">
<title>packages/UI/piano&#45;roll/beat&#45;view/src/requirement/beat&#45;bar&#45;series.ts</title>
<g id="a_node19"><a xlink:href="packages/UI/piano-roll/beat-view/src/requirement/beat-bar-series.ts" xlink:title="beat&#45;bar&#45;series.ts">
<path fill="#ddfeff" stroke="black" d="M629,-436C629,-436 547,-436 547,-436 544,-436 541,-433 541,-430 541,-430 541,-424 541,-424 541,-421 544,-418 547,-418 547,-418 629,-418 629,-418 632,-418 635,-421 635,-424 635,-424 635,-430 635,-430 635,-433 632,-436 629,-436"/>
<text text-anchor="start" x="549" y="-424.8" font-family="Helvetica,sans-Serif" font-size="9.00">beat&#45;bar&#45;series.ts</text>
</a>
</g>
</g>
<!-- packages/UI/piano&#45;roll/beat&#45;view/src/requirement/beat&#45;elements.ts&#45;&gt;packages/UI/piano&#45;roll/beat&#45;view/src/requirement/beat&#45;bar&#45;series.ts -->
<g id="edge31" class="edge">
<title>packages/UI/piano&#45;roll/beat&#45;view/src/requirement/beat&#45;elements.ts&#45;&gt;packages/UI/piano&#45;roll/beat&#45;view/src/requirement/beat&#45;bar&#45;series.ts</title>
<path fill="none" stroke="#000000" stroke-width="2" stroke-opacity="0.200000" d="M504.13,-432.18C514.02,-431.56 524.58,-430.9 534.73,-430.27"/>
<polygon fill="#000000" fill-opacity="0.200000" stroke="#000000" stroke-width="2" stroke-opacity="0.200000" points="535.13,-432.35 540.98,-429.88 534.86,-428.15 535.13,-432.35"/>
</g>
<!-- packages/UI/piano&#45;roll/beat&#45;view/src/beat&#45;bar/index.ts -->
<g id="node7" class="node">
<title>packages/UI/piano&#45;roll/beat&#45;view/src/beat&#45;bar/index.ts</title>
<g id="a_node7"><a xlink:href="packages/UI/piano-roll/beat-view/src/beat-bar/index.ts" xlink:title="index.ts">
<path fill="#ddfeff" stroke="black" d="M392,-367C392,-367 350,-367 350,-367 347,-367 344,-364 344,-361 344,-361 344,-355 344,-355 344,-352 347,-349 350,-349 350,-349 392,-349 392,-349 395,-349 398,-352 398,-355 398,-355 398,-361 398,-361 398,-364 395,-367 392,-367"/>
<text text-anchor="start" x="352.5" y="-355.8" font-family="Helvetica,sans-Serif" font-size="9.00">index.ts</text>
</a>
</g>
</g>
<!-- packages/UI/piano&#45;roll/beat&#45;view/src/beat&#45;bar&#45;series.ts&#45;&gt;packages/UI/piano&#45;roll/beat&#45;view/src/beat&#45;bar/index.ts -->
<g id="edge3" class="edge">
<title>packages/UI/piano&#45;roll/beat&#45;view/src/beat&#45;bar&#45;series.ts&#45;&gt;packages/UI/piano&#45;roll/beat&#45;view/src/beat&#45;bar/index.ts</title>
<path fill="none" stroke="#000000" stroke-width="2" stroke-opacity="0.200000" d="M301.53,-389.9C314.29,-383.96 331.08,-376.13 344.83,-369.72"/>
<polygon fill="#000000" fill-opacity="0.200000" stroke="#000000" stroke-width="2" stroke-opacity="0.200000" points="345.97,-371.51 350.52,-367.07 344.2,-367.7 345.97,-371.51"/>
</g>
<!-- packages/UI/piano&#45;roll/beat&#45;view/src/interface/index.ts -->
<g id="node8" class="node">
<title>packages/UI/piano&#45;roll/beat&#45;view/src/interface/index.ts</title>
<g id="a_node8"><a xlink:href="packages/UI/piano-roll/beat-view/src/interface/index.ts" xlink:title="index.ts">
<path fill="#ddfeff" stroke="black" d="M392,-296C392,-296 350,-296 350,-296 347,-296 344,-293 344,-290 344,-290 344,-284 344,-284 344,-281 347,-278 350,-278 350,-278 392,-278 392,-278 395,-278 398,-281 398,-284 398,-284 398,-290 398,-290 398,-293 395,-296 392,-296"/>
<text text-anchor="start" x="352.5" y="-284.8" font-family="Helvetica,sans-Serif" font-size="9.00">index.ts</text>
</a>
</g>
</g>
<!-- packages/UI/piano&#45;roll/beat&#45;view/src/beat&#45;bar&#45;series.ts&#45;&gt;packages/UI/piano&#45;roll/beat&#45;view/src/interface/index.ts -->
<g id="edge4" class="edge">
<title>packages/UI/piano&#45;roll/beat&#45;view/src/beat&#45;bar&#45;series.ts&#45;&gt;packages/UI/piano&#45;roll/beat&#45;view/src/interface/index.ts</title>
<path fill="none" stroke="#000000" stroke-width="2" stroke-opacity="0.200000" d="M288.84,-389.88C303.37,-370.51 336,-327 336,-327 336,-327 348.3,-312.52 358.11,-300.99"/>
<polygon fill="#000000" fill-opacity="0.200000" stroke="#000000" stroke-width="2" stroke-opacity="0.200000" points="359.83,-302.21 362.11,-296.28 356.63,-299.49 359.83,-302.21"/>
</g>
<!-- packages/UI/piano&#45;roll/beat&#45;view/src/beat&#45;bar&#45;series.ts&#45;&gt;packages/UI/piano&#45;roll/beat&#45;view/src/requirement/index.ts -->
<g id="edge5" class="edge">
<title>packages/UI/piano&#45;roll/beat&#45;view/src/beat&#45;bar&#45;series.ts&#45;&gt;packages/UI/piano&#45;roll/beat&#45;view/src/requirement/index.ts</title>
<path fill="none" stroke="#000000" stroke-width="2" stroke-opacity="0.200000" d="M318.05,-408.01C324.66,-409.67 331.52,-411.38 338.01,-413"/>
<polygon fill="#000000" fill-opacity="0.200000" stroke="#000000" stroke-width="2" stroke-opacity="0.200000" points="337.51,-415.04 343.84,-414.46 338.53,-410.97 337.51,-415.04"/>
</g>
<!-- packages/UI/piano&#45;roll/beat&#45;view/src/beat&#45;bar&#45;series.ts&#45;&gt;packages/music&#45;structure/beat/beat&#45;estimation/dist/index.js -->
<g id="edge6" class="edge">
<title>packages/UI/piano&#45;roll/beat&#45;view/src/beat&#45;bar&#45;series.ts&#45;&gt;packages/music&#45;structure/beat/beat&#45;estimation/dist/index.js</title>
<path fill="none" stroke="#000000" stroke-width="2" stroke-opacity="0.200000" d="M285.88,-408.06C298.27,-436.95 336,-525 336,-525 336,-525 457,-691 457,-691 457,-691 457,-691 589,-691 589,-691 769.74,-713.59 844.86,-722.98"/>
<polygon fill="#000000" fill-opacity="0.200000" stroke="#000000" stroke-width="2" stroke-opacity="0.200000" points="844.72,-725.08 850.93,-723.74 845.24,-720.91 844.72,-725.08"/>
</g>
<!-- packages/UI/piano&#45;roll/beat&#45;view/src/beat&#45;bar&#45;series.ts&#45;&gt;packages/util/time&#45;and/dist/index.js -->
<g id="edge7" class="edge">
<title>packages/UI/piano&#45;roll/beat&#45;view/src/beat&#45;bar&#45;series.ts&#45;&gt;packages/util/time&#45;and/dist/index.js</title>
<path fill="none" stroke="#000000" stroke-width="2" stroke-opacity="0.200000" d="M285.71,-389.93C297.91,-360.1 336,-267 336,-267 336,-267 457,-104 457,-104 457,-104 457,-104 589,-104 589,-104 769.74,-69.48 844.86,-55.14"/>
<polygon fill="#000000" fill-opacity="0.200000" stroke="#000000" stroke-width="2" stroke-opacity="0.200000" points="845.43,-57.17 850.93,-53.98 844.65,-53.04 845.43,-57.17"/>
</g>
<!-- packages/UI/view/dist/index.js -->
<g id="node12" class="node">
<title>packages/UI/view/dist/index.js</title>
<g id="a_node12"><a xlink:href="packages/UI/view/dist/index.js" xlink:title="index.js">
<polygon fill="#ffffcc" stroke="black" points="905,-348 903.5,-350 893,-350 891.5,-348 851,-348 851,-330 905,-330 905,-348"/>
<text text-anchor="start" x="860.5" y="-336.8" font-family="Helvetica,sans-Serif" font-size="9.00">index.js</text>
</a>
</g>
</g>
<!-- packages/UI/piano&#45;roll/beat&#45;view/src/beat&#45;bar&#45;series.ts&#45;&gt;packages/UI/view/dist/index.js -->
<g id="edge8" class="edge">
<title>packages/UI/piano&#45;roll/beat&#45;view/src/beat&#45;bar&#45;series.ts&#45;&gt;packages/UI/view/dist/index.js</title>
<path fill="none" stroke="#000000" stroke-width="2" stroke-opacity="0.200000" d="M288.44,-408.27C320.01,-453.73 457,-651 457,-651 457,-651 457,-651 589,-651 589,-651 640,-619 640,-619 640,-619 797,-473 797,-473 797,-473 813,-413 813,-413 813,-413 846.48,-374.29 865.01,-352.86"/>
<polygon fill="#000000" fill-opacity="0.200000" stroke="#000000" stroke-width="2" stroke-opacity="0.200000" points="866.82,-353.99 869.15,-348.07 863.64,-351.24 866.82,-353.99"/>
</g>
<!-- packages/UI/piano&#45;roll/beat&#45;view/src/beat&#45;bar/beat&#45;bar.ts -->
<g id="node15" class="node">
<title>packages/UI/piano&#45;roll/beat&#45;view/src/beat&#45;bar/beat&#45;bar.ts</title>
<g id="a_node15"><a xlink:href="packages/UI/piano-roll/beat-view/src/beat-bar/beat-bar.ts" xlink:title="beat&#45;bar.ts">
<path fill="#ddfeff" stroke="black" d="M484.5,-363C484.5,-363 431.5,-363 431.5,-363 428.5,-363 425.5,-360 425.5,-357 425.5,-357 425.5,-351 425.5,-351 425.5,-348 428.5,-345 431.5,-345 431.5,-345 484.5,-345 484.5,-345 487.5,-345 490.5,-348 490.5,-351 490.5,-351 490.5,-357 490.5,-357 490.5,-360 487.5,-363 484.5,-363"/>
<text text-anchor="start" x="433.5" y="-351.8" font-family="Helvetica,sans-Serif" font-size="9.00">beat&#45;bar.ts</text>
</a>
</g>
</g>
<!-- packages/UI/piano&#45;roll/beat&#45;view/src/beat&#45;bar/index.ts&#45;&gt;packages/UI/piano&#45;roll/beat&#45;view/src/beat&#45;bar/beat&#45;bar.ts -->
<g id="edge21" class="edge">
<title>packages/UI/piano&#45;roll/beat&#45;view/src/beat&#45;bar/index.ts&#45;&gt;packages/UI/piano&#45;roll/beat&#45;view/src/beat&#45;bar/beat&#45;bar.ts</title>
<path fill="none" stroke="#000000" stroke-width="2" stroke-opacity="0.200000" d="M398.43,-356.76C404.92,-356.45 412,-356.12 418.92,-355.79"/>
<polygon fill="#000000" fill-opacity="0.200000" stroke="#000000" stroke-width="2" stroke-opacity="0.200000" points="425.31,-357.59 419.22,-355.78 425.11,-353.4 425.31,-357.59"/>
</g>
<!-- packages/UI/piano&#45;roll/beat&#45;view/src/interface/beat&#45;bar&#45;series.ts -->
<g id="node18" class="node">
<title>packages/UI/piano&#45;roll/beat&#45;view/src/interface/beat&#45;bar&#45;series.ts</title>
<g id="a_node18"><a xlink:href="packages/UI/piano-roll/beat-view/src/interface/beat-bar-series.ts" xlink:title="beat&#45;bar&#45;series.ts">
<path fill="#ddfeff" stroke="black" d="M499,-296C499,-296 417,-296 417,-296 414,-296 411,-293 411,-290 411,-290 411,-284 411,-284 411,-281 414,-278 417,-278 417,-278 499,-278 499,-278 502,-278 505,-281 505,-284 505,-284 505,-290 505,-290 505,-293 502,-296 499,-296"/>
<text text-anchor="start" x="419" y="-284.8" font-family="Helvetica,sans-Serif" font-size="9.00">beat&#45;bar&#45;series.ts</text>
</a>
</g>
</g>
<!-- packages/UI/piano&#45;roll/beat&#45;view/src/interface/index.ts&#45;&gt;packages/UI/piano&#45;roll/beat&#45;view/src/interface/beat&#45;bar&#45;series.ts -->
<g id="edge27" class="edge">
<title>packages/UI/piano&#45;roll/beat&#45;view/src/interface/index.ts&#45;&gt;packages/UI/piano&#45;roll/beat&#45;view/src/interface/beat&#45;bar&#45;series.ts</title>
<path fill="none" stroke="#000000" stroke-width="2" stroke-opacity="0.200000" d="M398.43,-287C400.43,-287 402.48,-287 404.57,-287"/>
<polygon fill="#000000" fill-opacity="0.200000" stroke="#000000" stroke-width="2" stroke-opacity="0.200000" points="410.91,-289.1 404.91,-287 410.91,-284.9 410.91,-289.1"/>
</g>
<!-- packages/UI/piano&#45;roll/beat&#45;view/src/requirement/index.ts&#45;&gt;packages/UI/piano&#45;roll/beat&#45;view/src/requirement/beat&#45;elements.ts -->
<g id="edge33" class="edge">
<title>packages/UI/piano&#45;roll/beat&#45;view/src/requirement/index.ts&#45;&gt;packages/UI/piano&#45;roll/beat&#45;view/src/requirement/beat&#45;elements.ts</title>
<path fill="none" stroke="#000000" stroke-width="2" stroke-opacity="0.200000" d="M398.43,-425.35C400.84,-425.75 403.33,-426.16 405.87,-426.58"/>
<polygon fill="#000000" fill-opacity="0.200000" stroke="#000000" stroke-width="2" stroke-opacity="0.200000" points="411.51,-429.64 405.93,-426.59 412.19,-425.49 411.51,-429.64"/>
</g>
<!-- packages/UI/piano&#45;roll/beat&#45;view/src/requirement/index.ts&#45;&gt;packages/UI/piano&#45;roll/beat&#45;view/src/requirement/beat&#45;bar&#45;series.ts -->
<g id="edge32" class="edge">
<title>packages/UI/piano&#45;roll/beat&#45;view/src/requirement/index.ts&#45;&gt;packages/UI/piano&#45;roll/beat&#45;view/src/requirement/beat&#45;bar&#45;series.ts</title>
<path fill="none" stroke="#000000" stroke-width="2" stroke-opacity="0.200000" d="M398.23,-420.33C405.28,-420.15 411,-420 411,-420 411,-420 513,-420 513,-420 513,-420 522.55,-420.9 534.78,-422.06"/>
<polygon fill="#000000" fill-opacity="0.200000" stroke="#000000" stroke-width="2" stroke-opacity="0.200000" points="540.78,-424.74 535,-422.08 541.17,-420.56 540.78,-424.74"/>
</g>
<!-- packages/UI/piano&#45;roll/beat&#45;view/src/beat&#45;bar/beat&#45;bar&#45;model.ts -->
<g id="node13" class="node">
<title>packages/UI/piano&#45;roll/beat&#45;view/src/beat&#45;bar/beat&#45;bar&#45;model.ts</title>
<g id="a_node13"><a xlink:href="packages/UI/piano-roll/beat-view/src/beat-bar/beat-bar-model.ts" xlink:title="beat&#45;bar&#45;model.ts">
<path fill="#ddfeff" stroke="black" d="M759,-370C759,-370 675,-370 675,-370 672,-370 669,-367 669,-364 669,-364 669,-358 669,-358 669,-355 672,-352 675,-352 675,-352 759,-352 759,-352 762,-352 765,-355 765,-358 765,-358 765,-364 765,-364 765,-367 762,-370 759,-370"/>
<text text-anchor="start" x="677" y="-358.8" font-family="Helvetica,sans-Serif" font-size="9.00">beat&#45;bar&#45;model.ts</text>
</a>
</g>
</g>
<!-- packages/UI/piano&#45;roll/beat&#45;view/src/beat&#45;bar/beat&#45;bar&#45;model.ts&#45;&gt;packages/music&#45;structure/beat/beat&#45;estimation/dist/index.js -->
<g id="edge9" class="edge">
<title>packages/UI/piano&#45;roll/beat&#45;view/src/beat&#45;bar/beat&#45;bar&#45;model.ts&#45;&gt;packages/music&#45;structure/beat/beat&#45;estimation/dist/index.js</title>
<path fill="none" stroke="#000000" stroke-width="2" stroke-opacity="0.200000" d="M735.93,-370.08C759.23,-381.88 797,-401 797,-401 797,-401 813,-471 813,-471 813,-471 859.47,-656.87 873.21,-711.85"/>
<polygon fill="#000000" fill-opacity="0.200000" stroke="#000000" stroke-width="2" stroke-opacity="0.200000" points="871.23,-712.58 874.72,-717.89 875.3,-711.56 871.23,-712.58"/>
</g>
<!-- packages/UI/piano&#45;roll/beat&#45;view/src/beat&#45;bar/beat&#45;bar&#45;model.ts&#45;&gt;packages/util/time&#45;and/dist/index.js -->
<g id="edge10" class="edge">
<title>packages/UI/piano&#45;roll/beat&#45;view/src/beat&#45;bar/beat&#45;bar&#45;model.ts&#45;&gt;packages/util/time&#45;and/dist/index.js</title>
<path fill="none" stroke="#000000" stroke-width="2" stroke-opacity="0.200000" d="M722.59,-352C744.89,-308.23 842.05,-117.57 869.66,-63.4"/>
<polygon fill="#000000" fill-opacity="0.200000" stroke="#000000" stroke-width="2" stroke-opacity="0.200000" points="871.54,-64.34 872.39,-58.04 867.8,-62.43 871.54,-64.34"/>
</g>
<!-- packages/UI/piano&#45;roll/beat&#45;view/src/beat&#45;bar/beat&#45;bar&#45;model.ts&#45;&gt;packages/UI/view/dist/index.js -->
<g id="edge11" class="edge">
<title>packages/UI/piano&#45;roll/beat&#45;view/src/beat&#45;bar/beat&#45;bar&#45;model.ts&#45;&gt;packages/UI/view/dist/index.js</title>
<path fill="none" stroke="#000000" stroke-width="2" stroke-opacity="0.200000" d="M765.27,-354.46C790.88,-350.92 821.85,-346.63 844.69,-343.47"/>
<polygon fill="#000000" fill-opacity="0.200000" stroke="#000000" stroke-width="2" stroke-opacity="0.200000" points="845.24,-345.51 850.9,-342.61 844.67,-341.35 845.24,-345.51"/>
</g>
<!-- packages/UI/piano&#45;roll/beat&#45;view/src/beat&#45;bar/beat&#45;bar&#45;view.ts -->
<g id="node14" class="node">
<title>packages/UI/piano&#45;roll/beat&#45;view/src/beat&#45;bar/beat&#45;bar&#45;view.ts</title>
<g id="a_node14"><a xlink:href="packages/UI/piano-roll/beat-view/src/beat-bar/beat-bar-view.ts" xlink:title="beat&#45;bar&#45;view.ts">
<path fill="#ddfeff" stroke="black" d="M626,-356C626,-356 550,-356 550,-356 547,-356 544,-353 544,-350 544,-350 544,-344 544,-344 544,-341 547,-338 550,-338 550,-338 626,-338 626,-338 629,-338 632,-341 632,-344 632,-344 632,-350 632,-350 632,-353 629,-356 626,-356"/>
<text text-anchor="start" x="552" y="-344.8" font-family="Helvetica,sans-Serif" font-size="9.00">beat&#45;bar&#45;view.ts</text>
</a>
</g>
</g>
<!-- packages/UI/piano&#45;roll/beat&#45;view/src/beat&#45;bar/beat&#45;bar&#45;view.ts&#45;&gt;packages/UI/view/dist/index.js -->
<g id="edge13" class="edge">
<title>packages/UI/piano&#45;roll/beat&#45;view/src/beat&#45;bar/beat&#45;bar&#45;view.ts&#45;&gt;packages/UI/view/dist/index.js</title>
<path fill="none" stroke="#000000" stroke-width="2" stroke-opacity="0.200000" d="M632.12,-345.8C690.32,-344.19 792.72,-341.34 844.73,-339.9"/>
<polygon fill="#000000" fill-opacity="0.200000" stroke="#000000" stroke-width="2" stroke-opacity="0.200000" points="844.87,-341.99 850.81,-339.73 844.76,-337.79 844.87,-341.99"/>
</g>
<!-- packages/UI/piano&#45;roll/beat&#45;view/src/beat&#45;bar/beat&#45;bar&#45;view.ts&#45;&gt;packages/UI/piano&#45;roll/beat&#45;view/src/beat&#45;bar/beat&#45;bar&#45;model.ts -->
<g id="edge12" class="edge">
<title>packages/UI/piano&#45;roll/beat&#45;view/src/beat&#45;bar/beat&#45;bar&#45;view.ts&#45;&gt;packages/UI/piano&#45;roll/beat&#45;view/src/beat&#45;bar/beat&#45;bar&#45;model.ts</title>
<path fill="none" stroke="#000000" stroke-width="2" stroke-opacity="0.200000" d="M632.35,-351.78C642.11,-352.85 652.58,-354.01 662.69,-355.12"/>
<polygon fill="#000000" fill-opacity="0.200000" stroke="#000000" stroke-width="2" stroke-opacity="0.200000" points="662.74,-357.24 668.93,-355.81 663.2,-353.07 662.74,-357.24"/>
</g>
<!-- packages/UI/piano&#45;roll/beat&#45;view/src/beat&#45;bar/beat&#45;bar.ts&#45;&gt;packages/music&#45;structure/beat/beat&#45;estimation/dist/index.js -->
<g id="edge16" class="edge">
<title>packages/UI/piano&#45;roll/beat&#45;view/src/beat&#45;bar/beat&#45;bar.ts&#45;&gt;packages/music&#45;structure/beat/beat&#45;estimation/dist/index.js</title>
<path fill="none" stroke="#000000" stroke-width="2" stroke-opacity="0.200000" d="M469.41,-363.06C485.1,-376.72 513,-401 513,-401 513,-401 537,-619 537,-619 537,-619 797,-687 797,-687 797,-687 829.78,-703.39 853.37,-715.19"/>
<polygon fill="#000000" fill-opacity="0.200000" stroke="#000000" stroke-width="2" stroke-opacity="0.200000" points="852.54,-717.12 858.85,-717.92 854.42,-713.36 852.54,-717.12"/>
</g>
<!-- packages/UI/piano&#45;roll/beat&#45;view/src/beat&#45;bar/beat&#45;bar.ts&#45;&gt;packages/util/time&#45;and/dist/index.js -->
<g id="edge18" class="edge">
<title>packages/UI/piano&#45;roll/beat&#45;view/src/beat&#45;bar/beat&#45;bar.ts&#45;&gt;packages/util/time&#45;and/dist/index.js</title>
<path fill="none" stroke="#000000" stroke-width="2" stroke-opacity="0.200000" d="M475.79,-344.98C491.64,-336.47 513,-325 513,-325 513,-325 537,-157 537,-157 537,-157 797,-108 797,-108 797,-108 835.89,-79.32 859.44,-61.95"/>
<polygon fill="#000000" fill-opacity="0.200000" stroke="#000000" stroke-width="2" stroke-opacity="0.200000" points="860.92,-63.47 864.5,-58.22 858.42,-60.09 860.92,-63.47"/>
</g>
<!-- packages/UI/piano&#45;roll/beat&#45;view/src/beat&#45;bar/beat&#45;bar.ts&#45;&gt;packages/UI/view/dist/index.js -->
<g id="edge19" class="edge">
<title>packages/UI/piano&#45;roll/beat&#45;view/src/beat&#45;bar/beat&#45;bar.ts&#45;&gt;packages/UI/view/dist/index.js</title>
<path fill="none" stroke="#000000" stroke-width="2" stroke-opacity="0.200000" d="M490.73,-345.05C512.32,-338.96 537,-332 537,-332 537,-332 640,-332 640,-332 640,-332 779.86,-336.13 844.7,-338.05"/>
<polygon fill="#000000" fill-opacity="0.200000" stroke="#000000" stroke-width="2" stroke-opacity="0.200000" points="844.67,-340.15 850.73,-338.22 844.8,-335.95 844.67,-340.15"/>
</g>
<!-- packages/UI/piano&#45;roll/beat&#45;view/src/beat&#45;bar/beat&#45;bar.ts&#45;&gt;packages/UI/piano&#45;roll/beat&#45;view/src/beat&#45;bar/beat&#45;bar&#45;model.ts -->
<g id="edge14" class="edge">
<title>packages/UI/piano&#45;roll/beat&#45;view/src/beat&#45;bar/beat&#45;bar.ts&#45;&gt;packages/UI/piano&#45;roll/beat&#45;view/src/beat&#45;bar/beat&#45;bar&#45;model.ts</title>
<path fill="none" stroke="#000000" stroke-width="2" stroke-opacity="0.200000" d="M490.73,-357.25C512.32,-359.47 537,-362 537,-362 537,-362 640,-362 640,-362 640,-362 649.98,-361.87 662.72,-361.7"/>
<polygon fill="#000000" fill-opacity="0.200000" stroke="#000000" stroke-width="2" stroke-opacity="0.200000" points="662.76,-363.8 668.73,-361.62 662.71,-359.6 662.76,-363.8"/>
</g>
<!-- packages/UI/piano&#45;roll/beat&#45;view/src/beat&#45;bar/beat&#45;bar.ts&#45;&gt;packages/UI/piano&#45;roll/beat&#45;view/src/beat&#45;bar/beat&#45;bar&#45;view.ts -->
<g id="edge15" class="edge">
<title>packages/UI/piano&#45;roll/beat&#45;view/src/beat&#45;bar/beat&#45;bar.ts&#45;&gt;packages/UI/piano&#45;roll/beat&#45;view/src/beat&#45;bar/beat&#45;bar&#45;view.ts</title>
<path fill="none" stroke="#000000" stroke-width="2" stroke-opacity="0.200000" d="M490.64,-352.27C504.76,-351.5 521.73,-350.57 537.46,-349.71"/>
<polygon fill="#000000" fill-opacity="0.200000" stroke="#000000" stroke-width="2" stroke-opacity="0.200000" points="537.78,-351.8 543.65,-349.37 537.55,-347.6 537.78,-351.8"/>
</g>
<!-- packages/UI/synth/dist/index.js -->
<g id="node16" class="node">
<title>packages/UI/synth/dist/index.js</title>
<g id="a_node16"><a xlink:href="packages/UI/synth/dist/index.js" xlink:title="index.js">
<polygon fill="#ffffcc" stroke="black" points="615,-590 613.5,-592 603,-592 601.5,-590 561,-590 561,-572 615,-572 615,-590"/>
<text text-anchor="start" x="570.5" y="-578.8" font-family="Helvetica,sans-Serif" font-size="9.00">index.js</text>
</a>
</g>
</g>
<!-- packages/UI/piano&#45;roll/beat&#45;view/src/beat&#45;bar/beat&#45;bar.ts&#45;&gt;packages/UI/synth/dist/index.js -->
<g id="edge17" class="edge">
<title>packages/UI/piano&#45;roll/beat&#45;view/src/beat&#45;bar/beat&#45;bar.ts&#45;&gt;packages/UI/synth/dist/index.js</title>
<path fill="none" stroke="#000000" stroke-width="2" stroke-opacity="0.200000" d="M469.41,-363.06C485.1,-376.72 513,-401 513,-401 513,-401 537,-473 537,-473 537,-473 566.33,-536.34 580.06,-566.01"/>
<polygon fill="#000000" fill-opacity="0.200000" stroke="#000000" stroke-width="2" stroke-opacity="0.200000" points="578.31,-567.23 582.74,-571.79 582.12,-565.46 578.31,-567.23"/>
</g>
<!-- packages/UI/view&#45;parameters/dist/index.js -->
<g id="node17" class="node">
<title>packages/UI/view&#45;parameters/dist/index.js</title>
<g id="a_node17"><a xlink:href="packages/UI/view-parameters/dist/index.js" xlink:title="index.js">
<polygon fill="#ffffcc" stroke="black" points="615,-186 613.5,-188 603,-188 601.5,-186 561,-186 561,-168 615,-168 615,-186"/>
<text text-anchor="start" x="570.5" y="-174.8" font-family="Helvetica,sans-Serif" font-size="9.00">index.js</text>
</a>
</g>
</g>
<!-- packages/UI/piano&#45;roll/beat&#45;view/src/beat&#45;bar/beat&#45;bar.ts&#45;&gt;packages/UI/view&#45;parameters/dist/index.js -->
<g id="edge20" class="edge">
<title>packages/UI/piano&#45;roll/beat&#45;view/src/beat&#45;bar/beat&#45;bar.ts&#45;&gt;packages/UI/view&#45;parameters/dist/index.js</title>
<path fill="none" stroke="#000000" stroke-width="2" stroke-opacity="0.200000" d="M475.79,-344.98C491.64,-336.47 513,-325 513,-325 513,-325 560.91,-229.18 579.63,-191.74"/>
<polygon fill="#000000" fill-opacity="0.200000" stroke="#000000" stroke-width="2" stroke-opacity="0.200000" points="581.57,-192.56 582.37,-186.26 577.81,-190.69 581.57,-192.56"/>
</g>
<!-- packages/UI/piano&#45;roll/beat&#45;view/src/interface/beat&#45;bar&#45;series.ts&#45;&gt;packages/UI/view/dist/index.js -->
<g id="edge26" class="edge">
<title>packages/UI/piano&#45;roll/beat&#45;view/src/interface/beat&#45;bar&#45;series.ts&#45;&gt;packages/UI/view/dist/index.js</title>
<path fill="none" stroke="#000000" stroke-width="2" stroke-opacity="0.200000" d="M505.29,-292.48C597.86,-303.43 797,-327 797,-327 797,-327 822.46,-330.82 844.66,-334.15"/>
<polygon fill="#000000" fill-opacity="0.200000" stroke="#000000" stroke-width="2" stroke-opacity="0.200000" points="844.56,-336.26 850.81,-335.07 845.18,-332.1 844.56,-336.26"/>
</g>
<!-- packages/UI/piano&#45;roll/beat&#45;view/src/requirement/beat&#45;bar.ts -->
<g id="node20" class="node">
<title>packages/UI/piano&#45;roll/beat&#45;view/src/requirement/beat&#45;bar.ts</title>
<g id="a_node20"><a xlink:href="packages/UI/piano-roll/beat-view/src/requirement/beat-bar.ts" xlink:title="beat&#45;bar.ts">
<path fill="#ddfeff" stroke="black" d="M743.5,-436C743.5,-436 690.5,-436 690.5,-436 687.5,-436 684.5,-433 684.5,-430 684.5,-430 684.5,-424 684.5,-424 684.5,-421 687.5,-418 690.5,-418 690.5,-418 743.5,-418 743.5,-418 746.5,-418 749.5,-421 749.5,-424 749.5,-424 749.5,-430 749.5,-430 749.5,-433 746.5,-436 743.5,-436"/>
<text text-anchor="start" x="692.5" y="-424.8" font-family="Helvetica,sans-Serif" font-size="9.00">beat&#45;bar.ts</text>
</a>
</g>
</g>
<!-- packages/UI/piano&#45;roll/beat&#45;view/src/requirement/beat&#45;bar&#45;series.ts&#45;&gt;packages/UI/piano&#45;roll/beat&#45;view/src/requirement/beat&#45;bar.ts -->
<g id="edge28" class="edge">
<title>packages/UI/piano&#45;roll/beat&#45;view/src/requirement/beat&#45;bar&#45;series.ts&#45;&gt;packages/UI/piano&#45;roll/beat&#45;view/src/requirement/beat&#45;bar.ts</title>
<path fill="none" stroke="#000000" stroke-width="2" stroke-opacity="0.200000" d="M635.21,-427C649.35,-427 664.74,-427 678.25,-427"/>
<polygon fill="#000000" fill-opacity="0.200000" stroke="#000000" stroke-width="2" stroke-opacity="0.200000" points="678.32,-429.1 684.32,-427 678.32,-424.9 678.32,-429.1"/>
</g>
<!-- packages/UI/piano&#45;roll/beat&#45;view/src/requirement/beat&#45;bar.ts&#45;&gt;packages/UI/controllers/dist/index.js -->
<g id="edge29" class="edge">
<title>packages/UI/piano&#45;roll/beat&#45;view/src/requirement/beat&#45;bar.ts&#45;&gt;packages/UI/controllers/dist/index.js</title>
<path fill="none" stroke="#000000" stroke-width="2" stroke-opacity="0.200000" d="M749.79,-428.2C777.34,-429.24 817.03,-430.74 844.72,-431.78"/>
<polygon fill="#000000" fill-opacity="0.200000" stroke="#000000" stroke-width="2" stroke-opacity="0.200000" points="844.71,-433.88 850.79,-432.01 844.87,-429.69 844.71,-433.88"/>
</g>
<!-- packages/UI/piano&#45;roll/beat&#45;view/src/requirement/beat&#45;bar.ts&#45;&gt;packages/UI/view/dist/index.js -->
<g id="edge30" class="edge">
<title>packages/UI/piano&#45;roll/beat&#45;view/src/requirement/beat&#45;bar.ts&#45;&gt;packages/UI/view/dist/index.js</title>
<path fill="none" stroke="#000000" stroke-width="2" stroke-opacity="0.200000" d="M743.43,-417.99C766.53,-409.8 797,-399 797,-399 797,-399 836.3,-369.52 859.81,-351.89"/>
<polygon fill="#000000" fill-opacity="0.200000" stroke="#000000" stroke-width="2" stroke-opacity="0.200000" points="861.31,-353.39 864.85,-348.11 858.79,-350.03 861.31,-353.39"/>
</g>
</g>
</svg>
