<?xml version="1.0" encoding="UTF-8" standalone="no"?>
<!DOCTYPE svg PUBLIC "-//W3C//DTD SVG 1.1//EN"
 "http://www.w3.org/Graphics/SVG/1.1/DTD/svg11.dtd">
<!-- Generated by graphviz version 2.43.0 (0)
 -->
<!-- Title: dependency&#45;cruiser output Pages: 1 -->
<svg width="956pt" height="836pt"
 viewBox="0.00 0.00 956.00 836.00" xmlns="http://www.w3.org/2000/svg" xmlns:xlink="http://www.w3.org/1999/xlink">
<g id="graph0" class="graph" transform="scale(1 1) rotate(0) translate(4 832)">
<title>dependency&#45;cruiser output</title>
<polygon fill="white" stroke="transparent" points="-4,4 -4,-832 952,-832 952,4 -4,4"/>
<g id="clust1" class="cluster">
<title>cluster_packages</title>
<path fill="#ffffff" stroke="black" stroke-width="2" d="M20,-8C20,-8 934,-8 934,-8 940,-8 946,-14 946,-20 946,-20 946,-808 946,-808 946,-814 940,-820 934,-820 934,-820 20,-820 20,-820 14,-820 8,-814 8,-808 8,-808 8,-20 8,-20 8,-14 14,-8 20,-8"/>
<text text-anchor="middle" x="477" y="-808.8" font-family="Helvetica,sans-Serif" font-weight="bold" font-size="9.00">packages</text>
</g>
<g id="clust2" class="cluster">
<title>cluster_packages/UI</title>
<path fill="#ffffff" stroke="black" stroke-width="2" d="M28,-144C28,-144 912,-144 912,-144 918,-144 924,-150 924,-156 924,-156 924,-620 924,-620 924,-626 918,-632 912,-632 912,-632 28,-632 28,-632 22,-632 16,-626 16,-620 16,-620 16,-156 16,-156 16,-150 22,-144 28,-144"/>
<text text-anchor="middle" x="470" y="-620.8" font-family="Helvetica,sans-Serif" font-weight="bold" font-size="9.00">UI</text>
</g>
<g id="clust3" class="cluster">
<title>cluster_packages/UI/controllers</title>
<path fill="#ffffff" stroke="black" stroke-width="2" d="M842,-276C842,-276 904,-276 904,-276 910,-276 916,-282 916,-288 916,-288 916,-350 916,-350 916,-356 910,-362 904,-362 904,-362 842,-362 842,-362 836,-362 830,-356 830,-350 830,-350 830,-288 830,-288 830,-282 836,-276 842,-276"/>
<text text-anchor="middle" x="873" y="-350.8" font-family="Helvetica,sans-Serif" font-weight="bold" font-size="9.00">controllers</text>
</g>
<g id="clust4" class="cluster">
<title>cluster_packages/UI/controllers/dist</title>
<path fill="#ffffff" stroke="black" stroke-width="2" d="M850,-284C850,-284 896,-284 896,-284 902,-284 908,-290 908,-296 908,-296 908,-324 908,-324 908,-330 902,-336 896,-336 896,-336 850,-336 850,-336 844,-336 838,-330 838,-324 838,-324 838,-296 838,-296 838,-290 844,-284 850,-284"/>
<text text-anchor="middle" x="873" y="-324.8" font-family="Helvetica,sans-Serif" font-weight="bold" font-size="9.00">dist</text>
</g>
<g id="clust5" class="cluster">
<title>cluster_packages/UI/piano&#45;roll</title>
<path fill="#ffffff" stroke="black" stroke-width="2" d="M36,-246C36,-246 780,-246 780,-246 786,-246 792,-252 792,-258 792,-258 792,-476 792,-476 792,-482 786,-488 780,-488 780,-488 36,-488 36,-488 30,-488 24,-482 24,-476 24,-476 24,-258 24,-258 24,-252 30,-246 36,-246"/>
<text text-anchor="middle" x="408" y="-476.8" font-family="Helvetica,sans-Serif" font-weight="bold" font-size="9.00">piano&#45;roll</text>
</g>
<g id="clust6" class="cluster">
<title>cluster_packages/UI/piano&#45;roll/beat&#45;view</title>
<path fill="#ffffff" stroke="black" stroke-width="2" d="M44,-254C44,-254 772,-254 772,-254 778,-254 784,-260 784,-266 784,-266 784,-450 784,-450 784,-456 778,-462 772,-462 772,-462 44,-462 44,-462 38,-462 32,-456 32,-450 32,-450 32,-266 32,-266 32,-260 38,-254 44,-254"/>
<text text-anchor="middle" x="408" y="-450.8" font-family="Helvetica,sans-Serif" font-weight="bold" font-size="9.00">beat&#45;view</text>
</g>
<g id="clust7" class="cluster">
<title>cluster_packages/UI/piano&#45;roll/beat&#45;view/src</title>
<path fill="#ffffff" stroke="black" stroke-width="2" d="M133,-262C133,-262 764,-262 764,-262 770,-262 776,-268 776,-274 776,-274 776,-424 776,-424 776,-430 770,-436 764,-436 764,-436 133,-436 133,-436 127,-436 121,-430 121,-424 121,-424 121,-274 121,-274 121,-268 127,-262 133,-262"/>
<text text-anchor="middle" x="448.5" y="-424.8" font-family="Helvetica,sans-Serif" font-weight="bold" font-size="9.00">src</text>
</g>
<g id="clust8" class="cluster">
<title>cluster_packages/UI/piano&#45;roll/beat&#45;view/src/beat&#45;bar</title>
<path fill="#ffffff" stroke="black" stroke-width="2" d="M348,-344C348,-344 756,-344 756,-344 762,-344 768,-350 768,-356 768,-356 768,-398 768,-398 768,-404 762,-410 756,-410 756,-410 348,-410 348,-410 342,-410 336,-404 336,-398 336,-398 336,-356 336,-356 336,-350 342,-344 348,-344"/>
<text text-anchor="middle" x="552" y="-398.8" font-family="Helvetica,sans-Serif" font-weight="bold" font-size="9.00">beat&#45;bar</text>
</g>
<g id="clust9" class="cluster">
<title>cluster_packages/UI/piano&#45;roll/beat&#45;view/src/requirement</title>
<path fill="#ffffff" stroke="black" stroke-width="2" d="M348,-270C348,-270 740.5,-270 740.5,-270 746.5,-270 752.5,-276 752.5,-282 752.5,-282 752.5,-324 752.5,-324 752.5,-330 746.5,-336 740.5,-336 740.5,-336 348,-336 348,-336 342,-336 336,-330 336,-324 336,-324 336,-282 336,-282 336,-276 342,-270 348,-270"/>
<text text-anchor="middle" x="544.25" y="-324.8" font-family="Helvetica,sans-Serif" font-weight="bold" font-size="9.00">requirement</text>
</g>
<g id="clust10" class="cluster">
<title>cluster_packages/UI/synth</title>
<path fill="#ffffff" stroke="black" stroke-width="2" d="M552,-496C552,-496 614,-496 614,-496 620,-496 626,-502 626,-508 626,-508 626,-570 626,-570 626,-576 620,-582 614,-582 614,-582 552,-582 552,-582 546,-582 540,-576 540,-570 540,-570 540,-508 540,-508 540,-502 546,-496 552,-496"/>
<text text-anchor="middle" x="583" y="-570.8" font-family="Helvetica,sans-Serif" font-weight="bold" font-size="9.00">synth</text>
</g>
<g id="clust11" class="cluster">
<title>cluster_packages/UI/synth/dist</title>
<path fill="#ffffff" stroke="black" stroke-width="2" d="M560,-504C560,-504 606,-504 606,-504 612,-504 618,-510 618,-516 618,-516 618,-544 618,-544 618,-550 612,-556 606,-556 606,-556 560,-556 560,-556 554,-556 548,-550 548,-544 548,-544 548,-516 548,-516 548,-510 554,-504 560,-504"/>
<text text-anchor="middle" x="583" y="-544.8" font-family="Helvetica,sans-Serif" font-weight="bold" font-size="9.00">dist</text>
</g>
<g id="clust12" class="cluster">
<title>cluster_packages/UI/view&#45;parameters</title>
<path fill="#ffffff" stroke="black" stroke-width="2" d="M544,-152C544,-152 623,-152 623,-152 629,-152 635,-158 635,-164 635,-164 635,-226 635,-226 635,-232 629,-238 623,-238 623,-238 544,-238 544,-238 538,-238 532,-232 532,-226 532,-226 532,-164 532,-164 532,-158 538,-152 544,-152"/>
<text text-anchor="middle" x="583.5" y="-226.8" font-family="Helvetica,sans-Serif" font-weight="bold" font-size="9.00">view&#45;parameters</text>
</g>
<g id="clust13" class="cluster">
<title>cluster_packages/UI/view&#45;parameters/dist</title>
<path fill="#ffffff" stroke="black" stroke-width="2" d="M560,-160C560,-160 606,-160 606,-160 612,-160 618,-166 618,-172 618,-172 618,-200 618,-200 618,-206 612,-212 606,-212 606,-212 560,-212 560,-212 554,-212 548,-206 548,-200 548,-200 548,-172 548,-172 548,-166 554,-160 560,-160"/>
<text text-anchor="middle" x="583" y="-200.8" font-family="Helvetica,sans-Serif" font-weight="bold" font-size="9.00">dist</text>
</g>
<g id="clust14" class="cluster">
<title>cluster_packages/UI/view</title>
<path fill="#ffffff" stroke="black" stroke-width="2" d="M842,-371C842,-371 904,-371 904,-371 910,-371 916,-377 916,-383 916,-383 916,-445 916,-445 916,-451 910,-457 904,-457 904,-457 842,-457 842,-457 836,-457 830,-451 830,-445 830,-445 830,-383 830,-383 830,-377 836,-371 842,-371"/>
<text text-anchor="middle" x="873" y="-445.8" font-family="Helvetica,sans-Serif" font-weight="bold" font-size="9.00">view</text>
</g>
<g id="clust15" class="cluster">
<title>cluster_packages/UI/view/dist</title>
<path fill="#ffffff" stroke="black" stroke-width="2" d="M850,-379C850,-379 896,-379 896,-379 902,-379 908,-385 908,-391 908,-391 908,-419 908,-419 908,-425 902,-431 896,-431 896,-431 850,-431 850,-431 844,-431 838,-425 838,-419 838,-419 838,-391 838,-391 838,-385 844,-379 850,-379"/>
<text text-anchor="middle" x="873" y="-419.8" font-family="Helvetica,sans-Serif" font-weight="bold" font-size="9.00">dist</text>
</g>
<g id="clust16" class="cluster">
<title>cluster_packages/music&#45;structure</title>
<path fill="#ffffff" stroke="black" stroke-width="2" d="M820,-640C820,-640 926,-640 926,-640 932,-640 938,-646 938,-652 938,-652 938,-782 938,-782 938,-788 932,-794 926,-794 926,-794 820,-794 820,-794 814,-794 808,-788 808,-782 808,-782 808,-652 808,-652 808,-646 814,-640 820,-640"/>
<text text-anchor="middle" x="873" y="-782.8" font-family="Helvetica,sans-Serif" font-weight="bold" font-size="9.00">music&#45;structure</text>
</g>
<g id="clust17" class="cluster">
<title>cluster_packages/music&#45;structure/beat</title>
<path fill="#ffffff" stroke="black" stroke-width="2" d="M828,-648C828,-648 918,-648 918,-648 924,-648 930,-654 930,-660 930,-660 930,-756 930,-756 930,-762 924,-768 918,-768 918,-768 828,-768 828,-768 822,-768 816,-762 816,-756 816,-756 816,-660 816,-660 816,-654 822,-648 828,-648"/>
<text text-anchor="middle" x="873" y="-756.8" font-family="Helvetica,sans-Serif" font-weight="bold" font-size="9.00">beat</text>
</g>
<g id="clust18" class="cluster">
<title>cluster_packages/music&#45;structure/beat/beat&#45;estimation</title>
<path fill="#ffffff" stroke="black" stroke-width="2" d="M836,-656C836,-656 910,-656 910,-656 916,-656 922,-662 922,-668 922,-668 922,-730 922,-730 922,-736 916,-742 910,-742 910,-742 836,-742 836,-742 830,-742 824,-736 824,-730 824,-730 824,-668 824,-668 824,-662 830,-656 836,-656"/>
<text text-anchor="middle" x="873" y="-730.8" font-family="Helvetica,sans-Serif" font-weight="bold" font-size="9.00">beat&#45;estimation</text>
</g>
<g id="clust19" class="cluster">
<title>cluster_packages/music&#45;structure/beat/beat&#45;estimation/dist</title>
<path fill="#ffffff" stroke="black" stroke-width="2" d="M850,-664C850,-664 896,-664 896,-664 902,-664 908,-670 908,-676 908,-676 908,-704 908,-704 908,-710 902,-716 896,-716 896,-716 850,-716 850,-716 844,-716 838,-710 838,-704 838,-704 838,-676 838,-676 838,-670 844,-664 850,-664"/>
<text text-anchor="middle" x="873" y="-704.8" font-family="Helvetica,sans-Serif" font-weight="bold" font-size="9.00">dist</text>
</g>
<g id="clust20" class="cluster">
<title>cluster_packages/util</title>
<path fill="#ffffff" stroke="black" stroke-width="2" d="M834,-16C834,-16 912,-16 912,-16 918,-16 924,-22 924,-28 924,-28 924,-124 924,-124 924,-130 918,-136 912,-136 912,-136 834,-136 834,-136 828,-136 822,-130 822,-124 822,-124 822,-28 822,-28 822,-22 828,-16 834,-16"/>
<text text-anchor="middle" x="873" y="-124.8" font-family="Helvetica,sans-Serif" font-weight="bold" font-size="9.00">util</text>
</g>
<g id="clust21" class="cluster">
<title>cluster_packages/util/time&#45;and</title>
<path fill="#ffffff" stroke="black" stroke-width="2" d="M842,-24C842,-24 904,-24 904,-24 910,-24 916,-30 916,-36 916,-36 916,-98 916,-98 916,-104 910,-110 904,-110 904,-110 842,-110 842,-110 836,-110 830,-104 830,-98 830,-98 830,-36 830,-36 830,-30 836,-24 842,-24"/>
<text text-anchor="middle" x="873" y="-98.8" font-family="Helvetica,sans-Serif" font-weight="bold" font-size="9.00">time&#45;and</text>
</g>
<g id="clust22" class="cluster">
<title>cluster_packages/util/time&#45;and/dist</title>
<path fill="#ffffff" stroke="black" stroke-width="2" d="M850,-32C850,-32 896,-32 896,-32 902,-32 908,-38 908,-44 908,-44 908,-72 908,-72 908,-78 902,-84 896,-84 896,-84 850,-84 850,-84 844,-84 838,-78 838,-72 838,-72 838,-44 838,-44 838,-38 844,-32 850,-32"/>
<text text-anchor="middle" x="873" y="-72.8" font-family="Helvetica,sans-Serif" font-weight="bold" font-size="9.00">dist</text>
</g>
<!-- packages/UI/controllers/dist/index.js -->
<g id="node1" class="node">
<title>packages/UI/controllers/dist/index.js</title>
<g id="a_node1"><a xlink:href="packages/UI/controllers/dist/index.js" xlink:title="index.js">
<polygon fill="#ffffcc" stroke="black" points="900,-310 898.5,-312 888,-312 886.5,-310 846,-310 846,-292 900,-292 900,-310"/>
<text text-anchor="start" x="855.5" y="-298.8" font-family="Helvetica,sans-Serif" font-size="9.00">index.js</text>
</a>
</g>
</g>
<!-- packages/UI/piano&#45;roll/beat&#45;view/index.test.ts -->
<g id="node2" class="node">
<title>packages/UI/piano&#45;roll/beat&#45;view/index.test.ts</title>
<g id="a_node2"><a xlink:href="packages/UI/piano-roll/beat-view/index.test.ts" xlink:title="no&#45;orphans">
<path fill="#ccffcc" stroke="orange" d="M107,-430C107,-430 46,-430 46,-430 43,-430 40,-427 40,-424 40,-424 40,-418 40,-418 40,-415 43,-412 46,-412 46,-412 107,-412 107,-412 110,-412 113,-415 113,-418 113,-418 113,-424 113,-424 113,-427 110,-430 107,-430"/>
<text text-anchor="start" x="48" y="-418.8" font-family="Helvetica,sans-Serif" font-size="9.00" fill="orange">index.test.ts</text>
</a>
</g>
</g>
<!-- packages/UI/piano&#45;roll/beat&#45;view/index.ts -->
<g id="node3" class="node">
<title>packages/UI/piano&#45;roll/beat&#45;view/index.ts</title>
<g id="a_node3"><a xlink:href="packages/UI/piano-roll/beat-view/index.ts" xlink:title="index.ts">
<path fill="#ddfeff" stroke="black" d="M97.5,-389C97.5,-389 55.5,-389 55.5,-389 52.5,-389 49.5,-386 49.5,-383 49.5,-383 49.5,-377 49.5,-377 49.5,-374 52.5,-371 55.5,-371 55.5,-371 97.5,-371 97.5,-371 100.5,-371 103.5,-374 103.5,-377 103.5,-377 103.5,-383 103.5,-383 103.5,-386 100.5,-389 97.5,-389"/>
<text text-anchor="start" x="58" y="-377.8" font-family="Helvetica,sans-Serif" font-size="9.00">index.ts</text>
</a>
</g>
</g>
<!-- packages/UI/piano&#45;roll/beat&#45;view/src/beat&#45;elements.ts -->
<g id="node4" class="node">
<title>packages/UI/piano&#45;roll/beat&#45;view/src/beat&#45;elements.ts</title>
<g id="a_node4"><a xlink:href="packages/UI/piano-roll/beat-view/src/beat-elements.ts" xlink:title="beat&#45;elements.ts">
<path fill="#ddfeff" stroke="black" d="M215,-384C215,-384 135,-384 135,-384 132,-384 129,-381 129,-378 129,-378 129,-372 129,-372 129,-369 132,-366 135,-366 135,-366 215,-366 215,-366 218,-366 221,-369 221,-372 221,-372 221,-378 221,-378 221,-381 218,-384 215,-384"/>
<text text-anchor="start" x="137" y="-372.8" font-family="Helvetica,sans-Serif" font-size="9.00">beat&#45;elements.ts</text>
</a>
</g>
</g>
<!-- packages/UI/piano&#45;roll/beat&#45;view/index.ts&#45;&gt;packages/UI/piano&#45;roll/beat&#45;view/src/beat&#45;elements.ts -->
<g id="edge1" class="edge">
<title>packages/UI/piano&#45;roll/beat&#45;view/index.ts&#45;&gt;packages/UI/piano&#45;roll/beat&#45;view/src/beat&#45;elements.ts</title>
<path fill="none" stroke="#000000" stroke-width="2" stroke-opacity="0.200000" d="M103.61,-378.65C109.6,-378.34 116.16,-378 122.8,-377.65"/>
<polygon fill="#000000" fill-opacity="0.200000" stroke="#000000" stroke-width="2" stroke-opacity="0.200000" points="129.01,-379.43 122.91,-377.65 128.79,-375.24 129.01,-379.43"/>
</g>
<!-- packages/UI/piano&#45;roll/beat&#45;view/src/requirement/beat&#45;elements.ts -->
<g id="node5" class="node">
<title>packages/UI/piano&#45;roll/beat&#45;view/src/requirement/beat&#45;elements.ts</title>
<g id="a_node5"><a xlink:href="packages/UI/piano-roll/beat-view/src/requirement/beat-elements.ts" xlink:title="beat&#45;elements.ts">
<path fill="#ddfeff" stroke="black" d="M497,-310C497,-310 417,-310 417,-310 414,-310 411,-307 411,-304 411,-304 411,-298 411,-298 411,-295 414,-292 417,-292 417,-292 497,-292 497,-292 500,-292 503,-295 503,-298 503,-298 503,-304 503,-304 503,-307 500,-310 497,-310"/>
<text text-anchor="start" x="419" y="-298.8" font-family="Helvetica,sans-Serif" font-size="9.00">beat&#45;elements.ts</text>
</a>
</g>
</g>
<!-- packages/UI/piano&#45;roll/beat&#45;view/index.ts&#45;&gt;packages/UI/piano&#45;roll/beat&#45;view/src/requirement/beat&#45;elements.ts -->
<g id="edge2" class="edge">
<title>packages/UI/piano&#45;roll/beat&#45;view/index.ts&#45;&gt;packages/UI/piano&#45;roll/beat&#45;view/src/requirement/beat&#45;elements.ts</title>
<path fill="none" stroke="#000000" stroke-width="2" stroke-opacity="0.200000" d="M89.92,-389.09C100.15,-396.59 113,-406 113,-406 113,-406 121,-414 121,-414 121,-414 328,-414 328,-414 328,-414 398,-413 398,-413 398,-413 411,-341 411,-341 411,-341 427.87,-326 440.95,-314.38"/>
<polygon fill="#000000" fill-opacity="0.200000" stroke="#000000" stroke-width="2" stroke-opacity="0.200000" points="446.96,-311.85 441.08,-314.26 444.17,-308.71 446.96,-311.85"/>
</g>
<!-- packages/UI/piano&#45;roll/beat&#45;view/src/beat&#45;bar&#45;series.ts -->
<g id="node6" class="node">
<title>packages/UI/piano&#45;roll/beat&#45;view/src/beat&#45;bar&#45;series.ts</title>
<g id="a_node6"><a xlink:href="packages/UI/piano-roll/beat-view/src/beat-bar-series.ts" xlink:title="beat&#45;bar&#45;series.ts">
<path fill="#ddfeff" stroke="black" d="M322,-384C322,-384 240,-384 240,-384 237,-384 234,-381 234,-378 234,-378 234,-372 234,-372 234,-369 237,-366 240,-366 240,-366 322,-366 322,-366 325,-366 328,-369 328,-372 328,-372 328,-378 328,-378 328,-381 325,-384 322,-384"/>
<text text-anchor="start" x="242" y="-372.8" font-family="Helvetica,sans-Serif" font-size="9.00">beat&#45;bar&#45;series.ts</text>
</a>
</g>
</g>
<!-- packages/UI/piano&#45;roll/beat&#45;view/src/beat&#45;elements.ts&#45;&gt;packages/UI/piano&#45;roll/beat&#45;view/src/beat&#45;bar&#45;series.ts -->
<g id="edge21" class="edge">
<title>packages/UI/piano&#45;roll/beat&#45;view/src/beat&#45;elements.ts&#45;&gt;packages/UI/piano&#45;roll/beat&#45;view/src/beat&#45;bar&#45;series.ts</title>
<path fill="none" stroke="#000000" stroke-width="2" stroke-opacity="0.200000" d="M221.01,-375C223.29,-375 225.58,-375 227.87,-375"/>
<polygon fill="#000000" fill-opacity="0.200000" stroke="#000000" stroke-width="2" stroke-opacity="0.200000" points="227.93,-377.1 233.93,-375 227.93,-372.9 227.93,-377.1"/>
</g>
<!-- packages/UI/piano&#45;roll/beat&#45;view/src/requirement/index.ts -->
<g id="node8" class="node">
<title>packages/UI/piano&#45;roll/beat&#45;view/src/requirement/index.ts</title>
<g id="a_node8"><a xlink:href="packages/UI/piano-roll/beat-view/src/requirement/index.ts" xlink:title="index.ts">
<path fill="#ddfeff" stroke="black" d="M392,-310C392,-310 350,-310 350,-310 347,-310 344,-307 344,-304 344,-304 344,-298 344,-298 344,-295 347,-292 350,-292 350,-292 392,-292 392,-292 395,-292 398,-295 398,-298 398,-298 398,-304 398,-304 398,-307 395,-310 392,-310"/>
<text text-anchor="start" x="352.5" y="-298.8" font-family="Helvetica,sans-Serif" font-size="9.00">index.ts</text>
</a>
</g>
</g>
<!-- packages/UI/piano&#45;roll/beat&#45;view/src/beat&#45;elements.ts&#45;&gt;packages/UI/piano&#45;roll/beat&#45;view/src/requirement/index.ts -->
<g id="edge22" class="edge">
<title>packages/UI/piano&#45;roll/beat&#45;view/src/beat&#45;elements.ts&#45;&gt;packages/UI/piano&#45;roll/beat&#45;view/src/requirement/index.ts</title>
<path fill="none" stroke="#000000" stroke-width="2" stroke-opacity="0.200000" d="M199.79,-365.93C235.23,-352.41 301.84,-327 340.38,-312.3"/>
<polygon fill="#000000" fill-opacity="0.200000" stroke="#000000" stroke-width="2" stroke-opacity="0.200000" points="341.46,-314.13 346.32,-310.03 339.97,-310.21 341.46,-314.13"/>
</g>
<!-- packages/music&#45;structure/beat/beat&#45;estimation/dist/index.js -->
<g id="node9" class="node">
<title>packages/music&#45;structure/beat/beat&#45;estimation/dist/index.js</title>
<g id="a_node9"><a xlink:href="packages/music-structure/beat/beat-estimation/dist/index.js" xlink:title="index.js">
<polygon fill="#ffffcc" stroke="black" points="900,-690 898.5,-692 888,-692 886.5,-690 846,-690 846,-672 900,-672 900,-690"/>
<text text-anchor="start" x="855.5" y="-678.8" font-family="Helvetica,sans-Serif" font-size="9.00">index.js</text>
</a>
</g>
</g>
<!-- packages/UI/piano&#45;roll/beat&#45;view/src/beat&#45;elements.ts&#45;&gt;packages/music&#45;structure/beat/beat&#45;estimation/dist/index.js -->
<g id="edge23" class="edge">
<title>packages/UI/piano&#45;roll/beat&#45;view/src/beat&#45;elements.ts&#45;&gt;packages/music&#45;structure/beat/beat&#45;estimation/dist/index.js</title>
<path fill="none" stroke="#000000" stroke-width="2" stroke-opacity="0.200000" d="M181.81,-384.01C214.09,-434.09 370,-676 370,-676 370,-676 370,-676 584,-676 584,-676 764.74,-679.14 839.86,-680.44"/>
<polygon fill="#000000" fill-opacity="0.200000" stroke="#000000" stroke-width="2" stroke-opacity="0.200000" points="839.9,-682.54 845.93,-680.55 839.97,-678.34 839.9,-682.54"/>
</g>
<!-- packages/util/time&#45;and/dist/index.js -->
<g id="node10" class="node">
<title>packages/util/time&#45;and/dist/index.js</title>
<g id="a_node10"><a xlink:href="packages/util/time-and/dist/index.js" xlink:title="index.js">
<polygon fill="#ffffcc" stroke="black" points="900,-58 898.5,-60 888,-60 886.5,-58 846,-58 846,-40 900,-40 900,-58"/>
<text text-anchor="start" x="855.5" y="-46.8" font-family="Helvetica,sans-Serif" font-size="9.00">index.js</text>
</a>
</g>
</g>
<!-- packages/UI/piano&#45;roll/beat&#45;view/src/beat&#45;elements.ts&#45;&gt;packages/util/time&#45;and/dist/index.js -->
<g id="edge24" class="edge">
<title>packages/UI/piano&#45;roll/beat&#45;view/src/beat&#45;elements.ts&#45;&gt;packages/util/time&#45;and/dist/index.js</title>
<path fill="none" stroke="#000000" stroke-width="2" stroke-opacity="0.200000" d="M181.6,-365.83C213.41,-313.69 370,-57 370,-57 370,-57 370,-57 584,-57 584,-57 764.74,-51.98 839.86,-49.89"/>
<polygon fill="#000000" fill-opacity="0.200000" stroke="#000000" stroke-width="2" stroke-opacity="0.200000" points="839.99,-51.99 845.93,-49.72 839.88,-47.79 839.99,-51.99"/>
</g>
<!-- packages/UI/piano&#45;roll/beat&#45;view/src/requirement/beat&#45;bar&#45;series.ts -->
<g id="node17" class="node">
<title>packages/UI/piano&#45;roll/beat&#45;view/src/requirement/beat&#45;bar&#45;series.ts</title>
<g id="a_node17"><a xlink:href="packages/UI/piano-roll/beat-view/src/requirement/beat-bar-series.ts" xlink:title="beat&#45;bar&#45;series.ts">
<path fill="#ddfeff" stroke="black" d="M624,-310C624,-310 542,-310 542,-310 539,-310 536,-307 536,-304 536,-304 536,-298 536,-298 536,-295 539,-292 542,-292 542,-292 624,-292 624,-292 627,-292 630,-295 630,-298 630,-298 630,-304 630,-304 630,-307 627,-310 624,-310"/>
<text text-anchor="start" x="544" y="-298.8" font-family="Helvetica,sans-Serif" font-size="9.00">beat&#45;bar&#45;series.ts</text>
</a>
</g>
</g>
<!-- packages/UI/piano&#45;roll/beat&#45;view/src/requirement/beat&#45;elements.ts&#45;&gt;packages/UI/piano&#45;roll/beat&#45;view/src/requirement/beat&#45;bar&#45;series.ts -->
<g id="edge28" class="edge">
<title>packages/UI/piano&#45;roll/beat&#45;view/src/requirement/beat&#45;elements.ts&#45;&gt;packages/UI/piano&#45;roll/beat&#45;view/src/requirement/beat&#45;bar&#45;series.ts</title>
<path fill="none" stroke="#000000" stroke-width="2" stroke-opacity="0.200000" d="M503.12,-301C511.78,-301 520.92,-301 529.79,-301"/>
<polygon fill="#000000" fill-opacity="0.200000" stroke="#000000" stroke-width="2" stroke-opacity="0.200000" points="529.88,-303.1 535.88,-301 529.88,-298.9 529.88,-303.1"/>
</g>
<!-- packages/UI/piano&#45;roll/beat&#45;view/src/beat&#45;bar/index.ts -->
<g id="node7" class="node">
<title>packages/UI/piano&#45;roll/beat&#45;view/src/beat&#45;bar/index.ts</title>
<g id="a_node7"><a xlink:href="packages/UI/piano-roll/beat-view/src/beat-bar/index.ts" xlink:title="index.ts">
<path fill="#ddfeff" stroke="black" d="M392,-384C392,-384 350,-384 350,-384 347,-384 344,-381 344,-378 344,-378 344,-372 344,-372 344,-369 347,-366 350,-366 350,-366 392,-366 392,-366 395,-366 398,-369 398,-372 398,-372 398,-378 398,-378 398,-381 395,-384 392,-384"/>
<text text-anchor="start" x="352.5" y="-372.8" font-family="Helvetica,sans-Serif" font-size="9.00">index.ts</text>
</a>
</g>
</g>
<!-- packages/UI/piano&#45;roll/beat&#45;view/src/beat&#45;bar&#45;series.ts&#45;&gt;packages/UI/piano&#45;roll/beat&#45;view/src/beat&#45;bar/index.ts -->
<g id="edge3" class="edge">
<title>packages/UI/piano&#45;roll/beat&#45;view/src/beat&#45;bar&#45;series.ts&#45;&gt;packages/UI/piano&#45;roll/beat&#45;view/src/beat&#45;bar/index.ts</title>
<path fill="none" stroke="#000000" stroke-width="2" stroke-opacity="0.200000" d="M328.06,-375C331.22,-375 334.37,-375 337.44,-375"/>
<polygon fill="#000000" fill-opacity="0.200000" stroke="#000000" stroke-width="2" stroke-opacity="0.200000" points="337.6,-377.1 343.6,-375 337.6,-372.9 337.6,-377.1"/>
</g>
<!-- packages/UI/piano&#45;roll/beat&#45;view/src/beat&#45;bar&#45;series.ts&#45;&gt;packages/UI/piano&#45;roll/beat&#45;view/src/requirement/index.ts -->
<g id="edge4" class="edge">
<title>packages/UI/piano&#45;roll/beat&#45;view/src/beat&#45;bar&#45;series.ts&#45;&gt;packages/UI/piano&#45;roll/beat&#45;view/src/requirement/index.ts</title>
<path fill="none" stroke="#000000" stroke-width="2" stroke-opacity="0.200000" d="M292.79,-365.93C308.23,-352.94 336.71,-329 354.43,-314.09"/>
<polygon fill="#000000" fill-opacity="0.200000" stroke="#000000" stroke-width="2" stroke-opacity="0.200000" points="355.88,-315.62 359.12,-310.15 353.18,-312.4 355.88,-315.62"/>
</g>
<!-- packages/UI/piano&#45;roll/beat&#45;view/src/beat&#45;bar&#45;series.ts&#45;&gt;packages/music&#45;structure/beat/beat&#45;estimation/dist/index.js -->
<g id="edge5" class="edge">
<title>packages/UI/piano&#45;roll/beat&#45;view/src/beat&#45;bar&#45;series.ts&#45;&gt;packages/music&#45;structure/beat/beat&#45;estimation/dist/index.js</title>
<path fill="none" stroke="#000000" stroke-width="2" stroke-opacity="0.200000" d="M286.24,-384.02C298.97,-411.13 336,-490 336,-490 336,-490 456,-645 456,-645 456,-645 456,-645 584,-645 584,-645 764.74,-667.59 839.86,-676.98"/>
<polygon fill="#000000" fill-opacity="0.200000" stroke="#000000" stroke-width="2" stroke-opacity="0.200000" points="839.72,-679.08 845.93,-677.74 840.24,-674.91 839.72,-679.08"/>
</g>
<!-- packages/UI/piano&#45;roll/beat&#45;view/src/beat&#45;bar&#45;series.ts&#45;&gt;packages/util/time&#45;and/dist/index.js -->
<g id="edge6" class="edge">
<title>packages/UI/piano&#45;roll/beat&#45;view/src/beat&#45;bar&#45;series.ts&#45;&gt;packages/util/time&#45;and/dist/index.js</title>
<path fill="none" stroke="#000000" stroke-width="2" stroke-opacity="0.200000" d="M286.6,-365.79C299.66,-339.67 336,-267 336,-267 336,-267 456,-104 456,-104 456,-104 456,-104 584,-104 584,-104 764.74,-69.48 839.86,-55.14"/>
<polygon fill="#000000" fill-opacity="0.200000" stroke="#000000" stroke-width="2" stroke-opacity="0.200000" points="840.43,-57.17 845.93,-53.98 839.65,-53.04 840.43,-57.17"/>
</g>
<!-- packages/UI/view/dist/index.js -->
<g id="node11" class="node">
<title>packages/UI/view/dist/index.js</title>
<g id="a_node11"><a xlink:href="packages/UI/view/dist/index.js" xlink:title="index.js">
<polygon fill="#ffffcc" stroke="black" points="900,-405 898.5,-407 888,-407 886.5,-405 846,-405 846,-387 900,-387 900,-405"/>
<text text-anchor="start" x="855.5" y="-393.8" font-family="Helvetica,sans-Serif" font-size="9.00">index.js</text>
</a>
</g>
</g>
<!-- packages/UI/piano&#45;roll/beat&#45;view/src/beat&#45;bar&#45;series.ts&#45;&gt;packages/UI/view/dist/index.js -->
<g id="edge7" class="edge">
<title>packages/UI/piano&#45;roll/beat&#45;view/src/beat&#45;bar&#45;series.ts&#45;&gt;packages/UI/view/dist/index.js</title>
<path fill="none" stroke="#000000" stroke-width="2" stroke-opacity="0.200000" d="M288.82,-384.02C320.99,-426.54 456,-605 456,-605 456,-605 456,-605 584,-605 584,-605 792,-499 792,-499 792,-499 839.26,-438.16 861.13,-410"/>
<polygon fill="#000000" fill-opacity="0.200000" stroke="#000000" stroke-width="2" stroke-opacity="0.200000" points="862.88,-411.17 864.9,-405.14 859.56,-408.59 862.88,-411.17"/>
</g>
<!-- packages/UI/piano&#45;roll/beat&#45;view/src/beat&#45;bar/beat&#45;bar.ts -->
<g id="node14" class="node">
<title>packages/UI/piano&#45;roll/beat&#45;view/src/beat&#45;bar/beat&#45;bar.ts</title>
<g id="a_node14"><a xlink:href="packages/UI/piano-roll/beat-view/src/beat-bar/beat-bar.ts" xlink:title="beat&#45;bar.ts">
<path fill="#ddfeff" stroke="black" d="M483.5,-384C483.5,-384 430.5,-384 430.5,-384 427.5,-384 424.5,-381 424.5,-378 424.5,-378 424.5,-372 424.5,-372 424.5,-369 427.5,-366 430.5,-366 430.5,-366 483.5,-366 483.5,-366 486.5,-366 489.5,-369 489.5,-372 489.5,-372 489.5,-378 489.5,-378 489.5,-381 486.5,-384 483.5,-384"/>
<text text-anchor="start" x="432.5" y="-372.8" font-family="Helvetica,sans-Serif" font-size="9.00">beat&#45;bar.ts</text>
</a>
</g>
</g>
<!-- packages/UI/piano&#45;roll/beat&#45;view/src/beat&#45;bar/index.ts&#45;&gt;packages/UI/piano&#45;roll/beat&#45;view/src/beat&#45;bar/beat&#45;bar.ts -->
<g id="edge20" class="edge">
<title>packages/UI/piano&#45;roll/beat&#45;view/src/beat&#45;bar/index.ts&#45;&gt;packages/UI/piano&#45;roll/beat&#45;view/src/beat&#45;bar/beat&#45;bar.ts</title>
<path fill="none" stroke="#000000" stroke-width="2" stroke-opacity="0.200000" d="M398.12,-375C404.46,-375 411.37,-375 418.13,-375"/>
<polygon fill="#000000" fill-opacity="0.200000" stroke="#000000" stroke-width="2" stroke-opacity="0.200000" points="424.28,-377.1 418.28,-375 424.28,-372.9 424.28,-377.1"/>
</g>
<!-- packages/UI/piano&#45;roll/beat&#45;view/src/requirement/index.ts&#45;&gt;packages/UI/piano&#45;roll/beat&#45;view/src/requirement/beat&#45;elements.ts -->
<g id="edge30" class="edge">
<title>packages/UI/piano&#45;roll/beat&#45;view/src/requirement/index.ts&#45;&gt;packages/UI/piano&#45;roll/beat&#45;view/src/requirement/beat&#45;elements.ts</title>
<path fill="none" stroke="#000000" stroke-width="2" stroke-opacity="0.200000" d="M398.12,-301C400.27,-301 402.48,-301 404.73,-301"/>
<polygon fill="#000000" fill-opacity="0.200000" stroke="#000000" stroke-width="2" stroke-opacity="0.200000" points="410.76,-303.1 404.76,-301 410.76,-298.9 410.76,-303.1"/>
</g>
<!-- packages/UI/piano&#45;roll/beat&#45;view/src/requirement/index.ts&#45;&gt;packages/UI/piano&#45;roll/beat&#45;view/src/requirement/beat&#45;bar&#45;series.ts -->
<g id="edge29" class="edge">
<title>packages/UI/piano&#45;roll/beat&#45;view/src/requirement/index.ts&#45;&gt;packages/UI/piano&#45;roll/beat&#45;view/src/requirement/beat&#45;bar&#45;series.ts</title>
<path fill="none" stroke="#000000" stroke-width="2" stroke-opacity="0.200000" d="M395.59,-291.93C403.8,-288.77 411,-286 411,-286 411,-286 503,-286 503,-286 503,-286 515,-288.28 529.64,-291.06"/>
<polygon fill="#000000" fill-opacity="0.200000" stroke="#000000" stroke-width="2" stroke-opacity="0.200000" points="535.2,-294.25 529.69,-291.07 535.98,-290.12 535.2,-294.25"/>
</g>
<!-- packages/UI/piano&#45;roll/beat&#45;view/src/beat&#45;bar/beat&#45;bar&#45;model.ts -->
<g id="node12" class="node">
<title>packages/UI/piano&#45;roll/beat&#45;view/src/beat&#45;bar/beat&#45;bar&#45;model.ts</title>
<g id="a_node12"><a xlink:href="packages/UI/piano-roll/beat-view/src/beat-bar/beat-bar-model.ts" xlink:title="beat&#45;bar&#45;model.ts">
<path fill="#ddfeff" stroke="black" d="M754,-383C754,-383 670,-383 670,-383 667,-383 664,-380 664,-377 664,-377 664,-371 664,-371 664,-368 667,-365 670,-365 670,-365 754,-365 754,-365 757,-365 760,-368 760,-371 760,-371 760,-377 760,-377 760,-380 757,-383 754,-383"/>
<text text-anchor="start" x="672" y="-371.8" font-family="Helvetica,sans-Serif" font-size="9.00">beat&#45;bar&#45;model.ts</text>
</a>
</g>
</g>
<!-- packages/UI/piano&#45;roll/beat&#45;view/src/beat&#45;bar/beat&#45;bar&#45;model.ts&#45;&gt;packages/music&#45;structure/beat/beat&#45;estimation/dist/index.js -->
<g id="edge8" class="edge">
<title>packages/UI/piano&#45;roll/beat&#45;view/src/beat&#45;bar/beat&#45;bar&#45;model.ts&#45;&gt;packages/music&#45;structure/beat/beat&#45;estimation/dist/index.js</title>
<path fill="none" stroke="#000000" stroke-width="2" stroke-opacity="0.200000" d="M717.76,-383.19C740.3,-426.71 836.38,-612.22 864.34,-666.21"/>
<polygon fill="#000000" fill-opacity="0.200000" stroke="#000000" stroke-width="2" stroke-opacity="0.200000" points="862.64,-667.49 867.26,-671.85 866.37,-665.55 862.64,-667.49"/>
</g>
<!-- packages/UI/piano&#45;roll/beat&#45;view/src/beat&#45;bar/beat&#45;bar&#45;model.ts&#45;&gt;packages/util/time&#45;and/dist/index.js -->
<g id="edge9" class="edge">
<title>packages/UI/piano&#45;roll/beat&#45;view/src/beat&#45;bar/beat&#45;bar&#45;model.ts&#45;&gt;packages/util/time&#45;and/dist/index.js</title>
<path fill="none" stroke="#000000" stroke-width="2" stroke-opacity="0.200000" d="M733.34,-364.99C756.75,-354.62 792,-339 792,-339 792,-339 851.33,-123.92 867.8,-64.21"/>
<polygon fill="#000000" fill-opacity="0.200000" stroke="#000000" stroke-width="2" stroke-opacity="0.200000" points="869.86,-64.66 869.43,-58.32 865.81,-63.55 869.86,-64.66"/>
</g>
<!-- packages/UI/piano&#45;roll/beat&#45;view/src/beat&#45;bar/beat&#45;bar&#45;model.ts&#45;&gt;packages/UI/view/dist/index.js -->
<g id="edge10" class="edge">
<title>packages/UI/piano&#45;roll/beat&#45;view/src/beat&#45;bar/beat&#45;bar&#45;model.ts&#45;&gt;packages/UI/view/dist/index.js</title>
<path fill="none" stroke="#000000" stroke-width="2" stroke-opacity="0.200000" d="M760.27,-380.54C785.88,-384.08 816.85,-388.37 839.69,-391.53"/>
<polygon fill="#000000" fill-opacity="0.200000" stroke="#000000" stroke-width="2" stroke-opacity="0.200000" points="839.67,-393.65 845.9,-392.39 840.24,-389.49 839.67,-393.65"/>
</g>
<!-- packages/UI/piano&#45;roll/beat&#45;view/src/beat&#45;bar/beat&#45;bar&#45;view.ts -->
<g id="node13" class="node">
<title>packages/UI/piano&#45;roll/beat&#45;view/src/beat&#45;bar/beat&#45;bar&#45;view.ts</title>
<g id="a_node13"><a xlink:href="packages/UI/piano-roll/beat-view/src/beat-bar/beat-bar-view.ts" xlink:title="beat&#45;bar&#45;view.ts">
<path fill="#ddfeff" stroke="black" d="M621,-384C621,-384 545,-384 545,-384 542,-384 539,-381 539,-378 539,-378 539,-372 539,-372 539,-369 542,-366 545,-366 545,-366 621,-366 621,-366 624,-366 627,-369 627,-372 627,-372 627,-378 627,-378 627,-381 624,-384 621,-384"/>
<text text-anchor="start" x="547" y="-372.8" font-family="Helvetica,sans-Serif" font-size="9.00">beat&#45;bar&#45;view.ts</text>
</a>
</g>
</g>
<!-- packages/UI/piano&#45;roll/beat&#45;view/src/beat&#45;bar/beat&#45;bar&#45;view.ts&#45;&gt;packages/UI/view/dist/index.js -->
<g id="edge12" class="edge">
<title>packages/UI/piano&#45;roll/beat&#45;view/src/beat&#45;bar/beat&#45;bar&#45;view.ts&#45;&gt;packages/UI/view/dist/index.js</title>
<path fill="none" stroke="#000000" stroke-width="2" stroke-opacity="0.200000" d="M627.28,-382.57C646.13,-385.87 664,-389 664,-389 664,-389 781,-392.94 839.5,-394.91"/>
<polygon fill="#000000" fill-opacity="0.200000" stroke="#000000" stroke-width="2" stroke-opacity="0.200000" points="839.59,-397.01 845.66,-395.11 839.73,-392.81 839.59,-397.01"/>
</g>
<!-- packages/UI/piano&#45;roll/beat&#45;view/src/beat&#45;bar/beat&#45;bar&#45;view.ts&#45;&gt;packages/UI/piano&#45;roll/beat&#45;view/src/beat&#45;bar/beat&#45;bar&#45;model.ts -->
<g id="edge11" class="edge">
<title>packages/UI/piano&#45;roll/beat&#45;view/src/beat&#45;bar/beat&#45;bar&#45;view.ts&#45;&gt;packages/UI/piano&#45;roll/beat&#45;view/src/beat&#45;bar/beat&#45;bar&#45;model.ts</title>
<path fill="none" stroke="#000000" stroke-width="2" stroke-opacity="0.200000" d="M627.35,-374.66C637.11,-374.58 647.58,-374.5 657.69,-374.42"/>
<polygon fill="#000000" fill-opacity="0.200000" stroke="#000000" stroke-width="2" stroke-opacity="0.200000" points="657.95,-376.52 663.93,-374.37 657.92,-372.32 657.95,-376.52"/>
</g>
<!-- packages/UI/piano&#45;roll/beat&#45;view/src/beat&#45;bar/beat&#45;bar.ts&#45;&gt;packages/music&#45;structure/beat/beat&#45;estimation/dist/index.js -->
<g id="edge15" class="edge">
<title>packages/UI/piano&#45;roll/beat&#45;view/src/beat&#45;bar/beat&#45;bar.ts&#45;&gt;packages/music&#45;structure/beat/beat&#45;estimation/dist/index.js</title>
<path fill="none" stroke="#000000" stroke-width="2" stroke-opacity="0.200000" d="M461.57,-384.07C476.35,-421.62 532,-563 532,-563 532,-563 792,-641 792,-641 792,-641 824.78,-657.39 848.37,-669.19"/>
<polygon fill="#000000" fill-opacity="0.200000" stroke="#000000" stroke-width="2" stroke-opacity="0.200000" points="847.54,-671.12 853.85,-671.92 849.42,-667.36 847.54,-671.12"/>
</g>
<!-- packages/UI/piano&#45;roll/beat&#45;view/src/beat&#45;bar/beat&#45;bar.ts&#45;&gt;packages/util/time&#45;and/dist/index.js -->
<g id="edge17" class="edge">
<title>packages/UI/piano&#45;roll/beat&#45;view/src/beat&#45;bar/beat&#45;bar.ts&#45;&gt;packages/util/time&#45;and/dist/index.js</title>
<path fill="none" stroke="#000000" stroke-width="2" stroke-opacity="0.200000" d="M469.36,-365.92C482.69,-355.25 503,-339 503,-339 503,-339 532,-157 532,-157 532,-157 792,-108 792,-108 792,-108 830.89,-79.32 854.44,-61.95"/>
<polygon fill="#000000" fill-opacity="0.200000" stroke="#000000" stroke-width="2" stroke-opacity="0.200000" points="855.92,-63.47 859.5,-58.22 853.42,-60.09 855.92,-63.47"/>
</g>
<!-- packages/UI/piano&#45;roll/beat&#45;view/src/beat&#45;bar/beat&#45;bar.ts&#45;&gt;packages/UI/view/dist/index.js -->
<g id="edge18" class="edge">
<title>packages/UI/piano&#45;roll/beat&#45;view/src/beat&#45;bar/beat&#45;bar.ts&#45;&gt;packages/UI/view/dist/index.js</title>
<path fill="none" stroke="#000000" stroke-width="2" stroke-opacity="0.200000" d="M461.67,-384.12C476.6,-421.25 532,-559 532,-559 532,-559 635,-559 635,-559 635,-559 797.77,-447.05 853.53,-408.71"/>
<polygon fill="#000000" fill-opacity="0.200000" stroke="#000000" stroke-width="2" stroke-opacity="0.200000" points="854.83,-410.36 858.58,-405.23 852.45,-406.9 854.83,-410.36"/>
</g>
<!-- packages/UI/piano&#45;roll/beat&#45;view/src/beat&#45;bar/beat&#45;bar.ts&#45;&gt;packages/UI/piano&#45;roll/beat&#45;view/src/beat&#45;bar/beat&#45;bar&#45;model.ts -->
<g id="edge13" class="edge">
<title>packages/UI/piano&#45;roll/beat&#45;view/src/beat&#45;bar/beat&#45;bar.ts&#45;&gt;packages/UI/piano&#45;roll/beat&#45;view/src/beat&#45;bar/beat&#45;bar&#45;model.ts</title>
<path fill="none" stroke="#000000" stroke-width="2" stroke-opacity="0.200000" d="M489.81,-368.55C509.87,-364.49 532,-360 532,-360 532,-360 635,-360 635,-360 635,-360 644.98,-361.84 657.72,-364.18"/>
<polygon fill="#000000" fill-opacity="0.200000" stroke="#000000" stroke-width="2" stroke-opacity="0.200000" points="657.45,-366.27 663.73,-365.29 658.21,-362.14 657.45,-366.27"/>
</g>
<!-- packages/UI/piano&#45;roll/beat&#45;view/src/beat&#45;bar/beat&#45;bar.ts&#45;&gt;packages/UI/piano&#45;roll/beat&#45;view/src/beat&#45;bar/beat&#45;bar&#45;view.ts -->
<g id="edge14" class="edge">
<title>packages/UI/piano&#45;roll/beat&#45;view/src/beat&#45;bar/beat&#45;bar.ts&#45;&gt;packages/UI/piano&#45;roll/beat&#45;view/src/beat&#45;bar/beat&#45;bar&#45;view.ts</title>
<path fill="none" stroke="#000000" stroke-width="2" stroke-opacity="0.200000" d="M489.61,-375C502.67,-375 518.12,-375 532.61,-375"/>
<polygon fill="#000000" fill-opacity="0.200000" stroke="#000000" stroke-width="2" stroke-opacity="0.200000" points="532.75,-377.1 538.75,-375 532.75,-372.9 532.75,-377.1"/>
</g>
<!-- packages/UI/synth/dist/index.js -->
<g id="node15" class="node">
<title>packages/UI/synth/dist/index.js</title>
<g id="a_node15"><a xlink:href="packages/UI/synth/dist/index.js" xlink:title="index.js">
<polygon fill="#ffffcc" stroke="black" points="610,-530 608.5,-532 598,-532 596.5,-530 556,-530 556,-512 610,-512 610,-530"/>
<text text-anchor="start" x="565.5" y="-518.8" font-family="Helvetica,sans-Serif" font-size="9.00">index.js</text>
</a>
</g>
</g>
<!-- packages/UI/piano&#45;roll/beat&#45;view/src/beat&#45;bar/beat&#45;bar.ts&#45;&gt;packages/UI/synth/dist/index.js -->
<g id="edge16" class="edge">
<title>packages/UI/piano&#45;roll/beat&#45;view/src/beat&#45;bar/beat&#45;bar.ts&#45;&gt;packages/UI/synth/dist/index.js</title>
<path fill="none" stroke="#000000" stroke-width="2" stroke-opacity="0.200000" d="M465.76,-384.13C486.81,-408.92 545.11,-477.57 570.23,-507.15"/>
<polygon fill="#000000" fill-opacity="0.200000" stroke="#000000" stroke-width="2" stroke-opacity="0.200000" points="568.76,-508.66 574.25,-511.87 571.96,-505.94 568.76,-508.66"/>
</g>
<!-- packages/UI/view&#45;parameters/dist/index.js -->
<g id="node16" class="node">
<title>packages/UI/view&#45;parameters/dist/index.js</title>
<g id="a_node16"><a xlink:href="packages/UI/view-parameters/dist/index.js" xlink:title="index.js">
<polygon fill="#ffffcc" stroke="black" points="610,-186 608.5,-188 598,-188 596.5,-186 556,-186 556,-168 610,-168 610,-186"/>
<text text-anchor="start" x="565.5" y="-174.8" font-family="Helvetica,sans-Serif" font-size="9.00">index.js</text>
</a>
</g>
</g>
<!-- packages/UI/piano&#45;roll/beat&#45;view/src/beat&#45;bar/beat&#45;bar.ts&#45;&gt;packages/UI/view&#45;parameters/dist/index.js -->
<g id="edge19" class="edge">
<title>packages/UI/piano&#45;roll/beat&#45;view/src/beat&#45;bar/beat&#45;bar.ts&#45;&gt;packages/UI/view&#45;parameters/dist/index.js</title>
<path fill="none" stroke="#000000" stroke-width="2" stroke-opacity="0.200000" d="M469.36,-365.92C482.69,-355.25 503,-339 503,-339 503,-339 532,-267 532,-267 532,-267 559.71,-217.12 573.87,-191.63"/>
<polygon fill="#000000" fill-opacity="0.200000" stroke="#000000" stroke-width="2" stroke-opacity="0.200000" points="575.76,-192.56 576.84,-186.29 572.09,-190.52 575.76,-192.56"/>
</g>
<!-- packages/UI/piano&#45;roll/beat&#45;view/src/requirement/beat&#45;bar.ts -->
<g id="node18" class="node">
<title>packages/UI/piano&#45;roll/beat&#45;view/src/requirement/beat&#45;bar.ts</title>
<g id="a_node18"><a xlink:href="packages/UI/piano-roll/beat-view/src/requirement/beat-bar.ts" xlink:title="beat&#45;bar.ts">
<path fill="#ddfeff" stroke="black" d="M738.5,-310C738.5,-310 685.5,-310 685.5,-310 682.5,-310 679.5,-307 679.5,-304 679.5,-304 679.5,-298 679.5,-298 679.5,-295 682.5,-292 685.5,-292 685.5,-292 738.5,-292 738.5,-292 741.5,-292 744.5,-295 744.5,-298 744.5,-298 744.5,-304 744.5,-304 744.5,-307 741.5,-310 738.5,-310"/>
<text text-anchor="start" x="687.5" y="-298.8" font-family="Helvetica,sans-Serif" font-size="9.00">beat&#45;bar.ts</text>
</a>
</g>
</g>
<!-- packages/UI/piano&#45;roll/beat&#45;view/src/requirement/beat&#45;bar&#45;series.ts&#45;&gt;packages/UI/piano&#45;roll/beat&#45;view/src/requirement/beat&#45;bar.ts -->
<g id="edge25" class="edge">
<title>packages/UI/piano&#45;roll/beat&#45;view/src/requirement/beat&#45;bar&#45;series.ts&#45;&gt;packages/UI/piano&#45;roll/beat&#45;view/src/requirement/beat&#45;bar.ts</title>
<path fill="none" stroke="#000000" stroke-width="2" stroke-opacity="0.200000" d="M630.21,-301C644.35,-301 659.74,-301 673.25,-301"/>
<polygon fill="#000000" fill-opacity="0.200000" stroke="#000000" stroke-width="2" stroke-opacity="0.200000" points="673.32,-303.1 679.32,-301 673.32,-298.9 673.32,-303.1"/>
</g>
<!-- packages/UI/piano&#45;roll/beat&#45;view/src/requirement/beat&#45;bar.ts&#45;&gt;packages/UI/controllers/dist/index.js -->
<g id="edge26" class="edge">
<title>packages/UI/piano&#45;roll/beat&#45;view/src/requirement/beat&#45;bar.ts&#45;&gt;packages/UI/controllers/dist/index.js</title>
<path fill="none" stroke="#000000" stroke-width="2" stroke-opacity="0.200000" d="M744.79,-301C772.34,-301 812.03,-301 839.72,-301"/>
<polygon fill="#000000" fill-opacity="0.200000" stroke="#000000" stroke-width="2" stroke-opacity="0.200000" points="839.79,-303.1 845.79,-301 839.79,-298.9 839.79,-303.1"/>
</g>
<!-- packages/UI/piano&#45;roll/beat&#45;view/src/requirement/beat&#45;bar.ts&#45;&gt;packages/UI/view/dist/index.js -->
<g id="edge27" class="edge">
<title>packages/UI/piano&#45;roll/beat&#45;view/src/requirement/beat&#45;bar.ts&#45;&gt;packages/UI/view/dist/index.js</title>
<path fill="none" stroke="#000000" stroke-width="2" stroke-opacity="0.200000" d="M730.93,-310.08C754.23,-321.88 792,-341 792,-341 792,-341 830.09,-367.19 853.7,-383.42"/>
<polygon fill="#000000" fill-opacity="0.200000" stroke="#000000" stroke-width="2" stroke-opacity="0.200000" points="852.66,-385.25 858.79,-386.92 855.04,-381.79 852.66,-385.25"/>
</g>
</g>
</svg>
