<?xml version="1.0" encoding="UTF-8" standalone="no"?>
<!DOCTYPE svg PUBLIC "-//W3C//DTD SVG 1.1//EN"
 "http://www.w3.org/Graphics/SVG/1.1/DTD/svg11.dtd">
<!-- Generated by graphviz version 2.43.0 (0)
 -->
<!-- Title: dependency&#45;cruiser output Pages: 1 -->
<svg width="1009pt" height="980pt"
 viewBox="0.00 0.00 1009.00 980.00" xmlns="http://www.w3.org/2000/svg" xmlns:xlink="http://www.w3.org/1999/xlink">
<g id="graph0" class="graph" transform="scale(1 1) rotate(0) translate(4 976)">
<title>dependency&#45;cruiser output</title>
<polygon fill="white" stroke="transparent" points="-4,4 -4,-976 1005,-976 1005,4 -4,4"/>
<g id="clust1" class="cluster">
<title>cluster_packages</title>
<path fill="#ffffff" stroke="black" stroke-width="2" d="M20,-8C20,-8 987,-8 987,-8 993,-8 999,-14 999,-20 999,-20 999,-952 999,-952 999,-958 993,-964 987,-964 987,-964 20,-964 20,-964 14,-964 8,-958 8,-952 8,-952 8,-20 8,-20 8,-14 14,-8 20,-8"/>
<text text-anchor="middle" x="503.5" y="-952.8" font-family="Helvetica,sans-Serif" font-weight="bold" font-size="9.00">packages</text>
</g>
<g id="clust2" class="cluster">
<title>cluster_packages/UI</title>
<path fill="#ffffff" stroke="black" stroke-width="2" d="M28,-144C28,-144 965,-144 965,-144 971,-144 977,-150 977,-156 977,-156 977,-636 977,-636 977,-642 971,-648 965,-648 965,-648 28,-648 28,-648 22,-648 16,-642 16,-636 16,-636 16,-156 16,-156 16,-150 22,-144 28,-144"/>
<text text-anchor="middle" x="496.5" y="-636.8" font-family="Helvetica,sans-Serif" font-weight="bold" font-size="9.00">UI</text>
</g>
<g id="clust3" class="cluster">
<title>cluster_packages/UI/controllers</title>
<path fill="#ffffff" stroke="black" stroke-width="2" d="M592,-526C592,-526 654,-526 654,-526 660,-526 666,-532 666,-538 666,-538 666,-600 666,-600 666,-606 660,-612 654,-612 654,-612 592,-612 592,-612 586,-612 580,-606 580,-600 580,-600 580,-538 580,-538 580,-532 586,-526 592,-526"/>
<text text-anchor="middle" x="623" y="-600.8" font-family="Helvetica,sans-Serif" font-weight="bold" font-size="9.00">controllers</text>
</g>
<g id="clust4" class="cluster">
<title>cluster_packages/UI/controllers/dist</title>
<path fill="#ffffff" stroke="black" stroke-width="2" d="M600,-534C600,-534 646,-534 646,-534 652,-534 658,-540 658,-546 658,-546 658,-574 658,-574 658,-580 652,-586 646,-586 646,-586 600,-586 600,-586 594,-586 588,-580 588,-574 588,-574 588,-546 588,-546 588,-540 594,-534 600,-534"/>
<text text-anchor="middle" x="623" y="-574.8" font-family="Helvetica,sans-Serif" font-weight="bold" font-size="9.00">dist</text>
</g>
<g id="clust5" class="cluster">
<title>cluster_packages/UI/piano&#45;roll</title>
<path fill="#ffffff" stroke="black" stroke-width="2" d="M36,-350C36,-350 820,-350 820,-350 826,-350 832,-356 832,-362 832,-362 832,-506 832,-506 832,-512 826,-518 820,-518 820,-518 36,-518 36,-518 30,-518 24,-512 24,-506 24,-506 24,-362 24,-362 24,-356 30,-350 36,-350"/>
<text text-anchor="middle" x="428" y="-506.8" font-family="Helvetica,sans-Serif" font-weight="bold" font-size="9.00">piano&#45;roll</text>
</g>
<g id="clust6" class="cluster">
<title>cluster_packages/UI/piano&#45;roll/beat&#45;view</title>
<path fill="#ffffff" stroke="black" stroke-width="2" d="M44,-358C44,-358 812,-358 812,-358 818,-358 824,-364 824,-370 824,-370 824,-480 824,-480 824,-486 818,-492 812,-492 812,-492 44,-492 44,-492 38,-492 32,-486 32,-480 32,-480 32,-370 32,-370 32,-364 38,-358 44,-358"/>
<text text-anchor="middle" x="428" y="-480.8" font-family="Helvetica,sans-Serif" font-weight="bold" font-size="9.00">beat&#45;view</text>
</g>
<g id="clust7" class="cluster">
<title>cluster_packages/UI/piano&#45;roll/beat&#45;view/src</title>
<path fill="#ffffff" stroke="black" stroke-width="2" d="M133,-366C133,-366 804,-366 804,-366 810,-366 816,-372 816,-378 816,-378 816,-454 816,-454 816,-460 810,-466 804,-466 804,-466 133,-466 133,-466 127,-466 121,-460 121,-454 121,-454 121,-378 121,-378 121,-372 127,-366 133,-366"/>
<text text-anchor="middle" x="468.5" y="-454.8" font-family="Helvetica,sans-Serif" font-weight="bold" font-size="9.00">src</text>
</g>
<g id="clust8" class="cluster">
<title>cluster_packages/UI/piano&#45;roll/beat&#45;view/src/beat&#45;bar</title>
<path fill="#ffffff" stroke="black" stroke-width="2" d="M415,-374C415,-374 796,-374 796,-374 802,-374 808,-380 808,-386 808,-386 808,-428 808,-428 808,-434 802,-440 796,-440 796,-440 415,-440 415,-440 409,-440 403,-434 403,-428 403,-428 403,-386 403,-386 403,-380 409,-374 415,-374"/>
<text text-anchor="middle" x="605.5" y="-428.8" font-family="Helvetica,sans-Serif" font-weight="bold" font-size="9.00">beat&#45;bar</text>
</g>
<g id="clust9" class="cluster">
<title>cluster_packages/UI/synth</title>
<path fill="#ffffff" stroke="black" stroke-width="2" d="M592,-162C592,-162 654,-162 654,-162 660,-162 666,-168 666,-174 666,-174 666,-236 666,-236 666,-242 660,-248 654,-248 654,-248 592,-248 592,-248 586,-248 580,-242 580,-236 580,-236 580,-174 580,-174 580,-168 586,-162 592,-162"/>
<text text-anchor="middle" x="623" y="-236.8" font-family="Helvetica,sans-Serif" font-weight="bold" font-size="9.00">synth</text>
</g>
<g id="clust10" class="cluster">
<title>cluster_packages/UI/synth/dist</title>
<path fill="#ffffff" stroke="black" stroke-width="2" d="M600,-170C600,-170 646,-170 646,-170 652,-170 658,-176 658,-182 658,-182 658,-210 658,-210 658,-216 652,-222 646,-222 646,-222 600,-222 600,-222 594,-222 588,-216 588,-210 588,-210 588,-182 588,-182 588,-176 594,-170 600,-170"/>
<text text-anchor="middle" x="623" y="-210.8" font-family="Helvetica,sans-Serif" font-weight="bold" font-size="9.00">dist</text>
</g>
<g id="clust11" class="cluster">
<title>cluster_packages/UI/view&#45;parameters</title>
<path fill="#ffffff" stroke="black" stroke-width="2" d="M584,-256C584,-256 663,-256 663,-256 669,-256 675,-262 675,-268 675,-268 675,-330 675,-330 675,-336 669,-342 663,-342 663,-342 584,-342 584,-342 578,-342 572,-336 572,-330 572,-330 572,-268 572,-268 572,-262 578,-256 584,-256"/>
<text text-anchor="middle" x="623.5" y="-330.8" font-family="Helvetica,sans-Serif" font-weight="bold" font-size="9.00">view&#45;parameters</text>
</g>
<g id="clust12" class="cluster">
<title>cluster_packages/UI/view&#45;parameters/dist</title>
<path fill="#ffffff" stroke="black" stroke-width="2" d="M600,-264C600,-264 646,-264 646,-264 652,-264 658,-270 658,-276 658,-276 658,-304 658,-304 658,-310 652,-316 646,-316 646,-316 600,-316 600,-316 594,-316 588,-310 588,-304 588,-304 588,-276 588,-276 588,-270 594,-264 600,-264"/>
<text text-anchor="middle" x="623" y="-304.8" font-family="Helvetica,sans-Serif" font-weight="bold" font-size="9.00">dist</text>
</g>
<g id="clust13" class="cluster">
<title>cluster_packages/UI/view</title>
<path fill="#ffffff" stroke="black" stroke-width="2" d="M895,-377C895,-377 957,-377 957,-377 963,-377 969,-383 969,-389 969,-389 969,-451 969,-451 969,-457 963,-463 957,-463 957,-463 895,-463 895,-463 889,-463 883,-457 883,-451 883,-451 883,-389 883,-389 883,-383 889,-377 895,-377"/>
<text text-anchor="middle" x="926" y="-451.8" font-family="Helvetica,sans-Serif" font-weight="bold" font-size="9.00">view</text>
</g>
<g id="clust14" class="cluster">
<title>cluster_packages/UI/view/dist</title>
<path fill="#ffffff" stroke="black" stroke-width="2" d="M903,-385C903,-385 949,-385 949,-385 955,-385 961,-391 961,-397 961,-397 961,-425 961,-425 961,-431 955,-437 949,-437 949,-437 903,-437 903,-437 897,-437 891,-431 891,-425 891,-425 891,-397 891,-397 891,-391 897,-385 903,-385"/>
<text text-anchor="middle" x="926" y="-425.8" font-family="Helvetica,sans-Serif" font-weight="bold" font-size="9.00">dist</text>
</g>
<g id="clust15" class="cluster">
<title>cluster_packages/music&#45;structure</title>
<path fill="#ffffff" stroke="black" stroke-width="2" d="M873,-656C873,-656 979,-656 979,-656 985,-656 991,-662 991,-668 991,-668 991,-926 991,-926 991,-932 985,-938 979,-938 979,-938 873,-938 873,-938 867,-938 861,-932 861,-926 861,-926 861,-668 861,-668 861,-662 867,-656 873,-656"/>
<text text-anchor="middle" x="926" y="-926.8" font-family="Helvetica,sans-Serif" font-weight="bold" font-size="9.00">music&#45;structure</text>
</g>
<g id="clust16" class="cluster">
<title>cluster_packages/music&#45;structure/beat</title>
<path fill="#ffffff" stroke="black" stroke-width="2" d="M881,-664C881,-664 971,-664 971,-664 977,-664 983,-670 983,-676 983,-676 983,-772 983,-772 983,-778 977,-784 971,-784 971,-784 881,-784 881,-784 875,-784 869,-778 869,-772 869,-772 869,-676 869,-676 869,-670 875,-664 881,-664"/>
<text text-anchor="middle" x="926" y="-772.8" font-family="Helvetica,sans-Serif" font-weight="bold" font-size="9.00">beat</text>
</g>
<g id="clust17" class="cluster">
<title>cluster_packages/music&#45;structure/beat/beat&#45;estimation</title>
<path fill="#ffffff" stroke="black" stroke-width="2" d="M889,-672C889,-672 963,-672 963,-672 969,-672 975,-678 975,-684 975,-684 975,-746 975,-746 975,-752 969,-758 963,-758 963,-758 889,-758 889,-758 883,-758 877,-752 877,-746 877,-746 877,-684 877,-684 877,-678 883,-672 889,-672"/>
<text text-anchor="middle" x="926" y="-746.8" font-family="Helvetica,sans-Serif" font-weight="bold" font-size="9.00">beat&#45;estimation</text>
</g>
<g id="clust18" class="cluster">
<title>cluster_packages/music&#45;structure/beat/beat&#45;estimation/dist</title>
<path fill="#ffffff" stroke="black" stroke-width="2" d="M903,-680C903,-680 949,-680 949,-680 955,-680 961,-686 961,-692 961,-692 961,-720 961,-720 961,-726 955,-732 949,-732 949,-732 903,-732 903,-732 897,-732 891,-726 891,-720 891,-720 891,-692 891,-692 891,-686 897,-680 903,-680"/>
<text text-anchor="middle" x="926" y="-720.8" font-family="Helvetica,sans-Serif" font-weight="bold" font-size="9.00">dist</text>
</g>
<g id="clust19" class="cluster">
<title>cluster_packages/music&#45;structure/melody</title>
<path fill="#ffffff" stroke="black" stroke-width="2" d="M882,-792C882,-792 971,-792 971,-792 977,-792 983,-798 983,-804 983,-804 983,-900 983,-900 983,-906 977,-912 971,-912 971,-912 882,-912 882,-912 876,-912 870,-906 870,-900 870,-900 870,-804 870,-804 870,-798 876,-792 882,-792"/>
<text text-anchor="middle" x="926.5" y="-900.8" font-family="Helvetica,sans-Serif" font-weight="bold" font-size="9.00">melody</text>
</g>
<g id="clust20" class="cluster">
<title>cluster_packages/music&#45;structure/melody/melody&#45;analyze</title>
<path fill="#ffffff" stroke="black" stroke-width="2" d="M890,-800C890,-800 963,-800 963,-800 969,-800 975,-806 975,-812 975,-812 975,-874 975,-874 975,-880 969,-886 963,-886 963,-886 890,-886 890,-886 884,-886 878,-880 878,-874 878,-874 878,-812 878,-812 878,-806 884,-800 890,-800"/>
<text text-anchor="middle" x="926.5" y="-874.8" font-family="Helvetica,sans-Serif" font-weight="bold" font-size="9.00">melody&#45;analyze</text>
</g>
<g id="clust21" class="cluster">
<title>cluster_packages/music&#45;structure/melody/melody&#45;analyze/dist</title>
<path fill="#ffffff" stroke="black" stroke-width="2" d="M903,-808C903,-808 949,-808 949,-808 955,-808 961,-814 961,-820 961,-820 961,-848 961,-848 961,-854 955,-860 949,-860 949,-860 903,-860 903,-860 897,-860 891,-854 891,-848 891,-848 891,-820 891,-820 891,-814 897,-808 903,-808"/>
<text text-anchor="middle" x="926" y="-848.8" font-family="Helvetica,sans-Serif" font-weight="bold" font-size="9.00">dist</text>
</g>
<g id="clust22" class="cluster">
<title>cluster_packages/util</title>
<path fill="#ffffff" stroke="black" stroke-width="2" d="M887,-16C887,-16 965,-16 965,-16 971,-16 977,-22 977,-28 977,-28 977,-124 977,-124 977,-130 971,-136 965,-136 965,-136 887,-136 887,-136 881,-136 875,-130 875,-124 875,-124 875,-28 875,-28 875,-22 881,-16 887,-16"/>
<text text-anchor="middle" x="926" y="-124.8" font-family="Helvetica,sans-Serif" font-weight="bold" font-size="9.00">util</text>
</g>
<g id="clust23" class="cluster">
<title>cluster_packages/util/time&#45;and</title>
<path fill="#ffffff" stroke="black" stroke-width="2" d="M895,-24C895,-24 957,-24 957,-24 963,-24 969,-30 969,-36 969,-36 969,-98 969,-98 969,-104 963,-110 957,-110 957,-110 895,-110 895,-110 889,-110 883,-104 883,-98 883,-98 883,-36 883,-36 883,-30 889,-24 895,-24"/>
<text text-anchor="middle" x="926" y="-98.8" font-family="Helvetica,sans-Serif" font-weight="bold" font-size="9.00">time&#45;and</text>
</g>
<g id="clust24" class="cluster">
<title>cluster_packages/util/time&#45;and/dist</title>
<path fill="#ffffff" stroke="black" stroke-width="2" d="M903,-32C903,-32 949,-32 949,-32 955,-32 961,-38 961,-44 961,-44 961,-72 961,-72 961,-78 955,-84 949,-84 949,-84 903,-84 903,-84 897,-84 891,-78 891,-72 891,-72 891,-44 891,-44 891,-38 897,-32 903,-32"/>
<text text-anchor="middle" x="926" y="-72.8" font-family="Helvetica,sans-Serif" font-weight="bold" font-size="9.00">dist</text>
</g>
<!-- packages/UI/controllers/dist/index.js -->
<g id="node1" class="node">
<title>packages/UI/controllers/dist/index.js</title>
<g id="a_node1"><a xlink:href="packages/UI/controllers/dist/index.js" xlink:title="index.js">
<polygon fill="#ffffcc" stroke="black" points="650,-560 648.5,-562 638,-562 636.5,-560 596,-560 596,-542 650,-542 650,-560"/>
<text text-anchor="start" x="605.5" y="-548.8" font-family="Helvetica,sans-Serif" font-size="9.00">index.js</text>
</a>
</g>
</g>
<!-- packages/UI/piano&#45;roll/beat&#45;view/index.test.ts -->
<g id="node2" class="node">
<title>packages/UI/piano&#45;roll/beat&#45;view/index.test.ts</title>
<g id="a_node2"><a xlink:href="packages/UI/piano-roll/beat-view/index.test.ts" xlink:title="no&#45;orphans">
<path fill="#ccffcc" stroke="orange" d="M107,-461C107,-461 46,-461 46,-461 43,-461 40,-458 40,-455 40,-455 40,-449 40,-449 40,-446 43,-443 46,-443 46,-443 107,-443 107,-443 110,-443 113,-446 113,-449 113,-449 113,-455 113,-455 113,-458 110,-461 107,-461"/>
<text text-anchor="start" x="48" y="-449.8" font-family="Helvetica,sans-Serif" font-size="9.00" fill="orange">index.test.ts</text>
</a>
</g>
</g>
<!-- packages/UI/piano&#45;roll/beat&#45;view/index.ts -->
<g id="node3" class="node">
<title>packages/UI/piano&#45;roll/beat&#45;view/index.ts</title>
<g id="a_node3"><a xlink:href="packages/UI/piano-roll/beat-view/index.ts" xlink:title="index.ts">
<path fill="#ddfeff" stroke="black" d="M97.5,-422C97.5,-422 55.5,-422 55.5,-422 52.5,-422 49.5,-419 49.5,-416 49.5,-416 49.5,-410 49.5,-410 49.5,-407 52.5,-404 55.5,-404 55.5,-404 97.5,-404 97.5,-404 100.5,-404 103.5,-407 103.5,-410 103.5,-410 103.5,-416 103.5,-416 103.5,-419 100.5,-422 97.5,-422"/>
<text text-anchor="start" x="58" y="-410.8" font-family="Helvetica,sans-Serif" font-size="9.00">index.ts</text>
</a>
</g>
</g>
<!-- packages/UI/piano&#45;roll/beat&#45;view/src/index.ts -->
<g id="node4" class="node">
<title>packages/UI/piano&#45;roll/beat&#45;view/src/index.ts</title>
<g id="a_node4"><a xlink:href="packages/UI/piano-roll/beat-view/src/index.ts" xlink:title="index.ts">
<path fill="#ddfeff" stroke="black" d="M177,-422C177,-422 135,-422 135,-422 132,-422 129,-419 129,-416 129,-416 129,-410 129,-410 129,-407 132,-404 135,-404 135,-404 177,-404 177,-404 180,-404 183,-407 183,-410 183,-410 183,-416 183,-416 183,-419 180,-422 177,-422"/>
<text text-anchor="start" x="137.5" y="-410.8" font-family="Helvetica,sans-Serif" font-size="9.00">index.ts</text>
</a>
</g>
</g>
<!-- packages/UI/piano&#45;roll/beat&#45;view/index.ts&#45;&gt;packages/UI/piano&#45;roll/beat&#45;view/src/index.ts -->
<g id="edge1" class="edge">
<title>packages/UI/piano&#45;roll/beat&#45;view/index.ts&#45;&gt;packages/UI/piano&#45;roll/beat&#45;view/src/index.ts</title>
<path fill="none" stroke="#000000" stroke-width="2" stroke-opacity="0.200000" d="M103.74,-413C109.8,-413 116.32,-413 122.6,-413"/>
<polygon fill="#000000" fill-opacity="0.200000" stroke="#000000" stroke-width="2" stroke-opacity="0.200000" points="128.79,-415.1 122.79,-413 128.79,-410.9 128.79,-415.1"/>
</g>
<!-- packages/UI/piano&#45;roll/beat&#45;view/src/beat&#45;bar&#45;series.ts -->
<g id="node5" class="node">
<title>packages/UI/piano&#45;roll/beat&#45;view/src/beat&#45;bar&#45;series.ts</title>
<g id="a_node5"><a xlink:href="packages/UI/piano-roll/beat-view/src/beat-bar-series.ts" xlink:title="beat&#45;bar&#45;series.ts">
<path fill="#ddfeff" stroke="black" d="M389,-440C389,-440 307,-440 307,-440 304,-440 301,-437 301,-434 301,-434 301,-428 301,-428 301,-425 304,-422 307,-422 307,-422 389,-422 389,-422 392,-422 395,-425 395,-428 395,-428 395,-434 395,-434 395,-437 392,-440 389,-440"/>
<text text-anchor="start" x="309" y="-428.8" font-family="Helvetica,sans-Serif" font-size="9.00">beat&#45;bar&#45;series.ts</text>
</a>
</g>
</g>
<!-- packages/UI/piano&#45;roll/beat&#45;view/src/index.ts&#45;&gt;packages/UI/piano&#45;roll/beat&#45;view/src/beat&#45;bar&#45;series.ts -->
<g id="edge23" class="edge">
<title>packages/UI/piano&#45;roll/beat&#45;view/src/index.ts&#45;&gt;packages/UI/piano&#45;roll/beat&#45;view/src/beat&#45;bar&#45;series.ts</title>
<path fill="none" stroke="#000000" stroke-width="2" stroke-opacity="0.200000" d="M183.24,-411.87C209.78,-411.13 251.94,-411.07 288,-416 295.44,-417.02 303.3,-418.63 310.77,-420.42"/>
<polygon fill="#000000" fill-opacity="0.200000" stroke="#000000" stroke-width="2" stroke-opacity="0.200000" points="316.43,-424 311.12,-420.51 317.45,-419.93 316.43,-424"/>
</g>
<!-- packages/UI/piano&#45;roll/beat&#45;view/src/beat&#45;elements.ts -->
<g id="node16" class="node">
<title>packages/UI/piano&#45;roll/beat&#45;view/src/beat&#45;elements.ts</title>
<g id="a_node16"><a xlink:href="packages/UI/piano-roll/beat-view/src/beat-elements.ts" xlink:title="beat&#45;elements.ts">
<path fill="#ddfeff" stroke="black" d="M282,-440C282,-440 202,-440 202,-440 199,-440 196,-437 196,-434 196,-434 196,-428 196,-428 196,-425 199,-422 202,-422 202,-422 282,-422 282,-422 285,-422 288,-425 288,-428 288,-428 288,-434 288,-434 288,-437 285,-440 282,-440"/>
<text text-anchor="start" x="204" y="-428.8" font-family="Helvetica,sans-Serif" font-size="9.00">beat&#45;elements.ts</text>
</a>
</g>
</g>
<!-- packages/UI/piano&#45;roll/beat&#45;view/src/index.ts&#45;&gt;packages/UI/piano&#45;roll/beat&#45;view/src/beat&#45;elements.ts -->
<g id="edge24" class="edge">
<title>packages/UI/piano&#45;roll/beat&#45;view/src/index.ts&#45;&gt;packages/UI/piano&#45;roll/beat&#45;view/src/beat&#45;elements.ts</title>
<path fill="none" stroke="#000000" stroke-width="2" stroke-opacity="0.200000" d="M183.12,-418.6C186.25,-419.27 189.52,-419.97 192.84,-420.68"/>
<polygon fill="#000000" fill-opacity="0.200000" stroke="#000000" stroke-width="2" stroke-opacity="0.200000" points="198.41,-424.02 192.99,-420.71 199.29,-419.92 198.41,-424.02"/>
</g>
<!-- packages/UI/piano&#45;roll/beat&#45;view/src/beat&#45;bar/index.ts -->
<g id="node6" class="node">
<title>packages/UI/piano&#45;roll/beat&#45;view/src/beat&#45;bar/index.ts</title>
<g id="a_node6"><a xlink:href="packages/UI/piano-roll/beat-view/src/beat-bar/index.ts" xlink:title="index.ts">
<path fill="#ddfeff" stroke="black" d="M459,-407C459,-407 417,-407 417,-407 414,-407 411,-404 411,-401 411,-401 411,-395 411,-395 411,-392 414,-389 417,-389 417,-389 459,-389 459,-389 462,-389 465,-392 465,-395 465,-395 465,-401 465,-401 465,-404 462,-407 459,-407"/>
<text text-anchor="start" x="419.5" y="-395.8" font-family="Helvetica,sans-Serif" font-size="9.00">index.ts</text>
</a>
</g>
</g>
<!-- packages/UI/piano&#45;roll/beat&#45;view/src/beat&#45;bar&#45;series.ts&#45;&gt;packages/UI/piano&#45;roll/beat&#45;view/src/beat&#45;bar/index.ts -->
<g id="edge2" class="edge">
<title>packages/UI/piano&#45;roll/beat&#45;view/src/beat&#45;bar&#45;series.ts&#45;&gt;packages/UI/piano&#45;roll/beat&#45;view/src/beat&#45;bar/index.ts</title>
<path fill="none" stroke="#000000" stroke-width="2" stroke-opacity="0.200000" d="M373.05,-421.98C383.62,-418.02 396.14,-413.32 407.29,-409.14"/>
<polygon fill="#000000" fill-opacity="0.200000" stroke="#000000" stroke-width="2" stroke-opacity="0.200000" points="408.1,-411.08 412.98,-407.01 406.63,-407.15 408.1,-411.08"/>
</g>
<!-- packages/music&#45;structure/beat/beat&#45;estimation/dist/index.js -->
<g id="node7" class="node">
<title>packages/music&#45;structure/beat/beat&#45;estimation/dist/index.js</title>
<g id="a_node7"><a xlink:href="packages/music-structure/beat/beat-estimation/dist/index.js" xlink:title="index.js">
<polygon fill="#ffffcc" stroke="black" points="953,-706 951.5,-708 941,-708 939.5,-706 899,-706 899,-688 953,-688 953,-706"/>
<text text-anchor="start" x="908.5" y="-694.8" font-family="Helvetica,sans-Serif" font-size="9.00">index.js</text>
</a>
</g>
</g>
<!-- packages/UI/piano&#45;roll/beat&#45;view/src/beat&#45;bar&#45;series.ts&#45;&gt;packages/music&#45;structure/beat/beat&#45;estimation/dist/index.js -->
<g id="edge3" class="edge">
<title>packages/UI/piano&#45;roll/beat&#45;view/src/beat&#45;bar&#45;series.ts&#45;&gt;packages/music&#45;structure/beat/beat&#45;estimation/dist/index.js</title>
<path fill="none" stroke="#000000" stroke-width="2" stroke-opacity="0.200000" d="M350.17,-440.3C353.8,-465.88 366.87,-538.45 403,-585 437.88,-629.94 452.61,-656 509.5,-656 509.5,-656 509.5,-656 624,-656 716.57,-656 740.96,-650.2 832,-667 854.18,-671.09 878.41,-679.03 896.58,-685.71"/>
<polygon fill="#000000" fill-opacity="0.200000" stroke="#000000" stroke-width="2" stroke-opacity="0.200000" points="896.14,-687.79 902.49,-687.92 897.61,-683.85 896.14,-687.79"/>
</g>
<!-- packages/music&#45;structure/melody/melody&#45;analyze/dist/index.js -->
<g id="node8" class="node">
<title>packages/music&#45;structure/melody/melody&#45;analyze/dist/index.js</title>
<g id="a_node8"><a xlink:href="packages/music-structure/melody/melody-analyze/dist/index.js" xlink:title="index.js">
<polygon fill="#ffffcc" stroke="black" points="953,-834 951.5,-836 941,-836 939.5,-834 899,-834 899,-816 953,-816 953,-834"/>
<text text-anchor="start" x="908.5" y="-822.8" font-family="Helvetica,sans-Serif" font-size="9.00">index.js</text>
</a>
</g>
</g>
<!-- packages/UI/piano&#45;roll/beat&#45;view/src/beat&#45;bar&#45;series.ts&#45;&gt;packages/music&#45;structure/melody/melody&#45;analyze/dist/index.js -->
<g id="edge4" class="edge">
<title>packages/UI/piano&#45;roll/beat&#45;view/src/beat&#45;bar&#45;series.ts&#45;&gt;packages/music&#45;structure/melody/melody&#45;analyze/dist/index.js</title>
<path fill="none" stroke="#000000" stroke-width="2" stroke-opacity="0.200000" d="M349.13,-440.04C350.01,-469.45 356.51,-563.68 403,-620 436.41,-660.47 457.02,-671 509.5,-671 509.5,-671 509.5,-671 624,-671 746.97,-671 870.24,-774.12 910.98,-811.59"/>
<polygon fill="#000000" fill-opacity="0.200000" stroke="#000000" stroke-width="2" stroke-opacity="0.200000" points="909.71,-813.28 915.53,-815.83 912.57,-810.2 909.71,-813.28"/>
</g>
<!-- packages/UI/view/dist/index.js -->
<g id="node9" class="node">
<title>packages/UI/view/dist/index.js</title>
<g id="a_node9"><a xlink:href="packages/UI/view/dist/index.js" xlink:title="index.js">
<polygon fill="#ffffcc" stroke="black" points="953,-411 951.5,-413 941,-413 939.5,-411 899,-411 899,-393 953,-393 953,-411"/>
<text text-anchor="start" x="908.5" y="-399.8" font-family="Helvetica,sans-Serif" font-size="9.00">index.js</text>
</a>
</g>
</g>
<!-- packages/UI/piano&#45;roll/beat&#45;view/src/beat&#45;bar&#45;series.ts&#45;&gt;packages/UI/view/dist/index.js -->
<g id="edge5" class="edge">
<title>packages/UI/piano&#45;roll/beat&#45;view/src/beat&#45;bar&#45;series.ts&#45;&gt;packages/UI/view/dist/index.js</title>
<path fill="none" stroke="#000000" stroke-width="2" stroke-opacity="0.200000" d="M351.67,-440.16C363.34,-478.12 413.64,-621 509.5,-621 509.5,-621 509.5,-621 624,-621 763.7,-621 882.09,-464.85 915.55,-416.26"/>
<polygon fill="#000000" fill-opacity="0.200000" stroke="#000000" stroke-width="2" stroke-opacity="0.200000" points="917.4,-417.27 919.04,-411.13 913.93,-414.91 917.4,-417.27"/>
</g>
<!-- packages/UI/piano&#45;roll/beat&#45;view/src/beat&#45;bar/beat&#45;bar.ts -->
<g id="node13" class="node">
<title>packages/UI/piano&#45;roll/beat&#45;view/src/beat&#45;bar/beat&#45;bar.ts</title>
<g id="a_node13"><a xlink:href="packages/UI/piano-roll/beat-view/src/beat-bar/beat-bar.ts" xlink:title="beat&#45;bar.ts">
<path fill="#ddfeff" stroke="black" d="M537,-400C537,-400 484,-400 484,-400 481,-400 478,-397 478,-394 478,-394 478,-388 478,-388 478,-385 481,-382 484,-382 484,-382 537,-382 537,-382 540,-382 543,-385 543,-388 543,-388 543,-394 543,-394 543,-397 540,-400 537,-400"/>
<text text-anchor="start" x="486" y="-388.8" font-family="Helvetica,sans-Serif" font-size="9.00">beat&#45;bar.ts</text>
</a>
</g>
</g>
<!-- packages/UI/piano&#45;roll/beat&#45;view/src/beat&#45;bar/index.ts&#45;&gt;packages/UI/piano&#45;roll/beat&#45;view/src/beat&#45;bar/beat&#45;bar.ts -->
<g id="edge19" class="edge">
<title>packages/UI/piano&#45;roll/beat&#45;view/src/beat&#45;bar/index.ts&#45;&gt;packages/UI/piano&#45;roll/beat&#45;view/src/beat&#45;bar/beat&#45;bar.ts</title>
<path fill="none" stroke="#000000" stroke-width="2" stroke-opacity="0.200000" d="M465.25,-395.39C467.29,-395.19 469.37,-394.98 471.46,-394.78"/>
<polygon fill="#000000" fill-opacity="0.200000" stroke="#000000" stroke-width="2" stroke-opacity="0.200000" points="477.95,-396.24 471.77,-394.75 477.54,-392.06 477.95,-396.24"/>
</g>
<!-- packages/UI/piano&#45;roll/beat&#45;view/src/beat&#45;bar/beat&#45;bar&#45;model.ts -->
<g id="node10" class="node">
<title>packages/UI/piano&#45;roll/beat&#45;view/src/beat&#45;bar/beat&#45;bar&#45;model.ts</title>
<g id="a_node10"><a xlink:href="packages/UI/piano-roll/beat-view/src/beat-bar/beat-bar-model.ts" xlink:title="beat&#45;bar&#45;model.ts">
<path fill="#ddfeff" stroke="black" d="M794,-400C794,-400 710,-400 710,-400 707,-400 704,-397 704,-394 704,-394 704,-388 704,-388 704,-385 707,-382 710,-382 710,-382 794,-382 794,-382 797,-382 800,-385 800,-388 800,-388 800,-394 800,-394 800,-397 797,-400 794,-400"/>
<text text-anchor="start" x="712" y="-388.8" font-family="Helvetica,sans-Serif" font-size="9.00">beat&#45;bar&#45;model.ts</text>
</a>
</g>
</g>
<!-- packages/UI/piano&#45;roll/beat&#45;view/src/beat&#45;bar/beat&#45;bar&#45;model.ts&#45;&gt;packages/music&#45;structure/beat/beat&#45;estimation/dist/index.js -->
<g id="edge6" class="edge">
<title>packages/UI/piano&#45;roll/beat&#45;view/src/beat&#45;bar/beat&#45;bar&#45;model.ts&#45;&gt;packages/music&#45;structure/beat/beat&#45;estimation/dist/index.js</title>
<path fill="none" stroke="#000000" stroke-width="2" stroke-opacity="0.200000" d="M758.15,-400.16C782.58,-443.62 886.89,-629.2 916.9,-682.58"/>
<polygon fill="#000000" fill-opacity="0.200000" stroke="#000000" stroke-width="2" stroke-opacity="0.200000" points="915.1,-683.68 919.87,-687.88 918.76,-681.62 915.1,-683.68"/>
</g>
<!-- packages/UI/piano&#45;roll/beat&#45;view/src/beat&#45;bar/beat&#45;bar&#45;model.ts&#45;&gt;packages/UI/view/dist/index.js -->
<g id="edge8" class="edge">
<title>packages/UI/piano&#45;roll/beat&#45;view/src/beat&#45;bar/beat&#45;bar&#45;model.ts&#45;&gt;packages/UI/view/dist/index.js</title>
<path fill="none" stroke="#000000" stroke-width="2" stroke-opacity="0.200000" d="M800.46,-394.03C829.73,-395.91 866.52,-398.26 892.5,-399.92"/>
<polygon fill="#000000" fill-opacity="0.200000" stroke="#000000" stroke-width="2" stroke-opacity="0.200000" points="892.41,-402.02 898.53,-400.31 892.67,-397.83 892.41,-402.02"/>
</g>
<!-- packages/util/time&#45;and/dist/index.js -->
<g id="node11" class="node">
<title>packages/util/time&#45;and/dist/index.js</title>
<g id="a_node11"><a xlink:href="packages/util/time-and/dist/index.js" xlink:title="index.js">
<polygon fill="#ffffcc" stroke="black" points="953,-58 951.5,-60 941,-60 939.5,-58 899,-58 899,-40 953,-40 953,-58"/>
<text text-anchor="start" x="908.5" y="-46.8" font-family="Helvetica,sans-Serif" font-size="9.00">index.js</text>
</a>
</g>
</g>
<!-- packages/UI/piano&#45;roll/beat&#45;view/src/beat&#45;bar/beat&#45;bar&#45;model.ts&#45;&gt;packages/util/time&#45;and/dist/index.js -->
<g id="edge7" class="edge">
<title>packages/UI/piano&#45;roll/beat&#45;view/src/beat&#45;bar/beat&#45;bar&#45;model.ts&#45;&gt;packages/util/time&#45;and/dist/index.js</title>
<path fill="none" stroke="#000000" stroke-width="2" stroke-opacity="0.200000" d="M757.6,-381.85C781.2,-334.92 888.73,-121.12 917.76,-63.4"/>
<polygon fill="#000000" fill-opacity="0.200000" stroke="#000000" stroke-width="2" stroke-opacity="0.200000" points="919.65,-64.32 920.47,-58.02 915.89,-62.43 919.65,-64.32"/>
</g>
<!-- packages/UI/piano&#45;roll/beat&#45;view/src/beat&#45;bar/beat&#45;bar&#45;view.ts -->
<g id="node12" class="node">
<title>packages/UI/piano&#45;roll/beat&#45;view/src/beat&#45;bar/beat&#45;bar&#45;view.ts</title>
<g id="a_node12"><a xlink:href="packages/UI/piano-roll/beat-view/src/beat-bar/beat-bar-view.ts" xlink:title="beat&#45;bar&#45;view.ts">
<path fill="#ddfeff" stroke="black" d="M661,-414C661,-414 585,-414 585,-414 582,-414 579,-411 579,-408 579,-408 579,-402 579,-402 579,-399 582,-396 585,-396 585,-396 661,-396 661,-396 664,-396 667,-399 667,-402 667,-402 667,-408 667,-408 667,-411 664,-414 661,-414"/>
<text text-anchor="start" x="587" y="-402.8" font-family="Helvetica,sans-Serif" font-size="9.00">beat&#45;bar&#45;view.ts</text>
</a>
</g>
</g>
<!-- packages/UI/piano&#45;roll/beat&#45;view/src/beat&#45;bar/beat&#45;bar&#45;view.ts&#45;&gt;packages/UI/view/dist/index.js -->
<g id="edge10" class="edge">
<title>packages/UI/piano&#45;roll/beat&#45;view/src/beat&#45;bar/beat&#45;bar&#45;view.ts&#45;&gt;packages/UI/view/dist/index.js</title>
<path fill="none" stroke="#000000" stroke-width="2" stroke-opacity="0.200000" d="M667.18,-405.64C679.11,-405.79 692.05,-405.93 704,-406 760.89,-406.36 775.12,-407.22 832,-406 852.15,-405.57 874.73,-404.61 892.6,-403.74"/>
<polygon fill="#000000" fill-opacity="0.200000" stroke="#000000" stroke-width="2" stroke-opacity="0.200000" points="893.06,-405.82 898.95,-403.42 892.86,-401.62 893.06,-405.82"/>
</g>
<!-- packages/UI/piano&#45;roll/beat&#45;view/src/beat&#45;bar/beat&#45;bar&#45;view.ts&#45;&gt;packages/UI/piano&#45;roll/beat&#45;view/src/beat&#45;bar/beat&#45;bar&#45;model.ts -->
<g id="edge9" class="edge">
<title>packages/UI/piano&#45;roll/beat&#45;view/src/beat&#45;bar/beat&#45;bar&#45;view.ts&#45;&gt;packages/UI/piano&#45;roll/beat&#45;view/src/beat&#45;bar/beat&#45;bar&#45;model.ts</title>
<path fill="none" stroke="#000000" stroke-width="2" stroke-opacity="0.200000" d="M667.35,-400.22C677.11,-399.15 687.58,-397.99 697.69,-396.88"/>
<polygon fill="#000000" fill-opacity="0.200000" stroke="#000000" stroke-width="2" stroke-opacity="0.200000" points="698.2,-398.93 703.93,-396.19 697.74,-394.76 698.2,-398.93"/>
</g>
<!-- packages/UI/piano&#45;roll/beat&#45;view/src/beat&#45;bar/beat&#45;bar.ts&#45;&gt;packages/UI/controllers/dist/index.js -->
<g id="edge14" class="edge">
<title>packages/UI/piano&#45;roll/beat&#45;view/src/beat&#45;bar/beat&#45;bar.ts&#45;&gt;packages/UI/controllers/dist/index.js</title>
<path fill="none" stroke="#000000" stroke-width="2" stroke-opacity="0.200000" d="M517.76,-400.06C536.06,-426.56 589.59,-504.07 611.98,-536.49"/>
<polygon fill="#000000" fill-opacity="0.200000" stroke="#000000" stroke-width="2" stroke-opacity="0.200000" points="610.4,-537.9 615.54,-541.64 613.85,-535.51 610.4,-537.9"/>
</g>
<!-- packages/UI/piano&#45;roll/beat&#45;view/src/beat&#45;bar/beat&#45;bar.ts&#45;&gt;packages/music&#45;structure/beat/beat&#45;estimation/dist/index.js -->
<g id="edge13" class="edge">
<title>packages/UI/piano&#45;roll/beat&#45;view/src/beat&#45;bar/beat&#45;bar.ts&#45;&gt;packages/music&#45;structure/beat/beat&#45;estimation/dist/index.js</title>
<path fill="none" stroke="#000000" stroke-width="2" stroke-opacity="0.200000" d="M511.33,-400.09C511.28,-431.4 515.51,-535.74 572,-589 658.51,-670.57 720.07,-611.88 832,-652 857.4,-661.11 885.06,-675.05 903.56,-685"/>
<polygon fill="#000000" fill-opacity="0.200000" stroke="#000000" stroke-width="2" stroke-opacity="0.200000" points="902.72,-686.93 908.99,-687.95 904.72,-683.24 902.72,-686.93"/>
</g>
<!-- packages/UI/piano&#45;roll/beat&#45;view/src/beat&#45;bar/beat&#45;bar.ts&#45;&gt;packages/UI/view/dist/index.js -->
<g id="edge17" class="edge">
<title>packages/UI/piano&#45;roll/beat&#45;view/src/beat&#45;bar/beat&#45;bar.ts&#45;&gt;packages/UI/view/dist/index.js</title>
<path fill="none" stroke="#000000" stroke-width="2" stroke-opacity="0.200000" d="M512.51,-381.9C516.99,-343.34 536.42,-194.25 572,-167 608.35,-139.17 632.44,-150.14 675,-167 792.63,-213.61 887.17,-344.66 915.96,-387.94"/>
<polygon fill="#000000" fill-opacity="0.200000" stroke="#000000" stroke-width="2" stroke-opacity="0.200000" points="914.23,-389.14 919.29,-392.99 917.74,-386.83 914.23,-389.14"/>
</g>
<!-- packages/UI/piano&#45;roll/beat&#45;view/src/beat&#45;bar/beat&#45;bar.ts&#45;&gt;packages/UI/piano&#45;roll/beat&#45;view/src/beat&#45;bar/beat&#45;bar&#45;model.ts -->
<g id="edge11" class="edge">
<title>packages/UI/piano&#45;roll/beat&#45;view/src/beat&#45;bar/beat&#45;bar.ts&#45;&gt;packages/UI/piano&#45;roll/beat&#45;view/src/beat&#45;bar/beat&#45;bar&#45;model.ts</title>
<path fill="none" stroke="#000000" stroke-width="2" stroke-opacity="0.200000" d="M543.21,-390.38C552.49,-390.22 562.65,-390.08 572,-390 617.78,-389.62 629.22,-389.7 675,-390 682.32,-390.05 690.03,-390.12 697.63,-390.21"/>
<polygon fill="#000000" fill-opacity="0.200000" stroke="#000000" stroke-width="2" stroke-opacity="0.200000" points="697.95,-392.31 703.97,-390.28 698,-388.11 697.95,-392.31"/>
</g>
<!-- packages/UI/piano&#45;roll/beat&#45;view/src/beat&#45;bar/beat&#45;bar.ts&#45;&gt;packages/util/time&#45;and/dist/index.js -->
<g id="edge16" class="edge">
<title>packages/UI/piano&#45;roll/beat&#45;view/src/beat&#45;bar/beat&#45;bar.ts&#45;&gt;packages/util/time&#45;and/dist/index.js</title>
<path fill="none" stroke="#000000" stroke-width="2" stroke-opacity="0.200000" d="M512.53,-381.89C517.25,-341.86 537.99,-181.96 572,-147 659.85,-56.67 823.13,-47.46 892.49,-47.91"/>
<polygon fill="#000000" fill-opacity="0.200000" stroke="#000000" stroke-width="2" stroke-opacity="0.200000" points="892.88,-50.02 898.9,-47.98 892.92,-45.82 892.88,-50.02"/>
</g>
<!-- packages/UI/piano&#45;roll/beat&#45;view/src/beat&#45;bar/beat&#45;bar.ts&#45;&gt;packages/UI/piano&#45;roll/beat&#45;view/src/beat&#45;bar/beat&#45;bar&#45;view.ts -->
<g id="edge12" class="edge">
<title>packages/UI/piano&#45;roll/beat&#45;view/src/beat&#45;bar/beat&#45;bar.ts&#45;&gt;packages/UI/piano&#45;roll/beat&#45;view/src/beat&#45;bar/beat&#45;bar&#45;view.ts</title>
<path fill="none" stroke="#000000" stroke-width="2" stroke-opacity="0.200000" d="M543.16,-395.01C552.35,-396.18 562.62,-397.48 572.62,-398.74"/>
<polygon fill="#000000" fill-opacity="0.200000" stroke="#000000" stroke-width="2" stroke-opacity="0.200000" points="572.58,-400.86 578.8,-399.53 573.11,-396.69 572.58,-400.86"/>
</g>
<!-- packages/UI/synth/dist/index.js -->
<g id="node14" class="node">
<title>packages/UI/synth/dist/index.js</title>
<g id="a_node14"><a xlink:href="packages/UI/synth/dist/index.js" xlink:title="index.js">
<polygon fill="#ffffcc" stroke="black" points="650,-196 648.5,-198 638,-198 636.5,-196 596,-196 596,-178 650,-178 650,-196"/>
<text text-anchor="start" x="605.5" y="-184.8" font-family="Helvetica,sans-Serif" font-size="9.00">index.js</text>
</a>
</g>
</g>
<!-- packages/UI/piano&#45;roll/beat&#45;view/src/beat&#45;bar/beat&#45;bar.ts&#45;&gt;packages/UI/synth/dist/index.js -->
<g id="edge15" class="edge">
<title>packages/UI/piano&#45;roll/beat&#45;view/src/beat&#45;bar/beat&#45;bar.ts&#45;&gt;packages/UI/synth/dist/index.js</title>
<path fill="none" stroke="#000000" stroke-width="2" stroke-opacity="0.200000" d="M515.13,-381.93C523.88,-360.4 547.24,-304.77 572,-261 584.24,-239.37 600.76,-215.81 611.4,-201.22"/>
<polygon fill="#000000" fill-opacity="0.200000" stroke="#000000" stroke-width="2" stroke-opacity="0.200000" points="613.17,-202.35 615.03,-196.27 609.79,-199.86 613.17,-202.35"/>
</g>
<!-- packages/UI/view&#45;parameters/dist/index.js -->
<g id="node15" class="node">
<title>packages/UI/view&#45;parameters/dist/index.js</title>
<g id="a_node15"><a xlink:href="packages/UI/view-parameters/dist/index.js" xlink:title="index.js">
<polygon fill="#ffffcc" stroke="black" points="650,-290 648.5,-292 638,-292 636.5,-290 596,-290 596,-272 650,-272 650,-290"/>
<text text-anchor="start" x="605.5" y="-278.8" font-family="Helvetica,sans-Serif" font-size="9.00">index.js</text>
</a>
</g>
</g>
<!-- packages/UI/piano&#45;roll/beat&#45;view/src/beat&#45;bar/beat&#45;bar.ts&#45;&gt;packages/UI/view&#45;parameters/dist/index.js -->
<g id="edge18" class="edge">
<title>packages/UI/piano&#45;roll/beat&#45;view/src/beat&#45;bar/beat&#45;bar.ts&#45;&gt;packages/UI/view&#45;parameters/dist/index.js</title>
<path fill="none" stroke="#000000" stroke-width="2" stroke-opacity="0.200000" d="M520.54,-382C539.89,-362.74 585.39,-317.45 608.3,-294.64"/>
<polygon fill="#000000" fill-opacity="0.200000" stroke="#000000" stroke-width="2" stroke-opacity="0.200000" points="610.06,-295.85 612.83,-290.13 607.1,-292.87 610.06,-295.85"/>
</g>
<!-- packages/UI/piano&#45;roll/beat&#45;view/src/beat&#45;elements.ts&#45;&gt;packages/UI/piano&#45;roll/beat&#45;view/src/beat&#45;bar&#45;series.ts -->
<g id="edge20" class="edge">
<title>packages/UI/piano&#45;roll/beat&#45;view/src/beat&#45;elements.ts&#45;&gt;packages/UI/piano&#45;roll/beat&#45;view/src/beat&#45;bar&#45;series.ts</title>
<path fill="none" stroke="#000000" stroke-width="2" stroke-opacity="0.200000" d="M288.01,-431C290.29,-431 292.58,-431 294.87,-431"/>
<polygon fill="#000000" fill-opacity="0.200000" stroke="#000000" stroke-width="2" stroke-opacity="0.200000" points="294.93,-433.1 300.93,-431 294.93,-428.9 294.93,-433.1"/>
</g>
<!-- packages/UI/piano&#45;roll/beat&#45;view/src/beat&#45;elements.ts&#45;&gt;packages/music&#45;structure/beat/beat&#45;estimation/dist/index.js -->
<g id="edge21" class="edge">
<title>packages/UI/piano&#45;roll/beat&#45;view/src/beat&#45;elements.ts&#45;&gt;packages/music&#45;structure/beat/beat&#45;estimation/dist/index.js</title>
<path fill="none" stroke="#000000" stroke-width="2" stroke-opacity="0.200000" d="M244.87,-440.09C254.98,-486.51 307.6,-695 437,-695 437,-695 437,-695 624,-695 721.87,-695 837.64,-696.07 892.73,-696.65"/>
<polygon fill="#000000" fill-opacity="0.200000" stroke="#000000" stroke-width="2" stroke-opacity="0.200000" points="892.81,-698.75 898.83,-696.71 892.85,-694.55 892.81,-698.75"/>
</g>
<!-- packages/UI/piano&#45;roll/beat&#45;view/src/beat&#45;elements.ts&#45;&gt;packages/music&#45;structure/melody/melody&#45;analyze/dist/index.js -->
<g id="edge22" class="edge">
<title>packages/UI/piano&#45;roll/beat&#45;view/src/beat&#45;elements.ts&#45;&gt;packages/music&#45;structure/melody/melody&#45;analyze/dist/index.js</title>
<path fill="none" stroke="#000000" stroke-width="2" stroke-opacity="0.200000" d="M243.65,-440.23C248.04,-495.09 278.27,-776 437,-776 437,-776 437,-776 624,-776 722.9,-776 837.73,-802.09 892.59,-816.19"/>
<polygon fill="#000000" fill-opacity="0.200000" stroke="#000000" stroke-width="2" stroke-opacity="0.200000" points="892.33,-818.3 898.66,-817.77 893.38,-814.23 892.33,-818.3"/>
</g>
</g>
</svg>
