<?xml version="1.0" encoding="UTF-8" standalone="no"?>
<!DOCTYPE svg PUBLIC "-//W3C//DTD SVG 1.1//EN"
 "http://www.w3.org/Graphics/SVG/1.1/DTD/svg11.dtd">
<!-- Generated by graphviz version 2.43.0 (0)
 -->
<!-- Title: dependency&#45;cruiser output Pages: 1 -->
<svg width="956pt" height="822pt"
 viewBox="0.00 0.00 956.00 822.00" xmlns="http://www.w3.org/2000/svg" xmlns:xlink="http://www.w3.org/1999/xlink">
<g id="graph0" class="graph" transform="scale(1 1) rotate(0) translate(4 818)">
<title>dependency&#45;cruiser output</title>
<polygon fill="white" stroke="transparent" points="-4,4 -4,-818 952,-818 952,4 -4,4"/>
<g id="clust1" class="cluster">
<title>cluster_packages</title>
<path fill="#ffffff" stroke="black" stroke-width="2" d="M20,-8C20,-8 934,-8 934,-8 940,-8 946,-14 946,-20 946,-20 946,-794 946,-794 946,-800 940,-806 934,-806 934,-806 20,-806 20,-806 14,-806 8,-800 8,-794 8,-794 8,-20 8,-20 8,-14 14,-8 20,-8"/>
<text text-anchor="middle" x="477" y="-794.8" font-family="Helvetica,sans-Serif" font-weight="bold" font-size="9.00">packages</text>
</g>
<g id="clust2" class="cluster">
<title>cluster_packages/UI</title>
<path fill="#ffffff" stroke="black" stroke-width="2" d="M28,-144C28,-144 912,-144 912,-144 918,-144 924,-150 924,-156 924,-156 924,-606 924,-606 924,-612 918,-618 912,-618 912,-618 28,-618 28,-618 22,-618 16,-612 16,-606 16,-606 16,-156 16,-156 16,-150 22,-144 28,-144"/>
<text text-anchor="middle" x="470" y="-606.8" font-family="Helvetica,sans-Serif" font-weight="bold" font-size="9.00">UI</text>
</g>
<g id="clust3" class="cluster">
<title>cluster_packages/UI/controllers</title>
<path fill="#ffffff" stroke="black" stroke-width="2" d="M842,-182C842,-182 904,-182 904,-182 910,-182 916,-188 916,-194 916,-194 916,-256 916,-256 916,-262 910,-268 904,-268 904,-268 842,-268 842,-268 836,-268 830,-262 830,-256 830,-256 830,-194 830,-194 830,-188 836,-182 842,-182"/>
<text text-anchor="middle" x="873" y="-256.8" font-family="Helvetica,sans-Serif" font-weight="bold" font-size="9.00">controllers</text>
</g>
<g id="clust4" class="cluster">
<title>cluster_packages/UI/controllers/dist</title>
<path fill="#ffffff" stroke="black" stroke-width="2" d="M850,-190C850,-190 896,-190 896,-190 902,-190 908,-196 908,-202 908,-202 908,-230 908,-230 908,-236 902,-242 896,-242 896,-242 850,-242 850,-242 844,-242 838,-236 838,-230 838,-230 838,-202 838,-202 838,-196 844,-190 850,-190"/>
<text text-anchor="middle" x="873" y="-230.8" font-family="Helvetica,sans-Serif" font-weight="bold" font-size="9.00">dist</text>
</g>
<g id="clust5" class="cluster">
<title>cluster_packages/UI/piano&#45;roll</title>
<path fill="#ffffff" stroke="black" stroke-width="2" d="M36,-152C36,-152 780,-152 780,-152 786,-152 792,-158 792,-164 792,-164 792,-382 792,-382 792,-388 786,-394 780,-394 780,-394 36,-394 36,-394 30,-394 24,-388 24,-382 24,-382 24,-164 24,-164 24,-158 30,-152 36,-152"/>
<text text-anchor="middle" x="408" y="-382.8" font-family="Helvetica,sans-Serif" font-weight="bold" font-size="9.00">piano&#45;roll</text>
</g>
<g id="clust6" class="cluster">
<title>cluster_packages/UI/piano&#45;roll/beat&#45;view</title>
<path fill="#ffffff" stroke="black" stroke-width="2" d="M44,-160C44,-160 772,-160 772,-160 778,-160 784,-166 784,-172 784,-172 784,-356 784,-356 784,-362 778,-368 772,-368 772,-368 44,-368 44,-368 38,-368 32,-362 32,-356 32,-356 32,-172 32,-172 32,-166 38,-160 44,-160"/>
<text text-anchor="middle" x="408" y="-356.8" font-family="Helvetica,sans-Serif" font-weight="bold" font-size="9.00">beat&#45;view</text>
</g>
<g id="clust7" class="cluster">
<title>cluster_packages/UI/piano&#45;roll/beat&#45;view/src</title>
<path fill="#ffffff" stroke="black" stroke-width="2" d="M133,-168C133,-168 764,-168 764,-168 770,-168 776,-174 776,-180 776,-180 776,-330 776,-330 776,-336 770,-342 764,-342 764,-342 133,-342 133,-342 127,-342 121,-336 121,-330 121,-330 121,-180 121,-180 121,-174 127,-168 133,-168"/>
<text text-anchor="middle" x="448.5" y="-330.8" font-family="Helvetica,sans-Serif" font-weight="bold" font-size="9.00">src</text>
</g>
<g id="clust8" class="cluster">
<title>cluster_packages/UI/piano&#45;roll/beat&#45;view/src/beat&#45;bar</title>
<path fill="#ffffff" stroke="black" stroke-width="2" d="M348,-250C348,-250 756,-250 756,-250 762,-250 768,-256 768,-262 768,-262 768,-304 768,-304 768,-310 762,-316 756,-316 756,-316 348,-316 348,-316 342,-316 336,-310 336,-304 336,-304 336,-262 336,-262 336,-256 342,-250 348,-250"/>
<text text-anchor="middle" x="552" y="-304.8" font-family="Helvetica,sans-Serif" font-weight="bold" font-size="9.00">beat&#45;bar</text>
</g>
<g id="clust9" class="cluster">
<title>cluster_packages/UI/piano&#45;roll/beat&#45;view/src/requirement</title>
<path fill="#ffffff" stroke="black" stroke-width="2" d="M348,-176C348,-176 740.5,-176 740.5,-176 746.5,-176 752.5,-182 752.5,-188 752.5,-188 752.5,-230 752.5,-230 752.5,-236 746.5,-242 740.5,-242 740.5,-242 348,-242 348,-242 342,-242 336,-236 336,-230 336,-230 336,-188 336,-188 336,-182 342,-176 348,-176"/>
<text text-anchor="middle" x="544.25" y="-230.8" font-family="Helvetica,sans-Serif" font-weight="bold" font-size="9.00">requirement</text>
</g>
<g id="clust10" class="cluster">
<title>cluster_packages/UI/synth</title>
<path fill="#ffffff" stroke="black" stroke-width="2" d="M552,-402C552,-402 614,-402 614,-402 620,-402 626,-408 626,-414 626,-414 626,-476 626,-476 626,-482 620,-488 614,-488 614,-488 552,-488 552,-488 546,-488 540,-482 540,-476 540,-476 540,-414 540,-414 540,-408 546,-402 552,-402"/>
<text text-anchor="middle" x="583" y="-476.8" font-family="Helvetica,sans-Serif" font-weight="bold" font-size="9.00">synth</text>
</g>
<g id="clust11" class="cluster">
<title>cluster_packages/UI/synth/dist</title>
<path fill="#ffffff" stroke="black" stroke-width="2" d="M560,-410C560,-410 606,-410 606,-410 612,-410 618,-416 618,-422 618,-422 618,-450 618,-450 618,-456 612,-462 606,-462 606,-462 560,-462 560,-462 554,-462 548,-456 548,-450 548,-450 548,-422 548,-422 548,-416 554,-410 560,-410"/>
<text text-anchor="middle" x="583" y="-450.8" font-family="Helvetica,sans-Serif" font-weight="bold" font-size="9.00">dist</text>
</g>
<g id="clust12" class="cluster">
<title>cluster_packages/UI/view&#45;parameters</title>
<path fill="#ffffff" stroke="black" stroke-width="2" d="M544,-496C544,-496 623,-496 623,-496 629,-496 635,-502 635,-508 635,-508 635,-570 635,-570 635,-576 629,-582 623,-582 623,-582 544,-582 544,-582 538,-582 532,-576 532,-570 532,-570 532,-508 532,-508 532,-502 538,-496 544,-496"/>
<text text-anchor="middle" x="583.5" y="-570.8" font-family="Helvetica,sans-Serif" font-weight="bold" font-size="9.00">view&#45;parameters</text>
</g>
<g id="clust13" class="cluster">
<title>cluster_packages/UI/view&#45;parameters/dist</title>
<path fill="#ffffff" stroke="black" stroke-width="2" d="M560,-504C560,-504 606,-504 606,-504 612,-504 618,-510 618,-516 618,-516 618,-544 618,-544 618,-550 612,-556 606,-556 606,-556 560,-556 560,-556 554,-556 548,-550 548,-544 548,-544 548,-516 548,-516 548,-510 554,-504 560,-504"/>
<text text-anchor="middle" x="583" y="-544.8" font-family="Helvetica,sans-Serif" font-weight="bold" font-size="9.00">dist</text>
</g>
<g id="clust14" class="cluster">
<title>cluster_packages/UI/view</title>
<path fill="#ffffff" stroke="black" stroke-width="2" d="M842,-277C842,-277 904,-277 904,-277 910,-277 916,-283 916,-289 916,-289 916,-351 916,-351 916,-357 910,-363 904,-363 904,-363 842,-363 842,-363 836,-363 830,-357 830,-351 830,-351 830,-289 830,-289 830,-283 836,-277 842,-277"/>
<text text-anchor="middle" x="873" y="-351.8" font-family="Helvetica,sans-Serif" font-weight="bold" font-size="9.00">view</text>
</g>
<g id="clust15" class="cluster">
<title>cluster_packages/UI/view/dist</title>
<path fill="#ffffff" stroke="black" stroke-width="2" d="M850,-285C850,-285 896,-285 896,-285 902,-285 908,-291 908,-297 908,-297 908,-325 908,-325 908,-331 902,-337 896,-337 896,-337 850,-337 850,-337 844,-337 838,-331 838,-325 838,-325 838,-297 838,-297 838,-291 844,-285 850,-285"/>
<text text-anchor="middle" x="873" y="-325.8" font-family="Helvetica,sans-Serif" font-weight="bold" font-size="9.00">dist</text>
</g>
<g id="clust16" class="cluster">
<title>cluster_packages/music&#45;structure</title>
<path fill="#ffffff" stroke="black" stroke-width="2" d="M820,-626C820,-626 926,-626 926,-626 932,-626 938,-632 938,-638 938,-638 938,-768 938,-768 938,-774 932,-780 926,-780 926,-780 820,-780 820,-780 814,-780 808,-774 808,-768 808,-768 808,-638 808,-638 808,-632 814,-626 820,-626"/>
<text text-anchor="middle" x="873" y="-768.8" font-family="Helvetica,sans-Serif" font-weight="bold" font-size="9.00">music&#45;structure</text>
</g>
<g id="clust17" class="cluster">
<title>cluster_packages/music&#45;structure/beat</title>
<path fill="#ffffff" stroke="black" stroke-width="2" d="M828,-634C828,-634 918,-634 918,-634 924,-634 930,-640 930,-646 930,-646 930,-742 930,-742 930,-748 924,-754 918,-754 918,-754 828,-754 828,-754 822,-754 816,-748 816,-742 816,-742 816,-646 816,-646 816,-640 822,-634 828,-634"/>
<text text-anchor="middle" x="873" y="-742.8" font-family="Helvetica,sans-Serif" font-weight="bold" font-size="9.00">beat</text>
</g>
<g id="clust18" class="cluster">
<title>cluster_packages/music&#45;structure/beat/beat&#45;estimation</title>
<path fill="#ffffff" stroke="black" stroke-width="2" d="M836,-642C836,-642 910,-642 910,-642 916,-642 922,-648 922,-654 922,-654 922,-716 922,-716 922,-722 916,-728 910,-728 910,-728 836,-728 836,-728 830,-728 824,-722 824,-716 824,-716 824,-654 824,-654 824,-648 830,-642 836,-642"/>
<text text-anchor="middle" x="873" y="-716.8" font-family="Helvetica,sans-Serif" font-weight="bold" font-size="9.00">beat&#45;estimation</text>
</g>
<g id="clust19" class="cluster">
<title>cluster_packages/music&#45;structure/beat/beat&#45;estimation/dist</title>
<path fill="#ffffff" stroke="black" stroke-width="2" d="M850,-650C850,-650 896,-650 896,-650 902,-650 908,-656 908,-662 908,-662 908,-690 908,-690 908,-696 902,-702 896,-702 896,-702 850,-702 850,-702 844,-702 838,-696 838,-690 838,-690 838,-662 838,-662 838,-656 844,-650 850,-650"/>
<text text-anchor="middle" x="873" y="-690.8" font-family="Helvetica,sans-Serif" font-weight="bold" font-size="9.00">dist</text>
</g>
<g id="clust20" class="cluster">
<title>cluster_packages/util</title>
<path fill="#ffffff" stroke="black" stroke-width="2" d="M834,-16C834,-16 912,-16 912,-16 918,-16 924,-22 924,-28 924,-28 924,-124 924,-124 924,-130 918,-136 912,-136 912,-136 834,-136 834,-136 828,-136 822,-130 822,-124 822,-124 822,-28 822,-28 822,-22 828,-16 834,-16"/>
<text text-anchor="middle" x="873" y="-124.8" font-family="Helvetica,sans-Serif" font-weight="bold" font-size="9.00">util</text>
</g>
<g id="clust21" class="cluster">
<title>cluster_packages/util/time&#45;and</title>
<path fill="#ffffff" stroke="black" stroke-width="2" d="M842,-24C842,-24 904,-24 904,-24 910,-24 916,-30 916,-36 916,-36 916,-98 916,-98 916,-104 910,-110 904,-110 904,-110 842,-110 842,-110 836,-110 830,-104 830,-98 830,-98 830,-36 830,-36 830,-30 836,-24 842,-24"/>
<text text-anchor="middle" x="873" y="-98.8" font-family="Helvetica,sans-Serif" font-weight="bold" font-size="9.00">time&#45;and</text>
</g>
<g id="clust22" class="cluster">
<title>cluster_packages/util/time&#45;and/dist</title>
<path fill="#ffffff" stroke="black" stroke-width="2" d="M850,-32C850,-32 896,-32 896,-32 902,-32 908,-38 908,-44 908,-44 908,-72 908,-72 908,-78 902,-84 896,-84 896,-84 850,-84 850,-84 844,-84 838,-78 838,-72 838,-72 838,-44 838,-44 838,-38 844,-32 850,-32"/>
<text text-anchor="middle" x="873" y="-72.8" font-family="Helvetica,sans-Serif" font-weight="bold" font-size="9.00">dist</text>
</g>
<!-- packages/UI/controllers/dist/index.js -->
<g id="node1" class="node">
<title>packages/UI/controllers/dist/index.js</title>
<g id="a_node1"><a xlink:href="packages/UI/controllers/dist/index.js" xlink:title="index.js">
<polygon fill="#ffffcc" stroke="black" points="900,-216 898.5,-218 888,-218 886.5,-216 846,-216 846,-198 900,-198 900,-216"/>
<text text-anchor="start" x="855.5" y="-204.8" font-family="Helvetica,sans-Serif" font-size="9.00">index.js</text>
</a>
</g>
</g>
<!-- packages/UI/piano&#45;roll/beat&#45;view/index.test.ts -->
<g id="node2" class="node">
<title>packages/UI/piano&#45;roll/beat&#45;view/index.test.ts</title>
<g id="a_node2"><a xlink:href="packages/UI/piano-roll/beat-view/index.test.ts" xlink:title="no&#45;orphans">
<path fill="#ccffcc" stroke="orange" d="M107,-336C107,-336 46,-336 46,-336 43,-336 40,-333 40,-330 40,-330 40,-324 40,-324 40,-321 43,-318 46,-318 46,-318 107,-318 107,-318 110,-318 113,-321 113,-324 113,-324 113,-330 113,-330 113,-333 110,-336 107,-336"/>
<text text-anchor="start" x="48" y="-324.8" font-family="Helvetica,sans-Serif" font-size="9.00" fill="orange">index.test.ts</text>
</a>
</g>
</g>
<!-- packages/UI/piano&#45;roll/beat&#45;view/index.ts -->
<g id="node3" class="node">
<title>packages/UI/piano&#45;roll/beat&#45;view/index.ts</title>
<g id="a_node3"><a xlink:href="packages/UI/piano-roll/beat-view/index.ts" xlink:title="index.ts">
<path fill="#ddfeff" stroke="black" d="M97.5,-295C97.5,-295 55.5,-295 55.5,-295 52.5,-295 49.5,-292 49.5,-289 49.5,-289 49.5,-283 49.5,-283 49.5,-280 52.5,-277 55.5,-277 55.5,-277 97.5,-277 97.5,-277 100.5,-277 103.5,-280 103.5,-283 103.5,-283 103.5,-289 103.5,-289 103.5,-292 100.5,-295 97.5,-295"/>
<text text-anchor="start" x="58" y="-283.8" font-family="Helvetica,sans-Serif" font-size="9.00">index.ts</text>
</a>
</g>
</g>
<!-- packages/UI/piano&#45;roll/beat&#45;view/src/beat&#45;elements.ts -->
<g id="node4" class="node">
<title>packages/UI/piano&#45;roll/beat&#45;view/src/beat&#45;elements.ts</title>
<g id="a_node4"><a xlink:href="packages/UI/piano-roll/beat-view/src/beat-elements.ts" xlink:title="beat&#45;elements.ts">
<path fill="#ddfeff" stroke="black" d="M215,-290C215,-290 135,-290 135,-290 132,-290 129,-287 129,-284 129,-284 129,-278 129,-278 129,-275 132,-272 135,-272 135,-272 215,-272 215,-272 218,-272 221,-275 221,-278 221,-278 221,-284 221,-284 221,-287 218,-290 215,-290"/>
<text text-anchor="start" x="137" y="-278.8" font-family="Helvetica,sans-Serif" font-size="9.00">beat&#45;elements.ts</text>
</a>
</g>
</g>
<!-- packages/UI/piano&#45;roll/beat&#45;view/index.ts&#45;&gt;packages/UI/piano&#45;roll/beat&#45;view/src/beat&#45;elements.ts -->
<g id="edge1" class="edge">
<title>packages/UI/piano&#45;roll/beat&#45;view/index.ts&#45;&gt;packages/UI/piano&#45;roll/beat&#45;view/src/beat&#45;elements.ts</title>
<path fill="none" stroke="#000000" stroke-width="2" stroke-opacity="0.200000" d="M103.61,-284.65C109.6,-284.34 116.16,-284 122.8,-283.65"/>
<polygon fill="#000000" fill-opacity="0.200000" stroke="#000000" stroke-width="2" stroke-opacity="0.200000" points="129.01,-285.43 122.91,-283.65 128.79,-281.24 129.01,-285.43"/>
</g>
<!-- packages/UI/piano&#45;roll/beat&#45;view/src/requirement/beat&#45;elements.ts -->
<g id="node5" class="node">
<title>packages/UI/piano&#45;roll/beat&#45;view/src/requirement/beat&#45;elements.ts</title>
<g id="a_node5"><a xlink:href="packages/UI/piano-roll/beat-view/src/requirement/beat-elements.ts" xlink:title="beat&#45;elements.ts">
<path fill="#ddfeff" stroke="black" d="M497,-216C497,-216 417,-216 417,-216 414,-216 411,-213 411,-210 411,-210 411,-204 411,-204 411,-201 414,-198 417,-198 417,-198 497,-198 497,-198 500,-198 503,-201 503,-204 503,-204 503,-210 503,-210 503,-213 500,-216 497,-216"/>
<text text-anchor="start" x="419" y="-204.8" font-family="Helvetica,sans-Serif" font-size="9.00">beat&#45;elements.ts</text>
</a>
</g>
</g>
<!-- packages/UI/piano&#45;roll/beat&#45;view/index.ts&#45;&gt;packages/UI/piano&#45;roll/beat&#45;view/src/requirement/beat&#45;elements.ts -->
<g id="edge2" class="edge">
<title>packages/UI/piano&#45;roll/beat&#45;view/index.ts&#45;&gt;packages/UI/piano&#45;roll/beat&#45;view/src/requirement/beat&#45;elements.ts</title>
<path fill="none" stroke="#000000" stroke-width="2" stroke-opacity="0.200000" d="M89.92,-295.09C100.15,-302.59 113,-312 113,-312 113,-312 121,-320 121,-320 121,-320 328,-320 328,-320 328,-320 398,-319 398,-319 398,-319 411,-247 411,-247 411,-247 427.87,-232 440.95,-220.38"/>
<polygon fill="#000000" fill-opacity="0.200000" stroke="#000000" stroke-width="2" stroke-opacity="0.200000" points="446.96,-217.85 441.08,-220.26 444.17,-214.71 446.96,-217.85"/>
</g>
<!-- packages/UI/piano&#45;roll/beat&#45;view/src/beat&#45;bar&#45;series.ts -->
<g id="node6" class="node">
<title>packages/UI/piano&#45;roll/beat&#45;view/src/beat&#45;bar&#45;series.ts</title>
<g id="a_node6"><a xlink:href="packages/UI/piano-roll/beat-view/src/beat-bar-series.ts" xlink:title="beat&#45;bar&#45;series.ts">
<path fill="#ddfeff" stroke="black" d="M322,-290C322,-290 240,-290 240,-290 237,-290 234,-287 234,-284 234,-284 234,-278 234,-278 234,-275 237,-272 240,-272 240,-272 322,-272 322,-272 325,-272 328,-275 328,-278 328,-278 328,-284 328,-284 328,-287 325,-290 322,-290"/>
<text text-anchor="start" x="242" y="-278.8" font-family="Helvetica,sans-Serif" font-size="9.00">beat&#45;bar&#45;series.ts</text>
</a>
</g>
</g>
<!-- packages/UI/piano&#45;roll/beat&#45;view/src/beat&#45;elements.ts&#45;&gt;packages/UI/piano&#45;roll/beat&#45;view/src/beat&#45;bar&#45;series.ts -->
<g id="edge20" class="edge">
<title>packages/UI/piano&#45;roll/beat&#45;view/src/beat&#45;elements.ts&#45;&gt;packages/UI/piano&#45;roll/beat&#45;view/src/beat&#45;bar&#45;series.ts</title>
<path fill="none" stroke="#000000" stroke-width="2" stroke-opacity="0.200000" d="M221.01,-281C223.29,-281 225.58,-281 227.87,-281"/>
<polygon fill="#000000" fill-opacity="0.200000" stroke="#000000" stroke-width="2" stroke-opacity="0.200000" points="227.93,-283.1 233.93,-281 227.93,-278.9 227.93,-283.1"/>
</g>
<!-- packages/UI/piano&#45;roll/beat&#45;view/src/requirement/index.ts -->
<g id="node8" class="node">
<title>packages/UI/piano&#45;roll/beat&#45;view/src/requirement/index.ts</title>
<g id="a_node8"><a xlink:href="packages/UI/piano-roll/beat-view/src/requirement/index.ts" xlink:title="index.ts">
<path fill="#ddfeff" stroke="black" d="M392,-216C392,-216 350,-216 350,-216 347,-216 344,-213 344,-210 344,-210 344,-204 344,-204 344,-201 347,-198 350,-198 350,-198 392,-198 392,-198 395,-198 398,-201 398,-204 398,-204 398,-210 398,-210 398,-213 395,-216 392,-216"/>
<text text-anchor="start" x="352.5" y="-204.8" font-family="Helvetica,sans-Serif" font-size="9.00">index.ts</text>
</a>
</g>
</g>
<!-- packages/UI/piano&#45;roll/beat&#45;view/src/beat&#45;elements.ts&#45;&gt;packages/UI/piano&#45;roll/beat&#45;view/src/requirement/index.ts -->
<g id="edge21" class="edge">
<title>packages/UI/piano&#45;roll/beat&#45;view/src/beat&#45;elements.ts&#45;&gt;packages/UI/piano&#45;roll/beat&#45;view/src/requirement/index.ts</title>
<path fill="none" stroke="#000000" stroke-width="2" stroke-opacity="0.200000" d="M199.79,-271.93C235.23,-258.41 301.84,-233 340.38,-218.3"/>
<polygon fill="#000000" fill-opacity="0.200000" stroke="#000000" stroke-width="2" stroke-opacity="0.200000" points="341.46,-220.13 346.32,-216.03 339.97,-216.21 341.46,-220.13"/>
</g>
<!-- packages/music&#45;structure/beat/beat&#45;estimation/dist/index.js -->
<g id="node9" class="node">
<title>packages/music&#45;structure/beat/beat&#45;estimation/dist/index.js</title>
<g id="a_node9"><a xlink:href="packages/music-structure/beat/beat-estimation/dist/index.js" xlink:title="index.js">
<polygon fill="#ffffcc" stroke="black" points="900,-676 898.5,-678 888,-678 886.5,-676 846,-676 846,-658 900,-658 900,-676"/>
<text text-anchor="start" x="855.5" y="-664.8" font-family="Helvetica,sans-Serif" font-size="9.00">index.js</text>
</a>
</g>
</g>
<!-- packages/UI/piano&#45;roll/beat&#45;view/src/beat&#45;elements.ts&#45;&gt;packages/music&#45;structure/beat/beat&#45;estimation/dist/index.js -->
<g id="edge22" class="edge">
<title>packages/UI/piano&#45;roll/beat&#45;view/src/beat&#45;elements.ts&#45;&gt;packages/music&#45;structure/beat/beat&#45;estimation/dist/index.js</title>
<path fill="none" stroke="#000000" stroke-width="2" stroke-opacity="0.200000" d="M180.6,-290.04C209.98,-347.74 370,-662 370,-662 370,-662 370,-662 584,-662 584,-662 764.74,-665.14 839.86,-666.44"/>
<polygon fill="#000000" fill-opacity="0.200000" stroke="#000000" stroke-width="2" stroke-opacity="0.200000" points="839.9,-668.54 845.93,-666.55 839.97,-664.34 839.9,-668.54"/>
</g>
<!-- packages/util/time&#45;and/dist/index.js -->
<g id="node10" class="node">
<title>packages/util/time&#45;and/dist/index.js</title>
<g id="a_node10"><a xlink:href="packages/util/time-and/dist/index.js" xlink:title="index.js">
<polygon fill="#ffffcc" stroke="black" points="900,-58 898.5,-60 888,-60 886.5,-58 846,-58 846,-40 900,-40 900,-58"/>
<text text-anchor="start" x="855.5" y="-46.8" font-family="Helvetica,sans-Serif" font-size="9.00">index.js</text>
</a>
</g>
</g>
<!-- packages/UI/piano&#45;roll/beat&#45;view/src/beat&#45;elements.ts&#45;&gt;packages/util/time&#45;and/dist/index.js -->
<g id="edge23" class="edge">
<title>packages/UI/piano&#45;roll/beat&#45;view/src/beat&#45;elements.ts&#45;&gt;packages/util/time&#45;and/dist/index.js</title>
<path fill="none" stroke="#000000" stroke-width="2" stroke-opacity="0.200000" d="M184.09,-271.79C220.8,-229.96 370,-60 370,-60 370,-60 370,-60 584,-60 584,-60 764.74,-53.1 839.86,-50.23"/>
<polygon fill="#000000" fill-opacity="0.200000" stroke="#000000" stroke-width="2" stroke-opacity="0.200000" points="840.02,-52.32 845.93,-50 839.86,-48.13 840.02,-52.32"/>
</g>
<!-- packages/UI/piano&#45;roll/beat&#45;view/src/requirement/beat&#45;bar&#45;series.ts -->
<g id="node17" class="node">
<title>packages/UI/piano&#45;roll/beat&#45;view/src/requirement/beat&#45;bar&#45;series.ts</title>
<g id="a_node17"><a xlink:href="packages/UI/piano-roll/beat-view/src/requirement/beat-bar-series.ts" xlink:title="beat&#45;bar&#45;series.ts">
<path fill="#ddfeff" stroke="black" d="M624,-216C624,-216 542,-216 542,-216 539,-216 536,-213 536,-210 536,-210 536,-204 536,-204 536,-201 539,-198 542,-198 542,-198 624,-198 624,-198 627,-198 630,-201 630,-204 630,-204 630,-210 630,-210 630,-213 627,-216 624,-216"/>
<text text-anchor="start" x="544" y="-204.8" font-family="Helvetica,sans-Serif" font-size="9.00">beat&#45;bar&#45;series.ts</text>
</a>
</g>
</g>
<!-- packages/UI/piano&#45;roll/beat&#45;view/src/requirement/beat&#45;elements.ts&#45;&gt;packages/UI/piano&#45;roll/beat&#45;view/src/requirement/beat&#45;bar&#45;series.ts -->
<g id="edge27" class="edge">
<title>packages/UI/piano&#45;roll/beat&#45;view/src/requirement/beat&#45;elements.ts&#45;&gt;packages/UI/piano&#45;roll/beat&#45;view/src/requirement/beat&#45;bar&#45;series.ts</title>
<path fill="none" stroke="#000000" stroke-width="2" stroke-opacity="0.200000" d="M503.12,-207C511.78,-207 520.92,-207 529.79,-207"/>
<polygon fill="#000000" fill-opacity="0.200000" stroke="#000000" stroke-width="2" stroke-opacity="0.200000" points="529.88,-209.1 535.88,-207 529.88,-204.9 529.88,-209.1"/>
</g>
<!-- packages/UI/piano&#45;roll/beat&#45;view/src/beat&#45;bar/index.ts -->
<g id="node7" class="node">
<title>packages/UI/piano&#45;roll/beat&#45;view/src/beat&#45;bar/index.ts</title>
<g id="a_node7"><a xlink:href="packages/UI/piano-roll/beat-view/src/beat-bar/index.ts" xlink:title="index.ts">
<path fill="#ddfeff" stroke="black" d="M392,-290C392,-290 350,-290 350,-290 347,-290 344,-287 344,-284 344,-284 344,-278 344,-278 344,-275 347,-272 350,-272 350,-272 392,-272 392,-272 395,-272 398,-275 398,-278 398,-278 398,-284 398,-284 398,-287 395,-290 392,-290"/>
<text text-anchor="start" x="352.5" y="-278.8" font-family="Helvetica,sans-Serif" font-size="9.00">index.ts</text>
</a>
</g>
</g>
<!-- packages/UI/piano&#45;roll/beat&#45;view/src/beat&#45;bar&#45;series.ts&#45;&gt;packages/UI/piano&#45;roll/beat&#45;view/src/beat&#45;bar/index.ts -->
<g id="edge3" class="edge">
<title>packages/UI/piano&#45;roll/beat&#45;view/src/beat&#45;bar&#45;series.ts&#45;&gt;packages/UI/piano&#45;roll/beat&#45;view/src/beat&#45;bar/index.ts</title>
<path fill="none" stroke="#000000" stroke-width="2" stroke-opacity="0.200000" d="M328.06,-281C331.22,-281 334.37,-281 337.44,-281"/>
<polygon fill="#000000" fill-opacity="0.200000" stroke="#000000" stroke-width="2" stroke-opacity="0.200000" points="337.6,-283.1 343.6,-281 337.6,-278.9 337.6,-283.1"/>
</g>
<!-- packages/UI/piano&#45;roll/beat&#45;view/src/beat&#45;bar&#45;series.ts&#45;&gt;packages/UI/piano&#45;roll/beat&#45;view/src/requirement/index.ts -->
<g id="edge4" class="edge">
<title>packages/UI/piano&#45;roll/beat&#45;view/src/beat&#45;bar&#45;series.ts&#45;&gt;packages/UI/piano&#45;roll/beat&#45;view/src/requirement/index.ts</title>
<path fill="none" stroke="#000000" stroke-width="2" stroke-opacity="0.200000" d="M292.79,-271.93C308.23,-258.94 336.71,-235 354.43,-220.09"/>
<polygon fill="#000000" fill-opacity="0.200000" stroke="#000000" stroke-width="2" stroke-opacity="0.200000" points="355.88,-221.62 359.12,-216.15 353.18,-218.4 355.88,-221.62"/>
</g>
<!-- packages/UI/piano&#45;roll/beat&#45;view/src/beat&#45;bar&#45;series.ts&#45;&gt;packages/music&#45;structure/beat/beat&#45;estimation/dist/index.js -->
<g id="edge5" class="edge">
<title>packages/UI/piano&#45;roll/beat&#45;view/src/beat&#45;bar&#45;series.ts&#45;&gt;packages/music&#45;structure/beat/beat&#45;estimation/dist/index.js</title>
<path fill="none" stroke="#000000" stroke-width="2" stroke-opacity="0.200000" d="M285.22,-290.17C296.84,-323.33 336,-435 336,-435 336,-435 456,-631 456,-631 456,-631 456,-631 584,-631 584,-631 764.74,-653.59 839.86,-662.98"/>
<polygon fill="#000000" fill-opacity="0.200000" stroke="#000000" stroke-width="2" stroke-opacity="0.200000" points="839.72,-665.08 845.93,-663.74 840.24,-660.91 839.72,-665.08"/>
</g>
<!-- packages/UI/piano&#45;roll/beat&#45;view/src/beat&#45;bar&#45;series.ts&#45;&gt;packages/util/time&#45;and/dist/index.js -->
<g id="edge6" class="edge">
<title>packages/UI/piano&#45;roll/beat&#45;view/src/beat&#45;bar&#45;series.ts&#45;&gt;packages/util/time&#45;and/dist/index.js</title>
<path fill="none" stroke="#000000" stroke-width="2" stroke-opacity="0.200000" d="M286.6,-271.79C299.66,-245.67 336,-173 336,-173 336,-173 456,-119 456,-119 456,-119 456,-119 584,-119 584,-119 764.74,-75.07 839.86,-56.81"/>
<polygon fill="#000000" fill-opacity="0.200000" stroke="#000000" stroke-width="2" stroke-opacity="0.200000" points="840.6,-58.79 845.93,-55.34 839.61,-54.71 840.6,-58.79"/>
</g>
<!-- packages/UI/view/dist/index.js -->
<g id="node11" class="node">
<title>packages/UI/view/dist/index.js</title>
<g id="a_node11"><a xlink:href="packages/UI/view/dist/index.js" xlink:title="index.js">
<polygon fill="#ffffcc" stroke="black" points="900,-311 898.5,-313 888,-313 886.5,-311 846,-311 846,-293 900,-293 900,-311"/>
<text text-anchor="start" x="855.5" y="-299.8" font-family="Helvetica,sans-Serif" font-size="9.00">index.js</text>
</a>
</g>
</g>
<!-- packages/UI/piano&#45;roll/beat&#45;view/src/beat&#45;bar&#45;series.ts&#45;&gt;packages/UI/view/dist/index.js -->
<g id="edge7" class="edge">
<title>packages/UI/piano&#45;roll/beat&#45;view/src/beat&#45;bar&#45;series.ts&#45;&gt;packages/UI/view/dist/index.js</title>
<path fill="none" stroke="#000000" stroke-width="2" stroke-opacity="0.200000" d="M287.21,-290.28C316.16,-341.86 456,-591 456,-591 456,-591 456,-591 584,-591 584,-591 635,-559 635,-559 635,-559 810.59,-368.6 859.49,-315.56"/>
<polygon fill="#000000" fill-opacity="0.200000" stroke="#000000" stroke-width="2" stroke-opacity="0.200000" points="861.04,-316.98 863.57,-311.15 857.95,-314.13 861.04,-316.98"/>
</g>
<!-- packages/UI/piano&#45;roll/beat&#45;view/src/beat&#45;bar/beat&#45;bar.ts -->
<g id="node14" class="node">
<title>packages/UI/piano&#45;roll/beat&#45;view/src/beat&#45;bar/beat&#45;bar.ts</title>
<g id="a_node14"><a xlink:href="packages/UI/piano-roll/beat-view/src/beat-bar/beat-bar.ts" xlink:title="beat&#45;bar.ts">
<path fill="#ddfeff" stroke="black" d="M483.5,-290C483.5,-290 430.5,-290 430.5,-290 427.5,-290 424.5,-287 424.5,-284 424.5,-284 424.5,-278 424.5,-278 424.5,-275 427.5,-272 430.5,-272 430.5,-272 483.5,-272 483.5,-272 486.5,-272 489.5,-275 489.5,-278 489.5,-278 489.5,-284 489.5,-284 489.5,-287 486.5,-290 483.5,-290"/>
<text text-anchor="start" x="432.5" y="-278.8" font-family="Helvetica,sans-Serif" font-size="9.00">beat&#45;bar.ts</text>
</a>
</g>
</g>
<!-- packages/UI/piano&#45;roll/beat&#45;view/src/beat&#45;bar/index.ts&#45;&gt;packages/UI/piano&#45;roll/beat&#45;view/src/beat&#45;bar/beat&#45;bar.ts -->
<g id="edge19" class="edge">
<title>packages/UI/piano&#45;roll/beat&#45;view/src/beat&#45;bar/index.ts&#45;&gt;packages/UI/piano&#45;roll/beat&#45;view/src/beat&#45;bar/beat&#45;bar.ts</title>
<path fill="none" stroke="#000000" stroke-width="2" stroke-opacity="0.200000" d="M398.12,-281C404.46,-281 411.37,-281 418.13,-281"/>
<polygon fill="#000000" fill-opacity="0.200000" stroke="#000000" stroke-width="2" stroke-opacity="0.200000" points="424.28,-283.1 418.28,-281 424.28,-278.9 424.28,-283.1"/>
</g>
<!-- packages/UI/piano&#45;roll/beat&#45;view/src/requirement/index.ts&#45;&gt;packages/UI/piano&#45;roll/beat&#45;view/src/requirement/beat&#45;elements.ts -->
<g id="edge29" class="edge">
<title>packages/UI/piano&#45;roll/beat&#45;view/src/requirement/index.ts&#45;&gt;packages/UI/piano&#45;roll/beat&#45;view/src/requirement/beat&#45;elements.ts</title>
<path fill="none" stroke="#000000" stroke-width="2" stroke-opacity="0.200000" d="M398.12,-207C400.27,-207 402.48,-207 404.73,-207"/>
<polygon fill="#000000" fill-opacity="0.200000" stroke="#000000" stroke-width="2" stroke-opacity="0.200000" points="410.76,-209.1 404.76,-207 410.76,-204.9 410.76,-209.1"/>
</g>
<!-- packages/UI/piano&#45;roll/beat&#45;view/src/requirement/index.ts&#45;&gt;packages/UI/piano&#45;roll/beat&#45;view/src/requirement/beat&#45;bar&#45;series.ts -->
<g id="edge28" class="edge">
<title>packages/UI/piano&#45;roll/beat&#45;view/src/requirement/index.ts&#45;&gt;packages/UI/piano&#45;roll/beat&#45;view/src/requirement/beat&#45;bar&#45;series.ts</title>
<path fill="none" stroke="#000000" stroke-width="2" stroke-opacity="0.200000" d="M395.59,-197.93C403.8,-194.77 411,-192 411,-192 411,-192 503,-192 503,-192 503,-192 515,-194.28 529.64,-197.06"/>
<polygon fill="#000000" fill-opacity="0.200000" stroke="#000000" stroke-width="2" stroke-opacity="0.200000" points="535.2,-200.25 529.69,-197.07 535.98,-196.12 535.2,-200.25"/>
</g>
<!-- packages/UI/piano&#45;roll/beat&#45;view/src/beat&#45;bar/beat&#45;bar&#45;model.ts -->
<g id="node12" class="node">
<title>packages/UI/piano&#45;roll/beat&#45;view/src/beat&#45;bar/beat&#45;bar&#45;model.ts</title>
<g id="a_node12"><a xlink:href="packages/UI/piano-roll/beat-view/src/beat-bar/beat-bar-model.ts" xlink:title="beat&#45;bar&#45;model.ts">
<path fill="#ddfeff" stroke="black" d="M754,-276C754,-276 670,-276 670,-276 667,-276 664,-273 664,-270 664,-270 664,-264 664,-264 664,-261 667,-258 670,-258 670,-258 754,-258 754,-258 757,-258 760,-261 760,-264 760,-264 760,-270 760,-270 760,-273 757,-276 754,-276"/>
<text text-anchor="start" x="672" y="-264.8" font-family="Helvetica,sans-Serif" font-size="9.00">beat&#45;bar&#45;model.ts</text>
</a>
</g>
</g>
<!-- packages/UI/piano&#45;roll/beat&#45;view/src/beat&#45;bar/beat&#45;bar&#45;model.ts&#45;&gt;packages/music&#45;structure/beat/beat&#45;estimation/dist/index.js -->
<g id="edge8" class="edge">
<title>packages/UI/piano&#45;roll/beat&#45;view/src/beat&#45;bar/beat&#45;bar&#45;model.ts&#45;&gt;packages/music&#45;structure/beat/beat&#45;estimation/dist/index.js</title>
<path fill="none" stroke="#000000" stroke-width="2" stroke-opacity="0.200000" d="M716.62,-276.11C737.26,-328.04 840.11,-586.78 866.05,-652.04"/>
<polygon fill="#000000" fill-opacity="0.200000" stroke="#000000" stroke-width="2" stroke-opacity="0.200000" points="864.15,-652.93 868.32,-657.73 868.05,-651.38 864.15,-652.93"/>
</g>
<!-- packages/UI/piano&#45;roll/beat&#45;view/src/beat&#45;bar/beat&#45;bar&#45;model.ts&#45;&gt;packages/util/time&#45;and/dist/index.js -->
<g id="edge9" class="edge">
<title>packages/UI/piano&#45;roll/beat&#45;view/src/beat&#45;bar/beat&#45;bar&#45;model.ts&#45;&gt;packages/util/time&#45;and/dist/index.js</title>
<path fill="none" stroke="#000000" stroke-width="2" stroke-opacity="0.200000" d="M745.59,-257.92C767.35,-251.86 792,-245 792,-245 792,-245 808,-187 808,-187 808,-187 848.72,-99.21 865.2,-63.67"/>
<polygon fill="#000000" fill-opacity="0.200000" stroke="#000000" stroke-width="2" stroke-opacity="0.200000" points="867.18,-64.38 867.8,-58.05 863.37,-62.61 867.18,-64.38"/>
</g>
<!-- packages/UI/piano&#45;roll/beat&#45;view/src/beat&#45;bar/beat&#45;bar&#45;view.ts -->
<g id="node13" class="node">
<title>packages/UI/piano&#45;roll/beat&#45;view/src/beat&#45;bar/beat&#45;bar&#45;view.ts</title>
<g id="a_node13"><a xlink:href="packages/UI/piano-roll/beat-view/src/beat-bar/beat-bar-view.ts" xlink:title="beat&#45;bar&#45;view.ts">
<path fill="#ddfeff" stroke="black" d="M621,-290C621,-290 545,-290 545,-290 542,-290 539,-287 539,-284 539,-284 539,-278 539,-278 539,-275 542,-272 545,-272 545,-272 621,-272 621,-272 624,-272 627,-275 627,-278 627,-278 627,-284 627,-284 627,-287 624,-290 621,-290"/>
<text text-anchor="start" x="547" y="-278.8" font-family="Helvetica,sans-Serif" font-size="9.00">beat&#45;bar&#45;view.ts</text>
</a>
</g>
</g>
<!-- packages/UI/piano&#45;roll/beat&#45;view/src/beat&#45;bar/beat&#45;bar&#45;view.ts&#45;&gt;packages/UI/view/dist/index.js -->
<g id="edge11" class="edge">
<title>packages/UI/piano&#45;roll/beat&#45;view/src/beat&#45;bar/beat&#45;bar&#45;view.ts&#45;&gt;packages/UI/view/dist/index.js</title>
<path fill="none" stroke="#000000" stroke-width="2" stroke-opacity="0.200000" d="M627.12,-284.14C685.32,-288.39 787.72,-295.85 839.73,-299.65"/>
<polygon fill="#000000" fill-opacity="0.200000" stroke="#000000" stroke-width="2" stroke-opacity="0.200000" points="839.68,-301.75 845.81,-300.09 839.98,-297.56 839.68,-301.75"/>
</g>
<!-- packages/UI/piano&#45;roll/beat&#45;view/src/beat&#45;bar/beat&#45;bar&#45;view.ts&#45;&gt;packages/UI/piano&#45;roll/beat&#45;view/src/beat&#45;bar/beat&#45;bar&#45;model.ts -->
<g id="edge10" class="edge">
<title>packages/UI/piano&#45;roll/beat&#45;view/src/beat&#45;bar/beat&#45;bar&#45;view.ts&#45;&gt;packages/UI/piano&#45;roll/beat&#45;view/src/beat&#45;bar/beat&#45;bar&#45;model.ts</title>
<path fill="none" stroke="#000000" stroke-width="2" stroke-opacity="0.200000" d="M627.35,-276.22C637.11,-275.15 647.58,-273.99 657.69,-272.88"/>
<polygon fill="#000000" fill-opacity="0.200000" stroke="#000000" stroke-width="2" stroke-opacity="0.200000" points="658.2,-274.93 663.93,-272.19 657.74,-270.76 658.2,-274.93"/>
</g>
<!-- packages/UI/piano&#45;roll/beat&#45;view/src/beat&#45;bar/beat&#45;bar.ts&#45;&gt;packages/music&#45;structure/beat/beat&#45;estimation/dist/index.js -->
<g id="edge14" class="edge">
<title>packages/UI/piano&#45;roll/beat&#45;view/src/beat&#45;bar/beat&#45;bar.ts&#45;&gt;packages/music&#45;structure/beat/beat&#45;estimation/dist/index.js</title>
<path fill="none" stroke="#000000" stroke-width="2" stroke-opacity="0.200000" d="M460.46,-290.25C473.3,-338.49 532,-559 532,-559 532,-559 792,-627 792,-627 792,-627 824.78,-643.39 848.37,-655.19"/>
<polygon fill="#000000" fill-opacity="0.200000" stroke="#000000" stroke-width="2" stroke-opacity="0.200000" points="847.54,-657.12 853.85,-657.92 849.42,-653.36 847.54,-657.12"/>
</g>
<!-- packages/UI/piano&#45;roll/beat&#45;view/src/beat&#45;bar/beat&#45;bar.ts&#45;&gt;packages/util/time&#45;and/dist/index.js -->
<g id="edge16" class="edge">
<title>packages/UI/piano&#45;roll/beat&#45;view/src/beat&#45;bar/beat&#45;bar.ts&#45;&gt;packages/util/time&#45;and/dist/index.js</title>
<path fill="none" stroke="#000000" stroke-width="2" stroke-opacity="0.200000" d="M469.36,-271.92C482.69,-261.25 503,-245 503,-245 503,-245 532,-173 532,-173 532,-173 792,-123 792,-123 792,-123 834.56,-83.63 857.59,-62.33"/>
<polygon fill="#000000" fill-opacity="0.200000" stroke="#000000" stroke-width="2" stroke-opacity="0.200000" points="859.21,-63.69 862.19,-58.07 856.36,-60.61 859.21,-63.69"/>
</g>
<!-- packages/UI/piano&#45;roll/beat&#45;view/src/beat&#45;bar/beat&#45;bar.ts&#45;&gt;packages/UI/view/dist/index.js -->
<g id="edge17" class="edge">
<title>packages/UI/piano&#45;roll/beat&#45;view/src/beat&#45;bar/beat&#45;bar.ts&#45;&gt;packages/UI/view/dist/index.js</title>
<path fill="none" stroke="#000000" stroke-width="2" stroke-opacity="0.200000" d="M489.81,-287.45C509.87,-291.51 532,-296 532,-296 532,-296 754.97,-299.93 839.78,-301.43"/>
<polygon fill="#000000" fill-opacity="0.200000" stroke="#000000" stroke-width="2" stroke-opacity="0.200000" points="839.85,-303.53 845.89,-301.54 839.92,-299.33 839.85,-303.53"/>
</g>
<!-- packages/UI/piano&#45;roll/beat&#45;view/src/beat&#45;bar/beat&#45;bar.ts&#45;&gt;packages/UI/piano&#45;roll/beat&#45;view/src/beat&#45;bar/beat&#45;bar&#45;model.ts -->
<g id="edge12" class="edge">
<title>packages/UI/piano&#45;roll/beat&#45;view/src/beat&#45;bar/beat&#45;bar.ts&#45;&gt;packages/UI/piano&#45;roll/beat&#45;view/src/beat&#45;bar/beat&#45;bar&#45;model.ts</title>
<path fill="none" stroke="#000000" stroke-width="2" stroke-opacity="0.200000" d="M489.81,-274.55C509.87,-270.49 532,-266 532,-266 532,-266 635,-266 635,-266 635,-266 644.98,-266.13 657.72,-266.3"/>
<polygon fill="#000000" fill-opacity="0.200000" stroke="#000000" stroke-width="2" stroke-opacity="0.200000" points="657.71,-268.4 663.73,-266.38 657.76,-264.2 657.71,-268.4"/>
</g>
<!-- packages/UI/piano&#45;roll/beat&#45;view/src/beat&#45;bar/beat&#45;bar.ts&#45;&gt;packages/UI/piano&#45;roll/beat&#45;view/src/beat&#45;bar/beat&#45;bar&#45;view.ts -->
<g id="edge13" class="edge">
<title>packages/UI/piano&#45;roll/beat&#45;view/src/beat&#45;bar/beat&#45;bar.ts&#45;&gt;packages/UI/piano&#45;roll/beat&#45;view/src/beat&#45;bar/beat&#45;bar&#45;view.ts</title>
<path fill="none" stroke="#000000" stroke-width="2" stroke-opacity="0.200000" d="M489.61,-281C502.67,-281 518.12,-281 532.61,-281"/>
<polygon fill="#000000" fill-opacity="0.200000" stroke="#000000" stroke-width="2" stroke-opacity="0.200000" points="532.75,-283.1 538.75,-281 532.75,-278.9 532.75,-283.1"/>
</g>
<!-- packages/UI/synth/dist/index.js -->
<g id="node15" class="node">
<title>packages/UI/synth/dist/index.js</title>
<g id="a_node15"><a xlink:href="packages/UI/synth/dist/index.js" xlink:title="index.js">
<polygon fill="#ffffcc" stroke="black" points="610,-436 608.5,-438 598,-438 596.5,-436 556,-436 556,-418 610,-418 610,-436"/>
<text text-anchor="start" x="565.5" y="-424.8" font-family="Helvetica,sans-Serif" font-size="9.00">index.js</text>
</a>
</g>
</g>
<!-- packages/UI/piano&#45;roll/beat&#45;view/src/beat&#45;bar/beat&#45;bar.ts&#45;&gt;packages/UI/synth/dist/index.js -->
<g id="edge15" class="edge">
<title>packages/UI/piano&#45;roll/beat&#45;view/src/beat&#45;bar/beat&#45;bar.ts&#45;&gt;packages/UI/synth/dist/index.js</title>
<path fill="none" stroke="#000000" stroke-width="2" stroke-opacity="0.200000" d="M465.76,-290.13C486.81,-314.92 545.11,-383.57 570.23,-413.15"/>
<polygon fill="#000000" fill-opacity="0.200000" stroke="#000000" stroke-width="2" stroke-opacity="0.200000" points="568.76,-414.66 574.25,-417.87 571.96,-411.94 568.76,-414.66"/>
</g>
<!-- packages/UI/view&#45;parameters/dist/index.js -->
<g id="node16" class="node">
<title>packages/UI/view&#45;parameters/dist/index.js</title>
<g id="a_node16"><a xlink:href="packages/UI/view-parameters/dist/index.js" xlink:title="index.js">
<polygon fill="#ffffcc" stroke="black" points="610,-530 608.5,-532 598,-532 596.5,-530 556,-530 556,-512 610,-512 610,-530"/>
<text text-anchor="start" x="565.5" y="-518.8" font-family="Helvetica,sans-Serif" font-size="9.00">index.js</text>
</a>
</g>
</g>
<!-- packages/UI/piano&#45;roll/beat&#45;view/src/beat&#45;bar/beat&#45;bar.ts&#45;&gt;packages/UI/view&#45;parameters/dist/index.js -->
<g id="edge18" class="edge">
<title>packages/UI/piano&#45;roll/beat&#45;view/src/beat&#45;bar/beat&#45;bar.ts&#45;&gt;packages/UI/view&#45;parameters/dist/index.js</title>
<path fill="none" stroke="#000000" stroke-width="2" stroke-opacity="0.200000" d="M461.67,-290.12C476.6,-327.25 532,-465 532,-465 532,-465 554.62,-490.33 569.43,-506.92"/>
<polygon fill="#000000" fill-opacity="0.200000" stroke="#000000" stroke-width="2" stroke-opacity="0.200000" points="568.18,-508.68 573.74,-511.75 571.31,-505.88 568.18,-508.68"/>
</g>
<!-- packages/UI/piano&#45;roll/beat&#45;view/src/requirement/beat&#45;bar.ts -->
<g id="node18" class="node">
<title>packages/UI/piano&#45;roll/beat&#45;view/src/requirement/beat&#45;bar.ts</title>
<g id="a_node18"><a xlink:href="packages/UI/piano-roll/beat-view/src/requirement/beat-bar.ts" xlink:title="beat&#45;bar.ts">
<path fill="#ddfeff" stroke="black" d="M738.5,-216C738.5,-216 685.5,-216 685.5,-216 682.5,-216 679.5,-213 679.5,-210 679.5,-210 679.5,-204 679.5,-204 679.5,-201 682.5,-198 685.5,-198 685.5,-198 738.5,-198 738.5,-198 741.5,-198 744.5,-201 744.5,-204 744.5,-204 744.5,-210 744.5,-210 744.5,-213 741.5,-216 738.5,-216"/>
<text text-anchor="start" x="687.5" y="-204.8" font-family="Helvetica,sans-Serif" font-size="9.00">beat&#45;bar.ts</text>
</a>
</g>
</g>
<!-- packages/UI/piano&#45;roll/beat&#45;view/src/requirement/beat&#45;bar&#45;series.ts&#45;&gt;packages/UI/piano&#45;roll/beat&#45;view/src/requirement/beat&#45;bar.ts -->
<g id="edge24" class="edge">
<title>packages/UI/piano&#45;roll/beat&#45;view/src/requirement/beat&#45;bar&#45;series.ts&#45;&gt;packages/UI/piano&#45;roll/beat&#45;view/src/requirement/beat&#45;bar.ts</title>
<path fill="none" stroke="#000000" stroke-width="2" stroke-opacity="0.200000" d="M630.21,-207C644.35,-207 659.74,-207 673.25,-207"/>
<polygon fill="#000000" fill-opacity="0.200000" stroke="#000000" stroke-width="2" stroke-opacity="0.200000" points="673.32,-209.1 679.32,-207 673.32,-204.9 673.32,-209.1"/>
</g>
<!-- packages/UI/piano&#45;roll/beat&#45;view/src/requirement/beat&#45;bar.ts&#45;&gt;packages/UI/controllers/dist/index.js -->
<g id="edge25" class="edge">
<title>packages/UI/piano&#45;roll/beat&#45;view/src/requirement/beat&#45;bar.ts&#45;&gt;packages/UI/controllers/dist/index.js</title>
<path fill="none" stroke="#000000" stroke-width="2" stroke-opacity="0.200000" d="M744.79,-207C772.34,-207 812.03,-207 839.72,-207"/>
<polygon fill="#000000" fill-opacity="0.200000" stroke="#000000" stroke-width="2" stroke-opacity="0.200000" points="839.79,-209.1 845.79,-207 839.79,-204.9 839.79,-209.1"/>
</g>
<!-- packages/UI/piano&#45;roll/beat&#45;view/src/requirement/beat&#45;bar.ts&#45;&gt;packages/UI/view/dist/index.js -->
<g id="edge26" class="edge">
<title>packages/UI/piano&#45;roll/beat&#45;view/src/requirement/beat&#45;bar.ts&#45;&gt;packages/UI/view/dist/index.js</title>
<path fill="none" stroke="#000000" stroke-width="2" stroke-opacity="0.200000" d="M730.93,-216.08C754.23,-227.88 792,-247 792,-247 792,-247 830.09,-273.19 853.7,-289.42"/>
<polygon fill="#000000" fill-opacity="0.200000" stroke="#000000" stroke-width="2" stroke-opacity="0.200000" points="852.66,-291.25 858.79,-292.92 855.04,-287.79 852.66,-291.25"/>
</g>
</g>
</svg>
