<?xml version="1.0" encoding="UTF-8" standalone="no"?>
<!DOCTYPE svg PUBLIC "-//W3C//DTD SVG 1.1//EN"
 "http://www.w3.org/Graphics/SVG/1.1/DTD/svg11.dtd">
<!-- Generated by graphviz version 2.43.0 (0)
 -->
<!-- Title: dependency&#45;cruiser output Pages: 1 -->
<svg width="1004pt" height="540pt"
 viewBox="0.00 0.00 1003.50 540.00" xmlns="http://www.w3.org/2000/svg" xmlns:xlink="http://www.w3.org/1999/xlink">
<g id="graph0" class="graph" transform="scale(1 1) rotate(0) translate(4 536)">
<title>dependency&#45;cruiser output</title>
<polygon fill="white" stroke="transparent" points="-4,4 -4,-536 999.5,-536 999.5,4 -4,4"/>
<g id="clust1" class="cluster">
<title>cluster_packages</title>
<path fill="#ffffff" stroke="black" stroke-width="2" d="M15,-8C15,-8 981.5,-8 981.5,-8 987.5,-8 993.5,-14 993.5,-20 993.5,-20 993.5,-512 993.5,-512 993.5,-518 987.5,-524 981.5,-524 981.5,-524 15,-524 15,-524 9,-524 3,-518 3,-512 3,-512 3,-20 3,-20 3,-14 9,-8 15,-8"/>
<text text-anchor="middle" x="498.25" y="-512.8" font-family="Helvetica,sans-Serif" font-weight="bold" font-size="9.00">packages</text>
</g>
<g id="clust2" class="cluster">
<title>cluster_packages/UI</title>
<path fill="#ffffff" stroke="black" stroke-width="2" d="M23,-16C23,-16 827.5,-16 827.5,-16 833.5,-16 839.5,-22 839.5,-28 839.5,-28 839.5,-470 839.5,-470 839.5,-476 833.5,-482 827.5,-482 827.5,-482 23,-482 23,-482 17,-482 11,-476 11,-470 11,-470 11,-28 11,-28 11,-22 17,-16 23,-16"/>
<text text-anchor="middle" x="425.25" y="-470.8" font-family="Helvetica,sans-Serif" font-weight="bold" font-size="9.00">UI</text>
</g>
<g id="clust3" class="cluster">
<title>cluster_packages/UI/controllers</title>
<path fill="#ffffff" stroke="black" stroke-width="2" d="M395.5,-360C395.5,-360 457.5,-360 457.5,-360 463.5,-360 469.5,-366 469.5,-372 469.5,-372 469.5,-434 469.5,-434 469.5,-440 463.5,-446 457.5,-446 457.5,-446 395.5,-446 395.5,-446 389.5,-446 383.5,-440 383.5,-434 383.5,-434 383.5,-372 383.5,-372 383.5,-366 389.5,-360 395.5,-360"/>
<text text-anchor="middle" x="426.5" y="-434.8" font-family="Helvetica,sans-Serif" font-weight="bold" font-size="9.00">controllers</text>
</g>
<g id="clust4" class="cluster">
<title>cluster_packages/UI/controllers/dist</title>
<path fill="#ffffff" stroke="black" stroke-width="2" d="M403.5,-368C403.5,-368 449.5,-368 449.5,-368 455.5,-368 461.5,-374 461.5,-380 461.5,-380 461.5,-408 461.5,-408 461.5,-414 455.5,-420 449.5,-420 449.5,-420 403.5,-420 403.5,-420 397.5,-420 391.5,-414 391.5,-408 391.5,-408 391.5,-380 391.5,-380 391.5,-374 397.5,-368 403.5,-368"/>
<text text-anchor="middle" x="426.5" y="-408.8" font-family="Helvetica,sans-Serif" font-weight="bold" font-size="9.00">dist</text>
</g>
<g id="clust5" class="cluster">
<title>cluster_packages/UI/piano&#45;roll</title>
<path fill="#ffffff" stroke="black" stroke-width="2" d="M31,-24C31,-24 819.5,-24 819.5,-24 825.5,-24 831.5,-30 831.5,-36 831.5,-36 831.5,-232 831.5,-232 831.5,-238 825.5,-244 819.5,-244 819.5,-244 31,-244 31,-244 25,-244 19,-238 19,-232 19,-232 19,-36 19,-36 19,-30 25,-24 31,-24"/>
<text text-anchor="middle" x="425.25" y="-232.8" font-family="Helvetica,sans-Serif" font-weight="bold" font-size="9.00">piano&#45;roll</text>
</g>
<g id="clust6" class="cluster">
<title>cluster_packages/UI/piano&#45;roll/beat&#45;view</title>
<path fill="#ffffff" stroke="black" stroke-width="2" d="M39,-32C39,-32 811.5,-32 811.5,-32 817.5,-32 823.5,-38 823.5,-44 823.5,-44 823.5,-206 823.5,-206 823.5,-212 817.5,-218 811.5,-218 811.5,-218 39,-218 39,-218 33,-218 27,-212 27,-206 27,-206 27,-44 27,-44 27,-38 33,-32 39,-32"/>
<text text-anchor="middle" x="425.25" y="-206.8" font-family="Helvetica,sans-Serif" font-weight="bold" font-size="9.00">beat&#45;view</text>
</g>
<g id="clust7" class="cluster">
<title>cluster_packages/UI/piano&#45;roll/beat&#45;view/src</title>
<path fill="#ffffff" stroke="black" stroke-width="2" d="M47,-66C47,-66 803.5,-66 803.5,-66 809.5,-66 815.5,-72 815.5,-78 815.5,-78 815.5,-154 815.5,-154 815.5,-160 809.5,-166 803.5,-166 803.5,-166 47,-166 47,-166 41,-166 35,-160 35,-154 35,-154 35,-78 35,-78 35,-72 41,-66 47,-66"/>
<text text-anchor="middle" x="425.25" y="-154.8" font-family="Helvetica,sans-Serif" font-weight="bold" font-size="9.00">src</text>
</g>
<g id="clust8" class="cluster">
<title>cluster_packages/UI/piano&#45;roll/beat&#45;view/src/beat&#45;bar</title>
<path fill="#ffffff" stroke="black" stroke-width="2" d="M403.5,-74C403.5,-74 795.5,-74 795.5,-74 801.5,-74 807.5,-80 807.5,-86 807.5,-86 807.5,-128 807.5,-128 807.5,-134 801.5,-140 795.5,-140 795.5,-140 403.5,-140 403.5,-140 397.5,-140 391.5,-134 391.5,-128 391.5,-128 391.5,-86 391.5,-86 391.5,-80 397.5,-74 403.5,-74"/>
<text text-anchor="middle" x="599.5" y="-128.8" font-family="Helvetica,sans-Serif" font-weight="bold" font-size="9.00">beat&#45;bar</text>
</g>
<g id="clust9" class="cluster">
<title>cluster_packages/UI/piano&#45;roll/beat&#45;view/src/requirement</title>
<path fill="#ffffff" stroke="black" stroke-width="2" d="M55,-88C55,-88 112,-88 112,-88 118,-88 124,-94 124,-100 124,-100 124,-128 124,-128 124,-134 118,-140 112,-140 112,-140 55,-140 55,-140 49,-140 43,-134 43,-128 43,-128 43,-100 43,-100 43,-94 49,-88 55,-88"/>
<text text-anchor="middle" x="83.5" y="-128.8" font-family="Helvetica,sans-Serif" font-weight="bold" font-size="9.00">requirement</text>
</g>
<g id="clust10" class="cluster">
<title>cluster_packages/UI/synth</title>
<path fill="#ffffff" stroke="black" stroke-width="2" d="M591.5,-252C591.5,-252 653.5,-252 653.5,-252 659.5,-252 665.5,-258 665.5,-264 665.5,-264 665.5,-326 665.5,-326 665.5,-332 659.5,-338 653.5,-338 653.5,-338 591.5,-338 591.5,-338 585.5,-338 579.5,-332 579.5,-326 579.5,-326 579.5,-264 579.5,-264 579.5,-258 585.5,-252 591.5,-252"/>
<text text-anchor="middle" x="622.5" y="-326.8" font-family="Helvetica,sans-Serif" font-weight="bold" font-size="9.00">synth</text>
</g>
<g id="clust11" class="cluster">
<title>cluster_packages/UI/synth/dist</title>
<path fill="#ffffff" stroke="black" stroke-width="2" d="M599.5,-260C599.5,-260 645.5,-260 645.5,-260 651.5,-260 657.5,-266 657.5,-272 657.5,-272 657.5,-300 657.5,-300 657.5,-306 651.5,-312 645.5,-312 645.5,-312 599.5,-312 599.5,-312 593.5,-312 587.5,-306 587.5,-300 587.5,-300 587.5,-272 587.5,-272 587.5,-266 593.5,-260 599.5,-260"/>
<text text-anchor="middle" x="622.5" y="-300.8" font-family="Helvetica,sans-Serif" font-weight="bold" font-size="9.00">dist</text>
</g>
<g id="clust12" class="cluster">
<title>cluster_packages/UI/view&#45;parameters</title>
<path fill="#ffffff" stroke="black" stroke-width="2" d="M583.5,-346C583.5,-346 662.5,-346 662.5,-346 668.5,-346 674.5,-352 674.5,-358 674.5,-358 674.5,-420 674.5,-420 674.5,-426 668.5,-432 662.5,-432 662.5,-432 583.5,-432 583.5,-432 577.5,-432 571.5,-426 571.5,-420 571.5,-420 571.5,-358 571.5,-358 571.5,-352 577.5,-346 583.5,-346"/>
<text text-anchor="middle" x="623" y="-420.8" font-family="Helvetica,sans-Serif" font-weight="bold" font-size="9.00">view&#45;parameters</text>
</g>
<g id="clust13" class="cluster">
<title>cluster_packages/UI/view&#45;parameters/dist</title>
<path fill="#ffffff" stroke="black" stroke-width="2" d="M599.5,-354C599.5,-354 645.5,-354 645.5,-354 651.5,-354 657.5,-360 657.5,-366 657.5,-366 657.5,-394 657.5,-394 657.5,-400 651.5,-406 645.5,-406 645.5,-406 599.5,-406 599.5,-406 593.5,-406 587.5,-400 587.5,-394 587.5,-394 587.5,-366 587.5,-366 587.5,-360 593.5,-354 599.5,-354"/>
<text text-anchor="middle" x="622.5" y="-394.8" font-family="Helvetica,sans-Serif" font-weight="bold" font-size="9.00">dist</text>
</g>
<g id="clust14" class="cluster">
<title>cluster_packages/UI/view</title>
<path fill="#ffffff" stroke="black" stroke-width="2" d="M720.5,-311C720.5,-311 782.5,-311 782.5,-311 788.5,-311 794.5,-317 794.5,-323 794.5,-323 794.5,-385 794.5,-385 794.5,-391 788.5,-397 782.5,-397 782.5,-397 720.5,-397 720.5,-397 714.5,-397 708.5,-391 708.5,-385 708.5,-385 708.5,-323 708.5,-323 708.5,-317 714.5,-311 720.5,-311"/>
<text text-anchor="middle" x="751.5" y="-385.8" font-family="Helvetica,sans-Serif" font-weight="bold" font-size="9.00">view</text>
</g>
<g id="clust15" class="cluster">
<title>cluster_packages/UI/view/dist</title>
<path fill="#ffffff" stroke="black" stroke-width="2" d="M728.5,-319C728.5,-319 774.5,-319 774.5,-319 780.5,-319 786.5,-325 786.5,-331 786.5,-331 786.5,-359 786.5,-359 786.5,-365 780.5,-371 774.5,-371 774.5,-371 728.5,-371 728.5,-371 722.5,-371 716.5,-365 716.5,-359 716.5,-359 716.5,-331 716.5,-331 716.5,-325 722.5,-319 728.5,-319"/>
<text text-anchor="middle" x="751.5" y="-359.8" font-family="Helvetica,sans-Serif" font-weight="bold" font-size="9.00">dist</text>
</g>
<g id="clust16" class="cluster">
<title>cluster_packages/music&#45;structure</title>
<path fill="#ffffff" stroke="black" stroke-width="2" d="M867.5,-344C867.5,-344 973.5,-344 973.5,-344 979.5,-344 985.5,-350 985.5,-356 985.5,-356 985.5,-486 985.5,-486 985.5,-492 979.5,-498 973.5,-498 973.5,-498 867.5,-498 867.5,-498 861.5,-498 855.5,-492 855.5,-486 855.5,-486 855.5,-356 855.5,-356 855.5,-350 861.5,-344 867.5,-344"/>
<text text-anchor="middle" x="920.5" y="-486.8" font-family="Helvetica,sans-Serif" font-weight="bold" font-size="9.00">music&#45;structure</text>
</g>
<g id="clust17" class="cluster">
<title>cluster_packages/music&#45;structure/beat</title>
<path fill="#ffffff" stroke="black" stroke-width="2" d="M875.5,-352C875.5,-352 965.5,-352 965.5,-352 971.5,-352 977.5,-358 977.5,-364 977.5,-364 977.5,-460 977.5,-460 977.5,-466 971.5,-472 965.5,-472 965.5,-472 875.5,-472 875.5,-472 869.5,-472 863.5,-466 863.5,-460 863.5,-460 863.5,-364 863.5,-364 863.5,-358 869.5,-352 875.5,-352"/>
<text text-anchor="middle" x="920.5" y="-460.8" font-family="Helvetica,sans-Serif" font-weight="bold" font-size="9.00">beat</text>
</g>
<g id="clust18" class="cluster">
<title>cluster_packages/music&#45;structure/beat/beat&#45;estimation</title>
<path fill="#ffffff" stroke="black" stroke-width="2" d="M883.5,-360C883.5,-360 957.5,-360 957.5,-360 963.5,-360 969.5,-366 969.5,-372 969.5,-372 969.5,-434 969.5,-434 969.5,-440 963.5,-446 957.5,-446 957.5,-446 883.5,-446 883.5,-446 877.5,-446 871.5,-440 871.5,-434 871.5,-434 871.5,-372 871.5,-372 871.5,-366 877.5,-360 883.5,-360"/>
<text text-anchor="middle" x="920.5" y="-434.8" font-family="Helvetica,sans-Serif" font-weight="bold" font-size="9.00">beat&#45;estimation</text>
</g>
<g id="clust19" class="cluster">
<title>cluster_packages/music&#45;structure/beat/beat&#45;estimation/dist</title>
<path fill="#ffffff" stroke="black" stroke-width="2" d="M897.5,-368C897.5,-368 943.5,-368 943.5,-368 949.5,-368 955.5,-374 955.5,-380 955.5,-380 955.5,-408 955.5,-408 955.5,-414 949.5,-420 943.5,-420 943.5,-420 897.5,-420 897.5,-420 891.5,-420 885.5,-414 885.5,-408 885.5,-408 885.5,-380 885.5,-380 885.5,-374 891.5,-368 897.5,-368"/>
<text text-anchor="middle" x="920.5" y="-408.8" font-family="Helvetica,sans-Serif" font-weight="bold" font-size="9.00">dist</text>
</g>
<g id="clust20" class="cluster">
<title>cluster_packages/util</title>
<path fill="#ffffff" stroke="black" stroke-width="2" d="M881.5,-29C881.5,-29 959.5,-29 959.5,-29 965.5,-29 971.5,-35 971.5,-41 971.5,-41 971.5,-137 971.5,-137 971.5,-143 965.5,-149 959.5,-149 959.5,-149 881.5,-149 881.5,-149 875.5,-149 869.5,-143 869.5,-137 869.5,-137 869.5,-41 869.5,-41 869.5,-35 875.5,-29 881.5,-29"/>
<text text-anchor="middle" x="920.5" y="-137.8" font-family="Helvetica,sans-Serif" font-weight="bold" font-size="9.00">util</text>
</g>
<g id="clust21" class="cluster">
<title>cluster_packages/util/time&#45;and</title>
<path fill="#ffffff" stroke="black" stroke-width="2" d="M889.5,-37C889.5,-37 951.5,-37 951.5,-37 957.5,-37 963.5,-43 963.5,-49 963.5,-49 963.5,-111 963.5,-111 963.5,-117 957.5,-123 951.5,-123 951.5,-123 889.5,-123 889.5,-123 883.5,-123 877.5,-117 877.5,-111 877.5,-111 877.5,-49 877.5,-49 877.5,-43 883.5,-37 889.5,-37"/>
<text text-anchor="middle" x="920.5" y="-111.8" font-family="Helvetica,sans-Serif" font-weight="bold" font-size="9.00">time&#45;and</text>
</g>
<g id="clust22" class="cluster">
<title>cluster_packages/util/time&#45;and/dist</title>
<path fill="#ffffff" stroke="black" stroke-width="2" d="M897.5,-45C897.5,-45 943.5,-45 943.5,-45 949.5,-45 955.5,-51 955.5,-57 955.5,-57 955.5,-85 955.5,-85 955.5,-91 949.5,-97 943.5,-97 943.5,-97 897.5,-97 897.5,-97 891.5,-97 885.5,-91 885.5,-85 885.5,-85 885.5,-57 885.5,-57 885.5,-51 891.5,-45 897.5,-45"/>
<text text-anchor="middle" x="920.5" y="-85.8" font-family="Helvetica,sans-Serif" font-weight="bold" font-size="9.00">dist</text>
</g>
<!-- packages/UI/controllers/dist/index.js -->
<g id="node1" class="node">
<title>packages/UI/controllers/dist/index.js</title>
<g id="a_node1"><a xlink:href="packages/UI/controllers/dist/index.js" xlink:title="index.js">
<polygon fill="#ffffcc" stroke="black" points="453.5,-394 452,-396 441.5,-396 440,-394 399.5,-394 399.5,-376 453.5,-376 453.5,-394"/>
<text text-anchor="start" x="409" y="-382.8" font-family="Helvetica,sans-Serif" font-size="9.00">index.js</text>
</a>
</g>
</g>
<!-- packages/UI/piano&#45;roll/beat&#45;view/index.test.ts -->
<g id="node2" class="node">
<title>packages/UI/piano&#45;roll/beat&#45;view/index.test.ts</title>
<g id="a_node2"><a xlink:href="packages/UI/piano-roll/beat-view/index.test.ts" xlink:title="no&#45;orphans">
<path fill="#ccffcc" stroke="orange" d="M113.5,-192C113.5,-192 52.5,-192 52.5,-192 49.5,-192 46.5,-189 46.5,-186 46.5,-186 46.5,-180 46.5,-180 46.5,-177 49.5,-174 52.5,-174 52.5,-174 113.5,-174 113.5,-174 116.5,-174 119.5,-177 119.5,-180 119.5,-180 119.5,-186 119.5,-186 119.5,-189 116.5,-192 113.5,-192"/>
<text text-anchor="start" x="54.5" y="-180.8" font-family="Helvetica,sans-Serif" font-size="9.00" fill="orange">index.test.ts</text>
</a>
</g>
</g>
<!-- packages/UI/piano&#45;roll/beat&#45;view/index.ts -->
<g id="node3" class="node">
<title>packages/UI/piano&#45;roll/beat&#45;view/index.ts</title>
<g id="a_node3"><a xlink:href="packages/UI/piano-roll/beat-view/index.ts" xlink:title="index.ts">
<path fill="#ddfeff" stroke="black" d="M104,-58C104,-58 62,-58 62,-58 59,-58 56,-55 56,-52 56,-52 56,-46 56,-46 56,-43 59,-40 62,-40 62,-40 104,-40 104,-40 107,-40 110,-43 110,-46 110,-46 110,-52 110,-52 110,-55 107,-58 104,-58"/>
<text text-anchor="start" x="64.5" y="-46.8" font-family="Helvetica,sans-Serif" font-size="9.00">index.ts</text>
</a>
</g>
</g>
<!-- packages/UI/piano&#45;roll/beat&#45;view/src/beat&#45;elements.ts -->
<g id="node4" class="node">
<title>packages/UI/piano&#45;roll/beat&#45;view/src/beat&#45;elements.ts</title>
<g id="a_node4"><a xlink:href="packages/UI/piano-roll/beat-view/src/beat-elements.ts" xlink:title="beat&#45;elements.ts">
<path fill="#ddfeff" stroke="black" d="M262.5,-138C262.5,-138 182.5,-138 182.5,-138 179.5,-138 176.5,-135 176.5,-132 176.5,-132 176.5,-126 176.5,-126 176.5,-123 179.5,-120 182.5,-120 182.5,-120 262.5,-120 262.5,-120 265.5,-120 268.5,-123 268.5,-126 268.5,-126 268.5,-132 268.5,-132 268.5,-135 265.5,-138 262.5,-138"/>
<text text-anchor="start" x="184.5" y="-126.8" font-family="Helvetica,sans-Serif" font-size="9.00">beat&#45;elements.ts</text>
</a>
</g>
</g>
<!-- packages/UI/piano&#45;roll/beat&#45;view/index.ts&#45;&gt;packages/UI/piano&#45;roll/beat&#45;view/src/beat&#45;elements.ts -->
<g id="edge1" class="edge">
<title>packages/UI/piano&#45;roll/beat&#45;view/index.ts&#45;&gt;packages/UI/piano&#45;roll/beat&#45;view/src/beat&#45;elements.ts</title>
<path fill="none" stroke="#000000" stroke-width="2" stroke-opacity="0.200000" d="M99.51,-58.02C124.26,-72.43 172.76,-100.64 200.57,-116.82"/>
<polygon fill="#000000" fill-opacity="0.200000" stroke="#000000" stroke-width="2" stroke-opacity="0.200000" points="204.78,-121.7 200.65,-116.87 206.9,-118.07 204.78,-121.7"/>
</g>
<!-- packages/UI/piano&#45;roll/beat&#45;view/src/beat&#45;elements.ts&#45;&gt;packages/UI/controllers/dist/index.js -->
<g id="edge21" class="edge">
<title>packages/UI/piano&#45;roll/beat&#45;view/src/beat&#45;elements.ts&#45;&gt;packages/UI/controllers/dist/index.js</title>
<path fill="none" stroke="#000000" stroke-width="2" stroke-opacity="0.200000" d="M229.97,-138.14C259.9,-180.42 383.5,-355 383.5,-355 383.5,-355 396.15,-364.03 407.56,-372.19"/>
<polygon fill="#000000" fill-opacity="0.200000" stroke="#000000" stroke-width="2" stroke-opacity="0.200000" points="406.57,-374.06 412.67,-375.84 409.01,-370.64 406.57,-374.06"/>
</g>
<!-- packages/UI/piano&#45;roll/beat&#45;view/src/beat&#45;bar&#45;series.ts -->
<g id="node5" class="node">
<title>packages/UI/piano&#45;roll/beat&#45;view/src/beat&#45;bar&#45;series.ts</title>
<g id="a_node5"><a xlink:href="packages/UI/piano-roll/beat-view/src/beat-bar-series.ts" xlink:title="beat&#45;bar&#45;series.ts">
<path fill="#ddfeff" stroke="black" d="M369.5,-138C369.5,-138 287.5,-138 287.5,-138 284.5,-138 281.5,-135 281.5,-132 281.5,-132 281.5,-126 281.5,-126 281.5,-123 284.5,-120 287.5,-120 287.5,-120 369.5,-120 369.5,-120 372.5,-120 375.5,-123 375.5,-126 375.5,-126 375.5,-132 375.5,-132 375.5,-135 372.5,-138 369.5,-138"/>
<text text-anchor="start" x="289.5" y="-126.8" font-family="Helvetica,sans-Serif" font-size="9.00">beat&#45;bar&#45;series.ts</text>
</a>
</g>
</g>
<!-- packages/UI/piano&#45;roll/beat&#45;view/src/beat&#45;elements.ts&#45;&gt;packages/UI/piano&#45;roll/beat&#45;view/src/beat&#45;bar&#45;series.ts -->
<g id="edge19" class="edge">
<title>packages/UI/piano&#45;roll/beat&#45;view/src/beat&#45;elements.ts&#45;&gt;packages/UI/piano&#45;roll/beat&#45;view/src/beat&#45;bar&#45;series.ts</title>
<path fill="none" stroke="#000000" stroke-width="2" stroke-opacity="0.200000" d="M268.51,-129C270.79,-129 273.08,-129 275.37,-129"/>
<polygon fill="#000000" fill-opacity="0.200000" stroke="#000000" stroke-width="2" stroke-opacity="0.200000" points="275.43,-131.1 281.43,-129 275.43,-126.9 275.43,-131.1"/>
</g>
<!-- packages/music&#45;structure/beat/beat&#45;estimation/dist/index.js -->
<g id="node7" class="node">
<title>packages/music&#45;structure/beat/beat&#45;estimation/dist/index.js</title>
<g id="a_node7"><a xlink:href="packages/music-structure/beat/beat-estimation/dist/index.js" xlink:title="index.js">
<polygon fill="#ffffcc" stroke="black" points="947.5,-394 946,-396 935.5,-396 934,-394 893.5,-394 893.5,-376 947.5,-376 947.5,-394"/>
<text text-anchor="start" x="903" y="-382.8" font-family="Helvetica,sans-Serif" font-size="9.00">index.js</text>
</a>
</g>
</g>
<!-- packages/UI/piano&#45;roll/beat&#45;view/src/beat&#45;elements.ts&#45;&gt;packages/music&#45;structure/beat/beat&#45;estimation/dist/index.js -->
<g id="edge20" class="edge">
<title>packages/UI/piano&#45;roll/beat&#45;view/src/beat&#45;elements.ts&#45;&gt;packages/music&#45;structure/beat/beat&#45;estimation/dist/index.js</title>
<path fill="none" stroke="#000000" stroke-width="2" stroke-opacity="0.200000" d="M225.92,-138.26C236.9,-180.27 281.5,-351 281.5,-351 281.5,-351 425.5,-497 425.5,-497 425.5,-497 425.5,-497 623.5,-497 623.5,-497 674.5,-487 674.5,-487 674.5,-487 839.5,-438 839.5,-438 839.5,-438 876.79,-413.29 900.45,-397.62"/>
<polygon fill="#000000" fill-opacity="0.200000" stroke="#000000" stroke-width="2" stroke-opacity="0.200000" points="901.72,-399.3 905.57,-394.23 899.4,-395.8 901.72,-399.3"/>
</g>
<!-- packages/util/time&#45;and/dist/index.js -->
<g id="node8" class="node">
<title>packages/util/time&#45;and/dist/index.js</title>
<g id="a_node8"><a xlink:href="packages/util/time-and/dist/index.js" xlink:title="index.js">
<polygon fill="#ffffcc" stroke="black" points="947.5,-71 946,-73 935.5,-73 934,-71 893.5,-71 893.5,-53 947.5,-53 947.5,-71"/>
<text text-anchor="start" x="903" y="-59.8" font-family="Helvetica,sans-Serif" font-size="9.00">index.js</text>
</a>
</g>
</g>
<!-- packages/UI/piano&#45;roll/beat&#45;view/src/beat&#45;elements.ts&#45;&gt;packages/util/time&#45;and/dist/index.js -->
<g id="edge22" class="edge">
<title>packages/UI/piano&#45;roll/beat&#45;view/src/beat&#45;elements.ts&#45;&gt;packages/util/time&#45;and/dist/index.js</title>
<path fill="none" stroke="#000000" stroke-width="2" stroke-opacity="0.200000" d="M244.09,-119.86C287.3,-100.69 383.5,-58 383.5,-58 383.5,-58 425.5,-41 425.5,-41 425.5,-41 425.5,-41 623.5,-41 623.5,-41 839.5,-55 839.5,-55 839.5,-55 864.96,-57.23 887.16,-59.17"/>
<polygon fill="#000000" fill-opacity="0.200000" stroke="#000000" stroke-width="2" stroke-opacity="0.200000" points="887.14,-61.28 893.31,-59.71 887.51,-57.09 887.14,-61.28"/>
</g>
<!-- packages/UI/view/dist/index.js -->
<g id="node9" class="node">
<title>packages/UI/view/dist/index.js</title>
<g id="a_node9"><a xlink:href="packages/UI/view/dist/index.js" xlink:title="index.js">
<polygon fill="#ffffcc" stroke="black" points="778.5,-345 777,-347 766.5,-347 765,-345 724.5,-345 724.5,-327 778.5,-327 778.5,-345"/>
<text text-anchor="start" x="734" y="-333.8" font-family="Helvetica,sans-Serif" font-size="9.00">index.js</text>
</a>
</g>
</g>
<!-- packages/UI/piano&#45;roll/beat&#45;view/src/beat&#45;elements.ts&#45;&gt;packages/UI/view/dist/index.js -->
<g id="edge23" class="edge">
<title>packages/UI/piano&#45;roll/beat&#45;view/src/beat&#45;elements.ts&#45;&gt;packages/UI/view/dist/index.js</title>
<path fill="none" stroke="#000000" stroke-width="2" stroke-opacity="0.200000" d="M226.95,-138.17C239.44,-171.33 281.5,-283 281.5,-283 281.5,-283 383.5,-423 383.5,-423 383.5,-423 425.5,-455 425.5,-455 425.5,-455 425.5,-455 511,-455 511,-455 674.5,-413 674.5,-413 674.5,-413 715.34,-371.63 737.14,-349.53"/>
<polygon fill="#000000" fill-opacity="0.200000" stroke="#000000" stroke-width="2" stroke-opacity="0.200000" points="738.76,-350.88 741.48,-345.14 735.77,-347.93 738.76,-350.88"/>
</g>
<!-- packages/UI/piano&#45;roll/beat&#45;view/src/beat&#45;bar&#45;series.ts&#45;&gt;packages/UI/controllers/dist/index.js -->
<g id="edge4" class="edge">
<title>packages/UI/piano&#45;roll/beat&#45;view/src/beat&#45;bar&#45;series.ts&#45;&gt;packages/UI/controllers/dist/index.js</title>
<path fill="none" stroke="#000000" stroke-width="2" stroke-opacity="0.200000" d="M332.66,-138.28C343.05,-168.78 375.5,-264 375.5,-264 375.5,-264 383.5,-355 383.5,-355 383.5,-355 396.15,-364.03 407.56,-372.19"/>
<polygon fill="#000000" fill-opacity="0.200000" stroke="#000000" stroke-width="2" stroke-opacity="0.200000" points="406.57,-374.06 412.67,-375.84 409.01,-370.64 406.57,-374.06"/>
</g>
<!-- packages/UI/piano&#45;roll/beat&#45;view/src/beat&#45;bar/index.ts -->
<g id="node6" class="node">
<title>packages/UI/piano&#45;roll/beat&#45;view/src/beat&#45;bar/index.ts</title>
<g id="a_node6"><a xlink:href="packages/UI/piano-roll/beat-view/src/beat-bar/index.ts" xlink:title="index.ts">
<path fill="#ddfeff" stroke="black" d="M447.5,-114C447.5,-114 405.5,-114 405.5,-114 402.5,-114 399.5,-111 399.5,-108 399.5,-108 399.5,-102 399.5,-102 399.5,-99 402.5,-96 405.5,-96 405.5,-96 447.5,-96 447.5,-96 450.5,-96 453.5,-99 453.5,-102 453.5,-102 453.5,-108 453.5,-108 453.5,-111 450.5,-114 447.5,-114"/>
<text text-anchor="start" x="408" y="-102.8" font-family="Helvetica,sans-Serif" font-size="9.00">index.ts</text>
</a>
</g>
</g>
<!-- packages/UI/piano&#45;roll/beat&#45;view/src/beat&#45;bar&#45;series.ts&#45;&gt;packages/UI/piano&#45;roll/beat&#45;view/src/beat&#45;bar/index.ts -->
<g id="edge2" class="edge">
<title>packages/UI/piano&#45;roll/beat&#45;view/src/beat&#45;bar&#45;series.ts&#45;&gt;packages/UI/piano&#45;roll/beat&#45;view/src/beat&#45;bar/index.ts</title>
<path fill="none" stroke="#000000" stroke-width="2" stroke-opacity="0.200000" d="M365.52,-120C374.68,-117.7 384.47,-115.26 393.42,-113.02"/>
<polygon fill="#000000" fill-opacity="0.200000" stroke="#000000" stroke-width="2" stroke-opacity="0.200000" points="394.16,-115 399.47,-111.51 393.14,-110.93 394.16,-115"/>
</g>
<!-- packages/UI/piano&#45;roll/beat&#45;view/src/beat&#45;bar&#45;series.ts&#45;&gt;packages/music&#45;structure/beat/beat&#45;estimation/dist/index.js -->
<g id="edge3" class="edge">
<title>packages/UI/piano&#45;roll/beat&#45;view/src/beat&#45;bar&#45;series.ts&#45;&gt;packages/music&#45;structure/beat/beat&#45;estimation/dist/index.js</title>
<path fill="none" stroke="#000000" stroke-width="2" stroke-opacity="0.200000" d="M331.18,-138.12C340.29,-187.75 383.5,-423 383.5,-423 383.5,-423 509,-483 509,-483 509,-483 509,-483 623.5,-483 623.5,-483 811.35,-420.81 887.75,-395.51"/>
<polygon fill="#000000" fill-opacity="0.200000" stroke="#000000" stroke-width="2" stroke-opacity="0.200000" points="888.46,-397.49 893.49,-393.61 887.14,-393.5 888.46,-397.49"/>
</g>
<!-- packages/UI/piano&#45;roll/beat&#45;view/src/beat&#45;bar&#45;series.ts&#45;&gt;packages/util/time&#45;and/dist/index.js -->
<g id="edge5" class="edge">
<title>packages/UI/piano&#45;roll/beat&#45;view/src/beat&#45;bar&#45;series.ts&#45;&gt;packages/util/time&#45;and/dist/index.js</title>
<path fill="none" stroke="#000000" stroke-width="2" stroke-opacity="0.200000" d="M337.94,-119.94C353.12,-103.62 383.5,-71 383.5,-71 383.5,-71 509,-55 509,-55 509,-55 509,-55 623.5,-55 623.5,-55 810.59,-59.42 887.29,-61.24"/>
<polygon fill="#000000" fill-opacity="0.200000" stroke="#000000" stroke-width="2" stroke-opacity="0.200000" points="887.44,-63.34 893.49,-61.38 887.54,-59.14 887.44,-63.34"/>
</g>
<!-- packages/UI/piano&#45;roll/beat&#45;view/src/beat&#45;bar&#45;series.ts&#45;&gt;packages/UI/view/dist/index.js -->
<g id="edge6" class="edge">
<title>packages/UI/piano&#45;roll/beat&#45;view/src/beat&#45;bar&#45;series.ts&#45;&gt;packages/UI/view/dist/index.js</title>
<path fill="none" stroke="#000000" stroke-width="2" stroke-opacity="0.200000" d="M337.55,-138.32C379.54,-186.9 571.5,-409 571.5,-409 571.5,-409 674.5,-409 674.5,-409 674.5,-409 714.53,-370.55 736.48,-349.46"/>
<polygon fill="#000000" fill-opacity="0.200000" stroke="#000000" stroke-width="2" stroke-opacity="0.200000" points="738,-350.92 740.87,-345.25 735.09,-347.89 738,-350.92"/>
</g>
<!-- packages/UI/piano&#45;roll/beat&#45;view/src/beat&#45;bar/beat&#45;bar.ts -->
<g id="node12" class="node">
<title>packages/UI/piano&#45;roll/beat&#45;view/src/beat&#45;bar/beat&#45;bar.ts</title>
<g id="a_node12"><a xlink:href="packages/UI/piano-roll/beat-view/src/beat-bar/beat-bar.ts" xlink:title="beat&#45;bar.ts">
<path fill="#ddfeff" stroke="black" d="M536.5,-114C536.5,-114 483.5,-114 483.5,-114 480.5,-114 477.5,-111 477.5,-108 477.5,-108 477.5,-102 477.5,-102 477.5,-99 480.5,-96 483.5,-96 483.5,-96 536.5,-96 536.5,-96 539.5,-96 542.5,-99 542.5,-102 542.5,-102 542.5,-108 542.5,-108 542.5,-111 539.5,-114 536.5,-114"/>
<text text-anchor="start" x="485.5" y="-102.8" font-family="Helvetica,sans-Serif" font-size="9.00">beat&#45;bar.ts</text>
</a>
</g>
</g>
<!-- packages/UI/piano&#45;roll/beat&#45;view/src/beat&#45;bar/index.ts&#45;&gt;packages/UI/piano&#45;roll/beat&#45;view/src/beat&#45;bar/beat&#45;bar.ts -->
<g id="edge18" class="edge">
<title>packages/UI/piano&#45;roll/beat&#45;view/src/beat&#45;bar/index.ts&#45;&gt;packages/UI/piano&#45;roll/beat&#45;view/src/beat&#45;bar/beat&#45;bar.ts</title>
<path fill="none" stroke="#000000" stroke-width="2" stroke-opacity="0.200000" d="M453.74,-105C459.27,-105 465.22,-105 471.09,-105"/>
<polygon fill="#000000" fill-opacity="0.200000" stroke="#000000" stroke-width="2" stroke-opacity="0.200000" points="477.4,-107.1 471.4,-105 477.4,-102.9 477.4,-107.1"/>
</g>
<!-- packages/UI/piano&#45;roll/beat&#45;view/src/beat&#45;bar/beat&#45;bar&#45;model.ts -->
<g id="node10" class="node">
<title>packages/UI/piano&#45;roll/beat&#45;view/src/beat&#45;bar/beat&#45;bar&#45;model.ts</title>
<g id="a_node10"><a xlink:href="packages/UI/piano-roll/beat-view/src/beat-bar/beat-bar-model.ts" xlink:title="beat&#45;bar&#45;model.ts">
<path fill="#ddfeff" stroke="black" d="M793.5,-107C793.5,-107 709.5,-107 709.5,-107 706.5,-107 703.5,-104 703.5,-101 703.5,-101 703.5,-95 703.5,-95 703.5,-92 706.5,-89 709.5,-89 709.5,-89 793.5,-89 793.5,-89 796.5,-89 799.5,-92 799.5,-95 799.5,-95 799.5,-101 799.5,-101 799.5,-104 796.5,-107 793.5,-107"/>
<text text-anchor="start" x="711.5" y="-95.8" font-family="Helvetica,sans-Serif" font-size="9.00">beat&#45;bar&#45;model.ts</text>
</a>
</g>
</g>
<!-- packages/UI/piano&#45;roll/beat&#45;view/src/beat&#45;bar/beat&#45;bar&#45;model.ts&#45;&gt;packages/music&#45;structure/beat/beat&#45;estimation/dist/index.js -->
<g id="edge7" class="edge">
<title>packages/UI/piano&#45;roll/beat&#45;view/src/beat&#45;bar/beat&#45;bar&#45;model.ts&#45;&gt;packages/music&#45;structure/beat/beat&#45;estimation/dist/index.js</title>
<path fill="none" stroke="#000000" stroke-width="2" stroke-opacity="0.200000" d="M757.87,-107.22C782.11,-148.89 881.51,-319.71 911.13,-370.62"/>
<polygon fill="#000000" fill-opacity="0.200000" stroke="#000000" stroke-width="2" stroke-opacity="0.200000" points="909.4,-371.82 914.24,-375.95 913.03,-369.71 909.4,-371.82"/>
</g>
<!-- packages/UI/piano&#45;roll/beat&#45;view/src/beat&#45;bar/beat&#45;bar&#45;model.ts&#45;&gt;packages/util/time&#45;and/dist/index.js -->
<g id="edge8" class="edge">
<title>packages/UI/piano&#45;roll/beat&#45;view/src/beat&#45;bar/beat&#45;bar&#45;model.ts&#45;&gt;packages/util/time&#45;and/dist/index.js</title>
<path fill="none" stroke="#000000" stroke-width="2" stroke-opacity="0.200000" d="M794.64,-88.92C823.27,-82.74 860.57,-74.7 886.92,-69.02"/>
<polygon fill="#000000" fill-opacity="0.200000" stroke="#000000" stroke-width="2" stroke-opacity="0.200000" points="887.62,-71.02 893.04,-67.7 886.73,-66.92 887.62,-71.02"/>
</g>
<!-- packages/UI/piano&#45;roll/beat&#45;view/src/beat&#45;bar/beat&#45;bar&#45;view.ts -->
<g id="node11" class="node">
<title>packages/UI/piano&#45;roll/beat&#45;view/src/beat&#45;bar/beat&#45;bar&#45;view.ts</title>
<g id="a_node11"><a xlink:href="packages/UI/piano-roll/beat-view/src/beat-bar/beat-bar-view.ts" xlink:title="beat&#45;bar&#45;view.ts">
<path fill="#ddfeff" stroke="black" d="M660.5,-114C660.5,-114 584.5,-114 584.5,-114 581.5,-114 578.5,-111 578.5,-108 578.5,-108 578.5,-102 578.5,-102 578.5,-99 581.5,-96 584.5,-96 584.5,-96 660.5,-96 660.5,-96 663.5,-96 666.5,-99 666.5,-102 666.5,-102 666.5,-108 666.5,-108 666.5,-111 663.5,-114 660.5,-114"/>
<text text-anchor="start" x="586.5" y="-102.8" font-family="Helvetica,sans-Serif" font-size="9.00">beat&#45;bar&#45;view.ts</text>
</a>
</g>
</g>
<!-- packages/UI/piano&#45;roll/beat&#45;view/src/beat&#45;bar/beat&#45;bar&#45;view.ts&#45;&gt;packages/UI/view/dist/index.js -->
<g id="edge10" class="edge">
<title>packages/UI/piano&#45;roll/beat&#45;view/src/beat&#45;bar/beat&#45;bar&#45;view.ts&#45;&gt;packages/UI/view/dist/index.js</title>
<path fill="none" stroke="#000000" stroke-width="2" stroke-opacity="0.200000" d="M629.55,-114.02C643.06,-134.15 674.5,-181 674.5,-181 674.5,-181 724.16,-282.27 743.19,-321.1"/>
<polygon fill="#000000" fill-opacity="0.200000" stroke="#000000" stroke-width="2" stroke-opacity="0.200000" points="741.45,-322.31 745.97,-326.77 745.22,-320.46 741.45,-322.31"/>
</g>
<!-- packages/UI/piano&#45;roll/beat&#45;view/src/beat&#45;bar/beat&#45;bar&#45;view.ts&#45;&gt;packages/UI/piano&#45;roll/beat&#45;view/src/beat&#45;bar/beat&#45;bar&#45;model.ts -->
<g id="edge9" class="edge">
<title>packages/UI/piano&#45;roll/beat&#45;view/src/beat&#45;bar/beat&#45;bar&#45;view.ts&#45;&gt;packages/UI/piano&#45;roll/beat&#45;view/src/beat&#45;bar/beat&#45;bar&#45;model.ts</title>
<path fill="none" stroke="#000000" stroke-width="2" stroke-opacity="0.200000" d="M666.85,-102.61C676.61,-102.07 687.08,-101.5 697.19,-100.94"/>
<polygon fill="#000000" fill-opacity="0.200000" stroke="#000000" stroke-width="2" stroke-opacity="0.200000" points="697.56,-103.02 703.43,-100.59 697.33,-98.83 697.56,-103.02"/>
</g>
<!-- packages/UI/piano&#45;roll/beat&#45;view/src/beat&#45;bar/beat&#45;bar.ts&#45;&gt;packages/music&#45;structure/beat/beat&#45;estimation/dist/index.js -->
<g id="edge13" class="edge">
<title>packages/UI/piano&#45;roll/beat&#45;view/src/beat&#45;bar/beat&#45;bar.ts&#45;&gt;packages/music&#45;structure/beat/beat&#45;estimation/dist/index.js</title>
<path fill="none" stroke="#000000" stroke-width="2" stroke-opacity="0.200000" d="M512.81,-114.1C522.88,-164.68 571.5,-409 571.5,-409 571.5,-409 674.5,-409 674.5,-409 674.5,-409 820.51,-394.7 887.09,-388.17"/>
<polygon fill="#000000" fill-opacity="0.200000" stroke="#000000" stroke-width="2" stroke-opacity="0.200000" points="887.51,-390.24 893.28,-387.57 887.1,-386.06 887.51,-390.24"/>
</g>
<!-- packages/UI/piano&#45;roll/beat&#45;view/src/beat&#45;bar/beat&#45;bar.ts&#45;&gt;packages/util/time&#45;and/dist/index.js -->
<g id="edge15" class="edge">
<title>packages/UI/piano&#45;roll/beat&#45;view/src/beat&#45;bar/beat&#45;bar.ts&#45;&gt;packages/util/time&#45;and/dist/index.js</title>
<path fill="none" stroke="#000000" stroke-width="2" stroke-opacity="0.200000" d="M541.6,-95.89C556.61,-91.43 571.5,-87 571.5,-87 571.5,-87 800.79,-70.53 887.14,-64.33"/>
<polygon fill="#000000" fill-opacity="0.200000" stroke="#000000" stroke-width="2" stroke-opacity="0.200000" points="887.51,-66.4 893.34,-63.88 887.21,-62.21 887.51,-66.4"/>
</g>
<!-- packages/UI/piano&#45;roll/beat&#45;view/src/beat&#45;bar/beat&#45;bar.ts&#45;&gt;packages/UI/view/dist/index.js -->
<g id="edge16" class="edge">
<title>packages/UI/piano&#45;roll/beat&#45;view/src/beat&#45;bar/beat&#45;bar.ts&#45;&gt;packages/UI/view/dist/index.js</title>
<path fill="none" stroke="#000000" stroke-width="2" stroke-opacity="0.200000" d="M520.74,-114.05C555.94,-146.78 674.5,-257 674.5,-257 674.5,-257 715.74,-299.87 737.46,-322.45"/>
<polygon fill="#000000" fill-opacity="0.200000" stroke="#000000" stroke-width="2" stroke-opacity="0.200000" points="736.11,-324.07 741.78,-326.94 739.14,-321.16 736.11,-324.07"/>
</g>
<!-- packages/UI/piano&#45;roll/beat&#45;view/src/beat&#45;bar/beat&#45;bar.ts&#45;&gt;packages/UI/piano&#45;roll/beat&#45;view/src/beat&#45;bar/beat&#45;bar&#45;model.ts -->
<g id="edge11" class="edge">
<title>packages/UI/piano&#45;roll/beat&#45;view/src/beat&#45;bar/beat&#45;bar.ts&#45;&gt;packages/UI/piano&#45;roll/beat&#45;view/src/beat&#45;bar/beat&#45;bar&#45;model.ts</title>
<path fill="none" stroke="#000000" stroke-width="2" stroke-opacity="0.200000" d="M542.67,-97.15C557.31,-93.52 571.5,-90 571.5,-90 571.5,-90 674.5,-90 674.5,-90 674.5,-90 684.48,-91.05 697.22,-92.39"/>
<polygon fill="#000000" fill-opacity="0.200000" stroke="#000000" stroke-width="2" stroke-opacity="0.200000" points="697.05,-94.48 703.23,-93.02 697.49,-90.31 697.05,-94.48"/>
</g>
<!-- packages/UI/piano&#45;roll/beat&#45;view/src/beat&#45;bar/beat&#45;bar.ts&#45;&gt;packages/UI/piano&#45;roll/beat&#45;view/src/beat&#45;bar/beat&#45;bar&#45;view.ts -->
<g id="edge12" class="edge">
<title>packages/UI/piano&#45;roll/beat&#45;view/src/beat&#45;bar/beat&#45;bar.ts&#45;&gt;packages/UI/piano&#45;roll/beat&#45;view/src/beat&#45;bar/beat&#45;bar&#45;view.ts</title>
<path fill="none" stroke="#000000" stroke-width="2" stroke-opacity="0.200000" d="M542.66,-105C551.85,-105 562.12,-105 572.12,-105"/>
<polygon fill="#000000" fill-opacity="0.200000" stroke="#000000" stroke-width="2" stroke-opacity="0.200000" points="572.3,-107.1 578.3,-105 572.3,-102.9 572.3,-107.1"/>
</g>
<!-- packages/UI/synth/dist/index.js -->
<g id="node13" class="node">
<title>packages/UI/synth/dist/index.js</title>
<g id="a_node13"><a xlink:href="packages/UI/synth/dist/index.js" xlink:title="index.js">
<polygon fill="#ffffcc" stroke="black" points="649.5,-286 648,-288 637.5,-288 636,-286 595.5,-286 595.5,-268 649.5,-268 649.5,-286"/>
<text text-anchor="start" x="605" y="-274.8" font-family="Helvetica,sans-Serif" font-size="9.00">index.js</text>
</a>
</g>
</g>
<!-- packages/UI/piano&#45;roll/beat&#45;view/src/beat&#45;bar/beat&#45;bar.ts&#45;&gt;packages/UI/synth/dist/index.js -->
<g id="edge14" class="edge">
<title>packages/UI/piano&#45;roll/beat&#45;view/src/beat&#45;bar/beat&#45;bar.ts&#45;&gt;packages/UI/synth/dist/index.js</title>
<path fill="none" stroke="#000000" stroke-width="2" stroke-opacity="0.200000" d="M516.94,-114.25C535.08,-142.48 589.84,-227.72 612.02,-262.25"/>
<polygon fill="#000000" fill-opacity="0.200000" stroke="#000000" stroke-width="2" stroke-opacity="0.200000" points="610.52,-263.79 615.53,-267.71 614.05,-261.52 610.52,-263.79"/>
</g>
<!-- packages/UI/view&#45;parameters/dist/index.js -->
<g id="node14" class="node">
<title>packages/UI/view&#45;parameters/dist/index.js</title>
<g id="a_node14"><a xlink:href="packages/UI/view-parameters/dist/index.js" xlink:title="index.js">
<polygon fill="#ffffcc" stroke="black" points="649.5,-380 648,-382 637.5,-382 636,-380 595.5,-380 595.5,-362 649.5,-362 649.5,-380"/>
<text text-anchor="start" x="605" y="-368.8" font-family="Helvetica,sans-Serif" font-size="9.00">index.js</text>
</a>
</g>
</g>
<!-- packages/UI/piano&#45;roll/beat&#45;view/src/beat&#45;bar/beat&#45;bar.ts&#45;&gt;packages/UI/view&#45;parameters/dist/index.js -->
<g id="edge17" class="edge">
<title>packages/UI/piano&#45;roll/beat&#45;view/src/beat&#45;bar/beat&#45;bar.ts&#45;&gt;packages/UI/view&#45;parameters/dist/index.js</title>
<path fill="none" stroke="#000000" stroke-width="2" stroke-opacity="0.200000" d="M513.6,-114.02C525.18,-154.22 571.5,-315 571.5,-315 571.5,-315 594.12,-340.33 608.93,-356.92"/>
<polygon fill="#000000" fill-opacity="0.200000" stroke="#000000" stroke-width="2" stroke-opacity="0.200000" points="607.68,-358.68 613.24,-361.75 610.81,-355.88 607.68,-358.68"/>
</g>
<!-- packages/UI/piano&#45;roll/beat&#45;view/src/requirement/index.ts -->
<g id="node15" class="node">
<title>packages/UI/piano&#45;roll/beat&#45;view/src/requirement/index.ts</title>
<g id="a_node15"><a xlink:href="packages/UI/piano-roll/beat-view/src/requirement/index.ts" xlink:title="index.ts">
<path fill="#ddfeff" stroke="black" d="M104,-114C104,-114 62,-114 62,-114 59,-114 56,-111 56,-108 56,-108 56,-102 56,-102 56,-99 59,-96 62,-96 62,-96 104,-96 104,-96 107,-96 110,-99 110,-102 110,-102 110,-108 110,-108 110,-111 107,-114 104,-114"/>
<text text-anchor="start" x="64.5" y="-102.8" font-family="Helvetica,sans-Serif" font-size="9.00">index.ts</text>
</a>
</g>
</g>
<!-- packages/UI/piano&#45;roll/beat&#45;view/src/requirement/index.ts&#45;&gt;packages/UI/piano&#45;roll/beat&#45;view/src/beat&#45;elements.ts -->
<g id="edge25" class="edge">
<title>packages/UI/piano&#45;roll/beat&#45;view/src/requirement/index.ts&#45;&gt;packages/UI/piano&#45;roll/beat&#45;view/src/beat&#45;elements.ts</title>
<path fill="none" stroke="#000000" stroke-width="2" stroke-opacity="0.200000" d="M110.19,-109.57C127.21,-112.54 149.97,-116.51 170.47,-120.09"/>
<polygon fill="#000000" fill-opacity="0.200000" stroke="#000000" stroke-width="2" stroke-opacity="0.200000" points="176.1,-123.21 170.55,-120.11 176.83,-119.07 176.1,-123.21"/>
</g>
<!-- packages/UI/piano&#45;roll/beat&#45;view/src/requirement/index.ts&#45;&gt;packages/UI/piano&#45;roll/beat&#45;view/src/beat&#45;bar&#45;series.ts -->
<g id="edge24" class="edge">
<title>packages/UI/piano&#45;roll/beat&#45;view/src/requirement/index.ts&#45;&gt;packages/UI/piano&#45;roll/beat&#45;view/src/beat&#45;bar&#45;series.ts</title>
<path fill="none" stroke="#000000" stroke-width="2" stroke-opacity="0.200000" d="M110.04,-106.27C160.9,-108.75 268.5,-114 268.5,-114 268.5,-114 276.11,-115.94 285.87,-118.42"/>
<polygon fill="#000000" fill-opacity="0.200000" stroke="#000000" stroke-width="2" stroke-opacity="0.200000" points="291.3,-121.96 286,-118.45 292.34,-117.89 291.3,-121.96"/>
</g>
</g>
</svg>
