<?xml version="1.0" encoding="UTF-8" standalone="no"?>
<!DOCTYPE svg PUBLIC "-//W3C//DTD SVG 1.1//EN"
 "http://www.w3.org/Graphics/SVG/1.1/DTD/svg11.dtd">
<!-- Generated by graphviz version 2.43.0 (0)
 -->
<!-- Title: dependency&#45;cruiser output Pages: 1 -->
<svg width="417pt" height="750pt"
 viewBox="0.00 0.00 417.00 750.00" xmlns="http://www.w3.org/2000/svg" xmlns:xlink="http://www.w3.org/1999/xlink">
<g id="graph0" class="graph" transform="scale(1 1) rotate(0) translate(4 746)">
<title>dependency&#45;cruiser output</title>
<polygon fill="white" stroke="transparent" points="-4,4 -4,-746 413,-746 413,4 -4,4"/>
<g id="clust1" class="cluster">
<title>cluster_packages</title>
<path fill="#ffffff" stroke="black" stroke-width="2" d="M20,-8C20,-8 395,-8 395,-8 401,-8 407,-14 407,-20 407,-20 407,-722 407,-722 407,-728 401,-734 395,-734 395,-734 20,-734 20,-734 14,-734 8,-728 8,-722 8,-722 8,-20 8,-20 8,-14 14,-8 20,-8"/>
<text text-anchor="middle" x="207.5" y="-722.8" font-family="Helvetica,sans-Serif" font-weight="bold" font-size="9.00">packages</text>
</g>
<g id="clust2" class="cluster">
<title>cluster_packages/UI</title>
<path fill="#ffffff" stroke="black" stroke-width="2" d="M28,-16C28,-16 382,-16 382,-16 388,-16 394,-22 394,-28 394,-28 394,-406 394,-406 394,-412 388,-418 382,-418 382,-418 28,-418 28,-418 22,-418 16,-412 16,-406 16,-406 16,-28 16,-28 16,-22 22,-16 28,-16"/>
<text text-anchor="middle" x="205" y="-406.8" font-family="Helvetica,sans-Serif" font-weight="bold" font-size="9.00">UI</text>
</g>
<g id="clust3" class="cluster">
<title>cluster_packages/UI/controllers</title>
<path fill="#ffffff" stroke="black" stroke-width="2" d="M303,-24C303,-24 365,-24 365,-24 371,-24 377,-30 377,-36 377,-36 377,-98 377,-98 377,-104 371,-110 365,-110 365,-110 303,-110 303,-110 297,-110 291,-104 291,-98 291,-98 291,-36 291,-36 291,-30 297,-24 303,-24"/>
<text text-anchor="middle" x="334" y="-98.8" font-family="Helvetica,sans-Serif" font-weight="bold" font-size="9.00">controllers</text>
</g>
<g id="clust4" class="cluster">
<title>cluster_packages/UI/controllers/dist</title>
<path fill="#ffffff" stroke="black" stroke-width="2" d="M311,-32C311,-32 357,-32 357,-32 363,-32 369,-38 369,-44 369,-44 369,-72 369,-72 369,-78 363,-84 357,-84 357,-84 311,-84 311,-84 305,-84 299,-78 299,-72 299,-72 299,-44 299,-44 299,-38 305,-32 311,-32"/>
<text text-anchor="middle" x="334" y="-72.8" font-family="Helvetica,sans-Serif" font-weight="bold" font-size="9.00">dist</text>
</g>
<g id="clust5" class="cluster">
<title>cluster_packages/UI/piano&#45;roll</title>
<path fill="#ffffff" stroke="black" stroke-width="2" d="M36,-238C36,-238 233,-238 233,-238 239,-238 245,-244 245,-250 245,-250 245,-346 245,-346 245,-352 239,-358 233,-358 233,-358 36,-358 36,-358 30,-358 24,-352 24,-346 24,-346 24,-250 24,-250 24,-244 30,-238 36,-238"/>
<text text-anchor="middle" x="134.5" y="-346.8" font-family="Helvetica,sans-Serif" font-weight="bold" font-size="9.00">piano&#45;roll</text>
</g>
<g id="clust6" class="cluster">
<title>cluster_packages/UI/piano&#45;roll/beat&#45;view</title>
<path fill="#ffffff" stroke="black" stroke-width="2" d="M44,-246C44,-246 225,-246 225,-246 231,-246 237,-252 237,-258 237,-258 237,-320 237,-320 237,-326 231,-332 225,-332 225,-332 44,-332 44,-332 38,-332 32,-326 32,-320 32,-320 32,-258 32,-258 32,-252 38,-246 44,-246"/>
<text text-anchor="middle" x="134.5" y="-320.8" font-family="Helvetica,sans-Serif" font-weight="bold" font-size="9.00">beat&#45;view</text>
</g>
<g id="clust7" class="cluster">
<title>cluster_packages/UI/piano&#45;roll/beat&#45;view/src</title>
<path fill="#ffffff" stroke="black" stroke-width="2" d="M133,-254C133,-254 217,-254 217,-254 223,-254 229,-260 229,-266 229,-266 229,-294 229,-294 229,-300 223,-306 217,-306 217,-306 133,-306 133,-306 127,-306 121,-300 121,-294 121,-294 121,-266 121,-266 121,-260 127,-254 133,-254"/>
<text text-anchor="middle" x="175" y="-294.8" font-family="Helvetica,sans-Serif" font-weight="bold" font-size="9.00">src</text>
</g>
<g id="clust8" class="cluster">
<title>cluster_packages/UI/synth</title>
<path fill="#ffffff" stroke="black" stroke-width="2" d="M303,-118C303,-118 365,-118 365,-118 371,-118 377,-124 377,-130 377,-130 377,-192 377,-192 377,-198 371,-204 365,-204 365,-204 303,-204 303,-204 297,-204 291,-198 291,-192 291,-192 291,-130 291,-130 291,-124 297,-118 303,-118"/>
<text text-anchor="middle" x="334" y="-192.8" font-family="Helvetica,sans-Serif" font-weight="bold" font-size="9.00">synth</text>
</g>
<g id="clust9" class="cluster">
<title>cluster_packages/UI/synth/dist</title>
<path fill="#ffffff" stroke="black" stroke-width="2" d="M311,-126C311,-126 357,-126 357,-126 363,-126 369,-132 369,-138 369,-138 369,-166 369,-166 369,-172 363,-178 357,-178 357,-178 311,-178 311,-178 305,-178 299,-172 299,-166 299,-166 299,-138 299,-138 299,-132 305,-126 311,-126"/>
<text text-anchor="middle" x="334" y="-166.8" font-family="Helvetica,sans-Serif" font-weight="bold" font-size="9.00">dist</text>
</g>
<g id="clust10" class="cluster">
<title>cluster_packages/UI/view&#45;parameters</title>
<path fill="#ffffff" stroke="black" stroke-width="2" d="M295,-306C295,-306 374,-306 374,-306 380,-306 386,-312 386,-318 386,-318 386,-380 386,-380 386,-386 380,-392 374,-392 374,-392 295,-392 295,-392 289,-392 283,-386 283,-380 283,-380 283,-318 283,-318 283,-312 289,-306 295,-306"/>
<text text-anchor="middle" x="334.5" y="-380.8" font-family="Helvetica,sans-Serif" font-weight="bold" font-size="9.00">view&#45;parameters</text>
</g>
<g id="clust11" class="cluster">
<title>cluster_packages/UI/view&#45;parameters/dist</title>
<path fill="#ffffff" stroke="black" stroke-width="2" d="M311,-314C311,-314 357,-314 357,-314 363,-314 369,-320 369,-326 369,-326 369,-354 369,-354 369,-360 363,-366 357,-366 357,-366 311,-366 311,-366 305,-366 299,-360 299,-354 299,-354 299,-326 299,-326 299,-320 305,-314 311,-314"/>
<text text-anchor="middle" x="334" y="-354.8" font-family="Helvetica,sans-Serif" font-weight="bold" font-size="9.00">dist</text>
</g>
<g id="clust12" class="cluster">
<title>cluster_packages/UI/view</title>
<path fill="#ffffff" stroke="black" stroke-width="2" d="M303,-212C303,-212 365,-212 365,-212 371,-212 377,-218 377,-224 377,-224 377,-286 377,-286 377,-292 371,-298 365,-298 365,-298 303,-298 303,-298 297,-298 291,-292 291,-286 291,-286 291,-224 291,-224 291,-218 297,-212 303,-212"/>
<text text-anchor="middle" x="334" y="-286.8" font-family="Helvetica,sans-Serif" font-weight="bold" font-size="9.00">view</text>
</g>
<g id="clust13" class="cluster">
<title>cluster_packages/UI/view/dist</title>
<path fill="#ffffff" stroke="black" stroke-width="2" d="M311,-220C311,-220 357,-220 357,-220 363,-220 369,-226 369,-232 369,-232 369,-260 369,-260 369,-266 363,-272 357,-272 357,-272 311,-272 311,-272 305,-272 299,-266 299,-260 299,-260 299,-232 299,-232 299,-226 305,-220 311,-220"/>
<text text-anchor="middle" x="334" y="-260.8" font-family="Helvetica,sans-Serif" font-weight="bold" font-size="9.00">dist</text>
</g>
<g id="clust14" class="cluster">
<title>cluster_packages/music&#45;structure</title>
<path fill="#ffffff" stroke="black" stroke-width="2" d="M281,-426C281,-426 387,-426 387,-426 393,-426 399,-432 399,-438 399,-438 399,-568 399,-568 399,-574 393,-580 387,-580 387,-580 281,-580 281,-580 275,-580 269,-574 269,-568 269,-568 269,-438 269,-438 269,-432 275,-426 281,-426"/>
<text text-anchor="middle" x="334" y="-568.8" font-family="Helvetica,sans-Serif" font-weight="bold" font-size="9.00">music&#45;structure</text>
</g>
<g id="clust15" class="cluster">
<title>cluster_packages/music&#45;structure/beat</title>
<path fill="#ffffff" stroke="black" stroke-width="2" d="M289,-434C289,-434 379,-434 379,-434 385,-434 391,-440 391,-446 391,-446 391,-542 391,-542 391,-548 385,-554 379,-554 379,-554 289,-554 289,-554 283,-554 277,-548 277,-542 277,-542 277,-446 277,-446 277,-440 283,-434 289,-434"/>
<text text-anchor="middle" x="334" y="-542.8" font-family="Helvetica,sans-Serif" font-weight="bold" font-size="9.00">beat</text>
</g>
<g id="clust16" class="cluster">
<title>cluster_packages/music&#45;structure/beat/beat&#45;estimation</title>
<path fill="#ffffff" stroke="black" stroke-width="2" d="M297,-442C297,-442 371,-442 371,-442 377,-442 383,-448 383,-454 383,-454 383,-516 383,-516 383,-522 377,-528 371,-528 371,-528 297,-528 297,-528 291,-528 285,-522 285,-516 285,-516 285,-454 285,-454 285,-448 291,-442 297,-442"/>
<text text-anchor="middle" x="334" y="-516.8" font-family="Helvetica,sans-Serif" font-weight="bold" font-size="9.00">beat&#45;estimation</text>
</g>
<g id="clust17" class="cluster">
<title>cluster_packages/music&#45;structure/beat/beat&#45;estimation/dist</title>
<path fill="#ffffff" stroke="black" stroke-width="2" d="M311,-450C311,-450 357,-450 357,-450 363,-450 369,-456 369,-462 369,-462 369,-490 369,-490 369,-496 363,-502 357,-502 357,-502 311,-502 311,-502 305,-502 299,-496 299,-490 299,-490 299,-462 299,-462 299,-456 305,-450 311,-450"/>
<text text-anchor="middle" x="334" y="-490.8" font-family="Helvetica,sans-Serif" font-weight="bold" font-size="9.00">dist</text>
</g>
<g id="clust18" class="cluster">
<title>cluster_packages/util</title>
<path fill="#ffffff" stroke="black" stroke-width="2" d="M295,-588C295,-588 373,-588 373,-588 379,-588 385,-594 385,-600 385,-600 385,-696 385,-696 385,-702 379,-708 373,-708 373,-708 295,-708 295,-708 289,-708 283,-702 283,-696 283,-696 283,-600 283,-600 283,-594 289,-588 295,-588"/>
<text text-anchor="middle" x="334" y="-696.8" font-family="Helvetica,sans-Serif" font-weight="bold" font-size="9.00">util</text>
</g>
<g id="clust19" class="cluster">
<title>cluster_packages/util/time&#45;and</title>
<path fill="#ffffff" stroke="black" stroke-width="2" d="M303,-596C303,-596 365,-596 365,-596 371,-596 377,-602 377,-608 377,-608 377,-670 377,-670 377,-676 371,-682 365,-682 365,-682 303,-682 303,-682 297,-682 291,-676 291,-670 291,-670 291,-608 291,-608 291,-602 297,-596 303,-596"/>
<text text-anchor="middle" x="334" y="-670.8" font-family="Helvetica,sans-Serif" font-weight="bold" font-size="9.00">time&#45;and</text>
</g>
<g id="clust20" class="cluster">
<title>cluster_packages/util/time&#45;and/dist</title>
<path fill="#ffffff" stroke="black" stroke-width="2" d="M311,-604C311,-604 357,-604 357,-604 363,-604 369,-610 369,-616 369,-616 369,-644 369,-644 369,-650 363,-656 357,-656 357,-656 311,-656 311,-656 305,-656 299,-650 299,-644 299,-644 299,-616 299,-616 299,-610 305,-604 311,-604"/>
<text text-anchor="middle" x="334" y="-644.8" font-family="Helvetica,sans-Serif" font-weight="bold" font-size="9.00">dist</text>
</g>
<!-- packages/UI/controllers/dist/index.js -->
<g id="node1" class="node">
<title>packages/UI/controllers/dist/index.js</title>
<g id="a_node1"><a xlink:href="packages/UI/controllers/dist/index.js" xlink:title="index.js">
<polygon fill="#ffffcc" stroke="black" points="361,-58 359.5,-60 349,-60 347.5,-58 307,-58 307,-40 361,-40 361,-58"/>
<text text-anchor="start" x="316.5" y="-46.8" font-family="Helvetica,sans-Serif" font-size="9.00">index.js</text>
</a>
</g>
</g>
<!-- packages/UI/piano&#45;roll/beat&#45;view/index.test.ts -->
<g id="node2" class="node">
<title>packages/UI/piano&#45;roll/beat&#45;view/index.test.ts</title>
<g id="a_node2"><a xlink:href="packages/UI/piano-roll/beat-view/index.test.ts" xlink:title="no&#45;orphans">
<path fill="#ccffcc" stroke="orange" d="M107,-306C107,-306 46,-306 46,-306 43,-306 40,-303 40,-300 40,-300 40,-294 40,-294 40,-291 43,-288 46,-288 46,-288 107,-288 107,-288 110,-288 113,-291 113,-294 113,-294 113,-300 113,-300 113,-303 110,-306 107,-306"/>
<text text-anchor="start" x="48" y="-294.8" font-family="Helvetica,sans-Serif" font-size="9.00" fill="orange">index.test.ts</text>
</a>
</g>
</g>
<!-- packages/UI/piano&#45;roll/beat&#45;view/index.ts -->
<g id="node3" class="node">
<title>packages/UI/piano&#45;roll/beat&#45;view/index.ts</title>
<g id="a_node3"><a xlink:href="packages/UI/piano-roll/beat-view/index.ts" xlink:title="index.ts">
<path fill="#ddfeff" stroke="black" d="M97.5,-276C97.5,-276 55.5,-276 55.5,-276 52.5,-276 49.5,-273 49.5,-270 49.5,-270 49.5,-264 49.5,-264 49.5,-261 52.5,-258 55.5,-258 55.5,-258 97.5,-258 97.5,-258 100.5,-258 103.5,-261 103.5,-264 103.5,-264 103.5,-270 103.5,-270 103.5,-273 100.5,-276 97.5,-276"/>
<text text-anchor="start" x="58" y="-264.8" font-family="Helvetica,sans-Serif" font-size="9.00">index.ts</text>
</a>
</g>
</g>
<!-- packages/UI/piano&#45;roll/beat&#45;view/src/beat&#45;elements.ts -->
<g id="node4" class="node">
<title>packages/UI/piano&#45;roll/beat&#45;view/src/beat&#45;elements.ts</title>
<g id="a_node4"><a xlink:href="packages/UI/piano-roll/beat-view/src/beat-elements.ts" xlink:title="beat&#45;elements.ts">
<path fill="#ddfeff" stroke="black" d="M215,-280C215,-280 135,-280 135,-280 132,-280 129,-277 129,-274 129,-274 129,-268 129,-268 129,-265 132,-262 135,-262 135,-262 215,-262 215,-262 218,-262 221,-265 221,-268 221,-268 221,-274 221,-274 221,-277 218,-280 215,-280"/>
<text text-anchor="start" x="137" y="-268.8" font-family="Helvetica,sans-Serif" font-size="9.00">beat&#45;elements.ts</text>
</a>
</g>
</g>
<!-- packages/UI/piano&#45;roll/beat&#45;view/index.ts&#45;&gt;packages/UI/piano&#45;roll/beat&#45;view/src/beat&#45;elements.ts -->
<g id="edge1" class="edge">
<title>packages/UI/piano&#45;roll/beat&#45;view/index.ts&#45;&gt;packages/UI/piano&#45;roll/beat&#45;view/src/beat&#45;elements.ts</title>
<path fill="none" stroke="#000000" stroke-width="2" stroke-opacity="0.200000" d="M103.61,-268.08C109.6,-268.33 116.16,-268.6 122.8,-268.88"/>
<polygon fill="#000000" fill-opacity="0.200000" stroke="#000000" stroke-width="2" stroke-opacity="0.200000" points="128.81,-271.23 122.9,-268.88 128.99,-267.03 128.81,-271.23"/>
</g>
<!-- packages/UI/piano&#45;roll/beat&#45;view/src/beat&#45;elements.ts&#45;&gt;packages/UI/controllers/dist/index.js -->
<g id="edge3" class="edge">
<title>packages/UI/piano&#45;roll/beat&#45;view/src/beat&#45;elements.ts&#45;&gt;packages/UI/controllers/dist/index.js</title>
<path fill="none" stroke="#000000" stroke-width="2" stroke-opacity="0.200000" d="M181.82,-261.74C202.18,-229.34 269,-123 269,-123 269,-123 302.48,-84.29 321.01,-62.86"/>
<polygon fill="#000000" fill-opacity="0.200000" stroke="#000000" stroke-width="2" stroke-opacity="0.200000" points="322.82,-63.99 325.15,-58.07 319.64,-61.24 322.82,-63.99"/>
</g>
<!-- packages/music&#45;structure/beat/beat&#45;estimation/dist/index.js -->
<g id="node5" class="node">
<title>packages/music&#45;structure/beat/beat&#45;estimation/dist/index.js</title>
<g id="a_node5"><a xlink:href="packages/music-structure/beat/beat-estimation/dist/index.js" xlink:title="index.js">
<polygon fill="#ffffcc" stroke="black" points="361,-476 359.5,-478 349,-478 347.5,-476 307,-476 307,-458 361,-458 361,-476"/>
<text text-anchor="start" x="316.5" y="-464.8" font-family="Helvetica,sans-Serif" font-size="9.00">index.js</text>
</a>
</g>
</g>
<!-- packages/UI/piano&#45;roll/beat&#45;view/src/beat&#45;elements.ts&#45;&gt;packages/music&#45;structure/beat/beat&#45;estimation/dist/index.js -->
<g id="edge2" class="edge">
<title>packages/UI/piano&#45;roll/beat&#45;view/src/beat&#45;elements.ts&#45;&gt;packages/music&#45;structure/beat/beat&#45;estimation/dist/index.js</title>
<path fill="none" stroke="#000000" stroke-width="2" stroke-opacity="0.200000" d="M183.36,-280.19C208.54,-311.63 291.35,-415 321.71,-452.9"/>
<polygon fill="#000000" fill-opacity="0.200000" stroke="#000000" stroke-width="2" stroke-opacity="0.200000" points="320.08,-454.23 325.47,-457.6 323.36,-451.61 320.08,-454.23"/>
</g>
<!-- packages/UI/synth/dist/index.js -->
<g id="node6" class="node">
<title>packages/UI/synth/dist/index.js</title>
<g id="a_node6"><a xlink:href="packages/UI/synth/dist/index.js" xlink:title="index.js">
<polygon fill="#ffffcc" stroke="black" points="361,-152 359.5,-154 349,-154 347.5,-152 307,-152 307,-134 361,-134 361,-152"/>
<text text-anchor="start" x="316.5" y="-140.8" font-family="Helvetica,sans-Serif" font-size="9.00">index.js</text>
</a>
</g>
</g>
<!-- packages/UI/piano&#45;roll/beat&#45;view/src/beat&#45;elements.ts&#45;&gt;packages/UI/synth/dist/index.js -->
<g id="edge4" class="edge">
<title>packages/UI/piano&#45;roll/beat&#45;view/src/beat&#45;elements.ts&#45;&gt;packages/UI/synth/dist/index.js</title>
<path fill="none" stroke="#000000" stroke-width="2" stroke-opacity="0.200000" d="M187.29,-261.79C214.79,-239.38 285.29,-181.9 317.06,-156"/>
<polygon fill="#000000" fill-opacity="0.200000" stroke="#000000" stroke-width="2" stroke-opacity="0.200000" points="318.49,-157.54 321.81,-152.12 315.83,-154.29 318.49,-157.54"/>
</g>
<!-- packages/util/time&#45;and/dist/index.js -->
<g id="node7" class="node">
<title>packages/util/time&#45;and/dist/index.js</title>
<g id="a_node7"><a xlink:href="packages/util/time-and/dist/index.js" xlink:title="index.js">
<polygon fill="#ffffcc" stroke="black" points="361,-630 359.5,-632 349,-632 347.5,-630 307,-630 307,-612 361,-612 361,-630"/>
<text text-anchor="start" x="316.5" y="-618.8" font-family="Helvetica,sans-Serif" font-size="9.00">index.js</text>
</a>
</g>
</g>
<!-- packages/UI/piano&#45;roll/beat&#45;view/src/beat&#45;elements.ts&#45;&gt;packages/util/time&#45;and/dist/index.js -->
<g id="edge5" class="edge">
<title>packages/UI/piano&#45;roll/beat&#45;view/src/beat&#45;elements.ts&#45;&gt;packages/util/time&#45;and/dist/index.js</title>
<path fill="none" stroke="#000000" stroke-width="2" stroke-opacity="0.200000" d="M179.65,-280.17C196.84,-323.44 269,-505 269,-505 269,-505 307.9,-575.5 325.04,-606.58"/>
<polygon fill="#000000" fill-opacity="0.200000" stroke="#000000" stroke-width="2" stroke-opacity="0.200000" points="323.24,-607.66 327.98,-611.9 326.92,-605.63 323.24,-607.66"/>
</g>
<!-- packages/UI/view/dist/index.js -->
<g id="node8" class="node">
<title>packages/UI/view/dist/index.js</title>
<g id="a_node8"><a xlink:href="packages/UI/view/dist/index.js" xlink:title="index.js">
<polygon fill="#ffffcc" stroke="black" points="361,-246 359.5,-248 349,-248 347.5,-246 307,-246 307,-228 361,-228 361,-246"/>
<text text-anchor="start" x="316.5" y="-234.8" font-family="Helvetica,sans-Serif" font-size="9.00">index.js</text>
</a>
</g>
</g>
<!-- packages/UI/piano&#45;roll/beat&#45;view/src/beat&#45;elements.ts&#45;&gt;packages/UI/view/dist/index.js -->
<g id="edge6" class="edge">
<title>packages/UI/piano&#45;roll/beat&#45;view/src/beat&#45;elements.ts&#45;&gt;packages/UI/view/dist/index.js</title>
<path fill="none" stroke="#000000" stroke-width="2" stroke-opacity="0.200000" d="M217.66,-261.98C243.79,-256.32 276.96,-249.14 301.02,-243.93"/>
<polygon fill="#000000" fill-opacity="0.200000" stroke="#000000" stroke-width="2" stroke-opacity="0.200000" points="301.51,-245.97 306.93,-242.65 300.62,-241.86 301.51,-245.97"/>
</g>
<!-- packages/UI/view&#45;parameters/dist/index.js -->
<g id="node9" class="node">
<title>packages/UI/view&#45;parameters/dist/index.js</title>
<g id="a_node9"><a xlink:href="packages/UI/view-parameters/dist/index.js" xlink:title="index.js">
<polygon fill="#ffffcc" stroke="black" points="361,-340 359.5,-342 349,-342 347.5,-340 307,-340 307,-322 361,-322 361,-340"/>
<text text-anchor="start" x="316.5" y="-328.8" font-family="Helvetica,sans-Serif" font-size="9.00">index.js</text>
</a>
</g>
</g>
<!-- packages/UI/piano&#45;roll/beat&#45;view/src/beat&#45;elements.ts&#45;&gt;packages/UI/view&#45;parameters/dist/index.js -->
<g id="edge7" class="edge">
<title>packages/UI/piano&#45;roll/beat&#45;view/src/beat&#45;elements.ts&#45;&gt;packages/UI/view&#45;parameters/dist/index.js</title>
<path fill="none" stroke="#000000" stroke-width="2" stroke-opacity="0.200000" d="M199.84,-280.11C227.67,-290.75 273.68,-308.33 303.67,-319.79"/>
<polygon fill="#000000" fill-opacity="0.200000" stroke="#000000" stroke-width="2" stroke-opacity="0.200000" points="303.09,-321.82 309.45,-322 304.59,-317.89 303.09,-321.82"/>
</g>
</g>
</svg>
