<?xml version="1.0" encoding="UTF-8" standalone="no"?>
<!DOCTYPE svg PUBLIC "-//W3C//DTD SVG 1.1//EN"
 "http://www.w3.org/Graphics/SVG/1.1/DTD/svg11.dtd">
<!-- Generated by graphviz version 2.43.0 (0)
 -->
<!-- Title: dependency&#45;cruiser output Pages: 1 -->
<svg width="1080pt" height="522pt"
 viewBox="0.00 0.00 1080.00 522.00" xmlns="http://www.w3.org/2000/svg" xmlns:xlink="http://www.w3.org/1999/xlink">
<g id="graph0" class="graph" transform="scale(1 1) rotate(0) translate(4 518)">
<title>dependency&#45;cruiser output</title>
<polygon fill="white" stroke="transparent" points="-4,4 -4,-518 1076,-518 1076,4 -4,4"/>
<g id="clust1" class="cluster">
<title>cluster_packages</title>
<path fill="#ffffff" stroke="black" stroke-width="2" d="M20,-8C20,-8 1052,-8 1052,-8 1058,-8 1064,-14 1064,-20 1064,-20 1064,-494 1064,-494 1064,-500 1058,-506 1052,-506 1052,-506 20,-506 20,-506 14,-506 8,-500 8,-494 8,-494 8,-20 8,-20 8,-14 14,-8 20,-8"/>
<text text-anchor="middle" x="536" y="-494.8" font-family="Helvetica,sans-Serif" font-weight="bold" font-size="9.00">packages</text>
</g>
<g id="clust2" class="cluster">
<title>cluster_packages/UI</title>
<path fill="#ffffff" stroke="black" stroke-width="2" d="M28,-16C28,-16 1044,-16 1044,-16 1050,-16 1056,-22 1056,-28 1056,-28 1056,-340 1056,-340 1056,-346 1050,-352 1044,-352 1044,-352 28,-352 28,-352 22,-352 16,-346 16,-340 16,-340 16,-28 16,-28 16,-22 22,-16 28,-16"/>
<text text-anchor="middle" x="536" y="-340.8" font-family="Helvetica,sans-Serif" font-weight="bold" font-size="9.00">UI</text>
</g>
<g id="clust3" class="cluster">
<title>cluster_packages/UI/view&#45;parameters</title>
<path fill="#ffffff" stroke="black" stroke-width="2" d="M36,-24C36,-24 1036,-24 1036,-24 1042,-24 1048,-30 1048,-36 1048,-36 1048,-314 1048,-314 1048,-320 1042,-326 1036,-326 1036,-326 36,-326 36,-326 30,-326 24,-320 24,-314 24,-314 24,-36 24,-36 24,-30 30,-24 36,-24"/>
<text text-anchor="middle" x="536" y="-314.8" font-family="Helvetica,sans-Serif" font-weight="bold" font-size="9.00">view&#45;parameters</text>
</g>
<g id="clust4" class="cluster">
<title>cluster_packages/UI/view&#45;parameters/src</title>
<path fill="#ffffff" stroke="black" stroke-width="2" d="M106,-32C106,-32 1028,-32 1028,-32 1034,-32 1040,-38 1040,-44 1040,-44 1040,-288 1040,-288 1040,-294 1034,-300 1028,-300 1028,-300 106,-300 106,-300 100,-300 94,-294 94,-288 94,-288 94,-44 94,-44 94,-38 100,-32 106,-32"/>
<text text-anchor="middle" x="567" y="-288.8" font-family="Helvetica,sans-Serif" font-weight="bold" font-size="9.00">src</text>
</g>
<g id="clust5" class="cluster">
<title>cluster_packages/UI/view&#45;parameters/src/piano&#45;roll</title>
<path fill="#ffffff" stroke="black" stroke-width="2" d="M442,-80C442,-80 1020,-80 1020,-80 1026,-80 1032,-86 1032,-92 1032,-92 1032,-222 1032,-222 1032,-228 1026,-234 1020,-234 1020,-234 442,-234 442,-234 436,-234 430,-228 430,-222 430,-222 430,-92 430,-92 430,-86 436,-80 442,-80"/>
<text text-anchor="middle" x="731" y="-222.8" font-family="Helvetica,sans-Serif" font-weight="bold" font-size="9.00">piano&#45;roll</text>
</g>
<g id="clust6" class="cluster">
<title>cluster_packages/UI/view&#45;parameters/src/position</title>
<path fill="#ffffff" stroke="black" stroke-width="2" d="M206.5,-182C206.5,-182 391,-182 391,-182 397,-182 403,-188 403,-194 403,-194 403,-252 403,-252 403,-258 397,-264 391,-264 391,-264 206.5,-264 206.5,-264 200.5,-264 194.5,-258 194.5,-252 194.5,-252 194.5,-194 194.5,-194 194.5,-188 200.5,-182 206.5,-182"/>
<text text-anchor="middle" x="298.75" y="-252.8" font-family="Helvetica,sans-Serif" font-weight="bold" font-size="9.00">position</text>
</g>
<g id="clust7" class="cluster">
<title>cluster_packages/util</title>
<path fill="#ffffff" stroke="black" stroke-width="2" d="M426,-360C426,-360 504,-360 504,-360 510,-360 516,-366 516,-372 516,-372 516,-468 516,-468 516,-474 510,-480 504,-480 504,-480 426,-480 426,-480 420,-480 414,-474 414,-468 414,-468 414,-372 414,-372 414,-366 420,-360 426,-360"/>
<text text-anchor="middle" x="465" y="-468.8" font-family="Helvetica,sans-Serif" font-weight="bold" font-size="9.00">util</text>
</g>
<g id="clust8" class="cluster">
<title>cluster_packages/util/math</title>
<path fill="#ffffff" stroke="black" stroke-width="2" d="M434,-368C434,-368 496,-368 496,-368 502,-368 508,-374 508,-380 508,-380 508,-442 508,-442 508,-448 502,-454 496,-454 496,-454 434,-454 434,-454 428,-454 422,-448 422,-442 422,-442 422,-380 422,-380 422,-374 428,-368 434,-368"/>
<text text-anchor="middle" x="465" y="-442.8" font-family="Helvetica,sans-Serif" font-weight="bold" font-size="9.00">math</text>
</g>
<g id="clust9" class="cluster">
<title>cluster_packages/util/math/dist</title>
<path fill="#ffffff" stroke="black" stroke-width="2" d="M442,-376C442,-376 488,-376 488,-376 494,-376 500,-382 500,-388 500,-388 500,-416 500,-416 500,-422 494,-428 488,-428 488,-428 442,-428 442,-428 436,-428 430,-422 430,-416 430,-416 430,-388 430,-388 430,-382 436,-376 442,-376"/>
<text text-anchor="middle" x="465" y="-416.8" font-family="Helvetica,sans-Serif" font-weight="bold" font-size="9.00">dist</text>
</g>
<!-- packages/UI/view&#45;parameters/index.ts -->
<g id="node1" class="node">
<title>packages/UI/view&#45;parameters/index.ts</title>
<g id="a_node1"><a xlink:href="packages/UI/view-parameters/index.ts" xlink:title="index.ts">
<path fill="#ddfeff" stroke="black" d="M80,-142C80,-142 38,-142 38,-142 35,-142 32,-139 32,-136 32,-136 32,-130 32,-130 32,-127 35,-124 38,-124 38,-124 80,-124 80,-124 83,-124 86,-127 86,-130 86,-130 86,-136 86,-136 86,-139 83,-142 80,-142"/>
<text text-anchor="start" x="40.5" y="-130.8" font-family="Helvetica,sans-Serif" font-size="9.00">index.ts</text>
</a>
</g>
</g>
<!-- packages/UI/view&#45;parameters/src/index.ts -->
<g id="node2" class="node">
<title>packages/UI/view&#45;parameters/src/index.ts</title>
<g id="a_node2"><a xlink:href="packages/UI/view-parameters/src/index.ts" xlink:title="index.ts">
<path fill="#ddfeff" stroke="black" d="M150,-142C150,-142 108,-142 108,-142 105,-142 102,-139 102,-136 102,-136 102,-130 102,-130 102,-127 105,-124 108,-124 108,-124 150,-124 150,-124 153,-124 156,-127 156,-130 156,-130 156,-136 156,-136 156,-139 153,-142 150,-142"/>
<text text-anchor="start" x="110.5" y="-130.8" font-family="Helvetica,sans-Serif" font-size="9.00">index.ts</text>
</a>
</g>
</g>
<!-- packages/UI/view&#45;parameters/index.ts&#45;&gt;packages/UI/view&#45;parameters/src/index.ts -->
<g id="edge1" class="edge">
<title>packages/UI/view&#45;parameters/index.ts&#45;&gt;packages/UI/view&#45;parameters/src/index.ts</title>
<path fill="none" stroke="#000000" stroke-width="2" stroke-opacity="0.200000" d="M86.1,-133C89.12,-133 92.23,-133 95.33,-133"/>
<polygon fill="#000000" fill-opacity="0.200000" stroke="#000000" stroke-width="2" stroke-opacity="0.200000" points="101.64,-135.1 95.64,-133 101.64,-130.9 101.64,-135.1"/>
</g>
<!-- packages/UI/view&#45;parameters/src/current&#45;time&#45;ratio.ts -->
<g id="node3" class="node">
<title>packages/UI/view&#45;parameters/src/current&#45;time&#45;ratio.ts</title>
<g id="a_node3"><a xlink:href="packages/UI/view-parameters/src/current-time-ratio.ts" xlink:title="current&#45;time&#45;ratio.ts">
<path fill="#ddfeff" stroke="black" d="M513,-72C513,-72 417,-72 417,-72 414,-72 411,-69 411,-66 411,-66 411,-60 411,-60 411,-57 414,-54 417,-54 417,-54 513,-54 513,-54 516,-54 519,-57 519,-60 519,-60 519,-66 519,-66 519,-69 516,-72 513,-72"/>
<text text-anchor="start" x="419" y="-60.8" font-family="Helvetica,sans-Serif" font-size="9.00">current&#45;time&#45;ratio.ts</text>
</a>
</g>
</g>
<!-- packages/UI/view&#45;parameters/src/index.ts&#45;&gt;packages/UI/view&#45;parameters/src/current&#45;time&#45;ratio.ts -->
<g id="edge4" class="edge">
<title>packages/UI/view&#45;parameters/src/index.ts&#45;&gt;packages/UI/view&#45;parameters/src/current&#45;time&#45;ratio.ts</title>
<path fill="none" stroke="#000000" stroke-width="2" stroke-opacity="0.200000" d="M132.33,-123.58C136.65,-108.37 147.49,-78.8 169,-66 207.37,-43.17 330.31,-50.04 404.82,-56.75"/>
<polygon fill="#000000" fill-opacity="0.200000" stroke="#000000" stroke-width="2" stroke-opacity="0.200000" points="410.8,-59.41 405.01,-56.77 411.18,-55.23 410.8,-59.41"/>
</g>
<!-- packages/UI/view&#45;parameters/src/current&#45;time&#45;x.ts -->
<g id="node4" class="node">
<title>packages/UI/view&#45;parameters/src/current&#45;time&#45;x.ts</title>
<g id="a_node4"><a xlink:href="packages/UI/view-parameters/src/current-time-x.ts" xlink:title="current&#45;time&#45;x.ts">
<path fill="#ddfeff" stroke="black" d="M390,-86C390,-86 309,-86 309,-86 306,-86 303,-83 303,-80 303,-80 303,-74 303,-74 303,-71 306,-68 309,-68 309,-68 390,-68 390,-68 393,-68 396,-71 396,-74 396,-74 396,-80 396,-80 396,-83 393,-86 390,-86"/>
<text text-anchor="start" x="311" y="-74.8" font-family="Helvetica,sans-Serif" font-size="9.00">current&#45;time&#45;x.ts</text>
</a>
</g>
</g>
<!-- packages/UI/view&#45;parameters/src/index.ts&#45;&gt;packages/UI/view&#45;parameters/src/current&#45;time&#45;x.ts -->
<g id="edge5" class="edge">
<title>packages/UI/view&#45;parameters/src/index.ts&#45;&gt;packages/UI/view&#45;parameters/src/current&#45;time&#45;x.ts</title>
<path fill="none" stroke="#000000" stroke-width="2" stroke-opacity="0.200000" d="M135.2,-123.65C141.62,-113.14 153.6,-96.55 169,-89 208.63,-69.56 259.21,-67.92 296.57,-70.36"/>
<polygon fill="#000000" fill-opacity="0.200000" stroke="#000000" stroke-width="2" stroke-opacity="0.200000" points="302.76,-72.92 296.93,-70.39 303.07,-68.73 302.76,-72.92"/>
</g>
<!-- packages/UI/view&#45;parameters/src/piano&#45;roll/index.ts -->
<g id="node5" class="node">
<title>packages/UI/view&#45;parameters/src/piano&#45;roll/index.ts</title>
<g id="a_node5"><a xlink:href="packages/UI/view-parameters/src/piano-roll/index.ts" xlink:title="index.ts">
<path fill="#ddfeff" stroke="black" d="M486,-162C486,-162 444,-162 444,-162 441,-162 438,-159 438,-156 438,-156 438,-150 438,-150 438,-147 441,-144 444,-144 444,-144 486,-144 486,-144 489,-144 492,-147 492,-150 492,-150 492,-156 492,-156 492,-159 489,-162 486,-162"/>
<text text-anchor="start" x="446.5" y="-150.8" font-family="Helvetica,sans-Serif" font-size="9.00">index.ts</text>
</a>
</g>
</g>
<!-- packages/UI/view&#45;parameters/src/index.ts&#45;&gt;packages/UI/view&#45;parameters/src/piano&#45;roll/index.ts -->
<g id="edge8" class="edge">
<title>packages/UI/view&#45;parameters/src/index.ts&#45;&gt;packages/UI/view&#45;parameters/src/piano&#45;roll/index.ts</title>
<path fill="none" stroke="#000000" stroke-width="2" stroke-opacity="0.200000" d="M156,-136.42C160.34,-136.97 164.8,-137.51 169,-138 228.48,-144.92 243.21,-148.7 303,-152 347.48,-154.46 398.98,-154.24 431.52,-153.73"/>
<polygon fill="#000000" fill-opacity="0.200000" stroke="#000000" stroke-width="2" stroke-opacity="0.200000" points="437.8,-155.72 431.76,-153.73 437.73,-151.52 437.8,-155.72"/>
</g>
<!-- packages/UI/view&#45;parameters/src/note&#45;size.ts -->
<g id="node6" class="node">
<title>packages/UI/view&#45;parameters/src/note&#45;size.ts</title>
<g id="a_node6"><a xlink:href="packages/UI/view-parameters/src/note-size.ts" xlink:title="note&#45;size.ts">
<path fill="#ddfeff" stroke="black" d="M377.5,-116C377.5,-116 321.5,-116 321.5,-116 318.5,-116 315.5,-113 315.5,-110 315.5,-110 315.5,-104 315.5,-104 315.5,-101 318.5,-98 321.5,-98 321.5,-98 377.5,-98 377.5,-98 380.5,-98 383.5,-101 383.5,-104 383.5,-104 383.5,-110 383.5,-110 383.5,-113 380.5,-116 377.5,-116"/>
<text text-anchor="start" x="323.5" y="-104.8" font-family="Helvetica,sans-Serif" font-size="9.00">note&#45;size.ts</text>
</a>
</g>
</g>
<!-- packages/UI/view&#45;parameters/src/index.ts&#45;&gt;packages/UI/view&#45;parameters/src/note&#45;size.ts -->
<g id="edge6" class="edge">
<title>packages/UI/view&#45;parameters/src/index.ts&#45;&gt;packages/UI/view&#45;parameters/src/note&#45;size.ts</title>
<path fill="none" stroke="#000000" stroke-width="2" stroke-opacity="0.200000" d="M156.16,-131.64C187.93,-129.77 243.09,-125.84 290,-119 296.16,-118.1 302.64,-116.97 308.96,-115.75"/>
<polygon fill="#000000" fill-opacity="0.200000" stroke="#000000" stroke-width="2" stroke-opacity="0.200000" points="315.61,-116.58 309.32,-115.68 314.8,-112.46 315.61,-116.58"/>
</g>
<!-- packages/UI/view&#45;parameters/src/now&#45;at.ts -->
<g id="node7" class="node">
<title>packages/UI/view&#45;parameters/src/now&#45;at.ts</title>
<g id="a_node7"><a xlink:href="packages/UI/view-parameters/src/now-at.ts" xlink:title="now&#45;at.ts">
<path fill="#ddfeff" stroke="black" d="M373,-146C373,-146 326,-146 326,-146 323,-146 320,-143 320,-140 320,-140 320,-134 320,-134 320,-131 323,-128 326,-128 326,-128 373,-128 373,-128 376,-128 379,-131 379,-134 379,-134 379,-140 379,-140 379,-143 376,-146 373,-146"/>
<text text-anchor="start" x="328" y="-134.8" font-family="Helvetica,sans-Serif" font-size="9.00">now&#45;at.ts</text>
</a>
</g>
</g>
<!-- packages/UI/view&#45;parameters/src/index.ts&#45;&gt;packages/UI/view&#45;parameters/src/now&#45;at.ts -->
<g id="edge7" class="edge">
<title>packages/UI/view&#45;parameters/src/index.ts&#45;&gt;packages/UI/view&#45;parameters/src/now&#45;at.ts</title>
<path fill="none" stroke="#000000" stroke-width="2" stroke-opacity="0.200000" d="M156.36,-133.48C195.74,-134.2 269.97,-135.56 313.74,-136.36"/>
<polygon fill="#000000" fill-opacity="0.200000" stroke="#000000" stroke-width="2" stroke-opacity="0.200000" points="319.94,-138.58 313.97,-136.37 320.01,-134.38 319.94,-138.58"/>
</g>
<!-- packages/UI/view&#45;parameters/src/piano&#45;roll&#45;translate&#45;x.ts -->
<g id="node8" class="node">
<title>packages/UI/view&#45;parameters/src/piano&#45;roll&#45;translate&#45;x.ts</title>
<g id="a_node8"><a xlink:href="packages/UI/view-parameters/src/piano-roll-translate-x.ts" xlink:title="piano&#45;roll&#45;translate&#45;x.ts">
<path fill="#ddfeff" stroke="black" d="M284,-113C284,-113 175,-113 175,-113 172,-113 169,-110 169,-107 169,-107 169,-101 169,-101 169,-98 172,-95 175,-95 175,-95 284,-95 284,-95 287,-95 290,-98 290,-101 290,-101 290,-107 290,-107 290,-110 287,-113 284,-113"/>
<text text-anchor="start" x="177" y="-101.8" font-family="Helvetica,sans-Serif" font-size="9.00">piano&#45;roll&#45;translate&#45;x.ts</text>
</a>
</g>
</g>
<!-- packages/UI/view&#45;parameters/src/index.ts&#45;&gt;packages/UI/view&#45;parameters/src/piano&#45;roll&#45;translate&#45;x.ts -->
<g id="edge9" class="edge">
<title>packages/UI/view&#45;parameters/src/index.ts&#45;&gt;packages/UI/view&#45;parameters/src/piano&#45;roll&#45;translate&#45;x.ts</title>
<path fill="none" stroke="#000000" stroke-width="2" stroke-opacity="0.200000" d="M156.14,-125.3C167.01,-122.1 179.82,-118.33 191.63,-114.86"/>
<polygon fill="#000000" fill-opacity="0.200000" stroke="#000000" stroke-width="2" stroke-opacity="0.200000" points="198.28,-115.09 191.93,-114.77 197.1,-111.06 198.28,-115.09"/>
</g>
<!-- packages/UI/view&#45;parameters/src/piano&#45;roll/octave&#45;count.ts -->
<g id="node9" class="node">
<title>packages/UI/view&#45;parameters/src/piano&#45;roll/octave&#45;count.ts</title>
<g id="a_node9"><a xlink:href="packages/UI/view-parameters/src/piano-roll/octave-count.ts" xlink:title="octave&#45;count.ts">
<path fill="#ddfeff" stroke="black" d="M766,-120C766,-120 691,-120 691,-120 688,-120 685,-117 685,-114 685,-114 685,-108 685,-108 685,-105 688,-102 691,-102 691,-102 766,-102 766,-102 769,-102 772,-105 772,-108 772,-108 772,-114 772,-114 772,-117 769,-120 766,-120"/>
<text text-anchor="start" x="693" y="-108.8" font-family="Helvetica,sans-Serif" font-size="9.00">octave&#45;count.ts</text>
</a>
</g>
</g>
<!-- packages/UI/view&#45;parameters/src/index.ts&#45;&gt;packages/UI/view&#45;parameters/src/piano&#45;roll/octave&#45;count.ts -->
<g id="edge10" class="edge">
<title>packages/UI/view&#45;parameters/src/index.ts&#45;&gt;packages/UI/view&#45;parameters/src/piano&#45;roll/octave&#45;count.ts</title>
<path fill="none" stroke="#000000" stroke-width="2" stroke-opacity="0.200000" d="M131.02,-123.98C133.62,-105.78 142.29,-64.86 169,-47 235.36,-2.64 268.68,-41 348.5,-41 348.5,-41 348.5,-41 466,-41 555.46,-41 656.47,-79.7 702.38,-99.55"/>
<polygon fill="#000000" fill-opacity="0.200000" stroke="#000000" stroke-width="2" stroke-opacity="0.200000" points="707.13,-103.92 702.47,-99.59 708.81,-100.07 707.13,-103.92"/>
</g>
<!-- packages/UI/view&#45;parameters/src/position/index.ts -->
<g id="node10" class="node">
<title>packages/UI/view&#45;parameters/src/position/index.ts</title>
<g id="a_node10"><a xlink:href="packages/UI/view-parameters/src/position/index.ts" xlink:title="index.ts">
<path fill="#ddfeff" stroke="black" d="M250.5,-208C250.5,-208 208.5,-208 208.5,-208 205.5,-208 202.5,-205 202.5,-202 202.5,-202 202.5,-196 202.5,-196 202.5,-193 205.5,-190 208.5,-190 208.5,-190 250.5,-190 250.5,-190 253.5,-190 256.5,-193 256.5,-196 256.5,-196 256.5,-202 256.5,-202 256.5,-205 253.5,-208 250.5,-208"/>
<text text-anchor="start" x="211" y="-196.8" font-family="Helvetica,sans-Serif" font-size="9.00">index.ts</text>
</a>
</g>
</g>
<!-- packages/UI/view&#45;parameters/src/index.ts&#45;&gt;packages/UI/view&#45;parameters/src/position/index.ts -->
<g id="edge11" class="edge">
<title>packages/UI/view&#45;parameters/src/index.ts&#45;&gt;packages/UI/view&#45;parameters/src/position/index.ts</title>
<path fill="none" stroke="#000000" stroke-width="2" stroke-opacity="0.200000" d="M134.1,-142.09C140.03,-154.11 152.14,-175.05 169,-186 177.08,-191.24 186.93,-194.4 196.28,-196.29"/>
<polygon fill="#000000" fill-opacity="0.200000" stroke="#000000" stroke-width="2" stroke-opacity="0.200000" points="201.97,-199.43 196.42,-196.32 202.7,-195.3 201.97,-199.43"/>
</g>
<!-- packages/UI/view&#45;parameters/src/rect&#45;parameter.ts -->
<g id="node11" class="node">
<title>packages/UI/view&#45;parameters/src/rect&#45;parameter.ts</title>
<g id="a_node11"><a xlink:href="packages/UI/view-parameters/src/rect-parameter.ts" xlink:title="rect&#45;parameter.ts">
<path fill="#ddfeff" stroke="black" d="M890.5,-267C890.5,-267 807.5,-267 807.5,-267 804.5,-267 801.5,-264 801.5,-261 801.5,-261 801.5,-255 801.5,-255 801.5,-252 804.5,-249 807.5,-249 807.5,-249 890.5,-249 890.5,-249 893.5,-249 896.5,-252 896.5,-255 896.5,-255 896.5,-261 896.5,-261 896.5,-264 893.5,-267 890.5,-267"/>
<text text-anchor="start" x="809.5" y="-255.8" font-family="Helvetica,sans-Serif" font-size="9.00">rect&#45;parameter.ts</text>
</a>
</g>
</g>
<!-- packages/UI/view&#45;parameters/src/index.ts&#45;&gt;packages/UI/view&#45;parameters/src/rect&#45;parameter.ts -->
<g id="edge12" class="edge">
<title>packages/UI/view&#45;parameters/src/index.ts&#45;&gt;packages/UI/view&#45;parameters/src/rect&#45;parameter.ts</title>
<path fill="none" stroke="#000000" stroke-width="2" stroke-opacity="0.200000" d="M129.4,-142.11C128.33,-166.94 129.2,-236.08 169,-267 232.03,-315.97 268.68,-273 348.5,-273 348.5,-273 348.5,-273 595.5,-273 680.67,-273 702.13,-273.1 787,-266 789.63,-265.78 792.33,-265.53 795.05,-265.25"/>
<polygon fill="#000000" fill-opacity="0.200000" stroke="#000000" stroke-width="2" stroke-opacity="0.200000" points="801.65,-266.65 795.46,-265.21 801.2,-262.48 801.65,-266.65"/>
</g>
<!-- packages/UI/view&#45;parameters/src/song&#45;length.ts -->
<g id="node12" class="node">
<title>packages/UI/view&#45;parameters/src/song&#45;length.ts</title>
<g id="a_node12"><a xlink:href="packages/UI/view-parameters/src/song-length.ts" xlink:title="song&#45;length.ts">
<path fill="#ddfeff" stroke="black" d="M763.5,-260C763.5,-260 693.5,-260 693.5,-260 690.5,-260 687.5,-257 687.5,-254 687.5,-254 687.5,-248 687.5,-248 687.5,-245 690.5,-242 693.5,-242 693.5,-242 763.5,-242 763.5,-242 766.5,-242 769.5,-245 769.5,-248 769.5,-248 769.5,-254 769.5,-254 769.5,-257 766.5,-260 763.5,-260"/>
<text text-anchor="start" x="695.5" y="-248.8" font-family="Helvetica,sans-Serif" font-size="9.00">song&#45;length.ts</text>
</a>
</g>
</g>
<!-- packages/UI/view&#45;parameters/src/index.ts&#45;&gt;packages/UI/view&#45;parameters/src/song&#45;length.ts -->
<g id="edge13" class="edge">
<title>packages/UI/view&#45;parameters/src/index.ts&#45;&gt;packages/UI/view&#45;parameters/src/song&#45;length.ts</title>
<path fill="none" stroke="#000000" stroke-width="2" stroke-opacity="0.200000" d="M150.76,-142.02C156.57,-144.26 162.95,-146.46 169,-148 194.42,-154.47 384.41,-160.5 403,-179 421.45,-197.35 391.77,-219.47 411,-237 449.31,-271.91 602.73,-263.01 681.02,-255.88"/>
<polygon fill="#000000" fill-opacity="0.200000" stroke="#000000" stroke-width="2" stroke-opacity="0.200000" points="687.64,-257.38 681.47,-255.84 687.25,-253.19 687.64,-257.38"/>
</g>
<!-- packages/UI/view&#45;parameters/src/current&#45;time&#45;x.ts&#45;&gt;packages/UI/view&#45;parameters/src/current&#45;time&#45;ratio.ts -->
<g id="edge2" class="edge">
<title>packages/UI/view&#45;parameters/src/current&#45;time&#45;x.ts&#45;&gt;packages/UI/view&#45;parameters/src/current&#45;time&#45;ratio.ts</title>
<path fill="none" stroke="#000000" stroke-width="2" stroke-opacity="0.200000" d="M396.01,-71.39C398.87,-71.03 401.76,-70.68 404.67,-70.32"/>
<polygon fill="#000000" fill-opacity="0.200000" stroke="#000000" stroke-width="2" stroke-opacity="0.200000" points="404.94,-72.4 410.63,-69.58 404.42,-68.23 404.94,-72.4"/>
</g>
<!-- packages/UI/view&#45;parameters/src/current&#45;time&#45;x.ts&#45;&gt;packages/UI/view&#45;parameters/src/piano&#45;roll/index.ts -->
<g id="edge3" class="edge">
<title>packages/UI/view&#45;parameters/src/current&#45;time&#45;x.ts&#45;&gt;packages/UI/view&#45;parameters/src/piano&#45;roll/index.ts</title>
<path fill="none" stroke="#000000" stroke-width="2" stroke-opacity="0.200000" d="M396.1,-86.16C398.64,-87.81 400.98,-89.74 403,-92 417.4,-108.13 396.29,-124.14 411,-140 416.44,-145.87 424.06,-149.28 431.83,-151.22"/>
<polygon fill="#000000" fill-opacity="0.200000" stroke="#000000" stroke-width="2" stroke-opacity="0.200000" points="431.47,-153.28 437.77,-152.43 432.31,-149.17 431.47,-153.28"/>
</g>
<!-- packages/UI/view&#45;parameters/src/piano&#45;roll/piano&#45;roll&#45;begin.ts -->
<g id="node13" class="node">
<title>packages/UI/view&#45;parameters/src/piano&#45;roll/piano&#45;roll&#45;begin.ts</title>
<g id="a_node13"><a xlink:href="packages/UI/view-parameters/src/piano-roll/piano-roll-begin.ts" xlink:title="piano&#45;roll&#45;begin.ts">
<path fill="#ddfeff" stroke="black" d="M892,-109C892,-109 806,-109 806,-109 803,-109 800,-106 800,-103 800,-103 800,-97 800,-97 800,-94 803,-91 806,-91 806,-91 892,-91 892,-91 895,-91 898,-94 898,-97 898,-97 898,-103 898,-103 898,-106 895,-109 892,-109"/>
<text text-anchor="start" x="808" y="-97.8" font-family="Helvetica,sans-Serif" font-size="9.00">piano&#45;roll&#45;begin.ts</text>
</a>
</g>
</g>
<!-- packages/UI/view&#45;parameters/src/piano&#45;roll/index.ts&#45;&gt;packages/UI/view&#45;parameters/src/piano&#45;roll/piano&#45;roll&#45;begin.ts -->
<g id="edge18" class="edge">
<title>packages/UI/view&#45;parameters/src/piano&#45;roll/index.ts&#45;&gt;packages/UI/view&#45;parameters/src/piano&#45;roll/piano&#45;roll&#45;begin.ts</title>
<path fill="none" stroke="#000000" stroke-width="2" stroke-opacity="0.200000" d="M492.05,-151.94C501.59,-150.29 511.8,-146.87 519,-140 533.75,-125.92 515.67,-108.21 532,-96 618.26,-31.54 757.98,-68.27 818.5,-88.92"/>
<polygon fill="#000000" fill-opacity="0.200000" stroke="#000000" stroke-width="2" stroke-opacity="0.200000" points="823.76,-92.97 818.78,-89.02 825.14,-89 823.76,-92.97"/>
</g>
<!-- packages/UI/view&#45;parameters/src/piano&#45;roll/piano&#45;roll&#45;constants.ts -->
<g id="node14" class="node">
<title>packages/UI/view&#45;parameters/src/piano&#45;roll/piano&#45;roll&#45;constants.ts</title>
<g id="a_node14"><a xlink:href="packages/UI/view-parameters/src/piano-roll/piano-roll-constants.ts" xlink:title="piano&#45;roll&#45;constants.ts">
<path fill="#ddfeff" stroke="black" d="M781,-178C781,-178 676,-178 676,-178 673,-178 670,-175 670,-172 670,-172 670,-166 670,-166 670,-163 673,-160 676,-160 676,-160 781,-160 781,-160 784,-160 787,-163 787,-166 787,-166 787,-172 787,-172 787,-175 784,-178 781,-178"/>
<text text-anchor="start" x="678" y="-166.8" font-family="Helvetica,sans-Serif" font-size="9.00">piano&#45;roll&#45;constants.ts</text>
</a>
</g>
</g>
<!-- packages/UI/view&#45;parameters/src/piano&#45;roll/index.ts&#45;&gt;packages/UI/view&#45;parameters/src/piano&#45;roll/piano&#45;roll&#45;constants.ts -->
<g id="edge19" class="edge">
<title>packages/UI/view&#45;parameters/src/piano&#45;roll/index.ts&#45;&gt;packages/UI/view&#45;parameters/src/piano&#45;roll/piano&#45;roll&#45;constants.ts</title>
<path fill="none" stroke="#000000" stroke-width="2" stroke-opacity="0.200000" d="M492.03,-154.59C531.71,-157.02 608.53,-161.72 663.64,-165.09"/>
<polygon fill="#000000" fill-opacity="0.200000" stroke="#000000" stroke-width="2" stroke-opacity="0.200000" points="669.79,-167.57 663.93,-165.11 670.04,-163.38 669.79,-167.57"/>
</g>
<!-- packages/UI/view&#45;parameters/src/piano&#45;roll/piano&#45;roll&#45;end.ts -->
<g id="node15" class="node">
<title>packages/UI/view&#45;parameters/src/piano&#45;roll/piano&#45;roll&#45;end.ts</title>
<g id="a_node15"><a xlink:href="packages/UI/view-parameters/src/piano-roll/piano-roll-end.ts" xlink:title="piano&#45;roll&#45;end.ts">
<path fill="#ddfeff" stroke="black" d="M888,-140C888,-140 810,-140 810,-140 807,-140 804,-137 804,-134 804,-134 804,-128 804,-128 804,-125 807,-122 810,-122 810,-122 888,-122 888,-122 891,-122 894,-125 894,-128 894,-128 894,-134 894,-134 894,-137 891,-140 888,-140"/>
<text text-anchor="start" x="812" y="-128.8" font-family="Helvetica,sans-Serif" font-size="9.00">piano&#45;roll&#45;end.ts</text>
</a>
</g>
</g>
<!-- packages/UI/view&#45;parameters/src/piano&#45;roll/index.ts&#45;&gt;packages/UI/view&#45;parameters/src/piano&#45;roll/piano&#45;roll&#45;end.ts -->
<g id="edge20" class="edge">
<title>packages/UI/view&#45;parameters/src/piano&#45;roll/index.ts&#45;&gt;packages/UI/view&#45;parameters/src/piano&#45;roll/piano&#45;roll&#45;end.ts</title>
<path fill="none" stroke="#000000" stroke-width="2" stroke-opacity="0.200000" d="M492.27,-148.84C504.34,-147.07 518.87,-145.16 532,-144 625.59,-135.71 735.26,-132.7 797.69,-131.61"/>
<polygon fill="#000000" fill-opacity="0.200000" stroke="#000000" stroke-width="2" stroke-opacity="0.200000" points="803.99,-133.6 797.95,-131.6 803.92,-129.4 803.99,-133.6"/>
</g>
<!-- packages/UI/view&#45;parameters/src/piano&#45;roll/piano&#45;roll&#45;height.ts -->
<g id="node16" class="node">
<title>packages/UI/view&#45;parameters/src/piano&#45;roll/piano&#45;roll&#45;height.ts</title>
<g id="a_node16"><a xlink:href="packages/UI/view-parameters/src/piano-roll/piano-roll-height.ts" xlink:title="piano&#45;roll&#45;height.ts">
<path fill="#ddfeff" stroke="black" d="M639.5,-120C639.5,-120 549.5,-120 549.5,-120 546.5,-120 543.5,-117 543.5,-114 543.5,-114 543.5,-108 543.5,-108 543.5,-105 546.5,-102 549.5,-102 549.5,-102 639.5,-102 639.5,-102 642.5,-102 645.5,-105 645.5,-108 645.5,-108 645.5,-114 645.5,-114 645.5,-117 642.5,-120 639.5,-120"/>
<text text-anchor="start" x="551.5" y="-108.8" font-family="Helvetica,sans-Serif" font-size="9.00">piano&#45;roll&#45;height.ts</text>
</a>
</g>
</g>
<!-- packages/UI/view&#45;parameters/src/piano&#45;roll/index.ts&#45;&gt;packages/UI/view&#45;parameters/src/piano&#45;roll/piano&#45;roll&#45;height.ts -->
<g id="edge21" class="edge">
<title>packages/UI/view&#45;parameters/src/piano&#45;roll/index.ts&#45;&gt;packages/UI/view&#45;parameters/src/piano&#45;roll/piano&#45;roll&#45;height.ts</title>
<path fill="none" stroke="#000000" stroke-width="2" stroke-opacity="0.200000" d="M492.19,-149.08C501.02,-147.11 510.73,-144.22 519,-140 525.74,-136.56 525.33,-132.59 532,-129 536.89,-126.37 542.22,-124.08 547.62,-122.1"/>
<polygon fill="#000000" fill-opacity="0.200000" stroke="#000000" stroke-width="2" stroke-opacity="0.200000" points="554.18,-122.05 547.82,-122.03 552.81,-118.08 554.18,-122.05"/>
</g>
<!-- packages/UI/view&#45;parameters/src/piano&#45;roll/piano&#45;roll&#45;ratio.ts -->
<g id="node17" class="node">
<title>packages/UI/view&#45;parameters/src/piano&#45;roll/piano&#45;roll&#45;ratio.ts</title>
<g id="a_node17"><a xlink:href="packages/UI/view-parameters/src/piano-roll/piano-roll-ratio.ts" xlink:title="piano&#45;roll&#45;ratio.ts">
<path fill="#ddfeff" stroke="black" d="M769,-208C769,-208 688,-208 688,-208 685,-208 682,-205 682,-202 682,-202 682,-196 682,-196 682,-193 685,-190 688,-190 688,-190 769,-190 769,-190 772,-190 775,-193 775,-196 775,-196 775,-202 775,-202 775,-205 772,-208 769,-208"/>
<text text-anchor="start" x="690" y="-196.8" font-family="Helvetica,sans-Serif" font-size="9.00">piano&#45;roll&#45;ratio.ts</text>
</a>
</g>
</g>
<!-- packages/UI/view&#45;parameters/src/piano&#45;roll/index.ts&#45;&gt;packages/UI/view&#45;parameters/src/piano&#45;roll/piano&#45;roll&#45;ratio.ts -->
<g id="edge22" class="edge">
<title>packages/UI/view&#45;parameters/src/piano&#45;roll/index.ts&#45;&gt;packages/UI/view&#45;parameters/src/piano&#45;roll/piano&#45;roll&#45;ratio.ts</title>
<path fill="none" stroke="#000000" stroke-width="2" stroke-opacity="0.200000" d="M492.01,-157.38C504.16,-159.41 518.82,-161.85 532,-164 587.53,-173.07 601.69,-173.7 657,-184 664.74,-185.44 672.94,-187.08 680.9,-188.74"/>
<polygon fill="#000000" fill-opacity="0.200000" stroke="#000000" stroke-width="2" stroke-opacity="0.200000" points="686.5,-192.06 681.06,-188.77 687.37,-187.94 686.5,-192.06"/>
</g>
<!-- packages/UI/view&#45;parameters/src/piano&#45;roll/piano&#45;roll&#45;time&#45;length.ts -->
<g id="node18" class="node">
<title>packages/UI/view&#45;parameters/src/piano&#45;roll/piano&#45;roll&#45;time&#45;length.ts</title>
<g id="a_node18"><a xlink:href="packages/UI/view-parameters/src/piano-roll/piano-roll-time-length.ts" xlink:title="piano&#45;roll&#45;time&#45;length.ts">
<path fill="#ddfeff" stroke="black" d="M651,-208C651,-208 538,-208 538,-208 535,-208 532,-205 532,-202 532,-202 532,-196 532,-196 532,-193 535,-190 538,-190 538,-190 651,-190 651,-190 654,-190 657,-193 657,-196 657,-196 657,-202 657,-202 657,-205 654,-208 651,-208"/>
<text text-anchor="start" x="540" y="-196.8" font-family="Helvetica,sans-Serif" font-size="9.00">piano&#45;roll&#45;time&#45;length.ts</text>
</a>
</g>
</g>
<!-- packages/UI/view&#45;parameters/src/piano&#45;roll/index.ts&#45;&gt;packages/UI/view&#45;parameters/src/piano&#45;roll/piano&#45;roll&#45;time&#45;length.ts -->
<g id="edge23" class="edge">
<title>packages/UI/view&#45;parameters/src/piano&#45;roll/index.ts&#45;&gt;packages/UI/view&#45;parameters/src/piano&#45;roll/piano&#45;roll&#45;time&#45;length.ts</title>
<path fill="none" stroke="#000000" stroke-width="2" stroke-opacity="0.200000" d="M492.05,-156.09C501.06,-157.99 510.92,-161.06 519,-166 526.53,-170.6 524.58,-176.23 532,-181 536.02,-183.58 540.41,-185.8 544.95,-187.71"/>
<polygon fill="#000000" fill-opacity="0.200000" stroke="#000000" stroke-width="2" stroke-opacity="0.200000" points="549.99,-191.92 545.16,-187.79 551.51,-188 549.99,-191.92"/>
</g>
<!-- packages/UI/view&#45;parameters/src/piano&#45;roll/piano&#45;roll&#45;width.ts -->
<g id="node19" class="node">
<title>packages/UI/view&#45;parameters/src/piano&#45;roll/piano&#45;roll&#45;width.ts</title>
<g id="a_node19"><a xlink:href="packages/UI/view-parameters/src/piano-roll/piano-roll-width.ts" xlink:title="piano&#45;roll&#45;width.ts">
<path fill="#ddfeff" stroke="black" d="M892,-174C892,-174 806,-174 806,-174 803,-174 800,-171 800,-168 800,-168 800,-162 800,-162 800,-159 803,-156 806,-156 806,-156 892,-156 892,-156 895,-156 898,-159 898,-162 898,-162 898,-168 898,-168 898,-171 895,-174 892,-174"/>
<text text-anchor="start" x="808" y="-162.8" font-family="Helvetica,sans-Serif" font-size="9.00">piano&#45;roll&#45;width.ts</text>
</a>
</g>
</g>
<!-- packages/UI/view&#45;parameters/src/piano&#45;roll/index.ts&#45;&gt;packages/UI/view&#45;parameters/src/piano&#45;roll/piano&#45;roll&#45;width.ts -->
<g id="edge24" class="edge">
<title>packages/UI/view&#45;parameters/src/piano&#45;roll/index.ts&#45;&gt;packages/UI/view&#45;parameters/src/piano&#45;roll/piano&#45;roll&#45;width.ts</title>
<path fill="none" stroke="#000000" stroke-width="2" stroke-opacity="0.200000" d="M492.29,-151.53C547.18,-148.8 677.94,-144.07 787,-154 790.28,-154.3 793.65,-154.68 797.04,-155.13"/>
<polygon fill="#000000" fill-opacity="0.200000" stroke="#000000" stroke-width="2" stroke-opacity="0.200000" points="802.86,-158.07 797.21,-155.15 803.44,-153.91 802.86,-158.07"/>
</g>
<!-- packages/UI/view&#45;parameters/src/note&#45;size.ts&#45;&gt;packages/UI/view&#45;parameters/src/piano&#45;roll/index.ts -->
<g id="edge14" class="edge">
<title>packages/UI/view&#45;parameters/src/note&#45;size.ts&#45;&gt;packages/UI/view&#45;parameters/src/piano&#45;roll/index.ts</title>
<path fill="none" stroke="#000000" stroke-width="2" stroke-opacity="0.200000" d="M383.53,-111.72C390.55,-113.95 397.49,-117.21 403,-122 409.61,-127.74 404.28,-134.38 411,-140 416.85,-144.89 424.26,-147.99 431.67,-149.94"/>
<polygon fill="#000000" fill-opacity="0.200000" stroke="#000000" stroke-width="2" stroke-opacity="0.200000" points="431.54,-152.07 437.86,-151.33 432.46,-147.97 431.54,-152.07"/>
</g>
<!-- packages/UI/view&#45;parameters/src/piano&#45;roll&#45;translate&#45;x.ts&#45;&gt;packages/UI/view&#45;parameters/src/current&#45;time&#45;x.ts -->
<g id="edge15" class="edge">
<title>packages/UI/view&#45;parameters/src/piano&#45;roll&#45;translate&#45;x.ts&#45;&gt;packages/UI/view&#45;parameters/src/current&#45;time&#45;x.ts</title>
<path fill="none" stroke="#000000" stroke-width="2" stroke-opacity="0.200000" d="M270.12,-94.93C280.63,-92.53 292.06,-89.91 302.86,-87.44"/>
<polygon fill="#000000" fill-opacity="0.200000" stroke="#000000" stroke-width="2" stroke-opacity="0.200000" points="303.4,-89.47 308.78,-86.09 302.47,-85.38 303.4,-89.47"/>
</g>
<!-- packages/UI/view&#45;parameters/src/piano&#45;roll&#45;translate&#45;x.ts&#45;&gt;packages/UI/view&#45;parameters/src/note&#45;size.ts -->
<g id="edge16" class="edge">
<title>packages/UI/view&#45;parameters/src/piano&#45;roll&#45;translate&#45;x.ts&#45;&gt;packages/UI/view&#45;parameters/src/note&#45;size.ts</title>
<path fill="none" stroke="#000000" stroke-width="2" stroke-opacity="0.200000" d="M290.19,-105.52C296.71,-105.68 303.21,-105.85 309.39,-106.01"/>
<polygon fill="#000000" fill-opacity="0.200000" stroke="#000000" stroke-width="2" stroke-opacity="0.200000" points="309.39,-108.11 315.44,-106.16 309.5,-103.91 309.39,-108.11"/>
</g>
<!-- packages/UI/view&#45;parameters/src/piano&#45;roll&#45;translate&#45;x.ts&#45;&gt;packages/UI/view&#45;parameters/src/now&#45;at.ts -->
<g id="edge17" class="edge">
<title>packages/UI/view&#45;parameters/src/piano&#45;roll&#45;translate&#45;x.ts&#45;&gt;packages/UI/view&#45;parameters/src/now&#45;at.ts</title>
<path fill="none" stroke="#000000" stroke-width="2" stroke-opacity="0.200000" d="M262.74,-113.02C278.67,-117.47 297.89,-122.85 314.09,-127.38"/>
<polygon fill="#000000" fill-opacity="0.200000" stroke="#000000" stroke-width="2" stroke-opacity="0.200000" points="313.57,-129.41 319.92,-129.01 314.7,-125.37 313.57,-129.41"/>
</g>
<!-- packages/UI/view&#45;parameters/src/piano&#45;roll/octave&#45;count.ts&#45;&gt;packages/UI/view&#45;parameters/src/piano&#45;roll/piano&#45;roll&#45;begin.ts -->
<g id="edge25" class="edge">
<title>packages/UI/view&#45;parameters/src/piano&#45;roll/octave&#45;count.ts&#45;&gt;packages/UI/view&#45;parameters/src/piano&#45;roll/piano&#45;roll&#45;begin.ts</title>
<path fill="none" stroke="#000000" stroke-width="2" stroke-opacity="0.200000" d="M772.28,-107.03C779.22,-106.38 786.49,-105.71 793.66,-105.04"/>
<polygon fill="#000000" fill-opacity="0.200000" stroke="#000000" stroke-width="2" stroke-opacity="0.200000" points="793.87,-107.13 799.65,-104.49 793.48,-102.95 793.87,-107.13"/>
</g>
<!-- packages/UI/view&#45;parameters/src/piano&#45;roll/octave&#45;count.ts&#45;&gt;packages/UI/view&#45;parameters/src/piano&#45;roll/piano&#45;roll&#45;end.ts -->
<g id="edge26" class="edge">
<title>packages/UI/view&#45;parameters/src/piano&#45;roll/octave&#45;count.ts&#45;&gt;packages/UI/view&#45;parameters/src/piano&#45;roll/piano&#45;roll&#45;end.ts</title>
<path fill="none" stroke="#000000" stroke-width="2" stroke-opacity="0.200000" d="M772.28,-118.22C780.42,-119.59 789,-121.04 797.35,-122.45"/>
<polygon fill="#000000" fill-opacity="0.200000" stroke="#000000" stroke-width="2" stroke-opacity="0.200000" points="797.42,-124.59 803.69,-123.52 798.12,-120.45 797.42,-124.59"/>
</g>
<!-- packages/UI/view&#45;parameters/src/position/black&#45;position.ts -->
<g id="node21" class="node">
<title>packages/UI/view&#45;parameters/src/position/black&#45;position.ts</title>
<g id="a_node21"><a xlink:href="packages/UI/view-parameters/src/position/black-position.ts" xlink:title="black&#45;position.ts">
<path fill="#ddfeff" stroke="black" d="M388.5,-208C388.5,-208 310.5,-208 310.5,-208 307.5,-208 304.5,-205 304.5,-202 304.5,-202 304.5,-196 304.5,-196 304.5,-193 307.5,-190 310.5,-190 310.5,-190 388.5,-190 388.5,-190 391.5,-190 394.5,-193 394.5,-196 394.5,-196 394.5,-202 394.5,-202 394.5,-205 391.5,-208 388.5,-208"/>
<text text-anchor="start" x="312.5" y="-196.8" font-family="Helvetica,sans-Serif" font-size="9.00">black&#45;position.ts</text>
</a>
</g>
</g>
<!-- packages/UI/view&#45;parameters/src/position/index.ts&#45;&gt;packages/UI/view&#45;parameters/src/position/black&#45;position.ts -->
<g id="edge36" class="edge">
<title>packages/UI/view&#45;parameters/src/position/index.ts&#45;&gt;packages/UI/view&#45;parameters/src/position/black&#45;position.ts</title>
<path fill="none" stroke="#000000" stroke-width="2" stroke-opacity="0.200000" d="M256.69,-199C268.93,-199 283.93,-199 298.23,-199"/>
<polygon fill="#000000" fill-opacity="0.200000" stroke="#000000" stroke-width="2" stroke-opacity="0.200000" points="304.3,-201.1 298.3,-199 304.3,-196.9 304.3,-201.1"/>
</g>
<!-- packages/UI/view&#45;parameters/src/position/white&#45;position.ts -->
<g id="node23" class="node">
<title>packages/UI/view&#45;parameters/src/position/white&#45;position.ts</title>
<g id="a_node23"><a xlink:href="packages/UI/view-parameters/src/position/white-position.ts" xlink:title="white&#45;position.ts">
<path fill="#ddfeff" stroke="black" d="M389,-238C389,-238 310,-238 310,-238 307,-238 304,-235 304,-232 304,-232 304,-226 304,-226 304,-223 307,-220 310,-220 310,-220 389,-220 389,-220 392,-220 395,-223 395,-226 395,-226 395,-232 395,-232 395,-235 392,-238 389,-238"/>
<text text-anchor="start" x="312" y="-226.8" font-family="Helvetica,sans-Serif" font-size="9.00">white&#45;position.ts</text>
</a>
</g>
</g>
<!-- packages/UI/view&#45;parameters/src/position/index.ts&#45;&gt;packages/UI/view&#45;parameters/src/position/white&#45;position.ts -->
<g id="edge37" class="edge">
<title>packages/UI/view&#45;parameters/src/position/index.ts&#45;&gt;packages/UI/view&#45;parameters/src/position/white&#45;position.ts</title>
<path fill="none" stroke="#000000" stroke-width="2" stroke-opacity="0.200000" d="M256.66,-204.31C267.07,-206.53 279.14,-209.24 290,-212 297.37,-213.87 305.21,-216.03 312.68,-218.17"/>
<polygon fill="#000000" fill-opacity="0.200000" stroke="#000000" stroke-width="2" stroke-opacity="0.200000" points="318.26,-221.98 313.08,-218.29 319.43,-217.94 318.26,-221.98"/>
</g>
<!-- packages/UI/view&#45;parameters/src/piano&#45;roll/piano&#45;roll&#45;constants.ts&#45;&gt;packages/UI/view&#45;parameters/src/rect&#45;parameter.ts -->
<g id="edge27" class="edge">
<title>packages/UI/view&#45;parameters/src/piano&#45;roll/piano&#45;roll&#45;constants.ts&#45;&gt;packages/UI/view&#45;parameters/src/rect&#45;parameter.ts</title>
<path fill="none" stroke="#000000" stroke-width="2" stroke-opacity="0.200000" d="M779.47,-178.11C782.21,-179.78 784.76,-181.72 787,-184 804.02,-201.28 784.39,-218.44 800,-237 802.9,-240.45 806.47,-243.34 810.35,-245.78"/>
<polygon fill="#000000" fill-opacity="0.200000" stroke="#000000" stroke-width="2" stroke-opacity="0.200000" points="809.53,-247.72 815.79,-248.82 811.57,-244.06 809.53,-247.72"/>
</g>
<!-- packages/UI/view&#45;parameters/src/piano&#45;roll/piano&#45;roll&#45;constants.ts&#45;&gt;packages/UI/view&#45;parameters/src/piano&#45;roll/piano&#45;roll&#45;width.ts -->
<g id="edge28" class="edge">
<title>packages/UI/view&#45;parameters/src/piano&#45;roll/piano&#45;roll&#45;constants.ts&#45;&gt;packages/UI/view&#45;parameters/src/piano&#45;roll/piano&#45;roll&#45;width.ts</title>
<path fill="none" stroke="#000000" stroke-width="2" stroke-opacity="0.200000" d="M787.01,-167.06C789.14,-166.99 791.26,-166.92 793.38,-166.84"/>
<polygon fill="#000000" fill-opacity="0.200000" stroke="#000000" stroke-width="2" stroke-opacity="0.200000" points="793.77,-168.93 799.7,-166.63 793.63,-164.73 793.77,-168.93"/>
</g>
<!-- packages/UI/view&#45;parameters/src/piano&#45;roll/piano&#45;roll&#45;height.ts&#45;&gt;packages/UI/view&#45;parameters/src/piano&#45;roll/octave&#45;count.ts -->
<g id="edge29" class="edge">
<title>packages/UI/view&#45;parameters/src/piano&#45;roll/piano&#45;roll&#45;height.ts&#45;&gt;packages/UI/view&#45;parameters/src/piano&#45;roll/octave&#45;count.ts</title>
<path fill="none" stroke="#000000" stroke-width="2" stroke-opacity="0.200000" d="M645.78,-111C656.5,-111 667.81,-111 678.48,-111"/>
<polygon fill="#000000" fill-opacity="0.200000" stroke="#000000" stroke-width="2" stroke-opacity="0.200000" points="678.68,-113.1 684.68,-111 678.68,-108.9 678.68,-113.1"/>
</g>
<!-- packages/UI/view&#45;parameters/src/piano&#45;roll/piano&#45;roll&#45;height.ts&#45;&gt;packages/UI/view&#45;parameters/src/piano&#45;roll/piano&#45;roll&#45;constants.ts -->
<g id="edge30" class="edge">
<title>packages/UI/view&#45;parameters/src/piano&#45;roll/piano&#45;roll&#45;height.ts&#45;&gt;packages/UI/view&#45;parameters/src/piano&#45;roll/piano&#45;roll&#45;constants.ts</title>
<path fill="none" stroke="#000000" stroke-width="2" stroke-opacity="0.200000" d="M616.12,-120.06C638.95,-130.09 675.8,-146.28 700.81,-157.27"/>
<polygon fill="#000000" fill-opacity="0.200000" stroke="#000000" stroke-width="2" stroke-opacity="0.200000" points="700.25,-159.32 706.58,-159.81 701.94,-155.47 700.25,-159.32"/>
</g>
<!-- packages/UI/view&#45;parameters/src/piano&#45;roll/piano&#45;roll&#45;time&#45;length.ts&#45;&gt;packages/UI/view&#45;parameters/src/song&#45;length.ts -->
<g id="edge31" class="edge">
<title>packages/UI/view&#45;parameters/src/piano&#45;roll/piano&#45;roll&#45;time&#45;length.ts&#45;&gt;packages/UI/view&#45;parameters/src/song&#45;length.ts</title>
<path fill="none" stroke="#000000" stroke-width="2" stroke-opacity="0.200000" d="M650.92,-208.09C653.05,-209.25 655.09,-210.55 657,-212 666.97,-219.58 660.15,-229.27 670,-237 673.5,-239.75 677.46,-241.96 681.63,-243.75"/>
<polygon fill="#000000" fill-opacity="0.200000" stroke="#000000" stroke-width="2" stroke-opacity="0.200000" points="681.06,-245.78 687.42,-245.94 682.55,-241.85 681.06,-245.78"/>
</g>
<!-- packages/UI/view&#45;parameters/src/piano&#45;roll/piano&#45;roll&#45;time&#45;length.ts&#45;&gt;packages/UI/view&#45;parameters/src/piano&#45;roll/piano&#45;roll&#45;ratio.ts -->
<g id="edge32" class="edge">
<title>packages/UI/view&#45;parameters/src/piano&#45;roll/piano&#45;roll&#45;time&#45;length.ts&#45;&gt;packages/UI/view&#45;parameters/src/piano&#45;roll/piano&#45;roll&#45;ratio.ts</title>
<path fill="none" stroke="#000000" stroke-width="2" stroke-opacity="0.200000" d="M657.25,-199C663.49,-199 669.78,-199 675.9,-199"/>
<polygon fill="#000000" fill-opacity="0.200000" stroke="#000000" stroke-width="2" stroke-opacity="0.200000" points="675.95,-201.1 681.95,-199 675.95,-196.9 675.95,-201.1"/>
</g>
<!-- packages/UI/view&#45;parameters/src/piano&#45;roll/windowInnerWidth.ts -->
<g id="node20" class="node">
<title>packages/UI/view&#45;parameters/src/piano&#45;roll/windowInnerWidth.ts</title>
<g id="a_node20"><a xlink:href="packages/UI/view-parameters/src/piano-roll/windowInnerWidth.ts" xlink:title="windowInnerWidth.ts">
<path fill="#ddfeff" stroke="black" d="M1018,-174C1018,-174 917,-174 917,-174 914,-174 911,-171 911,-168 911,-168 911,-162 911,-162 911,-159 914,-156 917,-156 917,-156 1018,-156 1018,-156 1021,-156 1024,-159 1024,-162 1024,-162 1024,-168 1024,-168 1024,-171 1021,-174 1018,-174"/>
<text text-anchor="start" x="919" y="-162.8" font-family="Helvetica,sans-Serif" font-size="9.00">windowInnerWidth.ts</text>
</a>
</g>
</g>
<!-- packages/UI/view&#45;parameters/src/piano&#45;roll/piano&#45;roll&#45;width.ts&#45;&gt;packages/UI/view&#45;parameters/src/piano&#45;roll/windowInnerWidth.ts -->
<g id="edge33" class="edge">
<title>packages/UI/view&#45;parameters/src/piano&#45;roll/piano&#45;roll&#45;width.ts&#45;&gt;packages/UI/view&#45;parameters/src/piano&#45;roll/windowInnerWidth.ts</title>
<path fill="none" stroke="#000000" stroke-width="2" stroke-opacity="0.200000" d="M898.06,-165C900.32,-165 902.61,-165 904.9,-165"/>
<polygon fill="#000000" fill-opacity="0.200000" stroke="#000000" stroke-width="2" stroke-opacity="0.200000" points="904.97,-167.1 910.97,-165 904.97,-162.9 904.97,-167.1"/>
</g>
<!-- packages/UI/view&#45;parameters/src/position/black&#45;position.ts&#45;&gt;packages/UI/view&#45;parameters/src/piano&#45;roll/index.ts -->
<g id="edge34" class="edge">
<title>packages/UI/view&#45;parameters/src/position/black&#45;position.ts&#45;&gt;packages/UI/view&#45;parameters/src/piano&#45;roll/index.ts</title>
<path fill="none" stroke="#000000" stroke-width="2" stroke-opacity="0.200000" d="M394.53,-191.62C397.58,-190.07 400.45,-188.22 403,-186 410.22,-179.71 403.77,-172.28 411,-166 416.75,-161 424.13,-157.86 431.53,-155.9"/>
<polygon fill="#000000" fill-opacity="0.200000" stroke="#000000" stroke-width="2" stroke-opacity="0.200000" points="432.33,-157.88 437.73,-154.52 431.42,-153.78 432.33,-157.88"/>
</g>
<!-- packages/util/math/dist/index.js -->
<g id="node22" class="node">
<title>packages/util/math/dist/index.js</title>
<g id="a_node22"><a xlink:href="packages/util/math/dist/index.js" xlink:title="index.js">
<polygon fill="#ffffcc" stroke="black" points="492,-402 490.5,-404 480,-404 478.5,-402 438,-402 438,-384 492,-384 492,-402"/>
<text text-anchor="start" x="447.5" y="-390.8" font-family="Helvetica,sans-Serif" font-size="9.00">index.js</text>
</a>
</g>
</g>
<!-- packages/UI/view&#45;parameters/src/position/black&#45;position.ts&#45;&gt;packages/util/math/dist/index.js -->
<g id="edge35" class="edge">
<title>packages/UI/view&#45;parameters/src/position/black&#45;position.ts&#45;&gt;packages/util/math/dist/index.js</title>
<path fill="none" stroke="#000000" stroke-width="2" stroke-opacity="0.200000" d="M394.88,-207.07C397.93,-208.94 400.7,-211.22 403,-214 415.66,-229.3 404.92,-284.09 411,-303 420.35,-332.1 440.37,-361.9 452.95,-378.86"/>
<polygon fill="#000000" fill-opacity="0.200000" stroke="#000000" stroke-width="2" stroke-opacity="0.200000" points="451.3,-380.17 456.59,-383.7 454.66,-377.64 451.3,-380.17"/>
</g>
<!-- packages/UI/view&#45;parameters/src/position/white&#45;position.ts&#45;&gt;packages/UI/view&#45;parameters/src/piano&#45;roll/index.ts -->
<g id="edge38" class="edge">
<title>packages/UI/view&#45;parameters/src/position/white&#45;position.ts&#45;&gt;packages/UI/view&#45;parameters/src/piano&#45;roll/index.ts</title>
<path fill="none" stroke="#000000" stroke-width="2" stroke-opacity="0.200000" d="M395.14,-220.45C398.06,-218.67 400.73,-216.55 403,-214 417.4,-197.87 396.29,-181.86 411,-166 416.44,-160.13 424.06,-156.72 431.83,-154.78"/>
<polygon fill="#000000" fill-opacity="0.200000" stroke="#000000" stroke-width="2" stroke-opacity="0.200000" points="432.31,-156.83 437.77,-153.57 431.47,-152.72 432.31,-156.83"/>
</g>
<!-- packages/UI/view&#45;parameters/src/position/white&#45;position.ts&#45;&gt;packages/util/math/dist/index.js -->
<g id="edge39" class="edge">
<title>packages/UI/view&#45;parameters/src/position/white&#45;position.ts&#45;&gt;packages/util/math/dist/index.js</title>
<path fill="none" stroke="#000000" stroke-width="2" stroke-opacity="0.200000" d="M356.93,-238.29C375.81,-265.57 431.23,-345.65 454.03,-378.59"/>
<polygon fill="#000000" fill-opacity="0.200000" stroke="#000000" stroke-width="2" stroke-opacity="0.200000" points="452.5,-380.08 457.64,-383.81 455.96,-377.69 452.5,-380.08"/>
</g>
</g>
</svg>
