<?xml version="1.0" encoding="UTF-8" standalone="no"?>
<!DOCTYPE svg PUBLIC "-//W3C//DTD SVG 1.1//EN"
 "http://www.w3.org/Graphics/SVG/1.1/DTD/svg11.dtd">
<!-- Generated by graphviz version 2.43.0 (0)
 -->
<!-- Title: dependency&#45;cruiser output Pages: 1 -->
<svg width="523pt" height="729pt"
 viewBox="0.00 0.00 522.61 729.25" xmlns="http://www.w3.org/2000/svg" xmlns:xlink="http://www.w3.org/1999/xlink">
<g id="graph0" class="graph" transform="scale(1 1) rotate(0) translate(4 725.25)">
<title>dependency&#45;cruiser output</title>
<polygon fill="white" stroke="transparent" points="-4,4 -4,-725.25 518.61,-725.25 518.61,4 -4,4"/>
<g id="clust1" class="cluster">
<title>cluster_packages</title>
<path fill="#ffffff" stroke="black" stroke-width="2" d="M12,0C12,0 502.61,0 502.61,0 508.61,0 514.61,-6 514.61,-12 514.61,-12 514.61,-709.25 514.61,-709.25 514.61,-715.25 508.61,-721.25 502.61,-721.25 502.61,-721.25 12,-721.25 12,-721.25 6,-721.25 0,-715.25 0,-709.25 0,-709.25 0,-12 0,-12 0,-6 6,0 12,0"/>
<text text-anchor="middle" x="257.3" y="-710.05" font-family="Helvetica,sans-Serif" font-weight="bold" font-size="9.00">packages</text>
</g>
<!-- packages/UI/view&#45;parameters/src/bracket&#45;height.ts -->
<g id="node1" class="node">
<title>packages/UI/view&#45;parameters/src/bracket&#45;height.ts</title>
<g id="a_node1"><a xlink:href="packages/UI/view-parameters/src/bracket-height.ts" xlink:title="no&#45;orphans">
<path fill="#ccffcc" stroke="orange" d="M245,-252C245,-252 162,-252 162,-252 159,-252 156,-249 156,-246 156,-246 156,-240 156,-240 156,-237 159,-234 162,-234 162,-234 245,-234 245,-234 248,-234 251,-237 251,-240 251,-240 251,-246 251,-246 251,-249 248,-252 245,-252"/>
<text text-anchor="start" x="164" y="-240.8" font-family="Helvetica,sans-Serif" font-size="9.00" fill="orange">bracket&#45;height.ts</text>
</a>
</g>
</g>
<!-- packages/UI/view&#45;parameters/src/current&#45;time&#45;ratio.ts -->
<g id="node2" class="node">
<title>packages/UI/view&#45;parameters/src/current&#45;time&#45;ratio.ts</title>
<g id="a_node2"><a xlink:href="packages/UI/view-parameters/src/current-time-ratio.ts" xlink:title="current&#45;time&#45;ratio.ts">
<path fill="#ddfeff" stroke="black" d="M102,-454.36C102,-454.36 6,-454.36 6,-454.36 3,-454.36 0,-451.36 0,-448.36 0,-448.36 0,-442.36 0,-442.36 0,-439.36 3,-436.36 6,-436.36 6,-436.36 102,-436.36 102,-436.36 105,-436.36 108,-439.36 108,-442.36 108,-442.36 108,-448.36 108,-448.36 108,-451.36 105,-454.36 102,-454.36"/>
<text text-anchor="start" x="8" y="-443.16" font-family="Helvetica,sans-Serif" font-size="9.00">current&#45;time&#45;ratio.ts</text>
</a>
</g>
</g>
<!-- packages/UI/view&#45;parameters/src/current&#45;time&#45;x.ts -->
<g id="node3" class="node">
<title>packages/UI/view&#45;parameters/src/current&#45;time&#45;x.ts</title>
<g id="a_node3"><a xlink:href="packages/UI/view-parameters/src/current-time-x.ts" xlink:title="current&#45;time&#45;x.ts">
<path fill="#ddfeff" stroke="black" d="M167.81,-480.85C167.81,-480.85 86.81,-480.85 86.81,-480.85 83.81,-480.85 80.81,-477.85 80.81,-474.85 80.81,-474.85 80.81,-468.85 80.81,-468.85 80.81,-465.85 83.81,-462.85 86.81,-462.85 86.81,-462.85 167.81,-462.85 167.81,-462.85 170.81,-462.85 173.81,-465.85 173.81,-468.85 173.81,-468.85 173.81,-474.85 173.81,-474.85 173.81,-477.85 170.81,-480.85 167.81,-480.85"/>
<text text-anchor="start" x="88.81" y="-469.65" font-family="Helvetica,sans-Serif" font-size="9.00">current&#45;time&#45;x.ts</text>
</a>
</g>
</g>
<!-- packages/UI/view&#45;parameters/src/current&#45;time&#45;x.ts&#45;&gt;packages/UI/view&#45;parameters/src/current&#45;time&#45;ratio.ts -->
<g id="edge1" class="edge">
<title>packages/UI/view&#45;parameters/src/current&#45;time&#45;x.ts&#45;&gt;packages/UI/view&#45;parameters/src/current&#45;time&#45;ratio.ts</title>
<path fill="none" stroke="#000000" stroke-width="2" stroke-opacity="0.200000" d="M102.08,-462.73C96.49,-460.71 90.5,-458.55 84.72,-456.46"/>
<polygon fill="#000000" fill-opacity="0.200000" stroke="#000000" stroke-width="2" stroke-opacity="0.200000" points="85.38,-454.47 79.03,-454.4 83.96,-458.42 85.38,-454.47"/>
</g>
<!-- packages/UI/view&#45;parameters/src/piano&#45;roll/piano&#45;roll&#45;width.ts -->
<g id="node4" class="node">
<title>packages/UI/view&#45;parameters/src/piano&#45;roll/piano&#45;roll&#45;width.ts</title>
<g id="a_node4"><a xlink:href="packages/UI/view-parameters/src/piano-roll/piano-roll-width.ts" xlink:title="piano&#45;roll&#45;width.ts">
<path fill="#ddfeff" stroke="black" d="M273.87,-463.89C273.87,-463.89 187.87,-463.89 187.87,-463.89 184.87,-463.89 181.87,-460.89 181.87,-457.89 181.87,-457.89 181.87,-451.89 181.87,-451.89 181.87,-448.89 184.87,-445.89 187.87,-445.89 187.87,-445.89 273.87,-445.89 273.87,-445.89 276.87,-445.89 279.87,-448.89 279.87,-451.89 279.87,-451.89 279.87,-457.89 279.87,-457.89 279.87,-460.89 276.87,-463.89 273.87,-463.89"/>
<text text-anchor="start" x="189.87" y="-452.69" font-family="Helvetica,sans-Serif" font-size="9.00">piano&#45;roll&#45;width.ts</text>
</a>
</g>
</g>
<!-- packages/UI/view&#45;parameters/src/current&#45;time&#45;x.ts&#45;&gt;packages/UI/view&#45;parameters/src/piano&#45;roll/piano&#45;roll&#45;width.ts -->
<g id="edge2" class="edge">
<title>packages/UI/view&#45;parameters/src/current&#45;time&#45;x.ts&#45;&gt;packages/UI/view&#45;parameters/src/piano&#45;roll/piano&#45;roll&#45;width.ts</title>
<path fill="none" stroke="#000000" stroke-width="2" stroke-opacity="0.200000" d="M173.94,-464.21C174.42,-464.13 174.91,-464.05 175.39,-463.97"/>
<polygon fill="#000000" fill-opacity="0.200000" stroke="#000000" stroke-width="2" stroke-opacity="0.200000" points="176.11,-465.98 181.7,-462.94 175.43,-461.84 176.11,-465.98"/>
</g>
<!-- packages/UI/view&#45;parameters/src/piano&#45;roll/windowInnerWidth.ts -->
<g id="node17" class="node">
<title>packages/UI/view&#45;parameters/src/piano&#45;roll/windowInnerWidth.ts</title>
<g id="a_node17"><a xlink:href="packages/UI/view-parameters/src/piano-roll/windowInnerWidth.ts" xlink:title="windowInnerWidth.ts">
<path fill="#ddfeff" stroke="black" d="M394.93,-488.47C394.93,-488.47 293.93,-488.47 293.93,-488.47 290.93,-488.47 287.93,-485.47 287.93,-482.47 287.93,-482.47 287.93,-476.47 287.93,-476.47 287.93,-473.47 290.93,-470.47 293.93,-470.47 293.93,-470.47 394.93,-470.47 394.93,-470.47 397.93,-470.47 400.93,-473.47 400.93,-476.47 400.93,-476.47 400.93,-482.47 400.93,-482.47 400.93,-485.47 397.93,-488.47 394.93,-488.47"/>
<text text-anchor="start" x="295.93" y="-477.27" font-family="Helvetica,sans-Serif" font-size="9.00">windowInnerWidth.ts</text>
</a>
</g>
</g>
<!-- packages/UI/view&#45;parameters/src/piano&#45;roll/piano&#45;roll&#45;width.ts&#45;&gt;packages/UI/view&#45;parameters/src/piano&#45;roll/windowInnerWidth.ts -->
<g id="edge16" class="edge">
<title>packages/UI/view&#45;parameters/src/piano&#45;roll/piano&#45;roll&#45;width.ts&#45;&gt;packages/UI/view&#45;parameters/src/piano&#45;roll/windowInnerWidth.ts</title>
<path fill="none" stroke="#000000" stroke-width="2" stroke-opacity="0.200000" d="M272.51,-463.9C280.38,-465.61 288.66,-467.4 296.7,-469.14"/>
<polygon fill="#000000" fill-opacity="0.200000" stroke="#000000" stroke-width="2" stroke-opacity="0.200000" points="296.48,-471.24 302.79,-470.46 297.37,-467.14 296.48,-471.24"/>
</g>
<!-- packages/UI/view&#45;parameters/src/note&#45;size.ts -->
<g id="node5" class="node">
<title>packages/UI/view&#45;parameters/src/note&#45;size.ts</title>
<g id="a_node5"><a xlink:href="packages/UI/view-parameters/src/note-size.ts" xlink:title="note&#45;size.ts">
<path fill="#ddfeff" stroke="black" d="M265.74,-559.37C265.74,-559.37 209.74,-559.37 209.74,-559.37 206.74,-559.37 203.74,-556.37 203.74,-553.37 203.74,-553.37 203.74,-547.37 203.74,-547.37 203.74,-544.37 206.74,-541.37 209.74,-541.37 209.74,-541.37 265.74,-541.37 265.74,-541.37 268.74,-541.37 271.74,-544.37 271.74,-547.37 271.74,-547.37 271.74,-553.37 271.74,-553.37 271.74,-556.37 268.74,-559.37 265.74,-559.37"/>
<text text-anchor="start" x="211.74" y="-548.17" font-family="Helvetica,sans-Serif" font-size="9.00">note&#45;size.ts</text>
</a>
</g>
</g>
<!-- packages/UI/view&#45;parameters/src/note&#45;size.ts&#45;&gt;packages/UI/view&#45;parameters/src/piano&#45;roll/piano&#45;roll&#45;width.ts -->
<g id="edge4" class="edge">
<title>packages/UI/view&#45;parameters/src/note&#45;size.ts&#45;&gt;packages/UI/view&#45;parameters/src/piano&#45;roll/piano&#45;roll&#45;width.ts</title>
<path fill="none" stroke="#000000" stroke-width="2" stroke-opacity="0.200000" d="M237.08,-541.21C235.9,-524.86 233.43,-490.46 231.98,-470.37"/>
<polygon fill="#000000" fill-opacity="0.200000" stroke="#000000" stroke-width="2" stroke-opacity="0.200000" points="234.06,-469.99 231.53,-464.16 229.87,-470.29 234.06,-469.99"/>
</g>
<!-- packages/UI/view&#45;parameters/src/piano&#45;roll/piano&#45;roll&#45;time&#45;length.ts -->
<g id="node6" class="node">
<title>packages/UI/view&#45;parameters/src/piano&#45;roll/piano&#45;roll&#45;time&#45;length.ts</title>
<g id="a_node6"><a xlink:href="packages/UI/view-parameters/src/piano-roll/piano-roll-time-length.ts" xlink:title="piano&#45;roll&#45;time&#45;length.ts">
<path fill="#ddfeff" stroke="black" d="M340.2,-637.32C340.2,-637.32 227.2,-637.32 227.2,-637.32 224.2,-637.32 221.2,-634.32 221.2,-631.32 221.2,-631.32 221.2,-625.32 221.2,-625.32 221.2,-622.32 224.2,-619.32 227.2,-619.32 227.2,-619.32 340.2,-619.32 340.2,-619.32 343.2,-619.32 346.2,-622.32 346.2,-625.32 346.2,-625.32 346.2,-631.32 346.2,-631.32 346.2,-634.32 343.2,-637.32 340.2,-637.32"/>
<text text-anchor="start" x="229.2" y="-626.12" font-family="Helvetica,sans-Serif" font-size="9.00">piano&#45;roll&#45;time&#45;length.ts</text>
</a>
</g>
</g>
<!-- packages/UI/view&#45;parameters/src/note&#45;size.ts&#45;&gt;packages/UI/view&#45;parameters/src/piano&#45;roll/piano&#45;roll&#45;time&#45;length.ts -->
<g id="edge3" class="edge">
<title>packages/UI/view&#45;parameters/src/note&#45;size.ts&#45;&gt;packages/UI/view&#45;parameters/src/piano&#45;roll/piano&#45;roll&#45;time&#45;length.ts</title>
<path fill="none" stroke="#000000" stroke-width="2" stroke-opacity="0.200000" d="M243.19,-559.62C251.07,-572.98 265.71,-597.81 275.07,-613.68"/>
<polygon fill="#000000" fill-opacity="0.200000" stroke="#000000" stroke-width="2" stroke-opacity="0.200000" points="273.4,-614.98 278.25,-619.08 277.01,-612.85 273.4,-614.98"/>
</g>
<!-- packages/UI/view&#45;parameters/src/piano&#45;roll/piano&#45;roll&#45;ratio.ts -->
<g id="node15" class="node">
<title>packages/UI/view&#45;parameters/src/piano&#45;roll/piano&#45;roll&#45;ratio.ts</title>
<g id="a_node15"><a xlink:href="packages/UI/view-parameters/src/piano-roll/piano-roll-ratio.ts" xlink:title="piano&#45;roll&#45;ratio.ts">
<path fill="#ddfeff" stroke="black" d="M401.81,-675.93C401.81,-675.93 320.81,-675.93 320.81,-675.93 317.81,-675.93 314.81,-672.93 314.81,-669.93 314.81,-669.93 314.81,-663.93 314.81,-663.93 314.81,-660.93 317.81,-657.93 320.81,-657.93 320.81,-657.93 401.81,-657.93 401.81,-657.93 404.81,-657.93 407.81,-660.93 407.81,-663.93 407.81,-663.93 407.81,-669.93 407.81,-669.93 407.81,-672.93 404.81,-675.93 401.81,-675.93"/>
<text text-anchor="start" x="322.81" y="-664.73" font-family="Helvetica,sans-Serif" font-size="9.00">piano&#45;roll&#45;ratio.ts</text>
</a>
</g>
</g>
<!-- packages/UI/view&#45;parameters/src/piano&#45;roll/piano&#45;roll&#45;time&#45;length.ts&#45;&gt;packages/UI/view&#45;parameters/src/piano&#45;roll/piano&#45;roll&#45;ratio.ts -->
<g id="edge15" class="edge">
<title>packages/UI/view&#45;parameters/src/piano&#45;roll/piano&#45;roll&#45;time&#45;length.ts&#45;&gt;packages/UI/view&#45;parameters/src/piano&#45;roll/piano&#45;roll&#45;ratio.ts</title>
<path fill="none" stroke="#000000" stroke-width="2" stroke-opacity="0.200000" d="M302.09,-637.47C312.72,-642.76 326.22,-649.47 337.63,-655.15"/>
<polygon fill="#000000" fill-opacity="0.200000" stroke="#000000" stroke-width="2" stroke-opacity="0.200000" points="336.75,-657.05 343.05,-657.85 338.62,-653.29 336.75,-657.05"/>
</g>
<!-- packages/UI/view&#45;parameters/src/song&#45;length.ts -->
<g id="node16" class="node">
<title>packages/UI/view&#45;parameters/src/song&#45;length.ts</title>
<g id="a_node16"><a xlink:href="packages/UI/view-parameters/src/song-length.ts" xlink:title="song&#45;length.ts">
<path fill="#ddfeff" stroke="black" d="M296.12,-721.25C296.12,-721.25 226.12,-721.25 226.12,-721.25 223.12,-721.25 220.12,-718.25 220.12,-715.25 220.12,-715.25 220.12,-709.25 220.12,-709.25 220.12,-706.25 223.12,-703.25 226.12,-703.25 226.12,-703.25 296.12,-703.25 296.12,-703.25 299.12,-703.25 302.12,-706.25 302.12,-709.25 302.12,-709.25 302.12,-715.25 302.12,-715.25 302.12,-718.25 299.12,-721.25 296.12,-721.25"/>
<text text-anchor="start" x="228.12" y="-710.05" font-family="Helvetica,sans-Serif" font-size="9.00">song&#45;length.ts</text>
</a>
</g>
</g>
<!-- packages/UI/view&#45;parameters/src/piano&#45;roll/piano&#45;roll&#45;time&#45;length.ts&#45;&gt;packages/UI/view&#45;parameters/src/song&#45;length.ts -->
<g id="edge14" class="edge">
<title>packages/UI/view&#45;parameters/src/piano&#45;roll/piano&#45;roll&#45;time&#45;length.ts&#45;&gt;packages/UI/view&#45;parameters/src/song&#45;length.ts</title>
<path fill="none" stroke="#000000" stroke-width="2" stroke-opacity="0.200000" d="M281.2,-637.62C277.31,-652.06 269.79,-680.02 265.14,-697.31"/>
<polygon fill="#000000" fill-opacity="0.200000" stroke="#000000" stroke-width="2" stroke-opacity="0.200000" points="263.1,-696.82 263.57,-703.16 267.15,-697.91 263.1,-696.82"/>
</g>
<!-- packages/UI/view&#45;parameters/src/now&#45;at.ts -->
<g id="node7" class="node">
<title>packages/UI/view&#45;parameters/src/now&#45;at.ts</title>
<g id="a_node7"><a xlink:href="packages/UI/view-parameters/src/now-at.ts" xlink:title="now&#45;at.ts">
<path fill="#ddfeff" stroke="black" d="M91.28,-621.8C91.28,-621.8 44.28,-621.8 44.28,-621.8 41.28,-621.8 38.28,-618.8 38.28,-615.8 38.28,-615.8 38.28,-609.8 38.28,-609.8 38.28,-606.8 41.28,-603.8 44.28,-603.8 44.28,-603.8 91.28,-603.8 91.28,-603.8 94.28,-603.8 97.28,-606.8 97.28,-609.8 97.28,-609.8 97.28,-615.8 97.28,-615.8 97.28,-618.8 94.28,-621.8 91.28,-621.8"/>
<text text-anchor="start" x="46.28" y="-610.6" font-family="Helvetica,sans-Serif" font-size="9.00">now&#45;at.ts</text>
</a>
</g>
</g>
<!-- packages/UI/view&#45;parameters/src/piano&#45;roll&#45;translate&#45;x.ts -->
<g id="node8" class="node">
<title>packages/UI/view&#45;parameters/src/piano&#45;roll&#45;translate&#45;x.ts</title>
<g id="a_node8"><a xlink:href="packages/UI/view-parameters/src/piano-roll-translate-x.ts" xlink:title="piano&#45;roll&#45;translate&#45;x.ts">
<path fill="#ddfeff" stroke="black" d="M189.73,-570.65C189.73,-570.65 80.73,-570.65 80.73,-570.65 77.73,-570.65 74.73,-567.65 74.73,-564.65 74.73,-564.65 74.73,-558.65 74.73,-558.65 74.73,-555.65 77.73,-552.65 80.73,-552.65 80.73,-552.65 189.73,-552.65 189.73,-552.65 192.73,-552.65 195.73,-555.65 195.73,-558.65 195.73,-558.65 195.73,-564.65 195.73,-564.65 195.73,-567.65 192.73,-570.65 189.73,-570.65"/>
<text text-anchor="start" x="82.73" y="-559.45" font-family="Helvetica,sans-Serif" font-size="9.00">piano&#45;roll&#45;translate&#45;x.ts</text>
</a>
</g>
</g>
<!-- packages/UI/view&#45;parameters/src/piano&#45;roll&#45;translate&#45;x.ts&#45;&gt;packages/UI/view&#45;parameters/src/current&#45;time&#45;x.ts -->
<g id="edge5" class="edge">
<title>packages/UI/view&#45;parameters/src/piano&#45;roll&#45;translate&#45;x.ts&#45;&gt;packages/UI/view&#45;parameters/src/current&#45;time&#45;x.ts</title>
<path fill="none" stroke="#000000" stroke-width="2" stroke-opacity="0.200000" d="M134.41,-552.38C133.05,-536.97 130.32,-505.95 128.67,-487.22"/>
<polygon fill="#000000" fill-opacity="0.200000" stroke="#000000" stroke-width="2" stroke-opacity="0.200000" points="130.73,-486.73 128.11,-480.93 126.55,-487.1 130.73,-486.73"/>
</g>
<!-- packages/UI/view&#45;parameters/src/piano&#45;roll&#45;translate&#45;x.ts&#45;&gt;packages/UI/view&#45;parameters/src/note&#45;size.ts -->
<g id="edge6" class="edge">
<title>packages/UI/view&#45;parameters/src/piano&#45;roll&#45;translate&#45;x.ts&#45;&gt;packages/UI/view&#45;parameters/src/note&#45;size.ts</title>
<path fill="none" stroke="#000000" stroke-width="2" stroke-opacity="0.200000" d="M195.75,-554.99C196.34,-554.93 196.92,-554.86 197.51,-554.8"/>
<polygon fill="#000000" fill-opacity="0.200000" stroke="#000000" stroke-width="2" stroke-opacity="0.200000" points="197.94,-556.86 203.68,-554.12 197.48,-552.69 197.94,-556.86"/>
</g>
<!-- packages/UI/view&#45;parameters/src/piano&#45;roll&#45;translate&#45;x.ts&#45;&gt;packages/UI/view&#45;parameters/src/now&#45;at.ts -->
<g id="edge7" class="edge">
<title>packages/UI/view&#45;parameters/src/piano&#45;roll&#45;translate&#45;x.ts&#45;&gt;packages/UI/view&#45;parameters/src/now&#45;at.ts</title>
<path fill="none" stroke="#000000" stroke-width="2" stroke-opacity="0.200000" d="M123.17,-570.8C112.43,-578.94 96.6,-590.94 84.61,-600.03"/>
<polygon fill="#000000" fill-opacity="0.200000" stroke="#000000" stroke-width="2" stroke-opacity="0.200000" points="83.25,-598.43 79.74,-603.73 85.78,-601.78 83.25,-598.43"/>
</g>
<!-- packages/UI/view&#45;parameters/src/piano&#45;roll/octave&#45;count.ts -->
<g id="node9" class="node">
<title>packages/UI/view&#45;parameters/src/piano&#45;roll/octave&#45;count.ts</title>
<g id="a_node9"><a xlink:href="packages/UI/view-parameters/src/piano-roll/octave-count.ts" xlink:title="octave&#45;count.ts">
<path fill="#ddfeff" stroke="black" d="M410.54,-244.48C410.54,-244.48 335.54,-244.48 335.54,-244.48 332.54,-244.48 329.54,-241.48 329.54,-238.48 329.54,-238.48 329.54,-232.48 329.54,-232.48 329.54,-229.48 332.54,-226.48 335.54,-226.48 335.54,-226.48 410.54,-226.48 410.54,-226.48 413.54,-226.48 416.54,-229.48 416.54,-232.48 416.54,-232.48 416.54,-238.48 416.54,-238.48 416.54,-241.48 413.54,-244.48 410.54,-244.48"/>
<text text-anchor="start" x="337.54" y="-233.28" font-family="Helvetica,sans-Serif" font-size="9.00">octave&#45;count.ts</text>
</a>
</g>
</g>
<!-- packages/UI/view&#45;parameters/src/piano&#45;roll/piano&#45;roll&#45;begin.ts -->
<g id="node10" class="node">
<title>packages/UI/view&#45;parameters/src/piano&#45;roll/piano&#45;roll&#45;begin.ts</title>
<g id="a_node10"><a xlink:href="packages/UI/view-parameters/src/piano-roll/piano-roll-begin.ts" xlink:title="piano&#45;roll&#45;begin.ts">
<path fill="#ddfeff" stroke="black" d="M416.55,-156.51C416.55,-156.51 330.55,-156.51 330.55,-156.51 327.55,-156.51 324.55,-153.51 324.55,-150.51 324.55,-150.51 324.55,-144.51 324.55,-144.51 324.55,-141.51 327.55,-138.51 330.55,-138.51 330.55,-138.51 416.55,-138.51 416.55,-138.51 419.55,-138.51 422.55,-141.51 422.55,-144.51 422.55,-144.51 422.55,-150.51 422.55,-150.51 422.55,-153.51 419.55,-156.51 416.55,-156.51"/>
<text text-anchor="start" x="332.55" y="-145.31" font-family="Helvetica,sans-Serif" font-size="9.00">piano&#45;roll&#45;begin.ts</text>
</a>
</g>
</g>
<!-- packages/UI/view&#45;parameters/src/piano&#45;roll/octave&#45;count.ts&#45;&gt;packages/UI/view&#45;parameters/src/piano&#45;roll/piano&#45;roll&#45;begin.ts -->
<g id="edge8" class="edge">
<title>packages/UI/view&#45;parameters/src/piano&#45;roll/octave&#45;count.ts&#45;&gt;packages/UI/view&#45;parameters/src/piano&#45;roll/piano&#45;roll&#45;begin.ts</title>
<path fill="none" stroke="#000000" stroke-width="2" stroke-opacity="0.200000" d="M373.1,-226.4C373.18,-211.38 373.35,-181.23 373.46,-162.86"/>
<polygon fill="#000000" fill-opacity="0.200000" stroke="#000000" stroke-width="2" stroke-opacity="0.200000" points="375.56,-162.69 373.5,-156.67 371.36,-162.66 375.56,-162.69"/>
</g>
<!-- packages/UI/view&#45;parameters/src/piano&#45;roll/piano&#45;roll&#45;end.ts -->
<g id="node11" class="node">
<title>packages/UI/view&#45;parameters/src/piano&#45;roll/piano&#45;roll&#45;end.ts</title>
<g id="a_node11"><a xlink:href="packages/UI/view-parameters/src/piano-roll/piano-roll-end.ts" xlink:title="piano&#45;roll&#45;end.ts">
<path fill="#ddfeff" stroke="black" d="M508.61,-265.6C508.61,-265.6 430.61,-265.6 430.61,-265.6 427.61,-265.6 424.61,-262.6 424.61,-259.6 424.61,-259.6 424.61,-253.6 424.61,-253.6 424.61,-250.6 427.61,-247.6 430.61,-247.6 430.61,-247.6 508.61,-247.6 508.61,-247.6 511.61,-247.6 514.61,-250.6 514.61,-253.6 514.61,-253.6 514.61,-259.6 514.61,-259.6 514.61,-262.6 511.61,-265.6 508.61,-265.6"/>
<text text-anchor="start" x="432.61" y="-254.4" font-family="Helvetica,sans-Serif" font-size="9.00">piano&#45;roll&#45;end.ts</text>
</a>
</g>
</g>
<!-- packages/UI/view&#45;parameters/src/piano&#45;roll/octave&#45;count.ts&#45;&gt;packages/UI/view&#45;parameters/src/piano&#45;roll/piano&#45;roll&#45;end.ts -->
<g id="edge9" class="edge">
<title>packages/UI/view&#45;parameters/src/piano&#45;roll/octave&#45;count.ts&#45;&gt;packages/UI/view&#45;parameters/src/piano&#45;roll/piano&#45;roll&#45;end.ts</title>
<path fill="none" stroke="#000000" stroke-width="2" stroke-opacity="0.200000" d="M414.28,-244.5C416.87,-245.07 419.49,-245.64 422.11,-246.21"/>
<polygon fill="#000000" fill-opacity="0.200000" stroke="#000000" stroke-width="2" stroke-opacity="0.200000" points="421.9,-248.31 428.21,-247.54 422.79,-244.21 421.9,-248.31"/>
</g>
<!-- packages/UI/view&#45;parameters/src/piano&#45;roll/piano&#45;roll&#45;constants.ts -->
<g id="node12" class="node">
<title>packages/UI/view&#45;parameters/src/piano&#45;roll/piano&#45;roll&#45;constants.ts</title>
<g id="a_node12"><a xlink:href="packages/UI/view-parameters/src/piano-roll/piano-roll-constants.ts" xlink:title="piano&#45;roll&#45;constants.ts">
<path fill="#ddfeff" stroke="black" d="M310.13,-374.88C310.13,-374.88 205.13,-374.88 205.13,-374.88 202.13,-374.88 199.13,-371.88 199.13,-368.88 199.13,-368.88 199.13,-362.88 199.13,-362.88 199.13,-359.88 202.13,-356.88 205.13,-356.88 205.13,-356.88 310.13,-356.88 310.13,-356.88 313.13,-356.88 316.13,-359.88 316.13,-362.88 316.13,-362.88 316.13,-368.88 316.13,-368.88 316.13,-371.88 313.13,-374.88 310.13,-374.88"/>
<text text-anchor="start" x="207.13" y="-363.68" font-family="Helvetica,sans-Serif" font-size="9.00">piano&#45;roll&#45;constants.ts</text>
</a>
</g>
</g>
<!-- packages/UI/view&#45;parameters/src/piano&#45;roll/piano&#45;roll&#45;constants.ts&#45;&gt;packages/UI/view&#45;parameters/src/piano&#45;roll/piano&#45;roll&#45;width.ts -->
<g id="edge11" class="edge">
<title>packages/UI/view&#45;parameters/src/piano&#45;roll/piano&#45;roll&#45;constants.ts&#45;&gt;packages/UI/view&#45;parameters/src/piano&#45;roll/piano&#45;roll&#45;width.ts</title>
<path fill="none" stroke="#000000" stroke-width="2" stroke-opacity="0.200000" d="M254.86,-375.07C250.23,-390.47 240.87,-421.63 235.3,-440.13"/>
<polygon fill="#000000" fill-opacity="0.200000" stroke="#000000" stroke-width="2" stroke-opacity="0.200000" points="233.29,-439.53 233.58,-445.88 237.31,-440.74 233.29,-439.53"/>
</g>
<!-- packages/UI/view&#45;parameters/src/rect&#45;parameter.ts -->
<g id="node13" class="node">
<title>packages/UI/view&#45;parameters/src/rect&#45;parameter.ts</title>
<g id="a_node13"><a xlink:href="packages/UI/view-parameters/src/rect-parameter.ts" xlink:title="rect&#45;parameter.ts">
<path fill="#ddfeff" stroke="black" d="M225.92,-321.08C225.92,-321.08 142.92,-321.08 142.92,-321.08 139.92,-321.08 136.92,-318.08 136.92,-315.08 136.92,-315.08 136.92,-309.08 136.92,-309.08 136.92,-306.08 139.92,-303.08 142.92,-303.08 142.92,-303.08 225.92,-303.08 225.92,-303.08 228.92,-303.08 231.92,-306.08 231.92,-309.08 231.92,-309.08 231.92,-315.08 231.92,-315.08 231.92,-318.08 228.92,-321.08 225.92,-321.08"/>
<text text-anchor="start" x="144.92" y="-309.88" font-family="Helvetica,sans-Serif" font-size="9.00">rect&#45;parameter.ts</text>
</a>
</g>
</g>
<!-- packages/UI/view&#45;parameters/src/piano&#45;roll/piano&#45;roll&#45;constants.ts&#45;&gt;packages/UI/view&#45;parameters/src/rect&#45;parameter.ts -->
<g id="edge10" class="edge">
<title>packages/UI/view&#45;parameters/src/piano&#45;roll/piano&#45;roll&#45;constants.ts&#45;&gt;packages/UI/view&#45;parameters/src/rect&#45;parameter.ts</title>
<path fill="none" stroke="#000000" stroke-width="2" stroke-opacity="0.200000" d="M245.21,-356.75C233.4,-348.07 215.5,-334.92 202.18,-325.14"/>
<polygon fill="#000000" fill-opacity="0.200000" stroke="#000000" stroke-width="2" stroke-opacity="0.200000" points="203.22,-323.3 197.15,-321.43 200.74,-326.68 203.22,-323.3"/>
</g>
<!-- packages/UI/view&#45;parameters/src/piano&#45;roll/piano&#45;roll&#45;height.ts -->
<g id="node14" class="node">
<title>packages/UI/view&#45;parameters/src/piano&#45;roll/piano&#45;roll&#45;height.ts</title>
<g id="a_node14"><a xlink:href="packages/UI/view-parameters/src/piano-roll/piano-roll-height.ts" xlink:title="piano&#45;roll&#45;height.ts">
<path fill="#ddfeff" stroke="black" d="M365.74,-312.56C365.74,-312.56 275.74,-312.56 275.74,-312.56 272.74,-312.56 269.74,-309.56 269.74,-306.56 269.74,-306.56 269.74,-300.56 269.74,-300.56 269.74,-297.56 272.74,-294.56 275.74,-294.56 275.74,-294.56 365.74,-294.56 365.74,-294.56 368.74,-294.56 371.74,-297.56 371.74,-300.56 371.74,-300.56 371.74,-306.56 371.74,-306.56 371.74,-309.56 368.74,-312.56 365.74,-312.56"/>
<text text-anchor="start" x="277.74" y="-301.36" font-family="Helvetica,sans-Serif" font-size="9.00">piano&#45;roll&#45;height.ts</text>
</a>
</g>
</g>
<!-- packages/UI/view&#45;parameters/src/piano&#45;roll/piano&#45;roll&#45;height.ts&#45;&gt;packages/UI/view&#45;parameters/src/piano&#45;roll/octave&#45;count.ts -->
<g id="edge12" class="edge">
<title>packages/UI/view&#45;parameters/src/piano&#45;roll/piano&#45;roll&#45;height.ts&#45;&gt;packages/UI/view&#45;parameters/src/piano&#45;roll/octave&#45;count.ts</title>
<path fill="none" stroke="#000000" stroke-width="2" stroke-opacity="0.200000" d="M327.79,-294.38C336.65,-282.85 351.95,-262.94 362.28,-249.49"/>
<polygon fill="#000000" fill-opacity="0.200000" stroke="#000000" stroke-width="2" stroke-opacity="0.200000" points="364.11,-250.56 366.1,-244.52 360.78,-248 364.11,-250.56"/>
</g>
<!-- packages/UI/view&#45;parameters/src/piano&#45;roll/piano&#45;roll&#45;height.ts&#45;&gt;packages/UI/view&#45;parameters/src/piano&#45;roll/piano&#45;roll&#45;constants.ts -->
<g id="edge13" class="edge">
<title>packages/UI/view&#45;parameters/src/piano&#45;roll/piano&#45;roll&#45;height.ts&#45;&gt;packages/UI/view&#45;parameters/src/piano&#45;roll/piano&#45;roll&#45;constants.ts</title>
<path fill="none" stroke="#000000" stroke-width="2" stroke-opacity="0.200000" d="M311.43,-312.76C300.89,-323.16 283.63,-340.21 271.51,-352.18"/>
<polygon fill="#000000" fill-opacity="0.200000" stroke="#000000" stroke-width="2" stroke-opacity="0.200000" points="269.77,-350.94 266.98,-356.65 272.72,-353.93 269.77,-350.94"/>
</g>
<!-- packages/UI/view&#45;parameters/src/position/black&#45;position.ts -->
<g id="node18" class="node">
<title>packages/UI/view&#45;parameters/src/position/black&#45;position.ts</title>
<g id="a_node18"><a xlink:href="packages/UI/view-parameters/src/position/black-position.ts" xlink:title="black&#45;position.ts">
<path fill="#ddfeff" stroke="black" d="M473.92,-93.96C473.92,-93.96 395.92,-93.96 395.92,-93.96 392.92,-93.96 389.92,-90.96 389.92,-87.96 389.92,-87.96 389.92,-81.96 389.92,-81.96 389.92,-78.96 392.92,-75.96 395.92,-75.96 395.92,-75.96 473.92,-75.96 473.92,-75.96 476.92,-75.96 479.92,-78.96 479.92,-81.96 479.92,-81.96 479.92,-87.96 479.92,-87.96 479.92,-90.96 476.92,-93.96 473.92,-93.96"/>
<text text-anchor="start" x="397.92" y="-82.76" font-family="Helvetica,sans-Serif" font-size="9.00">black&#45;position.ts</text>
</a>
</g>
</g>
<!-- packages/UI/view&#45;parameters/src/position/black&#45;position.ts&#45;&gt;packages/UI/view&#45;parameters/src/piano&#45;roll/piano&#45;roll&#45;begin.ts -->
<g id="edge17" class="edge">
<title>packages/UI/view&#45;parameters/src/position/black&#45;position.ts&#45;&gt;packages/UI/view&#45;parameters/src/piano&#45;roll/piano&#45;roll&#45;begin.ts</title>
<path fill="none" stroke="#000000" stroke-width="2" stroke-opacity="0.200000" d="M425.87,-94.19C415.62,-104.63 398.83,-121.74 387.05,-133.75"/>
<polygon fill="#000000" fill-opacity="0.200000" stroke="#000000" stroke-width="2" stroke-opacity="0.200000" points="385.34,-132.49 382.64,-138.24 388.34,-135.43 385.34,-132.49"/>
</g>
<!-- packages/util/math/dist/index.js -->
<g id="node19" class="node">
<title>packages/util/math/dist/index.js</title>
<g id="a_node19"><a xlink:href="packages/util/math/dist/index.js" xlink:title="index.js">
<polygon fill="#ffffcc" stroke="black" points="422.43,-18 420.93,-20 410.43,-20 408.93,-18 368.43,-18 368.43,0 422.43,0 422.43,-18"/>
<text text-anchor="start" x="377.93" y="-6.8" font-family="Helvetica,sans-Serif" font-size="9.00">index.js</text>
</a>
</g>
</g>
<!-- packages/UI/view&#45;parameters/src/position/black&#45;position.ts&#45;&gt;packages/util/math/dist/index.js -->
<g id="edge18" class="edge">
<title>packages/UI/view&#45;parameters/src/position/black&#45;position.ts&#45;&gt;packages/util/math/dist/index.js</title>
<path fill="none" stroke="#000000" stroke-width="2" stroke-opacity="0.200000" d="M430.24,-75.94C423.6,-63.18 411.37,-39.66 403.32,-24.17"/>
<polygon fill="#000000" fill-opacity="0.200000" stroke="#000000" stroke-width="2" stroke-opacity="0.200000" points="404.99,-22.83 400.36,-18.48 401.27,-24.77 404.99,-22.83"/>
</g>
<!-- packages/UI/view&#45;parameters/src/position/white&#45;position.ts -->
<g id="node20" class="node">
<title>packages/UI/view&#45;parameters/src/position/white&#45;position.ts</title>
<g id="a_node20"><a xlink:href="packages/UI/view-parameters/src/position/white-position.ts" xlink:title="white&#45;position.ts">
<path fill="#ddfeff" stroke="black" d="M374.9,-78.23C374.9,-78.23 295.9,-78.23 295.9,-78.23 292.9,-78.23 289.9,-75.23 289.9,-72.23 289.9,-72.23 289.9,-66.23 289.9,-66.23 289.9,-63.23 292.9,-60.23 295.9,-60.23 295.9,-60.23 374.9,-60.23 374.9,-60.23 377.9,-60.23 380.9,-63.23 380.9,-66.23 380.9,-66.23 380.9,-72.23 380.9,-72.23 380.9,-75.23 377.9,-78.23 374.9,-78.23"/>
<text text-anchor="start" x="297.9" y="-67.03" font-family="Helvetica,sans-Serif" font-size="9.00">white&#45;position.ts</text>
</a>
</g>
</g>
<!-- packages/UI/view&#45;parameters/src/position/white&#45;position.ts&#45;&gt;packages/UI/view&#45;parameters/src/piano&#45;roll/piano&#45;roll&#45;begin.ts -->
<g id="edge19" class="edge">
<title>packages/UI/view&#45;parameters/src/position/white&#45;position.ts&#45;&gt;packages/UI/view&#45;parameters/src/piano&#45;roll/piano&#45;roll&#45;begin.ts</title>
<path fill="none" stroke="#000000" stroke-width="2" stroke-opacity="0.200000" d="M339.92,-78.52C346.46,-91.94 358.62,-116.88 366.38,-132.81"/>
<polygon fill="#000000" fill-opacity="0.200000" stroke="#000000" stroke-width="2" stroke-opacity="0.200000" points="364.51,-133.76 369.03,-138.23 368.29,-131.92 364.51,-133.76"/>
</g>
<!-- packages/UI/view&#45;parameters/src/position/white&#45;position.ts&#45;&gt;packages/util/math/dist/index.js -->
<g id="edge20" class="edge">
<title>packages/UI/view&#45;parameters/src/position/white&#45;position.ts&#45;&gt;packages/util/math/dist/index.js</title>
<path fill="none" stroke="#000000" stroke-width="2" stroke-opacity="0.200000" d="M344.52,-60.08C354.48,-50.09 370.54,-33.98 381.95,-22.52"/>
<polygon fill="#000000" fill-opacity="0.200000" stroke="#000000" stroke-width="2" stroke-opacity="0.200000" points="383.48,-23.97 386.23,-18.23 380.51,-21 383.48,-23.97"/>
</g>
<!-- packages/UI/view&#45;parameters/src/reservation&#45;range.ts -->
<g id="node21" class="node">
<title>packages/UI/view&#45;parameters/src/reservation&#45;range.ts</title>
<g id="a_node21"><a xlink:href="packages/UI/view-parameters/src/reservation-range.ts" xlink:title="no&#45;orphans">
<path fill="#ccffcc" stroke="orange" d="M491,-408C491,-408 396,-408 396,-408 393,-408 390,-405 390,-402 390,-402 390,-396 390,-396 390,-393 393,-390 396,-390 396,-390 491,-390 491,-390 494,-390 497,-393 497,-396 497,-396 497,-402 497,-402 497,-405 494,-408 491,-408"/>
<text text-anchor="start" x="398" y="-396.8" font-family="Helvetica,sans-Serif" font-size="9.00" fill="orange">reservation&#45;range.ts</text>
</a>
</g>
</g>
</g>
</svg>
