<?xml version="1.0" encoding="UTF-8" standalone="no"?>
<!DOCTYPE svg PUBLIC "-//W3C//DTD SVG 1.1//EN"
 "http://www.w3.org/Graphics/SVG/1.1/DTD/svg11.dtd">
<!-- Generated by graphviz version 2.43.0 (0)
 -->
<!-- Title: dependency&#45;cruiser output Pages: 1 -->
<svg width="402pt" height="234pt"
 viewBox="0.00 0.00 402.00 234.00" xmlns="http://www.w3.org/2000/svg" xmlns:xlink="http://www.w3.org/1999/xlink">
<g id="graph0" class="graph" transform="scale(1 1) rotate(0) translate(4 230)">
<title>dependency&#45;cruiser output</title>
<polygon fill="white" stroke="transparent" points="-4,4 -4,-230 398,-230 398,4 -4,4"/>
<g id="clust1" class="cluster">
<title>cluster_packages</title>
<path fill="#ffffff" stroke="black" stroke-width="2" d="M20,-8C20,-8 374,-8 374,-8 380,-8 386,-14 386,-20 386,-20 386,-206 386,-206 386,-212 380,-218 374,-218 374,-218 20,-218 20,-218 14,-218 8,-212 8,-206 8,-206 8,-20 8,-20 8,-14 14,-8 20,-8"/>
<text text-anchor="middle" x="197" y="-206.8" font-family="Helvetica,sans-Serif" font-weight="bold" font-size="9.00">packages</text>
</g>
<g id="clust2" class="cluster">
<title>cluster_packages/UI</title>
<path fill="#ffffff" stroke="black" stroke-width="2" d="M28,-16C28,-16 366,-16 366,-16 372,-16 378,-22 378,-28 378,-28 378,-180 378,-180 378,-186 372,-192 366,-192 366,-192 28,-192 28,-192 22,-192 16,-186 16,-180 16,-180 16,-28 16,-28 16,-22 22,-16 28,-16"/>
<text text-anchor="middle" x="197" y="-180.8" font-family="Helvetica,sans-Serif" font-weight="bold" font-size="9.00">UI</text>
</g>
<g id="clust3" class="cluster">
<title>cluster_packages/UI/view&#45;parameters</title>
<path fill="#ffffff" stroke="black" stroke-width="2" d="M36,-24C36,-24 358,-24 358,-24 364,-24 370,-30 370,-36 370,-36 370,-154 370,-154 370,-160 364,-166 358,-166 358,-166 36,-166 36,-166 30,-166 24,-160 24,-154 24,-154 24,-36 24,-36 24,-30 30,-24 36,-24"/>
<text text-anchor="middle" x="197" y="-154.8" font-family="Helvetica,sans-Serif" font-weight="bold" font-size="9.00">view&#45;parameters</text>
</g>
<g id="clust4" class="cluster">
<title>cluster_packages/UI/view&#45;parameters/src</title>
<path fill="#ffffff" stroke="black" stroke-width="2" d="M44,-58C44,-58 350,-58 350,-58 356,-58 362,-64 362,-70 362,-70 362,-128 362,-128 362,-134 356,-140 350,-140 350,-140 44,-140 44,-140 38,-140 32,-134 32,-128 32,-128 32,-70 32,-70 32,-64 38,-58 44,-58"/>
<text text-anchor="middle" x="197" y="-128.8" font-family="Helvetica,sans-Serif" font-weight="bold" font-size="9.00">src</text>
</g>
<!-- packages/UI/view&#45;parameters/index.ts -->
<g id="node1" class="node">
<title>packages/UI/view&#45;parameters/index.ts</title>
<g id="a_node1"><a xlink:href="packages/UI/view-parameters/index.ts" xlink:title="no&#45;orphans">
<path fill="#ccffcc" stroke="orange" d="M119,-50C119,-50 77,-50 77,-50 74,-50 71,-47 71,-44 71,-44 71,-38 71,-38 71,-35 74,-32 77,-32 77,-32 119,-32 119,-32 122,-32 125,-35 125,-38 125,-38 125,-44 125,-44 125,-47 122,-50 119,-50"/>
<text text-anchor="start" x="79.5" y="-38.8" font-family="Helvetica,sans-Serif" font-size="9.00" fill="orange">index.ts</text>
</a>
</g>
</g>
<!-- packages/UI/view&#45;parameters/src/note&#45;size.ts -->
<g id="node2" class="node">
<title>packages/UI/view&#45;parameters/src/note&#45;size.ts</title>
<g id="a_node2"><a xlink:href="packages/UI/view-parameters/src/note-size.ts" xlink:title="note&#45;size.ts">
<path fill="#ddfeff" stroke="black" d="M231,-84C231,-84 175,-84 175,-84 172,-84 169,-81 169,-78 169,-78 169,-72 169,-72 169,-69 172,-66 175,-66 175,-66 231,-66 231,-66 234,-66 237,-69 237,-72 237,-72 237,-78 237,-78 237,-81 234,-84 231,-84"/>
<text text-anchor="start" x="177" y="-72.8" font-family="Helvetica,sans-Serif" font-size="9.00">note&#45;size.ts</text>
</a>
</g>
</g>
<!-- packages/UI/view&#45;parameters/src/piano&#45;roll&#45;ratio.ts -->
<g id="node3" class="node">
<title>packages/UI/view&#45;parameters/src/piano&#45;roll&#45;ratio.ts</title>
<g id="a_node3"><a xlink:href="packages/UI/view-parameters/src/piano-roll-ratio.ts" xlink:title="piano&#45;roll&#45;ratio.ts">
<path fill="#ddfeff" stroke="black" d="M342.5,-84C342.5,-84 261.5,-84 261.5,-84 258.5,-84 255.5,-81 255.5,-78 255.5,-78 255.5,-72 255.5,-72 255.5,-69 258.5,-66 261.5,-66 261.5,-66 342.5,-66 342.5,-66 345.5,-66 348.5,-69 348.5,-72 348.5,-72 348.5,-78 348.5,-78 348.5,-81 345.5,-84 342.5,-84"/>
<text text-anchor="start" x="263.5" y="-72.8" font-family="Helvetica,sans-Serif" font-size="9.00">piano&#45;roll&#45;ratio.ts</text>
</a>
</g>
</g>
<!-- packages/UI/view&#45;parameters/src/note&#45;size.ts&#45;&gt;packages/UI/view&#45;parameters/src/piano&#45;roll&#45;ratio.ts -->
<g id="edge1" class="edge">
<title>packages/UI/view&#45;parameters/src/note&#45;size.ts&#45;&gt;packages/UI/view&#45;parameters/src/piano&#45;roll&#45;ratio.ts</title>
<path fill="none" stroke="#000000" stroke-width="2" stroke-opacity="0.200000" d="M237.11,-75C241.02,-75 245.08,-75 249.17,-75"/>
<polygon fill="#000000" fill-opacity="0.200000" stroke="#000000" stroke-width="2" stroke-opacity="0.200000" points="249.17,-77.1 255.17,-75 249.17,-72.9 249.17,-77.1"/>
</g>
<!-- packages/UI/view&#45;parameters/src/song&#45;parameters.ts -->
<g id="node4" class="node">
<title>packages/UI/view&#45;parameters/src/song&#45;parameters.ts</title>
<g id="a_node4"><a xlink:href="packages/UI/view-parameters/src/song-parameters.ts" xlink:title="song&#45;parameters.ts">
<path fill="#ddfeff" stroke="black" d="M348,-114C348,-114 256,-114 256,-114 253,-114 250,-111 250,-108 250,-108 250,-102 250,-102 250,-99 253,-96 256,-96 256,-96 348,-96 348,-96 351,-96 354,-99 354,-102 354,-102 354,-108 354,-108 354,-111 351,-114 348,-114"/>
<text text-anchor="start" x="258" y="-102.8" font-family="Helvetica,sans-Serif" font-size="9.00">song&#45;parameters.ts</text>
</a>
</g>
</g>
<!-- packages/UI/view&#45;parameters/src/note&#45;size.ts&#45;&gt;packages/UI/view&#45;parameters/src/song&#45;parameters.ts -->
<g id="edge2" class="edge">
<title>packages/UI/view&#45;parameters/src/note&#45;size.ts&#45;&gt;packages/UI/view&#45;parameters/src/song&#45;parameters.ts</title>
<path fill="none" stroke="#000000" stroke-width="2" stroke-opacity="0.200000" d="M231.82,-84.07C241.51,-87.23 250,-90 250,-90 250,-90 256.22,-91.83 264.31,-94.21"/>
<polygon fill="#000000" fill-opacity="0.200000" stroke="#000000" stroke-width="2" stroke-opacity="0.200000" points="263.81,-96.25 270.16,-95.93 264.99,-92.22 263.81,-96.25"/>
</g>
<!-- packages/UI/view&#45;parameters/src/now&#45;at.ts -->
<g id="node5" class="node">
<title>packages/UI/view&#45;parameters/src/now&#45;at.ts</title>
<g id="a_node5"><a xlink:href="packages/UI/view-parameters/src/now-at.ts" xlink:title="no&#45;orphans">
<path fill="#ccffcc" stroke="orange" d="M121.5,-114C121.5,-114 74.5,-114 74.5,-114 71.5,-114 68.5,-111 68.5,-108 68.5,-108 68.5,-102 68.5,-102 68.5,-99 71.5,-96 74.5,-96 74.5,-96 121.5,-96 121.5,-96 124.5,-96 127.5,-99 127.5,-102 127.5,-102 127.5,-108 127.5,-108 127.5,-111 124.5,-114 121.5,-114"/>
<text text-anchor="start" x="76.5" y="-102.8" font-family="Helvetica,sans-Serif" font-size="9.00" fill="orange">now&#45;at.ts</text>
</a>
</g>
</g>
<!-- packages/UI/view&#45;parameters/src/piano&#45;roll&#45;converter.ts -->
<g id="node6" class="node">
<title>packages/UI/view&#45;parameters/src/piano&#45;roll&#45;converter.ts</title>
<g id="a_node6"><a xlink:href="packages/UI/view-parameters/src/piano-roll-converter.ts" xlink:title="piano&#45;roll&#45;converter.ts">
<path fill="#ddfeff" stroke="black" d="M150,-84C150,-84 46,-84 46,-84 43,-84 40,-81 40,-78 40,-78 40,-72 40,-72 40,-69 43,-66 46,-66 46,-66 150,-66 150,-66 153,-66 156,-69 156,-72 156,-72 156,-78 156,-78 156,-81 153,-84 150,-84"/>
<text text-anchor="start" x="48" y="-72.8" font-family="Helvetica,sans-Serif" font-size="9.00">piano&#45;roll&#45;converter.ts</text>
</a>
</g>
</g>
<!-- packages/UI/view&#45;parameters/src/piano&#45;roll&#45;converter.ts&#45;&gt;packages/UI/view&#45;parameters/src/note&#45;size.ts -->
<g id="edge3" class="edge">
<title>packages/UI/view&#45;parameters/src/piano&#45;roll&#45;converter.ts&#45;&gt;packages/UI/view&#45;parameters/src/note&#45;size.ts</title>
<path fill="none" stroke="#000000" stroke-width="2" stroke-opacity="0.200000" d="M156.22,-75C158.4,-75 160.56,-75 162.69,-75"/>
<polygon fill="#000000" fill-opacity="0.200000" stroke="#000000" stroke-width="2" stroke-opacity="0.200000" points="162.99,-77.1 168.99,-75 162.99,-72.9 162.99,-77.1"/>
</g>
<!-- packages/UI/view&#45;parameters/src/piano&#45;roll&#45;converter.ts&#45;&gt;packages/UI/view&#45;parameters/src/song&#45;parameters.ts -->
<g id="edge4" class="edge">
<title>packages/UI/view&#45;parameters/src/piano&#45;roll&#45;converter.ts&#45;&gt;packages/UI/view&#45;parameters/src/song&#45;parameters.ts</title>
<path fill="none" stroke="#000000" stroke-width="2" stroke-opacity="0.200000" d="M141.33,-84.07C156.08,-87.23 169,-90 169,-90 169,-90 208.16,-94.45 243.82,-98.5"/>
<polygon fill="#000000" fill-opacity="0.200000" stroke="#000000" stroke-width="2" stroke-opacity="0.200000" points="243.77,-100.61 249.97,-99.2 244.24,-96.44 243.77,-100.61"/>
</g>
</g>
</svg>
