<?xml version="1.0" encoding="UTF-8" standalone="no"?>
<!DOCTYPE svg PUBLIC "-//W3C//DTD SVG 1.1//EN"
 "http://www.w3.org/Graphics/SVG/1.1/DTD/svg11.dtd">
<!-- Generated by graphviz version 2.43.0 (0)
 -->
<!-- Title: dependency&#45;cruiser output Pages: 1 -->
<svg width="796pt" height="676pt"
 viewBox="0.00 0.00 796.00 676.00" xmlns="http://www.w3.org/2000/svg" xmlns:xlink="http://www.w3.org/1999/xlink">
<g id="graph0" class="graph" transform="scale(1 1) rotate(0) translate(4 672)">
<title>dependency&#45;cruiser output</title>
<polygon fill="white" stroke="transparent" points="-4,4 -4,-672 792,-672 792,4 -4,4"/>
<g id="clust1" class="cluster">
<title>cluster_packages</title>
<path fill="#ffffff" stroke="black" stroke-width="2" d="M20,-8C20,-8 768,-8 768,-8 774,-8 780,-14 780,-20 780,-20 780,-648 780,-648 780,-654 774,-660 768,-660 768,-660 20,-660 20,-660 14,-660 8,-654 8,-648 8,-648 8,-20 8,-20 8,-14 14,-8 20,-8"/>
<text text-anchor="middle" x="394" y="-648.8" font-family="Helvetica,sans-Serif" font-weight="bold" font-size="9.00">packages</text>
</g>
<g id="clust2" class="cluster">
<title>cluster_packages/UI</title>
<path fill="#ffffff" stroke="black" stroke-width="2" d="M28,-16C28,-16 760,-16 760,-16 766,-16 772,-22 772,-28 772,-28 772,-460 772,-460 772,-466 766,-472 760,-472 760,-472 28,-472 28,-472 22,-472 16,-466 16,-460 16,-460 16,-28 16,-28 16,-22 22,-16 28,-16"/>
<text text-anchor="middle" x="394" y="-460.8" font-family="Helvetica,sans-Serif" font-weight="bold" font-size="9.00">UI</text>
</g>
<g id="clust3" class="cluster">
<title>cluster_packages/UI/view&#45;parameters</title>
<path fill="#ffffff" stroke="black" stroke-width="2" d="M36,-24C36,-24 752,-24 752,-24 758,-24 764,-30 764,-36 764,-36 764,-434 764,-434 764,-440 758,-446 752,-446 752,-446 36,-446 36,-446 30,-446 24,-440 24,-434 24,-434 24,-36 24,-36 24,-30 30,-24 36,-24"/>
<text text-anchor="middle" x="394" y="-434.8" font-family="Helvetica,sans-Serif" font-weight="bold" font-size="9.00">view&#45;parameters</text>
</g>
<g id="clust4" class="cluster">
<title>cluster_packages/UI/view&#45;parameters/src</title>
<path fill="#ffffff" stroke="black" stroke-width="2" d="M106,-32C106,-32 744,-32 744,-32 750,-32 756,-38 756,-44 756,-44 756,-408 756,-408 756,-414 750,-420 744,-420 744,-420 106,-420 106,-420 100,-420 94,-414 94,-408 94,-408 94,-44 94,-44 94,-38 100,-32 106,-32"/>
<text text-anchor="middle" x="425" y="-408.8" font-family="Helvetica,sans-Serif" font-weight="bold" font-size="9.00">src</text>
</g>
<g id="clust5" class="cluster">
<title>cluster_packages/UI/view&#45;parameters/src/song&#45;parameters</title>
<path fill="#ffffff" stroke="black" stroke-width="2" d="M206.5,-66C206.5,-66 736,-66 736,-66 742,-66 748,-72 748,-78 748,-78 748,-382 748,-382 748,-388 742,-394 736,-394 736,-394 206.5,-394 206.5,-394 200.5,-394 194.5,-388 194.5,-382 194.5,-382 194.5,-78 194.5,-78 194.5,-72 200.5,-66 206.5,-66"/>
<text text-anchor="middle" x="471.25" y="-382.8" font-family="Helvetica,sans-Serif" font-weight="bold" font-size="9.00">song&#45;parameters</text>
</g>
<g id="clust6" class="cluster">
<title>cluster_packages/music&#45;structure</title>
<path fill="#ffffff" stroke="black" stroke-width="2" d="M442,-480C442,-480 547,-480 547,-480 553,-480 559,-486 559,-492 559,-492 559,-622 559,-622 559,-628 553,-634 547,-634 547,-634 442,-634 442,-634 436,-634 430,-628 430,-622 430,-622 430,-492 430,-492 430,-486 436,-480 442,-480"/>
<text text-anchor="middle" x="494.5" y="-622.8" font-family="Helvetica,sans-Serif" font-weight="bold" font-size="9.00">music&#45;structure</text>
</g>
<g id="clust7" class="cluster">
<title>cluster_packages/music&#45;structure/melody</title>
<path fill="#ffffff" stroke="black" stroke-width="2" d="M450,-488C450,-488 539,-488 539,-488 545,-488 551,-494 551,-500 551,-500 551,-596 551,-596 551,-602 545,-608 539,-608 539,-608 450,-608 450,-608 444,-608 438,-602 438,-596 438,-596 438,-500 438,-500 438,-494 444,-488 450,-488"/>
<text text-anchor="middle" x="494.5" y="-596.8" font-family="Helvetica,sans-Serif" font-weight="bold" font-size="9.00">melody</text>
</g>
<g id="clust8" class="cluster">
<title>cluster_packages/music&#45;structure/melody/melody&#45;analyze</title>
<path fill="#ffffff" stroke="black" stroke-width="2" d="M458,-496C458,-496 531,-496 531,-496 537,-496 543,-502 543,-508 543,-508 543,-570 543,-570 543,-576 537,-582 531,-582 531,-582 458,-582 458,-582 452,-582 446,-576 446,-570 446,-570 446,-508 446,-508 446,-502 452,-496 458,-496"/>
<text text-anchor="middle" x="494.5" y="-570.8" font-family="Helvetica,sans-Serif" font-weight="bold" font-size="9.00">melody&#45;analyze</text>
</g>
<g id="clust9" class="cluster">
<title>cluster_packages/music&#45;structure/melody/melody&#45;analyze/dist</title>
<path fill="#ffffff" stroke="black" stroke-width="2" d="M471,-504C471,-504 517,-504 517,-504 523,-504 529,-510 529,-516 529,-516 529,-544 529,-544 529,-550 523,-556 517,-556 517,-556 471,-556 471,-556 465,-556 459,-550 459,-544 459,-544 459,-516 459,-516 459,-510 465,-504 471,-504"/>
<text text-anchor="middle" x="494" y="-544.8" font-family="Helvetica,sans-Serif" font-weight="bold" font-size="9.00">dist</text>
</g>
<!-- packages/UI/view&#45;parameters/index.ts -->
<g id="node1" class="node">
<title>packages/UI/view&#45;parameters/index.ts</title>
<g id="a_node1"><a xlink:href="packages/UI/view-parameters/index.ts" xlink:title="index.ts">
<path fill="#ddfeff" stroke="black" d="M80,-145C80,-145 38,-145 38,-145 35,-145 32,-142 32,-139 32,-139 32,-133 32,-133 32,-130 35,-127 38,-127 38,-127 80,-127 80,-127 83,-127 86,-130 86,-133 86,-133 86,-139 86,-139 86,-142 83,-145 80,-145"/>
<text text-anchor="start" x="40.5" y="-133.8" font-family="Helvetica,sans-Serif" font-size="9.00">index.ts</text>
</a>
</g>
</g>
<!-- packages/UI/view&#45;parameters/src/note&#45;size.ts -->
<g id="node2" class="node">
<title>packages/UI/view&#45;parameters/src/note&#45;size.ts</title>
<g id="a_node2"><a xlink:href="packages/UI/view-parameters/src/note-size.ts" xlink:title="note&#45;size.ts">
<path fill="#ddfeff" stroke="black" d="M164,-134C164,-134 108,-134 108,-134 105,-134 102,-131 102,-128 102,-128 102,-122 102,-122 102,-119 105,-116 108,-116 108,-116 164,-116 164,-116 167,-116 170,-119 170,-122 170,-122 170,-128 170,-128 170,-131 167,-134 164,-134"/>
<text text-anchor="start" x="110" y="-122.8" font-family="Helvetica,sans-Serif" font-size="9.00">note&#45;size.ts</text>
</a>
</g>
</g>
<!-- packages/UI/view&#45;parameters/index.ts&#45;&gt;packages/UI/view&#45;parameters/src/note&#45;size.ts -->
<g id="edge1" class="edge">
<title>packages/UI/view&#45;parameters/index.ts&#45;&gt;packages/UI/view&#45;parameters/src/note&#45;size.ts</title>
<path fill="none" stroke="#000000" stroke-width="2" stroke-opacity="0.200000" d="M86.23,-132.15C89.4,-131.69 92.69,-131.21 95.99,-130.72"/>
<polygon fill="#000000" fill-opacity="0.200000" stroke="#000000" stroke-width="2" stroke-opacity="0.200000" points="102.23,-131.93 95.99,-130.72 101.62,-127.77 102.23,-131.93"/>
</g>
<!-- packages/UI/view&#45;parameters/src/now&#45;at.ts -->
<g id="node3" class="node">
<title>packages/UI/view&#45;parameters/src/now&#45;at.ts</title>
<g id="a_node3"><a xlink:href="packages/UI/view-parameters/src/now-at.ts" xlink:title="now&#45;at.ts">
<path fill="#ddfeff" stroke="black" d="M159.5,-104C159.5,-104 112.5,-104 112.5,-104 109.5,-104 106.5,-101 106.5,-98 106.5,-98 106.5,-92 106.5,-92 106.5,-89 109.5,-86 112.5,-86 112.5,-86 159.5,-86 159.5,-86 162.5,-86 165.5,-89 165.5,-92 165.5,-92 165.5,-98 165.5,-98 165.5,-101 162.5,-104 159.5,-104"/>
<text text-anchor="start" x="114.5" y="-92.8" font-family="Helvetica,sans-Serif" font-size="9.00">now&#45;at.ts</text>
</a>
</g>
</g>
<!-- packages/UI/view&#45;parameters/index.ts&#45;&gt;packages/UI/view&#45;parameters/src/now&#45;at.ts -->
<g id="edge2" class="edge">
<title>packages/UI/view&#45;parameters/index.ts&#45;&gt;packages/UI/view&#45;parameters/src/now&#45;at.ts</title>
<path fill="none" stroke="#000000" stroke-width="2" stroke-opacity="0.200000" d="M71.89,-126.91C81.7,-119.41 94,-110 94,-110 94,-110 98.44,-108.38 104.39,-106.2"/>
<polygon fill="#000000" fill-opacity="0.200000" stroke="#000000" stroke-width="2" stroke-opacity="0.200000" points="110.93,-106.04 104.57,-106.13 109.48,-102.1 110.93,-106.04"/>
</g>
<!-- packages/UI/view&#45;parameters/src/piano&#45;roll&#45;ratio.ts -->
<g id="node4" class="node">
<title>packages/UI/view&#45;parameters/src/piano&#45;roll&#45;ratio.ts</title>
<g id="a_node4"><a xlink:href="packages/UI/view-parameters/src/piano-roll-ratio.ts" xlink:title="piano&#45;roll&#45;ratio.ts">
<path fill="#ddfeff" stroke="black" d="M270,-58C270,-58 189,-58 189,-58 186,-58 183,-55 183,-52 183,-52 183,-46 183,-46 183,-43 186,-40 189,-40 189,-40 270,-40 270,-40 273,-40 276,-43 276,-46 276,-46 276,-52 276,-52 276,-55 273,-58 270,-58"/>
<text text-anchor="start" x="191" y="-46.8" font-family="Helvetica,sans-Serif" font-size="9.00">piano&#45;roll&#45;ratio.ts</text>
</a>
</g>
</g>
<!-- packages/UI/view&#45;parameters/index.ts&#45;&gt;packages/UI/view&#45;parameters/src/piano&#45;roll&#45;ratio.ts -->
<g id="edge3" class="edge">
<title>packages/UI/view&#45;parameters/index.ts&#45;&gt;packages/UI/view&#45;parameters/src/piano&#45;roll&#45;ratio.ts</title>
<path fill="none" stroke="#000000" stroke-width="2" stroke-opacity="0.200000" d="M86.11,-139.07C90.68,-139.61 94,-140 94,-140 94,-140 170,-140 170,-140 170,-140 183,-63 183,-63 183,-63 187.32,-61.67 193.29,-59.83"/>
<polygon fill="#000000" fill-opacity="0.200000" stroke="#000000" stroke-width="2" stroke-opacity="0.200000" points="199.79,-60.03 193.44,-59.79 198.55,-56.02 199.79,-60.03"/>
</g>
<!-- packages/UI/view&#45;parameters/src/song&#45;parameters/index.ts -->
<g id="node5" class="node">
<title>packages/UI/view&#45;parameters/src/song&#45;parameters/index.ts</title>
<g id="a_node5"><a xlink:href="packages/UI/view-parameters/src/song-parameters/index.ts" xlink:title="index.ts">
<path fill="#ddfeff" stroke="black" d="M250.5,-216C250.5,-216 208.5,-216 208.5,-216 205.5,-216 202.5,-213 202.5,-210 202.5,-210 202.5,-204 202.5,-204 202.5,-201 205.5,-198 208.5,-198 208.5,-198 250.5,-198 250.5,-198 253.5,-198 256.5,-201 256.5,-204 256.5,-204 256.5,-210 256.5,-210 256.5,-213 253.5,-216 250.5,-216"/>
<text text-anchor="start" x="211" y="-204.8" font-family="Helvetica,sans-Serif" font-size="9.00">index.ts</text>
</a>
</g>
</g>
<!-- packages/UI/view&#45;parameters/index.ts&#45;&gt;packages/UI/view&#45;parameters/src/song&#45;parameters/index.ts -->
<g id="edge4" class="edge">
<title>packages/UI/view&#45;parameters/index.ts&#45;&gt;packages/UI/view&#45;parameters/src/song&#45;parameters/index.ts</title>
<path fill="none" stroke="#000000" stroke-width="2" stroke-opacity="0.200000" d="M67.21,-145.12C77.19,-157.74 94,-179 94,-179 94,-179 156.27,-191.96 196.07,-200.25"/>
<polygon fill="#000000" fill-opacity="0.200000" stroke="#000000" stroke-width="2" stroke-opacity="0.200000" points="201.82,-203.59 196.37,-200.31 202.68,-199.48 201.82,-203.59"/>
</g>
<!-- packages/UI/view&#45;parameters/src/note&#45;size.ts&#45;&gt;packages/UI/view&#45;parameters/src/piano&#45;roll&#45;ratio.ts -->
<g id="edge5" class="edge">
<title>packages/UI/view&#45;parameters/src/note&#45;size.ts&#45;&gt;packages/UI/view&#45;parameters/src/piano&#45;roll&#45;ratio.ts</title>
<path fill="none" stroke="#000000" stroke-width="2" stroke-opacity="0.200000" d="M156.96,-115.93C163.91,-112.77 170,-110 170,-110 170,-110 183,-63 183,-63 183,-63 187.32,-61.67 193.29,-59.83"/>
<polygon fill="#000000" fill-opacity="0.200000" stroke="#000000" stroke-width="2" stroke-opacity="0.200000" points="194.05,-61.8 199.17,-58.02 192.82,-57.78 194.05,-61.8"/>
</g>
<!-- packages/UI/view&#45;parameters/src/note&#45;size.ts&#45;&gt;packages/UI/view&#45;parameters/src/song&#45;parameters/index.ts -->
<g id="edge6" class="edge">
<title>packages/UI/view&#45;parameters/src/note&#45;size.ts&#45;&gt;packages/UI/view&#45;parameters/src/song&#45;parameters/index.ts</title>
<path fill="none" stroke="#000000" stroke-width="2" stroke-opacity="0.200000" d="M159.92,-134.03C165.55,-136.25 170,-138 170,-138 170,-138 183,-194 183,-194 183,-194 188.83,-195.67 196.32,-197.8"/>
<polygon fill="#000000" fill-opacity="0.200000" stroke="#000000" stroke-width="2" stroke-opacity="0.200000" points="195.95,-199.88 202.3,-199.51 197.1,-195.85 195.95,-199.88"/>
</g>
<!-- packages/UI/view&#45;parameters/src/song&#45;parameters/black&#45;key.ts -->
<g id="node6" class="node">
<title>packages/UI/view&#45;parameters/src/song&#45;parameters/black&#45;key.ts</title>
<g id="a_node6"><a xlink:href="packages/UI/view-parameters/src/song-parameters/black-key.ts" xlink:title="black&#45;key.ts">
<path fill="#ddfeff" stroke="black" d="M380,-194C380,-194 323,-194 323,-194 320,-194 317,-191 317,-188 317,-188 317,-182 317,-182 317,-179 320,-176 323,-176 323,-176 380,-176 380,-176 383,-176 386,-179 386,-182 386,-182 386,-188 386,-188 386,-191 383,-194 380,-194"/>
<text text-anchor="start" x="325" y="-182.8" font-family="Helvetica,sans-Serif" font-size="9.00">black&#45;key.ts</text>
</a>
</g>
</g>
<!-- packages/UI/view&#45;parameters/src/song&#45;parameters/index.ts&#45;&gt;packages/UI/view&#45;parameters/src/song&#45;parameters/black&#45;key.ts -->
<g id="edge11" class="edge">
<title>packages/UI/view&#45;parameters/src/song&#45;parameters/index.ts&#45;&gt;packages/UI/view&#45;parameters/src/song&#45;parameters/black&#45;key.ts</title>
<path fill="none" stroke="#000000" stroke-width="2" stroke-opacity="0.200000" d="M256.54,-202.23C272.39,-199.32 292.96,-195.55 310.82,-192.28"/>
<polygon fill="#000000" fill-opacity="0.200000" stroke="#000000" stroke-width="2" stroke-opacity="0.200000" points="317.13,-193.25 310.85,-192.27 316.38,-189.12 317.13,-193.25"/>
</g>
<!-- packages/UI/view&#45;parameters/src/song&#45;parameters/key.ts -->
<g id="node7" class="node">
<title>packages/UI/view&#45;parameters/src/song&#45;parameters/key.ts</title>
<g id="a_node7"><a xlink:href="packages/UI/view-parameters/src/song-parameters/key.ts" xlink:title="key.ts">
<path fill="#ddfeff" stroke="black" d="M515,-208C515,-208 473,-208 473,-208 470,-208 467,-205 467,-202 467,-202 467,-196 467,-196 467,-193 470,-190 473,-190 473,-190 515,-190 515,-190 518,-190 521,-193 521,-196 521,-196 521,-202 521,-202 521,-205 518,-208 515,-208"/>
<text text-anchor="start" x="481" y="-196.8" font-family="Helvetica,sans-Serif" font-size="9.00">key.ts</text>
</a>
</g>
</g>
<!-- packages/UI/view&#45;parameters/src/song&#45;parameters/index.ts&#45;&gt;packages/UI/view&#45;parameters/src/song&#45;parameters/key.ts -->
<g id="edge14" class="edge">
<title>packages/UI/view&#45;parameters/src/song&#45;parameters/index.ts&#45;&gt;packages/UI/view&#45;parameters/src/song&#45;parameters/key.ts</title>
<path fill="none" stroke="#000000" stroke-width="2" stroke-opacity="0.200000" d="M256.63,-206.2C304.98,-204.73 408.26,-201.58 460.82,-199.98"/>
<polygon fill="#000000" fill-opacity="0.200000" stroke="#000000" stroke-width="2" stroke-opacity="0.200000" points="467.04,-201.89 460.98,-199.98 466.91,-197.69 467.04,-201.89"/>
</g>
<!-- packages/UI/view&#45;parameters/src/song&#45;parameters/rect&#45;parameter.ts -->
<g id="node8" class="node">
<title>packages/UI/view&#45;parameters/src/song&#45;parameters/rect&#45;parameter.ts</title>
<g id="a_node8"><a xlink:href="packages/UI/view-parameters/src/song-parameters/rect-parameter.ts" xlink:title="rect&#45;parameter.ts">
<path fill="#ddfeff" stroke="black" d="M665.5,-186C665.5,-186 582.5,-186 582.5,-186 579.5,-186 576.5,-183 576.5,-180 576.5,-180 576.5,-174 576.5,-174 576.5,-171 579.5,-168 582.5,-168 582.5,-168 665.5,-168 665.5,-168 668.5,-168 671.5,-171 671.5,-174 671.5,-174 671.5,-180 671.5,-180 671.5,-183 668.5,-186 665.5,-186"/>
<text text-anchor="start" x="584.5" y="-174.8" font-family="Helvetica,sans-Serif" font-size="9.00">rect&#45;parameter.ts</text>
</a>
</g>
</g>
<!-- packages/UI/view&#45;parameters/src/song&#45;parameters/index.ts&#45;&gt;packages/UI/view&#45;parameters/src/song&#45;parameters/rect&#45;parameter.ts -->
<g id="edge20" class="edge">
<title>packages/UI/view&#45;parameters/src/song&#45;parameters/index.ts&#45;&gt;packages/UI/view&#45;parameters/src/song&#45;parameters/rect&#45;parameter.ts</title>
<path fill="none" stroke="#000000" stroke-width="2" stroke-opacity="0.200000" d="M256.7,-199.51C266.82,-196.62 276,-194 276,-194 276,-194 289,-170 289,-170 289,-170 414,-170 414,-170 414,-170 508.18,-173.15 570.1,-175.23"/>
<polygon fill="#000000" fill-opacity="0.200000" stroke="#000000" stroke-width="2" stroke-opacity="0.200000" points="576.29,-177.54 570.36,-175.24 576.43,-173.34 576.29,-177.54"/>
</g>
<!-- packages/UI/view&#45;parameters/src/song&#45;parameters/bracket&#45;height.ts -->
<g id="node9" class="node">
<title>packages/UI/view&#45;parameters/src/song&#45;parameters/bracket&#45;height.ts</title>
<g id="a_node9"><a xlink:href="packages/UI/view-parameters/src/song-parameters/bracket-height.ts" xlink:title="bracket&#45;height.ts">
<path fill="#ddfeff" stroke="black" d="M535.5,-310C535.5,-310 452.5,-310 452.5,-310 449.5,-310 446.5,-307 446.5,-304 446.5,-304 446.5,-298 446.5,-298 446.5,-295 449.5,-292 452.5,-292 452.5,-292 535.5,-292 535.5,-292 538.5,-292 541.5,-295 541.5,-298 541.5,-298 541.5,-304 541.5,-304 541.5,-307 538.5,-310 535.5,-310"/>
<text text-anchor="start" x="454.5" y="-298.8" font-family="Helvetica,sans-Serif" font-size="9.00">bracket&#45;height.ts</text>
</a>
</g>
</g>
<!-- packages/UI/view&#45;parameters/src/song&#45;parameters/index.ts&#45;&gt;packages/UI/view&#45;parameters/src/song&#45;parameters/bracket&#45;height.ts -->
<g id="edge12" class="edge">
<title>packages/UI/view&#45;parameters/src/song&#45;parameters/index.ts&#45;&gt;packages/UI/view&#45;parameters/src/song&#45;parameters/bracket&#45;height.ts</title>
<path fill="none" stroke="#000000" stroke-width="2" stroke-opacity="0.200000" d="M235.9,-216.14C250.38,-240.64 289,-306 289,-306 289,-306 414,-306 414,-306 414,-306 425.58,-305.27 439.87,-304.36"/>
<polygon fill="#000000" fill-opacity="0.200000" stroke="#000000" stroke-width="2" stroke-opacity="0.200000" points="446.27,-306.06 440.14,-304.35 446,-301.87 446.27,-306.06"/>
</g>
<!-- packages/UI/view&#45;parameters/src/song&#45;parameters/current&#45;time&#45;x.ts -->
<g id="node11" class="node">
<title>packages/UI/view&#45;parameters/src/song&#45;parameters/current&#45;time&#45;x.ts</title>
<g id="a_node11"><a xlink:href="packages/UI/view-parameters/src/song-parameters/current-time-x.ts" xlink:title="current&#45;time&#45;x.ts">
<path fill="#ddfeff" stroke="black" d="M392,-120C392,-120 311,-120 311,-120 308,-120 305,-117 305,-114 305,-114 305,-108 305,-108 305,-105 308,-102 311,-102 311,-102 392,-102 392,-102 395,-102 398,-105 398,-108 398,-108 398,-114 398,-114 398,-117 395,-120 392,-120"/>
<text text-anchor="start" x="313" y="-108.8" font-family="Helvetica,sans-Serif" font-size="9.00">current&#45;time&#45;x.ts</text>
</a>
</g>
</g>
<!-- packages/UI/view&#45;parameters/src/song&#45;parameters/index.ts&#45;&gt;packages/UI/view&#45;parameters/src/song&#45;parameters/current&#45;time&#45;x.ts -->
<g id="edge13" class="edge">
<title>packages/UI/view&#45;parameters/src/song&#45;parameters/index.ts&#45;&gt;packages/UI/view&#45;parameters/src/song&#45;parameters/current&#45;time&#45;x.ts</title>
<path fill="none" stroke="#000000" stroke-width="2" stroke-opacity="0.200000" d="M256.7,-199.51C266.82,-196.62 276,-194 276,-194 276,-194 289,-126 289,-126 289,-126 297.08,-124.03 307.39,-121.51"/>
<polygon fill="#000000" fill-opacity="0.200000" stroke="#000000" stroke-width="2" stroke-opacity="0.200000" points="313.8,-122.11 307.48,-121.49 312.81,-118.03 313.8,-122.11"/>
</g>
<!-- packages/UI/view&#45;parameters/src/song&#45;parameters/piano&#45;roll&#45;width.ts -->
<g id="node12" class="node">
<title>packages/UI/view&#45;parameters/src/song&#45;parameters/piano&#45;roll&#45;width.ts</title>
<g id="a_node12"><a xlink:href="packages/UI/view-parameters/src/song-parameters/piano-roll-width.ts" xlink:title="piano&#45;roll&#45;width.ts">
<path fill="#ddfeff" stroke="black" d="M537,-110C537,-110 451,-110 451,-110 448,-110 445,-107 445,-104 445,-104 445,-98 445,-98 445,-95 448,-92 451,-92 451,-92 537,-92 537,-92 540,-92 543,-95 543,-98 543,-98 543,-104 543,-104 543,-107 540,-110 537,-110"/>
<text text-anchor="start" x="453" y="-98.8" font-family="Helvetica,sans-Serif" font-size="9.00">piano&#45;roll&#45;width.ts</text>
</a>
</g>
</g>
<!-- packages/UI/view&#45;parameters/src/song&#45;parameters/index.ts&#45;&gt;packages/UI/view&#45;parameters/src/song&#45;parameters/piano&#45;roll&#45;width.ts -->
<g id="edge19" class="edge">
<title>packages/UI/view&#45;parameters/src/song&#45;parameters/index.ts&#45;&gt;packages/UI/view&#45;parameters/src/song&#45;parameters/piano&#45;roll&#45;width.ts</title>
<path fill="none" stroke="#000000" stroke-width="2" stroke-opacity="0.200000" d="M256.7,-199.51C266.82,-196.62 276,-194 276,-194 276,-194 289,-96 289,-96 289,-96 414,-96 414,-96 414,-96 424.97,-96.69 438.73,-97.56"/>
<polygon fill="#000000" fill-opacity="0.200000" stroke="#000000" stroke-width="2" stroke-opacity="0.200000" points="444.64,-100.04 438.78,-97.57 444.9,-95.85 444.64,-100.04"/>
</g>
<!-- packages/UI/view&#45;parameters/src/song&#45;parameters/octave&#45;count.ts -->
<g id="node13" class="node">
<title>packages/UI/view&#45;parameters/src/song&#45;parameters/octave&#45;count.ts</title>
<g id="a_node13"><a xlink:href="packages/UI/view-parameters/src/song-parameters/octave-count.ts" xlink:title="octave&#45;count.ts">
<path fill="#ddfeff" stroke="black" d="M531.5,-280C531.5,-280 456.5,-280 456.5,-280 453.5,-280 450.5,-277 450.5,-274 450.5,-274 450.5,-268 450.5,-268 450.5,-265 453.5,-262 456.5,-262 456.5,-262 531.5,-262 531.5,-262 534.5,-262 537.5,-265 537.5,-268 537.5,-268 537.5,-274 537.5,-274 537.5,-277 534.5,-280 531.5,-280"/>
<text text-anchor="start" x="458.5" y="-268.8" font-family="Helvetica,sans-Serif" font-size="9.00">octave&#45;count.ts</text>
</a>
</g>
</g>
<!-- packages/UI/view&#45;parameters/src/song&#45;parameters/index.ts&#45;&gt;packages/UI/view&#45;parameters/src/song&#45;parameters/octave&#45;count.ts -->
<g id="edge15" class="edge">
<title>packages/UI/view&#45;parameters/src/song&#45;parameters/index.ts&#45;&gt;packages/UI/view&#45;parameters/src/song&#45;parameters/octave&#45;count.ts</title>
<path fill="none" stroke="#000000" stroke-width="2" stroke-opacity="0.200000" d="M236.11,-216.11C250.75,-239.89 289,-302 289,-302 289,-302 414,-302 414,-302 414,-302 430,-286 430,-286 430,-286 438.28,-284.03 448.84,-281.51"/>
<polygon fill="#000000" fill-opacity="0.200000" stroke="#000000" stroke-width="2" stroke-opacity="0.200000" points="455.39,-282.11 449.06,-281.46 454.41,-278.03 455.39,-282.11"/>
</g>
<!-- packages/UI/view&#45;parameters/src/song&#45;parameters/octave&#45;height.ts -->
<g id="node14" class="node">
<title>packages/UI/view&#45;parameters/src/song&#45;parameters/octave&#45;height.ts</title>
<g id="a_node14"><a xlink:href="packages/UI/view-parameters/src/song-parameters/octave-height.ts" xlink:title="octave&#45;height.ts">
<path fill="#ddfeff" stroke="black" d="M663,-223C663,-223 585,-223 585,-223 582,-223 579,-220 579,-217 579,-217 579,-211 579,-211 579,-208 582,-205 585,-205 585,-205 663,-205 663,-205 666,-205 669,-208 669,-211 669,-211 669,-217 669,-217 669,-220 666,-223 663,-223"/>
<text text-anchor="start" x="587" y="-211.8" font-family="Helvetica,sans-Serif" font-size="9.00">octave&#45;height.ts</text>
</a>
</g>
</g>
<!-- packages/UI/view&#45;parameters/src/song&#45;parameters/index.ts&#45;&gt;packages/UI/view&#45;parameters/src/song&#45;parameters/octave&#45;height.ts -->
<g id="edge16" class="edge">
<title>packages/UI/view&#45;parameters/src/song&#45;parameters/index.ts&#45;&gt;packages/UI/view&#45;parameters/src/song&#45;parameters/octave&#45;height.ts</title>
<path fill="none" stroke="#000000" stroke-width="2" stroke-opacity="0.200000" d="M256.58,-207.92C310.66,-209.81 430,-214 430,-214 430,-214 515.4,-214 572.59,-214"/>
<polygon fill="#000000" fill-opacity="0.200000" stroke="#000000" stroke-width="2" stroke-opacity="0.200000" points="578.72,-216.1 572.72,-214 578.72,-211.9 578.72,-216.1"/>
</g>
<!-- packages/UI/view&#45;parameters/src/song&#45;parameters/piano&#45;roll&#45;begin.ts -->
<g id="node15" class="node">
<title>packages/UI/view&#45;parameters/src/song&#45;parameters/piano&#45;roll&#45;begin.ts</title>
<g id="a_node15"><a xlink:href="packages/UI/view-parameters/src/song-parameters/piano-roll-begin.ts" xlink:title="piano&#45;roll&#45;begin.ts">
<path fill="#ddfeff" stroke="black" d="M667,-280C667,-280 581,-280 581,-280 578,-280 575,-277 575,-274 575,-274 575,-268 575,-268 575,-265 578,-262 581,-262 581,-262 667,-262 667,-262 670,-262 673,-265 673,-268 673,-268 673,-274 673,-274 673,-277 670,-280 667,-280"/>
<text text-anchor="start" x="583" y="-268.8" font-family="Helvetica,sans-Serif" font-size="9.00">piano&#45;roll&#45;begin.ts</text>
</a>
</g>
</g>
<!-- packages/UI/view&#45;parameters/src/song&#45;parameters/index.ts&#45;&gt;packages/UI/view&#45;parameters/src/song&#45;parameters/piano&#45;roll&#45;begin.ts -->
<g id="edge17" class="edge">
<title>packages/UI/view&#45;parameters/src/song&#45;parameters/index.ts&#45;&gt;packages/UI/view&#45;parameters/src/song&#45;parameters/piano&#45;roll&#45;begin.ts</title>
<path fill="none" stroke="#000000" stroke-width="2" stroke-opacity="0.200000" d="M240.96,-216.12C257.79,-230.79 289,-258 289,-258 289,-258 414,-258 414,-258 414,-258 430,-256 430,-256 430,-256 559,-256 559,-256 559,-256 567.57,-258.01 578.44,-260.56"/>
<polygon fill="#000000" fill-opacity="0.200000" stroke="#000000" stroke-width="2" stroke-opacity="0.200000" points="583.82,-263.97 578.45,-260.56 584.77,-259.88 583.82,-263.97"/>
</g>
<!-- packages/UI/view&#45;parameters/src/song&#45;parameters/piano&#45;roll&#45;height.ts -->
<g id="node16" class="node">
<title>packages/UI/view&#45;parameters/src/song&#45;parameters/piano&#45;roll&#45;height.ts</title>
<g id="a_node16"><a xlink:href="packages/UI/view-parameters/src/song-parameters/piano-roll-height.ts" xlink:title="piano&#45;roll&#45;height.ts">
<path fill="#ddfeff" stroke="black" d="M396.5,-252C396.5,-252 306.5,-252 306.5,-252 303.5,-252 300.5,-249 300.5,-246 300.5,-246 300.5,-240 300.5,-240 300.5,-237 303.5,-234 306.5,-234 306.5,-234 396.5,-234 396.5,-234 399.5,-234 402.5,-237 402.5,-240 402.5,-240 402.5,-246 402.5,-246 402.5,-249 399.5,-252 396.5,-252"/>
<text text-anchor="start" x="308.5" y="-240.8" font-family="Helvetica,sans-Serif" font-size="9.00">piano&#45;roll&#45;height.ts</text>
</a>
</g>
</g>
<!-- packages/UI/view&#45;parameters/src/song&#45;parameters/index.ts&#45;&gt;packages/UI/view&#45;parameters/src/song&#45;parameters/piano&#45;roll&#45;height.ts -->
<g id="edge18" class="edge">
<title>packages/UI/view&#45;parameters/src/song&#45;parameters/index.ts&#45;&gt;packages/UI/view&#45;parameters/src/song&#45;parameters/piano&#45;roll&#45;height.ts</title>
<path fill="none" stroke="#000000" stroke-width="2" stroke-opacity="0.200000" d="M256.67,-215.05C272.25,-219.84 289,-225 289,-225 289,-225 300.38,-228.33 313.35,-232.13"/>
<polygon fill="#000000" fill-opacity="0.200000" stroke="#000000" stroke-width="2" stroke-opacity="0.200000" points="318.8,-235.91 313.63,-232.21 319.98,-231.88 318.8,-235.91"/>
</g>
<!-- packages/UI/view&#45;parameters/src/song&#45;parameters/reservation&#45;range.ts -->
<g id="node17" class="node">
<title>packages/UI/view&#45;parameters/src/song&#45;parameters/reservation&#45;range.ts</title>
<g id="a_node17"><a xlink:href="packages/UI/view-parameters/src/song-parameters/reservation-range.ts" xlink:title="reservation&#45;range.ts">
<path fill="#ddfeff" stroke="black" d="M399,-296C399,-296 304,-296 304,-296 301,-296 298,-293 298,-290 298,-290 298,-284 298,-284 298,-281 301,-278 304,-278 304,-278 399,-278 399,-278 402,-278 405,-281 405,-284 405,-284 405,-290 405,-290 405,-293 402,-296 399,-296"/>
<text text-anchor="start" x="306" y="-284.8" font-family="Helvetica,sans-Serif" font-size="9.00">reservation&#45;range.ts</text>
</a>
</g>
</g>
<!-- packages/UI/view&#45;parameters/src/song&#45;parameters/index.ts&#45;&gt;packages/UI/view&#45;parameters/src/song&#45;parameters/reservation&#45;range.ts -->
<g id="edge21" class="edge">
<title>packages/UI/view&#45;parameters/src/song&#45;parameters/index.ts&#45;&gt;packages/UI/view&#45;parameters/src/song&#45;parameters/reservation&#45;range.ts</title>
<path fill="none" stroke="#000000" stroke-width="2" stroke-opacity="0.200000" d="M239.13,-216.15C255.4,-233.39 289,-269 289,-269 289,-269 300.38,-272.33 313.35,-276.13"/>
<polygon fill="#000000" fill-opacity="0.200000" stroke="#000000" stroke-width="2" stroke-opacity="0.200000" points="318.8,-279.91 313.63,-276.21 319.98,-275.88 318.8,-279.91"/>
</g>
<!-- packages/UI/view&#45;parameters/src/song&#45;parameters/set&#45;current&#45;time&#45;ratio.ts -->
<g id="node18" class="node">
<title>packages/UI/view&#45;parameters/src/song&#45;parameters/set&#45;current&#45;time&#45;ratio.ts</title>
<g id="a_node18"><a xlink:href="packages/UI/view-parameters/src/song-parameters/set-current-time-ratio.ts" xlink:title="set&#45;current&#45;time&#45;ratio.ts">
<path fill="#ddfeff" stroke="black" d="M408,-150C408,-150 295,-150 295,-150 292,-150 289,-147 289,-144 289,-144 289,-138 289,-138 289,-135 292,-132 295,-132 295,-132 408,-132 408,-132 411,-132 414,-135 414,-138 414,-138 414,-144 414,-144 414,-147 411,-150 408,-150"/>
<text text-anchor="start" x="297" y="-138.8" font-family="Helvetica,sans-Serif" font-size="9.00">set&#45;current&#45;time&#45;ratio.ts</text>
</a>
</g>
</g>
<!-- packages/UI/view&#45;parameters/src/song&#45;parameters/index.ts&#45;&gt;packages/UI/view&#45;parameters/src/song&#45;parameters/set&#45;current&#45;time&#45;ratio.ts -->
<g id="edge22" class="edge">
<title>packages/UI/view&#45;parameters/src/song&#45;parameters/index.ts&#45;&gt;packages/UI/view&#45;parameters/src/song&#45;parameters/set&#45;current&#45;time&#45;ratio.ts</title>
<path fill="none" stroke="#000000" stroke-width="2" stroke-opacity="0.200000" d="M256.7,-199.51C266.82,-196.62 276,-194 276,-194 276,-194 289,-159 289,-159 289,-159 300.38,-155.67 313.35,-151.87"/>
<polygon fill="#000000" fill-opacity="0.200000" stroke="#000000" stroke-width="2" stroke-opacity="0.200000" points="319.98,-152.12 313.63,-151.79 318.8,-148.09 319.98,-152.12"/>
</g>
<!-- packages/UI/view&#45;parameters/src/song&#45;parameters/set&#45;song&#45;parameters.ts -->
<g id="node19" class="node">
<title>packages/UI/view&#45;parameters/src/song&#45;parameters/set&#45;song&#45;parameters.ts</title>
<g id="a_node19"><a xlink:href="packages/UI/view-parameters/src/song-parameters/set-song-parameters.ts" xlink:title="set&#45;song&#45;parameters.ts">
<path fill="#ddfeff" stroke="black" d="M406,-354C406,-354 297,-354 297,-354 294,-354 291,-351 291,-348 291,-348 291,-342 291,-342 291,-339 294,-336 297,-336 297,-336 406,-336 406,-336 409,-336 412,-339 412,-342 412,-342 412,-348 412,-348 412,-351 409,-354 406,-354"/>
<text text-anchor="start" x="299" y="-342.8" font-family="Helvetica,sans-Serif" font-size="9.00">set&#45;song&#45;parameters.ts</text>
</a>
</g>
</g>
<!-- packages/UI/view&#45;parameters/src/song&#45;parameters/index.ts&#45;&gt;packages/UI/view&#45;parameters/src/song&#45;parameters/set&#45;song&#45;parameters.ts -->
<g id="edge23" class="edge">
<title>packages/UI/view&#45;parameters/src/song&#45;parameters/index.ts&#45;&gt;packages/UI/view&#45;parameters/src/song&#45;parameters/set&#45;song&#45;parameters.ts</title>
<path fill="none" stroke="#000000" stroke-width="2" stroke-opacity="0.200000" d="M234.9,-216.02C248.5,-243.93 289,-327 289,-327 289,-327 300.38,-330.33 313.35,-334.13"/>
<polygon fill="#000000" fill-opacity="0.200000" stroke="#000000" stroke-width="2" stroke-opacity="0.200000" points="318.8,-337.91 313.63,-334.21 319.98,-333.88 318.8,-337.91"/>
</g>
<!-- packages/UI/view&#45;parameters/src/song&#45;parameters/size.ts -->
<g id="node20" class="node">
<title>packages/UI/view&#45;parameters/src/song&#45;parameters/size.ts</title>
<g id="a_node20"><a xlink:href="packages/UI/view-parameters/src/song-parameters/size.ts" xlink:title="size.ts">
<path fill="#ddfeff" stroke="black" d="M734,-161C734,-161 692,-161 692,-161 689,-161 686,-158 686,-155 686,-155 686,-149 686,-149 686,-146 689,-143 692,-143 692,-143 734,-143 734,-143 737,-143 740,-146 740,-149 740,-149 740,-155 740,-155 740,-158 737,-161 734,-161"/>
<text text-anchor="start" x="699" y="-149.8" font-family="Helvetica,sans-Serif" font-size="9.00">size.ts</text>
</a>
</g>
</g>
<!-- packages/UI/view&#45;parameters/src/song&#45;parameters/index.ts&#45;&gt;packages/UI/view&#45;parameters/src/song&#45;parameters/size.ts -->
<g id="edge24" class="edge">
<title>packages/UI/view&#45;parameters/src/song&#45;parameters/index.ts&#45;&gt;packages/UI/view&#45;parameters/src/song&#45;parameters/size.ts</title>
<path fill="none" stroke="#000000" stroke-width="2" stroke-opacity="0.200000" d="M256.7,-199.51C266.82,-196.62 276,-194 276,-194 276,-194 289,-93 289,-93 289,-93 430,-86 430,-86 430,-86 559,-86 559,-86 559,-86 641.56,-121.62 685.39,-140.52"/>
<polygon fill="#000000" fill-opacity="0.200000" stroke="#000000" stroke-width="2" stroke-opacity="0.200000" points="690.21,-144.89 685.54,-140.58 691.88,-141.03 690.21,-144.89"/>
</g>
<!-- packages/UI/view&#45;parameters/src/song&#45;parameters/song&#45;length.ts -->
<g id="node21" class="node">
<title>packages/UI/view&#45;parameters/src/song&#45;parameters/song&#45;length.ts</title>
<g id="a_node21"><a xlink:href="packages/UI/view-parameters/src/song-parameters/song-length.ts" xlink:title="song&#45;length.ts">
<path fill="#ddfeff" stroke="black" d="M529,-368C529,-368 459,-368 459,-368 456,-368 453,-365 453,-362 453,-362 453,-356 453,-356 453,-353 456,-350 459,-350 459,-350 529,-350 529,-350 532,-350 535,-353 535,-356 535,-356 535,-362 535,-362 535,-365 532,-368 529,-368"/>
<text text-anchor="start" x="461" y="-356.8" font-family="Helvetica,sans-Serif" font-size="9.00">song&#45;length.ts</text>
</a>
</g>
</g>
<!-- packages/UI/view&#45;parameters/src/song&#45;parameters/index.ts&#45;&gt;packages/UI/view&#45;parameters/src/song&#45;parameters/song&#45;length.ts -->
<g id="edge25" class="edge">
<title>packages/UI/view&#45;parameters/src/song&#45;parameters/index.ts&#45;&gt;packages/UI/view&#45;parameters/src/song&#45;parameters/song&#45;length.ts</title>
<path fill="none" stroke="#000000" stroke-width="2" stroke-opacity="0.200000" d="M233.98,-216.11C246.58,-249.05 289,-360 289,-360 289,-360 414,-360 414,-360 414,-360 429.18,-359.81 446.23,-359.59"/>
<polygon fill="#000000" fill-opacity="0.200000" stroke="#000000" stroke-width="2" stroke-opacity="0.200000" points="452.6,-361.61 446.57,-359.59 452.55,-357.41 452.6,-361.61"/>
</g>
<!-- packages/UI/view&#45;parameters/src/song&#45;parameters/black&#45;key.ts&#45;&gt;packages/UI/view&#45;parameters/src/song&#45;parameters/key.ts -->
<g id="edge7" class="edge">
<title>packages/UI/view&#45;parameters/src/song&#45;parameters/black&#45;key.ts&#45;&gt;packages/UI/view&#45;parameters/src/song&#45;parameters/key.ts</title>
<path fill="none" stroke="#000000" stroke-width="2" stroke-opacity="0.200000" d="M386.15,-188.35C408.71,-190.6 438.26,-193.55 460.56,-195.77"/>
<polygon fill="#000000" fill-opacity="0.200000" stroke="#000000" stroke-width="2" stroke-opacity="0.200000" points="460.47,-197.87 466.65,-196.37 460.88,-193.69 460.47,-197.87"/>
</g>
<!-- packages/UI/view&#45;parameters/src/song&#45;parameters/black&#45;key.ts&#45;&gt;packages/UI/view&#45;parameters/src/song&#45;parameters/rect&#45;parameter.ts -->
<g id="edge8" class="edge">
<title>packages/UI/view&#45;parameters/src/song&#45;parameters/black&#45;key.ts&#45;&gt;packages/UI/view&#45;parameters/src/song&#45;parameters/rect&#45;parameter.ts</title>
<path fill="none" stroke="#000000" stroke-width="2" stroke-opacity="0.200000" d="M386.21,-184C432.31,-182.64 515.48,-180.18 569.96,-178.57"/>
<polygon fill="#000000" fill-opacity="0.200000" stroke="#000000" stroke-width="2" stroke-opacity="0.200000" points="570.2,-180.66 576.13,-178.39 570.07,-176.46 570.2,-180.66"/>
</g>
<!-- packages/UI/view&#45;parameters/src/song&#45;parameters/key.ts&#45;&gt;packages/UI/view&#45;parameters/src/song&#45;parameters/rect&#45;parameter.ts -->
<g id="edge27" class="edge">
<title>packages/UI/view&#45;parameters/src/song&#45;parameters/key.ts&#45;&gt;packages/UI/view&#45;parameters/src/song&#45;parameters/rect&#45;parameter.ts</title>
<path fill="none" stroke="#000000" stroke-width="2" stroke-opacity="0.200000" d="M521.21,-194.49C535.35,-192.07 553.31,-188.98 570.21,-186.07"/>
<polygon fill="#000000" fill-opacity="0.200000" stroke="#000000" stroke-width="2" stroke-opacity="0.200000" points="570.81,-188.1 576.37,-185.01 570.1,-183.96 570.81,-188.1"/>
</g>
<!-- packages/UI/view&#45;parameters/src/song&#45;parameters/key.ts&#45;&gt;packages/UI/view&#45;parameters/src/song&#45;parameters/octave&#45;height.ts -->
<g id="edge26" class="edge">
<title>packages/UI/view&#45;parameters/src/song&#45;parameters/key.ts&#45;&gt;packages/UI/view&#45;parameters/src/song&#45;parameters/octave&#45;height.ts</title>
<path fill="none" stroke="#000000" stroke-width="2" stroke-opacity="0.200000" d="M521.21,-202.07C536,-203.8 554.98,-206.03 572.53,-208.09"/>
<polygon fill="#000000" fill-opacity="0.200000" stroke="#000000" stroke-width="2" stroke-opacity="0.200000" points="572.72,-210.22 578.93,-208.84 573.21,-206.05 572.72,-210.22"/>
</g>
<!-- packages/UI/view&#45;parameters/src/song&#45;parameters/current&#45;time&#45;ratio.ts -->
<g id="node10" class="node">
<title>packages/UI/view&#45;parameters/src/song&#45;parameters/current&#45;time&#45;ratio.ts</title>
<g id="a_node10"><a xlink:href="packages/UI/view-parameters/src/song-parameters/current-time-ratio.ts" xlink:title="current&#45;time&#45;ratio.ts">
<path fill="#ddfeff" stroke="black" d="M542,-147C542,-147 446,-147 446,-147 443,-147 440,-144 440,-141 440,-141 440,-135 440,-135 440,-132 443,-129 446,-129 446,-129 542,-129 542,-129 545,-129 548,-132 548,-135 548,-135 548,-141 548,-141 548,-144 545,-147 542,-147"/>
<text text-anchor="start" x="448" y="-135.8" font-family="Helvetica,sans-Serif" font-size="9.00">current&#45;time&#45;ratio.ts</text>
</a>
</g>
</g>
<!-- packages/UI/view&#45;parameters/src/song&#45;parameters/current&#45;time&#45;x.ts&#45;&gt;packages/UI/view&#45;parameters/src/song&#45;parameters/current&#45;time&#45;ratio.ts -->
<g id="edge9" class="edge">
<title>packages/UI/view&#45;parameters/src/song&#45;parameters/current&#45;time&#45;x.ts&#45;&gt;packages/UI/view&#45;parameters/src/song&#45;parameters/current&#45;time&#45;ratio.ts</title>
<path fill="none" stroke="#000000" stroke-width="2" stroke-opacity="0.200000" d="M398.12,-119.77C411.32,-122.3 425.85,-125.1 439.49,-127.72"/>
<polygon fill="#000000" fill-opacity="0.200000" stroke="#000000" stroke-width="2" stroke-opacity="0.200000" points="439.39,-129.84 445.68,-128.91 440.19,-125.71 439.39,-129.84"/>
</g>
<!-- packages/UI/view&#45;parameters/src/song&#45;parameters/current&#45;time&#45;x.ts&#45;&gt;packages/UI/view&#45;parameters/src/song&#45;parameters/piano&#45;roll&#45;width.ts -->
<g id="edge10" class="edge">
<title>packages/UI/view&#45;parameters/src/song&#45;parameters/current&#45;time&#45;x.ts&#45;&gt;packages/UI/view&#45;parameters/src/song&#45;parameters/piano&#45;roll&#45;width.ts</title>
<path fill="none" stroke="#000000" stroke-width="2" stroke-opacity="0.200000" d="M398.12,-107.75C411.04,-106.83 425.24,-105.82 438.62,-104.87"/>
<polygon fill="#000000" fill-opacity="0.200000" stroke="#000000" stroke-width="2" stroke-opacity="0.200000" points="438.88,-106.96 444.71,-104.44 438.58,-102.77 438.88,-106.96"/>
</g>
<!-- packages/UI/view&#45;parameters/src/song&#45;parameters/octave&#45;count.ts&#45;&gt;packages/UI/view&#45;parameters/src/song&#45;parameters/piano&#45;roll&#45;begin.ts -->
<g id="edge28" class="edge">
<title>packages/UI/view&#45;parameters/src/song&#45;parameters/octave&#45;count.ts&#45;&gt;packages/UI/view&#45;parameters/src/song&#45;parameters/piano&#45;roll&#45;begin.ts</title>
<path fill="none" stroke="#000000" stroke-width="2" stroke-opacity="0.200000" d="M537.62,-271C547.59,-271 558.34,-271 568.75,-271"/>
<polygon fill="#000000" fill-opacity="0.200000" stroke="#000000" stroke-width="2" stroke-opacity="0.200000" points="568.82,-273.1 574.82,-271 568.82,-268.9 568.82,-273.1"/>
</g>
<!-- packages/UI/view&#45;parameters/src/song&#45;parameters/piano&#45;roll&#45;end.ts -->
<g id="node22" class="node">
<title>packages/UI/view&#45;parameters/src/song&#45;parameters/piano&#45;roll&#45;end.ts</title>
<g id="a_node22"><a xlink:href="packages/UI/view-parameters/src/song-parameters/piano-roll-end.ts" xlink:title="piano&#45;roll&#45;end.ts">
<path fill="#ddfeff" stroke="black" d="M663,-328C663,-328 585,-328 585,-328 582,-328 579,-325 579,-322 579,-322 579,-316 579,-316 579,-313 582,-310 585,-310 585,-310 663,-310 663,-310 666,-310 669,-313 669,-316 669,-316 669,-322 669,-322 669,-325 666,-328 663,-328"/>
<text text-anchor="start" x="587" y="-316.8" font-family="Helvetica,sans-Serif" font-size="9.00">piano&#45;roll&#45;end.ts</text>
</a>
</g>
</g>
<!-- packages/UI/view&#45;parameters/src/song&#45;parameters/octave&#45;count.ts&#45;&gt;packages/UI/view&#45;parameters/src/song&#45;parameters/piano&#45;roll&#45;end.ts -->
<g id="edge29" class="edge">
<title>packages/UI/view&#45;parameters/src/song&#45;parameters/octave&#45;count.ts&#45;&gt;packages/UI/view&#45;parameters/src/song&#45;parameters/piano&#45;roll&#45;end.ts</title>
<path fill="none" stroke="#000000" stroke-width="2" stroke-opacity="0.200000" d="M533.71,-280.07C547.18,-283.23 559,-286 559,-286 559,-286 581.64,-297.67 599.98,-307.13"/>
<polygon fill="#000000" fill-opacity="0.200000" stroke="#000000" stroke-width="2" stroke-opacity="0.200000" points="599.22,-309.1 605.51,-309.98 601.14,-305.37 599.22,-309.1"/>
</g>
<!-- packages/UI/view&#45;parameters/src/song&#45;parameters/octave&#45;height.ts&#45;&gt;packages/UI/view&#45;parameters/src/song&#45;parameters/size.ts -->
<g id="edge30" class="edge">
<title>packages/UI/view&#45;parameters/src/song&#45;parameters/octave&#45;height.ts&#45;&gt;packages/UI/view&#45;parameters/src/song&#45;parameters/size.ts</title>
<path fill="none" stroke="#000000" stroke-width="2" stroke-opacity="0.200000" d="M644.8,-204.92C658.02,-198.86 673,-192 673,-192 673,-192 687.37,-177.27 698.66,-165.68"/>
<polygon fill="#000000" fill-opacity="0.200000" stroke="#000000" stroke-width="2" stroke-opacity="0.200000" points="700.27,-167.04 702.95,-161.28 697.26,-164.11 700.27,-167.04"/>
</g>
<!-- packages/UI/view&#45;parameters/src/song&#45;parameters/piano&#45;roll&#45;height.ts&#45;&gt;packages/UI/view&#45;parameters/src/song&#45;parameters/octave&#45;count.ts -->
<g id="edge31" class="edge">
<title>packages/UI/view&#45;parameters/src/song&#45;parameters/piano&#45;roll&#45;height.ts&#45;&gt;packages/UI/view&#45;parameters/src/song&#45;parameters/octave&#45;count.ts</title>
<path fill="none" stroke="#000000" stroke-width="2" stroke-opacity="0.200000" d="M397.73,-252.01C412.6,-254.98 429.19,-258.28 444.31,-261.3"/>
<polygon fill="#000000" fill-opacity="0.200000" stroke="#000000" stroke-width="2" stroke-opacity="0.200000" points="443.95,-263.37 450.25,-262.48 444.77,-259.25 443.95,-263.37"/>
</g>
<!-- packages/UI/view&#45;parameters/src/song&#45;parameters/piano&#45;roll&#45;height.ts&#45;&gt;packages/UI/view&#45;parameters/src/song&#45;parameters/octave&#45;height.ts -->
<g id="edge32" class="edge">
<title>packages/UI/view&#45;parameters/src/song&#45;parameters/piano&#45;roll&#45;height.ts&#45;&gt;packages/UI/view&#45;parameters/src/song&#45;parameters/octave&#45;height.ts</title>
<path fill="none" stroke="#000000" stroke-width="2" stroke-opacity="0.200000" d="M402.75,-238.62C463.88,-233.29 559,-225 559,-225 559,-225 564.82,-224 572.95,-222.6"/>
<polygon fill="#000000" fill-opacity="0.200000" stroke="#000000" stroke-width="2" stroke-opacity="0.200000" points="573.34,-224.67 578.9,-221.58 572.63,-220.53 573.34,-224.67"/>
</g>
<!-- packages/UI/view&#45;parameters/src/song&#45;parameters/set&#45;current&#45;time&#45;ratio.ts&#45;&gt;packages/UI/view&#45;parameters/src/song&#45;parameters/current&#45;time&#45;ratio.ts -->
<g id="edge33" class="edge">
<title>packages/UI/view&#45;parameters/src/song&#45;parameters/set&#45;current&#45;time&#45;ratio.ts&#45;&gt;packages/UI/view&#45;parameters/src/song&#45;parameters/current&#45;time&#45;ratio.ts</title>
<path fill="none" stroke="#000000" stroke-width="2" stroke-opacity="0.200000" d="M414.13,-139.68C420.54,-139.55 427.05,-139.41 433.44,-139.27"/>
<polygon fill="#000000" fill-opacity="0.200000" stroke="#000000" stroke-width="2" stroke-opacity="0.200000" points="433.83,-141.36 439.79,-139.14 433.74,-137.16 433.83,-141.36"/>
</g>
<!-- packages/UI/view&#45;parameters/src/song&#45;parameters/set&#45;song&#45;parameters.ts&#45;&gt;packages/UI/view&#45;parameters/src/song&#45;parameters/bracket&#45;height.ts -->
<g id="edge34" class="edge">
<title>packages/UI/view&#45;parameters/src/song&#45;parameters/set&#45;song&#45;parameters.ts&#45;&gt;packages/UI/view&#45;parameters/src/song&#45;parameters/bracket&#45;height.ts</title>
<path fill="none" stroke="#000000" stroke-width="2" stroke-opacity="0.200000" d="M383.61,-335.89C398.86,-331.43 414,-327 414,-327 414,-327 430,-319 430,-319 430,-319 441.87,-315.61 455.31,-311.77"/>
<polygon fill="#000000" fill-opacity="0.200000" stroke="#000000" stroke-width="2" stroke-opacity="0.200000" points="455.94,-313.77 461.13,-310.11 454.78,-309.73 455.94,-313.77"/>
</g>
<!-- packages/UI/view&#45;parameters/src/song&#45;parameters/set&#45;song&#45;parameters.ts&#45;&gt;packages/UI/view&#45;parameters/src/song&#45;parameters/piano&#45;roll&#45;begin.ts -->
<g id="edge35" class="edge">
<title>packages/UI/view&#45;parameters/src/song&#45;parameters/set&#45;song&#45;parameters.ts&#45;&gt;packages/UI/view&#45;parameters/src/song&#45;parameters/piano&#45;roll&#45;begin.ts</title>
<path fill="none" stroke="#000000" stroke-width="2" stroke-opacity="0.200000" d="M393.97,-335.9C412.4,-331.86 430,-328 430,-328 430,-328 559,-316 559,-316 559,-316 575,-304 575,-304 575,-304 591.11,-292.92 604.66,-283.61"/>
<polygon fill="#000000" fill-opacity="0.200000" stroke="#000000" stroke-width="2" stroke-opacity="0.200000" points="606.13,-285.15 609.88,-280.02 603.75,-281.69 606.13,-285.15"/>
</g>
<!-- packages/UI/view&#45;parameters/src/song&#45;parameters/set&#45;song&#45;parameters.ts&#45;&gt;packages/UI/view&#45;parameters/src/song&#45;parameters/song&#45;length.ts -->
<g id="edge37" class="edge">
<title>packages/UI/view&#45;parameters/src/song&#45;parameters/set&#45;song&#45;parameters.ts&#45;&gt;packages/UI/view&#45;parameters/src/song&#45;parameters/song&#45;length.ts</title>
<path fill="none" stroke="#000000" stroke-width="2" stroke-opacity="0.200000" d="M412.08,-350.94C423.7,-352.09 435.71,-353.29 446.8,-354.4"/>
<polygon fill="#000000" fill-opacity="0.200000" stroke="#000000" stroke-width="2" stroke-opacity="0.200000" points="446.69,-356.5 452.87,-355 447.11,-352.32 446.69,-356.5"/>
</g>
<!-- packages/UI/view&#45;parameters/src/song&#45;parameters/set&#45;song&#45;parameters.ts&#45;&gt;packages/UI/view&#45;parameters/src/song&#45;parameters/piano&#45;roll&#45;end.ts -->
<g id="edge36" class="edge">
<title>packages/UI/view&#45;parameters/src/song&#45;parameters/set&#45;song&#45;parameters.ts&#45;&gt;packages/UI/view&#45;parameters/src/song&#45;parameters/piano&#45;roll&#45;end.ts</title>
<path fill="none" stroke="#000000" stroke-width="2" stroke-opacity="0.200000" d="M412.23,-339.79C473.22,-334.48 559,-327 559,-327 559,-327 564.6,-326.3 572.48,-325.32"/>
<polygon fill="#000000" fill-opacity="0.200000" stroke="#000000" stroke-width="2" stroke-opacity="0.200000" points="573.21,-327.34 578.9,-324.51 572.69,-323.17 573.21,-327.34"/>
</g>
<!-- packages/music&#45;structure/melody/melody&#45;analyze/dist/index.js -->
<g id="node23" class="node">
<title>packages/music&#45;structure/melody/melody&#45;analyze/dist/index.js</title>
<g id="a_node23"><a xlink:href="packages/music-structure/melody/melody-analyze/dist/index.js" xlink:title="index.js">
<polygon fill="#ffffcc" stroke="black" points="521,-530 519.5,-532 509,-532 507.5,-530 467,-530 467,-512 521,-512 521,-530"/>
<text text-anchor="start" x="476.5" y="-518.8" font-family="Helvetica,sans-Serif" font-size="9.00">index.js</text>
</a>
</g>
</g>
<!-- packages/UI/view&#45;parameters/src/song&#45;parameters/set&#45;song&#45;parameters.ts&#45;&gt;packages/music&#45;structure/melody/melody&#45;analyze/dist/index.js -->
<g id="edge38" class="edge">
<title>packages/UI/view&#45;parameters/src/song&#45;parameters/set&#45;song&#45;parameters.ts&#45;&gt;packages/music&#45;structure/melody/melody&#45;analyze/dist/index.js</title>
<path fill="none" stroke="#000000" stroke-width="2" stroke-opacity="0.200000" d="M360.05,-354.46C383.32,-383.61 453.98,-472.12 481.68,-506.83"/>
<polygon fill="#000000" fill-opacity="0.200000" stroke="#000000" stroke-width="2" stroke-opacity="0.200000" points="480.36,-508.54 485.75,-511.92 483.65,-505.92 480.36,-508.54"/>
</g>
</g>
</svg>
