<?xml version="1.0" encoding="UTF-8" standalone="no"?>
<!DOCTYPE svg PUBLIC "-//W3C//DTD SVG 1.1//EN"
 "http://www.w3.org/Graphics/SVG/1.1/DTD/svg11.dtd">
<!-- Generated by graphviz version 2.43.0 (0)
 -->
<!-- Title: dependency&#45;cruiser output Pages: 1 -->
<svg width="1080pt" height="522pt"
 viewBox="0.00 0.00 1080.00 522.00" xmlns="http://www.w3.org/2000/svg" xmlns:xlink="http://www.w3.org/1999/xlink">
<g id="graph0" class="graph" transform="scale(1 1) rotate(0) translate(4 518)">
<title>dependency&#45;cruiser output</title>
<polygon fill="white" stroke="transparent" points="-4,4 -4,-518 1076,-518 1076,4 -4,4"/>
<g id="clust1" class="cluster">
<title>cluster_packages</title>
<path fill="#ffffff" stroke="black" stroke-width="2" d="M20,-8C20,-8 1052,-8 1052,-8 1058,-8 1064,-14 1064,-20 1064,-20 1064,-494 1064,-494 1064,-500 1058,-506 1052,-506 1052,-506 20,-506 20,-506 14,-506 8,-500 8,-494 8,-494 8,-20 8,-20 8,-14 14,-8 20,-8"/>
<text text-anchor="middle" x="536" y="-494.8" font-family="Helvetica,sans-Serif" font-weight="bold" font-size="9.00">packages</text>
</g>
<g id="clust2" class="cluster">
<title>cluster_packages/UI</title>
<path fill="#ffffff" stroke="black" stroke-width="2" d="M28,-16C28,-16 1044,-16 1044,-16 1050,-16 1056,-22 1056,-28 1056,-28 1056,-340 1056,-340 1056,-346 1050,-352 1044,-352 1044,-352 28,-352 28,-352 22,-352 16,-346 16,-340 16,-340 16,-28 16,-28 16,-22 22,-16 28,-16"/>
<text text-anchor="middle" x="536" y="-340.8" font-family="Helvetica,sans-Serif" font-weight="bold" font-size="9.00">UI</text>
</g>
<g id="clust3" class="cluster">
<title>cluster_packages/UI/view&#45;parameters</title>
<path fill="#ffffff" stroke="black" stroke-width="2" d="M36,-24C36,-24 1036,-24 1036,-24 1042,-24 1048,-30 1048,-36 1048,-36 1048,-314 1048,-314 1048,-320 1042,-326 1036,-326 1036,-326 36,-326 36,-326 30,-326 24,-320 24,-314 24,-314 24,-36 24,-36 24,-30 30,-24 36,-24"/>
<text text-anchor="middle" x="536" y="-314.8" font-family="Helvetica,sans-Serif" font-weight="bold" font-size="9.00">view&#45;parameters</text>
</g>
<g id="clust4" class="cluster">
<title>cluster_packages/UI/view&#45;parameters/src</title>
<path fill="#ffffff" stroke="black" stroke-width="2" d="M106,-32C106,-32 1028,-32 1028,-32 1034,-32 1040,-38 1040,-44 1040,-44 1040,-288 1040,-288 1040,-294 1034,-300 1028,-300 1028,-300 106,-300 106,-300 100,-300 94,-294 94,-288 94,-288 94,-44 94,-44 94,-38 100,-32 106,-32"/>
<text text-anchor="middle" x="567" y="-288.8" font-family="Helvetica,sans-Serif" font-weight="bold" font-size="9.00">src</text>
</g>
<g id="clust5" class="cluster">
<title>cluster_packages/UI/view&#45;parameters/src/piano&#45;roll</title>
<path fill="#ffffff" stroke="black" stroke-width="2" d="M442,-80C442,-80 1020,-80 1020,-80 1026,-80 1032,-86 1032,-92 1032,-92 1032,-222 1032,-222 1032,-228 1026,-234 1020,-234 1020,-234 442,-234 442,-234 436,-234 430,-228 430,-222 430,-222 430,-92 430,-92 430,-86 436,-80 442,-80"/>
<text text-anchor="middle" x="731" y="-222.8" font-family="Helvetica,sans-Serif" font-weight="bold" font-size="9.00">piano&#45;roll</text>
</g>
<g id="clust6" class="cluster">
<title>cluster_packages/UI/view&#45;parameters/src/position</title>
<path fill="#ffffff" stroke="black" stroke-width="2" d="M206.5,-182C206.5,-182 391,-182 391,-182 397,-182 403,-188 403,-194 403,-194 403,-252 403,-252 403,-258 397,-264 391,-264 391,-264 206.5,-264 206.5,-264 200.5,-264 194.5,-258 194.5,-252 194.5,-252 194.5,-194 194.5,-194 194.5,-188 200.5,-182 206.5,-182"/>
<text text-anchor="middle" x="298.75" y="-252.8" font-family="Helvetica,sans-Serif" font-weight="bold" font-size="9.00">position</text>
</g>
<g id="clust7" class="cluster">
<title>cluster_packages/util</title>
<path fill="#ffffff" stroke="black" stroke-width="2" d="M426,-360C426,-360 504,-360 504,-360 510,-360 516,-366 516,-372 516,-372 516,-468 516,-468 516,-474 510,-480 504,-480 504,-480 426,-480 426,-480 420,-480 414,-474 414,-468 414,-468 414,-372 414,-372 414,-366 420,-360 426,-360"/>
<text text-anchor="middle" x="465" y="-468.8" font-family="Helvetica,sans-Serif" font-weight="bold" font-size="9.00">util</text>
</g>
<g id="clust8" class="cluster">
<title>cluster_packages/util/math</title>
<path fill="#ffffff" stroke="black" stroke-width="2" d="M434,-368C434,-368 496,-368 496,-368 502,-368 508,-374 508,-380 508,-380 508,-442 508,-442 508,-448 502,-454 496,-454 496,-454 434,-454 434,-454 428,-454 422,-448 422,-442 422,-442 422,-380 422,-380 422,-374 428,-368 434,-368"/>
<text text-anchor="middle" x="465" y="-442.8" font-family="Helvetica,sans-Serif" font-weight="bold" font-size="9.00">math</text>
</g>
<g id="clust9" class="cluster">
<title>cluster_packages/util/math/dist</title>
<path fill="#ffffff" stroke="black" stroke-width="2" d="M442,-376C442,-376 488,-376 488,-376 494,-376 500,-382 500,-388 500,-388 500,-416 500,-416 500,-422 494,-428 488,-428 488,-428 442,-428 442,-428 436,-428 430,-422 430,-416 430,-416 430,-388 430,-388 430,-382 436,-376 442,-376"/>
<text text-anchor="middle" x="465" y="-416.8" font-family="Helvetica,sans-Serif" font-weight="bold" font-size="9.00">dist</text>
</g>
<!-- packages/UI/view&#45;parameters/index.ts -->
<g id="node1" class="node">
<title>packages/UI/view&#45;parameters/index.ts</title>
<g id="a_node1"><a xlink:href="packages/UI/view-parameters/index.ts" xlink:title="index.ts">
<path fill="#ddfeff" stroke="black" d="M80,-142C80,-142 38,-142 38,-142 35,-142 32,-139 32,-136 32,-136 32,-130 32,-130 32,-127 35,-124 38,-124 38,-124 80,-124 80,-124 83,-124 86,-127 86,-130 86,-130 86,-136 86,-136 86,-139 83,-142 80,-142"/>
<text text-anchor="start" x="40.5" y="-130.8" font-family="Helvetica,sans-Serif" font-size="9.00">index.ts</text>
</a>
</g>
</g>
<!-- packages/UI/view&#45;parameters/src/index.ts -->
<g id="node2" class="node">
<title>packages/UI/view&#45;parameters/src/index.ts</title>
<g id="a_node2"><a xlink:href="packages/UI/view-parameters/src/index.ts" xlink:title="index.ts">
<path fill="#ddfeff" stroke="black" d="M150,-142C150,-142 108,-142 108,-142 105,-142 102,-139 102,-136 102,-136 102,-130 102,-130 102,-127 105,-124 108,-124 108,-124 150,-124 150,-124 153,-124 156,-127 156,-130 156,-130 156,-136 156,-136 156,-139 153,-142 150,-142"/>
<text text-anchor="start" x="110.5" y="-130.8" font-family="Helvetica,sans-Serif" font-size="9.00">index.ts</text>
</a>
</g>
</g>
<!-- packages/UI/view&#45;parameters/index.ts&#45;&gt;packages/UI/view&#45;parameters/src/index.ts -->
<g id="edge1" class="edge">
<title>packages/UI/view&#45;parameters/index.ts&#45;&gt;packages/UI/view&#45;parameters/src/index.ts</title>
<path fill="none" stroke="#000000" stroke-opacity="0.200000" d="M86.1,-133C89.44,-133 92.89,-133 96.31,-133"/>
<polygon fill="#000000" fill-opacity="0.200000" stroke="#000000" stroke-opacity="0.200000" points="101.64,-134.75 96.64,-133 101.64,-131.25 101.64,-134.75"/>
</g>
<!-- packages/UI/view&#45;parameters/src/current&#45;time&#45;ratio.ts -->
<g id="node3" class="node">
<title>packages/UI/view&#45;parameters/src/current&#45;time&#45;ratio.ts</title>
<g id="a_node3"><a xlink:href="packages/UI/view-parameters/src/current-time-ratio.ts" xlink:title="current&#45;time&#45;ratio.ts">
<path fill="#ddfeff" stroke="black" d="M513,-72C513,-72 417,-72 417,-72 414,-72 411,-69 411,-66 411,-66 411,-60 411,-60 411,-57 414,-54 417,-54 417,-54 513,-54 513,-54 516,-54 519,-57 519,-60 519,-60 519,-66 519,-66 519,-69 516,-72 513,-72"/>
<text text-anchor="start" x="419" y="-60.8" font-family="Helvetica,sans-Serif" font-size="9.00">current&#45;time&#45;ratio.ts</text>
</a>
</g>
</g>
<!-- packages/UI/view&#45;parameters/src/index.ts&#45;&gt;packages/UI/view&#45;parameters/src/current&#45;time&#45;ratio.ts -->
<g id="edge4" class="edge">
<title>packages/UI/view&#45;parameters/src/index.ts&#45;&gt;packages/UI/view&#45;parameters/src/current&#45;time&#45;ratio.ts</title>
<path fill="none" stroke="#000000" stroke-opacity="0.200000" d="M136.44,-123.92C147.52,-108.3 169,-78 169,-78 169,-78 303,-62 303,-62 303,-62 403,-62 403,-62 403,-62 403.99,-62.02 405.72,-62.04"/>
<polygon fill="#000000" fill-opacity="0.200000" stroke="#000000" stroke-opacity="0.200000" points="410.95,-63.88 405.98,-62.05 411,-60.38 410.95,-63.88"/>
</g>
<!-- packages/UI/view&#45;parameters/src/current&#45;time&#45;x.ts -->
<g id="node4" class="node">
<title>packages/UI/view&#45;parameters/src/current&#45;time&#45;x.ts</title>
<g id="a_node4"><a xlink:href="packages/UI/view-parameters/src/current-time-x.ts" xlink:title="current&#45;time&#45;x.ts">
<path fill="#ddfeff" stroke="black" d="M390,-86C390,-86 309,-86 309,-86 306,-86 303,-83 303,-80 303,-80 303,-74 303,-74 303,-71 306,-68 309,-68 309,-68 390,-68 390,-68 393,-68 396,-71 396,-74 396,-74 396,-80 396,-80 396,-83 393,-86 390,-86"/>
<text text-anchor="start" x="311" y="-74.8" font-family="Helvetica,sans-Serif" font-size="9.00">current&#45;time&#45;x.ts</text>
</a>
</g>
</g>
<!-- packages/UI/view&#45;parameters/src/index.ts&#45;&gt;packages/UI/view&#45;parameters/src/current&#45;time&#45;x.ts -->
<g id="edge5" class="edge">
<title>packages/UI/view&#45;parameters/src/index.ts&#45;&gt;packages/UI/view&#45;parameters/src/current&#45;time&#45;x.ts</title>
<path fill="none" stroke="#000000" stroke-opacity="0.200000" d="M138.27,-123.67C149.72,-110.75 169,-89 169,-89 169,-89 244.6,-83.95 297.68,-80.4"/>
<polygon fill="#000000" fill-opacity="0.200000" stroke="#000000" stroke-opacity="0.200000" points="302.86,-81.81 297.75,-80.39 302.62,-78.31 302.86,-81.81"/>
</g>
<!-- packages/UI/view&#45;parameters/src/piano&#45;roll/index.ts -->
<g id="node5" class="node">
<title>packages/UI/view&#45;parameters/src/piano&#45;roll/index.ts</title>
<g id="a_node5"><a xlink:href="packages/UI/view-parameters/src/piano-roll/index.ts" xlink:title="index.ts">
<path fill="#ddfeff" stroke="black" d="M486,-162C486,-162 444,-162 444,-162 441,-162 438,-159 438,-156 438,-156 438,-150 438,-150 438,-147 441,-144 444,-144 444,-144 486,-144 486,-144 489,-144 492,-147 492,-150 492,-150 492,-156 492,-156 492,-159 489,-162 486,-162"/>
<text text-anchor="start" x="446.5" y="-150.8" font-family="Helvetica,sans-Serif" font-size="9.00">index.ts</text>
</a>
</g>
</g>
<!-- packages/UI/view&#45;parameters/src/index.ts&#45;&gt;packages/UI/view&#45;parameters/src/piano&#45;roll/index.ts -->
<g id="edge8" class="edge">
<title>packages/UI/view&#45;parameters/src/index.ts&#45;&gt;packages/UI/view&#45;parameters/src/piano&#45;roll/index.ts</title>
<path fill="none" stroke="#000000" stroke-opacity="0.200000" d="M156.23,-136.36C163.28,-137.27 169,-138 169,-138 169,-138 303,-152 303,-152 303,-152 385.66,-152.51 432.52,-152.8"/>
<polygon fill="#000000" fill-opacity="0.200000" stroke="#000000" stroke-opacity="0.200000" points="437.76,-154.59 432.77,-152.81 437.79,-151.09 437.76,-154.59"/>
</g>
<!-- packages/UI/view&#45;parameters/src/note&#45;size.ts -->
<g id="node6" class="node">
<title>packages/UI/view&#45;parameters/src/note&#45;size.ts</title>
<g id="a_node6"><a xlink:href="packages/UI/view-parameters/src/note-size.ts" xlink:title="note&#45;size.ts">
<path fill="#ddfeff" stroke="black" d="M377.5,-116C377.5,-116 321.5,-116 321.5,-116 318.5,-116 315.5,-113 315.5,-110 315.5,-110 315.5,-104 315.5,-104 315.5,-101 318.5,-98 321.5,-98 321.5,-98 377.5,-98 377.5,-98 380.5,-98 383.5,-101 383.5,-104 383.5,-104 383.5,-110 383.5,-110 383.5,-113 380.5,-116 377.5,-116"/>
<text text-anchor="start" x="323.5" y="-104.8" font-family="Helvetica,sans-Serif" font-size="9.00">note&#45;size.ts</text>
</a>
</g>
</g>
<!-- packages/UI/view&#45;parameters/src/index.ts&#45;&gt;packages/UI/view&#45;parameters/src/note&#45;size.ts -->
<g id="edge6" class="edge">
<title>packages/UI/view&#45;parameters/src/index.ts&#45;&gt;packages/UI/view&#45;parameters/src/note&#45;size.ts</title>
<path fill="none" stroke="#000000" stroke-opacity="0.200000" d="M156.06,-130.72C201.4,-126.75 290,-119 290,-119 290,-119 299.36,-117.08 310.58,-114.78"/>
<polygon fill="#000000" fill-opacity="0.200000" stroke="#000000" stroke-opacity="0.200000" points="315.84,-115.49 310.59,-114.78 315.14,-112.06 315.84,-115.49"/>
</g>
<!-- packages/UI/view&#45;parameters/src/now&#45;at.ts -->
<g id="node7" class="node">
<title>packages/UI/view&#45;parameters/src/now&#45;at.ts</title>
<g id="a_node7"><a xlink:href="packages/UI/view-parameters/src/now-at.ts" xlink:title="now&#45;at.ts">
<path fill="#ddfeff" stroke="black" d="M373,-146C373,-146 326,-146 326,-146 323,-146 320,-143 320,-140 320,-140 320,-134 320,-134 320,-131 323,-128 326,-128 326,-128 373,-128 373,-128 376,-128 379,-131 379,-134 379,-134 379,-140 379,-140 379,-143 376,-146 373,-146"/>
<text text-anchor="start" x="328" y="-134.8" font-family="Helvetica,sans-Serif" font-size="9.00">now&#45;at.ts</text>
</a>
</g>
</g>
<!-- packages/UI/view&#45;parameters/src/index.ts&#45;&gt;packages/UI/view&#45;parameters/src/now&#45;at.ts -->
<g id="edge7" class="edge">
<title>packages/UI/view&#45;parameters/src/index.ts&#45;&gt;packages/UI/view&#45;parameters/src/now&#45;at.ts</title>
<path fill="none" stroke="#000000" stroke-opacity="0.200000" d="M156.36,-133.48C196.06,-134.21 271.19,-135.58 314.81,-136.38"/>
<polygon fill="#000000" fill-opacity="0.200000" stroke="#000000" stroke-opacity="0.200000" points="319.94,-138.23 314.97,-136.39 320.01,-134.73 319.94,-138.23"/>
</g>
<!-- packages/UI/view&#45;parameters/src/piano&#45;roll&#45;translate&#45;x.ts -->
<g id="node8" class="node">
<title>packages/UI/view&#45;parameters/src/piano&#45;roll&#45;translate&#45;x.ts</title>
<g id="a_node8"><a xlink:href="packages/UI/view-parameters/src/piano-roll-translate-x.ts" xlink:title="piano&#45;roll&#45;translate&#45;x.ts">
<path fill="#ddfeff" stroke="black" d="M284,-113C284,-113 175,-113 175,-113 172,-113 169,-110 169,-107 169,-107 169,-101 169,-101 169,-98 172,-95 175,-95 175,-95 284,-95 284,-95 287,-95 290,-98 290,-101 290,-101 290,-107 290,-107 290,-110 287,-113 284,-113"/>
<text text-anchor="start" x="177" y="-101.8" font-family="Helvetica,sans-Serif" font-size="9.00">piano&#45;roll&#45;translate&#45;x.ts</text>
</a>
</g>
</g>
<!-- packages/UI/view&#45;parameters/src/index.ts&#45;&gt;packages/UI/view&#45;parameters/src/piano&#45;roll&#45;translate&#45;x.ts -->
<g id="edge9" class="edge">
<title>packages/UI/view&#45;parameters/src/index.ts&#45;&gt;packages/UI/view&#45;parameters/src/piano&#45;roll&#45;translate&#45;x.ts</title>
<path fill="none" stroke="#000000" stroke-opacity="0.200000" d="M156.14,-125.3C167.31,-122.02 180.53,-118.12 192.6,-114.57"/>
<polygon fill="#000000" fill-opacity="0.200000" stroke="#000000" stroke-opacity="0.200000" points="198.18,-114.75 192.89,-114.48 197.19,-111.39 198.18,-114.75"/>
</g>
<!-- packages/UI/view&#45;parameters/src/piano&#45;roll/octave&#45;count.ts -->
<g id="node9" class="node">
<title>packages/UI/view&#45;parameters/src/piano&#45;roll/octave&#45;count.ts</title>
<g id="a_node9"><a xlink:href="packages/UI/view-parameters/src/piano-roll/octave-count.ts" xlink:title="octave&#45;count.ts">
<path fill="#ddfeff" stroke="black" d="M766,-120C766,-120 691,-120 691,-120 688,-120 685,-117 685,-114 685,-114 685,-108 685,-108 685,-105 688,-102 691,-102 691,-102 766,-102 766,-102 769,-102 772,-105 772,-108 772,-108 772,-114 772,-114 772,-117 769,-120 766,-120"/>
<text text-anchor="start" x="693" y="-108.8" font-family="Helvetica,sans-Serif" font-size="9.00">octave&#45;count.ts</text>
</a>
</g>
</g>
<!-- packages/UI/view&#45;parameters/src/index.ts&#45;&gt;packages/UI/view&#45;parameters/src/piano&#45;roll/octave&#45;count.ts -->
<g id="edge10" class="edge">
<title>packages/UI/view&#45;parameters/src/index.ts&#45;&gt;packages/UI/view&#45;parameters/src/piano&#45;roll/octave&#45;count.ts</title>
<path fill="none" stroke="#000000" stroke-opacity="0.200000" d="M134.94,-123.75C145.43,-104.11 169,-60 169,-60 169,-60 348.5,-41 348.5,-41 348.5,-41 348.5,-41 466,-41 466,-41 519,-48 519,-48 519,-48 633.45,-82.58 692.76,-100.5"/>
<polygon fill="#000000" fill-opacity="0.200000" stroke="#000000" stroke-opacity="0.200000" points="697.12,-103.65 692.84,-100.53 698.13,-100.3 697.12,-103.65"/>
</g>
<!-- packages/UI/view&#45;parameters/src/position/index.ts -->
<g id="node10" class="node">
<title>packages/UI/view&#45;parameters/src/position/index.ts</title>
<g id="a_node10"><a xlink:href="packages/UI/view-parameters/src/position/index.ts" xlink:title="index.ts">
<path fill="#ddfeff" stroke="black" d="M250.5,-208C250.5,-208 208.5,-208 208.5,-208 205.5,-208 202.5,-205 202.5,-202 202.5,-202 202.5,-196 202.5,-196 202.5,-193 205.5,-190 208.5,-190 208.5,-190 250.5,-190 250.5,-190 253.5,-190 256.5,-193 256.5,-196 256.5,-196 256.5,-202 256.5,-202 256.5,-205 253.5,-208 250.5,-208"/>
<text text-anchor="start" x="211" y="-196.8" font-family="Helvetica,sans-Serif" font-size="9.00">index.ts</text>
</a>
</g>
</g>
<!-- packages/UI/view&#45;parameters/src/index.ts&#45;&gt;packages/UI/view&#45;parameters/src/position/index.ts -->
<g id="edge11" class="edge">
<title>packages/UI/view&#45;parameters/src/index.ts&#45;&gt;packages/UI/view&#45;parameters/src/position/index.ts</title>
<path fill="none" stroke="#000000" stroke-opacity="0.200000" d="M136.79,-142.23C147.97,-157.42 169,-186 169,-186 169,-186 182.71,-189 196.98,-192.11"/>
<polygon fill="#000000" fill-opacity="0.200000" stroke="#000000" stroke-opacity="0.200000" points="201.86,-194.97 197.34,-192.19 202.6,-191.55 201.86,-194.97"/>
</g>
<!-- packages/UI/view&#45;parameters/src/rect&#45;parameter.ts -->
<g id="node11" class="node">
<title>packages/UI/view&#45;parameters/src/rect&#45;parameter.ts</title>
<g id="a_node11"><a xlink:href="packages/UI/view-parameters/src/rect-parameter.ts" xlink:title="rect&#45;parameter.ts">
<path fill="#ddfeff" stroke="black" d="M890.5,-267C890.5,-267 807.5,-267 807.5,-267 804.5,-267 801.5,-264 801.5,-261 801.5,-261 801.5,-255 801.5,-255 801.5,-252 804.5,-249 807.5,-249 807.5,-249 890.5,-249 890.5,-249 893.5,-249 896.5,-252 896.5,-255 896.5,-255 896.5,-261 896.5,-261 896.5,-264 893.5,-267 890.5,-267"/>
<text text-anchor="start" x="809.5" y="-255.8" font-family="Helvetica,sans-Serif" font-size="9.00">rect&#45;parameter.ts</text>
</a>
</g>
</g>
<!-- packages/UI/view&#45;parameters/src/index.ts&#45;&gt;packages/UI/view&#45;parameters/src/rect&#45;parameter.ts -->
<g id="edge12" class="edge">
<title>packages/UI/view&#45;parameters/src/index.ts&#45;&gt;packages/UI/view&#45;parameters/src/rect&#45;parameter.ts</title>
<path fill="none" stroke="#000000" stroke-opacity="0.200000" d="M132.68,-142.21C141.49,-172.48 169,-267 169,-267 169,-267 348.5,-273 348.5,-273 348.5,-273 348.5,-273 595.5,-273 595.5,-273 787,-266 787,-266 787,-266 790.73,-265.51 796.34,-264.78"/>
<polygon fill="#000000" fill-opacity="0.200000" stroke="#000000" stroke-opacity="0.200000" points="801.68,-265.84 796.5,-264.75 801.23,-262.37 801.68,-265.84"/>
</g>
<!-- packages/UI/view&#45;parameters/src/song&#45;length.ts -->
<g id="node12" class="node">
<title>packages/UI/view&#45;parameters/src/song&#45;length.ts</title>
<g id="a_node12"><a xlink:href="packages/UI/view-parameters/src/song-length.ts" xlink:title="song&#45;length.ts">
<path fill="#ddfeff" stroke="black" d="M763.5,-260C763.5,-260 693.5,-260 693.5,-260 690.5,-260 687.5,-257 687.5,-254 687.5,-254 687.5,-248 687.5,-248 687.5,-245 690.5,-242 693.5,-242 693.5,-242 763.5,-242 763.5,-242 766.5,-242 769.5,-245 769.5,-248 769.5,-248 769.5,-254 769.5,-254 769.5,-257 766.5,-260 763.5,-260"/>
<text text-anchor="start" x="695.5" y="-248.8" font-family="Helvetica,sans-Serif" font-size="9.00">song&#45;length.ts</text>
</a>
</g>
</g>
<!-- packages/UI/view&#45;parameters/src/index.ts&#45;&gt;packages/UI/view&#45;parameters/src/song&#45;length.ts -->
<g id="edge13" class="edge">
<title>packages/UI/view&#45;parameters/src/index.ts&#45;&gt;packages/UI/view&#45;parameters/src/song&#45;length.ts</title>
<path fill="none" stroke="#000000" stroke-opacity="0.200000" d="M153.59,-142.07C161.8,-145.23 169,-148 169,-148 169,-148 403,-179 403,-179 403,-179 411,-237 411,-237 411,-237 594.85,-245.13 682.31,-249"/>
<polygon fill="#000000" fill-opacity="0.200000" stroke="#000000" stroke-opacity="0.200000" points="687.34,-250.98 682.42,-249.01 687.49,-247.48 687.34,-250.98"/>
</g>
<!-- packages/UI/view&#45;parameters/src/current&#45;time&#45;x.ts&#45;&gt;packages/UI/view&#45;parameters/src/current&#45;time&#45;ratio.ts -->
<g id="edge2" class="edge">
<title>packages/UI/view&#45;parameters/src/current&#45;time&#45;x.ts&#45;&gt;packages/UI/view&#45;parameters/src/current&#45;time&#45;ratio.ts</title>
<path fill="none" stroke="#000000" stroke-opacity="0.200000" d="M396.01,-71.39C399.17,-71 402.37,-70.6 405.59,-70.21"/>
<polygon fill="#000000" fill-opacity="0.200000" stroke="#000000" stroke-opacity="0.200000" points="410.63,-69.58 405.95,-72.43 408.15,-69.89 405.67,-70.19 405.67,-70.19 405.67,-70.19 408.15,-69.89 405.4,-67.96 410.63,-69.58 410.63,-69.58"/>
</g>
<!-- packages/UI/view&#45;parameters/src/current&#45;time&#45;x.ts&#45;&gt;packages/UI/view&#45;parameters/src/piano&#45;roll/index.ts -->
<g id="edge3" class="edge">
<title>packages/UI/view&#45;parameters/src/current&#45;time&#45;x.ts&#45;&gt;packages/UI/view&#45;parameters/src/piano&#45;roll/index.ts</title>
<path fill="none" stroke="#000000" stroke-opacity="0.200000" d="M382.25,-86.07C393.31,-89.23 403,-92 403,-92 403,-92 411,-140 411,-140 411,-140 421.3,-142.53 432.82,-145.35"/>
<polygon fill="#000000" fill-opacity="0.200000" stroke="#000000" stroke-opacity="0.200000" points="437.81,-146.58 432.42,-147.57 435.38,-145.98 432.95,-145.38 432.95,-145.38 432.95,-145.38 435.38,-145.98 433.49,-143.2 437.81,-146.58 437.81,-146.58"/>
</g>
<!-- packages/UI/view&#45;parameters/src/piano&#45;roll/piano&#45;roll&#45;begin.ts -->
<g id="node13" class="node">
<title>packages/UI/view&#45;parameters/src/piano&#45;roll/piano&#45;roll&#45;begin.ts</title>
<g id="a_node13"><a xlink:href="packages/UI/view-parameters/src/piano-roll/piano-roll-begin.ts" xlink:title="piano&#45;roll&#45;begin.ts">
<path fill="#ddfeff" stroke="black" d="M892,-109C892,-109 806,-109 806,-109 803,-109 800,-106 800,-103 800,-103 800,-97 800,-97 800,-94 803,-91 806,-91 806,-91 892,-91 892,-91 895,-91 898,-94 898,-97 898,-97 898,-103 898,-103 898,-106 895,-109 892,-109"/>
<text text-anchor="start" x="808" y="-97.8" font-family="Helvetica,sans-Serif" font-size="9.00">piano&#45;roll&#45;begin.ts</text>
</a>
</g>
</g>
<!-- packages/UI/view&#45;parameters/src/piano&#45;roll/index.ts&#45;&gt;packages/UI/view&#45;parameters/src/piano&#45;roll/piano&#45;roll&#45;begin.ts -->
<g id="edge18" class="edge">
<title>packages/UI/view&#45;parameters/src/piano&#45;roll/index.ts&#45;&gt;packages/UI/view&#45;parameters/src/piano&#45;roll/piano&#45;roll&#45;begin.ts</title>
<path fill="none" stroke="#000000" stroke-opacity="0.200000" d="M492.19,-146.58C505.54,-143.3 519,-140 519,-140 519,-140 532,-96 532,-96 532,-96 787,-96 787,-96 787,-96 790.02,-96.2 794.73,-96.51"/>
<polygon fill="#000000" fill-opacity="0.200000" stroke="#000000" stroke-opacity="0.200000" points="799.82,-98.59 794.95,-96.52 800.05,-95.1 799.82,-98.59"/>
</g>
<!-- packages/UI/view&#45;parameters/src/piano&#45;roll/piano&#45;roll&#45;constants.ts -->
<g id="node14" class="node">
<title>packages/UI/view&#45;parameters/src/piano&#45;roll/piano&#45;roll&#45;constants.ts</title>
<g id="a_node14"><a xlink:href="packages/UI/view-parameters/src/piano-roll/piano-roll-constants.ts" xlink:title="piano&#45;roll&#45;constants.ts">
<path fill="#ddfeff" stroke="black" d="M781,-178C781,-178 676,-178 676,-178 673,-178 670,-175 670,-172 670,-172 670,-166 670,-166 670,-163 673,-160 676,-160 676,-160 781,-160 781,-160 784,-160 787,-163 787,-166 787,-166 787,-172 787,-172 787,-175 784,-178 781,-178"/>
<text text-anchor="start" x="678" y="-166.8" font-family="Helvetica,sans-Serif" font-size="9.00">piano&#45;roll&#45;constants.ts</text>
</a>
</g>
</g>
<!-- packages/UI/view&#45;parameters/src/piano&#45;roll/index.ts&#45;&gt;packages/UI/view&#45;parameters/src/piano&#45;roll/piano&#45;roll&#45;constants.ts -->
<g id="edge19" class="edge">
<title>packages/UI/view&#45;parameters/src/piano&#45;roll/index.ts&#45;&gt;packages/UI/view&#45;parameters/src/piano&#45;roll/piano&#45;roll&#45;constants.ts</title>
<path fill="none" stroke="#000000" stroke-opacity="0.200000" d="M492.03,-154.59C531.95,-157.04 609.47,-161.78 664.65,-165.15"/>
<polygon fill="#000000" fill-opacity="0.200000" stroke="#000000" stroke-opacity="0.200000" points="669.81,-167.22 664.92,-165.17 670.02,-163.73 669.81,-167.22"/>
</g>
<!-- packages/UI/view&#45;parameters/src/piano&#45;roll/piano&#45;roll&#45;end.ts -->
<g id="node15" class="node">
<title>packages/UI/view&#45;parameters/src/piano&#45;roll/piano&#45;roll&#45;end.ts</title>
<g id="a_node15"><a xlink:href="packages/UI/view-parameters/src/piano-roll/piano-roll-end.ts" xlink:title="piano&#45;roll&#45;end.ts">
<path fill="#ddfeff" stroke="black" d="M888,-140C888,-140 810,-140 810,-140 807,-140 804,-137 804,-134 804,-134 804,-128 804,-128 804,-125 807,-122 810,-122 810,-122 888,-122 888,-122 891,-122 894,-125 894,-128 894,-128 894,-134 894,-134 894,-137 891,-140 888,-140"/>
<text text-anchor="start" x="812" y="-128.8" font-family="Helvetica,sans-Serif" font-size="9.00">piano&#45;roll&#45;end.ts</text>
</a>
</g>
</g>
<!-- packages/UI/view&#45;parameters/src/piano&#45;roll/index.ts&#45;&gt;packages/UI/view&#45;parameters/src/piano&#45;roll/piano&#45;roll&#45;end.ts -->
<g id="edge20" class="edge">
<title>packages/UI/view&#45;parameters/src/piano&#45;roll/index.ts&#45;&gt;packages/UI/view&#45;parameters/src/piano&#45;roll/piano&#45;roll&#45;end.ts</title>
<path fill="none" stroke="#000000" stroke-opacity="0.200000" d="M492.26,-151.49C555.43,-147.85 716.72,-138.56 798.65,-133.84"/>
<polygon fill="#000000" fill-opacity="0.200000" stroke="#000000" stroke-opacity="0.200000" points="804.03,-135.29 798.93,-133.83 803.83,-131.79 804.03,-135.29"/>
</g>
<!-- packages/UI/view&#45;parameters/src/piano&#45;roll/piano&#45;roll&#45;height.ts -->
<g id="node16" class="node">
<title>packages/UI/view&#45;parameters/src/piano&#45;roll/piano&#45;roll&#45;height.ts</title>
<g id="a_node16"><a xlink:href="packages/UI/view-parameters/src/piano-roll/piano-roll-height.ts" xlink:title="piano&#45;roll&#45;height.ts">
<path fill="#ddfeff" stroke="black" d="M639.5,-120C639.5,-120 549.5,-120 549.5,-120 546.5,-120 543.5,-117 543.5,-114 543.5,-114 543.5,-108 543.5,-108 543.5,-105 546.5,-102 549.5,-102 549.5,-102 639.5,-102 639.5,-102 642.5,-102 645.5,-105 645.5,-108 645.5,-108 645.5,-114 645.5,-114 645.5,-117 642.5,-120 639.5,-120"/>
<text text-anchor="start" x="551.5" y="-108.8" font-family="Helvetica,sans-Serif" font-size="9.00">piano&#45;roll&#45;height.ts</text>
</a>
</g>
</g>
<!-- packages/UI/view&#45;parameters/src/piano&#45;roll/index.ts&#45;&gt;packages/UI/view&#45;parameters/src/piano&#45;roll/piano&#45;roll&#45;height.ts -->
<g id="edge21" class="edge">
<title>packages/UI/view&#45;parameters/src/piano&#45;roll/index.ts&#45;&gt;packages/UI/view&#45;parameters/src/piano&#45;roll/piano&#45;roll&#45;height.ts</title>
<path fill="none" stroke="#000000" stroke-opacity="0.200000" d="M492.19,-146.58C505.54,-143.3 519,-140 519,-140 519,-140 532,-129 532,-129 532,-129 544.01,-125.49 557.41,-121.56"/>
<polygon fill="#000000" fill-opacity="0.200000" stroke="#000000" stroke-opacity="0.200000" points="562.88,-121.79 557.59,-121.51 561.9,-118.43 562.88,-121.79"/>
</g>
<!-- packages/UI/view&#45;parameters/src/piano&#45;roll/piano&#45;roll&#45;ratio.ts -->
<g id="node17" class="node">
<title>packages/UI/view&#45;parameters/src/piano&#45;roll/piano&#45;roll&#45;ratio.ts</title>
<g id="a_node17"><a xlink:href="packages/UI/view-parameters/src/piano-roll/piano-roll-ratio.ts" xlink:title="piano&#45;roll&#45;ratio.ts">
<path fill="#ddfeff" stroke="black" d="M769,-208C769,-208 688,-208 688,-208 685,-208 682,-205 682,-202 682,-202 682,-196 682,-196 682,-193 685,-190 688,-190 688,-190 769,-190 769,-190 772,-190 775,-193 775,-196 775,-196 775,-202 775,-202 775,-205 772,-208 769,-208"/>
<text text-anchor="start" x="690" y="-196.8" font-family="Helvetica,sans-Serif" font-size="9.00">piano&#45;roll&#45;ratio.ts</text>
</a>
</g>
</g>
<!-- packages/UI/view&#45;parameters/src/piano&#45;roll/index.ts&#45;&gt;packages/UI/view&#45;parameters/src/piano&#45;roll/piano&#45;roll&#45;ratio.ts -->
<g id="edge22" class="edge">
<title>packages/UI/view&#45;parameters/src/piano&#45;roll/index.ts&#45;&gt;packages/UI/view&#45;parameters/src/piano&#45;roll/piano&#45;roll&#45;ratio.ts</title>
<path fill="none" stroke="#000000" stroke-opacity="0.200000" d="M492.08,-157.35C510.53,-160.42 532,-164 532,-164 532,-164 657,-184 657,-184 657,-184 667.14,-186.16 679.74,-188.84"/>
<polygon fill="#000000" fill-opacity="0.200000" stroke="#000000" stroke-opacity="0.200000" points="684.5,-191.64 679.97,-188.89 685.23,-188.22 684.5,-191.64"/>
</g>
<!-- packages/UI/view&#45;parameters/src/piano&#45;roll/piano&#45;roll&#45;time&#45;length.ts -->
<g id="node18" class="node">
<title>packages/UI/view&#45;parameters/src/piano&#45;roll/piano&#45;roll&#45;time&#45;length.ts</title>
<g id="a_node18"><a xlink:href="packages/UI/view-parameters/src/piano-roll/piano-roll-time-length.ts" xlink:title="piano&#45;roll&#45;time&#45;length.ts">
<path fill="#ddfeff" stroke="black" d="M651,-208C651,-208 538,-208 538,-208 535,-208 532,-205 532,-202 532,-202 532,-196 532,-196 532,-193 535,-190 538,-190 538,-190 651,-190 651,-190 654,-190 657,-193 657,-196 657,-196 657,-202 657,-202 657,-205 654,-208 651,-208"/>
<text text-anchor="start" x="540" y="-196.8" font-family="Helvetica,sans-Serif" font-size="9.00">piano&#45;roll&#45;time&#45;length.ts</text>
</a>
</g>
</g>
<!-- packages/UI/view&#45;parameters/src/piano&#45;roll/index.ts&#45;&gt;packages/UI/view&#45;parameters/src/piano&#45;roll/piano&#45;roll&#45;time&#45;length.ts -->
<g id="edge23" class="edge">
<title>packages/UI/view&#45;parameters/src/piano&#45;roll/index.ts&#45;&gt;packages/UI/view&#45;parameters/src/piano&#45;roll/piano&#45;roll&#45;time&#45;length.ts</title>
<path fill="none" stroke="#000000" stroke-opacity="0.200000" d="M492.19,-159.42C505.54,-162.7 519,-166 519,-166 519,-166 532,-181 532,-181 532,-181 544.01,-184.51 557.41,-188.44"/>
<polygon fill="#000000" fill-opacity="0.200000" stroke="#000000" stroke-opacity="0.200000" points="561.9,-191.57 557.59,-188.49 562.88,-188.21 561.9,-191.57"/>
</g>
<!-- packages/UI/view&#45;parameters/src/piano&#45;roll/piano&#45;roll&#45;width.ts -->
<g id="node19" class="node">
<title>packages/UI/view&#45;parameters/src/piano&#45;roll/piano&#45;roll&#45;width.ts</title>
<g id="a_node19"><a xlink:href="packages/UI/view-parameters/src/piano-roll/piano-roll-width.ts" xlink:title="piano&#45;roll&#45;width.ts">
<path fill="#ddfeff" stroke="black" d="M892,-174C892,-174 806,-174 806,-174 803,-174 800,-171 800,-168 800,-168 800,-162 800,-162 800,-159 803,-156 806,-156 806,-156 892,-156 892,-156 895,-156 898,-159 898,-162 898,-162 898,-168 898,-168 898,-171 895,-174 892,-174"/>
<text text-anchor="start" x="808" y="-162.8" font-family="Helvetica,sans-Serif" font-size="9.00">piano&#45;roll&#45;width.ts</text>
</a>
</g>
</g>
<!-- packages/UI/view&#45;parameters/src/piano&#45;roll/index.ts&#45;&gt;packages/UI/view&#45;parameters/src/piano&#45;roll/piano&#45;roll&#45;width.ts -->
<g id="edge24" class="edge">
<title>packages/UI/view&#45;parameters/src/piano&#45;roll/index.ts&#45;&gt;packages/UI/view&#45;parameters/src/piano&#45;roll/piano&#45;roll&#45;width.ts</title>
<path fill="none" stroke="#000000" stroke-opacity="0.200000" d="M492.27,-153.08C568.93,-153.32 787,-154 787,-154 787,-154 790.02,-154.55 794.73,-155.39"/>
<polygon fill="#000000" fill-opacity="0.200000" stroke="#000000" stroke-opacity="0.200000" points="799.63,-158.06 795.02,-155.45 800.25,-154.61 799.63,-158.06"/>
</g>
<!-- packages/UI/view&#45;parameters/src/note&#45;size.ts&#45;&gt;packages/UI/view&#45;parameters/src/piano&#45;roll/index.ts -->
<g id="edge14" class="edge">
<title>packages/UI/view&#45;parameters/src/note&#45;size.ts&#45;&gt;packages/UI/view&#45;parameters/src/piano&#45;roll/index.ts</title>
<path fill="none" stroke="#000000" stroke-opacity="0.200000" d="M382.25,-116.07C393.31,-119.23 403,-122 403,-122 403,-122 411,-140 411,-140 411,-140 421.3,-142.53 432.82,-145.35"/>
<polygon fill="#000000" fill-opacity="0.200000" stroke="#000000" stroke-opacity="0.200000" points="437.81,-146.58 432.42,-147.57 435.38,-145.98 432.95,-145.38 432.95,-145.38 432.95,-145.38 435.38,-145.98 433.49,-143.2 437.81,-146.58 437.81,-146.58"/>
</g>
<!-- packages/UI/view&#45;parameters/src/piano&#45;roll&#45;translate&#45;x.ts&#45;&gt;packages/UI/view&#45;parameters/src/current&#45;time&#45;x.ts -->
<g id="edge15" class="edge">
<title>packages/UI/view&#45;parameters/src/piano&#45;roll&#45;translate&#45;x.ts&#45;&gt;packages/UI/view&#45;parameters/src/current&#45;time&#45;x.ts</title>
<path fill="none" stroke="#000000" stroke-opacity="0.200000" d="M270.12,-94.93C280.92,-92.46 292.69,-89.77 303.76,-87.24"/>
<polygon fill="#000000" fill-opacity="0.200000" stroke="#000000" stroke-opacity="0.200000" points="308.78,-86.09 304.41,-89.4 306.35,-86.65 303.91,-87.2 303.91,-87.2 303.91,-87.2 306.35,-86.65 303.41,-85.01 308.78,-86.09 308.78,-86.09"/>
</g>
<!-- packages/UI/view&#45;parameters/src/piano&#45;roll&#45;translate&#45;x.ts&#45;&gt;packages/UI/view&#45;parameters/src/note&#45;size.ts -->
<g id="edge16" class="edge">
<title>packages/UI/view&#45;parameters/src/piano&#45;roll&#45;translate&#45;x.ts&#45;&gt;packages/UI/view&#45;parameters/src/note&#45;size.ts</title>
<path fill="none" stroke="#000000" stroke-opacity="0.200000" d="M290.19,-105.52C296.98,-105.69 303.76,-105.86 310.16,-106.03"/>
<polygon fill="#000000" fill-opacity="0.200000" stroke="#000000" stroke-opacity="0.200000" points="315.44,-106.16 310.39,-108.28 312.94,-106.1 310.45,-106.03 310.45,-106.03 310.45,-106.03 312.94,-106.1 310.5,-103.78 315.44,-106.16 315.44,-106.16"/>
</g>
<!-- packages/UI/view&#45;parameters/src/piano&#45;roll&#45;translate&#45;x.ts&#45;&gt;packages/UI/view&#45;parameters/src/now&#45;at.ts -->
<g id="edge17" class="edge">
<title>packages/UI/view&#45;parameters/src/piano&#45;roll&#45;translate&#45;x.ts&#45;&gt;packages/UI/view&#45;parameters/src/now&#45;at.ts</title>
<path fill="none" stroke="#000000" stroke-opacity="0.200000" d="M262.74,-113.02C278.95,-117.55 298.56,-123.03 314.94,-127.62"/>
<polygon fill="#000000" fill-opacity="0.200000" stroke="#000000" stroke-opacity="0.200000" points="319.92,-129.01 314.5,-129.83 317.51,-128.33 315.1,-127.66 315.1,-127.66 315.1,-127.66 317.51,-128.33 315.71,-125.49 319.92,-129.01 319.92,-129.01"/>
</g>
<!-- packages/UI/view&#45;parameters/src/piano&#45;roll/octave&#45;count.ts&#45;&gt;packages/UI/view&#45;parameters/src/piano&#45;roll/piano&#45;roll&#45;begin.ts -->
<g id="edge25" class="edge">
<title>packages/UI/view&#45;parameters/src/piano&#45;roll/octave&#45;count.ts&#45;&gt;packages/UI/view&#45;parameters/src/piano&#45;roll/piano&#45;roll&#45;begin.ts</title>
<path fill="none" stroke="#000000" stroke-opacity="0.200000" d="M772.28,-107.03C779.5,-106.36 787.07,-105.66 794.52,-104.96"/>
<polygon fill="#000000" fill-opacity="0.200000" stroke="#000000" stroke-opacity="0.200000" points="799.65,-104.49 794.88,-107.19 797.16,-104.72 794.67,-104.95 794.67,-104.95 794.67,-104.95 797.16,-104.72 794.47,-102.71 799.65,-104.49 799.65,-104.49"/>
</g>
<!-- packages/UI/view&#45;parameters/src/piano&#45;roll/octave&#45;count.ts&#45;&gt;packages/UI/view&#45;parameters/src/piano&#45;roll/piano&#45;roll&#45;end.ts -->
<g id="edge26" class="edge">
<title>packages/UI/view&#45;parameters/src/piano&#45;roll/octave&#45;count.ts&#45;&gt;packages/UI/view&#45;parameters/src/piano&#45;roll/piano&#45;roll&#45;end.ts</title>
<path fill="none" stroke="#000000" stroke-opacity="0.200000" d="M772.28,-118.22C780.74,-119.65 789.68,-121.16 798.34,-122.62"/>
<polygon fill="#000000" fill-opacity="0.200000" stroke="#000000" stroke-opacity="0.200000" points="803.69,-123.52 798.38,-124.91 801.22,-123.1 798.76,-122.69 798.76,-122.69 798.76,-122.69 801.22,-123.1 799.13,-120.47 803.69,-123.52 803.69,-123.52"/>
</g>
<!-- packages/UI/view&#45;parameters/src/position/black&#45;position.ts -->
<g id="node21" class="node">
<title>packages/UI/view&#45;parameters/src/position/black&#45;position.ts</title>
<g id="a_node21"><a xlink:href="packages/UI/view-parameters/src/position/black-position.ts" xlink:title="black&#45;position.ts">
<path fill="#ddfeff" stroke="black" d="M388.5,-208C388.5,-208 310.5,-208 310.5,-208 307.5,-208 304.5,-205 304.5,-202 304.5,-202 304.5,-196 304.5,-196 304.5,-193 307.5,-190 310.5,-190 310.5,-190 388.5,-190 388.5,-190 391.5,-190 394.5,-193 394.5,-196 394.5,-196 394.5,-202 394.5,-202 394.5,-205 391.5,-208 388.5,-208"/>
<text text-anchor="start" x="312.5" y="-196.8" font-family="Helvetica,sans-Serif" font-size="9.00">black&#45;position.ts</text>
</a>
</g>
</g>
<!-- packages/UI/view&#45;parameters/src/position/index.ts&#45;&gt;packages/UI/view&#45;parameters/src/position/black&#45;position.ts -->
<g id="edge36" class="edge">
<title>packages/UI/view&#45;parameters/src/position/index.ts&#45;&gt;packages/UI/view&#45;parameters/src/position/black&#45;position.ts</title>
<path fill="none" stroke="#000000" stroke-opacity="0.200000" d="M256.69,-199C269.15,-199 284.46,-199 298.99,-199"/>
<polygon fill="#000000" fill-opacity="0.200000" stroke="#000000" stroke-opacity="0.200000" points="304.3,-200.75 299.3,-199 304.3,-197.25 304.3,-200.75"/>
</g>
<!-- packages/UI/view&#45;parameters/src/position/white&#45;position.ts -->
<g id="node23" class="node">
<title>packages/UI/view&#45;parameters/src/position/white&#45;position.ts</title>
<g id="a_node23"><a xlink:href="packages/UI/view-parameters/src/position/white-position.ts" xlink:title="white&#45;position.ts">
<path fill="#ddfeff" stroke="black" d="M389,-238C389,-238 310,-238 310,-238 307,-238 304,-235 304,-232 304,-232 304,-226 304,-226 304,-223 307,-220 310,-220 310,-220 389,-220 389,-220 392,-220 395,-223 395,-226 395,-226 395,-232 395,-232 395,-235 392,-238 389,-238"/>
<text text-anchor="start" x="312" y="-226.8" font-family="Helvetica,sans-Serif" font-size="9.00">white&#45;position.ts</text>
</a>
</g>
</g>
<!-- packages/UI/view&#45;parameters/src/position/index.ts&#45;&gt;packages/UI/view&#45;parameters/src/position/white&#45;position.ts -->
<g id="edge37" class="edge">
<title>packages/UI/view&#45;parameters/src/position/index.ts&#45;&gt;packages/UI/view&#45;parameters/src/position/white&#45;position.ts</title>
<path fill="none" stroke="#000000" stroke-opacity="0.200000" d="M256.77,-204.74C272.71,-208.22 290,-212 290,-212 290,-212 300.35,-215.01 312.35,-218.5"/>
<polygon fill="#000000" fill-opacity="0.200000" stroke="#000000" stroke-opacity="0.200000" points="316.71,-221.58 312.39,-218.51 317.68,-218.22 316.71,-221.58"/>
</g>
<!-- packages/UI/view&#45;parameters/src/piano&#45;roll/piano&#45;roll&#45;constants.ts&#45;&gt;packages/UI/view&#45;parameters/src/rect&#45;parameter.ts -->
<g id="edge27" class="edge">
<title>packages/UI/view&#45;parameters/src/piano&#45;roll/piano&#45;roll&#45;constants.ts&#45;&gt;packages/UI/view&#45;parameters/src/rect&#45;parameter.ts</title>
<path fill="none" stroke="#000000" stroke-opacity="0.200000" d="M764.27,-178.07C776.38,-181.23 787,-184 787,-184 787,-184 800,-237 800,-237 800,-237 811.19,-241.89 822.76,-246.96"/>
<polygon fill="#000000" fill-opacity="0.200000" stroke="#000000" stroke-opacity="0.200000" points="827.37,-248.97 821.88,-249.03 825.07,-247.97 822.78,-246.97 822.78,-246.97 822.78,-246.97 825.07,-247.97 823.69,-244.91 827.37,-248.97 827.37,-248.97"/>
</g>
<!-- packages/UI/view&#45;parameters/src/piano&#45;roll/piano&#45;roll&#45;constants.ts&#45;&gt;packages/UI/view&#45;parameters/src/piano&#45;roll/piano&#45;roll&#45;width.ts -->
<g id="edge28" class="edge">
<title>packages/UI/view&#45;parameters/src/piano&#45;roll/piano&#45;roll&#45;constants.ts&#45;&gt;packages/UI/view&#45;parameters/src/piano&#45;roll/piano&#45;roll&#45;width.ts</title>
<path fill="none" stroke="#000000" stroke-opacity="0.200000" d="M787.01,-167.06C789.54,-166.97 792.06,-166.89 794.57,-166.8"/>
<polygon fill="#000000" fill-opacity="0.200000" stroke="#000000" stroke-opacity="0.200000" points="799.7,-166.63 794.78,-169.05 797.2,-166.71 794.7,-166.8 794.7,-166.8 794.7,-166.8 797.2,-166.71 794.63,-164.55 799.7,-166.63 799.7,-166.63"/>
</g>
<!-- packages/UI/view&#45;parameters/src/piano&#45;roll/piano&#45;roll&#45;height.ts&#45;&gt;packages/UI/view&#45;parameters/src/piano&#45;roll/octave&#45;count.ts -->
<g id="edge29" class="edge">
<title>packages/UI/view&#45;parameters/src/piano&#45;roll/piano&#45;roll&#45;height.ts&#45;&gt;packages/UI/view&#45;parameters/src/piano&#45;roll/octave&#45;count.ts</title>
<path fill="none" stroke="#000000" stroke-opacity="0.200000" d="M645.78,-111C656.9,-111 668.65,-111 679.67,-111"/>
<polygon fill="#000000" fill-opacity="0.200000" stroke="#000000" stroke-opacity="0.200000" points="684.68,-111 679.68,-113.25 682.18,-111 679.68,-111 679.68,-111 679.68,-111 682.18,-111 679.68,-108.75 684.68,-111 684.68,-111"/>
</g>
<!-- packages/UI/view&#45;parameters/src/piano&#45;roll/piano&#45;roll&#45;height.ts&#45;&gt;packages/UI/view&#45;parameters/src/piano&#45;roll/piano&#45;roll&#45;constants.ts -->
<g id="edge30" class="edge">
<title>packages/UI/view&#45;parameters/src/piano&#45;roll/piano&#45;roll&#45;height.ts&#45;&gt;packages/UI/view&#45;parameters/src/piano&#45;roll/piano&#45;roll&#45;constants.ts</title>
<path fill="none" stroke="#000000" stroke-opacity="0.200000" d="M616.12,-120.06C639.24,-130.22 676.74,-146.7 701.76,-157.69"/>
<polygon fill="#000000" fill-opacity="0.200000" stroke="#000000" stroke-opacity="0.200000" points="706.58,-159.81 701.1,-159.86 704.3,-158.8 702.01,-157.8 702.01,-157.8 702.01,-157.8 704.3,-158.8 702.91,-155.74 706.58,-159.81 706.58,-159.81"/>
</g>
<!-- packages/UI/view&#45;parameters/src/piano&#45;roll/piano&#45;roll&#45;time&#45;length.ts&#45;&gt;packages/UI/view&#45;parameters/src/song&#45;length.ts -->
<g id="edge31" class="edge">
<title>packages/UI/view&#45;parameters/src/piano&#45;roll/piano&#45;roll&#45;time&#45;length.ts&#45;&gt;packages/UI/view&#45;parameters/src/song&#45;length.ts</title>
<path fill="none" stroke="#000000" stroke-opacity="0.200000" d="M638.21,-208.03C648.71,-210.25 657,-212 657,-212 657,-212 670,-237 670,-237 670,-237 676.63,-238.61 685.38,-240.74"/>
<polygon fill="#000000" fill-opacity="0.200000" stroke="#000000" stroke-opacity="0.200000" points="690.43,-241.98 685.04,-242.98 688.01,-241.38 685.58,-240.79 685.58,-240.79 685.58,-240.79 688.01,-241.38 686.11,-238.61 690.43,-241.98 690.43,-241.98"/>
</g>
<!-- packages/UI/view&#45;parameters/src/piano&#45;roll/piano&#45;roll&#45;time&#45;length.ts&#45;&gt;packages/UI/view&#45;parameters/src/piano&#45;roll/piano&#45;roll&#45;ratio.ts -->
<g id="edge32" class="edge">
<title>packages/UI/view&#45;parameters/src/piano&#45;roll/piano&#45;roll&#45;time&#45;length.ts&#45;&gt;packages/UI/view&#45;parameters/src/piano&#45;roll/piano&#45;roll&#45;ratio.ts</title>
<path fill="none" stroke="#000000" stroke-opacity="0.200000" d="M657.25,-199C663.75,-199 670.3,-199 676.66,-199"/>
<polygon fill="#000000" fill-opacity="0.200000" stroke="#000000" stroke-opacity="0.200000" points="681.95,-199 676.95,-201.25 679.45,-199 676.95,-199 676.95,-199 676.95,-199 679.45,-199 676.95,-196.75 681.95,-199 681.95,-199"/>
</g>
<!-- packages/UI/view&#45;parameters/src/piano&#45;roll/windowInnerWidth.ts -->
<g id="node20" class="node">
<title>packages/UI/view&#45;parameters/src/piano&#45;roll/windowInnerWidth.ts</title>
<g id="a_node20"><a xlink:href="packages/UI/view-parameters/src/piano-roll/windowInnerWidth.ts" xlink:title="windowInnerWidth.ts">
<path fill="#ddfeff" stroke="black" d="M1018,-174C1018,-174 917,-174 917,-174 914,-174 911,-171 911,-168 911,-168 911,-162 911,-162 911,-159 914,-156 917,-156 917,-156 1018,-156 1018,-156 1021,-156 1024,-159 1024,-162 1024,-162 1024,-168 1024,-168 1024,-171 1021,-174 1018,-174"/>
<text text-anchor="start" x="919" y="-162.8" font-family="Helvetica,sans-Serif" font-size="9.00">windowInnerWidth.ts</text>
</a>
</g>
</g>
<!-- packages/UI/view&#45;parameters/src/piano&#45;roll/piano&#45;roll&#45;width.ts&#45;&gt;packages/UI/view&#45;parameters/src/piano&#45;roll/windowInnerWidth.ts -->
<g id="edge33" class="edge">
<title>packages/UI/view&#45;parameters/src/piano&#45;roll/piano&#45;roll&#45;width.ts&#45;&gt;packages/UI/view&#45;parameters/src/piano&#45;roll/windowInnerWidth.ts</title>
<path fill="none" stroke="#000000" stroke-opacity="0.200000" d="M898.06,-165C900.59,-165 903.15,-165 905.71,-165"/>
<polygon fill="#000000" fill-opacity="0.200000" stroke="#000000" stroke-opacity="0.200000" points="910.97,-165 905.97,-167.25 908.47,-165 905.97,-165 905.97,-165 905.97,-165 908.47,-165 905.97,-162.75 910.97,-165 910.97,-165"/>
</g>
<!-- packages/UI/view&#45;parameters/src/position/black&#45;position.ts&#45;&gt;packages/UI/view&#45;parameters/src/piano&#45;roll/index.ts -->
<g id="edge34" class="edge">
<title>packages/UI/view&#45;parameters/src/position/black&#45;position.ts&#45;&gt;packages/UI/view&#45;parameters/src/piano&#45;roll/index.ts</title>
<path fill="none" stroke="#000000" stroke-opacity="0.200000" d="M386.96,-189.97C395.92,-187.75 403,-186 403,-186 403,-186 411,-166 411,-166 411,-166 421.3,-163.47 432.82,-160.65"/>
<polygon fill="#000000" fill-opacity="0.200000" stroke="#000000" stroke-opacity="0.200000" points="437.81,-159.42 433.49,-162.8 435.38,-160.02 432.95,-160.62 432.95,-160.62 432.95,-160.62 435.38,-160.02 432.42,-158.43 437.81,-159.42 437.81,-159.42"/>
</g>
<!-- packages/util/math/dist/index.js -->
<g id="node22" class="node">
<title>packages/util/math/dist/index.js</title>
<g id="a_node22"><a xlink:href="packages/util/math/dist/index.js" xlink:title="index.js">
<polygon fill="#ffffcc" stroke="black" points="492,-402 490.5,-404 480,-404 478.5,-402 438,-402 438,-384 492,-384 492,-402"/>
<text text-anchor="start" x="447.5" y="-390.8" font-family="Helvetica,sans-Serif" font-size="9.00">index.js</text>
</a>
</g>
</g>
<!-- packages/UI/view&#45;parameters/src/position/black&#45;position.ts&#45;&gt;packages/util/math/dist/index.js -->
<g id="edge35" class="edge">
<title>packages/UI/view&#45;parameters/src/position/black&#45;position.ts&#45;&gt;packages/util/math/dist/index.js</title>
<path fill="none" stroke="#000000" stroke-opacity="0.200000" d="M382.25,-208.07C393.31,-211.23 403,-214 403,-214 403,-214 411,-303 411,-303 411,-303 441.12,-354.15 455.95,-379.33"/>
<polygon fill="#000000" fill-opacity="0.200000" stroke="#000000" stroke-opacity="0.200000" points="458.53,-383.71 454.05,-380.54 457.26,-381.55 455.99,-379.4 455.99,-379.4 455.99,-379.4 457.26,-381.55 457.93,-378.26 458.53,-383.71 458.53,-383.71"/>
</g>
<!-- packages/UI/view&#45;parameters/src/position/white&#45;position.ts&#45;&gt;packages/UI/view&#45;parameters/src/piano&#45;roll/index.ts -->
<g id="edge38" class="edge">
<title>packages/UI/view&#45;parameters/src/position/white&#45;position.ts&#45;&gt;packages/UI/view&#45;parameters/src/piano&#45;roll/index.ts</title>
<path fill="none" stroke="#000000" stroke-opacity="0.200000" d="M382.25,-219.93C393.31,-216.77 403,-214 403,-214 403,-214 411,-166 411,-166 411,-166 421.3,-163.47 432.82,-160.65"/>
<polygon fill="#000000" fill-opacity="0.200000" stroke="#000000" stroke-opacity="0.200000" points="437.81,-159.42 433.49,-162.8 435.38,-160.02 432.95,-160.62 432.95,-160.62 432.95,-160.62 435.38,-160.02 432.42,-158.43 437.81,-159.42 437.81,-159.42"/>
</g>
<!-- packages/UI/view&#45;parameters/src/position/white&#45;position.ts&#45;&gt;packages/util/math/dist/index.js -->
<g id="edge39" class="edge">
<title>packages/UI/view&#45;parameters/src/position/white&#45;position.ts&#45;&gt;packages/util/math/dist/index.js</title>
<path fill="none" stroke="#000000" stroke-opacity="0.200000" d="M356.93,-238.29C375.97,-265.8 432.15,-346.97 454.59,-379.4"/>
<polygon fill="#000000" fill-opacity="0.200000" stroke="#000000" stroke-opacity="0.200000" points="457.64,-383.81 452.95,-380.98 456.22,-381.76 454.8,-379.7 454.8,-379.7 454.8,-379.7 456.22,-381.76 456.65,-378.42 457.64,-383.81 457.64,-383.81"/>
</g>
</g>
</svg>
