<?xml version="1.0" encoding="UTF-8" standalone="no"?>
<!DOCTYPE svg PUBLIC "-//W3C//DTD SVG 1.1//EN"
 "http://www.w3.org/Graphics/SVG/1.1/DTD/svg11.dtd">
<!-- Generated by graphviz version 2.43.0 (0)
 -->
<!-- Title: dependency&#45;cruiser output Pages: 1 -->
<svg width="818pt" height="702pt"
 viewBox="0.00 0.00 818.00 702.00" xmlns="http://www.w3.org/2000/svg" xmlns:xlink="http://www.w3.org/1999/xlink">
<g id="graph0" class="graph" transform="scale(1 1) rotate(0) translate(4 698)">
<title>dependency&#45;cruiser output</title>
<polygon fill="white" stroke="transparent" points="-4,4 -4,-698 814,-698 814,4 -4,4"/>
<g id="clust1" class="cluster">
<title>cluster_packages</title>
<path fill="#ffffff" stroke="black" stroke-width="2" d="M20,-8C20,-8 790,-8 790,-8 796,-8 802,-14 802,-20 802,-20 802,-674 802,-674 802,-680 796,-686 790,-686 790,-686 20,-686 20,-686 14,-686 8,-680 8,-674 8,-674 8,-20 8,-20 8,-14 14,-8 20,-8"/>
<text text-anchor="middle" x="405" y="-674.8" font-family="Helvetica,sans-Serif" font-weight="bold" font-size="9.00">packages</text>
</g>
<g id="clust2" class="cluster">
<title>cluster_packages/UI</title>
<path fill="#ffffff" stroke="black" stroke-width="2" d="M28,-16C28,-16 782,-16 782,-16 788,-16 794,-22 794,-28 794,-28 794,-486 794,-486 794,-492 788,-498 782,-498 782,-498 28,-498 28,-498 22,-498 16,-492 16,-486 16,-486 16,-28 16,-28 16,-22 22,-16 28,-16"/>
<text text-anchor="middle" x="405" y="-486.8" font-family="Helvetica,sans-Serif" font-weight="bold" font-size="9.00">UI</text>
</g>
<g id="clust3" class="cluster">
<title>cluster_packages/UI/view&#45;parameters</title>
<path fill="#ffffff" stroke="black" stroke-width="2" d="M36,-24C36,-24 774,-24 774,-24 780,-24 786,-30 786,-36 786,-36 786,-460 786,-460 786,-466 780,-472 774,-472 774,-472 36,-472 36,-472 30,-472 24,-466 24,-460 24,-460 24,-36 24,-36 24,-30 30,-24 36,-24"/>
<text text-anchor="middle" x="405" y="-460.8" font-family="Helvetica,sans-Serif" font-weight="bold" font-size="9.00">view&#45;parameters</text>
</g>
<g id="clust4" class="cluster">
<title>cluster_packages/UI/view&#45;parameters/src</title>
<path fill="#ffffff" stroke="black" stroke-width="2" d="M44,-32C44,-32 766,-32 766,-32 772,-32 778,-38 778,-44 778,-44 778,-434 778,-434 778,-440 772,-446 766,-446 766,-446 44,-446 44,-446 38,-446 32,-440 32,-434 32,-434 32,-44 32,-44 32,-38 38,-32 44,-32"/>
<text text-anchor="middle" x="405" y="-434.8" font-family="Helvetica,sans-Serif" font-weight="bold" font-size="9.00">src</text>
</g>
<g id="clust5" class="cluster">
<title>cluster_packages/UI/view&#45;parameters/src/piano&#45;roll</title>
<path fill="#ffffff" stroke="black" stroke-width="2" d="M262,-72C262,-72 758,-72 758,-72 764,-72 770,-78 770,-84 770,-84 770,-292 770,-292 770,-298 764,-304 758,-304 758,-304 262,-304 262,-304 256,-304 250,-298 250,-292 250,-292 250,-84 250,-84 250,-78 256,-72 262,-72"/>
<text text-anchor="middle" x="510" y="-292.8" font-family="Helvetica,sans-Serif" font-weight="bold" font-size="9.00">piano&#45;roll</text>
</g>
<g id="clust6" class="cluster">
<title>cluster_packages/UI/view&#45;parameters/src/piano&#45;roll/rect&#45;parameters</title>
<path fill="#ffffff" stroke="black" stroke-width="2" d="M288.5,-80C288.5,-80 470,-80 470,-80 476,-80 482,-86 482,-92 482,-92 482,-210 482,-210 482,-216 476,-222 470,-222 470,-222 288.5,-222 288.5,-222 282.5,-222 276.5,-216 276.5,-210 276.5,-210 276.5,-92 276.5,-92 276.5,-86 282.5,-80 288.5,-80"/>
<text text-anchor="middle" x="379.25" y="-210.8" font-family="Helvetica,sans-Serif" font-weight="bold" font-size="9.00">rect&#45;parameters</text>
</g>
<g id="clust7" class="cluster">
<title>cluster_packages/UI/view&#45;parameters/src/position</title>
<path fill="#ffffff" stroke="black" stroke-width="2" d="M523.5,-338C523.5,-338 606.5,-338 606.5,-338 612.5,-338 618.5,-344 618.5,-350 618.5,-350 618.5,-408 618.5,-408 618.5,-414 612.5,-420 606.5,-420 606.5,-420 523.5,-420 523.5,-420 517.5,-420 511.5,-414 511.5,-408 511.5,-408 511.5,-350 511.5,-350 511.5,-344 517.5,-338 523.5,-338"/>
<text text-anchor="middle" x="565" y="-408.8" font-family="Helvetica,sans-Serif" font-weight="bold" font-size="9.00">position</text>
</g>
<g id="clust8" class="cluster">
<title>cluster_packages/util</title>
<path fill="#ffffff" stroke="black" stroke-width="2" d="M649.5,-506C649.5,-506 762.5,-506 762.5,-506 768.5,-506 774.5,-512 774.5,-518 774.5,-518 774.5,-648 774.5,-648 774.5,-654 768.5,-660 762.5,-660 762.5,-660 649.5,-660 649.5,-660 643.5,-660 637.5,-654 637.5,-648 637.5,-648 637.5,-518 637.5,-518 637.5,-512 643.5,-506 649.5,-506"/>
<text text-anchor="middle" x="706" y="-648.8" font-family="Helvetica,sans-Serif" font-weight="bold" font-size="9.00">util</text>
</g>
<g id="clust9" class="cluster">
<title>cluster_packages/util/math</title>
<path fill="#ffffff" stroke="black" stroke-width="2" d="M657.5,-514C657.5,-514 754.5,-514 754.5,-514 760.5,-514 766.5,-520 766.5,-526 766.5,-526 766.5,-622 766.5,-622 766.5,-628 760.5,-634 754.5,-634 754.5,-634 657.5,-634 657.5,-634 651.5,-634 645.5,-628 645.5,-622 645.5,-622 645.5,-526 645.5,-526 645.5,-520 651.5,-514 657.5,-514"/>
<text text-anchor="middle" x="706" y="-622.8" font-family="Helvetica,sans-Serif" font-weight="bold" font-size="9.00">math</text>
</g>
<g id="clust10" class="cluster">
<title>cluster_packages/util/math/src</title>
<path fill="#ffffff" stroke="black" stroke-width="2" d="M665.5,-522C665.5,-522 746.5,-522 746.5,-522 752.5,-522 758.5,-528 758.5,-534 758.5,-534 758.5,-596 758.5,-596 758.5,-602 752.5,-608 746.5,-608 746.5,-608 665.5,-608 665.5,-608 659.5,-608 653.5,-602 653.5,-596 653.5,-596 653.5,-534 653.5,-534 653.5,-528 659.5,-522 665.5,-522"/>
<text text-anchor="middle" x="706" y="-596.8" font-family="Helvetica,sans-Serif" font-weight="bold" font-size="9.00">src</text>
</g>
<g id="clust11" class="cluster">
<title>cluster_packages/util/math/src/basic&#45;function</title>
<path fill="#ffffff" stroke="black" stroke-width="2" d="M673.5,-530C673.5,-530 738.5,-530 738.5,-530 744.5,-530 750.5,-536 750.5,-542 750.5,-542 750.5,-570 750.5,-570 750.5,-576 744.5,-582 738.5,-582 738.5,-582 673.5,-582 673.5,-582 667.5,-582 661.5,-576 661.5,-570 661.5,-570 661.5,-542 661.5,-542 661.5,-536 667.5,-530 673.5,-530"/>
<text text-anchor="middle" x="706" y="-570.8" font-family="Helvetica,sans-Serif" font-weight="bold" font-size="9.00">basic&#45;function</text>
</g>
<!-- packages/UI/view&#45;parameters/src/bracket&#45;height.ts -->
<g id="node1" class="node">
<title>packages/UI/view&#45;parameters/src/bracket&#45;height.ts</title>
<g id="a_node1"><a xlink:href="packages/UI/view-parameters/src/bracket-height.ts" xlink:title="no&#45;orphans">
<path fill="#ccffcc" stroke="orange" d="M142,-269C142,-269 59,-269 59,-269 56,-269 53,-266 53,-263 53,-263 53,-257 53,-257 53,-254 56,-251 59,-251 59,-251 142,-251 142,-251 145,-251 148,-254 148,-257 148,-257 148,-263 148,-263 148,-266 145,-269 142,-269"/>
<text text-anchor="start" x="61" y="-257.8" font-family="Helvetica,sans-Serif" font-size="9.00" fill="orange">bracket&#45;height.ts</text>
</a>
</g>
</g>
<!-- packages/UI/view&#45;parameters/src/current&#45;time&#45;ratio.ts -->
<g id="node2" class="node">
<title>packages/UI/view&#45;parameters/src/current&#45;time&#45;ratio.ts</title>
<g id="a_node2"><a xlink:href="packages/UI/view-parameters/src/current-time-ratio.ts" xlink:title="current&#45;time&#45;ratio.ts">
<path fill="#ddfeff" stroke="black" d="M613,-58C613,-58 517,-58 517,-58 514,-58 511,-55 511,-52 511,-52 511,-46 511,-46 511,-43 514,-40 517,-40 517,-40 613,-40 613,-40 616,-40 619,-43 619,-46 619,-46 619,-52 619,-52 619,-55 616,-58 613,-58"/>
<text text-anchor="start" x="519" y="-46.8" font-family="Helvetica,sans-Serif" font-size="9.00">current&#45;time&#45;ratio.ts</text>
</a>
</g>
</g>
<!-- packages/UI/view&#45;parameters/src/current&#45;time&#45;x.ts -->
<g id="node3" class="node">
<title>packages/UI/view&#45;parameters/src/current&#45;time&#45;x.ts</title>
<g id="a_node3"><a xlink:href="packages/UI/view-parameters/src/current-time-x.ts" xlink:title="current&#45;time&#45;x.ts">
<path fill="#ddfeff" stroke="black" d="M487.5,-58C487.5,-58 406.5,-58 406.5,-58 403.5,-58 400.5,-55 400.5,-52 400.5,-52 400.5,-46 400.5,-46 400.5,-43 403.5,-40 406.5,-40 406.5,-40 487.5,-40 487.5,-40 490.5,-40 493.5,-43 493.5,-46 493.5,-46 493.5,-52 493.5,-52 493.5,-55 490.5,-58 487.5,-58"/>
<text text-anchor="start" x="408.5" y="-46.8" font-family="Helvetica,sans-Serif" font-size="9.00">current&#45;time&#45;x.ts</text>
</a>
</g>
</g>
<!-- packages/UI/view&#45;parameters/src/current&#45;time&#45;x.ts&#45;&gt;packages/UI/view&#45;parameters/src/current&#45;time&#45;ratio.ts -->
<g id="edge1" class="edge">
<title>packages/UI/view&#45;parameters/src/current&#45;time&#45;x.ts&#45;&gt;packages/UI/view&#45;parameters/src/current&#45;time&#45;ratio.ts</title>
<path fill="none" stroke="#000000" stroke-width="2" stroke-opacity="0.200000" d="M493.51,-49C497.26,-49 501.08,-49 504.91,-49"/>
<polygon fill="#000000" fill-opacity="0.200000" stroke="#000000" stroke-width="2" stroke-opacity="0.200000" points="504.92,-51.1 510.92,-49 504.92,-46.9 504.92,-51.1"/>
</g>
<!-- packages/UI/view&#45;parameters/src/piano&#45;roll/piano&#45;roll&#45;width.ts -->
<g id="node4" class="node">
<title>packages/UI/view&#45;parameters/src/piano&#45;roll/piano&#45;roll&#45;width.ts</title>
<g id="a_node4"><a xlink:href="packages/UI/view-parameters/src/piano-roll/piano-roll-width.ts" xlink:title="piano&#45;roll&#45;width.ts">
<path fill="#ddfeff" stroke="black" d="M608,-98C608,-98 522,-98 522,-98 519,-98 516,-95 516,-92 516,-92 516,-86 516,-86 516,-83 519,-80 522,-80 522,-80 608,-80 608,-80 611,-80 614,-83 614,-86 614,-86 614,-92 614,-92 614,-95 611,-98 608,-98"/>
<text text-anchor="start" x="524" y="-86.8" font-family="Helvetica,sans-Serif" font-size="9.00">piano&#45;roll&#45;width.ts</text>
</a>
</g>
</g>
<!-- packages/UI/view&#45;parameters/src/current&#45;time&#45;x.ts&#45;&gt;packages/UI/view&#45;parameters/src/piano&#45;roll/piano&#45;roll&#45;width.ts -->
<g id="edge2" class="edge">
<title>packages/UI/view&#45;parameters/src/current&#45;time&#45;x.ts&#45;&gt;packages/UI/view&#45;parameters/src/piano&#45;roll/piano&#45;roll&#45;width.ts</title>
<path fill="none" stroke="#000000" stroke-width="2" stroke-opacity="0.200000" d="M474.32,-58.08C491.38,-63.96 513.71,-71.66 531.82,-77.9"/>
<polygon fill="#000000" fill-opacity="0.200000" stroke="#000000" stroke-width="2" stroke-opacity="0.200000" points="531.43,-79.99 537.78,-79.96 532.79,-76.02 531.43,-79.99"/>
</g>
<!-- packages/UI/view&#45;parameters/src/piano&#45;roll/windowInnerWidth.ts -->
<g id="node17" class="node">
<title>packages/UI/view&#45;parameters/src/piano&#45;roll/windowInnerWidth.ts</title>
<g id="a_node17"><a xlink:href="packages/UI/view-parameters/src/piano-roll/windowInnerWidth.ts" xlink:title="windowInnerWidth.ts">
<path fill="#ddfeff" stroke="black" d="M756,-98C756,-98 655,-98 655,-98 652,-98 649,-95 649,-92 649,-92 649,-86 649,-86 649,-83 652,-80 655,-80 655,-80 756,-80 756,-80 759,-80 762,-83 762,-86 762,-86 762,-92 762,-92 762,-95 759,-98 756,-98"/>
<text text-anchor="start" x="657" y="-86.8" font-family="Helvetica,sans-Serif" font-size="9.00">windowInnerWidth.ts</text>
</a>
</g>
</g>
<!-- packages/UI/view&#45;parameters/src/piano&#45;roll/piano&#45;roll&#45;width.ts&#45;&gt;packages/UI/view&#45;parameters/src/piano&#45;roll/windowInnerWidth.ts -->
<g id="edge15" class="edge">
<title>packages/UI/view&#45;parameters/src/piano&#45;roll/piano&#45;roll&#45;width.ts&#45;&gt;packages/UI/view&#45;parameters/src/piano&#45;roll/windowInnerWidth.ts</title>
<path fill="none" stroke="#000000" stroke-width="2" stroke-opacity="0.200000" d="M614.05,-89C623.28,-89 633.07,-89 642.66,-89"/>
<polygon fill="#000000" fill-opacity="0.200000" stroke="#000000" stroke-width="2" stroke-opacity="0.200000" points="642.93,-91.1 648.93,-89 642.93,-86.9 642.93,-91.1"/>
</g>
<!-- packages/UI/view&#45;parameters/src/note&#45;size.ts -->
<g id="node5" class="node">
<title>packages/UI/view&#45;parameters/src/note&#45;size.ts</title>
<g id="a_node5"><a xlink:href="packages/UI/view-parameters/src/note-size.ts" xlink:title="note&#45;size.ts">
<path fill="#ddfeff" stroke="black" d="M236,-86C236,-86 180,-86 180,-86 177,-86 174,-83 174,-80 174,-80 174,-74 174,-74 174,-71 177,-68 180,-68 180,-68 236,-68 236,-68 239,-68 242,-71 242,-74 242,-74 242,-80 242,-80 242,-83 239,-86 236,-86"/>
<text text-anchor="start" x="182" y="-74.8" font-family="Helvetica,sans-Serif" font-size="9.00">note&#45;size.ts</text>
</a>
</g>
</g>
<!-- packages/UI/view&#45;parameters/src/note&#45;size.ts&#45;&gt;packages/UI/view&#45;parameters/src/piano&#45;roll/piano&#45;roll&#45;width.ts -->
<g id="edge4" class="edge">
<title>packages/UI/view&#45;parameters/src/note&#45;size.ts&#45;&gt;packages/UI/view&#45;parameters/src/piano&#45;roll/piano&#45;roll&#45;width.ts</title>
<path fill="none" stroke="#000000" stroke-width="2" stroke-opacity="0.200000" d="M242.23,-78.15C304.1,-80.23 435.05,-84.63 509.75,-87.14"/>
<polygon fill="#000000" fill-opacity="0.200000" stroke="#000000" stroke-width="2" stroke-opacity="0.200000" points="509.84,-89.25 515.91,-87.35 509.98,-85.05 509.84,-89.25"/>
</g>
<!-- packages/UI/view&#45;parameters/src/piano&#45;roll/piano&#45;roll&#45;time&#45;length.ts -->
<g id="node6" class="node">
<title>packages/UI/view&#45;parameters/src/piano&#45;roll/piano&#45;roll&#45;time&#45;length.ts</title>
<g id="a_node6"><a xlink:href="packages/UI/view-parameters/src/piano-roll/piano-roll-time-length.ts" xlink:title="piano&#45;roll&#45;time&#45;length.ts">
<path fill="#ddfeff" stroke="black" d="M377,-248C377,-248 264,-248 264,-248 261,-248 258,-245 258,-242 258,-242 258,-236 258,-236 258,-233 261,-230 264,-230 264,-230 377,-230 377,-230 380,-230 383,-233 383,-236 383,-236 383,-242 383,-242 383,-245 380,-248 377,-248"/>
<text text-anchor="start" x="266" y="-236.8" font-family="Helvetica,sans-Serif" font-size="9.00">piano&#45;roll&#45;time&#45;length.ts</text>
</a>
</g>
</g>
<!-- packages/UI/view&#45;parameters/src/note&#45;size.ts&#45;&gt;packages/UI/view&#45;parameters/src/piano&#45;roll/piano&#45;roll&#45;time&#45;length.ts -->
<g id="edge3" class="edge">
<title>packages/UI/view&#45;parameters/src/note&#45;size.ts&#45;&gt;packages/UI/view&#45;parameters/src/piano&#45;roll/piano&#45;roll&#45;time&#45;length.ts</title>
<path fill="none" stroke="#000000" stroke-width="2" stroke-opacity="0.200000" d="M215.26,-86.17C233.64,-113.13 287.59,-192.22 309.79,-224.77"/>
<polygon fill="#000000" fill-opacity="0.200000" stroke="#000000" stroke-width="2" stroke-opacity="0.200000" points="308.2,-226.15 313.31,-229.93 311.66,-223.79 308.2,-226.15"/>
</g>
<!-- packages/UI/view&#45;parameters/src/piano&#45;roll/piano&#45;roll&#45;ratio.ts -->
<g id="node15" class="node">
<title>packages/UI/view&#45;parameters/src/piano&#45;roll/piano&#45;roll&#45;ratio.ts</title>
<g id="a_node15"><a xlink:href="packages/UI/view-parameters/src/piano-roll/piano-roll-ratio.ts" xlink:title="piano&#45;roll&#45;ratio.ts">
<path fill="#ddfeff" stroke="black" d="M487.5,-248C487.5,-248 406.5,-248 406.5,-248 403.5,-248 400.5,-245 400.5,-242 400.5,-242 400.5,-236 400.5,-236 400.5,-233 403.5,-230 406.5,-230 406.5,-230 487.5,-230 487.5,-230 490.5,-230 493.5,-233 493.5,-236 493.5,-236 493.5,-242 493.5,-242 493.5,-245 490.5,-248 487.5,-248"/>
<text text-anchor="start" x="408.5" y="-236.8" font-family="Helvetica,sans-Serif" font-size="9.00">piano&#45;roll&#45;ratio.ts</text>
</a>
</g>
</g>
<!-- packages/UI/view&#45;parameters/src/piano&#45;roll/piano&#45;roll&#45;time&#45;length.ts&#45;&gt;packages/UI/view&#45;parameters/src/piano&#45;roll/piano&#45;roll&#45;ratio.ts -->
<g id="edge14" class="edge">
<title>packages/UI/view&#45;parameters/src/piano&#45;roll/piano&#45;roll&#45;time&#45;length.ts&#45;&gt;packages/UI/view&#45;parameters/src/piano&#45;roll/piano&#45;roll&#45;ratio.ts</title>
<path fill="none" stroke="#000000" stroke-width="2" stroke-opacity="0.200000" d="M383.02,-239C386.79,-239 390.56,-239 394.28,-239"/>
<polygon fill="#000000" fill-opacity="0.200000" stroke="#000000" stroke-width="2" stroke-opacity="0.200000" points="394.48,-241.1 400.48,-239 394.48,-236.9 394.48,-241.1"/>
</g>
<!-- packages/UI/view&#45;parameters/src/song&#45;length.ts -->
<g id="node16" class="node">
<title>packages/UI/view&#45;parameters/src/song&#45;length.ts</title>
<g id="a_node16"><a xlink:href="packages/UI/view-parameters/src/song-length.ts" xlink:title="song&#45;length.ts">
<path fill="#ddfeff" stroke="black" d="M482,-336C482,-336 412,-336 412,-336 409,-336 406,-333 406,-330 406,-330 406,-324 406,-324 406,-321 409,-318 412,-318 412,-318 482,-318 482,-318 485,-318 488,-321 488,-324 488,-324 488,-330 488,-330 488,-333 485,-336 482,-336"/>
<text text-anchor="start" x="414" y="-324.8" font-family="Helvetica,sans-Serif" font-size="9.00">song&#45;length.ts</text>
</a>
</g>
</g>
<!-- packages/UI/view&#45;parameters/src/piano&#45;roll/piano&#45;roll&#45;time&#45;length.ts&#45;&gt;packages/UI/view&#45;parameters/src/song&#45;length.ts -->
<g id="edge13" class="edge">
<title>packages/UI/view&#45;parameters/src/piano&#45;roll/piano&#45;roll&#45;time&#45;length.ts&#45;&gt;packages/UI/view&#45;parameters/src/song&#45;length.ts</title>
<path fill="none" stroke="#000000" stroke-width="2" stroke-opacity="0.200000" d="M334.35,-248.09C356.63,-263.83 402.45,-296.22 427.92,-314.22"/>
<polygon fill="#000000" fill-opacity="0.200000" stroke="#000000" stroke-width="2" stroke-opacity="0.200000" points="426.92,-316.08 433.03,-317.83 429.34,-312.65 426.92,-316.08"/>
</g>
<!-- packages/UI/view&#45;parameters/src/now&#45;at.ts -->
<g id="node7" class="node">
<title>packages/UI/view&#45;parameters/src/now&#45;at.ts</title>
<g id="a_node7"><a xlink:href="packages/UI/view-parameters/src/now-at.ts" xlink:title="now&#45;at.ts">
<path fill="#ddfeff" stroke="black" d="M231.5,-116C231.5,-116 184.5,-116 184.5,-116 181.5,-116 178.5,-113 178.5,-110 178.5,-110 178.5,-104 178.5,-104 178.5,-101 181.5,-98 184.5,-98 184.5,-98 231.5,-98 231.5,-98 234.5,-98 237.5,-101 237.5,-104 237.5,-104 237.5,-110 237.5,-110 237.5,-113 234.5,-116 231.5,-116"/>
<text text-anchor="start" x="186.5" y="-104.8" font-family="Helvetica,sans-Serif" font-size="9.00">now&#45;at.ts</text>
</a>
</g>
</g>
<!-- packages/UI/view&#45;parameters/src/piano&#45;roll&#45;translate&#45;x.ts -->
<g id="node8" class="node">
<title>packages/UI/view&#45;parameters/src/piano&#45;roll&#45;translate&#45;x.ts</title>
<g id="a_node8"><a xlink:href="packages/UI/view-parameters/src/piano-roll-translate-x.ts" xlink:title="piano&#45;roll&#45;translate&#45;x.ts">
<path fill="#ddfeff" stroke="black" d="M155,-88C155,-88 46,-88 46,-88 43,-88 40,-85 40,-82 40,-82 40,-76 40,-76 40,-73 43,-70 46,-70 46,-70 155,-70 155,-70 158,-70 161,-73 161,-76 161,-76 161,-82 161,-82 161,-85 158,-88 155,-88"/>
<text text-anchor="start" x="48" y="-76.8" font-family="Helvetica,sans-Serif" font-size="9.00">piano&#45;roll&#45;translate&#45;x.ts</text>
</a>
</g>
</g>
<!-- packages/UI/view&#45;parameters/src/piano&#45;roll&#45;translate&#45;x.ts&#45;&gt;packages/UI/view&#45;parameters/src/current&#45;time&#45;x.ts -->
<g id="edge5" class="edge">
<title>packages/UI/view&#45;parameters/src/piano&#45;roll&#45;translate&#45;x.ts&#45;&gt;packages/UI/view&#45;parameters/src/current&#45;time&#45;x.ts</title>
<path fill="none" stroke="#000000" stroke-width="2" stroke-opacity="0.200000" d="M161.25,-73.74C227.21,-68.03 331.49,-59 394.17,-53.57"/>
<polygon fill="#000000" fill-opacity="0.200000" stroke="#000000" stroke-width="2" stroke-opacity="0.200000" points="394.68,-55.64 400.48,-53.03 394.32,-51.45 394.68,-55.64"/>
</g>
<!-- packages/UI/view&#45;parameters/src/piano&#45;roll&#45;translate&#45;x.ts&#45;&gt;packages/UI/view&#45;parameters/src/note&#45;size.ts -->
<g id="edge6" class="edge">
<title>packages/UI/view&#45;parameters/src/piano&#45;roll&#45;translate&#45;x.ts&#45;&gt;packages/UI/view&#45;parameters/src/note&#45;size.ts</title>
<path fill="none" stroke="#000000" stroke-width="2" stroke-opacity="0.200000" d="M161.03,-77.87C163.23,-77.83 165.41,-77.79 167.56,-77.75"/>
<polygon fill="#000000" fill-opacity="0.200000" stroke="#000000" stroke-width="2" stroke-opacity="0.200000" points="167.94,-79.84 173.9,-77.63 167.86,-75.64 167.94,-79.84"/>
</g>
<!-- packages/UI/view&#45;parameters/src/piano&#45;roll&#45;translate&#45;x.ts&#45;&gt;packages/UI/view&#45;parameters/src/now&#45;at.ts -->
<g id="edge7" class="edge">
<title>packages/UI/view&#45;parameters/src/piano&#45;roll&#45;translate&#45;x.ts&#45;&gt;packages/UI/view&#45;parameters/src/now&#45;at.ts</title>
<path fill="none" stroke="#000000" stroke-width="2" stroke-opacity="0.200000" d="M135.46,-88.01C147.26,-91.14 160.5,-94.66 172.35,-97.8"/>
<polygon fill="#000000" fill-opacity="0.200000" stroke="#000000" stroke-width="2" stroke-opacity="0.200000" points="172.07,-99.9 178.41,-99.41 173.15,-95.84 172.07,-99.9"/>
</g>
<!-- packages/UI/view&#45;parameters/src/piano&#45;roll/octave&#45;count.ts -->
<g id="node9" class="node">
<title>packages/UI/view&#45;parameters/src/piano&#45;roll/octave&#45;count.ts</title>
<g id="a_node9"><a xlink:href="packages/UI/view-parameters/src/piano-roll/octave-count.ts" xlink:title="octave&#45;count.ts">
<path fill="#ddfeff" stroke="black" d="M602.5,-278C602.5,-278 527.5,-278 527.5,-278 524.5,-278 521.5,-275 521.5,-272 521.5,-272 521.5,-266 521.5,-266 521.5,-263 524.5,-260 527.5,-260 527.5,-260 602.5,-260 602.5,-260 605.5,-260 608.5,-263 608.5,-266 608.5,-266 608.5,-272 608.5,-272 608.5,-275 605.5,-278 602.5,-278"/>
<text text-anchor="start" x="529.5" y="-266.8" font-family="Helvetica,sans-Serif" font-size="9.00">octave&#45;count.ts</text>
</a>
</g>
</g>
<!-- packages/UI/view&#45;parameters/src/piano&#45;roll/piano&#45;roll&#45;begin.ts -->
<g id="node10" class="node">
<title>packages/UI/view&#45;parameters/src/piano&#45;roll/piano&#45;roll&#45;begin.ts</title>
<g id="a_node10"><a xlink:href="packages/UI/view-parameters/src/piano-roll/piano-roll-begin.ts" xlink:title="piano&#45;roll&#45;begin.ts">
<path fill="#ddfeff" stroke="black" d="M748.5,-278C748.5,-278 662.5,-278 662.5,-278 659.5,-278 656.5,-275 656.5,-272 656.5,-272 656.5,-266 656.5,-266 656.5,-263 659.5,-260 662.5,-260 662.5,-260 748.5,-260 748.5,-260 751.5,-260 754.5,-263 754.5,-266 754.5,-266 754.5,-272 754.5,-272 754.5,-275 751.5,-278 748.5,-278"/>
<text text-anchor="start" x="664.5" y="-266.8" font-family="Helvetica,sans-Serif" font-size="9.00">piano&#45;roll&#45;begin.ts</text>
</a>
</g>
</g>
<!-- packages/UI/view&#45;parameters/src/piano&#45;roll/octave&#45;count.ts&#45;&gt;packages/UI/view&#45;parameters/src/piano&#45;roll/piano&#45;roll&#45;begin.ts -->
<g id="edge8" class="edge">
<title>packages/UI/view&#45;parameters/src/piano&#45;roll/octave&#45;count.ts&#45;&gt;packages/UI/view&#45;parameters/src/piano&#45;roll/piano&#45;roll&#45;begin.ts</title>
<path fill="none" stroke="#000000" stroke-width="2" stroke-opacity="0.200000" d="M608.68,-269C621.78,-269 636.37,-269 650.14,-269"/>
<polygon fill="#000000" fill-opacity="0.200000" stroke="#000000" stroke-width="2" stroke-opacity="0.200000" points="650.4,-271.1 656.4,-269 650.39,-266.9 650.4,-271.1"/>
</g>
<!-- packages/UI/view&#45;parameters/src/piano&#45;roll/piano&#45;roll&#45;end.ts -->
<g id="node11" class="node">
<title>packages/UI/view&#45;parameters/src/piano&#45;roll/piano&#45;roll&#45;end.ts</title>
<g id="a_node11"><a xlink:href="packages/UI/view-parameters/src/piano-roll/piano-roll-end.ts" xlink:title="piano&#45;roll&#45;end.ts">
<path fill="#ddfeff" stroke="black" d="M744.5,-248C744.5,-248 666.5,-248 666.5,-248 663.5,-248 660.5,-245 660.5,-242 660.5,-242 660.5,-236 660.5,-236 660.5,-233 663.5,-230 666.5,-230 666.5,-230 744.5,-230 744.5,-230 747.5,-230 750.5,-233 750.5,-236 750.5,-236 750.5,-242 750.5,-242 750.5,-245 747.5,-248 744.5,-248"/>
<text text-anchor="start" x="668.5" y="-236.8" font-family="Helvetica,sans-Serif" font-size="9.00">piano&#45;roll&#45;end.ts</text>
</a>
</g>
</g>
<!-- packages/UI/view&#45;parameters/src/piano&#45;roll/octave&#45;count.ts&#45;&gt;packages/UI/view&#45;parameters/src/piano&#45;roll/piano&#45;roll&#45;end.ts -->
<g id="edge9" class="edge">
<title>packages/UI/view&#45;parameters/src/piano&#45;roll/octave&#45;count.ts&#45;&gt;packages/UI/view&#45;parameters/src/piano&#45;roll/piano&#45;roll&#45;end.ts</title>
<path fill="none" stroke="#000000" stroke-width="2" stroke-opacity="0.200000" d="M607.55,-260C622.89,-256.68 640.39,-252.89 656.27,-249.45"/>
<polygon fill="#000000" fill-opacity="0.200000" stroke="#000000" stroke-width="2" stroke-opacity="0.200000" points="657.08,-251.42 662.5,-248.1 656.19,-247.32 657.08,-251.42"/>
</g>
<!-- packages/UI/view&#45;parameters/src/piano&#45;roll/octave&#45;height.ts -->
<g id="node12" class="node">
<title>packages/UI/view&#45;parameters/src/piano&#45;roll/octave&#45;height.ts</title>
<g id="a_node12"><a xlink:href="packages/UI/view-parameters/src/piano-roll/octave-height.ts" xlink:title="octave&#45;height.ts">
<path fill="#ddfeff" stroke="black" d="M604,-196C604,-196 526,-196 526,-196 523,-196 520,-193 520,-190 520,-190 520,-184 520,-184 520,-181 523,-178 526,-178 526,-178 604,-178 604,-178 607,-178 610,-181 610,-184 610,-184 610,-190 610,-190 610,-193 607,-196 604,-196"/>
<text text-anchor="start" x="528" y="-184.8" font-family="Helvetica,sans-Serif" font-size="9.00">octave&#45;height.ts</text>
</a>
</g>
</g>
<!-- packages/UI/view&#45;parameters/src/piano&#45;roll/piano&#45;roll&#45;size.ts -->
<g id="node13" class="node">
<title>packages/UI/view&#45;parameters/src/piano&#45;roll/piano&#45;roll&#45;size.ts</title>
<g id="a_node13"><a xlink:href="packages/UI/view-parameters/src/piano-roll/piano-roll-size.ts" xlink:title="piano&#45;roll&#45;size.ts">
<path fill="#ddfeff" stroke="black" d="M744,-196C744,-196 667,-196 667,-196 664,-196 661,-193 661,-190 661,-190 661,-184 661,-184 661,-181 664,-178 667,-178 667,-178 744,-178 744,-178 747,-178 750,-181 750,-184 750,-184 750,-190 750,-190 750,-193 747,-196 744,-196"/>
<text text-anchor="start" x="669" y="-184.8" font-family="Helvetica,sans-Serif" font-size="9.00">piano&#45;roll&#45;size.ts</text>
</a>
</g>
</g>
<!-- packages/UI/view&#45;parameters/src/piano&#45;roll/octave&#45;height.ts&#45;&gt;packages/UI/view&#45;parameters/src/piano&#45;roll/piano&#45;roll&#45;size.ts -->
<g id="edge10" class="edge">
<title>packages/UI/view&#45;parameters/src/piano&#45;roll/octave&#45;height.ts&#45;&gt;packages/UI/view&#45;parameters/src/piano&#45;roll/piano&#45;roll&#45;size.ts</title>
<path fill="none" stroke="#000000" stroke-width="2" stroke-opacity="0.200000" d="M610.2,-187C624.33,-187 640.07,-187 654.58,-187"/>
<polygon fill="#000000" fill-opacity="0.200000" stroke="#000000" stroke-width="2" stroke-opacity="0.200000" points="654.72,-189.1 660.72,-187 654.72,-184.9 654.72,-189.1"/>
</g>
<!-- packages/UI/view&#45;parameters/src/piano&#45;roll/piano&#45;roll&#45;height.ts -->
<g id="node14" class="node">
<title>packages/UI/view&#45;parameters/src/piano&#45;roll/piano&#45;roll&#45;height.ts</title>
<g id="a_node14"><a xlink:href="packages/UI/view-parameters/src/piano-roll/piano-roll-height.ts" xlink:title="piano&#45;roll&#45;height.ts">
<path fill="#ddfeff" stroke="black" d="M492,-278C492,-278 402,-278 402,-278 399,-278 396,-275 396,-272 396,-272 396,-266 396,-266 396,-263 399,-260 402,-260 402,-260 492,-260 492,-260 495,-260 498,-263 498,-266 498,-266 498,-272 498,-272 498,-275 495,-278 492,-278"/>
<text text-anchor="start" x="404" y="-266.8" font-family="Helvetica,sans-Serif" font-size="9.00">piano&#45;roll&#45;height.ts</text>
</a>
</g>
</g>
<!-- packages/UI/view&#45;parameters/src/piano&#45;roll/piano&#45;roll&#45;height.ts&#45;&gt;packages/UI/view&#45;parameters/src/piano&#45;roll/octave&#45;count.ts -->
<g id="edge11" class="edge">
<title>packages/UI/view&#45;parameters/src/piano&#45;roll/piano&#45;roll&#45;height.ts&#45;&gt;packages/UI/view&#45;parameters/src/piano&#45;roll/octave&#45;count.ts</title>
<path fill="none" stroke="#000000" stroke-width="2" stroke-opacity="0.200000" d="M498.2,-269C503.87,-269 509.64,-269 515.28,-269"/>
<polygon fill="#000000" fill-opacity="0.200000" stroke="#000000" stroke-width="2" stroke-opacity="0.200000" points="515.35,-271.1 521.35,-269 515.35,-266.9 515.35,-271.1"/>
</g>
<!-- packages/UI/view&#45;parameters/src/piano&#45;roll/piano&#45;roll&#45;height.ts&#45;&gt;packages/UI/view&#45;parameters/src/piano&#45;roll/octave&#45;height.ts -->
<g id="edge12" class="edge">
<title>packages/UI/view&#45;parameters/src/piano&#45;roll/piano&#45;roll&#45;height.ts&#45;&gt;packages/UI/view&#45;parameters/src/piano&#45;roll/octave&#45;height.ts</title>
<path fill="none" stroke="#000000" stroke-width="2" stroke-opacity="0.200000" d="M460.86,-259.91C481.59,-245.26 522.45,-216.37 546.04,-199.69"/>
<polygon fill="#000000" fill-opacity="0.200000" stroke="#000000" stroke-width="2" stroke-opacity="0.200000" points="547.4,-201.31 551.09,-196.13 544.97,-197.88 547.4,-201.31"/>
</g>
<!-- packages/UI/view&#45;parameters/src/piano&#45;roll/rect&#45;parameters/bgs.ts -->
<g id="node18" class="node">
<title>packages/UI/view&#45;parameters/src/piano&#45;roll/rect&#45;parameters/bgs.ts</title>
<g id="a_node18"><a xlink:href="packages/UI/view-parameters/src/piano-roll/rect-parameters/bgs.ts" xlink:title="bgs.ts">
<path fill="#ddfeff" stroke="black" d="M468,-136C468,-136 426,-136 426,-136 423,-136 420,-133 420,-130 420,-130 420,-124 420,-124 420,-121 423,-118 426,-118 426,-118 468,-118 468,-118 471,-118 474,-121 474,-124 474,-124 474,-130 474,-130 474,-133 471,-136 468,-136"/>
<text text-anchor="start" x="433" y="-124.8" font-family="Helvetica,sans-Serif" font-size="9.00">bgs.ts</text>
</a>
</g>
</g>
<!-- packages/UI/view&#45;parameters/src/piano&#45;roll/rect&#45;parameters/bgs.ts&#45;&gt;packages/UI/view&#45;parameters/src/piano&#45;roll/piano&#45;roll&#45;width.ts -->
<g id="edge18" class="edge">
<title>packages/UI/view&#45;parameters/src/piano&#45;roll/rect&#45;parameters/bgs.ts&#45;&gt;packages/UI/view&#45;parameters/src/piano&#45;roll/piano&#45;roll&#45;width.ts</title>
<path fill="none" stroke="#000000" stroke-width="2" stroke-opacity="0.200000" d="M474.03,-118.47C490.72,-113.01 512.53,-105.86 530.5,-99.97"/>
<polygon fill="#000000" fill-opacity="0.200000" stroke="#000000" stroke-width="2" stroke-opacity="0.200000" points="531.39,-101.89 536.44,-98.03 530.08,-97.9 531.39,-101.89"/>
</g>
<!-- packages/UI/view&#45;parameters/src/piano&#45;roll/rect&#45;parameters/bgs.ts&#45;&gt;packages/UI/view&#45;parameters/src/piano&#45;roll/octave&#45;height.ts -->
<g id="edge17" class="edge">
<title>packages/UI/view&#45;parameters/src/piano&#45;roll/rect&#45;parameters/bgs.ts&#45;&gt;packages/UI/view&#45;parameters/src/piano&#45;roll/octave&#45;height.ts</title>
<path fill="none" stroke="#000000" stroke-width="2" stroke-opacity="0.200000" d="M465.62,-136.11C485.83,-146.57 519.04,-163.75 541.21,-175.21"/>
<polygon fill="#000000" fill-opacity="0.200000" stroke="#000000" stroke-width="2" stroke-opacity="0.200000" points="540.3,-177.11 546.6,-178 542.23,-173.38 540.3,-177.11"/>
</g>
<!-- packages/UI/view&#45;parameters/src/rect&#45;parameter.ts -->
<g id="node19" class="node">
<title>packages/UI/view&#45;parameters/src/rect&#45;parameter.ts</title>
<g id="a_node19"><a xlink:href="packages/UI/view-parameters/src/rect-parameter.ts" xlink:title="rect&#45;parameter.ts">
<path fill="#ddfeff" stroke="black" d="M606.5,-330C606.5,-330 523.5,-330 523.5,-330 520.5,-330 517.5,-327 517.5,-324 517.5,-324 517.5,-318 517.5,-318 517.5,-315 520.5,-312 523.5,-312 523.5,-312 606.5,-312 606.5,-312 609.5,-312 612.5,-315 612.5,-318 612.5,-318 612.5,-324 612.5,-324 612.5,-327 609.5,-330 606.5,-330"/>
<text text-anchor="start" x="525.5" y="-318.8" font-family="Helvetica,sans-Serif" font-size="9.00">rect&#45;parameter.ts</text>
</a>
</g>
</g>
<!-- packages/UI/view&#45;parameters/src/piano&#45;roll/rect&#45;parameters/bgs.ts&#45;&gt;packages/UI/view&#45;parameters/src/rect&#45;parameter.ts -->
<g id="edge16" class="edge">
<title>packages/UI/view&#45;parameters/src/piano&#45;roll/rect&#45;parameters/bgs.ts&#45;&gt;packages/UI/view&#45;parameters/src/rect&#45;parameter.ts</title>
<path fill="none" stroke="#000000" stroke-width="2" stroke-opacity="0.200000" d="M453.44,-136.1C471.89,-166.96 532.23,-267.86 555.1,-306.12"/>
<polygon fill="#000000" fill-opacity="0.200000" stroke="#000000" stroke-width="2" stroke-opacity="0.200000" points="553.56,-307.63 558.44,-311.7 557.16,-305.47 553.56,-307.63"/>
</g>
<!-- packages/UI/view&#45;parameters/src/piano&#45;roll/rect&#45;parameters/black&#45;bgs.ts -->
<g id="node20" class="node">
<title>packages/UI/view&#45;parameters/src/piano&#45;roll/rect&#45;parameters/black&#45;bgs.ts</title>
<g id="a_node20"><a xlink:href="packages/UI/view-parameters/src/piano-roll/rect-parameters/black-bgs.ts" xlink:title="black&#45;bgs.ts">
<path fill="#ddfeff" stroke="black" d="M350,-136C350,-136 291,-136 291,-136 288,-136 285,-133 285,-130 285,-130 285,-124 285,-124 285,-121 288,-118 291,-118 291,-118 350,-118 350,-118 353,-118 356,-121 356,-124 356,-124 356,-130 356,-130 356,-133 353,-136 350,-136"/>
<text text-anchor="start" x="293" y="-124.8" font-family="Helvetica,sans-Serif" font-size="9.00">black&#45;bgs.ts</text>
</a>
</g>
</g>
<!-- packages/UI/view&#45;parameters/src/piano&#45;roll/rect&#45;parameters/black&#45;bgs.ts&#45;&gt;packages/UI/view&#45;parameters/src/piano&#45;roll/rect&#45;parameters/bgs.ts -->
<g id="edge19" class="edge">
<title>packages/UI/view&#45;parameters/src/piano&#45;roll/rect&#45;parameters/black&#45;bgs.ts&#45;&gt;packages/UI/view&#45;parameters/src/piano&#45;roll/rect&#45;parameters/bgs.ts</title>
<path fill="none" stroke="#000000" stroke-width="2" stroke-opacity="0.200000" d="M356.18,-127C374.12,-127 395.89,-127 413.51,-127"/>
<polygon fill="#000000" fill-opacity="0.200000" stroke="#000000" stroke-width="2" stroke-opacity="0.200000" points="413.8,-129.1 419.8,-127 413.8,-124.9 413.8,-129.1"/>
</g>
<!-- packages/UI/view&#45;parameters/src/piano&#45;roll/rect&#45;parameters/black&#45;key.ts -->
<g id="node21" class="node">
<title>packages/UI/view&#45;parameters/src/piano&#45;roll/rect&#45;parameters/black&#45;key.ts</title>
<g id="a_node21"><a xlink:href="packages/UI/view-parameters/src/piano-roll/rect-parameters/black-key.ts" xlink:title="black&#45;key.ts">
<path fill="#ddfeff" stroke="black" d="M349,-196C349,-196 292,-196 292,-196 289,-196 286,-193 286,-190 286,-190 286,-184 286,-184 286,-181 289,-178 292,-178 292,-178 349,-178 349,-178 352,-178 355,-181 355,-184 355,-184 355,-190 355,-190 355,-193 352,-196 349,-196"/>
<text text-anchor="start" x="294" y="-184.8" font-family="Helvetica,sans-Serif" font-size="9.00">black&#45;key.ts</text>
</a>
</g>
</g>
<!-- packages/UI/view&#45;parameters/src/piano&#45;roll/rect&#45;parameters/black&#45;key.ts&#45;&gt;packages/UI/view&#45;parameters/src/rect&#45;parameter.ts -->
<g id="edge20" class="edge">
<title>packages/UI/view&#45;parameters/src/piano&#45;roll/rect&#45;parameters/black&#45;key.ts&#45;&gt;packages/UI/view&#45;parameters/src/rect&#45;parameter.ts</title>
<path fill="none" stroke="#000000" stroke-width="2" stroke-opacity="0.200000" d="M336.92,-196C379.71,-219.45 494.64,-282.44 543.04,-308.96"/>
<polygon fill="#000000" fill-opacity="0.200000" stroke="#000000" stroke-width="2" stroke-opacity="0.200000" points="542.06,-310.82 548.33,-311.86 544.08,-307.14 542.06,-310.82"/>
</g>
<!-- packages/UI/view&#45;parameters/src/piano&#45;roll/rect&#45;parameters/key.ts -->
<g id="node22" class="node">
<title>packages/UI/view&#45;parameters/src/piano&#45;roll/rect&#45;parameters/key.ts</title>
<g id="a_node22"><a xlink:href="packages/UI/view-parameters/src/piano-roll/rect-parameters/key.ts" xlink:title="key.ts">
<path fill="#ddfeff" stroke="black" d="M468,-196C468,-196 426,-196 426,-196 423,-196 420,-193 420,-190 420,-190 420,-184 420,-184 420,-181 423,-178 426,-178 426,-178 468,-178 468,-178 471,-178 474,-181 474,-184 474,-184 474,-190 474,-190 474,-193 471,-196 468,-196"/>
<text text-anchor="start" x="434" y="-184.8" font-family="Helvetica,sans-Serif" font-size="9.00">key.ts</text>
</a>
</g>
</g>
<!-- packages/UI/view&#45;parameters/src/piano&#45;roll/rect&#45;parameters/black&#45;key.ts&#45;&gt;packages/UI/view&#45;parameters/src/piano&#45;roll/rect&#45;parameters/key.ts -->
<g id="edge21" class="edge">
<title>packages/UI/view&#45;parameters/src/piano&#45;roll/rect&#45;parameters/black&#45;key.ts&#45;&gt;packages/UI/view&#45;parameters/src/piano&#45;roll/rect&#45;parameters/key.ts</title>
<path fill="none" stroke="#000000" stroke-width="2" stroke-opacity="0.200000" d="M355.19,-187C373.28,-187 395.47,-187 413.39,-187"/>
<polygon fill="#000000" fill-opacity="0.200000" stroke="#000000" stroke-width="2" stroke-opacity="0.200000" points="413.78,-189.1 419.78,-187 413.78,-184.9 413.78,-189.1"/>
</g>
<!-- packages/UI/view&#45;parameters/src/piano&#45;roll/rect&#45;parameters/key.ts&#45;&gt;packages/UI/view&#45;parameters/src/piano&#45;roll/octave&#45;height.ts -->
<g id="edge23" class="edge">
<title>packages/UI/view&#45;parameters/src/piano&#45;roll/rect&#45;parameters/key.ts&#45;&gt;packages/UI/view&#45;parameters/src/piano&#45;roll/octave&#45;height.ts</title>
<path fill="none" stroke="#000000" stroke-width="2" stroke-opacity="0.200000" d="M474.03,-187C485.73,-187 499.96,-187 513.61,-187"/>
<polygon fill="#000000" fill-opacity="0.200000" stroke="#000000" stroke-width="2" stroke-opacity="0.200000" points="513.83,-189.1 519.83,-187 513.83,-184.9 513.83,-189.1"/>
</g>
<!-- packages/UI/view&#45;parameters/src/piano&#45;roll/rect&#45;parameters/key.ts&#45;&gt;packages/UI/view&#45;parameters/src/rect&#45;parameter.ts -->
<g id="edge22" class="edge">
<title>packages/UI/view&#45;parameters/src/piano&#45;roll/rect&#45;parameters/key.ts&#45;&gt;packages/UI/view&#45;parameters/src/rect&#45;parameter.ts</title>
<path fill="none" stroke="#000000" stroke-width="2" stroke-opacity="0.200000" d="M455.97,-196.21C475.92,-219.26 528.1,-279.53 551.88,-306.99"/>
<polygon fill="#000000" fill-opacity="0.200000" stroke="#000000" stroke-width="2" stroke-opacity="0.200000" points="550.46,-308.56 555.97,-311.73 553.63,-305.81 550.46,-308.56"/>
</g>
<!-- packages/UI/view&#45;parameters/src/piano&#45;roll/rect&#45;parameters/white&#45;bgs.ts -->
<g id="node23" class="node">
<title>packages/UI/view&#45;parameters/src/piano&#45;roll/rect&#45;parameters/white&#45;bgs.ts</title>
<g id="a_node23"><a xlink:href="packages/UI/view-parameters/src/piano-roll/rect-parameters/white-bgs.ts" xlink:title="white&#45;bgs.ts">
<path fill="#ddfeff" stroke="black" d="M350.5,-106C350.5,-106 290.5,-106 290.5,-106 287.5,-106 284.5,-103 284.5,-100 284.5,-100 284.5,-94 284.5,-94 284.5,-91 287.5,-88 290.5,-88 290.5,-88 350.5,-88 350.5,-88 353.5,-88 356.5,-91 356.5,-94 356.5,-94 356.5,-100 356.5,-100 356.5,-103 353.5,-106 350.5,-106"/>
<text text-anchor="start" x="292.5" y="-94.8" font-family="Helvetica,sans-Serif" font-size="9.00">white&#45;bgs.ts</text>
</a>
</g>
</g>
<!-- packages/UI/view&#45;parameters/src/piano&#45;roll/rect&#45;parameters/white&#45;bgs.ts&#45;&gt;packages/UI/view&#45;parameters/src/piano&#45;roll/rect&#45;parameters/bgs.ts -->
<g id="edge24" class="edge">
<title>packages/UI/view&#45;parameters/src/piano&#45;roll/rect&#45;parameters/white&#45;bgs.ts&#45;&gt;packages/UI/view&#45;parameters/src/piano&#45;roll/rect&#45;parameters/bgs.ts</title>
<path fill="none" stroke="#000000" stroke-width="2" stroke-opacity="0.200000" d="M356.51,-105.44C374.45,-109.76 396.14,-114.99 413.68,-119.21"/>
<polygon fill="#000000" fill-opacity="0.200000" stroke="#000000" stroke-width="2" stroke-opacity="0.200000" points="413.61,-121.35 419.93,-120.72 414.59,-117.27 413.61,-121.35"/>
</g>
<!-- packages/UI/view&#45;parameters/src/piano&#45;roll/rect&#45;parameters/white&#45;key.ts -->
<g id="node24" class="node">
<title>packages/UI/view&#45;parameters/src/piano&#45;roll/rect&#45;parameters/white&#45;key.ts</title>
<g id="a_node24"><a xlink:href="packages/UI/view-parameters/src/piano-roll/rect-parameters/white-key.ts" xlink:title="white&#45;key.ts">
<path fill="#ddfeff" stroke="black" d="M349.5,-166C349.5,-166 291.5,-166 291.5,-166 288.5,-166 285.5,-163 285.5,-160 285.5,-160 285.5,-154 285.5,-154 285.5,-151 288.5,-148 291.5,-148 291.5,-148 349.5,-148 349.5,-148 352.5,-148 355.5,-151 355.5,-154 355.5,-154 355.5,-160 355.5,-160 355.5,-163 352.5,-166 349.5,-166"/>
<text text-anchor="start" x="293.5" y="-154.8" font-family="Helvetica,sans-Serif" font-size="9.00">white&#45;key.ts</text>
</a>
</g>
</g>
<!-- packages/UI/view&#45;parameters/src/piano&#45;roll/rect&#45;parameters/white&#45;key.ts&#45;&gt;packages/UI/view&#45;parameters/src/rect&#45;parameter.ts -->
<g id="edge25" class="edge">
<title>packages/UI/view&#45;parameters/src/piano&#45;roll/rect&#45;parameters/white&#45;key.ts&#45;&gt;packages/UI/view&#45;parameters/src/rect&#45;parameter.ts</title>
<path fill="none" stroke="#000000" stroke-width="2" stroke-opacity="0.200000" d="M333.99,-166.05C375.15,-193.66 499.18,-276.85 546.44,-308.55"/>
<polygon fill="#000000" fill-opacity="0.200000" stroke="#000000" stroke-width="2" stroke-opacity="0.200000" points="545.4,-310.38 551.55,-311.98 547.73,-306.89 545.4,-310.38"/>
</g>
<!-- packages/UI/view&#45;parameters/src/piano&#45;roll/rect&#45;parameters/white&#45;key.ts&#45;&gt;packages/UI/view&#45;parameters/src/piano&#45;roll/rect&#45;parameters/key.ts -->
<g id="edge26" class="edge">
<title>packages/UI/view&#45;parameters/src/piano&#45;roll/rect&#45;parameters/white&#45;key.ts&#45;&gt;packages/UI/view&#45;parameters/src/piano&#45;roll/rect&#45;parameters/key.ts</title>
<path fill="none" stroke="#000000" stroke-width="2" stroke-opacity="0.200000" d="M355.52,-165.2C373.76,-169.59 396.11,-174.98 414.02,-179.3"/>
<polygon fill="#000000" fill-opacity="0.200000" stroke="#000000" stroke-width="2" stroke-opacity="0.200000" points="413.59,-181.35 419.92,-180.72 414.58,-177.27 413.59,-181.35"/>
</g>
<!-- packages/UI/view&#45;parameters/src/position/black&#45;position.ts -->
<g id="node25" class="node">
<title>packages/UI/view&#45;parameters/src/position/black&#45;position.ts</title>
<g id="a_node25"><a xlink:href="packages/UI/view-parameters/src/position/black-position.ts" xlink:title="black&#45;position.ts">
<path fill="#ddfeff" stroke="black" d="M604,-394C604,-394 526,-394 526,-394 523,-394 520,-391 520,-388 520,-388 520,-382 520,-382 520,-379 523,-376 526,-376 526,-376 604,-376 604,-376 607,-376 610,-379 610,-382 610,-382 610,-388 610,-388 610,-391 607,-394 604,-394"/>
<text text-anchor="start" x="528" y="-382.8" font-family="Helvetica,sans-Serif" font-size="9.00">black&#45;position.ts</text>
</a>
</g>
</g>
<!-- packages/UI/view&#45;parameters/src/position/black&#45;position.ts&#45;&gt;packages/UI/view&#45;parameters/src/piano&#45;roll/piano&#45;roll&#45;begin.ts -->
<g id="edge27" class="edge">
<title>packages/UI/view&#45;parameters/src/position/black&#45;position.ts&#45;&gt;packages/UI/view&#45;parameters/src/piano&#45;roll/piano&#45;roll&#45;begin.ts</title>
<path fill="none" stroke="#000000" stroke-width="2" stroke-opacity="0.200000" d="M576.87,-375.9C601.24,-355.48 660.35,-305.98 688.75,-282.19"/>
<polygon fill="#000000" fill-opacity="0.200000" stroke="#000000" stroke-width="2" stroke-opacity="0.200000" points="690.43,-283.52 693.68,-278.06 687.73,-280.3 690.43,-283.52"/>
</g>
<!-- packages/util/math/src/basic&#45;function/mod.ts -->
<g id="node26" class="node">
<title>packages/util/math/src/basic&#45;function/mod.ts</title>
<g id="a_node26"><a xlink:href="packages/util/math/src/basic-function/mod.ts" xlink:title="mod.ts">
<path fill="#ddfeff" stroke="black" d="M726.5,-556C726.5,-556 684.5,-556 684.5,-556 681.5,-556 678.5,-553 678.5,-550 678.5,-550 678.5,-544 678.5,-544 678.5,-541 681.5,-538 684.5,-538 684.5,-538 726.5,-538 726.5,-538 729.5,-538 732.5,-541 732.5,-544 732.5,-544 732.5,-550 732.5,-550 732.5,-553 729.5,-556 726.5,-556"/>
<text text-anchor="start" x="689.5" y="-544.8" font-family="Helvetica,sans-Serif" font-size="9.00">mod.ts</text>
</a>
</g>
</g>
<!-- packages/UI/view&#45;parameters/src/position/black&#45;position.ts&#45;&gt;packages/util/math/src/basic&#45;function/mod.ts -->
<g id="edge28" class="edge">
<title>packages/UI/view&#45;parameters/src/position/black&#45;position.ts&#45;&gt;packages/util/math/src/basic&#45;function/mod.ts</title>
<path fill="none" stroke="#000000" stroke-width="2" stroke-opacity="0.200000" d="M573.84,-394.17C596.98,-421.24 665.07,-500.88 692.67,-533.17"/>
<polygon fill="#000000" fill-opacity="0.200000" stroke="#000000" stroke-width="2" stroke-opacity="0.200000" points="691.25,-534.73 696.74,-537.93 694.44,-532 691.25,-534.73"/>
</g>
<!-- packages/UI/view&#45;parameters/src/position/white&#45;position.ts -->
<g id="node27" class="node">
<title>packages/UI/view&#45;parameters/src/position/white&#45;position.ts</title>
<g id="a_node27"><a xlink:href="packages/UI/view-parameters/src/position/white-position.ts" xlink:title="white&#45;position.ts">
<path fill="#ddfeff" stroke="black" d="M604.5,-364C604.5,-364 525.5,-364 525.5,-364 522.5,-364 519.5,-361 519.5,-358 519.5,-358 519.5,-352 519.5,-352 519.5,-349 522.5,-346 525.5,-346 525.5,-346 604.5,-346 604.5,-346 607.5,-346 610.5,-349 610.5,-352 610.5,-352 610.5,-358 610.5,-358 610.5,-361 607.5,-364 604.5,-364"/>
<text text-anchor="start" x="527.5" y="-352.8" font-family="Helvetica,sans-Serif" font-size="9.00">white&#45;position.ts</text>
</a>
</g>
</g>
<!-- packages/UI/view&#45;parameters/src/position/white&#45;position.ts&#45;&gt;packages/UI/view&#45;parameters/src/piano&#45;roll/piano&#45;roll&#45;begin.ts -->
<g id="edge29" class="edge">
<title>packages/UI/view&#45;parameters/src/position/white&#45;position.ts&#45;&gt;packages/UI/view&#45;parameters/src/piano&#45;roll/piano&#45;roll&#45;begin.ts</title>
<path fill="none" stroke="#000000" stroke-width="2" stroke-opacity="0.200000" d="M580.56,-345.96C605.43,-330.51 656.15,-299.02 684.38,-281.49"/>
<polygon fill="#000000" fill-opacity="0.200000" stroke="#000000" stroke-width="2" stroke-opacity="0.200000" points="685.73,-283.13 689.72,-278.18 683.51,-279.56 685.73,-283.13"/>
</g>
<!-- packages/UI/view&#45;parameters/src/position/white&#45;position.ts&#45;&gt;packages/util/math/src/basic&#45;function/mod.ts -->
<g id="edge30" class="edge">
<title>packages/UI/view&#45;parameters/src/position/white&#45;position.ts&#45;&gt;packages/util/math/src/basic&#45;function/mod.ts</title>
<path fill="none" stroke="#000000" stroke-width="2" stroke-opacity="0.200000" d="M572.49,-364C594.62,-394.67 667.16,-495.23 694.21,-532.73"/>
<polygon fill="#000000" fill-opacity="0.200000" stroke="#000000" stroke-width="2" stroke-opacity="0.200000" points="692.65,-534.16 697.86,-537.79 696.05,-531.7 692.65,-534.16"/>
</g>
<!-- packages/UI/view&#45;parameters/src/reservation&#45;range.ts -->
<g id="node28" class="node">
<title>packages/UI/view&#45;parameters/src/reservation&#45;range.ts</title>
<g id="a_node28"><a xlink:href="packages/UI/view-parameters/src/reservation-range.ts" xlink:title="no&#45;orphans">
<path fill="#ccffcc" stroke="orange" d="M148,-58C148,-58 53,-58 53,-58 50,-58 47,-55 47,-52 47,-52 47,-46 47,-46 47,-43 50,-40 53,-40 53,-40 148,-40 148,-40 151,-40 154,-43 154,-46 154,-46 154,-52 154,-52 154,-55 151,-58 148,-58"/>
<text text-anchor="start" x="55" y="-46.8" font-family="Helvetica,sans-Serif" font-size="9.00" fill="orange">reservation&#45;range.ts</text>
</a>
</g>
</g>
</g>
</svg>
