<?xml version="1.0" encoding="UTF-8" standalone="no"?>
<!DOCTYPE svg PUBLIC "-//W3C//DTD SVG 1.1//EN"
 "http://www.w3.org/Graphics/SVG/1.1/DTD/svg11.dtd">
<!-- Generated by graphviz version 2.43.0 (0)
 -->
<!-- Title: dependency&#45;cruiser output Pages: 1 -->
<svg width="579pt" height="526pt"
 viewBox="0.00 0.00 579.00 526.00" xmlns="http://www.w3.org/2000/svg" xmlns:xlink="http://www.w3.org/1999/xlink">
<g id="graph0" class="graph" transform="scale(1 1) rotate(0) translate(4 522)">
<title>dependency&#45;cruiser output</title>
<polygon fill="white" stroke="transparent" points="-4,4 -4,-522 575,-522 575,4 -4,4"/>
<g id="clust1" class="cluster">
<title>cluster_packages</title>
<path fill="#ffffff" stroke="black" stroke-width="2" d="M20,-8C20,-8 551,-8 551,-8 557,-8 563,-14 563,-20 563,-20 563,-498 563,-498 563,-504 557,-510 551,-510 551,-510 20,-510 20,-510 14,-510 8,-504 8,-498 8,-498 8,-20 8,-20 8,-14 14,-8 20,-8"/>
<text text-anchor="middle" x="285.5" y="-498.8" font-family="Helvetica,sans-Serif" font-weight="bold" font-size="9.00">packages</text>
</g>
<g id="clust2" class="cluster">
<title>cluster_packages/UI</title>
<path fill="#ffffff" stroke="black" stroke-width="2" d="M28,-16C28,-16 543,-16 543,-16 549,-16 555,-22 555,-28 555,-28 555,-472 555,-472 555,-478 549,-484 543,-484 543,-484 28,-484 28,-484 22,-484 16,-478 16,-472 16,-472 16,-28 16,-28 16,-22 22,-16 28,-16"/>
<text text-anchor="middle" x="285.5" y="-472.8" font-family="Helvetica,sans-Serif" font-weight="bold" font-size="9.00">UI</text>
</g>
<g id="clust3" class="cluster">
<title>cluster_packages/UI/view&#45;parameters</title>
<path fill="#ffffff" stroke="black" stroke-width="2" d="M36,-24C36,-24 535,-24 535,-24 541,-24 547,-30 547,-36 547,-36 547,-446 547,-446 547,-452 541,-458 535,-458 535,-458 36,-458 36,-458 30,-458 24,-452 24,-446 24,-446 24,-36 24,-36 24,-30 30,-24 36,-24"/>
<text text-anchor="middle" x="285.5" y="-446.8" font-family="Helvetica,sans-Serif" font-weight="bold" font-size="9.00">view&#45;parameters</text>
</g>
<g id="clust4" class="cluster">
<title>cluster_packages/UI/view&#45;parameters/src</title>
<path fill="#ffffff" stroke="black" stroke-width="2" d="M106,-32C106,-32 527,-32 527,-32 533,-32 539,-38 539,-44 539,-44 539,-420 539,-420 539,-426 533,-432 527,-432 527,-432 106,-432 106,-432 100,-432 94,-426 94,-420 94,-420 94,-44 94,-44 94,-38 100,-32 106,-32"/>
<text text-anchor="middle" x="316.5" y="-420.8" font-family="Helvetica,sans-Serif" font-weight="bold" font-size="9.00">src</text>
</g>
<g id="clust5" class="cluster">
<title>cluster_packages/UI/view&#45;parameters/src/song&#45;parameters</title>
<path fill="#ffffff" stroke="black" stroke-width="2" d="M114,-66C114,-66 519,-66 519,-66 525,-66 531,-72 531,-78 531,-78 531,-368 531,-368 531,-374 525,-380 519,-380 519,-380 114,-380 114,-380 108,-380 102,-374 102,-368 102,-368 102,-78 102,-78 102,-72 108,-66 114,-66"/>
<text text-anchor="middle" x="316.5" y="-368.8" font-family="Helvetica,sans-Serif" font-weight="bold" font-size="9.00">song&#45;parameters</text>
</g>
<!-- packages/UI/view&#45;parameters/index.ts -->
<g id="node1" class="node">
<title>packages/UI/view&#45;parameters/index.ts</title>
<g id="a_node1"><a xlink:href="packages/UI/view-parameters/index.ts" xlink:title="index.ts">
<path fill="#ddfeff" stroke="black" d="M80,-318C80,-318 38,-318 38,-318 35,-318 32,-315 32,-312 32,-312 32,-306 32,-306 32,-303 35,-300 38,-300 38,-300 80,-300 80,-300 83,-300 86,-303 86,-306 86,-306 86,-312 86,-312 86,-315 83,-318 80,-318"/>
<text text-anchor="start" x="40.5" y="-306.8" font-family="Helvetica,sans-Serif" font-size="9.00">index.ts</text>
</a>
</g>
</g>
<!-- packages/UI/view&#45;parameters/src/note&#45;size.ts -->
<g id="node2" class="node">
<title>packages/UI/view&#45;parameters/src/note&#45;size.ts</title>
<g id="a_node2"><a xlink:href="packages/UI/view-parameters/src/note-size.ts" xlink:title="note&#45;size.ts">
<path fill="#ddfeff" stroke="black" d="M165,-406C165,-406 109,-406 109,-406 106,-406 103,-403 103,-400 103,-400 103,-394 103,-394 103,-391 106,-388 109,-388 109,-388 165,-388 165,-388 168,-388 171,-391 171,-394 171,-394 171,-400 171,-400 171,-403 168,-406 165,-406"/>
<text text-anchor="start" x="111" y="-394.8" font-family="Helvetica,sans-Serif" font-size="9.00">note&#45;size.ts</text>
</a>
</g>
</g>
<!-- packages/UI/view&#45;parameters/index.ts&#45;&gt;packages/UI/view&#45;parameters/src/note&#45;size.ts -->
<g id="edge1" class="edge">
<title>packages/UI/view&#45;parameters/index.ts&#45;&gt;packages/UI/view&#45;parameters/src/note&#45;size.ts</title>
<path fill="none" stroke="#000000" stroke-width="2" stroke-opacity="0.200000" d="M64.17,-318.07C73.25,-337.83 94,-383 94,-383 94,-383 97.6,-384.2 102.68,-385.89"/>
<polygon fill="#000000" fill-opacity="0.200000" stroke="#000000" stroke-width="2" stroke-opacity="0.200000" points="108.03,-389.89 103,-386 109.35,-385.9 108.03,-389.89"/>
</g>
<!-- packages/UI/view&#45;parameters/src/now&#45;at.ts -->
<g id="node3" class="node">
<title>packages/UI/view&#45;parameters/src/now&#45;at.ts</title>
<g id="a_node3"><a xlink:href="packages/UI/view-parameters/src/now-at.ts" xlink:title="now&#45;at.ts">
<path fill="#ddfeff" stroke="black" d="M160.5,-58C160.5,-58 113.5,-58 113.5,-58 110.5,-58 107.5,-55 107.5,-52 107.5,-52 107.5,-46 107.5,-46 107.5,-43 110.5,-40 113.5,-40 113.5,-40 160.5,-40 160.5,-40 163.5,-40 166.5,-43 166.5,-46 166.5,-46 166.5,-52 166.5,-52 166.5,-55 163.5,-58 160.5,-58"/>
<text text-anchor="start" x="115.5" y="-46.8" font-family="Helvetica,sans-Serif" font-size="9.00">now&#45;at.ts</text>
</a>
</g>
</g>
<!-- packages/UI/view&#45;parameters/index.ts&#45;&gt;packages/UI/view&#45;parameters/src/now&#45;at.ts -->
<g id="edge2" class="edge">
<title>packages/UI/view&#45;parameters/index.ts&#45;&gt;packages/UI/view&#45;parameters/src/now&#45;at.ts</title>
<path fill="none" stroke="#000000" stroke-width="2" stroke-opacity="0.200000" d="M61.25,-299.95C67.38,-255.57 94,-63 94,-63 94,-63 97.6,-61.8 102.68,-60.11"/>
<polygon fill="#000000" fill-opacity="0.200000" stroke="#000000" stroke-width="2" stroke-opacity="0.200000" points="109.35,-60.1 103,-60 108.03,-56.11 109.35,-60.1"/>
</g>
<!-- packages/UI/view&#45;parameters/src/piano&#45;roll&#45;ratio.ts -->
<g id="node4" class="node">
<title>packages/UI/view&#45;parameters/src/piano&#45;roll&#45;ratio.ts</title>
<g id="a_node4"><a xlink:href="packages/UI/view-parameters/src/piano-roll-ratio.ts" xlink:title="piano&#45;roll&#45;ratio.ts">
<path fill="#ddfeff" stroke="black" d="M278,-406C278,-406 197,-406 197,-406 194,-406 191,-403 191,-400 191,-400 191,-394 191,-394 191,-391 194,-388 197,-388 197,-388 278,-388 278,-388 281,-388 284,-391 284,-394 284,-394 284,-400 284,-400 284,-403 281,-406 278,-406"/>
<text text-anchor="start" x="199" y="-394.8" font-family="Helvetica,sans-Serif" font-size="9.00">piano&#45;roll&#45;ratio.ts</text>
</a>
</g>
</g>
<!-- packages/UI/view&#45;parameters/index.ts&#45;&gt;packages/UI/view&#45;parameters/src/piano&#45;roll&#45;ratio.ts -->
<g id="edge3" class="edge">
<title>packages/UI/view&#45;parameters/index.ts&#45;&gt;packages/UI/view&#45;parameters/src/piano&#45;roll&#45;ratio.ts</title>
<path fill="none" stroke="#000000" stroke-width="2" stroke-opacity="0.200000" d="M63.02,-318.14C71.34,-343.35 94,-412 94,-412 94,-412 171,-412 171,-412 171,-412 179.77,-409.99 190.89,-407.44"/>
<polygon fill="#000000" fill-opacity="0.200000" stroke="#000000" stroke-width="2" stroke-opacity="0.200000" points="197.36,-408.12 191.04,-407.41 196.42,-404.02 197.36,-408.12"/>
</g>
<!-- packages/UI/view&#45;parameters/src/song&#45;parameters/index.ts -->
<g id="node5" class="node">
<title>packages/UI/view&#45;parameters/src/song&#45;parameters/index.ts</title>
<g id="a_node5"><a xlink:href="packages/UI/view-parameters/src/song-parameters/index.ts" xlink:title="index.ts">
<path fill="#ddfeff" stroke="black" d="M158,-230C158,-230 116,-230 116,-230 113,-230 110,-227 110,-224 110,-224 110,-218 110,-218 110,-215 113,-212 116,-212 116,-212 158,-212 158,-212 161,-212 164,-215 164,-218 164,-218 164,-224 164,-224 164,-227 161,-230 158,-230"/>
<text text-anchor="start" x="118.5" y="-218.8" font-family="Helvetica,sans-Serif" font-size="9.00">index.ts</text>
</a>
</g>
</g>
<!-- packages/UI/view&#45;parameters/index.ts&#45;&gt;packages/UI/view&#45;parameters/src/song&#45;parameters/index.ts -->
<g id="edge4" class="edge">
<title>packages/UI/view&#45;parameters/index.ts&#45;&gt;packages/UI/view&#45;parameters/src/song&#45;parameters/index.ts</title>
<path fill="none" stroke="#000000" stroke-width="2" stroke-opacity="0.200000" d="M64.17,-299.8C73.25,-279.78 94,-234 94,-234 94,-234 98.05,-232.75 103.64,-231.02"/>
<polygon fill="#000000" fill-opacity="0.200000" stroke="#000000" stroke-width="2" stroke-opacity="0.200000" points="110.26,-231.17 103.91,-230.93 109.02,-227.15 110.26,-231.17"/>
</g>
<!-- packages/UI/view&#45;parameters/src/note&#45;size.ts&#45;&gt;packages/UI/view&#45;parameters/src/piano&#45;roll&#45;ratio.ts -->
<g id="edge5" class="edge">
<title>packages/UI/view&#45;parameters/src/note&#45;size.ts&#45;&gt;packages/UI/view&#45;parameters/src/piano&#45;roll&#45;ratio.ts</title>
<path fill="none" stroke="#000000" stroke-width="2" stroke-opacity="0.200000" d="M171.07,-397C175.45,-397 180.03,-397 184.63,-397"/>
<polygon fill="#000000" fill-opacity="0.200000" stroke="#000000" stroke-width="2" stroke-opacity="0.200000" points="184.91,-399.1 190.91,-397 184.91,-394.9 184.91,-399.1"/>
</g>
<!-- packages/UI/view&#45;parameters/src/song&#45;parameters/piano&#45;roll&#45;width.ts -->
<g id="node6" class="node">
<title>packages/UI/view&#45;parameters/src/song&#45;parameters/piano&#45;roll&#45;width.ts</title>
<g id="a_node6"><a xlink:href="packages/UI/view-parameters/src/song-parameters/piano-roll-width.ts" xlink:title="piano&#45;roll&#45;width.ts">
<path fill="#ddfeff" stroke="black" d="M401,-208C401,-208 315,-208 315,-208 312,-208 309,-205 309,-202 309,-202 309,-196 309,-196 309,-193 312,-190 315,-190 315,-190 401,-190 401,-190 404,-190 407,-193 407,-196 407,-196 407,-202 407,-202 407,-205 404,-208 401,-208"/>
<text text-anchor="start" x="317" y="-196.8" font-family="Helvetica,sans-Serif" font-size="9.00">piano&#45;roll&#45;width.ts</text>
</a>
</g>
</g>
<!-- packages/UI/view&#45;parameters/src/note&#45;size.ts&#45;&gt;packages/UI/view&#45;parameters/src/song&#45;parameters/piano&#45;roll&#45;width.ts -->
<g id="edge6" class="edge">
<title>packages/UI/view&#45;parameters/src/note&#45;size.ts&#45;&gt;packages/UI/view&#45;parameters/src/song&#45;parameters/piano&#45;roll&#45;width.ts</title>
<path fill="none" stroke="#000000" stroke-width="2" stroke-opacity="0.200000" d="M165.82,-387.93C175.51,-384.77 184,-382 184,-382 184,-382 291,-360 291,-360 291,-360 304,-260 304,-260 304,-260 329.43,-230.73 345.06,-212.74"/>
<polygon fill="#000000" fill-opacity="0.200000" stroke="#000000" stroke-width="2" stroke-opacity="0.200000" points="346.83,-213.91 349.18,-208 343.66,-211.15 346.83,-213.91"/>
</g>
<!-- packages/UI/view&#45;parameters/src/song&#45;parameters/song&#45;length.ts -->
<g id="node7" class="node">
<title>packages/UI/view&#45;parameters/src/song&#45;parameters/song&#45;length.ts</title>
<g id="a_node7"><a xlink:href="packages/UI/view-parameters/src/song-parameters/song-length.ts" xlink:title="song&#45;length.ts">
<path fill="#ddfeff" stroke="black" d="M272.5,-354C272.5,-354 202.5,-354 202.5,-354 199.5,-354 196.5,-351 196.5,-348 196.5,-348 196.5,-342 196.5,-342 196.5,-339 199.5,-336 202.5,-336 202.5,-336 272.5,-336 272.5,-336 275.5,-336 278.5,-339 278.5,-342 278.5,-342 278.5,-348 278.5,-348 278.5,-351 275.5,-354 272.5,-354"/>
<text text-anchor="start" x="204.5" y="-342.8" font-family="Helvetica,sans-Serif" font-size="9.00">song&#45;length.ts</text>
</a>
</g>
</g>
<!-- packages/UI/view&#45;parameters/src/note&#45;size.ts&#45;&gt;packages/UI/view&#45;parameters/src/song&#45;parameters/song&#45;length.ts -->
<g id="edge7" class="edge">
<title>packages/UI/view&#45;parameters/src/note&#45;size.ts&#45;&gt;packages/UI/view&#45;parameters/src/song&#45;parameters/song&#45;length.ts</title>
<path fill="none" stroke="#000000" stroke-width="2" stroke-opacity="0.200000" d="M159.46,-387.9C165.76,-385.22 171,-383 171,-383 171,-383 184,-358 184,-358 184,-358 188.15,-356.97 194.11,-355.5"/>
<polygon fill="#000000" fill-opacity="0.200000" stroke="#000000" stroke-width="2" stroke-opacity="0.200000" points="194.72,-357.51 200.04,-354.03 193.71,-353.43 194.72,-357.51"/>
</g>
<!-- packages/UI/view&#45;parameters/src/song&#45;parameters/index.ts&#45;&gt;packages/UI/view&#45;parameters/src/song&#45;parameters/piano&#45;roll&#45;width.ts -->
<g id="edge22" class="edge">
<title>packages/UI/view&#45;parameters/src/song&#45;parameters/index.ts&#45;&gt;packages/UI/view&#45;parameters/src/song&#45;parameters/piano&#45;roll&#45;width.ts</title>
<path fill="none" stroke="#000000" stroke-width="2" stroke-opacity="0.200000" d="M164.42,-218.35C198.53,-214.92 258.76,-208.87 302.8,-204.45"/>
<polygon fill="#000000" fill-opacity="0.200000" stroke="#000000" stroke-width="2" stroke-opacity="0.200000" points="309.11,-205.92 302.93,-204.43 308.69,-201.74 309.11,-205.92"/>
</g>
<!-- packages/UI/view&#45;parameters/src/song&#45;parameters/index.ts&#45;&gt;packages/UI/view&#45;parameters/src/song&#45;parameters/song&#45;length.ts -->
<g id="edge25" class="edge">
<title>packages/UI/view&#45;parameters/src/song&#45;parameters/index.ts&#45;&gt;packages/UI/view&#45;parameters/src/song&#45;parameters/song&#45;length.ts</title>
<path fill="none" stroke="#000000" stroke-width="2" stroke-opacity="0.200000" d="M160.92,-230.03C166.55,-232.25 171,-234 171,-234 171,-234 184,-327 184,-327 184,-327 193.37,-330.21 204.19,-333.92"/>
<polygon fill="#000000" fill-opacity="0.200000" stroke="#000000" stroke-width="2" stroke-opacity="0.200000" points="209.26,-337.88 204.27,-333.95 210.62,-333.91 209.26,-337.88"/>
</g>
<!-- packages/UI/view&#45;parameters/src/song&#45;parameters/black&#45;key.ts -->
<g id="node8" class="node">
<title>packages/UI/view&#45;parameters/src/song&#45;parameters/black&#45;key.ts</title>
<g id="a_node8"><a xlink:href="packages/UI/view-parameters/src/song-parameters/black-key.ts" xlink:title="black&#45;key.ts">
<path fill="#ddfeff" stroke="black" d="M266,-106C266,-106 209,-106 209,-106 206,-106 203,-103 203,-100 203,-100 203,-94 203,-94 203,-91 206,-88 209,-88 209,-88 266,-88 266,-88 269,-88 272,-91 272,-94 272,-94 272,-100 272,-100 272,-103 269,-106 266,-106"/>
<text text-anchor="start" x="211" y="-94.8" font-family="Helvetica,sans-Serif" font-size="9.00">black&#45;key.ts</text>
</a>
</g>
</g>
<!-- packages/UI/view&#45;parameters/src/song&#45;parameters/index.ts&#45;&gt;packages/UI/view&#45;parameters/src/song&#45;parameters/black&#45;key.ts -->
<g id="edge12" class="edge">
<title>packages/UI/view&#45;parameters/src/song&#45;parameters/index.ts&#45;&gt;packages/UI/view&#45;parameters/src/song&#45;parameters/black&#45;key.ts</title>
<path fill="none" stroke="#000000" stroke-width="2" stroke-opacity="0.200000" d="M160.92,-211.97C166.55,-209.75 171,-208 171,-208 171,-208 184,-115 184,-115 184,-115 193.37,-111.79 204.19,-108.08"/>
<polygon fill="#000000" fill-opacity="0.200000" stroke="#000000" stroke-width="2" stroke-opacity="0.200000" points="210.62,-108.09 204.27,-108.05 209.26,-104.12 210.62,-108.09"/>
</g>
<!-- packages/UI/view&#45;parameters/src/song&#45;parameters/key.ts -->
<g id="node9" class="node">
<title>packages/UI/view&#45;parameters/src/song&#45;parameters/key.ts</title>
<g id="a_node9"><a xlink:href="packages/UI/view-parameters/src/song-parameters/key.ts" xlink:title="key.ts">
<path fill="#ddfeff" stroke="black" d="M379,-128C379,-128 337,-128 337,-128 334,-128 331,-125 331,-122 331,-122 331,-116 331,-116 331,-113 334,-110 337,-110 337,-110 379,-110 379,-110 382,-110 385,-113 385,-116 385,-116 385,-122 385,-122 385,-125 382,-128 379,-128"/>
<text text-anchor="start" x="345" y="-116.8" font-family="Helvetica,sans-Serif" font-size="9.00">key.ts</text>
</a>
</g>
</g>
<!-- packages/UI/view&#45;parameters/src/song&#45;parameters/index.ts&#45;&gt;packages/UI/view&#45;parameters/src/song&#45;parameters/key.ts -->
<g id="edge16" class="edge">
<title>packages/UI/view&#45;parameters/src/song&#45;parameters/index.ts&#45;&gt;packages/UI/view&#45;parameters/src/song&#45;parameters/key.ts</title>
<path fill="none" stroke="#000000" stroke-width="2" stroke-opacity="0.200000" d="M160.92,-211.97C166.55,-209.75 171,-208 171,-208 171,-208 184,-126 184,-126 184,-126 274.43,-122.34 324.53,-120.31"/>
<polygon fill="#000000" fill-opacity="0.200000" stroke="#000000" stroke-width="2" stroke-opacity="0.200000" points="330.81,-122.16 324.73,-120.31 330.64,-117.96 330.81,-122.16"/>
</g>
<!-- packages/UI/view&#45;parameters/src/song&#45;parameters/rect&#45;parameter.ts -->
<g id="node10" class="node">
<title>packages/UI/view&#45;parameters/src/song&#45;parameters/rect&#45;parameter.ts</title>
<g id="a_node10"><a xlink:href="packages/UI/view-parameters/src/song-parameters/rect-parameter.ts" xlink:title="rect&#45;parameter.ts">
<path fill="#ddfeff" stroke="black" d="M515.5,-106C515.5,-106 432.5,-106 432.5,-106 429.5,-106 426.5,-103 426.5,-100 426.5,-100 426.5,-94 426.5,-94 426.5,-91 429.5,-88 432.5,-88 432.5,-88 515.5,-88 515.5,-88 518.5,-88 521.5,-91 521.5,-94 521.5,-94 521.5,-100 521.5,-100 521.5,-103 518.5,-106 515.5,-106"/>
<text text-anchor="start" x="434.5" y="-94.8" font-family="Helvetica,sans-Serif" font-size="9.00">rect&#45;parameter.ts</text>
</a>
</g>
</g>
<!-- packages/UI/view&#45;parameters/src/song&#45;parameters/index.ts&#45;&gt;packages/UI/view&#45;parameters/src/song&#45;parameters/rect&#45;parameter.ts -->
<g id="edge23" class="edge">
<title>packages/UI/view&#45;parameters/src/song&#45;parameters/index.ts&#45;&gt;packages/UI/view&#45;parameters/src/song&#45;parameters/rect&#45;parameter.ts</title>
<path fill="none" stroke="#000000" stroke-width="2" stroke-opacity="0.200000" d="M160.92,-211.97C166.55,-209.75 171,-208 171,-208 171,-208 184,-82 184,-82 184,-82 291,-82 291,-82 291,-82 366.29,-88.21 420.02,-92.63"/>
<polygon fill="#000000" fill-opacity="0.200000" stroke="#000000" stroke-width="2" stroke-opacity="0.200000" points="425.96,-95.23 420.15,-92.64 426.3,-91.04 425.96,-95.23"/>
</g>
<!-- packages/UI/view&#45;parameters/src/song&#45;parameters/bracket&#45;height.ts -->
<g id="node11" class="node">
<title>packages/UI/view&#45;parameters/src/song&#45;parameters/bracket&#45;height.ts</title>
<g id="a_node11"><a xlink:href="packages/UI/view-parameters/src/song-parameters/bracket-height.ts" xlink:title="bracket&#45;height.ts">
<path fill="#ddfeff" stroke="black" d="M279,-150C279,-150 196,-150 196,-150 193,-150 190,-147 190,-144 190,-144 190,-138 190,-138 190,-135 193,-132 196,-132 196,-132 279,-132 279,-132 282,-132 285,-135 285,-138 285,-138 285,-144 285,-144 285,-147 282,-150 279,-150"/>
<text text-anchor="start" x="198" y="-138.8" font-family="Helvetica,sans-Serif" font-size="9.00">bracket&#45;height.ts</text>
</a>
</g>
</g>
<!-- packages/UI/view&#45;parameters/src/song&#45;parameters/index.ts&#45;&gt;packages/UI/view&#45;parameters/src/song&#45;parameters/bracket&#45;height.ts -->
<g id="edge13" class="edge">
<title>packages/UI/view&#45;parameters/src/song&#45;parameters/index.ts&#45;&gt;packages/UI/view&#45;parameters/src/song&#45;parameters/bracket&#45;height.ts</title>
<path fill="none" stroke="#000000" stroke-width="2" stroke-opacity="0.200000" d="M160.92,-211.97C166.55,-209.75 171,-208 171,-208 171,-208 184,-159 184,-159 184,-159 193.37,-155.79 204.19,-152.08"/>
<polygon fill="#000000" fill-opacity="0.200000" stroke="#000000" stroke-width="2" stroke-opacity="0.200000" points="210.62,-152.09 204.27,-152.05 209.26,-148.12 210.62,-152.09"/>
</g>
<!-- packages/UI/view&#45;parameters/src/song&#45;parameters/current&#45;time&#45;ratio.ts -->
<g id="node12" class="node">
<title>packages/UI/view&#45;parameters/src/song&#45;parameters/current&#45;time&#45;ratio.ts</title>
<g id="a_node12"><a xlink:href="packages/UI/view-parameters/src/song-parameters/current-time-ratio.ts" xlink:title="current&#45;time&#45;ratio.ts">
<path fill="#ddfeff" stroke="black" d="M406,-175C406,-175 310,-175 310,-175 307,-175 304,-172 304,-169 304,-169 304,-163 304,-163 304,-160 307,-157 310,-157 310,-157 406,-157 406,-157 409,-157 412,-160 412,-163 412,-163 412,-169 412,-169 412,-172 409,-175 406,-175"/>
<text text-anchor="start" x="312" y="-163.8" font-family="Helvetica,sans-Serif" font-size="9.00">current&#45;time&#45;ratio.ts</text>
</a>
</g>
</g>
<!-- packages/UI/view&#45;parameters/src/song&#45;parameters/index.ts&#45;&gt;packages/UI/view&#45;parameters/src/song&#45;parameters/current&#45;time&#45;ratio.ts -->
<g id="edge14" class="edge">
<title>packages/UI/view&#45;parameters/src/song&#45;parameters/index.ts&#45;&gt;packages/UI/view&#45;parameters/src/song&#45;parameters/current&#45;time&#45;ratio.ts</title>
<path fill="none" stroke="#000000" stroke-width="2" stroke-opacity="0.200000" d="M160.92,-211.97C166.55,-209.75 171,-208 171,-208 171,-208 184,-170 184,-170 184,-170 247.58,-168.53 297.65,-167.37"/>
<polygon fill="#000000" fill-opacity="0.200000" stroke="#000000" stroke-width="2" stroke-opacity="0.200000" points="303.73,-169.33 297.68,-167.37 303.63,-165.13 303.73,-169.33"/>
</g>
<!-- packages/UI/view&#45;parameters/src/song&#45;parameters/current&#45;time&#45;x.ts -->
<g id="node13" class="node">
<title>packages/UI/view&#45;parameters/src/song&#45;parameters/current&#45;time&#45;x.ts</title>
<g id="a_node13"><a xlink:href="packages/UI/view-parameters/src/song-parameters/current-time-x.ts" xlink:title="current&#45;time&#45;x.ts">
<path fill="#ddfeff" stroke="black" d="M278,-194C278,-194 197,-194 197,-194 194,-194 191,-191 191,-188 191,-188 191,-182 191,-182 191,-179 194,-176 197,-176 197,-176 278,-176 278,-176 281,-176 284,-179 284,-182 284,-182 284,-188 284,-188 284,-191 281,-194 278,-194"/>
<text text-anchor="start" x="199" y="-182.8" font-family="Helvetica,sans-Serif" font-size="9.00">current&#45;time&#45;x.ts</text>
</a>
</g>
</g>
<!-- packages/UI/view&#45;parameters/src/song&#45;parameters/index.ts&#45;&gt;packages/UI/view&#45;parameters/src/song&#45;parameters/current&#45;time&#45;x.ts -->
<g id="edge15" class="edge">
<title>packages/UI/view&#45;parameters/src/song&#45;parameters/index.ts&#45;&gt;packages/UI/view&#45;parameters/src/song&#45;parameters/current&#45;time&#45;x.ts</title>
<path fill="none" stroke="#000000" stroke-width="2" stroke-opacity="0.200000" d="M161.27,-211.89C172.68,-207.43 184,-203 184,-203 184,-203 193.37,-199.79 204.19,-196.08"/>
<polygon fill="#000000" fill-opacity="0.200000" stroke="#000000" stroke-width="2" stroke-opacity="0.200000" points="210.62,-196.09 204.27,-196.05 209.26,-192.12 210.62,-196.09"/>
</g>
<!-- packages/UI/view&#45;parameters/src/song&#45;parameters/octave&#45;count.ts -->
<g id="node14" class="node">
<title>packages/UI/view&#45;parameters/src/song&#45;parameters/octave&#45;count.ts</title>
<g id="a_node14"><a xlink:href="packages/UI/view-parameters/src/song-parameters/octave-count.ts" xlink:title="octave&#45;count.ts">
<path fill="#ddfeff" stroke="black" d="M395.5,-284C395.5,-284 320.5,-284 320.5,-284 317.5,-284 314.5,-281 314.5,-278 314.5,-278 314.5,-272 314.5,-272 314.5,-269 317.5,-266 320.5,-266 320.5,-266 395.5,-266 395.5,-266 398.5,-266 401.5,-269 401.5,-272 401.5,-272 401.5,-278 401.5,-278 401.5,-281 398.5,-284 395.5,-284"/>
<text text-anchor="start" x="322.5" y="-272.8" font-family="Helvetica,sans-Serif" font-size="9.00">octave&#45;count.ts</text>
</a>
</g>
</g>
<!-- packages/UI/view&#45;parameters/src/song&#45;parameters/index.ts&#45;&gt;packages/UI/view&#45;parameters/src/song&#45;parameters/octave&#45;count.ts -->
<g id="edge17" class="edge">
<title>packages/UI/view&#45;parameters/src/song&#45;parameters/index.ts&#45;&gt;packages/UI/view&#45;parameters/src/song&#45;parameters/octave&#45;count.ts</title>
<path fill="none" stroke="#000000" stroke-width="2" stroke-opacity="0.200000" d="M160.92,-230.03C166.55,-232.25 171,-234 171,-234 171,-234 184,-272 184,-272 184,-272 256.95,-273.27 308.11,-274.15"/>
<polygon fill="#000000" fill-opacity="0.200000" stroke="#000000" stroke-width="2" stroke-opacity="0.200000" points="314.2,-276.36 308.24,-274.15 314.27,-272.16 314.2,-276.36"/>
</g>
<!-- packages/UI/view&#45;parameters/src/song&#45;parameters/octave&#45;height.ts -->
<g id="node15" class="node">
<title>packages/UI/view&#45;parameters/src/song&#45;parameters/octave&#45;height.ts</title>
<g id="a_node15"><a xlink:href="packages/UI/view-parameters/src/song-parameters/octave-height.ts" xlink:title="octave&#45;height.ts">
<path fill="#ddfeff" stroke="black" d="M513,-230C513,-230 435,-230 435,-230 432,-230 429,-227 429,-224 429,-224 429,-218 429,-218 429,-215 432,-212 435,-212 435,-212 513,-212 513,-212 516,-212 519,-215 519,-218 519,-218 519,-224 519,-224 519,-227 516,-230 513,-230"/>
<text text-anchor="start" x="437" y="-218.8" font-family="Helvetica,sans-Serif" font-size="9.00">octave&#45;height.ts</text>
</a>
</g>
</g>
<!-- packages/UI/view&#45;parameters/src/song&#45;parameters/index.ts&#45;&gt;packages/UI/view&#45;parameters/src/song&#45;parameters/octave&#45;height.ts -->
<g id="edge18" class="edge">
<title>packages/UI/view&#45;parameters/src/song&#45;parameters/index.ts&#45;&gt;packages/UI/view&#45;parameters/src/song&#45;parameters/octave&#45;height.ts</title>
<path fill="none" stroke="#000000" stroke-width="2" stroke-opacity="0.200000" d="M164.01,-221C219.45,-221 350.07,-221 422.48,-221"/>
<polygon fill="#000000" fill-opacity="0.200000" stroke="#000000" stroke-width="2" stroke-opacity="0.200000" points="428.87,-223.1 422.87,-221 428.87,-218.9 428.87,-223.1"/>
</g>
<!-- packages/UI/view&#45;parameters/src/song&#45;parameters/piano&#45;roll&#45;begin.ts -->
<g id="node16" class="node">
<title>packages/UI/view&#45;parameters/src/song&#45;parameters/piano&#45;roll&#45;begin.ts</title>
<g id="a_node16"><a xlink:href="packages/UI/view-parameters/src/song-parameters/piano-roll-begin.ts" xlink:title="piano&#45;roll&#45;begin.ts">
<path fill="#ddfeff" stroke="black" d="M517,-272C517,-272 431,-272 431,-272 428,-272 425,-269 425,-266 425,-266 425,-260 425,-260 425,-257 428,-254 431,-254 431,-254 517,-254 517,-254 520,-254 523,-257 523,-260 523,-260 523,-266 523,-266 523,-269 520,-272 517,-272"/>
<text text-anchor="start" x="433" y="-260.8" font-family="Helvetica,sans-Serif" font-size="9.00">piano&#45;roll&#45;begin.ts</text>
</a>
</g>
</g>
<!-- packages/UI/view&#45;parameters/src/song&#45;parameters/index.ts&#45;&gt;packages/UI/view&#45;parameters/src/song&#45;parameters/piano&#45;roll&#45;begin.ts -->
<g id="edge19" class="edge">
<title>packages/UI/view&#45;parameters/src/song&#45;parameters/index.ts&#45;&gt;packages/UI/view&#45;parameters/src/song&#45;parameters/piano&#45;roll&#45;begin.ts</title>
<path fill="none" stroke="#000000" stroke-width="2" stroke-opacity="0.200000" d="M164.01,-224.26C218.51,-231.09 345.69,-247.04 418.76,-256.2"/>
<polygon fill="#000000" fill-opacity="0.200000" stroke="#000000" stroke-width="2" stroke-opacity="0.200000" points="424.53,-259.04 418.84,-256.21 425.06,-254.87 424.53,-259.04"/>
</g>
<!-- packages/UI/view&#45;parameters/src/song&#45;parameters/piano&#45;roll&#45;end.ts -->
<g id="node17" class="node">
<title>packages/UI/view&#45;parameters/src/song&#45;parameters/piano&#45;roll&#45;end.ts</title>
<g id="a_node17"><a xlink:href="packages/UI/view-parameters/src/song-parameters/piano-roll-end.ts" xlink:title="piano&#45;roll&#45;end.ts">
<path fill="#ddfeff" stroke="black" d="M513,-317C513,-317 435,-317 435,-317 432,-317 429,-314 429,-311 429,-311 429,-305 429,-305 429,-302 432,-299 435,-299 435,-299 513,-299 513,-299 516,-299 519,-302 519,-305 519,-305 519,-311 519,-311 519,-314 516,-317 513,-317"/>
<text text-anchor="start" x="437" y="-305.8" font-family="Helvetica,sans-Serif" font-size="9.00">piano&#45;roll&#45;end.ts</text>
</a>
</g>
</g>
<!-- packages/UI/view&#45;parameters/src/song&#45;parameters/index.ts&#45;&gt;packages/UI/view&#45;parameters/src/song&#45;parameters/piano&#45;roll&#45;end.ts -->
<g id="edge20" class="edge">
<title>packages/UI/view&#45;parameters/src/song&#45;parameters/index.ts&#45;&gt;packages/UI/view&#45;parameters/src/song&#45;parameters/piano&#45;roll&#45;end.ts</title>
<path fill="none" stroke="#000000" stroke-width="2" stroke-opacity="0.200000" d="M160.92,-230.03C166.55,-232.25 171,-234 171,-234 171,-234 184,-316 184,-316 184,-316 291,-316 291,-316 291,-316 368.95,-312.57 422.83,-310.21"/>
<polygon fill="#000000" fill-opacity="0.200000" stroke="#000000" stroke-width="2" stroke-opacity="0.200000" points="429.04,-312.03 422.95,-310.2 428.85,-307.84 429.04,-312.03"/>
</g>
<!-- packages/UI/view&#45;parameters/src/song&#45;parameters/piano&#45;roll&#45;height.ts -->
<g id="node18" class="node">
<title>packages/UI/view&#45;parameters/src/song&#45;parameters/piano&#45;roll&#45;height.ts</title>
<g id="a_node18"><a xlink:href="packages/UI/view-parameters/src/song-parameters/piano-roll-height.ts" xlink:title="piano&#45;roll&#45;height.ts">
<path fill="#ddfeff" stroke="black" d="M282.5,-266C282.5,-266 192.5,-266 192.5,-266 189.5,-266 186.5,-263 186.5,-260 186.5,-260 186.5,-254 186.5,-254 186.5,-251 189.5,-248 192.5,-248 192.5,-248 282.5,-248 282.5,-248 285.5,-248 288.5,-251 288.5,-254 288.5,-254 288.5,-260 288.5,-260 288.5,-263 285.5,-266 282.5,-266"/>
<text text-anchor="start" x="194.5" y="-254.8" font-family="Helvetica,sans-Serif" font-size="9.00">piano&#45;roll&#45;height.ts</text>
</a>
</g>
</g>
<!-- packages/UI/view&#45;parameters/src/song&#45;parameters/index.ts&#45;&gt;packages/UI/view&#45;parameters/src/song&#45;parameters/piano&#45;roll&#45;height.ts -->
<g id="edge21" class="edge">
<title>packages/UI/view&#45;parameters/src/song&#45;parameters/index.ts&#45;&gt;packages/UI/view&#45;parameters/src/song&#45;parameters/piano&#45;roll&#45;height.ts</title>
<path fill="none" stroke="#000000" stroke-width="2" stroke-opacity="0.200000" d="M161.27,-230.11C172.68,-234.57 184,-239 184,-239 184,-239 193.37,-242.21 204.19,-245.92"/>
<polygon fill="#000000" fill-opacity="0.200000" stroke="#000000" stroke-width="2" stroke-opacity="0.200000" points="209.26,-249.88 204.27,-245.95 210.62,-245.91 209.26,-249.88"/>
</g>
<!-- packages/UI/view&#45;parameters/src/song&#45;parameters/reservation&#45;range.ts -->
<g id="node19" class="node">
<title>packages/UI/view&#45;parameters/src/song&#45;parameters/reservation&#45;range.ts</title>
<g id="a_node19"><a xlink:href="packages/UI/view-parameters/src/song-parameters/reservation-range.ts" xlink:title="reservation&#45;range.ts">
<path fill="#ddfeff" stroke="black" d="M285,-310C285,-310 190,-310 190,-310 187,-310 184,-307 184,-304 184,-304 184,-298 184,-298 184,-295 187,-292 190,-292 190,-292 285,-292 285,-292 288,-292 291,-295 291,-298 291,-298 291,-304 291,-304 291,-307 288,-310 285,-310"/>
<text text-anchor="start" x="192" y="-298.8" font-family="Helvetica,sans-Serif" font-size="9.00">reservation&#45;range.ts</text>
</a>
</g>
</g>
<!-- packages/UI/view&#45;parameters/src/song&#45;parameters/index.ts&#45;&gt;packages/UI/view&#45;parameters/src/song&#45;parameters/reservation&#45;range.ts -->
<g id="edge24" class="edge">
<title>packages/UI/view&#45;parameters/src/song&#45;parameters/index.ts&#45;&gt;packages/UI/view&#45;parameters/src/song&#45;parameters/reservation&#45;range.ts</title>
<path fill="none" stroke="#000000" stroke-width="2" stroke-opacity="0.200000" d="M160.92,-230.03C166.55,-232.25 171,-234 171,-234 171,-234 184,-283 184,-283 184,-283 193.37,-286.21 204.19,-289.92"/>
<polygon fill="#000000" fill-opacity="0.200000" stroke="#000000" stroke-width="2" stroke-opacity="0.200000" points="209.26,-293.88 204.27,-289.95 210.62,-289.91 209.26,-293.88"/>
</g>
<!-- packages/UI/view&#45;parameters/src/song&#45;parameters/black&#45;key.ts&#45;&gt;packages/UI/view&#45;parameters/src/song&#45;parameters/key.ts -->
<g id="edge8" class="edge">
<title>packages/UI/view&#45;parameters/src/song&#45;parameters/black&#45;key.ts&#45;&gt;packages/UI/view&#45;parameters/src/song&#45;parameters/key.ts</title>
<path fill="none" stroke="#000000" stroke-width="2" stroke-opacity="0.200000" d="M272.14,-103.25C288.57,-106.3 308.26,-109.95 324.53,-112.97"/>
<polygon fill="#000000" fill-opacity="0.200000" stroke="#000000" stroke-width="2" stroke-opacity="0.200000" points="324.53,-115.11 330.81,-114.14 325.3,-110.98 324.53,-115.11"/>
</g>
<!-- packages/UI/view&#45;parameters/src/song&#45;parameters/black&#45;key.ts&#45;&gt;packages/UI/view&#45;parameters/src/song&#45;parameters/rect&#45;parameter.ts -->
<g id="edge9" class="edge">
<title>packages/UI/view&#45;parameters/src/song&#45;parameters/black&#45;key.ts&#45;&gt;packages/UI/view&#45;parameters/src/song&#45;parameters/rect&#45;parameter.ts</title>
<path fill="none" stroke="#000000" stroke-width="2" stroke-opacity="0.200000" d="M272.1,-97C310.68,-97 374.49,-97 419.83,-97"/>
<polygon fill="#000000" fill-opacity="0.200000" stroke="#000000" stroke-width="2" stroke-opacity="0.200000" points="420.1,-99.1 426.1,-97 420.1,-94.9 420.1,-99.1"/>
</g>
<!-- packages/UI/view&#45;parameters/src/song&#45;parameters/key.ts&#45;&gt;packages/UI/view&#45;parameters/src/song&#45;parameters/rect&#45;parameter.ts -->
<g id="edge27" class="edge">
<title>packages/UI/view&#45;parameters/src/song&#45;parameters/key.ts&#45;&gt;packages/UI/view&#45;parameters/src/song&#45;parameters/rect&#45;parameter.ts</title>
<path fill="none" stroke="#000000" stroke-width="2" stroke-opacity="0.200000" d="M385.15,-113.95C395.66,-111.93 408.17,-109.51 420.41,-107.15"/>
<polygon fill="#000000" fill-opacity="0.200000" stroke="#000000" stroke-width="2" stroke-opacity="0.200000" points="420.89,-109.2 426.38,-106 420.09,-105.07 420.89,-109.2"/>
</g>
<!-- packages/UI/view&#45;parameters/src/song&#45;parameters/key.ts&#45;&gt;packages/UI/view&#45;parameters/src/song&#45;parameters/octave&#45;height.ts -->
<g id="edge26" class="edge">
<title>packages/UI/view&#45;parameters/src/song&#45;parameters/key.ts&#45;&gt;packages/UI/view&#45;parameters/src/song&#45;parameters/octave&#45;height.ts</title>
<path fill="none" stroke="#000000" stroke-width="2" stroke-opacity="0.200000" d="M374.05,-128.08C389.72,-137.54 412,-151 412,-151 412,-151 443.27,-186.89 461.04,-207.27"/>
<polygon fill="#000000" fill-opacity="0.200000" stroke="#000000" stroke-width="2" stroke-opacity="0.200000" points="459.5,-208.7 465.03,-211.85 462.67,-205.95 459.5,-208.7"/>
</g>
<!-- packages/UI/view&#45;parameters/src/song&#45;parameters/current&#45;time&#45;x.ts&#45;&gt;packages/UI/view&#45;parameters/src/song&#45;parameters/piano&#45;roll&#45;width.ts -->
<g id="edge11" class="edge">
<title>packages/UI/view&#45;parameters/src/song&#45;parameters/current&#45;time&#45;x.ts&#45;&gt;packages/UI/view&#45;parameters/src/song&#45;parameters/piano&#45;roll&#45;width.ts</title>
<path fill="none" stroke="#000000" stroke-width="2" stroke-opacity="0.200000" d="M284.32,-190.41C290.37,-191.13 296.63,-191.87 302.81,-192.6"/>
<polygon fill="#000000" fill-opacity="0.200000" stroke="#000000" stroke-width="2" stroke-opacity="0.200000" points="302.75,-194.71 308.95,-193.32 303.24,-190.53 302.75,-194.71"/>
</g>
<!-- packages/UI/view&#45;parameters/src/song&#45;parameters/current&#45;time&#45;x.ts&#45;&gt;packages/UI/view&#45;parameters/src/song&#45;parameters/current&#45;time&#45;ratio.ts -->
<g id="edge10" class="edge">
<title>packages/UI/view&#45;parameters/src/song&#45;parameters/current&#45;time&#45;x.ts&#45;&gt;packages/UI/view&#45;parameters/src/song&#45;parameters/current&#45;time&#45;ratio.ts</title>
<path fill="none" stroke="#000000" stroke-width="2" stroke-opacity="0.200000" d="M284.32,-177.65C288.7,-176.95 293.2,-176.23 297.69,-175.51"/>
<polygon fill="#000000" fill-opacity="0.200000" stroke="#000000" stroke-width="2" stroke-opacity="0.200000" points="298.21,-177.55 303.8,-174.53 297.55,-173.41 298.21,-177.55"/>
</g>
<!-- packages/UI/view&#45;parameters/src/song&#45;parameters/octave&#45;count.ts&#45;&gt;packages/UI/view&#45;parameters/src/song&#45;parameters/piano&#45;roll&#45;begin.ts -->
<g id="edge28" class="edge">
<title>packages/UI/view&#45;parameters/src/song&#45;parameters/octave&#45;count.ts&#45;&gt;packages/UI/view&#45;parameters/src/song&#45;parameters/piano&#45;roll&#45;begin.ts</title>
<path fill="none" stroke="#000000" stroke-width="2" stroke-opacity="0.200000" d="M401.77,-270.5C407.25,-269.92 412.91,-269.33 418.54,-268.73"/>
<polygon fill="#000000" fill-opacity="0.200000" stroke="#000000" stroke-width="2" stroke-opacity="0.200000" points="418.88,-270.81 424.62,-268.09 418.44,-266.63 418.88,-270.81"/>
</g>
<!-- packages/UI/view&#45;parameters/src/song&#45;parameters/octave&#45;count.ts&#45;&gt;packages/UI/view&#45;parameters/src/song&#45;parameters/piano&#45;roll&#45;end.ts -->
<g id="edge29" class="edge">
<title>packages/UI/view&#45;parameters/src/song&#45;parameters/octave&#45;count.ts&#45;&gt;packages/UI/view&#45;parameters/src/song&#45;parameters/piano&#45;roll&#45;end.ts</title>
<path fill="none" stroke="#000000" stroke-width="2" stroke-opacity="0.200000" d="M390.15,-284.02C404.35,-288.13 421.27,-293.02 436.1,-297.32"/>
<polygon fill="#000000" fill-opacity="0.200000" stroke="#000000" stroke-width="2" stroke-opacity="0.200000" points="435.54,-299.34 441.89,-298.99 436.71,-295.31 435.54,-299.34"/>
</g>
<!-- packages/UI/view&#45;parameters/src/song&#45;parameters/piano&#45;roll&#45;height.ts&#45;&gt;packages/UI/view&#45;parameters/src/song&#45;parameters/octave&#45;count.ts -->
<g id="edge30" class="edge">
<title>packages/UI/view&#45;parameters/src/song&#45;parameters/piano&#45;roll&#45;height.ts&#45;&gt;packages/UI/view&#45;parameters/src/song&#45;parameters/octave&#45;count.ts</title>
<path fill="none" stroke="#000000" stroke-width="2" stroke-opacity="0.200000" d="M288.75,-264.63C295.09,-265.6 301.57,-266.58 307.9,-267.54"/>
<polygon fill="#000000" fill-opacity="0.200000" stroke="#000000" stroke-width="2" stroke-opacity="0.200000" points="307.91,-269.67 314.15,-268.49 308.54,-265.51 307.91,-269.67"/>
</g>
<!-- packages/UI/view&#45;parameters/src/song&#45;parameters/piano&#45;roll&#45;height.ts&#45;&gt;packages/UI/view&#45;parameters/src/song&#45;parameters/octave&#45;height.ts -->
<g id="edge31" class="edge">
<title>packages/UI/view&#45;parameters/src/song&#45;parameters/piano&#45;roll&#45;height.ts&#45;&gt;packages/UI/view&#45;parameters/src/song&#45;parameters/octave&#45;height.ts</title>
<path fill="none" stroke="#000000" stroke-width="2" stroke-opacity="0.200000" d="M288.52,-249.32C328.1,-243.24 383.12,-234.8 422.76,-228.71"/>
<polygon fill="#000000" fill-opacity="0.200000" stroke="#000000" stroke-width="2" stroke-opacity="0.200000" points="423.37,-230.74 428.98,-227.76 422.73,-226.59 423.37,-230.74"/>
</g>
</g>
</svg>
