<?xml version="1.0" encoding="UTF-8" standalone="no"?>
<!DOCTYPE svg PUBLIC "-//W3C//DTD SVG 1.1//EN"
 "http://www.w3.org/Graphics/SVG/1.1/DTD/svg11.dtd">
<!-- Generated by graphviz version 2.43.0 (0)
 -->
<!-- Title: dependency&#45;cruiser output Pages: 1 -->
<svg width="816pt" height="586pt"
 viewBox="0.00 0.00 816.00 586.00" xmlns="http://www.w3.org/2000/svg" xmlns:xlink="http://www.w3.org/1999/xlink">
<g id="graph0" class="graph" transform="scale(1 1) rotate(0) translate(4 582)">
<title>dependency&#45;cruiser output</title>
<polygon fill="white" stroke="transparent" points="-4,4 -4,-582 812,-582 812,4 -4,4"/>
<g id="clust1" class="cluster">
<title>cluster_packages</title>
<path fill="#ffffff" stroke="black" stroke-width="2" d="M20,-8C20,-8 788,-8 788,-8 794,-8 800,-14 800,-20 800,-20 800,-558 800,-558 800,-564 794,-570 788,-570 788,-570 20,-570 20,-570 14,-570 8,-564 8,-558 8,-558 8,-20 8,-20 8,-14 14,-8 20,-8"/>
<text text-anchor="middle" x="404" y="-558.8" font-family="Helvetica,sans-Serif" font-weight="bold" font-size="9.00">packages</text>
</g>
<g id="clust2" class="cluster">
<title>cluster_packages/UI</title>
<path fill="#ffffff" stroke="black" stroke-width="2" d="M28,-16C28,-16 780,-16 780,-16 786,-16 792,-22 792,-28 792,-28 792,-404 792,-404 792,-410 786,-416 780,-416 780,-416 28,-416 28,-416 22,-416 16,-410 16,-404 16,-404 16,-28 16,-28 16,-22 22,-16 28,-16"/>
<text text-anchor="middle" x="404" y="-404.8" font-family="Helvetica,sans-Serif" font-weight="bold" font-size="9.00">UI</text>
</g>
<g id="clust3" class="cluster">
<title>cluster_packages/UI/view&#45;parameters</title>
<path fill="#ffffff" stroke="black" stroke-width="2" d="M36,-24C36,-24 772,-24 772,-24 778,-24 784,-30 784,-36 784,-36 784,-378 784,-378 784,-384 778,-390 772,-390 772,-390 36,-390 36,-390 30,-390 24,-384 24,-378 24,-378 24,-36 24,-36 24,-30 30,-24 36,-24"/>
<text text-anchor="middle" x="404" y="-378.8" font-family="Helvetica,sans-Serif" font-weight="bold" font-size="9.00">view&#45;parameters</text>
</g>
<g id="clust4" class="cluster">
<title>cluster_packages/UI/view&#45;parameters/src</title>
<path fill="#ffffff" stroke="black" stroke-width="2" d="M44,-32C44,-32 764,-32 764,-32 770,-32 776,-38 776,-44 776,-44 776,-352 776,-352 776,-358 770,-364 764,-364 764,-364 44,-364 44,-364 38,-364 32,-358 32,-352 32,-352 32,-44 32,-44 32,-38 38,-32 44,-32"/>
<text text-anchor="middle" x="404" y="-352.8" font-family="Helvetica,sans-Serif" font-weight="bold" font-size="9.00">src</text>
</g>
<g id="clust5" class="cluster">
<title>cluster_packages/UI/view&#45;parameters/src/piano&#45;roll</title>
<path fill="#ffffff" stroke="black" stroke-width="2" d="M262,-96C262,-96 756,-96 756,-96 762,-96 768,-102 768,-108 768,-108 768,-196 768,-196 768,-202 762,-208 756,-208 756,-208 262,-208 262,-208 256,-208 250,-202 250,-196 250,-196 250,-108 250,-108 250,-102 256,-96 262,-96"/>
<text text-anchor="middle" x="509" y="-196.8" font-family="Helvetica,sans-Serif" font-weight="bold" font-size="9.00">piano&#45;roll</text>
</g>
<g id="clust6" class="cluster">
<title>cluster_packages/UI/view&#45;parameters/src/position</title>
<path fill="#ffffff" stroke="black" stroke-width="2" d="M413,-256C413,-256 496,-256 496,-256 502,-256 508,-262 508,-268 508,-268 508,-326 508,-326 508,-332 502,-338 496,-338 496,-338 413,-338 413,-338 407,-338 401,-332 401,-326 401,-326 401,-268 401,-268 401,-262 407,-256 413,-256"/>
<text text-anchor="middle" x="454.5" y="-326.8" font-family="Helvetica,sans-Serif" font-weight="bold" font-size="9.00">position</text>
</g>
<g id="clust7" class="cluster">
<title>cluster_packages/util</title>
<path fill="#ffffff" stroke="black" stroke-width="2" d="M541,-424C541,-424 619,-424 619,-424 625,-424 631,-430 631,-436 631,-436 631,-532 631,-532 631,-538 625,-544 619,-544 619,-544 541,-544 541,-544 535,-544 529,-538 529,-532 529,-532 529,-436 529,-436 529,-430 535,-424 541,-424"/>
<text text-anchor="middle" x="580" y="-532.8" font-family="Helvetica,sans-Serif" font-weight="bold" font-size="9.00">util</text>
</g>
<g id="clust8" class="cluster">
<title>cluster_packages/util/math</title>
<path fill="#ffffff" stroke="black" stroke-width="2" d="M549,-432C549,-432 611,-432 611,-432 617,-432 623,-438 623,-444 623,-444 623,-506 623,-506 623,-512 617,-518 611,-518 611,-518 549,-518 549,-518 543,-518 537,-512 537,-506 537,-506 537,-444 537,-444 537,-438 543,-432 549,-432"/>
<text text-anchor="middle" x="580" y="-506.8" font-family="Helvetica,sans-Serif" font-weight="bold" font-size="9.00">math</text>
</g>
<g id="clust9" class="cluster">
<title>cluster_packages/util/math/dist</title>
<path fill="#ffffff" stroke="black" stroke-width="2" d="M557,-440C557,-440 603,-440 603,-440 609,-440 615,-446 615,-452 615,-452 615,-480 615,-480 615,-486 609,-492 603,-492 603,-492 557,-492 557,-492 551,-492 545,-486 545,-480 545,-480 545,-452 545,-452 545,-446 551,-440 557,-440"/>
<text text-anchor="middle" x="580" y="-480.8" font-family="Helvetica,sans-Serif" font-weight="bold" font-size="9.00">dist</text>
</g>
<!-- packages/UI/view&#45;parameters/src/bracket&#45;height.ts -->
<g id="node1" class="node">
<title>packages/UI/view&#45;parameters/src/bracket&#45;height.ts</title>
<g id="a_node1"><a xlink:href="packages/UI/view-parameters/src/bracket-height.ts" xlink:title="no&#45;orphans">
<path fill="#ccffcc" stroke="orange" d="M142,-275C142,-275 59,-275 59,-275 56,-275 53,-272 53,-269 53,-269 53,-263 53,-263 53,-260 56,-257 59,-257 59,-257 142,-257 142,-257 145,-257 148,-260 148,-263 148,-263 148,-269 148,-269 148,-272 145,-275 142,-275"/>
<text text-anchor="start" x="61" y="-263.8" font-family="Helvetica,sans-Serif" font-size="9.00" fill="orange">bracket&#45;height.ts</text>
</a>
</g>
</g>
<!-- packages/UI/view&#45;parameters/src/current&#45;time&#45;ratio.ts -->
<g id="node2" class="node">
<title>packages/UI/view&#45;parameters/src/current&#45;time&#45;ratio.ts</title>
<g id="a_node2"><a xlink:href="packages/UI/view-parameters/src/current-time-ratio.ts" xlink:title="current&#45;time&#45;ratio.ts">
<path fill="#ddfeff" stroke="black" d="M628,-58C628,-58 532,-58 532,-58 529,-58 526,-55 526,-52 526,-52 526,-46 526,-46 526,-43 529,-40 532,-40 532,-40 628,-40 628,-40 631,-40 634,-43 634,-46 634,-46 634,-52 634,-52 634,-55 631,-58 628,-58"/>
<text text-anchor="start" x="534" y="-46.8" font-family="Helvetica,sans-Serif" font-size="9.00">current&#45;time&#45;ratio.ts</text>
</a>
</g>
</g>
<!-- packages/UI/view&#45;parameters/src/current&#45;time&#45;x.ts -->
<g id="node3" class="node">
<title>packages/UI/view&#45;parameters/src/current&#45;time&#45;x.ts</title>
<g id="a_node3"><a xlink:href="packages/UI/view-parameters/src/current-time-x.ts" xlink:title="current&#45;time&#45;x.ts">
<path fill="#ddfeff" stroke="black" d="M495,-88C495,-88 414,-88 414,-88 411,-88 408,-85 408,-82 408,-82 408,-76 408,-76 408,-73 411,-70 414,-70 414,-70 495,-70 495,-70 498,-70 501,-73 501,-76 501,-76 501,-82 501,-82 501,-85 498,-88 495,-88"/>
<text text-anchor="start" x="416" y="-76.8" font-family="Helvetica,sans-Serif" font-size="9.00">current&#45;time&#45;x.ts</text>
</a>
</g>
</g>
<!-- packages/UI/view&#45;parameters/src/current&#45;time&#45;x.ts&#45;&gt;packages/UI/view&#45;parameters/src/current&#45;time&#45;ratio.ts -->
<g id="edge1" class="edge">
<title>packages/UI/view&#45;parameters/src/current&#45;time&#45;x.ts&#45;&gt;packages/UI/view&#45;parameters/src/current&#45;time&#45;ratio.ts</title>
<path fill="none" stroke="#000000" stroke-width="2" stroke-opacity="0.200000" d="M492.55,-70C506.11,-66.71 521.56,-62.95 535.62,-59.54"/>
<polygon fill="#000000" fill-opacity="0.200000" stroke="#000000" stroke-width="2" stroke-opacity="0.200000" points="536.21,-61.56 541.55,-58.1 535.22,-57.47 536.21,-61.56"/>
</g>
<!-- packages/UI/view&#45;parameters/src/piano&#45;roll/piano&#45;roll&#45;width.ts -->
<g id="node4" class="node">
<title>packages/UI/view&#45;parameters/src/piano&#45;roll/piano&#45;roll&#45;width.ts</title>
<g id="a_node4"><a xlink:href="packages/UI/view-parameters/src/piano-roll/piano-roll-width.ts" xlink:title="piano&#45;roll&#45;width.ts">
<path fill="#ddfeff" stroke="black" d="M623,-122C623,-122 537,-122 537,-122 534,-122 531,-119 531,-116 531,-116 531,-110 531,-110 531,-107 534,-104 537,-104 537,-104 623,-104 623,-104 626,-104 629,-107 629,-110 629,-110 629,-116 629,-116 629,-119 626,-122 623,-122"/>
<text text-anchor="start" x="539" y="-110.8" font-family="Helvetica,sans-Serif" font-size="9.00">piano&#45;roll&#45;width.ts</text>
</a>
</g>
</g>
<!-- packages/UI/view&#45;parameters/src/current&#45;time&#45;x.ts&#45;&gt;packages/UI/view&#45;parameters/src/piano&#45;roll/piano&#45;roll&#45;width.ts -->
<g id="edge2" class="edge">
<title>packages/UI/view&#45;parameters/src/current&#45;time&#45;x.ts&#45;&gt;packages/UI/view&#45;parameters/src/piano&#45;roll/piano&#45;roll&#45;width.ts</title>
<path fill="none" stroke="#000000" stroke-width="2" stroke-opacity="0.200000" d="M488.27,-88.02C504.18,-92.4 523.41,-97.7 540.07,-102.28"/>
<polygon fill="#000000" fill-opacity="0.200000" stroke="#000000" stroke-width="2" stroke-opacity="0.200000" points="539.73,-104.37 546.08,-103.94 540.85,-100.32 539.73,-104.37"/>
</g>
<!-- packages/UI/view&#45;parameters/src/piano&#45;roll/windowInnerWidth.ts -->
<g id="node17" class="node">
<title>packages/UI/view&#45;parameters/src/piano&#45;roll/windowInnerWidth.ts</title>
<g id="a_node17"><a xlink:href="packages/UI/view-parameters/src/piano-roll/windowInnerWidth.ts" xlink:title="windowInnerWidth.ts">
<path fill="#ddfeff" stroke="black" d="M754,-122C754,-122 653,-122 653,-122 650,-122 647,-119 647,-116 647,-116 647,-110 647,-110 647,-107 650,-104 653,-104 653,-104 754,-104 754,-104 757,-104 760,-107 760,-110 760,-110 760,-116 760,-116 760,-119 757,-122 754,-122"/>
<text text-anchor="start" x="655" y="-110.8" font-family="Helvetica,sans-Serif" font-size="9.00">windowInnerWidth.ts</text>
</a>
</g>
</g>
<!-- packages/UI/view&#45;parameters/src/piano&#45;roll/piano&#45;roll&#45;width.ts&#45;&gt;packages/UI/view&#45;parameters/src/piano&#45;roll/windowInnerWidth.ts -->
<g id="edge16" class="edge">
<title>packages/UI/view&#45;parameters/src/piano&#45;roll/piano&#45;roll&#45;width.ts&#45;&gt;packages/UI/view&#45;parameters/src/piano&#45;roll/windowInnerWidth.ts</title>
<path fill="none" stroke="#000000" stroke-width="2" stroke-opacity="0.200000" d="M629.02,-113C632.85,-113 636.75,-113 640.66,-113"/>
<polygon fill="#000000" fill-opacity="0.200000" stroke="#000000" stroke-width="2" stroke-opacity="0.200000" points="640.8,-115.1 646.79,-113 640.79,-110.9 640.8,-115.1"/>
</g>
<!-- packages/UI/view&#45;parameters/src/note&#45;size.ts -->
<g id="node5" class="node">
<title>packages/UI/view&#45;parameters/src/note&#45;size.ts</title>
<g id="a_node5"><a xlink:href="packages/UI/view-parameters/src/note-size.ts" xlink:title="note&#45;size.ts">
<path fill="#ddfeff" stroke="black" d="M236,-182C236,-182 180,-182 180,-182 177,-182 174,-179 174,-176 174,-176 174,-170 174,-170 174,-167 177,-164 180,-164 180,-164 236,-164 236,-164 239,-164 242,-167 242,-170 242,-170 242,-176 242,-176 242,-179 239,-182 236,-182"/>
<text text-anchor="start" x="182" y="-170.8" font-family="Helvetica,sans-Serif" font-size="9.00">note&#45;size.ts</text>
</a>
</g>
</g>
<!-- packages/UI/view&#45;parameters/src/note&#45;size.ts&#45;&gt;packages/UI/view&#45;parameters/src/piano&#45;roll/piano&#45;roll&#45;width.ts -->
<g id="edge4" class="edge">
<title>packages/UI/view&#45;parameters/src/note&#45;size.ts&#45;&gt;packages/UI/view&#45;parameters/src/piano&#45;roll/piano&#45;roll&#45;width.ts</title>
<path fill="none" stroke="#000000" stroke-width="2" stroke-opacity="0.200000" d="M242.33,-167.46C306.93,-157.04 447.05,-134.44 524.95,-121.88"/>
<polygon fill="#000000" fill-opacity="0.200000" stroke="#000000" stroke-width="2" stroke-opacity="0.200000" points="525.32,-123.95 530.91,-120.92 524.66,-119.8 525.32,-123.95"/>
</g>
<!-- packages/UI/view&#45;parameters/src/piano&#45;roll/piano&#45;roll&#45;time&#45;length.ts -->
<g id="node6" class="node">
<title>packages/UI/view&#45;parameters/src/piano&#45;roll/piano&#45;roll&#45;time&#45;length.ts</title>
<g id="a_node6"><a xlink:href="packages/UI/view-parameters/src/piano-roll/piano-roll-time-length.ts" xlink:title="piano&#45;roll&#45;time&#45;length.ts">
<path fill="#ddfeff" stroke="black" d="M377,-182C377,-182 264,-182 264,-182 261,-182 258,-179 258,-176 258,-176 258,-170 258,-170 258,-167 261,-164 264,-164 264,-164 377,-164 377,-164 380,-164 383,-167 383,-170 383,-170 383,-176 383,-176 383,-179 380,-182 377,-182"/>
<text text-anchor="start" x="266" y="-170.8" font-family="Helvetica,sans-Serif" font-size="9.00">piano&#45;roll&#45;time&#45;length.ts</text>
</a>
</g>
</g>
<!-- packages/UI/view&#45;parameters/src/note&#45;size.ts&#45;&gt;packages/UI/view&#45;parameters/src/piano&#45;roll/piano&#45;roll&#45;time&#45;length.ts -->
<g id="edge3" class="edge">
<title>packages/UI/view&#45;parameters/src/note&#45;size.ts&#45;&gt;packages/UI/view&#45;parameters/src/piano&#45;roll/piano&#45;roll&#45;time&#45;length.ts</title>
<path fill="none" stroke="#000000" stroke-width="2" stroke-opacity="0.200000" d="M242.15,-173C245.1,-173 248.14,-173 251.24,-173"/>
<polygon fill="#000000" fill-opacity="0.200000" stroke="#000000" stroke-width="2" stroke-opacity="0.200000" points="251.68,-175.1 257.68,-173 251.68,-170.9 251.68,-175.1"/>
</g>
<!-- packages/UI/view&#45;parameters/src/piano&#45;roll/piano&#45;roll&#45;ratio.ts -->
<g id="node15" class="node">
<title>packages/UI/view&#45;parameters/src/piano&#45;roll/piano&#45;roll&#45;ratio.ts</title>
<g id="a_node15"><a xlink:href="packages/UI/view-parameters/src/piano-roll/piano-roll-ratio.ts" xlink:title="piano&#45;roll&#45;ratio.ts">
<path fill="#ddfeff" stroke="black" d="M495,-182C495,-182 414,-182 414,-182 411,-182 408,-179 408,-176 408,-176 408,-170 408,-170 408,-167 411,-164 414,-164 414,-164 495,-164 495,-164 498,-164 501,-167 501,-170 501,-170 501,-176 501,-176 501,-179 498,-182 495,-182"/>
<text text-anchor="start" x="416" y="-170.8" font-family="Helvetica,sans-Serif" font-size="9.00">piano&#45;roll&#45;ratio.ts</text>
</a>
</g>
</g>
<!-- packages/UI/view&#45;parameters/src/piano&#45;roll/piano&#45;roll&#45;time&#45;length.ts&#45;&gt;packages/UI/view&#45;parameters/src/piano&#45;roll/piano&#45;roll&#45;ratio.ts -->
<g id="edge15" class="edge">
<title>packages/UI/view&#45;parameters/src/piano&#45;roll/piano&#45;roll&#45;time&#45;length.ts&#45;&gt;packages/UI/view&#45;parameters/src/piano&#45;roll/piano&#45;roll&#45;ratio.ts</title>
<path fill="none" stroke="#000000" stroke-width="2" stroke-opacity="0.200000" d="M383.25,-173C389.49,-173 395.78,-173 401.9,-173"/>
<polygon fill="#000000" fill-opacity="0.200000" stroke="#000000" stroke-width="2" stroke-opacity="0.200000" points="401.95,-175.1 407.95,-173 401.95,-170.9 401.95,-175.1"/>
</g>
<!-- packages/UI/view&#45;parameters/src/song&#45;length.ts -->
<g id="node16" class="node">
<title>packages/UI/view&#45;parameters/src/song&#45;length.ts</title>
<g id="a_node16"><a xlink:href="packages/UI/view-parameters/src/song-length.ts" xlink:title="song&#45;length.ts">
<path fill="#ddfeff" stroke="black" d="M489.5,-234C489.5,-234 419.5,-234 419.5,-234 416.5,-234 413.5,-231 413.5,-228 413.5,-228 413.5,-222 413.5,-222 413.5,-219 416.5,-216 419.5,-216 419.5,-216 489.5,-216 489.5,-216 492.5,-216 495.5,-219 495.5,-222 495.5,-222 495.5,-228 495.5,-228 495.5,-231 492.5,-234 489.5,-234"/>
<text text-anchor="start" x="421.5" y="-222.8" font-family="Helvetica,sans-Serif" font-size="9.00">song&#45;length.ts</text>
</a>
</g>
</g>
<!-- packages/UI/view&#45;parameters/src/piano&#45;roll/piano&#45;roll&#45;time&#45;length.ts&#45;&gt;packages/UI/view&#45;parameters/src/song&#45;length.ts -->
<g id="edge14" class="edge">
<title>packages/UI/view&#45;parameters/src/piano&#45;roll/piano&#45;roll&#45;time&#45;length.ts&#45;&gt;packages/UI/view&#45;parameters/src/song&#45;length.ts</title>
<path fill="none" stroke="#000000" stroke-width="2" stroke-opacity="0.200000" d="M344.49,-182.06C366.79,-190.84 400.67,-204.19 424.74,-213.67"/>
<polygon fill="#000000" fill-opacity="0.200000" stroke="#000000" stroke-width="2" stroke-opacity="0.200000" points="423.98,-215.63 430.33,-215.87 425.52,-211.72 423.98,-215.63"/>
</g>
<!-- packages/UI/view&#45;parameters/src/now&#45;at.ts -->
<g id="node7" class="node">
<title>packages/UI/view&#45;parameters/src/now&#45;at.ts</title>
<g id="a_node7"><a xlink:href="packages/UI/view-parameters/src/now-at.ts" xlink:title="now&#45;at.ts">
<path fill="#ddfeff" stroke="black" d="M231.5,-212C231.5,-212 184.5,-212 184.5,-212 181.5,-212 178.5,-209 178.5,-206 178.5,-206 178.5,-200 178.5,-200 178.5,-197 181.5,-194 184.5,-194 184.5,-194 231.5,-194 231.5,-194 234.5,-194 237.5,-197 237.5,-200 237.5,-200 237.5,-206 237.5,-206 237.5,-209 234.5,-212 231.5,-212"/>
<text text-anchor="start" x="186.5" y="-200.8" font-family="Helvetica,sans-Serif" font-size="9.00">now&#45;at.ts</text>
</a>
</g>
</g>
<!-- packages/UI/view&#45;parameters/src/piano&#45;roll&#45;translate&#45;x.ts -->
<g id="node8" class="node">
<title>packages/UI/view&#45;parameters/src/piano&#45;roll&#45;translate&#45;x.ts</title>
<g id="a_node8"><a xlink:href="packages/UI/view-parameters/src/piano-roll-translate-x.ts" xlink:title="piano&#45;roll&#45;translate&#45;x.ts">
<path fill="#ddfeff" stroke="black" d="M155,-182C155,-182 46,-182 46,-182 43,-182 40,-179 40,-176 40,-176 40,-170 40,-170 40,-167 43,-164 46,-164 46,-164 155,-164 155,-164 158,-164 161,-167 161,-170 161,-170 161,-176 161,-176 161,-179 158,-182 155,-182"/>
<text text-anchor="start" x="48" y="-170.8" font-family="Helvetica,sans-Serif" font-size="9.00">piano&#45;roll&#45;translate&#45;x.ts</text>
</a>
</g>
</g>
<!-- packages/UI/view&#45;parameters/src/piano&#45;roll&#45;translate&#45;x.ts&#45;&gt;packages/UI/view&#45;parameters/src/current&#45;time&#45;x.ts -->
<g id="edge5" class="edge">
<title>packages/UI/view&#45;parameters/src/piano&#45;roll&#45;translate&#45;x.ts&#45;&gt;packages/UI/view&#45;parameters/src/current&#45;time&#45;x.ts</title>
<path fill="none" stroke="#000000" stroke-width="2" stroke-opacity="0.200000" d="M134.44,-163.99C200.04,-146.57 343.94,-108.36 414.24,-89.69"/>
<polygon fill="#000000" fill-opacity="0.200000" stroke="#000000" stroke-width="2" stroke-opacity="0.200000" points="415.14,-91.62 420.4,-88.05 414.06,-87.57 415.14,-91.62"/>
</g>
<!-- packages/UI/view&#45;parameters/src/piano&#45;roll&#45;translate&#45;x.ts&#45;&gt;packages/UI/view&#45;parameters/src/note&#45;size.ts -->
<g id="edge6" class="edge">
<title>packages/UI/view&#45;parameters/src/piano&#45;roll&#45;translate&#45;x.ts&#45;&gt;packages/UI/view&#45;parameters/src/note&#45;size.ts</title>
<path fill="none" stroke="#000000" stroke-width="2" stroke-opacity="0.200000" d="M161.03,-173C163.23,-173 165.41,-173 167.56,-173"/>
<polygon fill="#000000" fill-opacity="0.200000" stroke="#000000" stroke-width="2" stroke-opacity="0.200000" points="167.9,-175.1 173.9,-173 167.9,-170.9 167.9,-175.1"/>
</g>
<!-- packages/UI/view&#45;parameters/src/piano&#45;roll&#45;translate&#45;x.ts&#45;&gt;packages/UI/view&#45;parameters/src/now&#45;at.ts -->
<g id="edge7" class="edge">
<title>packages/UI/view&#45;parameters/src/piano&#45;roll&#45;translate&#45;x.ts&#45;&gt;packages/UI/view&#45;parameters/src/now&#45;at.ts</title>
<path fill="none" stroke="#000000" stroke-width="2" stroke-opacity="0.200000" d="M133.15,-182C145.46,-185.5 159.61,-189.52 172.2,-193.1"/>
<polygon fill="#000000" fill-opacity="0.200000" stroke="#000000" stroke-width="2" stroke-opacity="0.200000" points="171.9,-195.2 178.25,-194.82 173.05,-191.16 171.9,-195.2"/>
</g>
<!-- packages/UI/view&#45;parameters/src/piano&#45;roll/octave&#45;count.ts -->
<g id="node9" class="node">
<title>packages/UI/view&#45;parameters/src/piano&#45;roll/octave&#45;count.ts</title>
<g id="a_node9"><a xlink:href="packages/UI/view-parameters/src/piano-roll/octave-count.ts" xlink:title="octave&#45;count.ts">
<path fill="#ddfeff" stroke="black" d="M492,-152C492,-152 417,-152 417,-152 414,-152 411,-149 411,-146 411,-146 411,-140 411,-140 411,-137 414,-134 417,-134 417,-134 492,-134 492,-134 495,-134 498,-137 498,-140 498,-140 498,-146 498,-146 498,-149 495,-152 492,-152"/>
<text text-anchor="start" x="419" y="-140.8" font-family="Helvetica,sans-Serif" font-size="9.00">octave&#45;count.ts</text>
</a>
</g>
</g>
<!-- packages/UI/view&#45;parameters/src/piano&#45;roll/piano&#45;roll&#45;begin.ts -->
<g id="node10" class="node">
<title>packages/UI/view&#45;parameters/src/piano&#45;roll/piano&#45;roll&#45;begin.ts</title>
<g id="a_node10"><a xlink:href="packages/UI/view-parameters/src/piano-roll/piano-roll-begin.ts" xlink:title="piano&#45;roll&#45;begin.ts">
<path fill="#ddfeff" stroke="black" d="M623,-182C623,-182 537,-182 537,-182 534,-182 531,-179 531,-176 531,-176 531,-170 531,-170 531,-167 534,-164 537,-164 537,-164 623,-164 623,-164 626,-164 629,-167 629,-170 629,-170 629,-176 629,-176 629,-179 626,-182 623,-182"/>
<text text-anchor="start" x="539" y="-170.8" font-family="Helvetica,sans-Serif" font-size="9.00">piano&#45;roll&#45;begin.ts</text>
</a>
</g>
</g>
<!-- packages/UI/view&#45;parameters/src/piano&#45;roll/octave&#45;count.ts&#45;&gt;packages/UI/view&#45;parameters/src/piano&#45;roll/piano&#45;roll&#45;begin.ts -->
<g id="edge8" class="edge">
<title>packages/UI/view&#45;parameters/src/piano&#45;roll/octave&#45;count.ts&#45;&gt;packages/UI/view&#45;parameters/src/piano&#45;roll/piano&#45;roll&#45;begin.ts</title>
<path fill="none" stroke="#000000" stroke-width="2" stroke-opacity="0.200000" d="M492.55,-152C506.11,-155.29 521.56,-159.05 535.62,-162.46"/>
<polygon fill="#000000" fill-opacity="0.200000" stroke="#000000" stroke-width="2" stroke-opacity="0.200000" points="535.22,-164.53 541.55,-163.9 536.21,-160.44 535.22,-164.53"/>
</g>
<!-- packages/UI/view&#45;parameters/src/piano&#45;roll/piano&#45;roll&#45;end.ts -->
<g id="node11" class="node">
<title>packages/UI/view&#45;parameters/src/piano&#45;roll/piano&#45;roll&#45;end.ts</title>
<g id="a_node11"><a xlink:href="packages/UI/view-parameters/src/piano-roll/piano-roll-end.ts" xlink:title="piano&#45;roll&#45;end.ts">
<path fill="#ddfeff" stroke="black" d="M619,-152C619,-152 541,-152 541,-152 538,-152 535,-149 535,-146 535,-146 535,-140 535,-140 535,-137 538,-134 541,-134 541,-134 619,-134 619,-134 622,-134 625,-137 625,-140 625,-140 625,-146 625,-146 625,-149 622,-152 619,-152"/>
<text text-anchor="start" x="543" y="-140.8" font-family="Helvetica,sans-Serif" font-size="9.00">piano&#45;roll&#45;end.ts</text>
</a>
</g>
</g>
<!-- packages/UI/view&#45;parameters/src/piano&#45;roll/octave&#45;count.ts&#45;&gt;packages/UI/view&#45;parameters/src/piano&#45;roll/piano&#45;roll&#45;end.ts -->
<g id="edge9" class="edge">
<title>packages/UI/view&#45;parameters/src/piano&#45;roll/octave&#45;count.ts&#45;&gt;packages/UI/view&#45;parameters/src/piano&#45;roll/piano&#45;roll&#45;end.ts</title>
<path fill="none" stroke="#000000" stroke-width="2" stroke-opacity="0.200000" d="M498,-143C507.82,-143 518.37,-143 528.5,-143"/>
<polygon fill="#000000" fill-opacity="0.200000" stroke="#000000" stroke-width="2" stroke-opacity="0.200000" points="528.74,-145.1 534.74,-143 528.74,-140.9 528.74,-145.1"/>
</g>
<!-- packages/UI/view&#45;parameters/src/piano&#45;roll/piano&#45;roll&#45;constants.ts -->
<g id="node12" class="node">
<title>packages/UI/view&#45;parameters/src/piano&#45;roll/piano&#45;roll&#45;constants.ts</title>
<g id="a_node12"><a xlink:href="packages/UI/view-parameters/src/piano-roll/piano-roll-constants.ts" xlink:title="piano&#45;roll&#45;constants.ts">
<path fill="#ddfeff" stroke="black" d="M507,-122C507,-122 402,-122 402,-122 399,-122 396,-119 396,-116 396,-116 396,-110 396,-110 396,-107 399,-104 402,-104 402,-104 507,-104 507,-104 510,-104 513,-107 513,-110 513,-110 513,-116 513,-116 513,-119 510,-122 507,-122"/>
<text text-anchor="start" x="404" y="-110.8" font-family="Helvetica,sans-Serif" font-size="9.00">piano&#45;roll&#45;constants.ts</text>
</a>
</g>
</g>
<!-- packages/UI/view&#45;parameters/src/piano&#45;roll/piano&#45;roll&#45;constants.ts&#45;&gt;packages/UI/view&#45;parameters/src/piano&#45;roll/piano&#45;roll&#45;width.ts -->
<g id="edge11" class="edge">
<title>packages/UI/view&#45;parameters/src/piano&#45;roll/piano&#45;roll&#45;constants.ts&#45;&gt;packages/UI/view&#45;parameters/src/piano&#45;roll/piano&#45;roll&#45;width.ts</title>
<path fill="none" stroke="#000000" stroke-width="2" stroke-opacity="0.200000" d="M513.27,-113C517.15,-113 521.04,-113 524.89,-113"/>
<polygon fill="#000000" fill-opacity="0.200000" stroke="#000000" stroke-width="2" stroke-opacity="0.200000" points="524.9,-115.1 530.9,-113 524.9,-110.9 524.9,-115.1"/>
</g>
<!-- packages/UI/view&#45;parameters/src/rect&#45;parameter.ts -->
<g id="node13" class="node">
<title>packages/UI/view&#45;parameters/src/rect&#45;parameter.ts</title>
<g id="a_node13"><a xlink:href="packages/UI/view-parameters/src/rect-parameter.ts" xlink:title="rect&#45;parameter.ts">
<path fill="#ddfeff" stroke="black" d="M621.5,-88C621.5,-88 538.5,-88 538.5,-88 535.5,-88 532.5,-85 532.5,-82 532.5,-82 532.5,-76 532.5,-76 532.5,-73 535.5,-70 538.5,-70 538.5,-70 621.5,-70 621.5,-70 624.5,-70 627.5,-73 627.5,-76 627.5,-76 627.5,-82 627.5,-82 627.5,-85 624.5,-88 621.5,-88"/>
<text text-anchor="start" x="540.5" y="-76.8" font-family="Helvetica,sans-Serif" font-size="9.00">rect&#45;parameter.ts</text>
</a>
</g>
</g>
<!-- packages/UI/view&#45;parameters/src/piano&#45;roll/piano&#45;roll&#45;constants.ts&#45;&gt;packages/UI/view&#45;parameters/src/rect&#45;parameter.ts -->
<g id="edge10" class="edge">
<title>packages/UI/view&#45;parameters/src/piano&#45;roll/piano&#45;roll&#45;constants.ts&#45;&gt;packages/UI/view&#45;parameters/src/rect&#45;parameter.ts</title>
<path fill="none" stroke="#000000" stroke-width="2" stroke-opacity="0.200000" d="M488.27,-103.98C504.18,-99.6 523.41,-94.3 540.07,-89.72"/>
<polygon fill="#000000" fill-opacity="0.200000" stroke="#000000" stroke-width="2" stroke-opacity="0.200000" points="540.85,-91.68 546.08,-88.06 539.73,-87.63 540.85,-91.68"/>
</g>
<!-- packages/UI/view&#45;parameters/src/piano&#45;roll/piano&#45;roll&#45;height.ts -->
<g id="node14" class="node">
<title>packages/UI/view&#45;parameters/src/piano&#45;roll/piano&#45;roll&#45;height.ts</title>
<g id="a_node14"><a xlink:href="packages/UI/view-parameters/src/piano-roll/piano-roll-height.ts" xlink:title="piano&#45;roll&#45;height.ts">
<path fill="#ddfeff" stroke="black" d="M365.5,-137C365.5,-137 275.5,-137 275.5,-137 272.5,-137 269.5,-134 269.5,-131 269.5,-131 269.5,-125 269.5,-125 269.5,-122 272.5,-119 275.5,-119 275.5,-119 365.5,-119 365.5,-119 368.5,-119 371.5,-122 371.5,-125 371.5,-125 371.5,-131 371.5,-131 371.5,-134 368.5,-137 365.5,-137"/>
<text text-anchor="start" x="277.5" y="-125.8" font-family="Helvetica,sans-Serif" font-size="9.00">piano&#45;roll&#45;height.ts</text>
</a>
</g>
</g>
<!-- packages/UI/view&#45;parameters/src/piano&#45;roll/piano&#45;roll&#45;height.ts&#45;&gt;packages/UI/view&#45;parameters/src/piano&#45;roll/octave&#45;count.ts -->
<g id="edge12" class="edge">
<title>packages/UI/view&#45;parameters/src/piano&#45;roll/piano&#45;roll&#45;height.ts&#45;&gt;packages/UI/view&#45;parameters/src/piano&#45;roll/octave&#45;count.ts</title>
<path fill="none" stroke="#000000" stroke-width="2" stroke-opacity="0.200000" d="M371.78,-133.71C382.5,-134.93 393.81,-136.22 404.48,-137.43"/>
<polygon fill="#000000" fill-opacity="0.200000" stroke="#000000" stroke-width="2" stroke-opacity="0.200000" points="404.48,-139.54 410.68,-138.13 404.95,-135.37 404.48,-139.54"/>
</g>
<!-- packages/UI/view&#45;parameters/src/piano&#45;roll/piano&#45;roll&#45;height.ts&#45;&gt;packages/UI/view&#45;parameters/src/piano&#45;roll/piano&#45;roll&#45;constants.ts -->
<g id="edge13" class="edge">
<title>packages/UI/view&#45;parameters/src/piano&#45;roll/piano&#45;roll&#45;height.ts&#45;&gt;packages/UI/view&#45;parameters/src/piano&#45;roll/piano&#45;roll&#45;constants.ts</title>
<path fill="none" stroke="#000000" stroke-width="2" stroke-opacity="0.200000" d="M371.78,-122.29C377.68,-121.62 383.76,-120.92 389.81,-120.24"/>
<polygon fill="#000000" fill-opacity="0.200000" stroke="#000000" stroke-width="2" stroke-opacity="0.200000" points="390.13,-122.32 395.85,-119.55 389.65,-118.14 390.13,-122.32"/>
</g>
<!-- packages/UI/view&#45;parameters/src/position/black&#45;position.ts -->
<g id="node18" class="node">
<title>packages/UI/view&#45;parameters/src/position/black&#45;position.ts</title>
<g id="a_node18"><a xlink:href="packages/UI/view-parameters/src/position/black-position.ts" xlink:title="black&#45;position.ts">
<path fill="#ddfeff" stroke="black" d="M493.5,-312C493.5,-312 415.5,-312 415.5,-312 412.5,-312 409.5,-309 409.5,-306 409.5,-306 409.5,-300 409.5,-300 409.5,-297 412.5,-294 415.5,-294 415.5,-294 493.5,-294 493.5,-294 496.5,-294 499.5,-297 499.5,-300 499.5,-300 499.5,-306 499.5,-306 499.5,-309 496.5,-312 493.5,-312"/>
<text text-anchor="start" x="417.5" y="-300.8" font-family="Helvetica,sans-Serif" font-size="9.00">black&#45;position.ts</text>
</a>
</g>
</g>
<!-- packages/UI/view&#45;parameters/src/position/black&#45;position.ts&#45;&gt;packages/UI/view&#45;parameters/src/piano&#45;roll/piano&#45;roll&#45;begin.ts -->
<g id="edge17" class="edge">
<title>packages/UI/view&#45;parameters/src/position/black&#45;position.ts&#45;&gt;packages/UI/view&#45;parameters/src/piano&#45;roll/piano&#45;roll&#45;begin.ts</title>
<path fill="none" stroke="#000000" stroke-width="2" stroke-opacity="0.200000" d="M464.38,-293.65C485.83,-271.07 540.56,-213.46 565.84,-186.86"/>
<polygon fill="#000000" fill-opacity="0.200000" stroke="#000000" stroke-width="2" stroke-opacity="0.200000" points="567.59,-188.06 570.2,-182.26 564.54,-185.17 567.59,-188.06"/>
</g>
<!-- packages/util/math/dist/index.js -->
<g id="node19" class="node">
<title>packages/util/math/dist/index.js</title>
<g id="a_node19"><a xlink:href="packages/util/math/dist/index.js" xlink:title="index.js">
<polygon fill="#ffffcc" stroke="black" points="607,-466 605.5,-468 595,-468 593.5,-466 553,-466 553,-448 607,-448 607,-466"/>
<text text-anchor="start" x="562.5" y="-454.8" font-family="Helvetica,sans-Serif" font-size="9.00">index.js</text>
</a>
</g>
</g>
<!-- packages/UI/view&#45;parameters/src/position/black&#45;position.ts&#45;&gt;packages/util/math/dist/index.js -->
<g id="edge18" class="edge">
<title>packages/UI/view&#45;parameters/src/position/black&#45;position.ts&#45;&gt;packages/util/math/dist/index.js</title>
<path fill="none" stroke="#000000" stroke-width="2" stroke-opacity="0.200000" d="M462.86,-312.17C483.57,-338 542.51,-411.5 567.54,-442.71"/>
<polygon fill="#000000" fill-opacity="0.200000" stroke="#000000" stroke-width="2" stroke-opacity="0.200000" points="566.13,-444.31 571.53,-447.68 569.41,-441.69 566.13,-444.31"/>
</g>
<!-- packages/UI/view&#45;parameters/src/position/white&#45;position.ts -->
<g id="node20" class="node">
<title>packages/UI/view&#45;parameters/src/position/white&#45;position.ts</title>
<g id="a_node20"><a xlink:href="packages/UI/view-parameters/src/position/white-position.ts" xlink:title="white&#45;position.ts">
<path fill="#ddfeff" stroke="black" d="M494,-282C494,-282 415,-282 415,-282 412,-282 409,-279 409,-276 409,-276 409,-270 409,-270 409,-267 412,-264 415,-264 415,-264 494,-264 494,-264 497,-264 500,-267 500,-270 500,-270 500,-276 500,-276 500,-279 497,-282 494,-282"/>
<text text-anchor="start" x="417" y="-270.8" font-family="Helvetica,sans-Serif" font-size="9.00">white&#45;position.ts</text>
</a>
</g>
</g>
<!-- packages/UI/view&#45;parameters/src/position/white&#45;position.ts&#45;&gt;packages/UI/view&#45;parameters/src/piano&#45;roll/piano&#45;roll&#45;begin.ts -->
<g id="edge19" class="edge">
<title>packages/UI/view&#45;parameters/src/position/white&#45;position.ts&#45;&gt;packages/UI/view&#45;parameters/src/piano&#45;roll/piano&#45;roll&#45;begin.ts</title>
<path fill="none" stroke="#000000" stroke-width="2" stroke-opacity="0.200000" d="M466.9,-263.77C488.95,-245.91 537.53,-206.58 562.88,-186.05"/>
<polygon fill="#000000" fill-opacity="0.200000" stroke="#000000" stroke-width="2" stroke-opacity="0.200000" points="564.29,-187.61 567.63,-182.21 561.65,-184.35 564.29,-187.61"/>
</g>
<!-- packages/UI/view&#45;parameters/src/position/white&#45;position.ts&#45;&gt;packages/util/math/dist/index.js -->
<g id="edge20" class="edge">
<title>packages/UI/view&#45;parameters/src/position/white&#45;position.ts&#45;&gt;packages/util/math/dist/index.js</title>
<path fill="none" stroke="#000000" stroke-width="2" stroke-opacity="0.200000" d="M461.62,-282.12C481.58,-311.86 544.86,-406.14 569.27,-442.5"/>
<polygon fill="#000000" fill-opacity="0.200000" stroke="#000000" stroke-width="2" stroke-opacity="0.200000" points="567.75,-444.01 572.84,-447.82 571.24,-441.67 567.75,-444.01"/>
</g>
<!-- packages/UI/view&#45;parameters/src/reservation&#45;range.ts -->
<g id="node21" class="node">
<title>packages/UI/view&#45;parameters/src/reservation&#45;range.ts</title>
<g id="a_node21"><a xlink:href="packages/UI/view-parameters/src/reservation-range.ts" xlink:title="no&#45;orphans">
<path fill="#ccffcc" stroke="orange" d="M148,-105C148,-105 53,-105 53,-105 50,-105 47,-102 47,-99 47,-99 47,-93 47,-93 47,-90 50,-87 53,-87 53,-87 148,-87 148,-87 151,-87 154,-90 154,-93 154,-93 154,-99 154,-99 154,-102 151,-105 148,-105"/>
<text text-anchor="start" x="55" y="-93.8" font-family="Helvetica,sans-Serif" font-size="9.00" fill="orange">reservation&#45;range.ts</text>
</a>
</g>
</g>
</g>
</svg>
