<?xml version="1.0" encoding="UTF-8" standalone="no"?>
<!DOCTYPE svg PUBLIC "-//W3C//DTD SVG 1.1//EN"
 "http://www.w3.org/Graphics/SVG/1.1/DTD/svg11.dtd">
<!-- Generated by graphviz version 2.43.0 (0)
 -->
<!-- Title: dependency&#45;cruiser output Pages: 1 -->
<svg width="442pt" height="596pt"
 viewBox="0.00 0.00 442.00 596.00" xmlns="http://www.w3.org/2000/svg" xmlns:xlink="http://www.w3.org/1999/xlink">
<g id="graph0" class="graph" transform="scale(1 1) rotate(0) translate(4 592)">
<title>dependency&#45;cruiser output</title>
<polygon fill="white" stroke="transparent" points="-4,4 -4,-592 438,-592 438,4 -4,4"/>
<g id="clust1" class="cluster">
<title>cluster_packages</title>
<path fill="#ffffff" stroke="black" stroke-width="2" d="M20,-8C20,-8 420,-8 420,-8 426,-8 432,-14 432,-20 432,-20 432,-568 432,-568 432,-574 426,-580 420,-580 420,-580 20,-580 20,-580 14,-580 8,-574 8,-568 8,-568 8,-20 8,-20 8,-14 14,-8 20,-8"/>
<text text-anchor="middle" x="220" y="-568.8" font-family="Helvetica,sans-Serif" font-weight="bold" font-size="9.00">packages</text>
</g>
<g id="clust2" class="cluster">
<title>cluster_packages/UI</title>
<path fill="#ffffff" stroke="black" stroke-width="2" d="M312,-434C312,-434 407,-434 407,-434 413,-434 419,-440 419,-446 419,-446 419,-542 419,-542 419,-548 413,-554 407,-554 407,-554 312,-554 312,-554 306,-554 300,-548 300,-542 300,-542 300,-446 300,-446 300,-440 306,-434 312,-434"/>
<text text-anchor="middle" x="359.5" y="-542.8" font-family="Helvetica,sans-Serif" font-weight="bold" font-size="9.00">UI</text>
</g>
<g id="clust3" class="cluster">
<title>cluster_packages/UI/view&#45;parameters</title>
<path fill="#ffffff" stroke="black" stroke-width="2" d="M320,-442C320,-442 399,-442 399,-442 405,-442 411,-448 411,-454 411,-454 411,-516 411,-516 411,-522 405,-528 399,-528 399,-528 320,-528 320,-528 314,-528 308,-522 308,-516 308,-516 308,-454 308,-454 308,-448 314,-442 320,-442"/>
<text text-anchor="middle" x="359.5" y="-516.8" font-family="Helvetica,sans-Serif" font-weight="bold" font-size="9.00">view&#45;parameters</text>
</g>
<g id="clust4" class="cluster">
<title>cluster_packages/UI/view&#45;parameters/dist</title>
<path fill="#ffffff" stroke="black" stroke-width="2" d="M336,-450C336,-450 382,-450 382,-450 388,-450 394,-456 394,-462 394,-462 394,-490 394,-490 394,-496 388,-502 382,-502 382,-502 336,-502 336,-502 330,-502 324,-496 324,-490 324,-490 324,-462 324,-462 324,-456 330,-450 336,-450"/>
<text text-anchor="middle" x="359" y="-490.8" font-family="Helvetica,sans-Serif" font-weight="bold" font-size="9.00">dist</text>
</g>
<g id="clust5" class="cluster">
<title>cluster_packages/music&#45;structure</title>
<path fill="#ffffff" stroke="black" stroke-width="2" d="M28,-16C28,-16 412,-16 412,-16 418,-16 424,-22 424,-28 424,-28 424,-414 424,-414 424,-420 418,-426 412,-426 412,-426 28,-426 28,-426 22,-426 16,-420 16,-414 16,-414 16,-28 16,-28 16,-22 22,-16 28,-16"/>
<text text-anchor="middle" x="220" y="-414.8" font-family="Helvetica,sans-Serif" font-weight="bold" font-size="9.00">music&#45;structure</text>
</g>
<g id="clust6" class="cluster">
<title>cluster_packages/music&#45;structure/analyzed&#45;data&#45;container</title>
<path fill="#ffffff" stroke="black" stroke-width="2" d="M36,-224C36,-224 236,-224 236,-224 242,-224 248,-230 248,-236 248,-236 248,-298 248,-298 248,-304 242,-310 236,-310 236,-310 36,-310 36,-310 30,-310 24,-304 24,-298 24,-298 24,-236 24,-236 24,-230 30,-224 36,-224"/>
<text text-anchor="middle" x="136" y="-298.8" font-family="Helvetica,sans-Serif" font-weight="bold" font-size="9.00">analyzed&#45;data&#45;container</text>
</g>
<g id="clust7" class="cluster">
<title>cluster_packages/music&#45;structure/analyzed&#45;data&#45;container/src</title>
<path fill="#ffffff" stroke="black" stroke-width="2" d="M106,-232C106,-232 228,-232 228,-232 234,-232 240,-238 240,-244 240,-244 240,-272 240,-272 240,-278 234,-284 228,-284 228,-284 106,-284 106,-284 100,-284 94,-278 94,-272 94,-272 94,-244 94,-244 94,-238 100,-232 106,-232"/>
<text text-anchor="middle" x="167" y="-272.8" font-family="Helvetica,sans-Serif" font-weight="bold" font-size="9.00">src</text>
</g>
<g id="clust8" class="cluster">
<title>cluster_packages/music&#45;structure/beat</title>
<path fill="#ffffff" stroke="black" stroke-width="2" d="M314,-24C314,-24 404,-24 404,-24 410,-24 416,-30 416,-36 416,-36 416,-132 416,-132 416,-138 410,-144 404,-144 404,-144 314,-144 314,-144 308,-144 302,-138 302,-132 302,-132 302,-36 302,-36 302,-30 308,-24 314,-24"/>
<text text-anchor="middle" x="359" y="-132.8" font-family="Helvetica,sans-Serif" font-weight="bold" font-size="9.00">beat</text>
</g>
<g id="clust9" class="cluster">
<title>cluster_packages/music&#45;structure/beat/beat&#45;estimation</title>
<path fill="#ffffff" stroke="black" stroke-width="2" d="M322,-32C322,-32 396,-32 396,-32 402,-32 408,-38 408,-44 408,-44 408,-106 408,-106 408,-112 402,-118 396,-118 396,-118 322,-118 322,-118 316,-118 310,-112 310,-106 310,-106 310,-44 310,-44 310,-38 316,-32 322,-32"/>
<text text-anchor="middle" x="359" y="-106.8" font-family="Helvetica,sans-Serif" font-weight="bold" font-size="9.00">beat&#45;estimation</text>
</g>
<g id="clust10" class="cluster">
<title>cluster_packages/music&#45;structure/beat/beat&#45;estimation/dist</title>
<path fill="#ffffff" stroke="black" stroke-width="2" d="M336,-40C336,-40 382,-40 382,-40 388,-40 394,-46 394,-52 394,-52 394,-80 394,-80 394,-86 388,-92 382,-92 382,-92 336,-92 336,-92 330,-92 324,-86 324,-80 324,-80 324,-52 324,-52 324,-46 330,-40 336,-40"/>
<text text-anchor="middle" x="359" y="-80.8" font-family="Helvetica,sans-Serif" font-weight="bold" font-size="9.00">dist</text>
</g>
<g id="clust11" class="cluster">
<title>cluster_packages/music&#45;structure/chord</title>
<path fill="#ffffff" stroke="black" stroke-width="2" d="M319,-152C319,-152 400,-152 400,-152 406,-152 412,-158 412,-164 412,-164 412,-260 412,-260 412,-266 406,-272 400,-272 400,-272 319,-272 319,-272 313,-272 307,-266 307,-260 307,-260 307,-164 307,-164 307,-158 313,-152 319,-152"/>
<text text-anchor="middle" x="359.5" y="-260.8" font-family="Helvetica,sans-Serif" font-weight="bold" font-size="9.00">chord</text>
</g>
<g id="clust12" class="cluster">
<title>cluster_packages/music&#45;structure/chord/chord&#45;analyze</title>
<path fill="#ffffff" stroke="black" stroke-width="2" d="M327,-160C327,-160 392,-160 392,-160 398,-160 404,-166 404,-172 404,-172 404,-234 404,-234 404,-240 398,-246 392,-246 392,-246 327,-246 327,-246 321,-246 315,-240 315,-234 315,-234 315,-172 315,-172 315,-166 321,-160 327,-160"/>
<text text-anchor="middle" x="359.5" y="-234.8" font-family="Helvetica,sans-Serif" font-weight="bold" font-size="9.00">chord&#45;analyze</text>
</g>
<g id="clust13" class="cluster">
<title>cluster_packages/music&#45;structure/chord/chord&#45;analyze/dist</title>
<path fill="#ffffff" stroke="black" stroke-width="2" d="M336,-168C336,-168 382,-168 382,-168 388,-168 394,-174 394,-180 394,-180 394,-208 394,-208 394,-214 388,-220 382,-220 382,-220 336,-220 336,-220 330,-220 324,-214 324,-208 324,-208 324,-180 324,-180 324,-174 330,-168 336,-168"/>
<text text-anchor="middle" x="359" y="-208.8" font-family="Helvetica,sans-Serif" font-weight="bold" font-size="9.00">dist</text>
</g>
<g id="clust14" class="cluster">
<title>cluster_packages/music&#45;structure/melody</title>
<path fill="#ffffff" stroke="black" stroke-width="2" d="M315,-280C315,-280 404,-280 404,-280 410,-280 416,-286 416,-292 416,-292 416,-388 416,-388 416,-394 410,-400 404,-400 404,-400 315,-400 315,-400 309,-400 303,-394 303,-388 303,-388 303,-292 303,-292 303,-286 309,-280 315,-280"/>
<text text-anchor="middle" x="359.5" y="-388.8" font-family="Helvetica,sans-Serif" font-weight="bold" font-size="9.00">melody</text>
</g>
<g id="clust15" class="cluster">
<title>cluster_packages/music&#45;structure/melody/melody&#45;analyze</title>
<path fill="#ffffff" stroke="black" stroke-width="2" d="M323,-288C323,-288 396,-288 396,-288 402,-288 408,-294 408,-300 408,-300 408,-362 408,-362 408,-368 402,-374 396,-374 396,-374 323,-374 323,-374 317,-374 311,-368 311,-362 311,-362 311,-300 311,-300 311,-294 317,-288 323,-288"/>
<text text-anchor="middle" x="359.5" y="-362.8" font-family="Helvetica,sans-Serif" font-weight="bold" font-size="9.00">melody&#45;analyze</text>
</g>
<g id="clust16" class="cluster">
<title>cluster_packages/music&#45;structure/melody/melody&#45;analyze/dist</title>
<path fill="#ffffff" stroke="black" stroke-width="2" d="M336,-296C336,-296 382,-296 382,-296 388,-296 394,-302 394,-308 394,-308 394,-336 394,-336 394,-342 388,-348 382,-348 382,-348 336,-348 336,-348 330,-348 324,-342 324,-336 324,-336 324,-308 324,-308 324,-302 330,-296 336,-296"/>
<text text-anchor="middle" x="359" y="-336.8" font-family="Helvetica,sans-Serif" font-weight="bold" font-size="9.00">dist</text>
</g>
<!-- packages/UI/view&#45;parameters/dist/index.js -->
<g id="node1" class="node">
<title>packages/UI/view&#45;parameters/dist/index.js</title>
<g id="a_node1"><a xlink:href="packages/UI/view-parameters/dist/index.js" xlink:title="index.js">
<polygon fill="#ffffcc" stroke="black" points="386,-476 384.5,-478 374,-478 372.5,-476 332,-476 332,-458 386,-458 386,-476"/>
<text text-anchor="start" x="341.5" y="-464.8" font-family="Helvetica,sans-Serif" font-size="9.00">index.js</text>
</a>
</g>
</g>
<!-- packages/music&#45;structure/analyzed&#45;data&#45;container/index.ts -->
<g id="node2" class="node">
<title>packages/music&#45;structure/analyzed&#45;data&#45;container/index.ts</title>
<g id="a_node2"><a xlink:href="packages/music-structure/analyzed-data-container/index.ts" xlink:title="index.ts">
<path fill="#ddfeff" stroke="black" d="M80,-258C80,-258 38,-258 38,-258 35,-258 32,-255 32,-252 32,-252 32,-246 32,-246 32,-243 35,-240 38,-240 38,-240 80,-240 80,-240 83,-240 86,-243 86,-246 86,-246 86,-252 86,-252 86,-255 83,-258 80,-258"/>
<text text-anchor="start" x="40.5" y="-246.8" font-family="Helvetica,sans-Serif" font-size="9.00">index.ts</text>
</a>
</g>
</g>
<!-- packages/music&#45;structure/analyzed&#45;data&#45;container/src/analyze&#45;data&#45;container.ts -->
<g id="node3" class="node">
<title>packages/music&#45;structure/analyzed&#45;data&#45;container/src/analyze&#45;data&#45;container.ts</title>
<g id="a_node3"><a xlink:href="packages/music-structure/analyzed-data-container/src/analyze-data-container.ts" xlink:title="analyze&#45;data&#45;container.ts">
<path fill="#ddfeff" stroke="black" d="M226,-258C226,-258 108,-258 108,-258 105,-258 102,-255 102,-252 102,-252 102,-246 102,-246 102,-243 105,-240 108,-240 108,-240 226,-240 226,-240 229,-240 232,-243 232,-246 232,-246 232,-252 232,-252 232,-255 229,-258 226,-258"/>
<text text-anchor="start" x="110" y="-246.8" font-family="Helvetica,sans-Serif" font-size="9.00">analyze&#45;data&#45;container.ts</text>
</a>
</g>
</g>
<!-- packages/music&#45;structure/analyzed&#45;data&#45;container/index.ts&#45;&gt;packages/music&#45;structure/analyzed&#45;data&#45;container/src/analyze&#45;data&#45;container.ts -->
<g id="edge1" class="edge">
<title>packages/music&#45;structure/analyzed&#45;data&#45;container/index.ts&#45;&gt;packages/music&#45;structure/analyzed&#45;data&#45;container/src/analyze&#45;data&#45;container.ts</title>
<path fill="none" stroke="#000000" stroke-width="2" stroke-opacity="0.200000" d="M86.2,-249C89.27,-249 92.5,-249 95.82,-249"/>
<polygon fill="#000000" fill-opacity="0.200000" stroke="#000000" stroke-width="2" stroke-opacity="0.200000" points="101.91,-251.1 95.91,-249 101.91,-246.9 101.91,-251.1"/>
</g>
<!-- packages/music&#45;structure/analyzed&#45;data&#45;container/src/analyze&#45;data&#45;container.ts&#45;&gt;packages/UI/view&#45;parameters/dist/index.js -->
<g id="edge5" class="edge">
<title>packages/music&#45;structure/analyzed&#45;data&#45;container/src/analyze&#45;data&#45;container.ts&#45;&gt;packages/UI/view&#45;parameters/dist/index.js</title>
<path fill="none" stroke="#000000" stroke-width="2" stroke-opacity="0.200000" d="M175.92,-258.09C205.62,-292.16 310.44,-412.43 346.05,-453.29"/>
<polygon fill="#000000" fill-opacity="0.200000" stroke="#000000" stroke-width="2" stroke-opacity="0.200000" points="344.52,-454.73 350.04,-457.87 347.68,-451.97 344.52,-454.73"/>
</g>
<!-- packages/music&#45;structure/beat/beat&#45;estimation/dist/index.js -->
<g id="node4" class="node">
<title>packages/music&#45;structure/beat/beat&#45;estimation/dist/index.js</title>
<g id="a_node4"><a xlink:href="packages/music-structure/beat/beat-estimation/dist/index.js" xlink:title="index.js">
<polygon fill="#ffffcc" stroke="black" points="386,-66 384.5,-68 374,-68 372.5,-66 332,-66 332,-48 386,-48 386,-66"/>
<text text-anchor="start" x="341.5" y="-54.8" font-family="Helvetica,sans-Serif" font-size="9.00">index.js</text>
</a>
</g>
</g>
<!-- packages/music&#45;structure/analyzed&#45;data&#45;container/src/analyze&#45;data&#45;container.ts&#45;&gt;packages/music&#45;structure/beat/beat&#45;estimation/dist/index.js -->
<g id="edge2" class="edge">
<title>packages/music&#45;structure/analyzed&#45;data&#45;container/src/analyze&#45;data&#45;container.ts&#45;&gt;packages/music&#45;structure/beat/beat&#45;estimation/dist/index.js</title>
<path fill="none" stroke="#000000" stroke-width="2" stroke-opacity="0.200000" d="M176.91,-240C207.38,-209.2 307.59,-107.94 344.34,-70.81"/>
<polygon fill="#000000" fill-opacity="0.200000" stroke="#000000" stroke-width="2" stroke-opacity="0.200000" points="346.16,-71.95 348.89,-66.21 343.18,-68.99 346.16,-71.95"/>
</g>
<!-- packages/music&#45;structure/chord/chord&#45;analyze/dist/index.js -->
<g id="node5" class="node">
<title>packages/music&#45;structure/chord/chord&#45;analyze/dist/index.js</title>
<g id="a_node5"><a xlink:href="packages/music-structure/chord/chord-analyze/dist/index.js" xlink:title="index.js">
<polygon fill="#ffffcc" stroke="black" points="386,-194 384.5,-196 374,-196 372.5,-194 332,-194 332,-176 386,-176 386,-194"/>
<text text-anchor="start" x="341.5" y="-182.8" font-family="Helvetica,sans-Serif" font-size="9.00">index.js</text>
</a>
</g>
</g>
<!-- packages/music&#45;structure/analyzed&#45;data&#45;container/src/analyze&#45;data&#45;container.ts&#45;&gt;packages/music&#45;structure/chord/chord&#45;analyze/dist/index.js -->
<g id="edge3" class="edge">
<title>packages/music&#45;structure/analyzed&#45;data&#45;container/src/analyze&#45;data&#45;container.ts&#45;&gt;packages/music&#45;structure/chord/chord&#45;analyze/dist/index.js</title>
<path fill="none" stroke="#000000" stroke-width="2" stroke-opacity="0.200000" d="M194.82,-239.97C229.39,-228.32 289.41,-208.11 326.22,-195.7"/>
<polygon fill="#000000" fill-opacity="0.200000" stroke="#000000" stroke-width="2" stroke-opacity="0.200000" points="326.91,-197.69 331.93,-193.78 325.57,-193.71 326.91,-197.69"/>
</g>
<!-- packages/music&#45;structure/melody/melody&#45;analyze/dist/index.js -->
<g id="node6" class="node">
<title>packages/music&#45;structure/melody/melody&#45;analyze/dist/index.js</title>
<g id="a_node6"><a xlink:href="packages/music-structure/melody/melody-analyze/dist/index.js" xlink:title="index.js">
<polygon fill="#ffffcc" stroke="black" points="386,-322 384.5,-324 374,-324 372.5,-322 332,-322 332,-304 386,-304 386,-322"/>
<text text-anchor="start" x="341.5" y="-310.8" font-family="Helvetica,sans-Serif" font-size="9.00">index.js</text>
</a>
</g>
</g>
<!-- packages/music&#45;structure/analyzed&#45;data&#45;container/src/analyze&#45;data&#45;container.ts&#45;&gt;packages/music&#45;structure/melody/melody&#45;analyze/dist/index.js -->
<g id="edge4" class="edge">
<title>packages/music&#45;structure/analyzed&#45;data&#45;container/src/analyze&#45;data&#45;container.ts&#45;&gt;packages/music&#45;structure/melody/melody&#45;analyze/dist/index.js</title>
<path fill="none" stroke="#000000" stroke-width="2" stroke-opacity="0.200000" d="M194.82,-258.03C229.39,-269.68 289.41,-289.89 326.22,-302.3"/>
<polygon fill="#000000" fill-opacity="0.200000" stroke="#000000" stroke-width="2" stroke-opacity="0.200000" points="325.57,-304.29 331.93,-304.22 326.91,-300.31 325.57,-304.29"/>
</g>
</g>
</svg>
