<?xml version="1.0" encoding="UTF-8" standalone="no"?>
<!DOCTYPE svg PUBLIC "-//W3C//DTD SVG 1.1//EN"
 "http://www.w3.org/Graphics/SVG/1.1/DTD/svg11.dtd">
<!-- Generated by graphviz version 2.43.0 (0)
 -->
<!-- Title: dependency&#45;cruiser output Pages: 1 -->
<svg width="232pt" height="163pt"
 viewBox="0.00 0.00 232.22 163.07" xmlns="http://www.w3.org/2000/svg" xmlns:xlink="http://www.w3.org/1999/xlink">
<g id="graph0" class="graph" transform="scale(1 1) rotate(0) translate(4 159.07)">
<title>dependency&#45;cruiser output</title>
<polygon fill="white" stroke="transparent" points="-4,4 -4,-159.07 228.22,-159.07 228.22,4 -4,4"/>
<g id="clust1" class="cluster">
<title>cluster_packages</title>
<path fill="#ffffff" stroke="black" stroke-width="2" d="M12,0C12,0 212.22,0 212.22,0 218.22,0 224.22,-6 224.22,-12 224.22,-12 224.22,-143.07 224.22,-143.07 224.22,-149.07 218.22,-155.07 212.22,-155.07 212.22,-155.07 12,-155.07 12,-155.07 6,-155.07 0,-149.07 0,-143.07 0,-143.07 0,-12 0,-12 0,-6 6,0 12,0"/>
<text text-anchor="middle" x="112.11" y="-143.87" font-family="Helvetica,sans-Serif" font-weight="bold" font-size="9.00">packages</text>
</g>
<!-- packages/UI/view&#45;parameters/src/bracket&#45;height.ts -->
<g id="node1" class="node">
<title>packages/UI/view&#45;parameters/src/bracket&#45;height.ts</title>
<g id="a_node1"><a xlink:href="packages/UI/view-parameters/src/bracket-height.ts" xlink:title="bracket&#45;height.ts">
<path fill="#ddfeff" stroke="black" d="M89,-113.02C89,-113.02 6,-113.02 6,-113.02 3,-113.02 0,-110.02 0,-107.02 0,-107.02 0,-101.02 0,-101.02 0,-98.02 3,-95.02 6,-95.02 6,-95.02 89,-95.02 89,-95.02 92,-95.02 95,-98.02 95,-101.02 95,-101.02 95,-107.02 95,-107.02 95,-110.02 92,-113.02 89,-113.02"/>
<text text-anchor="start" x="8" y="-101.82" font-family="Helvetica,sans-Serif" font-size="9.00">bracket&#45;height.ts</text>
</a>
</g>
</g>
<!-- packages/UI/view&#45;parameters/src/piano&#45;roll/piano&#45;roll&#45;begin.ts -->
<g id="node2" class="node">
<title>packages/UI/view&#45;parameters/src/piano&#45;roll/piano&#45;roll&#45;begin.ts</title>
<g id="a_node2"><a xlink:href="packages/UI/view-parameters/src/piano-roll/piano-roll-begin.ts" xlink:title="piano&#45;roll&#45;begin.ts">
<path fill="#ddfeff" stroke="black" d="M218.22,-60.08C218.22,-60.08 132.22,-60.08 132.22,-60.08 129.22,-60.08 126.22,-57.08 126.22,-54.08 126.22,-54.08 126.22,-48.08 126.22,-48.08 126.22,-45.08 129.22,-42.08 132.22,-42.08 132.22,-42.08 218.22,-42.08 218.22,-42.08 221.22,-42.08 224.22,-45.08 224.22,-48.08 224.22,-48.08 224.22,-54.08 224.22,-54.08 224.22,-57.08 221.22,-60.08 218.22,-60.08"/>
<text text-anchor="start" x="134.22" y="-48.88" font-family="Helvetica,sans-Serif" font-size="9.00">piano&#45;roll&#45;begin.ts</text>
</a>
</g>
</g>
<!-- packages/UI/view&#45;parameters/src/piano&#45;roll/piano&#45;roll&#45;end.ts -->
<g id="node3" class="node">
<title>packages/UI/view&#45;parameters/src/piano&#45;roll/piano&#45;roll&#45;end.ts</title>
<g id="a_node3"><a xlink:href="packages/UI/view-parameters/src/piano-roll/piano-roll-end.ts" xlink:title="piano&#45;roll&#45;end.ts">
<path fill="#ddfeff" stroke="black" d="M159.88,-18C159.88,-18 81.88,-18 81.88,-18 78.88,-18 75.88,-15 75.88,-12 75.88,-12 75.88,-6 75.88,-6 75.88,-3 78.88,0 81.88,0 81.88,0 159.88,0 159.88,0 162.88,0 165.88,-3 165.88,-6 165.88,-6 165.88,-12 165.88,-12 165.88,-15 162.88,-18 159.88,-18"/>
<text text-anchor="start" x="83.88" y="-6.8" font-family="Helvetica,sans-Serif" font-size="9.00">piano&#45;roll&#45;end.ts</text>
</a>
</g>
</g>
<!-- packages/music&#45;structure/analyzed&#45;data&#45;container/index.ts -->
<g id="node4" class="node">
<title>packages/music&#45;structure/analyzed&#45;data&#45;container/index.ts</title>
<g id="a_node4"><a xlink:href="packages/music-structure/analyzed-data-container/index.ts" xlink:title="index.ts">
<path fill="#ddfeff" stroke="black" d="M132.26,-86.47C132.26,-86.47 90.26,-86.47 90.26,-86.47 87.26,-86.47 84.26,-83.47 84.26,-80.47 84.26,-80.47 84.26,-74.47 84.26,-74.47 84.26,-71.47 87.26,-68.47 90.26,-68.47 90.26,-68.47 132.26,-68.47 132.26,-68.47 135.26,-68.47 138.26,-71.47 138.26,-74.47 138.26,-74.47 138.26,-80.47 138.26,-80.47 138.26,-83.47 135.26,-86.47 132.26,-86.47"/>
<text text-anchor="start" x="92.76" y="-75.27" font-family="Helvetica,sans-Serif" font-size="9.00">index.ts</text>
</a>
</g>
</g>
<!-- packages/music&#45;structure/analyzed&#45;data&#45;container/index.ts&#45;&gt;packages/UI/view&#45;parameters/src/bracket&#45;height.ts -->
<g id="edge4" class="edge">
<title>packages/music&#45;structure/analyzed&#45;data&#45;container/index.ts&#45;&gt;packages/UI/view&#45;parameters/src/bracket&#45;height.ts</title>
<path fill="none" stroke="#000000" stroke-width="2" stroke-opacity="0.200000" d="M89.31,-86.61C84.65,-88.55 79.68,-90.62 74.85,-92.63"/>
<polygon fill="#000000" fill-opacity="0.200000" stroke="#000000" stroke-width="2" stroke-opacity="0.200000" points="74,-90.71 69.27,-94.95 75.61,-94.59 74,-90.71"/>
</g>
<!-- packages/music&#45;structure/analyzed&#45;data&#45;container/index.ts&#45;&gt;packages/UI/view&#45;parameters/src/piano&#45;roll/piano&#45;roll&#45;begin.ts -->
<g id="edge5" class="edge">
<title>packages/music&#45;structure/analyzed&#45;data&#45;container/index.ts&#45;&gt;packages/UI/view&#45;parameters/src/piano&#45;roll/piano&#45;roll&#45;begin.ts</title>
<path fill="none" stroke="#000000" stroke-width="2" stroke-opacity="0.200000" d="M133.27,-68.39C137.94,-66.46 142.93,-64.4 147.78,-62.4"/>
<polygon fill="#000000" fill-opacity="0.200000" stroke="#000000" stroke-width="2" stroke-opacity="0.200000" points="148.64,-64.32 153.38,-60.09 147.03,-60.44 148.64,-64.32"/>
</g>
<!-- packages/music&#45;structure/analyzed&#45;data&#45;container/index.ts&#45;&gt;packages/UI/view&#45;parameters/src/piano&#45;roll/piano&#45;roll&#45;end.ts -->
<g id="edge6" class="edge">
<title>packages/music&#45;structure/analyzed&#45;data&#45;container/index.ts&#45;&gt;packages/UI/view&#45;parameters/src/piano&#45;roll/piano&#45;roll&#45;end.ts</title>
<path fill="none" stroke="#000000" stroke-width="2" stroke-opacity="0.200000" d="M112.55,-68.24C114.14,-56.94 116.85,-37.67 118.75,-24.18"/>
<polygon fill="#000000" fill-opacity="0.200000" stroke="#000000" stroke-width="2" stroke-opacity="0.200000" points="120.85,-24.32 119.61,-18.09 116.69,-23.74 120.85,-24.32"/>
</g>
<!-- packages/music&#45;structure/beat/beat&#45;estimation/dist/index.js -->
<g id="node5" class="node">
<title>packages/music&#45;structure/beat/beat&#45;estimation/dist/index.js</title>
<g id="a_node5"><a xlink:href="packages/music-structure/beat/beat-estimation/dist/index.js" xlink:title="index.js">
<polygon fill="#ffffcc" stroke="black" points="193.45,-128.14 191.95,-130.14 181.45,-130.14 179.95,-128.14 139.45,-128.14 139.45,-110.14 193.45,-110.14 193.45,-128.14"/>
<text text-anchor="start" x="148.95" y="-116.94" font-family="Helvetica,sans-Serif" font-size="9.00">index.js</text>
</a>
</g>
</g>
<!-- packages/music&#45;structure/analyzed&#45;data&#45;container/index.ts&#45;&gt;packages/music&#45;structure/beat/beat&#45;estimation/dist/index.js -->
<g id="edge1" class="edge">
<title>packages/music&#45;structure/analyzed&#45;data&#45;container/index.ts&#45;&gt;packages/music&#45;structure/beat/beat&#45;estimation/dist/index.js</title>
<path fill="none" stroke="#000000" stroke-width="2" stroke-opacity="0.200000" d="M123.23,-86.51C130.9,-92.3 140.96,-99.9 149.45,-106.31"/>
<polygon fill="#000000" fill-opacity="0.200000" stroke="#000000" stroke-width="2" stroke-opacity="0.200000" points="148.44,-108.18 154.49,-110.12 150.97,-104.82 148.44,-108.18"/>
</g>
<!-- packages/music&#45;structure/chord/chord&#45;analyze/dist/index.js -->
<g id="node6" class="node">
<title>packages/music&#45;structure/chord/chord&#45;analyze/dist/index.js</title>
<g id="a_node6"><a xlink:href="packages/music-structure/chord/chord-analyze/dist/index.js" xlink:title="index.js">
<polygon fill="#ffffcc" stroke="black" points="129.95,-155.07 128.45,-157.07 117.95,-157.07 116.45,-155.07 75.95,-155.07 75.95,-137.07 129.95,-137.07 129.95,-155.07"/>
<text text-anchor="start" x="85.45" y="-143.87" font-family="Helvetica,sans-Serif" font-size="9.00">index.js</text>
</a>
</g>
</g>
<!-- packages/music&#45;structure/analyzed&#45;data&#45;container/index.ts&#45;&gt;packages/music&#45;structure/chord/chord&#45;analyze/dist/index.js -->
<g id="edge2" class="edge">
<title>packages/music&#45;structure/analyzed&#45;data&#45;container/index.ts&#45;&gt;packages/music&#45;structure/chord/chord&#45;analyze/dist/index.js</title>
<path fill="none" stroke="#000000" stroke-width="2" stroke-opacity="0.200000" d="M110.13,-86.72C108.76,-98.03 106.42,-117.34 104.79,-130.86"/>
<polygon fill="#000000" fill-opacity="0.200000" stroke="#000000" stroke-width="2" stroke-opacity="0.200000" points="102.69,-130.75 104.05,-136.96 106.85,-131.26 102.69,-130.75"/>
</g>
<!-- packages/music&#45;structure/melody/melody&#45;analyze/dist/index.js -->
<g id="node7" class="node">
<title>packages/music&#45;structure/melody/melody&#45;analyze/dist/index.js</title>
<g id="a_node7"><a xlink:href="packages/music-structure/melody/melody-analyze/dist/index.js" xlink:title="index.js">
<polygon fill="#ffffcc" stroke="black" points="83.78,-44 82.28,-46 71.78,-46 70.28,-44 29.78,-44 29.78,-26 83.78,-26 83.78,-44"/>
<text text-anchor="start" x="39.28" y="-32.8" font-family="Helvetica,sans-Serif" font-size="9.00">index.js</text>
</a>
</g>
</g>
<!-- packages/music&#45;structure/analyzed&#45;data&#45;container/index.ts&#45;&gt;packages/music&#45;structure/melody/melody&#45;analyze/dist/index.js -->
<g id="edge3" class="edge">
<title>packages/music&#45;structure/analyzed&#45;data&#45;container/index.ts&#45;&gt;packages/music&#45;structure/melody/melody&#45;analyze/dist/index.js</title>
<path fill="none" stroke="#000000" stroke-width="2" stroke-opacity="0.200000" d="M99.7,-68.46C92.15,-62.58 82.16,-54.79 73.71,-48.2"/>
<polygon fill="#000000" fill-opacity="0.200000" stroke="#000000" stroke-width="2" stroke-opacity="0.200000" points="74.71,-46.32 68.69,-44.29 72.13,-49.63 74.71,-46.32"/>
</g>
</g>
</svg>
