<?xml version="1.0" encoding="UTF-8" standalone="no"?>
<!DOCTYPE svg PUBLIC "-//W3C//DTD SVG 1.1//EN"
 "http://www.w3.org/Graphics/SVG/1.1/DTD/svg11.dtd">
<!-- Generated by graphviz version 2.43.0 (0)
 -->
<!-- Title: dependency&#45;cruiser output Pages: 1 -->
<svg width="438pt" height="468pt"
 viewBox="0.00 0.00 438.00 468.00" xmlns="http://www.w3.org/2000/svg" xmlns:xlink="http://www.w3.org/1999/xlink">
<g id="graph0" class="graph" transform="scale(1 1) rotate(0) translate(4 464)">
<title>dependency&#45;cruiser output</title>
<polygon fill="white" stroke="transparent" points="-4,4 -4,-464 434,-464 434,4 -4,4"/>
<g id="clust1" class="cluster">
<title>cluster_packages</title>
<path fill="#ffffff" stroke="black" stroke-width="2" d="M20,-8C20,-8 416,-8 416,-8 422,-8 428,-14 428,-20 428,-20 428,-440 428,-440 428,-446 422,-452 416,-452 416,-452 20,-452 20,-452 14,-452 8,-446 8,-440 8,-440 8,-20 8,-20 8,-14 14,-8 20,-8"/>
<text text-anchor="middle" x="218" y="-440.8" font-family="Helvetica,sans-Serif" font-weight="bold" font-size="9.00">packages</text>
</g>
<g id="clust2" class="cluster">
<title>cluster_packages/music&#45;structure</title>
<path fill="#ffffff" stroke="black" stroke-width="2" d="M28,-16C28,-16 408,-16 408,-16 414,-16 420,-22 420,-28 420,-28 420,-414 420,-414 420,-420 414,-426 408,-426 408,-426 28,-426 28,-426 22,-426 16,-420 16,-414 16,-414 16,-28 16,-28 16,-22 22,-16 28,-16"/>
<text text-anchor="middle" x="218" y="-414.8" font-family="Helvetica,sans-Serif" font-weight="bold" font-size="9.00">music&#45;structure</text>
</g>
<g id="clust3" class="cluster">
<title>cluster_packages/music&#45;structure/analyzed&#45;data&#45;container</title>
<path fill="#ffffff" stroke="black" stroke-width="2" d="M36,-160C36,-160 236,-160 236,-160 242,-160 248,-166 248,-172 248,-172 248,-234 248,-234 248,-240 242,-246 236,-246 236,-246 36,-246 36,-246 30,-246 24,-240 24,-234 24,-234 24,-172 24,-172 24,-166 30,-160 36,-160"/>
<text text-anchor="middle" x="136" y="-234.8" font-family="Helvetica,sans-Serif" font-weight="bold" font-size="9.00">analyzed&#45;data&#45;container</text>
</g>
<g id="clust4" class="cluster">
<title>cluster_packages/music&#45;structure/analyzed&#45;data&#45;container/src</title>
<path fill="#ffffff" stroke="black" stroke-width="2" d="M106,-168C106,-168 228,-168 228,-168 234,-168 240,-174 240,-180 240,-180 240,-208 240,-208 240,-214 234,-220 228,-220 228,-220 106,-220 106,-220 100,-220 94,-214 94,-208 94,-208 94,-180 94,-180 94,-174 100,-168 106,-168"/>
<text text-anchor="middle" x="167" y="-208.8" font-family="Helvetica,sans-Serif" font-weight="bold" font-size="9.00">src</text>
</g>
<g id="clust5" class="cluster">
<title>cluster_packages/music&#45;structure/beat</title>
<path fill="#ffffff" stroke="black" stroke-width="2" d="M310,-24C310,-24 400,-24 400,-24 406,-24 412,-30 412,-36 412,-36 412,-132 412,-132 412,-138 406,-144 400,-144 400,-144 310,-144 310,-144 304,-144 298,-138 298,-132 298,-132 298,-36 298,-36 298,-30 304,-24 310,-24"/>
<text text-anchor="middle" x="355" y="-132.8" font-family="Helvetica,sans-Serif" font-weight="bold" font-size="9.00">beat</text>
</g>
<g id="clust6" class="cluster">
<title>cluster_packages/music&#45;structure/beat/beat&#45;estimation</title>
<path fill="#ffffff" stroke="black" stroke-width="2" d="M318,-32C318,-32 392,-32 392,-32 398,-32 404,-38 404,-44 404,-44 404,-106 404,-106 404,-112 398,-118 392,-118 392,-118 318,-118 318,-118 312,-118 306,-112 306,-106 306,-106 306,-44 306,-44 306,-38 312,-32 318,-32"/>
<text text-anchor="middle" x="355" y="-106.8" font-family="Helvetica,sans-Serif" font-weight="bold" font-size="9.00">beat&#45;estimation</text>
</g>
<g id="clust7" class="cluster">
<title>cluster_packages/music&#45;structure/beat/beat&#45;estimation/dist</title>
<path fill="#ffffff" stroke="black" stroke-width="2" d="M332,-40C332,-40 378,-40 378,-40 384,-40 390,-46 390,-52 390,-52 390,-80 390,-80 390,-86 384,-92 378,-92 378,-92 332,-92 332,-92 326,-92 320,-86 320,-80 320,-80 320,-52 320,-52 320,-46 326,-40 332,-40"/>
<text text-anchor="middle" x="355" y="-80.8" font-family="Helvetica,sans-Serif" font-weight="bold" font-size="9.00">dist</text>
</g>
<g id="clust8" class="cluster">
<title>cluster_packages/music&#45;structure/chord</title>
<path fill="#ffffff" stroke="black" stroke-width="2" d="M315,-152C315,-152 396,-152 396,-152 402,-152 408,-158 408,-164 408,-164 408,-260 408,-260 408,-266 402,-272 396,-272 396,-272 315,-272 315,-272 309,-272 303,-266 303,-260 303,-260 303,-164 303,-164 303,-158 309,-152 315,-152"/>
<text text-anchor="middle" x="355.5" y="-260.8" font-family="Helvetica,sans-Serif" font-weight="bold" font-size="9.00">chord</text>
</g>
<g id="clust9" class="cluster">
<title>cluster_packages/music&#45;structure/chord/chord&#45;analyze</title>
<path fill="#ffffff" stroke="black" stroke-width="2" d="M323,-160C323,-160 388,-160 388,-160 394,-160 400,-166 400,-172 400,-172 400,-234 400,-234 400,-240 394,-246 388,-246 388,-246 323,-246 323,-246 317,-246 311,-240 311,-234 311,-234 311,-172 311,-172 311,-166 317,-160 323,-160"/>
<text text-anchor="middle" x="355.5" y="-234.8" font-family="Helvetica,sans-Serif" font-weight="bold" font-size="9.00">chord&#45;analyze</text>
</g>
<g id="clust10" class="cluster">
<title>cluster_packages/music&#45;structure/chord/chord&#45;analyze/dist</title>
<path fill="#ffffff" stroke="black" stroke-width="2" d="M332,-168C332,-168 378,-168 378,-168 384,-168 390,-174 390,-180 390,-180 390,-208 390,-208 390,-214 384,-220 378,-220 378,-220 332,-220 332,-220 326,-220 320,-214 320,-208 320,-208 320,-180 320,-180 320,-174 326,-168 332,-168"/>
<text text-anchor="middle" x="355" y="-208.8" font-family="Helvetica,sans-Serif" font-weight="bold" font-size="9.00">dist</text>
</g>
<g id="clust11" class="cluster">
<title>cluster_packages/music&#45;structure/melody</title>
<path fill="#ffffff" stroke="black" stroke-width="2" d="M311,-280C311,-280 400,-280 400,-280 406,-280 412,-286 412,-292 412,-292 412,-388 412,-388 412,-394 406,-400 400,-400 400,-400 311,-400 311,-400 305,-400 299,-394 299,-388 299,-388 299,-292 299,-292 299,-286 305,-280 311,-280"/>
<text text-anchor="middle" x="355.5" y="-388.8" font-family="Helvetica,sans-Serif" font-weight="bold" font-size="9.00">melody</text>
</g>
<g id="clust12" class="cluster">
<title>cluster_packages/music&#45;structure/melody/melody&#45;analyze</title>
<path fill="#ffffff" stroke="black" stroke-width="2" d="M319,-288C319,-288 392,-288 392,-288 398,-288 404,-294 404,-300 404,-300 404,-362 404,-362 404,-368 398,-374 392,-374 392,-374 319,-374 319,-374 313,-374 307,-368 307,-362 307,-362 307,-300 307,-300 307,-294 313,-288 319,-288"/>
<text text-anchor="middle" x="355.5" y="-362.8" font-family="Helvetica,sans-Serif" font-weight="bold" font-size="9.00">melody&#45;analyze</text>
</g>
<g id="clust13" class="cluster">
<title>cluster_packages/music&#45;structure/melody/melody&#45;analyze/dist</title>
<path fill="#ffffff" stroke="black" stroke-width="2" d="M332,-296C332,-296 378,-296 378,-296 384,-296 390,-302 390,-308 390,-308 390,-336 390,-336 390,-342 384,-348 378,-348 378,-348 332,-348 332,-348 326,-348 320,-342 320,-336 320,-336 320,-308 320,-308 320,-302 326,-296 332,-296"/>
<text text-anchor="middle" x="355" y="-336.8" font-family="Helvetica,sans-Serif" font-weight="bold" font-size="9.00">dist</text>
</g>
<!-- packages/music&#45;structure/analyzed&#45;data&#45;container/index.ts -->
<g id="node1" class="node">
<title>packages/music&#45;structure/analyzed&#45;data&#45;container/index.ts</title>
<g id="a_node1"><a xlink:href="packages/music-structure/analyzed-data-container/index.ts" xlink:title="index.ts">
<path fill="#ddfeff" stroke="black" d="M80,-194C80,-194 38,-194 38,-194 35,-194 32,-191 32,-188 32,-188 32,-182 32,-182 32,-179 35,-176 38,-176 38,-176 80,-176 80,-176 83,-176 86,-179 86,-182 86,-182 86,-188 86,-188 86,-191 83,-194 80,-194"/>
<text text-anchor="start" x="40.5" y="-182.8" font-family="Helvetica,sans-Serif" font-size="9.00">index.ts</text>
</a>
</g>
</g>
<!-- packages/music&#45;structure/analyzed&#45;data&#45;container/src/analyze&#45;data&#45;container.ts -->
<g id="node2" class="node">
<title>packages/music&#45;structure/analyzed&#45;data&#45;container/src/analyze&#45;data&#45;container.ts</title>
<g id="a_node2"><a xlink:href="packages/music-structure/analyzed-data-container/src/analyze-data-container.ts" xlink:title="analyze&#45;data&#45;container.ts">
<path fill="#ddfeff" stroke="black" d="M226,-194C226,-194 108,-194 108,-194 105,-194 102,-191 102,-188 102,-188 102,-182 102,-182 102,-179 105,-176 108,-176 108,-176 226,-176 226,-176 229,-176 232,-179 232,-182 232,-182 232,-188 232,-188 232,-191 229,-194 226,-194"/>
<text text-anchor="start" x="110" y="-182.8" font-family="Helvetica,sans-Serif" font-size="9.00">analyze&#45;data&#45;container.ts</text>
</a>
</g>
</g>
<!-- packages/music&#45;structure/analyzed&#45;data&#45;container/index.ts&#45;&gt;packages/music&#45;structure/analyzed&#45;data&#45;container/src/analyze&#45;data&#45;container.ts -->
<g id="edge1" class="edge">
<title>packages/music&#45;structure/analyzed&#45;data&#45;container/index.ts&#45;&gt;packages/music&#45;structure/analyzed&#45;data&#45;container/src/analyze&#45;data&#45;container.ts</title>
<path fill="none" stroke="#000000" stroke-width="2" stroke-opacity="0.200000" d="M86.2,-185C89.27,-185 92.5,-185 95.82,-185"/>
<polygon fill="#000000" fill-opacity="0.200000" stroke="#000000" stroke-width="2" stroke-opacity="0.200000" points="101.91,-187.1 95.91,-185 101.91,-182.9 101.91,-187.1"/>
</g>
<!-- packages/music&#45;structure/beat/beat&#45;estimation/dist/index.js -->
<g id="node3" class="node">
<title>packages/music&#45;structure/beat/beat&#45;estimation/dist/index.js</title>
<g id="a_node3"><a xlink:href="packages/music-structure/beat/beat-estimation/dist/index.js" xlink:title="index.js">
<polygon fill="#ffffcc" stroke="black" points="382,-66 380.5,-68 370,-68 368.5,-66 328,-66 328,-48 382,-48 382,-66"/>
<text text-anchor="start" x="337.5" y="-54.8" font-family="Helvetica,sans-Serif" font-size="9.00">index.js</text>
</a>
</g>
</g>
<!-- packages/music&#45;structure/analyzed&#45;data&#45;container/src/analyze&#45;data&#45;container.ts&#45;&gt;packages/music&#45;structure/beat/beat&#45;estimation/dist/index.js -->
<g id="edge2" class="edge">
<title>packages/music&#45;structure/analyzed&#45;data&#45;container/src/analyze&#45;data&#45;container.ts&#45;&gt;packages/music&#45;structure/beat/beat&#45;estimation/dist/index.js</title>
<path fill="none" stroke="#000000" stroke-width="2" stroke-opacity="0.200000" d="M181.08,-176C213.55,-153.65 297.93,-95.58 335.5,-69.73"/>
<polygon fill="#000000" fill-opacity="0.200000" stroke="#000000" stroke-width="2" stroke-opacity="0.200000" points="336.93,-71.29 340.69,-66.16 334.55,-67.83 336.93,-71.29"/>
</g>
<!-- packages/music&#45;structure/chord/chord&#45;analyze/dist/index.js -->
<g id="node4" class="node">
<title>packages/music&#45;structure/chord/chord&#45;analyze/dist/index.js</title>
<g id="a_node4"><a xlink:href="packages/music-structure/chord/chord-analyze/dist/index.js" xlink:title="index.js">
<polygon fill="#ffffcc" stroke="black" points="382,-194 380.5,-196 370,-196 368.5,-194 328,-194 328,-176 382,-176 382,-194"/>
<text text-anchor="start" x="337.5" y="-182.8" font-family="Helvetica,sans-Serif" font-size="9.00">index.js</text>
</a>
</g>
</g>
<!-- packages/music&#45;structure/analyzed&#45;data&#45;container/src/analyze&#45;data&#45;container.ts&#45;&gt;packages/music&#45;structure/chord/chord&#45;analyze/dist/index.js -->
<g id="edge3" class="edge">
<title>packages/music&#45;structure/analyzed&#45;data&#45;container/src/analyze&#45;data&#45;container.ts&#45;&gt;packages/music&#45;structure/chord/chord&#45;analyze/dist/index.js</title>
<path fill="none" stroke="#000000" stroke-width="2" stroke-opacity="0.200000" d="M232.01,-185C262.24,-185 297,-185 321.66,-185"/>
<polygon fill="#000000" fill-opacity="0.200000" stroke="#000000" stroke-width="2" stroke-opacity="0.200000" points="321.71,-187.1 327.71,-185 321.71,-182.9 321.71,-187.1"/>
</g>
<!-- packages/music&#45;structure/melody/melody&#45;analyze/dist/index.js -->
<g id="node5" class="node">
<title>packages/music&#45;structure/melody/melody&#45;analyze/dist/index.js</title>
<g id="a_node5"><a xlink:href="packages/music-structure/melody/melody-analyze/dist/index.js" xlink:title="index.js">
<polygon fill="#ffffcc" stroke="black" points="382,-322 380.5,-324 370,-324 368.5,-322 328,-322 328,-304 382,-304 382,-322"/>
<text text-anchor="start" x="337.5" y="-310.8" font-family="Helvetica,sans-Serif" font-size="9.00">index.js</text>
</a>
</g>
</g>
<!-- packages/music&#45;structure/analyzed&#45;data&#45;container/src/analyze&#45;data&#45;container.ts&#45;&gt;packages/music&#45;structure/melody/melody&#45;analyze/dist/index.js -->
<g id="edge4" class="edge">
<title>packages/music&#45;structure/analyzed&#45;data&#45;container/src/analyze&#45;data&#45;container.ts&#45;&gt;packages/music&#45;structure/melody/melody&#45;analyze/dist/index.js</title>
<path fill="none" stroke="#000000" stroke-width="2" stroke-opacity="0.200000" d="M181.08,-194C213.55,-216.35 297.93,-274.42 335.5,-300.27"/>
<polygon fill="#000000" fill-opacity="0.200000" stroke="#000000" stroke-width="2" stroke-opacity="0.200000" points="334.55,-302.17 340.69,-303.84 336.93,-298.71 334.55,-302.17"/>
</g>
</g>
</svg>
