<?xml version="1.0" encoding="UTF-8" standalone="no"?>
<!DOCTYPE svg PUBLIC "-//W3C//DTD SVG 1.1//EN"
 "http://www.w3.org/Graphics/SVG/1.1/DTD/svg11.dtd">
<!-- Generated by graphviz version 2.43.0 (0)
 -->
<!-- Title: dependency&#45;cruiser output Pages: 1 -->
<svg width="676pt" height="720pt"
 viewBox="0.00 0.00 676.00 720.00" xmlns="http://www.w3.org/2000/svg" xmlns:xlink="http://www.w3.org/1999/xlink">
<g id="graph0" class="graph" transform="scale(1 1) rotate(0) translate(4 716)">
<title>dependency&#45;cruiser output</title>
<polygon fill="white" stroke="transparent" points="-4,4 -4,-716 672,-716 672,4 -4,4"/>
<g id="clust1" class="cluster">
<title>cluster_packages</title>
<path fill="#ffffff" stroke="black" stroke-width="2" d="M12,-8C12,-8 656,-8 656,-8 662,-8 668,-14 668,-20 668,-20 668,-692 668,-692 668,-698 662,-704 656,-704 656,-704 12,-704 12,-704 6,-704 0,-698 0,-692 0,-692 0,-20 0,-20 0,-14 6,-8 12,-8"/>
<text text-anchor="middle" x="334" y="-692.8" font-family="Helvetica,sans-Serif" font-weight="bold" font-size="9.00">packages</text>
</g>
<g id="clust2" class="cluster">
<title>cluster_packages/UI</title>
<path fill="#ffffff" stroke="black" stroke-width="2" d="M214.5,-468C214.5,-468 352.5,-468 352.5,-468 358.5,-468 364.5,-474 364.5,-480 364.5,-480 364.5,-666 364.5,-666 364.5,-672 358.5,-678 352.5,-678 352.5,-678 214.5,-678 214.5,-678 208.5,-678 202.5,-672 202.5,-666 202.5,-666 202.5,-480 202.5,-480 202.5,-474 208.5,-468 214.5,-468"/>
<text text-anchor="middle" x="283.5" y="-666.8" font-family="Helvetica,sans-Serif" font-weight="bold" font-size="9.00">UI</text>
</g>
<g id="clust3" class="cluster">
<title>cluster_packages/UI/view&#45;parameters</title>
<path fill="#ffffff" stroke="black" stroke-width="2" d="M222.5,-476C222.5,-476 344.5,-476 344.5,-476 350.5,-476 356.5,-482 356.5,-488 356.5,-488 356.5,-640 356.5,-640 356.5,-646 350.5,-652 344.5,-652 344.5,-652 222.5,-652 222.5,-652 216.5,-652 210.5,-646 210.5,-640 210.5,-640 210.5,-488 210.5,-488 210.5,-482 216.5,-476 222.5,-476"/>
<text text-anchor="middle" x="283.5" y="-640.8" font-family="Helvetica,sans-Serif" font-weight="bold" font-size="9.00">view&#45;parameters</text>
</g>
<g id="clust4" class="cluster">
<title>cluster_packages/UI/view&#45;parameters/src</title>
<path fill="#ffffff" stroke="black" stroke-width="2" d="M230.5,-484C230.5,-484 336.5,-484 336.5,-484 342.5,-484 348.5,-490 348.5,-496 348.5,-496 348.5,-614 348.5,-614 348.5,-620 342.5,-626 336.5,-626 336.5,-626 230.5,-626 230.5,-626 224.5,-626 218.5,-620 218.5,-614 218.5,-614 218.5,-496 218.5,-496 218.5,-490 224.5,-484 230.5,-484"/>
<text text-anchor="middle" x="283.5" y="-614.8" font-family="Helvetica,sans-Serif" font-weight="bold" font-size="9.00">src</text>
</g>
<g id="clust5" class="cluster">
<title>cluster_packages/UI/view&#45;parameters/src/piano&#45;roll</title>
<path fill="#ffffff" stroke="black" stroke-width="2" d="M238.5,-518C238.5,-518 328.5,-518 328.5,-518 334.5,-518 340.5,-524 340.5,-530 340.5,-530 340.5,-588 340.5,-588 340.5,-594 334.5,-600 328.5,-600 328.5,-600 238.5,-600 238.5,-600 232.5,-600 226.5,-594 226.5,-588 226.5,-588 226.5,-530 226.5,-530 226.5,-524 232.5,-518 238.5,-518"/>
<text text-anchor="middle" x="283.5" y="-588.8" font-family="Helvetica,sans-Serif" font-weight="bold" font-size="9.00">piano&#45;roll</text>
</g>
<g id="clust6" class="cluster">
<title>cluster_packages/cognitive&#45;theory&#45;of&#45;music</title>
<path fill="#ffffff" stroke="black" stroke-width="2" d="M523,-468C523,-468 648,-468 648,-468 654,-468 660,-474 660,-480 660,-480 660,-576 660,-576 660,-582 654,-588 648,-588 648,-588 523,-588 523,-588 517,-588 511,-582 511,-576 511,-576 511,-480 511,-480 511,-474 517,-468 523,-468"/>
<text text-anchor="middle" x="585.5" y="-576.8" font-family="Helvetica,sans-Serif" font-weight="bold" font-size="9.00">cognitive&#45;theory&#45;of&#45;music</text>
</g>
<g id="clust7" class="cluster">
<title>cluster_packages/cognitive&#45;theory&#45;of&#45;music/irm</title>
<path fill="#ffffff" stroke="black" stroke-width="2" d="M554,-476C554,-476 616,-476 616,-476 622,-476 628,-482 628,-488 628,-488 628,-550 628,-550 628,-556 622,-562 616,-562 616,-562 554,-562 554,-562 548,-562 542,-556 542,-550 542,-550 542,-488 542,-488 542,-482 548,-476 554,-476"/>
<text text-anchor="middle" x="585" y="-550.8" font-family="Helvetica,sans-Serif" font-weight="bold" font-size="9.00">irm</text>
</g>
<g id="clust8" class="cluster">
<title>cluster_packages/cognitive&#45;theory&#45;of&#45;music/irm/dist</title>
<path fill="#ffffff" stroke="black" stroke-width="2" d="M562,-484C562,-484 608,-484 608,-484 614,-484 620,-490 620,-496 620,-496 620,-524 620,-524 620,-530 614,-536 608,-536 608,-536 562,-536 562,-536 556,-536 550,-530 550,-524 550,-524 550,-496 550,-496 550,-490 556,-484 562,-484"/>
<text text-anchor="middle" x="585" y="-524.8" font-family="Helvetica,sans-Serif" font-weight="bold" font-size="9.00">dist</text>
</g>
<g id="clust9" class="cluster">
<title>cluster_packages/music&#45;structure</title>
<path fill="#ffffff" stroke="black" stroke-width="2" d="M20,-16C20,-16 634,-16 634,-16 640,-16 646,-22 646,-28 646,-28 646,-448 646,-448 646,-454 640,-460 634,-460 634,-460 20,-460 20,-460 14,-460 8,-454 8,-448 8,-448 8,-28 8,-28 8,-22 14,-16 20,-16"/>
<text text-anchor="middle" x="327" y="-448.8" font-family="Helvetica,sans-Serif" font-weight="bold" font-size="9.00">music&#45;structure</text>
</g>
<g id="clust10" class="cluster">
<title>cluster_packages/music&#45;structure/analyzed&#45;data&#45;container</title>
<path fill="#ffffff" stroke="black" stroke-width="2" d="M28,-343C28,-343 146,-343 146,-343 152,-343 158,-349 158,-355 158,-355 158,-383 158,-383 158,-389 152,-395 146,-395 146,-395 28,-395 28,-395 22,-395 16,-389 16,-383 16,-383 16,-355 16,-355 16,-349 22,-343 28,-343"/>
<text text-anchor="middle" x="87" y="-383.8" font-family="Helvetica,sans-Serif" font-weight="bold" font-size="9.00">analyzed&#45;data&#45;container</text>
</g>
<g id="clust11" class="cluster">
<title>cluster_packages/music&#45;structure/beat</title>
<path fill="#ffffff" stroke="black" stroke-width="2" d="M238.5,-24C238.5,-24 328.5,-24 328.5,-24 334.5,-24 340.5,-30 340.5,-36 340.5,-36 340.5,-132 340.5,-132 340.5,-138 334.5,-144 328.5,-144 328.5,-144 238.5,-144 238.5,-144 232.5,-144 226.5,-138 226.5,-132 226.5,-132 226.5,-36 226.5,-36 226.5,-30 232.5,-24 238.5,-24"/>
<text text-anchor="middle" x="283.5" y="-132.8" font-family="Helvetica,sans-Serif" font-weight="bold" font-size="9.00">beat</text>
</g>
<g id="clust12" class="cluster">
<title>cluster_packages/music&#45;structure/beat/beat&#45;estimation</title>
<path fill="#ffffff" stroke="black" stroke-width="2" d="M246.5,-32C246.5,-32 320.5,-32 320.5,-32 326.5,-32 332.5,-38 332.5,-44 332.5,-44 332.5,-106 332.5,-106 332.5,-112 326.5,-118 320.5,-118 320.5,-118 246.5,-118 246.5,-118 240.5,-118 234.5,-112 234.5,-106 234.5,-106 234.5,-44 234.5,-44 234.5,-38 240.5,-32 246.5,-32"/>
<text text-anchor="middle" x="283.5" y="-106.8" font-family="Helvetica,sans-Serif" font-weight="bold" font-size="9.00">beat&#45;estimation</text>
</g>
<g id="clust13" class="cluster">
<title>cluster_packages/music&#45;structure/beat/beat&#45;estimation/dist</title>
<path fill="#ffffff" stroke="black" stroke-width="2" d="M260.5,-40C260.5,-40 306.5,-40 306.5,-40 312.5,-40 318.5,-46 318.5,-52 318.5,-52 318.5,-80 318.5,-80 318.5,-86 312.5,-92 306.5,-92 306.5,-92 260.5,-92 260.5,-92 254.5,-92 248.5,-86 248.5,-80 248.5,-80 248.5,-52 248.5,-52 248.5,-46 254.5,-40 260.5,-40"/>
<text text-anchor="middle" x="283.5" y="-80.8" font-family="Helvetica,sans-Serif" font-weight="bold" font-size="9.00">dist</text>
</g>
<g id="clust14" class="cluster">
<title>cluster_packages/music&#45;structure/chord</title>
<path fill="#ffffff" stroke="black" stroke-width="2" d="M194,-280C194,-280 373,-280 373,-280 379,-280 385,-286 385,-292 385,-292 385,-422 385,-422 385,-428 379,-434 373,-434 373,-434 194,-434 194,-434 188,-434 182,-428 182,-422 182,-422 182,-292 182,-292 182,-286 188,-280 194,-280"/>
<text text-anchor="middle" x="283.5" y="-422.8" font-family="Helvetica,sans-Serif" font-weight="bold" font-size="9.00">chord</text>
</g>
<g id="clust15" class="cluster">
<title>cluster_packages/music&#45;structure/chord/chord&#45;analyze</title>
<path fill="#ffffff" stroke="black" stroke-width="2" d="M202,-288C202,-288 365,-288 365,-288 371,-288 377,-294 377,-300 377,-300 377,-396 377,-396 377,-402 371,-408 365,-408 365,-408 202,-408 202,-408 196,-408 190,-402 190,-396 190,-396 190,-300 190,-300 190,-294 196,-288 202,-288"/>
<text text-anchor="middle" x="283.5" y="-396.8" font-family="Helvetica,sans-Serif" font-weight="bold" font-size="9.00">chord&#45;analyze</text>
</g>
<g id="clust16" class="cluster">
<title>cluster_packages/music&#45;structure/chord/chord&#45;analyze/src</title>
<path fill="#ffffff" stroke="black" stroke-width="2" d="M210,-296C210,-296 357,-296 357,-296 363,-296 369,-302 369,-308 369,-308 369,-370 369,-370 369,-376 363,-382 357,-382 357,-382 210,-382 210,-382 204,-382 198,-376 198,-370 198,-370 198,-308 198,-308 198,-302 204,-296 210,-296"/>
<text text-anchor="middle" x="283.5" y="-370.8" font-family="Helvetica,sans-Serif" font-weight="bold" font-size="9.00">src</text>
</g>
<g id="clust17" class="cluster">
<title>cluster_packages/music&#45;structure/chord/chord&#45;analyze/src/chord&#45;analyze</title>
<path fill="#ffffff" stroke="black" stroke-width="2" d="M218,-304C218,-304 349,-304 349,-304 355,-304 361,-310 361,-316 361,-316 361,-344 361,-344 361,-350 355,-356 349,-356 349,-356 218,-356 218,-356 212,-356 206,-350 206,-344 206,-344 206,-316 206,-316 206,-310 212,-304 218,-304"/>
<text text-anchor="middle" x="283.5" y="-344.8" font-family="Helvetica,sans-Serif" font-weight="bold" font-size="9.00">chord&#45;analyze</text>
</g>
<g id="clust18" class="cluster">
<title>cluster_packages/music&#45;structure/melody</title>
<path fill="#ffffff" stroke="black" stroke-width="2" d="M198.5,-152C198.5,-152 626,-152 626,-152 632,-152 638,-158 638,-164 638,-164 638,-260 638,-260 638,-266 632,-272 626,-272 626,-272 198.5,-272 198.5,-272 192.5,-272 186.5,-266 186.5,-260 186.5,-260 186.5,-164 186.5,-164 186.5,-158 192.5,-152 198.5,-152"/>
<text text-anchor="middle" x="412.25" y="-260.8" font-family="Helvetica,sans-Serif" font-weight="bold" font-size="9.00">melody</text>
</g>
<g id="clust19" class="cluster">
<title>cluster_packages/music&#45;structure/melody/melody&#45;analyze</title>
<path fill="#ffffff" stroke="black" stroke-width="2" d="M206.5,-160C206.5,-160 618,-160 618,-160 624,-160 630,-166 630,-172 630,-172 630,-234 630,-234 630,-240 624,-246 618,-246 618,-246 206.5,-246 206.5,-246 200.5,-246 194.5,-240 194.5,-234 194.5,-234 194.5,-172 194.5,-172 194.5,-166 200.5,-160 206.5,-160"/>
<text text-anchor="middle" x="412.25" y="-234.8" font-family="Helvetica,sans-Serif" font-weight="bold" font-size="9.00">melody&#45;analyze</text>
</g>
<g id="clust20" class="cluster">
<title>cluster_packages/music&#45;structure/melody/melody&#45;analyze/src</title>
<path fill="#ffffff" stroke="black" stroke-width="2" d="M214.5,-168C214.5,-168 610,-168 610,-168 616,-168 622,-174 622,-180 622,-180 622,-208 622,-208 622,-214 616,-220 610,-220 610,-220 214.5,-220 214.5,-220 208.5,-220 202.5,-214 202.5,-208 202.5,-208 202.5,-180 202.5,-180 202.5,-174 208.5,-168 214.5,-168"/>
<text text-anchor="middle" x="412.25" y="-208.8" font-family="Helvetica,sans-Serif" font-weight="bold" font-size="9.00">src</text>
</g>
<g id="clust21" class="cluster">
<title>cluster_packages/util</title>
<path fill="#ffffff" stroke="black" stroke-width="2" d="M405,-468C405,-468 483,-468 483,-468 489,-468 495,-474 495,-480 495,-480 495,-576 495,-576 495,-582 489,-588 483,-588 483,-588 405,-588 405,-588 399,-588 393,-582 393,-576 393,-576 393,-480 393,-480 393,-474 399,-468 405,-468"/>
<text text-anchor="middle" x="444" y="-576.8" font-family="Helvetica,sans-Serif" font-weight="bold" font-size="9.00">util</text>
</g>
<g id="clust22" class="cluster">
<title>cluster_packages/util/time&#45;and</title>
<path fill="#ffffff" stroke="black" stroke-width="2" d="M413,-476C413,-476 475,-476 475,-476 481,-476 487,-482 487,-488 487,-488 487,-550 487,-550 487,-556 481,-562 475,-562 475,-562 413,-562 413,-562 407,-562 401,-556 401,-550 401,-550 401,-488 401,-488 401,-482 407,-476 413,-476"/>
<text text-anchor="middle" x="444" y="-550.8" font-family="Helvetica,sans-Serif" font-weight="bold" font-size="9.00">time&#45;and</text>
</g>
<g id="clust23" class="cluster">
<title>cluster_packages/util/time&#45;and/dist</title>
<path fill="#ffffff" stroke="black" stroke-width="2" d="M421,-484C421,-484 467,-484 467,-484 473,-484 479,-490 479,-496 479,-496 479,-524 479,-524 479,-530 473,-536 467,-536 467,-536 421,-536 421,-536 415,-536 409,-530 409,-524 409,-524 409,-496 409,-496 409,-490 415,-484 421,-484"/>
<text text-anchor="middle" x="444" y="-524.8" font-family="Helvetica,sans-Serif" font-weight="bold" font-size="9.00">dist</text>
</g>
<!-- packages/UI/view&#45;parameters/src/bracket&#45;height.ts -->
<g id="node1" class="node">
<title>packages/UI/view&#45;parameters/src/bracket&#45;height.ts</title>
<g id="a_node1"><a xlink:href="packages/UI/view-parameters/src/bracket-height.ts" xlink:title="bracket&#45;height.ts">
<path fill="#ddfeff" stroke="black" d="M325,-510C325,-510 242,-510 242,-510 239,-510 236,-507 236,-504 236,-504 236,-498 236,-498 236,-495 239,-492 242,-492 242,-492 325,-492 325,-492 328,-492 331,-495 331,-498 331,-498 331,-504 331,-504 331,-507 328,-510 325,-510"/>
<text text-anchor="start" x="244" y="-498.8" font-family="Helvetica,sans-Serif" font-size="9.00">bracket&#45;height.ts</text>
</a>
</g>
</g>
<!-- packages/UI/view&#45;parameters/src/piano&#45;roll/piano&#45;roll&#45;begin.ts -->
<g id="node2" class="node">
<title>packages/UI/view&#45;parameters/src/piano&#45;roll/piano&#45;roll&#45;begin.ts</title>
<g id="a_node2"><a xlink:href="packages/UI/view-parameters/src/piano-roll/piano-roll-begin.ts" xlink:title="piano&#45;roll&#45;begin.ts">
<path fill="#ddfeff" stroke="black" d="M326.5,-574C326.5,-574 240.5,-574 240.5,-574 237.5,-574 234.5,-571 234.5,-568 234.5,-568 234.5,-562 234.5,-562 234.5,-559 237.5,-556 240.5,-556 240.5,-556 326.5,-556 326.5,-556 329.5,-556 332.5,-559 332.5,-562 332.5,-562 332.5,-568 332.5,-568 332.5,-571 329.5,-574 326.5,-574"/>
<text text-anchor="start" x="242.5" y="-562.8" font-family="Helvetica,sans-Serif" font-size="9.00">piano&#45;roll&#45;begin.ts</text>
</a>
</g>
</g>
<!-- packages/UI/view&#45;parameters/src/piano&#45;roll/piano&#45;roll&#45;end.ts -->
<g id="node3" class="node">
<title>packages/UI/view&#45;parameters/src/piano&#45;roll/piano&#45;roll&#45;end.ts</title>
<g id="a_node3"><a xlink:href="packages/UI/view-parameters/src/piano-roll/piano-roll-end.ts" xlink:title="piano&#45;roll&#45;end.ts">
<path fill="#ddfeff" stroke="black" d="M322.5,-544C322.5,-544 244.5,-544 244.5,-544 241.5,-544 238.5,-541 238.5,-538 238.5,-538 238.5,-532 238.5,-532 238.5,-529 241.5,-526 244.5,-526 244.5,-526 322.5,-526 322.5,-526 325.5,-526 328.5,-529 328.5,-532 328.5,-532 328.5,-538 328.5,-538 328.5,-541 325.5,-544 322.5,-544"/>
<text text-anchor="start" x="246.5" y="-532.8" font-family="Helvetica,sans-Serif" font-size="9.00">piano&#45;roll&#45;end.ts</text>
</a>
</g>
</g>
<!-- packages/cognitive&#45;theory&#45;of&#45;music/irm/dist/index.js -->
<g id="node4" class="node">
<title>packages/cognitive&#45;theory&#45;of&#45;music/irm/dist/index.js</title>
<g id="a_node4"><a xlink:href="packages/cognitive-theory-of-music/irm/dist/index.js" xlink:title="index.js">
<polygon fill="#ffffcc" stroke="black" points="612,-510 610.5,-512 600,-512 598.5,-510 558,-510 558,-492 612,-492 612,-510"/>
<text text-anchor="start" x="567.5" y="-498.8" font-family="Helvetica,sans-Serif" font-size="9.00">index.js</text>
</a>
</g>
</g>
<!-- packages/music&#45;structure/analyzed&#45;data&#45;container/index.ts -->
<g id="node5" class="node">
<title>packages/music&#45;structure/analyzed&#45;data&#45;container/index.ts</title>
<g id="a_node5"><a xlink:href="packages/music-structure/analyzed-data-container/index.ts" xlink:title="index.ts">
<path fill="#ddfeff" stroke="black" d="M108,-369C108,-369 66,-369 66,-369 63,-369 60,-366 60,-363 60,-363 60,-357 60,-357 60,-354 63,-351 66,-351 66,-351 108,-351 108,-351 111,-351 114,-354 114,-357 114,-357 114,-363 114,-363 114,-366 111,-369 108,-369"/>
<text text-anchor="start" x="68.5" y="-357.8" font-family="Helvetica,sans-Serif" font-size="9.00">index.ts</text>
</a>
</g>
</g>
<!-- packages/music&#45;structure/analyzed&#45;data&#45;container/index.ts&#45;&gt;packages/UI/view&#45;parameters/src/bracket&#45;height.ts -->
<g id="edge4" class="edge">
<title>packages/music&#45;structure/analyzed&#45;data&#45;container/index.ts&#45;&gt;packages/UI/view&#45;parameters/src/bracket&#45;height.ts</title>
<path fill="none" stroke="#000000" stroke-width="2" stroke-opacity="0.200000" d="M100.46,-369.03C134,-393.35 226.26,-460.23 265,-488.32"/>
<polygon fill="#000000" fill-opacity="0.200000" stroke="#000000" stroke-width="2" stroke-opacity="0.200000" points="263.8,-490.04 269.89,-491.86 266.26,-486.64 263.8,-490.04"/>
</g>
<!-- packages/music&#45;structure/analyzed&#45;data&#45;container/index.ts&#45;&gt;packages/UI/view&#45;parameters/src/piano&#45;roll/piano&#45;roll&#45;begin.ts -->
<g id="edge5" class="edge">
<title>packages/music&#45;structure/analyzed&#45;data&#45;container/index.ts&#45;&gt;packages/UI/view&#45;parameters/src/piano&#45;roll/piano&#45;roll&#45;begin.ts</title>
<path fill="none" stroke="#000000" stroke-width="2" stroke-opacity="0.200000" d="M96.61,-369.07C127.41,-401.54 232.28,-512.07 269.37,-551.16"/>
<polygon fill="#000000" fill-opacity="0.200000" stroke="#000000" stroke-width="2" stroke-opacity="0.200000" points="267.89,-552.66 273.55,-555.56 270.94,-549.77 267.89,-552.66"/>
</g>
<!-- packages/music&#45;structure/analyzed&#45;data&#45;container/index.ts&#45;&gt;packages/UI/view&#45;parameters/src/piano&#45;roll/piano&#45;roll&#45;end.ts -->
<g id="edge6" class="edge">
<title>packages/music&#45;structure/analyzed&#45;data&#45;container/index.ts&#45;&gt;packages/UI/view&#45;parameters/src/piano&#45;roll/piano&#45;roll&#45;end.ts</title>
<path fill="none" stroke="#000000" stroke-width="2" stroke-opacity="0.200000" d="M98.18,-369.16C130.35,-398.1 229.88,-487.66 267.71,-521.69"/>
<polygon fill="#000000" fill-opacity="0.200000" stroke="#000000" stroke-width="2" stroke-opacity="0.200000" points="266.55,-523.48 272.42,-525.93 269.36,-520.35 266.55,-523.48"/>
</g>
<!-- packages/music&#45;structure/beat/beat&#45;estimation/dist/index.js -->
<g id="node6" class="node">
<title>packages/music&#45;structure/beat/beat&#45;estimation/dist/index.js</title>
<g id="a_node6"><a xlink:href="packages/music-structure/beat/beat-estimation/dist/index.js" xlink:title="index.js">
<polygon fill="#ffffcc" stroke="black" points="310.5,-66 309,-68 298.5,-68 297,-66 256.5,-66 256.5,-48 310.5,-48 310.5,-66"/>
<text text-anchor="start" x="266" y="-54.8" font-family="Helvetica,sans-Serif" font-size="9.00">index.js</text>
</a>
</g>
</g>
<!-- packages/music&#45;structure/analyzed&#45;data&#45;container/index.ts&#45;&gt;packages/music&#45;structure/beat/beat&#45;estimation/dist/index.js -->
<g id="edge1" class="edge">
<title>packages/music&#45;structure/analyzed&#45;data&#45;container/index.ts&#45;&gt;packages/music&#45;structure/beat/beat&#45;estimation/dist/index.js</title>
<path fill="none" stroke="#000000" stroke-width="2" stroke-opacity="0.200000" d="M93.82,-350.93C121.45,-307.89 239.4,-124.14 273.34,-71.28"/>
<polygon fill="#000000" fill-opacity="0.200000" stroke="#000000" stroke-width="2" stroke-opacity="0.200000" points="275.23,-72.22 276.7,-66.03 271.69,-69.95 275.23,-72.22"/>
</g>
<!-- packages/music&#45;structure/chord/chord&#45;analyze/src/chord&#45;analyze/time&#45;and&#45;roman&#45;analysis.ts -->
<g id="node7" class="node">
<title>packages/music&#45;structure/chord/chord&#45;analyze/src/chord&#45;analyze/time&#45;and&#45;roman&#45;analysis.ts</title>
<g id="a_node7"><a xlink:href="packages/music-structure/chord/chord-analyze/src/chord-analyze/time-and-roman-analysis.ts" xlink:title="time&#45;and&#45;roman&#45;analysis.ts">
<path fill="#ddfeff" stroke="black" d="M347,-330C347,-330 220,-330 220,-330 217,-330 214,-327 214,-324 214,-324 214,-318 214,-318 214,-315 217,-312 220,-312 220,-312 347,-312 347,-312 350,-312 353,-315 353,-318 353,-318 353,-324 353,-324 353,-327 350,-330 347,-330"/>
<text text-anchor="start" x="222" y="-318.8" font-family="Helvetica,sans-Serif" font-size="9.00">time&#45;and&#45;roman&#45;analysis.ts</text>
</a>
</g>
</g>
<!-- packages/music&#45;structure/analyzed&#45;data&#45;container/index.ts&#45;&gt;packages/music&#45;structure/chord/chord&#45;analyze/src/chord&#45;analyze/time&#45;and&#45;roman&#45;analysis.ts -->
<g id="edge2" class="edge">
<title>packages/music&#45;structure/analyzed&#45;data&#45;container/index.ts&#45;&gt;packages/music&#45;structure/chord/chord&#45;analyze/src/chord&#45;analyze/time&#45;and&#45;roman&#45;analysis.ts</title>
<path fill="none" stroke="#000000" stroke-width="2" stroke-opacity="0.200000" d="M114.23,-354.74C144.15,-348.74 193.8,-338.79 231.43,-331.24"/>
<polygon fill="#000000" fill-opacity="0.200000" stroke="#000000" stroke-width="2" stroke-opacity="0.200000" points="231.89,-333.29 237.36,-330.05 231.06,-329.17 231.89,-333.29"/>
</g>
<!-- packages/music&#45;structure/melody/melody&#45;analyze/src/time&#45;and&#45;analyzed&#45;melody.ts -->
<g id="node8" class="node">
<title>packages/music&#45;structure/melody/melody&#45;analyze/src/time&#45;and&#45;analyzed&#45;melody.ts</title>
<g id="a_node8"><a xlink:href="packages/music-structure/melody/melody-analyze/src/time-and-analyzed-melody.ts" xlink:title="time&#45;and&#45;analyzed&#45;melody.ts">
<path fill="#ddfeff" stroke="black" d="M350.5,-194C350.5,-194 216.5,-194 216.5,-194 213.5,-194 210.5,-191 210.5,-188 210.5,-188 210.5,-182 210.5,-182 210.5,-179 213.5,-176 216.5,-176 216.5,-176 350.5,-176 350.5,-176 353.5,-176 356.5,-179 356.5,-182 356.5,-182 356.5,-188 356.5,-188 356.5,-191 353.5,-194 350.5,-194"/>
<text text-anchor="start" x="218.5" y="-182.8" font-family="Helvetica,sans-Serif" font-size="9.00">time&#45;and&#45;analyzed&#45;melody.ts</text>
</a>
</g>
</g>
<!-- packages/music&#45;structure/analyzed&#45;data&#45;container/index.ts&#45;&gt;packages/music&#45;structure/melody/melody&#45;analyze/src/time&#45;and&#45;analyzed&#45;melody.ts -->
<g id="edge3" class="edge">
<title>packages/music&#45;structure/analyzed&#45;data&#45;container/index.ts&#45;&gt;packages/music&#45;structure/melody/melody&#45;analyze/src/time&#45;and&#45;analyzed&#45;melody.ts</title>
<path fill="none" stroke="#000000" stroke-width="2" stroke-opacity="0.200000" d="M98.18,-350.84C130.35,-321.9 229.88,-232.34 267.71,-198.31"/>
<polygon fill="#000000" fill-opacity="0.200000" stroke="#000000" stroke-width="2" stroke-opacity="0.200000" points="269.36,-199.65 272.42,-194.07 266.55,-196.52 269.36,-199.65"/>
</g>
<!-- packages/util/time&#45;and/dist/index.js -->
<g id="node9" class="node">
<title>packages/util/time&#45;and/dist/index.js</title>
<g id="a_node9"><a xlink:href="packages/util/time-and/dist/index.js" xlink:title="index.js">
<polygon fill="#ffffcc" stroke="black" points="471,-510 469.5,-512 459,-512 457.5,-510 417,-510 417,-492 471,-492 471,-510"/>
<text text-anchor="start" x="426.5" y="-498.8" font-family="Helvetica,sans-Serif" font-size="9.00">index.js</text>
</a>
</g>
</g>
<!-- packages/music&#45;structure/chord/chord&#45;analyze/src/chord&#45;analyze/time&#45;and&#45;roman&#45;analysis.ts&#45;&gt;packages/util/time&#45;and/dist/index.js -->
<g id="edge7" class="edge">
<title>packages/music&#45;structure/chord/chord&#45;analyze/src/chord&#45;analyze/time&#45;and&#45;roman&#45;analysis.ts&#45;&gt;packages/util/time&#45;and/dist/index.js</title>
<path fill="none" stroke="#000000" stroke-width="2" stroke-opacity="0.200000" d="M292.58,-330.17C318.43,-359.54 399.28,-451.35 430.51,-486.82"/>
<polygon fill="#000000" fill-opacity="0.200000" stroke="#000000" stroke-width="2" stroke-opacity="0.200000" points="429.21,-488.51 434.75,-491.63 432.36,-485.74 429.21,-488.51"/>
</g>
<!-- packages/music&#45;structure/melody/melody&#45;analyze/src/time&#45;and&#45;analyzed&#45;melody.ts&#45;&gt;packages/util/time&#45;and/dist/index.js -->
<g id="edge11" class="edge">
<title>packages/music&#45;structure/melody/melody&#45;analyze/src/time&#45;and&#45;analyzed&#45;melody.ts&#45;&gt;packages/util/time&#45;and/dist/index.js</title>
<path fill="none" stroke="#000000" stroke-width="2" stroke-opacity="0.200000" d="M289.07,-194.12C311.31,-238.44 408.16,-431.55 435.68,-486.41"/>
<polygon fill="#000000" fill-opacity="0.200000" stroke="#000000" stroke-width="2" stroke-opacity="0.200000" points="433.84,-487.42 438.41,-491.85 437.6,-485.54 433.84,-487.42"/>
</g>
<!-- packages/music&#45;structure/melody/melody&#45;analyze/src/melody&#45;analysis.ts -->
<g id="node11" class="node">
<title>packages/music&#45;structure/melody/melody&#45;analyze/src/melody&#45;analysis.ts</title>
<g id="a_node11"><a xlink:href="packages/music-structure/melody/melody-analyze/src/melody-analysis.ts" xlink:title="melody&#45;analysis.ts">
<path fill="#ddfeff" stroke="black" d="M487.5,-194C487.5,-194 400.5,-194 400.5,-194 397.5,-194 394.5,-191 394.5,-188 394.5,-188 394.5,-182 394.5,-182 394.5,-179 397.5,-176 400.5,-176 400.5,-176 487.5,-176 487.5,-176 490.5,-176 493.5,-179 493.5,-182 493.5,-182 493.5,-188 493.5,-188 493.5,-191 490.5,-194 487.5,-194"/>
<text text-anchor="start" x="402.5" y="-182.8" font-family="Helvetica,sans-Serif" font-size="9.00">melody&#45;analysis.ts</text>
</a>
</g>
</g>
<!-- packages/music&#45;structure/melody/melody&#45;analyze/src/time&#45;and&#45;analyzed&#45;melody.ts&#45;&gt;packages/music&#45;structure/melody/melody&#45;analyze/src/melody&#45;analysis.ts -->
<g id="edge10" class="edge">
<title>packages/music&#45;structure/melody/melody&#45;analyze/src/time&#45;and&#45;analyzed&#45;melody.ts&#45;&gt;packages/music&#45;structure/melody/melody&#45;analyze/src/melody&#45;analysis.ts</title>
<path fill="none" stroke="#000000" stroke-width="2" stroke-opacity="0.200000" d="M356.79,-185C367.34,-185 378.05,-185 388.18,-185"/>
<polygon fill="#000000" fill-opacity="0.200000" stroke="#000000" stroke-width="2" stroke-opacity="0.200000" points="388.4,-187.1 394.4,-185 388.4,-182.9 388.4,-187.1"/>
</g>
<!-- packages/music&#45;structure/melody/melody&#45;analyze/src/gravity.ts -->
<g id="node10" class="node">
<title>packages/music&#45;structure/melody/melody&#45;analyze/src/gravity.ts</title>
<g id="a_node10"><a xlink:href="packages/music-structure/melody/melody-analyze/src/gravity.ts" xlink:title="gravity.ts">
<path fill="#ddfeff" stroke="black" d="M608,-194C608,-194 562,-194 562,-194 559,-194 556,-191 556,-188 556,-188 556,-182 556,-182 556,-179 559,-176 562,-176 562,-176 608,-176 608,-176 611,-176 614,-179 614,-182 614,-182 614,-188 614,-188 614,-191 611,-194 608,-194"/>
<text text-anchor="start" x="564" y="-182.8" font-family="Helvetica,sans-Serif" font-size="9.00">gravity.ts</text>
</a>
</g>
</g>
<!-- packages/music&#45;structure/melody/melody&#45;analyze/src/melody&#45;analysis.ts&#45;&gt;packages/cognitive&#45;theory&#45;of&#45;music/irm/dist/index.js -->
<g id="edge9" class="edge">
<title>packages/music&#45;structure/melody/melody&#45;analyze/src/melody&#45;analysis.ts&#45;&gt;packages/cognitive&#45;theory&#45;of&#45;music/irm/dist/index.js</title>
<path fill="none" stroke="#000000" stroke-width="2" stroke-opacity="0.200000" d="M449.01,-194.12C468.47,-238.35 553.11,-430.77 577.44,-486.08"/>
<polygon fill="#000000" fill-opacity="0.200000" stroke="#000000" stroke-width="2" stroke-opacity="0.200000" points="575.64,-487.2 579.97,-491.85 579.48,-485.51 575.64,-487.2"/>
</g>
<!-- packages/music&#45;structure/melody/melody&#45;analyze/src/melody&#45;analysis.ts&#45;&gt;packages/music&#45;structure/melody/melody&#45;analyze/src/gravity.ts -->
<g id="edge8" class="edge">
<title>packages/music&#45;structure/melody/melody&#45;analyze/src/melody&#45;analysis.ts&#45;&gt;packages/music&#45;structure/melody/melody&#45;analyze/src/gravity.ts</title>
<path fill="none" stroke="#000000" stroke-width="2" stroke-opacity="0.200000" d="M493.62,-185C512.16,-185 532.9,-185 549.82,-185"/>
<polygon fill="#000000" fill-opacity="0.200000" stroke="#000000" stroke-width="2" stroke-opacity="0.200000" points="549.88,-187.1 555.88,-185 549.88,-182.9 549.88,-187.1"/>
</g>
</g>
</svg>
