<?xml version="1.0" encoding="UTF-8" standalone="no"?>
<!DOCTYPE svg PUBLIC "-//W3C//DTD SVG 1.1//EN"
 "http://www.w3.org/Graphics/SVG/1.1/DTD/svg11.dtd">
<!-- Generated by graphviz version 2.43.0 (0)
 -->
<!-- Title: dependency&#45;cruiser output Pages: 1 -->
<svg width="368pt" height="596pt"
 viewBox="0.00 0.00 368.00 596.00" xmlns="http://www.w3.org/2000/svg" xmlns:xlink="http://www.w3.org/1999/xlink">
<g id="graph0" class="graph" transform="scale(1 1) rotate(0) translate(4 592)">
<title>dependency&#45;cruiser output</title>
<polygon fill="white" stroke="transparent" points="-4,4 -4,-592 364,-592 364,4 -4,4"/>
<g id="clust1" class="cluster">
<title>cluster_packages</title>
<path fill="#ffffff" stroke="black" stroke-width="2" d="M12,-8C12,-8 346,-8 346,-8 352,-8 358,-14 358,-20 358,-20 358,-568 358,-568 358,-574 352,-580 346,-580 346,-580 12,-580 12,-580 6,-580 0,-574 0,-568 0,-568 0,-20 0,-20 0,-14 6,-8 12,-8"/>
<text text-anchor="middle" x="179" y="-568.8" font-family="Helvetica,sans-Serif" font-weight="bold" font-size="9.00">packages</text>
</g>
<g id="clust2" class="cluster">
<title>cluster_packages/UI</title>
<path fill="#ffffff" stroke="black" stroke-width="2" d="M238,-434C238,-434 333,-434 333,-434 339,-434 345,-440 345,-446 345,-446 345,-542 345,-542 345,-548 339,-554 333,-554 333,-554 238,-554 238,-554 232,-554 226,-548 226,-542 226,-542 226,-446 226,-446 226,-440 232,-434 238,-434"/>
<text text-anchor="middle" x="285.5" y="-542.8" font-family="Helvetica,sans-Serif" font-weight="bold" font-size="9.00">UI</text>
</g>
<g id="clust3" class="cluster">
<title>cluster_packages/UI/view&#45;parameters</title>
<path fill="#ffffff" stroke="black" stroke-width="2" d="M246,-442C246,-442 325,-442 325,-442 331,-442 337,-448 337,-454 337,-454 337,-516 337,-516 337,-522 331,-528 325,-528 325,-528 246,-528 246,-528 240,-528 234,-522 234,-516 234,-516 234,-454 234,-454 234,-448 240,-442 246,-442"/>
<text text-anchor="middle" x="285.5" y="-516.8" font-family="Helvetica,sans-Serif" font-weight="bold" font-size="9.00">view&#45;parameters</text>
</g>
<g id="clust4" class="cluster">
<title>cluster_packages/UI/view&#45;parameters/dist</title>
<path fill="#ffffff" stroke="black" stroke-width="2" d="M262,-450C262,-450 308,-450 308,-450 314,-450 320,-456 320,-462 320,-462 320,-490 320,-490 320,-496 314,-502 308,-502 308,-502 262,-502 262,-502 256,-502 250,-496 250,-490 250,-490 250,-462 250,-462 250,-456 256,-450 262,-450"/>
<text text-anchor="middle" x="285" y="-490.8" font-family="Helvetica,sans-Serif" font-weight="bold" font-size="9.00">dist</text>
</g>
<g id="clust5" class="cluster">
<title>cluster_packages/music&#45;structure</title>
<path fill="#ffffff" stroke="black" stroke-width="2" d="M20,-16C20,-16 338,-16 338,-16 344,-16 350,-22 350,-28 350,-28 350,-414 350,-414 350,-420 344,-426 338,-426 338,-426 20,-426 20,-426 14,-426 8,-420 8,-414 8,-414 8,-28 8,-28 8,-22 14,-16 20,-16"/>
<text text-anchor="middle" x="179" y="-414.8" font-family="Helvetica,sans-Serif" font-weight="bold" font-size="9.00">music&#45;structure</text>
</g>
<g id="clust6" class="cluster">
<title>cluster_packages/music&#45;structure/analyzed&#45;data&#45;container</title>
<path fill="#ffffff" stroke="black" stroke-width="2" d="M28,-232C28,-232 146,-232 146,-232 152,-232 158,-238 158,-244 158,-244 158,-272 158,-272 158,-278 152,-284 146,-284 146,-284 28,-284 28,-284 22,-284 16,-278 16,-272 16,-272 16,-244 16,-244 16,-238 22,-232 28,-232"/>
<text text-anchor="middle" x="87" y="-272.8" font-family="Helvetica,sans-Serif" font-weight="bold" font-size="9.00">analyzed&#45;data&#45;container</text>
</g>
<g id="clust7" class="cluster">
<title>cluster_packages/music&#45;structure/beat</title>
<path fill="#ffffff" stroke="black" stroke-width="2" d="M240,-24C240,-24 330,-24 330,-24 336,-24 342,-30 342,-36 342,-36 342,-132 342,-132 342,-138 336,-144 330,-144 330,-144 240,-144 240,-144 234,-144 228,-138 228,-132 228,-132 228,-36 228,-36 228,-30 234,-24 240,-24"/>
<text text-anchor="middle" x="285" y="-132.8" font-family="Helvetica,sans-Serif" font-weight="bold" font-size="9.00">beat</text>
</g>
<g id="clust8" class="cluster">
<title>cluster_packages/music&#45;structure/beat/beat&#45;estimation</title>
<path fill="#ffffff" stroke="black" stroke-width="2" d="M248,-32C248,-32 322,-32 322,-32 328,-32 334,-38 334,-44 334,-44 334,-106 334,-106 334,-112 328,-118 322,-118 322,-118 248,-118 248,-118 242,-118 236,-112 236,-106 236,-106 236,-44 236,-44 236,-38 242,-32 248,-32"/>
<text text-anchor="middle" x="285" y="-106.8" font-family="Helvetica,sans-Serif" font-weight="bold" font-size="9.00">beat&#45;estimation</text>
</g>
<g id="clust9" class="cluster">
<title>cluster_packages/music&#45;structure/beat/beat&#45;estimation/dist</title>
<path fill="#ffffff" stroke="black" stroke-width="2" d="M262,-40C262,-40 308,-40 308,-40 314,-40 320,-46 320,-52 320,-52 320,-80 320,-80 320,-86 314,-92 308,-92 308,-92 262,-92 262,-92 256,-92 250,-86 250,-80 250,-80 250,-52 250,-52 250,-46 256,-40 262,-40"/>
<text text-anchor="middle" x="285" y="-80.8" font-family="Helvetica,sans-Serif" font-weight="bold" font-size="9.00">dist</text>
</g>
<g id="clust10" class="cluster">
<title>cluster_packages/music&#45;structure/chord</title>
<path fill="#ffffff" stroke="black" stroke-width="2" d="M245,-152C245,-152 326,-152 326,-152 332,-152 338,-158 338,-164 338,-164 338,-260 338,-260 338,-266 332,-272 326,-272 326,-272 245,-272 245,-272 239,-272 233,-266 233,-260 233,-260 233,-164 233,-164 233,-158 239,-152 245,-152"/>
<text text-anchor="middle" x="285.5" y="-260.8" font-family="Helvetica,sans-Serif" font-weight="bold" font-size="9.00">chord</text>
</g>
<g id="clust11" class="cluster">
<title>cluster_packages/music&#45;structure/chord/chord&#45;analyze</title>
<path fill="#ffffff" stroke="black" stroke-width="2" d="M253,-160C253,-160 318,-160 318,-160 324,-160 330,-166 330,-172 330,-172 330,-234 330,-234 330,-240 324,-246 318,-246 318,-246 253,-246 253,-246 247,-246 241,-240 241,-234 241,-234 241,-172 241,-172 241,-166 247,-160 253,-160"/>
<text text-anchor="middle" x="285.5" y="-234.8" font-family="Helvetica,sans-Serif" font-weight="bold" font-size="9.00">chord&#45;analyze</text>
</g>
<g id="clust12" class="cluster">
<title>cluster_packages/music&#45;structure/chord/chord&#45;analyze/dist</title>
<path fill="#ffffff" stroke="black" stroke-width="2" d="M262,-168C262,-168 308,-168 308,-168 314,-168 320,-174 320,-180 320,-180 320,-208 320,-208 320,-214 314,-220 308,-220 308,-220 262,-220 262,-220 256,-220 250,-214 250,-208 250,-208 250,-180 250,-180 250,-174 256,-168 262,-168"/>
<text text-anchor="middle" x="285" y="-208.8" font-family="Helvetica,sans-Serif" font-weight="bold" font-size="9.00">dist</text>
</g>
<g id="clust13" class="cluster">
<title>cluster_packages/music&#45;structure/melody</title>
<path fill="#ffffff" stroke="black" stroke-width="2" d="M241,-280C241,-280 330,-280 330,-280 336,-280 342,-286 342,-292 342,-292 342,-388 342,-388 342,-394 336,-400 330,-400 330,-400 241,-400 241,-400 235,-400 229,-394 229,-388 229,-388 229,-292 229,-292 229,-286 235,-280 241,-280"/>
<text text-anchor="middle" x="285.5" y="-388.8" font-family="Helvetica,sans-Serif" font-weight="bold" font-size="9.00">melody</text>
</g>
<g id="clust14" class="cluster">
<title>cluster_packages/music&#45;structure/melody/melody&#45;analyze</title>
<path fill="#ffffff" stroke="black" stroke-width="2" d="M249,-288C249,-288 322,-288 322,-288 328,-288 334,-294 334,-300 334,-300 334,-362 334,-362 334,-368 328,-374 322,-374 322,-374 249,-374 249,-374 243,-374 237,-368 237,-362 237,-362 237,-300 237,-300 237,-294 243,-288 249,-288"/>
<text text-anchor="middle" x="285.5" y="-362.8" font-family="Helvetica,sans-Serif" font-weight="bold" font-size="9.00">melody&#45;analyze</text>
</g>
<g id="clust15" class="cluster">
<title>cluster_packages/music&#45;structure/melody/melody&#45;analyze/dist</title>
<path fill="#ffffff" stroke="black" stroke-width="2" d="M262,-296C262,-296 308,-296 308,-296 314,-296 320,-302 320,-308 320,-308 320,-336 320,-336 320,-342 314,-348 308,-348 308,-348 262,-348 262,-348 256,-348 250,-342 250,-336 250,-336 250,-308 250,-308 250,-302 256,-296 262,-296"/>
<text text-anchor="middle" x="285" y="-336.8" font-family="Helvetica,sans-Serif" font-weight="bold" font-size="9.00">dist</text>
</g>
<!-- packages/UI/view&#45;parameters/dist/index.js -->
<g id="node1" class="node">
<title>packages/UI/view&#45;parameters/dist/index.js</title>
<g id="a_node1"><a xlink:href="packages/UI/view-parameters/dist/index.js" xlink:title="index.js">
<polygon fill="#ffffcc" stroke="black" points="312,-476 310.5,-478 300,-478 298.5,-476 258,-476 258,-458 312,-458 312,-476"/>
<text text-anchor="start" x="267.5" y="-464.8" font-family="Helvetica,sans-Serif" font-size="9.00">index.js</text>
</a>
</g>
</g>
<!-- packages/music&#45;structure/analyzed&#45;data&#45;container/index.ts -->
<g id="node2" class="node">
<title>packages/music&#45;structure/analyzed&#45;data&#45;container/index.ts</title>
<g id="a_node2"><a xlink:href="packages/music-structure/analyzed-data-container/index.ts" xlink:title="index.ts">
<path fill="#ddfeff" stroke="black" d="M108,-258C108,-258 66,-258 66,-258 63,-258 60,-255 60,-252 60,-252 60,-246 60,-246 60,-243 63,-240 66,-240 66,-240 108,-240 108,-240 111,-240 114,-243 114,-246 114,-246 114,-252 114,-252 114,-255 111,-258 108,-258"/>
<text text-anchor="start" x="68.5" y="-246.8" font-family="Helvetica,sans-Serif" font-size="9.00">index.ts</text>
</a>
</g>
</g>
<!-- packages/music&#45;structure/analyzed&#45;data&#45;container/index.ts&#45;&gt;packages/UI/view&#45;parameters/dist/index.js -->
<g id="edge4" class="edge">
<title>packages/music&#45;structure/analyzed&#45;data&#45;container/index.ts&#45;&gt;packages/UI/view&#45;parameters/dist/index.js</title>
<path fill="none" stroke="#000000" stroke-opacity="0.200000" d="M96.17,-258.09C126.93,-292.3 235.81,-413.41 272.12,-453.79"/>
<polygon fill="#000000" fill-opacity="0.200000" stroke="#000000" stroke-opacity="0.200000" points="275.79,-457.87 270.78,-455.66 274.12,-456.01 272.45,-454.15 272.45,-454.15 272.45,-454.15 274.12,-456.01 274.12,-452.65 275.79,-457.87 275.79,-457.87"/>
</g>
<!-- packages/music&#45;structure/beat/beat&#45;estimation/dist/index.js -->
<g id="node3" class="node">
<title>packages/music&#45;structure/beat/beat&#45;estimation/dist/index.js</title>
<g id="a_node3"><a xlink:href="packages/music-structure/beat/beat-estimation/dist/index.js" xlink:title="index.js">
<polygon fill="#ffffcc" stroke="black" points="312,-66 310.5,-68 300,-68 298.5,-66 258,-66 258,-48 312,-48 312,-66"/>
<text text-anchor="start" x="267.5" y="-54.8" font-family="Helvetica,sans-Serif" font-size="9.00">index.js</text>
</a>
</g>
</g>
<!-- packages/music&#45;structure/analyzed&#45;data&#45;container/index.ts&#45;&gt;packages/music&#45;structure/beat/beat&#45;estimation/dist/index.js -->
<g id="edge1" class="edge">
<title>packages/music&#45;structure/analyzed&#45;data&#45;container/index.ts&#45;&gt;packages/music&#45;structure/beat/beat&#45;estimation/dist/index.js</title>
<path fill="none" stroke="#000000" stroke-opacity="0.200000" d="M97.19,-240C128.88,-208.95 233.69,-106.28 270.82,-69.91"/>
<polygon fill="#000000" fill-opacity="0.200000" stroke="#000000" stroke-opacity="0.200000" points="274.6,-66.21 272.6,-71.31 272.82,-67.96 271.03,-69.71 271.03,-69.71 271.03,-69.71 272.82,-67.96 269.45,-68.1 274.6,-66.21 274.6,-66.21"/>
</g>
<!-- packages/music&#45;structure/chord/chord&#45;analyze/dist/index.js -->
<g id="node4" class="node">
<title>packages/music&#45;structure/chord/chord&#45;analyze/dist/index.js</title>
<g id="a_node4"><a xlink:href="packages/music-structure/chord/chord-analyze/dist/index.js" xlink:title="index.js">
<polygon fill="#ffffcc" stroke="black" points="312,-194 310.5,-196 300,-196 298.5,-194 258,-194 258,-176 312,-176 312,-194"/>
<text text-anchor="start" x="267.5" y="-182.8" font-family="Helvetica,sans-Serif" font-size="9.00">index.js</text>
</a>
</g>
</g>
<!-- packages/music&#45;structure/analyzed&#45;data&#45;container/index.ts&#45;&gt;packages/music&#45;structure/chord/chord&#45;analyze/dist/index.js -->
<g id="edge2" class="edge">
<title>packages/music&#45;structure/analyzed&#45;data&#45;container/index.ts&#45;&gt;packages/music&#45;structure/chord/chord&#45;analyze/dist/index.js</title>
<path fill="none" stroke="#000000" stroke-opacity="0.200000" d="M114.03,-240.5C149.9,-228.79 214.46,-207.71 252.86,-195.17"/>
<polygon fill="#000000" fill-opacity="0.200000" stroke="#000000" stroke-opacity="0.200000" points="257.87,-193.53 253.81,-197.22 255.49,-194.31 253.11,-195.09 253.11,-195.09 253.11,-195.09 255.49,-194.31 252.41,-192.95 257.87,-193.53 257.87,-193.53"/>
</g>
<!-- packages/music&#45;structure/melody/melody&#45;analyze/dist/index.js -->
<g id="node5" class="node">
<title>packages/music&#45;structure/melody/melody&#45;analyze/dist/index.js</title>
<g id="a_node5"><a xlink:href="packages/music-structure/melody/melody-analyze/dist/index.js" xlink:title="index.js">
<polygon fill="#ffffcc" stroke="black" points="312,-322 310.5,-324 300,-324 298.5,-322 258,-322 258,-304 312,-304 312,-322"/>
<text text-anchor="start" x="267.5" y="-310.8" font-family="Helvetica,sans-Serif" font-size="9.00">index.js</text>
</a>
</g>
</g>
<!-- packages/music&#45;structure/analyzed&#45;data&#45;container/index.ts&#45;&gt;packages/music&#45;structure/melody/melody&#45;analyze/dist/index.js -->
<g id="edge3" class="edge">
<title>packages/music&#45;structure/analyzed&#45;data&#45;container/index.ts&#45;&gt;packages/music&#45;structure/melody/melody&#45;analyze/dist/index.js</title>
<path fill="none" stroke="#000000" stroke-opacity="0.200000" d="M114.03,-257.5C149.9,-269.21 214.46,-290.29 252.86,-302.83"/>
<polygon fill="#000000" fill-opacity="0.200000" stroke="#000000" stroke-opacity="0.200000" points="257.87,-304.47 252.41,-305.05 255.49,-303.69 253.11,-302.91 253.11,-302.91 253.11,-302.91 255.49,-303.69 253.81,-300.78 257.87,-304.47 257.87,-304.47"/>
</g>
</g>
</svg>
