<?xml version="1.0" encoding="UTF-8" standalone="no"?>
<!DOCTYPE svg PUBLIC "-//W3C//DTD SVG 1.1//EN"
 "http://www.w3.org/Graphics/SVG/1.1/DTD/svg11.dtd">
<!-- Generated by graphviz version 2.43.0 (0)
 -->
<!-- Title: dependency&#45;cruiser output Pages: 1 -->
<svg width="651pt" height="686pt"
 viewBox="0.00 0.00 651.00 686.00" xmlns="http://www.w3.org/2000/svg" xmlns:xlink="http://www.w3.org/1999/xlink">
<g id="graph0" class="graph" transform="scale(1 1) rotate(0) translate(4 682)">
<title>dependency&#45;cruiser output</title>
<polygon fill="white" stroke="transparent" points="-4,4 -4,-682 647,-682 647,4 -4,4"/>
<g id="clust1" class="cluster">
<title>cluster_packages</title>
<path fill="#ffffff" stroke="black" stroke-width="2" d="M12,-8C12,-8 631,-8 631,-8 637,-8 643,-14 643,-20 643,-20 643,-658 643,-658 643,-664 637,-670 631,-670 631,-670 12,-670 12,-670 6,-670 0,-664 0,-658 0,-658 0,-20 0,-20 0,-14 6,-8 12,-8"/>
<text text-anchor="middle" x="321.5" y="-658.8" font-family="Helvetica,sans-Serif" font-weight="bold" font-size="9.00">packages</text>
</g>
<g id="clust2" class="cluster">
<title>cluster_packages/UI</title>
<path fill="#ffffff" stroke="black" stroke-width="2" d="M210,-434C210,-434 348,-434 348,-434 354,-434 360,-440 360,-446 360,-446 360,-632 360,-632 360,-638 354,-644 348,-644 348,-644 210,-644 210,-644 204,-644 198,-638 198,-632 198,-632 198,-446 198,-446 198,-440 204,-434 210,-434"/>
<text text-anchor="middle" x="279" y="-632.8" font-family="Helvetica,sans-Serif" font-weight="bold" font-size="9.00">UI</text>
</g>
<g id="clust3" class="cluster">
<title>cluster_packages/UI/view&#45;parameters</title>
<path fill="#ffffff" stroke="black" stroke-width="2" d="M218,-442C218,-442 340,-442 340,-442 346,-442 352,-448 352,-454 352,-454 352,-606 352,-606 352,-612 346,-618 340,-618 340,-618 218,-618 218,-618 212,-618 206,-612 206,-606 206,-606 206,-454 206,-454 206,-448 212,-442 218,-442"/>
<text text-anchor="middle" x="279" y="-606.8" font-family="Helvetica,sans-Serif" font-weight="bold" font-size="9.00">view&#45;parameters</text>
</g>
<g id="clust4" class="cluster">
<title>cluster_packages/UI/view&#45;parameters/src</title>
<path fill="#ffffff" stroke="black" stroke-width="2" d="M226,-450C226,-450 332,-450 332,-450 338,-450 344,-456 344,-462 344,-462 344,-580 344,-580 344,-586 338,-592 332,-592 332,-592 226,-592 226,-592 220,-592 214,-586 214,-580 214,-580 214,-462 214,-462 214,-456 220,-450 226,-450"/>
<text text-anchor="middle" x="279" y="-580.8" font-family="Helvetica,sans-Serif" font-weight="bold" font-size="9.00">src</text>
</g>
<g id="clust5" class="cluster">
<title>cluster_packages/UI/view&#45;parameters/src/piano&#45;roll</title>
<path fill="#ffffff" stroke="black" stroke-width="2" d="M234,-484C234,-484 324,-484 324,-484 330,-484 336,-490 336,-496 336,-496 336,-554 336,-554 336,-560 330,-566 324,-566 324,-566 234,-566 234,-566 228,-566 222,-560 222,-554 222,-554 222,-496 222,-496 222,-490 228,-484 234,-484"/>
<text text-anchor="middle" x="279" y="-554.8" font-family="Helvetica,sans-Serif" font-weight="bold" font-size="9.00">piano&#45;roll</text>
</g>
<g id="clust6" class="cluster">
<title>cluster_packages/cognitive&#45;theory&#45;of&#45;music</title>
<path fill="#ffffff" stroke="black" stroke-width="2" d="M498,-434C498,-434 623,-434 623,-434 629,-434 635,-440 635,-446 635,-446 635,-542 635,-542 635,-548 629,-554 623,-554 623,-554 498,-554 498,-554 492,-554 486,-548 486,-542 486,-542 486,-446 486,-446 486,-440 492,-434 498,-434"/>
<text text-anchor="middle" x="560.5" y="-542.8" font-family="Helvetica,sans-Serif" font-weight="bold" font-size="9.00">cognitive&#45;theory&#45;of&#45;music</text>
</g>
<g id="clust7" class="cluster">
<title>cluster_packages/cognitive&#45;theory&#45;of&#45;music/irm</title>
<path fill="#ffffff" stroke="black" stroke-width="2" d="M529,-442C529,-442 591,-442 591,-442 597,-442 603,-448 603,-454 603,-454 603,-516 603,-516 603,-522 597,-528 591,-528 591,-528 529,-528 529,-528 523,-528 517,-522 517,-516 517,-516 517,-454 517,-454 517,-448 523,-442 529,-442"/>
<text text-anchor="middle" x="560" y="-516.8" font-family="Helvetica,sans-Serif" font-weight="bold" font-size="9.00">irm</text>
</g>
<g id="clust8" class="cluster">
<title>cluster_packages/cognitive&#45;theory&#45;of&#45;music/irm/dist</title>
<path fill="#ffffff" stroke="black" stroke-width="2" d="M537,-450C537,-450 583,-450 583,-450 589,-450 595,-456 595,-462 595,-462 595,-490 595,-490 595,-496 589,-502 583,-502 583,-502 537,-502 537,-502 531,-502 525,-496 525,-490 525,-490 525,-462 525,-462 525,-456 531,-450 537,-450"/>
<text text-anchor="middle" x="560" y="-490.8" font-family="Helvetica,sans-Serif" font-weight="bold" font-size="9.00">dist</text>
</g>
<g id="clust9" class="cluster">
<title>cluster_packages/music&#45;structure</title>
<path fill="#ffffff" stroke="black" stroke-width="2" d="M20,-16C20,-16 609,-16 609,-16 615,-16 621,-22 621,-28 621,-28 621,-414 621,-414 621,-420 615,-426 609,-426 609,-426 20,-426 20,-426 14,-426 8,-420 8,-414 8,-414 8,-28 8,-28 8,-22 14,-16 20,-16"/>
<text text-anchor="middle" x="314.5" y="-414.8" font-family="Helvetica,sans-Serif" font-weight="bold" font-size="9.00">music&#45;structure</text>
</g>
<g id="clust10" class="cluster">
<title>cluster_packages/music&#45;structure/analyzed&#45;data&#45;container</title>
<path fill="#ffffff" stroke="black" stroke-width="2" d="M28,-322C28,-322 146,-322 146,-322 152,-322 158,-328 158,-334 158,-334 158,-362 158,-362 158,-368 152,-374 146,-374 146,-374 28,-374 28,-374 22,-374 16,-368 16,-362 16,-362 16,-334 16,-334 16,-328 22,-322 28,-322"/>
<text text-anchor="middle" x="87" y="-362.8" font-family="Helvetica,sans-Serif" font-weight="bold" font-size="9.00">analyzed&#45;data&#45;container</text>
</g>
<g id="clust11" class="cluster">
<title>cluster_packages/music&#45;structure/beat</title>
<path fill="#ffffff" stroke="black" stroke-width="2" d="M234,-24C234,-24 324,-24 324,-24 330,-24 336,-30 336,-36 336,-36 336,-132 336,-132 336,-138 330,-144 324,-144 324,-144 234,-144 234,-144 228,-144 222,-138 222,-132 222,-132 222,-36 222,-36 222,-30 228,-24 234,-24"/>
<text text-anchor="middle" x="279" y="-132.8" font-family="Helvetica,sans-Serif" font-weight="bold" font-size="9.00">beat</text>
</g>
<g id="clust12" class="cluster">
<title>cluster_packages/music&#45;structure/beat/beat&#45;estimation</title>
<path fill="#ffffff" stroke="black" stroke-width="2" d="M242,-32C242,-32 316,-32 316,-32 322,-32 328,-38 328,-44 328,-44 328,-106 328,-106 328,-112 322,-118 316,-118 316,-118 242,-118 242,-118 236,-118 230,-112 230,-106 230,-106 230,-44 230,-44 230,-38 236,-32 242,-32"/>
<text text-anchor="middle" x="279" y="-106.8" font-family="Helvetica,sans-Serif" font-weight="bold" font-size="9.00">beat&#45;estimation</text>
</g>
<g id="clust13" class="cluster">
<title>cluster_packages/music&#45;structure/beat/beat&#45;estimation/dist</title>
<path fill="#ffffff" stroke="black" stroke-width="2" d="M256,-40C256,-40 302,-40 302,-40 308,-40 314,-46 314,-52 314,-52 314,-80 314,-80 314,-86 308,-92 302,-92 302,-92 256,-92 256,-92 250,-92 244,-86 244,-80 244,-80 244,-52 244,-52 244,-46 250,-40 256,-40"/>
<text text-anchor="middle" x="279" y="-80.8" font-family="Helvetica,sans-Serif" font-weight="bold" font-size="9.00">dist</text>
</g>
<g id="clust14" class="cluster">
<title>cluster_packages/music&#45;structure/chord</title>
<path fill="#ffffff" stroke="black" stroke-width="2" d="M239,-152C239,-152 320,-152 320,-152 326,-152 332,-158 332,-164 332,-164 332,-260 332,-260 332,-266 326,-272 320,-272 320,-272 239,-272 239,-272 233,-272 227,-266 227,-260 227,-260 227,-164 227,-164 227,-158 233,-152 239,-152"/>
<text text-anchor="middle" x="279.5" y="-260.8" font-family="Helvetica,sans-Serif" font-weight="bold" font-size="9.00">chord</text>
</g>
<g id="clust15" class="cluster">
<title>cluster_packages/music&#45;structure/chord/chord&#45;analyze</title>
<path fill="#ffffff" stroke="black" stroke-width="2" d="M247,-160C247,-160 312,-160 312,-160 318,-160 324,-166 324,-172 324,-172 324,-234 324,-234 324,-240 318,-246 312,-246 312,-246 247,-246 247,-246 241,-246 235,-240 235,-234 235,-234 235,-172 235,-172 235,-166 241,-160 247,-160"/>
<text text-anchor="middle" x="279.5" y="-234.8" font-family="Helvetica,sans-Serif" font-weight="bold" font-size="9.00">chord&#45;analyze</text>
</g>
<g id="clust16" class="cluster">
<title>cluster_packages/music&#45;structure/chord/chord&#45;analyze/dist</title>
<path fill="#ffffff" stroke="black" stroke-width="2" d="M256,-168C256,-168 302,-168 302,-168 308,-168 314,-174 314,-180 314,-180 314,-208 314,-208 314,-214 308,-220 302,-220 302,-220 256,-220 256,-220 250,-220 244,-214 244,-208 244,-208 244,-180 244,-180 244,-174 250,-168 256,-168"/>
<text text-anchor="middle" x="279" y="-208.8" font-family="Helvetica,sans-Serif" font-weight="bold" font-size="9.00">dist</text>
</g>
<g id="clust17" class="cluster">
<title>cluster_packages/music&#45;structure/melody</title>
<path fill="#ffffff" stroke="black" stroke-width="2" d="M194,-280C194,-280 601,-280 601,-280 607,-280 613,-286 613,-292 613,-292 613,-388 613,-388 613,-394 607,-400 601,-400 601,-400 194,-400 194,-400 188,-400 182,-394 182,-388 182,-388 182,-292 182,-292 182,-286 188,-280 194,-280"/>
<text text-anchor="middle" x="397.5" y="-388.8" font-family="Helvetica,sans-Serif" font-weight="bold" font-size="9.00">melody</text>
</g>
<g id="clust18" class="cluster">
<title>cluster_packages/music&#45;structure/melody/melody&#45;analyze</title>
<path fill="#ffffff" stroke="black" stroke-width="2" d="M202,-288C202,-288 593,-288 593,-288 599,-288 605,-294 605,-300 605,-300 605,-362 605,-362 605,-368 599,-374 593,-374 593,-374 202,-374 202,-374 196,-374 190,-368 190,-362 190,-362 190,-300 190,-300 190,-294 196,-288 202,-288"/>
<text text-anchor="middle" x="397.5" y="-362.8" font-family="Helvetica,sans-Serif" font-weight="bold" font-size="9.00">melody&#45;analyze</text>
</g>
<g id="clust19" class="cluster">
<title>cluster_packages/music&#45;structure/melody/melody&#45;analyze/src</title>
<path fill="#ffffff" stroke="black" stroke-width="2" d="M210,-296C210,-296 585,-296 585,-296 591,-296 597,-302 597,-308 597,-308 597,-336 597,-336 597,-342 591,-348 585,-348 585,-348 210,-348 210,-348 204,-348 198,-342 198,-336 198,-336 198,-308 198,-308 198,-302 204,-296 210,-296"/>
<text text-anchor="middle" x="397.5" y="-336.8" font-family="Helvetica,sans-Serif" font-weight="bold" font-size="9.00">src</text>
</g>
<g id="clust20" class="cluster">
<title>cluster_packages/util</title>
<path fill="#ffffff" stroke="black" stroke-width="2" d="M380,-434C380,-434 458,-434 458,-434 464,-434 470,-440 470,-446 470,-446 470,-542 470,-542 470,-548 464,-554 458,-554 458,-554 380,-554 380,-554 374,-554 368,-548 368,-542 368,-542 368,-446 368,-446 368,-440 374,-434 380,-434"/>
<text text-anchor="middle" x="419" y="-542.8" font-family="Helvetica,sans-Serif" font-weight="bold" font-size="9.00">util</text>
</g>
<g id="clust21" class="cluster">
<title>cluster_packages/util/time&#45;and</title>
<path fill="#ffffff" stroke="black" stroke-width="2" d="M388,-442C388,-442 450,-442 450,-442 456,-442 462,-448 462,-454 462,-454 462,-516 462,-516 462,-522 456,-528 450,-528 450,-528 388,-528 388,-528 382,-528 376,-522 376,-516 376,-516 376,-454 376,-454 376,-448 382,-442 388,-442"/>
<text text-anchor="middle" x="419" y="-516.8" font-family="Helvetica,sans-Serif" font-weight="bold" font-size="9.00">time&#45;and</text>
</g>
<g id="clust22" class="cluster">
<title>cluster_packages/util/time&#45;and/dist</title>
<path fill="#ffffff" stroke="black" stroke-width="2" d="M396,-450C396,-450 442,-450 442,-450 448,-450 454,-456 454,-462 454,-462 454,-490 454,-490 454,-496 448,-502 442,-502 442,-502 396,-502 396,-502 390,-502 384,-496 384,-490 384,-490 384,-462 384,-462 384,-456 390,-450 396,-450"/>
<text text-anchor="middle" x="419" y="-490.8" font-family="Helvetica,sans-Serif" font-weight="bold" font-size="9.00">dist</text>
</g>
<!-- packages/UI/view&#45;parameters/src/bracket&#45;height.ts -->
<g id="node1" class="node">
<title>packages/UI/view&#45;parameters/src/bracket&#45;height.ts</title>
<g id="a_node1"><a xlink:href="packages/UI/view-parameters/src/bracket-height.ts" xlink:title="bracket&#45;height.ts">
<path fill="#ddfeff" stroke="black" d="M320.5,-476C320.5,-476 237.5,-476 237.5,-476 234.5,-476 231.5,-473 231.5,-470 231.5,-470 231.5,-464 231.5,-464 231.5,-461 234.5,-458 237.5,-458 237.5,-458 320.5,-458 320.5,-458 323.5,-458 326.5,-461 326.5,-464 326.5,-464 326.5,-470 326.5,-470 326.5,-473 323.5,-476 320.5,-476"/>
<text text-anchor="start" x="239.5" y="-464.8" font-family="Helvetica,sans-Serif" font-size="9.00">bracket&#45;height.ts</text>
</a>
</g>
</g>
<!-- packages/UI/view&#45;parameters/src/piano&#45;roll/piano&#45;roll&#45;begin.ts -->
<g id="node2" class="node">
<title>packages/UI/view&#45;parameters/src/piano&#45;roll/piano&#45;roll&#45;begin.ts</title>
<g id="a_node2"><a xlink:href="packages/UI/view-parameters/src/piano-roll/piano-roll-begin.ts" xlink:title="piano&#45;roll&#45;begin.ts">
<path fill="#ddfeff" stroke="black" d="M322,-540C322,-540 236,-540 236,-540 233,-540 230,-537 230,-534 230,-534 230,-528 230,-528 230,-525 233,-522 236,-522 236,-522 322,-522 322,-522 325,-522 328,-525 328,-528 328,-528 328,-534 328,-534 328,-537 325,-540 322,-540"/>
<text text-anchor="start" x="238" y="-528.8" font-family="Helvetica,sans-Serif" font-size="9.00">piano&#45;roll&#45;begin.ts</text>
</a>
</g>
</g>
<!-- packages/UI/view&#45;parameters/src/piano&#45;roll/piano&#45;roll&#45;end.ts -->
<g id="node3" class="node">
<title>packages/UI/view&#45;parameters/src/piano&#45;roll/piano&#45;roll&#45;end.ts</title>
<g id="a_node3"><a xlink:href="packages/UI/view-parameters/src/piano-roll/piano-roll-end.ts" xlink:title="piano&#45;roll&#45;end.ts">
<path fill="#ddfeff" stroke="black" d="M318,-510C318,-510 240,-510 240,-510 237,-510 234,-507 234,-504 234,-504 234,-498 234,-498 234,-495 237,-492 240,-492 240,-492 318,-492 318,-492 321,-492 324,-495 324,-498 324,-498 324,-504 324,-504 324,-507 321,-510 318,-510"/>
<text text-anchor="start" x="242" y="-498.8" font-family="Helvetica,sans-Serif" font-size="9.00">piano&#45;roll&#45;end.ts</text>
</a>
</g>
</g>
<!-- packages/cognitive&#45;theory&#45;of&#45;music/irm/dist/index.js -->
<g id="node4" class="node">
<title>packages/cognitive&#45;theory&#45;of&#45;music/irm/dist/index.js</title>
<g id="a_node4"><a xlink:href="packages/cognitive-theory-of-music/irm/dist/index.js" xlink:title="index.js">
<polygon fill="#ffffcc" stroke="black" points="587,-476 585.5,-478 575,-478 573.5,-476 533,-476 533,-458 587,-458 587,-476"/>
<text text-anchor="start" x="542.5" y="-464.8" font-family="Helvetica,sans-Serif" font-size="9.00">index.js</text>
</a>
</g>
</g>
<!-- packages/music&#45;structure/analyzed&#45;data&#45;container/index.ts -->
<g id="node5" class="node">
<title>packages/music&#45;structure/analyzed&#45;data&#45;container/index.ts</title>
<g id="a_node5"><a xlink:href="packages/music-structure/analyzed-data-container/index.ts" xlink:title="index.ts">
<path fill="#ddfeff" stroke="black" d="M108,-348C108,-348 66,-348 66,-348 63,-348 60,-345 60,-342 60,-342 60,-336 60,-336 60,-333 63,-330 66,-330 66,-330 108,-330 108,-330 111,-330 114,-333 114,-336 114,-336 114,-342 114,-342 114,-345 111,-348 108,-348"/>
<text text-anchor="start" x="68.5" y="-336.8" font-family="Helvetica,sans-Serif" font-size="9.00">index.ts</text>
</a>
</g>
</g>
<!-- packages/music&#45;structure/analyzed&#45;data&#45;container/index.ts&#45;&gt;packages/UI/view&#45;parameters/src/bracket&#45;height.ts -->
<g id="edge4" class="edge">
<title>packages/music&#45;structure/analyzed&#45;data&#45;container/index.ts&#45;&gt;packages/UI/view&#45;parameters/src/bracket&#45;height.ts</title>
<path fill="none" stroke="#000000" stroke-width="2" stroke-opacity="0.200000" d="M101.36,-348C134.53,-370.35 220.73,-428.42 259.1,-454.27"/>
<polygon fill="#000000" fill-opacity="0.200000" stroke="#000000" stroke-width="2" stroke-opacity="0.200000" points="258.25,-456.23 264.4,-457.84 260.6,-452.74 258.25,-456.23"/>
</g>
<!-- packages/music&#45;structure/analyzed&#45;data&#45;container/index.ts&#45;&gt;packages/UI/view&#45;parameters/src/piano&#45;roll/piano&#45;roll&#45;begin.ts -->
<g id="edge5" class="edge">
<title>packages/music&#45;structure/analyzed&#45;data&#45;container/index.ts&#45;&gt;packages/UI/view&#45;parameters/src/piano&#45;roll/piano&#45;roll&#45;begin.ts</title>
<path fill="none" stroke="#000000" stroke-width="2" stroke-opacity="0.200000" d="M96.91,-348C127.38,-378.8 227.59,-480.06 264.34,-517.19"/>
<polygon fill="#000000" fill-opacity="0.200000" stroke="#000000" stroke-width="2" stroke-opacity="0.200000" points="263.18,-519.01 268.89,-521.79 266.16,-516.05 263.18,-519.01"/>
</g>
<!-- packages/music&#45;structure/analyzed&#45;data&#45;container/index.ts&#45;&gt;packages/UI/view&#45;parameters/src/piano&#45;roll/piano&#45;roll&#45;end.ts -->
<g id="edge6" class="edge">
<title>packages/music&#45;structure/analyzed&#45;data&#45;container/index.ts&#45;&gt;packages/UI/view&#45;parameters/src/piano&#45;roll/piano&#45;roll&#45;end.ts</title>
<path fill="none" stroke="#000000" stroke-width="2" stroke-opacity="0.200000" d="M98.76,-348.17C130.76,-375.46 225.45,-456.19 262.7,-487.95"/>
<polygon fill="#000000" fill-opacity="0.200000" stroke="#000000" stroke-width="2" stroke-opacity="0.200000" points="261.43,-489.63 267.36,-491.93 264.16,-486.44 261.43,-489.63"/>
</g>
<!-- packages/music&#45;structure/beat/beat&#45;estimation/dist/index.js -->
<g id="node6" class="node">
<title>packages/music&#45;structure/beat/beat&#45;estimation/dist/index.js</title>
<g id="a_node6"><a xlink:href="packages/music-structure/beat/beat-estimation/dist/index.js" xlink:title="index.js">
<polygon fill="#ffffcc" stroke="black" points="306,-66 304.5,-68 294,-68 292.5,-66 252,-66 252,-48 306,-48 306,-66"/>
<text text-anchor="start" x="261.5" y="-54.8" font-family="Helvetica,sans-Serif" font-size="9.00">index.js</text>
</a>
</g>
</g>
<!-- packages/music&#45;structure/analyzed&#45;data&#45;container/index.ts&#45;&gt;packages/music&#45;structure/beat/beat&#45;estimation/dist/index.js -->
<g id="edge1" class="edge">
<title>packages/music&#45;structure/analyzed&#45;data&#45;container/index.ts&#45;&gt;packages/music&#45;structure/beat/beat&#45;estimation/dist/index.js</title>
<path fill="none" stroke="#000000" stroke-width="2" stroke-opacity="0.200000" d="M94.11,-329.94C121.68,-289 234.73,-121.22 268.46,-71.16"/>
<polygon fill="#000000" fill-opacity="0.200000" stroke="#000000" stroke-width="2" stroke-opacity="0.200000" points="270.21,-72.32 271.82,-66.17 266.73,-69.97 270.21,-72.32"/>
</g>
<!-- packages/music&#45;structure/chord/chord&#45;analyze/dist/index.js -->
<g id="node7" class="node">
<title>packages/music&#45;structure/chord/chord&#45;analyze/dist/index.js</title>
<g id="a_node7"><a xlink:href="packages/music-structure/chord/chord-analyze/dist/index.js" xlink:title="index.js">
<polygon fill="#ffffcc" stroke="black" points="306,-194 304.5,-196 294,-196 292.5,-194 252,-194 252,-176 306,-176 306,-194"/>
<text text-anchor="start" x="261.5" y="-182.8" font-family="Helvetica,sans-Serif" font-size="9.00">index.js</text>
</a>
</g>
</g>
<!-- packages/music&#45;structure/analyzed&#45;data&#45;container/index.ts&#45;&gt;packages/music&#45;structure/chord/chord&#45;analyze/dist/index.js -->
<g id="edge2" class="edge">
<title>packages/music&#45;structure/analyzed&#45;data&#45;container/index.ts&#45;&gt;packages/music&#45;structure/chord/chord&#45;analyze/dist/index.js</title>
<path fill="none" stroke="#000000" stroke-width="2" stroke-opacity="0.200000" d="M99.32,-329.83C131.58,-303.68 224.12,-228.67 261.77,-198.15"/>
<polygon fill="#000000" fill-opacity="0.200000" stroke="#000000" stroke-width="2" stroke-opacity="0.200000" points="263.16,-199.73 266.5,-194.32 260.52,-196.47 263.16,-199.73"/>
</g>
<!-- packages/music&#45;structure/melody/melody&#45;analyze/src/time&#45;and&#45;analyzed&#45;melody.ts -->
<g id="node8" class="node">
<title>packages/music&#45;structure/melody/melody&#45;analyze/src/time&#45;and&#45;analyzed&#45;melody.ts</title>
<g id="a_node8"><a xlink:href="packages/music-structure/melody/melody-analyze/src/time-and-analyzed-melody.ts" xlink:title="time&#45;and&#45;analyzed&#45;melody.ts">
<path fill="#ddfeff" stroke="black" d="M346,-322C346,-322 212,-322 212,-322 209,-322 206,-319 206,-316 206,-316 206,-310 206,-310 206,-307 209,-304 212,-304 212,-304 346,-304 346,-304 349,-304 352,-307 352,-310 352,-310 352,-316 352,-316 352,-319 349,-322 346,-322"/>
<text text-anchor="start" x="214" y="-310.8" font-family="Helvetica,sans-Serif" font-size="9.00">time&#45;and&#45;analyzed&#45;melody.ts</text>
</a>
</g>
</g>
<!-- packages/music&#45;structure/analyzed&#45;data&#45;container/index.ts&#45;&gt;packages/music&#45;structure/melody/melody&#45;analyze/src/time&#45;and&#45;analyzed&#45;melody.ts -->
<g id="edge3" class="edge">
<title>packages/music&#45;structure/analyzed&#45;data&#45;container/index.ts&#45;&gt;packages/music&#45;structure/melody/melody&#45;analyze/src/time&#45;and&#45;analyzed&#45;melody.ts</title>
<path fill="none" stroke="#000000" stroke-width="2" stroke-opacity="0.200000" d="M114.02,-335.44C137.65,-332.21 173.64,-327.28 205.89,-322.87"/>
<polygon fill="#000000" fill-opacity="0.200000" stroke="#000000" stroke-width="2" stroke-opacity="0.200000" points="206.2,-324.94 211.86,-322.05 205.63,-320.78 206.2,-324.94"/>
</g>
<!-- packages/music&#45;structure/melody/melody&#45;analyze/src/melody&#45;analysis.ts -->
<g id="node10" class="node">
<title>packages/music&#45;structure/melody/melody&#45;analyze/src/melody&#45;analysis.ts</title>
<g id="a_node10"><a xlink:href="packages/music-structure/melody/melody-analyze/src/melody-analysis.ts" xlink:title="melody&#45;analysis.ts">
<path fill="#ddfeff" stroke="black" d="M462.5,-322C462.5,-322 375.5,-322 375.5,-322 372.5,-322 369.5,-319 369.5,-316 369.5,-316 369.5,-310 369.5,-310 369.5,-307 372.5,-304 375.5,-304 375.5,-304 462.5,-304 462.5,-304 465.5,-304 468.5,-307 468.5,-310 468.5,-310 468.5,-316 468.5,-316 468.5,-319 465.5,-322 462.5,-322"/>
<text text-anchor="start" x="377.5" y="-310.8" font-family="Helvetica,sans-Serif" font-size="9.00">melody&#45;analysis.ts</text>
</a>
</g>
</g>
<!-- packages/music&#45;structure/melody/melody&#45;analyze/src/time&#45;and&#45;analyzed&#45;melody.ts&#45;&gt;packages/music&#45;structure/melody/melody&#45;analyze/src/melody&#45;analysis.ts -->
<g id="edge9" class="edge">
<title>packages/music&#45;structure/melody/melody&#45;analyze/src/time&#45;and&#45;analyzed&#45;melody.ts&#45;&gt;packages/music&#45;structure/melody/melody&#45;analyze/src/melody&#45;analysis.ts</title>
<path fill="none" stroke="#000000" stroke-width="2" stroke-opacity="0.200000" d="M352.23,-313C355.91,-313 359.57,-313 363.18,-313"/>
<polygon fill="#000000" fill-opacity="0.200000" stroke="#000000" stroke-width="2" stroke-opacity="0.200000" points="363.2,-315.1 369.2,-313 363.2,-310.9 363.2,-315.1"/>
</g>
<!-- packages/util/time&#45;and/dist/index.js -->
<g id="node11" class="node">
<title>packages/util/time&#45;and/dist/index.js</title>
<g id="a_node11"><a xlink:href="packages/util/time-and/dist/index.js" xlink:title="index.js">
<polygon fill="#ffffcc" stroke="black" points="446,-476 444.5,-478 434,-478 432.5,-476 392,-476 392,-458 446,-458 446,-476"/>
<text text-anchor="start" x="401.5" y="-464.8" font-family="Helvetica,sans-Serif" font-size="9.00">index.js</text>
</a>
</g>
</g>
<!-- packages/music&#45;structure/melody/melody&#45;analyze/src/time&#45;and&#45;analyzed&#45;melody.ts&#45;&gt;packages/util/time&#45;and/dist/index.js -->
<g id="edge10" class="edge">
<title>packages/music&#45;structure/melody/melody&#45;analyze/src/time&#45;and&#45;analyzed&#45;melody.ts&#45;&gt;packages/util/time&#45;and/dist/index.js</title>
<path fill="none" stroke="#000000" stroke-width="2" stroke-opacity="0.200000" d="M288.22,-322.17C311.46,-348.11 377.77,-422.11 405.54,-453.09"/>
<polygon fill="#000000" fill-opacity="0.200000" stroke="#000000" stroke-width="2" stroke-opacity="0.200000" points="404.08,-454.61 409.65,-457.68 407.21,-451.81 404.08,-454.61"/>
</g>
<!-- packages/music&#45;structure/melody/melody&#45;analyze/src/gravity.ts -->
<g id="node9" class="node">
<title>packages/music&#45;structure/melody/melody&#45;analyze/src/gravity.ts</title>
<g id="a_node9"><a xlink:href="packages/music-structure/melody/melody-analyze/src/gravity.ts" xlink:title="gravity.ts">
<path fill="#ddfeff" stroke="black" d="M583,-322C583,-322 537,-322 537,-322 534,-322 531,-319 531,-316 531,-316 531,-310 531,-310 531,-307 534,-304 537,-304 537,-304 583,-304 583,-304 586,-304 589,-307 589,-310 589,-310 589,-316 589,-316 589,-319 586,-322 583,-322"/>
<text text-anchor="start" x="539" y="-310.8" font-family="Helvetica,sans-Serif" font-size="9.00">gravity.ts</text>
</a>
</g>
</g>
<!-- packages/music&#45;structure/melody/melody&#45;analyze/src/melody&#45;analysis.ts&#45;&gt;packages/cognitive&#45;theory&#45;of&#45;music/irm/dist/index.js -->
<g id="edge8" class="edge">
<title>packages/music&#45;structure/melody/melody&#45;analyze/src/melody&#45;analysis.ts&#45;&gt;packages/cognitive&#45;theory&#45;of&#45;music/irm/dist/index.js</title>
<path fill="none" stroke="#000000" stroke-width="2" stroke-opacity="0.200000" d="M428.28,-322.17C451.69,-348.11 518.48,-422.11 546.45,-453.09"/>
<polygon fill="#000000" fill-opacity="0.200000" stroke="#000000" stroke-width="2" stroke-opacity="0.200000" points="545.01,-454.63 550.59,-457.68 548.13,-451.82 545.01,-454.63"/>
</g>
<!-- packages/music&#45;structure/melody/melody&#45;analyze/src/melody&#45;analysis.ts&#45;&gt;packages/music&#45;structure/melody/melody&#45;analyze/src/gravity.ts -->
<g id="edge7" class="edge">
<title>packages/music&#45;structure/melody/melody&#45;analyze/src/melody&#45;analysis.ts&#45;&gt;packages/music&#45;structure/melody/melody&#45;analyze/src/gravity.ts</title>
<path fill="none" stroke="#000000" stroke-width="2" stroke-opacity="0.200000" d="M468.62,-313C487.16,-313 507.9,-313 524.82,-313"/>
<polygon fill="#000000" fill-opacity="0.200000" stroke="#000000" stroke-width="2" stroke-opacity="0.200000" points="524.88,-315.1 530.88,-313 524.88,-310.9 524.88,-315.1"/>
</g>
</g>
</svg>
