<?xml version="1.0" encoding="UTF-8" standalone="no"?>
<!DOCTYPE svg PUBLIC "-//W3C//DTD SVG 1.1//EN"
 "http://www.w3.org/Graphics/SVG/1.1/DTD/svg11.dtd">
<!-- Generated by graphviz version 2.43.0 (0)
 -->
<!-- Title: dependency&#45;cruiser output Pages: 1 -->
<svg width="559pt" height="256pt"
 viewBox="0.00 0.00 559.00 256.00" xmlns="http://www.w3.org/2000/svg" xmlns:xlink="http://www.w3.org/1999/xlink">
<g id="graph0" class="graph" transform="scale(1 1) rotate(0) translate(4 252)">
<title>dependency&#45;cruiser output</title>
<polygon fill="white" stroke="transparent" points="-4,4 -4,-252 555,-252 555,4 -4,4"/>
<g id="clust1" class="cluster">
<title>cluster_packages</title>
<path fill="#ffffff" stroke="black" stroke-width="2" d="M20,-8C20,-8 531,-8 531,-8 537,-8 543,-14 543,-20 543,-20 543,-228 543,-228 543,-234 537,-240 531,-240 531,-240 20,-240 20,-240 14,-240 8,-234 8,-228 8,-228 8,-20 8,-20 8,-14 14,-8 20,-8"/>
<text text-anchor="middle" x="275.5" y="-228.8" font-family="Helvetica,sans-Serif" font-weight="bold" font-size="9.00">packages</text>
</g>
<g id="clust2" class="cluster">
<title>cluster_packages/music&#45;structure</title>
<path fill="#ffffff" stroke="black" stroke-width="2" d="M28,-16C28,-16 429,-16 429,-16 435,-16 441,-22 441,-28 441,-28 441,-202 441,-202 441,-208 435,-214 429,-214 429,-214 28,-214 28,-214 22,-214 16,-208 16,-202 16,-202 16,-28 16,-28 16,-22 22,-16 28,-16"/>
<text text-anchor="middle" x="228.5" y="-202.8" font-family="Helvetica,sans-Serif" font-weight="bold" font-size="9.00">music&#45;structure</text>
</g>
<g id="clust3" class="cluster">
<title>cluster_packages/music&#45;structure/chord</title>
<path fill="#ffffff" stroke="black" stroke-width="2" d="M36,-24C36,-24 421,-24 421,-24 427,-24 433,-30 433,-36 433,-36 433,-176 433,-176 433,-182 427,-188 421,-188 421,-188 36,-188 36,-188 30,-188 24,-182 24,-176 24,-176 24,-36 24,-36 24,-30 30,-24 36,-24"/>
<text text-anchor="middle" x="228.5" y="-176.8" font-family="Helvetica,sans-Serif" font-weight="bold" font-size="9.00">chord</text>
</g>
<g id="clust4" class="cluster">
<title>cluster_packages/music&#45;structure/chord/roman&#45;chord</title>
<path fill="#ffffff" stroke="black" stroke-width="2" d="M44,-32C44,-32 413,-32 413,-32 419,-32 425,-38 425,-44 425,-44 425,-150 425,-150 425,-156 419,-162 413,-162 413,-162 44,-162 44,-162 38,-162 32,-156 32,-150 32,-150 32,-44 32,-44 32,-38 38,-32 44,-32"/>
<text text-anchor="middle" x="228.5" y="-150.8" font-family="Helvetica,sans-Serif" font-weight="bold" font-size="9.00">roman&#45;chord</text>
</g>
<g id="clust5" class="cluster">
<title>cluster_packages/music&#45;structure/chord/roman&#45;chord/src</title>
<path fill="#ffffff" stroke="black" stroke-width="2" d="M114,-40C114,-40 405,-40 405,-40 411,-40 417,-46 417,-52 417,-52 417,-124 417,-124 417,-130 411,-136 405,-136 405,-136 114,-136 114,-136 108,-136 102,-130 102,-124 102,-124 102,-52 102,-52 102,-46 108,-40 114,-40"/>
<text text-anchor="middle" x="259.5" y="-124.8" font-family="Helvetica,sans-Serif" font-weight="bold" font-size="9.00">src</text>
</g>
<g id="clust6" class="cluster">
<title>cluster_packages/music&#45;structure/chord/roman&#45;chord/src/facade</title>
<path fill="#ffffff" stroke="black" stroke-width="2" d="M351,-58C351,-58 397,-58 397,-58 403,-58 409,-64 409,-70 409,-70 409,-98 409,-98 409,-104 403,-110 397,-110 397,-110 351,-110 351,-110 345,-110 339,-104 339,-98 339,-98 339,-70 339,-70 339,-64 345,-58 351,-58"/>
<text text-anchor="middle" x="374" y="-98.8" font-family="Helvetica,sans-Serif" font-weight="bold" font-size="9.00">facade</text>
</g>
<g id="clust7" class="cluster">
<title>cluster_packages/tonal&#45;objects</title>
<path fill="#ffffff" stroke="black" stroke-width="2" d="M461,-50C461,-50 523,-50 523,-50 529,-50 535,-56 535,-62 535,-62 535,-124 535,-124 535,-130 529,-136 523,-136 523,-136 461,-136 461,-136 455,-136 449,-130 449,-124 449,-124 449,-62 449,-62 449,-56 455,-50 461,-50"/>
<text text-anchor="middle" x="492" y="-124.8" font-family="Helvetica,sans-Serif" font-weight="bold" font-size="9.00">tonal&#45;objects</text>
</g>
<g id="clust8" class="cluster">
<title>cluster_packages/tonal&#45;objects/dist</title>
<path fill="#ffffff" stroke="black" stroke-width="2" d="M469,-58C469,-58 515,-58 515,-58 521,-58 527,-64 527,-70 527,-70 527,-98 527,-98 527,-104 521,-110 515,-110 515,-110 469,-110 469,-110 463,-110 457,-104 457,-98 457,-98 457,-70 457,-70 457,-64 463,-58 469,-58"/>
<text text-anchor="middle" x="492" y="-98.8" font-family="Helvetica,sans-Serif" font-weight="bold" font-size="9.00">dist</text>
</g>
<!-- packages/music&#45;structure/chord/roman&#45;chord/index.ts -->
<g id="node1" class="node">
<title>packages/music&#45;structure/chord/roman&#45;chord/index.ts</title>
<g id="a_node1"><a xlink:href="packages/music-structure/chord/roman-chord/index.ts" xlink:title="index.ts">
<path fill="#ddfeff" stroke="black" d="M88,-88C88,-88 46,-88 46,-88 43,-88 40,-85 40,-82 40,-82 40,-76 40,-76 40,-73 43,-70 46,-70 46,-70 88,-70 88,-70 91,-70 94,-73 94,-76 94,-76 94,-82 94,-82 94,-85 91,-88 88,-88"/>
<text text-anchor="start" x="48.5" y="-76.8" font-family="Helvetica,sans-Serif" font-size="9.00">index.ts</text>
</a>
</g>
</g>
<!-- packages/music&#45;structure/chord/roman&#45;chord/src/roman&#45;chord.ts -->
<g id="node2" class="node">
<title>packages/music&#45;structure/chord/roman&#45;chord/src/roman&#45;chord.ts</title>
<g id="a_node2"><a xlink:href="packages/music-structure/chord/roman-chord/src/roman-chord.ts" xlink:title="roman&#45;chord.ts">
<path fill="#ddfeff" stroke="black" d="M190,-88C190,-88 116,-88 116,-88 113,-88 110,-85 110,-82 110,-82 110,-76 110,-76 110,-73 113,-70 116,-70 116,-70 190,-70 190,-70 193,-70 196,-73 196,-76 196,-76 196,-82 196,-82 196,-85 193,-88 190,-88"/>
<text text-anchor="start" x="118" y="-76.8" font-family="Helvetica,sans-Serif" font-size="9.00">roman&#45;chord.ts</text>
</a>
</g>
</g>
<!-- packages/music&#45;structure/chord/roman&#45;chord/index.ts&#45;&gt;packages/music&#45;structure/chord/roman&#45;chord/src/roman&#45;chord.ts -->
<g id="edge1" class="edge">
<title>packages/music&#45;structure/chord/roman&#45;chord/index.ts&#45;&gt;packages/music&#45;structure/chord/roman&#45;chord/src/roman&#45;chord.ts</title>
<path fill="none" stroke="#000000" stroke-width="2" stroke-opacity="0.200000" d="M94.12,-79C97.25,-79 100.52,-79 103.84,-79"/>
<polygon fill="#000000" fill-opacity="0.200000" stroke="#000000" stroke-width="2" stroke-opacity="0.200000" points="109.85,-81.1 103.85,-79 109.85,-76.9 109.85,-81.1"/>
</g>
<!-- packages/music&#45;structure/chord/roman&#45;chord/src/convert&#45;to&#45;true&#45;tonic.ts -->
<g id="node3" class="node">
<title>packages/music&#45;structure/chord/roman&#45;chord/src/convert&#45;to&#45;true&#45;tonic.ts</title>
<g id="a_node3"><a xlink:href="packages/music-structure/chord/roman-chord/src/convert-to-true-tonic.ts" xlink:title="convert&#45;to&#45;true&#45;tonic.ts">
<path fill="#ddfeff" stroke="black" d="M325,-66C325,-66 215,-66 215,-66 212,-66 209,-63 209,-60 209,-60 209,-54 209,-54 209,-51 212,-48 215,-48 215,-48 325,-48 325,-48 328,-48 331,-51 331,-54 331,-54 331,-60 331,-60 331,-63 328,-66 325,-66"/>
<text text-anchor="start" x="217" y="-54.8" font-family="Helvetica,sans-Serif" font-size="9.00">convert&#45;to&#45;true&#45;tonic.ts</text>
</a>
</g>
</g>
<!-- packages/music&#45;structure/chord/roman&#45;chord/src/roman&#45;chord.ts&#45;&gt;packages/music&#45;structure/chord/roman&#45;chord/src/convert&#45;to&#45;true&#45;tonic.ts -->
<g id="edge5" class="edge">
<title>packages/music&#45;structure/chord/roman&#45;chord/src/roman&#45;chord.ts&#45;&gt;packages/music&#45;structure/chord/roman&#45;chord/src/convert&#45;to&#45;true&#45;tonic.ts</title>
<path fill="none" stroke="#000000" stroke-width="2" stroke-opacity="0.200000" d="M196.17,-70.93C202.55,-69.71 209.2,-68.44 215.78,-67.18"/>
<polygon fill="#000000" fill-opacity="0.200000" stroke="#000000" stroke-width="2" stroke-opacity="0.200000" points="216.29,-69.22 221.79,-66.03 215.5,-65.1 216.29,-69.22"/>
</g>
<!-- packages/music&#45;structure/chord/roman&#45;chord/src/facade/index.ts -->
<g id="node4" class="node">
<title>packages/music&#45;structure/chord/roman&#45;chord/src/facade/index.ts</title>
<g id="a_node4"><a xlink:href="packages/music-structure/chord/roman-chord/src/facade/index.ts" xlink:title="index.ts">
<path fill="#ddfeff" stroke="black" d="M395,-84C395,-84 353,-84 353,-84 350,-84 347,-81 347,-78 347,-78 347,-72 347,-72 347,-69 350,-66 353,-66 353,-66 395,-66 395,-66 398,-66 401,-69 401,-72 401,-72 401,-78 401,-78 401,-81 398,-84 395,-84"/>
<text text-anchor="start" x="355.5" y="-72.8" font-family="Helvetica,sans-Serif" font-size="9.00">index.ts</text>
</a>
</g>
</g>
<!-- packages/music&#45;structure/chord/roman&#45;chord/src/roman&#45;chord.ts&#45;&gt;packages/music&#45;structure/chord/roman&#45;chord/src/facade/index.ts -->
<g id="edge6" class="edge">
<title>packages/music&#45;structure/chord/roman&#45;chord/src/roman&#45;chord.ts&#45;&gt;packages/music&#45;structure/chord/roman&#45;chord/src/facade/index.ts</title>
<path fill="none" stroke="#000000" stroke-width="2" stroke-opacity="0.200000" d="M196.23,-78.23C238.29,-77.46 301.98,-76.3 340.33,-75.6"/>
<polygon fill="#000000" fill-opacity="0.200000" stroke="#000000" stroke-width="2" stroke-opacity="0.200000" points="340.76,-77.69 346.72,-75.48 340.68,-73.49 340.76,-77.69"/>
</g>
<!-- packages/music&#45;structure/chord/roman&#45;chord/src/get&#45;roman.ts -->
<g id="node6" class="node">
<title>packages/music&#45;structure/chord/roman&#45;chord/src/get&#45;roman.ts</title>
<g id="a_node6"><a xlink:href="packages/music-structure/chord/roman-chord/src/get-roman.ts" xlink:title="get&#45;roman.ts">
<path fill="#ddfeff" stroke="black" d="M301.5,-110C301.5,-110 238.5,-110 238.5,-110 235.5,-110 232.5,-107 232.5,-104 232.5,-104 232.5,-98 232.5,-98 232.5,-95 235.5,-92 238.5,-92 238.5,-92 301.5,-92 301.5,-92 304.5,-92 307.5,-95 307.5,-98 307.5,-98 307.5,-104 307.5,-104 307.5,-107 304.5,-110 301.5,-110"/>
<text text-anchor="start" x="240.5" y="-98.8" font-family="Helvetica,sans-Serif" font-size="9.00">get&#45;roman.ts</text>
</a>
</g>
</g>
<!-- packages/music&#45;structure/chord/roman&#45;chord/src/roman&#45;chord.ts&#45;&gt;packages/music&#45;structure/chord/roman&#45;chord/src/get&#45;roman.ts -->
<g id="edge7" class="edge">
<title>packages/music&#45;structure/chord/roman&#45;chord/src/roman&#45;chord.ts&#45;&gt;packages/music&#45;structure/chord/roman&#45;chord/src/get&#45;roman.ts</title>
<path fill="none" stroke="#000000" stroke-width="2" stroke-opacity="0.200000" d="M196.17,-87.07C205.94,-88.94 216.34,-90.93 226.14,-92.8"/>
<polygon fill="#000000" fill-opacity="0.200000" stroke="#000000" stroke-width="2" stroke-opacity="0.200000" points="225.86,-94.89 232.15,-93.95 226.65,-90.76 225.86,-94.89"/>
</g>
<!-- packages/music&#45;structure/chord/roman&#45;chord/src/convert&#45;to&#45;true&#45;tonic.ts&#45;&gt;packages/music&#45;structure/chord/roman&#45;chord/src/facade/index.ts -->
<g id="edge2" class="edge">
<title>packages/music&#45;structure/chord/roman&#45;chord/src/convert&#45;to&#45;true&#45;tonic.ts&#45;&gt;packages/music&#45;structure/chord/roman&#45;chord/src/facade/index.ts</title>
<path fill="none" stroke="#000000" stroke-width="2" stroke-opacity="0.200000" d="M322.3,-66.05C328.57,-67.16 334.83,-68.26 340.7,-69.3"/>
<polygon fill="#000000" fill-opacity="0.200000" stroke="#000000" stroke-width="2" stroke-opacity="0.200000" points="340.63,-71.42 346.91,-70.4 341.36,-67.28 340.63,-71.42"/>
</g>
<!-- packages/tonal&#45;objects/dist/index.js -->
<g id="node5" class="node">
<title>packages/tonal&#45;objects/dist/index.js</title>
<g id="a_node5"><a xlink:href="packages/tonal-objects/dist/index.js" xlink:title="index.js">
<polygon fill="#ffffcc" stroke="black" points="519,-84 517.5,-86 507,-86 505.5,-84 465,-84 465,-66 519,-66 519,-84"/>
<text text-anchor="start" x="474.5" y="-72.8" font-family="Helvetica,sans-Serif" font-size="9.00">index.js</text>
</a>
</g>
</g>
<!-- packages/music&#45;structure/chord/roman&#45;chord/src/facade/index.ts&#45;&gt;packages/tonal&#45;objects/dist/index.js -->
<g id="edge3" class="edge">
<title>packages/music&#45;structure/chord/roman&#45;chord/src/facade/index.ts&#45;&gt;packages/tonal&#45;objects/dist/index.js</title>
<path fill="none" stroke="#000000" stroke-width="2" stroke-opacity="0.200000" d="M401.03,-75C417.93,-75 440.09,-75 458.19,-75"/>
<polygon fill="#000000" fill-opacity="0.200000" stroke="#000000" stroke-width="2" stroke-opacity="0.200000" points="464.65,-77.1 458.65,-75 464.65,-72.9 464.65,-77.1"/>
</g>
<!-- packages/music&#45;structure/chord/roman&#45;chord/src/get&#45;roman.ts&#45;&gt;packages/music&#45;structure/chord/roman&#45;chord/src/facade/index.ts -->
<g id="edge4" class="edge">
<title>packages/music&#45;structure/chord/roman&#45;chord/src/get&#45;roman.ts&#45;&gt;packages/music&#45;structure/chord/roman&#45;chord/src/facade/index.ts</title>
<path fill="none" stroke="#000000" stroke-width="2" stroke-opacity="0.200000" d="M306.39,-91.98C317.55,-89.13 329.83,-86.01 340.76,-83.22"/>
<polygon fill="#000000" fill-opacity="0.200000" stroke="#000000" stroke-width="2" stroke-opacity="0.200000" points="341.39,-85.23 346.68,-81.71 340.35,-81.16 341.39,-85.23"/>
</g>
</g>
</svg>
