<?xml version="1.0" encoding="UTF-8" standalone="no"?>
<!DOCTYPE svg PUBLIC "-//W3C//DTD SVG 1.1//EN"
 "http://www.w3.org/Graphics/SVG/1.1/DTD/svg11.dtd">
<!-- Generated by graphviz version 2.43.0 (0)
 -->
<!-- Title: dependency&#45;cruiser output Pages: 1 -->
<svg width="124pt" height="35pt"
 viewBox="0.00 0.00 124.01 35.26" xmlns="http://www.w3.org/2000/svg" xmlns:xlink="http://www.w3.org/1999/xlink">
<g id="graph0" class="graph" transform="scale(1 1) rotate(0) translate(4 31.26)">
<title>dependency&#45;cruiser output</title>
<polygon fill="white" stroke="transparent" points="-4,4 -4,-31.26 120.01,-31.26 120.01,4 -4,4"/>
<g id="clust1" class="cluster">
<title>cluster_packages</title>
<path fill="#ffffff" stroke="black" stroke-width="2" d="M9.09,0C9.09,0 106.92,0 106.92,0 111.46,0 116.01,-4.54 116.01,-9.09 116.01,-9.09 116.01,-18.18 116.01,-18.18 116.01,-22.72 111.46,-27.26 106.92,-27.26 106.92,-27.26 9.09,-27.26 9.09,-27.26 4.54,-27.26 0,-22.72 0,-18.18 0,-18.18 0,-9.09 0,-9.09 0,-4.54 4.54,0 9.09,0"/>
<text text-anchor="middle" x="58" y="-16.06" font-family="Helvetica,sans-Serif" font-weight="bold" font-size="9.00">packages</text>
</g>
<!-- packages/music&#45;structure/chord/roman&#45;chord/index.ts -->
<g id="node1" class="node">
<title>packages/music&#45;structure/chord/roman&#45;chord/index.ts</title>
<g id="a_node1"><a xlink:href="packages/music-structure/chord/roman-chord/index.ts" xlink:title="index.ts">
<path fill="#ddfeff" stroke="black" d="M48,-27.26C48,-27.26 6,-27.26 6,-27.26 3,-27.26 0,-24.26 0,-21.26 0,-21.26 0,-15.26 0,-15.26 0,-12.26 3,-9.26 6,-9.26 6,-9.26 48,-9.26 48,-9.26 51,-9.26 54,-12.26 54,-15.26 54,-15.26 54,-21.26 54,-21.26 54,-24.26 51,-27.26 48,-27.26"/>
<text text-anchor="start" x="8.5" y="-16.06" font-family="Helvetica,sans-Serif" font-size="9.00">index.ts</text>
</a>
</g>
</g>
<!-- packages/tonal&#45;objects/dist/index.js -->
<g id="node2" class="node">
<title>packages/tonal&#45;objects/dist/index.js</title>
<g id="a_node2"><a xlink:href="packages/tonal-objects/dist/index.js" xlink:title="index.js">
<polygon fill="#ffffcc" stroke="black" points="116.01,-18 114.51,-20 104.01,-20 102.51,-18 62.01,-18 62.01,0 116.01,0 116.01,-18"/>
<text text-anchor="start" x="71.51" y="-6.8" font-family="Helvetica,sans-Serif" font-size="9.00">index.js</text>
</a>
</g>
</g>
<!-- packages/music&#45;structure/chord/roman&#45;chord/index.ts&#45;&gt;packages/tonal&#45;objects/dist/index.js -->
<g id="edge1" class="edge">
<title>packages/music&#45;structure/chord/roman&#45;chord/index.ts&#45;&gt;packages/tonal&#45;objects/dist/index.js</title>
<path fill="none" stroke="#000000" stroke-width="2" stroke-opacity="0.200000" d="M54.02,-14.23C54.51,-14.15 55,-14.08 55.49,-14.01"/>
<polygon fill="#000000" fill-opacity="0.200000" stroke="#000000" stroke-width="2" stroke-opacity="0.200000" points="56.26,-16.02 61.89,-13.05 55.64,-11.86 56.26,-16.02"/>
</g>
</g>
</svg>
