<?xml version="1.0" encoding="UTF-8" standalone="no"?>
<!DOCTYPE svg PUBLIC "-//W3C//DTD SVG 1.1//EN"
 "http://www.w3.org/Graphics/SVG/1.1/DTD/svg11.dtd">
<!-- Generated by graphviz version 2.43.0 (0)
 -->
<!-- Title: dependency&#45;cruiser output Pages: 1 -->
<svg width="587pt" height="564pt"
 viewBox="0.00 0.00 586.51 563.98" xmlns="http://www.w3.org/2000/svg" xmlns:xlink="http://www.w3.org/1999/xlink">
<g id="graph0" class="graph" transform="scale(1 1) rotate(0) translate(4 559.98)">
<title>dependency&#45;cruiser output</title>
<polygon fill="white" stroke="transparent" points="-4,4 -4,-559.98 582.51,-559.98 582.51,4 -4,4"/>
<g id="clust1" class="cluster">
<title>cluster_node_modules</title>
<path fill="#ffffff" stroke="black" stroke-width="2" d="M12,0C12,0 566.51,0 566.51,0 572.51,0 578.51,-6 578.51,-12 578.51,-12 578.51,-543.98 578.51,-543.98 578.51,-549.98 572.51,-555.98 566.51,-555.98 566.51,-555.98 12,-555.98 12,-555.98 6,-555.98 0,-549.98 0,-543.98 0,-543.98 0,-12 0,-12 0,-6 6,0 12,0"/>
<text text-anchor="middle" x="289.25" y="-544.78" font-family="Helvetica,sans-Serif" font-weight="bold" font-size="9.00">node_modules</text>
</g>
<g id="clust3" class="cluster">
<title>cluster_packages</title>
<path fill="#ffffff" stroke="black" stroke-width="2" d="M78.94,-36.14C78.94,-36.14 436.48,-36.14 436.48,-36.14 442.48,-36.14 448.48,-42.14 448.48,-48.14 448.48,-48.14 448.48,-418.95 448.48,-418.95 448.48,-424.95 442.48,-430.95 436.48,-430.95 436.48,-430.95 78.94,-430.95 78.94,-430.95 72.94,-430.95 66.94,-424.95 66.94,-418.95 66.94,-418.95 66.94,-48.14 66.94,-48.14 66.94,-42.14 72.94,-36.14 78.94,-36.14"/>
<text text-anchor="middle" x="257.71" y="-419.75" font-family="Helvetica,sans-Serif" font-weight="bold" font-size="9.00">packages</text>
</g>
<!-- node_modules/@tonaljs/chord -->
<g id="node1" class="node">
<title>node_modules/@tonaljs/chord</title>
<g id="a_node1"><a xlink:href="https://www.npmjs.com/package/@tonaljs/chord" xlink:title="chord">
<polygon fill="#c40b0a" fill-opacity="0.101961" stroke="black" points="54,-163.23 2,-163.23 0,-161.23 0,-145.23 52,-145.23 54,-147.23 54,-163.23"/>
<polyline fill="none" stroke="black" points="52,-161.23 0,-161.23 "/>
<polyline fill="none" stroke="black" points="52,-161.23 52,-145.23 "/>
<polyline fill="none" stroke="black" points="52,-161.23 54,-163.23 "/>
<text text-anchor="start" x="13.5" y="-152.03" font-family="Helvetica,sans-Serif" font-size="9.00" fill="#c40b0a">chord</text>
</a>
</g>
</g>
<!-- node_modules/@tonaljs/interval -->
<g id="node2" class="node">
<title>node_modules/@tonaljs/interval</title>
<g id="a_node2"><a xlink:href="https://www.npmjs.com/package/@tonaljs/interval" xlink:title="interval">
<polygon fill="#c40b0a" fill-opacity="0.101961" stroke="black" points="578.51,-311.55 526.51,-311.55 524.51,-309.55 524.51,-293.55 576.51,-293.55 578.51,-295.55 578.51,-311.55"/>
<polyline fill="none" stroke="black" points="576.51,-309.55 524.51,-309.55 "/>
<polyline fill="none" stroke="black" points="576.51,-309.55 576.51,-293.55 "/>
<polyline fill="none" stroke="black" points="576.51,-309.55 578.51,-311.55 "/>
<text text-anchor="start" x="534.51" y="-300.35" font-family="Helvetica,sans-Serif" font-size="9.00" fill="#c40b0a">interval</text>
</a>
</g>
</g>
<!-- node_modules/@tonaljs/note -->
<g id="node3" class="node">
<title>node_modules/@tonaljs/note</title>
<g id="a_node3"><a xlink:href="https://www.npmjs.com/package/@tonaljs/note" xlink:title="note">
<polygon fill="#c40b0a" fill-opacity="0.101961" stroke="black" points="401.59,-18 349.59,-18 347.59,-16 347.59,0 399.59,0 401.59,-2 401.59,-18"/>
<polyline fill="none" stroke="black" points="399.59,-16 347.59,-16 "/>
<polyline fill="none" stroke="black" points="399.59,-16 399.59,0 "/>
<polyline fill="none" stroke="black" points="399.59,-16 401.59,-18 "/>
<text text-anchor="start" x="364.09" y="-6.8" font-family="Helvetica,sans-Serif" font-size="9.00" fill="#c40b0a">note</text>
</a>
</g>
</g>
<!-- node_modules/@tonaljs/roman&#45;numeral -->
<g id="node4" class="node">
<title>node_modules/@tonaljs/roman&#45;numeral</title>
<g id="a_node4"><a xlink:href="https://www.npmjs.com/package/@tonaljs/roman-numeral" xlink:title="roman&#45;numeral">
<polygon fill="#c40b0a" fill-opacity="0.101961" stroke="black" points="309.42,-555.98 225.42,-555.98 223.42,-553.98 223.42,-537.98 307.42,-537.98 309.42,-539.98 309.42,-555.98"/>
<polyline fill="none" stroke="black" points="307.42,-553.98 223.42,-553.98 "/>
<polyline fill="none" stroke="black" points="307.42,-553.98 307.42,-537.98 "/>
<polyline fill="none" stroke="black" points="307.42,-553.98 309.42,-555.98 "/>
<text text-anchor="start" x="231.42" y="-544.78" font-family="Helvetica,sans-Serif" font-size="9.00" fill="#c40b0a">roman&#45;numeral</text>
</a>
</g>
</g>
<!-- node_modules/@tonaljs/scale -->
<g id="node5" class="node">
<title>node_modules/@tonaljs/scale</title>
<g id="a_node5"><a xlink:href="https://www.npmjs.com/package/@tonaljs/scale" xlink:title="scale">
<polygon fill="#c40b0a" fill-opacity="0.101961" stroke="black" points="444.22,-322.44 392.22,-322.44 390.22,-320.44 390.22,-304.44 442.22,-304.44 444.22,-306.44 444.22,-322.44"/>
<polyline fill="none" stroke="black" points="442.22,-320.44 390.22,-320.44 "/>
<polyline fill="none" stroke="black" points="442.22,-320.44 442.22,-304.44 "/>
<polyline fill="none" stroke="black" points="442.22,-320.44 444.22,-322.44 "/>
<text text-anchor="start" x="405.72" y="-311.24" font-family="Helvetica,sans-Serif" font-size="9.00" fill="#c40b0a">scale</text>
</a>
</g>
</g>
<!-- packages/music&#45;structure/chord/roman&#45;chord/src/convert&#45;to&#45;true&#45;tonic.ts -->
<g id="node6" class="node">
<title>packages/music&#45;structure/chord/roman&#45;chord/src/convert&#45;to&#45;true&#45;tonic.ts</title>
<g id="a_node6"><a xlink:href="packages/music-structure/chord/roman-chord/src/convert-to-true-tonic.ts" xlink:title="convert&#45;to&#45;true&#45;tonic.ts">
<path fill="#ddfeff" stroke="black" d="M257.71,-123.75C257.71,-123.75 147.71,-123.75 147.71,-123.75 144.71,-123.75 141.71,-120.75 141.71,-117.75 141.71,-117.75 141.71,-111.75 141.71,-111.75 141.71,-108.75 144.71,-105.75 147.71,-105.75 147.71,-105.75 257.71,-105.75 257.71,-105.75 260.71,-105.75 263.71,-108.75 263.71,-111.75 263.71,-111.75 263.71,-117.75 263.71,-117.75 263.71,-120.75 260.71,-123.75 257.71,-123.75"/>
<text text-anchor="start" x="149.71" y="-112.55" font-family="Helvetica,sans-Serif" font-size="9.00">convert&#45;to&#45;true&#45;tonic.ts</text>
</a>
</g>
</g>
<!-- packages/tonal&#45;objects/src/chord/chord.ts -->
<g id="node7" class="node">
<title>packages/tonal&#45;objects/src/chord/chord.ts</title>
<g id="a_node7"><a xlink:href="packages/tonal-objects/src/chord/chord.ts" xlink:title="chord.ts">
<path fill="#ddfeff" stroke="black" d="M152.85,-235.48C152.85,-235.48 110.85,-235.48 110.85,-235.48 107.85,-235.48 104.85,-232.48 104.85,-229.48 104.85,-229.48 104.85,-223.48 104.85,-223.48 104.85,-220.48 107.85,-217.48 110.85,-217.48 110.85,-217.48 152.85,-217.48 152.85,-217.48 155.85,-217.48 158.85,-220.48 158.85,-223.48 158.85,-223.48 158.85,-229.48 158.85,-229.48 158.85,-232.48 155.85,-235.48 152.85,-235.48"/>
<text text-anchor="start" x="112.85" y="-224.28" font-family="Helvetica,sans-Serif" font-size="9.00">chord.ts</text>
</a>
</g>
</g>
<!-- packages/music&#45;structure/chord/roman&#45;chord/src/convert&#45;to&#45;true&#45;tonic.ts&#45;&gt;packages/tonal&#45;objects/src/chord/chord.ts -->
<g id="edge1" class="edge">
<title>packages/music&#45;structure/chord/roman&#45;chord/src/convert&#45;to&#45;true&#45;tonic.ts&#45;&gt;packages/tonal&#45;objects/src/chord/chord.ts</title>
<path fill="none" stroke="#000000" stroke-width="2" stroke-opacity="0.200000" d="M196.91,-123.89C184.61,-143.29 155.82,-188.69 141.01,-212.04"/>
<polygon fill="#000000" fill-opacity="0.200000" stroke="#000000" stroke-width="2" stroke-opacity="0.200000" points="139.17,-211.01 137.73,-217.21 142.72,-213.26 139.17,-211.01"/>
</g>
<!-- packages/tonal&#45;objects/src/chord/get.ts -->
<g id="node8" class="node">
<title>packages/tonal&#45;objects/src/chord/get.ts</title>
<g id="a_node8"><a xlink:href="packages/tonal-objects/src/chord/get.ts" xlink:title="get.ts">
<path fill="#ddfeff" stroke="black" d="M114.94,-54.14C114.94,-54.14 72.94,-54.14 72.94,-54.14 69.94,-54.14 66.94,-51.14 66.94,-48.14 66.94,-48.14 66.94,-42.14 66.94,-42.14 66.94,-39.14 69.94,-36.14 72.94,-36.14 72.94,-36.14 114.94,-36.14 114.94,-36.14 117.94,-36.14 120.94,-39.14 120.94,-42.14 120.94,-42.14 120.94,-48.14 120.94,-48.14 120.94,-51.14 117.94,-54.14 114.94,-54.14"/>
<text text-anchor="start" x="80.44" y="-42.94" font-family="Helvetica,sans-Serif" font-size="9.00">get.ts</text>
</a>
</g>
</g>
<!-- packages/music&#45;structure/chord/roman&#45;chord/src/convert&#45;to&#45;true&#45;tonic.ts&#45;&gt;packages/tonal&#45;objects/src/chord/get.ts -->
<g id="edge2" class="edge">
<title>packages/music&#45;structure/chord/roman&#45;chord/src/convert&#45;to&#45;true&#45;tonic.ts&#45;&gt;packages/tonal&#45;objects/src/chord/get.ts</title>
<path fill="none" stroke="#000000" stroke-width="2" stroke-opacity="0.200000" d="M188.49,-105.65C169.27,-93.35 134.94,-71.38 113.36,-57.57"/>
<polygon fill="#000000" fill-opacity="0.200000" stroke="#000000" stroke-width="2" stroke-opacity="0.200000" points="114.35,-55.71 108.17,-54.24 112.09,-59.25 114.35,-55.71"/>
</g>
<!-- packages/tonal&#45;objects/src/note/chroma.ts -->
<g id="node9" class="node">
<title>packages/tonal&#45;objects/src/note/chroma.ts</title>
<g id="a_node9"><a xlink:href="packages/tonal-objects/src/note/chroma.ts" xlink:title="chroma.ts">
<path fill="#ddfeff" stroke="black" d="M336.64,-132.81C336.64,-132.81 286.64,-132.81 286.64,-132.81 283.64,-132.81 280.64,-129.81 280.64,-126.81 280.64,-126.81 280.64,-120.81 280.64,-120.81 280.64,-117.81 283.64,-114.81 286.64,-114.81 286.64,-114.81 336.64,-114.81 336.64,-114.81 339.64,-114.81 342.64,-117.81 342.64,-120.81 342.64,-120.81 342.64,-126.81 342.64,-126.81 342.64,-129.81 339.64,-132.81 336.64,-132.81"/>
<text text-anchor="start" x="288.64" y="-121.61" font-family="Helvetica,sans-Serif" font-size="9.00">chroma.ts</text>
</a>
</g>
</g>
<!-- packages/music&#45;structure/chord/roman&#45;chord/src/convert&#45;to&#45;true&#45;tonic.ts&#45;&gt;packages/tonal&#45;objects/src/note/chroma.ts -->
<g id="edge3" class="edge">
<title>packages/music&#45;structure/chord/roman&#45;chord/src/convert&#45;to&#45;true&#45;tonic.ts&#45;&gt;packages/tonal&#45;objects/src/note/chroma.ts</title>
<path fill="none" stroke="#000000" stroke-width="2" stroke-opacity="0.200000" d="M263.86,-119.83C267.44,-120.13 270.98,-120.42 274.41,-120.71"/>
<polygon fill="#000000" fill-opacity="0.200000" stroke="#000000" stroke-width="2" stroke-opacity="0.200000" points="274.32,-122.81 280.47,-121.21 274.67,-118.62 274.32,-122.81"/>
</g>
<!-- packages/tonal&#45;objects/src/scale/scale.ts -->
<g id="node10" class="node">
<title>packages/tonal&#45;objects/src/scale/scale.ts</title>
<g id="a_node10"><a xlink:href="packages/tonal-objects/src/scale/scale.ts" xlink:title="scale.ts">
<path fill="#ddfeff" stroke="black" d="M333.7,-218.35C333.7,-218.35 291.7,-218.35 291.7,-218.35 288.7,-218.35 285.7,-215.35 285.7,-212.35 285.7,-212.35 285.7,-206.35 285.7,-206.35 285.7,-203.35 288.7,-200.35 291.7,-200.35 291.7,-200.35 333.7,-200.35 333.7,-200.35 336.7,-200.35 339.7,-203.35 339.7,-206.35 339.7,-206.35 339.7,-212.35 339.7,-212.35 339.7,-215.35 336.7,-218.35 333.7,-218.35"/>
<text text-anchor="start" x="295.7" y="-207.15" font-family="Helvetica,sans-Serif" font-size="9.00">scale.ts</text>
</a>
</g>
</g>
<!-- packages/music&#45;structure/chord/roman&#45;chord/src/convert&#45;to&#45;true&#45;tonic.ts&#45;&gt;packages/tonal&#45;objects/src/scale/scale.ts -->
<g id="edge4" class="edge">
<title>packages/music&#45;structure/chord/roman&#45;chord/src/convert&#45;to&#45;true&#45;tonic.ts&#45;&gt;packages/tonal&#45;objects/src/scale/scale.ts</title>
<path fill="none" stroke="#000000" stroke-width="2" stroke-opacity="0.200000" d="M213.25,-123.82C232.75,-140.59 274.5,-176.5 297.21,-196.04"/>
<polygon fill="#000000" fill-opacity="0.200000" stroke="#000000" stroke-width="2" stroke-opacity="0.200000" points="296.1,-197.85 302.02,-200.17 298.84,-194.67 296.1,-197.85"/>
</g>
<!-- packages/tonal&#45;objects/src/chord/chord.ts&#45;&gt;node_modules/@tonaljs/chord -->
<g id="edge15" class="edge">
<title>packages/tonal&#45;objects/src/chord/chord.ts&#45;&gt;node_modules/@tonaljs/chord</title>
<path fill="none" stroke="#000000" stroke-opacity="0.200000" d="M118.57,-217.33C99.98,-204.52 66.13,-181.19 45.2,-166.77"/>
<polygon fill="none" stroke="#000000" stroke-opacity="0.200000" points="46.3,-164.98 40.17,-163.31 43.92,-168.44 46.3,-164.98"/>
</g>
<!-- packages/tonal&#45;objects/src/chord/get.ts&#45;&gt;node_modules/@tonaljs/chord -->
<g id="edge16" class="edge">
<title>packages/tonal&#45;objects/src/chord/get.ts&#45;&gt;node_modules/@tonaljs/chord</title>
<path fill="none" stroke="#000000" stroke-opacity="0.200000" d="M88.24,-54.44C76.58,-73.44 49.95,-116.84 35.96,-139.63"/>
<polygon fill="#000000" fill-opacity="0.200000" stroke="#000000" stroke-opacity="0.200000" points="30.9,-143.86 35.83,-139.84 34.48,-146.05 30.9,-143.86"/>
</g>
<!-- packages/tonal&#45;objects/src/note/chroma.ts&#45;&gt;node_modules/@tonaljs/note -->
<g id="edge18" class="edge">
<title>packages/tonal&#45;objects/src/note/chroma.ts&#45;&gt;node_modules/@tonaljs/note</title>
<path fill="none" stroke="#000000" stroke-opacity="0.200000" d="M316.58,-114.8C327.42,-95.03 353.38,-47.68 366.58,-23.6"/>
<polygon fill="#000000" fill-opacity="0.200000" stroke="#000000" stroke-opacity="0.200000" points="371.34,-19.3 366.61,-23.55 367.65,-17.28 371.34,-19.3"/>
</g>
<!-- packages/tonal&#45;objects/src/scale/scale.ts&#45;&gt;node_modules/@tonaljs/scale -->
<g id="edge20" class="edge">
<title>packages/tonal&#45;objects/src/scale/scale.ts&#45;&gt;node_modules/@tonaljs/scale</title>
<path fill="none" stroke="#000000" stroke-opacity="0.200000" d="M321.97,-218.59C340.54,-237.08 382.32,-278.69 403.84,-300.12"/>
<polygon fill="none" stroke="#000000" stroke-opacity="0.200000" points="402.38,-301.63 408.11,-304.38 405.34,-298.65 402.38,-301.63"/>
</g>
<!-- packages/music&#45;structure/chord/roman&#45;chord/src/get&#45;roman.ts -->
<g id="node11" class="node">
<title>packages/music&#45;structure/chord/roman&#45;chord/src/get&#45;roman.ts</title>
<g id="a_node11"><a xlink:href="packages/music-structure/chord/roman-chord/src/get-roman.ts" xlink:title="get&#45;roman.ts">
<path fill="#ddfeff" stroke="black" d="M302.92,-296.19C302.92,-296.19 239.92,-296.19 239.92,-296.19 236.92,-296.19 233.92,-293.19 233.92,-290.19 233.92,-290.19 233.92,-284.19 233.92,-284.19 233.92,-281.19 236.92,-278.19 239.92,-278.19 239.92,-278.19 302.92,-278.19 302.92,-278.19 305.92,-278.19 308.92,-281.19 308.92,-284.19 308.92,-284.19 308.92,-290.19 308.92,-290.19 308.92,-293.19 305.92,-296.19 302.92,-296.19"/>
<text text-anchor="start" x="241.92" y="-284.99" font-family="Helvetica,sans-Serif" font-size="9.00">get&#45;roman.ts</text>
</a>
</g>
</g>
<!-- packages/music&#45;structure/chord/roman&#45;chord/src/get&#45;roman.ts&#45;&gt;packages/tonal&#45;objects/src/chord/chord.ts -->
<g id="edge5" class="edge">
<title>packages/music&#45;structure/chord/roman&#45;chord/src/get&#45;roman.ts&#45;&gt;packages/tonal&#45;objects/src/chord/chord.ts</title>
<path fill="none" stroke="#000000" stroke-width="2" stroke-opacity="0.200000" d="M250.53,-278.1C226.07,-267.46 185.5,-249.81 158.72,-238.16"/>
<polygon fill="#000000" fill-opacity="0.200000" stroke="#000000" stroke-width="2" stroke-opacity="0.200000" points="159.23,-236.1 152.89,-235.63 157.56,-239.95 159.23,-236.1"/>
</g>
<!-- packages/music&#45;structure/chord/roman&#45;chord/src/get&#45;roman.ts&#45;&gt;packages/tonal&#45;objects/src/note/chroma.ts -->
<g id="edge8" class="edge">
<title>packages/music&#45;structure/chord/roman&#45;chord/src/get&#45;roman.ts&#45;&gt;packages/tonal&#45;objects/src/note/chroma.ts</title>
<path fill="none" stroke="#000000" stroke-width="2" stroke-opacity="0.200000" d="M273.7,-277.94C280.34,-250.98 299.71,-172.3 307.91,-138.99"/>
<polygon fill="#000000" fill-opacity="0.200000" stroke="#000000" stroke-width="2" stroke-opacity="0.200000" points="310,-139.29 309.39,-132.96 305.92,-138.28 310,-139.29"/>
</g>
<!-- packages/music&#45;structure/chord/roman&#45;chord/src/get&#45;roman.ts&#45;&gt;packages/tonal&#45;objects/src/scale/scale.ts -->
<g id="edge10" class="edge">
<title>packages/music&#45;structure/chord/roman&#45;chord/src/get&#45;roman.ts&#45;&gt;packages/tonal&#45;objects/src/scale/scale.ts</title>
<path fill="none" stroke="#000000" stroke-width="2" stroke-opacity="0.200000" d="M276.32,-277.96C283.39,-264.62 296.55,-239.81 304.95,-223.97"/>
<polygon fill="#000000" fill-opacity="0.200000" stroke="#000000" stroke-width="2" stroke-opacity="0.200000" points="306.85,-224.86 307.81,-218.58 303.14,-222.89 306.85,-224.86"/>
</g>
<!-- packages/tonal&#45;objects/src/interval/distance.ts -->
<g id="node12" class="node">
<title>packages/tonal&#45;objects/src/interval/distance.ts</title>
<g id="a_node12"><a xlink:href="packages/tonal-objects/src/interval/distance.ts" xlink:title="distance.ts">
<polygon fill="#ddfeff" stroke="black" points="205.65,-384.82 204.15,-386.82 193.65,-386.82 192.15,-384.82 139.65,-384.82 139.65,-366.82 205.65,-366.82 205.65,-384.82"/>
<text text-anchor="start" x="147.65" y="-373.62" font-family="Helvetica,sans-Serif" font-size="9.00">distance.ts</text>
</a>
</g>
</g>
<!-- packages/music&#45;structure/chord/roman&#45;chord/src/get&#45;roman.ts&#45;&gt;packages/tonal&#45;objects/src/interval/distance.ts -->
<g id="edge6" class="edge">
<title>packages/music&#45;structure/chord/roman&#45;chord/src/get&#45;roman.ts&#45;&gt;packages/tonal&#45;objects/src/interval/distance.ts</title>
<path fill="none" stroke="#000000" stroke-width="2" stroke-opacity="0.200000" d="M261.22,-296.34C243.7,-312.06 207.81,-344.27 187.5,-362.49"/>
<polygon fill="#000000" fill-opacity="0.200000" stroke="#000000" stroke-width="2" stroke-opacity="0.200000" points="186,-361.01 182.94,-366.58 188.81,-364.14 186,-361.01"/>
</g>
<!-- packages/tonal&#45;objects/src/interval/get.ts -->
<g id="node13" class="node">
<title>packages/tonal&#45;objects/src/interval/get.ts</title>
<g id="a_node13"><a xlink:href="packages/tonal-objects/src/interval/get.ts" xlink:title="get.ts">
<path fill="#ddfeff" stroke="black" d="M442.48,-285.33C442.48,-285.33 400.48,-285.33 400.48,-285.33 397.48,-285.33 394.48,-282.33 394.48,-279.33 394.48,-279.33 394.48,-273.33 394.48,-273.33 394.48,-270.33 397.48,-267.33 400.48,-267.33 400.48,-267.33 442.48,-267.33 442.48,-267.33 445.48,-267.33 448.48,-270.33 448.48,-273.33 448.48,-273.33 448.48,-279.33 448.48,-279.33 448.48,-282.33 445.48,-285.33 442.48,-285.33"/>
<text text-anchor="start" x="407.98" y="-274.13" font-family="Helvetica,sans-Serif" font-size="9.00">get.ts</text>
</a>
</g>
</g>
<!-- packages/music&#45;structure/chord/roman&#45;chord/src/get&#45;roman.ts&#45;&gt;packages/tonal&#45;objects/src/interval/get.ts -->
<g id="edge7" class="edge">
<title>packages/music&#45;structure/chord/roman&#45;chord/src/get&#45;roman.ts&#45;&gt;packages/tonal&#45;objects/src/interval/get.ts</title>
<path fill="none" stroke="#000000" stroke-width="2" stroke-opacity="0.200000" d="M309.29,-284.45C333.52,-282.7 364.67,-280.44 387.99,-278.75"/>
<polygon fill="#000000" fill-opacity="0.200000" stroke="#000000" stroke-width="2" stroke-opacity="0.200000" points="388.21,-280.84 394.05,-278.32 387.91,-276.66 388.21,-280.84"/>
</g>
<!-- packages/tonal&#45;objects/src/roman&#45;numeral/get.ts -->
<g id="node14" class="node">
<title>packages/tonal&#45;objects/src/roman&#45;numeral/get.ts</title>
<g id="a_node14"><a xlink:href="packages/tonal-objects/src/roman-numeral/get.ts" xlink:title="get.ts">
<path fill="#ddfeff" stroke="black" d="M302.56,-430.95C302.56,-430.95 260.56,-430.95 260.56,-430.95 257.56,-430.95 254.56,-427.95 254.56,-424.95 254.56,-424.95 254.56,-418.95 254.56,-418.95 254.56,-415.95 257.56,-412.95 260.56,-412.95 260.56,-412.95 302.56,-412.95 302.56,-412.95 305.56,-412.95 308.56,-415.95 308.56,-418.95 308.56,-418.95 308.56,-424.95 308.56,-424.95 308.56,-427.95 305.56,-430.95 302.56,-430.95"/>
<text text-anchor="start" x="268.06" y="-419.75" font-family="Helvetica,sans-Serif" font-size="9.00">get.ts</text>
</a>
</g>
</g>
<!-- packages/music&#45;structure/chord/roman&#45;chord/src/get&#45;roman.ts&#45;&gt;packages/tonal&#45;objects/src/roman&#45;numeral/get.ts -->
<g id="edge9" class="edge">
<title>packages/music&#45;structure/chord/roman&#45;chord/src/get&#45;roman.ts&#45;&gt;packages/tonal&#45;objects/src/roman&#45;numeral/get.ts</title>
<path fill="none" stroke="#000000" stroke-width="2" stroke-opacity="0.200000" d="M272.12,-296.45C273.83,-319.25 278.27,-378.24 280.39,-406.47"/>
<polygon fill="#000000" fill-opacity="0.200000" stroke="#000000" stroke-width="2" stroke-opacity="0.200000" points="278.31,-406.8 280.85,-412.63 282.5,-406.49 278.31,-406.8"/>
</g>
<!-- packages/tonal&#45;objects/src/interval/get.ts&#45;&gt;node_modules/@tonaljs/interval -->
<g id="edge17" class="edge">
<title>packages/tonal&#45;objects/src/interval/get.ts&#45;&gt;node_modules/@tonaljs/interval</title>
<path fill="none" stroke="#000000" stroke-opacity="0.200000" d="M448.74,-281.83C469.02,-285.92 496.81,-291.52 518.38,-295.87"/>
<polygon fill="#000000" fill-opacity="0.200000" stroke="#000000" stroke-opacity="0.200000" points="523.87,-299.12 518.4,-295.87 524.7,-295 523.87,-299.12"/>
</g>
<!-- packages/tonal&#45;objects/src/roman&#45;numeral/get.ts&#45;&gt;node_modules/@tonaljs/roman&#45;numeral -->
<g id="edge19" class="edge">
<title>packages/tonal&#45;objects/src/roman&#45;numeral/get.ts&#45;&gt;node_modules/@tonaljs/roman&#45;numeral</title>
<path fill="none" stroke="#000000" stroke-opacity="0.200000" d="M280.42,-431.35C277.82,-452.82 271.43,-505.6 268.26,-531.77"/>
<polygon fill="#000000" fill-opacity="0.200000" stroke="#000000" stroke-opacity="0.200000" points="265.44,-537.56 268.25,-531.86 269.61,-538.06 265.44,-537.56"/>
</g>
<!-- packages/music&#45;structure/chord/roman&#45;chord/src/roman&#45;chord.ts -->
<g id="node15" class="node">
<title>packages/music&#45;structure/chord/roman&#45;chord/src/roman&#45;chord.ts</title>
<g id="a_node15"><a xlink:href="packages/music-structure/chord/roman-chord/src/roman-chord.ts" xlink:title="roman&#45;chord.ts">
<path fill="#ddfeff" stroke="black" d="M246.86,-228.16C246.86,-228.16 172.86,-228.16 172.86,-228.16 169.86,-228.16 166.86,-225.16 166.86,-222.16 166.86,-222.16 166.86,-216.16 166.86,-216.16 166.86,-213.16 169.86,-210.16 172.86,-210.16 172.86,-210.16 246.86,-210.16 246.86,-210.16 249.86,-210.16 252.86,-213.16 252.86,-216.16 252.86,-216.16 252.86,-222.16 252.86,-222.16 252.86,-225.16 249.86,-228.16 246.86,-228.16"/>
<text text-anchor="start" x="174.86" y="-216.96" font-family="Helvetica,sans-Serif" font-size="9.00">roman&#45;chord.ts</text>
</a>
</g>
</g>
<!-- packages/music&#45;structure/chord/roman&#45;chord/src/roman&#45;chord.ts&#45;&gt;packages/music&#45;structure/chord/roman&#45;chord/src/convert&#45;to&#45;true&#45;tonic.ts -->
<g id="edge11" class="edge">
<title>packages/music&#45;structure/chord/roman&#45;chord/src/roman&#45;chord.ts&#45;&gt;packages/music&#45;structure/chord/roman&#45;chord/src/convert&#45;to&#45;true&#45;tonic.ts</title>
<path fill="none" stroke="#000000" stroke-width="2" stroke-opacity="0.200000" d="M209.23,-209.89C207.99,-191.89 205.26,-152.03 203.76,-130.05"/>
<polygon fill="#000000" fill-opacity="0.200000" stroke="#000000" stroke-width="2" stroke-opacity="0.200000" points="205.84,-129.69 203.33,-123.84 201.65,-129.97 205.84,-129.69"/>
</g>
<!-- packages/music&#45;structure/chord/roman&#45;chord/src/roman&#45;chord.ts&#45;&gt;packages/tonal&#45;objects/src/chord/chord.ts -->
<g id="edge13" class="edge">
<title>packages/music&#45;structure/chord/roman&#45;chord/src/roman&#45;chord.ts&#45;&gt;packages/tonal&#45;objects/src/chord/chord.ts</title>
<path fill="none" stroke="#000000" stroke-width="2" stroke-opacity="0.200000" d="M166.75,-223.2C166.28,-223.25 165.8,-223.29 165.33,-223.33"/>
<polygon fill="#000000" fill-opacity="0.200000" stroke="#000000" stroke-width="2" stroke-opacity="0.200000" points="165.03,-221.25 159.25,-223.9 165.42,-225.43 165.03,-221.25"/>
</g>
<!-- packages/music&#45;structure/chord/roman&#45;chord/src/roman&#45;chord.ts&#45;&gt;packages/tonal&#45;objects/src/scale/scale.ts -->
<g id="edge14" class="edge">
<title>packages/music&#45;structure/chord/roman&#45;chord/src/roman&#45;chord.ts&#45;&gt;packages/tonal&#45;objects/src/scale/scale.ts</title>
<path fill="none" stroke="#000000" stroke-width="2" stroke-opacity="0.200000" d="M252.88,-215.06C261.74,-214.21 270.94,-213.33 279.39,-212.53"/>
<polygon fill="#000000" fill-opacity="0.200000" stroke="#000000" stroke-width="2" stroke-opacity="0.200000" points="279.92,-214.59 285.69,-211.93 279.52,-210.41 279.92,-214.59"/>
</g>
<!-- packages/music&#45;structure/chord/roman&#45;chord/src/roman&#45;chord.ts&#45;&gt;packages/music&#45;structure/chord/roman&#45;chord/src/get&#45;roman.ts -->
<g id="edge12" class="edge">
<title>packages/music&#45;structure/chord/roman&#45;chord/src/roman&#45;chord.ts&#45;&gt;packages/music&#45;structure/chord/roman&#45;chord/src/get&#45;roman.ts</title>
<path fill="none" stroke="#000000" stroke-width="2" stroke-opacity="0.200000" d="M218.17,-228.33C228.69,-239.96 246.92,-260.11 259.07,-273.54"/>
<polygon fill="#000000" fill-opacity="0.200000" stroke="#000000" stroke-width="2" stroke-opacity="0.200000" points="257.67,-275.12 263.25,-278.16 260.78,-272.3 257.67,-275.12"/>
</g>
</g>
</svg>
