<?xml version="1.0" encoding="UTF-8" standalone="no"?>
<!DOCTYPE svg PUBLIC "-//W3C//DTD SVG 1.1//EN"
 "http://www.w3.org/Graphics/SVG/1.1/DTD/svg11.dtd">
<!-- Generated by graphviz version 2.43.0 (0)
 -->
<!-- Title: dependency&#45;cruiser output Pages: 1 -->
<svg width="595pt" height="478pt"
 viewBox="0.00 0.00 595.00 478.00" xmlns="http://www.w3.org/2000/svg" xmlns:xlink="http://www.w3.org/1999/xlink">
<g id="graph0" class="graph" transform="scale(1 1) rotate(0) translate(4 474)">
<title>dependency&#45;cruiser output</title>
<polygon fill="white" stroke="transparent" points="-4,4 -4,-474 591,-474 591,4 -4,4"/>
<g id="clust1" class="cluster">
<title>cluster_node_modules</title>
<path fill="#ffffff" stroke="black" stroke-width="2" d="M473,-99C473,-99 567,-99 567,-99 573,-99 579,-105 579,-111 579,-111 579,-293 579,-293 579,-299 573,-305 567,-305 567,-305 473,-305 473,-305 467,-305 461,-299 461,-293 461,-293 461,-111 461,-111 461,-105 467,-99 473,-99"/>
<text text-anchor="middle" x="520" y="-293.8" font-family="Helvetica,sans-Serif" font-weight="bold" font-size="9.00">node_modules</text>
</g>
<g id="clust2" class="cluster">
<title>cluster_node_modules/@tonaljs</title>
<path fill="#ffffff" stroke="black" stroke-width="2" d="M481,-107C481,-107 559,-107 559,-107 565,-107 571,-113 571,-119 571,-119 571,-267 571,-267 571,-273 565,-279 559,-279 559,-279 481,-279 481,-279 475,-279 469,-273 469,-267 469,-267 469,-119 469,-119 469,-113 475,-107 481,-107"/>
<text text-anchor="middle" x="520" y="-267.8" font-family="Helvetica,sans-Serif" font-weight="bold" font-size="9.00">@tonaljs</text>
</g>
<g id="clust3" class="cluster">
<title>cluster_packages</title>
<path fill="#ffffff" stroke="black" stroke-width="2" d="M20,-8C20,-8 441,-8 441,-8 447,-8 453,-14 453,-20 453,-20 453,-450 453,-450 453,-456 447,-462 441,-462 441,-462 20,-462 20,-462 14,-462 8,-456 8,-450 8,-450 8,-20 8,-20 8,-14 14,-8 20,-8"/>
<text text-anchor="middle" x="230.5" y="-450.8" font-family="Helvetica,sans-Serif" font-weight="bold" font-size="9.00">packages</text>
</g>
<g id="clust4" class="cluster">
<title>cluster_packages/music&#45;structure</title>
<path fill="#ffffff" stroke="black" stroke-width="2" d="M28,-95C28,-95 289,-95 289,-95 295,-95 301,-101 301,-107 301,-107 301,-267 301,-267 301,-273 295,-279 289,-279 289,-279 28,-279 28,-279 22,-279 16,-273 16,-267 16,-267 16,-107 16,-107 16,-101 22,-95 28,-95"/>
<text text-anchor="middle" x="158.5" y="-267.8" font-family="Helvetica,sans-Serif" font-weight="bold" font-size="9.00">music&#45;structure</text>
</g>
<g id="clust5" class="cluster">
<title>cluster_packages/music&#45;structure/chord</title>
<path fill="#ffffff" stroke="black" stroke-width="2" d="M36,-103C36,-103 281,-103 281,-103 287,-103 293,-109 293,-115 293,-115 293,-241 293,-241 293,-247 287,-253 281,-253 281,-253 36,-253 36,-253 30,-253 24,-247 24,-241 24,-241 24,-115 24,-115 24,-109 30,-103 36,-103"/>
<text text-anchor="start" x="143.5" y="-241.8" font-family="Helvetica,sans-Serif" font-weight="bold" font-size="9.00">chord</text>
</g>
<g id="clust6" class="cluster">
<title>cluster_packages/music&#45;structure/chord/roman&#45;chord</title>
<path fill="#ffffff" stroke="black" stroke-width="2" d="M44,-111C44,-111 273,-111 273,-111 279,-111 285,-117 285,-123 285,-123 285,-215 285,-215 285,-221 279,-227 273,-227 273,-227 44,-227 44,-227 38,-227 32,-221 32,-215 32,-215 32,-123 32,-123 32,-117 38,-111 44,-111"/>
<text text-anchor="middle" x="158.5" y="-215.8" font-family="Helvetica,sans-Serif" font-weight="bold" font-size="9.00">roman&#45;chord</text>
</g>
<g id="clust7" class="cluster">
<title>cluster_packages/music&#45;structure/chord/roman&#45;chord/src</title>
<path fill="#ffffff" stroke="black" stroke-width="2" d="M52,-119C52,-119 265,-119 265,-119 271,-119 277,-125 277,-131 277,-131 277,-189 277,-189 277,-195 271,-201 265,-201 265,-201 52,-201 52,-201 46,-201 40,-195 40,-189 40,-189 40,-131 40,-131 40,-125 46,-119 52,-119"/>
<text text-anchor="middle" x="158.5" y="-189.8" font-family="Helvetica,sans-Serif" font-weight="bold" font-size="9.00">src</text>
</g>
<g id="clust8" class="cluster">
<title>cluster_packages/tonal&#45;objects</title>
<path fill="#ffffff" stroke="black" stroke-width="2" d="M329,-16C329,-16 433,-16 433,-16 439,-16 445,-22 445,-28 445,-28 445,-424 445,-424 445,-430 439,-436 433,-436 433,-436 329,-436 329,-436 323,-436 317,-430 317,-424 317,-424 317,-28 317,-28 317,-22 323,-16 329,-16"/>
<text text-anchor="middle" x="381" y="-424.8" font-family="Helvetica,sans-Serif" font-weight="bold" font-size="9.00">tonal&#45;objects</text>
</g>
<g id="clust9" class="cluster">
<title>cluster_packages/tonal&#45;objects/src</title>
<path fill="#ffffff" stroke="black" stroke-width="2" d="M337,-24C337,-24 425,-24 425,-24 431,-24 437,-30 437,-36 437,-36 437,-398 437,-398 437,-404 431,-410 425,-410 425,-410 337,-410 337,-410 331,-410 325,-404 325,-398 325,-398 325,-36 325,-36 325,-30 331,-24 337,-24"/>
<text text-anchor="middle" x="381" y="-398.8" font-family="Helvetica,sans-Serif" font-weight="bold" font-size="9.00">src</text>
</g>
<g id="clust10" class="cluster">
<title>cluster_packages/tonal&#45;objects/src/chord</title>
<path fill="#ffffff" stroke="black" stroke-width="2" d="M358,-92C358,-92 404,-92 404,-92 410,-92 416,-98 416,-104 416,-104 416,-162 416,-162 416,-168 410,-174 404,-174 404,-174 358,-174 358,-174 352,-174 346,-168 346,-162 346,-162 346,-104 346,-104 346,-98 352,-92 358,-92"/>
<text text-anchor="start" x="366" y="-162.8" font-family="Helvetica,sans-Serif" font-weight="bold" font-size="9.00">chord</text>
</g>
<g id="clust11" class="cluster">
<title>cluster_packages/tonal&#45;objects/src/interval</title>
<path fill="#ffffff" stroke="black" stroke-width="2" d="M352,-302C352,-302 410,-302 410,-302 416,-302 422,-308 422,-314 422,-314 422,-372 422,-372 422,-378 416,-384 410,-384 410,-384 352,-384 352,-384 346,-384 340,-378 340,-372 340,-372 340,-314 340,-314 340,-308 346,-302 352,-302"/>
<text text-anchor="start" x="361" y="-372.8" font-family="Helvetica,sans-Serif" font-weight="bold" font-size="9.00">interval</text>
</g>
<g id="clust12" class="cluster">
<title>cluster_packages/tonal&#45;objects/src/note</title>
<path fill="#ffffff" stroke="black" stroke-width="2" d="M354,-32C354,-32 408,-32 408,-32 414,-32 420,-38 420,-44 420,-44 420,-72 420,-72 420,-78 414,-84 408,-84 408,-84 354,-84 354,-84 348,-84 342,-78 342,-72 342,-72 342,-44 342,-44 342,-38 348,-32 354,-32"/>
<text text-anchor="start" x="369" y="-72.8" font-family="Helvetica,sans-Serif" font-weight="bold" font-size="9.00">note</text>
</g>
<g id="clust13" class="cluster">
<title>cluster_packages/tonal&#45;objects/src/roman&#45;numeral</title>
<path fill="#ffffff" stroke="black" stroke-width="2" d="M345,-242C345,-242 417,-242 417,-242 423,-242 429,-248 429,-254 429,-254 429,-282 429,-282 429,-288 423,-294 417,-294 417,-294 345,-294 345,-294 339,-294 333,-288 333,-282 333,-282 333,-254 333,-254 333,-248 339,-242 345,-242"/>
<text text-anchor="start" x="341" y="-282.8" font-family="Helvetica,sans-Serif" font-weight="bold" font-size="9.00">roman&#45;numeral</text>
</g>
<g id="clust14" class="cluster">
<title>cluster_packages/tonal&#45;objects/src/scale</title>
<path fill="#ffffff" stroke="black" stroke-width="2" d="M358,-182C358,-182 404,-182 404,-182 410,-182 416,-188 416,-194 416,-194 416,-222 416,-222 416,-228 410,-234 404,-234 404,-234 358,-234 358,-234 352,-234 346,-228 346,-222 346,-222 346,-194 346,-194 346,-188 352,-182 358,-182"/>
<text text-anchor="start" x="368" y="-222.8" font-family="Helvetica,sans-Serif" font-weight="bold" font-size="9.00">scale</text>
</g>
<!-- node_modules/@tonaljs/chord -->
<g id="node1" class="node">
<title>node_modules/@tonaljs/chord</title>
<g id="a_node1"><a xlink:href="https://www.npmjs.com/package/@tonaljs/chord" xlink:title="chord">
<polygon fill="#c40b0a" fill-opacity="0.101961" stroke="black" points="547,-163 495,-163 493,-161 493,-145 545,-145 547,-147 547,-163"/>
<polyline fill="none" stroke="black" points="545,-161 493,-161 "/>
<polyline fill="none" stroke="black" points="545,-161 545,-145 "/>
<polyline fill="none" stroke="black" points="545,-161 547,-163 "/>
<text text-anchor="start" x="506.5" y="-151.8" font-family="Helvetica,sans-Serif" font-size="9.00" fill="#c40b0a">chord</text>
</a>
</g>
</g>
<!-- node_modules/@tonaljs/interval -->
<g id="node2" class="node">
<title>node_modules/@tonaljs/interval</title>
<g id="a_node2"><a xlink:href="https://www.npmjs.com/package/@tonaljs/interval" xlink:title="interval">
<polygon fill="#c40b0a" fill-opacity="0.101961" stroke="black" points="547,-253 495,-253 493,-251 493,-235 545,-235 547,-237 547,-253"/>
<polyline fill="none" stroke="black" points="545,-251 493,-251 "/>
<polyline fill="none" stroke="black" points="545,-251 545,-235 "/>
<polyline fill="none" stroke="black" points="545,-251 547,-253 "/>
<text text-anchor="start" x="503" y="-241.8" font-family="Helvetica,sans-Serif" font-size="9.00" fill="#c40b0a">interval</text>
</a>
</g>
</g>
<!-- node_modules/@tonaljs/note -->
<g id="node3" class="node">
<title>node_modules/@tonaljs/note</title>
<g id="a_node3"><a xlink:href="https://www.npmjs.com/package/@tonaljs/note" xlink:title="note">
<polygon fill="#c40b0a" fill-opacity="0.101961" stroke="black" points="547,-133 495,-133 493,-131 493,-115 545,-115 547,-117 547,-133"/>
<polyline fill="none" stroke="black" points="545,-131 493,-131 "/>
<polyline fill="none" stroke="black" points="545,-131 545,-115 "/>
<polyline fill="none" stroke="black" points="545,-131 547,-133 "/>
<text text-anchor="start" x="509.5" y="-121.8" font-family="Helvetica,sans-Serif" font-size="9.00" fill="#c40b0a">note</text>
</a>
</g>
</g>
<!-- node_modules/@tonaljs/roman&#45;numeral -->
<g id="node4" class="node">
<title>node_modules/@tonaljs/roman&#45;numeral</title>
<g id="a_node4"><a xlink:href="https://www.npmjs.com/package/@tonaljs/roman-numeral" xlink:title="roman&#45;numeral">
<polygon fill="#c40b0a" fill-opacity="0.101961" stroke="black" points="563,-223 479,-223 477,-221 477,-205 561,-205 563,-207 563,-223"/>
<polyline fill="none" stroke="black" points="561,-221 477,-221 "/>
<polyline fill="none" stroke="black" points="561,-221 561,-205 "/>
<polyline fill="none" stroke="black" points="561,-221 563,-223 "/>
<text text-anchor="start" x="485" y="-211.8" font-family="Helvetica,sans-Serif" font-size="9.00" fill="#c40b0a">roman&#45;numeral</text>
</a>
</g>
</g>
<!-- node_modules/@tonaljs/scale -->
<g id="node5" class="node">
<title>node_modules/@tonaljs/scale</title>
<g id="a_node5"><a xlink:href="https://www.npmjs.com/package/@tonaljs/scale" xlink:title="scale">
<polygon fill="#c40b0a" fill-opacity="0.101961" stroke="black" points="547,-193 495,-193 493,-191 493,-175 545,-175 547,-177 547,-193"/>
<polyline fill="none" stroke="black" points="545,-191 493,-191 "/>
<polyline fill="none" stroke="black" points="545,-191 545,-175 "/>
<polyline fill="none" stroke="black" points="545,-191 547,-193 "/>
<text text-anchor="start" x="508.5" y="-181.8" font-family="Helvetica,sans-Serif" font-size="9.00" fill="#c40b0a">scale</text>
</a>
</g>
</g>
<!-- packages/music&#45;structure/chord/roman&#45;chord/src/convert&#45;to&#45;true&#45;tonic.ts -->
<g id="node6" class="node">
<title>packages/music&#45;structure/chord/roman&#45;chord/src/convert&#45;to&#45;true&#45;tonic.ts</title>
<g id="a_node6"><a xlink:href="packages/music-structure/chord/roman-chord/src/convert-to-true-tonic.ts" xlink:title="convert&#45;to&#45;true&#45;tonic.ts">
<path fill="#ddfeff" stroke="black" d="M263,-145C263,-145 153,-145 153,-145 150,-145 147,-142 147,-139 147,-139 147,-133 147,-133 147,-130 150,-127 153,-127 153,-127 263,-127 263,-127 266,-127 269,-130 269,-133 269,-133 269,-139 269,-139 269,-142 266,-145 263,-145"/>
<text text-anchor="start" x="155" y="-133.8" font-family="Helvetica,sans-Serif" font-size="9.00">convert&#45;to&#45;true&#45;tonic.ts</text>
</a>
</g>
</g>
<!-- packages/tonal&#45;objects/src/chord/chord.ts -->
<g id="node7" class="node">
<title>packages/tonal&#45;objects/src/chord/chord.ts</title>
<g id="a_node7"><a xlink:href="packages/tonal-objects/src/chord/chord.ts" xlink:title="chord.ts">
<path fill="#ddfeff" stroke="black" d="M402,-148C402,-148 360,-148 360,-148 357,-148 354,-145 354,-142 354,-142 354,-136 354,-136 354,-133 357,-130 360,-130 360,-130 402,-130 402,-130 405,-130 408,-133 408,-136 408,-136 408,-142 408,-142 408,-145 405,-148 402,-148"/>
<text text-anchor="start" x="362" y="-136.8" font-family="Helvetica,sans-Serif" font-size="9.00">chord.ts</text>
</a>
</g>
</g>
<!-- packages/music&#45;structure/chord/roman&#45;chord/src/convert&#45;to&#45;true&#45;tonic.ts&#45;&gt;packages/tonal&#45;objects/src/chord/chord.ts -->
<g id="edge1" class="edge">
<title>packages/music&#45;structure/chord/roman&#45;chord/src/convert&#45;to&#45;true&#45;tonic.ts&#45;&gt;packages/tonal&#45;objects/src/chord/chord.ts</title>
<path fill="none" stroke="#000000" stroke-width="2" stroke-opacity="0.200000" d="M269.29,-137.06C295.66,-137.52 325.54,-138.04 347.6,-138.43"/>
<polygon fill="#000000" fill-opacity="0.200000" stroke="#000000" stroke-width="2" stroke-opacity="0.200000" points="347.58,-140.53 353.61,-138.54 347.65,-136.33 347.58,-140.53"/>
</g>
<!-- packages/tonal&#45;objects/src/chord/get.ts -->
<g id="node8" class="node">
<title>packages/tonal&#45;objects/src/chord/get.ts</title>
<g id="a_node8"><a xlink:href="packages/tonal-objects/src/chord/get.ts" xlink:title="get.ts">
<path fill="#ddfeff" stroke="black" d="M402,-118C402,-118 360,-118 360,-118 357,-118 354,-115 354,-112 354,-112 354,-106 354,-106 354,-103 357,-100 360,-100 360,-100 402,-100 402,-100 405,-100 408,-103 408,-106 408,-106 408,-112 408,-112 408,-115 405,-118 402,-118"/>
<text text-anchor="start" x="367.5" y="-106.8" font-family="Helvetica,sans-Serif" font-size="9.00">get.ts</text>
</a>
</g>
</g>
<!-- packages/music&#45;structure/chord/roman&#45;chord/src/convert&#45;to&#45;true&#45;tonic.ts&#45;&gt;packages/tonal&#45;objects/src/chord/get.ts -->
<g id="edge2" class="edge">
<title>packages/music&#45;structure/chord/roman&#45;chord/src/convert&#45;to&#45;true&#45;tonic.ts&#45;&gt;packages/tonal&#45;objects/src/chord/get.ts</title>
<path fill="none" stroke="#000000" stroke-width="2" stroke-opacity="0.200000" d="M266.42,-126.93C293.38,-122.68 324.53,-117.76 347.38,-114.15"/>
<polygon fill="#000000" fill-opacity="0.200000" stroke="#000000" stroke-width="2" stroke-opacity="0.200000" points="348,-116.18 353.6,-113.17 347.34,-112.03 348,-116.18"/>
</g>
<!-- packages/tonal&#45;objects/src/note/chroma.ts -->
<g id="node9" class="node">
<title>packages/tonal&#45;objects/src/note/chroma.ts</title>
<g id="a_node9"><a xlink:href="packages/tonal-objects/src/note/chroma.ts" xlink:title="chroma.ts">
<path fill="#ddfeff" stroke="black" d="M406,-58C406,-58 356,-58 356,-58 353,-58 350,-55 350,-52 350,-52 350,-46 350,-46 350,-43 353,-40 356,-40 356,-40 406,-40 406,-40 409,-40 412,-43 412,-46 412,-46 412,-52 412,-52 412,-55 409,-58 406,-58"/>
<text text-anchor="start" x="358" y="-46.8" font-family="Helvetica,sans-Serif" font-size="9.00">chroma.ts</text>
</a>
</g>
</g>
<!-- packages/music&#45;structure/chord/roman&#45;chord/src/convert&#45;to&#45;true&#45;tonic.ts&#45;&gt;packages/tonal&#45;objects/src/note/chroma.ts -->
<g id="edge3" class="edge">
<title>packages/music&#45;structure/chord/roman&#45;chord/src/convert&#45;to&#45;true&#45;tonic.ts&#45;&gt;packages/tonal&#45;objects/src/note/chroma.ts</title>
<path fill="none" stroke="#000000" stroke-width="2" stroke-opacity="0.200000" d="M226.98,-126.85C258.1,-111.02 322.01,-78.5 356.57,-60.92"/>
<polygon fill="#000000" fill-opacity="0.200000" stroke="#000000" stroke-width="2" stroke-opacity="0.200000" points="357.87,-62.62 362.26,-58.02 355.96,-58.87 357.87,-62.62"/>
</g>
<!-- packages/tonal&#45;objects/src/scale/scale.ts -->
<g id="node10" class="node">
<title>packages/tonal&#45;objects/src/scale/scale.ts</title>
<g id="a_node10"><a xlink:href="packages/tonal-objects/src/scale/scale.ts" xlink:title="scale.ts">
<path fill="#ddfeff" stroke="black" d="M402,-208C402,-208 360,-208 360,-208 357,-208 354,-205 354,-202 354,-202 354,-196 354,-196 354,-193 357,-190 360,-190 360,-190 402,-190 402,-190 405,-190 408,-193 408,-196 408,-196 408,-202 408,-202 408,-205 405,-208 402,-208"/>
<text text-anchor="start" x="364" y="-196.8" font-family="Helvetica,sans-Serif" font-size="9.00">scale.ts</text>
</a>
</g>
</g>
<!-- packages/music&#45;structure/chord/roman&#45;chord/src/convert&#45;to&#45;true&#45;tonic.ts&#45;&gt;packages/tonal&#45;objects/src/scale/scale.ts -->
<g id="edge4" class="edge">
<title>packages/music&#45;structure/chord/roman&#45;chord/src/convert&#45;to&#45;true&#45;tonic.ts&#45;&gt;packages/tonal&#45;objects/src/scale/scale.ts</title>
<path fill="none" stroke="#000000" stroke-width="2" stroke-opacity="0.200000" d="M233.5,-145.03C264.1,-156.3 316.46,-175.59 349.59,-187.8"/>
<polygon fill="#000000" fill-opacity="0.200000" stroke="#000000" stroke-width="2" stroke-opacity="0.200000" points="349.19,-189.89 355.55,-189.99 350.64,-185.95 349.19,-189.89"/>
</g>
<!-- packages/tonal&#45;objects/src/chord/chord.ts&#45;&gt;node_modules/@tonaljs/chord -->
<g id="edge15" class="edge">
<title>packages/tonal&#45;objects/src/chord/chord.ts&#45;&gt;node_modules/@tonaljs/chord</title>
<path fill="none" stroke="#000000" stroke-opacity="0.200000" d="M408.09,-141.86C430.33,-144.29 462.39,-147.8 486.33,-150.42"/>
<polygon fill="none" stroke="#000000" stroke-opacity="0.200000" points="486.35,-152.54 492.54,-151.1 486.8,-148.36 486.35,-152.54"/>
</g>
<!-- packages/tonal&#45;objects/src/chord/get.ts&#45;&gt;node_modules/@tonaljs/chord -->
<g id="edge16" class="edge">
<title>packages/tonal&#45;objects/src/chord/get.ts&#45;&gt;node_modules/@tonaljs/chord</title>
<path fill="none" stroke="#000000" stroke-opacity="0.200000" d="M408.09,-117.57C430.42,-124.9 462.66,-135.5 486.63,-143.37"/>
<polygon fill="#000000" fill-opacity="0.200000" stroke="#000000" stroke-opacity="0.200000" points="491.88,-147.3 486.84,-143.44 493.19,-143.31 491.88,-147.3"/>
</g>
<!-- packages/tonal&#45;objects/src/note/chroma.ts&#45;&gt;node_modules/@tonaljs/note -->
<g id="edge18" class="edge">
<title>packages/tonal&#45;objects/src/note/chroma.ts&#45;&gt;node_modules/@tonaljs/note</title>
<path fill="none" stroke="#000000" stroke-opacity="0.200000" d="M398.53,-58.05C423.11,-71.5 469.36,-96.82 496.85,-111.87"/>
<polygon fill="#000000" fill-opacity="0.200000" stroke="#000000" stroke-opacity="0.200000" points="501.41,-116.76 497.15,-112.04 503.42,-113.08 501.41,-116.76"/>
</g>
<!-- packages/tonal&#45;objects/src/scale/scale.ts&#45;&gt;node_modules/@tonaljs/scale -->
<g id="edge20" class="edge">
<title>packages/tonal&#45;objects/src/scale/scale.ts&#45;&gt;node_modules/@tonaljs/scale</title>
<path fill="none" stroke="#000000" stroke-opacity="0.200000" d="M408.09,-196.14C430.33,-193.71 462.39,-190.2 486.33,-187.58"/>
<polygon fill="none" stroke="#000000" stroke-opacity="0.200000" points="486.8,-189.64 492.54,-186.9 486.35,-185.46 486.8,-189.64"/>
</g>
<!-- packages/music&#45;structure/chord/roman&#45;chord/src/get&#45;roman.ts -->
<g id="node11" class="node">
<title>packages/music&#45;structure/chord/roman&#45;chord/src/get&#45;roman.ts</title>
<g id="a_node11"><a xlink:href="packages/music-structure/chord/roman-chord/src/get-roman.ts" xlink:title="get&#45;roman.ts">
<path fill="#ddfeff" stroke="black" d="M239.5,-175C239.5,-175 176.5,-175 176.5,-175 173.5,-175 170.5,-172 170.5,-169 170.5,-169 170.5,-163 170.5,-163 170.5,-160 173.5,-157 176.5,-157 176.5,-157 239.5,-157 239.5,-157 242.5,-157 245.5,-160 245.5,-163 245.5,-163 245.5,-169 245.5,-169 245.5,-172 242.5,-175 239.5,-175"/>
<text text-anchor="start" x="178.5" y="-163.8" font-family="Helvetica,sans-Serif" font-size="9.00">get&#45;roman.ts</text>
</a>
</g>
</g>
<!-- packages/music&#45;structure/chord/roman&#45;chord/src/get&#45;roman.ts&#45;&gt;packages/tonal&#45;objects/src/chord/chord.ts -->
<g id="edge5" class="edge">
<title>packages/music&#45;structure/chord/roman&#45;chord/src/get&#45;roman.ts&#45;&gt;packages/tonal&#45;objects/src/chord/chord.ts</title>
<path fill="none" stroke="#000000" stroke-width="2" stroke-opacity="0.200000" d="M245.68,-160.21C276.1,-155.41 318.92,-148.64 347.97,-144.06"/>
<polygon fill="#000000" fill-opacity="0.200000" stroke="#000000" stroke-width="2" stroke-opacity="0.200000" points="348.35,-146.12 353.95,-143.11 347.7,-141.97 348.35,-146.12"/>
</g>
<!-- packages/music&#45;structure/chord/roman&#45;chord/src/get&#45;roman.ts&#45;&gt;packages/tonal&#45;objects/src/note/chroma.ts -->
<g id="edge8" class="edge">
<title>packages/music&#45;structure/chord/roman&#45;chord/src/get&#45;roman.ts&#45;&gt;packages/tonal&#45;objects/src/note/chroma.ts</title>
<path fill="none" stroke="#000000" stroke-width="2" stroke-opacity="0.200000" d="M222.42,-156.82C252.76,-136.06 326.7,-85.47 361.42,-61.71"/>
<polygon fill="#000000" fill-opacity="0.200000" stroke="#000000" stroke-width="2" stroke-opacity="0.200000" points="362.88,-63.26 366.64,-58.14 360.51,-59.79 362.88,-63.26"/>
</g>
<!-- packages/music&#45;structure/chord/roman&#45;chord/src/get&#45;roman.ts&#45;&gt;packages/tonal&#45;objects/src/scale/scale.ts -->
<g id="edge10" class="edge">
<title>packages/music&#45;structure/chord/roman&#45;chord/src/get&#45;roman.ts&#45;&gt;packages/tonal&#45;objects/src/scale/scale.ts</title>
<path fill="none" stroke="#000000" stroke-width="2" stroke-opacity="0.200000" d="M245.68,-173.08C276.1,-178.95 318.92,-187.21 347.97,-192.82"/>
<polygon fill="#000000" fill-opacity="0.200000" stroke="#000000" stroke-width="2" stroke-opacity="0.200000" points="347.66,-194.9 353.95,-193.97 348.46,-190.77 347.66,-194.9"/>
</g>
<!-- packages/tonal&#45;objects/src/interval/distance.ts -->
<g id="node12" class="node">
<title>packages/tonal&#45;objects/src/interval/distance.ts</title>
<g id="a_node12"><a xlink:href="packages/tonal-objects/src/interval/distance.ts" xlink:title="distance.ts">
<polygon fill="#ddfeff" stroke="black" points="414,-328 412.5,-330 402,-330 400.5,-328 348,-328 348,-310 414,-310 414,-328"/>
<text text-anchor="start" x="356" y="-316.8" font-family="Helvetica,sans-Serif" font-size="9.00">distance.ts</text>
</a>
</g>
</g>
<!-- packages/music&#45;structure/chord/roman&#45;chord/src/get&#45;roman.ts&#45;&gt;packages/tonal&#45;objects/src/interval/distance.ts -->
<g id="edge6" class="edge">
<title>packages/music&#45;structure/chord/roman&#45;chord/src/get&#45;roman.ts&#45;&gt;packages/tonal&#45;objects/src/interval/distance.ts</title>
<path fill="none" stroke="#000000" stroke-width="2" stroke-opacity="0.200000" d="M219.18,-175.11C248.1,-200.99 330.83,-275.01 364.98,-305.56"/>
<polygon fill="#000000" fill-opacity="0.200000" stroke="#000000" stroke-width="2" stroke-opacity="0.200000" points="363.78,-307.31 369.65,-309.74 366.58,-304.18 363.78,-307.31"/>
</g>
<!-- packages/tonal&#45;objects/src/interval/get.ts -->
<g id="node13" class="node">
<title>packages/tonal&#45;objects/src/interval/get.ts</title>
<g id="a_node13"><a xlink:href="packages/tonal-objects/src/interval/get.ts" xlink:title="get.ts">
<path fill="#ddfeff" stroke="black" d="M402,-358C402,-358 360,-358 360,-358 357,-358 354,-355 354,-352 354,-352 354,-346 354,-346 354,-343 357,-340 360,-340 360,-340 402,-340 402,-340 405,-340 408,-343 408,-346 408,-346 408,-352 408,-352 408,-355 405,-358 402,-358"/>
<text text-anchor="start" x="367.5" y="-346.8" font-family="Helvetica,sans-Serif" font-size="9.00">get.ts</text>
</a>
</g>
</g>
<!-- packages/music&#45;structure/chord/roman&#45;chord/src/get&#45;roman.ts&#45;&gt;packages/tonal&#45;objects/src/interval/get.ts -->
<g id="edge7" class="edge">
<title>packages/music&#45;structure/chord/roman&#45;chord/src/get&#45;roman.ts&#45;&gt;packages/tonal&#45;objects/src/interval/get.ts</title>
<path fill="none" stroke="#000000" stroke-width="2" stroke-opacity="0.200000" d="M217.48,-175.07C245.34,-204.89 334.18,-299.96 367.35,-335.46"/>
<polygon fill="#000000" fill-opacity="0.200000" stroke="#000000" stroke-width="2" stroke-opacity="0.200000" points="365.84,-336.92 371.47,-339.87 368.91,-334.05 365.84,-336.92"/>
</g>
<!-- packages/tonal&#45;objects/src/roman&#45;numeral/get.ts -->
<g id="node14" class="node">
<title>packages/tonal&#45;objects/src/roman&#45;numeral/get.ts</title>
<g id="a_node14"><a xlink:href="packages/tonal-objects/src/roman-numeral/get.ts" xlink:title="get.ts">
<path fill="#ddfeff" stroke="black" d="M402,-268C402,-268 360,-268 360,-268 357,-268 354,-265 354,-262 354,-262 354,-256 354,-256 354,-253 357,-250 360,-250 360,-250 402,-250 402,-250 405,-250 408,-253 408,-256 408,-256 408,-262 408,-262 408,-265 405,-268 402,-268"/>
<text text-anchor="start" x="367.5" y="-256.8" font-family="Helvetica,sans-Serif" font-size="9.00">get.ts</text>
</a>
</g>
</g>
<!-- packages/music&#45;structure/chord/roman&#45;chord/src/get&#45;roman.ts&#45;&gt;packages/tonal&#45;objects/src/roman&#45;numeral/get.ts -->
<g id="edge9" class="edge">
<title>packages/music&#45;structure/chord/roman&#45;chord/src/get&#45;roman.ts&#45;&gt;packages/tonal&#45;objects/src/roman&#45;numeral/get.ts</title>
<path fill="none" stroke="#000000" stroke-width="2" stroke-opacity="0.200000" d="M225.71,-175.09C256.74,-191.96 323.26,-228.14 357.94,-247"/>
<polygon fill="#000000" fill-opacity="0.200000" stroke="#000000" stroke-width="2" stroke-opacity="0.200000" points="356.95,-248.85 363.22,-249.88 358.96,-245.17 356.95,-248.85"/>
</g>
<!-- packages/tonal&#45;objects/src/interval/get.ts&#45;&gt;node_modules/@tonaljs/interval -->
<g id="edge17" class="edge">
<title>packages/tonal&#45;objects/src/interval/get.ts&#45;&gt;node_modules/@tonaljs/interval</title>
<path fill="none" stroke="#000000" stroke-opacity="0.200000" d="M394.16,-339.68C418.69,-320.88 474.18,-278.35 502.17,-256.9"/>
<polygon fill="#000000" fill-opacity="0.200000" stroke="#000000" stroke-opacity="0.200000" points="508.34,-254.81 502.3,-256.8 505.79,-251.48 508.34,-254.81"/>
</g>
<!-- packages/tonal&#45;objects/src/roman&#45;numeral/get.ts&#45;&gt;node_modules/@tonaljs/roman&#45;numeral -->
<g id="edge19" class="edge">
<title>packages/tonal&#45;objects/src/roman&#45;numeral/get.ts&#45;&gt;node_modules/@tonaljs/roman&#45;numeral</title>
<path fill="none" stroke="#000000" stroke-opacity="0.200000" d="M408.09,-250.43C430.13,-243.19 461.84,-232.78 485.71,-224.94"/>
<polygon fill="#000000" fill-opacity="0.200000" stroke="#000000" stroke-opacity="0.200000" points="492.25,-225 485.9,-224.87 490.94,-221.01 492.25,-225"/>
</g>
<!-- packages/music&#45;structure/chord/roman&#45;chord/src/roman&#45;chord.ts -->
<g id="node15" class="node">
<title>packages/music&#45;structure/chord/roman&#45;chord/src/roman&#45;chord.ts</title>
<g id="a_node15"><a xlink:href="packages/music-structure/chord/roman-chord/src/roman-chord.ts" xlink:title="roman&#45;chord.ts">
<path fill="#ddfeff" stroke="black" d="M128,-175C128,-175 54,-175 54,-175 51,-175 48,-172 48,-169 48,-169 48,-163 48,-163 48,-160 51,-157 54,-157 54,-157 128,-157 128,-157 131,-157 134,-160 134,-163 134,-163 134,-169 134,-169 134,-172 131,-175 128,-175"/>
<text text-anchor="start" x="56" y="-163.8" font-family="Helvetica,sans-Serif" font-size="9.00">roman&#45;chord.ts</text>
</a>
</g>
</g>
<!-- packages/music&#45;structure/chord/roman&#45;chord/src/roman&#45;chord.ts&#45;&gt;packages/music&#45;structure/chord/roman&#45;chord/src/convert&#45;to&#45;true&#45;tonic.ts -->
<g id="edge11" class="edge">
<title>packages/music&#45;structure/chord/roman&#45;chord/src/roman&#45;chord.ts&#45;&gt;packages/music&#45;structure/chord/roman&#45;chord/src/convert&#45;to&#45;true&#45;tonic.ts</title>
<path fill="none" stroke="#000000" stroke-width="2" stroke-opacity="0.200000" d="M126.5,-157C139.01,-153.74 153.26,-150.02 166.25,-146.63"/>
<polygon fill="#000000" fill-opacity="0.200000" stroke="#000000" stroke-width="2" stroke-opacity="0.200000" points="166.85,-148.64 172.12,-145.1 165.79,-144.58 166.85,-148.64"/>
</g>
<!-- packages/music&#45;structure/chord/roman&#45;chord/src/roman&#45;chord.ts&#45;&gt;packages/tonal&#45;objects/src/chord/chord.ts -->
<g id="edge13" class="edge">
<title>packages/music&#45;structure/chord/roman&#45;chord/src/roman&#45;chord.ts&#45;&gt;packages/tonal&#45;objects/src/chord/chord.ts</title>
<path fill="none" stroke="#000000" stroke-width="2" stroke-opacity="0.200000" d="M134.1,-161.99C192.32,-156.57 294.87,-147.02 347.6,-142.11"/>
<polygon fill="#000000" fill-opacity="0.200000" stroke="#000000" stroke-width="2" stroke-opacity="0.200000" points="348,-144.18 353.78,-141.53 347.61,-140 348,-144.18"/>
</g>
<!-- packages/music&#45;structure/chord/roman&#45;chord/src/roman&#45;chord.ts&#45;&gt;packages/tonal&#45;objects/src/scale/scale.ts -->
<g id="edge14" class="edge">
<title>packages/music&#45;structure/chord/roman&#45;chord/src/roman&#45;chord.ts&#45;&gt;packages/tonal&#45;objects/src/scale/scale.ts</title>
<path fill="none" stroke="#000000" stroke-width="2" stroke-opacity="0.200000" d="M134.1,-170.9C192.32,-177.53 294.87,-189.2 347.6,-195.2"/>
<polygon fill="#000000" fill-opacity="0.200000" stroke="#000000" stroke-width="2" stroke-opacity="0.200000" points="347.58,-197.31 353.78,-195.9 348.06,-193.14 347.58,-197.31"/>
</g>
<!-- packages/music&#45;structure/chord/roman&#45;chord/src/roman&#45;chord.ts&#45;&gt;packages/music&#45;structure/chord/roman&#45;chord/src/get&#45;roman.ts -->
<g id="edge12" class="edge">
<title>packages/music&#45;structure/chord/roman&#45;chord/src/roman&#45;chord.ts&#45;&gt;packages/music&#45;structure/chord/roman&#45;chord/src/get&#45;roman.ts</title>
<path fill="none" stroke="#000000" stroke-width="2" stroke-opacity="0.200000" d="M134.17,-166C143.94,-166 154.34,-166 164.14,-166"/>
<polygon fill="#000000" fill-opacity="0.200000" stroke="#000000" stroke-width="2" stroke-opacity="0.200000" points="164.15,-168.1 170.15,-166 164.15,-163.9 164.15,-168.1"/>
</g>
</g>
</svg>
