<?xml version="1.0" encoding="UTF-8" standalone="no"?>
<!DOCTYPE svg PUBLIC "-//W3C//DTD SVG 1.1//EN"
 "http://www.w3.org/Graphics/SVG/1.1/DTD/svg11.dtd">
<!-- Generated by graphviz version 2.43.0 (0)
 -->
<!-- Title: dependency&#45;cruiser output Pages: 1 -->
<svg width="481pt" height="242pt"
 viewBox="0.00 0.00 481.00 242.00" xmlns="http://www.w3.org/2000/svg" xmlns:xlink="http://www.w3.org/1999/xlink">
<g id="graph0" class="graph" transform="scale(1 1) rotate(0) translate(4 238)">
<title>dependency&#45;cruiser output</title>
<polygon fill="white" stroke="transparent" points="-4,4 -4,-238 477,-238 477,4 -4,4"/>
<g id="clust1" class="cluster">
<title>cluster_packages</title>
<path fill="#ffffff" stroke="black" stroke-width="2" d="M20,-8C20,-8 453,-8 453,-8 459,-8 465,-14 465,-20 465,-20 465,-214 465,-214 465,-220 459,-226 453,-226 453,-226 20,-226 20,-226 14,-226 8,-220 8,-214 8,-214 8,-20 8,-20 8,-14 14,-8 20,-8"/>
<text text-anchor="middle" x="236.5" y="-214.8" font-family="Helvetica,sans-Serif" font-weight="bold" font-size="9.00">packages</text>
</g>
<g id="clust2" class="cluster">
<title>cluster_packages/music&#45;structure</title>
<path fill="#ffffff" stroke="black" stroke-width="2" d="M28,-16C28,-16 351,-16 351,-16 357,-16 363,-22 363,-28 363,-28 363,-188 363,-188 363,-194 357,-200 351,-200 351,-200 28,-200 28,-200 22,-200 16,-194 16,-188 16,-188 16,-28 16,-28 16,-22 22,-16 28,-16"/>
<text text-anchor="middle" x="189.5" y="-188.8" font-family="Helvetica,sans-Serif" font-weight="bold" font-size="9.00">music&#45;structure</text>
</g>
<g id="clust3" class="cluster">
<title>cluster_packages/music&#45;structure/chord</title>
<path fill="#ffffff" stroke="black" stroke-width="2" d="M36,-24C36,-24 343,-24 343,-24 349,-24 355,-30 355,-36 355,-36 355,-162 355,-162 355,-168 349,-174 343,-174 343,-174 36,-174 36,-174 30,-174 24,-168 24,-162 24,-162 24,-36 24,-36 24,-30 30,-24 36,-24"/>
<text text-anchor="middle" x="189.5" y="-162.8" font-family="Helvetica,sans-Serif" font-weight="bold" font-size="9.00">chord</text>
</g>
<g id="clust4" class="cluster">
<title>cluster_packages/music&#45;structure/chord/roman&#45;chord</title>
<path fill="#ffffff" stroke="black" stroke-width="2" d="M44,-32C44,-32 335,-32 335,-32 341,-32 347,-38 347,-44 347,-44 347,-136 347,-136 347,-142 341,-148 335,-148 335,-148 44,-148 44,-148 38,-148 32,-142 32,-136 32,-136 32,-44 32,-44 32,-38 38,-32 44,-32"/>
<text text-anchor="middle" x="189.5" y="-136.8" font-family="Helvetica,sans-Serif" font-weight="bold" font-size="9.00">roman&#45;chord</text>
</g>
<g id="clust5" class="cluster">
<title>cluster_packages/music&#45;structure/chord/roman&#45;chord/src</title>
<path fill="#ffffff" stroke="black" stroke-width="2" d="M114,-40C114,-40 327,-40 327,-40 333,-40 339,-46 339,-52 339,-52 339,-110 339,-110 339,-116 333,-122 327,-122 327,-122 114,-122 114,-122 108,-122 102,-116 102,-110 102,-110 102,-52 102,-52 102,-46 108,-40 114,-40"/>
<text text-anchor="middle" x="220.5" y="-110.8" font-family="Helvetica,sans-Serif" font-weight="bold" font-size="9.00">src</text>
</g>
<g id="clust6" class="cluster">
<title>cluster_packages/tonal&#45;objects</title>
<path fill="#ffffff" stroke="black" stroke-width="2" d="M383,-62C383,-62 445,-62 445,-62 451,-62 457,-68 457,-74 457,-74 457,-136 457,-136 457,-142 451,-148 445,-148 445,-148 383,-148 383,-148 377,-148 371,-142 371,-136 371,-136 371,-74 371,-74 371,-68 377,-62 383,-62"/>
<text text-anchor="middle" x="414" y="-136.8" font-family="Helvetica,sans-Serif" font-weight="bold" font-size="9.00">tonal&#45;objects</text>
</g>
<g id="clust7" class="cluster">
<title>cluster_packages/tonal&#45;objects/dist</title>
<path fill="#ffffff" stroke="black" stroke-width="2" d="M391,-70C391,-70 437,-70 437,-70 443,-70 449,-76 449,-82 449,-82 449,-110 449,-110 449,-116 443,-122 437,-122 437,-122 391,-122 391,-122 385,-122 379,-116 379,-110 379,-110 379,-82 379,-82 379,-76 385,-70 391,-70"/>
<text text-anchor="middle" x="414" y="-110.8" font-family="Helvetica,sans-Serif" font-weight="bold" font-size="9.00">dist</text>
</g>
<!-- packages/music&#45;structure/chord/roman&#45;chord/index.ts -->
<g id="node1" class="node">
<title>packages/music&#45;structure/chord/roman&#45;chord/index.ts</title>
<g id="a_node1"><a xlink:href="packages/music-structure/chord/roman-chord/index.ts" xlink:title="index.ts">
<path fill="#ddfeff" stroke="black" d="M88,-96C88,-96 46,-96 46,-96 43,-96 40,-93 40,-90 40,-90 40,-84 40,-84 40,-81 43,-78 46,-78 46,-78 88,-78 88,-78 91,-78 94,-81 94,-84 94,-84 94,-90 94,-90 94,-93 91,-96 88,-96"/>
<text text-anchor="start" x="48.5" y="-84.8" font-family="Helvetica,sans-Serif" font-size="9.00">index.ts</text>
</a>
</g>
</g>
<!-- packages/music&#45;structure/chord/roman&#45;chord/src/roman&#45;chord.ts -->
<g id="node2" class="node">
<title>packages/music&#45;structure/chord/roman&#45;chord/src/roman&#45;chord.ts</title>
<g id="a_node2"><a xlink:href="packages/music-structure/chord/roman-chord/src/roman-chord.ts" xlink:title="roman&#45;chord.ts">
<path fill="#ddfeff" stroke="black" d="M190,-96C190,-96 116,-96 116,-96 113,-96 110,-93 110,-90 110,-90 110,-84 110,-84 110,-81 113,-78 116,-78 116,-78 190,-78 190,-78 193,-78 196,-81 196,-84 196,-84 196,-90 196,-90 196,-93 193,-96 190,-96"/>
<text text-anchor="start" x="118" y="-84.8" font-family="Helvetica,sans-Serif" font-size="9.00">roman&#45;chord.ts</text>
</a>
</g>
</g>
<!-- packages/music&#45;structure/chord/roman&#45;chord/index.ts&#45;&gt;packages/music&#45;structure/chord/roman&#45;chord/src/roman&#45;chord.ts -->
<g id="edge1" class="edge">
<title>packages/music&#45;structure/chord/roman&#45;chord/index.ts&#45;&gt;packages/music&#45;structure/chord/roman&#45;chord/src/roman&#45;chord.ts</title>
<path fill="none" stroke="#000000" stroke-width="2" stroke-opacity="0.200000" d="M94.12,-87C97.25,-87 100.52,-87 103.84,-87"/>
<polygon fill="#000000" fill-opacity="0.200000" stroke="#000000" stroke-width="2" stroke-opacity="0.200000" points="109.85,-89.1 103.85,-87 109.85,-84.9 109.85,-89.1"/>
</g>
<!-- packages/music&#45;structure/chord/roman&#45;chord/src/convert&#45;to&#45;true&#45;tonic.ts -->
<g id="node3" class="node">
<title>packages/music&#45;structure/chord/roman&#45;chord/src/convert&#45;to&#45;true&#45;tonic.ts</title>
<g id="a_node3"><a xlink:href="packages/music-structure/chord/roman-chord/src/convert-to-true-tonic.ts" xlink:title="convert&#45;to&#45;true&#45;tonic.ts">
<path fill="#ddfeff" stroke="black" d="M325,-66C325,-66 215,-66 215,-66 212,-66 209,-63 209,-60 209,-60 209,-54 209,-54 209,-51 212,-48 215,-48 215,-48 325,-48 325,-48 328,-48 331,-51 331,-54 331,-54 331,-60 331,-60 331,-63 328,-66 325,-66"/>
<text text-anchor="start" x="217" y="-54.8" font-family="Helvetica,sans-Serif" font-size="9.00">convert&#45;to&#45;true&#45;tonic.ts</text>
</a>
</g>
</g>
<!-- packages/music&#45;structure/chord/roman&#45;chord/src/roman&#45;chord.ts&#45;&gt;packages/music&#45;structure/chord/roman&#45;chord/src/convert&#45;to&#45;true&#45;tonic.ts -->
<g id="edge4" class="edge">
<title>packages/music&#45;structure/chord/roman&#45;chord/src/roman&#45;chord.ts&#45;&gt;packages/music&#45;structure/chord/roman&#45;chord/src/convert&#45;to&#45;true&#45;tonic.ts</title>
<path fill="none" stroke="#000000" stroke-width="2" stroke-opacity="0.200000" d="M188.5,-78C201.01,-74.74 215.26,-71.02 228.25,-67.63"/>
<polygon fill="#000000" fill-opacity="0.200000" stroke="#000000" stroke-width="2" stroke-opacity="0.200000" points="228.85,-69.64 234.12,-66.1 227.79,-65.58 228.85,-69.64"/>
</g>
<!-- packages/tonal&#45;objects/dist/index.js -->
<g id="node4" class="node">
<title>packages/tonal&#45;objects/dist/index.js</title>
<g id="a_node4"><a xlink:href="packages/tonal-objects/dist/index.js" xlink:title="index.js">
<polygon fill="#ffffcc" stroke="black" points="441,-96 439.5,-98 429,-98 427.5,-96 387,-96 387,-78 441,-78 441,-96"/>
<text text-anchor="start" x="396.5" y="-84.8" font-family="Helvetica,sans-Serif" font-size="9.00">index.js</text>
</a>
</g>
</g>
<!-- packages/music&#45;structure/chord/roman&#45;chord/src/roman&#45;chord.ts&#45;&gt;packages/tonal&#45;objects/dist/index.js -->
<g id="edge6" class="edge">
<title>packages/music&#45;structure/chord/roman&#45;chord/src/roman&#45;chord.ts&#45;&gt;packages/tonal&#45;objects/dist/index.js</title>
<path fill="none" stroke="#000000" stroke-width="2" stroke-opacity="0.200000" d="M196.1,-87C247.92,-87 333.78,-87 380.76,-87"/>
<polygon fill="#000000" fill-opacity="0.200000" stroke="#000000" stroke-width="2" stroke-opacity="0.200000" points="380.85,-89.1 386.85,-87 380.85,-84.9 380.85,-89.1"/>
</g>
<!-- packages/music&#45;structure/chord/roman&#45;chord/src/get&#45;roman.ts -->
<g id="node5" class="node">
<title>packages/music&#45;structure/chord/roman&#45;chord/src/get&#45;roman.ts</title>
<g id="a_node5"><a xlink:href="packages/music-structure/chord/roman-chord/src/get-roman.ts" xlink:title="get&#45;roman.ts">
<path fill="#ddfeff" stroke="black" d="M301.5,-96C301.5,-96 238.5,-96 238.5,-96 235.5,-96 232.5,-93 232.5,-90 232.5,-90 232.5,-84 232.5,-84 232.5,-81 235.5,-78 238.5,-78 238.5,-78 301.5,-78 301.5,-78 304.5,-78 307.5,-81 307.5,-84 307.5,-84 307.5,-90 307.5,-90 307.5,-93 304.5,-96 301.5,-96"/>
<text text-anchor="start" x="240.5" y="-84.8" font-family="Helvetica,sans-Serif" font-size="9.00">get&#45;roman.ts</text>
</a>
</g>
</g>
<!-- packages/music&#45;structure/chord/roman&#45;chord/src/roman&#45;chord.ts&#45;&gt;packages/music&#45;structure/chord/roman&#45;chord/src/get&#45;roman.ts -->
<g id="edge5" class="edge">
<title>packages/music&#45;structure/chord/roman&#45;chord/src/roman&#45;chord.ts&#45;&gt;packages/music&#45;structure/chord/roman&#45;chord/src/get&#45;roman.ts</title>
<path fill="none" stroke="#000000" stroke-width="2" stroke-opacity="0.200000" d="M196.17,-87C205.94,-87 216.34,-87 226.14,-87"/>
<polygon fill="#000000" fill-opacity="0.200000" stroke="#000000" stroke-width="2" stroke-opacity="0.200000" points="226.15,-89.1 232.15,-87 226.15,-84.9 226.15,-89.1"/>
</g>
<!-- packages/music&#45;structure/chord/roman&#45;chord/src/convert&#45;to&#45;true&#45;tonic.ts&#45;&gt;packages/tonal&#45;objects/dist/index.js -->
<g id="edge2" class="edge">
<title>packages/music&#45;structure/chord/roman&#45;chord/src/convert&#45;to&#45;true&#45;tonic.ts&#45;&gt;packages/tonal&#45;objects/dist/index.js</title>
<path fill="none" stroke="#000000" stroke-width="2" stroke-opacity="0.200000" d="M313.6,-66C335.22,-70.57 361.05,-76.02 380.95,-80.23"/>
<polygon fill="#000000" fill-opacity="0.200000" stroke="#000000" stroke-width="2" stroke-opacity="0.200000" points="380.62,-82.31 386.93,-81.49 381.49,-78.2 380.62,-82.31"/>
</g>
<!-- packages/music&#45;structure/chord/roman&#45;chord/src/get&#45;roman.ts&#45;&gt;packages/tonal&#45;objects/dist/index.js -->
<g id="edge3" class="edge">
<title>packages/music&#45;structure/chord/roman&#45;chord/src/get&#45;roman.ts&#45;&gt;packages/tonal&#45;objects/dist/index.js</title>
<path fill="none" stroke="#000000" stroke-width="2" stroke-opacity="0.200000" d="M307.57,-87C330.16,-87 358.88,-87 380.64,-87"/>
<polygon fill="#000000" fill-opacity="0.200000" stroke="#000000" stroke-width="2" stroke-opacity="0.200000" points="380.86,-89.1 386.86,-87 380.86,-84.9 380.86,-89.1"/>
</g>
</g>
</svg>
