<?xml version="1.0" encoding="UTF-8" standalone="no"?>
<!DOCTYPE svg PUBLIC "-//W3C//DTD SVG 1.1//EN"
 "http://www.w3.org/Graphics/SVG/1.1/DTD/svg11.dtd">
<!-- Generated by graphviz version 2.43.0 (0)
 -->
<!-- Title: dependency&#45;cruiser output Pages: 1 -->
<svg width="427pt" height="478pt"
 viewBox="0.00 0.00 427.00 478.00" xmlns="http://www.w3.org/2000/svg" xmlns:xlink="http://www.w3.org/1999/xlink">
<g id="graph0" class="graph" transform="scale(1 1) rotate(0) translate(4 474)">
<title>dependency&#45;cruiser output</title>
<polygon fill="white" stroke="transparent" points="-4,4 -4,-474 423,-474 423,4 -4,4"/>
<g id="clust1" class="cluster">
<title>cluster_node_modules</title>
<path fill="#ffffff" stroke="black" stroke-width="2" d="M305,-99C305,-99 399,-99 399,-99 405,-99 411,-105 411,-111 411,-111 411,-293 411,-293 411,-299 405,-305 399,-305 399,-305 305,-305 305,-305 299,-305 293,-299 293,-293 293,-293 293,-111 293,-111 293,-105 299,-99 305,-99"/>
<text text-anchor="middle" x="352" y="-293.8" font-family="Helvetica,sans-Serif" font-weight="bold" font-size="9.00">node_modules</text>
</g>
<g id="clust2" class="cluster">
<title>cluster_node_modules/@tonaljs</title>
<path fill="#ffffff" stroke="black" stroke-width="2" d="M313,-107C313,-107 391,-107 391,-107 397,-107 403,-113 403,-119 403,-119 403,-267 403,-267 403,-273 397,-279 391,-279 391,-279 313,-279 313,-279 307,-279 301,-273 301,-267 301,-267 301,-119 301,-119 301,-113 307,-107 313,-107"/>
<text text-anchor="middle" x="352" y="-267.8" font-family="Helvetica,sans-Serif" font-weight="bold" font-size="9.00">@tonaljs</text>
</g>
<g id="clust3" class="cluster">
<title>cluster_packages</title>
<path fill="#ffffff" stroke="black" stroke-width="2" d="M14,-8C14,-8 273,-8 273,-8 279,-8 285,-14 285,-20 285,-20 285,-450 285,-450 285,-456 279,-462 273,-462 273,-462 14,-462 14,-462 8,-462 2,-456 2,-450 2,-450 2,-20 2,-20 2,-14 8,-8 14,-8"/>
<text text-anchor="middle" x="143.5" y="-450.8" font-family="Helvetica,sans-Serif" font-weight="bold" font-size="9.00">packages</text>
</g>
<g id="clust4" class="cluster">
<title>cluster_packages/music&#45;structure</title>
<path fill="#ffffff" stroke="black" stroke-width="2" d="M22,-196C22,-196 113,-196 113,-196 119,-196 125,-202 125,-208 125,-208 125,-304 125,-304 125,-310 119,-316 113,-316 113,-316 22,-316 22,-316 16,-316 10,-310 10,-304 10,-304 10,-208 10,-208 10,-202 16,-196 22,-196"/>
<text text-anchor="middle" x="67.5" y="-304.8" font-family="Helvetica,sans-Serif" font-weight="bold" font-size="9.00">music&#45;structure</text>
</g>
<g id="clust5" class="cluster">
<title>cluster_packages/music&#45;structure/chord</title>
<path fill="#ffffff" stroke="black" stroke-width="2" d="M30,-204C30,-204 105,-204 105,-204 111,-204 117,-210 117,-216 117,-216 117,-278 117,-278 117,-284 111,-290 105,-290 105,-290 30,-290 30,-290 24,-290 18,-284 18,-278 18,-278 18,-216 18,-216 18,-210 24,-204 30,-204"/>
<text text-anchor="start" x="52.5" y="-278.8" font-family="Helvetica,sans-Serif" font-weight="bold" font-size="9.00">chord</text>
</g>
<g id="clust6" class="cluster">
<title>cluster_packages/music&#45;structure/chord/roman&#45;chord</title>
<path fill="#ffffff" stroke="black" stroke-width="2" d="M38,-212C38,-212 97,-212 97,-212 103,-212 109,-218 109,-224 109,-224 109,-252 109,-252 109,-258 103,-264 97,-264 97,-264 38,-264 38,-264 32,-264 26,-258 26,-252 26,-252 26,-224 26,-224 26,-218 32,-212 38,-212"/>
<text text-anchor="middle" x="67.5" y="-252.8" font-family="Helvetica,sans-Serif" font-weight="bold" font-size="9.00">roman&#45;chord</text>
</g>
<g id="clust7" class="cluster">
<title>cluster_packages/tonal&#45;objects</title>
<path fill="#ffffff" stroke="black" stroke-width="2" d="M161,-16C161,-16 265,-16 265,-16 271,-16 277,-22 277,-28 277,-28 277,-424 277,-424 277,-430 271,-436 265,-436 265,-436 161,-436 161,-436 155,-436 149,-430 149,-424 149,-424 149,-28 149,-28 149,-22 155,-16 161,-16"/>
<text text-anchor="middle" x="213" y="-424.8" font-family="Helvetica,sans-Serif" font-weight="bold" font-size="9.00">tonal&#45;objects</text>
</g>
<g id="clust8" class="cluster">
<title>cluster_packages/tonal&#45;objects/src</title>
<path fill="#ffffff" stroke="black" stroke-width="2" d="M169,-24C169,-24 257,-24 257,-24 263,-24 269,-30 269,-36 269,-36 269,-398 269,-398 269,-404 263,-410 257,-410 257,-410 169,-410 169,-410 163,-410 157,-404 157,-398 157,-398 157,-36 157,-36 157,-30 163,-24 169,-24"/>
<text text-anchor="middle" x="213" y="-398.8" font-family="Helvetica,sans-Serif" font-weight="bold" font-size="9.00">src</text>
</g>
<g id="clust9" class="cluster">
<title>cluster_packages/tonal&#45;objects/src/chord</title>
<path fill="#ffffff" stroke="black" stroke-width="2" d="M190,-302C190,-302 236,-302 236,-302 242,-302 248,-308 248,-314 248,-314 248,-372 248,-372 248,-378 242,-384 236,-384 236,-384 190,-384 190,-384 184,-384 178,-378 178,-372 178,-372 178,-314 178,-314 178,-308 184,-302 190,-302"/>
<text text-anchor="start" x="198" y="-372.8" font-family="Helvetica,sans-Serif" font-weight="bold" font-size="9.00">chord</text>
</g>
<g id="clust10" class="cluster">
<title>cluster_packages/tonal&#45;objects/src/interval</title>
<path fill="#ffffff" stroke="black" stroke-width="2" d="M184,-212C184,-212 242,-212 242,-212 248,-212 254,-218 254,-224 254,-224 254,-282 254,-282 254,-288 248,-294 242,-294 242,-294 184,-294 184,-294 178,-294 172,-288 172,-282 172,-282 172,-224 172,-224 172,-218 178,-212 184,-212"/>
<text text-anchor="start" x="193" y="-282.8" font-family="Helvetica,sans-Serif" font-weight="bold" font-size="9.00">interval</text>
</g>
<g id="clust11" class="cluster">
<title>cluster_packages/tonal&#45;objects/src/note</title>
<path fill="#ffffff" stroke="black" stroke-width="2" d="M186,-152C186,-152 240,-152 240,-152 246,-152 252,-158 252,-164 252,-164 252,-192 252,-192 252,-198 246,-204 240,-204 240,-204 186,-204 186,-204 180,-204 174,-198 174,-192 174,-192 174,-164 174,-164 174,-158 180,-152 186,-152"/>
<text text-anchor="start" x="201" y="-192.8" font-family="Helvetica,sans-Serif" font-weight="bold" font-size="9.00">note</text>
</g>
<g id="clust12" class="cluster">
<title>cluster_packages/tonal&#45;objects/src/roman&#45;numeral</title>
<path fill="#ffffff" stroke="black" stroke-width="2" d="M177,-92C177,-92 249,-92 249,-92 255,-92 261,-98 261,-104 261,-104 261,-132 261,-132 261,-138 255,-144 249,-144 249,-144 177,-144 177,-144 171,-144 165,-138 165,-132 165,-132 165,-104 165,-104 165,-98 171,-92 177,-92"/>
<text text-anchor="start" x="173" y="-132.8" font-family="Helvetica,sans-Serif" font-weight="bold" font-size="9.00">roman&#45;numeral</text>
</g>
<g id="clust13" class="cluster">
<title>cluster_packages/tonal&#45;objects/src/scale</title>
<path fill="#ffffff" stroke="black" stroke-width="2" d="M190,-32C190,-32 236,-32 236,-32 242,-32 248,-38 248,-44 248,-44 248,-72 248,-72 248,-78 242,-84 236,-84 236,-84 190,-84 190,-84 184,-84 178,-78 178,-72 178,-72 178,-44 178,-44 178,-38 184,-32 190,-32"/>
<text text-anchor="start" x="200" y="-72.8" font-family="Helvetica,sans-Serif" font-weight="bold" font-size="9.00">scale</text>
</g>
<!-- node_modules/@tonaljs/chord -->
<g id="node1" class="node">
<title>node_modules/@tonaljs/chord</title>
<g id="a_node1"><a xlink:href="https://www.npmjs.com/package/@tonaljs/chord" xlink:title="chord">
<polygon fill="#c40b0a" fill-opacity="0.101961" stroke="black" points="379,-253 327,-253 325,-251 325,-235 377,-235 379,-237 379,-253"/>
<polyline fill="none" stroke="black" points="377,-251 325,-251 "/>
<polyline fill="none" stroke="black" points="377,-251 377,-235 "/>
<polyline fill="none" stroke="black" points="377,-251 379,-253 "/>
<text text-anchor="start" x="338.5" y="-241.8" font-family="Helvetica,sans-Serif" font-size="9.00" fill="#c40b0a">chord</text>
</a>
</g>
</g>
<!-- node_modules/@tonaljs/interval -->
<g id="node2" class="node">
<title>node_modules/@tonaljs/interval</title>
<g id="a_node2"><a xlink:href="https://www.npmjs.com/package/@tonaljs/interval" xlink:title="interval">
<polygon fill="#c40b0a" fill-opacity="0.101961" stroke="black" points="379,-223 327,-223 325,-221 325,-205 377,-205 379,-207 379,-223"/>
<polyline fill="none" stroke="black" points="377,-221 325,-221 "/>
<polyline fill="none" stroke="black" points="377,-221 377,-205 "/>
<polyline fill="none" stroke="black" points="377,-221 379,-223 "/>
<text text-anchor="start" x="335" y="-211.8" font-family="Helvetica,sans-Serif" font-size="9.00" fill="#c40b0a">interval</text>
</a>
</g>
</g>
<!-- node_modules/@tonaljs/note -->
<g id="node3" class="node">
<title>node_modules/@tonaljs/note</title>
<g id="a_node3"><a xlink:href="https://www.npmjs.com/package/@tonaljs/note" xlink:title="note">
<polygon fill="#c40b0a" fill-opacity="0.101961" stroke="black" points="379,-193 327,-193 325,-191 325,-175 377,-175 379,-177 379,-193"/>
<polyline fill="none" stroke="black" points="377,-191 325,-191 "/>
<polyline fill="none" stroke="black" points="377,-191 377,-175 "/>
<polyline fill="none" stroke="black" points="377,-191 379,-193 "/>
<text text-anchor="start" x="341.5" y="-181.8" font-family="Helvetica,sans-Serif" font-size="9.00" fill="#c40b0a">note</text>
</a>
</g>
</g>
<!-- node_modules/@tonaljs/roman&#45;numeral -->
<g id="node4" class="node">
<title>node_modules/@tonaljs/roman&#45;numeral</title>
<g id="a_node4"><a xlink:href="https://www.npmjs.com/package/@tonaljs/roman-numeral" xlink:title="roman&#45;numeral">
<polygon fill="#c40b0a" fill-opacity="0.101961" stroke="black" points="395,-163 311,-163 309,-161 309,-145 393,-145 395,-147 395,-163"/>
<polyline fill="none" stroke="black" points="393,-161 309,-161 "/>
<polyline fill="none" stroke="black" points="393,-161 393,-145 "/>
<polyline fill="none" stroke="black" points="393,-161 395,-163 "/>
<text text-anchor="start" x="317" y="-151.8" font-family="Helvetica,sans-Serif" font-size="9.00" fill="#c40b0a">roman&#45;numeral</text>
</a>
</g>
</g>
<!-- node_modules/@tonaljs/scale -->
<g id="node5" class="node">
<title>node_modules/@tonaljs/scale</title>
<g id="a_node5"><a xlink:href="https://www.npmjs.com/package/@tonaljs/scale" xlink:title="scale">
<polygon fill="#c40b0a" fill-opacity="0.101961" stroke="black" points="379,-133 327,-133 325,-131 325,-115 377,-115 379,-117 379,-133"/>
<polyline fill="none" stroke="black" points="377,-131 325,-131 "/>
<polyline fill="none" stroke="black" points="377,-131 377,-115 "/>
<polyline fill="none" stroke="black" points="377,-131 379,-133 "/>
<text text-anchor="start" x="340.5" y="-121.8" font-family="Helvetica,sans-Serif" font-size="9.00" fill="#c40b0a">scale</text>
</a>
</g>
</g>
<!-- packages/music&#45;structure/chord/roman&#45;chord/index.ts -->
<g id="node6" class="node">
<title>packages/music&#45;structure/chord/roman&#45;chord/index.ts</title>
<g id="a_node6"><a xlink:href="packages/music-structure/chord/roman-chord/index.ts" xlink:title="index.ts">
<path fill="#ddfeff" stroke="black" d="M88,-238C88,-238 46,-238 46,-238 43,-238 40,-235 40,-232 40,-232 40,-226 40,-226 40,-223 43,-220 46,-220 46,-220 88,-220 88,-220 91,-220 94,-223 94,-226 94,-226 94,-232 94,-232 94,-235 91,-238 88,-238"/>
<text text-anchor="start" x="48.5" y="-226.8" font-family="Helvetica,sans-Serif" font-size="9.00">index.ts</text>
</a>
</g>
</g>
<!-- packages/tonal&#45;objects/src/chord/chord.ts -->
<g id="node7" class="node">
<title>packages/tonal&#45;objects/src/chord/chord.ts</title>
<g id="a_node7"><a xlink:href="packages/tonal-objects/src/chord/chord.ts" xlink:title="chord.ts">
<path fill="#ddfeff" stroke="black" d="M234,-358C234,-358 192,-358 192,-358 189,-358 186,-355 186,-352 186,-352 186,-346 186,-346 186,-343 189,-340 192,-340 192,-340 234,-340 234,-340 237,-340 240,-343 240,-346 240,-346 240,-352 240,-352 240,-355 237,-358 234,-358"/>
<text text-anchor="start" x="194" y="-346.8" font-family="Helvetica,sans-Serif" font-size="9.00">chord.ts</text>
</a>
</g>
</g>
<!-- packages/music&#45;structure/chord/roman&#45;chord/index.ts&#45;&gt;packages/tonal&#45;objects/src/chord/chord.ts -->
<g id="edge1" class="edge">
<title>packages/music&#45;structure/chord/roman&#45;chord/index.ts&#45;&gt;packages/tonal&#45;objects/src/chord/chord.ts</title>
<path fill="none" stroke="#000000" stroke-width="2" stroke-opacity="0.200000" d="M78.82,-238.02C104.05,-259.04 166.84,-311.37 196.29,-335.91"/>
<polygon fill="#000000" fill-opacity="0.200000" stroke="#000000" stroke-width="2" stroke-opacity="0.200000" points="195.1,-337.65 201.05,-339.88 197.79,-334.42 195.1,-337.65"/>
</g>
<!-- packages/tonal&#45;objects/src/chord/get.ts -->
<g id="node8" class="node">
<title>packages/tonal&#45;objects/src/chord/get.ts</title>
<g id="a_node8"><a xlink:href="packages/tonal-objects/src/chord/get.ts" xlink:title="get.ts">
<path fill="#ddfeff" stroke="black" d="M234,-328C234,-328 192,-328 192,-328 189,-328 186,-325 186,-322 186,-322 186,-316 186,-316 186,-313 189,-310 192,-310 192,-310 234,-310 234,-310 237,-310 240,-313 240,-316 240,-316 240,-322 240,-322 240,-325 237,-328 234,-328"/>
<text text-anchor="start" x="199.5" y="-316.8" font-family="Helvetica,sans-Serif" font-size="9.00">get.ts</text>
</a>
</g>
</g>
<!-- packages/music&#45;structure/chord/roman&#45;chord/index.ts&#45;&gt;packages/tonal&#45;objects/src/chord/get.ts -->
<g id="edge2" class="edge">
<title>packages/music&#45;structure/chord/roman&#45;chord/index.ts&#45;&gt;packages/tonal&#45;objects/src/chord/get.ts</title>
<path fill="none" stroke="#000000" stroke-width="2" stroke-opacity="0.200000" d="M82.6,-238.12C108.58,-254.36 162.87,-288.29 192.19,-306.62"/>
<polygon fill="#000000" fill-opacity="0.200000" stroke="#000000" stroke-width="2" stroke-opacity="0.200000" points="191.16,-308.45 197.36,-309.85 193.39,-304.89 191.16,-308.45"/>
</g>
<!-- packages/tonal&#45;objects/src/interval/distance.ts -->
<g id="node9" class="node">
<title>packages/tonal&#45;objects/src/interval/distance.ts</title>
<g id="a_node9"><a xlink:href="packages/tonal-objects/src/interval/distance.ts" xlink:title="distance.ts">
<polygon fill="#ddfeff" stroke="black" points="246,-268 244.5,-270 234,-270 232.5,-268 180,-268 180,-250 246,-250 246,-268"/>
<text text-anchor="start" x="188" y="-256.8" font-family="Helvetica,sans-Serif" font-size="9.00">distance.ts</text>
</a>
</g>
</g>
<!-- packages/music&#45;structure/chord/roman&#45;chord/index.ts&#45;&gt;packages/tonal&#45;objects/src/interval/distance.ts -->
<g id="edge3" class="edge">
<title>packages/music&#45;structure/chord/roman&#45;chord/index.ts&#45;&gt;packages/tonal&#45;objects/src/interval/distance.ts</title>
<path fill="none" stroke="#000000" stroke-width="2" stroke-opacity="0.200000" d="M94.08,-234.43C116.36,-239.08 148.72,-245.82 173.91,-251.06"/>
<polygon fill="#000000" fill-opacity="0.200000" stroke="#000000" stroke-width="2" stroke-opacity="0.200000" points="173.51,-253.13 179.82,-252.29 174.37,-249.02 173.51,-253.13"/>
</g>
<!-- packages/tonal&#45;objects/src/interval/get.ts -->
<g id="node10" class="node">
<title>packages/tonal&#45;objects/src/interval/get.ts</title>
<g id="a_node10"><a xlink:href="packages/tonal-objects/src/interval/get.ts" xlink:title="get.ts">
<path fill="#ddfeff" stroke="black" d="M234,-238C234,-238 192,-238 192,-238 189,-238 186,-235 186,-232 186,-232 186,-226 186,-226 186,-223 189,-220 192,-220 192,-220 234,-220 234,-220 237,-220 240,-223 240,-226 240,-226 240,-232 240,-232 240,-235 237,-238 234,-238"/>
<text text-anchor="start" x="199.5" y="-226.8" font-family="Helvetica,sans-Serif" font-size="9.00">get.ts</text>
</a>
</g>
</g>
<!-- packages/music&#45;structure/chord/roman&#45;chord/index.ts&#45;&gt;packages/tonal&#45;objects/src/interval/get.ts -->
<g id="edge4" class="edge">
<title>packages/music&#45;structure/chord/roman&#45;chord/index.ts&#45;&gt;packages/tonal&#45;objects/src/interval/get.ts</title>
<path fill="none" stroke="#000000" stroke-width="2" stroke-opacity="0.200000" d="M94.08,-229C118.09,-229 153.79,-229 179.62,-229"/>
<polygon fill="#000000" fill-opacity="0.200000" stroke="#000000" stroke-width="2" stroke-opacity="0.200000" points="179.63,-231.1 185.63,-229 179.63,-226.9 179.63,-231.1"/>
</g>
<!-- packages/tonal&#45;objects/src/note/chroma.ts -->
<g id="node11" class="node">
<title>packages/tonal&#45;objects/src/note/chroma.ts</title>
<g id="a_node11"><a xlink:href="packages/tonal-objects/src/note/chroma.ts" xlink:title="chroma.ts">
<path fill="#ddfeff" stroke="black" d="M238,-178C238,-178 188,-178 188,-178 185,-178 182,-175 182,-172 182,-172 182,-166 182,-166 182,-163 185,-160 188,-160 188,-160 238,-160 238,-160 241,-160 244,-163 244,-166 244,-166 244,-172 244,-172 244,-175 241,-178 238,-178"/>
<text text-anchor="start" x="190" y="-166.8" font-family="Helvetica,sans-Serif" font-size="9.00">chroma.ts</text>
</a>
</g>
</g>
<!-- packages/music&#45;structure/chord/roman&#45;chord/index.ts&#45;&gt;packages/tonal&#45;objects/src/note/chroma.ts -->
<g id="edge5" class="edge">
<title>packages/music&#45;structure/chord/roman&#45;chord/index.ts&#45;&gt;packages/tonal&#45;objects/src/note/chroma.ts</title>
<path fill="none" stroke="#000000" stroke-width="2" stroke-opacity="0.200000" d="M89.87,-219.89C115.29,-209.3 157.24,-191.81 184.76,-180.35"/>
<polygon fill="#000000" fill-opacity="0.200000" stroke="#000000" stroke-width="2" stroke-opacity="0.200000" points="185.66,-182.25 190.4,-178 184.05,-178.37 185.66,-182.25"/>
</g>
<!-- packages/tonal&#45;objects/src/roman&#45;numeral/get.ts -->
<g id="node12" class="node">
<title>packages/tonal&#45;objects/src/roman&#45;numeral/get.ts</title>
<g id="a_node12"><a xlink:href="packages/tonal-objects/src/roman-numeral/get.ts" xlink:title="get.ts">
<path fill="#ddfeff" stroke="black" d="M234,-118C234,-118 192,-118 192,-118 189,-118 186,-115 186,-112 186,-112 186,-106 186,-106 186,-103 189,-100 192,-100 192,-100 234,-100 234,-100 237,-100 240,-103 240,-106 240,-106 240,-112 240,-112 240,-115 237,-118 234,-118"/>
<text text-anchor="start" x="199.5" y="-106.8" font-family="Helvetica,sans-Serif" font-size="9.00">get.ts</text>
</a>
</g>
</g>
<!-- packages/music&#45;structure/chord/roman&#45;chord/index.ts&#45;&gt;packages/tonal&#45;objects/src/roman&#45;numeral/get.ts -->
<g id="edge6" class="edge">
<title>packages/music&#45;structure/chord/roman&#45;chord/index.ts&#45;&gt;packages/tonal&#45;objects/src/roman&#45;numeral/get.ts</title>
<path fill="none" stroke="#000000" stroke-width="2" stroke-opacity="0.200000" d="M78.82,-219.98C104.05,-198.96 166.84,-146.63 196.29,-122.09"/>
<polygon fill="#000000" fill-opacity="0.200000" stroke="#000000" stroke-width="2" stroke-opacity="0.200000" points="197.79,-123.58 201.05,-118.12 195.1,-120.35 197.79,-123.58"/>
</g>
<!-- packages/tonal&#45;objects/src/scale/scale.ts -->
<g id="node13" class="node">
<title>packages/tonal&#45;objects/src/scale/scale.ts</title>
<g id="a_node13"><a xlink:href="packages/tonal-objects/src/scale/scale.ts" xlink:title="scale.ts">
<path fill="#ddfeff" stroke="black" d="M234,-58C234,-58 192,-58 192,-58 189,-58 186,-55 186,-52 186,-52 186,-46 186,-46 186,-43 189,-40 192,-40 192,-40 234,-40 234,-40 237,-40 240,-43 240,-46 240,-46 240,-52 240,-52 240,-55 237,-58 234,-58"/>
<text text-anchor="start" x="196" y="-46.8" font-family="Helvetica,sans-Serif" font-size="9.00">scale.ts</text>
</a>
</g>
</g>
<!-- packages/music&#45;structure/chord/roman&#45;chord/index.ts&#45;&gt;packages/tonal&#45;objects/src/scale/scale.ts -->
<g id="edge7" class="edge">
<title>packages/music&#45;structure/chord/roman&#45;chord/index.ts&#45;&gt;packages/tonal&#45;objects/src/scale/scale.ts</title>
<path fill="none" stroke="#000000" stroke-width="2" stroke-opacity="0.200000" d="M75.34,-219.83C98.83,-190.46 172.28,-98.65 200.65,-63.18"/>
<polygon fill="#000000" fill-opacity="0.200000" stroke="#000000" stroke-width="2" stroke-opacity="0.200000" points="202.39,-64.37 204.5,-58.37 199.12,-61.74 202.39,-64.37"/>
</g>
<!-- packages/tonal&#45;objects/src/chord/chord.ts&#45;&gt;node_modules/@tonaljs/chord -->
<g id="edge8" class="edge">
<title>packages/tonal&#45;objects/src/chord/chord.ts&#45;&gt;node_modules/@tonaljs/chord</title>
<path fill="none" stroke="#000000" stroke-opacity="0.200000" d="M226.16,-339.68C250.69,-320.88 306.18,-278.35 334.17,-256.9"/>
<polygon fill="none" stroke="#000000" stroke-opacity="0.200000" points="335.58,-258.46 339.07,-253.15 333.03,-255.13 335.58,-258.46"/>
</g>
<!-- packages/tonal&#45;objects/src/chord/get.ts&#45;&gt;node_modules/@tonaljs/chord -->
<g id="edge9" class="edge">
<title>packages/tonal&#45;objects/src/chord/get.ts&#45;&gt;node_modules/@tonaljs/chord</title>
<path fill="none" stroke="#000000" stroke-opacity="0.200000" d="M230.53,-309.95C255.11,-296.5 301.36,-271.18 328.85,-256.13"/>
<polygon fill="#000000" fill-opacity="0.200000" stroke="#000000" stroke-opacity="0.200000" points="335.42,-254.92 329.15,-255.96 333.41,-251.24 335.42,-254.92"/>
</g>
<!-- packages/tonal&#45;objects/src/interval/get.ts&#45;&gt;node_modules/@tonaljs/interval -->
<g id="edge10" class="edge">
<title>packages/tonal&#45;objects/src/interval/get.ts&#45;&gt;node_modules/@tonaljs/interval</title>
<path fill="none" stroke="#000000" stroke-opacity="0.200000" d="M240.09,-226.14C262.33,-223.71 294.39,-220.2 318.33,-217.58"/>
<polygon fill="#000000" fill-opacity="0.200000" stroke="#000000" stroke-opacity="0.200000" points="324.77,-218.98 318.58,-217.55 324.31,-214.81 324.77,-218.98"/>
</g>
<!-- packages/tonal&#45;objects/src/note/chroma.ts&#45;&gt;node_modules/@tonaljs/note -->
<g id="edge11" class="edge">
<title>packages/tonal&#45;objects/src/note/chroma.ts&#45;&gt;node_modules/@tonaljs/note</title>
<path fill="none" stroke="#000000" stroke-opacity="0.200000" d="M244.07,-172.29C266.1,-174.7 295.97,-177.97 318.54,-180.45"/>
<polygon fill="#000000" fill-opacity="0.200000" stroke="#000000" stroke-opacity="0.200000" points="324.47,-183.21 318.74,-180.47 324.93,-179.03 324.47,-183.21"/>
</g>
<!-- packages/tonal&#45;objects/src/roman&#45;numeral/get.ts&#45;&gt;node_modules/@tonaljs/roman&#45;numeral -->
<g id="edge12" class="edge">
<title>packages/tonal&#45;objects/src/roman&#45;numeral/get.ts&#45;&gt;node_modules/@tonaljs/roman&#45;numeral</title>
<path fill="none" stroke="#000000" stroke-opacity="0.200000" d="M240.09,-117.57C262.13,-124.81 293.84,-135.22 317.71,-143.06"/>
<polygon fill="#000000" fill-opacity="0.200000" stroke="#000000" stroke-opacity="0.200000" points="322.94,-146.99 317.9,-143.13 324.25,-143 322.94,-146.99"/>
</g>
<!-- packages/tonal&#45;objects/src/scale/scale.ts&#45;&gt;node_modules/@tonaljs/scale -->
<g id="edge13" class="edge">
<title>packages/tonal&#45;objects/src/scale/scale.ts&#45;&gt;node_modules/@tonaljs/scale</title>
<path fill="none" stroke="#000000" stroke-opacity="0.200000" d="M230.53,-58.05C255.11,-71.5 301.36,-96.82 328.85,-111.87"/>
<polygon fill="none" stroke="#000000" stroke-opacity="0.200000" points="328.14,-113.88 334.42,-114.92 330.16,-110.2 328.14,-113.88"/>
</g>
</g>
</svg>
