<?xml version="1.0" encoding="UTF-8" standalone="no"?>
<!DOCTYPE svg PUBLIC "-//W3C//DTD SVG 1.1//EN"
 "http://www.w3.org/Graphics/SVG/1.1/DTD/svg11.dtd">
<!-- Generated by graphviz version 2.43.0 (0)
 -->
<!-- Title: dependency&#45;cruiser output Pages: 1 -->
<svg width="481pt" height="272pt"
 viewBox="0.00 0.00 481.00 272.00" xmlns="http://www.w3.org/2000/svg" xmlns:xlink="http://www.w3.org/1999/xlink">
<g id="graph0" class="graph" transform="scale(1 1) rotate(0) translate(4 268)">
<title>dependency&#45;cruiser output</title>
<polygon fill="white" stroke="transparent" points="-4,4 -4,-268 477,-268 477,4 -4,4"/>
<g id="clust1" class="cluster">
<title>cluster_packages</title>
<path fill="#ffffff" stroke="black" stroke-width="2" d="M20,-8C20,-8 453,-8 453,-8 459,-8 465,-14 465,-20 465,-20 465,-244 465,-244 465,-250 459,-256 453,-256 453,-256 20,-256 20,-256 14,-256 8,-250 8,-244 8,-244 8,-20 8,-20 8,-14 14,-8 20,-8"/>
<text text-anchor="middle" x="236.5" y="-244.8" font-family="Helvetica,sans-Serif" font-weight="bold" font-size="9.00">packages</text>
</g>
<g id="clust2" class="cluster">
<title>cluster_packages/music&#45;structure</title>
<path fill="#ffffff" stroke="black" stroke-width="2" d="M28,-16C28,-16 351,-16 351,-16 357,-16 363,-22 363,-28 363,-28 363,-218 363,-218 363,-224 357,-230 351,-230 351,-230 28,-230 28,-230 22,-230 16,-224 16,-218 16,-218 16,-28 16,-28 16,-22 22,-16 28,-16"/>
<text text-anchor="middle" x="189.5" y="-218.8" font-family="Helvetica,sans-Serif" font-weight="bold" font-size="9.00">music&#45;structure</text>
</g>
<g id="clust3" class="cluster">
<title>cluster_packages/music&#45;structure/chord</title>
<path fill="#ffffff" stroke="black" stroke-width="2" d="M36,-24C36,-24 343,-24 343,-24 349,-24 355,-30 355,-36 355,-36 355,-192 355,-192 355,-198 349,-204 343,-204 343,-204 36,-204 36,-204 30,-204 24,-198 24,-192 24,-192 24,-36 24,-36 24,-30 30,-24 36,-24"/>
<text text-anchor="middle" x="189.5" y="-192.8" font-family="Helvetica,sans-Serif" font-weight="bold" font-size="9.00">chord</text>
</g>
<g id="clust4" class="cluster">
<title>cluster_packages/music&#45;structure/chord/roman&#45;chord</title>
<path fill="#ffffff" stroke="black" stroke-width="2" d="M44,-32C44,-32 335,-32 335,-32 341,-32 347,-38 347,-44 347,-44 347,-166 347,-166 347,-172 341,-178 335,-178 335,-178 44,-178 44,-178 38,-178 32,-172 32,-166 32,-166 32,-44 32,-44 32,-38 38,-32 44,-32"/>
<text text-anchor="middle" x="189.5" y="-166.8" font-family="Helvetica,sans-Serif" font-weight="bold" font-size="9.00">roman&#45;chord</text>
</g>
<g id="clust5" class="cluster">
<title>cluster_packages/music&#45;structure/chord/roman&#45;chord/src</title>
<path fill="#ffffff" stroke="black" stroke-width="2" d="M114,-40C114,-40 327,-40 327,-40 333,-40 339,-46 339,-52 339,-52 339,-140 339,-140 339,-146 333,-152 327,-152 327,-152 114,-152 114,-152 108,-152 102,-146 102,-140 102,-140 102,-52 102,-52 102,-46 108,-40 114,-40"/>
<text text-anchor="middle" x="220.5" y="-140.8" font-family="Helvetica,sans-Serif" font-weight="bold" font-size="9.00">src</text>
</g>
<g id="clust6" class="cluster">
<title>cluster_packages/music&#45;structure/chord/roman&#45;chord/src/facade</title>
<path fill="#ffffff" stroke="black" stroke-width="2" d="M130,-74C130,-74 176,-74 176,-74 182,-74 188,-80 188,-86 188,-86 188,-114 188,-114 188,-120 182,-126 176,-126 176,-126 130,-126 130,-126 124,-126 118,-120 118,-114 118,-114 118,-86 118,-86 118,-80 124,-74 130,-74"/>
<text text-anchor="middle" x="153" y="-114.8" font-family="Helvetica,sans-Serif" font-weight="bold" font-size="9.00">facade</text>
</g>
<g id="clust7" class="cluster">
<title>cluster_packages/tonal&#45;objects</title>
<path fill="#ffffff" stroke="black" stroke-width="2" d="M383,-73C383,-73 445,-73 445,-73 451,-73 457,-79 457,-85 457,-85 457,-147 457,-147 457,-153 451,-159 445,-159 445,-159 383,-159 383,-159 377,-159 371,-153 371,-147 371,-147 371,-85 371,-85 371,-79 377,-73 383,-73"/>
<text text-anchor="middle" x="414" y="-147.8" font-family="Helvetica,sans-Serif" font-weight="bold" font-size="9.00">tonal&#45;objects</text>
</g>
<g id="clust8" class="cluster">
<title>cluster_packages/tonal&#45;objects/dist</title>
<path fill="#ffffff" stroke="black" stroke-width="2" d="M391,-81C391,-81 437,-81 437,-81 443,-81 449,-87 449,-93 449,-93 449,-121 449,-121 449,-127 443,-133 437,-133 437,-133 391,-133 391,-133 385,-133 379,-127 379,-121 379,-121 379,-93 379,-93 379,-87 385,-81 391,-81"/>
<text text-anchor="middle" x="414" y="-121.8" font-family="Helvetica,sans-Serif" font-weight="bold" font-size="9.00">dist</text>
</g>
<!-- packages/music&#45;structure/chord/roman&#45;chord/index.ts -->
<g id="node1" class="node">
<title>packages/music&#45;structure/chord/roman&#45;chord/index.ts</title>
<g id="a_node1"><a xlink:href="packages/music-structure/chord/roman-chord/index.ts" xlink:title="index.ts">
<path fill="#ddfeff" stroke="black" d="M88,-66C88,-66 46,-66 46,-66 43,-66 40,-63 40,-60 40,-60 40,-54 40,-54 40,-51 43,-48 46,-48 46,-48 88,-48 88,-48 91,-48 94,-51 94,-54 94,-54 94,-60 94,-60 94,-63 91,-66 88,-66"/>
<text text-anchor="start" x="48.5" y="-54.8" font-family="Helvetica,sans-Serif" font-size="9.00">index.ts</text>
</a>
</g>
</g>
<!-- packages/music&#45;structure/chord/roman&#45;chord/src/roman&#45;chord.ts -->
<g id="node2" class="node">
<title>packages/music&#45;structure/chord/roman&#45;chord/src/roman&#45;chord.ts</title>
<g id="a_node2"><a xlink:href="packages/music-structure/chord/roman-chord/src/roman-chord.ts" xlink:title="roman&#45;chord.ts">
<path fill="#ddfeff" stroke="black" d="M190,-66C190,-66 116,-66 116,-66 113,-66 110,-63 110,-60 110,-60 110,-54 110,-54 110,-51 113,-48 116,-48 116,-48 190,-48 190,-48 193,-48 196,-51 196,-54 196,-54 196,-60 196,-60 196,-63 193,-66 190,-66"/>
<text text-anchor="start" x="118" y="-54.8" font-family="Helvetica,sans-Serif" font-size="9.00">roman&#45;chord.ts</text>
</a>
</g>
</g>
<!-- packages/music&#45;structure/chord/roman&#45;chord/index.ts&#45;&gt;packages/music&#45;structure/chord/roman&#45;chord/src/roman&#45;chord.ts -->
<g id="edge1" class="edge">
<title>packages/music&#45;structure/chord/roman&#45;chord/index.ts&#45;&gt;packages/music&#45;structure/chord/roman&#45;chord/src/roman&#45;chord.ts</title>
<path fill="none" stroke="#000000" stroke-width="2" stroke-opacity="0.200000" d="M94.12,-57C97.25,-57 100.52,-57 103.84,-57"/>
<polygon fill="#000000" fill-opacity="0.200000" stroke="#000000" stroke-width="2" stroke-opacity="0.200000" points="109.85,-59.1 103.85,-57 109.85,-54.9 109.85,-59.1"/>
</g>
<!-- packages/music&#45;structure/chord/roman&#45;chord/src/convert&#45;to&#45;true&#45;tonic.ts -->
<g id="node3" class="node">
<title>packages/music&#45;structure/chord/roman&#45;chord/src/convert&#45;to&#45;true&#45;tonic.ts</title>
<g id="a_node3"><a xlink:href="packages/music-structure/chord/roman-chord/src/convert-to-true-tonic.ts" xlink:title="convert&#45;to&#45;true&#45;tonic.ts">
<path fill="#ddfeff" stroke="black" d="M325,-66C325,-66 215,-66 215,-66 212,-66 209,-63 209,-60 209,-60 209,-54 209,-54 209,-51 212,-48 215,-48 215,-48 325,-48 325,-48 328,-48 331,-51 331,-54 331,-54 331,-60 331,-60 331,-63 328,-66 325,-66"/>
<text text-anchor="start" x="217" y="-54.8" font-family="Helvetica,sans-Serif" font-size="9.00">convert&#45;to&#45;true&#45;tonic.ts</text>
</a>
</g>
</g>
<!-- packages/music&#45;structure/chord/roman&#45;chord/src/roman&#45;chord.ts&#45;&gt;packages/music&#45;structure/chord/roman&#45;chord/src/convert&#45;to&#45;true&#45;tonic.ts -->
<g id="edge5" class="edge">
<title>packages/music&#45;structure/chord/roman&#45;chord/src/roman&#45;chord.ts&#45;&gt;packages/music&#45;structure/chord/roman&#45;chord/src/convert&#45;to&#45;true&#45;tonic.ts</title>
<path fill="none" stroke="#000000" stroke-width="2" stroke-opacity="0.200000" d="M196.17,-57C198.22,-57 200.3,-57 202.4,-57"/>
<polygon fill="#000000" fill-opacity="0.200000" stroke="#000000" stroke-width="2" stroke-opacity="0.200000" points="202.72,-59.1 208.72,-57 202.72,-54.9 202.72,-59.1"/>
</g>
<!-- packages/tonal&#45;objects/dist/index.js -->
<g id="node4" class="node">
<title>packages/tonal&#45;objects/dist/index.js</title>
<g id="a_node4"><a xlink:href="packages/tonal-objects/dist/index.js" xlink:title="index.js">
<polygon fill="#ffffcc" stroke="black" points="441,-107 439.5,-109 429,-109 427.5,-107 387,-107 387,-89 441,-89 441,-107"/>
<text text-anchor="start" x="396.5" y="-95.8" font-family="Helvetica,sans-Serif" font-size="9.00">index.js</text>
</a>
</g>
</g>
<!-- packages/music&#45;structure/chord/roman&#45;chord/src/roman&#45;chord.ts&#45;&gt;packages/tonal&#45;objects/dist/index.js -->
<g id="edge7" class="edge">
<title>packages/music&#45;structure/chord/roman&#45;chord/src/roman&#45;chord.ts&#45;&gt;packages/tonal&#45;objects/dist/index.js</title>
<path fill="none" stroke="#000000" stroke-width="2" stroke-opacity="0.200000" d="M181.31,-66.1C189.33,-68.78 196,-71 196,-71 196,-71 209,-102 209,-102 209,-102 363,-102 363,-102 363,-102 371.04,-101.36 380.68,-100.59"/>
<polygon fill="#000000" fill-opacity="0.200000" stroke="#000000" stroke-width="2" stroke-opacity="0.200000" points="381.02,-102.67 386.83,-100.09 380.68,-98.48 381.02,-102.67"/>
</g>
<!-- packages/music&#45;structure/chord/roman&#45;chord/src/get&#45;roman.ts -->
<g id="node6" class="node">
<title>packages/music&#45;structure/chord/roman&#45;chord/src/get&#45;roman.ts</title>
<g id="a_node6"><a xlink:href="packages/music-structure/chord/roman-chord/src/get-roman.ts" xlink:title="get&#45;roman.ts">
<path fill="#ddfeff" stroke="black" d="M301.5,-96C301.5,-96 238.5,-96 238.5,-96 235.5,-96 232.5,-93 232.5,-90 232.5,-90 232.5,-84 232.5,-84 232.5,-81 235.5,-78 238.5,-78 238.5,-78 301.5,-78 301.5,-78 304.5,-78 307.5,-81 307.5,-84 307.5,-84 307.5,-90 307.5,-90 307.5,-93 304.5,-96 301.5,-96"/>
<text text-anchor="start" x="240.5" y="-84.8" font-family="Helvetica,sans-Serif" font-size="9.00">get&#45;roman.ts</text>
</a>
</g>
</g>
<!-- packages/music&#45;structure/chord/roman&#45;chord/src/roman&#45;chord.ts&#45;&gt;packages/music&#45;structure/chord/roman&#45;chord/src/get&#45;roman.ts -->
<g id="edge6" class="edge">
<title>packages/music&#45;structure/chord/roman&#45;chord/src/roman&#45;chord.ts&#45;&gt;packages/music&#45;structure/chord/roman&#45;chord/src/get&#45;roman.ts</title>
<path fill="none" stroke="#000000" stroke-width="2" stroke-opacity="0.200000" d="M187.26,-66.07C198.85,-69.23 209,-72 209,-72 209,-72 216.74,-73.94 226.66,-76.42"/>
<polygon fill="#000000" fill-opacity="0.200000" stroke="#000000" stroke-width="2" stroke-opacity="0.200000" points="226.38,-78.51 232.71,-77.93 227.4,-74.44 226.38,-78.51"/>
</g>
<!-- packages/music&#45;structure/chord/roman&#45;chord/src/convert&#45;to&#45;true&#45;tonic.ts&#45;&gt;packages/tonal&#45;objects/dist/index.js -->
<g id="edge2" class="edge">
<title>packages/music&#45;structure/chord/roman&#45;chord/src/convert&#45;to&#45;true&#45;tonic.ts&#45;&gt;packages/tonal&#45;objects/dist/index.js</title>
<path fill="none" stroke="#000000" stroke-width="2" stroke-opacity="0.200000" d="M326.37,-66.03C345.86,-69.21 363,-72 363,-72 363,-72 376.85,-79.2 389.98,-86.03"/>
<polygon fill="#000000" fill-opacity="0.200000" stroke="#000000" stroke-width="2" stroke-opacity="0.200000" points="389.22,-88 395.51,-88.91 391.16,-84.28 389.22,-88"/>
</g>
<!-- packages/music&#45;structure/chord/roman&#45;chord/src/facade/index.ts -->
<g id="node5" class="node">
<title>packages/music&#45;structure/chord/roman&#45;chord/src/facade/index.ts</title>
<g id="a_node5"><a xlink:href="packages/music-structure/chord/roman-chord/src/facade/index.ts" xlink:title="index.ts">
<path fill="#ddfeff" stroke="black" d="M174,-100C174,-100 132,-100 132,-100 129,-100 126,-97 126,-94 126,-94 126,-88 126,-88 126,-85 129,-82 132,-82 132,-82 174,-82 174,-82 177,-82 180,-85 180,-88 180,-88 180,-94 180,-94 180,-97 177,-100 174,-100"/>
<text text-anchor="start" x="134.5" y="-88.8" font-family="Helvetica,sans-Serif" font-size="9.00">index.ts</text>
</a>
</g>
</g>
<!-- packages/music&#45;structure/chord/roman&#45;chord/src/facade/index.ts&#45;&gt;packages/tonal&#45;objects/dist/index.js -->
<g id="edge3" class="edge">
<title>packages/music&#45;structure/chord/roman&#45;chord/src/facade/index.ts&#45;&gt;packages/tonal&#45;objects/dist/index.js</title>
<path fill="none" stroke="#000000" stroke-width="2" stroke-opacity="0.200000" d="M172.62,-100.14C188.58,-107.97 209,-118 209,-118 209,-118 363,-118 363,-118 363,-118 373.42,-113.83 384.75,-109.3"/>
<polygon fill="#000000" fill-opacity="0.200000" stroke="#000000" stroke-width="2" stroke-opacity="0.200000" points="391.12,-109.01 384.77,-109.29 389.56,-105.11 391.12,-109.01"/>
</g>
<!-- packages/music&#45;structure/chord/roman&#45;chord/src/get&#45;roman.ts&#45;&gt;packages/tonal&#45;objects/dist/index.js -->
<g id="edge4" class="edge">
<title>packages/music&#45;structure/chord/roman&#45;chord/src/get&#45;roman.ts&#45;&gt;packages/tonal&#45;objects/dist/index.js</title>
<path fill="none" stroke="#000000" stroke-width="2" stroke-opacity="0.200000" d="M307.57,-89.83C330.16,-91.58 358.88,-93.81 380.64,-95.49"/>
<polygon fill="#000000" fill-opacity="0.200000" stroke="#000000" stroke-width="2" stroke-opacity="0.200000" points="380.72,-97.61 386.86,-95.98 381.04,-93.42 380.72,-97.61"/>
</g>
</g>
</svg>
