<?xml version="1.0" encoding="UTF-8" standalone="no"?>
<!DOCTYPE svg PUBLIC "-//W3C//DTD SVG 1.1//EN"
 "http://www.w3.org/Graphics/SVG/1.1/DTD/svg11.dtd">
<!-- Generated by graphviz version 2.43.0 (0)
 -->
<!-- Title: dependency&#45;cruiser output Pages: 1 -->
<svg width="703pt" height="574pt"
 viewBox="0.00 0.00 703.00 574.00" xmlns="http://www.w3.org/2000/svg" xmlns:xlink="http://www.w3.org/1999/xlink">
<g id="graph0" class="graph" transform="scale(1 1) rotate(0) translate(4 570)">
<title>dependency&#45;cruiser output</title>
<polygon fill="white" stroke="transparent" points="-4,4 -4,-570 699,-570 699,4 -4,4"/>
<g id="clust1" class="cluster">
<title>cluster_packages</title>
<path fill="#ffffff" stroke="black" stroke-width="2" d="M20,-8C20,-8 675,-8 675,-8 681,-8 687,-14 687,-20 687,-20 687,-546 687,-546 687,-552 681,-558 675,-558 675,-558 20,-558 20,-558 14,-558 8,-552 8,-546 8,-546 8,-20 8,-20 8,-14 14,-8 20,-8"/>
<text text-anchor="middle" x="347.5" y="-546.8" font-family="Helvetica,sans-Serif" font-weight="bold" font-size="9.00">packages</text>
</g>
<g id="clust2" class="cluster">
<title>cluster_packages/cognitive&#45;theory&#45;of&#45;music</title>
<path fill="#ffffff" stroke="black" stroke-width="2" d="M28,-16C28,-16 557,-16 557,-16 563,-16 569,-22 569,-28 569,-28 569,-334 569,-334 569,-340 563,-346 557,-346 557,-346 28,-346 28,-346 22,-346 16,-340 16,-334 16,-334 16,-28 16,-28 16,-22 22,-16 28,-16"/>
<text text-anchor="middle" x="292.5" y="-334.8" font-family="Helvetica,sans-Serif" font-weight="bold" font-size="9.00">cognitive&#45;theory&#45;of&#45;music</text>
</g>
<g id="clust3" class="cluster">
<title>cluster_packages/cognitive&#45;theory&#45;of&#45;music/tonal&#45;pitch&#45;space</title>
<path fill="#ffffff" stroke="black" stroke-width="2" d="M36,-24C36,-24 549,-24 549,-24 555,-24 561,-30 561,-36 561,-36 561,-308 561,-308 561,-314 555,-320 549,-320 549,-320 36,-320 36,-320 30,-320 24,-314 24,-308 24,-308 24,-36 24,-36 24,-30 30,-24 36,-24"/>
<text text-anchor="middle" x="292.5" y="-308.8" font-family="Helvetica,sans-Serif" font-weight="bold" font-size="9.00">tonal&#45;pitch&#45;space</text>
</g>
<g id="clust4" class="cluster">
<title>cluster_packages/cognitive&#45;theory&#45;of&#45;music/tonal&#45;pitch&#45;space/dist</title>
<path fill="#ffffff" stroke="black" stroke-width="2" d="M147,-242C147,-242 193,-242 193,-242 199,-242 205,-248 205,-254 205,-254 205,-282 205,-282 205,-288 199,-294 193,-294 193,-294 147,-294 147,-294 141,-294 135,-288 135,-282 135,-282 135,-254 135,-254 135,-248 141,-242 147,-242"/>
<text text-anchor="middle" x="170" y="-282.8" font-family="Helvetica,sans-Serif" font-weight="bold" font-size="9.00">dist</text>
</g>
<g id="clust5" class="cluster">
<title>cluster_packages/cognitive&#45;theory&#45;of&#45;music/tonal&#45;pitch&#45;space/src</title>
<path fill="#ffffff" stroke="black" stroke-width="2" d="M125,-32C125,-32 541,-32 541,-32 547,-32 553,-38 553,-44 553,-44 553,-222 553,-222 553,-228 547,-234 541,-234 541,-234 125,-234 125,-234 119,-234 113,-228 113,-222 113,-222 113,-44 113,-44 113,-38 119,-32 125,-32"/>
<text text-anchor="middle" x="333" y="-222.8" font-family="Helvetica,sans-Serif" font-weight="bold" font-size="9.00">src</text>
</g>
<g id="clust6" class="cluster">
<title>cluster_packages/music&#45;structure</title>
<path fill="#ffffff" stroke="black" stroke-width="2" d="M422.5,-354C422.5,-354 516.5,-354 516.5,-354 522.5,-354 528.5,-360 528.5,-366 528.5,-366 528.5,-496 528.5,-496 528.5,-502 522.5,-508 516.5,-508 516.5,-508 422.5,-508 422.5,-508 416.5,-508 410.5,-502 410.5,-496 410.5,-496 410.5,-366 410.5,-366 410.5,-360 416.5,-354 422.5,-354"/>
<text text-anchor="middle" x="469.5" y="-496.8" font-family="Helvetica,sans-Serif" font-weight="bold" font-size="9.00">music&#45;structure</text>
</g>
<g id="clust7" class="cluster">
<title>cluster_packages/music&#45;structure/chord</title>
<path fill="#ffffff" stroke="black" stroke-width="2" d="M430.5,-362C430.5,-362 508.5,-362 508.5,-362 514.5,-362 520.5,-368 520.5,-374 520.5,-374 520.5,-470 520.5,-470 520.5,-476 514.5,-482 508.5,-482 508.5,-482 430.5,-482 430.5,-482 424.5,-482 418.5,-476 418.5,-470 418.5,-470 418.5,-374 418.5,-374 418.5,-368 424.5,-362 430.5,-362"/>
<text text-anchor="middle" x="469.5" y="-470.8" font-family="Helvetica,sans-Serif" font-weight="bold" font-size="9.00">chord</text>
</g>
<g id="clust8" class="cluster">
<title>cluster_packages/music&#45;structure/chord/roman&#45;chord</title>
<path fill="#ffffff" stroke="black" stroke-width="2" d="M438.5,-370C438.5,-370 500.5,-370 500.5,-370 506.5,-370 512.5,-376 512.5,-382 512.5,-382 512.5,-444 512.5,-444 512.5,-450 506.5,-456 500.5,-456 500.5,-456 438.5,-456 438.5,-456 432.5,-456 426.5,-450 426.5,-444 426.5,-444 426.5,-382 426.5,-382 426.5,-376 432.5,-370 438.5,-370"/>
<text text-anchor="middle" x="469.5" y="-444.8" font-family="Helvetica,sans-Serif" font-weight="bold" font-size="9.00">roman&#45;chord</text>
</g>
<g id="clust9" class="cluster">
<title>cluster_packages/music&#45;structure/chord/roman&#45;chord/dist</title>
<path fill="#ffffff" stroke="black" stroke-width="2" d="M446.5,-378C446.5,-378 492.5,-378 492.5,-378 498.5,-378 504.5,-384 504.5,-390 504.5,-390 504.5,-418 504.5,-418 504.5,-424 498.5,-430 492.5,-430 492.5,-430 446.5,-430 446.5,-430 440.5,-430 434.5,-424 434.5,-418 434.5,-418 434.5,-390 434.5,-390 434.5,-384 440.5,-378 446.5,-378"/>
<text text-anchor="middle" x="469.5" y="-418.8" font-family="Helvetica,sans-Serif" font-weight="bold" font-size="9.00">dist</text>
</g>
<g id="clust10" class="cluster">
<title>cluster_packages/tonal&#45;objects</title>
<path fill="#ffffff" stroke="black" stroke-width="2" d="M597,-71C597,-71 659,-71 659,-71 665,-71 671,-77 671,-83 671,-83 671,-145 671,-145 671,-151 665,-157 659,-157 659,-157 597,-157 597,-157 591,-157 585,-151 585,-145 585,-145 585,-83 585,-83 585,-77 591,-71 597,-71"/>
<text text-anchor="middle" x="628" y="-145.8" font-family="Helvetica,sans-Serif" font-weight="bold" font-size="9.00">tonal&#45;objects</text>
</g>
<g id="clust11" class="cluster">
<title>cluster_packages/tonal&#45;objects/dist</title>
<path fill="#ffffff" stroke="black" stroke-width="2" d="M605,-79C605,-79 651,-79 651,-79 657,-79 663,-85 663,-91 663,-91 663,-119 663,-119 663,-125 657,-131 651,-131 651,-131 605,-131 605,-131 599,-131 593,-125 593,-119 593,-119 593,-91 593,-91 593,-85 599,-79 605,-79"/>
<text text-anchor="middle" x="628" y="-119.8" font-family="Helvetica,sans-Serif" font-weight="bold" font-size="9.00">dist</text>
</g>
<g id="clust12" class="cluster">
<title>cluster_packages/util</title>
<path fill="#ffffff" stroke="black" stroke-width="2" d="M589,-165C589,-165 667,-165 667,-165 673,-165 679,-171 679,-177 679,-177 679,-367 679,-367 679,-373 673,-379 667,-379 667,-379 589,-379 589,-379 583,-379 577,-373 577,-367 577,-367 577,-177 577,-177 577,-171 583,-165 589,-165"/>
<text text-anchor="middle" x="628" y="-367.8" font-family="Helvetica,sans-Serif" font-weight="bold" font-size="9.00">util</text>
</g>
<g id="clust13" class="cluster">
<title>cluster_packages/util/math</title>
<path fill="#ffffff" stroke="black" stroke-width="2" d="M597,-173C597,-173 659,-173 659,-173 665,-173 671,-179 671,-185 671,-185 671,-247 671,-247 671,-253 665,-259 659,-259 659,-259 597,-259 597,-259 591,-259 585,-253 585,-247 585,-247 585,-185 585,-185 585,-179 591,-173 597,-173"/>
<text text-anchor="middle" x="628" y="-247.8" font-family="Helvetica,sans-Serif" font-weight="bold" font-size="9.00">math</text>
</g>
<g id="clust14" class="cluster">
<title>cluster_packages/util/math/dist</title>
<path fill="#ffffff" stroke="black" stroke-width="2" d="M605,-181C605,-181 651,-181 651,-181 657,-181 663,-187 663,-193 663,-193 663,-221 663,-221 663,-227 657,-233 651,-233 651,-233 605,-233 605,-233 599,-233 593,-227 593,-221 593,-221 593,-193 593,-193 593,-187 599,-181 605,-181"/>
<text text-anchor="middle" x="628" y="-221.8" font-family="Helvetica,sans-Serif" font-weight="bold" font-size="9.00">dist</text>
</g>
<g id="clust15" class="cluster">
<title>cluster_packages/util/stdlib</title>
<path fill="#ffffff" stroke="black" stroke-width="2" d="M597,-267C597,-267 659,-267 659,-267 665,-267 671,-273 671,-279 671,-279 671,-341 671,-341 671,-347 665,-353 659,-353 659,-353 597,-353 597,-353 591,-353 585,-347 585,-341 585,-341 585,-279 585,-279 585,-273 591,-267 597,-267"/>
<text text-anchor="middle" x="628" y="-341.8" font-family="Helvetica,sans-Serif" font-weight="bold" font-size="9.00">stdlib</text>
</g>
<g id="clust16" class="cluster">
<title>cluster_packages/util/stdlib/dist</title>
<path fill="#ffffff" stroke="black" stroke-width="2" d="M605,-275C605,-275 651,-275 651,-275 657,-275 663,-281 663,-287 663,-287 663,-315 663,-315 663,-321 657,-327 651,-327 651,-327 605,-327 605,-327 599,-327 593,-321 593,-315 593,-315 593,-287 593,-287 593,-281 599,-275 605,-275"/>
<text text-anchor="middle" x="628" y="-315.8" font-family="Helvetica,sans-Serif" font-weight="bold" font-size="9.00">dist</text>
</g>
<!-- packages/cognitive&#45;theory&#45;of&#45;music/tonal&#45;pitch&#45;space/dist/index.js -->
<g id="node1" class="node">
<title>packages/cognitive&#45;theory&#45;of&#45;music/tonal&#45;pitch&#45;space/dist/index.js</title>
<g id="a_node1"><a xlink:href="packages/cognitive-theory-of-music/tonal-pitch-space/dist/index.js" xlink:title="index.js">
<polygon fill="#ffffcc" stroke="black" points="197,-268 195.5,-270 185,-270 183.5,-268 143,-268 143,-250 197,-250 197,-268"/>
<text text-anchor="start" x="152.5" y="-256.8" font-family="Helvetica,sans-Serif" font-size="9.00">index.js</text>
</a>
</g>
</g>
<!-- packages/cognitive&#45;theory&#45;of&#45;music/tonal&#45;pitch&#45;space/index.test.ts -->
<g id="node2" class="node">
<title>packages/cognitive&#45;theory&#45;of&#45;music/tonal&#45;pitch&#45;space/index.test.ts</title>
<g id="a_node2"><a xlink:href="packages/cognitive-theory-of-music/tonal-pitch-space/index.test.ts" xlink:title="index.test.ts">
<path fill="#ddfeff" stroke="black" d="M99,-294C99,-294 38,-294 38,-294 35,-294 32,-291 32,-288 32,-288 32,-282 32,-282 32,-279 35,-276 38,-276 38,-276 99,-276 99,-276 102,-276 105,-279 105,-282 105,-282 105,-288 105,-288 105,-291 102,-294 99,-294"/>
<text text-anchor="start" x="40" y="-282.8" font-family="Helvetica,sans-Serif" font-size="9.00">index.test.ts</text>
</a>
</g>
</g>
<!-- packages/cognitive&#45;theory&#45;of&#45;music/tonal&#45;pitch&#45;space/index.test.ts&#45;&gt;packages/cognitive&#45;theory&#45;of&#45;music/tonal&#45;pitch&#45;space/dist/index.js -->
<g id="edge1" class="edge">
<title>packages/cognitive&#45;theory&#45;of&#45;music/tonal&#45;pitch&#45;space/index.test.ts&#45;&gt;packages/cognitive&#45;theory&#45;of&#45;music/tonal&#45;pitch&#45;space/dist/index.js</title>
<path fill="none" stroke="#000000" stroke-opacity="0.200000" d="M104.02,-275.98C114.92,-273.13 126.9,-270 137.58,-267.21"/>
<polygon fill="#000000" fill-opacity="0.200000" stroke="#000000" stroke-opacity="0.200000" points="142.7,-265.87 138.43,-269.31 140.28,-266.5 137.86,-267.14 137.86,-267.14 137.86,-267.14 140.28,-266.5 137.29,-264.96 142.7,-265.87 142.7,-265.87"/>
</g>
<!-- packages/util/math/dist/index.js -->
<g id="node3" class="node">
<title>packages/util/math/dist/index.js</title>
<g id="a_node3"><a xlink:href="packages/util/math/dist/index.js" xlink:title="index.js">
<polygon fill="#ffffcc" stroke="black" points="655,-207 653.5,-209 643,-209 641.5,-207 601,-207 601,-189 655,-189 655,-207"/>
<text text-anchor="start" x="610.5" y="-195.8" font-family="Helvetica,sans-Serif" font-size="9.00">index.js</text>
</a>
</g>
</g>
<!-- packages/cognitive&#45;theory&#45;of&#45;music/tonal&#45;pitch&#45;space/index.test.ts&#45;&gt;packages/util/math/dist/index.js -->
<g id="edge2" class="edge">
<title>packages/cognitive&#45;theory&#45;of&#45;music/tonal&#45;pitch&#45;space/index.test.ts&#45;&gt;packages/util/math/dist/index.js</title>
<path fill="none" stroke="#000000" stroke-opacity="0.200000" d="M82.79,-294.16C95.58,-302.99 113,-315 113,-315 113,-315 394,-433 394,-433 394,-433 569,-433 569,-433 569,-433 577,-272 577,-272 577,-272 603.6,-232.63 618,-211.33"/>
<polygon fill="#000000" fill-opacity="0.200000" stroke="#000000" stroke-opacity="0.200000" points="620.87,-207.07 619.93,-212.48 619.47,-209.15 618.07,-211.22 618.07,-211.22 618.07,-211.22 619.47,-209.15 616.21,-209.96 620.87,-207.07 620.87,-207.07"/>
</g>
<!-- packages/music&#45;structure/chord/roman&#45;chord/dist/index.js -->
<g id="node4" class="node">
<title>packages/music&#45;structure/chord/roman&#45;chord/dist/index.js</title>
<g id="a_node4"><a xlink:href="packages/music-structure/chord/roman-chord/dist/index.js" xlink:title="index.js">
<polygon fill="#ffffcc" stroke="black" points="496.5,-404 495,-406 484.5,-406 483,-404 442.5,-404 442.5,-386 496.5,-386 496.5,-404"/>
<text text-anchor="start" x="452" y="-392.8" font-family="Helvetica,sans-Serif" font-size="9.00">index.js</text>
</a>
</g>
</g>
<!-- packages/cognitive&#45;theory&#45;of&#45;music/tonal&#45;pitch&#45;space/index.test.ts&#45;&gt;packages/music&#45;structure/chord/roman&#45;chord/dist/index.js -->
<g id="edge3" class="edge">
<title>packages/cognitive&#45;theory&#45;of&#45;music/tonal&#45;pitch&#45;space/index.test.ts&#45;&gt;packages/music&#45;structure/chord/roman&#45;chord/dist/index.js</title>
<path fill="none" stroke="#000000" stroke-opacity="0.200000" d="M102.47,-294.1C108.54,-295.77 113,-297 113,-297 113,-297 350.7,-362.53 437.36,-386.42"/>
<polygon fill="#000000" fill-opacity="0.200000" stroke="#000000" stroke-opacity="0.200000" points="442.36,-387.79 436.94,-388.63 439.95,-387.13 437.54,-386.46 437.54,-386.46 437.54,-386.46 439.95,-387.13 438.14,-384.3 442.36,-387.79 442.36,-387.79"/>
</g>
<!-- packages/util/stdlib/dist/index.js -->
<g id="node5" class="node">
<title>packages/util/stdlib/dist/index.js</title>
<g id="a_node5"><a xlink:href="packages/util/stdlib/dist/index.js" xlink:title="index.js">
<polygon fill="#ffffcc" stroke="black" points="655,-301 653.5,-303 643,-303 641.5,-301 601,-301 601,-283 655,-283 655,-301"/>
<text text-anchor="start" x="610.5" y="-289.8" font-family="Helvetica,sans-Serif" font-size="9.00">index.js</text>
</a>
</g>
</g>
<!-- packages/cognitive&#45;theory&#45;of&#45;music/tonal&#45;pitch&#45;space/index.test.ts&#45;&gt;packages/util/stdlib/dist/index.js -->
<g id="edge4" class="edge">
<title>packages/cognitive&#45;theory&#45;of&#45;music/tonal&#45;pitch&#45;space/index.test.ts&#45;&gt;packages/util/stdlib/dist/index.js</title>
<path fill="none" stroke="#000000" stroke-opacity="0.200000" d="M71.21,-294.25C79.25,-337.88 113,-521 113,-521 113,-521 569,-521 569,-521 569,-521 610.71,-356.32 623.39,-306.26"/>
<polygon fill="#000000" fill-opacity="0.200000" stroke="#000000" stroke-opacity="0.200000" points="624.65,-301.26 625.61,-306.66 624.04,-303.68 623.43,-306.11 623.43,-306.11 623.43,-306.11 624.04,-303.68 621.25,-305.56 624.65,-301.26 624.65,-301.26"/>
</g>
<!-- packages/tonal&#45;objects/dist/index.js -->
<g id="node6" class="node">
<title>packages/tonal&#45;objects/dist/index.js</title>
<g id="a_node6"><a xlink:href="packages/tonal-objects/dist/index.js" xlink:title="index.js">
<polygon fill="#ffffcc" stroke="black" points="655,-105 653.5,-107 643,-107 641.5,-105 601,-105 601,-87 655,-87 655,-105"/>
<text text-anchor="start" x="610.5" y="-93.8" font-family="Helvetica,sans-Serif" font-size="9.00">index.js</text>
</a>
</g>
</g>
<!-- packages/cognitive&#45;theory&#45;of&#45;music/tonal&#45;pitch&#45;space/index.test.ts&#45;&gt;packages/tonal&#45;objects/dist/index.js -->
<g id="edge5" class="edge">
<title>packages/cognitive&#45;theory&#45;of&#45;music/tonal&#45;pitch&#45;space/index.test.ts&#45;&gt;packages/tonal&#45;objects/dist/index.js</title>
<path fill="none" stroke="#000000" stroke-opacity="0.200000" d="M71.07,-275.88C77.94,-236.02 105,-79 105,-79 105,-79 113,-29 113,-29 113,-29 569,-29 569,-29 569,-29 598.69,-63.29 615.58,-82.81"/>
<polygon fill="#000000" fill-opacity="0.200000" stroke="#000000" stroke-opacity="0.200000" points="619.18,-86.96 614.2,-84.66 617.54,-85.07 615.91,-83.18 615.91,-83.18 615.91,-83.18 617.54,-85.07 617.61,-81.71 619.18,-86.96 619.18,-86.96"/>
</g>
<!-- packages/cognitive&#45;theory&#45;of&#45;music/tonal&#45;pitch&#45;space/index.ts -->
<g id="node7" class="node">
<title>packages/cognitive&#45;theory&#45;of&#45;music/tonal&#45;pitch&#45;space/index.ts</title>
<g id="a_node7"><a xlink:href="packages/cognitive-theory-of-music/tonal-pitch-space/index.ts" xlink:title="index.ts">
<path fill="#ddfeff" stroke="black" d="M89.5,-73C89.5,-73 47.5,-73 47.5,-73 44.5,-73 41.5,-70 41.5,-67 41.5,-67 41.5,-61 41.5,-61 41.5,-58 44.5,-55 47.5,-55 47.5,-55 89.5,-55 89.5,-55 92.5,-55 95.5,-58 95.5,-61 95.5,-61 95.5,-67 95.5,-67 95.5,-70 92.5,-73 89.5,-73"/>
<text text-anchor="start" x="50" y="-61.8" font-family="Helvetica,sans-Serif" font-size="9.00">index.ts</text>
</a>
</g>
</g>
<!-- packages/cognitive&#45;theory&#45;of&#45;music/tonal&#45;pitch&#45;space/src/index.ts -->
<g id="node8" class="node">
<title>packages/cognitive&#45;theory&#45;of&#45;music/tonal&#45;pitch&#45;space/src/index.ts</title>
<g id="a_node8"><a xlink:href="packages/cognitive-theory-of-music/tonal-pitch-space/src/index.ts" xlink:title="index.ts">
<path fill="#ddfeff" stroke="black" d="M191,-73C191,-73 149,-73 149,-73 146,-73 143,-70 143,-67 143,-67 143,-61 143,-61 143,-58 146,-55 149,-55 149,-55 191,-55 191,-55 194,-55 197,-58 197,-61 197,-61 197,-67 197,-67 197,-70 194,-73 191,-73"/>
<text text-anchor="start" x="151.5" y="-61.8" font-family="Helvetica,sans-Serif" font-size="9.00">index.ts</text>
</a>
</g>
</g>
<!-- packages/cognitive&#45;theory&#45;of&#45;music/tonal&#45;pitch&#45;space/index.ts&#45;&gt;packages/cognitive&#45;theory&#45;of&#45;music/tonal&#45;pitch&#45;space/src/index.ts -->
<g id="edge6" class="edge">
<title>packages/cognitive&#45;theory&#45;of&#45;music/tonal&#45;pitch&#45;space/index.ts&#45;&gt;packages/cognitive&#45;theory&#45;of&#45;music/tonal&#45;pitch&#45;space/src/index.ts</title>
<path fill="none" stroke="#000000" stroke-opacity="0.200000" d="M95.64,-64C108.45,-64 123.98,-64 137.44,-64"/>
<polygon fill="#000000" fill-opacity="0.200000" stroke="#000000" stroke-opacity="0.200000" points="142.69,-65.75 137.69,-64 142.69,-62.25 142.69,-65.75"/>
</g>
<!-- packages/cognitive&#45;theory&#45;of&#45;music/tonal&#45;pitch&#45;space/src/get&#45;distance.ts -->
<g id="node15" class="node">
<title>packages/cognitive&#45;theory&#45;of&#45;music/tonal&#45;pitch&#45;space/src/get&#45;distance.ts</title>
<g id="a_node15"><a xlink:href="packages/cognitive-theory-of-music/tonal-pitch-space/src/get-distance.ts" xlink:title="get&#45;distance.ts">
<polygon fill="#ddfeff" stroke="black" points="348.5,-58 347,-60 336.5,-60 335,-58 264.5,-58 264.5,-40 348.5,-40 348.5,-58"/>
<text text-anchor="start" x="272.5" y="-46.8" font-family="Helvetica,sans-Serif" font-size="9.00">get&#45;distance.ts</text>
</a>
</g>
</g>
<!-- packages/cognitive&#45;theory&#45;of&#45;music/tonal&#45;pitch&#45;space/src/index.ts&#45;&gt;packages/cognitive&#45;theory&#45;of&#45;music/tonal&#45;pitch&#45;space/src/get&#45;distance.ts -->
<g id="edge26" class="edge">
<title>packages/cognitive&#45;theory&#45;of&#45;music/tonal&#45;pitch&#45;space/src/index.ts&#45;&gt;packages/cognitive&#45;theory&#45;of&#45;music/tonal&#45;pitch&#45;space/src/get&#45;distance.ts</title>
<path fill="none" stroke="#000000" stroke-opacity="0.200000" d="M197.25,-61.07C214.87,-59.11 238.56,-56.47 259.29,-54.15"/>
<polygon fill="#000000" fill-opacity="0.200000" stroke="#000000" stroke-opacity="0.200000" points="264.68,-55.31 259.52,-54.13 264.29,-51.83 264.68,-55.31"/>
</g>
<!-- packages/cognitive&#45;theory&#45;of&#45;music/tonal&#45;pitch&#45;space/src/get&#45;keys&#45;include&#45;the&#45;chord.ts -->
<g id="node16" class="node">
<title>packages/cognitive&#45;theory&#45;of&#45;music/tonal&#45;pitch&#45;space/src/get&#45;keys&#45;include&#45;the&#45;chord.ts</title>
<g id="a_node16"><a xlink:href="packages/cognitive-theory-of-music/tonal-pitch-space/src/get-keys-include-the-chord.ts" xlink:title="get&#45;keys&#45;include&#45;the&#45;chord.ts">
<path fill="#ddfeff" stroke="black" d="M375,-88C375,-88 238,-88 238,-88 235,-88 232,-85 232,-82 232,-82 232,-76 232,-76 232,-73 235,-70 238,-70 238,-70 375,-70 375,-70 378,-70 381,-73 381,-76 381,-76 381,-82 381,-82 381,-85 378,-88 375,-88"/>
<text text-anchor="start" x="240" y="-76.8" font-family="Helvetica,sans-Serif" font-size="9.00">get&#45;keys&#45;include&#45;the&#45;chord.ts</text>
</a>
</g>
</g>
<!-- packages/cognitive&#45;theory&#45;of&#45;music/tonal&#45;pitch&#45;space/src/index.ts&#45;&gt;packages/cognitive&#45;theory&#45;of&#45;music/tonal&#45;pitch&#45;space/src/get&#45;keys&#45;include&#45;the&#45;chord.ts -->
<g id="edge27" class="edge">
<title>packages/cognitive&#45;theory&#45;of&#45;music/tonal&#45;pitch&#45;space/src/index.ts&#45;&gt;packages/cognitive&#45;theory&#45;of&#45;music/tonal&#45;pitch&#45;space/src/get&#45;keys&#45;include&#45;the&#45;chord.ts</title>
<path fill="none" stroke="#000000" stroke-opacity="0.200000" d="M197.25,-66.93C205.92,-67.89 216.07,-69.03 226.6,-70.2"/>
<polygon fill="#000000" fill-opacity="0.200000" stroke="#000000" stroke-opacity="0.200000" points="231.61,-72.52 226.83,-70.23 232,-69.04 231.61,-72.52"/>
</g>
<!-- packages/cognitive&#45;theory&#45;of&#45;music/tonal&#45;pitch&#45;space/src/does&#45;key&#45;include&#45;the&#45;chord.ts -->
<g id="node9" class="node">
<title>packages/cognitive&#45;theory&#45;of&#45;music/tonal&#45;pitch&#45;space/src/does&#45;key&#45;include&#45;the&#45;chord.ts</title>
<g id="a_node9"><a xlink:href="packages/cognitive-theory-of-music/tonal-pitch-space/src/does-key-include-the-chord.ts" xlink:title="does&#45;key&#45;include&#45;the&#45;chord.ts">
<path fill="#ddfeff" stroke="black" d="M539,-169C539,-169 400,-169 400,-169 397,-169 394,-166 394,-163 394,-163 394,-157 394,-157 394,-154 397,-151 400,-151 400,-151 539,-151 539,-151 542,-151 545,-154 545,-157 545,-157 545,-163 545,-163 545,-166 542,-169 539,-169"/>
<text text-anchor="start" x="402" y="-157.8" font-family="Helvetica,sans-Serif" font-size="9.00">does&#45;key&#45;include&#45;the&#45;chord.ts</text>
</a>
</g>
</g>
<!-- packages/cognitive&#45;theory&#45;of&#45;music/tonal&#45;pitch&#45;space/src/does&#45;key&#45;include&#45;the&#45;chord.ts&#45;&gt;packages/util/math/dist/index.js -->
<g id="edge7" class="edge">
<title>packages/cognitive&#45;theory&#45;of&#45;music/tonal&#45;pitch&#45;space/src/does&#45;key&#45;include&#45;the&#45;chord.ts&#45;&gt;packages/util/math/dist/index.js</title>
<path fill="none" stroke="#000000" stroke-opacity="0.200000" d="M517.44,-169.05C542.81,-173.95 569,-179 569,-179 569,-179 581.98,-183.25 595.67,-187.74"/>
<polygon fill="#000000" fill-opacity="0.200000" stroke="#000000" stroke-opacity="0.200000" points="600.72,-189.39 595.26,-189.97 598.34,-188.61 595.96,-187.83 595.96,-187.83 595.96,-187.83 598.34,-188.61 596.66,-185.69 600.72,-189.39 600.72,-189.39"/>
</g>
<!-- packages/cognitive&#45;theory&#45;of&#45;music/tonal&#45;pitch&#45;space/src/does&#45;key&#45;include&#45;the&#45;chord.ts&#45;&gt;packages/tonal&#45;objects/dist/index.js -->
<g id="edge8" class="edge">
<title>packages/cognitive&#45;theory&#45;of&#45;music/tonal&#45;pitch&#45;space/src/does&#45;key&#45;include&#45;the&#45;chord.ts&#45;&gt;packages/tonal&#45;objects/dist/index.js</title>
<path fill="none" stroke="#000000" stroke-opacity="0.200000" d="M520.04,-150.95C544.57,-146.46 569,-142 569,-142 569,-142 594.19,-122.02 611.37,-108.4"/>
<polygon fill="#000000" fill-opacity="0.200000" stroke="#000000" stroke-opacity="0.200000" points="615.54,-105.09 613.02,-109.96 613.58,-106.64 611.62,-108.2 611.62,-108.2 611.62,-108.2 613.58,-106.64 610.23,-106.43 615.54,-105.09 615.54,-105.09"/>
</g>
<!-- packages/cognitive&#45;theory&#45;of&#45;music/tonal&#45;pitch&#45;space/src/get&#45;basic&#45;space.ts -->
<g id="node10" class="node">
<title>packages/cognitive&#45;theory&#45;of&#45;music/tonal&#45;pitch&#45;space/src/get&#45;basic&#45;space.ts</title>
<g id="a_node10"><a xlink:href="packages/cognitive-theory-of-music/tonal-pitch-space/src/get-basic-space.ts" xlink:title="get&#45;basic&#45;space.ts">
<path fill="#ddfeff" stroke="black" d="M213,-208C213,-208 127,-208 127,-208 124,-208 121,-205 121,-202 121,-202 121,-196 121,-196 121,-193 124,-190 127,-190 127,-190 213,-190 213,-190 216,-190 219,-193 219,-196 219,-196 219,-202 219,-202 219,-205 216,-208 213,-208"/>
<text text-anchor="start" x="129" y="-196.8" font-family="Helvetica,sans-Serif" font-size="9.00">get&#45;basic&#45;space.ts</text>
</a>
</g>
</g>
<!-- packages/cognitive&#45;theory&#45;of&#45;music/tonal&#45;pitch&#45;space/src/get&#45;basic&#45;space.ts&#45;&gt;packages/util/math/dist/index.js -->
<g id="edge13" class="edge">
<title>packages/cognitive&#45;theory&#45;of&#45;music/tonal&#45;pitch&#45;space/src/get&#45;basic&#45;space.ts&#45;&gt;packages/util/math/dist/index.js</title>
<path fill="none" stroke="#000000" stroke-opacity="0.200000" d="M207.89,-208.07C220.74,-211.23 232,-214 232,-214 232,-214 381,-214 381,-214 381,-214 569,-203 569,-203 569,-203 581.98,-201.88 595.67,-200.7"/>
<polygon fill="#000000" fill-opacity="0.200000" stroke="#000000" stroke-opacity="0.200000" points="600.72,-200.27 595.93,-202.94 598.22,-200.48 595.73,-200.7 595.73,-200.7 595.73,-200.7 598.22,-200.48 595.54,-198.45 600.72,-200.27 600.72,-200.27"/>
</g>
<!-- packages/cognitive&#45;theory&#45;of&#45;music/tonal&#45;pitch&#45;space/src/get&#45;basic&#45;space.ts&#45;&gt;packages/music&#45;structure/chord/roman&#45;chord/dist/index.js -->
<g id="edge14" class="edge">
<title>packages/cognitive&#45;theory&#45;of&#45;music/tonal&#45;pitch&#45;space/src/get&#45;basic&#45;space.ts&#45;&gt;packages/music&#45;structure/chord/roman&#45;chord/dist/index.js</title>
<path fill="none" stroke="#000000" stroke-opacity="0.200000" d="M182.13,-208.28C196.31,-220.09 219,-239 219,-239 219,-239 232,-270 232,-270 232,-270 387.62,-352.25 446.39,-383.31"/>
<polygon fill="#000000" fill-opacity="0.200000" stroke="#000000" stroke-opacity="0.200000" points="451.11,-385.81 445.64,-385.46 448.9,-384.64 446.69,-383.47 446.69,-383.47 446.69,-383.47 448.9,-384.64 447.74,-381.48 451.11,-385.81 451.11,-385.81"/>
</g>
<!-- packages/cognitive&#45;theory&#45;of&#45;music/tonal&#45;pitch&#45;space/src/get&#45;basic&#45;space.ts&#45;&gt;packages/util/stdlib/dist/index.js -->
<g id="edge15" class="edge">
<title>packages/cognitive&#45;theory&#45;of&#45;music/tonal&#45;pitch&#45;space/src/get&#45;basic&#45;space.ts&#45;&gt;packages/util/stdlib/dist/index.js</title>
<path fill="none" stroke="#000000" stroke-opacity="0.200000" d="M200.07,-208.05C215.78,-212.95 232,-218 232,-218 232,-218 502.24,-268.63 595.67,-286.13"/>
<polygon fill="#000000" fill-opacity="0.200000" stroke="#000000" stroke-opacity="0.200000" points="600.78,-287.09 595.45,-288.38 598.32,-286.63 595.86,-286.17 595.86,-286.17 595.86,-286.17 598.32,-286.63 596.28,-283.96 600.78,-287.09 600.78,-287.09"/>
</g>
<!-- packages/cognitive&#45;theory&#45;of&#45;music/tonal&#45;pitch&#45;space/src/get&#45;chord&#45;chroma.ts -->
<g id="node11" class="node">
<title>packages/cognitive&#45;theory&#45;of&#45;music/tonal&#45;pitch&#45;space/src/get&#45;chord&#45;chroma.ts</title>
<g id="a_node11"><a xlink:href="packages/cognitive-theory-of-music/tonal-pitch-space/src/get-chord-chroma.ts" xlink:title="get&#45;chord&#45;chroma.ts">
<path fill="#ddfeff" stroke="black" d="M355.5,-148C355.5,-148 257.5,-148 257.5,-148 254.5,-148 251.5,-145 251.5,-142 251.5,-142 251.5,-136 251.5,-136 251.5,-133 254.5,-130 257.5,-130 257.5,-130 355.5,-130 355.5,-130 358.5,-130 361.5,-133 361.5,-136 361.5,-136 361.5,-142 361.5,-142 361.5,-145 358.5,-148 355.5,-148"/>
<text text-anchor="start" x="259.5" y="-136.8" font-family="Helvetica,sans-Serif" font-size="9.00">get&#45;chord&#45;chroma.ts</text>
</a>
</g>
</g>
<!-- packages/cognitive&#45;theory&#45;of&#45;music/tonal&#45;pitch&#45;space/src/get&#45;basic&#45;space.ts&#45;&gt;packages/cognitive&#45;theory&#45;of&#45;music/tonal&#45;pitch&#45;space/src/get&#45;chord&#45;chroma.ts -->
<g id="edge9" class="edge">
<title>packages/cognitive&#45;theory&#45;of&#45;music/tonal&#45;pitch&#45;space/src/get&#45;basic&#45;space.ts&#45;&gt;packages/cognitive&#45;theory&#45;of&#45;music/tonal&#45;pitch&#45;space/src/get&#45;chord&#45;chroma.ts</title>
<path fill="none" stroke="#000000" stroke-opacity="0.200000" d="M183.34,-189.89C201.17,-176.74 232,-154 232,-154 232,-154 242.76,-151.8 256.05,-149.09"/>
<polygon fill="#000000" fill-opacity="0.200000" stroke="#000000" stroke-opacity="0.200000" points="261.05,-148.07 256.6,-151.28 258.6,-148.57 256.15,-149.07 256.15,-149.07 256.15,-149.07 258.6,-148.57 255.7,-146.87 261.05,-148.07 261.05,-148.07"/>
</g>
<!-- packages/cognitive&#45;theory&#45;of&#45;music/tonal&#45;pitch&#45;space/src/get&#45;power&#45;chroma.ts -->
<g id="node12" class="node">
<title>packages/cognitive&#45;theory&#45;of&#45;music/tonal&#45;pitch&#45;space/src/get&#45;power&#45;chroma.ts</title>
<g id="a_node12"><a xlink:href="packages/cognitive-theory-of-music/tonal-pitch-space/src/get-power-chroma.ts" xlink:title="get&#45;power&#45;chroma.ts">
<path fill="#ddfeff" stroke="black" d="M355.5,-178C355.5,-178 257.5,-178 257.5,-178 254.5,-178 251.5,-175 251.5,-172 251.5,-172 251.5,-166 251.5,-166 251.5,-163 254.5,-160 257.5,-160 257.5,-160 355.5,-160 355.5,-160 358.5,-160 361.5,-163 361.5,-166 361.5,-166 361.5,-172 361.5,-172 361.5,-175 358.5,-178 355.5,-178"/>
<text text-anchor="start" x="259.5" y="-166.8" font-family="Helvetica,sans-Serif" font-size="9.00">get&#45;power&#45;chroma.ts</text>
</a>
</g>
</g>
<!-- packages/cognitive&#45;theory&#45;of&#45;music/tonal&#45;pitch&#45;space/src/get&#45;basic&#45;space.ts&#45;&gt;packages/cognitive&#45;theory&#45;of&#45;music/tonal&#45;pitch&#45;space/src/get&#45;power&#45;chroma.ts -->
<g id="edge10" class="edge">
<title>packages/cognitive&#45;theory&#45;of&#45;music/tonal&#45;pitch&#45;space/src/get&#45;basic&#45;space.ts&#45;&gt;packages/cognitive&#45;theory&#45;of&#45;music/tonal&#45;pitch&#45;space/src/get&#45;power&#45;chroma.ts</title>
<path fill="none" stroke="#000000" stroke-opacity="0.200000" d="M207.89,-189.93C220.74,-186.77 232,-184 232,-184 232,-184 242.76,-181.8 256.05,-179.09"/>
<polygon fill="#000000" fill-opacity="0.200000" stroke="#000000" stroke-opacity="0.200000" points="261.05,-178.07 256.6,-181.28 258.6,-178.57 256.15,-179.07 256.15,-179.07 256.15,-179.07 258.6,-178.57 255.7,-176.87 261.05,-178.07 261.05,-178.07"/>
</g>
<!-- packages/cognitive&#45;theory&#45;of&#45;music/tonal&#45;pitch&#45;space/src/get&#45;scale&#45;chroma.ts -->
<g id="node13" class="node">
<title>packages/cognitive&#45;theory&#45;of&#45;music/tonal&#45;pitch&#45;space/src/get&#45;scale&#45;chroma.ts</title>
<g id="a_node13"><a xlink:href="packages/cognitive-theory-of-music/tonal-pitch-space/src/get-scale-chroma.ts" xlink:title="get&#45;scale&#45;chroma.ts">
<path fill="#ddfeff" stroke="black" d="M353.5,-208C353.5,-208 259.5,-208 259.5,-208 256.5,-208 253.5,-205 253.5,-202 253.5,-202 253.5,-196 253.5,-196 253.5,-193 256.5,-190 259.5,-190 259.5,-190 353.5,-190 353.5,-190 356.5,-190 359.5,-193 359.5,-196 359.5,-196 359.5,-202 359.5,-202 359.5,-205 356.5,-208 353.5,-208"/>
<text text-anchor="start" x="261.5" y="-196.8" font-family="Helvetica,sans-Serif" font-size="9.00">get&#45;scale&#45;chroma.ts</text>
</a>
</g>
</g>
<!-- packages/cognitive&#45;theory&#45;of&#45;music/tonal&#45;pitch&#45;space/src/get&#45;basic&#45;space.ts&#45;&gt;packages/cognitive&#45;theory&#45;of&#45;music/tonal&#45;pitch&#45;space/src/get&#45;scale&#45;chroma.ts -->
<g id="edge11" class="edge">
<title>packages/cognitive&#45;theory&#45;of&#45;music/tonal&#45;pitch&#45;space/src/get&#45;basic&#45;space.ts&#45;&gt;packages/cognitive&#45;theory&#45;of&#45;music/tonal&#45;pitch&#45;space/src/get&#45;scale&#45;chroma.ts</title>
<path fill="none" stroke="#000000" stroke-opacity="0.200000" d="M219.18,-199C228.55,-199 238.46,-199 248.09,-199"/>
<polygon fill="#000000" fill-opacity="0.200000" stroke="#000000" stroke-opacity="0.200000" points="253.1,-199 248.1,-201.25 250.6,-199 248.1,-199 248.1,-199 248.1,-199 250.6,-199 248.1,-196.75 253.1,-199 253.1,-199"/>
</g>
<!-- packages/cognitive&#45;theory&#45;of&#45;music/tonal&#45;pitch&#45;space/src/get&#45;tonic&#45;chroma.ts -->
<g id="node14" class="node">
<title>packages/cognitive&#45;theory&#45;of&#45;music/tonal&#45;pitch&#45;space/src/get&#45;tonic&#45;chroma.ts</title>
<g id="a_node14"><a xlink:href="packages/cognitive-theory-of-music/tonal-pitch-space/src/get-tonic-chroma.ts" xlink:title="get&#45;tonic&#45;chroma.ts">
<path fill="#ddfeff" stroke="black" d="M353.5,-118C353.5,-118 259.5,-118 259.5,-118 256.5,-118 253.5,-115 253.5,-112 253.5,-112 253.5,-106 253.5,-106 253.5,-103 256.5,-100 259.5,-100 259.5,-100 353.5,-100 353.5,-100 356.5,-100 359.5,-103 359.5,-106 359.5,-106 359.5,-112 359.5,-112 359.5,-115 356.5,-118 353.5,-118"/>
<text text-anchor="start" x="261.5" y="-106.8" font-family="Helvetica,sans-Serif" font-size="9.00">get&#45;tonic&#45;chroma.ts</text>
</a>
</g>
</g>
<!-- packages/cognitive&#45;theory&#45;of&#45;music/tonal&#45;pitch&#45;space/src/get&#45;basic&#45;space.ts&#45;&gt;packages/cognitive&#45;theory&#45;of&#45;music/tonal&#45;pitch&#45;space/src/get&#45;tonic&#45;chroma.ts -->
<g id="edge12" class="edge">
<title>packages/cognitive&#45;theory&#45;of&#45;music/tonal&#45;pitch&#45;space/src/get&#45;basic&#45;space.ts&#45;&gt;packages/cognitive&#45;theory&#45;of&#45;music/tonal&#45;pitch&#45;space/src/get&#45;tonic&#45;chroma.ts</title>
<path fill="none" stroke="#000000" stroke-opacity="0.200000" d="M178.48,-189.8C194.77,-169.78 232,-124 232,-124 232,-124 242.76,-121.8 256.05,-119.09"/>
<polygon fill="#000000" fill-opacity="0.200000" stroke="#000000" stroke-opacity="0.200000" points="261.05,-118.07 256.6,-121.28 258.6,-118.57 256.15,-119.07 256.15,-119.07 256.15,-119.07 258.6,-118.57 255.7,-116.87 261.05,-118.07 261.05,-118.07"/>
</g>
<!-- packages/cognitive&#45;theory&#45;of&#45;music/tonal&#45;pitch&#45;space/src/get&#45;chord&#45;chroma.ts&#45;&gt;packages/tonal&#45;objects/dist/index.js -->
<g id="edge16" class="edge">
<title>packages/cognitive&#45;theory&#45;of&#45;music/tonal&#45;pitch&#45;space/src/get&#45;chord&#45;chroma.ts&#45;&gt;packages/tonal&#45;objects/dist/index.js</title>
<path fill="none" stroke="#000000" stroke-opacity="0.200000" d="M351.95,-129.93C367.43,-126.77 381,-124 381,-124 381,-124 394,-120 394,-120 394,-120 569,-105 569,-105 569,-105 581.98,-102.99 595.67,-100.86"/>
<polygon fill="#000000" fill-opacity="0.200000" stroke="#000000" stroke-opacity="0.200000" points="600.72,-100.08 596.12,-103.07 598.24,-100.46 595.77,-100.85 595.77,-100.85 595.77,-100.85 598.24,-100.46 595.43,-98.62 600.72,-100.08 600.72,-100.08"/>
</g>
<!-- packages/cognitive&#45;theory&#45;of&#45;music/tonal&#45;pitch&#45;space/src/get&#45;power&#45;chroma.ts&#45;&gt;packages/util/stdlib/dist/index.js -->
<g id="edge19" class="edge">
<title>packages/cognitive&#45;theory&#45;of&#45;music/tonal&#45;pitch&#45;space/src/get&#45;power&#45;chroma.ts&#45;&gt;packages/util/stdlib/dist/index.js</title>
<path fill="none" stroke="#000000" stroke-opacity="0.200000" d="M354.86,-178.05C430.21,-192.46 569,-219 569,-219 569,-219 577,-236 577,-236 577,-236 600.41,-262.22 615.19,-278.77"/>
<polygon fill="#000000" fill-opacity="0.200000" stroke="#000000" stroke-opacity="0.200000" points="618.74,-282.75 613.74,-280.52 617.08,-280.89 615.41,-279.02 615.41,-279.02 615.41,-279.02 617.08,-280.89 617.09,-277.52 618.74,-282.75 618.74,-282.75"/>
</g>
<!-- packages/cognitive&#45;theory&#45;of&#45;music/tonal&#45;pitch&#45;space/src/get&#45;power&#45;chroma.ts&#45;&gt;packages/tonal&#45;objects/dist/index.js -->
<g id="edge20" class="edge">
<title>packages/cognitive&#45;theory&#45;of&#45;music/tonal&#45;pitch&#45;space/src/get&#45;power&#45;chroma.ts&#45;&gt;packages/tonal&#45;objects/dist/index.js</title>
<path fill="none" stroke="#000000" stroke-opacity="0.200000" d="M351.95,-159.93C367.43,-156.77 381,-154 381,-154 381,-154 394,-134 394,-134 394,-134 569,-117 569,-117 569,-117 583,-111.93 597.25,-106.77"/>
<polygon fill="#000000" fill-opacity="0.200000" stroke="#000000" stroke-opacity="0.200000" points="602.07,-105.03 598.13,-108.85 599.72,-105.88 597.36,-106.73 597.36,-106.73 597.36,-106.73 599.72,-105.88 596.6,-104.61 602.07,-105.03 602.07,-105.03"/>
</g>
<!-- packages/cognitive&#45;theory&#45;of&#45;music/tonal&#45;pitch&#45;space/src/get&#45;scale&#45;chroma.ts&#45;&gt;packages/util/math/dist/index.js -->
<g id="edge21" class="edge">
<title>packages/cognitive&#45;theory&#45;of&#45;music/tonal&#45;pitch&#45;space/src/get&#45;scale&#45;chroma.ts&#45;&gt;packages/util/math/dist/index.js</title>
<path fill="none" stroke="#000000" stroke-opacity="0.200000" d="M359.54,-198.84C426.52,-198.63 540.78,-198.27 595.71,-198.1"/>
<polygon fill="#000000" fill-opacity="0.200000" stroke="#000000" stroke-opacity="0.200000" points="600.83,-198.08 595.84,-200.35 598.33,-198.09 595.83,-198.1 595.83,-198.1 595.83,-198.1 598.33,-198.09 595.82,-195.85 600.83,-198.08 600.83,-198.08"/>
</g>
<!-- packages/cognitive&#45;theory&#45;of&#45;music/tonal&#45;pitch&#45;space/src/get&#45;scale&#45;chroma.ts&#45;&gt;packages/music&#45;structure/chord/roman&#45;chord/dist/index.js -->
<g id="edge22" class="edge">
<title>packages/cognitive&#45;theory&#45;of&#45;music/tonal&#45;pitch&#45;space/src/get&#45;scale&#45;chroma.ts&#45;&gt;packages/music&#45;structure/chord/roman&#45;chord/dist/index.js</title>
<path fill="none" stroke="#000000" stroke-opacity="0.200000" d="M315.05,-208.19C340.98,-239.75 426.48,-343.84 457.3,-381.36"/>
<polygon fill="#000000" fill-opacity="0.200000" stroke="#000000" stroke-opacity="0.200000" points="460.78,-385.6 455.87,-383.17 459.19,-383.67 457.61,-381.74 457.61,-381.74 457.61,-381.74 459.19,-383.67 459.34,-380.31 460.78,-385.6 460.78,-385.6"/>
</g>
<!-- packages/cognitive&#45;theory&#45;of&#45;music/tonal&#45;pitch&#45;space/src/get&#45;scale&#45;chroma.ts&#45;&gt;packages/util/stdlib/dist/index.js -->
<g id="edge23" class="edge">
<title>packages/cognitive&#45;theory&#45;of&#45;music/tonal&#45;pitch&#45;space/src/get&#45;scale&#45;chroma.ts&#45;&gt;packages/util/stdlib/dist/index.js</title>
<path fill="none" stroke="#000000" stroke-opacity="0.200000" d="M344.97,-208.03C417.27,-225.45 569,-262 569,-262 569,-262 588.65,-272.16 605.07,-280.66"/>
<polygon fill="#000000" fill-opacity="0.200000" stroke="#000000" stroke-opacity="0.200000" points="609.6,-283 604.12,-282.7 607.38,-281.85 605.16,-280.7 605.16,-280.7 605.16,-280.7 607.38,-281.85 606.19,-278.7 609.6,-283 609.6,-283"/>
</g>
<!-- packages/cognitive&#45;theory&#45;of&#45;music/tonal&#45;pitch&#45;space/src/get&#45;scale&#45;chroma.ts&#45;&gt;packages/tonal&#45;objects/dist/index.js -->
<g id="edge24" class="edge">
<title>packages/cognitive&#45;theory&#45;of&#45;music/tonal&#45;pitch&#45;space/src/get&#45;scale&#45;chroma.ts&#45;&gt;packages/tonal&#45;objects/dist/index.js</title>
<path fill="none" stroke="#000000" stroke-opacity="0.200000" d="M351.95,-189.93C367.43,-186.77 381,-184 381,-184 381,-184 394,-145 394,-145 394,-145 569,-130 569,-130 569,-130 590.12,-117.62 606.87,-107.8"/>
<polygon fill="#000000" fill-opacity="0.200000" stroke="#000000" stroke-opacity="0.200000" points="611.46,-105.11 608.28,-109.58 609.3,-106.38 607.14,-107.64 607.14,-107.64 607.14,-107.64 609.3,-106.38 606.01,-105.7 611.46,-105.11 611.46,-105.11"/>
</g>
<!-- packages/cognitive&#45;theory&#45;of&#45;music/tonal&#45;pitch&#45;space/src/get&#45;tonic&#45;chroma.ts&#45;&gt;packages/tonal&#45;objects/dist/index.js -->
<g id="edge25" class="edge">
<title>packages/cognitive&#45;theory&#45;of&#45;music/tonal&#45;pitch&#45;space/src/get&#45;tonic&#45;chroma.ts&#45;&gt;packages/tonal&#45;objects/dist/index.js</title>
<path fill="none" stroke="#000000" stroke-opacity="0.200000" d="M359.54,-106.88C426.52,-104.16 540.78,-99.51 595.71,-97.27"/>
<polygon fill="#000000" fill-opacity="0.200000" stroke="#000000" stroke-opacity="0.200000" points="600.83,-97.06 595.93,-99.52 598.33,-97.17 595.84,-97.27 595.84,-97.27 595.84,-97.27 598.33,-97.17 595.74,-95.02 600.83,-97.06 600.83,-97.06"/>
</g>
<!-- packages/cognitive&#45;theory&#45;of&#45;music/tonal&#45;pitch&#45;space/src/get&#45;keys&#45;include&#45;the&#45;chord.ts&#45;&gt;packages/tonal&#45;objects/dist/index.js -->
<g id="edge18" class="edge">
<title>packages/cognitive&#45;theory&#45;of&#45;music/tonal&#45;pitch&#45;space/src/get&#45;keys&#45;include&#45;the&#45;chord.ts&#45;&gt;packages/tonal&#45;objects/dist/index.js</title>
<path fill="none" stroke="#000000" stroke-opacity="0.200000" d="M381.2,-82.92C448.95,-86.53 546.12,-91.7 595.54,-94.33"/>
<polygon fill="#000000" fill-opacity="0.200000" stroke="#000000" stroke-opacity="0.200000" points="600.75,-94.6 595.64,-96.58 598.25,-94.47 595.76,-94.34 595.76,-94.34 595.76,-94.34 598.25,-94.47 595.88,-92.09 600.75,-94.6 600.75,-94.6"/>
</g>
<!-- packages/cognitive&#45;theory&#45;of&#45;music/tonal&#45;pitch&#45;space/src/get&#45;keys&#45;include&#45;the&#45;chord.ts&#45;&gt;packages/cognitive&#45;theory&#45;of&#45;music/tonal&#45;pitch&#45;space/src/does&#45;key&#45;include&#45;the&#45;chord.ts -->
<g id="edge17" class="edge">
<title>packages/cognitive&#45;theory&#45;of&#45;music/tonal&#45;pitch&#45;space/src/get&#45;keys&#45;include&#45;the&#45;chord.ts&#45;&gt;packages/cognitive&#45;theory&#45;of&#45;music/tonal&#45;pitch&#45;space/src/does&#45;key&#45;include&#45;the&#45;chord.ts</title>
<path fill="none" stroke="#000000" stroke-opacity="0.200000" d="M351.95,-88.07C367.43,-91.23 381,-94 381,-94 381,-94 426.83,-128.57 452.16,-147.67"/>
<polygon fill="#000000" fill-opacity="0.200000" stroke="#000000" stroke-opacity="0.200000" points="456.33,-150.82 450.99,-149.61 454.34,-149.32 452.34,-147.81 452.34,-147.81 452.34,-147.81 454.34,-149.32 453.7,-146.02 456.33,-150.82 456.33,-150.82"/>
</g>
</g>
</svg>
