<?xml version="1.0" encoding="UTF-8" standalone="no"?>
<!DOCTYPE svg PUBLIC "-//W3C//DTD SVG 1.1//EN"
 "http://www.w3.org/Graphics/SVG/1.1/DTD/svg11.dtd">
<!-- Generated by graphviz version 2.43.0 (0)
 -->
<!-- Title: dependency&#45;cruiser output Pages: 1 -->
<svg width="702pt" height="746pt"
 viewBox="0.00 0.00 701.51 746.43" xmlns="http://www.w3.org/2000/svg" xmlns:xlink="http://www.w3.org/1999/xlink">
<g id="graph0" class="graph" transform="scale(1 1) rotate(0) translate(4 742.43)">
<title>dependency&#45;cruiser output</title>
<polygon fill="white" stroke="transparent" points="-4,4 -4,-742.43 697.51,-742.43 697.51,4 -4,4"/>
<g id="clust1" class="cluster">
<title>cluster_packages</title>
<path fill="#ffffff" stroke="black" stroke-width="2" d="M12,0C12,0 681.51,0 681.51,0 687.51,0 693.51,-6 693.51,-12 693.51,-12 693.51,-726.43 693.51,-726.43 693.51,-732.43 687.51,-738.43 681.51,-738.43 681.51,-738.43 12,-738.43 12,-738.43 6,-738.43 0,-732.43 0,-726.43 0,-726.43 0,-12 0,-12 0,-6 6,0 12,0"/>
<text text-anchor="middle" x="346.75" y="-727.23" font-family="Helvetica,sans-Serif" font-weight="bold" font-size="9.00">packages</text>
</g>
<!-- packages/cognitive&#45;theory&#45;of&#45;music/tonal&#45;pitch&#45;space/dist/index.js -->
<g id="node1" class="node">
<title>packages/cognitive&#45;theory&#45;of&#45;music/tonal&#45;pitch&#45;space/dist/index.js</title>
<g id="a_node1"><a xlink:href="packages/cognitive-theory-of-music/tonal-pitch-space/dist/index.js" xlink:title="index.js">
<polygon fill="#ffffcc" stroke="black" points="54,-626.29 52.5,-628.29 42,-628.29 40.5,-626.29 0,-626.29 0,-608.29 54,-608.29 54,-626.29"/>
<text text-anchor="start" x="9.5" y="-615.09" font-family="Helvetica,sans-Serif" font-size="9.00">index.js</text>
</a>
</g>
</g>
<!-- packages/cognitive&#45;theory&#45;of&#45;music/tonal&#45;pitch&#45;space/index.test.ts -->
<g id="node2" class="node">
<title>packages/cognitive&#45;theory&#45;of&#45;music/tonal&#45;pitch&#45;space/index.test.ts</title>
<g id="a_node2"><a xlink:href="packages/cognitive-theory-of-music/tonal-pitch-space/index.test.ts" xlink:title="index.test.ts">
<path fill="#ddfeff" stroke="black" d="M231.3,-592.55C231.3,-592.55 170.3,-592.55 170.3,-592.55 167.3,-592.55 164.3,-589.55 164.3,-586.55 164.3,-586.55 164.3,-580.55 164.3,-580.55 164.3,-577.55 167.3,-574.55 170.3,-574.55 170.3,-574.55 231.3,-574.55 231.3,-574.55 234.3,-574.55 237.3,-577.55 237.3,-580.55 237.3,-580.55 237.3,-586.55 237.3,-586.55 237.3,-589.55 234.3,-592.55 231.3,-592.55"/>
<text text-anchor="start" x="172.3" y="-581.35" font-family="Helvetica,sans-Serif" font-size="9.00">index.test.ts</text>
</a>
</g>
</g>
<!-- packages/cognitive&#45;theory&#45;of&#45;music/tonal&#45;pitch&#45;space/index.test.ts&#45;&gt;packages/cognitive&#45;theory&#45;of&#45;music/tonal&#45;pitch&#45;space/dist/index.js -->
<g id="edge1" class="edge">
<title>packages/cognitive&#45;theory&#45;of&#45;music/tonal&#45;pitch&#45;space/index.test.ts&#45;&gt;packages/cognitive&#45;theory&#45;of&#45;music/tonal&#45;pitch&#45;space/dist/index.js</title>
<path fill="none" stroke="#000000" stroke-width="2" stroke-opacity="0.200000" d="M163.94,-590.71C133.24,-596.66 89.91,-605.08 60.25,-610.83"/>
<polygon fill="#000000" fill-opacity="0.200000" stroke="#000000" stroke-width="2" stroke-opacity="0.200000" points="59.63,-608.81 54.14,-612.02 60.43,-612.94 59.63,-608.81"/>
</g>
<!-- packages/util/math/dist/index.js -->
<g id="node3" class="node">
<title>packages/util/math/dist/index.js</title>
<g id="a_node3"><a xlink:href="packages/util/math/dist/index.js" xlink:title="index.js">
<polygon fill="#ffffcc" stroke="black" points="373.76,-502.33 372.26,-504.33 361.76,-504.33 360.26,-502.33 319.76,-502.33 319.76,-484.33 373.76,-484.33 373.76,-502.33"/>
<text text-anchor="start" x="329.26" y="-491.13" font-family="Helvetica,sans-Serif" font-size="9.00">index.js</text>
</a>
</g>
</g>
<!-- packages/cognitive&#45;theory&#45;of&#45;music/tonal&#45;pitch&#45;space/index.test.ts&#45;&gt;packages/util/math/dist/index.js -->
<g id="edge2" class="edge">
<title>packages/cognitive&#45;theory&#45;of&#45;music/tonal&#45;pitch&#45;space/index.test.ts&#45;&gt;packages/util/math/dist/index.js</title>
<path fill="none" stroke="#000000" stroke-width="2" stroke-opacity="0.200000" d="M215.6,-574.4C241.94,-558.13 296.96,-524.12 326.68,-505.75"/>
<polygon fill="#000000" fill-opacity="0.200000" stroke="#000000" stroke-width="2" stroke-opacity="0.200000" points="327.93,-507.45 331.93,-502.51 325.72,-503.87 327.93,-507.45"/>
</g>
<!-- packages/music&#45;structure/chord/roman&#45;chord/dist/index.js -->
<g id="node4" class="node">
<title>packages/music&#45;structure/chord/roman&#45;chord/dist/index.js</title>
<g id="a_node4"><a xlink:href="packages/music-structure/chord/roman-chord/dist/index.js" xlink:title="index.js">
<polygon fill="#ffffcc" stroke="black" points="339,-738.43 337.5,-740.43 327,-740.43 325.5,-738.43 285,-738.43 285,-720.43 339,-720.43 339,-738.43"/>
<text text-anchor="start" x="294.5" y="-727.23" font-family="Helvetica,sans-Serif" font-size="9.00">index.js</text>
</a>
</g>
</g>
<!-- packages/cognitive&#45;theory&#45;of&#45;music/tonal&#45;pitch&#45;space/index.test.ts&#45;&gt;packages/music&#45;structure/chord/roman&#45;chord/dist/index.js -->
<g id="edge3" class="edge">
<title>packages/cognitive&#45;theory&#45;of&#45;music/tonal&#45;pitch&#45;space/index.test.ts&#45;&gt;packages/music&#45;structure/chord/roman&#45;chord/dist/index.js</title>
<path fill="none" stroke="#000000" stroke-width="2" stroke-opacity="0.200000" d="M207.76,-592.68C226.56,-617.34 278.48,-685.46 301.16,-715.22"/>
<polygon fill="#000000" fill-opacity="0.200000" stroke="#000000" stroke-width="2" stroke-opacity="0.200000" points="299.73,-716.81 305.04,-720.31 303.07,-714.26 299.73,-716.81"/>
</g>
<!-- packages/util/stdlib/dist/index.js -->
<g id="node5" class="node">
<title>packages/util/stdlib/dist/index.js</title>
<g id="a_node5"><a xlink:href="packages/util/stdlib/dist/index.js" xlink:title="index.js">
<polygon fill="#ffffcc" stroke="black" points="240.05,-699.42 238.55,-701.42 228.05,-701.42 226.55,-699.42 186.05,-699.42 186.05,-681.42 240.05,-681.42 240.05,-699.42"/>
<text text-anchor="start" x="195.55" y="-688.22" font-family="Helvetica,sans-Serif" font-size="9.00">index.js</text>
</a>
</g>
</g>
<!-- packages/cognitive&#45;theory&#45;of&#45;music/tonal&#45;pitch&#45;space/index.test.ts&#45;&gt;packages/util/stdlib/dist/index.js -->
<g id="edge4" class="edge">
<title>packages/cognitive&#45;theory&#45;of&#45;music/tonal&#45;pitch&#45;space/index.test.ts&#45;&gt;packages/util/stdlib/dist/index.js</title>
<path fill="none" stroke="#000000" stroke-width="2" stroke-opacity="0.200000" d="M201.85,-592.66C203.95,-611.04 208.73,-652.71 211.31,-675.26"/>
<polygon fill="#000000" fill-opacity="0.200000" stroke="#000000" stroke-width="2" stroke-opacity="0.200000" points="209.24,-675.61 212.01,-681.33 213.41,-675.13 209.24,-675.61"/>
</g>
<!-- packages/tonal&#45;objects/dist/index.js -->
<g id="node6" class="node">
<title>packages/tonal&#45;objects/dist/index.js</title>
<g id="a_node6"><a xlink:href="packages/tonal-objects/dist/index.js" xlink:title="index.js">
<polygon fill="#ffffcc" stroke="black" points="341,-451.35 339.5,-453.35 329,-453.35 327.5,-451.35 287,-451.35 287,-433.35 341,-433.35 341,-451.35"/>
<text text-anchor="start" x="296.5" y="-440.15" font-family="Helvetica,sans-Serif" font-size="9.00">index.js</text>
</a>
</g>
</g>
<!-- packages/cognitive&#45;theory&#45;of&#45;music/tonal&#45;pitch&#45;space/index.test.ts&#45;&gt;packages/tonal&#45;objects/dist/index.js -->
<g id="edge5" class="edge">
<title>packages/cognitive&#45;theory&#45;of&#45;music/tonal&#45;pitch&#45;space/index.test.ts&#45;&gt;packages/tonal&#45;objects/dist/index.js</title>
<path fill="none" stroke="#000000" stroke-width="2" stroke-opacity="0.200000" d="M208.23,-574.29C227.59,-550.14 279.67,-485.18 302.74,-456.4"/>
<polygon fill="#000000" fill-opacity="0.200000" stroke="#000000" stroke-width="2" stroke-opacity="0.200000" points="304.58,-457.46 306.7,-451.47 301.3,-454.83 304.58,-457.46"/>
</g>
<!-- packages/cognitive&#45;theory&#45;of&#45;music/tonal&#45;pitch&#45;space/index.ts -->
<g id="node7" class="node">
<title>packages/cognitive&#45;theory&#45;of&#45;music/tonal&#45;pitch&#45;space/index.ts</title>
<g id="a_node7"><a xlink:href="packages/cognitive-theory-of-music/tonal-pitch-space/index.ts" xlink:title="index.ts">
<path fill="#ddfeff" stroke="black" d="M474.51,-18C474.51,-18 432.51,-18 432.51,-18 429.51,-18 426.51,-15 426.51,-12 426.51,-12 426.51,-6 426.51,-6 426.51,-3 429.51,0 432.51,0 432.51,0 474.51,0 474.51,0 477.51,0 480.51,-3 480.51,-6 480.51,-6 480.51,-12 480.51,-12 480.51,-15 477.51,-18 474.51,-18"/>
<text text-anchor="start" x="435.01" y="-6.8" font-family="Helvetica,sans-Serif" font-size="9.00">index.ts</text>
</a>
</g>
</g>
<!-- packages/cognitive&#45;theory&#45;of&#45;music/tonal&#45;pitch&#45;space/src/index.ts -->
<g id="node8" class="node">
<title>packages/cognitive&#45;theory&#45;of&#45;music/tonal&#45;pitch&#45;space/src/index.ts</title>
<g id="a_node8"><a xlink:href="packages/cognitive-theory-of-music/tonal-pitch-space/src/index.ts" xlink:title="index.ts">
<path fill="#ddfeff" stroke="black" d="M515.43,-172.63C515.43,-172.63 473.43,-172.63 473.43,-172.63 470.43,-172.63 467.43,-169.63 467.43,-166.63 467.43,-166.63 467.43,-160.63 467.43,-160.63 467.43,-157.63 470.43,-154.63 473.43,-154.63 473.43,-154.63 515.43,-154.63 515.43,-154.63 518.43,-154.63 521.43,-157.63 521.43,-160.63 521.43,-160.63 521.43,-166.63 521.43,-166.63 521.43,-169.63 518.43,-172.63 515.43,-172.63"/>
<text text-anchor="start" x="475.93" y="-161.43" font-family="Helvetica,sans-Serif" font-size="9.00">index.ts</text>
</a>
</g>
</g>
<!-- packages/cognitive&#45;theory&#45;of&#45;music/tonal&#45;pitch&#45;space/index.ts&#45;&gt;packages/cognitive&#45;theory&#45;of&#45;music/tonal&#45;pitch&#45;space/src/index.ts -->
<g id="edge6" class="edge">
<title>packages/cognitive&#45;theory&#45;of&#45;music/tonal&#45;pitch&#45;space/index.ts&#45;&gt;packages/cognitive&#45;theory&#45;of&#45;music/tonal&#45;pitch&#45;space/src/index.ts</title>
<path fill="none" stroke="#000000" stroke-width="2" stroke-opacity="0.200000" d="M455.95,-18.21C462.72,-43.82 481.86,-116.12 490.32,-148.09"/>
<polygon fill="#000000" fill-opacity="0.200000" stroke="#000000" stroke-width="2" stroke-opacity="0.200000" points="489.93,-154.81 490.42,-148.47 493.99,-153.73 489.93,-154.81"/>
</g>
<!-- packages/cognitive&#45;theory&#45;of&#45;music/tonal&#45;pitch&#45;space/src/get&#45;distance.ts -->
<g id="node15" class="node">
<title>packages/cognitive&#45;theory&#45;of&#45;music/tonal&#45;pitch&#45;space/src/get&#45;distance.ts</title>
<g id="a_node15"><a xlink:href="packages/cognitive-theory-of-music/tonal-pitch-space/src/get-distance.ts" xlink:title="get&#45;distance.ts">
<polygon fill="#ddfeff" stroke="black" points="693.51,-143.13 692.01,-145.13 681.51,-145.13 680.01,-143.13 609.51,-143.13 609.51,-125.13 693.51,-125.13 693.51,-143.13"/>
<text text-anchor="start" x="617.51" y="-131.93" font-family="Helvetica,sans-Serif" font-size="9.00">get&#45;distance.ts</text>
</a>
</g>
</g>
<!-- packages/cognitive&#45;theory&#45;of&#45;music/tonal&#45;pitch&#45;space/src/index.ts&#45;&gt;packages/cognitive&#45;theory&#45;of&#45;music/tonal&#45;pitch&#45;space/src/get&#45;distance.ts -->
<g id="edge26" class="edge">
<title>packages/cognitive&#45;theory&#45;of&#45;music/tonal&#45;pitch&#45;space/src/index.ts&#45;&gt;packages/cognitive&#45;theory&#45;of&#45;music/tonal&#45;pitch&#45;space/src/get&#45;distance.ts</title>
<path fill="none" stroke="#000000" stroke-width="2" stroke-opacity="0.200000" d="M521.43,-158.56C543.86,-154.34 576.32,-148.25 603.21,-143.2"/>
<polygon fill="#000000" fill-opacity="0.200000" stroke="#000000" stroke-width="2" stroke-opacity="0.200000" points="609.59,-144.14 603.31,-143.18 608.81,-140.01 609.59,-144.14"/>
</g>
<!-- packages/cognitive&#45;theory&#45;of&#45;music/tonal&#45;pitch&#45;space/src/get&#45;keys&#45;include&#45;the&#45;chord.ts -->
<g id="node16" class="node">
<title>packages/cognitive&#45;theory&#45;of&#45;music/tonal&#45;pitch&#45;space/src/get&#45;keys&#45;include&#45;the&#45;chord.ts</title>
<g id="a_node16"><a xlink:href="packages/cognitive-theory-of-music/tonal-pitch-space/src/get-keys-include-the-chord.ts" xlink:title="get&#45;keys&#45;include&#45;the&#45;chord.ts">
<path fill="#ddfeff" stroke="black" d="M506.76,-305.94C506.76,-305.94 369.76,-305.94 369.76,-305.94 366.76,-305.94 363.76,-302.94 363.76,-299.94 363.76,-299.94 363.76,-293.94 363.76,-293.94 363.76,-290.94 366.76,-287.94 369.76,-287.94 369.76,-287.94 506.76,-287.94 506.76,-287.94 509.76,-287.94 512.76,-290.94 512.76,-293.94 512.76,-293.94 512.76,-299.94 512.76,-299.94 512.76,-302.94 509.76,-305.94 506.76,-305.94"/>
<text text-anchor="start" x="371.76" y="-294.74" font-family="Helvetica,sans-Serif" font-size="9.00">get&#45;keys&#45;include&#45;the&#45;chord.ts</text>
</a>
</g>
</g>
<!-- packages/cognitive&#45;theory&#45;of&#45;music/tonal&#45;pitch&#45;space/src/index.ts&#45;&gt;packages/cognitive&#45;theory&#45;of&#45;music/tonal&#45;pitch&#45;space/src/get&#45;keys&#45;include&#45;the&#45;chord.ts -->
<g id="edge27" class="edge">
<title>packages/cognitive&#45;theory&#45;of&#45;music/tonal&#45;pitch&#45;space/src/index.ts&#45;&gt;packages/cognitive&#45;theory&#45;of&#45;music/tonal&#45;pitch&#45;space/src/get&#45;keys&#45;include&#45;the&#45;chord.ts</title>
<path fill="none" stroke="#000000" stroke-width="2" stroke-opacity="0.200000" d="M490.57,-172.79C481.03,-195.43 456.27,-254.19 444.57,-281.97"/>
<polygon fill="#000000" fill-opacity="0.200000" stroke="#000000" stroke-width="2" stroke-opacity="0.200000" points="440.21,-286.89 444.48,-282.18 444.08,-288.52 440.21,-286.89"/>
</g>
<!-- packages/cognitive&#45;theory&#45;of&#45;music/tonal&#45;pitch&#45;space/src/does&#45;key&#45;include&#45;the&#45;chord.ts -->
<g id="node9" class="node">
<title>packages/cognitive&#45;theory&#45;of&#45;music/tonal&#45;pitch&#45;space/src/does&#45;key&#45;include&#45;the&#45;chord.ts</title>
<g id="a_node9"><a xlink:href="packages/cognitive-theory-of-music/tonal-pitch-space/src/does-key-include-the-chord.ts" xlink:title="does&#45;key&#45;include&#45;the&#45;chord.ts">
<path fill="#ddfeff" stroke="black" d="M349.63,-330.9C349.63,-330.9 210.63,-330.9 210.63,-330.9 207.63,-330.9 204.63,-327.9 204.63,-324.9 204.63,-324.9 204.63,-318.9 204.63,-318.9 204.63,-315.9 207.63,-312.9 210.63,-312.9 210.63,-312.9 349.63,-312.9 349.63,-312.9 352.63,-312.9 355.63,-315.9 355.63,-318.9 355.63,-318.9 355.63,-324.9 355.63,-324.9 355.63,-327.9 352.63,-330.9 349.63,-330.9"/>
<text text-anchor="start" x="212.63" y="-319.7" font-family="Helvetica,sans-Serif" font-size="9.00">does&#45;key&#45;include&#45;the&#45;chord.ts</text>
</a>
</g>
</g>
<!-- packages/cognitive&#45;theory&#45;of&#45;music/tonal&#45;pitch&#45;space/src/does&#45;key&#45;include&#45;the&#45;chord.ts&#45;&gt;packages/util/math/dist/index.js -->
<g id="edge7" class="edge">
<title>packages/cognitive&#45;theory&#45;of&#45;music/tonal&#45;pitch&#45;space/src/does&#45;key&#45;include&#45;the&#45;chord.ts&#45;&gt;packages/util/math/dist/index.js</title>
<path fill="none" stroke="#000000" stroke-width="2" stroke-opacity="0.200000" d="M283.71,-331.12C294.6,-359.14 327.4,-443.52 340.88,-478.2"/>
<polygon fill="#000000" fill-opacity="0.200000" stroke="#000000" stroke-width="2" stroke-opacity="0.200000" points="339.03,-479.24 343.16,-484.07 342.95,-477.72 339.03,-479.24"/>
</g>
<!-- packages/cognitive&#45;theory&#45;of&#45;music/tonal&#45;pitch&#45;space/src/does&#45;key&#45;include&#45;the&#45;chord.ts&#45;&gt;packages/tonal&#45;objects/dist/index.js -->
<g id="edge8" class="edge">
<title>packages/cognitive&#45;theory&#45;of&#45;music/tonal&#45;pitch&#45;space/src/does&#45;key&#45;include&#45;the&#45;chord.ts&#45;&gt;packages/tonal&#45;objects/dist/index.js</title>
<path fill="none" stroke="#000000" stroke-width="2" stroke-opacity="0.200000" d="M282.67,-330.95C288.46,-351.53 302.65,-401.99 309.78,-427.33"/>
<polygon fill="#000000" fill-opacity="0.200000" stroke="#000000" stroke-width="2" stroke-opacity="0.200000" points="307.78,-427.99 311.43,-433.19 311.82,-426.85 307.78,-427.99"/>
</g>
<!-- packages/cognitive&#45;theory&#45;of&#45;music/tonal&#45;pitch&#45;space/src/get&#45;basic&#45;space.ts -->
<g id="node10" class="node">
<title>packages/cognitive&#45;theory&#45;of&#45;music/tonal&#45;pitch&#45;space/src/get&#45;basic&#45;space.ts</title>
<g id="a_node10"><a xlink:href="packages/cognitive-theory-of-music/tonal-pitch-space/src/get-basic-space.ts" xlink:title="get&#45;basic&#45;space.ts">
<path fill="#ddfeff" stroke="black" d="M337.31,-597.02C337.31,-597.02 251.31,-597.02 251.31,-597.02 248.31,-597.02 245.31,-594.02 245.31,-591.02 245.31,-591.02 245.31,-585.02 245.31,-585.02 245.31,-582.02 248.31,-579.02 251.31,-579.02 251.31,-579.02 337.31,-579.02 337.31,-579.02 340.31,-579.02 343.31,-582.02 343.31,-585.02 343.31,-585.02 343.31,-591.02 343.31,-591.02 343.31,-594.02 340.31,-597.02 337.31,-597.02"/>
<text text-anchor="start" x="253.31" y="-585.82" font-family="Helvetica,sans-Serif" font-size="9.00">get&#45;basic&#45;space.ts</text>
</a>
</g>
</g>
<!-- packages/cognitive&#45;theory&#45;of&#45;music/tonal&#45;pitch&#45;space/src/get&#45;basic&#45;space.ts&#45;&gt;packages/util/math/dist/index.js -->
<g id="edge13" class="edge">
<title>packages/cognitive&#45;theory&#45;of&#45;music/tonal&#45;pitch&#45;space/src/get&#45;basic&#45;space.ts&#45;&gt;packages/util/math/dist/index.js</title>
<path fill="none" stroke="#000000" stroke-width="2" stroke-opacity="0.200000" d="M299.34,-578.94C308.44,-562.51 327.72,-527.72 338.68,-507.92"/>
<polygon fill="#000000" fill-opacity="0.200000" stroke="#000000" stroke-width="2" stroke-opacity="0.200000" points="340.6,-508.79 341.67,-502.52 336.93,-506.76 340.6,-508.79"/>
</g>
<!-- packages/cognitive&#45;theory&#45;of&#45;music/tonal&#45;pitch&#45;space/src/get&#45;basic&#45;space.ts&#45;&gt;packages/music&#45;structure/chord/roman&#45;chord/dist/index.js -->
<g id="edge14" class="edge">
<title>packages/cognitive&#45;theory&#45;of&#45;music/tonal&#45;pitch&#45;space/src/get&#45;basic&#45;space.ts&#45;&gt;packages/music&#45;structure/chord/roman&#45;chord/dist/index.js</title>
<path fill="none" stroke="#000000" stroke-width="2" stroke-opacity="0.200000" d="M295.47,-597.3C298.46,-621.18 306.43,-684.93 310.1,-714.27"/>
<polygon fill="#000000" fill-opacity="0.200000" stroke="#000000" stroke-width="2" stroke-opacity="0.200000" points="308.03,-714.61 310.85,-720.3 312.19,-714.09 308.03,-714.61"/>
</g>
<!-- packages/cognitive&#45;theory&#45;of&#45;music/tonal&#45;pitch&#45;space/src/get&#45;basic&#45;space.ts&#45;&gt;packages/util/stdlib/dist/index.js -->
<g id="edge15" class="edge">
<title>packages/cognitive&#45;theory&#45;of&#45;music/tonal&#45;pitch&#45;space/src/get&#45;basic&#45;space.ts&#45;&gt;packages/util/stdlib/dist/index.js</title>
<path fill="none" stroke="#000000" stroke-width="2" stroke-opacity="0.200000" d="M287.1,-597.11C272.86,-615.05 241.05,-655.14 224.13,-676.46"/>
<polygon fill="#000000" fill-opacity="0.200000" stroke="#000000" stroke-width="2" stroke-opacity="0.200000" points="222.45,-675.2 220.36,-681.21 225.74,-677.81 222.45,-675.2"/>
</g>
<!-- packages/cognitive&#45;theory&#45;of&#45;music/tonal&#45;pitch&#45;space/src/get&#45;chord&#45;chroma.ts -->
<g id="node11" class="node">
<title>packages/cognitive&#45;theory&#45;of&#45;music/tonal&#45;pitch&#45;space/src/get&#45;chord&#45;chroma.ts</title>
<g id="a_node11"><a xlink:href="packages/cognitive-theory-of-music/tonal-pitch-space/src/get-chord-chroma.ts" xlink:title="get&#45;chord&#45;chroma.ts">
<path fill="#ddfeff" stroke="black" d="M226.12,-422.56C226.12,-422.56 128.12,-422.56 128.12,-422.56 125.12,-422.56 122.12,-419.56 122.12,-416.56 122.12,-416.56 122.12,-410.56 122.12,-410.56 122.12,-407.56 125.12,-404.56 128.12,-404.56 128.12,-404.56 226.12,-404.56 226.12,-404.56 229.12,-404.56 232.12,-407.56 232.12,-410.56 232.12,-410.56 232.12,-416.56 232.12,-416.56 232.12,-419.56 229.12,-422.56 226.12,-422.56"/>
<text text-anchor="start" x="130.12" y="-411.36" font-family="Helvetica,sans-Serif" font-size="9.00">get&#45;chord&#45;chroma.ts</text>
</a>
</g>
</g>
<!-- packages/cognitive&#45;theory&#45;of&#45;music/tonal&#45;pitch&#45;space/src/get&#45;basic&#45;space.ts&#45;&gt;packages/cognitive&#45;theory&#45;of&#45;music/tonal&#45;pitch&#45;space/src/get&#45;chord&#45;chroma.ts -->
<g id="edge9" class="edge">
<title>packages/cognitive&#45;theory&#45;of&#45;music/tonal&#45;pitch&#45;space/src/get&#45;basic&#45;space.ts&#45;&gt;packages/cognitive&#45;theory&#45;of&#45;music/tonal&#45;pitch&#45;space/src/get&#45;chord&#45;chroma.ts</title>
<path fill="none" stroke="#000000" stroke-width="2" stroke-opacity="0.200000" d="M288.01,-578.64C268.6,-549.75 209.66,-462.01 186.55,-427.61"/>
<polygon fill="#000000" fill-opacity="0.200000" stroke="#000000" stroke-width="2" stroke-opacity="0.200000" points="188.25,-426.37 183.16,-422.56 184.77,-428.71 188.25,-426.37"/>
</g>
<!-- packages/cognitive&#45;theory&#45;of&#45;music/tonal&#45;pitch&#45;space/src/get&#45;power&#45;chroma.ts -->
<g id="node12" class="node">
<title>packages/cognitive&#45;theory&#45;of&#45;music/tonal&#45;pitch&#45;space/src/get&#45;power&#45;chroma.ts</title>
<g id="a_node12"><a xlink:href="packages/cognitive-theory-of-music/tonal-pitch-space/src/get-power-chroma.ts" xlink:title="get&#45;power&#45;chroma.ts">
<path fill="#ddfeff" stroke="black" d="M214.1,-525.22C214.1,-525.22 116.1,-525.22 116.1,-525.22 113.1,-525.22 110.1,-522.22 110.1,-519.22 110.1,-519.22 110.1,-513.22 110.1,-513.22 110.1,-510.22 113.1,-507.22 116.1,-507.22 116.1,-507.22 214.1,-507.22 214.1,-507.22 217.1,-507.22 220.1,-510.22 220.1,-513.22 220.1,-513.22 220.1,-519.22 220.1,-519.22 220.1,-522.22 217.1,-525.22 214.1,-525.22"/>
<text text-anchor="start" x="118.1" y="-514.02" font-family="Helvetica,sans-Serif" font-size="9.00">get&#45;power&#45;chroma.ts</text>
</a>
</g>
</g>
<!-- packages/cognitive&#45;theory&#45;of&#45;music/tonal&#45;pitch&#45;space/src/get&#45;basic&#45;space.ts&#45;&gt;packages/cognitive&#45;theory&#45;of&#45;music/tonal&#45;pitch&#45;space/src/get&#45;power&#45;chroma.ts -->
<g id="edge10" class="edge">
<title>packages/cognitive&#45;theory&#45;of&#45;music/tonal&#45;pitch&#45;space/src/get&#45;basic&#45;space.ts&#45;&gt;packages/cognitive&#45;theory&#45;of&#45;music/tonal&#45;pitch&#45;space/src/get&#45;power&#45;chroma.ts</title>
<path fill="none" stroke="#000000" stroke-width="2" stroke-opacity="0.200000" d="M277.95,-578.93C254.84,-566.09 212.61,-542.62 186.87,-528.32"/>
<polygon fill="#000000" fill-opacity="0.200000" stroke="#000000" stroke-width="2" stroke-opacity="0.200000" points="187.6,-526.32 181.33,-525.24 185.56,-529.99 187.6,-526.32"/>
</g>
<!-- packages/cognitive&#45;theory&#45;of&#45;music/tonal&#45;pitch&#45;space/src/get&#45;scale&#45;chroma.ts -->
<g id="node13" class="node">
<title>packages/cognitive&#45;theory&#45;of&#45;music/tonal&#45;pitch&#45;space/src/get&#45;scale&#45;chroma.ts</title>
<g id="a_node13"><a xlink:href="packages/cognitive-theory-of-music/tonal-pitch-space/src/get-scale-chroma.ts" xlink:title="get&#45;scale&#45;chroma.ts">
<path fill="#ddfeff" stroke="black" d="M433.62,-629.54C433.62,-629.54 339.62,-629.54 339.62,-629.54 336.62,-629.54 333.62,-626.54 333.62,-623.54 333.62,-623.54 333.62,-617.54 333.62,-617.54 333.62,-614.54 336.62,-611.54 339.62,-611.54 339.62,-611.54 433.62,-611.54 433.62,-611.54 436.62,-611.54 439.62,-614.54 439.62,-617.54 439.62,-617.54 439.62,-623.54 439.62,-623.54 439.62,-626.54 436.62,-629.54 433.62,-629.54"/>
<text text-anchor="start" x="341.62" y="-618.34" font-family="Helvetica,sans-Serif" font-size="9.00">get&#45;scale&#45;chroma.ts</text>
</a>
</g>
</g>
<!-- packages/cognitive&#45;theory&#45;of&#45;music/tonal&#45;pitch&#45;space/src/get&#45;basic&#45;space.ts&#45;&gt;packages/cognitive&#45;theory&#45;of&#45;music/tonal&#45;pitch&#45;space/src/get&#45;scale&#45;chroma.ts -->
<g id="edge11" class="edge">
<title>packages/cognitive&#45;theory&#45;of&#45;music/tonal&#45;pitch&#45;space/src/get&#45;basic&#45;space.ts&#45;&gt;packages/cognitive&#45;theory&#45;of&#45;music/tonal&#45;pitch&#45;space/src/get&#45;scale&#45;chroma.ts</title>
<path fill="none" stroke="#000000" stroke-width="2" stroke-opacity="0.200000" d="M320.03,-597.08C330.93,-600.92 343.74,-605.43 355.2,-609.47"/>
<polygon fill="#000000" fill-opacity="0.200000" stroke="#000000" stroke-width="2" stroke-opacity="0.200000" points="354.69,-611.52 361.05,-611.53 356.09,-607.55 354.69,-611.52"/>
</g>
<!-- packages/cognitive&#45;theory&#45;of&#45;music/tonal&#45;pitch&#45;space/src/get&#45;tonic&#45;chroma.ts -->
<g id="node14" class="node">
<title>packages/cognitive&#45;theory&#45;of&#45;music/tonal&#45;pitch&#45;space/src/get&#45;tonic&#45;chroma.ts</title>
<g id="a_node14"><a xlink:href="packages/cognitive-theory-of-music/tonal-pitch-space/src/get-tonic-chroma.ts" xlink:title="get&#45;tonic&#45;chroma.ts">
<path fill="#ddfeff" stroke="black" d="M510.43,-540.25C510.43,-540.25 416.43,-540.25 416.43,-540.25 413.43,-540.25 410.43,-537.25 410.43,-534.25 410.43,-534.25 410.43,-528.25 410.43,-528.25 410.43,-525.25 413.43,-522.25 416.43,-522.25 416.43,-522.25 510.43,-522.25 510.43,-522.25 513.43,-522.25 516.43,-525.25 516.43,-528.25 516.43,-528.25 516.43,-534.25 516.43,-534.25 516.43,-537.25 513.43,-540.25 510.43,-540.25"/>
<text text-anchor="start" x="418.43" y="-529.05" font-family="Helvetica,sans-Serif" font-size="9.00">get&#45;tonic&#45;chroma.ts</text>
</a>
</g>
</g>
<!-- packages/cognitive&#45;theory&#45;of&#45;music/tonal&#45;pitch&#45;space/src/get&#45;basic&#45;space.ts&#45;&gt;packages/cognitive&#45;theory&#45;of&#45;music/tonal&#45;pitch&#45;space/src/get&#45;tonic&#45;chroma.ts -->
<g id="edge12" class="edge">
<title>packages/cognitive&#45;theory&#45;of&#45;music/tonal&#45;pitch&#45;space/src/get&#45;basic&#45;space.ts&#45;&gt;packages/cognitive&#45;theory&#45;of&#45;music/tonal&#45;pitch&#45;space/src/get&#45;tonic&#45;chroma.ts</title>
<path fill="none" stroke="#000000" stroke-width="2" stroke-opacity="0.200000" d="M321.48,-578.9C351.28,-568.9 399.08,-552.85 430.87,-542.18"/>
<polygon fill="#000000" fill-opacity="0.200000" stroke="#000000" stroke-width="2" stroke-opacity="0.200000" points="431.59,-544.16 436.61,-540.26 430.25,-540.17 431.59,-544.16"/>
</g>
<!-- packages/cognitive&#45;theory&#45;of&#45;music/tonal&#45;pitch&#45;space/src/get&#45;chord&#45;chroma.ts&#45;&gt;packages/tonal&#45;objects/dist/index.js -->
<g id="edge16" class="edge">
<title>packages/cognitive&#45;theory&#45;of&#45;music/tonal&#45;pitch&#45;space/src/get&#45;chord&#45;chroma.ts&#45;&gt;packages/tonal&#45;objects/dist/index.js</title>
<path fill="none" stroke="#000000" stroke-width="2" stroke-opacity="0.200000" d="M220.05,-422.59C239.64,-426.71 262.47,-431.51 280.72,-435.35"/>
<polygon fill="#000000" fill-opacity="0.200000" stroke="#000000" stroke-width="2" stroke-opacity="0.200000" points="280.42,-437.43 286.73,-436.61 281.29,-433.32 280.42,-437.43"/>
</g>
<!-- packages/cognitive&#45;theory&#45;of&#45;music/tonal&#45;pitch&#45;space/src/get&#45;power&#45;chroma.ts&#45;&gt;packages/util/stdlib/dist/index.js -->
<g id="edge19" class="edge">
<title>packages/cognitive&#45;theory&#45;of&#45;music/tonal&#45;pitch&#45;space/src/get&#45;power&#45;chroma.ts&#45;&gt;packages/util/stdlib/dist/index.js</title>
<path fill="none" stroke="#000000" stroke-width="2" stroke-opacity="0.200000" d="M167.68,-525.59C175.52,-554.06 199.12,-639.8 208.82,-675.04"/>
<polygon fill="#000000" fill-opacity="0.200000" stroke="#000000" stroke-width="2" stroke-opacity="0.200000" points="206.84,-675.78 210.46,-681.01 210.89,-674.67 206.84,-675.78"/>
</g>
<!-- packages/cognitive&#45;theory&#45;of&#45;music/tonal&#45;pitch&#45;space/src/get&#45;power&#45;chroma.ts&#45;&gt;packages/tonal&#45;objects/dist/index.js -->
<g id="edge20" class="edge">
<title>packages/cognitive&#45;theory&#45;of&#45;music/tonal&#45;pitch&#45;space/src/get&#45;power&#45;chroma.ts&#45;&gt;packages/tonal&#45;objects/dist/index.js</title>
<path fill="none" stroke="#000000" stroke-width="2" stroke-opacity="0.200000" d="M183.36,-507.17C210.15,-493.87 260.16,-469.07 289.92,-454.3"/>
<polygon fill="#000000" fill-opacity="0.200000" stroke="#000000" stroke-width="2" stroke-opacity="0.200000" points="291.15,-456.03 295.6,-451.48 289.29,-452.27 291.15,-456.03"/>
</g>
<!-- packages/cognitive&#45;theory&#45;of&#45;music/tonal&#45;pitch&#45;space/src/get&#45;scale&#45;chroma.ts&#45;&gt;packages/util/math/dist/index.js -->
<g id="edge21" class="edge">
<title>packages/cognitive&#45;theory&#45;of&#45;music/tonal&#45;pitch&#45;space/src/get&#45;scale&#45;chroma.ts&#45;&gt;packages/util/math/dist/index.js</title>
<path fill="none" stroke="#000000" stroke-width="2" stroke-opacity="0.200000" d="M383.76,-611.39C376.95,-589.66 359.75,-534.79 351.43,-508.21"/>
<polygon fill="#000000" fill-opacity="0.200000" stroke="#000000" stroke-width="2" stroke-opacity="0.200000" points="353.4,-507.5 349.6,-502.4 349.39,-508.75 353.4,-507.5"/>
</g>
<!-- packages/cognitive&#45;theory&#45;of&#45;music/tonal&#45;pitch&#45;space/src/get&#45;scale&#45;chroma.ts&#45;&gt;packages/music&#45;structure/chord/roman&#45;chord/dist/index.js -->
<g id="edge22" class="edge">
<title>packages/cognitive&#45;theory&#45;of&#45;music/tonal&#45;pitch&#45;space/src/get&#45;scale&#45;chroma.ts&#45;&gt;packages/music&#45;structure/chord/roman&#45;chord/dist/index.js</title>
<path fill="none" stroke="#000000" stroke-width="2" stroke-opacity="0.200000" d="M380.26,-629.82C367.21,-648.87 337.33,-692.47 321.79,-715.14"/>
<polygon fill="#000000" fill-opacity="0.200000" stroke="#000000" stroke-width="2" stroke-opacity="0.200000" points="320,-714.03 318.34,-720.17 323.47,-716.41 320,-714.03"/>
</g>
<!-- packages/cognitive&#45;theory&#45;of&#45;music/tonal&#45;pitch&#45;space/src/get&#45;scale&#45;chroma.ts&#45;&gt;packages/util/stdlib/dist/index.js -->
<g id="edge23" class="edge">
<title>packages/cognitive&#45;theory&#45;of&#45;music/tonal&#45;pitch&#45;space/src/get&#45;scale&#45;chroma.ts&#45;&gt;packages/util/stdlib/dist/index.js</title>
<path fill="none" stroke="#000000" stroke-width="2" stroke-opacity="0.200000" d="M363.93,-629.67C332.4,-642.37 275.36,-665.34 241.17,-679.1"/>
<polygon fill="#000000" fill-opacity="0.200000" stroke="#000000" stroke-width="2" stroke-opacity="0.200000" points="240.25,-677.21 235.47,-681.4 241.82,-681.1 240.25,-677.21"/>
</g>
<!-- packages/cognitive&#45;theory&#45;of&#45;music/tonal&#45;pitch&#45;space/src/get&#45;scale&#45;chroma.ts&#45;&gt;packages/tonal&#45;objects/dist/index.js -->
<g id="edge24" class="edge">
<title>packages/cognitive&#45;theory&#45;of&#45;music/tonal&#45;pitch&#45;space/src/get&#45;scale&#45;chroma.ts&#45;&gt;packages/tonal&#45;objects/dist/index.js</title>
<path fill="none" stroke="#000000" stroke-width="2" stroke-opacity="0.200000" d="M382.92,-611.46C371.17,-582.63 334.64,-492.99 320.08,-457.26"/>
<polygon fill="#000000" fill-opacity="0.200000" stroke="#000000" stroke-width="2" stroke-opacity="0.200000" points="321.99,-456.39 317.78,-451.63 318.1,-457.98 321.99,-456.39"/>
</g>
<!-- packages/cognitive&#45;theory&#45;of&#45;music/tonal&#45;pitch&#45;space/src/get&#45;tonic&#45;chroma.ts&#45;&gt;packages/tonal&#45;objects/dist/index.js -->
<g id="edge25" class="edge">
<title>packages/cognitive&#45;theory&#45;of&#45;music/tonal&#45;pitch&#45;space/src/get&#45;tonic&#45;chroma.ts&#45;&gt;packages/tonal&#45;objects/dist/index.js</title>
<path fill="none" stroke="#000000" stroke-width="2" stroke-opacity="0.200000" d="M448.28,-522.24C421.32,-506.2 364.99,-472.69 334.56,-454.58"/>
<polygon fill="#000000" fill-opacity="0.200000" stroke="#000000" stroke-width="2" stroke-opacity="0.200000" points="335.42,-452.65 329.19,-451.39 333.28,-456.26 335.42,-452.65"/>
</g>
<!-- packages/cognitive&#45;theory&#45;of&#45;music/tonal&#45;pitch&#45;space/src/get&#45;keys&#45;include&#45;the&#45;chord.ts&#45;&gt;packages/tonal&#45;objects/dist/index.js -->
<g id="edge18" class="edge">
<title>packages/cognitive&#45;theory&#45;of&#45;music/tonal&#45;pitch&#45;space/src/get&#45;keys&#45;include&#45;the&#45;chord.ts&#45;&gt;packages/tonal&#45;objects/dist/index.js</title>
<path fill="none" stroke="#000000" stroke-width="2" stroke-opacity="0.200000" d="M430.49,-306.03C409.39,-330.72 350.97,-399.09 325.79,-428.55"/>
<polygon fill="#000000" fill-opacity="0.200000" stroke="#000000" stroke-width="2" stroke-opacity="0.200000" points="324.07,-427.33 321.77,-433.26 327.27,-430.06 324.07,-427.33"/>
</g>
<!-- packages/cognitive&#45;theory&#45;of&#45;music/tonal&#45;pitch&#45;space/src/get&#45;keys&#45;include&#45;the&#45;chord.ts&#45;&gt;packages/cognitive&#45;theory&#45;of&#45;music/tonal&#45;pitch&#45;space/src/does&#45;key&#45;include&#45;the&#45;chord.ts -->
<g id="edge17" class="edge">
<title>packages/cognitive&#45;theory&#45;of&#45;music/tonal&#45;pitch&#45;space/src/get&#45;keys&#45;include&#45;the&#45;chord.ts&#45;&gt;packages/cognitive&#45;theory&#45;of&#45;music/tonal&#45;pitch&#45;space/src/does&#45;key&#45;include&#45;the&#45;chord.ts</title>
<path fill="none" stroke="#000000" stroke-width="2" stroke-opacity="0.200000" d="M381.17,-305.95C368.93,-307.88 355.93,-309.93 343.46,-311.9"/>
<polygon fill="#000000" fill-opacity="0.200000" stroke="#000000" stroke-width="2" stroke-opacity="0.200000" points="343,-309.85 337.4,-312.86 343.65,-314 343,-309.85"/>
</g>
</g>
</svg>
