<?xml version="1.0" encoding="UTF-8" standalone="no"?>
<!DOCTYPE svg PUBLIC "-//W3C//DTD SVG 1.1//EN"
 "http://www.w3.org/Graphics/SVG/1.1/DTD/svg11.dtd">
<!-- Generated by graphviz version 2.43.0 (0)
 -->
<!-- Title: dependency&#45;cruiser output Pages: 1 -->
<svg width="703pt" height="589pt"
 viewBox="0.00 0.00 703.00 588.92" xmlns="http://www.w3.org/2000/svg" xmlns:xlink="http://www.w3.org/1999/xlink">
<g id="graph0" class="graph" transform="scale(1 1) rotate(0) translate(4 584.92)">
<title>dependency&#45;cruiser output</title>
<polygon fill="white" stroke="transparent" points="-4,4 -4,-584.92 699,-584.92 699,4 -4,4"/>
<g id="clust1" class="cluster">
<title>cluster_packages</title>
<path fill="#ffffff" stroke="black" stroke-width="2" d="M20,-20.19C20,-20.19 675,-20.19 675,-20.19 681,-20.19 687,-26.19 687,-32.19 687,-32.19 687,-558.19 687,-558.19 687,-564.19 681,-570.19 675,-570.19 675,-570.19 20,-570.19 20,-570.19 14,-570.19 8,-564.19 8,-558.19 8,-558.19 8,-32.19 8,-32.19 8,-26.19 14,-20.19 20,-20.19"/>
<text text-anchor="middle" x="347.5" y="-558.99" font-family="Helvetica,sans-Serif" font-weight="bold" font-size="9.00">packages</text>
</g>
<g id="clust2" class="cluster">
<title>cluster_packages/cognitive&#45;theory&#45;of&#45;music</title>
<path fill="#ffffff" stroke="black" stroke-width="2" d="M28,-28.19C28,-28.19 557,-28.19 557,-28.19 563,-28.19 569,-34.19 569,-40.19 569,-40.19 569,-346.19 569,-346.19 569,-352.19 563,-358.19 557,-358.19 557,-358.19 28,-358.19 28,-358.19 22,-358.19 16,-352.19 16,-346.19 16,-346.19 16,-40.19 16,-40.19 16,-34.19 22,-28.19 28,-28.19"/>
<text text-anchor="middle" x="292.5" y="-346.99" font-family="Helvetica,sans-Serif" font-weight="bold" font-size="9.00">cognitive&#45;theory&#45;of&#45;music</text>
</g>
<g id="clust3" class="cluster">
<title>cluster_packages/cognitive&#45;theory&#45;of&#45;music/tonal&#45;pitch&#45;space</title>
<path fill="#ffffff" stroke="black" stroke-width="2" d="M36,-36.19C36,-36.19 549,-36.19 549,-36.19 555,-36.19 561,-42.19 561,-48.19 561,-48.19 561,-320.19 561,-320.19 561,-326.19 555,-332.19 549,-332.19 549,-332.19 36,-332.19 36,-332.19 30,-332.19 24,-326.19 24,-320.19 24,-320.19 24,-48.19 24,-48.19 24,-42.19 30,-36.19 36,-36.19"/>
<text text-anchor="middle" x="292.5" y="-320.99" font-family="Helvetica,sans-Serif" font-weight="bold" font-size="9.00">tonal&#45;pitch&#45;space</text>
</g>
<g id="clust4" class="cluster">
<title>cluster_packages/cognitive&#45;theory&#45;of&#45;music/tonal&#45;pitch&#45;space/dist</title>
<path fill="#ffffff" stroke="black" stroke-width="2" d="M147,-254.19C147,-254.19 193,-254.19 193,-254.19 199,-254.19 205,-260.19 205,-266.19 205,-266.19 205,-294.19 205,-294.19 205,-300.19 199,-306.19 193,-306.19 193,-306.19 147,-306.19 147,-306.19 141,-306.19 135,-300.19 135,-294.19 135,-294.19 135,-266.19 135,-266.19 135,-260.19 141,-254.19 147,-254.19"/>
<text text-anchor="middle" x="170" y="-294.99" font-family="Helvetica,sans-Serif" font-weight="bold" font-size="9.00">dist</text>
</g>
<g id="clust5" class="cluster">
<title>cluster_packages/cognitive&#45;theory&#45;of&#45;music/tonal&#45;pitch&#45;space/src</title>
<path fill="#ffffff" stroke="black" stroke-width="2" d="M125,-44.19C125,-44.19 541,-44.19 541,-44.19 547,-44.19 553,-50.19 553,-56.19 553,-56.19 553,-234.19 553,-234.19 553,-240.19 547,-246.19 541,-246.19 541,-246.19 125,-246.19 125,-246.19 119,-246.19 113,-240.19 113,-234.19 113,-234.19 113,-56.19 113,-56.19 113,-50.19 119,-44.19 125,-44.19"/>
<text text-anchor="middle" x="333" y="-234.99" font-family="Helvetica,sans-Serif" font-weight="bold" font-size="9.00">src</text>
</g>
<g id="clust6" class="cluster">
<title>cluster_packages/music&#45;structure</title>
<path fill="#ffffff" stroke="black" stroke-width="2" d="M422.5,-366.19C422.5,-366.19 516.5,-366.19 516.5,-366.19 522.5,-366.19 528.5,-372.19 528.5,-378.19 528.5,-378.19 528.5,-508.19 528.5,-508.19 528.5,-514.19 522.5,-520.19 516.5,-520.19 516.5,-520.19 422.5,-520.19 422.5,-520.19 416.5,-520.19 410.5,-514.19 410.5,-508.19 410.5,-508.19 410.5,-378.19 410.5,-378.19 410.5,-372.19 416.5,-366.19 422.5,-366.19"/>
<text text-anchor="middle" x="469.5" y="-508.99" font-family="Helvetica,sans-Serif" font-weight="bold" font-size="9.00">music&#45;structure</text>
</g>
<g id="clust7" class="cluster">
<title>cluster_packages/music&#45;structure/chord</title>
<path fill="#ffffff" stroke="black" stroke-width="2" d="M430.5,-374.19C430.5,-374.19 508.5,-374.19 508.5,-374.19 514.5,-374.19 520.5,-380.19 520.5,-386.19 520.5,-386.19 520.5,-482.19 520.5,-482.19 520.5,-488.19 514.5,-494.19 508.5,-494.19 508.5,-494.19 430.5,-494.19 430.5,-494.19 424.5,-494.19 418.5,-488.19 418.5,-482.19 418.5,-482.19 418.5,-386.19 418.5,-386.19 418.5,-380.19 424.5,-374.19 430.5,-374.19"/>
<text text-anchor="middle" x="469.5" y="-482.99" font-family="Helvetica,sans-Serif" font-weight="bold" font-size="9.00">chord</text>
</g>
<g id="clust8" class="cluster">
<title>cluster_packages/music&#45;structure/chord/roman&#45;chord</title>
<path fill="#ffffff" stroke="black" stroke-width="2" d="M438.5,-382.19C438.5,-382.19 500.5,-382.19 500.5,-382.19 506.5,-382.19 512.5,-388.19 512.5,-394.19 512.5,-394.19 512.5,-456.19 512.5,-456.19 512.5,-462.19 506.5,-468.19 500.5,-468.19 500.5,-468.19 438.5,-468.19 438.5,-468.19 432.5,-468.19 426.5,-462.19 426.5,-456.19 426.5,-456.19 426.5,-394.19 426.5,-394.19 426.5,-388.19 432.5,-382.19 438.5,-382.19"/>
<text text-anchor="middle" x="469.5" y="-456.99" font-family="Helvetica,sans-Serif" font-weight="bold" font-size="9.00">roman&#45;chord</text>
</g>
<g id="clust9" class="cluster">
<title>cluster_packages/music&#45;structure/chord/roman&#45;chord/dist</title>
<path fill="#ffffff" stroke="black" stroke-width="2" d="M446.5,-390.19C446.5,-390.19 492.5,-390.19 492.5,-390.19 498.5,-390.19 504.5,-396.19 504.5,-402.19 504.5,-402.19 504.5,-430.19 504.5,-430.19 504.5,-436.19 498.5,-442.19 492.5,-442.19 492.5,-442.19 446.5,-442.19 446.5,-442.19 440.5,-442.19 434.5,-436.19 434.5,-430.19 434.5,-430.19 434.5,-402.19 434.5,-402.19 434.5,-396.19 440.5,-390.19 446.5,-390.19"/>
<text text-anchor="middle" x="469.5" y="-430.99" font-family="Helvetica,sans-Serif" font-weight="bold" font-size="9.00">dist</text>
</g>
<g id="clust10" class="cluster">
<title>cluster_packages/tonal&#45;objects</title>
<path fill="#ffffff" stroke="black" stroke-width="2" d="M597,-83.19C597,-83.19 659,-83.19 659,-83.19 665,-83.19 671,-89.19 671,-95.19 671,-95.19 671,-157.19 671,-157.19 671,-163.19 665,-169.19 659,-169.19 659,-169.19 597,-169.19 597,-169.19 591,-169.19 585,-163.19 585,-157.19 585,-157.19 585,-95.19 585,-95.19 585,-89.19 591,-83.19 597,-83.19"/>
<text text-anchor="middle" x="628" y="-157.99" font-family="Helvetica,sans-Serif" font-weight="bold" font-size="9.00">tonal&#45;objects</text>
</g>
<g id="clust11" class="cluster">
<title>cluster_packages/tonal&#45;objects/dist</title>
<path fill="#ffffff" stroke="black" stroke-width="2" d="M605,-91.19C605,-91.19 651,-91.19 651,-91.19 657,-91.19 663,-97.19 663,-103.19 663,-103.19 663,-131.19 663,-131.19 663,-137.19 657,-143.19 651,-143.19 651,-143.19 605,-143.19 605,-143.19 599,-143.19 593,-137.19 593,-131.19 593,-131.19 593,-103.19 593,-103.19 593,-97.19 599,-91.19 605,-91.19"/>
<text text-anchor="middle" x="628" y="-131.99" font-family="Helvetica,sans-Serif" font-weight="bold" font-size="9.00">dist</text>
</g>
<g id="clust12" class="cluster">
<title>cluster_packages/util</title>
<path fill="#ffffff" stroke="black" stroke-width="2" d="M589,-177.19C589,-177.19 667,-177.19 667,-177.19 673,-177.19 679,-183.19 679,-189.19 679,-189.19 679,-379.19 679,-379.19 679,-385.19 673,-391.19 667,-391.19 667,-391.19 589,-391.19 589,-391.19 583,-391.19 577,-385.19 577,-379.19 577,-379.19 577,-189.19 577,-189.19 577,-183.19 583,-177.19 589,-177.19"/>
<text text-anchor="middle" x="628" y="-379.99" font-family="Helvetica,sans-Serif" font-weight="bold" font-size="9.00">util</text>
</g>
<g id="clust13" class="cluster">
<title>cluster_packages/util/math</title>
<path fill="#ffffff" stroke="black" stroke-width="2" d="M597,-185.19C597,-185.19 659,-185.19 659,-185.19 665,-185.19 671,-191.19 671,-197.19 671,-197.19 671,-259.19 671,-259.19 671,-265.19 665,-271.19 659,-271.19 659,-271.19 597,-271.19 597,-271.19 591,-271.19 585,-265.19 585,-259.19 585,-259.19 585,-197.19 585,-197.19 585,-191.19 591,-185.19 597,-185.19"/>
<text text-anchor="middle" x="628" y="-259.99" font-family="Helvetica,sans-Serif" font-weight="bold" font-size="9.00">math</text>
</g>
<g id="clust14" class="cluster">
<title>cluster_packages/util/math/dist</title>
<path fill="#ffffff" stroke="black" stroke-width="2" d="M605,-193.19C605,-193.19 651,-193.19 651,-193.19 657,-193.19 663,-199.19 663,-205.19 663,-205.19 663,-233.19 663,-233.19 663,-239.19 657,-245.19 651,-245.19 651,-245.19 605,-245.19 605,-245.19 599,-245.19 593,-239.19 593,-233.19 593,-233.19 593,-205.19 593,-205.19 593,-199.19 599,-193.19 605,-193.19"/>
<text text-anchor="middle" x="628" y="-233.99" font-family="Helvetica,sans-Serif" font-weight="bold" font-size="9.00">dist</text>
</g>
<g id="clust15" class="cluster">
<title>cluster_packages/util/stdlib</title>
<path fill="#ffffff" stroke="black" stroke-width="2" d="M597,-279.19C597,-279.19 659,-279.19 659,-279.19 665,-279.19 671,-285.19 671,-291.19 671,-291.19 671,-353.19 671,-353.19 671,-359.19 665,-365.19 659,-365.19 659,-365.19 597,-365.19 597,-365.19 591,-365.19 585,-359.19 585,-353.19 585,-353.19 585,-291.19 585,-291.19 585,-285.19 591,-279.19 597,-279.19"/>
<text text-anchor="middle" x="628" y="-353.99" font-family="Helvetica,sans-Serif" font-weight="bold" font-size="9.00">stdlib</text>
</g>
<g id="clust16" class="cluster">
<title>cluster_packages/util/stdlib/dist</title>
<path fill="#ffffff" stroke="black" stroke-width="2" d="M605,-287.19C605,-287.19 651,-287.19 651,-287.19 657,-287.19 663,-293.19 663,-299.19 663,-299.19 663,-327.19 663,-327.19 663,-333.19 657,-339.19 651,-339.19 651,-339.19 605,-339.19 605,-339.19 599,-339.19 593,-333.19 593,-327.19 593,-327.19 593,-299.19 593,-299.19 593,-293.19 599,-287.19 605,-287.19"/>
<text text-anchor="middle" x="628" y="-327.99" font-family="Helvetica,sans-Serif" font-weight="bold" font-size="9.00">dist</text>
</g>
<!-- packages/cognitive&#45;theory&#45;of&#45;music/tonal&#45;pitch&#45;space/dist/index.js -->
<g id="node1" class="node">
<title>packages/cognitive&#45;theory&#45;of&#45;music/tonal&#45;pitch&#45;space/dist/index.js</title>
<g id="a_node1"><a xlink:href="packages/cognitive-theory-of-music/tonal-pitch-space/dist/index.js" xlink:title="index.js">
<polygon fill="#ffffcc" stroke="black" points="197,-280.19 195.5,-282.19 185,-282.19 183.5,-280.19 143,-280.19 143,-262.19 197,-262.19 197,-280.19"/>
<text text-anchor="start" x="152.5" y="-268.99" font-family="Helvetica,sans-Serif" font-size="9.00">index.js</text>
</a>
</g>
</g>
<!-- packages/cognitive&#45;theory&#45;of&#45;music/tonal&#45;pitch&#45;space/index.test.ts -->
<g id="node2" class="node">
<title>packages/cognitive&#45;theory&#45;of&#45;music/tonal&#45;pitch&#45;space/index.test.ts</title>
<g id="a_node2"><a xlink:href="packages/cognitive-theory-of-music/tonal-pitch-space/index.test.ts" xlink:title="index.test.ts">
<path fill="#ddfeff" stroke="black" d="M99,-306.19C99,-306.19 38,-306.19 38,-306.19 35,-306.19 32,-303.19 32,-300.19 32,-300.19 32,-294.19 32,-294.19 32,-291.19 35,-288.19 38,-288.19 38,-288.19 99,-288.19 99,-288.19 102,-288.19 105,-291.19 105,-294.19 105,-294.19 105,-300.19 105,-300.19 105,-303.19 102,-306.19 99,-306.19"/>
<text text-anchor="start" x="40" y="-294.99" font-family="Helvetica,sans-Serif" font-size="9.00">index.test.ts</text>
</a>
</g>
</g>
<!-- packages/cognitive&#45;theory&#45;of&#45;music/tonal&#45;pitch&#45;space/index.test.ts&#45;&gt;packages/cognitive&#45;theory&#45;of&#45;music/tonal&#45;pitch&#45;space/dist/index.js -->
<g id="edge1" class="edge">
<title>packages/cognitive&#45;theory&#45;of&#45;music/tonal&#45;pitch&#45;space/index.test.ts&#45;&gt;packages/cognitive&#45;theory&#45;of&#45;music/tonal&#45;pitch&#45;space/dist/index.js</title>
<path fill="none" stroke="#000000" stroke-width="2" stroke-opacity="0.200000" d="M104.02,-288.17C114.62,-285.4 126.25,-282.36 136.7,-279.63"/>
<polygon fill="#000000" fill-opacity="0.200000" stroke="#000000" stroke-width="2" stroke-opacity="0.200000" points="137.43,-281.61 142.7,-278.06 136.36,-277.55 137.43,-281.61"/>
</g>
<!-- packages/util/math/dist/index.js -->
<g id="node3" class="node">
<title>packages/util/math/dist/index.js</title>
<g id="a_node3"><a xlink:href="packages/util/math/dist/index.js" xlink:title="index.js">
<polygon fill="#ffffcc" stroke="black" points="655,-219.19 653.5,-221.19 643,-221.19 641.5,-219.19 601,-219.19 601,-201.19 655,-201.19 655,-219.19"/>
<text text-anchor="start" x="610.5" y="-207.99" font-family="Helvetica,sans-Serif" font-size="9.00">index.js</text>
</a>
</g>
</g>
<!-- packages/cognitive&#45;theory&#45;of&#45;music/tonal&#45;pitch&#45;space/index.test.ts&#45;&gt;packages/util/math/dist/index.js -->
<g id="edge2" class="edge">
<title>packages/cognitive&#45;theory&#45;of&#45;music/tonal&#45;pitch&#45;space/index.test.ts&#45;&gt;packages/util/math/dist/index.js</title>
<path fill="none" stroke="#000000" stroke-width="2" stroke-opacity="0.200000" d="M79.62,-306.22C136.43,-355.87 418.63,-588.28 569,-445.19 581.98,-432.84 571.33,-301.18 577,-284.19 584.78,-260.87 602.1,-238.06 614.16,-224.06"/>
<polygon fill="#000000" fill-opacity="0.200000" stroke="#000000" stroke-width="2" stroke-opacity="0.200000" points="615.94,-225.21 618.34,-219.32 612.79,-222.43 615.94,-225.21"/>
</g>
<!-- packages/music&#45;structure/chord/roman&#45;chord/dist/index.js -->
<g id="node4" class="node">
<title>packages/music&#45;structure/chord/roman&#45;chord/dist/index.js</title>
<g id="a_node4"><a xlink:href="packages/music-structure/chord/roman-chord/dist/index.js" xlink:title="index.js">
<polygon fill="#ffffcc" stroke="black" points="496.5,-416.19 495,-418.19 484.5,-418.19 483,-416.19 442.5,-416.19 442.5,-398.19 496.5,-398.19 496.5,-416.19"/>
<text text-anchor="start" x="452" y="-404.99" font-family="Helvetica,sans-Serif" font-size="9.00">index.js</text>
</a>
</g>
</g>
<!-- packages/cognitive&#45;theory&#45;of&#45;music/tonal&#45;pitch&#45;space/index.test.ts&#45;&gt;packages/music&#45;structure/chord/roman&#45;chord/dist/index.js -->
<g id="edge3" class="edge">
<title>packages/cognitive&#45;theory&#45;of&#45;music/tonal&#45;pitch&#45;space/index.test.ts&#45;&gt;packages/music&#45;structure/chord/roman&#45;chord/dist/index.js</title>
<path fill="none" stroke="#000000" stroke-width="2" stroke-opacity="0.200000" d="M102.15,-306.19C177.28,-326.9 361.65,-377.73 436.32,-398.32"/>
<polygon fill="#000000" fill-opacity="0.200000" stroke="#000000" stroke-width="2" stroke-opacity="0.200000" points="436.01,-400.41 442.35,-399.98 437.13,-396.36 436.01,-400.41"/>
</g>
<!-- packages/util/stdlib/dist/index.js -->
<g id="node5" class="node">
<title>packages/util/stdlib/dist/index.js</title>
<g id="a_node5"><a xlink:href="packages/util/stdlib/dist/index.js" xlink:title="index.js">
<polygon fill="#ffffcc" stroke="black" points="655,-313.19 653.5,-315.19 643,-315.19 641.5,-313.19 601,-313.19 601,-295.19 655,-295.19 655,-313.19"/>
<text text-anchor="start" x="610.5" y="-301.99" font-family="Helvetica,sans-Serif" font-size="9.00">index.js</text>
</a>
</g>
</g>
<!-- packages/cognitive&#45;theory&#45;of&#45;music/tonal&#45;pitch&#45;space/index.test.ts&#45;&gt;packages/util/stdlib/dist/index.js -->
<g id="edge4" class="edge">
<title>packages/cognitive&#45;theory&#45;of&#45;music/tonal&#45;pitch&#45;space/index.test.ts&#45;&gt;packages/util/stdlib/dist/index.js</title>
<path fill="none" stroke="#000000" stroke-width="2" stroke-opacity="0.200000" d="M69.7,-306.19C70.76,-345.74 77.22,-503.4 113,-533.19 190.88,-598.02 489.03,-595.43 569,-533.19 603.4,-506.42 620.66,-366.24 625.53,-319.43"/>
<polygon fill="#000000" fill-opacity="0.200000" stroke="#000000" stroke-width="2" stroke-opacity="0.200000" points="627.64,-319.4 626.16,-313.22 623.46,-318.98 627.64,-319.4"/>
</g>
<!-- packages/tonal&#45;objects/dist/index.js -->
<g id="node6" class="node">
<title>packages/tonal&#45;objects/dist/index.js</title>
<g id="a_node6"><a xlink:href="packages/tonal-objects/dist/index.js" xlink:title="index.js">
<polygon fill="#ffffcc" stroke="black" points="655,-117.19 653.5,-119.19 643,-119.19 641.5,-117.19 601,-117.19 601,-99.19 655,-99.19 655,-117.19"/>
<text text-anchor="start" x="610.5" y="-105.99" font-family="Helvetica,sans-Serif" font-size="9.00">index.js</text>
</a>
</g>
</g>
<!-- packages/cognitive&#45;theory&#45;of&#45;music/tonal&#45;pitch&#45;space/index.test.ts&#45;&gt;packages/tonal&#45;objects/dist/index.js -->
<g id="edge5" class="edge">
<title>packages/cognitive&#45;theory&#45;of&#45;music/tonal&#45;pitch&#45;space/index.test.ts&#45;&gt;packages/tonal&#45;objects/dist/index.js</title>
<path fill="none" stroke="#000000" stroke-width="2" stroke-opacity="0.200000" d="M71.1,-288.16C76.17,-259.41 92.33,-167.44 105,-91.19 106.84,-80.09 104.44,-48.49 113,-41.19 190.11,24.56 476.83,0.93 569,-41.19 592.43,-51.9 610.02,-77.26 619.39,-93.53"/>
<polygon fill="#000000" fill-opacity="0.200000" stroke="#000000" stroke-width="2" stroke-opacity="0.200000" points="617.72,-94.84 622.47,-99.06 621.39,-92.8 617.72,-94.84"/>
</g>
<!-- packages/cognitive&#45;theory&#45;of&#45;music/tonal&#45;pitch&#45;space/index.ts -->
<g id="node7" class="node">
<title>packages/cognitive&#45;theory&#45;of&#45;music/tonal&#45;pitch&#45;space/index.ts</title>
<g id="a_node7"><a xlink:href="packages/cognitive-theory-of-music/tonal-pitch-space/index.ts" xlink:title="index.ts">
<path fill="#ddfeff" stroke="black" d="M89.5,-85.19C89.5,-85.19 47.5,-85.19 47.5,-85.19 44.5,-85.19 41.5,-82.19 41.5,-79.19 41.5,-79.19 41.5,-73.19 41.5,-73.19 41.5,-70.19 44.5,-67.19 47.5,-67.19 47.5,-67.19 89.5,-67.19 89.5,-67.19 92.5,-67.19 95.5,-70.19 95.5,-73.19 95.5,-73.19 95.5,-79.19 95.5,-79.19 95.5,-82.19 92.5,-85.19 89.5,-85.19"/>
<text text-anchor="start" x="50" y="-73.99" font-family="Helvetica,sans-Serif" font-size="9.00">index.ts</text>
</a>
</g>
</g>
<!-- packages/cognitive&#45;theory&#45;of&#45;music/tonal&#45;pitch&#45;space/src/index.ts -->
<g id="node8" class="node">
<title>packages/cognitive&#45;theory&#45;of&#45;music/tonal&#45;pitch&#45;space/src/index.ts</title>
<g id="a_node8"><a xlink:href="packages/cognitive-theory-of-music/tonal-pitch-space/src/index.ts" xlink:title="index.ts">
<path fill="#ddfeff" stroke="black" d="M191,-85.19C191,-85.19 149,-85.19 149,-85.19 146,-85.19 143,-82.19 143,-79.19 143,-79.19 143,-73.19 143,-73.19 143,-70.19 146,-67.19 149,-67.19 149,-67.19 191,-67.19 191,-67.19 194,-67.19 197,-70.19 197,-73.19 197,-73.19 197,-79.19 197,-79.19 197,-82.19 194,-85.19 191,-85.19"/>
<text text-anchor="start" x="151.5" y="-73.99" font-family="Helvetica,sans-Serif" font-size="9.00">index.ts</text>
</a>
</g>
</g>
<!-- packages/cognitive&#45;theory&#45;of&#45;music/tonal&#45;pitch&#45;space/index.ts&#45;&gt;packages/cognitive&#45;theory&#45;of&#45;music/tonal&#45;pitch&#45;space/src/index.ts -->
<g id="edge6" class="edge">
<title>packages/cognitive&#45;theory&#45;of&#45;music/tonal&#45;pitch&#45;space/index.ts&#45;&gt;packages/cognitive&#45;theory&#45;of&#45;music/tonal&#45;pitch&#45;space/src/index.ts</title>
<path fill="none" stroke="#000000" stroke-width="2" stroke-opacity="0.200000" d="M95.64,-76.19C108.11,-76.19 123.16,-76.19 136.37,-76.19"/>
<polygon fill="#000000" fill-opacity="0.200000" stroke="#000000" stroke-width="2" stroke-opacity="0.200000" points="142.69,-78.29 136.69,-76.19 142.69,-74.09 142.69,-78.29"/>
</g>
<!-- packages/cognitive&#45;theory&#45;of&#45;music/tonal&#45;pitch&#45;space/src/get&#45;distance.ts -->
<g id="node15" class="node">
<title>packages/cognitive&#45;theory&#45;of&#45;music/tonal&#45;pitch&#45;space/src/get&#45;distance.ts</title>
<g id="a_node15"><a xlink:href="packages/cognitive-theory-of-music/tonal-pitch-space/src/get-distance.ts" xlink:title="get&#45;distance.ts">
<polygon fill="#ddfeff" stroke="black" points="348.5,-70.19 347,-72.19 336.5,-72.19 335,-70.19 264.5,-70.19 264.5,-52.19 348.5,-52.19 348.5,-70.19"/>
<text text-anchor="start" x="272.5" y="-58.99" font-family="Helvetica,sans-Serif" font-size="9.00">get&#45;distance.ts</text>
</a>
</g>
</g>
<!-- packages/cognitive&#45;theory&#45;of&#45;music/tonal&#45;pitch&#45;space/src/index.ts&#45;&gt;packages/cognitive&#45;theory&#45;of&#45;music/tonal&#45;pitch&#45;space/src/get&#45;distance.ts -->
<g id="edge26" class="edge">
<title>packages/cognitive&#45;theory&#45;of&#45;music/tonal&#45;pitch&#45;space/src/index.ts&#45;&gt;packages/cognitive&#45;theory&#45;of&#45;music/tonal&#45;pitch&#45;space/src/get&#45;distance.ts</title>
<path fill="none" stroke="#000000" stroke-width="2" stroke-opacity="0.200000" d="M197.25,-73.26C214.65,-71.32 237.96,-68.72 258.5,-66.43"/>
<polygon fill="#000000" fill-opacity="0.200000" stroke="#000000" stroke-width="2" stroke-opacity="0.200000" points="264.72,-67.85 258.52,-66.43 264.25,-63.68 264.72,-67.85"/>
</g>
<!-- packages/cognitive&#45;theory&#45;of&#45;music/tonal&#45;pitch&#45;space/src/get&#45;keys&#45;include&#45;the&#45;chord.ts -->
<g id="node16" class="node">
<title>packages/cognitive&#45;theory&#45;of&#45;music/tonal&#45;pitch&#45;space/src/get&#45;keys&#45;include&#45;the&#45;chord.ts</title>
<g id="a_node16"><a xlink:href="packages/cognitive-theory-of-music/tonal-pitch-space/src/get-keys-include-the-chord.ts" xlink:title="get&#45;keys&#45;include&#45;the&#45;chord.ts">
<path fill="#ddfeff" stroke="black" d="M375,-100.19C375,-100.19 238,-100.19 238,-100.19 235,-100.19 232,-97.19 232,-94.19 232,-94.19 232,-88.19 232,-88.19 232,-85.19 235,-82.19 238,-82.19 238,-82.19 375,-82.19 375,-82.19 378,-82.19 381,-85.19 381,-88.19 381,-88.19 381,-94.19 381,-94.19 381,-97.19 378,-100.19 375,-100.19"/>
<text text-anchor="start" x="240" y="-88.99" font-family="Helvetica,sans-Serif" font-size="9.00">get&#45;keys&#45;include&#45;the&#45;chord.ts</text>
</a>
</g>
</g>
<!-- packages/cognitive&#45;theory&#45;of&#45;music/tonal&#45;pitch&#45;space/src/index.ts&#45;&gt;packages/cognitive&#45;theory&#45;of&#45;music/tonal&#45;pitch&#45;space/src/get&#45;keys&#45;include&#45;the&#45;chord.ts -->
<g id="edge27" class="edge">
<title>packages/cognitive&#45;theory&#45;of&#45;music/tonal&#45;pitch&#45;space/src/index.ts&#45;&gt;packages/cognitive&#45;theory&#45;of&#45;music/tonal&#45;pitch&#45;space/src/get&#45;keys&#45;include&#45;the&#45;chord.ts</title>
<path fill="none" stroke="#000000" stroke-width="2" stroke-opacity="0.200000" d="M197.25,-79.12C205.69,-80.06 215.52,-81.15 225.74,-82.29"/>
<polygon fill="#000000" fill-opacity="0.200000" stroke="#000000" stroke-width="2" stroke-opacity="0.200000" points="231.57,-85.06 225.84,-82.3 232.04,-80.88 231.57,-85.06"/>
</g>
<!-- packages/cognitive&#45;theory&#45;of&#45;music/tonal&#45;pitch&#45;space/src/does&#45;key&#45;include&#45;the&#45;chord.ts -->
<g id="node9" class="node">
<title>packages/cognitive&#45;theory&#45;of&#45;music/tonal&#45;pitch&#45;space/src/does&#45;key&#45;include&#45;the&#45;chord.ts</title>
<g id="a_node9"><a xlink:href="packages/cognitive-theory-of-music/tonal-pitch-space/src/does-key-include-the-chord.ts" xlink:title="does&#45;key&#45;include&#45;the&#45;chord.ts">
<path fill="#ddfeff" stroke="black" d="M539,-181.19C539,-181.19 400,-181.19 400,-181.19 397,-181.19 394,-178.19 394,-175.19 394,-175.19 394,-169.19 394,-169.19 394,-166.19 397,-163.19 400,-163.19 400,-163.19 539,-163.19 539,-163.19 542,-163.19 545,-166.19 545,-169.19 545,-169.19 545,-175.19 545,-175.19 545,-178.19 542,-181.19 539,-181.19"/>
<text text-anchor="start" x="402" y="-169.99" font-family="Helvetica,sans-Serif" font-size="9.00">does&#45;key&#45;include&#45;the&#45;chord.ts</text>
</a>
</g>
</g>
<!-- packages/cognitive&#45;theory&#45;of&#45;music/tonal&#45;pitch&#45;space/src/does&#45;key&#45;include&#45;the&#45;chord.ts&#45;&gt;packages/util/math/dist/index.js -->
<g id="edge7" class="edge">
<title>packages/cognitive&#45;theory&#45;of&#45;music/tonal&#45;pitch&#45;space/src/does&#45;key&#45;include&#45;the&#45;chord.ts&#45;&gt;packages/util/math/dist/index.js</title>
<path fill="none" stroke="#000000" stroke-width="2" stroke-opacity="0.200000" d="M523.94,-181.23C538.63,-184.05 554.5,-187.43 569,-191.19 577.83,-193.48 587.29,-196.38 595.95,-199.22"/>
<polygon fill="#000000" fill-opacity="0.200000" stroke="#000000" stroke-width="2" stroke-opacity="0.200000" points="595.44,-201.26 601.8,-201.17 596.77,-197.28 595.44,-201.26"/>
</g>
<!-- packages/cognitive&#45;theory&#45;of&#45;music/tonal&#45;pitch&#45;space/src/does&#45;key&#45;include&#45;the&#45;chord.ts&#45;&gt;packages/tonal&#45;objects/dist/index.js -->
<g id="edge8" class="edge">
<title>packages/cognitive&#45;theory&#45;of&#45;music/tonal&#45;pitch&#45;space/src/does&#45;key&#45;include&#45;the&#45;chord.ts&#45;&gt;packages/tonal&#45;objects/dist/index.js</title>
<path fill="none" stroke="#000000" stroke-width="2" stroke-opacity="0.200000" d="M543.04,-163.16C551.99,-160.82 560.85,-157.89 569,-154.19 586.41,-146.3 603.17,-132.04 614.16,-121.49"/>
<polygon fill="#000000" fill-opacity="0.200000" stroke="#000000" stroke-width="2" stroke-opacity="0.200000" points="615.69,-122.92 618.5,-117.22 612.75,-119.93 615.69,-122.92"/>
</g>
<!-- packages/cognitive&#45;theory&#45;of&#45;music/tonal&#45;pitch&#45;space/src/get&#45;basic&#45;space.ts -->
<g id="node10" class="node">
<title>packages/cognitive&#45;theory&#45;of&#45;music/tonal&#45;pitch&#45;space/src/get&#45;basic&#45;space.ts</title>
<g id="a_node10"><a xlink:href="packages/cognitive-theory-of-music/tonal-pitch-space/src/get-basic-space.ts" xlink:title="get&#45;basic&#45;space.ts">
<path fill="#ddfeff" stroke="black" d="M213,-220.19C213,-220.19 127,-220.19 127,-220.19 124,-220.19 121,-217.19 121,-214.19 121,-214.19 121,-208.19 121,-208.19 121,-205.19 124,-202.19 127,-202.19 127,-202.19 213,-202.19 213,-202.19 216,-202.19 219,-205.19 219,-208.19 219,-208.19 219,-214.19 219,-214.19 219,-217.19 216,-220.19 213,-220.19"/>
<text text-anchor="start" x="129" y="-208.99" font-family="Helvetica,sans-Serif" font-size="9.00">get&#45;basic&#45;space.ts</text>
</a>
</g>
</g>
<!-- packages/cognitive&#45;theory&#45;of&#45;music/tonal&#45;pitch&#45;space/src/get&#45;basic&#45;space.ts&#45;&gt;packages/util/math/dist/index.js -->
<g id="edge13" class="edge">
<title>packages/cognitive&#45;theory&#45;of&#45;music/tonal&#45;pitch&#45;space/src/get&#45;basic&#45;space.ts&#45;&gt;packages/util/math/dist/index.js</title>
<path fill="none" stroke="#000000" stroke-width="2" stroke-opacity="0.200000" d="M201.45,-220.2C211.13,-222.66 221.93,-224.97 232,-226.19 365.66,-242.38 526.42,-224.36 594.26,-215.06"/>
<polygon fill="#000000" fill-opacity="0.200000" stroke="#000000" stroke-width="2" stroke-opacity="0.200000" points="594.88,-217.09 600.53,-214.18 594.3,-212.93 594.88,-217.09"/>
</g>
<!-- packages/cognitive&#45;theory&#45;of&#45;music/tonal&#45;pitch&#45;space/src/get&#45;basic&#45;space.ts&#45;&gt;packages/music&#45;structure/chord/roman&#45;chord/dist/index.js -->
<g id="edge14" class="edge">
<title>packages/cognitive&#45;theory&#45;of&#45;music/tonal&#45;pitch&#45;space/src/get&#45;basic&#45;space.ts&#45;&gt;packages/music&#45;structure/chord/roman&#45;chord/dist/index.js</title>
<path fill="none" stroke="#000000" stroke-width="2" stroke-opacity="0.200000" d="M185.19,-220.25C195.69,-227.54 209.71,-238.63 219,-251.19 227.88,-263.2 221.92,-271.16 232,-282.19 289.68,-345.25 386.64,-382.24 436.6,-398.06"/>
<polygon fill="#000000" fill-opacity="0.200000" stroke="#000000" stroke-width="2" stroke-opacity="0.200000" points="436.1,-400.1 442.46,-399.88 437.35,-396.09 436.1,-400.1"/>
</g>
<!-- packages/cognitive&#45;theory&#45;of&#45;music/tonal&#45;pitch&#45;space/src/get&#45;basic&#45;space.ts&#45;&gt;packages/util/stdlib/dist/index.js -->
<g id="edge15" class="edge">
<title>packages/cognitive&#45;theory&#45;of&#45;music/tonal&#45;pitch&#45;space/src/get&#45;basic&#45;space.ts&#45;&gt;packages/util/stdlib/dist/index.js</title>
<path fill="none" stroke="#000000" stroke-width="2" stroke-opacity="0.200000" d="M192.13,-220.26C203.73,-224.96 218.47,-230.47 232,-234.19 364.07,-270.45 526.33,-292.31 594.45,-300.49"/>
<polygon fill="#000000" fill-opacity="0.200000" stroke="#000000" stroke-width="2" stroke-opacity="0.200000" points="594.54,-302.62 600.75,-301.24 595.04,-298.45 594.54,-302.62"/>
</g>
<!-- packages/cognitive&#45;theory&#45;of&#45;music/tonal&#45;pitch&#45;space/src/get&#45;chord&#45;chroma.ts -->
<g id="node11" class="node">
<title>packages/cognitive&#45;theory&#45;of&#45;music/tonal&#45;pitch&#45;space/src/get&#45;chord&#45;chroma.ts</title>
<g id="a_node11"><a xlink:href="packages/cognitive-theory-of-music/tonal-pitch-space/src/get-chord-chroma.ts" xlink:title="get&#45;chord&#45;chroma.ts">
<path fill="#ddfeff" stroke="black" d="M355.5,-160.19C355.5,-160.19 257.5,-160.19 257.5,-160.19 254.5,-160.19 251.5,-157.19 251.5,-154.19 251.5,-154.19 251.5,-148.19 251.5,-148.19 251.5,-145.19 254.5,-142.19 257.5,-142.19 257.5,-142.19 355.5,-142.19 355.5,-142.19 358.5,-142.19 361.5,-145.19 361.5,-148.19 361.5,-148.19 361.5,-154.19 361.5,-154.19 361.5,-157.19 358.5,-160.19 355.5,-160.19"/>
<text text-anchor="start" x="259.5" y="-148.99" font-family="Helvetica,sans-Serif" font-size="9.00">get&#45;chord&#45;chroma.ts</text>
</a>
</g>
</g>
<!-- packages/cognitive&#45;theory&#45;of&#45;music/tonal&#45;pitch&#45;space/src/get&#45;basic&#45;space.ts&#45;&gt;packages/cognitive&#45;theory&#45;of&#45;music/tonal&#45;pitch&#45;space/src/get&#45;chord&#45;chroma.ts -->
<g id="edge9" class="edge">
<title>packages/cognitive&#45;theory&#45;of&#45;music/tonal&#45;pitch&#45;space/src/get&#45;basic&#45;space.ts&#45;&gt;packages/cognitive&#45;theory&#45;of&#45;music/tonal&#45;pitch&#45;space/src/get&#45;chord&#45;chroma.ts</title>
<path fill="none" stroke="#000000" stroke-width="2" stroke-opacity="0.200000" d="M180.51,-202.08C191.84,-191.75 211.8,-175.17 232,-166.19 236.27,-164.29 240.78,-162.63 245.39,-161.18"/>
<polygon fill="#000000" fill-opacity="0.200000" stroke="#000000" stroke-width="2" stroke-opacity="0.200000" points="246.1,-163.16 251.26,-159.45 244.92,-159.13 246.1,-163.16"/>
</g>
<!-- packages/cognitive&#45;theory&#45;of&#45;music/tonal&#45;pitch&#45;space/src/get&#45;power&#45;chroma.ts -->
<g id="node12" class="node">
<title>packages/cognitive&#45;theory&#45;of&#45;music/tonal&#45;pitch&#45;space/src/get&#45;power&#45;chroma.ts</title>
<g id="a_node12"><a xlink:href="packages/cognitive-theory-of-music/tonal-pitch-space/src/get-power-chroma.ts" xlink:title="get&#45;power&#45;chroma.ts">
<path fill="#ddfeff" stroke="black" d="M355.5,-190.19C355.5,-190.19 257.5,-190.19 257.5,-190.19 254.5,-190.19 251.5,-187.19 251.5,-184.19 251.5,-184.19 251.5,-178.19 251.5,-178.19 251.5,-175.19 254.5,-172.19 257.5,-172.19 257.5,-172.19 355.5,-172.19 355.5,-172.19 358.5,-172.19 361.5,-175.19 361.5,-178.19 361.5,-178.19 361.5,-184.19 361.5,-184.19 361.5,-187.19 358.5,-190.19 355.5,-190.19"/>
<text text-anchor="start" x="259.5" y="-178.99" font-family="Helvetica,sans-Serif" font-size="9.00">get&#45;power&#45;chroma.ts</text>
</a>
</g>
</g>
<!-- packages/cognitive&#45;theory&#45;of&#45;music/tonal&#45;pitch&#45;space/src/get&#45;basic&#45;space.ts&#45;&gt;packages/cognitive&#45;theory&#45;of&#45;music/tonal&#45;pitch&#45;space/src/get&#45;power&#45;chroma.ts -->
<g id="edge10" class="edge">
<title>packages/cognitive&#45;theory&#45;of&#45;music/tonal&#45;pitch&#45;space/src/get&#45;basic&#45;space.ts&#45;&gt;packages/cognitive&#45;theory&#45;of&#45;music/tonal&#45;pitch&#45;space/src/get&#45;power&#45;chroma.ts</title>
<path fill="none" stroke="#000000" stroke-width="2" stroke-opacity="0.200000" d="M206.75,-202.15C215.02,-200.12 223.81,-198.03 232,-196.19 238.95,-194.63 246.28,-193.05 253.52,-191.53"/>
<polygon fill="#000000" fill-opacity="0.200000" stroke="#000000" stroke-width="2" stroke-opacity="0.200000" points="254.12,-193.55 259.57,-190.27 253.26,-189.44 254.12,-193.55"/>
</g>
<!-- packages/cognitive&#45;theory&#45;of&#45;music/tonal&#45;pitch&#45;space/src/get&#45;scale&#45;chroma.ts -->
<g id="node13" class="node">
<title>packages/cognitive&#45;theory&#45;of&#45;music/tonal&#45;pitch&#45;space/src/get&#45;scale&#45;chroma.ts</title>
<g id="a_node13"><a xlink:href="packages/cognitive-theory-of-music/tonal-pitch-space/src/get-scale-chroma.ts" xlink:title="get&#45;scale&#45;chroma.ts">
<path fill="#ddfeff" stroke="black" d="M353.5,-220.19C353.5,-220.19 259.5,-220.19 259.5,-220.19 256.5,-220.19 253.5,-217.19 253.5,-214.19 253.5,-214.19 253.5,-208.19 253.5,-208.19 253.5,-205.19 256.5,-202.19 259.5,-202.19 259.5,-202.19 353.5,-202.19 353.5,-202.19 356.5,-202.19 359.5,-205.19 359.5,-208.19 359.5,-208.19 359.5,-214.19 359.5,-214.19 359.5,-217.19 356.5,-220.19 353.5,-220.19"/>
<text text-anchor="start" x="261.5" y="-208.99" font-family="Helvetica,sans-Serif" font-size="9.00">get&#45;scale&#45;chroma.ts</text>
</a>
</g>
</g>
<!-- packages/cognitive&#45;theory&#45;of&#45;music/tonal&#45;pitch&#45;space/src/get&#45;basic&#45;space.ts&#45;&gt;packages/cognitive&#45;theory&#45;of&#45;music/tonal&#45;pitch&#45;space/src/get&#45;scale&#45;chroma.ts -->
<g id="edge11" class="edge">
<title>packages/cognitive&#45;theory&#45;of&#45;music/tonal&#45;pitch&#45;space/src/get&#45;basic&#45;space.ts&#45;&gt;packages/cognitive&#45;theory&#45;of&#45;music/tonal&#45;pitch&#45;space/src/get&#45;scale&#45;chroma.ts</title>
<path fill="none" stroke="#000000" stroke-width="2" stroke-opacity="0.200000" d="M219.18,-211.19C228.21,-211.19 237.73,-211.19 247.03,-211.19"/>
<polygon fill="#000000" fill-opacity="0.200000" stroke="#000000" stroke-width="2" stroke-opacity="0.200000" points="247.1,-213.29 253.1,-211.19 247.1,-209.09 247.1,-213.29"/>
</g>
<!-- packages/cognitive&#45;theory&#45;of&#45;music/tonal&#45;pitch&#45;space/src/get&#45;tonic&#45;chroma.ts -->
<g id="node14" class="node">
<title>packages/cognitive&#45;theory&#45;of&#45;music/tonal&#45;pitch&#45;space/src/get&#45;tonic&#45;chroma.ts</title>
<g id="a_node14"><a xlink:href="packages/cognitive-theory-of-music/tonal-pitch-space/src/get-tonic-chroma.ts" xlink:title="get&#45;tonic&#45;chroma.ts">
<path fill="#ddfeff" stroke="black" d="M353.5,-130.19C353.5,-130.19 259.5,-130.19 259.5,-130.19 256.5,-130.19 253.5,-127.19 253.5,-124.19 253.5,-124.19 253.5,-118.19 253.5,-118.19 253.5,-115.19 256.5,-112.19 259.5,-112.19 259.5,-112.19 353.5,-112.19 353.5,-112.19 356.5,-112.19 359.5,-115.19 359.5,-118.19 359.5,-118.19 359.5,-124.19 359.5,-124.19 359.5,-127.19 356.5,-130.19 353.5,-130.19"/>
<text text-anchor="start" x="261.5" y="-118.99" font-family="Helvetica,sans-Serif" font-size="9.00">get&#45;tonic&#45;chroma.ts</text>
</a>
</g>
</g>
<!-- packages/cognitive&#45;theory&#45;of&#45;music/tonal&#45;pitch&#45;space/src/get&#45;basic&#45;space.ts&#45;&gt;packages/cognitive&#45;theory&#45;of&#45;music/tonal&#45;pitch&#45;space/src/get&#45;tonic&#45;chroma.ts -->
<g id="edge12" class="edge">
<title>packages/cognitive&#45;theory&#45;of&#45;music/tonal&#45;pitch&#45;space/src/get&#45;basic&#45;space.ts&#45;&gt;packages/cognitive&#45;theory&#45;of&#45;music/tonal&#45;pitch&#45;space/src/get&#45;tonic&#45;chroma.ts</title>
<path fill="none" stroke="#000000" stroke-width="2" stroke-opacity="0.200000" d="M175.63,-202.1C184.33,-186.02 204.72,-152.71 232,-136.19 236.74,-133.31 241.94,-130.98 247.32,-129.09"/>
<polygon fill="#000000" fill-opacity="0.200000" stroke="#000000" stroke-width="2" stroke-opacity="0.200000" points="248.13,-131.03 253.2,-127.2 246.85,-127.03 248.13,-131.03"/>
</g>
<!-- packages/cognitive&#45;theory&#45;of&#45;music/tonal&#45;pitch&#45;space/src/get&#45;chord&#45;chroma.ts&#45;&gt;packages/tonal&#45;objects/dist/index.js -->
<g id="edge16" class="edge">
<title>packages/cognitive&#45;theory&#45;of&#45;music/tonal&#45;pitch&#45;space/src/get&#45;chord&#45;chroma.ts&#45;&gt;packages/tonal&#45;objects/dist/index.js</title>
<path fill="none" stroke="#000000" stroke-width="2" stroke-opacity="0.200000" d="M355.1,-142.18C363.75,-140.34 372.67,-138.31 381,-136.19 386.86,-134.69 388.07,-133.34 394,-132.19 470.63,-117.29 491.5,-126.51 569,-117.19 577.3,-116.19 586.25,-114.91 594.56,-113.62"/>
<polygon fill="#000000" fill-opacity="0.200000" stroke="#000000" stroke-width="2" stroke-opacity="0.200000" points="595.18,-115.65 600.78,-112.65 594.53,-111.5 595.18,-115.65"/>
</g>
<!-- packages/cognitive&#45;theory&#45;of&#45;music/tonal&#45;pitch&#45;space/src/get&#45;power&#45;chroma.ts&#45;&gt;packages/util/stdlib/dist/index.js -->
<g id="edge19" class="edge">
<title>packages/cognitive&#45;theory&#45;of&#45;music/tonal&#45;pitch&#45;space/src/get&#45;power&#45;chroma.ts&#45;&gt;packages/util/stdlib/dist/index.js</title>
<path fill="none" stroke="#000000" stroke-width="2" stroke-opacity="0.200000" d="M361.8,-187.1C433.76,-195.39 553.46,-210.94 569,-224.19 577.56,-231.48 571.36,-238.46 577,-248.19 586.38,-264.37 600.95,-280.01 611.95,-290.62"/>
<polygon fill="#000000" fill-opacity="0.200000" stroke="#000000" stroke-width="2" stroke-opacity="0.200000" points="610.62,-292.26 616.42,-294.85 613.51,-289.21 610.62,-292.26"/>
</g>
<!-- packages/cognitive&#45;theory&#45;of&#45;music/tonal&#45;pitch&#45;space/src/get&#45;power&#45;chroma.ts&#45;&gt;packages/tonal&#45;objects/dist/index.js -->
<g id="edge20" class="edge">
<title>packages/cognitive&#45;theory&#45;of&#45;music/tonal&#45;pitch&#45;space/src/get&#45;power&#45;chroma.ts&#45;&gt;packages/tonal&#45;objects/dist/index.js</title>
<path fill="none" stroke="#000000" stroke-width="2" stroke-opacity="0.200000" d="M361.71,-175.3C368.56,-173.1 375.19,-170.15 381,-166.19 389.76,-160.22 384.94,-151.69 394,-146.19 427.4,-125.91 530.89,-137.8 569,-129.19 579.38,-126.84 590.44,-123.16 600.09,-119.52"/>
<polygon fill="#000000" fill-opacity="0.200000" stroke="#000000" stroke-width="2" stroke-opacity="0.200000" points="601.06,-121.4 605.9,-117.27 599.54,-117.48 601.06,-121.4"/>
</g>
<!-- packages/cognitive&#45;theory&#45;of&#45;music/tonal&#45;pitch&#45;space/src/get&#45;scale&#45;chroma.ts&#45;&gt;packages/util/math/dist/index.js -->
<g id="edge21" class="edge">
<title>packages/cognitive&#45;theory&#45;of&#45;music/tonal&#45;pitch&#45;space/src/get&#45;scale&#45;chroma.ts&#45;&gt;packages/util/math/dist/index.js</title>
<path fill="none" stroke="#000000" stroke-width="2" stroke-opacity="0.200000" d="M359.54,-211.03C426.12,-210.82 539.4,-210.46 594.7,-210.29"/>
<polygon fill="#000000" fill-opacity="0.200000" stroke="#000000" stroke-width="2" stroke-opacity="0.200000" points="594.84,-212.39 600.83,-210.27 594.83,-208.19 594.84,-212.39"/>
</g>
<!-- packages/cognitive&#45;theory&#45;of&#45;music/tonal&#45;pitch&#45;space/src/get&#45;scale&#45;chroma.ts&#45;&gt;packages/music&#45;structure/chord/roman&#45;chord/dist/index.js -->
<g id="edge22" class="edge">
<title>packages/cognitive&#45;theory&#45;of&#45;music/tonal&#45;pitch&#45;space/src/get&#45;scale&#45;chroma.ts&#45;&gt;packages/music&#45;structure/chord/roman&#45;chord/dist/index.js</title>
<path fill="none" stroke="#000000" stroke-width="2" stroke-opacity="0.200000" d="M315.05,-220.38C340.87,-251.81 425.78,-355.19 456.92,-393.09"/>
<polygon fill="#000000" fill-opacity="0.200000" stroke="#000000" stroke-width="2" stroke-opacity="0.200000" points="455.35,-394.49 460.78,-397.79 458.59,-391.82 455.35,-394.49"/>
</g>
<!-- packages/cognitive&#45;theory&#45;of&#45;music/tonal&#45;pitch&#45;space/src/get&#45;scale&#45;chroma.ts&#45;&gt;packages/util/stdlib/dist/index.js -->
<g id="edge23" class="edge">
<title>packages/cognitive&#45;theory&#45;of&#45;music/tonal&#45;pitch&#45;space/src/get&#45;scale&#45;chroma.ts&#45;&gt;packages/util/stdlib/dist/index.js</title>
<path fill="none" stroke="#000000" stroke-width="2" stroke-opacity="0.200000" d="M359.7,-219.93C413.29,-229.78 498.55,-247.92 569,-274.19 581.84,-278.98 595.5,-285.94 606.33,-291.95"/>
<polygon fill="#000000" fill-opacity="0.200000" stroke="#000000" stroke-width="2" stroke-opacity="0.200000" points="605.45,-293.87 611.71,-294.99 607.52,-290.21 605.45,-293.87"/>
</g>
<!-- packages/cognitive&#45;theory&#45;of&#45;music/tonal&#45;pitch&#45;space/src/get&#45;scale&#45;chroma.ts&#45;&gt;packages/tonal&#45;objects/dist/index.js -->
<g id="edge24" class="edge">
<title>packages/cognitive&#45;theory&#45;of&#45;music/tonal&#45;pitch&#45;space/src/get&#45;scale&#45;chroma.ts&#45;&gt;packages/tonal&#45;objects/dist/index.js</title>
<path fill="none" stroke="#000000" stroke-width="2" stroke-opacity="0.200000" d="M359.74,-207.63C367.53,-205.19 374.96,-201.54 381,-196.19 394.67,-184.07 379.65,-168.5 394,-157.19 424.66,-133.03 531.8,-154.02 569,-142.19 583.72,-137.51 598.72,-128.58 609.78,-121.05"/>
<polygon fill="#000000" fill-opacity="0.200000" stroke="#000000" stroke-width="2" stroke-opacity="0.200000" points="611.16,-122.65 614.87,-117.49 608.75,-119.2 611.16,-122.65"/>
</g>
<!-- packages/cognitive&#45;theory&#45;of&#45;music/tonal&#45;pitch&#45;space/src/get&#45;tonic&#45;chroma.ts&#45;&gt;packages/tonal&#45;objects/dist/index.js -->
<g id="edge25" class="edge">
<title>packages/cognitive&#45;theory&#45;of&#45;music/tonal&#45;pitch&#45;space/src/get&#45;tonic&#45;chroma.ts&#45;&gt;packages/tonal&#45;objects/dist/index.js</title>
<path fill="none" stroke="#000000" stroke-width="2" stroke-opacity="0.200000" d="M359.54,-119.07C426.12,-116.36 539.4,-111.75 594.7,-109.5"/>
<polygon fill="#000000" fill-opacity="0.200000" stroke="#000000" stroke-width="2" stroke-opacity="0.200000" points="594.92,-111.6 600.83,-109.25 594.75,-107.4 594.92,-111.6"/>
</g>
<!-- packages/cognitive&#45;theory&#45;of&#45;music/tonal&#45;pitch&#45;space/src/get&#45;keys&#45;include&#45;the&#45;chord.ts&#45;&gt;packages/tonal&#45;objects/dist/index.js -->
<g id="edge18" class="edge">
<title>packages/cognitive&#45;theory&#45;of&#45;music/tonal&#45;pitch&#45;space/src/get&#45;keys&#45;include&#45;the&#45;chord.ts&#45;&gt;packages/tonal&#45;objects/dist/index.js</title>
<path fill="none" stroke="#000000" stroke-width="2" stroke-opacity="0.200000" d="M381.2,-95.11C448.54,-98.69 544.94,-103.82 594.64,-106.47"/>
<polygon fill="#000000" fill-opacity="0.200000" stroke="#000000" stroke-width="2" stroke-opacity="0.200000" points="594.65,-108.57 600.75,-106.79 594.87,-104.38 594.65,-108.57"/>
</g>
<!-- packages/cognitive&#45;theory&#45;of&#45;music/tonal&#45;pitch&#45;space/src/get&#45;keys&#45;include&#45;the&#45;chord.ts&#45;&gt;packages/cognitive&#45;theory&#45;of&#45;music/tonal&#45;pitch&#45;space/src/does&#45;key&#45;include&#45;the&#45;chord.ts -->
<g id="edge17" class="edge">
<title>packages/cognitive&#45;theory&#45;of&#45;music/tonal&#45;pitch&#45;space/src/get&#45;keys&#45;include&#45;the&#45;chord.ts&#45;&gt;packages/cognitive&#45;theory&#45;of&#45;music/tonal&#45;pitch&#45;space/src/does&#45;key&#45;include&#45;the&#45;chord.ts</title>
<path fill="none" stroke="#000000" stroke-width="2" stroke-opacity="0.200000" d="M364.87,-100.28C370.43,-101.93 375.9,-103.89 381,-106.19 409.92,-119.24 438.29,-143.29 454.56,-158.47"/>
<polygon fill="#000000" fill-opacity="0.200000" stroke="#000000" stroke-width="2" stroke-opacity="0.200000" points="453.4,-160.28 459.2,-162.88 456.29,-157.23 453.4,-160.28"/>
</g>
</g>
</svg>
