<?xml version="1.0" encoding="UTF-8" standalone="no"?>
<!DOCTYPE svg PUBLIC "-//W3C//DTD SVG 1.1//EN"
 "http://www.w3.org/Graphics/SVG/1.1/DTD/svg11.dtd">
<!-- Generated by graphviz version 2.43.0 (0)
 -->
<!-- Title: dependency&#45;cruiser output Pages: 1 -->
<svg width="776pt" height="930pt"
 viewBox="0.00 0.00 776.00 930.00" xmlns="http://www.w3.org/2000/svg" xmlns:xlink="http://www.w3.org/1999/xlink">
<g id="graph0" class="graph" transform="scale(1 1) rotate(0) translate(4 926)">
<title>dependency&#45;cruiser output</title>
<polygon fill="white" stroke="transparent" points="-4,4 -4,-926 772,-926 772,4 -4,4"/>
<g id="clust1" class="cluster">
<title>cluster_packages</title>
<path fill="#ffffff" stroke="black" stroke-width="2" d="M20,-8C20,-8 748,-8 748,-8 754,-8 760,-14 760,-20 760,-20 760,-902 760,-902 760,-908 754,-914 748,-914 748,-914 20,-914 20,-914 14,-914 8,-908 8,-902 8,-902 8,-20 8,-20 8,-14 14,-8 20,-8"/>
<text text-anchor="middle" x="384" y="-902.8" font-family="Helvetica,sans-Serif" font-weight="bold" font-size="9.00">packages</text>
</g>
<g id="clust2" class="cluster">
<title>cluster_packages/cognitive&#45;theory&#45;of&#45;music</title>
<path fill="#ffffff" stroke="black" stroke-width="2" d="M607,-674C607,-674 732,-674 732,-674 738,-674 744,-680 744,-686 744,-686 744,-782 744,-782 744,-788 738,-794 732,-794 732,-794 607,-794 607,-794 601,-794 595,-788 595,-782 595,-782 595,-686 595,-686 595,-680 601,-674 607,-674"/>
<text text-anchor="middle" x="669.5" y="-782.8" font-family="Helvetica,sans-Serif" font-weight="bold" font-size="9.00">cognitive&#45;theory&#45;of&#45;music</text>
</g>
<g id="clust3" class="cluster">
<title>cluster_packages/cognitive&#45;theory&#45;of&#45;music/irm</title>
<path fill="#ffffff" stroke="black" stroke-width="2" d="M638,-682C638,-682 700,-682 700,-682 706,-682 712,-688 712,-694 712,-694 712,-756 712,-756 712,-762 706,-768 700,-768 700,-768 638,-768 638,-768 632,-768 626,-762 626,-756 626,-756 626,-694 626,-694 626,-688 632,-682 638,-682"/>
<text text-anchor="middle" x="669" y="-756.8" font-family="Helvetica,sans-Serif" font-weight="bold" font-size="9.00">irm</text>
</g>
<g id="clust4" class="cluster">
<title>cluster_packages/cognitive&#45;theory&#45;of&#45;music/irm/dist</title>
<path fill="#ffffff" stroke="black" stroke-width="2" d="M646,-690C646,-690 692,-690 692,-690 698,-690 704,-696 704,-702 704,-702 704,-730 704,-730 704,-736 698,-742 692,-742 692,-742 646,-742 646,-742 640,-742 634,-736 634,-730 634,-730 634,-702 634,-702 634,-696 640,-690 646,-690"/>
<text text-anchor="middle" x="669" y="-730.8" font-family="Helvetica,sans-Serif" font-weight="bold" font-size="9.00">dist</text>
</g>
<g id="clust5" class="cluster">
<title>cluster_packages/music&#45;structure</title>
<path fill="#ffffff" stroke="black" stroke-width="2" d="M28,-238C28,-238 740,-238 740,-238 746,-238 752,-244 752,-250 752,-250 752,-654 752,-654 752,-660 746,-666 740,-666 740,-666 28,-666 28,-666 22,-666 16,-660 16,-654 16,-654 16,-250 16,-250 16,-244 22,-238 28,-238"/>
<text text-anchor="middle" x="384" y="-654.8" font-family="Helvetica,sans-Serif" font-weight="bold" font-size="9.00">music&#45;structure</text>
</g>
<g id="clust6" class="cluster">
<title>cluster_packages/music&#45;structure/chord</title>
<path fill="#ffffff" stroke="black" stroke-width="2" d="M283,-520C283,-520 364,-520 364,-520 370,-520 376,-526 376,-532 376,-532 376,-628 376,-628 376,-634 370,-640 364,-640 364,-640 283,-640 283,-640 277,-640 271,-634 271,-628 271,-628 271,-532 271,-532 271,-526 277,-520 283,-520"/>
<text text-anchor="middle" x="323.5" y="-628.8" font-family="Helvetica,sans-Serif" font-weight="bold" font-size="9.00">chord</text>
</g>
<g id="clust7" class="cluster">
<title>cluster_packages/music&#45;structure/chord/chord&#45;analyze</title>
<path fill="#ffffff" stroke="black" stroke-width="2" d="M291,-528C291,-528 356,-528 356,-528 362,-528 368,-534 368,-540 368,-540 368,-602 368,-602 368,-608 362,-614 356,-614 356,-614 291,-614 291,-614 285,-614 279,-608 279,-602 279,-602 279,-540 279,-540 279,-534 285,-528 291,-528"/>
<text text-anchor="middle" x="323.5" y="-602.8" font-family="Helvetica,sans-Serif" font-weight="bold" font-size="9.00">chord&#45;analyze</text>
</g>
<g id="clust8" class="cluster">
<title>cluster_packages/music&#45;structure/chord/chord&#45;analyze/dist</title>
<path fill="#ffffff" stroke="black" stroke-width="2" d="M300,-536C300,-536 346,-536 346,-536 352,-536 358,-542 358,-548 358,-548 358,-576 358,-576 358,-582 352,-588 346,-588 346,-588 300,-588 300,-588 294,-588 288,-582 288,-576 288,-576 288,-548 288,-548 288,-542 294,-536 300,-536"/>
<text text-anchor="middle" x="323" y="-576.8" font-family="Helvetica,sans-Serif" font-weight="bold" font-size="9.00">dist</text>
</g>
<g id="clust9" class="cluster">
<title>cluster_packages/music&#45;structure/melody</title>
<path fill="#ffffff" stroke="black" stroke-width="2" d="M36,-246C36,-246 732,-246 732,-246 738,-246 744,-252 744,-258 744,-258 744,-500 744,-500 744,-506 738,-512 732,-512 732,-512 36,-512 36,-512 30,-512 24,-506 24,-500 24,-500 24,-258 24,-258 24,-252 30,-246 36,-246"/>
<text text-anchor="middle" x="384" y="-500.8" font-family="Helvetica,sans-Serif" font-weight="bold" font-size="9.00">melody</text>
</g>
<g id="clust10" class="cluster">
<title>cluster_packages/music&#45;structure/melody/melody&#45;analyze</title>
<path fill="#ffffff" stroke="black" stroke-width="2" d="M44,-254C44,-254 724,-254 724,-254 730,-254 736,-260 736,-266 736,-266 736,-474 736,-474 736,-480 730,-486 724,-486 724,-486 44,-486 44,-486 38,-486 32,-480 32,-474 32,-474 32,-266 32,-266 32,-260 38,-254 44,-254"/>
<text text-anchor="middle" x="384" y="-474.8" font-family="Helvetica,sans-Serif" font-weight="bold" font-size="9.00">melody&#45;analyze</text>
</g>
<g id="clust11" class="cluster">
<title>cluster_packages/music&#45;structure/melody/melody&#45;analyze/src</title>
<path fill="#ffffff" stroke="black" stroke-width="2" d="M52,-318C52,-318 716,-318 716,-318 722,-318 728,-324 728,-330 728,-330 728,-448 728,-448 728,-454 722,-460 716,-460 716,-460 52,-460 52,-460 46,-460 40,-454 40,-448 40,-448 40,-330 40,-330 40,-324 46,-318 52,-318"/>
<text text-anchor="middle" x="384" y="-448.8" font-family="Helvetica,sans-Serif" font-weight="bold" font-size="9.00">src</text>
</g>
<g id="clust12" class="cluster">
<title>cluster_packages/tonal&#45;objects</title>
<path fill="#ffffff" stroke="black" stroke-width="2" d="M638,-802C638,-802 700,-802 700,-802 706,-802 712,-808 712,-814 712,-814 712,-876 712,-876 712,-882 706,-888 700,-888 700,-888 638,-888 638,-888 632,-888 626,-882 626,-876 626,-876 626,-814 626,-814 626,-808 632,-802 638,-802"/>
<text text-anchor="middle" x="669" y="-876.8" font-family="Helvetica,sans-Serif" font-weight="bold" font-size="9.00">tonal&#45;objects</text>
</g>
<g id="clust13" class="cluster">
<title>cluster_packages/tonal&#45;objects/dist</title>
<path fill="#ffffff" stroke="black" stroke-width="2" d="M646,-810C646,-810 692,-810 692,-810 698,-810 704,-816 704,-822 704,-822 704,-850 704,-850 704,-856 698,-862 692,-862 692,-862 646,-862 646,-862 640,-862 634,-856 634,-850 634,-850 634,-822 634,-822 634,-816 640,-810 646,-810"/>
<text text-anchor="middle" x="669" y="-850.8" font-family="Helvetica,sans-Serif" font-weight="bold" font-size="9.00">dist</text>
</g>
<g id="clust14" class="cluster">
<title>cluster_packages/util</title>
<path fill="#ffffff" stroke="black" stroke-width="2" d="M630,-16C630,-16 708,-16 708,-16 714,-16 720,-22 720,-28 720,-28 720,-218 720,-218 720,-224 714,-230 708,-230 708,-230 630,-230 630,-230 624,-230 618,-224 618,-218 618,-218 618,-28 618,-28 618,-22 624,-16 630,-16"/>
<text text-anchor="middle" x="669" y="-218.8" font-family="Helvetica,sans-Serif" font-weight="bold" font-size="9.00">util</text>
</g>
<g id="clust15" class="cluster">
<title>cluster_packages/util/math</title>
<path fill="#ffffff" stroke="black" stroke-width="2" d="M638,-118C638,-118 700,-118 700,-118 706,-118 712,-124 712,-130 712,-130 712,-192 712,-192 712,-198 706,-204 700,-204 700,-204 638,-204 638,-204 632,-204 626,-198 626,-192 626,-192 626,-130 626,-130 626,-124 632,-118 638,-118"/>
<text text-anchor="middle" x="669" y="-192.8" font-family="Helvetica,sans-Serif" font-weight="bold" font-size="9.00">math</text>
</g>
<g id="clust16" class="cluster">
<title>cluster_packages/util/math/dist</title>
<path fill="#ffffff" stroke="black" stroke-width="2" d="M646,-126C646,-126 692,-126 692,-126 698,-126 704,-132 704,-138 704,-138 704,-166 704,-166 704,-172 698,-178 692,-178 692,-178 646,-178 646,-178 640,-178 634,-172 634,-166 634,-166 634,-138 634,-138 634,-132 640,-126 646,-126"/>
<text text-anchor="middle" x="669" y="-166.8" font-family="Helvetica,sans-Serif" font-weight="bold" font-size="9.00">dist</text>
</g>
<g id="clust17" class="cluster">
<title>cluster_packages/util/time&#45;and</title>
<path fill="#ffffff" stroke="black" stroke-width="2" d="M638,-24C638,-24 700,-24 700,-24 706,-24 712,-30 712,-36 712,-36 712,-98 712,-98 712,-104 706,-110 700,-110 700,-110 638,-110 638,-110 632,-110 626,-104 626,-98 626,-98 626,-36 626,-36 626,-30 632,-24 638,-24"/>
<text text-anchor="middle" x="669" y="-98.8" font-family="Helvetica,sans-Serif" font-weight="bold" font-size="9.00">time&#45;and</text>
</g>
<g id="clust18" class="cluster">
<title>cluster_packages/util/time&#45;and/dist</title>
<path fill="#ffffff" stroke="black" stroke-width="2" d="M646,-32C646,-32 692,-32 692,-32 698,-32 704,-38 704,-44 704,-44 704,-72 704,-72 704,-78 698,-84 692,-84 692,-84 646,-84 646,-84 640,-84 634,-78 634,-72 634,-72 634,-44 634,-44 634,-38 640,-32 646,-32"/>
<text text-anchor="middle" x="669" y="-72.8" font-family="Helvetica,sans-Serif" font-weight="bold" font-size="9.00">dist</text>
</g>
<!-- packages/cognitive&#45;theory&#45;of&#45;music/irm/dist/index.js -->
<g id="node1" class="node">
<title>packages/cognitive&#45;theory&#45;of&#45;music/irm/dist/index.js</title>
<g id="a_node1"><a xlink:href="packages/cognitive-theory-of-music/irm/dist/index.js" xlink:title="index.js">
<polygon fill="#ffffcc" stroke="black" points="696,-716 694.5,-718 684,-718 682.5,-716 642,-716 642,-698 696,-698 696,-716"/>
<text text-anchor="start" x="651.5" y="-704.8" font-family="Helvetica,sans-Serif" font-size="9.00">index.js</text>
</a>
</g>
</g>
<!-- packages/music&#45;structure/chord/chord&#45;analyze/dist/index.js -->
<g id="node2" class="node">
<title>packages/music&#45;structure/chord/chord&#45;analyze/dist/index.js</title>
<g id="a_node2"><a xlink:href="packages/music-structure/chord/chord-analyze/dist/index.js" xlink:title="index.js">
<polygon fill="#ffffcc" stroke="black" points="350,-562 348.5,-564 338,-564 336.5,-562 296,-562 296,-544 350,-544 350,-562"/>
<text text-anchor="start" x="305.5" y="-550.8" font-family="Helvetica,sans-Serif" font-size="9.00">index.js</text>
</a>
</g>
</g>
<!-- packages/music&#45;structure/melody/melody&#45;analyze/index.test.ts -->
<g id="node3" class="node">
<title>packages/music&#45;structure/melody/melody&#45;analyze/index.test.ts</title>
<g id="a_node3"><a xlink:href="packages/music-structure/melody/melody-analyze/index.test.ts" xlink:title="no&#45;orphans">
<path fill="#ccffcc" stroke="orange" d="M162,-310C162,-310 101,-310 101,-310 98,-310 95,-307 95,-304 95,-304 95,-298 95,-298 95,-295 98,-292 101,-292 101,-292 162,-292 162,-292 165,-292 168,-295 168,-298 168,-298 168,-304 168,-304 168,-307 165,-310 162,-310"/>
<text text-anchor="start" x="103" y="-298.8" font-family="Helvetica,sans-Serif" font-size="9.00" fill="orange">index.test.ts</text>
</a>
</g>
</g>
<!-- packages/music&#45;structure/melody/melody&#45;analyze/index.ts -->
<g id="node4" class="node">
<title>packages/music&#45;structure/melody/melody&#45;analyze/index.ts</title>
<g id="a_node4"><a xlink:href="packages/music-structure/melody/melody-analyze/index.ts" xlink:title="index.ts">
<path fill="#ddfeff" stroke="black" d="M152.5,-280C152.5,-280 110.5,-280 110.5,-280 107.5,-280 104.5,-277 104.5,-274 104.5,-274 104.5,-268 104.5,-268 104.5,-265 107.5,-262 110.5,-262 110.5,-262 152.5,-262 152.5,-262 155.5,-262 158.5,-265 158.5,-268 158.5,-268 158.5,-274 158.5,-274 158.5,-277 155.5,-280 152.5,-280"/>
<text text-anchor="start" x="113" y="-268.8" font-family="Helvetica,sans-Serif" font-size="9.00">index.ts</text>
</a>
</g>
</g>
<!-- packages/music&#45;structure/melody/melody&#45;analyze/index.ts&#45;&gt;packages/cognitive&#45;theory&#45;of&#45;music/irm/dist/index.js -->
<g id="edge2" class="edge">
<title>packages/music&#45;structure/melody/melody&#45;analyze/index.ts&#45;&gt;packages/cognitive&#45;theory&#45;of&#45;music/irm/dist/index.js</title>
<path fill="none" stroke="#000000" stroke-width="2" stroke-opacity="0.200000" d="M158.6,-275.75C182.77,-280.14 215,-286 215,-286 215,-286 228,-591 228,-591 228,-591 574,-682 574,-682 574,-682 608.57,-691.2 635.79,-698.43"/>
<polygon fill="#000000" fill-opacity="0.200000" stroke="#000000" stroke-width="2" stroke-opacity="0.200000" points="635.48,-700.52 641.82,-700.04 636.56,-696.46 635.48,-700.52"/>
</g>
<!-- packages/music&#45;structure/melody/melody&#45;analyze/index.ts&#45;&gt;packages/music&#45;structure/chord/chord&#45;analyze/dist/index.js -->
<g id="edge1" class="edge">
<title>packages/music&#45;structure/melody/melody&#45;analyze/index.ts&#45;&gt;packages/music&#45;structure/chord/chord&#45;analyze/dist/index.js</title>
<path fill="none" stroke="#000000" stroke-width="2" stroke-opacity="0.200000" d="M158.6,-275.75C182.77,-280.14 215,-286 215,-286 215,-286 228,-463 228,-463 228,-463 281.42,-514.15 307.72,-539.33"/>
<polygon fill="#000000" fill-opacity="0.200000" stroke="#000000" stroke-width="2" stroke-opacity="0.200000" points="306.51,-541.07 312.29,-543.71 309.41,-538.04 306.51,-541.07"/>
</g>
<!-- packages/util/math/dist/index.js -->
<g id="node5" class="node">
<title>packages/util/math/dist/index.js</title>
<g id="a_node5"><a xlink:href="packages/util/math/dist/index.js" xlink:title="index.js">
<polygon fill="#ffffcc" stroke="black" points="696,-152 694.5,-154 684,-154 682.5,-152 642,-152 642,-134 696,-134 696,-152"/>
<text text-anchor="start" x="651.5" y="-140.8" font-family="Helvetica,sans-Serif" font-size="9.00">index.js</text>
</a>
</g>
</g>
<!-- packages/music&#45;structure/melody/melody&#45;analyze/index.ts&#45;&gt;packages/util/math/dist/index.js -->
<g id="edge3" class="edge">
<title>packages/music&#45;structure/melody/melody&#45;analyze/index.ts&#45;&gt;packages/util/math/dist/index.js</title>
<path fill="none" stroke="#000000" stroke-width="2" stroke-opacity="0.200000" d="M158.69,-264.74C247.75,-243.45 538.74,-173.9 636.01,-150.65"/>
<polygon fill="#000000" fill-opacity="0.200000" stroke="#000000" stroke-width="2" stroke-opacity="0.200000" points="636.51,-152.69 641.86,-149.25 635.54,-148.6 636.51,-152.69"/>
</g>
<!-- packages/util/time&#45;and/dist/index.js -->
<g id="node6" class="node">
<title>packages/util/time&#45;and/dist/index.js</title>
<g id="a_node6"><a xlink:href="packages/util/time-and/dist/index.js" xlink:title="index.js">
<polygon fill="#ffffcc" stroke="black" points="696,-58 694.5,-60 684,-60 682.5,-58 642,-58 642,-40 696,-40 696,-58"/>
<text text-anchor="start" x="651.5" y="-46.8" font-family="Helvetica,sans-Serif" font-size="9.00">index.js</text>
</a>
</g>
</g>
<!-- packages/music&#45;structure/melody/melody&#45;analyze/index.ts&#45;&gt;packages/util/time&#45;and/dist/index.js -->
<g id="edge4" class="edge">
<title>packages/music&#45;structure/melody/melody&#45;analyze/index.ts&#45;&gt;packages/util/time&#45;and/dist/index.js</title>
<path fill="none" stroke="#000000" stroke-width="2" stroke-opacity="0.200000" d="M144.98,-261.98C170.87,-243.28 228,-202 228,-202 228,-202 534.73,-95.34 635.99,-60.13"/>
<polygon fill="#000000" fill-opacity="0.200000" stroke="#000000" stroke-width="2" stroke-opacity="0.200000" points="636.82,-62.07 641.79,-58.11 635.44,-58.1 636.82,-62.07"/>
</g>
<!-- packages/tonal&#45;objects/dist/index.js -->
<g id="node7" class="node">
<title>packages/tonal&#45;objects/dist/index.js</title>
<g id="a_node7"><a xlink:href="packages/tonal-objects/dist/index.js" xlink:title="index.js">
<polygon fill="#ffffcc" stroke="black" points="696,-836 694.5,-838 684,-838 682.5,-836 642,-836 642,-818 696,-818 696,-836"/>
<text text-anchor="start" x="651.5" y="-824.8" font-family="Helvetica,sans-Serif" font-size="9.00">index.js</text>
</a>
</g>
</g>
<!-- packages/music&#45;structure/melody/melody&#45;analyze/index.ts&#45;&gt;packages/tonal&#45;objects/dist/index.js -->
<g id="edge5" class="edge">
<title>packages/music&#45;structure/melody/melody&#45;analyze/index.ts&#45;&gt;packages/tonal&#45;objects/dist/index.js</title>
<path fill="none" stroke="#000000" stroke-width="2" stroke-opacity="0.200000" d="M158.6,-275.75C182.77,-280.14 215,-286 215,-286 215,-286 228,-619 228,-619 228,-619 418,-688 418,-688 418,-688 574,-746 574,-746 574,-746 625.87,-790.7 652.55,-813.68"/>
<polygon fill="#000000" fill-opacity="0.200000" stroke="#000000" stroke-width="2" stroke-opacity="0.200000" points="651.3,-815.38 657.22,-817.71 654.04,-812.2 651.3,-815.38"/>
</g>
<!-- packages/music&#45;structure/melody/melody&#45;analyze/src/analyze&#45;melody.ts -->
<g id="node8" class="node">
<title>packages/music&#45;structure/melody/melody&#45;analyze/src/analyze&#45;melody.ts</title>
<g id="a_node8"><a xlink:href="packages/music-structure/melody/melody-analyze/src/analyze-melody.ts" xlink:title="analyze&#45;melody.ts">
<path fill="#ddfeff" stroke="black" d="M173.5,-404C173.5,-404 89.5,-404 89.5,-404 86.5,-404 83.5,-401 83.5,-398 83.5,-398 83.5,-392 83.5,-392 83.5,-389 86.5,-386 89.5,-386 89.5,-386 173.5,-386 173.5,-386 176.5,-386 179.5,-389 179.5,-392 179.5,-392 179.5,-398 179.5,-398 179.5,-401 176.5,-404 173.5,-404"/>
<text text-anchor="start" x="91.5" y="-392.8" font-family="Helvetica,sans-Serif" font-size="9.00">analyze&#45;melody.ts</text>
</a>
</g>
</g>
<!-- packages/music&#45;structure/melody/melody&#45;analyze/src/analyze&#45;melody.ts&#45;&gt;packages/cognitive&#45;theory&#45;of&#45;music/irm/dist/index.js -->
<g id="edge11" class="edge">
<title>packages/music&#45;structure/melody/melody&#45;analyze/src/analyze&#45;melody.ts&#45;&gt;packages/cognitive&#45;theory&#45;of&#45;music/irm/dist/index.js</title>
<path fill="none" stroke="#000000" stroke-width="2" stroke-opacity="0.200000" d="M179.53,-403.55C198.06,-406.92 215,-410 215,-410 215,-410 228,-666 228,-666 228,-666 534.12,-694.52 635.69,-703.99"/>
<polygon fill="#000000" fill-opacity="0.200000" stroke="#000000" stroke-width="2" stroke-opacity="0.200000" points="635.62,-706.09 641.79,-704.56 636.01,-701.91 635.62,-706.09"/>
</g>
<!-- packages/music&#45;structure/melody/melody&#45;analyze/src/analyze&#45;melody.ts&#45;&gt;packages/music&#45;structure/chord/chord&#45;analyze/dist/index.js -->
<g id="edge10" class="edge">
<title>packages/music&#45;structure/melody/melody&#45;analyze/src/analyze&#45;melody.ts&#45;&gt;packages/music&#45;structure/chord/chord&#45;analyze/dist/index.js</title>
<path fill="none" stroke="#000000" stroke-width="2" stroke-opacity="0.200000" d="M179.53,-403.55C198.06,-406.92 215,-410 215,-410 215,-410 228,-463 228,-463 228,-463 281.42,-514.15 307.72,-539.33"/>
<polygon fill="#000000" fill-opacity="0.200000" stroke="#000000" stroke-width="2" stroke-opacity="0.200000" points="306.51,-541.07 312.29,-543.71 309.41,-538.04 306.51,-541.07"/>
</g>
<!-- packages/music&#45;structure/melody/melody&#45;analyze/src/analyze&#45;melody.ts&#45;&gt;packages/tonal&#45;objects/dist/index.js -->
<g id="edge12" class="edge">
<title>packages/music&#45;structure/melody/melody&#45;analyze/src/analyze&#45;melody.ts&#45;&gt;packages/tonal&#45;objects/dist/index.js</title>
<path fill="none" stroke="#000000" stroke-width="2" stroke-opacity="0.200000" d="M179.53,-403.55C198.06,-406.92 215,-410 215,-410 215,-410 228,-678 228,-678 228,-678 534.73,-781.87 635.99,-816.16"/>
<polygon fill="#000000" fill-opacity="0.200000" stroke="#000000" stroke-width="2" stroke-opacity="0.200000" points="635.44,-818.19 641.79,-818.13 636.78,-814.21 635.44,-818.19"/>
</g>
<!-- packages/music&#45;structure/melody/melody&#45;analyze/src/register&#45;gravity.ts -->
<g id="node9" class="node">
<title>packages/music&#45;structure/melody/melody&#45;analyze/src/register&#45;gravity.ts</title>
<g id="a_node9"><a xlink:href="packages/music-structure/melody/melody-analyze/src/register-gravity.ts" xlink:title="register&#45;gravity.ts">
<path fill="#ddfeff" stroke="black" d="M544,-390C544,-390 461,-390 461,-390 458,-390 455,-387 455,-384 455,-384 455,-378 455,-378 455,-375 458,-372 461,-372 461,-372 544,-372 544,-372 547,-372 550,-375 550,-378 550,-378 550,-384 550,-384 550,-387 547,-390 544,-390"/>
<text text-anchor="start" x="463" y="-378.8" font-family="Helvetica,sans-Serif" font-size="9.00">register&#45;gravity.ts</text>
</a>
</g>
</g>
<!-- packages/music&#45;structure/melody/melody&#45;analyze/src/analyze&#45;melody.ts&#45;&gt;packages/music&#45;structure/melody/melody&#45;analyze/src/register&#45;gravity.ts -->
<g id="edge6" class="edge">
<title>packages/music&#45;structure/melody/melody&#45;analyze/src/analyze&#45;melody.ts&#45;&gt;packages/music&#45;structure/melody/melody&#45;analyze/src/register&#45;gravity.ts</title>
<path fill="none" stroke="#000000" stroke-width="2" stroke-opacity="0.200000" d="M179.61,-393.21C248.54,-390.6 376.51,-385.74 448.59,-383.01"/>
<polygon fill="#000000" fill-opacity="0.200000" stroke="#000000" stroke-width="2" stroke-opacity="0.200000" points="449.05,-385.09 454.96,-382.77 448.89,-380.89 449.05,-385.09"/>
</g>
<!-- packages/music&#45;structure/melody/melody&#45;analyze/src/serialized&#45;melody&#45;analysis.ts -->
<g id="node10" class="node">
<title>packages/music&#45;structure/melody/melody&#45;analyze/src/serialized&#45;melody&#45;analysis.ts</title>
<g id="a_node10"><a xlink:href="packages/music-structure/melody/melody-analyze/src/serialized-melody-analysis.ts" xlink:title="serialized&#45;melody&#45;analysis.ts">
<path fill="#ddfeff" stroke="black" d="M568,-420C568,-420 437,-420 437,-420 434,-420 431,-417 431,-414 431,-414 431,-408 431,-408 431,-405 434,-402 437,-402 437,-402 568,-402 568,-402 571,-402 574,-405 574,-408 574,-408 574,-414 574,-414 574,-417 571,-420 568,-420"/>
<text text-anchor="start" x="439" y="-408.8" font-family="Helvetica,sans-Serif" font-size="9.00">serialized&#45;melody&#45;analysis.ts</text>
</a>
</g>
</g>
<!-- packages/music&#45;structure/melody/melody&#45;analyze/src/analyze&#45;melody.ts&#45;&gt;packages/music&#45;structure/melody/melody&#45;analyze/src/serialized&#45;melody&#45;analysis.ts -->
<g id="edge7" class="edge">
<title>packages/music&#45;structure/melody/melody&#45;analyze/src/analyze&#45;melody.ts&#45;&gt;packages/music&#45;structure/melody/melody&#45;analyze/src/serialized&#45;melody&#45;analysis.ts</title>
<path fill="none" stroke="#000000" stroke-width="2" stroke-opacity="0.200000" d="M179.61,-397.04C241.41,-399.72 350.64,-404.46 424.53,-407.66"/>
<polygon fill="#000000" fill-opacity="0.200000" stroke="#000000" stroke-width="2" stroke-opacity="0.200000" points="424.59,-409.77 430.68,-407.93 424.77,-405.57 424.59,-409.77"/>
</g>
<!-- packages/music&#45;structure/melody/melody&#45;analyze/src/serialized&#45;time&#45;and&#45;analyzed&#45;melody.ts -->
<g id="node11" class="node">
<title>packages/music&#45;structure/melody/melody&#45;analyze/src/serialized&#45;time&#45;and&#45;analyzed&#45;melody.ts</title>
<g id="a_node11"><a xlink:href="packages/music-structure/melody/melody-analyze/src/serialized-time-and-analyzed-melody.ts" xlink:title="serialized&#45;time&#45;and&#45;analyzed&#45;melody.ts">
<path fill="#ddfeff" stroke="black" d="M412,-375C412,-375 234,-375 234,-375 231,-375 228,-372 228,-369 228,-369 228,-363 228,-363 228,-360 231,-357 234,-357 234,-357 412,-357 412,-357 415,-357 418,-360 418,-363 418,-363 418,-369 418,-369 418,-372 415,-375 412,-375"/>
<text text-anchor="start" x="236" y="-363.8" font-family="Helvetica,sans-Serif" font-size="9.00">serialized&#45;time&#45;and&#45;analyzed&#45;melody.ts</text>
</a>
</g>
</g>
<!-- packages/music&#45;structure/melody/melody&#45;analyze/src/analyze&#45;melody.ts&#45;&gt;packages/music&#45;structure/melody/melody&#45;analyze/src/serialized&#45;time&#45;and&#45;analyzed&#45;melody.ts -->
<g id="edge8" class="edge">
<title>packages/music&#45;structure/melody/melody&#45;analyze/src/analyze&#45;melody.ts&#45;&gt;packages/music&#45;structure/melody/melody&#45;analyze/src/serialized&#45;time&#45;and&#45;analyzed&#45;melody.ts</title>
<path fill="none" stroke="#000000" stroke-width="2" stroke-opacity="0.200000" d="M179.83,-387.76C203.17,-384.18 231.69,-379.82 257.04,-375.94"/>
<polygon fill="#000000" fill-opacity="0.200000" stroke="#000000" stroke-width="2" stroke-opacity="0.200000" points="257.46,-378 263.07,-375.02 256.82,-373.85 257.46,-378"/>
</g>
<!-- packages/music&#45;structure/melody/melody&#45;analyze/src/time&#45;and&#45;melody.ts -->
<g id="node12" class="node">
<title>packages/music&#45;structure/melody/melody&#45;analyze/src/time&#45;and&#45;melody.ts</title>
<g id="a_node12"><a xlink:href="packages/music-structure/melody/melody-analyze/src/time-and-melody.ts" xlink:title="time&#45;and&#45;melody.ts">
<path fill="#ddfeff" stroke="black" d="M368.5,-344C368.5,-344 277.5,-344 277.5,-344 274.5,-344 271.5,-341 271.5,-338 271.5,-338 271.5,-332 271.5,-332 271.5,-329 274.5,-326 277.5,-326 277.5,-326 368.5,-326 368.5,-326 371.5,-326 374.5,-329 374.5,-332 374.5,-332 374.5,-338 374.5,-338 374.5,-341 371.5,-344 368.5,-344"/>
<text text-anchor="start" x="279.5" y="-332.8" font-family="Helvetica,sans-Serif" font-size="9.00">time&#45;and&#45;melody.ts</text>
</a>
</g>
</g>
<!-- packages/music&#45;structure/melody/melody&#45;analyze/src/analyze&#45;melody.ts&#45;&gt;packages/music&#45;structure/melody/melody&#45;analyze/src/time&#45;and&#45;melody.ts -->
<g id="edge9" class="edge">
<title>packages/music&#45;structure/melody/melody&#45;analyze/src/analyze&#45;melody.ts&#45;&gt;packages/music&#45;structure/melody/melody&#45;analyze/src/time&#45;and&#45;melody.ts</title>
<path fill="none" stroke="#000000" stroke-width="2" stroke-opacity="0.200000" d="M179.53,-386.45C198.06,-383.08 215,-380 215,-380 215,-380 228,-351 228,-351 228,-351 245.54,-348.01 265.47,-344.62"/>
<polygon fill="#000000" fill-opacity="0.200000" stroke="#000000" stroke-width="2" stroke-opacity="0.200000" points="265.86,-346.69 271.42,-343.61 265.16,-342.55 265.86,-346.69"/>
</g>
<!-- packages/music&#45;structure/melody/melody&#45;analyze/src/register&#45;gravity.ts&#45;&gt;packages/util/math/dist/index.js -->
<g id="edge19" class="edge">
<title>packages/music&#45;structure/melody/melody&#45;analyze/src/register&#45;gravity.ts&#45;&gt;packages/util/math/dist/index.js</title>
<path fill="none" stroke="#000000" stroke-width="2" stroke-opacity="0.200000" d="M509.75,-371.96C534.74,-335.81 627.61,-201.44 658.18,-157.21"/>
<polygon fill="#000000" fill-opacity="0.200000" stroke="#000000" stroke-width="2" stroke-opacity="0.200000" points="660.06,-158.18 661.75,-152.05 656.61,-155.79 660.06,-158.18"/>
</g>
<!-- packages/music&#45;structure/melody/melody&#45;analyze/src/register&#45;gravity.ts&#45;&gt;packages/tonal&#45;objects/dist/index.js -->
<g id="edge20" class="edge">
<title>packages/music&#45;structure/melody/melody&#45;analyze/src/register&#45;gravity.ts&#45;&gt;packages/tonal&#45;objects/dist/index.js</title>
<path fill="none" stroke="#000000" stroke-width="2" stroke-opacity="0.200000" d="M546.14,-390.07C560.98,-393.23 574,-396 574,-396 574,-396 595,-745 595,-745 595,-745 635.01,-789.94 655.79,-813.28"/>
<polygon fill="#000000" fill-opacity="0.200000" stroke="#000000" stroke-width="2" stroke-opacity="0.200000" points="654.35,-814.83 659.91,-817.91 657.49,-812.03 654.35,-814.83"/>
</g>
<!-- packages/music&#45;structure/melody/melody&#45;analyze/src/serialized&#45;gravity.ts -->
<g id="node16" class="node">
<title>packages/music&#45;structure/melody/melody&#45;analyze/src/serialized&#45;gravity.ts</title>
<g id="a_node16"><a xlink:href="packages/music-structure/melody/melody-analyze/src/serialized-gravity.ts" xlink:title="serialized&#45;gravity.ts">
<path fill="#ddfeff" stroke="black" d="M714,-405C714,-405 624,-405 624,-405 621,-405 618,-402 618,-399 618,-399 618,-393 618,-393 618,-390 621,-387 624,-387 624,-387 714,-387 714,-387 717,-387 720,-390 720,-393 720,-393 720,-399 720,-399 720,-402 717,-405 714,-405"/>
<text text-anchor="start" x="626" y="-393.8" font-family="Helvetica,sans-Serif" font-size="9.00">serialized&#45;gravity.ts</text>
</a>
</g>
</g>
<!-- packages/music&#45;structure/melody/melody&#45;analyze/src/register&#45;gravity.ts&#45;&gt;packages/music&#45;structure/melody/melody&#45;analyze/src/serialized&#45;gravity.ts -->
<g id="edge18" class="edge">
<title>packages/music&#45;structure/melody/melody&#45;analyze/src/register&#45;gravity.ts&#45;&gt;packages/music&#45;structure/melody/melody&#45;analyze/src/serialized&#45;gravity.ts</title>
<path fill="none" stroke="#000000" stroke-width="2" stroke-opacity="0.200000" d="M550.2,-385.26C569.31,-387 591.59,-389.03 611.6,-390.86"/>
<polygon fill="#000000" fill-opacity="0.200000" stroke="#000000" stroke-width="2" stroke-opacity="0.200000" points="611.56,-392.96 617.73,-391.42 611.95,-388.78 611.56,-392.96"/>
</g>
<!-- packages/music&#45;structure/melody/melody&#45;analyze/src/serialized&#45;melody&#45;analysis.ts&#45;&gt;packages/cognitive&#45;theory&#45;of&#45;music/irm/dist/index.js -->
<g id="edge23" class="edge">
<title>packages/music&#45;structure/melody/melody&#45;analyze/src/serialized&#45;melody&#45;analysis.ts&#45;&gt;packages/cognitive&#45;theory&#45;of&#45;music/irm/dist/index.js</title>
<path fill="none" stroke="#000000" stroke-width="2" stroke-opacity="0.200000" d="M508.6,-420.18C532.21,-462.65 630.86,-640.17 659.92,-692.45"/>
<polygon fill="#000000" fill-opacity="0.200000" stroke="#000000" stroke-width="2" stroke-opacity="0.200000" points="658.21,-693.7 662.96,-697.92 661.88,-691.66 658.21,-693.7"/>
</g>
<!-- packages/music&#45;structure/melody/melody&#45;analyze/src/serialized&#45;melody&#45;analysis.ts&#45;&gt;packages/music&#45;structure/melody/melody&#45;analyze/src/serialized&#45;gravity.ts -->
<g id="edge22" class="edge">
<title>packages/music&#45;structure/melody/melody&#45;analyze/src/serialized&#45;melody&#45;analysis.ts&#45;&gt;packages/music&#45;structure/melody/melody&#45;analyze/src/serialized&#45;gravity.ts</title>
<path fill="none" stroke="#000000" stroke-width="2" stroke-opacity="0.200000" d="M574.22,-404.55C586.68,-403.42 599.49,-402.25 611.5,-401.15"/>
<polygon fill="#000000" fill-opacity="0.200000" stroke="#000000" stroke-width="2" stroke-opacity="0.200000" points="611.91,-403.22 617.69,-400.59 611.53,-399.04 611.91,-403.22"/>
</g>
<!-- packages/music&#45;structure/melody/melody&#45;analyze/src/serialized&#45;time&#45;and&#45;analyzed&#45;melody.ts&#45;&gt;packages/util/time&#45;and/dist/index.js -->
<g id="edge25" class="edge">
<title>packages/music&#45;structure/melody/melody&#45;analyze/src/serialized&#45;time&#45;and&#45;analyzed&#45;melody.ts&#45;&gt;packages/util/time&#45;and/dist/index.js</title>
<path fill="none" stroke="#000000" stroke-width="2" stroke-opacity="0.200000" d="M377.04,-356.97C398.37,-353.34 418,-350 418,-350 418,-350 431,-189 431,-189 431,-189 574,-169 574,-169 574,-169 595,-123 595,-123 595,-123 633.51,-83.96 654.59,-62.59"/>
<polygon fill="#000000" fill-opacity="0.200000" stroke="#000000" stroke-width="2" stroke-opacity="0.200000" points="656.33,-63.82 659.05,-58.07 653.34,-60.87 656.33,-63.82"/>
</g>
<!-- packages/music&#45;structure/melody/melody&#45;analyze/src/serialized&#45;time&#45;and&#45;analyzed&#45;melody.ts&#45;&gt;packages/music&#45;structure/melody/melody&#45;analyze/src/serialized&#45;melody&#45;analysis.ts -->
<g id="edge24" class="edge">
<title>packages/music&#45;structure/melody/melody&#45;analyze/src/serialized&#45;time&#45;and&#45;analyzed&#45;melody.ts&#45;&gt;packages/music&#45;structure/melody/melody&#45;analyze/src/serialized&#45;melody&#45;analysis.ts</title>
<path fill="none" stroke="#000000" stroke-width="2" stroke-opacity="0.200000" d="M356.1,-375C387.62,-383.84 431,-396 431,-396 431,-396 440.61,-398.05 452.74,-400.63"/>
<polygon fill="#000000" fill-opacity="0.200000" stroke="#000000" stroke-width="2" stroke-opacity="0.200000" points="452.56,-402.73 458.86,-401.93 453.43,-398.63 452.56,-402.73"/>
</g>
<!-- packages/music&#45;structure/melody/melody&#45;analyze/src/time&#45;and&#45;melody.ts&#45;&gt;packages/util/time&#45;and/dist/index.js -->
<g id="edge28" class="edge">
<title>packages/music&#45;structure/melody/melody&#45;analyze/src/time&#45;and&#45;melody.ts&#45;&gt;packages/util/time&#45;and/dist/index.js</title>
<path fill="none" stroke="#000000" stroke-width="2" stroke-opacity="0.200000" d="M331.69,-326C354.14,-299.73 418,-225 418,-225 418,-225 431,-175 431,-175 431,-175 574,-155 574,-155 574,-155 595,-123 595,-123 595,-123 633.51,-83.96 654.59,-62.59"/>
<polygon fill="#000000" fill-opacity="0.200000" stroke="#000000" stroke-width="2" stroke-opacity="0.200000" points="656.33,-63.82 659.05,-58.07 653.34,-60.87 656.33,-63.82"/>
</g>
<!-- packages/music&#45;structure/melody/melody&#45;analyze/src/get&#45;time&#45;and&#45;chord.ts -->
<g id="node13" class="node">
<title>packages/music&#45;structure/melody/melody&#45;analyze/src/get&#45;time&#45;and&#45;chord.ts</title>
<g id="a_node13"><a xlink:href="packages/music-structure/melody/melody-analyze/src/get-time-and-chord.ts" xlink:title="get&#45;time&#45;and&#45;chord.ts">
<path fill="#ddfeff" stroke="black" d="M183.5,-434C183.5,-434 79.5,-434 79.5,-434 76.5,-434 73.5,-431 73.5,-428 73.5,-428 73.5,-422 73.5,-422 73.5,-419 76.5,-416 79.5,-416 79.5,-416 183.5,-416 183.5,-416 186.5,-416 189.5,-419 189.5,-422 189.5,-422 189.5,-428 189.5,-428 189.5,-431 186.5,-434 183.5,-434"/>
<text text-anchor="start" x="81.5" y="-422.8" font-family="Helvetica,sans-Serif" font-size="9.00">get&#45;time&#45;and&#45;chord.ts</text>
</a>
</g>
</g>
<!-- packages/music&#45;structure/melody/melody&#45;analyze/src/get&#45;time&#45;and&#45;chord.ts&#45;&gt;packages/music&#45;structure/chord/chord&#45;analyze/dist/index.js -->
<g id="edge14" class="edge">
<title>packages/music&#45;structure/melody/melody&#45;analyze/src/get&#45;time&#45;and&#45;chord.ts&#45;&gt;packages/music&#45;structure/chord/chord&#45;analyze/dist/index.js</title>
<path fill="none" stroke="#000000" stroke-width="2" stroke-opacity="0.200000" d="M145.83,-434C178.91,-456.35 264.88,-514.42 303.15,-540.27"/>
<polygon fill="#000000" fill-opacity="0.200000" stroke="#000000" stroke-width="2" stroke-opacity="0.200000" points="302.29,-542.22 308.44,-543.84 304.64,-538.74 302.29,-542.22"/>
</g>
<!-- packages/music&#45;structure/melody/melody&#45;analyze/src/get&#45;time&#45;and&#45;chord.ts&#45;&gt;packages/tonal&#45;objects/dist/index.js -->
<g id="edge15" class="edge">
<title>packages/music&#45;structure/melody/melody&#45;analyze/src/get&#45;time&#45;and&#45;chord.ts&#45;&gt;packages/tonal&#45;objects/dist/index.js</title>
<path fill="none" stroke="#000000" stroke-width="2" stroke-opacity="0.200000" d="M134.96,-434.21C149.9,-490.24 228,-783 228,-783 228,-783 534.12,-813.61 635.69,-823.77"/>
<polygon fill="#000000" fill-opacity="0.200000" stroke="#000000" stroke-width="2" stroke-opacity="0.200000" points="635.61,-825.87 641.79,-824.38 636.03,-821.69 635.61,-825.87"/>
</g>
<!-- packages/music&#45;structure/melody/melody&#45;analyze/src/time&#45;and&#45;chord.ts -->
<g id="node14" class="node">
<title>packages/music&#45;structure/melody/melody&#45;analyze/src/time&#45;and&#45;chord.ts</title>
<g id="a_node14"><a xlink:href="packages/music-structure/melody/melody-analyze/src/time-and-chord.ts" xlink:title="time&#45;and&#45;chord.ts">
<path fill="#ddfeff" stroke="black" d="M366,-434C366,-434 280,-434 280,-434 277,-434 274,-431 274,-428 274,-428 274,-422 274,-422 274,-419 277,-416 280,-416 280,-416 366,-416 366,-416 369,-416 372,-419 372,-422 372,-422 372,-428 372,-428 372,-431 369,-434 366,-434"/>
<text text-anchor="start" x="282" y="-422.8" font-family="Helvetica,sans-Serif" font-size="9.00">time&#45;and&#45;chord.ts</text>
</a>
</g>
</g>
<!-- packages/music&#45;structure/melody/melody&#45;analyze/src/get&#45;time&#45;and&#45;chord.ts&#45;&gt;packages/music&#45;structure/melody/melody&#45;analyze/src/time&#45;and&#45;chord.ts -->
<g id="edge13" class="edge">
<title>packages/music&#45;structure/melody/melody&#45;analyze/src/get&#45;time&#45;and&#45;chord.ts&#45;&gt;packages/music&#45;structure/melody/melody&#45;analyze/src/time&#45;and&#45;chord.ts</title>
<path fill="none" stroke="#000000" stroke-width="2" stroke-opacity="0.200000" d="M189.61,-425C214.43,-425 243.36,-425 267.83,-425"/>
<polygon fill="#000000" fill-opacity="0.200000" stroke="#000000" stroke-width="2" stroke-opacity="0.200000" points="267.95,-427.1 273.95,-425 267.95,-422.9 267.95,-427.1"/>
</g>
<!-- packages/music&#45;structure/melody/melody&#45;analyze/src/time&#45;and&#45;chord.ts&#45;&gt;packages/util/time&#45;and/dist/index.js -->
<g id="edge26" class="edge">
<title>packages/music&#45;structure/melody/melody&#45;analyze/src/time&#45;and&#45;chord.ts&#45;&gt;packages/util/time&#45;and/dist/index.js</title>
<path fill="none" stroke="#000000" stroke-width="2" stroke-opacity="0.200000" d="M343.48,-415.88C371.01,-403 418,-381 418,-381 418,-381 574,-183 574,-183 574,-183 595,-123 595,-123 595,-123 633.51,-83.96 654.59,-62.59"/>
<polygon fill="#000000" fill-opacity="0.200000" stroke="#000000" stroke-width="2" stroke-opacity="0.200000" points="656.33,-63.82 659.05,-58.07 653.34,-60.87 656.33,-63.82"/>
</g>
<!-- packages/music&#45;structure/melody/melody&#45;analyze/src/time&#45;and&#45;chord.ts&#45;&gt;packages/tonal&#45;objects/dist/index.js -->
<g id="edge27" class="edge">
<title>packages/music&#45;structure/melody/melody&#45;analyze/src/time&#45;and&#45;chord.ts&#45;&gt;packages/tonal&#45;objects/dist/index.js</title>
<path fill="none" stroke="#000000" stroke-width="2" stroke-opacity="0.200000" d="M332.03,-434.06C374.83,-482.33 574,-707 574,-707 574,-707 595,-745 595,-745 595,-745 635.01,-789.94 655.79,-813.28"/>
<polygon fill="#000000" fill-opacity="0.200000" stroke="#000000" stroke-width="2" stroke-opacity="0.200000" points="654.35,-814.83 659.91,-817.91 657.49,-812.03 654.35,-814.83"/>
</g>
<!-- packages/music&#45;structure/melody/melody&#45;analyze/src/get&#45;time&#45;and&#45;melody.ts -->
<g id="node15" class="node">
<title>packages/music&#45;structure/melody/melody&#45;analyze/src/get&#45;time&#45;and&#45;melody.ts</title>
<g id="a_node15"><a xlink:href="packages/music-structure/melody/melody-analyze/src/get-time-and-melody.ts" xlink:title="get&#45;time&#45;and&#45;melody.ts">
<path fill="#ddfeff" stroke="black" d="M186,-344C186,-344 77,-344 77,-344 74,-344 71,-341 71,-338 71,-338 71,-332 71,-332 71,-329 74,-326 77,-326 77,-326 186,-326 186,-326 189,-326 192,-329 192,-332 192,-332 192,-338 192,-338 192,-341 189,-344 186,-344"/>
<text text-anchor="start" x="79" y="-332.8" font-family="Helvetica,sans-Serif" font-size="9.00">get&#45;time&#45;and&#45;melody.ts</text>
</a>
</g>
</g>
<!-- packages/music&#45;structure/melody/melody&#45;analyze/src/get&#45;time&#45;and&#45;melody.ts&#45;&gt;packages/util/time&#45;and/dist/index.js -->
<g id="edge17" class="edge">
<title>packages/music&#45;structure/melody/melody&#45;analyze/src/get&#45;time&#45;and&#45;melody.ts&#45;&gt;packages/util/time&#45;and/dist/index.js</title>
<path fill="none" stroke="#000000" stroke-width="2" stroke-opacity="0.200000" d="M189.8,-325.97C203.88,-323.75 215,-322 215,-322 215,-322 418,-175 418,-175 418,-175 431,-156 431,-156 431,-156 574,-110 574,-110 574,-110 621.45,-79.21 648.92,-61.38"/>
<polygon fill="#000000" fill-opacity="0.200000" stroke="#000000" stroke-width="2" stroke-opacity="0.200000" points="650.24,-63.03 654.13,-58 647.95,-59.51 650.24,-63.03"/>
</g>
<!-- packages/music&#45;structure/melody/melody&#45;analyze/src/get&#45;time&#45;and&#45;melody.ts&#45;&gt;packages/music&#45;structure/melody/melody&#45;analyze/src/time&#45;and&#45;melody.ts -->
<g id="edge16" class="edge">
<title>packages/music&#45;structure/melody/melody&#45;analyze/src/get&#45;time&#45;and&#45;melody.ts&#45;&gt;packages/music&#45;structure/melody/melody&#45;analyze/src/time&#45;and&#45;melody.ts</title>
<path fill="none" stroke="#000000" stroke-width="2" stroke-opacity="0.200000" d="M192.2,-335C215.5,-335 242.1,-335 265.12,-335"/>
<polygon fill="#000000" fill-opacity="0.200000" stroke="#000000" stroke-width="2" stroke-opacity="0.200000" points="265.21,-337.1 271.21,-335 265.21,-332.9 265.21,-337.1"/>
</g>
<!-- packages/music&#45;structure/melody/melody&#45;analyze/src/serialized&#45;melody&#45;analysis&#45;data.ts -->
<g id="node17" class="node">
<title>packages/music&#45;structure/melody/melody&#45;analyze/src/serialized&#45;melody&#45;analysis&#45;data.ts</title>
<g id="a_node17"><a xlink:href="packages/music-structure/melody/melody-analyze/src/serialized-melody-analysis-data.ts" xlink:title="serialized&#45;melody&#45;analysis&#45;data.ts">
<path fill="#ddfeff" stroke="black" d="M209,-374C209,-374 54,-374 54,-374 51,-374 48,-371 48,-368 48,-368 48,-362 48,-362 48,-359 51,-356 54,-356 54,-356 209,-356 209,-356 212,-356 215,-359 215,-362 215,-362 215,-368 215,-368 215,-371 212,-374 209,-374"/>
<text text-anchor="start" x="56" y="-362.8" font-family="Helvetica,sans-Serif" font-size="9.00">serialized&#45;melody&#45;analysis&#45;data.ts</text>
</a>
</g>
</g>
<!-- packages/music&#45;structure/melody/melody&#45;analyze/src/serialized&#45;melody&#45;analysis&#45;data.ts&#45;&gt;packages/music&#45;structure/melody/melody&#45;analyze/src/serialized&#45;time&#45;and&#45;analyzed&#45;melody.ts -->
<g id="edge21" class="edge">
<title>packages/music&#45;structure/melody/melody&#45;analyze/src/serialized&#45;melody&#45;analysis&#45;data.ts&#45;&gt;packages/music&#45;structure/melody/melody&#45;analyze/src/serialized&#45;time&#45;and&#45;analyzed&#45;melody.ts</title>
<path fill="none" stroke="#000000" stroke-width="2" stroke-opacity="0.200000" d="M215.07,-365.44C217.34,-365.45 219.63,-365.46 221.92,-365.47"/>
<polygon fill="#000000" fill-opacity="0.200000" stroke="#000000" stroke-width="2" stroke-opacity="0.200000" points="221.99,-367.57 228,-365.5 222.01,-363.37 221.99,-367.57"/>
</g>
</g>
</svg>
