<?xml version="1.0" encoding="UTF-8" standalone="no"?>
<!DOCTYPE svg PUBLIC "-//W3C//DTD SVG 1.1//EN"
 "http://www.w3.org/Graphics/SVG/1.1/DTD/svg11.dtd">
<!-- Generated by graphviz version 2.43.0 (0)
 -->
<!-- Title: dependency&#45;cruiser output Pages: 1 -->
<svg width="671pt" height="998pt"
 viewBox="0.00 0.00 671.00 998.00" xmlns="http://www.w3.org/2000/svg" xmlns:xlink="http://www.w3.org/1999/xlink">
<g id="graph0" class="graph" transform="scale(1 1) rotate(0) translate(4 994)">
<title>dependency&#45;cruiser output</title>
<polygon fill="white" stroke="transparent" points="-4,4 -4,-994 667,-994 667,4 -4,4"/>
<g id="clust1" class="cluster">
<title>cluster_packages</title>
<path fill="#ffffff" stroke="black" stroke-width="2" d="M20,-8C20,-8 651,-8 651,-8 657,-8 663,-14 663,-20 663,-20 663,-970 663,-970 663,-976 657,-982 651,-982 651,-982 20,-982 20,-982 14,-982 8,-976 8,-970 8,-970 8,-20 8,-20 8,-14 14,-8 20,-8"/>
<text text-anchor="middle" x="335.5" y="-970.8" font-family="Helvetica,sans-Serif" font-weight="bold" font-size="9.00">packages</text>
</g>
<g id="clust2" class="cluster">
<title>cluster_packages/cognitive&#45;theory&#45;of&#45;music</title>
<path fill="#ffffff" stroke="black" stroke-width="2" d="M518,-16C518,-16 643,-16 643,-16 649,-16 655,-22 655,-28 655,-28 655,-124 655,-124 655,-130 649,-136 643,-136 643,-136 518,-136 518,-136 512,-136 506,-130 506,-124 506,-124 506,-28 506,-28 506,-22 512,-16 518,-16"/>
<text text-anchor="middle" x="580.5" y="-124.8" font-family="Helvetica,sans-Serif" font-weight="bold" font-size="9.00">cognitive&#45;theory&#45;of&#45;music</text>
</g>
<g id="clust3" class="cluster">
<title>cluster_packages/cognitive&#45;theory&#45;of&#45;music/irm</title>
<path fill="#ffffff" stroke="black" stroke-width="2" d="M549,-24C549,-24 611,-24 611,-24 617,-24 623,-30 623,-36 623,-36 623,-98 623,-98 623,-104 617,-110 611,-110 611,-110 549,-110 549,-110 543,-110 537,-104 537,-98 537,-98 537,-36 537,-36 537,-30 543,-24 549,-24"/>
<text text-anchor="middle" x="580" y="-98.8" font-family="Helvetica,sans-Serif" font-weight="bold" font-size="9.00">irm</text>
</g>
<g id="clust4" class="cluster">
<title>cluster_packages/cognitive&#45;theory&#45;of&#45;music/irm/dist</title>
<path fill="#ffffff" stroke="black" stroke-width="2" d="M557,-32C557,-32 603,-32 603,-32 609,-32 615,-38 615,-44 615,-44 615,-72 615,-72 615,-78 609,-84 603,-84 603,-84 557,-84 557,-84 551,-84 545,-78 545,-72 545,-72 545,-44 545,-44 545,-38 551,-32 557,-32"/>
<text text-anchor="middle" x="580" y="-72.8" font-family="Helvetica,sans-Serif" font-weight="bold" font-size="9.00">dist</text>
</g>
<g id="clust5" class="cluster">
<title>cluster_packages/music&#45;structure</title>
<path fill="#ffffff" stroke="black" stroke-width="2" d="M28,-144C28,-144 629,-144 629,-144 635,-144 641,-150 641,-156 641,-156 641,-594 641,-594 641,-600 635,-606 629,-606 629,-606 28,-606 28,-606 22,-606 16,-600 16,-594 16,-594 16,-156 16,-156 16,-150 22,-144 28,-144"/>
<text text-anchor="middle" x="328.5" y="-594.8" font-family="Helvetica,sans-Serif" font-weight="bold" font-size="9.00">music&#45;structure</text>
</g>
<g id="clust6" class="cluster">
<title>cluster_packages/music&#45;structure/chord</title>
<path fill="#ffffff" stroke="black" stroke-width="2" d="M190,-396C190,-396 369,-396 369,-396 375,-396 381,-402 381,-408 381,-408 381,-568 381,-568 381,-574 375,-580 369,-580 369,-580 190,-580 190,-580 184,-580 178,-574 178,-568 178,-568 178,-408 178,-408 178,-402 184,-396 190,-396"/>
<text text-anchor="middle" x="279.5" y="-568.8" font-family="Helvetica,sans-Serif" font-weight="bold" font-size="9.00">chord</text>
</g>
<g id="clust7" class="cluster">
<title>cluster_packages/music&#45;structure/chord/chord&#45;analyze</title>
<path fill="#ffffff" stroke="black" stroke-width="2" d="M198,-404C198,-404 361,-404 361,-404 367,-404 373,-410 373,-416 373,-416 373,-542 373,-542 373,-548 367,-554 361,-554 361,-554 198,-554 198,-554 192,-554 186,-548 186,-542 186,-542 186,-416 186,-416 186,-410 192,-404 198,-404"/>
<text text-anchor="middle" x="279.5" y="-542.8" font-family="Helvetica,sans-Serif" font-weight="bold" font-size="9.00">chord&#45;analyze</text>
</g>
<g id="clust8" class="cluster">
<title>cluster_packages/music&#45;structure/chord/chord&#45;analyze/src</title>
<path fill="#ffffff" stroke="black" stroke-width="2" d="M206,-412C206,-412 353,-412 353,-412 359,-412 365,-418 365,-424 365,-424 365,-516 365,-516 365,-522 359,-528 353,-528 353,-528 206,-528 206,-528 200,-528 194,-522 194,-516 194,-516 194,-424 194,-424 194,-418 200,-412 206,-412"/>
<text text-anchor="middle" x="279.5" y="-516.8" font-family="Helvetica,sans-Serif" font-weight="bold" font-size="9.00">src</text>
</g>
<g id="clust9" class="cluster">
<title>cluster_packages/music&#45;structure/chord/chord&#45;analyze/src/chord&#45;analyze</title>
<path fill="#ffffff" stroke="black" stroke-width="2" d="M214,-420C214,-420 345,-420 345,-420 351,-420 357,-426 357,-432 357,-432 357,-490 357,-490 357,-496 351,-502 345,-502 345,-502 214,-502 214,-502 208,-502 202,-496 202,-490 202,-490 202,-432 202,-432 202,-426 208,-420 214,-420"/>
<text text-anchor="middle" x="279.5" y="-490.8" font-family="Helvetica,sans-Serif" font-weight="bold" font-size="9.00">chord&#45;analyze</text>
</g>
<g id="clust10" class="cluster">
<title>cluster_packages/music&#45;structure/melody</title>
<path fill="#ffffff" stroke="black" stroke-width="2" d="M36,-152C36,-152 621,-152 621,-152 627,-152 633,-158 633,-164 633,-164 633,-376 633,-376 633,-382 627,-388 621,-388 621,-388 36,-388 36,-388 30,-388 24,-382 24,-376 24,-376 24,-164 24,-164 24,-158 30,-152 36,-152"/>
<text text-anchor="middle" x="328.5" y="-376.8" font-family="Helvetica,sans-Serif" font-weight="bold" font-size="9.00">melody</text>
</g>
<g id="clust11" class="cluster">
<title>cluster_packages/music&#45;structure/melody/melody&#45;analyze</title>
<path fill="#ffffff" stroke="black" stroke-width="2" d="M44,-160C44,-160 613,-160 613,-160 619,-160 625,-166 625,-172 625,-172 625,-350 625,-350 625,-356 619,-362 613,-362 613,-362 44,-362 44,-362 38,-362 32,-356 32,-350 32,-350 32,-172 32,-172 32,-166 38,-160 44,-160"/>
<text text-anchor="middle" x="328.5" y="-350.8" font-family="Helvetica,sans-Serif" font-weight="bold" font-size="9.00">melody&#45;analyze</text>
</g>
<g id="clust12" class="cluster">
<title>cluster_packages/music&#45;structure/melody/melody&#45;analyze/src</title>
<path fill="#ffffff" stroke="black" stroke-width="2" d="M52,-194C52,-194 605,-194 605,-194 611,-194 617,-200 617,-206 617,-206 617,-324 617,-324 617,-330 611,-336 605,-336 605,-336 52,-336 52,-336 46,-336 40,-330 40,-324 40,-324 40,-206 40,-206 40,-200 46,-194 52,-194"/>
<text text-anchor="middle" x="328.5" y="-324.8" font-family="Helvetica,sans-Serif" font-weight="bold" font-size="9.00">src</text>
</g>
<g id="clust13" class="cluster">
<title>cluster_packages/tonal&#45;objects</title>
<path fill="#ffffff" stroke="black" stroke-width="2" d="M549,-870C549,-870 611,-870 611,-870 617,-870 623,-876 623,-882 623,-882 623,-944 623,-944 623,-950 617,-956 611,-956 611,-956 549,-956 549,-956 543,-956 537,-950 537,-944 537,-944 537,-882 537,-882 537,-876 543,-870 549,-870"/>
<text text-anchor="middle" x="580" y="-944.8" font-family="Helvetica,sans-Serif" font-weight="bold" font-size="9.00">tonal&#45;objects</text>
</g>
<g id="clust14" class="cluster">
<title>cluster_packages/tonal&#45;objects/dist</title>
<path fill="#ffffff" stroke="black" stroke-width="2" d="M557,-878C557,-878 603,-878 603,-878 609,-878 615,-884 615,-890 615,-890 615,-918 615,-918 615,-924 609,-930 603,-930 603,-930 557,-930 557,-930 551,-930 545,-924 545,-918 545,-918 545,-890 545,-890 545,-884 551,-878 557,-878"/>
<text text-anchor="middle" x="580" y="-918.8" font-family="Helvetica,sans-Serif" font-weight="bold" font-size="9.00">dist</text>
</g>
<g id="clust15" class="cluster">
<title>cluster_packages/util</title>
<path fill="#ffffff" stroke="black" stroke-width="2" d="M524,-614C524,-614 637,-614 637,-614 643,-614 649,-620 649,-626 649,-626 649,-850 649,-850 649,-856 643,-862 637,-862 637,-862 524,-862 524,-862 518,-862 512,-856 512,-850 512,-850 512,-626 512,-626 512,-620 518,-614 524,-614"/>
<text text-anchor="middle" x="580.5" y="-850.8" font-family="Helvetica,sans-Serif" font-weight="bold" font-size="9.00">util</text>
</g>
<g id="clust16" class="cluster">
<title>cluster_packages/util/math</title>
<path fill="#ffffff" stroke="black" stroke-width="2" d="M532,-622C532,-622 629,-622 629,-622 635,-622 641,-628 641,-634 641,-634 641,-730 641,-730 641,-736 635,-742 629,-742 629,-742 532,-742 532,-742 526,-742 520,-736 520,-730 520,-730 520,-634 520,-634 520,-628 526,-622 532,-622"/>
<text text-anchor="middle" x="580.5" y="-730.8" font-family="Helvetica,sans-Serif" font-weight="bold" font-size="9.00">math</text>
</g>
<g id="clust17" class="cluster">
<title>cluster_packages/util/math/src</title>
<path fill="#ffffff" stroke="black" stroke-width="2" d="M540,-630C540,-630 621,-630 621,-630 627,-630 633,-636 633,-642 633,-642 633,-704 633,-704 633,-710 627,-716 621,-716 621,-716 540,-716 540,-716 534,-716 528,-710 528,-704 528,-704 528,-642 528,-642 528,-636 534,-630 540,-630"/>
<text text-anchor="middle" x="580.5" y="-704.8" font-family="Helvetica,sans-Serif" font-weight="bold" font-size="9.00">src</text>
</g>
<g id="clust18" class="cluster">
<title>cluster_packages/util/math/src/basic&#45;function</title>
<path fill="#ffffff" stroke="black" stroke-width="2" d="M548,-638C548,-638 613,-638 613,-638 619,-638 625,-644 625,-650 625,-650 625,-678 625,-678 625,-684 619,-690 613,-690 613,-690 548,-690 548,-690 542,-690 536,-684 536,-678 536,-678 536,-650 536,-650 536,-644 542,-638 548,-638"/>
<text text-anchor="middle" x="580.5" y="-678.8" font-family="Helvetica,sans-Serif" font-weight="bold" font-size="9.00">basic&#45;function</text>
</g>
<g id="clust19" class="cluster">
<title>cluster_packages/util/time&#45;and</title>
<path fill="#ffffff" stroke="black" stroke-width="2" d="M549,-750C549,-750 611,-750 611,-750 617,-750 623,-756 623,-762 623,-762 623,-824 623,-824 623,-830 617,-836 611,-836 611,-836 549,-836 549,-836 543,-836 537,-830 537,-824 537,-824 537,-762 537,-762 537,-756 543,-750 549,-750"/>
<text text-anchor="middle" x="580" y="-824.8" font-family="Helvetica,sans-Serif" font-weight="bold" font-size="9.00">time&#45;and</text>
</g>
<g id="clust20" class="cluster">
<title>cluster_packages/util/time&#45;and/dist</title>
<path fill="#ffffff" stroke="black" stroke-width="2" d="M557,-758C557,-758 603,-758 603,-758 609,-758 615,-764 615,-770 615,-770 615,-798 615,-798 615,-804 609,-810 603,-810 603,-810 557,-810 557,-810 551,-810 545,-804 545,-798 545,-798 545,-770 545,-770 545,-764 551,-758 557,-758"/>
<text text-anchor="middle" x="580" y="-798.8" font-family="Helvetica,sans-Serif" font-weight="bold" font-size="9.00">dist</text>
</g>
<!-- packages/cognitive&#45;theory&#45;of&#45;music/irm/dist/index.js -->
<g id="node1" class="node">
<title>packages/cognitive&#45;theory&#45;of&#45;music/irm/dist/index.js</title>
<g id="a_node1"><a xlink:href="packages/cognitive-theory-of-music/irm/dist/index.js" xlink:title="index.js">
<polygon fill="#ffffcc" stroke="black" points="607,-58 605.5,-60 595,-60 593.5,-58 553,-58 553,-40 607,-40 607,-58"/>
<text text-anchor="start" x="562.5" y="-46.8" font-family="Helvetica,sans-Serif" font-size="9.00">index.js</text>
</a>
</g>
</g>
<!-- packages/music&#45;structure/chord/chord&#45;analyze/src/chord&#45;analyze/time&#45;and&#45;chord.ts -->
<g id="node2" class="node">
<title>packages/music&#45;structure/chord/chord&#45;analyze/src/chord&#45;analyze/time&#45;and&#45;chord.ts</title>
<g id="a_node2"><a xlink:href="packages/music-structure/chord/chord-analyze/src/chord-analyze/time-and-chord.ts" xlink:title="time&#45;and&#45;chord.ts">
<path fill="#ddfeff" stroke="black" d="M322.5,-476C322.5,-476 236.5,-476 236.5,-476 233.5,-476 230.5,-473 230.5,-470 230.5,-470 230.5,-464 230.5,-464 230.5,-461 233.5,-458 236.5,-458 236.5,-458 322.5,-458 322.5,-458 325.5,-458 328.5,-461 328.5,-464 328.5,-464 328.5,-470 328.5,-470 328.5,-473 325.5,-476 322.5,-476"/>
<text text-anchor="start" x="238.5" y="-464.8" font-family="Helvetica,sans-Serif" font-size="9.00">time&#45;and&#45;chord.ts</text>
</a>
</g>
</g>
<!-- packages/util/time&#45;and/dist/index.js -->
<g id="node3" class="node">
<title>packages/util/time&#45;and/dist/index.js</title>
<g id="a_node3"><a xlink:href="packages/util/time-and/dist/index.js" xlink:title="index.js">
<polygon fill="#ffffcc" stroke="black" points="607,-784 605.5,-786 595,-786 593.5,-784 553,-784 553,-766 607,-766 607,-784"/>
<text text-anchor="start" x="562.5" y="-772.8" font-family="Helvetica,sans-Serif" font-size="9.00">index.js</text>
</a>
</g>
</g>
<!-- packages/music&#45;structure/chord/chord&#45;analyze/src/chord&#45;analyze/time&#45;and&#45;chord.ts&#45;&gt;packages/util/time&#45;and/dist/index.js -->
<g id="edge1" class="edge">
<title>packages/music&#45;structure/chord/chord&#45;analyze/src/chord&#45;analyze/time&#45;and&#45;chord.ts&#45;&gt;packages/util/time&#45;and/dist/index.js</title>
<path fill="none" stroke="#000000" stroke-width="2" stroke-opacity="0.200000" d="M288.49,-476.22C331.44,-520.23 515.64,-709.03 566.78,-761.45"/>
<polygon fill="#000000" fill-opacity="0.200000" stroke="#000000" stroke-width="2" stroke-opacity="0.200000" points="565.35,-762.99 571.04,-765.82 568.35,-760.06 565.35,-762.99"/>
</g>
<!-- packages/music&#45;structure/chord/chord&#45;analyze/src/chord&#45;analyze/time&#45;and&#45;roman&#45;analysis.ts -->
<g id="node4" class="node">
<title>packages/music&#45;structure/chord/chord&#45;analyze/src/chord&#45;analyze/time&#45;and&#45;roman&#45;analysis.ts</title>
<g id="a_node4"><a xlink:href="packages/music-structure/chord/chord-analyze/src/chord-analyze/time-and-roman-analysis.ts" xlink:title="time&#45;and&#45;roman&#45;analysis.ts">
<path fill="#ddfeff" stroke="black" d="M343,-446C343,-446 216,-446 216,-446 213,-446 210,-443 210,-440 210,-440 210,-434 210,-434 210,-431 213,-428 216,-428 216,-428 343,-428 343,-428 346,-428 349,-431 349,-434 349,-434 349,-440 349,-440 349,-443 346,-446 343,-446"/>
<text text-anchor="start" x="218" y="-434.8" font-family="Helvetica,sans-Serif" font-size="9.00">time&#45;and&#45;roman&#45;analysis.ts</text>
</a>
</g>
</g>
<!-- packages/music&#45;structure/chord/chord&#45;analyze/src/chord&#45;analyze/time&#45;and&#45;roman&#45;analysis.ts&#45;&gt;packages/util/time&#45;and/dist/index.js -->
<g id="edge2" class="edge">
<title>packages/music&#45;structure/chord/chord&#45;analyze/src/chord&#45;analyze/time&#45;and&#45;roman&#45;analysis.ts&#45;&gt;packages/util/time&#45;and/dist/index.js</title>
<path fill="none" stroke="#000000" stroke-width="2" stroke-opacity="0.200000" d="M287.54,-446.04C328.85,-492.51 517.32,-704.5 567.63,-761.08"/>
<polygon fill="#000000" fill-opacity="0.200000" stroke="#000000" stroke-width="2" stroke-opacity="0.200000" points="566.24,-762.68 571.8,-765.77 569.38,-759.89 566.24,-762.68"/>
</g>
<!-- packages/music&#45;structure/melody/melody&#45;analyze/index.test.ts -->
<g id="node5" class="node">
<title>packages/music&#45;structure/melody/melody&#45;analyze/index.test.ts</title>
<g id="a_node5"><a xlink:href="packages/music-structure/melody/melody-analyze/index.test.ts" xlink:title="no&#45;orphans">
<path fill="#ccffcc" stroke="orange" d="M139.5,-186C139.5,-186 78.5,-186 78.5,-186 75.5,-186 72.5,-183 72.5,-180 72.5,-180 72.5,-174 72.5,-174 72.5,-171 75.5,-168 78.5,-168 78.5,-168 139.5,-168 139.5,-168 142.5,-168 145.5,-171 145.5,-174 145.5,-174 145.5,-180 145.5,-180 145.5,-183 142.5,-186 139.5,-186"/>
<text text-anchor="start" x="80.5" y="-174.8" font-family="Helvetica,sans-Serif" font-size="9.00" fill="orange">index.test.ts</text>
</a>
</g>
</g>
<!-- packages/music&#45;structure/melody/melody&#45;analyze/src/analyze&#45;melody.ts -->
<g id="node6" class="node">
<title>packages/music&#45;structure/melody/melody&#45;analyze/src/analyze&#45;melody.ts</title>
<g id="a_node6"><a xlink:href="packages/music-structure/melody/melody-analyze/src/analyze-melody.ts" xlink:title="analyze&#45;melody.ts">
<path fill="#ddfeff" stroke="black" d="M151,-250C151,-250 67,-250 67,-250 64,-250 61,-247 61,-244 61,-244 61,-238 61,-238 61,-235 64,-232 67,-232 67,-232 151,-232 151,-232 154,-232 157,-235 157,-238 157,-238 157,-244 157,-244 157,-247 154,-250 151,-250"/>
<text text-anchor="start" x="69" y="-238.8" font-family="Helvetica,sans-Serif" font-size="9.00">analyze&#45;melody.ts</text>
</a>
</g>
</g>
<!-- packages/music&#45;structure/melody/melody&#45;analyze/src/analyze&#45;melody.ts&#45;&gt;packages/cognitive&#45;theory&#45;of&#45;music/irm/dist/index.js -->
<g id="edge8" class="edge">
<title>packages/music&#45;structure/melody/melody&#45;analyze/src/analyze&#45;melody.ts&#45;&gt;packages/cognitive&#45;theory&#45;of&#45;music/irm/dist/index.js</title>
<path fill="none" stroke="#000000" stroke-width="2" stroke-opacity="0.200000" d="M131.09,-232C208.33,-200.51 466.35,-95.33 552.06,-60.39"/>
<polygon fill="#000000" fill-opacity="0.200000" stroke="#000000" stroke-width="2" stroke-opacity="0.200000" points="552.93,-62.3 557.69,-58.09 551.34,-58.42 552.93,-62.3"/>
</g>
<!-- packages/music&#45;structure/melody/melody&#45;analyze/src/analyze&#45;melody.ts&#45;&gt;packages/music&#45;structure/chord/chord&#45;analyze/src/chord&#45;analyze/time&#45;and&#45;roman&#45;analysis.ts -->
<g id="edge7" class="edge">
<title>packages/music&#45;structure/melody/melody&#45;analyze/src/analyze&#45;melody.ts&#45;&gt;packages/music&#45;structure/chord/chord&#45;analyze/src/chord&#45;analyze/time&#45;and&#45;roman&#45;analysis.ts</title>
<path fill="none" stroke="#000000" stroke-width="2" stroke-opacity="0.200000" d="M117.9,-250.19C144.93,-281.63 233.79,-385 266.38,-422.9"/>
<polygon fill="#000000" fill-opacity="0.200000" stroke="#000000" stroke-width="2" stroke-opacity="0.200000" points="264.92,-424.42 270.42,-427.6 268.1,-421.68 264.92,-424.42"/>
</g>
<!-- packages/music&#45;structure/melody/melody&#45;analyze/src/melody&#45;analysis.ts -->
<g id="node7" class="node">
<title>packages/music&#45;structure/melody/melody&#45;analyze/src/melody&#45;analysis.ts</title>
<g id="a_node7"><a xlink:href="packages/music-structure/melody/melody-analyze/src/melody-analysis.ts" xlink:title="melody&#45;analysis.ts">
<path fill="#ddfeff" stroke="black" d="M482,-225C482,-225 395,-225 395,-225 392,-225 389,-222 389,-219 389,-219 389,-213 389,-213 389,-210 392,-207 395,-207 395,-207 482,-207 482,-207 485,-207 488,-210 488,-213 488,-213 488,-219 488,-219 488,-222 485,-225 482,-225"/>
<text text-anchor="start" x="397" y="-213.8" font-family="Helvetica,sans-Serif" font-size="9.00">melody&#45;analysis.ts</text>
</a>
</g>
</g>
<!-- packages/music&#45;structure/melody/melody&#45;analyze/src/analyze&#45;melody.ts&#45;&gt;packages/music&#45;structure/melody/melody&#45;analyze/src/melody&#45;analysis.ts -->
<g id="edge3" class="edge">
<title>packages/music&#45;structure/melody/melody&#45;analyze/src/analyze&#45;melody.ts&#45;&gt;packages/music&#45;structure/melody/melody&#45;analyze/src/melody&#45;analysis.ts</title>
<path fill="none" stroke="#000000" stroke-width="2" stroke-opacity="0.200000" d="M157.27,-237.34C217.27,-232.79 319.48,-225.03 382.76,-220.23"/>
<polygon fill="#000000" fill-opacity="0.200000" stroke="#000000" stroke-width="2" stroke-opacity="0.200000" points="382.93,-222.32 388.76,-219.77 382.62,-218.13 382.93,-222.32"/>
</g>
<!-- packages/music&#45;structure/melody/melody&#45;analyze/src/register&#45;gravity.ts -->
<g id="node8" class="node">
<title>packages/music&#45;structure/melody/melody&#45;analyze/src/register&#45;gravity.ts</title>
<g id="a_node8"><a xlink:href="packages/music-structure/melody/melody-analyze/src/register-gravity.ts" xlink:title="register&#45;gravity.ts">
<path fill="#ddfeff" stroke="black" d="M480,-258C480,-258 397,-258 397,-258 394,-258 391,-255 391,-252 391,-252 391,-246 391,-246 391,-243 394,-240 397,-240 397,-240 480,-240 480,-240 483,-240 486,-243 486,-246 486,-246 486,-252 486,-252 486,-255 483,-258 480,-258"/>
<text text-anchor="start" x="399" y="-246.8" font-family="Helvetica,sans-Serif" font-size="9.00">register&#45;gravity.ts</text>
</a>
</g>
</g>
<!-- packages/music&#45;structure/melody/melody&#45;analyze/src/analyze&#45;melody.ts&#45;&gt;packages/music&#45;structure/melody/melody&#45;analyze/src/register&#45;gravity.ts -->
<g id="edge4" class="edge">
<title>packages/music&#45;structure/melody/melody&#45;analyze/src/analyze&#45;melody.ts&#45;&gt;packages/music&#45;structure/melody/melody&#45;analyze/src/register&#45;gravity.ts</title>
<path fill="none" stroke="#000000" stroke-width="2" stroke-opacity="0.200000" d="M157.27,-242.17C217.84,-243.64 321.42,-246.16 384.55,-247.69"/>
<polygon fill="#000000" fill-opacity="0.200000" stroke="#000000" stroke-width="2" stroke-opacity="0.200000" points="384.86,-249.8 390.91,-247.84 384.96,-245.6 384.86,-249.8"/>
</g>
<!-- packages/music&#45;structure/melody/melody&#45;analyze/src/time&#45;and&#45;analyzed&#45;melody.ts -->
<g id="node9" class="node">
<title>packages/music&#45;structure/melody/melody&#45;analyze/src/time&#45;and&#45;analyzed&#45;melody.ts</title>
<g id="a_node9"><a xlink:href="packages/music-structure/melody/melody-analyze/src/time-and-analyzed-melody.ts" xlink:title="time&#45;and&#45;analyzed&#45;melody.ts">
<path fill="#ddfeff" stroke="black" d="M346.5,-222C346.5,-222 212.5,-222 212.5,-222 209.5,-222 206.5,-219 206.5,-216 206.5,-216 206.5,-210 206.5,-210 206.5,-207 209.5,-204 212.5,-204 212.5,-204 346.5,-204 346.5,-204 349.5,-204 352.5,-207 352.5,-210 352.5,-210 352.5,-216 352.5,-216 352.5,-219 349.5,-222 346.5,-222"/>
<text text-anchor="start" x="214.5" y="-210.8" font-family="Helvetica,sans-Serif" font-size="9.00">time&#45;and&#45;analyzed&#45;melody.ts</text>
</a>
</g>
</g>
<!-- packages/music&#45;structure/melody/melody&#45;analyze/src/analyze&#45;melody.ts&#45;&gt;packages/music&#45;structure/melody/melody&#45;analyze/src/time&#45;and&#45;analyzed&#45;melody.ts -->
<g id="edge5" class="edge">
<title>packages/music&#45;structure/melody/melody&#45;analyze/src/analyze&#45;melody.ts&#45;&gt;packages/music&#45;structure/melody/melody&#45;analyze/src/time&#45;and&#45;analyzed&#45;melody.ts</title>
<path fill="none" stroke="#000000" stroke-width="2" stroke-opacity="0.200000" d="M157.39,-233.13C176.17,-230 198.01,-226.37 217.93,-223.07"/>
<polygon fill="#000000" fill-opacity="0.200000" stroke="#000000" stroke-width="2" stroke-opacity="0.200000" points="218.47,-225.1 224.04,-222.05 217.78,-220.96 218.47,-225.1"/>
</g>
<!-- packages/music&#45;structure/melody/melody&#45;analyze/src/time&#45;and&#45;melody.ts -->
<g id="node10" class="node">
<title>packages/music&#45;structure/melody/melody&#45;analyze/src/time&#45;and&#45;melody.ts</title>
<g id="a_node10"><a xlink:href="packages/music-structure/melody/melody-analyze/src/time-and-melody.ts" xlink:title="time&#45;and&#45;melody.ts">
<path fill="#ddfeff" stroke="black" d="M325,-280C325,-280 234,-280 234,-280 231,-280 228,-277 228,-274 228,-274 228,-268 228,-268 228,-265 231,-262 234,-262 234,-262 325,-262 325,-262 328,-262 331,-265 331,-268 331,-268 331,-274 331,-274 331,-277 328,-280 325,-280"/>
<text text-anchor="start" x="236" y="-268.8" font-family="Helvetica,sans-Serif" font-size="9.00">time&#45;and&#45;melody.ts</text>
</a>
</g>
</g>
<!-- packages/music&#45;structure/melody/melody&#45;analyze/src/analyze&#45;melody.ts&#45;&gt;packages/music&#45;structure/melody/melody&#45;analyze/src/time&#45;and&#45;melody.ts -->
<g id="edge6" class="edge">
<title>packages/music&#45;structure/melody/melody&#45;analyze/src/analyze&#45;melody.ts&#45;&gt;packages/music&#45;structure/melody/melody&#45;analyze/src/time&#45;and&#45;melody.ts</title>
<path fill="none" stroke="#000000" stroke-width="2" stroke-opacity="0.200000" d="M157.39,-249.44C177.41,-253 200.89,-257.18 221.82,-260.91"/>
<polygon fill="#000000" fill-opacity="0.200000" stroke="#000000" stroke-width="2" stroke-opacity="0.200000" points="221.66,-263.01 227.94,-262 222.4,-258.88 221.66,-263.01"/>
</g>
<!-- packages/tonal&#45;objects/dist/index.js -->
<g id="node11" class="node">
<title>packages/tonal&#45;objects/dist/index.js</title>
<g id="a_node11"><a xlink:href="packages/tonal-objects/dist/index.js" xlink:title="index.js">
<polygon fill="#ffffcc" stroke="black" points="607,-904 605.5,-906 595,-906 593.5,-904 553,-904 553,-886 607,-886 607,-904"/>
<text text-anchor="start" x="562.5" y="-892.8" font-family="Helvetica,sans-Serif" font-size="9.00">index.js</text>
</a>
</g>
</g>
<!-- packages/music&#45;structure/melody/melody&#45;analyze/src/analyze&#45;melody.ts&#45;&gt;packages/tonal&#45;objects/dist/index.js -->
<g id="edge9" class="edge">
<title>packages/music&#45;structure/melody/melody&#45;analyze/src/analyze&#45;melody.ts&#45;&gt;packages/tonal&#45;objects/dist/index.js</title>
<path fill="none" stroke="#000000" stroke-width="2" stroke-opacity="0.200000" d="M115.66,-250.25C167.46,-322.17 505.72,-791.86 569.6,-880.56"/>
<polygon fill="#000000" fill-opacity="0.200000" stroke="#000000" stroke-width="2" stroke-opacity="0.200000" points="568.04,-881.98 573.25,-885.63 571.45,-879.53 568.04,-881.98"/>
</g>
<!-- packages/music&#45;structure/melody/melody&#45;analyze/src/melody&#45;analysis.ts&#45;&gt;packages/cognitive&#45;theory&#45;of&#45;music/irm/dist/index.js -->
<g id="edge17" class="edge">
<title>packages/music&#45;structure/melody/melody&#45;analyze/src/melody&#45;analysis.ts&#45;&gt;packages/cognitive&#45;theory&#45;of&#45;music/irm/dist/index.js</title>
<path fill="none" stroke="#000000" stroke-width="2" stroke-opacity="0.200000" d="M447.4,-206.54C470.71,-178.64 539.28,-96.54 567.09,-63.26"/>
<polygon fill="#000000" fill-opacity="0.200000" stroke="#000000" stroke-width="2" stroke-opacity="0.200000" points="568.95,-64.3 571.19,-58.35 565.73,-61.61 568.95,-64.3"/>
</g>
<!-- packages/music&#45;structure/melody/melody&#45;analyze/src/gravity.ts -->
<g id="node15" class="node">
<title>packages/music&#45;structure/melody/melody&#45;analyze/src/gravity.ts</title>
<g id="a_node15"><a xlink:href="packages/music-structure/melody/melody-analyze/src/gravity.ts" xlink:title="gravity.ts">
<path fill="#ddfeff" stroke="black" d="M603,-241C603,-241 557,-241 557,-241 554,-241 551,-238 551,-235 551,-235 551,-229 551,-229 551,-226 554,-223 557,-223 557,-223 603,-223 603,-223 606,-223 609,-226 609,-229 609,-229 609,-235 609,-235 609,-238 606,-241 603,-241"/>
<text text-anchor="start" x="559" y="-229.8" font-family="Helvetica,sans-Serif" font-size="9.00">gravity.ts</text>
</a>
</g>
</g>
<!-- packages/music&#45;structure/melody/melody&#45;analyze/src/melody&#45;analysis.ts&#45;&gt;packages/music&#45;structure/melody/melody&#45;analyze/src/gravity.ts -->
<g id="edge16" class="edge">
<title>packages/music&#45;structure/melody/melody&#45;analyze/src/melody&#45;analysis.ts&#45;&gt;packages/music&#45;structure/melody/melody&#45;analyze/src/gravity.ts</title>
<path fill="none" stroke="#000000" stroke-width="2" stroke-opacity="0.200000" d="M488.29,-221.6C506.9,-223.73 527.71,-226.12 544.7,-228.07"/>
<polygon fill="#000000" fill-opacity="0.200000" stroke="#000000" stroke-width="2" stroke-opacity="0.200000" points="544.58,-230.17 550.78,-228.76 545.05,-225.99 544.58,-230.17"/>
</g>
<!-- packages/music&#45;structure/melody/melody&#45;analyze/src/register&#45;gravity.ts&#45;&gt;packages/tonal&#45;objects/dist/index.js -->
<g id="edge20" class="edge">
<title>packages/music&#45;structure/melody/melody&#45;analyze/src/register&#45;gravity.ts&#45;&gt;packages/tonal&#45;objects/dist/index.js</title>
<path fill="none" stroke="#000000" stroke-width="2" stroke-opacity="0.200000" d="M441.47,-258.13C456.75,-328.9 556.2,-789.43 575.69,-879.67"/>
<polygon fill="#000000" fill-opacity="0.200000" stroke="#000000" stroke-width="2" stroke-opacity="0.200000" points="573.68,-880.32 577,-885.74 577.79,-879.43 573.68,-880.32"/>
</g>
<!-- packages/music&#45;structure/melody/melody&#45;analyze/src/register&#45;gravity.ts&#45;&gt;packages/music&#45;structure/melody/melody&#45;analyze/src/gravity.ts -->
<g id="edge18" class="edge">
<title>packages/music&#45;structure/melody/melody&#45;analyze/src/register&#45;gravity.ts&#45;&gt;packages/music&#45;structure/melody/melody&#45;analyze/src/gravity.ts</title>
<path fill="none" stroke="#000000" stroke-width="2" stroke-opacity="0.200000" d="M486.34,-243.29C505.37,-240.97 526.97,-238.34 544.52,-236.2"/>
<polygon fill="#000000" fill-opacity="0.200000" stroke="#000000" stroke-width="2" stroke-opacity="0.200000" points="545.09,-238.25 550.79,-235.44 544.58,-234.08 545.09,-238.25"/>
</g>
<!-- packages/util/math/src/basic&#45;function/mod.ts -->
<g id="node17" class="node">
<title>packages/util/math/src/basic&#45;function/mod.ts</title>
<g id="a_node17"><a xlink:href="packages/util/math/src/basic-function/mod.ts" xlink:title="mod.ts">
<path fill="#ddfeff" stroke="black" d="M601,-664C601,-664 559,-664 559,-664 556,-664 553,-661 553,-658 553,-658 553,-652 553,-652 553,-649 556,-646 559,-646 559,-646 601,-646 601,-646 604,-646 607,-649 607,-652 607,-652 607,-658 607,-658 607,-661 604,-664 601,-664"/>
<text text-anchor="start" x="564" y="-652.8" font-family="Helvetica,sans-Serif" font-size="9.00">mod.ts</text>
</a>
</g>
</g>
<!-- packages/music&#45;structure/melody/melody&#45;analyze/src/register&#45;gravity.ts&#45;&gt;packages/util/math/src/basic&#45;function/mod.ts -->
<g id="edge19" class="edge">
<title>packages/music&#45;structure/melody/melody&#45;analyze/src/register&#45;gravity.ts&#45;&gt;packages/util/math/src/basic&#45;function/mod.ts</title>
<path fill="none" stroke="#000000" stroke-width="2" stroke-opacity="0.200000" d="M442.68,-258.24C460.83,-311.07 551.41,-574.71 573.93,-640.24"/>
<polygon fill="#000000" fill-opacity="0.200000" stroke="#000000" stroke-width="2" stroke-opacity="0.200000" points="571.95,-640.96 575.89,-645.95 575.93,-639.59 571.95,-640.96"/>
</g>
<!-- packages/music&#45;structure/melody/melody&#45;analyze/src/time&#45;and&#45;analyzed&#45;melody.ts&#45;&gt;packages/util/time&#45;and/dist/index.js -->
<g id="edge22" class="edge">
<title>packages/music&#45;structure/melody/melody&#45;analyze/src/time&#45;and&#45;analyzed&#45;melody.ts&#45;&gt;packages/util/time&#45;and/dist/index.js</title>
<path fill="none" stroke="#000000" stroke-width="2" stroke-opacity="0.200000" d="M284.47,-222.29C319.42,-287.66 528.38,-678.46 572.02,-760.07"/>
<polygon fill="#000000" fill-opacity="0.200000" stroke="#000000" stroke-width="2" stroke-opacity="0.200000" points="570.4,-761.51 575.08,-765.81 574.11,-759.53 570.4,-761.51"/>
</g>
<!-- packages/music&#45;structure/melody/melody&#45;analyze/src/time&#45;and&#45;analyzed&#45;melody.ts&#45;&gt;packages/music&#45;structure/melody/melody&#45;analyze/src/melody&#45;analysis.ts -->
<g id="edge21" class="edge">
<title>packages/music&#45;structure/melody/melody&#45;analyze/src/time&#45;and&#45;analyzed&#45;melody.ts&#45;&gt;packages/music&#45;structure/melody/melody&#45;analyze/src/melody&#45;analysis.ts</title>
<path fill="none" stroke="#000000" stroke-width="2" stroke-opacity="0.200000" d="M352.57,-214.38C362.62,-214.57 372.81,-214.76 382.48,-214.95"/>
<polygon fill="#000000" fill-opacity="0.200000" stroke="#000000" stroke-width="2" stroke-opacity="0.200000" points="382.71,-217.05 388.75,-215.07 382.79,-212.85 382.71,-217.05"/>
</g>
<!-- packages/music&#45;structure/melody/melody&#45;analyze/src/time&#45;and&#45;melody.ts&#45;&gt;packages/util/time&#45;and/dist/index.js -->
<g id="edge25" class="edge">
<title>packages/music&#45;structure/melody/melody&#45;analyze/src/time&#45;and&#45;melody.ts&#45;&gt;packages/util/time&#45;and/dist/index.js</title>
<path fill="none" stroke="#000000" stroke-width="2" stroke-opacity="0.200000" d="M284.97,-280.18C321.18,-340.9 526.15,-684.69 571.23,-760.3"/>
<polygon fill="#000000" fill-opacity="0.200000" stroke="#000000" stroke-width="2" stroke-opacity="0.200000" points="569.55,-761.57 574.42,-765.65 573.16,-759.42 569.55,-761.57"/>
</g>
<!-- packages/music&#45;structure/melody/melody&#45;analyze/src/get&#45;time&#45;and&#45;chord.ts -->
<g id="node12" class="node">
<title>packages/music&#45;structure/melody/melody&#45;analyze/src/get&#45;time&#45;and&#45;chord.ts</title>
<g id="a_node12"><a xlink:href="packages/music-structure/melody/melody-analyze/src/get-time-and-chord.ts" xlink:title="get&#45;time&#45;and&#45;chord.ts">
<path fill="#ddfeff" stroke="black" d="M161,-310C161,-310 57,-310 57,-310 54,-310 51,-307 51,-304 51,-304 51,-298 51,-298 51,-295 54,-292 57,-292 57,-292 161,-292 161,-292 164,-292 167,-295 167,-298 167,-298 167,-304 167,-304 167,-307 164,-310 161,-310"/>
<text text-anchor="start" x="59" y="-298.8" font-family="Helvetica,sans-Serif" font-size="9.00">get&#45;time&#45;and&#45;chord.ts</text>
</a>
</g>
</g>
<!-- packages/music&#45;structure/melody/melody&#45;analyze/src/get&#45;time&#45;and&#45;chord.ts&#45;&gt;packages/music&#45;structure/chord/chord&#45;analyze/src/chord&#45;analyze/time&#45;and&#45;chord.ts -->
<g id="edge11" class="edge">
<title>packages/music&#45;structure/melody/melody&#45;analyze/src/get&#45;time&#45;and&#45;chord.ts&#45;&gt;packages/music&#45;structure/chord/chord&#45;analyze/src/chord&#45;analyze/time&#45;and&#45;chord.ts</title>
<path fill="none" stroke="#000000" stroke-width="2" stroke-opacity="0.200000" d="M119.54,-310.4C147.81,-338.25 231.21,-420.41 264.52,-453.23"/>
<polygon fill="#000000" fill-opacity="0.200000" stroke="#000000" stroke-width="2" stroke-opacity="0.200000" points="263.31,-454.99 269.06,-457.7 266.26,-452 263.31,-454.99"/>
</g>
<!-- packages/music&#45;structure/melody/melody&#45;analyze/src/get&#45;time&#45;and&#45;chord.ts&#45;&gt;packages/tonal&#45;objects/dist/index.js -->
<g id="edge12" class="edge">
<title>packages/music&#45;structure/melody/melody&#45;analyze/src/get&#45;time&#45;and&#45;chord.ts&#45;&gt;packages/tonal&#45;objects/dist/index.js</title>
<path fill="none" stroke="#000000" stroke-width="2" stroke-opacity="0.200000" d="M116.4,-310.33C170.34,-378.35 502.82,-797.66 568.67,-880.71"/>
<polygon fill="#000000" fill-opacity="0.200000" stroke="#000000" stroke-width="2" stroke-opacity="0.200000" points="567.24,-882.29 572.62,-885.69 570.54,-879.68 567.24,-882.29"/>
</g>
<!-- packages/music&#45;structure/melody/melody&#45;analyze/src/time&#45;and&#45;chord.ts -->
<g id="node13" class="node">
<title>packages/music&#45;structure/melody/melody&#45;analyze/src/time&#45;and&#45;chord.ts</title>
<g id="a_node13"><a xlink:href="packages/music-structure/melody/melody-analyze/src/time-and-chord.ts" xlink:title="time&#45;and&#45;chord.ts">
<path fill="#ddfeff" stroke="black" d="M322.5,-310C322.5,-310 236.5,-310 236.5,-310 233.5,-310 230.5,-307 230.5,-304 230.5,-304 230.5,-298 230.5,-298 230.5,-295 233.5,-292 236.5,-292 236.5,-292 322.5,-292 322.5,-292 325.5,-292 328.5,-295 328.5,-298 328.5,-298 328.5,-304 328.5,-304 328.5,-307 325.5,-310 322.5,-310"/>
<text text-anchor="start" x="238.5" y="-298.8" font-family="Helvetica,sans-Serif" font-size="9.00">time&#45;and&#45;chord.ts</text>
</a>
</g>
</g>
<!-- packages/music&#45;structure/melody/melody&#45;analyze/src/get&#45;time&#45;and&#45;chord.ts&#45;&gt;packages/music&#45;structure/melody/melody&#45;analyze/src/time&#45;and&#45;chord.ts -->
<g id="edge10" class="edge">
<title>packages/music&#45;structure/melody/melody&#45;analyze/src/get&#45;time&#45;and&#45;chord.ts&#45;&gt;packages/music&#45;structure/melody/melody&#45;analyze/src/time&#45;and&#45;chord.ts</title>
<path fill="none" stroke="#000000" stroke-width="2" stroke-opacity="0.200000" d="M167.05,-301C185.57,-301 206.07,-301 224.38,-301"/>
<polygon fill="#000000" fill-opacity="0.200000" stroke="#000000" stroke-width="2" stroke-opacity="0.200000" points="224.5,-303.1 230.5,-301 224.5,-298.9 224.5,-303.1"/>
</g>
<!-- packages/music&#45;structure/melody/melody&#45;analyze/src/time&#45;and&#45;chord.ts&#45;&gt;packages/util/time&#45;and/dist/index.js -->
<g id="edge23" class="edge">
<title>packages/music&#45;structure/melody/melody&#45;analyze/src/time&#45;and&#45;chord.ts&#45;&gt;packages/util/time&#45;and/dist/index.js</title>
<path fill="none" stroke="#000000" stroke-width="2" stroke-opacity="0.200000" d="M285.23,-310.05C322.09,-368.17 525.5,-689.03 570.98,-760.77"/>
<polygon fill="#000000" fill-opacity="0.200000" stroke="#000000" stroke-width="2" stroke-opacity="0.200000" points="569.22,-761.92 574.21,-765.86 572.77,-759.67 569.22,-761.92"/>
</g>
<!-- packages/music&#45;structure/melody/melody&#45;analyze/src/time&#45;and&#45;chord.ts&#45;&gt;packages/tonal&#45;objects/dist/index.js -->
<g id="edge24" class="edge">
<title>packages/music&#45;structure/melody/melody&#45;analyze/src/time&#45;and&#45;chord.ts&#45;&gt;packages/tonal&#45;objects/dist/index.js</title>
<path fill="none" stroke="#000000" stroke-width="2" stroke-opacity="0.200000" d="M284.22,-310.33C318.56,-378.22 529.91,-795.99 572.52,-880.21"/>
<polygon fill="#000000" fill-opacity="0.200000" stroke="#000000" stroke-width="2" stroke-opacity="0.200000" points="570.71,-881.28 575.29,-885.69 574.46,-879.39 570.71,-881.28"/>
</g>
<!-- packages/music&#45;structure/melody/melody&#45;analyze/src/get&#45;time&#45;and&#45;melody.ts -->
<g id="node14" class="node">
<title>packages/music&#45;structure/melody/melody&#45;analyze/src/get&#45;time&#45;and&#45;melody.ts</title>
<g id="a_node14"><a xlink:href="packages/music-structure/melody/melody-analyze/src/get-time-and-melody.ts" xlink:title="get&#45;time&#45;and&#45;melody.ts">
<path fill="#ddfeff" stroke="black" d="M163.5,-280C163.5,-280 54.5,-280 54.5,-280 51.5,-280 48.5,-277 48.5,-274 48.5,-274 48.5,-268 48.5,-268 48.5,-265 51.5,-262 54.5,-262 54.5,-262 163.5,-262 163.5,-262 166.5,-262 169.5,-265 169.5,-268 169.5,-268 169.5,-274 169.5,-274 169.5,-277 166.5,-280 163.5,-280"/>
<text text-anchor="start" x="56.5" y="-268.8" font-family="Helvetica,sans-Serif" font-size="9.00">get&#45;time&#45;and&#45;melody.ts</text>
</a>
</g>
</g>
<!-- packages/music&#45;structure/melody/melody&#45;analyze/src/get&#45;time&#45;and&#45;melody.ts&#45;&gt;packages/util/time&#45;and/dist/index.js -->
<g id="edge14" class="edge">
<title>packages/music&#45;structure/melody/melody&#45;analyze/src/get&#45;time&#45;and&#45;melody.ts&#45;&gt;packages/util/time&#45;and/dist/index.js</title>
<path fill="none" stroke="#000000" stroke-width="2" stroke-opacity="0.200000" d="M117.58,-280.18C174.55,-341.14 498.18,-687.45 567.1,-761.19"/>
<polygon fill="#000000" fill-opacity="0.200000" stroke="#000000" stroke-width="2" stroke-opacity="0.200000" points="565.63,-762.7 571.26,-765.65 568.7,-759.83 565.63,-762.7"/>
</g>
<!-- packages/music&#45;structure/melody/melody&#45;analyze/src/get&#45;time&#45;and&#45;melody.ts&#45;&gt;packages/music&#45;structure/melody/melody&#45;analyze/src/time&#45;and&#45;melody.ts -->
<g id="edge13" class="edge">
<title>packages/music&#45;structure/melody/melody&#45;analyze/src/get&#45;time&#45;and&#45;melody.ts&#45;&gt;packages/music&#45;structure/melody/melody&#45;analyze/src/time&#45;and&#45;melody.ts</title>
<path fill="none" stroke="#000000" stroke-width="2" stroke-opacity="0.200000" d="M169.88,-271C186.73,-271 205,-271 221.67,-271"/>
<polygon fill="#000000" fill-opacity="0.200000" stroke="#000000" stroke-width="2" stroke-opacity="0.200000" points="221.73,-273.1 227.73,-271 221.73,-268.9 221.73,-273.1"/>
</g>
<!-- packages/music&#45;structure/melody/melody&#45;analyze/src/melody&#45;analysis&#45;data.ts -->
<g id="node16" class="node">
<title>packages/music&#45;structure/melody/melody&#45;analyze/src/melody&#45;analysis&#45;data.ts</title>
<g id="a_node16"><a xlink:href="packages/music-structure/melody/melody-analyze/src/melody-analysis-data.ts" xlink:title="melody&#45;analysis&#45;data.ts">
<path fill="#ddfeff" stroke="black" d="M164,-220C164,-220 54,-220 54,-220 51,-220 48,-217 48,-214 48,-214 48,-208 48,-208 48,-205 51,-202 54,-202 54,-202 164,-202 164,-202 167,-202 170,-205 170,-208 170,-208 170,-214 170,-214 170,-217 167,-220 164,-220"/>
<text text-anchor="start" x="56" y="-208.8" font-family="Helvetica,sans-Serif" font-size="9.00">melody&#45;analysis&#45;data.ts</text>
</a>
</g>
</g>
<!-- packages/music&#45;structure/melody/melody&#45;analyze/src/melody&#45;analysis&#45;data.ts&#45;&gt;packages/music&#45;structure/melody/melody&#45;analyze/src/time&#45;and&#45;analyzed&#45;melody.ts -->
<g id="edge15" class="edge">
<title>packages/music&#45;structure/melody/melody&#45;analyze/src/melody&#45;analysis&#45;data.ts&#45;&gt;packages/music&#45;structure/melody/melody&#45;analyze/src/time&#45;and&#45;analyzed&#45;melody.ts</title>
<path fill="none" stroke="#000000" stroke-width="2" stroke-opacity="0.200000" d="M170.36,-211.72C180.05,-211.83 190.21,-211.95 200.25,-212.07"/>
<polygon fill="#000000" fill-opacity="0.200000" stroke="#000000" stroke-width="2" stroke-opacity="0.200000" points="200.46,-214.17 206.49,-212.15 200.51,-209.97 200.46,-214.17"/>
</g>
</g>
</svg>
