<?xml version="1.0" encoding="UTF-8" standalone="no"?>
<!DOCTYPE svg PUBLIC "-//W3C//DTD SVG 1.1//EN"
 "http://www.w3.org/Graphics/SVG/1.1/DTD/svg11.dtd">
<!-- Generated by graphviz version 2.43.0 (0)
 -->
<!-- Title: dependency&#45;cruiser output Pages: 1 -->
<svg width="669pt" height="964pt"
 viewBox="0.00 0.00 669.00 964.00" xmlns="http://www.w3.org/2000/svg" xmlns:xlink="http://www.w3.org/1999/xlink">
<g id="graph0" class="graph" transform="scale(1 1) rotate(0) translate(4 960)">
<title>dependency&#45;cruiser output</title>
<polygon fill="white" stroke="transparent" points="-4,4 -4,-960 665,-960 665,4 -4,4"/>
<g id="clust1" class="cluster">
<title>cluster_packages</title>
<path fill="#ffffff" stroke="black" stroke-width="2" d="M20,-8C20,-8 649,-8 649,-8 655,-8 661,-14 661,-20 661,-20 661,-936 661,-936 661,-942 655,-948 649,-948 649,-948 20,-948 20,-948 14,-948 8,-942 8,-936 8,-936 8,-20 8,-20 8,-14 14,-8 20,-8"/>
<text text-anchor="middle" x="334.5" y="-936.8" font-family="Helvetica,sans-Serif" font-weight="bold" font-size="9.00">packages</text>
</g>
<g id="clust2" class="cluster">
<title>cluster_packages/cognitive&#45;theory&#45;of&#45;music</title>
<path fill="#ffffff" stroke="black" stroke-width="2" d="M516,-16C516,-16 641,-16 641,-16 647,-16 653,-22 653,-28 653,-28 653,-124 653,-124 653,-130 647,-136 641,-136 641,-136 516,-136 516,-136 510,-136 504,-130 504,-124 504,-124 504,-28 504,-28 504,-22 510,-16 516,-16"/>
<text text-anchor="middle" x="578.5" y="-124.8" font-family="Helvetica,sans-Serif" font-weight="bold" font-size="9.00">cognitive&#45;theory&#45;of&#45;music</text>
</g>
<g id="clust3" class="cluster">
<title>cluster_packages/cognitive&#45;theory&#45;of&#45;music/irm</title>
<path fill="#ffffff" stroke="black" stroke-width="2" d="M547,-24C547,-24 609,-24 609,-24 615,-24 621,-30 621,-36 621,-36 621,-98 621,-98 621,-104 615,-110 609,-110 609,-110 547,-110 547,-110 541,-110 535,-104 535,-98 535,-98 535,-36 535,-36 535,-30 541,-24 547,-24"/>
<text text-anchor="middle" x="578" y="-98.8" font-family="Helvetica,sans-Serif" font-weight="bold" font-size="9.00">irm</text>
</g>
<g id="clust4" class="cluster">
<title>cluster_packages/cognitive&#45;theory&#45;of&#45;music/irm/dist</title>
<path fill="#ffffff" stroke="black" stroke-width="2" d="M555,-32C555,-32 601,-32 601,-32 607,-32 613,-38 613,-44 613,-44 613,-72 613,-72 613,-78 607,-84 601,-84 601,-84 555,-84 555,-84 549,-84 543,-78 543,-72 543,-72 543,-44 543,-44 543,-38 549,-32 555,-32"/>
<text text-anchor="middle" x="578" y="-72.8" font-family="Helvetica,sans-Serif" font-weight="bold" font-size="9.00">dist</text>
</g>
<g id="clust5" class="cluster">
<title>cluster_packages/music&#45;structure</title>
<path fill="#ffffff" stroke="black" stroke-width="2" d="M28,-144C28,-144 627,-144 627,-144 633,-144 639,-150 639,-156 639,-156 639,-594 639,-594 639,-600 633,-606 627,-606 627,-606 28,-606 28,-606 22,-606 16,-600 16,-594 16,-594 16,-156 16,-156 16,-150 22,-144 28,-144"/>
<text text-anchor="middle" x="327.5" y="-594.8" font-family="Helvetica,sans-Serif" font-weight="bold" font-size="9.00">music&#45;structure</text>
</g>
<g id="clust6" class="cluster">
<title>cluster_packages/music&#45;structure/chord</title>
<path fill="#ffffff" stroke="black" stroke-width="2" d="M190,-396C190,-396 369,-396 369,-396 375,-396 381,-402 381,-408 381,-408 381,-568 381,-568 381,-574 375,-580 369,-580 369,-580 190,-580 190,-580 184,-580 178,-574 178,-568 178,-568 178,-408 178,-408 178,-402 184,-396 190,-396"/>
<text text-anchor="middle" x="279.5" y="-568.8" font-family="Helvetica,sans-Serif" font-weight="bold" font-size="9.00">chord</text>
</g>
<g id="clust7" class="cluster">
<title>cluster_packages/music&#45;structure/chord/chord&#45;analyze</title>
<path fill="#ffffff" stroke="black" stroke-width="2" d="M198,-404C198,-404 361,-404 361,-404 367,-404 373,-410 373,-416 373,-416 373,-542 373,-542 373,-548 367,-554 361,-554 361,-554 198,-554 198,-554 192,-554 186,-548 186,-542 186,-542 186,-416 186,-416 186,-410 192,-404 198,-404"/>
<text text-anchor="middle" x="279.5" y="-542.8" font-family="Helvetica,sans-Serif" font-weight="bold" font-size="9.00">chord&#45;analyze</text>
</g>
<g id="clust8" class="cluster">
<title>cluster_packages/music&#45;structure/chord/chord&#45;analyze/src</title>
<path fill="#ffffff" stroke="black" stroke-width="2" d="M206,-412C206,-412 353,-412 353,-412 359,-412 365,-418 365,-424 365,-424 365,-516 365,-516 365,-522 359,-528 353,-528 353,-528 206,-528 206,-528 200,-528 194,-522 194,-516 194,-516 194,-424 194,-424 194,-418 200,-412 206,-412"/>
<text text-anchor="middle" x="279.5" y="-516.8" font-family="Helvetica,sans-Serif" font-weight="bold" font-size="9.00">src</text>
</g>
<g id="clust9" class="cluster">
<title>cluster_packages/music&#45;structure/chord/chord&#45;analyze/src/chord&#45;analyze</title>
<path fill="#ffffff" stroke="black" stroke-width="2" d="M214,-420C214,-420 345,-420 345,-420 351,-420 357,-426 357,-432 357,-432 357,-490 357,-490 357,-496 351,-502 345,-502 345,-502 214,-502 214,-502 208,-502 202,-496 202,-490 202,-490 202,-432 202,-432 202,-426 208,-420 214,-420"/>
<text text-anchor="middle" x="279.5" y="-490.8" font-family="Helvetica,sans-Serif" font-weight="bold" font-size="9.00">chord&#45;analyze</text>
</g>
<g id="clust10" class="cluster">
<title>cluster_packages/music&#45;structure/melody</title>
<path fill="#ffffff" stroke="black" stroke-width="2" d="M36,-152C36,-152 619,-152 619,-152 625,-152 631,-158 631,-164 631,-164 631,-376 631,-376 631,-382 625,-388 619,-388 619,-388 36,-388 36,-388 30,-388 24,-382 24,-376 24,-376 24,-164 24,-164 24,-158 30,-152 36,-152"/>
<text text-anchor="middle" x="327.5" y="-376.8" font-family="Helvetica,sans-Serif" font-weight="bold" font-size="9.00">melody</text>
</g>
<g id="clust11" class="cluster">
<title>cluster_packages/music&#45;structure/melody/melody&#45;analyze</title>
<path fill="#ffffff" stroke="black" stroke-width="2" d="M44,-160C44,-160 611,-160 611,-160 617,-160 623,-166 623,-172 623,-172 623,-350 623,-350 623,-356 617,-362 611,-362 611,-362 44,-362 44,-362 38,-362 32,-356 32,-350 32,-350 32,-172 32,-172 32,-166 38,-160 44,-160"/>
<text text-anchor="middle" x="327.5" y="-350.8" font-family="Helvetica,sans-Serif" font-weight="bold" font-size="9.00">melody&#45;analyze</text>
</g>
<g id="clust12" class="cluster">
<title>cluster_packages/music&#45;structure/melody/melody&#45;analyze/src</title>
<path fill="#ffffff" stroke="black" stroke-width="2" d="M52,-194C52,-194 603,-194 603,-194 609,-194 615,-200 615,-206 615,-206 615,-324 615,-324 615,-330 609,-336 603,-336 603,-336 52,-336 52,-336 46,-336 40,-330 40,-324 40,-324 40,-206 40,-206 40,-200 46,-194 52,-194"/>
<text text-anchor="middle" x="327.5" y="-324.8" font-family="Helvetica,sans-Serif" font-weight="bold" font-size="9.00">src</text>
</g>
<g id="clust13" class="cluster">
<title>cluster_packages/tonal&#45;objects</title>
<path fill="#ffffff" stroke="black" stroke-width="2" d="M547,-836C547,-836 609,-836 609,-836 615,-836 621,-842 621,-848 621,-848 621,-910 621,-910 621,-916 615,-922 609,-922 609,-922 547,-922 547,-922 541,-922 535,-916 535,-910 535,-910 535,-848 535,-848 535,-842 541,-836 547,-836"/>
<text text-anchor="middle" x="578" y="-910.8" font-family="Helvetica,sans-Serif" font-weight="bold" font-size="9.00">tonal&#45;objects</text>
</g>
<g id="clust14" class="cluster">
<title>cluster_packages/tonal&#45;objects/dist</title>
<path fill="#ffffff" stroke="black" stroke-width="2" d="M555,-844C555,-844 601,-844 601,-844 607,-844 613,-850 613,-856 613,-856 613,-884 613,-884 613,-890 607,-896 601,-896 601,-896 555,-896 555,-896 549,-896 543,-890 543,-884 543,-884 543,-856 543,-856 543,-850 549,-844 555,-844"/>
<text text-anchor="middle" x="578" y="-884.8" font-family="Helvetica,sans-Serif" font-weight="bold" font-size="9.00">dist</text>
</g>
<g id="clust15" class="cluster">
<title>cluster_packages/util</title>
<path fill="#ffffff" stroke="black" stroke-width="2" d="M539,-614C539,-614 617,-614 617,-614 623,-614 629,-620 629,-626 629,-626 629,-816 629,-816 629,-822 623,-828 617,-828 617,-828 539,-828 539,-828 533,-828 527,-822 527,-816 527,-816 527,-626 527,-626 527,-620 533,-614 539,-614"/>
<text text-anchor="middle" x="578" y="-816.8" font-family="Helvetica,sans-Serif" font-weight="bold" font-size="9.00">util</text>
</g>
<g id="clust16" class="cluster">
<title>cluster_packages/util/math</title>
<path fill="#ffffff" stroke="black" stroke-width="2" d="M547,-622C547,-622 609,-622 609,-622 615,-622 621,-628 621,-634 621,-634 621,-696 621,-696 621,-702 615,-708 609,-708 609,-708 547,-708 547,-708 541,-708 535,-702 535,-696 535,-696 535,-634 535,-634 535,-628 541,-622 547,-622"/>
<text text-anchor="middle" x="578" y="-696.8" font-family="Helvetica,sans-Serif" font-weight="bold" font-size="9.00">math</text>
</g>
<g id="clust17" class="cluster">
<title>cluster_packages/util/math/dist</title>
<path fill="#ffffff" stroke="black" stroke-width="2" d="M555,-630C555,-630 601,-630 601,-630 607,-630 613,-636 613,-642 613,-642 613,-670 613,-670 613,-676 607,-682 601,-682 601,-682 555,-682 555,-682 549,-682 543,-676 543,-670 543,-670 543,-642 543,-642 543,-636 549,-630 555,-630"/>
<text text-anchor="middle" x="578" y="-670.8" font-family="Helvetica,sans-Serif" font-weight="bold" font-size="9.00">dist</text>
</g>
<g id="clust18" class="cluster">
<title>cluster_packages/util/time&#45;and</title>
<path fill="#ffffff" stroke="black" stroke-width="2" d="M547,-716C547,-716 609,-716 609,-716 615,-716 621,-722 621,-728 621,-728 621,-790 621,-790 621,-796 615,-802 609,-802 609,-802 547,-802 547,-802 541,-802 535,-796 535,-790 535,-790 535,-728 535,-728 535,-722 541,-716 547,-716"/>
<text text-anchor="middle" x="578" y="-790.8" font-family="Helvetica,sans-Serif" font-weight="bold" font-size="9.00">time&#45;and</text>
</g>
<g id="clust19" class="cluster">
<title>cluster_packages/util/time&#45;and/dist</title>
<path fill="#ffffff" stroke="black" stroke-width="2" d="M555,-724C555,-724 601,-724 601,-724 607,-724 613,-730 613,-736 613,-736 613,-764 613,-764 613,-770 607,-776 601,-776 601,-776 555,-776 555,-776 549,-776 543,-770 543,-764 543,-764 543,-736 543,-736 543,-730 549,-724 555,-724"/>
<text text-anchor="middle" x="578" y="-764.8" font-family="Helvetica,sans-Serif" font-weight="bold" font-size="9.00">dist</text>
</g>
<!-- packages/cognitive&#45;theory&#45;of&#45;music/irm/dist/index.js -->
<g id="node1" class="node">
<title>packages/cognitive&#45;theory&#45;of&#45;music/irm/dist/index.js</title>
<g id="a_node1"><a xlink:href="packages/cognitive-theory-of-music/irm/dist/index.js" xlink:title="index.js">
<polygon fill="#ffffcc" stroke="black" points="605,-58 603.5,-60 593,-60 591.5,-58 551,-58 551,-40 605,-40 605,-58"/>
<text text-anchor="start" x="560.5" y="-46.8" font-family="Helvetica,sans-Serif" font-size="9.00">index.js</text>
</a>
</g>
</g>
<!-- packages/music&#45;structure/chord/chord&#45;analyze/src/chord&#45;analyze/time&#45;and&#45;chord.ts -->
<g id="node2" class="node">
<title>packages/music&#45;structure/chord/chord&#45;analyze/src/chord&#45;analyze/time&#45;and&#45;chord.ts</title>
<g id="a_node2"><a xlink:href="packages/music-structure/chord/chord-analyze/src/chord-analyze/time-and-chord.ts" xlink:title="time&#45;and&#45;chord.ts">
<path fill="#ddfeff" stroke="black" d="M322.5,-476C322.5,-476 236.5,-476 236.5,-476 233.5,-476 230.5,-473 230.5,-470 230.5,-470 230.5,-464 230.5,-464 230.5,-461 233.5,-458 236.5,-458 236.5,-458 322.5,-458 322.5,-458 325.5,-458 328.5,-461 328.5,-464 328.5,-464 328.5,-470 328.5,-470 328.5,-473 325.5,-476 322.5,-476"/>
<text text-anchor="start" x="238.5" y="-464.8" font-family="Helvetica,sans-Serif" font-size="9.00">time&#45;and&#45;chord.ts</text>
</a>
</g>
</g>
<!-- packages/util/time&#45;and/dist/index.js -->
<g id="node3" class="node">
<title>packages/util/time&#45;and/dist/index.js</title>
<g id="a_node3"><a xlink:href="packages/util/time-and/dist/index.js" xlink:title="index.js">
<polygon fill="#ffffcc" stroke="black" points="605,-750 603.5,-752 593,-752 591.5,-750 551,-750 551,-732 605,-732 605,-750"/>
<text text-anchor="start" x="560.5" y="-738.8" font-family="Helvetica,sans-Serif" font-size="9.00">index.js</text>
</a>
</g>
</g>
<!-- packages/music&#45;structure/chord/chord&#45;analyze/src/chord&#45;analyze/time&#45;and&#45;chord.ts&#45;&gt;packages/util/time&#45;and/dist/index.js -->
<g id="edge1" class="edge">
<title>packages/music&#45;structure/chord/chord&#45;analyze/src/chord&#45;analyze/time&#45;and&#45;chord.ts&#45;&gt;packages/util/time&#45;and/dist/index.js</title>
<path fill="none" stroke="#000000" stroke-width="2" stroke-opacity="0.200000" d="M289.43,-476.12C333.43,-516.51 510.94,-679.45 563.36,-727.56"/>
<polygon fill="#000000" fill-opacity="0.200000" stroke="#000000" stroke-width="2" stroke-opacity="0.200000" points="562.19,-729.34 568.03,-731.85 565.03,-726.24 562.19,-729.34"/>
</g>
<!-- packages/music&#45;structure/chord/chord&#45;analyze/src/chord&#45;analyze/time&#45;and&#45;roman&#45;analysis.ts -->
<g id="node4" class="node">
<title>packages/music&#45;structure/chord/chord&#45;analyze/src/chord&#45;analyze/time&#45;and&#45;roman&#45;analysis.ts</title>
<g id="a_node4"><a xlink:href="packages/music-structure/chord/chord-analyze/src/chord-analyze/time-and-roman-analysis.ts" xlink:title="time&#45;and&#45;roman&#45;analysis.ts">
<path fill="#ddfeff" stroke="black" d="M343,-446C343,-446 216,-446 216,-446 213,-446 210,-443 210,-440 210,-440 210,-434 210,-434 210,-431 213,-428 216,-428 216,-428 343,-428 343,-428 346,-428 349,-431 349,-434 349,-434 349,-440 349,-440 349,-443 346,-446 343,-446"/>
<text text-anchor="start" x="218" y="-434.8" font-family="Helvetica,sans-Serif" font-size="9.00">time&#45;and&#45;roman&#45;analysis.ts</text>
</a>
</g>
</g>
<!-- packages/music&#45;structure/chord/chord&#45;analyze/src/chord&#45;analyze/time&#45;and&#45;roman&#45;analysis.ts&#45;&gt;packages/util/time&#45;and/dist/index.js -->
<g id="edge2" class="edge">
<title>packages/music&#45;structure/chord/chord&#45;analyze/src/chord&#45;analyze/time&#45;and&#45;roman&#45;analysis.ts&#45;&gt;packages/util/time&#45;and/dist/index.js</title>
<path fill="none" stroke="#000000" stroke-width="2" stroke-opacity="0.200000" d="M288.43,-446.1C331.09,-489.54 514.06,-675.89 564.87,-727.63"/>
<polygon fill="#000000" fill-opacity="0.200000" stroke="#000000" stroke-width="2" stroke-opacity="0.200000" points="563.4,-729.13 569.1,-731.94 566.4,-726.18 563.4,-729.13"/>
</g>
<!-- packages/music&#45;structure/melody/melody&#45;analyze/index.test.ts -->
<g id="node5" class="node">
<title>packages/music&#45;structure/melody/melody&#45;analyze/index.test.ts</title>
<g id="a_node5"><a xlink:href="packages/music-structure/melody/melody-analyze/index.test.ts" xlink:title="no&#45;orphans">
<path fill="#ccffcc" stroke="orange" d="M139.5,-186C139.5,-186 78.5,-186 78.5,-186 75.5,-186 72.5,-183 72.5,-180 72.5,-180 72.5,-174 72.5,-174 72.5,-171 75.5,-168 78.5,-168 78.5,-168 139.5,-168 139.5,-168 142.5,-168 145.5,-171 145.5,-174 145.5,-174 145.5,-180 145.5,-180 145.5,-183 142.5,-186 139.5,-186"/>
<text text-anchor="start" x="80.5" y="-174.8" font-family="Helvetica,sans-Serif" font-size="9.00" fill="orange">index.test.ts</text>
</a>
</g>
</g>
<!-- packages/music&#45;structure/melody/melody&#45;analyze/src/analyze&#45;melody.ts -->
<g id="node6" class="node">
<title>packages/music&#45;structure/melody/melody&#45;analyze/src/analyze&#45;melody.ts</title>
<g id="a_node6"><a xlink:href="packages/music-structure/melody/melody-analyze/src/analyze-melody.ts" xlink:title="analyze&#45;melody.ts">
<path fill="#ddfeff" stroke="black" d="M151,-250C151,-250 67,-250 67,-250 64,-250 61,-247 61,-244 61,-244 61,-238 61,-238 61,-235 64,-232 67,-232 67,-232 151,-232 151,-232 154,-232 157,-235 157,-238 157,-238 157,-244 157,-244 157,-247 154,-250 151,-250"/>
<text text-anchor="start" x="69" y="-238.8" font-family="Helvetica,sans-Serif" font-size="9.00">analyze&#45;melody.ts</text>
</a>
</g>
</g>
<!-- packages/music&#45;structure/melody/melody&#45;analyze/src/analyze&#45;melody.ts&#45;&gt;packages/cognitive&#45;theory&#45;of&#45;music/irm/dist/index.js -->
<g id="edge8" class="edge">
<title>packages/music&#45;structure/melody/melody&#45;analyze/src/analyze&#45;melody.ts&#45;&gt;packages/cognitive&#45;theory&#45;of&#45;music/irm/dist/index.js</title>
<path fill="none" stroke="#000000" stroke-width="2" stroke-opacity="0.200000" d="M130.99,-232C207.91,-200.51 464.84,-95.33 550.18,-60.39"/>
<polygon fill="#000000" fill-opacity="0.200000" stroke="#000000" stroke-width="2" stroke-opacity="0.200000" points="551.03,-62.31 555.78,-58.09 549.44,-58.42 551.03,-62.31"/>
</g>
<!-- packages/music&#45;structure/melody/melody&#45;analyze/src/analyze&#45;melody.ts&#45;&gt;packages/music&#45;structure/chord/chord&#45;analyze/src/chord&#45;analyze/time&#45;and&#45;roman&#45;analysis.ts -->
<g id="edge7" class="edge">
<title>packages/music&#45;structure/melody/melody&#45;analyze/src/analyze&#45;melody.ts&#45;&gt;packages/music&#45;structure/chord/chord&#45;analyze/src/chord&#45;analyze/time&#45;and&#45;roman&#45;analysis.ts</title>
<path fill="none" stroke="#000000" stroke-width="2" stroke-opacity="0.200000" d="M117.9,-250.19C144.93,-281.63 233.79,-385 266.38,-422.9"/>
<polygon fill="#000000" fill-opacity="0.200000" stroke="#000000" stroke-width="2" stroke-opacity="0.200000" points="264.92,-424.42 270.42,-427.6 268.1,-421.68 264.92,-424.42"/>
</g>
<!-- packages/music&#45;structure/melody/melody&#45;analyze/src/melody&#45;analysis.ts -->
<g id="node7" class="node">
<title>packages/music&#45;structure/melody/melody&#45;analyze/src/melody&#45;analysis.ts</title>
<g id="a_node7"><a xlink:href="packages/music-structure/melody/melody-analyze/src/melody-analysis.ts" xlink:title="melody&#45;analysis.ts">
<path fill="#ddfeff" stroke="black" d="M482,-225C482,-225 395,-225 395,-225 392,-225 389,-222 389,-219 389,-219 389,-213 389,-213 389,-210 392,-207 395,-207 395,-207 482,-207 482,-207 485,-207 488,-210 488,-213 488,-213 488,-219 488,-219 488,-222 485,-225 482,-225"/>
<text text-anchor="start" x="397" y="-213.8" font-family="Helvetica,sans-Serif" font-size="9.00">melody&#45;analysis.ts</text>
</a>
</g>
</g>
<!-- packages/music&#45;structure/melody/melody&#45;analyze/src/analyze&#45;melody.ts&#45;&gt;packages/music&#45;structure/melody/melody&#45;analyze/src/melody&#45;analysis.ts -->
<g id="edge3" class="edge">
<title>packages/music&#45;structure/melody/melody&#45;analyze/src/analyze&#45;melody.ts&#45;&gt;packages/music&#45;structure/melody/melody&#45;analyze/src/melody&#45;analysis.ts</title>
<path fill="none" stroke="#000000" stroke-width="2" stroke-opacity="0.200000" d="M157.27,-237.34C217.27,-232.79 319.48,-225.03 382.76,-220.23"/>
<polygon fill="#000000" fill-opacity="0.200000" stroke="#000000" stroke-width="2" stroke-opacity="0.200000" points="382.93,-222.32 388.76,-219.77 382.62,-218.13 382.93,-222.32"/>
</g>
<!-- packages/music&#45;structure/melody/melody&#45;analyze/src/register&#45;gravity.ts -->
<g id="node8" class="node">
<title>packages/music&#45;structure/melody/melody&#45;analyze/src/register&#45;gravity.ts</title>
<g id="a_node8"><a xlink:href="packages/music-structure/melody/melody-analyze/src/register-gravity.ts" xlink:title="register&#45;gravity.ts">
<path fill="#ddfeff" stroke="black" d="M480,-258C480,-258 397,-258 397,-258 394,-258 391,-255 391,-252 391,-252 391,-246 391,-246 391,-243 394,-240 397,-240 397,-240 480,-240 480,-240 483,-240 486,-243 486,-246 486,-246 486,-252 486,-252 486,-255 483,-258 480,-258"/>
<text text-anchor="start" x="399" y="-246.8" font-family="Helvetica,sans-Serif" font-size="9.00">register&#45;gravity.ts</text>
</a>
</g>
</g>
<!-- packages/music&#45;structure/melody/melody&#45;analyze/src/analyze&#45;melody.ts&#45;&gt;packages/music&#45;structure/melody/melody&#45;analyze/src/register&#45;gravity.ts -->
<g id="edge4" class="edge">
<title>packages/music&#45;structure/melody/melody&#45;analyze/src/analyze&#45;melody.ts&#45;&gt;packages/music&#45;structure/melody/melody&#45;analyze/src/register&#45;gravity.ts</title>
<path fill="none" stroke="#000000" stroke-width="2" stroke-opacity="0.200000" d="M157.27,-242.17C217.84,-243.64 321.42,-246.16 384.55,-247.69"/>
<polygon fill="#000000" fill-opacity="0.200000" stroke="#000000" stroke-width="2" stroke-opacity="0.200000" points="384.86,-249.8 390.91,-247.84 384.96,-245.6 384.86,-249.8"/>
</g>
<!-- packages/music&#45;structure/melody/melody&#45;analyze/src/time&#45;and&#45;analyzed&#45;melody.ts -->
<g id="node9" class="node">
<title>packages/music&#45;structure/melody/melody&#45;analyze/src/time&#45;and&#45;analyzed&#45;melody.ts</title>
<g id="a_node9"><a xlink:href="packages/music-structure/melody/melody-analyze/src/time-and-analyzed-melody.ts" xlink:title="time&#45;and&#45;analyzed&#45;melody.ts">
<path fill="#ddfeff" stroke="black" d="M346.5,-222C346.5,-222 212.5,-222 212.5,-222 209.5,-222 206.5,-219 206.5,-216 206.5,-216 206.5,-210 206.5,-210 206.5,-207 209.5,-204 212.5,-204 212.5,-204 346.5,-204 346.5,-204 349.5,-204 352.5,-207 352.5,-210 352.5,-210 352.5,-216 352.5,-216 352.5,-219 349.5,-222 346.5,-222"/>
<text text-anchor="start" x="214.5" y="-210.8" font-family="Helvetica,sans-Serif" font-size="9.00">time&#45;and&#45;analyzed&#45;melody.ts</text>
</a>
</g>
</g>
<!-- packages/music&#45;structure/melody/melody&#45;analyze/src/analyze&#45;melody.ts&#45;&gt;packages/music&#45;structure/melody/melody&#45;analyze/src/time&#45;and&#45;analyzed&#45;melody.ts -->
<g id="edge5" class="edge">
<title>packages/music&#45;structure/melody/melody&#45;analyze/src/analyze&#45;melody.ts&#45;&gt;packages/music&#45;structure/melody/melody&#45;analyze/src/time&#45;and&#45;analyzed&#45;melody.ts</title>
<path fill="none" stroke="#000000" stroke-width="2" stroke-opacity="0.200000" d="M157.39,-233.13C176.17,-230 198.01,-226.37 217.93,-223.07"/>
<polygon fill="#000000" fill-opacity="0.200000" stroke="#000000" stroke-width="2" stroke-opacity="0.200000" points="218.47,-225.1 224.04,-222.05 217.78,-220.96 218.47,-225.1"/>
</g>
<!-- packages/music&#45;structure/melody/melody&#45;analyze/src/time&#45;and&#45;melody.ts -->
<g id="node10" class="node">
<title>packages/music&#45;structure/melody/melody&#45;analyze/src/time&#45;and&#45;melody.ts</title>
<g id="a_node10"><a xlink:href="packages/music-structure/melody/melody-analyze/src/time-and-melody.ts" xlink:title="time&#45;and&#45;melody.ts">
<path fill="#ddfeff" stroke="black" d="M325,-280C325,-280 234,-280 234,-280 231,-280 228,-277 228,-274 228,-274 228,-268 228,-268 228,-265 231,-262 234,-262 234,-262 325,-262 325,-262 328,-262 331,-265 331,-268 331,-268 331,-274 331,-274 331,-277 328,-280 325,-280"/>
<text text-anchor="start" x="236" y="-268.8" font-family="Helvetica,sans-Serif" font-size="9.00">time&#45;and&#45;melody.ts</text>
</a>
</g>
</g>
<!-- packages/music&#45;structure/melody/melody&#45;analyze/src/analyze&#45;melody.ts&#45;&gt;packages/music&#45;structure/melody/melody&#45;analyze/src/time&#45;and&#45;melody.ts -->
<g id="edge6" class="edge">
<title>packages/music&#45;structure/melody/melody&#45;analyze/src/analyze&#45;melody.ts&#45;&gt;packages/music&#45;structure/melody/melody&#45;analyze/src/time&#45;and&#45;melody.ts</title>
<path fill="none" stroke="#000000" stroke-width="2" stroke-opacity="0.200000" d="M157.39,-249.44C177.41,-253 200.89,-257.18 221.82,-260.91"/>
<polygon fill="#000000" fill-opacity="0.200000" stroke="#000000" stroke-width="2" stroke-opacity="0.200000" points="221.66,-263.01 227.94,-262 222.4,-258.88 221.66,-263.01"/>
</g>
<!-- packages/tonal&#45;objects/dist/index.js -->
<g id="node11" class="node">
<title>packages/tonal&#45;objects/dist/index.js</title>
<g id="a_node11"><a xlink:href="packages/tonal-objects/dist/index.js" xlink:title="index.js">
<polygon fill="#ffffcc" stroke="black" points="605,-870 603.5,-872 593,-872 591.5,-870 551,-870 551,-852 605,-852 605,-870"/>
<text text-anchor="start" x="560.5" y="-858.8" font-family="Helvetica,sans-Serif" font-size="9.00">index.js</text>
</a>
</g>
</g>
<!-- packages/music&#45;structure/melody/melody&#45;analyze/src/analyze&#45;melody.ts&#45;&gt;packages/tonal&#45;objects/dist/index.js -->
<g id="edge9" class="edge">
<title>packages/music&#45;structure/melody/melody&#45;analyze/src/analyze&#45;melody.ts&#45;&gt;packages/tonal&#45;objects/dist/index.js</title>
<path fill="none" stroke="#000000" stroke-width="2" stroke-opacity="0.200000" d="M115.99,-250.25C168.67,-319.89 502.92,-761.74 567.28,-846.83"/>
<polygon fill="#000000" fill-opacity="0.200000" stroke="#000000" stroke-width="2" stroke-opacity="0.200000" points="565.67,-848.18 570.97,-851.7 569.02,-845.65 565.67,-848.18"/>
</g>
<!-- packages/music&#45;structure/melody/melody&#45;analyze/src/melody&#45;analysis.ts&#45;&gt;packages/cognitive&#45;theory&#45;of&#45;music/irm/dist/index.js -->
<g id="edge17" class="edge">
<title>packages/music&#45;structure/melody/melody&#45;analyze/src/melody&#45;analysis.ts&#45;&gt;packages/cognitive&#45;theory&#45;of&#45;music/irm/dist/index.js</title>
<path fill="none" stroke="#000000" stroke-width="2" stroke-opacity="0.200000" d="M447.29,-206.54C470.26,-178.64 537.85,-96.54 565.26,-63.26"/>
<polygon fill="#000000" fill-opacity="0.200000" stroke="#000000" stroke-width="2" stroke-opacity="0.200000" points="567.11,-64.32 569.3,-58.35 563.86,-61.65 567.11,-64.32"/>
</g>
<!-- packages/music&#45;structure/melody/melody&#45;analyze/src/gravity.ts -->
<g id="node15" class="node">
<title>packages/music&#45;structure/melody/melody&#45;analyze/src/gravity.ts</title>
<g id="a_node15"><a xlink:href="packages/music-structure/melody/melody-analyze/src/gravity.ts" xlink:title="gravity.ts">
<path fill="#ddfeff" stroke="black" d="M601,-241C601,-241 555,-241 555,-241 552,-241 549,-238 549,-235 549,-235 549,-229 549,-229 549,-226 552,-223 555,-223 555,-223 601,-223 601,-223 604,-223 607,-226 607,-229 607,-229 607,-235 607,-235 607,-238 604,-241 601,-241"/>
<text text-anchor="start" x="557" y="-229.8" font-family="Helvetica,sans-Serif" font-size="9.00">gravity.ts</text>
</a>
</g>
</g>
<!-- packages/music&#45;structure/melody/melody&#45;analyze/src/melody&#45;analysis.ts&#45;&gt;packages/music&#45;structure/melody/melody&#45;analyze/src/gravity.ts -->
<g id="edge16" class="edge">
<title>packages/music&#45;structure/melody/melody&#45;analyze/src/melody&#45;analysis.ts&#45;&gt;packages/music&#45;structure/melody/melody&#45;analyze/src/gravity.ts</title>
<path fill="none" stroke="#000000" stroke-width="2" stroke-opacity="0.200000" d="M488.36,-221.69C506.22,-223.76 526.03,-226.07 542.39,-227.97"/>
<polygon fill="#000000" fill-opacity="0.200000" stroke="#000000" stroke-width="2" stroke-opacity="0.200000" points="542.5,-230.1 548.71,-228.71 542.99,-225.93 542.5,-230.1"/>
</g>
<!-- packages/music&#45;structure/melody/melody&#45;analyze/src/register&#45;gravity.ts&#45;&gt;packages/tonal&#45;objects/dist/index.js -->
<g id="edge20" class="edge">
<title>packages/music&#45;structure/melody/melody&#45;analyze/src/register&#45;gravity.ts&#45;&gt;packages/tonal&#45;objects/dist/index.js</title>
<path fill="none" stroke="#000000" stroke-width="2" stroke-opacity="0.200000" d="M441.55,-258.13C456.92,-326.53 554.01,-758.68 573.57,-845.73"/>
<polygon fill="#000000" fill-opacity="0.200000" stroke="#000000" stroke-width="2" stroke-opacity="0.200000" points="571.57,-846.43 574.94,-851.82 575.67,-845.51 571.57,-846.43"/>
</g>
<!-- packages/music&#45;structure/melody/melody&#45;analyze/src/register&#45;gravity.ts&#45;&gt;packages/music&#45;structure/melody/melody&#45;analyze/src/gravity.ts -->
<g id="edge18" class="edge">
<title>packages/music&#45;structure/melody/melody&#45;analyze/src/register&#45;gravity.ts&#45;&gt;packages/music&#45;structure/melody/melody&#45;analyze/src/gravity.ts</title>
<path fill="none" stroke="#000000" stroke-width="2" stroke-opacity="0.200000" d="M486.05,-243.24C504.65,-240.95 525.67,-238.35 542.82,-236.23"/>
<polygon fill="#000000" fill-opacity="0.200000" stroke="#000000" stroke-width="2" stroke-opacity="0.200000" points="543.25,-238.29 548.95,-235.47 542.73,-234.12 543.25,-238.29"/>
</g>
<!-- packages/util/math/dist/index.js -->
<g id="node17" class="node">
<title>packages/util/math/dist/index.js</title>
<g id="a_node17"><a xlink:href="packages/util/math/dist/index.js" xlink:title="index.js">
<polygon fill="#ffffcc" stroke="black" points="605,-656 603.5,-658 593,-658 591.5,-656 551,-656 551,-638 605,-638 605,-656"/>
<text text-anchor="start" x="560.5" y="-644.8" font-family="Helvetica,sans-Serif" font-size="9.00">index.js</text>
</a>
</g>
</g>
<!-- packages/music&#45;structure/melody/melody&#45;analyze/src/register&#45;gravity.ts&#45;&gt;packages/util/math/dist/index.js -->
<g id="edge19" class="edge">
<title>packages/music&#45;structure/melody/melody&#45;analyze/src/register&#45;gravity.ts&#45;&gt;packages/util/math/dist/index.js</title>
<path fill="none" stroke="#000000" stroke-width="2" stroke-opacity="0.200000" d="M442.63,-258.06C460.45,-309.63 549.07,-566.14 571.72,-631.71"/>
<polygon fill="#000000" fill-opacity="0.200000" stroke="#000000" stroke-width="2" stroke-opacity="0.200000" points="569.87,-632.79 573.81,-637.78 573.84,-631.42 569.87,-632.79"/>
</g>
<!-- packages/music&#45;structure/melody/melody&#45;analyze/src/time&#45;and&#45;analyzed&#45;melody.ts&#45;&gt;packages/util/time&#45;and/dist/index.js -->
<g id="edge22" class="edge">
<title>packages/music&#45;structure/melody/melody&#45;analyze/src/time&#45;and&#45;analyzed&#45;melody.ts&#45;&gt;packages/util/time&#45;and/dist/index.js</title>
<path fill="none" stroke="#000000" stroke-width="2" stroke-opacity="0.200000" d="M284.68,-222.16C320.07,-284.76 526.05,-649.11 569.82,-726.54"/>
<polygon fill="#000000" fill-opacity="0.200000" stroke="#000000" stroke-width="2" stroke-opacity="0.200000" points="568.13,-727.81 572.91,-732 571.78,-725.74 568.13,-727.81"/>
</g>
<!-- packages/music&#45;structure/melody/melody&#45;analyze/src/time&#45;and&#45;analyzed&#45;melody.ts&#45;&gt;packages/music&#45;structure/melody/melody&#45;analyze/src/melody&#45;analysis.ts -->
<g id="edge21" class="edge">
<title>packages/music&#45;structure/melody/melody&#45;analyze/src/time&#45;and&#45;analyzed&#45;melody.ts&#45;&gt;packages/music&#45;structure/melody/melody&#45;analyze/src/melody&#45;analysis.ts</title>
<path fill="none" stroke="#000000" stroke-width="2" stroke-opacity="0.200000" d="M352.57,-214.38C362.62,-214.57 372.81,-214.76 382.48,-214.95"/>
<polygon fill="#000000" fill-opacity="0.200000" stroke="#000000" stroke-width="2" stroke-opacity="0.200000" points="382.71,-217.05 388.75,-215.07 382.79,-212.85 382.71,-217.05"/>
</g>
<!-- packages/music&#45;structure/melody/melody&#45;analyze/src/time&#45;and&#45;melody.ts&#45;&gt;packages/util/time&#45;and/dist/index.js -->
<g id="edge25" class="edge">
<title>packages/music&#45;structure/melody/melody&#45;analyze/src/time&#45;and&#45;melody.ts&#45;&gt;packages/util/time&#45;and/dist/index.js</title>
<path fill="none" stroke="#000000" stroke-width="2" stroke-opacity="0.200000" d="M285.46,-280.39C322.71,-339.03 523.27,-654.83 568.8,-726.52"/>
<polygon fill="#000000" fill-opacity="0.200000" stroke="#000000" stroke-width="2" stroke-opacity="0.200000" points="567.28,-728.04 572.27,-731.97 570.82,-725.78 567.28,-728.04"/>
</g>
<!-- packages/music&#45;structure/melody/melody&#45;analyze/src/get&#45;time&#45;and&#45;chord.ts -->
<g id="node12" class="node">
<title>packages/music&#45;structure/melody/melody&#45;analyze/src/get&#45;time&#45;and&#45;chord.ts</title>
<g id="a_node12"><a xlink:href="packages/music-structure/melody/melody-analyze/src/get-time-and-chord.ts" xlink:title="get&#45;time&#45;and&#45;chord.ts">
<path fill="#ddfeff" stroke="black" d="M161,-310C161,-310 57,-310 57,-310 54,-310 51,-307 51,-304 51,-304 51,-298 51,-298 51,-295 54,-292 57,-292 57,-292 161,-292 161,-292 164,-292 167,-295 167,-298 167,-298 167,-304 167,-304 167,-307 164,-310 161,-310"/>
<text text-anchor="start" x="59" y="-298.8" font-family="Helvetica,sans-Serif" font-size="9.00">get&#45;time&#45;and&#45;chord.ts</text>
</a>
</g>
</g>
<!-- packages/music&#45;structure/melody/melody&#45;analyze/src/get&#45;time&#45;and&#45;chord.ts&#45;&gt;packages/music&#45;structure/chord/chord&#45;analyze/src/chord&#45;analyze/time&#45;and&#45;chord.ts -->
<g id="edge11" class="edge">
<title>packages/music&#45;structure/melody/melody&#45;analyze/src/get&#45;time&#45;and&#45;chord.ts&#45;&gt;packages/music&#45;structure/chord/chord&#45;analyze/src/chord&#45;analyze/time&#45;and&#45;chord.ts</title>
<path fill="none" stroke="#000000" stroke-width="2" stroke-opacity="0.200000" d="M119.54,-310.4C147.81,-338.25 231.21,-420.41 264.52,-453.23"/>
<polygon fill="#000000" fill-opacity="0.200000" stroke="#000000" stroke-width="2" stroke-opacity="0.200000" points="263.31,-454.99 269.06,-457.7 266.26,-452 263.31,-454.99"/>
</g>
<!-- packages/music&#45;structure/melody/melody&#45;analyze/src/get&#45;time&#45;and&#45;chord.ts&#45;&gt;packages/tonal&#45;objects/dist/index.js -->
<g id="edge12" class="edge">
<title>packages/music&#45;structure/melody/melody&#45;analyze/src/get&#45;time&#45;and&#45;chord.ts&#45;&gt;packages/tonal&#45;objects/dist/index.js</title>
<path fill="none" stroke="#000000" stroke-width="2" stroke-opacity="0.200000" d="M116.75,-310.25C171.52,-375.65 500.06,-767.93 566.35,-847.09"/>
<polygon fill="#000000" fill-opacity="0.200000" stroke="#000000" stroke-width="2" stroke-opacity="0.200000" points="564.87,-848.59 570.33,-851.84 568.09,-845.89 564.87,-848.59"/>
</g>
<!-- packages/music&#45;structure/melody/melody&#45;analyze/src/time&#45;and&#45;chord.ts -->
<g id="node13" class="node">
<title>packages/music&#45;structure/melody/melody&#45;analyze/src/time&#45;and&#45;chord.ts</title>
<g id="a_node13"><a xlink:href="packages/music-structure/melody/melody-analyze/src/time-and-chord.ts" xlink:title="time&#45;and&#45;chord.ts">
<path fill="#ddfeff" stroke="black" d="M322.5,-310C322.5,-310 236.5,-310 236.5,-310 233.5,-310 230.5,-307 230.5,-304 230.5,-304 230.5,-298 230.5,-298 230.5,-295 233.5,-292 236.5,-292 236.5,-292 322.5,-292 322.5,-292 325.5,-292 328.5,-295 328.5,-298 328.5,-298 328.5,-304 328.5,-304 328.5,-307 325.5,-310 322.5,-310"/>
<text text-anchor="start" x="238.5" y="-298.8" font-family="Helvetica,sans-Serif" font-size="9.00">time&#45;and&#45;chord.ts</text>
</a>
</g>
</g>
<!-- packages/music&#45;structure/melody/melody&#45;analyze/src/get&#45;time&#45;and&#45;chord.ts&#45;&gt;packages/music&#45;structure/melody/melody&#45;analyze/src/time&#45;and&#45;chord.ts -->
<g id="edge10" class="edge">
<title>packages/music&#45;structure/melody/melody&#45;analyze/src/get&#45;time&#45;and&#45;chord.ts&#45;&gt;packages/music&#45;structure/melody/melody&#45;analyze/src/time&#45;and&#45;chord.ts</title>
<path fill="none" stroke="#000000" stroke-width="2" stroke-opacity="0.200000" d="M167.05,-301C185.57,-301 206.07,-301 224.38,-301"/>
<polygon fill="#000000" fill-opacity="0.200000" stroke="#000000" stroke-width="2" stroke-opacity="0.200000" points="224.5,-303.1 230.5,-301 224.5,-298.9 224.5,-303.1"/>
</g>
<!-- packages/music&#45;structure/melody/melody&#45;analyze/src/time&#45;and&#45;chord.ts&#45;&gt;packages/util/time&#45;and/dist/index.js -->
<g id="edge23" class="edge">
<title>packages/music&#45;structure/melody/melody&#45;analyze/src/time&#45;and&#45;chord.ts&#45;&gt;packages/util/time&#45;and/dist/index.js</title>
<path fill="none" stroke="#000000" stroke-width="2" stroke-opacity="0.200000" d="M285.73,-310.19C323.52,-365.89 521.78,-658.13 568.25,-726.62"/>
<polygon fill="#000000" fill-opacity="0.200000" stroke="#000000" stroke-width="2" stroke-opacity="0.200000" points="566.69,-728.07 571.8,-731.86 570.17,-725.72 566.69,-728.07"/>
</g>
<!-- packages/music&#45;structure/melody/melody&#45;analyze/src/time&#45;and&#45;chord.ts&#45;&gt;packages/tonal&#45;objects/dist/index.js -->
<g id="edge24" class="edge">
<title>packages/music&#45;structure/melody/melody&#45;analyze/src/time&#45;and&#45;chord.ts&#45;&gt;packages/tonal&#45;objects/dist/index.js</title>
<path fill="none" stroke="#000000" stroke-width="2" stroke-opacity="0.200000" d="M284.43,-310.25C319.15,-375.39 526.72,-764.8 570.07,-846.12"/>
<polygon fill="#000000" fill-opacity="0.200000" stroke="#000000" stroke-width="2" stroke-opacity="0.200000" points="568.44,-847.53 573.12,-851.84 572.15,-845.56 568.44,-847.53"/>
</g>
<!-- packages/music&#45;structure/melody/melody&#45;analyze/src/get&#45;time&#45;and&#45;melody.ts -->
<g id="node14" class="node">
<title>packages/music&#45;structure/melody/melody&#45;analyze/src/get&#45;time&#45;and&#45;melody.ts</title>
<g id="a_node14"><a xlink:href="packages/music-structure/melody/melody-analyze/src/get-time-and-melody.ts" xlink:title="get&#45;time&#45;and&#45;melody.ts">
<path fill="#ddfeff" stroke="black" d="M163.5,-280C163.5,-280 54.5,-280 54.5,-280 51.5,-280 48.5,-277 48.5,-274 48.5,-274 48.5,-268 48.5,-268 48.5,-265 51.5,-262 54.5,-262 54.5,-262 163.5,-262 163.5,-262 166.5,-262 169.5,-265 169.5,-268 169.5,-268 169.5,-274 169.5,-274 169.5,-277 166.5,-280 163.5,-280"/>
<text text-anchor="start" x="56.5" y="-268.8" font-family="Helvetica,sans-Serif" font-size="9.00">get&#45;time&#45;and&#45;melody.ts</text>
</a>
</g>
</g>
<!-- packages/music&#45;structure/melody/melody&#45;analyze/src/get&#45;time&#45;and&#45;melody.ts&#45;&gt;packages/util/time&#45;and/dist/index.js -->
<g id="edge14" class="edge">
<title>packages/music&#45;structure/melody/melody&#45;analyze/src/get&#45;time&#45;and&#45;melody.ts&#45;&gt;packages/util/time&#45;and/dist/index.js</title>
<path fill="none" stroke="#000000" stroke-width="2" stroke-opacity="0.200000" d="M118.37,-280.39C177.12,-339.27 494.55,-657.37 564.4,-727.37"/>
<polygon fill="#000000" fill-opacity="0.200000" stroke="#000000" stroke-width="2" stroke-opacity="0.200000" points="563.27,-729.21 568.99,-731.97 566.24,-726.24 563.27,-729.21"/>
</g>
<!-- packages/music&#45;structure/melody/melody&#45;analyze/src/get&#45;time&#45;and&#45;melody.ts&#45;&gt;packages/music&#45;structure/melody/melody&#45;analyze/src/time&#45;and&#45;melody.ts -->
<g id="edge13" class="edge">
<title>packages/music&#45;structure/melody/melody&#45;analyze/src/get&#45;time&#45;and&#45;melody.ts&#45;&gt;packages/music&#45;structure/melody/melody&#45;analyze/src/time&#45;and&#45;melody.ts</title>
<path fill="none" stroke="#000000" stroke-width="2" stroke-opacity="0.200000" d="M169.88,-271C186.73,-271 205,-271 221.67,-271"/>
<polygon fill="#000000" fill-opacity="0.200000" stroke="#000000" stroke-width="2" stroke-opacity="0.200000" points="221.73,-273.1 227.73,-271 221.73,-268.9 221.73,-273.1"/>
</g>
<!-- packages/music&#45;structure/melody/melody&#45;analyze/src/melody&#45;analysis&#45;data.ts -->
<g id="node16" class="node">
<title>packages/music&#45;structure/melody/melody&#45;analyze/src/melody&#45;analysis&#45;data.ts</title>
<g id="a_node16"><a xlink:href="packages/music-structure/melody/melody-analyze/src/melody-analysis-data.ts" xlink:title="melody&#45;analysis&#45;data.ts">
<path fill="#ddfeff" stroke="black" d="M164,-220C164,-220 54,-220 54,-220 51,-220 48,-217 48,-214 48,-214 48,-208 48,-208 48,-205 51,-202 54,-202 54,-202 164,-202 164,-202 167,-202 170,-205 170,-208 170,-208 170,-214 170,-214 170,-217 167,-220 164,-220"/>
<text text-anchor="start" x="56" y="-208.8" font-family="Helvetica,sans-Serif" font-size="9.00">melody&#45;analysis&#45;data.ts</text>
</a>
</g>
</g>
<!-- packages/music&#45;structure/melody/melody&#45;analyze/src/melody&#45;analysis&#45;data.ts&#45;&gt;packages/music&#45;structure/melody/melody&#45;analyze/src/time&#45;and&#45;analyzed&#45;melody.ts -->
<g id="edge15" class="edge">
<title>packages/music&#45;structure/melody/melody&#45;analyze/src/melody&#45;analysis&#45;data.ts&#45;&gt;packages/music&#45;structure/melody/melody&#45;analyze/src/time&#45;and&#45;analyzed&#45;melody.ts</title>
<path fill="none" stroke="#000000" stroke-width="2" stroke-opacity="0.200000" d="M170.36,-211.72C180.05,-211.83 190.21,-211.95 200.25,-212.07"/>
<polygon fill="#000000" fill-opacity="0.200000" stroke="#000000" stroke-width="2" stroke-opacity="0.200000" points="200.46,-214.17 206.49,-212.15 200.51,-209.97 200.46,-214.17"/>
</g>
</g>
</svg>
