<?xml version="1.0" encoding="UTF-8" standalone="no"?>
<!DOCTYPE svg PUBLIC "-//W3C//DTD SVG 1.1//EN"
 "http://www.w3.org/Graphics/SVG/1.1/DTD/svg11.dtd">
<!-- Generated by graphviz version 2.43.0 (0)
 -->
<!-- Title: dependency&#45;cruiser output Pages: 1 -->
<svg width="1175pt" height="792pt"
 viewBox="0.00 0.00 1174.50 792.00" xmlns="http://www.w3.org/2000/svg" xmlns:xlink="http://www.w3.org/1999/xlink">
<g id="graph0" class="graph" transform="scale(1 1) rotate(0) translate(4 788)">
<title>dependency&#45;cruiser output</title>
<polygon fill="white" stroke="transparent" points="-4,4 -4,-788 1170.5,-788 1170.5,4 -4,4"/>
<g id="clust1" class="cluster">
<title>cluster_packages</title>
<path fill="#ffffff" stroke="black" stroke-width="2" d="M20,-8C20,-8 1154.5,-8 1154.5,-8 1160.5,-8 1166.5,-14 1166.5,-20 1166.5,-20 1166.5,-764 1166.5,-764 1166.5,-770 1160.5,-776 1154.5,-776 1154.5,-776 20,-776 20,-776 14,-776 8,-770 8,-764 8,-764 8,-20 8,-20 8,-14 14,-8 20,-8"/>
<text text-anchor="middle" x="587.25" y="-764.8" font-family="Helvetica,sans-Serif" font-weight="bold" font-size="9.00">packages</text>
</g>
<g id="clust2" class="cluster">
<title>cluster_packages/cognitive&#45;theory&#45;of&#45;music</title>
<path fill="#ffffff" stroke="black" stroke-width="2" d="M1021.5,-630C1021.5,-630 1146.5,-630 1146.5,-630 1152.5,-630 1158.5,-636 1158.5,-642 1158.5,-642 1158.5,-738 1158.5,-738 1158.5,-744 1152.5,-750 1146.5,-750 1146.5,-750 1021.5,-750 1021.5,-750 1015.5,-750 1009.5,-744 1009.5,-738 1009.5,-738 1009.5,-642 1009.5,-642 1009.5,-636 1015.5,-630 1021.5,-630"/>
<text text-anchor="middle" x="1084" y="-738.8" font-family="Helvetica,sans-Serif" font-weight="bold" font-size="9.00">cognitive&#45;theory&#45;of&#45;music</text>
</g>
<g id="clust3" class="cluster">
<title>cluster_packages/cognitive&#45;theory&#45;of&#45;music/irm</title>
<path fill="#ffffff" stroke="black" stroke-width="2" d="M1052.5,-638C1052.5,-638 1114.5,-638 1114.5,-638 1120.5,-638 1126.5,-644 1126.5,-650 1126.5,-650 1126.5,-712 1126.5,-712 1126.5,-718 1120.5,-724 1114.5,-724 1114.5,-724 1052.5,-724 1052.5,-724 1046.5,-724 1040.5,-718 1040.5,-712 1040.5,-712 1040.5,-650 1040.5,-650 1040.5,-644 1046.5,-638 1052.5,-638"/>
<text text-anchor="middle" x="1083.5" y="-712.8" font-family="Helvetica,sans-Serif" font-weight="bold" font-size="9.00">irm</text>
</g>
<g id="clust4" class="cluster">
<title>cluster_packages/cognitive&#45;theory&#45;of&#45;music/irm/dist</title>
<path fill="#ffffff" stroke="black" stroke-width="2" d="M1060.5,-646C1060.5,-646 1106.5,-646 1106.5,-646 1112.5,-646 1118.5,-652 1118.5,-658 1118.5,-658 1118.5,-686 1118.5,-686 1118.5,-692 1112.5,-698 1106.5,-698 1106.5,-698 1060.5,-698 1060.5,-698 1054.5,-698 1048.5,-692 1048.5,-686 1048.5,-686 1048.5,-658 1048.5,-658 1048.5,-652 1054.5,-646 1060.5,-646"/>
<text text-anchor="middle" x="1083.5" y="-686.8" font-family="Helvetica,sans-Serif" font-weight="bold" font-size="9.00">dist</text>
</g>
<g id="clust5" class="cluster">
<title>cluster_packages/music&#45;structure</title>
<path fill="#ffffff" stroke="black" stroke-width="2" d="M28,-238C28,-238 1132.5,-238 1132.5,-238 1138.5,-238 1144.5,-244 1144.5,-250 1144.5,-250 1144.5,-610 1144.5,-610 1144.5,-616 1138.5,-622 1132.5,-622 1132.5,-622 28,-622 28,-622 22,-622 16,-616 16,-610 16,-610 16,-250 16,-250 16,-244 22,-238 28,-238"/>
<text text-anchor="middle" x="580.25" y="-610.8" font-family="Helvetica,sans-Serif" font-weight="bold" font-size="9.00">music&#45;structure</text>
</g>
<g id="clust6" class="cluster">
<title>cluster_packages/music&#45;structure/chord</title>
<path fill="#ffffff" stroke="black" stroke-width="2" d="M482,-476C482,-476 563,-476 563,-476 569,-476 575,-482 575,-488 575,-488 575,-584 575,-584 575,-590 569,-596 563,-596 563,-596 482,-596 482,-596 476,-596 470,-590 470,-584 470,-584 470,-488 470,-488 470,-482 476,-476 482,-476"/>
<text text-anchor="middle" x="522.5" y="-584.8" font-family="Helvetica,sans-Serif" font-weight="bold" font-size="9.00">chord</text>
</g>
<g id="clust7" class="cluster">
<title>cluster_packages/music&#45;structure/chord/chord&#45;analyze</title>
<path fill="#ffffff" stroke="black" stroke-width="2" d="M490,-484C490,-484 555,-484 555,-484 561,-484 567,-490 567,-496 567,-496 567,-558 567,-558 567,-564 561,-570 555,-570 555,-570 490,-570 490,-570 484,-570 478,-564 478,-558 478,-558 478,-496 478,-496 478,-490 484,-484 490,-484"/>
<text text-anchor="middle" x="522.5" y="-558.8" font-family="Helvetica,sans-Serif" font-weight="bold" font-size="9.00">chord&#45;analyze</text>
</g>
<g id="clust8" class="cluster">
<title>cluster_packages/music&#45;structure/chord/chord&#45;analyze/dist</title>
<path fill="#ffffff" stroke="black" stroke-width="2" d="M499,-492C499,-492 545,-492 545,-492 551,-492 557,-498 557,-504 557,-504 557,-532 557,-532 557,-538 551,-544 545,-544 545,-544 499,-544 499,-544 493,-544 487,-538 487,-532 487,-532 487,-504 487,-504 487,-498 493,-492 499,-492"/>
<text text-anchor="middle" x="522" y="-532.8" font-family="Helvetica,sans-Serif" font-weight="bold" font-size="9.00">dist</text>
</g>
<g id="clust9" class="cluster">
<title>cluster_packages/music&#45;structure/melody</title>
<path fill="#ffffff" stroke="black" stroke-width="2" d="M36,-246C36,-246 1124.5,-246 1124.5,-246 1130.5,-246 1136.5,-252 1136.5,-258 1136.5,-258 1136.5,-456 1136.5,-456 1136.5,-462 1130.5,-468 1124.5,-468 1124.5,-468 36,-468 36,-468 30,-468 24,-462 24,-456 24,-456 24,-258 24,-258 24,-252 30,-246 36,-246"/>
<text text-anchor="middle" x="580.25" y="-456.8" font-family="Helvetica,sans-Serif" font-weight="bold" font-size="9.00">melody</text>
</g>
<g id="clust10" class="cluster">
<title>cluster_packages/music&#45;structure/melody/melody&#45;analyze</title>
<path fill="#ffffff" stroke="black" stroke-width="2" d="M44,-254C44,-254 1116.5,-254 1116.5,-254 1122.5,-254 1128.5,-260 1128.5,-266 1128.5,-266 1128.5,-430 1128.5,-430 1128.5,-436 1122.5,-442 1116.5,-442 1116.5,-442 44,-442 44,-442 38,-442 32,-436 32,-430 32,-430 32,-266 32,-266 32,-260 38,-254 44,-254"/>
<text text-anchor="middle" x="580.25" y="-430.8" font-family="Helvetica,sans-Serif" font-weight="bold" font-size="9.00">melody&#45;analyze</text>
</g>
<g id="clust11" class="cluster">
<title>cluster_packages/music&#45;structure/melody/melody&#45;analyze/src</title>
<path fill="#ffffff" stroke="black" stroke-width="2" d="M133,-262C133,-262 1108.5,-262 1108.5,-262 1114.5,-262 1120.5,-268 1120.5,-274 1120.5,-274 1120.5,-404 1120.5,-404 1120.5,-410 1114.5,-416 1108.5,-416 1108.5,-416 133,-416 133,-416 127,-416 121,-410 121,-404 121,-404 121,-274 121,-274 121,-268 127,-262 133,-262"/>
<text text-anchor="middle" x="620.75" y="-404.8" font-family="Helvetica,sans-Serif" font-weight="bold" font-size="9.00">src</text>
</g>
<g id="clust12" class="cluster">
<title>cluster_packages/tonal&#45;objects</title>
<path fill="#ffffff" stroke="black" stroke-width="2" d="M776,-630C776,-630 838,-630 838,-630 844,-630 850,-636 850,-642 850,-642 850,-704 850,-704 850,-710 844,-716 838,-716 838,-716 776,-716 776,-716 770,-716 764,-710 764,-704 764,-704 764,-642 764,-642 764,-636 770,-630 776,-630"/>
<text text-anchor="middle" x="807" y="-704.8" font-family="Helvetica,sans-Serif" font-weight="bold" font-size="9.00">tonal&#45;objects</text>
</g>
<g id="clust13" class="cluster">
<title>cluster_packages/tonal&#45;objects/dist</title>
<path fill="#ffffff" stroke="black" stroke-width="2" d="M784,-638C784,-638 830,-638 830,-638 836,-638 842,-644 842,-650 842,-650 842,-678 842,-678 842,-684 836,-690 830,-690 830,-690 784,-690 784,-690 778,-690 772,-684 772,-678 772,-678 772,-650 772,-650 772,-644 778,-638 784,-638"/>
<text text-anchor="middle" x="807" y="-678.8" font-family="Helvetica,sans-Serif" font-weight="bold" font-size="9.00">dist</text>
</g>
<g id="clust14" class="cluster">
<title>cluster_packages/util</title>
<path fill="#ffffff" stroke="black" stroke-width="2" d="M903.5,-16C903.5,-16 981.5,-16 981.5,-16 987.5,-16 993.5,-22 993.5,-28 993.5,-28 993.5,-218 993.5,-218 993.5,-224 987.5,-230 981.5,-230 981.5,-230 903.5,-230 903.5,-230 897.5,-230 891.5,-224 891.5,-218 891.5,-218 891.5,-28 891.5,-28 891.5,-22 897.5,-16 903.5,-16"/>
<text text-anchor="middle" x="942.5" y="-218.8" font-family="Helvetica,sans-Serif" font-weight="bold" font-size="9.00">util</text>
</g>
<g id="clust15" class="cluster">
<title>cluster_packages/util/math</title>
<path fill="#ffffff" stroke="black" stroke-width="2" d="M911.5,-24C911.5,-24 973.5,-24 973.5,-24 979.5,-24 985.5,-30 985.5,-36 985.5,-36 985.5,-98 985.5,-98 985.5,-104 979.5,-110 973.5,-110 973.5,-110 911.5,-110 911.5,-110 905.5,-110 899.5,-104 899.5,-98 899.5,-98 899.5,-36 899.5,-36 899.5,-30 905.5,-24 911.5,-24"/>
<text text-anchor="middle" x="942.5" y="-98.8" font-family="Helvetica,sans-Serif" font-weight="bold" font-size="9.00">math</text>
</g>
<g id="clust16" class="cluster">
<title>cluster_packages/util/math/dist</title>
<path fill="#ffffff" stroke="black" stroke-width="2" d="M919.5,-32C919.5,-32 965.5,-32 965.5,-32 971.5,-32 977.5,-38 977.5,-44 977.5,-44 977.5,-72 977.5,-72 977.5,-78 971.5,-84 965.5,-84 965.5,-84 919.5,-84 919.5,-84 913.5,-84 907.5,-78 907.5,-72 907.5,-72 907.5,-44 907.5,-44 907.5,-38 913.5,-32 919.5,-32"/>
<text text-anchor="middle" x="942.5" y="-72.8" font-family="Helvetica,sans-Serif" font-weight="bold" font-size="9.00">dist</text>
</g>
<g id="clust17" class="cluster">
<title>cluster_packages/util/time&#45;and</title>
<path fill="#ffffff" stroke="black" stroke-width="2" d="M911.5,-118C911.5,-118 973.5,-118 973.5,-118 979.5,-118 985.5,-124 985.5,-130 985.5,-130 985.5,-192 985.5,-192 985.5,-198 979.5,-204 973.5,-204 973.5,-204 911.5,-204 911.5,-204 905.5,-204 899.5,-198 899.5,-192 899.5,-192 899.5,-130 899.5,-130 899.5,-124 905.5,-118 911.5,-118"/>
<text text-anchor="middle" x="942.5" y="-192.8" font-family="Helvetica,sans-Serif" font-weight="bold" font-size="9.00">time&#45;and</text>
</g>
<g id="clust18" class="cluster">
<title>cluster_packages/util/time&#45;and/dist</title>
<path fill="#ffffff" stroke="black" stroke-width="2" d="M919.5,-126C919.5,-126 965.5,-126 965.5,-126 971.5,-126 977.5,-132 977.5,-138 977.5,-138 977.5,-166 977.5,-166 977.5,-172 971.5,-178 965.5,-178 965.5,-178 919.5,-178 919.5,-178 913.5,-178 907.5,-172 907.5,-166 907.5,-166 907.5,-138 907.5,-138 907.5,-132 913.5,-126 919.5,-126"/>
<text text-anchor="middle" x="942.5" y="-166.8" font-family="Helvetica,sans-Serif" font-weight="bold" font-size="9.00">dist</text>
</g>
<!-- packages/cognitive&#45;theory&#45;of&#45;music/irm/dist/index.js -->
<g id="node1" class="node">
<title>packages/cognitive&#45;theory&#45;of&#45;music/irm/dist/index.js</title>
<g id="a_node1"><a xlink:href="packages/cognitive-theory-of-music/irm/dist/index.js" xlink:title="index.js">
<polygon fill="#ffffcc" stroke="black" points="1110.5,-672 1109,-674 1098.5,-674 1097,-672 1056.5,-672 1056.5,-654 1110.5,-654 1110.5,-672"/>
<text text-anchor="start" x="1066" y="-660.8" font-family="Helvetica,sans-Serif" font-size="9.00">index.js</text>
</a>
</g>
</g>
<!-- packages/music&#45;structure/chord/chord&#45;analyze/dist/index.js -->
<g id="node2" class="node">
<title>packages/music&#45;structure/chord/chord&#45;analyze/dist/index.js</title>
<g id="a_node2"><a xlink:href="packages/music-structure/chord/chord-analyze/dist/index.js" xlink:title="index.js">
<polygon fill="#ffffcc" stroke="black" points="549,-518 547.5,-520 537,-520 535.5,-518 495,-518 495,-500 549,-500 549,-518"/>
<text text-anchor="start" x="504.5" y="-506.8" font-family="Helvetica,sans-Serif" font-size="9.00">index.js</text>
</a>
</g>
</g>
<!-- packages/music&#45;structure/melody/melody&#45;analyze/index.test.ts -->
<g id="node3" class="node">
<title>packages/music&#45;structure/melody/melody&#45;analyze/index.test.ts</title>
<g id="a_node3"><a xlink:href="packages/music-structure/melody/melody-analyze/index.test.ts" xlink:title="no&#45;orphans">
<path fill="#ccffcc" stroke="orange" d="M107,-385C107,-385 46,-385 46,-385 43,-385 40,-382 40,-379 40,-379 40,-373 40,-373 40,-370 43,-367 46,-367 46,-367 107,-367 107,-367 110,-367 113,-370 113,-373 113,-373 113,-379 113,-379 113,-382 110,-385 107,-385"/>
<text text-anchor="start" x="48" y="-373.8" font-family="Helvetica,sans-Serif" font-size="9.00" fill="orange">index.test.ts</text>
</a>
</g>
</g>
<!-- packages/music&#45;structure/melody/melody&#45;analyze/index.ts -->
<g id="node4" class="node">
<title>packages/music&#45;structure/melody/melody&#45;analyze/index.ts</title>
<g id="a_node4"><a xlink:href="packages/music-structure/melody/melody-analyze/index.ts" xlink:title="index.ts">
<path fill="#ddfeff" stroke="black" d="M97.5,-324C97.5,-324 55.5,-324 55.5,-324 52.5,-324 49.5,-321 49.5,-318 49.5,-318 49.5,-312 49.5,-312 49.5,-309 52.5,-306 55.5,-306 55.5,-306 97.5,-306 97.5,-306 100.5,-306 103.5,-309 103.5,-312 103.5,-312 103.5,-318 103.5,-318 103.5,-321 100.5,-324 97.5,-324"/>
<text text-anchor="start" x="58" y="-312.8" font-family="Helvetica,sans-Serif" font-size="9.00">index.ts</text>
</a>
</g>
</g>
<!-- packages/music&#45;structure/melody/melody&#45;analyze/src/index.ts -->
<g id="node5" class="node">
<title>packages/music&#45;structure/melody/melody&#45;analyze/src/index.ts</title>
<g id="a_node5"><a xlink:href="packages/music-structure/melody/melody-analyze/src/index.ts" xlink:title="index.ts">
<path fill="#ddfeff" stroke="black" d="M177,-324C177,-324 135,-324 135,-324 132,-324 129,-321 129,-318 129,-318 129,-312 129,-312 129,-309 132,-306 135,-306 135,-306 177,-306 177,-306 180,-306 183,-309 183,-312 183,-312 183,-318 183,-318 183,-321 180,-324 177,-324"/>
<text text-anchor="start" x="137.5" y="-312.8" font-family="Helvetica,sans-Serif" font-size="9.00">index.ts</text>
</a>
</g>
</g>
<!-- packages/music&#45;structure/melody/melody&#45;analyze/index.ts&#45;&gt;packages/music&#45;structure/melody/melody&#45;analyze/src/index.ts -->
<g id="edge1" class="edge">
<title>packages/music&#45;structure/melody/melody&#45;analyze/index.ts&#45;&gt;packages/music&#45;structure/melody/melody&#45;analyze/src/index.ts</title>
<path fill="none" stroke="#000000" stroke-width="2" stroke-opacity="0.200000" d="M103.74,-315C109.8,-315 116.32,-315 122.6,-315"/>
<polygon fill="#000000" fill-opacity="0.200000" stroke="#000000" stroke-width="2" stroke-opacity="0.200000" points="128.79,-317.1 122.79,-315 128.79,-312.9 128.79,-317.1"/>
</g>
<!-- packages/music&#45;structure/melody/melody&#45;analyze/src/analyze&#45;melody.ts -->
<g id="node6" class="node">
<title>packages/music&#45;structure/melody/melody&#45;analyze/src/analyze&#45;melody.ts</title>
<g id="a_node6"><a xlink:href="packages/music-structure/melody/melody-analyze/src/analyze-melody.ts" xlink:title="analyze&#45;melody.ts">
<path fill="#ddfeff" stroke="black" d="M298.5,-379C298.5,-379 214.5,-379 214.5,-379 211.5,-379 208.5,-376 208.5,-373 208.5,-373 208.5,-367 208.5,-367 208.5,-364 211.5,-361 214.5,-361 214.5,-361 298.5,-361 298.5,-361 301.5,-361 304.5,-364 304.5,-367 304.5,-367 304.5,-373 304.5,-373 304.5,-376 301.5,-379 298.5,-379"/>
<text text-anchor="start" x="216.5" y="-367.8" font-family="Helvetica,sans-Serif" font-size="9.00">analyze&#45;melody.ts</text>
</a>
</g>
</g>
<!-- packages/music&#45;structure/melody/melody&#45;analyze/src/index.ts&#45;&gt;packages/music&#45;structure/melody/melody&#45;analyze/src/analyze&#45;melody.ts -->
<g id="edge12" class="edge">
<title>packages/music&#45;structure/melody/melody&#45;analyze/src/index.ts&#45;&gt;packages/music&#45;structure/melody/melody&#45;analyze/src/analyze&#45;melody.ts</title>
<path fill="none" stroke="#000000" stroke-width="2" stroke-opacity="0.200000" d="M173.27,-324.08C189.8,-333.32 215.53,-347.68 233.8,-357.88"/>
<polygon fill="#000000" fill-opacity="0.200000" stroke="#000000" stroke-width="2" stroke-opacity="0.200000" points="238.19,-362.74 233.97,-357.98 240.23,-359.07 238.19,-362.74"/>
</g>
<!-- packages/music&#45;structure/melody/melody&#45;analyze/src/interfaces.ts -->
<g id="node7" class="node">
<title>packages/music&#45;structure/melody/melody&#45;analyze/src/interfaces.ts</title>
<g id="a_node7"><a xlink:href="packages/music-structure/melody/melody-analyze/src/interfaces.ts" xlink:title="interfaces.ts">
<path fill="#ddfeff" stroke="black" d="M552,-346C552,-346 492,-346 492,-346 489,-346 486,-343 486,-340 486,-340 486,-334 486,-334 486,-331 489,-328 492,-328 492,-328 552,-328 552,-328 555,-328 558,-331 558,-334 558,-334 558,-340 558,-340 558,-343 555,-346 552,-346"/>
<text text-anchor="start" x="494" y="-334.8" font-family="Helvetica,sans-Serif" font-size="9.00">interfaces.ts</text>
</a>
</g>
</g>
<!-- packages/music&#45;structure/melody/melody&#45;analyze/src/index.ts&#45;&gt;packages/music&#45;structure/melody/melody&#45;analyze/src/interfaces.ts -->
<g id="edge14" class="edge">
<title>packages/music&#45;structure/melody/melody&#45;analyze/src/index.ts&#45;&gt;packages/music&#45;structure/melody/melody&#45;analyze/src/interfaces.ts</title>
<path fill="none" stroke="#000000" stroke-width="2" stroke-opacity="0.200000" d="M183.21,-316.64C246.46,-320.44 403.74,-329.89 479.67,-334.46"/>
<polygon fill="#000000" fill-opacity="0.200000" stroke="#000000" stroke-width="2" stroke-opacity="0.200000" points="485.75,-336.92 479.89,-334.47 486,-332.73 485.75,-336.92"/>
</g>
<!-- packages/music&#45;structure/melody/melody&#45;analyze/src/get&#45;time&#45;and&#45;melody.ts -->
<g id="node11" class="node">
<title>packages/music&#45;structure/melody/melody&#45;analyze/src/get&#45;time&#45;and&#45;melody.ts</title>
<g id="a_node11"><a xlink:href="packages/music-structure/melody/melody-analyze/src/get-time-and-melody.ts" xlink:title="get&#45;time&#45;and&#45;melody.ts">
<path fill="#ddfeff" stroke="black" d="M311,-302C311,-302 202,-302 202,-302 199,-302 196,-299 196,-296 196,-296 196,-290 196,-290 196,-287 199,-284 202,-284 202,-284 311,-284 311,-284 314,-284 317,-287 317,-290 317,-290 317,-296 317,-296 317,-299 314,-302 311,-302"/>
<text text-anchor="start" x="204" y="-290.8" font-family="Helvetica,sans-Serif" font-size="9.00">get&#45;time&#45;and&#45;melody.ts</text>
</a>
</g>
</g>
<!-- packages/music&#45;structure/melody/melody&#45;analyze/src/index.ts&#45;&gt;packages/music&#45;structure/melody/melody&#45;analyze/src/get&#45;time&#45;and&#45;melody.ts -->
<g id="edge13" class="edge">
<title>packages/music&#45;structure/melody/melody&#45;analyze/src/index.ts&#45;&gt;packages/music&#45;structure/melody/melody&#45;analyze/src/get&#45;time&#45;and&#45;melody.ts</title>
<path fill="none" stroke="#000000" stroke-width="2" stroke-opacity="0.200000" d="M183.14,-309.16C191.18,-307.37 200.28,-305.33 209.26,-303.33"/>
<polygon fill="#000000" fill-opacity="0.200000" stroke="#000000" stroke-width="2" stroke-opacity="0.200000" points="215.58,-304.07 209.26,-303.33 214.66,-299.97 215.58,-304.07"/>
</g>
<!-- packages/music&#45;structure/melody/melody&#45;analyze/src/analyze&#45;melody.ts&#45;&gt;packages/cognitive&#45;theory&#45;of&#45;music/irm/dist/index.js -->
<g id="edge5" class="edge">
<title>packages/music&#45;structure/melody/melody&#45;analyze/src/analyze&#45;melody.ts&#45;&gt;packages/cognitive&#45;theory&#45;of&#45;music/irm/dist/index.js</title>
<path fill="none" stroke="#000000" stroke-width="2" stroke-opacity="0.200000" d="M282.16,-379.09C403.45,-422.06 918.98,-604.71 1052.06,-651.86"/>
<polygon fill="#000000" fill-opacity="0.200000" stroke="#000000" stroke-width="2" stroke-opacity="0.200000" points="1051.38,-653.85 1057.73,-653.87 1052.78,-649.89 1051.38,-653.85"/>
</g>
<!-- packages/music&#45;structure/melody/melody&#45;analyze/src/analyze&#45;melody.ts&#45;&gt;packages/music&#45;structure/chord/chord&#45;analyze/dist/index.js -->
<g id="edge4" class="edge">
<title>packages/music&#45;structure/melody/melody&#45;analyze/src/analyze&#45;melody.ts&#45;&gt;packages/music&#45;structure/chord/chord&#45;analyze/dist/index.js</title>
<path fill="none" stroke="#000000" stroke-width="2" stroke-opacity="0.200000" d="M273.92,-379.12C320.34,-403.42 447,-469.73 499.12,-497.02"/>
<polygon fill="#000000" fill-opacity="0.200000" stroke="#000000" stroke-width="2" stroke-opacity="0.200000" points="498.23,-498.92 504.52,-499.85 500.17,-495.2 498.23,-498.92"/>
</g>
<!-- packages/music&#45;structure/melody/melody&#45;analyze/src/analyze&#45;melody.ts&#45;&gt;packages/music&#45;structure/melody/melody&#45;analyze/src/interfaces.ts -->
<g id="edge2" class="edge">
<title>packages/music&#45;structure/melody/melody&#45;analyze/src/analyze&#45;melody.ts&#45;&gt;packages/music&#45;structure/melody/melody&#45;analyze/src/interfaces.ts</title>
<path fill="none" stroke="#000000" stroke-width="2" stroke-opacity="0.200000" d="M304.58,-364.02C354.49,-357.82 431.81,-348.21 479.54,-342.28"/>
<polygon fill="#000000" fill-opacity="0.200000" stroke="#000000" stroke-width="2" stroke-opacity="0.200000" points="480.08,-344.33 485.78,-341.5 479.57,-340.16 480.08,-344.33"/>
</g>
<!-- packages/music&#45;structure/melody/melody&#45;analyze/src/register&#45;gravity.ts -->
<g id="node8" class="node">
<title>packages/music&#45;structure/melody/melody&#45;analyze/src/register&#45;gravity.ts</title>
<g id="a_node8"><a xlink:href="packages/music-structure/melody/melody-analyze/src/register-gravity.ts" xlink:title="register&#45;gravity.ts">
<path fill="#ddfeff" stroke="black" d="M429.5,-346C429.5,-346 346.5,-346 346.5,-346 343.5,-346 340.5,-343 340.5,-340 340.5,-340 340.5,-334 340.5,-334 340.5,-331 343.5,-328 346.5,-328 346.5,-328 429.5,-328 429.5,-328 432.5,-328 435.5,-331 435.5,-334 435.5,-334 435.5,-340 435.5,-340 435.5,-343 432.5,-346 429.5,-346"/>
<text text-anchor="start" x="348.5" y="-334.8" font-family="Helvetica,sans-Serif" font-size="9.00">register&#45;gravity.ts</text>
</a>
</g>
</g>
<!-- packages/music&#45;structure/melody/melody&#45;analyze/src/analyze&#45;melody.ts&#45;&gt;packages/music&#45;structure/melody/melody&#45;analyze/src/register&#45;gravity.ts -->
<g id="edge3" class="edge">
<title>packages/music&#45;structure/melody/melody&#45;analyze/src/analyze&#45;melody.ts&#45;&gt;packages/music&#45;structure/melody/melody&#45;analyze/src/register&#45;gravity.ts</title>
<path fill="none" stroke="#000000" stroke-width="2" stroke-opacity="0.200000" d="M292.89,-360.98C309.16,-356.84 328.57,-351.89 345.53,-347.57"/>
<polygon fill="#000000" fill-opacity="0.200000" stroke="#000000" stroke-width="2" stroke-opacity="0.200000" points="346.36,-349.52 351.66,-346.01 345.32,-345.45 346.36,-349.52"/>
</g>
<!-- packages/tonal&#45;objects/dist/index.js -->
<g id="node9" class="node">
<title>packages/tonal&#45;objects/dist/index.js</title>
<g id="a_node9"><a xlink:href="packages/tonal-objects/dist/index.js" xlink:title="index.js">
<polygon fill="#ffffcc" stroke="black" points="834,-664 832.5,-666 822,-666 820.5,-664 780,-664 780,-646 834,-646 834,-664"/>
<text text-anchor="start" x="789.5" y="-652.8" font-family="Helvetica,sans-Serif" font-size="9.00">index.js</text>
</a>
</g>
</g>
<!-- packages/music&#45;structure/melody/melody&#45;analyze/src/analyze&#45;melody.ts&#45;&gt;packages/tonal&#45;objects/dist/index.js -->
<g id="edge6" class="edge">
<title>packages/music&#45;structure/melody/melody&#45;analyze/src/analyze&#45;melody.ts&#45;&gt;packages/tonal&#45;objects/dist/index.js</title>
<path fill="none" stroke="#000000" stroke-width="2" stroke-opacity="0.200000" d="M273.88,-379C354.62,-420.8 692.9,-595.93 784.21,-643.2"/>
<polygon fill="#000000" fill-opacity="0.200000" stroke="#000000" stroke-width="2" stroke-opacity="0.200000" points="783.32,-645.1 789.61,-646 785.25,-641.37 783.32,-645.1"/>
</g>
<!-- packages/music&#45;structure/melody/melody&#45;analyze/src/gravity.ts -->
<g id="node13" class="node">
<title>packages/music&#45;structure/melody/melody&#45;analyze/src/gravity.ts</title>
<g id="a_node13"><a xlink:href="packages/music-structure/melody/melody-analyze/src/gravity.ts" xlink:title="gravity.ts">
<path fill="#ddfeff" stroke="black" d="M1106.5,-379C1106.5,-379 1060.5,-379 1060.5,-379 1057.5,-379 1054.5,-376 1054.5,-373 1054.5,-373 1054.5,-367 1054.5,-367 1054.5,-364 1057.5,-361 1060.5,-361 1060.5,-361 1106.5,-361 1106.5,-361 1109.5,-361 1112.5,-364 1112.5,-367 1112.5,-367 1112.5,-373 1112.5,-373 1112.5,-376 1109.5,-379 1106.5,-379"/>
<text text-anchor="start" x="1062.5" y="-367.8" font-family="Helvetica,sans-Serif" font-size="9.00">gravity.ts</text>
</a>
</g>
</g>
<!-- packages/music&#45;structure/melody/melody&#45;analyze/src/interfaces.ts&#45;&gt;packages/music&#45;structure/melody/melody&#45;analyze/src/gravity.ts -->
<g id="edge15" class="edge">
<title>packages/music&#45;structure/melody/melody&#45;analyze/src/interfaces.ts&#45;&gt;packages/music&#45;structure/melody/melody&#45;analyze/src/gravity.ts</title>
<path fill="none" stroke="#000000" stroke-width="2" stroke-opacity="0.200000" d="M558.41,-339.14C660.41,-345.13 948.04,-362.04 1048.41,-367.94"/>
<polygon fill="#000000" fill-opacity="0.200000" stroke="#000000" stroke-width="2" stroke-opacity="0.200000" points="1054.34,-370.39 1048.48,-367.94 1054.59,-366.2 1054.34,-370.39"/>
</g>
<!-- packages/music&#45;structure/melody/melody&#45;analyze/src/melody&#45;analysis.ts -->
<g id="node14" class="node">
<title>packages/music&#45;structure/melody/melody&#45;analyze/src/melody&#45;analysis.ts</title>
<g id="a_node14"><a xlink:href="packages/music-structure/melody/melody-analyze/src/melody-analysis.ts" xlink:title="melody&#45;analysis.ts">
<path fill="#ddfeff" stroke="black" d="M986,-390C986,-390 899,-390 899,-390 896,-390 893,-387 893,-384 893,-384 893,-378 893,-378 893,-375 896,-372 899,-372 899,-372 986,-372 986,-372 989,-372 992,-375 992,-378 992,-378 992,-384 992,-384 992,-387 989,-390 986,-390"/>
<text text-anchor="start" x="901" y="-378.8" font-family="Helvetica,sans-Serif" font-size="9.00">melody&#45;analysis.ts</text>
</a>
</g>
</g>
<!-- packages/music&#45;structure/melody/melody&#45;analyze/src/interfaces.ts&#45;&gt;packages/music&#45;structure/melody/melody&#45;analyze/src/melody&#45;analysis.ts -->
<g id="edge16" class="edge">
<title>packages/music&#45;structure/melody/melody&#45;analyze/src/interfaces.ts&#45;&gt;packages/music&#45;structure/melody/melody&#45;analyze/src/melody&#45;analysis.ts</title>
<path fill="none" stroke="#000000" stroke-width="2" stroke-opacity="0.200000" d="M558.22,-340.79C631.75,-348.48 799.01,-365.99 886.62,-375.15"/>
<polygon fill="#000000" fill-opacity="0.200000" stroke="#000000" stroke-width="2" stroke-opacity="0.200000" points="892.57,-377.89 886.82,-375.17 893,-373.71 892.57,-377.89"/>
</g>
<!-- packages/music&#45;structure/melody/melody&#45;analyze/src/melody&#45;analysis&#45;data.ts -->
<g id="node15" class="node">
<title>packages/music&#45;structure/melody/melody&#45;analyze/src/melody&#45;analysis&#45;data.ts</title>
<g id="a_node15"><a xlink:href="packages/music-structure/melody/melody-analyze/src/melody-analysis-data.ts" xlink:title="melody&#45;analysis&#45;data.ts">
<path fill="#ddfeff" stroke="black" d="M715,-362C715,-362 605,-362 605,-362 602,-362 599,-359 599,-356 599,-356 599,-350 599,-350 599,-347 602,-344 605,-344 605,-344 715,-344 715,-344 718,-344 721,-347 721,-350 721,-350 721,-356 721,-356 721,-359 718,-362 715,-362"/>
<text text-anchor="start" x="607" y="-350.8" font-family="Helvetica,sans-Serif" font-size="9.00">melody&#45;analysis&#45;data.ts</text>
</a>
</g>
</g>
<!-- packages/music&#45;structure/melody/melody&#45;analyze/src/interfaces.ts&#45;&gt;packages/music&#45;structure/melody/melody&#45;analyze/src/melody&#45;analysis&#45;data.ts -->
<g id="edge17" class="edge">
<title>packages/music&#45;structure/melody/melody&#45;analyze/src/interfaces.ts&#45;&gt;packages/music&#45;structure/melody/melody&#45;analyze/src/melody&#45;analysis&#45;data.ts</title>
<path fill="none" stroke="#000000" stroke-width="2" stroke-opacity="0.200000" d="M558.02,-341.12C568.61,-342.37 580.61,-343.78 592.54,-345.18"/>
<polygon fill="#000000" fill-opacity="0.200000" stroke="#000000" stroke-width="2" stroke-opacity="0.200000" points="598.52,-348 592.81,-345.21 599.02,-343.83 598.52,-348"/>
</g>
<!-- packages/music&#45;structure/melody/melody&#45;analyze/src/time&#45;and&#45;analyzed&#45;melody.ts -->
<g id="node16" class="node">
<title>packages/music&#45;structure/melody/melody&#45;analyze/src/time&#45;and&#45;analyzed&#45;melody.ts</title>
<g id="a_node16"><a xlink:href="packages/music-structure/melody/melody-analyze/src/time-and-analyzed-melody.ts" xlink:title="time&#45;and&#45;analyzed&#45;melody.ts">
<path fill="#ddfeff" stroke="black" d="M874,-332C874,-332 740,-332 740,-332 737,-332 734,-329 734,-326 734,-326 734,-320 734,-320 734,-317 737,-314 740,-314 740,-314 874,-314 874,-314 877,-314 880,-317 880,-320 880,-320 880,-326 880,-326 880,-329 877,-332 874,-332"/>
<text text-anchor="start" x="742" y="-320.8" font-family="Helvetica,sans-Serif" font-size="9.00">time&#45;and&#45;analyzed&#45;melody.ts</text>
</a>
</g>
</g>
<!-- packages/music&#45;structure/melody/melody&#45;analyze/src/interfaces.ts&#45;&gt;packages/music&#45;structure/melody/melody&#45;analyze/src/time&#45;and&#45;analyzed&#45;melody.ts -->
<g id="edge18" class="edge">
<title>packages/music&#45;structure/melody/melody&#45;analyze/src/interfaces.ts&#45;&gt;packages/music&#45;structure/melody/melody&#45;analyze/src/time&#45;and&#45;analyzed&#45;melody.ts</title>
<path fill="none" stroke="#000000" stroke-width="2" stroke-opacity="0.200000" d="M558.1,-335.23C600.51,-333.14 672.15,-329.62 727.71,-326.89"/>
<polygon fill="#000000" fill-opacity="0.200000" stroke="#000000" stroke-width="2" stroke-opacity="0.200000" points="733.82,-328.7 727.72,-326.89 733.61,-324.5 733.82,-328.7"/>
</g>
<!-- packages/music&#45;structure/melody/melody&#45;analyze/src/time&#45;and&#45;chord.ts -->
<g id="node17" class="node">
<title>packages/music&#45;structure/melody/melody&#45;analyze/src/time&#45;and&#45;chord.ts</title>
<g id="a_node17"><a xlink:href="packages/music-structure/melody/melody-analyze/src/time-and-chord.ts" xlink:title="time&#45;and&#45;chord.ts">
<path fill="#ddfeff" stroke="black" d="M703,-332C703,-332 617,-332 617,-332 614,-332 611,-329 611,-326 611,-326 611,-320 611,-320 611,-317 614,-314 617,-314 617,-314 703,-314 703,-314 706,-314 709,-317 709,-320 709,-320 709,-326 709,-326 709,-329 706,-332 703,-332"/>
<text text-anchor="start" x="619" y="-320.8" font-family="Helvetica,sans-Serif" font-size="9.00">time&#45;and&#45;chord.ts</text>
</a>
</g>
</g>
<!-- packages/music&#45;structure/melody/melody&#45;analyze/src/interfaces.ts&#45;&gt;packages/music&#45;structure/melody/melody&#45;analyze/src/time&#45;and&#45;chord.ts -->
<g id="edge19" class="edge">
<title>packages/music&#45;structure/melody/melody&#45;analyze/src/interfaces.ts&#45;&gt;packages/music&#45;structure/melody/melody&#45;analyze/src/time&#45;and&#45;chord.ts</title>
<path fill="none" stroke="#000000" stroke-width="2" stroke-opacity="0.200000" d="M558.02,-333.39C572.2,-331.94 588.89,-330.22 604.58,-328.6"/>
<polygon fill="#000000" fill-opacity="0.200000" stroke="#000000" stroke-width="2" stroke-opacity="0.200000" points="610.99,-330.05 604.8,-328.58 610.56,-325.88 610.99,-330.05"/>
</g>
<!-- packages/music&#45;structure/melody/melody&#45;analyze/src/time&#45;and&#45;melody.ts -->
<g id="node18" class="node">
<title>packages/music&#45;structure/melody/melody&#45;analyze/src/time&#45;and&#45;melody.ts</title>
<g id="a_node18"><a xlink:href="packages/music-structure/melody/melody-analyze/src/time-and-melody.ts" xlink:title="time&#45;and&#45;melody.ts">
<path fill="#ddfeff" stroke="black" d="M705.5,-288C705.5,-288 614.5,-288 614.5,-288 611.5,-288 608.5,-285 608.5,-282 608.5,-282 608.5,-276 608.5,-276 608.5,-273 611.5,-270 614.5,-270 614.5,-270 705.5,-270 705.5,-270 708.5,-270 711.5,-273 711.5,-276 711.5,-276 711.5,-282 711.5,-282 711.5,-285 708.5,-288 705.5,-288"/>
<text text-anchor="start" x="616.5" y="-276.8" font-family="Helvetica,sans-Serif" font-size="9.00">time&#45;and&#45;melody.ts</text>
</a>
</g>
</g>
<!-- packages/music&#45;structure/melody/melody&#45;analyze/src/interfaces.ts&#45;&gt;packages/music&#45;structure/melody/melody&#45;analyze/src/time&#45;and&#45;melody.ts -->
<g id="edge20" class="edge">
<title>packages/music&#45;structure/melody/melody&#45;analyze/src/interfaces.ts&#45;&gt;packages/music&#45;structure/melody/melody&#45;analyze/src/time&#45;and&#45;melody.ts</title>
<path fill="none" stroke="#000000" stroke-width="2" stroke-opacity="0.200000" d="M544.25,-327.94C567.86,-317.87 606.06,-301.58 631.83,-290.59"/>
<polygon fill="#000000" fill-opacity="0.200000" stroke="#000000" stroke-width="2" stroke-opacity="0.200000" points="638.27,-290.12 631.93,-290.54 636.63,-286.26 638.27,-290.12"/>
</g>
<!-- packages/music&#45;structure/melody/melody&#45;analyze/src/register&#45;gravity.ts&#45;&gt;packages/music&#45;structure/melody/melody&#45;analyze/src/interfaces.ts -->
<g id="edge24" class="edge">
<title>packages/music&#45;structure/melody/melody&#45;analyze/src/register&#45;gravity.ts&#45;&gt;packages/music&#45;structure/melody/melody&#45;analyze/src/interfaces.ts</title>
<path fill="none" stroke="#000000" stroke-width="2" stroke-opacity="0.200000" d="M435.54,-337C449.83,-337 465.45,-337 479.39,-337"/>
<polygon fill="#000000" fill-opacity="0.200000" stroke="#000000" stroke-width="2" stroke-opacity="0.200000" points="479.67,-339.1 485.67,-337 479.67,-334.9 479.67,-339.1"/>
</g>
<!-- packages/music&#45;structure/melody/melody&#45;analyze/src/register&#45;gravity.ts&#45;&gt;packages/tonal&#45;objects/dist/index.js -->
<g id="edge26" class="edge">
<title>packages/music&#45;structure/melody/melody&#45;analyze/src/register&#45;gravity.ts&#45;&gt;packages/tonal&#45;objects/dist/index.js</title>
<path fill="none" stroke="#000000" stroke-width="2" stroke-opacity="0.200000" d="M400.09,-346.17C459.46,-391.23 720.11,-589.06 789.81,-641.95"/>
<polygon fill="#000000" fill-opacity="0.200000" stroke="#000000" stroke-width="2" stroke-opacity="0.200000" points="788.81,-643.83 794.86,-645.79 791.35,-640.49 788.81,-643.83"/>
</g>
<!-- packages/util/math/dist/index.js -->
<g id="node19" class="node">
<title>packages/util/math/dist/index.js</title>
<g id="a_node19"><a xlink:href="packages/util/math/dist/index.js" xlink:title="index.js">
<polygon fill="#ffffcc" stroke="black" points="969.5,-58 968,-60 957.5,-60 956,-58 915.5,-58 915.5,-40 969.5,-40 969.5,-58"/>
<text text-anchor="start" x="925" y="-46.8" font-family="Helvetica,sans-Serif" font-size="9.00">index.js</text>
</a>
</g>
</g>
<!-- packages/music&#45;structure/melody/melody&#45;analyze/src/register&#45;gravity.ts&#45;&gt;packages/util/math/dist/index.js -->
<g id="edge25" class="edge">
<title>packages/music&#45;structure/melody/melody&#45;analyze/src/register&#45;gravity.ts&#45;&gt;packages/util/math/dist/index.js</title>
<path fill="none" stroke="#000000" stroke-width="2" stroke-opacity="0.200000" d="M405.51,-327.91C486.83,-285.67 827.57,-108.69 919.54,-60.93"/>
<polygon fill="#000000" fill-opacity="0.200000" stroke="#000000" stroke-width="2" stroke-opacity="0.200000" points="920.63,-62.73 924.98,-58.1 918.69,-59 920.63,-62.73"/>
</g>
<!-- packages/music&#45;structure/melody/melody&#45;analyze/src/get&#45;time&#45;and&#45;chord.ts -->
<g id="node10" class="node">
<title>packages/music&#45;structure/melody/melody&#45;analyze/src/get&#45;time&#45;and&#45;chord.ts</title>
<g id="a_node10"><a xlink:href="packages/music-structure/melody/melody-analyze/src/get-time-and-chord.ts" xlink:title="get&#45;time&#45;and&#45;chord.ts">
<path fill="#ddfeff" stroke="black" d="M440,-390C440,-390 336,-390 336,-390 333,-390 330,-387 330,-384 330,-384 330,-378 330,-378 330,-375 333,-372 336,-372 336,-372 440,-372 440,-372 443,-372 446,-375 446,-378 446,-378 446,-384 446,-384 446,-387 443,-390 440,-390"/>
<text text-anchor="start" x="338" y="-378.8" font-family="Helvetica,sans-Serif" font-size="9.00">get&#45;time&#45;and&#45;chord.ts</text>
</a>
</g>
</g>
<!-- packages/music&#45;structure/melody/melody&#45;analyze/src/get&#45;time&#45;and&#45;chord.ts&#45;&gt;packages/music&#45;structure/chord/chord&#45;analyze/dist/index.js -->
<g id="edge8" class="edge">
<title>packages/music&#45;structure/melody/melody&#45;analyze/src/get&#45;time&#45;and&#45;chord.ts&#45;&gt;packages/music&#45;structure/chord/chord&#45;analyze/dist/index.js</title>
<path fill="none" stroke="#000000" stroke-width="2" stroke-opacity="0.200000" d="M398.49,-390.21C421.52,-412.53 480.4,-469.63 507.26,-495.68"/>
<polygon fill="#000000" fill-opacity="0.200000" stroke="#000000" stroke-width="2" stroke-opacity="0.200000" points="505.82,-497.21 511.59,-499.88 508.75,-494.19 505.82,-497.21"/>
</g>
<!-- packages/music&#45;structure/melody/melody&#45;analyze/src/get&#45;time&#45;and&#45;chord.ts&#45;&gt;packages/music&#45;structure/melody/melody&#45;analyze/src/interfaces.ts -->
<g id="edge7" class="edge">
<title>packages/music&#45;structure/melody/melody&#45;analyze/src/get&#45;time&#45;and&#45;chord.ts&#45;&gt;packages/music&#45;structure/melody/melody&#45;analyze/src/interfaces.ts</title>
<path fill="none" stroke="#000000" stroke-width="2" stroke-opacity="0.200000" d="M416.03,-371.99C436.8,-365.07 465.6,-355.47 487.78,-348.07"/>
<polygon fill="#000000" fill-opacity="0.200000" stroke="#000000" stroke-width="2" stroke-opacity="0.200000" points="488.52,-350.04 493.55,-346.15 487.2,-346.05 488.52,-350.04"/>
</g>
<!-- packages/music&#45;structure/melody/melody&#45;analyze/src/get&#45;time&#45;and&#45;chord.ts&#45;&gt;packages/tonal&#45;objects/dist/index.js -->
<g id="edge9" class="edge">
<title>packages/music&#45;structure/melody/melody&#45;analyze/src/get&#45;time&#45;and&#45;chord.ts&#45;&gt;packages/tonal&#45;objects/dist/index.js</title>
<path fill="none" stroke="#000000" stroke-width="2" stroke-opacity="0.200000" d="M401.94,-390.12C464.08,-430.75 715.89,-595.42 787.76,-642.42"/>
<polygon fill="#000000" fill-opacity="0.200000" stroke="#000000" stroke-width="2" stroke-opacity="0.200000" points="786.84,-644.32 793.01,-645.85 789.13,-640.81 786.84,-644.32"/>
</g>
<!-- packages/music&#45;structure/melody/melody&#45;analyze/src/get&#45;time&#45;and&#45;melody.ts&#45;&gt;packages/music&#45;structure/melody/melody&#45;analyze/src/interfaces.ts -->
<g id="edge10" class="edge">
<title>packages/music&#45;structure/melody/melody&#45;analyze/src/get&#45;time&#45;and&#45;melody.ts&#45;&gt;packages/music&#45;structure/melody/melody&#45;analyze/src/interfaces.ts</title>
<path fill="none" stroke="#000000" stroke-width="2" stroke-opacity="0.200000" d="M310.87,-302.01C360.96,-310.31 434.25,-322.46 479.98,-330.04"/>
<polygon fill="#000000" fill-opacity="0.200000" stroke="#000000" stroke-width="2" stroke-opacity="0.200000" points="479.71,-332.12 485.97,-331.03 480.4,-327.98 479.71,-332.12"/>
</g>
<!-- packages/util/time&#45;and/dist/index.js -->
<g id="node12" class="node">
<title>packages/util/time&#45;and/dist/index.js</title>
<g id="a_node12"><a xlink:href="packages/util/time-and/dist/index.js" xlink:title="index.js">
<polygon fill="#ffffcc" stroke="black" points="969.5,-152 968,-154 957.5,-154 956,-152 915.5,-152 915.5,-134 969.5,-134 969.5,-152"/>
<text text-anchor="start" x="925" y="-140.8" font-family="Helvetica,sans-Serif" font-size="9.00">index.js</text>
</a>
</g>
</g>
<!-- packages/music&#45;structure/melody/melody&#45;analyze/src/get&#45;time&#45;and&#45;melody.ts&#45;&gt;packages/util/time&#45;and/dist/index.js -->
<g id="edge11" class="edge">
<title>packages/music&#45;structure/melody/melody&#45;analyze/src/get&#45;time&#45;and&#45;melody.ts&#45;&gt;packages/util/time&#45;and/dist/index.js</title>
<path fill="none" stroke="#000000" stroke-width="2" stroke-opacity="0.200000" d="M297.87,-283.95C422.96,-256.6 795.61,-175.12 909.24,-150.27"/>
<polygon fill="#000000" fill-opacity="0.200000" stroke="#000000" stroke-width="2" stroke-opacity="0.200000" points="909.99,-152.26 915.4,-148.92 909.09,-148.16 909.99,-152.26"/>
</g>
<!-- packages/music&#45;structure/melody/melody&#45;analyze/src/melody&#45;analysis.ts&#45;&gt;packages/cognitive&#45;theory&#45;of&#45;music/irm/dist/index.js -->
<g id="edge23" class="edge">
<title>packages/music&#45;structure/melody/melody&#45;analyze/src/melody&#45;analysis.ts&#45;&gt;packages/cognitive&#45;theory&#45;of&#45;music/irm/dist/index.js</title>
<path fill="none" stroke="#000000" stroke-width="2" stroke-opacity="0.200000" d="M947.97,-390.06C968.06,-430.83 1050.18,-597.42 1075.22,-648.22"/>
<polygon fill="#000000" fill-opacity="0.200000" stroke="#000000" stroke-width="2" stroke-opacity="0.200000" points="1073.44,-649.38 1077.98,-653.83 1077.21,-647.52 1073.44,-649.38"/>
</g>
<!-- packages/music&#45;structure/melody/melody&#45;analyze/src/melody&#45;analysis.ts&#45;&gt;packages/music&#45;structure/melody/melody&#45;analyze/src/gravity.ts -->
<g id="edge22" class="edge">
<title>packages/music&#45;structure/melody/melody&#45;analyze/src/melody&#45;analysis.ts&#45;&gt;packages/music&#45;structure/melody/melody&#45;analyze/src/gravity.ts</title>
<path fill="none" stroke="#000000" stroke-width="2" stroke-opacity="0.200000" d="M992.12,-377.15C1010.66,-375.68 1031.4,-374.04 1048.32,-372.7"/>
<polygon fill="#000000" fill-opacity="0.200000" stroke="#000000" stroke-width="2" stroke-opacity="0.200000" points="1048.56,-374.79 1054.38,-372.23 1048.23,-370.61 1048.56,-374.79"/>
</g>
<!-- packages/music&#45;structure/melody/melody&#45;analyze/src/melody&#45;analysis&#45;data.ts&#45;&gt;packages/music&#45;structure/melody/melody&#45;analyze/src/time&#45;and&#45;analyzed&#45;melody.ts -->
<g id="edge21" class="edge">
<title>packages/music&#45;structure/melody/melody&#45;analyze/src/melody&#45;analysis&#45;data.ts&#45;&gt;packages/music&#45;structure/melody/melody&#45;analyze/src/time&#45;and&#45;analyzed&#45;melody.ts</title>
<path fill="none" stroke="#000000" stroke-width="2" stroke-opacity="0.200000" d="M704.5,-344C720.78,-340.63 739.38,-336.78 756.18,-333.31"/>
<polygon fill="#000000" fill-opacity="0.200000" stroke="#000000" stroke-width="2" stroke-opacity="0.200000" points="756.83,-335.32 762.28,-332.05 755.97,-331.21 756.83,-335.32"/>
</g>
<!-- packages/music&#45;structure/melody/melody&#45;analyze/src/time&#45;and&#45;analyzed&#45;melody.ts&#45;&gt;packages/util/time&#45;and/dist/index.js -->
<g id="edge28" class="edge">
<title>packages/music&#45;structure/melody/melody&#45;analyze/src/time&#45;and&#45;analyzed&#45;melody.ts&#45;&gt;packages/util/time&#45;and/dist/index.js</title>
<path fill="none" stroke="#000000" stroke-width="2" stroke-opacity="0.200000" d="M814.8,-313.83C836.49,-284.58 904.12,-193.4 930.66,-157.62"/>
<polygon fill="#000000" fill-opacity="0.200000" stroke="#000000" stroke-width="2" stroke-opacity="0.200000" points="932.66,-158.44 934.55,-152.37 929.29,-155.94 932.66,-158.44"/>
</g>
<!-- packages/music&#45;structure/melody/melody&#45;analyze/src/time&#45;and&#45;analyzed&#45;melody.ts&#45;&gt;packages/music&#45;structure/melody/melody&#45;analyze/src/melody&#45;analysis.ts -->
<g id="edge27" class="edge">
<title>packages/music&#45;structure/melody/melody&#45;analyze/src/time&#45;and&#45;analyzed&#45;melody.ts&#45;&gt;packages/music&#45;structure/melody/melody&#45;analyze/src/melody&#45;analysis.ts</title>
<path fill="none" stroke="#000000" stroke-width="2" stroke-opacity="0.200000" d="M828.86,-332.06C852.04,-342.13 889.53,-358.42 914.83,-369.41"/>
<polygon fill="#000000" fill-opacity="0.200000" stroke="#000000" stroke-width="2" stroke-opacity="0.200000" points="914.01,-371.34 920.35,-371.81 915.68,-367.49 914.01,-371.34"/>
</g>
<!-- packages/music&#45;structure/melody/melody&#45;analyze/src/time&#45;and&#45;chord.ts&#45;&gt;packages/tonal&#45;objects/dist/index.js -->
<g id="edge30" class="edge">
<title>packages/music&#45;structure/melody/melody&#45;analyze/src/time&#45;and&#45;chord.ts&#45;&gt;packages/tonal&#45;objects/dist/index.js</title>
<path fill="none" stroke="#000000" stroke-width="2" stroke-opacity="0.200000" d="M665.03,-332.23C685.15,-378.3 774.79,-583.53 799.61,-640.37"/>
<polygon fill="#000000" fill-opacity="0.200000" stroke="#000000" stroke-width="2" stroke-opacity="0.200000" points="797.73,-641.32 802.06,-645.97 801.58,-639.64 797.73,-641.32"/>
</g>
<!-- packages/music&#45;structure/melody/melody&#45;analyze/src/time&#45;and&#45;chord.ts&#45;&gt;packages/util/time&#45;and/dist/index.js -->
<g id="edge29" class="edge">
<title>packages/music&#45;structure/melody/melody&#45;analyze/src/time&#45;and&#45;chord.ts&#45;&gt;packages/util/time&#45;and/dist/index.js</title>
<path fill="none" stroke="#000000" stroke-width="2" stroke-opacity="0.200000" d="M674.4,-313.83C721.25,-283.97 869.42,-189.57 922.96,-155.45"/>
<polygon fill="#000000" fill-opacity="0.200000" stroke="#000000" stroke-width="2" stroke-opacity="0.200000" points="924.2,-157.15 928.13,-152.16 921.94,-153.61 924.2,-157.15"/>
</g>
<!-- packages/music&#45;structure/melody/melody&#45;analyze/src/time&#45;and&#45;melody.ts&#45;&gt;packages/util/time&#45;and/dist/index.js -->
<g id="edge31" class="edge">
<title>packages/music&#45;structure/melody/melody&#45;analyze/src/time&#45;and&#45;melody.ts&#45;&gt;packages/util/time&#45;and/dist/index.js</title>
<path fill="none" stroke="#000000" stroke-width="2" stroke-opacity="0.200000" d="M678.97,-269.87C728.73,-245.91 862.92,-181.31 918.2,-154.7"/>
<polygon fill="#000000" fill-opacity="0.200000" stroke="#000000" stroke-width="2" stroke-opacity="0.200000" points="919.11,-156.59 923.61,-152.09 917.29,-152.81 919.11,-156.59"/>
</g>
</g>
</svg>
