<?xml version="1.0" encoding="UTF-8" standalone="no"?>
<!DOCTYPE svg PUBLIC "-//W3C//DTD SVG 1.1//EN"
 "http://www.w3.org/Graphics/SVG/1.1/DTD/svg11.dtd">
<!-- Generated by graphviz version 2.43.0 (0)
 -->
<!-- Title: dependency&#45;cruiser output Pages: 1 -->
<svg width="809pt" height="802pt"
 viewBox="0.00 0.00 809.00 802.00" xmlns="http://www.w3.org/2000/svg" xmlns:xlink="http://www.w3.org/1999/xlink">
<g id="graph0" class="graph" transform="scale(1 1) rotate(0) translate(4 798)">
<title>dependency&#45;cruiser output</title>
<polygon fill="white" stroke="transparent" points="-4,4 -4,-798 805,-798 805,4 -4,4"/>
<g id="clust1" class="cluster">
<title>cluster_packages</title>
<path fill="#ffffff" stroke="black" stroke-width="2" d="M20,-8C20,-8 789,-8 789,-8 795,-8 801,-14 801,-20 801,-20 801,-774 801,-774 801,-780 795,-786 789,-786 789,-786 20,-786 20,-786 14,-786 8,-780 8,-774 8,-774 8,-20 8,-20 8,-14 14,-8 20,-8"/>
<text text-anchor="middle" x="404.5" y="-774.8" font-family="Helvetica,sans-Serif" font-weight="bold" font-size="9.00">packages</text>
</g>
<g id="clust2" class="cluster">
<title>cluster_packages/cognitive&#45;theory&#45;of&#45;music</title>
<path fill="#ffffff" stroke="black" stroke-width="2" d="M656,-324C656,-324 781,-324 781,-324 787,-324 793,-330 793,-336 793,-336 793,-432 793,-432 793,-438 787,-444 781,-444 781,-444 656,-444 656,-444 650,-444 644,-438 644,-432 644,-432 644,-336 644,-336 644,-330 650,-324 656,-324"/>
<text text-anchor="middle" x="718.5" y="-432.8" font-family="Helvetica,sans-Serif" font-weight="bold" font-size="9.00">cognitive&#45;theory&#45;of&#45;music</text>
</g>
<g id="clust3" class="cluster">
<title>cluster_packages/cognitive&#45;theory&#45;of&#45;music/irm</title>
<path fill="#ffffff" stroke="black" stroke-width="2" d="M687,-332C687,-332 749,-332 749,-332 755,-332 761,-338 761,-344 761,-344 761,-406 761,-406 761,-412 755,-418 749,-418 749,-418 687,-418 687,-418 681,-418 675,-412 675,-406 675,-406 675,-344 675,-344 675,-338 681,-332 687,-332"/>
<text text-anchor="middle" x="718" y="-406.8" font-family="Helvetica,sans-Serif" font-weight="bold" font-size="9.00">irm</text>
</g>
<g id="clust4" class="cluster">
<title>cluster_packages/cognitive&#45;theory&#45;of&#45;music/irm/dist</title>
<path fill="#ffffff" stroke="black" stroke-width="2" d="M695,-340C695,-340 741,-340 741,-340 747,-340 753,-346 753,-352 753,-352 753,-380 753,-380 753,-386 747,-392 741,-392 741,-392 695,-392 695,-392 689,-392 683,-386 683,-380 683,-380 683,-352 683,-352 683,-346 689,-340 695,-340"/>
<text text-anchor="middle" x="718" y="-380.8" font-family="Helvetica,sans-Serif" font-weight="bold" font-size="9.00">dist</text>
</g>
<g id="clust5" class="cluster">
<title>cluster_packages/music&#45;structure</title>
<path fill="#ffffff" stroke="black" stroke-width="2" d="M28,-16C28,-16 767,-16 767,-16 773,-16 779,-22 779,-28 779,-28 779,-304 779,-304 779,-310 773,-316 767,-316 767,-316 28,-316 28,-316 22,-316 16,-310 16,-304 16,-304 16,-28 16,-28 16,-22 22,-16 28,-16"/>
<text text-anchor="middle" x="397.5" y="-304.8" font-family="Helvetica,sans-Serif" font-weight="bold" font-size="9.00">music&#45;structure</text>
</g>
<g id="clust6" class="cluster">
<title>cluster_packages/music&#45;structure/chord</title>
<path fill="#ffffff" stroke="black" stroke-width="2" d="M678,-118C678,-118 759,-118 759,-118 765,-118 771,-124 771,-130 771,-130 771,-226 771,-226 771,-232 765,-238 759,-238 759,-238 678,-238 678,-238 672,-238 666,-232 666,-226 666,-226 666,-130 666,-130 666,-124 672,-118 678,-118"/>
<text text-anchor="middle" x="718.5" y="-226.8" font-family="Helvetica,sans-Serif" font-weight="bold" font-size="9.00">chord</text>
</g>
<g id="clust7" class="cluster">
<title>cluster_packages/music&#45;structure/chord/chord&#45;analyze</title>
<path fill="#ffffff" stroke="black" stroke-width="2" d="M686,-126C686,-126 751,-126 751,-126 757,-126 763,-132 763,-138 763,-138 763,-200 763,-200 763,-206 757,-212 751,-212 751,-212 686,-212 686,-212 680,-212 674,-206 674,-200 674,-200 674,-138 674,-138 674,-132 680,-126 686,-126"/>
<text text-anchor="middle" x="718.5" y="-200.8" font-family="Helvetica,sans-Serif" font-weight="bold" font-size="9.00">chord&#45;analyze</text>
</g>
<g id="clust8" class="cluster">
<title>cluster_packages/music&#45;structure/chord/chord&#45;analyze/dist</title>
<path fill="#ffffff" stroke="black" stroke-width="2" d="M695,-134C695,-134 741,-134 741,-134 747,-134 753,-140 753,-146 753,-146 753,-174 753,-174 753,-180 747,-186 741,-186 741,-186 695,-186 695,-186 689,-186 683,-180 683,-174 683,-174 683,-146 683,-146 683,-140 689,-134 695,-134"/>
<text text-anchor="middle" x="718" y="-174.8" font-family="Helvetica,sans-Serif" font-weight="bold" font-size="9.00">dist</text>
</g>
<g id="clust9" class="cluster">
<title>cluster_packages/music&#45;structure/melody</title>
<path fill="#ffffff" stroke="black" stroke-width="2" d="M36,-24C36,-24 616,-24 616,-24 622,-24 628,-30 628,-36 628,-36 628,-278 628,-278 628,-284 622,-290 616,-290 616,-290 36,-290 36,-290 30,-290 24,-284 24,-278 24,-278 24,-36 24,-36 24,-30 30,-24 36,-24"/>
<text text-anchor="middle" x="326" y="-278.8" font-family="Helvetica,sans-Serif" font-weight="bold" font-size="9.00">melody</text>
</g>
<g id="clust10" class="cluster">
<title>cluster_packages/music&#45;structure/melody/melody&#45;analyze</title>
<path fill="#ffffff" stroke="black" stroke-width="2" d="M44,-32C44,-32 608,-32 608,-32 614,-32 620,-38 620,-44 620,-44 620,-252 620,-252 620,-258 614,-264 608,-264 608,-264 44,-264 44,-264 38,-264 32,-258 32,-252 32,-252 32,-44 32,-44 32,-38 38,-32 44,-32"/>
<text text-anchor="middle" x="326" y="-252.8" font-family="Helvetica,sans-Serif" font-weight="bold" font-size="9.00">melody&#45;analyze</text>
</g>
<g id="clust11" class="cluster">
<title>cluster_packages/music&#45;structure/melody/melody&#45;analyze/src</title>
<path fill="#ffffff" stroke="black" stroke-width="2" d="M133,-40C133,-40 600,-40 600,-40 606,-40 612,-46 612,-52 612,-52 612,-226 612,-226 612,-232 606,-238 600,-238 600,-238 133,-238 133,-238 127,-238 121,-232 121,-226 121,-226 121,-52 121,-52 121,-46 127,-40 133,-40"/>
<text text-anchor="middle" x="366.5" y="-226.8" font-family="Helvetica,sans-Serif" font-weight="bold" font-size="9.00">src</text>
</g>
<g id="clust12" class="cluster">
<title>cluster_packages/music&#45;structure/melody/melody&#45;analyze/src/facade</title>
<path fill="#ffffff" stroke="black" stroke-width="2" d="M546,-134C546,-134 592,-134 592,-134 598,-134 604,-140 604,-146 604,-146 604,-174 604,-174 604,-180 598,-186 592,-186 592,-186 546,-186 546,-186 540,-186 534,-180 534,-174 534,-174 534,-146 534,-146 534,-140 540,-134 546,-134"/>
<text text-anchor="middle" x="569" y="-174.8" font-family="Helvetica,sans-Serif" font-weight="bold" font-size="9.00">facade</text>
</g>
<g id="clust13" class="cluster">
<title>cluster_packages/tonal&#45;objects</title>
<path fill="#ffffff" stroke="black" stroke-width="2" d="M687,-674C687,-674 749,-674 749,-674 755,-674 761,-680 761,-686 761,-686 761,-748 761,-748 761,-754 755,-760 749,-760 749,-760 687,-760 687,-760 681,-760 675,-754 675,-748 675,-748 675,-686 675,-686 675,-680 681,-674 687,-674"/>
<text text-anchor="middle" x="718" y="-748.8" font-family="Helvetica,sans-Serif" font-weight="bold" font-size="9.00">tonal&#45;objects</text>
</g>
<g id="clust14" class="cluster">
<title>cluster_packages/tonal&#45;objects/dist</title>
<path fill="#ffffff" stroke="black" stroke-width="2" d="M695,-682C695,-682 741,-682 741,-682 747,-682 753,-688 753,-694 753,-694 753,-722 753,-722 753,-728 747,-734 741,-734 741,-734 695,-734 695,-734 689,-734 683,-728 683,-722 683,-722 683,-694 683,-694 683,-688 689,-682 695,-682"/>
<text text-anchor="middle" x="718" y="-722.8" font-family="Helvetica,sans-Serif" font-weight="bold" font-size="9.00">dist</text>
</g>
<g id="clust15" class="cluster">
<title>cluster_packages/util</title>
<path fill="#ffffff" stroke="black" stroke-width="2" d="M679,-452C679,-452 757,-452 757,-452 763,-452 769,-458 769,-464 769,-464 769,-654 769,-654 769,-660 763,-666 757,-666 757,-666 679,-666 679,-666 673,-666 667,-660 667,-654 667,-654 667,-464 667,-464 667,-458 673,-452 679,-452"/>
<text text-anchor="middle" x="718" y="-654.8" font-family="Helvetica,sans-Serif" font-weight="bold" font-size="9.00">util</text>
</g>
<g id="clust16" class="cluster">
<title>cluster_packages/util/math</title>
<path fill="#ffffff" stroke="black" stroke-width="2" d="M687,-554C687,-554 749,-554 749,-554 755,-554 761,-560 761,-566 761,-566 761,-628 761,-628 761,-634 755,-640 749,-640 749,-640 687,-640 687,-640 681,-640 675,-634 675,-628 675,-628 675,-566 675,-566 675,-560 681,-554 687,-554"/>
<text text-anchor="middle" x="718" y="-628.8" font-family="Helvetica,sans-Serif" font-weight="bold" font-size="9.00">math</text>
</g>
<g id="clust17" class="cluster">
<title>cluster_packages/util/math/dist</title>
<path fill="#ffffff" stroke="black" stroke-width="2" d="M695,-562C695,-562 741,-562 741,-562 747,-562 753,-568 753,-574 753,-574 753,-602 753,-602 753,-608 747,-614 741,-614 741,-614 695,-614 695,-614 689,-614 683,-608 683,-602 683,-602 683,-574 683,-574 683,-568 689,-562 695,-562"/>
<text text-anchor="middle" x="718" y="-602.8" font-family="Helvetica,sans-Serif" font-weight="bold" font-size="9.00">dist</text>
</g>
<g id="clust18" class="cluster">
<title>cluster_packages/util/time&#45;and</title>
<path fill="#ffffff" stroke="black" stroke-width="2" d="M687,-460C687,-460 749,-460 749,-460 755,-460 761,-466 761,-472 761,-472 761,-534 761,-534 761,-540 755,-546 749,-546 749,-546 687,-546 687,-546 681,-546 675,-540 675,-534 675,-534 675,-472 675,-472 675,-466 681,-460 687,-460"/>
<text text-anchor="middle" x="718" y="-534.8" font-family="Helvetica,sans-Serif" font-weight="bold" font-size="9.00">time&#45;and</text>
</g>
<g id="clust19" class="cluster">
<title>cluster_packages/util/time&#45;and/dist</title>
<path fill="#ffffff" stroke="black" stroke-width="2" d="M695,-468C695,-468 741,-468 741,-468 747,-468 753,-474 753,-480 753,-480 753,-508 753,-508 753,-514 747,-520 741,-520 741,-520 695,-520 695,-520 689,-520 683,-514 683,-508 683,-508 683,-480 683,-480 683,-474 689,-468 695,-468"/>
<text text-anchor="middle" x="718" y="-508.8" font-family="Helvetica,sans-Serif" font-weight="bold" font-size="9.00">dist</text>
</g>
<!-- packages/cognitive&#45;theory&#45;of&#45;music/irm/dist/index.js -->
<g id="node1" class="node">
<title>packages/cognitive&#45;theory&#45;of&#45;music/irm/dist/index.js</title>
<g id="a_node1"><a xlink:href="packages/cognitive-theory-of-music/irm/dist/index.js" xlink:title="index.js">
<polygon fill="#ffffcc" stroke="black" points="745,-366 743.5,-368 733,-368 731.5,-366 691,-366 691,-348 745,-348 745,-366"/>
<text text-anchor="start" x="700.5" y="-354.8" font-family="Helvetica,sans-Serif" font-size="9.00">index.js</text>
</a>
</g>
</g>
<!-- packages/music&#45;structure/chord/chord&#45;analyze/dist/index.js -->
<g id="node2" class="node">
<title>packages/music&#45;structure/chord/chord&#45;analyze/dist/index.js</title>
<g id="a_node2"><a xlink:href="packages/music-structure/chord/chord-analyze/dist/index.js" xlink:title="index.js">
<polygon fill="#ffffcc" stroke="black" points="745,-160 743.5,-162 733,-162 731.5,-160 691,-160 691,-142 745,-142 745,-160"/>
<text text-anchor="start" x="700.5" y="-148.8" font-family="Helvetica,sans-Serif" font-size="9.00">index.js</text>
</a>
</g>
</g>
<!-- packages/music&#45;structure/melody/melody&#45;analyze/index.test.ts -->
<g id="node3" class="node">
<title>packages/music&#45;structure/melody/melody&#45;analyze/index.test.ts</title>
<g id="a_node3"><a xlink:href="packages/music-structure/melody/melody-analyze/index.test.ts" xlink:title="no&#45;orphans">
<path fill="#ccffcc" stroke="orange" d="M107,-235C107,-235 46,-235 46,-235 43,-235 40,-232 40,-229 40,-229 40,-223 40,-223 40,-220 43,-217 46,-217 46,-217 107,-217 107,-217 110,-217 113,-220 113,-223 113,-223 113,-229 113,-229 113,-232 110,-235 107,-235"/>
<text text-anchor="start" x="48" y="-223.8" font-family="Helvetica,sans-Serif" font-size="9.00" fill="orange">index.test.ts</text>
</a>
</g>
</g>
<!-- packages/music&#45;structure/melody/melody&#45;analyze/index.ts -->
<g id="node4" class="node">
<title>packages/music&#45;structure/melody/melody&#45;analyze/index.ts</title>
<g id="a_node4"><a xlink:href="packages/music-structure/melody/melody-analyze/index.ts" xlink:title="index.ts">
<path fill="#ddfeff" stroke="black" d="M97.5,-202C97.5,-202 55.5,-202 55.5,-202 52.5,-202 49.5,-199 49.5,-196 49.5,-196 49.5,-190 49.5,-190 49.5,-187 52.5,-184 55.5,-184 55.5,-184 97.5,-184 97.5,-184 100.5,-184 103.5,-187 103.5,-190 103.5,-190 103.5,-196 103.5,-196 103.5,-199 100.5,-202 97.5,-202"/>
<text text-anchor="start" x="58" y="-190.8" font-family="Helvetica,sans-Serif" font-size="9.00">index.ts</text>
</a>
</g>
</g>
<!-- packages/music&#45;structure/melody/melody&#45;analyze/src/analyze&#45;melody.ts -->
<g id="node5" class="node">
<title>packages/music&#45;structure/melody/melody&#45;analyze/src/analyze&#45;melody.ts</title>
<g id="a_node5"><a xlink:href="packages/music-structure/melody/melody-analyze/src/analyze-melody.ts" xlink:title="analyze&#45;melody.ts">
<path fill="#ddfeff" stroke="black" d="M232,-133C232,-133 148,-133 148,-133 145,-133 142,-130 142,-127 142,-127 142,-121 142,-121 142,-118 145,-115 148,-115 148,-115 232,-115 232,-115 235,-115 238,-118 238,-121 238,-121 238,-127 238,-127 238,-130 235,-133 232,-133"/>
<text text-anchor="start" x="150" y="-121.8" font-family="Helvetica,sans-Serif" font-size="9.00">analyze&#45;melody.ts</text>
</a>
</g>
</g>
<!-- packages/music&#45;structure/melody/melody&#45;analyze/index.ts&#45;&gt;packages/music&#45;structure/melody/melody&#45;analyze/src/analyze&#45;melody.ts -->
<g id="edge1" class="edge">
<title>packages/music&#45;structure/melody/melody&#45;analyze/index.ts&#45;&gt;packages/music&#45;structure/melody/melody&#45;analyze/src/analyze&#45;melody.ts</title>
<path fill="none" stroke="#000000" stroke-width="2" stroke-opacity="0.200000" d="M85.48,-183.65C98.04,-168.92 121,-142 121,-142 121,-142 134.04,-138.55 148.7,-134.67"/>
<polygon fill="#000000" fill-opacity="0.200000" stroke="#000000" stroke-width="2" stroke-opacity="0.200000" points="155.14,-135.14 148.8,-134.64 154.06,-131.08 155.14,-135.14"/>
</g>
<!-- packages/music&#45;structure/melody/melody&#45;analyze/src/get&#45;time&#45;and&#45;melody.ts -->
<g id="node6" class="node">
<title>packages/music&#45;structure/melody/melody&#45;analyze/src/get&#45;time&#45;and&#45;melody.ts</title>
<g id="a_node6"><a xlink:href="packages/music-structure/melody/melody-analyze/src/get-time-and-melody.ts" xlink:title="get&#45;time&#45;and&#45;melody.ts">
<path fill="#ddfeff" stroke="black" d="M391.5,-196C391.5,-196 282.5,-196 282.5,-196 279.5,-196 276.5,-193 276.5,-190 276.5,-190 276.5,-184 276.5,-184 276.5,-181 279.5,-178 282.5,-178 282.5,-178 391.5,-178 391.5,-178 394.5,-178 397.5,-181 397.5,-184 397.5,-184 397.5,-190 397.5,-190 397.5,-193 394.5,-196 391.5,-196"/>
<text text-anchor="start" x="284.5" y="-184.8" font-family="Helvetica,sans-Serif" font-size="9.00">get&#45;time&#45;and&#45;melody.ts</text>
</a>
</g>
</g>
<!-- packages/music&#45;structure/melody/melody&#45;analyze/index.ts&#45;&gt;packages/music&#45;structure/melody/melody&#45;analyze/src/get&#45;time&#45;and&#45;melody.ts -->
<g id="edge2" class="edge">
<title>packages/music&#45;structure/melody/melody&#45;analyze/index.ts&#45;&gt;packages/music&#45;structure/melody/melody&#45;analyze/src/get&#45;time&#45;and&#45;melody.ts</title>
<path fill="none" stroke="#000000" stroke-width="2" stroke-opacity="0.200000" d="M103.71,-192.39C142.46,-191.49 216.26,-189.78 270.31,-188.52"/>
<polygon fill="#000000" fill-opacity="0.200000" stroke="#000000" stroke-width="2" stroke-opacity="0.200000" points="276.52,-190.48 270.47,-188.52 276.42,-186.28 276.52,-190.48"/>
</g>
<!-- packages/music&#45;structure/melody/melody&#45;analyze/src/gravity.ts -->
<g id="node7" class="node">
<title>packages/music&#45;structure/melody/melody&#45;analyze/src/gravity.ts</title>
<g id="a_node7"><a xlink:href="packages/music-structure/melody/melody-analyze/src/gravity.ts" xlink:title="gravity.ts">
<path fill="#ddfeff" stroke="black" d="M592,-212C592,-212 546,-212 546,-212 543,-212 540,-209 540,-206 540,-206 540,-200 540,-200 540,-197 543,-194 546,-194 546,-194 592,-194 592,-194 595,-194 598,-197 598,-200 598,-200 598,-206 598,-206 598,-209 595,-212 592,-212"/>
<text text-anchor="start" x="548" y="-200.8" font-family="Helvetica,sans-Serif" font-size="9.00">gravity.ts</text>
</a>
</g>
</g>
<!-- packages/music&#45;structure/melody/melody&#45;analyze/index.ts&#45;&gt;packages/music&#45;structure/melody/melody&#45;analyze/src/gravity.ts -->
<g id="edge3" class="edge">
<title>packages/music&#45;structure/melody/melody&#45;analyze/index.ts&#45;&gt;packages/music&#45;structure/melody/melody&#45;analyze/src/gravity.ts</title>
<path fill="none" stroke="#000000" stroke-width="2" stroke-opacity="0.200000" d="M95.67,-202.21C104.4,-206.64 113,-211 113,-211 113,-211 121,-217 121,-217 121,-217 410,-217 410,-217 410,-217 526,-208 526,-208 526,-208 529.18,-207.62 533.79,-207.07"/>
<polygon fill="#000000" fill-opacity="0.200000" stroke="#000000" stroke-width="2" stroke-opacity="0.200000" points="540,-208.45 533.79,-207.07 539.5,-204.28 540,-208.45"/>
</g>
<!-- packages/music&#45;structure/melody/melody&#45;analyze/src/melody&#45;analysis.ts -->
<g id="node8" class="node">
<title>packages/music&#45;structure/melody/melody&#45;analyze/src/melody&#45;analysis.ts</title>
<g id="a_node8"><a xlink:href="packages/music-structure/melody/melody-analyze/src/melody-analysis.ts" xlink:title="melody&#45;analysis.ts">
<path fill="#ddfeff" stroke="black" d="M518,-168C518,-168 431,-168 431,-168 428,-168 425,-165 425,-162 425,-162 425,-156 425,-156 425,-153 428,-150 431,-150 431,-150 518,-150 518,-150 521,-150 524,-153 524,-156 524,-156 524,-162 524,-162 524,-165 521,-168 518,-168"/>
<text text-anchor="start" x="433" y="-156.8" font-family="Helvetica,sans-Serif" font-size="9.00">melody&#45;analysis.ts</text>
</a>
</g>
</g>
<!-- packages/music&#45;structure/melody/melody&#45;analyze/index.ts&#45;&gt;packages/music&#45;structure/melody/melody&#45;analyze/src/melody&#45;analysis.ts -->
<g id="edge4" class="edge">
<title>packages/music&#45;structure/melody/melody&#45;analyze/index.ts&#45;&gt;packages/music&#45;structure/melody/melody&#45;analyze/src/melody&#45;analysis.ts</title>
<path fill="none" stroke="#000000" stroke-width="2" stroke-opacity="0.200000" d="M103.83,-194.27C155.23,-196.75 264,-202 264,-202 264,-202 410,-202 410,-202 410,-202 423,-174 423,-174 423,-174 429.16,-172.17 437.17,-169.79"/>
<polygon fill="#000000" fill-opacity="0.200000" stroke="#000000" stroke-width="2" stroke-opacity="0.200000" points="443.56,-170.08 437.21,-169.78 442.36,-166.06 443.56,-170.08"/>
</g>
<!-- packages/music&#45;structure/melody/melody&#45;analyze/src/melody&#45;analysis&#45;data.ts -->
<g id="node9" class="node">
<title>packages/music&#45;structure/melody/melody&#45;analyze/src/melody&#45;analysis&#45;data.ts</title>
<g id="a_node9"><a xlink:href="packages/music-structure/melody/melody-analyze/src/melody-analysis-data.ts" xlink:title="melody&#45;analysis&#45;data.ts">
<path fill="#ddfeff" stroke="black" d="M245,-166C245,-166 135,-166 135,-166 132,-166 129,-163 129,-160 129,-160 129,-154 129,-154 129,-151 132,-148 135,-148 135,-148 245,-148 245,-148 248,-148 251,-151 251,-154 251,-154 251,-160 251,-160 251,-163 248,-166 245,-166"/>
<text text-anchor="start" x="137" y="-154.8" font-family="Helvetica,sans-Serif" font-size="9.00">melody&#45;analysis&#45;data.ts</text>
</a>
</g>
</g>
<!-- packages/music&#45;structure/melody/melody&#45;analyze/index.ts&#45;&gt;packages/music&#45;structure/melody/melody&#45;analyze/src/melody&#45;analysis&#45;data.ts -->
<g id="edge5" class="edge">
<title>packages/music&#45;structure/melody/melody&#45;analyze/index.ts&#45;&gt;packages/music&#45;structure/melody/melody&#45;analyze/src/melody&#45;analysis&#45;data.ts</title>
<path fill="none" stroke="#000000" stroke-width="2" stroke-opacity="0.200000" d="M94.69,-183.91C106.85,-177.48 121,-170 121,-170 121,-170 127.05,-168.84 135.55,-167.22"/>
<polygon fill="#000000" fill-opacity="0.200000" stroke="#000000" stroke-width="2" stroke-opacity="0.200000" points="142.17,-168.09 135.88,-167.16 141.38,-163.97 142.17,-168.09"/>
</g>
<!-- packages/music&#45;structure/melody/melody&#45;analyze/src/time&#45;and&#45;analyzed&#45;melody.ts -->
<g id="node10" class="node">
<title>packages/music&#45;structure/melody/melody&#45;analyze/src/time&#45;and&#45;analyzed&#45;melody.ts</title>
<g id="a_node10"><a xlink:href="packages/music-structure/melody/melody-analyze/src/time-and-analyzed-melody.ts" xlink:title="time&#45;and&#45;analyzed&#45;melody.ts">
<path fill="#ddfeff" stroke="black" d="M404,-166C404,-166 270,-166 270,-166 267,-166 264,-163 264,-160 264,-160 264,-154 264,-154 264,-151 267,-148 270,-148 270,-148 404,-148 404,-148 407,-148 410,-151 410,-154 410,-154 410,-160 410,-160 410,-163 407,-166 404,-166"/>
<text text-anchor="start" x="272" y="-154.8" font-family="Helvetica,sans-Serif" font-size="9.00">time&#45;and&#45;analyzed&#45;melody.ts</text>
</a>
</g>
</g>
<!-- packages/music&#45;structure/melody/melody&#45;analyze/index.ts&#45;&gt;packages/music&#45;structure/melody/melody&#45;analyze/src/time&#45;and&#45;analyzed&#45;melody.ts -->
<g id="edge6" class="edge">
<title>packages/music&#45;structure/melody/melody&#45;analyze/index.ts&#45;&gt;packages/music&#45;structure/melody/melody&#45;analyze/src/time&#45;and&#45;analyzed&#45;melody.ts</title>
<path fill="none" stroke="#000000" stroke-width="2" stroke-opacity="0.200000" d="M103.81,-188.77C112.97,-187.29 121,-186 121,-186 121,-186 251,-172 251,-172 251,-172 263.23,-169.84 278.41,-167.16"/>
<polygon fill="#000000" fill-opacity="0.200000" stroke="#000000" stroke-width="2" stroke-opacity="0.200000" points="284.96,-168.14 278.69,-167.11 284.23,-164 284.96,-168.14"/>
</g>
<!-- packages/music&#45;structure/melody/melody&#45;analyze/src/time&#45;and&#45;melody.ts -->
<g id="node11" class="node">
<title>packages/music&#45;structure/melody/melody&#45;analyze/src/time&#45;and&#45;melody.ts</title>
<g id="a_node11"><a xlink:href="packages/music-structure/melody/melody-analyze/src/time-and-melody.ts" xlink:title="time&#45;and&#45;melody.ts">
<path fill="#ddfeff" stroke="black" d="M520,-198C520,-198 429,-198 429,-198 426,-198 423,-195 423,-192 423,-192 423,-186 423,-186 423,-183 426,-180 429,-180 429,-180 520,-180 520,-180 523,-180 526,-183 526,-186 526,-186 526,-192 526,-192 526,-195 523,-198 520,-198"/>
<text text-anchor="start" x="431" y="-186.8" font-family="Helvetica,sans-Serif" font-size="9.00">time&#45;and&#45;melody.ts</text>
</a>
</g>
</g>
<!-- packages/music&#45;structure/melody/melody&#45;analyze/index.ts&#45;&gt;packages/music&#45;structure/melody/melody&#45;analyze/src/time&#45;and&#45;melody.ts -->
<g id="edge7" class="edge">
<title>packages/music&#45;structure/melody/melody&#45;analyze/index.ts&#45;&gt;packages/music&#45;structure/melody/melody&#45;analyze/src/time&#45;and&#45;melody.ts</title>
<path fill="none" stroke="#000000" stroke-width="2" stroke-opacity="0.200000" d="M97.21,-202.06C108.72,-207.36 121,-213 121,-213 121,-213 410,-213 410,-213 410,-213 423,-202 423,-202 423,-202 426.83,-201.01 432.38,-199.59"/>
<polygon fill="#000000" fill-opacity="0.200000" stroke="#000000" stroke-width="2" stroke-opacity="0.200000" points="438.95,-200.06 432.62,-199.52 437.9,-196 438.95,-200.06"/>
</g>
<!-- packages/music&#45;structure/melody/melody&#45;analyze/src/analyze&#45;melody.ts&#45;&gt;packages/music&#45;structure/melody/melody&#45;analyze/src/melody&#45;analysis.ts -->
<g id="edge9" class="edge">
<title>packages/music&#45;structure/melody/melody&#45;analyze/src/analyze&#45;melody.ts&#45;&gt;packages/music&#45;structure/melody/melody&#45;analyze/src/melody&#45;analysis.ts</title>
<path fill="none" stroke="#000000" stroke-width="2" stroke-opacity="0.200000" d="M238.25,-125.51C302.63,-127.57 410,-131 410,-131 410,-131 429.77,-139.72 447.25,-147.43"/>
<polygon fill="#000000" fill-opacity="0.200000" stroke="#000000" stroke-width="2" stroke-opacity="0.200000" points="446.72,-149.49 453.06,-149.99 448.42,-145.64 446.72,-149.49"/>
</g>
<!-- packages/music&#45;structure/melody/melody&#45;analyze/src/analyze&#45;melody.ts&#45;&gt;packages/music&#45;structure/melody/melody&#45;analyze/src/time&#45;and&#45;analyzed&#45;melody.ts -->
<g id="edge11" class="edge">
<title>packages/music&#45;structure/melody/melody&#45;analyze/src/analyze&#45;melody.ts&#45;&gt;packages/music&#45;structure/melody/melody&#45;analyze/src/time&#45;and&#45;analyzed&#45;melody.ts</title>
<path fill="none" stroke="#000000" stroke-width="2" stroke-opacity="0.200000" d="M230.62,-133.02C249.16,-137.24 271.35,-142.29 290.56,-146.66"/>
<polygon fill="#000000" fill-opacity="0.200000" stroke="#000000" stroke-width="2" stroke-opacity="0.200000" points="290.11,-148.71 296.43,-147.99 291.04,-144.61 290.11,-148.71"/>
</g>
<!-- packages/music&#45;structure/melody/melody&#45;analyze/src/analyze&#45;melody.ts&#45;&gt;packages/music&#45;structure/melody/melody&#45;analyze/src/time&#45;and&#45;melody.ts -->
<g id="edge12" class="edge">
<title>packages/music&#45;structure/melody/melody&#45;analyze/src/analyze&#45;melody.ts&#45;&gt;packages/music&#45;structure/melody/melody&#45;analyze/src/time&#45;and&#45;melody.ts</title>
<path fill="none" stroke="#000000" stroke-width="2" stroke-opacity="0.200000" d="M238.25,-127.88C302.63,-133.18 410,-142 410,-142 410,-142 423,-174 423,-174 423,-174 429.16,-175.83 437.17,-178.21"/>
<polygon fill="#000000" fill-opacity="0.200000" stroke="#000000" stroke-width="2" stroke-opacity="0.200000" points="436.61,-180.23 442.96,-179.93 437.81,-176.21 436.61,-180.23"/>
</g>
<!-- packages/music&#45;structure/melody/melody&#45;analyze/src/facade/index.ts -->
<g id="node12" class="node">
<title>packages/music&#45;structure/melody/melody&#45;analyze/src/facade/index.ts</title>
<g id="a_node12"><a xlink:href="packages/music-structure/melody/melody-analyze/src/facade/index.ts" xlink:title="index.ts">
<path fill="#ddfeff" stroke="black" d="M590,-160C590,-160 548,-160 548,-160 545,-160 542,-157 542,-154 542,-154 542,-148 542,-148 542,-145 545,-142 548,-142 548,-142 590,-142 590,-142 593,-142 596,-145 596,-148 596,-148 596,-154 596,-154 596,-157 593,-160 590,-160"/>
<text text-anchor="start" x="550.5" y="-148.8" font-family="Helvetica,sans-Serif" font-size="9.00">index.ts</text>
</a>
</g>
</g>
<!-- packages/music&#45;structure/melody/melody&#45;analyze/src/analyze&#45;melody.ts&#45;&gt;packages/music&#45;structure/melody/melody&#45;analyze/src/facade/index.ts -->
<g id="edge8" class="edge">
<title>packages/music&#45;structure/melody/melody&#45;analyze/src/analyze&#45;melody.ts&#45;&gt;packages/music&#45;structure/melody/melody&#45;analyze/src/facade/index.ts</title>
<path fill="none" stroke="#000000" stroke-width="2" stroke-opacity="0.200000" d="M201.77,-115C222.08,-98.03 264,-63 264,-63 264,-63 410,-63 410,-63 410,-63 526,-67 526,-67 526,-67 548.44,-111.89 560.52,-136.04"/>
<polygon fill="#000000" fill-opacity="0.200000" stroke="#000000" stroke-width="2" stroke-opacity="0.200000" points="558.78,-137.26 563.34,-141.69 562.54,-135.38 558.78,-137.26"/>
</g>
<!-- packages/music&#45;structure/melody/melody&#45;analyze/src/register&#45;gravity.ts -->
<g id="node13" class="node">
<title>packages/music&#45;structure/melody/melody&#45;analyze/src/register&#45;gravity.ts</title>
<g id="a_node13"><a xlink:href="packages/music-structure/melody/melody-analyze/src/register-gravity.ts" xlink:title="register&#45;gravity.ts">
<path fill="#ddfeff" stroke="black" d="M516,-124C516,-124 433,-124 433,-124 430,-124 427,-121 427,-118 427,-118 427,-112 427,-112 427,-109 430,-106 433,-106 433,-106 516,-106 516,-106 519,-106 522,-109 522,-112 522,-112 522,-118 522,-118 522,-121 519,-124 516,-124"/>
<text text-anchor="start" x="435" y="-112.8" font-family="Helvetica,sans-Serif" font-size="9.00">register&#45;gravity.ts</text>
</a>
</g>
</g>
<!-- packages/music&#45;structure/melody/melody&#45;analyze/src/analyze&#45;melody.ts&#45;&gt;packages/music&#45;structure/melody/melody&#45;analyze/src/register&#45;gravity.ts -->
<g id="edge10" class="edge">
<title>packages/music&#45;structure/melody/melody&#45;analyze/src/analyze&#45;melody.ts&#45;&gt;packages/music&#45;structure/melody/melody&#45;analyze/src/register&#45;gravity.ts</title>
<path fill="none" stroke="#000000" stroke-width="2" stroke-opacity="0.200000" d="M238.06,-119.49C252.18,-118.13 264,-117 264,-117 264,-117 358.4,-116.1 420.47,-115.51"/>
<polygon fill="#000000" fill-opacity="0.200000" stroke="#000000" stroke-width="2" stroke-opacity="0.200000" points="420.77,-117.6 426.74,-115.45 420.73,-113.4 420.77,-117.6"/>
</g>
<!-- packages/music&#45;structure/melody/melody&#45;analyze/src/get&#45;time&#45;and&#45;melody.ts&#45;&gt;packages/music&#45;structure/melody/melody&#45;analyze/src/time&#45;and&#45;melody.ts -->
<g id="edge21" class="edge">
<title>packages/music&#45;structure/melody/melody&#45;analyze/src/get&#45;time&#45;and&#45;melody.ts&#45;&gt;packages/music&#45;structure/melody/melody&#45;analyze/src/time&#45;and&#45;melody.ts</title>
<path fill="none" stroke="#000000" stroke-width="2" stroke-opacity="0.200000" d="M397.83,-187.88C404.1,-187.98 410.47,-188.07 416.71,-188.16"/>
<polygon fill="#000000" fill-opacity="0.200000" stroke="#000000" stroke-width="2" stroke-opacity="0.200000" points="416.86,-190.26 422.89,-188.25 416.93,-186.06 416.86,-190.26"/>
</g>
<!-- packages/music&#45;structure/melody/melody&#45;analyze/src/get&#45;time&#45;and&#45;melody.ts&#45;&gt;packages/music&#45;structure/melody/melody&#45;analyze/src/facade/index.ts -->
<g id="edge20" class="edge">
<title>packages/music&#45;structure/melody/melody&#45;analyze/src/get&#45;time&#45;and&#45;melody.ts&#45;&gt;packages/music&#45;structure/melody/melody&#45;analyze/src/facade/index.ts</title>
<path fill="none" stroke="#000000" stroke-width="2" stroke-opacity="0.200000" d="M388.01,-196.03C400.29,-198.25 410,-200 410,-200 410,-200 423,-204 423,-204 423,-204 526,-204 526,-204 526,-204 534,-164 534,-164 534,-164 535.79,-163.32 538.55,-162.26"/>
<polygon fill="#000000" fill-opacity="0.200000" stroke="#000000" stroke-width="2" stroke-opacity="0.200000" points="539.53,-164.13 544.39,-160.03 538.03,-160.21 539.53,-164.13"/>
</g>
<!-- packages/music&#45;structure/melody/melody&#45;analyze/src/melody&#45;analysis.ts&#45;&gt;packages/music&#45;structure/melody/melody&#45;analyze/src/gravity.ts -->
<g id="edge24" class="edge">
<title>packages/music&#45;structure/melody/melody&#45;analyze/src/melody&#45;analysis.ts&#45;&gt;packages/music&#45;structure/melody/melody&#45;analyze/src/gravity.ts</title>
<path fill="none" stroke="#000000" stroke-width="2" stroke-opacity="0.200000" d="M506.04,-168.07C516.68,-171.23 526,-174 526,-174 526,-174 534,-189 534,-189 534,-189 536.55,-190.05 540.26,-191.58"/>
<polygon fill="#000000" fill-opacity="0.200000" stroke="#000000" stroke-width="2" stroke-opacity="0.200000" points="539.54,-193.55 545.89,-193.9 541.14,-189.67 539.54,-193.55"/>
</g>
<!-- packages/music&#45;structure/melody/melody&#45;analyze/src/melody&#45;analysis.ts&#45;&gt;packages/music&#45;structure/melody/melody&#45;analyze/src/facade/index.ts -->
<g id="edge23" class="edge">
<title>packages/music&#45;structure/melody/melody&#45;analyze/src/melody&#45;analysis.ts&#45;&gt;packages/music&#45;structure/melody/melody&#45;analyze/src/facade/index.ts</title>
<path fill="none" stroke="#000000" stroke-width="2" stroke-opacity="0.200000" d="M524.19,-154.79C528.09,-154.45 531.97,-154.12 535.72,-153.79"/>
<polygon fill="#000000" fill-opacity="0.200000" stroke="#000000" stroke-width="2" stroke-opacity="0.200000" points="536.08,-155.87 541.87,-153.26 535.72,-151.68 536.08,-155.87"/>
</g>
<!-- packages/music&#45;structure/melody/melody&#45;analyze/src/melody&#45;analysis&#45;data.ts&#45;&gt;packages/music&#45;structure/melody/melody&#45;analyze/src/time&#45;and&#45;analyzed&#45;melody.ts -->
<g id="edge22" class="edge">
<title>packages/music&#45;structure/melody/melody&#45;analyze/src/melody&#45;analysis&#45;data.ts&#45;&gt;packages/music&#45;structure/melody/melody&#45;analyze/src/time&#45;and&#45;analyzed&#45;melody.ts</title>
<path fill="none" stroke="#000000" stroke-width="2" stroke-opacity="0.200000" d="M251.23,-157C253.33,-157 255.45,-157 257.57,-157"/>
<polygon fill="#000000" fill-opacity="0.200000" stroke="#000000" stroke-width="2" stroke-opacity="0.200000" points="257.95,-159.1 263.95,-157 257.95,-154.9 257.95,-159.1"/>
</g>
<!-- packages/music&#45;structure/melody/melody&#45;analyze/src/time&#45;and&#45;analyzed&#45;melody.ts&#45;&gt;packages/music&#45;structure/melody/melody&#45;analyze/src/melody&#45;analysis.ts -->
<g id="edge28" class="edge">
<title>packages/music&#45;structure/melody/melody&#45;analyze/src/time&#45;and&#45;analyzed&#45;melody.ts&#45;&gt;packages/music&#45;structure/melody/melody&#45;analyze/src/melody&#45;analysis.ts</title>
<path fill="none" stroke="#000000" stroke-width="2" stroke-opacity="0.200000" d="M410.11,-158.06C412.89,-158.11 415.65,-158.15 418.38,-158.19"/>
<polygon fill="#000000" fill-opacity="0.200000" stroke="#000000" stroke-width="2" stroke-opacity="0.200000" points="418.68,-160.29 424.71,-158.28 418.74,-156.09 418.68,-160.29"/>
</g>
<!-- packages/music&#45;structure/melody/melody&#45;analyze/src/time&#45;and&#45;analyzed&#45;melody.ts&#45;&gt;packages/music&#45;structure/melody/melody&#45;analyze/src/facade/index.ts -->
<g id="edge27" class="edge">
<title>packages/music&#45;structure/melody/melody&#45;analyze/src/time&#45;and&#45;analyzed&#45;melody.ts&#45;&gt;packages/music&#45;structure/melody/melody&#45;analyze/src/facade/index.ts</title>
<path fill="none" stroke="#000000" stroke-width="2" stroke-opacity="0.200000" d="M397.04,-147.97C411.54,-145.75 423,-144 423,-144 423,-144 526,-144 526,-144 526,-144 530.05,-144.68 535.64,-145.61"/>
<polygon fill="#000000" fill-opacity="0.200000" stroke="#000000" stroke-width="2" stroke-opacity="0.200000" points="535.38,-147.69 541.64,-146.61 536.07,-143.55 535.38,-147.69"/>
</g>
<!-- packages/music&#45;structure/melody/melody&#45;analyze/src/time&#45;and&#45;melody.ts&#45;&gt;packages/music&#45;structure/melody/melody&#45;analyze/src/facade/index.ts -->
<g id="edge30" class="edge">
<title>packages/music&#45;structure/melody/melody&#45;analyze/src/time&#45;and&#45;melody.ts&#45;&gt;packages/music&#45;structure/melody/melody&#45;analyze/src/facade/index.ts</title>
<path fill="none" stroke="#000000" stroke-width="2" stroke-opacity="0.200000" d="M506.04,-179.93C516.68,-176.77 526,-174 526,-174 526,-174 534,-164 534,-164 534,-164 535.79,-163.32 538.55,-162.26"/>
<polygon fill="#000000" fill-opacity="0.200000" stroke="#000000" stroke-width="2" stroke-opacity="0.200000" points="539.53,-164.13 544.39,-160.03 538.03,-160.21 539.53,-164.13"/>
</g>
<!-- packages/music&#45;structure/melody/melody&#45;analyze/src/facade/index.ts&#45;&gt;packages/cognitive&#45;theory&#45;of&#45;music/irm/dist/index.js -->
<g id="edge14" class="edge">
<title>packages/music&#45;structure/melody/melody&#45;analyze/src/facade/index.ts&#45;&gt;packages/cognitive&#45;theory&#45;of&#45;music/irm/dist/index.js</title>
<path fill="none" stroke="#000000" stroke-width="2" stroke-opacity="0.200000" d="M596.28,-156.89C611.63,-160.33 628,-164 628,-164 628,-164 689.58,-297.53 710.29,-342.46"/>
<polygon fill="#000000" fill-opacity="0.200000" stroke="#000000" stroke-width="2" stroke-opacity="0.200000" points="710.92,-348.83 710.31,-342.5 714.73,-347.07 710.92,-348.83"/>
</g>
<!-- packages/music&#45;structure/melody/melody&#45;analyze/src/facade/index.ts&#45;&gt;packages/music&#45;structure/chord/chord&#45;analyze/dist/index.js -->
<g id="edge13" class="edge">
<title>packages/music&#45;structure/melody/melody&#45;analyze/src/facade/index.ts&#45;&gt;packages/music&#45;structure/chord/chord&#45;analyze/dist/index.js</title>
<path fill="none" stroke="#000000" stroke-width="2" stroke-opacity="0.200000" d="M596.28,-151C621.05,-151 658.23,-151 684.78,-151"/>
<polygon fill="#000000" fill-opacity="0.200000" stroke="#000000" stroke-width="2" stroke-opacity="0.200000" points="690.95,-153.1 684.95,-151 690.95,-148.9 690.95,-153.1"/>
</g>
<!-- packages/util/math/dist/index.js -->
<g id="node14" class="node">
<title>packages/util/math/dist/index.js</title>
<g id="a_node14"><a xlink:href="packages/util/math/dist/index.js" xlink:title="index.js">
<polygon fill="#ffffcc" stroke="black" points="745,-588 743.5,-590 733,-590 731.5,-588 691,-588 691,-570 745,-570 745,-588"/>
<text text-anchor="start" x="700.5" y="-576.8" font-family="Helvetica,sans-Serif" font-size="9.00">index.js</text>
</a>
</g>
</g>
<!-- packages/music&#45;structure/melody/melody&#45;analyze/src/facade/index.ts&#45;&gt;packages/util/math/dist/index.js -->
<g id="edge15" class="edge">
<title>packages/music&#45;structure/melody/melody&#45;analyze/src/facade/index.ts&#45;&gt;packages/util/math/dist/index.js</title>
<path fill="none" stroke="#000000" stroke-width="2" stroke-opacity="0.200000" d="M596.28,-156.89C611.63,-160.33 628,-164 628,-164 628,-164 644,-523 644,-523 644,-523 678.46,-549.44 700.03,-565.98"/>
<polygon fill="#000000" fill-opacity="0.200000" stroke="#000000" stroke-width="2" stroke-opacity="0.200000" points="703.67,-571.42 700.18,-566.1 706.22,-568.09 703.67,-571.42"/>
</g>
<!-- packages/util/time&#45;and/dist/index.js -->
<g id="node15" class="node">
<title>packages/util/time&#45;and/dist/index.js</title>
<g id="a_node15"><a xlink:href="packages/util/time-and/dist/index.js" xlink:title="index.js">
<polygon fill="#ffffcc" stroke="black" points="745,-494 743.5,-496 733,-496 731.5,-494 691,-494 691,-476 745,-476 745,-494"/>
<text text-anchor="start" x="700.5" y="-482.8" font-family="Helvetica,sans-Serif" font-size="9.00">index.js</text>
</a>
</g>
</g>
<!-- packages/music&#45;structure/melody/melody&#45;analyze/src/facade/index.ts&#45;&gt;packages/util/time&#45;and/dist/index.js -->
<g id="edge16" class="edge">
<title>packages/music&#45;structure/melody/melody&#45;analyze/src/facade/index.ts&#45;&gt;packages/util/time&#45;and/dist/index.js</title>
<path fill="none" stroke="#000000" stroke-width="2" stroke-opacity="0.200000" d="M596.28,-156.89C611.63,-160.33 628,-164 628,-164 628,-164 644,-395 644,-395 644,-395 685.14,-445.72 705.65,-471.01"/>
<polygon fill="#000000" fill-opacity="0.200000" stroke="#000000" stroke-width="2" stroke-opacity="0.200000" points="707.83,-477.03 705.68,-471.05 711.09,-474.38 707.83,-477.03"/>
</g>
<!-- packages/tonal&#45;objects/dist/index.js -->
<g id="node16" class="node">
<title>packages/tonal&#45;objects/dist/index.js</title>
<g id="a_node16"><a xlink:href="packages/tonal-objects/dist/index.js" xlink:title="index.js">
<polygon fill="#ffffcc" stroke="black" points="745,-708 743.5,-710 733,-710 731.5,-708 691,-708 691,-690 745,-690 745,-708"/>
<text text-anchor="start" x="700.5" y="-696.8" font-family="Helvetica,sans-Serif" font-size="9.00">index.js</text>
</a>
</g>
</g>
<!-- packages/music&#45;structure/melody/melody&#45;analyze/src/facade/index.ts&#45;&gt;packages/tonal&#45;objects/dist/index.js -->
<g id="edge17" class="edge">
<title>packages/music&#45;structure/melody/melody&#45;analyze/src/facade/index.ts&#45;&gt;packages/tonal&#45;objects/dist/index.js</title>
<path fill="none" stroke="#000000" stroke-width="2" stroke-opacity="0.200000" d="M596.28,-156.89C611.63,-160.33 628,-164 628,-164 628,-164 644,-617 644,-617 644,-617 684.01,-661.94 704.79,-685.28"/>
<polygon fill="#000000" fill-opacity="0.200000" stroke="#000000" stroke-width="2" stroke-opacity="0.200000" points="707.34,-691.31 704.92,-685.43 710.48,-688.51 707.34,-691.31"/>
</g>
<!-- packages/music&#45;structure/melody/melody&#45;analyze/src/register&#45;gravity.ts&#45;&gt;packages/music&#45;structure/melody/melody&#45;analyze/src/gravity.ts -->
<g id="edge26" class="edge">
<title>packages/music&#45;structure/melody/melody&#45;analyze/src/register&#45;gravity.ts&#45;&gt;packages/music&#45;structure/melody/melody&#45;analyze/src/gravity.ts</title>
<path fill="none" stroke="#000000" stroke-width="2" stroke-opacity="0.200000" d="M491.2,-124.02C506.03,-132.53 526,-144 526,-144 526,-144 534,-189 534,-189 534,-189 536.55,-190.05 540.26,-191.58"/>
<polygon fill="#000000" fill-opacity="0.200000" stroke="#000000" stroke-width="2" stroke-opacity="0.200000" points="539.54,-193.55 545.89,-193.9 541.14,-189.67 539.54,-193.55"/>
</g>
<!-- packages/music&#45;structure/melody/melody&#45;analyze/src/register&#45;gravity.ts&#45;&gt;packages/music&#45;structure/melody/melody&#45;analyze/src/facade/index.ts -->
<g id="edge25" class="edge">
<title>packages/music&#45;structure/melody/melody&#45;analyze/src/register&#45;gravity.ts&#45;&gt;packages/music&#45;structure/melody/melody&#45;analyze/src/facade/index.ts</title>
<path fill="none" stroke="#000000" stroke-width="2" stroke-opacity="0.200000" d="M501.05,-124.11C513.57,-128.57 526,-133 526,-133 526,-133 532.72,-135.88 540.78,-139.33"/>
<polygon fill="#000000" fill-opacity="0.200000" stroke="#000000" stroke-width="2" stroke-opacity="0.200000" points="540.17,-141.36 546.51,-141.79 541.82,-137.5 540.17,-141.36"/>
</g>
<!-- packages/music&#45;structure/melody/melody&#45;analyze/src/get&#45;time&#45;and&#45;chord.ts -->
<g id="node17" class="node">
<title>packages/music&#45;structure/melody/melody&#45;analyze/src/get&#45;time&#45;and&#45;chord.ts</title>
<g id="a_node17"><a xlink:href="packages/music-structure/melody/melody-analyze/src/get-time-and-chord.ts" xlink:title="get&#45;time&#45;and&#45;chord.ts">
<path fill="#ddfeff" stroke="black" d="M389,-87C389,-87 285,-87 285,-87 282,-87 279,-84 279,-81 279,-81 279,-75 279,-75 279,-72 282,-69 285,-69 285,-69 389,-69 389,-69 392,-69 395,-72 395,-75 395,-75 395,-81 395,-81 395,-84 392,-87 389,-87"/>
<text text-anchor="start" x="287" y="-75.8" font-family="Helvetica,sans-Serif" font-size="9.00">get&#45;time&#45;and&#45;chord.ts</text>
</a>
</g>
</g>
<!-- packages/music&#45;structure/melody/melody&#45;analyze/src/get&#45;time&#45;and&#45;chord.ts&#45;&gt;packages/music&#45;structure/melody/melody&#45;analyze/src/facade/index.ts -->
<g id="edge18" class="edge">
<title>packages/music&#45;structure/melody/melody&#45;analyze/src/get&#45;time&#45;and&#45;chord.ts&#45;&gt;packages/music&#45;structure/melody/melody&#45;analyze/src/facade/index.ts</title>
<path fill="none" stroke="#000000" stroke-width="2" stroke-opacity="0.200000" d="M395.17,-72.62C410.54,-71.17 423,-70 423,-70 423,-70 526,-70 526,-70 526,-70 548.22,-112.86 560.34,-136.23"/>
<polygon fill="#000000" fill-opacity="0.200000" stroke="#000000" stroke-width="2" stroke-opacity="0.200000" points="558.56,-137.35 563.18,-141.71 562.28,-135.42 558.56,-137.35"/>
</g>
<!-- packages/music&#45;structure/melody/melody&#45;analyze/src/time&#45;and&#45;chord.ts -->
<g id="node18" class="node">
<title>packages/music&#45;structure/melody/melody&#45;analyze/src/time&#45;and&#45;chord.ts</title>
<g id="a_node18"><a xlink:href="packages/music-structure/melody/melody-analyze/src/time-and-chord.ts" xlink:title="time&#45;and&#45;chord.ts">
<path fill="#ddfeff" stroke="black" d="M517.5,-94C517.5,-94 431.5,-94 431.5,-94 428.5,-94 425.5,-91 425.5,-88 425.5,-88 425.5,-82 425.5,-82 425.5,-79 428.5,-76 431.5,-76 431.5,-76 517.5,-76 517.5,-76 520.5,-76 523.5,-79 523.5,-82 523.5,-82 523.5,-88 523.5,-88 523.5,-91 520.5,-94 517.5,-94"/>
<text text-anchor="start" x="433.5" y="-82.8" font-family="Helvetica,sans-Serif" font-size="9.00">time&#45;and&#45;chord.ts</text>
</a>
</g>
</g>
<!-- packages/music&#45;structure/melody/melody&#45;analyze/src/get&#45;time&#45;and&#45;chord.ts&#45;&gt;packages/music&#45;structure/melody/melody&#45;analyze/src/time&#45;and&#45;chord.ts -->
<g id="edge19" class="edge">
<title>packages/music&#45;structure/melody/melody&#45;analyze/src/get&#45;time&#45;and&#45;chord.ts&#45;&gt;packages/music&#45;structure/melody/melody&#45;analyze/src/time&#45;and&#45;chord.ts</title>
<path fill="none" stroke="#000000" stroke-width="2" stroke-opacity="0.200000" d="M395.07,-80.95C403.14,-81.37 411.42,-81.79 419.43,-82.21"/>
<polygon fill="#000000" fill-opacity="0.200000" stroke="#000000" stroke-width="2" stroke-opacity="0.200000" points="419.39,-84.31 425.49,-82.52 419.61,-80.11 419.39,-84.31"/>
</g>
<!-- packages/music&#45;structure/melody/melody&#45;analyze/src/time&#45;and&#45;chord.ts&#45;&gt;packages/music&#45;structure/melody/melody&#45;analyze/src/facade/index.ts -->
<g id="edge29" class="edge">
<title>packages/music&#45;structure/melody/melody&#45;analyze/src/time&#45;and&#45;chord.ts&#45;&gt;packages/music&#45;structure/melody/melody&#45;analyze/src/facade/index.ts</title>
<path fill="none" stroke="#000000" stroke-width="2" stroke-opacity="0.200000" d="M506.04,-94.07C516.68,-97.23 526,-100 526,-100 526,-100 543.9,-121.73 556.33,-136.82"/>
<polygon fill="#000000" fill-opacity="0.200000" stroke="#000000" stroke-width="2" stroke-opacity="0.200000" points="554.86,-138.35 560.3,-141.65 558.1,-135.68 554.86,-138.35"/>
</g>
</g>
</svg>
