<?xml version="1.0" encoding="UTF-8" standalone="no"?>
<!DOCTYPE svg PUBLIC "-//W3C//DTD SVG 1.1//EN"
 "http://www.w3.org/Graphics/SVG/1.1/DTD/svg11.dtd">
<!-- Generated by graphviz version 2.43.0 (0)
 -->
<!-- Title: dependency&#45;cruiser output Pages: 1 -->
<svg width="703pt" height="922pt"
 viewBox="0.00 0.00 703.00 922.00" xmlns="http://www.w3.org/2000/svg" xmlns:xlink="http://www.w3.org/1999/xlink">
<g id="graph0" class="graph" transform="scale(1 1) rotate(0) translate(4 918)">
<title>dependency&#45;cruiser output</title>
<polygon fill="white" stroke="transparent" points="-4,4 -4,-918 699,-918 699,4 -4,4"/>
<g id="clust1" class="cluster">
<title>cluster_packages</title>
<path fill="#ffffff" stroke="black" stroke-width="2" d="M20,-8C20,-8 683,-8 683,-8 689,-8 695,-14 695,-20 695,-20 695,-894 695,-894 695,-900 689,-906 683,-906 683,-906 20,-906 20,-906 14,-906 8,-900 8,-894 8,-894 8,-20 8,-20 8,-14 14,-8 20,-8"/>
<text text-anchor="middle" x="351.5" y="-894.8" font-family="Helvetica,sans-Serif" font-weight="bold" font-size="9.00">packages</text>
</g>
<g id="clust2" class="cluster">
<title>cluster_packages/cognitive&#45;theory&#45;of&#45;music</title>
<path fill="#ffffff" stroke="black" stroke-width="2" d="M550,-16C550,-16 675,-16 675,-16 681,-16 687,-22 687,-28 687,-28 687,-124 687,-124 687,-130 681,-136 675,-136 675,-136 550,-136 550,-136 544,-136 538,-130 538,-124 538,-124 538,-28 538,-28 538,-22 544,-16 550,-16"/>
<text text-anchor="middle" x="612.5" y="-124.8" font-family="Helvetica,sans-Serif" font-weight="bold" font-size="9.00">cognitive&#45;theory&#45;of&#45;music</text>
</g>
<g id="clust3" class="cluster">
<title>cluster_packages/cognitive&#45;theory&#45;of&#45;music/irm</title>
<path fill="#ffffff" stroke="black" stroke-width="2" d="M581,-24C581,-24 643,-24 643,-24 649,-24 655,-30 655,-36 655,-36 655,-98 655,-98 655,-104 649,-110 643,-110 643,-110 581,-110 581,-110 575,-110 569,-104 569,-98 569,-98 569,-36 569,-36 569,-30 575,-24 581,-24"/>
<text text-anchor="middle" x="612" y="-98.8" font-family="Helvetica,sans-Serif" font-weight="bold" font-size="9.00">irm</text>
</g>
<g id="clust4" class="cluster">
<title>cluster_packages/cognitive&#45;theory&#45;of&#45;music/irm/dist</title>
<path fill="#ffffff" stroke="black" stroke-width="2" d="M589,-32C589,-32 635,-32 635,-32 641,-32 647,-38 647,-44 647,-44 647,-72 647,-72 647,-78 641,-84 635,-84 635,-84 589,-84 589,-84 583,-84 577,-78 577,-72 577,-72 577,-44 577,-44 577,-38 583,-32 589,-32"/>
<text text-anchor="middle" x="612" y="-72.8" font-family="Helvetica,sans-Serif" font-weight="bold" font-size="9.00">dist</text>
</g>
<g id="clust5" class="cluster">
<title>cluster_packages/music&#45;structure</title>
<path fill="#ffffff" stroke="black" stroke-width="2" d="M28,-144C28,-144 661,-144 661,-144 667,-144 673,-150 673,-156 673,-156 673,-552 673,-552 673,-558 667,-564 661,-564 661,-564 28,-564 28,-564 22,-564 16,-558 16,-552 16,-552 16,-156 16,-156 16,-150 22,-144 28,-144"/>
<text text-anchor="middle" x="344.5" y="-552.8" font-family="Helvetica,sans-Serif" font-weight="bold" font-size="9.00">music&#45;structure</text>
</g>
<g id="clust6" class="cluster">
<title>cluster_packages/music&#45;structure/chord</title>
<path fill="#ffffff" stroke="black" stroke-width="2" d="M297,-418C297,-418 378,-418 378,-418 384,-418 390,-424 390,-430 390,-430 390,-526 390,-526 390,-532 384,-538 378,-538 378,-538 297,-538 297,-538 291,-538 285,-532 285,-526 285,-526 285,-430 285,-430 285,-424 291,-418 297,-418"/>
<text text-anchor="middle" x="337.5" y="-526.8" font-family="Helvetica,sans-Serif" font-weight="bold" font-size="9.00">chord</text>
</g>
<g id="clust7" class="cluster">
<title>cluster_packages/music&#45;structure/chord/chord&#45;analyze</title>
<path fill="#ffffff" stroke="black" stroke-width="2" d="M305,-426C305,-426 370,-426 370,-426 376,-426 382,-432 382,-438 382,-438 382,-500 382,-500 382,-506 376,-512 370,-512 370,-512 305,-512 305,-512 299,-512 293,-506 293,-500 293,-500 293,-438 293,-438 293,-432 299,-426 305,-426"/>
<text text-anchor="middle" x="337.5" y="-500.8" font-family="Helvetica,sans-Serif" font-weight="bold" font-size="9.00">chord&#45;analyze</text>
</g>
<g id="clust8" class="cluster">
<title>cluster_packages/music&#45;structure/chord/chord&#45;analyze/dist</title>
<path fill="#ffffff" stroke="black" stroke-width="2" d="M314,-434C314,-434 360,-434 360,-434 366,-434 372,-440 372,-446 372,-446 372,-474 372,-474 372,-480 366,-486 360,-486 360,-486 314,-486 314,-486 308,-486 302,-480 302,-474 302,-474 302,-446 302,-446 302,-440 308,-434 314,-434"/>
<text text-anchor="middle" x="337" y="-474.8" font-family="Helvetica,sans-Serif" font-weight="bold" font-size="9.00">dist</text>
</g>
<g id="clust9" class="cluster">
<title>cluster_packages/music&#45;structure/melody</title>
<path fill="#ffffff" stroke="black" stroke-width="2" d="M36,-152C36,-152 653,-152 653,-152 659,-152 665,-158 665,-164 665,-164 665,-398 665,-398 665,-404 659,-410 653,-410 653,-410 36,-410 36,-410 30,-410 24,-404 24,-398 24,-398 24,-164 24,-164 24,-158 30,-152 36,-152"/>
<text text-anchor="middle" x="344.5" y="-398.8" font-family="Helvetica,sans-Serif" font-weight="bold" font-size="9.00">melody</text>
</g>
<g id="clust10" class="cluster">
<title>cluster_packages/music&#45;structure/melody/melody&#45;analyze</title>
<path fill="#ffffff" stroke="black" stroke-width="2" d="M44,-160C44,-160 645,-160 645,-160 651,-160 657,-166 657,-172 657,-172 657,-372 657,-372 657,-378 651,-384 645,-384 645,-384 44,-384 44,-384 38,-384 32,-378 32,-372 32,-372 32,-172 32,-172 32,-166 38,-160 44,-160"/>
<text text-anchor="middle" x="344.5" y="-372.8" font-family="Helvetica,sans-Serif" font-weight="bold" font-size="9.00">melody&#45;analyze</text>
</g>
<g id="clust11" class="cluster">
<title>cluster_packages/music&#45;structure/melody/melody&#45;analyze/src</title>
<path fill="#ffffff" stroke="black" stroke-width="2" d="M133,-216C133,-216 637,-216 637,-216 643,-216 649,-222 649,-228 649,-228 649,-346 649,-346 649,-352 643,-358 637,-358 637,-358 133,-358 133,-358 127,-358 121,-352 121,-346 121,-346 121,-228 121,-228 121,-222 127,-216 133,-216"/>
<text text-anchor="middle" x="385" y="-346.8" font-family="Helvetica,sans-Serif" font-weight="bold" font-size="9.00">src</text>
</g>
<g id="clust12" class="cluster">
<title>cluster_packages/tonal&#45;objects</title>
<path fill="#ffffff" stroke="black" stroke-width="2" d="M581,-794C581,-794 643,-794 643,-794 649,-794 655,-800 655,-806 655,-806 655,-868 655,-868 655,-874 649,-880 643,-880 643,-880 581,-880 581,-880 575,-880 569,-874 569,-868 569,-868 569,-806 569,-806 569,-800 575,-794 581,-794"/>
<text text-anchor="middle" x="612" y="-868.8" font-family="Helvetica,sans-Serif" font-weight="bold" font-size="9.00">tonal&#45;objects</text>
</g>
<g id="clust13" class="cluster">
<title>cluster_packages/tonal&#45;objects/dist</title>
<path fill="#ffffff" stroke="black" stroke-width="2" d="M589,-802C589,-802 635,-802 635,-802 641,-802 647,-808 647,-814 647,-814 647,-842 647,-842 647,-848 641,-854 635,-854 635,-854 589,-854 589,-854 583,-854 577,-848 577,-842 577,-842 577,-814 577,-814 577,-808 583,-802 589,-802"/>
<text text-anchor="middle" x="612" y="-842.8" font-family="Helvetica,sans-Serif" font-weight="bold" font-size="9.00">dist</text>
</g>
<g id="clust14" class="cluster">
<title>cluster_packages/util</title>
<path fill="#ffffff" stroke="black" stroke-width="2" d="M573,-572C573,-572 651,-572 651,-572 657,-572 663,-578 663,-584 663,-584 663,-774 663,-774 663,-780 657,-786 651,-786 651,-786 573,-786 573,-786 567,-786 561,-780 561,-774 561,-774 561,-584 561,-584 561,-578 567,-572 573,-572"/>
<text text-anchor="middle" x="612" y="-774.8" font-family="Helvetica,sans-Serif" font-weight="bold" font-size="9.00">util</text>
</g>
<g id="clust15" class="cluster">
<title>cluster_packages/util/math</title>
<path fill="#ffffff" stroke="black" stroke-width="2" d="M581,-580C581,-580 643,-580 643,-580 649,-580 655,-586 655,-592 655,-592 655,-654 655,-654 655,-660 649,-666 643,-666 643,-666 581,-666 581,-666 575,-666 569,-660 569,-654 569,-654 569,-592 569,-592 569,-586 575,-580 581,-580"/>
<text text-anchor="middle" x="612" y="-654.8" font-family="Helvetica,sans-Serif" font-weight="bold" font-size="9.00">math</text>
</g>
<g id="clust16" class="cluster">
<title>cluster_packages/util/math/dist</title>
<path fill="#ffffff" stroke="black" stroke-width="2" d="M589,-588C589,-588 635,-588 635,-588 641,-588 647,-594 647,-600 647,-600 647,-628 647,-628 647,-634 641,-640 635,-640 635,-640 589,-640 589,-640 583,-640 577,-634 577,-628 577,-628 577,-600 577,-600 577,-594 583,-588 589,-588"/>
<text text-anchor="middle" x="612" y="-628.8" font-family="Helvetica,sans-Serif" font-weight="bold" font-size="9.00">dist</text>
</g>
<g id="clust17" class="cluster">
<title>cluster_packages/util/time&#45;and</title>
<path fill="#ffffff" stroke="black" stroke-width="2" d="M581,-674C581,-674 643,-674 643,-674 649,-674 655,-680 655,-686 655,-686 655,-748 655,-748 655,-754 649,-760 643,-760 643,-760 581,-760 581,-760 575,-760 569,-754 569,-748 569,-748 569,-686 569,-686 569,-680 575,-674 581,-674"/>
<text text-anchor="middle" x="612" y="-748.8" font-family="Helvetica,sans-Serif" font-weight="bold" font-size="9.00">time&#45;and</text>
</g>
<g id="clust18" class="cluster">
<title>cluster_packages/util/time&#45;and/dist</title>
<path fill="#ffffff" stroke="black" stroke-width="2" d="M589,-682C589,-682 635,-682 635,-682 641,-682 647,-688 647,-694 647,-694 647,-722 647,-722 647,-728 641,-734 635,-734 635,-734 589,-734 589,-734 583,-734 577,-728 577,-722 577,-722 577,-694 577,-694 577,-688 583,-682 589,-682"/>
<text text-anchor="middle" x="612" y="-722.8" font-family="Helvetica,sans-Serif" font-weight="bold" font-size="9.00">dist</text>
</g>
<!-- packages/cognitive&#45;theory&#45;of&#45;music/irm/dist/index.js -->
<g id="node1" class="node">
<title>packages/cognitive&#45;theory&#45;of&#45;music/irm/dist/index.js</title>
<g id="a_node1"><a xlink:href="packages/cognitive-theory-of-music/irm/dist/index.js" xlink:title="index.js">
<polygon fill="#ffffcc" stroke="black" points="639,-58 637.5,-60 627,-60 625.5,-58 585,-58 585,-40 639,-40 639,-58"/>
<text text-anchor="start" x="594.5" y="-46.8" font-family="Helvetica,sans-Serif" font-size="9.00">index.js</text>
</a>
</g>
</g>
<!-- packages/music&#45;structure/chord/chord&#45;analyze/dist/index.js -->
<g id="node2" class="node">
<title>packages/music&#45;structure/chord/chord&#45;analyze/dist/index.js</title>
<g id="a_node2"><a xlink:href="packages/music-structure/chord/chord-analyze/dist/index.js" xlink:title="index.js">
<polygon fill="#ffffcc" stroke="black" points="364,-460 362.5,-462 352,-462 350.5,-460 310,-460 310,-442 364,-442 364,-460"/>
<text text-anchor="start" x="319.5" y="-448.8" font-family="Helvetica,sans-Serif" font-size="9.00">index.js</text>
</a>
</g>
</g>
<!-- packages/music&#45;structure/melody/melody&#45;analyze/index.test.ts -->
<g id="node3" class="node">
<title>packages/music&#45;structure/melody/melody&#45;analyze/index.test.ts</title>
<g id="a_node3"><a xlink:href="packages/music-structure/melody/melody-analyze/index.test.ts" xlink:title="no&#45;orphans">
<path fill="#ccffcc" stroke="orange" d="M107,-304C107,-304 46,-304 46,-304 43,-304 40,-301 40,-298 40,-298 40,-292 40,-292 40,-289 43,-286 46,-286 46,-286 107,-286 107,-286 110,-286 113,-289 113,-292 113,-292 113,-298 113,-298 113,-301 110,-304 107,-304"/>
<text text-anchor="start" x="48" y="-292.8" font-family="Helvetica,sans-Serif" font-size="9.00" fill="orange">index.test.ts</text>
</a>
</g>
</g>
<!-- packages/music&#45;structure/melody/melody&#45;analyze/index.ts -->
<g id="node4" class="node">
<title>packages/music&#45;structure/melody/melody&#45;analyze/index.ts</title>
<g id="a_node4"><a xlink:href="packages/music-structure/melody/melody-analyze/index.ts" xlink:title="index.ts">
<path fill="#ddfeff" stroke="black" d="M97.5,-220C97.5,-220 55.5,-220 55.5,-220 52.5,-220 49.5,-217 49.5,-214 49.5,-214 49.5,-208 49.5,-208 49.5,-205 52.5,-202 55.5,-202 55.5,-202 97.5,-202 97.5,-202 100.5,-202 103.5,-205 103.5,-208 103.5,-208 103.5,-214 103.5,-214 103.5,-217 100.5,-220 97.5,-220"/>
<text text-anchor="start" x="58" y="-208.8" font-family="Helvetica,sans-Serif" font-size="9.00">index.ts</text>
</a>
</g>
</g>
<!-- packages/music&#45;structure/melody/melody&#45;analyze/src/analyze&#45;melody.ts -->
<g id="node5" class="node">
<title>packages/music&#45;structure/melody/melody&#45;analyze/src/analyze&#45;melody.ts</title>
<g id="a_node5"><a xlink:href="packages/music-structure/melody/melody-analyze/src/analyze-melody.ts" xlink:title="analyze&#45;melody.ts">
<path fill="#ddfeff" stroke="black" d="M232,-272C232,-272 148,-272 148,-272 145,-272 142,-269 142,-266 142,-266 142,-260 142,-260 142,-257 145,-254 148,-254 148,-254 232,-254 232,-254 235,-254 238,-257 238,-260 238,-260 238,-266 238,-266 238,-269 235,-272 232,-272"/>
<text text-anchor="start" x="150" y="-260.8" font-family="Helvetica,sans-Serif" font-size="9.00">analyze&#45;melody.ts</text>
</a>
</g>
</g>
<!-- packages/music&#45;structure/melody/melody&#45;analyze/index.ts&#45;&gt;packages/music&#45;structure/melody/melody&#45;analyze/src/analyze&#45;melody.ts -->
<g id="edge1" class="edge">
<title>packages/music&#45;structure/melody/melody&#45;analyze/index.ts&#45;&gt;packages/music&#45;structure/melody/melody&#45;analyze/src/analyze&#45;melody.ts</title>
<path fill="none" stroke="#000000" stroke-width="2" stroke-opacity="0.200000" d="M96.92,-220.06C115.51,-228.73 143.65,-241.85 163.93,-251.31"/>
<polygon fill="#000000" fill-opacity="0.200000" stroke="#000000" stroke-width="2" stroke-opacity="0.200000" points="168.54,-255.77 163.99,-251.34 170.31,-251.97 168.54,-255.77"/>
</g>
<!-- packages/music&#45;structure/melody/melody&#45;analyze/src/get&#45;time&#45;and&#45;melody.ts -->
<g id="node6" class="node">
<title>packages/music&#45;structure/melody/melody&#45;analyze/src/get&#45;time&#45;and&#45;melody.ts</title>
<g id="a_node6"><a xlink:href="packages/music-structure/melody/melody-analyze/src/get-time-and-melody.ts" xlink:title="get&#45;time&#45;and&#45;melody.ts">
<path fill="#ddfeff" stroke="black" d="M244.5,-302C244.5,-302 135.5,-302 135.5,-302 132.5,-302 129.5,-299 129.5,-296 129.5,-296 129.5,-290 129.5,-290 129.5,-287 132.5,-284 135.5,-284 135.5,-284 244.5,-284 244.5,-284 247.5,-284 250.5,-287 250.5,-290 250.5,-290 250.5,-296 250.5,-296 250.5,-299 247.5,-302 244.5,-302"/>
<text text-anchor="start" x="137.5" y="-290.8" font-family="Helvetica,sans-Serif" font-size="9.00">get&#45;time&#45;and&#45;melody.ts</text>
</a>
</g>
</g>
<!-- packages/music&#45;structure/melody/melody&#45;analyze/index.ts&#45;&gt;packages/music&#45;structure/melody/melody&#45;analyze/src/get&#45;time&#45;and&#45;melody.ts -->
<g id="edge2" class="edge">
<title>packages/music&#45;structure/melody/melody&#45;analyze/index.ts&#45;&gt;packages/music&#45;structure/melody/melody&#45;analyze/src/get&#45;time&#45;and&#45;melody.ts</title>
<path fill="none" stroke="#000000" stroke-width="2" stroke-opacity="0.200000" d="M89.86,-220.09C109.78,-234.74 149.06,-263.63 171.74,-280.31"/>
<polygon fill="#000000" fill-opacity="0.200000" stroke="#000000" stroke-width="2" stroke-opacity="0.200000" points="175.34,-285.56 171.75,-280.32 177.83,-282.18 175.34,-285.56"/>
</g>
<!-- packages/music&#45;structure/melody/melody&#45;analyze/src/gravity.ts -->
<g id="node7" class="node">
<title>packages/music&#45;structure/melody/melody&#45;analyze/src/gravity.ts</title>
<g id="a_node7"><a xlink:href="packages/music-structure/melody/melody-analyze/src/gravity.ts" xlink:title="gravity.ts">
<path fill="#ddfeff" stroke="black" d="M635,-242C635,-242 589,-242 589,-242 586,-242 583,-239 583,-236 583,-236 583,-230 583,-230 583,-227 586,-224 589,-224 589,-224 635,-224 635,-224 638,-224 641,-227 641,-230 641,-230 641,-236 641,-236 641,-239 638,-242 635,-242"/>
<text text-anchor="start" x="591" y="-230.8" font-family="Helvetica,sans-Serif" font-size="9.00">gravity.ts</text>
</a>
</g>
</g>
<!-- packages/music&#45;structure/melody/melody&#45;analyze/index.ts&#45;&gt;packages/music&#45;structure/melody/melody&#45;analyze/src/gravity.ts -->
<g id="edge3" class="edge">
<title>packages/music&#45;structure/melody/melody&#45;analyze/index.ts&#45;&gt;packages/music&#45;structure/melody/melody&#45;analyze/src/gravity.ts</title>
<path fill="none" stroke="#000000" stroke-width="2" stroke-opacity="0.200000" d="M103.79,-212.12C193.14,-215.79 476.89,-227.45 576.79,-231.55"/>
<polygon fill="#000000" fill-opacity="0.200000" stroke="#000000" stroke-width="2" stroke-opacity="0.200000" points="582.73,-233.9 576.82,-231.55 582.9,-229.7 582.73,-233.9"/>
</g>
<!-- packages/music&#45;structure/melody/melody&#45;analyze/src/melody&#45;analysis.ts -->
<g id="node8" class="node">
<title>packages/music&#45;structure/melody/melody&#45;analyze/src/melody&#45;analysis.ts</title>
<g id="a_node8"><a xlink:href="packages/music-structure/melody/melody-analyze/src/melody-analysis.ts" xlink:title="melody&#45;analysis.ts">
<path fill="#ddfeff" stroke="black" d="M516,-242C516,-242 429,-242 429,-242 426,-242 423,-239 423,-236 423,-236 423,-230 423,-230 423,-227 426,-224 429,-224 429,-224 516,-224 516,-224 519,-224 522,-227 522,-230 522,-230 522,-236 522,-236 522,-239 519,-242 516,-242"/>
<text text-anchor="start" x="431" y="-230.8" font-family="Helvetica,sans-Serif" font-size="9.00">melody&#45;analysis.ts</text>
</a>
</g>
</g>
<!-- packages/music&#45;structure/melody/melody&#45;analyze/index.ts&#45;&gt;packages/music&#45;structure/melody/melody&#45;analyze/src/melody&#45;analysis.ts -->
<g id="edge4" class="edge">
<title>packages/music&#45;structure/melody/melody&#45;analyze/index.ts&#45;&gt;packages/music&#45;structure/melody/melody&#45;analyze/src/melody&#45;analysis.ts</title>
<path fill="none" stroke="#000000" stroke-width="2" stroke-opacity="0.200000" d="M103.72,-212.51C168.05,-216.09 330.55,-225.11 416.77,-229.9"/>
<polygon fill="#000000" fill-opacity="0.200000" stroke="#000000" stroke-width="2" stroke-opacity="0.200000" points="422.73,-232.34 416.85,-229.91 422.96,-228.14 422.73,-232.34"/>
</g>
<!-- packages/music&#45;structure/melody/melody&#45;analyze/src/melody&#45;analysis&#45;data.ts -->
<g id="node9" class="node">
<title>packages/music&#45;structure/melody/melody&#45;analyze/src/melody&#45;analysis&#45;data.ts</title>
<g id="a_node9"><a xlink:href="packages/music-structure/melody/melody-analyze/src/melody-analysis-data.ts" xlink:title="melody&#45;analysis&#45;data.ts">
<path fill="#ddfeff" stroke="black" d="M245,-242C245,-242 135,-242 135,-242 132,-242 129,-239 129,-236 129,-236 129,-230 129,-230 129,-227 132,-224 135,-224 135,-224 245,-224 245,-224 248,-224 251,-227 251,-230 251,-230 251,-236 251,-236 251,-239 248,-242 245,-242"/>
<text text-anchor="start" x="137" y="-230.8" font-family="Helvetica,sans-Serif" font-size="9.00">melody&#45;analysis&#45;data.ts</text>
</a>
</g>
</g>
<!-- packages/music&#45;structure/melody/melody&#45;analyze/index.ts&#45;&gt;packages/music&#45;structure/melody/melody&#45;analyze/src/melody&#45;analysis&#45;data.ts -->
<g id="edge5" class="edge">
<title>packages/music&#45;structure/melody/melody&#45;analyze/index.ts&#45;&gt;packages/music&#45;structure/melody/melody&#45;analyze/src/melody&#45;analysis&#45;data.ts</title>
<path fill="none" stroke="#000000" stroke-width="2" stroke-opacity="0.200000" d="M103.64,-216.16C113.73,-218.15 125.63,-220.5 137.3,-222.8"/>
<polygon fill="#000000" fill-opacity="0.200000" stroke="#000000" stroke-width="2" stroke-opacity="0.200000" points="142.97,-226.06 137.49,-222.84 143.78,-221.94 142.97,-226.06"/>
</g>
<!-- packages/music&#45;structure/melody/melody&#45;analyze/src/time&#45;and&#45;analyzed&#45;melody.ts -->
<g id="node10" class="node">
<title>packages/music&#45;structure/melody/melody&#45;analyze/src/time&#45;and&#45;analyzed&#45;melody.ts</title>
<g id="a_node10"><a xlink:href="packages/music-structure/melody/melody-analyze/src/time-and-analyzed-melody.ts" xlink:title="time&#45;and&#45;analyzed&#45;melody.ts">
<path fill="#ddfeff" stroke="black" d="M404,-242C404,-242 270,-242 270,-242 267,-242 264,-239 264,-236 264,-236 264,-230 264,-230 264,-227 267,-224 270,-224 270,-224 404,-224 404,-224 407,-224 410,-227 410,-230 410,-230 410,-236 410,-236 410,-239 407,-242 404,-242"/>
<text text-anchor="start" x="272" y="-230.8" font-family="Helvetica,sans-Serif" font-size="9.00">time&#45;and&#45;analyzed&#45;melody.ts</text>
</a>
</g>
</g>
<!-- packages/music&#45;structure/melody/melody&#45;analyze/index.ts&#45;&gt;packages/music&#45;structure/melody/melody&#45;analyze/src/time&#45;and&#45;analyzed&#45;melody.ts -->
<g id="edge6" class="edge">
<title>packages/music&#45;structure/melody/melody&#45;analyze/index.ts&#45;&gt;packages/music&#45;structure/melody/melody&#45;analyze/src/time&#45;and&#45;analyzed&#45;melody.ts</title>
<path fill="none" stroke="#000000" stroke-width="2" stroke-opacity="0.200000" d="M103.89,-213.31C140.11,-216.37 205.48,-221.89 257.8,-226.31"/>
<polygon fill="#000000" fill-opacity="0.200000" stroke="#000000" stroke-width="2" stroke-opacity="0.200000" points="263.61,-228.91 257.81,-226.31 263.96,-224.72 263.61,-228.91"/>
</g>
<!-- packages/music&#45;structure/melody/melody&#45;analyze/src/time&#45;and&#45;melody.ts -->
<g id="node11" class="node">
<title>packages/music&#45;structure/melody/melody&#45;analyze/src/time&#45;and&#45;melody.ts</title>
<g id="a_node11"><a xlink:href="packages/music-structure/melody/melody-analyze/src/time-and-melody.ts" xlink:title="time&#45;and&#45;melody.ts">
<path fill="#ddfeff" stroke="black" d="M382.5,-302C382.5,-302 291.5,-302 291.5,-302 288.5,-302 285.5,-299 285.5,-296 285.5,-296 285.5,-290 285.5,-290 285.5,-287 288.5,-284 291.5,-284 291.5,-284 382.5,-284 382.5,-284 385.5,-284 388.5,-287 388.5,-290 388.5,-290 388.5,-296 388.5,-296 388.5,-299 385.5,-302 382.5,-302"/>
<text text-anchor="start" x="293.5" y="-290.8" font-family="Helvetica,sans-Serif" font-size="9.00">time&#45;and&#45;melody.ts</text>
</a>
</g>
</g>
<!-- packages/music&#45;structure/melody/melody&#45;analyze/index.ts&#45;&gt;packages/music&#45;structure/melody/melody&#45;analyze/src/time&#45;and&#45;melody.ts -->
<g id="edge7" class="edge">
<title>packages/music&#45;structure/melody/melody&#45;analyze/index.ts&#45;&gt;packages/music&#45;structure/melody/melody&#45;analyze/src/time&#45;and&#45;melody.ts</title>
<path fill="none" stroke="#000000" stroke-width="2" stroke-opacity="0.200000" d="M103.89,-219.62C151.68,-234.67 250.22,-265.68 302.56,-282.16"/>
<polygon fill="#000000" fill-opacity="0.200000" stroke="#000000" stroke-width="2" stroke-opacity="0.200000" points="307.77,-286 302.68,-282.2 309.03,-282 307.77,-286"/>
</g>
<!-- packages/music&#45;structure/melody/melody&#45;analyze/src/analyze&#45;melody.ts&#45;&gt;packages/cognitive&#45;theory&#45;of&#45;music/irm/dist/index.js -->
<g id="edge13" class="edge">
<title>packages/music&#45;structure/melody/melody&#45;analyze/src/analyze&#45;melody.ts&#45;&gt;packages/cognitive&#45;theory&#45;of&#45;music/irm/dist/index.js</title>
<path fill="none" stroke="#000000" stroke-width="2" stroke-opacity="0.200000" d="M207.86,-253.94C274.98,-219.9 512.14,-99.64 588.28,-61.03"/>
<polygon fill="#000000" fill-opacity="0.200000" stroke="#000000" stroke-width="2" stroke-opacity="0.200000" points="589.49,-62.77 593.9,-58.18 587.6,-59.02 589.49,-62.77"/>
</g>
<!-- packages/music&#45;structure/melody/melody&#45;analyze/src/analyze&#45;melody.ts&#45;&gt;packages/music&#45;structure/chord/chord&#45;analyze/dist/index.js -->
<g id="edge12" class="edge">
<title>packages/music&#45;structure/melody/melody&#45;analyze/src/analyze&#45;melody.ts&#45;&gt;packages/music&#45;structure/chord/chord&#45;analyze/dist/index.js</title>
<path fill="none" stroke="#000000" stroke-width="2" stroke-opacity="0.200000" d="M197.99,-272.07C221.29,-302.27 296.37,-399.62 324.88,-436.58"/>
<polygon fill="#000000" fill-opacity="0.200000" stroke="#000000" stroke-width="2" stroke-opacity="0.200000" points="323.41,-438.11 328.73,-441.58 326.73,-435.55 323.41,-438.11"/>
</g>
<!-- packages/music&#45;structure/melody/melody&#45;analyze/src/analyze&#45;melody.ts&#45;&gt;packages/music&#45;structure/melody/melody&#45;analyze/src/melody&#45;analysis.ts -->
<g id="edge8" class="edge">
<title>packages/music&#45;structure/melody/melody&#45;analyze/src/analyze&#45;melody.ts&#45;&gt;packages/music&#45;structure/melody/melody&#45;analyze/src/melody&#45;analysis.ts</title>
<path fill="none" stroke="#000000" stroke-width="2" stroke-opacity="0.200000" d="M238.24,-257.88C287.61,-252.63 364.26,-244.49 416.33,-238.96"/>
<polygon fill="#000000" fill-opacity="0.200000" stroke="#000000" stroke-width="2" stroke-opacity="0.200000" points="416.81,-241.03 422.55,-238.3 416.37,-236.85 416.81,-241.03"/>
</g>
<!-- packages/music&#45;structure/melody/melody&#45;analyze/src/analyze&#45;melody.ts&#45;&gt;packages/music&#45;structure/melody/melody&#45;analyze/src/time&#45;and&#45;analyzed&#45;melody.ts -->
<g id="edge10" class="edge">
<title>packages/music&#45;structure/melody/melody&#45;analyze/src/analyze&#45;melody.ts&#45;&gt;packages/music&#45;structure/melody/melody&#45;analyze/src/time&#45;and&#45;analyzed&#45;melody.ts</title>
<path fill="none" stroke="#000000" stroke-width="2" stroke-opacity="0.200000" d="M234.5,-254C250.78,-250.63 269.38,-246.78 286.18,-243.31"/>
<polygon fill="#000000" fill-opacity="0.200000" stroke="#000000" stroke-width="2" stroke-opacity="0.200000" points="286.83,-245.32 292.28,-242.05 285.97,-241.21 286.83,-245.32"/>
</g>
<!-- packages/music&#45;structure/melody/melody&#45;analyze/src/analyze&#45;melody.ts&#45;&gt;packages/music&#45;structure/melody/melody&#45;analyze/src/time&#45;and&#45;melody.ts -->
<g id="edge11" class="edge">
<title>packages/music&#45;structure/melody/melody&#45;analyze/src/analyze&#45;melody.ts&#45;&gt;packages/music&#45;structure/melody/melody&#45;analyze/src/time&#45;and&#45;melody.ts</title>
<path fill="none" stroke="#000000" stroke-width="2" stroke-opacity="0.200000" d="M234.5,-272C250.78,-275.37 269.38,-279.22 286.18,-282.69"/>
<polygon fill="#000000" fill-opacity="0.200000" stroke="#000000" stroke-width="2" stroke-opacity="0.200000" points="285.97,-284.79 292.28,-283.95 286.83,-280.68 285.97,-284.79"/>
</g>
<!-- packages/music&#45;structure/melody/melody&#45;analyze/src/register&#45;gravity.ts -->
<g id="node12" class="node">
<title>packages/music&#45;structure/melody/melody&#45;analyze/src/register&#45;gravity.ts</title>
<g id="a_node12"><a xlink:href="packages/music-structure/melody/melody-analyze/src/register-gravity.ts" xlink:title="register&#45;gravity.ts">
<path fill="#ddfeff" stroke="black" d="M514,-279C514,-279 431,-279 431,-279 428,-279 425,-276 425,-273 425,-273 425,-267 425,-267 425,-264 428,-261 431,-261 431,-261 514,-261 514,-261 517,-261 520,-264 520,-267 520,-267 520,-273 520,-273 520,-276 517,-279 514,-279"/>
<text text-anchor="start" x="433" y="-267.8" font-family="Helvetica,sans-Serif" font-size="9.00">register&#45;gravity.ts</text>
</a>
</g>
</g>
<!-- packages/music&#45;structure/melody/melody&#45;analyze/src/analyze&#45;melody.ts&#45;&gt;packages/music&#45;structure/melody/melody&#45;analyze/src/register&#45;gravity.ts -->
<g id="edge9" class="edge">
<title>packages/music&#45;structure/melody/melody&#45;analyze/src/analyze&#45;melody.ts&#45;&gt;packages/music&#45;structure/melody/melody&#45;analyze/src/register&#45;gravity.ts</title>
<path fill="none" stroke="#000000" stroke-width="2" stroke-opacity="0.200000" d="M238.24,-264.2C288.37,-265.44 366.62,-267.38 418.71,-268.67"/>
<polygon fill="#000000" fill-opacity="0.200000" stroke="#000000" stroke-width="2" stroke-opacity="0.200000" points="418.88,-270.77 424.93,-268.82 418.98,-266.57 418.88,-270.77"/>
</g>
<!-- packages/tonal&#45;objects/dist/index.js -->
<g id="node13" class="node">
<title>packages/tonal&#45;objects/dist/index.js</title>
<g id="a_node13"><a xlink:href="packages/tonal-objects/dist/index.js" xlink:title="index.js">
<polygon fill="#ffffcc" stroke="black" points="639,-828 637.5,-830 627,-830 625.5,-828 585,-828 585,-810 639,-810 639,-828"/>
<text text-anchor="start" x="594.5" y="-816.8" font-family="Helvetica,sans-Serif" font-size="9.00">index.js</text>
</a>
</g>
</g>
<!-- packages/music&#45;structure/melody/melody&#45;analyze/src/analyze&#45;melody.ts&#45;&gt;packages/tonal&#45;objects/dist/index.js -->
<g id="edge14" class="edge">
<title>packages/music&#45;structure/melody/melody&#45;analyze/src/analyze&#45;melody.ts&#45;&gt;packages/tonal&#45;objects/dist/index.js</title>
<path fill="none" stroke="#000000" stroke-width="2" stroke-opacity="0.200000" d="M196.97,-272.19C246.16,-336.99 540.69,-725.04 601.15,-804.71"/>
<polygon fill="#000000" fill-opacity="0.200000" stroke="#000000" stroke-width="2" stroke-opacity="0.200000" points="599.8,-806.39 605.1,-809.9 603.14,-803.86 599.8,-806.39"/>
</g>
<!-- packages/music&#45;structure/melody/melody&#45;analyze/src/get&#45;time&#45;and&#45;melody.ts&#45;&gt;packages/music&#45;structure/melody/melody&#45;analyze/src/time&#45;and&#45;melody.ts -->
<g id="edge18" class="edge">
<title>packages/music&#45;structure/melody/melody&#45;analyze/src/get&#45;time&#45;and&#45;melody.ts&#45;&gt;packages/music&#45;structure/melody/melody&#45;analyze/src/time&#45;and&#45;melody.ts</title>
<path fill="none" stroke="#000000" stroke-width="2" stroke-opacity="0.200000" d="M250.81,-293C260.16,-293 269.79,-293 279.07,-293"/>
<polygon fill="#000000" fill-opacity="0.200000" stroke="#000000" stroke-width="2" stroke-opacity="0.200000" points="279.1,-295.1 285.1,-293 279.1,-290.9 279.1,-295.1"/>
</g>
<!-- packages/util/time&#45;and/dist/index.js -->
<g id="node16" class="node">
<title>packages/util/time&#45;and/dist/index.js</title>
<g id="a_node16"><a xlink:href="packages/util/time-and/dist/index.js" xlink:title="index.js">
<polygon fill="#ffffcc" stroke="black" points="639,-708 637.5,-710 627,-710 625.5,-708 585,-708 585,-690 639,-690 639,-708"/>
<text text-anchor="start" x="594.5" y="-696.8" font-family="Helvetica,sans-Serif" font-size="9.00">index.js</text>
</a>
</g>
</g>
<!-- packages/music&#45;structure/melody/melody&#45;analyze/src/get&#45;time&#45;and&#45;melody.ts&#45;&gt;packages/util/time&#45;and/dist/index.js -->
<g id="edge19" class="edge">
<title>packages/music&#45;structure/melody/melody&#45;analyze/src/get&#45;time&#45;and&#45;melody.ts&#45;&gt;packages/util/time&#45;and/dist/index.js</title>
<path fill="none" stroke="#000000" stroke-width="2" stroke-opacity="0.200000" d="M199.61,-302.24C254.96,-355.5 532.98,-622.98 598.26,-685.79"/>
<polygon fill="#000000" fill-opacity="0.200000" stroke="#000000" stroke-width="2" stroke-opacity="0.200000" points="596.81,-687.3 602.59,-689.95 599.72,-684.27 596.81,-687.3"/>
</g>
<!-- packages/music&#45;structure/melody/melody&#45;analyze/src/melody&#45;analysis.ts&#45;&gt;packages/cognitive&#45;theory&#45;of&#45;music/irm/dist/index.js -->
<g id="edge22" class="edge">
<title>packages/music&#45;structure/melody/melody&#45;analyze/src/melody&#45;analysis.ts&#45;&gt;packages/cognitive&#45;theory&#45;of&#45;music/irm/dist/index.js</title>
<path fill="none" stroke="#000000" stroke-width="2" stroke-opacity="0.200000" d="M480.32,-223.88C502.63,-194.02 573.57,-99.08 600.5,-63.05"/>
<polygon fill="#000000" fill-opacity="0.200000" stroke="#000000" stroke-width="2" stroke-opacity="0.200000" points="602.23,-64.24 604.14,-58.18 598.87,-61.73 602.23,-64.24"/>
</g>
<!-- packages/music&#45;structure/melody/melody&#45;analyze/src/melody&#45;analysis.ts&#45;&gt;packages/music&#45;structure/melody/melody&#45;analyze/src/gravity.ts -->
<g id="edge21" class="edge">
<title>packages/music&#45;structure/melody/melody&#45;analyze/src/melody&#45;analysis.ts&#45;&gt;packages/music&#45;structure/melody/melody&#45;analyze/src/gravity.ts</title>
<path fill="none" stroke="#000000" stroke-width="2" stroke-opacity="0.200000" d="M522.36,-233C540.22,-233 560.03,-233 576.39,-233"/>
<polygon fill="#000000" fill-opacity="0.200000" stroke="#000000" stroke-width="2" stroke-opacity="0.200000" points="576.71,-235.1 582.71,-233 576.71,-230.9 576.71,-235.1"/>
</g>
<!-- packages/music&#45;structure/melody/melody&#45;analyze/src/melody&#45;analysis&#45;data.ts&#45;&gt;packages/music&#45;structure/melody/melody&#45;analyze/src/time&#45;and&#45;analyzed&#45;melody.ts -->
<g id="edge20" class="edge">
<title>packages/music&#45;structure/melody/melody&#45;analyze/src/melody&#45;analysis&#45;data.ts&#45;&gt;packages/music&#45;structure/melody/melody&#45;analyze/src/time&#45;and&#45;analyzed&#45;melody.ts</title>
<path fill="none" stroke="#000000" stroke-width="2" stroke-opacity="0.200000" d="M251.23,-233C253.33,-233 255.45,-233 257.57,-233"/>
<polygon fill="#000000" fill-opacity="0.200000" stroke="#000000" stroke-width="2" stroke-opacity="0.200000" points="257.95,-235.1 263.95,-233 257.95,-230.9 257.95,-235.1"/>
</g>
<!-- packages/music&#45;structure/melody/melody&#45;analyze/src/time&#45;and&#45;analyzed&#45;melody.ts&#45;&gt;packages/music&#45;structure/melody/melody&#45;analyze/src/melody&#45;analysis.ts -->
<g id="edge26" class="edge">
<title>packages/music&#45;structure/melody/melody&#45;analyze/src/time&#45;and&#45;analyzed&#45;melody.ts&#45;&gt;packages/music&#45;structure/melody/melody&#45;analyze/src/melody&#45;analysis.ts</title>
<path fill="none" stroke="#000000" stroke-width="2" stroke-opacity="0.200000" d="M410.22,-233C412.37,-233 414.51,-233 416.64,-233"/>
<polygon fill="#000000" fill-opacity="0.200000" stroke="#000000" stroke-width="2" stroke-opacity="0.200000" points="416.96,-235.1 422.96,-233 416.96,-230.9 416.96,-235.1"/>
</g>
<!-- packages/music&#45;structure/melody/melody&#45;analyze/src/time&#45;and&#45;analyzed&#45;melody.ts&#45;&gt;packages/util/time&#45;and/dist/index.js -->
<g id="edge27" class="edge">
<title>packages/music&#45;structure/melody/melody&#45;analyze/src/time&#45;and&#45;analyzed&#45;melody.ts&#45;&gt;packages/util/time&#45;and/dist/index.js</title>
<path fill="none" stroke="#000000" stroke-width="2" stroke-opacity="0.200000" d="M342.49,-242.31C376.73,-300.33 560.79,-612.22 603.25,-684.18"/>
<polygon fill="#000000" fill-opacity="0.200000" stroke="#000000" stroke-width="2" stroke-opacity="0.200000" points="601.64,-685.57 606.49,-689.67 605.25,-683.43 601.64,-685.57"/>
</g>
<!-- packages/music&#45;structure/melody/melody&#45;analyze/src/time&#45;and&#45;melody.ts&#45;&gt;packages/util/time&#45;and/dist/index.js -->
<g id="edge30" class="edge">
<title>packages/music&#45;structure/melody/melody&#45;analyze/src/time&#45;and&#45;melody.ts&#45;&gt;packages/util/time&#45;and/dist/index.js</title>
<path fill="none" stroke="#000000" stroke-width="2" stroke-opacity="0.200000" d="M343.26,-302.24C379.11,-355.18 558.34,-619.78 602.27,-684.63"/>
<polygon fill="#000000" fill-opacity="0.200000" stroke="#000000" stroke-width="2" stroke-opacity="0.200000" points="600.77,-686.16 605.87,-689.95 604.24,-683.8 600.77,-686.16"/>
</g>
<!-- packages/music&#45;structure/melody/melody&#45;analyze/src/register&#45;gravity.ts&#45;&gt;packages/music&#45;structure/melody/melody&#45;analyze/src/gravity.ts -->
<g id="edge23" class="edge">
<title>packages/music&#45;structure/melody/melody&#45;analyze/src/register&#45;gravity.ts&#45;&gt;packages/music&#45;structure/melody/melody&#45;analyze/src/gravity.ts</title>
<path fill="none" stroke="#000000" stroke-width="2" stroke-opacity="0.200000" d="M507.14,-260.95C528.36,-255.24 555.68,-247.89 576.97,-242.16"/>
<polygon fill="#000000" fill-opacity="0.200000" stroke="#000000" stroke-width="2" stroke-opacity="0.200000" points="577.56,-244.17 582.81,-240.59 576.47,-240.12 577.56,-244.17"/>
</g>
<!-- packages/music&#45;structure/melody/melody&#45;analyze/src/register&#45;gravity.ts&#45;&gt;packages/tonal&#45;objects/dist/index.js -->
<g id="edge25" class="edge">
<title>packages/music&#45;structure/melody/melody&#45;analyze/src/register&#45;gravity.ts&#45;&gt;packages/tonal&#45;objects/dist/index.js</title>
<path fill="none" stroke="#000000" stroke-width="2" stroke-opacity="0.200000" d="M475.77,-279.07C491.7,-342.67 586.59,-721.55 607.1,-803.41"/>
<polygon fill="#000000" fill-opacity="0.200000" stroke="#000000" stroke-width="2" stroke-opacity="0.200000" points="605.15,-804.29 608.65,-809.6 609.22,-803.27 605.15,-804.29"/>
</g>
<!-- packages/util/math/dist/index.js -->
<g id="node17" class="node">
<title>packages/util/math/dist/index.js</title>
<g id="a_node17"><a xlink:href="packages/util/math/dist/index.js" xlink:title="index.js">
<polygon fill="#ffffcc" stroke="black" points="639,-614 637.5,-616 627,-616 625.5,-614 585,-614 585,-596 639,-596 639,-614"/>
<text text-anchor="start" x="594.5" y="-602.8" font-family="Helvetica,sans-Serif" font-size="9.00">index.js</text>
</a>
</g>
</g>
<!-- packages/music&#45;structure/melody/melody&#45;analyze/src/register&#45;gravity.ts&#45;&gt;packages/util/math/dist/index.js -->
<g id="edge24" class="edge">
<title>packages/music&#45;structure/melody/melody&#45;analyze/src/register&#45;gravity.ts&#45;&gt;packages/util/math/dist/index.js</title>
<path fill="none" stroke="#000000" stroke-width="2" stroke-opacity="0.200000" d="M477.32,-279.31C496.4,-325.8 581.4,-532.89 604.94,-590.24"/>
<polygon fill="#000000" fill-opacity="0.200000" stroke="#000000" stroke-width="2" stroke-opacity="0.200000" points="603.04,-591.14 607.26,-595.89 606.93,-589.55 603.04,-591.14"/>
</g>
<!-- packages/music&#45;structure/melody/melody&#45;analyze/src/get&#45;time&#45;and&#45;chord.ts -->
<g id="node14" class="node">
<title>packages/music&#45;structure/melody/melody&#45;analyze/src/get&#45;time&#45;and&#45;chord.ts</title>
<g id="a_node14"><a xlink:href="packages/music-structure/melody/melody-analyze/src/get-time-and-chord.ts" xlink:title="get&#45;time&#45;and&#45;chord.ts">
<path fill="#ddfeff" stroke="black" d="M242,-332C242,-332 138,-332 138,-332 135,-332 132,-329 132,-326 132,-326 132,-320 132,-320 132,-317 135,-314 138,-314 138,-314 242,-314 242,-314 245,-314 248,-317 248,-320 248,-320 248,-326 248,-326 248,-329 245,-332 242,-332"/>
<text text-anchor="start" x="140" y="-320.8" font-family="Helvetica,sans-Serif" font-size="9.00">get&#45;time&#45;and&#45;chord.ts</text>
</a>
</g>
</g>
<!-- packages/music&#45;structure/melody/melody&#45;analyze/src/get&#45;time&#45;and&#45;chord.ts&#45;&gt;packages/music&#45;structure/chord/chord&#45;analyze/dist/index.js -->
<g id="edge16" class="edge">
<title>packages/music&#45;structure/melody/melody&#45;analyze/src/get&#45;time&#45;and&#45;chord.ts&#45;&gt;packages/music&#45;structure/chord/chord&#45;analyze/dist/index.js</title>
<path fill="none" stroke="#000000" stroke-width="2" stroke-opacity="0.200000" d="M201.43,-332.21C226.72,-354.53 291.4,-411.63 320.91,-437.68"/>
<polygon fill="#000000" fill-opacity="0.200000" stroke="#000000" stroke-width="2" stroke-opacity="0.200000" points="319.78,-439.48 325.67,-441.88 322.56,-436.33 319.78,-439.48"/>
</g>
<!-- packages/music&#45;structure/melody/melody&#45;analyze/src/get&#45;time&#45;and&#45;chord.ts&#45;&gt;packages/tonal&#45;objects/dist/index.js -->
<g id="edge17" class="edge">
<title>packages/music&#45;structure/melody/melody&#45;analyze/src/get&#45;time&#45;and&#45;chord.ts&#45;&gt;packages/tonal&#45;objects/dist/index.js</title>
<path fill="none" stroke="#000000" stroke-width="2" stroke-opacity="0.200000" d="M197.68,-332.03C248.63,-391.91 537.54,-731.48 600.07,-804.97"/>
<polygon fill="#000000" fill-opacity="0.200000" stroke="#000000" stroke-width="2" stroke-opacity="0.200000" points="598.68,-806.59 604.17,-809.8 601.88,-803.87 598.68,-806.59"/>
</g>
<!-- packages/music&#45;structure/melody/melody&#45;analyze/src/time&#45;and&#45;chord.ts -->
<g id="node15" class="node">
<title>packages/music&#45;structure/melody/melody&#45;analyze/src/time&#45;and&#45;chord.ts</title>
<g id="a_node15"><a xlink:href="packages/music-structure/melody/melody-analyze/src/time-and-chord.ts" xlink:title="time&#45;and&#45;chord.ts">
<path fill="#ddfeff" stroke="black" d="M380,-332C380,-332 294,-332 294,-332 291,-332 288,-329 288,-326 288,-326 288,-320 288,-320 288,-317 291,-314 294,-314 294,-314 380,-314 380,-314 383,-314 386,-317 386,-320 386,-320 386,-326 386,-326 386,-329 383,-332 380,-332"/>
<text text-anchor="start" x="296" y="-320.8" font-family="Helvetica,sans-Serif" font-size="9.00">time&#45;and&#45;chord.ts</text>
</a>
</g>
</g>
<!-- packages/music&#45;structure/melody/melody&#45;analyze/src/get&#45;time&#45;and&#45;chord.ts&#45;&gt;packages/music&#45;structure/melody/melody&#45;analyze/src/time&#45;and&#45;chord.ts -->
<g id="edge15" class="edge">
<title>packages/music&#45;structure/melody/melody&#45;analyze/src/get&#45;time&#45;and&#45;chord.ts&#45;&gt;packages/music&#45;structure/melody/melody&#45;analyze/src/time&#45;and&#45;chord.ts</title>
<path fill="none" stroke="#000000" stroke-width="2" stroke-opacity="0.200000" d="M248.31,-323C259.4,-323 270.98,-323 281.96,-323"/>
<polygon fill="#000000" fill-opacity="0.200000" stroke="#000000" stroke-width="2" stroke-opacity="0.200000" points="281.99,-325.1 287.99,-323 281.99,-320.9 281.99,-325.1"/>
</g>
<!-- packages/music&#45;structure/melody/melody&#45;analyze/src/time&#45;and&#45;chord.ts&#45;&gt;packages/tonal&#45;objects/dist/index.js -->
<g id="edge29" class="edge">
<title>packages/music&#45;structure/melody/melody&#45;analyze/src/time&#45;and&#45;chord.ts&#45;&gt;packages/tonal&#45;objects/dist/index.js</title>
<path fill="none" stroke="#000000" stroke-width="2" stroke-opacity="0.200000" d="M342.01,-332.03C375.14,-391.79 562.72,-730.12 603.98,-804.53"/>
<polygon fill="#000000" fill-opacity="0.200000" stroke="#000000" stroke-width="2" stroke-opacity="0.200000" points="602.15,-805.57 606.9,-809.8 605.82,-803.53 602.15,-805.57"/>
</g>
<!-- packages/music&#45;structure/melody/melody&#45;analyze/src/time&#45;and&#45;chord.ts&#45;&gt;packages/util/time&#45;and/dist/index.js -->
<g id="edge28" class="edge">
<title>packages/music&#45;structure/melody/melody&#45;analyze/src/time&#45;and&#45;chord.ts&#45;&gt;packages/util/time&#45;and/dist/index.js</title>
<path fill="none" stroke="#000000" stroke-width="2" stroke-opacity="0.200000" d="M343.8,-332.29C380.65,-382.68 556.47,-623.07 601.48,-684.62"/>
<polygon fill="#000000" fill-opacity="0.200000" stroke="#000000" stroke-width="2" stroke-opacity="0.200000" points="599.96,-686.09 605.19,-689.69 603.35,-683.61 599.96,-686.09"/>
</g>
</g>
</svg>
