<?xml version="1.0" encoding="UTF-8" standalone="no"?>
<!DOCTYPE svg PUBLIC "-//W3C//DTD SVG 1.1//EN"
 "http://www.w3.org/Graphics/SVG/1.1/DTD/svg11.dtd">
<!-- Generated by graphviz version 2.43.0 (0)
 -->
<!-- Title: dependency&#45;cruiser output Pages: 1 -->
<svg width="622pt" height="900pt"
 viewBox="0.00 0.00 622.00 900.00" xmlns="http://www.w3.org/2000/svg" xmlns:xlink="http://www.w3.org/1999/xlink">
<g id="graph0" class="graph" transform="scale(1 1) rotate(0) translate(4 896)">
<title>dependency&#45;cruiser output</title>
<polygon fill="white" stroke="transparent" points="-4,4 -4,-896 618,-896 618,4 -4,4"/>
<g id="clust1" class="cluster">
<title>cluster_packages</title>
<path fill="#ffffff" stroke="black" stroke-width="2" d="M20,-8C20,-8 602,-8 602,-8 608,-8 614,-14 614,-20 614,-20 614,-872 614,-872 614,-878 608,-884 602,-884 602,-884 20,-884 20,-884 14,-884 8,-878 8,-872 8,-872 8,-20 8,-20 8,-14 14,-8 20,-8"/>
<text text-anchor="middle" x="311" y="-872.8" font-family="Helvetica,sans-Serif" font-weight="bold" font-size="9.00">packages</text>
</g>
<g id="clust2" class="cluster">
<title>cluster_packages/cognitive&#45;theory&#45;of&#45;music</title>
<path fill="#ffffff" stroke="black" stroke-width="2" d="M469,-16C469,-16 594,-16 594,-16 600,-16 606,-22 606,-28 606,-28 606,-124 606,-124 606,-130 600,-136 594,-136 594,-136 469,-136 469,-136 463,-136 457,-130 457,-124 457,-124 457,-28 457,-28 457,-22 463,-16 469,-16"/>
<text text-anchor="middle" x="531.5" y="-124.8" font-family="Helvetica,sans-Serif" font-weight="bold" font-size="9.00">cognitive&#45;theory&#45;of&#45;music</text>
</g>
<g id="clust3" class="cluster">
<title>cluster_packages/cognitive&#45;theory&#45;of&#45;music/irm</title>
<path fill="#ffffff" stroke="black" stroke-width="2" d="M500,-24C500,-24 562,-24 562,-24 568,-24 574,-30 574,-36 574,-36 574,-98 574,-98 574,-104 568,-110 562,-110 562,-110 500,-110 500,-110 494,-110 488,-104 488,-98 488,-98 488,-36 488,-36 488,-30 494,-24 500,-24"/>
<text text-anchor="middle" x="531" y="-98.8" font-family="Helvetica,sans-Serif" font-weight="bold" font-size="9.00">irm</text>
</g>
<g id="clust4" class="cluster">
<title>cluster_packages/cognitive&#45;theory&#45;of&#45;music/irm/dist</title>
<path fill="#ffffff" stroke="black" stroke-width="2" d="M508,-32C508,-32 554,-32 554,-32 560,-32 566,-38 566,-44 566,-44 566,-72 566,-72 566,-78 560,-84 554,-84 554,-84 508,-84 508,-84 502,-84 496,-78 496,-72 496,-72 496,-44 496,-44 496,-38 502,-32 508,-32"/>
<text text-anchor="middle" x="531" y="-72.8" font-family="Helvetica,sans-Serif" font-weight="bold" font-size="9.00">dist</text>
</g>
<g id="clust5" class="cluster">
<title>cluster_packages/music&#45;structure</title>
<path fill="#ffffff" stroke="black" stroke-width="2" d="M28,-144C28,-144 580,-144 580,-144 586,-144 592,-150 592,-156 592,-156 592,-530 592,-530 592,-536 586,-542 580,-542 580,-542 28,-542 28,-542 22,-542 16,-536 16,-530 16,-530 16,-156 16,-156 16,-150 22,-144 28,-144"/>
<text text-anchor="middle" x="304" y="-530.8" font-family="Helvetica,sans-Serif" font-weight="bold" font-size="9.00">music&#45;structure</text>
</g>
<g id="clust6" class="cluster">
<title>cluster_packages/music&#45;structure/chord</title>
<path fill="#ffffff" stroke="black" stroke-width="2" d="M216,-396C216,-396 297,-396 297,-396 303,-396 309,-402 309,-408 309,-408 309,-504 309,-504 309,-510 303,-516 297,-516 297,-516 216,-516 216,-516 210,-516 204,-510 204,-504 204,-504 204,-408 204,-408 204,-402 210,-396 216,-396"/>
<text text-anchor="middle" x="256.5" y="-504.8" font-family="Helvetica,sans-Serif" font-weight="bold" font-size="9.00">chord</text>
</g>
<g id="clust7" class="cluster">
<title>cluster_packages/music&#45;structure/chord/chord&#45;analyze</title>
<path fill="#ffffff" stroke="black" stroke-width="2" d="M224,-404C224,-404 289,-404 289,-404 295,-404 301,-410 301,-416 301,-416 301,-478 301,-478 301,-484 295,-490 289,-490 289,-490 224,-490 224,-490 218,-490 212,-484 212,-478 212,-478 212,-416 212,-416 212,-410 218,-404 224,-404"/>
<text text-anchor="middle" x="256.5" y="-478.8" font-family="Helvetica,sans-Serif" font-weight="bold" font-size="9.00">chord&#45;analyze</text>
</g>
<g id="clust8" class="cluster">
<title>cluster_packages/music&#45;structure/chord/chord&#45;analyze/dist</title>
<path fill="#ffffff" stroke="black" stroke-width="2" d="M233,-412C233,-412 279,-412 279,-412 285,-412 291,-418 291,-424 291,-424 291,-452 291,-452 291,-458 285,-464 279,-464 279,-464 233,-464 233,-464 227,-464 221,-458 221,-452 221,-452 221,-424 221,-424 221,-418 227,-412 233,-412"/>
<text text-anchor="middle" x="256" y="-452.8" font-family="Helvetica,sans-Serif" font-weight="bold" font-size="9.00">dist</text>
</g>
<g id="clust9" class="cluster">
<title>cluster_packages/music&#45;structure/melody</title>
<path fill="#ffffff" stroke="black" stroke-width="2" d="M36,-152C36,-152 572,-152 572,-152 578,-152 584,-158 584,-164 584,-164 584,-376 584,-376 584,-382 578,-388 572,-388 572,-388 36,-388 36,-388 30,-388 24,-382 24,-376 24,-376 24,-164 24,-164 24,-158 30,-152 36,-152"/>
<text text-anchor="middle" x="304" y="-376.8" font-family="Helvetica,sans-Serif" font-weight="bold" font-size="9.00">melody</text>
</g>
<g id="clust10" class="cluster">
<title>cluster_packages/music&#45;structure/melody/melody&#45;analyze</title>
<path fill="#ffffff" stroke="black" stroke-width="2" d="M44,-160C44,-160 564,-160 564,-160 570,-160 576,-166 576,-172 576,-172 576,-350 576,-350 576,-356 570,-362 564,-362 564,-362 44,-362 44,-362 38,-362 32,-356 32,-350 32,-350 32,-172 32,-172 32,-166 38,-160 44,-160"/>
<text text-anchor="middle" x="304" y="-350.8" font-family="Helvetica,sans-Serif" font-weight="bold" font-size="9.00">melody&#45;analyze</text>
</g>
<g id="clust11" class="cluster">
<title>cluster_packages/music&#45;structure/melody/melody&#45;analyze/src</title>
<path fill="#ffffff" stroke="black" stroke-width="2" d="M52,-194C52,-194 556,-194 556,-194 562,-194 568,-200 568,-206 568,-206 568,-324 568,-324 568,-330 562,-336 556,-336 556,-336 52,-336 52,-336 46,-336 40,-330 40,-324 40,-324 40,-206 40,-206 40,-200 46,-194 52,-194"/>
<text text-anchor="middle" x="304" y="-324.8" font-family="Helvetica,sans-Serif" font-weight="bold" font-size="9.00">src</text>
</g>
<g id="clust12" class="cluster">
<title>cluster_packages/tonal&#45;objects</title>
<path fill="#ffffff" stroke="black" stroke-width="2" d="M500,-772C500,-772 562,-772 562,-772 568,-772 574,-778 574,-784 574,-784 574,-846 574,-846 574,-852 568,-858 562,-858 562,-858 500,-858 500,-858 494,-858 488,-852 488,-846 488,-846 488,-784 488,-784 488,-778 494,-772 500,-772"/>
<text text-anchor="middle" x="531" y="-846.8" font-family="Helvetica,sans-Serif" font-weight="bold" font-size="9.00">tonal&#45;objects</text>
</g>
<g id="clust13" class="cluster">
<title>cluster_packages/tonal&#45;objects/dist</title>
<path fill="#ffffff" stroke="black" stroke-width="2" d="M508,-780C508,-780 554,-780 554,-780 560,-780 566,-786 566,-792 566,-792 566,-820 566,-820 566,-826 560,-832 554,-832 554,-832 508,-832 508,-832 502,-832 496,-826 496,-820 496,-820 496,-792 496,-792 496,-786 502,-780 508,-780"/>
<text text-anchor="middle" x="531" y="-820.8" font-family="Helvetica,sans-Serif" font-weight="bold" font-size="9.00">dist</text>
</g>
<g id="clust14" class="cluster">
<title>cluster_packages/util</title>
<path fill="#ffffff" stroke="black" stroke-width="2" d="M492,-550C492,-550 570,-550 570,-550 576,-550 582,-556 582,-562 582,-562 582,-752 582,-752 582,-758 576,-764 570,-764 570,-764 492,-764 492,-764 486,-764 480,-758 480,-752 480,-752 480,-562 480,-562 480,-556 486,-550 492,-550"/>
<text text-anchor="middle" x="531" y="-752.8" font-family="Helvetica,sans-Serif" font-weight="bold" font-size="9.00">util</text>
</g>
<g id="clust15" class="cluster">
<title>cluster_packages/util/math</title>
<path fill="#ffffff" stroke="black" stroke-width="2" d="M500,-558C500,-558 562,-558 562,-558 568,-558 574,-564 574,-570 574,-570 574,-632 574,-632 574,-638 568,-644 562,-644 562,-644 500,-644 500,-644 494,-644 488,-638 488,-632 488,-632 488,-570 488,-570 488,-564 494,-558 500,-558"/>
<text text-anchor="middle" x="531" y="-632.8" font-family="Helvetica,sans-Serif" font-weight="bold" font-size="9.00">math</text>
</g>
<g id="clust16" class="cluster">
<title>cluster_packages/util/math/dist</title>
<path fill="#ffffff" stroke="black" stroke-width="2" d="M508,-566C508,-566 554,-566 554,-566 560,-566 566,-572 566,-578 566,-578 566,-606 566,-606 566,-612 560,-618 554,-618 554,-618 508,-618 508,-618 502,-618 496,-612 496,-606 496,-606 496,-578 496,-578 496,-572 502,-566 508,-566"/>
<text text-anchor="middle" x="531" y="-606.8" font-family="Helvetica,sans-Serif" font-weight="bold" font-size="9.00">dist</text>
</g>
<g id="clust17" class="cluster">
<title>cluster_packages/util/time&#45;and</title>
<path fill="#ffffff" stroke="black" stroke-width="2" d="M500,-652C500,-652 562,-652 562,-652 568,-652 574,-658 574,-664 574,-664 574,-726 574,-726 574,-732 568,-738 562,-738 562,-738 500,-738 500,-738 494,-738 488,-732 488,-726 488,-726 488,-664 488,-664 488,-658 494,-652 500,-652"/>
<text text-anchor="middle" x="531" y="-726.8" font-family="Helvetica,sans-Serif" font-weight="bold" font-size="9.00">time&#45;and</text>
</g>
<g id="clust18" class="cluster">
<title>cluster_packages/util/time&#45;and/dist</title>
<path fill="#ffffff" stroke="black" stroke-width="2" d="M508,-660C508,-660 554,-660 554,-660 560,-660 566,-666 566,-672 566,-672 566,-700 566,-700 566,-706 560,-712 554,-712 554,-712 508,-712 508,-712 502,-712 496,-706 496,-700 496,-700 496,-672 496,-672 496,-666 502,-660 508,-660"/>
<text text-anchor="middle" x="531" y="-700.8" font-family="Helvetica,sans-Serif" font-weight="bold" font-size="9.00">dist</text>
</g>
<!-- packages/cognitive&#45;theory&#45;of&#45;music/irm/dist/index.js -->
<g id="node1" class="node">
<title>packages/cognitive&#45;theory&#45;of&#45;music/irm/dist/index.js</title>
<g id="a_node1"><a xlink:href="packages/cognitive-theory-of-music/irm/dist/index.js" xlink:title="index.js">
<polygon fill="#ffffcc" stroke="black" points="558,-58 556.5,-60 546,-60 544.5,-58 504,-58 504,-40 558,-40 558,-58"/>
<text text-anchor="start" x="513.5" y="-46.8" font-family="Helvetica,sans-Serif" font-size="9.00">index.js</text>
</a>
</g>
</g>
<!-- packages/music&#45;structure/chord/chord&#45;analyze/dist/index.js -->
<g id="node2" class="node">
<title>packages/music&#45;structure/chord/chord&#45;analyze/dist/index.js</title>
<g id="a_node2"><a xlink:href="packages/music-structure/chord/chord-analyze/dist/index.js" xlink:title="index.js">
<polygon fill="#ffffcc" stroke="black" points="283,-438 281.5,-440 271,-440 269.5,-438 229,-438 229,-420 283,-420 283,-438"/>
<text text-anchor="start" x="238.5" y="-426.8" font-family="Helvetica,sans-Serif" font-size="9.00">index.js</text>
</a>
</g>
</g>
<!-- packages/music&#45;structure/melody/melody&#45;analyze/index.test.ts -->
<g id="node3" class="node">
<title>packages/music&#45;structure/melody/melody&#45;analyze/index.test.ts</title>
<g id="a_node3"><a xlink:href="packages/music-structure/melody/melody-analyze/index.test.ts" xlink:title="no&#45;orphans">
<path fill="#ccffcc" stroke="orange" d="M139.5,-186C139.5,-186 78.5,-186 78.5,-186 75.5,-186 72.5,-183 72.5,-180 72.5,-180 72.5,-174 72.5,-174 72.5,-171 75.5,-168 78.5,-168 78.5,-168 139.5,-168 139.5,-168 142.5,-168 145.5,-171 145.5,-174 145.5,-174 145.5,-180 145.5,-180 145.5,-183 142.5,-186 139.5,-186"/>
<text text-anchor="start" x="80.5" y="-174.8" font-family="Helvetica,sans-Serif" font-size="9.00" fill="orange">index.test.ts</text>
</a>
</g>
</g>
<!-- packages/music&#45;structure/melody/melody&#45;analyze/src/analyze&#45;melody.ts -->
<g id="node4" class="node">
<title>packages/music&#45;structure/melody/melody&#45;analyze/src/analyze&#45;melody.ts</title>
<g id="a_node4"><a xlink:href="packages/music-structure/melody/melody-analyze/src/analyze-melody.ts" xlink:title="analyze&#45;melody.ts">
<path fill="#ddfeff" stroke="black" d="M151,-250C151,-250 67,-250 67,-250 64,-250 61,-247 61,-244 61,-244 61,-238 61,-238 61,-235 64,-232 67,-232 67,-232 151,-232 151,-232 154,-232 157,-235 157,-238 157,-238 157,-244 157,-244 157,-247 154,-250 151,-250"/>
<text text-anchor="start" x="69" y="-238.8" font-family="Helvetica,sans-Serif" font-size="9.00">analyze&#45;melody.ts</text>
</a>
</g>
</g>
<!-- packages/music&#45;structure/melody/melody&#45;analyze/src/analyze&#45;melody.ts&#45;&gt;packages/cognitive&#45;theory&#45;of&#45;music/irm/dist/index.js -->
<g id="edge6" class="edge">
<title>packages/music&#45;structure/melody/melody&#45;analyze/src/analyze&#45;melody.ts&#45;&gt;packages/cognitive&#45;theory&#45;of&#45;music/irm/dist/index.js</title>
<path fill="none" stroke="#000000" stroke-width="2" stroke-opacity="0.200000" d="M128.79,-232C197.71,-200.64 427.26,-96.2 505,-60.83"/>
<polygon fill="#000000" fill-opacity="0.200000" stroke="#000000" stroke-width="2" stroke-opacity="0.200000" points="506.17,-62.6 510.76,-58.21 504.43,-58.78 506.17,-62.6"/>
</g>
<!-- packages/music&#45;structure/melody/melody&#45;analyze/src/analyze&#45;melody.ts&#45;&gt;packages/music&#45;structure/chord/chord&#45;analyze/dist/index.js -->
<g id="edge5" class="edge">
<title>packages/music&#45;structure/melody/melody&#45;analyze/src/analyze&#45;melody.ts&#45;&gt;packages/music&#45;structure/chord/chord&#45;analyze/dist/index.js</title>
<path fill="none" stroke="#000000" stroke-width="2" stroke-opacity="0.200000" d="M116.99,-250.07C140.29,-280.27 215.37,-377.62 243.88,-414.58"/>
<polygon fill="#000000" fill-opacity="0.200000" stroke="#000000" stroke-width="2" stroke-opacity="0.200000" points="242.41,-416.11 247.73,-419.58 245.73,-413.55 242.41,-416.11"/>
</g>
<!-- packages/music&#45;structure/melody/melody&#45;analyze/src/melody&#45;analysis.ts -->
<g id="node5" class="node">
<title>packages/music&#45;structure/melody/melody&#45;analyze/src/melody&#45;analysis.ts</title>
<g id="a_node5"><a xlink:href="packages/music-structure/melody/melody-analyze/src/melody-analysis.ts" xlink:title="melody&#45;analysis.ts">
<path fill="#ddfeff" stroke="black" d="M435,-225C435,-225 348,-225 348,-225 345,-225 342,-222 342,-219 342,-219 342,-213 342,-213 342,-210 345,-207 348,-207 348,-207 435,-207 435,-207 438,-207 441,-210 441,-213 441,-213 441,-219 441,-219 441,-222 438,-225 435,-225"/>
<text text-anchor="start" x="350" y="-213.8" font-family="Helvetica,sans-Serif" font-size="9.00">melody&#45;analysis.ts</text>
</a>
</g>
</g>
<!-- packages/music&#45;structure/melody/melody&#45;analyze/src/analyze&#45;melody.ts&#45;&gt;packages/music&#45;structure/melody/melody&#45;analyze/src/melody&#45;analysis.ts -->
<g id="edge1" class="edge">
<title>packages/music&#45;structure/melody/melody&#45;analyze/src/analyze&#45;melody.ts&#45;&gt;packages/music&#45;structure/melody/melody&#45;analyze/src/melody&#45;analysis.ts</title>
<path fill="none" stroke="#000000" stroke-width="2" stroke-opacity="0.200000" d="M157.24,-236.73C206.61,-232.36 283.26,-225.58 335.33,-220.97"/>
<polygon fill="#000000" fill-opacity="0.200000" stroke="#000000" stroke-width="2" stroke-opacity="0.200000" points="335.76,-223.04 341.55,-220.42 335.39,-218.86 335.76,-223.04"/>
</g>
<!-- packages/music&#45;structure/melody/melody&#45;analyze/src/register&#45;gravity.ts -->
<g id="node6" class="node">
<title>packages/music&#45;structure/melody/melody&#45;analyze/src/register&#45;gravity.ts</title>
<g id="a_node6"><a xlink:href="packages/music-structure/melody/melody-analyze/src/register-gravity.ts" xlink:title="register&#45;gravity.ts">
<path fill="#ddfeff" stroke="black" d="M433,-258C433,-258 350,-258 350,-258 347,-258 344,-255 344,-252 344,-252 344,-246 344,-246 344,-243 347,-240 350,-240 350,-240 433,-240 433,-240 436,-240 439,-243 439,-246 439,-246 439,-252 439,-252 439,-255 436,-258 433,-258"/>
<text text-anchor="start" x="352" y="-246.8" font-family="Helvetica,sans-Serif" font-size="9.00">register&#45;gravity.ts</text>
</a>
</g>
</g>
<!-- packages/music&#45;structure/melody/melody&#45;analyze/src/analyze&#45;melody.ts&#45;&gt;packages/music&#45;structure/melody/melody&#45;analyze/src/register&#45;gravity.ts -->
<g id="edge2" class="edge">
<title>packages/music&#45;structure/melody/melody&#45;analyze/src/analyze&#45;melody.ts&#45;&gt;packages/music&#45;structure/melody/melody&#45;analyze/src/register&#45;gravity.ts</title>
<path fill="none" stroke="#000000" stroke-width="2" stroke-opacity="0.200000" d="M157.24,-242.37C207.37,-243.79 285.62,-246 337.71,-247.48"/>
<polygon fill="#000000" fill-opacity="0.200000" stroke="#000000" stroke-width="2" stroke-opacity="0.200000" points="337.87,-249.58 343.93,-247.65 337.99,-245.38 337.87,-249.58"/>
</g>
<!-- packages/music&#45;structure/melody/melody&#45;analyze/src/time&#45;and&#45;analyzed&#45;melody.ts -->
<g id="node7" class="node">
<title>packages/music&#45;structure/melody/melody&#45;analyze/src/time&#45;and&#45;analyzed&#45;melody.ts</title>
<g id="a_node7"><a xlink:href="packages/music-structure/melody/melody-analyze/src/time-and-analyzed-melody.ts" xlink:title="time&#45;and&#45;analyzed&#45;melody.ts">
<path fill="#ddfeff" stroke="black" d="M323,-222C323,-222 189,-222 189,-222 186,-222 183,-219 183,-216 183,-216 183,-210 183,-210 183,-207 186,-204 189,-204 189,-204 323,-204 323,-204 326,-204 329,-207 329,-210 329,-210 329,-216 329,-216 329,-219 326,-222 323,-222"/>
<text text-anchor="start" x="191" y="-210.8" font-family="Helvetica,sans-Serif" font-size="9.00">time&#45;and&#45;analyzed&#45;melody.ts</text>
</a>
</g>
</g>
<!-- packages/music&#45;structure/melody/melody&#45;analyze/src/analyze&#45;melody.ts&#45;&gt;packages/music&#45;structure/melody/melody&#45;analyze/src/time&#45;and&#45;analyzed&#45;melody.ts -->
<g id="edge3" class="edge">
<title>packages/music&#45;structure/melody/melody&#45;analyze/src/analyze&#45;melody.ts&#45;&gt;packages/music&#45;structure/melody/melody&#45;analyze/src/time&#45;and&#45;analyzed&#45;melody.ts</title>
<path fill="none" stroke="#000000" stroke-width="2" stroke-opacity="0.200000" d="M156.68,-231.99C171.02,-229.22 186.91,-226.15 201.67,-223.3"/>
<polygon fill="#000000" fill-opacity="0.200000" stroke="#000000" stroke-width="2" stroke-opacity="0.200000" points="202.42,-225.29 207.91,-222.09 201.62,-221.17 202.42,-225.29"/>
</g>
<!-- packages/music&#45;structure/melody/melody&#45;analyze/src/time&#45;and&#45;melody.ts -->
<g id="node8" class="node">
<title>packages/music&#45;structure/melody/melody&#45;analyze/src/time&#45;and&#45;melody.ts</title>
<g id="a_node8"><a xlink:href="packages/music-structure/melody/melody-analyze/src/time-and-melody.ts" xlink:title="time&#45;and&#45;melody.ts">
<path fill="#ddfeff" stroke="black" d="M301.5,-280C301.5,-280 210.5,-280 210.5,-280 207.5,-280 204.5,-277 204.5,-274 204.5,-274 204.5,-268 204.5,-268 204.5,-265 207.5,-262 210.5,-262 210.5,-262 301.5,-262 301.5,-262 304.5,-262 307.5,-265 307.5,-268 307.5,-268 307.5,-274 307.5,-274 307.5,-277 304.5,-280 301.5,-280"/>
<text text-anchor="start" x="212.5" y="-268.8" font-family="Helvetica,sans-Serif" font-size="9.00">time&#45;and&#45;melody.ts</text>
</a>
</g>
</g>
<!-- packages/music&#45;structure/melody/melody&#45;analyze/src/analyze&#45;melody.ts&#45;&gt;packages/music&#45;structure/melody/melody&#45;analyze/src/time&#45;and&#45;melody.ts -->
<g id="edge4" class="edge">
<title>packages/music&#45;structure/melody/melody&#45;analyze/src/analyze&#45;melody.ts&#45;&gt;packages/music&#45;structure/melody/melody&#45;analyze/src/time&#45;and&#45;melody.ts</title>
<path fill="none" stroke="#000000" stroke-width="2" stroke-opacity="0.200000" d="M153.5,-250C169.78,-253.37 188.38,-257.22 205.18,-260.69"/>
<polygon fill="#000000" fill-opacity="0.200000" stroke="#000000" stroke-width="2" stroke-opacity="0.200000" points="204.97,-262.79 211.28,-261.95 205.83,-258.68 204.97,-262.79"/>
</g>
<!-- packages/tonal&#45;objects/dist/index.js -->
<g id="node9" class="node">
<title>packages/tonal&#45;objects/dist/index.js</title>
<g id="a_node9"><a xlink:href="packages/tonal-objects/dist/index.js" xlink:title="index.js">
<polygon fill="#ffffcc" stroke="black" points="558,-806 556.5,-808 546,-808 544.5,-806 504,-806 504,-788 558,-788 558,-806"/>
<text text-anchor="start" x="513.5" y="-794.8" font-family="Helvetica,sans-Serif" font-size="9.00">index.js</text>
</a>
</g>
</g>
<!-- packages/music&#45;structure/melody/melody&#45;analyze/src/analyze&#45;melody.ts&#45;&gt;packages/tonal&#45;objects/dist/index.js -->
<g id="edge7" class="edge">
<title>packages/music&#45;structure/melody/melody&#45;analyze/src/analyze&#45;melody.ts&#45;&gt;packages/tonal&#45;objects/dist/index.js</title>
<path fill="none" stroke="#000000" stroke-width="2" stroke-opacity="0.200000" d="M115.97,-250.19C165.16,-314.99 459.69,-703.04 520.15,-782.71"/>
<polygon fill="#000000" fill-opacity="0.200000" stroke="#000000" stroke-width="2" stroke-opacity="0.200000" points="518.8,-784.39 524.1,-787.9 522.14,-781.86 518.8,-784.39"/>
</g>
<!-- packages/music&#45;structure/melody/melody&#45;analyze/src/melody&#45;analysis.ts&#45;&gt;packages/cognitive&#45;theory&#45;of&#45;music/irm/dist/index.js -->
<g id="edge15" class="edge">
<title>packages/music&#45;structure/melody/melody&#45;analyze/src/melody&#45;analysis.ts&#45;&gt;packages/cognitive&#45;theory&#45;of&#45;music/irm/dist/index.js</title>
<path fill="none" stroke="#000000" stroke-width="2" stroke-opacity="0.200000" d="M400.29,-206.54C423.26,-178.64 490.85,-96.54 518.26,-63.26"/>
<polygon fill="#000000" fill-opacity="0.200000" stroke="#000000" stroke-width="2" stroke-opacity="0.200000" points="520.11,-64.32 522.3,-58.35 516.86,-61.65 520.11,-64.32"/>
</g>
<!-- packages/music&#45;structure/melody/melody&#45;analyze/src/gravity.ts -->
<g id="node14" class="node">
<title>packages/music&#45;structure/melody/melody&#45;analyze/src/gravity.ts</title>
<g id="a_node14"><a xlink:href="packages/music-structure/melody/melody-analyze/src/gravity.ts" xlink:title="gravity.ts">
<path fill="#ddfeff" stroke="black" d="M554,-241C554,-241 508,-241 508,-241 505,-241 502,-238 502,-235 502,-235 502,-229 502,-229 502,-226 505,-223 508,-223 508,-223 554,-223 554,-223 557,-223 560,-226 560,-229 560,-229 560,-235 560,-235 560,-238 557,-241 554,-241"/>
<text text-anchor="start" x="510" y="-229.8" font-family="Helvetica,sans-Serif" font-size="9.00">gravity.ts</text>
</a>
</g>
</g>
<!-- packages/music&#45;structure/melody/melody&#45;analyze/src/melody&#45;analysis.ts&#45;&gt;packages/music&#45;structure/melody/melody&#45;analyze/src/gravity.ts -->
<g id="edge14" class="edge">
<title>packages/music&#45;structure/melody/melody&#45;analyze/src/melody&#45;analysis.ts&#45;&gt;packages/music&#45;structure/melody/melody&#45;analyze/src/gravity.ts</title>
<path fill="none" stroke="#000000" stroke-width="2" stroke-opacity="0.200000" d="M441.36,-221.69C459.22,-223.76 479.03,-226.07 495.39,-227.97"/>
<polygon fill="#000000" fill-opacity="0.200000" stroke="#000000" stroke-width="2" stroke-opacity="0.200000" points="495.5,-230.1 501.71,-228.71 495.99,-225.93 495.5,-230.1"/>
</g>
<!-- packages/music&#45;structure/melody/melody&#45;analyze/src/register&#45;gravity.ts&#45;&gt;packages/tonal&#45;objects/dist/index.js -->
<g id="edge18" class="edge">
<title>packages/music&#45;structure/melody/melody&#45;analyze/src/register&#45;gravity.ts&#45;&gt;packages/tonal&#45;objects/dist/index.js</title>
<path fill="none" stroke="#000000" stroke-width="2" stroke-opacity="0.200000" d="M394.77,-258.05C410.7,-321.54 505.59,-699.73 526.1,-781.44"/>
<polygon fill="#000000" fill-opacity="0.200000" stroke="#000000" stroke-width="2" stroke-opacity="0.200000" points="524.15,-782.31 527.65,-787.62 528.22,-781.28 524.15,-782.31"/>
</g>
<!-- packages/music&#45;structure/melody/melody&#45;analyze/src/register&#45;gravity.ts&#45;&gt;packages/music&#45;structure/melody/melody&#45;analyze/src/gravity.ts -->
<g id="edge16" class="edge">
<title>packages/music&#45;structure/melody/melody&#45;analyze/src/register&#45;gravity.ts&#45;&gt;packages/music&#45;structure/melody/melody&#45;analyze/src/gravity.ts</title>
<path fill="none" stroke="#000000" stroke-width="2" stroke-opacity="0.200000" d="M439.05,-243.24C457.65,-240.95 478.67,-238.35 495.82,-236.23"/>
<polygon fill="#000000" fill-opacity="0.200000" stroke="#000000" stroke-width="2" stroke-opacity="0.200000" points="496.25,-238.29 501.95,-235.47 495.73,-234.12 496.25,-238.29"/>
</g>
<!-- packages/util/math/dist/index.js -->
<g id="node16" class="node">
<title>packages/util/math/dist/index.js</title>
<g id="a_node16"><a xlink:href="packages/util/math/dist/index.js" xlink:title="index.js">
<polygon fill="#ffffcc" stroke="black" points="558,-592 556.5,-594 546,-594 544.5,-592 504,-592 504,-574 558,-574 558,-592"/>
<text text-anchor="start" x="513.5" y="-580.8" font-family="Helvetica,sans-Serif" font-size="9.00">index.js</text>
</a>
</g>
</g>
<!-- packages/music&#45;structure/melody/melody&#45;analyze/src/register&#45;gravity.ts&#45;&gt;packages/util/math/dist/index.js -->
<g id="edge17" class="edge">
<title>packages/music&#45;structure/melody/melody&#45;analyze/src/register&#45;gravity.ts&#45;&gt;packages/util/math/dist/index.js</title>
<path fill="none" stroke="#000000" stroke-width="2" stroke-opacity="0.200000" d="M396.32,-258.28C415.4,-304.64 500.4,-511.1 523.94,-568.28"/>
<polygon fill="#000000" fill-opacity="0.200000" stroke="#000000" stroke-width="2" stroke-opacity="0.200000" points="522.04,-569.17 526.26,-573.92 525.92,-567.57 522.04,-569.17"/>
</g>
<!-- packages/music&#45;structure/melody/melody&#45;analyze/src/time&#45;and&#45;analyzed&#45;melody.ts&#45;&gt;packages/music&#45;structure/melody/melody&#45;analyze/src/melody&#45;analysis.ts -->
<g id="edge19" class="edge">
<title>packages/music&#45;structure/melody/melody&#45;analyze/src/time&#45;and&#45;analyzed&#45;melody.ts&#45;&gt;packages/music&#45;structure/melody/melody&#45;analyze/src/melody&#45;analysis.ts</title>
<path fill="none" stroke="#000000" stroke-width="2" stroke-opacity="0.200000" d="M329.22,-214.62C331.37,-214.67 333.51,-214.72 335.64,-214.77"/>
<polygon fill="#000000" fill-opacity="0.200000" stroke="#000000" stroke-width="2" stroke-opacity="0.200000" points="335.91,-216.87 341.96,-214.91 336.01,-212.67 335.91,-216.87"/>
</g>
<!-- packages/util/time&#45;and/dist/index.js -->
<g id="node13" class="node">
<title>packages/util/time&#45;and/dist/index.js</title>
<g id="a_node13"><a xlink:href="packages/util/time-and/dist/index.js" xlink:title="index.js">
<polygon fill="#ffffcc" stroke="black" points="558,-686 556.5,-688 546,-688 544.5,-686 504,-686 504,-668 558,-668 558,-686"/>
<text text-anchor="start" x="513.5" y="-674.8" font-family="Helvetica,sans-Serif" font-size="9.00">index.js</text>
</a>
</g>
</g>
<!-- packages/music&#45;structure/melody/melody&#45;analyze/src/time&#45;and&#45;analyzed&#45;melody.ts&#45;&gt;packages/util/time&#45;and/dist/index.js -->
<g id="edge20" class="edge">
<title>packages/music&#45;structure/melody/melody&#45;analyze/src/time&#45;and&#45;analyzed&#45;melody.ts&#45;&gt;packages/util/time&#45;and/dist/index.js</title>
<path fill="none" stroke="#000000" stroke-width="2" stroke-opacity="0.200000" d="M261.49,-222.27C295.73,-280.04 479.79,-590.59 522.25,-662.24"/>
<polygon fill="#000000" fill-opacity="0.200000" stroke="#000000" stroke-width="2" stroke-opacity="0.200000" points="520.63,-663.62 525.49,-667.71 524.24,-661.48 520.63,-663.62"/>
</g>
<!-- packages/music&#45;structure/melody/melody&#45;analyze/src/time&#45;and&#45;melody.ts&#45;&gt;packages/util/time&#45;and/dist/index.js -->
<g id="edge23" class="edge">
<title>packages/music&#45;structure/melody/melody&#45;analyze/src/time&#45;and&#45;melody.ts&#45;&gt;packages/util/time&#45;and/dist/index.js</title>
<path fill="none" stroke="#000000" stroke-width="2" stroke-opacity="0.200000" d="M262.26,-280.24C298.11,-333.18 477.34,-597.78 521.27,-662.63"/>
<polygon fill="#000000" fill-opacity="0.200000" stroke="#000000" stroke-width="2" stroke-opacity="0.200000" points="519.77,-664.16 524.87,-667.95 523.24,-661.8 519.77,-664.16"/>
</g>
<!-- packages/music&#45;structure/melody/melody&#45;analyze/src/get&#45;time&#45;and&#45;chord.ts -->
<g id="node10" class="node">
<title>packages/music&#45;structure/melody/melody&#45;analyze/src/get&#45;time&#45;and&#45;chord.ts</title>
<g id="a_node10"><a xlink:href="packages/music-structure/melody/melody-analyze/src/get-time-and-chord.ts" xlink:title="get&#45;time&#45;and&#45;chord.ts">
<path fill="#ddfeff" stroke="black" d="M161,-310C161,-310 57,-310 57,-310 54,-310 51,-307 51,-304 51,-304 51,-298 51,-298 51,-295 54,-292 57,-292 57,-292 161,-292 161,-292 164,-292 167,-295 167,-298 167,-298 167,-304 167,-304 167,-307 164,-310 161,-310"/>
<text text-anchor="start" x="59" y="-298.8" font-family="Helvetica,sans-Serif" font-size="9.00">get&#45;time&#45;and&#45;chord.ts</text>
</a>
</g>
</g>
<!-- packages/music&#45;structure/melody/melody&#45;analyze/src/get&#45;time&#45;and&#45;chord.ts&#45;&gt;packages/music&#45;structure/chord/chord&#45;analyze/dist/index.js -->
<g id="edge9" class="edge">
<title>packages/music&#45;structure/melody/melody&#45;analyze/src/get&#45;time&#45;and&#45;chord.ts&#45;&gt;packages/music&#45;structure/chord/chord&#45;analyze/dist/index.js</title>
<path fill="none" stroke="#000000" stroke-width="2" stroke-opacity="0.200000" d="M120.43,-310.21C145.72,-332.53 210.4,-389.63 239.91,-415.68"/>
<polygon fill="#000000" fill-opacity="0.200000" stroke="#000000" stroke-width="2" stroke-opacity="0.200000" points="238.78,-417.48 244.67,-419.88 241.56,-414.33 238.78,-417.48"/>
</g>
<!-- packages/music&#45;structure/melody/melody&#45;analyze/src/get&#45;time&#45;and&#45;chord.ts&#45;&gt;packages/tonal&#45;objects/dist/index.js -->
<g id="edge10" class="edge">
<title>packages/music&#45;structure/melody/melody&#45;analyze/src/get&#45;time&#45;and&#45;chord.ts&#45;&gt;packages/tonal&#45;objects/dist/index.js</title>
<path fill="none" stroke="#000000" stroke-width="2" stroke-opacity="0.200000" d="M116.68,-310.03C167.63,-369.91 456.54,-709.48 519.07,-782.97"/>
<polygon fill="#000000" fill-opacity="0.200000" stroke="#000000" stroke-width="2" stroke-opacity="0.200000" points="517.68,-784.59 523.17,-787.8 520.88,-781.87 517.68,-784.59"/>
</g>
<!-- packages/music&#45;structure/melody/melody&#45;analyze/src/time&#45;and&#45;chord.ts -->
<g id="node11" class="node">
<title>packages/music&#45;structure/melody/melody&#45;analyze/src/time&#45;and&#45;chord.ts</title>
<g id="a_node11"><a xlink:href="packages/music-structure/melody/melody-analyze/src/time-and-chord.ts" xlink:title="time&#45;and&#45;chord.ts">
<path fill="#ddfeff" stroke="black" d="M299,-310C299,-310 213,-310 213,-310 210,-310 207,-307 207,-304 207,-304 207,-298 207,-298 207,-295 210,-292 213,-292 213,-292 299,-292 299,-292 302,-292 305,-295 305,-298 305,-298 305,-304 305,-304 305,-307 302,-310 299,-310"/>
<text text-anchor="start" x="215" y="-298.8" font-family="Helvetica,sans-Serif" font-size="9.00">time&#45;and&#45;chord.ts</text>
</a>
</g>
</g>
<!-- packages/music&#45;structure/melody/melody&#45;analyze/src/get&#45;time&#45;and&#45;chord.ts&#45;&gt;packages/music&#45;structure/melody/melody&#45;analyze/src/time&#45;and&#45;chord.ts -->
<g id="edge8" class="edge">
<title>packages/music&#45;structure/melody/melody&#45;analyze/src/get&#45;time&#45;and&#45;chord.ts&#45;&gt;packages/music&#45;structure/melody/melody&#45;analyze/src/time&#45;and&#45;chord.ts</title>
<path fill="none" stroke="#000000" stroke-width="2" stroke-opacity="0.200000" d="M167.31,-301C178.4,-301 189.98,-301 200.96,-301"/>
<polygon fill="#000000" fill-opacity="0.200000" stroke="#000000" stroke-width="2" stroke-opacity="0.200000" points="200.99,-303.1 206.99,-301 200.99,-298.9 200.99,-303.1"/>
</g>
<!-- packages/music&#45;structure/melody/melody&#45;analyze/src/time&#45;and&#45;chord.ts&#45;&gt;packages/tonal&#45;objects/dist/index.js -->
<g id="edge22" class="edge">
<title>packages/music&#45;structure/melody/melody&#45;analyze/src/time&#45;and&#45;chord.ts&#45;&gt;packages/tonal&#45;objects/dist/index.js</title>
<path fill="none" stroke="#000000" stroke-width="2" stroke-opacity="0.200000" d="M261.01,-310.03C294.14,-369.79 481.72,-708.12 522.98,-782.53"/>
<polygon fill="#000000" fill-opacity="0.200000" stroke="#000000" stroke-width="2" stroke-opacity="0.200000" points="521.15,-783.57 525.9,-787.8 524.82,-781.53 521.15,-783.57"/>
</g>
<!-- packages/music&#45;structure/melody/melody&#45;analyze/src/time&#45;and&#45;chord.ts&#45;&gt;packages/util/time&#45;and/dist/index.js -->
<g id="edge21" class="edge">
<title>packages/music&#45;structure/melody/melody&#45;analyze/src/time&#45;and&#45;chord.ts&#45;&gt;packages/util/time&#45;and/dist/index.js</title>
<path fill="none" stroke="#000000" stroke-width="2" stroke-opacity="0.200000" d="M262.8,-310.29C299.65,-360.68 475.47,-601.07 520.48,-662.62"/>
<polygon fill="#000000" fill-opacity="0.200000" stroke="#000000" stroke-width="2" stroke-opacity="0.200000" points="518.96,-664.09 524.19,-667.69 522.35,-661.61 518.96,-664.09"/>
</g>
<!-- packages/music&#45;structure/melody/melody&#45;analyze/src/get&#45;time&#45;and&#45;melody.ts -->
<g id="node12" class="node">
<title>packages/music&#45;structure/melody/melody&#45;analyze/src/get&#45;time&#45;and&#45;melody.ts</title>
<g id="a_node12"><a xlink:href="packages/music-structure/melody/melody-analyze/src/get-time-and-melody.ts" xlink:title="get&#45;time&#45;and&#45;melody.ts">
<path fill="#ddfeff" stroke="black" d="M163.5,-280C163.5,-280 54.5,-280 54.5,-280 51.5,-280 48.5,-277 48.5,-274 48.5,-274 48.5,-268 48.5,-268 48.5,-265 51.5,-262 54.5,-262 54.5,-262 163.5,-262 163.5,-262 166.5,-262 169.5,-265 169.5,-268 169.5,-268 169.5,-274 169.5,-274 169.5,-277 166.5,-280 163.5,-280"/>
<text text-anchor="start" x="56.5" y="-268.8" font-family="Helvetica,sans-Serif" font-size="9.00">get&#45;time&#45;and&#45;melody.ts</text>
</a>
</g>
</g>
<!-- packages/music&#45;structure/melody/melody&#45;analyze/src/get&#45;time&#45;and&#45;melody.ts&#45;&gt;packages/music&#45;structure/melody/melody&#45;analyze/src/time&#45;and&#45;melody.ts -->
<g id="edge11" class="edge">
<title>packages/music&#45;structure/melody/melody&#45;analyze/src/get&#45;time&#45;and&#45;melody.ts&#45;&gt;packages/music&#45;structure/melody/melody&#45;analyze/src/time&#45;and&#45;melody.ts</title>
<path fill="none" stroke="#000000" stroke-width="2" stroke-opacity="0.200000" d="M169.81,-271C179.16,-271 188.79,-271 198.07,-271"/>
<polygon fill="#000000" fill-opacity="0.200000" stroke="#000000" stroke-width="2" stroke-opacity="0.200000" points="198.1,-273.1 204.1,-271 198.1,-268.9 198.1,-273.1"/>
</g>
<!-- packages/music&#45;structure/melody/melody&#45;analyze/src/get&#45;time&#45;and&#45;melody.ts&#45;&gt;packages/util/time&#45;and/dist/index.js -->
<g id="edge12" class="edge">
<title>packages/music&#45;structure/melody/melody&#45;analyze/src/get&#45;time&#45;and&#45;melody.ts&#45;&gt;packages/util/time&#45;and/dist/index.js</title>
<path fill="none" stroke="#000000" stroke-width="2" stroke-opacity="0.200000" d="M118.61,-280.24C173.96,-333.5 451.98,-600.98 517.26,-663.79"/>
<polygon fill="#000000" fill-opacity="0.200000" stroke="#000000" stroke-width="2" stroke-opacity="0.200000" points="515.81,-665.3 521.59,-667.95 518.72,-662.27 515.81,-665.3"/>
</g>
<!-- packages/music&#45;structure/melody/melody&#45;analyze/src/melody&#45;analysis&#45;data.ts -->
<g id="node15" class="node">
<title>packages/music&#45;structure/melody/melody&#45;analyze/src/melody&#45;analysis&#45;data.ts</title>
<g id="a_node15"><a xlink:href="packages/music-structure/melody/melody-analyze/src/melody-analysis-data.ts" xlink:title="melody&#45;analysis&#45;data.ts">
<path fill="#ddfeff" stroke="black" d="M164,-220C164,-220 54,-220 54,-220 51,-220 48,-217 48,-214 48,-214 48,-208 48,-208 48,-205 51,-202 54,-202 54,-202 164,-202 164,-202 167,-202 170,-205 170,-208 170,-208 170,-214 170,-214 170,-217 167,-220 164,-220"/>
<text text-anchor="start" x="56" y="-208.8" font-family="Helvetica,sans-Serif" font-size="9.00">melody&#45;analysis&#45;data.ts</text>
</a>
</g>
</g>
<!-- packages/music&#45;structure/melody/melody&#45;analyze/src/melody&#45;analysis&#45;data.ts&#45;&gt;packages/music&#45;structure/melody/melody&#45;analyze/src/time&#45;and&#45;analyzed&#45;melody.ts -->
<g id="edge13" class="edge">
<title>packages/music&#45;structure/melody/melody&#45;analyze/src/melody&#45;analysis&#45;data.ts&#45;&gt;packages/music&#45;structure/melody/melody&#45;analyze/src/time&#45;and&#45;analyzed&#45;melody.ts</title>
<path fill="none" stroke="#000000" stroke-width="2" stroke-opacity="0.200000" d="M170.23,-211.83C172.33,-211.86 174.45,-211.89 176.57,-211.92"/>
<polygon fill="#000000" fill-opacity="0.200000" stroke="#000000" stroke-width="2" stroke-opacity="0.200000" points="176.92,-214.02 182.95,-212.01 176.98,-209.82 176.92,-214.02"/>
</g>
</g>
</svg>
