<?xml version="1.0" encoding="UTF-8" standalone="no"?>
<!DOCTYPE svg PUBLIC "-//W3C//DTD SVG 1.1//EN"
 "http://www.w3.org/Graphics/SVG/1.1/DTD/svg11.dtd">
<!-- Generated by graphviz version 2.43.0 (0)
 -->
<!-- Title: dependency&#45;cruiser output Pages: 1 -->
<svg width="651pt" height="450pt"
 viewBox="0.00 0.00 651.34 450.44" xmlns="http://www.w3.org/2000/svg" xmlns:xlink="http://www.w3.org/1999/xlink">
<g id="graph0" class="graph" transform="scale(1 1) rotate(0) translate(4 446.44)">
<title>dependency&#45;cruiser output</title>
<polygon fill="white" stroke="transparent" points="-4,4 -4,-446.44 647.34,-446.44 647.34,4 -4,4"/>
<g id="clust1" class="cluster">
<title>cluster_packages</title>
<path fill="#ffffff" stroke="black" stroke-width="2" d="M12,0C12,0 631.34,0 631.34,0 637.34,0 643.34,-6 643.34,-12 643.34,-12 643.34,-430.44 643.34,-430.44 643.34,-436.44 637.34,-442.44 631.34,-442.44 631.34,-442.44 12,-442.44 12,-442.44 6,-442.44 0,-436.44 0,-430.44 0,-430.44 0,-12 0,-12 0,-6 6,0 12,0"/>
<text text-anchor="middle" x="321.67" y="-431.24" font-family="Helvetica,sans-Serif" font-weight="bold" font-size="9.00">packages</text>
</g>
<!-- packages/cognitive&#45;theory&#45;of&#45;music/irm/dist/index.js -->
<g id="node1" class="node">
<title>packages/cognitive&#45;theory&#45;of&#45;music/irm/dist/index.js</title>
<g id="a_node1"><a xlink:href="packages/cognitive-theory-of-music/irm/dist/index.js" xlink:title="index.js">
<polygon fill="#ffffcc" stroke="black" points="274.15,-407.75 272.65,-409.75 262.15,-409.75 260.65,-407.75 220.15,-407.75 220.15,-389.75 274.15,-389.75 274.15,-407.75"/>
<text text-anchor="start" x="229.65" y="-396.55" font-family="Helvetica,sans-Serif" font-size="9.00">index.js</text>
</a>
</g>
</g>
<!-- packages/music&#45;structure/chord/chord&#45;analyze/dist/index.js -->
<g id="node2" class="node">
<title>packages/music&#45;structure/chord/chord&#45;analyze/dist/index.js</title>
<g id="a_node2"><a xlink:href="packages/music-structure/chord/chord-analyze/dist/index.js" xlink:title="index.js">
<polygon fill="#ffffcc" stroke="black" points="515.85,-168.02 514.35,-170.02 503.85,-170.02 502.35,-168.02 461.85,-168.02 461.85,-150.02 515.85,-150.02 515.85,-168.02"/>
<text text-anchor="start" x="471.35" y="-156.82" font-family="Helvetica,sans-Serif" font-size="9.00">index.js</text>
</a>
</g>
</g>
<!-- packages/music&#45;structure/melody/melody&#45;analyze/index.test.ts -->
<g id="node3" class="node">
<title>packages/music&#45;structure/melody/melody&#45;analyze/index.test.ts</title>
<g id="a_node3"><a xlink:href="packages/music-structure/melody/melody-analyze/index.test.ts" xlink:title="no&#45;orphans">
<path fill="#ccffcc" stroke="orange" d="M613,-438C613,-438 552,-438 552,-438 549,-438 546,-435 546,-432 546,-432 546,-426 546,-426 546,-423 549,-420 552,-420 552,-420 613,-420 613,-420 616,-420 619,-423 619,-426 619,-426 619,-432 619,-432 619,-435 616,-438 613,-438"/>
<text text-anchor="start" x="554" y="-426.8" font-family="Helvetica,sans-Serif" font-size="9.00" fill="orange">index.test.ts</text>
</a>
</g>
</g>
<!-- packages/music&#45;structure/melody/melody&#45;analyze/src/analyze&#45;melody.ts -->
<g id="node4" class="node">
<title>packages/music&#45;structure/melody/melody&#45;analyze/src/analyze&#45;melody.ts</title>
<g id="a_node4"><a xlink:href="packages/music-structure/melody/melody-analyze/src/analyze-melody.ts" xlink:title="analyze&#45;melody.ts">
<path fill="#ddfeff" stroke="black" d="M376.6,-248.19C376.6,-248.19 292.6,-248.19 292.6,-248.19 289.6,-248.19 286.6,-245.19 286.6,-242.19 286.6,-242.19 286.6,-236.19 286.6,-236.19 286.6,-233.19 289.6,-230.19 292.6,-230.19 292.6,-230.19 376.6,-230.19 376.6,-230.19 379.6,-230.19 382.6,-233.19 382.6,-236.19 382.6,-236.19 382.6,-242.19 382.6,-242.19 382.6,-245.19 379.6,-248.19 376.6,-248.19"/>
<text text-anchor="start" x="294.6" y="-236.99" font-family="Helvetica,sans-Serif" font-size="9.00">analyze&#45;melody.ts</text>
</a>
</g>
</g>
<!-- packages/music&#45;structure/melody/melody&#45;analyze/src/analyze&#45;melody.ts&#45;&gt;packages/cognitive&#45;theory&#45;of&#45;music/irm/dist/index.js -->
<g id="edge6" class="edge">
<title>packages/music&#45;structure/melody/melody&#45;analyze/src/analyze&#45;melody.ts&#45;&gt;packages/cognitive&#45;theory&#45;of&#45;music/irm/dist/index.js</title>
<path fill="none" stroke="#000000" stroke-width="2" stroke-opacity="0.200000" d="M329.64,-248.23C315.22,-274.54 273.15,-351.31 255.31,-383.87"/>
<polygon fill="#000000" fill-opacity="0.200000" stroke="#000000" stroke-width="2" stroke-opacity="0.200000" points="253.31,-383.14 252.27,-389.41 257,-385.16 253.31,-383.14"/>
</g>
<!-- packages/music&#45;structure/melody/melody&#45;analyze/src/analyze&#45;melody.ts&#45;&gt;packages/music&#45;structure/chord/chord&#45;analyze/dist/index.js -->
<g id="edge5" class="edge">
<title>packages/music&#45;structure/melody/melody&#45;analyze/src/analyze&#45;melody.ts&#45;&gt;packages/music&#45;structure/chord/chord&#45;analyze/dist/index.js</title>
<path fill="none" stroke="#000000" stroke-width="2" stroke-opacity="0.200000" d="M351.99,-230.15C379.88,-215.66 434.62,-187.21 465.75,-171.03"/>
<polygon fill="#000000" fill-opacity="0.200000" stroke="#000000" stroke-width="2" stroke-opacity="0.200000" points="466.92,-172.79 471.28,-168.15 464.99,-169.06 466.92,-172.79"/>
</g>
<!-- packages/music&#45;structure/melody/melody&#45;analyze/src/melody&#45;analysis.ts -->
<g id="node5" class="node">
<title>packages/music&#45;structure/melody/melody&#45;analyze/src/melody&#45;analysis.ts</title>
<g id="a_node5"><a xlink:href="packages/music-structure/melody/melody-analyze/src/melody-analysis.ts" xlink:title="melody&#45;analysis.ts">
<path fill="#ddfeff" stroke="black" d="M355,-361.23C355,-361.23 268,-361.23 268,-361.23 265,-361.23 262,-358.23 262,-355.23 262,-355.23 262,-349.23 262,-349.23 262,-346.23 265,-343.23 268,-343.23 268,-343.23 355,-343.23 355,-343.23 358,-343.23 361,-346.23 361,-349.23 361,-349.23 361,-355.23 361,-355.23 361,-358.23 358,-361.23 355,-361.23"/>
<text text-anchor="start" x="270" y="-350.03" font-family="Helvetica,sans-Serif" font-size="9.00">melody&#45;analysis.ts</text>
</a>
</g>
</g>
<!-- packages/music&#45;structure/melody/melody&#45;analyze/src/analyze&#45;melody.ts&#45;&gt;packages/music&#45;structure/melody/melody&#45;analyze/src/melody&#45;analysis.ts -->
<g id="edge1" class="edge">
<title>packages/music&#45;structure/melody/melody&#45;analyze/src/analyze&#45;melody.ts&#45;&gt;packages/music&#45;structure/melody/melody&#45;analyze/src/melody&#45;analysis.ts</title>
<path fill="none" stroke="#000000" stroke-width="2" stroke-opacity="0.200000" d="M332.71,-248.44C328.73,-267.92 319.46,-313.29 314.6,-337.07"/>
<polygon fill="#000000" fill-opacity="0.200000" stroke="#000000" stroke-width="2" stroke-opacity="0.200000" points="312.5,-336.87 313.35,-343.17 316.61,-337.71 312.5,-336.87"/>
</g>
<!-- packages/music&#45;structure/melody/melody&#45;analyze/src/register&#45;gravity.ts -->
<g id="node6" class="node">
<title>packages/music&#45;structure/melody/melody&#45;analyze/src/register&#45;gravity.ts</title>
<g id="a_node6"><a xlink:href="packages/music-structure/melody/melody-analyze/src/register-gravity.ts" xlink:title="register&#45;gravity.ts">
<path fill="#ddfeff" stroke="black" d="M513.19,-301.73C513.19,-301.73 430.19,-301.73 430.19,-301.73 427.19,-301.73 424.19,-298.73 424.19,-295.73 424.19,-295.73 424.19,-289.73 424.19,-289.73 424.19,-286.73 427.19,-283.73 430.19,-283.73 430.19,-283.73 513.19,-283.73 513.19,-283.73 516.19,-283.73 519.19,-286.73 519.19,-289.73 519.19,-289.73 519.19,-295.73 519.19,-295.73 519.19,-298.73 516.19,-301.73 513.19,-301.73"/>
<text text-anchor="start" x="432.19" y="-290.53" font-family="Helvetica,sans-Serif" font-size="9.00">register&#45;gravity.ts</text>
</a>
</g>
</g>
<!-- packages/music&#45;structure/melody/melody&#45;analyze/src/analyze&#45;melody.ts&#45;&gt;packages/music&#45;structure/melody/melody&#45;analyze/src/register&#45;gravity.ts -->
<g id="edge2" class="edge">
<title>packages/music&#45;structure/melody/melody&#45;analyze/src/analyze&#45;melody.ts&#45;&gt;packages/music&#45;structure/melody/melody&#45;analyze/src/register&#45;gravity.ts</title>
<path fill="none" stroke="#000000" stroke-width="2" stroke-opacity="0.200000" d="M357.85,-248.28C381.19,-257.39 417.21,-271.46 442.47,-281.32"/>
<polygon fill="#000000" fill-opacity="0.200000" stroke="#000000" stroke-width="2" stroke-opacity="0.200000" points="441.97,-283.38 448.32,-283.61 443.5,-279.47 441.97,-283.38"/>
</g>
<!-- packages/music&#45;structure/melody/melody&#45;analyze/src/time&#45;and&#45;analyzed&#45;melody.ts -->
<g id="node7" class="node">
<title>packages/music&#45;structure/melody/melody&#45;analyze/src/time&#45;and&#45;analyzed&#45;melody.ts</title>
<g id="a_node7"><a xlink:href="packages/music-structure/melody/melody-analyze/src/time-and-analyzed-melody.ts" xlink:title="time&#45;and&#45;analyzed&#45;melody.ts">
<path fill="#ddfeff" stroke="black" d="M272.58,-249.53C272.58,-249.53 138.58,-249.53 138.58,-249.53 135.58,-249.53 132.58,-246.53 132.58,-243.53 132.58,-243.53 132.58,-237.53 132.58,-237.53 132.58,-234.53 135.58,-231.53 138.58,-231.53 138.58,-231.53 272.58,-231.53 272.58,-231.53 275.58,-231.53 278.58,-234.53 278.58,-237.53 278.58,-237.53 278.58,-243.53 278.58,-243.53 278.58,-246.53 275.58,-249.53 272.58,-249.53"/>
<text text-anchor="start" x="140.58" y="-238.33" font-family="Helvetica,sans-Serif" font-size="9.00">time&#45;and&#45;analyzed&#45;melody.ts</text>
</a>
</g>
</g>
<!-- packages/music&#45;structure/melody/melody&#45;analyze/src/analyze&#45;melody.ts&#45;&gt;packages/music&#45;structure/melody/melody&#45;analyze/src/time&#45;and&#45;analyzed&#45;melody.ts -->
<g id="edge3" class="edge">
<title>packages/music&#45;structure/melody/melody&#45;analyze/src/analyze&#45;melody.ts&#45;&gt;packages/music&#45;structure/melody/melody&#45;analyze/src/time&#45;and&#45;analyzed&#45;melody.ts</title>
<path fill="none" stroke="#000000" stroke-width="2" stroke-opacity="0.200000" d="M286.56,-239.69C286.07,-239.7 285.59,-239.7 285.1,-239.71"/>
<polygon fill="#000000" fill-opacity="0.200000" stroke="#000000" stroke-width="2" stroke-opacity="0.200000" points="284.7,-237.61 278.72,-239.77 284.75,-241.81 284.7,-237.61"/>
</g>
<!-- packages/music&#45;structure/melody/melody&#45;analyze/src/time&#45;and&#45;melody.ts -->
<g id="node8" class="node">
<title>packages/music&#45;structure/melody/melody&#45;analyze/src/time&#45;and&#45;melody.ts</title>
<g id="a_node8"><a xlink:href="packages/music-structure/melody/melody-analyze/src/time-and-melody.ts" xlink:title="time&#45;and&#45;melody.ts">
<path fill="#ddfeff" stroke="black" d="M246.96,-150.63C246.96,-150.63 155.96,-150.63 155.96,-150.63 152.96,-150.63 149.96,-147.63 149.96,-144.63 149.96,-144.63 149.96,-138.63 149.96,-138.63 149.96,-135.63 152.96,-132.63 155.96,-132.63 155.96,-132.63 246.96,-132.63 246.96,-132.63 249.96,-132.63 252.96,-135.63 252.96,-138.63 252.96,-138.63 252.96,-144.63 252.96,-144.63 252.96,-147.63 249.96,-150.63 246.96,-150.63"/>
<text text-anchor="start" x="157.96" y="-139.43" font-family="Helvetica,sans-Serif" font-size="9.00">time&#45;and&#45;melody.ts</text>
</a>
</g>
</g>
<!-- packages/music&#45;structure/melody/melody&#45;analyze/src/analyze&#45;melody.ts&#45;&gt;packages/music&#45;structure/melody/melody&#45;analyze/src/time&#45;and&#45;melody.ts -->
<g id="edge4" class="edge">
<title>packages/music&#45;structure/melody/melody&#45;analyze/src/analyze&#45;melody.ts&#45;&gt;packages/music&#45;structure/melody/melody&#45;analyze/src/time&#45;and&#45;melody.ts</title>
<path fill="none" stroke="#000000" stroke-width="2" stroke-opacity="0.200000" d="M322.31,-230.19C298.65,-212.85 246.69,-174.78 219.25,-154.67"/>
<polygon fill="#000000" fill-opacity="0.200000" stroke="#000000" stroke-width="2" stroke-opacity="0.200000" points="220.19,-152.75 214.11,-150.9 217.7,-156.14 220.19,-152.75"/>
</g>
<!-- packages/tonal&#45;objects/dist/index.js -->
<g id="node9" class="node">
<title>packages/tonal&#45;objects/dist/index.js</title>
<g id="a_node9"><a xlink:href="packages/tonal-objects/dist/index.js" xlink:title="index.js">
<polygon fill="#ffffcc" stroke="black" points="447.52,-154.19 446.02,-156.19 435.52,-156.19 434.02,-154.19 393.52,-154.19 393.52,-136.19 447.52,-136.19 447.52,-154.19"/>
<text text-anchor="start" x="403.02" y="-142.99" font-family="Helvetica,sans-Serif" font-size="9.00">index.js</text>
</a>
</g>
</g>
<!-- packages/music&#45;structure/melody/melody&#45;analyze/src/analyze&#45;melody.ts&#45;&gt;packages/tonal&#45;objects/dist/index.js -->
<g id="edge7" class="edge">
<title>packages/music&#45;structure/melody/melody&#45;analyze/src/analyze&#45;melody.ts&#45;&gt;packages/tonal&#45;objects/dist/index.js</title>
<path fill="none" stroke="#000000" stroke-width="2" stroke-opacity="0.200000" d="M342.83,-230.18C357.94,-213.66 390.13,-178.43 407.97,-158.92"/>
<polygon fill="#000000" fill-opacity="0.200000" stroke="#000000" stroke-width="2" stroke-opacity="0.200000" points="409.68,-160.16 412.18,-154.31 406.58,-157.33 409.68,-160.16"/>
</g>
<!-- packages/music&#45;structure/melody/melody&#45;analyze/src/melody&#45;analysis.ts&#45;&gt;packages/cognitive&#45;theory&#45;of&#45;music/irm/dist/index.js -->
<g id="edge15" class="edge">
<title>packages/music&#45;structure/melody/melody&#45;analyze/src/melody&#45;analysis.ts&#45;&gt;packages/cognitive&#45;theory&#45;of&#45;music/irm/dist/index.js</title>
<path fill="none" stroke="#000000" stroke-width="2" stroke-opacity="0.200000" d="M298.79,-361.42C289.09,-368.43 275.62,-378.17 264.87,-385.94"/>
<polygon fill="#000000" fill-opacity="0.200000" stroke="#000000" stroke-width="2" stroke-opacity="0.200000" points="263.47,-384.36 259.84,-389.58 265.93,-387.76 263.47,-384.36"/>
</g>
<!-- packages/music&#45;structure/melody/melody&#45;analyze/src/gravity.ts -->
<g id="node14" class="node">
<title>packages/music&#45;structure/melody/melody&#45;analyze/src/gravity.ts</title>
<g id="a_node14"><a xlink:href="packages/music-structure/melody/melody-analyze/src/gravity.ts" xlink:title="gravity.ts">
<path fill="#ddfeff" stroke="black" d="M453.07,-442.44C453.07,-442.44 407.07,-442.44 407.07,-442.44 404.07,-442.44 401.07,-439.44 401.07,-436.44 401.07,-436.44 401.07,-430.44 401.07,-430.44 401.07,-427.44 404.07,-424.44 407.07,-424.44 407.07,-424.44 453.07,-424.44 453.07,-424.44 456.07,-424.44 459.07,-427.44 459.07,-430.44 459.07,-430.44 459.07,-436.44 459.07,-436.44 459.07,-439.44 456.07,-442.44 453.07,-442.44"/>
<text text-anchor="start" x="409.07" y="-431.24" font-family="Helvetica,sans-Serif" font-size="9.00">gravity.ts</text>
</a>
</g>
</g>
<!-- packages/music&#45;structure/melody/melody&#45;analyze/src/melody&#45;analysis.ts&#45;&gt;packages/music&#45;structure/melody/melody&#45;analyze/src/gravity.ts -->
<g id="edge14" class="edge">
<title>packages/music&#45;structure/melody/melody&#45;analyze/src/melody&#45;analysis.ts&#45;&gt;packages/music&#45;structure/melody/melody&#45;analyze/src/gravity.ts</title>
<path fill="none" stroke="#000000" stroke-width="2" stroke-opacity="0.200000" d="M324.64,-361.23C345.83,-375.75 387.6,-404.35 411.71,-420.87"/>
<polygon fill="#000000" fill-opacity="0.200000" stroke="#000000" stroke-width="2" stroke-opacity="0.200000" points="410.73,-422.74 416.87,-424.4 413.1,-419.28 410.73,-422.74"/>
</g>
<!-- packages/music&#45;structure/melody/melody&#45;analyze/src/register&#45;gravity.ts&#45;&gt;packages/tonal&#45;objects/dist/index.js -->
<g id="edge18" class="edge">
<title>packages/music&#45;structure/melody/melody&#45;analyze/src/register&#45;gravity.ts&#45;&gt;packages/tonal&#45;objects/dist/index.js</title>
<path fill="none" stroke="#000000" stroke-width="2" stroke-opacity="0.200000" d="M468.49,-283.5C459.91,-258.77 436.34,-190.8 425.77,-160.32"/>
<polygon fill="#000000" fill-opacity="0.200000" stroke="#000000" stroke-width="2" stroke-opacity="0.200000" points="427.67,-159.4 423.72,-154.42 423.7,-160.77 427.67,-159.4"/>
</g>
<!-- packages/music&#45;structure/melody/melody&#45;analyze/src/register&#45;gravity.ts&#45;&gt;packages/music&#45;structure/melody/melody&#45;analyze/src/gravity.ts -->
<g id="edge16" class="edge">
<title>packages/music&#45;structure/melody/melody&#45;analyze/src/register&#45;gravity.ts&#45;&gt;packages/music&#45;structure/melody/melody&#45;analyze/src/gravity.ts</title>
<path fill="none" stroke="#000000" stroke-width="2" stroke-opacity="0.200000" d="M468.96,-301.96C461.93,-325.72 443.17,-389.16 434.53,-418.35"/>
<polygon fill="#000000" fill-opacity="0.200000" stroke="#000000" stroke-width="2" stroke-opacity="0.200000" points="432.44,-418.01 432.75,-424.36 436.47,-419.2 432.44,-418.01"/>
</g>
<!-- packages/util/math/dist/index.js -->
<g id="node16" class="node">
<title>packages/util/math/dist/index.js</title>
<g id="a_node16"><a xlink:href="packages/util/math/dist/index.js" xlink:title="index.js">
<polygon fill="#ffffcc" stroke="black" points="643.34,-348.42 641.84,-350.42 631.34,-350.42 629.84,-348.42 589.34,-348.42 589.34,-330.42 643.34,-330.42 643.34,-348.42"/>
<text text-anchor="start" x="598.84" y="-337.22" font-family="Helvetica,sans-Serif" font-size="9.00">index.js</text>
</a>
</g>
</g>
<!-- packages/music&#45;structure/melody/melody&#45;analyze/src/register&#45;gravity.ts&#45;&gt;packages/util/math/dist/index.js -->
<g id="edge17" class="edge">
<title>packages/music&#45;structure/melody/melody&#45;analyze/src/register&#45;gravity.ts&#45;&gt;packages/util/math/dist/index.js</title>
<path fill="none" stroke="#000000" stroke-width="2" stroke-opacity="0.200000" d="M499.58,-301.73C523.45,-309.44 557.85,-320.54 583.13,-328.7"/>
<polygon fill="#000000" fill-opacity="0.200000" stroke="#000000" stroke-width="2" stroke-opacity="0.200000" points="582.67,-330.76 589.03,-330.6 583.96,-326.76 582.67,-330.76"/>
</g>
<!-- packages/music&#45;structure/melody/melody&#45;analyze/src/time&#45;and&#45;analyzed&#45;melody.ts&#45;&gt;packages/music&#45;structure/melody/melody&#45;analyze/src/melody&#45;analysis.ts -->
<g id="edge19" class="edge">
<title>packages/music&#45;structure/melody/melody&#45;analyze/src/time&#45;and&#45;analyzed&#45;melody.ts&#45;&gt;packages/music&#45;structure/melody/melody&#45;analyze/src/melody&#45;analysis.ts</title>
<path fill="none" stroke="#000000" stroke-width="2" stroke-opacity="0.200000" d="M214.25,-249.67C232.79,-269.22 276.41,-315.22 298.37,-338.39"/>
<polygon fill="#000000" fill-opacity="0.200000" stroke="#000000" stroke-width="2" stroke-opacity="0.200000" points="297.06,-340.06 302.71,-342.96 300.11,-337.17 297.06,-340.06"/>
</g>
<!-- packages/util/time&#45;and/dist/index.js -->
<g id="node13" class="node">
<title>packages/util/time&#45;and/dist/index.js</title>
<g id="a_node13"><a xlink:href="packages/util/time-and/dist/index.js" xlink:title="index.js">
<polygon fill="#ffffcc" stroke="black" points="250.58,-63.17 249.08,-65.17 238.58,-65.17 237.08,-63.17 196.58,-63.17 196.58,-45.17 250.58,-45.17 250.58,-63.17"/>
<text text-anchor="start" x="206.08" y="-51.97" font-family="Helvetica,sans-Serif" font-size="9.00">index.js</text>
</a>
</g>
</g>
<!-- packages/music&#45;structure/melody/melody&#45;analyze/src/time&#45;and&#45;analyzed&#45;melody.ts&#45;&gt;packages/util/time&#45;and/dist/index.js -->
<g id="edge20" class="edge">
<title>packages/music&#45;structure/melody/melody&#45;analyze/src/time&#45;and&#45;analyzed&#45;melody.ts&#45;&gt;packages/util/time&#45;and/dist/index.js</title>
<path fill="none" stroke="#000000" stroke-width="2" stroke-opacity="0.200000" d="M206.48,-231.28C209.36,-201.42 218.45,-107.25 222.07,-69.78"/>
<polygon fill="#000000" fill-opacity="0.200000" stroke="#000000" stroke-width="2" stroke-opacity="0.200000" points="224.2,-69.64 222.68,-63.47 220.02,-69.24 224.2,-69.64"/>
</g>
<!-- packages/music&#45;structure/melody/melody&#45;analyze/src/time&#45;and&#45;melody.ts&#45;&gt;packages/util/time&#45;and/dist/index.js -->
<g id="edge23" class="edge">
<title>packages/music&#45;structure/melody/melody&#45;analyze/src/time&#45;and&#45;melody.ts&#45;&gt;packages/util/time&#45;and/dist/index.js</title>
<path fill="none" stroke="#000000" stroke-width="2" stroke-opacity="0.200000" d="M203.74,-132.6C207.52,-117.67 215.1,-87.69 219.72,-69.43"/>
<polygon fill="#000000" fill-opacity="0.200000" stroke="#000000" stroke-width="2" stroke-opacity="0.200000" points="221.84,-69.61 221.28,-63.28 217.77,-68.58 221.84,-69.61"/>
</g>
<!-- packages/music&#45;structure/melody/melody&#45;analyze/src/get&#45;time&#45;and&#45;chord.ts -->
<g id="node10" class="node">
<title>packages/music&#45;structure/melody/melody&#45;analyze/src/get&#45;time&#45;and&#45;chord.ts</title>
<g id="a_node10"><a xlink:href="packages/music-structure/melody/melody-analyze/src/get-time-and-chord.ts" xlink:title="get&#45;time&#45;and&#45;chord.ts">
<path fill="#ddfeff" stroke="black" d="M549.25,-34.65C549.25,-34.65 445.25,-34.65 445.25,-34.65 442.25,-34.65 439.25,-31.65 439.25,-28.65 439.25,-28.65 439.25,-22.65 439.25,-22.65 439.25,-19.65 442.25,-16.65 445.25,-16.65 445.25,-16.65 549.25,-16.65 549.25,-16.65 552.25,-16.65 555.25,-19.65 555.25,-22.65 555.25,-22.65 555.25,-28.65 555.25,-28.65 555.25,-31.65 552.25,-34.65 549.25,-34.65"/>
<text text-anchor="start" x="447.25" y="-23.45" font-family="Helvetica,sans-Serif" font-size="9.00">get&#45;time&#45;and&#45;chord.ts</text>
</a>
</g>
</g>
<!-- packages/music&#45;structure/melody/melody&#45;analyze/src/get&#45;time&#45;and&#45;chord.ts&#45;&gt;packages/music&#45;structure/chord/chord&#45;analyze/dist/index.js -->
<g id="edge9" class="edge">
<title>packages/music&#45;structure/melody/melody&#45;analyze/src/get&#45;time&#45;and&#45;chord.ts&#45;&gt;packages/music&#45;structure/chord/chord&#45;analyze/dist/index.js</title>
<path fill="none" stroke="#000000" stroke-width="2" stroke-opacity="0.200000" d="M496.68,-34.82C495.25,-57.37 491.57,-115.76 489.81,-143.7"/>
<polygon fill="#000000" fill-opacity="0.200000" stroke="#000000" stroke-width="2" stroke-opacity="0.200000" points="487.71,-143.67 489.43,-149.79 491.9,-143.94 487.71,-143.67"/>
</g>
<!-- packages/music&#45;structure/melody/melody&#45;analyze/src/get&#45;time&#45;and&#45;chord.ts&#45;&gt;packages/tonal&#45;objects/dist/index.js -->
<g id="edge10" class="edge">
<title>packages/music&#45;structure/melody/melody&#45;analyze/src/get&#45;time&#45;and&#45;chord.ts&#45;&gt;packages/tonal&#45;objects/dist/index.js</title>
<path fill="none" stroke="#000000" stroke-width="2" stroke-opacity="0.200000" d="M491.23,-35.03C477.83,-55.91 445.47,-106.31 429.6,-131.04"/>
<polygon fill="#000000" fill-opacity="0.200000" stroke="#000000" stroke-width="2" stroke-opacity="0.200000" points="427.77,-130 426.3,-136.18 431.31,-132.27 427.77,-130"/>
</g>
<!-- packages/music&#45;structure/melody/melody&#45;analyze/src/time&#45;and&#45;chord.ts -->
<g id="node11" class="node">
<title>packages/music&#45;structure/melody/melody&#45;analyze/src/time&#45;and&#45;chord.ts</title>
<g id="a_node11"><a xlink:href="packages/music-structure/melody/melody-analyze/src/time-and-chord.ts" xlink:title="time&#45;and&#45;chord.ts">
<path fill="#ddfeff" stroke="black" d="M406.42,-18C406.42,-18 320.42,-18 320.42,-18 317.42,-18 314.42,-15 314.42,-12 314.42,-12 314.42,-6 314.42,-6 314.42,-3 317.42,0 320.42,0 320.42,0 406.42,0 406.42,0 409.42,0 412.42,-3 412.42,-6 412.42,-6 412.42,-12 412.42,-12 412.42,-15 409.42,-18 406.42,-18"/>
<text text-anchor="start" x="322.42" y="-6.8" font-family="Helvetica,sans-Serif" font-size="9.00">time&#45;and&#45;chord.ts</text>
</a>
</g>
</g>
<!-- packages/music&#45;structure/melody/melody&#45;analyze/src/get&#45;time&#45;and&#45;chord.ts&#45;&gt;packages/music&#45;structure/melody/melody&#45;analyze/src/time&#45;and&#45;chord.ts -->
<g id="edge8" class="edge">
<title>packages/music&#45;structure/melody/melody&#45;analyze/src/get&#45;time&#45;and&#45;chord.ts&#45;&gt;packages/music&#45;structure/melody/melody&#45;analyze/src/time&#45;and&#45;chord.ts</title>
<path fill="none" stroke="#000000" stroke-width="2" stroke-opacity="0.200000" d="M438.94,-18.39C432.26,-17.56 425.45,-16.72 418.81,-15.89"/>
<polygon fill="#000000" fill-opacity="0.200000" stroke="#000000" stroke-width="2" stroke-opacity="0.200000" points="418.97,-13.79 412.75,-15.14 418.45,-17.96 418.97,-13.79"/>
</g>
<!-- packages/music&#45;structure/melody/melody&#45;analyze/src/time&#45;and&#45;chord.ts&#45;&gt;packages/tonal&#45;objects/dist/index.js -->
<g id="edge22" class="edge">
<title>packages/music&#45;structure/melody/melody&#45;analyze/src/time&#45;and&#45;chord.ts&#45;&gt;packages/tonal&#45;objects/dist/index.js</title>
<path fill="none" stroke="#000000" stroke-width="2" stroke-opacity="0.200000" d="M367.35,-18.36C377.09,-41.6 402.45,-102.1 414.28,-130.31"/>
<polygon fill="#000000" fill-opacity="0.200000" stroke="#000000" stroke-width="2" stroke-opacity="0.200000" points="412.46,-131.4 416.72,-136.12 416.33,-129.78 412.46,-131.4"/>
</g>
<!-- packages/music&#45;structure/melody/melody&#45;analyze/src/time&#45;and&#45;chord.ts&#45;&gt;packages/util/time&#45;and/dist/index.js -->
<g id="edge21" class="edge">
<title>packages/music&#45;structure/melody/melody&#45;analyze/src/time&#45;and&#45;chord.ts&#45;&gt;packages/util/time&#45;and/dist/index.js</title>
<path fill="none" stroke="#000000" stroke-width="2" stroke-opacity="0.200000" d="M335.46,-18.03C312.83,-25.34 280.89,-35.66 256.93,-43.4"/>
<polygon fill="#000000" fill-opacity="0.200000" stroke="#000000" stroke-width="2" stroke-opacity="0.200000" points="256.08,-41.46 251.02,-45.31 257.37,-45.46 256.08,-41.46"/>
</g>
<!-- packages/music&#45;structure/melody/melody&#45;analyze/src/get&#45;time&#45;and&#45;melody.ts -->
<g id="node12" class="node">
<title>packages/music&#45;structure/melody/melody&#45;analyze/src/get&#45;time&#45;and&#45;melody.ts</title>
<g id="a_node12"><a xlink:href="packages/music-structure/melody/melody-analyze/src/get-time-and-melody.ts" xlink:title="get&#45;time&#45;and&#45;melody.ts">
<path fill="#ddfeff" stroke="black" d="M164.91,-30.74C164.91,-30.74 55.91,-30.74 55.91,-30.74 52.91,-30.74 49.91,-27.74 49.91,-24.74 49.91,-24.74 49.91,-18.74 49.91,-18.74 49.91,-15.74 52.91,-12.74 55.91,-12.74 55.91,-12.74 164.91,-12.74 164.91,-12.74 167.91,-12.74 170.91,-15.74 170.91,-18.74 170.91,-18.74 170.91,-24.74 170.91,-24.74 170.91,-27.74 167.91,-30.74 164.91,-30.74"/>
<text text-anchor="start" x="57.91" y="-19.54" font-family="Helvetica,sans-Serif" font-size="9.00">get&#45;time&#45;and&#45;melody.ts</text>
</a>
</g>
</g>
<!-- packages/music&#45;structure/melody/melody&#45;analyze/src/get&#45;time&#45;and&#45;melody.ts&#45;&gt;packages/music&#45;structure/melody/melody&#45;analyze/src/time&#45;and&#45;melody.ts -->
<g id="edge11" class="edge">
<title>packages/music&#45;structure/melody/melody&#45;analyze/src/get&#45;time&#45;and&#45;melody.ts&#45;&gt;packages/music&#45;structure/melody/melody&#45;analyze/src/time&#45;and&#45;melody.ts</title>
<path fill="none" stroke="#000000" stroke-width="2" stroke-opacity="0.200000" d="M117.25,-30.75C133.01,-51.49 171.93,-102.74 190.82,-127.63"/>
<polygon fill="#000000" fill-opacity="0.200000" stroke="#000000" stroke-width="2" stroke-opacity="0.200000" points="189.24,-129.01 194.54,-132.52 192.58,-126.47 189.24,-129.01"/>
</g>
<!-- packages/music&#45;structure/melody/melody&#45;analyze/src/get&#45;time&#45;and&#45;melody.ts&#45;&gt;packages/util/time&#45;and/dist/index.js -->
<g id="edge12" class="edge">
<title>packages/music&#45;structure/melody/melody&#45;analyze/src/get&#45;time&#45;and&#45;melody.ts&#45;&gt;packages/util/time&#45;and/dist/index.js</title>
<path fill="none" stroke="#000000" stroke-width="2" stroke-opacity="0.200000" d="M141.93,-30.77C157.06,-35.11 175.18,-40.3 190.51,-44.69"/>
<polygon fill="#000000" fill-opacity="0.200000" stroke="#000000" stroke-width="2" stroke-opacity="0.200000" points="190.1,-46.76 196.45,-46.39 191.26,-42.72 190.1,-46.76"/>
</g>
<!-- packages/music&#45;structure/melody/melody&#45;analyze/src/melody&#45;analysis&#45;data.ts -->
<g id="node15" class="node">
<title>packages/music&#45;structure/melody/melody&#45;analyze/src/melody&#45;analysis&#45;data.ts</title>
<g id="a_node15"><a xlink:href="packages/music-structure/melody/melody-analyze/src/melody-analysis-data.ts" xlink:title="melody&#45;analysis&#45;data.ts">
<path fill="#ddfeff" stroke="black" d="M116,-309.78C116,-309.78 6,-309.78 6,-309.78 3,-309.78 0,-306.78 0,-303.78 0,-303.78 0,-297.78 0,-297.78 0,-294.78 3,-291.78 6,-291.78 6,-291.78 116,-291.78 116,-291.78 119,-291.78 122,-294.78 122,-297.78 122,-297.78 122,-303.78 122,-303.78 122,-306.78 119,-309.78 116,-309.78"/>
<text text-anchor="start" x="8" y="-298.58" font-family="Helvetica,sans-Serif" font-size="9.00">melody&#45;analysis&#45;data.ts</text>
</a>
</g>
</g>
<!-- packages/music&#45;structure/melody/melody&#45;analyze/src/melody&#45;analysis&#45;data.ts&#45;&gt;packages/music&#45;structure/melody/melody&#45;analyze/src/time&#45;and&#45;analyzed&#45;melody.ts -->
<g id="edge13" class="edge">
<title>packages/music&#45;structure/melody/melody&#45;analyze/src/melody&#45;analysis&#45;data.ts&#45;&gt;packages/music&#45;structure/melody/melody&#45;analyze/src/time&#45;and&#45;analyzed&#45;melody.ts</title>
<path fill="none" stroke="#000000" stroke-width="2" stroke-opacity="0.200000" d="M82.65,-291.76C108.09,-281.15 150.36,-263.54 178.1,-251.98"/>
<polygon fill="#000000" fill-opacity="0.200000" stroke="#000000" stroke-width="2" stroke-opacity="0.200000" points="179.06,-253.85 183.79,-249.61 177.44,-249.98 179.06,-253.85"/>
</g>
</g>
</svg>
