<?xml version="1.0" encoding="UTF-8" standalone="no"?>
<!DOCTYPE svg PUBLIC "-//W3C//DTD SVG 1.1//EN"
 "http://www.w3.org/Graphics/SVG/1.1/DTD/svg11.dtd">
<!-- Generated by graphviz version 2.43.0 (0)
 -->
<!-- Title: dependency&#45;cruiser output Pages: 1 -->
<svg width="857pt" height="922pt"
 viewBox="0.00 0.00 857.00 922.00" xmlns="http://www.w3.org/2000/svg" xmlns:xlink="http://www.w3.org/1999/xlink">
<g id="graph0" class="graph" transform="scale(1 1) rotate(0) translate(4 918)">
<title>dependency&#45;cruiser output</title>
<polygon fill="white" stroke="transparent" points="-4,4 -4,-918 853,-918 853,4 -4,4"/>
<g id="clust1" class="cluster">
<title>cluster_packages</title>
<path fill="#ffffff" stroke="black" stroke-width="2" d="M20,-8C20,-8 829,-8 829,-8 835,-8 841,-14 841,-20 841,-20 841,-894 841,-894 841,-900 835,-906 829,-906 829,-906 20,-906 20,-906 14,-906 8,-900 8,-894 8,-894 8,-20 8,-20 8,-14 14,-8 20,-8"/>
<text text-anchor="middle" x="424.5" y="-894.8" font-family="Helvetica,sans-Serif" font-weight="bold" font-size="9.00">packages</text>
</g>
<g id="clust2" class="cluster">
<title>cluster_packages/cognitive&#45;theory&#45;of&#45;music</title>
<path fill="#ffffff" stroke="black" stroke-width="2" d="M688,-16C688,-16 813,-16 813,-16 819,-16 825,-22 825,-28 825,-28 825,-124 825,-124 825,-130 819,-136 813,-136 813,-136 688,-136 688,-136 682,-136 676,-130 676,-124 676,-124 676,-28 676,-28 676,-22 682,-16 688,-16"/>
<text text-anchor="middle" x="750.5" y="-124.8" font-family="Helvetica,sans-Serif" font-weight="bold" font-size="9.00">cognitive&#45;theory&#45;of&#45;music</text>
</g>
<g id="clust3" class="cluster">
<title>cluster_packages/cognitive&#45;theory&#45;of&#45;music/irm</title>
<path fill="#ffffff" stroke="black" stroke-width="2" d="M719,-24C719,-24 781,-24 781,-24 787,-24 793,-30 793,-36 793,-36 793,-98 793,-98 793,-104 787,-110 781,-110 781,-110 719,-110 719,-110 713,-110 707,-104 707,-98 707,-98 707,-36 707,-36 707,-30 713,-24 719,-24"/>
<text text-anchor="middle" x="750" y="-98.8" font-family="Helvetica,sans-Serif" font-weight="bold" font-size="9.00">irm</text>
</g>
<g id="clust4" class="cluster">
<title>cluster_packages/cognitive&#45;theory&#45;of&#45;music/irm/dist</title>
<path fill="#ffffff" stroke="black" stroke-width="2" d="M727,-32C727,-32 773,-32 773,-32 779,-32 785,-38 785,-44 785,-44 785,-72 785,-72 785,-78 779,-84 773,-84 773,-84 727,-84 727,-84 721,-84 715,-78 715,-72 715,-72 715,-44 715,-44 715,-38 721,-32 727,-32"/>
<text text-anchor="middle" x="750" y="-72.8" font-family="Helvetica,sans-Serif" font-weight="bold" font-size="9.00">dist</text>
</g>
<g id="clust5" class="cluster">
<title>cluster_packages/music&#45;structure</title>
<path fill="#ffffff" stroke="black" stroke-width="2" d="M28,-144C28,-144 821,-144 821,-144 827,-144 833,-150 833,-156 833,-156 833,-552 833,-552 833,-558 827,-564 821,-564 821,-564 28,-564 28,-564 22,-564 16,-558 16,-552 16,-552 16,-156 16,-156 16,-150 22,-144 28,-144"/>
<text text-anchor="middle" x="424.5" y="-552.8" font-family="Helvetica,sans-Serif" font-weight="bold" font-size="9.00">music&#45;structure</text>
</g>
<g id="clust6" class="cluster">
<title>cluster_packages/music&#45;structure/chord</title>
<path fill="#ffffff" stroke="black" stroke-width="2" d="M364,-418C364,-418 445,-418 445,-418 451,-418 457,-424 457,-430 457,-430 457,-526 457,-526 457,-532 451,-538 445,-538 445,-538 364,-538 364,-538 358,-538 352,-532 352,-526 352,-526 352,-430 352,-430 352,-424 358,-418 364,-418"/>
<text text-anchor="middle" x="404.5" y="-526.8" font-family="Helvetica,sans-Serif" font-weight="bold" font-size="9.00">chord</text>
</g>
<g id="clust7" class="cluster">
<title>cluster_packages/music&#45;structure/chord/chord&#45;analyze</title>
<path fill="#ffffff" stroke="black" stroke-width="2" d="M372,-426C372,-426 437,-426 437,-426 443,-426 449,-432 449,-438 449,-438 449,-500 449,-500 449,-506 443,-512 437,-512 437,-512 372,-512 372,-512 366,-512 360,-506 360,-500 360,-500 360,-438 360,-438 360,-432 366,-426 372,-426"/>
<text text-anchor="middle" x="404.5" y="-500.8" font-family="Helvetica,sans-Serif" font-weight="bold" font-size="9.00">chord&#45;analyze</text>
</g>
<g id="clust8" class="cluster">
<title>cluster_packages/music&#45;structure/chord/chord&#45;analyze/dist</title>
<path fill="#ffffff" stroke="black" stroke-width="2" d="M381,-434C381,-434 427,-434 427,-434 433,-434 439,-440 439,-446 439,-446 439,-474 439,-474 439,-480 433,-486 427,-486 427,-486 381,-486 381,-486 375,-486 369,-480 369,-474 369,-474 369,-446 369,-446 369,-440 375,-434 381,-434"/>
<text text-anchor="middle" x="404" y="-474.8" font-family="Helvetica,sans-Serif" font-weight="bold" font-size="9.00">dist</text>
</g>
<g id="clust9" class="cluster">
<title>cluster_packages/music&#45;structure/melody</title>
<path fill="#ffffff" stroke="black" stroke-width="2" d="M36,-152C36,-152 813,-152 813,-152 819,-152 825,-158 825,-164 825,-164 825,-398 825,-398 825,-404 819,-410 813,-410 813,-410 36,-410 36,-410 30,-410 24,-404 24,-398 24,-398 24,-164 24,-164 24,-158 30,-152 36,-152"/>
<text text-anchor="middle" x="424.5" y="-398.8" font-family="Helvetica,sans-Serif" font-weight="bold" font-size="9.00">melody</text>
</g>
<g id="clust10" class="cluster">
<title>cluster_packages/music&#45;structure/melody/melody&#45;analyze</title>
<path fill="#ffffff" stroke="black" stroke-width="2" d="M44,-160C44,-160 805,-160 805,-160 811,-160 817,-166 817,-172 817,-172 817,-372 817,-372 817,-378 811,-384 805,-384 805,-384 44,-384 44,-384 38,-384 32,-378 32,-372 32,-372 32,-172 32,-172 32,-166 38,-160 44,-160"/>
<text text-anchor="middle" x="424.5" y="-372.8" font-family="Helvetica,sans-Serif" font-weight="bold" font-size="9.00">melody&#45;analyze</text>
</g>
<g id="clust11" class="cluster">
<title>cluster_packages/music&#45;structure/melody/melody&#45;analyze/src</title>
<path fill="#ffffff" stroke="black" stroke-width="2" d="M133,-216C133,-216 797,-216 797,-216 803,-216 809,-222 809,-228 809,-228 809,-346 809,-346 809,-352 803,-358 797,-358 797,-358 133,-358 133,-358 127,-358 121,-352 121,-346 121,-346 121,-228 121,-228 121,-222 127,-216 133,-216"/>
<text text-anchor="middle" x="465" y="-346.8" font-family="Helvetica,sans-Serif" font-weight="bold" font-size="9.00">src</text>
</g>
<g id="clust12" class="cluster">
<title>cluster_packages/tonal&#45;objects</title>
<path fill="#ffffff" stroke="black" stroke-width="2" d="M719,-794C719,-794 781,-794 781,-794 787,-794 793,-800 793,-806 793,-806 793,-868 793,-868 793,-874 787,-880 781,-880 781,-880 719,-880 719,-880 713,-880 707,-874 707,-868 707,-868 707,-806 707,-806 707,-800 713,-794 719,-794"/>
<text text-anchor="middle" x="750" y="-868.8" font-family="Helvetica,sans-Serif" font-weight="bold" font-size="9.00">tonal&#45;objects</text>
</g>
<g id="clust13" class="cluster">
<title>cluster_packages/tonal&#45;objects/dist</title>
<path fill="#ffffff" stroke="black" stroke-width="2" d="M727,-802C727,-802 773,-802 773,-802 779,-802 785,-808 785,-814 785,-814 785,-842 785,-842 785,-848 779,-854 773,-854 773,-854 727,-854 727,-854 721,-854 715,-848 715,-842 715,-842 715,-814 715,-814 715,-808 721,-802 727,-802"/>
<text text-anchor="middle" x="750" y="-842.8" font-family="Helvetica,sans-Serif" font-weight="bold" font-size="9.00">dist</text>
</g>
<g id="clust14" class="cluster">
<title>cluster_packages/util</title>
<path fill="#ffffff" stroke="black" stroke-width="2" d="M711,-572C711,-572 789,-572 789,-572 795,-572 801,-578 801,-584 801,-584 801,-774 801,-774 801,-780 795,-786 789,-786 789,-786 711,-786 711,-786 705,-786 699,-780 699,-774 699,-774 699,-584 699,-584 699,-578 705,-572 711,-572"/>
<text text-anchor="middle" x="750" y="-774.8" font-family="Helvetica,sans-Serif" font-weight="bold" font-size="9.00">util</text>
</g>
<g id="clust15" class="cluster">
<title>cluster_packages/util/math</title>
<path fill="#ffffff" stroke="black" stroke-width="2" d="M719,-580C719,-580 781,-580 781,-580 787,-580 793,-586 793,-592 793,-592 793,-654 793,-654 793,-660 787,-666 781,-666 781,-666 719,-666 719,-666 713,-666 707,-660 707,-654 707,-654 707,-592 707,-592 707,-586 713,-580 719,-580"/>
<text text-anchor="middle" x="750" y="-654.8" font-family="Helvetica,sans-Serif" font-weight="bold" font-size="9.00">math</text>
</g>
<g id="clust16" class="cluster">
<title>cluster_packages/util/math/dist</title>
<path fill="#ffffff" stroke="black" stroke-width="2" d="M727,-588C727,-588 773,-588 773,-588 779,-588 785,-594 785,-600 785,-600 785,-628 785,-628 785,-634 779,-640 773,-640 773,-640 727,-640 727,-640 721,-640 715,-634 715,-628 715,-628 715,-600 715,-600 715,-594 721,-588 727,-588"/>
<text text-anchor="middle" x="750" y="-628.8" font-family="Helvetica,sans-Serif" font-weight="bold" font-size="9.00">dist</text>
</g>
<g id="clust17" class="cluster">
<title>cluster_packages/util/time&#45;and</title>
<path fill="#ffffff" stroke="black" stroke-width="2" d="M719,-674C719,-674 781,-674 781,-674 787,-674 793,-680 793,-686 793,-686 793,-748 793,-748 793,-754 787,-760 781,-760 781,-760 719,-760 719,-760 713,-760 707,-754 707,-748 707,-748 707,-686 707,-686 707,-680 713,-674 719,-674"/>
<text text-anchor="middle" x="750" y="-748.8" font-family="Helvetica,sans-Serif" font-weight="bold" font-size="9.00">time&#45;and</text>
</g>
<g id="clust18" class="cluster">
<title>cluster_packages/util/time&#45;and/dist</title>
<path fill="#ffffff" stroke="black" stroke-width="2" d="M727,-682C727,-682 773,-682 773,-682 779,-682 785,-688 785,-694 785,-694 785,-722 785,-722 785,-728 779,-734 773,-734 773,-734 727,-734 727,-734 721,-734 715,-728 715,-722 715,-722 715,-694 715,-694 715,-688 721,-682 727,-682"/>
<text text-anchor="middle" x="750" y="-722.8" font-family="Helvetica,sans-Serif" font-weight="bold" font-size="9.00">dist</text>
</g>
<!-- packages/cognitive&#45;theory&#45;of&#45;music/irm/dist/index.js -->
<g id="node1" class="node">
<title>packages/cognitive&#45;theory&#45;of&#45;music/irm/dist/index.js</title>
<g id="a_node1"><a xlink:href="packages/cognitive-theory-of-music/irm/dist/index.js" xlink:title="index.js">
<polygon fill="#ffffcc" stroke="black" points="777,-58 775.5,-60 765,-60 763.5,-58 723,-58 723,-40 777,-40 777,-58"/>
<text text-anchor="start" x="732.5" y="-46.8" font-family="Helvetica,sans-Serif" font-size="9.00">index.js</text>
</a>
</g>
</g>
<!-- packages/music&#45;structure/chord/chord&#45;analyze/dist/index.js -->
<g id="node2" class="node">
<title>packages/music&#45;structure/chord/chord&#45;analyze/dist/index.js</title>
<g id="a_node2"><a xlink:href="packages/music-structure/chord/chord-analyze/dist/index.js" xlink:title="index.js">
<polygon fill="#ffffcc" stroke="black" points="431,-460 429.5,-462 419,-462 417.5,-460 377,-460 377,-442 431,-442 431,-460"/>
<text text-anchor="start" x="386.5" y="-448.8" font-family="Helvetica,sans-Serif" font-size="9.00">index.js</text>
</a>
</g>
</g>
<!-- packages/music&#45;structure/melody/melody&#45;analyze/index.test.ts -->
<g id="node3" class="node">
<title>packages/music&#45;structure/melody/melody&#45;analyze/index.test.ts</title>
<g id="a_node3"><a xlink:href="packages/music-structure/melody/melody-analyze/index.test.ts" xlink:title="no&#45;orphans">
<path fill="#ccffcc" stroke="orange" d="M107,-304C107,-304 46,-304 46,-304 43,-304 40,-301 40,-298 40,-298 40,-292 40,-292 40,-289 43,-286 46,-286 46,-286 107,-286 107,-286 110,-286 113,-289 113,-292 113,-292 113,-298 113,-298 113,-301 110,-304 107,-304"/>
<text text-anchor="start" x="48" y="-292.8" font-family="Helvetica,sans-Serif" font-size="9.00" fill="orange">index.test.ts</text>
</a>
</g>
</g>
<!-- packages/music&#45;structure/melody/melody&#45;analyze/index.ts -->
<g id="node4" class="node">
<title>packages/music&#45;structure/melody/melody&#45;analyze/index.ts</title>
<g id="a_node4"><a xlink:href="packages/music-structure/melody/melody-analyze/index.ts" xlink:title="index.ts">
<path fill="#ddfeff" stroke="black" d="M97.5,-220C97.5,-220 55.5,-220 55.5,-220 52.5,-220 49.5,-217 49.5,-214 49.5,-214 49.5,-208 49.5,-208 49.5,-205 52.5,-202 55.5,-202 55.5,-202 97.5,-202 97.5,-202 100.5,-202 103.5,-205 103.5,-208 103.5,-208 103.5,-214 103.5,-214 103.5,-217 100.5,-220 97.5,-220"/>
<text text-anchor="start" x="58" y="-208.8" font-family="Helvetica,sans-Serif" font-size="9.00">index.ts</text>
</a>
</g>
</g>
<!-- packages/music&#45;structure/melody/melody&#45;analyze/src/analyze&#45;melody.ts -->
<g id="node5" class="node">
<title>packages/music&#45;structure/melody/melody&#45;analyze/src/analyze&#45;melody.ts</title>
<g id="a_node5"><a xlink:href="packages/music-structure/melody/melody-analyze/src/analyze-melody.ts" xlink:title="analyze&#45;melody.ts">
<path fill="#ddfeff" stroke="black" d="M254.5,-272C254.5,-272 170.5,-272 170.5,-272 167.5,-272 164.5,-269 164.5,-266 164.5,-266 164.5,-260 164.5,-260 164.5,-257 167.5,-254 170.5,-254 170.5,-254 254.5,-254 254.5,-254 257.5,-254 260.5,-257 260.5,-260 260.5,-260 260.5,-266 260.5,-266 260.5,-269 257.5,-272 254.5,-272"/>
<text text-anchor="start" x="172.5" y="-260.8" font-family="Helvetica,sans-Serif" font-size="9.00">analyze&#45;melody.ts</text>
</a>
</g>
</g>
<!-- packages/music&#45;structure/melody/melody&#45;analyze/index.ts&#45;&gt;packages/music&#45;structure/melody/melody&#45;analyze/src/analyze&#45;melody.ts -->
<g id="edge1" class="edge">
<title>packages/music&#45;structure/melody/melody&#45;analyze/index.ts&#45;&gt;packages/music&#45;structure/melody/melody&#45;analyze/src/analyze&#45;melody.ts</title>
<path fill="none" stroke="#000000" stroke-width="2" stroke-opacity="0.200000" d="M88.48,-220.34C101.36,-231.3 121,-248 121,-248 121,-248 138.58,-250.91 158.24,-254.17"/>
<polygon fill="#000000" fill-opacity="0.200000" stroke="#000000" stroke-width="2" stroke-opacity="0.200000" points="164.05,-257.26 158.48,-254.21 164.74,-253.12 164.05,-257.26"/>
</g>
<!-- packages/music&#45;structure/melody/melody&#45;analyze/src/get&#45;time&#45;and&#45;melody.ts -->
<g id="node6" class="node">
<title>packages/music&#45;structure/melody/melody&#45;analyze/src/get&#45;time&#45;and&#45;melody.ts</title>
<g id="a_node6"><a xlink:href="packages/music-structure/melody/melody-analyze/src/get-time-and-melody.ts" xlink:title="get&#45;time&#45;and&#45;melody.ts">
<path fill="#ddfeff" stroke="black" d="M267,-302C267,-302 158,-302 158,-302 155,-302 152,-299 152,-296 152,-296 152,-290 152,-290 152,-287 155,-284 158,-284 158,-284 267,-284 267,-284 270,-284 273,-287 273,-290 273,-290 273,-296 273,-296 273,-299 270,-302 267,-302"/>
<text text-anchor="start" x="160" y="-290.8" font-family="Helvetica,sans-Serif" font-size="9.00">get&#45;time&#45;and&#45;melody.ts</text>
</a>
</g>
</g>
<!-- packages/music&#45;structure/melody/melody&#45;analyze/index.ts&#45;&gt;packages/music&#45;structure/melody/melody&#45;analyze/src/get&#45;time&#45;and&#45;melody.ts -->
<g id="edge2" class="edge">
<title>packages/music&#45;structure/melody/melody&#45;analyze/index.ts&#45;&gt;packages/music&#45;structure/melody/melody&#45;analyze/src/get&#45;time&#45;and&#45;melody.ts</title>
<path fill="none" stroke="#000000" stroke-width="2" stroke-opacity="0.200000" d="M83.37,-220.04C95.24,-238.32 121,-278 121,-278 121,-278 134.37,-280.22 150.84,-282.95"/>
<polygon fill="#000000" fill-opacity="0.200000" stroke="#000000" stroke-width="2" stroke-opacity="0.200000" points="156.68,-286.04 151.11,-282.99 157.37,-281.9 156.68,-286.04"/>
</g>
<!-- packages/music&#45;structure/melody/melody&#45;analyze/src/serialized&#45;gravity.ts -->
<g id="node7" class="node">
<title>packages/music&#45;structure/melody/melody&#45;analyze/src/serialized&#45;gravity.ts</title>
<g id="a_node7"><a xlink:href="packages/music-structure/melody/melody-analyze/src/serialized-gravity.ts" xlink:title="serialized&#45;gravity.ts">
<path fill="#ddfeff" stroke="black" d="M795,-242C795,-242 705,-242 705,-242 702,-242 699,-239 699,-236 699,-236 699,-230 699,-230 699,-227 702,-224 705,-224 705,-224 795,-224 795,-224 798,-224 801,-227 801,-230 801,-230 801,-236 801,-236 801,-239 798,-242 795,-242"/>
<text text-anchor="start" x="707" y="-230.8" font-family="Helvetica,sans-Serif" font-size="9.00">serialized&#45;gravity.ts</text>
</a>
</g>
</g>
<!-- packages/music&#45;structure/melody/melody&#45;analyze/index.ts&#45;&gt;packages/music&#45;structure/melody/melody&#45;analyze/src/serialized&#45;gravity.ts -->
<g id="edge3" class="edge">
<title>packages/music&#45;structure/melody/melody&#45;analyze/index.ts&#45;&gt;packages/music&#45;structure/melody/melody&#45;analyze/src/serialized&#45;gravity.ts</title>
<path fill="none" stroke="#000000" stroke-width="2" stroke-opacity="0.200000" d="M103.81,-204.95C112.97,-202.85 121,-201 121,-201 121,-201 499,-201 499,-201 499,-201 655,-218 655,-218 655,-218 672.83,-220.85 692.96,-224.06"/>
<polygon fill="#000000" fill-opacity="0.200000" stroke="#000000" stroke-width="2" stroke-opacity="0.200000" points="698.64,-227.09 693.05,-224.07 699.3,-222.94 698.64,-227.09"/>
</g>
<!-- packages/music&#45;structure/melody/melody&#45;analyze/src/serialized&#45;melody&#45;analysis.ts -->
<g id="node8" class="node">
<title>packages/music&#45;structure/melody/melody&#45;analyze/src/serialized&#45;melody&#45;analysis.ts</title>
<g id="a_node8"><a xlink:href="packages/music-structure/melody/melody-analyze/src/serialized-melody-analysis.ts" xlink:title="serialized&#45;melody&#45;analysis.ts">
<path fill="#ddfeff" stroke="black" d="M649,-242C649,-242 518,-242 518,-242 515,-242 512,-239 512,-236 512,-236 512,-230 512,-230 512,-227 515,-224 518,-224 518,-224 649,-224 649,-224 652,-224 655,-227 655,-230 655,-230 655,-236 655,-236 655,-239 652,-242 649,-242"/>
<text text-anchor="start" x="520" y="-230.8" font-family="Helvetica,sans-Serif" font-size="9.00">serialized&#45;melody&#45;analysis.ts</text>
</a>
</g>
</g>
<!-- packages/music&#45;structure/melody/melody&#45;analyze/index.ts&#45;&gt;packages/music&#45;structure/melody/melody&#45;analyze/src/serialized&#45;melody&#45;analysis.ts -->
<g id="edge4" class="edge">
<title>packages/music&#45;structure/melody/melody&#45;analyze/index.ts&#45;&gt;packages/music&#45;structure/melody/melody&#45;analyze/src/serialized&#45;melody&#45;analysis.ts</title>
<path fill="none" stroke="#000000" stroke-width="2" stroke-opacity="0.200000" d="M103.81,-206.77C112.97,-205.29 121,-204 121,-204 121,-204 296,-204 296,-204 296,-204 499,-218 499,-218 499,-218 511.02,-220.16 525.93,-222.84"/>
<polygon fill="#000000" fill-opacity="0.200000" stroke="#000000" stroke-width="2" stroke-opacity="0.200000" points="531.63,-226 526.1,-222.87 532.37,-221.86 531.63,-226"/>
</g>
<!-- packages/music&#45;structure/melody/melody&#45;analyze/src/serialized&#45;melody&#45;analysis&#45;data.ts -->
<g id="node9" class="node">
<title>packages/music&#45;structure/melody/melody&#45;analyze/src/serialized&#45;melody&#45;analysis&#45;data.ts</title>
<g id="a_node9"><a xlink:href="packages/music-structure/melody/melody-analyze/src/serialized-melody-analysis-data.ts" xlink:title="serialized&#45;melody&#45;analysis&#45;data.ts">
<path fill="#ddfeff" stroke="black" d="M290,-242C290,-242 135,-242 135,-242 132,-242 129,-239 129,-236 129,-236 129,-230 129,-230 129,-227 132,-224 135,-224 135,-224 290,-224 290,-224 293,-224 296,-227 296,-230 296,-230 296,-236 296,-236 296,-239 293,-242 290,-242"/>
<text text-anchor="start" x="137" y="-230.8" font-family="Helvetica,sans-Serif" font-size="9.00">serialized&#45;melody&#45;analysis&#45;data.ts</text>
</a>
</g>
</g>
<!-- packages/music&#45;structure/melody/melody&#45;analyze/index.ts&#45;&gt;packages/music&#45;structure/melody/melody&#45;analyze/src/serialized&#45;melody&#45;analysis&#45;data.ts -->
<g id="edge5" class="edge">
<title>packages/music&#45;structure/melody/melody&#45;analyze/index.ts&#45;&gt;packages/music&#45;structure/melody/melody&#45;analyze/src/serialized&#45;melody&#45;analysis&#45;data.ts</title>
<path fill="none" stroke="#000000" stroke-width="2" stroke-opacity="0.200000" d="M103.81,-216.44C112.97,-218.34 121,-220 121,-220 121,-220 130.18,-221.32 142.68,-223.11"/>
<polygon fill="#000000" fill-opacity="0.200000" stroke="#000000" stroke-width="2" stroke-opacity="0.200000" points="148.35,-226.05 142.71,-223.12 148.94,-221.89 148.35,-226.05"/>
</g>
<!-- packages/music&#45;structure/melody/melody&#45;analyze/src/serialized&#45;time&#45;and&#45;analyzed&#45;melody.ts -->
<g id="node10" class="node">
<title>packages/music&#45;structure/melody/melody&#45;analyze/src/serialized&#45;time&#45;and&#45;analyzed&#45;melody.ts</title>
<g id="a_node10"><a xlink:href="packages/music-structure/melody/melody-analyze/src/serialized-time-and-analyzed-melody.ts" xlink:title="serialized&#45;time&#45;and&#45;analyzed&#45;melody.ts">
<path fill="#ddfeff" stroke="black" d="M493,-242C493,-242 315,-242 315,-242 312,-242 309,-239 309,-236 309,-236 309,-230 309,-230 309,-227 312,-224 315,-224 315,-224 493,-224 493,-224 496,-224 499,-227 499,-230 499,-230 499,-236 499,-236 499,-239 496,-242 493,-242"/>
<text text-anchor="start" x="317" y="-230.8" font-family="Helvetica,sans-Serif" font-size="9.00">serialized&#45;time&#45;and&#45;analyzed&#45;melody.ts</text>
</a>
</g>
</g>
<!-- packages/music&#45;structure/melody/melody&#45;analyze/index.ts&#45;&gt;packages/music&#45;structure/melody/melody&#45;analyze/src/serialized&#45;time&#45;and&#45;analyzed&#45;melody.ts -->
<g id="edge6" class="edge">
<title>packages/music&#45;structure/melody/melody&#45;analyze/index.ts&#45;&gt;packages/music&#45;structure/melody/melody&#45;analyze/src/serialized&#45;time&#45;and&#45;analyzed&#45;melody.ts</title>
<path fill="none" stroke="#000000" stroke-width="2" stroke-opacity="0.200000" d="M103.81,-208.58C112.97,-207.74 121,-207 121,-207 121,-207 296,-207 296,-207 296,-207 309,-220 309,-220 309,-220 318.53,-221.32 331.52,-223.11"/>
<polygon fill="#000000" fill-opacity="0.200000" stroke="#000000" stroke-width="2" stroke-opacity="0.200000" points="337.43,-226.05 331.77,-223.15 338,-221.89 337.43,-226.05"/>
</g>
<!-- packages/music&#45;structure/melody/melody&#45;analyze/src/time&#45;and&#45;melody.ts -->
<g id="node11" class="node">
<title>packages/music&#45;structure/melody/melody&#45;analyze/src/time&#45;and&#45;melody.ts</title>
<g id="a_node11"><a xlink:href="packages/music-structure/melody/melody-analyze/src/time-and-melody.ts" xlink:title="time&#45;and&#45;melody.ts">
<path fill="#ddfeff" stroke="black" d="M449.5,-302C449.5,-302 358.5,-302 358.5,-302 355.5,-302 352.5,-299 352.5,-296 352.5,-296 352.5,-290 352.5,-290 352.5,-287 355.5,-284 358.5,-284 358.5,-284 449.5,-284 449.5,-284 452.5,-284 455.5,-287 455.5,-290 455.5,-290 455.5,-296 455.5,-296 455.5,-299 452.5,-302 449.5,-302"/>
<text text-anchor="start" x="360.5" y="-290.8" font-family="Helvetica,sans-Serif" font-size="9.00">time&#45;and&#45;melody.ts</text>
</a>
</g>
</g>
<!-- packages/music&#45;structure/melody/melody&#45;analyze/index.ts&#45;&gt;packages/music&#45;structure/melody/melody&#45;analyze/src/time&#45;and&#45;melody.ts -->
<g id="edge7" class="edge">
<title>packages/music&#45;structure/melody/melody&#45;analyze/index.ts&#45;&gt;packages/music&#45;structure/melody/melody&#45;analyze/src/time&#45;and&#45;melody.ts</title>
<path fill="none" stroke="#000000" stroke-width="2" stroke-opacity="0.200000" d="M103.86,-211.84C161.97,-213.71 296,-218 296,-218 296,-218 309,-248 309,-248 309,-248 350.41,-267.82 378.26,-281.16"/>
<polygon fill="#000000" fill-opacity="0.200000" stroke="#000000" stroke-width="2" stroke-opacity="0.200000" points="383.07,-285.79 378.57,-281.3 384.88,-282 383.07,-285.79"/>
</g>
<!-- packages/music&#45;structure/melody/melody&#45;analyze/src/analyze&#45;melody.ts&#45;&gt;packages/cognitive&#45;theory&#45;of&#45;music/irm/dist/index.js -->
<g id="edge13" class="edge">
<title>packages/music&#45;structure/melody/melody&#45;analyze/src/analyze&#45;melody.ts&#45;&gt;packages/cognitive&#45;theory&#45;of&#45;music/irm/dist/index.js</title>
<path fill="none" stroke="#000000" stroke-width="2" stroke-opacity="0.200000" d="M260.53,-254.45C279.06,-251.08 296,-248 296,-248 296,-248 309,-218 309,-218 309,-218 621.38,-98.02 719.73,-60.24"/>
<polygon fill="#000000" fill-opacity="0.200000" stroke="#000000" stroke-width="2" stroke-opacity="0.200000" points="720.5,-62.2 725.34,-58.09 718.99,-58.28 720.5,-62.2"/>
</g>
<!-- packages/music&#45;structure/melody/melody&#45;analyze/src/analyze&#45;melody.ts&#45;&gt;packages/music&#45;structure/chord/chord&#45;analyze/dist/index.js -->
<g id="edge12" class="edge">
<title>packages/music&#45;structure/melody/melody&#45;analyze/src/analyze&#45;melody.ts&#45;&gt;packages/music&#45;structure/chord/chord&#45;analyze/dist/index.js</title>
<path fill="none" stroke="#000000" stroke-width="2" stroke-opacity="0.200000" d="M260.53,-271.55C279.06,-274.92 296,-278 296,-278 296,-278 309,-361 309,-361 309,-361 362.42,-412.15 388.72,-437.33"/>
<polygon fill="#000000" fill-opacity="0.200000" stroke="#000000" stroke-width="2" stroke-opacity="0.200000" points="387.51,-439.07 393.29,-441.71 390.41,-436.04 387.51,-439.07"/>
</g>
<!-- packages/music&#45;structure/melody/melody&#45;analyze/src/analyze&#45;melody.ts&#45;&gt;packages/music&#45;structure/melody/melody&#45;analyze/src/serialized&#45;melody&#45;analysis.ts -->
<g id="edge9" class="edge">
<title>packages/music&#45;structure/melody/melody&#45;analyze/src/analyze&#45;melody.ts&#45;&gt;packages/music&#45;structure/melody/melody&#45;analyze/src/serialized&#45;melody&#45;analysis.ts</title>
<path fill="none" stroke="#000000" stroke-width="2" stroke-opacity="0.200000" d="M260.64,-260.52C341.73,-256.26 499,-248 499,-248 499,-248 511.02,-245.84 525.93,-243.16"/>
<polygon fill="#000000" fill-opacity="0.200000" stroke="#000000" stroke-width="2" stroke-opacity="0.200000" points="526.47,-245.2 532,-242.07 525.72,-241.07 526.47,-245.2"/>
</g>
<!-- packages/music&#45;structure/melody/melody&#45;analyze/src/analyze&#45;melody.ts&#45;&gt;packages/music&#45;structure/melody/melody&#45;analyze/src/serialized&#45;time&#45;and&#45;analyzed&#45;melody.ts -->
<g id="edge10" class="edge">
<title>packages/music&#45;structure/melody/melody&#45;analyze/src/analyze&#45;melody.ts&#45;&gt;packages/music&#45;structure/melody/melody&#45;analyze/src/serialized&#45;time&#45;and&#45;analyzed&#45;melody.ts</title>
<path fill="none" stroke="#000000" stroke-width="2" stroke-opacity="0.200000" d="M260.83,-255.51C284.68,-251.73 313.93,-247.1 339.69,-243.02"/>
<polygon fill="#000000" fill-opacity="0.200000" stroke="#000000" stroke-width="2" stroke-opacity="0.200000" points="340.21,-245.07 345.81,-242.05 339.55,-240.92 340.21,-245.07"/>
</g>
<!-- packages/music&#45;structure/melody/melody&#45;analyze/src/analyze&#45;melody.ts&#45;&gt;packages/music&#45;structure/melody/melody&#45;analyze/src/time&#45;and&#45;melody.ts -->
<g id="edge11" class="edge">
<title>packages/music&#45;structure/melody/melody&#45;analyze/src/analyze&#45;melody.ts&#45;&gt;packages/music&#45;structure/melody/melody&#45;analyze/src/time&#45;and&#45;melody.ts</title>
<path fill="none" stroke="#000000" stroke-width="2" stroke-opacity="0.200000" d="M260.83,-270.49C286.72,-274.59 318.97,-279.7 346.2,-284.01"/>
<polygon fill="#000000" fill-opacity="0.200000" stroke="#000000" stroke-width="2" stroke-opacity="0.200000" points="346.04,-286.11 352.29,-284.97 346.7,-281.96 346.04,-286.11"/>
</g>
<!-- packages/music&#45;structure/melody/melody&#45;analyze/src/register&#45;gravity.ts -->
<g id="node12" class="node">
<title>packages/music&#45;structure/melody/melody&#45;analyze/src/register&#45;gravity.ts</title>
<g id="a_node12"><a xlink:href="packages/music-structure/melody/melody-analyze/src/register-gravity.ts" xlink:title="register&#45;gravity.ts">
<path fill="#ddfeff" stroke="black" d="M625,-279C625,-279 542,-279 542,-279 539,-279 536,-276 536,-273 536,-273 536,-267 536,-267 536,-264 539,-261 542,-261 542,-261 625,-261 625,-261 628,-261 631,-264 631,-267 631,-267 631,-273 631,-273 631,-276 628,-279 625,-279"/>
<text text-anchor="start" x="544" y="-267.8" font-family="Helvetica,sans-Serif" font-size="9.00">register&#45;gravity.ts</text>
</a>
</g>
</g>
<!-- packages/music&#45;structure/melody/melody&#45;analyze/src/analyze&#45;melody.ts&#45;&gt;packages/music&#45;structure/melody/melody&#45;analyze/src/register&#45;gravity.ts -->
<g id="edge8" class="edge">
<title>packages/music&#45;structure/melody/melody&#45;analyze/src/analyze&#45;melody.ts&#45;&gt;packages/music&#45;structure/melody/melody&#45;analyze/src/register&#45;gravity.ts</title>
<path fill="none" stroke="#000000" stroke-width="2" stroke-opacity="0.200000" d="M260.61,-263.89C329.54,-265.2 457.51,-267.63 529.59,-269"/>
<polygon fill="#000000" fill-opacity="0.200000" stroke="#000000" stroke-width="2" stroke-opacity="0.200000" points="529.92,-271.1 535.96,-269.12 530,-266.9 529.92,-271.1"/>
</g>
<!-- packages/tonal&#45;objects/dist/index.js -->
<g id="node13" class="node">
<title>packages/tonal&#45;objects/dist/index.js</title>
<g id="a_node13"><a xlink:href="packages/tonal-objects/dist/index.js" xlink:title="index.js">
<polygon fill="#ffffcc" stroke="black" points="777,-828 775.5,-830 765,-830 763.5,-828 723,-828 723,-810 777,-810 777,-828"/>
<text text-anchor="start" x="732.5" y="-816.8" font-family="Helvetica,sans-Serif" font-size="9.00">index.js</text>
</a>
</g>
</g>
<!-- packages/music&#45;structure/melody/melody&#45;analyze/src/analyze&#45;melody.ts&#45;&gt;packages/tonal&#45;objects/dist/index.js -->
<g id="edge14" class="edge">
<title>packages/music&#45;structure/melody/melody&#45;analyze/src/analyze&#45;melody.ts&#45;&gt;packages/tonal&#45;objects/dist/index.js</title>
<path fill="none" stroke="#000000" stroke-width="2" stroke-opacity="0.200000" d="M260.53,-271.55C279.06,-274.92 296,-278 296,-278 296,-278 309,-489 309,-489 309,-489 650.55,-745.16 731.8,-806.1"/>
<polygon fill="#000000" fill-opacity="0.200000" stroke="#000000" stroke-width="2" stroke-opacity="0.200000" points="730.71,-807.91 736.77,-809.83 733.23,-804.55 730.71,-807.91"/>
</g>
<!-- packages/music&#45;structure/melody/melody&#45;analyze/src/get&#45;time&#45;and&#45;melody.ts&#45;&gt;packages/music&#45;structure/melody/melody&#45;analyze/src/time&#45;and&#45;melody.ts -->
<g id="edge18" class="edge">
<title>packages/music&#45;structure/melody/melody&#45;analyze/src/get&#45;time&#45;and&#45;melody.ts&#45;&gt;packages/music&#45;structure/melody/melody&#45;analyze/src/time&#45;and&#45;melody.ts</title>
<path fill="none" stroke="#000000" stroke-width="2" stroke-opacity="0.200000" d="M273.2,-293C296.5,-293 323.1,-293 346.12,-293"/>
<polygon fill="#000000" fill-opacity="0.200000" stroke="#000000" stroke-width="2" stroke-opacity="0.200000" points="346.21,-295.1 352.21,-293 346.21,-290.9 346.21,-295.1"/>
</g>
<!-- packages/util/time&#45;and/dist/index.js -->
<g id="node16" class="node">
<title>packages/util/time&#45;and/dist/index.js</title>
<g id="a_node16"><a xlink:href="packages/util/time-and/dist/index.js" xlink:title="index.js">
<polygon fill="#ffffcc" stroke="black" points="777,-708 775.5,-710 765,-710 763.5,-708 723,-708 723,-690 777,-690 777,-708"/>
<text text-anchor="start" x="732.5" y="-696.8" font-family="Helvetica,sans-Serif" font-size="9.00">index.js</text>
</a>
</g>
</g>
<!-- packages/music&#45;structure/melody/melody&#45;analyze/src/get&#45;time&#45;and&#45;melody.ts&#45;&gt;packages/util/time&#45;and/dist/index.js -->
<g id="edge19" class="edge">
<title>packages/music&#45;structure/melody/melody&#45;analyze/src/get&#45;time&#45;and&#45;melody.ts&#45;&gt;packages/util/time&#45;and/dist/index.js</title>
<path fill="none" stroke="#000000" stroke-width="2" stroke-opacity="0.200000" d="M263.39,-302.07C280.77,-305.23 296,-308 296,-308 296,-308 309,-489 309,-489 309,-489 632.2,-643.25 724.6,-687.35"/>
<polygon fill="#000000" fill-opacity="0.200000" stroke="#000000" stroke-width="2" stroke-opacity="0.200000" points="723.77,-689.29 730.09,-689.98 725.58,-685.5 723.77,-689.29"/>
</g>
<!-- packages/music&#45;structure/melody/melody&#45;analyze/src/serialized&#45;melody&#45;analysis.ts&#45;&gt;packages/cognitive&#45;theory&#45;of&#45;music/irm/dist/index.js -->
<g id="edge25" class="edge">
<title>packages/music&#45;structure/melody/melody&#45;analyze/src/serialized&#45;melody&#45;analysis.ts&#45;&gt;packages/cognitive&#45;theory&#45;of&#45;music/irm/dist/index.js</title>
<path fill="none" stroke="#000000" stroke-width="2" stroke-opacity="0.200000" d="M592.66,-223.88C619.35,-194.02 704.22,-99.08 736.44,-63.05"/>
<polygon fill="#000000" fill-opacity="0.200000" stroke="#000000" stroke-width="2" stroke-opacity="0.200000" points="738.36,-64.05 740.79,-58.18 735.23,-61.25 738.36,-64.05"/>
</g>
<!-- packages/music&#45;structure/melody/melody&#45;analyze/src/serialized&#45;melody&#45;analysis.ts&#45;&gt;packages/music&#45;structure/melody/melody&#45;analyze/src/serialized&#45;gravity.ts -->
<g id="edge24" class="edge">
<title>packages/music&#45;structure/melody/melody&#45;analyze/src/serialized&#45;melody&#45;analysis.ts&#45;&gt;packages/music&#45;structure/melody/melody&#45;analyze/src/serialized&#45;gravity.ts</title>
<path fill="none" stroke="#000000" stroke-width="2" stroke-opacity="0.200000" d="M655.22,-233C667.68,-233 680.49,-233 692.5,-233"/>
<polygon fill="#000000" fill-opacity="0.200000" stroke="#000000" stroke-width="2" stroke-opacity="0.200000" points="692.69,-235.1 698.69,-233 692.69,-230.9 692.69,-235.1"/>
</g>
<!-- packages/music&#45;structure/melody/melody&#45;analyze/src/serialized&#45;melody&#45;analysis&#45;data.ts&#45;&gt;packages/music&#45;structure/melody/melody&#45;analyze/src/serialized&#45;time&#45;and&#45;analyzed&#45;melody.ts -->
<g id="edge23" class="edge">
<title>packages/music&#45;structure/melody/melody&#45;analyze/src/serialized&#45;melody&#45;analysis&#45;data.ts&#45;&gt;packages/music&#45;structure/melody/melody&#45;analyze/src/serialized&#45;time&#45;and&#45;analyzed&#45;melody.ts</title>
<path fill="none" stroke="#000000" stroke-width="2" stroke-opacity="0.200000" d="M296.07,-233C298.34,-233 300.63,-233 302.92,-233"/>
<polygon fill="#000000" fill-opacity="0.200000" stroke="#000000" stroke-width="2" stroke-opacity="0.200000" points="303,-235.1 309,-233 303,-230.9 303,-235.1"/>
</g>
<!-- packages/music&#45;structure/melody/melody&#45;analyze/src/serialized&#45;time&#45;and&#45;analyzed&#45;melody.ts&#45;&gt;packages/music&#45;structure/melody/melody&#45;analyze/src/serialized&#45;melody&#45;analysis.ts -->
<g id="edge26" class="edge">
<title>packages/music&#45;structure/melody/melody&#45;analyze/src/serialized&#45;time&#45;and&#45;analyzed&#45;melody.ts&#45;&gt;packages/music&#45;structure/melody/melody&#45;analyze/src/serialized&#45;melody&#45;analysis.ts</title>
<path fill="none" stroke="#000000" stroke-width="2" stroke-opacity="0.200000" d="M499.21,-233C501.28,-233 503.35,-233 505.41,-233"/>
<polygon fill="#000000" fill-opacity="0.200000" stroke="#000000" stroke-width="2" stroke-opacity="0.200000" points="505.57,-235.1 511.57,-233 505.57,-230.9 505.57,-235.1"/>
</g>
<!-- packages/music&#45;structure/melody/melody&#45;analyze/src/serialized&#45;time&#45;and&#45;analyzed&#45;melody.ts&#45;&gt;packages/util/time&#45;and/dist/index.js -->
<g id="edge27" class="edge">
<title>packages/music&#45;structure/melody/melody&#45;analyze/src/serialized&#45;time&#45;and&#45;analyzed&#45;melody.ts&#45;&gt;packages/util/time&#45;and/dist/index.js</title>
<path fill="none" stroke="#000000" stroke-width="2" stroke-opacity="0.200000" d="M424.02,-242.11C451.49,-255.26 499,-278 499,-278 499,-278 655,-410 655,-410 655,-410 676,-643 676,-643 676,-643 710.46,-669.44 732.03,-685.98"/>
<polygon fill="#000000" fill-opacity="0.200000" stroke="#000000" stroke-width="2" stroke-opacity="0.200000" points="730.91,-687.77 736.95,-689.75 733.46,-684.43 730.91,-687.77"/>
</g>
<!-- packages/music&#45;structure/melody/melody&#45;analyze/src/time&#45;and&#45;melody.ts&#45;&gt;packages/util/time&#45;and/dist/index.js -->
<g id="edge30" class="edge">
<title>packages/music&#45;structure/melody/melody&#45;analyze/src/time&#45;and&#45;melody.ts&#45;&gt;packages/util/time&#45;and/dist/index.js</title>
<path fill="none" stroke="#000000" stroke-width="2" stroke-opacity="0.200000" d="M455.58,-301.07C477.83,-304.62 499,-308 499,-308 499,-308 512,-409 512,-409 512,-409 655,-425 655,-425 655,-425 676,-643 676,-643 676,-643 710.46,-669.44 732.03,-685.98"/>
<polygon fill="#000000" fill-opacity="0.200000" stroke="#000000" stroke-width="2" stroke-opacity="0.200000" points="730.91,-687.77 736.95,-689.75 733.46,-684.43 730.91,-687.77"/>
</g>
<!-- packages/music&#45;structure/melody/melody&#45;analyze/src/register&#45;gravity.ts&#45;&gt;packages/music&#45;structure/melody/melody&#45;analyze/src/serialized&#45;gravity.ts -->
<g id="edge20" class="edge">
<title>packages/music&#45;structure/melody/melody&#45;analyze/src/register&#45;gravity.ts&#45;&gt;packages/music&#45;structure/melody/melody&#45;analyze/src/serialized&#45;gravity.ts</title>
<path fill="none" stroke="#000000" stroke-width="2" stroke-opacity="0.200000" d="M624.74,-260.95C648.33,-255.64 678.22,-248.92 702.77,-243.4"/>
<polygon fill="#000000" fill-opacity="0.200000" stroke="#000000" stroke-width="2" stroke-opacity="0.200000" points="703.5,-245.39 708.89,-242.02 702.57,-241.29 703.5,-245.39"/>
</g>
<!-- packages/music&#45;structure/melody/melody&#45;analyze/src/register&#45;gravity.ts&#45;&gt;packages/tonal&#45;objects/dist/index.js -->
<g id="edge22" class="edge">
<title>packages/music&#45;structure/melody/melody&#45;analyze/src/register&#45;gravity.ts&#45;&gt;packages/tonal&#45;objects/dist/index.js</title>
<path fill="none" stroke="#000000" stroke-width="2" stroke-opacity="0.200000" d="M586.33,-279.33C599.22,-345.15 676,-737 676,-737 676,-737 716.01,-781.94 736.79,-805.28"/>
<polygon fill="#000000" fill-opacity="0.200000" stroke="#000000" stroke-width="2" stroke-opacity="0.200000" points="735.35,-806.83 740.91,-809.91 738.49,-804.03 735.35,-806.83"/>
</g>
<!-- packages/util/math/dist/index.js -->
<g id="node17" class="node">
<title>packages/util/math/dist/index.js</title>
<g id="a_node17"><a xlink:href="packages/util/math/dist/index.js" xlink:title="index.js">
<polygon fill="#ffffcc" stroke="black" points="777,-614 775.5,-616 765,-616 763.5,-614 723,-614 723,-596 777,-596 777,-614"/>
<text text-anchor="start" x="732.5" y="-602.8" font-family="Helvetica,sans-Serif" font-size="9.00">index.js</text>
</a>
</g>
</g>
<!-- packages/music&#45;structure/melody/melody&#45;analyze/src/register&#45;gravity.ts&#45;&gt;packages/util/math/dist/index.js -->
<g id="edge21" class="edge">
<title>packages/music&#45;structure/melody/melody&#45;analyze/src/register&#45;gravity.ts&#45;&gt;packages/util/math/dist/index.js</title>
<path fill="none" stroke="#000000" stroke-width="2" stroke-opacity="0.200000" d="M589.35,-279C605.27,-308.6 655,-401 655,-401 655,-401 720.62,-543.42 742.21,-590.26"/>
<polygon fill="#000000" fill-opacity="0.200000" stroke="#000000" stroke-width="2" stroke-opacity="0.200000" points="740.42,-591.4 744.84,-595.97 744.24,-589.64 740.42,-591.4"/>
</g>
<!-- packages/music&#45;structure/melody/melody&#45;analyze/src/get&#45;time&#45;and&#45;chord.ts -->
<g id="node14" class="node">
<title>packages/music&#45;structure/melody/melody&#45;analyze/src/get&#45;time&#45;and&#45;chord.ts</title>
<g id="a_node14"><a xlink:href="packages/music-structure/melody/melody-analyze/src/get-time-and-chord.ts" xlink:title="get&#45;time&#45;and&#45;chord.ts">
<path fill="#ddfeff" stroke="black" d="M264.5,-332C264.5,-332 160.5,-332 160.5,-332 157.5,-332 154.5,-329 154.5,-326 154.5,-326 154.5,-320 154.5,-320 154.5,-317 157.5,-314 160.5,-314 160.5,-314 264.5,-314 264.5,-314 267.5,-314 270.5,-317 270.5,-320 270.5,-320 270.5,-326 270.5,-326 270.5,-329 267.5,-332 264.5,-332"/>
<text text-anchor="start" x="162.5" y="-320.8" font-family="Helvetica,sans-Serif" font-size="9.00">get&#45;time&#45;and&#45;chord.ts</text>
</a>
</g>
</g>
<!-- packages/music&#45;structure/melody/melody&#45;analyze/src/get&#45;time&#45;and&#45;chord.ts&#45;&gt;packages/music&#45;structure/chord/chord&#45;analyze/dist/index.js -->
<g id="edge16" class="edge">
<title>packages/music&#45;structure/melody/melody&#45;analyze/src/get&#45;time&#45;and&#45;chord.ts&#45;&gt;packages/music&#45;structure/chord/chord&#45;analyze/dist/index.js</title>
<path fill="none" stroke="#000000" stroke-width="2" stroke-opacity="0.200000" d="M226.83,-332C259.91,-354.35 345.88,-412.42 384.15,-438.27"/>
<polygon fill="#000000" fill-opacity="0.200000" stroke="#000000" stroke-width="2" stroke-opacity="0.200000" points="383.29,-440.22 389.44,-441.84 385.64,-436.74 383.29,-440.22"/>
</g>
<!-- packages/music&#45;structure/melody/melody&#45;analyze/src/get&#45;time&#45;and&#45;chord.ts&#45;&gt;packages/tonal&#45;objects/dist/index.js -->
<g id="edge17" class="edge">
<title>packages/music&#45;structure/melody/melody&#45;analyze/src/get&#45;time&#45;and&#45;chord.ts&#45;&gt;packages/tonal&#45;objects/dist/index.js</title>
<path fill="none" stroke="#000000" stroke-width="2" stroke-opacity="0.200000" d="M215.49,-332.23C229.21,-395.7 309,-765 309,-765 309,-765 615.12,-802.57 716.69,-815.03"/>
<polygon fill="#000000" fill-opacity="0.200000" stroke="#000000" stroke-width="2" stroke-opacity="0.200000" points="716.58,-817.14 722.79,-815.78 717.09,-812.97 716.58,-817.14"/>
</g>
<!-- packages/music&#45;structure/melody/melody&#45;analyze/src/time&#45;and&#45;chord.ts -->
<g id="node15" class="node">
<title>packages/music&#45;structure/melody/melody&#45;analyze/src/time&#45;and&#45;chord.ts</title>
<g id="a_node15"><a xlink:href="packages/music-structure/melody/melody-analyze/src/time-and-chord.ts" xlink:title="time&#45;and&#45;chord.ts">
<path fill="#ddfeff" stroke="black" d="M447,-332C447,-332 361,-332 361,-332 358,-332 355,-329 355,-326 355,-326 355,-320 355,-320 355,-317 358,-314 361,-314 361,-314 447,-314 447,-314 450,-314 453,-317 453,-320 453,-320 453,-326 453,-326 453,-329 450,-332 447,-332"/>
<text text-anchor="start" x="363" y="-320.8" font-family="Helvetica,sans-Serif" font-size="9.00">time&#45;and&#45;chord.ts</text>
</a>
</g>
</g>
<!-- packages/music&#45;structure/melody/melody&#45;analyze/src/get&#45;time&#45;and&#45;chord.ts&#45;&gt;packages/music&#45;structure/melody/melody&#45;analyze/src/time&#45;and&#45;chord.ts -->
<g id="edge15" class="edge">
<title>packages/music&#45;structure/melody/melody&#45;analyze/src/get&#45;time&#45;and&#45;chord.ts&#45;&gt;packages/music&#45;structure/melody/melody&#45;analyze/src/time&#45;and&#45;chord.ts</title>
<path fill="none" stroke="#000000" stroke-width="2" stroke-opacity="0.200000" d="M270.61,-323C295.43,-323 324.36,-323 348.83,-323"/>
<polygon fill="#000000" fill-opacity="0.200000" stroke="#000000" stroke-width="2" stroke-opacity="0.200000" points="348.95,-325.1 354.95,-323 348.95,-320.9 348.95,-325.1"/>
</g>
<!-- packages/music&#45;structure/melody/melody&#45;analyze/src/time&#45;and&#45;chord.ts&#45;&gt;packages/tonal&#45;objects/dist/index.js -->
<g id="edge29" class="edge">
<title>packages/music&#45;structure/melody/melody&#45;analyze/src/time&#45;and&#45;chord.ts&#45;&gt;packages/tonal&#45;objects/dist/index.js</title>
<path fill="none" stroke="#000000" stroke-width="2" stroke-opacity="0.200000" d="M413.01,-332.21C435.75,-358.33 499,-431 499,-431 499,-431 512,-494 512,-494 512,-494 676,-737 676,-737 676,-737 716.01,-781.94 736.79,-805.28"/>
<polygon fill="#000000" fill-opacity="0.200000" stroke="#000000" stroke-width="2" stroke-opacity="0.200000" points="735.35,-806.83 740.91,-809.91 738.49,-804.03 735.35,-806.83"/>
</g>
<!-- packages/music&#45;structure/melody/melody&#45;analyze/src/time&#45;and&#45;chord.ts&#45;&gt;packages/util/time&#45;and/dist/index.js -->
<g id="edge28" class="edge">
<title>packages/music&#45;structure/melody/melody&#45;analyze/src/time&#45;and&#45;chord.ts&#45;&gt;packages/util/time&#45;and/dist/index.js</title>
<path fill="none" stroke="#000000" stroke-width="2" stroke-opacity="0.200000" d="M414.87,-332.32C441.36,-357.32 512,-424 512,-424 512,-424 655,-557 655,-557 655,-557 676,-643 676,-643 676,-643 710.46,-669.44 732.03,-685.98"/>
<polygon fill="#000000" fill-opacity="0.200000" stroke="#000000" stroke-width="2" stroke-opacity="0.200000" points="730.91,-687.77 736.95,-689.75 733.46,-684.43 730.91,-687.77"/>
</g>
</g>
</svg>
