<?xml version="1.0" encoding="UTF-8" standalone="no"?>
<!DOCTYPE svg PUBLIC "-//W3C//DTD SVG 1.1//EN"
 "http://www.w3.org/Graphics/SVG/1.1/DTD/svg11.dtd">
<!-- Generated by graphviz version 2.43.0 (0)
 -->
<!-- Title: dependency&#45;cruiser output Pages: 1 -->
<svg width="738pt" height="272pt"
 viewBox="0.00 0.00 738.00 272.00" xmlns="http://www.w3.org/2000/svg" xmlns:xlink="http://www.w3.org/1999/xlink">
<g id="graph0" class="graph" transform="scale(1 1) rotate(0) translate(4 268)">
<title>dependency&#45;cruiser output</title>
<polygon fill="white" stroke="transparent" points="-4,4 -4,-268 734,-268 734,4 -4,4"/>
<g id="clust1" class="cluster">
<title>cluster_packages</title>
<path fill="#ffffff" stroke="black" stroke-width="2" d="M20,-8C20,-8 710,-8 710,-8 716,-8 722,-14 722,-20 722,-20 722,-244 722,-244 722,-250 716,-256 710,-256 710,-256 20,-256 20,-256 14,-256 8,-250 8,-244 8,-244 8,-20 8,-20 8,-14 14,-8 20,-8"/>
<text text-anchor="middle" x="365" y="-244.8" font-family="Helvetica,sans-Serif" font-weight="bold" font-size="9.00">packages</text>
</g>
<g id="clust2" class="cluster">
<title>cluster_packages/util</title>
<path fill="#ffffff" stroke="black" stroke-width="2" d="M28,-16C28,-16 702,-16 702,-16 708,-16 714,-22 714,-28 714,-28 714,-218 714,-218 714,-224 708,-230 702,-230 702,-230 28,-230 28,-230 22,-230 16,-224 16,-218 16,-218 16,-28 16,-28 16,-22 22,-16 28,-16"/>
<text text-anchor="middle" x="365" y="-218.8" font-family="Helvetica,sans-Serif" font-weight="bold" font-size="9.00">util</text>
</g>
<g id="clust3" class="cluster">
<title>cluster_packages/util/graph</title>
<path fill="#ffffff" stroke="black" stroke-width="2" d="M36,-28C36,-28 600,-28 600,-28 606,-28 612,-34 612,-40 612,-40 612,-192 612,-192 612,-198 606,-204 600,-204 600,-204 36,-204 36,-204 30,-204 24,-198 24,-192 24,-192 24,-40 24,-40 24,-34 30,-28 36,-28"/>
<text text-anchor="middle" x="318" y="-192.8" font-family="Helvetica,sans-Serif" font-weight="bold" font-size="9.00">graph</text>
</g>
<g id="clust4" class="cluster">
<title>cluster_packages/util/graph/dist</title>
<path fill="#ffffff" stroke="black" stroke-width="2" d="M148,-126C148,-126 194,-126 194,-126 200,-126 206,-132 206,-138 206,-138 206,-166 206,-166 206,-172 200,-178 194,-178 194,-178 148,-178 148,-178 142,-178 136,-172 136,-166 136,-166 136,-138 136,-138 136,-132 142,-126 148,-126"/>
<text text-anchor="middle" x="171" y="-166.8" font-family="Helvetica,sans-Serif" font-weight="bold" font-size="9.00">dist</text>
</g>
<g id="clust5" class="cluster">
<title>cluster_packages/util/graph/src</title>
<path fill="#ffffff" stroke="black" stroke-width="2" d="M125,-36C125,-36 592,-36 592,-36 598,-36 604,-42 604,-48 604,-48 604,-106 604,-106 604,-112 598,-118 592,-118 592,-118 125,-118 125,-118 119,-118 113,-112 113,-106 113,-106 113,-48 113,-48 113,-42 119,-36 125,-36"/>
<text text-anchor="middle" x="358.5" y="-106.8" font-family="Helvetica,sans-Serif" font-weight="bold" font-size="9.00">src</text>
</g>
<g id="clust6" class="cluster">
<title>cluster_packages/util/math</title>
<path fill="#ffffff" stroke="black" stroke-width="2" d="M632,-118C632,-118 694,-118 694,-118 700,-118 706,-124 706,-130 706,-130 706,-192 706,-192 706,-198 700,-204 694,-204 694,-204 632,-204 632,-204 626,-204 620,-198 620,-192 620,-192 620,-130 620,-130 620,-124 626,-118 632,-118"/>
<text text-anchor="middle" x="663" y="-192.8" font-family="Helvetica,sans-Serif" font-weight="bold" font-size="9.00">math</text>
</g>
<g id="clust7" class="cluster">
<title>cluster_packages/util/math/dist</title>
<path fill="#ffffff" stroke="black" stroke-width="2" d="M640,-126C640,-126 686,-126 686,-126 692,-126 698,-132 698,-138 698,-138 698,-166 698,-166 698,-172 692,-178 686,-178 686,-178 640,-178 640,-178 634,-178 628,-172 628,-166 628,-166 628,-138 628,-138 628,-132 634,-126 640,-126"/>
<text text-anchor="middle" x="663" y="-166.8" font-family="Helvetica,sans-Serif" font-weight="bold" font-size="9.00">dist</text>
</g>
<g id="clust8" class="cluster">
<title>cluster_packages/util/stdlib</title>
<path fill="#ffffff" stroke="black" stroke-width="2" d="M632,-24C632,-24 694,-24 694,-24 700,-24 706,-30 706,-36 706,-36 706,-98 706,-98 706,-104 700,-110 694,-110 694,-110 632,-110 632,-110 626,-110 620,-104 620,-98 620,-98 620,-36 620,-36 620,-30 626,-24 632,-24"/>
<text text-anchor="middle" x="663" y="-98.8" font-family="Helvetica,sans-Serif" font-weight="bold" font-size="9.00">stdlib</text>
</g>
<g id="clust9" class="cluster">
<title>cluster_packages/util/stdlib/dist</title>
<path fill="#ffffff" stroke="black" stroke-width="2" d="M640,-32C640,-32 686,-32 686,-32 692,-32 698,-38 698,-44 698,-44 698,-72 698,-72 698,-78 692,-84 686,-84 686,-84 640,-84 640,-84 634,-84 628,-78 628,-72 628,-72 628,-44 628,-44 628,-38 634,-32 640,-32"/>
<text text-anchor="middle" x="663" y="-72.8" font-family="Helvetica,sans-Serif" font-weight="bold" font-size="9.00">dist</text>
</g>
<!-- packages/util/graph/dist/index.js -->
<g id="node1" class="node">
<title>packages/util/graph/dist/index.js</title>
<g id="a_node1"><a xlink:href="packages/util/graph/dist/index.js" xlink:title="index.js">
<polygon fill="#ffffcc" stroke="black" points="198,-152 196.5,-154 186,-154 184.5,-152 144,-152 144,-134 198,-134 198,-152"/>
<text text-anchor="start" x="153.5" y="-140.8" font-family="Helvetica,sans-Serif" font-size="9.00">index.js</text>
</a>
</g>
</g>
<!-- packages/util/graph/index.test.ts -->
<g id="node2" class="node">
<title>packages/util/graph/index.test.ts</title>
<g id="a_node2"><a xlink:href="packages/util/graph/index.test.ts" xlink:title="index.test.ts">
<path fill="#ddfeff" stroke="black" d="M99,-152C99,-152 38,-152 38,-152 35,-152 32,-149 32,-146 32,-146 32,-140 32,-140 32,-137 35,-134 38,-134 38,-134 99,-134 99,-134 102,-134 105,-137 105,-140 105,-140 105,-146 105,-146 105,-149 102,-152 99,-152"/>
<text text-anchor="start" x="40" y="-140.8" font-family="Helvetica,sans-Serif" font-size="9.00">index.test.ts</text>
</a>
</g>
</g>
<!-- packages/util/graph/index.test.ts&#45;&gt;packages/util/graph/dist/index.js -->
<g id="edge1" class="edge">
<title>packages/util/graph/index.test.ts&#45;&gt;packages/util/graph/dist/index.js</title>
<path fill="none" stroke="#000000" stroke-width="2" stroke-opacity="0.200000" d="M105.22,-143C115.77,-143 127.27,-143 137.61,-143"/>
<polygon fill="#000000" fill-opacity="0.200000" stroke="#000000" stroke-width="2" stroke-opacity="0.200000" points="137.88,-145.1 143.88,-143 137.88,-140.9 137.88,-145.1"/>
</g>
<!-- packages/util/graph/index.ts -->
<g id="node3" class="node">
<title>packages/util/graph/index.ts</title>
<g id="a_node3"><a xlink:href="packages/util/graph/index.ts" xlink:title="index.ts">
<path fill="#ddfeff" stroke="black" d="M89.5,-92C89.5,-92 47.5,-92 47.5,-92 44.5,-92 41.5,-89 41.5,-86 41.5,-86 41.5,-80 41.5,-80 41.5,-77 44.5,-74 47.5,-74 47.5,-74 89.5,-74 89.5,-74 92.5,-74 95.5,-77 95.5,-80 95.5,-80 95.5,-86 95.5,-86 95.5,-89 92.5,-92 89.5,-92"/>
<text text-anchor="start" x="50" y="-80.8" font-family="Helvetica,sans-Serif" font-size="9.00">index.ts</text>
</a>
</g>
</g>
<!-- packages/util/graph/src/index.ts -->
<g id="node4" class="node">
<title>packages/util/graph/src/index.ts</title>
<g id="a_node4"><a xlink:href="packages/util/graph/src/index.ts" xlink:title="index.ts">
<path fill="#ddfeff" stroke="black" d="M192,-92C192,-92 150,-92 150,-92 147,-92 144,-89 144,-86 144,-86 144,-80 144,-80 144,-77 147,-74 150,-74 150,-74 192,-74 192,-74 195,-74 198,-77 198,-80 198,-80 198,-86 198,-86 198,-89 195,-92 192,-92"/>
<text text-anchor="start" x="152.5" y="-80.8" font-family="Helvetica,sans-Serif" font-size="9.00">index.ts</text>
</a>
</g>
</g>
<!-- packages/util/graph/index.ts&#45;&gt;packages/util/graph/src/index.ts -->
<g id="edge2" class="edge">
<title>packages/util/graph/index.ts&#45;&gt;packages/util/graph/src/index.ts</title>
<path fill="none" stroke="#000000" stroke-width="2" stroke-opacity="0.200000" d="M95.64,-83C108.55,-83 124.25,-83 137.88,-83"/>
<polygon fill="#000000" fill-opacity="0.200000" stroke="#000000" stroke-width="2" stroke-opacity="0.200000" points="143.99,-85.1 137.99,-83 143.99,-80.9 143.99,-85.1"/>
</g>
<!-- packages/util/graph/src/dynamic&#45;log&#45;viterbi.ts -->
<g id="node5" class="node">
<title>packages/util/graph/src/dynamic&#45;log&#45;viterbi.ts</title>
<g id="a_node5"><a xlink:href="packages/util/graph/src/dynamic-log-viterbi.ts" xlink:title="dynamic&#45;log&#45;viterbi.ts">
<path fill="#ddfeff" stroke="black" d="M498,-92C498,-92 395,-92 395,-92 392,-92 389,-89 389,-86 389,-86 389,-80 389,-80 389,-77 392,-74 395,-74 395,-74 498,-74 498,-74 501,-74 504,-77 504,-80 504,-80 504,-86 504,-86 504,-89 501,-92 498,-92"/>
<text text-anchor="start" x="397" y="-80.8" font-family="Helvetica,sans-Serif" font-size="9.00">dynamic&#45;log&#45;viterbi.ts</text>
</a>
</g>
</g>
<!-- packages/util/graph/src/index.ts&#45;&gt;packages/util/graph/src/dynamic&#45;log&#45;viterbi.ts -->
<g id="edge5" class="edge">
<title>packages/util/graph/src/index.ts&#45;&gt;packages/util/graph/src/dynamic&#45;log&#45;viterbi.ts</title>
<path fill="none" stroke="#000000" stroke-width="2" stroke-opacity="0.200000" d="M198.05,-75.4C205.5,-73.12 213.6,-70.55 221,-68 226.85,-65.98 227.91,-64.13 234,-63 293.05,-52.04 362.55,-63.11 405.32,-72.63"/>
<polygon fill="#000000" fill-opacity="0.200000" stroke="#000000" stroke-width="2" stroke-opacity="0.200000" points="410.71,-76 405.32,-72.63 411.64,-71.91 410.71,-76"/>
</g>
<!-- packages/util/graph/src/log&#45;viterbi.ts -->
<g id="node9" class="node">
<title>packages/util/graph/src/log&#45;viterbi.ts</title>
<g id="a_node9"><a xlink:href="packages/util/graph/src/log-viterbi.ts" xlink:title="log&#45;viterbi.ts">
<path fill="#ddfeff" stroke="black" d="M370,-92C370,-92 309,-92 309,-92 306,-92 303,-89 303,-86 303,-86 303,-80 303,-80 303,-77 306,-74 309,-74 309,-74 370,-74 370,-74 373,-74 376,-77 376,-80 376,-80 376,-86 376,-86 376,-89 373,-92 370,-92"/>
<text text-anchor="start" x="311" y="-80.8" font-family="Helvetica,sans-Serif" font-size="9.00">log&#45;viterbi.ts</text>
</a>
</g>
</g>
<!-- packages/util/graph/src/index.ts&#45;&gt;packages/util/graph/src/log&#45;viterbi.ts -->
<g id="edge6" class="edge">
<title>packages/util/graph/src/index.ts&#45;&gt;packages/util/graph/src/log&#45;viterbi.ts</title>
<path fill="none" stroke="#000000" stroke-width="2" stroke-opacity="0.200000" d="M198.3,-75.18C209.23,-72.31 222.12,-69.42 234,-68 258.71,-65.05 265.39,-64.28 290,-68 296.01,-68.91 302.31,-70.42 308.3,-72.14"/>
<polygon fill="#000000" fill-opacity="0.200000" stroke="#000000" stroke-width="2" stroke-opacity="0.200000" points="313.55,-75.92 308.42,-72.17 314.77,-71.9 313.55,-75.92"/>
</g>
<!-- packages/util/graph/src/viterbi.ts -->
<g id="node10" class="node">
<title>packages/util/graph/src/viterbi.ts</title>
<g id="a_node10"><a xlink:href="packages/util/graph/src/viterbi.ts" xlink:title="viterbi.ts">
<path fill="#ddfeff" stroke="black" d="M284,-92C284,-92 240,-92 240,-92 237,-92 234,-89 234,-86 234,-86 234,-80 234,-80 234,-77 237,-74 240,-74 240,-74 284,-74 284,-74 287,-74 290,-77 290,-80 290,-80 290,-86 290,-86 290,-89 287,-92 284,-92"/>
<text text-anchor="start" x="242" y="-80.8" font-family="Helvetica,sans-Serif" font-size="9.00">viterbi.ts</text>
</a>
</g>
</g>
<!-- packages/util/graph/src/index.ts&#45;&gt;packages/util/graph/src/viterbi.ts -->
<g id="edge7" class="edge">
<title>packages/util/graph/src/index.ts&#45;&gt;packages/util/graph/src/viterbi.ts</title>
<path fill="none" stroke="#000000" stroke-width="2" stroke-opacity="0.200000" d="M198.22,-83C207.39,-83 217.81,-83 227.5,-83"/>
<polygon fill="#000000" fill-opacity="0.200000" stroke="#000000" stroke-width="2" stroke-opacity="0.200000" points="233.73,-85.1 227.73,-83 233.73,-80.9 233.73,-85.1"/>
</g>
<!-- packages/util/graph/src/viterbi&#45;core.ts -->
<g id="node6" class="node">
<title>packages/util/graph/src/viterbi&#45;core.ts</title>
<g id="a_node6"><a xlink:href="packages/util/graph/src/viterbi-core.ts" xlink:title="viterbi&#45;core.ts">
<path fill="#ddfeff" stroke="black" d="M590,-92C590,-92 523,-92 523,-92 520,-92 517,-89 517,-86 517,-86 517,-80 517,-80 517,-77 520,-74 523,-74 523,-74 590,-74 590,-74 593,-74 596,-77 596,-80 596,-80 596,-86 596,-86 596,-89 593,-92 590,-92"/>
<text text-anchor="start" x="525" y="-80.8" font-family="Helvetica,sans-Serif" font-size="9.00">viterbi&#45;core.ts</text>
</a>
</g>
</g>
<!-- packages/util/graph/src/dynamic&#45;log&#45;viterbi.ts&#45;&gt;packages/util/graph/src/viterbi&#45;core.ts -->
<g id="edge3" class="edge">
<title>packages/util/graph/src/dynamic&#45;log&#45;viterbi.ts&#45;&gt;packages/util/graph/src/viterbi&#45;core.ts</title>
<path fill="none" stroke="#000000" stroke-width="2" stroke-opacity="0.200000" d="M504.03,-83C506.17,-83 508.31,-83 510.43,-83"/>
<polygon fill="#000000" fill-opacity="0.200000" stroke="#000000" stroke-width="2" stroke-opacity="0.200000" points="510.72,-85.1 516.72,-83 510.72,-80.9 510.72,-85.1"/>
</g>
<!-- packages/util/math/dist/index.js -->
<g id="node7" class="node">
<title>packages/util/math/dist/index.js</title>
<g id="a_node7"><a xlink:href="packages/util/math/dist/index.js" xlink:title="index.js">
<polygon fill="#ffffcc" stroke="black" points="690,-152 688.5,-154 678,-154 676.5,-152 636,-152 636,-134 690,-134 690,-152"/>
<text text-anchor="start" x="645.5" y="-140.8" font-family="Helvetica,sans-Serif" font-size="9.00">index.js</text>
</a>
</g>
</g>
<!-- packages/util/graph/src/dynamic&#45;log&#45;viterbi.ts&#45;&gt;packages/util/math/dist/index.js -->
<g id="edge4" class="edge">
<title>packages/util/graph/src/dynamic&#45;log&#45;viterbi.ts&#45;&gt;packages/util/math/dist/index.js</title>
<path fill="none" stroke="#000000" stroke-width="2" stroke-opacity="0.200000" d="M488.99,-92.02C529.9,-101.05 589.47,-114.65 612,-122 620.13,-124.65 628.79,-128.07 636.57,-131.37"/>
<polygon fill="#000000" fill-opacity="0.200000" stroke="#000000" stroke-width="2" stroke-opacity="0.200000" points="635.99,-133.4 642.33,-133.86 637.66,-129.55 635.99,-133.4"/>
</g>
<!-- packages/util/graph/src/viterbi&#45;core.ts&#45;&gt;packages/util/math/dist/index.js -->
<g id="edge10" class="edge">
<title>packages/util/graph/src/viterbi&#45;core.ts&#45;&gt;packages/util/math/dist/index.js</title>
<path fill="none" stroke="#000000" stroke-width="2" stroke-opacity="0.200000" d="M582.51,-92.1C591.99,-95.92 602.72,-100.71 612,-106 624.3,-113.01 637.12,-122.55 646.7,-130.19"/>
<polygon fill="#000000" fill-opacity="0.200000" stroke="#000000" stroke-width="2" stroke-opacity="0.200000" points="645.41,-131.84 651.39,-133.98 648.05,-128.58 645.41,-131.84"/>
</g>
<!-- packages/util/stdlib/dist/index.js -->
<g id="node11" class="node">
<title>packages/util/stdlib/dist/index.js</title>
<g id="a_node11"><a xlink:href="packages/util/stdlib/dist/index.js" xlink:title="index.js">
<polygon fill="#ffffcc" stroke="black" points="690,-58 688.5,-60 678,-60 676.5,-58 636,-58 636,-40 690,-40 690,-58"/>
<text text-anchor="start" x="645.5" y="-46.8" font-family="Helvetica,sans-Serif" font-size="9.00">index.js</text>
</a>
</g>
</g>
<!-- packages/util/graph/src/viterbi&#45;core.ts&#45;&gt;packages/util/stdlib/dist/index.js -->
<g id="edge11" class="edge">
<title>packages/util/graph/src/viterbi&#45;core.ts&#45;&gt;packages/util/stdlib/dist/index.js</title>
<path fill="none" stroke="#000000" stroke-width="2" stroke-opacity="0.200000" d="M585.23,-73.98C598.99,-69.5 615.67,-64.07 629.97,-59.42"/>
<polygon fill="#000000" fill-opacity="0.200000" stroke="#000000" stroke-width="2" stroke-opacity="0.200000" points="630.88,-61.33 635.94,-57.48 629.58,-57.34 630.88,-61.33"/>
</g>
<!-- packages/util/graph/src/hmm&#45;log&#45;viterbi.ts -->
<g id="node8" class="node">
<title>packages/util/graph/src/hmm&#45;log&#45;viterbi.ts</title>
<g id="a_node8"><a xlink:href="packages/util/graph/src/hmm-log-viterbi.ts" xlink:title="no&#45;orphans">
<path fill="#ccffcc" stroke="orange" d="M215,-62C215,-62 127,-62 127,-62 124,-62 121,-59 121,-56 121,-56 121,-50 121,-50 121,-47 124,-44 127,-44 127,-44 215,-44 215,-44 218,-44 221,-47 221,-50 221,-50 221,-56 221,-56 221,-59 218,-62 215,-62"/>
<text text-anchor="start" x="129" y="-50.8" font-family="Helvetica,sans-Serif" font-size="9.00" fill="orange">hmm&#45;log&#45;viterbi.ts</text>
</a>
</g>
</g>
<!-- packages/util/graph/src/log&#45;viterbi.ts&#45;&gt;packages/util/graph/src/dynamic&#45;log&#45;viterbi.ts -->
<g id="edge8" class="edge">
<title>packages/util/graph/src/log&#45;viterbi.ts&#45;&gt;packages/util/graph/src/dynamic&#45;log&#45;viterbi.ts</title>
<path fill="none" stroke="#000000" stroke-width="2" stroke-opacity="0.200000" d="M376.05,-83C378.26,-83 380.52,-83 382.8,-83"/>
<polygon fill="#000000" fill-opacity="0.200000" stroke="#000000" stroke-width="2" stroke-opacity="0.200000" points="382.9,-85.1 388.9,-83 382.9,-80.9 382.9,-85.1"/>
</g>
<!-- packages/util/graph/src/log&#45;viterbi.ts&#45;&gt;packages/util/math/dist/index.js -->
<g id="edge9" class="edge">
<title>packages/util/graph/src/log&#45;viterbi.ts&#45;&gt;packages/util/math/dist/index.js</title>
<path fill="none" stroke="#000000" stroke-width="2" stroke-opacity="0.200000" d="M367.51,-92.07C374.46,-94.21 381.97,-96.34 389,-98 475.03,-118.29 578.44,-132.66 629.79,-139.14"/>
<polygon fill="#000000" fill-opacity="0.200000" stroke="#000000" stroke-width="2" stroke-opacity="0.200000" points="629.58,-141.23 635.79,-139.89 630.1,-137.06 629.58,-141.23"/>
</g>
<!-- packages/util/graph/src/viterbi.ts&#45;&gt;packages/util/math/dist/index.js -->
<g id="edge13" class="edge">
<title>packages/util/graph/src/viterbi.ts&#45;&gt;packages/util/math/dist/index.js</title>
<path fill="none" stroke="#000000" stroke-width="2" stroke-opacity="0.200000" d="M285.18,-92.16C290.92,-94.29 297.13,-96.4 303,-98 340.44,-108.19 350.74,-106.53 389,-113 445.84,-122.62 459.71,-127.54 517,-134 555.61,-138.35 600.25,-140.73 629.69,-141.93"/>
<polygon fill="#000000" fill-opacity="0.200000" stroke="#000000" stroke-width="2" stroke-opacity="0.200000" points="629.66,-144.03 635.74,-142.16 629.82,-139.83 629.66,-144.03"/>
</g>
<!-- packages/util/graph/src/viterbi.ts&#45;&gt;packages/util/graph/src/log&#45;viterbi.ts -->
<g id="edge12" class="edge">
<title>packages/util/graph/src/viterbi.ts&#45;&gt;packages/util/graph/src/log&#45;viterbi.ts</title>
<path fill="none" stroke="#000000" stroke-width="2" stroke-opacity="0.200000" d="M290.26,-83C292.28,-83 294.36,-83 296.45,-83"/>
<polygon fill="#000000" fill-opacity="0.200000" stroke="#000000" stroke-width="2" stroke-opacity="0.200000" points="296.74,-85.1 302.74,-83 296.74,-80.9 296.74,-85.1"/>
</g>
</g>
</svg>
