<?xml version="1.0" encoding="UTF-8" standalone="no"?>
<!DOCTYPE svg PUBLIC "-//W3C//DTD SVG 1.1//EN"
 "http://www.w3.org/Graphics/SVG/1.1/DTD/svg11.dtd">
<!-- Generated by graphviz version 2.43.0 (0)
 -->
<!-- Title: dependency&#45;cruiser output Pages: 1 -->
<svg width="825pt" height="346pt"
 viewBox="0.00 0.00 825.00 346.00" xmlns="http://www.w3.org/2000/svg" xmlns:xlink="http://www.w3.org/1999/xlink">
<g id="graph0" class="graph" transform="scale(1 1) rotate(0) translate(4 342)">
<title>dependency&#45;cruiser output</title>
<polygon fill="white" stroke="transparent" points="-4,4 -4,-342 821,-342 821,4 -4,4"/>
<g id="clust1" class="cluster">
<title>cluster_packages</title>
<path fill="#ffffff" stroke="black" stroke-width="2" d="M20,-8C20,-8 797,-8 797,-8 803,-8 809,-14 809,-20 809,-20 809,-318 809,-318 809,-324 803,-330 797,-330 797,-330 20,-330 20,-330 14,-330 8,-324 8,-318 8,-318 8,-20 8,-20 8,-14 14,-8 20,-8"/>
<text text-anchor="middle" x="408.5" y="-318.8" font-family="Helvetica,sans-Serif" font-weight="bold" font-size="9.00">packages</text>
</g>
<g id="clust2" class="cluster">
<title>cluster_packages/util</title>
<path fill="#ffffff" stroke="black" stroke-width="2" d="M28,-16C28,-16 789,-16 789,-16 795,-16 801,-22 801,-28 801,-28 801,-292 801,-292 801,-298 795,-304 789,-304 789,-304 28,-304 28,-304 22,-304 16,-298 16,-292 16,-292 16,-28 16,-28 16,-22 22,-16 28,-16"/>
<text text-anchor="middle" x="408.5" y="-292.8" font-family="Helvetica,sans-Serif" font-weight="bold" font-size="9.00">util</text>
</g>
<g id="clust3" class="cluster">
<title>cluster_packages/util/graph</title>
<path fill="#ffffff" stroke="black" stroke-width="2" d="M36,-103C36,-103 531,-103 531,-103 537,-103 543,-109 543,-115 543,-115 543,-227 543,-227 543,-233 537,-239 531,-239 531,-239 36,-239 36,-239 30,-239 24,-233 24,-227 24,-227 24,-115 24,-115 24,-109 30,-103 36,-103"/>
<text text-anchor="middle" x="283.5" y="-227.8" font-family="Helvetica,sans-Serif" font-weight="bold" font-size="9.00">graph</text>
</g>
<g id="clust4" class="cluster">
<title>cluster_packages/util/graph/src</title>
<path fill="#ffffff" stroke="black" stroke-width="2" d="M125,-131C125,-131 523,-131 523,-131 529,-131 535,-137 535,-143 535,-143 535,-201 535,-201 535,-207 529,-213 523,-213 523,-213 125,-213 125,-213 119,-213 113,-207 113,-201 113,-201 113,-143 113,-143 113,-137 119,-131 125,-131"/>
<text text-anchor="middle" x="324" y="-201.8" font-family="Helvetica,sans-Serif" font-weight="bold" font-size="9.00">src</text>
</g>
<g id="clust5" class="cluster">
<title>cluster_packages/util/math</title>
<path fill="#ffffff" stroke="black" stroke-width="2" d="M563,-128C563,-128 781,-128 781,-128 787,-128 793,-134 793,-140 793,-140 793,-266 793,-266 793,-272 787,-278 781,-278 781,-278 563,-278 563,-278 557,-278 551,-272 551,-266 551,-266 551,-140 551,-140 551,-134 557,-128 563,-128"/>
<text text-anchor="middle" x="672" y="-266.8" font-family="Helvetica,sans-Serif" font-weight="bold" font-size="9.00">math</text>
</g>
<g id="clust6" class="cluster">
<title>cluster_packages/util/math/src</title>
<path fill="#ffffff" stroke="black" stroke-width="2" d="M571,-136C571,-136 773,-136 773,-136 779,-136 785,-142 785,-148 785,-148 785,-240 785,-240 785,-246 779,-252 773,-252 773,-252 571,-252 571,-252 565,-252 559,-246 559,-240 559,-240 559,-148 559,-148 559,-142 565,-136 571,-136"/>
<text text-anchor="middle" x="672" y="-240.8" font-family="Helvetica,sans-Serif" font-weight="bold" font-size="9.00">src</text>
</g>
<g id="clust7" class="cluster">
<title>cluster_packages/util/math/src/reduction</title>
<path fill="#ffffff" stroke="black" stroke-width="2" d="M579,-144C579,-144 765,-144 765,-144 771,-144 777,-150 777,-156 777,-156 777,-214 777,-214 777,-220 771,-226 765,-226 765,-226 579,-226 579,-226 573,-226 567,-220 567,-214 567,-214 567,-156 567,-156 567,-150 573,-144 579,-144"/>
<text text-anchor="middle" x="672" y="-214.8" font-family="Helvetica,sans-Serif" font-weight="bold" font-size="9.00">reduction</text>
</g>
<g id="clust8" class="cluster">
<title>cluster_packages/util/stdlib</title>
<path fill="#ffffff" stroke="black" stroke-width="2" d="M586.5,-34C586.5,-34 653.5,-34 653.5,-34 659.5,-34 665.5,-40 665.5,-46 665.5,-46 665.5,-108 665.5,-108 665.5,-114 659.5,-120 653.5,-120 653.5,-120 586.5,-120 586.5,-120 580.5,-120 574.5,-114 574.5,-108 574.5,-108 574.5,-46 574.5,-46 574.5,-40 580.5,-34 586.5,-34"/>
<text text-anchor="middle" x="620" y="-108.8" font-family="Helvetica,sans-Serif" font-weight="bold" font-size="9.00">stdlib</text>
</g>
<g id="clust9" class="cluster">
<title>cluster_packages/util/stdlib/src</title>
<path fill="#ffffff" stroke="black" stroke-width="2" d="M594.5,-42C594.5,-42 645.5,-42 645.5,-42 651.5,-42 657.5,-48 657.5,-54 657.5,-54 657.5,-82 657.5,-82 657.5,-88 651.5,-94 645.5,-94 645.5,-94 594.5,-94 594.5,-94 588.5,-94 582.5,-88 582.5,-82 582.5,-82 582.5,-54 582.5,-54 582.5,-48 588.5,-42 594.5,-42"/>
<text text-anchor="middle" x="620" y="-82.8" font-family="Helvetica,sans-Serif" font-weight="bold" font-size="9.00">src</text>
</g>
<!-- packages/util/graph/index.test.ts -->
<g id="node1" class="node">
<title>packages/util/graph/index.test.ts</title>
<g id="a_node1"><a xlink:href="packages/util/graph/index.test.ts" xlink:title="index.test.ts">
<path fill="#ddfeff" stroke="black" d="M99,-135C99,-135 38,-135 38,-135 35,-135 32,-132 32,-129 32,-129 32,-123 32,-123 32,-120 35,-117 38,-117 38,-117 99,-117 99,-117 102,-117 105,-120 105,-123 105,-123 105,-129 105,-129 105,-132 102,-135 99,-135"/>
<text text-anchor="start" x="40" y="-123.8" font-family="Helvetica,sans-Serif" font-size="9.00">index.test.ts</text>
</a>
</g>
</g>
<!-- packages/util/graph/src/dynamic&#45;log&#45;viterbi.ts -->
<g id="node2" class="node">
<title>packages/util/graph/src/dynamic&#45;log&#45;viterbi.ts</title>
<g id="a_node2"><a xlink:href="packages/util/graph/src/dynamic-log-viterbi.ts" xlink:title="dynamic&#45;log&#45;viterbi.ts">
<path fill="#ddfeff" stroke="black" d="M429,-164C429,-164 326,-164 326,-164 323,-164 320,-161 320,-158 320,-158 320,-152 320,-152 320,-149 323,-146 326,-146 326,-146 429,-146 429,-146 432,-146 435,-149 435,-152 435,-152 435,-158 435,-158 435,-161 432,-164 429,-164"/>
<text text-anchor="start" x="328" y="-152.8" font-family="Helvetica,sans-Serif" font-size="9.00">dynamic&#45;log&#45;viterbi.ts</text>
</a>
</g>
</g>
<!-- packages/util/graph/index.test.ts&#45;&gt;packages/util/graph/src/dynamic&#45;log&#45;viterbi.ts -->
<g id="edge1" class="edge">
<title>packages/util/graph/index.test.ts&#45;&gt;packages/util/graph/src/dynamic&#45;log&#45;viterbi.ts</title>
<path fill="none" stroke="#000000" stroke-width="2" stroke-opacity="0.200000" d="M105.16,-129.44C156.58,-134.27 250.86,-143.11 313.87,-149.03"/>
<polygon fill="#000000" fill-opacity="0.200000" stroke="#000000" stroke-width="2" stroke-opacity="0.200000" points="313.7,-151.12 319.87,-149.59 314.09,-146.94 313.7,-151.12"/>
</g>
<!-- packages/util/graph/src/log&#45;viterbi.ts -->
<g id="node3" class="node">
<title>packages/util/graph/src/log&#45;viterbi.ts</title>
<g id="a_node3"><a xlink:href="packages/util/graph/src/log-viterbi.ts" xlink:title="log&#45;viterbi.ts">
<path fill="#ddfeff" stroke="black" d="M301,-171C301,-171 240,-171 240,-171 237,-171 234,-168 234,-165 234,-165 234,-159 234,-159 234,-156 237,-153 240,-153 240,-153 301,-153 301,-153 304,-153 307,-156 307,-159 307,-159 307,-165 307,-165 307,-168 304,-171 301,-171"/>
<text text-anchor="start" x="242" y="-159.8" font-family="Helvetica,sans-Serif" font-size="9.00">log&#45;viterbi.ts</text>
</a>
</g>
</g>
<!-- packages/util/graph/index.test.ts&#45;&gt;packages/util/graph/src/log&#45;viterbi.ts -->
<g id="edge2" class="edge">
<title>packages/util/graph/index.test.ts&#45;&gt;packages/util/graph/src/log&#45;viterbi.ts</title>
<path fill="none" stroke="#000000" stroke-width="2" stroke-opacity="0.200000" d="M105.08,-132.52C139.58,-138.67 191.29,-147.88 227.69,-154.37"/>
<polygon fill="#000000" fill-opacity="0.200000" stroke="#000000" stroke-width="2" stroke-opacity="0.200000" points="227.58,-156.48 233.85,-155.47 228.31,-152.35 227.58,-156.48"/>
</g>
<!-- packages/util/graph/src/viterbi.ts -->
<g id="node4" class="node">
<title>packages/util/graph/src/viterbi.ts</title>
<g id="a_node4"><a xlink:href="packages/util/graph/src/viterbi.ts" xlink:title="viterbi.ts">
<path fill="#ddfeff" stroke="black" d="M193,-187C193,-187 149,-187 149,-187 146,-187 143,-184 143,-181 143,-181 143,-175 143,-175 143,-172 146,-169 149,-169 149,-169 193,-169 193,-169 196,-169 199,-172 199,-175 199,-175 199,-181 199,-181 199,-184 196,-187 193,-187"/>
<text text-anchor="start" x="151" y="-175.8" font-family="Helvetica,sans-Serif" font-size="9.00">viterbi.ts</text>
</a>
</g>
</g>
<!-- packages/util/graph/index.test.ts&#45;&gt;packages/util/graph/src/viterbi.ts -->
<g id="edge3" class="edge">
<title>packages/util/graph/index.test.ts&#45;&gt;packages/util/graph/src/viterbi.ts</title>
<path fill="none" stroke="#000000" stroke-width="2" stroke-opacity="0.200000" d="M87.01,-135.06C103.62,-143.65 128.69,-156.63 146.93,-166.07"/>
<polygon fill="#000000" fill-opacity="0.200000" stroke="#000000" stroke-width="2" stroke-opacity="0.200000" points="146.06,-167.98 152.36,-168.87 147.99,-164.25 146.06,-167.98"/>
</g>
<!-- packages/util/graph/src/viterbi&#45;core.ts -->
<g id="node5" class="node">
<title>packages/util/graph/src/viterbi&#45;core.ts</title>
<g id="a_node5"><a xlink:href="packages/util/graph/src/viterbi-core.ts" xlink:title="viterbi&#45;core.ts">
<path fill="#ddfeff" stroke="black" d="M521,-157C521,-157 454,-157 454,-157 451,-157 448,-154 448,-151 448,-151 448,-145 448,-145 448,-142 451,-139 454,-139 454,-139 521,-139 521,-139 524,-139 527,-142 527,-145 527,-145 527,-151 527,-151 527,-154 524,-157 521,-157"/>
<text text-anchor="start" x="456" y="-145.8" font-family="Helvetica,sans-Serif" font-size="9.00">viterbi&#45;core.ts</text>
</a>
</g>
</g>
<!-- packages/util/graph/src/dynamic&#45;log&#45;viterbi.ts&#45;&gt;packages/util/graph/src/viterbi&#45;core.ts -->
<g id="edge4" class="edge">
<title>packages/util/graph/src/dynamic&#45;log&#45;viterbi.ts&#45;&gt;packages/util/graph/src/viterbi&#45;core.ts</title>
<path fill="none" stroke="#000000" stroke-width="2" stroke-opacity="0.200000" d="M435.03,-151.34C437.17,-151.2 439.31,-151.06 441.43,-150.92"/>
<polygon fill="#000000" fill-opacity="0.200000" stroke="#000000" stroke-width="2" stroke-opacity="0.200000" points="441.87,-153 447.72,-150.51 441.6,-148.81 441.87,-153"/>
</g>
<!-- packages/util/math/src/reduction/compare.ts -->
<g id="node6" class="node">
<title>packages/util/math/src/reduction/compare.ts</title>
<g id="a_node6"><a xlink:href="packages/util/math/src/reduction/compare.ts" xlink:title="compare.ts">
<path fill="#ddfeff" stroke="black" d="M648,-200C648,-200 592,-200 592,-200 589,-200 586,-197 586,-194 586,-194 586,-188 586,-188 586,-185 589,-182 592,-182 592,-182 648,-182 648,-182 651,-182 654,-185 654,-188 654,-188 654,-194 654,-194 654,-197 651,-200 648,-200"/>
<text text-anchor="start" x="594" y="-188.8" font-family="Helvetica,sans-Serif" font-size="9.00">compare.ts</text>
</a>
</g>
</g>
<!-- packages/util/graph/src/dynamic&#45;log&#45;viterbi.ts&#45;&gt;packages/util/math/src/reduction/compare.ts -->
<g id="edge5" class="edge">
<title>packages/util/graph/src/dynamic&#45;log&#45;viterbi.ts&#45;&gt;packages/util/math/src/reduction/compare.ts</title>
<path fill="none" stroke="#000000" stroke-width="2" stroke-opacity="0.200000" d="M435.28,-163.58C479.82,-170.19 540.29,-179.17 579.72,-185.02"/>
<polygon fill="#000000" fill-opacity="0.200000" stroke="#000000" stroke-width="2" stroke-opacity="0.200000" points="579.62,-187.13 585.86,-185.93 580.23,-182.97 579.62,-187.13"/>
</g>
<!-- packages/util/graph/src/log&#45;viterbi.ts&#45;&gt;packages/util/graph/src/dynamic&#45;log&#45;viterbi.ts -->
<g id="edge6" class="edge">
<title>packages/util/graph/src/log&#45;viterbi.ts&#45;&gt;packages/util/graph/src/dynamic&#45;log&#45;viterbi.ts</title>
<path fill="none" stroke="#000000" stroke-width="2" stroke-opacity="0.200000" d="M307.05,-159.63C309.26,-159.48 311.52,-159.33 313.8,-159.18"/>
<polygon fill="#000000" fill-opacity="0.200000" stroke="#000000" stroke-width="2" stroke-opacity="0.200000" points="314.05,-161.27 319.9,-158.77 313.77,-157.08 314.05,-161.27"/>
</g>
<!-- packages/util/graph/src/log&#45;viterbi.ts&#45;&gt;packages/util/math/src/reduction/compare.ts -->
<g id="edge7" class="edge">
<title>packages/util/graph/src/log&#45;viterbi.ts&#45;&gt;packages/util/math/src/reduction/compare.ts</title>
<path fill="none" stroke="#000000" stroke-width="2" stroke-opacity="0.200000" d="M307.24,-165.05C373.25,-170.53 511.39,-181.99 579.82,-187.67"/>
<polygon fill="#000000" fill-opacity="0.200000" stroke="#000000" stroke-width="2" stroke-opacity="0.200000" points="579.66,-189.76 585.82,-188.16 580.01,-185.57 579.66,-189.76"/>
</g>
<!-- packages/util/graph/src/viterbi.ts&#45;&gt;packages/util/graph/src/log&#45;viterbi.ts -->
<g id="edge11" class="edge">
<title>packages/util/graph/src/viterbi.ts&#45;&gt;packages/util/graph/src/log&#45;viterbi.ts</title>
<path fill="none" stroke="#000000" stroke-width="2" stroke-opacity="0.200000" d="M199.16,-173.54C208.02,-172.09 218.08,-170.44 227.77,-168.85"/>
<polygon fill="#000000" fill-opacity="0.200000" stroke="#000000" stroke-width="2" stroke-opacity="0.200000" points="228.15,-170.91 233.73,-167.87 227.47,-166.77 228.15,-170.91"/>
</g>
<!-- packages/util/graph/src/viterbi.ts&#45;&gt;packages/util/math/src/reduction/compare.ts -->
<g id="edge12" class="edge">
<title>packages/util/graph/src/viterbi.ts&#45;&gt;packages/util/math/src/reduction/compare.ts</title>
<path fill="none" stroke="#000000" stroke-width="2" stroke-opacity="0.200000" d="M199.09,-178.81C275.96,-181.04 490.01,-187.24 579.67,-189.83"/>
<polygon fill="#000000" fill-opacity="0.200000" stroke="#000000" stroke-width="2" stroke-opacity="0.200000" points="579.85,-191.94 585.91,-190.01 579.98,-187.74 579.85,-191.94"/>
</g>
<!-- packages/util/math/src/reduction/args&#45;min&#45;max.ts -->
<g id="node8" class="node">
<title>packages/util/math/src/reduction/args&#45;min&#45;max.ts</title>
<g id="a_node8"><a xlink:href="packages/util/math/src/reduction/args-min-max.ts" xlink:title="args&#45;min&#45;max.ts">
<path fill="#ddfeff" stroke="black" d="M659,-170C659,-170 581,-170 581,-170 578,-170 575,-167 575,-164 575,-164 575,-158 575,-158 575,-155 578,-152 581,-152 581,-152 659,-152 659,-152 662,-152 665,-155 665,-158 665,-158 665,-164 665,-164 665,-167 662,-170 659,-170"/>
<text text-anchor="start" x="583" y="-158.8" font-family="Helvetica,sans-Serif" font-size="9.00">args&#45;min&#45;max.ts</text>
</a>
</g>
</g>
<!-- packages/util/graph/src/viterbi&#45;core.ts&#45;&gt;packages/util/math/src/reduction/args&#45;min&#45;max.ts -->
<g id="edge8" class="edge">
<title>packages/util/graph/src/viterbi&#45;core.ts&#45;&gt;packages/util/math/src/reduction/args&#45;min&#45;max.ts</title>
<path fill="none" stroke="#000000" stroke-width="2" stroke-opacity="0.200000" d="M527.3,-151.87C540.2,-153.15 554.76,-154.6 568.42,-155.96"/>
<polygon fill="#000000" fill-opacity="0.200000" stroke="#000000" stroke-width="2" stroke-opacity="0.200000" points="568.44,-158.07 574.62,-156.58 568.86,-153.89 568.44,-158.07"/>
</g>
<!-- packages/util/math/src/reduction/compare&#45;func.ts -->
<g id="node9" class="node">
<title>packages/util/math/src/reduction/compare&#45;func.ts</title>
<g id="a_node9"><a xlink:href="packages/util/math/src/reduction/compare-func.ts" xlink:title="compare&#45;func.ts">
<path fill="#ddfeff" stroke="black" d="M763,-170C763,-170 684,-170 684,-170 681,-170 678,-167 678,-164 678,-164 678,-158 678,-158 678,-155 681,-152 684,-152 684,-152 763,-152 763,-152 766,-152 769,-155 769,-158 769,-158 769,-164 769,-164 769,-167 766,-170 763,-170"/>
<text text-anchor="start" x="686" y="-158.8" font-family="Helvetica,sans-Serif" font-size="9.00">compare&#45;func.ts</text>
</a>
</g>
</g>
<!-- packages/util/graph/src/viterbi&#45;core.ts&#45;&gt;packages/util/math/src/reduction/compare&#45;func.ts -->
<g id="edge9" class="edge">
<title>packages/util/graph/src/viterbi&#45;core.ts&#45;&gt;packages/util/math/src/reduction/compare&#45;func.ts</title>
<path fill="none" stroke="#000000" stroke-width="2" stroke-opacity="0.200000" d="M527,-150.18C566.73,-152.36 628.18,-155.75 671.77,-158.15"/>
<polygon fill="#000000" fill-opacity="0.200000" stroke="#000000" stroke-width="2" stroke-opacity="0.200000" points="671.7,-160.25 677.8,-158.48 671.93,-156.06 671.7,-160.25"/>
</g>
<!-- packages/util/stdlib/src/unique.ts -->
<g id="node10" class="node">
<title>packages/util/stdlib/src/unique.ts</title>
<g id="a_node10"><a xlink:href="packages/util/stdlib/src/unique.ts" xlink:title="unique.ts">
<path fill="#ddfeff" stroke="black" d="M643.5,-68C643.5,-68 596.5,-68 596.5,-68 593.5,-68 590.5,-65 590.5,-62 590.5,-62 590.5,-56 590.5,-56 590.5,-53 593.5,-50 596.5,-50 596.5,-50 643.5,-50 643.5,-50 646.5,-50 649.5,-53 649.5,-56 649.5,-56 649.5,-62 649.5,-62 649.5,-65 646.5,-68 643.5,-68"/>
<text text-anchor="start" x="598.5" y="-56.8" font-family="Helvetica,sans-Serif" font-size="9.00">unique.ts</text>
</a>
</g>
</g>
<!-- packages/util/graph/src/viterbi&#45;core.ts&#45;&gt;packages/util/stdlib/src/unique.ts -->
<g id="edge10" class="edge">
<title>packages/util/graph/src/viterbi&#45;core.ts&#45;&gt;packages/util/stdlib/src/unique.ts</title>
<path fill="none" stroke="#000000" stroke-width="2" stroke-opacity="0.200000" d="M501.97,-138.81C525.54,-122.74 574.25,-89.52 600.79,-71.42"/>
<polygon fill="#000000" fill-opacity="0.200000" stroke="#000000" stroke-width="2" stroke-opacity="0.200000" points="602.02,-73.12 605.79,-68.01 599.65,-69.65 602.02,-73.12"/>
</g>
<!-- packages/util/math/src/reduction/compare.ts&#45;&gt;packages/util/math/src/reduction/compare&#45;func.ts -->
<g id="edge14" class="edge">
<title>packages/util/math/src/reduction/compare.ts&#45;&gt;packages/util/math/src/reduction/compare&#45;func.ts</title>
<path fill="none" stroke="#000000" stroke-width="2" stroke-opacity="0.200000" d="M651.45,-182C662.29,-178.8 674.61,-175.15 685.91,-171.81"/>
<polygon fill="#000000" fill-opacity="0.200000" stroke="#000000" stroke-width="2" stroke-opacity="0.200000" points="686.56,-173.81 691.72,-170.1 685.37,-169.79 686.56,-173.81"/>
</g>
<!-- packages/util/graph/src/hmm&#45;log&#45;viterbi.ts -->
<g id="node7" class="node">
<title>packages/util/graph/src/hmm&#45;log&#45;viterbi.ts</title>
<g id="a_node7"><a xlink:href="packages/util/graph/src/hmm-log-viterbi.ts" xlink:title="no&#45;orphans">
<path fill="#ccffcc" stroke="orange" d="M215,-157C215,-157 127,-157 127,-157 124,-157 121,-154 121,-151 121,-151 121,-145 121,-145 121,-142 124,-139 127,-139 127,-139 215,-139 215,-139 218,-139 221,-142 221,-145 221,-145 221,-151 221,-151 221,-154 218,-157 215,-157"/>
<text text-anchor="start" x="129" y="-145.8" font-family="Helvetica,sans-Serif" font-size="9.00" fill="orange">hmm&#45;log&#45;viterbi.ts</text>
</a>
</g>
</g>
<!-- packages/util/math/src/reduction/args&#45;min&#45;max.ts&#45;&gt;packages/util/math/src/reduction/compare&#45;func.ts -->
<g id="edge13" class="edge">
<title>packages/util/math/src/reduction/args&#45;min&#45;max.ts&#45;&gt;packages/util/math/src/reduction/compare&#45;func.ts</title>
<path fill="none" stroke="#000000" stroke-width="2" stroke-opacity="0.200000" d="M665.22,-161C667.31,-161 669.41,-161 671.5,-161"/>
<polygon fill="#000000" fill-opacity="0.200000" stroke="#000000" stroke-width="2" stroke-opacity="0.200000" points="671.79,-163.1 677.79,-161 671.79,-158.9 671.79,-163.1"/>
</g>
</g>
</svg>
