<?xml version="1.0" encoding="UTF-8" standalone="no"?>
<!DOCTYPE svg PUBLIC "-//W3C//DTD SVG 1.1//EN"
 "http://www.w3.org/Graphics/SVG/1.1/DTD/svg11.dtd">
<!-- Generated by graphviz version 2.43.0 (0)
 -->
<!-- Title: dependency&#45;cruiser output Pages: 1 -->
<svg width="894pt" height="346pt"
 viewBox="0.00 0.00 894.00 346.00" xmlns="http://www.w3.org/2000/svg" xmlns:xlink="http://www.w3.org/1999/xlink">
<g id="graph0" class="graph" transform="scale(1 1) rotate(0) translate(4 342)">
<title>dependency&#45;cruiser output</title>
<polygon fill="white" stroke="transparent" points="-4,4 -4,-342 890,-342 890,4 -4,4"/>
<g id="clust1" class="cluster">
<title>cluster_packages</title>
<path fill="#ffffff" stroke="black" stroke-width="2" d="M20,-8C20,-8 866,-8 866,-8 872,-8 878,-14 878,-20 878,-20 878,-318 878,-318 878,-324 872,-330 866,-330 866,-330 20,-330 20,-330 14,-330 8,-324 8,-318 8,-318 8,-20 8,-20 8,-14 14,-8 20,-8"/>
<text text-anchor="middle" x="443" y="-318.8" font-family="Helvetica,sans-Serif" font-weight="bold" font-size="9.00">packages</text>
</g>
<g id="clust2" class="cluster">
<title>cluster_packages/util</title>
<path fill="#ffffff" stroke="black" stroke-width="2" d="M28,-16C28,-16 858,-16 858,-16 864,-16 870,-22 870,-28 870,-28 870,-292 870,-292 870,-298 864,-304 858,-304 858,-304 28,-304 28,-304 22,-304 16,-298 16,-292 16,-292 16,-28 16,-28 16,-22 22,-16 28,-16"/>
<text text-anchor="middle" x="443" y="-292.8" font-family="Helvetica,sans-Serif" font-weight="bold" font-size="9.00">util</text>
</g>
<g id="clust3" class="cluster">
<title>cluster_packages/util/graph</title>
<path fill="#ffffff" stroke="black" stroke-width="2" d="M36,-102C36,-102 600,-102 600,-102 606,-102 612,-108 612,-114 612,-114 612,-266 612,-266 612,-272 606,-278 600,-278 600,-278 36,-278 36,-278 30,-278 24,-272 24,-266 24,-266 24,-114 24,-114 24,-108 30,-102 36,-102"/>
<text text-anchor="middle" x="318" y="-266.8" font-family="Helvetica,sans-Serif" font-weight="bold" font-size="9.00">graph</text>
</g>
<g id="clust4" class="cluster">
<title>cluster_packages/util/graph/dist</title>
<path fill="#ffffff" stroke="black" stroke-width="2" d="M148,-200C148,-200 194,-200 194,-200 200,-200 206,-206 206,-212 206,-212 206,-240 206,-240 206,-246 200,-252 194,-252 194,-252 148,-252 148,-252 142,-252 136,-246 136,-240 136,-240 136,-212 136,-212 136,-206 142,-200 148,-200"/>
<text text-anchor="middle" x="171" y="-240.8" font-family="Helvetica,sans-Serif" font-weight="bold" font-size="9.00">dist</text>
</g>
<g id="clust5" class="cluster">
<title>cluster_packages/util/graph/src</title>
<path fill="#ffffff" stroke="black" stroke-width="2" d="M125,-110C125,-110 592,-110 592,-110 598,-110 604,-116 604,-122 604,-122 604,-180 604,-180 604,-186 598,-192 592,-192 592,-192 125,-192 125,-192 119,-192 113,-186 113,-180 113,-180 113,-122 113,-122 113,-116 119,-110 125,-110"/>
<text text-anchor="middle" x="358.5" y="-180.8" font-family="Helvetica,sans-Serif" font-weight="bold" font-size="9.00">src</text>
</g>
<g id="clust6" class="cluster">
<title>cluster_packages/util/math</title>
<path fill="#ffffff" stroke="black" stroke-width="2" d="M632,-128C632,-128 850,-128 850,-128 856,-128 862,-134 862,-140 862,-140 862,-266 862,-266 862,-272 856,-278 850,-278 850,-278 632,-278 632,-278 626,-278 620,-272 620,-266 620,-266 620,-140 620,-140 620,-134 626,-128 632,-128"/>
<text text-anchor="middle" x="741" y="-266.8" font-family="Helvetica,sans-Serif" font-weight="bold" font-size="9.00">math</text>
</g>
<g id="clust7" class="cluster">
<title>cluster_packages/util/math/src</title>
<path fill="#ffffff" stroke="black" stroke-width="2" d="M640,-136C640,-136 842,-136 842,-136 848,-136 854,-142 854,-148 854,-148 854,-240 854,-240 854,-246 848,-252 842,-252 842,-252 640,-252 640,-252 634,-252 628,-246 628,-240 628,-240 628,-148 628,-148 628,-142 634,-136 640,-136"/>
<text text-anchor="middle" x="741" y="-240.8" font-family="Helvetica,sans-Serif" font-weight="bold" font-size="9.00">src</text>
</g>
<g id="clust8" class="cluster">
<title>cluster_packages/util/math/src/reduction</title>
<path fill="#ffffff" stroke="black" stroke-width="2" d="M648,-144C648,-144 834,-144 834,-144 840,-144 846,-150 846,-156 846,-156 846,-214 846,-214 846,-220 840,-226 834,-226 834,-226 648,-226 648,-226 642,-226 636,-220 636,-214 636,-214 636,-156 636,-156 636,-150 642,-144 648,-144"/>
<text text-anchor="middle" x="741" y="-214.8" font-family="Helvetica,sans-Serif" font-weight="bold" font-size="9.00">reduction</text>
</g>
<g id="clust9" class="cluster">
<title>cluster_packages/util/stdlib</title>
<path fill="#ffffff" stroke="black" stroke-width="2" d="M655.5,-34C655.5,-34 722.5,-34 722.5,-34 728.5,-34 734.5,-40 734.5,-46 734.5,-46 734.5,-108 734.5,-108 734.5,-114 728.5,-120 722.5,-120 722.5,-120 655.5,-120 655.5,-120 649.5,-120 643.5,-114 643.5,-108 643.5,-108 643.5,-46 643.5,-46 643.5,-40 649.5,-34 655.5,-34"/>
<text text-anchor="middle" x="689" y="-108.8" font-family="Helvetica,sans-Serif" font-weight="bold" font-size="9.00">stdlib</text>
</g>
<g id="clust10" class="cluster">
<title>cluster_packages/util/stdlib/src</title>
<path fill="#ffffff" stroke="black" stroke-width="2" d="M663.5,-42C663.5,-42 714.5,-42 714.5,-42 720.5,-42 726.5,-48 726.5,-54 726.5,-54 726.5,-82 726.5,-82 726.5,-88 720.5,-94 714.5,-94 714.5,-94 663.5,-94 663.5,-94 657.5,-94 651.5,-88 651.5,-82 651.5,-82 651.5,-54 651.5,-54 651.5,-48 657.5,-42 663.5,-42"/>
<text text-anchor="middle" x="689" y="-82.8" font-family="Helvetica,sans-Serif" font-weight="bold" font-size="9.00">src</text>
</g>
<!-- packages/util/graph/dist/index.js -->
<g id="node1" class="node">
<title>packages/util/graph/dist/index.js</title>
<g id="a_node1"><a xlink:href="packages/util/graph/dist/index.js" xlink:title="index.js">
<polygon fill="#ffffcc" stroke="black" points="198,-226 196.5,-228 186,-228 184.5,-226 144,-226 144,-208 198,-208 198,-226"/>
<text text-anchor="start" x="153.5" y="-214.8" font-family="Helvetica,sans-Serif" font-size="9.00">index.js</text>
</a>
</g>
</g>
<!-- packages/util/graph/index.test.ts -->
<g id="node2" class="node">
<title>packages/util/graph/index.test.ts</title>
<g id="a_node2"><a xlink:href="packages/util/graph/index.test.ts" xlink:title="index.test.ts">
<path fill="#ddfeff" stroke="black" d="M99,-226C99,-226 38,-226 38,-226 35,-226 32,-223 32,-220 32,-220 32,-214 32,-214 32,-211 35,-208 38,-208 38,-208 99,-208 99,-208 102,-208 105,-211 105,-214 105,-214 105,-220 105,-220 105,-223 102,-226 99,-226"/>
<text text-anchor="start" x="40" y="-214.8" font-family="Helvetica,sans-Serif" font-size="9.00">index.test.ts</text>
</a>
</g>
</g>
<!-- packages/util/graph/index.test.ts&#45;&gt;packages/util/graph/dist/index.js -->
<g id="edge1" class="edge">
<title>packages/util/graph/index.test.ts&#45;&gt;packages/util/graph/dist/index.js</title>
<path fill="none" stroke="#000000" stroke-width="2" stroke-opacity="0.200000" d="M105.22,-217C115.77,-217 127.27,-217 137.61,-217"/>
<polygon fill="#000000" fill-opacity="0.200000" stroke="#000000" stroke-width="2" stroke-opacity="0.200000" points="137.88,-219.1 143.88,-217 137.88,-214.9 137.88,-219.1"/>
</g>
<!-- packages/util/graph/index.ts -->
<g id="node3" class="node">
<title>packages/util/graph/index.ts</title>
<g id="a_node3"><a xlink:href="packages/util/graph/index.ts" xlink:title="index.ts">
<path fill="#ddfeff" stroke="black" d="M89.5,-166C89.5,-166 47.5,-166 47.5,-166 44.5,-166 41.5,-163 41.5,-160 41.5,-160 41.5,-154 41.5,-154 41.5,-151 44.5,-148 47.5,-148 47.5,-148 89.5,-148 89.5,-148 92.5,-148 95.5,-151 95.5,-154 95.5,-154 95.5,-160 95.5,-160 95.5,-163 92.5,-166 89.5,-166"/>
<text text-anchor="start" x="50" y="-154.8" font-family="Helvetica,sans-Serif" font-size="9.00">index.ts</text>
</a>
</g>
</g>
<!-- packages/util/graph/src/index.ts -->
<g id="node4" class="node">
<title>packages/util/graph/src/index.ts</title>
<g id="a_node4"><a xlink:href="packages/util/graph/src/index.ts" xlink:title="index.ts">
<path fill="#ddfeff" stroke="black" d="M192,-166C192,-166 150,-166 150,-166 147,-166 144,-163 144,-160 144,-160 144,-154 144,-154 144,-151 147,-148 150,-148 150,-148 192,-148 192,-148 195,-148 198,-151 198,-154 198,-154 198,-160 198,-160 198,-163 195,-166 192,-166"/>
<text text-anchor="start" x="152.5" y="-154.8" font-family="Helvetica,sans-Serif" font-size="9.00">index.ts</text>
</a>
</g>
</g>
<!-- packages/util/graph/index.ts&#45;&gt;packages/util/graph/src/index.ts -->
<g id="edge2" class="edge">
<title>packages/util/graph/index.ts&#45;&gt;packages/util/graph/src/index.ts</title>
<path fill="none" stroke="#000000" stroke-width="2" stroke-opacity="0.200000" d="M95.64,-157C108.55,-157 124.25,-157 137.88,-157"/>
<polygon fill="#000000" fill-opacity="0.200000" stroke="#000000" stroke-width="2" stroke-opacity="0.200000" points="143.99,-159.1 137.99,-157 143.99,-154.9 143.99,-159.1"/>
</g>
<!-- packages/util/graph/src/dynamic&#45;log&#45;viterbi.ts -->
<g id="node5" class="node">
<title>packages/util/graph/src/dynamic&#45;log&#45;viterbi.ts</title>
<g id="a_node5"><a xlink:href="packages/util/graph/src/dynamic-log-viterbi.ts" xlink:title="dynamic&#45;log&#45;viterbi.ts">
<path fill="#ddfeff" stroke="black" d="M498,-148C498,-148 395,-148 395,-148 392,-148 389,-145 389,-142 389,-142 389,-136 389,-136 389,-133 392,-130 395,-130 395,-130 498,-130 498,-130 501,-130 504,-133 504,-136 504,-136 504,-142 504,-142 504,-145 501,-148 498,-148"/>
<text text-anchor="start" x="397" y="-136.8" font-family="Helvetica,sans-Serif" font-size="9.00">dynamic&#45;log&#45;viterbi.ts</text>
</a>
</g>
</g>
<!-- packages/util/graph/src/index.ts&#45;&gt;packages/util/graph/src/dynamic&#45;log&#45;viterbi.ts -->
<g id="edge5" class="edge">
<title>packages/util/graph/src/index.ts&#45;&gt;packages/util/graph/src/dynamic&#45;log&#45;viterbi.ts</title>
<path fill="none" stroke="#000000" stroke-width="2" stroke-opacity="0.200000" d="M198.17,-155.22C240.74,-152.44 324.31,-146.98 382.7,-143.17"/>
<polygon fill="#000000" fill-opacity="0.200000" stroke="#000000" stroke-width="2" stroke-opacity="0.200000" points="389.11,-144.85 382.99,-143.15 388.84,-140.66 389.11,-144.85"/>
</g>
<!-- packages/util/graph/src/log&#45;viterbi.ts -->
<g id="node9" class="node">
<title>packages/util/graph/src/log&#45;viterbi.ts</title>
<g id="a_node9"><a xlink:href="packages/util/graph/src/log-viterbi.ts" xlink:title="log&#45;viterbi.ts">
<path fill="#ddfeff" stroke="black" d="M370,-165C370,-165 309,-165 309,-165 306,-165 303,-162 303,-159 303,-159 303,-153 303,-153 303,-150 306,-147 309,-147 309,-147 370,-147 370,-147 373,-147 376,-150 376,-153 376,-153 376,-159 376,-159 376,-162 373,-165 370,-165"/>
<text text-anchor="start" x="311" y="-153.8" font-family="Helvetica,sans-Serif" font-size="9.00">log&#45;viterbi.ts</text>
</a>
</g>
</g>
<!-- packages/util/graph/src/index.ts&#45;&gt;packages/util/graph/src/log&#45;viterbi.ts -->
<g id="edge6" class="edge">
<title>packages/util/graph/src/index.ts&#45;&gt;packages/util/graph/src/log&#45;viterbi.ts</title>
<path fill="none" stroke="#000000" stroke-width="2" stroke-opacity="0.200000" d="M198.07,-156.84C224.67,-156.68 265.67,-156.44 296.69,-156.25"/>
<polygon fill="#000000" fill-opacity="0.200000" stroke="#000000" stroke-width="2" stroke-opacity="0.200000" points="302.77,-158.32 296.75,-156.25 302.74,-154.12 302.77,-158.32"/>
</g>
<!-- packages/util/graph/src/viterbi.ts -->
<g id="node10" class="node">
<title>packages/util/graph/src/viterbi.ts</title>
<g id="a_node10"><a xlink:href="packages/util/graph/src/viterbi.ts" xlink:title="viterbi.ts">
<path fill="#ddfeff" stroke="black" d="M284,-166C284,-166 240,-166 240,-166 237,-166 234,-163 234,-160 234,-160 234,-154 234,-154 234,-151 237,-148 240,-148 240,-148 284,-148 284,-148 287,-148 290,-151 290,-154 290,-154 290,-160 290,-160 290,-163 287,-166 284,-166"/>
<text text-anchor="start" x="242" y="-154.8" font-family="Helvetica,sans-Serif" font-size="9.00">viterbi.ts</text>
</a>
</g>
</g>
<!-- packages/util/graph/src/index.ts&#45;&gt;packages/util/graph/src/viterbi.ts -->
<g id="edge7" class="edge">
<title>packages/util/graph/src/index.ts&#45;&gt;packages/util/graph/src/viterbi.ts</title>
<path fill="none" stroke="#000000" stroke-width="2" stroke-opacity="0.200000" d="M198.22,-157C207.39,-157 217.81,-157 227.5,-157"/>
<polygon fill="#000000" fill-opacity="0.200000" stroke="#000000" stroke-width="2" stroke-opacity="0.200000" points="233.73,-159.1 227.73,-157 233.73,-154.9 233.73,-159.1"/>
</g>
<!-- packages/util/graph/src/viterbi&#45;core.ts -->
<g id="node6" class="node">
<title>packages/util/graph/src/viterbi&#45;core.ts</title>
<g id="a_node6"><a xlink:href="packages/util/graph/src/viterbi-core.ts" xlink:title="viterbi&#45;core.ts">
<path fill="#ddfeff" stroke="black" d="M590,-140C590,-140 523,-140 523,-140 520,-140 517,-137 517,-134 517,-134 517,-128 517,-128 517,-125 520,-122 523,-122 523,-122 590,-122 590,-122 593,-122 596,-125 596,-128 596,-128 596,-134 596,-134 596,-137 593,-140 590,-140"/>
<text text-anchor="start" x="525" y="-128.8" font-family="Helvetica,sans-Serif" font-size="9.00">viterbi&#45;core.ts</text>
</a>
</g>
</g>
<!-- packages/util/graph/src/dynamic&#45;log&#45;viterbi.ts&#45;&gt;packages/util/graph/src/viterbi&#45;core.ts -->
<g id="edge3" class="edge">
<title>packages/util/graph/src/dynamic&#45;log&#45;viterbi.ts&#45;&gt;packages/util/graph/src/viterbi&#45;core.ts</title>
<path fill="none" stroke="#000000" stroke-width="2" stroke-opacity="0.200000" d="M504.03,-134.81C506.17,-134.65 508.31,-134.5 510.43,-134.34"/>
<polygon fill="#000000" fill-opacity="0.200000" stroke="#000000" stroke-width="2" stroke-opacity="0.200000" points="510.89,-136.41 516.72,-133.87 510.58,-132.22 510.89,-136.41"/>
</g>
<!-- packages/util/math/src/reduction/compare.ts -->
<g id="node7" class="node">
<title>packages/util/math/src/reduction/compare.ts</title>
<g id="a_node7"><a xlink:href="packages/util/math/src/reduction/compare.ts" xlink:title="compare.ts">
<path fill="#ddfeff" stroke="black" d="M717,-200C717,-200 661,-200 661,-200 658,-200 655,-197 655,-194 655,-194 655,-188 655,-188 655,-185 658,-182 661,-182 661,-182 717,-182 717,-182 720,-182 723,-185 723,-188 723,-188 723,-194 723,-194 723,-197 720,-200 717,-200"/>
<text text-anchor="start" x="663" y="-188.8" font-family="Helvetica,sans-Serif" font-size="9.00">compare.ts</text>
</a>
</g>
</g>
<!-- packages/util/graph/src/dynamic&#45;log&#45;viterbi.ts&#45;&gt;packages/util/math/src/reduction/compare.ts -->
<g id="edge4" class="edge">
<title>packages/util/graph/src/dynamic&#45;log&#45;viterbi.ts&#45;&gt;packages/util/math/src/reduction/compare.ts</title>
<path fill="none" stroke="#000000" stroke-width="2" stroke-opacity="0.200000" d="M488.74,-148.06C533.71,-157.7 604.37,-172.85 648.62,-182.34"/>
<polygon fill="#000000" fill-opacity="0.200000" stroke="#000000" stroke-width="2" stroke-opacity="0.200000" points="648.37,-184.44 654.68,-183.64 649.26,-180.33 648.37,-184.44"/>
</g>
<!-- packages/util/math/src/reduction/args&#45;min&#45;max.ts -->
<g id="node11" class="node">
<title>packages/util/math/src/reduction/args&#45;min&#45;max.ts</title>
<g id="a_node11"><a xlink:href="packages/util/math/src/reduction/args-min-max.ts" xlink:title="args&#45;min&#45;max.ts">
<path fill="#ddfeff" stroke="black" d="M728,-170C728,-170 650,-170 650,-170 647,-170 644,-167 644,-164 644,-164 644,-158 644,-158 644,-155 647,-152 650,-152 650,-152 728,-152 728,-152 731,-152 734,-155 734,-158 734,-158 734,-164 734,-164 734,-167 731,-170 728,-170"/>
<text text-anchor="start" x="652" y="-158.8" font-family="Helvetica,sans-Serif" font-size="9.00">args&#45;min&#45;max.ts</text>
</a>
</g>
</g>
<!-- packages/util/graph/src/viterbi&#45;core.ts&#45;&gt;packages/util/math/src/reduction/args&#45;min&#45;max.ts -->
<g id="edge10" class="edge">
<title>packages/util/graph/src/viterbi&#45;core.ts&#45;&gt;packages/util/math/src/reduction/args&#45;min&#45;max.ts</title>
<path fill="none" stroke="#000000" stroke-width="2" stroke-opacity="0.200000" d="M596.3,-139.92C610.89,-143.27 627.61,-147.12 642.74,-150.6"/>
<polygon fill="#000000" fill-opacity="0.200000" stroke="#000000" stroke-width="2" stroke-opacity="0.200000" points="642.35,-152.66 648.67,-151.96 643.29,-148.57 642.35,-152.66"/>
</g>
<!-- packages/util/math/src/reduction/compare&#45;func.ts -->
<g id="node12" class="node">
<title>packages/util/math/src/reduction/compare&#45;func.ts</title>
<g id="a_node12"><a xlink:href="packages/util/math/src/reduction/compare-func.ts" xlink:title="compare&#45;func.ts">
<path fill="#ddfeff" stroke="black" d="M832,-170C832,-170 753,-170 753,-170 750,-170 747,-167 747,-164 747,-164 747,-158 747,-158 747,-155 750,-152 753,-152 753,-152 832,-152 832,-152 835,-152 838,-155 838,-158 838,-158 838,-164 838,-164 838,-167 835,-170 832,-170"/>
<text text-anchor="start" x="755" y="-158.8" font-family="Helvetica,sans-Serif" font-size="9.00">compare&#45;func.ts</text>
</a>
</g>
</g>
<!-- packages/util/graph/src/viterbi&#45;core.ts&#45;&gt;packages/util/math/src/reduction/compare&#45;func.ts -->
<g id="edge11" class="edge">
<title>packages/util/graph/src/viterbi&#45;core.ts&#45;&gt;packages/util/math/src/reduction/compare&#45;func.ts</title>
<path fill="none" stroke="#000000" stroke-width="2" stroke-opacity="0.200000" d="M596,-136.02C635.73,-141.07 697.18,-148.88 740.77,-154.42"/>
<polygon fill="#000000" fill-opacity="0.200000" stroke="#000000" stroke-width="2" stroke-opacity="0.200000" points="740.59,-156.52 746.8,-155.19 741.12,-152.35 740.59,-156.52"/>
</g>
<!-- packages/util/stdlib/src/unique.ts -->
<g id="node13" class="node">
<title>packages/util/stdlib/src/unique.ts</title>
<g id="a_node13"><a xlink:href="packages/util/stdlib/src/unique.ts" xlink:title="unique.ts">
<path fill="#ddfeff" stroke="black" d="M712.5,-68C712.5,-68 665.5,-68 665.5,-68 662.5,-68 659.5,-65 659.5,-62 659.5,-62 659.5,-56 659.5,-56 659.5,-53 662.5,-50 665.5,-50 665.5,-50 712.5,-50 712.5,-50 715.5,-50 718.5,-53 718.5,-56 718.5,-56 718.5,-62 718.5,-62 718.5,-65 715.5,-68 712.5,-68"/>
<text text-anchor="start" x="667.5" y="-56.8" font-family="Helvetica,sans-Serif" font-size="9.00">unique.ts</text>
</a>
</g>
</g>
<!-- packages/util/graph/src/viterbi&#45;core.ts&#45;&gt;packages/util/stdlib/src/unique.ts -->
<g id="edge12" class="edge">
<title>packages/util/graph/src/viterbi&#45;core.ts&#45;&gt;packages/util/stdlib/src/unique.ts</title>
<path fill="none" stroke="#000000" stroke-width="2" stroke-opacity="0.200000" d="M574.03,-121.88C597.46,-108.95 640.38,-85.27 666.34,-70.95"/>
<polygon fill="#000000" fill-opacity="0.200000" stroke="#000000" stroke-width="2" stroke-opacity="0.200000" points="667.37,-72.78 671.61,-68.04 665.34,-69.1 667.37,-72.78"/>
</g>
<!-- packages/util/math/src/reduction/compare.ts&#45;&gt;packages/util/math/src/reduction/compare&#45;func.ts -->
<g id="edge16" class="edge">
<title>packages/util/math/src/reduction/compare.ts&#45;&gt;packages/util/math/src/reduction/compare&#45;func.ts</title>
<path fill="none" stroke="#000000" stroke-width="2" stroke-opacity="0.200000" d="M720.45,-182C731.29,-178.8 743.61,-175.15 754.91,-171.81"/>
<polygon fill="#000000" fill-opacity="0.200000" stroke="#000000" stroke-width="2" stroke-opacity="0.200000" points="755.56,-173.81 760.72,-170.1 754.37,-169.79 755.56,-173.81"/>
</g>
<!-- packages/util/graph/src/hmm&#45;log&#45;viterbi.ts -->
<g id="node8" class="node">
<title>packages/util/graph/src/hmm&#45;log&#45;viterbi.ts</title>
<g id="a_node8"><a xlink:href="packages/util/graph/src/hmm-log-viterbi.ts" xlink:title="no&#45;orphans">
<path fill="#ccffcc" stroke="orange" d="M215,-136C215,-136 127,-136 127,-136 124,-136 121,-133 121,-130 121,-130 121,-124 121,-124 121,-121 124,-118 127,-118 127,-118 215,-118 215,-118 218,-118 221,-121 221,-124 221,-124 221,-130 221,-130 221,-133 218,-136 215,-136"/>
<text text-anchor="start" x="129" y="-124.8" font-family="Helvetica,sans-Serif" font-size="9.00" fill="orange">hmm&#45;log&#45;viterbi.ts</text>
</a>
</g>
</g>
<!-- packages/util/graph/src/log&#45;viterbi.ts&#45;&gt;packages/util/graph/src/dynamic&#45;log&#45;viterbi.ts -->
<g id="edge8" class="edge">
<title>packages/util/graph/src/log&#45;viterbi.ts&#45;&gt;packages/util/graph/src/dynamic&#45;log&#45;viterbi.ts</title>
<path fill="none" stroke="#000000" stroke-width="2" stroke-opacity="0.200000" d="M376.05,-150.24C378.52,-149.84 381.06,-149.43 383.62,-149.02"/>
<polygon fill="#000000" fill-opacity="0.200000" stroke="#000000" stroke-width="2" stroke-opacity="0.200000" points="384.06,-151.07 389.65,-148.04 383.39,-146.93 384.06,-151.07"/>
</g>
<!-- packages/util/graph/src/log&#45;viterbi.ts&#45;&gt;packages/util/math/src/reduction/compare.ts -->
<g id="edge9" class="edge">
<title>packages/util/graph/src/log&#45;viterbi.ts&#45;&gt;packages/util/math/src/reduction/compare.ts</title>
<path fill="none" stroke="#000000" stroke-width="2" stroke-opacity="0.200000" d="M376.24,-159.68C442.25,-166.29 580.39,-180.12 648.82,-186.98"/>
<polygon fill="#000000" fill-opacity="0.200000" stroke="#000000" stroke-width="2" stroke-opacity="0.200000" points="648.64,-189.07 654.82,-187.58 649.06,-184.89 648.64,-189.07"/>
</g>
<!-- packages/util/graph/src/viterbi.ts&#45;&gt;packages/util/math/src/reduction/compare.ts -->
<g id="edge14" class="edge">
<title>packages/util/graph/src/viterbi.ts&#45;&gt;packages/util/math/src/reduction/compare.ts</title>
<path fill="none" stroke="#000000" stroke-width="2" stroke-opacity="0.200000" d="M290.02,-159.23C363.6,-165.09 562.56,-180.93 648.53,-187.78"/>
<polygon fill="#000000" fill-opacity="0.200000" stroke="#000000" stroke-width="2" stroke-opacity="0.200000" points="648.62,-189.89 654.77,-188.27 648.95,-185.7 648.62,-189.89"/>
</g>
<!-- packages/util/graph/src/viterbi.ts&#45;&gt;packages/util/graph/src/log&#45;viterbi.ts -->
<g id="edge13" class="edge">
<title>packages/util/graph/src/viterbi.ts&#45;&gt;packages/util/graph/src/log&#45;viterbi.ts</title>
<path fill="none" stroke="#000000" stroke-width="2" stroke-opacity="0.200000" d="M290.26,-156.64C292.28,-156.61 294.36,-156.58 296.45,-156.56"/>
<polygon fill="#000000" fill-opacity="0.200000" stroke="#000000" stroke-width="2" stroke-opacity="0.200000" points="296.77,-158.65 302.74,-156.47 296.71,-154.45 296.77,-158.65"/>
</g>
<!-- packages/util/math/src/reduction/args&#45;min&#45;max.ts&#45;&gt;packages/util/math/src/reduction/compare&#45;func.ts -->
<g id="edge15" class="edge">
<title>packages/util/math/src/reduction/args&#45;min&#45;max.ts&#45;&gt;packages/util/math/src/reduction/compare&#45;func.ts</title>
<path fill="none" stroke="#000000" stroke-width="2" stroke-opacity="0.200000" d="M734.22,-161C736.31,-161 738.41,-161 740.5,-161"/>
<polygon fill="#000000" fill-opacity="0.200000" stroke="#000000" stroke-width="2" stroke-opacity="0.200000" points="740.79,-163.1 746.79,-161 740.79,-158.9 740.79,-163.1"/>
</g>
</g>
</svg>
