<?xml version="1.0" encoding="UTF-8" standalone="no"?>
<!DOCTYPE svg PUBLIC "-//W3C//DTD SVG 1.1//EN"
 "http://www.w3.org/Graphics/SVG/1.1/DTD/svg11.dtd">
<!-- Generated by graphviz version 2.43.0 (0)
 -->
<!-- Title: dependency&#45;cruiser output Pages: 1 -->
<svg width="738pt" height="272pt"
 viewBox="0.00 0.00 738.00 272.00" xmlns="http://www.w3.org/2000/svg" xmlns:xlink="http://www.w3.org/1999/xlink">
<g id="graph0" class="graph" transform="scale(1 1) rotate(0) translate(4 268)">
<title>dependency&#45;cruiser output</title>
<polygon fill="white" stroke="transparent" points="-4,4 -4,-268 734,-268 734,4 -4,4"/>
<g id="clust1" class="cluster">
<title>cluster_packages</title>
<path fill="#ffffff" stroke="black" stroke-width="2" d="M20,-8C20,-8 710,-8 710,-8 716,-8 722,-14 722,-20 722,-20 722,-244 722,-244 722,-250 716,-256 710,-256 710,-256 20,-256 20,-256 14,-256 8,-250 8,-244 8,-244 8,-20 8,-20 8,-14 14,-8 20,-8"/>
<text text-anchor="middle" x="365" y="-244.8" font-family="Helvetica,sans-Serif" font-weight="bold" font-size="9.00">packages</text>
</g>
<g id="clust2" class="cluster">
<title>cluster_packages/util</title>
<path fill="#ffffff" stroke="black" stroke-width="2" d="M28,-16C28,-16 702,-16 702,-16 708,-16 714,-22 714,-28 714,-28 714,-218 714,-218 714,-224 708,-230 702,-230 702,-230 28,-230 28,-230 22,-230 16,-224 16,-218 16,-218 16,-28 16,-28 16,-22 22,-16 28,-16"/>
<text text-anchor="middle" x="365" y="-218.8" font-family="Helvetica,sans-Serif" font-weight="bold" font-size="9.00">util</text>
</g>
<g id="clust3" class="cluster">
<title>cluster_packages/util/graph</title>
<path fill="#ffffff" stroke="black" stroke-width="2" d="M36,-28C36,-28 600,-28 600,-28 606,-28 612,-34 612,-40 612,-40 612,-192 612,-192 612,-198 606,-204 600,-204 600,-204 36,-204 36,-204 30,-204 24,-198 24,-192 24,-192 24,-40 24,-40 24,-34 30,-28 36,-28"/>
<text text-anchor="middle" x="318" y="-192.8" font-family="Helvetica,sans-Serif" font-weight="bold" font-size="9.00">graph</text>
</g>
<g id="clust4" class="cluster">
<title>cluster_packages/util/graph/dist</title>
<path fill="#ffffff" stroke="black" stroke-width="2" d="M148,-126C148,-126 194,-126 194,-126 200,-126 206,-132 206,-138 206,-138 206,-166 206,-166 206,-172 200,-178 194,-178 194,-178 148,-178 148,-178 142,-178 136,-172 136,-166 136,-166 136,-138 136,-138 136,-132 142,-126 148,-126"/>
<text text-anchor="middle" x="171" y="-166.8" font-family="Helvetica,sans-Serif" font-weight="bold" font-size="9.00">dist</text>
</g>
<g id="clust5" class="cluster">
<title>cluster_packages/util/graph/src</title>
<path fill="#ffffff" stroke="black" stroke-width="2" d="M125,-36C125,-36 592,-36 592,-36 598,-36 604,-42 604,-48 604,-48 604,-106 604,-106 604,-112 598,-118 592,-118 592,-118 125,-118 125,-118 119,-118 113,-112 113,-106 113,-106 113,-48 113,-48 113,-42 119,-36 125,-36"/>
<text text-anchor="middle" x="358.5" y="-106.8" font-family="Helvetica,sans-Serif" font-weight="bold" font-size="9.00">src</text>
</g>
<g id="clust6" class="cluster">
<title>cluster_packages/util/math</title>
<path fill="#ffffff" stroke="black" stroke-width="2" d="M632,-118C632,-118 694,-118 694,-118 700,-118 706,-124 706,-130 706,-130 706,-192 706,-192 706,-198 700,-204 694,-204 694,-204 632,-204 632,-204 626,-204 620,-198 620,-192 620,-192 620,-130 620,-130 620,-124 626,-118 632,-118"/>
<text text-anchor="middle" x="663" y="-192.8" font-family="Helvetica,sans-Serif" font-weight="bold" font-size="9.00">math</text>
</g>
<g id="clust7" class="cluster">
<title>cluster_packages/util/math/dist</title>
<path fill="#ffffff" stroke="black" stroke-width="2" d="M640,-126C640,-126 686,-126 686,-126 692,-126 698,-132 698,-138 698,-138 698,-166 698,-166 698,-172 692,-178 686,-178 686,-178 640,-178 640,-178 634,-178 628,-172 628,-166 628,-166 628,-138 628,-138 628,-132 634,-126 640,-126"/>
<text text-anchor="middle" x="663" y="-166.8" font-family="Helvetica,sans-Serif" font-weight="bold" font-size="9.00">dist</text>
</g>
<g id="clust8" class="cluster">
<title>cluster_packages/util/stdlib</title>
<path fill="#ffffff" stroke="black" stroke-width="2" d="M632,-24C632,-24 694,-24 694,-24 700,-24 706,-30 706,-36 706,-36 706,-98 706,-98 706,-104 700,-110 694,-110 694,-110 632,-110 632,-110 626,-110 620,-104 620,-98 620,-98 620,-36 620,-36 620,-30 626,-24 632,-24"/>
<text text-anchor="middle" x="663" y="-98.8" font-family="Helvetica,sans-Serif" font-weight="bold" font-size="9.00">stdlib</text>
</g>
<g id="clust9" class="cluster">
<title>cluster_packages/util/stdlib/dist</title>
<path fill="#ffffff" stroke="black" stroke-width="2" d="M640,-32C640,-32 686,-32 686,-32 692,-32 698,-38 698,-44 698,-44 698,-72 698,-72 698,-78 692,-84 686,-84 686,-84 640,-84 640,-84 634,-84 628,-78 628,-72 628,-72 628,-44 628,-44 628,-38 634,-32 640,-32"/>
<text text-anchor="middle" x="663" y="-72.8" font-family="Helvetica,sans-Serif" font-weight="bold" font-size="9.00">dist</text>
</g>
<!-- packages/util/graph/dist/index.js -->
<g id="node1" class="node">
<title>packages/util/graph/dist/index.js</title>
<g id="a_node1"><a xlink:href="packages/util/graph/dist/index.js" xlink:title="index.js">
<polygon fill="#ffffcc" stroke="black" points="198,-152 196.5,-154 186,-154 184.5,-152 144,-152 144,-134 198,-134 198,-152"/>
<text text-anchor="start" x="153.5" y="-140.8" font-family="Helvetica,sans-Serif" font-size="9.00">index.js</text>
</a>
</g>
</g>
<!-- packages/util/graph/index.test.ts -->
<g id="node2" class="node">
<title>packages/util/graph/index.test.ts</title>
<g id="a_node2"><a xlink:href="packages/util/graph/index.test.ts" xlink:title="index.test.ts">
<path fill="#ddfeff" stroke="black" d="M99,-152C99,-152 38,-152 38,-152 35,-152 32,-149 32,-146 32,-146 32,-140 32,-140 32,-137 35,-134 38,-134 38,-134 99,-134 99,-134 102,-134 105,-137 105,-140 105,-140 105,-146 105,-146 105,-149 102,-152 99,-152"/>
<text text-anchor="start" x="40" y="-140.8" font-family="Helvetica,sans-Serif" font-size="9.00">index.test.ts</text>
</a>
</g>
</g>
<!-- packages/util/graph/index.test.ts&#45;&gt;packages/util/graph/dist/index.js -->
<g id="edge1" class="edge">
<title>packages/util/graph/index.test.ts&#45;&gt;packages/util/graph/dist/index.js</title>
<path fill="none" stroke="#000000" stroke-opacity="0.200000" d="M105.22,-143C116.17,-143 128.14,-143 138.77,-143"/>
<polygon fill="#000000" fill-opacity="0.200000" stroke="#000000" stroke-opacity="0.200000" points="143.88,-143 138.88,-145.25 141.38,-143 138.88,-143 138.88,-143 138.88,-143 141.38,-143 138.88,-140.75 143.88,-143 143.88,-143"/>
</g>
<!-- packages/util/graph/index.ts -->
<g id="node3" class="node">
<title>packages/util/graph/index.ts</title>
<g id="a_node3"><a xlink:href="packages/util/graph/index.ts" xlink:title="index.ts">
<path fill="#ddfeff" stroke="black" d="M89.5,-92C89.5,-92 47.5,-92 47.5,-92 44.5,-92 41.5,-89 41.5,-86 41.5,-86 41.5,-80 41.5,-80 41.5,-77 44.5,-74 47.5,-74 47.5,-74 89.5,-74 89.5,-74 92.5,-74 95.5,-77 95.5,-80 95.5,-80 95.5,-86 95.5,-86 95.5,-89 92.5,-92 89.5,-92"/>
<text text-anchor="start" x="50" y="-80.8" font-family="Helvetica,sans-Serif" font-size="9.00">index.ts</text>
</a>
</g>
</g>
<!-- packages/util/graph/src/index.ts -->
<g id="node4" class="node">
<title>packages/util/graph/src/index.ts</title>
<g id="a_node4"><a xlink:href="packages/util/graph/src/index.ts" xlink:title="index.ts">
<path fill="#ddfeff" stroke="black" d="M192,-92C192,-92 150,-92 150,-92 147,-92 144,-89 144,-86 144,-86 144,-80 144,-80 144,-77 147,-74 150,-74 150,-74 192,-74 192,-74 195,-74 198,-77 198,-80 198,-80 198,-86 198,-86 198,-89 195,-92 192,-92"/>
<text text-anchor="start" x="152.5" y="-80.8" font-family="Helvetica,sans-Serif" font-size="9.00">index.ts</text>
</a>
</g>
</g>
<!-- packages/util/graph/index.ts&#45;&gt;packages/util/graph/src/index.ts -->
<g id="edge2" class="edge">
<title>packages/util/graph/index.ts&#45;&gt;packages/util/graph/src/index.ts</title>
<path fill="none" stroke="#000000" stroke-opacity="0.200000" d="M95.64,-83C108.9,-83 125.1,-83 138.99,-83"/>
<polygon fill="#000000" fill-opacity="0.200000" stroke="#000000" stroke-opacity="0.200000" points="143.99,-84.75 138.99,-83 143.99,-81.25 143.99,-84.75"/>
</g>
<!-- packages/util/graph/src/dynamic&#45;log&#45;viterbi.ts -->
<g id="node5" class="node">
<title>packages/util/graph/src/dynamic&#45;log&#45;viterbi.ts</title>
<g id="a_node5"><a xlink:href="packages/util/graph/src/dynamic-log-viterbi.ts" xlink:title="dynamic&#45;log&#45;viterbi.ts">
<path fill="#ddfeff" stroke="black" d="M498,-92C498,-92 395,-92 395,-92 392,-92 389,-89 389,-86 389,-86 389,-80 389,-80 389,-77 392,-74 395,-74 395,-74 498,-74 498,-74 501,-74 504,-77 504,-80 504,-80 504,-86 504,-86 504,-89 501,-92 498,-92"/>
<text text-anchor="start" x="397" y="-80.8" font-family="Helvetica,sans-Serif" font-size="9.00">dynamic&#45;log&#45;viterbi.ts</text>
</a>
</g>
</g>
<!-- packages/util/graph/src/index.ts&#45;&gt;packages/util/graph/src/dynamic&#45;log&#45;viterbi.ts -->
<g id="edge5" class="edge">
<title>packages/util/graph/src/index.ts&#45;&gt;packages/util/graph/src/dynamic&#45;log&#45;viterbi.ts</title>
<path fill="none" stroke="#000000" stroke-opacity="0.200000" d="M198.29,-75.37C215.19,-70.46 234,-65 234,-65 234,-65 290,-65 290,-65 290,-65 376,-68 376,-68 376,-68 386,-70.16 398.41,-72.84"/>
<polygon fill="#000000" fill-opacity="0.200000" stroke="#000000" stroke-opacity="0.200000" points="403.1,-75.64 398.58,-72.87 403.84,-72.22 403.1,-75.64"/>
</g>
<!-- packages/util/graph/src/log&#45;viterbi.ts -->
<g id="node9" class="node">
<title>packages/util/graph/src/log&#45;viterbi.ts</title>
<g id="a_node9"><a xlink:href="packages/util/graph/src/log-viterbi.ts" xlink:title="log&#45;viterbi.ts">
<path fill="#ddfeff" stroke="black" d="M370,-92C370,-92 309,-92 309,-92 306,-92 303,-89 303,-86 303,-86 303,-80 303,-80 303,-77 306,-74 309,-74 309,-74 370,-74 370,-74 373,-74 376,-77 376,-80 376,-80 376,-86 376,-86 376,-89 373,-92 370,-92"/>
<text text-anchor="start" x="311" y="-80.8" font-family="Helvetica,sans-Serif" font-size="9.00">log&#45;viterbi.ts</text>
</a>
</g>
</g>
<!-- packages/util/graph/src/index.ts&#45;&gt;packages/util/graph/src/log&#45;viterbi.ts -->
<g id="edge6" class="edge">
<title>packages/util/graph/src/index.ts&#45;&gt;packages/util/graph/src/log&#45;viterbi.ts</title>
<path fill="none" stroke="#000000" stroke-opacity="0.200000" d="M198.29,-76.64C215.19,-72.55 234,-68 234,-68 234,-68 290,-68 290,-68 290,-68 296.14,-69.9 304.05,-72.35"/>
<polygon fill="#000000" fill-opacity="0.200000" stroke="#000000" stroke-opacity="0.200000" points="308.65,-75.6 304.39,-72.45 309.69,-72.26 308.65,-75.6"/>
</g>
<!-- packages/util/graph/src/viterbi.ts -->
<g id="node10" class="node">
<title>packages/util/graph/src/viterbi.ts</title>
<g id="a_node10"><a xlink:href="packages/util/graph/src/viterbi.ts" xlink:title="viterbi.ts">
<path fill="#ddfeff" stroke="black" d="M284,-92C284,-92 240,-92 240,-92 237,-92 234,-89 234,-86 234,-86 234,-80 234,-80 234,-77 237,-74 240,-74 240,-74 284,-74 284,-74 287,-74 290,-77 290,-80 290,-80 290,-86 290,-86 290,-89 287,-92 284,-92"/>
<text text-anchor="start" x="242" y="-80.8" font-family="Helvetica,sans-Serif" font-size="9.00">viterbi.ts</text>
</a>
</g>
</g>
<!-- packages/util/graph/src/index.ts&#45;&gt;packages/util/graph/src/viterbi.ts -->
<g id="edge7" class="edge">
<title>packages/util/graph/src/index.ts&#45;&gt;packages/util/graph/src/viterbi.ts</title>
<path fill="none" stroke="#000000" stroke-opacity="0.200000" d="M198.22,-83C207.74,-83 218.61,-83 228.6,-83"/>
<polygon fill="#000000" fill-opacity="0.200000" stroke="#000000" stroke-opacity="0.200000" points="233.73,-84.75 228.73,-83 233.73,-81.25 233.73,-84.75"/>
</g>
<!-- packages/util/graph/src/viterbi&#45;core.ts -->
<g id="node6" class="node">
<title>packages/util/graph/src/viterbi&#45;core.ts</title>
<g id="a_node6"><a xlink:href="packages/util/graph/src/viterbi-core.ts" xlink:title="viterbi&#45;core.ts">
<path fill="#ddfeff" stroke="black" d="M590,-92C590,-92 523,-92 523,-92 520,-92 517,-89 517,-86 517,-86 517,-80 517,-80 517,-77 520,-74 523,-74 523,-74 590,-74 590,-74 593,-74 596,-77 596,-80 596,-80 596,-86 596,-86 596,-89 593,-92 590,-92"/>
<text text-anchor="start" x="525" y="-80.8" font-family="Helvetica,sans-Serif" font-size="9.00">viterbi&#45;core.ts</text>
</a>
</g>
</g>
<!-- packages/util/graph/src/dynamic&#45;log&#45;viterbi.ts&#45;&gt;packages/util/graph/src/viterbi&#45;core.ts -->
<g id="edge3" class="edge">
<title>packages/util/graph/src/dynamic&#45;log&#45;viterbi.ts&#45;&gt;packages/util/graph/src/viterbi&#45;core.ts</title>
<path fill="none" stroke="#000000" stroke-opacity="0.200000" d="M504.03,-83C506.58,-83 509.11,-83 511.62,-83"/>
<polygon fill="#000000" fill-opacity="0.200000" stroke="#000000" stroke-opacity="0.200000" points="516.72,-83 511.72,-85.25 514.22,-83 511.72,-83 511.72,-83 511.72,-83 514.22,-83 511.72,-80.75 516.72,-83 516.72,-83"/>
</g>
<!-- packages/util/math/dist/index.js -->
<g id="node7" class="node">
<title>packages/util/math/dist/index.js</title>
<g id="a_node7"><a xlink:href="packages/util/math/dist/index.js" xlink:title="index.js">
<polygon fill="#ffffcc" stroke="black" points="690,-152 688.5,-154 678,-154 676.5,-152 636,-152 636,-134 690,-134 690,-152"/>
<text text-anchor="start" x="645.5" y="-140.8" font-family="Helvetica,sans-Serif" font-size="9.00">index.js</text>
</a>
</g>
</g>
<!-- packages/util/graph/src/dynamic&#45;log&#45;viterbi.ts&#45;&gt;packages/util/math/dist/index.js -->
<g id="edge4" class="edge">
<title>packages/util/graph/src/dynamic&#45;log&#45;viterbi.ts&#45;&gt;packages/util/math/dist/index.js</title>
<path fill="none" stroke="#000000" stroke-opacity="0.200000" d="M485.65,-92.05C534.25,-103.57 612,-122 612,-122 612,-122 623.65,-126.89 635.71,-131.96"/>
<polygon fill="#000000" fill-opacity="0.200000" stroke="#000000" stroke-opacity="0.200000" points="640.51,-133.97 635.02,-134.11 638.2,-133 635.9,-132.04 635.9,-132.04 635.9,-132.04 638.2,-133 636.77,-129.96 640.51,-133.97 640.51,-133.97"/>
</g>
<!-- packages/util/graph/src/viterbi&#45;core.ts&#45;&gt;packages/util/math/dist/index.js -->
<g id="edge10" class="edge">
<title>packages/util/graph/src/viterbi&#45;core.ts&#45;&gt;packages/util/math/dist/index.js</title>
<path fill="none" stroke="#000000" stroke-opacity="0.200000" d="M579.04,-92.09C594.27,-98.52 612,-106 612,-106 612,-106 630.75,-119.88 645.29,-130.63"/>
<polygon fill="#000000" fill-opacity="0.200000" stroke="#000000" stroke-opacity="0.200000" points="649.64,-133.85 644.28,-132.69 647.63,-132.37 645.62,-130.88 645.62,-130.88 645.62,-130.88 647.63,-132.37 646.96,-129.07 649.64,-133.85 649.64,-133.85"/>
</g>
<!-- packages/util/stdlib/dist/index.js -->
<g id="node11" class="node">
<title>packages/util/stdlib/dist/index.js</title>
<g id="a_node11"><a xlink:href="packages/util/stdlib/dist/index.js" xlink:title="index.js">
<polygon fill="#ffffcc" stroke="black" points="690,-58 688.5,-60 678,-60 676.5,-58 636,-58 636,-40 690,-40 690,-58"/>
<text text-anchor="start" x="645.5" y="-46.8" font-family="Helvetica,sans-Serif" font-size="9.00">index.js</text>
</a>
</g>
</g>
<!-- packages/util/graph/src/viterbi&#45;core.ts&#45;&gt;packages/util/stdlib/dist/index.js -->
<g id="edge11" class="edge">
<title>packages/util/graph/src/viterbi&#45;core.ts&#45;&gt;packages/util/stdlib/dist/index.js</title>
<path fill="none" stroke="#000000" stroke-opacity="0.200000" d="M585.23,-73.98C599.35,-69.38 616.57,-63.78 631.12,-59.05"/>
<polygon fill="#000000" fill-opacity="0.200000" stroke="#000000" stroke-opacity="0.200000" points="635.94,-57.48 631.88,-61.17 633.56,-58.25 631.19,-59.03 631.19,-59.03 631.19,-59.03 633.56,-58.25 630.49,-56.89 635.94,-57.48 635.94,-57.48"/>
</g>
<!-- packages/util/graph/src/hmm&#45;log&#45;viterbi.ts -->
<g id="node8" class="node">
<title>packages/util/graph/src/hmm&#45;log&#45;viterbi.ts</title>
<g id="a_node8"><a xlink:href="packages/util/graph/src/hmm-log-viterbi.ts" xlink:title="no&#45;orphans">
<path fill="#ccffcc" stroke="orange" d="M215,-62C215,-62 127,-62 127,-62 124,-62 121,-59 121,-56 121,-56 121,-50 121,-50 121,-47 124,-44 127,-44 127,-44 215,-44 215,-44 218,-44 221,-47 221,-50 221,-50 221,-56 221,-56 221,-59 218,-62 215,-62"/>
<text text-anchor="start" x="129" y="-50.8" font-family="Helvetica,sans-Serif" font-size="9.00" fill="orange">hmm&#45;log&#45;viterbi.ts</text>
</a>
</g>
</g>
<!-- packages/util/graph/src/log&#45;viterbi.ts&#45;&gt;packages/util/graph/src/dynamic&#45;log&#45;viterbi.ts -->
<g id="edge8" class="edge">
<title>packages/util/graph/src/log&#45;viterbi.ts&#45;&gt;packages/util/graph/src/dynamic&#45;log&#45;viterbi.ts</title>
<path fill="none" stroke="#000000" stroke-opacity="0.200000" d="M376.05,-83C378.52,-83 381.05,-83 383.61,-83"/>
<polygon fill="#000000" fill-opacity="0.200000" stroke="#000000" stroke-opacity="0.200000" points="388.9,-83 383.9,-85.25 386.4,-83 383.9,-83 383.9,-83 383.9,-83 386.4,-83 383.9,-80.75 388.9,-83 388.9,-83"/>
</g>
<!-- packages/util/graph/src/log&#45;viterbi.ts&#45;&gt;packages/util/math/dist/index.js -->
<g id="edge9" class="edge">
<title>packages/util/graph/src/log&#45;viterbi.ts&#45;&gt;packages/util/math/dist/index.js</title>
<path fill="none" stroke="#000000" stroke-opacity="0.200000" d="M369.83,-92.07C380.05,-95.23 389,-98 389,-98 389,-98 559.23,-126.06 630.84,-137.86"/>
<polygon fill="#000000" fill-opacity="0.200000" stroke="#000000" stroke-opacity="0.200000" points="635.82,-138.69 630.52,-140.09 633.36,-138.28 630.89,-137.87 630.89,-137.87 630.89,-137.87 633.36,-138.28 631.26,-135.65 635.82,-138.69 635.82,-138.69"/>
</g>
<!-- packages/util/graph/src/viterbi.ts&#45;&gt;packages/util/math/dist/index.js -->
<g id="edge13" class="edge">
<title>packages/util/graph/src/viterbi.ts&#45;&gt;packages/util/math/dist/index.js</title>
<path fill="none" stroke="#000000" stroke-opacity="0.200000" d="M287.19,-92.07C295.61,-95.23 303,-98 303,-98 303,-98 389,-111 389,-111 389,-111 517,-130 517,-130 517,-130 588.06,-136.37 630.69,-140.19"/>
<polygon fill="#000000" fill-opacity="0.200000" stroke="#000000" stroke-opacity="0.200000" points="635.74,-140.65 630.56,-142.44 633.25,-140.42 630.76,-140.2 630.76,-140.2 630.76,-140.2 633.25,-140.42 630.96,-137.96 635.74,-140.65 635.74,-140.65"/>
</g>
<!-- packages/util/graph/src/viterbi.ts&#45;&gt;packages/util/graph/src/log&#45;viterbi.ts -->
<g id="edge12" class="edge">
<title>packages/util/graph/src/viterbi.ts&#45;&gt;packages/util/graph/src/log&#45;viterbi.ts</title>
<path fill="none" stroke="#000000" stroke-opacity="0.200000" d="M290.26,-83C292.66,-83 295.13,-83 297.62,-83"/>
<polygon fill="#000000" fill-opacity="0.200000" stroke="#000000" stroke-opacity="0.200000" points="302.74,-83 297.74,-85.25 300.24,-83 297.74,-83 297.74,-83 297.74,-83 300.24,-83 297.74,-80.75 302.74,-83 302.74,-83"/>
</g>
</g>
</svg>
