<?xml version="1.0" encoding="UTF-8" standalone="no"?>
<!DOCTYPE svg PUBLIC "-//W3C//DTD SVG 1.1//EN"
 "http://www.w3.org/Graphics/SVG/1.1/DTD/svg11.dtd">
<!-- Generated by graphviz version 2.43.0 (0)
 -->
<!-- Title: dependency&#45;cruiser output Pages: 1 -->
<svg width="669pt" height="272pt"
 viewBox="0.00 0.00 669.00 272.00" xmlns="http://www.w3.org/2000/svg" xmlns:xlink="http://www.w3.org/1999/xlink">
<g id="graph0" class="graph" transform="scale(1 1) rotate(0) translate(4 268)">
<title>dependency&#45;cruiser output</title>
<polygon fill="white" stroke="transparent" points="-4,4 -4,-268 665,-268 665,4 -4,4"/>
<g id="clust1" class="cluster">
<title>cluster_packages</title>
<path fill="#ffffff" stroke="black" stroke-width="2" d="M20,-8C20,-8 641,-8 641,-8 647,-8 653,-14 653,-20 653,-20 653,-244 653,-244 653,-250 647,-256 641,-256 641,-256 20,-256 20,-256 14,-256 8,-250 8,-244 8,-244 8,-20 8,-20 8,-14 14,-8 20,-8"/>
<text text-anchor="middle" x="330.5" y="-244.8" font-family="Helvetica,sans-Serif" font-weight="bold" font-size="9.00">packages</text>
</g>
<g id="clust2" class="cluster">
<title>cluster_packages/util</title>
<path fill="#ffffff" stroke="black" stroke-width="2" d="M28,-16C28,-16 633,-16 633,-16 639,-16 645,-22 645,-28 645,-28 645,-218 645,-218 645,-224 639,-230 633,-230 633,-230 28,-230 28,-230 22,-230 16,-224 16,-218 16,-218 16,-28 16,-28 16,-22 22,-16 28,-16"/>
<text text-anchor="middle" x="330.5" y="-218.8" font-family="Helvetica,sans-Serif" font-weight="bold" font-size="9.00">util</text>
</g>
<g id="clust3" class="cluster">
<title>cluster_packages/util/graph</title>
<path fill="#ffffff" stroke="black" stroke-width="2" d="M36,-34C36,-34 531,-34 531,-34 537,-34 543,-40 543,-46 543,-46 543,-174 543,-174 543,-180 537,-186 531,-186 531,-186 36,-186 36,-186 30,-186 24,-180 24,-174 24,-174 24,-46 24,-46 24,-40 30,-34 36,-34"/>
<text text-anchor="middle" x="283.5" y="-174.8" font-family="Helvetica,sans-Serif" font-weight="bold" font-size="9.00">graph</text>
</g>
<g id="clust4" class="cluster">
<title>cluster_packages/util/graph/src</title>
<path fill="#ffffff" stroke="black" stroke-width="2" d="M125,-76C125,-76 523,-76 523,-76 529,-76 535,-82 535,-88 535,-88 535,-146 535,-146 535,-152 529,-158 523,-158 523,-158 125,-158 125,-158 119,-158 113,-152 113,-146 113,-146 113,-88 113,-88 113,-82 119,-76 125,-76"/>
<text text-anchor="middle" x="324" y="-146.8" font-family="Helvetica,sans-Serif" font-weight="bold" font-size="9.00">src</text>
</g>
<g id="clust5" class="cluster">
<title>cluster_packages/util/math</title>
<path fill="#ffffff" stroke="black" stroke-width="2" d="M563,-118C563,-118 625,-118 625,-118 631,-118 637,-124 637,-130 637,-130 637,-192 637,-192 637,-198 631,-204 625,-204 625,-204 563,-204 563,-204 557,-204 551,-198 551,-192 551,-192 551,-130 551,-130 551,-124 557,-118 563,-118"/>
<text text-anchor="middle" x="594" y="-192.8" font-family="Helvetica,sans-Serif" font-weight="bold" font-size="9.00">math</text>
</g>
<g id="clust6" class="cluster">
<title>cluster_packages/util/math/dist</title>
<path fill="#ffffff" stroke="black" stroke-width="2" d="M571,-126C571,-126 617,-126 617,-126 623,-126 629,-132 629,-138 629,-138 629,-166 629,-166 629,-172 623,-178 617,-178 617,-178 571,-178 571,-178 565,-178 559,-172 559,-166 559,-166 559,-138 559,-138 559,-132 565,-126 571,-126"/>
<text text-anchor="middle" x="594" y="-166.8" font-family="Helvetica,sans-Serif" font-weight="bold" font-size="9.00">dist</text>
</g>
<g id="clust7" class="cluster">
<title>cluster_packages/util/stdlib</title>
<path fill="#ffffff" stroke="black" stroke-width="2" d="M563,-24C563,-24 625,-24 625,-24 631,-24 637,-30 637,-36 637,-36 637,-98 637,-98 637,-104 631,-110 625,-110 625,-110 563,-110 563,-110 557,-110 551,-104 551,-98 551,-98 551,-36 551,-36 551,-30 557,-24 563,-24"/>
<text text-anchor="middle" x="594" y="-98.8" font-family="Helvetica,sans-Serif" font-weight="bold" font-size="9.00">stdlib</text>
</g>
<g id="clust8" class="cluster">
<title>cluster_packages/util/stdlib/dist</title>
<path fill="#ffffff" stroke="black" stroke-width="2" d="M571,-32C571,-32 617,-32 617,-32 623,-32 629,-38 629,-44 629,-44 629,-72 629,-72 629,-78 623,-84 617,-84 617,-84 571,-84 571,-84 565,-84 559,-78 559,-72 559,-72 559,-44 559,-44 559,-38 565,-32 571,-32"/>
<text text-anchor="middle" x="594" y="-72.8" font-family="Helvetica,sans-Serif" font-weight="bold" font-size="9.00">dist</text>
</g>
<!-- packages/util/graph/index.test.ts -->
<g id="node1" class="node">
<title>packages/util/graph/index.test.ts</title>
<g id="a_node1"><a xlink:href="packages/util/graph/index.test.ts" xlink:title="index.test.ts">
<path fill="#ddfeff" stroke="black" d="M99,-154C99,-154 38,-154 38,-154 35,-154 32,-151 32,-148 32,-148 32,-142 32,-142 32,-139 35,-136 38,-136 38,-136 99,-136 99,-136 102,-136 105,-139 105,-142 105,-142 105,-148 105,-148 105,-151 102,-154 99,-154"/>
<text text-anchor="start" x="40" y="-142.8" font-family="Helvetica,sans-Serif" font-size="9.00">index.test.ts</text>
</a>
</g>
</g>
<!-- packages/util/graph/src/dynamic&#45;log&#45;viterbi.ts -->
<g id="node2" class="node">
<title>packages/util/graph/src/dynamic&#45;log&#45;viterbi.ts</title>
<g id="a_node2"><a xlink:href="packages/util/graph/src/dynamic-log-viterbi.ts" xlink:title="dynamic&#45;log&#45;viterbi.ts">
<path fill="#ddfeff" stroke="black" d="M429,-130C429,-130 326,-130 326,-130 323,-130 320,-127 320,-124 320,-124 320,-118 320,-118 320,-115 323,-112 326,-112 326,-112 429,-112 429,-112 432,-112 435,-115 435,-118 435,-118 435,-124 435,-124 435,-127 432,-130 429,-130"/>
<text text-anchor="start" x="328" y="-118.8" font-family="Helvetica,sans-Serif" font-size="9.00">dynamic&#45;log&#45;viterbi.ts</text>
</a>
</g>
</g>
<!-- packages/util/graph/index.test.ts&#45;&gt;packages/util/graph/src/dynamic&#45;log&#45;viterbi.ts -->
<g id="edge1" class="edge">
<title>packages/util/graph/index.test.ts&#45;&gt;packages/util/graph/src/dynamic&#45;log&#45;viterbi.ts</title>
<path fill="none" stroke="#000000" stroke-width="2" stroke-opacity="0.200000" d="M105.02,-144.77C149.8,-144.47 221,-144 221,-144 221,-144 307,-138 307,-138 307,-138 319.08,-135.04 333.18,-131.6"/>
<polygon fill="#000000" fill-opacity="0.200000" stroke="#000000" stroke-width="2" stroke-opacity="0.200000" points="333.98,-133.56 339.31,-130.1 332.98,-129.48 333.98,-133.56"/>
</g>
<!-- packages/util/graph/src/log&#45;viterbi.ts -->
<g id="node3" class="node">
<title>packages/util/graph/src/log&#45;viterbi.ts</title>
<g id="a_node3"><a xlink:href="packages/util/graph/src/log-viterbi.ts" xlink:title="log&#45;viterbi.ts">
<path fill="#ddfeff" stroke="black" d="M301,-132C301,-132 240,-132 240,-132 237,-132 234,-129 234,-126 234,-126 234,-120 234,-120 234,-117 237,-114 240,-114 240,-114 301,-114 301,-114 304,-114 307,-117 307,-120 307,-120 307,-126 307,-126 307,-129 304,-132 301,-132"/>
<text text-anchor="start" x="242" y="-120.8" font-family="Helvetica,sans-Serif" font-size="9.00">log&#45;viterbi.ts</text>
</a>
</g>
</g>
<!-- packages/util/graph/index.test.ts&#45;&gt;packages/util/graph/src/log&#45;viterbi.ts -->
<g id="edge2" class="edge">
<title>packages/util/graph/index.test.ts&#45;&gt;packages/util/graph/src/log&#45;viterbi.ts</title>
<path fill="none" stroke="#000000" stroke-width="2" stroke-opacity="0.200000" d="M105.02,-143.36C149.8,-141.29 221,-138 221,-138 221,-138 226.69,-136.24 234.16,-133.93"/>
<polygon fill="#000000" fill-opacity="0.200000" stroke="#000000" stroke-width="2" stroke-opacity="0.200000" points="235.06,-135.85 240.17,-132.07 233.82,-131.84 235.06,-135.85"/>
</g>
<!-- packages/util/graph/src/viterbi.ts -->
<g id="node4" class="node">
<title>packages/util/graph/src/viterbi.ts</title>
<g id="a_node4"><a xlink:href="packages/util/graph/src/viterbi.ts" xlink:title="viterbi.ts">
<path fill="#ddfeff" stroke="black" d="M193,-132C193,-132 149,-132 149,-132 146,-132 143,-129 143,-126 143,-126 143,-120 143,-120 143,-117 146,-114 149,-114 149,-114 193,-114 193,-114 196,-114 199,-117 199,-120 199,-120 199,-126 199,-126 199,-129 196,-132 193,-132"/>
<text text-anchor="start" x="151" y="-120.8" font-family="Helvetica,sans-Serif" font-size="9.00">viterbi.ts</text>
</a>
</g>
</g>
<!-- packages/util/graph/index.test.ts&#45;&gt;packages/util/graph/src/viterbi.ts -->
<g id="edge3" class="edge">
<title>packages/util/graph/index.test.ts&#45;&gt;packages/util/graph/src/viterbi.ts</title>
<path fill="none" stroke="#000000" stroke-width="2" stroke-opacity="0.200000" d="M105.22,-137.18C115.59,-134.91 126.87,-132.44 137.07,-130.21"/>
<polygon fill="#000000" fill-opacity="0.200000" stroke="#000000" stroke-width="2" stroke-opacity="0.200000" points="137.52,-132.26 142.93,-128.93 136.62,-128.16 137.52,-132.26"/>
</g>
<!-- packages/util/graph/src/viterbi&#45;core.ts -->
<g id="node6" class="node">
<title>packages/util/graph/src/viterbi&#45;core.ts</title>
<g id="a_node6"><a xlink:href="packages/util/graph/src/viterbi-core.ts" xlink:title="viterbi&#45;core.ts">
<path fill="#ddfeff" stroke="black" d="M521,-104C521,-104 454,-104 454,-104 451,-104 448,-101 448,-98 448,-98 448,-92 448,-92 448,-89 451,-86 454,-86 454,-86 521,-86 521,-86 524,-86 527,-89 527,-92 527,-92 527,-98 527,-98 527,-101 524,-104 521,-104"/>
<text text-anchor="start" x="456" y="-92.8" font-family="Helvetica,sans-Serif" font-size="9.00">viterbi&#45;core.ts</text>
</a>
</g>
</g>
<!-- packages/util/graph/src/dynamic&#45;log&#45;viterbi.ts&#45;&gt;packages/util/graph/src/viterbi&#45;core.ts -->
<g id="edge8" class="edge">
<title>packages/util/graph/src/dynamic&#45;log&#45;viterbi.ts&#45;&gt;packages/util/graph/src/viterbi&#45;core.ts</title>
<path fill="none" stroke="#000000" stroke-width="2" stroke-opacity="0.200000" d="M417.74,-111.97C427.38,-109.75 435,-108 435,-108 435,-108 438.91,-107.01 444.57,-105.59"/>
<polygon fill="#000000" fill-opacity="0.200000" stroke="#000000" stroke-width="2" stroke-opacity="0.200000" points="445.43,-107.53 450.73,-104.03 444.4,-103.46 445.43,-107.53"/>
</g>
<!-- packages/util/math/dist/index.js -->
<g id="node7" class="node">
<title>packages/util/math/dist/index.js</title>
<g id="a_node7"><a xlink:href="packages/util/math/dist/index.js" xlink:title="index.js">
<polygon fill="#ffffcc" stroke="black" points="621,-152 619.5,-154 609,-154 607.5,-152 567,-152 567,-134 621,-134 621,-152"/>
<text text-anchor="start" x="576.5" y="-140.8" font-family="Helvetica,sans-Serif" font-size="9.00">index.js</text>
</a>
</g>
</g>
<!-- packages/util/graph/src/dynamic&#45;log&#45;viterbi.ts&#45;&gt;packages/util/math/dist/index.js -->
<g id="edge9" class="edge">
<title>packages/util/graph/src/dynamic&#45;log&#45;viterbi.ts&#45;&gt;packages/util/math/dist/index.js</title>
<path fill="none" stroke="#000000" stroke-width="2" stroke-opacity="0.200000" d="M435.14,-126.81C475.17,-130.91 527.4,-136.27 560.58,-139.68"/>
<polygon fill="#000000" fill-opacity="0.200000" stroke="#000000" stroke-width="2" stroke-opacity="0.200000" points="560.77,-141.81 566.96,-140.33 561.2,-137.63 560.77,-141.81"/>
</g>
<!-- packages/util/graph/src/log&#45;viterbi.ts&#45;&gt;packages/util/graph/src/dynamic&#45;log&#45;viterbi.ts -->
<g id="edge10" class="edge">
<title>packages/util/graph/src/log&#45;viterbi.ts&#45;&gt;packages/util/graph/src/dynamic&#45;log&#45;viterbi.ts</title>
<path fill="none" stroke="#000000" stroke-width="2" stroke-opacity="0.200000" d="M307.05,-122.32C309.26,-122.28 311.52,-122.24 313.8,-122.19"/>
<polygon fill="#000000" fill-opacity="0.200000" stroke="#000000" stroke-width="2" stroke-opacity="0.200000" points="313.94,-124.29 319.9,-122.08 313.86,-120.09 313.94,-124.29"/>
</g>
<!-- packages/util/graph/src/log&#45;viterbi.ts&#45;&gt;packages/util/math/dist/index.js -->
<g id="edge11" class="edge">
<title>packages/util/graph/src/log&#45;viterbi.ts&#45;&gt;packages/util/math/dist/index.js</title>
<path fill="none" stroke="#000000" stroke-width="2" stroke-opacity="0.200000" d="M305.18,-132.03C313.46,-134.25 320,-136 320,-136 320,-136 488.19,-140.31 560.54,-142.17"/>
<polygon fill="#000000" fill-opacity="0.200000" stroke="#000000" stroke-width="2" stroke-opacity="0.200000" points="560.77,-144.27 566.82,-142.33 560.88,-140.08 560.77,-144.27"/>
</g>
<!-- packages/util/graph/src/viterbi.ts&#45;&gt;packages/util/graph/src/log&#45;viterbi.ts -->
<g id="edge14" class="edge">
<title>packages/util/graph/src/viterbi.ts&#45;&gt;packages/util/graph/src/log&#45;viterbi.ts</title>
<path fill="none" stroke="#000000" stroke-width="2" stroke-opacity="0.200000" d="M199.16,-123C207.94,-123 217.89,-123 227.49,-123"/>
<polygon fill="#000000" fill-opacity="0.200000" stroke="#000000" stroke-width="2" stroke-opacity="0.200000" points="227.73,-125.1 233.73,-123 227.73,-120.9 227.73,-125.1"/>
</g>
<!-- packages/util/graph/src/viterbi.ts&#45;&gt;packages/util/math/dist/index.js -->
<g id="edge15" class="edge">
<title>packages/util/graph/src/viterbi.ts&#45;&gt;packages/util/math/dist/index.js</title>
<path fill="none" stroke="#000000" stroke-width="2" stroke-opacity="0.200000" d="M199.01,-129.54C215.72,-133.58 234,-138 234,-138 234,-138 320,-141 320,-141 320,-141 448,-144 448,-144 448,-144 543,-144 543,-144 543,-144 551.04,-143.84 560.68,-143.65"/>
<polygon fill="#000000" fill-opacity="0.200000" stroke="#000000" stroke-width="2" stroke-opacity="0.200000" points="560.87,-145.74 566.83,-143.52 560.79,-141.54 560.87,-145.74"/>
</g>
<!-- packages/util/graph/index.ts -->
<g id="node5" class="node">
<title>packages/util/graph/index.ts</title>
<g id="a_node5"><a xlink:href="packages/util/graph/index.ts" xlink:title="index.ts">
<path fill="#ddfeff" stroke="black" d="M89.5,-73C89.5,-73 47.5,-73 47.5,-73 44.5,-73 41.5,-70 41.5,-67 41.5,-67 41.5,-61 41.5,-61 41.5,-58 44.5,-55 47.5,-55 47.5,-55 89.5,-55 89.5,-55 92.5,-55 95.5,-58 95.5,-61 95.5,-61 95.5,-67 95.5,-67 95.5,-70 92.5,-73 89.5,-73"/>
<text text-anchor="start" x="50" y="-61.8" font-family="Helvetica,sans-Serif" font-size="9.00">index.ts</text>
</a>
</g>
</g>
<!-- packages/util/graph/index.ts&#45;&gt;packages/util/graph/src/dynamic&#45;log&#45;viterbi.ts -->
<g id="edge4" class="edge">
<title>packages/util/graph/index.ts&#45;&gt;packages/util/graph/src/dynamic&#45;log&#45;viterbi.ts</title>
<path fill="none" stroke="#000000" stroke-width="2" stroke-opacity="0.200000" d="M95.54,-64.34C138.86,-64.92 221,-66 221,-66 221,-66 320,-108 320,-108 320,-108 324.65,-109.07 331.28,-110.6"/>
<polygon fill="#000000" fill-opacity="0.200000" stroke="#000000" stroke-width="2" stroke-opacity="0.200000" points="336.79,-114.02 331.41,-110.63 337.73,-109.92 336.79,-114.02"/>
</g>
<!-- packages/util/graph/index.ts&#45;&gt;packages/util/graph/src/log&#45;viterbi.ts -->
<g id="edge5" class="edge">
<title>packages/util/graph/index.ts&#45;&gt;packages/util/graph/src/log&#45;viterbi.ts</title>
<path fill="none" stroke="#000000" stroke-width="2" stroke-opacity="0.200000" d="M95.54,-66.41C138.86,-70.41 221,-78 221,-78 221,-78 234,-110 234,-110 234,-110 236.06,-110.75 239.19,-111.9"/>
<polygon fill="#000000" fill-opacity="0.200000" stroke="#000000" stroke-width="2" stroke-opacity="0.200000" points="244.12,-115.94 239.21,-111.91 245.57,-112 244.12,-115.94"/>
</g>
<!-- packages/util/graph/index.ts&#45;&gt;packages/util/graph/src/viterbi.ts -->
<g id="edge6" class="edge">
<title>packages/util/graph/index.ts&#45;&gt;packages/util/graph/src/viterbi.ts</title>
<path fill="none" stroke="#000000" stroke-width="2" stroke-opacity="0.200000" d="M78.73,-73.33C91.49,-86.25 113,-108 113,-108 113,-108 124.4,-111 137,-114.32"/>
<polygon fill="#000000" fill-opacity="0.200000" stroke="#000000" stroke-width="2" stroke-opacity="0.200000" points="142.3,-117.88 137.03,-114.32 143.37,-113.82 142.3,-117.88"/>
</g>
<!-- packages/util/graph/index.ts&#45;&gt;packages/util/graph/src/viterbi&#45;core.ts -->
<g id="edge7" class="edge">
<title>packages/util/graph/index.ts&#45;&gt;packages/util/graph/src/viterbi&#45;core.ts</title>
<path fill="none" stroke="#000000" stroke-width="2" stroke-opacity="0.200000" d="M95.81,-62.79C104.97,-62.37 113,-62 113,-62 113,-62 221,-62 221,-62 221,-62 307,-69 307,-69 307,-69 388.82,-80.85 441.98,-88.55"/>
<polygon fill="#000000" fill-opacity="0.200000" stroke="#000000" stroke-width="2" stroke-opacity="0.200000" points="447.69,-91.5 442.05,-88.56 448.29,-87.34 447.69,-91.5"/>
</g>
<!-- packages/util/graph/src/viterbi&#45;core.ts&#45;&gt;packages/util/math/dist/index.js -->
<g id="edge13" class="edge">
<title>packages/util/graph/src/viterbi&#45;core.ts&#45;&gt;packages/util/math/dist/index.js</title>
<path fill="none" stroke="#000000" stroke-width="2" stroke-opacity="0.200000" d="M508.16,-104.03C524.98,-111.76 549.31,-122.93 567.61,-131.34"/>
<polygon fill="#000000" fill-opacity="0.200000" stroke="#000000" stroke-width="2" stroke-opacity="0.200000" points="566.75,-133.25 573.08,-133.85 568.5,-129.44 566.75,-133.25"/>
</g>
<!-- packages/util/stdlib/dist/index.js -->
<g id="node9" class="node">
<title>packages/util/stdlib/dist/index.js</title>
<g id="a_node9"><a xlink:href="packages/util/stdlib/dist/index.js" xlink:title="index.js">
<polygon fill="#ffffcc" stroke="black" points="621,-58 619.5,-60 609,-60 607.5,-58 567,-58 567,-40 621,-40 621,-58"/>
<text text-anchor="start" x="576.5" y="-46.8" font-family="Helvetica,sans-Serif" font-size="9.00">index.js</text>
</a>
</g>
</g>
<!-- packages/util/graph/src/viterbi&#45;core.ts&#45;&gt;packages/util/stdlib/dist/index.js -->
<g id="edge12" class="edge">
<title>packages/util/graph/src/viterbi&#45;core.ts&#45;&gt;packages/util/stdlib/dist/index.js</title>
<path fill="none" stroke="#000000" stroke-width="2" stroke-opacity="0.200000" d="M509.15,-85.91C525.61,-78.67 548.77,-68.47 566.58,-60.63"/>
<polygon fill="#000000" fill-opacity="0.200000" stroke="#000000" stroke-width="2" stroke-opacity="0.200000" points="567.75,-62.41 572.4,-58.07 566.06,-58.56 567.75,-62.41"/>
</g>
<!-- packages/util/graph/src/hmm&#45;log&#45;viterbi.ts -->
<g id="node8" class="node">
<title>packages/util/graph/src/hmm&#45;log&#45;viterbi.ts</title>
<g id="a_node8"><a xlink:href="packages/util/graph/src/hmm-log-viterbi.ts" xlink:title="no&#45;orphans">
<path fill="#ccffcc" stroke="orange" d="M215,-102C215,-102 127,-102 127,-102 124,-102 121,-99 121,-96 121,-96 121,-90 121,-90 121,-87 124,-84 127,-84 127,-84 215,-84 215,-84 218,-84 221,-87 221,-90 221,-90 221,-96 221,-96 221,-99 218,-102 215,-102"/>
<text text-anchor="start" x="129" y="-90.8" font-family="Helvetica,sans-Serif" font-size="9.00" fill="orange">hmm&#45;log&#45;viterbi.ts</text>
</a>
</g>
</g>
</g>
</svg>
