<?xml version="1.0" encoding="UTF-8" standalone="no"?>
<!DOCTYPE svg PUBLIC "-//W3C//DTD SVG 1.1//EN"
 "http://www.w3.org/Graphics/SVG/1.1/DTD/svg11.dtd">
<!-- Generated by graphviz version 2.43.0 (0)
 -->
<!-- Title: dependency&#45;cruiser output Pages: 1 -->
<svg width="669pt" height="272pt"
 viewBox="0.00 0.00 669.00 272.00" xmlns="http://www.w3.org/2000/svg" xmlns:xlink="http://www.w3.org/1999/xlink">
<g id="graph0" class="graph" transform="scale(1 1) rotate(0) translate(4 268)">
<title>dependency&#45;cruiser output</title>
<polygon fill="white" stroke="transparent" points="-4,4 -4,-268 665,-268 665,4 -4,4"/>
<g id="clust1" class="cluster">
<title>cluster_packages</title>
<path fill="#ffffff" stroke="black" stroke-width="2" d="M20,-8C20,-8 641,-8 641,-8 647,-8 653,-14 653,-20 653,-20 653,-244 653,-244 653,-250 647,-256 641,-256 641,-256 20,-256 20,-256 14,-256 8,-250 8,-244 8,-244 8,-20 8,-20 8,-14 14,-8 20,-8"/>
<text text-anchor="middle" x="330.5" y="-244.8" font-family="Helvetica,sans-Serif" font-weight="bold" font-size="9.00">packages</text>
</g>
<g id="clust2" class="cluster">
<title>cluster_packages/util</title>
<path fill="#ffffff" stroke="black" stroke-width="2" d="M28,-16C28,-16 633,-16 633,-16 639,-16 645,-22 645,-28 645,-28 645,-218 645,-218 645,-224 639,-230 633,-230 633,-230 28,-230 28,-230 22,-230 16,-224 16,-218 16,-218 16,-28 16,-28 16,-22 22,-16 28,-16"/>
<text text-anchor="middle" x="330.5" y="-218.8" font-family="Helvetica,sans-Serif" font-weight="bold" font-size="9.00">util</text>
</g>
<g id="clust3" class="cluster">
<title>cluster_packages/util/graph</title>
<path fill="#ffffff" stroke="black" stroke-width="2" d="M36,-34C36,-34 531,-34 531,-34 537,-34 543,-40 543,-46 543,-46 543,-174 543,-174 543,-180 537,-186 531,-186 531,-186 36,-186 36,-186 30,-186 24,-180 24,-174 24,-174 24,-46 24,-46 24,-40 30,-34 36,-34"/>
<text text-anchor="middle" x="283.5" y="-174.8" font-family="Helvetica,sans-Serif" font-weight="bold" font-size="9.00">graph</text>
</g>
<g id="clust4" class="cluster">
<title>cluster_packages/util/graph/src</title>
<path fill="#ffffff" stroke="black" stroke-width="2" d="M125,-76C125,-76 523,-76 523,-76 529,-76 535,-82 535,-88 535,-88 535,-146 535,-146 535,-152 529,-158 523,-158 523,-158 125,-158 125,-158 119,-158 113,-152 113,-146 113,-146 113,-88 113,-88 113,-82 119,-76 125,-76"/>
<text text-anchor="middle" x="324" y="-146.8" font-family="Helvetica,sans-Serif" font-weight="bold" font-size="9.00">src</text>
</g>
<g id="clust5" class="cluster">
<title>cluster_packages/util/math</title>
<path fill="#ffffff" stroke="black" stroke-width="2" d="M563,-118C563,-118 625,-118 625,-118 631,-118 637,-124 637,-130 637,-130 637,-192 637,-192 637,-198 631,-204 625,-204 625,-204 563,-204 563,-204 557,-204 551,-198 551,-192 551,-192 551,-130 551,-130 551,-124 557,-118 563,-118"/>
<text text-anchor="middle" x="594" y="-192.8" font-family="Helvetica,sans-Serif" font-weight="bold" font-size="9.00">math</text>
</g>
<g id="clust6" class="cluster">
<title>cluster_packages/util/math/dist</title>
<path fill="#ffffff" stroke="black" stroke-width="2" d="M571,-126C571,-126 617,-126 617,-126 623,-126 629,-132 629,-138 629,-138 629,-166 629,-166 629,-172 623,-178 617,-178 617,-178 571,-178 571,-178 565,-178 559,-172 559,-166 559,-166 559,-138 559,-138 559,-132 565,-126 571,-126"/>
<text text-anchor="middle" x="594" y="-166.8" font-family="Helvetica,sans-Serif" font-weight="bold" font-size="9.00">dist</text>
</g>
<g id="clust7" class="cluster">
<title>cluster_packages/util/stdlib</title>
<path fill="#ffffff" stroke="black" stroke-width="2" d="M563,-24C563,-24 625,-24 625,-24 631,-24 637,-30 637,-36 637,-36 637,-98 637,-98 637,-104 631,-110 625,-110 625,-110 563,-110 563,-110 557,-110 551,-104 551,-98 551,-98 551,-36 551,-36 551,-30 557,-24 563,-24"/>
<text text-anchor="middle" x="594" y="-98.8" font-family="Helvetica,sans-Serif" font-weight="bold" font-size="9.00">stdlib</text>
</g>
<g id="clust8" class="cluster">
<title>cluster_packages/util/stdlib/dist</title>
<path fill="#ffffff" stroke="black" stroke-width="2" d="M571,-32C571,-32 617,-32 617,-32 623,-32 629,-38 629,-44 629,-44 629,-72 629,-72 629,-78 623,-84 617,-84 617,-84 571,-84 571,-84 565,-84 559,-78 559,-72 559,-72 559,-44 559,-44 559,-38 565,-32 571,-32"/>
<text text-anchor="middle" x="594" y="-72.8" font-family="Helvetica,sans-Serif" font-weight="bold" font-size="9.00">dist</text>
</g>
<!-- packages/util/graph/index.test.ts -->
<g id="node1" class="node">
<title>packages/util/graph/index.test.ts</title>
<g id="a_node1"><a xlink:href="packages/util/graph/index.test.ts" xlink:title="index.test.ts">
<path fill="#ddfeff" stroke="black" d="M99,-154C99,-154 38,-154 38,-154 35,-154 32,-151 32,-148 32,-148 32,-142 32,-142 32,-139 35,-136 38,-136 38,-136 99,-136 99,-136 102,-136 105,-139 105,-142 105,-142 105,-148 105,-148 105,-151 102,-154 99,-154"/>
<text text-anchor="start" x="40" y="-142.8" font-family="Helvetica,sans-Serif" font-size="9.00">index.test.ts</text>
</a>
</g>
</g>
<!-- packages/util/graph/src/dynamic&#45;log&#45;viterbi.ts -->
<g id="node2" class="node">
<title>packages/util/graph/src/dynamic&#45;log&#45;viterbi.ts</title>
<g id="a_node2"><a xlink:href="packages/util/graph/src/dynamic-log-viterbi.ts" xlink:title="dynamic&#45;log&#45;viterbi.ts">
<path fill="#ddfeff" stroke="black" d="M429,-130C429,-130 326,-130 326,-130 323,-130 320,-127 320,-124 320,-124 320,-118 320,-118 320,-115 323,-112 326,-112 326,-112 429,-112 429,-112 432,-112 435,-115 435,-118 435,-118 435,-124 435,-124 435,-127 432,-130 429,-130"/>
<text text-anchor="start" x="328" y="-118.8" font-family="Helvetica,sans-Serif" font-size="9.00">dynamic&#45;log&#45;viterbi.ts</text>
</a>
</g>
</g>
<!-- packages/util/graph/index.test.ts&#45;&gt;packages/util/graph/src/dynamic&#45;log&#45;viterbi.ts -->
<g id="edge1" class="edge">
<title>packages/util/graph/index.test.ts&#45;&gt;packages/util/graph/src/dynamic&#45;log&#45;viterbi.ts</title>
<path fill="none" stroke="#000000" stroke-width="2" stroke-opacity="0.200000" d="M105.16,-142.15C156.58,-138.16 250.86,-130.84 313.87,-125.94"/>
<polygon fill="#000000" fill-opacity="0.200000" stroke="#000000" stroke-width="2" stroke-opacity="0.200000" points="314.05,-128.03 319.87,-125.48 313.72,-123.85 314.05,-128.03"/>
</g>
<!-- packages/util/graph/src/log&#45;viterbi.ts -->
<g id="node3" class="node">
<title>packages/util/graph/src/log&#45;viterbi.ts</title>
<g id="a_node3"><a xlink:href="packages/util/graph/src/log-viterbi.ts" xlink:title="log&#45;viterbi.ts">
<path fill="#ddfeff" stroke="black" d="M301,-132C301,-132 240,-132 240,-132 237,-132 234,-129 234,-126 234,-126 234,-120 234,-120 234,-117 237,-114 240,-114 240,-114 301,-114 301,-114 304,-114 307,-117 307,-120 307,-120 307,-126 307,-126 307,-129 304,-132 301,-132"/>
<text text-anchor="start" x="242" y="-120.8" font-family="Helvetica,sans-Serif" font-size="9.00">log&#45;viterbi.ts</text>
</a>
</g>
</g>
<!-- packages/util/graph/index.test.ts&#45;&gt;packages/util/graph/src/log&#45;viterbi.ts -->
<g id="edge2" class="edge">
<title>packages/util/graph/index.test.ts&#45;&gt;packages/util/graph/src/log&#45;viterbi.ts</title>
<path fill="none" stroke="#000000" stroke-width="2" stroke-opacity="0.200000" d="M105.08,-141.02C139.58,-137.26 191.29,-131.63 227.69,-127.66"/>
<polygon fill="#000000" fill-opacity="0.200000" stroke="#000000" stroke-width="2" stroke-opacity="0.200000" points="228.11,-129.73 233.85,-126.99 227.66,-125.55 228.11,-129.73"/>
</g>
<!-- packages/util/graph/src/viterbi.ts -->
<g id="node4" class="node">
<title>packages/util/graph/src/viterbi.ts</title>
<g id="a_node4"><a xlink:href="packages/util/graph/src/viterbi.ts" xlink:title="viterbi.ts">
<path fill="#ddfeff" stroke="black" d="M193,-132C193,-132 149,-132 149,-132 146,-132 143,-129 143,-126 143,-126 143,-120 143,-120 143,-117 146,-114 149,-114 149,-114 193,-114 193,-114 196,-114 199,-117 199,-120 199,-120 199,-126 199,-126 199,-129 196,-132 193,-132"/>
<text text-anchor="start" x="151" y="-120.8" font-family="Helvetica,sans-Serif" font-size="9.00">viterbi.ts</text>
</a>
</g>
</g>
<!-- packages/util/graph/index.test.ts&#45;&gt;packages/util/graph/src/viterbi.ts -->
<g id="edge3" class="edge">
<title>packages/util/graph/index.test.ts&#45;&gt;packages/util/graph/src/viterbi.ts</title>
<path fill="none" stroke="#000000" stroke-width="2" stroke-opacity="0.200000" d="M105.22,-137.18C115.59,-134.91 126.87,-132.44 137.07,-130.21"/>
<polygon fill="#000000" fill-opacity="0.200000" stroke="#000000" stroke-width="2" stroke-opacity="0.200000" points="137.52,-132.26 142.93,-128.93 136.62,-128.16 137.52,-132.26"/>
</g>
<!-- packages/util/graph/src/viterbi&#45;core.ts -->
<g id="node6" class="node">
<title>packages/util/graph/src/viterbi&#45;core.ts</title>
<g id="a_node6"><a xlink:href="packages/util/graph/src/viterbi-core.ts" xlink:title="viterbi&#45;core.ts">
<path fill="#ddfeff" stroke="black" d="M521,-104C521,-104 454,-104 454,-104 451,-104 448,-101 448,-98 448,-98 448,-92 448,-92 448,-89 451,-86 454,-86 454,-86 521,-86 521,-86 524,-86 527,-89 527,-92 527,-92 527,-98 527,-98 527,-101 524,-104 521,-104"/>
<text text-anchor="start" x="456" y="-92.8" font-family="Helvetica,sans-Serif" font-size="9.00">viterbi&#45;core.ts</text>
</a>
</g>
</g>
<!-- packages/util/graph/src/dynamic&#45;log&#45;viterbi.ts&#45;&gt;packages/util/graph/src/viterbi&#45;core.ts -->
<g id="edge8" class="edge">
<title>packages/util/graph/src/dynamic&#45;log&#45;viterbi.ts&#45;&gt;packages/util/graph/src/viterbi&#45;core.ts</title>
<path fill="none" stroke="#000000" stroke-width="2" stroke-opacity="0.200000" d="M415.97,-111.98C424.77,-109.86 434.21,-107.59 443.24,-105.42"/>
<polygon fill="#000000" fill-opacity="0.200000" stroke="#000000" stroke-width="2" stroke-opacity="0.200000" points="443.75,-107.45 449.1,-104 442.77,-103.37 443.75,-107.45"/>
</g>
<!-- packages/util/math/dist/index.js -->
<g id="node7" class="node">
<title>packages/util/math/dist/index.js</title>
<g id="a_node7"><a xlink:href="packages/util/math/dist/index.js" xlink:title="index.js">
<polygon fill="#ffffcc" stroke="black" points="621,-152 619.5,-154 609,-154 607.5,-152 567,-152 567,-134 621,-134 621,-152"/>
<text text-anchor="start" x="576.5" y="-140.8" font-family="Helvetica,sans-Serif" font-size="9.00">index.js</text>
</a>
</g>
</g>
<!-- packages/util/graph/src/dynamic&#45;log&#45;viterbi.ts&#45;&gt;packages/util/math/dist/index.js -->
<g id="edge9" class="edge">
<title>packages/util/graph/src/dynamic&#45;log&#45;viterbi.ts&#45;&gt;packages/util/math/dist/index.js</title>
<path fill="none" stroke="#000000" stroke-width="2" stroke-opacity="0.200000" d="M435.23,-126.87C475.45,-130.95 527.65,-136.26 560.99,-139.65"/>
<polygon fill="#000000" fill-opacity="0.200000" stroke="#000000" stroke-width="2" stroke-opacity="0.200000" points="560.81,-141.74 566.99,-140.26 561.24,-137.56 560.81,-141.74"/>
</g>
<!-- packages/util/graph/src/log&#45;viterbi.ts&#45;&gt;packages/util/graph/src/dynamic&#45;log&#45;viterbi.ts -->
<g id="edge10" class="edge">
<title>packages/util/graph/src/log&#45;viterbi.ts&#45;&gt;packages/util/graph/src/dynamic&#45;log&#45;viterbi.ts</title>
<path fill="none" stroke="#000000" stroke-width="2" stroke-opacity="0.200000" d="M307.05,-122.32C309.26,-122.28 311.52,-122.24 313.8,-122.19"/>
<polygon fill="#000000" fill-opacity="0.200000" stroke="#000000" stroke-width="2" stroke-opacity="0.200000" points="313.94,-124.29 319.9,-122.08 313.86,-120.09 313.94,-124.29"/>
</g>
<!-- packages/util/graph/src/log&#45;viterbi.ts&#45;&gt;packages/util/math/dist/index.js -->
<g id="edge11" class="edge">
<title>packages/util/graph/src/log&#45;viterbi.ts&#45;&gt;packages/util/math/dist/index.js</title>
<path fill="none" stroke="#000000" stroke-width="2" stroke-opacity="0.200000" d="M307.29,-125.27C370.7,-129.19 499.59,-137.16 560.58,-140.93"/>
<polygon fill="#000000" fill-opacity="0.200000" stroke="#000000" stroke-width="2" stroke-opacity="0.200000" points="560.5,-143.03 566.62,-141.31 560.76,-138.84 560.5,-143.03"/>
</g>
<!-- packages/util/graph/src/viterbi.ts&#45;&gt;packages/util/graph/src/log&#45;viterbi.ts -->
<g id="edge14" class="edge">
<title>packages/util/graph/src/viterbi.ts&#45;&gt;packages/util/graph/src/log&#45;viterbi.ts</title>
<path fill="none" stroke="#000000" stroke-width="2" stroke-opacity="0.200000" d="M199.16,-123C207.94,-123 217.89,-123 227.49,-123"/>
<polygon fill="#000000" fill-opacity="0.200000" stroke="#000000" stroke-width="2" stroke-opacity="0.200000" points="227.73,-125.1 233.73,-123 227.73,-120.9 227.73,-125.1"/>
</g>
<!-- packages/util/graph/src/viterbi.ts&#45;&gt;packages/util/math/dist/index.js -->
<g id="edge15" class="edge">
<title>packages/util/graph/src/viterbi.ts&#45;&gt;packages/util/math/dist/index.js</title>
<path fill="none" stroke="#000000" stroke-width="2" stroke-opacity="0.200000" d="M199.08,-124.33C274.25,-127.88 479.82,-137.6 560.69,-141.43"/>
<polygon fill="#000000" fill-opacity="0.200000" stroke="#000000" stroke-width="2" stroke-opacity="0.200000" points="560.66,-143.53 566.75,-141.71 560.86,-139.33 560.66,-143.53"/>
</g>
<!-- packages/util/graph/index.ts -->
<g id="node5" class="node">
<title>packages/util/graph/index.ts</title>
<g id="a_node5"><a xlink:href="packages/util/graph/index.ts" xlink:title="index.ts">
<path fill="#ddfeff" stroke="black" d="M89.5,-73C89.5,-73 47.5,-73 47.5,-73 44.5,-73 41.5,-70 41.5,-67 41.5,-67 41.5,-61 41.5,-61 41.5,-58 44.5,-55 47.5,-55 47.5,-55 89.5,-55 89.5,-55 92.5,-55 95.5,-58 95.5,-61 95.5,-61 95.5,-67 95.5,-67 95.5,-70 92.5,-73 89.5,-73"/>
<text text-anchor="start" x="50" y="-61.8" font-family="Helvetica,sans-Serif" font-size="9.00">index.ts</text>
</a>
</g>
</g>
<!-- packages/util/graph/index.ts&#45;&gt;packages/util/graph/src/dynamic&#45;log&#45;viterbi.ts -->
<g id="edge4" class="edge">
<title>packages/util/graph/index.ts&#45;&gt;packages/util/graph/src/dynamic&#45;log&#45;viterbi.ts</title>
<path fill="none" stroke="#000000" stroke-width="2" stroke-opacity="0.200000" d="M95.65,-69.01C146.26,-78.34 255.89,-98.57 322.53,-110.86"/>
<polygon fill="#000000" fill-opacity="0.200000" stroke="#000000" stroke-width="2" stroke-opacity="0.200000" points="328.06,-114.01 322.54,-110.86 328.82,-109.88 328.06,-114.01"/>
</g>
<!-- packages/util/graph/index.ts&#45;&gt;packages/util/graph/src/log&#45;viterbi.ts -->
<g id="edge5" class="edge">
<title>packages/util/graph/index.ts&#45;&gt;packages/util/graph/src/log&#45;viterbi.ts</title>
<path fill="none" stroke="#000000" stroke-width="2" stroke-opacity="0.200000" d="M95.74,-71.96C131.21,-82.32 193.37,-100.47 233.2,-112.11"/>
<polygon fill="#000000" fill-opacity="0.200000" stroke="#000000" stroke-width="2" stroke-opacity="0.200000" points="238.8,-115.93 233.63,-112.23 239.98,-111.9 238.8,-115.93"/>
</g>
<!-- packages/util/graph/index.ts&#45;&gt;packages/util/graph/src/viterbi.ts -->
<g id="edge6" class="edge">
<title>packages/util/graph/index.ts&#45;&gt;packages/util/graph/src/viterbi.ts</title>
<path fill="none" stroke="#000000" stroke-width="2" stroke-opacity="0.200000" d="M85.2,-73.22C102.31,-83.26 129.78,-99.39 148.8,-110.55"/>
<polygon fill="#000000" fill-opacity="0.200000" stroke="#000000" stroke-width="2" stroke-opacity="0.200000" points="153.34,-115.66 149.23,-110.81 155.47,-112.03 153.34,-115.66"/>
</g>
<!-- packages/util/graph/index.ts&#45;&gt;packages/util/graph/src/viterbi&#45;core.ts -->
<g id="edge7" class="edge">
<title>packages/util/graph/index.ts&#45;&gt;packages/util/graph/src/viterbi&#45;core.ts</title>
<path fill="none" stroke="#000000" stroke-width="2" stroke-opacity="0.200000" d="M95.67,-66.01C165.98,-71.21 354.47,-85.16 441.86,-91.62"/>
<polygon fill="#000000" fill-opacity="0.200000" stroke="#000000" stroke-width="2" stroke-opacity="0.200000" points="447.82,-94.17 441.99,-91.63 448.13,-89.98 447.82,-94.17"/>
</g>
<!-- packages/util/graph/src/viterbi&#45;core.ts&#45;&gt;packages/util/math/dist/index.js -->
<g id="edge12" class="edge">
<title>packages/util/graph/src/viterbi&#45;core.ts&#45;&gt;packages/util/math/dist/index.js</title>
<path fill="none" stroke="#000000" stroke-width="2" stroke-opacity="0.200000" d="M508.16,-104.03C524.98,-111.76 549.31,-122.93 567.61,-131.34"/>
<polygon fill="#000000" fill-opacity="0.200000" stroke="#000000" stroke-width="2" stroke-opacity="0.200000" points="566.75,-133.25 573.08,-133.85 568.5,-129.44 566.75,-133.25"/>
</g>
<!-- packages/util/stdlib/dist/index.js -->
<g id="node9" class="node">
<title>packages/util/stdlib/dist/index.js</title>
<g id="a_node9"><a xlink:href="packages/util/stdlib/dist/index.js" xlink:title="index.js">
<polygon fill="#ffffcc" stroke="black" points="621,-58 619.5,-60 609,-60 607.5,-58 567,-58 567,-40 621,-40 621,-58"/>
<text text-anchor="start" x="576.5" y="-46.8" font-family="Helvetica,sans-Serif" font-size="9.00">index.js</text>
</a>
</g>
</g>
<!-- packages/util/graph/src/viterbi&#45;core.ts&#45;&gt;packages/util/stdlib/dist/index.js -->
<g id="edge13" class="edge">
<title>packages/util/graph/src/viterbi&#45;core.ts&#45;&gt;packages/util/stdlib/dist/index.js</title>
<path fill="none" stroke="#000000" stroke-width="2" stroke-opacity="0.200000" d="M509.15,-85.91C525.61,-78.67 548.77,-68.47 566.58,-60.63"/>
<polygon fill="#000000" fill-opacity="0.200000" stroke="#000000" stroke-width="2" stroke-opacity="0.200000" points="567.75,-62.41 572.4,-58.07 566.06,-58.56 567.75,-62.41"/>
</g>
<!-- packages/util/graph/src/hmm&#45;log&#45;viterbi.ts -->
<g id="node8" class="node">
<title>packages/util/graph/src/hmm&#45;log&#45;viterbi.ts</title>
<g id="a_node8"><a xlink:href="packages/util/graph/src/hmm-log-viterbi.ts" xlink:title="no&#45;orphans">
<path fill="#ccffcc" stroke="orange" d="M215,-102C215,-102 127,-102 127,-102 124,-102 121,-99 121,-96 121,-96 121,-90 121,-90 121,-87 124,-84 127,-84 127,-84 215,-84 215,-84 218,-84 221,-87 221,-90 221,-90 221,-96 221,-96 221,-99 218,-102 215,-102"/>
<text text-anchor="start" x="129" y="-90.8" font-family="Helvetica,sans-Serif" font-size="9.00" fill="orange">hmm&#45;log&#45;viterbi.ts</text>
</a>
</g>
</g>
</g>
</svg>
