<?xml version="1.0" encoding="UTF-8" standalone="no"?>
<!DOCTYPE svg PUBLIC "-//W3C//DTD SVG 1.1//EN"
 "http://www.w3.org/Graphics/SVG/1.1/DTD/svg11.dtd">
<!-- Generated by graphviz version 2.43.0 (0)
 -->
<!-- Title: dependency&#45;cruiser output Pages: 1 -->
<svg width="832pt" height="322pt"
 viewBox="0.00 0.00 832.00 322.00" xmlns="http://www.w3.org/2000/svg" xmlns:xlink="http://www.w3.org/1999/xlink">
<g id="graph0" class="graph" transform="scale(1 1) rotate(0) translate(4 318)">
<title>dependency&#45;cruiser output</title>
<polygon fill="white" stroke="transparent" points="-4,4 -4,-318 828,-318 828,4 -4,4"/>
<g id="clust1" class="cluster">
<title>cluster_packages</title>
<path fill="#ffffff" stroke="black" stroke-width="2" d="M20,-8C20,-8 804,-8 804,-8 810,-8 816,-14 816,-20 816,-20 816,-294 816,-294 816,-300 810,-306 804,-306 804,-306 20,-306 20,-306 14,-306 8,-300 8,-294 8,-294 8,-20 8,-20 8,-14 14,-8 20,-8"/>
<text text-anchor="middle" x="412" y="-294.8" font-family="Helvetica,sans-Serif" font-weight="bold" font-size="9.00">packages</text>
</g>
<g id="clust2" class="cluster">
<title>cluster_packages/util</title>
<path fill="#ffffff" stroke="black" stroke-width="2" d="M28,-16C28,-16 796,-16 796,-16 802,-16 808,-22 808,-28 808,-28 808,-268 808,-268 808,-274 802,-280 796,-280 796,-280 28,-280 28,-280 22,-280 16,-274 16,-268 16,-268 16,-28 16,-28 16,-22 22,-16 28,-16"/>
<text text-anchor="middle" x="412" y="-268.8" font-family="Helvetica,sans-Serif" font-weight="bold" font-size="9.00">util</text>
</g>
<g id="clust3" class="cluster">
<title>cluster_packages/util/graph</title>
<path fill="#ffffff" stroke="black" stroke-width="2" d="M36,-48C36,-48 600,-48 600,-48 606,-48 612,-54 612,-60 612,-60 612,-242 612,-242 612,-248 606,-254 600,-254 600,-254 36,-254 36,-254 30,-254 24,-248 24,-242 24,-242 24,-60 24,-60 24,-54 30,-48 36,-48"/>
<text text-anchor="middle" x="318" y="-242.8" font-family="Helvetica,sans-Serif" font-weight="bold" font-size="9.00">graph</text>
</g>
<g id="clust4" class="cluster">
<title>cluster_packages/util/graph/dist</title>
<path fill="#ffffff" stroke="black" stroke-width="2" d="M145,-146C145,-146 197,-146 197,-146 203,-146 209,-152 209,-158 209,-158 209,-216 209,-216 209,-222 203,-228 197,-228 197,-228 145,-228 145,-228 139,-228 133,-222 133,-216 133,-216 133,-158 133,-158 133,-152 139,-146 145,-146"/>
<text text-anchor="middle" x="171" y="-216.8" font-family="Helvetica,sans-Serif" font-weight="bold" font-size="9.00">dist</text>
</g>
<g id="clust5" class="cluster">
<title>cluster_packages/util/graph/src</title>
<path fill="#ffffff" stroke="black" stroke-width="2" d="M125,-56C125,-56 592,-56 592,-56 598,-56 604,-62 604,-68 604,-68 604,-126 604,-126 604,-132 598,-138 592,-138 592,-138 125,-138 125,-138 119,-138 113,-132 113,-126 113,-126 113,-68 113,-68 113,-62 119,-56 125,-56"/>
<text text-anchor="middle" x="358.5" y="-126.8" font-family="Helvetica,sans-Serif" font-weight="bold" font-size="9.00">src</text>
</g>
<g id="clust6" class="cluster">
<title>cluster_packages/util/math</title>
<path fill="#ffffff" stroke="black" stroke-width="2" d="M632,-42C632,-42 694,-42 694,-42 700,-42 706,-48 706,-54 706,-54 706,-116 706,-116 706,-122 700,-128 694,-128 694,-128 632,-128 632,-128 626,-128 620,-122 620,-116 620,-116 620,-54 620,-54 620,-48 626,-42 632,-42"/>
<text text-anchor="middle" x="663" y="-116.8" font-family="Helvetica,sans-Serif" font-weight="bold" font-size="9.00">math</text>
</g>
<g id="clust7" class="cluster">
<title>cluster_packages/util/math/dist</title>
<path fill="#ffffff" stroke="black" stroke-width="2" d="M640,-50C640,-50 686,-50 686,-50 692,-50 698,-56 698,-62 698,-62 698,-90 698,-90 698,-96 692,-102 686,-102 686,-102 640,-102 640,-102 634,-102 628,-96 628,-90 628,-90 628,-62 628,-62 628,-56 634,-50 640,-50"/>
<text text-anchor="middle" x="663" y="-90.8" font-family="Helvetica,sans-Serif" font-weight="bold" font-size="9.00">dist</text>
</g>
<g id="clust8" class="cluster">
<title>cluster_packages/util/stdlib</title>
<path fill="#ffffff" stroke="black" stroke-width="2" d="M726,-126C726,-126 788,-126 788,-126 794,-126 800,-132 800,-138 800,-138 800,-200 800,-200 800,-206 794,-212 788,-212 788,-212 726,-212 726,-212 720,-212 714,-206 714,-200 714,-200 714,-138 714,-138 714,-132 720,-126 726,-126"/>
<text text-anchor="middle" x="757" y="-200.8" font-family="Helvetica,sans-Serif" font-weight="bold" font-size="9.00">stdlib</text>
</g>
<g id="clust9" class="cluster">
<title>cluster_packages/util/stdlib/dist</title>
<path fill="#ffffff" stroke="black" stroke-width="2" d="M734,-134C734,-134 780,-134 780,-134 786,-134 792,-140 792,-146 792,-146 792,-174 792,-174 792,-180 786,-186 780,-186 780,-186 734,-186 734,-186 728,-186 722,-180 722,-174 722,-174 722,-146 722,-146 722,-140 728,-134 734,-134"/>
<text text-anchor="middle" x="757" y="-174.8" font-family="Helvetica,sans-Serif" font-weight="bold" font-size="9.00">dist</text>
</g>
<!-- packages/util/graph/dist/index.js -->
<g id="node1" class="node">
<title>packages/util/graph/dist/index.js</title>
<g id="a_node1"><a xlink:href="packages/util/graph/dist/index.js" xlink:title="index.js">
<path fill="#ffffcc" stroke="black" d="M192,-202C192,-202 150,-202 150,-202 147,-202 144,-199 144,-196 144,-196 144,-190 144,-190 144,-187 147,-184 150,-184 150,-184 192,-184 192,-184 195,-184 198,-187 198,-190 198,-190 198,-196 198,-196 198,-199 195,-202 192,-202"/>
<text text-anchor="start" x="153.5" y="-190.8" font-family="Helvetica,sans-Serif" font-size="9.00">index.js</text>
</a>
</g>
</g>
<!-- packages/util/math/dist/index.js -->
<g id="node2" class="node">
<title>packages/util/math/dist/index.js</title>
<g id="a_node2"><a xlink:href="packages/util/math/dist/index.js" xlink:title="index.js">
<path fill="#ffffcc" stroke="black" d="M684,-76C684,-76 642,-76 642,-76 639,-76 636,-73 636,-70 636,-70 636,-64 636,-64 636,-61 639,-58 642,-58 642,-58 684,-58 684,-58 687,-58 690,-61 690,-64 690,-64 690,-70 690,-70 690,-73 687,-76 684,-76"/>
<text text-anchor="start" x="645.5" y="-64.8" font-family="Helvetica,sans-Serif" font-size="9.00">index.js</text>
</a>
</g>
</g>
<!-- packages/util/graph/dist/index.js&#45;&gt;packages/util/math/dist/index.js -->
<g id="edge1" class="edge">
<title>packages/util/graph/dist/index.js&#45;&gt;packages/util/math/dist/index.js</title>
<path fill="none" stroke="#000000" stroke-width="2" stroke-opacity="0.200000" d="M198.11,-190.73C206.63,-188.66 215.35,-184.87 221,-178 238.75,-156.44 214.55,-73.04 234,-53 266.64,-19.38 291.64,-39 338.5,-39 338.5,-39 338.5,-39 447.5,-39 520.88,-39 539.8,-39.94 612,-53 617.85,-54.06 624.01,-55.5 629.93,-57.06"/>
<polygon fill="#000000" fill-opacity="0.200000" stroke="#000000" stroke-width="2" stroke-opacity="0.200000" points="629.41,-59.1 635.75,-58.65 630.51,-55.04 629.41,-59.1"/>
</g>
<!-- packages/util/stdlib/dist/index.js -->
<g id="node3" class="node">
<title>packages/util/stdlib/dist/index.js</title>
<g id="a_node3"><a xlink:href="packages/util/stdlib/dist/index.js" xlink:title="index.js">
<path fill="#ffffcc" stroke="black" d="M778,-160C778,-160 736,-160 736,-160 733,-160 730,-157 730,-154 730,-154 730,-148 730,-148 730,-145 733,-142 736,-142 736,-142 778,-142 778,-142 781,-142 784,-145 784,-148 784,-148 784,-154 784,-154 784,-157 781,-160 778,-160"/>
<text text-anchor="start" x="739.5" y="-148.8" font-family="Helvetica,sans-Serif" font-size="9.00">index.js</text>
</a>
</g>
</g>
<!-- packages/util/graph/dist/index.js&#45;&gt;packages/util/stdlib/dist/index.js -->
<g id="edge2" class="edge">
<title>packages/util/graph/dist/index.js&#45;&gt;packages/util/stdlib/dist/index.js</title>
<path fill="none" stroke="#000000" stroke-width="2" stroke-opacity="0.200000" d="M198.21,-190.45C230.99,-187.49 288.84,-183 338.5,-183 338.5,-183 338.5,-183 557.5,-183 616.81,-183 684.83,-168.9 723.88,-159.42"/>
<polygon fill="#000000" fill-opacity="0.200000" stroke="#000000" stroke-width="2" stroke-opacity="0.200000" points="724.56,-161.42 729.89,-157.94 723.56,-157.34 724.56,-161.42"/>
</g>
<!-- packages/util/math/dist/index.js&#45;&gt;packages/util/stdlib/dist/index.js -->
<g id="edge18" class="edge">
<title>packages/util/math/dist/index.js&#45;&gt;packages/util/stdlib/dist/index.js</title>
<path fill="none" stroke="#000000" stroke-width="2" stroke-opacity="0.200000" d="M674.2,-76.31C690.59,-91.27 722.84,-120.73 741.58,-137.84"/>
<polygon fill="#000000" fill-opacity="0.200000" stroke="#000000" stroke-width="2" stroke-opacity="0.200000" points="740.19,-139.41 746.04,-141.9 743.02,-136.31 740.19,-139.41"/>
</g>
<!-- packages/util/graph/dist/index.mjs -->
<g id="node4" class="node">
<title>packages/util/graph/dist/index.mjs</title>
<g id="a_node4"><a xlink:href="packages/util/graph/dist/index.mjs" xlink:title="index.mjs">
<path fill="#ffffcc" stroke="black" d="M195,-172C195,-172 147,-172 147,-172 144,-172 141,-169 141,-166 141,-166 141,-160 141,-160 141,-157 144,-154 147,-154 147,-154 195,-154 195,-154 198,-154 201,-157 201,-160 201,-160 201,-166 201,-166 201,-169 198,-172 195,-172"/>
<text text-anchor="start" x="149" y="-160.8" font-family="Helvetica,sans-Serif" font-size="9.00">index.mjs</text>
</a>
</g>
</g>
<!-- packages/util/graph/dist/index.mjs&#45;&gt;packages/util/math/dist/index.js -->
<g id="edge3" class="edge">
<title>packages/util/graph/dist/index.mjs&#45;&gt;packages/util/math/dist/index.js</title>
<path fill="none" stroke="#000000" stroke-width="2" stroke-opacity="0.200000" d="M201.06,-155.66C208.65,-152.37 216.07,-147.68 221,-141 249.17,-102.8 199.99,-68.11 234,-35 267.43,-2.45 291.84,-25 338.5,-25 338.5,-25 338.5,-25 447.5,-25 520.75,-25 542.36,-12.31 612,-35 624.57,-39.1 637.09,-47.12 646.46,-54.11"/>
<polygon fill="#000000" fill-opacity="0.200000" stroke="#000000" stroke-width="2" stroke-opacity="0.200000" points="645.29,-55.85 651.32,-57.85 647.85,-52.53 645.29,-55.85"/>
</g>
<!-- packages/util/graph/dist/index.mjs&#45;&gt;packages/util/stdlib/dist/index.js -->
<g id="edge4" class="edge">
<title>packages/util/graph/dist/index.mjs&#45;&gt;packages/util/stdlib/dist/index.js</title>
<path fill="none" stroke="#000000" stroke-width="2" stroke-opacity="0.200000" d="M201.17,-162.16C234.41,-161.27 290.36,-160 338.5,-160 338.5,-160 338.5,-160 557.5,-160 616.11,-160 684.36,-156.04 723.64,-153.37"/>
<polygon fill="#000000" fill-opacity="0.200000" stroke="#000000" stroke-width="2" stroke-opacity="0.200000" points="723.85,-155.46 729.69,-152.95 723.56,-151.27 723.85,-155.46"/>
</g>
<!-- packages/util/graph/index.test.ts -->
<g id="node5" class="node">
<title>packages/util/graph/index.test.ts</title>
<g id="a_node5"><a xlink:href="packages/util/graph/index.test.ts" xlink:title="index.test.ts">
<path fill="#ddfeff" stroke="black" d="M99,-202C99,-202 38,-202 38,-202 35,-202 32,-199 32,-196 32,-196 32,-190 32,-190 32,-187 35,-184 38,-184 38,-184 99,-184 99,-184 102,-184 105,-187 105,-190 105,-190 105,-196 105,-196 105,-199 102,-202 99,-202"/>
<text text-anchor="start" x="40" y="-190.8" font-family="Helvetica,sans-Serif" font-size="9.00">index.test.ts</text>
</a>
</g>
</g>
<!-- packages/util/graph/index.test.ts&#45;&gt;packages/util/graph/dist/index.js -->
<g id="edge5" class="edge">
<title>packages/util/graph/index.test.ts&#45;&gt;packages/util/graph/dist/index.js</title>
<path fill="none" stroke="#000000" stroke-width="2" stroke-opacity="0.200000" d="M105.22,-193C115.77,-193 127.27,-193 137.61,-193"/>
<polygon fill="#000000" fill-opacity="0.200000" stroke="#000000" stroke-width="2" stroke-opacity="0.200000" points="137.88,-195.1 143.88,-193 137.88,-190.9 137.88,-195.1"/>
</g>
<!-- packages/util/graph/index.ts -->
<g id="node6" class="node">
<title>packages/util/graph/index.ts</title>
<g id="a_node6"><a xlink:href="packages/util/graph/index.ts" xlink:title="index.ts">
<path fill="#ddfeff" stroke="black" d="M89.5,-112C89.5,-112 47.5,-112 47.5,-112 44.5,-112 41.5,-109 41.5,-106 41.5,-106 41.5,-100 41.5,-100 41.5,-97 44.5,-94 47.5,-94 47.5,-94 89.5,-94 89.5,-94 92.5,-94 95.5,-97 95.5,-100 95.5,-100 95.5,-106 95.5,-106 95.5,-109 92.5,-112 89.5,-112"/>
<text text-anchor="start" x="50" y="-100.8" font-family="Helvetica,sans-Serif" font-size="9.00">index.ts</text>
</a>
</g>
</g>
<!-- packages/util/graph/src/index.ts -->
<g id="node7" class="node">
<title>packages/util/graph/src/index.ts</title>
<g id="a_node7"><a xlink:href="packages/util/graph/src/index.ts" xlink:title="index.ts">
<path fill="#ddfeff" stroke="black" d="M192,-112C192,-112 150,-112 150,-112 147,-112 144,-109 144,-106 144,-106 144,-100 144,-100 144,-97 147,-94 150,-94 150,-94 192,-94 192,-94 195,-94 198,-97 198,-100 198,-100 198,-106 198,-106 198,-109 195,-112 192,-112"/>
<text text-anchor="start" x="152.5" y="-100.8" font-family="Helvetica,sans-Serif" font-size="9.00">index.ts</text>
</a>
</g>
</g>
<!-- packages/util/graph/index.ts&#45;&gt;packages/util/graph/src/index.ts -->
<g id="edge6" class="edge">
<title>packages/util/graph/index.ts&#45;&gt;packages/util/graph/src/index.ts</title>
<path fill="none" stroke="#000000" stroke-width="2" stroke-opacity="0.200000" d="M95.64,-103C108.55,-103 124.25,-103 137.88,-103"/>
<polygon fill="#000000" fill-opacity="0.200000" stroke="#000000" stroke-width="2" stroke-opacity="0.200000" points="143.99,-105.1 137.99,-103 143.99,-100.9 143.99,-105.1"/>
</g>
<!-- packages/util/graph/src/dynamic&#45;log&#45;viterbi.ts -->
<g id="node8" class="node">
<title>packages/util/graph/src/dynamic&#45;log&#45;viterbi.ts</title>
<g id="a_node8"><a xlink:href="packages/util/graph/src/dynamic-log-viterbi.ts" xlink:title="dynamic&#45;log&#45;viterbi.ts">
<path fill="#ddfeff" stroke="black" d="M498,-105C498,-105 395,-105 395,-105 392,-105 389,-102 389,-99 389,-99 389,-93 389,-93 389,-90 392,-87 395,-87 395,-87 498,-87 498,-87 501,-87 504,-90 504,-93 504,-93 504,-99 504,-99 504,-102 501,-105 498,-105"/>
<text text-anchor="start" x="397" y="-93.8" font-family="Helvetica,sans-Serif" font-size="9.00">dynamic&#45;log&#45;viterbi.ts</text>
</a>
</g>
</g>
<!-- packages/util/graph/src/index.ts&#45;&gt;packages/util/graph/src/dynamic&#45;log&#45;viterbi.ts -->
<g id="edge9" class="edge">
<title>packages/util/graph/src/index.ts&#45;&gt;packages/util/graph/src/dynamic&#45;log&#45;viterbi.ts</title>
<path fill="none" stroke="#000000" stroke-width="2" stroke-opacity="0.200000" d="M198.22,-102.33C240.34,-101.25 324.24,-99.1 382.56,-97.61"/>
<polygon fill="#000000" fill-opacity="0.200000" stroke="#000000" stroke-width="2" stroke-opacity="0.200000" points="388.89,-99.55 382.84,-97.6 388.78,-95.35 388.89,-99.55"/>
</g>
<!-- packages/util/graph/src/log&#45;viterbi.ts -->
<g id="node11" class="node">
<title>packages/util/graph/src/log&#45;viterbi.ts</title>
<g id="a_node11"><a xlink:href="packages/util/graph/src/log-viterbi.ts" xlink:title="log&#45;viterbi.ts">
<path fill="#ddfeff" stroke="black" d="M370,-90C370,-90 309,-90 309,-90 306,-90 303,-87 303,-84 303,-84 303,-78 303,-78 303,-75 306,-72 309,-72 309,-72 370,-72 370,-72 373,-72 376,-75 376,-78 376,-78 376,-84 376,-84 376,-87 373,-90 370,-90"/>
<text text-anchor="start" x="311" y="-78.8" font-family="Helvetica,sans-Serif" font-size="9.00">log&#45;viterbi.ts</text>
</a>
</g>
</g>
<!-- packages/util/graph/src/index.ts&#45;&gt;packages/util/graph/src/log&#45;viterbi.ts -->
<g id="edge10" class="edge">
<title>packages/util/graph/src/index.ts&#45;&gt;packages/util/graph/src/log&#45;viterbi.ts</title>
<path fill="none" stroke="#000000" stroke-width="2" stroke-opacity="0.200000" d="M198.26,-99.79C222.19,-96.84 258.49,-92.28 290,-88 292.19,-87.7 294.44,-87.39 296.72,-87.08"/>
<polygon fill="#000000" fill-opacity="0.200000" stroke="#000000" stroke-width="2" stroke-opacity="0.200000" points="303.04,-88.31 296.81,-87.06 302.46,-84.15 303.04,-88.31"/>
</g>
<!-- packages/util/graph/src/viterbi.ts -->
<g id="node12" class="node">
<title>packages/util/graph/src/viterbi.ts</title>
<g id="a_node12"><a xlink:href="packages/util/graph/src/viterbi.ts" xlink:title="viterbi.ts">
<path fill="#ddfeff" stroke="black" d="M284,-82C284,-82 240,-82 240,-82 237,-82 234,-79 234,-76 234,-76 234,-70 234,-70 234,-67 237,-64 240,-64 240,-64 284,-64 284,-64 287,-64 290,-67 290,-70 290,-70 290,-76 290,-76 290,-79 287,-82 284,-82"/>
<text text-anchor="start" x="242" y="-70.8" font-family="Helvetica,sans-Serif" font-size="9.00">viterbi.ts</text>
</a>
</g>
</g>
<!-- packages/util/graph/src/index.ts&#45;&gt;packages/util/graph/src/viterbi.ts -->
<g id="edge11" class="edge">
<title>packages/util/graph/src/index.ts&#45;&gt;packages/util/graph/src/viterbi.ts</title>
<path fill="none" stroke="#000000" stroke-width="2" stroke-opacity="0.200000" d="M198.03,-95.36C205.48,-93.08 213.59,-90.52 221,-88 224.42,-86.84 227.98,-85.57 231.52,-84.29"/>
<polygon fill="#000000" fill-opacity="0.200000" stroke="#000000" stroke-width="2" stroke-opacity="0.200000" points="238.12,-84.1 231.77,-84.2 236.67,-80.16 238.12,-84.1"/>
</g>
<!-- packages/util/graph/src/dynamic&#45;log&#45;viterbi.ts&#45;&gt;packages/util/math/dist/index.js -->
<g id="edge8" class="edge">
<title>packages/util/graph/src/dynamic&#45;log&#45;viterbi.ts&#45;&gt;packages/util/math/dist/index.js</title>
<path fill="none" stroke="#000000" stroke-width="2" stroke-opacity="0.200000" d="M504.14,-88.34C544.33,-82.91 596.84,-75.81 630,-71.33"/>
<polygon fill="#000000" fill-opacity="0.200000" stroke="#000000" stroke-width="2" stroke-opacity="0.200000" points="630.29,-73.41 635.96,-70.52 629.73,-69.24 630.29,-73.41"/>
</g>
<!-- packages/util/graph/src/viterbi&#45;core.ts -->
<g id="node9" class="node">
<title>packages/util/graph/src/viterbi&#45;core.ts</title>
<g id="a_node9"><a xlink:href="packages/util/graph/src/viterbi-core.ts" xlink:title="viterbi&#45;core.ts">
<path fill="#ddfeff" stroke="black" d="M590,-112C590,-112 523,-112 523,-112 520,-112 517,-109 517,-106 517,-106 517,-100 517,-100 517,-97 520,-94 523,-94 523,-94 590,-94 590,-94 593,-94 596,-97 596,-100 596,-100 596,-106 596,-106 596,-109 593,-112 590,-112"/>
<text text-anchor="start" x="525" y="-100.8" font-family="Helvetica,sans-Serif" font-size="9.00">viterbi&#45;core.ts</text>
</a>
</g>
</g>
<!-- packages/util/graph/src/dynamic&#45;log&#45;viterbi.ts&#45;&gt;packages/util/graph/src/viterbi&#45;core.ts -->
<g id="edge7" class="edge">
<title>packages/util/graph/src/dynamic&#45;log&#45;viterbi.ts&#45;&gt;packages/util/graph/src/viterbi&#45;core.ts</title>
<path fill="none" stroke="#000000" stroke-width="2" stroke-opacity="0.200000" d="M504.03,-99.66C506.17,-99.8 508.31,-99.94 510.43,-100.08"/>
<polygon fill="#000000" fill-opacity="0.200000" stroke="#000000" stroke-width="2" stroke-opacity="0.200000" points="510.6,-102.19 516.72,-100.49 510.87,-98 510.6,-102.19"/>
</g>
<!-- packages/util/graph/src/viterbi&#45;core.ts&#45;&gt;packages/util/math/dist/index.js -->
<g id="edge14" class="edge">
<title>packages/util/graph/src/viterbi&#45;core.ts&#45;&gt;packages/util/math/dist/index.js</title>
<path fill="none" stroke="#000000" stroke-width="2" stroke-opacity="0.200000" d="M585.27,-93.98C593.86,-91.16 603.33,-87.99 612,-85 618.34,-82.81 625.12,-80.41 631.57,-78.1"/>
<polygon fill="#000000" fill-opacity="0.200000" stroke="#000000" stroke-width="2" stroke-opacity="0.200000" points="632.44,-80.02 637.38,-76.01 631.02,-76.07 632.44,-80.02"/>
</g>
<!-- packages/util/graph/src/viterbi&#45;core.ts&#45;&gt;packages/util/stdlib/dist/index.js -->
<g id="edge15" class="edge">
<title>packages/util/graph/src/viterbi&#45;core.ts&#45;&gt;packages/util/stdlib/dist/index.js</title>
<path fill="none" stroke="#000000" stroke-width="2" stroke-opacity="0.200000" d="M594.84,-112.03C632.1,-121.04 688.75,-134.74 724.01,-143.26"/>
<polygon fill="#000000" fill-opacity="0.200000" stroke="#000000" stroke-width="2" stroke-opacity="0.200000" points="723.58,-145.32 729.91,-144.69 724.57,-141.24 723.58,-145.32"/>
</g>
<!-- packages/util/graph/src/hmm&#45;log&#45;viterbi.ts -->
<g id="node10" class="node">
<title>packages/util/graph/src/hmm&#45;log&#45;viterbi.ts</title>
<g id="a_node10"><a xlink:href="packages/util/graph/src/hmm-log-viterbi.ts" xlink:title="no&#45;orphans">
<path fill="#ccffcc" stroke="orange" d="M215,-82C215,-82 127,-82 127,-82 124,-82 121,-79 121,-76 121,-76 121,-70 121,-70 121,-67 124,-64 127,-64 127,-64 215,-64 215,-64 218,-64 221,-67 221,-70 221,-70 221,-76 221,-76 221,-79 218,-82 215,-82"/>
<text text-anchor="start" x="129" y="-70.8" font-family="Helvetica,sans-Serif" font-size="9.00" fill="orange">hmm&#45;log&#45;viterbi.ts</text>
</a>
</g>
</g>
<!-- packages/util/graph/src/log&#45;viterbi.ts&#45;&gt;packages/util/math/dist/index.js -->
<g id="edge13" class="edge">
<title>packages/util/graph/src/log&#45;viterbi.ts&#45;&gt;packages/util/math/dist/index.js</title>
<path fill="none" stroke="#000000" stroke-width="2" stroke-opacity="0.200000" d="M376.32,-79C411.98,-77.05 468.26,-74.08 517,-72 555.77,-70.34 600.38,-68.87 629.77,-67.96"/>
<polygon fill="#000000" fill-opacity="0.200000" stroke="#000000" stroke-width="2" stroke-opacity="0.200000" points="629.87,-70.06 635.8,-67.77 629.74,-65.86 629.87,-70.06"/>
</g>
<!-- packages/util/graph/src/log&#45;viterbi.ts&#45;&gt;packages/util/graph/src/dynamic&#45;log&#45;viterbi.ts -->
<g id="edge12" class="edge">
<title>packages/util/graph/src/log&#45;viterbi.ts&#45;&gt;packages/util/graph/src/dynamic&#45;log&#45;viterbi.ts</title>
<path fill="none" stroke="#000000" stroke-width="2" stroke-opacity="0.200000" d="M376.05,-86.08C378.26,-86.39 380.52,-86.72 382.8,-87.04"/>
<polygon fill="#000000" fill-opacity="0.200000" stroke="#000000" stroke-width="2" stroke-opacity="0.200000" points="382.66,-89.14 388.9,-87.91 383.26,-84.99 382.66,-89.14"/>
</g>
<!-- packages/util/graph/src/viterbi.ts&#45;&gt;packages/util/math/dist/index.js -->
<g id="edge17" class="edge">
<title>packages/util/graph/src/viterbi.ts&#45;&gt;packages/util/math/dist/index.js</title>
<path fill="none" stroke="#000000" stroke-width="2" stroke-opacity="0.200000" d="M290.03,-67.63C294.35,-66.96 298.79,-66.38 303,-66 439.79,-53.8 474.69,-62.25 612,-65 617.68,-65.11 623.71,-65.3 629.56,-65.51"/>
<polygon fill="#000000" fill-opacity="0.200000" stroke="#000000" stroke-width="2" stroke-opacity="0.200000" points="629.72,-67.62 635.8,-65.75 629.88,-63.42 629.72,-67.62"/>
</g>
<!-- packages/util/graph/src/viterbi.ts&#45;&gt;packages/util/graph/src/log&#45;viterbi.ts -->
<g id="edge16" class="edge">
<title>packages/util/graph/src/viterbi.ts&#45;&gt;packages/util/graph/src/log&#45;viterbi.ts</title>
<path fill="none" stroke="#000000" stroke-width="2" stroke-opacity="0.200000" d="M290.26,-75.89C292.28,-76.1 294.36,-76.32 296.45,-76.54"/>
<polygon fill="#000000" fill-opacity="0.200000" stroke="#000000" stroke-width="2" stroke-opacity="0.200000" points="296.55,-78.67 302.74,-77.21 296.99,-74.49 296.55,-78.67"/>
</g>
</g>
</svg>
