<?xml version="1.0" encoding="UTF-8" standalone="no"?>
<!DOCTYPE svg PUBLIC "-//W3C//DTD SVG 1.1//EN"
 "http://www.w3.org/Graphics/SVG/1.1/DTD/svg11.dtd">
<!-- Generated by graphviz version 2.43.0 (0)
 -->
<!-- Title: dependency&#45;cruiser output Pages: 1 -->
<svg width="744pt" height="346pt"
 viewBox="0.00 0.00 744.00 346.00" xmlns="http://www.w3.org/2000/svg" xmlns:xlink="http://www.w3.org/1999/xlink">
<g id="graph0" class="graph" transform="scale(1 1) rotate(0) translate(4 342)">
<title>dependency&#45;cruiser output</title>
<polygon fill="white" stroke="transparent" points="-4,4 -4,-342 740,-342 740,4 -4,4"/>
<g id="clust1" class="cluster">
<title>cluster_packages</title>
<path fill="#ffffff" stroke="black" stroke-width="2" d="M20,-8C20,-8 716,-8 716,-8 722,-8 728,-14 728,-20 728,-20 728,-318 728,-318 728,-324 722,-330 716,-330 716,-330 20,-330 20,-330 14,-330 8,-324 8,-318 8,-318 8,-20 8,-20 8,-14 14,-8 20,-8"/>
<text text-anchor="middle" x="368" y="-318.8" font-family="Helvetica,sans-Serif" font-weight="bold" font-size="9.00">packages</text>
</g>
<g id="clust2" class="cluster">
<title>cluster_packages/util</title>
<path fill="#ffffff" stroke="black" stroke-width="2" d="M28,-16C28,-16 708,-16 708,-16 714,-16 720,-22 720,-28 720,-28 720,-292 720,-292 720,-298 714,-304 708,-304 708,-304 28,-304 28,-304 22,-304 16,-298 16,-292 16,-292 16,-28 16,-28 16,-22 22,-16 28,-16"/>
<text text-anchor="middle" x="368" y="-292.8" font-family="Helvetica,sans-Serif" font-weight="bold" font-size="9.00">util</text>
</g>
<g id="clust3" class="cluster">
<title>cluster_packages/util/graph</title>
<path fill="#ffffff" stroke="black" stroke-width="2" d="M36,-63C36,-63 450,-63 450,-63 456,-63 462,-69 462,-75 462,-75 462,-227 462,-227 462,-233 456,-239 450,-239 450,-239 36,-239 36,-239 30,-239 24,-233 24,-227 24,-227 24,-75 24,-75 24,-69 30,-63 36,-63"/>
<text text-anchor="middle" x="243" y="-227.8" font-family="Helvetica,sans-Serif" font-weight="bold" font-size="9.00">graph</text>
</g>
<g id="clust4" class="cluster">
<title>cluster_packages/util/graph/dist</title>
<path fill="#ffffff" stroke="black" stroke-width="2" d="M166.5,-71C166.5,-71 212.5,-71 212.5,-71 218.5,-71 224.5,-77 224.5,-83 224.5,-83 224.5,-111 224.5,-111 224.5,-117 218.5,-123 212.5,-123 212.5,-123 166.5,-123 166.5,-123 160.5,-123 154.5,-117 154.5,-111 154.5,-111 154.5,-83 154.5,-83 154.5,-77 160.5,-71 166.5,-71"/>
<text text-anchor="middle" x="189.5" y="-111.8" font-family="Helvetica,sans-Serif" font-weight="bold" font-size="9.00">dist</text>
</g>
<g id="clust5" class="cluster">
<title>cluster_packages/util/graph/src</title>
<path fill="#ffffff" stroke="black" stroke-width="2" d="M44,-131C44,-131 442,-131 442,-131 448,-131 454,-137 454,-143 454,-143 454,-201 454,-201 454,-207 448,-213 442,-213 442,-213 44,-213 44,-213 38,-213 32,-207 32,-201 32,-201 32,-143 32,-143 32,-137 38,-131 44,-131"/>
<text text-anchor="middle" x="243" y="-201.8" font-family="Helvetica,sans-Serif" font-weight="bold" font-size="9.00">src</text>
</g>
<g id="clust6" class="cluster">
<title>cluster_packages/util/math</title>
<path fill="#ffffff" stroke="black" stroke-width="2" d="M482,-128C482,-128 700,-128 700,-128 706,-128 712,-134 712,-140 712,-140 712,-266 712,-266 712,-272 706,-278 700,-278 700,-278 482,-278 482,-278 476,-278 470,-272 470,-266 470,-266 470,-140 470,-140 470,-134 476,-128 482,-128"/>
<text text-anchor="middle" x="591" y="-266.8" font-family="Helvetica,sans-Serif" font-weight="bold" font-size="9.00">math</text>
</g>
<g id="clust7" class="cluster">
<title>cluster_packages/util/math/src</title>
<path fill="#ffffff" stroke="black" stroke-width="2" d="M490,-136C490,-136 692,-136 692,-136 698,-136 704,-142 704,-148 704,-148 704,-240 704,-240 704,-246 698,-252 692,-252 692,-252 490,-252 490,-252 484,-252 478,-246 478,-240 478,-240 478,-148 478,-148 478,-142 484,-136 490,-136"/>
<text text-anchor="middle" x="591" y="-240.8" font-family="Helvetica,sans-Serif" font-weight="bold" font-size="9.00">src</text>
</g>
<g id="clust8" class="cluster">
<title>cluster_packages/util/math/src/reduction</title>
<path fill="#ffffff" stroke="black" stroke-width="2" d="M498,-144C498,-144 684,-144 684,-144 690,-144 696,-150 696,-156 696,-156 696,-214 696,-214 696,-220 690,-226 684,-226 684,-226 498,-226 498,-226 492,-226 486,-220 486,-214 486,-214 486,-156 486,-156 486,-150 492,-144 498,-144"/>
<text text-anchor="middle" x="591" y="-214.8" font-family="Helvetica,sans-Serif" font-weight="bold" font-size="9.00">reduction</text>
</g>
<g id="clust9" class="cluster">
<title>cluster_packages/util/stdlib</title>
<path fill="#ffffff" stroke="black" stroke-width="2" d="M505.5,-34C505.5,-34 572.5,-34 572.5,-34 578.5,-34 584.5,-40 584.5,-46 584.5,-46 584.5,-108 584.5,-108 584.5,-114 578.5,-120 572.5,-120 572.5,-120 505.5,-120 505.5,-120 499.5,-120 493.5,-114 493.5,-108 493.5,-108 493.5,-46 493.5,-46 493.5,-40 499.5,-34 505.5,-34"/>
<text text-anchor="middle" x="539" y="-108.8" font-family="Helvetica,sans-Serif" font-weight="bold" font-size="9.00">stdlib</text>
</g>
<g id="clust10" class="cluster">
<title>cluster_packages/util/stdlib/src</title>
<path fill="#ffffff" stroke="black" stroke-width="2" d="M513.5,-42C513.5,-42 564.5,-42 564.5,-42 570.5,-42 576.5,-48 576.5,-54 576.5,-54 576.5,-82 576.5,-82 576.5,-88 570.5,-94 564.5,-94 564.5,-94 513.5,-94 513.5,-94 507.5,-94 501.5,-88 501.5,-82 501.5,-82 501.5,-54 501.5,-54 501.5,-48 507.5,-42 513.5,-42"/>
<text text-anchor="middle" x="539" y="-82.8" font-family="Helvetica,sans-Serif" font-weight="bold" font-size="9.00">src</text>
</g>
<!-- packages/util/graph/dist/index.js -->
<g id="node1" class="node">
<title>packages/util/graph/dist/index.js</title>
<g id="a_node1"><a xlink:href="packages/util/graph/dist/index.js" xlink:title="index.js">
<polygon fill="#ffffcc" stroke="black" points="216.5,-97 215,-99 204.5,-99 203,-97 162.5,-97 162.5,-79 216.5,-79 216.5,-97"/>
<text text-anchor="start" x="172" y="-85.8" font-family="Helvetica,sans-Serif" font-size="9.00">index.js</text>
</a>
</g>
</g>
<!-- packages/util/graph/index.test.ts -->
<g id="node2" class="node">
<title>packages/util/graph/index.test.ts</title>
<g id="a_node2"><a xlink:href="packages/util/graph/index.test.ts" xlink:title="index.test.ts">
<path fill="#ddfeff" stroke="black" d="M120.5,-97C120.5,-97 59.5,-97 59.5,-97 56.5,-97 53.5,-94 53.5,-91 53.5,-91 53.5,-85 53.5,-85 53.5,-82 56.5,-79 59.5,-79 59.5,-79 120.5,-79 120.5,-79 123.5,-79 126.5,-82 126.5,-85 126.5,-85 126.5,-91 126.5,-91 126.5,-94 123.5,-97 120.5,-97"/>
<text text-anchor="start" x="61.5" y="-85.8" font-family="Helvetica,sans-Serif" font-size="9.00">index.test.ts</text>
</a>
</g>
</g>
<!-- packages/util/graph/index.test.ts&#45;&gt;packages/util/graph/dist/index.js -->
<g id="edge1" class="edge">
<title>packages/util/graph/index.test.ts&#45;&gt;packages/util/graph/dist/index.js</title>
<path fill="none" stroke="#000000" stroke-width="2" stroke-opacity="0.200000" d="M126.75,-88C136.38,-88 146.74,-88 156.17,-88"/>
<polygon fill="#000000" fill-opacity="0.200000" stroke="#000000" stroke-width="2" stroke-opacity="0.200000" points="156.22,-90.1 162.22,-88 156.22,-85.9 156.22,-90.1"/>
</g>
<!-- packages/util/graph/src/dynamic&#45;log&#45;viterbi.ts -->
<g id="node3" class="node">
<title>packages/util/graph/src/dynamic&#45;log&#45;viterbi.ts</title>
<g id="a_node3"><a xlink:href="packages/util/graph/src/dynamic-log-viterbi.ts" xlink:title="dynamic&#45;log&#45;viterbi.ts">
<path fill="#ddfeff" stroke="black" d="M348,-164C348,-164 245,-164 245,-164 242,-164 239,-161 239,-158 239,-158 239,-152 239,-152 239,-149 242,-146 245,-146 245,-146 348,-146 348,-146 351,-146 354,-149 354,-152 354,-152 354,-158 354,-158 354,-161 351,-164 348,-164"/>
<text text-anchor="start" x="247" y="-152.8" font-family="Helvetica,sans-Serif" font-size="9.00">dynamic&#45;log&#45;viterbi.ts</text>
</a>
</g>
</g>
<!-- packages/util/graph/src/viterbi&#45;core.ts -->
<g id="node4" class="node">
<title>packages/util/graph/src/viterbi&#45;core.ts</title>
<g id="a_node4"><a xlink:href="packages/util/graph/src/viterbi-core.ts" xlink:title="viterbi&#45;core.ts">
<path fill="#ddfeff" stroke="black" d="M440,-157C440,-157 373,-157 373,-157 370,-157 367,-154 367,-151 367,-151 367,-145 367,-145 367,-142 370,-139 373,-139 373,-139 440,-139 440,-139 443,-139 446,-142 446,-145 446,-145 446,-151 446,-151 446,-154 443,-157 440,-157"/>
<text text-anchor="start" x="375" y="-145.8" font-family="Helvetica,sans-Serif" font-size="9.00">viterbi&#45;core.ts</text>
</a>
</g>
</g>
<!-- packages/util/graph/src/dynamic&#45;log&#45;viterbi.ts&#45;&gt;packages/util/graph/src/viterbi&#45;core.ts -->
<g id="edge2" class="edge">
<title>packages/util/graph/src/dynamic&#45;log&#45;viterbi.ts&#45;&gt;packages/util/graph/src/viterbi&#45;core.ts</title>
<path fill="none" stroke="#000000" stroke-width="2" stroke-opacity="0.200000" d="M354.03,-151.34C356.17,-151.2 358.31,-151.06 360.43,-150.92"/>
<polygon fill="#000000" fill-opacity="0.200000" stroke="#000000" stroke-width="2" stroke-opacity="0.200000" points="360.87,-153 366.72,-150.51 360.6,-148.81 360.87,-153"/>
</g>
<!-- packages/util/math/src/reduction/compare.ts -->
<g id="node5" class="node">
<title>packages/util/math/src/reduction/compare.ts</title>
<g id="a_node5"><a xlink:href="packages/util/math/src/reduction/compare.ts" xlink:title="compare.ts">
<path fill="#ddfeff" stroke="black" d="M567,-200C567,-200 511,-200 511,-200 508,-200 505,-197 505,-194 505,-194 505,-188 505,-188 505,-185 508,-182 511,-182 511,-182 567,-182 567,-182 570,-182 573,-185 573,-188 573,-188 573,-194 573,-194 573,-197 570,-200 567,-200"/>
<text text-anchor="start" x="513" y="-188.8" font-family="Helvetica,sans-Serif" font-size="9.00">compare.ts</text>
</a>
</g>
</g>
<!-- packages/util/graph/src/dynamic&#45;log&#45;viterbi.ts&#45;&gt;packages/util/math/src/reduction/compare.ts -->
<g id="edge3" class="edge">
<title>packages/util/graph/src/dynamic&#45;log&#45;viterbi.ts&#45;&gt;packages/util/math/src/reduction/compare.ts</title>
<path fill="none" stroke="#000000" stroke-width="2" stroke-opacity="0.200000" d="M354.28,-163.58C398.82,-170.19 459.29,-179.17 498.72,-185.02"/>
<polygon fill="#000000" fill-opacity="0.200000" stroke="#000000" stroke-width="2" stroke-opacity="0.200000" points="498.62,-187.13 504.86,-185.93 499.23,-182.97 498.62,-187.13"/>
</g>
<!-- packages/util/math/src/reduction/args&#45;min&#45;max.ts -->
<g id="node8" class="node">
<title>packages/util/math/src/reduction/args&#45;min&#45;max.ts</title>
<g id="a_node8"><a xlink:href="packages/util/math/src/reduction/args-min-max.ts" xlink:title="args&#45;min&#45;max.ts">
<path fill="#ddfeff" stroke="black" d="M578,-170C578,-170 500,-170 500,-170 497,-170 494,-167 494,-164 494,-164 494,-158 494,-158 494,-155 497,-152 500,-152 500,-152 578,-152 578,-152 581,-152 584,-155 584,-158 584,-158 584,-164 584,-164 584,-167 581,-170 578,-170"/>
<text text-anchor="start" x="502" y="-158.8" font-family="Helvetica,sans-Serif" font-size="9.00">args&#45;min&#45;max.ts</text>
</a>
</g>
</g>
<!-- packages/util/graph/src/viterbi&#45;core.ts&#45;&gt;packages/util/math/src/reduction/args&#45;min&#45;max.ts -->
<g id="edge6" class="edge">
<title>packages/util/graph/src/viterbi&#45;core.ts&#45;&gt;packages/util/math/src/reduction/args&#45;min&#45;max.ts</title>
<path fill="none" stroke="#000000" stroke-width="2" stroke-opacity="0.200000" d="M446.3,-151.87C459.2,-153.15 473.76,-154.6 487.42,-155.96"/>
<polygon fill="#000000" fill-opacity="0.200000" stroke="#000000" stroke-width="2" stroke-opacity="0.200000" points="487.44,-158.07 493.62,-156.58 487.86,-153.89 487.44,-158.07"/>
</g>
<!-- packages/util/math/src/reduction/compare&#45;func.ts -->
<g id="node9" class="node">
<title>packages/util/math/src/reduction/compare&#45;func.ts</title>
<g id="a_node9"><a xlink:href="packages/util/math/src/reduction/compare-func.ts" xlink:title="compare&#45;func.ts">
<path fill="#ddfeff" stroke="black" d="M682,-170C682,-170 603,-170 603,-170 600,-170 597,-167 597,-164 597,-164 597,-158 597,-158 597,-155 600,-152 603,-152 603,-152 682,-152 682,-152 685,-152 688,-155 688,-158 688,-158 688,-164 688,-164 688,-167 685,-170 682,-170"/>
<text text-anchor="start" x="605" y="-158.8" font-family="Helvetica,sans-Serif" font-size="9.00">compare&#45;func.ts</text>
</a>
</g>
</g>
<!-- packages/util/graph/src/viterbi&#45;core.ts&#45;&gt;packages/util/math/src/reduction/compare&#45;func.ts -->
<g id="edge7" class="edge">
<title>packages/util/graph/src/viterbi&#45;core.ts&#45;&gt;packages/util/math/src/reduction/compare&#45;func.ts</title>
<path fill="none" stroke="#000000" stroke-width="2" stroke-opacity="0.200000" d="M446,-150.18C485.73,-152.36 547.18,-155.75 590.77,-158.15"/>
<polygon fill="#000000" fill-opacity="0.200000" stroke="#000000" stroke-width="2" stroke-opacity="0.200000" points="590.7,-160.25 596.8,-158.48 590.93,-156.06 590.7,-160.25"/>
</g>
<!-- packages/util/stdlib/src/unique.ts -->
<g id="node10" class="node">
<title>packages/util/stdlib/src/unique.ts</title>
<g id="a_node10"><a xlink:href="packages/util/stdlib/src/unique.ts" xlink:title="unique.ts">
<path fill="#ddfeff" stroke="black" d="M562.5,-68C562.5,-68 515.5,-68 515.5,-68 512.5,-68 509.5,-65 509.5,-62 509.5,-62 509.5,-56 509.5,-56 509.5,-53 512.5,-50 515.5,-50 515.5,-50 562.5,-50 562.5,-50 565.5,-50 568.5,-53 568.5,-56 568.5,-56 568.5,-62 568.5,-62 568.5,-65 565.5,-68 562.5,-68"/>
<text text-anchor="start" x="517.5" y="-56.8" font-family="Helvetica,sans-Serif" font-size="9.00">unique.ts</text>
</a>
</g>
</g>
<!-- packages/util/graph/src/viterbi&#45;core.ts&#45;&gt;packages/util/stdlib/src/unique.ts -->
<g id="edge8" class="edge">
<title>packages/util/graph/src/viterbi&#45;core.ts&#45;&gt;packages/util/stdlib/src/unique.ts</title>
<path fill="none" stroke="#000000" stroke-width="2" stroke-opacity="0.200000" d="M420.97,-138.81C444.54,-122.74 493.25,-89.52 519.79,-71.42"/>
<polygon fill="#000000" fill-opacity="0.200000" stroke="#000000" stroke-width="2" stroke-opacity="0.200000" points="521.02,-73.12 524.79,-68.01 518.65,-69.65 521.02,-73.12"/>
</g>
<!-- packages/util/math/src/reduction/compare.ts&#45;&gt;packages/util/math/src/reduction/compare&#45;func.ts -->
<g id="edge12" class="edge">
<title>packages/util/math/src/reduction/compare.ts&#45;&gt;packages/util/math/src/reduction/compare&#45;func.ts</title>
<path fill="none" stroke="#000000" stroke-width="2" stroke-opacity="0.200000" d="M570.45,-182C581.29,-178.8 593.61,-175.15 604.91,-171.81"/>
<polygon fill="#000000" fill-opacity="0.200000" stroke="#000000" stroke-width="2" stroke-opacity="0.200000" points="605.56,-173.81 610.72,-170.1 604.37,-169.79 605.56,-173.81"/>
</g>
<!-- packages/util/graph/src/hmm&#45;log&#45;viterbi.ts -->
<g id="node6" class="node">
<title>packages/util/graph/src/hmm&#45;log&#45;viterbi.ts</title>
<g id="a_node6"><a xlink:href="packages/util/graph/src/hmm-log-viterbi.ts" xlink:title="no&#45;orphans">
<path fill="#ccffcc" stroke="orange" d="M134,-187C134,-187 46,-187 46,-187 43,-187 40,-184 40,-181 40,-181 40,-175 40,-175 40,-172 43,-169 46,-169 46,-169 134,-169 134,-169 137,-169 140,-172 140,-175 140,-175 140,-181 140,-181 140,-184 137,-187 134,-187"/>
<text text-anchor="start" x="48" y="-175.8" font-family="Helvetica,sans-Serif" font-size="9.00" fill="orange">hmm&#45;log&#45;viterbi.ts</text>
</a>
</g>
</g>
<!-- packages/util/graph/src/log&#45;viterbi.ts -->
<g id="node7" class="node">
<title>packages/util/graph/src/log&#45;viterbi.ts</title>
<g id="a_node7"><a xlink:href="packages/util/graph/src/log-viterbi.ts" xlink:title="log&#45;viterbi.ts">
<path fill="#ddfeff" stroke="black" d="M220,-164C220,-164 159,-164 159,-164 156,-164 153,-161 153,-158 153,-158 153,-152 153,-152 153,-149 156,-146 159,-146 159,-146 220,-146 220,-146 223,-146 226,-149 226,-152 226,-152 226,-158 226,-158 226,-161 223,-164 220,-164"/>
<text text-anchor="start" x="161" y="-152.8" font-family="Helvetica,sans-Serif" font-size="9.00">log&#45;viterbi.ts</text>
</a>
</g>
</g>
<!-- packages/util/graph/src/log&#45;viterbi.ts&#45;&gt;packages/util/graph/src/dynamic&#45;log&#45;viterbi.ts -->
<g id="edge4" class="edge">
<title>packages/util/graph/src/log&#45;viterbi.ts&#45;&gt;packages/util/graph/src/dynamic&#45;log&#45;viterbi.ts</title>
<path fill="none" stroke="#000000" stroke-width="2" stroke-opacity="0.200000" d="M226.05,-155C228.26,-155 230.52,-155 232.8,-155"/>
<polygon fill="#000000" fill-opacity="0.200000" stroke="#000000" stroke-width="2" stroke-opacity="0.200000" points="232.9,-157.1 238.9,-155 232.9,-152.9 232.9,-157.1"/>
</g>
<!-- packages/util/graph/src/log&#45;viterbi.ts&#45;&gt;packages/util/math/src/reduction/compare.ts -->
<g id="edge5" class="edge">
<title>packages/util/graph/src/log&#45;viterbi.ts&#45;&gt;packages/util/math/src/reduction/compare.ts</title>
<path fill="none" stroke="#000000" stroke-width="2" stroke-opacity="0.200000" d="M226.24,-158.78C292.25,-165.58 430.39,-179.81 498.82,-186.86"/>
<polygon fill="#000000" fill-opacity="0.200000" stroke="#000000" stroke-width="2" stroke-opacity="0.200000" points="498.63,-188.95 504.82,-187.48 499.06,-184.78 498.63,-188.95"/>
</g>
<!-- packages/util/math/src/reduction/args&#45;min&#45;max.ts&#45;&gt;packages/util/math/src/reduction/compare&#45;func.ts -->
<g id="edge11" class="edge">
<title>packages/util/math/src/reduction/args&#45;min&#45;max.ts&#45;&gt;packages/util/math/src/reduction/compare&#45;func.ts</title>
<path fill="none" stroke="#000000" stroke-width="2" stroke-opacity="0.200000" d="M584.22,-161C586.31,-161 588.41,-161 590.5,-161"/>
<polygon fill="#000000" fill-opacity="0.200000" stroke="#000000" stroke-width="2" stroke-opacity="0.200000" points="590.79,-163.1 596.79,-161 590.79,-158.9 590.79,-163.1"/>
</g>
<!-- packages/util/graph/src/viterbi.ts -->
<g id="node11" class="node">
<title>packages/util/graph/src/viterbi.ts</title>
<g id="a_node11"><a xlink:href="packages/util/graph/src/viterbi.ts" xlink:title="viterbi.ts">
<path fill="#ddfeff" stroke="black" d="M112,-157C112,-157 68,-157 68,-157 65,-157 62,-154 62,-151 62,-151 62,-145 62,-145 62,-142 65,-139 68,-139 68,-139 112,-139 112,-139 115,-139 118,-142 118,-145 118,-145 118,-151 118,-151 118,-154 115,-157 112,-157"/>
<text text-anchor="start" x="70" y="-145.8" font-family="Helvetica,sans-Serif" font-size="9.00">viterbi.ts</text>
</a>
</g>
</g>
<!-- packages/util/graph/src/viterbi.ts&#45;&gt;packages/util/math/src/reduction/compare.ts -->
<g id="edge10" class="edge">
<title>packages/util/graph/src/viterbi.ts&#45;&gt;packages/util/math/src/reduction/compare.ts</title>
<path fill="none" stroke="#000000" stroke-width="2" stroke-opacity="0.200000" d="M118.09,-150.69C194.96,-158.05 409.01,-178.55 498.67,-187.14"/>
<polygon fill="#000000" fill-opacity="0.200000" stroke="#000000" stroke-width="2" stroke-opacity="0.200000" points="498.74,-189.25 504.91,-187.74 499.14,-185.07 498.74,-189.25"/>
</g>
<!-- packages/util/graph/src/viterbi.ts&#45;&gt;packages/util/graph/src/log&#45;viterbi.ts -->
<g id="edge9" class="edge">
<title>packages/util/graph/src/viterbi.ts&#45;&gt;packages/util/graph/src/log&#45;viterbi.ts</title>
<path fill="none" stroke="#000000" stroke-width="2" stroke-opacity="0.200000" d="M118.16,-149.95C126.94,-150.58 136.89,-151.3 146.49,-151.98"/>
<polygon fill="#000000" fill-opacity="0.200000" stroke="#000000" stroke-width="2" stroke-opacity="0.200000" points="146.6,-154.1 152.73,-152.43 146.9,-149.91 146.6,-154.1"/>
</g>
</g>
</svg>
