<?xml version="1.0" encoding="UTF-8" standalone="no"?>
<!DOCTYPE svg PUBLIC "-//W3C//DTD SVG 1.1//EN"
 "http://www.w3.org/Graphics/SVG/1.1/DTD/svg11.dtd">
<!-- Generated by graphviz version 2.43.0 (0)
 -->
<!-- Title: dependency&#45;cruiser output Pages: 1 -->
<svg width="218pt" height="206pt"
 viewBox="0.00 0.00 218.02 206.14" xmlns="http://www.w3.org/2000/svg" xmlns:xlink="http://www.w3.org/1999/xlink">
<g id="graph0" class="graph" transform="scale(1 1) rotate(0) translate(4 202.14)">
<title>dependency&#45;cruiser output</title>
<polygon fill="white" stroke="transparent" points="-4,4 -4,-202.14 214.02,-202.14 214.02,4 -4,4"/>
<g id="clust1" class="cluster">
<title>cluster_node_modules</title>
<path fill="#ffffff" stroke="black" stroke-width="2" d="M15.44,0C15.44,0 87.44,0 87.44,0 90.44,0 93.44,-3 93.44,-6 93.44,-6 93.44,-12 93.44,-12 93.44,-15 90.44,-18 87.44,-18 87.44,-18 15.44,-18 15.44,-18 12.44,-18 9.44,-15 9.44,-12 9.44,-12 9.44,-6 9.44,-6 9.44,-3 12.44,0 15.44,0"/>
<text text-anchor="middle" x="51.44" y="-6.8" font-family="Helvetica,sans-Serif" font-weight="bold" font-size="9.00">node_modules</text>
</g>
<g id="clust2" class="cluster">
<title>cluster_packages</title>
<path fill="#ffffff" stroke="black" stroke-width="2" d="M12,-1.19C12,-1.19 198.02,-1.19 198.02,-1.19 204.02,-1.19 210.02,-7.19 210.02,-13.19 210.02,-13.19 210.02,-186.14 210.02,-186.14 210.02,-192.14 204.02,-198.14 198.02,-198.14 198.02,-198.14 12,-198.14 12,-198.14 6,-198.14 0,-192.14 0,-186.14 0,-186.14 0,-13.19 0,-13.19 0,-7.19 6,-1.19 12,-1.19"/>
<text text-anchor="middle" x="105.01" y="-186.94" font-family="Helvetica,sans-Serif" font-weight="bold" font-size="9.00">packages</text>
</g>
<!-- node_modules/fast&#45;xml&#45;parser -->
<g id="node1" class="node">
<title>node_modules/fast&#45;xml&#45;parser</title>
<g id="a_node1"><a xlink:href="https://www.npmjs.com/package/fast-xml-parser" xlink:title="fast&#45;xml&#45;parser">
<polygon fill="#c40b0a" fill-opacity="0.101961" stroke="black" points="93.44,-18 11.44,-18 9.44,-16 9.44,0 91.44,0 93.44,-2 93.44,-18"/>
<polyline fill="none" stroke="black" points="91.44,-16 9.44,-16 "/>
<polyline fill="none" stroke="black" points="91.44,-16 91.44,0 "/>
<polyline fill="none" stroke="black" points="91.44,-16 93.44,-18 "/>
<text text-anchor="start" x="17.44" y="-6.8" font-family="Helvetica,sans-Serif" font-size="9.00" fill="#c40b0a">fast&#45;xml&#45;parser</text>
</a>
</g>
</g>
<!-- packages/data&#45;type/serializable&#45;data/src/XMLParser.ts -->
<g id="node2" class="node">
<title>packages/data&#45;type/serializable&#45;data/src/XMLParser.ts</title>
<g id="a_node2"><a xlink:href="packages/data-type/serializable-data/src/XMLParser.ts" xlink:title="XMLParser.ts">
<path fill="#ddfeff" stroke="black" d="M125.22,-55.8C125.22,-55.8 63.22,-55.8 63.22,-55.8 60.22,-55.8 57.22,-52.8 57.22,-49.8 57.22,-49.8 57.22,-43.8 57.22,-43.8 57.22,-40.8 60.22,-37.8 63.22,-37.8 63.22,-37.8 125.22,-37.8 125.22,-37.8 128.22,-37.8 131.22,-40.8 131.22,-43.8 131.22,-43.8 131.22,-49.8 131.22,-49.8 131.22,-52.8 128.22,-55.8 125.22,-55.8"/>
<text text-anchor="start" x="65.22" y="-44.6" font-family="Helvetica,sans-Serif" font-size="9.00">XMLParser.ts</text>
</a>
</g>
</g>
<!-- packages/data&#45;type/serializable&#45;data/src/XMLParser.ts&#45;&gt;node_modules/fast&#45;xml&#45;parser -->
<g id="edge1" class="edge">
<title>packages/data&#45;type/serializable&#45;data/src/XMLParser.ts&#45;&gt;node_modules/fast&#45;xml&#45;parser</title>
<path fill="none" stroke="#000000" stroke-opacity="0.200000" d="M83.87,-37.65C78.61,-33 72.13,-27.28 66.35,-22.17"/>
<polygon fill="#000000" fill-opacity="0.200000" stroke="#000000" stroke-opacity="0.200000" points="67.59,-20.46 61.7,-18.06 64.81,-23.61 67.59,-20.46"/>
</g>
<!-- packages/data&#45;type/serializable&#45;data/src/index.ts -->
<g id="node3" class="node">
<title>packages/data&#45;type/serializable&#45;data/src/index.ts</title>
<g id="a_node3"><a xlink:href="packages/data-type/serializable-data/src/index.ts" xlink:title="index.ts">
<path fill="#ddfeff" stroke="black" d="M158.9,-19.19C158.9,-19.19 116.9,-19.19 116.9,-19.19 113.9,-19.19 110.9,-16.19 110.9,-13.19 110.9,-13.19 110.9,-7.19 110.9,-7.19 110.9,-4.19 113.9,-1.19 116.9,-1.19 116.9,-1.19 158.9,-1.19 158.9,-1.19 161.9,-1.19 164.9,-4.19 164.9,-7.19 164.9,-7.19 164.9,-13.19 164.9,-13.19 164.9,-16.19 161.9,-19.19 158.9,-19.19"/>
<text text-anchor="start" x="119.4" y="-7.99" font-family="Helvetica,sans-Serif" font-size="9.00">index.ts</text>
</a>
</g>
</g>
<!-- packages/data&#45;type/serializable&#45;data/src/index.ts&#45;&gt;packages/data&#45;type/serializable&#45;data/src/XMLParser.ts -->
<g id="edge2" class="edge">
<title>packages/data&#45;type/serializable&#45;data/src/index.ts&#45;&gt;packages/data&#45;type/serializable&#45;data/src/XMLParser.ts</title>
<path fill="none" stroke="#000000" stroke-width="2" stroke-opacity="0.200000" d="M126.88,-19.43C121.77,-23.71 115.61,-28.87 110.01,-33.56"/>
<polygon fill="#000000" fill-opacity="0.200000" stroke="#000000" stroke-width="2" stroke-opacity="0.200000" points="103.74,-36.08 109.69,-33.83 106.44,-39.3 103.74,-36.08"/>
</g>
<!-- packages/data&#45;type/serializable&#45;data/src/json&#45;serializable.ts -->
<g id="node4" class="node">
<title>packages/data&#45;type/serializable&#45;data/src/json&#45;serializable.ts</title>
<g id="a_node4"><a xlink:href="packages/data-type/serializable-data/src/json-serializable.ts" xlink:title="json&#45;serializable.ts">
<path fill="#ddfeff" stroke="black" d="M204.02,-198.14C204.02,-198.14 118.02,-198.14 118.02,-198.14 115.02,-198.14 112.02,-195.14 112.02,-192.14 112.02,-192.14 112.02,-186.14 112.02,-186.14 112.02,-183.14 115.02,-180.14 118.02,-180.14 118.02,-180.14 204.02,-180.14 204.02,-180.14 207.02,-180.14 210.02,-183.14 210.02,-186.14 210.02,-186.14 210.02,-192.14 210.02,-192.14 210.02,-195.14 207.02,-198.14 204.02,-198.14"/>
<text text-anchor="start" x="120.02" y="-186.94" font-family="Helvetica,sans-Serif" font-size="9.00">json&#45;serializable.ts</text>
</a>
</g>
</g>
<!-- packages/data&#45;type/serializable&#45;data/src/serializable.ts -->
<g id="node5" class="node">
<title>packages/data&#45;type/serializable&#45;data/src/serializable.ts</title>
<g id="a_node5"><a xlink:href="packages/data-type/serializable-data/src/serializable.ts" xlink:title="serializable.ts">
<path fill="#ddfeff" stroke="black" d="M162.37,-154.59C162.37,-154.59 97.37,-154.59 97.37,-154.59 94.37,-154.59 91.37,-151.59 91.37,-148.59 91.37,-148.59 91.37,-142.59 91.37,-142.59 91.37,-139.59 94.37,-136.59 97.37,-136.59 97.37,-136.59 162.37,-136.59 162.37,-136.59 165.37,-136.59 168.37,-139.59 168.37,-142.59 168.37,-142.59 168.37,-148.59 168.37,-148.59 168.37,-151.59 165.37,-154.59 162.37,-154.59"/>
<text text-anchor="start" x="99.37" y="-143.39" font-family="Helvetica,sans-Serif" font-size="9.00">serializable.ts</text>
</a>
</g>
</g>
<!-- packages/data&#45;type/serializable&#45;data/src/json&#45;serializable.ts&#45;&gt;packages/data&#45;type/serializable&#45;data/src/serializable.ts -->
<g id="edge3" class="edge">
<title>packages/data&#45;type/serializable&#45;data/src/json&#45;serializable.ts&#45;&gt;packages/data&#45;type/serializable&#45;data/src/serializable.ts</title>
<path fill="none" stroke="#000000" stroke-width="2" stroke-opacity="0.200000" d="M154.41,-179.91C150.28,-174.13 144.88,-166.58 140.19,-160.02"/>
<polygon fill="#000000" fill-opacity="0.200000" stroke="#000000" stroke-width="2" stroke-opacity="0.200000" points="141.66,-158.47 136.46,-154.82 138.25,-160.92 141.66,-158.47"/>
</g>
<!-- packages/data&#45;type/serializable&#45;data/src/key&#45;length.ts -->
<g id="node6" class="node">
<title>packages/data&#45;type/serializable&#45;data/src/key&#45;length.ts</title>
<g id="a_node6"><a xlink:href="packages/data-type/serializable-data/src/key-length.ts" xlink:title="key&#45;length.ts">
<path fill="#ddfeff" stroke="black" d="M70,-140.34C70,-140.34 6,-140.34 6,-140.34 3,-140.34 0,-137.34 0,-134.34 0,-134.34 0,-128.34 0,-128.34 0,-125.34 3,-122.34 6,-122.34 6,-122.34 70,-122.34 70,-122.34 73,-122.34 76,-125.34 76,-128.34 76,-128.34 76,-134.34 76,-134.34 76,-137.34 73,-140.34 70,-140.34"/>
<text text-anchor="start" x="8" y="-129.14" font-family="Helvetica,sans-Serif" font-size="9.00">key&#45;length.ts</text>
</a>
</g>
</g>
<!-- packages/data&#45;type/serializable&#45;data/src/xml&#45;serializable.ts -->
<g id="node7" class="node">
<title>packages/data&#45;type/serializable&#45;data/src/xml&#45;serializable.ts</title>
<g id="a_node7"><a xlink:href="packages/data-type/serializable-data/src/xml-serializable.ts" xlink:title="xml&#45;serializable.ts">
<path fill="#ddfeff" stroke="black" d="M131.74,-114.34C131.74,-114.34 47.74,-114.34 47.74,-114.34 44.74,-114.34 41.74,-111.34 41.74,-108.34 41.74,-108.34 41.74,-102.34 41.74,-102.34 41.74,-99.34 44.74,-96.34 47.74,-96.34 47.74,-96.34 131.74,-96.34 131.74,-96.34 134.74,-96.34 137.74,-99.34 137.74,-102.34 137.74,-102.34 137.74,-108.34 137.74,-108.34 137.74,-111.34 134.74,-114.34 131.74,-114.34"/>
<text text-anchor="start" x="49.74" y="-103.14" font-family="Helvetica,sans-Serif" font-size="9.00">xml&#45;serializable.ts</text>
</a>
</g>
</g>
<!-- packages/data&#45;type/serializable&#45;data/src/xml&#45;serializable.ts&#45;&gt;packages/data&#45;type/serializable&#45;data/src/XMLParser.ts -->
<g id="edge6" class="edge">
<title>packages/data&#45;type/serializable&#45;data/src/xml&#45;serializable.ts&#45;&gt;packages/data&#45;type/serializable&#45;data/src/XMLParser.ts</title>
<path fill="none" stroke="#000000" stroke-width="2" stroke-opacity="0.200000" d="M90.44,-96.19C91.13,-87.13 92.21,-73.1 93.03,-62.3"/>
<polygon fill="#000000" fill-opacity="0.200000" stroke="#000000" stroke-width="2" stroke-opacity="0.200000" points="95.15,-62.21 93.51,-56.07 90.96,-61.89 95.15,-62.21"/>
</g>
<!-- packages/data&#45;type/serializable&#45;data/src/xml&#45;serializable.ts&#45;&gt;packages/data&#45;type/serializable&#45;data/src/serializable.ts -->
<g id="edge5" class="edge">
<title>packages/data&#45;type/serializable&#45;data/src/xml&#45;serializable.ts&#45;&gt;packages/data&#45;type/serializable&#45;data/src/serializable.ts</title>
<path fill="none" stroke="#000000" stroke-width="2" stroke-opacity="0.200000" d="M99.05,-114.67C104.18,-119.83 110.65,-126.32 116.34,-132.03"/>
<polygon fill="#000000" fill-opacity="0.200000" stroke="#000000" stroke-width="2" stroke-opacity="0.200000" points="115.16,-133.82 120.89,-136.58 118.14,-130.85 115.16,-133.82"/>
</g>
<!-- packages/data&#45;type/serializable&#45;data/src/xml&#45;serializable.ts&#45;&gt;packages/data&#45;type/serializable&#45;data/src/key&#45;length.ts -->
<g id="edge4" class="edge">
<title>packages/data&#45;type/serializable&#45;data/src/xml&#45;serializable.ts&#45;&gt;packages/data&#45;type/serializable&#45;data/src/key&#45;length.ts</title>
<path fill="none" stroke="#000000" stroke-width="2" stroke-opacity="0.200000" d="M71.64,-114.43C68.51,-116.01 65.21,-117.66 61.95,-119.3"/>
<polygon fill="#000000" fill-opacity="0.200000" stroke="#000000" stroke-width="2" stroke-opacity="0.200000" points="60.59,-117.64 56.17,-122.21 62.48,-121.39 60.59,-117.64"/>
</g>
</g>
</svg>
