<?xml version="1.0" encoding="UTF-8" standalone="no"?>
<!DOCTYPE svg PUBLIC "-//W3C//DTD SVG 1.1//EN"
 "http://www.w3.org/Graphics/SVG/1.1/DTD/svg11.dtd">
<!-- Generated by graphviz version 2.43.0 (0)
 -->
<!-- Title: dependency&#45;cruiser output Pages: 1 -->
<svg width="446pt" height="238pt"
 viewBox="0.00 0.00 446.00 238.00" xmlns="http://www.w3.org/2000/svg" xmlns:xlink="http://www.w3.org/1999/xlink">
<g id="graph0" class="graph" transform="scale(1 1) rotate(0) translate(4 234)">
<title>dependency&#45;cruiser output</title>
<polygon fill="white" stroke="transparent" points="-4,4 -4,-234 442,-234 442,4 -4,4"/>
<g id="clust1" class="cluster">
<title>cluster_node_modules</title>
<path fill="#ffffff" stroke="black" stroke-width="2" d="M342,-84C342,-84 418,-84 418,-84 424,-84 430,-90 430,-96 430,-96 430,-124 430,-124 430,-130 424,-136 418,-136 418,-136 342,-136 342,-136 336,-136 330,-130 330,-124 330,-124 330,-96 330,-96 330,-90 336,-84 342,-84"/>
<text text-anchor="middle" x="380" y="-124.8" font-family="Helvetica,sans-Serif" font-weight="bold" font-size="9.00">node_modules</text>
</g>
<g id="clust2" class="cluster">
<title>cluster_packages</title>
<path fill="#ffffff" stroke="black" stroke-width="2" d="M20,-8C20,-8 310,-8 310,-8 316,-8 322,-14 322,-20 322,-20 322,-210 322,-210 322,-216 316,-222 310,-222 310,-222 20,-222 20,-222 14,-222 8,-216 8,-210 8,-210 8,-20 8,-20 8,-14 14,-8 20,-8"/>
<text text-anchor="middle" x="165" y="-210.8" font-family="Helvetica,sans-Serif" font-weight="bold" font-size="9.00">packages</text>
</g>
<g id="clust3" class="cluster">
<title>cluster_packages/data&#45;type</title>
<path fill="#ffffff" stroke="black" stroke-width="2" d="M28,-16C28,-16 302,-16 302,-16 308,-16 314,-22 314,-28 314,-28 314,-184 314,-184 314,-190 308,-196 302,-196 302,-196 28,-196 28,-196 22,-196 16,-190 16,-184 16,-184 16,-28 16,-28 16,-22 22,-16 28,-16"/>
<text text-anchor="middle" x="165" y="-184.8" font-family="Helvetica,sans-Serif" font-weight="bold" font-size="9.00">data&#45;type</text>
</g>
<g id="clust4" class="cluster">
<title>cluster_packages/data&#45;type/serializable&#45;data</title>
<path fill="#ffffff" stroke="black" stroke-width="2" d="M36,-24C36,-24 294,-24 294,-24 300,-24 306,-30 306,-36 306,-36 306,-158 306,-158 306,-164 300,-170 294,-170 294,-170 36,-170 36,-170 30,-170 24,-164 24,-158 24,-158 24,-36 24,-36 24,-30 30,-24 36,-24"/>
<text text-anchor="middle" x="165" y="-158.8" font-family="Helvetica,sans-Serif" font-weight="bold" font-size="9.00">serializable&#45;data</text>
</g>
<g id="clust5" class="cluster">
<title>cluster_packages/data&#45;type/serializable&#45;data/src</title>
<path fill="#ffffff" stroke="black" stroke-width="2" d="M106,-32C106,-32 286,-32 286,-32 292,-32 298,-38 298,-44 298,-44 298,-132 298,-132 298,-138 292,-144 286,-144 286,-144 106,-144 106,-144 100,-144 94,-138 94,-132 94,-132 94,-44 94,-44 94,-38 100,-32 106,-32"/>
<text text-anchor="middle" x="196" y="-132.8" font-family="Helvetica,sans-Serif" font-weight="bold" font-size="9.00">src</text>
</g>
<!-- node_modules/fast&#45;xml&#45;parser -->
<g id="node1" class="node">
<title>node_modules/fast&#45;xml&#45;parser</title>
<g id="a_node1"><a xlink:href="https://www.npmjs.com/package/fast-xml-parser" xlink:title="fast&#45;xml&#45;parser">
<polygon fill="#c40b0a" fill-opacity="0.101961" stroke="black" points="422,-110 340,-110 338,-108 338,-92 420,-92 422,-94 422,-110"/>
<polyline fill="none" stroke="black" points="420,-108 338,-108 "/>
<polyline fill="none" stroke="black" points="420,-108 420,-92 "/>
<polyline fill="none" stroke="black" points="420,-108 422,-110 "/>
<text text-anchor="start" x="346" y="-98.8" font-family="Helvetica,sans-Serif" font-size="9.00" fill="#c40b0a">fast&#45;xml&#45;parser</text>
</a>
</g>
</g>
<!-- packages/data&#45;type/serializable&#45;data/index.ts -->
<g id="node2" class="node">
<title>packages/data&#45;type/serializable&#45;data/index.ts</title>
<g id="a_node2"><a xlink:href="packages/data-type/serializable-data/index.ts" xlink:title="index.ts">
<path fill="#ddfeff" stroke="black" d="M80,-118C80,-118 38,-118 38,-118 35,-118 32,-115 32,-112 32,-112 32,-106 32,-106 32,-103 35,-100 38,-100 38,-100 80,-100 80,-100 83,-100 86,-103 86,-106 86,-106 86,-112 86,-112 86,-115 83,-118 80,-118"/>
<text text-anchor="start" x="40.5" y="-106.8" font-family="Helvetica,sans-Serif" font-size="9.00">index.ts</text>
</a>
</g>
</g>
<!-- packages/data&#45;type/serializable&#45;data/src/index.ts -->
<g id="node3" class="node">
<title>packages/data&#45;type/serializable&#45;data/src/index.ts</title>
<g id="a_node3"><a xlink:href="packages/data-type/serializable-data/src/index.ts" xlink:title="index.ts">
<path fill="#ddfeff" stroke="black" d="M172,-118C172,-118 130,-118 130,-118 127,-118 124,-115 124,-112 124,-112 124,-106 124,-106 124,-103 127,-100 130,-100 130,-100 172,-100 172,-100 175,-100 178,-103 178,-106 178,-106 178,-112 178,-112 178,-115 175,-118 172,-118"/>
<text text-anchor="start" x="132.5" y="-106.8" font-family="Helvetica,sans-Serif" font-size="9.00">index.ts</text>
</a>
</g>
</g>
<!-- packages/data&#45;type/serializable&#45;data/index.ts&#45;&gt;packages/data&#45;type/serializable&#45;data/src/index.ts -->
<g id="edge1" class="edge">
<title>packages/data&#45;type/serializable&#45;data/index.ts&#45;&gt;packages/data&#45;type/serializable&#45;data/src/index.ts</title>
<path fill="none" stroke="#000000" stroke-width="2" stroke-opacity="0.200000" d="M86.03,-109C95.83,-109 107.11,-109 117.43,-109"/>
<polygon fill="#000000" fill-opacity="0.200000" stroke="#000000" stroke-width="2" stroke-opacity="0.200000" points="123.72,-111.1 117.71,-109 123.71,-106.9 123.72,-111.1"/>
</g>
<!-- packages/data&#45;type/serializable&#45;data/src/XMLParser.ts -->
<g id="node4" class="node">
<title>packages/data&#45;type/serializable&#45;data/src/XMLParser.ts</title>
<g id="a_node4"><a xlink:href="packages/data-type/serializable-data/src/XMLParser.ts" xlink:title="XMLParser.ts">
<path fill="#ddfeff" stroke="black" d="M282.5,-110C282.5,-110 220.5,-110 220.5,-110 217.5,-110 214.5,-107 214.5,-104 214.5,-104 214.5,-98 214.5,-98 214.5,-95 217.5,-92 220.5,-92 220.5,-92 282.5,-92 282.5,-92 285.5,-92 288.5,-95 288.5,-98 288.5,-98 288.5,-104 288.5,-104 288.5,-107 285.5,-110 282.5,-110"/>
<text text-anchor="start" x="222.5" y="-98.8" font-family="Helvetica,sans-Serif" font-size="9.00">XMLParser.ts</text>
</a>
</g>
</g>
<!-- packages/data&#45;type/serializable&#45;data/src/index.ts&#45;&gt;packages/data&#45;type/serializable&#45;data/src/XMLParser.ts -->
<g id="edge3" class="edge">
<title>packages/data&#45;type/serializable&#45;data/src/index.ts&#45;&gt;packages/data&#45;type/serializable&#45;data/src/XMLParser.ts</title>
<path fill="none" stroke="#000000" stroke-width="2" stroke-opacity="0.200000" d="M178.14,-106.88C187.29,-106.13 197.83,-105.28 207.98,-104.45"/>
<polygon fill="#000000" fill-opacity="0.200000" stroke="#000000" stroke-width="2" stroke-opacity="0.200000" points="214.4,-106.04 208.25,-104.43 214.06,-101.85 214.4,-106.04"/>
</g>
<!-- packages/data&#45;type/serializable&#45;data/src/XMLParser.ts&#45;&gt;node_modules/fast&#45;xml&#45;parser -->
<g id="edge2" class="edge">
<title>packages/data&#45;type/serializable&#45;data/src/XMLParser.ts&#45;&gt;node_modules/fast&#45;xml&#45;parser</title>
<path fill="none" stroke="#000000" stroke-opacity="0.200000" d="M288.75,-101C302.17,-101 317.58,-101 331.82,-101"/>
<polygon fill="#000000" fill-opacity="0.200000" stroke="#000000" stroke-opacity="0.200000" points="331.85,-103.1 337.85,-101 331.85,-98.9 331.85,-103.1"/>
</g>
<!-- packages/data&#45;type/serializable&#45;data/src/json&#45;serializable.ts -->
<g id="node5" class="node">
<title>packages/data&#45;type/serializable&#45;data/src/json&#45;serializable.ts</title>
<g id="a_node5"><a xlink:href="packages/data-type/serializable-data/src/json-serializable.ts" xlink:title="json&#45;serializable.ts">
<path fill="#ddfeff" stroke="black" d="M194,-58C194,-58 108,-58 108,-58 105,-58 102,-55 102,-52 102,-52 102,-46 102,-46 102,-43 105,-40 108,-40 108,-40 194,-40 194,-40 197,-40 200,-43 200,-46 200,-46 200,-52 200,-52 200,-55 197,-58 194,-58"/>
<text text-anchor="start" x="110" y="-46.8" font-family="Helvetica,sans-Serif" font-size="9.00">json&#45;serializable.ts</text>
</a>
</g>
</g>
<!-- packages/data&#45;type/serializable&#45;data/src/serializable.ts -->
<g id="node6" class="node">
<title>packages/data&#45;type/serializable&#45;data/src/serializable.ts</title>
<g id="a_node6"><a xlink:href="packages/data-type/serializable-data/src/serializable.ts" xlink:title="serializable.ts">
<path fill="#ddfeff" stroke="black" d="M284,-73C284,-73 219,-73 219,-73 216,-73 213,-70 213,-67 213,-67 213,-61 213,-61 213,-58 216,-55 219,-55 219,-55 284,-55 284,-55 287,-55 290,-58 290,-61 290,-61 290,-67 290,-67 290,-70 287,-73 284,-73"/>
<text text-anchor="start" x="221" y="-61.8" font-family="Helvetica,sans-Serif" font-size="9.00">serializable.ts</text>
</a>
</g>
</g>
<!-- packages/data&#45;type/serializable&#45;data/src/json&#45;serializable.ts&#45;&gt;packages/data&#45;type/serializable&#45;data/src/serializable.ts -->
<g id="edge4" class="edge">
<title>packages/data&#45;type/serializable&#45;data/src/json&#45;serializable.ts&#45;&gt;packages/data&#45;type/serializable&#45;data/src/serializable.ts</title>
<path fill="none" stroke="#000000" stroke-width="2" stroke-opacity="0.200000" d="M200.1,-56.32C202.38,-56.67 204.67,-57.02 206.94,-57.37"/>
<polygon fill="#000000" fill-opacity="0.200000" stroke="#000000" stroke-width="2" stroke-opacity="0.200000" points="206.64,-59.45 212.89,-58.27 207.28,-55.29 206.64,-59.45"/>
</g>
<!-- packages/data&#45;type/serializable&#45;data/src/xml&#45;serializable.ts -->
<g id="node7" class="node">
<title>packages/data&#45;type/serializable&#45;data/src/xml&#45;serializable.ts</title>
<g id="a_node7"><a xlink:href="packages/data-type/serializable-data/src/xml-serializable.ts" xlink:title="xml&#45;serializable.ts">
<path fill="#ddfeff" stroke="black" d="M193,-88C193,-88 109,-88 109,-88 106,-88 103,-85 103,-82 103,-82 103,-76 103,-76 103,-73 106,-70 109,-70 109,-70 193,-70 193,-70 196,-70 199,-73 199,-76 199,-76 199,-82 199,-82 199,-85 196,-88 193,-88"/>
<text text-anchor="start" x="111" y="-76.8" font-family="Helvetica,sans-Serif" font-size="9.00">xml&#45;serializable.ts</text>
</a>
</g>
</g>
<!-- packages/data&#45;type/serializable&#45;data/src/xml&#45;serializable.ts&#45;&gt;packages/data&#45;type/serializable&#45;data/src/XMLParser.ts -->
<g id="edge6" class="edge">
<title>packages/data&#45;type/serializable&#45;data/src/xml&#45;serializable.ts&#45;&gt;packages/data&#45;type/serializable&#45;data/src/XMLParser.ts</title>
<path fill="none" stroke="#000000" stroke-width="2" stroke-opacity="0.200000" d="M192.35,-88.01C197.62,-89.19 203.03,-90.4 208.33,-91.58"/>
<polygon fill="#000000" fill-opacity="0.200000" stroke="#000000" stroke-width="2" stroke-opacity="0.200000" points="208.17,-93.7 214.48,-92.96 209.08,-89.6 208.17,-93.7"/>
</g>
<!-- packages/data&#45;type/serializable&#45;data/src/xml&#45;serializable.ts&#45;&gt;packages/data&#45;type/serializable&#45;data/src/serializable.ts -->
<g id="edge5" class="edge">
<title>packages/data&#45;type/serializable&#45;data/src/xml&#45;serializable.ts&#45;&gt;packages/data&#45;type/serializable&#45;data/src/serializable.ts</title>
<path fill="none" stroke="#000000" stroke-width="2" stroke-opacity="0.200000" d="M199.23,-71.81C201.64,-71.44 204.06,-71.07 206.47,-70.71"/>
<polygon fill="#000000" fill-opacity="0.200000" stroke="#000000" stroke-width="2" stroke-opacity="0.200000" points="207.16,-72.72 212.77,-69.75 206.52,-68.57 207.16,-72.72"/>
</g>
</g>
</svg>
