<?xml version="1.0" encoding="UTF-8" standalone="no"?>
<!DOCTYPE svg PUBLIC "-//W3C//DTD SVG 1.1//EN"
 "http://www.w3.org/Graphics/SVG/1.1/DTD/svg11.dtd">
<!-- Generated by graphviz version 2.43.0 (0)
 -->
<!-- Title: dependency&#45;cruiser output Pages: 1 -->
<svg width="384pt" height="238pt"
 viewBox="0.00 0.00 384.00 238.00" xmlns="http://www.w3.org/2000/svg" xmlns:xlink="http://www.w3.org/1999/xlink">
<g id="graph0" class="graph" transform="scale(1 1) rotate(0) translate(4 234)">
<title>dependency&#45;cruiser output</title>
<polygon fill="white" stroke="transparent" points="-4,4 -4,-234 380,-234 380,4 -4,4"/>
<g id="clust1" class="cluster">
<title>cluster_node_modules</title>
<path fill="#ffffff" stroke="black" stroke-width="2" d="M280,-92C280,-92 356,-92 356,-92 362,-92 368,-98 368,-104 368,-104 368,-132 368,-132 368,-138 362,-144 356,-144 356,-144 280,-144 280,-144 274,-144 268,-138 268,-132 268,-132 268,-104 268,-104 268,-98 274,-92 280,-92"/>
<text text-anchor="middle" x="318" y="-132.8" font-family="Helvetica,sans-Serif" font-weight="bold" font-size="9.00">node_modules</text>
</g>
<g id="clust2" class="cluster">
<title>cluster_packages</title>
<path fill="#ffffff" stroke="black" stroke-width="2" d="M20,-8C20,-8 248,-8 248,-8 254,-8 260,-14 260,-20 260,-20 260,-210 260,-210 260,-216 254,-222 248,-222 248,-222 20,-222 20,-222 14,-222 8,-216 8,-210 8,-210 8,-20 8,-20 8,-14 14,-8 20,-8"/>
<text text-anchor="middle" x="134" y="-210.8" font-family="Helvetica,sans-Serif" font-weight="bold" font-size="9.00">packages</text>
</g>
<g id="clust3" class="cluster">
<title>cluster_packages/data&#45;type</title>
<path fill="#ffffff" stroke="black" stroke-width="2" d="M28,-16C28,-16 240,-16 240,-16 246,-16 252,-22 252,-28 252,-28 252,-184 252,-184 252,-190 246,-196 240,-196 240,-196 28,-196 28,-196 22,-196 16,-190 16,-184 16,-184 16,-28 16,-28 16,-22 22,-16 28,-16"/>
<text text-anchor="middle" x="134" y="-184.8" font-family="Helvetica,sans-Serif" font-weight="bold" font-size="9.00">data&#45;type</text>
</g>
<g id="clust4" class="cluster">
<title>cluster_packages/data&#45;type/serializable&#45;data</title>
<path fill="#ffffff" stroke="black" stroke-width="2" d="M36,-24C36,-24 232,-24 232,-24 238,-24 244,-30 244,-36 244,-36 244,-158 244,-158 244,-164 238,-170 232,-170 232,-170 36,-170 36,-170 30,-170 24,-164 24,-158 24,-158 24,-36 24,-36 24,-30 30,-24 36,-24"/>
<text text-anchor="middle" x="134" y="-158.8" font-family="Helvetica,sans-Serif" font-weight="bold" font-size="9.00">serializable&#45;data</text>
</g>
<g id="clust5" class="cluster">
<title>cluster_packages/data&#45;type/serializable&#45;data/src</title>
<path fill="#ffffff" stroke="black" stroke-width="2" d="M44,-32C44,-32 224,-32 224,-32 230,-32 236,-38 236,-44 236,-44 236,-132 236,-132 236,-138 230,-144 224,-144 224,-144 44,-144 44,-144 38,-144 32,-138 32,-132 32,-132 32,-44 32,-44 32,-38 38,-32 44,-32"/>
<text text-anchor="middle" x="134" y="-132.8" font-family="Helvetica,sans-Serif" font-weight="bold" font-size="9.00">src</text>
</g>
<!-- node_modules/fast&#45;xml&#45;parser -->
<g id="node1" class="node">
<title>node_modules/fast&#45;xml&#45;parser</title>
<g id="a_node1"><a xlink:href="https://www.npmjs.com/package/fast-xml-parser" xlink:title="fast&#45;xml&#45;parser">
<polygon fill="#c40b0a" fill-opacity="0.101961" stroke="black" points="360,-118 278,-118 276,-116 276,-100 358,-100 360,-102 360,-118"/>
<polyline fill="none" stroke="black" points="358,-116 276,-116 "/>
<polyline fill="none" stroke="black" points="358,-116 358,-100 "/>
<polyline fill="none" stroke="black" points="358,-116 360,-118 "/>
<text text-anchor="start" x="284" y="-106.8" font-family="Helvetica,sans-Serif" font-size="9.00" fill="#c40b0a">fast&#45;xml&#45;parser</text>
</a>
</g>
</g>
<!-- packages/data&#45;type/serializable&#45;data/src/XMLParser.ts -->
<g id="node2" class="node">
<title>packages/data&#45;type/serializable&#45;data/src/XMLParser.ts</title>
<g id="a_node2"><a xlink:href="packages/data-type/serializable-data/src/XMLParser.ts" xlink:title="XMLParser.ts">
<path fill="#ddfeff" stroke="black" d="M220.5,-118C220.5,-118 158.5,-118 158.5,-118 155.5,-118 152.5,-115 152.5,-112 152.5,-112 152.5,-106 152.5,-106 152.5,-103 155.5,-100 158.5,-100 158.5,-100 220.5,-100 220.5,-100 223.5,-100 226.5,-103 226.5,-106 226.5,-106 226.5,-112 226.5,-112 226.5,-115 223.5,-118 220.5,-118"/>
<text text-anchor="start" x="160.5" y="-106.8" font-family="Helvetica,sans-Serif" font-size="9.00">XMLParser.ts</text>
</a>
</g>
</g>
<!-- packages/data&#45;type/serializable&#45;data/src/XMLParser.ts&#45;&gt;node_modules/fast&#45;xml&#45;parser -->
<g id="edge1" class="edge">
<title>packages/data&#45;type/serializable&#45;data/src/XMLParser.ts&#45;&gt;node_modules/fast&#45;xml&#45;parser</title>
<path fill="none" stroke="#000000" stroke-opacity="0.200000" d="M226.75,-109C240.17,-109 255.58,-109 269.82,-109"/>
<polygon fill="#000000" fill-opacity="0.200000" stroke="#000000" stroke-opacity="0.200000" points="269.85,-111.1 275.85,-109 269.85,-106.9 269.85,-111.1"/>
</g>
<!-- packages/data&#45;type/serializable&#45;data/src/index.ts -->
<g id="node3" class="node">
<title>packages/data&#45;type/serializable&#45;data/src/index.ts</title>
<g id="a_node3"><a xlink:href="packages/data-type/serializable-data/src/index.ts" xlink:title="index.ts">
<path fill="#ddfeff" stroke="black" d="M110,-118C110,-118 68,-118 68,-118 65,-118 62,-115 62,-112 62,-112 62,-106 62,-106 62,-103 65,-100 68,-100 68,-100 110,-100 110,-100 113,-100 116,-103 116,-106 116,-106 116,-112 116,-112 116,-115 113,-118 110,-118"/>
<text text-anchor="start" x="70.5" y="-106.8" font-family="Helvetica,sans-Serif" font-size="9.00">index.ts</text>
</a>
</g>
</g>
<!-- packages/data&#45;type/serializable&#45;data/src/index.ts&#45;&gt;packages/data&#45;type/serializable&#45;data/src/XMLParser.ts -->
<g id="edge2" class="edge">
<title>packages/data&#45;type/serializable&#45;data/src/index.ts&#45;&gt;packages/data&#45;type/serializable&#45;data/src/XMLParser.ts</title>
<path fill="none" stroke="#000000" stroke-width="2" stroke-opacity="0.200000" d="M116.14,-109C125.29,-109 135.83,-109 145.98,-109"/>
<polygon fill="#000000" fill-opacity="0.200000" stroke="#000000" stroke-width="2" stroke-opacity="0.200000" points="152.23,-111.1 146.23,-109 152.23,-106.9 152.23,-111.1"/>
</g>
<!-- packages/data&#45;type/serializable&#45;data/src/json&#45;serializable.ts -->
<g id="node4" class="node">
<title>packages/data&#45;type/serializable&#45;data/src/json&#45;serializable.ts</title>
<g id="a_node4"><a xlink:href="packages/data-type/serializable-data/src/json-serializable.ts" xlink:title="json&#45;serializable.ts">
<path fill="#ddfeff" stroke="black" d="M132,-58C132,-58 46,-58 46,-58 43,-58 40,-55 40,-52 40,-52 40,-46 40,-46 40,-43 43,-40 46,-40 46,-40 132,-40 132,-40 135,-40 138,-43 138,-46 138,-46 138,-52 138,-52 138,-55 135,-58 132,-58"/>
<text text-anchor="start" x="48" y="-46.8" font-family="Helvetica,sans-Serif" font-size="9.00">json&#45;serializable.ts</text>
</a>
</g>
</g>
<!-- packages/data&#45;type/serializable&#45;data/src/serializable.ts -->
<g id="node5" class="node">
<title>packages/data&#45;type/serializable&#45;data/src/serializable.ts</title>
<g id="a_node5"><a xlink:href="packages/data-type/serializable-data/src/serializable.ts" xlink:title="serializable.ts">
<path fill="#ddfeff" stroke="black" d="M222,-58C222,-58 157,-58 157,-58 154,-58 151,-55 151,-52 151,-52 151,-46 151,-46 151,-43 154,-40 157,-40 157,-40 222,-40 222,-40 225,-40 228,-43 228,-46 228,-46 228,-52 228,-52 228,-55 225,-58 222,-58"/>
<text text-anchor="start" x="159" y="-46.8" font-family="Helvetica,sans-Serif" font-size="9.00">serializable.ts</text>
</a>
</g>
</g>
<!-- packages/data&#45;type/serializable&#45;data/src/json&#45;serializable.ts&#45;&gt;packages/data&#45;type/serializable&#45;data/src/serializable.ts -->
<g id="edge3" class="edge">
<title>packages/data&#45;type/serializable&#45;data/src/json&#45;serializable.ts&#45;&gt;packages/data&#45;type/serializable&#45;data/src/serializable.ts</title>
<path fill="none" stroke="#000000" stroke-width="2" stroke-opacity="0.200000" d="M138.1,-49C140.24,-49 142.4,-49 144.53,-49"/>
<polygon fill="#000000" fill-opacity="0.200000" stroke="#000000" stroke-width="2" stroke-opacity="0.200000" points="144.89,-51.1 150.89,-49 144.89,-46.9 144.89,-51.1"/>
</g>
<!-- packages/data&#45;type/serializable&#45;data/src/key&#45;length.ts -->
<g id="node6" class="node">
<title>packages/data&#45;type/serializable&#45;data/src/key&#45;length.ts</title>
<g id="a_node6"><a xlink:href="packages/data-type/serializable-data/src/key-length.ts" xlink:title="key&#45;length.ts">
<path fill="#ddfeff" stroke="black" d="M221.5,-88C221.5,-88 157.5,-88 157.5,-88 154.5,-88 151.5,-85 151.5,-82 151.5,-82 151.5,-76 151.5,-76 151.5,-73 154.5,-70 157.5,-70 157.5,-70 221.5,-70 221.5,-70 224.5,-70 227.5,-73 227.5,-76 227.5,-76 227.5,-82 227.5,-82 227.5,-85 224.5,-88 221.5,-88"/>
<text text-anchor="start" x="159.5" y="-76.8" font-family="Helvetica,sans-Serif" font-size="9.00">key&#45;length.ts</text>
</a>
</g>
</g>
<!-- packages/data&#45;type/serializable&#45;data/src/xml&#45;serializable.ts -->
<g id="node7" class="node">
<title>packages/data&#45;type/serializable&#45;data/src/xml&#45;serializable.ts</title>
<g id="a_node7"><a xlink:href="packages/data-type/serializable-data/src/xml-serializable.ts" xlink:title="xml&#45;serializable.ts">
<path fill="#ddfeff" stroke="black" d="M131,-88C131,-88 47,-88 47,-88 44,-88 41,-85 41,-82 41,-82 41,-76 41,-76 41,-73 44,-70 47,-70 47,-70 131,-70 131,-70 134,-70 137,-73 137,-76 137,-76 137,-82 137,-82 137,-85 134,-88 131,-88"/>
<text text-anchor="start" x="49" y="-76.8" font-family="Helvetica,sans-Serif" font-size="9.00">xml&#45;serializable.ts</text>
</a>
</g>
</g>
<!-- packages/data&#45;type/serializable&#45;data/src/xml&#45;serializable.ts&#45;&gt;packages/data&#45;type/serializable&#45;data/src/XMLParser.ts -->
<g id="edge6" class="edge">
<title>packages/data&#45;type/serializable&#45;data/src/xml&#45;serializable.ts&#45;&gt;packages/data&#45;type/serializable&#45;data/src/XMLParser.ts</title>
<path fill="none" stroke="#000000" stroke-width="2" stroke-opacity="0.200000" d="M119.55,-88C129.98,-91.18 141.81,-94.78 152.69,-98.09"/>
<polygon fill="#000000" fill-opacity="0.200000" stroke="#000000" stroke-width="2" stroke-opacity="0.200000" points="152.28,-100.16 158.63,-99.9 153.5,-96.14 152.28,-100.16"/>
</g>
<!-- packages/data&#45;type/serializable&#45;data/src/xml&#45;serializable.ts&#45;&gt;packages/data&#45;type/serializable&#45;data/src/serializable.ts -->
<g id="edge5" class="edge">
<title>packages/data&#45;type/serializable&#45;data/src/xml&#45;serializable.ts&#45;&gt;packages/data&#45;type/serializable&#45;data/src/serializable.ts</title>
<path fill="none" stroke="#000000" stroke-width="2" stroke-opacity="0.200000" d="M119.55,-70C129.98,-66.82 141.81,-63.22 152.69,-59.91"/>
<polygon fill="#000000" fill-opacity="0.200000" stroke="#000000" stroke-width="2" stroke-opacity="0.200000" points="153.5,-61.86 158.63,-58.1 152.28,-57.84 153.5,-61.86"/>
</g>
<!-- packages/data&#45;type/serializable&#45;data/src/xml&#45;serializable.ts&#45;&gt;packages/data&#45;type/serializable&#45;data/src/key&#45;length.ts -->
<g id="edge4" class="edge">
<title>packages/data&#45;type/serializable&#45;data/src/xml&#45;serializable.ts&#45;&gt;packages/data&#45;type/serializable&#45;data/src/key&#45;length.ts</title>
<path fill="none" stroke="#000000" stroke-width="2" stroke-opacity="0.200000" d="M137.23,-79C139.9,-79 142.57,-79 145.22,-79"/>
<polygon fill="#000000" fill-opacity="0.200000" stroke="#000000" stroke-width="2" stroke-opacity="0.200000" points="145.35,-81.1 151.35,-79 145.35,-76.9 145.35,-81.1"/>
</g>
</g>
</svg>
